<?xml version="1.0" encoding="iso-8859-1"?>
<!-- Generator: Adobe Illustrator 22.0.0, SVG Export Plug-In . SVG Version: 6.00 Build 0)  -->
<svg version="1.1" id="Capa_1" xmlns="http://www.w3.org/2000/svg" xmlns:xlink="http://www.w3.org/1999/xlink" x="0px" y="0px"
	 viewBox="0 0 512 512" style="enable-background:new 0 0 512 512;" xml:space="preserve">
<g id="XMLID_838_">
	<path id="XMLID_2200_" style="fill:#FFFFFF;" d="M10,182v288c0,17.673,14.327,32,32,32h428c17.673,0,32-14.327,32-32V182"/>
	<path id="XMLID_826_" style="fill:#FFCB7C;" d="M502,473.066V414l-88,88h59.066C489.046,502,502,489.046,502,473.066z"/>
	<path id="XMLID_824_" style="fill:#FFD89E;" d="M414,442.934V502l88-88h-59.066C426.955,414,414,426.954,414,442.934z"/>
	<path id="XMLID_888_" style="fill:#F5737F;" d="M472,62H40c-16.569,0-30,13.431-30,30v90h492V92C502,75.431,488.569,62,472,62z"/>
	<path id="XMLID_1927_" style="fill:#E1E3E9;" d="M85.948,110L85.948,110C73.827,110,64,100.174,64,88.052V31.948
		C64,19.826,73.827,10,85.948,10h0c12.122,0,21.948,9.826,21.948,21.948v56.104C107.896,100.174,98.07,110,85.948,110z"/>
	<path id="XMLID_1926_" style="fill:#E1E3E9;" d="M426.052,110L426.052,110c-12.122,0-21.948-9.826-21.948-21.948V31.948
		c0-12.122,9.826-21.948,21.948-21.948h0C438.174,10,448,19.826,448,31.948v56.104C448,100.174,438.174,110,426.052,110z"/>
	<g id="XMLID_2420_">
		<path id="XMLID_2432_" d="M472,52h-14V31.948C458,14.332,443.668,0,426.052,0s-31.948,14.332-31.948,31.948V52H290h-9.333H117.896
			V31.948C117.896,14.332,103.565,0,85.948,0S54,14.332,54,31.948V52H40C17.944,52,0,69.944,0,92v90v288c0,23.159,18.841,42,42,42
			h371.987c0.003,0,0.007,0,0.01,0s0.007,0,0.01,0H417h56.065C494.534,512,512,494.534,512,473.065V414V182V92
			C512,69.944,494.056,52,472,52z M424,477.857v-34.923c0-10.44,8.494-18.935,18.935-18.935h34.923L424,477.857z M414.104,31.948
			c0-6.588,5.36-11.948,11.948-11.948C432.64,20,438,25.36,438,31.948v56.104C438,94.64,432.64,100,426.052,100
			c-6.588,0-11.948-5.36-11.948-11.948V31.948z M74,31.948C74,25.36,79.36,20,85.948,20c6.588,0,11.948,5.36,11.948,11.948v56.104
			c0,6.588-5.36,11.948-11.948,11.948C79.36,100,74,94.64,74,88.052V31.948z M20,470V192h191c5.523,0,10-4.477,10-10
			s-4.477-10-10-10H20V92c0-11.028,8.972-20,20-20h14v16.052C54,105.668,68.332,120,85.948,120s31.948-14.332,31.948-31.948V72
			h162.771H290h104.104v16.052c0,17.616,14.332,31.948,31.948,31.948S458,105.668,458,88.052V72h14c11.028,0,20,8.972,20,20v80H301
			c-5.523,0-10,4.477-10,10s4.477,10,10,10h191v212h-49.065C421.466,404,404,421.466,404,442.935V492H42
			C29.869,492,20,482.131,20,470z M473.066,492h-34.923L492,438.143v34.923C492,483.506,483.506,492,473.066,492z"/>
		<path id="XMLID_2440_" d="M256,192c2.63,0,5.21-1.07,7.07-2.93S266,184.63,266,182c0-2.63-1.07-5.21-2.93-7.07
			c-1.86-1.86-4.44-2.93-7.07-2.93c-2.63,0-5.21,1.07-7.07,2.93c-1.86,1.86-2.93,4.44-2.93,7.07c0,2.63,1.07,5.21,2.93,7.07
			C250.79,190.93,253.37,192,256,192z"/>
		<path id="XMLID_2441_" d="M267.917,332c-1.057,0-1.917-0.86-1.917-1.917c0-5.523-4.477-10-10-10s-10,4.477-10,10
			c0,1.057-0.86,1.917-1.917,1.917c-5.523,0-10,4.477-10,10s4.477,10,10,10c1.057,0,1.917,0.86,1.917,1.917c0,5.523,4.477,10,10,10
			s10-4.477,10-10c0-1.057,0.86-1.917,1.917-1.917c5.523,0,10-4.477,10-10S273.44,332,267.917,332z"/>
		<path id="XMLID_2442_" d="M337.084,332h-29.167c-5.523,0-10,4.477-10,10s4.477,10,10,10h29.167c5.523,0,10-4.477,10-10
			S342.607,332,337.084,332z"/>
		<path id="XMLID_2443_" d="M256,300.083c5.523,0,10-4.477,10-10v-29.167c0-5.523-4.477-10-10-10s-10,4.477-10,10v29.167
			C246,295.606,250.477,300.083,256,300.083z"/>
		<path id="XMLID_2444_" d="M214.084,342c0-5.523-4.477-10-10-10h-29.167c-5.523,0-10,4.477-10,10s4.477,10,10,10h29.167
			C209.607,352,214.084,347.523,214.084,342z"/>
		<path id="XMLID_2445_" d="M256,383.917c-5.523,0-10,4.477-10,10v29.167c0,5.523,4.477,10,10,10s10-4.477,10-10v-29.167
			C266,388.394,261.523,383.917,256,383.917z"/>
		<path id="XMLID_2446_" d="M205.737,277.594c-3.905-3.905-10.237-3.905-14.143,0c-3.905,3.905-3.905,10.237,0,14.143l10.312,10.312
			c1.953,1.953,4.512,2.929,7.071,2.929s5.119-0.976,7.071-2.929c3.905-3.905,3.905-10.237,0-14.143L205.737,277.594z"/>
		<path id="XMLID_2447_" d="M303.023,304.978c2.559,0,5.119-0.976,7.071-2.929l10.312-10.312c3.905-3.905,3.905-10.237,0-14.143
			c-3.905-3.905-10.237-3.905-14.143,0l-10.312,10.312c-3.905,3.905-3.905,10.237,0,14.143
			C297.904,304.001,300.464,304.978,303.023,304.978z"/>
		<path id="XMLID_2448_" d="M310.094,381.951c-3.905-3.905-10.237-3.905-14.143,0c-3.905,3.905-3.905,10.237,0,14.143l10.312,10.312
			c1.953,1.953,4.512,2.929,7.071,2.929s5.119-0.976,7.071-2.929c3.905-3.905,3.905-10.237,0-14.143L310.094,381.951z"/>
		<path id="XMLID_2449_" d="M201.906,381.951l-10.312,10.312c-3.905,3.905-3.905,10.237,0,14.143
			c1.953,1.953,4.512,2.929,7.071,2.929s5.119-0.976,7.071-2.929l10.312-10.312c3.905-3.905,3.905-10.237,0-14.143
			C212.144,378.046,205.812,378.046,201.906,381.951z"/>
		<path id="XMLID_2450_" d="M410.377,277.293c0-5.523-4.477-10-10-10c-3.516,0-6.377-2.861-6.377-6.377c0-5.523-4.477-10-10-10
			s-10,4.477-10,10c0,3.516-2.861,6.377-6.377,6.377c-5.523,0-10,4.477-10,10s4.477,10,10,10c3.516,0,6.377,2.861,6.377,6.377
			c0,5.523,4.477,10,10,10s10-4.477,10-10c0-3.516,2.861-6.377,6.377-6.377C405.9,287.293,410.377,282.816,410.377,277.293z"/>
		<path id="XMLID_2451_" d="M144.377,396.707c-3.516,0-6.377-2.861-6.377-6.377c0-5.523-4.477-10-10-10s-10,4.477-10,10
			c0,3.516-2.861,6.377-6.377,6.377c-5.523,0-10,4.477-10,10s4.477,10,10,10c3.516,0,6.377,2.861,6.377,6.377
			c0,5.523,4.477,10,10,10s10-4.477,10-10c0-3.516,2.861-6.377,6.377-6.377c5.523,0,10-4.477,10-10S149.9,396.707,144.377,396.707z"
			/>
	</g>
</g>
<g>
</g>
<g>
</g>
<g>
</g>
<g>
</g>
<g>
</g>
<g>
</g>
<g>
</g>
<g>
</g>
<g>
</g>
<g>
</g>
<g>
</g>
<g>
</g>
<g>
</g>
<g>
</g>
<g>
</g>
</svg>
