<?xml version="1.0" encoding="iso-8859-1"?>
<!-- Generator: Adobe Illustrator 22.0.0, SVG Export Plug-In . SVG Version: 6.00 Build 0)  -->
<svg version="1.1" id="Capa_1" xmlns="http://www.w3.org/2000/svg" xmlns:xlink="http://www.w3.org/1999/xlink" x="0px" y="0px"
	 viewBox="0 0 512 512" style="enable-background:new 0 0 512 512;" xml:space="preserve">
<g id="XMLID_1334_">
	<circle id="XMLID_797_" style="fill:#B0E7F8;" cx="256" cy="256" r="246"/>
	<path id="XMLID_970_" style="fill:#D8EC84;" d="M10,256c0,26.042,4.06,51.133,11.559,74.69c1.276-0.247,1.992-0.394,1.992-0.394
		l25.077-19.593c4.886-3.817,10.908-5.891,17.109-5.891h39.294c3.898,0,7.682-1.32,10.734-3.745l18.795-14.932
		c5.585-4.438,7.864-11.855,5.734-18.663l-3.176-10.151c-1.994-6.372-0.284-13.324,4.437-18.045c7.007-7.007,7.007-18.367,0-25.374
		l-28.625-28.625l32.758-32.758c3.365-3.365,7.929-5.255,12.687-5.255h7.721c4.759,0,9.322-1.89,12.687-5.255l12.154-12.154
		c7.747-7.747,9.806-19.519,5.148-29.435l-32.79-69.815l-4.408-0.676C71.32,67.593,10,154.63,10,256z"/>
	<path id="XMLID_969_" style="fill:#D8EC84;" d="M502,256c0-49.149-14.421-94.926-39.252-133.346L333.973,122h-22.648
		c-9.77,0-19.098,4.074-25.739,11.241l-33.989,36.686c-10.932,11.8-12.44,29.522-3.66,43l17.682,27.139
		c6.476,9.94,17.535,15.934,29.398,15.934h52.648l-6.254,30.314c-1.564,7.581-0.597,15.465,2.754,22.443l9.365,19.503
		c5.803,12.084,4.27,26.411-3.957,36.994l0,0c-8.813,11.337-9.892,26.88-2.729,39.326l35.862,62.311
		C454.185,423.853,502,345.514,502,256z"/>
	<g id="XMLID_833_">
		<path id="XMLID_1429_" style="fill:#79B2FF;" d="M164.019,347.981L121.339,502l-40.748-70.59L10,390.661L164.019,347.981z"/>
	</g>
	<g id="XMLID_1461_">
		<path id="XMLID_1471_" style="fill:#F5737F;" d="M502,96.096c0-47.496-38.504-86-86-86s-86,38.504-86,86
			c0,20.589,7.239,39.486,19.306,54.291H349.3L416,235.88l66.382-85.044l-0.05,0C494.618,135.965,502,116.893,502,96.096z"/>
		<circle id="XMLID_1470_" style="fill:#FFFFFF;" cx="416" cy="97.469" r="33.29"/>
	</g>
	<g id="XMLID_3989_">
		<path id="XMLID_3992_" d="M416,140.759c23.871,0,43.291-19.42,43.291-43.291c0-23.87-19.42-43.29-43.291-43.29
			s-43.291,19.42-43.291,43.29C372.71,121.339,392.13,140.759,416,140.759z M416,74.179c12.842,0,23.291,10.448,23.291,23.29
			S428.843,120.759,416,120.759s-23.291-10.448-23.291-23.291S403.158,74.179,416,74.179z"/>
		<path id="XMLID_3995_" d="M512,96.097c0-52.935-43.065-96-96-96c-22.339,0-42.92,7.67-59.249,20.514
			C324.887,6.943,291.021,0,256,0C201.826,0,150.05,16.713,106.269,48.332c-4.477,3.233-5.485,9.484-2.252,13.962
			c1.955,2.707,5.013,4.146,8.115,4.146c2.029,0,4.076-0.616,5.847-1.894c12.475-9.01,25.656-16.702,39.389-23.036l29.665,63.16
			c2.856,6.082,1.583,13.361-3.168,18.113l-12.153,12.153c-1.501,1.501-3.496,2.327-5.617,2.327h-7.72
			c-7.463,0-14.48,2.906-19.759,8.184l-32.758,32.758c-3.905,3.905-3.905,10.237,0,14.142l28.625,28.625
			c3.097,3.097,3.097,8.136,0,11.232c-7.377,7.376-10.025,18.145-6.91,28.102l3.176,10.151c0.889,2.841-0.08,5.995-2.411,7.847
			l-18.794,14.932c-1.278,1.016-2.881,1.575-4.513,1.575H65.737c-8.391,0-16.654,2.845-23.266,8.011l-15.097,11.795
			C22.503,295.564,20,275.868,20,256c0-46.17,13.329-90.884,38.545-129.308c3.03-4.618,1.744-10.817-2.874-13.847
			c-4.618-3.031-10.817-1.744-13.847,2.874C14.463,157.412,0,205.92,0,256c0,41.555,10.09,82.427,29.265,118.946L7.33,381.024
			c-3.883,1.076-6.741,4.377-7.25,8.374s1.431,7.909,4.92,9.923L73.27,438.73L112.679,507c1.801,3.12,5.119,5.001,8.658,5.001
			c0.419,0,0.842-0.027,1.266-0.081c3.997-0.509,7.298-3.367,8.374-7.25l6.079-21.937C173.57,501.906,214.457,512,256,512
			c68.38,0,132.667-26.629,181.019-74.981S512,324.38,512,256c0-34.939-6.923-68.758-20.542-100.583
			C504.711,138.567,512,117.601,512,96.097z M492,96.097c0,17.628-6.171,34.807-17.377,48.37c-0.248,0.301-0.477,0.613-0.685,0.935
			l-57.936,74.224l-58.627-75.146c-0.102-0.139-0.208-0.276-0.317-0.411c-11-13.496-17.058-30.533-17.058-47.973
			c0-41.907,34.093-76,76-76S492,54.19,492,96.097z M130.101,367.757l-51.157,51.156l-43.284-24.986L130.101,367.757z
			 M118.073,476.339l-24.986-43.284l51.156-51.156L118.073,476.339z M142.531,462.974l31.126-112.322
			c0.962-3.472-0.018-7.194-2.565-9.742c-2.549-2.547-6.272-3.529-9.742-2.565L49.026,369.47
			c-6.06-11.038-11.205-22.529-15.404-34.353l21.162-16.534c3.112-2.432,7.002-3.771,10.952-3.771h39.294
			c6.132,0,12.153-2.101,16.954-5.915l18.795-14.933c8.757-6.958,12.397-18.804,9.057-29.478l-3.176-10.151
			c-0.886-2.831-0.133-5.891,1.964-7.988c10.894-10.895,10.895-28.622,0-39.517l-21.554-21.554l25.686-25.687
			c1.5-1.5,3.496-2.327,5.617-2.327h7.72c7.463,0,14.48-2.906,19.759-8.184l12.154-12.154c10.691-10.692,13.556-27.071,7.128-40.757
			l-29.239-62.253C201.333,24.738,228.325,20,256,20c29.527,0,58.16,5.337,85.295,15.879C327.985,52.359,320,73.312,320,96.097
			c0,5.35,0.459,10.669,1.342,15.903h-10.017c-12.515,0-24.57,5.265-33.074,14.445l-33.989,36.686
			c-14.07,15.187-16.004,37.909-4.703,55.254l17.682,27.14C265.594,258.346,279.716,266,295.017,266h40.375l-3.774,18.293
			c-1.994,9.668-0.74,19.894,3.533,28.792l9.365,19.502c4.189,8.723,3.102,18.888-2.837,26.528
			c-11.357,14.61-12.731,34.413-3.5,50.451l30.83,53.567C335.426,481.528,296.914,492,256,492
			C216.24,492,177.14,481.976,142.531,462.974z M386.125,452.782l-30.613-53.191c-5.159-8.964-4.391-20.034,1.957-28.2
			c10.625-13.668,12.571-31.854,5.077-47.46l-9.365-19.502c-2.388-4.974-3.09-10.69-1.975-16.094l6.254-30.313
			c0.608-2.944-0.142-6.006-2.041-8.337c-1.899-2.331-4.746-3.684-7.752-3.684h-52.648c-8.514,0-16.372-4.259-21.02-11.392
			l-17.682-27.14c-6.289-9.651-5.212-22.294,2.616-30.744l33.989-36.687c4.732-5.107,11.439-8.037,18.403-8.037h15.658
			c3.536,8.773,8.362,17.033,14.369,24.454c0.021,0.028,0.043,0.057,0.065,0.085l66.7,85.493c1.895,2.428,4.803,3.848,7.883,3.849
			c0,0,0,0,0,0c3.08,0,5.988-1.419,7.883-3.847l53.354-68.354C487.03,199.939,492,227.563,492,256
			C492,338.074,449.878,410.484,386.125,452.782z"/>
		<path id="XMLID_4000_" d="M78.21,96c2.63,0,5.21-1.07,7.07-2.93s2.93-4.44,2.93-7.07c0-2.63-1.07-5.21-2.93-7.07
			C83.42,77.07,80.84,76,78.21,76s-5.21,1.07-7.07,2.93c-1.86,1.86-2.93,4.44-2.93,7.07c0,2.63,1.07,5.21,2.93,7.07
			C73,94.93,75.58,96,78.21,96z"/>
		<path id="XMLID_4001_" d="M416.054,284.448c-5.523,0-10,4.477-10,10c0,0.684-0.016,1.364-0.046,2.041
			c-0.254,5.517,4.013,10.195,9.53,10.448c0.156,0.007,0.312,0.011,0.467,0.011c5.312,0,9.735-4.18,9.981-9.541
			c0.045-0.977,0.068-1.973,0.068-2.959C426.054,288.925,421.577,284.448,416.054,284.448z"/>
		<path id="XMLID_4002_" d="M382.969,332.933c-1.268,0.678-2.583,1.299-3.911,1.846c-5.106,2.104-7.54,7.95-5.435,13.056
			c1.591,3.86,5.318,6.192,9.25,6.192c1.269,0,2.561-0.243,3.807-0.757c1.942-0.8,3.867-1.709,5.72-2.7
			c4.871-2.604,6.708-8.664,4.103-13.534C393.899,332.165,387.84,330.328,382.969,332.933z"/>
		<path id="XMLID_4003_" d="M267.258,337.937l-5.328-0.006c-0.004,0-0.008,0-0.012,0c-5.517,0-9.993,4.47-10,9.988
			c-0.006,5.522,4.465,10.005,9.988,10.012l5.328,0.006c0.004,0,0.008,0,0.012,0c5.517,0,9.993-4.47,10-9.988
			C277.253,342.426,272.781,337.943,267.258,337.937z"/>
		<path id="XMLID_4004_" d="M337.985,348.021c0.006-5.522-4.465-10.005-9.988-10.012l-5.328-0.006c-0.004,0-0.008,0-0.012,0
			c-5.517,0-9.993,4.47-10,9.988c-0.006,5.522,4.465,10.005,9.988,10.012l5.328,0.006c0.004,0,0.008,0,0.012,0
			C333.502,358.009,337.979,353.539,337.985,348.021z"/>
		<path id="XMLID_4005_" d="M206.512,337.864l-2.5-0.003c-0.004,0-0.008,0-0.012,0c-5.517,0-9.993,4.469-10,9.988
			c-0.006,5.523,4.465,10.005,9.988,10.012l2.5,0.003c0.004,0,0.008,0,0.012,0c5.517,0,9.993-4.469,10-9.988
			C216.507,342.353,212.035,337.871,206.512,337.864z"/>
	</g>
</g>
<g>
</g>
<g>
</g>
<g>
</g>
<g>
</g>
<g>
</g>
<g>
</g>
<g>
</g>
<g>
</g>
<g>
</g>
<g>
</g>
<g>
</g>
<g>
</g>
<g>
</g>
<g>
</g>
<g>
</g>
</svg>
