<?xml version="1.0" encoding="iso-8859-1"?>
<!-- Generator: Adobe Illustrator 22.0.0, SVG Export Plug-In . SVG Version: 6.00 Build 0)  -->
<svg version="1.1" id="Capa_1" xmlns="http://www.w3.org/2000/svg" xmlns:xlink="http://www.w3.org/1999/xlink" x="0px" y="0px"
	 viewBox="0 0 512 512" style="enable-background:new 0 0 512 512;" xml:space="preserve">
<g id="XMLID_973_">
	<circle id="XMLID_801_" style="fill:#FFCB7C;" cx="366.345" cy="458" r="44"/>
	<g id="XMLID_1443_">
		<rect id="XMLID_1449_" x="10" y="64" style="fill:#FFFFFF;" width="272" height="438"/>
		<path id="XMLID_1448_" style="fill:#FFFFFF;" d="M203.5,462h-115c0-21.263-17.237-38.5-38.5-38.5v-281
			c21.263,0,38.5-17.237,38.5-38.5h115c0,21.263,17.237,38.5,38.5,38.5v281C220.737,423.5,203.5,440.737,203.5,462z"/>
		<polygon id="XMLID_1447_" style="fill:#FFFFFF;" points="248,10 44,10 10,64 282,64 		"/>
		<g id="XMLID_1444_">
			<path id="XMLID_1446_" style="fill:#FFFFFF;" d="M168.996,226.55L168.996,226.55L168.996,226.55
				c20.918,3.04,29.271,28.746,14.134,43.5l0,0l0,0c3.573,20.833-18.294,36.721-37.003,26.885l0,0l0,0
				c-18.71,9.836-40.577-6.051-37.003-26.885l0,0l0,0c-15.136-14.754-6.784-40.461,14.134-43.5l0,0l0,0
				C132.612,207.595,159.642,207.595,168.996,226.55z"/>
			<line id="XMLID_1445_" style="fill:#FFFFFF;" x1="146.127" y1="258.799" x2="146.127" y2="258.799"/>
		</g>
	</g>
	<g id="XMLID_1414_">
		<path id="XMLID_817_" style="fill:#D8EC84;" d="M282,354.348l147.168-147.168c-8.982-8.982-8.982-23.545,0-32.527L362.7,108.186
			c-8.982,8.982-23.545,8.982-32.527,0L282,156.358l0-56.568l64.436-64.436L502,190.917l-220,220"/>
		<path id="XMLID_806_" style="fill:#FFFFFF;" d="M282,354.348l147.168-147.168c-8.982-8.982-8.982-23.545,0-32.527L362.7,108.186
			c-8.982,8.982-23.545,8.982-32.527,0L282,156.358L282,354.348z"/>
		<polygon id="XMLID_788_" style="fill:#FFE6C0;" points="248,10 44,10 10,64 282,64 		"/>
		<rect id="XMLID_787_" x="10" y="64" style="fill:#F5737F;" width="272" height="438"/>
		<path id="XMLID_786_" style="fill:#FBC2C7;" d="M203.5,462h-115c0-21.263-17.237-38.5-38.5-38.5v-281
			c21.263,0,38.5-17.237,38.5-38.5h115c0,21.263,17.237,38.5,38.5,38.5v281C220.737,423.5,203.5,440.737,203.5,462z"/>
		<g id="XMLID_630_">
			<path id="XMLID_783_" style="fill:#FFCB7C;" d="M168.996,226.55L168.996,226.55L168.996,226.55
				c20.918,3.04,29.271,28.746,14.134,43.5l0,0l0,0c3.573,20.833-18.294,36.721-37.003,26.885l0,0l0,0
				c-18.71,9.836-40.577-6.051-37.003-26.885l0,0l0,0c-15.136-14.754-6.784-40.461,14.134-43.5l0,0l0,0
				C132.612,207.595,159.642,207.595,168.996,226.55z"/>
			<line id="XMLID_781_" style="fill:#FFCB7C;" x1="146.127" y1="258.799" x2="146.127" y2="258.799"/>
		</g>
	</g>
	<circle id="XMLID_789_" style="fill:#FFCB7C;" cx="458" cy="364.5" r="44"/>
	<g id="XMLID_418_">
		<path id="XMLID_447_" d="M242,132.5c-15.715,0-28.5-12.785-28.5-28.5c0-5.523-4.478-10-10-10h-115c-5.522,0-10,4.477-10,10
			c0,15.715-12.785,28.5-28.5,28.5c-5.522,0-10,4.477-10,10V238c0,5.523,4.478,10,10,10s10-4.477,10-10v-86.537
			c18.732-3.943,33.521-18.731,37.464-37.463h97.072c3.943,18.732,18.731,33.521,37.464,37.463v263.073
			c-18.732,3.943-33.521,18.731-37.464,37.463H97.464C93.521,433.268,78.732,418.48,60,414.537V328c0-5.523-4.478-10-10-10
			s-10,4.477-10,10v95.5c0,5.523,4.478,10,10,10c15.715,0,28.5,12.785,28.5,28.5c0,5.523,4.478,10,10,10h115c5.522,0,10-4.477,10-10
			c0-15.715,12.785-28.5,28.5-28.5c5.522,0,10-4.477,10-10v-281C252,136.977,247.522,132.5,242,132.5z"/>
		<path id="XMLID_803_" d="M113.391,303.083c9.625,6.994,21.783,8.667,32.736,4.748c3.872,1.385,7.894,2.071,11.901,2.071
			c7.33,0,14.612-2.297,20.835-6.819c9.625-6.993,14.972-18.037,14.631-29.666c7.11-9.208,9.276-21.286,5.601-32.6
			c-3.677-11.315-12.528-19.813-23.694-23.083c-6.559-9.609-17.376-15.401-29.273-15.401s-22.715,5.792-29.273,15.401
			c-11.166,3.269-20.018,11.767-23.693,23.082c-3.677,11.315-1.512,23.393,5.6,32.601
			C98.419,285.046,103.766,296.09,113.391,303.083z M112.181,246.997c1.865-5.739,6.544-9.684,12.516-10.552
			c3.257-0.473,6.072-2.519,7.529-5.47c2.67-5.411,7.867-8.642,13.901-8.642s11.231,3.23,13.901,8.642
			c1.457,2.951,4.272,4.998,7.53,5.471c5.972,0.868,10.649,4.812,12.515,10.551c1.864,5.739,0.398,11.68-3.923,15.892
			c-2.356,2.297-3.432,5.607-2.876,8.851c1.021,5.947-1.285,11.616-6.167,15.163c-4.881,3.546-10.985,3.989-16.327,1.18
			c-1.457-0.766-3.055-1.148-4.653-1.148s-3.196,0.383-4.653,1.148c-5.343,2.809-11.445,2.367-16.327-1.18
			c-4.882-3.547-7.188-9.215-6.167-15.163c0.556-3.244-0.52-6.554-2.876-8.851C111.782,258.677,110.316,252.736,112.181,246.997z"/>
		<path id="XMLID_860_" d="M146.13,268.8c2.63,0,5.21-1.07,7.07-2.93c1.859-1.86,2.93-4.44,2.93-7.07s-1.07-5.21-2.93-7.07
			c-1.86-1.86-4.44-2.93-7.07-2.93c-2.64,0-5.21,1.07-7.07,2.93c-1.87,1.86-2.93,4.44-2.93,7.07s1.06,5.21,2.93,7.07
			C140.92,267.73,143.49,268.8,146.13,268.8z"/>
		<path id="XMLID_861_" d="M50,293c2.63,0,5.21-1.07,7.069-2.93C58.93,288.21,60,285.63,60,283c0-2.63-1.07-5.21-2.931-7.07
			C55.21,274.07,52.63,273,50,273s-5.21,1.07-7.07,2.93c-1.86,1.86-2.93,4.44-2.93,7.07c0,2.63,1.069,5.21,2.93,7.07
			S47.37,293,50,293z"/>
		<path id="XMLID_864_" d="M373.416,445.429c-3.906-3.905-10.236-3.905-14.143,0l-5.5,5.5c-3.905,3.905-3.905,10.237,0,14.143
			l5.5,5.5c1.953,1.953,4.512,2.929,7.071,2.929s5.118-0.976,7.071-2.929l5.5-5.5c3.905-3.905,3.905-10.237,0-14.143
			L373.416,445.429z"/>
		<path id="XMLID_903_" d="M458,310.5c-29.775,0-54,24.224-54,54s24.225,54,54,54s54-24.224,54-54S487.775,310.5,458,310.5z
			 M458,398.5c-18.748,0-34-15.252-34-34s15.252-34,34-34s34,15.252,34,34S476.748,398.5,458,398.5z"/>
		<path id="XMLID_937_" d="M465.071,351.929c-3.906-3.905-10.236-3.905-14.143,0l-5.5,5.5c-3.905,3.905-3.905,10.237,0,14.143
			l5.5,5.5C452.882,379.024,455.44,380,458,380s5.118-0.976,7.071-2.929l5.5-5.5c3.905-3.905,3.905-10.237,0-14.143L465.071,351.929
			z"/>
		<path id="XMLID_940_" d="M366.345,404c-29.775,0-54,24.224-54,54s24.225,54,54,54s54-24.224,54-54S396.12,404,366.345,404z
			 M366.345,492c-18.748,0-34-15.252-34-34s15.252-34,34-34s34,15.252,34,34S385.093,492,366.345,492z"/>
		<path id="XMLID_943_" d="M509.071,197.988c3.905-3.905,3.905-10.237,0-14.143L353.508,28.282c-3.905-3.904-10.237-3.905-14.143,0
			L292,75.647V64c0-0.057-0.008-0.111-0.008-0.168c-0.002-0.119-0.012-0.237-0.018-0.355c-0.016-0.299-0.043-0.594-0.084-0.885
			c-0.016-0.111-0.031-0.222-0.051-0.332c-0.065-0.371-0.147-0.736-0.252-1.091c-0.007-0.023-0.011-0.047-0.018-0.07
			c-0.121-0.4-0.27-0.786-0.438-1.163c-0.031-0.07-0.067-0.139-0.1-0.208c-0.148-0.312-0.312-0.615-0.49-0.909
			c-0.029-0.048-0.049-0.1-0.079-0.147l-34-54C254.632,1.764,251.437,0,248,0H44c-3.437,0-6.632,1.764-8.462,4.672l-34,54
			c-0.03,0.048-0.05,0.099-0.079,0.147c-0.179,0.293-0.342,0.596-0.49,0.909c-0.033,0.07-0.069,0.138-0.1,0.208
			c-0.168,0.377-0.317,0.763-0.438,1.163c-0.007,0.023-0.011,0.047-0.018,0.07c-0.105,0.356-0.187,0.72-0.252,1.091
			c-0.02,0.111-0.035,0.221-0.051,0.332c-0.041,0.291-0.068,0.586-0.084,0.885c-0.006,0.119-0.016,0.237-0.018,0.355
			C0.008,63.889,0,63.944,0,64v438c0,5.523,4.478,10,10,10h272c5.522,0,10-4.477,10-10v-86.94L509.071,197.988z M346.437,49.496
			l141.421,141.421L292,386.775v-28.284l144.239-144.239c1.875-1.875,2.929-4.419,2.929-7.071s-1.054-5.196-2.929-7.071
			c-5.069-5.069-5.069-13.316,0-18.385c3.905-3.905,3.905-10.237,0-14.143l-66.468-66.468c-3.905-3.904-10.235-3.904-14.143,0
			c-5.068,5.068-13.316,5.068-18.385,0c-3.906-3.905-10.236-3.904-14.143,0L292,132.216v-28.284L346.437,49.496z M416.121,206.086
			L292,330.206V160.501l39.268-39.268c9.482,4.899,20.855,4.899,30.338,0l54.516,54.516
			C411.222,185.23,411.222,196.605,416.121,206.086z M49.521,20h192.959l21.407,34H28.113L49.521,20z M20,492V74h252v25.784
			c0,0.003,0,0.007,0,0.01v56.559c0,0.003,0,0.007,0,0.01v197.979c0,0.003,0,0.007,0,0.01v56.559c0,0.003,0,0.007,0,0.01V492H20z"/>
		<path id="XMLID_960_" d="M346.348,176.863l-19.301,19.301c-3.905,3.905-3.905,10.237,0,14.142
			c1.953,1.953,4.512,2.929,7.071,2.929s5.118-0.977,7.071-2.929l19.301-19.301c3.905-3.905,3.905-10.237,0-14.142
			C356.584,172.958,350.254,172.958,346.348,176.863z"/>
	</g>
</g>
<g>
</g>
<g>
</g>
<g>
</g>
<g>
</g>
<g>
</g>
<g>
</g>
<g>
</g>
<g>
</g>
<g>
</g>
<g>
</g>
<g>
</g>
<g>
</g>
<g>
</g>
<g>
</g>
<g>
</g>
</svg>
