<?xml version="1.0" encoding="iso-8859-1"?>
<!-- Generator: Adobe Illustrator 22.0.0, SVG Export Plug-In . SVG Version: 6.00 Build 0)  -->
<svg version="1.1" id="Capa_1" xmlns="http://www.w3.org/2000/svg" xmlns:xlink="http://www.w3.org/1999/xlink" x="0px" y="0px"
	 viewBox="0 0 512 512" style="enable-background:new 0 0 512 512;" xml:space="preserve">
<g id="XMLID_760_">
	<path id="XMLID_1504_" style="fill:#FFD89E;" d="M320,10H192c-11.046,0-20,8.954-20,20v26h168V30C340,18.954,331.046,10,320,10z"/>
	<path id="XMLID_1757_" style="fill:#B8866B;" d="M462,106H50c-22.091,0-40,17.909-40,40v304c0,22.091,17.909,40,40,40h412
		c22.091,0,40-17.909,40-40V146C502,123.909,484.091,106,462,106z"/>
	<path id="XMLID_1671_" style="fill:#FFFFFF;" d="M295.227,413.55l33.359-57.779c5.679-9.837,19.877-9.837,25.556,0l33.359,57.779
		c5.679,9.837-1.42,22.132-12.778,22.132h-66.717C296.647,435.682,289.548,423.386,295.227,413.55z"/>
	<circle id="XMLID_1670_" style="fill:#91DEF5;" cx="172.5" cy="300.627" r="40.5"/>
	<path id="XMLID_1669_" style="fill:#F5737F;" d="M357.546,228.559l-35.374,35.374c-6.003,6.003-15.736,6.003-21.739,0
		l-35.374-35.374c-6.003-6.003-6.003-15.736,0-21.739l35.374-35.374c6.003-6.003,15.736-6.003,21.739,0l35.374,35.374
		C363.549,212.823,363.549,222.556,357.546,228.559z"/>
	<path id="XMLID_1655_" style="fill:#E1E3E9;" d="M104.097,502H75.903c-5.469,0-9.903-4.434-9.903-9.903V103.903
		C66,98.434,70.434,94,75.903,94h28.193c5.469,0,9.903,4.434,9.903,9.903v388.193C114,497.566,109.566,502,104.097,502z"/>
	<path id="XMLID_893_" style="fill:#E1E3E9;" d="M413.903,502h28.193c5.469,0,9.903-4.434,9.903-9.903V103.903
		c0-5.469-4.434-9.903-9.903-9.903h-28.193c-5.469,0-9.903,4.434-9.903,9.903v388.193C404,497.566,408.434,502,413.903,502z"/>
	<g id="XMLID_257_">
		<path id="XMLID_289_" d="M462,96h-1.646c-3.064-7.052-10.091-12-18.258-12h-28.193c-8.167,0-15.193,4.948-18.258,12H350V30
			c0-16.542-13.458-30-30-30H192c-16.542,0-30,13.458-30,30v66h-39.646c-3.064-7.052-10.091-12-18.258-12H75.903
			c-8.167,0-15.193,4.948-18.258,12H50c-27.57,0-50,22.43-50,50v304c0,27.57,22.43,50,50,50h7.646c3.064,7.052,10.091,12,18.258,12
			h28.193c8.167,0,15.193-4.948,18.258-12h273.291c3.064,7.052,10.091,12,18.258,12h28.193c8.167,0,15.193-4.948,18.258-12H462
			c27.57,0,50-22.43,50-50V146C512,118.43,489.57,96,462,96z M104,492H76V343c0-5.523-4.478-10-10-10s-10,4.477-10,10v137h-6
			c-16.542,0-30-13.458-30-30V146c0-16.542,13.458-30,30-30h6v137c0,5.523,4.478,10,10,10s10-4.477,10-10V104h28V492z M124,314.664
			c6.099,21.035,25.525,36.463,48.5,36.463c27.846,0,50.5-22.654,50.5-50.5s-22.654-50.5-50.5-50.5
			c-22.975,0-42.401,15.428-48.5,36.463V116h270v288.807l-31.198-54.035c-4.475-7.75-12.488-12.378-21.438-12.378
			c-8.95,0-16.964,4.627-21.438,12.377l-33.358,57.779c-4.475,7.75-4.476,17.004-0.001,24.755s12.489,12.377,21.438,12.377h66.718
			c7.656,0,14.62-3.395,19.277-9.227V480H124V314.664z M142,300.627c0-16.818,13.683-30.5,30.5-30.5s30.5,13.682,30.5,30.5
			s-13.683,30.5-30.5,30.5S142,317.445,142,300.627z M378.841,423.305c-0.513,0.888-1.729,2.377-4.118,2.377h-66.718
			c-2.389,0-3.605-1.489-4.117-2.377c-0.513-0.888-1.194-2.687,0-4.755l33.358-57.779c1.239-2.145,3.292-2.377,4.118-2.377
			c0.825,0,2.878,0.232,4.117,2.377l33.359,57.778C380.079,420.696,379.253,422.59,378.841,423.305z M192,20h128
			c5.514,0,10,4.486,10,10v16H182V30C182,24.486,186.486,20,192,20z M182,66h148v30H182V66z M442,492h-28V104h28V492z M492,450
			c0,16.542-13.458,30-30,30V116c16.542,0,30,13.458,30,30V450z"/>
		<path id="XMLID_299_" d="M311.303,278.423c6.496,0,12.995-2.474,17.94-7.419l35.374-35.374c0,0,0,0,0,0
			c9.892-9.893,9.892-25.989,0-35.881l-35.374-35.374c-9.893-9.892-25.988-9.892-35.881,0l-35.374,35.374
			c-9.892,9.893-9.892,25.989,0,35.882l35.374,35.374C298.31,275.951,304.805,278.423,311.303,278.423z M272.131,213.892
			l35.374-35.374c1.047-1.047,2.423-1.571,3.798-1.571s2.751,0.523,3.798,1.571l35.374,35.374c2.095,2.094,2.095,5.502,0,7.597
			l-35.374,35.374c-2.094,2.094-5.502,2.096-7.596,0l-35.374-35.373C270.036,219.394,270.036,215.986,272.131,213.892z"/>
		<path id="XMLID_300_" d="M66,288c-2.63,0-5.21,1.07-7.07,2.93c-1.86,1.86-2.93,4.44-2.93,7.07c0,2.63,1.069,5.21,2.93,7.07
			S63.37,308,66,308s5.21-1.07,7.069-2.93C74.93,303.21,76,300.63,76,298c0-2.63-1.07-5.21-2.931-7.07
			C71.21,289.07,68.63,288,66,288z"/>
	</g>
</g>
<g>
</g>
<g>
</g>
<g>
</g>
<g>
</g>
<g>
</g>
<g>
</g>
<g>
</g>
<g>
</g>
<g>
</g>
<g>
</g>
<g>
</g>
<g>
</g>
<g>
</g>
<g>
</g>
<g>
</g>
</svg>
