<?xml version="1.0" encoding="iso-8859-1"?>
<!-- Generator: Adobe Illustrator 22.0.0, SVG Export Plug-In . SVG Version: 6.00 Build 0)  -->
<svg version="1.1" id="Capa_1" xmlns="http://www.w3.org/2000/svg" xmlns:xlink="http://www.w3.org/1999/xlink" x="0px" y="0px"
	 viewBox="0 0 512 512" style="enable-background:new 0 0 512 512;" xml:space="preserve">
<g id="XMLID_842_">
	<path id="XMLID_1124_" style="fill:#F5737F;" d="M454,502H58c-15.464,0-28-12.536-28-28v0c0-15.464,12.536-28,28-28h396
		c15.464,0,28,12.536,28,28v0C482,489.464,469.464,502,454,502z"/>
	<path id="XMLID_1042_" style="fill:#91DEF5;" d="M465.186,49.309L411.614,446H100.386L46.813,49.309
		C44.004,28.507,60.18,10,81.171,10h349.658C451.82,10,467.996,28.507,465.186,49.309z"/>
	<path id="XMLID_1047_" style="fill:#F5737F;" d="M78.778,285.999L46.813,49.309C44.004,28.507,60.18,10,81.171,10h349.658
		c20.991,0,37.167,18.507,34.357,39.309L433.221,286"/>
	<polyline id="XMLID_1044_" style="fill:#FFFFFF;" points="123.666,16.333 148,280.029 220,280.029 220,16.333 	"/>
	<polyline id="XMLID_1048_" style="fill:#FFFFFF;" points="388.333,16.333 364,280.029 292,280.029 292,16.333 	"/>
	<polyline id="XMLID_1093_" style="fill:#91DEF5;" points="220,16.333 220,280.029 292,280.029 292,16.333 	"/>
	<g id="XMLID_807_">
		<path id="XMLID_1671_" style="fill:#FFFFFF;" d="M325.628,391.593l-18.004,13.141c-5.04,3.679-11.838-1.26-9.897-7.191
			l6.934-21.184l-18.122-13.106c-5.051-3.653-2.467-11.635,3.766-11.635h22.364l6.843-21.17c1.918-5.934,10.313-5.934,12.231,0
			l6.843,21.17h22.364c6.233,0,8.817,7.982,3.766,11.635l-18.122,13.106l6.934,21.184c1.941,5.931-4.857,10.87-9.897,7.191
			L325.628,391.593z"/>
		<path id="XMLID_814_" style="fill:#FFFFFF;" d="M186.371,391.593l-18.004,13.141c-5.04,3.679-11.838-1.26-9.897-7.191
			l6.934-21.184l-18.122-13.106c-5.051-3.653-2.467-11.635,3.766-11.635h22.364l6.843-21.17c1.918-5.934,10.313-5.934,12.231,0
			l6.843,21.17h22.364c6.233,0,8.817,7.982,3.766,11.635l-18.122,13.106l6.934,21.184c1.941,5.931-4.857,10.87-9.897,7.191
			L186.371,391.593z"/>
	</g>
	<g id="XMLID_991_">
		<path id="XMLID_998_" style="fill:#FFCB7C;" d="M325.628,391.593l-18.004,13.141c-5.04,3.679-11.838-1.26-9.897-7.191
			l6.934-21.184l-18.122-13.106c-5.051-3.653-2.467-11.635,3.766-11.635h22.364l6.843-21.17c1.918-5.934,10.313-5.934,12.231,0
			l6.843,21.17h22.364c6.233,0,8.817,7.982,3.766,11.635l-18.122,13.106l6.934,21.184c1.941,5.931-4.857,10.87-9.897,7.191
			L325.628,391.593z"/>
		<path id="XMLID_995_" style="fill:#FFCB7C;" d="M186.371,391.593l-18.004,13.141c-5.04,3.679-11.838-1.26-9.897-7.191
			l6.934-21.184l-18.122-13.106c-5.051-3.653-2.467-11.635,3.766-11.635h22.364l6.843-21.17c1.918-5.934,10.313-5.934,12.231,0
			l6.843,21.17h22.364c6.233,0,8.817,7.982,3.766,11.635l-18.122,13.106l6.934,21.184c1.941,5.931-4.857,10.87-9.897,7.191
			L186.371,391.593z"/>
	</g>
	<g id="XMLID_513_">
		<path id="XMLID_516_" d="M454,436h-30.944l52.041-385.352c1.725-12.775-2.151-25.669-10.635-35.375
			C455.979,5.567,443.72,0,430.829,0H81.171C68.28,0,56.021,5.567,47.538,15.272c-8.484,9.706-12.36,22.6-10.635,35.375L88.944,436
			H58c-20.953,0-38,17.047-38,38s17.047,38,38,38h396c20.953,0,38-17.047,38-38S474.953,436,454,436z M449.403,28.435
			c4.685,5.36,6.826,12.481,5.873,19.536L424.481,276h-50.067l23.623-256h32.792C437.948,20,444.718,23.074,449.403,28.435z
			 M157.67,276L134.047,20H210v256H157.67z M230,20h52v256h-52V20z M302,20h75.953l-23.623,256H302V20z M62.596,28.435
			C67.281,23.074,74.052,20,81.171,20h32.792l23.623,256H87.518L56.723,47.971C55.771,40.916,57.911,33.795,62.596,28.435z M454,492
			H58c-9.925,0-18-8.075-18-18s8.075-18,18-18h153.063c5.523,0,10-4.477,10-10s-4.477-10-10-10H109.126L90.219,296H421.78
			l-18.907,140H301.062c-5.523,0-10,4.477-10,10s4.477,10,10,10h110.55c0.005,0,0.01,0.001,0.015,0.001
			c0.007,0,0.014-0.001,0.021-0.001H454c9.925,0,18,8.075,18,18S463.925,492,454,492z"/>
		<path id="XMLID_1139_" d="M294.18,412.833c2.889,2.1,6.272,3.148,9.655,3.148c3.395,0,6.79-1.057,9.684-3.17l12.109-8.838
			l12.109,8.838c5.779,4.219,13.552,4.227,19.34,0.021c5.789-4.206,8.183-11.6,5.957-18.4l-4.664-14.248l12.207-8.828
			c5.791-4.188,8.204-11.57,6.002-18.37c-2.201-6.8-8.481-11.368-15.628-11.368h-15.087l-4.604-14.245
			c-2.199-6.803-8.48-11.375-15.63-11.375c-7.15,0-13.432,4.571-15.631,11.375l-4.604,14.245h-15.087
			c-7.147,0-13.428,4.569-15.629,11.369c-2.201,6.799,0.211,14.182,6.002,18.369l12.208,8.829l-4.664,14.248
			C285.997,401.233,288.391,408.627,294.18,412.833z M312.67,361.619c4.338,0,8.181-2.797,9.515-6.924l3.443-10.651l3.443,10.651
			c1.334,4.127,5.177,6.924,9.515,6.924h11.327l-9.178,6.638c-3.523,2.548-4.996,7.082-3.644,11.214l3.488,10.655l-9.056-6.609
			c-1.756-1.282-3.826-1.923-5.896-1.923s-4.139,0.641-5.896,1.923l-9.055,6.609l3.488-10.654c1.353-4.132-0.12-8.666-3.644-11.214
			l-9.178-6.638H312.67z"/>
		<path id="XMLID_1168_" d="M221.694,341.619h-15.087l-4.604-14.245c-2.199-6.803-8.48-11.375-15.631-11.375
			c-7.15,0-13.431,4.571-15.63,11.375l-4.604,14.245h-15.087c-7.147,0-13.428,4.568-15.628,11.368
			c-2.201,6.8,0.211,14.182,6.002,18.37l12.208,8.829l-4.664,14.248c-2.226,6.8,0.168,14.194,5.957,18.4
			c2.889,2.099,6.272,3.148,9.655,3.148c3.395,0,6.79-1.057,9.685-3.17l12.109-8.838l12.108,8.837
			c5.778,4.219,13.552,4.228,19.34,0.022c5.789-4.206,8.183-11.6,5.957-18.4l-4.664-14.248l12.208-8.828
			c5.791-4.188,8.204-11.57,6.002-18.37C235.122,346.188,228.841,341.619,221.694,341.619z M201.478,368.257
			c-3.523,2.548-4.996,7.082-3.644,11.214l3.488,10.654l-9.055-6.609c-3.513-2.563-8.278-2.563-11.791,0l-9.056,6.609l3.488-10.655
			c1.353-4.132-0.12-8.666-3.644-11.214l-9.178-6.638h11.327c4.338,0,8.181-2.797,9.515-6.924l3.443-10.651l3.443,10.651
			c1.334,4.127,5.177,6.924,9.515,6.924h11.327L201.478,368.257z"/>
		<path id="XMLID_1175_" d="M256.06,436.061c-2.63,0-5.21,1.07-7.07,2.93c-1.86,1.86-2.93,4.44-2.93,7.07
			c0,2.64,1.07,5.21,2.93,7.07c1.86,1.86,4.44,2.93,7.07,2.93c2.64,0,5.21-1.07,7.08-2.93c1.86-1.86,2.92-4.44,2.92-7.07
			s-1.06-5.21-2.92-7.07C261.27,437.131,258.69,436.061,256.06,436.061z"/>
	</g>
</g>
<g>
</g>
<g>
</g>
<g>
</g>
<g>
</g>
<g>
</g>
<g>
</g>
<g>
</g>
<g>
</g>
<g>
</g>
<g>
</g>
<g>
</g>
<g>
</g>
<g>
</g>
<g>
</g>
<g>
</g>
</svg>
