<?xml version="1.0" encoding="iso-8859-1"?>
<!-- Generator: Adobe Illustrator 22.0.0, SVG Export Plug-In . SVG Version: 6.00 Build 0)  -->
<svg version="1.1" id="Capa_1" xmlns="http://www.w3.org/2000/svg" xmlns:xlink="http://www.w3.org/1999/xlink" x="0px" y="0px"
	 viewBox="0 0 512 512" style="enable-background:new 0 0 512 512;" xml:space="preserve">
<g id="XMLID_835_">
	<circle id="XMLID_1903_" style="fill:#FFCB7C;" cx="418" cy="94" r="84"/>
	<path id="XMLID_1008_" style="fill:#CBE558;" d="M30,502h327.896c11.046,0,20-8.954,20-20V330c0-11.046-8.954-20-20-20H30
		c-11.046,0-20,8.954-20,20v152C10,493.046,18.954,502,30,502z"/>
	<path id="XMLID_1907_" style="fill:#E2F1A1;" d="M357.896,310h-28.365c0,26.711,21.654,48.365,48.365,48.365V330
		C377.896,318.954,368.942,310,357.896,310z"/>
	<path id="XMLID_1904_" style="fill:#E2F1A1;" d="M30,502h28.365c0-26.711-21.654-48.365-48.365-48.365V482
		C10,493.046,18.954,502,30,502z"/>
	<path id="XMLID_1906_" style="fill:#E2F1A1;" d="M357.896,502h-28.365c0-26.711,21.654-48.365,48.365-48.365V482
		C377.896,493.046,368.942,502,357.896,502z"/>
	<path id="XMLID_1905_" style="fill:#E2F1A1;" d="M30,310h28.365c0,26.711-21.654,48.365-48.365,48.365V330
		C10,318.954,18.954,310,30,310z"/>
	<circle id="XMLID_1863_" style="fill:#E2F1A1;" cx="193.938" cy="406" r="44.397"/>
	<circle id="XMLID_1291_" style="fill:#FFD89E;" cx="310" cy="171.946" r="84"/>
	<g id="XMLID_343_">
		<path id="XMLID_1236_" d="M357.896,300H238.938c-5.523,0-10,4.477-10,10s4.477,10,10,10h81.467
			c4.195,24.181,23.31,43.296,47.49,47.49v77.019c-24.181,4.195-43.296,23.31-47.49,47.49H67.49
			c-4.195-24.181-23.31-43.296-47.49-47.49V367.49c24.181-4.195,43.296-23.31,47.49-47.49h81.448c5.523,0,10-4.477,10-10
			s-4.477-10-10-10H30c-16.542,0-30,13.458-30,30v152c0,16.542,13.458,30,30,30h327.896c16.542,0,30-13.458,30-30V330
			C387.896,313.458,374.438,300,357.896,300z M340.861,320h17.035c5.514,0,10,4.486,10,10v17.035
			C354.766,343.486,344.41,333.13,340.861,320z M30,320h17.035C43.486,333.13,33.13,343.486,20,347.035V330
			C20,324.486,24.486,320,30,320z M20,482v-17.035C33.13,468.514,43.486,478.87,47.035,492H30C24.486,492,20,487.514,20,482z
			 M357.896,492h-17.035c3.549-13.13,13.905-23.486,27.035-27.035V482C367.896,487.514,363.41,492,357.896,492z"/>
		<path id="XMLID_1299_" d="M139.541,406c0,29.995,24.402,54.397,54.397,54.397s54.397-24.402,54.397-54.397
			s-24.402-54.397-54.397-54.397S139.541,376.005,139.541,406z M228.334,406c0,18.967-15.43,34.397-34.397,34.397
			s-34.397-15.43-34.397-34.397s15.43-34.397,34.397-34.397S228.334,387.033,228.334,406z"/>
		<path id="XMLID_1313_" d="M302.229,416c5.523,0,10-4.477,10-10s-4.477-10-10-10h-20.27c-5.523,0-10,4.477-10,10s4.477,10,10,10
			H302.229z"/>
		<path id="XMLID_1327_" d="M85.667,396c-5.523,0-10,4.477-10,10s4.477,10,10,10h20.27c5.523,0,10-4.477,10-10s-4.477-10-10-10
			H85.667z"/>
		<path id="XMLID_1333_" d="M310,265.946c46.787,0,85.696-34.362,92.827-79.173C407.826,187.585,412.9,188,418,188
			c51.832,0,94-42.168,94-94S469.832,0,418,0c-46.645,0-85.703,34.071-92.834,79.176c-4.939-0.805-10.003-1.23-15.166-1.23
			c-51.832,0-94,42.168-94,94S258.168,265.946,310,265.946z M418,20c40.804,0,74,33.196,74,74s-33.196,74-74,74
			c-4.772,0-9.511-0.461-14.153-1.358c-2.087-37.32-26.041-68.896-59.23-82.089C349.27,47.951,380.514,20,418,20z M310,97.946
			c40.804,0,74,33.196,74,74s-33.196,74-74,74s-74-33.196-74-74S269.196,97.946,310,97.946z"/>
		<path id="XMLID_1352_" d="M310,181.601c5.451,0,9.885,3.61,9.885,8.047s-4.435,8.047-9.885,8.047
			c-0.216,0-0.428,0.019-0.641,0.032c-0.213-0.014-0.425-0.032-0.641-0.032h-12.52c-5.523,0-10,4.477-10,10s4.477,10,10,10h3.972
			c0.85,4.661,4.923,8.198,9.829,8.198c5.461,0,9.891-4.378,9.991-9.815c11.58-3.867,19.895-14.252,19.895-26.43
			c0-15.465-13.406-28.047-29.885-28.047c-5.451,0-9.885-3.61-9.885-8.047s4.435-8.047,9.885-8.047h12.52c5.523,0,10-4.477,10-10
			s-4.477-10-10-10h-2.846C318.565,121.193,314.661,118,310,118c-5.223,0-9.505,4.006-9.955,9.113
			c-11.598,3.858-19.93,14.251-19.93,26.441C280.115,169.019,293.521,181.601,310,181.601z"/>
		<path id="XMLID_1359_" d="M469.071,248.875c-3.905-3.905-10.236-3.905-14.142,0l-12.964,12.963
			c-3.905,3.905-3.906,10.237,0,14.142c2.717,2.717,6.605,3.539,10.035,2.477V396h-25.667c-5.523,0-10,4.477-10,10s4.477,10,10,10
			H462c5.523,0,10-4.477,10-10V278.457c0.964,0.298,1.963,0.453,2.964,0.453c2.559,0,5.119-0.977,7.071-2.929
			c3.905-3.905,3.905-10.237,0-14.142L469.071,248.875z"/>
		<path id="XMLID_1360_" d="M76.652,229.402c1.953,1.953,4.512,2.929,7.071,2.929s5.119-0.977,7.071-2.929l12.963-12.963
			c3.905-3.905,3.905-10.237,0-14.143c-2.716-2.716-6.604-3.538-10.035-2.476V82.277h90c5.523,0,10-4.477,10-10s-4.477-10-10-10
			h-100c-5.523,0-10,4.477-10,10V199.82c-3.431-1.062-7.319-0.24-10.035,2.477c-3.905,3.905-3.905,10.237,0,14.142L76.652,229.402z"
			/>
		<path id="XMLID_1361_" d="M183.94,310c0,2.63,1.06,5.21,2.93,7.07c1.86,1.86,4.43,2.93,7.07,2.93c2.63,0,5.21-1.07,7.07-2.93
			s2.93-4.44,2.93-7.07c0-2.63-1.07-5.21-2.93-7.07c-1.86-1.86-4.44-2.93-7.07-2.93s-5.21,1.07-7.07,2.93
			C185,304.79,183.94,307.37,183.94,310z"/>
	</g>
</g>
<g>
</g>
<g>
</g>
<g>
</g>
<g>
</g>
<g>
</g>
<g>
</g>
<g>
</g>
<g>
</g>
<g>
</g>
<g>
</g>
<g>
</g>
<g>
</g>
<g>
</g>
<g>
</g>
<g>
</g>
</svg>
