<?xml version="1.0" encoding="iso-8859-1"?>
<!-- Generator: Adobe Illustrator 22.0.0, SVG Export Plug-In . SVG Version: 6.00 Build 0)  -->
<svg version="1.1" id="Capa_1" xmlns="http://www.w3.org/2000/svg" xmlns:xlink="http://www.w3.org/1999/xlink" x="0px" y="0px"
	 viewBox="0 0 512 512" style="enable-background:new 0 0 512 512;" xml:space="preserve">
<g id="XMLID_1104_">
	<rect id="XMLID_1174_" x="64" y="446" style="fill:#FFCB7C;" width="40" height="56"/>
	
		<rect id="XMLID_1173_" x="408" y="446" transform="matrix(-1 -4.499746e-11 4.499746e-11 -1 856 947.9995)" style="fill:#FFCB7C;" width="40" height="56"/>
	<rect id="XMLID_1133_" x="30" y="406" style="fill:#FFCB7C;" width="452" height="40"/>
	<g id="XMLID_1131_">
		<g id="XMLID_2769_">
			<path id="XMLID_2770_" style="fill:#D3D7DF;" d="M482,345.317L381.536,403.32c-3.041,1.755-6.489,2.68-10,2.68H30v-40h336.177
				L462,310.677L482,345.317z"/>
		</g>
	</g>
	<circle id="XMLID_899_" style="fill:#FFCB7C;" cx="42" cy="82" r="32"/>
	<path id="XMLID_1065_" style="fill:#F5737F;" d="M158,182c15.011-14.035,35.162-22.64,57.333-22.64
		c22.171,0,42.322,8.605,57.333,22.64c15.011-14.035,35.162-22.64,57.333-22.64s42.322,8.605,57.333,22.64
		c15.011-14.035,35.162-22.64,57.333-22.64c22.172,0,42.322,8.605,57.333,22.64c0-94.993-77.007-172-172-172S158,87.007,158,182z"/>
	<path id="XMLID_1806_" style="fill:#FFFFFF;" d="M272.245,177.889h5.19c14.392-11.576,32.657-18.53,52.565-18.53
		s38.173,6.954,52.565,18.53h5.19C387.755,85.167,361.897,10,330,10S272.245,85.167,272.245,177.889z"/>
	<g id="XMLID_531_">
		<path id="XMLID_534_" d="M330,0C229.645,0,148,81.645,148,182c0,3.983,2.364,7.587,6.019,9.173
			c3.654,1.586,7.901,0.853,10.811-1.869c13.756-12.862,31.692-19.945,50.504-19.945s36.748,7.083,50.503,19.945
			c3.844,3.594,9.815,3.594,13.659,0c11.293-10.559,25.405-17.214,40.504-19.262V356H30c-5.523,0-10,4.477-10,10v40v40
			c0,5.523,4.477,10,10,10h24v46c0,5.523,4.477,10,10,10h40c5.523,0,10-4.477,10-10v-46h206v46c0,5.523,4.477,10,10,10
			s10-4.477,10-10v-46h58v46c0,5.523,4.477,10,10,10h40c5.523,0,10-4.477,10-10v-46h24c5.523,0,10-4.477,10-10v-40
			c0-5.523-4.477-10-10-10h-67.785L487,353.978c2.297-1.326,3.973-3.51,4.659-6.072c0.687-2.562,0.327-5.292-0.999-7.588l-20-34.641
			c-2.761-4.784-8.878-6.422-13.66-3.66L363.498,356H340V170.043c15.099,2.048,29.211,8.703,40.504,19.262
			c3.844,3.594,9.815,3.594,13.659,0c13.756-12.862,31.692-19.945,50.503-19.945s36.748,7.083,50.504,19.945
			c1.89,1.767,4.343,2.696,6.832,2.695c1.344,0,2.699-0.271,3.979-0.827c3.654-1.586,6.019-5.19,6.019-9.173
			C512,81.645,430.355,0,330,0z M94,492H74v-36h20V492z M438,492h-20v-36h20V492z M366.177,376c1.755,0,3.48-0.462,5-1.34
			l87.163-50.323l10,17.32l-91.804,53.003c-1.518,0.876-3.248,1.34-5,1.34H248c-5.523,0-10,4.477-10,10s4.477,10,10,10h224v20h-24
			h-40H104H64H40v-20h118c5.523,0,10-4.477,10-10s-4.477-10-10-10H40v-20H366.177z M377.508,162.253
			c-14.294-8.398-30.621-12.894-47.508-12.894s-33.215,4.495-47.508,12.894C285.256,73.709,311.145,20,330,20
			S374.744,73.709,377.508,162.253z M169.304,161.396c8.656-67.891,59.501-122.782,125.333-137.498
			c-5.514,8.497-10.519,19.195-14.932,32.022c-9.956,28.94-15.953,66.159-17.209,106.137c-14.211-8.269-30.41-12.699-47.163-12.699
			C199.027,149.359,183.24,153.547,169.304,161.396z M444.667,149.359c-16.753,0-32.951,4.43-47.163,12.699
			c-1.256-39.978-7.253-77.197-17.209-106.137c-4.413-12.828-9.418-23.526-14.932-32.022
			c65.833,14.716,116.678,69.607,125.333,137.498C476.76,153.547,460.973,149.359,444.667,149.359z"/>
		<path id="XMLID_1112_" d="M84,82c0-23.159-18.841-42-42-42S0,58.841,0,82s18.841,42,42,42S84,105.159,84,82z M20,82
			c0-12.131,9.869-22,22-22s22,9.869,22,22s-9.869,22-22,22S20,94.131,20,82z"/>
		<path id="XMLID_1137_" d="M203,396.001c-2.63,0-5.21,1.07-7.07,2.93c-1.86,1.86-2.93,4.44-2.93,7.07s1.07,5.21,2.93,7.07
			c1.86,1.86,4.44,2.93,7.07,2.93c2.63,0,5.21-1.07,7.07-2.93c1.86-1.86,2.93-4.44,2.93-7.07s-1.07-5.21-2.93-7.07
			C208.21,397.071,205.63,396.001,203,396.001z"/>
	</g>
</g>
<g>
</g>
<g>
</g>
<g>
</g>
<g>
</g>
<g>
</g>
<g>
</g>
<g>
</g>
<g>
</g>
<g>
</g>
<g>
</g>
<g>
</g>
<g>
</g>
<g>
</g>
<g>
</g>
<g>
</g>
</svg>
