<?xml version="1.0" encoding="iso-8859-1"?>
<!-- Generator: Adobe Illustrator 22.0.0, SVG Export Plug-In . SVG Version: 6.00 Build 0)  -->
<svg version="1.1" id="Capa_1" xmlns="http://www.w3.org/2000/svg" xmlns:xlink="http://www.w3.org/1999/xlink" x="0px" y="0px"
	 viewBox="0 0 512.074 512.074" style="enable-background:new 0 0 512.074 512.074;" xml:space="preserve">
<g id="XMLID_1802_">
	<circle id="XMLID_1773_" style="fill:#FFFFFF;" cx="256.037" cy="226.074" r="216"/>
	<path id="XMLID_1804_" style="fill:#FFCB7C;" d="M357.719,35.514c-44.296-23.688-93.602-30.387-140.022-21.997
		c1.945,1.111,3.88,2.256,5.804,3.434c29.924,18.332,53.809,42.778,71.033,70.745l46.657,4.295
		C349.412,73.683,354.879,54.682,357.719,35.514z"/>
	<path id="XMLID_1803_" style="fill:#CBE558;" d="M440.222,338.91c42.206-68.894,41.161-152.12,4.497-218.027
		c-28.315-6.419-57.325-6.946-85.302-1.996l-9.188,38.883c60.181,56.828,82.408,143.629,57.49,222.133
		C419.913,367.862,430.868,354.178,440.222,338.91z"/>
	<path id="XMLID_1777_" style="fill:#F5737F;" d="M275.119,243.546c13.646-22.275,23.371-45.851,29.367-69.921l-30.377-62.49
		c-77.964-27.804-165.393-8.18-224.014,49.679c-21.898,68.92-7.462,144.235,37.104,200.061l0.679,0.322
		C162.527,353.596,232.896,312.468,275.119,243.546z"/>
	<circle id="XMLID_817_" style="fill:#B0E7F8;" cx="315.489" cy="129.029" r="45.083"/>
	<path id="XMLID_2279_" style="fill:#B0E7F8;" d="M10.037,490.752L10.037,490.752c15.096-15.096,39.571-15.096,54.667,0l0,0
		c15.096,15.096,39.571,15.096,54.667,0l0,0c15.096-15.096,39.571-15.096,54.667,0l0,0c15.096,15.096,39.571,15.096,54.667,0l0,0
		c15.096-15.096,39.571-15.096,54.667,0l0,0c15.096,15.096,39.571,15.096,54.667,0l0,0c15.096-15.096,39.571-15.096,54.667,0l0,0
		c15.096,15.096,39.571,15.096,54.667,0l0,0c15.096-15.096,39.571-15.096,54.667,0l0,0v-142.29l0,0
		c-15.096-15.096-39.571-15.096-54.667,0l0,0c-15.096,15.096-39.571,15.096-54.667,0l0,0c-15.096-15.096-39.571-15.096-54.667,0l0,0
		c-15.096,15.096-39.571,15.096-54.667,0l0,0c-15.096-15.096-39.571-15.096-54.667,0l0,0c-15.096,15.096-39.571,15.096-54.667,0l0,0
		c-15.096-15.096-39.571-15.096-54.667,0l0,0c-15.096,15.096-39.571,15.096-54.667,0l0,0c-15.096-15.096-39.571-15.096-54.667,0l0,0
		V490.752z"/>
	<g id="XMLID_342_">
		<path id="XMLID_770_" d="M440.3,412.536c-11.174,11.173-29.353,11.173-40.525,0c-18.97-18.97-49.838-18.969-68.809,0
			c-11.172,11.174-29.352,11.173-40.524,0c-18.971-18.97-49.837-18.97-68.809,0c-11.171,11.172-29.352,11.173-40.524,0
			c-18.971-18.969-49.839-18.97-68.809,0c-11.173,11.172-29.352,11.173-40.525,0c-18.97-18.97-49.838-18.969-68.809,0
			c-3.905,3.905-3.905,10.237,0,14.143c3.905,3.905,10.237,3.905,14.143,0c5.412-5.413,12.608-8.393,20.262-8.393
			c7.654,0,14.85,2.98,20.262,8.393c18.972,18.971,49.839,18.97,68.809,0c5.412-5.413,12.608-8.393,20.262-8.393
			c7.654,0,14.85,2.98,20.262,8.393c9.487,9.486,21.943,14.229,34.405,14.228c12.458-0.001,24.92-4.744,34.404-14.228
			c11.174-11.173,29.353-11.173,40.525,0c18.971,18.971,49.839,18.97,68.809,0c5.412-5.413,12.608-8.393,20.262-8.393
			c7.654,0,14.85,2.98,20.262,8.393c18.971,18.969,49.838,18.97,68.81,0c5.412-5.413,12.608-8.393,20.262-8.393
			c7.654,0,14.85,2.98,20.262,8.393c3.905,3.905,10.237,3.905,14.143,0c3.905-3.905,3.905-10.237,0-14.143
			C490.138,393.566,459.271,393.566,440.3,412.536z"/>
		<path id="XMLID_1198_" d="M17.108,355.533c5.412-5.413,12.608-8.393,20.262-8.393c7.654,0,14.85,2.98,20.262,8.393
			c18.972,18.97,49.839,18.97,68.809,0c5.412-5.413,12.608-8.393,20.262-8.393c7.654,0,14.85,2.98,20.262,8.393
			c9.487,9.486,21.943,14.229,34.405,14.228c12.458-0.001,24.92-4.744,34.404-14.228c11.174-11.173,29.353-11.173,40.525,0
			c18.971,18.97,49.839,18.97,68.809,0c5.412-5.413,12.608-8.393,20.262-8.393c7.654,0,14.85,2.98,20.262,8.393
			c18.971,18.97,49.838,18.97,68.81,0c5.412-5.413,12.608-8.393,20.262-8.393c7.654,0,14.85,2.98,20.262,8.393
			c3.905,3.905,10.237,3.905,14.143,0c3.905-3.905,3.905-10.237,0-14.143c-14.241-14.241-35.187-17.79-52.771-10.649
			c25.402-48.441,32.344-103.773,19.448-157.455c-14.1-58.697-50.214-108.39-101.689-139.925
			C326.37,4.123,270.735-6.244,216.1,3.637c-0.084,0.013-0.168,0.029-0.251,0.044c-4.207,0.766-8.409,1.638-12.599,2.644
			c-58.697,14.1-108.39,50.214-139.924,101.689c-24.475,39.951-35.837,85.697-32.857,132.294
			c2.039,31.892,10.641,62.555,25.184,90.398c-17.566-7.094-38.468-3.533-52.686,10.684c-3.905,3.905-3.905,10.237,0,14.143
			C6.871,359.439,13.203,359.439,17.108,355.533z M431.695,333.686c-1.789,2.921-3.667,5.8-5.602,8.636
			c3.873-31.714,0.974-64.168-8.586-94.877c-10.653-34.224-29.361-65.484-54.305-90.927c5.29-9.176,7.642-19.287,7.315-29.215
			c22.643-2.963,45.347-2.156,67.679,2.41c7.942,15.076,14.059,31.244,18.143,48.245
			C469.191,231.461,460.439,286.766,431.695,333.686z M297.162,158.944c-16.496-10.105-21.695-31.747-11.589-48.243
			c6.612-10.792,18.158-16.748,29.974-16.748c6.244,0,12.565,1.665,18.27,5.159c0.514,0.315,1.017,0.641,1.509,0.978
			c0.01,0.008,0.021,0.015,0.031,0.022c15.27,10.479,19.832,31.272,10.048,47.242c-4.895,7.991-12.609,13.597-21.721,15.786
			C314.57,165.33,305.152,163.839,297.162,158.944z M424.402,107.208c-19.287-2.362-38.75-2.189-58.161,0.499
			c-2.907-6.946-7.24-13.342-12.897-18.691c4.995-12.225,8.895-24.854,11.667-37.742C388.701,66.036,408.76,85.044,424.402,107.208z
			 M346.658,41.083c-2.319,12.6-5.82,24.958-10.454,36.914c-12.024-4.888-25.099-5.224-36.991-1.551
			c-14.341-21.749-32.059-40.526-52.868-56.07C280.162,18.732,314.666,25.382,346.658,41.083z M216.008,24.111
			c0.76,0.453,1.52,0.907,2.27,1.367c25.46,15.597,46.643,35.866,63.102,60.3c-4.606,3.624-8.687,8.054-12.044,13.217
			c-37.67-11.836-77.822-13.55-116.675-4.901c-27.866,6.203-54.079,17.519-77.414,33.263c1.633-2.996,3.339-5.964,5.134-8.894
			C111.595,67.508,161.56,34.924,216.008,24.111z M59.065,166.045c53.542-51.449,131.811-69.998,202.558-48.496
			c-4.706,22.185,4.677,45.943,25.091,58.449c1.937,1.187,3.921,2.231,5.937,3.151c-4.71,16.441-11.205,32.4-19.367,47.542
			c-2.621,4.861-0.804,10.927,4.057,13.547c1.509,0.814,3.134,1.2,4.736,1.2c3.559,0,7.004-1.904,8.811-5.257
			c8.954-16.61,16.063-34.131,21.183-52.188c1.11,0.067,2.219,0.105,3.328,0.105c12.537,0,24.873-4.287,34.764-12.287
			c44.181,45.903,64.801,110.905,55.252,173.962c-2.013-1.194-3.911-2.654-5.64-4.383c-18.97-18.97-49.838-18.969-68.809,0
			c-11.172,11.173-29.352,11.173-40.524,0c-18.971-18.97-49.837-18.97-68.809,0c-10.607,10.609-27.53,11.137-38.776,1.599
			c17.993-9.387,34.793-20.836,50.089-34.165c4.164-3.628,4.598-9.945,0.969-14.109c-3.627-4.163-9.944-4.599-14.109-0.969
			c-16.905,14.732-35.806,26.975-56.209,36.437c-17.271-6.366-37.452-2.64-51.298,11.207c-5.792,5.792-13.466,8.573-21.071,8.36
			C51.504,296.77,40.365,227.959,59.065,166.045z"/>
		<path id="XMLID_1227_" d="M440.3,483.681c-5.413,5.413-12.609,8.394-20.263,8.394c-7.654,0-14.85-2.981-20.263-8.394
			c-18.97-18.97-49.838-18.97-68.809,0c-5.412,5.412-12.608,8.393-20.262,8.393c-7.654,0-14.85-2.981-20.262-8.394
			c-18.971-18.97-49.837-18.97-68.809,0c-5.412,5.412-12.608,8.393-20.262,8.393c-7.654,0-14.85-2.981-20.262-8.394
			c-18.971-18.97-49.838-18.969-68.809,0c-5.412,5.412-12.608,8.393-20.262,8.393c-7.654,0-14.85-2.981-20.263-8.394
			c-18.97-18.97-49.838-18.969-68.809,0c-3.905,3.905-3.905,10.237,0,14.143c3.905,3.905,10.237,3.905,14.143,0
			c5.412-5.413,12.608-8.393,20.262-8.393c7.654,0,14.85,2.98,20.262,8.393c9.19,9.19,21.409,14.251,34.405,14.251
			c12.997,0,25.215-5.061,34.405-14.251c5.412-5.413,12.608-8.393,20.262-8.393c7.654,0,14.85,2.98,20.262,8.393
			c9.19,9.19,21.408,14.251,34.405,14.251c12.996,0,25.214-5.061,34.404-14.251c11.174-11.173,29.353-11.172,40.525,0
			c9.19,9.19,21.408,14.251,34.404,14.251c12.997,0,25.215-5.061,34.405-14.251c5.412-5.413,12.608-8.393,20.262-8.393
			c7.654,0,14.85,2.98,20.262,8.393c9.19,9.19,21.408,14.251,34.405,14.251c12.996,0,25.215-5.061,34.405-14.251
			c5.412-5.413,12.608-8.393,20.262-8.393c7.654,0,14.85,2.98,20.262,8.393c3.905,3.905,10.237,3.905,14.143,0
			c3.905-3.905,3.905-10.237,0-14.143C490.138,464.711,459.27,464.711,440.3,483.681z"/>
		<path id="XMLID_1229_" d="M250.371,276.211c1.953,1.953,4.512,2.929,7.071,2.929s5.119-0.976,7.071-2.929
			c3.905-3.905,3.905-10.237,0-14.143l-0.156-0.156c-3.905-3.905-10.237-3.905-14.143,0c-3.905,3.905-3.905,10.237,0,14.143
			L250.371,276.211z"/>
	</g>
</g>
<g>
</g>
<g>
</g>
<g>
</g>
<g>
</g>
<g>
</g>
<g>
</g>
<g>
</g>
<g>
</g>
<g>
</g>
<g>
</g>
<g>
</g>
<g>
</g>
<g>
</g>
<g>
</g>
<g>
</g>
</svg>
