<?xml version="1.0" encoding="iso-8859-1"?>
<!-- Generator: Adobe Illustrator 22.0.0, SVG Export Plug-In . SVG Version: 6.00 Build 0)  -->
<svg version="1.1" id="Capa_1" xmlns="http://www.w3.org/2000/svg" xmlns:xlink="http://www.w3.org/1999/xlink" x="0px" y="0px"
	 viewBox="0 0 512 512" style="enable-background:new 0 0 512 512;" xml:space="preserve">
<g id="XMLID_1612_">
	<path id="XMLID_1326_" style="fill:#E1E3E9;" d="M479.5,502h-139c-12.426,0-22.5-10.074-22.5-22.5v-339
		c0-12.426,10.074-22.5,22.5-22.5h139c12.426,0,22.5,10.074,22.5,22.5v339C502,491.926,491.926,502,479.5,502z"/>
	<circle id="XMLID_1325_" style="fill:#FFFFFF;" cx="410.335" cy="190" r="24"/>
	<path id="XMLID_1323_" style="fill:#91DEF5;" d="M249.667,169.833C249.667,103.651,196.015,50,129.833,50S10,103.651,10,169.833
		c0,53.146,34.6,98.203,82.5,113.894v181.106L129.833,502l37.333-37.167v-22.803l17.303-17.238l-31.262-31.262l21.756-21.744
		L153.2,350.023l22.375-22.375l-22.367-22.367v-17.9C208.199,276.506,249.667,228.016,249.667,169.833z"/>
	<circle id="XMLID_1324_" style="fill:#FFFFFF;" cx="129.833" cy="114.05" r="24"/>
	<g id="XMLID_1057_">
		<path id="XMLID_1084_" d="M479.5,108H420V97.5C420,43.738,376.262,0,322.5,0H217.333c-32.407,0-61.166,15.897-78.905,40.298
			c-2.852-0.186-5.716-0.298-8.595-0.298C58.243,40,0,98.243,0,169.833c0,53.84,32.861,101.548,82.5,120.927v174.073
			c0,2.66,1.06,5.21,2.945,7.087l37.333,37.167c1.951,1.942,4.503,2.913,7.055,2.913s5.104-0.971,7.055-2.913l37.333-37.167
			c1.885-1.876,2.945-4.427,2.945-7.087v-18.649l14.361-14.307c1.881-1.874,2.94-4.419,2.942-7.075
			c0.002-2.655-1.051-5.203-2.929-7.081l-24.189-24.188l14.681-14.674c1.876-1.875,2.93-4.419,2.931-7.072
			c0-2.652-1.053-5.196-2.929-7.072l-14.693-14.692l15.304-15.304c3.905-3.905,3.905-10.237,0-14.142l-19.438-19.438v-5.815
			c18.268-4.859,35.406-13.738,49.975-25.947c16.518-13.843,29.436-31.7,37.357-51.642c2.039-5.133-0.47-10.946-5.603-12.985
			c-5.132-2.04-10.945,0.469-12.985,5.602c-13.836,34.835-43.999,59.964-80.684,67.218c-4.684,0.926-8.06,5.035-8.06,9.81v17.9
			c0,2.652,1.054,5.196,2.929,7.071l15.295,15.295l-15.304,15.304c-3.905,3.905-3.905,10.237,0,14.142l14.691,14.691l-14.681,14.674
			c-1.876,1.875-2.93,4.419-2.931,7.071c0,2.653,1.053,5.197,2.929,7.073l24.177,24.177l-10.206,10.167
			c-1.884,1.876-2.942,4.426-2.942,7.084v18.647l-27.333,27.211L102.5,460.678V283.728c0-4.323-2.778-8.157-6.887-9.503
			C50.387,259.409,20,217.458,20,169.833C20,110.11,67.917,61.371,127.325,60.032c-2.799,6.7-4.869,13.776-6.115,21.13
			c-14.585,3.827-25.376,17.12-25.376,32.889c0,18.748,15.252,34,34,34s34-15.252,34-34c0-14.695-9.373-27.24-22.453-31.978
			c1.468-7.236,3.959-14.102,7.295-20.458c37.327,6.392,68.916,31.542,83.276,67.694c2.039,5.133,7.854,7.641,12.985,5.602
			c5.133-2.039,7.641-7.853,5.602-12.985c-9.491-23.894-25.726-44.28-46.948-58.954c-12.91-8.926-27.155-15.331-42.147-19.078
			C175.557,29.185,195.387,20,217.333,20H322.5c42.733,0,77.5,34.766,77.5,77.5V108h-59.5c-17.92,0-32.5,14.58-32.5,32.5v339
			c0,17.92,14.58,32.5,32.5,32.5h139c17.92,0,32.5-14.58,32.5-32.5v-339C512,122.58,497.42,108,479.5,108z M129.833,128.05
			c-7.72,0-14-6.28-14-14c0-4.559,2.201-8.604,5.585-11.162c1.778,2.771,4.879,4.612,8.415,4.612s6.637-1.841,8.415-4.612
			c3.384,2.558,5.585,6.603,5.585,11.162C143.833,121.77,137.553,128.05,129.833,128.05z M492,479.5c0,6.893-5.607,12.5-12.5,12.5
			h-139c-6.893,0-12.5-5.607-12.5-12.5v-339c0-6.893,5.607-12.5,12.5-12.5H400v29.611c-13.709,4.385-23.666,17.244-23.666,32.389
			c0,18.748,15.252,34,34,34s34-15.252,34-34c0-15.39-10.282-28.417-24.334-32.592V128h59.5c6.893,0,12.5,5.607,12.5,12.5V479.5z
			 M401.327,179.298c1.725,3.006,4.959,5.035,8.673,5.035c3.864,0,7.209-2.195,8.875-5.402c3.314,2.563,5.46,6.565,5.46,11.069
			c0,7.72-6.28,14-14,14s-14-6.28-14-14C396.334,185.71,398.279,181.868,401.327,179.298z"/>
		<path id="XMLID_1155_" d="M434.001,265.667c-5.523,0-10,4.477-10,10v164.667c0,5.523,4.477,10,10,10s10-4.477,10-10V275.667
			C444.001,270.144,439.524,265.667,434.001,265.667z"/>
		<path id="XMLID_1156_" d="M386.001,315.695c-5.523,0-10,4.477-10,10v64.608c0,5.523,4.477,10,10,10s10-4.477,10-10v-64.608
			C396.001,320.172,391.524,315.695,386.001,315.695z"/>
		<path id="XMLID_1158_" d="M249.579,159.833c-5.523,0-10,4.477-10,10s4.477,10,10,10h0.088c5.523,0,9.956-4.477,9.956-10
			S255.102,159.833,249.579,159.833z"/>
	</g>
</g>
<g>
</g>
<g>
</g>
<g>
</g>
<g>
</g>
<g>
</g>
<g>
</g>
<g>
</g>
<g>
</g>
<g>
</g>
<g>
</g>
<g>
</g>
<g>
</g>
<g>
</g>
<g>
</g>
<g>
</g>
</svg>
