<?xml version="1.0" encoding="iso-8859-1"?>
<!-- Generator: Adobe Illustrator 22.0.0, SVG Export Plug-In . SVG Version: 6.00 Build 0)  -->
<svg version="1.1" id="Capa_1" xmlns="http://www.w3.org/2000/svg" xmlns:xlink="http://www.w3.org/1999/xlink" x="0px" y="0px"
	 viewBox="0 0 512 512" style="enable-background:new 0 0 512 512;" xml:space="preserve">
<g id="XMLID_1523_">
	<path id="XMLID_1502_" style="fill:#FFFFFF;" d="M212.347,452.557c-0.22,1.785-0.347,3.599-0.347,5.443c0,24.301,19.699,44,44,44
		s44-19.699,44-44c0-1.844-0.127-3.658-0.347-5.443H212.347z"/>
	<path id="XMLID_1375_" style="fill:#FFCB7C;" d="M396,388.557V246.5c0-77.32-62.68-140-140-140h0c-77.32,0-140,62.68-140,140
		v142.057l0,0c-23.745,10.242-39.124,33.625-39.124,59.484v4.516h358.249v-4.516C435.124,422.181,419.745,398.799,396,388.557
		L396,388.557z"/>
	<path id="XMLID_1471_" style="fill:#FBC2C7;" d="M228,92.557V38c0-15.464,12.536-28,28-28h0c15.464,0,28,12.536,28,28v54.557"/>
	<polygon id="XMLID_1470_" style="fill:#FBC2C7;" points="322.179,122.557 355.424,239.94 314.77,216.433 291.316,257.117 
		256.127,125.789 293,99.558 	"/>
	<polygon id="XMLID_925_" style="fill:#FBC2C7;" points="190.075,122.557 156.83,239.94 197.483,216.433 220.937,257.117 
		256.127,125.789 219.254,99.558 	"/>
	<circle id="XMLID_2503_" style="fill:#FFFFFF;" cx="256.127" cy="92.557" r="32"/>
	<path id="XMLID_2501_" style="fill:#F5737F;" d="M327.19,124.394l-43.83-31.837l43.83-31.837
		c15.659-11.375,37.265-9.673,50.951,4.013l0,0c15.367,15.367,15.367,40.282,0,55.649l0,0
		C364.455,134.067,342.85,135.769,327.19,124.394z"/>
	<path id="XMLID_2499_" style="fill:#F5737F;" d="M185.063,124.394l43.83-31.837l-43.83-31.837
		c-15.659-11.375-37.265-9.673-50.951,4.013l0,0c-15.367,15.367-15.367,40.282,0,55.649l0,0
		C147.798,134.067,169.404,135.769,185.063,124.394z"/>
	<g id="XMLID_535_">
		<path id="XMLID_586_" d="M406,382.305V352c0-5.523-4.477-10-10-10s-10,4.477-10,10v36.558c0,3.992,2.374,7.602,6.04,9.182
			c18.404,7.938,30.845,25.163,32.812,44.817H299.653h-87.306H87.149c1.966-19.654,14.407-36.879,32.812-44.818
			c3.666-1.581,6.04-5.19,6.04-9.182V246.5c0-39.14,17.49-75.565,46.899-99.994l-25.691,90.709
			c-1.109,3.917,0.267,8.117,3.48,10.617c3.213,2.501,7.623,2.803,11.146,0.765l31.985-18.495l18.453,32.01
			c1.801,3.124,5.121,5.006,8.661,5.006c0.433,0,0.869-0.028,1.305-0.085c4.011-0.527,7.31-3.419,8.357-7.327l25.53-95.28
			l25.53,95.28c1.047,3.908,4.346,6.8,8.357,7.327c0.437,0.057,0.873,0.085,1.305,0.085c3.54,0,6.86-1.883,8.661-5.006l18.453-32.01
			l31.985,18.495c3.525,2.038,7.933,1.736,11.146-0.765c3.213-2.5,4.59-6.7,3.48-10.617l-25.612-90.431
			C368.638,171.217,386,207.531,386,246.5V262c0,5.523,4.477,10,10,10s10-4.477,10-10v-15.5c0-40.364-16.155-78.247-43.833-105.971
			c8.461-2.103,16.454-6.485,23.045-13.076c19.241-19.242,19.241-50.55,0-69.791c-17.267-17.268-44.141-19.383-63.899-5.033
			L294,72.469V38c0-20.953-17.047-38-38-38s-38,17.046-38,38v34.285l-27.06-19.656c-19.759-14.352-46.632-12.236-63.899,5.032
			c-19.241,19.242-19.241,50.55,0,69.791c6.538,6.538,14.454,10.898,22.838,13.021C122.169,168.193,106,206.087,106,246.5v135.806
			c-23.97,12.986-39.125,38.11-39.125,65.735v4.516c0,5.523,4.477,10,10,10h125.331C204.529,490.206,227.76,512,256,512
			s51.47-21.793,53.794-49.443h125.331c5.523,0,10-4.477,10-10v-4.516C445.124,420.416,429.969,395.292,406,382.305z
			 M278.127,92.557c0,12.131-9.869,22-22,22s-22-9.869-22-22s9.869-22,22-22S278.127,80.426,278.127,92.557z M217.532,231.189
			l-11.385-19.75c-1.326-2.299-3.511-3.978-6.075-4.665c-2.564-0.687-5.296-0.326-7.594,1.002l-19.307,11.164l26.225-92.597
			l19.581-14.224c5.188,9.812,14.145,17.334,24.934,20.62L217.532,231.189z M319.776,207.776c-2.297-1.328-5.027-1.688-7.594-1.002
			c-2.564,0.687-4.75,2.365-6.075,4.665l-11.385,19.75l-26.38-98.45c10.79-3.286,19.746-10.808,24.934-20.62l19.581,14.224
			l26.225,92.597L319.776,207.776z M333.067,68.811c11.75-8.535,27.733-7.277,38.002,2.993c11.444,11.443,11.444,30.063,0,41.507
			c-10.27,10.27-26.252,11.528-38.002,2.993l-18.925-13.747H328c5.523,0,10-4.477,10-10s-4.477-10-10-10h-13.857L333.067,68.811z
			 M256,20c9.925,0,18,8.075,18,18v16.56c-5.427-2.563-11.484-4.003-17.873-4.003c-6.488,0-12.636,1.48-18.127,4.118V38
			C238,28.075,246.074,20,256,20z M141.184,71.803c5.714-5.714,13.196-8.638,20.734-8.638c6.01,0,12.056,1.859,17.269,5.646
			l18.924,13.746H184c-5.523,0-10,4.477-10,10s4.477,10,10,10h14.111l-18.925,13.747c-11.751,8.534-27.734,7.277-38.002-2.993
			C129.74,101.867,129.74,83.247,141.184,71.803z M256,492c-17.203,0-31.463-12.842-33.696-29.443h67.392
			C287.463,479.158,273.203,492,256,492z"/>
		<path id="XMLID_1079_" d="M396,297.001c-2.63,0-5.21,1.07-7.07,2.93c-1.86,1.86-2.93,4.44-2.93,7.07s1.07,5.21,2.93,7.07
			c1.86,1.86,4.44,2.93,7.07,2.93c2.63,0,5.21-1.07,7.07-2.93c1.86-1.86,2.93-4.44,2.93-7.07s-1.07-5.21-2.93-7.07
			C401.21,298.071,398.63,297.001,396,297.001z"/>
	</g>
</g>
<g>
</g>
<g>
</g>
<g>
</g>
<g>
</g>
<g>
</g>
<g>
</g>
<g>
</g>
<g>
</g>
<g>
</g>
<g>
</g>
<g>
</g>
<g>
</g>
<g>
</g>
<g>
</g>
<g>
</g>
</svg>
