<?xml version="1.0" encoding="iso-8859-1"?>
<!-- Generator: Adobe Illustrator 22.0.0, SVG Export Plug-In . SVG Version: 6.00 Build 0)  -->
<svg version="1.1" id="Capa_1" xmlns="http://www.w3.org/2000/svg" xmlns:xlink="http://www.w3.org/1999/xlink" x="0px" y="0px"
	 viewBox="0 0 512 512" style="enable-background:new 0 0 512 512;" xml:space="preserve">
<g id="XMLID_765_">
	<polygon id="XMLID_1200_" style="fill:#60A4FF;" points="133.907,302.997 101.632,270.75 58.132,334.75 29.12,349.25 10,475 
		55.489,475 	"/>
	<polygon id="XMLID_1201_" style="fill:#F6838D;" points="256,37 312.437,69.584 256,102.168 	"/>
	<polygon id="XMLID_771_" style="fill:#9BC6FF;" points="55.489,475 502,475 409.343,277.839 312.437,208 256,131 204.916,191.531 
		187.424,242.376 147.376,276 	"/>
	<path id="XMLID_1293_" style="fill:#BDD9FF;" d="M374,415.281L374,415.281c0-19.034-9.073-36.928-24.428-48.176l-70.739-51.818
		c-8.299-6.079-12.017-16.629-9.363-26.568l3.17-11.87c2.573-9.634-0.837-19.874-8.672-26.043l-8.845-6.964
		c-10.763-8.474-12.682-24.041-4.299-34.875c3.382-4.372,5.218-9.742,5.218-15.27v-62.641l-0.03-0.04l-0.05,0.028l-51.047,60.487
		l-17.492,50.845L147.376,276L55.489,475h258.793C347.263,475,374,448.263,374,415.281z"/>
	<g id="XMLID_363_">
		<path id="XMLID_382_" d="M511.05,470.746l-28.853-61.395c-2.349-4.998-8.304-7.146-13.304-4.797
			c-4.998,2.349-7.146,8.305-4.797,13.304L486.251,465H363.092C375.984,452.341,384,434.733,384,415.281
			c0-22.137-10.662-43.163-28.519-56.243l-70.739-51.819c-5.011-3.67-7.213-9.919-5.61-15.921l3.169-11.869
			c3.607-13.51-1.16-27.829-12.147-36.48l-8.845-6.964c-6.423-5.058-7.579-14.433-2.576-20.898
			c4.713-6.091,7.308-13.687,7.308-21.389v-32.083l38.33,52.296c0.62,0.846,1.368,1.588,2.219,2.201l94.804,68.324l24.421,51.966
			c2.348,4.998,8.303,7.146,13.304,4.797c4.998-2.349,7.146-8.305,4.797-13.304l-25.523-54.311
			c-0.723-1.538-1.825-2.866-3.204-3.859l-95.622-68.914L266,127.728v-19.786l51.437-29.697c3.094-1.786,5-5.087,5-8.66
			s-1.906-6.874-5-8.66L261,28.34c-3.094-1.786-6.906-1.786-10,0c-3.094,1.786-5,5.087-5,8.66v65.168v25.176l-48.726,57.737
			c-0.797,0.944-1.412,2.028-1.814,3.197l-16.59,48.223l-37.923,31.84c-1.127,0.947-2.032,2.13-2.649,3.466l-6.775,14.672
			L108.7,263.676c-2.107-2.106-5.04-3.161-8.011-2.881c-2.966,0.281-5.653,1.87-7.328,4.334l-42.034,61.843L24.65,340.305
			c-2.907,1.453-4.927,4.229-5.416,7.441L0.114,473.496c-0.438,2.882,0.402,5.811,2.302,8.021S7.086,485,10,485h492
			c3.422,0,6.607-1.75,8.442-4.64C512.276,477.471,512.506,473.844,511.05,470.746z M266,84.847V54.32l26.437,15.264L266,84.847z
			 M38.228,355.877l24.375-12.183c1.53-0.765,2.838-1.909,3.8-3.323l36.708-54.008l19.479,19.462L49.091,465H21.635L38.228,355.877z
			 M71.121,465l84.398-182.779l38.335-32.186c1.39-1.167,2.436-2.69,3.026-4.406l16.884-49.078l32.278-38.247v35.393
			c0,3.295-1.11,6.544-3.126,9.15c-11.694,15.114-8.993,37.028,6.022,48.851l8.845,6.964c4.7,3.701,6.74,9.827,5.196,15.606
			l-3.169,11.869c-3.746,14.028,1.402,28.636,13.115,37.215l70.739,51.819C356.397,384.501,364,399.494,364,415.281
			C364,442.696,341.696,465,314.281,465H71.121z"/>
		<path id="XMLID_385_" d="M446.93,379.95c1.86,1.86,4.44,2.92,7.07,2.92c2.64,0,5.22-1.06,7.08-2.92c1.86-1.86,2.92-4.44,2.92-7.08
			c0-2.63-1.06-5.21-2.92-7.07c-1.87-1.86-4.44-2.93-7.08-2.93c-2.63,0-5.2,1.07-7.07,2.93c-1.86,1.87-2.93,4.44-2.93,7.07
			C444,375.51,445.07,378.079,446.93,379.95z"/>
	</g>
</g>
<g>
</g>
<g>
</g>
<g>
</g>
<g>
</g>
<g>
</g>
<g>
</g>
<g>
</g>
<g>
</g>
<g>
</g>
<g>
</g>
<g>
</g>
<g>
</g>
<g>
</g>
<g>
</g>
<g>
</g>
</svg>
