<?xml version="1.0" encoding="iso-8859-1"?>
<!-- Generator: Adobe Illustrator 22.0.0, SVG Export Plug-In . SVG Version: 6.00 Build 0)  -->
<svg version="1.1" id="Capa_1" xmlns="http://www.w3.org/2000/svg" xmlns:xlink="http://www.w3.org/1999/xlink" x="0px" y="0px"
	 viewBox="0 0 512 512" style="enable-background:new 0 0 512 512;" xml:space="preserve">
<g id="XMLID_1167_">
	<path id="XMLID_1995_" style="fill:#B5BCC9;" d="M44.639,467.361l211.517-211.517l211.517,211.517
		c-6.918,16.701-7.43,17.937-14.348,34.639H58.987C52.069,485.299,51.557,484.063,44.639,467.361z"/>
	<polygon id="XMLID_1722_" style="fill:#F6838D;" points="218.476,502 256.283,336 294.091,502 	"/>
	<polygon id="XMLID_1520_" style="fill:#8690A6;" points="294.091,502 256.283,336 350.584,445.507 	"/>
	<polygon id="XMLID_1519_" style="fill:#8690A6;" points="218.476,502 256.283,336 161.982,445.507 	"/>
	<path id="XMLID_968_" style="fill:#8690A6;" d="M133.497,104.574c-21.719,0-39.325-17.606-39.325-39.325
		c0-9.91,3.674-18.957,9.723-25.872C77.561,41.574,56.87,63.628,56.87,90.53c0,28.358,22.989,51.347,51.347,51.347
		c26.901,0,48.956-20.692,51.153-47.026C152.454,100.901,143.407,104.574,133.497,104.574z"/>
	<g id="XMLID_401_">
		<path id="XMLID_402_" d="M175.413,36.377c3.516,0,6.377,2.861,6.377,6.377c0,5.523,4.477,10,10,10s10-4.477,10-10
			c0-3.516,2.861-6.377,6.377-6.377c5.523,0,10-4.477,10-10s-4.477-10-10-10c-3.516,0-6.377-2.861-6.377-6.377
			c0-5.523-4.477-10-10-10s-10,4.477-10,10c0,3.516-2.861,6.377-6.377,6.377c-5.523,0-10,4.477-10,10S169.89,36.377,175.413,36.377z
			"/>
		<path id="XMLID_403_" d="M408.365,198.715c0-5.523-4.477-10-10-10s-10,4.477-10,10c0,3.516-2.861,6.377-6.377,6.377
			c-5.523,0-10,4.477-10,10s4.477,10,10,10c3.516,0,6.377,2.861,6.377,6.377c0,5.523,4.477,10,10,10s10-4.477,10-10
			c0-3.516,2.861-6.377,6.377-6.377c5.523,0,10-4.477,10-10s-4.477-10-10-10C411.226,205.092,408.365,202.231,408.365,198.715z"/>
		<path id="XMLID_404_" d="M106.273,259.251c0-5.523-4.477-10-10-10s-10,4.477-10,10c0,3.516-2.861,6.377-6.377,6.377
			c-5.523,0-10,4.477-10,10s4.477,10,10,10c3.516,0,6.377,2.861,6.377,6.377c0,5.523,4.477,10,10,10s10-4.477,10-10
			c0-3.516,2.861-6.377,6.377-6.377c5.523,0,10-4.477,10-10s-4.477-10-10-10C109.133,265.628,106.273,262.768,106.273,259.251z"/>
		<path id="XMLID_407_" d="M108.217,151.877c15.485,0,30.27-5.788,41.631-16.297c11.292-10.445,18.212-24.614,19.487-39.897
			c0.339-4.061-1.82-7.921-5.457-9.758c-3.637-1.837-8.025-1.283-11.092,1.399c-5.345,4.675-12.195,7.25-19.289,7.25
			c-16.17,0-29.325-13.155-29.325-29.325c0-7.094,2.575-13.944,7.25-19.288c2.683-3.067,3.237-7.455,1.4-11.092
			c-1.836-3.637-5.688-5.801-9.758-5.458c-15.284,1.275-29.453,8.196-39.898,19.487C52.657,60.26,46.87,75.044,46.87,90.53
			C46.87,124.357,74.39,151.877,108.217,151.877z M84.971,56.411c-0.528,2.898-0.799,5.856-0.799,8.838
			c0,27.198,22.127,49.325,49.325,49.325c2.983,0,5.94-0.271,8.838-0.799c-7.509,10.934-20.116,18.102-34.119,18.102
			c-22.799,0-41.347-18.548-41.347-41.347C66.87,76.529,74.039,63.921,84.971,56.411z"/>
		<path id="XMLID_885_" d="M509.071,494.617L396.049,381.595c-3.905-3.904-10.237-3.904-14.143,0
			c-3.905,3.905-3.905,10.237,0,14.143l73.329,73.329c0.002,0.002,0.003,0.003,0.005,0.005l0.637,0.637L446.644,492H318.234
			l39.422-39.422c3.701-3.701,3.922-9.63,0.506-13.597l-91.878-106.694v-52.174l51.981,51.981c3.905,3.905,10.238,3.905,14.142,0
			c3.906-3.905,3.906-10.237,0-14.143l-62.108-62.108l30.703-30.703c3.905-3.905,3.905-10.237,0-14.143
			c-3.905-3.905-10.237-3.905-14.143,0l-30.703,30.703l-30.703-30.703c-3.905-3.905-10.237-3.905-14.143,0
			c-3.905,3.905-3.905,10.237,0,14.143l30.703,30.703L2.929,494.929c-3.905,3.905-3.905,10.237,0,14.143
			C4.882,511.024,7.441,512,10,512s5.119-0.976,7.071-2.929l24.056-24.056l8.62,20.811c1.548,3.737,5.194,6.173,9.239,6.173h159.48
			c0.003,0,0.007,0,0.01,0c0.002,0,0.005,0,0.007,0h75.6c0.002,0,0.004,0,0.007,0c0.003,0,0.007,0,0.01,0h159.226
			c4.045,0,7.691-2.437,9.239-6.173l8.62-20.811l23.744,23.744c1.953,1.953,4.512,2.929,7.071,2.929s5.119-0.976,7.071-2.929
			C512.976,504.854,512.976,498.522,509.071,494.617z M256.283,381.031L281.557,492h-50.548L256.283,381.031z M212.745,482.128
			l-37.129-37.129l61.978-71.971L212.745,482.128z M336.95,444.999l-37.129,37.129l-24.848-109.1L336.95,444.999z M56.435,469.708
			l4.637-4.637c0.002-0.002,0.003-0.003,0.005-0.005l185.207-185.207v52.429l-91.879,106.694c-3.416,3.966-3.194,9.896,0.506,13.597
			L194.333,492H65.668L56.435,469.708z"/>
		<path id="XMLID_895_" d="M350.08,349.77c-1.86,1.86-2.92,4.44-2.92,7.07c0,2.64,1.06,5.21,2.92,7.07
			c1.87,1.87,4.44,2.93,7.08,2.93c2.63,0,5.21-1.06,7.07-2.93c1.86-1.85,2.92-4.43,2.92-7.07c0-2.63-1.06-5.21-2.92-7.07
			c-1.87-1.86-4.44-2.93-7.07-2.93C354.53,346.84,351.95,347.91,350.08,349.77z"/>
	</g>
	<path id="XMLID_253_" style="fill:#DFF6FC;" d="M502,135.761c0-40.621-32.93-73.551-73.551-73.551
		c-26.301,0-49.363,13.815-62.365,34.574c-7.198-4.579-15.733-7.242-24.896-7.242c-25.658,0-46.458,20.8-46.458,46.458h207.263
		C501.994,135.92,502,135.841,502,135.761z"/>
	<g id="XMLID_252_">
		<path id="XMLID_255_" d="M501.994,146H294.731c-5.523,0-10-4.477-10-10c0-31.131,25.327-56.458,56.458-56.458
			c7.518,0,14.899,1.491,21.756,4.359c15.782-19.997,39.657-31.691,65.504-31.691c46.07,0,83.551,37.481,83.551,83.551
			c0,0.154-0.003,0.306-0.009,0.458C511.874,141.645,507.44,146,501.994,146z M306.125,126h185.127
			c-4.711-30.423-31.08-53.79-62.802-53.79c-22.025,0-42.171,11.171-53.89,29.882c-1.415,2.258-3.671,3.858-6.27,4.446
			c-2.597,0.588-5.324,0.114-7.573-1.316c-5.84-3.716-12.593-5.68-19.528-5.68C324.552,99.542,310.482,110.743,306.125,126z"/>
	</g>
</g>
<g>
</g>
<g>
</g>
<g>
</g>
<g>
</g>
<g>
</g>
<g>
</g>
<g>
</g>
<g>
</g>
<g>
</g>
<g>
</g>
<g>
</g>
<g>
</g>
<g>
</g>
<g>
</g>
<g>
</g>
</svg>
