<?xml version="1.0" encoding="iso-8859-1"?>
<!-- Generator: Adobe Illustrator 22.0.0, SVG Export Plug-In . SVG Version: 6.00 Build 0)  -->
<svg version="1.1" id="Capa_1" xmlns="http://www.w3.org/2000/svg" xmlns:xlink="http://www.w3.org/1999/xlink" x="0px" y="0px"
	 viewBox="0 0 512 512" style="enable-background:new 0 0 512 512;" xml:space="preserve">
<g id="XMLID_1057_">
	<polyline id="XMLID_1208_" style="fill:#E1E3E9;" points="306.701,64 363.5,64 309.441,10 285.873,10 	"/>
	<path id="XMLID_1151_" style="fill:#98A1B3;" d="M462,502H50c-16.569,0-30-13.431-30-30v0c0-16.569,13.431-30,30-30h412
		c16.569,0,30,13.431,30,30v0C492,488.568,478.569,502,462,502z"/>
	<polygon id="XMLID_1095_" style="fill:#D3D7DF;" points="414.833,362 97.167,362 83.5,442 428.5,442 	"/>
	<polygon id="XMLID_1094_" style="fill:#98A1B3;" points="285.873,10 226.127,10 113.627,362 398.373,362 	"/>
	<path id="XMLID_1096_" style="fill:#FFFFFF;" d="M279,462h-46c-20.402,0-37-16.598-37-37v-46c0-20.402,16.598-37,37-37h46
		c20.402,0,37,16.598,37,37v46C316,445.402,299.402,462,279,462z M236,422h40v-40h-40V422z"/>
	<rect id="XMLID_617_" x="236" y="382" style="fill:#FFCB7C;" width="40" height="40"/>
	<g id="XMLID_601_">
		<path id="XMLID_604_" d="M276,372h-40c-5.523,0-10,4.477-10,10v40c0,5.523,4.477,10,10,10h40c5.523,0,10-4.477,10-10v-40
			C286,376.477,281.523,372,276,372z M266,412h-20v-20h20V412z"/>
		<path id="XMLID_605_" d="M90,159.667c1.057,0,1.917,0.86,1.917,1.917c0,5.523,4.477,10,10,10s10-4.477,10-10
			c0-1.057,0.86-1.917,1.917-1.917c5.523,0,10-4.477,10-10s-4.477-10-10-10c-1.057,0-1.917-0.86-1.917-1.917c0-5.523-4.477-10-10-10
			s-10,4.477-10,10c0,1.057-0.86,1.917-1.917,1.917c-5.523,0-10,4.477-10,10S84.477,159.667,90,159.667z"/>
		<path id="XMLID_606_" d="M436.083,273.802c1.057,0,1.917,0.86,1.917,1.917c0,5.523,4.477,10,10,10s10-4.477,10-10
			c0-1.057,0.86-1.917,1.917-1.917c5.523,0,10-4.477,10-10s-4.477-10-10-10c-1.057,0-1.917-0.86-1.917-1.917c0-5.523-4.477-10-10-10
			s-10,4.477-10,10c0,1.057-0.86,1.917-1.917,1.917c-5.523,0-10,4.477-10,10S430.561,273.802,436.083,273.802z"/>
		<path id="XMLID_607_" d="M256.06,491.941c-2.63,0-5.21,1.06-7.07,2.93c-1.86,1.86-2.93,4.43-2.93,7.07c0,2.63,1.07,5.2,2.93,7.07
			c1.86,1.86,4.44,2.93,7.07,2.93c2.64,0,5.21-1.07,7.07-2.93c1.87-1.87,2.93-4.44,2.93-7.07c0-2.64-1.06-5.21-2.93-7.07
			C261.27,493.001,258.7,491.941,256.06,491.941z"/>
		<path id="XMLID_905_" d="M462,432h-25.063l-12.246-71.684c-0.821-4.803-4.984-8.316-9.857-8.316h-9.158L316.826,74H363.5
			c4.045,0,7.693-2.438,9.24-6.176c1.547-3.738,0.69-8.04-2.172-10.899l-54.059-54C314.633,1.052,312.091,0,309.441,0h-23.567
			h-59.747c-4.35,0-8.201,2.812-9.525,6.956L106.324,352h-9.158c-4.873,0-9.037,3.513-9.857,8.316L75.063,432H50
			c-22.056,0-40,17.944-40,40s17.944,40,40,40h161.063c5.523,0,10-4.477,10-10s-4.477-10-10-10H50c-11.028,0-20-8.972-20-20
			c0-11.028,8.972-20,20-20h33.477c0.011,0,0.023,0.001,0.035,0.001c0.011,0,0.022-0.001,0.033-0.001h111.02
			c8.514,12.084,22.563,20,38.436,20h46c15.872,0,29.922-7.916,38.436-20h111.02c0.011,0,0.022,0.001,0.033,0.001
			c0.011,0,0.023-0.001,0.035-0.001H462c11.028,0,20,8.972,20,20s-8.972,20-20,20H301.063c-5.523,0-10,4.477-10,10s4.477,10,10,10
			H462c22.056,0,40-17.944,40-40C502,449.944,484.056,432,462,432z M339.339,54h-28.905l-10.867-34h5.734L339.339,54z
			 M160.15,249.282l30.95,30.951c1.953,1.953,4.512,2.929,7.071,2.929s5.119-0.976,7.071-2.929c3.905-3.905,3.905-10.237,0-14.143
			L167,227.848l37.271-116.618l18.528,18.528c1.953,1.953,4.512,2.929,7.071,2.929s5.119-0.976,7.071-2.929
			c3.905-3.905,3.905-10.237,0-14.143l-25.82-25.82L233.429,20h45.143l35.865,112.218l-28.443,28.443
			c-3.905,3.905-3.905,10.237,0,14.143c1.953,1.953,4.512,2.929,7.071,2.929s5.119-0.976,7.071-2.929l21.151-21.151L384.679,352
			h-67.244c-8.514-12.084-22.563-20-38.436-20h-46c-15.872,0-29.922,7.916-38.436,20h-67.244L160.15,249.282z M95.354,432l10.25-60
			h7.906c0.034,0,0.069,0,0.104,0h72.911c-0.343,2.285-0.524,4.621-0.524,7v46c0,2.379,0.181,4.715,0.524,7H95.354z M279,452h-46
			c-14.888,0-27-12.112-27-27v-46c0-14.888,12.112-27,27-27h46c10.437,0,19.503,5.957,23.995,14.645
			c0.028,0.054,0.054,0.109,0.083,0.162C304.942,370.472,306,374.614,306,379v46c0,4.388-1.059,8.531-2.925,12.198
			c-0.025,0.046-0.048,0.094-0.072,0.141C298.514,446.036,289.443,452,279,452z M325.476,372h72.833
			c0.021,0,0.041,0.002,0.061,0.002c0.021,0,0.042-0.002,0.064-0.002h7.962l10.25,60h-91.17c0.343-2.285,0.524-4.621,0.524-7v-46
			C326,376.621,325.819,374.285,325.476,372z"/>
	</g>
</g>
<g>
</g>
<g>
</g>
<g>
</g>
<g>
</g>
<g>
</g>
<g>
</g>
<g>
</g>
<g>
</g>
<g>
</g>
<g>
</g>
<g>
</g>
<g>
</g>
<g>
</g>
<g>
</g>
<g>
</g>
</svg>
