<?xml version="1.0" encoding="iso-8859-1"?>
<!-- Generator: Adobe Illustrator 22.0.0, SVG Export Plug-In . SVG Version: 6.00 Build 0)  -->
<svg version="1.1" id="Capa_1" xmlns="http://www.w3.org/2000/svg" xmlns:xlink="http://www.w3.org/1999/xlink" x="0px" y="0px"
	 viewBox="0 0 512.001 512.001" style="enable-background:new 0 0 512.001 512.001;" xml:space="preserve">
<g id="XMLID_1337_">
	<path id="XMLID_1251_" style="fill:#91DEF5;" d="M181.696,323.394L181.696,323.394c17.69-17.69,46.371-17.69,64.061,0l0,0
		c17.69,17.69,46.371,17.69,64.061,0l0,0c17.69-17.69,46.371-17.69,64.061,0l0,0c17.69,17.69,46.371,17.69,64.061,0l0,0
		c17.69-17.69,46.371-17.69,64.061,0L502,502H10"/>
	<path id="XMLID_1305_" style="fill:#F0F7CD;" d="M158.733,502C173.794,451.214,182,396.551,182,339.594
		c0-96.824-23.689-187.032-64.514-262.799c-9.192-17.06-33.778-17.06-42.971,0C33.69,152.563,10,242.77,10,339.594
		c0,56.957,8.206,111.62,23.267,162.406H158.733z"/>
	<polyline id="XMLID_1306_" style="fill:#FFCB7C;" points="12.92,302.571 153.87,161.622 176.26,293.059 20.349,448.971 	"/>
	<circle id="XMLID_1335_" style="fill:#FFCB7C;" cx="402" cy="110" r="28"/>
	<g id="XMLID_655_">
		<path id="XMLID_656_" d="M502,492H386.848c-5.522,0-10,4.477-10,10s4.478,10,10,10H502c5.522,0,10-4.477,10-10
			S507.523,492,502,492z"/>
		<path id="XMLID_1015_" d="M469.97,387.618c-14.771,0-28.657,5.752-39.102,16.196c-13.761,13.761-36.154,13.764-49.919,0
			c-10.444-10.445-24.331-16.197-39.102-16.197s-28.657,5.752-39.102,16.196c-13.762,13.761-36.155,13.764-49.919,0
			c-10.444-10.445-24.331-16.197-39.102-16.197c-8.5,0-16.702,1.915-24.129,5.522c1.596-17.709,2.404-35.573,2.404-53.546
			c0-3.965-0.054-7.924-0.133-11.879c6.205-4.914,13.824-7.589,21.858-7.589c9.429,0,18.292,3.672,24.959,10.339
			c21.562,21.561,56.645,21.56,78.204,0c6.667-6.667,15.53-10.338,24.959-10.338s18.292,3.672,24.959,10.339
			c10.78,10.78,24.941,16.17,39.102,16.17c14.161,0,28.322-5.39,39.103-16.17c6.667-6.667,15.53-10.338,24.959-10.338
			c9.428,0,18.292,3.672,24.959,10.339c3.906,3.905,10.236,3.905,14.143,0c3.905-3.905,3.905-10.237,0-14.142
			c-10.445-10.444-24.331-16.196-39.102-16.196s-28.657,5.752-39.102,16.196c-13.761,13.761-36.154,13.764-49.919,0
			c-10.444-10.445-24.331-16.197-39.102-16.197s-28.657,5.752-39.102,16.196c-13.762,13.761-36.155,13.764-49.919,0
			c-10.444-10.445-24.331-16.197-39.102-16.197c-7.972,0-15.68,1.69-22.735,4.874c-2.924-50.316-12.211-99.511-27.496-146.074
			c-0.061-0.217-0.134-0.431-0.21-0.645c-9.88-29.973-22.244-58.852-36.996-86.231C120.289,60.917,108.684,54,96,54
			s-24.289,6.917-30.289,18.051C22.723,151.834,0,244.349,0,339.594c0,37.603,3.53,74.728,10.481,110.937
			c0.034,0.215,0.074,0.429,0.122,0.643c2.656,13.751,5.808,27.367,9.454,40.826H10c-5.522,0-10,4.477-10,10s4.478,10,10,10h23.268
			h125.465h138.114c5.522,0,10-4.477,10-10s-4.478-10-10-10H171.943c6.418-23.689,11.305-47.867,14.647-72.402
			c0.778-0.438,1.515-0.978,2.177-1.641c6.667-6.667,15.531-10.339,24.959-10.339c9.429,0,18.292,3.672,24.959,10.339
			c21.562,21.561,56.645,21.56,78.204,0c6.667-6.667,15.53-10.338,24.959-10.338s18.292,3.672,24.959,10.339
			c10.78,10.78,24.941,16.17,39.102,16.17c14.161,0,28.322-5.39,39.103-16.17c6.667-6.667,15.53-10.338,24.959-10.338
			c9.428,0,18.292,3.672,24.959,10.339c3.906,3.905,10.236,3.905,14.143,0c3.905-3.905,3.905-10.237,0-14.142
			C498.626,393.37,484.741,387.618,469.97,387.618z M20,339.594c0-10.305,0.291-20.574,0.837-30.798L149.244,180.39
			c10.044,33.978,16.827,69.299,20.221,105.349c-0.091,0.085-0.187,0.161-0.276,0.25L26.89,428.288
			C22.317,399.202,20,369.557,20,339.594z M83.319,81.539C85.862,76.818,90.603,74,96,74s10.139,2.818,12.682,7.539
			c13.275,24.638,24.534,50.549,33.72,77.408L23.311,278.038C30.855,208.111,51.218,141.113,83.319,81.539z M106,492v-45.667
			c0-5.523-4.478-10-10-10s-10,4.477-10,10V492H40.786c-3.688-13.092-6.873-26.35-9.584-39.74l140.135-140.135
			c0.163,3.424,0.306,6.851,0.408,10.285c-0.076,0.775-0.052,1.556,0.052,2.328c0.127,4.944,0.204,9.895,0.204,14.856
			c0,52.193-6.991,103.428-20.786,152.406H106z"/>
		<path id="XMLID_1043_" d="M402,148c20.953,0,38-17.047,38-38s-17.047-38-38-38s-38,17.047-38,38S381.047,148,402,148z M402,92
			c9.925,0,18,8.075,18,18s-8.075,18-18,18s-18-8.075-18-18S392.076,92,402,92z"/>
		<path id="XMLID_1045_" d="M402,48c5.522,0,10-4.477,10-10V10c0-5.523-4.478-10-10-10s-10,4.477-10,10v28
			C392,43.523,396.478,48,402,48z"/>
		<path id="XMLID_1046_" d="M392,182v28c0,5.523,4.478,10,10,10s10-4.477,10-10v-28c0-5.523-4.478-10-10-10S392,176.477,392,182z"/>
		<path id="XMLID_1049_" d="M464,110c0,5.523,4.478,10,10,10h28c5.522,0,10-4.477,10-10s-4.478-10-10-10h-28
			C468.478,100,464,104.477,464,110z"/>
		<path id="XMLID_1051_" d="M302,120h28c5.522,0,10-4.477,10-10s-4.478-10-10-10h-28c-5.522,0-10,4.477-10,10S296.478,120,302,120z"
			/>
		<path id="XMLID_1052_" d="M452.912,69.088c2.56,0,5.118-0.976,7.071-2.929l19.799-19.799c3.905-3.905,3.905-10.237,0-14.143
			c-3.906-3.905-10.236-3.905-14.143,0l-19.799,19.799c-3.905,3.905-3.905,10.237,0,14.143
			C447.794,68.112,450.353,69.088,452.912,69.088z"/>
		<path id="XMLID_1053_" d="M344.017,153.84l-19.799,19.799c-3.905,3.905-3.905,10.237,0,14.143
			c1.953,1.953,4.512,2.929,7.071,2.929s5.118-0.976,7.071-2.929l19.799-19.799c3.905-3.905,3.905-10.237,0-14.143
			C354.253,149.935,347.923,149.935,344.017,153.84z"/>
		<path id="XMLID_1056_" d="M465.64,187.782c1.953,1.953,4.512,2.929,7.071,2.929s5.118-0.976,7.071-2.929
			c3.905-3.905,3.905-10.237,0-14.143l-19.799-19.799c-3.906-3.905-10.236-3.905-14.143,0c-3.905,3.905-3.905,10.237,0,14.143
			L465.64,187.782z"/>
		<path id="XMLID_1058_" d="M344.017,66.159c1.953,1.953,4.512,2.929,7.071,2.929s5.118-0.976,7.071-2.929
			c3.905-3.905,3.905-10.237,0-14.143l-19.799-19.799c-3.906-3.905-10.236-3.905-14.143,0c-3.905,3.905-3.905,10.237,0,14.143
			L344.017,66.159z"/>
		<path id="XMLID_1060_" d="M341.85,492.001c-2.64,0-5.21,1.07-7.069,2.93c-1.86,1.86-2.931,4.44-2.931,7.07s1.07,5.21,2.931,7.07
			c1.859,1.86,4.439,2.93,7.069,2.93s5.21-1.07,7.07-2.93c1.86-1.86,2.93-4.44,2.93-7.07s-1.069-5.21-2.93-7.07
			C347.06,493.071,344.48,492.001,341.85,492.001z"/>
	</g>
</g>
<g>
</g>
<g>
</g>
<g>
</g>
<g>
</g>
<g>
</g>
<g>
</g>
<g>
</g>
<g>
</g>
<g>
</g>
<g>
</g>
<g>
</g>
<g>
</g>
<g>
</g>
<g>
</g>
<g>
</g>
</svg>
