<?xml version="1.0" encoding="iso-8859-1"?>
<!-- Generator: Adobe Illustrator 22.0.0, SVG Export Plug-In . SVG Version: 6.00 Build 0)  -->
<svg version="1.1" id="Capa_1" xmlns="http://www.w3.org/2000/svg" xmlns:xlink="http://www.w3.org/1999/xlink" x="0px" y="0px"
	 viewBox="0 0 512 512" style="enable-background:new 0 0 512 512;" xml:space="preserve">
<g id="XMLID_808_">
	<path id="XMLID_1694_" style="fill:#8690A6;" d="M128,124H64V94c0-5.523,4.477-10,10-10h44c5.523,0,10,4.477,10,10V124z"/>
	<path id="XMLID_1693_" style="fill:#E1E3E9;" d="M462,124H50c-22.091,0-40,17.909-40,40v224c0,22.091,17.909,40,40,40h412
		c22.091,0,40-17.909,40-40V164C502,141.909,484.091,124,462,124z"/>
	<rect id="XMLID_879_" x="10" y="208" style="fill:#8690A6;" width="492" height="136"/>
	<circle id="XMLID_1692_" style="fill:#FFFFFF;" cx="256" cy="276" r="148"/>
	<circle id="XMLID_1667_" style="fill:#91DEF5;" cx="256" cy="276" r="104"/>
	<circle id="XMLID_1698_" style="fill:#60A4FF;" cx="256" cy="276" r="60"/>
	<g id="XMLID_423_">
		<path id="XMLID_426_" d="M462,114H138V94c0-11.028-8.972-20-20-20H74c-11.028,0-20,8.972-20,20v20h-4c-27.57,0-50,22.43-50,50v224
			c0,27.57,22.43,50,50,50h412c27.57,0,50-22.43,50-50V164C512,136.43,489.57,114,462,114z M20,218h89.027
			C101.913,235.965,98,255.534,98,276s3.913,40.035,11.027,58H20V218z M118,276c0-76.093,61.906-138,138-138s138,61.907,138,138
			s-61.906,138-138,138S118,352.093,118,276z M402.973,218H492v116h-89.027C410.087,316.035,414,296.466,414,276
			S410.087,235.965,402.973,218z M492,164v34h-98.637c-15.723-27.58-39.51-49.989-68.129-64H462C478.542,134,492,147.458,492,164z
			 M74,94h44v20H74V94z M50,134h14h64h58.766c-28.62,14.011-52.407,36.42-68.129,64H20v-34C20,147.458,33.458,134,50,134z M20,388
			v-34h98.637c15.723,27.58,39.51,49.989,68.129,64H50C33.458,418,20,404.542,20,388z M462,418H325.234
			c28.62-14.011,52.407-36.42,68.129-64H492v34C492,404.542,478.542,418,462,418z"/>
		<path id="XMLID_457_" d="M256,390c30.45,0,59.078-11.858,80.61-33.39c44.448-44.449,44.448-116.772,0-161.22
			c-31.191-31.191-78.142-41.608-119.62-26.534c-5.19,1.886-7.869,7.624-5.982,12.814c1.886,5.19,7.62,7.87,12.814,5.983
			c34.202-12.429,72.925-3.842,98.646,21.879c36.65,36.65,36.65,96.285,0,132.936C304.714,360.222,281.108,370,256,370
			s-48.714-9.778-66.468-27.532c-25.724-25.723-34.311-64.446-21.877-98.651c1.887-5.191-0.792-10.928-5.982-12.815
			c-5.193-1.886-10.929,0.792-12.814,5.982c-15.076,41.477-4.662,88.433,26.531,119.626C196.922,378.142,225.55,390,256,390z"/>
		<path id="XMLID_460_" d="M256,346c38.598,0,70-31.402,70-70s-31.402-70-70-70s-70,31.402-70,70S217.402,346,256,346z M256,226
			c27.57,0,50,22.43,50,50s-22.43,50-50,50s-50-22.43-50-50S228.43,226,256,226z"/>
		<path id="XMLID_461_" d="M256,265.667c5.697,0,10.333,4.636,10.333,10.333c0,5.523,4.478,10,10,10s10-4.477,10-10
			c0-16.726-13.607-30.333-30.333-30.333c-5.522,0-10,4.477-10,10S250.478,265.667,256,265.667z"/>
		<path id="XMLID_894_" d="M435.67,176c2.63,0,5.21-1.07,7.07-2.93c1.859-1.86,2.93-4.44,2.93-7.07c0-2.63-1.07-5.21-2.93-7.07
			c-1.86-1.86-4.44-2.93-7.07-2.93c-2.64,0-5.21,1.07-7.07,2.93c-1.87,1.86-2.93,4.44-2.93,7.07c0,2.63,1.06,5.21,2.93,7.07
			C430.46,174.93,433.03,176,435.67,176z"/>
		<path id="XMLID_1012_" d="M182.46,212.46c2.63,0,5.21-1.07,7.07-2.93c1.859-1.86,2.93-4.43,2.93-7.07c0-2.63-1.07-5.21-2.93-7.07
			c-1.86-1.86-4.44-2.93-7.07-2.93s-5.21,1.07-7.07,2.93c-1.859,1.86-2.93,4.44-2.93,7.07c0,2.63,1.07,5.21,2.93,7.07
			C177.25,211.39,179.83,212.46,182.46,212.46z"/>
	</g>
</g>
<g>
</g>
<g>
</g>
<g>
</g>
<g>
</g>
<g>
</g>
<g>
</g>
<g>
</g>
<g>
</g>
<g>
</g>
<g>
</g>
<g>
</g>
<g>
</g>
<g>
</g>
<g>
</g>
<g>
</g>
</svg>
