<?xml version="1.0" encoding="iso-8859-1"?>
<!-- Generator: Adobe Illustrator 22.0.0, SVG Export Plug-In . SVG Version: 6.00 Build 0)  -->
<svg version="1.1" id="Capa_1" xmlns="http://www.w3.org/2000/svg" xmlns:xlink="http://www.w3.org/1999/xlink" x="0px" y="0px"
	 viewBox="0 0 512 512" style="enable-background:new 0 0 512 512;" xml:space="preserve">
<g id="XMLID_496_">
	<circle id="XMLID_17_" style="fill:#D8EC84;" cx="322" cy="90" r="80"/>
	<path id="XMLID_1026_" style="fill:#DFF6FC;" d="M312.593,180.712C294.984,152.984,282.957,122.17,277.085,90H165.005
		c-5.872,32.17-17.899,62.984-35.507,90.713v0C116.763,200.766,110,224.031,110,247.787v0c0,61.328,49.716,111.045,111.045,111.045
		l0,0l0,0c61.329,0,111.045-49.716,111.045-111.045v0C332.09,224.031,325.327,200.766,312.593,180.712L312.593,180.712z"/>
	<path id="XMLID_1014_" style="fill:#F6838D;" d="M117.186,221.213c29.278-29.278,76.746-29.278,106.024,0l0,0
		c29.278,29.278,76.746,29.278,106.024,0l0.001-0.001c1.889,8.69,2.855,17.597,2.855,26.575v0
		c0,61.328-49.716,111.045-111.045,111.045l0,0l0,0C159.716,358.832,110,309.115,110,247.787v0c0-7.795,0.728-15.537,2.156-23.13"/>
	<path id="XMLID_3149_" style="fill:#DFF6FC;" d="M201.071,358.679v106.08l-57.994,24.266c-6.8,2.845-4.766,12.974,2.605,12.974
		h150.726c7.373,0,9.405-10.134,2.601-12.976l-57.938-24.203V358.984"/>
	<g id="XMLID_639_">
		<path id="XMLID_642_" d="M412,90c0-49.626-40.374-90-90-90c-46.246,0-84.451,35.063-89.441,80H199.84l-6.385-47.337
			c-0.669-4.961-4.904-8.663-9.91-8.663h-60.5c-5.522,0-10,4.477-10,10s4.478,10,10,10h51.759l4.856,36h-14.655
			c-4.83,0-8.97,3.453-9.838,8.205c-5.683,31.132-17.159,60.453-34.111,87.147C107.281,197.043,100,222.091,100,247.787
			c0,6.627,0.541,13.279,1.608,19.771c0.895,5.449,6.032,9.143,11.489,8.246c5.449-0.896,9.142-6.04,8.245-11.49
			c-0.891-5.422-1.343-10.983-1.343-16.527c0-5.886,0.463-11.73,1.347-17.491c1.053-0.482,2.043-1.145,2.911-2.012
			c12.271-12.271,28.586-19.029,45.94-19.029c9.749,0,19.17,2.134,27.73,6.178l13.206,97.904c0.677,5.02,4.969,8.665,9.897,8.664
			c0.445,0,0.896-0.03,1.35-0.091c5.474-0.738,9.312-5.774,8.573-11.247l-10.583-78.453c15.949,13.933,35.893,20.922,55.849,20.922
			c15.873,0,31.737-4.429,45.594-13.245c0.18,2.623,0.275,5.257,0.275,7.9c0,55.716-45.328,101.045-101.045,101.045
			c-20.147,0-39.599-5.91-56.251-17.091c-4.585-3.079-10.797-1.858-13.876,2.728c-3.079,4.585-1.857,10.798,2.728,13.876
			c11.52,7.735,24.159,13.352,37.425,16.73v93.028l-51.854,21.697c-7.452,3.118-11.546,10.828-9.956,18.748
			c1.591,7.92,8.343,13.451,16.421,13.451h150.727c8.081,0,14.833-5.534,16.422-13.457c1.588-7.923-2.511-15.632-9.967-18.746
			l-51.793-21.636v-93.101c52.268-13.389,91.02-60.891,91.02-117.274c0-23.89-6.302-47.216-18.257-67.81
			C372.616,178.997,412,139.013,412,90z M237.216,474.048L280.188,492H161.876l43.055-18.015c3.719-1.556,6.14-5.193,6.14-9.225
			v-96.348c3.305,0.27,6.631,0.42,9.975,0.42c3.376,0,6.718-0.146,10.025-0.418v96.408
			C231.07,468.855,233.494,472.494,237.216,474.048z M265.959,48.101L297.858,80h-20.773h-24.359
			C254.427,68.159,259.092,57.263,265.959,48.101z M391.274,80h-45.132l31.899-31.899C384.908,57.263,389.573,68.159,391.274,80z
			 M332,65.857V20.726c11.841,1.702,22.737,6.366,31.899,13.233L332,65.857z M312,65.857l-31.899-31.898
			c9.161-6.867,20.058-11.531,31.899-13.233V65.857z M312,100v59.271c-0.12-0.017-0.241-0.03-0.361-0.047
			c-9.976-18.703-17.435-38.526-22.263-59.224H312z M332,114.142l31.899,31.899c-9.161,6.867-20.058,11.532-31.899,13.233V114.142z
			 M346.143,100h45.132c-1.702,11.841-6.366,22.737-13.233,31.898L346.143,100z M130.922,198.875
			c2.063-4.391,4.393-8.671,7.016-12.802c16.844-26.523,28.69-55.442,35.274-86.073h9.145l12.538,92.947
			C173.822,186.582,150.751,188.555,130.922,198.875z M276.222,233.171c-17.354,0-33.67-6.758-45.94-19.03
			c-4.298-4.298-8.952-8.026-13.858-11.208L202.538,100h43.267h23.071c6.583,30.629,18.431,59.548,35.274,86.073
			c6.279,9.888,10.957,20.599,13.966,31.77C306.411,227.756,291.736,233.171,276.222,233.171z"/>
		<path id="XMLID_652_" d="M137.75,307.891c0-2.63-1.07-5.21-2.931-7.07c-1.859-1.86-4.439-2.93-7.069-2.93
			c-2.641,0-5.21,1.07-7.07,2.93c-1.87,1.86-2.93,4.44-2.93,7.07s1.06,5.21,2.93,7.07c1.86,1.86,4.43,2.93,7.07,2.93
			c2.63,0,5.2-1.07,7.069-2.93C136.68,313.101,137.75,310.521,137.75,307.891z"/>
	</g>
</g>
<g>
</g>
<g>
</g>
<g>
</g>
<g>
</g>
<g>
</g>
<g>
</g>
<g>
</g>
<g>
</g>
<g>
</g>
<g>
</g>
<g>
</g>
<g>
</g>
<g>
</g>
<g>
</g>
<g>
</g>
</svg>
