<?xml version="1.0" encoding="iso-8859-1"?>
<!-- Generator: Adobe Illustrator 22.0.0, SVG Export Plug-In . SVG Version: 6.00 Build 0)  -->
<svg version="1.1" id="Capa_1" xmlns="http://www.w3.org/2000/svg" xmlns:xlink="http://www.w3.org/1999/xlink" x="0px" y="0px"
	 viewBox="0 0 512 512" style="enable-background:new 0 0 512 512;" xml:space="preserve">
<g id="XMLID_1174_">
	<rect id="XMLID_1255_" x="30" y="10" style="fill:#FFD89E;" width="288" height="452"/>
	<rect id="XMLID_1256_" x="10" y="462" style="fill:#FFCB7C;" width="328" height="40"/>
	<circle id="XMLID_1254_" style="fill:#91DEF5;" cx="430" cy="124" r="72"/>
	<rect id="XMLID_1311_" x="114" y="294" style="fill:#91DEF5;" width="120" height="168"/>
	<rect id="XMLID_1646_" x="174" y="294" style="fill:#DFF6FC;" width="60" height="168"/>
	<rect id="XMLID_1637_" x="70" y="64" style="fill:#91DEF5;" width="44" height="64"/>
	<rect id="XMLID_1636_" x="152" y="64" style="fill:#FFFFFF;" width="44" height="64"/>
	<rect id="XMLID_1635_" x="234" y="64" style="fill:#91DEF5;" width="44" height="64"/>
	<rect id="XMLID_1634_" x="70" y="184" style="fill:#FFFFFF;" width="44" height="64"/>
	<rect id="XMLID_1633_" x="152" y="184" style="fill:#91DEF5;" width="44" height="64"/>
	<rect id="XMLID_1632_" x="234" y="184" style="fill:#FFFFFF;" width="44" height="64"/>
	<g id="XMLID_477_">
		<path id="XMLID_478_" d="M450,86c-5.522,0-10,4.477-10,10v18h-20V96c0-5.523-4.478-10-10-10s-10,4.477-10,10v56
			c0,5.523,4.478,10,10,10s10-4.477,10-10v-18h20v18c0,5.523,4.478,10,10,10s10-4.477,10-10V96C460,90.477,455.522,86,450,86z"/>
		<path id="XMLID_865_" d="M430,42c-29.873,0-56.057,16.063-70.393,40H328V10c0-5.523-4.478-10-10-10H30c-5.522,0-10,4.477-10,10
			v442H10c-5.522,0-10,4.477-10,10v40c0,5.523,4.478,10,10,10h328c5.522,0,10-4.477,10-10v-40c0-5.523-4.478-10-10-10h-10v-65
			c0-5.523-4.478-10-10-10s-10,4.477-10,10v65h-64v-81.414c0-0.003,0-0.007,0-0.01V294c0-5.523-4.478-10-10-10H114
			c-5.522,0-10,4.477-10,10v158H40V20h268v72v64v141c0,5.523,4.478,10,10,10s10-4.477,10-10V166h31.607
			c14.336,23.937,40.52,40,70.393,40c45.215,0,82-36.785,82-82S475.215,42,430,42z M184,434.723l40-40V452h-40V434.723z
			 M224,366.438l-40,40V304h40V366.438z M164,304v28.392l-40,40V304H164z M124,400.677l40-40V452h-40V400.677z M114,472h120h84h10
			v20H20v-20h10H114z M328,146v-44h23.022c-1.955,7.006-3.022,14.379-3.022,22s1.067,14.994,3.022,22H328z M430,186
			c-34.187,0-62-27.813-62-62s27.813-62,62-62s62,27.813,62,62S464.187,186,430,186z"/>
		<path id="XMLID_1106_" d="M124,64c0-5.523-4.478-10-10-10H70c-5.522,0-10,4.477-10,10v64c0,5.523,4.478,10,10,10h44
			c5.522,0,10-4.477,10-10V64z M104,118H80V74h24V118z"/>
		<path id="XMLID_1117_" d="M206,64c0-5.523-4.478-10-10-10h-44c-5.522,0-10,4.477-10,10v64c0,5.523,4.478,10,10,10h44
			c5.522,0,10-4.477,10-10V64z M186,118h-24V74h24V118z"/>
		<path id="XMLID_1121_" d="M288,64c0-5.523-4.478-10-10-10h-44c-5.522,0-10,4.477-10,10v64c0,5.523,4.478,10,10,10h44
			c5.522,0,10-4.477,10-10V64z M268,118h-24V74h24V118z"/>
		<path id="XMLID_1146_" d="M114,174H70c-5.522,0-10,4.477-10,10v64c0,5.523,4.478,10,10,10h44c5.522,0,10-4.477,10-10v-64
			C124,178.477,119.522,174,114,174z M104,238H80v-44h24V238z"/>
		<path id="XMLID_1149_" d="M196,174h-44c-5.522,0-10,4.477-10,10v64c0,5.523,4.478,10,10,10h44c5.522,0,10-4.477,10-10v-64
			C206,178.477,201.522,174,196,174z M186,238h-24v-44h24V238z"/>
		<path id="XMLID_1153_" d="M278,174h-44c-5.522,0-10,4.477-10,10v64c0,5.523,4.478,10,10,10h44c5.522,0,10-4.477,10-10v-64
			C288,178.477,283.522,174,278,174z M268,238h-24v-44h24V238z"/>
		<path id="XMLID_1154_" d="M318,332c-2.63,0-5.21,1.07-7.07,2.93c-1.86,1.86-2.93,4.44-2.93,7.07c0,2.63,1.069,5.21,2.93,7.07
			S315.37,352,318,352s5.21-1.07,7.069-2.93c1.86-1.86,2.931-4.44,2.931-7.07c0-2.63-1.07-5.21-2.931-7.07
			C323.21,333.07,320.63,332,318,332z"/>
	</g>
</g>
<g>
</g>
<g>
</g>
<g>
</g>
<g>
</g>
<g>
</g>
<g>
</g>
<g>
</g>
<g>
</g>
<g>
</g>
<g>
</g>
<g>
</g>
<g>
</g>
<g>
</g>
<g>
</g>
<g>
</g>
</svg>
