<?xml version="1.0" encoding="iso-8859-1"?>
<!-- Generator: Adobe Illustrator 22.0.0, SVG Export Plug-In . SVG Version: 6.00 Build 0)  -->
<svg version="1.1" id="Capa_1" xmlns="http://www.w3.org/2000/svg" xmlns:xlink="http://www.w3.org/1999/xlink" x="0px" y="0px"
	 viewBox="0 0 512 512" style="enable-background:new 0 0 512 512;" xml:space="preserve">
<g id="XMLID_331_">
	<path id="XMLID_1400_" style="fill:#FFE6C0;" d="M223.886,62.012c0,18.102,15.03,32.693,33.292,31.975
		c16.28-0.641,29.641-13.682,30.645-29.943c0.522-8.446-2.237-16.24-7.121-22.233h0.002L256,10l-24.814,31.644l0.019,0
		C226.633,47.178,223.886,54.274,223.886,62.012z"/>
	<path id="XMLID_1393_" style="fill:#FFD89E;" d="M185.124,62.012c0,18.102-15.03,32.693-33.292,31.975
		c-16.28-0.641-29.641-13.682-30.645-29.943c-0.522-8.446,2.237-16.24,7.121-22.233h-0.002L153.01,10l24.814,31.644l-0.019,0
		C182.377,47.178,185.124,54.274,185.124,62.012z"/>
	<path id="XMLID_1392_" style="fill:#FFE6C0;" d="M82.362,62.012c0,18.102-15.03,32.693-33.292,31.975
		c-16.28-0.641-29.641-13.682-30.645-29.943c-0.522-8.446,2.237-16.24,7.121-22.233h-0.002L50.248,10l24.814,31.644l-0.019,0
		C79.615,47.178,82.362,54.274,82.362,62.012z"/>
	<path id="XMLID_1080_" style="fill:#FFD89E;" d="M326.875,62.012c0,18.102,15.03,32.693,33.292,31.975
		c16.28-0.641,29.641-13.682,30.645-29.943c0.522-8.446-2.237-16.24-7.121-22.233h0.002L358.989,10l-24.814,31.644l0.019,0
		C329.622,47.178,326.875,54.274,326.875,62.012z"/>
	<path id="XMLID_510_" style="fill:#FFE6C0;" d="M429.637,62.012c0,18.102,15.03,32.693,33.292,31.975
		c16.28-0.641,29.641-13.682,30.645-29.943c0.522-8.446-2.237-16.24-7.121-22.233h0.002L461.751,10l-24.814,31.644l0.019,0
		C432.384,47.178,429.637,54.274,429.637,62.012z"/>
	<polygon id="XMLID_904_" style="fill:#FF9D6C;" points="399.553,502 361.886,452 256.886,452 254.886,452 149.886,452 112.219,502 
			"/>
	<polygon id="XMLID_1067_" style="fill:#FFCAB0;" points="348.219,452 327.326,408 255.886,408 184.446,408 163.553,452 	"/>
	<rect id="XMLID_2123_" x="232.219" y="352" style="fill:#FFCAB0;" width="48" height="56"/>
	<rect id="XMLID_2122_" x="236.219" y="94.012" style="fill:#FFCB7C;" width="40" height="257.987"/>
	<g id="XMLID_2127_">
		<path id="XMLID_2128_" style="fill:#FFD89E;" d="M274.386,306.012h-37c-114.599,0-207.5-92.901-207.5-207.5v0h40v0
			c0,92.508,74.992,167.5,167.5,167.5h37c92.508,0,167.5-74.992,167.5-167.5v-4.5h40v4.5
			C481.886,213.112,388.985,306.012,274.386,306.012z"/>
	</g>
	<path id="XMLID_2131_" style="fill:#FFD89E;" d="M338.886,94.012v10.218c0,45.767-37.233,83-83,83s-83-37.233-83-83v-7.814h-40
		v7.814c0,67.822,55.178,123,123,123s123-55.178,123-123V94.012H338.886z"/>
	<g id="XMLID_900_">
		<path id="XMLID_975_" d="M494.36,35.684c-0.002-0.002-0.004-0.004-0.006-0.007L469.649,3.866
			c-1.889-2.433-4.794-3.859-7.874-3.866c-0.008,0-0.016,0-0.023,0c-3.071,0-5.974,1.412-7.869,3.829l-24.814,31.644
			c-0.075,0.096-0.147,0.192-0.219,0.291c-5.944,7.422-9.212,16.718-9.212,26.249c0,11.336,4.434,21.914,12.483,29.864
			c-0.15,0.689-0.234,1.402-0.234,2.136v4.5c0,82.865-64.327,150.986-145.667,157.056v-21.832
			c58.77-13.762,102.667-66.603,102.667-129.507V94.012c0-0.855-0.119-1.68-0.32-2.472c7.003-7.033,11.585-16.48,12.229-26.881
			c0.651-10.563-2.639-20.88-9.269-29.068L366.887,3.866c-1.89-2.433-4.795-3.859-7.875-3.866c-0.008,0-0.016,0-0.023,0
			c-3.071,0-5.974,1.412-7.869,3.83l-24.813,31.644c-0.075,0.095-0.148,0.192-0.219,0.29c-5.945,7.422-9.212,16.718-9.212,26.249
			c0,11.247,4.366,21.745,12.294,29.673c-0.178,0.748-0.283,1.524-0.283,2.327v10.218c0,29.432-17.519,54.834-42.667,66.373V94.012
			c0-0.949-0.141-1.863-0.387-2.732c6.858-7.005,11.338-16.347,11.973-26.62c0.651-10.563-2.639-20.88-9.269-29.068L263.898,3.866
			c-1.89-2.433-4.795-3.859-7.875-3.866c-0.008,0-0.016,0-0.023,0c-3.071,0-5.974,1.412-7.869,3.83l-24.813,31.644
			c-0.075,0.095-0.148,0.192-0.219,0.29c-5.945,7.422-9.212,16.718-9.212,26.249c0,11.368,4.458,21.974,12.55,29.932
			c-0.14,0.668-0.217,1.359-0.217,2.068v76.893c-25.505-11.394-43.333-36.983-43.333-66.675v-7.814c0-1.411-0.296-2.753-0.823-3.97
			c0.055-0.052,0.112-0.101,0.167-0.153c8.315-7.994,12.895-18.748,12.895-30.28c0-9.531-3.267-18.826-9.212-26.249
			c-0.07-0.098-0.144-0.195-0.219-0.291L160.879,3.829C158.983,1.412,156.081,0,153.01,0c-0.008,0-0.016,0-0.023,0
			c-3.08,0.007-5.985,1.434-7.875,3.866l-24.705,31.811c-0.002,0.003-0.004,0.005-0.006,0.008
			c-6.582,8.171-9.846,18.452-9.195,28.975c0.658,10.638,5.432,20.284,12.707,27.363c-0.651,1.327-1.026,2.814-1.026,4.392v7.814
			c0,63.142,44.229,116.144,103.333,129.661v21.721c-81.654-5.748-146.333-74.008-146.333-157.099c0-1.866-0.531-3.672-1.493-5.235
			c0.361-0.324,0.722-0.647,1.074-0.985c8.315-7.994,12.895-18.748,12.895-30.28c0-9.53-3.267-18.826-9.211-26.249
			c-0.071-0.098-0.145-0.194-0.22-0.29L58.117,3.83C56.222,1.412,53.32,0,50.248,0c-0.008,0-0.016,0-0.023,0
			c-3.08,0.007-5.985,1.434-7.875,3.867L17.714,35.591c-6.632,8.187-9.923,18.504-9.271,29.069
			c0.677,10.952,5.722,20.846,13.363,27.977c-1.203,1.651-1.92,3.677-1.92,5.875c0,58.096,22.624,112.715,63.704,153.795
			c38.437,38.437,88.728,60.713,142.629,63.421v28.284c-2.425,1.825-4,4.718-4,7.986v46h-37.773c-3.861,0-7.377,2.223-9.033,5.71
			L157.231,442h-7.345c-3.14,0-6.098,1.475-7.987,3.983l-37.667,50c-2.281,3.028-2.653,7.086-0.962,10.479
			c1.692,3.393,5.157,5.538,8.949,5.538h98.834c5.522,0,10-4.477,10-10s-4.478-10-10-10h-78.78l22.6-30h8.629
			c0.015,0,0.03,0.002,0.045,0.002c0.012,0,0.023-0.002,0.035-0.002h184.61c0.011,0,0.023,0.002,0.035,0.002
			c0.015,0,0.03-0.002,0.045-0.002h8.629l22.6,30h-78.446c-5.522,0-10,4.477-10,10s4.478,10,10,10h98.5
			c3.792,0,7.257-2.145,8.949-5.538c1.691-3.393,1.319-7.451-0.962-10.479l-37.667-50c-1.89-2.508-4.848-3.983-7.987-3.983h-7.345
			l-18.181-38.29c-1.656-3.488-5.172-5.71-9.033-5.71h-37.107v-46c0-3.268-1.575-6.162-4-7.986v-28.325
			c53.649-2.857,103.685-25.102,141.963-63.38c41.08-41.08,63.704-95.699,63.704-153.795v-4.5c0-0.924-0.135-1.815-0.37-2.664
			c6.896-7.013,11.403-16.382,12.04-26.688C504.205,54.135,500.941,43.855,494.36,35.684z M444.665,48.013
			c0.17-0.206,0.33-0.416,0.481-0.632l16.566-21.126l16.711,21.518c0.09,0.121,0.183,0.24,0.278,0.357
			c3.498,4.292,5.235,9.725,4.891,15.297c-0.686,11.096-9.935,20.13-21.058,20.568c-6.058,0.245-11.79-1.935-16.143-6.12
			c-4.356-4.188-6.756-9.822-6.756-15.862C439.637,56.835,441.375,51.995,444.665,48.013z M341.904,48.013
			c0.17-0.206,0.33-0.417,0.481-0.633l16.565-21.125l16.843,21.689c0.048,0.062,0.097,0.124,0.146,0.184
			c3.499,4.293,5.236,9.726,4.892,15.298c-0.686,11.096-9.935,20.13-21.058,20.568c-6.032,0.233-11.789-1.935-16.143-6.12
			c-4.356-4.188-6.756-9.822-6.756-15.862C336.875,56.835,338.614,51.995,341.904,48.013z M238.914,48.013
			c0.17-0.206,0.33-0.417,0.481-0.633l16.565-21.125l16.843,21.689c0.048,0.062,0.097,0.124,0.146,0.184
			c3.499,4.293,5.236,9.726,4.892,15.298c-0.686,11.096-9.935,20.13-21.058,20.568c-6.033,0.233-11.789-1.935-16.143-6.12
			c-4.356-4.188-6.756-9.822-6.756-15.862C233.886,56.835,235.624,51.995,238.914,48.013z M246.219,104.012h9.621
			c0.007,0,0.014,0,0.021,0c0.008,0,0.017,0,0.025,0h10.333v72.473c-3.378,0.481-6.824,0.745-10.333,0.745
			c-3.279,0-6.501-0.239-9.667-0.66V104.012z M136.059,48.129c0.096-0.118,0.188-0.237,0.278-0.358l16.711-21.517l16.565,21.125
			c0.151,0.216,0.313,0.428,0.482,0.634c3.29,3.982,5.028,8.823,5.028,14c0,6.041-2.399,11.674-6.756,15.862
			c-4.353,4.185-10.103,6.364-16.143,6.12c-11.123-0.438-20.372-9.472-21.059-20.568C130.824,57.854,132.56,52.422,136.059,48.129z
			 M142.907,106.416h20.005c1.163,50.277,42.424,90.814,92.975,90.814c51.28,0,93-41.72,93-93v-0.218h9.943c0.007,0,0.014,0,0.021,0
			c0.008,0,0.017,0,0.025,0h10.011v0.218c0,62.309-50.691,113-113,113C194.308,217.23,144.076,167.719,142.907,106.416z
			 M266.219,237.23v18.782h-20V237.23H266.219z M33.296,48.127c0.049-0.06,0.098-0.121,0.145-0.182l16.846-21.69l16.564,21.124
			c0.151,0.217,0.313,0.428,0.482,0.634c3.29,3.982,5.028,8.823,5.028,14c0,6.041-2.399,11.674-6.756,15.862
			c-4.353,4.185-10.1,6.357-16.143,6.12c-11.123-0.438-20.372-9.472-21.058-20.567C28.061,57.855,29.798,52.421,33.296,48.127z
			 M246.219,316.012h20V342h-20V316.012z M332.401,442h-153.03l11.396-24h41.452h23.667h24.333h40.786L332.401,442z M255.886,398
			h-13.667v-36h28v36H255.886z M274.386,296.012h-37c-105.552,0-192.029-83.221-197.25-187.5l20.028,0
			c5.205,93.238,82.705,167.5,177.222,167.5h37c96.034,0,174.5-76.661,177.416-172h9.789c0.007,0,0.014,0,0.021,0
			c0.008,0,0.017,0,0.025,0h10.174C468.885,210.378,381.447,296.012,274.386,296.012z"/>
		<path id="XMLID_1040_" d="M256.056,491.831c-2.64,0-5.21,1.07-7.07,2.93c-1.87,1.86-2.93,4.44-2.93,7.07s1.06,5.21,2.93,7.07
			c1.86,1.86,4.431,2.93,7.07,2.93c2.63,0,5.2-1.07,7.07-2.93c1.859-1.86,2.93-4.44,2.93-7.07s-1.07-5.21-2.93-7.07
			C261.256,492.901,258.686,491.831,256.056,491.831z"/>
	</g>
</g>
<g>
</g>
<g>
</g>
<g>
</g>
<g>
</g>
<g>
</g>
<g>
</g>
<g>
</g>
<g>
</g>
<g>
</g>
<g>
</g>
<g>
</g>
<g>
</g>
<g>
</g>
<g>
</g>
<g>
</g>
</svg>
