<?xml version="1.0" encoding="iso-8859-1"?>
<!-- Generator: Adobe Illustrator 22.0.0, SVG Export Plug-In . SVG Version: 6.00 Build 0)  -->
<svg version="1.1" id="Capa_1" xmlns="http://www.w3.org/2000/svg" xmlns:xlink="http://www.w3.org/1999/xlink" x="0px" y="0px"
	 viewBox="0 0 512 512" style="enable-background:new 0 0 512 512;" xml:space="preserve">
<g id="XMLID_841_">
	<g id="XMLID_860_">
		<path id="XMLID_1567_" style="fill:#91DEF5;" d="M284.888,109.308L284.888,109.308c0-33.872-27.459-61.331-61.331-61.331H205
			v61.331H284.888z"/>
		<circle id="XMLID_1118_" style="fill:#E1E3E9;" cx="462" cy="77.19" r="40"/>
		<g id="XMLID_866_">
			<ellipse id="XMLID_1518_" style="fill:#CFF1FB;" cx="249.599" cy="227.787" rx="160.401" ry="122.234"/>
			<path id="XMLID_1618_" style="fill:#91DEF5;" d="M287.766,227.787c0,39.813,17.748,75.477,45.76,99.524
				c36.998-21.673,64.876-57.229,76.474-99.524c-11.598-42.295-39.477-77.851-76.474-99.524
				C305.514,152.31,287.766,187.974,287.766,227.787z"/>
			<path id="XMLID_867_" style="fill:#91DEF5;" d="M92.857,206.858C75.133,179.447,44.647,161.34,10,161.29
				c6.886,19.735,12.403,42.159,16.208,66.497c-3.805,24.339-9.322,46.762-16.208,66.497c34.308-0.05,64.535-17.804,82.332-44.764
				L92.857,206.858z"/>
		</g>
	</g>
	<g id="XMLID_484_">
		<path id="XMLID_809_" d="M462,27.19c-27.57,0-50,22.43-50,50s22.43,50,50,50s50-22.43,50-50S489.57,27.19,462,27.19z M462,107.19
			c-16.542,0-30-13.458-30-30s13.458-30,30-30s30,13.458,30,30S478.542,107.19,462,107.19z"/>
		<path id="XMLID_812_" d="M462,197.19c-5.522,0-10,4.477-10,10V394.81c0,38.598-31.402,70-70,70
			c-33.799,0-62.08-24.078-68.59-55.982l23.794,9.762c5.109,2.096,10.951-0.346,13.048-5.457c2.096-5.109-0.347-10.951-5.456-13.047
			l-39-16c-3.086-1.267-6.599-0.91-9.365,0.946c-2.77,1.857-4.431,4.971-4.431,8.305v1.472c0,49.626,40.374,90,90,90
			s90-40.374,90-90V207.19C472,201.667,467.522,197.19,462,197.19z"/>
		<path id="XMLID_816_" d="M348.97,217.78c-2.64,0-5.22,1.07-7.08,2.93c-1.86,1.87-2.92,4.44-2.92,7.08c0,2.63,1.06,5.2,2.92,7.07
			c1.86,1.86,4.44,2.92,7.08,2.92c2.63,0,5.2-1.06,7.07-2.92c1.859-1.87,2.92-4.44,2.92-7.07c0-2.64-1.061-5.22-2.92-7.08
			C354.17,218.85,351.599,217.78,348.97,217.78z"/>
		<path id="XMLID_1025_" d="M419.643,230.432c0.476-1.731,0.476-3.558,0-5.289c-16.856-61.469-65.518-107.995-125.207-123.764
			c-3.958-35.613-34.229-63.402-70.879-63.402H205c-5.522,0-10,4.477-10,10v56.284c-43.609,14.268-80.43,45.195-101.821,86.201
			c-20.612-24.696-50.826-39.125-83.164-39.173c-0.005,0-0.01,0-0.015,0c-3.236,0-6.272,1.566-8.148,4.204
			c-1.879,2.642-2.361,6.03-1.293,9.091c6.642,19.037,11.862,40.292,15.524,63.203C12.421,250.698,7.2,271.954,0.558,290.99
			c-1.068,3.061-0.586,6.449,1.293,9.091c1.876,2.638,4.912,4.204,8.148,4.204c0.005,0,0.01,0,0.015,0
			c32.273-0.047,62.537-14.499,83.157-39.185c29.881,57.291,89.878,94.922,156.428,94.922
			C328.796,360.022,398.721,306.733,419.643,230.432z M215,57.977h8.558c24.126,0,44.406,16.736,49.871,39.206
			c-7.82-1.07-15.775-1.63-23.829-1.63c-11.783,0-23.358,1.189-34.6,3.448V57.977z M24.11,283.122
			c4.982-16.707,8.999-34.734,11.977-53.791c0.16-1.023,0.16-2.065,0-3.088c-2.979-19.058-6.995-37.087-11.978-53.795
			c24.187,3.964,45.848,17.926,59.807,39.023c-1.628,4.468-3.087,9.027-4.361,13.673c-0.476,1.731-0.476,3.558,0,5.289
			c1.274,4.648,2.734,9.209,4.363,13.679C69.968,265.185,48.267,279.15,24.11,283.122z M99.594,227.788
			c19.419-66.226,80.707-112.235,150.006-112.235c23.612,0,46.291,5.346,66.704,15.008c-49.748,55.066-49.746,139.386,0.004,194.451
			c-20.414,9.664-43.094,15.01-66.708,15.01C180.301,340.022,119.013,294.013,99.594,227.788z M334.326,314.981
			c-47.109-48.456-47.111-125.933-0.003-174.39c30.804,19.891,54.5,50.424,65.283,87.196
			C388.823,264.558,365.128,295.09,334.326,314.981z"/>
		<path id="XMLID_1055_" d="M462,67.19c-2.63,0-5.21,1.07-7.07,2.93c-1.86,1.86-2.93,4.44-2.93,7.07s1.069,5.21,2.93,7.07
			s4.44,2.93,7.07,2.93s5.21-1.07,7.069-2.93c1.86-1.86,2.931-4.44,2.931-7.07s-1.07-5.21-2.931-7.07
			C467.21,68.26,464.63,67.19,462,67.19z"/>
		<path id="XMLID_1058_" d="M251.484,205.972c-3.906-3.905-10.238-3.905-14.143,0c-12.028,12.029-12.028,31.601,0,43.629
			c1.953,1.953,4.512,2.929,7.071,2.929c2.559,0,5.118-0.977,7.071-2.929c3.905-3.905,3.905-10.237,0-14.142
			c-4.23-4.231-4.23-11.115,0-15.346C255.39,216.209,255.39,209.877,251.484,205.972z"/>
		<path id="XMLID_1060_" d="M212.071,159.441c-3.906-3.905-10.236-3.905-14.143,0c-12.028,12.029-12.028,31.601,0,43.63
			C199.882,205.024,202.44,206,205,206s5.118-0.976,7.071-2.929c3.905-3.905,3.905-10.237,0-14.143
			c-2.05-2.049-3.178-4.774-3.178-7.672s1.128-5.623,3.178-7.672C215.976,169.679,215.976,163.347,212.071,159.441z"/>
		<path id="XMLID_1061_" d="M212.071,252.497c-3.906-3.905-10.236-3.905-14.143,0c-12.028,12.028-12.028,31.601,0,43.629
			c1.953,1.953,4.512,2.929,7.071,2.929c2.559,0,5.118-0.977,7.071-2.929c3.905-3.905,3.905-10.237,0-14.142
			c-4.23-4.231-4.23-11.115,0-15.345C215.976,262.735,215.976,256.403,212.071,252.497z"/>
		<path id="XMLID_1080_" d="M462,152.19c-2.641,0-5.21,1.07-7.07,2.93c-1.86,1.86-2.93,4.43-2.93,7.07c0,2.64,1.069,5.21,2.93,7.07
			s4.43,2.93,7.07,2.93c2.64,0,5.21-1.07,7.069-2.93c1.86-1.86,2.931-4.44,2.931-7.07s-1.07-5.21-2.931-7.07
			C467.21,153.26,464.64,152.19,462,152.19z"/>
	</g>
</g>
<g>
</g>
<g>
</g>
<g>
</g>
<g>
</g>
<g>
</g>
<g>
</g>
<g>
</g>
<g>
</g>
<g>
</g>
<g>
</g>
<g>
</g>
<g>
</g>
<g>
</g>
<g>
</g>
<g>
</g>
</svg>
