<?xml version="1.0" encoding="iso-8859-1"?>
<!-- Generator: Adobe Illustrator 22.0.0, SVG Export Plug-In . SVG Version: 6.00 Build 0)  -->
<svg version="1.1" id="Capa_1" xmlns="http://www.w3.org/2000/svg" xmlns:xlink="http://www.w3.org/1999/xlink" x="0px" y="0px"
	 viewBox="0 0 512 512" style="enable-background:new 0 0 512 512;" xml:space="preserve">
<g id="XMLID_1636_">
	<path id="XMLID_1984_" style="fill:#F5737F;" d="M336.5,442H60c-5.523,0-10-4.477-10-10V20c0-5.523,4.477-10,10-10h276.5
		c29.547,0,53.5,23.953,53.5,53.5v325C390,418.047,366.047,442,336.5,442z"/>
	<path id="XMLID_1578_" style="fill:#8690A6;" d="M408.5,502H132c-5.523,0-10-4.477-10-10V80c0-5.523,4.477-10,10-10h276.5
		c29.547,0,53.5,23.953,53.5,53.5v325C462,478.047,438.047,502,408.5,502z"/>
	<circle id="XMLID_1581_" style="fill:#B0E7F8;" cx="292" cy="286" r="86.745"/>
	<ellipse id="XMLID_1531_" style="fill:#DFF6FC;" cx="292" cy="286" rx="31" ry="86.745"/>
	<g id="XMLID_657_">
		<path id="XMLID_869_" d="M408.5,60h-8.601C398.076,26.608,370.339,0,336.5,0H60C48.972,0,40,8.972,40,20v412
			c0,11.028,8.972,20,20,20h52v40c0,11.028,8.972,20,20,20h276.5c35.014,0,63.5-28.486,63.5-63.5V331c0-5.523-4.478-10-10-10
			s-10,4.477-10,10v117.5c0,23.986-19.514,43.5-43.5,43.5H132V80h276.5c23.986,0,43.5,19.514,43.5,43.5V241c0,5.523,4.478,10,10,10
			s10-4.477,10-10V123.5C472,88.486,443.514,60,408.5,60z M112,80v352H60V20h276.5c22.807,0,41.557,17.646,43.347,40H132
			C120.972,60,112,68.972,112,80z"/>
		<path id="XMLID_889_" d="M292,189.254c-53.346,0-96.745,43.4-96.745,96.746c0,53.345,43.399,96.745,96.745,96.745
			s96.745-43.4,96.745-96.745C388.745,232.654,345.346,189.254,292,189.254z M368.072,276h-35.274
			c-0.809-20.542-4.092-39.682-9.461-54.704c-0.82-2.294-1.666-4.422-2.532-6.412C345.923,225.096,364.44,248.233,368.072,276z
			 M292,362.745c-1.891,0-7.435-4.589-12.504-18.772c-4.64-12.986-7.507-29.749-8.278-47.973h41.563
			c-0.771,18.224-3.638,34.987-8.278,47.973C299.435,358.156,293.891,362.745,292,362.745z M271.218,276
			c0.771-18.224,3.638-34.987,8.278-47.973c5.069-14.184,10.613-18.772,12.504-18.772s7.435,4.589,12.504,18.772
			c4.64,12.986,7.507,29.749,8.278,47.973H271.218z M263.195,214.885c-0.866,1.99-1.712,4.117-2.532,6.412
			c-5.369,15.022-8.652,34.161-9.461,54.704h-35.274C219.56,248.233,238.077,225.096,263.195,214.885z M215.928,296h35.274
			c0.809,20.542,4.092,39.681,9.461,54.703c0.82,2.294,1.666,4.422,2.532,6.412C238.077,346.903,219.56,323.767,215.928,296z
			 M320.805,357.115c0.866-1.99,1.712-4.117,2.532-6.412c5.369-15.022,8.652-34.161,9.461-54.703h35.274
			C364.44,323.767,345.923,346.903,320.805,357.115z"/>
		<path id="XMLID_897_" d="M206.096,410.745c-5.522,0-10,4.477-10,10s4.478,10,10,10h171.809c5.522,0,10-4.477,10-10
			s-4.478-10-10-10H206.096z"/>
		<path id="XMLID_912_" d="M334.333,161.254c5.522,0,10-4.477,10-10s-4.478-10-10-10h-84.666c-5.522,0-10,4.477-10,10
			s4.478,10,10,10H334.333z"/>
		<path id="XMLID_963_" d="M462,276.001c-2.641,0-5.21,1.07-7.07,2.93c-1.86,1.86-2.93,4.43-2.93,7.07c0,2.63,1.069,5.21,2.93,7.07
			c1.86,1.86,4.43,2.93,7.07,2.93c2.64,0,5.21-1.07,7.069-2.93c1.86-1.86,2.931-4.44,2.931-7.07s-1.07-5.21-2.931-7.07
			C467.21,277.071,464.64,276.001,462,276.001z"/>
	</g>
</g>
<g>
</g>
<g>
</g>
<g>
</g>
<g>
</g>
<g>
</g>
<g>
</g>
<g>
</g>
<g>
</g>
<g>
</g>
<g>
</g>
<g>
</g>
<g>
</g>
<g>
</g>
<g>
</g>
<g>
</g>
</svg>
