<?xml version="1.0" encoding="iso-8859-1"?>
<!-- Generator: Adobe Illustrator 22.0.0, SVG Export Plug-In . SVG Version: 6.00 Build 0)  -->
<svg version="1.1" id="Capa_1" xmlns="http://www.w3.org/2000/svg" xmlns:xlink="http://www.w3.org/1999/xlink" x="0px" y="0px"
	 viewBox="0 0 512.02 512.02" style="enable-background:new 0 0 512.02 512.02;" xml:space="preserve">
<g id="XMLID_880_">
	<g id="XMLID_1365_">
		<path id="XMLID_879_" style="fill:#FFFFFF;" d="M444.001,436.015h-376c-26.51,0-48-21.49-48-48v0h472v0
			C492.001,414.525,470.511,436.015,444.001,436.015z"/>
		<g id="XMLID_1553_">
			<path id="XMLID_1963_" style="fill:#E1E3E9;" d="M409.169,170.741l48.278-27.873c6.593,11.42,21.197,15.333,32.617,8.74
				c11.426-6.597,15.338-21.196,8.741-32.623c-3.587-6.213-9.566-10.103-16.09-11.392c2.145-6.295,1.766-13.418-1.821-19.631
				c-6.597-11.427-21.197-15.339-32.623-8.741c-11.419,6.593-15.333,21.198-8.74,32.617l-48.272,27.874L409.169,170.741z"/>
			<path id="XMLID_3014_" style="fill:#FFCB7C;" d="M419.68,201.879c10.106-17.507,15.182-35.322,10.804-49.383l-13.818-23.939
				c-20.516-22.224-74.666-17.838-112.859-2.418c-23.342-6.549-48.533-10.124-74.807-10.124C108.049,116.015,10,212.394,10,305.756
				c0,38.754,12.001,64.309,45.344,82.259h347.313c28.411-28.515,45.344-64.195,45.344-102.949
				C448.001,254.824,437.702,226.441,419.68,201.879z"/>
		</g>
		<path id="XMLID_878_" style="fill:#FFCB7C;" d="M82.941,361.383l48.133,21.686c19.56,8.813,42.436,5.68,58.907-8.067l0,0
			c17.782-14.841,24.596-39.096,17.146-61.026l0,0c-3.833-11.284-5.789-23.12-5.789-35.037v-31.471
			c0-6.548-8.437-9.194-12.176-3.819l-25.62,36.83c-13.027,18.727-36.544,27.061-58.456,20.718l0,0
			c-20.559-5.952-41.084,9.474-41.084,30.877v0C64.001,344.72,71.413,356.189,82.941,361.383z"/>
		<path id="XMLID_1550_" style="fill:#D8EC84;" d="M485.562,371.576c-14.699,14.699-35.514,19.533-54.251,14.533
			c-5-18.737-0.166-39.552,14.533-54.251c14.699-14.699,35.514-19.533,54.251-14.532
			C505.095,336.062,500.261,356.877,485.562,371.576z"/>
		<path id="XMLID_1546_" style="fill:#D8EC84;" d="M451.766,339.378c0,20.787-11.301,38.924-28.085,48.637
			c-16.785-9.713-28.085-27.85-28.085-48.637s11.301-38.924,28.085-48.637C440.465,300.454,451.766,318.59,451.766,339.378z"/>
		<circle id="XMLID_1543_" style="fill:#F5737F;" cx="376.182" cy="356.015" r="32"/>
		<circle id="XMLID_47_" style="fill:#D8EC84;" cx="312.182" cy="356.015" r="32"/>
		<g id="XMLID_4_">
			<path id="XMLID_38_" d="M502.001,378.015h-8.757c16.183-16.624,22.514-40.777,16.513-63.268
				c-0.923-3.459-3.625-6.161-7.083-7.083c-15.728-4.198-32.4-2.386-46.701,4.735c-0.146-0.325-0.296-0.647-0.446-0.969
				c1.636-8.682,2.475-17.538,2.475-26.363c0-29.286-9.143-58.121-26.501-83.788c6.613-12.816,10.642-25.862,10.579-37.991
				l13.001-7.506c3.994,3.713,8.86,6.418,14.278,7.87c8.742,2.341,17.872,1.141,25.707-3.384
				c7.84-4.526,13.447-11.832,15.789-20.572c2.342-8.74,1.139-17.871-3.387-25.71c-3.188-5.522-7.88-9.969-13.468-12.907
				c0.25-6.308-1.255-12.595-4.443-18.117c-4.526-7.839-11.833-13.447-20.573-15.789c-8.74-2.341-17.871-1.138-25.71,3.387
				c-7.836,4.524-13.441,11.83-15.784,20.571c-1.452,5.418-1.542,10.985-0.324,16.301l-12.067,6.968
				c-26.64-17.089-74.634-12.973-111.849,1.222c-23.836-6.37-48.794-9.607-74.246-9.607c-38.838,0-77.741,9.733-112.501,28.147
				c-4.88,2.585-6.741,8.637-4.156,13.518c1.795,3.388,5.261,5.321,8.846,5.321c1.578,0,3.18-0.375,4.672-1.166
				c31.887-16.892,67.552-25.82,103.139-25.82c24.79,0,49.051,3.28,72.108,9.749c2.11,0.592,4.248,0.451,6.158-0.255
				c0.093-0.032,0.183-0.06,0.283-0.1c35.329-14.265,83.9-17.846,101.063-0.8l12.602,21.833
				c3.179,12.096-2.585,30.059-15.941,49.533c-13.083,19.076-31.959,37.133-49.261,47.124c-4.783,2.762-6.421,8.877-3.659,13.66
				c1.852,3.208,5.213,5.001,8.669,5.001c1.697,0,3.417-0.432,4.991-1.342c18.299-10.567,38.715-29.206,53.786-50.195
				c11.936,20.306,18.201,42.462,18.201,64.844c0,1.167-0.021,2.334-0.055,3.501c-2.871-2.4-5.961-4.575-9.256-6.482
				c-3.099-1.793-6.919-1.793-10.018,0c-13.545,7.839-23.632,19.918-28.922,34.192c-4.26-1.458-8.82-2.262-13.568-2.262
				c-12.809,0-24.29,5.771-32,14.841c-7.71-9.07-19.191-14.841-32-14.841c-23.159,0-42,18.841-42,42c0,8.062,2.288,15.597,6.242,22
				h-75.025c17.041-17.584,23.173-43.776,15.196-67.255c-3.489-10.271-5.258-20.977-5.258-31.821v-31.471
				c0-7.33-4.699-13.729-11.693-15.922c-6.996-2.191-14.505,0.376-18.691,6.394l-25.621,36.831
				c-10.586,15.217-29.658,21.976-47.466,16.822c-12.848-3.72-26.349-1.245-37.041,6.792c-10.692,8.036-16.824,20.315-16.824,33.69
				c0,16.545,9.748,31.628,24.833,38.425l16.679,7.515H57.92C31.022,362.777,20,341.655,20,305.756
				c0-33.682,13.968-69.192,39.333-99.989c3.511-4.263,2.901-10.565-1.362-14.077c-4.265-3.511-10.566-2.901-14.077,1.362
				C15.588,227.421,0,267.447,0,305.756c0,31.392,7.904,54.658,25.054,72.259h-5.053h-10c-5.523,0-10,4.477-10,10s4.477,10,10,10
				h0.881c4.755,27.23,28.549,48,57.119,48h376c28.57,0,52.365-20.77,57.119-48h0.881c5.523,0,10-4.477,10-10
				S507.524,378.015,502.001,378.015z M444.531,120.498c4.783-2.761,6.421-8.877,3.66-13.66c-1.853-3.209-2.345-6.949-1.385-10.53
				s3.255-6.574,6.465-8.427c3.213-1.856,6.954-2.348,10.534-1.389c3.58,0.959,6.574,3.257,8.428,6.47
				c1.988,3.444,2.349,7.495,1.016,11.405c-0.93,2.73-0.637,5.729,0.805,8.226s3.892,4.251,6.721,4.81
				c4.054,0.801,7.38,3.139,9.369,6.583c1.855,3.213,2.349,6.954,1.389,10.534c-0.959,3.58-3.257,6.573-6.47,8.428
				c-3.21,1.853-6.948,2.348-10.53,1.386c-3.581-0.959-6.573-3.255-8.426-6.465c-1.326-2.297-3.51-3.973-6.072-4.66
				c-2.563-0.688-5.291-0.327-7.588,0.999l-15.73,9.082l-7.913-13.71L444.531,120.498z M74.001,332.076
				c0-7.028,3.222-13.48,8.84-17.703c3.905-2.935,8.522-4.458,13.243-4.458c2.071,0,4.162,0.293,6.221,0.889
				c26.052,7.54,53.959-2.349,69.446-24.613l19.587-28.157v20.905c0,13.037,2.126,25.907,6.321,38.254
				c6.075,17.883,0.415,38.03-14.085,50.132c-13.438,11.215-32.433,13.817-48.391,6.627l-48.133-21.687
				C79.123,348.695,74.001,340.77,74.001,332.076z M491.603,325.817c1.84,14.112-2.931,28.508-13.112,38.688
				c-7.875,7.874-18.272,12.501-29.109,13.346c7.91-11.07,12.384-24.493,12.384-38.474c0-2.392-0.138-4.767-0.394-7.117
				C470.368,326.736,481.088,324.444,491.603,325.817z M423.671,302.743c11.286,8.677,18.095,22.233,18.095,36.634
				c0,14.397-6.804,27.95-18.085,36.627c-2.755-2.118-5.268-4.552-7.487-7.227c1.287-4.027,1.988-8.313,1.988-12.762
				c0-10.934-4.203-20.902-11.075-28.383C409.698,317.703,415.496,308.99,423.671,302.743z M376.182,334.015
				c12.131,0,22,9.869,22,22c0,3.404-0.778,6.63-2.164,9.51c-0.006,0.011-0.01,0.022-0.016,0.033
				c-3.56,7.365-11.107,12.457-19.82,12.457c-12.131,0-22-9.869-22-22S364.051,334.015,376.182,334.015z M290.182,356.015
				c0-12.131,9.869-22,22-22s22,9.869,22,22s-9.869,22-22,22S290.182,368.146,290.182,356.015z M444.001,426.015h-376
				c-17.494,0-32.265-11.882-36.665-28h24.008h347.313h78.009C476.266,414.133,461.495,426.015,444.001,426.015z"/>
			<path id="XMLID_49_" d="M77.848,175.952c1.755,1.243,3.773,1.841,5.771,1.841c3.134,0,6.22-1.469,8.169-4.221
				c3.192-4.507,2.127-10.748-2.38-13.94l-0.012-0.008c-4.506-3.192-10.742-2.123-13.935,2.384S73.341,172.759,77.848,175.952z"/>
		</g>
	</g>
</g>
<g>
</g>
<g>
</g>
<g>
</g>
<g>
</g>
<g>
</g>
<g>
</g>
<g>
</g>
<g>
</g>
<g>
</g>
<g>
</g>
<g>
</g>
<g>
</g>
<g>
</g>
<g>
</g>
<g>
</g>
</svg>
