<?xml version="1.0" encoding="iso-8859-1"?>
<!-- Generator: Adobe Illustrator 22.0.0, SVG Export Plug-In . SVG Version: 6.00 Build 0)  -->
<svg version="1.1" id="Capa_1" xmlns="http://www.w3.org/2000/svg" xmlns:xlink="http://www.w3.org/1999/xlink" x="0px" y="0px"
	 viewBox="0 0 512 512" style="enable-background:new 0 0 512 512;" xml:space="preserve">
<g id="XMLID_910_">
	<polygon id="XMLID_558_" style="fill:#FFCB7C;" points="501.882,214.435 501.882,10 297.448,10 	"/>
	<polyline id="XMLID_1725_" style="fill:#FFCB7C;" points="471.14,184.207 248.115,407.233 104.65,263.768 327.675,40.743 	"/>
	<polyline id="XMLID_890_" style="fill:#F5737F;" points="167.895,205 167.895,324.733 247.895,401 247.895,124.5 	"/>
	<polygon id="XMLID_1668_" style="fill:#8690A6;" points="89.76,502 216.321,375.439 248.115,407.233 153.347,502 	"/>
	<polyline id="XMLID_1752_" style="fill:#F5737F;" points="407.895,122.78 407.895,245.12 327.895,324.733 327.895,40.743 	"/>
	<g id="XMLID_419_">
		<path id="XMLID_443_" d="M501.882,0h-57.221c-5.522,0-10,4.477-10,10s4.478,10,10,10h47.221v170.293L321.59,20h33.075
			c5.522,0,10-4.477,10-10s-4.478-10-10-10h-57.218c-4.045,0-7.691,2.437-9.239,6.173s-0.691,8.038,2.168,10.898l23.414,23.414
			L97.579,256.697c-1.875,1.875-2.929,4.419-2.929,7.071s1.054,5.196,2.929,7.071l64.705,64.704l-96.232,96.233
			c-10.496,10.497-27.574,10.497-38.07,0c-10.496-10.496-10.496-27.574-0.001-38.069l1.471-1.47
			c3.905-3.905,3.906-10.236,0.002-14.142c-3.904-3.906-10.234-3.906-14.143-0.002l-1.472,1.471
			c-18.294,18.294-18.294,48.061,0,66.355c9.147,9.147,21.162,13.72,33.178,13.72s24.03-4.573,33.178-13.721l96.232-96.232
			l25.752,25.753l-119.49,119.49c-2.859,2.86-3.715,7.162-2.168,10.898c1.548,3.737,5.194,6.173,9.239,6.173h63.588
			c2.652,0,5.195-1.054,7.071-2.929l94.763-94.763c0.001-0.002,0.003-0.003,0.005-0.005l216.211-216.211l23.414,23.414
			c1.913,1.913,4.471,2.929,7.073,2.929c1.288,0,2.588-0.249,3.825-0.762c3.736-1.548,6.173-5.194,6.173-9.239V10
			C511.882,4.477,507.405,0,501.882,0z M177.895,322.871V205c0-0.108-0.013-0.212-0.016-0.319l60.016-60.016V382.87l-14.503-14.503
			L177.895,322.871z M257.895,124.666l60-60V323.31l-60,60V124.666z M337.895,64.59l60,60v118.72l-60,60V64.59z M157.895,224.666
			v78.205l-39.103-39.103L157.895,224.666z M149.205,492h-35.303l102.419-102.419l17.651,17.651L149.205,492z M417.895,223.31
			v-78.72l39.36,39.36L417.895,223.31z"/>
		<path id="XMLID_673_" d="M381.588,350.714L240.226,492.077c-3.905,3.905-3.905,10.237,0,14.142
			c1.953,1.953,4.512,2.929,7.071,2.929s5.118-0.977,7.071-2.929L395.73,364.857c3.905-3.905,3.905-10.237,0-14.143
			C391.824,346.809,385.494,346.81,381.588,350.714z"/>
		<path id="XMLID_674_" d="M69.759,327.786c5.522,0,10-4.477,10-10v-11.55c0-5.523-4.478-10-10-10s-10,4.477-10,10v11.55
			C59.759,323.309,64.237,327.786,69.759,327.786z"/>
		<path id="XMLID_675_" d="M69.759,347.786c-5.522,0-10,4.477-10,10v11.549c0,5.523,4.478,10,10,10s10-4.477,10-10v-11.549
			C79.759,352.263,75.282,347.786,69.759,347.786z"/>
		<path id="XMLID_676_" d="M89.759,347.786h11.55c5.522,0,10-4.477,10-10s-4.478-10-10-10h-11.55c-5.522,0-10,4.477-10,10
			S84.237,347.786,89.759,347.786z"/>
		<path id="XMLID_677_" d="M38.211,347.786h11.549c5.522,0,10-4.477,10-10s-4.478-10-10-10H38.211c-5.522,0-10,4.477-10,10
			S32.688,347.786,38.211,347.786z"/>
		<path id="XMLID_678_" d="M399.662,20.001c2.631,0,5.211-1.07,7.07-2.93c1.86-1.86,2.93-4.44,2.93-7.07s-1.069-5.21-2.93-7.07
			c-1.859-1.86-4.439-2.93-7.07-2.93c-2.63,0-5.21,1.07-7.069,2.93c-1.86,1.86-2.931,4.44-2.931,7.07s1.07,5.21,2.931,7.07
			C394.452,18.932,397.032,20.001,399.662,20.001z"/>
	</g>
</g>
<g>
</g>
<g>
</g>
<g>
</g>
<g>
</g>
<g>
</g>
<g>
</g>
<g>
</g>
<g>
</g>
<g>
</g>
<g>
</g>
<g>
</g>
<g>
</g>
<g>
</g>
<g>
</g>
<g>
</g>
</svg>
