<?xml version="1.0" encoding="iso-8859-1"?>
<!-- Generator: Adobe Illustrator 22.0.0, SVG Export Plug-In . SVG Version: 6.00 Build 0)  -->
<svg version="1.1" id="Capa_1" xmlns="http://www.w3.org/2000/svg" xmlns:xlink="http://www.w3.org/1999/xlink" x="0px" y="0px"
	 viewBox="0 0 512.002 512.002" style="enable-background:new 0 0 512.002 512.002;" xml:space="preserve">
<g id="XMLID_1094_">
	<path id="XMLID_1072_" style="fill:#FFCB7C;" d="M10.001,63.19c0-28.719,23.281-52,52-52V10v388c-28.719,0-52,23.281-52,52V63.19z"
		/>
	<path id="XMLID_1510_" style="fill:#FFFFFF;" d="M62.001,64v334c-28.719,0-52,23.281-52,52c0,28.719,23.281,52,52,52h440V64H62.001
		z"/>
	<path id="XMLID_1515_" style="fill:#D8EC84;" d="M62.001,249.255c2.534,1.471,4,2.317,4,2.317h139.36
		c0.21-0.002,0.421-0.002,0.632,0h0.431L105.237,64.082L105.192,64h-43.19V249.255z"/>
	<path id="XMLID_1514_" style="fill:#CBE558;" d="M502.001,64H177.357c0.007,0.052,0.012,0.082,0.012,0.082l101.897,187.49h222.735
		V64z"/>
	<path id="XMLID_1513_" style="fill:#CBE558;" d="M62.001,316.796V398c-28.719,0-52,23.281-52,52c0,28.719,23.281,52,52,52h149.103
		l14.335-1.822l78.052-184.607H64.001L62.001,316.796z"/>
	<path id="XMLID_1511_" style="fill:#D8EC84;" d="M502.001,315.572h-95.445c-0.064,0-0.128,0.006-0.193,0.006
		c-0.059,0-0.117-0.006-0.176-0.006h-33.21L294.154,502h207.847V315.572z"/>
	<g id="XMLID_1062_">
		<path id="XMLID_1064_" style="fill:#F5737F;" d="M458.015,102.014c0-50.818-41.196-92.014-92.014-92.014
			s-92.014,41.196-92.014,92.014c0,22.029,7.745,42.247,20.656,58.088h-0.006l71.364,91.47l71.024-90.991l-0.053,0
			C450.117,144.67,458.015,124.264,458.015,102.014z"/>
		<circle id="XMLID_1063_" style="fill:#FFFFFF;" cx="366.001" cy="103.482" r="35.618"/>
	</g>
	<g id="XMLID_272_">
		<path id="XMLID_487_" d="M502.001,54h-46.015c-17.201-32.108-51.083-54-89.985-54s-72.784,21.892-89.985,54H72.001V10
			c0-5.523-4.478-10-10-10c-1.864,0-3.609,0.51-5.104,1.398C25.088,4.001,0.001,30.721,0.001,63.19V450c0,34.187,27.813,62,62,62
			h232.1c0.017,0,0.033,0.002,0.05,0.002c0.011,0,0.022-0.002,0.033-0.002h207.817c5.522,0,10-4.477,10-10V64
			C512.001,58.477,507.524,54,502.001,54z M492.001,74v167.572H386.492l58.415-74.838c0.141-0.18,0.275-0.365,0.402-0.553
			c14.648-18.091,22.705-40.838,22.705-64.167c0-9.711-1.365-19.109-3.912-28.014H492.001z M366.001,20
			c45.223,0,82.014,36.791,82.014,82.014c0,19.023-6.66,37.56-18.753,52.198c-0.256,0.309-0.49,0.631-0.703,0.963l-62.556,80.143
			l-63.276-81.104c-0.106-0.146-0.217-0.289-0.331-0.43c-11.871-14.564-18.408-32.95-18.408-51.77
			C283.988,56.791,320.779,20,366.001,20z M286.673,166.149c0.026,0.035,0.053,0.069,0.079,0.104l58.763,75.319h-60.303L194.14,74
			h73.759c-2.546,8.904-3.912,18.302-3.912,28.014C263.988,125.308,272.041,148.07,286.673,166.149z M99.226,74l90.437,167.572
			H72.001V74H99.226z M20.001,63.19c0-19.714,13.652-36.299,32-40.797v366.413c-12.23,1.992-23.271,7.574-32,15.626V63.19z
			 M20.001,450c0-23.159,18.841-42,42-42c5.522,0,10-4.477,10-10v-72.428h66.745c5.522,0,10-4.477,10-10s-4.478-10-10-10H72.001v-44
			h134.423c3.521,0,6.783-1.852,8.588-4.876c1.804-3.024,1.885-6.774,0.212-9.873L121.952,74h49.425l99.103,182.347
			c1.75,3.22,5.121,5.225,8.786,5.225h212.735v44l-85.521,0c-0.08,0-0.205,0-0.293,0h-33.211c-4.018,0-7.646,2.405-9.211,6.106
			L287.525,492h-47.77l72.947-172.534c1.306-3.088,0.977-6.625-0.876-9.419s-4.982-4.475-8.335-4.475h-74.74
			c-5.522,0-10,4.477-10,10s4.478,10,10,10h59.655L218.04,492H62.001C38.842,492,20.001,473.159,20.001,450z M309.24,492
			l70.365-166.428l26.405,0c0.276,0.01,0.493,0.008,0.713,0h85.278V492H309.24z"/>
		<path id="XMLID_768_" d="M366.001,149.1c25.154,0,45.618-20.464,45.618-45.618s-20.464-45.618-45.618-45.618
			s-45.618,20.464-45.618,45.618S340.847,149.1,366.001,149.1z M366.001,77.864c14.126,0,25.618,11.492,25.618,25.618
			S380.127,129.1,366.001,129.1s-25.618-11.492-25.618-25.618S351.875,77.864,366.001,77.864z"/>
		<path id="XMLID_775_" d="M183.751,305.57c-2.641,0-5.21,1.07-7.08,2.93c-1.86,1.86-2.92,4.44-2.92,7.07
			c0,2.64,1.06,5.21,2.92,7.07c1.87,1.86,4.439,2.93,7.08,2.93c2.63,0,5.21-1.07,7.069-2.93c1.86-1.86,2.931-4.43,2.931-7.07
			c0-2.63-1.07-5.21-2.931-7.07C188.951,306.64,186.381,305.57,183.751,305.57z"/>
	</g>
</g>
<g>
</g>
<g>
</g>
<g>
</g>
<g>
</g>
<g>
</g>
<g>
</g>
<g>
</g>
<g>
</g>
<g>
</g>
<g>
</g>
<g>
</g>
<g>
</g>
<g>
</g>
<g>
</g>
<g>
</g>
</svg>
