<?xml version="1.0" encoding="iso-8859-1"?>
<!-- Generator: Adobe Illustrator 22.0.0, SVG Export Plug-In . SVG Version: 6.00 Build 0)  -->
<svg version="1.1" id="Capa_1" xmlns="http://www.w3.org/2000/svg" xmlns:xlink="http://www.w3.org/1999/xlink" x="0px" y="0px"
	 viewBox="0 0 512 512" style="enable-background:new 0 0 512 512;" xml:space="preserve">
<g id="XMLID_1652_">
	<polygon id="XMLID_1651_" style="fill:#CFF1FB;" points="208.359,399.115 144.318,441.992 144.318,501.992 228.318,454.511 	"/>
	<polygon id="XMLID_1626_" style="fill:#CFF1FB;" points="303.641,399.115 367.682,441.992 367.682,501.992 283.682,454.511 	"/>
	<path id="XMLID_1625_" style="fill:#8690A6;" d="M352,181.236v-9.745c0-11.046,8.954-20,20-20h0c11.046,0,20,8.954,20,20v27.75
		L352,181.236z"/>
	<path id="XMLID_1624_" style="fill:#8690A6;" d="M432,217.736v-9.745c0-11.046,8.954-20,20-20h0c11.046,0,20,8.954,20,20v27.75
		L432,217.736z"/>
	<polygon id="XMLID_1621_" style="fill:#CFF1FB;" points="312,162.862 502,249.658 502,322.195 312,273.992 	"/>
	<polygon id="XMLID_1622_" style="fill:#FFFFFF;" points="502,282.344 312,234.14 312,273.992 502,322.195 	"/>
	<path id="XMLID_1650_" style="fill:#8690A6;" d="M160.254,181.236v-9.745c0-11.046-8.954-20-20-20h0c-11.046,0-20,8.954-20,20
		v27.75L160.254,181.236z"/>
	<path id="XMLID_1649_" style="fill:#8690A6;" d="M80.254,217.736v-9.745c0-11.046-8.954-20-20-20h0c-11.046,0-20,8.954-20,20v27.75
		L80.254,217.736z"/>
	<polygon id="XMLID_1648_" style="fill:#CFF1FB;" points="200.254,162.862 10.254,249.658 10.254,322.195 200.254,273.992 	"/>
	<polygon id="XMLID_1630_" style="fill:#FFFFFF;" points="10.254,282.344 200.254,234.14 200.254,273.992 10.254,322.195 	"/>
	<path id="XMLID_1402_" style="fill:#91DEF5;" d="M256.127,9.992L256.127,9.992l-0.054,0.033C221.263,31.111,200,68.852,200,109.55
		v223.305c0,54.879,19.947,107.887,56.127,149.152l0,0l0.081-0.093C292.179,440.701,312,387.849,312,333.145V109.396
		C312,68.781,290.823,31.105,256.127,9.992z"/>
	<g id="XMLID_317_">
		<path id="XMLID_501_" d="M506.155,240.562L482,229.528v-21.536c0-16.542-13.458-30-30-30c-14.618,0-26.821,10.512-29.463,24.372
			L402,192.982v-21.49c0-16.542-13.458-30-30-30c-14.603,0-26.796,10.491-29.455,24.33L322,156.436v-47.04
			c0-21.641-5.604-43.051-16.208-61.916s-25.98-34.782-44.467-46.032c-3.186-1.939-7.241-1.91-10.433,0.022
			c-18.547,11.235-33.978,27.16-44.622,46.053S190,87.866,190,109.551v46.886l-20.545,9.385
			c-2.659-13.839-14.852-24.33-29.455-24.33c-16.542,0-30,13.458-30,30v21.49l-20.537,9.382
			c-2.642-13.86-14.845-24.372-29.463-24.372c-16.542,0-30,13.458-30,30v21.536L5.845,240.562C2.284,242.189,0,245.744,0,249.658
			v72.538c0,3.086,1.424,5.998,3.859,7.893c1.774,1.38,3.939,2.107,6.141,2.107c0.821,0,1.646-0.101,2.458-0.307L190,286.846v46.009
			c0,20.804,2.755,41.339,8.054,61.125l-59.299,39.702c-2.772,1.856-4.437,4.973-4.437,8.31v60c0,3.557,1.889,6.845,4.96,8.638
			c1.556,0.907,3.298,1.362,5.04,1.362c1.696,0,3.394-0.431,4.921-1.295l81.095-45.838c4.82,7.152,10.044,14.063,15.666,20.698
			v16.435c0,5.522,4.477,10,10,10s10-4.478,10-10v-16.148c5.675-6.699,10.948-13.68,15.806-20.906l80.955,45.759
			c1.528,0.864,3.224,1.295,4.921,1.295c1.742,0,3.483-0.455,5.04-1.362c3.072-1.793,4.96-5.081,4.96-8.638v-60
			c0-3.337-1.664-6.453-4.437-8.31l-59.236-39.66c5.257-19.713,7.99-40.164,7.99-60.877v-46.299l39.098,9.919
			c0.825,0.209,1.652,0.309,2.466,0.309c4.467,0,8.537-3.015,9.686-7.543c1.358-5.354-1.88-10.794-7.234-12.152L322,266.211v-19.217
			l170,43.13v19.218l-38.756-9.834c-5.354-1.354-10.794,1.881-12.152,7.234c-1.358,5.353,1.88,10.794,7.234,12.152l51.215,12.994
			c0.813,0.206,1.638,0.307,2.459,0.307c2.201,0,4.367-0.728,6.141-2.107c2.436-1.895,3.86-4.807,3.86-7.893v-72.538
			C512,245.744,509.716,242.189,506.155,240.562z M442,207.992c0-5.514,4.486-10,10-10s10,4.486,10,10v12.4l-20-9.136V207.992z
			 M362,171.492c0-5.514,4.486-10,10-10s10,4.486,10,10v12.354l-20-9.136V171.492z M130,171.492c0-5.514,4.486-10,10-10
			s10,4.486,10,10v3.218l-20,9.136V171.492z M50,207.992c0-5.514,4.486-10,10-10s10,4.486,10,10v3.263l-20,9.136V207.992z
			 M83.299,227.168c0.588-0.206,1.15-0.462,1.682-0.768l77.913-35.592c0.852-0.257,1.651-0.63,2.39-1.092L190,178.424v47.936
			L20,269.49v-13.406L83.299,227.168z M20,309.342v-19.218l170-43.13v19.217L20,309.342z M154.318,484.852V447.33l50.009-33.482
			c4.268,11.695,9.46,23.05,15.535,33.956L154.318,484.852z M256,411.659c-5.523,0-10,4.478-10,10v30.661
			c-23.365-35.243-36-76.74-36-119.465V109.551c0-34.908,17.518-67.941,46.113-87.647C284.565,41.614,302,74.586,302,109.396
			v223.749c0,42.703-12.635,84.204-36,119.456v-30.942C266,416.136,261.523,411.659,256,411.659z M357.682,447.33v37.521
			l-65.423-36.979c6.062-10.911,11.241-22.27,15.496-33.969L357.682,447.33z M322,226.361v-47.936l24.717,11.291
			c0.739,0.462,1.538,0.835,2.39,1.092L427.02,226.4c0.532,0.306,1.094,0.563,1.682,0.768L492,256.084v13.406L322,226.361z"/>
		<path id="XMLID_762_" d="M279,103.658c0-5.523-4.477-10-10-10h-26c-5.523,0-10,4.477-10,10s4.477,10,10,10h26
			C274.523,113.658,279,109.181,279,103.658z"/>
		<path id="XMLID_763_" d="M407,288.822c-2.63,0-5.21,1.069-7.07,2.93c-1.86,1.86-2.93,4.44-2.93,7.07c0,2.64,1.07,5.21,2.93,7.069
			c1.86,1.87,4.44,2.931,7.07,2.931c2.63,0,5.21-1.061,7.07-2.931c1.86-1.859,2.93-4.439,2.93-7.069s-1.07-5.21-2.93-7.07
			S409.63,288.822,407,288.822z"/>
	</g>
</g>
<g>
</g>
<g>
</g>
<g>
</g>
<g>
</g>
<g>
</g>
<g>
</g>
<g>
</g>
<g>
</g>
<g>
</g>
<g>
</g>
<g>
</g>
<g>
</g>
<g>
</g>
<g>
</g>
<g>
</g>
</svg>
