<?xml version="1.0" encoding="iso-8859-1"?>
<!-- Generator: Adobe Illustrator 22.0.0, SVG Export Plug-In . SVG Version: 6.00 Build 0)  -->
<svg version="1.1" id="Capa_1" xmlns="http://www.w3.org/2000/svg" xmlns:xlink="http://www.w3.org/1999/xlink" x="0px" y="0px"
	 viewBox="0 0 512.003 512.003" style="enable-background:new 0 0 512.003 512.003;" xml:space="preserve">
<g id="XMLID_1355_">
	<polygon id="XMLID_1274_" style="fill:#91DEF5;" points="256.001,434.402 282.142,421.549 277.995,450.382 298.297,471.271 
		269.594,476.237 256.001,502 242.409,476.237 213.706,471.271 234.008,450.382 229.861,421.549 	"/>
	<circle id="XMLID_1272_" style="fill:#FFCB7C;" cx="480.001" cy="256" r="22"/>
	<path id="XMLID_1682_" style="fill:#F5737F;" d="M323.086,114.334L323.086,114.334c-21.709-12.534-49.468-5.096-62.002,16.613
		l14.072,52.517c9.915,37.002,44.313,62.062,82.573,60.157l0,0l0,0c34.086-17.48,51.346-56.382,41.432-93.384L385.089,97.72
		C372.555,119.429,344.796,126.868,323.086,114.334z"/>
	<path id="XMLID_1676_" style="fill:#F5737F;" d="M175.14,200.426L175.14,200.426c21.709-12.534,49.468-5.096,62.002,16.613
		l-14.072,52.517c-9.915,37.002-44.313,62.062-82.573,60.157l0,0l0,0c-34.086-17.48-51.346-56.382-41.432-93.384l14.072-52.517
		C125.672,205.522,153.431,212.96,175.14,200.426z"/>
	<g id="XMLID_499_">
		<path id="XMLID_530_" d="M443.269,382.021l-35.551,9.526l-38.339-143.083c15.207-9.62,27.376-23.634,34.707-40.157
			c8.438-19.018,10.119-40.559,4.734-60.656L394.75,95.14c-0.001-0.005-0.003-0.01-0.004-0.015L371.243,7.412
			c-0.687-2.562-2.362-4.746-4.659-6.072c-2.296-1.325-5.025-1.685-7.588-0.999L234.991,33.568c-5.334,1.429-8.5,6.913-7.071,12.248
			l18.586,69.362L139.231,86.433c-2.563-0.688-5.292-0.327-7.588,0.999c-2.297,1.326-3.973,3.51-4.659,6.072l-23.504,87.717
			c0,0.002-0.001,0.004-0.002,0.006l-14.071,52.515c-5.385,20.097-3.704,41.638,4.734,60.657
			c7.331,16.522,19.5,30.536,34.707,40.157L90.509,477.639l-35.551-9.526c-5.334-1.431-10.819,1.736-12.248,7.071
			c-1.43,5.334,1.736,10.817,7.071,12.247l90.42,24.228c0.867,0.232,1.738,0.344,2.595,0.344c4.415,0,8.456-2.947,9.653-7.415
			c1.43-5.334-1.736-10.817-7.071-12.247l-35.551-9.526l38.336-143.071c8.716-0.338,17.295-1.917,25.596-4.723
			c5.232-1.77,8.04-7.444,6.271-12.676c-1.769-5.231-7.443-8.038-12.676-6.271c-7.811,2.641-15.938,3.895-24.198,3.728
			c-28.435-15.699-42.879-49.351-34.43-80.883l9.237-34.474c17.292,13.729,41.927,16.334,62.178,4.642
			c8.186-4.727,17.723-5.982,26.854-3.535c7.855,2.105,14.595,6.738,19.336,13.203l-10.047,37.494
			c-1.43,5.334,1.736,10.818,7.071,12.248c5.333,1.43,10.818-1.736,12.248-7.071l11.199-41.796c0-0.001,0-0.002,0.001-0.003
			l13.846-51.671l4.849,18.098c5.385,20.097,17.612,37.912,34.428,50.163c14.611,10.644,32.157,16.702,50.137,17.43L388.4,396.722
			l-35.551,9.526c-5.334,1.43-8.5,6.913-7.071,12.247c1.197,4.468,5.237,7.415,9.653,7.415c0.856,0,1.728-0.111,2.595-0.344
			l45.203-12.112c0.002-0.001,0.005-0.001,0.007-0.001c0.003-0.001,0.006-0.002,0.009-0.003l45.201-12.111
			c5.334-1.43,8.5-6.913,7.071-12.247S448.606,380.59,443.269,382.021z M354.513,22.248l19.763,73.758
			c-4.741,6.465-11.481,11.098-19.337,13.203c-9.13,2.446-18.667,1.19-26.854-3.536c-20.25-11.691-44.885-9.086-62.178,4.642
			l-16.082-60.018L354.513,22.248z M232.326,196.377c-5.872-4.674-12.689-8.143-20.156-10.144
			c-14.291-3.828-29.217-1.864-42.03,5.534c-15.752,9.092-35.657,4.659-46.19-9.67l19.763-73.757L248.4,136.391L232.326,196.377z
			 M284.815,180.876l-12.919-48.214c4.741-6.465,11.481-11.098,19.336-13.203c9.129-2.446,18.667-1.19,26.854,3.536
			c20.251,11.692,44.886,9.087,62.178-4.642l9.237,34.474c8.449,31.531-5.997,65.182-34.429,80.882
			C322.615,234.303,293.265,212.409,284.815,180.876z"/>
		<path id="XMLID_838_" d="M288.593,446.938l3.446-23.966c0.528-3.672-1.02-7.334-4.02-9.514c-3.001-2.182-6.963-2.521-10.291-0.884
			l-21.728,10.684l-21.728-10.684c-3.328-1.636-7.289-1.297-10.291,0.884c-3,2.18-4.548,5.842-4.02,9.514l3.446,23.966
			l-16.875,17.362c-2.585,2.66-3.486,6.532-2.34,10.06c1.146,3.528,4.151,6.132,7.806,6.764l23.857,4.128l11.298,21.414
			c1.731,3.281,5.136,5.334,8.845,5.334s7.114-2.053,8.845-5.334l11.298-21.414l23.857-4.128c3.655-0.632,6.66-3.235,7.806-6.764
			c1.146-3.527,0.246-7.399-2.34-10.06L288.593,446.938z M267.89,466.383c-3.056,0.528-5.693,2.444-7.14,5.188l-4.748,9l-4.748-9
			c-1.447-2.743-4.084-4.659-7.14-5.188l-10.026-1.734l7.091-7.297c2.161-2.224,3.168-5.324,2.727-8.394l-1.448-10.072l9.131,4.49
			c2.782,1.369,6.043,1.369,8.825,0l9.131-4.49l-1.448,10.072c-0.441,3.069,0.566,6.17,2.727,8.394l7.091,7.297L267.89,466.383z"/>
		<path id="XMLID_886_" d="M54.001,36c5.523,0,10-4.477,10-10V10c0-5.523-4.477-10-10-10s-10,4.477-10,10v16
			C44.001,31.523,48.479,36,54.001,36z"/>
		<path id="XMLID_887_" d="M54.001,108c5.523,0,10-4.477,10-10V82c0-5.523-4.477-10-10-10s-10,4.477-10,10v16
			C44.001,103.523,48.479,108,54.001,108z"/>
		<path id="XMLID_888_" d="M82.001,64h16c5.523,0,10-4.477,10-10s-4.477-10-10-10h-16c-5.523,0-10,4.477-10,10S76.479,64,82.001,64z
			"/>
		<path id="XMLID_896_" d="M26.001,44h-16c-5.523,0-10,4.477-10,10s4.477,10,10,10h16c5.523,0,10-4.477,10-10S31.524,44,26.001,44z"
			/>
		<path id="XMLID_1113_" d="M480.001,224c-17.645,0-32,14.355-32,32c0,17.645,14.355,32,32,32s32-14.355,32-32
			C512.001,238.355,497.646,224,480.001,224z M480.001,268c-6.617,0-12-5.383-12-12c0-6.617,5.383-12,12-12s12,5.383,12,12
			C492.001,262.617,486.618,268,480.001,268z"/>
		<path id="XMLID_1152_" d="M214.591,306.96c1.86-1.86,2.93-4.44,2.93-7.07s-1.07-5.21-2.93-7.07c-1.86-1.859-4.44-2.93-7.07-2.93
			c-2.63,0-5.21,1.07-7.07,2.93c-1.87,1.86-2.93,4.44-2.93,7.07s1.06,5.21,2.93,7.07c1.86,1.859,4.44,2.93,7.07,2.93
			C210.151,309.89,212.731,308.819,214.591,306.96z"/>
	</g>
</g>
<g>
</g>
<g>
</g>
<g>
</g>
<g>
</g>
<g>
</g>
<g>
</g>
<g>
</g>
<g>
</g>
<g>
</g>
<g>
</g>
<g>
</g>
<g>
</g>
<g>
</g>
<g>
</g>
<g>
</g>
</svg>
