<?xml version="1.0" encoding="iso-8859-1"?>
<!-- Generator: Adobe Illustrator 22.0.0, SVG Export Plug-In . SVG Version: 6.00 Build 0)  -->
<svg version="1.1" id="Capa_1" xmlns="http://www.w3.org/2000/svg" xmlns:xlink="http://www.w3.org/1999/xlink" x="0px" y="0px"
	 viewBox="0 0 512 512" style="enable-background:new 0 0 512 512;" xml:space="preserve">
<g id="XMLID_780_">
	<path id="XMLID_1910_" style="fill:#8690A6;" d="M30.5,448H64V262H30.5c-11.322,0-20.5,9.178-20.5,20.5v145
		C10,438.822,19.178,448,30.5,448z"/>
	<path id="XMLID_1911_" style="fill:#8690A6;" d="M481.5,448H448V262h33.5c11.322,0,20.5,9.178,20.5,20.5v145
		C502,438.822,492.822,448,481.5,448z"/>
	<path id="XMLID_1917_" style="fill:#FFFFFF;" d="M463.75,316H502v-33.5c0-11.322-9.178-20.5-20.5-20.5H448v38.25
		C448,308.948,455.052,316,463.75,316z"/>
	<path id="XMLID_1921_" style="fill:#FFFFFF;" d="M10,282.5V316h38.25c8.698,0,15.75-7.052,15.75-15.75V262H30.5
		C19.178,262,10,271.178,10,282.5z"/>
	<path id="XMLID_1908_" style="fill:#91DEF5;" d="M448,122v329c0,28.167-22.833,51-51,51H115c-28.167,0-51-22.833-51-51V122H448z"/>
	<path id="XMLID_1701_" style="fill:#DFF6FC;" d="M401.5,202h-291C84.819,202,64,181.181,64,155.5V106h384v49.5
		C448,181.181,427.181,202,401.5,202z"/>
	<path id="XMLID_1547_" style="fill:#F5737F;" d="M459.261,106H52.739C44.047,106,37,98.953,37,90.261V25.739
		C37,17.047,44.047,10,52.739,10h406.522C467.953,10,475,17.047,475,25.739v64.522C475,98.953,467.953,106,459.261,106z"/>
	<path id="XMLID_1909_" style="fill:#8690A6;" d="M318.576,448H193.424c-15.782,0-28.576-12.794-28.576-28.576v-94.247h182.305
		v94.247C347.152,435.206,334.358,448,318.576,448z"/>
	<rect id="XMLID_1913_" x="164.848" y="325.177" style="fill:#FFFFFF;" width="182.305" height="51.323"/>
	<rect id="XMLID_1049_" x="130" y="10" style="fill:#B8866B;" width="44" height="272"/>
	
		<rect id="XMLID_1052_" x="338" y="10" transform="matrix(-1 4.497857e-11 -4.497857e-11 -1 720 292)" style="fill:#B8866B;" width="44" height="272"/>
	<g id="XMLID_524_">
		<path id="XMLID_558_" d="M481.5,252H458v-96.5V122v-6h1.261C473.454,116,485,104.454,485,90.261V25.739
			C485,11.546,473.454,0,459.261,0H52.739C38.546,0,27,11.546,27,25.739v64.522C27,104.454,38.546,116,52.739,116H54v6v33.5V252
			H30.5C13.682,252,0,265.683,0,282.5v145C0,444.317,13.682,458,30.5,458h23.914c3.485,30.349,29.319,54,60.586,54h282
			c31.267,0,57.101-23.651,60.586-54H481.5c16.818,0,30.5-13.683,30.5-30.5v-145C512,265.683,498.318,252,481.5,252z M492,282.5V306
			h-28.25c-3.17,0-5.75-2.579-5.75-5.75V272h23.5C487.29,272,492,276.71,492,282.5z M392,116h46v6v33.5
			c0,20.126-16.374,36.5-36.5,36.5H392V116z M465,25.739v64.522c0,3.165-2.574,5.739-5.739,5.739H392V20h67.261
			C462.426,20,465,22.574,465,25.739z M372,20v212h-24V20H372z M348,252h24v20h-24V252z M184,116h26.375c5.523,0,10-4.477,10-10
			s-4.477-10-10-10H184V20h144v76h-27.625c-5.523,0-10,4.477-10,10s4.477,10,10,10H328v76H184V116z M164,20v212h-24V20H164z
			 M140,252h24v20h-24V252z M74,122v-6h46v76h-9.5C90.374,192,74,175.626,74,155.5V122z M47,90.261V25.739
			C47,22.574,49.574,20,52.739,20H120v76H52.739C49.574,96,47,93.426,47,90.261z M30.5,272H54v28.25c0,3.171-2.58,5.75-5.75,5.75H20
			v-23.5C20,276.71,24.71,272,30.5,272z M20,427.5V326h28.25c1.977,0,3.9-0.231,5.75-0.655V438H30.5C24.71,438,20,433.29,20,427.5z
			 M438,451c0,22.607-18.393,41-41,41H115c-22.607,0-41-18.393-41-41v-3V198.578C83.854,206.94,96.594,212,110.5,212h9.5v20
			c-5.523,0-10,4.477-10,10s4.477,10,10,10v30c0,5.522,4.477,10,10,10h44c5.523,0,10-4.478,10-10v-30c5.523,0,10-4.477,10-10
			s-4.477-10-10-10v-20h144v20c-5.523,0-10,4.477-10,10s4.477,10,10,10v30c0,5.522,4.477,10,10,10h44c5.523,0,10-4.478,10-10v-30
			c5.523,0,10-4.477,10-10s-4.477-10-10-10v-20h9.5c13.906,0,26.646-5.06,36.5-13.422V448V451z M481.5,438H458V325.345
			c1.85,0.424,3.773,0.655,5.75,0.655H492v101.5C492,433.29,487.29,438,481.5,438z"/>
		<path id="XMLID_1306_" d="M347.152,315.177H164.848c-5.523,0-10,4.478-10,10v94.247c0,21.271,17.305,38.576,38.576,38.576h125.152
			c21.271,0,38.576-17.306,38.576-38.576v-94.247C357.152,319.654,352.675,315.177,347.152,315.177z M337.152,335.177V366.5H174.848
			v-31.323H337.152z M318.576,438H193.424c-10.243,0-18.576-8.333-18.576-18.576V386.5H278V402c0,5.522,4.477,10,10,10
			s10-4.478,10-10v-15.5h39.152v32.924C337.152,429.667,328.819,438,318.576,438z"/>
		<path id="XMLID_1339_" d="M255.38,96c-2.64,0-5.21,1.07-7.08,2.93c-1.86,1.86-2.93,4.44-2.93,7.07c0,2.63,1.07,5.21,2.93,7.07
			c1.87,1.86,4.44,2.93,7.08,2.93c2.63,0,5.2-1.07,7.07-2.93c1.86-1.86,2.92-4.44,2.92-7.07c0-2.63-1.06-5.21-2.92-7.07
			C260.58,97.07,258.01,96,255.38,96z"/>
	</g>
</g>
<g>
</g>
<g>
</g>
<g>
</g>
<g>
</g>
<g>
</g>
<g>
</g>
<g>
</g>
<g>
</g>
<g>
</g>
<g>
</g>
<g>
</g>
<g>
</g>
<g>
</g>
<g>
</g>
<g>
</g>
</svg>
