<?xml version="1.0" encoding="iso-8859-1"?>
<!-- Generator: Adobe Illustrator 22.0.0, SVG Export Plug-In . SVG Version: 6.00 Build 0)  -->
<svg version="1.1" id="Capa_1" xmlns="http://www.w3.org/2000/svg" xmlns:xlink="http://www.w3.org/1999/xlink" x="0px" y="0px"
	 viewBox="0 0 512 512" style="enable-background:new 0 0 512 512;" xml:space="preserve">
<g id="XMLID_1876_">
	<g id="XMLID_956_">
		<path id="XMLID_1877_" style="fill:#F5737F;" d="M198.732,106.419c-30.119-37.05-69.464-61.517-109.529-70.179
			c-15.687,48.857-9.36,109.122,21.85,163.18c12.865,22.283,28.763,41.422,46.514,56.994l50.013,15.685L198.732,106.419z"/>
		<path id="XMLID_1875_" style="fill:#F5737F;" d="M313.268,106.419c30.119-37.05,69.464-61.517,109.529-70.179
			c15.687,48.857,9.36,109.122-21.85,163.18c-12.865,22.283-28.763,41.422-46.514,56.994l-50.013,15.685L313.268,106.419z"/>
	</g>
	<path id="XMLID_1788_" style="fill:#91DEF5;" d="M256.127,318.951l14.592-18.074C293.632,272.496,328.151,256,364.627,256h0
		c12.749,0,25.417,2.02,37.534,5.985l0,0c29.64,9.699,61.726,8.826,90.795-2.47L502,256v47.283C502,383.208,437.208,448,357.283,448
		h0c-41.887,0-80.534-22.541-101.156-59l0,0V318.951z"/>
	<path id="XMLID_1787_" style="fill:#91DEF5;" d="M256.127,318.951l-14.592-18.074C218.622,272.496,184.103,256,147.627,256h0
		c-12.749,0-25.417,2.02-37.534,5.985l0,0c-29.64,9.699-61.726,8.826-90.795-2.47L10.254,256v47.283
		C10.254,383.208,75.046,448,154.971,448h0c41.887,0,80.534-22.541,101.156-59l0,0V318.951z"/>
	<g id="XMLID_1784_">
		<path id="XMLID_1785_" style="fill:#FFFFFF;" d="M74.102,328.553C84.878,362.961,117.057,388,154.971,388
			c15.773,0,30.648-6.65,41.156-17.93l11.706-14.571l-11.706-15.351l-1.276-1.581C183.272,324.226,166.06,316,147.627,316
			c-6.422,0-12.772,1.013-18.875,3.009C111.003,324.818,92.576,327.993,74.102,328.553z"/>
	</g>
	<g id="XMLID_1781_">
		<path id="XMLID_1782_" style="fill:#FFFFFF;" d="M383.501,319.009c-6.102-1.996-12.452-3.009-18.875-3.009
			c-18.433,0-35.645,8.226-47.224,22.567l-1.276,1.581L304.421,355.5l11.706,14.571C326.634,381.35,341.509,388,357.283,388
			c37.915,0,70.093-25.039,80.87-59.447C419.678,327.993,401.251,324.818,383.501,319.009z"/>
	</g>
	<ellipse id="XMLID_1832_" style="fill:#D8EC84;" cx="256" cy="162.243" rx="62.667" ry="152.243"/>
	<g id="XMLID_701_">
		<path id="XMLID_946_" d="M507.647,247.747c-2.724-1.863-6.191-2.263-9.269-1.068l-9.044,3.515
			c-26.84,10.43-56.695,11.242-84.063,2.287c-8.698-2.846-17.633-4.743-26.688-5.714c11.733-12.761,22.124-26.932,31.025-42.348
			c15.932-27.594,25.948-56.962,29.773-87.289c3.669-29.102,1.228-58.13-7.061-83.948c-1.573-4.899-6.608-7.807-11.635-6.717
			c-38.255,8.271-74.654,29.68-104.002,60.882c-1.767-5.266-3.722-10.463-5.876-15.584c-11.373-27.038-28.001-50.956-48.089-69.17
			c-3.812-3.456-9.623-3.456-13.435,0c-20.087,18.214-36.716,42.133-48.089,69.17c-2.154,5.121-4.109,10.319-5.876,15.584
			C165.97,56.145,129.571,34.736,91.316,26.465c-5.03-1.089-10.062,1.818-11.635,6.717C71.392,59,68.951,88.029,72.62,117.13
			c3.825,30.326,13.841,59.694,29.773,87.289c8.906,15.425,19.305,29.604,31.046,42.371c-8.976,0.979-17.832,2.869-26.456,5.691
			c-27.367,8.955-57.221,8.144-84.063-2.287l-9.044-3.515c-3.078-1.198-6.545-0.796-9.269,1.068
			c-2.724,1.864-4.353,4.952-4.353,8.253v47.283C0.254,388.595,69.66,458,154.971,458c40.052,0,77.518-19.11,101.143-50.74
			c15.953,21.436,38.258,37.247,64.151,45.192c0.978,0.301,1.965,0.443,2.937,0.443c4.277,0,8.236-2.767,9.557-7.069
			c1.62-5.279-1.347-10.873-6.626-12.493c-25.271-7.755-46.488-24.407-60.006-47.027v-63.821l12.373-15.326
			C299.617,281.002,331.009,266,364.627,266c11.712,0,23.294,1.847,34.424,5.488c30.204,9.883,63.018,9.511,92.949-0.963v32.758
			c0,55.094-32.976,104.101-84.01,124.851c-5.116,2.08-7.577,7.914-5.497,13.03c2.081,5.116,7.916,7.574,13.03,5.497
			c28.176-11.456,52.192-30.817,69.451-55.99c2.519-3.674,4.849-7.447,7.026-11.292V502c0,5.522,4.477,10,10,10s10-4.478,10-10
			V303.283V256C512,252.699,510.371,249.611,507.647,247.747z M350.186,246.792c-14.731,1.616-28.918,5.69-42.047,11.979
			c0.915-1.999,1.811-4.011,2.667-6.047c1.298-3.086,2.513-6.204,3.671-9.343c0.458-0.509,0.884-1.057,1.24-1.673l30.949-53.605
			l56.474-15.132c-3.201,7.286-6.816,14.455-10.853,21.448C380.809,214.298,366.651,231.899,350.186,246.792z M306.964,135.071
			c-0.358,0.272-0.708,0.562-1.035,0.889L266,175.888v-58.471c0.133-0.12,0.27-0.232,0.398-0.36l29.152-29.152
			C301.054,102.839,304.919,118.708,306.964,135.071z M246,289.314c-17.356-21.476-30.018-48.064-36.854-77.018l36.531,36.532
			c0.104,0.104,0.215,0.193,0.322,0.291V289.314z M266,204.174l42.659-42.659c0.001,0.243,0.008,0.485,0.008,0.729
			c0,47.824-15.651,93.643-42.667,127.071V204.174z M246,220.865l-42.026-42.026c-0.417-5.495-0.641-11.031-0.641-16.596
			c0-13.753,1.303-27.337,3.788-40.513l38.154,38.154c0.233,0.233,0.476,0.45,0.725,0.655V220.865z M363.622,118.734l-10.205-38.084
			c14.98-11.857,31.24-21.209,48.169-27.672L363.622,118.734z M418.872,63.038c4.384,27.853,1.866,57.876-7.141,86.931
			c-0.04,0.01-0.081,0.015-0.121,0.026l-50.802,13.612L418.872,63.038z M336.684,95.471l11.532,43.038
			c0.372,1.387,1.019,2.627,1.865,3.679l-22.082,38.247c0.442-6.008,0.668-12.073,0.668-18.192c0-17.816-1.882-35.188-5.611-51.968
			C327.408,105.08,331.957,100.139,336.684,95.471z M287.202,68.445c-0.723,0.423-1.409,0.933-2.029,1.553L266,89.17V35.172
			C274.134,45.237,281.246,56.416,287.202,68.445z M246,35.172v97.151l-33.302-33.302C219.976,75.184,231.31,53.349,246,35.172z
			 M188.944,110.276c-3.728,16.78-5.611,34.151-5.611,51.967c0,6.119,0.226,12.185,0.668,18.193l-25.219-43.681l12.18-45.457
			C177.26,97.167,183.272,103.503,188.944,110.276z M110.414,52.978c15.234,5.815,29.925,13.973,43.63,24.189l-9.403,35.093
			L110.414,52.978z M93.128,63.038l70.346,121.842l-55.931-14.987C92.802,134.89,87.732,97.321,93.128,63.038z M119.344,193.762
			l58.272,15.614l18.667,32.332c0.356,0.617,0.782,1.164,1.24,1.674c1.157,3.139,2.373,6.257,3.67,9.342
			c0.834,1.983,1.705,3.944,2.595,5.893c-13.122-6.241-27.295-10.271-42.006-11.853c-16.452-14.887-30.6-32.479-42.07-52.345
			C119.588,194.201,119.469,193.98,119.344,193.762z M154.971,438c-74.283,0-134.717-60.434-134.717-134.717v-32.758
			c29.932,10.476,62.746,10.848,92.949,0.963c11.13-3.642,22.712-5.488,34.424-5.488c3.01,0,6.002,0.125,8.971,0.363
			c0.099,0.01,0.197,0.014,0.296,0.021c30.071,2.489,57.697,17.038,76.861,40.774l12.373,15.326v63.819
			C227.013,418.258,192.324,438,154.971,438z"/>
		<path id="XMLID_1001_" d="M204.079,334.085c-0.056-0.073-0.113-0.146-0.171-0.218l-1.276-1.581
			C189.145,315.581,169.097,306,147.627,306c-7.479,0-14.875,1.179-21.985,3.505c-16.719,5.471-34.161,8.517-51.843,9.053
			c-3.127,0.095-6.03,1.647-7.845,4.197c-1.814,2.549-2.331,5.801-1.396,8.786c5.9,18.84,17.909,35.762,33.814,47.648
			C114.839,391.495,134.411,398,154.971,398c18.306,0,35.973-7.695,48.473-21.113c0.167-0.179,0.326-0.363,0.479-0.553l11.707-14.57
			c2.88-3.585,2.944-8.671,0.156-12.327L204.079,334.085z M188.572,363.508C179.857,372.722,167.63,378,154.971,378
			c-28.426,0-53.723-15.787-66.38-40.372c14.726-1.467,29.228-4.52,43.27-9.114c5.098-1.668,10.402-2.514,15.766-2.514
			c15.396,0,29.772,6.87,39.443,18.849l1.189,1.474l6.876,9.017L188.572,363.508z"/>
		<path id="XMLID_1190_" d="M447.695,331.541c0.935-2.985,0.419-6.237-1.396-8.786c-1.814-2.55-4.717-4.103-7.845-4.197
			c-17.682-0.536-35.125-3.582-51.843-9.053c0,0-0.001,0-0.001-0.001c-7.108-2.325-14.505-3.504-21.983-3.504
			c-21.47,0-41.518,9.581-55.004,26.286l-1.276,1.581c-0.058,0.071-0.115,0.145-0.171,0.218l-11.707,15.352
			c-2.788,3.656-2.724,8.742,0.156,12.327l11.707,14.57c0.153,0.189,0.312,0.374,0.479,0.553
			C321.31,390.305,338.977,398,357.283,398c20.561,0,40.132-6.505,56.598-18.811C429.786,367.303,441.795,350.381,447.695,331.541z
			 M357.283,378c-12.659,0-24.885-5.278-33.601-14.492l-6.563-8.169l6.876-9.017l1.189-1.474
			C334.855,332.87,349.232,326,364.627,326c5.363,0,10.667,0.846,15.766,2.514l-0.001-0.001c14.043,4.596,28.546,7.648,43.271,9.115
			C411.005,362.213,385.709,378,357.283,378z"/>
		<path id="XMLID_1192_" d="M33.834,480.083c-1.057,0-1.917-0.859-1.917-1.916c0-5.522-4.477-10-10-10s-10,4.478-10,10
			c0,1.057-0.86,1.916-1.917,1.916c-5.523,0-10,4.478-10,10s4.477,10,10,10c1.057,0,1.917,0.86,1.917,1.917c0,5.522,4.477,10,10,10
			s10-4.478,10-10c0-1.057,0.86-1.917,1.917-1.917c5.523,0,10-4.478,10-10S39.357,480.083,33.834,480.083z"/>
		<path id="XMLID_1194_" d="M478.167,199.823c1.057,0,1.917,0.86,1.917,1.917c0,5.523,4.477,10,10,10s10-4.477,10-10
			c0-1.057,0.86-1.917,1.917-1.917c5.523,0,10-4.477,10-10s-4.477-10-10-10c-1.057,0-1.917-0.86-1.917-1.917c0-5.523-4.477-10-10-10
			s-10,4.477-10,10c0,1.057-0.86,1.917-1.917,1.917c-5.523,0-10,4.477-10,10S472.644,199.823,478.167,199.823z"/>
		<path id="XMLID_1195_" d="M367.93,437.81c-2.64,0-5.22,1.07-7.07,2.931c-1.87,1.859-2.93,4.439-2.93,7.069s1.06,5.21,2.93,7.07
			c1.86,1.86,4.43,2.93,7.07,2.93c2.63,0,5.21-1.069,7.07-2.93c1.86-1.86,2.93-4.44,2.93-7.07s-1.07-5.21-2.93-7.069
			C373.14,438.88,370.56,437.81,367.93,437.81z"/>
	</g>
</g>
<g>
</g>
<g>
</g>
<g>
</g>
<g>
</g>
<g>
</g>
<g>
</g>
<g>
</g>
<g>
</g>
<g>
</g>
<g>
</g>
<g>
</g>
<g>
</g>
<g>
</g>
<g>
</g>
<g>
</g>
</svg>
