<?xml version="1.0" encoding="iso-8859-1"?>
<!-- Generator: Adobe Illustrator 22.0.0, SVG Export Plug-In . SVG Version: 6.00 Build 0)  -->
<svg version="1.1" id="Capa_1" xmlns="http://www.w3.org/2000/svg" xmlns:xlink="http://www.w3.org/1999/xlink" x="0px" y="0px"
	 viewBox="0 0 512 512" style="enable-background:new 0 0 512 512;" xml:space="preserve">
<g id="XMLID_2097_">
	<path id="XMLID_2046_" style="fill:#B0E7F8;" d="M414,502H70c-11.046,0-20-8.954-20-20V30c0-11.046,8.954-20,20-20h344
		c11.046,0,20,8.954,20,20v452C434,493.046,425.046,502,414,502z"/>
	<rect id="XMLID_1270_" x="314" y="10" style="fill:#FFE6C0;" width="56" height="492"/>
	
		<rect id="XMLID_1269_" x="108" y="70" transform="matrix(1.570459e-11 1 -1 1.570459e-11 292 20)" style="fill:#FFE6C0;" width="56" height="172"/>
	<polygon id="XMLID_1364_" style="fill:#FBC2C7;" points="410.041,196.08 434.086,280.244 395.597,261.669 371.551,297 342,186.714 
		370,186.714 	"/>
	<polygon id="XMLID_1655_" style="fill:#FBC2C7;" points="273.959,196.08 249.914,280.244 288.403,261.669 312.449,297 342,186.714 
		314,186.714 	"/>
	<path id="XMLID_1325_" style="fill:#F5737F;" d="M241.798,210.54L365.014,156l-123.216-54.54
		C232.48,97.336,222,104.158,222,114.348v83.304C222,207.842,232.48,214.664,241.798,210.54z"/>
	<path id="XMLID_1321_" style="fill:#F5737F;" d="M442.202,210.54L318.986,156l123.216-54.54C451.52,97.336,462,104.158,462,114.348
		v83.304C462,207.842,451.52,214.664,442.202,210.54z"/>
	<path id="XMLID_1322_" style="fill:#FFCB7C;" d="M342,184L342,184c-15.464,0-28-12.536-28-28v0c0-15.464,12.536-28,28-28h0
		c15.464,0,28,12.536,28,28v0C370,171.464,357.464,184,342,184z"/>
	<g id="XMLID_470_">
		<path id="XMLID_715_" d="M461.05,94.155c-5.12-3.332-11.189-4.557-17.05-3.587V30c0-16.542-13.458-30-30-30h-44h-56H70
			C53.458,0,40,13.458,40,30v98v56v115.886c0,5.522,4.477,10,10,10s10-4.478,10-10V194h152v3.652c0,8.181,4.093,15.73,10.95,20.193
			c3.984,2.593,8.542,3.912,13.131,3.912c3.308,0,6.631-0.686,9.765-2.073l12.559-5.559l-18.105,63.373
			c-1.083,3.789,0.161,7.859,3.175,10.397c3.015,2.537,7.238,3.069,10.786,1.355l30.726-14.828L304,302.358V492H70
			c-5.514,0-10-4.486-10-10v-92.114c0-5.522-4.477-10-10-10s-10,4.478-10,10V482c0,16.542,13.458,30,30,30h244h56h44
			c16.542,0,30-13.458,30-30V281.383c0.093-0.807,0.108-1.626,0-2.446v-57.507c1.301,0.215,2.611,0.327,3.919,0.327
			c4.588,0,9.147-1.318,13.131-3.912c6.856-4.463,10.95-12.012,10.95-20.193v-83.304C472,106.167,467.907,98.618,461.05,94.155z
			 M424,30v68.582l-44,19.476V20h34C419.514,20,424,24.486,424,30z M401.921,203.646l16.459,57.915l-18.438-8.897
			c-4.46-2.153-9.826-0.716-12.613,3.379l-11.768,17.291L353.8,192.115c3.711-1.216,7.17-2.988,10.282-5.219L401.921,203.646z
			 M360,156c0,9.925-8.075,18-18,18s-18-8.075-18-18s8.075-18,18-18S360,146.075,360,156z M360,20v102.543
			c-5.361-2.896-11.491-4.543-18-4.543s-12.639,1.647-18,4.543V20H360z M70,20h234v98.058l-58.154-25.741
			c-7.48-3.311-16.04-2.625-22.896,1.839c-6.856,4.463-10.95,12.012-10.95,20.193V118H60V30C60,24.486,64.486,20,70,20z M60,174v-36
			h152v36H60z M237.75,201.396c-1.767,0.78-3.195,0.139-3.89-0.313c-0.695-0.452-1.86-1.5-1.86-3.431V184v-56v-13.652
			c0-1.932,1.166-2.979,1.86-3.431c0.694-0.453,2.123-1.094,3.89-0.313l69.23,30.644C305.062,145.786,304,150.771,304,156
			c0,5.229,1.062,10.214,2.981,14.752L237.75,201.396z M284.057,252.663l-18.4,8.88l16.558-57.958l37.703-16.689
			c3.112,2.23,6.571,4.003,10.282,5.219l-21.762,81.218l-11.768-17.291C293.883,251.947,288.519,250.509,284.057,252.663z M324,492
			V292.528l18-67.177l18,67.177V492H324z M414,492h-34V302.358l19.014-27.937L424,286.48V482C424,487.514,419.514,492,414,492z
			 M452,197.652c0,1.932-1.166,2.979-1.86,3.431c-0.695,0.452-2.125,1.093-3.89,0.313l-69.23-30.644
			C378.938,166.214,380,161.229,380,156c0-5.229-1.062-10.214-2.981-14.752l60.851-26.935c0.022-0.009,0.043-0.019,0.065-0.029
			l8.314-3.68c1.766-0.782,3.195-0.14,3.89,0.313c0.695,0.452,1.86,1.5,1.86,3.431V197.652z"/>
		<path id="XMLID_862_" d="M50,354.89c2.63,0,5.21-1.07,7.07-2.93c1.86-1.87,2.93-4.44,2.93-7.07s-1.07-5.21-2.93-7.08
			c-1.86-1.859-4.44-2.92-7.07-2.92c-2.63,0-5.21,1.061-7.07,2.92c-1.86,1.87-2.93,4.44-2.93,7.08c0,2.63,1.07,5.2,2.93,7.07
			C44.79,353.819,47.37,354.89,50,354.89z"/>
	</g>
</g>
<g>
</g>
<g>
</g>
<g>
</g>
<g>
</g>
<g>
</g>
<g>
</g>
<g>
</g>
<g>
</g>
<g>
</g>
<g>
</g>
<g>
</g>
<g>
</g>
<g>
</g>
<g>
</g>
<g>
</g>
</svg>
