<?xml version="1.0" encoding="iso-8859-1"?>
<!-- Generator: Adobe Illustrator 22.0.0, SVG Export Plug-In . SVG Version: 6.00 Build 0)  -->
<svg version="1.1" id="Capa_1" xmlns="http://www.w3.org/2000/svg" xmlns:xlink="http://www.w3.org/1999/xlink" x="0px" y="0px"
	 viewBox="0 0 512 512" style="enable-background:new 0 0 512 512;" xml:space="preserve">
<g id="XMLID_1000_">
	<path id="XMLID_2344_" style="fill:#CBE558;" d="M384.545,502L384.545,502c-52.619,0-95.275-42.656-95.275-95.274v-95.275h95.275
		c52.619,0,95.274,42.656,95.274,95.274v0C479.819,459.344,437.164,502,384.545,502z"/>
	<path id="XMLID_2343_" style="fill:#B0E7F8;" d="M479.819,120.902h-95.275c-52.619,0-95.274,42.656-95.274,95.274v95.275h95.275
		c52.619,0,95.274-42.656,95.274-95.274V120.902z"/>
	<path id="XMLID_2342_" style="fill:#F5737F;" d="M422.655,178.067h-38.11c-21.047,0-38.11,17.062-38.11,38.11v38.11h38.11
		c21.047,0,38.11-17.062,38.11-38.11V178.067z"/>
	<path id="XMLID_2341_" style="fill:#B0E7F8;" d="M32.181,120.902h95.275c52.619,0,95.274,42.656,95.274,95.274v95.275h-95.275
		c-52.619,0-95.274-42.656-95.274-95.274V120.902z"/>
	<path id="XMLID_2340_" style="fill:#F5737F;" d="M89.345,178.067h38.11c21.047,0,38.11,17.062,38.11,38.11v38.11h-38.11
		c-21.047,0-38.11-17.062-38.11-38.11V178.067z"/>
	<circle id="XMLID_2338_" style="fill:#FFFFFF;" cx="384.545" cy="406.726" r="38.11"/>
	<path id="XMLID_2336_" style="fill:#CBE558;" d="M127.455,502L127.455,502c52.619,0,95.275-42.656,95.275-95.274v-95.275h-95.275
		c-52.619,0-95.274,42.656-95.274,95.274v0C32.181,459.344,74.836,502,127.455,502z"/>
	<circle id="XMLID_2335_" style="fill:#FFFFFF;" cx="127.455" cy="406.726" r="40.095"/>
	<g id="XMLID_1209_">
		<path id="XMLID_2334_" style="fill:#FFD89E;" d="M256,158.251L256,158.251l-0.032,0.019c-20.728,12.556-33.39,35.03-33.39,59.264
			v139.543c0,32.679,11.878,64.243,33.422,88.815l0,0l0.048-0.055c21.42-24.541,33.222-56.013,33.222-88.587V217.443
			C289.27,193.259,276.66,170.824,256,158.251z"/>
		<path id="XMLID_2542_" style="fill:#FFE6C0;" d="M256,158.251L256,158.251l-0.032,0.019
			c-19.419,11.763-31.757,32.23-33.238,54.695v50.485h66.541v-46.008C289.271,193.259,276.66,170.824,256,158.251z"/>
		<path id="XMLID_2543_" style="fill:#FFCB7C;" d="M222.729,359.451v3.96c1.43,30.404,13.122,59.501,33.271,82.481l0.048-0.055
			c20.937-23.988,32.678-54.598,33.198-86.386H222.729z"/>
		<circle id="XMLID_2333_" style="fill:#FFD89E;" cx="256.076" cy="128" r="30.251"/>
	</g>
	<g id="XMLID_541_">
		<path id="XMLID_584_" d="M489.819,216.177v-95.274c0-5.523-4.477-10-10-10h-95.274c-43.736,0-81.324,26.812-97.203,64.86
			c-2.966-4.799-6.432-9.292-10.359-13.379c11.59-7.074,19.344-19.839,19.344-34.383c0-18.567-12.64-34.23-29.764-38.857
			C270.86,50.309,303.863,20,343.824,20c5.523,0,10-4.477,10-10s-4.477-10-10-10c-38.464,0-71.804,22.334-87.749,54.712
			C240.131,22.334,206.79,0,168.327,0c-5.523,0-10,4.477-10,10s4.477,10,10,10c39.961,0,72.964,30.309,77.261,69.143
			c-17.125,4.627-29.764,20.29-29.764,38.857c0,14.488,7.696,27.208,19.212,34.298c-3.947,4.082-7.434,8.571-10.417,13.37
			c-15.901-37.999-53.464-64.766-97.164-64.766H32.181c-5.523,0-10,4.477-10,10v95.274c0,42.055,24.791,78.423,60.523,95.274
			c-35.732,16.851-60.523,53.219-60.523,95.274C22.181,464.774,69.407,512,127.455,512c51.037,0,93.701-36.508,103.265-84.779
			c4.97,8.968,10.906,17.446,17.761,25.264c1.899,2.165,4.663,3.38,7.542,3.38c0.004,0,0.008,0,0.012,0
			c2.884-0.003,5.65-1.279,7.547-3.452c6.827-7.822,12.737-16.302,17.683-25.269C290.799,475.453,333.481,512,384.545,512
			c10.831,0,21.513-1.641,31.75-4.875c5.266-1.664,8.186-7.282,6.522-12.548c-1.664-5.267-7.282-8.186-12.548-6.522
			c-8.285,2.618-16.939,3.945-25.723,3.945c-47.021,0-85.274-38.254-85.274-85.274v-49.475v-35.8h85.274
			c47.021,0,85.274,38.254,85.274,85.274c0,8.914-1.367,17.693-4.063,26.093c-1.688,5.259,1.207,10.89,6.465,12.578
			c5.261,1.688,10.891-1.206,12.578-6.465c3.332-10.378,5.021-21.214,5.021-32.206c0-42.055-24.791-78.423-60.523-95.274
			C465.028,294.6,489.819,258.232,489.819,216.177z M279.271,349.451h-46.541v-28h46.541V349.451z M232.729,301.451v-28h46.541v28
			H232.729z M256.076,107.749c11.167,0,20.251,9.085,20.251,20.251s-9.085,20.251-20.251,20.251s-20.251-9.085-20.251-20.251
			S244.909,107.749,256.076,107.749z M255.984,170.345c14.499,11.124,23.286,28.648,23.286,47.099v36.008h-46.541v-37.274
			c0-0.774-0.013-1.545-0.029-2.315C233.783,196.723,242.381,180.726,255.984,170.345z M42.181,216.177v-85.274h85.274
			c46.264,0,84.013,37.04,85.217,83.019c-0.056,1.202-0.094,2.406-0.094,3.614v83.916h-85.123
			C80.435,301.451,42.181,263.197,42.181,216.177z M212.729,406.726c0,47.021-38.254,85.274-85.274,85.274
			s-85.274-38.254-85.274-85.274s38.254-85.274,85.274-85.274h85.123L212.729,406.726z M255.984,429.814
			c-12.764-17.775-20.599-38.592-22.768-60.363h45.433C276.511,391.198,268.716,412.013,255.984,429.814z M384.545,301.451h-85.274
			v-84.008v-1.267c0-47.021,38.254-85.274,85.274-85.274h85.274v85.274C469.819,263.197,431.565,301.451,384.545,301.451z"/>
		<path id="XMLID_594_" d="M422.655,168.067h-38.11c-26.528,0-48.11,21.582-48.11,48.11v38.11c0,5.523,4.477,10,10,10h38.11
			c26.528,0,48.11-21.583,48.11-48.11v-38.11C432.655,172.544,428.178,168.067,422.655,168.067z M412.655,216.177
			c0,15.5-12.61,28.11-28.11,28.11h-28.11v-28.11c0-15.5,12.61-28.11,28.11-28.11h28.11V216.177z"/>
		<path id="XMLID_767_" d="M127.455,168.067h-38.11c-5.523,0-10,4.477-10,10v38.11c0,26.528,21.582,48.11,48.11,48.11h38.11
			c5.523,0,10-4.478,10-10v-38.11C175.565,189.649,153.983,168.067,127.455,168.067z M155.565,244.287h-28.11
			c-15.5,0-28.11-12.61-28.11-28.11v-28.11h28.11c15.5,0,28.11,12.61,28.11,28.11V244.287z"/>
		<path id="XMLID_781_" d="M336.435,406.726c0,26.527,21.582,48.109,48.11,48.109s48.11-21.582,48.11-48.109
			s-21.582-48.109-48.11-48.109S336.435,380.198,336.435,406.726z M412.655,406.726c0,15.5-12.61,28.109-28.11,28.109
			s-28.11-12.609-28.11-28.109s12.61-28.109,28.11-28.109S412.655,391.226,412.655,406.726z"/>
		<path id="XMLID_1030_" d="M127.455,356.631c-27.623,0-50.095,22.473-50.095,50.095s22.472,50.095,50.095,50.095
			s50.095-22.473,50.095-50.095S155.078,356.631,127.455,356.631z M127.455,436.82c-16.594,0-30.095-13.5-30.095-30.095
			s13.5-30.095,30.095-30.095s30.095,13.5,30.095,30.095S144.049,436.82,127.455,436.82z"/>
		<path id="XMLID_1048_" d="M451.76,464.24c-2.63,0-5.21,1.069-7.07,2.93c-1.86,1.86-2.93,4.439-2.93,7.08
			c0,2.63,1.07,5.2,2.93,7.069c1.86,1.86,4.44,2.921,7.07,2.921s5.21-1.061,7.07-2.921c1.86-1.869,2.93-4.439,2.93-7.069
			c0-2.641-1.07-5.22-2.93-7.08C456.97,465.31,454.39,464.24,451.76,464.24z"/>
	</g>
</g>
<g>
</g>
<g>
</g>
<g>
</g>
<g>
</g>
<g>
</g>
<g>
</g>
<g>
</g>
<g>
</g>
<g>
</g>
<g>
</g>
<g>
</g>
<g>
</g>
<g>
</g>
<g>
</g>
<g>
</g>
</svg>
