<?xml version="1.0" encoding="iso-8859-1"?>
<!-- Generator: Adobe Illustrator 22.0.0, SVG Export Plug-In . SVG Version: 6.00 Build 0)  -->
<svg version="1.1" id="Capa_1" xmlns="http://www.w3.org/2000/svg" xmlns:xlink="http://www.w3.org/1999/xlink" x="0px" y="0px"
	 viewBox="0 0 512 512" style="enable-background:new 0 0 512 512;" xml:space="preserve">
<g id="XMLID_1532_">
	<circle id="XMLID_1535_" style="fill:#F8A2AA;" cx="249.637" cy="182.823" r="82.958"/>
	<path id="XMLID_2339_" style="fill:#CBE558;" d="M93.064,98.967L93.064,98.967C82.01,79.821,57.528,73.261,38.381,84.315l0,0
		c-19.146,11.054-25.706,35.536-14.652,54.683l0.002,0.003c8.849,15.327,11.635,33.422,7.752,50.689
		c-4.227,18.795-1.699,39.163,8.64,57.179c21.645,37.716,70.124,51.16,108.083,29.943c38.915-21.75,52.403-71.048,30.186-109.528
		c-10.349-17.926-26.606-30.313-44.891-36.126C116.492,125.751,101.988,114.425,93.064,98.967z"/>
	<path id="XMLID_2263_" style="fill:#F5737F;" d="M439.826,103.146V10h-55.652v93.146c0,9.062-4.64,17.492-12.295,22.341l0,0
		c-24.83,15.726-39.879,43.07-39.879,72.46v225.84c0,7.684,6.229,13.913,13.913,13.913h132.174c7.684,0,13.913-6.229,13.913-13.913
		v-225.84c0-29.391-15.049-56.735-39.879-72.46l0,0C444.466,120.638,439.826,112.207,439.826,103.146z"/>
	<rect id="XMLID_2260_" x="384.174" y="10" style="fill:#98A1B3;" width="55.652" height="93.146"/>
	<rect id="XMLID_2501_" x="10" y="203.873" style="fill:#FFD89E;" width="492" height="52"/>
	<path id="XMLID_1368_" style="fill:#FFCB7C;" d="M452,502H60c-22.091,0-40-17.909-40-40V256h472v206
		C492,484.091,474.091,502,452,502z"/>
	<path id="XMLID_2230_" style="fill:#FFCB7C;" d="M256,10L256,10c-14.359,0-26,11.641-26,26v193.873c0,14.359,11.641,26,26,26h0
		c14.359,0,26-11.641,26-26V36C282,21.641,270.359,10,256,10z"/>
	<g id="XMLID_563_">
		<path id="XMLID_599_" d="M502,193.873h-0.095c-1.31-31.406-17.703-59.906-44.433-76.835c-4.788-3.032-7.646-8.226-7.646-13.893V10
			c0-5.523-4.477-10-10-10h-55.652c-5.523,0-10,4.477-10,10v93.146c0,5.667-2.858,10.86-7.646,13.893
			c-12.722,8.057-23.096,18.741-30.625,31.107c-8.23-20.515-23.638-37.725-43.903-48.087V36c0-19.851-16.149-36-36-36
			s-36,16.149-36,36v58.701c-22.594,7.581-41.239,23.473-52.342,44.254c-9.03-7.727-19.571-13.654-31.126-17.327
			c-14.877-4.729-27.239-14.553-34.807-27.661c-12.455-21.573-38.661-30.359-61.22-21.705c-5.493-5.841-8.513-13.427-8.513-21.482
			c0-5.523-4.477-10-10-10s-10,4.477-10,10c0,11.935,4.045,23.247,11.48,32.377c-15.989,15.591-20.068,40.635-8.402,60.841
			c0.01,0.018,0.02,0.035,0.03,0.052c7.606,13.202,9.96,28.628,6.627,43.445c-0.473,2.104-0.85,4.236-1.172,6.378H10
			c-5.523,0-10,4.477-10,10v52c0,5.522,4.477,10,10,10V462c0,27.57,22.43,50,50,50h150.263c5.523,0,10-4.478,10-10s-4.477-10-10-10
			H60c-16.542,0-30-13.458-30-30V266h452v196c0,16.542-13.458,30-30,30H301.032c-5.523,0-10,4.478-10,10s4.477,10,10,10H452
			c27.57,0,50-22.43,50-50V265.873c5.523,0,10-4.478,10-10v-52C512,198.35,507.523,193.873,502,193.873z M220,213.873v16
			c0,5.745,1.36,11.177,3.764,16H20v-32H220z M292,229.873v-16h40h160v32H288.236C290.64,241.05,292,235.618,292,229.873z
			 M394.174,20h35.652v73.146h-35.652V20z M377.229,133.935c7.704-4.88,13.138-12.291,15.545-20.789h38.45
			c2.407,8.499,7.841,15.91,15.546,20.789c20.907,13.241,33.829,35.427,35.122,59.938H342.107
			C343.4,169.362,356.322,147.176,377.229,133.935z M322.595,182.823c0,0.789-0.013,1.575-0.038,2.358
			c-0.018,0.553,0.022,1.094,0.092,1.626c-0.269,2.336-0.455,4.692-0.554,7.066H292v-70.478
			C310.966,136.898,322.595,158.861,322.595,182.823z M240,36c0-8.822,7.178-16,16-16s16,7.178,16,16v69.225
			c-0.091,0.776-0.089,1.55,0,2.311v122.338c0,8.822-7.178,16-16,16s-16-7.178-16-16V36z M220,116.131v77.742h-21.927
			c-1.665-11.086-5.402-21.857-11.021-31.589c-1.486-2.574-3.098-5.054-4.813-7.447C189.432,137.492,202.975,123.68,220,116.131z
			 M32.391,134.001c-0.01-0.017-0.02-0.035-0.03-0.052c-3.988-6.936-5.043-15.009-2.972-22.739
			c2.076-7.748,7.045-14.224,13.992-18.235c14.341-8.278,32.743-3.348,41.022,10.992c10.067,17.437,26.428,30.478,46.069,36.722
			c16.601,5.276,30.543,16.497,39.26,31.595c3.928,6.804,6.632,14.033,8.083,21.589H40.839c0.129-0.664,0.252-1.33,0.4-1.989
			C45.681,172.134,42.539,151.577,32.391,134.001z"/>
		<path id="XMLID_609_" d="M135.513,297.852c-3.905-3.904-10.237-3.904-14.142,0l-10.154,10.155l-10.155-10.155
			c-3.905-3.904-10.237-3.904-14.142,0c-3.905,3.905-3.906,10.237,0,14.143l17.226,17.227c1.875,1.875,4.419,2.929,7.071,2.929
			s5.196-1.054,7.071-2.929l17.226-17.227C139.418,308.088,139.418,301.757,135.513,297.852z"/>
		<path id="XMLID_610_" d="M217.893,297.852l-10.154,10.155l-10.155-10.155c-3.906-3.904-10.237-3.904-14.142,0
			c-3.905,3.905-3.906,10.237,0,14.143l17.226,17.227c1.875,1.875,4.419,2.929,7.071,2.929s5.196-1.054,7.071-2.929l17.226-17.227
			c3.905-3.906,3.905-10.237,0-14.143C228.13,293.947,221.798,293.947,217.893,297.852z"/>
		<path id="XMLID_611_" d="M328.558,297.852c-3.905-3.904-10.237-3.904-14.142,0l-10.155,10.155l-10.154-10.155
			c-3.905-3.904-10.237-3.904-14.142,0c-3.905,3.905-3.906,10.236,0,14.143l17.226,17.227c1.875,1.875,4.419,2.929,7.071,2.929
			s5.196-1.054,7.071-2.929l17.226-17.227C332.464,308.089,332.463,301.757,328.558,297.852z"/>
		<path id="XMLID_612_" d="M425.081,297.852c-3.905-3.904-10.237-3.904-14.142,0l-10.155,10.155l-10.154-10.155
			c-3.904-3.904-10.237-3.904-14.142,0c-3.905,3.905-3.906,10.236,0,14.143l17.226,17.227c1.875,1.875,4.419,2.929,7.071,2.929
			s5.196-1.054,7.071-2.929l17.226-17.227C428.986,308.089,428.986,301.757,425.081,297.852z"/>
		<path id="XMLID_613_" d="M135.513,361.239c-3.905-3.904-10.237-3.904-14.143,0l-10.154,10.155l-10.155-10.155
			c-3.905-3.904-10.237-3.904-14.142,0c-3.905,3.905-3.905,10.237,0,14.143l17.226,17.226c1.953,1.952,4.512,2.929,7.071,2.929
			s5.119-0.977,7.071-2.929l17.226-17.226C139.418,371.477,139.418,365.145,135.513,361.239z"/>
		<path id="XMLID_614_" d="M217.893,361.239l-10.154,10.155l-10.155-10.155c-3.905-3.904-10.237-3.904-14.142,0
			c-3.905,3.905-3.905,10.237,0,14.143l17.226,17.226c1.953,1.952,4.512,2.929,7.071,2.929s5.119-0.977,7.071-2.929l17.226-17.226
			c3.905-3.905,3.905-10.237,0-14.143C228.13,357.335,221.798,357.335,217.893,361.239z"/>
		<path id="XMLID_615_" d="M314.417,361.239l-10.155,10.155l-10.154-10.155c-3.905-3.904-10.237-3.904-14.143,0
			c-3.905,3.905-3.905,10.237,0,14.143l17.226,17.226c1.953,1.952,4.512,2.929,7.071,2.929c2.559,0,5.119-0.977,7.071-2.929
			l17.226-17.226c3.905-3.905,3.906-10.237,0-14.143C324.653,357.336,318.322,357.335,314.417,361.239z"/>
		<path id="XMLID_616_" d="M425.081,361.239c-3.905-3.903-10.237-3.904-14.142,0l-10.155,10.155l-10.154-10.155
			c-3.905-3.904-10.237-3.904-14.143,0c-3.905,3.905-3.905,10.237,0,14.143l17.226,17.226c1.953,1.952,4.512,2.929,7.071,2.929
			c2.559,0,5.119-0.977,7.071-2.929l17.226-17.226C428.986,371.477,428.986,365.145,425.081,361.239z"/>
		<path id="XMLID_617_" d="M121.371,424.626l-10.154,10.155l-10.155-10.155c-3.905-3.904-10.237-3.904-14.142,0
			c-3.905,3.905-3.905,10.237,0,14.143l17.226,17.226c1.953,1.952,4.512,2.929,7.071,2.929s5.119-0.977,7.071-2.929l17.226-17.226
			c3.905-3.905,3.905-10.237,0-14.143C131.608,420.722,125.276,420.722,121.371,424.626z"/>
		<path id="XMLID_618_" d="M217.893,424.626l-10.154,10.155l-10.155-10.155c-3.905-3.904-10.237-3.904-14.142,0
			c-3.905,3.905-3.905,10.237,0,14.143l17.226,17.226c1.953,1.952,4.512,2.929,7.071,2.929s5.119-0.977,7.071-2.929l17.226-17.226
			c3.905-3.905,3.905-10.237,0-14.143C228.13,420.722,221.798,420.722,217.893,424.626z"/>
		<path id="XMLID_619_" d="M304.261,458.923c2.559,0,5.119-0.977,7.071-2.929l17.226-17.226c3.905-3.905,3.906-10.237,0-14.143
			c-3.905-3.903-10.237-3.904-14.142,0l-10.155,10.155l-10.154-10.155c-3.905-3.904-10.237-3.904-14.143,0
			c-3.905,3.905-3.905,10.237,0,14.143l17.226,17.226C299.143,457.946,301.702,458.923,304.261,458.923z"/>
		<path id="XMLID_620_" d="M410.939,424.626l-10.155,10.155l-10.154-10.155c-3.905-3.904-10.237-3.904-14.143,0
			c-3.905,3.905-3.905,10.237,0,14.143l17.226,17.226c1.953,1.952,4.512,2.929,7.071,2.929c2.559,0,5.119-0.977,7.071-2.929
			l17.226-17.226c3.905-3.905,3.906-10.237,0-14.143C421.176,420.723,414.844,420.722,410.939,424.626z"/>
		<path id="XMLID_999_" d="M256,492c-2.63,0-5.21,1.069-7.07,2.93c-1.86,1.86-2.93,4.44-2.93,7.07s1.07,5.21,2.93,7.069
			c1.86,1.86,4.44,2.931,7.07,2.931c2.63,0,5.21-1.07,7.07-2.931c1.86-1.859,2.93-4.439,2.93-7.069s-1.07-5.21-2.93-7.07
			S258.63,492,256,492z"/>
	</g>
</g>
<g>
</g>
<g>
</g>
<g>
</g>
<g>
</g>
<g>
</g>
<g>
</g>
<g>
</g>
<g>
</g>
<g>
</g>
<g>
</g>
<g>
</g>
<g>
</g>
<g>
</g>
<g>
</g>
<g>
</g>
</svg>
