<?xml version="1.0" encoding="iso-8859-1"?>
<!-- Generator: Adobe Illustrator 22.0.0, SVG Export Plug-In . SVG Version: 6.00 Build 0)  -->
<svg version="1.1" id="Capa_1" xmlns="http://www.w3.org/2000/svg" xmlns:xlink="http://www.w3.org/1999/xlink" x="0px" y="0px"
	 viewBox="0 0 512.031 512.031" style="enable-background:new 0 0 512.031 512.031;" xml:space="preserve">
<g id="XMLID_359_">
	<path id="XMLID_618_" style="fill:#D8EC84;" d="M400.437,336.32c8.79,7.926,17.227,16.298,25.296,25.104
		c33.117,36.141,58.41,77.822,75.176,123.886l1.106,3.038l-37.588,13.681l-1.106-3.037
		c-25.049-68.823-71.033-126.166-131.602-165.101"/>
	<g id="XMLID_2290_">
		<path id="XMLID_2294_" style="fill:#D8EC84;" d="M342.547,78.263c-1.156-37.415-32.003-67.722-69.432-68.256
			c-18.014-0.257-34.505,6.244-47.101,17.129c-12.597-10.885-29.087-17.386-47.101-17.129
			c-37.429,0.535-68.276,30.841-69.432,68.256c-0.687,22.219,8.912,42.217,24.392,55.594h-0.001l92.142,92.142l92.142-92.142h-0.001
			C333.635,120.48,343.234,100.482,342.547,78.263z"/>
		<path id="XMLID_2293_" style="fill:#D8EC84;" d="M342.547,373.736c-1.156,37.415-32.003,67.722-69.432,68.256
			c-18.014,0.257-34.505-6.244-47.101-17.129c-12.597,10.885-29.087,17.386-47.101,17.129
			c-37.429-0.535-68.276-30.841-69.432-68.256c-0.687-22.219,8.912-42.217,24.392-55.594h-0.001l92.142-92.142l92.142,92.142h-0.001
			C333.635,331.519,343.234,351.517,342.547,373.736z"/>
		<path id="XMLID_2292_" style="fill:#E2F1A1;" d="M373.751,342.532c37.415-1.156,67.722-32.003,68.256-69.432
			c0.257-18.014-6.244-34.505-17.129-47.101c10.885-12.597,17.386-29.087,17.129-47.101c-0.535-37.429-30.841-68.276-68.256-69.432
			c-22.219-0.687-42.217,8.912-55.594,24.392v-0.001l-92.142,92.142l92.142,92.142v-0.001
			C331.533,333.62,351.532,343.219,373.751,342.532z"/>
		<path id="XMLID_2291_" style="fill:#E2F1A1;" d="M78.278,342.532c-37.415-1.156-67.722-32.003-68.256-69.432
			c-0.257-18.014,6.244-34.505,17.129-47.101c-10.885-12.597-17.386-29.087-17.129-47.101c0.535-37.429,30.841-68.276,68.256-69.432
			c22.219-0.687,42.217,8.912,55.594,24.392v-0.001l92.142,92.142l-92.142,92.142v-0.001
			C120.495,333.62,100.497,343.219,78.278,342.532z"/>
	</g>
	<g id="XMLID_986_">
		<path id="XMLID_1210_" d="M511.412,484.929l-1.106-3.039c-17.217-47.304-43.19-90.107-77.199-127.221
			c-5.142-5.612-10.493-11.075-15.961-16.376c4.156-2.885,8.074-6.179,11.696-9.864c14.643-14.898,22.87-34.496,23.165-55.185
			c0.243-16.979-4.852-33.47-14.475-47.245c9.623-13.774,14.718-30.266,14.475-47.244c-0.295-20.689-8.522-40.288-23.165-55.186
			c-14.646-14.901-34.102-23.46-54.781-24.099c-8.4-0.262-16.652,0.774-24.514,2.997c2.221-7.861,3.258-16.112,2.998-24.513v0
			c-0.639-20.68-9.197-40.134-24.099-54.781C313.545,8.53,293.948,0.303,273.258,0.008c-16.956-0.23-33.47,4.852-47.244,14.475
			C212.239,4.86,195.727-0.224,178.77,0.008c-20.689,0.295-40.287,8.522-55.186,23.165c-14.901,14.647-23.46,34.102-24.099,54.782
			c-0.26,8.402,0.777,16.654,2.999,24.515c-7.863-2.223-16.115-3.26-24.515-2.999c-20.68,0.639-40.135,9.198-54.781,24.099
			c-14.643,14.897-22.87,34.496-23.165,55.185c-0.243,16.978,4.852,33.47,14.475,47.244C4.875,239.774-0.22,256.265,0.023,273.243
			c0.295,20.689,8.522,40.287,23.165,55.186c14.646,14.901,34.102,23.46,54.781,24.099c0.847,0.026,1.69,0.039,2.534,0.039
			c7.527,0,14.912-1.044,21.982-3.042c-2.223,7.863-3.26,16.116-3,24.52c0.639,20.68,9.197,40.135,24.099,54.781
			c14.898,14.643,34.496,22.87,55.185,23.165c16.991,0.265,33.47-4.852,47.245-14.475c13.461,9.402,29.516,14.482,46.084,14.482
			c0.385,0,0.774-0.002,1.16-0.008c20.689-0.295,40.287-8.522,55.186-23.165c14.901-14.646,23.46-34.102,24.099-54.781
			c0.141-4.555-0.099-9.067-0.702-13.496c11.573,9.155,22.498,19.087,32.656,29.718c1.965,2.057,4.596,3.092,7.231,3.092
			c2.483,0,4.97-0.919,6.907-2.77c3.993-3.815,4.138-10.146,0.322-14.139c-8.019-8.393-16.484-16.377-25.347-23.916
			c0.15-0.004,0.299-0.002,0.449-0.007c8.36-0.258,16.511-1.832,24.234-4.574c6.915,6.456,13.653,13.228,20.066,20.228
			c30.699,33.502,54.49,71.899,70.779,114.211l-18.798,6.842c-5.001-12.948-10.787-25.624-17.239-37.763
			c-2.592-4.877-8.647-6.729-13.523-4.137c-4.877,2.592-6.729,8.647-4.137,13.523c7.066,13.295,13.285,27.275,18.482,41.554
			l1.105,3.037c1.478,4.062,5.313,6.583,9.397,6.583c1.136,0,2.29-0.195,3.419-0.606l37.588-13.681
			C510.624,495.856,513.299,490.118,511.412,484.929z M119.476,78.572c0.984-31.838,27.711-58.111,59.579-58.566
			c0.291-0.004,0.581-0.006,0.871-0.006c14.542,0,28.557,5.203,39.55,14.703c3.754,3.245,9.322,3.245,13.076,0
			c11.212-9.689,25.53-14.934,40.421-14.696c31.868,0.455,58.595,26.728,59.579,58.566c0.468,15.156-4.675,29.656-14.299,41.002
			c-2.608,2.307-5.088,4.791-7.412,7.456l-44.05,44.051l-30.776,30.776v-45.062c0-5.523-4.478-10-10-10s-10,4.477-10,10v45.062
			l-1.326-1.326l-73.518-73.519c-2.318-2.656-4.79-5.132-7.39-7.432C124.153,108.233,119.008,93.73,119.476,78.572z M78.586,332.537
			c-31.838-0.984-58.11-27.711-58.565-59.58c-0.213-14.853,5.007-29.207,14.696-40.419c3.245-3.755,3.245-9.322,0-13.077
			c-9.689-11.212-14.909-25.567-14.696-40.42c0.455-31.868,26.728-58.596,58.565-59.58c15.156-0.457,29.661,4.681,41.009,14.306
			c2.302,2.602,4.782,5.077,7.441,7.397l74.835,74.835H156.81c-5.522,0-10,4.477-10,10s4.478,10,10,10h45.062l-74.85,74.849
			c-2.653,2.316-5.127,4.785-7.425,7.382C108.252,327.856,93.754,332.998,78.586,332.537z M332.552,373.427
			c-0.984,31.838-27.711,58.11-59.58,58.565c-14.83,0.221-29.208-5.007-40.42-14.696c-1.877-1.622-4.208-2.434-6.538-2.434
			s-4.661,0.812-6.538,2.434c-11.213,9.69-25.577,14.878-40.421,14.696c-31.868-0.455-58.595-26.728-59.579-58.565
			c-0.468-15.149,4.67-29.643,14.287-40.987c2.611-2.309,5.092-4.798,7.42-7.466l59.589-59.589l15.242-15.242v45.062
			c0,5.522,4.478,10,10,10s10-4.478,10-10v-45.062l74.848,74.85c2.323,2.661,4.798,5.145,7.403,7.448
			C327.882,343.783,333.02,358.278,332.552,373.427z M373.442,332.537c-15.142,0.467-29.659-4.679-41.011-14.309
			c-2.303-2.603-4.782-5.077-7.442-7.397l-74.832-74.832h45.062c5.522,0,10-4.477,10-10s-4.478-10-10-10h-45.061l74.849-74.848
			c2.652-2.315,5.125-4.783,7.421-7.378c11.351-9.631,25.863-14.776,41.014-14.312c31.838,0.984,58.11,27.711,58.565,59.58
			c0.213,14.853-5.007,29.207-14.696,40.419c-3.245,3.755-3.245,9.322,0,13.077c9.689,11.212,14.909,25.567,14.696,40.42
			C431.552,304.826,405.28,331.553,373.442,332.537z"/>
		<path id="XMLID_1227_" d="M420.494,407.964c-2.63,0-5.21,1.06-7.069,2.92c-1.86,1.859-2.931,4.439-2.931,7.08
			c0,2.63,1.07,5.199,2.931,7.069c1.859,1.86,4.439,2.931,7.069,2.931s5.21-1.07,7.07-2.931c1.87-1.87,2.93-4.439,2.93-7.069
			c0-2.641-1.06-5.21-2.93-7.08C425.704,409.024,423.134,407.964,420.494,407.964z"/>
	</g>
</g>
<g>
</g>
<g>
</g>
<g>
</g>
<g>
</g>
<g>
</g>
<g>
</g>
<g>
</g>
<g>
</g>
<g>
</g>
<g>
</g>
<g>
</g>
<g>
</g>
<g>
</g>
<g>
</g>
<g>
</g>
</svg>
