<?xml version="1.0" encoding="iso-8859-1"?>
<!-- Generator: Adobe Illustrator 22.0.0, SVG Export Plug-In . SVG Version: 6.00 Build 0)  -->
<svg version="1.1" id="Capa_1" xmlns="http://www.w3.org/2000/svg" xmlns:xlink="http://www.w3.org/1999/xlink" x="0px" y="0px"
	 viewBox="0 0 512 512" style="enable-background:new 0 0 512 512;" xml:space="preserve">
<g id="XMLID_1824_">
	<path id="XMLID_1817_" style="fill:#8690A6;" d="M306,158v138.086v-0.836h22.625C424.377,295.25,502,372.873,502,468.625V477
		c0,13.807-11.193,25-25,25H55c-13.807,0-25-11.193-25-25V158"/>
	<path id="XMLID_2299_" style="fill:#FFFFFF;" d="M30,477c0,13.807,11.193,25,25,25h422c13.807,0,25-11.193,25-25v-8.375
		c0-6.62-0.384-13.148-1.106-19.575H30V477z"/>
	<g id="XMLID_822_">
		<path id="XMLID_1821_" style="fill:#F6838D;" d="M294,158H42c-17.673,0-32-14.327-32-32V42c0-17.673,14.327-32,32-32h252
			c17.673,0,32,14.327,32,32v84C326,143.673,311.673,158,294,158z"/>
		<g id="XMLID_572_">
			<path id="XMLID_622_" d="M328.625,285.25H316V161.758c11.99-7.404,20-20.661,20-35.758V42c0-23.159-18.841-42-42-42H42
				C18.841,0,0,18.841,0,42v84c0,15.097,8.01,28.354,20,35.758V477c0,19.299,15.701,35,35,35h422c19.299,0,35-15.701,35-35v-8.375
				C512,367.512,429.738,285.25,328.625,285.25z M42,168h81c5.522,0,10-4.477,10-10s-4.478-10-10-10H42c-12.131,0-22-9.869-22-22V42
				c0-12.131,9.869-22,22-22h252c12.131,0,22,9.869,22,22v84c0,12.131-9.869,22-22,22h-81c-5.522,0-10,4.477-10,10s4.478,10,10,10
				h81c0.671,0,1.337-0.02,2-0.051V295.25c0,5.522,4.478,10,10,10h22.625c79.619,0,146.107,57.254,160.484,132.75H40V167.949
				C40.663,167.98,41.329,168,42,168z M492,477c0,8.271-6.729,15-15,15H55c-8.271,0-15-6.729-15-15v-19h451.645
				c0.227,3.514,0.355,7.055,0.355,10.625V477z"/>
			<path id="XMLID_624_" d="M81.876,352.724c1.853,3.208,5.213,5.002,8.67,5.002c1.696,0,3.416-0.433,4.99-1.342l14.199-8.198
				l-1.406,5.249c-1.43,5.335,1.736,10.817,7.071,12.247c0.867,0.232,1.737,0.344,2.594,0.344c4.415,0,8.456-2.947,9.653-7.415
				l6.582-24.566L158,320.32v27.447l-17.984,17.984c-3.905,3.905-3.905,10.237,0,14.143c3.906,3.904,10.236,3.904,14.143,0
				l3.842-3.842v16.396c0,5.522,4.478,10,10,10s10-4.478,10-10v-16.396l3.842,3.842c1.953,1.952,4.512,2.929,7.071,2.929
				s5.118-0.977,7.071-2.929c3.905-3.905,3.905-10.237,0-14.143L178,347.768V320.32l23.77,13.724l6.582,24.566
				c1.197,4.468,5.237,7.415,9.653,7.415c0.856,0,1.728-0.111,2.594-0.344c5.335-1.43,8.501-6.912,7.071-12.247l-1.406-5.249
				l14.199,8.198c1.575,0.909,3.294,1.342,4.99,1.342c3.456,0,6.818-1.794,8.67-5.002c2.762-4.783,1.123-10.898-3.66-13.66
				l-14.199-8.198l5.249-1.407c5.334-1.43,8.5-6.913,7.07-12.248s-6.911-8.502-12.248-7.07l-24.566,6.583L188,303l23.771-13.724
				l24.566,6.582c0.867,0.232,1.737,0.344,2.594,0.344c4.415-0.001,8.456-2.947,9.653-7.415c1.43-5.335-1.736-10.817-7.071-12.247
				l-5.247-1.406l14.198-8.198c4.783-2.762,6.422-8.877,3.66-13.66s-8.877-6.422-13.66-3.66l-14.199,8.198l1.406-5.249
				c1.43-5.334-1.736-10.818-7.071-12.247c-5.335-1.431-10.817,1.737-12.247,7.071l-6.582,24.567L178,285.68v-27.447l17.984-17.984
				c3.905-3.905,3.905-10.237,0-14.143c-3.906-3.905-10.236-3.905-14.143,0L178,229.947v-16.395c0-5.523-4.478-10-10-10
				s-10,4.477-10,10v16.395l-3.842-3.842c-3.906-3.905-10.236-3.905-14.143,0c-3.905,3.905-3.905,10.237,0,14.143L158,258.232
				v27.447l-23.77-13.724l-6.582-24.567c-1.43-5.335-6.913-8.503-12.247-7.071c-5.335,1.429-8.501,6.913-7.071,12.247l1.406,5.249
				l-14.199-8.198c-4.785-2.762-10.899-1.122-13.66,3.66c-2.762,4.783-1.123,10.898,3.66,13.66l14.198,8.198l-5.247,1.406
				c-5.335,1.43-8.501,6.912-7.071,12.247c1.197,4.468,5.237,7.415,9.653,7.415c0.856,0,1.728-0.111,2.594-0.344l24.566-6.582
				L148,303l-23.77,13.724l-24.566-6.583c-5.338-1.429-10.818,1.737-12.248,7.07c-1.43,5.335,1.736,10.818,7.07,12.248l5.249,1.407
				l-14.199,8.198C80.753,341.825,79.114,347.94,81.876,352.724z"/>
			<path id="XMLID_625_" d="M168,168c2.63,0,5.21-1.07,7.069-2.93c1.86-1.86,2.931-4.44,2.931-7.07c0-2.63-1.07-5.21-2.931-7.07
				C173.21,149.07,170.63,148,168,148s-5.21,1.07-7.07,2.93c-1.86,1.86-2.93,4.44-2.93,7.07c0,2.63,1.069,5.21,2.93,7.07
				S165.359,168,168,168z"/>
		</g>
	</g>
</g>
<g>
</g>
<g>
</g>
<g>
</g>
<g>
</g>
<g>
</g>
<g>
</g>
<g>
</g>
<g>
</g>
<g>
</g>
<g>
</g>
<g>
</g>
<g>
</g>
<g>
</g>
<g>
</g>
<g>
</g>
</svg>
