<?xml version="1.0" encoding="iso-8859-1"?>
<!-- Generator: Adobe Illustrator 22.0.0, SVG Export Plug-In . SVG Version: 6.00 Build 0)  -->
<svg version="1.1" id="Capa_1" xmlns="http://www.w3.org/2000/svg" xmlns:xlink="http://www.w3.org/1999/xlink" x="0px" y="0px"
	 viewBox="0 0 512.143 512.143" style="enable-background:new 0 0 512.143 512.143;" xml:space="preserve">
<g id="XMLID_1299_">
	<g id="XMLID_1313_">
		<path id="XMLID_1319_" style="fill:#FFD89E;" d="M183.455,334.292l21.396,14.905c5.237,3.648,4.561,11.598-1.217,14.309
			l-28.582,13.412c-5.778,2.711-12.324-1.849-11.783-8.208l2.269-26.68"/>
		<circle id="XMLID_1318_" style="fill:#FFCB7C;" cx="124.695" cy="232.727" r="114.629"/>
	</g>
	<g id="XMLID_2430_">
		<path id="XMLID_1312_" style="fill:#F8A2AA;" d="M328.688,334.292l-21.396,14.905c-5.237,3.648-4.561,11.598,1.217,14.309
			l28.582,13.412c5.778,2.711,12.324-1.849,11.783-8.208l-2.269-26.68"/>
		<circle id="XMLID_2436_" style="fill:#F5737F;" cx="387.448" cy="232.727" r="114.629"/>
	</g>
	<g id="XMLID_1307_">
		<path id="XMLID_2429_" style="fill:#B0E7F8;" d="M267.862,282.529l14.7,25.462c4.041,6.998-1.01,15.746-9.091,15.746h-34.585
			c-8.081,0-13.132-8.748-9.091-15.746l15.112-26.176"/>
		<circle id="XMLID_1308_" style="fill:#91DEF5;" cx="256.039" cy="144.96" r="134.889"/>
	</g>
	<g id="XMLID_1300_">
		<path id="XMLID_1402_" style="fill:#FFCB7C;" d="M256.039,178.942l-23.906,17.449c-6.693,4.885-15.719-1.673-13.141-9.548
			l9.207-28.128l-24.062-17.402c-6.706-4.85-3.275-15.448,5.001-15.448h29.695l9.086-28.108c2.547-7.878,13.693-7.878,16.24,0
			l9.086,28.108h29.695c8.276,0,11.707,10.598,5.001,15.448l-24.062,17.402l9.207,28.128c2.578,7.875-6.448,14.432-13.141,9.548
			L256.039,178.942z"/>
		<g id="XMLID_1280_">
			<path id="XMLID_2022_" d="M57.409,315.55c-2.63,0-5.21,1.07-7.07,2.931c-1.86,1.859-2.93,4.439-2.93,7.069s1.069,5.21,2.93,7.07
				s4.44,2.93,7.07,2.93s5.21-1.069,7.069-2.93c1.87-1.86,2.931-4.44,2.931-7.07s-1.061-5.21-2.931-7.069
				C62.619,316.62,60.049,315.55,57.409,315.55z"/>
			<path id="XMLID_2025_" d="M504.664,190.385c-11.311-31.31-34.136-56.341-64.272-70.482
				c-14.058-6.597-28.875-10.453-44.144-11.519C380,46.142,323.3,0.071,256.039,0.071c-67.263,0-123.963,46.074-140.21,108.319
				c-15.246,1.072-30.04,4.926-44.078,11.514c-30.137,14.142-52.962,39.173-64.272,70.482c-11.31,31.31-9.75,65.149,4.393,95.286
				c1.802,3.841,3.817,7.626,5.99,11.251c1.874,3.128,5.188,4.861,8.587,4.861c1.749,0,3.521-0.46,5.131-1.425
				c4.737-2.839,6.276-8.98,3.437-13.718c-1.827-3.049-3.522-6.233-5.039-9.466c-11.873-25.3-13.182-53.709-3.688-79.995
				c9.495-26.285,28.658-47.299,53.958-59.172c10.189-4.781,20.846-7.848,31.806-9.176c-0.589,5.297-0.902,10.676-0.902,16.127
				c0,65.931,44.268,121.711,104.639,139.196c-10.625,18.846-26.843,33.997-46.646,43.29c-21.629,10.149-45.318,12.607-68.51,7.11
				c-5.366-1.271-10.763,2.049-12.037,7.424c-1.273,5.374,2.05,10.763,7.424,12.037c9.605,2.276,19.281,3.408,28.901,3.408
				c9.969,0,19.876-1.222,29.58-3.638l-1.197,14.075c-0.561,6.589,2.345,12.779,7.771,16.56c3.151,2.194,6.768,3.31,10.42,3.31
				c2.638,0,5.295-0.582,7.805-1.761l5.501-2.581l62.314,123.195c0.014,0.027,0.032,0.051,0.046,0.078
				c0.041,0.078,0.078,0.158,0.121,0.234c0.079,0.143,0.169,0.28,0.254,0.419c0.079,0.129,0.154,0.26,0.239,0.385
				c0.022,0.033,0.044,0.067,0.067,0.099c0.022,0.032,0.048,0.06,0.07,0.092c0.079,0.11,0.164,0.216,0.248,0.324
				c0.063,0.08,0.121,0.164,0.186,0.243c0.091,0.11,0.19,0.214,0.286,0.32c0.073,0.081,0.146,0.161,0.221,0.239
				c0.048,0.05,0.093,0.103,0.143,0.151c0.149,0.148,0.309,0.286,0.468,0.426c0.082,0.071,0.159,0.147,0.243,0.216
				c0.025,0.02,0.049,0.042,0.073,0.062c0.118,0.094,0.246,0.179,0.369,0.269c0.13,0.095,0.258,0.192,0.392,0.28
				c0.076,0.05,0.155,0.098,0.233,0.146c0.079,0.049,0.16,0.095,0.24,0.142c0.134,0.078,0.268,0.156,0.405,0.228
				c0.035,0.018,0.066,0.04,0.101,0.057c0.062,0.031,0.126,0.052,0.188,0.082c0.112,0.054,0.221,0.112,0.335,0.161
				c0.015,0.006,0.029,0.015,0.044,0.021c0.12,0.052,0.244,0.094,0.365,0.14c0.113,0.044,0.226,0.085,0.34,0.124
				c0.158,0.054,0.317,0.106,0.479,0.153c0.079,0.023,0.158,0.041,0.238,0.062c0.123,0.032,0.245,0.067,0.368,0.094
				c0.2,0.044,0.404,0.076,0.608,0.108c0.092,0.015,0.182,0.035,0.275,0.047c0.069,0.009,0.137,0.019,0.206,0.027
				c0.239,0.026,0.482,0.033,0.726,0.042c0.113,0.004,0.226,0.019,0.338,0.019c0.003,0,0.005,0,0.008,0s0.005,0,0.008,0
				c0.111,0,0.223-0.016,0.335-0.019c0.245-0.008,0.49-0.016,0.73-0.042c0.068-0.007,0.135-0.018,0.202-0.026
				c0.093-0.012,0.185-0.032,0.277-0.047c0.205-0.032,0.409-0.064,0.61-0.108c0.121-0.027,0.241-0.061,0.362-0.093
				c0.081-0.021,0.162-0.039,0.242-0.063c0.163-0.047,0.322-0.099,0.481-0.153c0.111-0.038,0.221-0.079,0.331-0.121
				c0.124-0.048,0.25-0.09,0.371-0.142c0.014-0.006,0.027-0.014,0.042-0.02c0.114-0.05,0.224-0.108,0.336-0.162
				c0.062-0.03,0.126-0.05,0.187-0.081c0.035-0.018,0.067-0.04,0.102-0.058c0.138-0.072,0.272-0.15,0.406-0.228
				c0.081-0.047,0.161-0.093,0.241-0.142c0.078-0.048,0.156-0.095,0.232-0.146c0.135-0.089,0.265-0.187,0.396-0.282
				c0.122-0.089,0.248-0.172,0.365-0.266c0.026-0.021,0.051-0.043,0.076-0.064c0.085-0.07,0.164-0.147,0.247-0.219
				c0.157-0.138,0.315-0.274,0.463-0.421c0.049-0.049,0.094-0.101,0.143-0.151c0.076-0.078,0.149-0.159,0.223-0.24
				c0.096-0.106,0.194-0.209,0.285-0.319c0.067-0.081,0.128-0.168,0.193-0.252c0.08-0.103,0.162-0.204,0.238-0.31
				c0.023-0.033,0.05-0.063,0.073-0.096c0.023-0.033,0.044-0.066,0.067-0.099c0.087-0.127,0.163-0.261,0.244-0.393
				c0.084-0.137,0.172-0.271,0.25-0.411c0.042-0.077,0.08-0.156,0.121-0.234c0.014-0.027,0.032-0.05,0.046-0.077l62.376-123.2
				l5.504,2.583c2.511,1.179,5.167,1.761,7.806,1.761c3.651,0,7.27-1.116,10.42-3.31c5.426-3.78,8.331-9.971,7.771-16.56
				l-1.198-14.089c9.765,2.426,19.735,3.649,29.728,3.649c14.274-0.001,28.597-2.485,42.421-7.479
				c31.309-11.311,56.34-34.136,70.482-64.272C514.414,255.535,515.974,221.695,504.664,190.385z M131.151,144.96
				c0-68.864,56.024-124.889,124.889-124.889S380.928,76.095,380.928,144.96s-56.024,124.889-124.889,124.889
				S131.151,213.824,131.151,144.96z M273.902,312.989c0.071,0.123,0.145,0.25,0,0.499c-0.144,0.249-0.289,0.249-0.431,0.249
				h-34.585c-0.142,0-0.287,0-0.431-0.249s-0.07-0.375,0-0.498l13.398-23.206c1.391,0.04,2.785,0.065,4.186,0.065
				c1.492,0,2.977-0.03,4.458-0.075L273.902,312.989z M173.484,366.608l1.696-19.942c0.822-0.365,1.644-0.731,2.461-1.115
				c0.888-0.417,1.769-0.844,2.645-1.28l16.421,11.439L173.484,366.608z M210.567,340.991l-11.669-8.129
				c7.148-5.291,13.696-11.315,19.534-17.977c0.244,2.965,1.14,5.895,2.704,8.603c3.705,6.418,10.341,10.249,17.751,10.249h7.153
				v126.407l-43.124-85.255l4.967-2.331c5.985-2.81,9.895-8.421,10.454-15.009C218.898,350.961,215.992,344.771,210.567,340.991z
				 M266.039,460.181V333.737h7.432c7.41,0,14.046-3.831,17.751-10.248c1.526-2.642,2.413-5.495,2.682-8.385
				c5.79,6.575,12.272,12.526,19.342,17.759l-11.669,8.129c-5.426,3.779-8.331,9.97-7.771,16.559
				c0.56,6.588,4.469,12.199,10.455,15.009l4.963,2.329L266.039,460.181z M338.659,366.608l-23.223-10.897l16.421-11.439
				c0.876,0.436,1.757,0.863,2.645,1.28c0.817,0.383,1.639,0.75,2.461,1.114L338.659,366.608z M482.166,277.175
				c-11.873,25.3-32.887,44.463-59.172,53.958c-26.285,9.493-54.694,8.185-79.995-3.688c-19.809-9.296-36.031-24.454-46.655-43.307
				c60.343-17.502,104.584-73.269,104.584-139.179c0-5.454-0.313-10.836-0.903-16.135c10.983,1.323,21.662,4.393,31.871,9.184
				c25.3,11.873,44.463,32.887,53.958,59.172C495.348,223.466,494.039,251.875,482.166,277.175z"/>
			<path id="XMLID_2035_" d="M274.049,204.468c6.519,4.76,15.288,4.769,21.82,0.024c6.53-4.745,9.231-13.087,6.721-20.76
				l-6.938-21.191l18.148-13.124c6.533-4.726,9.255-13.055,6.771-20.726s-9.569-12.826-17.633-12.826h-22.418l-6.848-21.183
				c-2.48-7.676-9.567-12.833-17.634-12.834c-0.001,0-0.001,0-0.001,0c-8.066,0-15.154,5.157-17.636,12.833l-6.848,21.184h-22.418
				c-8.063,0-15.149,5.154-17.633,12.826c-2.482,7.672,0.239,16.001,6.772,20.726l18.147,13.124l-6.937,21.191
				c-2.512,7.672,0.188,16.015,6.72,20.76c3.26,2.369,7.077,3.552,10.894,3.552c3.831,0,7.661-1.192,10.927-3.576l18.011-13.146
				L274.049,204.468z M229.912,185.633l7.792-23.806c1.353-4.132-0.12-8.666-3.644-11.214l-20.392-14.747h25.165
				c4.338,0,8.181-2.797,9.516-6.924l7.69-23.791l7.689,23.791c1.335,4.127,5.178,6.924,9.516,6.924h25.166l-20.393,14.747
				c-3.523,2.548-4.996,7.082-3.644,11.214l7.794,23.806l-20.233-14.768c-1.756-1.282-3.825-1.923-5.896-1.923
				c-2.069,0-4.14,0.641-5.896,1.923L229.912,185.633z"/>
		</g>
	</g>
</g>
<g>
</g>
<g>
</g>
<g>
</g>
<g>
</g>
<g>
</g>
<g>
</g>
<g>
</g>
<g>
</g>
<g>
</g>
<g>
</g>
<g>
</g>
<g>
</g>
<g>
</g>
<g>
</g>
<g>
</g>
</svg>
