<?xml version="1.0" encoding="iso-8859-1"?>
<!-- Generator: Adobe Illustrator 22.0.0, SVG Export Plug-In . SVG Version: 6.00 Build 0)  -->
<svg version="1.1" id="Capa_1" xmlns="http://www.w3.org/2000/svg" xmlns:xlink="http://www.w3.org/1999/xlink" x="0px" y="0px"
	 viewBox="0 0 512.01 512.01" style="enable-background:new 0 0 512.01 512.01;" xml:space="preserve">
<g id="XMLID_1722_">
	<rect id="XMLID_1736_" x="30.005" y="194.01" style="fill:#B0E7F8;" width="452" height="268"/>
	<polygon id="XMLID_1735_" style="fill:#F5737F;" points="30.005,462.01 143.069,194.01 256.132,462.01 	"/>
	<polygon id="XMLID_1734_" style="fill:#F5737F;" points="256.005,462.01 369.069,194.01 482.132,462.01 	"/>
	<path id="XMLID_1733_" style="fill:#DFF6FC;" d="M482.005,502.01h-452c-11.046,0-20-8.954-20-20v0c0-11.046,8.954-20,20-20h452
		c11.046,0,20,8.954,20,20v0C502.005,493.056,493.051,502.01,482.005,502.01z"/>
	<path id="XMLID_1732_" style="fill:#DFF6FC;" d="M482.005,194.01h-452c-11.046,0-20-8.954-20-20v0c0-11.046,8.954-20,20-20h452
		c11.046,0,20,8.954,20,20v0C502.005,185.056,493.051,194.01,482.005,194.01z"/>
	<g id="XMLID_1730_">
		<path id="XMLID_1731_" style="fill:#FFD89E;" d="M228.566,105.25L56.505,12.418c-9.718-5.25-21.852-1.628-27.102,8.09l0,0
			c-5.25,9.718-1.628,21.852,8.09,27.102l172.062,92.833"/>
	</g>
	<g id="XMLID_1728_">
		<path id="XMLID_1729_" style="fill:#FFD89E;" d="M283.444,105.25l172.061-92.833c9.718-5.25,21.852-1.628,27.102,8.09l0,0
			c5.25,9.718,1.628,21.852-8.09,27.102l-172.062,92.833"/>
	</g>
	<circle id="XMLID_1727_" style="fill:#FFCB7C;" cx="232.132" cy="130.01" r="24"/>
	<circle id="XMLID_1726_" style="fill:#FFCB7C;" cx="280.132" cy="130.01" r="24"/>
	<g id="XMLID_1236_">
		<path id="XMLID_1332_" d="M492.005,453.731V202.29c11.639-4.128,20-15.243,20-28.28c0-16.542-13.458-30-30-30H316.903
			l162.367-87.602c14.554-7.863,19.997-26.1,12.135-40.654c-3.809-7.05-10.135-12.195-17.813-14.488
			c-7.681-2.292-15.792-1.456-22.835,2.35l-171.279,92.41c-9.099,0.173-17.336,3.929-23.346,9.924
			c-6.069-6.054-14.408-9.827-23.613-9.931L61.258,3.619c-7.05-3.808-15.161-4.643-22.84-2.352
			C30.74,3.56,24.413,8.705,20.605,15.755c-7.862,14.554-2.419,32.791,12.14,40.656l162.363,87.599H30.005
			c-16.542,0-30,13.458-30,30c0,13.036,8.361,24.152,20,28.28v251.44c-11.639,4.128-20,15.243-20,28.28c0,16.542,13.458,30,30,30
			h452c16.542,0,30-13.458,30-30C512.005,468.974,503.644,457.859,492.005,453.731z M127.996,204.01L40.005,412.58V204.01H127.996z
			 M143.069,219.737L241.06,452.01H45.077L143.069,219.737z M467.06,452.01H271.077l97.991-232.273L467.06,452.01z M384.141,204.01
			h87.864v208.269L384.141,204.01z M460.258,21.216c2.351-1.271,5.055-1.547,7.613-0.784c2.56,0.764,4.669,2.479,5.938,4.829
			c2.62,4.852,0.806,10.931-4.04,13.549l-156.332,84.346c-1.398-6.8-4.838-12.86-9.641-17.524L460.258,21.216z M280.132,116.01
			c7.72,0,14,6.28,14,14s-6.28,14-14,14s-14-6.28-14-14S272.412,116.01,280.132,116.01z M246.132,130.01c0,7.72-6.28,14-14,14
			s-14-6.28-14-14s6.28-14,14-14S246.132,122.291,246.132,130.01z M38.201,25.261c1.27-2.35,3.379-4.065,5.938-4.829
			c2.562-0.765,5.264-0.485,7.618,0.787l156.618,84.5c-4.785,4.68-8.199,10.754-9.572,17.561L42.245,38.812
			C37.395,36.192,35.58,30.112,38.201,25.261z M30.005,164.01h452c5.514,0,10,4.486,10,10s-4.486,10-10,10H301.131
			c-5.522,0-10,4.477-10,10s4.478,10,10,10h52.865l-97.927,232.123L158.141,204.01h52.994c5.522,0,10-4.477,10-10s-4.478-10-10-10
			H30.005c-5.514,0-10-4.486-10-10S24.492,164.01,30.005,164.01z M482.005,492.01h-452c-5.514,0-10-4.486-10-10s4.486-10,10-10h226
			h0.127h225.873c5.514,0,10,4.486,10,10S487.519,492.01,482.005,492.01z"/>
		<path id="XMLID_1349_" d="M256.135,204.01c2.63,0,5.21-1.07,7.07-2.93c1.859-1.86,2.93-4.44,2.93-7.07c0-2.63-1.07-5.21-2.93-7.07
			c-1.86-1.86-4.44-2.93-7.07-2.93c-2.64,0-5.21,1.07-7.07,2.93c-1.87,1.86-2.93,4.44-2.93,7.07c0,2.63,1.06,5.21,2.93,7.07
			C250.925,202.94,253.495,204.01,256.135,204.01z"/>
	</g>
</g>
<g>
</g>
<g>
</g>
<g>
</g>
<g>
</g>
<g>
</g>
<g>
</g>
<g>
</g>
<g>
</g>
<g>
</g>
<g>
</g>
<g>
</g>
<g>
</g>
<g>
</g>
<g>
</g>
<g>
</g>
</svg>
