<?xml version="1.0" encoding="iso-8859-1"?>
<!-- Generator: Adobe Illustrator 22.0.0, SVG Export Plug-In . SVG Version: 6.00 Build 0)  -->
<svg version="1.1" id="Capa_1" xmlns="http://www.w3.org/2000/svg" xmlns:xlink="http://www.w3.org/1999/xlink" x="0px" y="0px"
	 viewBox="0 0 512 512" style="enable-background:new 0 0 512 512;" xml:space="preserve">
<g id="XMLID_2841_">
	<circle id="XMLID_1208_" style="fill:#CBE558;" cx="351.575" cy="90" r="80"/>
	<path id="XMLID_2049_" style="fill:#DFF6FC;" d="M311.575,502h-176c-22.091,0-40-17.909-40-40V90h256v372
		C351.575,484.091,333.666,502,311.575,502z"/>
	<rect id="XMLID_1267_" x="135.575" y="90" style="fill:#FFFFFF;" width="176" height="372"/>
	<rect id="XMLID_2048_" x="135.575" y="214" style="fill:#E2F1A1;" width="176" height="248"/>
	<rect id="XMLID_776_" x="135.575" y="338" style="fill:#E2F1A1;" width="176" height="124"/>
	<g id="XMLID_1268_">
		<path id="XMLID_1269_" style="fill:#B0E7F8;" d="M233.29,462L143.642,50H80.425V10h79.333c9.407,0,17.543,6.556,19.543,15.748
			L274.425,462H233.29z"/>
	</g>
	<g id="XMLID_641_">
		<path id="XMLID_658_" d="M429.693,134.656c7.557-13.168,11.882-28.416,11.882-44.656s-4.325-31.489-11.882-44.656
			c-0.06-0.114-0.111-0.231-0.176-0.344c-0.088-0.153-0.189-0.293-0.284-0.44C413.586,17.923,384.636,0,351.575,0
			s-62.012,17.923-77.658,44.56c-0.095,0.147-0.196,0.287-0.285,0.44c-0.065,0.113-0.116,0.229-0.176,0.344
			c-5.984,10.427-9.936,22.161-11.323,34.656h-60.767l-12.293-56.378C186.094,9.934,173.766,0,159.758,0H80.425
			c-5.522,0-10,4.477-10,10v40c0,5.523,4.478,10,10,10h55.159l4.352,20H95.575c-5.522,0-10,4.477-10,10v372c0,27.57,22.43,50,50,50
			h176c27.57,0,50-22.43,50-50V321c0-5.522-4.478-10-10-10s-10,4.478-10,10v141c0,16.542-13.458,30-30,30h-176
			c-16.542,0-30-13.458-30-30V100h20v362c0,5.522,4.478,10,10,10c0,0,138.826,0.002,138.841,0.002
			c0.012,0,37.159-0.002,37.159-0.002c5.522,0,10-4.478,10-10V100h20v131c0,5.523,4.478,10,10,10s10-4.477,10-10v-51.559
			c28.896-3.209,53.707-20.152,67.739-44.138c0.065-0.104,0.142-0.196,0.204-0.303C429.582,134.887,429.633,134.771,429.693,134.656
			z M421.575,90c0,9.175-1.792,17.935-5.016,25.971L371.575,90l44.984-25.971C419.782,72.065,421.575,80.825,421.575,90z
			 M406.533,46.723L361.575,72.68V20.726C379.737,23.336,395.659,32.945,406.533,46.723z M341.575,20.726V72.68l-44.958-25.956
			C307.49,32.945,323.412,23.336,341.575,20.726z M286.591,64.029L314.254,80H282.3C283.1,74.438,284.56,69.091,286.591,64.029z
			 M90.425,40V20h69.333c4.669,0,8.779,3.312,9.772,7.878L262.01,452h-20.661L153.414,47.874c-1-4.596-5.068-7.874-9.771-7.874
			H90.425z M166.918,204h-21.343v-98.087L166.918,204z M145.575,224h25.695l49.611,228h-75.306V224z M282.48,452l-49.715-228h68.81
			v228H282.48z M301.575,204h-73.171l-22.677-104h95.848V204z M361.575,159.274V107.32l44.958,25.956
			C395.659,147.055,379.737,156.664,361.575,159.274z"/>
		<path id="XMLID_672_" d="M351.575,266.003c-2.63,0-5.21,1.06-7.07,2.93c-1.86,1.86-2.93,4.431-2.93,7.07
			c0,2.63,1.069,5.2,2.93,7.07c1.86,1.859,4.44,2.93,7.07,2.93s5.21-1.07,7.069-2.93c1.86-1.87,2.931-4.44,2.931-7.07
			c0-2.64-1.07-5.21-2.931-7.07C356.785,267.063,354.205,266.003,351.575,266.003z"/>
	</g>
</g>
<g>
</g>
<g>
</g>
<g>
</g>
<g>
</g>
<g>
</g>
<g>
</g>
<g>
</g>
<g>
</g>
<g>
</g>
<g>
</g>
<g>
</g>
<g>
</g>
<g>
</g>
<g>
</g>
<g>
</g>
</svg>
