<?xml version="1.0" encoding="iso-8859-1"?>
<!-- Generator: Adobe Illustrator 22.0.0, SVG Export Plug-In . SVG Version: 6.00 Build 0)  -->
<svg version="1.1" id="Capa_1" xmlns="http://www.w3.org/2000/svg" xmlns:xlink="http://www.w3.org/1999/xlink" x="0px" y="0px"
	 viewBox="0 0 512.003 512.003" style="enable-background:new 0 0 512.003 512.003;" xml:space="preserve">
<g id="XMLID_1033_">
	<path id="XMLID_1028_" style="fill:#FF9D6C;" d="M351.205,90.001c-16.634,0-32.636,3.69-47.599,10.487
		C288.64,93.691,272.636,90.001,256,90.001s-32.64,3.69-47.606,10.487c-14.963-6.798-30.964-10.487-47.599-10.487
		C77.513,90.001,10,182.231,10,296.001s67.513,206,150.795,206c16.634,0,32.636-3.69,47.599-10.487
		c14.965,6.797,30.969,10.487,47.606,10.487s32.64-3.69,47.606-10.487c14.963,6.798,30.964,10.487,47.599,10.487
		c83.282,0,150.795-92.229,150.795-206S434.487,90.001,351.205,90.001z"/>
	<path id="XMLID_619_" style="fill:#FFE6C0;" d="M382.347,337.005c-21.46,6.925-43.697,12.117-66.537,15.449v17.528
		c0,4.004-3.246,7.25-7.25,7.25h-25.5c-4.004,0-7.25-3.246-7.25-7.25v-13.676c-6.565,0.312-13.167,0.489-19.81,0.489
		c-6.729,0-13.414-0.181-20.063-0.501v13.688c0,4.004-3.246,7.25-7.25,7.25h-25.5c-4.004,0-7.25-3.246-7.25-7.25v-17.566
		c-22.751-3.333-44.902-8.512-66.283-15.411h-3.409c19.358,52.904,70.146,90.663,129.755,90.663s110.397-37.759,129.755-90.663
		H382.347z"/>
	<path id="XMLID_570_" style="fill:#FFE6C0;" d="M280.203,273.053l91.356-74.437l1.226,2.026
		c13.304,21.982,14.723,49.163,3.779,72.411l0,0H280.203z"/>
	<path id="XMLID_569_" style="fill:#FFE6C0;" d="M231.796,273.053l-91.356-74.437l-1.226,2.026
		c-13.304,21.982-14.723,49.163-3.779,72.411l0,0H231.796z"/>
	<path id="XMLID_568_" style="fill:#D8EC84;" d="M321.086,92.778L321.086,92.778c-8.833-16.306-23.035-29.053-40.197-36.079
		L280,56.335V10.001h-48v46.333l-0.889,0.364c-17.162,7.026-31.365,19.773-40.197,36.079l0,0"/>
	<g id="XMLID_1315_">
		<path id="XMLID_1359_" d="M500.021,330.977c-5.459-0.893-10.589,2.815-11.475,8.266c-7.012,43.144-24.69,82.231-49.779,110.063
			c-25.18,27.932-55.458,42.695-87.562,42.695c-14.831,0-29.454-3.228-43.463-9.592c-2.628-1.192-5.643-1.194-8.272,0
			c-14.014,6.364-28.639,9.592-43.47,9.592s-29.456-3.228-43.47-9.592c-2.629-1.193-5.644-1.193-8.272,0
			c-14.009,6.364-28.632,9.592-43.463,9.592C83.16,492.001,20,404.077,20,296.001c0-108.075,63.16-196,140.795-196
			c14.831,0,29.454,3.227,43.463,9.592c2.629,1.194,5.644,1.194,8.272,0c14.013-6.365,28.638-9.592,43.47-9.592
			s29.457,3.227,43.47,9.592c2.629,1.193,5.644,1.194,8.272,0c14.009-6.365,28.632-9.592,43.463-9.592
			c32.104,0,62.383,14.764,87.563,42.696c25.089,27.832,42.768,66.919,49.779,110.063c0.886,5.451,6.013,9.158,11.475,8.266
			c5.451-0.886,9.152-6.023,8.266-11.474c-7.62-46.891-27.033-89.596-54.665-120.247c-28.661-31.795-65.034-49.305-102.417-49.305
			c-8.276,0-16.486,0.842-24.582,2.504c-8.95-14.028-21.662-25.384-36.623-32.678V10.001c0-5.523-4.478-10-10-10h-48
			c-5.522,0-10,4.477-10,10v39.827c-14.961,7.294-27.673,18.649-36.623,32.678c-8.096-1.663-16.306-2.504-24.582-2.504
			c-43.55,0-84.283,22.881-114.697,64.429C16.371,185.04,0,238.869,0,296.001c0,57.133,16.371,110.961,46.098,151.57
			c30.414,41.548,71.147,64.43,114.697,64.43c16.242,0,32.232-3.223,47.6-9.587c15.371,6.364,31.364,9.587,47.605,9.587
			s32.234-3.223,47.604-9.587c15.368,6.364,31.358,9.587,47.601,9.587c37.383,0,73.755-17.51,102.416-49.304
			c27.632-30.651,47.045-73.355,54.665-120.246C509.173,337,505.472,331.863,500.021,330.977z M234.899,65.954l0.889-0.364
			c3.758-1.538,6.212-5.195,6.212-9.255V20.001h28v36.333c0,4.06,2.454,7.717,6.212,9.255l0.889,0.363
			c11.628,4.76,21.748,12.594,29.307,22.514c-0.936,0.363-1.871,0.736-2.802,1.122c-15.37-6.364-31.363-9.587-47.605-9.587
			s-32.235,3.223-47.605,9.587c-0.932-0.386-1.866-0.759-2.802-1.122C213.151,78.547,223.271,70.714,234.899,65.954z"/>
		<path id="XMLID_1362_" d="M116.854,340.441c10.327,28.225,28.785,52.391,53.378,69.884c25.148,17.889,54.807,27.344,85.769,27.344
			s60.62-9.455,85.769-27.344c24.593-17.493,43.051-41.659,53.378-69.884c1.123-3.067,0.677-6.488-1.194-9.165
			s-4.931-4.271-8.196-4.271h-3.409c-1.043,0-2.079,0.163-3.071,0.483c-21.022,6.783-42.861,11.854-64.909,15.07
			c-4.913,0.717-8.557,4.931-8.557,9.896v14.778h-20v-10.926c0-2.734-1.12-5.35-3.099-7.236s-4.637-2.868-7.375-2.753
			c-6.766,0.321-13.09,0.478-19.336,0.478c-6.253,0-12.841-0.165-19.582-0.489c-2.745-0.135-5.4,0.862-7.38,2.749
			c-1.98,1.888-3.102,4.504-3.102,7.239v10.938h-20v-14.816c0-4.963-3.64-9.175-8.551-9.895
			c-21.965-3.218-43.72-8.275-64.661-15.033c-0.992-0.32-2.028-0.483-3.071-0.483h-3.409c-3.266,0-6.325,1.595-8.196,4.271
			S115.73,337.374,116.854,340.441z M185.937,360.967v9.015c0,9.512,7.738,17.25,17.25,17.25h25.5c9.512,0,17.25-7.738,17.25-17.25
			v-3.315c6.805,0.169,13.196,0.169,19.873,0.008v3.308c0,9.512,7.738,17.25,17.25,17.25h25.5c9.512,0,17.25-7.738,17.25-17.25
			v-8.972c14.247-2.379,28.379-5.492,42.253-9.308c-22.334,40.125-65.203,65.966-112.063,65.966s-89.729-25.841-112.063-65.966
			C157.727,355.494,171.777,358.594,185.937,360.967z"/>
		<path id="XMLID_1368_" d="M280.203,283.053h96.362c3.873,0,7.398-2.236,9.048-5.741c12.399-26.342,10.803-56.939-4.272-81.848
			l-1.227-2.026c-1.499-2.476-3.997-4.182-6.85-4.675c-2.854-0.493-5.778,0.273-8.021,2.101l-91.356,74.438
			c-3.28,2.672-4.523,7.118-3.104,11.104C272.2,280.391,275.973,283.053,280.203,283.053z M368.463,214.038
			c6.688,15.538,7.229,33.033,1.44,49.015h-61.596L368.463,214.038z"/>
		<path id="XMLID_1379_" d="M135.435,283.053h96.362c4.23,0,8.003-2.662,9.421-6.647c1.419-3.986,0.176-8.433-3.104-11.104
			l-91.356-74.438c-2.243-1.829-5.171-2.595-8.021-2.101c-2.853,0.494-5.351,2.199-6.85,4.675l-1.228,2.027
			c-15.074,24.909-16.671,55.506-4.271,81.848C128.036,280.817,131.562,283.053,135.435,283.053z M143.537,214.038l60.155,49.015
			h-61.596C136.308,247.071,136.849,229.576,143.537,214.038z"/>
		<path id="XMLID_1380_" d="M509.073,288.931c-1.86-1.86-4.44-2.93-7.07-2.93c-2.64,0-5.21,1.069-7.07,2.93
			c-1.87,1.86-2.93,4.44-2.93,7.07s1.06,5.21,2.93,7.069c1.86,1.86,4.431,2.931,7.07,2.931c2.63,0,5.21-1.07,7.07-2.931
			c1.859-1.859,2.93-4.439,2.93-7.069S510.933,290.792,509.073,288.931z"/>
	</g>
</g>
<g>
</g>
<g>
</g>
<g>
</g>
<g>
</g>
<g>
</g>
<g>
</g>
<g>
</g>
<g>
</g>
<g>
</g>
<g>
</g>
<g>
</g>
<g>
</g>
<g>
</g>
<g>
</g>
<g>
</g>
</svg>
