<?xml version="1.0" encoding="iso-8859-1"?>
<!-- Generator: Adobe Illustrator 22.0.0, SVG Export Plug-In . SVG Version: 6.00 Build 0)  -->
<svg version="1.1" id="Capa_1" xmlns="http://www.w3.org/2000/svg" xmlns:xlink="http://www.w3.org/1999/xlink" x="0px" y="0px"
	 viewBox="0 0 512 512" style="enable-background:new 0 0 512 512;" xml:space="preserve">
<g id="XMLID_1467_">
	<polygon id="XMLID_1460_" style="fill:#FFD89E;" points="286.09,446 222.09,446 222.09,42 254.26,10 286.09,42 	"/>
	<path id="XMLID_1459_" style="fill:#FFD89E;" d="M298.09,446h-88c-30.928,0-56,25.072-56,56v0h200v0
		C354.09,471.072,329.018,446,298.09,446z"/>
	<path id="XMLID_1458_" style="fill:#FFCB7C;" d="M298.09,446h-88c-30.928,0-56,25.072-56,56v0h200v0
		C354.09,471.072,329.018,446,298.09,446z"/>
	<polygon id="XMLID_754_" style="fill:#FFEDD1;" points="408.964,115.747 110.248,195.788 89.542,118.514 388.258,38.473 
		437.248,66.757 	"/>
	<polygon id="XMLID_756_" style="fill:#FFEDD1;" points="114.75,244.042 424.004,244.042 424.004,324.042 114.75,324.042 
		74.75,284.042 	"/>
	<g id="XMLID_103_">
		<path id="XMLID_118_" d="M411.552,125.406c2.562-0.687,4.746-2.362,6.072-4.659l28.284-48.99c2.762-4.783,1.123-10.899-3.66-13.66
			l-48.99-28.284c-2.296-1.326-5.025-1.685-7.588-0.999l-89.58,24.003V42c0-2.643-1.046-5.178-2.91-7.052l-31.83-32
			c-1.871-1.88-4.411-2.941-7.063-2.948c-0.009,0-0.018,0-0.026,0c-2.643,0-5.178,1.046-7.052,2.91l-32.17,32
			c-1.887,1.877-2.948,4.429-2.948,7.09v33.324l-125.136,33.53c-2.562,0.687-4.746,2.362-6.072,4.659s-1.686,5.026-0.999,7.588
			l20.706,77.274c0.687,2.562,2.362,4.746,4.659,6.072c1.534,0.885,3.26,1.34,5,1.34c0.866,0,1.736-0.113,2.588-0.341l99.254-26.595
			v55.189h-97.34c-2.652,0-5.196,1.054-7.071,2.929l-40,40c-3.905,3.905-3.905,10.237,0,14.143l40,40
			c1.875,1.875,4.419,2.929,7.071,2.929h97.34V436h-2c-36.393,0-66,29.607-66,66c0,5.523,4.477,10,10,10h55c5.523,0,10-4.477,10-10
			s-4.477-10-10-10h-43.905c4.579-20.572,22.975-36,44.905-36h12h64h12c21.931,0,40.327,15.428,44.905,36H299.09
			c-5.523,0-10,4.477-10,10s4.477,10,10,10h55c5.523,0,10-4.477,10-10c0-36.393-29.607-66-66-66h-2V334.042h127.914
			c5.523,0,10-4.477,10-10v-80c0-5.523-4.477-10-10-10H296.09v-77.697L411.552,125.406z M232.09,46.158l22.132-22.016l21.868,21.984
			v12.049l-44,11.79V46.158z M101.79,125.585l285.056-76.38l36.742,21.213l-21.213,36.742l-285.056,76.381L101.79,125.585z
			 M276.09,436h-44V334.042h44V436z M414.004,314.042H118.892l-30-30l30-30h295.112V314.042z M276.09,234.042h-44v-60.548l44-11.79
			V234.042z"/>
		<path id="XMLID_123_" d="M254.089,492c-2.63,0-5.21,1.07-7.07,2.93c-1.86,1.86-2.93,4.44-2.93,7.07c0,2.63,1.07,5.21,2.93,7.07
			c1.86,1.86,4.44,2.93,7.07,2.93c2.63,0,5.21-1.07,7.07-2.93c1.86-1.86,2.93-4.44,2.93-7.07c0-2.63-1.07-5.21-2.93-7.07
			C259.299,493.07,256.719,492,254.089,492z"/>
	</g>
</g>
<g>
</g>
<g>
</g>
<g>
</g>
<g>
</g>
<g>
</g>
<g>
</g>
<g>
</g>
<g>
</g>
<g>
</g>
<g>
</g>
<g>
</g>
<g>
</g>
<g>
</g>
<g>
</g>
<g>
</g>
</svg>
