<?xml version="1.0" encoding="iso-8859-1"?>
<!-- Generator: Adobe Illustrator 22.0.0, SVG Export Plug-In . SVG Version: 6.00 Build 0)  -->
<svg version="1.1" id="Capa_1" xmlns="http://www.w3.org/2000/svg" xmlns:xlink="http://www.w3.org/1999/xlink" x="0px" y="0px"
	 viewBox="0 0 512 512" style="enable-background:new 0 0 512 512;" xml:space="preserve">
<g id="XMLID_953_">
	<path id="XMLID_876_" style="fill:#CC9E83;" d="M60.789,501.999h384.422C406.501,436.136,334.92,391.917,253,391.917
		S99.499,436.136,60.789,501.999z"/>
	<g id="XMLID_1218_">
		<path id="XMLID_929_" style="fill:#CC9E83;" d="M226.515,430.499v-50.1c0-70.354-14.525-139.95-42.666-204.43l0,0l-39.666,1.36
			l0,0c21.341,62.893,32.228,128.859,32.228,195.273v57.896"/>
		<path id="XMLID_1256_" style="fill:#D8EC84;" d="M168,141.708l111.723,111.723c11.292-30.841,4.568-66.788-20.184-91.539
			S198.84,130.417,168,141.708z"/>
		<path id="XMLID_1254_" style="fill:#D8EC84;" d="M168,141.708L56.277,253.431c-11.292-30.841-4.568-66.788,20.184-91.539
			S137.159,130.417,168,141.708z"/>
		<path id="XMLID_1257_" style="fill:#D8EC84;" d="M168,141.649h158c-13.823-29.792-43.996-50.456-79-50.456
			S181.823,111.858,168,141.649z"/>
		<path id="XMLID_1255_" style="fill:#E2F1A1;" d="M168.101,136.401l72.795-126.085c-30.143-2.695-60.534,11.863-76.662,39.796
			S150.696,111.644,168.101,136.401z"/>
		<path id="XMLID_1253_" style="fill:#E2F1A1;" d="M168,141.649H10c13.823-29.792,43.996-50.456,79-50.456
			S154.177,111.858,168,141.649z"/>
		<g id="XMLID_1140_">
			<circle id="XMLID_1143_" style="fill:#FFCB7C;" cx="168" cy="112.299" r="23.818"/>
			<circle id="XMLID_1142_" style="fill:#FFCB7C;" cx="144.182" cy="153.511" r="23.818"/>
			<circle id="XMLID_1141_" style="fill:#FFCB7C;" cx="191.818" cy="153.511" r="23.818"/>
		</g>
	</g>
	<g id="XMLID_1220_">
		<path id="XMLID_1287_" style="fill:#D8EC84;" d="M379,256.045l-86.974,86.974c-8.79-24.009-3.556-51.993,15.713-71.261
			C327.007,252.489,354.991,247.254,379,256.045z"/>
		<path id="XMLID_928_" style="fill:#CC9E83;" d="M322.251,435.375L322.251,435.375c0-56.654,13.847-112.449,40.336-162.529
			l0.436-0.824L379,255.999l19.727,19.773l-1.517,4.731c-16.405,51.162-24.757,104.563-24.757,158.291v0"/>
		<path id="XMLID_1286_" style="fill:#E2F1A1;" d="M378.921,251.913l-56.67-98.155c23.466-2.098,47.125,9.235,59.68,30.98
			C394.486,206.484,392.471,232.64,378.921,251.913z"/>
		<path id="XMLID_1285_" style="fill:#D8EC84;" d="M379,256.045l86.974,86.974c8.79-24.009,3.556-51.993-15.713-71.261
			C430.993,252.489,403.009,247.254,379,256.045z"/>
		<path id="XMLID_1288_" style="fill:#E2F1A1;" d="M379,255.999H256c10.761-23.192,34.25-39.279,61.5-39.279
			C344.75,216.72,368.239,232.806,379,255.999z"/>
		<path id="XMLID_1284_" style="fill:#D8EC84;" d="M379,255.999h123c-10.761-23.192-34.25-39.279-61.5-39.279
			C413.25,216.72,389.761,232.806,379,255.999z"/>
	</g>
	<g id="XMLID_62_">
		<path id="XMLID_134_" d="M511.071,251.79c-12.704-27.379-40.405-45.07-70.571-45.07c-14.458,0-28.343,4.072-40.288,11.318
			c0.38-13.184-2.796-26.479-9.62-38.299c-11.628-20.14-32.245-33.259-54.881-35.773c0.514-2.158,0.321-4.455-0.639-6.525
			C319.217,103.272,284.647,81.194,247,81.194c-14.096,0-27.973,3.099-40.634,8.93l43.191-74.808
			c1.707-2.957,1.788-6.58,0.214-9.609c-1.573-3.03-4.584-5.047-7.984-5.352c-34.874-3.108-68.715,14.45-86.213,44.757
			c-7.757,13.437-11.884,28.527-12.076,43.915c-1.737,1.827-3.273,3.845-4.571,6.023C123.93,86.059,106.64,81.194,89,81.194
			c-37.647,0-72.217,22.078-88.071,56.247c-1.437,3.097-1.194,6.712,0.643,9.59s5.015,4.619,8.429,4.619h62.724
			c-1.13,1.03-2.245,2.082-3.334,3.171c-26.621,26.621-35.454,66.677-22.502,102.048c1.173,3.206,3.901,5.591,7.235,6.327
			c0.716,0.158,1.438,0.235,2.155,0.235c2.623,0,5.175-1.033,7.071-2.929l73.51-73.509c5.358,16.398,9.99,32.976,13.899,49.699
			c0.024,0.867,0.15,1.744,0.411,2.614c0.133,0.441,0.3,0.862,0.486,1.27c9.803,43.242,14.756,87.439,14.756,132.027v25.97
			c-47.682,19.13-88.079,53.844-114.242,98.359c-1.817,3.092-1.84,6.92-0.059,10.033s5.093,5.034,8.68,5.034h147.21
			c5.523,0,10-4.477,10-10s-4.477-10-10-10H79.143c22.121-31.27,52.361-56.129,87.267-71.712v10.212c0,5.523,4.477,10,10,10
			s10-4.477,10-10v-51.953l30.069-3.819c0.021,1.889,0.036,3.78,0.036,5.672v50.1c0,5.523,4.477,10,10,10s10-4.477,10-10v-27.929
			c5.479-0.419,10.992-0.653,16.485-0.653c20.491,0,40.687,2.906,60.134,8.626c-0.58,8.261-0.883,16.544-0.883,24.833v9.873
			c0,5.523,4.477,10,10,10s10-4.477,10-10v-9.873c0-6.097,0.177-12.191,0.51-18.274l29.766,13.941
			c-0.038,2.583-0.075,5.167-0.075,7.752v9.874c0,5.523,4.477,10,10,10s10-4.477,10-10v-2.821
			c16.987,13.062,32.016,28.67,44.396,46.152H298c-5.523,0-10,4.477-10,10s4.477,10,10,10h147.211c3.586,0,6.898-1.921,8.68-5.034
			s1.759-6.941-0.059-10.033c-17.656-30.04-42.153-56.031-71.066-75.496c1.464-43.025,8.367-85.585,20.593-126.89l55.544,55.544
			c1.896,1.896,4.448,2.929,7.071,2.929c0.717,0,1.439-0.077,2.155-0.235c3.333-0.736,6.062-3.121,7.235-6.327
			c10.167-27.77,3.568-59.138-16.767-80.458H502c3.414,0,6.592-1.742,8.429-4.619S512.508,254.886,511.071,251.79z M369.349,353.785
			l-25.725-5.142c2.363-8.892,5.092-17.686,8.17-26.359l22.552,5.018C372.448,336.088,370.795,344.92,369.349,353.785z
			 M172.725,243.264l22.7-6.829c5.095,16.933,9.271,34.085,12.524,51.424l-26.846,3.861
			C178.958,275.463,176.162,259.303,172.725,243.264z M144.182,167.329c-7.619,0-13.817-6.198-13.817-13.817
			s6.198-13.818,13.817-13.818c2.316,0,4.498,0.58,6.417,1.591c0.209,0.126,0.423,0.244,0.634,0.365
			c4.044,2.413,6.767,6.82,6.767,11.862C158,161.13,151.801,167.329,144.182,167.329z M184.767,141.65
			c0.212-0.121,0.425-0.239,0.634-0.365c1.92-1.012,4.101-1.591,6.417-1.591c7.619,0,13.817,6.199,13.817,13.818
			s-6.198,13.817-13.817,13.817S178,161.13,178,153.511C178,148.47,180.723,144.063,184.767,141.65z M181.818,112.299
			c0,5.042-2.723,9.448-6.767,11.862c-0.212,0.121-0.425,0.239-0.634,0.365c-1.92,1.012-4.101,1.591-6.417,1.591
			s-4.498-0.58-6.417-1.591c-0.209-0.126-0.423-0.244-0.634-0.365c-4.044-2.413-6.767-6.82-6.767-11.862
			c0-4.266,1.945-8.085,4.993-10.622c0.266-0.182,0.522-0.376,0.769-0.582c2.271-1.637,5.048-2.614,8.056-2.614
			C175.619,98.482,181.818,104.68,181.818,112.299z M157.145,184.741c4.083-1.701,7.763-4.178,10.855-7.249
			c2.404,2.387,5.166,4.411,8.193,5.995c4.784,11.19,9.15,22.496,13.088,33.91l-21.072,6.339
			C164.954,210.643,161.265,197.64,157.145,184.741z M225.582,151.649h0.469c9.818,3.823,18.763,9.66,26.417,17.314
			c13.58,13.579,21.478,31.435,22.444,50.524c-2.984,1.955-5.836,4.111-8.532,6.459l-49.623-49.623
			c5.51-6.019,8.878-14.029,8.878-22.812C225.635,152.886,225.615,152.266,225.582,151.649z M313.591,158.758l30.402,52.658
			c-8.369-3.05-17.315-4.696-26.493-4.696c-8.047,0-15.914,1.27-23.372,3.636c-2.82-20.964-12.352-40.368-27.518-55.535
			c-1.089-1.089-2.204-2.141-3.334-3.171h49.208C311.967,154.045,312.335,156.582,313.591,158.758z M317.5,226.72
			c16.627,0,32.246,7.236,43.056,19.279h-86.111C285.254,233.956,300.873,226.72,317.5,226.72z M334.322,265.999h20.582
			l-56.906,56.907c-0.873-16.159,5.055-32.32,16.813-44.077C320.444,273.194,327.008,268.896,334.322,265.999z M373.271,189.739
			c7.241,12.542,8.825,27.379,4.912,40.896l-37.873-65.598C353.971,168.407,366.03,177.197,373.271,189.739z M308.353,131.649
			h-78.754c-5.168-1.768-10.516-3.096-16.002-3.981c-3.703-3.126-8.083-5.469-12.887-6.78c0.417-1.587,0.719-3.219,0.902-4.888
			c13.118-9.568,29.064-14.807,45.389-14.807C271.281,101.194,293.951,112.764,308.353,131.649z M172.895,55.112
			c10.791-18.689,29.569-31.155,50.406-34.32L186.72,84.153c-5.364-3.579-11.801-5.671-18.72-5.671
			c-1.204,0-2.393,0.066-3.565,0.189C165.81,70.431,168.655,62.455,172.895,55.112z M27.647,131.649
			C42.049,112.764,64.719,101.194,89,101.194c16.324,0,32.271,5.238,45.389,14.807c0.183,1.668,0.485,3.3,0.902,4.887
			c-4.804,1.311-9.184,3.654-12.887,6.78c-5.487,0.885-10.835,2.213-16.003,3.982H27.647z M61.684,233.882
			c-3.17-23.538,4.679-47.75,21.848-64.918c7.779-7.778,16.893-13.673,26.9-17.492c-0.041,0.675-0.067,1.354-0.067,2.039
			c0,8.783,3.368,16.794,8.878,22.812L61.684,233.882z M186.242,358.406c-0.358-15.665-1.309-31.276-2.847-46.81l27.847-4.005
			c2.274,15.554,3.821,31.245,4.622,47.053L186.242,358.406z M253,381.916c-5.49,0-11,0.217-16.485,0.601v-2.118
			c0-66.638-12.49-131.535-37.131-193.164l53.704,53.704c-2.318,3.417-4.389,7.036-6.159,10.85c-1.437,3.097-1.194,6.712,0.643,9.59
			s5.015,4.619,8.429,4.619h43.402c-20.335,21.321-26.934,52.689-16.767,80.458c1.174,3.206,3.902,5.591,7.235,6.327
			c0.716,0.158,1.438,0.235,2.155,0.235c2.623,0,5.175-1.033,7.071-2.929l33.496-33.496c-8.391,23.872-14.252,48.618-17.459,73.721
			C294.98,384.745,274.13,381.916,253,381.916z M339.059,368.127l27.445,5.486c-1.472,11.85-2.554,23.754-3.22,35.699
			l-28.686-13.435C335.701,386.568,337.189,377.308,339.059,368.127z M378.942,307.836l-19.815-4.409
			c3.657-8.628,7.669-17.109,12.042-25.408l7.832-7.831l8.35,8.35C384.263,288.236,381.458,298.005,378.942,307.836z
			 M443.19,278.829c11.758,11.757,17.686,27.918,16.813,44.077l-56.906-56.907h20.583
			C430.992,268.897,437.557,273.195,443.19,278.829z M397.444,245.999c10.81-12.043,26.429-19.279,43.056-19.279
			s32.246,7.236,43.056,19.279H397.444z"/>
		<path id="XMLID_259_" d="M253,491.999c-2.63,0-5.21,1.07-7.07,2.93c-1.86,1.86-2.93,4.44-2.93,7.07c0,2.63,1.07,5.21,2.93,7.07
			c1.86,1.86,4.44,2.93,7.07,2.93c2.63,0,5.21-1.07,7.07-2.93s2.93-4.44,2.93-7.07c0-2.63-1.07-5.21-2.93-7.07
			C258.21,493.068,255.63,491.999,253,491.999z"/>
	</g>
</g>
<g>
</g>
<g>
</g>
<g>
</g>
<g>
</g>
<g>
</g>
<g>
</g>
<g>
</g>
<g>
</g>
<g>
</g>
<g>
</g>
<g>
</g>
<g>
</g>
<g>
</g>
<g>
</g>
<g>
</g>
</svg>
