<?xml version="1.0" encoding="iso-8859-1"?>
<!-- Generator: Adobe Illustrator 22.0.0, SVG Export Plug-In . SVG Version: 6.00 Build 0)  -->
<svg version="1.1" id="Capa_1" xmlns="http://www.w3.org/2000/svg" xmlns:xlink="http://www.w3.org/1999/xlink" x="0px" y="0px"
	 viewBox="0 0 512 512" style="enable-background:new 0 0 512 512;" xml:space="preserve">
<g id="XMLID_1079_">
	<path id="XMLID_1077_" style="fill:#91DEF5;" d="M256,502h33l0,0c21.736-45.283,55.966-83.408,98.655-109.878L400.754,384
		l-44.557-104.742c-2.88-6.769-4.364-14.05-4.364-21.406v0c0-12.825,4.508-25.242,12.735-35.081l18.132-21.682
		c11.664-13.947,18.054-31.551,18.054-49.732v0c0-13.345-3.445-26.464-10.001-38.087L332.503,10H301l8.524,33.323
		C311.168,49.749,312,56.356,312,62.989v0c0,30.928-25.072,56-56,56h0h0c-30.928,0-56-25.072-56-56v0
		c0-6.633,0.832-13.24,2.476-19.666L211,10h-31.503l-58.25,103.269c-6.556,11.623-10.001,24.742-10.001,38.087v0
		c0,18.182,6.39,35.785,18.054,49.732l18.132,21.682c8.227,9.838,12.735,22.256,12.735,35.081v0c0,7.356-1.484,14.637-4.364,21.406
		L111.246,384l13.099,8.122C167.034,418.592,201.264,456.717,223,502l0,0H256z"/>
	<path id="XMLID_1086_" style="fill:#FFFFFF;" d="M400.754,384l-42.418-99.716l-0.01-0.004
		C242.8,276.396,151.213,181.354,148.811,64.403l-27.563,48.866c-6.556,11.623-10.001,24.742-10.001,38.087
		c0,18.182,6.39,35.785,18.054,49.732l18.132,21.682c8.228,9.838,12.735,22.255,12.735,35.081c0,7.356-1.484,14.637-4.364,21.406
		l-2.365,5.56C189.743,358.833,261.529,412.287,346.625,423l0.751-0.164c12.354-11.455,25.831-21.754,40.279-30.714L400.754,384z"/>
	<g id="XMLID_692_">
		<path id="XMLID_697_" d="M365.399,275.344c-2.366-5.563-3.566-11.447-3.566-17.492c0-10.46,3.696-20.641,10.406-28.666
			l18.132-21.682c13.145-15.719,20.383-35.659,20.383-56.147c0-15.037-3.904-29.906-11.291-43l-58.25-103.27
			C339.44,1.944,336.111,0,332.503,0H301c-3.089,0-6.005,1.428-7.898,3.868c-1.895,2.439-2.555,5.618-1.79,8.611l8.524,33.322
			C301.272,51.415,302,57.197,302,62.989c0,25.365-20.636,46-46,46s-46-20.635-46-46c0-5.792,0.728-11.574,2.164-17.188
			l8.524-33.323c0.765-2.993,0.104-6.171-1.79-8.611C217.005,1.428,214.089,0,211,0h-31.503c-3.608,0-6.938,1.944-8.71,5.087
			l-58.25,103.27c-7.387,13.094-11.291,27.964-11.291,43c0,20.489,7.238,40.429,20.383,56.147l18.132,21.682
			c6.71,8.025,10.406,18.206,10.406,28.666c0,6.045-1.2,11.93-3.566,17.493l-44.557,104.741c-1.932,4.541-0.262,9.813,3.933,12.413
			l13.099,8.122c41.142,25.512,73.961,62.064,94.909,105.706c1.665,3.468,5.17,5.673,9.016,5.673h66
			c3.846,0,7.351-2.205,9.016-5.673c20.948-43.642,53.768-80.194,94.909-105.706l13.099-8.122c4.194-2.601,5.864-7.872,3.933-12.413
			L365.399,275.344z M282.788,492h-53.576c-22.676-44.584-57.002-81.964-99.598-108.377l-5.809-3.602l30.739-72.258
			c18.125,30.385,42.416,57.044,71.169,77.872c29.976,21.713,64.413,36.785,100.548,44.136
			C309.028,448.298,294.382,469.204,282.788,492z M382.386,383.623c-13.759,8.532-26.649,18.214-38.568,28.907
			c-77.15-11.038-143.65-58.538-179.363-128.062l0.551-1.295c3.425-8.053,5.162-16.572,5.162-25.322
			c0-15.142-5.35-29.879-15.064-41.496l-18.132-21.682c-10.14-12.126-15.725-27.511-15.725-43.317
			c0-11.601,3.012-23.072,8.711-33.174l11.8-20.919c5.603,34.894,18.994,68.039,39.486,97.264c1.945,2.775,5.046,4.26,8.196,4.26
			c1.982,0,3.985-0.588,5.732-1.813c4.521-3.17,5.617-9.407,2.446-13.929c-23.997-34.223-37.355-74.327-38.732-116.15L185.338,20
			h12.782l-5.333,20.845C190.938,48.077,190,55.527,190,62.989c0,36.393,29.607,66,66,66s66-29.607,66-66
			c0-7.462-0.938-14.912-2.787-22.145L313.88,20h12.782l55.381,98.183c5.699,10.102,8.711,21.574,8.711,33.174
			c0,15.807-5.585,31.191-15.725,43.317l-18.132,21.682c-9.715,11.617-15.064,26.354-15.064,41.496c0,5.028,0.593,9.975,1.73,14.806
			c-29.731-4.224-58.472-14.673-83.91-30.645c-4.68-2.938-10.851-1.526-13.786,3.151c-2.938,4.677-1.526,10.85,3.151,13.786
			c30.863,19.38,66.17,31.341,102.472,34.79l36.704,86.281L382.386,383.623z"/>
		<path id="XMLID_702_" d="M218.8,212.88c-2.63,0-5.21,1.06-7.07,2.93c-1.859,1.85-2.93,4.43-2.93,7.07c0,2.63,1.07,5.21,2.93,7.07
			c1.86,1.86,4.44,2.92,7.07,2.92s5.21-1.06,7.07-2.92c1.859-1.86,2.93-4.44,2.93-7.07c0-2.64-1.07-5.22-2.93-7.07
			C224.01,213.94,221.439,212.88,218.8,212.88z"/>
	</g>
</g>
<g>
</g>
<g>
</g>
<g>
</g>
<g>
</g>
<g>
</g>
<g>
</g>
<g>
</g>
<g>
</g>
<g>
</g>
<g>
</g>
<g>
</g>
<g>
</g>
<g>
</g>
<g>
</g>
<g>
</g>
</svg>
