<?xml version="1.0" encoding="iso-8859-1"?>
<!-- Generator: Adobe Illustrator 22.0.0, SVG Export Plug-In . SVG Version: 6.00 Build 0)  -->
<svg version="1.1" id="Capa_1" xmlns="http://www.w3.org/2000/svg" xmlns:xlink="http://www.w3.org/1999/xlink" x="0px" y="0px"
	 viewBox="0 0 512 512" style="enable-background:new 0 0 512 512;" xml:space="preserve">
<g id="XMLID_1767_">
	<path id="XMLID_1766_" style="fill:#8690A6;" d="M320,82.506v-8.5c0-35.346-28.654-64-64-64h0c-35.346,0-64,28.654-64,64v8.5H320z"
		/>
	<path id="XMLID_1838_" style="fill:#F5737F;" d="M472,373.994H40v-82.82c0-119.293,96.706-216,216-216h0
		c119.293,0,216,96.706,216,216V373.994z"/>
	<path id="XMLID_1949_" style="fill:#E1E3E9;" d="M470,373.994H42c-17.673,0-32,14.327-32,32v64c0,17.673,14.327,32,32,32h428
		c17.673,0,32-14.327,32-32v-64C502,388.321,487.673,373.994,470,373.994z"/>
	<g id="XMLID_1445_">
		<path id="XMLID_1449_" d="M482,365.75v-74.576c0-40.128-10.655-79.545-30.813-113.989c-2.79-4.767-8.915-6.369-13.682-3.58
			c-4.767,2.79-6.37,8.915-3.58,13.682C452.292,218.67,462,254.593,462,291.174v72.82H50v-72.82c0-113.589,92.411-206,206-206
			c43.613,0,85.288,13.456,120.517,38.913c4.476,3.233,10.728,2.228,13.962-2.248c3.234-4.477,2.228-10.728-2.249-13.963
			c-18.039-13.035-37.618-23.2-58.231-30.339v-3.531c0-40.804-33.196-74-74-74s-74,33.196-74,74v3.52
			c-31.938,11.033-61.21,29.246-85.806,53.842C53.508,174.054,30,230.807,30,291.174v74.576c-17.329,5.177-30,21.254-30,40.244v64
			c0,23.159,18.841,42,42,42h428c23.159,0,42-18.841,42-42v-64C512,387.004,499.329,370.927,482,365.75z M256,20.006
			c28.981,0,52.693,22.95,53.94,51.629c-17.48-4.271-35.552-6.461-53.94-6.461c-18.416,0-36.493,2.2-53.94,6.452
			C203.311,42.952,227.022,20.006,256,20.006z M184,383.994h62v108h-62V383.994z M164,491.994h-62v-108h62V491.994z M266,383.994h62
			v108h-62V383.994z M348,383.994h62v108h-62V383.994z M20,469.994v-64c0-12.131,9.869-22,22-22h40v108H42
			C29.869,491.994,20,482.125,20,469.994z M492,469.994c0,12.131-9.869,22-22,22h-40v-108h40c12.131,0,22,9.869,22,22V469.994z"/>
		<path id="XMLID_1611_" d="M342.125,174.86c-2.762-4.782-8.877-6.423-13.66-3.66l-14.2,8.198l1.406-5.249
			c1.43-5.335-1.736-10.817-7.071-12.247c-5.332-1.433-10.818,1.736-12.247,7.071l-6.582,24.566L266,207.264v-27.447l17.984-17.984
			c3.905-3.905,3.905-10.237,0-14.143c-3.905-3.904-10.237-3.904-14.143,0L266,151.531v-16.396c0-5.522-4.477-10-10-10
			s-10,4.478-10,10v16.396l-3.842-3.842c-3.905-3.904-10.237-3.904-14.143,0c-3.905,3.905-3.905,10.237,0,14.143L246,179.816v27.447
			l-23.77-13.724l-6.583-24.566c-1.43-5.335-6.912-8.502-12.248-7.071c-5.334,1.43-8.5,6.913-7.071,12.247l1.406,5.249
			l-14.199-8.198c-4.783-2.761-10.899-1.122-13.66,3.66c-2.762,4.783-1.123,10.898,3.66,13.66l14.199,8.198l-5.249,1.407
			c-5.334,1.43-8.5,6.913-7.071,12.247c1.197,4.469,5.237,7.415,9.653,7.415c0.856,0,1.728-0.111,2.595-0.344l24.567-6.583
			L236,224.584l-23.77,13.724l-24.567-6.583c-5.335-1.43-10.818,1.736-12.248,7.071c-1.43,5.334,1.736,10.817,7.071,12.247
			l5.249,1.407l-14.199,8.198c-4.783,2.762-6.422,8.877-3.66,13.66c1.852,3.208,5.213,5.002,8.669,5.002
			c1.696,0,3.416-0.433,4.991-1.342l14.199-8.198l-1.406,5.249c-1.43,5.334,1.736,10.817,7.071,12.247
			c0.867,0.232,1.738,0.344,2.595,0.344c4.415,0,8.456-2.947,9.653-7.415l6.583-24.566L246,241.904v27.447l-17.984,17.984
			c-3.905,3.905-3.905,10.237,0,14.143c3.905,3.904,10.237,3.904,14.143,0l3.842-3.842v16.396c0,5.522,4.477,10,10,10
			s10-4.478,10-10v-16.396l3.842,3.842c1.953,1.952,4.512,2.929,7.071,2.929s5.119-0.977,7.071-2.929
			c3.905-3.905,3.905-10.237,0-14.143L266,269.352v-27.447l23.77,13.724l6.583,24.566c1.197,4.469,5.237,7.415,9.653,7.415
			c0.856-0.001,1.728-0.111,2.595-0.344c5.334-1.43,8.5-6.913,7.071-12.247l-1.406-5.249l14.199,8.198
			c1.575,0.909,3.294,1.342,4.991,1.342c3.456,0,6.817-1.794,8.669-5.002c2.762-4.783,1.123-10.898-3.66-13.66l-14.199-8.198
			l5.249-1.407c5.334-1.43,8.5-6.913,7.071-12.247c-1.43-5.335-6.912-8.502-12.248-7.071l-24.567,6.583L276,224.584l23.77-13.724
			l24.567,6.583c0.867,0.232,1.738,0.344,2.595,0.344c4.415-0.001,8.456-2.947,9.653-7.415c1.43-5.334-1.736-10.817-7.071-12.247
			l-5.249-1.407l14.199-8.198C343.247,185.759,344.886,179.644,342.125,174.86z"/>
		<path id="XMLID_1613_" d="M415.92,155.97c2.63,0,5.21-1.06,7.07-2.93c1.86-1.86,2.93-4.431,2.93-7.07c0-2.63-1.07-5.21-2.93-7.07
			c-1.86-1.859-4.44-2.93-7.07-2.93c-2.64,0-5.21,1.07-7.07,2.93c-1.87,1.86-2.93,4.44-2.93,7.07s1.06,5.21,2.93,7.07
			C410.71,154.91,413.28,155.97,415.92,155.97z"/>
	</g>
</g>
<g>
</g>
<g>
</g>
<g>
</g>
<g>
</g>
<g>
</g>
<g>
</g>
<g>
</g>
<g>
</g>
<g>
</g>
<g>
</g>
<g>
</g>
<g>
</g>
<g>
</g>
<g>
</g>
<g>
</g>
</svg>
