<?xml version="1.0" encoding="iso-8859-1"?>
<!-- Generator: Adobe Illustrator 22.0.0, SVG Export Plug-In . SVG Version: 6.00 Build 0)  -->
<svg version="1.1" id="Capa_1" xmlns="http://www.w3.org/2000/svg" xmlns:xlink="http://www.w3.org/1999/xlink" x="0px" y="0px"
	 viewBox="0 0 511.957 511.957" style="enable-background:new 0 0 511.957 511.957;" xml:space="preserve">
<g id="XMLID_1374_">
	<path id="XMLID_1372_" style="fill:#FFDDCF;" d="M383.467,313.034c-12.187-61.547-52.177-133.076-127.489-133.076
		S140.676,251.486,128.49,313.034c-21.618,19.856-34.511,44.888-34.511,72.092c0,64.524,72.53,116.832,162,116.832
		s162-52.307,162-116.832C417.979,357.922,405.086,332.89,383.467,313.034z"/>
	<path id="XMLID_1371_" style="fill:#FFCBBE;" d="M151.852,248.263L90.072,80.155c-10.58-28.789,5.839-60.449,35.465-68.388l0,0
		c29.431-7.886,59.328,11.021,64.818,40.992l24.759,135.161"/>
	<path id="XMLID_1370_" style="fill:#FFCBBE;" d="M360.106,248.263l61.78-168.108c10.58-28.789-5.839-60.449-35.465-68.388l0,0
		c-29.431-7.886-59.328,11.021-64.818,40.992L296.843,187.92"/>
	<g id="XMLID_1634_">
		<path id="XMLID_1692_" d="M428.108,33.538c-8.02-15.466-22.271-26.922-39.1-31.431c-16.716-4.479-34.693-1.744-49.32,7.508
			c-14.627,9.25-24.804,24.318-27.923,41.342l-22.65,123.65c-10.58-3.08-21.66-4.65-33.137-4.65c-11.477,0-22.557,1.57-33.137,4.65
			l-22.65-123.65c-3.119-17.023-13.296-32.092-27.923-41.342c-14.627-9.251-32.604-11.988-49.32-7.508
			c-16.828,4.509-31.079,15.965-39.099,31.431s-9.173,33.714-3.164,50.065l60.213,163.844
			c-9.588,18.189-16.982,38.792-21.569,60.475c-22.823,21.984-35.351,49.284-35.351,77.203c0,34.507,18.325,66.727,51.599,90.724
			c32.287,23.285,75.046,36.108,120.401,36.108c34.034,0,66.919-7.273,95.101-21.033c4.963-2.424,7.021-8.411,4.598-13.374
			c-2.423-4.963-8.411-7.022-13.374-4.599c-25.464,12.434-55.315,19.006-86.325,19.006c-83.813,0-152-47.925-152-106.832
			c0-23.552,10.815-45.934,31.276-64.727c1.565-1.438,2.632-3.338,3.045-5.423c11.967-60.438,49.166-125.019,117.679-125.019
			c44.169,0,75.319,26.843,95.089,62.109c0.809,2.85,2.162,5.474,3.418,6.4c9.052,17.796,15.381,37.359,19.172,56.509
			c0.413,2.085,1.479,3.984,3.045,5.423c20.461,18.793,31.276,41.175,31.276,64.727c0,10.637-2.241,21.146-6.662,31.233
			c-2.217,5.059,0.087,10.956,5.146,13.173c5.062,2.218,10.957-0.087,13.173-5.146c5.536-12.635,8.343-25.844,8.343-39.261
			c0-27.919-12.528-55.219-35.351-77.203c-4.587-21.682-11.981-42.286-21.569-60.475l60.213-163.844
			C437.281,67.252,436.128,49.004,428.108,33.538z M160.824,217.081c-2.267,2.77-4.463,5.665-6.597,8.656L99.458,76.705
			c-4.136-11.255-3.374-23.315,2.146-33.96c5.521-10.645,14.939-18.216,26.521-21.319c11.506-3.084,23.387-1.274,33.454,5.093
			c10.067,6.366,16.793,16.325,18.94,28.042l23.348,127.458c-5.533,2.748-10.886,5.966-16.049,9.627L156.039,88.025
			c-1.619-5.28-7.211-8.248-12.493-6.629c-5.28,1.619-8.248,7.213-6.628,12.492l34.279,111.771
			C167.612,209.215,164.15,213.018,160.824,217.081z M412.5,76.705L357.73,225.737c-2.134-2.99-4.329-5.886-6.597-8.656
			c-3.326-4.063-6.789-7.867-10.373-11.421l34.279-111.771c1.619-5.279-1.348-10.873-6.628-12.492s-10.873,1.349-12.493,6.629
			L324.14,191.645c-5.162-3.661-10.515-6.879-16.049-9.627l23.348-127.458c2.146-11.717,8.873-21.676,18.94-28.042
			s21.949-8.173,33.454-5.093c11.583,3.104,21.001,10.675,26.521,21.319C415.874,53.39,416.636,65.45,412.5,76.705z"/>
		<path id="XMLID_1695_" d="M217.388,325.357c1.86-1.859,2.92-4.439,2.92-7.069s-1.06-5.21-2.92-7.07
			c-1.87-1.86-4.44-2.93-7.08-2.93c-2.63,0-5.21,1.069-7.07,2.93s-2.93,4.44-2.93,7.07c0,2.64,1.07,5.21,2.93,7.069
			c1.86,1.87,4.44,2.931,7.07,2.931C212.939,328.287,215.519,327.227,217.388,325.357z"/>
		<path id="XMLID_1697_" d="M311.648,318.287c0-2.63-1.07-5.21-2.93-7.07c-1.86-1.86-4.44-2.93-7.07-2.93s-5.21,1.069-7.07,2.93
			c-1.87,1.86-2.93,4.44-2.93,7.07s1.06,5.21,2.93,7.069c1.86,1.87,4.44,2.931,7.07,2.931s5.2-1.061,7.07-2.931
			C310.579,323.497,311.648,320.917,311.648,318.287z"/>
		<path id="XMLID_1704_" d="M235.979,441.707c7.678,0,14.688-2.902,20-7.663c5.312,4.761,12.322,7.663,20,7.663
			c16.542,0,30-13.458,30-30v-1.583c0-5.522-4.477-10-10-10s-10,4.478-10,10v1.583c0,5.514-4.486,10-10,10s-10-4.486-10-10v-14.98
			c1.19-0.915,2.28-1.981,3.21-3.226l7.049-9.44h0c3.755-5.03,4.34-11.642,1.527-17.253s-8.46-9.097-14.737-9.097H248.93
			c-6.277,0-11.924,3.485-14.737,9.097s-2.229,12.223,1.527,17.253l7.049,9.441c0.93,1.245,2.019,2.311,3.209,3.225v14.98
			c0,5.514-4.486,10-10,10s-10-4.486-10-10v-1.583c0-5.522-4.477-10-10-10s-10,4.478-10,10v1.583
			C205.979,428.249,219.437,441.707,235.979,441.707z"/>
		<path id="XMLID_1713_" d="M383.979,446.737c-2.63,0-5.21,1.069-7.07,2.93c-1.86,1.859-2.93,4.439-2.93,7.07
			c0,2.63,1.07,5.21,2.93,7.069c1.86,1.86,4.44,2.931,7.07,2.931c2.63,0,5.21-1.07,7.07-2.931c1.86-1.859,2.93-4.439,2.93-7.069
			c0-2.631-1.07-5.211-2.93-7.07C389.189,447.807,386.608,446.737,383.979,446.737z"/>
	</g>
</g>
<g>
</g>
<g>
</g>
<g>
</g>
<g>
</g>
<g>
</g>
<g>
</g>
<g>
</g>
<g>
</g>
<g>
</g>
<g>
</g>
<g>
</g>
<g>
</g>
<g>
</g>
<g>
</g>
<g>
</g>
</svg>
