<?xml version="1.0" encoding="iso-8859-1"?>
<!-- Generator: Adobe Illustrator 22.0.0, SVG Export Plug-In . SVG Version: 6.00 Build 0)  -->
<svg version="1.1" id="Capa_1" xmlns="http://www.w3.org/2000/svg" xmlns:xlink="http://www.w3.org/1999/xlink" x="0px" y="0px"
	 viewBox="0 0 512.001 512.001" style="enable-background:new 0 0 512.001 512.001;" xml:space="preserve">
<g id="XMLID_218_">
	<path id="XMLID_1748_" style="fill:#FF9D6C;" d="M224.042,437.087H95.959V228.044c0-14.336,11.621-25.957,25.957-25.957h102.126
		V437.087z"/>
	<path id="XMLID_1684_" style="fill:#F6838D;" d="M416.042,437.087h-192V140.169c0-12.748,10.334-23.082,23.082-23.082H392.96
		c12.748,0,23.082,10.334,23.082,23.082V437.087z"/>
	<path id="XMLID_1652_" style="fill:#FBC2C7;" d="M224.042,221.758v-81.589c0-12.748,10.334-23.082,23.082-23.082H392.96
		c12.748,0,23.082,10.334,23.082,23.082v46.524v-32.021v32.021c0,13.243-10.736,23.979-23.979,23.979h0
		c-13.243,0-23.979,10.736-23.979,23.979v50.021c0,13.266-10.754,24.021-24.021,24.021h0c-13.266,0-24.021-10.754-24.021-24.021
		v-84.5c0-11.046-8.954-20-20-20h0c-11.046,0-20,8.954-20,20v21.586c0,15.464-12.536,28-28,28h0
		C236.578,249.758,224.042,237.222,224.042,221.758v-55.086"/>
	<path id="XMLID_1591_" style="fill:#FFFFFF;" d="M429.501,502.001h-347l-21.872-43.743c-4.653-9.307,2.114-20.257,12.519-20.257
		h365.705c10.405,0,17.173,10.95,12.519,20.257L429.501,502.001z"/>
	<path id="XMLID_1593_" style="fill:#FFCB7C;" d="M279.228,76.34c0,23.088,19.17,41.698,42.461,40.781
		c20.763-0.817,37.805-17.451,39.086-38.191c0.666-10.773-2.853-20.713-9.082-28.356h0.003l-31.509-40.573l-31.648,40.36l0.024,0
		C282.732,57.419,279.228,66.47,279.228,76.34z"/>
	<path id="XMLID_1592_" style="fill:#FFCB7C;" d="M132.224,174.31c0,15.713,13.047,28.379,28.898,27.755
		c14.131-0.556,25.729-11.877,26.601-25.992c0.453-7.332-1.941-14.097-6.181-19.299h0.002l-21.445-27.613L138.56,156.63l0.016,0
		C134.608,161.433,132.224,167.593,132.224,174.31z"/>
	<g id="XMLID_1605_">
		<path id="XMLID_1635_" d="M459.266,439.382c-4.404-7.126-12.035-11.381-20.413-11.381h-12.811v-63.414c0-5.522-4.477-10-10-10
			s-10,4.478-10,10v62.5h-172V255.215c5.361,2.896,11.491,4.543,18,4.543c20.953,0,38-17.046,38-37.999v-21.586
			c0-5.514,4.486-10,10-10s10,4.486,10,10v84.5c0,18.759,15.262,34.021,34.021,34.021s34.021-15.262,34.021-34.021v-50.021
			c0-7.708,6.271-13.979,13.979-13.979c4.982,0,9.712-1.087,13.979-3.021v56.935c0,5.522,4.477,10,10,10s10-4.478,10-10v-87.894
			v-32.021v-14.504c0-18.241-14.84-33.082-33.082-33.082h-32.63c5.982-7.773,9.792-17.272,10.426-27.54
			c0.789-12.761-3.179-25.225-11.173-35.12l-31.499-40.56c-1.889-2.433-4.794-3.859-7.875-3.866
			c-3.057-0.047-5.992,1.406-7.893,3.829l-31.648,40.36c-0.088,0.113-0.174,0.227-0.257,0.343
			c-7.217,8.986-11.184,20.253-11.184,31.807c0,11.289,3.63,21.96,10.345,30.747h-32.449c-18.242,0-33.082,14.841-33.082,33.082
			v26.504v25.414h-20.786c2.527-4.655,4.107-9.875,4.448-15.396c0.587-9.495-2.37-18.771-8.327-26.134l-21.379-27.529
			c-1.889-2.433-4.794-3.859-7.875-3.866c-0.008,0-0.016,0-0.023,0c-3.072,0-5.974,1.412-7.869,3.829l-21.539,27.469
			c-0.068,0.088-0.135,0.176-0.2,0.265c-5.335,6.671-8.267,15.023-8.267,23.586c0,6.322,1.538,12.379,4.426,17.777h-4.733
			c-19.827,0-35.957,16.13-35.957,35.957v199.957H73.149c-8.378,0-16.009,4.255-20.413,11.381
			c-4.405,7.127-4.797,15.854-1.051,23.348l21.872,43.743c1.694,3.389,5.157,5.528,8.944,5.528h347c3.788,0,7.25-2.14,8.944-5.528
			l21.872-43.743C464.063,455.236,463.67,446.509,459.266,439.382z M146.285,162.999c0.162-0.196,0.316-0.397,0.461-0.604
			l13.314-16.979l13.583,17.492c0.048,0.062,0.097,0.123,0.146,0.184c2.827,3.469,4.23,7.859,3.952,12.365
			c-0.554,8.963-8.027,16.262-17.014,16.615c-4.887,0.202-9.528-1.563-13.045-4.945c-3.52-3.384-5.459-7.937-5.459-12.817
			C142.224,170.126,143.628,166.215,146.285,162.999z M298.69,98.556c-6.101-5.866-9.461-13.756-9.461-22.216
			c0-7.147,2.501-14.112,7.043-19.609c0.186-0.225,0.36-0.456,0.524-0.693l23.354-29.781l23.526,30.294
			c0.086,0.115,0.175,0.229,0.267,0.342c4.901,6.014,7.334,13.621,6.853,21.422c-0.947,15.324-13.555,27.834-28.839,28.773h-3.906
			C310.78,106.625,304.003,103.663,298.69,98.556z M234.042,140.169c0-7.214,5.869-13.082,13.082-13.082h70.297
			c0.861,0.043,1.725,0.067,2.593,0.067c0.688,0,1.378-0.014,2.069-0.041c0.139-0.005,0.276-0.02,0.414-0.026h70.462
			c7.213,0,13.082,5.868,13.082,13.082v14.504v32.021c0,7.708-6.271,13.979-13.979,13.979c-18.736,0-33.979,15.243-33.979,33.979
			v50.021c0,7.73-6.29,14.021-14.021,14.021c-7.731,0-14.021-6.29-14.021-14.021v-84.5c0-16.542-13.458-30-30-30s-30,13.458-30,30
			v21.586c0,9.925-8.075,17.999-18,17.999c-9.925,0-18-8.074-18-17.999v-19.672v-35.414V140.169z M105.959,228.044
			c0-8.799,7.158-15.957,15.957-15.957h92.126v9.672v205.328H105.959V228.044z M442.428,453.786l-19.107,38.215H88.681
			l-19.107-38.215c-0.867-1.734-0.263-3.182,0.175-3.89c0.438-0.708,1.461-1.896,3.4-1.896h365.704c1.939,0,2.962,1.188,3.4,1.896
			C442.69,450.605,443.295,452.052,442.428,453.786z"/>
		<path id="XMLID_1686_" d="M416.041,309.591c-2.63,0-5.21,1.06-7.07,2.93c-1.86,1.86-2.93,4.431-2.93,7.07
			c0,2.63,1.07,5.2,2.93,7.07c1.86,1.859,4.44,2.93,7.07,2.93c2.63,0,5.21-1.07,7.07-2.93c1.86-1.87,2.93-4.44,2.93-7.07
			c0-2.64-1.07-5.21-2.93-7.07C421.251,310.651,418.68,309.591,416.041,309.591z"/>
	</g>
</g>
<g>
</g>
<g>
</g>
<g>
</g>
<g>
</g>
<g>
</g>
<g>
</g>
<g>
</g>
<g>
</g>
<g>
</g>
<g>
</g>
<g>
</g>
<g>
</g>
<g>
</g>
<g>
</g>
<g>
</g>
</svg>
