<?xml version="1.0" encoding="iso-8859-1"?>
<!-- Generator: Adobe Illustrator 22.0.0, SVG Export Plug-In . SVG Version: 6.00 Build 0)  -->
<svg version="1.1" id="Capa_1" xmlns="http://www.w3.org/2000/svg" xmlns:xlink="http://www.w3.org/1999/xlink" x="0px" y="0px"
	 viewBox="0 0 512 512" style="enable-background:new 0 0 512 512;" xml:space="preserve">
<g id="XMLID_2060_">
	<path id="XMLID_2057_" style="fill:#DFF6FC;" d="M295,50L295,50c-21.539,0-39,17.461-39,39v39h39c21.539,0,39-17.461,39-39v0
		C334,67.461,316.539,50,295,50z"/>
	<path id="XMLID_2056_" style="fill:#DFF6FC;" d="M217,50L217,50c21.539,0,39,17.461,39,39v39h-39c-21.539,0-39-17.461-39-39v0
		C178,67.461,195.461,50,217,50z"/>
	<path id="XMLID_897_" style="fill:#F5737F;" d="M431.5,502h-351C66.969,502,56,491.031,56,477.5V240h400v237.5
		C456,491.031,445.031,502,431.5,502z"/>
	<polygon id="XMLID_1889_" style="fill:#FFFFFF;" points="284.75,502 456,330.75 456,240 284.75,411.25 	"/>
	<polygon id="XMLID_2019_" style="fill:#FFFFFF;" points="227.25,502 56,330.75 56,240 227.25,411.25 	"/>
	<path id="XMLID_1858_" style="fill:#FFCB7C;" d="M474.25,128H37.75C30.156,128,24,134.156,24,141.75v84.5
		c0,7.594,6.156,13.75,13.75,13.75h436.5c7.594,0,13.75-6.156,13.75-13.75v-84.5C488,134.156,481.844,128,474.25,128z"/>
	<rect id="XMLID_2080_" x="228" y="128" style="fill:#91DEF5;" width="56" height="374"/>
	<g id="XMLID_1403_">
		<path id="XMLID_1497_" d="M474.25,118H346.249C369.188,100.342,384,72.62,384,41.5V10c0-5.522-4.477-10-10-10s-10,4.478-10,10
			v31.5c0,19.927-7.665,38.094-20.194,51.722C343.926,91.829,344,90.423,344,89c0-27.019-21.981-49-49-49
			c-15.896,0-30.042,7.614-39,19.38C247.042,47.614,232.896,40,217,40c-27.019,0-49,21.981-49,49c0,1.423,0.074,2.829,0.194,4.222
			C155.665,79.594,148,61.427,148,41.5V10c0-5.522-4.477-10-10-10s-10,4.478-10,10v31.5c0,31.12,14.812,58.842,37.751,76.5H37.75
			C24.654,118,14,128.654,14,141.75v84.5C14,239.346,24.654,250,37.75,250H46v227.5c0,19.023,15.477,34.5,34.5,34.5h351
			c19.023,0,34.5-15.477,34.5-34.5V250h8.25c13.096,0,23.75-10.654,23.75-23.75v-84.5C498,128.654,487.346,118,474.25,118z
			 M395.124,300.876c1.953,1.952,4.512,2.929,7.071,2.929c2.559,0,5.119-0.977,7.071-2.929L446,264.142v62.465l-152,152v-62.465
			l51.658-51.658c3.905-3.905,3.905-10.237,0-14.143c-3.905-3.904-10.237-3.904-14.143,0L294,387.857V250h137.858l-36.734,36.733
			C391.219,290.639,391.218,296.971,395.124,300.876z M295,60c15.991,0,29,13.01,29,29c0,11.894-7.2,22.134-17.469,26.602
			C300.445,117.167,294.068,118,287.5,118H284h-18V89C266,73.01,279.009,60,295,60z M217,60c15.991,0,29,13.01,29,29v29h-18h-3.5
			c-6.568,0-12.945-0.833-19.031-2.398C195.2,111.134,188,100.894,188,89C188,73.01,201.009,60,217,60z M66,264.463l152,152v62.465
			l-152-152V264.463z M218,388.178L79.822,250H218V388.178z M34,226.25v-84.5c0-2.067,1.682-3.75,3.75-3.75H218v92H37.75
			C35.682,230,34,228.317,34,226.25z M66,477.5V355.213L202.787,492H80.5C72.505,492,66,485.495,66,477.5z M238,492V138h36v354H238z
			 M431.5,492H308.893L446,354.893V477.5C446,485.495,439.495,492,431.5,492z M478,226.25c0,2.067-1.682,3.75-3.75,3.75H294v-92
			h180.25c2.068,0,3.75,1.683,3.75,3.75V226.25z"/>
		<path id="XMLID_1571_" d="M370.38,315.62c-2.64,0-5.22,1.069-7.08,2.93c-1.86,1.87-2.93,4.44-2.93,7.07
			c0,2.64,1.07,5.21,2.93,7.08c1.87,1.859,4.44,2.93,7.08,2.93c2.63,0,5.2-1.07,7.07-2.93c1.86-1.87,2.92-4.44,2.92-7.08
			c0-2.63-1.06-5.2-2.92-7.07C375.58,316.689,373.01,315.62,370.38,315.62z"/>
	</g>
</g>
<g>
</g>
<g>
</g>
<g>
</g>
<g>
</g>
<g>
</g>
<g>
</g>
<g>
</g>
<g>
</g>
<g>
</g>
<g>
</g>
<g>
</g>
<g>
</g>
<g>
</g>
<g>
</g>
<g>
</g>
</svg>
