<?xml version="1.0" encoding="iso-8859-1"?>
<!-- Generator: Adobe Illustrator 22.0.0, SVG Export Plug-In . SVG Version: 6.00 Build 0)  -->
<svg version="1.1" id="Capa_1" xmlns="http://www.w3.org/2000/svg" xmlns:xlink="http://www.w3.org/1999/xlink" x="0px" y="0px"
	 viewBox="0 0 512 512" style="enable-background:new 0 0 512 512;" xml:space="preserve">
<g id="XMLID_1038_">
	<path id="XMLID_1011_" style="fill:#E1E3E9;" d="M268.688,370h-25.376C226.571,370,213,356.429,213,339.688V300h86v39.688
		C299,356.429,285.429,370,268.688,370z"/>
	<g id="XMLID_1006_">
		<g id="XMLID_2169_">
			<rect id="XMLID_2172_" x="368" y="10" style="fill:#98A1B3;" width="48" height="60"/>
			<path id="XMLID_2171_" style="fill:#98A1B3;" d="M232,370v40c0,50.729,41.271,92,92,92s92-41.271,92-92V300h-48v110
				c0,24.262-19.738,44-44,44s-44-19.738-44-44v-40"/>
		</g>
	</g>
	<path id="XMLID_2139_" style="fill:#91DEF5;" d="M10,110v150c0,22.091,17.909,40,40,40h124.685
		c10.609,0,20.783-4.214,28.284-11.716l39.015-39.015c7.81-7.81,20.474-7.81,28.284,0l39.015,39.015
		C316.786,295.786,326.96,300,337.569,300H462c22.091,0,40-17.909,40-40V110c0-22.091-17.909-40-40-40H50
		C27.909,70,10,87.909,10,110z"/>
	<g id="XMLID_2135_">
		<path id="XMLID_2136_" style="fill:#DFF6FC;" d="M339.225,256H458V114H54v142h119.028l37.844-37.844
			c24.953-24.952,65.555-24.953,90.509,0.001L339.225,256z"/>
	</g>
	<g id="XMLID_1565_">
		<path id="XMLID_1608_" d="M462,60h-36V10c0-5.522-4.477-10-10-10h-48c-5.523,0-10,4.478-10,10v50h-57c-5.523,0-10,4.478-10,10
			s4.477,10,10,10h161c16.542,0,30,13.458,30,30v150c0,16.542-13.458,30-30,30H337.568c-8.014,0-15.547-3.12-21.213-8.787
			l-39.015-39.015c-5.667-5.666-13.2-8.786-21.213-8.786s-15.547,3.12-21.213,8.786l-39.015,39.015
			c-5.666,5.667-13.199,8.787-21.213,8.787H50c-16.542,0-30-13.458-30-30V110c0-16.542,13.458-30,30-30h161c5.523,0,10-4.478,10-10
			s-4.477-10-10-10H50C22.43,60,0,82.43,0,110v150c0,27.57,22.43,50,50,50h124.686c10.262,0,20.046-3.082,28.314-8.788v38.476
			c0,14.406,7.602,27.065,19,34.195V410c0,56.243,45.757,102,102,102s102-45.757,102-102V310h36c27.57,0,50-22.43,50-50V110
			C512,82.43,489.57,60,462,60z M378,60V20h28v40H378z M337.568,310H358v100c0,18.748-15.252,34-34,34s-34-15.252-34-34v-36.117
			c11.398-7.13,19-19.788,19-34.195v-38.655C317.322,306.853,327.2,310,337.568,310z M223,339.688V310h66v29.688
			c0,11.2-9.112,20.312-20.312,20.312h-25.376C232.112,360,223,350.889,223,339.688z M249.056,256.341
			c1.889-1.889,4.4-2.929,7.071-2.929s5.182,1.04,7.071,2.929L296.857,290h-81.461L249.056,256.341z M406,410
			c0,45.215-36.785,82-82,82s-82-36.785-82-82v-30.033c0.437,0.014,0.872,0.033,1.312,0.033h25.376c0.44,0,0.875-0.019,1.312-0.033
			V410c0,29.775,24.224,54,54,54s54-24.225,54-54V310h28V410z"/>
		<path id="XMLID_1672_" d="M44,114v142c0,5.522,4.477,10,10,10h119.028c2.652,0,5.196-1.054,7.071-2.929l37.844-37.844
			c21.055-21.055,55.313-21.054,76.368,0.001l37.843,37.843c1.875,1.875,4.418,2.929,7.071,2.929H458c5.523,0,10-4.478,10-10V114
			c0-5.522-4.477-10-10-10H54C48.477,104,44,108.478,44,114z M308.453,211.086c-28.853-28.852-75.799-28.853-104.651-0.001
			L168.886,246h-62.035l38.241-38.241c3.905-3.905,3.905-10.237,0-14.143c-3.905-3.904-10.237-3.904-14.143,0L78.566,246H64v-26.357
			L159.643,124h262.619l-41.734,41.734c-3.905,3.905-3.906,10.237,0,14.143c1.953,1.952,4.512,2.929,7.071,2.929
			c2.559,0,5.119-0.977,7.071-2.929L448,126.546v40.923L369.469,246h-26.102L308.453,211.086z M397.754,246L448,195.754V246H397.754
			z M131.357,124L64,191.357V124H131.357z"/>
		<path id="XMLID_1675_" d="M256.13,80c2.63,0,5.21-1.07,7.07-2.931c1.86-1.859,2.93-4.439,2.93-7.069s-1.07-5.21-2.93-7.07
			c-1.86-1.86-4.44-2.93-7.07-2.93s-5.21,1.069-7.08,2.93c-1.86,1.86-2.92,4.44-2.92,7.07s1.06,5.21,2.92,7.069
			C250.92,78.93,253.5,80,256.13,80z"/>
	</g>
</g>
<g>
</g>
<g>
</g>
<g>
</g>
<g>
</g>
<g>
</g>
<g>
</g>
<g>
</g>
<g>
</g>
<g>
</g>
<g>
</g>
<g>
</g>
<g>
</g>
<g>
</g>
<g>
</g>
<g>
</g>
</svg>
