<?xml version="1.0" encoding="iso-8859-1"?>
<!-- Generator: Adobe Illustrator 22.0.0, SVG Export Plug-In . SVG Version: 6.00 Build 0)  -->
<svg version="1.1" id="Capa_1" xmlns="http://www.w3.org/2000/svg" xmlns:xlink="http://www.w3.org/1999/xlink" x="0px" y="0px"
	 viewBox="0 0 512 512" style="enable-background:new 0 0 512 512;" xml:space="preserve">
<g id="XMLID_1686_">
	<ellipse id="XMLID_1207_" style="fill:#F5737F;" cx="256" cy="256" rx="74.333" ry="246"/>
	<path id="XMLID_1203_" style="fill:#98A1B3;" d="M281.166,226.755c-1.482-26.381-4.953-52.021-10.262-76.303
		c-3.505-16.032-26.302-16.032-29.807,0c-5.309,24.281-8.78,49.922-10.262,76.303c-0.282,5.022,3.736,9.245,8.766,9.245H272.4
		C277.43,236,281.448,231.777,281.166,226.755z"/>
	<path id="XMLID_1199_" style="fill:#98A1B3;" d="M272.072,356c4.647-22.623,7.721-46.363,9.093-70.738
		c0.283-5.028-3.732-9.262-8.768-9.262h-32.792c-5.036,0-9.051,4.234-8.768,9.262c1.371,24.375,4.445,48.114,9.093,70.738H272.072z"
		/>
	<g id="XMLID_1656_">
		<path id="XMLID_1109_" style="fill:#FFCB7C;" d="M90.328,73.724L73.599,90.453c-8.423,8.423-7.24,22.4,2.479,29.287l37.694,26.71
			c7.647,5.419,18.088,4.535,24.715-2.092l5.746-5.746c6.628-6.628,7.511-17.068,2.092-24.715l-26.71-37.694
			C112.728,66.484,98.751,65.3,90.328,73.724z"/>
		<path id="XMLID_1108_" style="fill:#FFCB7C;" d="M438.401,421.797l-16.729,16.729c-8.423,8.423-22.4,7.24-29.287-2.479
			l-26.71-37.694c-5.419-7.647-4.535-18.088,2.092-24.715l5.746-5.746c6.628-6.628,17.068-7.511,24.715-2.092l37.694,26.71
			C445.641,399.397,446.825,413.374,438.401,421.797z"/>
	</g>
	<g id="XMLID_1500_">
		<path id="XMLID_1572_" d="M453.93,405.733c-0.729-8.6-5.185-16.394-12.226-21.383l-37.693-26.71
			c-10.001-7.087-23.04-7.092-32.929-0.577l-35.124-35.124c2.876-21.525,4.376-43.596,4.376-65.939
			c0-39.655-4.565-78.452-13.57-115.312c-1.31-5.365-6.72-8.656-12.087-7.341c-5.365,1.311-8.652,6.722-7.341,12.087
			c8.625,35.308,12.999,72.508,12.999,110.565c0,16.174-0.808,32.192-2.381,47.935L260.018,246H272.4
			c5.143,0,10.12-2.144,13.654-5.882c3.526-3.73,5.384-8.806,5.096-13.925v0.001c-1.503-26.753-5.028-52.954-10.477-77.878
			c-2.601-11.896-12.516-19.889-24.673-19.889s-22.072,7.993-24.673,19.889c-4.219,19.297-7.27,39.365-9.136,59.857l-24.981-24.981
			c9.17-59.371,29.449-113.719,58.789-156.196c7.713,11.175,14.875,23.28,21.372,36.133c2.492,4.931,8.508,6.903,13.436,4.414
			c4.929-2.491,6.905-8.507,4.414-13.436c-9.232-18.265-19.757-35.15-31.282-50.19C262.045,1.448,259.111,0,256,0
			c-3.111,0-6.045,1.448-7.937,3.917c-33.112,43.207-56.583,99.688-68.168,161.96l-24.833-24.833
			c6.515-9.888,6.511-22.925-0.577-32.928l-26.71-37.694c-4.989-7.042-12.783-11.498-21.382-12.227
			c-8.594-0.727-17.032,2.354-23.135,8.457h0L66.528,83.382c-6.103,6.103-9.186,14.534-8.458,23.135
			c0.729,8.6,5.185,16.394,12.226,21.383l37.693,26.71c5.116,3.625,11.028,5.403,16.907,5.403c5.618,0,11.205-1.625,16.037-4.811
			l35.079,35.079c-2.857,21.455-4.346,43.453-4.346,65.719c0,96.85,27.845,188.73,76.396,252.083
			c1.892,2.469,4.826,3.917,7.937,3.917s6.045-1.448,7.937-3.917c33.075-43.158,56.529-99.562,68.128-161.751l24.874,24.874
			c-6.515,9.888-6.511,22.925,0.577,32.928l26.71,37.694c4.989,7.042,12.783,11.498,21.382,12.227
			c0.83,0.07,1.658,0.104,2.483,0.104c7.722,0,15.138-3.048,20.652-8.562l16.729-16.729h0
			C451.575,422.766,454.658,414.334,453.93,405.733z M250.865,152.588c0.821-3.755,3.864-4.16,5.135-4.16s4.313,0.405,5.135,4.16
			c5.134,23.481,8.487,48.175,9.971,73.412h-30.211C242.378,200.763,245.731,176.069,250.865,152.588z M119.554,138.291
			l-37.694-26.71c-3.044-2.157-3.725-5.156-3.86-6.752c-0.135-1.596,0.032-4.667,2.671-7.305l16.729-16.729h0
			c2.639-2.639,5.711-2.805,7.306-2.671c1.596,0.136,4.594,0.816,6.751,3.86l26.71,37.694c2.609,3.683,2.187,8.672-1.004,11.862
			l-2.871,2.871c-0.001,0.001-0.002,0.001-0.002,0.002s-0.001,0.002-0.002,0.003l-2.87,2.87
			C128.225,140.479,123.235,140.9,119.554,138.291z M256,485.007C214.984,425.631,191.667,343.072,191.667,256
			c0-16.096,0.802-32.036,2.36-47.705L251.732,266h-12.128c-5.142,0-10.118,2.144-13.652,5.882
			c-3.53,3.734-5.389,8.815-5.101,13.942c1.389,24.682,4.512,48.969,9.282,72.188c0.955,4.649,5.048,7.987,9.795,7.987h32.144
			c4.747,0,8.84-3.338,9.795-7.987c3.589-17.473,6.244-35.551,7.932-53.946l24.958,24.958
			C305.572,388.313,285.308,442.58,256,485.007z M271.105,286c-1.203,20.443-3.643,40.582-7.264,60h-15.683
			c-3.622-19.418-6.061-39.557-7.264-60H271.105z M431.331,414.726C431.331,414.726,431.331,414.726,431.331,414.726l-16.729,16.729
			c-2.639,2.639-5.712,2.802-7.306,2.671c-1.596-0.136-4.594-0.816-6.751-3.86l-26.71-37.694c-2.609-3.683-2.187-8.672,1.004-11.862
			l2.871-2.871c0.001-0.001,0.002-0.001,0.002-0.002s0.001-0.002,0.002-0.003l2.87-2.87c1.792-1.791,4.149-2.71,6.524-2.71
			c1.856,0,3.724,0.562,5.339,1.706l37.694,26.71c3.044,2.157,3.725,5.156,3.86,6.752
			C434.136,409.017,433.969,412.088,431.331,414.726z"/>
		<path id="XMLID_1579_" d="M422.211,177.595c9.528,17.466,9.528,38.322,0,55.788c-2.645,4.849-0.858,10.923,3.99,13.568
			c1.521,0.829,3.161,1.223,4.78,1.223c3.541,0,6.972-1.886,8.788-5.213c12.799-23.464,12.799-51.48,0-74.944
			c-9.529-17.466-9.529-38.321,0-55.787c12.799-23.465,12.799-51.481,0-74.944c-2.645-4.849-8.719-6.636-13.568-3.989
			c-4.848,2.645-6.635,8.719-3.99,13.567c9.528,17.466,9.528,38.321,0,55.788C409.411,126.115,409.411,154.131,422.211,177.595z"/>
		<path id="XMLID_1584_" d="M102.732,346.026c-9.528-17.466-9.528-38.321,0-55.787c2.645-4.849,0.858-10.923-3.99-13.567
			c-4.85-2.646-10.923-0.859-13.568,3.989c-12.8,23.464-12.8,51.479,0,74.943c9.528,17.467,9.528,38.322,0,55.788
			c-12.799,23.463-12.8,51.479,0,74.944c1.815,3.328,5.246,5.213,8.788,5.213c1.618,0,3.259-0.394,4.78-1.223
			c4.849-2.646,6.635-8.72,3.99-13.568c-9.528-17.467-9.528-38.322,0-55.788C115.532,397.507,115.532,369.49,102.732,346.026z"/>
		<path id="XMLID_1593_" d="M297,107.04c1.87,1.87,4.44,2.93,7.08,2.93c2.63,0,5.2-1.06,7.07-2.93c1.86-1.86,2.93-4.44,2.93-7.07
			s-1.07-5.21-2.93-7.07c-1.86-1.859-4.44-2.93-7.07-2.93c-2.64,0-5.21,1.07-7.08,2.93c-1.86,1.86-2.92,4.44-2.92,7.07
			S295.14,105.18,297,107.04z"/>
	</g>
</g>
<g>
</g>
<g>
</g>
<g>
</g>
<g>
</g>
<g>
</g>
<g>
</g>
<g>
</g>
<g>
</g>
<g>
</g>
<g>
</g>
<g>
</g>
<g>
</g>
<g>
</g>
<g>
</g>
<g>
</g>
</svg>
