<?xml version="1.0" encoding="iso-8859-1"?>
<!-- Generator: Adobe Illustrator 22.0.0, SVG Export Plug-In . SVG Version: 6.00 Build 0)  -->
<svg version="1.1" id="Capa_1" xmlns="http://www.w3.org/2000/svg" xmlns:xlink="http://www.w3.org/1999/xlink" x="0px" y="0px"
	 viewBox="0 0 512 512" style="enable-background:new 0 0 512 512;" xml:space="preserve">
<g id="XMLID_226_">
	<rect id="XMLID_567_" x="232" y="10" style="fill:#B8866B;" width="48" height="492"/>
	<g id="XMLID_2027_">
		<polygon id="XMLID_2094_" style="fill:#FFCB7C;" points="70,240 420.625,240 420.625,360 70,360 10,300 		"/>
		<polygon id="XMLID_2093_" style="fill:#FFD89E;" points="70,240 420.625,240 420.625,360 70,360 10,300 		"/>
	</g>
	<g id="XMLID_2065_">
		<polygon id="XMLID_2067_" style="fill:#B0E7F8;" points="442,184 91.375,184 91.375,64 442,64 502,124 		"/>
		<polygon id="XMLID_2066_" style="fill:#FFCB7C;" points="442,184 91.375,184 91.375,64 442,64 502,124 		"/>
	</g>
	<g id="XMLID_1514_">
		<path id="XMLID_1571_" d="M509.071,116.929l-60-60C447.196,55.054,444.652,54,442,54H290V10c0-5.522-4.477-10-10-10h-48
			c-5.523,0-10,4.478-10,10v44H91.375c-5.523,0-10,4.478-10,10v120c0,5.522,4.477,10,10,10H222v36H70
			c-2.652,0-5.196,1.054-7.071,2.929l-60,60c-3.906,3.905-3.906,10.237,0,14.143l60,60C64.804,368.946,67.348,370,70,370h152v132
			c0,5.522,4.477,10,10,10h48c5.523,0,10-4.478,10-10v-26c0-5.522-4.477-10-10-10s-10,4.478-10,10v16h-28V370h28v16
			c0,5.522,4.477,10,10,10s10-4.478,10-10v-16h130.625c5.523,0,10-4.478,10-10V240c0-5.522-4.477-10-10-10H290v-36h152
			c2.652,0,5.196-1.054,7.071-2.929l60-60C512.977,127.166,512.977,120.834,509.071,116.929z M242,20h28v34h-28V20z M410.625,350
			H74.142l-50-50l50-50h336.483V350z M270,230h-28v-36h28V230z M437.858,174H101.375V74h336.483l50,50L437.858,174z"/>
		<path id="XMLID_1583_" d="M348.91,104.282c-3.905-3.904-10.237-3.904-14.143,0c-2.632,2.633-3.482,6.366-2.566,9.718H226.244
			c-5.523,0-10,4.478-10,10s4.477,10,10,10h105.957c-0.917,3.351-0.066,7.085,2.566,9.718c1.953,1.952,4.512,2.929,7.071,2.929
			s5.119-0.977,7.071-2.929l12.646-12.646c3.905-3.905,3.905-10.237,0-14.143L348.91,104.282z"/>
		<path id="XMLID_1584_" d="M188.165,280.282c-3.905-3.904-10.237-3.904-14.143,0l-12.646,12.646
			c-3.905,3.905-3.905,10.237,0,14.143l12.646,12.646c1.953,1.952,4.512,2.929,7.071,2.929s5.119-0.977,7.071-2.929
			c2.632-2.633,3.482-6.366,2.566-9.718h105.957c5.523,0,10-4.478,10-10s-4.477-10-10-10H190.731
			C191.647,286.649,190.797,282.915,188.165,280.282z"/>
		<path id="XMLID_1585_" d="M280,421c-2.63,0-5.21,1.069-7.07,2.93c-1.86,1.86-2.93,4.44-2.93,7.07s1.07,5.21,2.93,7.069
			c1.86,1.86,4.44,2.931,7.07,2.931c2.63,0,5.21-1.07,7.07-2.931c1.86-1.859,2.93-4.439,2.93-7.069s-1.07-5.21-2.93-7.07
			S282.63,421,280,421z"/>
	</g>
</g>
<g>
</g>
<g>
</g>
<g>
</g>
<g>
</g>
<g>
</g>
<g>
</g>
<g>
</g>
<g>
</g>
<g>
</g>
<g>
</g>
<g>
</g>
<g>
</g>
<g>
</g>
<g>
</g>
<g>
</g>
</svg>
