<?xml version="1.0" encoding="iso-8859-1"?>
<!-- Generator: Adobe Illustrator 22.0.0, SVG Export Plug-In . SVG Version: 6.00 Build 0)  -->
<svg version="1.1" id="Capa_1" xmlns="http://www.w3.org/2000/svg" xmlns:xlink="http://www.w3.org/1999/xlink" x="0px" y="0px"
	 viewBox="0 0 512.287 512.287" style="enable-background:new 0 0 512.287 512.287;" xml:space="preserve">
<g id="XMLID_1366_">
	<path id="XMLID_2200_" style="fill:#DFF6FC;" d="M10,395.758c44.473-44.473,116.577-44.473,161.05,0l0,0
		c22.236,22.236,51.381,33.355,80.525,33.355h9.135c29.144,0,58.289-11.118,80.525-33.355l0,0
		c44.473-44.473,116.578-44.473,161.05,0v106.386H10V395.758z"/>
	<path id="XMLID_937_" style="fill:#91DEF5;" d="M274.197,468.239L171.705,85.732c-6.861-25.606-33.181-40.802-58.788-33.941l0,0
		c-25.606,6.861-40.802,33.181-33.941,58.788l102.492,382.507L274.197,468.239z"/>
	<polygon id="XMLID_2374_" style="fill:#F5737F;" points="120.286,264.75 85.368,134.435 221.226,270.292 256.144,400.607 	"/>
	<path id="XMLID_785_" style="fill:#91DEF5;" d="M304,10.144L304,10.144c-26.51,0-48,21.49-48,48v396c0,26.51,21.49,48,48,48h0
		c26.51,0,48-21.49,48-48v-396C352,31.634,330.51,10.144,304,10.144z"/>
	<polygon id="XMLID_1724_" style="fill:#F5737F;" points="256,82.841 352.066,249.232 352.066,384.144 256,217.753 	"/>
	<path id="XMLID_2138_" style="fill:#FFFFFF;" d="M10,502.144c135.862-135.862,356.138-135.862,492,0H10z"/>
	<g id="XMLID_1486_">
		<path id="XMLID_1680_" d="M390.672,416.454c-9.442-3.829-19.008-7.217-28.672-10.212v-14.931
			c40.917-28.85,97.493-24.204,133.216,11.518c1.953,1.952,4.512,2.929,7.071,2.929s5.119-0.977,7.071-2.929
			c3.905-3.905,3.905-10.237,0-14.143c-39.335-39.335-99.885-47.073-147.358-20.935V170.559c0-5.522-4.477-10-10-10s-10,4.478-10,10
			v41.238L266,80.162V58.144c0-20.953,17.047-38,38-38s38,17.047,38,38v22.415c0,5.522,4.477,10,10,10s10-4.478,10-10V58.144
			c0-31.981-26.019-58-58-58s-58,26.019-58,58v266.224L181.364,83.145c-8.278-30.893-40.146-49.292-71.035-41.013
			c-30.891,8.277-49.289,40.144-41.012,71.035l66.393,247.782c-18.641-7.268-39.005-10.02-59.07-7.77
			c-27.75,3.113-53.927,15.724-73.711,35.508c-3.905,3.905-3.905,10.237,0,14.143c1.953,1.952,4.512,2.929,7.071,2.929
			s5.119-0.977,7.071-2.929c33.493-33.493,84.725-40.096,125.443-16.487l5.498,20.517c-8.988,2.843-17.889,6.028-26.684,9.595
			C76.926,434.46,37.09,460.911,2.929,495.072c-3.905,3.905-3.905,10.237,0,14.143c3.905,3.904,10.237,3.904,14.143,0
			c63.82-63.82,148.673-98.968,238.929-98.968c90.256,0,175.109,35.147,238.929,98.968c1.953,1.952,4.512,2.929,7.071,2.929
			c2.559,0,5.119-0.977,7.071-2.929c3.905-3.905,3.905-10.237,0-14.143C474.91,460.911,435.075,434.46,390.672,416.454z
			 M104.687,167.895l107.481,107.482l24.565,91.677L129.251,259.573L104.687,167.895z M342,400.657
			c-24.797-6.125-50.203-9.555-76-10.26V255.073l76,131.635V400.657z M342,251.797v94.912l-76-131.635v-94.912L342,251.797z
			 M115.506,61.45c9.805-2.626,20.045-1.278,28.835,3.796c8.79,5.075,15.078,13.271,17.705,23.074l39.769,148.418L94.333,129.257
			l-5.698-21.265C83.212,87.752,95.267,66.873,115.506,61.45z M139.605,298.211l92.819,92.819
			c-22.091,1.434-43.862,4.891-65.178,10.338L139.605,298.211z"/>
		<path id="XMLID_1706_" d="M425.503,110.333c2.63,0,5.21-1.069,7.07-2.93c1.86-1.86,2.93-4.44,2.93-7.07s-1.07-5.21-2.93-7.069
			c-1.86-1.86-4.44-2.931-7.07-2.931c-2.64,0-5.21,1.07-7.08,2.931c-1.86,1.859-2.92,4.439-2.92,7.069s1.06,5.21,2.92,7.07
			C420.293,109.264,422.874,110.333,425.503,110.333z"/>
		<path id="XMLID_1731_" d="M476.503,200.524c2.63,0,5.2-1.07,7.07-2.93c1.86-1.86,2.93-4.431,2.93-7.07c0-2.63-1.07-5.21-2.93-7.07
			c-1.86-1.859-4.44-2.93-7.07-2.93s-5.21,1.07-7.07,2.93c-1.87,1.86-2.93,4.44-2.93,7.07c0,2.64,1.06,5.21,2.93,7.07
			C471.293,199.453,473.874,200.524,476.503,200.524z"/>
		<path id="XMLID_1734_" d="M502.003,20.144c2.63,0,5.21-1.07,7.07-2.931c1.86-1.859,2.93-4.439,2.93-7.069s-1.07-5.21-2.93-7.07
			c-1.86-1.86-4.44-2.93-7.07-2.93s-5.21,1.069-7.08,2.93c-1.86,1.86-2.92,4.44-2.92,7.07s1.06,5.21,2.92,7.069
			C496.793,19.073,499.374,20.144,502.003,20.144z"/>
		<path id="XMLID_1737_" d="M400.003,290.713c2.63,0,5.21-1.06,7.07-2.93c1.86-1.859,2.93-4.43,2.93-7.07
			c0-2.63-1.07-5.21-2.93-7.069c-1.86-1.86-4.44-2.931-7.07-2.931c-2.64,0-5.21,1.07-7.07,2.931c-1.87,1.859-2.93,4.439-2.93,7.069
			c0,2.641,1.06,5.211,2.93,7.07C394.793,289.653,397.374,290.713,400.003,290.713z"/>
		<path id="XMLID_1739_" d="M54.003,280.713c0,2.631,1.06,5.211,2.93,7.07c1.86,1.87,4.44,2.93,7.07,2.93s5.2-1.06,7.07-2.93
			c1.86-1.859,2.93-4.439,2.93-7.07c0-2.63-1.07-5.21-2.93-7.069c-1.86-1.86-4.44-2.931-7.07-2.931c-2.64,0-5.21,1.07-7.07,2.931
			C55.063,275.503,54.003,278.083,54.003,280.713z"/>
		<path id="XMLID_1740_" d="M25.003,200.524c2.63,0,5.21-1.07,7.07-2.93c1.86-1.86,2.93-4.431,2.93-7.07c0-2.63-1.07-5.21-2.93-7.07
			c-1.86-1.859-4.44-2.93-7.07-2.93c-2.64,0-5.21,1.07-7.08,2.93c-1.86,1.86-2.92,4.44-2.92,7.07c0,2.64,1.06,5.21,2.92,7.07
			C19.793,199.453,22.374,200.524,25.003,200.524z"/>
		<path id="XMLID_1748_" d="M61.164,20.144c2.64,0,5.21-1.07,7.07-2.931c1.87-1.859,2.93-4.439,2.93-7.069s-1.06-5.21-2.93-7.07
			c-1.86-1.86-4.43-2.93-7.07-2.93c-2.63,0-5.21,1.069-7.07,2.93c-1.86,1.86-2.93,4.44-2.93,7.07s1.07,5.21,2.93,7.069
			C55.963,19.073,58.533,20.144,61.164,20.144z"/>
		<path id="XMLID_1764_" d="M304.261,49.108c-2.652,0-5.196,1.054-7.071,2.929l-10.072,10.072c-3.905,3.905-3.905,10.237,0,14.143
			c3.905,3.904,10.237,3.904,14.142,0l3-3.001l3.001,3.001c1.953,1.952,4.512,2.929,7.071,2.929s5.119-0.977,7.071-2.929
			c3.905-3.905,3.905-10.237,0-14.143l-10.072-10.072C309.457,50.161,306.913,49.108,304.261,49.108z"/>
		<path id="XMLID_1778_" d="M113.721,120.015c1.575,0.909,3.294,1.342,4.991,1.342c3.456,0,6.817-1.794,8.669-5.002l2.122-3.676
			l3.675,2.122c4.783,2.763,10.899,1.124,13.66-3.66c2.762-4.783,1.123-10.898-3.66-13.66l-12.335-7.122
			c-2.295-1.325-5.025-1.687-7.588-0.999c-2.562,0.687-4.746,2.362-6.072,4.659l-7.122,12.336
			C107.299,111.138,108.938,117.253,113.721,120.015z"/>
		<path id="XMLID_1781_" d="M352.003,115.564c-2.64,0-5.21,1.06-7.08,2.92c-1.86,1.86-2.92,4.44-2.92,7.07
			c0,2.64,1.06,5.21,2.92,7.069c1.87,1.87,4.45,2.94,7.08,2.94s5.2-1.07,7.07-2.94c1.86-1.859,2.93-4.43,2.93-7.069
			c0-2.63-1.07-5.2-2.93-7.07C357.204,116.623,354.633,115.564,352.003,115.564z"/>
	</g>
</g>
<g>
</g>
<g>
</g>
<g>
</g>
<g>
</g>
<g>
</g>
<g>
</g>
<g>
</g>
<g>
</g>
<g>
</g>
<g>
</g>
<g>
</g>
<g>
</g>
<g>
</g>
<g>
</g>
<g>
</g>
</svg>
