<?xml version="1.0" encoding="iso-8859-1"?>
<!-- Generator: Adobe Illustrator 22.0.0, SVG Export Plug-In . SVG Version: 6.00 Build 0)  -->
<svg version="1.1" id="Capa_1" xmlns="http://www.w3.org/2000/svg" xmlns:xlink="http://www.w3.org/1999/xlink" x="0px" y="0px"
	 viewBox="0 0 512.001 512.001" style="enable-background:new 0 0 512.001 512.001;" xml:space="preserve">
<g id="XMLID_1555_">
	<path id="XMLID_1542_" style="fill:#E2F1A1;" d="M328.172,323.073l30.718-43.482h-56.651l69.698-98.658h-49.613L386.564,90
		l64.241,90.933h-49.613l69.698,98.658h-56.651l80.503,113.952h-56.38l61.054,86.422c6.538,9.255-0.08,22.035-11.412,22.035h-56.527
		"/>
	<path id="XMLID_1540_" style="fill:#E2F1A1;" d="M190.001,333l-36.889-53.409h56.651l-69.698-98.658h49.613L125.437,90
		l-64.241,90.933h49.613l-69.698,98.658h56.651L17.26,393.543h56.38l-61.054,86.422C6.047,489.221,12.666,502,23.997,502H120.5
		L190.001,333z"/>
	<path id="XMLID_1539_" style="fill:#FFCB7C;" d="M267.511,76.308c-25.233,0-45.688-20.455-45.688-45.688
		c0-7.422,1.781-14.423,4.921-20.62c-24.436,0.905-43.971,20.988-43.971,45.645c0,25.233,20.456,45.688,45.688,45.688
		c17.811,0,33.231-10.199,40.767-25.069C268.658,76.286,268.087,76.308,267.511,76.308z"/>
	<polygon id="XMLID_1541_" style="fill:#91DEF5;" points="87.806,502 256,210.679 424.195,502 	"/>
	<polyline id="XMLID_2150_" style="fill:#FFCB7C;" points="256.127,502 256.127,350.033 343.738,502 	"/>
	<polygon id="XMLID_1537_" style="fill:#FFFFFF;" points="343.738,392 256.127,350.033 343.738,502 	"/>
	<g id="XMLID_1544_">
		<path id="XMLID_1849_" d="M228.461,111.333c21.099,0,40.137-11.705,49.687-30.548c1.602-3.16,1.411-6.932-0.499-9.914
			s-5.241-4.741-8.797-4.6c-0.445,0.017-0.892,0.036-1.341,0.036c-19.679,0-35.688-16.01-35.688-35.688
			c0-5.654,1.292-11.071,3.841-16.1c1.601-3.158,1.412-6.929-0.497-9.911s-5.237-4.733-8.793-4.603
			c-30.057,1.112-53.601,25.552-53.601,55.638C172.773,86.352,197.754,111.333,228.461,111.333z M212.23,23.822
			c-0.271,2.238-0.407,4.506-0.407,6.798c0,24.805,16.304,45.874,38.757,53.057c-6.175,4.885-13.903,7.656-22.118,7.656
			c-19.679,0-35.688-16.01-35.688-35.688C192.773,41.735,200.625,29.71,212.23,23.822z"/>
		<path id="XMLID_1850_" d="M269.1,37.67c2.63,0,5.21-1.07,7.07-2.93c1.86-1.86,2.93-4.44,2.93-7.07c0-2.64-1.069-5.21-2.93-7.07
			c-1.86-1.87-4.44-2.93-7.07-2.93s-5.21,1.06-7.069,2.93c-1.86,1.86-2.931,4.431-2.931,7.07c0,2.63,1.07,5.21,2.931,7.07
			C263.89,36.6,266.47,37.67,269.1,37.67z"/>
		<path id="XMLID_1911_" d="M507.583,474.196l-49.913-70.653h37.07c3.736,0,7.161-2.083,8.88-5.401
			c1.719-3.317,1.443-7.316-0.713-10.368l-69.36-98.183h37.343c3.736,0,7.161-2.083,8.88-5.401
			c1.718-3.317,1.443-7.316-0.713-10.369L420.5,190.934h30.305c3.736,0,7.161-2.083,8.88-5.401
			c1.719-3.317,1.443-7.316-0.713-10.368L394.731,84.23c-1.873-2.653-4.919-4.23-8.167-4.23s-6.294,1.577-8.167,4.23l-64.241,90.934
			c-2.156,3.052-2.432,7.051-0.713,10.368c1.719,3.318,5.144,5.401,8.88,5.401h30.305l-53.091,75.152l-31.989-55.407L280.064,189
			c2.762-4.783,1.123-10.898-3.66-13.66c-4.784-2.763-10.9-1.123-13.66,3.66L256,190.679L249.257,179
			c-2.762-4.782-8.876-6.421-13.66-3.66c-4.783,2.762-6.422,8.877-3.66,13.66l12.516,21.679l-31.989,55.407l-53.091-75.152h30.305
			c3.736,0,7.161-2.083,8.88-5.401c1.719-3.317,1.443-7.316-0.713-10.368L133.604,84.23c-1.873-2.653-4.919-4.23-8.167-4.23
			c-3.248,0-6.294,1.577-8.167,4.23l-64.241,90.934c-2.156,3.052-2.432,7.051-0.713,10.368c1.719,3.318,5.144,5.401,8.88,5.401H91.5
			L32.944,273.82c-2.156,3.053-2.431,7.052-0.713,10.369c1.719,3.318,5.144,5.401,8.88,5.401h37.343l-69.36,98.183
			c-2.156,3.052-2.432,7.051-0.713,10.368c1.719,3.318,5.144,5.401,8.88,5.401h37.07L4.417,474.196
			c-5.188,7.346-5.843,16.87-1.707,24.856C6.847,507.039,15.003,512,23.998,512h63.809H93.5h250.222c0.005,0,0.01,0.001,0.015,0.001
			s0.01-0.001,0.015-0.001h144.251c8.994,0,17.15-4.961,21.287-12.947C513.426,491.066,512.772,481.542,507.583,474.196z
			 M313.107,289.591h26.475l-14.569,20.622L313.107,289.591z M186.987,310.213l-14.569-20.622h26.475L186.987,310.213z
			 M123.834,439.599c-4.785-2.761-10.899-1.123-13.66,3.66L82.033,492H23.998c-2.103,0-3.112-1.344-3.527-2.146
			c-0.415-0.801-0.931-2.401,0.283-4.119l61.053-86.423c2.156-3.052,2.432-7.051,0.713-10.368c-1.719-3.318-5.144-5.401-8.88-5.401
			h-37.07l69.361-98.183c2.155-3.052,2.43-7.051,0.712-10.368c-1.719-3.318-5.144-5.401-8.88-5.401H60.419l58.557-82.887
			c2.156-3.053,2.432-7.052,0.713-10.369c-1.719-3.318-5.144-5.401-8.88-5.401H80.504l44.933-63.603l44.933,63.603h-30.305
			c-3.736,0-7.161,2.083-8.88,5.401c-1.719,3.317-1.443,7.316,0.713,10.368l58.556,82.888h-37.343c-3.736,0-7.161,2.083-8.88,5.401
			c-1.718,3.317-1.443,7.316,0.712,10.368l30.718,43.482c0.104,0.147,0.219,0.28,0.329,0.419l-20.751,35.941
			c-2.762,4.783-1.123,10.898,3.66,13.66c4.785,2.761,10.899,1.123,13.66-3.66l49.525-85.78c0-0.001,0.001-0.002,0.002-0.003
			L256,230.679l33.914,58.741c0,0.001,0.001,0.001,0.001,0.002l52.439,90.827l-81.907-39.234c-3.952-1.892-8.677-0.994-11.656,2.223
			c-1.755,1.894-2.655,4.332-2.657,6.792c-0.002,0.002-0.005,0.003-0.007,0.004V492H105.126l22.367-38.741
			C130.255,448.476,128.617,442.36,123.834,439.599z M266.127,387.4L326.431,492h-60.304V387.4z M333.739,464.633l-52.833-91.643
			l52.833,25.308V464.633z M353.739,492v-92.034L406.875,492H353.739z M491.531,489.855c-0.415,0.802-1.425,2.146-3.527,2.146
			h-56.527c-0.491,0-0.969,0.047-1.441,0.115l-94.024-162.854c0.11-0.139,0.226-0.272,0.329-0.419l30.718-43.482
			c2.155-3.052,2.43-7.051,0.712-10.368c-1.719-3.318-5.144-5.401-8.88-5.401h-37.343l58.556-82.888
			c2.156-3.052,2.432-7.051,0.713-10.368c-1.719-3.318-5.144-5.401-8.88-5.401h-30.305l44.933-63.603l44.933,63.603h-30.305
			c-3.736,0-7.161,2.083-8.88,5.401c-1.719,3.317-1.443,7.316,0.713,10.369l58.557,82.887h-37.343c-3.736,0-7.161,2.083-8.88,5.401
			c-1.718,3.317-1.443,7.316,0.712,10.368l69.361,98.183h-37.07c-3.736,0-7.161,2.083-8.88,5.401
			c-1.719,3.317-1.443,7.316,0.713,10.368l61.053,86.423C492.461,487.453,491.946,489.054,491.531,489.855z"/>
		<path id="XMLID_1960_" d="M141.4,419.18c2.631,0,5.21-1.07,7.07-2.93c1.86-1.86,2.92-4.44,2.92-7.07s-1.06-5.21-2.92-7.07
			c-1.86-1.859-4.439-2.93-7.07-2.93c-2.64,0-5.21,1.07-7.08,2.93c-1.859,1.86-2.92,4.44-2.92,7.07s1.061,5.21,2.92,7.07
			C136.19,418.109,138.76,419.18,141.4,419.18z"/>
	</g>
</g>
<g>
</g>
<g>
</g>
<g>
</g>
<g>
</g>
<g>
</g>
<g>
</g>
<g>
</g>
<g>
</g>
<g>
</g>
<g>
</g>
<g>
</g>
<g>
</g>
<g>
</g>
<g>
</g>
<g>
</g>
</svg>
