<?xml version="1.0" encoding="iso-8859-1"?>
<!-- Generator: Adobe Illustrator 22.0.0, SVG Export Plug-In . SVG Version: 6.00 Build 0)  -->
<svg version="1.1" id="Capa_1" xmlns="http://www.w3.org/2000/svg" xmlns:xlink="http://www.w3.org/1999/xlink" x="0px" y="0px"
	 viewBox="0 0 512.01 512.01" style="enable-background:new 0 0 512.01 512.01;" xml:space="preserve">
<g id="XMLID_1814_">
	<path id="XMLID_1813_" style="fill:#98A1B3;" d="M452.149,95c0,108.328-87.817,196.145-196.145,196.145S59.86,203.328,59.86,95
		H452.149z"/>
	<polyline id="XMLID_273_" style="fill:#FFCB7C;" points="181.283,351.851 328.479,351.851 341.151,391.851 168.255,391.851 	"/>
	<g id="XMLID_271_">
		<path id="XMLID_272_" style="fill:#E1E3E9;" d="M198.606,284.532l-64.591,203.513c-3.341,10.528-14.584,16.354-25.112,13.012h0
			c-10.528-3.341-16.354-14.585-13.013-25.113l66.233-208.686"/>
	</g>
	<g id="XMLID_1693_">
		<g id="XMLID_1746_">
			<polyline id="XMLID_1747_" style="fill:#E1E3E9;" points="398.854,440.91 345.474,273.056 307.638,286.067 359.855,450.888 			
				"/>
		</g>
	</g>
	<circle id="XMLID_1654_" style="fill:#98A1B3;" cx="385.522" cy="470" r="32"/>
	<g id="XMLID_1411_">
		<path id="XMLID_1510_" d="M476.149,85h-24H266.132V74.937c0-8.236,6.7-14.937,14.937-14.937h71.883c16.542,0,30-13.458,30-30
			s-13.458-30-30-30h-53.946c-5.522,0-10,4.478-10,10s4.478,10,10,10h53.946c5.514,0,10,4.486,10,10s-4.486,10-10,10h-71.883
			c-19.264,0-34.937,15.673-34.937,34.937V85h-130.87V74.937c0-8.236,6.7-14.937,14.937-14.937h71.883c5.522,0,10-4.478,10-10
			s-4.478-10-10-10h-71.883c-19.264,0-34.937,15.673-34.937,34.937V85H59.86h-24c-18.748,0-34,15.252-34,34s15.252,34,34,34H58.18
			c14.733,50.168,48.068,92.453,91.998,118.841l-18.089,56.995c-1.671,5.265,1.242,10.886,6.506,12.557
			c1.007,0.319,2.025,0.472,3.028,0.472c4.24,0,8.177-2.72,9.528-6.978l16.962-53.446c6.027,2.853,12.213,5.421,18.542,7.689
			l-62.172,195.891c-1.668,5.254-7.295,8.17-12.557,6.506c-2.545-0.808-4.623-2.559-5.853-4.931
			c-1.229-2.371-1.46-5.079-0.652-7.625l18.499-58.288c1.671-5.265-1.242-10.886-6.506-12.557
			c-5.263-1.67-10.887,1.241-12.557,6.506L86.359,472.92c-2.425,7.638-1.729,15.762,1.957,22.877s9.924,12.368,17.562,14.792
			c2.992,0.95,6.057,1.421,9.108,1.421c4.738,0,9.44-1.137,13.769-3.379c7.114-3.687,12.368-9.923,14.791-17.561l28.317-89.22
			h161.967l15.081,47.605c-3.424,6.078-5.388,13.085-5.388,20.545c0,23.159,18.841,42,42,42s42-18.841,42-42
			c0-15.252-8.174-28.628-20.369-35.986l-50.6-159.112c46.533-26.111,81.958-69.744,97.276-121.902h22.319c18.748,0,34-15.252,34-34
			S494.897,85,476.149,85z M49.86,133h-14c-7.72,0-14-6.28-14-14s6.28-14,14-14h14V133z M256.005,301.145
			c15.237,0,30.087-1.677,44.391-4.828l14.426,45.534H190.906l14.886-46.903C221.872,298.988,238.69,301.145,256.005,301.145z
			 M178.21,381.851l6.348-20h136.599l6.336,20H178.21z M385.522,492c-12.131,0-22-9.869-22-22s9.869-22,22-22s22,9.869,22,22
			S397.653,492,385.522,492z M384.265,428.032c-7.05,0.209-13.667,2.16-19.437,5.442l-14.116-44.558
			c-0.009-0.029-0.018-0.057-0.027-0.086l-12.649-39.926c-0.006-0.02-0.012-0.039-0.019-0.059l-18.307-57.788
			c6.384-2.08,12.632-4.462,18.727-7.132L384.265,428.032z M256.005,281.145c-99.289,0-180.67-78.131-185.879-176.145h371.758
			C436.675,203.014,355.294,281.145,256.005,281.145z M476.149,133h-14v-28h14c7.72,0,14,6.28,14,14S483.869,133,476.149,133z"/>
		<path id="XMLID_1534_" d="M417.522,60h59.146c5.522,0,10-4.478,10-10s-4.478-10-10-10h-59.146c-5.522,0-10,4.478-10,10
			S412,60,417.522,60z"/>
		<path id="XMLID_1535_" d="M135.074,381.83c1.86-1.86,2.931-4.44,2.931-7.07s-1.07-5.21-2.931-7.07
			c-1.859-1.859-4.439-2.93-7.069-2.93s-5.21,1.07-7.07,2.93c-1.86,1.86-2.93,4.44-2.93,7.07s1.069,5.21,2.93,7.07
			c1.86,1.859,4.44,2.93,7.07,2.93S133.215,383.689,135.074,381.83z"/>
	</g>
</g>
<g>
</g>
<g>
</g>
<g>
</g>
<g>
</g>
<g>
</g>
<g>
</g>
<g>
</g>
<g>
</g>
<g>
</g>
<g>
</g>
<g>
</g>
<g>
</g>
<g>
</g>
<g>
</g>
<g>
</g>
</svg>
