<?xml version="1.0" encoding="iso-8859-1"?>
<!-- Generator: Adobe Illustrator 22.0.0, SVG Export Plug-In . SVG Version: 6.00 Build 0)  -->
<svg version="1.1" id="Capa_1" xmlns="http://www.w3.org/2000/svg" xmlns:xlink="http://www.w3.org/1999/xlink" x="0px" y="0px"
	 viewBox="0 0 512 512" style="enable-background:new 0 0 512 512;" xml:space="preserve">
<g id="XMLID_1990_">
	<path id="XMLID_1960_" style="fill:#FFD89E;" d="M499.011,47.825l-34.969-34.969c-4.274-4.274-11.367-3.668-14.854,1.268
		L409.547,70.24l32.08,32.08l56.116-39.641C502.679,59.191,503.285,52.098,499.011,47.825z"/>
	<path id="XMLID_1875_" style="fill:#FFCB7C;" d="M299.518,347.996c6.869-4.214,13.333-9.346,19.216-15.398
		c36.72-37.776,37.064-98.502,0.748-136.667c-38.351-40.302-102.125-40.9-141.23-1.795c-5.469,5.469-10.16,11.42-14.074,17.717
		c-8.531,13.724-22.673,22.831-38.692,24.949C97.601,240.489,70.66,253,49.182,274.342c-51.526,51.198-52.281,135.234-1.637,187.304
		c51.893,53.353,137.218,53.802,189.673,1.347c21.484-21.484,34.09-48.482,37.823-76.438
		C277.159,370.695,285.878,356.362,299.518,347.996z"/>
	<g id="XMLID_1932_">
		
			<rect id="XMLID_1934_" x="142.842" y="303.192" transform="matrix(0.7071 -0.7071 0.7071 0.7071 -175.954 226.9622)" style="fill:#B8866B;" width="86.297" height="45.368"/>
	</g>
	
		<rect id="XMLID_1935_" x="116.839" y="324" transform="matrix(0.7071 -0.7071 0.7071 0.7071 -222.4701 207.6946)" style="fill:#8690A6;" width="45.271" height="96.785"/>
	
		<rect id="XMLID_2015_" x="239.029" y="140.871" transform="matrix(0.7071 -0.7071 0.7071 0.7071 -13.6323 294.198)" style="fill:#B8866B;" width="218.567" height="45.368"/>
	<circle id="XMLID_2597_" style="fill:#8690A6;" cx="242.165" cy="269.702" r="40.831"/>
	<g id="XMLID_1987_">
		<polygon id="XMLID_1988_" style="fill:#B0E7F8;" points="372.312,345.625 372.312,392.761 501.956,368.761 501.956,321.625 		"/>
		<circle id="XMLID_1861_" style="fill:#CFF1FB;" cx="348.312" cy="477.07" r="24"/>
		<circle id="XMLID_913_" style="fill:#CFF1FB;" cx="477.956" cy="453.07" r="24"/>
	</g>
	<g id="XMLID_1986_">
		<polygon id="XMLID_1985_" style="fill:#B0E7F8;" points="154.045,10 58.045,27.772 58.045,74.909 154.045,57.137 		"/>
		<circle id="XMLID_916_" style="fill:#CFF1FB;" cx="34.045" cy="159.217" r="24"/>
	</g>
	<g id="XMLID_1370_">
		<path id="XMLID_1531_" d="M355.917,275.148c2.186-21.179-1.922-42.681-11.585-61.39l15.649-15.649
			c3.905-3.905,3.905-10.237,0-14.143c-3.906-3.904-10.236-3.904-14.143,0l-20.786,20.786c-0.012,0.011-0.022,0.023-0.034,0.034
			l-39.073,39.073c-2.129-3.607-4.74-7.006-7.836-10.102c-3.067-3.067-6.459-5.688-10.095-7.843L409.547,84.382l17.938,17.938
			l-18.007,18.007c-3.905,3.905-3.905,10.237,0,14.143c3.906,3.904,10.236,3.904,14.143,0l24.475-24.475l55.418-39.148
			c4.767-3.368,7.786-8.634,8.282-14.449c0.496-5.814-1.585-11.517-5.712-15.644l-34.97-34.969
			c-4.128-4.128-9.834-6.204-15.644-5.712c-5.815,0.496-11.081,3.516-14.449,8.282l-39.148,55.417L298.137,167.507
			c-41.825-21.822-93.217-14.181-126.956,19.558c-5.908,5.908-11.122,12.473-15.497,19.51c-6.95,11.182-18.435,18.586-31.509,20.314
			c-31.259,4.133-59.628,18.089-82.042,40.359c-55.411,55.059-56.199,145.393-1.757,201.37
			c26.947,27.705,63.054,43.11,101.67,43.378c0.342,0.003,0.684,0.004,1.025,0.004c38.24,0,74.151-14.869,101.219-41.936
			c22.415-22.416,36.477-50.835,40.663-82.185c1.776-13.303,8.991-24.733,19.793-31.359c7.688-4.716,14.807-10.419,21.159-16.952
			C342.761,322.227,353.419,299.349,355.917,275.148z M132.364,347.412c0.002,0.002,0.003,0.004,0.005,0.006
			s0.004,0.003,0.006,0.005l32.069,32.071c0.001,0.001,0.002,0.003,0.004,0.004s0.003,0.002,0.004,0.004l11.103,11.104
			l-17.868,17.868l-54.295-54.295l17.869-17.869L132.364,347.412z M153.583,340.347l44.803-44.804
			c2.128,3.607,4.74,7.006,7.836,10.102c3.067,3.067,6.459,5.688,10.095,7.843l-44.797,44.797L153.583,340.347z M242.165,300.533
			c-8.235,0-15.978-3.207-21.801-9.031c-12.021-12.021-12.021-31.58,0-43.602c5.823-5.823,13.565-9.03,21.801-9.03
			s15.978,3.207,21.801,9.03c12.021,12.021,12.021,31.581,0,43.602C258.143,297.326,250.401,300.533,242.165,300.533z
			 M499.012,47.824l-7.07,7.071h-0.001L499.012,47.824z M457.183,20.139l34.546,34.545L442.74,89.29l-20.163-20.163L457.183,20.139z
			 M294.289,339.471c-15.955,9.788-26.583,26.467-29.16,45.761c-3.601,26.961-15.697,51.405-34.981,70.689
			c-23.494,23.494-54.742,36.33-87.963,36.076c-33.222-0.23-64.286-13.485-87.471-37.324
			C7.878,406.519,8.558,328.804,56.231,281.436c19.281-19.159,43.683-31.165,70.565-34.719c19.031-2.517,35.752-13.3,45.874-29.584
			c3.567-5.739,7.825-11.098,12.653-15.926c26.002-26.004,64.854-33.025,97.835-18.722l-36.584,36.584
			c-1.459-0.125-2.928-0.199-4.409-0.199c-13.578,0-26.343,5.287-35.943,14.888c-11.023,11.025-15.906,25.894-14.667,40.331
			l-52.115,52.116l-11.107-11.107c-3.905-3.902-10.235-3.904-14.143,0l-32.012,32.011c-1.875,1.875-2.929,4.419-2.929,7.071
			s1.054,5.195,2.929,7.071l68.438,68.438c1.953,1.952,4.512,2.929,7.071,2.929s5.118-0.977,7.071-2.929l32.011-32.011
			c3.905-3.905,3.905-10.237,0-14.143l-11.107-11.107l52.093-52.093c1.459,0.125,2.929,0.199,4.41,0.199
			c13.578,0,26.343-5.288,35.943-14.889c11.024-11.024,15.906-25.893,14.667-40.33l36.562-36.562
			c14.074,32.575,7.506,70.868-17.773,96.875C306.373,330.967,300.561,335.625,294.289,339.471z"/>
		<path id="XMLID_1574_" d="M508.351,313.937c-2.283-1.9-5.293-2.688-8.216-2.146l-129.643,24c-4.74,0.878-8.18,5.013-8.18,9.833
			v100.474c-4.273-1.939-9.01-3.028-14-3.028c-18.748,0-34,15.252-34,34s15.252,34,34,34s34-15.252,34-34v-75.99l109.643-20.297
			v41.316c-4.273-1.939-9.01-3.028-14-3.028c-18.748,0-34,15.252-34,34s15.252,34,34,34s34-15.252,34-34V321.624
			C511.955,318.654,510.634,315.836,508.351,313.937z M348.313,491.07c-7.72,0-14-6.28-14-14s6.28-14,14-14s14,6.28,14,14
			S356.032,491.07,348.313,491.07z M382.313,380.74v-26.797l109.643-20.297v26.797L382.313,380.74z M477.955,467.07
			c-7.72,0-14-6.28-14-14s6.28-14,14-14s14,6.28,14,14S485.675,467.07,477.955,467.07z"/>
		<path id="XMLID_1603_" d="M34.045,193.217c18.748,0,34-15.252,34-34c0-0.013-0.001-0.026-0.001-0.039V83.227l87.82-16.257
			c4.74-0.878,8.18-5.012,8.18-9.833V10c0-2.971-1.321-5.788-3.604-7.688c-2.283-1.9-5.293-2.687-8.216-2.146l-96,17.771
			c-4.74,0.878-8.18,5.012-8.18,9.833v47.137v53.337c-4.272-1.939-9.01-3.028-13.999-3.028c-18.748,0-34,15.252-34,34
			S15.297,193.217,34.045,193.217z M68.044,36.09l76-14.068v26.797l-76,14.068V36.09z M34.045,145.217
			c7.713,0,13.988,6.27,13.999,13.981v0.019c0,0.003,0,0.006,0,0.01c-0.005,7.715-6.283,13.99-14,13.99c-7.72,0-14-6.28-14-14
			S26.325,145.217,34.045,145.217z"/>
		<path id="XMLID_1605_" d="M377.66,152.15c-1.86,1.86-2.931,4.44-2.931,7.07s1.07,5.21,2.931,7.07
			c1.859,1.859,4.439,2.93,7.069,2.93s5.21-1.07,7.07-2.93c1.86-1.86,2.93-4.44,2.93-7.07c0-2.64-1.069-5.21-2.93-7.07
			c-1.86-1.869-4.44-2.93-7.07-2.93S379.52,150.281,377.66,152.15z"/>
	</g>
</g>
<g>
</g>
<g>
</g>
<g>
</g>
<g>
</g>
<g>
</g>
<g>
</g>
<g>
</g>
<g>
</g>
<g>
</g>
<g>
</g>
<g>
</g>
<g>
</g>
<g>
</g>
<g>
</g>
<g>
</g>
</svg>
