<?xml version="1.0" encoding="iso-8859-1"?>
<!-- Generator: Adobe Illustrator 22.0.0, SVG Export Plug-In . SVG Version: 6.00 Build 0)  -->
<svg version="1.1" id="Capa_1" xmlns="http://www.w3.org/2000/svg" xmlns:xlink="http://www.w3.org/1999/xlink" x="0px" y="0px"
	 viewBox="0 0 512 512" style="enable-background:new 0 0 512 512;" xml:space="preserve">
<g id="XMLID_83_">
	<path id="XMLID_86_" style="fill:#B0E7F8;" d="M502,79.25C502,41.004,470.996,10,432.75,10c-24.763,0-46.477,13.007-58.718,32.552
		c-6.777-4.311-14.813-6.819-23.44-6.819c-24.158,0-43.741,19.584-43.741,43.741h195.144C501.995,79.399,502,79.325,502,79.25z"/>
	<g id="XMLID_1171_">
		<path id="XMLID_1042_" style="fill:#FFCB7C;" d="M150,212h34.777c12.15,0,22,9.85,22,22v0c0,12.15-9.85,22-22,22H150
			c-12.15,0-22-9.85-22-22v0C128,221.85,137.85,212,150,212z"/>
		<circle id="XMLID_2757_" style="fill:#B0E7F8;" cx="243.73" cy="406" r="28"/>
		<circle id="XMLID_2730_" style="fill:#8690A6;" cx="406" cy="406" r="96"/>
		<circle id="XMLID_2254_" style="fill:#8690A6;" cx="106" cy="406" r="96"/>
		<path id="XMLID_2651_" style="fill:#DFF6FC;" d="M10.024,131.103h203.812c-0.51-28.895-24.077-52.166-53.094-52.166
			c-16.38,0-31.017,7.423-40.758,19.08C111,77.972,90.888,64,67.5,64C35.744,64,10,89.744,10,121.5c0,1.806,0.094,3.589,0.257,5.353
			C10.121,128.254,10.051,129.673,10.024,131.103z"/>
	</g>
	<g id="XMLID_87_">
		<path id="XMLID_179_" d="M494.32,367.004c-5.256,1.694-8.144,7.329-6.449,12.586C490.61,388.089,492,396.975,492,406
			c0,47.421-38.579,86-86,86s-86-38.579-86-86c0-34.075,19.92-63.585,48.727-77.496c6.4,25.754,14.94,51.037,25.613,75.725
			l2.481,5.739c1.633,3.776,5.315,6.034,9.184,6.034c1.324,0,2.671-0.265,3.964-0.824c5.069-2.191,7.401-8.078,5.21-13.147
			l-2.481-5.738c-10.469-24.218-18.8-49.032-24.98-74.318C393.613,320.693,399.726,320,406,320c9.027,0,17.916,1.39,26.419,4.131
			c5.26,1.696,10.892-1.193,12.586-6.449c1.694-5.257-1.193-10.892-6.449-12.586C428.066,301.715,417.113,300,406,300
			c-7.758,0-15.321,0.845-22.609,2.435c-5.908-29.722-8.891-60.041-8.891-90.768c0-5.522-4.478-10-10-10H337
			c-5.522,0-10,4.478-10,10s4.478,10,10,10h17.601c0.165,8.141,0.534,16.253,1.1,24.333H214.433c1.506-3.708,2.344-7.757,2.344-12
			c0-17.645-14.355-32-32-32H150c-17.645,0-32,14.355-32,32s14.355,32,32,32h14.82l-20.572,41.143
			C132.377,302.534,119.48,300,106,300C47.552,300,0,347.552,0,406s47.552,106,106,106c52.221,0,95.739-37.96,104.42-87.734
			C216.89,436.017,229.394,444,243.73,444c20.953,0,38-17.047,38-38c0-8.312-2.69-16.004-7.235-22.266l84.609-105.086
			c1.392,10.04,3.095,20.023,5.116,29.941C326.487,324.834,300,362.38,300,406c0,58.448,47.552,106,106,106s106-47.552,106-106
			c0-11.111-1.714-22.062-5.094-32.547C505.213,368.197,499.577,365.307,494.32,367.004z M243.73,368
			c-1.667,0-3.305,0.12-4.916,0.329L196.021,266H343.61l-84.684,105.18C254.269,369.14,249.131,368,243.73,368z M138,234
			c0-6.617,5.383-12,12-12h34.776c6.617,0,12,5.383,12,12s-5.383,12-12,12h-3.685c-0.04,0-0.08,0-0.12,0H150
			C143.383,246,138,240.617,138,234z M180.19,279.981l40.181,96.08c-4.054,3.17-7.453,7.138-9.95,11.673
			c-5.257-30.143-23.292-55.947-48.298-71.617L180.19,279.981z M191.4,396h-69.219l30.943-61.887
			C173.88,347.765,188.391,370.147,191.4,396z M106,492c-47.421,0-86-38.579-86-86s38.579-86,86-86
			c10.268,0,20.118,1.815,29.255,5.13l-38.199,76.398c-1.55,3.1-1.384,6.781,0.438,9.729C99.315,414.205,102.534,416,106,416h85.4
			C186.427,458.724,150.037,492,106,492z M243.73,424c-6.227,0-11.723-3.18-14.956-8h8.476c5.522,0,10-4.478,10-10s-4.478-10-10-10
			h-8.476c3.233-4.82,8.729-8,14.956-8c9.925,0,18,8.075,18,18S253.655,424,243.73,424z"/>
		<path id="XMLID_185_" d="M106,455c-27.019,0-49-21.981-49-49c0-5.522-4.478-10-10-10s-10,4.478-10,10c0,38.047,30.953,69,69,69
			c5.522,0,10-4.478,10-10S111.522,455,106,455z"/>
		<path id="XMLID_186_" d="M406,455c-27.019,0-49-21.981-49-49c0-5.522-4.478-10-10-10s-10,4.478-10,10c0,38.047,30.953,69,69,69
			c5.522,0,10-4.478,10-10S411.522,455,406,455z"/>
		<path id="XMLID_191_" d="M0.025,130.912c-0.052,2.686,0.979,5.277,2.859,7.194c1.881,1.917,4.453,2.997,7.139,2.997h203.813
			c2.683,0,5.253-1.078,7.133-2.991c1.881-1.914,2.913-4.503,2.865-7.186c-0.293-16.622-6.984-32.202-18.841-43.87
			c-11.874-11.685-27.59-18.119-44.251-18.119c-14.086,0-27.557,4.667-38.491,13.102C109.717,64.674,89.417,54,67.5,54
			C30.28,54,0,84.28,0,121.5c0,0.626,0.006,1.792,0.013,3.114C0.024,126.795,0.041,130.091,0.025,130.912z M67.5,74
			c18.688,0,35.706,11.032,43.357,28.107c1.41,3.146,4.341,5.344,7.756,5.816c3.417,0.468,6.833-0.849,9.044-3.494
			c8.227-9.846,20.286-15.492,33.085-15.492c19.844,0,36.785,13.718,41.68,32.166H20.002C20.216,95.094,41.441,74,67.5,74z"/>
		<path id="XMLID_194_" d="M306.851,89.475h195.144c5.453,0,9.886-4.364,9.998-9.79C511.997,79.54,512,79.396,512,79.25
			C512,35.552,476.448,0,432.75,0c-24.367,0-46.887,10.958-61.858,29.714c-6.41-2.62-13.292-3.98-20.3-3.98
			c-29.633,0-53.741,24.108-53.741,53.741C296.851,84.997,301.328,89.475,306.851,89.475z M350.592,45.733
			c6.419,0,12.668,1.817,18.071,5.255c2.248,1.431,4.977,1.904,7.572,1.317c2.6-0.587,4.856-2.188,6.271-4.445
			C393.433,30.415,412.216,20,432.75,20c29.343,0,53.771,21.438,58.443,49.475h-172.83
			C322.635,55.737,335.468,45.733,350.592,45.733z"/>
		<path id="XMLID_195_" d="M466.751,331.106c-3.905,3.905-3.905,10.237,0,14.143c1.953,1.952,4.512,2.929,7.071,2.929
			s5.118-0.977,7.071-2.929l0.019-0.019c3.905-3.905,3.896-10.228-0.01-14.133C476.997,327.19,470.656,327.202,466.751,331.106z"/>
	</g>
</g>
<g>
</g>
<g>
</g>
<g>
</g>
<g>
</g>
<g>
</g>
<g>
</g>
<g>
</g>
<g>
</g>
<g>
</g>
<g>
</g>
<g>
</g>
<g>
</g>
<g>
</g>
<g>
</g>
<g>
</g>
</svg>
