<?xml version="1.0" encoding="iso-8859-1"?>
<!-- Generator: Adobe Illustrator 22.0.0, SVG Export Plug-In . SVG Version: 6.00 Build 0)  -->
<svg version="1.1" id="Capa_1" xmlns="http://www.w3.org/2000/svg" xmlns:xlink="http://www.w3.org/1999/xlink" x="0px" y="0px"
	 viewBox="0 0 512 512" style="enable-background:new 0 0 512 512;" xml:space="preserve">
<g id="XMLID_181_">
	<circle id="XMLID_1412_" style="fill:#FFCB7C;" cx="170" cy="197" r="78.596"/>
	<path id="XMLID_1469_" style="fill:#DFF6FC;" d="M432.5,475c38.384,0,69.5-31.116,69.5-69.5S470.884,336,432.5,336
		c-13.28,0-25.687,3.729-36.239,10.19c0.244-3.365,0.374-6.763,0.374-10.19c0-76.768-62.232-139-139-139
		c-69.612,0-127.271,51.172-137.415,117.951c-8.684-3.109-18.035-4.814-27.788-4.814C46.906,310.137,10,347.043,10,392.569
		S46.906,475,92.431,475H432.5z"/>
	<g id="XMLID_1238_">
		<path id="XMLID_1351_" d="M170,75.07c5.522,0,10-4.478,10-10V37c0-5.522-4.478-10-10-10s-10,4.478-10,10v28.07
			C160,70.593,164.478,75.07,170,75.07z"/>
		<path id="XMLID_1395_" d="M10,207h28.07c5.522,0,10-4.478,10-10s-4.478-10-10-10H10c-5.522,0-10,4.478-10,10S4.478,207,10,207z"/>
		<path id="XMLID_1396_" d="M263.288,113.712c2.56,0,5.118-0.977,7.071-2.929l19.849-19.849c3.905-3.905,3.905-10.237,0-14.143
			c-3.906-3.904-10.236-3.904-14.143,0l-19.849,19.849c-3.905,3.905-3.905,10.237,0,14.143
			C258.17,112.735,260.729,113.712,263.288,113.712z"/>
		<path id="XMLID_1397_" d="M69.641,110.783c1.953,1.952,4.512,2.929,7.071,2.929s5.118-0.977,7.071-2.929
			c3.905-3.905,3.905-10.237,0-14.143L63.935,76.792c-3.906-3.904-10.236-3.904-14.143,0c-3.905,3.905-3.905,10.237,0,14.143
			L69.641,110.783z"/>
		<path id="XMLID_1401_" d="M432.5,326c-8.893,0-17.665,1.483-25.971,4.352c-2.974-79.424-68.415-143.141-148.506-143.347
			c-2.267-20.249-11.37-38.98-26.122-53.389c-16.646-16.259-38.629-25.213-61.901-25.213c-48.853,0-88.597,39.744-88.597,88.597
			c0,30.589,16.056,59.059,41.633,75.119c-4.579,9.631-8.152,19.748-10.573,30.205c-6.553-1.453-13.255-2.187-20.031-2.187
			C41.465,300.137,0,341.602,0,392.568S41.465,485,92.432,485h125.856c5.522,0,10-4.478,10-10s-4.478-10-10-10H92.432
			C52.493,465,20,432.507,20,392.568s32.493-72.432,72.432-72.432c8.364,0,16.579,1.423,24.416,4.229
			c2.813,1.006,5.93,0.704,8.496-0.828c2.566-1.531,4.313-4.131,4.762-7.085C139.584,254.055,194.41,207,257.635,207
			c71.131,0,129,57.869,129,129c0,3.101-0.117,6.285-0.348,9.467c-0.271,3.739,1.571,7.315,4.773,9.265
			c3.203,1.95,7.227,1.944,10.422-0.013c9.315-5.704,20.041-8.719,31.018-8.719c32.809,0,59.5,26.691,59.5,59.5
			S465.309,465,432.5,465H308.288c-5.522,0-10,4.478-10,10s4.478,10,10,10H432.5c43.837,0,79.5-35.663,79.5-79.5
			S476.337,326,432.5,326z M160.076,223.378c-10.578,9.171-19.727,19.715-27.261,31.259c-19.324-12.526-31.412-34.285-31.412-57.637
			c0-37.824,30.772-68.597,68.597-68.597c34.541,0,63.707,26.289,68.038,59.894C209.309,192.106,182.163,204.228,160.076,223.378z"
			/>
		<path id="XMLID_1403_" d="M335.862,336c0,5.522,4.478,10,10,10s10-4.478,10-10c0-54.163-44.064-98.228-98.228-98.228
			c-5.522,0-10,4.478-10,10s4.478,10,10,10C300.77,257.772,335.862,292.865,335.862,336z"/>
		<path id="XMLID_1409_" d="M263.29,465c-2.63,0-5.21,1.069-7.07,2.93s-2.93,4.44-2.93,7.07s1.069,5.21,2.93,7.069
			c1.86,1.86,4.44,2.931,7.07,2.931s5.21-1.07,7.069-2.931c1.86-1.859,2.931-4.439,2.931-7.069s-1.07-5.21-2.931-7.07
			C268.5,466.069,265.92,465,263.29,465z"/>
	</g>
</g>
<g>
</g>
<g>
</g>
<g>
</g>
<g>
</g>
<g>
</g>
<g>
</g>
<g>
</g>
<g>
</g>
<g>
</g>
<g>
</g>
<g>
</g>
<g>
</g>
<g>
</g>
<g>
</g>
<g>
</g>
</svg>
