<?xml version="1.0" encoding="iso-8859-1"?>
<!-- Generator: Adobe Illustrator 22.0.0, SVG Export Plug-In . SVG Version: 6.00 Build 0)  -->
<svg version="1.1" id="Capa_1" xmlns="http://www.w3.org/2000/svg" xmlns:xlink="http://www.w3.org/1999/xlink" x="0px" y="0px"
	 viewBox="0 0 511.954 511.954" style="enable-background:new 0 0 511.954 511.954;" xml:space="preserve">
<g id="XMLID_336_">
	<path id="XMLID_2768_" style="fill:#FFE6C0;" d="M462.306,130.754L462.306,130.754c-17.691,45.641-61.608,75.72-110.557,75.723
		H136.28c-32.005,0-58.043,26.038-58.043,58.043v52c0,32.005,26.038,58.043,58.043,58.043h175.29l2.436-40.944l-173.62,0v-87.116
		h212.686c48.414,0.541,91.703,30.469,109.233,75.697l0,0L462.306,130.754z"/>
	<path id="XMLID_2767_" style="fill:#FFE6C0;" d="M10,246.477h327.194c35.37,0,64.043,28.673,64.043,64.043v0
		c0,35.37-28.673,64.043-64.043,64.043h-18.957v-40h18.957c13.279,0,24.043-10.764,24.043-24.043v0
		c0-13.279-10.764-24.043-24.043-24.043H10"/>
	<rect id="XMLID_167_" x="10" y="246.477" style="fill:#FF9D6C;" width="37" height="38"/>
	<path id="XMLID_2765_" style="fill:#FFCB7C;" d="M481.954,338.477L481.954,338.477c11.046,0,20-8.954,20-20v-184
		c0-11.046-8.954-20-20-20h0c-11.046,0-20,8.954-20,20v184C461.954,329.523,470.908,338.477,481.954,338.477z"/>
	<path id="XMLID_168_" style="fill:#FFCB7C;" d="M278.237,173.477v218c0,3.314,2.686,6,6,6h28c3.313,0,6-2.686,6-6v-218H278.237z"/>
	<path id="XMLID_169_" style="fill:#FFCB7C;" d="M198.237,173.477v218c0,3.314,2.686,6,6,6h28c3.313,0,6-2.686,6-6v-218H198.237z"/>
	<path id="XMLID_170_" style="fill:#FFCB7C;" d="M118.237,173.477v218c0,3.314,2.686,6,6,6h28c3.313,0,6-2.686,6-6v-218H118.237z"/>
	<g id="XMLID_369_">
		<path id="XMLID_1483_" d="M481.954,104.477c-14.243,0-26.191,9.981-29.239,23.313c-16.25,41.11-56.729,68.687-100.973,68.687
			h-8.788h-14.718v-23c0-5.522-4.478-10-10-10h-10v-16h6c5.522,0,10-4.478,10-10s-4.478-10-10-10h-32c-5.522,0-10,4.478-10,10
			s4.478,10,10,10h6v16h-10c-5.522,0-10,4.478-10,10v23h-20v-23c0-5.522-4.478-10-10-10h-10v-16h6c5.522,0,10-4.478,10-10
			s-4.478-10-10-10h-32c-5.522,0-10,4.478-10,10s4.478,10,10,10h6v16h-10c-5.522,0-10,4.478-10,10v23h-20v-23
			c0-5.522-4.478-10-10-10h-10v-16h6c5.522,0,10-4.478,10-10s-4.478-10-10-10h-32c-5.522,0-10,4.478-10,10s4.478,10,10,10h6v16h-10
			c-5.522,0-10,4.478-10,10v29.069c-15.003,6.818-27.114,18.929-33.931,33.931H10c-5.522,0-10,4.478-10,10v40
			c0,5.522,4.478,10,10,10h58.236v20.043c0,27.004,15.804,51.064,40,61.989v12.968c0,8.822,7.178,16,16,16h28
			c8.822,0,16-7.178,16-16v-6.914h20v6.914c0,8.822,7.178,16,16,16h28c8.822,0,16-7.178,16-16v-6.914h20v6.914
			c0,8.822,7.178,16,16,16h28c8.822,0,16-7.178,16-16v-6.914h8.957c21.133,0,41.31-9.064,55.357-24.869
			c3.669-4.128,3.297-10.449-0.831-14.118c-4.129-3.67-10.449-3.296-14.118,0.831c-10.255,11.539-24.983,18.156-40.408,18.156
			h-8.957v-20h8.957c18.771,0,34.043-15.271,34.043-34.043s-15.271-34.043-34.043-34.043h-8.957v-20h8.957
			c15.593,0,30.428,6.738,40.701,18.487c1.978,2.262,4.747,3.418,7.532,3.418c2.336,0,4.682-0.813,6.578-2.472
			c3.019-2.639,4.058-6.69,3.016-10.303c25.835,11.332,47.005,32.514,57.694,59.556c3.048,13.333,14.996,23.313,29.239,23.313
			c16.542,0,30-13.458,30-30v-184C511.954,117.935,498.496,104.477,481.954,104.477z M268.236,276.477h-20v-20h20V276.477z
			 M248.236,296.477h20v28.086h-20V296.477z M268.236,216.477v20h-20v-20H268.236z M188.236,276.477h-20v-20h20V276.477z
			 M168.236,296.477h20v28.086h-20V296.477z M188.236,216.477v20h-20v-20H188.236z M57,276.477v-20h51.236v20H57z M108.236,225.553
			v10.924H97.312C100.345,232.277,104.036,228.586,108.236,225.553z M20,256.477h17v20H20V256.477z M88.236,316.52v-20.043h20
			v59.058C95.896,346.68,88.236,332.314,88.236,316.52z M148.236,387.477h-20v-15.632c0-0.004,0-0.007,0-0.011v-162.63
			c0-0.004,0-0.007,0-0.011v-25.716h20V387.477z M168.236,364.563v-20h20v20H168.236z M228.236,387.477h-20V246.496
			c0-0.006,0.001-0.013,0.001-0.019s-0.001-0.013-0.001-0.019v-62.981h20V387.477z M248.236,364.563v-20h20v20H248.236z
			 M308.236,387.477h-20v-204h20V387.477z M337.193,296.477c7.743,0,14.043,6.3,14.043,14.043s-6.3,14.043-14.043,14.043h-8.957
			v-28.086H337.193z M424.396,258.972c-21.487-14.717-46.61-22.495-72.654-22.495h-8.788c-0.519,0-1.023,0.052-1.521,0.128
			c-1.408-0.081-2.821-0.128-4.24-0.128h-8.957v-20h14.718h8.788c26.044,0,51.167-7.778,72.654-22.495
			c10.485-7.181,19.732-15.775,27.558-25.506v116.002C444.129,274.747,434.882,266.153,424.396,258.972z M491.954,318.477
			c0,5.514-4.486,10-10,10c-4.82,0-8.854-3.428-9.793-7.974c-0.001-0.007-0.003-0.013-0.004-0.02
			c-0.133-0.648-0.203-1.319-0.203-2.006v-184c0-0.687,0.07-1.358,0.203-2.006c0.001-0.007,0.003-0.013,0.004-0.02
			c0.939-4.546,4.973-7.974,9.793-7.974c5.514,0,10,4.486,10,10V318.477z"/>
		<path id="XMLID_1508_" d="M401.24,300.517c-2.641,0-5.211,1.069-7.08,2.93c-1.86,1.86-2.92,4.44-2.92,7.07s1.06,5.21,2.92,7.069
			c1.869,1.87,4.449,2.931,7.08,2.931c2.63,0,5.199-1.061,7.069-2.931c1.86-1.859,2.931-4.439,2.931-7.069s-1.07-5.21-2.931-7.07
			C406.45,301.586,403.87,300.517,401.24,300.517z"/>
	</g>
</g>
<g>
</g>
<g>
</g>
<g>
</g>
<g>
</g>
<g>
</g>
<g>
</g>
<g>
</g>
<g>
</g>
<g>
</g>
<g>
</g>
<g>
</g>
<g>
</g>
<g>
</g>
<g>
</g>
<g>
</g>
</svg>
