<?xml version="1.0" encoding="iso-8859-1"?>
<!-- Generator: Adobe Illustrator 22.0.0, SVG Export Plug-In . SVG Version: 6.00 Build 0)  -->
<svg version="1.1" id="Capa_1" xmlns="http://www.w3.org/2000/svg" xmlns:xlink="http://www.w3.org/1999/xlink" x="0px" y="0px"
	 viewBox="0 0 512 512" style="enable-background:new 0 0 512 512;" xml:space="preserve">
<g id="XMLID_2194_">
	<circle id="XMLID_1250_" style="fill:#DFF6FC;" cx="256" cy="256" r="246"/>
	<circle id="XMLID_1248_" style="fill:#B0E7F8;" cx="256" cy="256" r="198"/>
	<path id="XMLID_1252_" style="fill:#FFFFFF;" d="M250.55,352.537l-9.887,3.516c-37,13.157-75.675-14.942-74.596-54.197
		l0.288-10.489c0.399-14.504-4.214-28.702-13.062-40.202l0,0c-27.028-35.128-10.355-86.443,32.159-98.976l0,0
		c13.918-4.103,25.995-12.878,34.198-24.846l1.979-2.888c24.104-35.17,76.007-35.17,100.111,0l1.979,2.888
		c8.203,11.969,20.28,20.744,34.198,24.846l0,0c42.514,12.532,59.187,63.847,32.159,98.976l0,0
		c-8.848,11.5-13.461,25.698-13.062,40.202l0.289,10.489c1.08,39.255-37.595,67.354-74.596,54.197l-9.887-3.516
		C279.15,347.676,264.221,347.676,250.55,352.537z"/>
	<circle id="XMLID_1251_" style="fill:#FFCB7C;" cx="271.686" cy="235.893" r="69.19"/>
	<path id="XMLID_1983_" style="fill:#F6838D;" d="M267.49,453.589L267.49,453.589c-5.918-20.174-21.695-35.95-41.868-41.868l0,0
		c-20.174-5.918-35.95-21.695-41.868-41.868l0,0c-5.918-20.174-21.695-35.95-41.868-41.868l0,0
		c-20.174-5.918-35.95-21.695-41.868-41.868l0,0c-5.918-20.174-21.695-35.95-41.868-41.868l56.58-56.58
		c20.174,5.918,35.95,21.695,41.868,41.868l0,0c5.918,20.174,21.695,35.95,41.868,41.868l0,0
		c20.174,5.918,35.95,21.695,41.868,41.868l0,0c5.918,20.174,21.695,35.95,41.868,41.868l0,0
		c20.174,5.918,35.95,21.695,41.868,41.868v0L267.49,453.589z"/>
	<g id="XMLID_1091_">
		<path id="XMLID_1218_" d="M437.02,74.98C388.667,26.629,324.38,0,256,0S123.333,26.629,74.98,74.98C26.629,123.333,0,187.62,0,256
			s26.629,132.667,74.98,181.02C123.333,485.371,187.62,512,256,512s132.667-26.629,181.02-74.98
			C485.371,388.667,512,324.38,512,256S485.371,123.333,437.02,74.98z M256,492C125.869,492,20,386.131,20,256S125.869,20,256,20
			s236,105.869,236,236S386.131,492,256,492z"/>
		<path id="XMLID_1258_" d="M462.779,233.437c-5.087-46.883-26.29-91.104-59.701-124.515C363.792,69.636,311.559,48,256,48
			s-107.792,21.636-147.078,60.922c-35.884,35.884-57.031,82.572-60.427,132.727c-0.345,1.281-0.428,2.629-0.242,3.969
			C48.084,249.064,48,252.525,48,256c0,55.559,21.636,107.792,60.922,147.078c33.449,33.449,77.722,54.657,124.662,59.718
			c7.4,0.797,14.814,1.191,22.221,1.191c38.874,0,77.356-10.881,110.298-31.466c4.684-2.927,6.107-9.097,3.181-13.78
			c-2.928-4.683-9.095-6.106-13.78-3.181c-19.06,11.911-39.493,20.053-60.391,24.549l7.69-7.691
			c0.019-0.018,0.037-0.037,0.056-0.055l28.284-28.284c2.586-2.586,3.554-6.377,2.524-9.886
			c-2.716-9.259-7.181-17.684-13.024-24.925c0.265,0.003,0.53,0.017,0.794,0.017c13.728,0,27.312-4.293,38.727-12.587
			c17.59-12.779,27.734-33.384,27.137-55.118l-0.289-10.488c-0.334-12.169,3.569-24.183,10.992-33.83
			c14.705-19.112,19.036-44.215,11.584-67.149s-25.711-40.697-48.842-47.516c-11.675-3.442-21.895-10.867-28.776-20.909
			l-1.979-2.887c-13.186-19.238-34.98-30.724-58.304-30.725h-0.001c-23.321,0-45.119,11.487-58.305,30.726l-1.979,2.887
			c-6.882,10.041-17.102,17.467-28.776,20.908c-21.942,6.467-39.206,22.565-47.361,43.389c-5.443-3.375-11.385-6.056-17.72-7.915
			c-3.509-1.029-7.301-0.062-9.887,2.524l-28.291,28.29c-0.015,0.015-0.03,0.03-0.045,0.045l-7.071,7.071
			c7.535-34.951,24.93-67.056,50.813-92.939C158.572,87.556,205.783,68,256,68s97.428,19.556,132.936,55.064
			c62.186,62.184,73.194,157.67,26.771,232.204c-2.92,4.688-1.486,10.855,3.201,13.775c4.689,2.92,10.855,1.485,13.775-3.201
			C457.103,326.637,467.791,279.614,462.779,233.437z M123.064,388.936c-34.676-34.676-54.128-80.514-55.021-129.411
			c10.702,6.614,18.728,16.964,22.378,29.407c6.91,23.553,25.097,41.739,48.648,48.648c16.988,4.984,30.105,18.101,35.089,35.087
			c6.909,23.554,25.096,41.74,48.648,48.649c12.661,3.715,23.166,11.951,29.762,22.936
			C205.279,443.408,158.715,424.586,123.064,388.936z M188.28,161.781c16.074-4.738,30.145-14.961,39.62-28.786l1.979-2.887
			c9.596-14.001,24.834-22.031,41.808-22.031c16.973,0.001,32.211,8.03,41.807,22.032l1.979,2.887
			c9.474,13.823,23.544,24.047,39.619,28.785c17.051,5.026,29.981,17.605,35.475,34.513c5.493,16.906,2.427,34.684-8.414,48.773
			c-10.219,13.281-15.593,29.821-15.133,46.575l0.289,10.488c0.422,15.363-6.467,29.354-18.9,38.388
			c-12.435,9.034-27.871,11.26-42.349,6.112l-9.887-3.516c-8.173-2.906-16.7-4.297-25.349-4.198
			c-9.47-6.31-16.652-15.638-20.328-26.737c6.75,1.878,13.851,2.903,21.191,2.903c43.666,0,79.19-35.524,79.19-79.19
			c0-43.665-35.524-79.189-79.19-79.189s-79.19,35.524-79.19,79.189c0,8.417,1.332,16.525,3.775,24.141
			c-14.53-5.918-25.597-18.04-30.077-33.313c-2.935-10.002-7.909-19.031-14.458-26.645
			C156.252,181.701,170.042,167.157,188.28,161.781z M212.495,235.893c0-32.637,26.553-59.189,59.19-59.189
			s59.19,26.553,59.19,59.189c0,32.638-26.553,59.19-59.19,59.19S212.495,268.53,212.495,235.893z M117.352,199.188
			c14.325,5.979,25.213,18.036,29.65,33.163c6.909,23.552,25.096,41.738,48.649,48.648c16.986,4.982,30.103,18.1,35.087,35.087
			c6.909,23.553,25.096,41.738,48.649,48.649c15.127,4.438,27.185,15.323,33.162,29.65l-13.341,13.341
			c-9.041-16.279-24.132-28.509-42.482-33.893c-16.987-4.983-30.104-18.1-35.087-35.088c-6.91-23.553-25.097-41.739-48.649-48.648
			c-16.987-4.983-30.104-18.1-35.087-35.088c-5.384-18.35-17.614-33.441-33.893-42.481L117.352,199.188z M89.046,227.493
			c14.328,5.978,25.227,18.019,29.666,33.147c6.909,23.554,25.096,41.74,48.648,48.649c16.987,4.983,30.104,18.101,35.088,35.087
			c6.909,23.554,25.096,41.74,48.648,48.649c15.128,4.438,27.17,15.337,33.148,29.665l-13.325,13.325
			c-9.04-16.278-24.133-28.508-42.483-33.892c-16.986-4.983-30.104-18.1-35.088-35.087c-6.909-23.553-25.096-41.738-48.648-48.649
			c-16.987-4.983-30.104-18.101-35.088-35.087c-5.383-18.351-17.612-33.444-33.891-42.484L89.046,227.493z"/>
		<path id="XMLID_1279_" d="M396.01,386.01c-2.63,0-5.21,1.06-7.07,2.93c-1.87,1.86-2.93,4.431-2.93,7.07c0,2.63,1.06,5.2,2.93,7.07
			c1.86,1.859,4.44,2.93,7.07,2.93s5.2-1.07,7.07-2.93c1.859-1.87,2.93-4.44,2.93-7.07s-1.07-5.21-2.93-7.07
			C401.21,387.069,398.64,386.01,396.01,386.01z"/>
	</g>
</g>
<g>
</g>
<g>
</g>
<g>
</g>
<g>
</g>
<g>
</g>
<g>
</g>
<g>
</g>
<g>
</g>
<g>
</g>
<g>
</g>
<g>
</g>
<g>
</g>
<g>
</g>
<g>
</g>
<g>
</g>
</svg>
