<?xml version="1.0" encoding="iso-8859-1"?>
<!-- Generator: Adobe Illustrator 22.0.0, SVG Export Plug-In . SVG Version: 6.00 Build 0)  -->
<svg version="1.1" id="Capa_1" xmlns="http://www.w3.org/2000/svg" xmlns:xlink="http://www.w3.org/1999/xlink" x="0px" y="0px"
	 viewBox="0 0 512 512" style="enable-background:new 0 0 512 512;" xml:space="preserve">
<g id="XMLID_1271_">
	<rect id="XMLID_1037_" x="302" y="462" style="fill:#CC9E83;" width="40" height="40"/>
	<polygon id="XMLID_1282_" style="fill:#D8EC84;" points="448,462 377.538,339.956 415.668,339.956 333.518,197.667 
		382.952,197.667 301.353,56.333 219.754,197.667 269.188,197.667 187.038,339.956 225.168,339.956 154.706,462 	"/>
	<path id="XMLID_1281_" style="fill:#FFCB7C;" d="M301.353,79.401l-19.049,13.904c-5.333,3.893-12.526-1.333-10.472-7.608
		l7.337-22.414l-19.174-13.867c-5.344-3.865-2.61-12.31,3.985-12.31h23.663l7.24-22.398c2.029-6.278,10.911-6.278,12.941,0
		l7.24,22.398h23.663c6.595,0,9.329,8.445,3.985,12.31l-19.174,13.867l7.337,22.414c2.054,6.275-5.138,11.501-10.472,7.608
		L301.353,79.401z"/>
	<circle id="XMLID_968_" style="fill:#FFCB7C;" cx="341.353" cy="393.241" r="20"/>
	<circle id="XMLID_967_" style="fill:#F5737F;" cx="281.353" cy="298.322" r="20"/>
	<rect id="XMLID_1639_" x="10" y="406" style="fill:#FFCB7C;" width="160" height="96"/>
	<rect id="XMLID_1278_" x="10" y="366" style="fill:#FBC2C7;" width="160" height="40"/>
	
		<rect id="XMLID_1276_" x="22" y="414" transform="matrix(5.279048e-11 1 -1 5.279048e-11 524 344)" style="fill:#F5737F;" width="136" height="40"/>
	<rect id="XMLID_1647_" x="170" y="438" style="fill:#FFFFFF;" width="132" height="64"/>
	<rect id="XMLID_1648_" x="170" y="438" style="fill:#F5737F;" width="132" height="64"/>
	<rect id="XMLID_1034_" x="216" y="438" style="fill:#FFFFFF;" width="40" height="64"/>
	<g id="XMLID_65_">
		<path id="XMLID_156_" d="M341.353,423.241c16.542,0,30-13.458,30-30s-13.458-30-30-30s-30,13.458-30,30
			S324.811,423.241,341.353,423.241z M341.353,383.241c5.514,0,10,4.486,10,10s-4.486,10-10,10s-10-4.486-10-10
			S335.839,383.241,341.353,383.241z"/>
		<path id="XMLID_182_" d="M311.353,298.322c0-16.542-13.458-30-30-30s-30,13.458-30,30s13.458,30,30,30
			S311.353,314.864,311.353,298.322z M271.353,298.322c0-5.514,4.486-10,10-10s10,4.486,10,10s-4.486,10-10,10
			S271.353,303.836,271.353,298.322z"/>
		<path id="XMLID_183_" d="M256.93,386.17c-1.86,1.86-2.93,4.44-2.93,7.07s1.07,5.21,2.93,7.07c1.86,1.86,4.44,2.93,7.07,2.93
			c2.63,0,5.21-1.07,7.07-2.93c1.86-1.86,2.93-4.44,2.93-7.07s-1.07-5.21-2.93-7.07s-4.44-2.93-7.07-2.93
			C261.37,383.24,258.79,384.31,256.93,386.17z"/>
		<path id="XMLID_185_" d="M306.02,139.67c-2.63,0-5.21,1.06-7.07,2.93c-1.86,1.86-2.93,4.43-2.93,7.07c0,2.63,1.07,5.21,2.93,7.07
			c1.86,1.86,4.44,2.93,7.07,2.93c2.63,0,5.21-1.07,7.07-2.93s2.93-4.44,2.93-7.07c0-2.64-1.07-5.21-2.93-7.07
			C311.23,140.73,308.65,139.67,306.02,139.67z"/>
		<path id="XMLID_186_" d="M90,159.667c1.057,0,1.917,0.86,1.917,1.917c0,5.523,4.477,10,10,10s10-4.477,10-10
			c0-1.057,0.86-1.917,1.917-1.917c5.523,0,10-4.477,10-10s-4.477-10-10-10c-1.057,0-1.917-0.86-1.917-1.917c0-5.523-4.477-10-10-10
			s-10,4.477-10,10c0,1.057-0.86,1.917-1.917,1.917c-5.523,0-10,4.477-10,10S84.477,159.667,90,159.667z"/>
		<path id="XMLID_187_" d="M502,257.917c-1.057,0-1.917-0.86-1.917-1.917c0-5.523-4.477-10-10-10s-10,4.477-10,10
			c0,1.057-0.86,1.917-1.917,1.917c-5.523,0-10,4.477-10,10s4.477,10,10,10c1.057,0,1.917,0.86,1.917,1.917c0,5.523,4.477,10,10,10
			s10-4.477,10-10c0-1.057,0.86-1.917,1.917-1.917c5.523,0,10-4.477,10-10S507.523,257.917,502,257.917z"/>
		<path id="XMLID_197_" d="M394.858,349.956h20.81c3.573,0,6.874-1.906,8.66-5c1.787-3.094,1.787-6.906,0-10l-19.094-33.071
			c-2.762-4.784-8.878-6.423-13.66-3.66c-4.783,2.761-6.422,8.877-3.66,13.66l10.434,18.071h-20.81c-3.573,0-6.874,1.906-8.66,5
			c-1.787,3.094-1.787,6.906,0,10L430.68,452H342h-30v-14c0-5.523-4.477-10-10-10h-46h-40h-30.117l47.946-83.044
			c1.787-3.094,1.787-6.906,0-10c-1.786-3.094-5.087-5-8.66-5h-20.811l73.491-127.29c1.787-3.094,1.787-6.906,0-10
			c-1.786-3.094-5.087-5-8.66-5h-32.114l49.084-85.016c0.7-0.373,1.384-0.789,2.04-1.268l13.154-9.601l13.154,9.601
			c0.656,0.479,1.34,0.896,2.041,1.269l49.084,85.016h-32.114c-3.573,0-6.874,1.906-8.66,5c-1.787,3.094-1.787,6.906,0,10
			l18.06,31.281c1.852,3.208,5.213,5.001,8.669,5.001c1.696,0,3.416-0.432,4.991-1.341c4.783-2.761,6.422-8.877,3.66-13.66
			l-9.4-16.281h32.114c3.573,0,6.874-1.906,8.66-5c1.787-3.094,1.787-6.906,0-10l-54.313-94.073
			c3.67-4.372,4.919-10.387,3.079-16.007l-5.066-15.477l13.26-9.589c5.922-4.283,8.389-11.833,6.138-18.787
			c-2.251-6.954-8.674-11.626-15.983-11.626H322.34l-5.002-15.474C315.089,4.675,308.666,0,301.353,0s-13.736,4.675-15.985,11.633
			l-5.002,15.474H263.98c-7.309,0-13.732,4.672-15.983,11.626c-2.251,6.954,0.216,14.504,6.138,18.787l13.26,9.589l-5.066,15.477
			c-1.84,5.62-0.591,11.636,3.079,16.008l-54.313,94.073c-1.787,3.094-1.787,6.906,0,10c1.786,3.094,5.087,5,8.66,5h32.114
			l-73.491,127.29c-1.787,3.094-1.787,6.906,0,10c1.786,3.094,5.087,5,8.66,5h20.81L180,398.19V366c0-5.523-4.477-10-10-10h-24.206
			c2.052-4.412,3.206-9.322,3.206-14.5c0-19.023-15.477-34.5-34.5-34.5c-9.572,0-18.244,3.921-24.5,10.238
			C83.744,310.921,75.072,307,65.5,307C46.477,307,31,322.477,31,341.5c0,5.178,1.154,10.088,3.206,14.5H10c-5.523,0-10,4.477-10,10
			v40v96c0,5.523,4.477,10,10,10h60h40h60h46h40h46h40h62.333c5.523,0,10-4.477,10-10s-4.477-10-10-10H352v-20h96
			c3.573,0,6.874-1.906,8.66-5c1.787-3.094,1.787-6.906,0-10L394.858,349.956z M287.643,47.107c4.338,0,8.181-2.797,9.515-6.924
			l4.195-12.979l4.195,12.979c1.334,4.127,5.177,6.924,9.515,6.924h13.777l-11.164,8.074c-3.523,2.548-4.996,7.082-3.644,11.214
			l4.25,12.984l-11.035-8.054c-1.756-1.282-3.826-1.923-5.896-1.923s-4.139,0.641-5.896,1.923l-11.035,8.054l4.25-12.984
			c1.353-4.132-0.12-8.666-3.644-11.214l-11.164-8.074H287.643z M292,462v30h-26v-44h26V462z M160,438v54h-40v-76h40V438z M160,396
			h-40v-20h40V396z M80,376h10h10v20H80V376z M114.5,327c7.995,0,14.5,6.505,14.5,14.5s-6.505,14.5-14.5,14.5H110h-10v-14.5
			C100,333.505,106.505,327,114.5,327z M51,341.5c0-7.995,6.505-14.5,14.5-14.5S80,333.505,80,341.5V356H70h-4.5
			C57.505,356,51,349.495,51,341.5z M20,376h40v20H20V376z M20,416h40v76H20V416z M80,492v-76h20v76H80z M180,448h26v44h-26V448z
			 M226,492v-44h20v44H226z M312,492v-20h20v20H312z"/>
		<path id="XMLID_210_" d="M381.15,274.99c1.86-1.86,2.93-4.44,2.93-7.07c0-2.64-1.07-5.21-2.93-7.07
			c-1.86-1.87-4.44-2.93-7.07-2.93c-2.64,0-5.21,1.06-7.07,2.93c-1.86,1.86-2.93,4.43-2.93,7.07c0,2.63,1.07,5.21,2.93,7.07
			s4.43,2.93,7.07,2.93C376.71,277.92,379.29,276.85,381.15,274.99z"/>
	</g>
</g>
<g>
</g>
<g>
</g>
<g>
</g>
<g>
</g>
<g>
</g>
<g>
</g>
<g>
</g>
<g>
</g>
<g>
</g>
<g>
</g>
<g>
</g>
<g>
</g>
<g>
</g>
<g>
</g>
<g>
</g>
</svg>
