<?xml version="1.0" encoding="iso-8859-1"?>
<!-- Generator: Adobe Illustrator 22.0.0, SVG Export Plug-In . SVG Version: 6.00 Build 0)  -->
<svg version="1.1" id="Capa_1" xmlns="http://www.w3.org/2000/svg" xmlns:xlink="http://www.w3.org/1999/xlink" x="0px" y="0px"
	 viewBox="0 0 512.015 512.015" style="enable-background:new 0 0 512.015 512.015;" xml:space="preserve">
<g id="XMLID_2232_">
	<path id="XMLID_1522_" style="fill:#FFFFFF;" d="M416.638,10.007c0,20.779-16.844,37.623-37.623,37.623
		s-37.623-16.844-37.623-37.623h-85.377v492h85.389c-0.002-0.158-0.012-0.313-0.012-0.471c0-20.779,16.844-37.623,37.623-37.623
		s37.623,16.844,37.623,37.623c0,0.158-0.01,0.314-0.012,0.471h85.389v-492H416.638z"/>
	<path id="XMLID_1853_" style="fill:#F6838D;" d="M256.015,344.175v157.832h85.389c-0.002-0.158-0.012-0.313-0.012-0.471
		c0-20.779,16.844-37.623,37.623-37.623s37.623,16.844,37.623,37.623c0,0.158-0.01,0.314-0.012,0.471h85.389V344.175H256.015z"/>
	<g id="XMLID_845_">
		<path id="XMLID_855_" style="fill:#8690A6;" d="M353.386,422.323l-237.403,63.612c-4.742,1.271-9.616-1.543-10.887-6.285
			L10.311,125.906c-1.271-4.742,1.543-9.616,6.285-10.887L254,51.407c25.369-6.798,51.446,8.258,58.243,33.627l74.77,279.045
			C393.811,389.449,378.755,415.525,353.386,422.323z"/>
		<circle id="XMLID_853_" style="fill:#B0E7F8;" cx="192.623" cy="222.454" r="77.107"/>
		
			<ellipse id="XMLID_851_" transform="matrix(0.9659 -0.2588 0.2588 0.9659 -51.012 57.4344)" style="fill:#DFF6FC;" cx="192.623" cy="222.454" rx="27.556" ry="77.107"/>
	</g>
	<g id="XMLID_125_">
		<path id="XMLID_153_" d="M502.015,0.007h-85.377c-5.523,0-10,4.477-10,10c0,15.231-12.392,27.623-27.623,27.623
			s-27.623-12.392-27.623-27.623c0-5.523-4.477-10-10-10h-85.377c-5.523,0-10,4.477-10,10v33.187L14.009,105.36
			c-4.874,1.306-8.947,4.431-11.47,8.801c-2.523,4.369-3.193,9.459-1.887,14.333l36.126,134.823c1.43,5.334,6.909,8.5,12.248,7.071
			c5.334-1.429,8.5-6.913,7.071-12.248l-35.838-133.75l236.33-63.324c20.004-5.36,40.636,6.553,45.996,26.556l74.77,279.044
			c5.359,20.003-6.554,40.637-26.556,45.997l-236.33,63.324L79.392,345.084c-1.429-5.334-6.914-8.502-12.248-7.071
			c-5.334,1.429-8.5,6.913-7.071,12.248l35.363,131.978c2.259,8.429,9.91,14.002,18.249,14.002c1.614,0,3.254-0.209,4.885-0.646
			l127.444-34.148v40.562c0,5.523,4.477,10,10,10h85.389c2.674,0,5.236-1.071,7.115-2.973c1.879-1.902,2.917-4.478,2.884-7.151
			c-0.001-0.135-0.005-0.27-0.011-0.438c0.05-15.189,12.422-27.532,27.623-27.532c15.205,0,27.579,12.347,27.623,27.541l-0.011,0.43
			c-0.033,2.674,1.005,5.249,2.884,7.151c1.879,1.902,4.441,2.973,7.115,2.973h85.389c5.523,0,10-4.477,10-10v-492
			C512.015,4.485,507.538,0.007,502.015,0.007z M295.086,47.498c-8.983-5.187-18.966-7.792-29.071-7.724V20.007h66.433
			c4.606,21.476,23.736,37.623,46.567,37.623s41.961-16.147,46.567-37.623h66.433v314.167H389.353L321.902,82.446
			C317.923,67.596,308.4,55.185,295.086,47.498z M425.68,492.007c-4.425-21.71-23.667-38.095-46.666-38.095
			s-42.24,16.384-46.666,38.095h-66.334v-35.921l89.959-24.104c30.654-8.214,48.911-39.836,40.698-70.491l-1.96-7.316h97.303
			v137.833H425.68z"/>
		<path id="XMLID_157_" d="M236.177,147.017c-19.883-11.479-43.001-14.623-65.205-8.918c-0.303,0.067-0.603,0.138-0.894,0.216
			c-0.292,0.078-0.588,0.167-0.885,0.26c-22.079,6.161-40.528,20.442-52.007,40.325c-11.633,20.15-14.724,43.624-8.702,66.099
			c10.416,38.873,45.7,64.573,84.159,64.572c7.44,0,15.004-0.963,22.525-2.978c0.292-0.078,0.588-0.167,0.885-0.26
			c22.079-6.161,40.528-20.442,52.007-40.325c11.633-20.15,14.724-43.624,8.702-66.098
			C270.74,177.435,256.326,158.651,236.177,147.017z M254.144,195.617l-28.054,7.517c-5.417-17.149-12.564-32.552-20.533-44.076
			c-0.692-1.001-1.378-1.945-2.062-2.86c7.885,1.298,15.554,4.024,22.682,8.14C238.774,171.611,248.46,182.513,254.144,195.617z
			 M215.589,269.263c-1.124,13.769-4.942,17.836-5.597,18.012c-0.65,0.178-5.996-1.438-13.853-12.8
			c-6.745-9.753-12.877-22.968-17.65-37.88l33.446-8.962C215.257,242.934,216.553,257.444,215.589,269.263z M169.657,175.646
			c1.124-13.768,4.942-17.836,5.598-18.012c0.029-0.008,0.068-0.012,0.116-0.012c1.022,0,6.231,1.958,13.737,12.813
			c6.745,9.753,12.877,22.968,17.65,37.88l-33.446,8.962C169.989,201.975,168.692,187.465,169.657,175.646z M134.507,188.901
			c4.112-7.123,9.395-13.301,15.57-18.365c-0.133,1.127-0.255,2.279-0.353,3.483c-1.139,13.965,0.373,30.877,4.256,48.437
			l-28.053,7.517C124.296,215.783,127.233,201.499,134.507,188.901z M131.102,249.292l28.053-7.517
			c5.593,17.689,13.378,34.66,22.488,46.901c-7.847-1.305-15.479-4.009-22.575-8.105
			C146.471,273.297,136.785,262.396,131.102,249.292z M250.739,256.008c-4.112,7.123-9.396,13.301-15.57,18.365
			c0.133-1.127,0.255-2.279,0.353-3.483c1.139-13.965-0.373-30.877-4.256-48.437l28.053-7.517
			C260.95,229.126,258.012,243.41,250.739,256.008z"/>
		<path id="XMLID_163_" d="M151.249,401.712c1.197,4.468,5.237,7.414,9.653,7.414c0.856,0,1.728-0.111,2.595-0.343l147.515-39.527
			c5.334-1.429,8.5-6.913,7.071-12.248c-1.43-5.334-6.914-8.503-12.248-7.071L158.32,389.464
			C152.985,390.893,149.819,396.377,151.249,401.712z"/>
		<path id="XMLID_164_" d="M187.269,357.888c0.856,0,1.728-0.111,2.595-0.343l72.695-19.479c5.334-1.429,8.5-6.913,7.071-12.248
			c-1.43-5.334-6.912-8.501-12.248-7.071l-72.695,19.479c-5.334,1.429-8.5,6.913-7.071,12.248
			C178.813,354.942,182.853,357.888,187.269,357.888z"/>
		<path id="XMLID_165_" d="M443.015,274.944c5.523,0,10-4.477,10-10V126.861c0-5.523-4.477-10-10-10s-10,4.477-10,10v138.083
			C433.015,270.467,437.492,274.944,443.015,274.944z"/>
		<path id="XMLID_166_" d="M403.015,253.35c5.523,0,10-4.477,10-10v-94.894c0-5.523-4.477-10-10-10s-10,4.477-10,10v94.894
			C393.015,248.873,397.492,253.35,403.015,253.35z"/>
		<path id="XMLID_167_" d="M68.091,304.197c0-2.63-1.07-5.21-2.93-7.07c-1.87-1.86-4.44-2.93-7.07-2.93c-2.64,0-5.21,1.07-7.08,2.93
			c-1.86,1.86-2.93,4.44-2.93,7.07s1.07,5.21,2.93,7.07c1.87,1.87,4.44,2.93,7.08,2.93c2.63,0,5.2-1.06,7.07-2.93
			C67.02,309.407,68.091,306.827,68.091,304.197z"/>
	</g>
</g>
<g>
</g>
<g>
</g>
<g>
</g>
<g>
</g>
<g>
</g>
<g>
</g>
<g>
</g>
<g>
</g>
<g>
</g>
<g>
</g>
<g>
</g>
<g>
</g>
<g>
</g>
<g>
</g>
<g>
</g>
</svg>
