<?xml version="1.0" encoding="iso-8859-1"?>
<!-- Generator: Adobe Illustrator 22.0.0, SVG Export Plug-In . SVG Version: 6.00 Build 0)  -->
<svg version="1.1" id="Capa_1" xmlns="http://www.w3.org/2000/svg" xmlns:xlink="http://www.w3.org/1999/xlink" x="0px" y="0px"
	 viewBox="0 0 512 512" style="enable-background:new 0 0 512 512;" xml:space="preserve">
<g id="XMLID_313_">
	<path id="XMLID_131_" style="fill:#8690A6;" d="M502,502L502,502c-62.238-62.238-141.687-104.413-228.11-121.092l-54.581-10.533
		c-14.167-2.734-24.402-15.137-24.396-29.566v0c0.004-9.36,4.356-18.186,11.778-23.888L286,256l-66.353,0.127l-73.485,40.861
		c-26.242,14.592-42.515,42.26-42.515,72.287v0c0,33.834,20.607,64.257,52.027,76.808L295.647,502H502z"/>
	<circle id="XMLID_130_" style="fill:#FFCB7C;" cx="466.716" cy="45.284" r="35.284"/>
	<path id="XMLID_129_" style="fill:#CBE558;" d="M219.647,256.127l-73.485,40.861c-26.242,14.592-42.515,42.26-42.515,72.287v0
		c0,33.834,20.607,64.257,52.027,76.808L295.647,502H10V256L219.647,256.127z"/>
	<path id="XMLID_128_" style="fill:#CBE558;" d="M286,256l-79.309,60.921c-7.423,5.702-11.775,14.528-11.778,23.888v0
		c-0.006,14.429,10.229,26.832,24.396,29.566l54.581,10.533C360.313,397.587,439.762,439.762,502,502l0,0V256H286z"/>
	<g id="XMLID_284_">
		<path id="XMLID_285_" style="fill:#B8866B;" d="M304.504,114.558l-42.223-42.222c-18.908-18.909-49.565-18.909-68.474,0
			L10,256.142l152.966-0.047l135.332-135.332L304.504,114.558z"/>
		<path id="XMLID_287_" style="fill:#CC9E83;" d="M366.772,120.763c-18.908-18.909-49.565-18.909-68.474,0L162.966,256.095
			L502,255.99L366.772,120.763z"/>
	</g>
	<g id="XMLID_206_">
		<path id="XMLID_216_" d="M466.716,90.568c24.97,0,45.284-20.314,45.284-45.284S491.686,0,466.716,0s-45.284,20.314-45.284,45.284
			S441.746,90.568,466.716,90.568z M466.716,20C480.657,20,492,31.343,492,45.284s-11.343,25.284-25.284,25.284
			s-25.284-11.343-25.284-25.284S452.774,20,466.716,20z"/>
		<path id="XMLID_224_" d="M509.071,248.919L373.844,113.691c-18.133-18.133-45.313-21.813-67.138-11.075l-37.353-37.353
			c-22.777-22.777-59.839-22.776-82.616,0L3.945,248.055C1.551,249.882,0,252.756,0,256v246c0,5.522,4.478,10,10,10h246h39.646H502
			l0,0h0.002c1.288,0,2.588-0.249,3.825-0.761c3.736-1.548,6.173-5.194,6.173-9.239V256c0-2.763-1.121-5.263-2.932-7.073
			L509.071,248.919z M492,478.726c-26.981-24.305-56.792-45.253-88.876-62.432c-4.871-2.607-10.931-0.772-13.536,4.095
			c-2.607,4.869-0.773,10.93,4.095,13.536c29.958,16.041,57.834,35.525,83.148,58.075H297.569l-138.186-55.203
			c-27.784-11.1-45.737-37.604-45.737-67.522c0-26.378,14.321-50.728,37.375-63.547L222.467,266h34.099L200.6,308.99
			c-9.818,7.54-15.683,19.434-15.688,31.814c-0.008,19.188,13.661,35.753,32.502,39.389l54.581,10.533
			c13.633,2.631,27.294,5.963,40.604,9.901c0.947,0.28,1.902,0.414,2.842,0.414c4.315,0,8.298-2.816,9.585-7.165
			c1.567-5.296-1.455-10.859-6.751-12.427c-13.929-4.122-28.225-7.607-42.491-10.36l-54.581-10.533
			c-9.443-1.823-16.295-10.126-16.291-19.744c0.003-6.211,2.944-12.178,7.87-15.961L289.398,266H492V478.726z M359.701,127.834
			L477.867,246H187.204L305.37,127.834C320.348,112.854,344.722,112.852,359.701,127.834z M200.879,79.406
			c7.256-7.256,16.903-11.253,27.165-11.253c10.263,0,19.91,3.997,27.166,11.253l35.151,35.151L158.919,246H34.285L200.879,79.406z
			 M20,492V266h161.314l-40.012,22.248c-29.396,16.346-47.656,47.393-47.656,81.026c0,38.148,22.891,71.942,58.317,86.095
			L243.658,492H20z"/>
		<path id="XMLID_228_" d="M357.689,415.92c2.63,0,5.21-1.07,7.07-2.93c1.86-1.86,2.93-4.44,2.93-7.07s-1.069-5.21-2.93-7.07
			c-1.86-1.859-4.44-2.93-7.07-2.93s-5.21,1.07-7.069,2.93c-1.86,1.86-2.931,4.44-2.931,7.07s1.07,5.21,2.931,7.07
			C352.479,414.85,355.06,415.92,357.689,415.92z"/>
	</g>
</g>
<g>
</g>
<g>
</g>
<g>
</g>
<g>
</g>
<g>
</g>
<g>
</g>
<g>
</g>
<g>
</g>
<g>
</g>
<g>
</g>
<g>
</g>
<g>
</g>
<g>
</g>
<g>
</g>
<g>
</g>
</svg>
