<?xml version="1.0" encoding="iso-8859-1"?>
<!-- Generator: Adobe Illustrator 22.0.0, SVG Export Plug-In . SVG Version: 6.00 Build 0)  -->
<svg version="1.1" id="Capa_1" xmlns="http://www.w3.org/2000/svg" xmlns:xlink="http://www.w3.org/1999/xlink" x="0px" y="0px"
	 viewBox="0 0 512.002 512.002" style="enable-background:new 0 0 512.002 512.002;" xml:space="preserve">
<g id="XMLID_136_">
	<path id="XMLID_1207_" style="fill:#FFFFFF;" d="M454.002,490.477h-396c-26.51,0-48-21.49-48-48v0h492v0
		C502.002,468.986,480.512,490.477,454.002,490.477z"/>
	<path id="XMLID_1206_" style="fill:#F5737F;" d="M327.647,380.11c24.909-9.65,48.259-24.527,68.362-44.629
		c77.324-77.324,77.324-202.69,0-280.014L233.842,217.633L327.647,380.11z"/>
	<path id="XMLID_1205_" style="fill:#D8EC84;" d="M327.647,380.11c24.909-9.65,48.259-24.527,68.362-44.629
		c77.324-77.324,77.324-202.69,0-280.014l33.941-33.941c96.069,96.069,96.069,251.828,0,347.897
		c-57.764,57.764-137.109,80.796-212.082,69.095"/>
	<path id="XMLID_1506_" style="fill:#F6838D;" d="M337.762,397.628L174.017,114.014l-0.135-0.136l-0.135,0.136L10.002,397.628
		C111.077,456.088,236.687,456.088,337.762,397.628z"/>
	<path id="XMLID_307_" style="fill:#E2F1A1;" d="M337.762,397.628c-101.075,58.46-226.685,58.461-327.76,0l31.958-55.355
		c81.359,47.062,182.485,47.062,263.844,0.001"/>
	<g id="XMLID_1678_">
		<path id="XMLID_1679_" d="M331.545,223.876c3.905-3.905,3.905-10.237,0-14.143l-8.132-8.132c-3.905-3.904-10.237-3.904-14.143,0
			c-3.905,3.905-3.905,10.237,0,14.143l8.132,8.132c1.953,1.952,4.512,2.929,7.071,2.929S329.592,225.828,331.545,223.876z"/>
		<path id="XMLID_1739_" d="M334.019,287.633c1.953,1.952,4.512,2.929,7.071,2.929s5.119-0.977,7.071-2.929
			c3.905-3.905,3.905-10.237,0-14.143l-8.132-8.132c-3.905-3.904-10.237-3.904-14.143,0c-3.905,3.905-3.905,10.237,0,14.143
			L334.019,287.633z"/>
		<path id="XMLID_1740_" d="M373.028,218.218c-3.905,3.905-3.905,10.237,0,14.143l8.132,8.132c1.953,1.952,4.512,2.929,7.071,2.929
			s5.119-0.977,7.071-2.929c3.905-3.905,3.905-10.237,0-14.143l-8.132-8.132C383.265,214.314,376.933,214.314,373.028,218.218z"/>
		<path id="XMLID_1742_" d="M364.542,176.735c1.953,1.952,4.512,2.929,7.071,2.929c2.559,0,5.119-0.977,7.071-2.929
			c3.905-3.905,3.906-10.236,0-14.143l-8.131-8.132c-3.905-3.904-10.237-3.904-14.142,0c-3.905,3.905-3.906,10.236,0,14.143
			L364.542,176.735z"/>
		<path id="XMLID_1744_" d="M173.881,257.489c5.523,0,10-4.478,10-10v-15.315c0-5.522-4.477-10-10-10s-10,4.478-10,10v15.315
			C163.881,253.011,168.358,257.489,173.881,257.489z"/>
		<path id="XMLID_1745_" d="M129.489,333.177c5.523,0,10-4.478,10-10v-15.315c0-5.522-4.477-10-10-10c-5.523,0-10,4.478-10,10
			v15.315C119.489,328.7,123.966,333.177,129.489,333.177z"/>
		<path id="XMLID_1750_" d="M218.274,333.177c5.523,0,10-4.478,10-10v-15.315c0-5.522-4.477-10-10-10s-10,4.478-10,10v15.315
			C208.274,328.7,212.751,333.177,218.274,333.177z"/>
		<path id="XMLID_1762_" d="M502.002,432.476H352.843c31.306-12.821,60.111-31.917,84.178-55.983
			c48.352-48.353,74.98-112.64,74.98-181.02c0-68.381-26.629-132.668-74.98-181.02c-3.905-3.904-10.237-3.904-14.143,0
			L235.986,201.346l-53.308-92.333c-0.44-0.762-0.979-1.463-1.602-2.084l-0.135-0.135c-3.897-3.884-10.2-3.889-14.104-0.013
			l-0.136,0.135c-0.629,0.624-1.172,1.329-1.615,2.097L33.312,337.253c-0.003,0.005-0.006,0.009-0.009,0.013
			c-0.003,0.005-0.005,0.01-0.007,0.015L1.342,392.628c-2.76,4.78-1.125,10.893,3.653,13.656
			c18.323,10.598,37.428,19.323,57.035,26.192H10.002c-5.523,0-10,4.478-10,10c0,31.981,26.019,58,58,58h153.063
			c5.523,0,10-4.478,10-10s-4.477-10-10-10H58.002c-17.494,0-32.265-11.882-36.665-28h469.33c-4.4,16.118-19.171,28-36.665,28
			H301.064c-5.523,0-10,4.478-10,10s4.477,10,10,10h152.938c31.981,0,58-26.019,58-58
			C512.002,436.954,507.525,432.476,502.002,432.476z M422.879,362.35c-33.911,33.911-77.19,56.249-123.39,64.962
			c14.801-5.924,29.271-12.926,43.28-21.029c4.778-2.764,6.413-8.876,3.653-13.656l-4.446-7.701
			c22.714-10.287,43.23-24.502,61.104-42.375c78.728-78.729,81.023-205.382,6.898-286.913l19.815-19.815
			c40.184,43.656,62.209,99.957,62.209,159.649C492.002,258.51,467.453,317.776,422.879,362.35z M395.821,69.797
			c66.338,73.715,64.046,187.684-6.882,258.612c-16.63,16.629-35.783,29.749-57.017,39.102l-85.582-148.232L395.821,69.797z
			 M173.882,133.779l118.162,204.662c-73.751,38.841-162.572,38.841-236.324,0L173.882,133.779z M45.712,355.776
			c39.967,21.193,84.067,31.796,128.17,31.796c44.103,0,88.204-10.603,128.17-31.796l16.91,29.288
			c0.026,0.045,0.051,0.09,0.077,0.134l4.988,8.639c-33.823,18.158-70.236,29.742-107.364,34.763
			c-0.127,0.015-0.254,0.029-0.379,0.049c-65.392,8.763-132.985-2.837-192.546-34.812L45.712,355.776z"/>
		<path id="XMLID_1766_" d="M256.062,480.411c-2.63,0-5.21,1.069-7.07,2.93c-1.86,1.86-2.93,4.44-2.93,7.07s1.07,5.21,2.93,7.069
			c1.86,1.86,4.44,2.931,7.07,2.931c2.64,0,5.21-1.07,7.07-2.931c1.87-1.859,2.93-4.43,2.93-7.069c0-2.63-1.06-5.21-2.93-7.07
			C261.272,481.48,258.702,480.411,256.062,480.411z"/>
	</g>
</g>
<g>
</g>
<g>
</g>
<g>
</g>
<g>
</g>
<g>
</g>
<g>
</g>
<g>
</g>
<g>
</g>
<g>
</g>
<g>
</g>
<g>
</g>
<g>
</g>
<g>
</g>
<g>
</g>
<g>
</g>
</svg>
