<?xml version="1.0" encoding="iso-8859-1"?>
<!-- Generator: Adobe Illustrator 22.0.0, SVG Export Plug-In . SVG Version: 6.00 Build 0)  -->
<svg version="1.1" id="Capa_1" xmlns="http://www.w3.org/2000/svg" xmlns:xlink="http://www.w3.org/1999/xlink" x="0px" y="0px"
	 viewBox="0 0 512 512" style="enable-background:new 0 0 512 512;" xml:space="preserve">
<g id="XMLID_1656_">
	<path id="XMLID_1643_" style="fill:#D3D7DF;" d="M424,158H88c-13.255,0-24-10.745-24-24v0c0-13.255,10.745-24,24-24h336
		c13.255,0,24,10.745,24,24v0C448,147.255,437.255,158,424,158z"/>
	<path id="XMLID_1642_" style="fill:#98A1B3;" d="M197.816,456.566l-39.495,39.495c-3.802,3.802-8.96,5.939-14.337,5.939h0
		c-18.064,0-27.11-21.84-14.337-34.613l25.733-25.733"/>
	<path id="XMLID_1641_" style="fill:#98A1B3;" d="M314.184,456.566l39.495,39.495c3.802,3.802,8.96,5.939,14.337,5.939h0
		c18.064,0,27.11-21.84,14.337-34.613l-25.733-25.733"/>
	<path id="XMLID_1640_" style="fill:#98A1B3;" d="M425.667,158H482c11.046,0,20,8.954,20,20v0c0,11.046-8.954,20-20,20h-36.333"/>
	<path id="XMLID_1638_" style="fill:#98A1B3;" d="M86.333,158H30c-11.046,0-20,8.954-20,20v0c0,11.046,8.954,20,20,20h36.333"/>
	<path id="XMLID_1637_" style="fill:#D3D7DF;" d="M421.671,158H90.329C67.439,189.347,54,227.483,54,268.632
		C54,375.426,144.438,462,256,462s202-86.574,202-193.368C458,227.483,444.561,189.347,421.671,158z"/>
	<g id="XMLID_1478_">
		<path id="XMLID_1482_" style="fill:#D8EC84;" d="M297.336,244.667c-0.4-12.951-11.077-23.441-24.033-23.626
			c-6.235-0.089-11.943,2.161-16.303,5.929c-4.36-3.768-10.068-6.018-16.303-5.929c-12.956,0.185-23.633,10.675-24.033,23.626
			c-0.238,7.691,3.085,14.613,8.443,19.243h0L257,295.804l31.894-31.894h0C294.251,259.28,297.574,252.358,297.336,244.667z"/>
		<path id="XMLID_1480_" style="fill:#D8EC84;" d="M308.137,336.141c12.951-0.4,23.441-11.077,23.626-24.033
			c0.089-6.235-2.161-11.943-5.929-16.303c3.768-4.36,6.018-10.068,5.929-16.303c-0.185-12.956-10.675-23.633-23.626-24.033
			c-7.691-0.238-14.613,3.085-19.243,8.443v0L257,295.804l31.894,31.894v0C293.524,333.056,300.446,336.378,308.137,336.141z"/>
		<path id="XMLID_1479_" style="fill:#D8EC84;" d="M205.863,336.141c-12.951-0.4-23.441-11.077-23.626-24.033
			c-0.089-6.235,2.161-11.943,5.929-16.303c-3.768-4.36-6.018-10.068-5.929-16.303c0.185-12.956,10.675-23.633,23.626-24.033
			c7.691-0.238,14.613,3.085,19.243,8.443v0L257,295.804l-31.894,31.894v0C220.476,333.056,213.554,336.378,205.863,336.141z"/>
	</g>
	<g id="XMLID_1367_">
		<circle id="XMLID_1389_" style="fill:#FFCB7C;" cx="196.544" cy="41.461" r="31.461"/>
		<g id="XMLID_1369_">
			<circle id="XMLID_1388_" style="fill:#FFCB7C;" cx="287.213" cy="74.045" r="31.461"/>
			<path id="XMLID_1386_" style="fill:#FFCB7C;" d="M375.346,110c1.942-4.087,3.032-8.657,3.032-13.483
				c0-17.375-14.085-31.461-31.461-31.461s-31.461,14.086-31.461,31.461c0,4.826,1.09,9.396,3.032,13.483H375.346z"/>
			<path id="XMLID_1385_" style="fill:#FFCB7C;" d="M256.434,110c1.942-4.087,3.032-8.657,3.032-13.483
				c0-17.375-14.085-31.461-31.461-31.461s-31.461,14.086-31.461,31.461c0,4.826,1.09,9.396,3.032,13.483H256.434z"/>
			<path id="XMLID_1378_" style="fill:#FFCB7C;" d="M193.512,110c1.942-4.087,3.032-8.657,3.032-13.483
				c0-17.375-14.085-31.461-31.461-31.461s-31.461,14.086-31.461,31.461c0,4.826,1.09,9.396,3.032,13.483H193.512z"/>
		</g>
	</g>
	<g id="XMLID_1242_">
		<path id="XMLID_1790_" d="M308.445,245.473c-0.371-0.011-0.74-0.004-1.11-0.004c0-0.37,0.008-0.738-0.004-1.109
			c-0.569-18.42-15.454-33.054-33.884-33.316c-5.78-0.066-11.416,1.28-16.447,3.912c-5.031-2.634-10.661-3.983-16.446-3.912
			c-18.432,0.263-33.316,14.896-33.886,33.316c-0.011,0.371-0.004,0.739-0.004,1.107c-0.37,0-0.739-0.006-1.11,0.006
			c-18.418,0.569-33.053,15.454-33.316,33.885c-0.083,5.773,1.28,11.416,3.913,16.447c-2.633,5.03-3.995,10.672-3.913,16.445
			c0.263,18.432,14.897,33.316,33.316,33.886c0,0,0,0,0,0c0.361,0.012,0.722,0.017,1.082,0.017c9.889,0,19.212-4.193,25.777-11.619
			L247,319.947v55.584c0,5.522,4.477,10,10,10s10-4.478,10-10v-55.585l14.586,14.586c6.565,7.427,15.887,11.621,25.777,11.62
			c0.359,0,0.721-0.005,1.082-0.017c0,0,0,0,0,0c18.418-0.569,33.053-15.454,33.316-33.885c0.083-5.773-1.279-11.416-3.913-16.446
			c2.633-5.031,3.995-10.674,3.913-16.446C341.499,260.927,326.864,246.042,308.445,245.473z M240.841,231.041
			c0.07-0.001,0.139-0.002,0.209-0.002c3.461,0,6.796,1.238,9.412,3.498c3.755,3.244,9.321,3.244,13.076,0
			c2.668-2.306,6.093-3.565,9.623-3.496c7.585,0.108,13.946,6.359,14.181,13.936c0.108,3.516-1.065,6.873-3.242,9.543
			c-0.874,0.804-1.715,1.654-2.512,2.555L257,281.662l-24.607-24.608c-0.791-0.893-1.624-1.736-2.491-2.534
			c-2.177-2.67-3.352-6.027-3.243-9.544C226.893,237.4,233.254,231.149,240.841,231.041z M218.036,320.626
			c-0.172,0.172-0.337,0.35-0.496,0.533c-2.855,3.305-6.994,5.124-11.368,4.986c-7.576-0.234-13.828-6.596-13.936-14.182
			c-0.051-3.537,1.191-6.953,3.496-9.62c3.245-3.755,3.246-9.322,0.001-13.077c-2.306-2.668-3.547-6.085-3.497-9.623
			c0.108-7.585,6.36-13.946,13.936-14.181c3.512-0.1,6.885,1.075,9.562,3.26c0.795,0.863,1.633,1.693,2.523,2.48l23.363,23.364
			l1.238,1.238L218.036,320.626z M318.268,302.344c2.305,2.667,3.546,6.083,3.496,9.621c-0.108,7.585-6.36,13.946-13.936,14.181
			c-4.344,0.136-8.514-1.684-11.369-4.986c-0.159-0.184-0.324-0.36-0.495-0.532l-24.823-24.822l0.64-0.64l23.976-23.976
			c0.889-0.788,1.729-1.619,2.523-2.482c2.67-2.181,6.028-3.36,9.546-3.244c7.576,0.234,13.828,6.596,13.936,14.182
			c0.051,3.537-1.191,6.954-3.497,9.622C315.022,293.021,315.023,298.589,318.268,302.344z"/>
		<path id="XMLID_1801_" d="M482,148h-27.029c1.939-4.273,3.029-9.01,3.029-14c0-18.748-15.252-34-34-34h-35.781
			c0.095-1.153,0.159-2.313,0.159-3.483c0-22.861-18.599-41.46-41.461-41.46c-7.463,0-14.466,1.992-20.522,5.458
			c-5.623-16.236-21.057-27.931-39.181-27.931c-18.036,0-33.41,11.58-39.101,27.692c-3.877-2.159-8.134-3.709-12.643-4.533
			c1.64-4.455,2.536-9.265,2.536-14.282C238.005,18.6,219.406,0,196.544,0c-22.861,0-41.46,18.6-41.46,41.461
			c0,5.016,0.896,9.827,2.536,14.282c-19.31,3.526-33.997,20.461-33.997,40.774c0,1.171,0.064,2.33,0.159,3.483H88
			c-18.748,0-34,15.252-34,34c0,4.99,1.089,9.727,3.029,14H30c-16.542,0-30,13.458-30,30s13.458,30,30,30h23.578
			C47.254,227.448,44,247.834,44,268.632c0,72.13,39.353,135.604,98.54,171.718l-19.965,19.965
			c-8.823,8.824-11.338,21.467-6.563,32.995S131.505,512,143.983,512c8.088,0,15.69-3.149,21.408-8.867l37.575-37.576
			C219.923,469.761,237.694,472,256,472s36.077-2.239,53.033-6.443l37.575,37.575c5.718,5.719,13.32,8.868,21.408,8.868
			c12.478,0,23.196-7.161,27.971-18.689s2.261-24.171-6.563-32.995L369.46,440.35C428.647,404.236,468,340.762,468,268.632
			c0-20.798-3.254-41.184-9.578-60.632H482c16.542,0,30-13.458,30-30S498.542,148,482,148z M346.917,75.057
			c11.833,0,21.461,9.627,21.461,21.46c0,1.179-0.093,2.342-0.279,3.483h-42.364c-0.186-1.142-0.279-2.305-0.279-3.483
			C325.456,84.684,335.083,75.057,346.917,75.057z M287.213,52.584c11.833,0,21.46,9.627,21.46,21.461s-9.627,21.461-21.46,21.461
			s-21.461-9.627-21.461-21.461S275.379,52.584,287.213,52.584z M249.465,96.517c0,1.179-0.093,2.342-0.279,3.483h-42.364
			c-0.186-1.142-0.279-2.305-0.279-3.483c0-11.833,9.627-21.46,21.461-21.46S249.465,84.684,249.465,96.517z M196.544,20
			c11.833,0,21.461,9.627,21.461,21.461c0,11.833-9.627,21.46-21.461,21.46s-21.46-9.627-21.46-21.46
			C175.083,29.627,184.71,20,196.544,20z M143.623,96.517c0-11.833,9.627-21.46,21.461-21.46s21.46,9.627,21.46,21.46
			c0,1.179-0.093,2.342-0.279,3.483h-42.364C143.716,98.858,143.623,97.695,143.623,96.517z M30,188c-5.514,0-10-4.486-10-10
			s4.486-10,10-10h41.749c-3.871,6.5-7.348,13.176-10.427,20H30z M151.249,488.991c-1.94,1.94-4.521,3.009-7.266,3.009
			c-6.371,0-8.877-4.855-9.494-6.344c-0.617-1.487-2.278-6.693,2.228-11.198l24.13-24.13c6.624,3.205,13.446,6.084,20.444,8.62
			L151.249,488.991z M375.283,474.458c4.505,4.505,2.844,9.711,2.228,11.198c-0.616,1.488-3.123,6.344-9.494,6.344
			c-2.745,0-5.325-1.068-7.266-3.01l-30.042-30.042c6.997-2.536,13.82-5.415,20.444-8.62L375.283,474.458z M256,452
			c-105.869,0-192-82.259-192-183.368C64,232.596,74.881,197.915,95.504,168H212c5.523,0,10-4.478,10-10s-4.477-10-10-10H88
			c-7.72,0-14-6.28-14-14s6.28-14,14-14h48.654h56.858h6.063h56.858h62.054h56.858H424c7.72,0,14,6.28,14,14s-6.28,14-14,14H302
			c-5.523,0-10,4.478-10,10s4.477,10,10,10h114.496C437.119,197.915,448,232.596,448,268.632C448,369.741,361.869,452,256,452z
			 M482,188h-31.323c-3.079-6.824-6.555-13.5-10.427-20H482c5.514,0,10,4.486,10,10S487.514,188,482,188z"/>
		<path id="XMLID_1821_" d="M257,168c2.63,0,5.21-1.07,7.07-2.931c1.86-1.859,2.93-4.439,2.93-7.069s-1.07-5.21-2.93-7.07
			S259.63,148,257,148c-2.63,0-5.21,1.069-7.07,2.93c-1.86,1.86-2.93,4.44-2.93,7.07s1.07,5.21,2.93,7.069
			C251.79,166.93,254.37,168,257,168z"/>
	</g>
</g>
<g>
</g>
<g>
</g>
<g>
</g>
<g>
</g>
<g>
</g>
<g>
</g>
<g>
</g>
<g>
</g>
<g>
</g>
<g>
</g>
<g>
</g>
<g>
</g>
<g>
</g>
<g>
</g>
<g>
</g>
</svg>
