<?xml version="1.0" encoding="iso-8859-1"?>
<!-- Generator: Adobe Illustrator 22.0.0, SVG Export Plug-In . SVG Version: 6.00 Build 0)  -->
<svg version="1.1" id="Capa_1" xmlns="http://www.w3.org/2000/svg" xmlns:xlink="http://www.w3.org/1999/xlink" x="0px" y="0px"
	 viewBox="0 0 512 512" style="enable-background:new 0 0 512 512;" xml:space="preserve">
<g id="XMLID_1832_">
	<path id="XMLID_2132_" style="fill:#91DEF5;" d="M10,422.036l71.379,71.379c3.775-2.326,7.348-5.111,10.621-8.383v0l0,0
		c22.644,22.644,59.356,22.644,82,0l0,0l0,0c22.644,22.644,59.356,22.644,82,0l0,0l0,0c22.644,22.644,59.356,22.644,82,0l0,0l0,0
		c22.644,22.644,59.356,22.644,82,0l0,0l0,0c22.644,22.644,59.356,22.644,82,0v0v-62.996H10z"/>
	<g id="XMLID_1225_">
		<polygon id="XMLID_988_" style="fill:#E1E3E9;" points="316,102.515 316,362.015 484,362.015 		"/>
		<polygon id="XMLID_987_" style="fill:#FFFFFF;" points="196,50.015 196,382.015 10,382.015 		"/>
		<polygon id="XMLID_989_" style="fill:#F5737F;" points="196.209,292.223 111.084,207.098 78.5,264.515 196,382.015 		"/>
		<g id="XMLID_984_">
			<polygon id="XMLID_985_" style="fill:#91DEF5;" points="276,422.036 236,422.036 236,10.015 256,10.015 276,10.015 			"/>
		</g>
	</g>
	<g id="XMLID_239_">
		<path id="XMLID_264_" d="M512,485.033v-62.997c0-5.522-4.477-10-10-10H286V10.015c0-5.522-4.477-10-10-10h-40
			c-5.523,0-10,4.478-10,10v402.021H10c-4.044,0-7.691,2.437-9.239,6.173c-1.548,3.737-0.692,8.038,2.167,10.898l61.11,61.111
			c-4.191,1.177-8.566,1.798-13.039,1.798c-12.817,0-24.866-4.991-33.929-14.054c-3.905-3.904-10.237-3.904-14.143,0
			c-3.905,3.905-3.905,10.237,0,14.143c22.228,22.228,56.137,25.803,82.137,10.752c1.124-0.43,2.182-1.075,3.121-1.925
			c1.292-0.845,2.569-1.722,3.813-2.664c24.158,18.291,57.842,18.291,82,0c24.158,18.291,57.842,18.291,82,0
			c24.158,18.291,57.842,18.291,82,0c24.158,18.291,57.842,18.291,82,0c12.079,9.146,26.539,13.717,41,13.717
			c17.409,0,34.818-6.627,48.071-19.88l0,0C510.881,490.294,512,487.794,512,485.033z M246,20.015h20v392.021h-20V20.015z
			 M427.072,477.961c-3.905-3.904-10.237-3.904-14.143,0c-9.063,9.063-21.112,14.054-33.929,14.054s-24.866-4.991-33.929-14.054
			c-3.905-3.904-10.237-3.904-14.143,0c-18.708,18.709-49.149,18.709-67.857,0c-3.905-3.904-10.237-3.904-14.143,0
			c-18.708,18.709-49.149,18.709-67.857,0c-3.905-3.904-10.237-3.904-14.143,0c-9.063,9.063-21.112,14.054-33.929,14.054
			s-24.866-4.991-33.929-14.054c-3.905-3.904-10.237-3.904-14.143,0c-0.816,0.815-1.663,1.586-2.526,2.335l-48.261-48.261H236h40
			h216v48.609c-8.655,7.353-19.516,11.371-31,11.371C448.183,492.015,436.134,487.024,427.072,477.961z"/>
		<path id="XMLID_266_" d="M316,372.015h168c3.664,0,7.034-2.004,8.785-5.222c1.75-3.219,1.601-7.138-0.39-10.213l-41.568-64.209
			c-3.001-4.637-9.193-5.96-13.829-2.96c-4.636,3.001-5.961,9.193-2.96,13.829l31.576,48.774H326V136.363l59.133,91.339
			c3.002,4.637,9.194,5.96,13.829,2.96c4.636-3.002,5.961-9.193,2.96-13.829L324.395,97.08c-2.409-3.72-6.977-5.413-11.228-4.155
			c-4.25,1.255-7.167,5.158-7.167,9.59v259.5C306,367.538,310.477,372.015,316,372.015z"/>
		<path id="XMLID_269_" d="M10,392.015h186c5.523,0,10-4.478,10-10v-332c0-4.55-3.072-8.526-7.474-9.676
			c-4.406-1.151-9.026,0.818-11.25,4.788l-186,332c-1.735,3.097-1.698,6.881,0.096,9.943C3.167,390.133,6.451,392.015,10,392.015z
			 M111.373,221.53L186,296.158v61.715l-96.787-96.788L111.373,221.53z M186,267.872l-64.471-64.471L186,88.325V267.872z
			 M79.056,279.214l92.801,92.801H27.065L79.056,279.214z"/>
		<path id="XMLID_274_" d="M442,45.947c4.361,0,7.914,3.527,7.957,7.879c0,0.026,0,0.052,0,0.078h0c0,5.523,4.478,10,10,10
			c5.523,0,10-4.478,10-10c0-4.388,3.569-7.957,7.957-7.957c5.523,0,10-4.478,10-10s-4.477-10-10-10
			c-6.83,0-13.096,2.463-17.957,6.545c-4.861-4.082-11.127-6.545-17.957-6.545c-5.523,0-10,4.478-10,10S436.477,45.947,442,45.947z"
			/>
		<path id="XMLID_282_" d="M382.044,102.378c4.387,0,7.957,3.569,7.957,7.956c0,5.522,4.477,10,10,10s10-4.478,10-10
			c0-4.387,3.569-7.956,7.957-7.956c5.523,0,10-4.478,10-10s-4.477-10-10-10c-6.83,0-13.096,2.462-17.957,6.545
			c-4.861-4.083-11.127-6.545-17.957-6.545c-5.523,0-10,4.478-10,10S376.521,102.378,382.044,102.378z"/>
		<path id="XMLID_283_" d="M466.044,138.809c-5.523,0-10,4.478-10,10s4.477,10,10,10c4.387,0,7.957,3.569,7.957,7.957
			c0,5.522,4.477,10,10,10s10-4.478,10-10c0-4.388,3.569-7.957,7.957-7.957c5.523,0,10-4.478,10-10s-4.477-10-10-10
			c-6.83,0-13.096,2.462-17.957,6.545C479.139,141.271,472.873,138.809,466.044,138.809z"/>
		<path id="XMLID_286_" d="M417.98,250.035c-2.63,0-5.2,1.061-7.07,2.92c-1.86,1.87-2.92,4.44-2.92,7.07c0,2.64,1.06,5.21,2.92,7.08
			c1.87,1.86,4.44,2.93,7.07,2.93c2.64,0,5.21-1.069,7.08-2.93c1.86-1.87,2.93-4.45,2.93-7.08s-1.07-5.2-2.93-7.07
			C423.2,251.095,420.62,250.035,417.98,250.035z"/>
	</g>
</g>
<g>
</g>
<g>
</g>
<g>
</g>
<g>
</g>
<g>
</g>
<g>
</g>
<g>
</g>
<g>
</g>
<g>
</g>
<g>
</g>
<g>
</g>
<g>
</g>
<g>
</g>
<g>
</g>
<g>
</g>
</svg>
