<?xml version="1.0" encoding="iso-8859-1"?>
<!-- Generator: Adobe Illustrator 22.0.0, SVG Export Plug-In . SVG Version: 6.00 Build 0)  -->
<svg version="1.1" id="Capa_1" xmlns="http://www.w3.org/2000/svg" xmlns:xlink="http://www.w3.org/1999/xlink" x="0px" y="0px"
	 viewBox="0 0 512.035 512.035" style="enable-background:new 0 0 512.035 512.035;" xml:space="preserve">
<g id="XMLID_151_">
	<path id="XMLID_1874_" style="fill:#D8EC84;" d="M283.422,18.347L283.422,18.347c10.877,7.266,24.195,9.915,37.024,7.365l0,0
		c19.567-3.89,39.552,4.388,50.637,20.975l0,0c7.268,10.876,18.558,18.419,31.388,20.973l0,0
		c19.567,3.894,34.862,19.189,38.756,38.756v0c2.553,12.829,10.097,24.119,20.973,31.388l0,0
		c16.587,11.086,24.865,31.07,20.975,50.637v0c-2.551,12.83,0.098,26.147,7.365,37.024v0c11.082,16.589,11.082,38.22,0,54.809v0
		c-7.266,10.877-9.915,24.195-7.365,37.024v0c3.89,19.567-4.388,39.552-20.975,50.637l0,0
		c-10.876,7.268-18.419,18.559-20.973,31.388v0c-3.894,19.567-19.189,34.862-38.756,38.756h0
		c-12.829,2.553-24.119,10.097-31.388,20.973l0,0c-11.086,16.587-31.07,24.865-50.637,20.975h0
		c-12.83-2.551-26.147,0.098-37.024,7.365l0,0c-16.589,11.082-38.22,11.082-54.809,0l0,0c-10.877-7.266-24.195-9.915-37.024-7.365h0
		c-19.567,3.89-39.552-4.388-50.637-20.975l0,0c-7.268-10.876-18.558-18.419-31.388-20.973h0
		c-19.567-3.894-34.862-19.189-38.756-38.756l0,0c-2.553-12.829-10.097-24.119-20.973-31.388l0,0
		c-16.587-11.086-24.865-31.07-20.975-50.637l0,0c2.551-12.83-0.098-26.147-7.365-37.024l0,0c-11.082-16.589-11.082-38.22,0-54.809
		l0,0c7.266-10.877,9.915-24.195,7.365-37.024l0,0c-3.89-19.567,4.388-39.552,20.975-50.637l0,0
		c10.876-7.268,18.419-18.558,20.973-31.388l0,0c3.894-19.567,19.189-34.862,38.756-38.756l0,0
		c12.829-2.553,24.119-10.097,31.388-20.973l0,0c11.086-16.587,31.07-24.865,50.637-20.975l0,0
		c12.83,2.551,26.147-0.098,37.024-7.365l0,0C245.202,7.265,266.833,7.265,283.422,18.347z"/>
	<path id="XMLID_1924_" style="fill:#FFFFFF;" d="M273.887,150.633L273.887,150.633c5.362,3.008,11.392,4.623,17.539,4.7h0
		c12.815,0.159,24.623,6.976,31.168,17.995v0c3.14,5.286,7.554,9.7,12.84,12.84l0,0c11.019,6.545,17.836,18.353,17.995,31.168v0
		c0.076,6.147,1.692,12.177,4.7,17.539l0,0c6.27,11.177,6.27,24.812,0,35.989l0,0c-3.008,5.362-4.623,11.392-4.7,17.539v0
		c-0.159,12.815-6.976,24.623-17.995,31.168h0c-5.286,3.14-9.7,7.554-12.84,12.84v0c-6.545,11.019-18.353,17.836-31.168,17.995h0
		c-6.147,0.076-12.177,1.692-17.539,4.7l0,0c-11.177,6.27-24.812,6.27-35.989,0l0,0c-5.362-3.008-11.392-4.623-17.539-4.7h0
		c-12.815-0.159-24.623-6.976-31.168-17.995l0,0c-3.14-5.286-7.554-9.7-12.84-12.84h0c-11.019-6.545-17.836-18.353-17.995-31.168v0
		c-0.076-6.147-1.692-12.177-4.7-17.539l0,0c-6.27-11.177-6.27-24.812,0-35.989l0,0c3.008-5.362,4.623-11.392,4.7-17.539v0
		c0.159-12.815,6.976-24.623,17.995-31.168l0,0c5.286-3.14,9.7-7.554,12.84-12.84l0,0c6.545-11.019,18.353-17.836,31.168-17.995h0
		c6.147-0.076,12.177-1.692,17.539-4.7l0,0C249.075,144.363,262.71,144.363,273.887,150.633z"/>
	<circle id="XMLID_1831_" style="fill:#FFCB7C;" cx="90.056" cy="302.423" r="23.691"/>
	<circle id="XMLID_1830_" style="fill:#FFCB7C;" cx="253.253" cy="80.586" r="23.691"/>
	<circle id="XMLID_1829_" style="fill:#F5737F;" cx="109.798" cy="171.548" r="22"/>
	<circle id="XMLID_1828_" style="fill:#F5737F;" cx="416.45" cy="302.423" r="23.691"/>
	<circle id="XMLID_1827_" style="fill:#FFCB7C;" cx="396.708" cy="171.548" r="22"/>
	<g id="XMLID_2139_">
		<path id="XMLID_2223_" style="fill:#F5737F;" d="M311.778,428.208l-53.216-38.655l53.216-38.655
			c19.013-13.81,45.245-11.745,61.861,4.872l0,0c18.658,18.658,18.658,48.908,0,67.566l0,0
			C357.023,439.953,330.791,442.019,311.778,428.208z"/>
		<polygon id="XMLID_1985_" style="fill:#FBC2C7;" points="303.292,424.555 322.851,489.708 293.676,472.839 276.844,502.035 
			255.891,426.875 286.787,410.055 		"/>
		<polygon id="XMLID_1982_" style="fill:#FBC2C7;" points="208.489,424.555 188.931,489.708 218.106,472.839 234.937,502.035 
			255.891,426.875 224.994,410.055 		"/>
		<path id="XMLID_2196_" style="fill:#F5737F;" d="M200.003,428.208l53.216-38.655l-53.216-38.655
			c-19.013-13.81-45.245-11.745-61.861,4.872l0,0c-18.658,18.658-18.658,48.908,0,67.566l0,0
			C154.758,439.953,180.991,442.019,200.003,428.208z"/>
		<circle id="XMLID_2225_" style="fill:#FFCB7C;" cx="255.891" cy="389.553" r="35.002"/>
	</g>
	<g id="XMLID_1329_">
		<path id="XMLID_1795_" d="M498.854,219.909c-5.834-8.734-7.92-19.218-5.872-29.52c4.695-23.617-5.207-47.522-25.226-60.901
			c-8.733-5.836-14.671-14.725-16.722-25.026c-4.7-23.614-22.996-41.911-46.612-46.611c-10.302-2.05-19.189-7.988-25.026-16.722
			c-13.379-20.02-37.29-29.928-60.9-25.226c-10.304,2.044-20.786-0.037-29.52-5.872h0c-20.021-13.375-45.897-13.375-65.919,0
			c-8.733,5.835-19.219,7.92-29.52,5.871c-23.615-4.693-47.521,5.208-60.901,25.227c-5.836,8.733-14.723,14.672-25.025,16.722
			C83.996,62.551,65.7,80.848,61,104.463c-2.05,10.302-7.989,19.189-16.721,25.025c-20.02,13.379-29.922,37.284-25.227,60.901
			c2.048,10.302-0.037,20.785-5.872,29.52c-13.375,20.021-13.375,45.896,0,65.919c5.834,8.734,7.92,19.218,5.872,29.52
			c-4.695,23.617,5.207,47.522,25.226,60.901c8.733,5.836,14.671,14.724,16.722,25.025c4.7,23.616,22.996,41.912,46.611,46.611
			c10.302,2.051,19.189,7.989,25.026,16.722c10.625,15.897,27.888,25.408,46.372,26.301c0.311,2.567,1.607,4.974,3.719,6.644
			c3.216,2.544,7.66,2.866,11.208,0.813l14.827-8.573c3.224,0.631,6.366,1.671,9.365,3.107l8.146,14.13
			c1.8,3.123,5.119,5.006,8.661,5.006c0.416,0,0.835-0.025,1.255-0.079c3.996-0.504,7.299-3.355,8.381-7.235l0.03-0.106
			c3.77,0.743,7.594,1.123,11.418,1.123c3.743,0,7.485-0.363,11.178-1.074l0.016,0.058c1.082,3.88,4.385,6.731,8.381,7.235
			c0.42,0.054,0.838,0.079,1.255,0.079c3.541,0,6.86-1.884,8.661-5.006l8.041-13.949c3.048-1.498,6.247-2.591,9.534-3.251
			l14.762,8.536c3.551,2.053,7.992,1.73,11.208-0.813c2.109-1.667,3.404-4.07,3.717-6.633c18.579-0.818,35.953-10.341,46.627-26.311
			c5.836-8.732,14.724-14.671,25.025-16.722c23.616-4.699,41.912-22.995,46.612-46.611c2.05-10.302,7.989-19.189,16.721-25.025
			c20.02-13.379,29.922-37.284,25.227-60.901c-2.048-10.302,0.037-20.785,5.872-29.52
			C512.23,265.806,512.23,239.931,498.854,219.909z M231.702,476.401l-4.933-8.557c-1.326-2.3-3.511-3.979-6.075-4.665
			c-2.564-0.688-5.297-0.327-7.594,1.002l-7.34,4.244l12.3-40.975l7.045-5.118c5.228,4.913,11.623,8.589,18.724,10.567
			L231.702,476.401z M280.893,389.554c0,13.786-11.216,25.002-25.002,25.002s-25.002-11.216-25.002-25.002
			s11.216-25.002,25.002-25.002S280.893,375.768,280.893,389.554z M286.676,422.333l7.045,5.118l12.3,40.975l-7.34-4.244
			c-2.297-1.329-5.027-1.689-7.594-1.002c-2.564,0.687-4.75,2.365-6.075,4.665l-4.933,8.557l-12.127-43.5
			C275.052,430.922,281.448,427.246,286.676,422.333z M297.868,405.744c0.774-1.999,1.407-4.066,1.891-6.19h20.172
			c5.523,0,10-4.478,10-10s-4.477-10-10-10h-20.172c-0.484-2.125-1.117-4.192-1.891-6.191l19.788-14.374
			c15.125-10.986,35.695-9.365,48.914,3.853c7.135,7.135,11.064,16.621,11.064,26.712c0,10.09-3.93,19.577-11.065,26.712
			c-13.218,13.219-33.789,14.838-48.913,3.852L297.868,405.744z M313.997,327.304c-4.732,7.967-13.428,12.987-22.694,13.102
			c-7.794,0.097-15.508,2.163-22.315,5.981l-0.136,0.076c-4.107-1.237-8.456-1.911-12.961-1.911c-4.504,0-8.852,0.673-12.958,1.91
			c0,0-0.001-0.001-0.001-0.001l-0.142-0.078c-6.799-3.814-14.513-5.881-22.308-5.978c-9.266-0.114-17.961-5.135-22.694-13.102
			c-3.981-6.703-9.627-12.35-16.33-16.331c-7.967-4.732-12.988-13.429-13.103-22.694c-0.096-7.795-2.163-15.509-5.977-22.308
			c-4.534-8.082-4.534-18.123,0-26.205c3.813-6.8,5.88-14.513,5.976-22.307c0.115-9.266,5.136-17.962,13.103-22.694
			c6.701-3.98,12.348-9.628,16.33-16.33c4.732-7.968,13.428-12.988,22.694-13.104c7.795-0.097,15.509-2.163,22.307-5.977
			c8.083-4.532,18.125-4.533,26.205,0c6.798,3.813,14.512,5.88,22.308,5.977c9.266,0.115,17.962,5.136,22.694,13.103
			c3.981,6.703,9.628,12.35,16.33,16.331c7.967,4.732,12.988,13.429,13.103,22.694c0.096,7.794,2.163,15.508,5.978,22.308
			c4.533,8.081,4.533,18.122,0,26.204c-3.814,6.798-5.881,14.512-5.978,22.308c-0.115,9.266-5.135,17.962-13.103,22.694
			C323.623,314.954,317.976,320.602,313.997,327.304z M194.126,358.989l19.788,14.374c-0.774,1.999-1.407,4.066-1.891,6.191h-20.171
			c-5.523,0-10,4.478-10,10s4.477,10,10,10h20.171c0.484,2.124,1.117,4.191,1.891,6.19l-19.787,14.373
			c-15.125,10.986-35.696,9.366-48.913-3.852c-7.135-7.135-11.064-16.622-11.064-26.712c0-10.091,3.929-19.577,11.064-26.712
			C158.431,349.624,179.001,348.002,194.126,358.989z M249.998,485.25l5.893-21.136l5.905,21.181
			C257.884,485.878,253.907,485.858,249.998,485.25z M482.225,274.719c-8.802,13.174-11.948,28.988-8.858,44.529
			c3.113,15.656-3.452,31.503-16.723,40.372c-13.173,8.805-22.131,22.211-25.224,37.75c-3.116,15.656-15.245,27.785-30.9,30.9
			c-15.539,3.093-28.946,12.051-37.75,25.224c-7.879,11.789-21.265,18.265-35.129,17.389l-8.178-27.242
			c6.609,2.517,13.531,3.771,20.433,3.771c14.838-0.001,29.569-5.758,40.816-17.004c10.913-10.913,16.922-25.422,16.922-40.854
			c0-15.434-6.01-29.942-16.922-40.854c-12.307-12.307-28.781-18.026-45.007-16.837c1.467-1.405,3.085-2.653,4.837-3.694
			c13.917-8.267,22.687-23.456,22.887-39.642c0.056-4.463,1.239-8.879,3.422-12.771c7.919-14.118,7.919-31.657,0-45.774
			c-2.184-3.893-3.367-8.309-3.422-12.771c-0.2-16.186-8.97-31.375-22.887-39.642c-3.837-2.279-7.069-5.512-9.349-9.349
			c-8.266-13.917-23.456-22.687-39.642-22.888c-4.463-0.056-8.879-1.238-12.771-3.422c-14.118-7.918-31.657-7.918-45.774,0
			c-3.892,2.184-8.307,3.366-12.771,3.422c-16.186,0.201-31.375,8.971-39.642,22.887c-2.28,3.838-5.512,7.071-9.349,9.35
			c-13.917,8.267-22.687,23.456-22.887,39.642c-0.056,4.462-1.239,8.878-3.421,12.771c-7.919,14.117-7.919,31.656,0,45.774
			c2.183,3.892,3.366,8.308,3.422,12.771c0.2,16.186,8.97,31.375,22.887,39.642c1.752,1.041,3.37,2.289,4.837,3.694
			c-16.227-1.189-32.703,4.529-45.011,16.837c-10.913,10.912-16.922,25.421-16.922,40.854c0,15.433,6.01,29.941,16.922,40.854
			c11.249,11.248,25.977,17.005,40.816,17.004c6.901,0,13.823-1.255,20.433-3.771l-8.185,27.266
			c-13.771,0.78-27.039-5.698-34.869-17.413c-8.804-13.173-22.21-22.131-37.75-25.224c-15.655-3.115-27.784-15.244-30.9-30.9
			c-3.093-15.539-12.05-28.945-25.224-37.75c-13.271-8.869-19.835-24.716-16.723-40.372c3.09-15.541-0.056-31.355-8.857-44.529
			c-8.867-13.273-8.867-30.427,0-43.7c8.802-13.174,11.948-28.988,8.858-44.529c-3.113-15.656,3.452-31.503,16.723-40.372
			c13.173-8.805,22.131-22.212,25.224-37.751c3.116-15.655,15.245-27.784,30.9-30.9c15.54-3.092,28.947-12.05,37.75-25.224
			c8.871-13.272,24.72-19.833,40.373-16.724c15.543,3.093,31.356-0.055,44.529-8.856c13.273-8.867,30.427-8.867,43.7,0
			c13.175,8.802,28.991,11.948,44.529,8.857c15.656-3.112,31.503,3.451,40.373,16.723c8.804,13.174,22.21,22.132,37.75,25.224
			c7.515,1.496,14.202,5.084,19.485,10.127c0.02,0.02,0.036,0.042,0.056,0.063c0.123,0.123,0.257,0.233,0.385,0.349
			c5.494,5.408,9.395,12.429,10.974,20.363c3.093,15.539,12.05,28.945,25.224,37.75c13.271,8.869,19.835,24.716,16.723,40.372
			c-3.09,15.541,0.056,31.355,8.857,44.529C491.091,244.292,491.091,261.445,482.225,274.719z"/>
		<path id="XMLID_1870_" d="M90.056,268.731c-18.577,0-33.691,15.114-33.691,33.691s15.114,33.69,33.691,33.69
			s33.691-15.113,33.691-33.69S108.633,268.731,90.056,268.731z M90.056,316.113c-7.549,0-13.691-6.142-13.691-13.69
			c0-7.55,6.142-13.691,13.691-13.691s13.691,6.142,13.691,13.691C103.747,309.972,97.605,316.113,90.056,316.113z"/>
		<path id="XMLID_1873_" d="M253.253,46.896c-18.577,0-33.691,15.113-33.691,33.69s15.114,33.691,33.691,33.691
			s33.691-15.114,33.691-33.691S271.83,46.896,253.253,46.896z M253.253,94.277c-7.549,0-13.691-6.142-13.691-13.691
			c0-7.549,6.142-13.69,13.691-13.69s13.691,6.142,13.691,13.69C266.944,88.136,260.802,94.277,253.253,94.277z"/>
		<path id="XMLID_1880_" d="M109.798,139.548c-17.645,0-32,14.355-32,32s14.355,32,32,32s32-14.355,32-32
			S127.443,139.548,109.798,139.548z M109.798,183.548c-6.617,0-12-5.383-12-12s5.383-12,12-12s12,5.383,12,12
			S116.415,183.548,109.798,183.548z"/>
		<path id="XMLID_1884_" d="M416.45,268.731c-18.577,0-33.691,15.114-33.691,33.691s15.114,33.69,33.691,33.69
			s33.691-15.113,33.691-33.69S435.027,268.731,416.45,268.731z M416.45,316.113c-7.549,0-13.691-6.142-13.691-13.69
			c0-7.55,6.142-13.691,13.691-13.691s13.691,6.142,13.691,13.691C430.141,309.972,424,316.113,416.45,316.113z"/>
		<path id="XMLID_1890_" d="M428.708,171.548c0-17.645-14.355-32-32-32s-32,14.355-32,32s14.355,32,32,32
			S428.708,189.192,428.708,171.548z M384.708,171.548c0-6.617,5.383-12,12-12s12,5.383,12,12s-5.383,12-12,12
			S384.708,178.165,384.708,171.548z"/>
	</g>
</g>
<g>
</g>
<g>
</g>
<g>
</g>
<g>
</g>
<g>
</g>
<g>
</g>
<g>
</g>
<g>
</g>
<g>
</g>
<g>
</g>
<g>
</g>
<g>
</g>
<g>
</g>
<g>
</g>
<g>
</g>
</svg>
