<?xml version="1.0" encoding="iso-8859-1"?>
<!-- Generator: Adobe Illustrator 22.0.0, SVG Export Plug-In . SVG Version: 6.00 Build 0)  -->
<svg version="1.1" id="Capa_1" xmlns="http://www.w3.org/2000/svg" xmlns:xlink="http://www.w3.org/1999/xlink" x="0px" y="0px"
	 viewBox="0 0 512 512" style="enable-background:new 0 0 512 512;" xml:space="preserve">
<g id="XMLID_2028_">
	<rect id="XMLID_2250_" x="116" y="10" style="fill:#DFF6FC;" width="280" height="54"/>
	<polygon id="XMLID_1394_" style="fill:#FFFFFF;" points="346.323,412 165.677,412 116,64 396,64 	"/>
	<path id="XMLID_1275_" style="fill:#91DEF5;" d="M332.945,412.137h-153.89c-7.134,0-12.918,5.783-12.918,12.918v64.027
		c0,7.134,5.783,12.918,12.918,12.918h153.89c7.134,0,12.918-5.784,12.918-12.918v-64.027
		C345.863,417.92,340.08,412.137,332.945,412.137z"/>
	<circle id="XMLID_2180_" style="fill:#FFCB7C;" cx="256" cy="192" r="32"/>
	<g id="XMLID_71_">
		<path id="XMLID_98_" d="M406,10c0-5.522-4.477-10-10-10H116c-5.523,0-10,4.478-10,10v54c0,0.48,0.046,0.949,0.111,1.412
			l-0.011,0.001l49.678,348c0.22,1.543,0.786,2.963,1.612,4.184c-0.808,2.34-1.252,4.847-1.252,7.458v64.027
			c0,12.637,10.281,22.918,22.917,22.918h153.891c12.637,0,22.917-10.281,22.917-22.918v-64.027c0-2.611-0.445-5.118-1.252-7.458
			c0.826-1.221,1.392-2.64,1.612-4.184l49.678-348l-0.011-0.001C405.954,64.949,406,64.48,406,64V10z M335.863,489.082
			c0,1.609-1.309,2.918-2.917,2.918H179.055c-1.609,0-2.917-1.309-2.917-2.918v-64.027c0-1.609,1.309-2.918,2.917-2.918h153.891
			c1.609,0,2.917,1.309,2.917,2.918V489.082z M337.649,402H174.351L127.529,74h83.598c5.523,0,10-4.478,10-10s-4.477-10-10-10H126
			V20h260v34h-84.873c-5.523,0-10,4.478-10,10s4.477,10,10,10h83.344L337.649,402z"/>
		<path id="XMLID_102_" d="M256,234c23.159,0,42-18.841,42-42s-18.841-42-42-42s-42,18.841-42,42S232.841,234,256,234z M256,170
			c12.131,0,22,9.869,22,22s-9.869,22-22,22s-22-9.869-22-22S243.869,170,256,170z"/>
		<path id="XMLID_105_" d="M335.07,184.93c-1.86-1.86-4.44-2.93-7.07-2.93c-2.63,0-5.21,1.069-7.07,2.93
			c-1.86,1.86-2.93,4.44-2.93,7.07s1.07,5.21,2.93,7.069c1.86,1.86,4.44,2.931,7.07,2.931c2.63,0,5.21-1.07,7.07-2.931
			c1.86-1.859,2.93-4.439,2.93-7.069S336.93,186.79,335.07,184.93z"/>
		<path id="XMLID_106_" d="M191.07,184.93c-1.86-1.86-4.44-2.93-7.07-2.93c-2.63,0-5.21,1.069-7.07,2.93
			c-1.86,1.86-2.93,4.44-2.93,7.07s1.07,5.21,2.93,7.069c1.86,1.86,4.44,2.931,7.07,2.931c2.63,0,5.21-1.07,7.07-2.931
			c1.86-1.859,2.93-4.439,2.93-7.069S192.93,186.79,191.07,184.93z"/>
		<path id="XMLID_107_" d="M248.93,256.93c-1.86,1.86-2.93,4.44-2.93,7.07s1.07,5.21,2.93,7.069c1.86,1.86,4.44,2.931,7.07,2.931
			c2.63,0,5.21-1.07,7.07-2.931c1.86-1.859,2.93-4.439,2.93-7.069s-1.07-5.21-2.93-7.07S258.63,254,256,254
			C253.37,254,250.79,255.069,248.93,256.93z"/>
		<path id="XMLID_108_" d="M256,130c2.63,0,5.21-1.07,7.07-2.931c1.86-1.859,2.93-4.439,2.93-7.069s-1.07-5.21-2.93-7.07
			S258.63,110,256,110c-2.63,0-5.21,1.069-7.07,2.93c-1.86,1.86-2.93,4.44-2.93,7.07s1.07,5.21,2.93,7.069
			C250.79,128.93,253.37,130,256,130z"/>
		<path id="XMLID_109_" d="M306.91,232.91c-2.63,0-5.21,1.069-7.07,2.93s-2.93,4.44-2.93,7.07c0,2.64,1.07,5.21,2.93,7.069
			c1.86,1.86,4.44,2.931,7.07,2.931c2.63,0,5.21-1.07,7.07-2.931c1.86-1.859,2.93-4.43,2.93-7.069c0-2.63-1.07-5.21-2.93-7.07
			C312.12,233.979,309.54,232.91,306.91,232.91z"/>
		<path id="XMLID_110_" d="M205.09,151.09c2.63,0,5.21-1.07,7.07-2.93c1.86-1.86,2.93-4.44,2.93-7.07s-1.07-5.21-2.93-7.07
			c-1.86-1.859-4.44-2.93-7.07-2.93s-5.21,1.07-7.07,2.93c-1.86,1.86-2.93,4.44-2.93,7.07s1.07,5.21,2.93,7.07
			C199.88,150.02,202.46,151.09,205.09,151.09z"/>
		<path id="XMLID_111_" d="M205.09,252.91c2.63,0,5.21-1.07,7.07-2.931c1.86-1.859,2.93-4.43,2.93-7.069c0-2.63-1.07-5.21-2.93-7.07
			c-1.86-1.86-4.44-2.93-7.07-2.93s-5.21,1.069-7.07,2.93c-1.86,1.86-2.93,4.44-2.93,7.07c0,2.64,1.07,5.21,2.93,7.069
			C199.88,251.84,202.46,252.91,205.09,252.91z"/>
		<path id="XMLID_112_" d="M306.91,151.09c2.63,0,5.21-1.07,7.07-2.93c1.86-1.86,2.93-4.44,2.93-7.07s-1.07-5.21-2.93-7.07
			c-1.86-1.859-4.43-2.93-7.07-2.93c-2.63,0-5.21,1.07-7.07,2.93c-1.86,1.86-2.93,4.44-2.93,7.07s1.07,5.21,2.93,7.07
			C301.7,150.02,304.28,151.09,306.91,151.09z"/>
		<path id="XMLID_113_" d="M311,310H201.254c-5.523,0-10,4.478-10,10s4.477,10,10,10H311c5.523,0,10-4.478,10-10
			S316.523,310,311,310z"/>
		<path id="XMLID_114_" d="M283.667,350h-55.079c-5.523,0-10,4.478-10,10s4.477,10,10,10h55.079c5.523,0,10-4.478,10-10
			S289.189,350,283.667,350z"/>
		<path id="XMLID_115_" d="M256.13,74c2.63,0,5.21-1.07,7.07-2.931c1.86-1.859,2.93-4.439,2.93-7.069s-1.07-5.21-2.93-7.07
			c-1.86-1.86-4.44-2.93-7.07-2.93s-5.21,1.069-7.08,2.93c-1.86,1.86-2.92,4.44-2.92,7.07s1.06,5.21,2.92,7.069
			C250.92,72.93,253.5,74,256.13,74z"/>
	</g>
</g>
<g>
</g>
<g>
</g>
<g>
</g>
<g>
</g>
<g>
</g>
<g>
</g>
<g>
</g>
<g>
</g>
<g>
</g>
<g>
</g>
<g>
</g>
<g>
</g>
<g>
</g>
<g>
</g>
<g>
</g>
</svg>
