<?xml version="1.0" encoding="iso-8859-1"?>
<!-- Generator: Adobe Illustrator 22.0.0, SVG Export Plug-In . SVG Version: 6.00 Build 0)  -->
<svg version="1.1" id="Capa_1" xmlns="http://www.w3.org/2000/svg" xmlns:xlink="http://www.w3.org/1999/xlink" x="0px" y="0px"
	 viewBox="0 0 512 512" style="enable-background:new 0 0 512 512;" xml:space="preserve">
<g id="XMLID_1813_">
	<g id="XMLID_1351_">
		<polyline id="XMLID_1782_" style="fill:#98A1B3;" points="414,415.919 414,455.919 454,455.919 454,415.919 		"/>
		<polygon id="XMLID_1780_" style="fill:#FFFFFF;" points="91.176,415.919 10,415.919 10,375.919 91.176,375.919 211.176,375.919 
			502,375.919 502,415.919 211.176,415.919 		"/>
		<path id="XMLID_1779_" style="fill:#91DEF5;" d="M305.748,56.081H125.828c-11.185,0-20.252,9.067-20.252,20.252v19.748H326V76.333
			C326,65.148,316.933,56.081,305.748,56.081z"/>
		<path id="XMLID_1354_" style="fill:#F5737F;" d="M211.176,375.919h255.26c19.642,0,35.565-15.923,35.565-35.565V279.51
			c0-101.395-82.197-183.591-183.591-183.591H105.576C52.791,95.919,10,138.71,10,191.495v141.634
			c0,23.632,19.158,42.79,42.79,42.79h38.386H211.176z"/>
		<rect id="XMLID_1580_" x="326" y="171.919" style="fill:#91DEF5;" width="88" height="204"/>
		<circle id="XMLID_1719_" style="fill:#98A1B3;" cx="151.176" cy="395.919" r="60"/>
		<circle id="XMLID_1718_" style="fill:#8690A6;" cx="151.176" cy="395.919" r="20"/>
		<rect id="XMLID_1358_" x="66" y="171.919" style="fill:#DFF6FC;" width="220" height="88"/>
	</g>
	<g id="XMLID_92_">
		<path id="XMLID_903_" d="M512,279.51c0-100.816-77.468-183.865-176-192.783V76.333c0-16.681-13.571-30.252-30.252-30.252H125.829
			c-16.681,0-30.252,13.571-30.252,30.252v10.063C42.034,91.45,0,136.653,0,191.495v141.634c0,12.384,4.297,23.776,11.464,32.79H10
			c-5.523,0-10,4.478-10,10v40c0,5.522,4.477,10,10,10h77.944c11.255,23.627,35.365,40,63.232,40s51.977-16.373,63.232-40H404v30
			c0,5.522,4.477,10,10,10h40c5.523,0,10-4.478,10-10v-30h38c5.523,0,10-4.478,10-10v-40c0-4.841-3.441-8.878-8.01-9.801
			c5.047-7.334,8.01-16.208,8.01-25.764V279.51z M20,333.129V191.495c0-46.684,37.583-84.733,84.079-85.538
			c0.49,0.074,0.987,0.124,1.497,0.124c0.597,0,1.178-0.062,1.746-0.162h63.466c5.523,0,10-4.478,10-10s-4.477-10-10-10h-55.212
			v-9.586c0-5.653,4.599-10.252,10.252-10.252h179.919c5.653,0,10.252,4.599,10.252,10.252v9.586h-55.212c-5.523,0-10,4.478-10,10
			s4.477,10,10,10h57.621C414.127,105.919,492,183.791,492,279.51v60.845c0,14.097-11.468,25.564-25.564,25.564H424v-194
			c0-5.522-4.477-10-10-10h-88c-5.523,0-10,4.478-10,10v194H214.408c-11.255-23.627-35.365-40-63.232-40s-51.977,16.373-63.232,40
			H52.79C34.709,365.919,20,351.209,20,333.129z M404,365.919h-68v-184h68V365.919z M20,405.919v-20h32.79h29.111
			c-0.469,3.268-0.726,6.604-0.726,10s0.256,6.732,0.726,10H20z M151.176,445.919c-27.57,0-50-22.43-50-50s22.43-50,50-50
			s50,22.43,50,50S178.746,445.919,151.176,445.919z M444,445.919h-20v-20h20V445.919z M492,405.919H220.45
			c0.469-3.268,0.726-6.604,0.726-10s-0.256-6.732-0.726-10h245.985H492V405.919z"/>
		<path id="XMLID_1005_" d="M151.176,365.919c-16.542,0-30,13.458-30,30s13.458,30,30,30s30-13.458,30-30
			S167.718,365.919,151.176,365.919z M151.176,405.919c-5.514,0-10-4.486-10-10s4.486-10,10-10s10,4.486,10,10
			S156.69,405.919,151.176,405.919z"/>
		<path id="XMLID_1047_" d="M357.28,283.92c2.63,0,5.21-1.07,7.07-2.93c1.86-1.86,2.93-4.44,2.93-7.07s-1.07-5.21-2.93-7.07
			c-1.86-1.859-4.44-2.93-7.07-2.93c-2.64,0-5.21,1.07-7.07,2.93c-1.86,1.86-2.93,4.44-2.93,7.07s1.07,5.21,2.93,7.07
			C352.07,282.85,354.64,283.92,357.28,283.92z"/>
		<path id="XMLID_1130_" d="M66,269.919h220c5.523,0,10-4.478,10-10v-88c0-5.522-4.477-10-10-10H66c-5.523,0-10,4.478-10,10v88
			C56,265.441,60.477,269.919,66,269.919z M227.524,181.919l-68,68h-40.631l68-68H227.524z M276,249.919h-88.191l68-68H276V249.919z
			 M76,181.919h82.607l-68,68H76V181.919z"/>
		<path id="XMLID_1168_" d="M286,309.919c5.523,0,10-4.478,10-10s-4.477-10-10-10H66c-5.523,0-10,4.478-10,10s4.477,10,10,10H286z"
			/>
		<path id="XMLID_1187_" d="M215.79,105.92c2.63,0,5.21-1.07,7.07-2.93c1.86-1.86,2.93-4.44,2.93-7.07s-1.07-5.21-2.93-7.07
			c-1.86-1.859-4.44-2.93-7.07-2.93c-2.63,0-5.21,1.07-7.07,2.93c-1.86,1.86-2.93,4.44-2.93,7.07s1.07,5.21,2.93,7.07
			C210.58,104.85,213.16,105.92,215.79,105.92z"/>
	</g>
</g>
<g>
</g>
<g>
</g>
<g>
</g>
<g>
</g>
<g>
</g>
<g>
</g>
<g>
</g>
<g>
</g>
<g>
</g>
<g>
</g>
<g>
</g>
<g>
</g>
<g>
</g>
<g>
</g>
<g>
</g>
</svg>
