<?xml version="1.0" encoding="iso-8859-1"?>
<!-- Generator: Adobe Illustrator 22.0.0, SVG Export Plug-In . SVG Version: 6.00 Build 0)  -->
<svg version="1.1" id="Capa_1" xmlns="http://www.w3.org/2000/svg" xmlns:xlink="http://www.w3.org/1999/xlink" x="0px" y="0px"
	 viewBox="0 0 512.047 512.047" style="enable-background:new 0 0 512.047 512.047;" xml:space="preserve">
<g id="XMLID_232_">
	<path id="XMLID_310_" style="fill:#F5737F;" d="M401.007,358.477L401.007,358.477c0-44.639-14.125-88.132-40.353-124.253l0,0
		c-20.131-27.725-17.275-65.938,6.753-90.363l0,0l-25.121-79.813l-81.745,24.468C144.499,123.249,65.007,230.02,65.007,351.147
		v7.329"/>
	<path id="XMLID_924_" style="fill:#FFFFFF;" d="M421.276,15.446L421.276,15.446c4.255,4.116,10.17,6.038,16.032,5.209l0,0
		c10.25-1.45,19.802,5.491,21.591,15.687l0,0c1.023,5.831,4.679,10.863,9.908,13.637v0c9.144,4.852,12.793,16.082,8.247,25.382l0,0
		c-2.6,5.318-2.6,11.539,0,16.857l0,0c4.546,9.3,0.897,20.53-8.247,25.382v0c-5.229,2.774-8.885,7.807-9.908,13.637l0,0
		c-1.789,10.196-11.341,17.136-21.591,15.687l0,0c-5.861-0.829-11.777,1.093-16.032,5.209l0,0c-7.44,7.198-19.248,7.198-26.688,0
		l0,0c-4.255-4.116-10.17-6.038-16.032-5.209l0,0c-10.25,1.45-19.802-5.491-21.591-15.687l0,0
		c-1.023-5.831-4.679-10.863-9.908-13.637v0c-9.144-4.852-12.793-16.082-8.247-25.382l0,0c2.6-5.318,2.6-11.539,0-16.857l0,0
		c-4.546-9.3-0.897-20.53,8.247-25.382v0c5.229-2.774,8.885-7.807,9.908-13.637l0,0c1.789-10.196,11.341-17.136,21.591-15.687l0,0
		c5.861,0.829,11.777-1.093,16.032-5.209l0,0C402.028,8.248,413.836,8.248,421.276,15.446z"/>
	<path id="XMLID_309_" style="fill:#FFFFFF;" d="M391.29,502.047H74.723c-23.039,0-41.716-18.677-41.716-41.716v-60.567
		c0-23.039,18.677-41.716,41.716-41.716H391.29c23.039,0,41.716,18.677,41.716,41.716v60.567
		C433.007,483.37,414.33,502.047,391.29,502.047z"/>
	<g id="XMLID_1683_">
		<path id="XMLID_1738_" d="M486.037,79.752c6.955-14.227,1.445-31.185-12.544-38.606c-2.522-1.338-4.252-3.719-4.745-6.531
			c-2.736-15.597-17.163-26.087-32.841-23.86c-2.826,0.397-5.625-0.509-7.678-2.494c-11.383-11.013-29.213-11.012-40.593-0.002
			c-2.053,1.986-4.853,2.894-7.679,2.496c-15.685-2.223-30.106,8.263-32.842,23.86c-0.493,2.813-2.223,5.193-4.745,6.531
			c-6.963,3.694-11.823,9.751-14.093,16.657l-70.604,21.133c-59.013,17.664-109.649,53.117-146.436,102.526
			c-36.786,49.41-56.23,108.086-56.23,169.686v0.815c-18.763,7.768-32,26.265-32,47.802v60.566c0,28.517,23.2,51.717,51.716,51.717
			h316.567c28.517,0,51.716-23.2,51.716-51.717v-60.566c0-21.577-13.287-40.102-32.105-47.844
			c-1.294-44.672-15.795-87.27-42.156-123.573c-15.771-21.72-15.1-50.983,0.934-71.873c3.284,0.702,6.748,0.851,10.277,0.35
			c2.825-0.396,5.625,0.51,7.678,2.495c5.691,5.505,12.994,8.258,20.297,8.258c7.303,0,14.606-2.753,20.297-8.258
			c2.052-1.986,4.847-2.895,7.679-2.495c15.679,2.221,30.105-8.264,32.841-23.861c0.493-2.813,2.223-5.192,4.746-6.531
			c13.988-7.423,19.498-24.381,12.544-38.606C484.783,85.26,484.783,82.317,486.037,79.752z M390.733,348.047H278.007
			c-5.523,0-10,4.478-10,10s4.477,10,10,10h113.284c17.488,0,31.716,14.229,31.716,31.717v60.566
			c0,17.488-14.228,31.717-31.716,31.717H74.723c-17.488,0-31.716-14.229-31.716-31.717v-60.566
			c0-17.488,14.228-31.717,31.716-31.717h113.284c5.523,0,10-4.478,10-10s-4.477-10-10-10H75.039
			c1.369-114.543,78.432-217.046,188.369-249.952l65.798-19.695c0.194,0.453,0.401,0.903,0.619,1.351
			c1.254,2.565,1.254,5.509,0,8.074c-6.955,14.226-1.445,31.184,12.544,38.607c2.522,1.338,4.252,3.719,4.746,6.53
			c0.847,4.829,2.817,9.167,5.597,12.791c-20.307,27.734-20.807,65.897-0.15,94.345
			C375.662,271.913,388.751,309.039,390.733,348.047z M464.119,108.765c-8.011,4.251-13.504,11.812-15.07,20.743
			c-0.861,4.911-5.403,8.205-10.341,7.514c-8.978-1.272-17.867,1.617-24.385,7.923c-3.584,3.467-9.198,3.467-12.781,0
			c-5.509-5.329-12.71-8.217-20.229-8.217c-1.377,0-2.766,0.097-4.156,0.294c-2.1,0.294-4.124-0.138-5.828-1.103
			c-0.065-0.035-0.129-0.075-0.195-0.108c-2.206-1.321-3.838-3.559-4.319-6.302c-1.566-8.932-7.06-16.492-15.07-20.742
			c-4.405-2.338-6.141-7.678-3.95-12.157c3.982-8.147,3.982-17.493,0-25.641c-2.19-4.479-0.455-9.818,3.95-12.155
			c8.011-4.251,13.504-11.812,15.071-20.744c0.861-4.911,5.403-8.203,10.341-7.513c8.977,1.273,17.866-1.617,24.386-7.924
			c3.583-3.467,9.197-3.467,12.78,0c0,0.001,0.001,0.001,0.001,0.002c6.519,6.305,15.409,9.189,24.385,7.922
			c4.935-0.701,9.479,2.602,10.341,7.513c1.566,8.933,7.059,16.493,15.071,20.744c4.404,2.337,6.14,7.676,3.949,12.155
			c-3.982,8.147-3.982,17.493,0,25.641C470.259,101.089,468.524,106.428,464.119,108.765z"/>
		<path id="XMLID_1768_" d="M407.932,43.047c-5.523,0-10,4.478-10,10s4.477,10,10,10c11.437,0,20.741,9.305,20.741,20.741
			c0,5.522,4.477,10,10,10s10-4.478,10-10C448.673,61.324,430.397,43.047,407.932,43.047z"/>
		<path id="XMLID_1769_" d="M235.196,154.33c-30.435,9.109-56.55,27.395-75.523,52.877c-18.972,25.482-29,55.744-29,87.514
			c0,5.522,4.477,10,10,10s10-4.478,10-10c0-55.472,37.116-105.324,90.258-121.23c5.291-1.584,8.296-7.156,6.712-12.447
			C246.061,155.752,240.49,152.745,235.196,154.33z"/>
		<path id="XMLID_1770_" d="M233.007,348.477c-2.63,0-5.21,1.07-7.07,2.93c-1.86,1.86-2.93,4.44-2.93,7.07s1.07,5.21,2.93,7.07
			c1.86,1.859,4.44,2.93,7.07,2.93c2.63,0,5.21-1.07,7.07-2.93c1.86-1.86,2.93-4.44,2.93-7.07s-1.07-5.21-2.93-7.07
			C238.217,349.547,235.637,348.477,233.007,348.477z"/>
	</g>
</g>
<g>
</g>
<g>
</g>
<g>
</g>
<g>
</g>
<g>
</g>
<g>
</g>
<g>
</g>
<g>
</g>
<g>
</g>
<g>
</g>
<g>
</g>
<g>
</g>
<g>
</g>
<g>
</g>
<g>
</g>
</svg>
