<?xml version="1.0" encoding="iso-8859-1"?>
<!-- Generator: Adobe Illustrator 22.0.0, SVG Export Plug-In . SVG Version: 6.00 Build 0)  -->
<svg version="1.1" id="Capa_1" xmlns="http://www.w3.org/2000/svg" xmlns:xlink="http://www.w3.org/1999/xlink" x="0px" y="0px"
	 viewBox="0 0 512.484 512.484" style="enable-background:new 0 0 512.484 512.484;" xml:space="preserve">
<g id="XMLID_61_">
	<polyline id="XMLID_2070_" style="fill:#F5737F;" points="191.662,10.242 256.242,149.242 320.821,10.242 	"/>
	<polyline id="XMLID_2069_" style="fill:#F5737F;" points="466.45,252.042 440.047,403.02 341.692,285.471 	"/>
	<polyline id="XMLID_2068_" style="fill:#F5737F;" points="46.033,364.692 144.388,482.242 170.791,331.263 	"/>
	<polyline id="XMLID_1077_" style="fill:#FFCB7C;" points="142.618,11.698 142.618,150.365 90.618,98.479 38.618,150.365 
		38.618,11.698 	"/>
	<polyline id="XMLID_1038_" style="fill:#FFCB7C;" points="369.865,11.698 369.865,150.365 421.865,98.479 473.865,150.365 
		473.865,11.698 	"/>
	<polyline id="XMLID_1012_" style="fill:#FFCB7C;" points="306.847,296.315 342.736,430.257 279.079,393.598 242.28,457.174 
		206.391,323.233 	"/>
	<circle id="XMLID_1011_" style="fill:#FFFFFF;" cx="90.618" cy="232.242" r="24"/>
	<circle id="XMLID_1010_" style="fill:#FFFFFF;" cx="448.242" cy="478.242" r="24"/>
	<g id="XMLID_1721_">
		<path id="XMLID_1913_" d="M10.242,20.242h18.376v130.123c0,4.043,2.434,7.688,6.168,9.236c3.734,1.551,8.034,0.697,10.896-2.157
			l44.937-44.838l44.937,44.838c1.912,1.908,4.467,2.921,7.065,2.921c1.29,0,2.591-0.249,3.83-0.764
			c3.734-1.549,6.168-5.193,6.168-9.236V20.242h32.664l61.891,133.214c1.64,3.528,5.178,5.786,9.069,5.786s7.43-2.258,9.069-5.786
			l13.962-30.051c2.327-5.009,0.153-10.956-4.855-13.283c-5.013-2.325-10.956-0.151-13.283,4.855l-4.893,10.531L207.336,20.242
			h97.813l-6.093,13.115c-2.327,5.008-0.152,10.955,4.856,13.282c1.363,0.633,2.796,0.933,4.206,0.933
			c3.771,0,7.383-2.144,9.076-5.789l10.008-21.541h32.664v130.123c0,4.043,2.434,7.688,6.168,9.236
			c3.734,1.551,8.034,0.697,10.896-2.157l44.937-44.838l44.937,44.838c1.912,1.908,4.467,2.921,7.065,2.921
			c1.29,0,2.591-0.249,3.83-0.764c3.734-1.549,6.168-5.193,6.168-9.236V20.242h18.376c5.522,0,10-4.478,10-10s-4.478-10-10-10h-492
			c-5.522,0-10,4.478-10,10S4.719,20.242,10.242,20.242z M132.618,126.26L97.681,91.4c-3.904-3.895-10.223-3.895-14.127,0
			l-34.937,34.86V20.242h84V126.26z M463.866,126.26L428.929,91.4c-3.904-3.895-10.223-3.895-14.127,0l-34.937,34.86V20.242h84
			V126.26z"/>
		<path id="XMLID_1917_" d="M512.14,239.799c-1.43-5.335-6.915-8.502-12.247-7.071L7.415,364.688
			c-5.335,1.43-8.501,6.913-7.071,12.247c1.197,4.468,5.237,7.415,9.653,7.415c0.856,0,1.728-0.111,2.594-0.344l29.868-8.003
			l94.26,112.656c1.929,2.305,4.753,3.583,7.67,3.583c0.861,0,1.731-0.111,2.588-0.341c3.759-1.007,6.592-4.104,7.263-7.937
			l25.304-144.693l19.399-5.198l33.678,125.689c1.046,3.905,4.341,6.796,8.349,7.326c0.439,0.058,0.878,0.086,1.313,0.086
			c3.534,0,6.849-1.875,8.651-4.99l31.802-54.94l55.011,31.68c3.502,2.018,7.876,1.729,11.082-0.736
			c3.206-2.462,4.613-6.613,3.567-10.518l-33.678-125.69l19.399-5.198l94.26,112.656c1.929,2.305,4.753,3.583,7.67,3.583
			c0.861,0,1.731-0.111,2.588-0.341c3.759-1.007,6.592-4.104,7.263-7.937l25.304-144.693l29.868-8.003
			C510.404,250.617,513.57,245.133,512.14,239.799z M138.246,459.317l-74.485-89.022l94.48-25.316L138.246,459.317z
			 M326.838,409.562l-42.769-24.63c-4.777-2.75-10.882-1.117-13.645,3.656l-24.725,42.715l-27.44-102.406l81.139-21.741
			L326.838,409.562z M433.904,380.095l-74.485-89.022l94.48-25.316L433.904,380.095z"/>
		<path id="XMLID_1925_" d="M56.618,232.242c0,18.748,15.252,34,34,34s34-15.252,34-34s-15.252-34-34-34
			S56.618,213.494,56.618,232.242z M104.618,232.242c0,7.72-6.28,14-14,14s-14-6.28-14-14s6.28-14,14-14
			S104.618,224.522,104.618,232.242z"/>
		<path id="XMLID_1930_" d="M448.242,444.242c-18.748,0-34,15.252-34,34s15.252,34,34,34s34-15.252,34-34
			S466.99,444.242,448.242,444.242z M448.242,492.242c-7.72,0-14-6.28-14-14s6.28-14,14-14s14,6.28,14,14
			S455.961,492.242,448.242,492.242z"/>
		<path id="XMLID_1931_" d="M289.162,68.381c-2.63,0-5.21,1.07-7.07,2.93c-1.859,1.86-2.93,4.44-2.93,7.07s1.07,5.21,2.93,7.07
			c1.86,1.859,4.44,2.93,7.07,2.93s5.21-1.07,7.07-2.93c1.859-1.86,2.93-4.44,2.93-7.07s-1.07-5.21-2.93-7.07
			C294.372,69.452,291.792,68.381,289.162,68.381z"/>
	</g>
</g>
<g>
</g>
<g>
</g>
<g>
</g>
<g>
</g>
<g>
</g>
<g>
</g>
<g>
</g>
<g>
</g>
<g>
</g>
<g>
</g>
<g>
</g>
<g>
</g>
<g>
</g>
<g>
</g>
<g>
</g>
</svg>
