<?xml version="1.0" encoding="iso-8859-1"?>
<!-- Generator: Adobe Illustrator 22.0.0, SVG Export Plug-In . SVG Version: 6.00 Build 0)  -->
<svg version="1.1" id="Capa_1" xmlns="http://www.w3.org/2000/svg" xmlns:xlink="http://www.w3.org/1999/xlink" x="0px" y="0px"
	 viewBox="0 0 512 512" style="enable-background:new 0 0 512 512;" xml:space="preserve">
<g id="XMLID_1582_">
	<g id="XMLID_2274_">
		<path id="XMLID_2111_" style="fill:#FFD89E;" d="M116.706,81.769l46.6-46.6c16.225-16.225,42.532-16.225,58.757,0l96.001,96.001
			l-30.255-0.008H22.064l0,0l41.629-41.629c16.783-16.783,43.995-16.783,60.778,0l38.47,38.47"/>
		<rect id="XMLID_2041_" x="406" y="209" style="fill:#91DEF5;" width="40" height="80"/>
		<path id="XMLID_2039_" style="fill:#FFFFFF;" d="M447.024,209h-42.048c-7.162,0-13.317-5.08-14.676-12.111l-5.046-26.104
			C383.471,161.562,390.537,153,399.93,153h52.14c9.394,0,16.459,8.562,14.676,17.785l-5.046,26.104
			C460.341,203.921,454.186,209,447.024,209z"/>
		<path id="XMLID_2038_" style="fill:#91DEF5;" d="M441.479,289h-30.957C392.561,289,378,303.561,378,321.522v46.957
			C378,386.44,392.561,401,410.522,401h30.957C459.44,401,474,386.44,474,368.479v-46.957C474,303.561,459.44,289,441.479,289z"/>
		<rect id="XMLID_1866_" x="10" y="130.923" style="fill:#E2F1A1;" width="320" height="56"/>
		<polygon id="XMLID_1860_" style="fill:#CBE558;" points="314,186.923 26,186.923 66,440.923 274,440.923 		"/>
		<path id="XMLID_1760_" style="fill:#FFD89E;" d="M231.167,443.5l82.583-82.583c32.079-32.079,84.088-32.079,116.167,0L502,433v56
			H10l0,0l75.25-75.25c32.079-32.079,84.088-32.079,116.167,0l45.417,45.417"/>
	</g>
	<g id="XMLID_144_">
		<path id="XMLID_868_" d="M509.072,425.929l-32.887-32.887c5.039-7.105,7.815-15.64,7.815-24.563v-46.957
			c0-18.349-11.683-34.018-28-39.965v-64.248c7.822-3.031,13.851-9.899,15.519-18.522l5.046-26.103
			c1.418-7.337-0.496-14.851-5.252-20.614S459.543,143,452.071,143H399.93c-7.473,0-14.486,3.306-19.242,9.069
			s-6.67,13.277-5.252,20.613l5.046,26.104c1.667,8.623,7.697,15.491,15.519,18.522v64.248c-16.317,5.947-28,21.617-28,39.965v5.429
			c-23.173,0.943-44.825,10.399-61.321,26.895l-10.496,10.496l26.365-167.419H330c5.522,0,10-4.478,10-10v-56
			c0-5.522-4.478-10-10-10h-8.041l-92.825-92.825C219.398,18.362,206.452,13,192.684,13s-26.714,5.361-36.449,15.098l-42.57,42.569
			c-6.148-2.442-12.768-3.721-19.583-3.721c-14.15,0-27.454,5.51-37.46,15.516L18.16,120.923H10c-5.522,0-10,4.478-10,10v56
			c0,5.522,4.478,10,10,10h7.452l36.801,233.682L2.929,481.929c-3.905,3.905-3.905,10.237,0,14.143C4.882,498.024,7.441,499,10,499
			s5.118-0.977,7.071-2.929l75.25-75.25c28.128-28.129,73.896-28.127,102.024,0l54.71,54.71c3.906,3.904,10.236,3.904,14.143,0
			c3.905-3.905,3.905-10.237,0-14.143L245.31,443.5l43.311-43.311c0.005-0.005,0.01-0.01,0.016-0.016l32.185-32.185
			c13.626-13.626,31.742-21.131,51.012-21.131c19.271,0,37.387,7.505,51.013,21.131l72.083,72.083
			c3.906,3.904,10.236,3.904,14.143,0C512.977,436.166,512.977,429.834,509.072,425.929z M170.377,42.24
			c5.958-5.959,13.88-9.24,22.307-9.24s16.35,3.281,22.308,9.24l78.683,78.683H170.001l-38.46-38.461
			c-0.231-0.231-0.465-0.46-0.7-0.688L170.377,42.24z M70.764,96.605c6.229-6.229,14.509-9.658,23.317-9.658
			s17.089,3.43,23.317,9.658l24.318,24.318H46.446L70.764,96.605z M208.489,406.679c-35.928-35.926-94.384-35.926-130.31,0
			l-6.435,6.435L37.698,196.923H125c5.522,0,10-4.478,10-10s-4.478-10-10-10H20v-35.98c0.67,0.141,1.36,0.219,2.063,0.219h265.742
			l30.255,0.008c0.001,0,0.002,0,0.002,0c0.66,0,1.307-0.071,1.938-0.196v35.948H215c-5.522,0-10,4.478-10,10s4.478,10,10,10h87.302
			l-30.149,191.449l-40.986,40.986L208.489,406.679z M416,219h20v60h-20V219z M396.114,164.799c0.555-0.672,1.787-1.799,3.816-1.799
			h52.141c2.029,0,3.262,1.127,3.816,1.799c0.554,0.672,1.427,2.096,1.041,4.089l-5.046,26.104
			c-0.449,2.322-2.492,4.009-4.858,4.009H446h-40h-1.023c-2.366,0-4.409-1.687-4.858-4.009l-5.046-26.104
			C394.687,166.895,395.56,165.471,396.114,164.799z M388,328.29v-6.769C388,309.104,398.104,299,410.522,299h30.957
			C453.897,299,464,309.104,464,321.522v46.957c0,3.533-0.827,6.949-2.356,10.023l-24.656-24.656
			C423.459,340.318,406.458,331.54,388,328.29z"/>
		<path id="XMLID_1189_" d="M384.07,394.07C385.93,392.21,387,389.63,387,387s-1.07-5.21-2.931-7.07
			C382.21,378.07,379.63,377,377,377s-5.21,1.069-7.07,2.93S367,384.37,367,387s1.069,5.21,2.93,7.069
			c1.86,1.86,4.44,2.931,7.07,2.931S382.21,395.93,384.07,394.07z"/>
		<path id="XMLID_1190_" d="M437.09,423.5c-2.64,0-5.21,1.069-7.07,2.93c-1.87,1.86-2.93,4.43-2.93,7.07
			c0,2.63,1.06,5.21,2.93,7.069c1.86,1.86,4.44,2.931,7.07,2.931s5.2-1.07,7.07-2.931c1.859-1.859,2.92-4.439,2.92-7.069
			s-1.061-5.21-2.92-7.07C442.3,424.57,439.72,423.5,437.09,423.5z"/>
		<path id="XMLID_1191_" d="M384,428c-2.63,0-5.21,1.069-7.07,2.93S374,435.37,374,438s1.069,5.21,2.93,7.069
			c1.86,1.86,4.44,2.931,7.07,2.931s5.21-1.07,7.069-2.931C392.93,443.21,394,440.63,394,438s-1.07-5.21-2.931-7.07
			C389.21,429.07,386.63,428,384,428z"/>
		<path id="XMLID_1192_" d="M170,176.92c-2.63,0-5.21,1.07-7.07,2.93c-1.86,1.86-2.93,4.44-2.93,7.07c0,2.64,1.069,5.21,2.93,7.07
			c1.86,1.869,4.44,2.93,7.07,2.93s5.21-1.061,7.069-2.93c1.86-1.86,2.931-4.431,2.931-7.07c0-2.63-1.07-5.21-2.931-7.07
			C175.21,177.99,172.63,176.92,170,176.92z"/>
	</g>
</g>
<g>
</g>
<g>
</g>
<g>
</g>
<g>
</g>
<g>
</g>
<g>
</g>
<g>
</g>
<g>
</g>
<g>
</g>
<g>
</g>
<g>
</g>
<g>
</g>
<g>
</g>
<g>
</g>
<g>
</g>
</svg>
