<?xml version="1.0" encoding="iso-8859-1"?>
<!-- Generator: Adobe Illustrator 22.0.0, SVG Export Plug-In . SVG Version: 6.00 Build 0)  -->
<svg version="1.1" id="Capa_1" xmlns="http://www.w3.org/2000/svg" xmlns:xlink="http://www.w3.org/1999/xlink" x="0px" y="0px"
	 viewBox="0 0 512 512" style="enable-background:new 0 0 512 512;" xml:space="preserve">
<g id="XMLID_46_">
	<circle id="XMLID_278_" style="fill:#FFCB7C;" cx="256.418" cy="482" r="20"/>
	<rect id="XMLID_277_" x="208.418" y="338" style="fill:#F5737F;" width="96" height="40"/>
	<path id="XMLID_276_" style="fill:#FFCB7C;" d="M304.418,90h-96v0c0-22.091,17.909-40,40-40h16
		C286.509,50,304.418,67.909,304.418,90L304.418,90z"/>
	<path id="XMLID_124_" style="fill:#F5737F;" d="M304,338h-96c-68.483,0-124-55.517-124-124v0c0-68.483,55.517-124,124-124h96
		c68.483,0,124,55.517,124,124v0C428,282.483,372.483,338,304,338z"/>
	<path id="XMLID_121_" style="fill:#F8A2AA;" d="M256,338L256,338c-61.35,0-111.083-49.734-111.083-111.083v-25.834
		C144.917,139.734,194.65,90,256,90h0c61.35,0,111.083,49.734,111.083,111.083v25.834C367.083,288.266,317.35,338,256,338z"/>
	<path id="XMLID_75_" style="fill:#F5737F;" d="M256,338L256,338c-23.196,0-42-18.804-42-42V132c0-23.196,18.804-42,42-42h0
		c23.196,0,42,18.804,42,42v164C298,319.196,279.196,338,256,338z"/>
	<g id="XMLID_1895_">
		<path id="XMLID_1941_" d="M423.439,248.915c-5.161-1.975-10.94,0.612-12.911,5.771c-14.134,36.983-46.798,63.731-84.853,71.203
			c31.074-21.941,51.407-58.125,51.407-98.972v-25.834c0-40.847-20.333-77.031-51.407-98.972
			c38.055,7.472,70.719,34.22,84.854,71.204c1.972,5.158,7.751,7.744,12.911,5.771c5.158-1.972,7.742-7.752,5.771-12.911
			c-9.584-25.077-26.315-46.509-48.385-61.977c-19.995-14.015-43.112-22.167-67.353-23.856
			c-4.407-22.422-23.844-39.505-47.348-40.299V10c0-5.522-4.478-10-10-10s-10,4.478-10,10v30.058
			c-23.222,1.054-42.361,18.019-46.752,40.227C129.491,84.749,74,143.011,74,214c0,70.666,54.986,128.724,124.418,133.654V378
			c0,5.522,4.478,10,10,10h38v65.72c-11.639,4.128-20,15.243-20,28.28c0,16.542,13.458,30,30,30s30-13.458,30-30
			c0-13.036-8.361-24.152-20-28.28V388h38c5.522,0,10-4.478,10-10v-30.4c23.897-1.833,46.672-9.965,66.408-23.798
			c22.069-15.468,38.8-36.899,48.384-61.977C431.182,256.667,428.598,250.887,423.439,248.915z M256.418,492
			c-5.514,0-10-4.486-10-10s4.486-10,10-10s10,4.486,10,10S261.932,492,256.418,492z M207.936,315.823
			c-31.55-17.125-53.019-50.555-53.019-88.906v-25.834c0-38.351,21.469-71.781,53.019-88.906C205.405,118.29,204,124.983,204,132
			v164C204,303.017,205.405,309.71,207.936,315.823z M224,296V132c0-17.645,14.355-32,32-32s32,14.355,32,32v164
			c0,17.645-14.355,32-32,32S224,313.645,224,296z M357.083,201.083v25.834c0,38.351-21.469,71.781-53.019,88.906
			C306.595,309.71,308,303.017,308,296V132c0-7.017-1.405-13.71-3.936-19.823C335.614,129.302,357.083,162.732,357.083,201.083z
			 M248.418,60h16c13.037,0,24.159,8.359,28.286,20h-72.572C224.259,68.359,235.381,60,248.418,60z M94,214
			c0-55.473,39.832-101.812,92.395-111.937c-31.113,21.936-51.478,58.143-51.478,99.02v25.834c0,40.877,20.364,77.084,51.477,99.02
			C133.832,315.812,94,269.473,94,214z M294.418,368h-76v-20h76V368z"/>
		<path id="XMLID_1948_" d="M464.377,421.623c-3.517,0-6.377-2.86-6.377-6.377c0-5.522-4.478-10-10-10s-10,4.478-10,10
			c0,3.517-2.86,6.377-6.377,6.377c-5.522,0-10,4.478-10,10s4.478,10,10,10c3.517,0,6.377,2.86,6.377,6.377c0,5.522,4.478,10,10,10
			s10-4.478,10-10c0-3.517,2.86-6.377,6.377-6.377c5.522,0,10-4.478,10-10S469.899,421.623,464.377,421.623z"/>
		<path id="XMLID_1951_" d="M80.377,90.377c5.522,0,10-4.478,10-10s-4.478-10-10-10C76.86,70.377,74,67.517,74,64
			c0-5.522-4.478-10-10-10s-10,4.478-10,10c0,3.517-2.86,6.377-6.377,6.377c-5.522,0-10,4.478-10,10s4.478,10,10,10
			c3.517,0,6.377,2.86,6.377,6.377c0,5.522,4.478,10,10,10s10-4.478,10-10C74,93.237,76.86,90.377,80.377,90.377z"/>
		<path id="XMLID_1952_" d="M420.93,206.93c-1.86,1.86-2.93,4.44-2.93,7.07s1.069,5.21,2.93,7.069c1.86,1.86,4.44,2.931,7.07,2.931
			s5.21-1.07,7.069-2.931C436.93,219.21,438,216.63,438,214s-1.07-5.21-2.931-7.07c-1.859-1.86-4.439-2.93-7.069-2.93
			S422.79,205.069,420.93,206.93z"/>
	</g>
</g>
<g>
</g>
<g>
</g>
<g>
</g>
<g>
</g>
<g>
</g>
<g>
</g>
<g>
</g>
<g>
</g>
<g>
</g>
<g>
</g>
<g>
</g>
<g>
</g>
<g>
</g>
<g>
</g>
<g>
</g>
</svg>
