<?xml version="1.0" encoding="iso-8859-1"?>
<!-- Generator: Adobe Illustrator 22.0.0, SVG Export Plug-In . SVG Version: 6.00 Build 0)  -->
<svg version="1.1" id="Capa_1" xmlns="http://www.w3.org/2000/svg" xmlns:xlink="http://www.w3.org/1999/xlink" x="0px" y="0px"
	 viewBox="0 0 512.051 512.051" style="enable-background:new 0 0 512.051 512.051;" xml:space="preserve">
<g id="XMLID_31_">
	<path id="XMLID_1792_" style="fill:#FFE6C0;" d="M295.446,46.875c-6.034-17.683-20.37-31.519-38.358-36.875
		c-17.977,5.352-32.306,19.174-38.347,36.84l37.281,27.352L295.446,46.875z"/>
	<path id="XMLID_1422_" style="fill:#E2F1A1;" d="M329.025,342.051L329.025,342.051c-43.181,15.443-72,56.356-72,102.216v57.784l0,0
		c43.894-20.27,72-64.208,72-112.557V342.051z"/>
	<path id="XMLID_1420_" style="fill:#D8EC84;" d="M185.026,342.051L185.026,342.051c43.181,15.443,72,56.356,72,102.216v57.784l0,0
		c-43.894-20.27-72-64.208-72-112.557V342.051z"/>
	<path id="XMLID_1675_" style="fill:#FBC2C7;" d="M350.395,41.641h-20.936c-54.963,0-99.518,44.556-99.518,99.518v11.746
		c0,23.443,19.005,42.448,42.448,42.448h0c43.082,0,78.007-34.925,78.007-78.007V41.641z"/>
	<path id="XMLID_1672_" style="fill:#FBC2C7;" d="M161.656,41.641h20.936c54.963,0,99.518,44.556,99.518,99.518v11.746
		c0,23.443-19.005,42.448-42.448,42.448h0c-43.082,0-78.007-34.925-78.007-78.007V41.641z"/>
	<path id="XMLID_1665_" style="fill:#F5737F;" d="M375.704,88.364h-26.551c-69.703,0-126.209,56.506-126.209,126.209v14.896
		c0,29.731,24.102,53.832,53.832,53.832h0c54.636,0,98.928-44.292,98.928-98.928V88.364z"/>
	<path id="XMLID_1663_" style="fill:#F5737F;" d="M136.346,88.364h26.551c69.703,0,126.209,56.506,126.209,126.209v14.896
		c0,29.731-24.102,53.832-53.832,53.832h0c-54.636,0-98.928-44.292-98.928-98.928V88.364z"/>
	<g id="XMLID_219_">
		<path id="XMLID_1935_" d="M375.704,78.364h-15.31V41.641c0-5.522-4.478-10-10-10h-20.936c-9.538,0-18.959,1.258-28.037,3.67
			c-8.339-16.736-23.328-29.491-41.479-34.895c-1.861-0.555-3.844-0.555-5.707,0c-18.315,5.452-33.417,18.39-41.71,35.351
			c-9.56-2.694-19.608-4.126-29.934-4.126h-20.936c-5.522,0-10,4.478-10,10v36.724h-15.31c-5.522,0-10,4.478-10,10v94.23
			c0,5.522,4.478,10,10,10s10-4.478,10-10v-84.23h16.551c64.078,0,116.209,52.131,116.209,116.209v14.896
			c0,17.738-10.597,33.037-25.787,39.929c-0.916,0.238-1.793,0.604-2.607,1.087c-4.805,1.814-10.006,2.815-15.438,2.815
			c-20.313,0-39.434-6.665-55.294-19.275c-4.323-3.438-10.614-2.717-14.051,1.604c-3.438,4.323-2.719,10.614,1.604,14.051
			c19.437,15.453,42.86,23.621,67.741,23.621c4.062,0,8.031-0.398,11.884-1.126v86.53c-13.842-20.826-34.19-37.281-58.766-46.07
			c-3.062-1.095-6.467-0.633-9.126,1.24s-4.241,4.923-4.241,8.176v47.443c0,52.063,30.541,99.808,77.808,121.636
			c1.335,0.616,2.766,0.921,4.191,0.921c1.43,0,2.854-0.31,4.172-0.916c0.007-0.003,0.014-0.002,0.021-0.005
			c47.267-21.828,77.808-69.573,77.808-121.636v-47.443c0-3.253-1.582-6.303-4.241-8.176c-2.661-1.873-6.064-2.335-9.126-1.24
			c-24.42,8.733-44.664,25.038-58.5,45.677v-85.729c3.162,0.477,6.372,0.718,9.618,0.718c60.063,0,108.928-48.865,108.928-108.928
			V88.364C385.704,82.842,381.227,78.364,375.704,78.364z M340.395,51.641v27.02c-20.462,1.334-40.32,7.303-58.034,17.255
			c-3.463-7.67-7.751-14.806-12.73-21.333c16.349-14.667,37.706-22.942,59.828-22.942H340.395z M257.089,20.532
			c10.828,3.98,19.825,11.746,25.39,21.729c-9.549,4.535-18.449,10.451-26.383,17.599c-7.442-6.731-15.786-12.408-24.803-16.867
			C236.823,32.658,245.997,24.609,257.089,20.532z M171.656,78.654V51.641h10.936c25.42,0,48.795,10.576,65.316,28.197
			c0.394,0.546,0.848,1.06,1.364,1.532c0.038,0.035,0.079,0.063,0.118,0.097c6.657,7.462,12.125,16.101,16.044,25.688
			c-3.265,2.538-6.416,5.238-9.45,8.079C233.606,94.253,204.165,80.728,171.656,78.654z M195.025,389.494v-32.09
			c31.602,16.965,52,50.271,52,86.862v40.872C215.001,464.338,195.025,428.327,195.025,389.494z M319.025,357.404v32.09
			c0,38.779-19.921,74.741-51.867,95.555v-45.608C268.864,404.767,288.82,373.62,319.025,357.404z M365.704,184.373
			c0,47.367-37.225,86.198-83.957,88.786c10.751-11.429,17.359-26.798,17.359-43.69v-14.896c0-31.962-11.072-61.384-29.574-84.645
			c4.031-3.806,8.28-7.295,12.727-10.444c0.549-0.306,1.058-0.662,1.529-1.056c19.076-13.055,41.588-20.064,65.365-20.064h16.551
			V184.373z"/>
		<path id="XMLID_1954_" d="M145.795,216.595c-2.63,0-5.21,1.07-7.069,2.931c-1.87,1.859-2.931,4.439-2.931,7.069
			c0,2.641,1.061,5.211,2.931,7.07c1.859,1.87,4.439,2.93,7.069,2.93s5.21-1.06,7.07-2.93c1.86-1.859,2.93-4.43,2.93-7.07
			c0-2.63-1.069-5.21-2.93-7.069C151.005,217.665,148.425,216.595,145.795,216.595z"/>
	</g>
</g>
<g>
</g>
<g>
</g>
<g>
</g>
<g>
</g>
<g>
</g>
<g>
</g>
<g>
</g>
<g>
</g>
<g>
</g>
<g>
</g>
<g>
</g>
<g>
</g>
<g>
</g>
<g>
</g>
<g>
</g>
</svg>
