<?xml version="1.0" encoding="iso-8859-1"?>
<!-- Generator: Adobe Illustrator 22.0.0, SVG Export Plug-In . SVG Version: 6.00 Build 0)  -->
<svg version="1.1" id="Capa_1" xmlns="http://www.w3.org/2000/svg" xmlns:xlink="http://www.w3.org/1999/xlink" x="0px" y="0px"
	 viewBox="0 0 512 512" style="enable-background:new 0 0 512 512;" xml:space="preserve">
<g id="XMLID_982_">
	<path id="XMLID_1981_" style="fill:#CC9E83;" d="M80.574,111.351L256.119,10l175.545,101.351
		c6.704,3.871,3.958,14.119-3.783,14.119H84.357C76.616,125.471,73.87,115.222,80.574,111.351z"/>
	<g id="XMLID_980_">
		<polygon id="XMLID_981_" style="fill:#B8866B;" points="167.246,125.47 255.992,125.47 255.992,10.166 		"/>
		<polygon id="XMLID_1160_" style="fill:#B8866B;" points="256.119,10 255.992,10.166 255.992,125.47 344.992,125.47 		"/>
	</g>
	<path id="XMLID_1982_" style="fill:#B8866B;" d="M359.298,125.473l118.366,68.338c6.704,3.871,3.958,14.119-3.783,14.119H38.357
		c-7.741,0-10.487-10.249-3.783-14.119l118.37-68.341L359.298,125.473z"/>
	<polygon id="XMLID_1991_" style="fill:#CC9E83;" points="313.946,125.473 393.992,207.931 118.246,207.931 198.293,125.471 	"/>
	<polygon id="XMLID_1984_" style="fill:#B8866B;" points="276.058,125.473 303.658,207.931 208.579,207.931 236.18,125.471 	"/>
	<g id="XMLID_1978_">
		<rect id="XMLID_1979_" x="235.992" y="207.931" style="fill:#CC9E83;" width="40" height="294.07"/>
	</g>
	<g id="XMLID_1975_">
		<path id="XMLID_1976_" style="fill:#FFD89E;" d="M457.992,448H118.638c-6.365,0-12.469-2.529-16.97-7.029l-64.646-64.647
			c-9.373-9.373-9.373-24.569,0-33.941l0,0c9.373-9.373,24.569-9.373,33.941,0L128.58,400h329.412c13.255,0,24,10.745,24,24v0
			C481.992,437.255,471.247,448,457.992,448z"/>
	</g>
	<polygon id="XMLID_1974_" style="fill:#FFCB7C;" points="178.71,448 139.179,502 100.845,502 125.194,448 	"/>
	<polygon id="XMLID_1973_" style="fill:#FFCB7C;" points="370.128,448 409.658,502 447.992,502 423.643,448 	"/>
	<g id="XMLID_1393_">
		<path id="XMLID_1588_" d="M457.992,390h-44.87c-5.522,0-10,4.478-10,10s4.478,10,10,10h44.87c7.72,0,14,6.28,14,14s-6.28,14-14,14
			h-34.571c-0.008,0-0.015,0-0.023,0H125.436c-0.004,0-0.009,0-0.013,0h-6.784c-3.739,0-7.256-1.456-9.899-4.101l-64.646-64.646
			c-5.458-5.459-5.458-14.342,0-19.8c2.645-2.645,6.16-4.101,9.899-4.101c3.74,0,7.255,1.456,9.899,4.101l57.617,57.617
			c1.876,1.875,4.419,2.929,7.071,2.929h194.542c5.522,0,10-4.478,10-10s-4.478-10-10-10h-37.13V217.931h17.667h90.333h79.889
			c8.063,0,14.882-5.232,16.968-13.021c2.087-7.788-1.203-15.729-8.185-19.759l-86.051-49.682h31.268
			c8.063,0,14.881-5.232,16.968-13.02s-1.202-15.729-8.185-19.76L261.119,1.34c-3.094-1.787-6.906-1.787-10,0L75.574,102.691
			c-6.982,4.031-10.271,11.973-8.185,19.76s8.905,13.02,16.968,13.02h31.269l-86.051,49.682c-6.982,4.03-10.272,11.971-8.186,19.759
			c2.086,7.788,8.905,13.021,16.968,13.021h79.889h90.333h17.413V390h-93.271l-54.688-54.688c-6.421-6.423-14.96-9.959-24.042-9.959
			c-9.081,0-17.62,3.536-24.042,9.959c-13.255,13.256-13.255,34.826,0,48.083l64.646,64.646c4.38,4.38,9.745,7.414,15.595,8.903
			L91.729,497.89c-1.396,3.095-1.125,6.686,0.717,9.537S97.451,512,100.845,512h38.333c3.188,0,6.186-1.521,8.069-4.093L183.783,458
			h42.209v44c0,5.522,4.478,10,10,10h40c5.522,0,10-4.478,10-10v-44h79.063l36.535,49.907c1.884,2.572,4.881,4.093,8.069,4.093
			h38.333c3.395,0,6.558-1.722,8.399-4.573s2.112-6.442,0.717-9.537L439.122,458h18.87c18.748,0,34-15.252,34-34
			S476.74,390,457.992,390z M310.856,197.931l-20.907-62.461h19.765l60.633,62.461H310.856z M187.561,115.47l58.558-76.082v76.082
			H187.561z M266.119,39.389l58.558,76.082h-58.558V39.389z M464.798,197.931h-66.577l-60.634-62.461h7.404h11.621L464.798,197.931z
			 M349.915,115.47l-55.089-71.576l123.973,71.576H349.915z M217.412,43.895l-55.089,71.576H93.439L217.412,43.895z M155.625,135.47
			h11.621h7.405l-60.633,62.461H47.439L155.625,135.47z M202.524,135.47h19.765l-20.907,62.461H141.89L202.524,135.47z
			 M243.378,135.47h25.481l20.907,62.461h-67.295L243.378,135.47z M245.992,217.931h20V390h-20V217.931z M134.106,492h-17.782
			l15.331-34h27.341L134.106,492z M265.992,492h-20v-34h20V492z M432.513,492h-17.782l-24.89-34h27.341L432.513,492z"/>
		<path id="XMLID_1647_" d="M361.051,392.93c-1.859,1.86-2.93,4.44-2.93,7.07s1.07,5.21,2.93,7.069c1.86,1.86,4.44,2.931,7.07,2.931
			s5.21-1.07,7.07-2.931c1.859-1.859,2.93-4.439,2.93-7.069s-1.07-5.21-2.93-7.07c-1.86-1.86-4.44-2.93-7.07-2.93
			S362.912,391.07,361.051,392.93z"/>
	</g>
</g>
<g>
</g>
<g>
</g>
<g>
</g>
<g>
</g>
<g>
</g>
<g>
</g>
<g>
</g>
<g>
</g>
<g>
</g>
<g>
</g>
<g>
</g>
<g>
</g>
<g>
</g>
<g>
</g>
<g>
</g>
</svg>
