<?xml version="1.0" encoding="iso-8859-1"?>
<!-- Generator: Adobe Illustrator 22.0.0, SVG Export Plug-In . SVG Version: 6.00 Build 0)  -->
<svg version="1.1" id="Capa_1" xmlns="http://www.w3.org/2000/svg" xmlns:xlink="http://www.w3.org/1999/xlink" x="0px" y="0px"
	 viewBox="0 0 512 512" style="enable-background:new 0 0 512 512;" xml:space="preserve">
<g id="XMLID_16_">
	<circle id="XMLID_1791_" style="fill:#E1E3E9;" cx="97" cy="38" r="28"/>
	<rect id="XMLID_1712_" x="37" y="462" style="fill:#8690A6;" width="120" height="40"/>
	<rect id="XMLID_1701_" x="77" y="66" style="fill:#E1E3E9;" width="40" height="396"/>
	<polyline id="XMLID_1705_" style="fill:#FFFFFF;" points="341,266 266,341 266,266 	"/>
	<polyline id="XMLID_1660_" style="fill:#FFFFFF;" points="321,291 475,291 475,341 266,341 	"/>
	<polyline id="XMLID_1673_" style="fill:#F5737F;" points="341,191 475,191 475,141 341,141 	"/>
	<polyline id="XMLID_1689_" style="fill:#FFFFFF;" points="341,241 475,241 475,191 341,191 	"/>
	<polyline id="XMLID_1676_" style="fill:#F5737F;" points="321,291 475,291 475,241 341,241 	"/>
	<rect id="XMLID_1599_" x="117" y="66" style="fill:#91DEF5;" width="112" height="100"/>
	<polyline id="XMLID_2163_" style="fill:#FFFFFF;" points="338,116 229,116 229,166 338,166 	"/>
	<polyline id="XMLID_1657_" style="fill:#F5737F;" points="338,166 121.333,166 121.333,216 338,216 	"/>
	<polyline id="XMLID_1659_" style="fill:#FFFFFF;" points="338,216 121.333,216 121.333,266 338,266 	"/>
	<polyline id="XMLID_1115_" style="fill:#F5737F;" points="338,66 229,66 229,116 338,116 	"/>
	<g id="XMLID_1905_">
		<path id="XMLID_1978_" d="M475,131H351V66c0-5.522-4.478-10-10-10H229h-98.543C133.353,50.639,135,44.509,135,38
			c0-20.953-17.047-38-38-38S59,17.047,59,38c0,9.198,3.286,17.641,8.744,24.222C67.268,63.388,67,64.662,67,66v153
			c0,5.522,4.478,10,10,10s10-4.478,10-10V76h20v90v286H87V309c0-5.522-4.478-10-10-10s-10,4.478-10,10v143H37
			c-5.522,0-10,4.478-10,10v40c0,5.522,4.478,10,10,10h120c5.522,0,10-4.478,10-10v-40c0-5.522-4.478-10-10-10h-30V276h129v65
			c0,5.522,4.478,10,10,10h209c5.522,0,10-4.478,10-10V141C485,135.478,480.522,131,475,131z M147,492H47v-20h30h40h30V492z
			 M127,176h102h102v30H127V176z M351,201h114v30H351V201z M331,156h-92v-30h92V156z M348.071,273.071L348.071,273.071
			c1.81-1.81,2.929-4.31,2.929-7.071v-15h114v30H340.143L348.071,273.071z M465,151v30H351v-30H465z M331,106h-92V76h92V106z
			 M219,156h-92V76h92V156z M97,20c9.925,0,18,8.075,18,18s-8.075,18-18,18s-18-8.075-18-18S87.075,20,97,20z M127,226h204v30H127
			V226z M316.857,276L276,316.857V276H316.857z M290.143,331l30.041-30.041c0.27,0.022,0.541,0.041,0.816,0.041h144v30H290.143z"/>
		<path id="XMLID_1996_" d="M77,274c2.63,0,5.21-1.07,7.069-2.931C85.93,269.21,87,266.63,87,264s-1.07-5.21-2.931-7.07
			C82.21,255.069,79.63,254,77,254s-5.21,1.069-7.07,2.93S67,261.37,67,264s1.069,5.21,2.93,7.069C71.79,272.93,74.37,274,77,274z"
			/>
	</g>
</g>
<g>
</g>
<g>
</g>
<g>
</g>
<g>
</g>
<g>
</g>
<g>
</g>
<g>
</g>
<g>
</g>
<g>
</g>
<g>
</g>
<g>
</g>
<g>
</g>
<g>
</g>
<g>
</g>
<g>
</g>
</svg>
