<?xml version="1.0" encoding="iso-8859-1"?>
<!-- Generator: Adobe Illustrator 22.0.0, SVG Export Plug-In . SVG Version: 6.00 Build 0)  -->
<svg version="1.1" id="Capa_1" xmlns="http://www.w3.org/2000/svg" xmlns:xlink="http://www.w3.org/1999/xlink" x="0px" y="0px"
	 viewBox="0 0 512 512" style="enable-background:new 0 0 512 512;" xml:space="preserve">
<g id="XMLID_1074_">
	<path id="XMLID_2152_" style="fill:#91DEF5;" d="M256,10L256,10C145.543,10,56,99.543,56,210v168.667
		C56,402.599,75.401,422,99.333,422h313.333C436.599,422,456,402.599,456,378.667V210C456,99.543,366.457,10,256,10z"/>
	<path id="XMLID_2151_" style="fill:#DFF6FC;" d="M256,58L256,58c-84.967,0-153.846,68.879-153.846,153.846v24.731
		c0,11.832,9.591,21.423,21.423,21.423h264.846c11.832,0,21.423-9.591,21.423-21.423v-24.731C409.846,126.879,340.967,58,256,58z"/>
	<circle id="XMLID_2150_" style="fill:#FFFFFF;" cx="128" cy="340" r="32"/>
	<circle id="XMLID_2149_" style="fill:#FFFFFF;" cx="384" cy="340" r="32"/>
	<rect id="XMLID_2148_" x="200" y="316" style="fill:#8690A6;" width="112" height="48"/>
	<g id="XMLID_986_">
		<path id="XMLID_1563_" d="M123.577,268h264.846c17.326,0,31.423-14.097,31.423-31.423v-24.731C419.846,121.501,346.345,48,256,48
			c-27.126,0-54.003,6.769-77.726,19.575c-4.86,2.624-6.673,8.69-4.05,13.55s8.69,6.673,13.55,4.05
			C208.589,73.938,232.181,68,256,68c18.318,0,35.845,3.449,51.973,9.72L137.692,248h-14.115c-6.299,0-11.423-5.124-11.423-11.423
			v-24.731c0-23.595,5.833-46.989,16.869-67.656c2.602-4.871,0.761-10.93-4.11-13.531c-4.874-2.6-10.93-0.761-13.532,4.11
			c-12.578,23.556-19.227,50.208-19.227,77.077v24.731C92.154,253.903,106.251,268,123.577,268z M399.846,236.577
			c0,6.299-5.124,11.423-11.423,11.423H262.979l113.958-113.958c14.49,22.444,22.91,49.158,22.91,77.803V236.577z M327.126,86.852
			c14.267,8.15,27.013,18.669,37.694,31.021L234.693,248h-68.716L327.126,86.852z"/>
		<path id="XMLID_1683_" d="M170,340c0-23.159-18.841-42-42-42s-42,18.841-42,42s18.841,42,42,42S170,363.159,170,340z M106,340
			c0-12.131,9.869-22,22-22s22,9.869,22,22s-9.869,22-22,22S106,352.131,106,340z"/>
		<path id="XMLID_1687_" d="M384,298c-23.159,0-42,18.841-42,42s18.841,42,42,42s42-18.841,42-42S407.159,298,384,298z M384,362
			c-12.131,0-22-9.869-22-22s9.869-22,22-22s22,9.869,22,22S396.131,362,384,362z"/>
		<path id="XMLID_1690_" d="M312,306H200c-5.522,0-10,4.478-10,10v48c0,5.522,4.478,10,10,10h112c5.522,0,10-4.478,10-10v-48
			C322,310.478,317.522,306,312,306z M302,354h-92v-28h92V354z"/>
		<path id="XMLID_1703_" d="M478.29,494.929l-62.995-62.995c28.192-1.375,50.705-24.74,50.705-53.266V210
			C466,94.206,371.794,0,256,0S46,94.206,46,210v168.667c0,28.527,22.513,51.892,50.705,53.266L33.71,494.929
			c-3.905,3.905-3.905,10.237,0,14.143c1.953,1.952,4.512,2.929,7.071,2.929s5.118-0.977,7.071-2.929L84.924,472h342.152
			l37.071,37.071c1.953,1.952,4.512,2.929,7.071,2.929s5.118-0.977,7.071-2.929C482.195,505.166,482.195,498.834,478.29,494.929z
			 M66,378.667V210c0-104.767,85.233-190,190-190s190,85.233,190,190v168.667c0,18.38-14.953,33.333-33.333,33.333H99.333
			C80.953,412,66,397.047,66,378.667z M104.924,452l20-20h262.152l20,20H104.924z"/>
		<path id="XMLID_1705_" d="M146.97,113.31c2.63,0,5.21-1.069,7.07-2.93c1.859-1.86,2.93-4.44,2.93-7.07
			c0-2.64-1.07-5.21-2.93-7.069c-1.86-1.87-4.44-2.931-7.07-2.931s-5.21,1.061-7.07,2.931c-1.859,1.859-2.93,4.439-2.93,7.069
			s1.07,5.2,2.93,7.07C141.76,112.24,144.34,113.31,146.97,113.31z"/>
	</g>
</g>
<g>
</g>
<g>
</g>
<g>
</g>
<g>
</g>
<g>
</g>
<g>
</g>
<g>
</g>
<g>
</g>
<g>
</g>
<g>
</g>
<g>
</g>
<g>
</g>
<g>
</g>
<g>
</g>
<g>
</g>
</svg>
