<?xml version="1.0" encoding="iso-8859-1"?>
<!-- Generator: Adobe Illustrator 22.0.0, SVG Export Plug-In . SVG Version: 6.00 Build 0)  -->
<svg version="1.1" id="Capa_1" xmlns="http://www.w3.org/2000/svg" xmlns:xlink="http://www.w3.org/1999/xlink" x="0px" y="0px"
	 viewBox="0 0 512 512" style="enable-background:new 0 0 512 512;" xml:space="preserve">
<g id="XMLID_1071_">
	<polygon id="XMLID_1699_" style="fill:#B0E7F8;" points="484,502 28,502 28,182 256,10 484,182 	"/>
	<polygon id="XMLID_1068_" style="fill:#FFFFFF;" points="68,219.667 68,64 444,64 444,219.667 256,413.241 	"/>
	<path id="XMLID_1069_" style="fill:#DFF6FC;" d="M480,498L300.897,318.897c-24.726-24.726-64.814-24.726-89.54,0L32.254,498"/>
	<path id="XMLID_1070_" style="fill:#F5737F;" d="M335.405,166.177c-0.237-26.243-21.802-47.594-48.046-47.581
		c-11.988,0.006-22.948,4.405-31.359,11.674c-8.411-7.269-19.371-11.668-31.359-11.674c-26.244-0.013-47.81,21.338-48.046,47.581
		c-0.133,14.703,6.344,27.897,16.638,36.793h-0.001l56.386,56.386c3.525,3.525,9.24,3.525,12.764,0l56.386-56.386h-0.001
		C329.062,194.074,335.538,180.88,335.405,166.177z"/>
	<g id="XMLID_108_">
		<path id="XMLID_153_" d="M490.022,174.017L454,146.842V64c0-5.523-4.477-10-10-10H330.931L262.022,2.017
			c-3.564-2.689-8.48-2.689-12.045,0L181.07,54H68c-5.523,0-10,4.477-10,10v82.842l-36.022,27.175C19.473,175.906,18,178.862,18,182
			v115.127c0,5.523,4.477,10,10,10s10-4.477,10-10v-90.985l135.984,135.984L38,478.112v-90.985c0-5.523-4.477-10-10-10
			s-10,4.477-10,10V502c0,5.523,4.477,10,10,10h456c5.523,0,10-4.477,10-10V182C494,178.862,492.527,175.906,490.022,174.017z
			 M474,477.858L338.143,342L474,206.143V477.858z M195.198,349.199L195.198,349.199l0.001-0.001l23.229-23.229
			c20.787-20.788,54.61-20.788,75.397,0l23.103,23.102c0,0,0,0,0,0.001l0.001,0.001L365.858,398h-71.031c-5.523,0-10,4.477-10,10
			s4.477,10,10,10h91.031l20,20H249.667c-5.523,0-10,4.477-10,10s4.477,10,10,10H424.75c0.355,0,0.706-0.02,1.052-0.056L459.858,492
			H52.396L195.198,349.199z M468.799,183.059L454,197.857v-25.962L468.799,183.059z M256,22.526L297.721,54h-83.441L256,22.526z
			 M58,197.857l-14.799-14.799L58,171.895V197.857z M78,217.857V74h249.526c0.017,0,0.033,0.002,0.05,0.002
			c0.011,0,0.023-0.002,0.035-0.002H434v143.857l-110,110l-16.032-16.032c-28.586-28.585-75.097-28.585-103.683,0l-16.159,16.159
			L78,217.857z"/>
		<path id="XMLID_163_" d="M256,272c5.082,0,9.86-1.979,13.454-5.573l56.14-56.141c12.748-11.163,19.964-27.25,19.811-44.199
			c-0.286-31.707-26.31-57.491-58.021-57.491c-0.009,0-0.021,0-0.03,0c-11.175,0.005-22.055,3.237-31.354,9.218
			c-9.299-5.98-20.179-9.212-31.354-9.218c-0.012,0-0.019,0-0.031,0c-31.708,0-57.734,25.785-58.02,57.49
			c-0.153,16.949,7.063,33.037,19.81,44.199l56.141,56.142C246.14,270.021,250.918,272,256,272z M199.771,195.404
			c-8.475-7.324-13.277-17.944-13.176-29.137c0.187-20.776,17.241-37.67,38.021-37.67c0.006,0,0.014,0,0.02,0
			c9.12,0.004,17.936,3.286,24.826,9.24c3.755,3.245,9.322,3.245,13.077,0c6.89-5.954,15.706-9.235,24.826-9.24
			c0.007,0,0.012,0,0.02,0c20.778,0,37.834,16.896,38.021,37.67c0,0,0,0,0,0c0.101,11.193-4.701,21.813-13.176,29.137
			c-0.183,0.158-0.361,0.324-0.532,0.495L256,251.597l-55.697-55.697C200.131,195.728,199.954,195.563,199.771,195.404z"/>
		<polygon id="XMLID_164_" points="345.405,166.087 345.405,166.087 345.405,166.087 		"/>
		<path id="XMLID_165_" d="M28,352.13c2.63,0,5.21-1.07,7.07-2.93c1.86-1.87,2.93-4.44,2.93-7.07s-1.07-5.21-2.93-7.07
			c-1.86-1.86-4.44-2.93-7.07-2.93c-2.64,0-5.21,1.07-7.07,2.93c-1.86,1.86-2.93,4.44-2.93,7.07s1.07,5.21,2.93,7.07
			C22.79,351.06,25.37,352.13,28,352.13z"/>
	</g>
</g>
<g>
</g>
<g>
</g>
<g>
</g>
<g>
</g>
<g>
</g>
<g>
</g>
<g>
</g>
<g>
</g>
<g>
</g>
<g>
</g>
<g>
</g>
<g>
</g>
<g>
</g>
<g>
</g>
<g>
</g>
</svg>
