<?xml version="1.0" encoding="iso-8859-1"?>
<!-- Generator: Adobe Illustrator 22.0.0, SVG Export Plug-In . SVG Version: 6.00 Build 0)  -->
<svg version="1.1" id="Capa_1" xmlns="http://www.w3.org/2000/svg" xmlns:xlink="http://www.w3.org/1999/xlink" x="0px" y="0px"
	 viewBox="0 0 512 512" style="enable-background:new 0 0 512 512;" xml:space="preserve">
<g id="XMLID_871_">
	<path id="XMLID_1539_" style="fill:#B0E7F8;" d="M363.535,184c-6.893-25.153-29.855-43.662-57.197-43.662
		c-1.137,0-2.246,0.107-3.368,0.17c0-0.057,0.004-0.113,0.004-0.17c0-42.16-34.177-76.338-76.338-76.338
		c-28.14,0-52.71,15.235-65.947,37.899c-1.014,1.736-2.992,2.636-4.975,2.303c-0.038-0.006-0.077-0.013-0.115-0.019
		c-1.413-0.235-2.616-1.125-3.34-2.36C138.527,78.37,112.641,62.9,83.245,64.061c-39.778,1.572-71.956,34.037-73.206,73.827
		C9.5,155.066,14.655,171.005,23.735,184H363.535z"/>
	<circle id="XMLID_1538_" style="fill:#FFCB7C;" cx="223.6" cy="352" r="96"/>
	<g id="XMLID_1069_">
		<path id="XMLID_174_" d="M363.536,194H231.767c-5.523,0-10-4.477-10-10s4.477-10,10-10h116.659
			c-8.798-14.391-24.64-23.662-42.088-23.662c-0.467,0-1.044,0.039-1.713,0.084c-0.364,0.025-0.728,0.049-1.093,0.07
			c-2.745,0.153-5.433-0.829-7.431-2.718c-1.998-1.889-3.13-4.517-3.13-7.267c0-0.073,0.001-0.181,0.004-0.278
			C292.916,103.7,263.18,74,226.637,74c-23.484,0-45.445,12.623-57.312,32.942c-3.083,5.278-9.22,8.139-15.271,7.121
			c-4.41-0.733-8.175-3.348-10.423-7.188c-12.423-21.216-35.405-33.792-59.991-32.821c-34.58,1.366-62.518,29.544-63.605,64.149
			c-0.399,12.718,2.75,24.993,9.146,35.798h112.587c5.523,0,10,4.477,10,10s-4.477,10-10,10H23.735
			c-3.266,0-6.326-1.595-8.197-4.272c-10.726-15.35-16.083-33.384-15.494-52.153C1.458,92.528,37.831,55.848,82.85,54.069
			c29.268-1.15,56.806,12.457,73.651,35.943C172.618,67.616,198.803,54,226.637,54c44.317,0,80.943,33.563,85.793,76.607
			c28.566,2.531,53.061,22.688,60.75,50.75c0.824,3.008,0.198,6.228-1.694,8.708C369.595,192.545,366.654,194,363.536,194z"/>
	</g>
	<path id="XMLID_1122_" style="fill:#91DEF5;" d="M502,448c-0.64-39.007-28.389-71.406-65.254-79.13
		c-11.791-30.997-41.696-53.063-76.83-53.063c-36.812,0-67.964,24.186-78.465,57.529c-9.676-3.999-20.268-6.233-31.388-6.233
		c-28.188,0-53.045,14.194-67.869,35.808c-26.776,4.329-49.224,21.545-60.744,45.088H502z"/>
	<path id="XMLID_175_" d="M490.637,390.299c-12.104-14.516-28.499-25.019-46.601-29.955c-6.795-15.172-17.499-28.167-31.196-37.808
		c-15.55-10.945-33.851-16.73-52.925-16.73c-13.249,0-25.942,2.79-37.46,7.879C306.846,273.281,267.826,246,223.6,246
		c-58.449,0-106,47.551-106,106c0,21.865,6.773,43.09,19.215,60.833c-10.089,8.287-18.452,18.727-24.346,30.772
		c-1.517,3.099-1.328,6.761,0.499,9.689c1.827,2.927,5.033,4.706,8.484,4.706H502c2.681,0,5.249-1.076,7.129-2.987
		s2.914-4.497,2.87-7.177C511.654,426.839,504.068,406.405,490.637,390.299z M137.6,352c0-47.42,38.58-86,86-86
		c36.967,0,69.457,23.482,81.305,57.898c-12.594,9.338-22.803,21.9-29.364,36.792c-8.263-2.383-16.795-3.587-25.478-3.587
		c-29.003,0-56.222,13.646-73.638,36.711c-8.02,1.68-15.7,4.418-22.874,8.072C143.221,387.387,137.6,369.959,137.6,352z M139.74,438
		c11.05-13.314,26.656-22.404,44.051-25.216c2.701-0.437,5.104-1.96,6.651-4.216c13.512-19.702,35.8-31.464,59.622-31.464
		c9.503,0,18.778,1.842,27.568,5.475c2.59,1.071,5.51,1.004,8.051-0.181c2.54-1.186,4.465-3.383,5.307-6.057
		c5.252-16.676,16.045-30.323,29.985-39.216c0.616-0.298,1.192-0.657,1.722-1.064c10.953-6.561,23.72-10.253,37.22-10.253
		c29.757,0,56.876,18.734,67.483,46.618c1.211,3.185,3.961,5.534,7.296,6.232c29.298,6.139,51.709,30.296,56.406,59.343H139.74z"/>
	<g id="XMLID_1540_">
		<path id="XMLID_170_" d="M186.77,194c-2.63,0-5.21-1.07-7.07-2.93c-1.86-1.86-2.93-4.44-2.93-7.07c0-2.63,1.07-5.21,2.93-7.07
			c1.86-1.86,4.44-2.93,7.07-2.93c2.63,0,5.21,1.07,7.07,2.93c1.86,1.86,2.93,4.44,2.93,7.07c0,2.63-1.07,5.21-2.93,7.07
			S189.4,194,186.77,194z"/>
	</g>
</g>
<g>
</g>
<g>
</g>
<g>
</g>
<g>
</g>
<g>
</g>
<g>
</g>
<g>
</g>
<g>
</g>
<g>
</g>
<g>
</g>
<g>
</g>
<g>
</g>
<g>
</g>
<g>
</g>
<g>
</g>
</svg>
