<?xml version="1.0" encoding="iso-8859-1"?>
<!-- Generator: Adobe Illustrator 22.0.0, SVG Export Plug-In . SVG Version: 6.00 Build 0)  -->
<svg version="1.1" id="Capa_1" xmlns="http://www.w3.org/2000/svg" xmlns:xlink="http://www.w3.org/1999/xlink" x="0px" y="0px"
	 viewBox="0 0 512 512" style="enable-background:new 0 0 512 512;" xml:space="preserve">
<g id="XMLID_1282_">
	<path id="XMLID_1249_" style="fill:#B8866B;" d="M402.825,148.137l38.897-22.457c9.566-5.523,21.798-2.245,27.32,7.321l0,0
		c5.523,9.566,2.245,21.798-7.32,27.32l-38.897,22.457l-313.65,181.086l-38.897,22.457c-9.566,5.523-21.798,2.245-27.32-7.32l0,0
		c-5.523-9.566-2.245-21.798,7.32-27.32l38.897-22.457L402.825,148.137z"/>
	<path id="XMLID_1163_" style="fill:#B8866B;" d="M89.175,182.778L50.278,160.32c-9.566-5.523-12.843-17.755-7.32-27.32l0,0
		c5.523-9.566,17.755-12.843,27.32-7.321l38.897,22.457l313.65,181.086l38.897,22.457c9.566,5.523,12.843,17.755,7.32,27.32l0,0
		c-5.523,9.566-17.755,12.843-27.32,7.32l-38.897-22.457L89.175,182.778z"/>
	<path id="XMLID_1242_" style="fill:#B8866B;" d="M276,437.086V482c0,11.046-8.954,20-20,20h0c-11.046,0-20-8.954-20-20v-44.914
		V74.914V30c0-11.046,8.954-20,20-20h0c11.046,0,20,8.954,20,20v44.914V437.086z"/>
	<path id="XMLID_2498_" style="fill:#CC9E83;" d="M256,74.914C155.989,74.914,74.914,155.989,74.914,256
		S155.989,437.086,256,437.086S437.086,356.011,437.086,256S356.011,74.914,256,74.914z M256,384.001
		c-70.693,0-128.001-57.308-128.001-128.001S185.307,127.998,256,127.998S384.001,185.307,384.001,256S326.693,384.001,256,384.001z
		"/>
	<circle id="XMLID_1247_" style="fill:#FFCB7C;" cx="256" cy="256" r="41"/>
	<g id="XMLID_1416_">
		<path id="XMLID_1726_" d="M256,117.998c-76.095,0-138.002,61.907-138.002,138.002S179.905,394.002,256,394.002
			S394.002,332.095,394.002,256S332.095,117.998,256,117.998z M362.812,205.879L304.3,239.661
			c-2.185-6.441-5.62-12.307-10.022-17.308l58.506-33.779C356.593,194.026,359.953,199.812,362.812,205.879z M374.002,256
			c0,10.755-1.455,21.176-4.163,31.084L316,256l53.839-31.084C372.547,234.824,374.002,245.245,374.002,256z M352.784,323.425
			l-58.506-33.779c4.402-5.001,7.837-10.866,10.022-17.308l58.512,33.782C359.953,312.188,356.593,317.974,352.784,323.425z
			 M149.188,306.121l58.512-33.782c2.185,6.441,5.62,12.307,10.022,17.308l-58.506,33.779
			C155.407,317.974,152.047,312.188,149.188,306.121z M137.998,256c0-10.755,1.455-21.176,4.163-31.084L196,256l-53.839,31.084
			C139.453,277.176,137.998,266.755,137.998,256z M159.216,188.575l58.506,33.779c-4.402,5.001-7.837,10.866-10.022,17.308
			l-58.512-33.782C152.047,199.812,155.407,194.026,159.216,188.575z M225,256c0-17.094,13.906-31,31-31s31,13.906,31,31
			s-13.906,31-31,31S225,273.094,225,256z M339.781,172.988L286,204.039v-62.172C306.681,147.307,325.159,158.232,339.781,172.988z
			 M266,138.426v67.564c-3.235-0.646-6.578-0.99-10-0.99s-6.765,0.345-10,0.99v-67.564c3.298-0.278,6.631-0.428,10-0.428
			S262.702,138.148,266,138.426z M226,141.867v62.172l-53.781-31.051C186.841,158.232,205.319,147.307,226,141.867z
			 M172.219,339.012L226,307.961v62.172C205.319,364.693,186.841,353.768,172.219,339.012z M246,373.574V306.01
			c3.235,0.646,6.578,0.99,10,0.99s6.765-0.345,10-0.99v67.564c-3.298,0.278-6.631,0.428-10,0.428S249.298,373.852,246,373.574z
			 M286,370.133v-62.172l53.781,31.051C325.159,353.768,306.681,364.693,286,370.133z"/>
		<path id="XMLID_1765_" d="M466.722,343.02l-32.268-18.63c2.748-7.139,5.07-14.447,6.931-21.887
			c1.34-5.357-1.917-10.787-7.275-12.127c-5.355-1.344-10.787,1.916-12.127,7.275C402.924,373.86,334.67,427.086,256,427.086
			c-94.337,0-171.086-76.749-171.086-171.086S161.663,84.914,256,84.914c78.123,0,146.262,52.768,165.7,128.321
			c1.376,5.349,6.817,8.569,12.177,7.193c5.349-1.376,8.568-6.827,7.192-12.177c-1.82-7.073-4.03-13.962-6.588-20.657l32.241-18.614
			c6.939-4.006,11.904-10.476,13.979-18.216c2.073-7.741,1.009-15.825-2.998-22.765c-4.006-6.939-10.476-11.903-18.216-13.978
			c-7.737-2.074-15.825-1.011-22.765,2.997l-32.225,18.605C375.166,99.476,333.13,74.728,286,67.276V30c0-16.542-13.458-30-30-30
			s-30,13.458-30,30v37.276c-47.525,7.526-89.271,32.635-118.353,68.432L75.278,117.02c-6.94-4.007-15.025-5.072-22.765-2.997
			c-7.74,2.074-14.21,7.038-18.216,13.977c-4.007,6.94-5.071,15.024-2.998,22.766c2.074,7.74,7.039,14.21,13.979,18.216
			l32.293,18.645C69.404,208.866,64.914,231.917,64.914,256s4.49,47.134,12.658,68.375L45.278,343.02
			c-6.939,4.006-11.904,10.476-13.979,18.216c-2.073,7.741-1.009,15.825,2.998,22.765c4.006,6.939,10.476,11.903,18.216,13.978
			c2.584,0.692,5.207,1.035,7.813,1.035c5.198,0,10.329-1.363,14.951-4.032l32.369-18.688
			c29.082,35.797,70.827,60.906,118.353,68.432V482c0,16.542,13.458,30,30,30s30-13.458,30-30v-37.234
			c32.236-5.031,62.392-18.197,88.468-38.826c11.074-8.76,21.102-18.723,29.93-29.621l32.324,18.662
			c4.623,2.669,9.753,4.032,14.951,4.032c2.605,0,5.229-0.343,7.813-1.035c7.74-2.074,14.21-7.038,18.216-13.977
			c4.007-6.94,5.071-15.024,2.998-22.766C478.626,353.495,473.661,347.025,466.722,343.02z M446.722,134.34
			c2.313-1.335,5.007-1.69,7.588-0.999c2.58,0.691,4.736,2.346,6.072,4.66c1.336,2.313,1.69,5.007,0.999,7.587
			c-0.69,2.58-2.346,4.736-4.659,6.072l-30.401,17.552c-3.041-5.975-6.379-11.755-9.996-17.323L446.722,134.34z M246,30
			c0-5.514,4.486-10,10-10s10,4.486,10,10v35.184c-3.316-0.172-6.648-0.27-10-0.27c-3.354,0-6.688,0.089-10,0.261V30z
			 M55.278,151.66c-2.313-1.336-3.969-3.492-4.659-6.072c-0.691-2.58-0.337-5.274,0.999-7.588s3.492-3.968,6.072-4.659
			c2.581-0.691,5.275-0.336,7.588,0.999l30.52,17.621c-3.633,5.575-6.99,11.344-10.037,17.299L55.278,151.66z M65.278,377.66
			c-2.313,1.335-5.007,1.688-7.588,0.999c-2.58-0.691-4.736-2.346-6.072-4.66c-1.336-2.313-1.69-5.007-0.999-7.587
			c0.69-2.58,2.346-4.736,4.659-6.072l30.483-17.6c3.046,5.955,6.404,11.725,10.037,17.299L65.278,377.66z M266,482
			c0,5.514-4.486,10-10,10s-10-4.486-10-10v-35.175c3.312,0.172,6.646,0.261,10,0.261c3.35,0,6.682-0.095,10-0.263V482z
			 M460.382,374c-1.336,2.313-3.492,3.968-6.072,4.659c-2.581,0.689-5.275,0.336-7.588-0.999l-30.493-17.605
			c3.638-5.593,6.988-11.369,10.025-17.306l30.468,17.591c2.313,1.336,3.969,3.492,4.659,6.072
			C462.072,368.992,461.718,371.687,460.382,374z"/>
		<path id="XMLID_1776_" d="M430.02,248.93c-1.87,1.86-2.93,4.44-2.93,7.07c0,2.64,1.06,5.21,2.93,7.069
			c1.86,1.86,4.431,2.931,7.07,2.931c2.63,0,5.2-1.07,7.07-2.931c1.859-1.859,2.93-4.439,2.93-7.069s-1.07-5.21-2.93-7.07
			c-1.86-1.86-4.44-2.93-7.07-2.93C434.45,246,431.87,247.069,430.02,248.93z"/>
	</g>
</g>
<g>
</g>
<g>
</g>
<g>
</g>
<g>
</g>
<g>
</g>
<g>
</g>
<g>
</g>
<g>
</g>
<g>
</g>
<g>
</g>
<g>
</g>
<g>
</g>
<g>
</g>
<g>
</g>
<g>
</g>
</svg>
