<?xml version="1.0" encoding="iso-8859-1"?>
<!-- Generator: Adobe Illustrator 22.0.0, SVG Export Plug-In . SVG Version: 6.00 Build 0)  -->
<svg version="1.1" id="Capa_1" xmlns="http://www.w3.org/2000/svg" xmlns:xlink="http://www.w3.org/1999/xlink" x="0px" y="0px"
	 viewBox="0 0 512 512" style="enable-background:new 0 0 512 512;" xml:space="preserve">
<g id="XMLID_1_">
	<polygon id="XMLID_176_" style="fill:#FFD89E;" points="50,44.333 84.333,10 118.666,44.333 153,10 187.333,44.333 221.666,10 
		256,44.333 290.333,10 324.666,44.333 359,10 393.333,44.333 427.666,10 462,44.333 462,502 50,502 	"/>
	<circle id="XMLID_1950_" style="fill:#FFFFFF;" cx="156" cy="114.5" r="20"/>
	<circle id="XMLID_1949_" style="fill:#FFFFFF;" cx="356" cy="114.5" r="20"/>
	<path id="XMLID_1888_" style="fill:#F5737F;" d="M313.34,489.894l-77.612-77.612c-6.686-6.686-6.686-17.526,0-24.212
		l119.427-119.427c3.214-3.214,7.574-5.018,12.12-5.014l77.549,0.062c9.445,0.008,17.099,7.662,17.107,17.107l0.062,77.549
		c0.004,4.545-1.8,8.906-5.014,12.12L337.552,489.894C330.866,496.579,320.026,496.579,313.34,489.894z"/>
	<circle id="XMLID_1887_" style="fill:#FFFFFF;" cx="406.975" cy="318.648" r="19.981"/>
	<g id="XMLID_1797_">
		<path id="XMLID_1995_" d="M469.071,37.261L434.738,2.928c-3.905-3.902-10.235-3.904-14.143,0l-27.263,27.263L366.071,2.928
			c-3.906-3.904-10.236-3.904-14.143,0l-27.262,27.263L297.404,2.928c-3.906-3.904-10.236-3.904-14.143,0L256,30.19L228.738,2.928
			c-3.904-3.902-10.234-3.904-14.143,0l-27.263,27.263L160.071,2.928c-3.906-3.904-10.236-3.904-14.143,0l-27.262,27.263
			L91.404,2.928c-3.906-3.904-10.236-3.904-14.143,0L42.928,37.261C41.053,39.137,40,41.68,40,44.333v166.794
			c0,5.522,4.478,10,10,10s10-4.478,10-10V48.475l24.333-24.334l27.263,27.263c3.906,3.904,10.236,3.904,14.143,0L153,24.142
			l27.262,27.262c3.906,3.904,10.236,3.905,14.143,0l27.263-27.263l27.262,27.263c3.906,3.904,10.236,3.904,14.143,0l27.262-27.263
			l27.263,27.263c3.906,3.904,10.236,3.904,14.143,0L359,24.142l27.262,27.262c3.905,3.904,10.235,3.905,14.143,0l27.263-27.263
			L452,48.475v206.191c-2.285-0.629-4.686-0.973-7.167-0.976l-27.857-0.022v-4.785c0-41.006-15.466-80.447-42.877-110.477
			C381.323,132.923,386,124.248,386,114.5c0-16.542-13.458-30-30-30s-30,13.458-30,30c0,13.036,8.361,24.152,20,28.28V156
			c0,49.626-40.374,90-90,90s-90-40.374-90-90v-13.22c11.639-4.128,20-15.243,20-28.28c0-16.542-13.458-30-30-30s-30,13.458-30,30
			c0,13.036,8.361,24.152,20,28.28V156c0,60.654,49.346,110,110,110c59.427,0,107.992-47.371,109.932-106.335
			c19.931,25.218,31.043,56.655,31.043,89.219v4.769l-29.69-0.024c-0.008,0-0.016,0-0.024,0c-7.243,0-14.053,2.82-19.176,7.943
			L228.658,380.999c-5.122,5.123-7.943,11.934-7.943,19.178s2.821,14.055,7.943,19.177L301.303,492H60V301.126
			c0-5.522-4.478-10-10-10s-10,4.478-10,10V502c0,5.522,4.478,10,10,10h412c5.522,0,10-4.478,10-10V44.333
			C472,41.68,470.946,39.137,469.071,37.261z M156,104.5c5.514,0,10,4.486,10,10c0,2.722-1.097,5.191-2.868,6.997
			c-1.814-1.848-4.338-2.997-7.132-2.997s-5.318,1.149-7.132,2.997c-1.771-1.805-2.868-4.274-2.868-6.997
			C146,108.986,150.486,104.5,156,104.5z M356,104.5c5.514,0,10,4.486,10,10c0,2.722-1.097,5.191-2.868,6.997
			c-1.814-1.848-4.338-2.997-7.132-2.997s-5.318,1.149-7.132,2.997c-1.771-1.805-2.868-4.274-2.868-6.997
			C346,108.986,350.486,104.5,356,104.5z M240.715,400.176c0-1.902,0.74-3.69,2.086-5.035l119.427-119.427
			c1.345-1.346,3.133-2.086,5.034-2.086h0.007l29.707,0.024v16.735c-11.629,4.127-19.981,15.234-19.981,28.26
			c0,16.532,13.449,29.981,29.981,29.981s29.981-13.449,29.981-29.981c0-13.026-8.353-24.133-19.981-28.26v-16.719l27.842,0.022
			c3.92,0.003,7.111,3.194,7.114,7.114l0.063,77.55c0.002,1.904-0.738,3.693-2.086,5.04L330.482,482.823
			c-2.776,2.775-7.294,2.775-10.07,0L242.8,405.21C241.455,403.866,240.715,402.078,240.715,400.176z M406.975,308.667
			c5.504,0,9.981,4.478,9.981,9.981s-4.478,9.981-9.981,9.981s-9.981-4.478-9.981-9.981S401.471,308.667,406.975,308.667z
			 M349.59,492L452,389.588V492H349.59z"/>
		<path id="XMLID_2001_" d="M332.526,400.417v11.017c0,5.522,4.478,10,10,10s10-4.478,10-10v-11.017l9.541,5.509
			c1.575,0.909,3.294,1.342,4.99,1.342c3.456,0,6.818-1.794,8.67-5.002c2.762-4.783,1.123-10.898-3.66-13.66l-9.541-5.508
			l9.541-5.508c4.783-2.762,6.422-8.877,3.66-13.66c-2.762-4.781-8.876-6.422-13.66-3.66l-9.541,5.509v-11.016
			c0-5.522-4.478-10-10-10s-10,4.478-10,10v11.016l-9.54-5.508c-4.785-2.762-10.9-1.122-13.66,3.66
			c-2.762,4.783-1.123,10.898,3.66,13.66l9.541,5.508l-9.541,5.508c-4.783,2.762-6.422,8.877-3.66,13.66
			c1.853,3.208,5.213,5.002,8.67,5.002c1.696,0,3.416-0.433,4.99-1.342L332.526,400.417z"/>
		<path id="XMLID_2002_" d="M50,266.129c2.63,0,5.21-1.07,7.069-2.93c1.86-1.86,2.931-4.44,2.931-7.07c0-2.64-1.07-5.21-2.931-7.07
			c-1.859-1.87-4.439-2.93-7.069-2.93s-5.21,1.06-7.07,2.93c-1.86,1.86-2.93,4.431-2.93,7.07c0,2.63,1.069,5.21,2.93,7.07
			C44.79,265.059,47.37,266.129,50,266.129z"/>
	</g>
</g>
<g>
</g>
<g>
</g>
<g>
</g>
<g>
</g>
<g>
</g>
<g>
</g>
<g>
</g>
<g>
</g>
<g>
</g>
<g>
</g>
<g>
</g>
<g>
</g>
<g>
</g>
<g>
</g>
<g>
</g>
</svg>
