<?xml version="1.0" encoding="iso-8859-1"?>
<!-- Generator: Adobe Illustrator 22.0.0, SVG Export Plug-In . SVG Version: 6.00 Build 0)  -->
<svg version="1.1" id="Capa_1" xmlns="http://www.w3.org/2000/svg" xmlns:xlink="http://www.w3.org/1999/xlink" x="0px" y="0px"
	 viewBox="0 0 511.876 511.876" style="enable-background:new 0 0 511.876 511.876;" xml:space="preserve">
<g id="XMLID_858_">
	<path id="XMLID_1561_" style="fill:#FFCB7C;" d="M221.361,85.431l-17.658,6.279c-6.092,2.166-12.46-2.46-12.283-8.924l0.515-18.735
		l-11.429-14.854c-3.943-5.125-1.511-12.611,4.692-14.439l17.977-5.299L213.77,14c3.655-5.334,11.527-5.334,15.182,0l10.595,15.459
		l17.977,5.299c6.202,1.828,8.635,9.314,4.692,14.439l-11.429,14.854l0.515,18.735c0.178,6.464-6.19,11.09-12.283,8.924
		L221.361,85.431z"/>
	<path id="XMLID_1560_" style="fill:#CBE558;" d="M45.549,486.913l166.036-378.545c3.735-8.516,15.816-8.516,19.552,0
		l166.036,378.545c3.094,7.054-2.073,14.963-9.776,14.963H55.325C47.623,501.876,42.456,493.967,45.549,486.913z"/>
	<path id="XMLID_1732_" style="fill:#91DEF5;" d="M459.067,433.876h-51.667c-4.51,0-8.167,3.656-8.167,8.167v59.833h59.833
		c4.51,0,8.167-3.656,8.167-8.167v-51.667C467.234,437.532,463.578,433.876,459.067,433.876z"/>
	<path id="XMLID_1735_" style="fill:#FFCB7C;" d="M287.608,445.876H230.86c-4.212,0-7.626,3.414-7.626,7.626v40.748
		c0,4.212,3.414,7.626,7.626,7.626h64.374v-48.374C295.234,449.29,291.82,445.876,287.608,445.876z"/>
	<g id="XMLID_870_">
		<circle id="XMLID_875_" style="fill:#FFCB7C;" cx="244.151" cy="189.792" r="20"/>
		<circle id="XMLID_874_" style="fill:#91DEF5;" cx="158.076" cy="433.876" r="20"/>
		<circle id="XMLID_873_" style="fill:#F5737F;" cx="162.851" cy="271.315" r="20"/>
		<circle id="XMLID_872_" style="fill:#F5737F;" cx="254.234" cy="326.376" r="20"/>
	</g>
	<g id="XMLID_1644_">
		<path id="XMLID_1661_" style="fill:#F5737F;" d="M399.234,501.876h-104v-85.75c0-5.661,4.589-10.25,10.25-10.25h83.5
			c5.661,0,10.25,4.589,10.25,10.25V501.876z"/>
		<path id="XMLID_1660_" style="fill:#FFFFFF;" d="M368.401,363.542L368.401,363.542c-11.69,0-21.167,9.477-21.167,21.167v21.167
			h21.167c11.69,0,21.167-9.477,21.167-21.167v0C389.567,373.019,380.091,363.542,368.401,363.542z"/>
		<path id="XMLID_1659_" style="fill:#FFFFFF;" d="M326.067,363.542L326.067,363.542c11.69,0,21.167,9.477,21.167,21.167v21.167
			h-21.167c-11.69,0-21.167-9.477-21.167-21.167v0C304.901,373.019,314.377,363.542,326.067,363.542z"/>
	</g>
	<g id="XMLID_212_">
		<path id="XMLID_1234_" d="M459.067,423.876h-49.833v-7.75c0-8.386-5.124-15.596-12.405-18.667
			c1.754-3.895,2.738-8.208,2.738-12.75c0-17.185-13.981-31.167-31.166-31.167c-6.132,0-11.85,1.787-16.677,4.857l-111.43-254.047
			c-0.361-0.823-0.775-1.604-1.223-2.358c1.007,0.161,2.021,0.249,3.032,0.249c4.001,0,7.96-1.251,11.287-3.668
			c5.126-3.724,8.082-9.729,7.908-16.063l-0.418-15.18l9.26-12.035c3.864-5.022,5.003-11.618,3.045-17.644
			s-6.756-10.694-12.834-12.485l-14.565-4.294l-8.585-12.526C233.619,3.121,227.697,0,221.361,0s-12.258,3.121-15.84,8.347
			l-8.585,12.526l-14.565,4.294c-6.078,1.792-10.876,6.459-12.834,12.485s-0.819,12.622,3.044,17.644l9.261,12.036l-0.418,15.18
			c-0.174,6.334,2.782,12.339,7.908,16.063c4.167,3.027,9.322,4.226,14.314,3.428c-0.446,0.751-0.859,1.53-1.219,2.349
			L85.448,371.053c-2.218,5.058,0.084,10.956,5.142,13.174c5.056,2.219,10.956-0.082,13.175-5.141l17.585-40.093
			c19.097,25.964,45.419,46.136,75.653,57.678c19.364,7.392,39.886,11.105,60.39,11.105c10.484,0,20.962-0.976,31.279-2.922
			c-2.169,3.224-3.438,7.102-3.438,11.272v19.75H230.86c-9.719,0-17.626,7.907-17.626,17.626v38.374H55.325
			c-0.128,0-0.364,0-0.564-0.306c-0.2-0.306-0.104-0.523-0.053-0.641l12.9-29.412c2.218-5.058-0.084-10.956-5.142-13.174
			c-5.053-2.217-10.955,0.083-13.175,5.141l-12.9,29.412c-2.813,6.416-2.206,13.748,1.626,19.613
			c3.832,5.865,10.302,9.366,17.308,9.366h403.742c10.018,0,18.167-8.15,18.167-18.167v-51.667
			C477.234,432.025,469.085,423.876,459.067,423.876z M337.234,384.709v11.167h-11.167c-6.157,0-11.166-5.009-11.166-11.167
			c0-6.157,5.009-11.167,11.166-11.167S337.234,378.552,337.234,384.709z M305.234,416.126c0-0.138,0.112-0.25,0.25-0.25h20.583
			h11.167v28h-32V416.126z M357.234,415.876h11.167h20.583c0.138,0,0.25,0.112,0.25,0.25v25.917v1.833h-32V415.876z
			 M389.234,463.876v28h-32v-28H389.234z M368.401,373.542c6.157,0,11.166,5.009,11.166,11.167c0,6.158-5.009,11.167-11.166,11.167
			h-11.167v-11.167C357.234,378.552,362.244,373.542,368.401,373.542z M254.151,189.792c0,5.514-4.486,10-10,10s-10-4.486-10-10
			s4.486-10,10-10S254.151,184.278,254.151,189.792z M201.448,81.899l0.483-17.572c0.063-2.299-0.668-4.55-2.07-6.373l-10.72-13.932
			l16.86-4.971c2.207-0.65,4.121-2.041,5.422-3.938l9.938-14.5l9.938,14.5c1.301,1.897,3.215,3.288,5.422,3.938l16.86,4.971
			l-10.72,13.932c-1.402,1.823-2.134,4.074-2.07,6.373l0.483,17.572l-16.563-5.89c-2.168-0.771-4.533-0.771-6.701,0L201.448,81.899z
			 M220.744,112.384c0.087-0.198,0.177-0.403,0.617-0.403s0.53,0.205,0.617,0.404l20.809,47.442
			c-15.911,0.716-28.636,13.881-28.636,29.965c0,12.335,7.486,22.952,18.151,27.556c-15.999,12.875-34.618,22.406-54.733,27.841
			c-3.99-2.256-8.541-3.628-13.391-3.84L220.744,112.384z M162.851,261.315c5.514,0,10,4.486,10,10s-4.486,10-10,10s-10-4.486-10-10
			S157.338,261.315,162.851,261.315z M130.845,317.344l10.864-24.768c5.427,5.397,12.902,8.739,21.143,8.739
			c16.542,0,30-13.458,30-30c0-3.275-0.535-6.426-1.51-9.379c28.888-9.461,54.677-26.499,74.622-49.271l61.812,140.925
			c-0.566-0.031-1.135-0.049-1.708-0.049c-16.594,0-30.198,13.039-31.114,29.409C232.42,399.365,165.028,372.557,130.845,317.344z
			 M233.234,491.876v-36h52v36h-33.25H233.234z M305.234,463.876h32v28h-32V463.876z M457.234,491.876h-48v-48h48V491.876z"/>
		<path id="XMLID_1643_" d="M188.076,433.876c0-16.542-13.458-30-30-30s-30,13.458-30,30s13.458,30,30,30
			S188.076,450.418,188.076,433.876z M148.076,433.876c0-5.514,4.486-10,10-10s10,4.486,10,10s-4.486,10-10,10
			S148.076,439.39,148.076,433.876z"/>
		<path id="XMLID_2002_" d="M254.234,296.376c-16.542,0-30,13.458-30,30s13.458,30,30,30s30-13.458,30-30
			S270.776,296.376,254.234,296.376z M254.234,336.376c-5.514,0-10-4.486-10-10s4.486-10,10-10s10,4.486,10,10
			S259.748,336.376,254.234,336.376z"/>
		<path id="XMLID_2084_" d="M76.524,426.288c2.63,0,5.21-1.07,7.069-2.93c1.87-1.86,2.931-4.44,2.931-7.07
			c0-2.63-1.061-5.21-2.931-7.07c-1.859-1.86-4.43-2.93-7.069-2.93c-2.63,0-5.21,1.07-7.07,2.93s-2.93,4.44-2.93,7.07
			c0,2.63,1.069,5.21,2.93,7.07S73.894,426.288,76.524,426.288z"/>
	</g>
</g>
<g>
</g>
<g>
</g>
<g>
</g>
<g>
</g>
<g>
</g>
<g>
</g>
<g>
</g>
<g>
</g>
<g>
</g>
<g>
</g>
<g>
</g>
<g>
</g>
<g>
</g>
<g>
</g>
<g>
</g>
</svg>
