<?xml version="1.0" encoding="iso-8859-1"?>
<!-- Generator: Adobe Illustrator 22.0.0, SVG Export Plug-In . SVG Version: 6.00 Build 0)  -->
<svg version="1.1" id="Capa_1" xmlns="http://www.w3.org/2000/svg" xmlns:xlink="http://www.w3.org/1999/xlink" x="0px" y="0px"
	 viewBox="0 0 511.833 511.833" style="enable-background:new 0 0 511.833 511.833;" xml:space="preserve">
<g id="XMLID_1494_">
	<path id="XMLID_1425_" style="fill:#FFD89E;" d="M345.833,163.063c-86.156,0-156,69.844-156,156s69.844,156,156,156
		s156-69.844,156-156S431.99,163.063,345.833,163.063z M345.833,435.063c-64.065,0-116-51.935-116-116s51.935-116,116-116
		s116,51.935,116,116S409.898,435.063,345.833,435.063z"/>
	<path id="XMLID_1428_" style="fill:#FFCB7C;" d="M166,163.063c-86.156,0-156,69.844-156,156s69.844,156,156,156s156-69.844,156-156
		S252.156,163.063,166,163.063z M166,435.063c-64.065,0-116-51.935-116-116s51.935-116,116-116s116,51.935,116,116
		S230.064,435.063,166,435.063z"/>
	<g id="XMLID_1457_">
		<polygon id="XMLID_1455_" style="fill:#91DEF5;" points="87.693,84.893 166.03,163.063 244.306,84.893 		"/>
		<polygon id="XMLID_1454_" style="fill:#DFF6FC;" points="113.912,36.77 87.697,84.893 244.306,84.893 218.191,36.77 		"/>
	</g>
	<g id="XMLID_166_">
		<path id="XMLID_261_" d="M489.591,236.008c-2.767-4.779-8.883-6.411-13.665-3.644c-4.779,2.767-6.41,8.885-3.644,13.665
			c12.79,22.092,19.551,47.347,19.551,73.035c0,80.505-65.495,146-146,146c-25.766,0-50.616-6.67-72.649-19.353
			c5.337-4.524,10.389-9.375,15.117-14.528c17.722,9.1,37.446,13.881,57.532,13.881c69.477,0,126-56.523,126-126
			s-56.523-126-126-126c-20.087,0-39.81,4.78-57.533,13.88c-4.728-5.153-9.779-10.004-15.116-14.528
			c22.032-12.682,46.883-19.352,72.649-19.352c23.189,0,45.357,5.274,65.888,15.675c4.927,2.496,10.943,0.525,13.44-4.401
			c2.495-4.927,0.525-10.944-4.401-13.44c-23.358-11.834-48.567-17.834-74.927-17.834c-32.199,0-63.161,9.137-89.979,26.482
			c-19.9-12.861-42.713-21.575-67.212-24.932l62.731-62.645c2.862-2.859,3.721-7.161,2.174-10.899
			c-0.124-0.3-0.267-0.589-0.417-0.872c-0.013-0.025-0.019-0.047-0.034-0.074L226.98,32c-1.749-3.223-5.122-5.23-8.789-5.23H113.912
			c-3.661,0-7.03,2.001-8.781,5.216L78.915,80.109c-0.006,0.012-0.009,0.022-0.015,0.033c-0.162,0.301-0.316,0.608-0.448,0.929
			c-1.546,3.739-0.687,8.042,2.178,10.9l62.77,62.637C62.521,165.668,0,235.197,0,319.063c0,91.533,74.468,166,166,166
			c33.085,0,63.938-9.734,89.854-26.482c26.82,17.345,57.781,26.482,89.979,26.482c91.532,0,166-74.467,166-166
			C511.833,289.862,504.142,261.142,489.591,236.008z M345.833,213.063c58.448,0,106,47.551,106,106s-47.552,106-106,106
			c-15.484,0-30.704-3.376-44.606-9.824C320.595,388.087,332,354.883,332,319.063c0-35.819-11.405-69.023-30.772-96.176
			C315.129,216.44,330.348,213.063,345.833,213.063z M119.852,46.77h92.389l15.262,28.124H104.531L119.852,46.77z M220.142,94.893
			l-54.115,54.041l-54.155-54.041H220.142z M20,319.063c0-80.505,65.495-146,146-146s146,65.495,146,146s-65.495,146-146,146
			S20,399.568,20,319.063z"/>
		<path id="XMLID_292_" d="M264.206,397.906C281.583,376.305,292,348.88,292,319.063c0-29.788-10.397-57.189-27.745-78.781
			c-0.344-0.522-0.745-1.015-1.195-1.475c-8.973-10.832-19.719-20.145-31.791-27.486c-0.339-0.231-0.689-0.435-1.047-0.62
			c-18.819-11.196-40.781-17.638-64.223-17.638c-69.477,0-126,56.523-126,126s56.523,126,126,126
			c39.068,0,74.039-17.873,97.168-45.871C263.552,398.787,263.902,398.359,264.206,397.906z M255.898,375.162
			c-10.424-16.733-16.065-36.225-16.065-56.099c0-19.875,5.64-39.367,16.064-56.099C266.094,279.246,272,298.477,272,319.063
			C272,339.65,266.094,358.881,255.898,375.162z M60,319.063c0-58.449,47.552-106,106-106c15.899,0,30.987,3.525,44.536,9.824
			c-19.869,27.96-30.703,61.666-30.703,96.176c0,34.502,10.835,68.218,30.702,96.176c-13.548,6.299-28.637,9.824-44.535,9.824
			C107.552,425.063,60,377.512,60,319.063z M227.865,405.084c-18.129-24.862-28.032-55.081-28.032-86.02
			c0-30.947,9.901-61.157,28.031-86.022c5.45,3.93,10.513,8.363,15.12,13.233c-14.98,21.176-23.151,46.707-23.151,72.789
			c0,26.081,8.171,51.613,23.15,72.789C238.377,396.722,233.314,401.154,227.865,405.084z"/>
		<path id="XMLID_295_" d="M453.022,215.727c2.63,0,5.21-1.07,7.07-2.93c1.87-1.86,2.93-4.44,2.93-7.07c0-2.63-1.06-5.21-2.93-7.07
			c-1.86-1.86-4.43-2.93-7.07-2.93c-2.63,0-5.21,1.07-7.069,2.93c-1.86,1.86-2.931,4.44-2.931,7.07c0,2.63,1.07,5.21,2.931,7.07
			C447.813,214.656,450.393,215.727,453.022,215.727z"/>
	</g>
</g>
<g>
</g>
<g>
</g>
<g>
</g>
<g>
</g>
<g>
</g>
<g>
</g>
<g>
</g>
<g>
</g>
<g>
</g>
<g>
</g>
<g>
</g>
<g>
</g>
<g>
</g>
<g>
</g>
<g>
</g>
</svg>
