<?xml version="1.0" encoding="iso-8859-1"?>
<!-- Generator: Adobe Illustrator 22.0.0, SVG Export Plug-In . SVG Version: 6.00 Build 0)  -->
<svg version="1.1" id="Capa_1" xmlns="http://www.w3.org/2000/svg" xmlns:xlink="http://www.w3.org/1999/xlink" x="0px" y="0px"
	 viewBox="0 0 512.001 512.001" style="enable-background:new 0 0 512.001 512.001;" xml:space="preserve">
<g id="XMLID_189_">
	<g id="XMLID_2582_">
		<path id="XMLID_1111_" style="fill:#FFCB7C;" d="M288.251,501.986h-64.5c-4.28,0-7.75-3.47-7.75-7.75v-48.5
			c0-4.28,3.47-7.75,7.75-7.75h64.5c4.28,0,7.75,3.47,7.75,7.75v48.5C296.001,498.516,292.531,501.986,288.251,501.986z"/>
		<g id="XMLID_1044_">
			<path id="XMLID_1071_" style="fill:#91DEF5;" d="M237.654,10.015c-87,0-157.527,70.527-157.527,157.527v0
				c0,37.506,13.382,73.781,37.739,102.301l109.461,128.172h28.673v-388H237.654z"/>
			<path id="XMLID_1075_" style="fill:#91DEF5;" d="M394.389,269.842c24.357-28.52,37.739-64.795,37.739-102.301v0
				c0-87-70.527-157.527-157.527-157.527h-18.473h-0.127v388h28.927L394.389,269.842z"/>
		</g>
		<g id="XMLID_1054_">
			<path id="XMLID_1070_" style="fill:#F6838D;" d="M168.127,98.015L168.127,98.015c0,84.22,17.051,167.568,50.124,245.022
				l23.476,54.978h14.273V10.017C207.458,10.085,168.127,49.456,168.127,98.015z"/>
			<path id="XMLID_1073_" style="fill:#FFCB7C;" d="M294.003,343.037c33.073-77.454,50.124-160.802,50.124-245.022v0
				c0-48.601-39.399-88-88-88l0,0l0,0c-0.042,0-0.084,0.002-0.127,0.002v387.998h14.527L294.003,343.037z"/>
		</g>
		<path id="XMLID_1316_" style="fill:#DFF6FC;" d="M256.001,183.986c-4.796-17.502-20.774-30.381-39.799-30.381
			c-0.791,0-1.563,0.074-2.343,0.118c0-0.04,0.003-0.079,0.003-0.118c0-29.336-23.782-53.118-53.118-53.118
			c-19.577,0-36.671,10.597-45.883,26.363c-0.711,1.217-2.104,1.839-3.494,1.606c-0.013-0.002-0.026-0.004-0.039-0.007
			c-0.992-0.165-1.837-0.789-2.345-1.657c-9.591-16.37-27.695-27.148-48.235-26.254c-27.553,1.199-49.828,23.751-50.718,51.315
			c-0.386,11.97,3.202,23.079,9.528,32.133H256.001z"/>
	</g>
	<path id="XMLID_475_" style="fill:#B0E7F8;" d="M502.001,397.774c0-41.058-33.284-74.342-74.342-74.342
		c-26.584,0-49.894,13.963-63.036,34.946c-7.275-4.628-15.902-7.32-25.164-7.32c-25.934,0-46.958,21.024-46.958,46.958h209.494
		C501.995,397.934,502.001,397.855,502.001,397.774z"/>
	<g id="XMLID_219_">
		<path id="XMLID_330_" d="M425.06,160.47c-1.87,1.86-2.93,4.44-2.93,7.07c0,2.63,1.06,5.21,2.93,7.07
			c1.86,1.86,4.431,2.93,7.07,2.93c2.63,0,5.21-1.07,7.07-2.93c1.859-1.86,2.93-4.44,2.93-7.07c0-2.63-1.07-5.21-2.93-7.07
			c-1.86-1.86-4.44-2.93-7.07-2.93C429.491,157.54,426.92,158.61,425.06,160.47z"/>
		<path id="XMLID_333_" d="M427.658,313.432c-26.12,0-50.244,11.829-66.175,32.055c-4.829-2.028-9.92-3.362-15.133-3.996
			l55.644-65.155c15.393-18.024,26.596-38.691,33.298-61.429c1.562-5.298-1.467-10.858-6.765-12.419
			c-5.298-1.564-10.857,1.468-12.419,6.764c-5.902,20.023-15.769,38.224-29.323,54.096l-70.647,82.723
			c-6.835,3.081-12.955,7.469-18.042,12.849l5.105-11.955c33.793-79.14,50.928-162.898,50.928-248.95
			c0-26.703-10.74-50.941-28.122-68.635c42.601,15.994,76.85,51.273,90.14,96.432c1.281,4.356,5.267,7.179,9.589,7.179
			c0.935,0,1.885-0.132,2.827-0.409c5.298-1.559,8.329-7.118,6.77-12.416c-10.003-33.992-31.134-64.575-59.498-86.117
			C346.515,11.783,311.509,0.014,274.601,0.014h-36.947c-34.07,0-66.863,10.169-94.833,29.408
			c-24.307,16.719-43.565,39.261-56.213,65.614c-8.199-3.284-17.13-4.886-26.296-4.489C27.568,91.973,1.09,118.76,0.034,151.531
			c-0.442,13.741,3.474,26.944,11.326,38.183c1.871,2.677,4.931,4.272,8.197,4.272h52.675c4.852,30.453,17.91,58.791,38.029,82.35
			l107.066,125.367v27.504c-6.618,2.581-11.327,9.008-11.327,16.529v48.5c0,9.788,7.963,17.75,17.75,17.75h64.5
			c9.787,0,17.75-7.962,17.75-17.75v-48.5c0-7.521-4.709-13.948-11.327-16.529v-21.192h207.321c5.462,0,9.9-4.378,9.998-9.816
			c0.005-0.142,0.008-0.283,0.008-0.425C512.001,351.268,474.165,313.432,427.658,313.432z M237.328,427.986v-19.972h37.346v19.972
			H237.328z M246.127,20.678v132.624c-6.704-4.831-14.568-8.067-22.984-9.223c-3.716-24.45-21.516-44.329-44.836-51.096
			C180.699,55.649,209.462,25.394,246.127,20.678z M246.127,382.856l-18.68-43.745c-19.84-46.465-33.87-95.244-41.765-145.125
			h60.445V382.856z M284.807,339.11l-18.68,43.745V20.678c38.301,4.927,68,37.718,68,77.338
			C334.127,181.351,317.534,262.468,284.807,339.11z M186.562,29.06c-15.925,16.065-26.344,37.594-28.152,61.493
			c-18.107,0.679-35.066,9.188-46.464,23.043c-2.46-3.004-5.181-5.742-8.105-8.212C120.563,69.31,150.49,42.282,186.562,29.06z
			 M20.024,152.176c0.722-22.38,18.8-40.673,41.157-41.646c16.044-0.696,31.059,7.47,39.174,21.321
			c2.026,3.456,5.425,5.812,9.323,6.462c0.021,0.003,0.041,0.007,0.061,0.01c5.461,0.901,10.979-1.679,13.754-6.428
			c7.716-13.205,21.989-21.408,37.25-21.408c23.737,0,43.057,19.281,43.118,43.005c-0.002,0.082-0.003,0.165-0.003,0.231
			c0,2.75,1.132,5.378,3.131,7.267c1.998,1.889,4.667,2.87,7.432,2.717l0.791-0.051c0.328-0.022,0.655-0.052,0.989-0.052
			c9.06,0,17.437,3.942,23.238,10.381H25.121C21.528,167.324,19.776,159.875,20.024,152.176z M92.532,193.986h72.923
			c8.056,52.593,22.699,104.03,43.6,152.979l12.174,28.511L125.47,263.348C108.45,243.418,97.181,219.603,92.532,193.986z
			 M286.001,491.986h-60v-44h60V491.986z M303.875,388.015c4.372-15.536,18.669-26.958,35.584-26.958
			c7.03,0,13.876,1.991,19.797,5.757c2.248,1.43,4.975,1.904,7.572,1.316c2.599-0.587,4.855-2.188,6.27-4.446
			c11.865-18.944,32.262-30.253,54.561-30.253c32.161,0,58.888,23.72,63.604,54.583H303.875z"/>
	</g>
</g>
<g>
</g>
<g>
</g>
<g>
</g>
<g>
</g>
<g>
</g>
<g>
</g>
<g>
</g>
<g>
</g>
<g>
</g>
<g>
</g>
<g>
</g>
<g>
</g>
<g>
</g>
<g>
</g>
<g>
</g>
</svg>
