<?xml version="1.0" encoding="iso-8859-1"?>
<!-- Generator: Adobe Illustrator 22.0.0, SVG Export Plug-In . SVG Version: 6.00 Build 0)  -->
<svg version="1.1" id="Capa_1" xmlns="http://www.w3.org/2000/svg" xmlns:xlink="http://www.w3.org/1999/xlink" x="0px" y="0px"
	 viewBox="0 0 512.083 512.083" style="enable-background:new 0 0 512.083 512.083;" xml:space="preserve">
<g id="XMLID_894_">
	<g id="XMLID_870_">
		<path id="XMLID_1816_" style="fill:#D8EC84;" d="M489.414,320.305c27.921-76.711,9.928-206.23-61.02-232.053
			S260.41,150.08,232.489,226.792s6.96,159.832,77.908,185.655S461.494,397.016,489.414,320.305z"/>
	</g>
	<path id="XMLID_793_" style="fill:#DFF6FC;" d="M371.732,332.863c38.126,7.52,78.898,3.441,116.815-14.24l12.6-95.591
		c-35.583,16.592-74.103,19.191-109.355,10.053"/>
	<path id="XMLID_1050_" style="fill:#F6838D;" d="M22.5,322.601c-27.921-76.711-9.928-206.23,61.02-232.053
		s167.984,61.828,195.905,138.539s-6.96,159.832-77.908,185.655S50.421,399.312,22.5,322.601z"/>
	<path id="XMLID_1651_" style="fill:#B0E7F8;" d="M392.664,254.229c0-81.634-61.206-197.188-136.707-197.188
		S119.25,172.595,119.25,254.229s61.206,147.812,136.707,147.812S392.664,335.864,392.664,254.229z"/>
	<path id="XMLID_1109_" style="fill:#FF9D6C;" d="M383.957,202.361L383.957,202.361c-13.984-13.984-36.657-13.984-50.641,0l0,0
		c-13.984,13.984-36.657,13.984-50.641,0l0,0c-13.984-13.984-36.657-13.984-50.641,0l0,0c-13.984,13.984-36.657,13.984-50.641,0l0,0
		c-13.984-13.984-36.657-13.984-50.641,0l-2.795,94.973c14.293-14.293,37.466-14.293,51.759,0l0,0
		c14.293,14.293,37.466,14.293,51.759,0l0,0c14.293-14.293,37.466-14.293,51.759,0l0,0c14.293,14.293,37.466,14.293,51.759,0l0,0
		c14.293-14.293,37.466-14.293,51.759,0l0,0"/>
	<path id="XMLID_840_" style="fill:#DFF6FC;" d="M144.025,153.064c-15.022-2.232-26.547-15.184-26.547-30.827
		c0-13.294,8.323-24.643,20.042-29.123l35.929,11.999L144.025,153.064z"/>
	<circle id="XMLID_841_" style="fill:#DFF6FC;" cx="39.957" cy="201.587" r="24"/>
	<path id="XMLID_839_" style="fill:#DFF6FC;" d="M123.122,311.671c-5.349,3.753-11.865,5.955-18.895,5.955
		c-18.19,0-32.937-14.746-32.937-32.937s14.746-32.937,32.937-32.937c5.289,0,10.287,1.247,14.716,3.462"/>
	<path id="XMLID_1226_" style="fill:#E2F1A1;" d="M62.502,455.041L62.502,455.041c-7.547-27.801-23.337-52.665-45.29-71.318
		l-7.13-6.058h0c51.2,0.101,98.187,28.38,122.247,73.575l2.024,3.801h243.459l2.024-3.801
		c24.06-45.195,71.047-73.474,122.247-73.575h0l-7.13,6.058c-21.953,18.653-37.743,43.517-45.29,71.318v0H62.502z"/>
	<path id="XMLID_1406_" style="fill:#E2F1A1;" d="M314.417,455.041l0-10.914c14.766-45.17,53.154-78.576,99.931-86.961l12.117-2.172
		l-25.709,27.404c-15.69,16.725-24.422,38.796-24.422,61.729v10.914H314.417z"/>
	<path id="XMLID_1138_" style="fill:#D8EC84;" d="M256.832,455.041l-0.75-10.914c0-52.167-42.289-94.456-94.456-94.456h-10.049
		l13.155,13.456c21.164,21.65,33.015,50.723,33.015,81l0.75,10.914H256.832z"/>
	<path id="XMLID_794_" style="fill:#E2F1A1;" d="M197.747,455.041l0-10.914c-14.766-45.17-53.154-78.576-99.931-86.961
		l-12.117-2.172l25.709,27.404c15.69,16.725,24.422,38.796,24.422,61.729v10.914H197.747z"/>
	<path id="XMLID_1165_" style="fill:#D8EC84;" d="M255.833,455.041l0.25-10.914c0-52.167,42.289-94.456,94.456-94.456h10.049
		l-13.155,13.456c-21.164,21.65-33.015,50.723-33.015,81l-0.25,10.914H255.833z"/>
	<g id="XMLID_269_">
		<path id="XMLID_362_" d="M511.465,374.207c-1.449-3.931-5.194-6.542-9.383-6.542c-0.006,0-0.014,0-0.02,0
			c-10.032,0.02-19.904,1.049-29.499,3.001c11.014-13.881,19.971-29.697,26.247-46.942c18.531-50.915,17.52-120.306-2.518-172.671
			c-1.975-5.158-7.754-7.741-12.914-5.766c-5.157,1.974-7.739,7.755-5.766,12.914c6.76,17.665,11.135,37.801,13.106,58.491
			c-28.559,11.795-60.181,14.65-90.345,8.15c-5.265-35.409-19.339-73.624-39.301-105.167c-2.855-4.512-5.783-8.823-8.774-12.94
			c20.662-10.327,47.492-18.252,72.675-9.086l0.463,0.17c5.176,1.923,10.933-0.714,12.856-5.892
			c1.923-5.177-0.715-10.933-5.892-12.856l-0.588-0.216c-27.135-9.876-58.905-5.723-92.291,11.961
			c-25.277-28.449-54.178-43.775-83.566-43.775c-29.927,0-59.351,15.884-84.955,45.345c-32.881-17.061-64.169-20.964-90.901-11.235
			C44.256,94.198,17.998,131.205,6.165,185.357c-10.242,46.868-7.584,100.767,6.938,140.665
			c5.846,16.062,13.96,30.913,23.998,44.172c-8.809-1.636-17.835-2.51-27-2.528c-0.007,0-0.013,0-0.02,0
			c-4.188,0-7.934,2.61-9.383,6.542c-1.451,3.938-0.29,8.362,2.908,11.079l7.13,6.058c20.503,17.421,35.065,40.353,42.114,66.317
			c1.183,4.356,5.137,7.38,9.65,7.38h387.16c4.514,0,8.468-3.024,9.65-7.38c7.049-25.964,21.611-48.896,42.114-66.317l7.13-6.058
			C511.755,382.569,512.916,378.144,511.465,374.207z M118.699,375.557l-3.103-3.308c33.427,12.08,59.983,38.608,71.893,72.792
			h-41.707c0.027-0.301,0.046-0.605,0.046-0.914C145.829,418.557,136.195,394.205,118.699,375.557z M156.554,339.671
			c-8.221-11.306-14.711-23.891-19.296-37.253c10.432-8.33,25.729-7.671,35.387,1.987c18.169,18.169,47.73,18.17,65.901,0
			c5.023-5.024,11.703-7.791,18.809-7.791c7.104,0,13.784,2.767,18.808,7.79c9.085,9.085,21.018,13.627,32.951,13.627
			s23.866-4.542,32.951-13.627c5.023-5.023,11.703-7.79,18.808-7.79c5.158,0,10.088,1.465,14.327,4.186
			c-4.609,13.964-11.286,27.11-19.838,38.871h-4.822c-41.663,0-77.701,24.521-94.456,59.886
			c-16.755-35.365-52.793-59.886-94.456-59.886H156.554z M109.453,262.346c0.682,14.21,3.147,28.189,7.269,41.563
			c-3.718,2.425-8.015,3.717-12.494,3.717c-12.647,0-22.938-10.29-22.938-22.937s10.29-22.937,22.938-22.937
			C106.013,261.753,107.758,261.952,109.453,262.346z M137.823,209.433c10.063-10.063,26.436-10.063,36.498,0
			c17.863,17.862,46.925,17.859,64.784,0c4.874-4.875,11.355-7.559,18.249-7.559c6.894,0,13.374,2.685,18.249,7.56
			c8.931,8.93,20.661,13.395,32.392,13.395c11.731,0,23.462-4.465,32.393-13.396c4.874-4.875,11.355-7.559,18.249-7.559
			s13.375,2.685,18.249,7.56c0.092,0.092,0.192,0.171,0.286,0.259c3.565,15.382,5.492,30.518,5.492,44.538
			c0,8.983-0.814,17.889-2.391,26.6c-6.01-2.755-12.592-4.215-19.401-4.215c-12.447,0-24.149,4.847-32.95,13.648
			c-10.37,10.371-27.247,10.371-37.617,0c-8.801-8.801-20.503-13.648-32.95-13.648c-12.447,0-24.149,4.847-32.951,13.648
			c-10.372,10.372-27.246,10.371-37.616,0c-14.842-14.839-37.282-17.552-54.908-8.149c-1.734-9.119-2.629-18.46-2.629-27.885
			c0-13.405,1.754-27.83,5.025-42.516C135.568,211.228,136.783,210.473,137.823,209.433z M435.254,350.223
			c-1.309-2.411-3.508-4.11-6.027-4.835c14.275-1.503,28.381-4.567,42.133-9.167c-16.226,30.316-42.312,53.754-72.926,65.539
			c2.767-4.438,5.973-8.636,9.617-12.52l25.708-27.404C436.708,358.692,437.311,354.012,435.254,350.223z M412.584,347.324
			c-24.162,4.331-46.201,14.827-64.372,29.928c2.007-2.456,4.128-4.839,6.37-7.133l13.155-13.457
			c0.739-0.756,1.332-1.613,1.788-2.527c2.522-3.315,4.91-6.731,7.161-10.239c10.623,1.718,21.278,2.587,31.892,2.587
			c3.41,0,6.814-0.095,10.213-0.271L412.584,347.324z M207.736,444.35c0.001-0.075,0.011-0.148,0.011-0.223
			c0-0.025-0.001-0.05-0.001-0.075c0-0.041,0-0.082-0.001-0.123c-0.048-30.81-11.14-60.017-31.385-82.971
			c39.568,6.991,69.722,41.625,69.722,83.169c0,0.309,0.019,0.613,0.046,0.914h-38.424
			C207.725,444.813,207.731,444.582,207.736,444.35z M266.082,444.127c0-41.544,30.153-76.179,69.722-83.169
			c-20.245,22.953-31.337,52.161-31.385,82.971c-0.001,0.041-0.001,0.082-0.001,0.123c0,0.025-0.001,0.05-0.001,0.075
			c0,0.075,0.01,0.148,0.011,0.223c0.005,0.231,0.011,0.462,0.032,0.691h-38.424C266.063,444.74,266.082,444.436,266.082,444.127z
			 M396.568,372.249l-3.103,3.308c-17.495,18.648-27.13,43-27.13,68.57c0,0.309,0.019,0.613,0.046,0.914h-41.707
			C336.584,410.857,363.14,384.329,396.568,372.249z M432.387,248.248c20.221,0,40.395-3.553,59.503-10.556
			c0.426,25.603-2.806,51.06-9.73,72.85c-30.111,13.574-62.709,18.559-95.158,14.626c3.651-7.813,6.692-15.937,9.093-24.284
			c0.213-0.56,0.378-1.134,0.486-1.718c4-14.488,6.084-29.62,6.084-44.936c0-2.835-0.076-5.713-0.217-8.622
			C412.358,247.357,422.376,248.248,432.387,248.248z M255.957,67.041c30.594,0,62.747,23.083,88.216,63.329
			c10.279,16.243,18.869,34.351,25.309,52.819c-15.02-3.635-31.534,0.398-43.238,12.102c-4.874,4.874-11.355,7.559-18.249,7.559
			s-13.375-2.685-18.249-7.559c-8.652-8.652-20.156-13.417-32.392-13.417c-12.236,0-23.74,4.765-32.392,13.417
			c-10.063,10.062-26.437,10.064-36.499,0c-12.517-12.516-30.531-16.248-46.339-11.222c3.011-8.731,6.509-17.384,10.436-25.806
			c0.385-0.632,0.708-1.309,0.948-2.03c4.274-8.967,9.038-17.653,14.233-25.862C193.21,90.124,225.363,67.041,255.957,67.041z
			 M150.841,119.675c-4.308,6.807-8.334,13.93-12.065,21.263c-6.744-3.594-11.298-10.727-11.298-18.7
			c0-8.72,5.471-16.67,13.612-19.782c0.498-0.19,0.964-0.426,1.412-0.683c5.587,1.94,10.924,4.226,15.9,6.66
			C155.834,112.037,153.308,115.776,150.841,119.675z M39.957,187.588c7.72,0,14,6.28,14,14s-6.28,14-14,14s-14-6.28-14-14
			S32.237,187.588,39.957,187.588z M31.897,319.18c-9.354-25.702-13.294-57.89-11.514-89.818c5.539,3.915,12.29,6.226,19.574,6.226
			c18.748,0,34-15.252,34-34s-15.252-34-34-34c-2.955,0-5.822,0.38-8.556,1.092c11.673-35.339,31.325-59.921,55.54-68.735
			c9.874-3.594,20.003-4.549,29.904-3.773c-5.905,7.227-9.366,16.402-9.366,26.066c0,15.851,9.248,30.021,22.863,36.851
			c-11.563,27.356-18.915,56.494-20.678,83.011c-1.789-0.225-3.601-0.348-5.436-0.348c-23.676,0-42.938,19.261-42.938,42.937
			c0,23.676,19.262,42.937,42.938,42.937c6.905,0,13.593-1.634,19.636-4.751c5.279,11.767,11.919,22.86,19.834,32.969
			c0.283,0.361,0.59,0.69,0.909,1.001l12.975,13.272c2.243,2.294,4.364,4.677,6.372,7.134
			c-18.171-15.101-40.211-25.598-64.374-29.929l-12.117-2.172c-4.244-0.762-8.497,1.284-10.553,5.072
			c-2.057,3.789-1.454,8.469,1.495,11.613l25.708,27.404c7.893,8.413,13.786,18.277,17.427,28.948
			c-11.851-13.495-25.972-24.642-41.633-33.002C58.154,368.52,41.557,345.722,31.897,319.18z M69.951,445.041
			c-6.54-20.08-17.077-38.406-31.025-54.061c10.588,2.448,20.753,6.221,30.284,11.171c0.489,0.313,0.995,0.58,1.515,0.798
			c18.429,9.887,34.395,24.238,46.273,42.092H69.951z M442.213,445.041h-47.047c18.301-27.507,46.297-46.713,78.072-54.061
			C459.29,406.635,448.753,424.961,442.213,445.041z"/>
		<path id="XMLID_874_" d="M255.957,252.041c2.63,0,5.21-1.07,7.069-2.93c1.86-1.86,2.931-4.44,2.931-7.07
			c0-2.63-1.07-5.21-2.931-7.07c-1.859-1.86-4.439-2.93-7.069-2.93c-2.63,0-5.21,1.07-7.07,2.93c-1.86,1.86-2.93,4.44-2.93,7.07
			c0,2.63,1.069,5.21,2.93,7.07S253.327,252.041,255.957,252.041z"/>
		<path id="XMLID_875_" d="M353.457,252.041c2.63,0,5.21-1.07,7.069-2.93c1.86-1.86,2.931-4.44,2.931-7.07
			c0-2.63-1.07-5.21-2.931-7.07c-1.859-1.86-4.439-2.93-7.069-2.93s-5.21,1.07-7.07,2.93c-1.86,1.86-2.93,4.44-2.93,7.07
			c0,2.63,1.069,5.21,2.93,7.07S350.827,252.041,353.457,252.041z"/>
		<path id="XMLID_886_" d="M158.457,252.041c2.63,0,5.21-1.07,7.069-2.93c1.86-1.86,2.931-4.44,2.931-7.07
			c0-2.63-1.07-5.21-2.931-7.07c-1.859-1.86-4.439-2.93-7.069-2.93s-5.21,1.07-7.07,2.93c-1.86,1.86-2.93,4.44-2.93,7.07
			c0,2.63,1.069,5.21,2.93,7.07S155.827,252.041,158.457,252.041z"/>
		<path id="XMLID_887_" d="M464.997,125.341c2.63,0,5.21-1.07,7.069-2.93c1.86-1.86,2.931-4.44,2.931-7.07s-1.07-5.21-2.931-7.07
			c-1.859-1.86-4.439-2.93-7.069-2.93c-2.641,0-5.21,1.07-7.07,2.93c-1.87,1.86-2.93,4.44-2.93,7.07c0,2.64,1.06,5.21,2.93,7.07
			C459.787,124.271,462.367,125.341,464.997,125.341z"/>
	</g>
</g>
<g>
</g>
<g>
</g>
<g>
</g>
<g>
</g>
<g>
</g>
<g>
</g>
<g>
</g>
<g>
</g>
<g>
</g>
<g>
</g>
<g>
</g>
<g>
</g>
<g>
</g>
<g>
</g>
<g>
</g>
</svg>
