<?xml version="1.0" encoding="iso-8859-1"?>
<!-- Generator: Adobe Illustrator 22.0.0, SVG Export Plug-In . SVG Version: 6.00 Build 0)  -->
<svg version="1.1" id="Capa_1" xmlns="http://www.w3.org/2000/svg" xmlns:xlink="http://www.w3.org/1999/xlink" x="0px" y="0px"
	 viewBox="0 0 512.001 512.001" style="enable-background:new 0 0 512.001 512.001;" xml:space="preserve">
<g id="XMLID_2310_">
	<path id="XMLID_1140_" style="fill:#F5737F;" d="M10.001,114l140-104l140,104H10.001z"/>
	<path id="XMLID_1144_" style="fill:#FFFFFF;" d="M108.334,114l41.667-104l41.667,104H108.334z"/>
	<g id="XMLID_1138_">
		<path id="XMLID_1139_" style="fill:#91DEF5;" d="M386.221,191.873L418.662,64.9C420.978,56.119,428.92,50,438.001,50h64v40H453.41
			l-26.862,101.873H386.221z"/>
	</g>
	<polygon id="XMLID_1137_" style="fill:#F0F7CD;" points="478.091,260.79 438.302,191.873 73.953,191.873 34.164,260.79 	"/>
	<path id="XMLID_1136_" style="fill:#CBE558;" d="M256.128,502L256.128,502c-122.512,0-221.827-99.315-221.827-221.827V260.79
		h443.654v19.383C477.955,402.685,378.639,502,256.128,502z"/>
	<circle id="XMLID_1566_" style="fill:#F5737F;" cx="361.312" cy="159.873" r="32"/>
	<g id="XMLID_207_">
		<path id="XMLID_237_" d="M502.001,40h-64c-13.608,0-25.537,9.19-29.027,22.424l-17.454,68.313
			c-5.421-5.618-12.385-9.733-20.208-11.651V75.168c0-5.523-4.478-10-10-10s-10,4.477-10,10v43.918
			c-18.345,4.499-32,21.075-32,40.787c0,8.062,2.288,15.597,6.242,22H160.001V124h31.667h98.333c4.313,0,8.14-2.765,9.494-6.859
			c1.354-4.095-0.068-8.596-3.531-11.168l-140-104c-3.539-2.63-8.387-2.63-11.926,0l-140,104c-3.463,2.572-4.886,7.073-3.531,11.168
			C1.861,121.235,5.688,124,10.001,124h98.333h31.667v57.873H73.954c-3.572,0-6.874,1.906-8.66,5l-39.79,68.917
			c-1.179,2.041-1.58,4.395-1.203,6.649v17.734c0,61.923,24.114,120.14,67.9,163.926c43.786,43.786,102.004,67.9,163.927,67.9
			s120.141-24.114,163.927-67.9c43.786-43.787,67.9-102.003,67.9-163.926v-17.734c0.377-2.254-0.024-4.608-1.203-6.649
			l-39.79-68.917c-1.583-2.743-4.358-4.544-7.456-4.92L461.115,100h40.886c5.522,0,10-4.477,10-10V50
			C512.001,44.477,507.523,40,502.001,40z M198.434,104l-25.99-64.871L259.77,104H198.434z M127.558,39.129L101.568,104H40.231
			L127.558,39.129z M150.001,36.889L176.889,104h-53.775L150.001,36.889z M339.312,159.873c0-12.131,9.869-22,22-22s22,9.869,22,22
			s-9.869,22-22,22S339.312,172.004,339.312,159.873z M460.771,250.79H301.128c-5.522,0-10,4.477-10,10c0,5.523,4.478,10,10,10
			h166.827v9.383C467.955,396.975,372.93,492,256.128,492S44.301,396.975,44.301,280.174v-9.383h166.827c5.522,0,10-4.477,10-10
			c0-5.523-4.478-10-10-10H51.485l28.243-48.917h346.789c0.013,0,0.025,0.002,0.038,0.002c0.02,0,0.039-0.002,0.059-0.002h5.915
			L460.771,250.79z M492.001,80H453.41c-4.541,0-8.512,3.06-9.67,7.45l-24.898,94.423h-19.746L428.331,67.45
			c1.157-4.387,5.134-7.45,9.67-7.45h54V80z"/>
		<path id="XMLID_246_" d="M256.131,250.79c-2.64,0-5.21,1.07-7.07,2.93c-1.87,1.86-2.93,4.44-2.93,7.07c0,2.63,1.06,5.21,2.93,7.07
			c1.86,1.86,4.431,2.93,7.07,2.93c2.63,0,5.21-1.07,7.07-2.93c1.859-1.86,2.93-4.44,2.93-7.07c0-2.63-1.07-5.21-2.93-7.07
			C261.341,251.86,258.761,250.79,256.131,250.79z"/>
	</g>
</g>
<g>
</g>
<g>
</g>
<g>
</g>
<g>
</g>
<g>
</g>
<g>
</g>
<g>
</g>
<g>
</g>
<g>
</g>
<g>
</g>
<g>
</g>
<g>
</g>
<g>
</g>
<g>
</g>
<g>
</g>
</svg>
