<?xml version="1.0" encoding="iso-8859-1"?>
<!-- Generator: Adobe Illustrator 22.0.0, SVG Export Plug-In . SVG Version: 6.00 Build 0)  -->
<svg version="1.1" id="Capa_1" xmlns="http://www.w3.org/2000/svg" xmlns:xlink="http://www.w3.org/1999/xlink" x="0px" y="0px"
	 viewBox="0 0 512 512" style="enable-background:new 0 0 512 512;" xml:space="preserve">
<g id="XMLID_923_">
	<path id="XMLID_922_" style="fill:#F6838D;" d="M89.667,197.397h-40v-31.199c0-4.861,3.941-8.801,8.801-8.801h22.397
		c4.861,0,8.801,3.941,8.801,8.801V197.397z"/>
	<path id="XMLID_921_" style="fill:#FFD89E;" d="M210,246h272c11.046,0,20-8.954,20-20V30c0-11.046-8.954-20-20-20H210
		c-11.046,0-20,8.954-20,20v196C190,237.046,198.954,246,210,246z"/>
	<rect id="XMLID_920_" x="230" y="50" style="fill:#B0E7F8;" width="232" height="156"/>
	<polygon id="XMLID_919_" style="fill:#CBE558;" points="359.167,124.167 394.117,89.216 462.149,157.248 462.149,203.947 
		438.947,203.947 	"/>
	<path id="XMLID_1036_" style="fill:#8690A6;" d="M410,198h-66.833l-22.526-46.151c-2.942-6.027-9.061-9.849-15.768-9.849H155.127
		c-6.706,0-12.826,3.823-15.768,9.849L116.833,198H50c-22.091,0-40,17.909-40,40v224c0,22.091,17.909,40,40,40h360
		c22.091,0,40-17.909,40-40V238C450,215.909,432.091,198,410,198z"/>
	<polygon id="XMLID_918_" style="fill:#D8EC84;" points="296,140 335.5,100.5 438.947,203.947 346,203.947 323.276,157.248 	"/>
	<rect id="XMLID_917_" x="12" y="246" style="fill:#E1E3E9;" width="436" height="208"/>
	<circle id="XMLID_916_" style="fill:#8690A6;" cx="230" cy="350" r="104"/>
	<circle id="XMLID_1119_" style="fill:#B0E7F8;" cx="230" cy="350" r="60"/>
	<g id="XMLID_327_">
		<path id="XMLID_401_" d="M482,0H210c-16.542,0-30,13.458-30,30v102h-24.873c-10.453,0-20.17,6.07-24.754,15.463L110.587,188
			h-10.92v-21.801c0-10.367-8.435-18.802-18.802-18.802H58.468c-10.367,0-18.801,8.435-18.801,18.802v22.881
			C17.039,193.854,0,213.972,0,238v224c0,27.57,22.43,50,50,50h360c27.57,0,50-22.43,50-50V256h22c16.542,0,30-13.458,30-30V30
			C512,13.458,498.542,0,482,0z M59.667,167.397h20v20h-20V167.397z M50,208h134.698c5.522,0,10-4.477,10-10s-4.478-10-10-10
			h-51.856l15.505-31.764c1.255-2.573,3.917-4.236,6.78-4.236h149.746c2.863,0,5.525,1.663,6.781,4.236L327.159,188h-52.46
			c-5.522,0-10,4.477-10,10s4.478,10,10,10h68.441c0.012,0,0.023,0.002,0.035,0.002c0.015,0,0.029-0.002,0.044-0.002H410
			c15.869,0,28.892,12.388,29.926,28H20.074C21.108,220.388,34.131,208,50,208z M294.421,444C324.339,423.432,344,388.971,344,350
			s-19.661-73.432-49.579-94H440v188H294.421z M20,256h145.579C135.661,276.568,116,311.029,116,350s19.661,73.432,49.579,94H20V256
			z M136,350c0-51.832,42.168-94,94-94s94,42.168,94,94s-42.168,94-94,94S136,401.832,136,350z M349.413,188l-19.786-40.537
			c-2.907-5.957-7.881-10.57-13.795-13.153l19.668-19.668L408.857,188H349.413z M445.143,196l-71.833-71.834l20.808-20.809
			L452,161.241V196H445.143z M452,132.956l-50.812-50.812c-1.876-1.875-4.419-2.929-7.071-2.929s-5.195,1.054-7.071,2.929
			l-27.879,27.879l-16.596-16.596c-3.906-3.905-10.236-3.905-14.143,0L289.857,132H240V60h212V132.956z M410,492H50
			c-15.869,0-28.892-12.388-29.926-28h419.852C438.892,479.612,425.869,492,410,492z M492,226c0,5.514-4.486,10-10,10h-22.051
			c-0.283-7.152-2.071-13.921-5.063-20H462c5.522,0,10-4.477,10-10v-47.073c0.188-1.111,0.188-2.246,0-3.357V50
			c0-5.523-4.478-10-10-10H230c-5.522,0-10,4.477-10,10v82h-20V30c0-5.514,4.486-10,10-10h272c5.514,0,10,4.486,10,10V226z"/>
		<path id="XMLID_792_" d="M230,280c-38.598,0-70,31.402-70,70s31.402,70,70,70s70-31.402,70-70S268.598,280,230,280z M230,400
			c-27.57,0-50-22.43-50-50s22.43-50,50-50s50,22.43,50,50S257.57,400,230,400z"/>
		<path id="XMLID_843_" d="M230,316.333c-5.522,0-10,4.477-10,10s4.478,10,10,10c7.536,0,13.667,6.131,13.667,13.667
			c0,5.523,4.478,10,10,10s10-4.477,10-10C263.667,331.436,248.564,316.333,230,316.333z"/>
		<path id="XMLID_844_" d="M65.768,75.116c7.664,0,13.899,6.235,13.899,13.899c0,5.523,4.478,10,10,10s10-4.477,10-10
			c0-7.664,6.235-13.899,13.899-13.899c5.522,0,10-4.477,10-10s-4.478-10-10-10c-7.664,0-13.899-6.235-13.899-13.899
			c0-5.523-4.478-10-10-10s-10,4.477-10,10c0,7.664-6.235,13.899-13.899,13.899c-5.522,0-10,4.477-10,10
			S60.245,75.116,65.768,75.116z"/>
		<path id="XMLID_848_" d="M279,104.33c2.63,0,5.21-1.06,7.069-2.92c1.86-1.87,2.931-4.45,2.931-7.08c0-2.63-1.07-5.2-2.931-7.07
			c-1.859-1.86-4.439-2.93-7.069-2.93s-5.21,1.07-7.07,2.93S269,91.7,269,94.33c0,2.64,1.069,5.21,2.93,7.08
			C273.79,103.27,276.37,104.33,279,104.33z"/>
		<path id="XMLID_936_" d="M229.7,208c2.63,0,5.21-1.07,7.069-2.93c1.86-1.86,2.931-4.44,2.931-7.07c0-2.63-1.07-5.21-2.931-7.07
			c-1.859-1.86-4.439-2.93-7.069-2.93c-2.641,0-5.21,1.07-7.07,2.93c-1.86,1.86-2.93,4.44-2.93,7.07c0,2.63,1.069,5.21,2.93,7.07
			S227.06,208,229.7,208z"/>
	</g>
</g>
<g>
</g>
<g>
</g>
<g>
</g>
<g>
</g>
<g>
</g>
<g>
</g>
<g>
</g>
<g>
</g>
<g>
</g>
<g>
</g>
<g>
</g>
<g>
</g>
<g>
</g>
<g>
</g>
<g>
</g>
</svg>
