<?xml version="1.0" encoding="iso-8859-1"?>
<!-- Generator: Adobe Illustrator 22.0.0, SVG Export Plug-In . SVG Version: 6.00 Build 0)  -->
<svg version="1.1" id="Capa_1" xmlns="http://www.w3.org/2000/svg" xmlns:xlink="http://www.w3.org/1999/xlink" x="0px" y="0px"
	 viewBox="0 0 512.001 512.001" style="enable-background:new 0 0 512.001 512.001;" xml:space="preserve">
<g id="XMLID_616_">
	<path id="XMLID_971_" style="fill:#FF9D6C;" d="M133.308,210.429l-0.015,0.001c0.021-0.033,0.039-0.067,0.06-0.1
		c2.485-5.255,5.312-10.313,8.426-15.172c31.071-63.642,5.922-121.689,5.922-121.689s48.923,5.289,70.74,64.366
		c-8.595-30.837,25.785-104.033,86.608-127.834c-15.155,65.285,29.298,123.376,63.166,181.708
		c5.023,7.339,9.353,15.189,12.876,23.468c0.008,0.015,0.016,0.031,0.024,0.047l-0.003,0c6.928,16.3,10.766,34.23,10.766,53.058
		c0,74.974-60.778,135.752-135.751,135.752s-135.751-60.778-135.751-135.752C120.374,247.585,125.025,227.981,133.308,210.429z"/>
	<path id="XMLID_970_" style="fill:#FFB48E;" d="M171.764,320.612c0,47.19,39.183,85.228,86.789,83.355
		c42.439-1.67,77.27-35.668,79.889-78.059c1.36-22.019-5.831-42.336-18.563-57.959h0.006l-64.403-82.929l-64.687,82.494l0.048,0
		C178.925,281.939,171.764,300.439,171.764,320.612z"/>
	<path id="XMLID_969_" style="fill:#FFE6C0;" d="M216.914,365.761c0,21.649,17.976,39.1,39.816,38.241
		c19.47-0.766,35.45-16.364,36.651-35.812c0.624-10.102-2.675-19.423-8.516-26.59h0.003l-29.547-38.046l-29.677,37.846l0.022,0
		C220.199,348.019,216.914,356.506,216.914,365.761z"/>
	<path id="XMLID_1024_" style="fill:#B8866B;" d="M256.125,502.001h196.75c27.062,0,49-21.938,49-49v0c0-27.062-21.938-49-49-49
		h-196.75V502.001z"/>
	<path id="XMLID_1066_" style="fill:#B8866B;" d="M59.125,502.001h197v-98h-197c-27.062,0-49,21.938-49,49v0
		C10.125,480.063,32.063,502.001,59.125,502.001z"/>
	<circle id="XMLID_1055_" style="fill:#CC9E83;" cx="256.125" cy="453.001" r="49"/>
	<g id="XMLID_392_">
		<path id="XMLID_422_" d="M452.875,394.001H329.788c43.096-25.348,72.088-72.208,72.088-125.72c0-19.753-3.891-38.921-11.563-56.97
			l-0.001,0c-0.012-0.029-0.024-0.059-0.037-0.087c-0.979-2.301-2.038-4.616-3.147-6.881c-2.427-4.96-8.418-7.015-13.378-4.585
			c-4.961,2.428-7.014,8.418-4.585,13.378c0.96,1.962,1.876,3.966,2.723,5.956c0.014,0.031,0.027,0.063,0.041,0.095
			c6.601,15.546,9.947,32.063,9.947,49.094c0,38.04-16.98,72.186-43.756,95.265c5.95-11.418,9.5-23.998,10.304-37.022
			c1.451-23.498-5.859-46.442-20.591-64.643c-0.017-0.022-0.033-0.044-0.05-0.066l-64.403-82.929
			c-1.89-2.433-4.795-3.859-7.875-3.866c-0.008,0-0.016,0-0.016,0c-3.079,0-5.981,1.412-7.877,3.83l-64.688,82.494
			c-0.138,0.175-0.269,0.355-0.394,0.538c-13.399,16.563-20.768,37.38-20.768,58.73c0,14.003,3.042,27.487,8.808,39.741
			c-24.71-22.977-40.198-55.747-40.198-92.071c0-18.714,4.029-36.743,11.978-53.585c0.023-0.05,0.047-0.101,0.069-0.151
			c2.233-4.717,4.849-9.424,7.776-13.992c0.208-0.325,0.397-0.662,0.566-1.008c22.112-45.292,17.628-87.611,12.06-111.069
			c14.237,6.479,34.469,20.96,46.235,52.823c1.857,5.031,7.352,7.704,12.458,6.05c5.104-1.65,7.996-7.033,6.556-12.2
			c-2.916-10.462,0.912-33.299,16.208-58.714c7.782-12.931,23.448-34.501,48.064-49.117c-2.93,40.479,13.775,77.366,31.267,108.814
			c2.685,4.826,8.774,6.562,13.6,3.878c4.827-2.685,6.563-8.773,3.879-13.6c-18.421-33.119-35.95-72.58-26.3-114.149
			c0.839-3.615-0.393-7.398-3.2-9.826c-2.809-2.427-6.728-3.102-10.185-1.748c-39.697,15.534-63.566,47.664-74.261,65.435
			c-7.395,12.285-12.886,24.802-16.226,36.539c-25.818-34.75-60.34-38.94-62.144-39.135c-3.542-0.384-7.016,1.145-9.127,4.012
			c-2.111,2.866-2.539,6.639-1.124,9.906c0.232,0.537,22.854,54.196-5.488,112.823c-3.198,5.035-6.075,10.225-8.56,15.441
			c-0.165,0.309-0.313,0.624-0.443,0.945c-9.063,19.39-13.659,40.122-13.659,61.628c0,53.511,28.992,100.371,72.088,125.72H59.125
			c-32.533,0-59,26.467-59,59s26.467,59,59,59h197h196.75c32.533,0,59-26.467,59-59S485.409,394.001,452.875,394.001z
			 M256.125,492.001c-21.505,0-39-17.495-39-39c0-21.121,16.88-38.363,37.857-38.971c0.052,0,0.104,0.004,0.157,0.004
			c0.003,0,0.007,0,0.007,0c0.006,0,0.009,0,0.009,0c0.138,0,0.275-0.007,0.41-0.008c0.188,0.001,0.373,0.007,0.561,0.007
			c0.279,0,0.556-0.009,0.834-0.011c21.12,0.447,38.166,17.754,38.166,38.979C295.125,474.506,277.63,492.001,256.125,492.001z
			 M283.4,367.574c-0.877,14.194-12.656,25.759-26.86,26.423c-0.083,0.001-0.167,0.002-0.25,0.004h-0.164h-2.084
			c-6.927-0.275-13.406-3.01-18.446-7.856c-5.598-5.382-8.681-12.621-8.681-20.384c0-6.557,2.295-12.947,6.462-17.991
			c0.179-0.216,0.347-0.438,0.505-0.666l21.402-27.294l21.684,27.924c0.048,0.062,0.097,0.123,0.146,0.184
			C281.611,353.436,283.843,360.416,283.4,367.574z M198.552,273.883c0.242-0.292,0.465-0.596,0.668-0.908l56.224-71.701
			l56.353,72.562c0.106,0.146,0.217,0.289,0.331,0.43c11.681,14.332,17.481,32.452,16.334,51.024
			c-1.267,20.508-11.302,38.896-26.298,51.486c0.616-2.588,1.03-5.248,1.198-7.968c0.752-12.148-3.034-24.015-10.664-33.429
			l-29.478-37.958c-1.89-2.433-4.795-3.859-7.875-3.866c-0.008,0-0.016,0-0.016,0c-3.079,0-5.981,1.412-7.877,3.83l-29.677,37.846
			c-0.082,0.104-0.161,0.21-0.238,0.317c-6.855,8.538-10.623,19.24-10.623,30.213c0,3.856,0.458,7.631,1.325,11.28
			c-1.34-1.119-2.66-2.272-3.933-3.495c-14.537-13.976-22.543-32.775-22.543-52.934
			C181.764,303.582,187.726,286.987,198.552,273.883z M20.125,453.001c0-0.429,0.019-0.854,0.032-1.279h59.468
			c5.522,0,10-4.477,10-10s-4.478-10-10-10H26.467c6.969-10.659,19-17.721,32.658-17.721h152.783
			c-9.189,10.406-14.783,24.059-14.783,39s5.594,28.594,14.783,39H59.125C37.62,492.001,20.125,474.506,20.125,453.001z
			 M452.875,492.001H300.343c9.189-10.406,14.783-24.059,14.783-39s-5.594-28.594-14.783-39h152.533
			c13.658,0,25.689,7.062,32.658,17.721h-62.408c-5.522,0-10,4.477-10,10s4.478,10,10,10h68.718c0.014,0.426,0.032,0.85,0.032,1.279
			C491.875,474.506,474.38,492.001,452.875,492.001z"/>
		<path id="XMLID_795_" d="M379,452.001h-34.837c-5.522,0-10,4.477-10,10s4.478,10,10,10H379c5.522,0,10-4.477,10-10
			S384.523,452.001,379,452.001z"/>
		<path id="XMLID_796_" d="M159.493,452.001h-28.937c-5.522,0-10,4.477-10,10s4.478,10,10,10h28.937c5.522,0,10-4.477,10-10
			S165.016,452.001,159.493,452.001z"/>
		<path id="XMLID_800_" d="M355.255,180.001c2.64,0,5.21-1.07,7.07-2.93c1.859-1.86,2.93-4.44,2.93-7.07c0-2.63-1.07-5.21-2.93-7.07
			c-1.86-1.86-4.431-2.93-7.07-2.93c-2.63,0-5.21,1.07-7.07,2.93c-1.859,1.86-2.93,4.44-2.93,7.07c0,2.63,1.07,5.21,2.93,7.07
			C350.045,178.93,352.625,180.001,355.255,180.001z"/>
	</g>
</g>
<g>
</g>
<g>
</g>
<g>
</g>
<g>
</g>
<g>
</g>
<g>
</g>
<g>
</g>
<g>
</g>
<g>
</g>
<g>
</g>
<g>
</g>
<g>
</g>
<g>
</g>
<g>
</g>
<g>
</g>
</svg>
