<?xml version="1.0" encoding="iso-8859-1"?>
<!-- Generator: Adobe Illustrator 22.0.0, SVG Export Plug-In . SVG Version: 6.00 Build 0)  -->
<svg version="1.1" id="Capa_1" xmlns="http://www.w3.org/2000/svg" xmlns:xlink="http://www.w3.org/1999/xlink" x="0px" y="0px"
	 viewBox="0 0 512 512" style="enable-background:new 0 0 512 512;" xml:space="preserve">
<g>
	<g>
		<rect x="7.5" y="135.758" style="fill:#F9EAC7;" width="497" height="240.484"/>
		<ellipse style="fill:#9B959D;" cx="256" cy="272.032" rx="56.113" ry="72.145"/>
		<circle style="fill:#C8C5C9;" cx="59.605" cy="187.863" r="20.04"/>
		<circle style="fill:#C8C5C9;" cx="452.395" cy="187.863" r="20.04"/>
		<circle style="fill:#C8C5C9;" cx="452.395" cy="324.137" r="20.04"/>
		<circle style="fill:#C8C5C9;" cx="59.605" cy="324.137" r="20.04"/>
		<ellipse style="fill:#ADA7AE;" cx="256" cy="272.032" rx="32.065" ry="48.097"/>
		<path style="fill:#F4DBB3;" d="M504.5,351.625H64.221c-17.709,0-32.065-14.356-32.065-32.065V135.758H7.5l0,240.484h497V351.625z"
			/>
		<circle style="fill:#B9CDA5;" cx="376.242" cy="256" r="24.048"/>
		<circle style="fill:#B6B1B7;" cx="135.758" cy="256" r="24.048"/>
	</g>
	<g>
		<path d="M504.5,128.258H7.5c-4.142,0-7.5,3.358-7.5,7.5v240.484c0,4.142,3.358,7.5,7.5,7.5h497c4.142,0,7.5-3.358,7.5-7.5V135.758
			C512,131.616,508.642,128.258,504.5,128.258z M497,368.742H15V143.258h482V368.742z"/>
		<path d="M119.726,192.387c-4.142,0-7.5,3.358-7.5,7.5s3.358,7.5,7.5,7.5h99.185c-16.046,14.473-26.523,38.049-26.523,64.645
			s10.477,50.172,26.523,64.646h-91.168c-4.142,0-7.5,3.357-7.5,7.5c0,4.142,3.358,7.5,7.5,7.5h324.653
			c15.186,0,27.541-12.354,27.541-27.541V187.863c0-15.186-12.354-27.541-27.541-27.541h-36.073c-4.142,0-7.5,3.358-7.5,7.5
			c0,4.143,3.358,7.5,7.5,7.5h11.566c-1.934,3.765-3.033,8.025-3.033,12.541c0,15.186,12.354,27.541,27.54,27.541
			c4.515,0,8.776-1.099,12.541-3.033v87.26c-3.764-1.934-8.025-3.033-12.541-3.033c-15.186,0-27.54,12.354-27.54,27.541
			c0,4.515,1.099,8.776,3.033,12.541H293.09c16.046-14.473,26.523-38.049,26.523-64.646s-10.477-50.172-26.523-64.645h99.185
			c4.142,0,7.5-3.358,7.5-7.5s-3.358-7.5-7.5-7.5H119.726z M452.395,200.403c-6.915,0-12.54-5.626-12.54-12.541
			s5.625-12.541,12.54-12.541c6.915,0,12.541,5.626,12.541,12.541S459.31,200.403,452.395,200.403z M439.855,324.137
			c0-6.915,5.625-12.541,12.54-12.541c6.915,0,12.541,5.626,12.541,12.541s-5.625,12.541-12.541,12.541
			C445.48,336.678,439.855,331.052,439.855,324.137z M304.613,272.032c0,35.646-21.808,64.646-48.613,64.646
			s-48.613-29-48.613-64.646s21.808-64.645,48.613-64.645S304.613,236.387,304.613,272.032z"/>
		<path d="M135.758,287.548c17.396,0,31.548-14.153,31.548-31.548s-14.152-31.548-31.548-31.548S104.209,238.604,104.209,256
			S118.362,287.548,135.758,287.548z M135.758,239.452c9.125,0,16.548,7.423,16.548,16.548s-7.423,16.548-16.548,16.548
			s-16.549-7.423-16.549-16.548S126.633,239.452,135.758,239.452z"/>
		<path d="M376.242,224.452c-17.396,0-31.548,14.153-31.548,31.548s14.152,31.548,31.548,31.548s31.549-14.153,31.549-31.548
			S393.638,224.452,376.242,224.452z M376.242,272.548c-9.125,0-16.548-7.423-16.548-16.548s7.423-16.548,16.548-16.548
			s16.549,7.423,16.549,16.548S385.367,272.548,376.242,272.548z"/>
		<path d="M256,296.597c-7.655,0-12.541-3.866-12.541-6.528c0-4.142-3.358-7.5-7.5-7.5s-7.5,3.358-7.5,7.5
			c0,10.031,8.356,18.25,20.041,20.745v1.3c0,4.142,3.358,7.5,7.5,7.5s7.5-3.358,7.5-7.5v-1.3
			c11.685-2.494,20.041-10.713,20.041-20.745c0-16.762-15.755-22.014-25.169-25.151c-12.759-4.253-14.912-6.806-14.912-10.921
			c0-2.662,4.885-6.528,12.541-6.528s12.541,3.866,12.541,6.528c0,4.142,3.358,7.5,7.5,7.5s7.5-3.358,7.5-7.5
			c0-10.031-8.356-18.25-20.041-20.745v-1.3c0-4.142-3.358-7.5-7.5-7.5s-7.5,3.358-7.5,7.5v1.3
			c-11.685,2.494-20.041,10.713-20.041,20.745c0,16.762,15.755,22.014,25.169,25.151c12.759,4.253,14.912,6.806,14.912,10.921
			C268.541,292.73,263.655,296.597,256,296.597z"/>
		<path d="M159.291,312.113c0-4.142-3.358-7.5-7.5-7.5h-32.065c-4.142,0-7.5,3.358-7.5,7.5s3.358,7.5,7.5,7.5h32.065
			C155.933,319.613,159.291,316.255,159.291,312.113z"/>
		<path d="M392.274,304.613h-32.065c-4.142,0-7.5,3.358-7.5,7.5s3.358,7.5,7.5,7.5h32.065c4.142,0,7.5-3.358,7.5-7.5
			S396.417,304.613,392.274,304.613z"/>
		<path d="M59.605,351.678h36.073c4.142,0,7.5-3.358,7.5-7.5c0-4.143-3.358-7.5-7.5-7.5H84.112
			c1.934-3.765,3.033-8.025,3.033-12.541c0-15.186-12.354-27.541-27.54-27.541c-4.515,0-8.776,1.099-12.541,3.033v-87.26
			c3.764,1.934,8.025,3.033,12.541,3.033c15.186,0,27.54-12.354,27.54-27.541c0-4.515-1.099-8.776-3.033-12.541h300.146
			c4.142,0,7.5-3.357,7.5-7.5c0-4.142-3.358-7.5-7.5-7.5H59.605c-15.186,0-27.541,12.354-27.541,27.541v136.274
			C32.064,339.323,44.419,351.678,59.605,351.678z M59.605,311.597c6.915,0,12.54,5.626,12.54,12.541s-5.625,12.541-12.54,12.541
			c-6.915,0-12.541-5.626-12.541-12.541S52.69,311.597,59.605,311.597z M59.605,175.322c6.915,0,12.54,5.626,12.54,12.541
			s-5.625,12.541-12.54,12.541c-6.915,0-12.541-5.626-12.541-12.541S52.69,175.322,59.605,175.322z"/>
	</g>
</g>
<g>
</g>
<g>
</g>
<g>
</g>
<g>
</g>
<g>
</g>
<g>
</g>
<g>
</g>
<g>
</g>
<g>
</g>
<g>
</g>
<g>
</g>
<g>
</g>
<g>
</g>
<g>
</g>
<g>
</g>
</svg>
