<?xml version="1.0" encoding="iso-8859-1"?>
<!-- Generator: Adobe Illustrator 22.0.0, SVG Export Plug-In . SVG Version: 6.00 Build 0)  -->
<svg version="1.1" id="Capa_1" xmlns="http://www.w3.org/2000/svg" xmlns:xlink="http://www.w3.org/1999/xlink" x="0px" y="0px"
	 viewBox="0 0 512 512" style="enable-background:new 0 0 512 512;" xml:space="preserve">
<g>
	<g>
		
			<rect x="23.535" y="191.869" transform="matrix(6.123234e-17 -1 1 6.123234e-17 -80.1578 463.9011)" style="fill:#EAC89F;" width="336.674" height="160.321"/>
		
			<rect x="-8.529" y="223.933" transform="matrix(6.123234e-17 -1 1 6.123234e-17 -144.2862 463.9011)" style="fill:#F4DBB3;" width="336.674" height="160.321"/>
		
			<rect x="-40.594" y="255.997" transform="matrix(6.123234e-17 -1 1 6.123234e-17 -208.4146 463.9011)" style="fill:#F9EAC7;" width="336.674" height="160.321"/>
		<circle style="fill:#B6B1B7;" cx="127.743" cy="424.34" r="16.032"/>
		<circle style="fill:#B9CDA5;" cx="127.743" cy="247.987" r="16.032"/>
		<path style="fill:#F4DBB3;" d="M72.219,471.859c0,4.427,3.589,8.016,8.016,8.016h127.669V504.5H47.583V167.826h24.636V471.859z"/>
		<ellipse style="fill:#9B959D;" cx="127.743" cy="336.163" rx="48.096" ry="40.08"/>
		<path style="fill:#857E87;" d="M191.872,7.5h256.513c8.854,0,16.032,7.178,16.032,16.032v336.674
			c0,8.854-7.178,16.032-16.032,16.032H191.872c-8.854,0-16.032-7.178-16.032-16.032V23.532C175.84,14.678,183.017,7.5,191.872,7.5z
			"/>
		<path style="fill:#B9CDA5;" d="M416.321,103.693H223.936c-4.427,0-8.016-3.589-8.016-8.016V63.612
			c0-4.427,3.589-8.016,8.016-8.016h192.385c4.427,0,8.016,3.589,8.016,8.016v32.064
			C424.337,100.104,420.748,103.693,416.321,103.693z"/>
		<path style="fill:#C8C5C9;" d="M247.984,183.853h-16.032c-8.854,0-16.032-7.178-16.032-16.032v0
			c0-8.854,7.178-16.032,16.032-16.032h16.032c8.854,0,16.032,7.178,16.032,16.032v0
			C264.016,176.675,256.838,183.853,247.984,183.853z"/>
		<path style="fill:#C8C5C9;" d="M328.144,183.853h-16.032c-8.854,0-16.032-7.178-16.032-16.032v0
			c0-8.854,7.178-16.032,16.032-16.032h16.032c8.854,0,16.032,7.178,16.032,16.032v0
			C344.176,176.675,336.999,183.853,328.144,183.853z"/>
		<path style="fill:#F6D190;" d="M408.305,183.853h-16.032c-8.854,0-16.032-7.178-16.032-16.032v0
			c0-8.854,7.178-16.032,16.032-16.032h16.032c8.854,0,16.032,7.178,16.032,16.032v0
			C424.337,176.675,417.159,183.853,408.305,183.853z"/>
		<path style="fill:#C8C5C9;" d="M247.984,247.981h-16.032c-8.854,0-16.032-7.178-16.032-16.032v0
			c0-8.854,7.178-16.032,16.032-16.032h16.032c8.854,0,16.032,7.178,16.032,16.032v0
			C264.016,240.804,256.838,247.981,247.984,247.981z"/>
		<path style="fill:#C8C5C9;" d="M328.144,247.981h-16.032c-8.854,0-16.032-7.178-16.032-16.032v0
			c0-8.854,7.178-16.032,16.032-16.032h16.032c8.854,0,16.032,7.178,16.032,16.032v0
			C344.176,240.804,336.999,247.981,328.144,247.981z"/>
		<path style="fill:#F6D190;" d="M408.305,247.981h-16.032c-8.854,0-16.032-7.178-16.032-16.032v0
			c0-8.854,7.178-16.032,16.032-16.032h16.032c8.854,0,16.032,7.178,16.032,16.032v0
			C424.337,240.804,417.159,247.981,408.305,247.981z"/>
		<path style="fill:#C8C5C9;" d="M247.984,312.11h-16.032c-8.854,0-16.032-7.178-16.032-16.032v0
			c0-8.854,7.178-16.032,16.032-16.032h16.032c8.854,0,16.032,7.178,16.032,16.032v0C264.016,304.932,256.838,312.11,247.984,312.11
			z"/>
		<path style="fill:#C8C5C9;" d="M328.144,312.11h-16.032c-8.854,0-16.032-7.178-16.032-16.032v0
			c0-8.854,7.178-16.032,16.032-16.032h16.032c8.854,0,16.032,7.178,16.032,16.032v0C344.176,304.932,336.999,312.11,328.144,312.11
			z"/>
		<path style="fill:#F6D190;" d="M408.305,312.11h-16.032c-8.854,0-16.032-7.178-16.032-16.032v0
			c0-8.854,7.178-16.032,16.032-16.032h16.032c8.854,0,16.032,7.178,16.032,16.032v0C424.337,304.932,417.159,312.11,408.305,312.11
			z"/>
		<path style="fill:#6F6571;" d="M199.888,336.158V7.5h-8.016c-8.854,0-16.032,7.177-16.032,16.032v336.674
			c0,8.854,7.178,16.032,16.032,16.032h256.513c8.854,0,16.032-7.178,16.032-16.032v-8.016H215.92
			C207.08,352.19,199.888,344.998,199.888,336.158z"/>
		<path style="fill:#DCDCA0;" d="M395.991,87.593H244.266c-4.39,0-7.949-3.559-7.949-7.949v0c0-4.39,3.559-7.949,7.949-7.949
			h151.725c4.39,0,7.949,3.559,7.949,7.949v0C403.94,84.035,400.381,87.593,395.991,87.593z"/>
	</g>
	<g>
		<path d="M127.742,400.807c-12.976,0-23.532,10.557-23.532,23.532s10.557,23.532,23.532,23.532
			c12.976,0,23.533-10.557,23.533-23.532S140.718,400.807,127.742,400.807z M127.742,432.871c-4.705,0-8.532-3.828-8.532-8.532
			c0-4.705,3.828-8.532,8.532-8.532c4.705,0,8.533,3.827,8.533,8.532C136.274,429.043,132.447,432.871,127.742,432.871z"/>
		<path d="M127.742,224.452c-12.976,0-23.532,10.557-23.532,23.532s10.557,23.532,23.532,23.532
			c12.976,0,23.533-10.557,23.533-23.532S140.718,224.452,127.742,224.452z M127.742,256.516c-4.705,0-8.532-3.828-8.532-8.532
			s3.828-8.532,8.532-8.532c4.705,0,8.533,3.828,8.533,8.532S132.447,256.516,127.742,256.516z"/>
		<path d="M143.774,328.661h-32.065c-4.142,0-7.5,3.358-7.5,7.5c0,4.143,3.358,7.5,7.5,7.5h32.065c4.142,0,7.5-3.357,7.5-7.5
			C151.274,332.02,147.917,328.661,143.774,328.661z"/>
		<path d="M448.387,0H191.871c-12.976,0-23.532,10.557-23.532,23.532v72.661h-56.629c-4.142,0-7.5,3.358-7.5,7.5v24.564H79.645
			c-4.142,0-7.5,3.358-7.5,7.5v24.564H47.581c-4.142,0-7.5,3.358-7.5,7.5V504.5c0,4.142,3.358,7.5,7.5,7.5h160.323
			c4.142,0,7.5-3.358,7.5-7.5v-24.564h24.564c4.142,0,7.5-3.358,7.5-7.5v-24.564h24.564c4.142,0,7.5-3.358,7.5-7.5v-56.629h168.855
			c12.976,0,23.532-10.557,23.532-23.532V23.532C471.919,10.557,461.363,0,448.387,0z M87.145,143.258h56.629
			c4.142,0,7.5-3.357,7.5-7.5c0-4.142-3.358-7.5-7.5-7.5h-24.565v-17.064h49.129v49.129H87.145V143.258z M200.403,497H55.081
			V175.322h113.258v128.379c-10.154-9.295-24.592-15.121-40.597-15.121c-16.005,0-30.443,5.826-40.597,15.121v-96.314h56.629
			c4.142,0,7.5-3.358,7.5-7.5s-3.358-7.5-7.5-7.5H79.645c-4.142,0-7.5,3.358-7.5,7.5v272.548c0,4.142,3.358,7.5,7.5,7.5h96.194
			c4.142,0,7.5-3.358,7.5-7.5v-64.129c0-4.143-3.358-7.5-7.5-7.5s-7.5,3.357-7.5,7.5v56.629H87.145v-96.314
			c10.154,9.294,24.591,15.121,40.597,15.121c16.63,0,31.567-6.29,41.764-16.225c3.082,9.408,11.94,16.225,22.365,16.225h8.532V497z
			 M127.742,368.742c-22.385,0-40.597-14.616-40.597-32.581c0-17.965,18.211-32.581,40.597-32.581s40.597,14.616,40.597,32.581
			C168.339,354.126,150.127,368.742,127.742,368.742z M264.532,432.871h-17.064v-24.564c0-4.143-3.358-7.5-7.5-7.5
			s-7.5,3.357-7.5,7.5v56.629h-17.064v-81.193h49.129V432.871z M456.919,360.21c0,4.704-3.828,8.532-8.532,8.532H191.871
			c-4.705,0-8.532-3.828-8.532-8.532V23.532c0-4.705,3.828-8.532,8.532-8.532h256.516c4.705,0,8.532,3.828,8.532,8.532V360.21z"/>
		<path d="M416.323,48.097h-16.031c-4.142,0-7.5,3.358-7.5,7.5s3.358,7.5,7.5,7.5h16.031c0.285,0,0.516,0.231,0.516,0.516v32.065
			c0,0.284-0.231,0.516-0.516,0.516H223.936c-0.285,0-0.516-0.231-0.516-0.516V63.613c0-0.285,0.231-0.516,0.516-0.516h144.292
			c4.142,0,7.5-3.358,7.5-7.5s-3.358-7.5-7.5-7.5H223.936c-8.556,0-15.516,6.96-15.516,15.516v32.065
			c0,8.556,6.96,15.516,15.516,15.516h192.387c8.556,0,15.516-6.96,15.516-15.516V63.613
			C431.839,55.057,424.878,48.097,416.323,48.097z"/>
		<path d="M247.984,144.29h-16.032c-12.976,0-23.532,10.557-23.532,23.532c0,12.976,10.557,23.532,23.532,23.532h16.032
			c12.976,0,23.532-10.556,23.532-23.532C271.516,154.847,260.959,144.29,247.984,144.29z M247.984,176.354h-16.032
			c-4.705,0-8.532-3.827-8.532-8.532c0-4.704,3.828-8.532,8.532-8.532h16.032c4.705,0,8.532,3.828,8.532,8.532
			C256.516,172.527,252.688,176.354,247.984,176.354z"/>
		<path d="M328.145,144.29h-16.032c-12.976,0-23.532,10.557-23.532,23.532c0,12.976,10.557,23.532,23.532,23.532h16.032
			c12.976,0,23.532-10.556,23.532-23.532C351.677,154.847,341.121,144.29,328.145,144.29z M328.145,176.354h-16.032
			c-4.705,0-8.532-3.827-8.532-8.532c0-4.704,3.828-8.532,8.532-8.532h16.032c4.705,0,8.532,3.828,8.532,8.532
			C336.677,172.527,332.85,176.354,328.145,176.354z"/>
		<path d="M408.307,144.29h-16.032c-12.976,0-23.533,10.557-23.533,23.532c0,12.976,10.557,23.532,23.533,23.532h16.032
			c12.976,0,23.532-10.556,23.532-23.532C431.839,154.847,421.282,144.29,408.307,144.29z M408.307,176.354h-16.032
			c-4.705,0-8.533-3.827-8.533-8.532c0-4.704,3.828-8.532,8.533-8.532h16.032c4.705,0,8.532,3.828,8.532,8.532
			C416.839,172.527,413.011,176.354,408.307,176.354z"/>
		<path d="M247.984,208.419h-16.032c-12.976,0-23.532,10.556-23.532,23.532s10.557,23.532,23.532,23.532h16.032
			c12.976,0,23.532-10.556,23.532-23.532S260.959,208.419,247.984,208.419z M247.984,240.484h-16.032
			c-4.705,0-8.532-3.828-8.532-8.532s3.828-8.532,8.532-8.532h16.032c4.705,0,8.532,3.828,8.532,8.532
			S252.688,240.484,247.984,240.484z"/>
		<path d="M328.145,208.419h-16.032c-12.976,0-23.532,10.556-23.532,23.532s10.557,23.532,23.532,23.532h16.032
			c12.976,0,23.532-10.556,23.532-23.532S341.121,208.419,328.145,208.419z M328.145,240.484h-16.032
			c-4.705,0-8.532-3.828-8.532-8.532s3.828-8.532,8.532-8.532h16.032c4.705,0,8.532,3.828,8.532,8.532
			S332.85,240.484,328.145,240.484z"/>
		<path d="M408.307,208.419h-16.032c-12.976,0-23.533,10.556-23.533,23.532s10.557,23.532,23.533,23.532h16.032
			c12.976,0,23.532-10.556,23.532-23.532S421.282,208.419,408.307,208.419z M408.307,240.484h-16.032
			c-4.705,0-8.533-3.828-8.533-8.532s3.828-8.532,8.533-8.532h16.032c4.705,0,8.532,3.828,8.532,8.532
			S413.011,240.484,408.307,240.484z"/>
		<path d="M247.984,272.548h-16.032c-12.976,0-23.532,10.556-23.532,23.532s10.557,23.532,23.532,23.532h16.032
			c12.976,0,23.532-10.556,23.532-23.532S260.959,272.548,247.984,272.548z M247.984,304.613h-16.032
			c-4.705,0-8.532-3.828-8.532-8.532s3.828-8.532,8.532-8.532h16.032c4.705,0,8.532,3.828,8.532,8.532
			S252.688,304.613,247.984,304.613z"/>
		<path d="M328.145,272.548h-16.032c-12.976,0-23.532,10.556-23.532,23.532s10.557,23.532,23.532,23.532h16.032
			c12.976,0,23.532-10.556,23.532-23.532S341.121,272.548,328.145,272.548z M328.145,304.613h-16.032
			c-4.705,0-8.532-3.828-8.532-8.532s3.828-8.532,8.532-8.532h16.032c4.705,0,8.532,3.828,8.532,8.532
			S332.85,304.613,328.145,304.613z"/>
		<path d="M408.307,272.548h-16.032c-12.976,0-23.533,10.556-23.533,23.532s10.557,23.532,23.533,23.532h16.032
			c12.976,0,23.532-10.556,23.532-23.532S421.282,272.548,408.307,272.548z M408.307,304.613h-16.032
			c-4.705,0-8.533-3.828-8.533-8.532s3.828-8.532,8.533-8.532h16.032c4.705,0,8.532,3.828,8.532,8.532
			S413.011,304.613,408.307,304.613z"/>
	</g>
</g>
<g>
</g>
<g>
</g>
<g>
</g>
<g>
</g>
<g>
</g>
<g>
</g>
<g>
</g>
<g>
</g>
<g>
</g>
<g>
</g>
<g>
</g>
<g>
</g>
<g>
</g>
<g>
</g>
<g>
</g>
</svg>
