<?xml version="1.0" encoding="iso-8859-1"?>
<!-- Generator: Adobe Illustrator 22.0.0, SVG Export Plug-In . SVG Version: 6.00 Build 0)  -->
<svg version="1.1" id="Capa_1" xmlns="http://www.w3.org/2000/svg" xmlns:xlink="http://www.w3.org/1999/xlink" x="0px" y="0px"
	 viewBox="0 0 512 512" style="enable-background:new 0 0 512 512;" xml:space="preserve">
<g>
	<g>
		<rect x="39.565" y="39.565" style="fill:#F9EAC7;" width="400.806" height="88.177"/>
		<path style="fill:#D19A6E;" d="M392.274,103.694H31.548c-13.282,0-24.048,10.767-24.048,24.048v320.645
			c0,13.282,10.767,24.048,24.048,24.048h360.726c44.272,0,80.161-35.89,80.161-80.161V183.855
			C472.435,139.583,436.546,103.694,392.274,103.694z"/>
		<path style="fill:#C38C66;" d="M31.548,472.435h360.726c22.412,0,42.653-9.221,57.2-24.048H47.581
			c-8.84,0-16.032-7.192-16.032-16.032V103.694c-13.282,0-24.048,10.767-24.048,24.048v320.645
			C7.5,461.669,18.267,472.435,31.548,472.435z"/>
		<path style="fill:#C38C66;" d="M488.468,231.952h-104.21c-30.99,0-56.113,25.122-56.113,56.113
			c0,30.99,25.123,56.113,56.113,56.113h104.21c8.854,0,16.032-7.178,16.032-16.032v-80.161
			C504.5,239.129,497.322,231.952,488.468,231.952z"/>
		<circle style="fill:#F6D190;" cx="384.258" cy="288.065" r="24.048"/>
		<path style="fill:#B57F5F;" d="M357.755,305.524c-9.135-9.414-13.949-21.836-13.555-34.978c0.129-4.307,0.915-8.658,2.334-12.931
			l5.008-15.077c-14.15,10.187-23.397,26.758-23.397,45.526c0,30.99,25.123,56.113,56.113,56.113h104.21
			c8.854,0,16.032-7.178,16.032-16.032v-8.016H392.274C379.154,320.129,366.894,314.942,357.755,305.524z"/>
	</g>
	<g>
		<path d="M488.468,224.452h-56.629v-40.597c0-21.816-17.749-39.564-39.564-39.564H71.631c-4.142,0-7.5,3.358-7.5,7.5
			s3.358,7.5,7.5,7.5h320.644c13.545,0,24.564,11.02,24.564,24.564v40.597h-32.581c-35.076,0-63.613,28.537-63.613,63.613
			c0,35.076,28.537,63.613,63.613,63.613h80.678v40.597c0,40.066-32.596,72.661-72.661,72.661H31.548
			c-9.125,0-16.548-7.423-16.548-16.548v-16.548h377.274c21.816,0,39.564-17.749,39.564-39.565v-16.033c0-4.142-3.358-7.5-7.5-7.5
			s-7.5,3.358-7.5,7.5v16.033c0,13.545-11.02,24.565-24.564,24.565H15V159.29h24.562c4.142,0,7.5-3.358,7.5-7.5s-3.358-7.5-7.5-7.5
			H15v-16.548c0-9.125,7.423-16.548,16.548-16.548h360.726c40.065,0,72.661,32.596,72.661,72.661v16.03c0,4.142,3.358,7.5,7.5,7.5
			s7.5-3.358,7.5-7.5v-16.03c0-27.25-12.499-51.635-32.064-67.725V39.564c0-4.142-3.358-7.5-7.5-7.5H39.564
			c-4.142,0-7.5,3.358-7.5,7.5v56.629h-0.516C14.152,96.194,0,110.346,0,127.742v320.645c0,17.396,14.152,31.548,31.548,31.548
			h360.726c48.336,0,87.661-39.325,87.661-87.661v-40.597h8.532c12.976,0,23.532-10.556,23.532-23.532v-80.161
			C512,235.008,501.443,224.452,488.468,224.452z M432.871,47.064v59.115c-5.385-2.826-11.097-5.109-17.064-6.774V71.629
			c0-4.142-3.358-7.5-7.5-7.5H47.064V47.064H432.871z M47.064,79.129h353.742V96.61c-2.808-0.272-5.654-0.416-8.532-0.416H47.064
			V79.129z M497,328.145c0,4.705-3.828,8.532-8.532,8.532h-104.21c-26.805,0-48.613-21.808-48.613-48.613
			c0-26.805,21.808-48.613,48.613-48.613h104.21c4.705,0,8.532,3.828,8.532,8.532V328.145z"/>
		<path d="M384.258,256.516c-17.396,0-31.549,14.153-31.549,31.548s14.153,31.548,31.549,31.548s31.548-14.153,31.548-31.548
			S401.654,256.516,384.258,256.516z M384.258,304.613c-9.125,0-16.549-7.424-16.549-16.548s7.424-16.548,16.549-16.548
			s16.548,7.424,16.548,16.548S393.383,304.613,384.258,304.613z"/>
	</g>
</g>
<g>
</g>
<g>
</g>
<g>
</g>
<g>
</g>
<g>
</g>
<g>
</g>
<g>
</g>
<g>
</g>
<g>
</g>
<g>
</g>
<g>
</g>
<g>
</g>
<g>
</g>
<g>
</g>
<g>
</g>
</svg>
