<?xml version="1.0" encoding="iso-8859-1"?>
<!-- Generator: Adobe Illustrator 22.0.0, SVG Export Plug-In . SVG Version: 6.00 Build 0)  -->
<svg version="1.1" id="Capa_1" xmlns="http://www.w3.org/2000/svg" xmlns:xlink="http://www.w3.org/1999/xlink" x="0px" y="0px"
	 viewBox="0 0 512 512" style="enable-background:new 0 0 512 512;" xml:space="preserve">
<g>
	<g>
		<path style="fill:#F9EAC7;" d="M496.323,175.839H175.678c-4.427,0-9.322,3.589-10.934,8.016l-37.929,104.211l30.755,48.095H437.97
			c4.427,0,9.322-3.589,10.934-8.016l52.517-144.29C503.033,179.428,500.75,175.839,496.323,175.839z"/>
		
			<ellipse transform="matrix(0.7678 -0.6407 0.6407 0.7678 -113.2466 199.5259)" style="fill:#B6B1B7;" cx="218.646" cy="256" rx="19.213" ry="13.378"/>
		
			<ellipse transform="matrix(0.7678 -0.6407 0.6407 0.7678 -72.2976 312.5139)" style="fill:#B9CDA5;" cx="395.001" cy="256" rx="19.213" ry="13.378"/>
		<path style="fill:#F4DBB3;" d="M163.581,311.551l-14.551-17.036l43.195-118.676h-16.547c-4.428,0-9.323,3.589-10.934,8.016
			l-37.93,104.211l30.755,48.095h280.4c4.428,0,9.323-3.589,10.934-8.016l5.836-16.595H163.581z"/>
		
			<ellipse transform="matrix(0.62 -0.7846 0.7846 0.62 -84.26 338.0386)" style="fill:#9B959D;" cx="306.824" cy="256" rx="54.576" ry="35.322"/>
		<path style="fill:#EAC89F;" d="M126.976,288.065l30.591,48.097l13.59-37.339c1.903-5.228-1.969-10.758-7.533-10.758H126.976z"/>
	</g>
	<g>
		<path d="M510.644,171.537c-1.403-2.005-3.697-3.198-6.144-3.198H167.823c-3.153,0-5.969,1.972-7.048,4.935l-40.848,112.227
			c-0.797,2.189-0.531,4.625,0.72,6.591l30.593,48.095c1.376,2.164,3.763,3.475,6.328,3.475h288.58c3.153,0,5.969-1.972,7.048-4.935
			l58.353-160.323C512.385,176.104,512.047,173.541,510.644,171.537z M155.726,319.291l-15.092-23.727h23.728L155.726,319.291z
			 M440.896,328.661H168.278l13.842-38.032c0.837-2.3,0.5-4.863-0.904-6.867c-1.403-2.005-3.697-3.198-6.144-3.198h-37.385
			l35.387-97.226h320.715L440.896,328.661z"/>
		<path d="M168.146,263.048c0.847,0.308,1.712,0.454,2.564,0.454c3.063,0,5.94-1.891,7.048-4.937l15.709-43.162h93.691
			c-11.828,9.567-21.821,22.969-27.303,38.031c-5.979,16.427-5.408,32.017,1.477,43.162h-60.031c-4.142,0-7.5,3.358-7.5,7.5
			s3.358,7.5,7.5,7.5h224.451c3.153,0,5.969-1.972,7.048-4.935l35.012-96.193c0.837-2.3,0.5-4.863-0.904-6.867
			c-1.403-2.004-3.697-3.198-6.144-3.198h-16.032c-4.142,0-7.5,3.358-7.5,7.5s3.358,7.5,7.5,7.5h5.321l-29.552,81.193h-93.691
			c11.828-9.567,21.821-22.969,27.303-38.031c5.979-16.427,5.408-32.017-1.477-43.162h60.031c4.142,0,7.5-3.358,7.5-7.5
			s-3.358-7.5-7.5-7.5h-224.45c-3.153,0-5.969,1.972-7.048,4.935l-17.506,48.097C162.247,257.327,164.253,261.631,168.146,263.048z
			 M339.323,222.412c4.938,7.053,5.198,18.65,0.695,31.023c-8.515,23.396-31.659,43.162-50.539,43.162
			c-6.585,0-11.575-2.358-14.832-7.009c-4.938-7.053-5.199-18.65-0.695-31.023c8.515-23.396,31.659-43.162,50.539-43.162
			C331.076,215.403,336.066,217.762,339.323,222.412z"/>
		<path d="M212.972,279.532c11.935,0,24.636-9.21,28.916-20.967c2.453-6.739,1.831-13.501-1.707-18.552
			c-3.357-4.795-9.021-7.545-15.538-7.545c-11.935,0-24.636,9.21-28.915,20.967c-2.453,6.739-1.831,13.501,1.707,18.553
			C200.792,276.782,206.455,279.532,212.972,279.532z M209.823,258.565c2.151-5.912,9.077-11.097,14.819-11.097
			c0.914,0,2.551,0.149,3.251,1.149c0.67,0.958,0.632,2.804-0.102,4.818c-2.151,5.912-9.077,11.097-14.82,11.097
			c-0.914,0-2.551-0.149-3.25-1.148C209.051,262.426,209.09,260.58,209.823,258.565z"/>
		<path d="M400.998,232.468c-11.935,0-24.636,9.21-28.915,20.967c-2.453,6.739-1.832,13.501,1.706,18.552
			c3.357,4.795,9.021,7.545,15.539,7.545c11.935,0,24.636-9.21,28.915-20.967c0,0,0,0,0,0c2.453-6.739,1.831-13.501-1.707-18.552
			C413.178,235.218,407.515,232.468,400.998,232.468z M404.147,253.435c-2.152,5.912-9.078,11.098-14.82,11.098
			c-0.914,0-2.551-0.149-3.251-1.149c-0.67-0.958-0.631-2.804,0.102-4.818c2.151-5.912,9.077-11.097,14.819-11.097
			c0.914,0,2.551,0.149,3.251,1.149C404.919,249.574,404.88,251.42,404.147,253.435z"/>
		<path d="M298.585,279.08c0.847,0.308,1.712,0.454,2.564,0.454c3.063,0,5.94-1.891,7.048-4.937l11.67-32.064
			c1.417-3.892-0.59-8.196-4.483-9.613c-3.892-1.417-8.196,0.59-9.613,4.482l-11.67,32.064
			C292.686,273.359,294.692,277.663,298.585,279.08z"/>
		<path d="M127.226,191.871c0-4.142-3.358-7.5-7.5-7.5H7.5c-4.142,0-7.5,3.358-7.5,7.5s3.358,7.5,7.5,7.5h112.226
			C123.868,199.371,127.226,196.013,127.226,191.871z"/>
		<path d="M111.709,216.436H31.548c-4.142,0-7.5,3.358-7.5,7.5s3.358,7.5,7.5,7.5h80.161c4.142,0,7.5-3.358,7.5-7.5
			S115.852,216.436,111.709,216.436z"/>
		<path d="M103.693,248.5H55.597c-4.142,0-7.5,3.358-7.5,7.5c0,4.142,3.358,7.5,7.5,7.5h48.097c4.142,0,7.5-3.358,7.5-7.5
			C111.193,251.858,107.835,248.5,103.693,248.5z"/>
	</g>
</g>
<g>
</g>
<g>
</g>
<g>
</g>
<g>
</g>
<g>
</g>
<g>
</g>
<g>
</g>
<g>
</g>
<g>
</g>
<g>
</g>
<g>
</g>
<g>
</g>
<g>
</g>
<g>
</g>
<g>
</g>
</svg>
