<?xml version="1.0" encoding="iso-8859-1"?>
<!-- Generator: Adobe Illustrator 22.0.0, SVG Export Plug-In . SVG Version: 6.00 Build 0)  -->
<svg version="1.1" id="Capa_1" xmlns="http://www.w3.org/2000/svg" xmlns:xlink="http://www.w3.org/1999/xlink" x="0px" y="0px"
	 viewBox="0 0 512 512" style="enable-background:new 0 0 512 512;" xml:space="preserve">
<g>
	<g>
		<path style="fill:#FFE09F;" d="M7.5,328.145l12.378,37.134c2.182,6.547,8.309,10.963,15.21,10.963h153.244
			c6.901,0,13.028-4.416,15.21-10.963l12.378-37.134H7.5z"/>
		<path style="fill:#FFE09F;" d="M352.194,472.436H159.807c-4.427,0-8.016-3.589-8.016-8.016v-16.032
			c0-4.427,3.589-8.016,8.016-8.016h192.387c4.427,0,8.016,3.589,8.016,8.016v16.032
			C360.21,468.847,356.621,472.436,352.194,472.436z"/>
		<circle style="fill:#F6D190;" cx="256" cy="55.597" r="16.032"/>
		<path style="fill:#F6D190;" d="M159.807,472.436h48.097v-32.065h-48.097c-4.427,0-8.016,3.589-8.016,8.016v16.032
			C151.79,468.847,155.379,472.436,159.807,472.436z"/>
		<path style="fill:#F6D190;" d="M71.629,352.194c-8.84,0-16.032-7.192-16.032-16.032v-8.016H7.5l12.378,37.134
			c2.182,6.547,8.308,10.963,15.209,10.963h153.244c6.902,0,13.027-4.416,15.209-10.963l4.362-13.085H71.629z"/>
		<rect x="15.516" y="296.081" style="fill:#DCDCA0;" width="96.194" height="32.065"/>
		<rect x="111.71" y="296.081" style="fill:#DCDCA0;" width="96.194" height="32.065"/>
		<rect x="111.71" y="296.081" style="fill:#B9CDA5;" width="24.048" height="32.065"/>
		<rect x="15.516" y="296.081" style="fill:#B9CDA5;" width="24.048" height="32.065"/>
		<rect x="15.516" y="264.016" style="fill:#F9EAC7;" width="96.194" height="32.065"/>
		<rect x="111.71" y="264.016" style="fill:#F9EAC7;" width="96.194" height="32.065"/>
		<rect x="111.71" y="264.016" style="fill:#DCDCA0;" width="24.048" height="32.065"/>
		<rect x="15.516" y="264.016" style="fill:#DCDCA0;" width="24.048" height="32.065"/>
		<rect x="63.613" y="231.952" style="fill:#DCDCA0;" width="96.194" height="32.065"/>
		<rect x="63.613" y="231.952" style="fill:#B9CDA5;" width="24.048" height="32.065"/>
		<rect x="63.613" y="199.887" style="fill:#F9EAC7;" width="96.194" height="32.065"/>
		<rect x="63.613" y="199.887" style="fill:#DCDCA0;" width="24.048" height="32.065"/>
		<path style="fill:#FFE09F;" d="M296.081,328.145l12.378,37.134c2.182,6.547,8.309,10.963,15.21,10.963h153.244
			c6.901,0,13.028-4.416,15.21-10.963l12.378-37.134H296.081z"/>
		<path style="fill:#F6D190;" d="M360.21,352.194c-8.84,0-16.032-7.192-16.032-16.032v-8.016h-48.097l12.378,37.134
			c2.182,6.547,8.308,10.963,15.209,10.963h153.244c6.902,0,13.027-4.416,15.209-10.963l4.362-13.085H360.21z"/>
		<rect x="304.097" y="296.081" style="fill:#DCDCA0;" width="96.194" height="32.065"/>
		<rect x="400.29" y="296.081" style="fill:#DCDCA0;" width="96.194" height="32.065"/>
		<rect x="400.29" y="296.081" style="fill:#B9CDA5;" width="24.048" height="32.065"/>
		<rect x="304.097" y="296.081" style="fill:#B9CDA5;" width="24.048" height="32.065"/>
		<rect x="304.097" y="264.016" style="fill:#F9EAC7;" width="96.194" height="32.065"/>
		<rect x="400.29" y="264.016" style="fill:#F9EAC7;" width="96.194" height="32.065"/>
		<rect x="400.29" y="264.016" style="fill:#DCDCA0;" width="24.048" height="32.065"/>
		<rect x="304.097" y="264.016" style="fill:#DCDCA0;" width="24.048" height="32.065"/>
		<rect x="352.194" y="231.952" style="fill:#DCDCA0;" width="96.194" height="32.065"/>
		<rect x="352.194" y="231.952" style="fill:#B9CDA5;" width="24.048" height="32.065"/>
		<rect x="352.194" y="199.887" style="fill:#F9EAC7;" width="96.194" height="32.065"/>
		<rect x="352.194" y="199.887" style="fill:#DCDCA0;" width="24.048" height="32.065"/>
	</g>
	<path d="M510.585,323.76c-1.41-1.956-3.674-3.115-6.084-3.115h-0.516v-56.629c0-4.142-3.358-7.5-7.5-7.5h-11.115l-74.443-171.22
		c12.178-4.374,20.913-16.034,20.913-29.699c0-4.142-3.358-7.5-7.5-7.5s-7.5,3.358-7.5,7.5c0,9.125-7.423,16.549-16.548,16.549
		c-6.663,0-12.648-3.965-15.248-10.101c-3.589-8.473-12.262-13.947-22.094-13.947H278.3c-3.139-9.308-11.946-16.032-22.3-16.032
		c-10.354,0-19.16,6.724-22.3,16.032h-84.649c-9.833,0-18.505,5.475-22.094,13.947c-2.6,6.136-8.585,10.101-15.248,10.101
		c-9.125,0-16.548-7.424-16.548-16.549c0-4.142-3.358-7.5-7.5-7.5s-7.5,3.358-7.5,7.5c0,13.665,8.735,25.325,20.913,29.699
		l-74.443,171.22H15.516c-4.142,0-7.5,3.358-7.5,7.5v56.629H7.5c-2.411,0-4.675,1.159-6.084,3.115
		c-1.41,1.956-1.793,4.47-1.031,6.757l12.378,37.135c3.209,9.624,12.181,16.09,22.325,16.09h153.244
		c10.145,0,19.117-6.466,22.325-16.091l12.378-37.134c0.762-2.287,0.379-4.801-1.031-6.757s-3.674-3.115-6.084-3.115h-0.516v-56.629
		c0-4.142-3.358-7.5-7.5-7.5h-11.115L122.342,85.29c8.157-2.914,14.916-9.106,18.427-17.395c1.216-2.87,4.544-4.798,8.283-4.798
		h84.649c2.344,6.951,7.849,12.456,14.8,14.8v354.975h-88.693c-8.556,0-15.516,6.96-15.516,15.516v16.032
		c0,8.556,6.96,15.516,15.516,15.516h192.387c8.556,0,15.516-6.96,15.516-15.516v-16.032c0-8.556-6.96-15.516-15.516-15.516H263.5
		V77.897c6.951-2.344,12.455-7.849,14.8-14.8h84.649c3.738,0,7.067,1.928,8.283,4.798c3.511,8.288,10.271,14.48,18.427,17.395
		l-74.447,171.227h-11.115c-4.142,0-7.5,3.358-7.5,7.5v56.629h-0.516c-2.411,0-4.675,1.159-6.084,3.115s-1.793,4.47-1.031,6.757
		l12.378,37.134c3.208,9.625,12.18,16.091,22.325,16.091h153.244c10.145,0,19.116-6.466,22.325-16.091l12.378-37.134
		C512.378,328.23,511.994,325.716,510.585,323.76z M71.113,256.516v-17.064h81.194v17.064H71.113z M152.307,224.452H71.113v-17.064
		h81.194V224.452z M70.869,192.387l40.84-93.932l40.84,93.932H70.869z M56.113,226.328v30.188H42.987L56.113,226.328z
		 M104.21,271.516v17.064H23.016v-17.064H104.21z M23.016,303.581h81.193v17.065H23.016V303.581z M191.871,320.645
		c-4.142,0-7.5,3.358-7.5,7.5s3.358,7.5,7.5,7.5h13.643l-9.088,27.263c-1.163,3.49-4.416,5.834-8.094,5.834H35.088
		c-3.678,0-6.932-2.345-8.095-5.834l-9.087-27.263h141.903c4.142,0,7.5-3.358,7.5-7.5s-3.358-7.5-7.5-7.5H119.21v-17.065h81.194
		v17.065H191.871z M200.403,288.581H119.21v-17.064h81.194V288.581z M167.307,256.516v-30.188l13.125,30.188H167.307z
		 M352.71,448.387v16.032c0,0.285-0.231,0.516-0.516,0.516H159.807c-0.285,0-0.516-0.231-0.516-0.516v-16.032
		c0-0.285,0.231-0.516,0.516-0.516h192.387C352.478,447.871,352.71,448.103,352.71,448.387z M256,64.129
		c-4.705,0-8.532-3.828-8.532-8.532c0-4.705,3.828-8.532,8.532-8.532c4.705,0,8.532,3.828,8.532,8.532
		C264.532,60.302,260.705,64.129,256,64.129z M488.984,288.581h-81.193v-17.064h81.193V288.581z M440.887,224.452h-81.194v-17.064
		h81.194V224.452z M359.45,192.387l40.84-93.932l40.84,93.932H359.45z M359.693,239.452h81.194v17.064h-81.194V239.452z
		 M455.887,256.516v-30.188l13.125,30.188H455.887z M344.693,226.328v30.188h-13.125L344.693,226.328z M392.791,271.516v17.064
		h-81.194v-17.064H392.791z M311.597,303.581h81.194v17.065h-81.194V303.581z M485.007,362.908c-1.164,3.49-4.417,5.834-8.095,5.834
		H323.669c-3.678,0-6.931-2.344-8.094-5.834l-9.088-27.262H448.39c4.142,0,7.5-3.358,7.5-7.5s-3.358-7.5-7.5-7.5h-40.599v-17.065
		h81.193v17.065h-8.532c-4.142,0-7.5,3.358-7.5,7.5s3.358,7.5,7.5,7.5h13.643L485.007,362.908z"/>
</g>
<g>
</g>
<g>
</g>
<g>
</g>
<g>
</g>
<g>
</g>
<g>
</g>
<g>
</g>
<g>
</g>
<g>
</g>
<g>
</g>
<g>
</g>
<g>
</g>
<g>
</g>
<g>
</g>
<g>
</g>
</svg>
