<?xml version="1.0" encoding="iso-8859-1"?>
<!-- Generator: Adobe Illustrator 22.0.0, SVG Export Plug-In . SVG Version: 6.00 Build 0)  -->
<svg version="1.1" id="Capa_1" xmlns="http://www.w3.org/2000/svg" xmlns:xlink="http://www.w3.org/1999/xlink" x="0px" y="0px"
	 viewBox="0 0 512 512" style="enable-background:new 0 0 512 512;" xml:space="preserve">
<g>
	<g>
		<path style="fill:#EDF4FF;" d="M95.677,472.435c0,17.709,14.356,32.065,32.065,32.065h256.516
			c17.709,0,32.065-14.356,32.065-32.065V139.648c0-12.756-5.067-24.99-14.087-34.01l-11.906-11.906
			c-9.02-9.02-14.087-21.253-14.087-34.01v-8.456c0-5.546,2.704-10.979,7.587-13.607c5.028-2.706,8.445-8.017,8.445-14.127l0,0
			c0-8.854-7.178-16.032-16.032-16.032H135.758c-8.854,0-16.032,7.178-16.032,16.032l0,0c0,6.109,3.417,11.421,8.445,14.127
			c4.883,2.628,7.587,8.062,7.587,13.607v8.456c0,12.756-5.067,24.99-14.087,34.01l-11.906,11.906
			c-9.02,9.02-14.087,21.253-14.087,34.01V472.435z"/>
		<path style="fill:#DBEAFF;" d="M175.839,464.419V7.5l-39.223,0c-7.986,0-15.387,5.457-16.67,13.339
			c-1.167,7.171,2.428,13.646,8.123,16.765c4.901,2.683,7.689,8.066,7.689,13.653v7.43c0,13.793-5.067,26.026-14.087,35.045
			l-11.907,11.906c-9.02,9.019-14.087,21.252-14.087,34.008v332.789c0,17.709,14.356,32.065,32.065,32.065h256.516
			c14.924,0,27.355-10.944,30.931-24.75H191.871C183.017,479.75,175.839,473.274,175.839,464.419z"/>
		<circle style="fill:#FFE09F;" cx="215.919" cy="312.113" r="32.065"/>
		<circle style="fill:#F6D190;" cx="296.081" cy="231.952" r="32.065"/>
		
			<ellipse transform="matrix(0.7071 -0.7071 0.7071 0.7071 -29.2497 206.6531)" style="fill:#FFE09F;" cx="234.827" cy="138.634" rx="32.065" ry="20.527"/>
		<g>
			<rect x="247.984" y="312.113" style="fill:#F6D190;" width="64.129" height="32.065"/>
			<rect x="247.984" y="312.113" style="fill:#ECBD83;" width="24.048" height="32.065"/>
			<rect x="151.79" y="344.177" style="fill:#FFE09F;" width="64.129" height="32.065"/>
			<rect x="151.79" y="344.177" style="fill:#F6D190;" width="24.048" height="32.065"/>
			<rect x="215.919" y="344.177" style="fill:#FFE09F;" width="64.129" height="32.065"/>
			<rect x="215.919" y="344.177" style="fill:#F6D190;" width="24.048" height="32.065"/>
			<rect x="280.048" y="344.177" style="fill:#FFE09F;" width="64.129" height="32.065"/>
			<rect x="280.048" y="344.177" style="fill:#F6D190;" width="24.048" height="32.065"/>
			<rect x="127.742" y="408.306" style="fill:#FFE09F;" width="64.129" height="32.065"/>
			<rect x="127.742" y="408.306" style="fill:#F6D190;" width="24.048" height="32.065"/>
			<rect x="191.871" y="408.306" style="fill:#FFE09F;" width="64.129" height="32.065"/>
			<rect x="191.871" y="408.306" style="fill:#F6D190;" width="24.048" height="32.065"/>
			<rect x="256" y="408.306" style="fill:#FFE09F;" width="64.129" height="32.065"/>
			<rect x="256" y="408.306" style="fill:#F6D190;" width="24.048" height="32.065"/>
			<rect x="320.129" y="408.306" style="fill:#FFE09F;" width="64.129" height="32.065"/>
			<rect x="320.129" y="408.306" style="fill:#F6D190;" width="24.048" height="32.065"/>
			<rect x="304.097" y="376.242" style="fill:#F6D190;" width="64.129" height="32.065"/>
			<rect x="304.097" y="376.242" style="fill:#ECBD83;" width="24.048" height="32.065"/>
			<rect x="239.968" y="376.242" style="fill:#F6D190;" width="64.129" height="32.065"/>
			<rect x="239.968" y="376.242" style="fill:#ECBD83;" width="24.048" height="32.065"/>
			<rect x="175.839" y="376.242" style="fill:#F6D190;" width="64.129" height="32.065"/>
			<rect x="175.839" y="376.242" style="fill:#ECBD83;" width="24.048" height="32.065"/>
			<rect x="272.032" y="440.371" style="fill:#F6D190;" width="64.129" height="32.065"/>
			<rect x="272.032" y="440.371" style="fill:#ECBD83;" width="24.048" height="32.065"/>
			<rect x="207.903" y="440.371" style="fill:#F6D190;" width="64.129" height="32.065"/>
			<rect x="207.903" y="440.371" style="fill:#ECBD83;" width="24.048" height="32.065"/>
			<rect x="143.774" y="440.371" style="fill:#F6D190;" width="64.129" height="32.065"/>
			<rect x="143.774" y="440.371" style="fill:#ECBD83;" width="24.048" height="32.065"/>
		</g>
	</g>
	<g>
		<path d="M407.539,100.335l-11.906-11.906c-7.668-7.668-11.891-17.863-11.891-28.706V45.839
			c9.311-3.138,16.033-11.952,16.033-22.307C399.774,10.556,389.218,0,376.242,0H135.758c-12.976,0-23.533,10.556-23.533,23.532
			c0,10.355,6.722,19.169,16.033,22.307v13.884c0,10.844-4.223,21.038-11.891,28.706l-11.906,11.906
			c-10.501,10.5-16.284,24.462-16.284,39.313v276.675c0,4.142,3.358,7.5,7.5,7.5s7.5-3.358,7.5-7.5V139.648
			c0-10.844,4.223-21.039,11.891-28.706l11.906-11.906c10.501-10.501,16.284-24.462,16.284-39.313V47.064h176.871
			c4.142,0,7.5-3.358,7.5-7.5s-3.358-7.5-7.5-7.5H135.758c-4.705,0-8.533-3.828-8.533-8.532c0-4.705,3.828-8.532,8.533-8.532
			h240.483c4.705,0,8.533,3.827,8.533,8.532c0,4.705-3.828,8.532-8.533,8.532h-24.048c-4.142,0-7.5,3.358-7.5,7.5s3.358,7.5,7.5,7.5
			h16.548v12.658c0,14.85,5.783,28.812,16.284,39.313l11.906,11.906c7.668,7.667,11.891,17.862,11.891,28.706v332.787
			c0,13.545-11.02,24.564-24.564,24.564H127.742c-13.545,0-24.564-11.02-24.564-24.564v-24.048c0-4.142-3.358-7.5-7.5-7.5
			s-7.5,3.358-7.5,7.5v24.048c0,21.816,17.749,39.564,39.564,39.564h256.517c21.816,0,39.564-17.749,39.564-39.564V139.648
			C423.823,124.798,418.04,110.836,407.539,100.335z"/>
		<path d="M127.742,400.806c-4.142,0-7.5,3.358-7.5,7.5v32.065c0,4.142,3.358,7.5,7.5,7.5h8.533v24.564c0,4.142,3.358,7.5,7.5,7.5
			h192.387c4.142,0,7.5-3.358,7.5-7.5v-24.564h40.597c4.142,0,7.5-3.358,7.5-7.5v-32.065c0-4.142-3.358-7.5-7.5-7.5h-8.533v-24.564
			c0-4.142-3.358-7.5-7.5-7.5h-16.548v-24.564c0-4.142-3.358-7.5-7.5-7.5h-24.564v-24.565c0-4.142-3.358-7.5-7.5-7.5h-57.351
			c-3.516-18.24-19.591-32.064-38.842-32.064c-21.816,0-39.564,17.749-39.564,39.564c0,9.277,3.217,17.811,8.584,24.565h-33.148
			c-4.142,0-7.5,3.358-7.5,7.5v32.064c0,4.142,3.358,7.5,7.5,7.5h16.548v17.064H127.742z M135.242,415.806l49.129,0v17.064h-49.129
			V415.806z M223.419,351.677h49.129v17.064h-49.129V351.677z M247.468,383.742h49.129v17.064h-49.129V383.742z M263.5,432.871
			v-17.064h49.129v17.064H263.5z M248.5,415.807v17.064h-49.129v-17.064H248.5z M151.274,447.871h49.129v17.064h-49.129V447.871z
			 M215.403,447.871h49.129v17.064h-49.129V447.871z M328.661,464.936h-49.129v-17.064h49.129V464.936z M376.758,432.871h-49.129
			v-17.064l49.129,0V432.871z M360.726,400.806h-49.129v-17.064h49.129V400.806z M336.677,368.742h-49.129v-17.064h49.129V368.742z
			 M304.613,336.677h-49.129v-17.065h49.129V336.677z M191.355,312.113c0-13.545,11.02-24.564,24.564-24.564
			s24.564,11.02,24.564,24.564s-11.02,24.565-24.564,24.565S191.355,325.658,191.355,312.113z M159.291,351.677h49.129v17.064
			h-49.129V351.677z M183.339,383.742h49.129v17.064h-49.129V383.742z"/>
		<path d="M296.081,271.516c21.816,0,39.564-17.749,39.564-39.564s-17.749-39.564-39.564-39.564s-39.564,17.749-39.564,39.564
			S274.265,271.516,296.081,271.516z M296.081,207.387c13.545,0,24.564,11.02,24.564,24.564s-11.02,24.564-24.564,24.564
			s-24.564-11.02-24.564-24.564S282.536,207.387,296.081,207.387z"/>
		<path d="M215.01,118.816c-15.688,15.688-19.271,36.681-8.159,47.794c4.353,4.353,10.218,6.45,16.689,6.45
			c10.052,0,21.562-5.065,31.105-14.608c15.688-15.688,19.271-36.681,8.159-47.794C251.691,99.545,230.698,103.129,215.01,118.816z
			 M253.797,131.258c-1.22,5.559-4.777,11.605-9.759,16.587c-4.982,4.982-11.028,8.539-16.587,9.759
			c-4.374,0.959-8.016,0.377-9.994-1.6c-4.348-4.348-1.783-16.64,8.159-26.581c6.848-6.847,14.81-10.195,20.523-10.195
			c2.582,0,4.705,0.684,6.058,2.037C254.174,123.241,254.757,126.883,253.797,131.258z"/>
	</g>
</g>
<g>
</g>
<g>
</g>
<g>
</g>
<g>
</g>
<g>
</g>
<g>
</g>
<g>
</g>
<g>
</g>
<g>
</g>
<g>
</g>
<g>
</g>
<g>
</g>
<g>
</g>
<g>
</g>
<g>
</g>
</svg>
