<?xml version="1.0" encoding="iso-8859-1"?>
<!-- Generator: Adobe Illustrator 22.0.0, SVG Export Plug-In . SVG Version: 6.00 Build 0)  -->
<svg version="1.1" id="Capa_1" xmlns="http://www.w3.org/2000/svg" xmlns:xlink="http://www.w3.org/1999/xlink" x="0px" y="0px"
	 viewBox="0 0 512 512" style="enable-background:new 0 0 512 512;" xml:space="preserve">
<g>
	<g>
		<circle style="fill:#F6D190;" cx="256" cy="424.339" r="80.161"/>
		<path style="fill:#ECBD83;" d="M272.032,488.468c-44.272,0-80.161-35.89-80.161-80.161c0-18.043,6.034-34.637,16.094-48.034
			c-19.473,14.625-32.126,37.838-32.126,64.066c0,44.272,35.89,80.161,80.161,80.161c26.228,0,49.442-12.654,64.066-32.127
			C306.669,482.434,290.076,488.468,272.032,488.468z"/>
		<circle style="fill:#C3DDFF;" cx="424.339" cy="256" r="80.161"/>
		<path style="fill:#A4CCFF;" d="M440.371,320.129c-44.272,0-80.161-35.89-80.161-80.161c0-18.043,6.034-34.637,16.094-48.034
			c-19.473,14.625-32.126,37.838-32.126,64.066c0,44.272,35.89,80.161,80.161,80.161c26.228,0,49.442-12.654,64.066-32.127
			C475.008,314.095,458.415,320.129,440.371,320.129z"/>
		<circle style="fill:#FF9A9F;" cx="87.661" cy="256" r="80.161"/>
		<path style="fill:#FF8086;" d="M103.694,320.129c-44.272,0-80.161-35.89-80.161-80.161c0-18.043,6.034-34.637,16.094-48.034
			C20.153,206.559,7.5,229.772,7.5,256c0,44.272,35.89,80.161,80.161,80.161c26.228,0,49.442-12.654,64.066-32.127
			C138.331,314.095,121.737,320.129,103.694,320.129z"/>
		<circle style="fill:#DCDCA0;" cx="256" cy="87.661" r="80.161"/>
		<path style="fill:#B9CDA5;" d="M272.032,151.79c-44.272,0-80.161-35.89-80.161-80.161c0-18.043,6.034-34.637,16.094-48.034
			c-19.473,14.625-32.126,37.838-32.126,64.066c0,44.272,35.89,80.161,80.161,80.161c26.228,0,49.442-12.654,64.066-32.127
			C306.669,145.756,290.076,151.79,272.032,151.79z"/>
	</g>
	<g>
		<path d="M424.339,168.339c-13.823,0-26.905,3.22-38.545,8.943c-12.698-20.914-30.177-38.38-51.079-51.069
			c5.725-11.641,8.947-24.727,8.947-38.552c0-17.239-5.031-33.95-14.55-48.325c-2.287-3.454-6.941-4.4-10.394-2.113
			c-3.454,2.287-4.399,6.94-2.113,10.394c7.888,11.912,12.057,25.759,12.057,40.043c0,40.066-32.596,72.662-72.661,72.662
			s-72.661-32.596-72.661-72.662C183.339,47.596,215.935,15,256,15c14.285,0,28.131,4.169,40.042,12.058
			c3.453,2.287,8.106,1.342,10.394-2.112c2.287-3.454,1.342-8.107-2.112-10.394C289.95,5.032,273.239,0,256,0
			c-48.336,0-87.661,39.325-87.661,87.661c0,13.819,3.219,26.899,8.939,38.537c-20.872,12.68-38.387,30.201-51.073,51.083
			c-11.639-5.722-24.722-8.942-38.543-8.942C39.325,168.339,0,207.664,0,256s39.325,87.661,87.661,87.661
			c13.821,0,26.902-3.22,38.541-8.941c12.698,20.913,30.187,38.379,51.083,51.067c-5.725,11.641-8.947,24.727-8.947,38.552
			C168.339,472.675,207.664,512,256,512s87.661-39.325,87.661-87.661c0-13.453-3.077-26.578-8.947-38.528
			c20.921-12.702,38.386-30.204,51.071-51.097c11.642,5.725,24.728,8.947,38.553,8.947C472.675,343.661,512,304.336,512,256
			S472.675,168.339,424.339,168.339z M15,256c0-40.065,32.596-72.661,72.661-72.661c40.066,0,72.662,32.596,72.662,72.661
			s-32.596,72.661-72.662,72.661C47.596,328.661,15,296.065,15,256z M326.17,373.433c-2.314-1.137-5.15-1.058-7.453,0.469
			c-3.454,2.287-4.399,6.94-2.113,10.394c7.888,11.912,12.057,25.759,12.057,40.043C328.661,464.404,296.065,497,256,497
			s-72.661-32.596-72.661-72.661c0-40.066,32.596-72.662,72.661-72.662c14.284,0,28.13,4.169,40.042,12.058
			c3.453,2.286,8.106,1.34,10.395-2.112c2.287-3.454,1.341-8.107-2.112-10.395c-14.376-9.52-31.086-14.551-48.325-14.551
			c-29.152,0-55.022,14.308-70.969,36.267c-18.806-11.427-34.546-27.148-45.984-45.969c21.963-15.946,36.275-41.818,36.275-70.975
			c0-29.156-14.312-55.028-36.274-70.974c11.427-18.792,27.192-34.561,45.975-45.981c15.946,21.965,41.819,36.278,70.977,36.278
			c29.152,0,55.022-14.308,70.969-36.267c18.811,11.429,34.544,27.15,45.98,45.972c-21.961,15.946-36.271,41.817-36.271,70.972
			c0,29.152,14.308,55.021,36.266,70.968C361.358,346.034,345.349,361.955,326.17,373.433z M424.339,328.661
			c-40.066,0-72.662-32.596-72.662-72.661s32.596-72.661,72.662-72.661C464.404,183.339,497,215.935,497,256
			S464.404,328.661,424.339,328.661z"/>
		<path d="M256,63.987c7.539,0,12.541,3.695,12.541,6.139c0,4.142,3.358,7.5,7.5,7.5s7.5-3.358,7.5-7.5
			c0-9.85-8.356-17.92-20.041-20.369v-2.176c0-4.142-3.358-7.5-7.5-7.5s-7.5,3.358-7.5,7.5v2.176
			c-11.685,2.449-20.041,10.52-20.041,20.369c0,16.495,15.792,21.612,25.228,24.67c13.788,4.468,14.853,7.129,14.853,10.401
			c0,2.444-5.001,6.138-12.541,6.138s-12.541-3.694-12.541-6.138c0-4.142-3.358-7.5-7.5-7.5s-7.5,3.358-7.5,7.5
			c0,9.849,8.356,17.919,20.041,20.369v2.176c0,4.142,3.358,7.5,7.5,7.5s7.5-3.358,7.5-7.5v-2.176
			c11.685-2.449,20.041-10.52,20.041-20.369c0-16.494-15.792-21.612-25.229-24.67c-13.787-4.468-14.853-7.129-14.853-10.4
			C243.459,67.682,248.461,63.987,256,63.987z"/>
		<path d="M107.955,277.282c-3.71,2.147-7.956,3.282-12.277,3.282c-10.93,0-20.211-7.177-23.389-17.064h23.389
			c4.142,0,7.5-3.358,7.5-7.5s-3.358-7.5-7.5-7.5H72.288c3.178-9.887,12.46-17.064,23.389-17.064c4.312,0,8.548,1.13,12.254,3.269
			c3.586,2.069,8.174,0.84,10.245-2.748c2.07-3.587,0.84-8.174-2.748-10.245c-5.981-3.452-12.812-5.276-19.751-5.276
			c-19.251,0-35.327,13.824-38.842,32.064h-9.254c-4.142,0-7.5,3.358-7.5,7.5s3.358,7.5,7.5,7.5h9.254
			c3.516,18.24,19.591,32.064,38.842,32.064c6.956,0,13.799-1.833,19.79-5.299c3.585-2.075,4.81-6.663,2.735-10.248
			C116.127,276.432,111.54,275.208,107.955,277.282z"/>
		<path d="M284.548,386.274c-3.313-2.485-8.015-1.813-10.5,1.5L256,411.839l-18.048-24.064c-2.486-3.314-7.186-3.985-10.5-1.5
			c-3.313,2.485-3.985,7.187-1.5,10.5l22.548,30.064v6.032h-8.532c-4.142,0-7.5,3.358-7.5,7.5s3.358,7.5,7.5,7.5h8.532v16.548
			c0,4.142,3.358,7.5,7.5,7.5s7.5-3.358,7.5-7.5v-16.548h8.532c4.142,0,7.5-3.358,7.5-7.5s-3.358-7.5-7.5-7.5H263.5v-6.032
			l22.548-30.064C288.534,393.461,287.862,388.76,284.548,386.274z"/>
		<path d="M432.355,208.419c-17.396,0-31.548,14.152-31.548,31.548v8.532h-8.532c-4.142,0-7.5,3.358-7.5,7.5s3.358,7.5,7.5,7.5
			h8.532v24.564c0,4.142,3.358,7.5,7.5,7.5h40.081c4.142,0,7.5-3.358,7.5-7.5s-3.358-7.5-7.5-7.5h-32.581V263.5h16.548
			c4.142,0,7.5-3.358,7.5-7.5s-3.358-7.5-7.5-7.5h-16.548v-8.532c0-9.125,7.423-16.548,16.548-16.548s16.548,7.423,16.548,16.548
			c0,4.142,3.358,7.5,7.5,7.5s7.5-3.358,7.5-7.5C463.903,222.572,449.751,208.419,432.355,208.419z"/>
	</g>
</g>
<g>
</g>
<g>
</g>
<g>
</g>
<g>
</g>
<g>
</g>
<g>
</g>
<g>
</g>
<g>
</g>
<g>
</g>
<g>
</g>
<g>
</g>
<g>
</g>
<g>
</g>
<g>
</g>
<g>
</g>
</svg>
