<?xml version="1.0" encoding="iso-8859-1"?>
<!-- Generator: Adobe Illustrator 22.0.0, SVG Export Plug-In . SVG Version: 6.00 Build 0)  -->
<svg version="1.1" id="Capa_1" xmlns="http://www.w3.org/2000/svg" xmlns:xlink="http://www.w3.org/1999/xlink" x="0px" y="0px"
	 viewBox="0 0 512 512" style="enable-background:new 0 0 512 512;" xml:space="preserve">
<g>
	<g>
		<rect x="55.597" y="235.96" style="fill:#EAC89F;" width="400.806" height="176.355"/>
		<rect x="55.597" y="235.96" style="fill:#D2AF8C;" width="400.806" height="32.065"/>
		<rect x="39.565" y="195.879" style="fill:#F4DBB3;" width="432.871" height="48.097"/>
		<rect x="39.565" y="404.298" style="fill:#ECEAEC;" width="432.871" height="48.097"/>
		<polygon style="fill:#F9EAC7;" points="256,43.572 15.516,187.863 15.516,211.911 496.484,211.911 496.484,187.863 		"/>
		<path style="fill:#F4DBB3;" d="M256,74.275c-2.896,0-5.754,0.791-8.251,2.29L62.251,187.863h387.491
			c0.094,0,0.133-0.008,0.133-0.012L264.259,76.565C261.754,75.069,258.896,74.275,256,74.275z"/>
		<path style="fill:#D19A6E;" d="M256,308.105c-13.282,0-24.048,10.767-24.048,24.048v72.145h48.097v-72.145
			C280.048,318.871,269.282,308.105,256,308.105z"/>
		<rect x="23.532" y="436.363" style="fill:#DAD8DB;" width="464.935" height="32.065"/>
	</g>
	<g>
		<path d="M256,116.092c7.539,0,12.541,3.695,12.541,6.139c0,4.142,3.358,7.5,7.5,7.5s7.5-3.358,7.5-7.5
			c0-9.85-8.356-17.92-20.041-20.369v-2.176c0-4.142-3.358-7.5-7.5-7.5s-7.5,3.358-7.5,7.5v2.176
			c-11.685,2.449-20.041,10.52-20.041,20.369c0,16.495,15.792,21.612,25.228,24.67c13.788,4.468,14.853,7.129,14.853,10.4
			c0,2.444-5.001,6.139-12.541,6.139s-12.541-3.695-12.541-6.139c0-4.142-3.358-7.5-7.5-7.5s-7.5,3.358-7.5,7.5
			c0,9.85,8.356,17.92,20.041,20.369v2.176c0,4.142,3.358,7.5,7.5,7.5s7.5-3.358,7.5-7.5v-2.176
			c11.685-2.449,20.041-10.52,20.041-20.369c0-16.494-15.792-21.612-25.229-24.67c-13.787-4.468-14.853-7.129-14.853-10.4
			C243.459,119.787,248.461,116.092,256,116.092z"/>
		<path d="M504.5,460.927h-8.532v-24.564c0-4.142-3.358-7.5-7.5-7.5h-8.532v-24.564c0-4.142-3.358-7.5-7.5-7.5h-8.532V251.475h8.532
			c4.142,0,7.5-3.358,7.5-7.5v-24.564h16.548c4.142,0,7.5-3.358,7.5-7.5v-24.048c0-2.634-1.382-5.076-3.641-6.431L259.859,37.141
			c-2.375-1.425-5.343-1.425-7.718,0L11.657,181.432c-2.259,1.355-3.641,3.797-3.641,6.431v24.048c0,4.142,3.358,7.5,7.5,7.5h16.548
			v24.564c0,4.142,3.358,7.5,7.5,7.5h8.532v145.323h-8.532c-4.142,0-7.5,3.358-7.5,7.5v24.564h-8.532c-4.142,0-7.5,3.358-7.5,7.5
			v24.564H7.5c-4.142,0-7.5,3.358-7.5,7.5s3.358,7.5,7.5,7.5h497c4.142,0,7.5-3.358,7.5-7.5S508.642,460.927,504.5,460.927z
			 M448.903,396.798h-33.097V251.475h33.097V396.798z M367.709,396.798V251.475h33.097v145.323H367.709z M319.613,396.798V251.475
			h33.097v145.323H319.613z M287.548,396.798v-64.645c0-17.396-14.152-31.548-31.548-31.548s-31.548,14.152-31.548,31.548v64.645
			h-17.064V251.475h97.226v145.323H287.548z M239.452,396.798v-64.645c0-9.125,7.423-16.548,16.548-16.548
			s16.548,7.423,16.548,16.548v64.645H239.452z M159.291,396.798V251.475h33.097v145.323H159.291z M111.193,396.798V251.475h33.097
			v145.323H111.193z M47.064,219.411h377.278c4.142,0,7.5-3.358,7.5-7.5s-3.358-7.5-7.5-7.5H23.016v-12.302L256,52.319
			l232.984,139.79v12.302h-32.583c-4.142,0-7.5,3.358-7.5,7.5s3.358,7.5,7.5,7.5h8.534v17.064H47.064V219.411z M63.097,251.475
			h33.097v145.323H63.097V251.475z M31.032,443.863h24.566c4.142,0,7.5-3.358,7.5-7.5s-3.358-7.5-7.5-7.5h-8.534v-17.064h417.871
			v17.064H87.659c-4.142,0-7.5,3.358-7.5,7.5s3.358,7.5,7.5,7.5h393.309v17.064H31.032V443.863z"/>
		<path d="M207.903,132.266h-16.032c-4.142,0-7.5,3.358-7.5,7.5s3.358,7.5,7.5,7.5h16.032c4.142,0,7.5-3.358,7.5-7.5
			S212.045,132.266,207.903,132.266z"/>
		<path d="M320.129,132.266h-16.032c-4.142,0-7.5,3.358-7.5,7.5s3.358,7.5,7.5,7.5h16.032c4.142,0,7.5-3.358,7.5-7.5
			S324.271,132.266,320.129,132.266z"/>
	</g>
</g>
<g>
</g>
<g>
</g>
<g>
</g>
<g>
</g>
<g>
</g>
<g>
</g>
<g>
</g>
<g>
</g>
<g>
</g>
<g>
</g>
<g>
</g>
<g>
</g>
<g>
</g>
<g>
</g>
<g>
</g>
</svg>
