<?xml version="1.0" encoding="iso-8859-1"?>
<!-- Generator: Adobe Illustrator 22.0.0, SVG Export Plug-In . SVG Version: 6.00 Build 0)  -->
<svg version="1.1" id="Capa_1" xmlns="http://www.w3.org/2000/svg" xmlns:xlink="http://www.w3.org/1999/xlink" x="0px" y="0px"
	 viewBox="0 0 512 512" style="enable-background:new 0 0 512 512;" xml:space="preserve">
<g>
	<g>
		<g>
			<circle style="fill:#FFF0AF;" cx="123.984" cy="224.938" r="38.828"/>
			<circle style="fill:#FFF0AF;" cx="388.016" cy="224.938" r="38.828"/>
			<circle style="fill:#FFF0AF;" cx="256" cy="108.453" r="85.422"/>
			<circle style="fill:#F6D190;" cx="256" cy="108.453" r="62.125"/>
		</g>
		<circle style="fill:#FFFFFF;" cx="388.016" cy="224.938" r="15.531"/>
		<circle style="fill:#FFFFFF;" cx="123.984" cy="224.938" r="15.531"/>
	</g>
	<g>
		<path d="M256,88.773c7.694,0,11.744,3.377,11.914,4.391c0,4.142,3.358,7.5,7.5,7.5s7.5-3.358,7.5-7.5
			c0-8.99-8.085-16.364-19.414-18.651v-1.006c0-4.142-3.358-7.5-7.5-7.5s-7.5,3.358-7.5,7.5v1.006
			c-11.329,2.287-19.414,9.661-19.414,18.651c0,15.251,15.533,19.782,24.814,22.489c12.942,3.774,14.014,5.98,14.015,8.078
			c-0.171,1.025-4.221,4.402-11.915,4.402c-7.683,0-11.731-3.367-11.914-4.397c-0.003-4.139-3.36-7.494-7.5-7.494
			c-4.142,0-7.5,3.358-7.5,7.5c0,8.99,8.085,16.364,19.414,18.651v1.006c0,4.142,3.358,7.5,7.5,7.5s7.5-3.358,7.5-7.5v-1.006
			c11.329-2.287,19.414-9.661,19.414-18.651c0-15.251-15.533-19.782-24.814-22.489c-12.942-3.774-14.014-5.98-14.015-8.078
			C244.256,92.15,248.306,88.773,256,88.773z"/>
		<path d="M256,232.969c-4.142,0-7.5,3.358-7.5,7.5V504.5c0,4.142,3.358,7.5,7.5,7.5s7.5-3.358,7.5-7.5V240.469
			C263.5,236.327,260.142,232.969,256,232.969z"/>
		<path d="M224.938,186.375c-4.142,0-7.5,3.358-7.5,7.5v132.016c0,4.142,3.358,7.5,7.5,7.5s7.5-3.358,7.5-7.5V193.875
			C232.438,189.733,229.08,186.375,224.938,186.375z"/>
		<path d="M123.984,287.328c-4.142,0-7.5,3.358-7.5,7.5V504.5c0,4.142,3.358,7.5,7.5,7.5s7.5-3.358,7.5-7.5V294.828
			C131.484,290.686,128.126,287.328,123.984,287.328z"/>
		<path d="M287.063,186.375c-4.142,0-7.5,3.358-7.5,7.5v132.016c0,4.142,3.358,7.5,7.5,7.5s7.5-3.358,7.5-7.5V193.875
			C294.563,189.733,291.205,186.375,287.063,186.375z"/>
		<path d="M356.953,115.953c4.142,0,7.5-3.358,7.5-7.5s-3.358-7.5-7.5-7.5h-31.746c-1.072-9.767-4.22-19.265-9.275-27.824
			c-2.105-3.566-6.703-4.751-10.272-2.644c-3.566,2.106-4.75,6.706-2.644,10.272c4.978,8.428,7.609,18.005,7.609,27.696
			c0,30.12-24.505,54.625-54.625,54.625s-54.625-24.505-54.625-54.625S225.88,53.828,256,53.828c9.691,0,19.268,2.631,27.696,7.608
			c3.566,2.106,8.165,0.923,10.272-2.644c2.106-3.566,0.922-8.166-2.644-10.272c-8.558-5.054-18.056-8.202-27.824-9.274V7.5
			c0-4.142-3.358-7.5-7.5-7.5s-7.5,3.358-7.5,7.5v31.738c-32.411,3.488-58.227,29.303-61.715,61.715h-31.738
			c-4.142,0-7.5,3.358-7.5,7.5s3.358,7.5,7.5,7.5h31.738c3.488,32.411,29.304,58.227,61.715,61.715v31.738
			c0,4.142,3.358,7.5,7.5,7.5s7.5-3.358,7.5-7.5v-31.738c32.411-3.488,58.227-29.303,61.715-61.715H356.953z"/>
		<path d="M321.894,50.06c1.919,0,3.839-0.732,5.303-2.197l5.491-5.491c2.929-2.929,2.929-7.678,0-10.606
			c-2.929-2.929-7.678-2.929-10.606,0l-5.491,5.491c-2.929,2.929-2.929,7.678,0,10.606C318.055,49.327,319.974,50.06,321.894,50.06z
			"/>
		<path d="M184.803,169.043l-5.491,5.491c-2.929,2.929-2.929,7.678,0,10.606c1.464,1.464,3.384,2.197,5.303,2.197
			s3.839-0.732,5.303-2.197l5.491-5.491c2.929-2.929,2.929-7.678,0-10.606C192.481,166.115,187.732,166.115,184.803,169.043z"/>
		<path d="M184.803,47.863c1.464,1.464,3.384,2.197,5.303,2.197s3.839-0.732,5.303-2.197c2.929-2.929,2.929-7.678,0-10.606
			l-5.491-5.491c-2.929-2.929-7.678-2.929-10.606,0c-2.929,2.929-2.929,7.678,0,10.606L184.803,47.863z"/>
		<path d="M327.197,169.043c-2.929-2.929-7.678-2.929-10.606,0c-2.929,2.929-2.929,7.678,0,10.606l5.491,5.491
			c1.464,1.464,3.384,2.197,5.303,2.197s3.839-0.732,5.303-2.197c2.929-2.929,2.929-7.678,0-10.606L327.197,169.043z"/>
		<path d="M162.813,217.438h-17.057c-2.306-6.675-7.596-11.965-14.271-14.271v-17.057c0-4.142-3.358-7.5-7.5-7.5s-7.5,3.358-7.5,7.5
			v17.057c-6.675,2.306-11.965,7.596-14.271,14.271H85.156c-4.142,0-7.5,3.358-7.5,7.5s3.358,7.5,7.5,7.5h17.057
			c2.306,6.675,7.596,11.965,14.271,14.271v17.057c0,4.142,3.358,7.5,7.5,7.5s7.5-3.358,7.5-7.5v-17.057
			c6.675-2.306,11.965-7.596,14.271-14.271h17.057c4.142,0,7.5-3.358,7.5-7.5S166.955,217.438,162.813,217.438z M123.984,232.969
			c-4.428,0-8.031-3.603-8.031-8.031s3.603-8.031,8.031-8.031s8.031,3.603,8.031,8.031S128.413,232.969,123.984,232.969z"/>
		<path d="M388.016,287.328c-4.142,0-7.5,3.358-7.5,7.5V504.5c0,4.142,3.358,7.5,7.5,7.5s7.5-3.358,7.5-7.5V294.828
			C395.516,290.686,392.158,287.328,388.016,287.328z"/>
		<path d="M426.844,217.438h-17.057c-2.306-6.675-7.596-11.965-14.271-14.271v-17.057c0-4.142-3.358-7.5-7.5-7.5s-7.5,3.358-7.5,7.5
			v17.057c-6.675,2.306-11.965,7.596-14.271,14.271h-17.057c-4.142,0-7.5,3.358-7.5,7.5s3.358,7.5,7.5,7.5h17.057
			c2.306,6.675,7.596,11.965,14.271,14.271v17.057c0,4.142,3.358,7.5,7.5,7.5s7.5-3.358,7.5-7.5v-17.057
			c6.675-2.306,11.965-7.596,14.271-14.271h17.057c4.142,0,7.5-3.358,7.5-7.5S430.986,217.438,426.844,217.438z M388.016,232.969
			c-4.428,0-8.031-3.603-8.031-8.031s3.603-8.031,8.031-8.031s8.031,3.603,8.031,8.031S392.444,232.969,388.016,232.969z"/>
	</g>
</g>
<g>
</g>
<g>
</g>
<g>
</g>
<g>
</g>
<g>
</g>
<g>
</g>
<g>
</g>
<g>
</g>
<g>
</g>
<g>
</g>
<g>
</g>
<g>
</g>
<g>
</g>
<g>
</g>
<g>
</g>
</svg>
