<?xml version="1.0" encoding="iso-8859-1"?>
<!-- Generator: Adobe Illustrator 22.0.0, SVG Export Plug-In . SVG Version: 6.00 Build 0)  -->
<svg version="1.1" id="Capa_1" xmlns="http://www.w3.org/2000/svg" xmlns:xlink="http://www.w3.org/1999/xlink" x="0px" y="0px"
	 viewBox="0 0 512 512" style="enable-background:new 0 0 512 512;" xml:space="preserve">
<g>
	<g>
		<path style="fill:#FFE09F;" d="M400.29,360.21H31.548c-4.427,0-8.016-3.589-8.016-8.016v-16.032c0-4.427,3.589-8.016,8.016-8.016
			H400.29V360.21z"/>
		<path style="fill:#F6D190;" d="M31.548,360.21h32.065v-32.065H31.548c-4.427,0-8.016,3.589-8.016,8.016v16.032
			C23.532,356.621,27.121,360.21,31.548,360.21z"/>
		<path style="fill:#F6D190;" d="M207.903,360.21h32.065v-32.065h-32.065c-4.427,0-8.016,3.589-8.016,8.016v16.032
			C199.887,356.621,203.476,360.21,207.903,360.21z"/>
		<path style="fill:#DAD8DB;" d="M336.161,328.145H15.516c-4.427,0-8.016-3.589-8.016-8.016v-16.032
			c0-4.427,3.589-8.016,8.016-8.016h320.645V328.145z"/>
		<path style="fill:#C8C5C9;" d="M15.516,328.145h32.065v-32.065H15.516c-4.427,0-8.016,3.589-8.016,8.016v16.032
			C7.5,324.556,11.089,328.145,15.516,328.145z"/>
		<path style="fill:#C8C5C9;" d="M191.871,328.145h32.065v-32.065h-32.065c-4.427,0-8.016,3.589-8.016,8.016v16.032
			C183.855,324.556,187.444,328.145,191.871,328.145z"/>
		<path style="fill:#FFE09F;" d="M352.194,296.081H31.548c-4.427,0-8.016-3.589-8.016-8.016v-16.032
			c0-4.427,3.589-8.016,8.016-8.016h320.645V296.081z"/>
		<path style="fill:#F6D190;" d="M31.548,296.081h32.065v-32.065H31.548c-4.427,0-8.016,3.589-8.016,8.016v16.032
			C23.532,292.492,27.121,296.081,31.548,296.081z"/>
		<path style="fill:#F6D190;" d="M207.903,296.081h32.065v-32.065h-32.065c-4.427,0-8.016,3.589-8.016,8.016v16.032
			C199.887,292.492,203.476,296.081,207.903,296.081z"/>
		<path style="fill:#DAD8DB;" d="M336.161,264.016H15.516c-4.427,0-8.016-3.589-8.016-8.016v-16.032
			c0-4.427,3.589-8.016,8.016-8.016h320.645V264.016z"/>
		<path style="fill:#C8C5C9;" d="M15.516,264.016h32.065v-32.065H15.516c-4.427,0-8.016,3.589-8.016,8.016V256
			C7.5,260.427,11.089,264.016,15.516,264.016z"/>
		<path style="fill:#C8C5C9;" d="M191.871,264.016h32.065v-32.065h-32.065c-4.427,0-8.016,3.589-8.016,8.016V256
			C183.855,260.427,187.444,264.016,191.871,264.016z"/>
		<path style="fill:#FFE09F;" d="M247.984,231.952H87.661c-4.427,0-8.016-3.589-8.016-8.016v-16.032
			c0-4.427,3.589-8.016,8.016-8.016h160.323c4.427,0,8.016,3.589,8.016,8.016v16.032C256,228.363,252.411,231.952,247.984,231.952z"
			/>
		<circle style="fill:#ECEAEC;" cx="400.29" cy="256" r="104.21"/>
		<path style="fill:#DAD8DB;" d="M400.29,151.79c-57.553,0-104.21,46.656-104.21,104.21s46.656,104.21,104.21,104.21
			S504.5,313.553,504.5,256S457.844,151.79,400.29,151.79z M400.29,336.161c-44.272,0-80.161-35.89-80.161-80.161
			c0-44.272,35.889-80.161,80.161-80.161s80.161,35.889,80.161,80.161C480.452,300.271,444.562,336.161,400.29,336.161z"/>
		<path style="fill:#F6D190;" d="M87.661,231.952h32.065v-32.065H87.661c-4.427,0-8.016,3.589-8.016,8.016v16.032
			C79.645,228.363,83.234,231.952,87.661,231.952z"/>
		<path style="fill:#ECEAEC;" d="M207.903,199.887H47.581c-4.427,0-8.016-3.589-8.016-8.016v-16.032
			c0-4.427,3.589-8.016,8.016-8.016h160.323c4.427,0,8.016,3.589,8.016,8.016v16.032
			C215.919,196.298,212.33,199.887,207.903,199.887z"/>
		<path style="fill:#DAD8DB;" d="M47.581,199.887h32.065v-32.065H47.581c-4.427,0-8.016,3.589-8.016,8.016v16.032
			C39.565,196.298,43.153,199.887,47.581,199.887z"/>
	</g>
	<g>
		<path d="M400.291,296.597c-14.824,0-25.901-7.15-25.901-13.542c0-4.142-3.358-7.5-7.5-7.5s-7.5,3.358-7.5,7.5
			c0,14.212,14.17,25.681,33.401,28.075v9c0,4.142,3.358,7.5,7.5,7.5s7.5-3.358,7.5-7.5v-9c19.231-2.394,33.4-13.863,33.4-28.075
			c0-22.614-23.316-29.609-38.745-34.238c-21.239-6.372-28.056-11.2-28.056-19.871c0-6.393,11.077-13.542,25.901-13.542
			c14.824,0,25.9,7.15,25.9,13.542c0,4.142,3.358,7.5,7.5,7.5s7.5-3.358,7.5-7.5c0-14.212-14.17-25.681-33.4-28.075v-9
			c0-4.142-3.358-7.5-7.5-7.5s-7.5,3.358-7.5,7.5v9c-19.231,2.394-33.401,13.863-33.401,28.075
			c0,22.614,23.316,29.609,38.746,34.238c21.238,6.372,28.056,11.2,28.056,19.871C426.191,289.447,415.114,296.597,400.291,296.597z
			"/>
		<path d="M400.291,144.291c-23.76,0-46.522,7.464-65.825,21.586c-3.343,2.446-4.071,7.139-1.625,10.481
			c2.446,3.344,7.139,4.07,10.481,1.625c16.715-12.229,36.415-18.693,56.969-18.693C453.616,159.291,497,202.674,497,256
			s-43.384,96.709-96.709,96.709c-53.326,0-96.71-43.384-96.71-96.709c0-20.554,6.464-40.253,18.693-56.969
			c2.445-3.343,1.718-8.036-1.625-10.481c-3.341-2.445-8.035-1.719-10.481,1.625c-7.702,10.528-13.408,22.09-17.018,34.277h-29.675
			c0.006-0.173,0.026-0.342,0.026-0.516v-16.032c0-8.556-6.96-15.516-15.516-15.516h-24.591c0.006-0.173,0.026-0.342,0.026-0.516
			v-16.032c0-8.556-6.96-15.516-15.516-15.516H47.581c-8.556,0-15.516,6.96-15.516,15.516v16.032c0,8.556,6.96,15.516,15.516,15.516
			h24.591c-0.006,0.173-0.026,0.342-0.026,0.516v16.032c0,0.174,0.02,0.343,0.026,0.516H15.516C6.96,224.452,0,231.412,0,239.968
			V256c0,8.556,6.96,15.516,15.516,15.516h0.542c-0.006,0.173-0.026,0.342-0.026,0.516v16.032c0,0.174,0.02,0.343,0.026,0.516
			h-0.542C6.96,288.581,0,295.541,0,304.097v16.032c0,8.556,6.96,15.516,15.516,15.516h0.542c-0.006,0.173-0.026,0.342-0.026,0.516
			v16.032c0,8.556,6.96,15.516,15.516,15.516h160.323c2.935,0,5.673-0.834,8.016-2.256c2.343,1.422,5.081,2.256,8.016,2.256h192.387
			C461.887,367.709,512,317.597,512,256S461.887,144.291,400.291,144.291z M191.871,320.645c-0.285,0-0.516-0.231-0.516-0.516
			v-16.032c0-0.285,0.231-0.516,0.516-0.516h107.365c2.835,5.998,6.183,11.708,9.997,17.064H191.871z M207.387,272.032
			c0-0.285,0.231-0.516,0.516-0.516h81.76c0.816,5.844,2.082,11.544,3.769,17.064h-85.529c-0.285,0-0.516-0.231-0.516-0.516V272.032
			z M288.587,256.516h-96.716c-0.285,0-0.516-0.231-0.516-0.516v-16.032c0-0.285,0.231-0.516,0.516-0.516h97.951
			c-0.814,5.441-1.241,10.965-1.241,16.548C288.581,256.173,288.586,256.344,288.587,256.516z M47.064,191.871v-16.032
			c0-0.285,0.231-0.516,0.516-0.516h160.323c0.285,0,0.516,0.231,0.516,0.516v16.032c0,0.285-0.231,0.516-0.516,0.516H47.581
			C47.296,192.387,47.064,192.156,47.064,191.871z M87.145,223.936v-16.032c0-0.285,0.231-0.516,0.516-0.516h160.323
			c0.285,0,0.516,0.231,0.516,0.516v16.032c0,0.285-0.231,0.516-0.516,0.516H87.661C87.376,224.452,87.145,224.22,87.145,223.936z
			 M15,256v-16.032c0-0.285,0.231-0.516,0.516-0.516h160.323c0.285,0,0.516,0.231,0.516,0.516V256c0,0.285-0.231,0.516-0.516,0.516
			H15.516C15.231,256.516,15,256.285,15,256z M31.032,288.064v-16.032c0-0.285,0.231-0.516,0.516-0.516h160.323
			c0.285,0,0.516,0.231,0.516,0.516v16.032c0,0.285-0.231,0.516-0.516,0.516H31.548C31.264,288.581,31.032,288.349,31.032,288.064z
			 M15,320.129v-16.032c0-0.285,0.231-0.516,0.516-0.516h160.323c0.285,0,0.516,0.231,0.516,0.516v16.032
			c0,0.285-0.231,0.516-0.516,0.516H15.516C15.231,320.645,15,320.414,15,320.129z M191.871,352.709H31.548
			c-0.285,0-0.516-0.231-0.516-0.516v-16.032c0-0.285,0.231-0.516,0.516-0.516h160.323c0.285,0,0.516,0.231,0.516,0.516v16.032
			C192.387,352.478,192.156,352.709,191.871,352.709z M207.903,352.709c-0.285,0-0.516-0.231-0.516-0.516v-16.032
			c0-0.285,0.231-0.516,0.516-0.516h114.141c6.696,6.58,14.212,12.326,22.384,17.064H207.903z"/>
	</g>
</g>
<g>
</g>
<g>
</g>
<g>
</g>
<g>
</g>
<g>
</g>
<g>
</g>
<g>
</g>
<g>
</g>
<g>
</g>
<g>
</g>
<g>
</g>
<g>
</g>
<g>
</g>
<g>
</g>
<g>
</g>
</svg>
