<?xml version="1.0" encoding="iso-8859-1"?>
<!-- Generator: Adobe Illustrator 22.0.0, SVG Export Plug-In . SVG Version: 6.00 Build 0)  -->
<svg version="1.1" id="Capa_1" xmlns="http://www.w3.org/2000/svg" xmlns:xlink="http://www.w3.org/1999/xlink" x="0px" y="0px"
	 viewBox="0 0 512 512" style="enable-background:new 0 0 512 512;" xml:space="preserve">
<g>
	<g>
		<rect x="87.661" y="175.839" style="fill:#F9EAC7;" width="336.677" height="160.323"/>
		<circle style="fill:#B6B1B7;" cx="167.823" cy="256" r="16.032"/>
		<circle style="fill:#B9CDA5;" cx="344.177" cy="256" r="16.032"/>
		<path style="fill:#F4DBB3;" d="M424.339,311.562H120.263c-4.427,0-8.016-3.589-8.016-8.016V175.839H87.661v160.323h336.677
			V311.562z"/>
		<ellipse style="fill:#9B959D;" cx="256" cy="256" rx="40.081" ry="48.097"/>
	</g>
	<g>
		<path d="M264.016,392.79H55.597C33.211,392.79,15,374.579,15,352.193V159.807c0-22.385,18.211-40.597,40.597-40.597h115.767
			l-22.528,9.654c-3.807,1.632-5.571,6.041-3.939,9.848c1.219,2.844,3.987,4.548,6.897,4.547c0.986,0,1.988-0.195,2.951-0.608
			l56.113-24.048c2.757-1.182,4.545-3.894,4.545-6.894c0-3-1.788-5.712-4.545-6.894l-56.113-24.049
			c-3.807-1.631-8.217,0.132-9.848,3.939c-1.632,3.807,0.132,8.216,3.939,9.848l22.528,9.655H55.597
			C24.94,104.21,0,129.15,0,159.807v192.387c0,30.656,24.94,55.597,55.597,55.597h208.419c4.142,0,7.5-3.357,7.5-7.5
			C271.516,396.148,268.158,392.79,264.016,392.79z"/>
		<path d="M456.403,104.21H247.984c-4.142,0-7.5,3.357-7.5,7.5c0,4.142,3.358,7.5,7.5,7.5h208.419
			c22.385,0,40.597,18.211,40.597,40.597v192.387c0,22.385-18.211,40.597-40.597,40.597H340.636l22.528-9.654
			c3.807-1.632,5.571-6.041,3.939-9.848c-1.632-3.808-6.042-5.571-9.848-3.939l-56.113,24.048c-2.757,1.182-4.545,3.894-4.545,6.894
			c0,3,1.788,5.712,4.545,6.894l56.113,24.049c0.963,0.413,1.965,0.608,2.951,0.608c2.91,0,5.678-1.704,6.897-4.548
			c1.632-3.807-0.132-8.216-3.939-9.848l-22.528-9.655h115.767c30.656,0,55.597-24.94,55.597-55.597V159.807
			C512,129.15,487.06,104.21,456.403,104.21z"/>
		<path d="M80.161,175.839v160.322c0,4.143,3.358,7.5,7.5,7.5h336.678c4.142,0,7.5-3.357,7.5-7.5V175.839c0-4.143-3.358-7.5-7.5-7.5
			H87.661C83.519,168.339,80.161,171.696,80.161,175.839z M95.161,183.339h321.678v145.322H95.161V183.339z"/>
		<path d="M392.274,200.403h-16.032c-4.142,0-7.5,3.358-7.5,7.5s3.358,7.5,7.5,7.5h8.532v81.193H288.46
			c9.295-10.153,15.121-24.591,15.121-40.597s-5.826-30.443-15.121-40.597h55.717c4.142,0,7.5-3.358,7.5-7.5s-3.358-7.5-7.5-7.5
			H119.726c-4.142,0-7.5,3.358-7.5,7.5v96.193c0,4.142,3.358,7.5,7.5,7.5h16.032c4.142,0,7.5-3.358,7.5-7.5s-3.358-7.5-7.5-7.5
			h-8.532v-81.193h96.315c-9.295,10.153-15.121,24.591-15.121,40.597s5.826,30.443,15.121,40.597h-55.717
			c-4.142,0-7.5,3.358-7.5,7.5s3.358,7.5,7.5,7.5h224.451c4.142,0,7.5-3.358,7.5-7.5v-96.193
			C399.774,203.761,396.417,200.403,392.274,200.403z M223.419,256c0-22.385,14.616-40.597,32.581-40.597
			s32.581,18.212,32.581,40.597S273.965,296.597,256,296.597S223.419,278.385,223.419,256z"/>
		<path d="M191.355,256c0-12.976-10.557-23.532-23.532-23.532S144.291,243.024,144.291,256s10.557,23.532,23.532,23.532
			S191.355,268.975,191.355,256z M159.291,256c0-4.705,3.828-8.532,8.532-8.532s8.532,3.828,8.532,8.532s-3.828,8.532-8.532,8.532
			S159.291,260.704,159.291,256z"/>
		<path d="M320.645,256c0,12.976,10.557,23.532,23.532,23.532s23.532-10.557,23.532-23.532s-10.557-23.532-23.532-23.532
			S320.645,243.024,320.645,256z M352.709,256c0,4.705-3.828,8.532-8.532,8.532s-8.532-3.828-8.532-8.532s3.828-8.532,8.532-8.532
			S352.709,251.295,352.709,256z"/>
		<path d="M256,232.468c-4.142,0-7.5,3.358-7.5,7.5v32.064c0,4.142,3.358,7.5,7.5,7.5s7.5-3.358,7.5-7.5v-32.064
			C263.5,235.826,260.142,232.468,256,232.468z"/>
	</g>
</g>
<g>
</g>
<g>
</g>
<g>
</g>
<g>
</g>
<g>
</g>
<g>
</g>
<g>
</g>
<g>
</g>
<g>
</g>
<g>
</g>
<g>
</g>
<g>
</g>
<g>
</g>
<g>
</g>
<g>
</g>
</svg>
