<?xml version="1.0" encoding="iso-8859-1"?>
<!-- Generator: Adobe Illustrator 22.0.0, SVG Export Plug-In . SVG Version: 6.00 Build 0)  -->
<svg version="1.1" id="Capa_1" xmlns="http://www.w3.org/2000/svg" xmlns:xlink="http://www.w3.org/1999/xlink" x="0px" y="0px"
	 viewBox="0 0 512 512" style="enable-background:new 0 0 512 512;" xml:space="preserve">
<g>
	<g>
		<rect x="199.887" y="360.21" style="fill:#5D5360;" width="112.226" height="64.129"/>
		<rect x="199.887" y="368.226" style="fill:#4B3F4E;" width="112.226" height="32.065"/>
		<path style="fill:#6F6571;" d="M488.468,376.242H23.532c-8.854,0-16.032-7.178-16.032-16.032V103.694
			c0-8.854,7.178-16.032,16.032-16.032h464.935c8.854,0,16.032,7.178,16.032,16.032V360.21
			C504.5,369.064,497.322,376.242,488.468,376.242z"/>
		<path style="fill:#FFFFFF;" d="M504.5,344.177H7.5V103.694c0-8.854,7.178-16.032,16.032-16.032h464.935
			c8.854,0,16.032,7.178,16.032,16.032V344.177z"/>
		<path style="fill:#DCDCA0;" d="M175.839,312.113H47.581c-4.427,0-8.016-3.589-8.016-8.016V127.742
			c0-4.427,3.589-8.016,8.016-8.016h128.258c4.427,0,8.016,3.589,8.016,8.016v176.355
			C183.855,308.524,180.266,312.113,175.839,312.113z"/>
		<path style="fill:#ECEAEC;" d="M223.935,215.919h240.484c4.427,0,8.016-3.589,8.016-8.016v-80.161
			c0-4.427-3.589-8.016-8.016-8.016H223.935c-4.427,0-8.016,3.589-8.016,8.016v80.161
			C215.919,212.33,219.508,215.919,223.935,215.919z"/>
		<path style="fill:#B9CDA5;" d="M79.645,287.5c-8.854,0-16.032-7.178-16.032-16.032V119.726H47.581
			c-4.427,0-8.016,3.589-8.016,8.016v176.355c0,4.427,3.589,8.016,8.016,8.016h128.258c4.427,0,8.016-3.589,8.016-8.016V287.5
			H79.645z"/>
		<path style="fill:#DAD8DB;" d="M248.5,191.25c-4.427,0-8.016-3.589-8.016-8.016v-63.508h-16.548c-4.427,0-8.016,3.589-8.016,8.016
			v80.161c0,4.427,3.589,8.016,8.016,8.016h240.484c4.427,0,8.016-3.589,8.016-8.016V191.25H248.5z"/>
	</g>
	<g>
		<path d="M488.468,80.161H23.532C10.557,80.161,0,90.718,0,103.693v256.516c0,12.976,10.557,23.532,23.532,23.532h168.855v33.097
			h-56.629c-4.142,0-7.5,3.358-7.5,7.5s3.358,7.5,7.5,7.5h240.483c4.142,0,7.5-3.358,7.5-7.5s-3.358-7.5-7.5-7.5h-56.629v-33.097
			h168.855c12.976,0,23.532-10.557,23.532-23.532V103.693C512,90.718,501.443,80.161,488.468,80.161z M304.613,416.839h-97.226
			v-33.097h97.226V416.839z M488.468,368.742H23.532c-4.705,0-8.532-3.828-8.532-8.532v-8.532h441.407c4.142,0,7.5-3.358,7.5-7.5
			s-3.358-7.5-7.5-7.5H15V103.693c0-4.705,3.828-8.532,8.532-8.532h464.936c4.705,0,8.532,3.828,8.532,8.532v232.984h-8.534
			c-4.142,0-7.5,3.358-7.5,7.5s3.358,7.5,7.5,7.5H497v8.532C497,364.914,493.172,368.742,488.468,368.742z"/>
		<path d="M464.419,223.419c8.556,0,15.516-6.96,15.516-15.516v-80.162c0-8.556-6.96-15.516-15.516-15.516H223.936
			c-8.556,0-15.516,6.96-15.516,15.516v80.162c0,8.556,6.96,15.516,15.516,15.516H464.419z M223.419,207.903v-80.162
			c0-0.285,0.231-0.516,0.516-0.516h240.484c0.285,0,0.516,0.231,0.516,0.516v80.162c0,0.285-0.231,0.516-0.516,0.516H223.936
			C223.651,208.419,223.419,208.188,223.419,207.903z"/>
		<path d="M175.839,112.226H47.581c-8.556,0-15.516,6.96-15.516,15.516v8.014c0,4.142,3.358,7.5,7.5,7.5s7.5-3.358,7.5-7.5v-8.014
			c0-0.285,0.231-0.516,0.516-0.516h128.258c0.285,0,0.516,0.231,0.516,0.516v176.355c0,0.285-0.231,0.516-0.516,0.516H47.581
			c-0.285,0-0.516-0.231-0.516-0.516V167.822c0-4.142-3.358-7.5-7.5-7.5s-7.5,3.358-7.5,7.5v136.274
			c0,8.556,6.96,15.516,15.516,15.516h128.258c8.556,0,15.516-6.96,15.516-15.516V127.742
			C191.355,119.186,184.395,112.226,175.839,112.226z"/>
		<path d="M247.984,191.355c4.142,0,7.5-3.358,7.5-7.5v-8.016c0-4.142-3.358-7.5-7.5-7.5s-7.5,3.358-7.5,7.5v8.016
			C240.484,187.997,243.842,191.355,247.984,191.355z"/>
		<path d="M312.113,191.355c4.142,0,7.5-3.358,7.5-7.5v-16.032c0-4.142-3.358-7.5-7.5-7.5s-7.5,3.358-7.5,7.5v16.032
			C304.613,187.997,307.971,191.355,312.113,191.355z"/>
		<path d="M280.048,191.355c4.142,0,7.5-3.358,7.5-7.5v-32.064c0-4.142-3.358-7.5-7.5-7.5s-7.5,3.358-7.5,7.5v32.064
			C272.548,187.997,275.906,191.355,280.048,191.355z"/>
		<path d="M344.177,191.355c4.142,0,7.5-3.358,7.5-7.5v-32.064c0-4.142-3.358-7.5-7.5-7.5s-7.5,3.358-7.5,7.5v32.064
			C336.677,187.997,340.035,191.355,344.177,191.355z"/>
		<path d="M408.307,191.355c4.142,0,7.5-3.358,7.5-7.5v-24.048c0-4.142-3.358-7.5-7.5-7.5s-7.5,3.358-7.5,7.5v24.048
			C400.807,187.997,404.165,191.355,408.307,191.355z"/>
		<path d="M440.371,191.355c4.142,0,7.5-3.358,7.5-7.5v-32.064c0-4.142-3.358-7.5-7.5-7.5s-7.5,3.358-7.5,7.5v32.064
			C432.871,187.997,436.229,191.355,440.371,191.355z"/>
		<path d="M376.242,191.355c4.142,0,7.5-3.358,7.5-7.5v-8.016c0-4.142-3.358-7.5-7.5-7.5s-7.5,3.358-7.5,7.5v8.016
			C368.742,187.997,372.1,191.355,376.242,191.355z"/>
		<path d="M469.39,241.13l-66.685,29.637l-20.463-27.284c-2.444-3.26-7.044-3.972-10.359-1.603l-52.438,37.456l-28.026-14.013
			c-2.111-1.056-4.597-1.056-6.708,0l-64.129,32.064c-3.705,1.852-5.207,6.357-3.354,10.062c1.314,2.628,3.962,4.147,6.714,4.147
			c1.127,0,2.271-0.255,3.348-0.793l60.775-30.387l28.71,14.355c2.483,1.243,5.452,1.01,7.713-0.605l50.15-35.822l19.652,26.203
			c2.098,2.797,5.85,3.774,9.046,2.354l72.145-32.064c3.785-1.682,5.49-6.114,3.808-9.899
			C477.606,241.152,473.173,239.448,469.39,241.13z"/>
		<path d="M111.709,232.468c-12.548,0-20.556-5.943-20.556-10.035c0-4.142-3.358-7.5-7.5-7.5s-7.5,3.358-7.5,7.5
			c0,12.221,11.838,22.133,28.056,24.496v1.055c0,4.142,3.358,7.5,7.5,7.5s7.5-3.358,7.5-7.5v-1.055
			c16.219-2.363,28.057-12.275,28.057-24.496c0-19.789-20.11-25.773-33.417-29.734c-19.186-5.71-22.696-9.652-22.696-15.357
			c0-4.092,8.008-10.035,20.556-10.035c12.549,0,20.557,5.943,20.557,10.035c0,4.142,3.358,7.5,7.5,7.5s7.5-3.358,7.5-7.5
			c0-12.221-11.838-22.133-28.057-24.496v-1.055c0-4.142-3.358-7.5-7.5-7.5s-7.5,3.358-7.5,7.5v1.055
			c-16.218,2.363-28.056,12.275-28.056,24.496c0,19.788,20.11,25.773,33.417,29.734c19.186,5.709,22.696,9.651,22.696,15.357
			C132.266,226.524,124.258,232.468,111.709,232.468z"/>
		<path d="M64.129,280.048c0,4.142,3.358,7.5,7.5,7.5h80.162c4.142,0,7.5-3.358,7.5-7.5s-3.358-7.5-7.5-7.5H71.629
			C67.487,272.548,64.129,275.906,64.129,280.048z"/>
	</g>
</g>
<g>
</g>
<g>
</g>
<g>
</g>
<g>
</g>
<g>
</g>
<g>
</g>
<g>
</g>
<g>
</g>
<g>
</g>
<g>
</g>
<g>
</g>
<g>
</g>
<g>
</g>
<g>
</g>
<g>
</g>
</svg>
