<?xml version="1.0" encoding="iso-8859-1"?>
<!-- Generator: Adobe Illustrator 22.0.0, SVG Export Plug-In . SVG Version: 6.00 Build 0)  -->
<svg version="1.1" id="Capa_1" xmlns="http://www.w3.org/2000/svg" xmlns:xlink="http://www.w3.org/1999/xlink" x="0px" y="0px"
	 viewBox="0 0 512 512" style="enable-background:new 0 0 512 512;" xml:space="preserve">
<g>
	<g>
		<circle style="fill:#C3DDFF;" cx="256" cy="256" r="136.274"/>
		<path style="fill:#B9CDA5;" d="M48.427,11.085L16.362,27.117C10.931,29.833,7.5,35.384,7.5,41.457v36.296
			c0,6.073,3.431,11.624,8.862,14.34l32.065,16.032c4.514,2.257,9.826,2.257,14.34,0l32.065-16.032
			c5.431-2.716,8.862-8.267,8.862-14.34V41.457c0-6.073-3.431-11.624-8.862-14.34L62.767,11.085
			C58.253,8.828,52.94,8.828,48.427,11.085z"/>
		<path style="fill:#DCDCA0;" d="M62.766,108.125l32.065-16.032c5.432-2.716,8.863-8.267,8.863-14.34V41.456
			c0-6.072-3.431-11.623-8.863-14.339L62.766,11.085c-2.256-1.129-4.714-1.693-7.17-1.693v100.425
			C58.053,109.817,60.51,109.253,62.766,108.125z"/>
		<path style="fill:#EBEBB9;" d="M10.059,32.828l45.537,22.768l45.537-22.768c-1.53-2.389-3.668-4.394-6.303-5.711L62.766,11.085
			c-4.513-2.257-9.826-2.257-14.339,0L16.363,27.117C13.727,28.435,11.589,30.44,10.059,32.828z"/>
		<path style="fill:#A4CCFF;" d="M449.233,11.085l-32.065,16.032c-5.431,2.716-8.862,8.267-8.862,14.34v36.296
			c0,6.073,3.431,11.624,8.862,14.34l32.065,16.032c4.514,2.257,9.826,2.257,14.34,0l32.065-16.032
			c5.431-2.716,8.862-8.267,8.862-14.34V41.457c0-6.073-3.431-11.624-8.862-14.34l-32.065-16.032
			C459.06,8.828,453.747,8.828,449.233,11.085z"/>
		<path style="fill:#C3DDFF;" d="M463.573,108.125l32.065-16.032c5.432-2.716,8.863-8.267,8.863-14.34V41.456
			c0-6.072-3.431-11.623-8.863-14.339l-32.065-16.032c-2.257-1.129-4.714-1.693-7.17-1.693v100.425
			C458.859,109.817,461.316,109.253,463.573,108.125z"/>
		<path style="fill:#DBEAFF;" d="M410.866,32.828l45.537,22.768l45.537-22.768c-1.53-2.389-3.668-4.394-6.303-5.711l-32.065-16.032
			c-4.513-2.257-9.826-2.257-14.339,0l-32.065,16.032C414.533,28.435,412.396,30.44,410.866,32.828z"/>
		<path style="fill:#A4CCFF;" d="M48.427,403.875l-32.065,16.032c-5.431,2.716-8.862,8.267-8.862,14.34v36.296
			c0,6.073,3.431,11.624,8.862,14.34l32.065,16.032c4.514,2.257,9.826,2.257,14.34,0l32.065-16.032
			c5.431-2.716,8.862-8.267,8.862-14.34v-36.296c0-6.073-3.431-11.624-8.862-14.34l-32.065-16.032
			C58.253,401.618,52.94,401.618,48.427,403.875z"/>
		<path style="fill:#C3DDFF;" d="M62.766,500.915l32.065-16.032c5.432-2.716,8.863-8.267,8.863-14.34v-36.296
			c0-6.072-3.431-11.623-8.863-14.339l-32.065-16.032c-2.256-1.129-4.714-1.693-7.17-1.693v100.425
			C58.053,502.607,60.51,502.043,62.766,500.915z"/>
		<path style="fill:#DBEAFF;" d="M10.059,425.618l45.537,22.768l45.537-22.768c-1.53-2.389-3.668-4.394-6.303-5.711l-32.065-16.032
			c-4.513-2.257-9.826-2.257-14.339,0l-32.065,16.032C13.727,421.225,11.589,423.23,10.059,425.618z"/>
		<path style="fill:#B9CDA5;" d="M449.233,403.875l-32.065,16.032c-5.431,2.716-8.862,8.267-8.862,14.34v36.296
			c0,6.073,3.431,11.624,8.862,14.34l32.065,16.032c4.514,2.257,9.826,2.257,14.34,0l32.065-16.032
			c5.431-2.716,8.862-8.267,8.862-14.34v-36.296c0-6.073-3.431-11.624-8.862-14.34l-32.065-16.032
			C459.06,401.618,453.747,401.618,449.233,403.875z"/>
		<path style="fill:#DCDCA0;" d="M463.573,500.915l32.065-16.032c5.432-2.716,8.863-8.267,8.863-14.34v-36.296
			c0-6.072-3.431-11.623-8.863-14.339l-32.065-16.032c-2.257-1.129-4.714-1.693-7.17-1.693v100.425
			C458.859,502.607,461.316,502.043,463.573,500.915z"/>
		<path style="fill:#EBEBB9;" d="M410.866,425.618l45.537,22.768l45.537-22.768c-1.53-2.389-3.668-4.394-6.303-5.711l-32.065-16.032
			c-4.513-2.257-9.826-2.257-14.339,0l-32.065,16.032C414.533,421.225,412.396,423.23,410.866,425.618z"/>
		<path style="fill:#A4CCFF;" d="M272.032,376.242c-75.262,0-136.274-61.012-136.274-136.274c0-33.548,12.176-64.218,32.28-87.962
			c-29.522,24.997-48.313,62.28-48.313,103.994c0,75.262,61.012,136.274,136.274,136.274c41.714,0,78.997-18.79,103.994-48.313
			C336.25,364.066,305.581,376.242,272.032,376.242z"/>
	</g>
	<g>
		<path d="M107.047,24.84L58.951,0.792c-2.111-1.056-4.597-1.056-6.708,0L4.146,24.84C1.605,26.11,0,28.707,0,31.548v56.113
			c0,2.841,1.605,5.438,4.146,6.708l48.097,24.048c1.056,0.528,2.205,0.792,3.354,0.792s2.298-0.264,3.354-0.792l48.097-24.048
			c2.541-1.27,4.146-3.867,4.146-6.708V31.548C111.193,28.707,109.588,26.11,107.047,24.84z M55.597,15.885l31.326,15.663
			L55.597,47.211L24.27,31.548L55.597,15.885z M15,43.683l33.097,16.548v39.343L15,83.026V43.683z M63.097,99.574V60.232
			l33.097-16.548v39.343L63.097,99.574z"/>
		<path d="M507.854,24.84L459.757,0.792c-2.111-1.056-4.597-1.056-6.708,0L404.953,24.84c-2.541,1.27-4.146,3.867-4.146,6.708
			v56.113c0,2.841,1.605,5.438,4.146,6.708l48.097,24.048c1.056,0.528,2.205,0.792,3.354,0.792s2.298-0.264,3.354-0.792
			l48.097-24.048c2.541-1.27,4.146-3.867,4.146-6.708V31.548C512,28.707,510.395,26.11,507.854,24.84z M456.403,15.885
			l31.326,15.663l-31.326,15.663l-31.326-15.663L456.403,15.885z M415.807,43.683l33.097,16.548v39.343l-33.097-16.548V43.683z
			 M463.903,99.574V60.232L497,43.683v39.343L463.903,99.574z"/>
		<path d="M107.047,417.631l-48.097-24.048c-2.111-1.056-4.597-1.056-6.708,0L4.146,417.631C1.605,418.901,0,421.498,0,424.339
			v56.113c0,2.841,1.605,5.438,4.146,6.708l48.097,24.048c1.056,0.528,2.205,0.792,3.354,0.792s2.298-0.264,3.354-0.792
			l48.097-24.048c2.541-1.27,4.146-3.867,4.146-6.708v-56.113C111.193,421.498,109.588,418.901,107.047,417.631z M55.597,408.676
			l31.326,15.663l-31.326,15.663l-31.326-15.663L55.597,408.676z M15,436.474l33.097,16.548v39.343L15,475.816V436.474z
			 M63.097,492.365v-39.343l33.097-16.548v39.343L63.097,492.365z"/>
		<path d="M507.854,417.631l-48.097-24.048c-2.111-1.056-4.597-1.056-6.708,0l-48.097,24.048c-2.541,1.27-4.146,3.867-4.146,6.708
			v56.113c0,2.841,1.605,5.438,4.146,6.708l48.097,24.048c1.056,0.528,2.205,0.792,3.354,0.792s2.298-0.264,3.354-0.792
			l48.097-24.048c2.541-1.27,4.146-3.867,4.146-6.708v-56.113C512,421.498,510.395,418.901,507.854,417.631z M456.403,408.676
			l31.326,15.663l-31.326,15.663l-31.326-15.663L456.403,408.676z M415.807,436.474l33.097,16.548v39.343l-33.097-16.548V436.474z
			 M463.903,492.365v-39.343L497,436.474v39.343L463.903,492.365z"/>
		<path d="M63.097,368.225V143.774c0-4.142-3.358-7.5-7.5-7.5s-7.5,3.358-7.5,7.5v224.451c0,4.142,3.358,7.5,7.5,7.5
			S63.097,372.368,63.097,368.225z"/>
		<path d="M463.903,368.225V143.774c0-4.142-3.358-7.5-7.5-7.5s-7.5,3.358-7.5,7.5v224.451c0,4.142,3.358,7.5,7.5,7.5
			S463.903,372.368,463.903,368.225z"/>
		<path d="M135.758,63.097h240.484c4.142,0,7.5-3.358,7.5-7.5s-3.358-7.5-7.5-7.5H135.758c-4.142,0-7.5,3.358-7.5,7.5
			S131.616,63.097,135.758,63.097z"/>
		<path d="M376.242,448.903H135.758c-4.142,0-7.5,3.358-7.5,7.5s3.358,7.5,7.5,7.5h240.484c4.142,0,7.5-3.358,7.5-7.5
			S380.384,448.903,376.242,448.903z"/>
		<path d="M272.033,343.661c4.142,0,7.5-3.358,7.5-7.5v-8.685c22.398-1.787,40.08-20.571,40.08-43.42
			c0-17.677-10.587-32.917-25.747-39.744c6.016-6.372,9.715-14.952,9.715-24.385c0-15.579-10.075-28.839-24.048-33.634v-10.454
			c0-4.142-3.358-7.5-7.5-7.5s-7.5,3.358-7.5,7.5v8.532h-17.064v-8.532c0-4.142-3.358-7.5-7.5-7.5s-7.5,3.358-7.5,7.5v8.532h-16.549
			c-4.142,0-7.5,3.358-7.5,7.5s3.358,7.5,7.5,7.5h52.105c11.334,0,20.556,9.222,20.556,20.556c0,11.335-9.222,20.557-20.556,20.557
			h-36.589v-16.548c0-4.142-3.358-7.5-7.5-7.5s-7.5,3.358-7.5,7.5v88.693h-0.516c-4.142,0-7.5,3.358-7.5,7.5s3.358,7.5,7.5,7.5
			h16.549v8.532c0,4.142,3.358,7.5,7.5,7.5s7.5-3.358,7.5-7.5v-8.532h17.064v8.532C264.533,340.303,267.891,343.661,272.033,343.661
			z M231.436,255.484h36.589h8.016c15.755,0,28.572,12.818,28.572,28.573s-12.817,28.572-28.572,28.572h-44.605V255.484z"/>
		<path d="M358.307,165.832c-3.251,2.566-3.808,7.282-1.242,10.534c18.127,22.972,27.709,50.509,27.709,79.634
			c0,71.006-57.768,128.774-128.774,128.774S127.226,327.006,127.226,256S184.994,127.225,256,127.225
			c29.124,0,56.661,9.582,79.634,27.709c3.252,2.565,7.968,2.011,10.534-1.242c2.566-3.252,2.01-7.968-1.242-10.534
			C319.28,122.922,288.53,112.225,256,112.225c-79.277,0-143.774,64.497-143.774,143.774S176.723,399.774,256,399.774
			S399.774,335.277,399.774,256c0-32.53-10.697-63.28-30.934-88.926C366.275,163.823,361.559,163.266,358.307,165.832z"/>
	</g>
</g>
<g>
</g>
<g>
</g>
<g>
</g>
<g>
</g>
<g>
</g>
<g>
</g>
<g>
</g>
<g>
</g>
<g>
</g>
<g>
</g>
<g>
</g>
<g>
</g>
<g>
</g>
<g>
</g>
<g>
</g>
</svg>
