<?xml version="1.0" encoding="iso-8859-1"?>
<!-- Generator: Adobe Illustrator 22.0.0, SVG Export Plug-In . SVG Version: 6.00 Build 0)  -->
<svg version="1.1" id="Capa_1" xmlns="http://www.w3.org/2000/svg" xmlns:xlink="http://www.w3.org/1999/xlink" x="0px" y="0px"
	 viewBox="0 0 512 512" style="enable-background:new 0 0 512 512;" xml:space="preserve">
<g>
	<g>
		<circle style="fill:#FFE09F;" cx="256" cy="256" r="248.5"/>
		<circle style="fill:#F6D190;" cx="256" cy="256" r="216.435"/>
		<path style="fill:#FFEEAF;" d="M387.921,209.621l-46.09-46.092c-7.573-7.57-17.638-11.739-28.342-11.739H198.512
			c-10.705,0-20.77,4.168-28.34,11.737l-46.094,46.094c-11.945,11.945-12.546,31.223-1.368,43.889l109.246,123.814
			c6.085,6.895,14.849,10.85,24.044,10.85c9.196,0,17.959-3.955,24.043-10.851l109.249-123.814
			C400.469,240.845,399.867,221.566,387.921,209.621z"/>
		<path style="fill:#ECBD83;" d="M275.706,452.729c-119.534,0-216.435-96.901-216.435-216.436
			c0-54.575,20.243-104.393,53.574-142.464C67.953,133.484,39.565,191.392,39.565,256c0,119.534,96.902,216.435,216.435,216.435
			c64.61,0,122.519-28.39,162.175-73.284C380.103,432.484,330.283,452.729,275.706,452.729z"/>
		<path style="fill:#FF9A9F;" d="M262.011,361.414l109.249-123.815c2.801-3.174,2.651-7.979-0.343-10.972l-46.092-46.092
			c-3.007-3.007-7.085-4.696-11.337-4.696H198.512c-4.252,0-8.33,1.689-11.337,4.696l-46.092,46.092
			c-2.993,2.993-3.143,7.798-0.343,10.972l109.249,123.815C253.18,365.03,258.82,365.03,262.011,361.414z"/>
		<path style="fill:#FF8086;" d="M138.76,231.952c-0.086,2.003,0.558,4.034,1.981,5.647l109.249,123.815
			c3.191,3.617,8.83,3.617,12.021,0l109.249-123.815c1.423-1.613,2.067-3.644,1.981-5.647H138.76z"/>
		<path style="fill:#E5646E;" d="M138.76,231.952c-0.086,2.003,0.558,4.034,1.981,5.647l109.249,123.815
			c1.596,1.808,3.803,2.712,6.011,2.712V231.952H138.76z"/>
		<path style="fill:#FF8086;" d="M313.488,175.839H198.512c-2.158,0-4.268,0.443-6.219,1.265l62.238,186.714
			c0.989,0.187,1.95,0.187,2.939,0l62.238-186.714C317.756,176.281,315.646,175.839,313.488,175.839z"/>
		<polygon style="fill:#E5646E;" points="256,175.839 210.576,231.952 301.424,231.952 		"/>
		<path style="fill:#DB4655;" d="M257.469,363.818l43.955-131.866h-90.849l43.955,131.866
			C255.52,364.004,256.48,364.004,257.469,363.818z"/>
	</g>
	<g>
		<path d="M437.02,74.98C388.667,26.629,324.38,0,256,0S123.333,26.629,74.98,74.98C26.629,123.333,0,187.62,0,256
			s26.629,132.667,74.98,181.02C123.333,485.371,187.62,512,256,512s132.667-26.629,181.02-74.98
			C485.371,388.667,512,324.38,512,256S485.371,123.333,437.02,74.98z M426.413,426.413C380.894,471.932,320.374,497,256,497
			s-124.894-25.068-170.413-70.587S15,320.374,15,256S40.068,131.106,85.587,85.587S191.626,15,256,15
			s124.894,25.068,170.413,70.587S497,191.626,497,256S471.932,380.894,426.413,426.413z"/>
		<path d="M79.129,256c0-64.772,35.362-124.305,92.286-155.365c3.636-1.984,4.976-6.54,2.991-10.176
			c-1.983-3.636-6.539-4.977-10.176-2.991C102.485,121.158,64.129,185.736,64.129,256s38.356,134.842,100.102,168.532
			c1.141,0.623,2.372,0.918,3.585,0.918c2.656,0,5.229-1.414,6.59-3.909c1.984-3.636,0.645-8.192-2.991-10.176
			C114.491,380.305,79.129,320.772,79.129,256z"/>
		<path d="M344.184,425.45c1.213,0,2.445-0.295,3.585-0.918c61.745-33.69,100.102-98.268,100.102-168.532
			S409.515,121.158,347.77,87.468c-3.636-1.984-8.192-0.645-10.176,2.991c-1.984,3.636-0.645,8.192,2.991,10.176
			c56.924,31.06,92.286,90.592,92.286,155.365s-35.362,124.305-92.286,155.365c-3.636,1.984-4.976,6.54-2.991,10.176
			C338.955,424.036,341.528,425.45,344.184,425.45z"/>
		<path d="M425.594,109.854c-2.707-3.135-7.443-3.483-10.578-0.775c-3.135,2.707-3.482,7.443-0.775,10.578
			c34.395,39.837,52.344,90.838,50.54,143.608c-1.813,53.038-23.491,102.926-61.04,140.475s-87.437,59.227-140.475,61.04
			c-52.763,1.795-103.771-16.145-143.608-50.54c-3.136-2.707-7.872-2.36-10.578,0.775c-2.707,3.135-2.36,7.871,0.775,10.578
			c40.747,35.18,92.382,54.31,146.159,54.31c2.583,0,5.172-0.044,7.765-0.133c56.85-1.944,110.323-25.179,150.568-65.425
			c40.246-40.246,63.481-93.719,65.425-150.568C481.705,207.223,462.464,152.558,425.594,109.854z"/>
		<path d="M47.22,248.735c1.813-53.038,23.491-102.926,61.04-140.475s87.437-59.227,140.475-61.04
			c52.771-1.802,103.771,16.145,143.608,50.54c3.136,2.707,7.872,2.36,10.578-0.775c2.707-3.135,2.36-7.871-0.775-10.578
			c-42.704-36.87-97.368-56.105-153.923-54.177c-56.85,1.944-110.323,25.179-150.568,65.425
			c-40.246,40.246-63.481,93.719-65.425,150.568c-1.934,56.555,17.307,111.22,54.177,153.923c1.483,1.718,3.575,2.599,5.68,2.599
			c1.736,0,3.481-0.6,4.898-1.823c3.135-2.707,3.482-7.443,0.775-10.578C63.365,352.506,45.416,301.505,47.22,248.735z"/>
		<path d="M256,375.726c2.152,0,4.2-0.924,5.624-2.538l120.242-136.273c2.62-2.97,2.48-7.465-0.321-10.266l-56.113-56.113
			c-1.406-1.407-3.314-2.197-5.303-2.197H191.871c-1.989,0-3.897,0.79-5.303,2.197l-56.113,56.113
			c-2.801,2.8-2.941,7.296-0.321,10.266l120.242,136.273C251.8,374.801,253.848,375.726,256,375.726z M306.83,239.452h52.792
			l-84.843,96.156L306.83,239.452z M311.83,224.452l11.576-34.729l34.728,34.729H311.83z M299.247,214.769l-26.94-31.43h37.417
			L299.247,214.769z M287.79,224.452h-63.58L256,187.363L287.79,224.452z M212.753,214.769l-10.477-31.43h37.417L212.753,214.769z
			 M200.169,224.452h-46.304l34.728-34.729L200.169,224.452z M291.019,239.452L256,344.508l-27.624-82.871
			c-1.31-3.93-5.557-6.053-9.487-4.744c-3.93,1.31-6.053,5.557-4.744,9.487l23.075,69.227l-84.843-96.156H291.019z"/>
	</g>
</g>
<g>
</g>
<g>
</g>
<g>
</g>
<g>
</g>
<g>
</g>
<g>
</g>
<g>
</g>
<g>
</g>
<g>
</g>
<g>
</g>
<g>
</g>
<g>
</g>
<g>
</g>
<g>
</g>
<g>
</g>
</svg>
