<?xml version="1.0" encoding="iso-8859-1"?>
<!-- Generator: Adobe Illustrator 22.0.0, SVG Export Plug-In . SVG Version: 6.00 Build 0)  -->
<svg version="1.1" id="Capa_1" xmlns="http://www.w3.org/2000/svg" xmlns:xlink="http://www.w3.org/1999/xlink" x="0px" y="0px"
	 viewBox="0 0 512 512" style="enable-background:new 0 0 512 512;" xml:space="preserve">
<g>
	<g>
		<path style="fill:#ECBD83;" d="M312.113,424.339h-8.016v-32.065H256v72.145h56.113c4.427,0,8.016-3.589,8.016-8.016v-24.048
			C320.129,427.927,316.54,424.339,312.113,424.339z"/>
		<rect x="256" y="392.274" style="fill:#F6D190;" width="48.097" height="24.048"/>
		<path style="fill:#F6D190;" d="M264.016,504.5h-16.032c-4.427,0-8.016-3.589-8.016-8.016V167.823h32.065v328.661
			C272.032,500.911,268.443,504.5,264.016,504.5z"/>
		<rect x="239.968" y="167.823" style="fill:#ECBD83;" width="32.065" height="32.065"/>
	</g>
	<path d="M320.129,399.774c4.142,0,7.5-3.358,7.5-7.5s-3.358-7.5-7.5-7.5h-40.597V172.111
		c36.945-10.308,64.129-44.262,64.129-84.449C343.661,39.325,304.336,0,256,0s-87.661,39.325-87.661,87.661
		c0,48.337,39.325,87.662,87.661,87.662c2.879,0,5.724-0.144,8.532-0.416v321.577c0,0.285-0.231,0.516-0.516,0.516h-16.032
		c-0.285,0-0.516-0.231-0.516-0.516V199.887c0-4.142-3.358-7.5-7.5-7.5s-7.5,3.358-7.5,7.5v296.597
		c0,8.556,6.96,15.516,15.516,15.516h16.032c8.556,0,15.516-6.96,15.516-15.516v-24.564h32.581c8.556,0,15.516-6.96,15.516-15.516
		v-24.048c0-8.556-6.96-15.516-15.516-15.516h-0.516v-17.064H320.129z M328.661,87.661c0,37.534-28.606,68.51-65.161,72.275v-25.385
		c13.953-2.606,24.048-12.365,24.048-24.345c0-19.53-18.209-25.853-29.088-29.63c-16.264-5.647-19.008-9.333-19.008-15.46
		c0-4.747,6.796-10.035,16.548-10.035s16.548,5.289,16.548,10.035c0,4.142,3.358,7.5,7.5,7.5s7.5-3.358,7.5-7.5
		c0-11.98-10.095-21.739-24.048-24.345V15.386C300.055,19.152,328.661,50.128,328.661,87.661z M183.339,87.661
		c0-37.533,28.606-68.509,65.161-72.275v25.385c-13.953,2.606-24.048,12.365-24.048,24.345c0,19.531,18.209,25.853,29.088,29.63
		c16.264,5.647,19.008,9.333,19.008,15.46c0,4.747-6.796,10.035-16.548,10.035s-16.548-5.289-16.548-10.035
		c0-4.142-3.358-7.5-7.5-7.5s-7.5,3.358-7.5,7.5c0,11.98,10.095,21.739,24.048,24.345v25.385
		C211.945,156.171,183.339,125.195,183.339,87.661z M304.097,431.839h8.016c0.285,0,0.516,0.231,0.516,0.516v24.048
		c0,0.285-0.231,0.516-0.516,0.516h-32.581v-57.145h17.064v24.564C296.597,428.481,299.955,431.839,304.097,431.839z"/>
</g>
<g>
</g>
<g>
</g>
<g>
</g>
<g>
</g>
<g>
</g>
<g>
</g>
<g>
</g>
<g>
</g>
<g>
</g>
<g>
</g>
<g>
</g>
<g>
</g>
<g>
</g>
<g>
</g>
<g>
</g>
</svg>
