<?xml version="1.0" encoding="iso-8859-1"?>
<!-- Generator: Adobe Illustrator 22.0.0, SVG Export Plug-In . SVG Version: 6.00 Build 0)  -->
<svg version="1.1" id="Capa_1" xmlns="http://www.w3.org/2000/svg" xmlns:xlink="http://www.w3.org/1999/xlink" x="0px" y="0px"
	 viewBox="0 0 512 512" style="enable-background:new 0 0 512 512;" xml:space="preserve">
<g>
	<g>
		<path style="fill:#DCDCA0;" d="M336.161,336.161H31.548c-13.282,0-24.048-10.767-24.048-24.048V119.726
			c0-13.282,10.767-24.048,24.048-24.048h304.613c13.282,0,24.048,10.767,24.048,24.048v192.387
			C360.21,325.394,349.443,336.161,336.161,336.161z"/>
		<path style="fill:#B9CDA5;" d="M358.737,312.113H55.597c-13.26,0-24.048-10.788-24.048-24.048V97.15v-1.473
			c-13.282,0-24.048,10.767-24.048,24.048v192.387c0,13.282,10.767,24.048,24.048,24.048h304.613
			c13.282,0,24.048-10.767,24.048-24.048H358.737z"/>
		<rect x="7.5" y="127.742" style="fill:#6F6571;" width="352.71" height="48.097"/>
		<rect x="7.5" y="127.742" style="fill:#5D5360;" width="24.048" height="48.097"/>
		<path style="fill:#DCDCA0;" d="M480.452,416.323H175.839c-13.282,0-24.048-10.767-24.048-24.048V199.887
			c0-13.282,10.767-24.048,24.048-24.048h304.613c13.282,0,24.048,10.767,24.048,24.048v192.387
			C504.5,405.556,493.733,416.323,480.452,416.323z"/>
		<path style="fill:#FFE09F;" d="M239.968,288.065h-32.065c-4.427,0-8.016-3.589-8.016-8.016v-16.032
			c0-4.427,3.589-8.016,8.016-8.016h32.065c4.427,0,8.016,3.589,8.016,8.016v16.032
			C247.984,284.476,244.395,288.065,239.968,288.065z"/>
		<path style="fill:#B9CDA5;" d="M503.027,392.274h-303.14c-13.26,0-24.048-10.788-24.048-24.048V175.839
			c-13.282,0-24.048,10.767-24.048,24.048v192.387c0,13.282,10.767,24.048,24.048,24.048h304.613
			c13.282,0,24.048-10.767,24.048-24.048H503.027z"/>
		<path style="fill:#F6D190;" d="M223.935,288.065h-16.032c-4.427,0-8.016-3.589-8.016-8.016v-16.032
			c0-4.427,3.589-8.016,8.016-8.016h16.032V288.065z"/>
	</g>
	<g>
		<path d="M480.452,168.339H367.709v-48.613c0-17.396-14.152-31.548-31.548-31.548H31.548C14.152,88.177,0,102.33,0,119.726v192.387
			c0,17.396,14.152,31.548,31.548,31.548h88.177c4.142,0,7.5-3.358,7.5-7.5s-3.358-7.5-7.5-7.5H31.548
			c-9.125,0-16.548-7.423-16.548-16.548V183.339h133.994c-2.979,4.814-4.703,10.483-4.703,16.548v8.532h-96.71
			c-4.142,0-7.5,3.358-7.5,7.5s3.358,7.5,7.5,7.5h96.71v168.855c0,17.396,14.152,31.548,31.548,31.548h304.613
			c17.396,0,31.548-14.152,31.548-31.548V199.887C512,182.491,497.848,168.339,480.452,168.339z M31.548,103.177h304.613
			c9.125,0,16.548,7.423,16.548,16.548v0.516H15v-0.516C15,110.601,22.423,103.177,31.548,103.177z M15,135.242h337.709v33.097H15
			V135.242z M497,392.274c0,9.125-7.423,16.548-16.548,16.548H175.839c-9.125,0-16.548-7.423-16.548-16.548V199.887
			c0-9.125,7.423-16.548,16.548-16.548h304.613c9.125,0,16.548,7.423,16.548,16.548V392.274z"/>
		<path d="M207.903,295.564h32.064c8.556,0,15.516-6.96,15.516-15.516v-16.032c0-8.556-6.96-15.516-15.516-15.516h-32.064
			c-8.556,0-15.516,6.96-15.516,15.516v16.032C192.387,288.604,199.348,295.564,207.903,295.564z M207.387,264.016
			c0-0.285,0.231-0.516,0.516-0.516h32.064c0.285,0,0.516,0.231,0.516,0.516v16.032c0,0.285-0.231,0.516-0.516,0.516h-32.064
			c-0.285,0-0.516-0.231-0.516-0.516V264.016z"/>
		<path d="M199.887,335.645h40.081c4.142,0,7.5-3.358,7.5-7.5s-3.358-7.5-7.5-7.5h-40.081c-4.142,0-7.5,3.358-7.5,7.5
			S195.745,335.645,199.887,335.645z"/>
		<path d="M312.113,360.726H199.887c-4.142,0-7.5,3.358-7.5,7.5s3.358,7.5,7.5,7.5h112.226c4.142,0,7.5-3.358,7.5-7.5
			S316.255,360.726,312.113,360.726z"/>
		<path d="M312.113,320.645h-40.081c-4.142,0-7.5,3.358-7.5,7.5s3.358,7.5,7.5,7.5h40.081c4.142,0,7.5-3.358,7.5-7.5
			S316.255,320.645,312.113,320.645z"/>
		<path d="M384.258,320.645h-40.081c-4.142,0-7.5,3.358-7.5,7.5s3.358,7.5,7.5,7.5h40.081c4.142,0,7.5-3.358,7.5-7.5
			S388.4,320.645,384.258,320.645z"/>
		<path d="M456.403,320.645h-40.081c-4.142,0-7.5,3.358-7.5,7.5s3.358,7.5,7.5,7.5h40.081c4.142,0,7.5-3.358,7.5-7.5
			S460.545,320.645,456.403,320.645z"/>
		<path d="M456.403,360.726h-40.081c-4.142,0-7.5,3.358-7.5,7.5s3.358,7.5,7.5,7.5h40.081c4.142,0,7.5-3.358,7.5-7.5
			S460.545,360.726,456.403,360.726z"/>
		<path d="M436.363,231.436c7.955,0,12.541,3.624,12.541,4.774c0,4.142,3.358,7.5,7.5,7.5s7.5-3.358,7.5-7.5
			c0-9.214-8.356-16.763-20.041-19.055v-1.236c0-4.142-3.358-7.5-7.5-7.5s-7.5,3.358-7.5,7.5v1.236
			c-11.684,2.291-20.04,9.841-20.04,19.054c0,15.562,15.925,20.207,25.44,22.982c13.521,3.943,14.641,6.31,14.641,8.582
			c0,1.151-4.585,4.774-12.541,4.774c-7.955,0-12.54-3.624-12.54-4.774c0-4.142-3.358-7.5-7.5-7.5s-7.5,3.358-7.5,7.5
			c0,9.214,8.356,16.763,20.04,19.054v1.236c0,4.142,3.358,7.5,7.5,7.5s7.5-3.358,7.5-7.5v-1.236
			c11.685-2.291,20.041-9.841,20.041-19.055c0-15.562-15.925-20.207-25.44-22.982c-13.521-3.943-14.64-6.309-14.64-8.582
			C423.823,235.059,428.408,231.436,436.363,231.436z"/>
	</g>
</g>
<g>
</g>
<g>
</g>
<g>
</g>
<g>
</g>
<g>
</g>
<g>
</g>
<g>
</g>
<g>
</g>
<g>
</g>
<g>
</g>
<g>
</g>
<g>
</g>
<g>
</g>
<g>
</g>
<g>
</g>
</svg>
