<?xml version="1.0" encoding="iso-8859-1"?>
<!-- Generator: Adobe Illustrator 22.0.0, SVG Export Plug-In . SVG Version: 6.00 Build 0)  -->
<svg version="1.1" id="Capa_1" xmlns="http://www.w3.org/2000/svg" xmlns:xlink="http://www.w3.org/1999/xlink" x="0px" y="0px"
	 viewBox="0 0 512 512" style="enable-background:new 0 0 512 512;" xml:space="preserve">
<g>
	<g>
		<rect x="103.694" y="71.629" style="fill:#F9EAC7;" width="304.613" height="240.484"/>
		<rect x="79.645" y="103.694" style="fill:#F4DBB3;" width="352.71" height="240.484"/>
		<rect x="55.597" y="135.758" style="fill:#F9EAC7;" width="400.806" height="240.484"/>
		<rect x="31.548" y="167.823" style="fill:#F4DBB3;" width="448.903" height="240.484"/>
		<g>
			<rect x="7.5" y="199.887" style="fill:#F9EAC7;" width="497" height="240.484"/>
			<circle style="fill:#C8C5C9;" cx="59.605" cy="251.992" r="20.04"/>
			<circle style="fill:#C8C5C9;" cx="452.395" cy="251.992" r="20.04"/>
			<circle style="fill:#C8C5C9;" cx="452.395" cy="388.266" r="20.04"/>
			<circle style="fill:#C8C5C9;" cx="59.605" cy="388.266" r="20.04"/>
			<path style="fill:#F4DBB3;" d="M504.5,415.781H64.196c-17.709,0-32.065-14.356-32.065-32.065v-183.83H7.5l0,240.484h497V415.781z
				"/>
		</g>
		<polygon style="fill:#DCDCA0;" points="256,231.952 135.758,360.21 191.871,360.21 191.871,440.371 320.129,440.371 
			320.129,360.21 376.242,360.21 		"/>
		<path style="fill:#B9CDA5;" d="M320.129,440.371v-24.048l0,0h-88.177c-8.854,0-16.032-7.178-16.032-16.032V360.21
			c0-13.282-10.767-24.048-24.048-24.048h-0.604l81.215-86.63L256,231.952L135.758,360.21h56.113v80.161H320.129z"/>
	</g>
	<g>
		<path d="M504.5,192.387h-16.548v-24.564c0-4.142-3.358-7.5-7.5-7.5h-16.548v-24.564c0-4.142-3.358-7.5-7.5-7.5h-16.548v-24.565
			c0-4.142-3.358-7.5-7.5-7.5h-16.548V71.629c0-4.142-3.358-7.5-7.5-7.5H103.693c-4.142,0-7.5,3.358-7.5,7.5v24.564H79.645
			c-4.142,0-7.5,3.358-7.5,7.5v24.565H55.597c-4.142,0-7.5,3.358-7.5,7.5v24.564H31.548c-4.142,0-7.5,3.358-7.5,7.5v24.564H7.5
			c-4.142,0-7.5,3.358-7.5,7.5v240.484c0,4.142,3.358,7.5,7.5,7.5h497c4.142,0,7.5-3.358,7.5-7.5V199.887
			C512,195.745,508.642,192.387,504.5,192.387z M87.145,111.193h40.592c4.142,0,7.5-3.358,7.5-7.5s-3.358-7.5-7.5-7.5h-16.543
			V79.129h289.613v17.064h-241c-4.142,0-7.5,3.358-7.5,7.5s3.358,7.5,7.5,7.5h265.048v17.065H87.145V111.193z M39.048,175.323
			h361.24c4.142,0,7.5-3.358,7.5-7.5s-3.358-7.5-7.5-7.5H63.097v-17.064h385.807v17.064h-16.545c-4.142,0-7.5,3.358-7.5,7.5
			s3.358,7.5,7.5,7.5h40.594v17.064H39.048V175.323z M191.871,352.709H153.07L256,242.917l102.93,109.792h-38.801
			c-4.142,0-7.5,3.358-7.5,7.5v72.662H199.371v-72.662C199.371,356.067,196.013,352.709,191.871,352.709z M497,432.871H327.629
			v-65.162h48.613c2.989,0,5.693-1.775,6.882-4.519s0.634-5.93-1.41-8.111L261.472,226.822c-1.418-1.513-3.398-2.371-5.472-2.371
			s-4.054,0.858-5.472,2.371L130.287,355.08c-2.044,2.181-2.599,5.368-1.41,8.111s3.893,4.519,6.882,4.519h48.613v65.162H15V207.387
			h482V432.871z"/>
		<path d="M452.395,224.452H304.097c-4.142,0-7.5,3.358-7.5,7.5s3.358,7.5,7.5,7.5h123.792c-1.934,3.764-3.033,8.025-3.033,12.54
			c0,15.186,12.354,27.541,27.54,27.541c4.515,0,8.776-1.099,12.541-3.033v87.26c-3.764-1.934-8.025-3.033-12.541-3.033
			c-15.186,0-27.54,12.354-27.54,27.541c0,4.515,1.099,8.776,3.033,12.541h-75.695c-4.142,0-7.5,3.358-7.5,7.5s3.358,7.5,7.5,7.5
			h100.202c15.186,0,27.541-12.354,27.541-27.541V251.992C479.936,236.806,467.581,224.452,452.395,224.452z M452.395,264.532
			c-6.915,0-12.54-5.625-12.54-12.541c0-6.915,5.625-12.54,12.54-12.54c6.915,0,12.541,5.625,12.541,12.54
			C464.936,258.907,459.31,264.532,452.395,264.532z M452.395,400.807c-6.915,0-12.54-5.625-12.54-12.541s5.625-12.541,12.54-12.541
			c6.915,0,12.541,5.625,12.541,12.541S459.31,400.807,452.395,400.807z"/>
		<path d="M207.903,224.452H59.605c-15.186,0-27.541,12.354-27.541,27.54v136.274c0,15.186,12.354,27.541,27.541,27.541h100.202
			c4.142,0,7.5-3.358,7.5-7.5s-3.358-7.5-7.5-7.5H84.112c1.934-3.764,3.033-8.025,3.033-12.541c0-15.186-12.354-27.541-27.54-27.541
			c-4.515,0-8.776,1.099-12.541,3.033v-87.26c3.764,1.934,8.025,3.033,12.541,3.033c15.186,0,27.54-12.354,27.54-27.541
			c0-4.515-1.099-8.776-3.033-12.54h123.792c4.142,0,7.5-3.358,7.5-7.5S212.045,224.452,207.903,224.452z M59.605,375.726
			c6.915,0,12.54,5.625,12.54,12.541s-5.625,12.541-12.54,12.541c-6.915,0-12.541-5.625-12.541-12.541S52.69,375.726,59.605,375.726
			z M72.145,251.992c0,6.915-5.625,12.541-12.54,12.541c-6.915,0-12.541-5.625-12.541-12.541c0-6.915,5.625-12.54,12.541-12.54
			C66.52,239.452,72.145,245.077,72.145,251.992z"/>
	</g>
</g>
<g>
</g>
<g>
</g>
<g>
</g>
<g>
</g>
<g>
</g>
<g>
</g>
<g>
</g>
<g>
</g>
<g>
</g>
<g>
</g>
<g>
</g>
<g>
</g>
<g>
</g>
<g>
</g>
<g>
</g>
</svg>
