<?xml version="1.0" encoding="iso-8859-1"?>
<!-- Generator: Adobe Illustrator 22.0.0, SVG Export Plug-In . SVG Version: 6.00 Build 0)  -->
<svg version="1.1" id="Capa_1" xmlns="http://www.w3.org/2000/svg" xmlns:xlink="http://www.w3.org/1999/xlink" x="0px" y="0px"
	 viewBox="0 0 512 512" style="enable-background:new 0 0 512 512;" xml:space="preserve">
<g>
	<g>
		<polygon style="fill:#FFE09F;" points="440.371,416.323 296.081,416.323 328.145,320.129 408.307,320.129 		"/>
		<path style="fill:#F6D190;" d="M353.519,320.129h-25.373l-32.065,96.194h144.29l-8.016-24.048h-69.531
			c-16.417,0-28.008-16.086-22.812-31.659L353.519,320.129z"/>
		<polygon style="fill:#FFE09F;" points="296.081,416.323 151.79,416.323 183.855,320.129 264.016,320.129 		"/>
		<path style="fill:#F6D190;" d="M209.228,320.129h-25.373l-32.065,96.194h144.29l-8.016-24.048h-69.531
			c-16.417,0-28.008-16.086-22.812-31.659L209.228,320.129z"/>
		<polygon style="fill:#FFE09F;" points="151.79,416.323 7.5,416.323 39.565,320.129 119.726,320.129 		"/>
		<path style="fill:#F6D190;" d="M64.938,320.129H39.565L7.5,416.323h144.29l-8.016-24.048H74.243
			c-16.417,0-28.008-16.086-22.812-31.659L64.938,320.129z"/>
		<polygon style="fill:#FFE09F;" points="223.936,320.129 79.645,320.129 111.71,223.936 191.871,223.936 		"/>
		<path style="fill:#F6D190;" d="M137.083,223.936H111.71l-32.065,96.194h144.29l-8.016-24.048h-69.531
			c-16.417,0-28.008-16.086-22.812-31.659L137.083,223.936z"/>
		<polygon style="fill:#FFE09F;" points="368.226,320.129 223.936,320.129 256,223.936 336.161,223.936 		"/>
		<path style="fill:#F6D190;" d="M281.373,223.936H256l-32.065,96.194h144.29l-8.016-24.048h-69.531
			c-16.417,0-28.008-16.086-22.812-31.659L281.373,223.936z"/>
		<polygon style="fill:#FFE09F;" points="296.081,223.936 151.79,223.936 183.855,127.742 264.016,127.742 		"/>
		<path style="fill:#FFE09F;" d="M496.484,95.677H368.226c-4.427,0-8.016,3.589-8.016,8.016v304.613
			c0,4.427,3.589,8.016,8.016,8.016h128.258c4.427,0,8.016-3.589,8.016-8.016V103.694C504.5,99.266,500.911,95.677,496.484,95.677z"
			/>
		<path style="fill:#F6D190;" d="M496.484,95.677H368.226c-2.213,0-4.217,0.897-5.668,2.348l37.733,37.733h64.129l37.733-37.733
			C500.701,96.575,498.698,95.677,496.484,95.677z"/>
		<path style="fill:#F6D190;" d="M368.226,416.323h128.258c2.213,0,4.217-0.897,5.668-2.348l-37.733-37.733H400.29l-37.733,37.733
			C364.008,415.425,366.012,416.323,368.226,416.323z"/>
		<path style="fill:#E2A975;" d="M400.29,135.758l-37.733-37.733c-1.451,1.451-2.348,3.454-2.348,5.668v304.613
			c0,2.213,0.897,4.217,2.348,5.668l37.733-37.733V135.758z"/>
		<rect x="392.274" y="127.742" style="fill:#ECBD83;" width="80.161" height="256.516"/>
		<circle style="fill:#FFE09F;" cx="432.355" cy="199.887" r="16.032"/>
		<path style="fill:#F6D190;" d="M209.228,127.742h-25.373l-32.065,96.194h144.29l-8.016-24.048h-69.531
			c-16.417,0-28.008-16.086-22.812-31.659L209.228,127.742z"/>
	</g>
	<g>
		<path d="M504.5,88.177H360.21c-4.142,0-7.5,3.358-7.5,7.5v154.186l-9.433-28.299c-1.021-3.063-3.887-5.128-7.115-5.128h-34.675
			l-30.355-91.065c-1.021-3.063-3.887-5.128-7.115-5.128h-80.161c-3.228,0-6.094,2.066-7.115,5.128l-30.355,91.065H111.71
			c-3.228,0-6.094,2.066-7.115,5.128l-30.355,91.065H39.565c-3.228,0-6.094,2.066-7.115,5.128L0.385,413.951
			c-0.762,2.287-0.379,4.801,1.031,6.757c1.41,1.956,3.674,3.115,6.084,3.115h497c4.142,0,7.5-3.358,7.5-7.5V95.677
			C512,91.535,508.642,88.177,504.5,88.177z M367.71,113.784l17.065,17.065v250.304l-17.065,17.065V113.784z M469.329,120.242
			h-73.948l-17.065-17.064h108.078L469.329,120.242z M395.381,391.758h73.948l17.064,17.064H378.316L395.381,391.758z
			 M479.936,381.152v-205.31c0-4.142-3.358-7.5-7.5-7.5s-7.5,3.358-7.5,7.5v200.916h-65.161V135.242h65.161v8.534
			c0,4.142,3.358,7.5,7.5,7.5s7.5-3.358,7.5-7.5v-12.928L497,113.784v284.433L479.936,381.152z M352.71,297.297v15.332H234.341
			l27.064-81.193h69.35L352.71,297.297z M296.077,392.594l-21.655-64.965h43.31L296.077,392.594z M223.936,296.412l-21.659-64.976
			h43.317L223.936,296.412z M189.261,135.242h69.35l27.064,81.194H162.196L189.261,135.242z M117.115,231.436h69.35l27.064,81.193
			H90.051L117.115,231.436z M128.633,370.569l12.751,38.254H17.906l27.064-81.194h69.35l3.64,10.918
			c1.31,3.929,5.557,6.054,9.487,4.743c3.929-1.31,6.053-5.558,4.743-9.487l-2.058-6.174h43.318l-21.659,64.977l-8.927-26.78
			c-1.311-3.93-5.558-6.053-9.487-4.744C129.447,362.392,127.324,366.64,128.633,370.569z M162.196,408.823l27.064-81.194h69.35
			l27.064,81.194H162.196z M333.544,327.629h19.166v81.194h-46.23L333.544,327.629z"/>
		<path d="M432.355,176.355c-12.976,0-23.532,10.557-23.532,23.532s10.557,23.532,23.532,23.532s23.532-10.557,23.532-23.532
			S445.331,176.355,432.355,176.355z M432.355,208.419c-4.705,0-8.532-3.828-8.532-8.532s3.828-8.532,8.532-8.532
			s8.532,3.828,8.532,8.532S437.06,208.419,432.355,208.419z"/>
		<path d="M440.371,328.661h-16.032c-4.142,0-7.5,3.358-7.5,7.5s3.358,7.5,7.5,7.5h16.032c4.142,0,7.5-3.358,7.5-7.5
			S444.513,328.661,440.371,328.661z"/>
		<path d="M440.371,296.597h-16.032c-4.142,0-7.5,3.358-7.5,7.5s3.358,7.5,7.5,7.5h16.032c4.142,0,7.5-3.358,7.5-7.5
			S444.513,296.597,440.371,296.597z"/>
	</g>
</g>
<g>
</g>
<g>
</g>
<g>
</g>
<g>
</g>
<g>
</g>
<g>
</g>
<g>
</g>
<g>
</g>
<g>
</g>
<g>
</g>
<g>
</g>
<g>
</g>
<g>
</g>
<g>
</g>
<g>
</g>
</svg>
