<?xml version="1.0" encoding="iso-8859-1"?>
<!-- Generator: Adobe Illustrator 22.0.0, SVG Export Plug-In . SVG Version: 6.00 Build 0)  -->
<svg version="1.1" id="Capa_1" xmlns="http://www.w3.org/2000/svg" xmlns:xlink="http://www.w3.org/1999/xlink" x="0px" y="0px"
	 viewBox="0 0 512 512" style="enable-background:new 0 0 512 512;" xml:space="preserve">
<g>
	<g>
		<path style="fill:#DCDCA0;" d="M504.5,112.754l0-25.092H7.5l0,25.092c0,3.798,2.731,6.824,6.393,7.831
			c10.178,2.8,17.655,12.121,17.655,23.189c0,11.068-7.477,20.39-17.655,23.189c-3.662,1.007-6.393,4.034-6.393,7.831v18.12
			c0,3.798,2.731,6.824,6.393,7.831c10.178,2.8,17.655,12.121,17.655,23.189s-7.477,20.39-17.655,23.189
			c-3.662,1.007-6.393,4.034-6.393,7.831v18.12c0,3.798,2.731,6.824,6.393,7.831c10.178,2.8,17.655,12.121,17.655,23.189
			c0,11.068-7.477,20.39-17.655,23.189c-3.662,1.007-6.393,4.034-6.393,7.831l0,17.076c0,4.427,3.589,8.016,8.016,8.016H504.5
			l0-25.092c0-3.798-2.731-6.824-6.393-7.831c-10.178-2.8-17.655-12.121-17.655-23.189c0-11.068,7.477-20.39,17.655-23.189
			c3.662-1.007,6.393-4.034,6.393-7.831v-18.12c0-3.798-2.731-6.824-6.393-7.831c-10.178-2.8-17.655-12.121-17.655-23.189
			s7.477-20.39,17.655-23.189c3.662-1.007,6.393-4.034,6.393-7.831v-18.12c0-3.798-2.731-6.824-6.393-7.831
			c-10.178-2.8-17.655-12.121-17.655-23.189c0-11.068,7.477-20.39,17.655-23.189C501.769,119.578,504.5,116.551,504.5,112.754z"/>
		<g>
			<path style="fill:#B9CDA5;" d="M13.894,247.125c-3.663,1.007-6.394,4.034-6.394,7.831v18.12c0,3.798,2.731,6.824,6.394,7.832
				c10.178,2.8,17.655,12.121,17.655,23.189v-80.161C31.548,235.003,24.071,244.325,13.894,247.125z"/>
			<path style="fill:#B9CDA5;" d="M13.894,166.963c-3.663,1.007-6.394,4.034-6.394,7.831v18.12c0,3.798,2.731,6.824,6.394,7.832
				c10.178,2.8,17.655,12.121,17.655,23.189v-80.161C31.548,154.842,24.071,164.164,13.894,166.963z"/>
			<path style="fill:#B9CDA5;" d="M31.548,87.661H7.5l0,25.093c0,3.797,2.731,6.824,6.393,7.831
				c10.178,2.799,17.656,12.121,17.656,23.189V87.661z"/>
			<path style="fill:#B9CDA5;" d="M31.548,304.097L31.548,304.097c0,11.068-7.477,20.39-17.656,23.189
				c-3.662,1.007-6.393,4.033-6.393,7.83l0,17.077c0,4.427,3.589,8.016,8.016,8.016H504.5v-24.048H63.613
				C45.904,336.161,31.548,321.806,31.548,304.097z"/>
		</g>
		<polygon style="fill:#FFE09F;" points="440.371,315.5 71.629,320.129 71.629,127.742 440.371,127.742 		"/>
		<rect x="231.952" y="296.081" style="fill:#F6D190;" width="208.419" height="24.048"/>
		<path style="fill:#C8C5C9;" d="M231.952,320.129v-61.084c0-7.02-3.068-13.69-8.398-18.259l-39.317-33.7
			c-5.33-4.569-8.398-11.239-8.398-18.259v-12.988c0-8.854-7.178-16.032-16.032-16.032h-16.032c-8.854,0-16.032-7.178-16.032-16.032
			v-16.032H71.629v192.387H231.952z"/>
		<path style="fill:#B6B1B7;" d="M95.677,256V127.742H71.629v192.387h160.323v-24.048h-96.194
			C113.622,296.081,95.677,278.136,95.677,256z"/>
		<circle style="fill:#ECEAEC;" cx="336.161" cy="360.21" r="64.129"/>
		<path style="fill:#DAD8DB;" d="M336.161,296.081c-35.418,0-64.129,28.711-64.129,64.129s28.711,64.129,64.129,64.129
			s64.129-28.711,64.129-64.129S371.579,296.081,336.161,296.081z M336.161,392.274c-17.709,0-32.065-14.356-32.065-32.065
			c0-17.709,14.356-32.065,32.065-32.065c17.709,0,32.065,14.356,32.065,32.065C368.226,377.918,353.87,392.274,336.161,392.274z"/>
	</g>
	<g>
		<path d="M504.5,127.226c4.142,0,7.5-3.358,7.5-7.5V87.661c0-4.142-3.358-7.5-7.5-7.5H7.5c-4.142,0-7.5,3.358-7.5,7.5v32.064
			c0,4.142,3.358,7.5,7.5,7.5c9.125,0,16.548,7.424,16.548,16.549S16.625,160.323,7.5,160.323c-4.142,0-7.5,3.358-7.5,7.5v32.064
			c0,4.142,3.358,7.5,7.5,7.5c9.125,0,16.548,7.424,16.548,16.548S16.625,240.484,7.5,240.484c-4.142,0-7.5,3.358-7.5,7.5v32.064
			c0,4.142,3.358,7.5,7.5,7.5c9.125,0,16.548,7.423,16.548,16.548S16.625,320.645,7.5,320.645c-4.142,0-7.5,3.358-7.5,7.5v32.064
			c0,4.142,3.358,7.5,7.5,7.5h257.427c3.762,35.984,34.271,64.129,71.235,64.129c36.964,0,67.473-28.145,71.235-64.129H504.5
			c4.142,0,7.5-3.358,7.5-7.5v-32.064c0-4.142-3.358-7.5-7.5-7.5c-9.125,0-16.548-7.423-16.548-16.548s7.424-16.548,16.548-16.548
			c4.142,0,7.5-3.358,7.5-7.5v-32.064c0-4.142-3.358-7.5-7.5-7.5c-9.125,0-16.548-7.424-16.548-16.548s7.424-16.548,16.548-16.548
			c4.142,0,7.5-3.358,7.5-7.5v-32.064c0-4.142-3.358-7.5-7.5-7.5c-9.125,0-16.548-7.423-16.548-16.548
			S495.375,127.226,504.5,127.226z M336.161,416.839c-31.212,0-56.607-25.383-56.628-56.591c0-0.013,0.002-0.026,0.002-0.039
			s-0.002-0.026-0.002-0.039c0.021-31.208,25.416-56.59,56.628-56.59c31.226,0,56.629,25.404,56.629,56.629
			C392.791,391.435,367.387,416.839,336.161,416.839z M497,174.422v18.866c-13.788,3.374-24.048,15.835-24.048,30.647
			s10.261,27.273,24.048,30.647v18.866c-13.788,3.374-24.048,15.835-24.048,30.647S483.212,331.37,497,334.744v17.965h-89.604
			c-3.762-35.984-34.271-64.129-71.235-64.129c-36.963,0-67.473,28.145-71.235,64.129H15v-17.965
			c13.788-3.374,24.048-15.835,24.048-30.647S28.788,276.823,15,273.449v-18.866c13.788-3.374,24.048-15.835,24.048-30.647
			S28.788,196.662,15,193.288v-18.866c13.788-3.374,24.048-15.835,24.048-30.647c0-14.813-10.261-27.274-24.048-30.648V95.161h482
			v17.965c-13.788,3.374-24.048,15.835-24.048,30.648C472.952,158.587,483.212,171.048,497,174.422z"/>
		<path d="M440.371,120.242H71.629c-4.142,0-7.5,3.358-7.5,7.5v192.387c0,4.142,3.358,7.5,7.5,7.5h176.356
			c4.142,0,7.5-3.358,7.5-7.5s-3.358-7.5-7.5-7.5h-8.534v-35.637c2.871,0.934,5.902,1.621,9.048,2.041v9.032
			c0,4.142,3.358,7.5,7.5,7.5s7.5-3.358,7.5-7.5v-9.031c18.478-2.462,32.064-13.894,32.064-28.044
			c0-22.548-22.463-29.568-37.327-34.213c-20.54-6.418-26.802-11.067-26.802-19.896c0-6.405,10.088-13.542,24.564-13.542
			s24.564,7.137,24.564,13.542c0,4.142,3.358,7.5,7.5,7.5s7.5-3.358,7.5-7.5c0-14.149-13.586-25.581-32.064-28.043v-9.031
			c0-4.142-3.358-7.5-7.5-7.5s-7.5,3.358-7.5,7.5v9.031c-18.478,2.462-32.064,13.894-32.064,28.043
			c0,22.548,22.463,29.568,37.327,34.213c20.54,6.418,26.802,11.067,26.802,19.896c0,6.405-10.088,13.542-24.564,13.542
			c-6.187,0-12.033-1.376-16.603-3.808c-0.547-10.817-5.491-20.943-13.762-28.033l-33.718-28.901
			c-5.452-4.673-8.578-11.471-8.578-18.651v-9.301c0-12.976-10.557-23.532-23.532-23.532h-16.032c-4.705,0-8.533-3.828-8.533-8.532
			v-8.533h297.629v177.387h-8.53c-4.142,0-7.5,3.358-7.5,7.5s3.358,7.5,7.5,7.5h16.03c4.142,0,7.5-3.358,7.5-7.5V127.742
			C447.871,123.6,444.513,120.242,440.371,120.242z M143.774,167.307h16.032c4.705,0,8.532,3.828,8.532,8.532v9.301
			c0,11.565,5.036,22.514,13.816,30.04l33.718,28.901c5.452,4.673,8.578,11.471,8.578,18.651v49.897H79.129V135.242h41.113v8.533
			C120.242,156.75,130.798,167.307,143.774,167.307z"/>
		<path d="M365.344,344.927c-4.011,1.033-6.425,5.123-5.393,9.134c0.514,1.994,0.774,4.063,0.774,6.149
			c0,13.545-11.02,24.565-24.564,24.565s-24.564-11.02-24.564-24.565s11.02-24.564,24.564-24.564c2.097,0,4.176,0.263,6.181,0.783
			c4.011,1.037,8.102-1.371,9.141-5.38c1.038-4.01-1.371-8.103-5.38-9.141c-3.232-0.837-6.578-1.261-9.942-1.261
			c-21.816,0-39.564,17.749-39.564,39.564c0,21.816,17.749,39.565,39.564,39.565s39.564-17.749,39.564-39.565
			c0-3.348-0.42-6.675-1.248-9.89C373.445,346.309,369.358,343.893,365.344,344.927z"/>
		<path d="M400.291,160.323h-48.097c-4.142,0-7.5,3.358-7.5,7.5s3.358,7.5,7.5,7.5h48.097c4.142,0,7.5-3.358,7.5-7.5
			S404.433,160.323,400.291,160.323z"/>
		<path d="M400.291,192.387h-32.065c-4.142,0-7.5,3.358-7.5,7.5s3.358,7.5,7.5,7.5h32.065c4.142,0,7.5-3.358,7.5-7.5
			S404.433,192.387,400.291,192.387z"/>
		<path d="M400.291,224.452h-32.065c-4.142,0-7.5,3.358-7.5,7.5s3.358,7.5,7.5,7.5h32.065c4.142,0,7.5-3.358,7.5-7.5
			S404.433,224.452,400.291,224.452z"/>
	</g>
</g>
<g>
</g>
<g>
</g>
<g>
</g>
<g>
</g>
<g>
</g>
<g>
</g>
<g>
</g>
<g>
</g>
<g>
</g>
<g>
</g>
<g>
</g>
<g>
</g>
<g>
</g>
<g>
</g>
<g>
</g>
</svg>
