<?xml version="1.0" encoding="iso-8859-1"?>
<!-- Generator: Adobe Illustrator 22.0.0, SVG Export Plug-In . SVG Version: 6.00 Build 0)  -->
<svg version="1.1" id="Capa_1" xmlns="http://www.w3.org/2000/svg" xmlns:xlink="http://www.w3.org/1999/xlink" x="0px" y="0px"
	 viewBox="0 0 512 512" style="enable-background:new 0 0 512 512;" xml:space="preserve">
<g>
	<g>
		<path style="fill:#ECEAEC;" d="M456.403,39.565h-16.032c-4.427,0-8.016,3.589-8.016,8.016v40.081h32.065V47.581
			C464.419,43.153,460.831,39.565,456.403,39.565z"/>
		<path style="fill:#DCDCA0;" d="M496.484,103.694H15.516c-4.427,0-8.016,3.589-8.016,8.016v272.548
			c0,4.427,3.589,8.016,8.016,8.016l488.984-8.016V111.71C504.5,107.282,500.911,103.694,496.484,103.694z"/>
		<path style="fill:#FFE09F;" d="M376.242,191.871H63.613c-4.427,0-8.016-3.589-8.016-8.016v-24.048
			c0-4.427,3.589-8.016,8.016-8.016h312.629c4.427,0,8.016,3.589,8.016,8.016v24.048
			C384.258,188.282,380.669,191.871,376.242,191.871z"/>
		<path style="fill:#B9CDA5;" d="M31.548,344.177V103.694H15.516c-4.427,0-8.016,3.589-8.016,8.016v272.548
			c0,4.427,3.589,8.016,8.016,8.016h480.968c4.427,0,8.016-3.589,8.016-8.016v-16.032H55.597
			C42.337,368.226,31.548,357.438,31.548,344.177z"/>
		<path style="fill:#F6D190;" d="M79.645,151.79H63.613c-4.427,0-8.016,3.589-8.016,8.016v24.048c0,4.427,3.589,8.016,8.016,8.016
			h312.629c4.427,0,8.016-3.589,8.016-8.016v-11.523H95.677c-8.854,0-16.032-7.178-16.032-16.032V151.79z"/>
		<path style="fill:#FFE09F;" d="M456.403,71.629h-16.032c-8.854,0-16.032,7.178-16.032,16.032V400.29
			c0,27.67,10.767,56.113,24.048,56.113c13.282,0,24.048-28.443,24.048-56.113V87.661C472.435,78.807,465.257,71.629,456.403,71.629
			z"/>
		<path style="fill:#F6D190;" d="M448.387,400.29V71.629h-8.016c-8.854,0-16.032,7.178-16.032,16.032V400.29
			c0,27.67,10.767,56.113,24.048,56.113c4.831,0,9.32-3.794,13.089-9.914C454.987,440.201,448.387,421.48,448.387,400.29z"/>
		<rect x="424.339" y="296.081" style="fill:#6F6571;" width="48.097" height="96.194"/>
		<rect x="424.339" y="296.081" style="fill:#5D5360;" width="24.048" height="96.194"/>
	</g>
	<g>
		<path d="M496.484,96.193h-16.548v-8.532c0-7.035-3.107-13.354-8.016-17.67V47.581c0-8.556-6.96-15.516-15.516-15.516h-16.032
			c-8.556,0-15.516,6.96-15.516,15.516v22.411c-4.909,4.316-8.016,10.635-8.016,17.67v8.532H15.516C6.96,96.193,0,103.154,0,111.709
			v272.549c0,8.556,6.96,15.516,15.516,15.516h376.758c4.142,0,7.5-3.358,7.5-7.5s-3.358-7.5-7.5-7.5H15.516
			c-0.285,0-0.516-0.231-0.516-0.516V111.709c0-0.285,0.231-0.516,0.516-0.516h401.323v289.097c0,26.445,9.018,54.685,24.048,61.862
			v10.283c0,4.142,3.358,7.5,7.5,7.5s7.5-3.358,7.5-7.5v-10.283c15.031-7.177,24.048-35.417,24.048-61.862v-0.516h16.548
			c8.556,0,15.516-6.96,15.516-15.516V111.709C512,103.154,505.04,96.193,496.484,96.193z M431.839,87.661
			c0-4.705,3.828-8.532,8.532-8.532h16.032c4.705,0,8.532,3.828,8.532,8.532v168.855h-33.097V87.661z M464.936,288.581h-33.097
			v-17.064h33.097V288.581z M431.839,303.581h33.097v81.194h-33.097V303.581z M439.855,47.581c0-0.285,0.231-0.516,0.516-0.516
			h16.032c0.285,0,0.516,0.231,0.516,0.516v16.562c-0.172-0.004-0.343-0.013-0.516-0.013h-16.032c-0.173,0-0.344,0.009-0.516,0.013
			V47.581z M458.457,435.868c-3.938,9.564-8.18,13.036-10.07,13.036s-6.132-3.472-10.07-13.036c-4.117-10-6.479-22.967-6.479-35.577
			v-0.516h33.097v0.516C464.936,412.9,462.574,425.868,458.457,435.868z M497,384.258c0,0.285-0.231,0.516-0.516,0.516h-16.548
			V111.193h16.548c0.285,0,0.516,0.231,0.516,0.516V384.258z"/>
		<path d="M76.871,260.06c4.834-2.908,11.689-4.576,18.807-4.576c14.995,0,24.564,6.982,24.564,11.789c0,4.142,3.358,7.5,7.5,7.5
			s7.5-3.358,7.5-7.5c0-13.28-13.586-24.01-32.064-26.321v-9c0-4.142-3.358-7.5-7.5-7.5s-7.5,3.358-7.5,7.5v9
			c-18.478,2.311-32.064,13.041-32.064,26.321c0,21.268,22.566,27.732,37.499,32.01c20.159,5.774,26.63,10.048,26.63,17.59
			c0,2.382-2.099,5.011-5.757,7.212c-4.834,2.908-11.689,4.576-18.807,4.576c-14.995,0-24.564-6.982-24.564-11.789
			c0-4.142-3.358-7.5-7.5-7.5s-7.5,3.358-7.5,7.5c0,13.28,13.586,24.01,32.064,26.321v9c0,4.142,3.358,7.5,7.5,7.5
			s7.5-3.358,7.5-7.5v-9c18.478-2.311,32.064-13.041,32.064-26.321c0-21.269-22.566-27.732-37.499-32.01
			c-20.159-5.775-26.63-10.049-26.63-17.59C71.113,264.89,73.211,262.261,76.871,260.06z"/>
		<path d="M391.758,183.855v-24.048c0-8.556-6.961-15.516-15.517-15.516H111.71c-4.142,0-7.5,3.358-7.5,7.5s3.358,7.5,7.5,7.5
			h264.532c0.285,0,0.517,0.231,0.517,0.516v24.048c0,0.285-0.232,0.516-0.517,0.516H63.613c-0.285,0-0.516-0.231-0.516-0.516
			v-24.048c0-0.285,0.231-0.516,0.516-0.516h16.035c4.142,0,7.5-3.358,7.5-7.5s-3.358-7.5-7.5-7.5H63.613
			c-8.556,0-15.516,6.96-15.516,15.516v24.048c0,8.556,6.96,15.516,15.516,15.516h312.629
			C384.797,199.371,391.758,192.411,391.758,183.855z"/>
		<path d="M376.242,232.468H175.839c-4.142,0-7.5,3.358-7.5,7.5s3.358,7.5,7.5,7.5h200.403c4.142,0,7.5-3.358,7.5-7.5
			S380.384,232.468,376.242,232.468z"/>
		<path d="M376.242,264.532H175.839c-4.142,0-7.5,3.358-7.5,7.5s3.358,7.5,7.5,7.5h200.403c4.142,0,7.5-3.358,7.5-7.5
			S380.384,264.532,376.242,264.532z"/>
		<path d="M376.242,320.645h-30.119c-8.427,0-16.35,3.282-22.308,9.241l-8.315,8.315l-30.847-23.992
			c-1.694-1.318-3.872-1.847-5.981-1.453c-2.11,0.394-3.95,1.673-5.054,3.514l-5.343,8.905l-13.734-24.721
			c-1.301-2.342-3.752-3.812-6.431-3.857c-2.688-0.016-5.178,1.343-6.556,3.64l-17.043,28.405c-2.974,4.956-8.411,8.034-14.19,8.034
			h-10.432c-4.142,0-7.5,3.358-7.5,7.5s3.358,7.5,7.5,7.5h10.432c11.018,0,21.384-5.869,27.053-15.316l10.362-17.271l13.734,24.722
			c1.301,2.342,3.752,3.812,6.431,3.856c2.7,0.056,5.178-1.343,6.556-3.641l7.669-12.782l29.392,22.86
			c1.361,1.059,2.985,1.58,4.603,1.58c1.93,0,3.85-0.742,5.305-2.197l12.997-12.997c3.125-3.126,7.281-4.847,11.701-4.847h30.119
			c4.142,0,7.5-3.358,7.5-7.5S380.384,320.645,376.242,320.645z"/>
	</g>
</g>
<g>
</g>
<g>
</g>
<g>
</g>
<g>
</g>
<g>
</g>
<g>
</g>
<g>
</g>
<g>
</g>
<g>
</g>
<g>
</g>
<g>
</g>
<g>
</g>
<g>
</g>
<g>
</g>
<g>
</g>
</svg>
