<?xml version="1.0" encoding="iso-8859-1"?>
<!-- Generator: Adobe Illustrator 22.0.0, SVG Export Plug-In . SVG Version: 6.00 Build 0)  -->
<svg version="1.1" id="Capa_1" xmlns="http://www.w3.org/2000/svg" xmlns:xlink="http://www.w3.org/1999/xlink" x="0px" y="0px"
	 viewBox="0 0 512 512" style="enable-background:new 0 0 512 512;" xml:space="preserve">
<g>
	<g>
		<rect x="135.758" y="127.742" style="fill:#F9EAC7;" width="240.484" height="32.065"/>
		<rect x="135.758" y="159.807" style="fill:#DCDCA0;" width="240.484" height="32.065"/>
		<rect x="135.758" y="191.871" style="fill:#F9EAC7;" width="240.484" height="32.065"/>
		<rect x="135.758" y="223.936" style="fill:#DCDCA0;" width="240.484" height="32.065"/>
		<rect x="135.758" y="127.742" style="fill:#DCDCA0;" width="24.048" height="32.065"/>
		<rect x="135.758" y="159.807" style="fill:#B9CDA5;" width="24.048" height="32.065"/>
		<rect x="135.758" y="191.871" style="fill:#DCDCA0;" width="24.048" height="32.065"/>
		<rect x="135.758" y="223.936" style="fill:#B9CDA5;" width="24.048" height="32.065"/>
		<rect x="223.935" y="127.742" style="fill:#ECBD83;" width="64.129" height="128.258"/>
		<path style="fill:#E2A975;" d="M247.984,215.92v-88.178h-24.048V256h64.129v-24.048h-24.048
			C255.162,231.952,247.984,224.774,247.984,215.92z"/>
		<rect x="256" y="256" style="fill:#F9EAC7;" width="240.484" height="32.065"/>
		<rect x="256" y="288.065" style="fill:#DCDCA0;" width="240.484" height="32.065"/>
		<rect x="256" y="320.129" style="fill:#F9EAC7;" width="240.484" height="32.065"/>
		<rect x="256" y="352.194" style="fill:#DCDCA0;" width="240.484" height="32.065"/>
		<rect x="256" y="256" style="fill:#DCDCA0;" width="24.048" height="32.065"/>
		<rect x="256" y="288.065" style="fill:#B9CDA5;" width="24.048" height="32.065"/>
		<rect x="256" y="320.129" style="fill:#DCDCA0;" width="24.048" height="32.065"/>
		<rect x="256" y="352.194" style="fill:#B9CDA5;" width="24.048" height="32.065"/>
		<rect x="344.177" y="256" style="fill:#ECBD83;" width="64.129" height="128.258"/>
		<path style="fill:#E2A975;" d="M368.226,344.178V256h-24.048v128.258h64.129V360.21h-24.048
			C375.404,360.21,368.226,353.032,368.226,344.178z"/>
		<rect x="15.516" y="256" style="fill:#F9EAC7;" width="240.484" height="32.065"/>
		<rect x="15.516" y="288.065" style="fill:#DCDCA0;" width="240.484" height="32.065"/>
		<rect x="15.516" y="320.129" style="fill:#F9EAC7;" width="240.484" height="32.065"/>
		<rect x="15.516" y="352.194" style="fill:#DCDCA0;" width="240.484" height="32.065"/>
		<rect x="15.516" y="256" style="fill:#DCDCA0;" width="24.048" height="32.065"/>
		<rect x="15.516" y="288.065" style="fill:#B9CDA5;" width="24.048" height="32.065"/>
		<rect x="15.516" y="320.129" style="fill:#DCDCA0;" width="24.048" height="32.065"/>
		<rect x="15.516" y="352.194" style="fill:#B9CDA5;" width="24.048" height="32.065"/>
		<rect x="103.694" y="256" style="fill:#ECBD83;" width="64.129" height="128.258"/>
		<path style="fill:#E2A975;" d="M127.742,344.178V256h-24.048v128.258h64.129V360.21h-24.048
			C134.92,360.21,127.742,353.032,127.742,344.178z"/>
	</g>
	<path d="M504.5,376.758h-0.516V256c0-4.142-3.358-7.5-7.5-7.5H383.742V127.742c0-4.143-3.358-7.5-7.5-7.5H135.758
		c-4.142,0-7.5,3.357-7.5,7.5V248.5H15.516c-4.142,0-7.5,3.358-7.5,7.5v120.758H7.5c-4.142,0-7.5,3.358-7.5,7.5
		c0,4.143,3.358,7.5,7.5,7.5h497c4.142,0,7.5-3.357,7.5-7.5C512,380.116,508.642,376.758,504.5,376.758z M23.016,327.629h73.177
		v17.064H23.016V327.629z M111.193,263.5h49.129v113.258h-49.129V263.5z M248.5,263.5v17.064h-73.178V263.5H248.5z M216.436,184.371
		h-73.177v-17.064h73.177V184.371z M143.258,199.371h73.177v17.064h-73.177V199.371z M231.436,135.242h49.129V248.5h-49.129V135.242
		z M368.742,216.436h-73.177v-17.064h73.177V216.436z M336.677,312.629H263.5v-17.064h73.177V312.629z M248.5,312.629h-73.178
		v-17.064H248.5V312.629z M175.322,327.629H248.5v17.064h-73.178V327.629z M263.5,327.629h73.177v17.064H263.5V327.629z
		 M336.677,280.564H263.5V263.5h73.177V280.564z M175.322,359.693H248.5v17.064h-73.178V359.693z M263.5,359.693h73.177v17.064
		H263.5V359.693z M351.677,263.5h49.129v113.258h-49.129V263.5z M415.807,327.629h73.177v17.064h-73.177V327.629z M488.984,312.629
		h-73.177v-17.064h73.177V312.629z M415.807,359.693h73.177v17.064h-73.177V359.693z M488.984,280.564h-73.177V263.5h73.177V280.564
		z M295.564,248.5v-17.064h73.177V248.5H295.564z M368.742,152.307h-16.548c-4.142,0-7.5,3.358-7.5,7.5c0,4.143,3.358,7.5,7.5,7.5
		h16.548v17.064h-73.177v-17.064h24.565c4.142,0,7.5-3.358,7.5-7.5c0-4.142-3.358-7.5-7.5-7.5h-24.565v-17.064h73.177V152.307z
		 M216.436,135.242v17.064h-73.177v-17.064H216.436z M143.258,231.436h73.177V248.5h-73.177V231.436z M96.193,263.5v17.064H71.63
		c-4.142,0-7.5,3.358-7.5,7.5c0,4.143,3.358,7.5,7.5,7.5h24.563v17.064H23.016v-17.064h16.551c4.142,0,7.5-3.357,7.5-7.5
		c0-4.142-3.358-7.5-7.5-7.5H23.016V263.5H96.193z M23.016,359.693h73.177v17.064H23.016V359.693z"/>
</g>
<g>
</g>
<g>
</g>
<g>
</g>
<g>
</g>
<g>
</g>
<g>
</g>
<g>
</g>
<g>
</g>
<g>
</g>
<g>
</g>
<g>
</g>
<g>
</g>
<g>
</g>
<g>
</g>
<g>
</g>
</svg>
