<?xml version="1.0" encoding="iso-8859-1"?>
<!-- Generator: Adobe Illustrator 22.0.0, SVG Export Plug-In . SVG Version: 6.00 Build 0)  -->
<svg version="1.1" id="Capa_1" xmlns="http://www.w3.org/2000/svg" xmlns:xlink="http://www.w3.org/1999/xlink" x="0px" y="0px"
	 viewBox="0 0 512 512" style="enable-background:new 0 0 512 512;" xml:space="preserve">
<g>
	<g>
		<path style="fill:#B9CDA5;" d="M453.843,108.042c4.215-1.567,6.268-6.393,4.474-10.517c-6.232-14.324-19.484-27.507-37.564-35.199
			c-18.081-7.691-36.768-8.095-51.41-2.651c-4.215,1.567-6.268,6.393-4.474,10.517c6.232,14.324,19.484,27.507,37.564,35.199
			S439.201,113.486,453.843,108.042z"/>
		<path style="fill:#B9CDA5;" d="M148.429,154.271c2.219-3.911,0.686-8.927-3.34-10.93c-13.986-6.958-32.612-8.527-51.403-2.786
			s-33.359,17.454-41.067,31.041c-2.219,3.911-0.686,8.927,3.34,10.93c13.986,6.958,32.612,8.527,51.403,2.786
			S140.721,167.858,148.429,154.271z"/>
		<path style="fill:#96B49B;" d="M153.084,168.783c0.126-4.638-3.7-8.463-8.337-8.337c-16.11,0.438-33.835,8.032-48.168,22.366
			s-21.928,32.058-22.366,48.168c-0.126,4.638,3.7,8.463,8.337,8.337c16.11-0.438,33.835-8.032,48.168-22.366
			S152.646,184.892,153.084,168.783z"/>
		<path style="fill:#96B49B;" d="M364.542,79.648c-4.638-0.126-8.463,3.7-8.337,8.337c0.438,16.11,8.032,33.835,22.366,48.168
			c14.333,14.333,32.058,21.928,48.168,22.366c4.638,0.126,8.463-3.7,8.337-8.337c-0.438-16.11-8.032-33.835-22.366-48.168
			S380.651,80.086,364.542,79.648z"/>
		<path style="fill:#B9CDA5;" d="M184.033,167.078c10.766-0.943,20.287-5.225,27.281-11.513c4.071-3.659,3.504-10.126-1.141-13.022
			c-7.981-4.976-18.102-7.536-28.868-6.593c-10.766,0.943-20.287,5.225-27.281,11.513c-4.071,3.659-3.504,10.126,1.141,13.022
			C163.147,165.461,173.267,168.021,184.033,167.078z"/>
		<circle style="fill:#FFE09F;" cx="139.766" cy="247.984" r="40.081"/>
		<circle style="fill:#FFE09F;" cx="139.766" cy="247.984" r="40.081"/>
		<path style="fill:#F6D190;" d="M151.79,276.04c-22.136,0-40.081-17.945-40.081-40.081c0-7.985,2.399-15.384,6.424-21.633
			c-11.074,7.133-18.448,19.507-18.448,33.657c0,22.136,17.945,40.081,40.081,40.081c14.151,0,26.525-7.374,33.657-18.448
			C167.174,273.641,159.776,276.04,151.79,276.04z"/>
		<circle style="fill:#FFE09F;" cx="372.234" cy="167.822" r="40.081"/>
		<circle style="fill:#FFE09F;" cx="372.234" cy="167.822" r="40.081"/>
		<path style="fill:#F6D190;" d="M384.258,195.879c-22.136,0-40.081-17.945-40.081-40.081c0-7.985,2.399-15.384,6.424-21.633
			c-11.074,7.133-18.448,19.507-18.448,33.657c0,22.136,17.945,40.081,40.081,40.081c14.151,0,26.525-7.374,33.657-18.448
			C399.642,193.48,392.243,195.879,384.258,195.879z"/>
		<path style="fill:#B9CDA5;" d="M333.17,49.637c2.165,10.588,7.504,19.559,14.549,25.79c4.1,3.627,10.459,2.326,12.806-2.619
			c4.033-8.497,5.422-18.843,3.257-29.431c-2.165-10.588-7.505-19.559-14.549-25.79c-4.1-3.627-10.459-2.326-12.806,2.619
			C332.394,28.703,331.004,39.049,333.17,49.637z"/>
		<path style="fill:#E2A975;" d="M323.722,504.5c-13.126-23.734-40.274-40.081-71.73-40.081s-49.199,16.347-62.325,40.081H323.722z"
			/>
		<path style="fill:#D19A6E;" d="M271.825,466.793c-6.357-1.465-12.965-2.374-19.833-2.374c-31.456,0-58.604,16.347-71.73,40.081
			h39.666C230.187,485.948,249.07,472.039,271.825,466.793z"/>
	</g>
	<g>
		<path d="M132.266,239.968V256c0,4.142,3.358,7.5,7.5,7.5s7.5-3.358,7.5-7.5v-16.032c0-4.142-3.358-7.5-7.5-7.5
			S132.266,235.825,132.266,239.968z"/>
		<path d="M467.254,96.225c-9.281-20.696-29.097-36.91-53.005-43.374c-5.834-1.577-11.803-2.537-17.759-2.889l37.16-37.16
			c2.929-2.929,2.929-7.678,0-10.606c-2.929-2.929-7.678-2.929-10.606,0l-51.389,51.389c-0.148-4.676-0.871-9.398-2.218-14.027
			c-4.513-15.51-15.372-28.245-29.049-34.067c-3.282-1.396-7.098-0.288-9.119,2.653c-8.418,12.25-10.75,28.824-6.238,44.334
			c3.377,11.604,10.307,21.654,19.312,28.419l-84.851,84.851V87.661c0-4.142-3.358-7.5-7.5-7.5s-7.5,3.358-7.5,7.5v150.232
			l-63.161-63.162c1.117-0.032,2.236-0.084,3.358-0.182c16.091-1.41,30.695-9.584,39.067-21.868c2.01-2.949,1.663-6.906-0.829-9.461
			c-10.38-10.641-26.181-16.154-42.274-14.741c-12.172,1.066-23.488,6.009-31.905,13.668l-33.545-33.545V55.596
			c0-4.142-3.358-7.5-7.5-7.5s-7.5,3.358-7.5,7.5v38.006L72.924,66.325c-2.929-2.93-7.678-2.929-10.606,0
			c-2.929,2.929-2.929,7.678,0,10.606l53.192,53.192c-5.956,0.352-11.925,1.312-17.758,2.889
			c-23.909,6.463-43.725,22.678-53.006,43.374c-1.46,3.256-0.424,7.091,2.479,9.168c8.608,6.16,18.681,10.365,29.557,12.403
			c-7.125,13.546-10.361,28.583-8.911,43.062c0.356,3.551,3.165,6.36,6.716,6.716c2.305,0.23,4.621,0.346,6.948,0.346
			c3.54,0,7.102-0.274,10.67-0.805c-0.003,0.237-0.018,0.47-0.018,0.708c0,26.236,21.345,47.581,47.581,47.581
			s47.581-21.345,47.581-47.581c0-21.278-14.04-39.336-33.342-45.402c4.318-8.142,7.174-16.768,8.476-25.487l82.011,82.011v198.13
			c-3.337,0.264-6.655,0.683-9.919,1.296c-4.071,0.764-6.751,4.684-5.987,8.755c0.764,4.07,4.683,6.751,8.755,5.987
			c4.792-0.9,9.721-1.356,14.65-1.356c22.087,0,42.961,9.359,57.242,25.081H194.777c3.966-4.374,8.447-8.322,13.347-11.666
			c3.421-2.334,4.302-7.001,1.967-10.422c-2.334-3.421-7.001-4.304-10.422-1.967c-9.425,6.431-17.626,14.692-23.928,24.055h-11.927
			c-4.142,0-7.5,3.358-7.5,7.5s3.358,7.5,7.5,7.5h176.355c4.142,0,7.5-3.358,7.5-7.5s-3.358-7.5-7.5-7.5h-11.935
			c-15.325-22.791-40.868-37.509-68.743-39.765V347.283l69.949-69.948c2.929-2.929,2.929-7.678,0-10.606
			c-2.928-2.929-7.677-2.929-10.606,0l-59.342,59.342V186.961l90.028-90.028c1.302,8.718,4.158,17.345,8.476,25.487
			c-19.302,6.066-33.342,24.125-33.342,45.403c0,26.236,21.345,47.581,47.581,47.581s47.581-21.345,47.581-47.581
			c0-0.238-0.014-0.471-0.018-0.708c3.568,0.532,7.129,0.805,10.67,0.805c2.327,0,4.644-0.115,6.948-0.346
			c3.551-0.355,6.36-3.165,6.716-6.716c1.449-14.479-1.786-29.516-8.911-43.062c10.877-2.038,20.949-6.243,29.557-12.403
			C467.678,103.316,468.715,99.481,467.254,96.225z M340.423,22.611c6.776,4.804,12.047,12.328,14.61,21.138
			s2.151,17.988-0.989,25.677c-6.776-4.804-12.047-12.328-14.61-21.138C336.87,39.477,337.283,30.3,340.423,22.611z
			 M181.961,143.422c9.137-0.801,18.062,1.388,24.994,5.965c-6.03,5.712-14.436,9.419-23.577,10.22
			c-7.37,0.643-14.597-0.656-20.755-3.582l-3.264-3.265C165.305,147.552,173.301,144.181,181.961,143.422z M61.422,176.8
			c8.326-13.887,22.942-24.63,40.244-29.307c9.761-2.64,19.939-3.2,29.533-1.68l7.329,7.329
			c-16.845,2.549-33.332,10.9-46.298,23.866c-2.253,2.253-4.365,4.615-6.334,7.064C77.026,183.276,68.698,180.811,61.422,176.8z
			 M82.537,233.071c0.302-16.189,7.626-32.784,20.299-45.457c12.674-12.674,29.269-19.998,45.459-20.299
			c-0.195,11.297-3.788,22.79-10.395,33.135c-19.611,0.761-36.213,13.44-42.742,30.988
			C90.927,232.445,86.707,232.995,82.537,233.071z M172.347,247.984c0,17.965-14.616,32.581-32.581,32.581
			s-32.581-14.616-32.581-32.581s14.616-32.581,32.581-32.581S172.347,230.019,172.347,247.984z M372.234,200.403
			c-17.965,0-32.581-14.616-32.581-32.581c0-17.965,14.616-32.581,32.581-32.581s32.581,14.616,32.581,32.581
			C404.814,185.787,390.199,200.403,372.234,200.403z M416.842,151.277c-6.53-17.548-23.131-30.227-42.742-30.988
			c-6.607-10.346-10.201-21.838-10.395-33.135c16.188,0.302,32.786,7.626,45.459,20.299c12.673,12.673,19.997,29.268,20.299,45.457
			C425.293,152.834,421.073,152.283,416.842,151.277z M426.104,103.911c-1.969-2.449-4.081-4.811-6.334-7.064
			c-12.966-12.967-29.452-21.319-46.297-23.867l7.327-7.327c9.592-1.521,19.771-0.959,29.533,1.68
			c17.301,4.677,31.918,15.42,40.244,29.307C443.302,100.649,434.975,103.115,426.104,103.911z"/>
		<path d="M372.234,152.306c-4.142,0-7.5,3.358-7.5,7.5v16.032c0,4.142,3.358,7.5,7.5,7.5s7.5-3.358,7.5-7.5v-16.032
			C379.734,155.664,376.376,152.306,372.234,152.306z"/>
	</g>
</g>
<g>
</g>
<g>
</g>
<g>
</g>
<g>
</g>
<g>
</g>
<g>
</g>
<g>
</g>
<g>
</g>
<g>
</g>
<g>
</g>
<g>
</g>
<g>
</g>
<g>
</g>
<g>
</g>
<g>
</g>
</svg>
