<?xml version="1.0" encoding="iso-8859-1"?>
<!-- Generator: Adobe Illustrator 22.0.0, SVG Export Plug-In . SVG Version: 6.00 Build 0)  -->
<svg version="1.1" id="Capa_1" xmlns="http://www.w3.org/2000/svg" xmlns:xlink="http://www.w3.org/1999/xlink" x="0px" y="0px"
	 viewBox="0 0 511.987 511.987" style="enable-background:new 0 0 511.987 511.987;" xml:space="preserve">
<g>
	<g>
		<rect x="71.628" y="87.655" style="fill:#EAC89F;" width="336.677" height="160.323"/>
		<rect x="39.565" y="55.59" style="fill:#F4DBB3;" width="336.677" height="160.323"/>
		<g>
			<rect x="7.5" y="23.526" style="fill:#F9EAC7;" width="336.677" height="160.323"/>
			<circle style="fill:#B6B1B7;" cx="87.661" cy="103.687" r="16.032"/>
			<circle style="fill:#B9CDA5;" cx="264.016" cy="103.687" r="16.032"/>
			<path style="fill:#F4DBB3;" d="M344.177,159.212H40.081c-4.427,0-8.016-3.589-8.016-8.016V23.526H7.5l0,160.323h336.677V159.212z
				"/>
			<ellipse style="fill:#9B959D;" cx="175.839" cy="103.687" rx="40.081" ry="48.097"/>
		</g>
		<circle style="fill:#FFFFFF;" cx="272.032" cy="255.994" r="104.21"/>
		<path style="fill:#DAD8DB;" d="M488.468,488.461c-4.102,0-8.208-1.566-11.335-4.697L376.242,382.874
			c-6.263-6.263-6.263-16.408,0-22.671c6.255-6.263,16.416-6.263,22.671,0l100.891,100.891c6.263,6.263,6.263,16.408,0,22.671
			C496.676,486.896,492.57,488.461,488.468,488.461z"/>
		<path style="fill:#EDF4FF;" d="M280.221,310.567c-31.435-6.093-56.668-31.327-62.762-62.762
			c-2.609-13.458-1.804-26.432,1.666-38.272c1.54-5.256-5.105-9.051-8.62-4.851c-13.446,16.067-20.715,37.467-18.11,60.598
			c4.115,36.541,33.805,66.233,70.346,70.35c23.132,2.606,44.534-4.663,60.602-18.11c4.201-3.515,0.406-10.161-4.851-8.62
			C306.653,312.37,293.678,313.175,280.221,310.567z"/>
		<path style="fill:#EAC89F;" d="M411.626,372.916l-22.671,22.671l88.177,88.177c3.127,3.131,7.233,4.697,11.335,4.697
			s8.208-1.566,11.335-4.697c6.263-6.263,6.263-16.408,0-22.671L411.626,372.916z"/>
	</g>
	<g>
		<path d="M87.661,127.219c12.976,0,23.532-10.557,23.532-23.532s-10.557-23.532-23.532-23.532s-23.532,10.557-23.532,23.532
			S74.686,127.219,87.661,127.219z M87.661,95.155c4.705,0,8.532,3.828,8.532,8.532s-3.828,8.532-8.532,8.532
			s-8.532-3.828-8.532-8.532S82.957,95.155,87.661,95.155z"/>
		<path d="M240.484,103.687c0,12.976,10.557,23.532,23.532,23.532s23.532-10.557,23.532-23.532s-10.557-23.532-23.532-23.532
			S240.484,90.711,240.484,103.687z M272.548,103.687c0,4.705-3.828,8.532-8.532,8.532s-8.532-3.828-8.532-8.532
			s3.828-8.532,8.532-8.532S272.548,98.982,272.548,103.687z"/>
		<path d="M175.839,80.155c-4.142,0-7.5,3.358-7.5,7.5v32.064c0,4.142,3.358,7.5,7.5,7.5s7.5-3.358,7.5-7.5V87.655
			C183.339,83.513,179.981,80.155,175.839,80.155z"/>
		<path d="M505.106,455.79L404.219,354.903c-4.442-4.447-10.353-6.896-16.642-6.896c-3.697,0-7.26,0.852-10.473,2.453
			l-20.995-20.995c17.196-19.654,27.633-45.365,27.633-73.47c0-0.173-0.006-0.344-0.007-0.516h24.572c4.142,0,7.5-3.358,7.5-7.5
			V87.655c0-4.142-3.358-7.5-7.5-7.5h-24.565V55.59c0-4.142-3.358-7.5-7.5-7.5h-24.564V23.526c0-4.142-3.358-7.5-7.5-7.5H7.5
			c-4.142,0-7.5,3.358-7.5,7.5v160.323c0,4.142,3.358,7.5,7.5,7.5h24.564v24.564c0,4.142,3.358,7.5,7.5,7.5h24.564v24.564
			c0,4.142,3.358,7.5,7.5,7.5h88.7c-0.001,0.172-0.007,0.344-0.007,0.516c0,61.597,50.113,111.709,111.709,111.709
			c28.105,0,53.816-10.437,73.47-27.633l21.015,21.015c-4.358,8.8-2.897,19.773,4.422,27.093l100.888,100.888
			c4.442,4.447,10.353,6.896,16.642,6.896s12.199-2.449,16.639-6.894C514.281,479.893,514.281,464.965,505.106,455.79z
			 M351.677,63.09h17.064v96.71c0,4.142,3.358,7.5,7.5,7.5s7.5-3.358,7.5-7.5V95.155h17.065v145.323h-18.148
			c-3.386-24.26-14.591-46.048-30.982-62.729V63.09z M15,176.349V31.026h321.677v133.911c-5.355-3.813-11.069-7.148-17.064-9.982
			V55.59c0-4.142-3.358-7.5-7.5-7.5h-16.032c-4.142,0-7.5,3.358-7.5,7.5s3.358,7.5,7.5,7.5h8.532v81.194h-96.314
			c9.295-10.154,15.121-24.592,15.121-40.597c0-16.005-5.826-30.443-15.121-40.597h55.716c4.142,0,7.5-3.358,7.5-7.5
			s-3.358-7.5-7.5-7.5H39.564c-4.142,0-7.5,3.358-7.5,7.5v96.194c0,4.142,3.358,7.5,7.5,7.5h16.032c4.142,0,7.5-3.358,7.5-7.5
			s-3.358-7.5-7.5-7.5h-8.532V63.09h96.314c-9.295,10.154-15.121,24.591-15.121,40.597c0,16.005,5.826,30.444,15.121,40.597H87.663
			c-4.142,0-7.5,3.358-7.5,7.5s3.358,7.5,7.5,7.5h128.508c-8.172,4.739-15.688,10.485-22.384,17.064H15z M175.839,144.284
			c-17.965,0-32.581-18.212-32.581-40.597s14.616-40.597,32.581-40.597s32.581,18.211,32.581,40.597
			S193.804,144.284,175.839,144.284z M79.129,240.478v-17.064h64.646c4.142,0,7.5-3.358,7.5-7.5s-3.358-7.5-7.5-7.5h-96.71v-17.064
			h133.911c-10.156,14.265-17.04,31.009-19.57,49.129H79.129z M272.032,352.703c-53.326,0-96.709-43.384-96.709-96.709
			s43.384-96.709,96.709-96.709s96.709,43.384,96.709,96.709S325.358,352.703,272.032,352.703z M381.545,377.571
			c-3.326-3.326-3.326-8.738,0.003-12.067c1.608-1.61,3.749-2.497,6.029-2.497s4.421,0.887,6.032,2.5l7.41,7.41l-12.064,12.064
			L381.545,377.571z M494.497,478.464c-1.608,1.61-3.75,2.497-6.029,2.497s-4.421-0.887-6.032-2.5l-82.874-82.874l12.064-12.064
			l82.874,82.874C497.826,469.723,497.826,475.135,494.497,478.464z"/>
		<path d="M317.416,210.61c-2.929-2.929-7.678-2.929-10.606,0l-80.161,80.161c-2.929,2.929-2.929,7.678,0,10.606
			c1.464,1.464,3.384,2.197,5.303,2.197s3.839-0.732,5.303-2.197l80.161-80.161C320.345,218.288,320.345,213.539,317.416,210.61z"/>
		<path d="M263.5,215.913c0-12.976-10.557-23.532-23.532-23.532s-23.532,10.557-23.532,23.532s10.557,23.532,23.532,23.532
			S263.5,228.889,263.5,215.913z M231.436,215.913c0-4.705,3.828-8.532,8.532-8.532s8.532,3.828,8.532,8.532
			s-3.828,8.532-8.532,8.532S231.436,220.618,231.436,215.913z"/>
		<path d="M312.113,264.526c-12.976,0-23.532,10.557-23.532,23.532s10.557,23.532,23.532,23.532s23.532-10.557,23.532-23.532
			S325.088,264.526,312.113,264.526z M312.113,296.59c-4.705,0-8.532-3.828-8.532-8.532s3.828-8.532,8.532-8.532
			s8.532,3.828,8.532,8.532S316.817,296.59,312.113,296.59z"/>
	</g>
</g>
<g>
</g>
<g>
</g>
<g>
</g>
<g>
</g>
<g>
</g>
<g>
</g>
<g>
</g>
<g>
</g>
<g>
</g>
<g>
</g>
<g>
</g>
<g>
</g>
<g>
</g>
<g>
</g>
<g>
</g>
</svg>
