<?xml version="1.0" encoding="iso-8859-1"?>
<!-- Generator: Adobe Illustrator 22.0.0, SVG Export Plug-In . SVG Version: 6.00 Build 0)  -->
<svg version="1.1" id="Capa_1" xmlns="http://www.w3.org/2000/svg" xmlns:xlink="http://www.w3.org/1999/xlink" x="0px" y="0px"
	 viewBox="0 0 512 512" style="enable-background:new 0 0 512 512;" xml:space="preserve">
<g>
	<g>
		<path style="fill:#B9CDA5;" d="M465.795,313.488c-6.013-6.014-9.391-14.169-9.391-22.673V256c0-39.845-32.3-72.145-72.145-72.145
			s-72.145,32.3-72.145,72.145v34.815c0,8.504-3.378,16.66-9.391,22.673c-4.252,4.252-6.641,10.019-6.641,16.032
			c0,12.522,10.151,22.673,22.673,22.673h131.009c12.522,0,22.673-10.151,22.673-22.673
			C472.435,323.507,470.047,317.74,465.795,313.488z"/>
		<path style="fill:#96B49B;" d="M376.242,328.145c-17.709,0-32.065-14.356-32.065-32.065v-48.097
			c0-25.929,12.364-48.914,31.458-63.566c-35.772,4.269-63.523,34.661-63.523,71.583l0,34.815c0,8.705-3.794,16.776-9.792,23.084
			c-6.319,6.647-8.242,16.742-3.893,25.749c3.827,7.924,12.319,12.545,21.119,12.545l130.216,0c12.945,0,23.357-10.85,22.638-23.952
			c-0.038-0.036-0.063-0.06-0.101-0.097H376.242z"/>
		<path style="fill:#B9CDA5;" d="M416.168,119.726c-5.047,0-9.764,2.404-12.793,6.441c-4.365,5.817-11.278,9.591-19.117,9.591
			s-14.753-3.774-19.117-9.591c-3.029-4.037-7.746-6.441-12.793-6.441l-5.92,0c-5.215,0-9.042,4.901-7.777,9.96l5.77,23.081
			c4.568,18.271,20.984,31.088,39.817,31.088h0.039c18.833,0,35.249-12.817,39.817-31.088l5.77-23.081
			c1.265-5.059-2.562-9.96-7.777-9.96L416.168,119.726z"/>
		<path style="fill:#96B49B;" d="M400.29,183.855h-32.065v-8.016c0-8.854,7.178-16.032,16.032-16.032h0
			c8.854,0,16.032,7.178,16.032,16.032V183.855z"/>
		<path style="fill:#B9CDA5;" d="M257.375,313.488c-6.013-6.014-9.391-14.169-9.391-22.673V256c0-39.845-32.3-72.145-72.145-72.145
			s-72.145,32.3-72.145,72.145v34.815c0,8.504-3.378,16.66-9.391,22.673c-4.252,4.252-6.641,10.019-6.641,16.032
			c0,12.522,10.151,22.673,22.673,22.673h131.009c12.522,0,22.673-10.151,22.673-22.673
			C264.016,323.507,261.628,317.74,257.375,313.488z"/>
		<path style="fill:#96B49B;" d="M167.823,328.145c-17.709,0-32.065-14.356-32.065-32.065v-48.097
			c0-25.929,12.364-48.914,31.458-63.566c-35.772,4.269-63.523,34.661-63.523,71.583l0,34.815c0,8.705-3.794,16.776-9.792,23.084
			c-6.319,6.647-8.242,16.742-3.893,25.749c3.827,7.924,12.319,12.545,21.119,12.545l130.216,0c12.945,0,23.357-10.85,22.638-23.952
			c-0.038-0.036-0.063-0.06-0.101-0.097H167.823z"/>
		<circle style="fill:#6F6571;" cx="440.371" cy="384.258" r="32.065"/>
		<circle style="fill:#6F6571;" cx="135.758" cy="384.258" r="32.065"/>
		<path style="fill:#B9CDA5;" d="M207.749,119.726c-5.047,0-9.764,2.404-12.793,6.441c-4.365,5.817-11.278,9.591-19.117,9.591
			c-7.84,0-14.753-3.774-19.117-9.591c-3.029-4.037-7.746-6.441-12.793-6.441l-5.92,0c-5.215,0-9.042,4.901-7.777,9.96l5.77,23.081
			c4.568,18.271,20.984,31.088,39.817,31.088h0.039c18.833,0,35.249-12.817,39.817-31.088l5.77-23.081
			c1.265-5.059-2.562-9.96-7.777-9.96L207.749,119.726z"/>
		<path style="fill:#96B49B;" d="M191.871,183.855h-32.065v-8.016c0-8.854,7.178-16.032,16.032-16.032h0
			c8.854,0,16.032,7.178,16.032,16.032V183.855z"/>
	</g>
	<g>
		<path d="M135.758,391.758h0.08c4.142,0,7.46-3.358,7.46-7.5s-3.398-7.5-7.54-7.5s-7.5,3.358-7.5,7.5
			S131.616,391.758,135.758,391.758z"/>
		<path d="M440.371,376.758c-4.142,0-7.5,3.358-7.5,7.5s3.358,7.5,7.5,7.5h0.08c4.142,0,7.46-3.358,7.46-7.5
			S444.513,376.758,440.371,376.758z"/>
		<path d="M504.5,344.693h-28.674c2.607-4.461,4.109-9.644,4.109-15.173c0-8.06-3.139-15.637-8.837-21.336
			c-4.64-4.639-7.195-10.808-7.195-17.369V256c0-33.712-21.064-62.578-50.714-74.182c8.793-6.518,15.371-15.991,18.181-27.231
			l8.261-33.042c0.561-2.24,0.057-4.614-1.364-6.435s-3.602-2.884-5.912-2.884h-16.187c-7.331,0-14.356,3.529-18.791,9.439
			c-3.144,4.19-7.926,6.593-13.119,6.593c-5.193,0-9.975-2.403-13.119-6.593c-4.435-5.911-11.46-9.439-18.791-9.439h-16.187
			c-2.31,0-4.49,1.064-5.912,2.884s-1.925,4.194-1.364,6.435l8.261,33.042c2.81,11.24,9.386,20.712,18.185,27.23
			c-29.652,11.603-50.718,40.47-50.718,74.184c0,4.142,3.358,7.5,7.5,7.5s7.5-3.358,7.5-7.5c0-35.646,29-64.645,64.646-64.645
			s64.645,29,64.645,64.645v34.815c0,10.568,4.116,20.504,11.588,27.976c2.866,2.866,4.444,6.676,4.444,10.729
			c0,8.366-6.807,15.173-15.173,15.173H318.753c-8.366,0-15.173-6.807-15.173-15.173c0-4.053,1.578-7.863,4.444-10.729
			c7.473-7.473,11.588-17.408,11.588-27.977v-2.751c0-4.142-3.358-7.5-7.5-7.5s-7.5,3.358-7.5,7.5v2.751
			c0,6.562-2.555,12.73-7.195,17.37c-5.699,5.699-8.837,13.276-8.837,21.335c0,5.529,1.502,10.712,4.109,15.173h-25.283
			c2.607-4.461,4.109-9.644,4.109-15.173c0-8.06-3.139-15.637-8.837-21.335c-4.64-4.64-7.195-10.809-7.195-17.37V256
			c0-33.712-21.064-62.578-50.714-74.182c8.793-6.518,15.371-15.991,18.181-27.232l8.26-33.042c0.561-2.24,0.057-4.614-1.364-6.435
			s-3.602-2.884-5.912-2.884h-16.187c-7.331,0-14.356,3.529-18.791,9.44c-3.144,4.19-7.925,6.593-13.119,6.593
			s-9.975-2.403-13.119-6.593c-4.435-5.911-11.46-9.439-18.791-9.439h-16.187c-2.31,0-4.49,1.064-5.912,2.884
			s-1.925,4.194-1.364,6.435l8.261,33.042c2.81,11.24,9.387,20.713,18.185,27.23C117.26,193.42,96.193,222.287,96.193,256v34.815
			c0,6.562-2.555,12.73-7.194,17.369c-5.699,5.699-8.838,13.276-8.838,21.336c0,5.529,1.502,10.712,4.109,15.173h-4.625
			c-9.125,0-16.548-7.423-16.548-16.548V119.726c0-17.396-14.152-31.548-31.548-31.548H7.5c-4.142,0-7.5,3.358-7.5,7.5
			s3.358,7.5,7.5,7.5h24.048c9.125,0,16.548,7.423,16.548,16.548v208.419c0,17.396,14.152,31.548,31.548,31.548h25.132
			c-5.366,6.754-8.584,15.288-8.584,24.565c0,21.816,17.749,39.564,39.565,39.564c21.816,0,39.564-17.749,39.564-39.564
			c0-9.277-3.218-17.811-8.584-24.565h242.652c-5.366,6.754-8.584,15.288-8.584,24.565c0,21.816,17.749,39.564,39.564,39.564
			s39.564-17.749,39.564-39.564c0-9.277-3.218-17.811-8.584-24.565H504.5c4.142,0,7.5-3.358,7.5-7.5S508.642,344.693,504.5,344.693z
			 M345.767,127.226h6.581c2.676,0,5.151,1.255,6.793,3.442c6.004,8.001,15.159,12.59,25.117,12.59s19.113-4.589,25.117-12.59
			c1.642-2.188,4.117-3.442,6.793-3.442h6.581l-5.931,23.723c-3.74,14.959-17.121,25.407-32.58,25.407
			c-15.419,0-28.801-10.448-32.541-25.407L345.767,127.226z M137.348,127.226h6.581c2.676,0,5.151,1.255,6.793,3.442
			c6.004,8.001,15.159,12.59,25.117,12.59c9.958,0,19.113-4.589,25.117-12.59c1.642-2.188,4.117-3.442,6.793-3.442h6.581
			l-5.93,23.722c-3.74,14.959-17.122,25.407-32.58,25.407c-15.42,0-28.801-10.448-32.541-25.407L137.348,127.226z M160.323,384.258
			c0,13.545-11.02,24.564-24.564,24.564s-24.565-11.02-24.565-24.564s11.02-24.565,24.565-24.565S160.323,370.713,160.323,384.258z
			 M110.334,344.693c-8.367,0-15.173-6.807-15.173-15.173c0-4.053,1.578-7.863,4.444-10.729
			c7.473-7.473,11.588-17.408,11.588-27.976V256c0-35.646,29-64.645,64.646-64.645s64.645,29,64.645,64.645v34.815
			c0,10.568,4.116,20.503,11.588,27.976c2.866,2.866,4.444,6.676,4.444,10.729c0,8.366-6.807,15.173-15.173,15.173H110.334z
			 M440.371,408.823c-13.545,0-24.564-11.02-24.564-24.564s11.02-24.565,24.564-24.565s24.564,11.02,24.564,24.565
			S453.916,408.823,440.371,408.823z"/>
		<path d="M175.839,248.358c7.539,0,12.54,3.695,12.54,6.139c0,4.142,3.358,7.5,7.5,7.5s7.5-3.358,7.5-7.5
			c0-9.849-8.356-17.92-20.04-20.369v-2.176c0-4.142-3.358-7.5-7.5-7.5s-7.5,3.358-7.5,7.5v2.176
			c-11.685,2.449-20.041,10.52-20.041,20.369c0,16.495,15.792,21.612,25.228,24.67c13.787,4.468,14.853,7.129,14.853,10.4
			c0,2.444-5.001,6.139-12.54,6.139c-7.539,0-12.541-3.695-12.541-6.139c0-4.142-3.358-7.5-7.5-7.5s-7.5,3.358-7.5,7.5
			c0,9.85,8.356,17.92,20.041,20.369v2.176c0,4.142,3.358,7.5,7.5,7.5s7.5-3.358,7.5-7.5v-2.176
			c11.684-2.449,20.04-10.52,20.04-20.369c0-16.494-15.792-21.612-25.228-24.67c-13.787-4.468-14.853-7.129-14.853-10.4
			C163.298,252.053,168.3,248.358,175.839,248.358z"/>
		<path d="M384.258,295.706c-7.539,0-12.541-3.695-12.541-6.139c0-4.142-3.358-7.5-7.5-7.5s-7.5,3.358-7.5,7.5
			c0,9.85,8.356,17.92,20.041,20.369v2.176c0,4.142,3.358,7.5,7.5,7.5s7.5-3.358,7.5-7.5v-2.176
			c11.684-2.449,20.04-10.52,20.04-20.369c0-16.494-15.792-21.612-25.228-24.67c-13.787-4.468-14.853-7.129-14.853-10.4
			c0-2.444,5.001-6.139,12.541-6.139c7.539,0,12.54,3.695,12.54,6.139c0,4.142,3.358,7.5,7.5,7.5s7.5-3.358,7.5-7.5
			c0-9.849-8.356-17.92-20.04-20.369v-2.176c0-4.142-3.358-7.5-7.5-7.5s-7.5,3.358-7.5,7.5v2.176
			c-11.685,2.449-20.041,10.52-20.041,20.369c0,16.495,15.792,21.612,25.228,24.67c13.787,4.468,14.853,7.129,14.853,10.4
			C396.798,292.011,391.797,295.706,384.258,295.706z"/>
	</g>
</g>
<g>
</g>
<g>
</g>
<g>
</g>
<g>
</g>
<g>
</g>
<g>
</g>
<g>
</g>
<g>
</g>
<g>
</g>
<g>
</g>
<g>
</g>
<g>
</g>
<g>
</g>
<g>
</g>
<g>
</g>
</svg>
