<?xml version="1.0" encoding="iso-8859-1"?>
<!-- Generator: Adobe Illustrator 22.0.0, SVG Export Plug-In . SVG Version: 6.00 Build 0)  -->
<svg version="1.1" id="Capa_1" xmlns="http://www.w3.org/2000/svg" xmlns:xlink="http://www.w3.org/1999/xlink" x="0px" y="0px"
	 viewBox="0 0 512 512" style="enable-background:new 0 0 512 512;" xml:space="preserve">
<g>
	<g>
		<path style="fill:#FF9A9F;" d="M69.073,92.029C33.897,132.036,11.39,183.418,7.785,239.968l88.417,0l0,0
			c3.202-32.242,15.963-61.659,35.399-85.41l0,0L69.073,92.029z"/>
		<path style="fill:#FFE09F;" d="M442.357,92.029l-62.528,62.528c0,0,0,0,0,0c33.726,41.214,47.386,99.49,25.825,159.958
			c-14.849,41.644-47.57,75.182-89.02,90.566c-108.32,40.205-210.481-32.859-220.432-133.049c0,0-0.001,0-0.001,0l-88.417,0
			c9.807,153.856,159.541,269.672,323.374,221.362c77.44-22.835,138.719-83.986,161.756-161.366
			C520.239,240.254,495.931,152.961,442.357,92.029L442.357,92.029z"/>
		<path style="fill:#DCDCA0;" d="M255.715,95.677c38.4,0,73.62,13.533,101.226,36.046l0,0l62.745-62.366
			C375.925,30.881,318.566,7.5,255.715,7.5S135.505,30.881,91.744,69.358l62.753,62.36l0,0
			C182.102,109.208,217.319,95.677,255.715,95.677z"/>
		<path style="fill:#F6D190;" d="M440.086,256c0-45.141-16.246-86.47-43.179-118.521l-17.078,17.077c0,0,0,0,0,0
			c33.727,41.215,47.386,99.49,25.824,159.958c-14.848,41.644-47.569,75.182-89.019,90.566
			c-108.32,40.205-210.481-32.859-220.432-133.048c0,0,0,0,0,0H72.082c8.131,94.311,87.215,168.339,183.633,168.339
			C357.541,440.371,440.086,357.825,440.086,256z"/>
		<path style="fill:#FF8086;" d="M72.082,239.968h24.121v0c3.202-32.242,15.962-61.659,35.398-85.41v0l-17.078-17.078
			C90.817,165.691,75.432,201.102,72.082,239.968z"/>
		<path style="fill:#B9CDA5;" d="M255.715,71.629c-45.067,0-86.34,16.192-118.368,43.047l17.149,17.042h0.001
			c27.605-22.51,62.822-36.04,101.218-36.04c38.4,0,73.621,13.533,101.226,36.046c0.001,0,0.001,0,0.001,0l17.146-17.044
			C342.059,87.822,300.785,71.629,255.715,71.629z"/>
	</g>
	<g>
		<path d="M7.785,247.468h88.417c3.855,0,7.083-2.922,7.463-6.759c2.971-29.91,14.638-58.059,33.74-81.403
			c2.44-2.982,2.224-7.328-0.501-10.053L74.376,86.725c-1.466-1.466-3.475-2.257-5.544-2.193c-2.071,0.066-4.023,0.987-5.392,2.544
			C25.758,129.934,3.925,182.638,0.3,239.491c-0.132,2.068,0.598,4.098,2.016,5.609C3.733,246.611,5.713,247.468,7.785,247.468z
			 M69.516,103.078l52.079,52.079c-17.124,22.726-28.103,49.211-32.046,77.311h-73.64C20.514,184.652,38.922,140.219,69.516,103.078
			z"/>
		<path d="M255.715,183.339c22.006,0,40.597,12.625,40.597,27.57c0,4.142,3.358,7.5,7.5,7.5s7.5-3.358,7.5-7.5
			c0-21.525-20.977-39.358-48.097-42.172v-8.93c0-4.142-3.358-7.5-7.5-7.5s-7.5,3.358-7.5,7.5v8.93
			c-27.12,2.814-48.097,20.647-48.097,42.172c0,31.146,25.135,42.453,53.137,52.176c28.557,9.916,43.057,18.516,43.057,38.006
			c0,14.945-18.591,27.57-40.597,27.57s-40.597-12.625-40.597-27.57c0-4.142-3.358-7.5-7.5-7.5s-7.5,3.358-7.5,7.5
			c0,21.525,20.977,39.358,48.097,42.172v8.93c0,4.142,3.358,7.5,7.5,7.5s7.5-3.358,7.5-7.5v-8.93
			c27.12-2.814,48.097-20.647,48.097-42.172c0-31.146-25.135-42.453-53.137-52.176c-28.557-9.916-43.057-18.516-43.057-38.006
			C215.118,195.964,233.709,183.339,255.715,183.339z"/>
		<path d="M447.989,87.076c-1.369-1.557-3.32-2.478-5.392-2.544c-2.071-0.07-4.078,0.727-5.544,2.193l-62.528,62.528
			c-2.725,2.725-2.941,7.071-0.501,10.053c22.256,27.198,34.513,61.538,34.513,96.694c0,35.156-12.257,69.495-34.512,96.692
			c-2.624,3.206-2.151,7.931,1.055,10.554c3.206,2.624,7.931,2.152,10.554-1.055c24.442-29.87,37.903-67.583,37.903-106.191
			c0-36.338-11.924-71.882-33.705-100.841l52.078-52.079c35.397,43.057,54.804,97.046,54.804,152.919
			c0,64.374-25.068,124.894-70.587,170.413C380.609,471.932,320.088,497,255.715,497c-61.657,0-120.313-23.273-165.164-65.531
			c-42.703-40.234-69.019-93.93-74.64-151.937h73.638c5.425,38.605,24.153,74.106,53.202,100.569
			c30.949,28.194,71.066,43.721,112.964,43.721c38.609,0,76.322-13.461,106.192-37.904c3.206-2.623,3.678-7.348,1.055-10.554
			c-2.623-3.206-7.348-3.678-10.554-1.055c-27.197,22.255-61.537,34.512-96.693,34.512c-38.152,0-74.683-14.138-102.862-39.81
			c-27.993-25.501-45.461-60.206-49.187-97.722c-0.381-3.836-3.608-6.759-7.463-6.759H7.785c-2.072,0-4.052,0.857-5.469,2.368
			c-1.418,1.511-2.147,3.541-2.016,5.609c4.134,64.857,32.533,125.188,79.964,169.877C127.91,487.277,190.219,512,255.715,512
			c68.38,0,132.667-26.629,181.02-74.98c48.352-48.352,74.98-112.64,74.98-181.02C511.715,193.806,489.084,133.814,447.989,87.076z"
			/>
		<path d="M148.968,137.189c2.724,2.724,7.07,2.942,10.053,0.501c5.309-4.345,11.191-8.449,17.982-12.547
			c3.546-2.14,4.687-6.75,2.546-10.296c-2.14-3.546-6.75-4.687-10.296-2.546c-5.22,3.15-9.966,6.318-14.367,9.594l-52.091-52.091
			C145.852,34.407,199.841,15,255.715,15s109.863,19.407,152.919,54.804l-52.079,52.079
			c-28.958-21.781-64.502-33.705-100.841-33.705c-19.174,0-38.066,3.261-56.15,9.691c-3.903,1.388-5.941,5.677-4.554,9.579
			c1.387,3.903,5.676,5.942,9.579,4.554c16.466-5.855,33.667-8.824,51.125-8.824c35.157,0,69.496,12.257,96.693,34.513
			c1.388,1.136,3.071,1.696,4.748,1.696c1.928,0,3.849-0.74,5.305-2.197l62.528-62.528c1.466-1.465,2.259-3.472,2.193-5.544
			c-0.066-2.071-0.987-4.023-2.544-5.392C377.901,22.631,317.91,0,255.715,0C193.521,0,133.529,22.631,86.792,63.726
			c-1.557,1.369-2.478,3.32-2.544,5.392c-0.066,2.072,0.727,4.079,2.193,5.544L148.968,137.189z"/>
	</g>
</g>
<g>
</g>
<g>
</g>
<g>
</g>
<g>
</g>
<g>
</g>
<g>
</g>
<g>
</g>
<g>
</g>
<g>
</g>
<g>
</g>
<g>
</g>
<g>
</g>
<g>
</g>
<g>
</g>
<g>
</g>
</svg>
