<?xml version="1.0" encoding="iso-8859-1"?>
<!-- Generator: Adobe Illustrator 22.0.0, SVG Export Plug-In . SVG Version: 6.00 Build 0)  -->
<svg version="1.1" id="Capa_1" xmlns="http://www.w3.org/2000/svg" xmlns:xlink="http://www.w3.org/1999/xlink" x="0px" y="0px"
	 viewBox="0 0 512 512" style="enable-background:new 0 0 512 512;" xml:space="preserve">
<g>
	<g>
		<circle style="fill:#ECEAEC;" cx="256" cy="256" r="120.242"/>
		<circle style="fill:#DCDCA0;" cx="256" cy="47.581" r="40.081"/>
		<circle style="fill:#FFE09F;" cx="256" cy="256" r="88.177"/>
		<path style="fill:#B9CDA5;" d="M268.024,75.637c-22.136,0-40.081-17.945-40.081-40.081c0-7.985,2.399-15.384,6.424-21.633
			c-11.074,7.133-18.448,19.507-18.448,33.657c0,22.136,17.945,40.081,40.081,40.081c14.151,0,26.525-7.374,33.657-18.448
			C283.408,73.238,276.009,75.637,268.024,75.637z"/>
		<circle style="fill:#DBEAFF;" cx="111.71" cy="400.29" r="40.081"/>
		<path style="fill:#C3DDFF;" d="M123.734,428.347c-22.136,0-40.081-17.945-40.081-40.081c0-7.985,2.399-15.384,6.424-21.633
			c-11.074,7.133-18.448,19.507-18.448,33.657c0,22.136,17.945,40.081,40.081,40.081c14.151,0,26.525-7.374,33.657-18.448
			C139.118,425.948,131.719,428.347,123.734,428.347z"/>
		<circle style="fill:#EAD1FF;" cx="31.548" cy="256" r="24.048"/>
		<circle style="fill:#FF9A9F;" cx="480.452" cy="256" r="24.048"/>
		<circle style="fill:#F6D190;" cx="256" cy="480.452" r="24.048"/>
		<circle style="fill:#C8C5C9;" cx="71.629" cy="71.629" r="16.032"/>
		<circle style="fill:#DAD8DB;" cx="440.371" cy="440.371" r="16.032"/>
		<circle style="fill:#D19A6E;" cx="376.242" cy="135.758" r="16.032"/>
		<path style="fill:#F6D190;" d="M272.032,328.145c-48.7,0-88.177-39.478-88.177-88.177c0-20.26,6.905-38.866,18.391-53.755
			c-20.901,16.124-34.423,41.348-34.423,69.787c0,48.699,39.478,88.177,88.177,88.177c28.44,0,53.663-13.521,69.787-34.422
			C310.898,321.241,292.292,328.145,272.032,328.145z"/>
	</g>
	<g>
		<path d="M256,223.419c9.752,0,16.548,5.289,16.548,10.035c0,4.142,3.358,7.5,7.5,7.5s7.5-3.358,7.5-7.5
			c0-11.98-10.095-21.739-24.048-24.345v-2.097c0-4.142-3.358-7.5-7.5-7.5s-7.5,3.358-7.5,7.5v2.097
			c-13.953,2.606-24.048,12.365-24.048,24.345c0,19.53,18.209,25.853,29.088,29.63c16.264,5.647,19.008,9.333,19.008,15.46
			c0,4.747-6.796,10.035-16.548,10.035s-16.548-5.289-16.548-10.035c0-4.142-3.358-7.5-7.5-7.5s-7.5,3.358-7.5,7.5
			c0,11.98,10.095,21.739,24.048,24.345v2.097c0,4.142,3.358,7.5,7.5,7.5s7.5-3.358,7.5-7.5v-2.097
			c13.953-2.606,24.048-12.365,24.048-24.345c0-19.53-18.209-25.853-29.088-29.63c-16.264-5.647-19.008-9.333-19.008-15.46
			C239.452,228.708,246.248,223.419,256,223.419z"/>
		<path d="M480.452,224.452c-14.812,0-27.265,10.262-30.64,24.048h-66.317c-1.721-29.185-13.395-56.271-32.065-77.323l14.35-14.35
			c3.154,1.573,6.706,2.463,10.463,2.463c12.976,0,23.533-10.557,23.533-23.532c0-12.976-10.557-23.533-23.533-23.533
			c-12.976,0-23.532,10.557-23.532,23.533c0,3.757,0.89,7.309,2.463,10.463l-14.337,14.337
			c-14.275-12.736-31.502-22.387-50.77-27.706c-3.99-1.103-8.123,1.241-9.225,5.234c-1.103,3.993,1.241,8.123,5.234,9.225
			c16.707,4.612,31.684,12.907,44.15,23.858l-12.115,12.115c-14.944-12.783-33.856-21.052-54.609-22.669V94.565
			c22.684-3.608,40.081-23.3,40.081-46.984C303.581,21.345,282.236,0,256,0s-47.581,21.345-47.581,47.581
			c0,23.684,17.396,43.376,40.081,46.984v33.92c-29.583,1.721-56.493,13.555-77.321,32.089L92.698,82.092
			c1.573-3.154,2.463-6.706,2.463-10.463c0-12.976-10.557-23.532-23.532-23.532S48.097,58.653,48.097,71.629
			s10.557,23.532,23.532,23.532c3.757,0,7.309-0.89,10.463-2.463l78.481,78.481c-18.534,20.828-30.367,47.737-32.089,77.321H62.189
			c-3.375-13.786-15.829-24.048-30.64-24.048C14.152,224.452,0,238.604,0,256s14.152,31.548,31.548,31.548
			c14.812,0,27.265-10.262,30.64-24.048h66.317c1.721,29.185,13.395,56.271,32.065,77.323l-20.961,20.961
			c-7.845-5.7-17.484-9.074-27.901-9.074c-26.236,0-47.581,21.345-47.581,47.581c0,26.236,21.345,47.581,47.581,47.581
			c26.236,0,47.581-21.345,47.581-47.581c0-10.417-3.374-20.056-9.074-27.901l20.948-20.948
			c14.275,12.736,31.502,22.387,50.77,27.706c0.667,0.185,1.339,0.272,2,0.272c3.29,0,6.307-2.181,7.225-5.506
			c1.103-3.993-1.241-8.123-5.234-9.225c-16.707-4.612-31.684-12.907-44.15-23.858l12.115-12.115
			c14.944,12.783,33.856,21.052,54.609,22.669v98.427c-13.786,3.375-24.048,15.829-24.048,30.64
			C224.452,497.848,238.604,512,256,512s31.548-14.152,31.548-31.548c0-14.812-10.262-27.265-24.048-30.64v-66.296
			c29.583-1.721,56.493-13.555,77.321-32.089l78.481,78.481c-1.573,3.154-2.463,6.706-2.463,10.463
			c0,12.976,10.557,23.532,23.532,23.532s23.532-10.557,23.532-23.532s-10.557-23.532-23.532-23.532
			c-3.757,0-7.309,0.89-10.463,2.463l-78.481-78.481c18.534-20.828,30.367-47.737,32.089-77.321h66.296
			c3.375,13.786,15.829,24.048,30.64,24.048C497.848,287.548,512,273.396,512,256S497.848,224.452,480.452,224.452z M368.468,248.5
			h-17.083c-1.617-20.753-9.886-39.665-22.669-54.609l12.086-12.086C356.752,200.076,366.788,223.382,368.468,248.5z M256,336.677
			c-44.485,0-80.677-36.192-80.677-80.677s36.192-80.677,80.677-80.677s80.677,36.192,80.677,80.677S300.485,336.677,256,336.677z
			 M376.242,127.226c4.705,0,8.533,3.828,8.533,8.533c0,4.705-3.828,8.532-8.533,8.532c-4.705,0-8.532-3.828-8.532-8.532
			C367.709,131.053,371.537,127.226,376.242,127.226z M223.419,47.581C223.419,29.616,238.035,15,256,15
			s32.581,14.616,32.581,32.581S273.965,80.161,256,80.161S223.419,65.545,223.419,47.581z M248.5,143.514v17.102
			c-20.753,1.617-39.665,9.886-54.609,22.669l-12.092-12.092C199.88,155.354,223.049,145.194,248.5,143.514z M63.097,71.629
			c0-4.705,3.828-8.532,8.532-8.532s8.532,3.828,8.532,8.532s-3.828,8.532-8.532,8.532S63.097,76.333,63.097,71.629z
			 M171.193,181.799l12.092,12.092c-12.783,14.944-21.052,33.856-22.669,54.609h-17.102
			C145.194,223.049,155.354,199.88,171.193,181.799z M31.548,272.548C22.423,272.548,15,265.125,15,256s7.423-16.548,16.548-16.548
			S48.097,246.875,48.097,256S40.673,272.548,31.548,272.548z M143.532,263.5h17.083c1.617,20.753,9.886,39.665,22.669,54.609
			l-12.086,12.086C155.248,311.924,145.212,288.618,143.532,263.5z M111.709,432.871c-17.965,0-32.581-14.616-32.581-32.581
			c0-17.965,14.616-32.581,32.581-32.581c17.965,0,32.581,14.616,32.581,32.581C144.291,418.255,129.675,432.871,111.709,432.871z
			 M272.548,480.452c0,9.125-7.423,16.548-16.548,16.548s-16.548-7.423-16.548-16.548s7.423-16.548,16.548-16.548
			S272.548,471.327,272.548,480.452z M263.5,368.486v-17.102c20.753-1.617,39.665-9.886,54.609-22.669l12.092,12.092
			C312.12,356.646,288.951,366.806,263.5,368.486z M448.903,440.371c0,4.705-3.828,8.532-8.532,8.532s-8.532-3.828-8.532-8.532
			s3.828-8.532,8.532-8.532S448.903,435.667,448.903,440.371z M340.807,330.201l-12.092-12.092
			c12.783-14.944,21.052-33.856,22.669-54.609h17.102C366.806,288.951,356.646,312.12,340.807,330.201z M480.452,272.548
			c-9.125,0-16.548-7.423-16.548-16.548s7.423-16.548,16.548-16.548S497,246.875,497,256S489.577,272.548,480.452,272.548z"/>
	</g>
</g>
<g>
</g>
<g>
</g>
<g>
</g>
<g>
</g>
<g>
</g>
<g>
</g>
<g>
</g>
<g>
</g>
<g>
</g>
<g>
</g>
<g>
</g>
<g>
</g>
<g>
</g>
<g>
</g>
<g>
</g>
</svg>
