<?xml version="1.0" encoding="iso-8859-1"?>
<!-- Generator: Adobe Illustrator 22.0.0, SVG Export Plug-In . SVG Version: 6.00 Build 0)  -->
<svg version="1.1" id="Capa_1" xmlns="http://www.w3.org/2000/svg" xmlns:xlink="http://www.w3.org/1999/xlink" x="0px" y="0px"
	 viewBox="0 0 512 512" style="enable-background:new 0 0 512 512;" xml:space="preserve">
<g>
	<g>
		<path style="fill:#DAD8DB;" d="M424.339,276.04l-35.207,36.985c-7.264,7.631-19.789,6.301-25.288-2.687l-31.177-58.347h11.511
			L424.339,276.04z"/>
		<path style="fill:#ECEAEC;" d="M448.387,251.992L430.08,284.03c-7.261,12.706-24.092,16.036-35.644,7.051l-50.258-39.089H448.387z
			"/>
		<path style="fill:#ECEAEC;" d="M363.644,215.195c-1.2-7.16,2.989-14.155,9.623-17.103l111.648-49.621
			c8.608-3.826,18.095,3.215,16.927,12.562l-1.729,13.831c-2.162,17.295-15.253,31.211-32.384,34.423l-89.836,16.604
			c-6.832,1.263-13.103-3.514-14.196-10.374C363.679,215.409,363.662,215.302,363.644,215.195z"/>
		<path style="fill:#DAD8DB;" d="M358.162,237.42c2.119-4.965,6.408-8.661,11.703-9.708l97.626-19.302
			c5.904-1.144,10.919,4.38,9.21,10.147l-4.996,16.861c-4.26,14.377-17.915,23.882-32.876,22.884l-102.668-6.31
			C346.067,251.992,354.507,245.983,358.162,237.42z"/>
		<path style="fill:#DAD8DB;" d="M87.661,276.04l35.207,36.985c7.264,7.631,19.789,6.301,25.288-2.687l28.677-58.347h-9.011
			L87.661,276.04z"/>
		<path style="fill:#ECEAEC;" d="M63.613,251.992l18.308,32.038c7.261,12.706,24.092,16.036,35.644,7.051l50.258-39.089H63.613z"/>
		<path style="fill:#ECEAEC;" d="M148.356,215.195c1.2-7.16-2.989-14.155-9.623-17.103L27.085,148.471
			c-8.608-3.826-18.095,3.215-16.927,12.562l1.729,13.831c2.162,17.295,15.253,31.211,32.384,34.423l89.836,16.604
			c6.832,1.263,13.103-3.514,14.196-10.374C148.321,215.409,148.339,215.302,148.356,215.195z"/>
		<path style="fill:#DAD8DB;" d="M153.838,237.42c-2.119-4.965-6.408-8.661-11.703-9.708L44.509,208.41
			c-5.904-1.144-10.919,4.38-9.21,10.147l4.996,16.861c4.26,14.377,17.915,23.882,32.876,22.884l102.668-6.31
			C165.933,251.992,157.493,245.983,153.838,237.42z"/>
		<circle style="fill:#FFE09F;" cx="256" cy="284.057" r="88.177"/>
		<path style="fill:#F6D190;" d="M272.032,356.202c-48.7,0-88.177-39.478-88.177-88.177c0-20.26,6.905-38.866,18.391-53.755
			c-20.901,16.124-34.423,41.348-34.423,69.787c0,48.699,39.478,88.177,88.177,88.177c28.44,0,53.663-13.521,69.787-34.422
			C310.898,349.298,292.292,356.202,272.032,356.202z"/>
	</g>
	<g>
		<path d="M256,251.476c9.752,0,16.548,5.289,16.548,10.036c0,4.142,3.358,7.5,7.5,7.5s7.5-3.358,7.5-7.5
			c0-11.98-10.095-21.739-24.048-24.345v-2.097c0-4.142-3.358-7.5-7.5-7.5s-7.5,3.358-7.5,7.5v2.097
			c-13.953,2.606-24.048,12.365-24.048,24.345c0,19.53,18.209,25.853,29.088,29.63c16.264,5.647,19.008,9.333,19.008,15.46
			c0,4.747-6.796,10.035-16.548,10.035s-16.548-5.289-16.548-10.035c0-4.142-3.358-7.5-7.5-7.5s-7.5,3.358-7.5,7.5
			c0,11.98,10.095,21.739,24.048,24.345v2.097c0,4.142,3.358,7.5,7.5,7.5s7.5-3.358,7.5-7.5v-2.097
			c13.953-2.606,24.048-12.365,24.048-24.345c0-19.531-18.209-25.853-29.088-29.63c-16.264-5.647-19.008-9.333-19.008-15.46
			C239.452,256.765,246.248,251.476,256,251.476z"/>
		<path d="M508.97,133.744c-2.172-1.612-5.044-1.93-7.516-0.831l-131.518,58.452c-9.705,4.313-15.313,14.754-13.637,25.389
			c1.895,12.028-2.602,21.232-13.362,27.395c-2.285-4.956-4.99-9.744-8.133-14.304c-2.35-3.411-7.02-4.271-10.432-1.919
			c-3.41,2.351-4.27,7.021-1.919,10.432c9.306,13.501,14.224,29.304,14.224,45.699c0,44.485-36.192,80.677-80.677,80.677
			s-80.677-36.192-80.677-80.677c0-44.486,36.192-80.678,80.677-80.678c16.394,0,32.197,4.919,45.7,14.225
			c3.411,2.351,8.081,1.49,10.432-1.92c2.35-3.411,1.491-8.081-1.92-10.432c-16.018-11.039-34.764-16.873-54.211-16.873
			c-38.519,0-71.789,22.883-86.944,55.766c-10.755-6.163-15.249-15.365-13.354-27.391c1.675-10.635-3.933-21.076-13.638-25.389
			L10.546,132.913c-2.472-1.099-5.344-0.781-7.516,0.831c-2.172,1.612-3.308,4.269-2.972,6.953l4.387,35.098
			c1.731,13.848,9.278,25.798,20.232,33.315l8.426,28.439c4.101,13.838,15.032,23.921,28.391,27.19l13.839,23.552
			c4.599,7.826,12.35,13.294,21.265,15.001c1.914,0.367,3.842,0.549,5.761,0.559l10.417,10.418
			c4.822,4.822,11.273,7.446,17.938,7.446c1.701,0,3.417-0.171,5.123-0.52c8.387-1.717,15.297-7.485,18.485-15.429l6.208-15.469
			c3.226,49.859,44.808,89.437,95.468,89.437c50.66,0,92.242-39.579,95.468-89.438l6.208,15.468
			c3.188,7.945,10.098,13.713,18.485,15.43c1.707,0.349,3.421,0.52,5.123,0.52c6.665,0,13.117-2.624,17.938-7.446l10.417-10.418
			c1.919-0.01,3.848-0.193,5.761-0.559c8.916-1.708,16.666-7.175,21.265-15.001l13.839-23.552
			c13.359-3.269,24.291-13.353,28.391-27.189l8.426-28.439c10.954-7.517,18.501-19.467,20.232-33.315l4.387-35.098
			C512.278,138.012,511.142,135.356,508.97,133.744z M47.485,233.287l-4.948-16.701c0.118,0.023,0.234,0.051,0.353,0.073
			l75.455,14.147c4.073,0.762,7.991-1.918,8.754-5.989s-1.918-7.991-5.989-8.754l-75.455-14.147
			c-13.981-2.622-24.561-13.867-26.325-27.981l-2.74-21.921l119.382,53.059c3.569,1.586,5.543,5.343,4.913,9.348
			c-1.239,7.864-1.253,20.352,7.269,31.367l-75.48,5.032C61.127,251.582,50.773,244.379,47.485,233.287z M88.267,280.69
			l-8.978-15.279l64.603-4.307l-31.197,24.264c-3.759,2.923-8.6,4.085-13.273,3.19C94.744,287.663,90.679,284.795,88.267,280.69z
			 M140.403,300.179c-1.326,3.303-4.085,5.606-7.572,6.32c-3.49,0.712-6.93-0.321-9.447-2.837l-4.44-4.44
			c1.015-0.619,2.011-1.275,2.959-2.013l28.628-22.266L140.403,300.179z M379.169,306.499c-3.486-0.714-6.246-3.018-7.572-6.321
			l-10.128-25.235l28.628,22.266c0.948,0.738,1.944,1.394,2.959,2.012l-4.44,4.44C386.099,306.178,382.656,307.212,379.169,306.499z
			 M464.515,233.287c-3.287,11.093-13.646,18.307-25.187,17.532l-11.189-0.746c-4.128-0.271-7.707,2.852-7.982,6.984
			c-0.275,4.133,2.852,7.707,6.984,7.982l5.571,0.371l-8.978,15.279c-2.412,4.105-6.478,6.973-11.154,7.869
			c-4.676,0.897-9.514-0.267-13.273-3.19l-31.198-24.265l29.348,1.957c0.17,0.011,0.338,0.017,0.506,0.017
			c3.915,0,7.212-3.039,7.476-7.001c0.275-4.133-2.852-7.707-6.984-7.982l-34.607-2.307c2.635-3.406,4.464-6.95,5.681-10.457
			c0.026-0.004,0.052-0.009,0.079-0.014l99.502-18.656c0.119-0.022,0.235-0.05,0.353-0.073L464.515,233.287z M492.671,173.934
			c-1.765,14.115-12.344,25.36-26.325,27.981l-94.689,17.754c-0.091-1.903-0.291-3.67-0.54-5.25
			c-0.631-4.005,1.343-7.762,4.912-9.348l119.382-53.059L492.671,173.934z"/>
	</g>
</g>
<g>
</g>
<g>
</g>
<g>
</g>
<g>
</g>
<g>
</g>
<g>
</g>
<g>
</g>
<g>
</g>
<g>
</g>
<g>
</g>
<g>
</g>
<g>
</g>
<g>
</g>
<g>
</g>
<g>
</g>
</svg>
