<?xml version="1.0" encoding="iso-8859-1"?>
<!-- Generator: Adobe Illustrator 22.0.0, SVG Export Plug-In . SVG Version: 6.00 Build 0)  -->
<svg version="1.1" id="Capa_1" xmlns="http://www.w3.org/2000/svg" xmlns:xlink="http://www.w3.org/1999/xlink" x="0px" y="0px"
	 viewBox="0 0 512.046 512.046" style="enable-background:new 0 0 512.046 512.046;" xml:space="preserve">
<g>
	<g>
		<path style="fill:#ECBD83;" d="M292.104,158.004l-22.673,22.673c-21.913,21.914-11.762,67.593,22.673,102.029
			s80.115,44.587,102.029,22.673l22.673-22.673L292.104,158.004z"/>
		
			<ellipse transform="matrix(0.7071 -0.7071 0.7071 0.7071 -51.9971 315.1784)" style="fill:#FFE09F;" cx="354.455" cy="220.355" rx="56.113" ry="88.177"/>
		
			<ellipse transform="matrix(0.7071 -0.7071 0.7071 0.7071 -51.9971 315.1784)" style="fill:#FFF0AF;" cx="354.455" cy="220.355" rx="37.26" ry="64.22"/>
		<path style="fill:#B6B1B7;" d="M219.942,19.087l22.673,22.673c21.913,21.914,11.762,67.593-22.673,102.029
			s-80.115,44.587-102.029,22.673L95.24,143.788L219.942,19.087z"/>
		
			<ellipse transform="matrix(0.7071 -0.7071 0.7071 0.7071 -11.4278 135.286)" style="fill:#DAD8DB;" cx="157.591" cy="81.438" rx="88.177" ry="56.113"/>
		
			<ellipse transform="matrix(0.7071 -0.7071 0.7071 0.7071 -11.4278 135.286)" style="fill:#ECEAEC;" cx="157.591" cy="81.438" rx="64.22" ry="37.26"/>
		<path style="fill:#9B959D;" d="M304.581,368.258l-22.673-22.673c-21.914-21.913-67.593-11.762-102.029,22.673
			s-44.587,80.115-22.673,102.029l22.673,22.673L304.581,368.258z"/>
		
			<ellipse transform="matrix(0.7071 -0.7071 0.7071 0.7071 -233.539 297.4046)" style="fill:#C8C5C9;" cx="242.23" cy="430.609" rx="88.177" ry="56.113"/>
		
			<ellipse transform="matrix(0.7071 -0.7071 0.7071 0.7071 -233.539 297.4046)" style="fill:#DAD8DB;" cx="242.23" cy="430.609" rx="64.22" ry="37.26"/>
	</g>
	<g>
		<path d="M196.903,42.125c-2.929-2.929-7.678-2.929-10.606,0l-1.28,1.28c-3.364-1.6-7.131-2.365-11.068-2.185
			c-6.359,0.285-12.416,2.997-17.056,7.636c-12.23,12.23-9.745,24.394-6.456,34.836c3,9.521,3.035,13.932-2.756,19.721
			c-3.912,3.913-9.802,4.39-13.128,1.063c-3.327-3.327-2.85-9.217,1.063-13.129c2.929-2.929,2.929-7.678,0-10.607
			c-2.93-2.928-7.678-2.929-10.607,0c-7.787,7.787-9.645,19.158-5.428,28.102l-1.303,1.303c-2.929,2.929-2.929,7.678,0,10.606
			c1.464,1.464,3.384,2.197,5.303,2.197s3.839-0.732,5.303-2.197l1.306-1.306c3.109,1.466,6.504,2.219,9.95,2.219
			c6.462,0,13.07-2.566,18.148-7.645c12.231-12.23,9.746-24.394,6.456-34.835c-3-9.521-3.034-13.933,2.755-19.722
			c1.984-1.984,4.513-3.142,7.121-3.258c2.353-0.107,4.487,0.674,6.009,2.196c1.521,1.521,2.301,3.655,2.195,6.008
			c-0.117,2.607-1.274,5.136-3.258,7.121c-2.929,2.929-2.928,7.678,0,10.607c2.93,2.929,7.677,2.928,10.607,0
			c4.639-4.64,7.351-10.697,7.636-17.056c0.177-3.938-0.587-7.704-2.186-11.068l1.281-1.281
			C199.833,49.803,199.833,45.053,196.903,42.125z"/>
		<path d="M165.859,183.577c20.646-4.588,41.736-16.835,59.386-34.485s29.897-38.741,34.485-59.386
			c4.858-21.863,0.663-40.773-11.813-53.249l-22.673-22.673C212.769,1.308,193.857-2.888,171.996,1.971
			C151.35,6.559,130.26,18.806,112.61,36.456S82.712,75.197,78.124,95.843c-4.858,21.863-0.663,40.773,11.813,53.249l22.673,22.673
			c9.089,9.089,21.592,13.783,36.166,13.783C154.206,185.548,159.924,184.896,165.859,183.577z M125.078,162.854
			c0.343,0.005,0.68,0.021,1.025,0.021c5.429,0,11.148-0.652,17.082-1.971c20.646-4.587,41.736-16.835,59.387-34.485
			c8.344-8.345,15.502-17.471,21.275-27.123c2.126-3.555,0.968-8.16-2.587-10.286c-3.553-2.125-8.16-0.968-10.286,2.587
			c-5.141,8.594-11.536,16.742-19.009,24.215c-15.659,15.659-34.138,26.472-52.034,30.449c-16.678,3.707-30.667,0.945-39.389-7.776
			c-8.721-8.721-11.482-22.709-7.776-39.389c3.977-17.896,14.791-36.375,30.449-52.034c15.659-15.659,34.138-26.472,52.034-30.449
			c16.679-3.705,30.667-0.944,39.389,7.776c8.407,8.407,11.288,21.826,8.114,37.786c-0.808,4.062,1.831,8.011,5.893,8.819
			c4.062,0.808,8.01-1.831,8.819-5.893c1.119-5.626,1.608-11.042,1.523-16.202c7.383,8.785,9.558,21.996,6.101,37.552
			c-3.977,17.896-14.791,36.375-30.449,52.034s-34.138,26.472-52.034,30.449C147.063,172.387,133.862,170.22,125.078,162.854z"/>
		<path d="M316.446,192.952c-4.217,8.942-2.359,20.314,5.428,28.101c12.231,12.231,24.395,9.746,34.836,6.456
			c9.521-3,13.931-3.035,19.721,2.755c3.913,3.913,4.389,9.803,1.063,13.129c-3.327,3.327-9.217,2.85-13.129-1.063
			c-2.929-2.928-7.678-2.929-10.607,0c-2.929,2.929-2.929,7.678,0,10.607c5.079,5.079,11.686,7.645,18.148,7.645
			c3.445,0,6.84-0.753,9.949-2.219l1.306,1.306c1.465,1.464,3.384,2.197,5.304,2.197c1.919,0,3.839-0.732,5.303-2.196
			c2.929-2.929,2.929-7.678,0-10.607l-1.303-1.303c4.217-8.943,2.359-20.314-5.428-28.101c-12.232-12.232-24.395-9.746-34.835-6.456
			c-9.52,2.999-13.932,3.034-19.721-2.755c-3.913-3.913-4.39-9.803-1.063-13.129c3.327-3.326,9.217-2.85,13.129,1.063
			c2.929,2.929,7.678,2.929,10.606,0c2.929-2.929,2.929-7.678,0-10.606c-7.788-7.788-19.159-9.646-28.102-5.429l-1.303-1.303
			c-2.929-2.929-7.678-2.929-10.606,0c-2.929,2.929-2.929,7.678,0,10.606L316.446,192.952z"/>
		<path d="M433.922,234.761c-4.588-20.646-16.835-41.736-34.485-59.386s-38.741-29.897-59.386-34.485
			c-21.862-4.858-40.773-0.664-53.249,11.812l-22.673,22.673c-12.476,12.476-16.671,31.386-11.813,53.249
			c4.588,20.646,16.835,41.736,34.485,59.386s38.741,29.897,59.386,34.485c5.936,1.319,11.652,1.971,17.083,1.971
			c14.572,0,27.078-4.694,36.167-13.783l22.673-22.673C434.585,275.534,438.78,256.623,433.922,234.761z M336.797,155.532
			c17.896,3.977,36.375,14.791,52.034,30.449s26.472,34.138,30.449,52.034c3.706,16.679,0.944,30.667-7.776,39.389
			c-8.721,8.721-22.708,11.483-39.389,7.776c-17.896-3.977-36.375-14.791-52.034-30.449c-15.658-15.659-26.472-34.138-30.449-52.034
			c-3.706-16.679-0.945-30.667,7.776-39.389C306.13,154.587,320.118,151.826,336.797,155.532z M349.442,307.852
			c-17.896-3.977-36.375-14.791-52.034-30.449s-26.472-34.138-30.449-52.034c-3.456-15.55-1.284-28.756,6.092-37.541
			c-0.09,5.741,0.534,11.803,1.938,18.121c4.588,20.646,16.835,41.736,34.485,59.386s38.741,29.897,59.386,34.485
			c5.936,1.319,11.652,1.971,17.083,1.971c0.345,0,0.683-0.016,1.025-0.021C378.183,309.138,364.984,311.306,349.442,307.852z"/>
		<path d="M281.543,391.296c-2.93-2.928-7.678-2.929-10.607,0l-1.281,1.281c-3.363-1.599-7.13-2.362-11.067-2.186
			c-6.359,0.285-12.417,2.997-17.056,7.637c-12.231,12.231-9.746,24.395-6.456,34.835c3,9.521,3.034,13.932-2.755,19.721
			c-3.912,3.912-9.8,4.389-13.127,1.065c-0.001-0.001-0.001-0.002-0.002-0.002c-0.001-0.001-0.001-0.001-0.002-0.002
			c-3.324-3.327-2.846-9.215,1.065-13.127c2.929-2.929,2.929-7.678,0-10.606c-2.929-2.929-7.678-2.929-10.606,0
			c-4.64,4.64-7.352,10.697-7.637,17.056c-0.176,3.937,0.587,7.704,2.186,11.067l-1.281,1.281c-2.929,2.929-2.928,7.678,0,10.607
			c1.465,1.464,3.384,2.196,5.303,2.196s3.839-0.732,5.304-2.197l1.306-1.306c3.109,1.466,6.504,2.219,9.949,2.219
			c6.462,0,13.07-2.566,18.148-7.644c12.231-12.23,9.745-24.395,6.456-34.836c-3-9.521-3.034-13.931,2.755-19.721
			c3.913-3.912,9.801-4.388,13.127-1.065c0.001,0.001,0.001,0.001,0.002,0.002c0.001,0.001,0.002,0.002,0.002,0.002
			c1.52,1.521,2.299,3.654,2.193,6.007c-0.117,2.607-1.274,5.136-3.258,7.12c-2.929,2.929-2.929,7.678,0,10.607
			c2.929,2.928,7.678,2.929,10.607,0c4.64-4.64,7.352-10.697,7.637-17.056c0.177-3.938-0.587-7.704-2.186-11.067l1.281-1.28
			C284.471,398.974,284.472,394.225,281.543,391.296z"/>
		<path d="M287.211,340.281c-12.476-12.475-31.384-16.671-53.249-11.812c-20.646,4.588-41.736,16.835-59.386,34.485
			c-17.65,17.65-29.898,38.741-34.486,59.386c-4.858,21.862-0.663,40.773,11.813,53.249l22.673,22.673
			c9.089,9.089,21.592,13.784,36.167,13.783c5.429,0,11.148-0.652,17.082-1.971c20.646-4.588,41.736-16.835,59.386-34.485
			s29.897-38.741,34.485-59.386c4.858-21.862,0.664-40.773-11.812-53.249L287.211,340.281z M307.053,412.95
			c-3.977,17.896-14.791,36.375-30.449,52.034c-15.659,15.658-34.138,26.472-52.034,30.449c-16.678,3.708-30.667,0.946-39.388-7.776
			c-8.721-8.721-11.483-22.709-7.776-39.389c3.977-17.896,14.791-36.375,30.449-52.034c8.666-8.666,18.162-15.831,28.227-21.298
			c3.64-1.977,4.987-6.53,3.01-10.17c-1.977-3.639-6.53-4.988-10.17-3.01c-11.331,6.155-21.988,14.187-31.673,23.872
			c-17.65,17.65-29.897,38.741-34.485,59.386c-1.404,6.319-2.028,12.381-1.938,18.122c-7.376-8.785-9.548-21.991-6.092-37.541
			c3.977-17.896,14.791-36.375,30.449-52.034s34.138-26.472,52.034-30.449c15.569-3.459,28.789-1.279,37.573,6.118
			c-4.095-0.075-8.345,0.204-12.733,0.887c-4.093,0.638-6.894,4.472-6.256,8.565s4.475,6.897,8.565,6.256
			c14.667-2.286,27.067,0.778,34.913,8.624C307.998,382.282,310.76,396.271,307.053,412.95z"/>
	</g>
</g>
<g>
</g>
<g>
</g>
<g>
</g>
<g>
</g>
<g>
</g>
<g>
</g>
<g>
</g>
<g>
</g>
<g>
</g>
<g>
</g>
<g>
</g>
<g>
</g>
<g>
</g>
<g>
</g>
<g>
</g>
</svg>
