<?xml version="1.0" encoding="iso-8859-1"?>
<!-- Generator: Adobe Illustrator 22.0.0, SVG Export Plug-In . SVG Version: 6.00 Build 0)  -->
<svg version="1.1" id="Capa_1" xmlns="http://www.w3.org/2000/svg" xmlns:xlink="http://www.w3.org/1999/xlink" x="0px" y="0px"
	 viewBox="0 0 512 512" style="enable-background:new 0 0 512 512;" xml:space="preserve">
<g>
	<g>
		<path style="fill:#DAD8DB;" d="M364.072,144.592l-72.048-72.048H51.863c-4.421,0-8.005,3.584-8.005,8.005v400.268
			c0,4.421,3.584,8.005,8.005,8.005h312.209V144.592z"/>
		<path style="fill:#ECEAEC;" d="M391.404,107.881l-62.669-62.669c-3.003-3.003-7.075-4.689-11.322-4.689H83.885
			c-4.421,0-8.005,3.584-8.005,8.005v400.268c0,4.421,3.584,8.005,8.005,8.005h312.209V119.202
			C396.094,114.956,394.407,110.883,391.404,107.881z"/>
		<path style="fill:#DAD8DB;" d="M108.255,432.785c-4.421,0-8.005-3.584-8.005-8.005V40.522H83.885
			c-4.421,0-8.005,3.584-8.005,8.005v400.268c0,4.421,3.584,8.005,8.005,8.005h312.209v-24.016H108.255z"/>
		<rect x="324.046" y="200.629" style="fill:#F9EAC7;" width="144.097" height="304.204"/>
		<path style="fill:#F4DBB3;" d="M356.735,479.847c-4.421,0-8.005-3.584-8.005-8.005V200.629h-24.684v304.204h144.097v-24.986
			H356.735z"/>
		<circle style="fill:#9B959D;" cx="396.094" cy="352.731" r="40.027"/>
		<path style="fill:#DAD8DB;" d="M316.04,120.576V40.522h-24.016v80.054c0,13.264,10.752,24.016,24.016,24.016h80.054v-24.016
			H316.04z"/>
	</g>
	<g>
		<path d="M468.427,192.387h-64.645v-74.037c0-6.286-2.448-12.196-6.893-16.64l-62.753-62.754
			c-4.445-4.445-10.354-6.893-16.64-6.893h-170.23v-8.532C147.266,10.557,136.709,0,123.734,0s-23.532,10.557-23.532,23.532v8.532
			H83.653c-8.556,0-15.516,6.96-15.516,15.516v16.548H51.589c-8.556,0-15.516,6.96-15.516,15.516v400.807
			c0,8.556,6.96,15.516,15.516,15.516h265.048v8.532c0,4.142,3.358,7.5,7.5,7.5h144.29c4.142,0,7.5-3.358,7.5-7.5V199.887
			C475.927,195.745,472.569,192.387,468.427,192.387z M386.191,112.226h-62.054c-0.285,0-0.516-0.231-0.516-0.516V49.655
			L386.191,112.226z M115.202,23.532c0-4.705,3.828-8.532,8.532-8.532s8.532,3.828,8.532,8.532v8.532h-17.064V23.532z
			 M51.589,480.968c-0.285,0-0.516-0.231-0.516-0.516V79.645c0-0.285,0.231-0.516,0.516-0.516h16.548v369.258
			c0,8.556,6.96,15.516,15.516,15.516h208.419c4.142,0,7.5-3.358,7.5-7.5s-3.358-7.5-7.5-7.5H83.653
			c-0.285,0-0.516-0.231-0.516-0.516V47.581c0-0.285,0.231-0.516,0.516-0.516h16.548v40.597c0,12.976,10.557,23.532,23.532,23.532
			s23.532-10.557,23.532-23.532V71.629c0-4.142-3.358-7.5-7.5-7.5s-7.5,3.358-7.5,7.5v16.032c0,4.705-3.828,8.532-8.532,8.532
			s-8.532-3.828-8.532-8.532V47.064h193.419v64.645c0,8.556,6.96,15.516,15.516,15.516h64.645v65.162h-64.645
			c-4.142,0-7.5,3.358-7.5,7.5v281.081H51.589z M460.927,497h-129.29V207.387h129.29V497z"/>
		<path d="M356.202,479.936h80.161c4.142,0,7.5-3.358,7.5-7.5V231.952c0-4.142-3.358-7.5-7.5-7.5h-80.161
			c-4.142,0-7.5,3.358-7.5,7.5v16.035c0,4.142,3.358,7.5,7.5,7.5s7.5-3.358,7.5-7.5v-8.535h65.161v78.114
			c-8.521-8.022-19.982-12.952-32.581-12.952s-24.06,4.931-32.581,12.952v-37.517c0-4.142-3.358-7.5-7.5-7.5s-7.5,3.358-7.5,7.5
			v192.388C348.702,476.578,352.06,479.936,356.202,479.936z M363.702,464.936v-78.114c8.521,8.022,19.982,12.952,32.581,12.952
			s24.06-4.931,32.581-12.952v78.114H363.702z M396.282,319.613c17.965,0,32.581,14.616,32.581,32.581
			c0,17.965-14.616,32.581-32.581,32.581s-32.581-14.616-32.581-32.581C363.702,334.229,378.317,319.613,396.282,319.613z"/>
		<path d="M404.298,279.532c4.142,0,7.5-3.358,7.5-7.5s-3.358-7.5-7.5-7.5h-16.032c-4.142,0-7.5,3.358-7.5,7.5s3.358,7.5,7.5,7.5
			H404.298z"/>
		<path d="M404.298,424.855h-16.032c-4.142,0-7.5,3.358-7.5,7.5s3.358,7.5,7.5,7.5h16.032c4.142,0,7.5-3.358,7.5-7.5
			S408.44,424.855,404.298,424.855z"/>
		<path d="M380.25,359.693h32.064c4.142,0,7.5-3.358,7.5-7.5s-3.358-7.5-7.5-7.5H380.25c-4.142,0-7.5,3.358-7.5,7.5
			S376.108,359.693,380.25,359.693z"/>
		<path d="M139.766,175.323h192.387c4.142,0,7.5-3.358,7.5-7.5s-3.358-7.5-7.5-7.5H139.766c-4.142,0-7.5,3.358-7.5,7.5
			S135.624,175.323,139.766,175.323z"/>
		<path d="M292.073,192.387H139.766c-4.142,0-7.5,3.358-7.5,7.5s3.358,7.5,7.5,7.5h152.307c4.142,0,7.5-3.358,7.5-7.5
			S296.215,192.387,292.073,192.387z"/>
		<path d="M292.073,224.452H139.766c-4.142,0-7.5,3.358-7.5,7.5s3.358,7.5,7.5,7.5h152.307c4.142,0,7.5-3.358,7.5-7.5
			S296.215,224.452,292.073,224.452z"/>
		<path d="M139.767,311.597h56.113c4.142,0,7.5-3.358,7.5-7.5s-3.358-7.5-7.5-7.5h-56.113c-4.142,0-7.5,3.358-7.5,7.5
			S135.625,311.597,139.767,311.597z"/>
		<path d="M139.767,279.532h56.113c4.142,0,7.5-3.358,7.5-7.5s-3.358-7.5-7.5-7.5h-56.113c-4.142,0-7.5,3.358-7.5,7.5
			S135.625,279.532,139.767,279.532z"/>
		<path d="M195.879,127.226h80.162c4.142,0,7.5-3.358,7.5-7.5s-3.358-7.5-7.5-7.5h-80.162c-4.142,0-7.5,3.358-7.5,7.5
			S191.737,127.226,195.879,127.226z"/>
		<path d="M292.073,360.726h-14.087c-8.426,0-16.349,3.281-22.308,9.24l-8.315,8.315l-30.847-23.992
			c-1.694-1.318-3.872-1.845-5.981-1.453c-2.11,0.394-3.95,1.673-5.054,3.514l-5.343,8.905l-13.734-24.721
			c-1.301-2.342-3.752-3.812-6.431-3.856c-2.673-0.019-5.177,1.343-6.556,3.64l-17.043,28.405c-2.974,4.956-8.411,8.034-14.19,8.034
			H131.75c-4.142,0-7.5,3.358-7.5,7.5s3.358,7.5,7.5,7.5h10.433c11.018,0,21.383-5.869,27.052-15.316l10.362-17.271l13.734,24.721
			c1.301,2.342,3.752,3.812,6.431,3.857c2.688,0.039,5.178-1.343,6.556-3.641l7.669-12.782l29.392,22.86
			c1.361,1.059,2.985,1.58,4.603,1.58c1.93,0,3.851-0.742,5.305-2.197l12.997-12.997c3.126-3.126,7.282-4.847,11.702-4.847h14.087
			c4.142,0,7.5-3.358,7.5-7.5S296.215,360.726,292.073,360.726z"/>
	</g>
</g>
<g>
</g>
<g>
</g>
<g>
</g>
<g>
</g>
<g>
</g>
<g>
</g>
<g>
</g>
<g>
</g>
<g>
</g>
<g>
</g>
<g>
</g>
<g>
</g>
<g>
</g>
<g>
</g>
<g>
</g>
</svg>
