<?xml version="1.0" encoding="iso-8859-1"?>
<!-- Generator: Adobe Illustrator 22.0.0, SVG Export Plug-In . SVG Version: 6.00 Build 0)  -->
<svg version="1.1" id="Capa_1" xmlns="http://www.w3.org/2000/svg" xmlns:xlink="http://www.w3.org/1999/xlink" x="0px" y="0px"
	 viewBox="0 0 512 512" style="enable-background:new 0 0 512 512;" xml:space="preserve">
<g>
	<g>
		<path style="fill:#DAD8DB;" d="M432.355,199.887c0,79.689-48.451,148.062-117.501,177.268
			c-23.017,9.735-48.323,13.178-74.886,13.178c-106.252,0-192.387-84.194-192.387-190.446S133.715,7.5,239.968,7.5
			S432.355,93.635,432.355,199.887z"/>
		<circle style="fill:#ECEAEC;" cx="239.968" cy="199.887" r="136.274"/>
		<path style="fill:#C8C5C9;" d="M335.004,362.155c-1.203-0.311-2.07-0.924-2.649-1.695c-23.406,10.145-49.218,15.782-76.355,15.782
			c-106.253,0-192.387-86.135-192.387-192.387c0-49.046,18.383-93.78,48.596-127.76c-39.633,35.24-64.628,86.586-64.628,143.792
			c0,106.252,86.134,192.387,192.387,192.387c37.109,0,71.746-10.528,101.127-28.737
			C339.048,363.15,337.016,362.675,335.004,362.155z"/>
		<path style="fill:#F6D190;" d="M384.258,504.5L384.258,504.5c-44.272,0-80.161-35.889-80.161-80.161v-48.097
			c0-8.854,7.178-16.032,16.032-16.032h128.258c8.854,0,16.032,7.178,16.032,16.032v48.097
			C464.419,468.611,428.53,504.5,384.258,504.5z"/>
		<path style="fill:#ECBD83;" d="M328.145,424.339V360.21h-8.016c-8.854,0-16.032,7.178-16.032,16.032v48.097
			c0,44.272,35.89,80.161,80.161,80.161c4.098,0,8.092-0.405,12.024-0.998C357.73,497.686,328.145,464.513,328.145,424.339z"/>
		<circle style="fill:#5D5360;" cx="384.258" cy="416.323" r="16.032"/>
	</g>
	<g>
		<path d="M288.581,154.796c0,4.142,3.358,7.5,7.5,7.5s7.5-3.358,7.5-7.5c0-18.278-16.391-33.513-40.081-39.654v-11.449
			c0-4.142-3.358-7.5-7.5-7.5s-7.5,3.358-7.5,7.5v8.908c-2.788-0.24-5.631-0.376-8.532-0.376s-5.744,0.136-8.532,0.376v-8.908
			c0-4.142-3.358-7.5-7.5-7.5s-7.5,3.358-7.5,7.5v11.449c-23.69,6.141-40.081,21.375-40.081,39.654
			c0,24.206,17.304,36.433,40.081,45.185v68.99c-14.824-4.785-25.081-13.853-25.081-23.994c0-4.142-3.358-7.5-7.5-7.5
			s-7.5,3.358-7.5,7.5c0,18.278,16.391,33.512,40.081,39.653v11.449c0,4.142,3.358,7.5,7.5,7.5s7.5-3.358,7.5-7.5v-8.908
			c2.788,0.24,5.631,0.376,8.532,0.376s5.744-0.136,8.532-0.376v8.908c0,4.142,3.358,7.5,7.5,7.5s7.5-3.358,7.5-7.5v-11.449
			c23.69-6.141,40.081-21.375,40.081-39.653c0-24.207-17.304-36.434-40.081-45.186v-68.99
			C278.324,135.587,288.581,144.655,288.581,154.796z M239.968,272.548c-2.903,0-5.753-0.162-8.532-0.454V205.13
			c2.112,0.659,4.244,1.307,6.393,1.946c3.769,1.122,7.319,2.226,10.671,3.329v61.689
			C245.72,272.387,242.871,272.548,239.968,272.548z M288.581,244.978c0,10.141-10.257,19.209-25.081,23.994v-52.986
			C280.152,223.181,288.581,231.454,288.581,244.978z M248.5,194.645c-2.112-0.659-4.244-1.306-6.393-1.946
			c-3.769-1.122-7.319-2.226-10.672-3.329v-37.58c0-4.142-3.358-7.5-7.5-7.5s-7.5,3.358-7.5,7.5v31.999
			c-16.652-7.195-25.081-15.468-25.081-28.991c0-14.945,22.262-27.571,48.613-27.571c2.903,0,5.753,0.162,8.532,0.454V194.645z"/>
		<path d="M270.792,382.218c-10.113,1.696-20.483,2.557-30.825,2.557c-101.947,0-184.887-82.94-184.887-184.887
			S138.021,15,239.968,15s184.887,82.94,184.887,184.887c0,7.728-0.481,15.507-1.431,23.123c-0.513,4.11,2.404,7.858,6.515,8.371
			c4.109,0.51,7.857-2.404,8.37-6.514c1.026-8.229,1.546-16.634,1.546-24.979C439.855,89.669,350.186,0,239.968,0
			S40.081,89.669,40.081,199.887s89.669,199.887,199.887,199.887c11.17,0,22.376-0.93,33.306-2.764
			c4.085-0.685,6.841-4.552,6.156-8.637C278.745,384.289,274.884,381.53,270.792,382.218z"/>
		<path d="M207.243,349.199c-4.044-0.885-8.043,1.681-8.927,5.729c-0.883,4.047,1.682,8.043,5.729,8.927
			c2.71,0.591,5.478,1.123,8.224,1.579c0.416,0.069,0.83,0.103,1.238,0.103c3.602,0,6.78-2.602,7.389-6.272
			c0.679-4.086-2.083-7.949-6.169-8.628C212.227,350.221,209.709,349.737,207.243,349.199z"/>
		<path d="M252.728,352.185c-2.52,0.208-5.08,0.356-7.61,0.439c-4.14,0.137-7.385,3.604-7.249,7.744
			c0.134,4.056,3.464,7.252,7.492,7.252c0.083,0,0.167-0.001,0.252-0.004c2.775-0.092,5.585-0.254,8.35-0.482
			c4.128-0.341,7.198-3.964,6.857-8.092C260.479,354.914,256.851,351.852,252.728,352.185z"/>
		<path d="M164.666,349.906c2.489,1.251,5.041,2.456,7.584,3.578c0.985,0.435,2.013,0.641,3.025,0.641
			c2.88,0,5.627-1.668,6.865-4.473c1.673-3.789-0.042-8.217-3.832-9.89c-2.315-1.022-4.638-2.119-6.904-3.258
			c-3.701-1.861-8.21-0.369-10.07,3.332C159.474,343.537,160.965,348.046,164.666,349.906z"/>
		<path d="M387.81,161.033c0.883,3.37,3.922,5.601,7.25,5.601c0.629,0,1.269-0.08,1.906-0.247c4.007-1.05,6.404-5.149,5.354-9.156
			c-0.705-2.689-1.487-5.396-2.325-8.044c-1.25-3.949-5.466-6.135-9.414-4.887c-3.949,1.25-6.137,5.465-4.887,9.414
			C386.456,156.124,387.168,158.586,387.81,161.033z"/>
		<path d="M169.158,64.422c2.241-1.174,4.537-2.305,6.824-3.36c3.761-1.736,5.402-6.192,3.667-9.953
			c-1.736-3.76-6.192-5.402-9.953-3.667c-2.514,1.16-5.037,2.402-7.499,3.692c-3.669,1.922-5.085,6.455-3.163,10.124
			c1.34,2.558,3.949,4.021,6.65,4.021C166.857,65.28,168.047,65.004,169.158,64.422z"/>
		<path d="M392.786,198.73c0.031,4.123,3.383,7.444,7.499,7.444c0.019,0,0.038,0,0.057,0c4.142-0.031,7.475-3.414,7.444-7.556
			c-0.021-2.784-0.111-5.598-0.268-8.362c-0.234-4.136-3.786-7.312-7.912-7.064c-4.136,0.234-7.298,3.776-7.064,7.912
			C392.686,193.624,392.768,196.189,392.786,198.73z"/>
		<path d="M386.756,118.478c-1.348-2.426-2.775-4.85-4.243-7.205c-2.19-3.515-6.814-4.589-10.332-2.4
			c-3.516,2.19-4.59,6.816-2.4,10.332c1.336,2.144,2.635,4.351,3.863,6.56c1.371,2.467,3.927,3.858,6.563,3.858
			c1.232,0,2.483-0.305,3.636-0.946C387.464,126.664,388.768,122.098,386.756,118.478z"/>
		<path d="M322.753,53.872c-3.601-2.046-8.18-0.785-10.226,2.816c-2.046,3.602-0.785,8.18,2.816,10.226
			c2.197,1.249,4.397,2.572,6.54,3.935c1.248,0.793,2.641,1.172,4.018,1.172c2.479,0,4.907-1.229,6.336-3.476
			c2.223-3.495,1.191-8.13-2.304-10.354C327.582,56.696,325.166,55.243,322.753,53.872z"/>
		<path d="M356.219,78.85c-2.986-2.87-7.734-2.775-10.604,0.212c-2.87,2.987-2.775,7.734,0.212,10.604
			c1.823,1.752,3.629,3.575,5.367,5.418c1.476,1.565,3.465,2.355,5.458,2.355c1.845,0,3.695-0.677,5.144-2.043
			c3.014-2.842,3.153-7.588,0.312-10.602C360.201,82.772,358.22,80.772,356.219,78.85z"/>
		<path d="M129.985,326.651c2.099,1.822,4.271,3.616,6.456,5.331c1.374,1.078,3.005,1.601,4.625,1.601
			c2.224,0,4.425-0.985,5.905-2.87c2.557-3.258,1.989-7.973-1.27-10.53c-1.991-1.563-3.97-3.197-5.882-4.857
			c-3.128-2.717-7.865-2.382-10.58,0.746C126.523,319.198,126.857,323.935,129.985,326.651z"/>
		<path d="M85.836,266.382c1.224,2.834,3.986,4.528,6.889,4.528c0.992,0,2.001-0.198,2.97-0.617
			c3.803-1.642,5.554-6.056,3.912-9.859c-1-2.317-1.956-4.69-2.839-7.053c-1.45-3.879-5.771-5.848-9.651-4.399
			c-3.88,1.45-5.85,5.771-4.399,9.651C83.687,261.229,84.737,263.836,85.836,266.382z"/>
		<path d="M74.212,226.292c0.584,3.695,3.772,6.33,7.398,6.33c0.389,0,0.784-0.03,1.181-0.093c4.091-0.647,6.884-4.488,6.236-8.58
			c-0.395-2.496-0.732-5.039-1.002-7.557c-0.442-4.118-4.146-7.104-8.258-6.656c-4.119,0.442-7.098,4.14-6.656,8.258
			C73.408,220.76,73.778,223.551,74.212,226.292z"/>
		<path d="M102.576,116.876c1.283,0.861,2.736,1.274,4.173,1.274c2.416,0,4.787-1.165,6.234-3.321c1.41-2.1,2.893-4.195,4.409-6.227
			c2.477-3.32,1.792-8.02-1.527-10.496c-3.32-2.477-8.02-1.792-10.496,1.527c-1.664,2.23-3.292,4.53-4.839,6.836
			C98.22,109.909,99.137,114.568,102.576,116.876z"/>
		<path d="M107.039,302.342c1.478,1.915,3.698,2.918,5.943,2.918c1.6,0,3.212-0.51,4.577-1.563c3.279-2.531,3.886-7.241,1.355-10.52
			c-1.546-2.003-3.062-4.07-4.504-6.145c-2.365-3.401-7.039-4.241-10.439-1.876s-4.241,7.039-1.876,10.439
			C103.679,297.874,105.342,300.143,107.039,302.342z"/>
		<path d="M299.465,348.997c-1.354-3.915-5.627-5.989-9.539-4.637c-2.394,0.828-4.836,1.604-7.26,2.308
			c-3.978,1.154-6.267,5.315-5.112,9.293c0.952,3.28,3.947,5.412,7.199,5.412c0.692,0,1.396-0.097,2.094-0.299
			c2.665-0.773,5.35-1.626,7.98-2.536C298.742,357.183,300.818,352.912,299.465,348.997z"/>
		<path d="M250.184,47.4c0.169,0.011,0.335,0.017,0.502,0.017c3.917,0,7.214-3.042,7.477-7.006c0.273-4.133-2.856-7.705-6.989-7.979
			c-2.766-0.183-5.579-0.298-8.359-0.345c-0.042,0-0.084-0.001-0.127-0.001c-4.084,0-7.429,3.276-7.497,7.375
			c-0.069,4.142,3.233,7.555,7.375,7.624C245.1,47.128,247.663,47.234,250.184,47.4z"/>
		<path d="M287.506,54.601c0.774,0.253,1.56,0.374,2.333,0.374c3.156,0,6.093-2.008,7.127-5.171c1.288-3.937-0.86-8.172-4.797-9.459
			c-2.642-0.864-5.341-1.672-8.022-2.402c-3.999-1.088-8.119,1.271-9.206,5.268c-1.088,3.997,1.271,8.118,5.268,9.206
			C282.646,53.079,285.102,53.814,287.506,54.601z"/>
		<path d="M203.026,51.341c0.57,0,1.148-0.065,1.727-0.202c2.459-0.58,4.97-1.105,7.459-1.562c4.074-0.748,6.771-4.656,6.023-8.73
			s-4.661-6.77-8.73-6.023c-2.735,0.502-5.492,1.079-8.194,1.716c-4.032,0.95-6.53,4.989-5.579,9.021
			C196.546,49.014,199.625,51.341,203.026,51.341z"/>
		<path d="M73.795,176.271c-0.387,2.75-0.71,5.547-0.961,8.313c-0.373,4.125,2.669,7.772,6.794,8.146
			c0.23,0.021,0.458,0.031,0.685,0.031c3.837,0,7.108-2.93,7.461-6.825c0.228-2.521,0.522-5.068,0.875-7.573
			c0.578-4.102-2.279-7.895-6.381-8.473C78.168,169.314,74.373,172.168,73.795,176.271z"/>
		<path d="M137.932,86.116c1.886-1.691,3.836-3.357,5.798-4.949c3.216-2.611,3.707-7.334,1.096-10.55
			c-2.61-3.216-7.333-3.707-10.55-1.096c-2.153,1.748-4.293,3.575-6.362,5.431c-3.083,2.766-3.34,7.508-0.573,10.591
			c1.481,1.651,3.528,2.491,5.584,2.491C134.709,88.034,136.5,87.401,137.932,86.116z"/>
		<path d="M86.314,153.366c0.829,0.294,1.675,0.433,2.507,0.433c3.086,0,5.978-1.92,7.069-4.995
			c0.846-2.386,1.765-4.786,2.732-7.131c1.579-3.83-0.246-8.214-4.076-9.792c-3.832-1.578-8.214,0.247-9.792,4.076
			c-1.062,2.577-2.072,5.213-3.002,7.834C80.368,147.695,82.41,151.982,86.314,153.366z"/>
		<path d="M448.387,352.709h-0.516v-48.613c0-29.079-19.621-53.646-46.314-61.202c0.63-0.808,1.123-1.742,1.384-2.802
			c0.664-2.7,1.269-5.453,1.796-8.183c0.786-4.067-1.874-8.001-5.941-8.787c-4.064-0.786-8,1.874-8.787,5.941
			c-0.48,2.484-1.03,4.989-1.634,7.445c-0.349,1.42-0.262,2.842,0.165,4.134c-1.417-0.095-2.843-0.16-4.284-0.16
			c-35.076,0-63.613,28.537-63.613,63.613v25.605c-1.026,0.639-2.058,1.268-3.09,1.877c-3.567,2.106-4.751,6.705-2.646,10.271
			c1.266,2.144,3.434,3.416,5.736,3.641v7.218h-0.516c-12.976,0-23.532,10.557-23.532,23.532v48.097
			c0,48.336,39.325,87.661,87.662,87.661c48.336,0,87.661-39.325,87.661-87.661v-48.097
			C471.919,363.266,461.363,352.709,448.387,352.709z M335.645,304.097c0-26.805,21.808-48.613,48.613-48.613
			c26.805,0,48.613,21.808,48.613,48.613v48.613h-97.226V304.097z M456.919,424.339c0,40.065-32.596,72.661-72.661,72.661h0
			c-40.065,0-72.661-32.596-72.661-72.661v-48.097c0-4.705,3.828-8.532,8.532-8.532h128.258c4.705,0,8.532,3.828,8.532,8.532
			V424.339z"/>
		<path d="M384.258,392.791c-12.976,0-23.533,10.557-23.533,23.532c0,10.354,6.724,19.16,16.033,22.3v17.781
			c0,4.142,3.358,7.5,7.5,7.5s7.5-3.358,7.5-7.5v-17.781c9.308-3.139,16.032-11.946,16.032-22.3
			C407.791,403.347,397.234,392.791,384.258,392.791z M384.258,424.855c-4.705,0-8.533-3.828-8.533-8.532s3.828-8.532,8.533-8.532
			c4.705,0,8.532,3.828,8.532,8.532S388.963,424.855,384.258,424.855z"/>
	</g>
</g>
<g>
</g>
<g>
</g>
<g>
</g>
<g>
</g>
<g>
</g>
<g>
</g>
<g>
</g>
<g>
</g>
<g>
</g>
<g>
</g>
<g>
</g>
<g>
</g>
<g>
</g>
<g>
</g>
<g>
</g>
</svg>
