<?xml version="1.0" encoding="iso-8859-1"?>
<!-- Generator: Adobe Illustrator 22.0.0, SVG Export Plug-In . SVG Version: 6.00 Build 0)  -->
<svg version="1.1" id="Capa_1" xmlns="http://www.w3.org/2000/svg" xmlns:xlink="http://www.w3.org/1999/xlink" x="0px" y="0px"
	 viewBox="0 0 512 512" style="enable-background:new 0 0 512 512;" xml:space="preserve">
<g>
	<g>
		<path style="fill:#B9CDA5;" d="M319.991,7.501c-4.993,0-9.7,2.328-12.692,6.325C295.612,29.439,277.005,39.564,256,39.564
			s-39.612-10.125-51.299-25.739c-2.992-3.997-7.699-6.325-12.692-6.325L151.79,7.5l19.754,85.599
			c2.758,11.952,9.979,22.399,20.185,29.204l32.206,21.471h64.129l32.206-21.471c10.206-6.804,17.427-17.251,20.185-29.204
			L360.21,7.5L319.991,7.501z"/>
		<path style="fill:#B9CDA5;" d="M415.788,466.022l-13.895-10.422c-6.055-4.542-9.619-11.669-9.619-19.238v-139.2
			c0-31.139-13.925-60.647-37.963-80.443L256,145l-98.311,71.72c-24.037,19.796-37.963,49.303-37.963,80.443v139.2
			c0,7.569-3.564,14.696-9.619,19.238l-13.445,10.084c-4.055,3.041-7.22,7.295-8.385,12.228
			c-3.322,14.065,7.257,26.586,20.761,26.586l292.924,0c9.064,0,17.757-5.162,20.953-13.644
			C426.426,481.54,423.215,471.593,415.788,466.022z"/>
		<circle style="fill:#D9DCB6;" cx="256" cy="352.193" r="80.161"/>
		<circle style="fill:#F9EAC7;" cx="256" cy="352.193" r="56.113"/>
		<path style="fill:#96B49B;" d="M207.903,480.451c-22.1,0-40.081-17.98-40.081-40.081v-148.67c0-20.419,8.705-39.965,23.882-53.625
			l37.621-33.858c8.847-7.962,20.273-12.347,32.175-12.347h52.903h9.733L256,135.758l-98.311,80.962
			c-24.038,19.796-37.963,49.303-37.963,80.443v139.2c0,7.569-3.564,14.696-9.619,19.238l-13.445,10.084
			c-4.055,3.041-7.22,7.295-8.385,12.228c-3.322,14.066,7.258,26.587,20.761,26.587h292.923c9.063,0,17.756-5.162,20.953-13.644
			c1.306-3.465,1.674-7.017,1.25-10.398l-0.566-0.006H207.903z"/>
		<path style="fill:#F6D190;" d="M288.065,167.823h-64.129c-8.854,0-16.032-7.178-16.032-16.032v0
			c0-8.854,7.178-16.032,16.032-16.032h64.129c8.854,0,16.032,7.178,16.032,16.032v0
			C304.097,160.645,296.919,167.823,288.065,167.823z"/>
		<path style="fill:#ECBD83;" d="M223.936,167.823h16.032v-32.065h-16.032c-8.854,0-16.032,7.178-16.032,16.032v0
			C207.903,160.645,215.081,167.823,223.936,167.823z"/>
	</g>
	<g>
		<path d="M420.288,460.022l-13.895-10.421c-4.145-3.108-6.619-8.058-6.619-13.239v-139.57c0-33.251-14.65-64.531-40.195-85.818
			l-53.247-44.372c3.289-4.048,5.264-9.203,5.264-14.813c0-5.184-1.689-9.979-4.54-13.872l18.359-11.016
			c11.018-6.61,18.993-17.582,21.883-30.102l20.218-87.614c0.514-2.227-0.016-4.567-1.439-6.355C364.656,1.042,362.495,0,360.209,0
			h-40.218c-7.333,0-14.321,3.487-18.693,9.329C290.483,23.777,273.973,32.064,256,32.064s-34.483-8.287-45.298-22.736
			C206.33,3.487,199.342,0,192.009,0h-40.218c-2.286,0-4.446,1.042-5.869,2.831c-1.423,1.788-1.953,4.128-1.439,6.355l20.218,87.614
			c2.89,12.52,10.865,23.491,21.883,30.102l18.359,11.016c-2.851,3.893-4.54,8.688-4.54,13.872
			c0,12.976,10.557,23.532,23.532,23.532h64.129c1.619,0,3.2-0.164,4.728-0.477l57.184,47.653
			c22.114,18.429,34.798,45.508,34.798,74.294v139.57c0,9.877,4.717,19.313,12.619,25.239l13.895,10.421
			c3.476,2.606,5.551,6.756,5.551,11.101c0,7.651-6.225,13.876-13.876,13.876H109.038c-7.651,0-13.876-6.225-13.876-13.876
			c0-4.344,2.075-8.494,5.551-11.101l13.895-10.421c7.902-5.926,12.619-15.361,12.619-25.239v-139.57
			c0-28.786,12.684-55.866,34.798-74.294l34.648-28.874c3.182-2.651,3.612-7.381,0.96-10.563c-2.652-3.182-7.382-3.612-10.563-0.96
			l-34.648,28.874c-25.545,21.287-40.195,52.567-40.195,85.818v139.57c0,5.181-2.475,10.13-6.619,13.239l-13.895,10.421
			c-7.233,5.424-11.551,14.061-11.551,23.102c0,15.922,12.954,28.876,28.876,28.876h293.925c15.922,0,28.876-12.954,28.876-28.876
			C431.839,474.083,427.521,465.447,420.288,460.022z M179.317,93.428L161.218,15h30.791c2.631,0,5.129,1.24,6.684,3.317
			c13.675,18.27,34.563,28.748,57.307,28.748s43.632-10.478,57.307-28.748C314.862,16.24,317.36,15,319.991,15h30.791
			l-18.099,78.428c-1.978,8.573-7.44,16.086-14.984,20.612l-23.696,14.218h-9.836l26.637-53.274
			c1.853-3.705,0.351-8.21-3.354-10.063c-3.705-1.853-8.209-0.351-10.062,3.354l-29.991,59.982h-22.794l-29.991-59.982
			c-1.852-3.705-6.357-5.207-10.062-3.354s-5.207,6.357-3.354,10.063l26.637,53.274h-9.836l-23.696-14.218
			C186.757,109.514,181.295,102,179.317,93.428z M223.936,160.322c-4.705,0-8.532-3.827-8.532-8.532
			c0-4.704,3.828-8.532,8.532-8.532h64.129c4.705,0,8.532,3.828,8.532,8.532c0,4.705-3.828,8.532-8.532,8.532H223.936z"/>
		<path d="M304.35,279.061c-34.572-22.903-80.974-18.215-110.335,11.147c-29.362,29.362-34.05,75.765-11.147,110.335
			c1.443,2.179,3.828,3.359,6.259,3.359c1.422,0,2.861-0.404,4.135-1.249c3.453-2.288,4.398-6.941,2.11-10.395
			c-18.979-28.648-15.09-67.106,9.249-91.444c24.338-24.339,62.796-28.229,91.445-9.249c3.453,2.288,8.107,1.343,10.395-2.11
			S307.803,281.348,304.35,279.061z"/>
		<path d="M215.935,412.821c-3.453-2.288-8.107-1.343-10.395,2.11s-1.343,8.107,2.11,10.395
			c14.679,9.726,31.487,14.475,48.223,14.475c22.677,0,45.219-8.727,62.113-25.621c29.362-29.362,34.05-75.766,11.147-110.336
			c-2.288-3.453-6.941-4.397-10.395-2.11c-3.453,2.288-4.398,6.942-2.11,10.395c18.979,28.648,15.09,67.106-9.249,91.445
			C283.041,427.911,244.583,431.801,215.935,412.821z"/>
		<path d="M256,384.774c-9.752,0-16.548-5.289-16.548-10.035c0-4.143-3.358-7.5-7.5-7.5s-7.5,3.357-7.5,7.5
			c0,11.979,10.095,21.738,24.048,24.345v1.206c0,4.143,3.358,7.5,7.5,7.5s7.5-3.357,7.5-7.5v-1.206
			c13.953-2.606,24.048-12.365,24.048-24.345c0-19.531-18.209-25.854-29.088-29.631c-16.264-5.647-19.008-9.333-19.008-15.46
			c0-4.747,6.796-10.036,16.548-10.036s16.548,5.289,16.548,10.036c0,4.142,3.358,7.5,7.5,7.5s7.5-3.358,7.5-7.5
			c0-11.98-10.095-21.739-24.048-24.345v-1.207c0-4.142-3.358-7.5-7.5-7.5s-7.5,3.358-7.5,7.5v1.207
			c-13.953,2.606-24.048,12.365-24.048,24.345c0,19.53,18.209,25.853,29.088,29.63c16.264,5.647,19.008,9.334,19.008,15.461
			C272.548,379.485,265.752,384.774,256,384.774z"/>
	</g>
</g>
<g>
</g>
<g>
</g>
<g>
</g>
<g>
</g>
<g>
</g>
<g>
</g>
<g>
</g>
<g>
</g>
<g>
</g>
<g>
</g>
<g>
</g>
<g>
</g>
<g>
</g>
<g>
</g>
<g>
</g>
</svg>
