<?xml version="1.0" encoding="iso-8859-1"?>
<!-- Generator: Adobe Illustrator 22.0.0, SVG Export Plug-In . SVG Version: 6.00 Build 0)  -->
<svg version="1.1" id="Capa_1" xmlns="http://www.w3.org/2000/svg" xmlns:xlink="http://www.w3.org/1999/xlink" x="0px" y="0px"
	 viewBox="0 0 512 512" style="enable-background:new 0 0 512 512;" xml:space="preserve">
<g>
	<g>
		<path style="fill:#F9EAC7;" d="M143.774,370.58v-58.467h32.065v58.467c0,36.296-18.634,69.202-49.181,87.843
			c-4.06,2.478-9.381,1.049-11.508-3.206l-7.203-14.407c-1.815-3.631-0.65-8.086,2.786-10.248
			C131.278,417.637,143.774,395.245,143.774,370.58z"/>
		<path style="fill:#F4DBB3;" d="M164.173,457.978c7.697-17.96,11.666-37.297,11.666-56.837v-89.028h32.065v89.034
			c0,23.883-4.851,47.517-14.259,69.47l-7.927,18.496c-1.744,4.069-6.457,5.954-10.526,4.21l-14.738-6.318
			c-4.069-1.744-5.953-6.456-4.21-10.525L164.173,457.978z"/>
		<path style="fill:#F9EAC7;" d="M231.952,504.5h-16.032c-4.427,0-8.016-3.589-8.016-8.016V296.081h32.065v200.403
			C239.968,500.911,236.379,504.5,231.952,504.5z"/>
		<path style="fill:#F4DBB3;" d="M264.016,504.5h-16.032c-4.427,0-8.016-3.589-8.016-8.016V296.081h32.065v200.403
			C272.032,500.911,268.443,504.5,264.016,504.5z"/>
		<path style="fill:#F9EAC7;" d="M296.081,504.5h-16.032c-4.427,0-8.016-3.589-8.016-8.016V296.081h32.065v200.403
			C304.097,500.911,300.508,504.5,296.081,504.5z"/>
		<path style="fill:#ECEAEC;" d="M408.306,312.113H103.694c-8.854,0-16.032-7.178-16.032-16.032v-80.161
			c0-8.854,7.178-16.032,16.032-16.032h304.613c8.854,0,16.032,7.178,16.032,16.032v80.161
			C424.339,304.935,417.161,312.113,408.306,312.113z"/>
		<path style="fill:#DAD8DB;" d="M111.71,280.048v-80.161h-8.016c-8.854,0-16.032,7.178-16.032,16.032v80.161
			c0,8.854,7.179,16.032,16.032,16.032h304.613c8.854,0,16.032-7.178,16.032-16.032v-8.016H119.726
			C115.306,288.065,111.71,284.468,111.71,280.048z"/>
		<polygon style="fill:#F9EAC7;" points="146.981,247.984 174.236,264.016 201.49,247.984 228.745,264.016 256,247.984 
			283.255,264.016 310.51,247.984 337.764,264.016 365.019,247.984 368.226,249.87 368.226,7.5 143.774,7.5 143.774,249.87 		"/>
		<polygon style="fill:#F4DBB3;" points="168.417,260.243 168.417,7.5 143.774,7.5 143.774,249.87 146.981,247.984 		"/>
		<path style="fill:#9B959D;" d="M256,199.887c-44.272,0-80.161,25.122-80.161,56.113c0,2.268,0.28,4.486,0.672,6.678l24.979-14.694
			l27.255,16.032L256,247.984l27.255,16.032l27.255-16.032l24.979,14.694c0.392-2.192,0.672-4.41,0.672-6.678
			C336.161,225.009,300.272,199.887,256,199.887z"/>
		<path style="fill:#F9EAC7;" d="M368.226,370.58v-58.467h-32.065v58.467c0,36.296,18.634,69.202,49.181,87.843
			c4.06,2.478,9.381,1.049,11.508-3.206l7.203-14.407c1.815-3.631,0.65-8.086-2.786-10.248
			C380.722,417.637,368.226,395.245,368.226,370.58z"/>
		<path style="fill:#F4DBB3;" d="M347.827,457.978c-7.697-17.96-11.666-37.297-11.666-56.837v-89.028h-32.065v89.034
			c0,23.883,4.851,47.517,14.259,69.47l7.927,18.496c1.744,4.069,6.457,5.954,10.526,4.21l14.738-6.318
			c4.069-1.744,5.953-6.456,4.21-10.525L347.827,457.978z"/>
		<path style="fill:#B9CDA5;" d="M256,159.806c-13.263,0-24.048-10.785-24.048-24.048c0-13.263,10.785-24.048,24.048-24.048
			c13.263,0,24.048,10.785,24.048,24.048C280.048,149.021,269.263,159.806,256,159.806z"/>
		<rect x="143.774" y="312.113" style="fill:#F4DBB3;" width="32.065" height="24.048"/>
		<rect x="272.032" y="312.113" style="fill:#F4DBB3;" width="32.065" height="24.048"/>
		<rect x="336.161" y="312.113" style="fill:#F4DBB3;" width="32.065" height="24.048"/>
		<rect x="304.097" y="312.113" style="fill:#EAC89F;" width="32.065" height="24.048"/>
		<rect x="175.839" y="312.113" style="fill:#EAC89F;" width="32.065" height="24.048"/>
		<rect x="239.968" y="312.113" style="fill:#EAC89F;" width="32.065" height="24.048"/>
		<rect x="207.903" y="312.113" style="fill:#F4DBB3;" width="32.065" height="24.048"/>
		<circle style="fill:#C8C5C9;" cx="195.879" cy="59.605" r="20.04"/>
		<circle style="fill:#C8C5C9;" cx="316.121" cy="59.605" r="20.04"/>
	</g>
	<g>
		<path d="M408.307,192.387h-8.016c-4.142,0-7.5,3.358-7.5,7.5s3.358,7.5,7.5,7.5h8.016c4.705,0,8.532,3.828,8.532,8.532v80.161
			c0,4.705-3.828,8.532-8.532,8.532H103.693c-4.705,0-8.532-3.828-8.532-8.532v-80.161c0-4.705,3.828-8.532,8.532-8.532h8.02
			c4.142,0,7.5-3.358,7.5-7.5s-3.358-7.5-7.5-7.5h-8.02c-12.976,0-23.532,10.557-23.532,23.532v80.161
			c0,12.976,10.557,23.532,23.532,23.532h32.581v50.967c0,24.188-13.438,45.932-35.07,56.748c-3.705,1.852-5.207,6.357-3.354,10.062
			l6.975,13.95l5.872,14.714c0.758,1.899,2.258,3.406,4.153,4.173c0.903,0.365,1.858,0.547,2.813,0.547
			c1.049,0,2.097-0.22,3.074-0.659l1.237-0.556c0.094-0.042,0.188-0.087,0.28-0.133c17.628-8.813,32.131-21.794,42.575-37.428
			c-1.818,7.841-4.338,15.532-7.551,23.029l-11.085,25.864c-1.631,3.807,0.132,8.216,3.938,9.848l29.473,12.635
			c0.943,0.404,1.949,0.607,2.955,0.607c0.945,0,1.891-0.179,2.785-0.536c1.847-0.739,3.325-2.181,4.108-4.009l10.955-25.561V504.5
			c0,4.142,3.358,7.5,7.5,7.5h96.193c4.142,0,7.5-3.358,7.5-7.5v-30.606l10.947,25.542c0.784,1.828,2.262,3.271,4.108,4.009
			c0.895,0.357,1.84,0.536,2.785,0.536c1.006,0,2.012-0.203,2.955-0.607l29.473-12.635c3.807-1.632,5.57-6.041,3.938-9.848
			l-11.085-25.865c-3.214-7.497-5.734-15.187-7.551-23.029c10.445,15.634,24.947,28.615,42.576,37.428
			c0.092,0.046,0.186,0.09,0.28,0.133l1.237,0.556c0.977,0.438,2.025,0.659,3.074,0.659c0.955,0,1.91-0.182,2.813-0.547
			c1.896-0.767,3.396-2.274,4.153-4.173l5.872-14.714l6.975-13.95c1.853-3.705,0.351-8.21-3.354-10.062
			c-21.632-10.816-35.07-32.561-35.07-56.748v-50.967h32.581c12.976,0,23.532-10.557,23.532-23.532v-80.161
			C431.839,202.944,421.282,192.387,408.307,192.387z M121.538,452.749l-2.897-7.261c-0.078-0.195-0.164-0.387-0.257-0.574
			l-3.919-7.838c22.88-14.265,36.811-39.115,36.811-66.496v-50.967h17.064v50.967C168.339,404.706,150.572,435.601,121.538,452.749z
			 M186.75,467.663l-8.13,18.97l-15.687-6.725l8.131-18.971c8.145-19.001,12.274-39.119,12.274-59.796v-81.528h17.064v81.528
			C200.403,424.142,195.81,446.523,186.75,467.663z M215.407,319.613h17.061V497h-17.061V319.613z M279.532,497V376.242
			c0-4.142-3.358-7.5-7.5-7.5s-7.5,3.358-7.5,7.5V497h-17.064V319.613h17.064v24.565c0,4.142,3.358,7.5,7.5,7.5s7.5-3.358,7.5-7.5
			v-24.565h17.064L296.601,497H279.532z M340.936,460.937l8.131,18.971l-15.687,6.725l-8.13-18.97
			c-9.018-21.044-13.607-43.318-13.649-66.209v-81.841h17.061v81.528C328.661,421.82,332.791,441.938,340.936,460.937z
			 M397.536,437.076l-3.919,7.838c-0.094,0.188-0.18,0.379-0.257,0.574l-2.897,7.261c-29.034-17.148-46.801-48.043-46.801-82.169
			v-50.967h17.064v50.967C360.726,397.961,374.656,422.811,397.536,437.076z"/>
		<path d="M115.923,257.552c-3.57,2.1-4.762,6.697-2.662,10.267c2.1,3.57,6.696,4.763,10.267,2.662l23.452-13.795l23.452,13.795
			c2.348,1.381,5.258,1.381,7.605,0l23.452-13.795l23.452,13.795c2.348,1.381,5.258,1.381,7.605,0L256,256.685l23.452,13.795
			c2.348,1.381,5.258,1.381,7.605,0l23.452-13.795l23.452,13.795c2.348,1.381,5.258,1.381,7.605,0l23.452-13.795l23.452,13.795
			c1.194,0.703,2.503,1.037,3.795,1.037c2.571,0,5.074-1.322,6.472-3.698c2.1-3.57,0.909-8.167-2.662-10.267l-20.352-11.971V7.5
			c0-4.142-3.358-7.5-7.5-7.5H143.774c-4.142,0-7.5,3.358-7.5,7.5v238.08L115.923,257.552z M306.707,241.52l-23.452,13.795
			l-23.452-13.795c-2.348-1.381-5.258-1.381-7.605,0l-23.452,13.795l-23.452-13.795c-2.348-1.381-5.258-1.381-7.605,0l-13.691,8.053
			c2.033-10.091,8.813-19.541,19.622-27.107c13.891-9.724,32.494-15.079,52.381-15.079s38.49,5.355,52.381,15.079
			c10.809,7.566,17.589,17.016,19.622,27.107l-13.691-8.053C311.965,240.139,309.055,240.139,306.707,241.52z M316.121,47.064
			c6.915,0,12.54,5.625,12.54,12.541c0,6.915-5.625,12.54-12.54,12.54c-6.915,0-12.541-5.625-12.541-12.54
			C303.581,52.69,309.206,47.064,316.121,47.064z M360.726,15v226.808l-17.064,10.038V60.064c0-15.464-12.536-28-28-28H196.339
			c-15.464,0-28,12.536-28,28v107.445c0,4.107,3.164,7.688,7.269,7.811c4.247,0.128,7.731-3.278,7.731-7.497V84.112
			c4.18,2.148,8.972,3.266,14.045,2.993c13.905-0.749,25.251-12.097,25.995-26.002c0.272-5.07-0.847-9.86-2.993-14.038h71.228
			c-2.147,4.178-3.265,8.967-2.993,14.038c0.745,13.906,12.09,25.254,25.995,26.002c5.073,0.273,9.865-0.845,14.045-2.993v136.125
			c-3.367-3.596-7.263-6.969-11.678-10.059c-16.389-11.473-38.047-17.791-60.983-17.791s-44.594,6.318-60.983,17.791
			c-4.414,3.09-8.311,6.462-11.678,10.059V200.2c0-4.107-3.164-7.688-7.269-7.811c-4.247-0.128-7.731,3.278-7.731,7.497v51.961
			l-17.064-10.038V15H360.726z M208.419,59.605c0,6.915-5.625,12.54-12.541,12.54c-6.915,0-12.54-5.625-12.54-12.54
			c0-6.915,5.625-12.541,12.54-12.541C202.794,47.064,208.419,52.69,208.419,59.605z"/>
		<path d="M256,167.307c17.396,0,31.548-14.152,31.548-31.548S273.396,104.209,256,104.209s-31.548,14.153-31.548,31.549
			S238.604,167.307,256,167.307z M256,119.209c9.125,0,16.548,7.424,16.548,16.549s-7.423,16.548-16.548,16.548
			s-16.548-7.423-16.548-16.548S246.875,119.209,256,119.209z"/>
	</g>
</g>
<g>
</g>
<g>
</g>
<g>
</g>
<g>
</g>
<g>
</g>
<g>
</g>
<g>
</g>
<g>
</g>
<g>
</g>
<g>
</g>
<g>
</g>
<g>
</g>
<g>
</g>
<g>
</g>
<g>
</g>
</svg>
