<?xml version="1.0" encoding="iso-8859-1"?>
<!-- Generator: Adobe Illustrator 22.0.0, SVG Export Plug-In . SVG Version: 6.00 Build 0)  -->
<svg version="1.1" id="Capa_1" xmlns="http://www.w3.org/2000/svg" xmlns:xlink="http://www.w3.org/1999/xlink" x="0px" y="0px"
	 viewBox="0 0 512 512" style="enable-background:new 0 0 512 512;" xml:space="preserve">
<g>
	<g>
		<g>
			<circle style="fill:#ECBD83;" cx="296.081" cy="296.081" r="208.419"/>
			<path style="fill:#E2A975;" d="M448.387,215.919c0-25.908-4.302-50.797-12.123-74.069
				c-37.018-33.666-86.204-54.189-140.183-54.189c-115.107,0-208.419,93.312-208.419,208.419c0,53.98,20.522,103.166,54.189,140.183
				c23.272,7.821,48.161,12.123,74.069,12.123C344.308,448.387,448.387,344.308,448.387,215.919z"/>
			<path style="fill:#F6D190;" d="M448.387,296.081c0,84.117-68.19,152.306-152.306,152.306c-12.331,0-24.32-1.465-35.803-4.232
				C193.436,428.052,201,367.866,201,296.081C201,211.964,211.964,171,296.081,171c71.786,0,131.973,22.438,148.075,89.281
				C446.922,271.762,448.387,283.75,448.387,296.081z"/>
			<path style="fill:#ECBD83;" d="M444.156,260.281c-16.019-66.96-76.206-116.507-148.075-116.507
				c-84.117,0-152.306,68.19-152.306,152.306c0,71.869,49.543,132.053,116.504,148.072
				C352.838,426.138,426.141,352.841,444.156,260.281z"/>
			<circle style="fill:#F6D190;" cx="215.919" cy="215.919" r="208.419"/>
			<circle style="fill:#FFE09F;" cx="215.919" cy="215.919" r="152.306"/>
			<path style="fill:#ECBD83;" d="M231.952,408.306c-115.107,0-208.419-93.313-208.419-208.419
				c0-53.474,20.159-102.225,53.265-139.122C34.271,98.923,7.5,154.287,7.5,215.919c0,115.107,93.313,208.419,208.419,208.419
				c61.633,0,116.997-26.771,155.154-69.297C334.177,388.148,285.425,408.306,231.952,408.306z"/>
		</g>
	</g>
	<g>
		<path d="M178.444,380.603c-2.453-0.556-4.924-1.175-7.345-1.84c-3.994-1.099-8.122,1.251-9.219,5.245
			c-1.098,3.994,1.251,8.122,5.245,9.219c2.638,0.725,5.332,1.399,8.004,2.005c0.558,0.126,1.115,0.187,1.664,0.187
			c3.426,0,6.519-2.363,7.308-5.844C185.017,385.534,182.483,381.518,178.444,380.603z"/>
		<path d="M216.023,384.774h-0.104c-2.484,0-5.001-0.055-7.479-0.163c-4.138-0.179-7.639,3.027-7.819,7.166
			c-0.181,4.138,3.028,7.639,7.166,7.819c2.695,0.118,5.431,0.177,8.132,0.177h0.104c4.142,0,7.5-3.358,7.5-7.5
			S220.165,384.774,216.023,384.774z"/>
		<path d="M110.736,348.02c-1.971-1.572-3.929-3.206-5.821-4.858c-3.119-2.724-7.857-2.404-10.583,0.716
			c-2.725,3.12-2.404,7.858,0.716,10.583c2.059,1.797,4.19,3.576,6.334,5.287c1.381,1.102,3.032,1.637,4.671,1.637
			c2.204,0,4.388-0.967,5.869-2.824C114.506,355.322,113.974,350.603,110.736,348.02z"/>
		<path d="M142.757,368.146c-2.263-1.09-4.538-2.249-6.76-3.445c-3.647-1.963-8.195-0.598-10.159,3.049s-0.598,8.196,3.049,10.159
			c2.419,1.303,4.896,2.565,7.362,3.752c1.049,0.505,2.157,0.745,3.249,0.745c2.791,0,5.471-1.565,6.763-4.248
			C148.058,374.425,146.489,369.943,142.757,368.146z"/>
		<path d="M253.591,380.558c-2.453,0.559-4.95,1.069-7.42,1.515c-4.076,0.737-6.783,4.638-6.046,8.714
			c0.655,3.625,3.813,6.167,7.372,6.167c0.442,0,0.892-0.04,1.343-0.121c2.691-0.486,5.412-1.042,8.084-1.651
			c4.039-0.92,6.567-4.94,5.646-8.979C261.65,382.166,257.627,379.636,253.591,380.558z"/>
		<path d="M176.373,51.516c0.555,0,1.118-0.062,1.681-0.191c2.452-0.562,4.948-1.074,7.418-1.523
			c4.075-0.741,6.778-4.646,6.037-8.721s-4.645-6.777-8.721-6.037c-2.691,0.49-5.411,1.048-8.082,1.66
			c-4.038,0.925-6.561,4.947-5.636,8.985C169.865,49.163,172.954,51.516,176.373,51.516z"/>
		<path d="M139.157,64.606c1.097,0,2.21-0.241,3.263-0.751c2.256-1.093,4.57-2.149,6.875-3.141c3.805-1.636,5.564-6.047,3.928-9.853
			c-1.637-3.806-6.049-5.565-9.853-3.928c-2.511,1.08-5.03,2.23-7.487,3.42c-3.728,1.805-5.287,6.291-3.482,10.019
			C133.697,63.048,136.372,64.606,139.157,64.606z"/>
		<path d="M289.239,368.07c-2.262,1.092-4.576,2.146-6.877,3.132c-3.808,1.631-5.572,6.04-3.941,9.847
			c1.219,2.845,3.987,4.549,6.897,4.549c0.985,0,1.987-0.195,2.95-0.608c2.508-1.074,5.029-2.222,7.493-3.412
			c3.73-1.801,5.294-6.285,3.493-10.015C297.453,367.832,292.968,366.268,289.239,368.07z"/>
		<path d="M51.303,253.688c-0.561-2.454-1.072-4.95-1.519-7.418c-0.739-4.076-4.643-6.775-8.718-6.042
			c-4.076,0.739-6.781,4.642-6.042,8.718c0.488,2.69,1.045,5.41,1.656,8.083c0.794,3.476,3.884,5.831,7.305,5.831
			c0.553,0,1.115-0.062,1.677-0.19C49.7,261.747,52.225,257.726,51.303,253.688z"/>
		<path d="M47.064,216.127v-0.208c0-2.451,0.053-4.934,0.159-7.38c0.178-4.138-3.033-7.637-7.171-7.815
			c-4.146-0.166-7.638,3.033-7.815,7.171c-0.114,2.66-0.172,5.36-0.172,8.024v0.208c0,4.142,3.358,7.5,7.5,7.5
			S47.064,220.269,47.064,216.127z"/>
		<path d="M42.246,184.204c0.557,0.126,1.112,0.186,1.66,0.186c3.427,0,6.522-2.365,7.309-5.849
			c0.554-2.452,1.171-4.923,1.835-7.347c1.095-3.995-1.257-8.121-5.251-9.215c-3.994-1.094-8.121,1.257-9.215,5.251
			c-0.724,2.641-1.396,5.334-2,8.005C35.67,179.276,38.206,183.291,42.246,184.204z"/>
		<path d="M302.763,53.829c-2.417-1.298-4.896-2.558-7.368-3.744c-3.734-1.792-8.214-0.219-10.007,3.516
			c-1.792,3.734-0.219,8.214,3.516,10.007c2.269,1.089,4.544,2.246,6.762,3.437c1.129,0.606,2.344,0.894,3.542,0.894
			c2.673,0,5.261-1.433,6.614-3.953C307.782,60.335,306.412,55.788,302.763,53.829z"/>
		<path d="M60.676,282.454c-1.634-3.808-6.044-5.567-9.85-3.936c-3.807,1.633-5.568,6.043-3.936,9.85
			c1.077,2.509,2.227,5.03,3.417,7.492c1.294,2.677,3.97,4.236,6.757,4.236c1.095,0,2.208-0.241,3.26-0.75
			c3.729-1.803,5.29-6.289,3.486-10.017C62.719,287.068,61.664,284.755,60.676,282.454z"/>
		<path d="M79.376,315.279c-2.44-3.347-7.133-4.083-10.479-1.64c-3.347,2.441-4.081,7.133-1.64,10.479
			c1.616,2.215,3.299,4.418,5.002,6.548c1.481,1.853,3.662,2.816,5.862,2.816c1.643,0,3.296-0.538,4.679-1.643
			c3.235-2.587,3.76-7.307,1.173-10.542C82.409,319.34,80.862,317.315,79.376,315.279z"/>
		<path d="M87.888,94.408c-3.122-2.723-7.86-2.399-10.582,0.723c-1.8,2.064-3.578,4.196-5.283,6.337
			c-2.581,3.24-2.046,7.958,1.194,10.539c1.381,1.1,3.03,1.634,4.667,1.634c2.206,0,4.391-0.969,5.872-2.828
			c1.567-1.968,3.2-3.927,4.854-5.824C91.333,101.868,91.01,97.13,87.888,94.408z"/>
		<path d="M53.641,146.356c1.048,0.504,2.154,0.743,3.244,0.743c2.792,0,5.474-1.567,6.765-4.252
			c1.09-2.267,2.248-4.542,3.441-6.761c1.961-3.648,0.594-8.196-3.055-10.157c-3.646-1.959-8.195-0.594-10.157,3.055
			c-1.299,2.417-2.561,4.895-3.748,7.365C48.336,140.08,49.908,144.562,53.641,146.356z"/>
		<path d="M389.556,247.839c-4.038-0.915-8.057,1.614-8.975,5.653c-0.557,2.455-1.178,4.925-1.844,7.343
			c-1.1,3.994,1.246,8.123,5.239,9.223c0.667,0.184,1.336,0.271,1.996,0.271c3.291,0,6.31-2.184,7.227-5.51
			c0.726-2.636,1.402-5.329,2.01-8.004C396.125,252.775,393.595,248.757,389.556,247.839z"/>
		<path d="M371.249,306.99c2.668,0,5.252-1.428,6.607-3.941c1.299-2.409,2.563-4.886,3.757-7.361
			c1.799-3.731,0.233-8.214-3.498-10.013c-3.732-1.8-8.214-0.234-10.013,3.498c-1.096,2.272-2.256,4.546-3.449,6.757
			c-1.966,3.646-0.605,8.195,3.041,10.161C368.828,306.7,370.046,306.99,371.249,306.99z"/>
		<path d="M392.248,208.005c-4.142,0.015-7.488,3.384-7.474,7.526l0,0.388c0,2.518-0.056,5.067-0.167,7.579
			c-0.183,4.138,3.024,7.641,7.162,7.823c0.113,0.005,0.225,0.007,0.336,0.007c3.99,0,7.31-3.144,7.487-7.169
			c0.121-2.731,0.182-5.503,0.182-8.24l0-0.44c-0.015-4.133-3.37-7.474-7.5-7.474C392.266,208.005,392.256,208.005,392.248,208.005z
			"/>
		<path d="M371.085,149.205c1.222,2.837,3.987,4.535,6.892,4.535c0.99,0,1.997-0.197,2.963-0.614
			c3.804-1.639,5.56-6.051,3.921-9.855c-1.082-2.511-2.233-5.029-3.424-7.485c-1.808-3.728-6.295-5.285-10.021-3.476
			c-3.727,1.808-5.283,6.294-3.476,10.021C369.034,144.586,370.092,146.899,371.085,149.205z"/>
		<path d="M380.492,177.958c0.563,2.449,1.077,4.945,1.528,7.418c0.661,3.62,3.816,6.154,7.369,6.154
			c0.447,0,0.901-0.041,1.356-0.124c4.075-0.744,6.774-4.651,6.03-8.726c-0.492-2.694-1.052-5.412-1.665-8.08
			c-0.927-4.037-4.954-6.559-8.988-5.631C382.086,169.897,379.565,173.921,380.492,177.958z"/>
		<path d="M321.22,347.927c-1.963,1.567-3.989,3.113-6.022,4.594c-3.348,2.439-4.085,7.13-1.647,10.478
			c1.468,2.016,3.752,3.085,6.069,3.085c1.531,0,3.077-0.467,4.409-1.438c2.212-1.611,4.416-3.292,6.551-4.998
			c3.237-2.585,3.765-7.304,1.18-10.541C329.177,345.872,324.458,345.343,321.22,347.927z"/>
		<path d="M105.781,85.682c1.644,0,3.299-0.539,4.683-1.646c1.961-1.57,3.985-3.118,6.016-4.601
			c3.345-2.442,4.077-7.135,1.634-10.48s-7.134-4.077-10.48-1.634c-2.209,1.613-4.412,3.297-6.545,5.005
			c-3.234,2.589-3.756,7.309-1.168,10.542C101.403,84.719,103.582,85.682,105.781,85.682z"/>
		<path d="M336.626,77.235c-2.067-1.8-4.2-3.576-6.34-5.278c-3.242-2.579-7.96-2.042-10.539,1.2c-2.579,3.242-2.042,7.96,1.2,10.539
			c1.967,1.564,3.927,3.197,5.827,4.852c1.421,1.237,3.176,1.844,4.923,1.844c2.093,0,4.176-0.872,5.659-2.574
			C340.077,84.692,339.75,79.955,336.626,77.235z"/>
		<path d="M364.455,107.548c-1.615-2.21-3.301-4.412-5.01-6.544c-2.591-3.232-7.312-3.752-10.542-1.161
			c-3.232,2.591-3.751,7.311-1.161,10.542c1.57,1.959,3.119,3.982,4.603,6.013c1.469,2.01,3.749,3.075,6.061,3.075
			c1.536,0,3.085-0.47,4.419-1.445C366.169,115.585,366.899,110.893,364.455,107.548z"/>
		<path d="M253.202,51.192c2.452,0.553,4.924,1.168,7.348,1.832c0.662,0.181,1.327,0.267,1.982,0.267
			c3.297,0,6.319-2.191,7.23-5.524c1.092-3.996-1.261-8.12-5.257-9.212c-2.641-0.722-5.335-1.394-8.006-1.995
			c-4.042-0.914-8.055,1.627-8.965,5.668C246.623,46.268,249.161,50.282,253.202,51.192z"/>
		<path d="M215.608,47.064h0.311c2.425,0,4.875,0.052,7.281,0.154c0.108,0.005,0.216,0.007,0.323,0.007
			c3.996,0,7.317-3.152,7.488-7.182c0.176-4.138-3.037-7.636-7.175-7.811c-2.617-0.111-5.281-0.167-7.917-0.167h-0.311
			c-4.142,0-7.5,3.358-7.5,7.5S211.466,47.064,215.608,47.064z"/>
		<path d="M358.499,319.999c-3.237-2.585-7.957-2.055-10.541,1.182c-1.569,1.966-3.205,3.923-4.861,5.818
			c-2.727,3.119-2.408,7.856,0.71,10.583c1.422,1.244,3.181,1.854,4.933,1.854c2.088,0,4.167-0.868,5.65-2.564
			c1.802-2.062,3.582-4.192,5.29-6.332C362.265,327.303,361.736,322.583,358.499,319.999z"/>
		<path d="M481.909,186.067c-19.022-32.064-46.151-58.799-78.47-77.356c-9.427-16.428-21.088-31.716-34.842-45.47
			C327.815,22.459,273.593,0,215.919,0S104.023,22.459,63.242,63.241C22.459,104.023,0,158.245,0,215.919
			c0,57.674,22.459,111.896,63.242,152.678c13.756,13.756,29.045,25.418,45.476,34.845c18.536,32.281,45.226,59.385,77.245,78.405
			C219.171,501.573,257.249,512,296.081,512c57.674,0,111.896-22.459,152.678-63.241S512,353.755,512,296.081
			C512,257.292,501.595,219.25,481.909,186.067z M296.081,497c-36.137,0-71.566-9.699-102.458-28.049
			c-22.83-13.561-42.742-31.543-58.571-52.717c25.358,10.234,52.698,15.605,80.867,15.605c51.472,0,101.35-18.463,140.446-51.989
			c3.144-2.696,3.507-7.431,0.811-10.576c-2.696-3.145-7.431-3.507-10.576-0.811c-36.379,31.196-82.789,48.376-130.681,48.376
			C105.132,416.839,15,326.707,15,215.919S105.132,15,215.919,15s200.919,90.132,200.919,200.919
			c0,47.892-17.18,94.302-48.376,130.681c-2.696,3.145-2.333,7.879,0.811,10.576c3.144,2.696,7.879,2.333,10.576-0.811
			c33.526-39.096,51.989-88.974,51.989-140.446c0-11.455-0.901-22.771-2.64-33.875c0.338-0.225,0.666-0.474,0.972-0.76
			c3.028-2.826,3.193-7.572,0.367-10.6c-1.453-1.557-2.952-3.092-4.462-4.602c-2.494-10.607-5.784-20.972-9.841-31.026
			c21.203,15.852,39.208,35.797,52.774,58.665C487.321,224.588,497,259.984,497,296.081C497,406.868,406.868,497,296.081,497z"/>
		<path d="M203.398,437.249c-2.123-1.396-4.243-2.861-6.302-4.354c-3.353-2.431-8.043-1.682-10.474,1.671
			c-2.431,3.354-1.683,8.043,1.671,10.474c2.241,1.625,4.549,3.219,6.861,4.74c1.27,0.835,2.701,1.235,4.115,1.235
			c2.439,0,4.832-1.188,6.272-3.379C207.818,444.176,206.858,439.526,203.398,437.249z"/>
		<path d="M274.611,463.584c-2.527-0.32-5.076-0.703-7.576-1.136c-4.082-0.71-7.963,2.027-8.671,6.108
			c-0.708,4.081,2.027,7.963,6.108,8.671c2.723,0.472,5.5,0.889,8.252,1.238c0.32,0.041,0.638,0.061,0.953,0.061
			c3.722,0,6.951-2.769,7.431-6.558C281.629,467.859,278.72,464.105,274.611,463.584z"/>
		<path d="M237.495,454.498c-2.381-0.881-4.776-1.83-7.119-2.82c-3.814-1.614-8.216,0.171-9.829,3.986s0.171,8.216,3.986,9.829
			c2.553,1.08,5.163,2.113,7.757,3.073c0.858,0.317,1.737,0.468,2.601,0.468c3.049,0,5.916-1.874,7.035-4.9
			C243.364,460.249,241.38,455.935,237.495,454.498z"/>
		<path d="M414.764,416.19c-1.812,1.79-3.685,3.56-5.567,5.259c-3.075,2.775-3.317,7.518-0.541,10.593
			c1.481,1.64,3.521,2.474,5.569,2.474c1.791,0,3.589-0.638,5.023-1.933c2.049-1.85,4.087-3.775,6.059-5.723
			c2.946-2.912,2.975-7.66,0.063-10.606C422.458,413.307,417.71,413.278,414.764,416.19z"/>
		<path d="M449.107,384.119c-3.497-2.219-8.131-1.184-10.351,2.313c-1.362,2.146-2.793,4.291-4.253,6.377
			c-2.375,3.394-1.55,8.07,1.843,10.445c1.309,0.917,2.81,1.356,4.295,1.356c2.364,0,4.691-1.115,6.15-3.199
			c1.59-2.271,3.147-4.606,4.629-6.942C453.64,390.973,452.604,386.338,449.107,384.119z"/>
		<path d="M442.329,211.622c1.391,2.402,3.909,3.744,6.498,3.744c1.275,0,2.567-0.326,3.75-1.01
			c3.585-2.075,4.809-6.664,2.734-10.249c-1.385-2.393-2.846-4.789-4.34-7.12c-2.236-3.487-6.876-4.501-10.362-2.266
			c-3.487,2.236-4.501,6.875-2.266,10.362C439.716,207.224,441.057,209.424,442.329,211.622z"/>
		<path d="M472.188,308.167c-4.115-0.458-7.823,2.515-8.277,6.632c-0.279,2.527-0.619,5.081-1.012,7.59
			c-0.64,4.092,2.159,7.929,6.251,8.569c0.393,0.061,0.783,0.091,1.168,0.091c3.631,0,6.822-2.643,7.401-6.342
			c0.427-2.731,0.797-5.511,1.101-8.263C479.274,312.326,476.305,308.621,472.188,308.167z"/>
		<path d="M465.004,347.452c-3.91-1.372-8.188,0.685-9.562,4.592c-0.843,2.401-1.753,4.816-2.707,7.179
			c-1.55,3.841,0.307,8.211,4.148,9.762c0.919,0.371,1.87,0.547,2.804,0.547c2.968,0,5.778-1.774,6.958-4.695
			c1.039-2.575,2.031-5.207,2.95-7.822C470.968,353.104,468.912,348.824,465.004,347.452z"/>
		<path d="M470.416,268.269c-4.115,0.473-7.067,4.193-6.594,8.308c0.29,2.525,0.526,5.09,0.702,7.622
			c0.274,3.956,3.568,6.982,7.474,6.982c0.174,0,0.35-0.006,0.526-0.019c4.132-0.286,7.25-3.868,6.963-8
			c-0.191-2.757-0.448-5.549-0.765-8.298C478.25,270.747,474.523,267.797,470.416,268.269z"/>
		<path d="M455.181,239.375c0.853,2.393,1.662,4.837,2.404,7.266c0.987,3.23,3.958,5.31,7.17,5.31c0.726,0,1.464-0.106,2.195-0.33
			c3.961-1.21,6.191-5.403,4.98-9.365c-0.809-2.647-1.69-5.311-2.62-7.918c-1.392-3.902-5.684-5.938-9.583-4.546
			C455.825,231.183,453.79,235.473,455.181,239.375z"/>
		<path d="M350.188,456.083c-2.41,0.815-4.868,1.583-7.305,2.285c-3.98,1.146-6.279,5.301-5.133,9.282
			c0.946,3.288,3.945,5.428,7.204,5.428c0.686,0,1.385-0.095,2.078-0.294c2.656-0.764,5.333-1.602,7.96-2.49
			c3.924-1.327,6.03-5.583,4.703-9.507C358.369,456.861,354.111,454.756,350.188,456.083z"/>
		<path d="M312.848,464.114c-2.531,0.25-5.1,0.444-7.636,0.579c-4.136,0.22-7.312,3.751-7.091,7.887
			c0.212,4.001,3.523,7.102,7.483,7.102c0.134,0,0.269-0.003,0.404-0.011c2.76-0.146,5.557-0.358,8.311-0.63
			c4.122-0.406,7.135-4.077,6.729-8.199C320.641,466.72,316.967,463.705,312.848,464.114z"/>
		<path d="M384.731,439.821c-2.16,1.335-4.379,2.638-6.593,3.872c-3.618,2.016-4.917,6.583-2.901,10.202
			c1.372,2.463,3.926,3.851,6.559,3.851c1.235,0,2.488-0.306,3.644-0.95c2.412-1.344,4.827-2.762,7.18-4.217
			c3.523-2.178,4.614-6.8,2.436-10.323C392.876,438.734,388.256,437.642,384.731,439.821z"/>
		<path d="M228.879,112.226c-47.631,0-87.636,34.283-98.006,80.162h-27.18c-4.142,0-7.5,3.358-7.5,7.5s3.358,7.5,7.5,7.5h24.908
			c-0.223,2.815-0.343,5.659-0.343,8.532c0,2.846,0.115,5.697,0.34,8.532h-24.905c-4.142,0-7.5,3.358-7.5,7.5s3.358,7.5,7.5,7.5
			h33.278c0.022,0,0.043,0.003,0.065,0.003c0.012,0,0.024-0.003,0.036-0.003h94.879c4.142,0,7.5-3.358,7.5-7.5s-3.358-7.5-7.5-7.5
			h-88.287c-0.26-2.831-0.407-5.682-0.407-8.532c0-2.878,0.138-5.723,0.398-8.532h88.295c4.142,0,7.5-3.358,7.5-7.5
			s-3.358-7.5-7.5-7.5h-85.628c9.979-37.521,43.207-65.162,82.556-65.162c23.495,0,45.41,9.663,61.707,27.208
			c2.818,3.035,7.564,3.21,10.599,0.391c3.035-2.819,3.21-7.564,0.391-10.599C282.409,123.59,256.591,112.226,228.879,112.226z"/>
		<path d="M290.579,277.412c-16.296,17.541-38.208,27.201-61.7,27.201c-30.428,0-58.828-16.958-74.117-44.257
			c-2.024-3.615-6.594-4.904-10.208-2.879c-3.614,2.024-4.903,6.594-2.878,10.208c17.938,32.03,51.353,51.928,87.204,51.928
			c27.708,0,53.524-11.362,72.689-31.992c2.819-3.035,2.645-7.78-0.39-10.599S293.399,274.377,290.579,277.412z"/>
	</g>
</g>
<g>
</g>
<g>
</g>
<g>
</g>
<g>
</g>
<g>
</g>
<g>
</g>
<g>
</g>
<g>
</g>
<g>
</g>
<g>
</g>
<g>
</g>
<g>
</g>
<g>
</g>
<g>
</g>
<g>
</g>
</svg>
