<?xml version="1.0" encoding="iso-8859-1"?>
<!-- Generator: Adobe Illustrator 22.0.0, SVG Export Plug-In . SVG Version: 6.00 Build 0)  -->
<svg version="1.1" id="Capa_1" xmlns="http://www.w3.org/2000/svg" xmlns:xlink="http://www.w3.org/1999/xlink" x="0px" y="0px"
	 viewBox="0 0 512 512" style="enable-background:new 0 0 512 512;" xml:space="preserve">
<g>
	<g>
		<rect x="31.548" y="296.081" style="fill:#ECEAEC;" width="48.097" height="96.194"/>
		<rect x="31.548" y="296.081" style="fill:#DAD8DB;" width="24.048" height="32.065"/>
		<rect x="39.565" y="328.145" style="fill:#FF9A9F;" width="40.081" height="48.097"/>
		<rect x="111.71" y="328.145" style="fill:#ECEAEC;" width="48.097" height="64.129"/>
		<rect x="191.871" y="215.919" style="fill:#ECEAEC;" width="48.097" height="176.355"/>
		<rect x="199.887" y="264.016" style="fill:#F6D190;" width="40.081" height="120.242"/>
		<path style="fill:#ECBD83;" d="M215.919,352.194v-88.177h-24.048v128.258h48.097v-24.048h-8.016
			C223.097,368.226,215.919,361.048,215.919,352.194z"/>
		<rect x="272.032" y="119.726" style="fill:#ECEAEC;" width="48.097" height="272.548"/>
		<rect x="280.048" y="231.952" style="fill:#FFE09F;" width="40.081" height="152.306"/>
		<path style="fill:#F6D190;" d="M296.081,352.194V231.952h-24.048v160.323h48.097v-24.048h-8.016
			C303.259,368.226,296.081,361.048,296.081,352.194z"/>
		<rect x="352.194" y="151.79" style="fill:#ECEAEC;" width="48.097" height="240.484"/>
		<rect x="360.21" y="264.016" style="fill:#F6D190;" width="40.081" height="120.242"/>
		<path style="fill:#ECBD83;" d="M376.242,352.194v-88.177h-24.048v128.258h48.097v-24.048h-8.016
			C383.42,368.226,376.242,361.048,376.242,352.194z"/>
		<rect x="432.355" y="39.565" style="fill:#ECEAEC;" width="48.097" height="352.71"/>
		<circle style="fill:#ECEAEC;" cx="55.597" cy="448.387" r="24.048"/>
		<circle style="fill:#DAD8DB;" cx="135.758" cy="448.387" r="24.048"/>
		<circle style="fill:#ECBD83;" cx="215.919" cy="448.387" r="24.048"/>
		<circle style="fill:#F9EAC7;" cx="456.403" cy="448.387" r="24.048"/>
		<rect x="440.371" y="151.79" style="fill:#DCDCA0;" width="40.081" height="232.468"/>
		<path style="fill:#B9CDA5;" d="M456.403,352.194V151.79h-24.048v240.484h48.097v-24.048h-8.016
			C463.581,368.226,456.403,361.048,456.403,352.194z"/>
		<circle style="fill:#F6D190;" cx="296.081" cy="448.387" r="24.048"/>
		<circle style="fill:#FFE09F;" cx="376.242" cy="448.387" r="24.048"/>
		<rect x="111.71" y="360.21" style="fill:#E5646E;" width="48.097" height="32.065"/>
		<rect x="111.71" y="328.145" style="fill:#DAD8DB;" width="24.048" height="32.065"/>
		<path style="fill:#FF8086;" d="M55.597,352.194v-24.048H31.548v64.129h48.097v-24.048h-8.016
			C62.775,368.226,55.597,361.048,55.597,352.194z"/>
		<rect x="191.871" y="215.919" style="fill:#DAD8DB;" width="24.048" height="48.097"/>
		<rect x="272.032" y="119.726" style="fill:#DAD8DB;" width="24.048" height="112.226"/>
		<rect x="352.194" y="151.79" style="fill:#DAD8DB;" width="24.048" height="112.226"/>
		<rect x="432.355" y="39.565" style="fill:#DAD8DB;" width="24.048" height="112.226"/>
		<path style="fill:#F4DBB3;" d="M468.594,460.244c-13.281,0-24.048-10.767-24.048-24.048c0-3.48,0.773-6.767,2.104-9.753
			c-8.411,3.746-14.294,12.143-14.294,21.945c0,13.282,10.767,24.048,24.048,24.048c9.801,0,18.2-5.884,21.946-14.295
			C475.362,459.47,472.074,460.244,468.594,460.244z"/>
		<path style="fill:#F6D190;" d="M388.432,460.244c-13.281,0-24.048-10.767-24.048-24.048c0-3.48,0.773-6.767,2.104-9.753
			c-8.411,3.746-14.294,12.143-14.294,21.945c0,13.282,10.767,24.048,24.048,24.048c9.801,0,18.2-5.884,21.946-14.295
			C395.201,459.47,391.913,460.244,388.432,460.244z"/>
		<path style="fill:#ECBD83;" d="M308.271,460.244c-13.281,0-24.048-10.767-24.048-24.048c0-3.48,0.773-6.767,2.104-9.753
			c-8.411,3.746-14.294,12.143-14.294,21.945c0,13.282,10.767,24.048,24.048,24.048c9.801,0,18.2-5.884,21.945-14.295
			C315.04,459.47,311.752,460.244,308.271,460.244z"/>
		<path style="fill:#E2A975;" d="M228.11,460.244c-13.281,0-24.048-10.767-24.048-24.048c0-3.48,0.773-6.767,2.104-9.753
			c-8.411,3.746-14.294,12.143-14.294,21.945c0,13.282,10.767,24.048,24.048,24.048c9.801,0,18.2-5.884,21.946-14.295
			C234.878,459.47,231.591,460.244,228.11,460.244z"/>
		<path style="fill:#C8C5C9;" d="M147.949,460.244c-13.281,0-24.048-10.767-24.048-24.048c0-3.48,0.773-6.767,2.104-9.753
			c-8.411,3.746-14.294,12.143-14.294,21.945c0,13.282,10.767,24.048,24.048,24.048c9.801,0,18.2-5.884,21.946-14.295
			C154.717,459.47,151.429,460.244,147.949,460.244z"/>
		<path style="fill:#DAD8DB;" d="M67.787,460.244c-13.281,0-24.048-10.767-24.048-24.048c0-3.48,0.773-6.767,2.104-9.753
			c-8.411,3.746-14.294,12.143-14.294,21.945c0,13.282,10.767,24.048,24.048,24.048c9.801,0,18.2-5.884,21.946-14.295
			C74.556,459.47,71.268,460.244,67.787,460.244z"/>
	</g>
	<g>
		<path d="M504.5,384.774h-16.548V39.564c0-4.142-3.358-7.5-7.5-7.5h-48.097c-4.142,0-7.5,3.358-7.5,7.5V167.82
			c0,4.142,3.358,7.5,7.5,7.5s7.5-3.358,7.5-7.5v-8.53h33.097v225.484h-33.097V199.89c0-4.142-3.358-7.5-7.5-7.5s-7.5,3.358-7.5,7.5
			v184.885h-17.064V151.791c0-4.142-3.358-7.5-7.5-7.5h-48.097c-4.142,0-7.5,3.358-7.5,7.5v232.984h-17.064V119.726
			c0-4.142-3.358-7.5-7.5-7.5h-48.097c-4.142,0-7.5,3.358-7.5,7.5v265.049h-17.064V215.919c0-4.142-3.358-7.5-7.5-7.5h-48.097
			c-4.142,0-7.5,3.358-7.5,7.5v64.128c0,4.142,3.358,7.5,7.5,7.5s7.5-3.358,7.5-7.5v-8.531h33.097v113.258h-33.097v-72.661
			c0-4.142-3.358-7.5-7.5-7.5s-7.5,3.358-7.5,7.5v72.661h-17.064v-56.629c0-4.142-3.358-7.5-7.5-7.5h-48.097
			c-4.142,0-7.5,3.358-7.5,7.5v56.629H87.145v-88.694c0-4.142-3.358-7.5-7.5-7.5H31.548c-4.142,0-7.5,3.358-7.5,7.5v88.694H7.5
			c-4.142,0-7.5,3.358-7.5,7.5s3.358,7.5,7.5,7.5h497c4.142,0,7.5-3.358,7.5-7.5S508.642,384.774,504.5,384.774z M439.855,144.291
			V47.064h33.097v97.226H439.855z M199.371,256.516v-33.097h33.097v33.097H199.371z M392.791,159.291v97.226h-33.097v-97.226
			H392.791z M359.693,271.516h33.097v113.258h-33.097V271.516z M312.629,127.226v97.226h-33.097v-97.226H312.629z M279.532,239.452
			h33.097v145.323h-33.097V239.452z M152.307,335.645v17.064h-33.097v-17.064H152.307z M119.209,367.709h33.097v17.065h-33.097
			V367.709z M72.145,303.581v17.064H39.048v-17.064H72.145z M39.048,335.645h33.097v49.129H39.048V335.645z"/>
		<path d="M55.597,416.839c-17.396,0-31.548,14.152-31.548,31.548s14.152,31.548,31.548,31.548s31.548-14.152,31.548-31.548
			S72.993,416.839,55.597,416.839z M55.597,464.936c-9.125,0-16.548-7.423-16.548-16.548s7.423-16.548,16.548-16.548
			s16.548,7.423,16.548,16.548S64.722,464.936,55.597,464.936z"/>
		<path d="M135.758,416.839c-17.396,0-31.549,14.152-31.549,31.548s14.153,31.548,31.549,31.548s31.548-14.152,31.548-31.548
			S153.154,416.839,135.758,416.839z M135.758,464.936c-9.125,0-16.549-7.423-16.549-16.548s7.424-16.548,16.549-16.548
			s16.548,7.423,16.548,16.548S144.883,464.936,135.758,464.936z"/>
		<path d="M215.919,416.839c-17.396,0-31.548,14.152-31.548,31.548s14.152,31.548,31.548,31.548s31.548-14.152,31.548-31.548
			S233.315,416.839,215.919,416.839z M215.919,464.936c-9.125,0-16.548-7.423-16.548-16.548s7.423-16.548,16.548-16.548
			s16.548,7.423,16.548,16.548S225.044,464.936,215.919,464.936z"/>
		<path d="M296.081,416.839c-17.396,0-31.548,14.152-31.548,31.548s14.152,31.548,31.548,31.548s31.548-14.152,31.548-31.548
			S313.477,416.839,296.081,416.839z M296.081,464.936c-9.125,0-16.548-7.423-16.548-16.548s7.423-16.548,16.548-16.548
			s16.548,7.423,16.548,16.548S305.206,464.936,296.081,464.936z"/>
		<path d="M376.242,416.839c-17.396,0-31.548,14.152-31.548,31.548s14.152,31.548,31.548,31.548s31.549-14.152,31.549-31.548
			S393.638,416.839,376.242,416.839z M376.242,464.936c-9.125,0-16.548-7.423-16.548-16.548s7.423-16.548,16.548-16.548
			s16.549,7.423,16.549,16.548S385.367,464.936,376.242,464.936z"/>
		<path d="M456.403,416.839c-17.396,0-31.548,14.152-31.548,31.548s14.152,31.548,31.548,31.548s31.548-14.152,31.548-31.548
			S473.799,416.839,456.403,416.839z M456.403,464.936c-9.125,0-16.548-7.423-16.548-16.548s7.423-16.548,16.548-16.548
			s16.548,7.423,16.548,16.548S465.528,464.936,456.403,464.936z"/>
	</g>
</g>
<g>
</g>
<g>
</g>
<g>
</g>
<g>
</g>
<g>
</g>
<g>
</g>
<g>
</g>
<g>
</g>
<g>
</g>
<g>
</g>
<g>
</g>
<g>
</g>
<g>
</g>
<g>
</g>
<g>
</g>
</svg>
