<?xml version="1.0" encoding="iso-8859-1"?>
<!-- Generator: Adobe Illustrator 22.0.0, SVG Export Plug-In . SVG Version: 6.00 Build 0)  -->
<svg version="1.1" id="Capa_1" xmlns="http://www.w3.org/2000/svg" xmlns:xlink="http://www.w3.org/1999/xlink" x="0px" y="0px"
	 viewBox="0 0 512 512" style="enable-background:new 0 0 512 512;" xml:space="preserve">
<g>
	<g>
		<path style="fill:#ECEAEC;" d="M504.119,306.515c-0.646-8.218-7.748-14.443-15.991-14.443h-10.577
			c-2.596-10.97-6.923-21.245-12.682-30.569l7.493-7.493c5.829-5.829,6.448-15.253,1.094-21.521
			c-2.064-2.417-4.236-4.774-6.522-7.061c-2.287-2.287-4.644-4.458-7.061-6.523c-6.268-5.354-15.691-4.734-21.52,1.094l-7.493,7.493
			c-9.324-5.759-19.599-10.086-30.569-12.682v-10.577c0-8.243-6.226-15.344-14.444-15.991c-3.169-0.249-6.371-0.38-9.605-0.38
			s-6.436,0.131-9.605,0.38c-8.218,0.647-14.444,7.748-14.444,15.991v10.577c-10.97,2.596-21.245,6.923-30.569,12.682l-7.493-7.493
			c-5.829-5.829-15.253-6.448-21.52-1.094c-2.417,2.065-4.774,4.236-7.061,6.523c-2.287,2.287-4.458,4.644-6.522,7.061
			c-5.354,6.268-4.735,15.692,1.094,21.521l7.493,7.493c-5.759,9.324-10.086,19.599-12.682,30.569h-10.577
			c-8.243,0-15.344,6.225-15.991,14.443c-0.25,3.169-0.381,6.371-0.381,9.605c0,3.234,0.131,6.436,0.381,9.605
			c0.646,8.218,7.748,14.444,15.991,14.444h10.577c2.596,10.97,6.923,21.245,12.682,30.569l-7.493,7.493
			c-5.829,5.829-6.448,15.252-1.094,21.52c2.064,2.417,4.236,4.774,6.522,7.061c2.287,2.286,4.644,4.458,7.061,6.522
			c6.267,5.354,15.691,4.735,21.52-1.094l7.493-7.493c9.324,5.759,19.599,10.086,30.57,12.682v10.577
			c0,8.243,6.226,15.345,14.444,15.991c3.169,0.249,6.371,0.381,9.605,0.381s6.436-0.132,9.605-0.381
			c8.218-0.646,14.444-7.748,14.444-15.991v-10.577c10.971-2.596,21.245-6.923,30.57-12.682l7.493,7.493
			c5.829,5.829,15.253,6.449,21.52,1.094c2.417-2.065,4.774-4.236,7.061-6.522c2.287-2.287,4.458-4.644,6.522-7.061
			c5.354-6.268,4.735-15.692-1.094-21.52l-7.493-7.493c5.759-9.324,10.086-19.599,12.682-30.569h10.577
			c8.243,0,15.344-6.226,15.991-14.444c0.25-3.169,0.381-6.371,0.381-9.605C504.5,312.886,504.369,309.684,504.119,306.515z"/>
		<path style="fill:#DAD8DB;" d="M472.363,378.231l-7.493-7.493c-17.375,13.773-39.004,21.536-62.898,21.536
			c-56.268,0-101.883-45.615-101.883-101.883c0-23.894,7.762-45.523,21.536-62.898l-7.493-7.493
			c-5.829-5.829-15.253-6.448-21.52-1.094c-2.417,2.065-4.774,4.236-7.061,6.523c-2.287,2.287-4.458,4.644-6.522,7.061
			c-5.354,6.268-4.735,15.692,1.094,21.521l7.493,7.493c-5.759,9.324-10.086,19.599-12.682,30.569h-10.577
			c-8.243,0-15.344,6.225-15.991,14.443c-0.25,3.169-0.381,6.371-0.381,9.605c0,3.234,0.131,6.436,0.381,9.605
			c0.646,8.218,7.748,14.444,15.991,14.444h10.577c2.596,10.97,6.923,21.245,12.682,30.569l-7.493,7.493
			c-5.829,5.829-6.448,15.252-1.094,21.52c2.064,2.417,4.236,4.774,6.522,7.061c2.287,2.286,4.644,4.458,7.061,6.522
			c6.267,5.354,15.691,4.735,21.52-1.094l7.493-7.493c9.324,5.759,19.599,10.086,30.57,12.682v10.577
			c0,8.243,6.226,15.345,14.444,15.991c3.169,0.249,6.371,0.381,9.605,0.381s6.436-0.132,9.605-0.381
			c8.218-0.646,14.444-7.748,14.444-15.991v-10.577c10.971-2.596,21.245-6.923,30.57-12.682l7.493,7.493
			c5.829,5.829,15.253,6.449,21.52,1.094c2.417-2.065,4.774-4.236,7.061-6.522c2.287-2.287,4.458-4.644,6.522-7.061
			C478.811,393.483,478.191,384.059,472.363,378.231z"/>
		<path style="fill:#FFE09F;" d="M263.635,162.224c-0.646-8.218-7.748-14.443-15.991-14.443h-10.577
			c-2.596-10.97-6.923-21.245-12.682-30.569l7.493-7.493c5.829-5.829,6.448-15.253,1.094-21.521
			c-2.064-2.417-4.236-4.774-6.522-7.061c-2.287-2.287-4.644-4.458-7.061-6.523c-6.267-5.354-15.691-4.734-21.52,1.094l-7.493,7.493
			c-9.324-5.759-19.599-10.086-30.569-12.682V59.943c0-8.243-6.226-15.344-14.444-15.991c-3.169-0.249-6.371-0.38-9.605-0.38
			c-3.234,0-6.436,0.131-9.605,0.38c-8.218,0.647-14.444,7.748-14.444,15.991V70.52c-10.97,2.596-21.245,6.923-30.569,12.682
			l-7.493-7.493c-5.829-5.829-15.253-6.448-21.52-1.094c-2.417,2.065-4.774,4.236-7.061,6.523c-2.287,2.287-4.458,4.644-6.522,7.061
			c-5.354,6.268-4.735,15.692,1.094,21.521l7.493,7.493c-5.759,9.324-10.086,19.599-12.682,30.569H23.871
			c-8.243,0-15.344,6.225-15.991,14.443c-0.25,3.169-0.381,6.371-0.381,9.605c0,3.234,0.131,6.436,0.381,9.605
			c0.646,8.218,7.748,14.444,15.991,14.444h10.577c2.596,10.97,6.923,21.245,12.682,30.569l-7.493,7.493
			c-5.829,5.829-6.448,15.252-1.094,21.52c2.064,2.417,4.236,4.774,6.522,7.061c2.287,2.286,4.644,4.458,7.061,6.522
			c6.267,5.354,15.691,4.735,21.52-1.094l7.493-7.493c9.324,5.759,19.599,10.086,30.57,12.682v10.577
			c0,8.243,6.226,15.345,14.444,15.991c3.169,0.249,6.371,0.381,9.605,0.381c3.234,0,6.436-0.132,9.605-0.381
			c8.218-0.646,14.444-7.748,14.444-15.991v-10.577c10.971-2.596,21.245-6.923,30.57-12.682l7.493,7.493
			c5.829,5.829,15.253,6.449,21.52,1.094c2.417-2.065,4.774-4.236,7.061-6.522c2.287-2.287,4.458-4.644,6.522-7.061
			c5.354-6.268,4.735-15.692-1.094-21.52l-7.493-7.493c5.759-9.324,10.086-19.599,12.682-30.569h10.577
			c8.243,0,15.344-6.226,15.991-14.444c0.25-3.169,0.381-6.371,0.381-9.605C264.016,168.596,263.885,165.394,263.635,162.224z
			 M135.758,243.975c-39.845,0-72.145-32.301-72.145-72.145c0-39.845,32.3-72.145,72.145-72.145s72.145,32.3,72.145,72.145
			C207.903,211.674,175.603,243.975,135.758,243.975z"/>
		<circle style="fill:#857E87;" cx="376.242" cy="316.12" r="16.032"/>
		<path style="fill:#F6D190;" d="M135.758,243.975c-39.845,0-72.145-32.301-72.145-72.145c0-25.504,13.269-47.866,33.244-60.696
			L79.645,83.652v-1.945l-5.998-5.998c-5.828-5.829-15.252-6.448-21.52-1.094c-2.417,2.065-4.774,4.236-7.061,6.523
			c-2.287,2.287-4.458,4.644-6.523,7.061c-5.354,6.268-4.734,15.692,1.094,21.521l7.494,7.493
			c-5.76,9.324-10.086,19.599-12.682,30.569H23.871c-8.242,0-15.343,6.225-15.99,14.443c-0.25,3.169-0.381,6.371-0.381,9.605
			c0,3.234,0.131,6.436,0.381,9.605c0.647,8.218,7.748,14.444,15.99,14.444h10.578c2.596,10.97,6.922,21.245,12.682,30.569
			l-7.494,7.493c-5.828,5.829-6.448,15.252-1.094,21.52c2.065,2.417,4.236,4.774,6.523,7.061c2.287,2.286,4.644,4.458,7.061,6.522
			c6.267,5.354,15.692,4.735,21.52-1.094l7.494-7.493c9.323,5.759,19.598,10.086,30.569,12.682v10.577
			c0,8.243,6.225,15.345,14.443,15.991c3.169,0.249,6.371,0.381,9.605,0.381c3.234,0,6.436-0.132,9.605-0.381
			c8.218-0.646,14.443-7.748,14.443-15.991v-10.577c10.971-2.596,21.246-6.923,30.569-12.682l-17.003-27.15
			C162.41,240.03,149.56,243.975,135.758,243.975z"/>
		<path style="fill:#C8C5C9;" d="M167.823,340.168c-30.99,0-56.113,25.122-56.113,56.113c0,30.99,25.123,56.113,56.113,56.113
			s56.113-25.123,56.113-56.113C223.935,365.291,198.813,340.168,167.823,340.168z M167.823,420.33
			c-13.282,0-24.048-10.767-24.048-24.048s10.767-24.048,24.048-24.048c13.282,0,24.048,10.767,24.048,24.048
			S181.104,420.33,167.823,420.33z"/>
	</g>
	<g>
		<path d="M104.209,283.716c0,12.218,9.38,22.526,21.356,23.468c3.411,0.268,6.84,0.404,10.192,0.404s6.781-0.136,10.193-0.404
			c11.975-0.942,21.355-11.25,21.355-23.468v-4.81c7.579-2.231,14.892-5.265,21.847-9.065l3.412,3.412
			c8.64,8.641,22.563,9.295,31.695,1.494c2.596-2.217,5.117-4.546,7.493-6.922c2.377-2.377,4.706-4.898,6.922-7.493
			c7.802-9.134,7.146-23.056-1.493-31.695l-3.413-3.413c3.8-6.955,6.834-14.268,9.065-21.847h4.811
			c12.218,0,22.526-9.38,23.467-21.354c0.268-3.405,0.404-6.834,0.404-10.194c0-3.358-0.136-6.788-0.404-10.193
			c-0.941-11.975-11.25-21.355-23.467-21.355h-4.811c-2.231-7.579-5.265-14.891-9.065-21.847l3.413-3.413
			c8.639-8.64,9.294-22.562,1.494-31.694c-2.217-2.595-4.546-5.117-6.923-7.494c-2.376-2.376-4.898-4.706-7.493-6.922
			c-9.134-7.801-23.055-7.145-31.695,1.494l-3.412,3.413c-6.955-3.8-14.268-6.834-21.846-9.065v-4.811
			c0-12.217-9.38-22.525-21.356-23.468c-6.805-0.535-13.579-0.534-20.386,0c-11.975,0.943-21.355,11.251-21.355,23.468v4.811
			c-7.579,2.23-14.891,5.265-21.846,9.065l-3.413-3.413c-8.64-8.638-22.562-9.296-31.694-1.494
			c-2.596,2.217-5.117,4.546-7.494,6.922c-2.377,2.377-4.706,4.898-6.922,7.493c-7.802,9.133-7.146,23.056,1.493,31.695l3.413,3.413
			c-3.8,6.956-6.834,14.268-9.065,21.847h-4.811c-12.218,0-22.526,9.38-23.467,21.354C0.136,165.041,0,168.471,0,171.829
			c0,3.359,0.136,6.789,0.404,10.193c0.941,11.975,11.25,21.355,23.467,21.355h4.811c2.231,7.579,5.265,14.892,9.065,21.847
			l-3.413,3.413c-8.639,8.639-9.295,22.561-1.494,31.694c2.217,2.595,4.546,5.117,6.923,7.494c2.376,2.375,4.897,4.704,7.492,6.921
			c9.134,7.801,23.055,7.146,31.695-1.494l3.412-3.412c6.955,3.8,14.268,6.834,21.847,9.065V283.716z M85.081,254.076
			c-1.218-0.752-2.583-1.119-3.939-1.119c-1.938,0-3.859,0.75-5.306,2.197l-7.492,7.493c-3.142,3.141-8.125,3.445-11.346,0.695
			c-2.299-1.964-4.529-4.024-6.629-6.123c-2.1-2.1-4.16-4.33-6.123-6.629c-2.751-3.221-2.446-8.205,0.694-11.346l7.493-7.493
			c2.459-2.459,2.905-6.286,1.078-9.245c-5.436-8.802-9.395-18.342-11.764-28.355c-0.801-3.383-3.822-5.773-7.298-5.773H23.871
			c-4.442,0-8.181-3.308-8.513-7.532c-0.237-3.015-0.358-6.048-0.358-9.016c0-2.968,0.121-6.001,0.358-9.017
			c0.332-4.223,4.071-7.531,8.513-7.531h10.578c3.477,0,6.498-2.39,7.298-5.773c2.37-10.013,6.328-19.553,11.764-28.355
			c1.828-2.958,1.381-6.785-1.078-9.244l-7.493-7.493c-3.141-3.141-3.446-8.125-0.694-11.347c1.962-2.298,4.022-4.528,6.122-6.628
			c2.1-2.1,4.33-4.16,6.629-6.123c3.221-2.751,8.205-2.446,11.346,0.695l7.493,7.493c2.46,2.459,6.287,2.906,9.245,1.078
			c8.802-5.437,18.342-9.395,28.355-11.764c3.383-0.8,5.773-3.821,5.773-7.298V59.943c0-4.442,3.309-8.182,7.531-8.514
			c6.026-0.474,12.01-0.474,18.033,0c4.224,0.333,7.533,4.072,7.533,8.514V70.52c0,3.477,2.39,6.498,5.773,7.298
			c10.013,2.369,19.553,6.327,28.355,11.764c2.958,1.829,6.786,1.381,9.245-1.078l7.492-7.493c3.141-3.142,8.125-3.447,11.347-0.694
			c2.298,1.962,4.529,4.022,6.628,6.122c2.1,2.1,4.16,4.33,6.123,6.629c2.751,3.221,2.446,8.205-0.694,11.346l-7.493,7.493
			c-2.459,2.459-2.905,6.286-1.078,9.244c5.437,8.803,9.395,18.343,11.764,28.355c0.801,3.383,3.822,5.773,7.298,5.773h10.578
			c4.442,0,8.181,3.308,8.513,7.531v0c0.238,3.016,0.358,6.049,0.358,9.017c0,2.968-0.12,6.001-0.358,9.017
			c-0.332,4.223-4.071,7.531-8.513,7.531h-10.578c-3.477,0-6.498,2.39-7.298,5.773c-2.37,10.013-6.328,19.553-11.764,28.355
			c-1.828,2.959-1.381,6.786,1.078,9.245l7.493,7.493c3.141,3.141,3.446,8.125,0.693,11.347c-1.962,2.298-4.022,4.528-6.122,6.628
			c-2.1,2.1-4.331,4.16-6.63,6.124c-3.22,2.751-8.204,2.446-11.346-0.695l-7.492-7.493c-2.459-2.458-6.287-2.906-9.245-1.078
			c-8.803,5.437-18.343,9.395-28.356,11.765c-3.383,0.801-5.773,3.822-5.773,7.298v10.577c0,4.442-3.309,8.182-7.531,8.514
			c-6.043,0.475-11.993,0.475-18.034,0c-4.224-0.332-7.532-4.072-7.532-8.514v-10.577c0-3.477-2.39-6.498-5.773-7.298
			C103.424,263.471,93.884,259.513,85.081,254.076z"/>
		<path d="M511.596,305.927c-0.941-11.975-11.25-21.355-23.467-21.355h-4.811c-2.231-7.579-5.265-14.892-9.065-21.847l3.413-3.413
			c8.639-8.64,9.294-22.562,1.494-31.695c-2.218-2.597-4.547-5.118-6.923-7.493c-2.375-2.375-4.896-4.704-7.493-6.922
			c-9.133-7.802-23.055-7.144-31.695,1.494l-3.413,3.413c-6.955-3.8-14.268-6.834-21.846-9.065v-4.81
			c0-12.218-9.38-22.526-21.356-23.468c-6.812-0.535-13.57-0.535-20.385,0c-11.975,0.942-21.355,11.25-21.355,23.468v4.81
			c-7.579,2.231-14.892,5.265-21.846,9.065l-3.413-3.413c-8.64-8.639-22.562-9.294-31.695-1.494
			c-2.597,2.218-5.118,4.547-7.493,6.922c-2.376,2.375-4.706,4.897-6.922,7.493c-7.802,9.133-7.146,23.056,1.493,31.695l3.413,3.413
			c-3.8,6.955-6.834,14.268-9.065,21.847h-4.811c-12.218,0-22.526,9.38-23.467,21.354c-0.268,3.405-0.404,6.835-0.404,10.194
			c0,3.359,0.136,6.789,0.404,10.192c0.941,11.975,11.25,21.356,23.467,21.356h4.811c2.231,7.579,5.265,14.891,9.065,21.847
			l-3.413,3.413c-8.639,8.639-9.295,22.561-1.494,31.694c2.22,2.599,4.549,5.121,6.923,7.494c2.376,2.376,4.898,4.706,7.493,6.922
			c9.134,7.803,23.057,7.147,31.696-1.494l3.412-3.412c6.956,3.801,14.268,6.834,21.847,9.065v4.81
			c0,12.218,9.38,22.526,21.356,23.468c3.406,0.268,6.835,0.403,10.192,0.403c3.357,0,6.786-0.136,10.193-0.403
			c11.975-0.942,21.355-11.25,21.355-23.468v-4.81c7.579-2.23,14.891-5.264,21.847-9.065l3.412,3.412
			c8.64,8.639,22.561,9.295,31.694,1.494c2.596-2.217,5.117-4.546,7.493-6.922c2.375-2.374,4.704-4.896,6.922-7.493
			c7.802-9.134,7.146-23.056-1.493-31.695l-3.413-3.413c3.8-6.956,6.834-14.268,9.065-21.847h4.811
			c12.218,0,22.526-9.381,23.467-21.355c0.268-3.405,0.404-6.834,0.404-10.193S511.864,309.332,511.596,305.927z M496.642,325.137
			c-0.332,4.224-4.071,7.532-8.513,7.532h-10.578c-3.477,0-6.498,2.39-7.298,5.773c-2.37,10.013-6.328,19.553-11.764,28.355
			c-1.828,2.958-1.381,6.785,1.078,9.244l7.493,7.493c3.141,3.141,3.446,8.125,0.693,11.346c-1.965,2.301-4.024,4.531-6.122,6.628
			c-2.1,2.1-4.33,4.16-6.629,6.123c-3.22,2.751-8.205,2.446-11.345-0.695l-7.492-7.493c-2.459-2.459-6.287-2.906-9.245-1.078
			c-8.803,5.437-18.343,9.395-28.355,11.764c-3.383,0.8-5.773,3.821-5.773,7.298v10.577c0,4.442-3.309,8.182-7.531,8.514
			c-6.035,0.475-12,0.475-18.034,0c-4.224-0.332-7.532-4.072-7.532-8.514v-10.577c0-3.477-2.39-6.498-5.773-7.298
			c-10.012-2.369-19.552-6.327-28.356-11.764c-1.218-0.752-2.583-1.119-3.938-1.119c-1.938,0-3.859,0.75-5.306,2.197l-7.492,7.493
			c-3.142,3.141-8.126,3.445-11.347,0.694c-2.298-1.963-4.529-4.023-6.629-6.123c-2.097-2.097-4.157-4.327-6.123-6.629
			c-2.751-3.221-2.446-8.204,0.694-11.345l7.493-7.493c2.459-2.459,2.905-6.286,1.078-9.244
			c-5.437-8.803-9.395-18.343-11.764-28.355c-0.801-3.383-3.822-5.773-7.298-5.773h-10.578c-4.442,0-8.181-3.308-8.513-7.533
			c-0.238-3.015-0.358-6.048-0.358-9.016s0.12-6.001,0.358-9.018c0.332-4.223,4.071-7.531,8.513-7.531h10.578
			c3.477,0,6.498-2.39,7.298-5.773c2.37-10.013,6.328-19.553,11.764-28.355c1.828-2.959,1.381-6.786-1.078-9.245l-7.493-7.493
			c-3.141-3.141-3.446-8.125-0.694-11.347c1.963-2.299,4.022-4.529,6.122-6.628c2.099-2.099,4.329-4.159,6.629-6.124
			c3.22-2.751,8.205-2.446,11.346,0.695l7.492,7.493c2.459,2.459,6.286,2.906,9.245,1.078c8.802-5.437,18.342-9.395,28.355-11.765
			c3.383-0.801,5.773-3.822,5.773-7.298v-10.577c0-4.442,3.309-8.182,7.531-8.514c6.036-0.475,12.001-0.475,18.034,0
			c4.224,0.332,7.532,4.072,7.532,8.514v10.577c0,3.477,2.39,6.498,5.773,7.298c10.013,2.37,19.553,6.328,28.355,11.765
			c2.958,1.828,6.785,1.382,9.245-1.078l7.492-7.493c3.142-3.142,8.125-3.447,11.346-0.696c2.3,1.964,4.53,4.025,6.629,6.124
			c2.099,2.099,4.159,4.329,6.123,6.628c2.751,3.222,2.446,8.206-0.694,11.347l-7.493,7.493c-2.459,2.459-2.905,6.286-1.078,9.245
			c5.437,8.802,9.395,18.342,11.764,28.355c0.801,3.383,3.822,5.773,7.298,5.773h10.578c4.442,0,8.181,3.308,8.513,7.531v0
			c0.237,3.016,0.358,6.049,0.358,9.017S496.879,322.121,496.642,325.137z"/>
		<path d="M447.079,280.702c-1.852-3.705-6.357-5.208-10.062-3.354l-44.191,22.095c-4.257-4.234-10.12-6.855-16.585-6.855
			c-3.757,0-7.309,0.89-10.463,2.462l-40.347-40.346c-2.929-2.929-7.678-2.929-10.606,0c-2.929,2.929-2.929,7.678,0,10.606
			l40.347,40.346c-1.573,3.154-2.463,6.706-2.463,10.463c0,12.976,10.557,23.532,23.532,23.532
			c12.976,0,23.533-10.557,23.533-23.532c0-1.108-0.083-2.198-0.232-3.266l44.182-22.091
			C447.43,288.911,448.932,284.406,447.079,280.702z M376.242,324.652c-4.705,0-8.532-3.828-8.532-8.532s3.828-8.532,8.532-8.532
			c4.705,0,8.533,3.828,8.533,8.532S380.947,324.652,376.242,324.652z"/>
		<path d="M376.242,251.474c4.142,0,7.5-3.358,7.5-7.5v-8.016c0-4.142-3.358-7.5-7.5-7.5s-7.5,3.358-7.5,7.5v8.016
			C368.742,248.117,372.1,251.474,376.242,251.474z"/>
		<path d="M376.242,380.765c-4.142,0-7.5,3.358-7.5,7.5v8.016c0,4.142,3.358,7.5,7.5,7.5s7.5-3.358,7.5-7.5v-8.016
			C383.742,384.123,380.384,380.765,376.242,380.765z"/>
		<path d="M456.403,308.62h-8.016c-4.142,0-7.5,3.358-7.5,7.5s3.358,7.5,7.5,7.5h8.016c4.142,0,7.5-3.358,7.5-7.5
			S460.545,308.62,456.403,308.62z"/>
		<path d="M304.097,308.62h-8.016c-4.142,0-7.5,3.358-7.5,7.5s3.358,7.5,7.5,7.5h8.016c4.142,0,7.5-3.358,7.5-7.5
			S308.239,308.62,304.097,308.62z"/>
		<path d="M191.871,388.781c-4.142,0-7.5,3.358-7.5,7.5c0,9.125-7.423,16.548-16.548,16.548s-16.548-7.423-16.548-16.548
			s7.423-16.548,16.548-16.548c4.142,0,7.5-3.358,7.5-7.5s-3.358-7.5-7.5-7.5c-17.396,0-31.548,14.152-31.548,31.548
			s14.152,31.548,31.548,31.548s31.548-14.152,31.548-31.548C199.371,392.139,196.013,388.781,191.871,388.781z"/>
		<path d="M239.968,388.781h-8.989c-1.408-11.93-6.128-22.853-13.216-31.833l6.378-6.378c2.929-2.929,2.929-7.678,0-10.606
			c-2.929-2.929-7.678-2.929-10.606,0l-6.378,6.378c-8.98-7.088-19.903-11.808-31.833-13.216v-8.989c0-4.142-3.358-7.5-7.5-7.5
			s-7.5,3.358-7.5,7.5v8.989c-11.93,1.408-22.853,6.128-31.833,13.216l-6.378-6.378c-2.929-2.929-7.678-2.929-10.606,0
			c-2.929,2.929-2.929,7.678,0,10.606l6.378,6.378c-7.088,8.98-11.808,19.903-13.216,31.833h-8.989c-4.142,0-7.5,3.358-7.5,7.5
			s3.358,7.5,7.5,7.5h8.989c1.408,11.93,6.128,22.853,13.216,31.833l-6.378,6.378c-2.929,2.929-2.929,7.678,0,10.606
			c1.464,1.464,3.384,2.197,5.303,2.197s3.839-0.732,5.303-2.197l6.378-6.378c8.98,7.088,19.903,11.808,31.833,13.216v8.989
			c0,4.142,3.358,7.5,7.5,7.5s7.5-3.358,7.5-7.5v-8.989c11.93-1.408,22.853-6.128,31.833-13.216l6.378,6.378
			c1.464,1.464,3.384,2.197,5.303,2.197s3.839-0.732,5.303-2.197c2.929-2.929,2.929-7.678,0-10.606l-6.378-6.378
			c7.088-8.98,11.808-19.903,13.216-31.833h8.989c4.142,0,7.5-3.358,7.5-7.5S244.11,388.781,239.968,388.781z M167.823,444.894
			c-26.806,0-48.613-21.808-48.613-48.613s21.808-48.613,48.613-48.613c26.805,0,48.613,21.808,48.613,48.613
			S194.628,444.894,167.823,444.894z"/>
		<path d="M215.403,171.829c0-14.962-4.243-29.607-12.271-42.352c-2.208-3.505-6.838-4.558-10.343-2.349
			c-3.505,2.208-4.557,6.838-2.349,10.343c6.518,10.348,9.963,22.229,9.963,34.358c0,33.107-25.022,60.466-57.145,64.196V218.72
			c13.953-2.606,24.048-12.365,24.048-24.345c0-19.53-18.209-25.853-29.088-29.63c-16.264-5.647-19.009-9.333-19.009-15.46
			c0-4.747,6.796-10.035,16.549-10.035c9.752,0,16.548,5.289,16.548,10.035c0,4.142,3.358,7.5,7.5,7.5s7.5-3.358,7.5-7.5
			c0-11.98-10.095-21.739-24.048-24.345v-17.305c9.489,1.12,18.656,4.347,26.858,9.514c3.506,2.208,8.136,1.156,10.343-2.349
			c2.208-3.505,1.156-8.136-2.349-10.343c-12.745-8.028-27.39-12.271-42.352-12.271c-43.917,0-79.646,35.729-79.646,79.645
			s35.729,79.645,79.646,79.645S215.403,215.746,215.403,171.829z M71.113,171.829c0-33.107,25.022-60.466,57.146-64.196v17.306
			c-13.954,2.606-24.049,12.365-24.049,24.345c0,19.531,18.209,25.853,29.088,29.63c16.264,5.647,19.009,9.334,19.009,15.46
			c0,4.747-6.796,10.035-16.548,10.035c-9.752,0-16.549-5.289-16.549-10.035c0-4.142-3.358-7.5-7.5-7.5s-7.5,3.358-7.5,7.5
			c0,11.98,10.095,21.739,24.049,24.345v17.306C96.135,232.295,71.113,204.937,71.113,171.829z"/>
	</g>
</g>
<g>
</g>
<g>
</g>
<g>
</g>
<g>
</g>
<g>
</g>
<g>
</g>
<g>
</g>
<g>
</g>
<g>
</g>
<g>
</g>
<g>
</g>
<g>
</g>
<g>
</g>
<g>
</g>
<g>
</g>
</svg>
