<?xml version="1.0" encoding="iso-8859-1"?>
<!-- Generator: Adobe Illustrator 22.0.0, SVG Export Plug-In . SVG Version: 6.00 Build 0)  -->
<svg version="1.1" id="Capa_1" xmlns="http://www.w3.org/2000/svg" xmlns:xlink="http://www.w3.org/1999/xlink" x="0px" y="0px"
	 viewBox="0 0 512 512" style="enable-background:new 0 0 512 512;" xml:space="preserve">
<g>
	<g>
		<path style="fill:#B9CDA5;" d="M469.426,243.529l-53.103-23.601l-37.35-80.925c-6.551-14.195-20.758-23.285-36.392-23.285H39.565
			c-8.854,0-16.032,7.178-16.032,16.032v216.435h464.935V272.83C488.468,260.158,481.005,248.675,469.426,243.529z"/>
		<path style="fill:#96B49B;" d="M23.532,316.121h24.048V115.718h-8.016h0c-8.854,0-16.032,7.178-16.032,16.032V316.121z"/>
		<path style="fill:#FF8086;" d="M55.597,276.04c0-13.282-10.767-24.048-24.048-24.048h-8.016v72.145h32.065V276.04z"/>
		<rect x="23.532" y="284.056" style="fill:#F6D190;" width="32.065" height="40.081"/>
		<rect x="143.774" y="323.595" style="fill:#96B49B;" width="248.5" height="24.59"/>
		<path style="fill:#DAD8DB;" d="M15.516,316.121c-4.427,0-8.016,3.589-8.016,8.016v16.032c0,4.427,3.589,8.016,8.016,8.016h72.145
			v-32.065H15.516z"/>
		<path style="fill:#DAD8DB;" d="M496.484,316.121c4.427,0,8.016,3.589,8.016,8.016v16.032c0,4.427-3.589,8.016-8.016,8.016h-72.145
			v-32.065H496.484z"/>
		<path style="fill:#DBEAFF;" d="M207.903,179.847h32.065c4.427,0,8.016-3.589,8.016-8.016v-16.032c0-4.427-3.589-8.016-8.016-8.016
			h-32.065c-4.427,0-8.016,3.589-8.016,8.016v16.032C199.887,176.258,203.476,179.847,207.903,179.847z"/>
		<circle style="fill:#6F6571;" cx="111.71" cy="348.185" r="48.097"/>
		<circle style="fill:#C8C5C9;" cx="111.71" cy="348.185" r="16.032"/>
		<circle style="fill:#6F6571;" cx="424.339" cy="348.185" r="48.097"/>
		<circle style="fill:#C8C5C9;" cx="424.339" cy="348.185" r="16.032"/>
		<path style="fill:#FFE09F;" d="M456.403,268.024c0,8.854,7.178,16.032,16.032,16.032h16.032V272.83
			c0-7.801-2.846-15.139-7.723-20.838h-8.31C463.581,251.992,456.403,259.17,456.403,268.024z"/>
		<path style="fill:#DBEAFF;" d="M296.081,147.782c-8.854,0-16.032,7.178-16.032,16.032v40.081c0,8.854,7.178,16.032,16.032,16.032
			h120.242l-33.297-72.145H296.081z"/>
	</g>
	<g>
		<path d="M111.709,324.653c-12.976,0-23.532,10.557-23.532,23.532s10.557,23.532,23.532,23.532s23.532-10.557,23.532-23.532
			S124.685,324.653,111.709,324.653z M111.709,356.718c-4.705,0-8.532-3.828-8.532-8.532s3.828-8.532,8.532-8.532
			s8.532,3.828,8.532,8.532S116.414,356.718,111.709,356.718z"/>
		<path d="M424.339,324.653c-12.976,0-23.532,10.557-23.532,23.532s10.557,23.532,23.532,23.532s23.532-10.557,23.532-23.532
			S437.314,324.653,424.339,324.653z M424.339,356.718c-4.705,0-8.532-3.828-8.532-8.532s3.828-8.532,8.532-8.532
			s8.532,3.828,8.532,8.532S429.043,356.718,424.339,356.718z"/>
		<path d="M496.484,308.621h-0.516V272.83c0-15.619-9.223-29.811-23.496-36.154l-50.522-22.455l-36.167-78.361
			c-7.75-16.792-24.707-27.642-43.201-27.642H39.564c-12.976,0-23.532,10.557-23.532,23.532v176.871h-0.516
			C6.96,308.621,0,315.582,0,324.137v16.032c0,8.556,6.96,15.516,15.516,15.516h41.117c3.675,27.12,26.965,48.097,55.077,48.097
			s51.402-20.977,55.077-48.097h202.475c3.675,27.12,26.966,48.097,55.077,48.097s51.401-20.977,55.077-48.097h17.068
			c8.556,0,15.516-6.96,15.516-15.516v-16.032C512,315.582,505.04,308.621,496.484,308.621z M472.436,259.492h4.589
			c2.521,3.898,3.943,8.507,3.943,13.337v3.727h-8.532c-4.705,0-8.532-3.828-8.532-8.532S467.731,259.492,472.436,259.492z
			 M378.226,155.282l26.375,57.145h-36.891v-57.145H378.226z M39.564,123.218h303.017c11.964,0,22.982,6.636,28.638,17.064h-35.056
			c-4.142,0-7.5,3.358-7.5,7.5s3.358,7.5,7.5,7.5h16.546v57.145h-56.629c-4.705,0-8.532-3.828-8.532-8.532v-40.081
			c0-4.705,3.828-8.532,8.532-8.532h8.015c4.142,0,7.5-3.358,7.5-7.5s-3.358-7.5-7.5-7.5h-8.015
			c-12.976,0-23.532,10.557-23.532,23.532v40.081c0,12.976,10.557,23.532,23.532,23.532h118.651l45.755,20.336
			c-6.926,4.1-11.584,11.645-11.584,20.261c0,12.976,10.557,23.532,23.532,23.532h8.532v17.064H463.35
			c-10.044-9.905-23.824-16.032-39.011-16.032c-28.112,0-51.402,20.977-55.077,48.097H166.787
			c-3.675-27.12-26.966-48.097-55.077-48.097c-15.188,0-28.967,6.127-39.011,16.032h-9.602v-32.581
			c0-17.396-14.152-31.549-31.548-31.549h-0.516V131.75C31.032,127.045,34.86,123.218,39.564,123.218z M31.032,259.492h0.516
			c9.125,0,16.548,7.424,16.548,16.549v0.516H31.032V259.492z M31.032,291.557h17.064v17.064H31.032V291.557z M15,340.169v-16.032
			c0-0.285,0.231-0.516,0.516-0.516h46.335c-2.609,5.273-4.398,11.015-5.218,17.064H15.516C15.231,340.686,15,340.454,15,340.169z
			 M111.709,388.782c-22.385,0-40.597-18.211-40.597-40.597s18.211-40.597,40.597-40.597s40.597,18.211,40.597,40.597
			S134.095,388.782,111.709,388.782z M424.339,388.782c-22.385,0-40.597-18.211-40.597-40.597s18.212-40.597,40.597-40.597
			s40.597,18.211,40.597,40.597S446.724,388.782,424.339,388.782z M497,340.169c0,0.285-0.231,0.516-0.516,0.516h-17.068
			c-0.82-6.049-2.61-11.792-5.218-17.064h22.286c0.285,0,0.516,0.231,0.516,0.516V340.169z"/>
		<path d="M183.855,259.492h240.484c4.142,0,7.5-3.358,7.5-7.5s-3.358-7.5-7.5-7.5H183.855c-4.142,0-7.5,3.358-7.5,7.5
			S179.713,259.492,183.855,259.492z"/>
		<path d="M183.855,323.621h168.338c4.142,0,7.5-3.358,7.5-7.5s-3.358-7.5-7.5-7.5H183.855c-4.142,0-7.5,3.358-7.5,7.5
			S179.713,323.621,183.855,323.621z"/>
		<path d="M119.726,244.492c-12.114,0-20.556-6.213-20.556-11.789c0-4.142-3.358-7.5-7.5-7.5s-7.5,3.358-7.5,7.5
			c0,13.077,11.838,23.683,28.056,26.212v9.11c0,4.142,3.358,7.5,7.5,7.5s7.5-3.358,7.5-7.5v-9.11
			c16.219-2.528,28.057-13.135,28.057-26.212c0-21.051-19.993-27.596-33.223-31.928c-19.464-6.373-22.89-10.776-22.89-17.672
			c0-5.576,8.442-11.789,20.556-11.789s20.557,6.213,20.557,11.789c0,4.142,3.358,7.5,7.5,7.5s7.5-3.358,7.5-7.5
			c0-13.077-11.838-23.684-28.057-26.212v-9.109c0-4.142-3.358-7.5-7.5-7.5s-7.5,3.358-7.5,7.5v9.109
			c-16.218,2.528-28.056,13.135-28.056,26.212c0,21.051,19.993,27.596,33.223,31.928c19.465,6.373,22.89,10.776,22.89,17.672
			C140.282,238.279,131.84,244.492,119.726,244.492z"/>
		<path d="M207.903,187.347h32.064c8.556,0,15.516-6.96,15.516-15.516v-16.032c0-8.556-6.96-15.516-15.516-15.516h-32.064
			c-8.556,0-15.516,6.96-15.516,15.516v16.032C192.387,180.386,199.348,187.347,207.903,187.347z M207.387,155.798
			c0-0.285,0.231-0.516,0.516-0.516h32.064c0.285,0,0.516,0.231,0.516,0.516v16.032c0,0.285-0.231,0.516-0.516,0.516h-32.064
			c-0.285,0-0.516-0.231-0.516-0.516V155.798z"/>
	</g>
</g>
<g>
</g>
<g>
</g>
<g>
</g>
<g>
</g>
<g>
</g>
<g>
</g>
<g>
</g>
<g>
</g>
<g>
</g>
<g>
</g>
<g>
</g>
<g>
</g>
<g>
</g>
<g>
</g>
<g>
</g>
</svg>
