<?xml version="1.0" encoding="iso-8859-1"?>
<!-- Generator: Adobe Illustrator 22.0.0, SVG Export Plug-In . SVG Version: 6.00 Build 0)  -->
<svg version="1.1" id="Capa_1" xmlns="http://www.w3.org/2000/svg" xmlns:xlink="http://www.w3.org/1999/xlink" x="0px" y="0px"
	 viewBox="0 0 511.985 511.985" style="enable-background:new 0 0 511.985 511.985;" xml:space="preserve">
<g>
	<g>
		<path style="fill:#FFE09F;" d="M435.557,240.226v-0.004c-0.939-9.77-8.783-17.324-18.651-17.962l-12.693-0.819
			c-3.825-16.464-10.322-31.864-19.005-45.798l8.416-9.579c6.529-7.425,6.736-18.314,0.485-25.9
			c-3.613-4.372-7.073-8.204-10.58-11.703c-3.515-3.523-7.351-6.987-11.719-10.592c-7.566-6.243-18.459-6.039-25.888,0.485
			l-9.583,8.42c-13.934-8.683-29.333-15.18-45.797-19.005l-0.819-12.693c-0.638-9.868-8.192-17.711-17.966-18.651
			c-11.202-1.072-20.326-1.072-31.536,0c-9.77,0.939-17.324,8.783-17.962,18.651l-0.819,12.693
			c-16.464,3.825-31.864,10.322-45.798,19.005l-9.579-8.416c-7.441-6.537-18.33-6.736-25.892-0.489
			c-4.368,3.605-8.204,7.069-11.711,10.584c-3.515,3.507-6.975,7.339-10.596,11.719c-6.243,7.578-6.036,18.467,0.489,25.888
			l8.42,9.583c-8.683,13.934-15.18,29.333-19.005,45.797l-12.693,0.819c-9.868,0.638-17.711,8.192-18.651,17.966
			c-0.536,5.601-0.798,10.756-0.798,15.766s0.262,10.165,0.798,15.77c0.939,9.77,8.783,17.324,18.651,17.962l12.693,0.819
			c3.825,16.464,10.322,31.863,19.005,45.797l-8.42,9.583c-6.525,7.429-6.728,18.318-0.485,25.888
			c3.605,4.368,7.069,8.204,10.588,11.715c3.538,3.538,7.37,7.002,11.715,10.588c7.566,6.239,18.467,6.039,25.888-0.485l9.583-8.42
			c13.934,8.684,29.333,15.18,45.797,19.005l0.819,12.693c0.638,9.868,8.192,17.711,17.966,18.651
			c5.601,0.536,10.756,0.798,15.766,0.798s10.165-0.262,15.77-0.798c9.77-0.939,17.324-8.783,17.962-18.651l0.819-12.693
			c16.464-3.825,31.864-10.322,45.798-19.005l9.579,8.416c7.433,6.529,18.322,6.724,25.892,0.489
			c4.345-3.585,8.177-7.049,11.711-10.584c3.523-3.515,6.987-7.351,10.592-11.719c6.243-7.57,6.039-18.459-0.489-25.892
			l-8.416-9.579c8.684-13.934,15.18-29.334,19.005-45.798l12.693-0.819c9.868-0.638,17.711-8.192,18.651-17.966
			c0.536-5.601,0.798-10.756,0.798-15.766S436.093,245.828,435.557,240.226z M255.993,360.202
			c-57.553,0-104.21-46.656-104.21-104.21s46.656-104.21,104.21-104.21s104.21,46.656,104.21,104.21
			S313.546,360.202,255.993,360.202z"/>
		<path style="fill:#F6D190;" d="M393.625,345.92l-7.255-8.257c-0.079,0.013-0.159,0.026-0.24,0.039
			c-12.534,1.98-22.216-11.392-16.342-22.64c11.018-21.101,16.345-45.633,13.862-71.618
			c-5.769-60.366-54.749-109.343-115.115-115.109c-25.983-2.482-50.512,2.845-71.611,13.862c-11.248,5.873-24.62-3.808-22.64-16.342
			l0.039-0.24l-8.257-7.255c-7.441-6.537-18.33-6.736-25.892-0.489c-4.368,3.605-8.204,7.069-11.711,10.584
			c-3.517,3.509-6.979,7.342-10.601,11.725c-6.229,7.535-5.957,18.538,0.495,25.882l8.42,9.583
			c-8.683,13.934-15.18,29.333-19.005,45.797l-12.693,0.819c-9.74,0.628-17.711,8.191-18.645,17.906
			c-0.54,5.624-0.805,10.798-0.805,15.826c0,5.024,0.264,10.194,0.803,15.817c0.931,9.719,8.903,17.285,18.646,17.914l12.693,0.819
			c3.825,16.464,10.322,31.863,19.005,45.797l-8.42,9.583c-6.445,7.335-6.726,18.324-0.512,25.855
			c3.615,4.382,7.087,8.228,10.614,11.748c3.55,3.55,7.395,7.025,11.758,10.623c7.529,6.21,18.513,5.92,25.845-0.521l9.584-8.42
			c13.933,8.684,29.332,15.18,45.797,19.005l0.818,12.693c0.628,9.74,8.19,17.712,17.906,18.645
			c5.624,0.54,10.798,0.804,15.826,0.804c5.026,0,10.197-0.264,15.822-0.803c9.717-0.932,17.282-8.904,17.91-18.646l0.818-12.693
			c16.465-3.825,31.865-10.322,45.798-19.005l9.579,8.416c7.433,6.529,18.322,6.724,25.892,0.489
			c4.345-3.585,8.177-7.049,11.711-10.584c3.523-3.515,6.987-7.351,10.592-11.719C400.357,364.242,400.154,353.352,393.625,345.92z
			 M255.993,360.202c-57.553,0-104.21-46.656-104.21-104.21s46.656-104.21,104.21-104.21s104.21,46.656,104.21,104.21
			S313.546,360.202,255.993,360.202z"/>
	</g>
	<g>
		<path d="M468.654,113.391c-2.31-3.438-6.969-4.352-10.408-2.041c-3.438,2.311-4.352,6.971-2.041,10.408
			c30.711,45.695,44.836,101.239,39.772,156.397c-4.776,52.038-26.55,101.281-61.628,139.901l4.635-18.539
			c1.005-4.019-1.438-8.09-5.457-9.095c-4.012-1.003-8.09,1.438-9.095,5.457l-11.336,45.346c-0.639,2.556,0.11,5.26,1.973,7.122
			c1.424,1.424,3.339,2.197,5.304,2.197c0.605,0,1.216-0.073,1.818-0.224l45.346-11.336c4.019-1.005,6.462-5.077,5.457-9.095
			c-1.004-4.019-5.079-6.461-9.095-5.457l-19.508,4.877c37.884-41.196,61.401-93.977,66.524-149.783
			C516.292,220.943,501.284,161.942,468.654,113.391z"/>
		<path d="M390.224,456.206c-45.695,30.71-101.238,44.836-156.396,39.771c-52.037-4.777-101.279-26.551-139.899-61.628l18.538,4.635
			c4.015,1.004,8.09-1.438,9.095-5.457c1.005-4.019-1.438-8.091-5.457-9.095l-45.346-11.336c-2.558-0.64-5.26,0.11-7.122,1.973
			c-1.863,1.863-2.612,4.566-1.973,7.123l11.337,45.346c0.852,3.408,3.91,5.683,7.27,5.683c0.602,0,1.214-0.073,1.825-0.226
			c4.019-1.005,6.462-5.077,5.457-9.096l-4.877-19.508c41.196,37.884,93.976,61.401,149.781,66.523
			c7.798,0.716,15.602,1.071,23.389,1.071c50.714,0,100.658-15.044,142.745-43.329c3.438-2.311,4.352-6.97,2.041-10.409
			C398.322,454.81,393.663,453.896,390.224,456.206z"/>
		<path d="M16.008,233.829c4.776-52.037,26.55-101.28,61.628-139.9l-4.634,18.538c-1.005,4.019,1.438,8.09,5.457,9.095
			c0.61,0.153,1.222,0.226,1.825,0.226c3.36,0,6.418-2.274,7.27-5.683l11.336-45.346c0.639-2.556-0.11-5.26-1.973-7.122
			c-1.863-1.863-4.566-2.612-7.122-1.973L44.448,73c-4.019,1.005-6.462,5.077-5.457,9.095c1.003,4.019,5.076,6.461,9.095,5.457
			l19.508-4.877C29.71,123.871,6.193,176.653,1.07,232.458c-5.377,58.584,9.631,117.585,42.261,166.136
			c1.448,2.154,3.817,3.317,6.231,3.317c1.438,0,2.893-0.413,4.177-1.276c3.438-2.311,4.352-6.971,2.041-10.408
			C25.069,344.531,10.944,288.988,16.008,233.829z"/>
		<path d="M121.759,55.781c45.695-30.711,101.237-44.836,156.397-39.773c52.037,4.777,101.28,26.55,139.9,61.627L399.518,73
			c-4.012-1.004-8.09,1.438-9.095,5.457c-1.005,4.019,1.438,8.091,5.457,9.095l45.346,11.336c0.603,0.15,1.213,0.224,1.818,0.224
			c1.965,0,3.88-0.773,5.304-2.197c1.863-1.863,2.612-4.566,1.973-7.123l-11.337-45.346c-1.005-4.019-5.079-6.462-9.095-5.457
			c-4.019,1.005-6.462,5.077-5.457,9.096l4.877,19.508C388.113,29.71,335.332,6.193,279.527,1.07
			c-58.584-5.376-117.584,9.631-166.136,42.26c-3.438,2.311-4.352,6.971-2.041,10.409S118.321,58.091,121.759,55.781z"/>
		<path d="M417.39,297.209c13.559-0.876,24.339-11.278,25.633-24.736c0.56-5.852,0.833-11.243,0.833-16.48
			c0-5.216-0.27-10.585-0.826-16.409c-0.002-0.026-0.004-0.053-0.007-0.079c-1.293-13.452-12.073-23.852-25.633-24.729l-7.234-0.466
			c-3.568-13.219-8.832-25.9-15.7-37.826l4.803-5.466c8.972-10.204,9.242-25.185,0.635-35.63
			c-3.788-4.583-7.406-8.585-11.052-12.223c-3.673-3.681-7.682-7.305-12.255-11.079c-10.423-8.601-25.399-8.334-35.611,0.636
			l-5.473,4.809c-11.925-6.868-24.606-12.132-37.825-15.7l-0.466-7.235c-0.877-13.56-11.278-24.339-24.735-25.633
			c-11.703-1.121-21.254-1.12-32.969,0c-13.452,1.294-23.852,12.074-24.729,25.634l-0.466,7.234
			c-13.219,3.568-25.901,8.832-37.826,15.7l-5.469-4.805c-10.219-8.978-25.199-9.245-35.615-0.64
			c-4.573,3.773-8.579,7.395-12.235,11.06c-3.66,3.651-7.284,7.658-11.086,12.259c-8.595,10.433-8.324,25.408,0.644,35.607
			l4.809,5.473c-6.868,11.925-12.132,24.606-15.7,37.825l-7.235,0.466c-13.559,0.876-24.339,11.278-25.633,24.736
			c-0.56,5.852-0.833,11.243-0.833,16.48c0,5.236,0.272,10.628,0.833,16.488c1.293,13.452,12.073,23.852,25.633,24.729l7.234,0.466
			c3.568,13.219,8.832,25.9,15.7,37.825l-4.81,5.474c-8.966,10.209-9.234,25.185-0.635,35.611
			c3.774,4.573,7.397,8.581,11.069,12.245c3.714,3.714,7.72,7.334,12.247,11.071c10.431,8.601,25.407,8.333,35.609-0.638
			l5.473-4.809c11.925,6.868,24.606,12.132,37.825,15.7l0.466,7.235c0.877,13.56,11.278,24.339,24.735,25.633
			c5.854,0.561,11.245,0.833,16.481,0.833c5.234,0,10.626-0.272,16.488-0.833c13.452-1.294,23.852-12.074,24.729-25.634l0.466-7.234
			c13.219-3.568,25.901-8.832,37.826-15.7l5.469,4.805c10.204,8.963,25.18,9.235,35.615,0.639c4.525-3.734,8.529-7.354,12.235-11.06
			c3.681-3.672,7.304-7.681,11.08-12.256c8.598-10.425,8.328-25.402-0.641-35.614l-4.805-5.468
			c6.868-11.925,12.132-24.607,15.7-37.826L417.39,297.209z M396.909,288.846c-3.575,15.384-9.652,30.028-18.065,43.528
			c-1.75,2.808-1.453,6.432,0.731,8.917l8.416,9.578c4.086,4.652,4.229,11.453,0.339,16.168c-3.464,4.198-6.769,7.856-10.11,11.189
			c-3.371,3.371-7.028,6.675-11.177,10.098c-4.722,3.89-11.524,3.749-16.173-0.334l-9.579-8.416
			c-2.485-2.185-6.109-2.481-8.917-0.731c-13.499,8.413-28.144,14.49-43.528,18.065c-3.223,0.749-5.574,3.521-5.787,6.822
			l-0.818,12.691c-0.399,6.176-5.108,11.084-11.192,11.669c-5.378,0.515-10.303,0.765-15.056,0.765
			c-4.754,0-9.677-0.25-15.048-0.765c-6.09-0.585-10.8-5.493-11.199-11.668l-0.818-12.692c-0.213-3.302-2.564-6.074-5.787-6.822
			c-15.384-3.575-30.029-9.652-43.528-18.065c-1.221-0.761-2.596-1.135-3.965-1.135c-1.779,0-3.547,0.632-4.952,1.866l-9.585,8.422
			c-4.647,4.085-11.443,4.224-16.162,0.333c-4.153-3.428-7.812-6.733-11.191-10.112c-3.333-3.325-6.637-6.982-10.099-11.178
			c-3.891-4.717-3.75-11.517,0.333-16.166l8.42-9.583c2.184-2.485,2.481-6.108,0.731-8.917c-8.413-13.5-14.491-28.145-18.065-43.527
			c-0.749-3.223-3.521-5.574-6.822-5.787l-12.691-0.819c-6.176-0.399-11.084-5.108-11.669-11.192
			c-0.514-5.376-0.764-10.301-0.764-15.056c0-4.756,0.25-9.679,0.764-15.049c0.585-6.09,5.493-10.8,11.668-11.199l12.692-0.819
			c3.302-0.213,6.074-2.564,6.822-5.787c3.574-15.383,9.652-30.028,18.065-43.527c1.75-2.809,1.453-6.432-0.731-8.917l-8.422-9.585
			c-4.084-4.646-4.224-11.444-0.341-16.158c3.487-4.218,6.794-7.878,10.124-11.2c3.323-3.331,6.979-6.633,11.179-10.099
			c4.71-3.892,11.509-3.749,16.165,0.341l9.579,8.416c2.486,2.185,6.109,2.481,8.917,0.731c13.499-8.413,28.144-14.49,43.528-18.065
			c3.223-0.749,5.574-3.521,5.787-6.823l0.818-12.691c0.399-6.176,5.108-11.084,11.192-11.669c10.696-1.023,19.419-1.023,30.104,0
			c6.09,0.585,10.8,5.493,11.199,11.668l0.818,12.692c0.213,3.302,2.564,6.074,5.787,6.823c15.384,3.575,30.029,9.652,43.528,18.065
			c2.808,1.75,6.431,1.454,8.917-0.731l9.583-8.419c4.652-4.086,11.451-4.227,16.165-0.336c4.197,3.463,7.855,6.769,11.195,10.116
			c3.314,3.307,6.617,6.961,10.089,11.163c3.896,4.728,3.757,11.531-0.332,16.18l-8.417,9.579c-2.184,2.486-2.481,6.109-0.731,8.917
			c8.413,13.5,14.491,28.144,18.065,43.528c0.749,3.223,3.521,5.574,6.822,5.787l12.691,0.819
			c6.157,0.398,11.053,5.079,11.664,11.139c0.001,0.019,0.003,0.039,0.005,0.057c0.514,5.373,0.764,10.296,0.764,15.052
			s-0.25,9.679-0.764,15.049c-0.585,6.09-5.493,10.8-11.668,11.199l-12.692,0.819C400.429,283.272,397.657,285.623,396.909,288.846z
			"/>
		<path d="M335.633,188.542c-3.343,2.446-4.07,7.139-1.624,10.481c12.229,16.715,18.693,36.415,18.693,56.969
			c0,50.802-39.375,92.581-89.209,96.421v-33.271c20.736-2.545,36.073-15.502,36.073-31.587c0-23.371-20.383-31.933-41.261-38.698
			c-23.668-7.67-30.885-13.378-30.885-24.429c0-9.082,13.352-17.049,28.573-17.049c15.221,0,28.573,7.967,28.573,17.049
			c0,4.142,3.358,7.5,7.5,7.5s7.5-3.358,7.5-7.5c0-16.085-15.336-29.042-36.073-31.587v-33.268
			c17.828,1.379,34.798,7.668,49.468,18.401c3.342,2.445,8.035,1.719,10.481-1.625c2.446-3.343,1.718-8.036-1.625-10.481
			c-19.303-14.122-42.064-21.587-65.825-21.587c-61.597,0-111.709,50.113-111.709,111.71s50.113,111.71,111.709,111.71
			s111.709-50.113,111.709-111.71c0-23.761-7.465-46.522-21.587-65.825C343.669,186.824,338.977,186.097,335.633,188.542z
			 M159.283,255.992c0-50.802,39.375-92.581,89.209-96.421v33.271c-20.736,2.545-36.073,15.502-36.073,31.587
			c0,23.371,20.383,31.933,41.261,38.698c23.668,7.67,30.885,13.378,30.885,24.429c0,9.082-13.352,17.049-28.573,17.049
			c-15.221,0-28.573-7.967-28.573-17.049c0-4.142-3.358-7.5-7.5-7.5s-7.5,3.358-7.5,7.5c0,16.085,15.336,29.042,36.073,31.587
			v33.271C198.658,348.573,159.283,306.795,159.283,255.992z"/>
	</g>
</g>
<g>
</g>
<g>
</g>
<g>
</g>
<g>
</g>
<g>
</g>
<g>
</g>
<g>
</g>
<g>
</g>
<g>
</g>
<g>
</g>
<g>
</g>
<g>
</g>
<g>
</g>
<g>
</g>
<g>
</g>
</svg>
