<?xml version="1.0" encoding="iso-8859-1"?>
<!-- Generator: Adobe Illustrator 22.0.0, SVG Export Plug-In . SVG Version: 6.00 Build 0)  -->
<svg version="1.1" id="Capa_1" xmlns="http://www.w3.org/2000/svg" xmlns:xlink="http://www.w3.org/1999/xlink" x="0px" y="0px"
	 viewBox="0 0 512 512" style="enable-background:new 0 0 512 512;" xml:space="preserve">
<g>
	<g>
		
			<rect x="167.823" y="103.694" transform="matrix(6.123234e-17 -1 1 6.123234e-17 112.2258 528.0323)" style="fill:#F9EAC7;" width="304.613" height="208.419"/>
		
			<rect x="235.96" y="292.073" transform="matrix(6.123234e-17 -1 1 6.123234e-17 -84.1694 572.121)" style="fill:#B6B1B7;" width="16.032" height="72.145"/>
		
			<rect x="203.895" y="195.879" transform="matrix(6.123234e-17 -1 1 6.123234e-17 148.2984 564.1049)" style="fill:#F4DBB3;" width="304.613" height="24.048"/>
		
			<rect x="260.008" y="195.879" transform="matrix(6.123234e-17 -1 1 6.123234e-17 204.4113 620.2177)" style="fill:#F4DBB3;" width="304.613" height="24.048"/>
		<path style="fill:#9B959D;" d="M376.242,191.871c0,53.126,21.534,96.194,48.097,96.194V95.677
			C397.775,95.677,376.242,138.745,376.242,191.871z"/>
		<path style="fill:#857E87;" d="M400.29,108.651v166.44c7.081,8.203,15.277,12.974,24.048,12.974V95.677
			C415.567,95.677,407.371,100.448,400.29,108.651z"/>
		<circle style="fill:#C8C5C9;" cx="280.048" cy="304.097" r="32.065"/>
		<circle style="fill:#F4DBB3;" cx="280.048" cy="304.097" r="16.032"/>
		<rect x="7.5" y="239.968" style="fill:#F9EAC7;" width="304.613" height="208.419"/>
		<polygon style="fill:#F4DBB3;" points="312.113,424.339 32.173,424.339 32.173,239.968 7.5,239.968 7.5,448.387 312.113,448.387 
					"/>
		<rect x="7.5" y="368.226" style="fill:#F4DBB3;" width="304.613" height="24.048"/>
		<path style="fill:#9B959D;" d="M175.839,400.29c-53.126,0-96.194,21.534-96.194,48.097h192.387
			C272.032,421.824,228.965,400.29,175.839,400.29z"/>
		<rect x="7.5" y="368.226" style="fill:#EAC89F;" width="29.125" height="24.048"/>
		<circle style="fill:#C8C5C9;" cx="256" cy="312.113" r="24.048"/>
		<circle style="fill:#C8C5C9;" cx="63.613" cy="312.113" r="24.048"/>
		<path style="fill:#857E87;" d="M259.059,424.339H92.619c-8.202,7.08-12.973,15.277-12.973,24.048h192.387
			C272.032,439.616,267.261,431.419,259.059,424.339z"/>
		<circle style="fill:#C8C5C9;" cx="288.065" cy="111.71" r="24.048"/>
		<circle style="fill:#F4DBB3;" cx="400.29" cy="352.194" r="104.21"/>
		<circle style="fill:#F9EAC7;" cx="400.29" cy="352.194" r="72.145"/>
		<circle style="fill:#FFFFFF;" cx="400.29" cy="352.194" r="40.081"/>
	</g>
	<g>
		<path d="M431.839,245.027v-29.624h0.516c4.142,0,7.5-3.358,7.5-7.5s-3.358-7.5-7.5-7.5h-0.516V55.597c0-4.142-3.358-7.5-7.5-7.5
			H215.919c-4.142,0-7.5,3.358-7.5,7.5v144.807h-0.516c-4.142,0-7.5,3.358-7.5,7.5s3.358,7.5,7.5,7.5h0.516v17.064h-41.113v-0.516
			c0-4.142-3.358-7.5-7.5-7.5s-7.5,3.358-7.5,7.5v0.516H7.5c-4.142,0-7.5,3.358-7.5,7.5v208.419c0,4.142,3.358,7.5,7.5,7.5h144.807
			v0.516c0,4.142,3.358,7.5,7.5,7.5s7.5-3.358,7.5-7.5v-0.516h144.806c4.142,0,7.5-3.358,7.5-7.5v-19.005
			c20.35,21.261,48.994,34.521,80.678,34.521c61.597,0,111.709-50.113,111.709-111.71C512,301.549,478.121,258.676,431.839,245.027z
			 M416.839,241.711c-5.401-0.806-10.926-1.228-16.548-1.228c-3.778,0-7.513,0.191-11.196,0.559
			c0.126-0.904,0.094-1.845-0.132-2.786c-1.737-7.212-3.052-14.908-3.931-22.854h31.807V241.711z M319.613,215.403h17.064v45.016
			c-6.167,4.287-11.886,9.175-17.064,14.586V215.403z M351.677,215.403h18.266c0.935,9.106,2.404,17.927,4.436,26.366
			c0.138,0.573,0.358,1.1,0.612,1.605c-8.147,1.893-15.954,4.682-23.314,8.254V215.403z M351.677,95.161h44.211
			c-4.554,5.312-8.717,11.967-12.368,19.879c-9.53,20.647-14.778,47.933-14.778,76.831c0,2.869,0.069,5.708,0.17,8.532h-17.235
			V95.161z M383.929,200.403c-0.111-2.836-0.188-5.679-0.188-8.532c0-26.773,4.758-51.827,13.397-70.545
			c5.683-12.312,12.594-20.723,19.7-24.267v103.344H383.929z M416.839,80.161h-65.162V63.097h65.162V80.161z M223.419,95.161h37.8
			c-2.979,4.814-4.703,10.483-4.703,16.548c0,17.396,14.152,31.549,31.548,31.549c6.065,0,11.734-1.725,16.548-4.703v37.284
			c0,4.142,3.358,7.5,7.5,7.5s7.5-3.358,7.5-7.5v-64.129c0-17.396-14.152-31.548-31.548-31.548h-64.645V63.097h113.258v137.307
			H223.419V95.161z M304.613,111.709c0,9.125-7.423,16.549-16.548,16.549s-16.548-7.424-16.548-16.549s7.423-16.548,16.548-16.548
			S304.613,102.584,304.613,111.709z M223.419,215.403h81.193v17.064h-81.193V215.403z M256,328.661
			c-9.125,0-16.548-7.423-16.548-16.548s7.423-16.548,16.548-16.548s16.548,7.423,16.548,16.548S265.125,328.661,256,328.661z
			 M272.548,247.468v37.8c-4.814-2.979-10.483-4.703-16.548-4.703c-17.396,0-31.548,14.152-31.548,31.548
			c0,6.065,1.725,11.734,4.703,16.548h-37.284c-4.142,0-7.5,3.358-7.5,7.5s3.358,7.5,7.5,7.5H256
			c17.396,0,31.548-14.152,31.548-31.548v-64.645h17.064v47.12c-10.172,16.831-16.032,36.546-16.032,57.606
			c0,2.87,0.109,5.716,0.323,8.532H167.307V247.468H272.548z M272.548,419.936c-5.312-4.554-11.967-8.717-19.879-12.369
			c-20.647-9.529-47.933-14.777-76.83-14.777c-2.864,0-5.705,0.066-8.532,0.168v-17.233h105.242V419.936z M64.129,375.726v65.162
			H47.064v-65.162H64.129z M79.129,375.726h73.178v18.267c-19.967,2.049-38.372,6.686-53.298,13.575
			c-7.912,3.652-14.568,7.815-19.879,12.369V375.726z M152.307,328.661H90.458c2.979-4.814,4.703-10.483,4.703-16.548
			c0-17.396-14.152-31.548-31.548-31.548c-6.065,0-11.734,1.725-16.548,4.703v-37.8h105.242V328.661z M47.064,312.113
			c0-9.125,7.423-16.548,16.548-16.548s16.548,7.423,16.548,16.548s-7.423,16.548-16.548,16.548S47.064,321.238,47.064,312.113z
			 M32.064,247.468v64.645c0,17.396,14.152,31.548,31.548,31.548h88.694v17.064H15V247.468H32.064z M15,375.726h17.064v65.162H15
			V375.726z M81.027,440.887c3.544-7.106,11.955-14.017,24.267-19.7c13.095-6.044,29.297-10.18,47.013-12.124v31.824H81.027z
			 M167.307,407.964c2.822-0.108,5.665-0.174,8.532-0.174c26.773,0,51.826,4.758,70.544,13.397
			c12.312,5.683,20.723,12.594,24.267,19.7H167.307V407.964z M304.613,440.887h-17.064v-65.162h3.534
			c2.629,12.214,7.257,23.693,13.53,34.074V440.887z M400.291,448.903c-53.326,0-96.71-43.384-96.71-96.71
			c0-53.326,43.384-96.709,96.71-96.709c53.326,0,96.709,43.384,96.709,96.709C497,405.52,453.616,448.903,400.291,448.903z"/>
		<path d="M400.291,304.613c-26.236,0-47.581,21.345-47.581,47.581c0,25.762,20.583,46.792,46.166,47.545
			c0.469,0.024,0.941,0.036,1.415,0.036c26.236,0,47.581-21.345,47.581-47.581C447.871,325.958,426.526,304.613,400.291,304.613z
			 M400.291,384.774c-6.915,0-12.541-5.625-12.541-12.541s5.625-12.541,12.541-12.541c4.142,0,7.5-3.358,7.5-7.5s-3.358-7.5-7.5-7.5
			c-14.349,0-26.164,11.032-27.423,25.058c-3.259-5.071-5.158-11.096-5.158-17.558c0-17.965,14.616-32.581,32.581-32.581
			c17.965,0,32.581,14.616,32.581,32.581C432.871,370.159,418.255,384.774,400.291,384.774z"/>
		<path d="M467.665,309.841c-2.208-3.504-6.837-4.557-10.343-2.349c-3.505,2.208-4.557,6.838-2.349,10.343
			c6.518,10.348,9.963,22.229,9.963,34.358c0,35.646-29,64.646-64.645,64.646s-64.646-29-64.646-64.646s29-64.645,64.646-64.645
			c12.129,0,24.01,3.445,34.358,9.963c3.505,2.208,8.136,1.156,10.343-2.349c2.208-3.505,1.156-8.136-2.349-10.343
			c-12.745-8.028-27.39-12.271-42.352-12.271c-43.917,0-79.646,35.729-79.646,79.645s35.729,79.646,79.646,79.646
			s79.645-35.729,79.645-79.646C479.936,337.231,475.692,322.586,467.665,309.841z"/>
	</g>
</g>
<g>
</g>
<g>
</g>
<g>
</g>
<g>
</g>
<g>
</g>
<g>
</g>
<g>
</g>
<g>
</g>
<g>
</g>
<g>
</g>
<g>
</g>
<g>
</g>
<g>
</g>
<g>
</g>
<g>
</g>
</svg>
