<?xml version="1.0" encoding="iso-8859-1"?>
<!-- Generator: Adobe Illustrator 22.0.0, SVG Export Plug-In . SVG Version: 6.00 Build 0)  -->
<svg version="1.1" id="Capa_1" xmlns="http://www.w3.org/2000/svg" xmlns:xlink="http://www.w3.org/1999/xlink" x="0px" y="0px"
	 viewBox="0 0 512 512" style="enable-background:new 0 0 512 512;" xml:space="preserve">
<g>
	<g>
		<path style="fill:#B9CDA5;" d="M408.306,7.5H103.694c-8.854,0-16.032,7.178-16.032,16.032v464.935
			c0,8.854,7.178,16.032,16.032,16.032h304.613c8.854,0,16.032-7.178,16.032-16.032V23.532C424.339,14.678,417.161,7.5,408.306,7.5z
			"/>
		<path style="fill:#ECEAEC;" d="M384.258,456.403H127.742c-4.427,0-8.016-3.589-8.016-8.016V63.613
			c0-4.427,3.589-8.016,8.016-8.016h256.516c4.427,0,8.016,3.589,8.016,8.016v384.774
			C392.274,452.814,388.685,456.403,384.258,456.403z"/>
		<rect x="151.79" y="247.984" style="fill:#C8C5C9;" width="208.419" height="176.355"/>
		<rect x="151.79" y="87.661" style="fill:#C8C5C9;" width="208.419" height="128.258"/>
		<path style="fill:#96B49B;" d="M112.335,464.419v-22.044l8.54-1.749v-34.188l-8.54-1.875V7.5h-8.641
			c-8.854,0-16.032,7.178-16.032,16.032v464.935c0,8.854,7.178,16.032,16.032,16.032h304.613c8.854,0,16.032-7.178,16.032-16.032
			v-8.016H128.367C119.513,480.452,112.335,473.274,112.335,464.419z"/>
		<path style="fill:#DAD8DB;" d="M151.79,432.355c-4.427,0-8.016-3.589-8.016-8.016V55.597h-16.032
			c-4.427,0-8.016,3.589-8.016,8.016v384.774c0,4.427,3.589,8.016,8.016,8.016h256.516c4.427,0,8.016-3.589,8.016-8.016v-16.032
			H151.79z"/>
		<rect x="199.887" y="119.726" style="fill:#DCDCA0;" width="112.226" height="64.129"/>
		<path style="fill:#B9CDA5;" d="M280.048,159.806h-48.097c-4.427,0-8.016-3.589-8.016-8.016v0c0-4.427,3.589-8.016,8.016-8.016
			h48.097c4.427,0,8.016,3.589,8.016,8.016v0C288.065,156.218,284.476,159.806,280.048,159.806z"/>
		<path style="fill:#9B959D;" d="M328.145,312.113h-144.29v40.081c0,4.427,3.589,8.016,8.016,8.016h128.258
			c4.427,0,8.016-3.589,8.016-8.016V312.113z"/>
		<rect x="151.79" y="312.113" style="fill:#ADA7AE;" width="208.419" height="24.048"/>
		<rect x="183.855" y="312.113" style="fill:#857E87;" width="144.29" height="24.048"/>
	</g>
	<g>
		<path d="M408.307,0H103.693C90.718,0,80.161,10.557,80.161,23.532v464.936c0,12.976,10.557,23.532,23.532,23.532h304.613
			c12.976,0,23.532-10.556,23.532-23.532V23.532C431.839,10.557,421.282,0,408.307,0z M416.839,488.468
			c0,4.705-3.828,8.532-8.532,8.532H103.693c-4.705,0-8.532-3.827-8.532-8.532V23.532c0-4.705,3.828-8.532,8.532-8.532h304.613
			c4.705,0,8.532,3.827,8.532,8.532V488.468z"/>
		<path d="M384.258,48.097H127.742c-8.556,0-15.516,6.96-15.516,15.516v344.693c0,4.142,3.358,7.5,7.5,7.5s7.5-3.358,7.5-7.5V63.613
			c0-0.285,0.231-0.516,0.516-0.516h256.517c0.285,0,0.516,0.231,0.516,0.516v8.015c0,4.142,3.358,7.5,7.5,7.5s7.5-3.358,7.5-7.5
			v-8.015C399.774,55.057,392.814,48.097,384.258,48.097z"/>
		<path d="M392.274,96.194c-4.142,0-7.5,3.358-7.5,7.5v344.693c0,0.285-0.231,0.516-0.516,0.516H127.742
			c-0.285,0-0.516-0.231-0.516-0.516v-8.015c0-4.142-3.358-7.5-7.5-7.5s-7.5,3.358-7.5,7.5v8.015c0,8.556,6.96,15.516,15.516,15.516
			h256.517c8.556,0,15.516-6.96,15.516-15.516V103.694C399.774,99.552,396.417,96.194,392.274,96.194z"/>
		<path d="M144.291,424.339c0,4.142,3.358,7.5,7.5,7.5h208.419c4.142,0,7.5-3.358,7.5-7.5V247.984c0-4.142-3.358-7.5-7.5-7.5
			H151.791c-4.142,0-7.5,3.358-7.5,7.5V424.339z M159.291,416.839v-97.226h17.064v40.597c0,4.142,3.358,7.5,7.5,7.5h144.29
			c4.142,0,7.5-3.358,7.5-7.5v-40.597h17.064v97.226H159.291z M320.645,319.613v33.097h-129.29v-33.097H320.645z M352.709,255.484
			v49.129H159.291v-49.129H352.709z"/>
		<path d="M151.791,223.419h208.419c4.142,0,7.5-3.358,7.5-7.5V87.661c0-4.142-3.358-7.5-7.5-7.5H151.791
			c-4.142,0-7.5,3.358-7.5,7.5v128.258C144.291,220.062,147.648,223.419,151.791,223.419z M352.709,127.226v17.064h-33.097v-17.064
			H352.709z M319.613,159.29h33.097v17.064h-33.097V159.29z M304.613,176.354h-97.226v-49.129h97.226V176.354z M159.291,176.354
			V159.29h33.097v17.064H159.291z M192.387,144.29h-33.097v-17.064h33.097V144.29z M159.291,208.419v-17.065h193.419v17.065H159.291
			z M352.709,95.161v17.064H159.291V95.161H352.709z"/>
		<path d="M280.048,287.548h48.097c4.142,0,7.5-3.358,7.5-7.5s-3.358-7.5-7.5-7.5h-48.097c-4.142,0-7.5,3.358-7.5,7.5
			S275.906,287.548,280.048,287.548z"/>
		<path d="M183.855,287.548h16.032c4.142,0,7.5-3.358,7.5-7.5s-3.358-7.5-7.5-7.5h-16.032c-4.142,0-7.5,3.358-7.5,7.5
			S179.713,287.548,183.855,287.548z"/>
		<path d="M296.081,384.774h-80.161c-4.142,0-7.5,3.357-7.5,7.5c0,4.142,3.358,7.5,7.5,7.5h80.161c4.142,0,7.5-3.358,7.5-7.5
			C303.581,388.132,300.223,384.774,296.081,384.774z"/>
	</g>
</g>
<g>
</g>
<g>
</g>
<g>
</g>
<g>
</g>
<g>
</g>
<g>
</g>
<g>
</g>
<g>
</g>
<g>
</g>
<g>
</g>
<g>
</g>
<g>
</g>
<g>
</g>
<g>
</g>
<g>
</g>
</svg>
