<?xml version="1.0" encoding="iso-8859-1"?>
<!-- Generator: Adobe Illustrator 22.0.0, SVG Export Plug-In . SVG Version: 6.00 Build 0)  -->
<svg version="1.1" id="Capa_1" xmlns="http://www.w3.org/2000/svg" xmlns:xlink="http://www.w3.org/1999/xlink" x="0px" y="0px"
	 viewBox="0 0 512 512" style="enable-background:new 0 0 512 512;" xml:space="preserve">
<g>
	<g>
		<path style="fill:#ECEAEC;" d="M352.194,504.5H159.806c-4.427,0-8.016-3.589-8.016-8.016V15.516c0-4.427,3.589-8.016,8.016-8.016
			h192.387c4.427,0,8.016,3.589,8.016,8.016v480.968C360.21,500.911,356.621,504.5,352.194,504.5z"/>
		<rect x="183.855" y="39.565" style="fill:#C8C5C9;" width="144.29" height="128.258"/>
		<rect x="215.919" y="71.629" style="fill:#DCDCA0;" width="80.161" height="64.129"/>
		<path style="fill:#B9CDA5;" d="M352.194,504.5H159.806c-4.427,0-8.016-3.589-8.016-8.016V264.016H360.21v232.468
			C360.21,500.911,356.621,504.5,352.194,504.5z"/>
		<rect x="183.855" y="264.016" style="fill:#DCDCA0;" width="144.29" height="208.419"/>
		<path style="fill:#DAD8DB;" d="M159.806,7.5h16.616v256.516H151.79v-248.5C151.79,11.089,155.379,7.5,159.806,7.5z"/>
		<path style="fill:#96B49B;" d="M200.429,479.905c-13.282,0-24.048-10.767-24.048-24.048v-191.84h-24.59v232.468
			c0,4.427,3.589,8.016,8.016,8.016h192.387c4.427,0,8.016-3.589,8.016-8.016v-16.579H200.429z"/>
		<rect x="199.887" y="199.887" style="fill:#ADA7AE;" width="112.226" height="32.065"/>
		<path style="fill:#B9CDA5;" d="M264.016,111.71h-16.032c-4.427,0-8.016-3.589-8.016-8.016v0c0-4.427,3.589-8.016,8.016-8.016
			h16.032c4.427,0,8.016,3.589,8.016,8.016v0C272.033,108.121,268.444,111.71,264.016,111.71z"/>
	</g>
	<g>
		<path d="M256,335.646c9.752,0,16.548,5.288,16.548,10.035c0,4.142,3.358,7.5,7.5,7.5s7.5-3.358,7.5-7.5
			c0-11.98-10.095-21.739-24.048-24.345v-1.207c0-4.142-3.358-7.5-7.5-7.5s-7.5,3.358-7.5,7.5v1.207
			c-13.953,2.606-24.048,12.365-24.048,24.345c0,19.53,18.209,25.853,29.088,29.63c16.264,5.647,19.008,9.333,19.008,15.46
			c0,4.746-6.796,10.035-16.548,10.035s-16.548-5.289-16.548-10.035c0-4.143-3.358-7.5-7.5-7.5s-7.5,3.357-7.5,7.5
			c0,11.979,10.095,21.738,24.048,24.345v1.206c0,4.143,3.358,7.5,7.5,7.5s7.5-3.357,7.5-7.5v-1.206
			c13.953-2.606,24.048-12.365,24.048-24.345c0-19.531-18.209-25.854-29.088-29.631c-16.264-5.647-19.008-9.333-19.008-15.46
			C239.452,340.934,246.248,335.646,256,335.646z"/>
		<path d="M352.193,0H159.807c-8.556,0-15.516,6.96-15.516,15.516v480.968c0,8.556,6.96,15.516,15.516,15.516h192.387
			c8.556,0,15.516-6.96,15.516-15.516V15.516C367.709,6.96,360.749,0,352.193,0z M159.807,15h192.387
			c0.285,0,0.516,0.231,0.516,0.516v241H159.291v-241C159.291,15.231,159.522,15,159.807,15z M352.193,497H159.807
			c-0.285,0-0.516-0.231-0.516-0.516V271.516h17.064v200.919c0,4.142,3.358,7.5,7.5,7.5h144.29c4.142,0,7.5-3.358,7.5-7.5V312.112
			c0-4.142-3.358-7.5-7.5-7.5s-7.5,3.358-7.5,7.5v152.823h-129.29V271.516h129.29v8.53c0,4.142,3.358,7.5,7.5,7.5s7.5-3.358,7.5-7.5
			v-8.53h17.064v224.968C352.709,496.769,352.478,497,352.193,497z"/>
		<path d="M183.855,175.322h144.29c4.142,0,7.5-3.357,7.5-7.5V39.564c0-4.142-3.358-7.5-7.5-7.5h-96.193c-4.142,0-7.5,3.358-7.5,7.5
			s3.358,7.5,7.5,7.5h88.693v17.064h-129.29V47.064h8.532c4.142,0,7.5-3.358,7.5-7.5s-3.358-7.5-7.5-7.5h-16.032
			c-4.142,0-7.5,3.358-7.5,7.5v128.258C176.355,171.965,179.713,175.322,183.855,175.322z M208.419,128.258h-17.064v-17.064h17.064
			V128.258z M191.355,160.322v-17.064h129.29v17.064H191.355z M320.645,128.258h-17.064v-17.064h17.064V128.258z M320.645,96.193
			h-17.064V79.129h17.064V96.193z M288.581,128.258h-65.161V79.129h65.161V128.258z M208.419,79.129v17.064h-17.064V79.129H208.419z
			"/>
		<path d="M312.113,192.387H199.887c-4.142,0-7.5,3.358-7.5,7.5v32.064c0,4.142,3.358,7.5,7.5,7.5h112.226
			c4.142,0,7.5-3.358,7.5-7.5v-32.064C319.613,195.745,316.255,192.387,312.113,192.387z M304.613,224.452h-97.226v-17.064h97.226
			V224.452z"/>
	</g>
</g>
<g>
</g>
<g>
</g>
<g>
</g>
<g>
</g>
<g>
</g>
<g>
</g>
<g>
</g>
<g>
</g>
<g>
</g>
<g>
</g>
<g>
</g>
<g>
</g>
<g>
</g>
<g>
</g>
<g>
</g>
</svg>
