<?xml version="1.0" encoding="iso-8859-1"?>
<!-- Generator: Adobe Illustrator 22.0.0, SVG Export Plug-In . SVG Version: 6.00 Build 0)  -->
<svg version="1.1" id="Capa_1" xmlns="http://www.w3.org/2000/svg" xmlns:xlink="http://www.w3.org/1999/xlink" x="0px" y="0px"
	 viewBox="0 0 512 512" style="enable-background:new 0 0 512 512;" xml:space="preserve">
<g>
	<g>
		<path style="fill:#DAD8DB;" d="M352.194,7.5H159.806c-13.282,0-24.048,10.767-24.048,24.048v448.903
			c0,13.282,10.767,24.048,24.048,24.048h192.387c13.282,0,24.048-10.767,24.048-24.048V31.548
			C376.242,18.267,365.475,7.5,352.194,7.5z"/>
		<path style="fill:#B9CDA5;" d="M328.145,247.984h-144.29c-8.854,0-16.032-7.178-16.032-16.032v-96.194
			c0-8.854,7.178-16.032,16.032-16.032h144.29c8.854,0,16.032,7.178,16.032,16.032v96.194
			C344.177,240.806,337,247.984,328.145,247.984z"/>
		<path style="fill:#DCDCA0;" d="M312.113,223.935H199.887c-4.427,0-8.016-3.589-8.016-8.016V151.79
			c0-4.427,3.589-8.016,8.016-8.016h112.226c4.427,0,8.016,3.589,8.016,8.016v64.129
			C320.129,220.347,316.54,223.935,312.113,223.935z"/>
		<path style="fill:#ADA7AE;" d="M167.823,7.5v56.113c0,13.282,10.767,24.048,24.048,24.048h128.258
			c13.282,0,24.048-10.767,24.048-24.048V7.5H167.823z"/>
		<circle style="fill:#ADA7AE;" cx="191.871" cy="296.081" r="16.032"/>
		<circle style="fill:#ADA7AE;" cx="256" cy="296.081" r="16.032"/>
		<circle style="fill:#ADA7AE;" cx="320.129" cy="296.081" r="16.032"/>
		<circle style="fill:#ADA7AE;" cx="191.871" cy="360.21" r="16.032"/>
		<circle style="fill:#ADA7AE;" cx="256" cy="360.21" r="16.032"/>
		<circle style="fill:#ADA7AE;" cx="320.129" cy="360.21" r="16.032"/>
		<circle style="fill:#FF8086;" cx="191.871" cy="424.339" r="16.032"/>
		<circle style="fill:#FFE09F;" cx="256" cy="424.339" r="16.032"/>
		<circle style="fill:#B9CDA5;" cx="320.129" cy="424.339" r="16.032"/>
		<path style="fill:#C8C5C9;" d="M176.407,479.875c-8.84,0-16.032-7.192-16.032-16.032V7.5c-13.282,0-24.617,10.767-24.617,24.048
			v448.903c0,13.282,10.767,24.048,24.048,24.048h192.387c13.282,0,24.048-11.343,24.048-24.625H176.407z"/>
		<path style="fill:#9B959D;" d="M342.616,63.613H207.903c-8.854,0-16.032-7.178-16.032-16.032V7.5h-24.048v56.113
			c0,13.282,10.767,24.048,24.048,24.048h128.258c13.282,0,24.048-10.767,24.048-24.048H342.616z"/>
	</g>
	<g>
		<path d="M256,163.298c7.955,0,12.541,3.624,12.541,4.775c0,4.142,3.358,7.5,7.5,7.5s7.5-3.358,7.5-7.5
			c0-9.214-8.356-16.764-20.041-19.055v-1.236c0-4.142-3.358-7.5-7.5-7.5s-7.5,3.358-7.5,7.5v1.236
			c-11.685,2.292-20.041,9.841-20.041,19.055c0,15.562,15.925,20.207,25.44,22.981c13.521,3.943,14.641,6.31,14.641,8.582
			c0,1.151-4.585,4.774-12.541,4.774s-12.541-3.624-12.541-4.774c0-4.143-3.358-7.5-7.5-7.5s-7.5,3.357-7.5,7.5
			c0,9.214,8.356,16.764,20.041,19.055v1.236c0,4.142,3.358,7.5,7.5,7.5s7.5-3.358,7.5-7.5v-1.236
			c11.685-2.291,20.041-9.841,20.041-19.055c0-15.562-15.925-20.207-25.441-22.982c-13.521-3.943-14.64-6.31-14.64-8.582
			C243.459,166.922,248.045,163.298,256,163.298z"/>
		<path d="M352.193,0H159.807c-17.396,0-31.548,14.152-31.548,31.548v408.823c0,4.142,3.358,7.5,7.5,7.5s7.5-3.358,7.5-7.5V31.548
			c0-9.125,7.423-16.548,16.548-16.548h0.516v48.613c0,17.396,14.152,31.548,31.548,31.548h128.258
			c17.396,0,31.548-14.152,31.548-31.548V39.564c0-4.142-3.358-7.5-7.5-7.5s-7.5,3.358-7.5,7.5v24.048
			c0,9.125-7.423,16.548-16.548,16.548H191.871c-9.125,0-16.548-7.423-16.548-16.548V15h176.871c9.125,0,16.548,7.424,16.548,16.548
			v448.903c0,9.125-7.423,16.548-16.548,16.548H159.807c-9.125,0-16.548-7.424-16.548-16.548v-8.018c0-4.142-3.358-7.5-7.5-7.5
			s-7.5,3.358-7.5,7.5v8.018c0,17.396,14.152,31.548,31.548,31.548h192.387c17.396,0,31.548-14.153,31.548-31.548V31.548
			C383.742,14.152,369.589,0,352.193,0z"/>
		<path d="M199.887,32.064c-4.142,0-7.5,3.358-7.5,7.5s3.358,7.5,7.5,7.5h112.226c4.142,0,7.5-3.358,7.5-7.5s-3.358-7.5-7.5-7.5
			H199.887z"/>
		<path d="M351.677,231.952v-96.194c0-12.976-10.557-23.532-23.532-23.532h-144.29c-12.976,0-23.532,10.557-23.532,23.532v96.194
			c0,12.976,10.557,23.532,23.532,23.532h144.29C341.121,255.484,351.677,244.927,351.677,231.952z M336.677,231.952
			c0,4.705-3.828,8.532-8.532,8.532h-144.29c-4.705,0-8.532-3.828-8.532-8.532v-96.194c0-4.704,3.828-8.532,8.532-8.532h144.29
			c4.705,0,8.532,3.828,8.532,8.532V231.952z"/>
		<path d="M191.871,319.613c12.976,0,23.532-10.557,23.532-23.532s-10.557-23.532-23.532-23.532s-23.532,10.557-23.532,23.532
			S178.896,319.613,191.871,319.613z M191.871,287.548c4.705,0,8.532,3.828,8.532,8.532s-3.828,8.532-8.532,8.532
			s-8.532-3.828-8.532-8.532S187.167,287.548,191.871,287.548z"/>
		<path d="M256,319.613c12.976,0,23.532-10.557,23.532-23.532S268.976,272.548,256,272.548s-23.532,10.557-23.532,23.532
			S243.024,319.613,256,319.613z M256,287.548c4.705,0,8.532,3.828,8.532,8.532s-3.828,8.532-8.532,8.532s-8.532-3.828-8.532-8.532
			S251.295,287.548,256,287.548z"/>
		<path d="M320.129,272.548c-12.976,0-23.532,10.557-23.532,23.532s10.557,23.532,23.532,23.532s23.532-10.557,23.532-23.532
			S333.104,272.548,320.129,272.548z M320.129,304.613c-4.705,0-8.532-3.828-8.532-8.532s3.828-8.532,8.532-8.532
			s8.532,3.828,8.532,8.532S324.833,304.613,320.129,304.613z"/>
		<path d="M191.871,383.742c12.976,0,23.532-10.557,23.532-23.532s-10.557-23.532-23.532-23.532s-23.532,10.557-23.532,23.532
			S178.896,383.742,191.871,383.742z M191.871,351.678c4.705,0,8.532,3.827,8.532,8.532c0,4.704-3.828,8.532-8.532,8.532
			s-8.532-3.828-8.532-8.532C183.339,355.505,187.167,351.678,191.871,351.678z"/>
		<path d="M256,383.742c12.976,0,23.532-10.557,23.532-23.532S268.976,336.678,256,336.678s-23.532,10.557-23.532,23.532
			S243.024,383.742,256,383.742z M256,351.678c4.705,0,8.532,3.827,8.532,8.532c0,4.704-3.828,8.532-8.532,8.532
			s-8.532-3.828-8.532-8.532C247.468,355.505,251.295,351.678,256,351.678z"/>
		<path d="M320.129,336.678c-12.976,0-23.532,10.557-23.532,23.532s10.557,23.532,23.532,23.532s23.532-10.557,23.532-23.532
			S333.104,336.678,320.129,336.678z M320.129,368.742c-4.705,0-8.532-3.828-8.532-8.532c0-4.705,3.828-8.532,8.532-8.532
			s8.532,3.827,8.532,8.532C328.661,364.914,324.833,368.742,320.129,368.742z"/>
		<path d="M191.871,447.871c12.976,0,23.532-10.557,23.532-23.532s-10.557-23.532-23.532-23.532s-23.532,10.557-23.532,23.532
			S178.896,447.871,191.871,447.871z M191.871,415.807c4.705,0,8.532,3.827,8.532,8.532c0,4.704-3.828,8.532-8.532,8.532
			s-8.532-3.828-8.532-8.532C183.339,419.634,187.167,415.807,191.871,415.807z"/>
		<path d="M256,447.871c12.976,0,23.532-10.557,23.532-23.532S268.976,400.807,256,400.807s-23.532,10.557-23.532,23.532
			S243.024,447.871,256,447.871z M256,415.807c4.705,0,8.532,3.827,8.532,8.532c0,4.704-3.828,8.532-8.532,8.532
			s-8.532-3.828-8.532-8.532C247.468,419.634,251.295,415.807,256,415.807z"/>
		<path d="M320.129,400.807c-12.976,0-23.532,10.557-23.532,23.532s10.557,23.532,23.532,23.532s23.532-10.557,23.532-23.532
			S333.104,400.807,320.129,400.807z M320.129,432.871c-4.705,0-8.532-3.828-8.532-8.532c0-4.705,3.828-8.532,8.532-8.532
			s8.532,3.827,8.532,8.532C328.661,429.043,324.833,432.871,320.129,432.871z"/>
		<path d="M175.839,479.936h160.322c4.142,0,7.5-3.358,7.5-7.5s-3.358-7.5-7.5-7.5H175.839c-4.142,0-7.5,3.358-7.5,7.5
			S171.697,479.936,175.839,479.936z"/>
	</g>
</g>
<g>
</g>
<g>
</g>
<g>
</g>
<g>
</g>
<g>
</g>
<g>
</g>
<g>
</g>
<g>
</g>
<g>
</g>
<g>
</g>
<g>
</g>
<g>
</g>
<g>
</g>
<g>
</g>
<g>
</g>
</svg>
