<?xml version="1.0" encoding="iso-8859-1"?>
<!-- Generator: Adobe Illustrator 22.0.0, SVG Export Plug-In . SVG Version: 6.00 Build 0)  -->
<svg version="1.1" id="Capa_1" xmlns="http://www.w3.org/2000/svg" xmlns:xlink="http://www.w3.org/1999/xlink" x="0px" y="0px"
	 viewBox="0 0 512 512" style="enable-background:new 0 0 512 512;" xml:space="preserve">
<g>
	<g>
		<path style="fill:#DAD8DB;" d="M496.484,448.387H400.29c-4.427,0-8.016-3.589-8.016-8.016v-96.194
			c0-4.427,3.589-8.016,8.016-8.016h96.194c4.427,0,8.016,3.589,8.016,8.016v96.194C504.5,444.798,500.911,448.387,496.484,448.387z
			"/>
		<rect x="143.774" y="256" style="fill:#6F6571;" width="80.161" height="56.113"/>
		<path style="fill:#DAD8DB;" d="M352.194,448.387H15.516c-4.427,0-8.016-3.589-8.016-8.016v-96.194
			c0-4.427,3.589-8.016,8.016-8.016h336.677c4.427,0,8.016,3.589,8.016,8.016v96.194
			C360.21,444.798,356.621,448.387,352.194,448.387z"/>
		<path style="fill:#857E87;" d="M320.129,272.032H47.581c-4.427,0-8.016-3.589-8.016-8.016V71.629c0-4.427,3.589-8.016,8.016-8.016
			h272.548c4.427,0,8.016,3.589,8.016,8.016v192.387C328.145,268.443,324.556,272.032,320.129,272.032z"/>
		<rect x="71.629" y="95.677" style="fill:#B9CDA5;" width="224.452" height="144.29"/>
		<path style="fill:#DCDCA0;" d="M264.016,215.919H103.694c-4.427,0-8.016-3.589-8.016-8.016v-80.161
			c0-4.427,3.589-8.016,8.016-8.016h160.323c4.427,0,8.016,3.589,8.016,8.016v80.161
			C272.032,212.33,268.443,215.919,264.016,215.919z"/>
		<path style="fill:#857E87;" d="M247.984,304.097H119.726c-4.427,0-8.016,3.589-8.016,8.016v24.048H256v-24.048
			C256,307.686,252.411,304.097,247.984,304.097z"/>
		<rect x="424.339" y="288.065" style="fill:#ECEAEC;" width="48.097" height="80.161"/>
		<path style="fill:#6F6571;" d="M72.245,247.417c-4.427,0-8.016-3.589-8.016-8.016V63.613H47.581c-4.427,0-8.016,3.589-8.016,8.016
			v192.387c0,4.427,3.589,8.016,8.016,8.016h272.548c4.427,0,8.016-3.589,8.016-8.016v-16.599H72.245z"/>
		<path style="fill:#C8C5C9;" d="M40.266,423.75c-4.427,0-8.016-3.589-8.016-8.016v-79.573H15.516c-4.427,0-8.016,3.589-8.016,8.016
			v96.194c0,4.427,3.589,8.016,8.016,8.016h336.677c4.427,0,8.016-3.589,8.016-8.016V423.75H40.266z"/>
		<path style="fill:#857E87;" d="M496.484,448.387H400.29c-4.427,0-8.016-3.589-8.016-8.016V400.29H504.5v40.081
			C504.5,444.798,500.911,448.387,496.484,448.387z"/>
		<path style="fill:#6F6571;" d="M424.339,424.339c-4.427,0-8.016-3.589-8.016-8.016V400.29h-24.048v40.081
			c0,4.427,3.589,8.016,8.016,8.016h96.194c4.427,0,8.016-3.589,8.016-8.016v-16.032H424.339z"/>
		<path style="fill:#C8C5C9;" d="M392.274,400.29h24.632v-64.129H400.29c-4.427,0-8.016,3.589-8.016,8.016V400.29z"/>
		<rect x="39.565" y="368.226" style="fill:#C8C5C9;" width="288.581" height="48.097"/>
	</g>
	<g>
		<path d="M352.193,328.661H263.5v-16.548c0-8.556-6.96-15.516-15.516-15.516h-16.548v-17.064h88.693
			c8.556,0,15.516-6.96,15.516-15.516V71.629c0-8.556-6.96-15.516-15.516-15.516H47.581c-8.556,0-15.516,6.96-15.516,15.516v192.387
			c0,8.556,6.96,15.516,15.516,15.516h88.694v17.064h-16.549c-8.556,0-15.516,6.96-15.516,15.516v16.548H15.516
			C6.96,328.661,0,335.622,0,344.178v96.193c0,8.555,6.96,15.516,15.516,15.516h336.677c8.556,0,15.516-6.961,15.516-15.516v-96.193
			C367.709,335.622,360.749,328.661,352.193,328.661z M47.064,264.016V71.629c0-0.284,0.231-0.516,0.516-0.516h272.548
			c0.285,0,0.516,0.232,0.516,0.516v192.387c0,0.285-0.231,0.516-0.516,0.516H47.581C47.296,264.532,47.064,264.301,47.064,264.016z
			 M151.275,279.532h65.161v17.064h-65.161V279.532z M119.209,312.113c0-0.285,0.231-0.516,0.516-0.516h128.258
			c0.285,0,0.516,0.231,0.516,0.516v16.548H119.209V312.113z M352.709,440.371c0,0.284-0.231,0.516-0.516,0.516H15.516
			c-0.285,0-0.516-0.232-0.516-0.516v-96.193c0-0.285,0.231-0.517,0.516-0.517h336.677c0.285,0,0.516,0.231,0.516,0.517V440.371z"/>
		<path d="M496.484,328.661h-16.548v-40.597c0-4.142-3.358-7.5-7.5-7.5h-48.097c-4.142,0-7.5,3.358-7.5,7.5v40.597h-16.548
			c-8.556,0-15.516,6.961-15.516,15.517v8.015c0,4.142,3.358,7.5,7.5,7.5s7.5-3.358,7.5-7.5v-8.015c0-0.285,0.231-0.517,0.516-0.517
			h16.548v24.564c0,4.143,3.358,7.5,7.5,7.5h48.097c4.142,0,7.5-3.357,7.5-7.5v-24.564h16.548c0.285,0,0.516,0.231,0.516,0.517
			v48.612h-97.226v-8.529c0-4.142-3.358-7.5-7.5-7.5s-7.5,3.358-7.5,7.5v56.11c0,8.555,6.96,15.516,15.516,15.516h96.193
			c8.556,0,15.516-6.961,15.516-15.516v-96.193C512,335.622,505.04,328.661,496.484,328.661z M464.936,360.726h-33.097v-65.161
			h33.097V360.726z M496.484,440.887h-96.193c-0.285,0-0.516-0.232-0.516-0.516V407.79H497v32.581
			C497,440.655,496.769,440.887,496.484,440.887z"/>
		<path d="M328.145,360.726H87.663c-4.142,0-7.5,3.358-7.5,7.5c0,4.143,3.358,7.5,7.5,7.5h88.692v8.532c0,4.143,3.358,7.5,7.5,7.5
			s7.5-3.357,7.5-7.5v-8.532h129.29v33.097H47.064v-33.097h8.532c4.142,0,7.5-3.357,7.5-7.5c0-4.142-3.358-7.5-7.5-7.5H39.564
			c-4.142,0-7.5,3.358-7.5,7.5v48.097c0,4.143,3.358,7.5,7.5,7.5h288.581c4.142,0,7.5-3.357,7.5-7.5v-48.097
			C335.645,364.084,332.287,360.726,328.145,360.726z"/>
		<path d="M296.081,88.178H71.629c-4.142,0-7.5,3.357-7.5,7.5v144.29c0,4.142,3.358,7.5,7.5,7.5h224.452c4.142,0,7.5-3.358,7.5-7.5
			v-96.193c0-4.142-3.358-7.5-7.5-7.5s-7.5,3.358-7.5,7.5v88.693H79.129v-129.29h209.452v8.532c0,4.142,3.358,7.5,7.5,7.5
			s7.5-3.358,7.5-7.5V95.678C303.581,91.535,300.223,88.178,296.081,88.178z"/>
		<path d="M235.959,144.148c7.539,0,12.541,3.695,12.541,6.139c0,4.143,3.358,7.5,7.5,7.5s7.5-3.357,7.5-7.5
			c0-9.849-8.356-17.92-20.041-20.369v-2.176c0-4.143-3.358-7.5-7.5-7.5s-7.5,3.357-7.5,7.5v2.176
			c-11.684,2.45-20.04,10.52-20.04,20.369c0,16.494,15.792,21.612,25.228,24.67c13.787,4.468,14.853,7.129,14.853,10.401
			c0,2.444-5.001,6.138-12.541,6.138c-7.539,0-12.54-3.694-12.54-6.138c0-4.142-3.358-7.5-7.5-7.5s-7.5,3.358-7.5,7.5
			c0,9.849,8.356,17.919,20.04,20.369v2.176c0,4.142,3.358,7.5,7.5,7.5s7.5-3.358,7.5-7.5v-2.176
			c11.685-2.449,20.041-10.52,20.041-20.369c0-16.495-15.792-21.612-25.229-24.67c-13.787-4.468-14.852-7.129-14.852-10.4
			C223.419,147.844,228.421,144.148,235.959,144.148z"/>
		<path d="M175.839,128.258h-64.129c-4.142,0-7.5,3.358-7.5,7.5c0,4.143,3.358,7.5,7.5,7.5h64.129c4.142,0,7.5-3.357,7.5-7.5
			C183.339,131.616,179.981,128.258,175.839,128.258z"/>
		<path d="M175.839,160.322h-64.129c-4.142,0-7.5,3.358-7.5,7.5c0,4.143,3.358,7.5,7.5,7.5h64.129c4.142,0,7.5-3.357,7.5-7.5
			C183.339,163.681,179.981,160.322,175.839,160.322z"/>
		<path d="M175.839,192.387h-64.129c-4.142,0-7.5,3.358-7.5,7.5s3.358,7.5,7.5,7.5h64.129c4.142,0,7.5-3.358,7.5-7.5
			S179.981,192.387,175.839,192.387z"/>
	</g>
</g>
<g>
</g>
<g>
</g>
<g>
</g>
<g>
</g>
<g>
</g>
<g>
</g>
<g>
</g>
<g>
</g>
<g>
</g>
<g>
</g>
<g>
</g>
<g>
</g>
<g>
</g>
<g>
</g>
<g>
</g>
</svg>
