<svg id="Capa_1" enable-background="new 0 0 512.519 512.519" height="512" viewBox="0 0 512.519 512.519" width="512" xmlns="http://www.w3.org/2000/svg"><g><g><path d="m498.469 135.987-122.48-6.87c-5.32-.29-8.75 5.56-5.89 10.06l23.51 36.96c-44.83 29.67-82.82 69.1-110.85 114.91l-24.694 16.928-5.082 174.902h29.776l1.429-29.763c4.02-41.944 16.481-82.949 36.641-120.057 24.29-44.71 59.43-83.14 101.76-111.35l24.28 38.16c2.86 4.5 9.61 3.88 11.6-1.07l45.71-113.84c1.671-4.15-1.23-8.72-5.71-8.97z" fill="#e79098"/><path d="m498.469 135.987-122.48-6.87c-5.32-.29-8.75 5.56-5.89 10.06l23.51 36.96c-44.83 29.67-82.82 69.1-110.85 114.91l-24.694 16.928-2.203 75.822 56.587-95.155c26.981-44.096 63.192-82.281 105.848-111.539 2.779-1.906 3.535-5.677 1.726-8.521l-5.06-7.955c-2.14-3.364.424-7.738 4.405-7.515l79.741 4.473 5.07-12.627c1.671-4.151-1.23-8.721-5.71-8.971z" fill="#e17983"/><g><g id="XMLID_171_"><g><path d="m282.673 480.471-26.825-96.185-2.865 98.591h29.777l.115-2.406z" fill="#86d7e5"/><path d="m228.76 291.047c-27.88-45.57-65.62-84.83-110.14-114.45l23.8-37.42c2.86-4.5-.57-10.35-5.89-10.06l-122.48 6.87c-4.48.25-7.38 4.82-5.71 8.97l45.71 113.84c1.99 4.95 8.74 5.57 11.6 1.07l23.98-37.7c42.02 28.17 76.9 66.43 101.06 110.89 20.92 38.507 33.549 81.211 37.059 124.805l1.011 25.015 24.224 3.966v-141.527z" fill="#e79098"/><path d="m225.988 428.373c-3.51-43.595-16.139-86.298-37.059-124.805-22.112-40.691-53.204-76.189-90.531-103.511-5.628-4.119-13.576-2.588-17.32 3.297l-8.043 12.645c-2.961 4.656-9.948 4.009-12.004-1.112l-32.017-79.739-14.964.839c-4.48.25-7.38 4.82-5.71 8.97l45.71 113.84c1.99 4.95 8.74 5.57 11.6 1.07l8.241-12.956 15.739-24.744c42.02 28.17 76.9 66.43 101.06 110.89 19.343 35.603 31.603 74.842 36.115 115.008z" fill="#e17983"/><path d="m332.6 109.897c3.11 4.33.01 10.36-5.32 10.36h-44.52v170.79 191.83 16.391c0 3.175-2.574 5.749-5.749 5.749h-42.501c-3.175 0-5.749-2.574-5.749-5.749v-16.391-191.83-170.79h-44.52c-5.33 0-8.43-6.03-5.32-10.36l71.52-99.67c2.61-3.64 8.03-3.64 10.64 0z" fill="#e79098"/><path d="m270.878 485.007c-8.698 0-15.749-7.051-15.749-15.749v-6.391-191.83-162.81c0-4.407-3.573-7.98-7.98-7.98h-17.584c-3.52 0-5.564-3.983-3.512-6.843l47.356-65.995-12.33-17.183c-2.61-3.64-8.03-3.64-10.64 0l-71.52 99.67c-3.11 4.33-.01 10.36 5.32 10.36h44.52v170.79 191.83 16.391c0 3.175 2.574 5.749 5.749 5.749h42.501c3.175 0 5.75-2.574 5.75-5.75v-14.26h-11.881z" fill="#e17983"/></g></g></g></g><g><path d="m325.427 112.761h-42.667c-4.143 0-7.5 3.358-7.5 7.5v35.932c0 4.142 3.357 7.5 7.5 7.5s7.5-3.358 7.5-7.5v-28.432h37.021c5.292 0 10.081-2.925 12.498-7.633s2.001-10.304-1.084-14.604l-71.522-99.667c-2.633-3.668-6.899-5.857-11.413-5.857s-8.78 2.189-11.413 5.857l-71.522 99.666c-3.085 4.3-3.501 9.896-1.084 14.604s7.206 7.633 12.498 7.633h37.021v138.362c-25.218-35.543-56.724-66.847-92.412-91.637l19.9-31.29c2.841-4.465 2.943-10.076.268-14.642-2.677-4.567-7.628-7.223-12.906-6.923l-122.48 6.863c-4.507.252-8.645 2.677-11.067 6.485-2.423 3.809-2.865 8.584-1.184 12.775l15.271 38.026c1.544 3.845 5.914 5.708 9.755 4.165 3.844-1.543 5.708-5.911 4.165-9.754l-14.777-36.795 119.304-6.685-22.808 35.862c-2.191 3.444-1.225 8.008 2.174 10.27 42.78 28.459 79.665 66.585 106.798 110.343v92.78c-6.166-19.512-14.181-38.451-23.979-56.485-24.692-45.454-60.473-84.716-103.473-113.542-1.678-1.126-3.742-1.525-5.716-1.111-1.978.416-3.704 1.61-4.788 3.315l-22.983 36.137-17.382-43.284c-1.544-3.845-5.911-5.707-9.755-4.165-3.844 1.544-5.708 5.911-4.165 9.755l18.073 45.005c1.973 4.911 6.472 8.265 11.741 8.753 5.262.483 10.308-1.983 13.148-6.449l19.804-31.136c38.177 27.023 69.997 62.801 92.315 103.882 24.309 44.748 37.158 95.316 37.158 146.239v22.138c0 4.142 3.357 7.5 7.5 7.5s7.5-3.358 7.5-7.5v-384.756c0-4.142-3.357-7.5-7.5-7.5h-42.667l69.667-97.08z"/><path d="m509.958 134.98c-2.423-3.809-6.561-6.233-11.067-6.485l-122.481-6.863c-5.278-.301-10.23 2.357-12.905 6.923-2.676 4.566-2.573 10.177.268 14.642l19.595 30.811c-35.982 24.872-67.725 56.341-93.106 92.116v-77.968c0-4.142-3.357-7.5-7.5-7.5s-7.5 3.358-7.5 7.5v316.863c0 4.142 3.357 7.5 7.5 7.5s7.5-3.358 7.5-7.5v-22.138c0-50.923 12.85-101.492 37.159-146.24 1.198-2.207 2.491-4.507 3.951-7.032 2.073-3.586.847-8.174-2.739-10.247-3.583-2.073-8.172-.848-10.247 2.738-1.527 2.642-2.884 5.056-4.146 7.381-9.798 18.034-17.813 36.973-23.979 56.485v-92.78c27.281-43.998 64.406-82.281 107.487-110.799 3.409-2.257 4.383-6.829 2.188-10.279l-22.512-35.397 119.304 6.685-44.529 110.884-23.279-36.602c-1.082-1.702-2.805-2.896-4.777-3.313-1.972-.418-4.031-.022-5.71 1.097-31.949 21.293-59.616 47.932-82.23 79.177-2.429 3.355-1.678 8.044 1.678 10.473 1.329.962 2.867 1.425 4.392 1.425 2.323 0 4.615-1.077 6.081-3.103 20.058-27.71 44.278-51.62 72.074-71.16l20.111 31.622c2.841 4.467 7.88 6.931 13.148 6.449 5.27-.488 9.769-3.842 11.741-8.753l45.715-113.838c1.68-4.19 1.238-8.965-1.185-12.774z"/></g></g></svg>