<svg id="Capa_1" enable-background="new 0 0 512.899 512.899" height="512" viewBox="0 0 512.899 512.899" width="512" xmlns="http://www.w3.org/2000/svg"><g><g><path d="m463.472 132.22-10.31-5.08c-6.26-3.09-13.85-.51-16.93 5.76l-13.75 27.93.872 14.182 21.886 9.998 10.242-7.93 13.75-27.93c3.09-6.27.51-13.85-5.76-16.93z" fill="#e79098"/><g><path d="m402.022 134.46v364.77c0 3.41-2.76 6.17-6.17 6.17h-347.32c-3.41 0-6.17-2.76-6.17-6.17v-485.56c0-3.41 2.76-6.17 6.17-6.17h268.58c1.63 0 3.2.65 4.36 1.81l78.74 78.74c1.16 1.16 1.81 2.73 1.81 4.36z" fill="#f9f7f7"/></g><path d="m111.302 455.772c-3.41 0-6.17-2.76-6.17-6.17v-442.102h-56.6c-3.41 0-6.17 2.76-6.17 6.17v485.56c0 3.41 2.76 6.17 6.17 6.17h347.32c3.41 0 6.17-2.76 6.17-6.17v-43.458z" fill="#f8f3f2"/><g><g><g id="XMLID_207_"><g><path d="m402.022 92.41c0-1.63-.65-3.2-1.81-4.36l-78.74-78.74c-1.16-1.16-2.73-1.81-4.36-1.81h-12.69v74.27c0 12.594 10.246 22.84 22.84 22.84h74.76z" fill="#f8f3f2"/><path d="m401.022 89.61h-73.76c-4.33 0-7.84-3.51-7.84-7.84v-73.67c.64.29 1.22.7 1.73 1.21l78.74 78.74c.46.46.84.99 1.13 1.56z" fill="#f9f7f7"/></g></g></g><g id="XMLID_208_"><g><path d="m296.199 425.144-6.017 4.376h-.01l-2.44 4.97c-.23.45-.33.95-.31 1.45l1.45 31.99c.11 2.34 2.75 3.64 4.66 2.3l26.24-18.37c.41-.28.74-.67.96-1.11l2.45-4.98.404-6.591z" fill="#fbe8cb"/><path d="m335.092 421.59-11.91 24.18-33-16.25 11.9-24.18z" fill="#fdf5cb"/><path d="m417.653 181.05-7.081 3.96-108.49 220.33.813 10.95 25.011 11.926 7.186-6.626 108.48-220.32.723-7.226z" fill="#fbe372"/><path d="m298.848 442.837c-.019-.487.077-.975.297-1.413l5.733-11.832-8.679-4.448-6.017 4.376h-.01l-2.44 4.97c-.23.45-.33.95-.31 1.45l1.45 31.99c.11 2.34 2.75 3.64 4.66 2.3l6.339-4.438z" fill="#f8dbac"/><path d="m335.092 421.59-11.91 24.18-33-16.25 11.9-24.18z" fill="#fdf5cb"/><path d="m427.347 176.835 14.253-29.415c2.955-6.112 10.236-8.627 16.241-5.615l9.89 4.952c.717.358 1.38.782 1.993 1.255 2.275-6.023-.355-12.897-6.251-15.793l-10.31-5.08c-6.26-3.09-13.85-.51-16.93 5.76l-13.75 27.93.872 14.182z" fill="#e17983"/><path d="m309.741 419.554 114.101-235.486-6.189-3.018-7.081 3.96-108.49 220.33.813 10.95z" fill="#f8d448"/><path d="m455.482 177.08-11.91 24.19-33-16.26 11.91-24.18z" fill="#fdf5cb"/></g></g><g fill="#fbe88c"><path d="m313.827 411.122-11.745-5.782-11.9 24.18 11.893 5.856z"/><path d="m432.671 165.847-10.189-5.017-11.91 24.18 10.344 5.096z"/></g></g></g><g><path d="m42.362 143.467c4.142 0 7.5-3.358 7.5-7.5v-120.967h262.06v66.773c0 8.458 6.881 15.339 15.339 15.339h67.26v37.349c0 4.142 3.358 7.5 7.5 7.5s7.5-3.358 7.5-7.5v-42.049c0-3.652-1.422-7.085-4.004-9.667l-78.739-78.74c-2.582-2.583-6.015-4.005-9.668-4.005h-268.577c-7.538 0-13.671 6.133-13.671 13.671v122.296c0 4.142 3.358 7.5 7.5 7.5zm284.56-61.694v-56.41l56.749 56.749h-56.41c-.186 0-.339-.152-.339-.339z"/><path d="m402.022 346.071c-4.142 0-7.5 3.358-7.5 7.5v144.328h-344.66v-329.942c0-4.142-3.358-7.5-7.5-7.5s-7.5 3.358-7.5 7.5v331.271c0 7.538 6.133 13.671 13.671 13.671h347.317c7.538 0 13.671-6.133 13.671-13.671v-145.657c.001-4.142-3.357-7.5-7.499-7.5z"/><path d="m140.177 90.755c0-8.056-6.554-14.61-14.611-14.61h-40.158c-8.056 0-14.61 6.554-14.61 14.61v40.158c0 8.057 6.554 14.611 14.61 14.611h40.158c8.057 0 14.611-6.554 14.611-14.611zm-15 39.769h-39.379v-39.379h39.379z"/><path d="m158.785 101.521h119.952c4.142 0 7.5-3.358 7.5-7.5s-3.358-7.5-7.5-7.5h-119.952c-4.142 0-7.5 3.358-7.5 7.5s3.358 7.5 7.5 7.5z"/><path d="m158.785 135.148h119.952c4.142 0 7.5-3.358 7.5-7.5s-3.358-7.5-7.5-7.5h-119.952c-4.142 0-7.5 3.358-7.5 7.5s3.358 7.5 7.5 7.5z"/><path d="m140.177 181.146c0-8.057-6.554-14.611-14.611-14.611h-40.158c-8.056 0-14.61 6.554-14.61 14.611v40.158c0 8.057 6.554 14.611 14.61 14.611h40.158c8.057 0 14.611-6.554 14.611-14.611zm-15 39.768h-39.379v-39.379h39.379z"/><path d="m319.422 176.91h-160.637c-4.142 0-7.5 3.358-7.5 7.5s3.358 7.5 7.5 7.5h160.637c4.142 0 7.5-3.358 7.5-7.5s-3.357-7.5-7.5-7.5z"/><path d="m326.922 218.039c0-4.142-3.358-7.5-7.5-7.5h-160.637c-4.142 0-7.5 3.358-7.5 7.5s3.358 7.5 7.5 7.5h160.637c4.143 0 7.5-3.358 7.5-7.5z"/><path d="m140.177 271.535c0-8.057-6.554-14.611-14.611-14.611h-40.158c-8.056 0-14.61 6.554-14.61 14.611v40.158c0 8.057 6.554 14.611 14.61 14.611h40.158c8.057 0 14.611-6.554 14.611-14.611zm-15 39.769h-39.379v-39.379h39.379z"/><path d="m158.785 282.3h143.299c4.142 0 7.5-3.358 7.5-7.5s-3.358-7.5-7.5-7.5h-143.299c-4.142 0-7.5 3.358-7.5 7.5s3.358 7.5 7.5 7.5z"/><path d="m319.879 308.428c0-4.142-3.358-7.5-7.5-7.5h-153.594c-4.142 0-7.5 3.358-7.5 7.5s3.358 7.5 7.5 7.5h153.594c4.142 0 7.5-3.358 7.5-7.5z"/><path d="m125.566 347.314h-40.158c-8.056 0-14.61 6.554-14.61 14.611v40.158c0 8.057 6.554 14.611 14.61 14.611h40.158c8.057 0 14.611-6.554 14.611-14.611v-40.158c0-8.057-6.554-14.611-14.611-14.611zm-.389 54.379h-39.379v-39.379h39.379z"/><path d="m292.462 365.189c0-4.142-3.358-7.5-7.5-7.5h-126.177c-4.142 0-7.5 3.358-7.5 7.5s3.358 7.5 7.5 7.5h126.177c4.142 0 7.5-3.357 7.5-7.5z"/><path d="m158.785 391.318c-4.142 0-7.5 3.358-7.5 7.5s3.358 7.5 7.5 7.5h103.146c4.142 0 7.5-3.358 7.5-7.5s-3.358-7.5-7.5-7.5z"/><path d="m466.79 125.486-10.31-5.076c-9.967-4.908-22.07-.792-26.978 9.176l-148.501 301.591c-.777 1.577-1.146 3.339-1.067 5.098l1.447 31.995c.172 3.813 2.406 7.229 5.83 8.915 1.464.721 3.046 1.077 4.622 1.077 2.11 0 4.209-.638 6-1.89l26.244-18.362c1.441-1.009 2.612-2.376 3.387-3.95l41.236-83.746c1.83-3.716.301-8.212-3.416-10.042-3.714-1.83-8.211-.301-10.042 3.416l-23.567 47.861-19.549-9.626 101.86-206.867 19.55 9.626-64.144 130.269c-1.83 3.716-.301 8.212 3.416 10.042 3.717 1.831 8.212.301 10.042-3.416l93.117-189.11c4.907-9.97.79-22.072-9.177-26.981zm-170.798 333.865-.861-19.03 16.469 8.109zm29.057-34.347-5.282 10.727-19.549-9.626 5.282-10.727zm95.563-243.407 5.282-10.727 19.55 9.626-5.282 10.727zm41.897-35.759-10.439 21.202-19.55-9.626 10.439-21.201c1.253-2.547 4.345-3.6 6.895-2.345l10.309 5.076c2.548 1.254 3.6 4.347 2.346 6.894z"/></g></g></svg>