<?xml version="1.0" encoding="iso-8859-1"?>
<!-- Generator: Adobe Illustrator 19.0.0, SVG Export Plug-In . SVG Version: 6.00 Build 0)  -->
<svg version="1.1" id="Capa_1" xmlns="http://www.w3.org/2000/svg" xmlns:xlink="http://www.w3.org/1999/xlink" x="0px" y="0px"
	 viewBox="0 0 512 512" style="enable-background:new 0 0 512 512;" xml:space="preserve">
<polyline style="fill:#008AC1;" points="143.37,197.564 101.568,136.388 163.141,136.388 240.984,188.865 "/>
<path style="fill:#E3E8EC;" d="M504.395,253.428c0,6.823-4.623,12.785-11.234,14.488l-17.276,4.461
	c-60.284,15.553-122.292,23.43-184.553,23.43H66.996c-28.773,0-52.528-22.487-54.11-51.22l-3.346-61.034
	c-0.03-0.395-0.051-0.781-0.071-1.166l-1.866-34.015h48.605l21.058,55.083l305.142-27.192c13.626-1.217,26.817,5.171,34.309,16.617
	l18.604,28.398l58.469,17.824c3.143,0.963,5.799,2.9,7.665,5.414C503.321,247.031,504.395,250.133,504.395,253.428z"/>
<path style="fill:#D5D8DB;" d="M504.395,253.428c0,6.823-4.623,12.785-11.234,14.488l-17.276,4.461
	c-60.284,15.553-122.292,23.43-184.553,23.43H66.996c-28.773,0-52.528-22.487-54.11-51.22l-3.346-61.034
	c2.443,39.439,20.48,94.847,158.456,94.847c139.335,0,288.362-14.944,325.794-39.297c3.143,0.963,5.799,2.9,7.665,5.414
	C503.321,247.031,504.395,250.133,504.395,253.428z"/>
<path style="fill:#A0D9F2;" d="M439.564,223.465l-25.97,5.936c-15.73,3.595-31.756-4.701-37.9-19.622l0,0l46.406-12.968"/>
<polygon style="fill:#008AC1;" points="167.997,278.401 307.331,278.401 163.137,375.612 101.57,375.612 "/>
<g>
	<circle style="fill:#A0D9F2;" cx="147.902" cy="237.152" r="14.447"/>
	<circle style="fill:#A0D9F2;" cx="210.701" cy="235.125" r="14.447"/>
	<circle style="fill:#A0D9F2;" cx="276.085" cy="232.083" r="14.447"/>
</g>
<path d="M507.563,239.986c-2.9-3.908-6.892-6.728-11.554-8.157l-55.834-17.021l-17.094-26.092
	c-9.047-13.822-24.882-21.496-41.346-20.027l-55.821,4.975c-4.183,0.373-7.271,4.066-6.899,8.249l0,0
	c0.373,4.183,4.066,7.271,8.249,6.898l55.822-4.975c9.158-0.813,18.004,2.666,24.135,9.237l-33.367,9.324
	c-1.285,0.359-2.5,0.981-3.452,1.916c-2.296,2.252-2.891,5.557-1.737,8.359c6.393,15.526,21.316,25.177,37.478,25.177
	c3.02,0,6.088-0.338,9.147-1.037l25.67-5.867l50.605,15.426c1.525,0.467,2.834,1.392,3.785,2.675
	c0.945,1.272,1.444,2.788,1.444,4.381c0,3.357-2.273,6.286-5.531,7.125l-17.274,4.46c-54.691,14.11-110.905,21.821-167.324,23.008
	l4.677-3.153c2.516-1.696,3.99-4.679,3.501-7.674c-0.611-3.742-3.822-6.398-7.51-6.398H167.997c-2.511,0-4.861,1.24-6.278,3.314
	l-9.63,14.093H66.996c-24.726,0-45.158-19.342-46.518-44.033l-4.841-88.195h35.337l19.189,50.194
	c1.215,3.176,4.385,5.158,7.778,4.858l214.053-19.075c4.183-0.373,7.271-4.066,6.899-8.249l0,0
	c-0.373-4.183-4.066-7.271-8.249-6.898l-47.648,4.246l-75.607-50.969c-1.255-0.847-2.735-1.299-4.25-1.299h-61.353
	c-2.258,0-4.473,0.892-5.95,2.601c-2.321,2.684-2.465,6.489-0.549,9.293l34.482,50.464l-47.455,4.229l-19.006-49.715
	c-1.125-2.944-3.951-4.889-7.103-4.889H7.689c-0.985,0-1.975,0.153-2.888,0.525c-3.165,1.293-4.963,4.342-4.789,7.495l5.282,96.216
	c1.802,32.752,28.905,58.407,61.702,58.407h74.7l-3.91,5.723c-2.369,3.467-1.479,8.199,1.988,10.569l0,0
	c3.467,2.369,8.199,1.479,10.568-1.988l21.668-31.71h110.439l-121.637,82.002h-44.836l16.916-24.754
	c2.369-3.467,1.479-8.199-1.988-10.568l0,0c-3.467-2.369-8.199-1.479-10.568,1.988l-24.921,36.47
	c-1.274,1.865-1.786,4.199-1.206,6.383c0.909,3.429,3.968,5.69,7.363,5.69h61.567c1.515,0,2.995-0.452,4.25-1.299l116.449-78.505
	h7.497c62.838,0,125.57-7.964,186.454-23.672l17.273-4.46c9.973-2.57,16.94-11.556,16.94-21.852
	C512,248.547,510.465,243.9,507.563,239.986z M411.9,221.988c-9.176,2.095-18.408-1.004-24.43-7.605l28.945-8.089l8.354,12.752
	L411.9,221.988z M115.973,143.993h44.843l58.151,39.202l-71.833,6.402L115.973,143.993z"/>
<path d="M125.854,237.151c0,12.159,9.892,22.051,22.05,22.051c12.158,0,22.05-9.892,22.05-22.051
	c0-12.159-9.892-22.051-22.05-22.051C135.746,215.1,125.854,224.993,125.854,237.151z M154.747,237.151
	c0,3.774-3.069,6.844-6.843,6.844c-3.774,0-6.843-3.07-6.843-6.844c0-3.774,3.069-6.844,6.843-6.844
	C151.678,230.308,154.747,233.379,154.747,237.151z"/>
<path d="M188.646,235.124c0,12.159,9.892,22.05,22.05,22.05s22.05-9.891,22.05-22.05c0-12.159-9.892-22.051-22.05-22.051
	S188.646,222.966,188.646,235.124z M217.54,235.124c0,3.773-3.069,6.843-6.843,6.843s-6.843-3.07-6.843-6.843
	c0-3.774,3.069-6.844,6.843-6.844S217.54,231.351,217.54,235.124z"/>
<path d="M254.036,232.082c0,12.159,9.892,22.051,22.05,22.051s22.05-9.892,22.05-22.051c0-12.159-9.892-22.05-22.05-22.05
	S254.036,219.923,254.036,232.082z M282.93,232.082c0,3.774-3.069,6.844-6.843,6.844c-3.774,0-6.843-3.07-6.843-6.844
	c0-3.773,3.069-6.843,6.843-6.843C279.861,225.24,282.93,228.31,282.93,232.082z"/>
<g>
</g>
<g>
</g>
<g>
</g>
<g>
</g>
<g>
</g>
<g>
</g>
<g>
</g>
<g>
</g>
<g>
</g>
<g>
</g>
<g>
</g>
<g>
</g>
<g>
</g>
<g>
</g>
<g>
</g>
</svg>
