<svg id="Capa_1" enable-background="new 0 0 512 512" height="512" viewBox="0 0 512 512" width="512" xmlns="http://www.w3.org/2000/svg"><g><g><path d="m448.939 504.5h-37v-99.4l20.001-11.58 16.999 11.58c11.046 0 20 8.954 20 20v59.4c0 11.046-8.954 20-20 20z" fill="#d5717f"/><path d="m431.94 405.1v99.4h-20l-32.408-49.7 32.408-49.7 11.739-9.99z" fill="#cd5668"/><path d="m448.939 305.7h-37v-99.4h37c11.046 0 20 8.954 20 20v59.4c0 11.046-8.954 20-20 20z" fill="#bed9fd"/><path d="m431.94 206.3v99.4l-9.582 7.502-10.418-7.502-26.243-44.42 26.243-54.98 9.757-10.016z" fill="#9ec8fc"/><path d="m448.939 206.3h-16.999l-9.912-8.254-10.088 8.254v-79.4c0-11.046 8.954-20 20-20h17c11.046 0 20 8.954 20 20v59.4c-.001 11.046-8.955 20-20.001 20z" fill="#ffe07d"/><path d="m448.939 405.1h-16.999l-6.83-11.58-13.171 11.58v-99.4l9.648 5.961 10.353-5.961h16.999c11.046 0 20 8.954 20 20v59.4c0 11.046-8.954 20-20 20z" fill="#94d4a2"/><path d="m468.67 123.65c-4.48 2.09-9.47 3.25-14.73 3.25h-11c-6.075 0-11 4.925-11 11v68.4h-20l-11.711-82.896c0-11.046 20.665-22.018 31.711-22.018l17 5.515c9.94-.001 18.18 7.239 19.73 16.749z" fill="#ffd064"/><path d="m431.94 305.7v99.4h-20l-13.472-44.528 13.472-54.872z" fill="#7fcb8f"/><path d="m85.697 22.339 1.101 464.119c0 8.284 6.716 15 15 15l305.367-2.642 4.774-14.317v-357.599c0-11.046 8.954-20 20-20h22c8.284 0 15-6.716 15-15v-69.4c0-8.284-6.716-15-15-15h-357.608c-8.284 0-10.634 6.555-10.634 14.839z" fill="#5f6c75"/><path d="m411.941 484.5v20h-315.61c-8.284 0-15-6.716-15-15v-467c0-8.284 6.716-15 15-15h5v471c0 3.314 2.686 6 6 6z" fill="#4e5a61"/><path d="m468.94 86.9v5c0 8.28-6.72 15-15 15h-22c-8.87 0-16.38 5.76-19 13.75v-13.75c0-11.05 8.95-20 20-20z" fill="#4e5a61"/><g fill="#f5fcff"><path d="m101.019 92.248h-37.958c-11.046 0-17.217-3.142-17.217-14.188 0-11.046 6.171-19.996 17.217-19.996h37.957c11.046 0 20 8.954 20 20 0 11.046-8.954 14.184-19.999 14.184z"/><path d="m101.019 182.413h-37.958c-11.046 0-14.905-3.307-14.905-14.353 0-11.046 3.859-19.996 14.905-19.996h37.957c11.046 0 20 8.954 20 20 0 11.046-8.954 14.349-19.999 14.349z"/><path d="m101.165 275.22-36.495-3.138c-11.046 0-12.881-2.977-12.881-14.023 0-11.046.226-19.996 11.272-19.996h37.957c11.046 0 20 8.954 20 20 0 11.047-8.807 17.157-19.853 17.157z"/><path d="m100.67 363.073-36.33-.165c-11.046 0-17.67-3.803-17.67-14.848 0-11.046 5.345-19.996 16.391-19.996h37.957c11.046 0 20 8.954 20 20 0 11.046-9.303 15.009-20.348 15.009z"/><path d="m101 456.046-36.661-2.147c-11.046 0-18.826-5.799-18.826-16.844 0-11.046 6.501-18.991 17.547-18.991h37.957c11.046 0 20 8.954 20 20 .001 11.046-8.971 17.982-20.017 17.982z"/></g><path d="m121.02 78.06c0 5.52-2.24 10.52-5.86 14.14s-8.62 5.86-14.14 5.86h-37.96c-11.05 0-20-8.95-20-20 0-5.52 2.24-10.52 5.86-14.14s8.62-5.86 14.14-5.86c0 11.05 8.95 20 20 20z" fill="#e6f7fe"/><path d="m121.02 168.06c0 5.52-2.24 10.52-5.86 14.14s-8.62 5.86-14.14 5.86h-37.96c-11.05 0-20-8.95-20-20 0-5.52 2.24-10.52 5.86-14.14s8.62-5.86 14.14-5.86c0 11.05 8.95 20 20 20z" fill="#e6f7fe"/><path d="m121.02 258.06c0 5.52-2.24 10.52-5.86 14.14s-8.62 5.86-14.14 5.86h-37.96c-11.05 0-20-8.95-20-20 0-5.52 2.24-10.52 5.86-14.14s8.62-5.86 14.14-5.86c0 11.05 8.95 20 20 20z" fill="#e6f7fe"/><path d="m121.02 348.06c0 5.52-2.24 10.52-5.86 14.14s-8.62 5.86-14.14 5.86h-37.96c-11.05 0-20-8.95-20-20 0-5.52 2.24-10.52 5.86-14.14s8.62-5.86 14.14-5.86c0 11.05 8.95 20 20 20z" fill="#e6f7fe"/><path d="m121.02 438.06c0 5.52-2.24 10.52-5.86 14.14s-8.62 5.86-14.14 5.86h-37.96c-11.05 0-20-8.95-20-20 0-5.52 2.24-10.52 5.86-14.14s8.62-5.86 14.14-5.86c0 11.05 8.95 20 20 20z" fill="#e6f7fe"/><path d="m333.34 442.064-131.695-.004c-11.046 0-20-8.954-20-20l-1.497-60c0-8.956 2.266-17.533 10.381-20.081 1.894-.595 3.909-.915 5.999-.915h139c11.046 0 20 8.954 20 20v64c0 2.089-.32 4.104-.915 5.997-2.547 8.116-12.316 11.003-21.273 11.003z" fill="#f5fcff"/><path d="m354.61 431.06c-2.54 8.12-10.13 14-19.08 14h-139c-11.05 0-20-8.95-20-20v-64c0-8.95 5.88-16.54 14-19.08v83.08c0 3.31 2.69 6 6 6z" fill="#e6f7fe"/></g><g><g><path d="m476.439 91.9v-69.4c0-12.407-10.094-22.5-22.5-22.5h-43.748c-4.143 0-7.5 3.358-7.5 7.5s3.357 7.5 7.5 7.5h43.748c4.136 0 7.5 3.364 7.5 7.5v69.4c0 4.136-3.364 7.5-7.5 7.5h-22c-15.163 0-27.5 12.336-27.5 27.5v125.207c0 4.142 3.357 7.5 7.5 7.5s7.5-3.358 7.5-7.5v-38.307h29.5c6.893 0 12.5 5.607 12.5 12.5v59.4c0 6.893-5.607 12.5-12.5 12.5h-29.5v-10.775c0-4.142-3.357-7.5-7.5-7.5s-7.5 3.358-7.5 7.5v209.575h-34.589c-4.143 0-7.5 3.358-7.5 7.5s3.357 7.5 7.5 7.5h42.089 37c15.163 0 27.5-12.336 27.5-27.5v-59.4c0-7.875-3.333-14.982-8.655-20 5.323-5.018 8.655-12.125 8.655-20v-59.4c0-7.875-3.333-14.982-8.655-20 5.323-5.018 8.655-12.125 8.655-20v-59.4c0-7.875-3.333-14.982-8.655-20 5.323-5.018 8.655-12.125 8.655-20v-59.4c0-7.131-2.729-13.635-7.196-18.527 4.423-4.111 7.196-9.973 7.196-16.473zm-15 333.2v59.4c0 6.893-5.607 12.5-12.5 12.5h-29.5v-84.4h29.5c6.893 0 12.5 5.608 12.5 12.5zm0-99.4v59.4c0 6.893-5.607 12.5-12.5 12.5h-29.5v-84.4h29.5c6.893 0 12.5 5.608 12.5 12.5zm-42-126.9v-71.9c0-6.893 5.607-12.5 12.5-12.5h17c6.893 0 12.5 5.607 12.5 12.5v59.4c0 6.893-5.607 12.5-12.5 12.5z"/><path d="m334.745 497h-238.414c-4.136 0-7.5-3.364-7.5-7.5v-23.936h12.188c15.163 0 27.5-12.336 27.5-27.5s-12.337-27.5-27.5-27.5h-12.188v-35h12.188c15.163 0 27.5-12.336 27.5-27.5s-12.337-27.5-27.5-27.5h-12.188v-35h12.188c15.163 0 27.5-12.336 27.5-27.5s-12.337-27.5-27.5-27.5h-12.188v-35h12.188c15.163 0 27.5-12.336 27.5-27.5s-12.337-27.5-27.5-27.5h-12.188v-35h12.188c15.163 0 27.5-12.336 27.5-27.5s-12.337-27.5-27.5-27.5h-12.188v-28.064c0-4.136 3.364-7.5 7.5-7.5h278.712c4.143 0 7.5-3.358 7.5-7.5s-3.357-7.5-7.5-7.5h-278.712c-12.406 0-22.5 10.093-22.5 22.5v28.064h-10.77c-15.163 0-27.5 12.336-27.5 27.5s12.337 27.5 27.5 27.5h10.771v35h-10.771c-15.163 0-27.5 12.336-27.5 27.5s12.337 27.5 27.5 27.5h10.771v35h-10.771c-15.163 0-27.5 12.336-27.5 27.5s12.337 27.5 27.5 27.5h10.771v35h-10.771c-15.163 0-27.5 12.336-27.5 27.5s12.337 27.5 27.5 27.5h10.771v35h-10.771c-15.163 0-27.5 12.336-27.5 27.5s12.337 27.5 27.5 27.5h10.771v23.936c0 12.407 10.094 22.5 22.5 22.5h238.414c4.143 0 7.5-3.358 7.5-7.5s-3.358-7.5-7.501-7.5zm-284.184-418.936c0-6.893 5.607-12.5 12.5-12.5h37.958c6.893 0 12.5 5.607 12.5 12.5s-5.607 12.5-12.5 12.5h-37.958c-6.893 0-12.5-5.607-12.5-12.5zm0 90c0-6.893 5.607-12.5 12.5-12.5h37.958c6.893 0 12.5 5.607 12.5 12.5s-5.607 12.5-12.5 12.5h-37.958c-6.893 0-12.5-5.607-12.5-12.5zm0 90c0-6.893 5.607-12.5 12.5-12.5h37.958c6.893 0 12.5 5.607 12.5 12.5s-5.607 12.5-12.5 12.5h-37.958c-6.893 0-12.5-5.607-12.5-12.5zm0 90c0-6.893 5.607-12.5 12.5-12.5h37.958c6.893 0 12.5 5.607 12.5 12.5s-5.607 12.5-12.5 12.5h-37.958c-6.893 0-12.5-5.607-12.5-12.5zm0 90c0-6.893 5.607-12.5 12.5-12.5h37.958c6.893 0 12.5 5.607 12.5 12.5s-5.607 12.5-12.5 12.5h-37.958c-6.893 0-12.5-5.607-12.5-12.5z"/><path d="m363.028 361.064c0-15.164-12.337-27.5-27.5-27.5h-100.23c-4.143 0-7.5 3.358-7.5 7.5s3.357 7.5 7.5 7.5h100.23c6.893 0 12.5 5.607 12.5 12.5v64c0 6.893-5.607 12.5-12.5 12.5h-139c-6.893 0-12.5-5.607-12.5-12.5v-64c0-6.893 5.607-12.5 12.5-12.5h3.706c4.143 0 7.5-3.358 7.5-7.5s-3.357-7.5-7.5-7.5h-3.706c-15.163 0-27.5 12.336-27.5 27.5v64c0 15.164 12.337 27.5 27.5 27.5h139c15.163 0 27.5-12.336 27.5-27.5z"/><path d="m322.912 371.075h-113.766c-4.143 0-7.5 3.358-7.5 7.5s3.357 7.5 7.5 7.5h113.767c4.143 0 7.5-3.358 7.5-7.5s-3.358-7.5-7.501-7.5z"/><path d="m322.912 401.564h-113.766c-4.143 0-7.5 3.358-7.5 7.5s3.357 7.5 7.5 7.5h113.767c4.143 0 7.5-3.358 7.5-7.5s-3.358-7.5-7.501-7.5z"/></g></g></g></svg>