<?xml version="1.0" encoding="iso-8859-1"?>
<!-- Generator: Adobe Illustrator 19.0.0, SVG Export Plug-In . SVG Version: 6.00 Build 0)  -->
<svg version="1.1" id="Capa_1" xmlns="http://www.w3.org/2000/svg" xmlns:xlink="http://www.w3.org/1999/xlink" x="0px" y="0px"
	 viewBox="0 0 511.998 511.998" style="enable-background:new 0 0 511.998 511.998;" xml:space="preserve">
<polyline style="fill:#368A50;" points="244.032,356.928 244.032,264.96 350.477,264.96 350.477,365.069 "/>
<polygon style="fill:#5EBC77;" points="392.256,447.982 409.786,431.984 361.121,365.069 262.27,365.069 215.135,344.031 
	162.668,165.095 139.096,165.095 167.991,403.089 145.169,431.669 180.157,474.566 180.157,504.393 301.81,504.393 421.952,504.393 
	"/>
<g>
	<polyline style="fill:#368A50;" points="192.973,371.796 141.704,186.548 167.993,403.089 	"/>
	<polygon style="fill:#368A50;" points="215.135,344.033 169.485,461.475 145.177,431.67 	"/>
	<polygon style="fill:#368A50;" points="208.788,322.387 215.135,344.033 167.991,403.089 161.862,352.589 	"/>
	<path style="fill:#368A50;" d="M162.67,96.913v68.182h-26.401c-2.058,0-4.045-0.253-5.951-0.73
		c-10.676-2.656-18.594-12.308-18.594-23.816V96.913L162.67,96.913L162.67,96.913z"/>
	<polygon style="fill:#368A50;" points="235.881,504.394 314.962,365.071 361.124,365.071 258.679,504.394 	"/>
</g>
<path style="fill:#5EBC77;" d="M162.67,134.487v30.608h-26.401c-2.058,0-4.045-0.253-5.951-0.73V148.8
	c0-7.905,6.409-14.314,14.314-14.314H162.67z"/>
<polyline style="fill:#FFA700;" points="109.752,85.259 101.049,22.332 124.193,40.407 141.216,7.603 152.212,38.398 
	173.349,22.332 165.985,85.259 "/>
<path style="fill:#5EBC77;" d="M297.254,211.732L297.254,211.732c-29.395,0-53.225,23.83-53.225,53.225v25.852
	c0,29.395,23.83,53.225,53.225,53.225l0,0l0,0c29.396,0,53.226-23.83,53.226-53.225v-25.852
	C350.479,235.56,326.65,211.732,297.254,211.732z"/>
<g>
	<path style="fill:#368A50;" d="M262.279,290.809v-25.852c0-26.282,19.055-48.101,44.1-52.43c-2.967-0.513-6.012-0.795-9.125-0.795
		c-29.395,0-53.225,23.83-53.225,53.225v25.852c0,29.395,23.83,53.225,53.225,53.225c3.113,0,6.158-0.283,9.125-0.795
		C281.333,338.908,262.279,317.091,262.279,290.809z"/>
	<path style="fill:#368A50;" d="M350.481,264.96v25.843l-0.284,0.03c-1.288-12.481-6.894-23.684-15.299-32.089
		c-9.632-9.632-22.944-15.583-37.645-15.583c-28.459,0-51.697,22.335-53.146,50.429c-0.051-0.923-0.071-1.855-0.071-2.788V264.96
		c0-14.701,5.961-28.013,15.583-37.645c9.632-9.632,22.944-15.583,37.634-15.583C326.656,211.733,350.481,235.558,350.481,264.96z"
		/>
</g>
<rect x="90.06" y="84.748" style="fill:#47A562;" width="94.289" height="24.332"/>
<rect x="90.06" y="84.748" style="fill:#368A50;" width="40.383" height="24.332"/>
<path d="M428.581,500.663l-26.855-51.026l13.187-12.041c2.86-2.612,3.3-6.956,1.022-10.088l-48.663-66.911
	c-1.431-1.968-3.717-3.132-6.149-3.132h-3.042l0.001-92.511c0-3.339-0.282-6.611-0.802-9.805l23.11-6.845
	c3.709-1.098,6.224-4.742,5.599-8.559c-0.756-4.615-5.337-7.381-9.671-6.095l-23.355,6.918c-0.62-1.412-1.289-2.798-2.012-4.152
	l31.476-22.21c3.431-2.421,4.25-7.166,1.829-10.597c-2.421-3.431-7.163-4.251-10.597-1.829l-31.479,22.212
	c-2.241-2.456-4.689-4.716-7.301-6.78l24.74-41.12c2.165-3.598,1.003-8.271-2.596-10.436c-3.599-2.165-8.271-1.004-10.436,2.595
	l-24.725,41.094c-5.315-2.361-11.026-3.978-17.005-4.728v-57.96c0-4.164-3.209-7.795-7.371-7.919
	c-4.306-0.129-7.837,3.323-7.837,7.601v58.279c-5.981,0.749-11.692,2.367-17.006,4.729l-24.725-41.095
	c-2.167-3.598-6.838-4.76-10.436-2.595c-3.599,2.165-4.76,6.837-2.597,10.436l24.74,41.12c-2.612,2.062-5.06,4.323-7.301,6.779
	l-31.479-22.212c-3.433-2.421-8.175-1.602-10.597,1.829c-2.422,3.432-1.602,8.176,1.829,10.597l31.476,22.21
	c-0.723,1.354-1.391,2.739-2.011,4.152l-23.355-6.918c-4.104-1.215-8.415,1.191-9.513,5.356c-1.061,4.026,1.508,8.133,5.5,9.315
	l23.05,6.827c-0.52,3.194-0.802,6.466-0.802,9.805l0.004,80.252l-14.985-6.687l-51.169-174.518v-46.81h14.066
	c4.199,0,7.604-3.405,7.604-7.604v-24.33c0-4.199-3.405-7.604-7.604-7.604h-9.81l6.345-54.224c0.286-2.446-0.503-4.952-2.304-6.631
	c-2.795-2.607-6.927-2.723-9.825-0.521l-12.866,9.781l-7.416-20.77c-0.82-2.295-2.598-4.188-4.921-4.925
	c-3.628-1.152-7.404,0.517-9.076,3.738l-12.807,24.679l-15.757-12.306c-1.976-1.544-4.585-2.164-6.988-1.445
	c-3.712,1.11-5.903,4.692-5.399,8.344l7.508,54.282H90.056c-4.199,0-7.604,3.405-7.604,7.604v24.332
	c0,4.199,3.405,7.604,7.604,7.604h14.066v23.36c0,16.392,12.336,29.948,28.211,31.897l12.599,103.778
	c0.506,4.169,4.296,7.139,8.465,6.632l0,0c4.169-0.506,7.139-4.296,6.632-8.465L147.683,172.7h9.293l49.75,169.68l-33.369,41.801
	l-8.949-73.709c-0.506-4.169-4.296-7.139-8.465-6.632l0,0c-4.169,0.506-7.138,4.296-6.632,8.465l10.749,88.533l-20.826,26.089
	c-2.234,2.798-2.213,6.776,0.05,9.55l33.271,40.794v27.124c0,4.199,3.405,7.604,7.604,7.604h78.507c0.002,0,0.004,0,0.006,0
	c0.003,0,0.006,0,0.009,0h163.27c3.237,0,6.188-2.058,7.239-5.266C429.848,504.728,429.563,502.531,428.581,500.663z
	 M297.254,219.336c21.729,0,39.946,15.275,44.509,35.647c-11.114-11.94-26.949-19.428-44.509-19.428
	c-17.56,0-33.397,7.488-44.51,19.428C257.307,234.609,275.525,219.336,297.254,219.336z M251.636,330.984
	c11.156,12.651,27.465,20.653,45.618,20.653c4.2,0,7.604-3.405,7.604-7.604s-3.404-7.604-7.604-7.604
	c-24.219,0-44.082-18.972-45.528-42.834c1.447-23.861,21.309-42.834,45.528-42.834c25.143,0,45.598,20.444,45.62,45.582v61.123
	h-78.977l-12.261-5.472V330.984z M111.151,39.868l8.362,6.531c1.781,1.391,4.091,1.917,6.299,1.437
	c2.209-0.482,4.089-1.92,5.131-3.928l8.982-17.31l5.127,14.356c0.816,2.283,2.672,4.041,4.995,4.732
	c2.324,0.69,4.837,0.232,6.769-1.236l6.904-5.248l-4.5,38.452h-42.843L111.151,39.868z M97.66,92.863h79.076v9.124H162.67h-50.943
	H97.66V92.863z M119.331,140.555v-23.36h35.736v40.298h-18.797C126.929,157.492,119.331,149.894,119.331,140.555z M187.763,477.096
	l38.762-51.684c2.519-3.36,1.838-8.126-1.521-10.646c-3.36-2.519-8.125-1.839-10.646,1.521l-34.45,45.935l-24.961-30.604
	l62.461-78.245l33.068,14.757l-12.393,16.525c-2.519,3.36-1.838,8.126,1.521,10.646c1.369,1.026,2.969,1.521,4.556,1.521
	c2.312,0,4.595-1.05,6.089-3.042l15.829-21.107h80.016L254.832,496.79h-67.069L187.763,477.096L187.763,477.096z M273.708,496.79
	l87.382-118.839l38.547,53l-29.952,27.349c-3.102,2.832-3.319,7.641-0.489,10.743c1.501,1.642,3.556,2.477,5.618,2.477
	c1.831,0,3.667-0.657,5.125-1.988l10.181-9.296l19.238,36.554H273.708z"/>
<path d="M304.858,287.474l19.59,4.59c0.583,0.137,1.166,0.202,1.742,0.202c3.45,0,6.575-2.365,7.397-5.871
	c0.957-4.089-1.581-8.18-5.669-9.138l-28.928-6.778c-1.141-0.268-2.329-0.268-3.469,0l-28.929,6.778
	c-4.089,0.958-6.627,5.049-5.67,9.138c0.958,4.089,5.047,6.627,9.139,5.669l19.591-4.59v11.381c0,4.199,3.404,7.604,7.604,7.604
	c4.2,0,7.604-3.405,7.604-7.604L304.858,287.474L304.858,287.474z"/>
<g>
</g>
<g>
</g>
<g>
</g>
<g>
</g>
<g>
</g>
<g>
</g>
<g>
</g>
<g>
</g>
<g>
</g>
<g>
</g>
<g>
</g>
<g>
</g>
<g>
</g>
<g>
</g>
<g>
</g>
</svg>
