<?xml version="1.0" encoding="iso-8859-1"?>
<!-- Generator: Adobe Illustrator 22.0.0, SVG Export Plug-In . SVG Version: 6.00 Build 0)  -->
<svg version="1.1" id="Capa_1" xmlns="http://www.w3.org/2000/svg" xmlns:xlink="http://www.w3.org/1999/xlink" x="0px" y="0px"
	 viewBox="0 0 512 512" style="enable-background:new 0 0 512 512;" xml:space="preserve">
<g>
	<g>
		<path style="fill:#6F6571;" d="M311.655,46.574c-32.768-25.368-78.543-25.368-111.311,0L7.5,195.873L256,404.292l248.5-208.419
			L311.655,46.574z"/>
		
			<rect x="28.14" y="153.878" transform="matrix(0.8233 -0.5676 0.5676 0.8233 -98.1196 152.8593)" style="fill:#F4DBB3;" width="336.677" height="160.323"/>
		<circle style="fill:#B9CDA5;" cx="269.078" cy="183.994" r="16.032"/>
		
			<ellipse transform="matrix(0.8233 -0.5676 0.5676 0.8233 -98.1196 152.8593)" style="fill:#9B959D;" cx="196.479" cy="234.039" rx="40.081" ry="48.097"/>
		
			<rect x="95.238" y="196.253" transform="matrix(0.9664 -0.2571 0.2571 0.9664 -62.2128 77.0683)" style="fill:#F9EAC7;" width="336.677" height="160.323"/>
		<circle style="fill:#B6B1B7;" cx="178.364" cy="299.088" r="16.032"/>
		<circle style="fill:#B9CDA5;" cx="348.789" cy="253.741" r="16.032"/>
		
			<ellipse transform="matrix(0.9664 -0.2571 0.2571 0.9664 -62.2128 77.0683)" style="fill:#9B959D;" cx="263.576" cy="276.415" rx="40.081" ry="48.097"/>
		<path style="fill:#857E87;" d="M256,388.26L7.5,195.873v272.548c0,8.854,7.178,16.032,16.032,16.032h464.935
			c8.854,0,16.032-7.178,16.032-16.032V195.873L256,388.26z"/>
		<path style="fill:#6F6571;" d="M79.645,460.835l-6.878-0.986c-23.498-3.371-41.219-23.809-41.219-47.54V214.491L7.5,195.873
			v272.548c0,8.854,7.179,16.032,16.032,16.032h56.113v-16.67V460.835z"/>
		<path style="fill:#9B959D;" d="M488.468,484.453c4.116,0,7.83-1.595,10.669-4.145L314.877,337.656
			c-34.67-26.841-83.104-26.841-117.774,0L12.854,480.3c2.84,2.554,6.558,4.153,10.678,4.153H488.468z"/>
		<path style="fill:#857E87;" d="M23.532,484.453h464.935c4.116,0,7.83-1.595,10.669-4.145l-25.709-19.903H79.645
			c-10.475,0-20.3-3.398-28.646-9.637L12.855,480.3C15.694,482.855,19.413,484.453,23.532,484.453z"/>
	</g>
	<g>
		<path d="M509.091,189.942L316.247,40.643c-35.473-27.463-85.021-27.462-120.494,0L2.909,189.942
			c-1.834,1.42-2.909,3.61-2.909,5.93v272.549c0,12.976,10.557,23.532,23.532,23.532h464.936c12.976,0,23.532-10.557,23.532-23.532
			V195.873C512,193.552,510.926,191.363,509.091,189.942z M204.936,52.504c30.065-23.277,72.063-23.277,102.129,0l185.184,143.368
			l-14.622,11.32c-3.275,2.536-3.875,7.246-1.339,10.522c2.536,3.275,7.246,3.875,10.522,1.339l10.191-7.89v257.257
			c0,0.24-0.016,0.477-0.036,0.712L330.377,340.163l130.534-101.059c3.275-2.536,3.875-7.246,1.339-10.522
			c-2.536-3.275-7.247-3.875-10.522-1.339l-16.545,12.809l-22.939-86.189c-1.064-4.003-5.175-6.383-9.176-5.319l-44.275,11.775
			l-62.702-90.975c-1.129-1.638-2.862-2.76-4.818-3.12c-1.954-0.359-3.976,0.072-5.613,1.201L57.216,224.877l-37.464-29.004
			L204.936,52.504z M153.105,371.726c-2.535-3.275-7.246-3.875-10.521-1.339L15.036,469.134c-0.02-0.236-0.036-0.472-0.036-0.712
			V211.164l166.624,128.999l-11.891,9.206c-3.275,2.536-3.875,7.247-1.339,10.522c2.537,3.275,7.246,3.875,10.522,1.339
			l26.02-20.145c30.066-23.277,72.063-23.277,102.129,0l175.497,135.869H29.439l122.328-94.705
			C155.042,379.713,155.642,375.002,153.105,371.726z M407.671,261.352l-18.166-68.256c-1.065-4.003-5.174-6.383-9.176-5.319
			l-15.492,4.123c-4.003,1.065-6.384,5.174-5.319,9.177s5.177,6.384,9.176,5.319l8.245-2.194l17.862,67.115l-23.917,18.517
			l-66.144,17.604c6.406-12.329,8.232-27.889,4.177-43.122c-4.115-15.463-13.454-27.913-25.043-35.335l53.832-14.336
			c4.003-1.065,6.384-5.174,5.319-9.177c-1.065-4.003-5.176-6.382-9.176-5.319l-229.597,61.146l-17.013-13.171l312.439-83.153
			l22.635,85.048L407.671,261.352z M316.247,329.224c-3.176-2.459-6.469-4.688-9.85-6.707l33.935-9.032l-22.206,17.192
			L316.247,329.224z M195.753,329.224l-1.878,1.454l-10.982-8.502c0.296-0.067,0.591-0.127,0.886-0.205
			c6.074-1.617,11.155-5.502,14.307-10.94c3.152-5.438,3.998-11.778,2.381-17.853v0c-1.616-6.074-5.501-11.156-10.94-14.308
			c-5.439-3.152-11.78-3.997-17.853-2.381c-6.074,1.617-11.155,5.502-14.307,10.94c-2.239,3.863-3.308,8.181-3.163,12.535
			l-35.033-27.122l101.946-27.15c-6.361,12.199-8.273,27.639-4.159,43.096c2.349,8.826,6.475,16.905,11.959,23.641
			C217.152,315.793,205.878,321.385,195.753,329.224z M185.108,303.508c-1.143,1.972-2.985,3.38-5.188,3.967
			c-4.547,1.211-9.23-1.504-10.44-6.051c-0.586-2.202-0.279-4.501,0.863-6.473c1.143-1.972,2.985-3.38,5.188-3.967
			c0.731-0.195,1.472-0.291,2.208-0.291c1.483,0,2.947,0.39,4.265,1.154c1.972,1.143,3.38,2.985,3.967,5.188v0
			C186.558,299.238,186.251,301.536,185.108,303.508z M246.669,309.088c-7.222-5.835-12.608-14.361-15.216-24.157
			c-5.707-21.445,3.526-42.612,20.601-47.477l0.891-0.237c17.238-4.271,35.771,9.509,41.478,30.956
			c4.689,17.618-0.71,35.536-12.869,43.844C270.159,308.956,258.339,307.979,246.669,309.088z M173.767,201.707
			c9.075-6.252,21.121-6.259,32.141-0.726l-40.9,10.878c2.093-4.129,5.056-7.599,8.751-10.146L173.767,201.707z M264.562,178.07
			c1.876-1.294,4.146-1.778,6.386-1.366c2.241,0.412,4.188,1.673,5.482,3.55c0.376,0.545,0.675,1.125,0.913,1.728l-16.378,4.356
			C260.515,183.214,261.826,179.956,264.562,178.07z M325.884,169.072l-37.997-55.129c-2.351-3.41-7.02-4.27-10.432-1.919
			l-13.2,9.098c-3.41,2.351-4.27,7.021-1.919,10.431c2.351,3.411,7.02,4.27,10.432,1.919l7.025-4.842l30.696,44.536l-18.608,4.949
			c-0.701-2.262-1.738-4.399-3.1-6.375c-3.567-5.176-8.936-8.652-15.118-9.789c-6.181-1.137-12.437,0.201-17.612,3.768
			c-8.032,5.536-11.589,15.364-9.591,24.477l-21.438,5.701c-7.436-6.436-15.847-10.719-24.391-12.706l45.735-31.522
			c3.411-2.351,4.27-7.021,1.919-10.432c-2.351-3.41-7.02-4.27-10.432-1.919L112.247,225.89l-39.987,10.635l-2.596-2.01
			L287.997,84.033l55.401,80.381L325.884,169.072z"/>
		<path d="M342.097,231.132c-12.539,3.337-20.025,16.254-16.688,28.793c1.617,6.074,5.502,11.156,10.94,14.308
			c3.634,2.106,7.67,3.182,11.762,3.182c2.031,0,4.076-0.265,6.091-0.802c12.539-3.337,20.025-16.253,16.688-28.792v0
			C367.552,235.282,354.638,227.796,342.097,231.132z M356.395,251.679c1.209,4.546-1.505,9.23-6.051,10.439
			c-2.201,0.586-4.501,0.28-6.473-0.863c-1.972-1.143-3.38-2.985-3.967-5.187c-1.209-4.546,1.505-9.23,6.051-10.44
			c0.733-0.195,1.468-0.288,2.193-0.288C351.919,245.34,355.379,247.865,356.395,251.679z"/>
		<path d="M267.056,299.546c0.639,0,1.288-0.082,1.934-0.254c4.003-1.065,6.384-5.174,5.319-9.177l-8.247-30.986
			c-1.065-4.003-5.176-6.384-9.176-5.319c-4.003,1.065-6.384,5.174-5.319,9.177l8.247,30.986
			C260.707,297.33,263.74,299.546,267.056,299.546z"/>
	</g>
</g>
<g>
</g>
<g>
</g>
<g>
</g>
<g>
</g>
<g>
</g>
<g>
</g>
<g>
</g>
<g>
</g>
<g>
</g>
<g>
</g>
<g>
</g>
<g>
</g>
<g>
</g>
<g>
</g>
<g>
</g>
</svg>
