<?xml version="1.0" encoding="iso-8859-1"?>
<!-- Generator: Adobe Illustrator 19.0.0, SVG Export Plug-In . SVG Version: 6.00 Build 0)  -->
<svg version="1.1" id="Layer_1" xmlns="http://www.w3.org/2000/svg" xmlns:xlink="http://www.w3.org/1999/xlink" x="0px" y="0px"
	 viewBox="0 0 512 512" style="enable-background:new 0 0 512 512;" xml:space="preserve">
<g id="XMLID_1745_">
	<path id="XMLID_1741_" style="fill:#FEDA9B;" d="M313,64H77c-11.046,0-20,8.954-20,20v398c0,11.046,8.954,20,20,20h304
		c11.046,0,20-8.954,20-20V152L313,64z"/>
	<path id="XMLID_1882_" style="fill:#FFFFFF;" d="M367,10H131c-11.046,0-20,8.954-20,20v398c0,11.046,8.954,20,20,20h304
		c11.046,0,20-8.954,20-20V98L367,10z"/>
	<g id="XMLID_1104_">
		<path id="XMLID_1127_" style="fill:#FFFFFF;" d="M367,10H131c-11.046,0-20,8.954-20,20v398c0,11.046,8.954,20,20,20h304
			c11.046,0,20-8.954,20-20V98L367,10z"/>
		<rect id="XMLID_1126_" x="174.543" y="64" style="fill:#FF5D5D;" width="216" height="64"/>
		<path id="XMLID_1119_" style="fill:#FEDA9B;" d="M455,98h-60.5C379.312,98,367,85.688,367,70.5V10L455,98z"/>
	</g>
	<g id="XMLID_443_">
		<path id="XMLID_446_" d="M462.071,90.929l-88-88C372.195,1.054,369.652,0,367,0H131c-16.542,0-30,13.458-30,30v24H77
			c-16.542,0-30,13.458-30,30v398c0,16.542,13.458,30,30,30h304c16.542,0,30-13.458,30-30v-24h24c16.542,0,30-13.458,30-30V313
			c0-5.523-4.478-10-10-10s-10,4.477-10,10v115c0,5.514-4.486,10-10,10H131c-5.514,0-10-4.486-10-10V30c0-5.514,4.486-10,10-10h226
			v34H174.543c-5.522,0-10,4.477-10,10v64c0,5.523,4.478,10,10,10h216c5.522,0,10-4.477,10-10v-20H445v123.667
			c0,5.523,4.478,10,10,10s10-4.477,10-10V98C465,95.348,463.946,92.804,462.071,90.929z M131,458h260v24c0,5.514-4.486,10-10,10H77
			c-5.514,0-10-4.486-10-10V84c0-5.514,4.486-10,10-10h24v354C101,444.542,114.458,458,131,458z M184.543,118V74h172.626
			c1.323,14.225,10.624,26.163,23.374,31.296V118H184.543z M394.5,88c-9.649,0-17.5-7.851-17.5-17.5V34.143l26.929,26.929
			L430.857,88H394.5z"/>
		<path id="XMLID_449_" d="M455,262c-2.63,0-5.21,1.07-7.07,2.93c-1.86,1.86-2.93,4.44-2.93,7.07c0,2.63,1.069,5.21,2.93,7.07
			S452.37,282,455,282s5.21-1.07,7.069-2.93c1.86-1.86,2.931-4.44,2.931-7.07c0-2.63-1.07-5.21-2.931-7.07
			C460.21,263.07,457.63,262,455,262z"/>
		<path id="XMLID_450_" d="M174.54,186c2.63,0,5.21-1.07,7.069-2.93c1.87-1.86,2.931-4.44,2.931-7.07c0-2.63-1.061-5.21-2.931-7.07
			c-1.859-1.86-4.439-2.93-7.069-2.93s-5.21,1.07-7.07,2.93c-1.86,1.86-2.93,4.44-2.93,7.07c0,2.63,1.069,5.21,2.93,7.07
			S171.91,186,174.54,186z"/>
		<path id="XMLID_481_" d="M390.543,214h-216c-5.522,0-10,4.477-10,10s4.478,10,10,10h216c5.522,0,10-4.477,10-10
			S396.065,214,390.543,214z"/>
		<path id="XMLID_482_" d="M390.543,262h-216c-5.522,0-10,4.477-10,10s4.478,10,10,10h216c5.522,0,10-4.477,10-10
			S396.065,262,390.543,262z"/>
		<path id="XMLID_483_" d="M390.543,310h-216c-5.522,0-10,4.477-10,10s4.478,10,10,10h216c5.522,0,10-4.477,10-10
			S396.065,310,390.543,310z"/>
		<path id="XMLID_484_" d="M390.543,358h-216c-5.522,0-10,4.477-10,10s4.478,10,10,10h216c5.522,0,10-4.477,10-10
			S396.065,358,390.543,358z"/>
		<path id="XMLID_485_" d="M390.543,166h-175.39c-5.522,0-10,4.477-10,10s4.478,10,10,10h175.39c5.522,0,10-4.477,10-10
			S396.065,166,390.543,166z"/>
	</g>
</g>
<g>
</g>
<g>
</g>
<g>
</g>
<g>
</g>
<g>
</g>
<g>
</g>
<g>
</g>
<g>
</g>
<g>
</g>
<g>
</g>
<g>
</g>
<g>
</g>
<g>
</g>
<g>
</g>
<g>
</g>
</svg>
