<svg id="Capa_1" enable-background="new 0 0 512.029 512.029" height="512" viewBox="0 0 512.029 512.029" width="512" xmlns="http://www.w3.org/2000/svg"><path d="m503.046 197.676c-4.016-12.36-15.534-20.729-28.531-20.729l-145.121-.002-44.848-138.019c-4.016-12.36-15.534-20.729-28.531-20.729-3.211 0-6.331.515-9.27 1.471l9.27 236.335 141.229 237.142c4.043-.851 7.951-2.527 11.445-5.065 10.514-7.639 14.914-21.18 10.898-33.541l-44.843-138.019 117.404-85.303c10.515-7.64 14.915-21.181 10.898-33.541z" fill="#ffb820"/><path d="m474.514 206.947-166.917-.002-60.853-187.277c-8.959 2.913-16.237 9.952-19.261 19.259l-44.847 138.018-145.122.002c-12.997 0-24.515 8.369-28.531 20.729s.383 25.901 10.898 33.541l117.405 85.303-44.843 138.019c-4.017 12.36.383 25.901 10.898 33.54 10.514 7.639 24.752 7.639 35.267 0l117.407-85.298 117.407 85.299c7.021 5.101 15.698 6.776 23.822 5.065l-57.766-188.084z" fill="#ffd06a"/><path d="m391.055 501.331c-7.726 0-15.449-2.395-22.042-7.185l-112.999-82.096-112.999 82.095c-13.183 9.58-30.9 9.579-44.084 0-13.184-9.578-18.659-26.426-13.623-41.925l43.159-132.837-42.157-30.63c-3.351-2.435-4.094-7.125-1.659-10.476 2.434-3.353 7.123-4.097 10.476-1.659l46.567 33.834c2.628 1.91 3.728 5.295 2.724 8.385l-44.843 138.019c-3.021 9.299.264 19.408 8.174 25.155 7.91 5.746 18.54 5.749 26.45 0l117.407-85.298c2.629-1.91 6.188-1.91 8.816 0l117.407 85.299c7.91 5.746 18.539 5.747 26.45 0 7.91-5.748 11.195-15.857 8.174-25.156l-44.843-138.019c-1.004-3.09.096-6.475 2.724-8.385l117.406-85.302c7.911-5.748 11.195-15.856 8.173-25.155-3.021-9.3-11.621-15.548-21.398-15.548l-145.121-.002c-3.249 0-6.129-2.092-7.133-5.183l-44.848-138.018c-3.021-9.299-11.62-15.546-21.398-15.546-9.777 0-18.377 6.248-21.399 15.548l-44.847 138.017c-1.004 3.091-3.884 5.183-7.133 5.183l-145.122.002c-9.777 0-18.377 6.248-21.398 15.547-3.021 9.3.263 19.408 8.174 25.156l46.567 33.834c3.351 2.435 4.094 7.125 1.659 10.476-2.434 3.35-7.125 4.096-10.476 1.659l-46.568-33.834c-13.183-9.581-18.658-26.429-13.622-41.927 5.036-15.499 19.368-25.912 35.664-25.912l139.673-.002 43.163-132.835c5.037-15.499 19.369-25.912 35.665-25.912 16.297 0 30.629 10.413 35.664 25.911l43.164 132.836 139.672.002c16.297 0 30.629 10.413 35.664 25.912 5.036 15.498-.438 32.347-13.622 41.926l-112.996 82.1 43.159 132.837c5.036 15.498-.439 32.347-13.623 41.926-6.592 4.788-14.318 7.182-22.042 7.183z"/></svg>