<?xml version="1.0" encoding="iso-8859-1"?>
<!-- Generator: Adobe Illustrator 21.0.0, SVG Export Plug-In . SVG Version: 6.00 Build 0)  -->
<svg version="1.1" id="Capa_1" xmlns="http://www.w3.org/2000/svg" xmlns:xlink="http://www.w3.org/1999/xlink" x="0px" y="0px"
	 viewBox="0 0 502.263 502.263" style="enable-background:new 0 0 502.263 502.263;" xml:space="preserve">
<g>
	<g>
		<path style="fill:#FFD4C6;" d="M361.496,267.342l-99.613-77.817l-19.732-36.258c-6.603-12.132-19.238-19.673-32.964-19.673H162.09
			c-6.075,0-13.727,4.925-20.711,10.813l-65.151-0.309v132.031h38.254l156.949,110.863c8.161,6.244,19.906,4.621,26.099-3.607
			c6.167-8.193,4.592-19.966-3.48-26.23c8.157,6.152,19.826,4.514,25.994-3.68c6.167-8.194,4.592-19.966-3.48-26.23
			c8.157,6.152,19.826,4.514,25.994-3.68c6.167-8.193,4.592-19.966-3.48-26.23c8.157,6.152,19.826,4.514,25.994-3.68h0
			C371.267,285.428,369.657,273.587,361.496,267.342z"/>
	</g>
	<g>
		<g>
			<path style="fill:#FDBEB8;" d="M361.496,267.342l-99.613-77.817l-19.732-36.259c-6.603-12.132-19.238-19.673-32.964-19.673h-30
				c13.726,0,26.361,7.541,32.964,19.673l19.732,36.259l99.613,77.817c8.161,6.245,9.771,18.085,3.578,26.313h0
				c-2.863,3.804-6.913,6.195-11.246,7.05c-4.724,0.932-7.973,5.141-7.568,9.939c0.377,4.47-0.814,9.087-3.7,12.921
				c-2.863,3.804-6.913,6.195-11.246,7.05c-4.724,0.931-7.973,5.141-7.568,9.939c0.377,4.47-0.814,9.087-3.699,12.921
				c-2.864,3.804-6.913,6.195-11.246,7.049c-4.724,0.931-7.973,5.141-7.568,9.939c0.377,4.47-0.814,9.087-3.7,12.921
				c-0.142,0.188-0.3,0.354-0.448,0.536l4.348,3.072c8.161,6.244,19.906,4.621,26.099-3.607c6.167-8.193,4.592-19.966-3.48-26.23
				c8.157,6.152,19.826,4.514,25.994-3.68c6.167-8.194,4.592-19.966-3.48-26.23c8.157,6.152,19.826,4.514,25.994-3.68
				c6.167-8.193,4.592-19.965-3.48-26.23c8.157,6.152,19.826,4.514,25.994-3.68h0C371.266,285.428,369.657,273.587,361.496,267.342z
				"/>
		</g>
	</g>
	<g>
		<path style="fill:#FFD4C6;" d="M139.649,318.256l-2.452-1.861c-7.198-5.463-8.618-15.822-3.156-23.02l16.861-22.217
			c5.463-7.198,15.822-8.618,23.02-3.156l2.452,1.861c7.198,5.463,8.618,15.822,3.156,23.02l-16.861,22.217
			C157.206,322.299,146.847,323.719,139.649,318.256z"/>
	</g>
	<g>
		<path style="fill:#FFD4C6;" d="M168.267,339.974l-2.452-1.861c-7.198-5.463-8.618-15.822-3.156-23.02l16.861-22.217
			c5.463-7.198,15.822-8.618,23.02-3.156l2.452,1.861c7.198,5.463,8.618,15.822,3.156,23.02l-16.861,22.217
			C185.824,344.017,175.465,345.437,168.267,339.974z"/>
	</g>
	<g>
		<path style="fill:#FFD4C6;" d="M196.885,361.692l-2.452-1.861c-7.198-5.463-8.618-15.822-3.156-23.02l16.861-22.217
			c5.463-7.198,15.822-8.618,23.02-3.156l2.452,1.861c7.198,5.463,8.618,15.822,3.156,23.02l-16.861,22.217
			C214.442,365.735,204.083,367.155,196.885,361.692z"/>
	</g>
	<g>
		<path style="fill:#FFD4C6;" d="M225.503,383.41l-2.452-1.861c-7.198-5.463-8.618-15.822-3.156-23.02l16.861-22.217
			c5.463-7.198,15.822-8.618,23.02-3.156l2.452,1.861c7.198,5.463,8.618,15.822,3.156,23.02l-16.861,22.217
			C243.06,387.453,232.701,388.873,225.503,383.41z"/>
	</g>
	<g>
		
			<rect x="21.43" y="118.315" transform="matrix(0.985 0.1727 -0.1727 0.985 36.0957 -8.7708)" style="fill:#5E8EE1;" width="94.057" height="169.521"/>
	</g>
	<g>
		<polygon style="fill:#467BFF;" points="465.49,111.468 436.384,116.57 464.763,278.442 401.224,289.581 402.119,294.684 
			494.763,278.442 		"/>
	</g>
	<g>
		<path style="fill:#FFD4C6;" d="M366.012,165.222c0,0-26.047-31.628-41.861-31.628h-49.273c-14.36,0-27.579,7.825-34.487,20.415
			l-41.454,75.554c-2.679,4.883,0.14,10.997,5.607,12.059c10.785,2.095,27.681,2.957,40.537-7.562
			c20.465-16.744,31.628-30.698,31.628-30.698s0.93,24.186,31.628,24.186l65.621,53.954h24.612l-0.834-115.515
			C397.737,165.987,366.528,165.737,366.012,165.222z"/>
	</g>
	<g>
		<g>
			<path style="fill:#FDBEB8;" d="M397.737,165.987c0,0-31.209-0.249-31.724-0.765c0,0-26.047-31.628-41.861-31.628h-30
				c15.814,0,41.861,31.628,41.861,31.628c0.005,0.005,0.013,0.01,0.025,0.015c19.289,8.761,31.895,27.75,32.048,48.935
				l0.454,62.873l5.42,4.456h24.612L397.737,165.987z"/>
		</g>
	</g>
	<g>
		
			<rect x="386.776" y="118.315" transform="matrix(-0.985 0.1727 -0.1727 -0.985 896.1592 328.1915)" style="fill:#5E8EE1;" width="94.057" height="169.521"/>
	</g>
	<path d="M502.15,277.147l-29.273-166.975c-0.715-4.08-4.598-6.809-8.682-6.092l-92.644,16.242
		c-1.959,0.343-3.702,1.451-4.845,3.079c-1.142,1.628-1.591,3.644-1.248,5.603l5.089,29.029c-0.294-0.01-0.569-0.021-0.813-0.031
		c-7.652-8.89-29.063-31.908-45.583-31.908h-49.272c-12.673,0-24.586,5.124-33.259,13.874c-8.433-8.766-20.192-13.874-32.433-13.874
		H162.09c-6.631,0-14.297,3.537-23.38,10.801l-3.286-0.016l1.381-7.875c0.344-1.959-0.105-3.975-1.248-5.603
		c-1.143-1.628-2.885-2.736-4.845-3.079L38.068,104.08c-1.96-0.344-3.975,0.106-5.603,1.248c-1.628,1.143-2.736,2.885-3.079,4.845
		l-8.818,50.298c-0.715,4.08,2.012,7.967,6.092,8.682c4.078,0.719,7.967-2.012,8.682-6.092l7.523-42.911l77.869,13.651
		L96.245,273.49c-0.31,0.822-0.487,1.709-0.487,2.639c0,0.036,0.005,0.071,0.005,0.107l-1.712,9.765L16.183,272.35l13.739-78.368
		c0.715-4.08-2.012-7.967-6.092-8.682c-4.077-0.719-7.967,2.012-8.682,6.092L0.113,277.147c-0.344,1.959,0.105,3.975,1.248,5.603
		c1.143,1.628,2.885,2.736,4.845,3.08l92.644,16.242c0.438,0.077,0.874,0.114,1.304,0.114c3.574,0,6.74-2.565,7.378-6.207
		l2.165-12.35h2.405l13.39,9.458c-4.73,10.009-1.99,22.329,7.172,29.282l2.452,1.861l0,0c4.189,3.18,9.204,4.854,14.395,4.854
		c0.886,0,1.778-0.063,2.67-0.161c1,6.075,4.199,11.445,9.1,15.164l2.453,1.861l0,0c4.317,3.276,9.396,4.858,14.438,4.858
		c0.871,0,1.741-0.05,2.605-0.144c0.966,5.822,4.062,11.302,9.123,15.143l2.452,1.861l0,0c4.189,3.18,9.204,4.854,14.395,4.854
		c0.886,0,1.778-0.063,2.67-0.161c1,6.075,4.199,11.445,9.1,15.164l2.453,1.861l0,0c4.317,3.276,9.396,4.858,14.438,4.858
		c7.234,0,14.39-3.26,19.091-9.454l0.284-0.375l12.216,8.629c4.552,3.441,9.988,5.253,15.615,5.253c1.195,0,2.399-0.082,3.604-0.247
		c6.948-0.952,13.094-4.558,17.306-10.153c4.393-5.836,5.978-12.972,4.977-19.729c0.114-0.015,0.228-0.03,0.342-0.046
		c6.902-0.974,13.009-4.574,17.195-10.135c4.393-5.836,5.977-12.972,4.977-19.729c0.114-0.015,0.228-0.03,0.342-0.046
		c6.902-0.975,13.008-4.574,17.194-10.135c4.393-5.836,5.978-12.972,4.977-19.729c0.114-0.015,0.228-0.03,0.342-0.046
		c6.902-0.975,13.008-4.574,17.195-10.136c2.064-2.742,3.534-5.868,4.394-9.164h18.049l1.223,6.977
		c0.638,3.642,3.804,6.207,7.378,6.207c0.43,0,0.866-0.037,1.304-0.114l92.644-16.242c1.959-0.343,3.702-1.451,4.845-3.08
		C502.044,281.122,502.494,279.106,502.15,277.147z M144.183,312.282l-2.452-1.861c-3.922-2.977-4.692-8.59-1.715-12.512
		l16.86-22.217c1.754-2.312,4.424-3.528,7.124-3.528c1.881,0,3.778,0.591,5.389,1.813l2.452,1.86
		c3.889,2.951,4.673,8.491,1.786,12.408c-0.026,0.033-0.055,0.063-0.081,0.096l-16.861,22.217c-0.034,0.045-0.065,0.092-0.099,0.137
		c-1.427,1.809-3.475,2.982-5.795,3.3C148.417,314.323,146.069,313.713,144.183,312.282z M172.801,334L172.801,334l-2.453-1.861
		c-1.885-1.431-3.103-3.527-3.429-5.903c-0.32-2.333,0.266-4.636,1.642-6.503c0.026-0.034,0.056-0.063,0.082-0.097l16.861-22.218
		c0.034-0.045,0.064-0.091,0.098-0.136c1.427-1.81,3.476-2.983,5.795-3.301c2.374-0.326,4.723,0.283,6.609,1.714l2.452,1.86
		c3.888,2.951,4.673,8.491,1.787,12.407c-0.026,0.034-0.056,0.063-0.082,0.097l-16.861,22.218c-0.034,0.044-0.064,0.09-0.097,0.135
		C182.203,336.219,176.679,336.943,172.801,334z M201.419,355.718l-2.452-1.861c-3.88-2.945-4.669-8.467-1.804-12.382
		c0.032-0.042,0.067-0.08,0.098-0.122l16.861-22.218c0.034-0.045,0.065-0.092,0.099-0.137c1.427-1.809,3.476-2.982,5.795-3.3
		c0.418-0.057,0.836-0.086,1.25-0.086c1.938,0,3.805,0.621,5.359,1.801l2.452,1.86c3.889,2.951,4.673,8.491,1.786,12.408
		c-0.026,0.033-0.055,0.063-0.081,0.096l-16.861,22.217c-0.034,0.045-0.065,0.092-0.099,0.137c-1.427,1.809-3.475,2.982-5.795,3.3
		C205.653,357.758,203.304,357.149,201.419,355.718z M230.037,377.436L230.037,377.436l-2.453-1.861
		c-1.885-1.431-3.103-3.527-3.429-5.903c-0.32-2.333,0.266-4.636,1.642-6.503c0.026-0.034,0.056-0.063,0.082-0.097l16.861-22.218
		c0.034-0.045,0.064-0.091,0.098-0.136c1.427-1.81,3.476-2.983,5.795-3.301c2.375-0.328,4.723,0.283,6.609,1.714l2.452,1.86
		c3.922,2.977,4.692,8.59,1.715,12.512l-16.86,22.217C239.572,379.643,233.959,380.413,230.037,377.436z M376.646,274.002
		l-63.545-52.247c-1.342-1.104-3.026-1.707-4.763-1.707c-9.81,0-16.801-2.799-20.782-8.319c-3.027-4.199-3.35-8.656-3.352-8.656v0
		c-0.121-3.13-2.173-5.855-5.148-6.835c-2.976-0.979-6.245-0.008-8.203,2.438c-0.107,0.133-10.896,13.521-30.521,29.579
		c-10.351,8.468-24.397,7.938-34.358,6.004c-0.099-0.02-0.332-0.064-0.482-0.385c-0.168-0.359-0.026-0.618,0.021-0.704
		l13.982-25.484c1.993-3.631,0.664-8.19-2.968-10.183c-3.632-1.994-8.191-0.664-10.183,2.968l-13.982,25.483
		c-2.415,4.401-2.583,9.743-0.451,14.29c2.153,4.59,6.236,7.776,11.202,8.74c23.756,4.613,38.518-2.412,46.717-9.12
		c10.366-8.481,18.401-16.25,23.918-21.991c4.555,7.918,13.663,16.341,31.831,17.116l55.779,45.862
		c-0.028,0.322-0.042,0.647-0.028,0.978c0.115,2.637-0.684,5.234-2.25,7.315c-1.777,2.361-4.372,3.889-7.307,4.304
		c-2.93,0.411-5.833-0.333-8.178-2.102c-3.29-2.481-7.968-1.843-10.473,1.43c-2.505,3.274-1.898,7.955,1.358,10.482
		c4.865,3.775,5.8,10.861,2.086,15.795c-1.777,2.361-4.372,3.89-7.307,4.304c-2.933,0.414-5.834-0.333-8.178-2.101
		c-3.29-2.481-7.968-1.843-10.473,1.43c-2.505,3.274-1.898,7.955,1.358,10.482c4.865,3.775,5.8,10.861,2.086,15.795
		c-1.777,2.36-4.372,3.889-7.308,4.303c-2.927,0.413-5.833-0.333-8.178-2.101c-3.29-2.481-7.967-1.843-10.473,1.431
		c-2.505,3.273-1.898,7.955,1.358,10.482c4.864,3.775,5.8,10.86,2.086,15.794c-1.789,2.376-4.402,3.908-7.359,4.313
		c-2.939,0.402-5.85-0.361-8.191-2.152c-0.075-0.058-0.152-0.114-0.23-0.169l-11.904-8.409l7.503-9.887
		c7.976-10.511,5.914-25.551-4.597-33.528l-2.452-1.86c-4.898-3.718-10.927-5.371-17.042-4.702
		c-0.964-5.827-4.06-11.312-9.125-15.156l-2.452-1.86c-4.898-3.718-10.927-5.371-17.041-4.702
		c-0.964-5.827-4.06-11.312-9.125-15.155l-2.452-1.86c-4.898-3.717-10.926-5.372-17.042-4.702
		c-0.964-5.827-4.06-11.312-9.125-15.156l-2.452-1.86c-10.511-7.977-25.552-5.917-33.529,4.596l-10.784,14.21l-15.333-10.831
		c-1.266-0.894-2.777-1.374-4.327-1.374h-2.157l20.47-116.762l8.548,0.041c1.804,0.014,3.509-0.618,4.871-1.767
		c9.955-8.395,14.668-9.047,15.875-9.047h47.097c9.102,0,17.804,4.251,23.48,11.402l-11.888,21.668
		c-1.993,3.631-0.664,8.19,2.968,10.183c1.145,0.628,2.381,0.926,3.601,0.926c2.649,0,5.218-1.407,6.582-3.894l13.038-23.763
		c5.592-10.191,16.287-16.522,27.912-16.522h49.272c7.562,0,24.612,15,36.071,28.896c0.153,0.187,0.315,0.365,0.486,0.536
		c2.054,2.054,3.028,2.387,12.486,2.607l17.684,100.869H376.646z M408.211,286.001l-26.683-152.2l77.869-13.651l26.683,152.2
		L408.211,286.001z"/>
</g>
<g>
</g>
<g>
</g>
<g>
</g>
<g>
</g>
<g>
</g>
<g>
</g>
<g>
</g>
<g>
</g>
<g>
</g>
<g>
</g>
<g>
</g>
<g>
</g>
<g>
</g>
<g>
</g>
<g>
</g>
</svg>
