<?xml version="1.0" encoding="iso-8859-1"?>
<!-- Generator: Adobe Illustrator 19.0.0, SVG Export Plug-In . SVG Version: 6.00 Build 0)  -->
<svg version="1.1" id="Layer_1" xmlns="http://www.w3.org/2000/svg" xmlns:xlink="http://www.w3.org/1999/xlink" x="0px" y="0px"
	 viewBox="0 0 512.008 512.008" style="enable-background:new 0 0 512.008 512.008;" xml:space="preserve">
<g id="XMLID_1480_">
	<path id="XMLID_1466_" style="fill:#FEDA9B;" d="M155.928,64.631l-50.784,13.607c-10.669,2.859-17.001,13.826-14.142,24.495
		l103.01,384.438c2.859,10.669,13.826,17.001,24.495,14.142L417.476,448L155.928,64.631z"/>
	<g id="XMLID_1975_">
		<path id="XMLID_1981_" style="fill:#FFC66C;" d="M74.004,100.667V450c0,17.673-14.327,32-32,32h0c-17.673,0-32-14.327-32-32
			V100.667l32-70.667L74.004,100.667z"/>
		<polygon id="XMLID_1980_" style="fill:#FEDA9B;" points="10.004,100.667 74.004,100.667 42.004,30 		"/>
		<path id="XMLID_1979_" style="fill:#FF5D5D;" d="M10.004,428v22c0,17.673,14.327,32,32,32l0,0c17.673,0,32-14.327,32-32v-22
			H10.004z"/>
	</g>
	<path id="XMLID_2076_" style="fill:#FFFFFF;" d="M414.004,10h-236c-11.046,0-20,8.954-20,20v398c0,11.046,8.954,20,20,20h304
		c11.046,0,20-8.954,20-20V98L414.004,10z"/>
	<path id="XMLID_2074_" style="fill:#FEDA9B;" d="M502.004,98h-60.5c-15.188,0-27.5-12.312-27.5-27.5V10L502.004,98z"/>
	<g id="XMLID_1675_">
		<path id="XMLID_1676_" d="M74.004,299c-2.63,0-5.21,1.069-7.07,2.93c-1.86,1.86-2.93,4.44-2.93,7.07s1.07,5.21,2.93,7.069
			c1.86,1.86,4.44,2.931,7.07,2.931s5.21-1.07,7.07-2.931c1.86-1.859,2.93-4.439,2.93-7.069s-1.07-5.21-2.93-7.07
			S76.634,299,74.004,299z"/>
		<path id="XMLID_1695_" d="M509.075,90.929l-88-88C419.2,1.054,416.656,0,414.004,0h-236c-16.542,0-30,13.458-30,30v26.401
			l-45.448,12.178c-7.74,2.073-14.209,7.037-18.216,13.978c-1.658,2.871-2.803,5.94-3.44,9.097L51.113,25.875
			C49.494,22.298,45.931,20,42.004,20s-7.49,2.298-9.109,5.875l-32,70.667c-0.587,1.296-0.891,2.702-0.891,4.125V450
			c0,23.159,18.841,42,42,42s42-18.841,42-42V349c0-5.522-4.477-10-10-10s-10,4.478-10,10v69h-44V110.667h44v159.349
			c0,5.522,4.477,10,10,10s10-4.478,10-10V115.253l64,238.85V428c0,15.807,12.29,28.788,27.815,29.912l8.534,31.848
			c2.074,7.74,7.038,14.21,13.978,18.216c4.623,2.669,9.752,4.032,14.951,4.032c2.606,0,5.229-0.343,7.814-1.035L418.792,458h63.212
			c16.542,0,30-13.458,30-30V98C512.004,95.348,510.95,92.805,509.075,90.929z M42.004,54.242l16.494,36.425H25.51L42.004,54.242z
			 M64.004,438v12c0,12.131-9.869,22-22,22s-22-9.869-22-22v-12H64.004z M424.004,34.143l26.929,26.929L477.861,88h-36.357
			c-9.649,0-17.5-7.851-17.5-17.5V34.143z M100.661,100.146c-0.691-2.58-0.336-5.275,0.999-7.589s3.492-3.968,6.072-4.659
			l40.271-10.791v199.724L100.661,100.146z M215.918,491.654c-2.578,0.692-5.274,0.337-7.587-0.999
			c-2.313-1.335-3.968-3.491-4.659-6.071L196.548,458h144.97L215.918,491.654z M482.004,438h-304c-5.514,0-10-4.486-10-10V68h54.5
			c5.523,0,10-4.478,10-10s-4.477-10-10-10h-54.5V30c0-5.514,4.486-10,10-10h226v50.5c0,20.678,16.822,37.5,37.5,37.5h50.5v320
			C492.004,433.514,487.518,438,482.004,438z"/>
		<path id="XMLID_1706_" d="M361.628,324.729c29.276-3.128,67.307-12.924,86.246-31.039c13.64-13.046,15.573-28.884,5.304-43.451
			c-12.97-18.401-37.204-18.586-64.826-0.498c-19.443,12.734-40.123,34.285-52.204,56.357c-9.548-0.025-18.416-0.762-26.257-2.162
			c16.854-10.758,23.6-27.09,23.878-41.233c0.378-19.224-10.299-36.144-25.389-40.231c-7.481-2.023-26.755-3.377-44.146,27.759
			c-8.117,14.532-9.772,26.244-8.194,35.484c-2.265-1.726-4.438-3.69-6.459-5.87c-14.026-15.125-18.104-36.597-11.19-58.908
			c12.361-39.887,77.932-62.095,115.865-59.297c5.5,0.396,10.303-3.727,10.711-9.234s-3.727-10.304-9.234-10.711
			c-23.858-1.767-53.351,4.294-78.898,16.209c-30.038,14.01-50.476,34.293-57.547,57.113c-9.089,29.329-3.393,57.915,15.628,78.428
			c12.078,13.024,28.089,20.558,42.89,20.665c14.448,8.138,33.223,11.088,50.049,11.789c-3.409,12.228-3.127,23.824,2.621,33.292
			c10.586,17.438,31.686,27.475,56.074,27.475c5.057,0,10.256-0.432,15.532-1.318c27.652-4.648,48.336-20.703,52.696-40.903
			c1.165-5.398-2.267-10.719-7.665-11.885c-5.398-1.162-10.72,2.268-11.885,7.666c-2.582,11.96-17.234,22.167-36.462,25.399
			c-18.509,3.11-41.521-0.879-51.195-16.813c-3.161-5.207-2.269-13.507,1.533-23.08
			C353.983,325.467,358.252,325.089,361.628,324.729z M399.31,266.472c5.679-3.72,16.873-10.167,26.203-10.167
			c4.472,0,8.517,1.482,11.318,5.457c3.744,5.312,4.704,10.315-2.781,17.475c-12.453,11.911-41.133,21.859-73.303,25.469
			C370.635,290.474,384.446,276.206,399.31,266.472z M282.946,293.571c-4.107-3.198-13.652-11.385-1.251-33.59
			c6.494-11.626,13.831-18.442,19.646-18.442c0.621,0,1.226,0.078,1.809,0.236c5.275,1.429,10.836,9.686,10.623,20.533
			C313.629,269.604,310.336,287.228,282.946,293.571z"/>
		<path id="XMLID_1709_" d="M260.004,68c2.63,0,5.21-1.07,7.07-2.931c1.86-1.859,2.93-4.439,2.93-7.069s-1.07-5.21-2.93-7.07
			s-4.44-2.93-7.07-2.93c-2.63,0-5.21,1.069-7.07,2.93c-1.86,1.86-2.93,4.43-2.93,7.07c0,2.63,1.07,5.21,2.93,7.069
			C254.794,66.93,257.374,68,260.004,68z"/>
	</g>
</g>
<g>
</g>
<g>
</g>
<g>
</g>
<g>
</g>
<g>
</g>
<g>
</g>
<g>
</g>
<g>
</g>
<g>
</g>
<g>
</g>
<g>
</g>
<g>
</g>
<g>
</g>
<g>
</g>
<g>
</g>
</svg>
