<?xml version="1.0" encoding="iso-8859-1"?>
<!-- Generator: Adobe Illustrator 21.0.0, SVG Export Plug-In . SVG Version: 6.00 Build 0)  -->
<svg version="1.1" id="Capa_1" xmlns="http://www.w3.org/2000/svg" xmlns:xlink="http://www.w3.org/1999/xlink" x="0px" y="0px"
	 viewBox="0 0 511.998 511.998" style="enable-background:new 0 0 511.998 511.998;" xml:space="preserve">
<g>
	<g>
		<path style="fill:#FCDD2E;" d="M339.32,87.672c-1.109-30.367-24.826-55.101-55.113-57.563c-18.337-1.491-36.674-1.491-55.01,0
			c-30.287,2.462-54.004,27.196-55.113,57.563c-3.04,83.255-3.04,166.51,0,249.766c0.607,16.633,8.008,31.566,19.545,42.085v16.584
			c0,17.544,14.222,31.766,31.766,31.766h62.614c17.544,0,31.766-14.222,31.766-31.766v-16.584
			c11.538-10.519,18.938-25.452,19.545-42.085C342.36,254.182,342.36,170.927,339.32,87.672z"/>
		<path style="fill:#F9C301;" d="M205.493,87.669c-1.52,83.259-1.52,166.509,0,249.768c0.3,16.63,13.99,31.56,19.75,42.08v16.59
			c0,17.54,7.09,31.76,15.84,31.76h-15.69c-17.55,0-31.77-14.22-31.77-31.76v-16.59c-11.54-10.52-18.94-25.45-19.54-42.08
			c-3.04-83.259-3.04-166.509,0-249.768c1.11-30.37,24.82-55.099,55.11-57.56c9.17-0.75,18.34-1.12,27.51-1.12
			c-4.58,0-9.15,0.37-13.72,1.12C227.873,32.57,206.043,57.3,205.493,87.669z"/>
		<path style="fill:#665E66;" d="M289.723,466.185h-66.044c-10.58,0-19.156-8.577-19.156-19.156v0
			c0-10.58,8.577-19.156,19.156-19.156h66.044c10.58,0,19.156,8.577,19.156,19.156v0
			C308.88,457.609,300.303,466.185,289.723,466.185z"/>
		<path style="fill:#665E66;" d="M289.723,504.497h-66.044c-10.58,0-19.156-8.577-19.156-19.156v0
			c0-10.58,8.577-19.156,19.156-19.156h66.044c10.58,0,19.156,8.577,19.156,19.156v0
			C308.88,495.921,300.303,504.497,289.723,504.497z"/>
		<path style="fill:#454045;" d="M262.203,466.189h-38.52c-10.58,0-19.16-8.58-19.16-19.16c0-5.29,2.14-10.08,5.61-13.55
			c3.47-3.46,8.26-5.61,13.55-5.61h38.52c-5.29,0-10.08,2.15-13.55,5.61c-3.47,3.47-5.61,8.26-5.61,13.55
			C243.043,457.609,251.623,466.189,262.203,466.189z"/>
		<path style="fill:#454045;" d="M262.203,504.501h-38.52c-10.58,0-19.16-8.58-19.16-19.16c0-5.29,2.14-10.08,5.61-13.55
			c3.47-3.46,8.26-5.61,13.55-5.61h38.52c-5.29,0-10.08,2.15-13.55,5.61c-3.47,3.47-5.61,8.26-5.61,13.55
			C243.043,495.921,251.623,504.501,262.203,504.501z"/>
		<path style="fill:#F9F48E;" d="M259.532,348.752c-1.401,0.049-2.802,0.049-4.203,0c-15.246-0.538-27.25-13.233-27.564-28.486
			c-1.494-72.366-1.494-144.732,0-217.098c0.315-15.253,12.318-27.948,27.564-28.486c1.063-0.037,2.125-0.047,3.188-0.027
			c15.646,0.285,28.257,12.885,28.58,28.53c1.493,72.36,1.493,144.721,0,217.081C286.782,335.518,274.778,348.214,259.532,348.752z"
			/>
		<path style="fill:#F9F48E;" d="M323.798,118.99v159.309c0,4.678-3.792,8.47-8.47,8.47l0,0c-4.678,0-8.47-3.792-8.47-8.47V118.99
			c0-4.678,3.792-8.47,8.47-8.47l0,0C320.005,110.52,323.798,114.312,323.798,118.99z"/>
		<path style="fill:#F9F48E;" d="M315.328,303.389L315.328,303.389c4.678,0,8.47,3.792,8.47,8.47v18.24
			c0,4.678-3.792,8.47-8.47,8.47l0,0c-4.678,0-8.47-3.792-8.47-8.47v-18.24C306.858,307.181,310.65,303.389,315.328,303.389z"/>
	</g>
	<g>
		<path d="M284.815,22.635c-18.658-1.515-37.575-1.515-56.224,0c-34.102,2.77-60.759,30.611-62.008,64.764
			c-0.422,11.687-0.783,23.146-1.072,34.063c-0.109,4.141,3.159,7.586,7.299,7.696c4.121,0.083,7.586-3.159,7.696-7.299
			c0.288-10.868,0.646-22.279,1.067-33.914c0.971-26.555,21.706-48.204,48.232-50.358c17.843-1.451,35.941-1.451,53.795,0
			c26.52,2.154,47.251,23.803,48.222,50.357c3.019,82.686,3.019,166.536,0,249.22c-0.52,14.153-6.592,27.227-17.1,36.814
			c-1.557,1.421-2.445,3.432-2.445,5.541v16.59c0,13.377-10.888,24.26-24.27,24.26h-23.081V355.69
			c16.644-3.021,29.299-17.619,29.669-35.263c0.087-4.142-3.2-7.569-7.341-7.656c-4.163-0.082-7.569,3.2-7.656,7.341
			c-0.241,11.468-9.171,20.754-20.338,21.143c-1.217,0.043-2.451,0.043-3.673,0c-11.162-0.388-20.088-9.672-20.321-21.14
			c-1.491-71.93-1.491-144.868,0-216.791c0.233-11.462,9.161-20.751,20.344-21.147c0.918-0.034,1.849-0.043,2.768-0.026
			c11.661,0.216,20.982,9.522,21.221,21.185c1.274,62.088,1.452,124.947,0.529,186.833c-0.062,4.142,3.246,7.549,7.387,7.611
			c4.14,0.058,7.549-3.245,7.611-7.387c0.926-62.062,0.747-125.1-0.53-187.364c-0.405-19.751-16.191-35.509-35.937-35.875
			c-1.197-0.023-2.413-0.011-3.597,0.034c-19.115,0.677-34.398,16.417-34.792,35.83c-1.495,72.126-1.495,145.273,0,217.406
			c0.359,17.649,13.012,32.25,29.657,35.269v64.678h-24.529c-13.382,0-24.27-10.883-24.27-24.26v-16.59
			c0-2.109-0.889-4.122-2.447-5.543c-10.513-9.583-16.588-22.656-17.108-36.81c-2.247-61.576-2.828-123.951-1.726-185.391
			c0.074-4.141-3.223-7.559-7.365-7.633c-4.133-0.033-7.559,3.223-7.633,7.365c-1.105,61.71-0.522,124.359,1.734,186.208
			c0.627,17.084,7.539,32.938,19.545,45.005v13.39c0,13.777,7.141,25.911,17.911,32.919c-4.354,4.746-7.016,11.068-7.016,18.001
			c0,7.514,3.13,14.306,8.148,19.156c-5.018,4.85-8.148,11.643-8.148,19.156c0,14.698,11.958,26.656,26.656,26.656h66.044
			c14.698,0,26.656-11.958,26.656-26.656c0-7.514-3.13-14.306-8.148-19.156c5.018-4.85,8.148-11.643,8.148-19.156
			c0-6.933-2.662-13.254-7.015-18c10.771-7.008,17.913-19.142,17.913-32.92v-13.392c12.001-12.07,18.908-27.922,19.535-45.004
			c3.032-83.048,3.032-167.267,0-250.315C345.564,53.246,318.911,25.404,284.815,22.635z M301.38,485.341
			c0,6.427-5.229,11.656-11.656,11.656h-66.044c-6.427,0-11.656-5.229-11.656-11.656s5.229-11.656,11.656-11.656h66.044
			C296.151,473.685,301.38,478.914,301.38,485.341z M223.679,458.685c-6.427,0-11.656-5.229-11.656-11.656
			s5.229-11.656,11.656-11.656h66.044c6.427,0,11.656,5.229,11.656,11.656s-5.229,11.656-11.656,11.656H223.679z"/>
		<path d="M413.055,402.103l-33.35-22.233c-3.447-2.297-8.103-1.367-10.4,2.08c-2.298,3.446-1.367,8.103,2.08,10.4l33.35,22.233
			c1.279,0.853,2.724,1.261,4.153,1.261c2.423,0,4.802-1.173,6.247-3.341C417.433,409.057,416.502,404.4,413.055,402.103z"/>
		<path d="M375.552,37.235c1.43,0,2.875-0.408,4.153-1.261l33.35-22.233c3.447-2.297,4.378-6.954,2.08-10.4s-6.955-4.377-10.4-2.08
			l-33.35,22.233c-3.447,2.297-4.378,6.954-2.08,10.4C370.75,36.062,373.128,37.235,375.552,37.235z"/>
		<path d="M426.189,322.547l-48.635-13.517c-3.993-1.11-8.125,1.227-9.234,5.218c-1.109,3.991,1.227,8.125,5.218,9.234
			l48.635,13.517c0.672,0.187,1.348,0.276,2.013,0.276c3.284,0,6.299-2.174,7.222-5.494
			C432.516,327.791,430.179,323.656,426.189,322.547z"/>
		<path d="M368.319,101.596c0.922,3.319,3.937,5.494,7.222,5.494c0.665,0,1.341-0.089,2.012-0.276l48.635-13.517
			c3.991-1.109,6.327-5.244,5.218-9.234c-1.109-3.991-5.249-6.327-9.234-5.218l-48.635,13.517
			C369.546,93.471,367.21,97.605,368.319,101.596z"/>
		<path d="M441.394,242.788l-65.311-4.698c-4.125-0.294-7.722,2.811-8.019,6.942c-0.297,4.131,2.811,7.722,6.942,8.019l65.311,4.698
			c0.183,0.013,0.365,0.02,0.546,0.02c3.897,0,7.189-3.014,7.473-6.962C448.634,246.675,445.525,243.084,441.394,242.788z"/>
		<path d="M368.065,170.811c0.284,3.948,3.575,6.962,7.473,6.962c0.181,0,0.363-0.007,0.546-0.02l65.311-4.697
			c4.131-0.297,7.24-3.887,6.942-8.019c-0.297-4.131-3.875-7.234-8.019-6.942l-65.311,4.697
			C370.876,163.089,367.767,166.68,368.065,170.811z"/>
		<path d="M132.292,379.869l-33.35,22.233c-3.447,2.297-4.378,6.954-2.08,10.4c1.445,2.168,3.823,3.341,6.247,3.341
			c1.43,0,2.875-0.408,4.153-1.261l33.35-22.233c3.447-2.297,4.378-6.954,2.08-10.4S135.738,377.572,132.292,379.869z"/>
		<path d="M140.613,23.494l-33.35-22.233c-3.446-2.298-8.104-1.367-10.4,2.08c-2.298,3.446-1.367,8.103,2.08,10.4l33.35,22.233
			c1.279,0.853,2.724,1.261,4.153,1.261c2.423,0,4.802-1.173,6.247-3.341C144.99,30.448,144.059,25.791,140.613,23.494z"/>
		<path d="M143.678,314.248c-1.109-3.991-5.244-6.325-9.234-5.218l-48.635,13.517c-3.991,1.109-6.327,5.244-5.218,9.234
			c0.922,3.319,3.937,5.494,7.222,5.494c0.665,0,1.341-0.089,2.013-0.276l48.635-13.517
			C142.451,322.373,144.788,318.238,143.678,314.248z"/>
		<path d="M85.809,93.297l48.635,13.517c0.672,0.187,1.348,0.276,2.012,0.276c3.285,0,6.3-2.174,7.222-5.494
			c1.109-3.991-1.227-8.125-5.218-9.234L89.825,78.845c-3.99-1.109-8.125,1.226-9.234,5.218
			C79.482,88.053,81.818,92.187,85.809,93.297z"/>
		<path d="M143.933,245.032c-0.297-4.131-3.876-7.232-8.019-6.942l-65.311,4.698c-4.131,0.297-7.24,3.887-6.942,8.019
			c0.284,3.948,3.575,6.962,7.473,6.962c0.181,0,0.363-0.007,0.546-0.02l65.311-4.698
			C141.122,252.754,144.23,249.164,143.933,245.032z"/>
		<path d="M70.604,173.056l65.311,4.697c0.184,0.013,0.365,0.02,0.546,0.02c3.897,0,7.189-3.014,7.473-6.962
			c0.297-4.131-2.811-7.722-6.942-8.019l-65.311-4.697c-4.13-0.301-7.722,2.811-8.019,6.942
			C63.364,169.169,66.472,172.759,70.604,173.056z"/>
	</g>
</g>
<g>
</g>
<g>
</g>
<g>
</g>
<g>
</g>
<g>
</g>
<g>
</g>
<g>
</g>
<g>
</g>
<g>
</g>
<g>
</g>
<g>
</g>
<g>
</g>
<g>
</g>
<g>
</g>
<g>
</g>
</svg>
