<?xml version="1.0" encoding="iso-8859-1"?>
<!-- Generator: Adobe Illustrator 22.0.0, SVG Export Plug-In . SVG Version: 6.00 Build 0)  -->
<svg version="1.1" id="Capa_1" xmlns="http://www.w3.org/2000/svg" xmlns:xlink="http://www.w3.org/1999/xlink" x="0px" y="0px"
	 viewBox="0 0 512 512" style="enable-background:new 0 0 512 512;" xml:space="preserve">
<g id="XMLID_2540_">
	<path id="XMLID_2478_" style="fill:#91DEF5;" d="M96,10c-17.673,0-32,14.327-32,32v428c0-17.673,14.327-32,32-32h352V10H96z"/>
	<rect id="XMLID_2434_" x="112" y="10" style="fill:#FFFFFF;" width="336" height="428"/>
	<path id="XMLID_2406_" style="fill:#FFD89E;" d="M448,438H96c-17.673,0-32,14.327-32,32v0c0,17.673,14.327,32,32,32h352V438z"/>
	<g id="XMLID_2476_">
		<path id="XMLID_2482_" style="fill:#CFF1FB;" d="M378.508,74.431L378.508,74.431l-0.028-0.007
			c-18.314-4.496-37.647,0.903-50.982,14.237l-73.165,73.165c-17.981,17.981-28.813,41.885-30.479,67.259l0,0l0.057-0.004
			c25.29-1.718,49.1-12.54,67.024-30.464l73.311-73.311C377.553,112,382.959,92.717,378.508,74.431z"/>
		<polygon id="XMLID_2481_" style="fill:#91DEF5;" points="274.709,211.883 282.489,251.183 257.672,276 244.126,227.23 		"/>
		<polygon id="XMLID_2480_" style="fill:#91DEF5;" points="241.021,178.195 201.721,170.415 176.904,195.232 225.674,208.778 		"/>
		<polygon id="XMLID_2479_" style="fill:#91DEF5;" points="352.417,137.136 383.096,218.103 353.64,247.559 310.316,179.237 		"/>
		<polygon id="XMLID_2477_" style="fill:#91DEF5;" points="315.768,100.488 234.801,69.808 205.345,99.264 273.667,142.588 		"/>
	</g>
	<g id="XMLID_1415_">
		<path id="XMLID_1491_" d="M392.447,214.561l-28.389-74.924l7.258-7.258c15.67-15.671,22.149-38.781,16.907-60.313
			c-0.857-3.525-3.587-6.317-7.085-7.282c-0.091-0.025-0.183-0.05-0.275-0.072c-21.57-5.295-44.729,1.171-60.437,16.878
			l-7.229,7.229l-74.854-28.362c-3.677-1.395-7.833-0.503-10.614,2.28l-29.456,29.455c-2.146,2.146-3.202,5.152-2.868,8.17
			s2.021,5.721,4.584,7.347l57.719,36.6l-10.446,10.447c-3.881,3.881-7.452,8.016-10.708,12.361l-32.891-6.511
			c-3.276-0.649-6.654,0.379-9.014,2.738l-24.816,24.817c-2.515,2.515-3.505,6.176-2.6,9.615c0.904,3.439,3.568,6.14,6.995,7.091
			l41.102,11.416c-0.696,4.004-1.187,8.057-1.456,12.147c-0.188,2.878,0.902,5.695,2.943,7.732c1.881,1.877,4.447,2.919,7.09,2.919
			c0.226,0,0.453-0.008,0.68-0.023c4.053-0.275,8.07-0.77,12.039-1.465l11.411,41.082c0.951,3.427,3.651,6.091,7.091,6.995
			c0.841,0.222,1.695,0.329,2.543,0.329c2.618,0,5.173-1.029,7.072-2.929l24.816-24.816c2.359-2.359,3.387-5.74,2.738-9.013
			l-6.521-32.944c4.298-3.229,8.388-6.767,12.229-10.608l10.552-10.552l36.636,57.777c1.626,2.563,4.328,4.25,7.346,4.584
			c0.368,0.041,0.734,0.061,1.101,0.061c2.637,0,5.185-1.044,7.07-2.929l29.456-29.455
			C392.948,222.394,393.841,218.239,392.447,214.561z M221.245,97.506l16.057-16.056l60.385,22.88L272.2,129.817L221.245,97.506z
			 M196.095,190.184l8.922-8.922l20.393,4.037c-1.863,3.789-3.515,7.679-4.95,11.653L196.095,190.184z M271.642,247.888
			l-8.921,8.922l-6.77-24.371c3.973-1.441,7.862-3.099,11.65-4.967L271.642,247.888z M283.863,191.547
			c-13.286,13.286-30.14,22.257-48.417,25.922c2.363-11.896,6.995-23.197,13.597-33.317c0.235-0.316,0.454-0.645,0.652-0.991
			c3.411-5.089,7.319-9.873,11.709-14.263l18.583-18.583c0.528-0.432,1.021-0.914,1.461-1.461l40.582-40.583
			c0.579-0.465,1.115-0.99,1.583-1.583l10.955-10.955c8.303-8.302,19.632-12.846,31.166-12.846c1.366,0,2.735,0.063,4.103,0.192
			c1.181,12.872-3.408,25.903-12.663,35.157l-53.803,53.803c-0.003,0.003-0.006,0.006-0.008,0.008L283.863,191.547z
			 M355.398,231.658l-32.348-51.014l25.497-25.497l22.906,60.455L355.398,231.658z"/>
		<path id="XMLID_1640_" d="M448,0H96C72.841,0,54,18.841,54,42v428c0,23.159,18.841,42,42,42h352c5.522,0,10-4.478,10-10v-64V269
			c0-5.522-4.478-10-10-10s-10,4.478-10,10v159H122V20h316v159c0,5.522,4.478,10,10,10s10-4.478,10-10V10C458,4.478,453.522,0,448,0
			z M438,492H96c-12.131,0-22-9.869-22-22s9.869-22,22-22h342V492z M102,428h-6c-8.062,0-15.597,2.288-22,6.242V42
			c0-12.131,9.869-22,22-22h6V428z"/>
		<path id="XMLID_1642_" d="M385,337.938c0-5.522-4.478-10-10-10H185c-5.522,0-10,4.478-10,10s4.478,10,10,10h190
			C380.522,347.938,385,343.46,385,337.938z"/>
		<path id="XMLID_1645_" d="M222,375.938c-5.522,0-10,4.478-10,10s4.478,10,10,10h116c5.522,0,10-4.478,10-10s-4.478-10-10-10H222z"
			/>
		<path id="XMLID_1657_" d="M448,214c-2.63,0-5.21,1.069-7.07,2.93S438,221.37,438,224s1.069,5.21,2.93,7.069
			c1.86,1.86,4.44,2.931,7.07,2.931s5.21-1.07,7.069-2.931C456.93,229.21,458,226.63,458,224s-1.07-5.21-2.931-7.07
			C453.21,215.069,450.63,214,448,214z"/>
	</g>
</g>
<g>
</g>
<g>
</g>
<g>
</g>
<g>
</g>
<g>
</g>
<g>
</g>
<g>
</g>
<g>
</g>
<g>
</g>
<g>
</g>
<g>
</g>
<g>
</g>
<g>
</g>
<g>
</g>
<g>
</g>
</svg>
