<?xml version="1.0" encoding="iso-8859-1"?>
<!-- Generator: Adobe Illustrator 19.0.0, SVG Export Plug-In . SVG Version: 6.00 Build 0)  -->
<svg version="1.1" id="Layer_1" xmlns="http://www.w3.org/2000/svg" xmlns:xlink="http://www.w3.org/1999/xlink" x="0px" y="0px"
	 viewBox="0 0 512 512" style="enable-background:new 0 0 512 512;" xml:space="preserve">
<g id="XMLID_973_">
	<g id="XMLID_2252_">
		<g id="XMLID_2253_">
			<path id="XMLID_2260_" style="fill:#4DBAF6;" d="M295.464,502h-78.928c-12.019,0-21.763-9.744-21.763-21.763v-76.712h122.454
				v76.712C317.227,492.256,307.483,502,295.464,502z"/>
			<path id="XMLID_2259_" style="fill:#C9F3FF;" d="M425.035,179.035c0-93.376-75.713-169.068-169.096-169.035
				C162.672,10.033,86.964,85.77,86.965,179.036c0,50.062,21.767,95.036,56.351,125.984c27.578,24.679,45.884,58.045,50.934,94.707
				l0.523,3.797h122.454l0.334-2.428c5.144-37.346,23.738-71.338,51.713-96.608C403.515,273.558,425.035,228.812,425.035,179.035z"
				/>
			<g id="XMLID_2363_">
				<polyline id="XMLID_2370_" style="fill:#FFB954;" points="212.127,403.525 212.127,251.74 300.127,251.74 300.127,403.525 				
					"/>
				<polygon id="XMLID_2369_" style="fill:#FEDA9B;" points="256.127,149.043 300.127,251.74 212.127,251.74 				"/>
			</g>
		</g>
	</g>
	<g id="XMLID_1503_">
		<path id="XMLID_1731_" d="M397.137,68.868c-3.401-4.351-9.686-5.12-14.037-1.721c-4.352,3.401-5.122,9.686-1.721,14.037
			c22.018,28.171,33.656,62.007,33.656,97.85c0,44.895-19.122,87.917-52.463,118.034c-26.513,23.95-44.816,55.177-52.444,89.053
			V251.739c0-1.354-0.275-2.693-0.808-3.938l-44-102.696c-1.576-3.677-5.191-6.062-9.192-6.062s-7.616,2.385-9.192,6.062
			l-44,102.696c-0.533,1.245-0.808,2.585-0.808,3.938v135.055c-7.264-34.046-25.502-65.386-52.142-89.226
			c-33.694-30.151-53.019-73.355-53.02-118.532C96.964,91.374,168.281,20.031,255.942,20c0.021,0,0.038,0,0.059,0
			c26.515,0,52.762,6.654,75.896,19.242c4.85,2.641,10.924,0.848,13.563-4.005c2.64-4.852,0.847-10.924-4.004-13.563
			C315.395,7.494,285.847,0,256,0c-0.022,0-0.044,0-0.065,0C157.25,0.035,76.964,80.351,76.965,179.036
			c0,50.859,21.754,99.495,59.683,133.437c26.103,23.358,43.042,54.831,47.696,88.619l0.429,3.119v76.026
			c0,17.514,14.249,31.763,31.763,31.763h78.928c17.514,0,31.763-14.249,31.763-31.763v-76.028l0.241-1.747
			c4.741-34.418,21.969-66.577,48.51-90.552c37.532-33.903,59.057-82.335,59.057-132.876
			C435.035,138.685,421.93,100.59,397.137,68.868z M266.127,393.524V261.739h24v131.785H266.127z M222.127,393.524V261.739h24
			v131.785H222.127z M256.127,174.436l28.836,67.304h-57.673L256.127,174.436z M307.227,480.237c0,6.486-5.277,11.763-11.763,11.763
			h-78.928c-6.486,0-11.763-5.276-11.763-11.763v-17.475H248c5.523,0,10-4.478,10-10s-4.477-10-10-10h-43.227v-29.238h102.454
			V480.237z"/>
		<path id="XMLID_1739_" d="M358.707,57.607l0.097,0.083c1.888,1.624,4.208,2.419,6.517,2.419c2.812,0,5.608-1.18,7.585-3.479
			c3.602-4.188,3.127-10.501-1.06-14.103l-0.178-0.151c-4.207-3.58-10.518-3.071-14.096,1.134
			C353.993,47.717,354.501,54.028,358.707,57.607z"/>
		<path id="XMLID_1740_" d="M325.029,103.274l-17.655,17.654c-3.905,3.905-3.906,10.237,0,14.143
			c1.953,1.952,4.512,2.929,7.071,2.929c2.559,0,5.119-0.977,7.071-2.929l17.655-17.654c3.905-3.905,3.906-10.237,0-14.143
			C335.266,99.37,328.934,99.37,325.029,103.274z"/>
		<path id="XMLID_1742_" d="M173.083,103.274c-3.905,3.905-3.905,10.237,0,14.143l17.655,17.654
			c1.953,1.952,4.512,2.929,7.071,2.929s5.119-0.977,7.071-2.929c3.905-3.905,3.905-10.237,0-14.143l-17.655-17.654
			C183.319,99.37,176.988,99.37,173.083,103.274z"/>
		<path id="XMLID_1746_" d="M246.127,68.333v42.013c0,5.522,4.477,10,10,10s10-4.478,10-10V68.333c0-5.522-4.477-10-10-10
			S246.127,62.811,246.127,68.333z"/>
		<path id="XMLID_1747_" d="M283.67,442.76c-2.64,0-5.21,1.07-7.07,2.93c-1.87,1.86-2.93,4.44-2.93,7.07s1.06,5.21,2.93,7.07
			c1.86,1.87,4.44,2.93,7.07,2.93s5.2-1.06,7.07-2.93c1.86-1.86,2.93-4.44,2.93-7.07s-1.07-5.21-2.93-7.07
			C288.88,443.83,286.3,442.76,283.67,442.76z"/>
		<path id="XMLID_1748_" d="M465.363,401.363c-5.523,0-10,4.478-10,10v12.65c0,5.522,4.477,10,10,10s10-4.478,10-10v-12.65
			C475.363,405.841,470.886,401.363,465.363,401.363z"/>
		<path id="XMLID_1749_" d="M465.363,461.986c-5.523,0-10,4.478-10,10v12.65c0,5.522,4.477,10,10,10s10-4.478,10-10v-12.65
			C475.363,466.464,470.886,461.986,465.363,461.986z"/>
		<path id="XMLID_1750_" d="M502,438h-12.65c-5.523,0-10,4.478-10,10s4.477,10,10,10H502c5.523,0,10-4.478,10-10
			S507.523,438,502,438z"/>
		<path id="XMLID_1751_" d="M441.376,438h-12.65c-5.523,0-10,4.478-10,10s4.477,10,10,10h12.65c5.523,0,10-4.478,10-10
			S446.899,438,441.376,438z"/>
		<path id="XMLID_1752_" d="M46.637,0c-5.523,0-10,4.478-10,10v12.65c0,5.522,4.477,10,10,10s10-4.478,10-10V10
			C56.637,4.478,52.16,0,46.637,0z"/>
		<path id="XMLID_1753_" d="M46.637,60.623c-5.523,0-10,4.478-10,10v12.65c0,5.522,4.477,10,10,10s10-4.478,10-10v-12.65
			C56.637,65.101,52.16,60.623,46.637,60.623z"/>
		<path id="XMLID_1754_" d="M93.273,46.637c0-5.522-4.477-10-10-10h-12.65c-5.523,0-10,4.478-10,10s4.477,10,10,10h12.65
			C88.796,56.637,93.273,52.159,93.273,46.637z"/>
		<path id="XMLID_1755_" d="M22.65,36.637H10c-5.523,0-10,4.478-10,10s4.477,10,10,10h12.65c5.523,0,10-4.478,10-10
			S28.173,36.637,22.65,36.637z"/>
	</g>
</g>
<g>
</g>
<g>
</g>
<g>
</g>
<g>
</g>
<g>
</g>
<g>
</g>
<g>
</g>
<g>
</g>
<g>
</g>
<g>
</g>
<g>
</g>
<g>
</g>
<g>
</g>
<g>
</g>
<g>
</g>
</svg>
