<?xml version="1.0" encoding="iso-8859-1"?>
<!-- Generator: Adobe Illustrator 24.0.0, SVG Export Plug-In . SVG Version: 6.00 Build 0)  -->
<svg version="1.1" id="Capa_1" xmlns="http://www.w3.org/2000/svg" xmlns:xlink="http://www.w3.org/1999/xlink" x="0px" y="0px"
	 viewBox="0 0 511.972 511.972" style="enable-background:new 0 0 511.972 511.972;" xml:space="preserve">
<g>
	<g>
		<path style="fill:#544F57;" d="M142.011,101.925H58.808c-15.205,0-27.532,12.326-27.532,27.532v56.268h110.735V101.925z"/>
		<path style="fill:#454045;" d="M95.725,101.927c-15.21,0-27.53,12.32-27.53,27.53v56.269h-36.92v-56.269
			c0-15.21,12.33-27.53,27.54-27.53H95.725z"/>
		<path style="fill:#DA4A54;" d="M501.494,235.306c-1.012-13.707-2.282-27.411-3.812-41.115
			c-3.004-26.916-24.867-47.797-51.896-49.503c-12.084-0.763-24.169-1.453-36.253-2.071l-20.437-59.379
			c-6.424-18.665-23.987-31.194-43.726-31.194H166.602c-19.739,0-37.302,12.529-43.726,31.194l-20.437,59.379
			c-12.083,0.618-24.165,1.308-36.248,2.071c-27.026,1.706-48.886,22.582-51.895,49.494c-1.532,13.707-2.806,27.414-3.818,41.124
			c-3.99,53.799-3.99,107.609,0,161.408c1.012,13.713,2.286,27.426,3.819,41.139c3.011,26.936,24.908,47.786,51.957,49.495
			c126.489,7.994,252.978,7.994,379.467,0c27.053-1.71,48.952-22.565,51.958-49.504c1.53-13.71,2.801-27.42,3.813-41.13
			C505.484,342.914,505.484,289.105,501.494,235.306z"/>
		<path style="fill:#C63D4F;" d="M166.605,52.043h13.5c-14.86,0-28.09,12.66-32.93,31.52l-15.39,59.999
			c-9.1,0.63-18.2,1.32-27.29,2.09c-20.36,1.729-36.82,22.82-39.09,50.019c-1.15,13.85-2.11,27.7-2.87,41.55
			c-3.01,54.37-3.01,108.739,0,163.108c0.76,13.86,1.72,27.71,2.87,41.57c1.84,22.05,13.01,40.059,28.01,47.029
			c-9.05-0.49-18.11-1.02-27.16-1.59c-27.05-1.71-48.939-22.56-51.949-49.49c-1.54-13.71-2.81-27.43-3.82-41.14
			c-3.99-53.799-3.99-107.609,0-161.408c1.01-13.71,2.28-27.42,3.81-41.12c3.01-26.92,24.87-47.79,51.899-49.499
			c12.08-0.76,24.17-1.45,36.25-2.07l20.44-59.38C129.305,64.573,146.865,52.043,166.605,52.043z"/>
		<path style="fill:#F4DD45;" d="M501.494,396.714c-146.349,4.57-292.707,5.05-439.066,1.44c-17.31-0.42-34.63-0.9-51.939-1.44
			h-0.01c-0.01-0.13-0.02-0.26-0.03-0.39c-3.96-53.669-3.95-107.349,0.03-161.018c17.42-0.54,34.84-1.03,52.259-1.45
			c146.249-3.6,292.507-3.12,438.756,1.45C505.484,289.105,505.484,342.914,501.494,396.714z"/>
		<path style="fill:#EAB14D;" d="M62.538,237.225c-2.97,53.64-3.01,107.289-0.11,160.929c-17.31-0.42-34.63-0.9-51.939-1.44
			c-0.01-0.13-0.02-0.26-0.04-0.39c-3.96-53.669-3.95-107.349,0.03-161.018c17.42-0.54,34.84-1.03,52.259-1.45
			C62.658,234.975,62.598,236.105,62.538,237.225z"/>
		<circle style="fill:#544F57;" cx="255.986" cy="316.01" r="138.932"/>
		<path style="fill:#E7ECF1;" d="M184.141,244.158c24.268-24.268,57.756-33.686,89.194-28.27
			c19.954,3.437,39.081,12.862,54.496,28.277c39.682,39.682,39.682,104.015,0.007,143.69c-39.682,39.682-104.014,39.682-143.697,0
			c-15.415-15.415-24.84-34.542-28.277-54.496C150.448,301.921,159.873,268.426,184.141,244.158z"/>
		<path style="fill:#C6D0DA;" d="M327.831,387.862c-24.268,24.268-57.756,33.686-89.194,28.27
			c-5.416-31.438,4.002-64.926,28.27-89.194c24.268-24.268,57.763-33.693,89.201-28.277
			C361.524,330.099,352.099,363.594,327.831,387.862z"/>
		<path style="fill:#C6D0DA;" d="M184.141,244.158c24.268-24.268,57.756-33.686,89.194-28.27
			c5.416,31.438-4.002,64.926-28.27,89.194c-24.268,24.268-57.763,33.693-89.201,28.277
			C150.448,301.921,159.873,268.426,184.141,244.158z"/>
		<path style="fill:#544F57;" d="M296.586,316.015c0,14.89-8.02,27.909-19.98,34.98c-6.04,3.57-13.09,5.62-20.62,5.62
			c-22.42,0-40.6-18.18-40.6-40.6c0-22.43,18.18-40.609,40.6-40.609c7.53,0,14.58,2.05,20.62,5.62
			C288.566,288.095,296.586,301.115,296.586,316.015z"/>
		<path style="fill:#454045;" d="M296.586,316.015c0,14.89-8.02,27.909-19.98,34.98c-11.96-7.06-19.99-20.08-19.99-34.98
			s8.03-27.93,19.99-34.99C288.566,288.095,296.586,301.115,296.586,316.015z"/>
		<path style="fill:#E7ECF1;" d="M325.931,81.307H186.042c-16.467,0-29.817,13.349-29.817,29.817v1.554
			c0,16.467,13.349,29.817,29.817,29.817h139.889c16.467,0,29.817-13.349,29.817-29.817v-1.554
			C355.747,94.657,342.398,81.307,325.931,81.307z"/>
		<g>
			<path style="fill:#FBF4AF;" d="M392.518,120.647l37.075-12.74c11.135-3.826,11.135-19.574,0-23.401l-37.075-12.74
				c-3.607-1.239-6.44-4.073-7.68-7.68l-12.74-37.075c-3.826-11.135-19.574-11.135-23.401,0l-12.741,37.075
				c-1.239,3.607-4.073,6.44-7.68,7.68l-37.075,12.74c-11.135,3.826-11.135,19.574,0,23.401l37.075,12.74
				c3.607,1.239,6.44,4.073,7.68,7.68l12.741,37.075c3.826,11.135,19.574,11.135,23.401,0l12.74-37.075
				C386.077,124.72,388.911,121.887,392.518,120.647z"/>
		</g>
		<circle style="fill:#544F57;" cx="431.331" cy="415.496" r="34.584"/>
	</g>
	<g>
		<path d="M365.091,316.011c0-60.161-48.944-109.105-109.104-109.105S146.882,255.85,146.882,316.011
			s48.944,109.104,109.105,109.104S365.091,376.171,365.091,316.011z M255.987,410.115c-51.89,0-94.105-42.215-94.105-94.104
			s42.215-94.105,94.105-94.105c51.889,0,94.104,42.215,94.104,94.105S307.876,410.115,255.987,410.115z"/>
		<path d="M255.987,267.909c-26.523,0-48.102,21.579-48.102,48.102s21.579,48.102,48.102,48.102s48.102-21.578,48.102-48.102
			S282.51,267.909,255.987,267.909z M255.987,349.112c-18.252,0-33.102-14.849-33.102-33.102s14.85-33.102,33.102-33.102
			s33.102,14.85,33.102,33.102S274.239,349.112,255.987,349.112z"/>
		<path d="M508.973,234.751c-1.011-13.725-2.302-27.651-3.836-41.393c-3.422-30.6-28.185-54.219-58.882-56.161
			c-10.348-0.651-20.844-1.259-31.275-1.811l-4.47-12.992L432.03,115c8.148-2.8,13.414-10.177,13.414-18.793
			s-5.265-15.993-13.414-18.793l-37.074-12.74c-1.431-0.492-2.533-1.594-3.025-3.024l-12.74-37.075
			c-2.8-8.148-10.177-13.414-18.793-13.414s-15.993,5.265-18.793,13.414l-6.862,19.969H181.597c-4.142,0-7.5,3.358-7.5,7.5
			s3.358,7.5,7.5,7.5h147.99l-0.724,2.105c-0.492,1.431-1.594,2.533-3.024,3.024l-26.578,9.133H186.037
			c-20.573,0-37.31,16.742-37.31,37.32v1.55c0,20.578,16.737,37.32,37.31,37.32h139.898c3.088,0,6.164-0.394,9.143-1.146
			l6.526,18.989c2.8,8.148,10.177,13.414,18.793,13.414s15.993-5.265,18.793-13.414l12.74-37.074
			c0.492-1.431,1.594-2.533,3.025-3.025h0l1.37-0.471l6.118,17.784c0.996,2.895,3.65,4.894,6.708,5.05
			c12.031,0.617,24.198,1.312,36.16,2.064c23.417,1.481,42.309,19.506,44.92,42.857c1.205,10.793,2.25,21.698,3.133,32.532
			c-40.989-1.234-82.269-2.159-122.907-2.748c-26.853-33.634-68.184-55.227-114.47-55.227s-87.617,21.592-114.47,55.227
			c-40.638,0.589-81.917,1.514-122.906,2.748c0.877-10.744,1.925-21.649,3.142-32.541c2.61-23.346,21.498-41.366,44.907-42.848
			c12.021-0.756,24.188-1.451,36.163-2.065c3.057-0.157,5.711-2.155,6.708-5.049l20.44-59.381
			c3.877-11.273,12.933-20.276,24.224-24.083c3.925-1.323,6.034-5.578,4.711-9.503s-5.577-6.034-9.503-4.711
			c-15.669,5.282-28.236,17.775-33.616,33.416l-4.693,13.634H58.808c-19.315,0-35.029,15.714-35.029,35.03v27.369
			c-9.193,9.712-15.351,22.368-16.934,36.524c-1.552,13.893-2.846,27.822-3.846,41.397C-1,288.667-1,343.346,2.999,397.261
			C4,410.849,5.294,424.785,6.845,438.683c3.418,30.587,28.207,54.198,58.939,56.142c63.106,3.991,126.656,5.987,190.207,5.987
			s127.101-1.996,190.207-5.987c30.734-1.943,55.521-25.559,58.94-56.153c1.534-13.743,2.824-27.676,3.835-41.407
			C512.972,343.346,512.972,288.667,508.973,234.751z M325.935,134.996H186.037c-12.302,0-22.31-10.013-22.31-22.32v-1.55
			c0-12.307,10.008-22.32,22.31-22.32h90.707c-0.902,2.292-1.393,4.787-1.393,7.4c0,8.616,5.265,15.993,13.414,18.793l37.074,12.74
			c1.431,0.492,2.533,1.594,3.024,3.024l1.315,3.827C328.796,134.857,327.381,134.996,325.935,134.996z M390.08,113.555
			L390.08,113.555c-5.834,2.005-10.33,6.501-12.335,12.335l-12.74,37.075c-1.02,2.968-3.562,3.289-4.607,3.289
			s-3.587-0.32-4.607-3.289l-12.741-37.075c-2.004-5.833-6.5-10.33-12.334-12.335l-37.075-12.74
			c-2.968-1.02-3.289-3.562-3.289-4.607s0.32-3.587,3.289-4.607l37.075-12.74c5.834-2.005,10.33-6.501,12.334-12.335L355.79,29.45
			c1.02-2.968,3.562-3.289,4.607-3.289s3.587,0.32,4.607,3.289l12.74,37.075c2.005,5.833,6.501,10.329,12.335,12.334l37.075,12.74
			c2.968,1.02,3.289,3.562,3.289,4.607s-0.32,3.587-3.289,4.607L390.08,113.555z M58.808,109.427h47.121l-8.936,25.96
			c-10.391,0.55-20.888,1.158-31.279,1.812c-9.742,0.616-18.882,3.423-26.936,7.938v-15.679
			C38.779,118.412,47.764,109.427,58.808,109.427z M494.482,242.598c3.307,48.75,3.307,98.074-0.001,146.828
			c-10.496,0.319-20.233,0.595-29.495,0.835c-7.685-10.224-19.911-16.849-33.656-16.849c-14.415,0-27.157,7.289-34.745,18.371
			c-4.916,0.091-10.052,0.179-15.459,0.266c1.805-2.959,3.516-5.973,5.102-9.05c10.589-20.55,16.187-43.714,16.187-66.987
			c0-27.826-7.804-53.862-21.334-76.04C418.651,240.57,456.696,241.452,494.482,242.598z M458.414,415.496
			c0,14.934-12.15,27.084-27.084,27.084s-27.084-12.15-27.084-27.084s12.15-27.084,27.084-27.084S458.414,400.562,458.414,415.496z
			 M17.49,389.421c-3.307-48.75-3.307-98.071,0-146.823c37.786-1.146,75.832-2.028,113.402-2.626
			c-13.531,22.177-21.334,48.214-21.334,76.04c0,27.824,7.803,53.86,21.332,76.037C93.327,391.45,55.282,390.568,17.49,389.421z
			 M445.251,479.855c-125.584,7.941-252.936,7.941-378.52,0c-23.454-1.483-42.371-19.499-44.979-42.837
			c-1.216-10.895-2.264-21.805-3.142-32.556c40.995,1.235,82.274,2.159,122.903,2.748c26.853,33.636,68.185,55.23,114.473,55.23
			c21.127,0,41.525-4.409,60.627-13.104c3.77-1.716,5.435-6.164,3.719-9.934c-1.717-3.77-6.164-5.435-9.934-3.719
			c-17.137,7.801-35.443,11.756-54.412,11.756c-72.47,0-131.429-58.958-131.429-131.429s58.958-131.429,131.429-131.429
			s131.429,58.958,131.429,131.429c0,21.192-4.885,41.418-14.521,60.117c-9.197,17.848-22.611,33.611-38.791,45.583
			c-3.33,2.464-4.031,7.16-1.567,10.49c2.464,3.33,7.16,4.031,10.49,1.567c10.267-7.597,19.529-16.569,27.497-26.558
			c6.958-0.101,13.458-0.204,19.608-0.311c-0.578,2.776-0.885,5.65-0.885,8.595c0,23.205,18.879,42.084,42.084,42.084
			s42.084-18.879,42.084-42.084c0-3.595-0.455-7.085-1.307-10.419c6.774-0.184,13.827-0.386,21.255-0.61
			c-0.883,10.838-1.927,21.747-3.132,32.541C487.622,460.351,468.705,478.371,445.251,479.855z"/>
	</g>
</g>
<g>
</g>
<g>
</g>
<g>
</g>
<g>
</g>
<g>
</g>
<g>
</g>
<g>
</g>
<g>
</g>
<g>
</g>
<g>
</g>
<g>
</g>
<g>
</g>
<g>
</g>
<g>
</g>
<g>
</g>
</svg>
