<?xml version="1.0" encoding="iso-8859-1"?>
<!-- Generator: Adobe Illustrator 19.0.0, SVG Export Plug-In . SVG Version: 6.00 Build 0)  -->
<svg version="1.1" id="Layer_1" xmlns="http://www.w3.org/2000/svg" xmlns:xlink="http://www.w3.org/1999/xlink" x="0px" y="0px"
	 viewBox="0 0 512 512" style="enable-background:new 0 0 512 512;" xml:space="preserve">
<g id="XMLID_3062_">
	<g id="XMLID_1385_">
		<path id="XMLID_2598_" style="fill:#FF5D5D;" d="M281.499,82.05L281.499,82.05c-58.444,1.541-114.07,25.446-155.411,66.787
			l-53.277,53.277l44.312,44.312l145.491,145.491l44.312,44.312l53.277-53.277c41.341-41.341,65.245-96.966,66.787-155.411v0
			L281.499,82.05z"/>
		<path id="XMLID_2597_" style="fill:#ADE5FF;" d="M262.614,391.918l133.548-133.548C462.034,192.498,499.041,103.157,499.041,10v0
			h0c-93.157,0-182.498,37.006-248.369,102.878L117.123,246.426L262.614,391.918z"/>
		<path id="XMLID_2594_" style="fill:#FFFFFF;" d="M225.136,354.439L225.136,354.439c-30.474,30.474-70.085,50.135-112.783,55.98
			l-15.909,2.178l2.178-15.909c5.845-42.698,25.506-82.309,55.98-112.783l0,0L225.136,354.439z"/>
		<path id="XMLID_2593_" style="fill:#FFC66C;" d="M225.136,354.439L225.136,354.439c-30.474,30.474-70.085,50.135-112.783,55.98
			l-15.909,2.178l2.178-15.909c5.845-42.698,25.506-82.309,55.98-112.783l0,0L225.136,354.439z"/>
		<circle id="XMLID_2591_" style="fill:#FFFFFF;" cx="269.815" cy="239.226" r="40"/>
		<circle id="XMLID_1770_" style="fill:#FFFFFF;" cx="370.338" cy="138.702" r="40"/>
	</g>
	<g id="XMLID_1428_">
		<path id="XMLID_1950_" d="M509.041,10c0-5.522-4.478-10-10-10c-47.681,0-94.192,9.252-138.243,27.498
			c-28.085,11.633-54.281,26.573-78.326,44.601c-0.319-0.031-0.642-0.048-0.968-0.048c-0.089,0-0.179,0.001-0.269,0.004
			c-61.27,1.615-118.88,26.372-162.219,69.711L65.74,195.043c-3.905,3.905-3.905,10.237,0,14.143l44.312,44.312l30.589,30.589
			c-27.942,30.833-46.274,69.961-51.926,111.245l-2.178,15.909c-0.425,3.099,0.625,6.217,2.836,8.428
			c1.889,1.888,4.438,2.929,7.07,2.929c0.451,0,0.904-0.03,1.357-0.093l15.909-2.178c41.283-5.652,80.411-23.984,111.245-51.926
			l30.589,30.589l44.312,44.312c1.953,1.952,4.512,2.929,7.071,2.929c2.559,0,5.118-0.977,7.071-2.929l53.277-53.276
			c43.339-43.339,68.096-100.949,69.711-162.219c0.011-0.416-0.012-0.825-0.05-1.229c18.031-24.047,32.972-50.246,44.607-78.333
			C499.789,104.192,509.041,57.681,509.041,10z M133.159,155.908c33.483-33.483,76.265-54.858,122.514-61.621
			c-4.099,3.741-8.128,7.575-12.073,11.519L117.123,232.283l-30.17-30.169L133.159,155.908z M110.997,400.512l-2.858,0.391
			l0.391-2.858c5.063-36.981,21.383-72.057,46.266-99.804l56.006,56.006C183.053,379.129,147.978,395.448,110.997,400.512z
			 M353.132,375.882l-46.206,46.206l-30.169-30.17l26.767-26.768c3.905-3.905,3.905-10.237,0-14.143
			c-3.906-3.904-10.236-3.904-14.143,0l-26.767,26.768l-30.408-30.408l-70.533-70.533l-30.408-30.408l126.478-126.477
			c62.057-62.058,143.799-97.271,231.151-99.803c-2.532,87.353-37.745,169.095-99.803,231.151l-39.965,39.965
			c-3.905,3.905-3.905,10.237,0,14.143c3.906,3.904,10.236,3.904,14.143,0l39.965-39.965c3.944-3.944,7.778-7.974,11.519-12.073
			C407.99,299.617,386.615,342.399,353.132,375.882z"/>
		<path id="XMLID_1954_" d="M325.791,318.75c-2.641,0-5.21,1.06-7.08,2.93c-1.86,1.86-2.92,4.43-2.92,7.07
			c0,2.63,1.06,5.21,2.92,7.069c1.87,1.86,4.439,2.931,7.08,2.931c2.63,0,5.2-1.07,7.069-2.931c1.86-1.859,2.931-4.439,2.931-7.069
			c0-2.641-1.07-5.21-2.931-7.07C330.991,319.81,328.411,318.75,325.791,318.75z"/>
		<path id="XMLID_1972_" d="M305.171,203.87c-9.444-9.443-22-14.645-35.355-14.645s-25.911,5.201-35.355,14.645
			c-9.443,9.444-14.645,22-14.645,35.355s5.201,25.911,14.645,35.355c9.444,9.443,22,14.645,35.355,14.645
			s25.911-5.201,35.355-14.645c9.443-9.444,14.645-22,14.645-35.355S314.614,213.314,305.171,203.87z M291.028,260.438
			c-5.666,5.667-13.2,8.787-21.213,8.787s-15.547-3.12-21.213-8.787c-5.667-5.666-8.787-13.2-8.787-21.213s3.12-15.547,8.787-21.213
			c5.666-5.667,13.2-8.787,21.213-8.787s15.547,3.12,21.213,8.787c5.667,5.666,8.787,13.2,8.787,21.213
			S296.695,254.772,291.028,260.438z"/>
		<path id="XMLID_1976_" d="M370.339,188.702c13.355,0,25.911-5.201,35.355-14.645c9.443-9.444,14.645-22,14.645-35.355
			s-5.201-25.911-14.645-35.355c-9.444-9.443-22-14.645-35.355-14.645s-25.911,5.201-35.355,14.645
			c-9.443,9.444-14.645,22-14.645,35.355s5.201,25.911,14.645,35.355C344.427,183.501,356.983,188.702,370.339,188.702z
			 M349.126,117.489c5.666-5.667,13.2-8.787,21.213-8.787s15.547,3.12,21.213,8.787c5.667,5.666,8.787,13.2,8.787,21.213
			s-3.12,15.547-8.787,21.213c-5.666,5.667-13.2,8.787-21.213,8.787s-15.547-3.12-21.213-8.787
			c-5.667-5.666-8.787-13.2-8.787-21.213S343.459,123.155,349.126,117.489z"/>
		<path id="XMLID_1977_" d="M227.715,412.675l-68.334,68.333c-3.905,3.905-3.905,10.237,0,14.143
			c1.953,1.952,4.512,2.929,7.071,2.929c2.559,0,5.118-0.977,7.071-2.929l68.334-68.333c3.905-3.905,3.905-10.237,0-14.143
			C237.954,408.772,231.624,408.771,227.715,412.675z"/>
		<path id="XMLID_1978_" d="M53.969,333.555L5.888,381.636c-3.905,3.905-3.905,10.237,0,14.143c1.953,1.952,4.512,2.929,7.071,2.929
			s5.118-0.977,7.071-2.929l48.081-48.081c3.905-3.905,3.905-10.237,0-14.143C64.206,329.65,57.876,329.65,53.969,333.555z"/>
		<path id="XMLID_1982_" d="M90.27,321.399c2.63,0,5.2-1.069,7.07-2.93c1.86-1.86,2.93-4.439,2.93-7.07
			c0-2.63-1.069-5.21-2.93-7.069c-1.87-1.86-4.44-2.931-7.07-2.931s-5.21,1.07-7.08,2.931c-1.859,1.859-2.93,4.439-2.93,7.069
			c0,2.631,1.07,5.21,2.93,7.07C85.06,320.33,87.64,321.399,90.27,321.399z"/>
		<path id="XMLID_1983_" d="M130.969,449.515l-45.414,45.414c-3.905,3.905-3.905,10.237,0,14.143
			c1.953,1.952,4.512,2.929,7.071,2.929s5.118-0.977,7.071-2.929l45.414-45.414c3.905-3.905,3.905-10.237,0-14.143
			C141.206,445.61,134.876,445.61,130.969,449.515z"/>
	</g>
</g>
<g>
</g>
<g>
</g>
<g>
</g>
<g>
</g>
<g>
</g>
<g>
</g>
<g>
</g>
<g>
</g>
<g>
</g>
<g>
</g>
<g>
</g>
<g>
</g>
<g>
</g>
<g>
</g>
<g>
</g>
</svg>
