<?xml version="1.0" encoding="iso-8859-1"?>
<!-- Generator: Adobe Illustrator 23.0.6, SVG Export Plug-In . SVG Version: 6.00 Build 0)  -->
<svg version="1.1" id="Capa_1" xmlns="http://www.w3.org/2000/svg" xmlns:xlink="http://www.w3.org/1999/xlink" x="0px" y="0px"
	 viewBox="0 0 512 512" style="enable-background:new 0 0 512 512;" xml:space="preserve">
<g>
	<g>
		<g>
			<path style="fill:#7AA82D;" d="M430.398,504.5c-0.165,0-0.329-0.002-0.495-0.006c-10.449-0.268-18.702-8.957-18.434-19.405
				c2.567-99.922-59.615-146.024-60.244-146.478c-8.473-6.121-10.38-17.952-4.258-26.424c6.122-8.472,17.952-10.378,26.424-4.258
				c3.228,2.332,78.991,58.47,75.917,178.133C449.044,496.344,440.625,504.5,430.398,504.5z"/>
		</g>
		<g>
			<g>
				<path style="fill:#BDEB73;" d="M362.309,25.193C350.51,13.394,335.045,7.5,319.58,7.5c-15.476,0-30.941,5.894-42.74,17.693
					L256,46.044l-20.851-20.851C223.35,13.394,207.885,7.5,192.42,7.5s-30.93,5.894-42.729,17.693
					c-23.598,23.598-23.598,61.86,0,85.458L256,216.96l106.309-106.309C385.907,87.053,385.907,48.791,362.309,25.193z"/>
				<path style="fill:#A4E540;" d="M362.309,110.651L256,216.96l-12.102-12.102l94.196-94.207c23.598-23.598,23.598-61.86,0-85.458
					c-8.706-8.706-19.402-14.2-30.627-16.471C311.458,7.9,315.514,7.5,319.58,7.5c15.465,0,30.93,5.894,42.729,17.693
					C385.907,48.791,385.907,87.053,362.309,110.651z"/>
				<path style="fill:#A4E540;" d="M362.309,110.651L256,216.96V46.044l20.84-20.851c8.706-8.706,19.402-14.2,30.627-16.471
					C311.458,7.9,315.514,7.5,319.58,7.5c15.465,0,30.93,5.894,42.729,17.693C385.907,48.791,385.907,87.053,362.309,110.651z"/>
				<path style="fill:#8EC737;" d="M362.309,110.651L256,216.96v-24.203l82.095-82.106c23.598-23.598,23.598-61.86,0-85.458
					c-8.706-8.706-19.402-14.2-30.627-16.471C311.458,7.9,315.514,7.5,319.58,7.5c15.465,0,30.93,5.894,42.729,17.693
					C385.907,48.791,385.907,87.053,362.309,110.651z"/>
			</g>
			<g>
				<path style="fill:#BDEB73;" d="M149.691,408.727c11.799,11.799,27.264,17.693,42.729,17.693c15.476,0,30.941-5.894,42.74-17.693
					L256,387.876l20.851,20.851c11.799,11.799,27.264,17.693,42.729,17.693c15.465,0,30.93-5.894,42.729-17.693
					c23.598-23.598,23.598-61.86,0-85.458L256,216.96L149.691,323.269C126.093,346.867,126.093,385.129,149.691,408.727z"/>
				<path style="fill:#A4E540;" d="M149.691,323.269L256,216.96l12.102,12.102l-94.196,94.207c-23.598,23.598-23.598,61.86,0,85.458
					c8.706,8.706,19.402,14.2,30.627,16.471c-3.991,0.822-8.046,1.222-12.112,1.222c-15.465,0-30.93-5.894-42.729-17.693
					C126.093,385.129,126.093,346.867,149.691,323.269z"/>
				<path style="fill:#A4E540;" d="M149.691,323.269L256,216.96v170.916l-20.84,20.851c-8.706,8.706-19.402,14.2-30.627,16.471
					c-3.991,0.822-8.046,1.222-12.112,1.222c-15.465,0-30.93-5.894-42.729-17.693C126.093,385.129,126.093,346.867,149.691,323.269z
					"/>
				<path style="fill:#8EC737;" d="M149.691,323.269L256,216.96v24.203l-82.095,82.106c-23.598,23.598-23.598,61.86,0,85.458
					c8.706,8.706,19.402,14.2,30.627,16.471c-3.991,0.822-8.046,1.222-12.112,1.222c-15.465,0-30.93-5.894-42.729-17.693
					C126.093,385.129,126.093,346.867,149.691,323.269z"/>
			</g>
			<g>
				<path style="fill:#BDEB73;" d="M447.767,323.269c11.799-11.799,17.693-27.264,17.693-42.729c0-15.476-5.894-30.941-17.693-42.74
					l-20.851-20.84l20.851-20.851c11.799-11.799,17.693-27.264,17.693-42.729s-5.894-30.93-17.693-42.729
					c-23.598-23.598-61.86-23.598-85.458,0L256,216.96l106.309,106.309C385.907,346.867,424.169,346.867,447.767,323.269z"/>
				<path style="fill:#A4E540;" d="M362.309,323.269L256,216.96l12.102-12.102l94.207,94.196c23.598,23.598,61.86,23.598,85.458,0
					c8.706-8.706,14.2-19.402,16.471-30.627c0.822,3.991,1.222,8.046,1.222,12.112c0,15.465-5.894,30.93-17.693,42.729
					C424.169,346.867,385.907,346.867,362.309,323.269z"/>
				<path style="fill:#A4E540;" d="M362.309,323.269L256,216.96h170.916l20.851,20.84c8.706,8.706,14.2,19.402,16.471,30.627
					c0.822,3.991,1.222,8.046,1.222,12.112c0,15.465-5.894,30.93-17.693,42.729C424.169,346.867,385.907,346.867,362.309,323.269z"
					/>
				<path style="fill:#8EC737;" d="M362.309,323.269L256,216.96h24.203l82.106,82.095c23.598,23.598,61.86,23.598,85.458,0
					c8.706-8.706,14.2-19.402,16.471-30.627c0.822,3.991,1.222,8.046,1.222,12.112c0,15.465-5.894,30.93-17.693,42.729
					C424.169,346.867,385.907,346.867,362.309,323.269z"/>
			</g>
			<g>
				<path style="fill:#BDEB73;" d="M64.233,110.651C52.434,122.45,46.54,137.915,46.54,153.38c0,15.476,5.894,30.941,17.693,42.74
					l20.851,20.84l-20.851,20.851C52.434,249.61,46.54,265.075,46.54,280.54s5.894,30.93,17.693,42.729
					c23.598,23.598,61.86,23.598,85.458,0L256,216.96L149.691,110.651C126.093,87.053,87.831,87.053,64.233,110.651z"/>
				<path style="fill:#A4E540;" d="M149.691,110.651L256,216.96l-12.102,12.102l-94.207-94.196
					c-23.598-23.598-61.86-23.598-85.458,0c-8.706,8.706-14.2,19.402-16.471,30.627c-0.822-3.991-1.222-8.046-1.222-12.112
					c0-15.465,5.894-30.93,17.693-42.729C87.831,87.053,126.093,87.053,149.691,110.651z"/>
				<path style="fill:#A4E540;" d="M149.691,110.651L256,216.96H85.084l-20.851-20.84c-8.706-8.706-14.2-19.402-16.471-30.627
					c-0.822-3.991-1.222-8.046-1.222-12.112c0-15.465,5.894-30.93,17.693-42.729C87.831,87.053,126.093,87.053,149.691,110.651z"/>
				<path style="fill:#8EC737;" d="M149.691,110.651L256,216.96h-24.203l-82.106-82.095c-23.598-23.598-61.86-23.598-85.458,0
					c-8.706,8.706-14.2,19.402-16.471,30.627c-0.822-3.991-1.222-8.046-1.222-12.112c0-15.465,5.894-30.93,17.693-42.729
					C87.831,87.053,126.093,87.053,149.691,110.651z"/>
			</g>
		</g>
	</g>
	<path d="M472.96,280.54c0-18.155-7.063-35.218-19.891-48.045l-15.545-15.536l15.547-15.546
		c12.825-12.826,19.889-29.885,19.889-48.033s-7.063-35.206-19.889-48.032c-3.745-3.744-7.953-7.063-12.507-9.86
		c-3.527-2.169-8.147-1.067-10.316,2.463c-2.169,3.529-1.066,8.148,2.463,10.316c3.556,2.186,6.837,4.771,9.753,7.688
		c9.993,9.992,15.496,23.283,15.496,37.425c0,14.143-5.503,27.434-15.495,37.426L423.81,209.46H274.107l93.505-93.505
		c9.345-9.346,21.758-14.83,34.952-15.443c4.138-0.192,7.336-3.703,7.144-7.841c-0.193-4.138-3.691-7.331-7.841-7.144
		c-6.041,0.281-11.95,1.372-17.603,3.185c2.124-6.633,3.242-13.624,3.242-20.789c0-18.146-7.065-35.203-19.895-48.033
		C354.785,7.063,337.728,0,319.58,0c-18.155,0-35.217,7.063-48.045,19.892l-15.536,15.544L240.453,19.89
		C227.626,7.063,210.568,0,192.42,0c-18.147,0-35.205,7.063-48.032,19.89c-12.829,12.83-19.895,29.888-19.895,48.033
		c0,7.176,1.122,14.175,3.251,20.816c-23.466-7.5-50.228-1.977-68.815,16.608c-12.826,12.827-19.89,29.885-19.89,48.032
		c0,18.155,7.063,35.217,19.892,48.045l15.544,15.536L58.93,232.507c-12.826,12.827-19.89,29.885-19.89,48.033
		c0,18.147,7.063,35.205,19.89,48.031c12.83,12.83,29.888,19.896,48.032,19.896c7.157,0,14.139-1.116,20.766-3.235
		c-2.119,6.626-3.234,13.608-3.234,20.765c0,18.145,7.065,35.202,19.895,48.032c12.827,12.826,29.885,19.89,48.032,19.89
		c18.155,0,35.217-7.063,48.045-19.892l15.536-15.544l15.546,15.546c12.827,12.826,29.885,19.89,48.033,19.89
		c18.147,0,35.205-7.063,48.032-19.89c6.851-6.852,12.04-14.917,15.406-23.702c3.495,6.62,6.589,13.508,9.229,20.606
		c1.124,3.021,3.986,4.887,7.03,4.887c0.868,0,1.752-0.152,2.614-0.473c3.882-1.444,5.858-5.762,4.414-9.645
		c-4.782-12.854-10.911-25.1-18.218-36.393c-0.195-0.301-0.413-0.577-0.641-0.84c0.029-0.823,0.06-1.646,0.06-2.473
		c0-7.175-1.122-14.175-3.251-20.816c5.589,1.787,11.36,2.845,17.168,3.152c19.559,27.003,42.057,72.475,40.387,137.533
		c-0.158,6.139-5.278,11.133-11.413,11.133l-0.304-0.003c-6.298-0.162-11.29-5.418-11.129-11.716
		c0.389-15.087-0.656-29.906-3.105-44.046c-0.706-4.081-4.581-6.813-8.67-6.109c-4.081,0.707-6.816,4.588-6.109,8.67
		c2.281,13.169,3.253,26.997,2.891,41.1c-0.373,14.566,11.173,26.722,25.754,27.097c0.226,0.005,0.449,0.008,0.673,0.008
		c14.437,0,26.036-11.31,26.407-25.747c1.633-63.56-18.526-109.72-38.038-139.221c12.578-2.577,24.565-8.721,34.304-18.459
		C465.896,315.746,472.96,298.688,472.96,280.54z M282.144,30.497C292.137,20.504,305.432,15,319.58,15
		c14.141,0,27.432,5.504,37.425,15.497c20.637,20.636,20.637,54.215,0,74.851L263.5,198.853V49.149L282.144,30.497z M154.995,30.497
		C164.988,20.504,178.279,15,192.42,15c14.142,0,27.433,5.504,37.426,15.497L248.5,49.151v149.701l-93.505-93.505
		C134.358,84.712,134.358,51.133,154.995,30.497z M69.537,190.816c-9.993-9.993-15.497-23.288-15.497-37.437
		c0-14.141,5.504-27.433,15.496-37.426c20.635-20.633,54.205-20.637,74.842-0.009c0.003,0.003,0.006,0.007,0.01,0.01l93.505,93.505
		H88.189L69.537,190.816z M229.856,403.423c-9.993,9.993-23.288,15.497-37.437,15.497c-14.141,0-27.432-5.504-37.425-15.497
		c-20.637-20.636-20.637-54.214,0-74.851l23.274-23.274c6.825-6.827-3.773-17.438-10.607-10.607l-23.274,23.275
		c-9.996,9.996-23.287,15.502-37.426,15.502c-14.138,0-27.429-5.506-37.425-15.503c-9.993-9.993-15.497-23.284-15.497-37.425
		c0-14.142,5.504-27.433,15.497-37.426l18.654-18.654h149.701l-45.202,45.202c-2.929,2.93-2.929,7.678,0,10.607
		c2.93,2.928,7.678,2.928,10.607,0l45.202-45.202v149.703L229.856,403.423z M357.005,403.423
		c-9.993,9.993-23.284,15.497-37.425,15.497c-14.142,0-27.433-5.504-37.426-15.497L263.5,384.769V235.067l93.505,93.506
		C377.642,349.209,377.642,382.787,357.005,403.423z M367.612,317.966l-93.505-93.506h149.703l18.653,18.644
		c9.993,9.992,15.496,23.287,15.496,37.437c0,14.142-5.503,27.433-15.495,37.426C421.825,338.603,388.246,338.602,367.612,317.966z"
		/>
</g>
<g>
</g>
<g>
</g>
<g>
</g>
<g>
</g>
<g>
</g>
<g>
</g>
<g>
</g>
<g>
</g>
<g>
</g>
<g>
</g>
<g>
</g>
<g>
</g>
<g>
</g>
<g>
</g>
<g>
</g>
</svg>
