<?xml version="1.0" encoding="iso-8859-1"?>
<!-- Generator: Adobe Illustrator 19.0.0, SVG Export Plug-In . SVG Version: 6.00 Build 0)  -->
<svg version="1.1" id="Layer_1" xmlns="http://www.w3.org/2000/svg" xmlns:xlink="http://www.w3.org/1999/xlink" x="0px" y="0px"
	 viewBox="0 0 512 512" style="enable-background:new 0 0 512 512;" xml:space="preserve">
<g id="XMLID_1373_">
	<circle id="XMLID_834_" style="fill:#FF5D5D;" cx="326" cy="240" r="176"/>
	<circle id="XMLID_765_" style="fill:#FFFFFF;" cx="326" cy="240" r="124"/>
	<circle id="XMLID_764_" style="fill:#FF5D5D;" cx="326" cy="240" r="72"/>
	<path id="XMLID_862_" style="fill:#FFC66C;" d="M263,272H42c-17.673,0-32-14.327-32-32v0c0-17.673,14.327-32,32-32h221l63,32
		L263,272z"/>
	<polygon id="XMLID_1176_" style="fill:#FEDA9B;" points="326,240 263,208 263,272 	"/>
	<path id="XMLID_1147_" style="fill:#FF5D5D;" d="M64,208H42c-17.673,0-32,14.327-32,32v0c0,17.673,14.327,32,32,32h22V208z"/>
	<g id="XMLID_156_">
		<path id="XMLID_157_" d="M326.649,106.001c-0.008,0-0.016,0-0.024,0c-5.507,0-10.04,4.455-10.06,9.965
			c-0.02,5.519,4.495,10.01,10.014,10.036c0.016,0,0.031,0,0.047,0c5.519,0,10.054-4.47,10.061-9.988
			C336.692,110.495,332.168,106.014,326.649,106.001z"/>
		<path id="XMLID_185_" d="M428.211,395.318C478.649,362.014,512,304.833,512,240c0-102.561-83.439-186-186-186
			c-86.995,0-161.915,60.07-181.238,144H42c-23.159,0-42,18.841-42,42s18.841,42,42,42h102.774
			c9.132,39.484,31.246,75.311,62.684,101.337c5.218,4.32,10.654,8.334,16.279,12.033l-45.558,45.558
			c-3.905,3.905-3.905,10.237,0,14.143c1.953,1.953,4.512,2.929,7.071,2.929s5.118-0.976,7.071-2.929l49.316-49.316
			C267.604,418.953,296.542,426,326,426c30.348,0,59.02-7.309,84.354-20.254l49.325,49.325c1.953,1.953,4.512,2.929,7.071,2.929
			s5.118-0.976,7.071-2.929c3.905-3.905,3.905-10.237,0-14.143L428.211,395.318z M206.146,218c0.01,0,0.02,0.002,0.03,0.002
			c0.016,0,0.031-0.002,0.047-0.002H253v44H74v-44H206.146z M303.918,240L273,255.704v-31.409L303.918,240z M330.528,248.916
			c3.357-1.705,5.472-5.151,5.472-8.916s-2.114-7.211-5.472-8.916l-54.561-27.713C287.561,187.545,306.064,178,326,178
			c34.187,0,62,27.813,62,62s-27.813,62-62,62c-19.865,0-38.422-9.567-50.022-25.376L330.528,248.916z M20,240
			c0-12.131,9.869-22,22-22h12v44H42C29.869,262,20,252.131,20,240z M165.367,282h33.356c17.964,54.476,69.415,92,127.278,92
			c73.888,0,134-60.112,134-134c0-57.693-36.73-108.764-91.398-127.083c-5.239-1.754-10.905,1.068-12.659,6.305
			c-1.755,5.237,1.067,10.904,6.304,12.659C408.753,147.464,440,190.915,440,240c0,62.86-51.141,114-114,114
			c-46.976,0-88.967-29.075-105.991-72h35.561c14.771,24.724,41.557,40,70.431,40c45.215,0,82-36.785,82-82s-36.785-82-82-82
			c-28.974,0-55.655,15.245-70.432,40h-35.585c12.16-30.792,37.182-54.931,68.968-65.847c5.224-1.794,8.004-7.483,6.21-12.706
			c-1.795-5.224-7.486-8.006-12.706-6.209c-39.858,13.688-70.674,45.066-83.733,84.763h-33.364C184.197,125.468,249.921,74,326,74
			c91.532,0,166,74.467,166,166s-74.468,166-166,166C250.343,406,184.232,354.384,165.367,282z"/>
	</g>
</g>
<g>
</g>
<g>
</g>
<g>
</g>
<g>
</g>
<g>
</g>
<g>
</g>
<g>
</g>
<g>
</g>
<g>
</g>
<g>
</g>
<g>
</g>
<g>
</g>
<g>
</g>
<g>
</g>
<g>
</g>
</svg>
