<svg id="Capa_1" enable-background="new 0 0 512 512" height="512" viewBox="0 0 512 512" width="512" xmlns="http://www.w3.org/2000/svg"><g><g><path d="m195.657 194.82h-134.813c-1.979 0-3.881-.77-5.302-2.147l-13.662-13.234v75.356c0 5.303 4.299 9.601 9.601 9.601h153.538c5.303 0 9.601-4.299 9.601-9.601v-75.356l-13.661 13.234c-1.421 1.377-3.323 2.147-5.302 2.147z" fill="#909ba5"/><g fill="#808b95"><path d="m41.88 246.396v8.399c0 5.303 4.299 9.601 9.601 9.601h153.538c5.303 0 9.601-4.299 9.601-9.601v-8.399z"/><path d="m200.959 192.673c-1.422 1.377-3.323 2.147-5.302 2.147h-134.813c-1.979 0-3.881-.77-5.302-2.147l-13.662-13.234v18l13.661 13.234c1.422 1.377 3.323 2.147 5.302 2.147h134.813c1.979 0 3.881-.77 5.302-2.147l13.661-13.234v-18z"/><path d="m195.657 194.82h-134.813c-1.979 0-3.881-.77-5.302-2.147l-16.042-15.539c-1.482-1.436-2.318-3.411-2.318-5.474v-33.369c0-5.303 4.299-9.601 9.601-9.601h162.935c5.303 0 9.601 4.299 9.601 9.601v33.369c0 2.063-.837 4.038-2.318 5.474l-16.041 15.54c-1.422 1.376-3.324 2.146-5.303 2.146z"/></g><path d="m111.034 194.82v14.955c0 9.508 7.708 17.217 17.217 17.217s17.217-7.708 17.217-17.217v-14.955z" fill="#f6e080"/><path d="m111.034 209.776c0 1.041.108 2.055.285 3.045h33.864c.177-.99.285-2.004.285-3.045v-14.956h-34.433v14.956z" fill="#eccd61"/><path d="m308.449 264.396h145.417v-69.976h11.055c11.368 0 16.613-14.133 7.997-21.549l-79.177-68.15c-7.234-6.226-17.933-6.226-25.167 0l-79.177 68.15c-8.616 7.416-3.371 21.549 7.997 21.549h11.055z" fill="#b3e59f"/><g><g><g><path d="m308.449 246.396h145.417v18h-145.417z" fill="#95d6a4"/></g></g></g><path d="m485.602 301.192h-459.204c-10.161 0-18.398-8.237-18.398-18.398 0-10.161 8.237-18.398 18.398-18.398h459.204c10.161 0 18.398 8.237 18.398 18.398 0 10.161-8.237 18.398-18.398 18.398z" fill="#f6e080"/><path d="m485.602 283.192h-459.204c-6.889 0-12.885-3.793-16.038-9.398-1.497 2.662-2.361 5.728-2.361 9 0 10.161 8.237 18.398 18.398 18.398h459.204c10.161 0 18.398-8.237 18.398-18.398 0-3.272-.863-6.338-2.361-9-3.151 5.606-9.147 9.398-16.036 9.398z" fill="#eccd61"/><path d="m324.605 396.415-60.275-90.755c-3.956-5.957-12.704-5.957-16.66 0l-60.275 90.755c-4.414 6.647.351 15.533 8.33 15.533h120.549c7.98 0 12.745-8.886 8.331-15.533z" fill="#cf8151"/><path d="m322.966 393.948h-133.932l-1.639 2.467c-4.414 6.647.351 15.533 8.33 15.533h120.549c7.979 0 12.745-8.886 8.33-15.533z" fill="#bd6e45"/><path d="m381.158 207.387c-12.503 0-22.638 10.135-22.638 22.638v34.371h45.275v-34.371c.001-12.503-10.135-22.638-22.637-22.638z" fill="#cf8151"/><path d="m358.52 246.396h45.275v18h-45.275z" fill="#bd6e45"/></g><path d="m486.051 256.924h-24.283v-55.084h3.562c8.365 0 15.65-5.067 18.56-12.909s.694-16.435-5.646-21.892l-79.332-68.283c-10.146-8.734-24.875-8.733-35.021 0l-27.422 23.604c-3.146 2.707-3.501 7.452-.794 10.597 2.707 3.146 7.452 3.501 10.598.793l27.422-23.603c4.466-3.843 10.947-3.844 15.412 0l79.332 68.283c3.383 2.905 1.358 8.383-3.11 8.381h-11.077c-4.15 0-7.515 3.365-7.515 7.515v62.598h-35.14v-26.924c0-16.651-13.546-30.197-30.197-30.197s-30.197 13.547-30.197 30.197v26.924h-35.139v-62.598c0-4.15-3.364-7.515-7.515-7.515h-11.077c-4.751-.415-6.445-4.963-3.111-8.381l29.115-25.06c3.146-2.707 3.501-7.453.793-10.598-2.707-3.146-7.452-3.501-10.597-.793l-29.115 25.06c-6.34 5.457-8.556 14.05-5.646 21.892s10.196 12.909 18.561 12.909h3.562v55.083h-79.126c.085-.691.143-1.391.143-2.105v-72.321l.098-.095c2.929-2.837 4.609-6.803 4.609-10.882v-33.434c0-9.448-7.686-17.134-17.135-17.134h-44.278v-8.989c0-10.773-8.764-19.536-19.536-19.536h-35.626c-10.772 0-19.536 8.764-19.536 19.536v8.989h-44.273c-9.448 0-17.135 7.686-17.135 17.134v33.434c0 4.078 1.68 8.045 4.609 10.882l.098.095v72.321c0 .714.058 1.414.143 2.105h-8.141c-14.308.001-25.948 11.641-25.948 25.95 0 14.308 11.64 25.949 25.949 25.949h210.666l-55.614 83.737c-3.581 5.392-3.905 12.285-.846 17.988 3.059 5.704 8.98 9.247 15.452 9.247h120.786c6.472 0 12.393-3.543 15.452-9.247 3.059-5.703 2.735-12.596-.846-17.988l-55.614-83.737h113.671c4.15 0 7.515-3.365 7.515-7.515s-3.365-7.515-7.515-7.515h-363.107c-6.021 0-10.919-4.898-10.919-10.919s4.898-10.92 10.919-10.92h82.719c4.15 0 7.515-3.365 7.515-7.515s-3.365-7.515-7.515-7.515h-57.587c-1.161 0-2.106-.944-2.106-2.105v-57.762l.945.916c2.841 2.752 6.585 4.269 10.541 4.269h42.773v7.47c0 13.656 11.11 24.765 24.765 24.765s24.765-11.11 24.765-24.765v-7.47h42.773c3.956 0 7.7-1.516 10.541-4.269l.945-.916v57.762c0 1.161-.944 2.105-2.105 2.105h-66.193c-4.15 0-7.515 3.365-7.515 7.515s3.364 7.515 7.515 7.515h347.325c6.021 0 10.919 4.899 10.919 10.92s-4.898 10.919-10.919 10.919h-66.937c-4.15 0-7.515 3.365-7.515 7.515s3.365 7.515 7.515 7.515h66.937c14.308 0 25.949-11.64 25.949-25.949.001-14.309-11.639-25.949-25.948-25.949zm-227.964 53.017 60.393 90.933c1.104 1.721-.039 3.857-2.087 3.891h-120.786c-2.045-.033-3.191-2.167-2.087-3.891l60.393-90.933c1.083-1.519 3.09-1.521 4.174 0zm-152.406-197.977c0-2.485 2.021-4.507 4.506-4.507h35.626c2.485 0 4.506 2.021 4.506 4.507v8.989h-44.639v-8.989zm32.055 97.747c0 5.368-4.367 9.736-9.735 9.736s-9.736-4.367-9.736-9.736v-7.47h19.471zm57.887-22.533c-.023.022-.053.034-.084.034l-135.161-.034-16.11-15.657v-33.434c0-1.161.945-2.105 2.106-2.105h163.253c1.161 0 2.105.944 2.105 2.105l-.037 33.521zm170.612 42.822c0-8.363 6.804-15.168 15.167-15.168 8.364 0 15.167 6.804 15.167 15.168v26.924h-30.335v-26.924z"/></g></svg>