<?xml version="1.0" encoding="iso-8859-1"?>
<!-- Generator: Adobe Illustrator 19.0.0, SVG Export Plug-In . SVG Version: 6.00 Build 0)  -->
<svg version="1.1" id="Capa_1" xmlns="http://www.w3.org/2000/svg" xmlns:xlink="http://www.w3.org/1999/xlink" x="0px" y="0px"
	 viewBox="0 0 511.998 511.998" style="enable-background:new 0 0 511.998 511.998;" xml:space="preserve">
<path style="fill:#E04B4B;" d="M488.654,439.649l-53.61-13.876c-97.369-25.201-170.401,2.365-179.559,3.643c0,10.81,0,19.258,0,30
	c8.818-1.23,82.594-28.74,179.559-3.643l53.61,13.876c7.761,2.008,15.329-3.851,15.329-11.867c0-13.121,0-22.447,0-30
	C503.983,435.798,496.416,441.657,488.654,439.649z"/>
<path style="fill:#EAE4D6;" d="M488.654,412.837l-53.61-13.875c-97.369-25.201-170.401,2.366-179.559,3.644
	c0,7.505,0,22.312,0,29.811c8.818-1.23,82.594-28.74,179.559-3.643l53.61,13.876c7.761,2.008,15.329-3.851,15.329-11.867
	c0-13.045,0-22.301,0-29.811C503.983,408.988,496.416,414.847,488.654,412.837z"/>
<path style="fill:#E0D5BD;" d="M488.654,385.837c-32.98-5.619-109.498-41.712-217.565-14.204l-15.605,3.972c0,7.076,0,22.909,0,30
	c8.83-1.232,82.594-28.74,179.559-3.644l53.61,13.875c7.761,2.009,15.329-3.85,15.329-11.866c0-13.121,0-22.447,0-30
	C503.983,381.988,496.416,387.847,488.654,385.837z"/>
<path style="fill:#ED5A5A;" d="M75.925,425.773l-53.61,13.876c-7.761,2.008-15.329-3.851-15.329-11.867c0,13.121,0,22.447,0,30
	c0,8.016,7.568,13.875,15.329,11.867l53.61-13.876c97.369-25.201,170.401,2.365,179.559,3.643c0-13.121,0-22.447,0-30
	C246.666,428.186,172.891,400.676,75.925,425.773z"/>
<path style="fill:#E04B4B;" d="M87.499,423.005c-3.82,0.844-7.676,1.759-11.573,2.768l-53.61,13.876
	c-7.761,2.008-15.329-3.851-15.329-11.867c0,13.121,0,22.447,0,30c0,8.016,7.568,13.875,15.329,11.867l53.61-13.876
	c3.899-1.009,7.755-1.925,11.573-2.77V423.005z"/>
<path style="fill:#F9F6ED;" d="M75.925,398.962l-53.61,13.875c-7.761,2.009-15.329-3.85-15.329-11.866c0,13.045,0,22.301,0,29.811
	c0,8.016,7.568,13.875,15.329,11.867l53.61-13.876c97.369-25.201,170.401,2.365,179.559,3.643c0-13.045,0-22.3,0-29.811
	C246.655,401.373,172.891,373.865,75.925,398.962z"/>
<g>
	<path style="fill:#EAE4D6;" d="M87.499,396.194c-3.82,0.844-7.676,1.759-11.573,2.768l-53.61,13.875
		c-7.761,2.009-15.329-3.85-15.329-11.866c0,13.045,0,22.3,0,29.811c0,8.016,7.568,13.875,15.329,11.867l53.61-13.876
		c3.899-1.009,7.755-1.925,11.573-2.77V396.194z"/>
	<path style="fill:#EAE4D6;" d="M494.756,69.144l-68.453-17.717c-90.371-23.39-157.405,3.903-170.819,5.906h-6.464v321.273h6.464
		c8.83-1.232,82.593-28.74,179.56-3.644l53.61,13.876c7.761,2.009,15.329-3.851,15.329-11.867V81.063
		C503.983,75.451,500.189,70.55,494.756,69.144z"/>
	<path style="fill:#EAE4D6;" d="M75.925,371.962l-53.61,13.875c-7.761,2.009-15.329-3.85-15.329-11.866c0,10.81,0,19.258,0,30
		c0,8.017,7.568,13.875,15.329,11.866l53.61-13.875c97.369-25.201,170.401,2.366,179.559,3.644c0-7.076,0-22.909,0-30
		C255.485,375.605,172.891,346.865,75.925,371.962z"/>
</g>
<path style="fill:#E0D5BD;" d="M87.499,369.209c-3.833,0.838-7.69,1.748-11.573,2.752l-53.61,13.875
	c-7.761,2.009-15.329-3.85-15.329-11.866c0,10.81,0,19.258,0,30c0,8.017,7.568,13.875,15.329,11.866l53.61-13.875
	c3.899-1.009,7.755-1.925,11.573-2.77V369.209z"/>
<path style="fill:#F9F6ED;" d="M255.485,57.332v321.273c-8.83-1.232-82.594-28.74-179.56-3.643l-53.61,13.876
	c-7.761,2.009-15.329-3.85-15.329-11.867V81.063c0-5.612,3.794-10.513,9.227-11.919l68.453-17.717
	c48.018-12.428,98.397-12.529,146.465-0.294L255.485,57.332z"/>
<path style="fill:#EAE4D6;" d="M62.024,237.248c0-74.118,21.255-141.645,56.114-192.435c-11.244,1.554-22.421,3.753-33.472,6.613
	L16.213,69.144c-5.433,1.406-9.227,6.308-9.227,11.919v295.908c0,8.016,7.568,13.875,15.329,11.867l53.61-13.876
	c3.898-1.009,7.753-1.924,11.573-2.768C71.25,331.999,62.024,286.056,62.024,237.248z"/>
<path d="M294.131,115.905c-4.065,0.794-6.718,4.733-5.924,8.799c0.794,4.064,4.726,6.723,8.799,5.924
	c83.812-16.37,142.489,9.805,166.674,14.122c3.993,1.034,8.097-1.355,9.14-5.382c1.038-4.01-1.371-8.102-5.382-9.14
	C443.711,126.025,381.836,98.781,294.131,115.905z"/>
<path d="M467.438,168.484c-23.67-4.194-85.602-31.445-173.307-14.324c-4.065,0.794-6.717,4.733-5.924,8.799
	c0.794,4.065,4.726,6.725,8.799,5.924c41.805-8.164,85.697-6.837,126.934,3.837c41.832,10.741,39.828,10.527,41.624,10.527
	C474.353,183.247,475.899,170.674,467.438,168.484z"/>
<path d="M288.207,201.215c0.794,4.066,4.726,6.72,8.799,5.924c41.805-8.164,85.697-6.837,126.934,3.837
	c41.832,10.74,39.828,10.527,41.624,10.527c8.789,0,10.335-12.573,1.874-14.763c-24.091-4.269-85.512-31.47-173.307-14.324
	C290.065,193.21,287.413,197.149,288.207,201.215z"/>
<path d="M288.207,239.471c0.794,4.064,4.726,6.722,8.799,5.924c41.805-8.164,85.697-6.836,126.934,3.837
	c41.832,10.74,39.828,10.526,41.624,10.526c8.789,0,10.335-12.573,1.874-14.763c-23.691-4.198-85.62-31.448-173.307-14.323
	C290.065,231.466,287.413,235.405,288.207,239.471z"/>
<path d="M288.207,277.726c0.794,4.064,4.726,6.725,8.799,5.924c41.803-8.162,85.695-6.835,126.934,3.837
	c41.832,10.741,39.828,10.527,41.624,10.527c8.789,0,10.335-12.573,1.874-14.763c-23.697-4.199-85.6-31.447-173.307-14.324
	C290.065,269.721,287.413,273.66,288.207,277.726z"/>
<path d="M297.065,322.129c41.783-8.274,85.679-7.065,126.943,3.497c41.375,10.506,39.866,10.415,41.632,10.415
	c8.771,0,10.355-12.591,1.854-14.768c-23.708-4.135-85.682-31.216-173.344-13.859c-4.063,0.805-6.705,4.751-5.9,8.814
	C289.057,320.291,292.993,322.932,297.065,322.129z"/>
<path d="M217.221,115.905c-87.819-17.144-149.067,10.029-173.307,14.323c-9.498,2.459-5.969,17.038,3.759,14.521
	c24.339-4.344,82.845-30.493,166.673-14.122c4.065,0.793,8.005-1.859,8.798-5.924C223.938,120.639,221.286,116.699,217.221,115.905z
	"/>
<path d="M217.22,154.16c-87.818-17.146-149.066,10.029-173.306,14.324c-4.01,1.038-6.419,5.13-5.381,9.14
	c1.035,3.999,5.119,6.423,9.14,5.382c24.317-4.34,82.84-30.492,166.673-14.123c4.065,0.791,8.004-1.858,8.798-5.924
	C223.938,158.894,221.286,154.954,217.22,154.16z"/>
<path d="M217.221,192.416C129.402,175.27,68.154,202.445,43.914,206.74c-4.01,1.038-6.419,5.13-5.381,9.14
	c0.875,3.381,3.919,5.623,7.255,5.623c0.622,0,1.255-0.078,1.885-0.241c24.34-4.344,82.867-30.491,166.673-14.123
	c4.065,0.788,8.005-1.859,8.798-5.924C223.938,197.149,221.286,193.21,217.221,192.416z"/>
<path d="M217.221,230.672C129.402,213.526,68.154,240.7,43.914,244.995c-4.01,1.038-6.419,5.13-5.381,9.14
	c0.875,3.38,3.919,5.623,7.255,5.623c0.622,0,1.254-0.078,1.885-0.241c24.375-4.351,82.76-30.511,166.673-14.122
	c4.065,0.794,8.005-1.859,8.798-5.924C223.938,235.405,221.286,231.466,217.221,230.672z"/>
<path d="M217.221,268.927c-87.817-17.144-149.067,10.03-173.307,14.324c-4.01,1.038-6.419,5.13-5.381,9.14
	c0.875,3.381,3.919,5.623,7.255,5.623c0.622,0,1.255-0.078,1.885-0.241c24.081-4.298,82.6-30.543,166.673-14.123
	c4.065,0.792,8.005-1.858,8.798-5.924C223.938,273.66,221.286,269.721,217.221,268.927z"/>
<path d="M217.2,307.414c-87.772-17.38-149.093,9.63-173.344,13.859c-4.013,1.027-6.433,5.112-5.406,9.125
	c1.029,4.023,5.125,6.433,9.125,5.406c24.094-4.233,82.677-30.317,166.71-13.676c4.061,0.799,8.009-1.837,8.814-5.9
	C223.905,312.165,221.263,308.219,217.2,307.414z"/>
<path d="M412.545,96.267c3.54,0,6.69-2.518,7.363-6.124l0.083-0.444c0.761-4.071-1.923-7.989-5.995-8.749
	c-4.066-0.76-7.989,1.923-8.749,5.995l-0.083,0.444c-0.761,4.071,1.923,7.988,5.995,8.749
	C411.624,96.225,412.088,96.267,412.545,96.267z"/>
<path d="M438.195,101.052c3.54,0,6.69-2.517,7.363-6.124l0.083-0.444c0.761-4.071-1.923-7.989-5.995-8.749
	c-4.064-0.762-7.989,1.923-8.749,5.995l-0.083,0.444c-0.761,4.071,1.923,7.988,5.995,8.749
	C437.274,101.01,437.738,101.052,438.195,101.052z"/>
<path d="M464.737,106.003c3.539,0,6.688-2.516,7.363-6.121l0.083-0.443c0.762-4.071-1.921-7.989-5.992-8.752
	c-4.065-0.754-7.989,1.921-8.752,5.992l-0.083,0.443c-0.762,4.071,1.921,7.989,5.992,8.752
	C463.814,105.961,464.279,106.003,464.737,106.003z"/>
<path d="M504.498,280.512c4.143,0,7.5-3.357,7.5-7.5V81.063c0-9.029-6.105-16.917-14.849-19.18l-68.452-17.718
	c-92.321-23.894-159.982,3.562-172.698,5.428C244.3,47.876,175.087,20.408,83.3,44.165l-9.366,2.425
	c-4.01,1.038-6.419,5.131-5.381,9.141c1.039,4.012,5.133,6.417,9.141,5.381l9.366-2.425c86.42-22.367,151.556,3.05,161.44,4.476
	v305.794c-5.008-0.66-79.187-25.762-173.939-1.255c-55.547,14.3-54.025,14.237-55.591,13.972c-2.122-0.356-3.969-2.212-3.969-4.702
	V81.063c0-2.193,1.483-4.108,3.606-4.658l25.192-6.521c4.01-1.038,6.419-5.13,5.381-9.14c-1.039-4.011-5.133-6.424-9.14-5.382
	l-25.192,6.521C6.105,64.146,0,72.033,0,81.063c0,14.256,0,356.099,0,376.72c0,12.906,12.173,22.369,24.709,19.127l53.61-13.875
	c102.94-26.647,170.79,5.84,179.529,3.65l15.604-3.972c52.439-13.348,107.844-13.237,160.227,0.321
	c56.456,14.391,54.155,14.516,58.608,14.516c10.567-0.002,19.71-8.571,19.71-19.768c0-19.73,0-134.702,0-149.771
	c0-4.143-3.357-7.5-7.5-7.5s-7.5,3.357-7.5,7.5v68.959c0,3.115-2.929,5.387-5.95,4.606c-45.154-10.148-117.431-40.65-221.295-14.213
	l-6.254,1.592V63.162c9.804-1.414,75.19-26.799,161.44-4.476l68.451,17.718c2.124,0.55,3.607,2.465,3.607,4.658v191.949
	C496.998,277.154,500.355,280.512,504.498,280.512z M496.998,430.782c0,3.114-2.928,5.386-5.95,4.605
	c-42.878-9.619-116.917-40.779-221.294-14.212l-6.255,1.592v-11.332l9.954-2.534c120.686-30.719,202.013,19.615,223.545,14.262
	V430.782z M20.95,408.577c-3.013,0.778-5.95-1.485-5.95-4.606v-7.808c8.428,2.098,10.231-0.983,63.319-13.94
	c91.908-23.786,164.647,1.472,170.18,2.213v11.521c-4.713-0.611-79.16-25.786-173.938-1.255L20.95,408.577z M74.561,448.513
	l-53.61,13.875c-3.006,0.777-5.95-1.478-5.95-4.605v-7.811c8.218,2.045,10.203-0.885,55.728-11.972c4.01-1.038,6.42-5.13,5.382-9.14
	c-1.038-4.011-5.13-6.424-9.14-5.382l-46.019,11.91c-3.006,0.777-5.95-1.478-5.95-4.605v-7.619
	c8.395,2.089,10.177-0.94,63.319-13.94c91.727-23.744,164.767,1.488,170.18,2.213v11.333c-5.033-0.768-65.417-21.124-146.731-7.104
	c-4.082,0.703-6.82,4.583-6.117,8.665c0.704,4.082,4.582,6.817,8.665,6.116c79.734-13.746,137.309,6.725,144.183,7.801v11.522
	C243.798,449.159,169.343,423.984,74.561,448.513z M491.048,462.388c-42.878-9.619-116.917-40.779-221.294-14.212l-6.255,1.592
	v-11.521l9.954-2.534c120.796-30.747,201.884,19.641,223.545,14.258v7.811C496.998,460.896,494.07,463.168,491.048,462.388z
	 M496.998,396.163v7.808c0,21.839-89.08-44.772-227.245-9.607l-6.254,1.592v-11.521l9.954-2.534
	C393.751,351.279,475.319,401.548,496.998,396.163z"/>
<g>
</g>
<g>
</g>
<g>
</g>
<g>
</g>
<g>
</g>
<g>
</g>
<g>
</g>
<g>
</g>
<g>
</g>
<g>
</g>
<g>
</g>
<g>
</g>
<g>
</g>
<g>
</g>
<g>
</g>
</svg>
