<?xml version="1.0" encoding="iso-8859-1"?>
<!-- Generator: Adobe Illustrator 19.0.0, SVG Export Plug-In . SVG Version: 6.00 Build 0)  -->
<svg version="1.1" id="Capa_1" xmlns="http://www.w3.org/2000/svg" xmlns:xlink="http://www.w3.org/1999/xlink" x="0px" y="0px"
	 viewBox="0 0 512 512" style="enable-background:new 0 0 512 512;" xml:space="preserve">
<polyline style="fill:#E5AA41;" points="194.522,445.535 7.521,445.535 204.52,104.324 307.48,104.324 "/>
<polygon style="fill:#FEC755;" points="307.48,104.324 504.479,445.535 110.481,445.535 "/>
<polyline style="fill:#3B4C5B;" points="307.48,256.484 376.138,445.535 307.48,445.535 "/>
<path d="M510.992,441.776L316.164,104.324l19.687-34.098c2.077-3.597,0.844-8.197-2.753-10.274
	c-3.598-2.078-8.197-0.844-10.274,2.753L307.48,89.282l-15.345-26.577c-2.077-3.598-6.677-4.829-10.274-2.753
	c-3.597,2.077-4.829,6.677-2.753,10.274l15.345,26.577h-76.907l15.345-26.577c2.077-3.597,0.844-8.197-2.753-10.274
	c-3.598-2.078-8.197-0.845-10.274,2.753l-15.345,26.577l-15.346-26.577c-2.077-3.598-6.677-4.829-10.274-2.753
	c-3.597,2.077-4.829,6.677-2.753,10.274l19.687,34.098L1.008,441.776c-1.344,2.326-1.344,5.194,0,7.521
	c1.344,2.326,3.826,3.76,6.513,3.76h413.115c4.154,0,7.521-3.367,7.521-7.521s-3.367-7.521-7.521-7.521h-39.229l-66.406-182.854
	v-122.77l176.451,305.623h-45.744c-4.154,0-7.521,3.367-7.521,7.521s3.367,7.521,7.521,7.521h58.771c2.687,0,5.169-1.434,6.513-3.76
	C512.336,446.969,512.336,444.102,510.992,441.776z M157.738,363.685c-3.598-2.078-8.197-0.844-10.274,2.753l-41.325,71.578H20.547
	l188.315-326.171h85.592L163.801,338.142c-2.077,3.597-0.844,8.197,2.753,10.274c3.597,2.077,8.196,0.843,10.274-2.753
	l123.132-213.271v305.623H123.508l36.983-64.057C162.568,370.36,161.335,365.761,157.738,363.685z M365.405,438.015h-50.404v-138.79
	L365.405,438.015z"/>
<g>
</g>
<g>
</g>
<g>
</g>
<g>
</g>
<g>
</g>
<g>
</g>
<g>
</g>
<g>
</g>
<g>
</g>
<g>
</g>
<g>
</g>
<g>
</g>
<g>
</g>
<g>
</g>
<g>
</g>
</svg>
