<svg id="Capa_1" enable-background="new 0 0 511.522 511.522" height="512" viewBox="0 0 511.522 511.522" width="512" xmlns="http://www.w3.org/2000/svg"><g><path d="m255.724 96.755c0-28.134-11.176-55.115-31.069-75.008-18.93-18.93-49.555-19.143-68.746-.478-19.573 19.036-19.791 50.403-.485 69.709-19.306-19.306-50.674-19.088-69.709.485-18.665 19.191-18.452 49.817.478 68.746 19.893 19.894 46.875 31.07 75.008 31.07l5.409 31.715 89.115-31.715 26.448-94.524z" fill="#b8de9c"/><path d="m270.724 352.752c0 25.034-4.426 49.935-13.669 73.2-9.818 24.715-24.332 46.786-43.102 65.556l-8.129 8.13c-5.858 5.858-15.355 5.858-21.213.001-5.858-5.858-5.858-15.355 0-21.213l8.13-8.13c30.943-30.942 47.984-72.082 47.984-115.842v-131.46h30v129.758z" fill="#a6d786"/><path d="m240.724 354.454c0 6.645-.399 13.228-1.174 19.725 2.879-2.928 5.599-5.972 8.155-9.121 4.148-5.111 11.89-5.109 16.038.003 1.936 2.386 3.966 4.711 6.088 6.972.593-6.401.892-12.836.892-19.28v-129.76h-30v131.461z" fill="#94cf6f"/><path d="m425.256 222.348c-19.893-19.894-46.875-31.07-75.008-31.07l-16.6-28.721-62.923 11.096-15 17.625-34.218 37.061v26.959l34.218 30.504c0 28.134 11.176 55.115 31.069 75.008 18.93 18.93 49.555 19.143 68.746.478 19.573-19.036 19.791-50.403.485-69.709 19.306 19.306 50.674 19.088 69.709-.485 18.665-19.191 18.452-49.816-.478-68.746z" fill="#b8de9c"/><g fill="#a6d786"><path d="m425.734 91.463c-19.036-19.573-50.403-19.791-69.709-.485 19.306-19.306 19.088-50.674-.485-69.709-19.191-18.665-49.817-18.452-68.746.478-19.894 19.893-31.07 46.874-31.07 75.008v94.524h94.524c28.134 0 55.115-11.176 75.008-31.07 18.93-18.93 19.143-49.555.478-68.746z"/><path d="m85.714 291.094c19.036 19.573 50.403 19.791 69.709.485-19.306 19.306-19.088 50.674.485 69.709 19.191 18.665 49.817 18.452 68.746-.478 19.893-19.893 31.069-46.875 31.069-75.008v-94.524h-94.523c-28.134 0-55.115 11.176-75.008 31.07-18.93 18.93-19.143 49.555-.478 68.746z"/></g><path d="m230.122 27.647c-1.742-2.028-3.564-3.998-5.467-5.901-18.93-18.93-49.555-19.143-68.746-.478-19.573 19.036-19.791 50.403-.485 69.709-19.306-19.306-50.674-19.088-69.709.485-18.665 19.191-18.452 49.817.478 68.746 16.574 16.574 38.069 27.09 61.049 30.14.3-66.778 32.85-125.931 82.88-162.701z" fill="#a6d786"/><path d="m147.241 192.208c-22.981 3.05-44.476 13.566-61.049 30.14-18.93 18.93-19.143 49.555-.478 68.746 19.036 19.573 50.403 19.791 69.709.485-19.306 19.306-19.088 50.674.485 69.709 19.191 18.665 49.817 18.452 68.746-.478 1.903-1.904 3.726-3.873 5.467-5.901-50.029-36.769-82.579-95.922-82.88-162.701z" fill="#94cf6f"/><path d="m430.559 217.044c-11.44-11.44-24.892-20.138-39.558-25.766 14.666-5.628 28.118-14.326 39.558-25.767 21.708-21.708 21.954-57.271.551-79.279-10.617-10.916-24.85-16.986-40.078-17.092-5.186-.05-10.231.617-15.086 1.915 1.299-4.855 1.952-9.919 1.916-15.088-.106-15.227-6.177-29.46-17.092-40.075-5.918-5.757-12.857-10.059-20.624-12.785-3.909-1.374-8.189.683-9.562 4.592-1.372 3.908.684 8.188 4.592 9.561 5.697 2 10.789 5.158 15.135 9.386 8.016 7.795 12.473 18.246 12.551 29.427.078 11.182-4.234 21.694-12.141 29.603-1.465 1.464-2.197 3.384-2.197 5.303 0 1.92.732 3.839 2.197 5.304 2.929 2.928 7.678 2.929 10.606-.001 7.906-7.906 18.415-12.222 29.6-12.141 11.182.078 21.634 4.535 29.43 12.551 15.716 16.16 15.534 42.275-.406 58.215-18.618 18.619-43.373 28.873-69.704 28.873h-76.417l48.132-48.132c2.929-2.93 2.929-7.678 0-10.607-2.929-2.928-7.678-2.928-10.606 0l-48.132 48.132v-76.419c0-26.331 10.254-51.086 28.873-69.704 4.546-4.547 9.931-7.893 16.004-9.945 3.924-1.327 6.03-5.583 4.703-9.507-1.326-3.924-5.581-6.027-9.507-4.704-8.278 2.799-15.615 7.357-21.807 13.549-11.441 11.441-20.138 24.893-25.766 39.558-5.628-14.665-14.325-28.117-25.766-39.558-21.708-21.707-57.272-21.953-79.279-.551-10.917 10.617-16.987 24.851-17.093 40.078-.036 5.168.617 10.231 1.916 15.087-4.855-1.3-9.917-1.938-15.087-1.916-15.228.106-29.46 6.176-40.077 17.092v.001c-21.404 22.007-21.156 57.571.552 79.279 11.441 11.44 24.893 20.137 39.558 25.766-14.666 5.628-28.118 14.325-39.558 25.766-21.707 21.707-21.955 57.271-.551 79.278v.001c10.617 10.916 24.851 16.986 40.078 17.092 5.169.05 10.231-.616 15.086-1.915-1.299 4.854-1.952 9.918-1.916 15.086.105 15.228 6.176 29.461 17.093 40.079 10.903 10.604 25.128 15.894 39.353 15.892 14.487-.001 28.973-5.49 39.926-16.443 1.036-1.036 2.042-2.093 3.033-3.162-2.052 38.562-18.04 74.526-45.554 102.04l-8.13 8.131c-8.772 8.772-8.771 23.047.001 31.82 4.387 4.386 10.147 6.579 15.909 6.579 5.762-.001 11.525-2.194 15.911-6.581l8.129-8.129c19.506-19.507 34.569-42.416 44.769-68.091 8.273-20.824 12.956-43.072 13.976-66.259 1.134 1.237 2.294 2.457 3.488 3.651 10.954 10.954 25.437 16.443 39.926 16.443 14.223 0 28.451-5.289 39.353-15.892 10.917-10.617 16.987-24.85 17.093-40.077.036-5.173-.618-10.24-1.919-15.1 4.508 1.208 9.195 1.86 13.974 1.92 14.786.183 28.781-5.29 39.484-15.413 3.009-2.847 3.141-7.594.295-10.603-2.847-3.009-7.593-3.143-10.603-.296-16.401 15.515-41.757 15.161-57.74-.796l-.025-.025c-2.929-2.928-7.678-2.928-10.606 0-2.929 2.93-2.929 7.678 0 10.607 7.907 7.906 12.218 18.419 12.14 29.601s-4.535 21.633-12.551 29.428c-16.159 15.718-42.273 15.535-58.214-.405-18.619-18.617-28.873-43.372-28.873-69.704v-76.416l48.132 48.132c1.464 1.464 3.384 2.196 5.303 2.196s3.839-.732 5.303-2.196c2.929-2.93 2.929-7.678 0-10.607l-48.132-48.132h76.417c26.331 0 51.086 10.254 69.705 28.873 9.356 9.356 13.617 22.249 11.689 35.373-.602 4.098 2.232 7.908 6.33 8.51 4.095.609 7.908-2.231 8.511-6.33 2.585-17.6-3.367-35.604-15.924-48.161zm-339.064-62.138c-15.939-15.939-16.121-42.055-.405-58.215v.001c7.796-8.016 18.247-12.474 29.429-12.551 11.15-.062 21.694 4.233 29.601 12.141 2.929 2.928 7.678 2.928 10.606 0 1.464-1.465 2.197-3.385 2.197-5.304 0-1.92-.732-3.839-2.197-5.304-7.907-7.906-12.218-18.419-12.141-29.6.078-11.182 4.535-21.633 12.551-29.429 16.159-15.719 42.274-15.536 58.214.404 18.619 18.618 28.873 43.373 28.873 69.704v76.417l-48.132-48.132c-2.929-2.928-7.678-2.928-10.606 0-2.929 2.93-2.929 7.678 0 10.607l48.132 48.132h-76.417c-26.33.002-51.085-10.252-69.705-28.871zm127.857 200.6c-15.94 15.939-42.055 16.123-58.214.405-8.016-7.796-12.474-18.248-12.551-29.43-.078-11.181 4.234-21.692 12.141-29.599 1.464-1.465 2.197-3.384 2.197-5.304 0-1.919-.732-3.839-2.197-5.304-2.928-2.928-7.677-2.928-10.606 0-7.837 7.837-18.232 12.142-29.303 12.142-.099 0-.199 0-.297-.001-11.182-.078-21.633-4.535-29.43-12.551-15.716-16.16-15.534-42.275.405-58.215 18.619-18.618 43.373-28.872 69.705-28.872h76.417l-48.132 48.132c-2.929 2.93-2.929 7.678 0 10.607 1.464 1.464 3.384 2.196 5.303 2.196s3.839-.732 5.303-2.196l48.132-48.132v76.416c-.001 26.334-10.255 51.089-28.873 69.706zm43.872-13.205v10.451c0 24.789-4.42 48.485-13.139 70.432-9.441 23.765-23.381 44.968-41.435 63.021l-8.13 8.13c-2.923 2.925-7.683 2.924-10.606.001-2.925-2.925-2.925-7.684-.001-10.607l8.13-8.13c32.359-32.359 50.181-75.383 50.181-121.146v-12.152c2.908-5.056 5.417-10.316 7.5-15.745 2.084 5.429 4.592 10.69 7.5 15.745z"/></g></svg>