<?xml version="1.0" encoding="iso-8859-1"?>
<!-- Generator: Adobe Illustrator 19.0.0, SVG Export Plug-In . SVG Version: 6.00 Build 0)  -->
<svg version="1.1" id="Capa_1" xmlns="http://www.w3.org/2000/svg" xmlns:xlink="http://www.w3.org/1999/xlink" x="0px" y="0px"
	 viewBox="0 0 512 512" style="enable-background:new 0 0 512 512;" xml:space="preserve">
<path style="fill:#D9CCBC;" d="M422.73,293.047c0,134.406-63.622,199.799-144.928,210.021c-7.621,0.96-15.393,1.43-23.285,1.43
	c-92.108,0-165.352-64.453-165.352-211.451c0-146.989,93.868-286.846,166.783-285.536c7.842,0.14,15.683,1.48,23.465,3.931
	C354.126,34.937,422.73,159.911,422.73,293.047z"/>
<path style="fill:#EBE5DD;" d="M422.73,293.047c0,134.406-63.622,199.799-144.928,210.021
	c-80.906-10.222-142.128-75.615-142.128-210.021c0-131.866,75.555-258,143.738-281.605
	C354.126,34.937,422.73,159.911,422.73,293.047z"/>
<path d="M97.79,323.279c-6.17-80.3,14.752-160.562,53.376-223.968c21.671-35.576,63.047-85,104.646-84.3
	c12.789,0.229,25.963,4.031,39.155,11.297c3.629,1.998,8.192,0.679,10.19-2.952c1.999-3.629,0.677-8.19-2.952-10.19
	C287.861,5.265,271.639,0,254.929,0c-38.093,0-81.673,34.208-116.577,91.506C98.231,157.37,76.408,240.861,82.83,324.427
	c0.302,3.936,3.59,6.927,7.471,6.927C94.695,331.355,98.123,327.622,97.79,323.279z"/>
<path d="M391.855,428.279c-3.479-2.245-8.124-1.249-10.372,2.23c-28.098,43.495-72.003,66.487-126.968,66.488
	c-81.837,0-137.678-52.715-153.205-144.63c-0.689-4.085-4.555-6.833-8.647-6.147c-4.085,0.69-6.836,4.562-6.147,8.647
	C104.372,460.568,170.417,512,254.515,512c59.449-0.001,109.015-26.051,139.57-73.35
	C396.333,435.17,395.334,430.526,391.855,428.279z"/>
<path d="M327.955,31.331c-3.132-2.711-7.87-2.369-10.581,0.763c-2.712,3.133-2.369,7.87,0.763,10.581
	c86.032,74.465,123.557,255.111,76.853,362.485c-1.652,3.799,0.087,8.219,3.887,9.871c3.799,1.652,8.219-0.088,9.871-3.888
	C457.69,298.626,420.017,111.014,327.955,31.331z"/>
<g>
</g>
<g>
</g>
<g>
</g>
<g>
</g>
<g>
</g>
<g>
</g>
<g>
</g>
<g>
</g>
<g>
</g>
<g>
</g>
<g>
</g>
<g>
</g>
<g>
</g>
<g>
</g>
<g>
</g>
</svg>
