<svg id="Capa_1" enable-background="new 0 0 512 512" height="512" viewBox="0 0 512 512" width="512" xmlns="http://www.w3.org/2000/svg"><g><g><g><g><path d="m260.478 57.017c-2.663-1.961-6.293-1.961-8.956 0l-187.033 137.719v273.62c0 9.352 7.582 16.934 16.934 16.934h349.154c9.352 0 16.934-7.582 16.934-16.934v-273.62z" fill="#eaf2ff"/><path d="m260.478 57.017c-2.663-1.961-6.293-1.961-8.956 0l-34.817 25.637 164.616 120.176c7.036 5.181 11.19 13.398 11.19 22.136v259.724c0 .203-.023.4-.03.601h38.096c9.352 0 16.934-7.582 16.934-16.934v-273.62z" fill="#bcd6f9"/><path d="m260.478 80.118 208.602 153.601c7.841 5.774 18.527 5.774 26.369 0 12.069-8.887 12.069-26.924 0-35.811l-226.908-167.079c-7.459-5.492-17.624-5.492-25.083 0l-226.907 167.08c-12.069 8.887-12.069 26.924 0 35.811 7.841 5.774 18.527 5.774 26.369 0l208.602-153.602c2.663-1.961 6.293-1.961 8.956 0z" fill="#d67a7a"/><path d="m260.478 80.118 208.602 153.601c7.841 5.774 18.527 5.774 26.369 0 12.069-8.887 12.069-26.924 0-35.811l-226.908-167.079c-7.459-5.492-17.624-5.492-25.083 0l-226.907 167.08c-12.069 8.887-12.069 26.924 0 35.811 7.841 5.774 18.527 5.774 26.369 0l208.602-153.602c2.663-1.961 6.293-1.961 8.956 0z" fill="#e49542"/></g></g><g><path d="m333.211 410.939h-154.422c-12.034 0-21.789-9.755-21.789-21.789v-120.817c0-12.034 9.755-21.789 21.789-21.789h154.422c12.034 0 21.789 9.755 21.789 21.789v120.817c0 12.033-9.755 21.789-21.789 21.789z" fill="#9bc4f9"/><g fill="#7fb2f9"><path d="m333.211 246.544h-43.848c5.873 0 10.633 4.761 10.633 10.633v6.765c0 .024.004.046.004.07v129.458c0 .024-.003.046-.004.07v6.765c0 5.873-4.761 10.634-10.634 10.634h43.848c12.034 0 21.789-9.755 21.789-21.789v-120.817c.001-12.034-9.754-21.789-21.788-21.789z"/><path d="m190.434 246.544c5.873 0 10.633 4.761 10.633 10.633v143.128c0 5.873-4.761 10.634-10.634 10.634h65.567v-164.395z"/></g></g><g><path d="m495.449 197.909-39.291-28.932v20.243c0 10.507-3.763 20.133-10.009 27.614l22.932 16.885c7.841 5.774 18.527 5.774 26.369 0 12.067-8.886 12.067-26.924-.001-35.81z" fill="#e28424"/></g></g><g><g><path d="m499.885 191.888-226.898-167.073c-10.162-7.482-23.813-7.482-33.975 0l-145.858 107.402c-3.335 2.456-4.048 7.15-1.592 10.486 2.455 3.334 7.15 4.049 10.486 1.592l145.859-107.402c4.841-3.563 11.346-3.565 16.187 0l226.897 167.073c8.005 5.895 8.006 17.836 0 23.732-5.225 3.847-12.248 3.847-17.473 0l-208.594-153.596c-5.338-3.93-12.51-3.929-17.85.001l-208.592 153.595c-5.225 3.848-12.249 3.847-17.473 0-8.005-5.895-8.006-17.836 0-23.732l52.339-38.539c3.335-2.456 4.048-7.15 1.592-10.486-2.456-3.335-7.151-4.05-10.486-1.592l-52.339 38.539c-16.153 11.894-16.154 35.993 0 47.888 10.547 7.766 24.716 7.764 35.261 0l9.621-7.082v235.67c0 13.473 10.96 24.433 24.433 24.433h349.139c13.473 0 24.434-10.96 24.434-24.433v-235.673l9.621 7.084c10.541 7.763 24.714 7.767 35.261 0 16.153-11.893 16.154-35.992 0-47.887zm-59.881 276.475c0 5.202-4.232 9.434-9.434 9.434h-349.14c-5.202 0-9.434-4.232-9.434-9.434v-246.711l184.035-135.471 183.972 135.466v246.716z"/><path d="m149.505 268.348v120.811c0 16.15 13.138 29.288 29.288 29.288h154.415c16.15 0 29.288-13.138 29.288-29.288v-4.691c0-4.142-3.357-7.5-7.5-7.5s-7.5 3.357-7.5 7.5v4.691c0 7.879-6.41 14.288-14.288 14.288h-69.708v-64.875h83.996v10.833c0 4.142 3.357 7.5 7.5 7.5s7.5-3.357 7.5-7.5v-81.058c0-16.15-13.138-29.288-29.288-29.288h-154.416c-16.149.002-29.287 13.14-29.287 29.289zm113.995-14.288h69.708c7.879 0 14.288 6.41 14.288 14.288v55.225h-83.996zm-15 149.388h-69.708c-7.879 0-14.288-6.41-14.288-14.288v-50.587h83.996zm0-79.875h-83.996v-55.225c0-7.879 6.41-14.288 14.288-14.288h69.708z"/></g></g></g></svg>