<svg id="Capa_1" enable-background="new 0 0 512.002 512.002" height="512" viewBox="0 0 512.002 512.002" width="512" xmlns="http://www.w3.org/2000/svg"><g><g><g><circle cx="256.051" cy="256.001" fill="#dbedff" r="248.501"/><path d="m55.262 256.001c0-129.195 98.595-235.348 224.645-247.356-7.852-.748-15.807-1.145-23.856-1.145-137.243 0-248.501 111.258-248.501 248.501s111.258 248.501 248.501 248.501c8.049 0 16.004-.397 23.856-1.145-126.049-12.008-224.645-118.161-224.645-247.356z" fill="#b5dcff"/><circle cx="256.051" cy="256.001" fill="#97dc7c" r="218.182"/><path d="m72.369 256.001c0-114.693 88.498-208.71 200.932-217.505-5.692-.445-11.444-.677-17.25-.677-120.499 0-218.182 97.684-218.182 218.182s97.684 218.183 218.182 218.183c5.806 0 11.558-.232 17.25-.677-112.434-8.796-200.932-102.813-200.932-217.506z" fill="#6bcb44"/></g><path d="m341.969 210.127c-40.308-49.161-67.515-94.45-79.295-115.376-2.907-5.164-10.336-5.169-13.243-.004-11.779 20.923-38.985 66.215-79.296 115.379-49.365 60.207-19.363 151.249 56.245 169.83 19.491 4.79 39.852 4.79 59.343 0l.002-.001c75.607-18.581 105.609-109.622 56.244-169.828z" fill="#6bcb44"/><path d="m278.713 379.956c-75.608-18.582-105.61-109.623-56.245-169.83 25.248-30.793 45.354-60.066 59.75-82.785-8.586-13.551-15.143-24.772-19.544-32.59-2.907-5.164-10.336-5.169-13.243-.004-11.779 20.923-38.985 66.215-79.296 115.379-49.365 60.207-19.363 151.249 56.245 169.83 18.326 4.504 37.421 4.771 55.838.805-1.171-.252-2.34-.519-3.505-.805z" fill="#4dc321"/></g><g><path d="m256.001 0c-141.492 0-256.001 114.497-256.001 256.001 0 141.492 114.497 256.001 256.001 256.001 141.492 0 256.001-114.496 256.001-256.001 0-68.38-26.629-132.668-74.98-181.02-48.353-48.352-112.64-74.981-181.021-74.981zm0 497.002c-132.889 0-241.001-108.113-241.001-241.001s108.112-241.001 241.001-241.001 241.001 108.113 241.001 241.001-108.112 241.001-241.001 241.001z"/><path d="m256.001 30.318c-124.735 0-225.682 100.938-225.682 225.683 0 118.076 90.913 215.699 207.588 224.959 4.131.326 7.743-2.754 8.07-6.883.328-4.129-2.754-7.742-6.883-8.07-108.659-8.625-193.775-100.87-193.775-210.006 0-116.171 94.512-210.683 210.682-210.683 116.171 0 210.683 94.512 210.683 210.683 0 109.136-85.116 201.382-193.776 210.006-4.129.328-7.211 3.941-6.883 8.07.312 3.928 3.595 6.907 7.469 6.907.198 0 .399-.008.602-.024 116.852-9.274 207.589-107.077 207.589-224.959 0-60.282-23.475-116.956-66.101-159.582s-99.301-66.101-159.583-66.101z"/><path d="m371.52 298.594c.781-4.068-1.884-7.999-5.952-8.779-4.066-.785-7.999 1.884-8.778 5.952-8.271 43.093-43.119 76.821-93.288 80.023v-32.804c23.621-1.913 42.999-12.248 56.455-28.372 2.653-3.18 2.227-7.91-.953-10.563-3.182-2.655-7.91-2.227-10.564.953-10.55 12.642-25.738 21.068-44.938 22.928v-41.129c19.537-1.895 35.223-10.658 46.097-23.689 2.653-3.181 2.227-7.91-.954-10.564-3.18-2.654-7.909-2.226-10.563.954-8.139 9.755-19.776 16.43-34.579 18.219v-40.563c13.313-1.773 24.17-7.928 31.918-17.212 2.654-3.18 2.228-7.91-.952-10.564-3.182-2.654-7.911-2.227-10.563.953-5.006 5.998-11.911 10.105-20.402 11.659v-43.396c0-4.142-3.357-7.5-7.5-7.5s-7.5 3.358-7.5 7.5v43.396c-8.475-1.552-15.384-5.647-20.4-11.658-2.654-3.18-7.385-3.607-10.563-.953-3.18 2.654-3.606 7.384-.952 10.564 7.744 9.28 18.598 15.438 31.916 17.212v40.562c-14.804-1.789-26.44-8.466-34.577-18.218-2.656-3.182-7.384-3.607-10.564-.953s-3.606 7.383-.953 10.563c10.893 13.052 26.589 21.797 46.095 23.689v41.129c-19.195-1.86-34.384-10.283-44.935-22.928-2.654-3.18-7.385-3.608-10.563-.954-3.181 2.654-3.607 7.383-.954 10.564 13.43 16.095 32.79 26.456 56.452 28.372v32.804c-44.944-2.87-77.687-30.411-89.968-67.282-10.747-32.267-4.261-67.267 17.352-93.626 40.185-49.011 67.391-94 80.049-116.496.03-.015.104-.013.155.045 12.642 22.457 39.85 67.446 80.03 116.452 11.523 14.054 18.947 30.778 21.468 48.362.588 4.101 4.391 6.946 8.488 6.36 4.1-.588 6.947-4.388 6.359-8.489-2.909-20.295-11.456-39.572-24.716-55.744-39.459-48.125-66.157-92.27-78.559-114.3-2.673-4.748-7.716-7.697-13.161-7.697-5.443 0-10.483 2.948-13.153 7.692-12.401 22.029-39.098 66.173-78.561 114.303-24.897 30.366-32.368 70.694-19.983 107.876 14.076 42.262 51.94 74.614 104.199 77.569v46.327c0 4.142 3.357 7.5 7.5 7.5s7.5-3.358 7.5-7.5v-46.327c57.248-3.238 98.338-41.801 108.015-92.222z"/></g></g></svg>