<svg id="Layer_1" enable-background="new 0 0 512 512" height="512" viewBox="0 0 512 512" width="512" xmlns="http://www.w3.org/2000/svg"><g><g><g><path d="m44.315 263.06h29.295v50.6h-29.295z" fill="#59a1a5"/><path d="m25.907 340.025c-10.166 0-18.407-8.241-18.407-18.407v-66.516c0-10.166 8.241-18.407 18.407-18.407 10.166 0 18.407 8.241 18.407 18.407v66.516c.001 10.166-8.241 18.407-18.407 18.407z" fill="#b5e8e0"/></g><path d="m358.888 480.857h-253.681c-17.451 0-31.598-14.147-31.598-31.597v-204.953c0-17.451 14.147-31.597 31.598-31.597h253.681c17.451 0 31.597 14.147 31.597 31.597v204.953c0 17.451-14.147 31.597-31.597 31.597z" fill="#b5e8e0"/><path d="m358.887 212.709h-40c17.451 0 31.597 14.146 31.597 31.597v204.954c0 17.451-14.146 31.597-31.597 31.597h40c17.451 0 31.597-14.147 31.597-31.597v-204.953c.001-17.451-14.146-31.598-31.597-31.598z" fill="#97dbd1"/><g><path d="m390.485 339.113 77.2 42.409v-159.912l-77.2 42.408z" fill="#59a1a5"/><path d="m486.093 405.939c-10.166 0-18.407-8.241-18.407-18.407v-171.932c0-10.166 8.241-18.407 18.407-18.407 10.166 0 18.407 8.241 18.407 18.407v171.932c0 10.166-8.241 18.407-18.407 18.407z" fill="#b5e8e0"/></g><ellipse cx="128.253" cy="427.51" fill="#ff9e5e" rx="21.533" ry="21.571"/><ellipse cx="194.94" cy="427.51" fill="#ff7893" rx="21.533" ry="21.571"/><g><ellipse cx="141.396" cy="121.926" fill="#59a1a5" rx="90.625" ry="90.783"/><path d="m141.396 181.084c-32.564 0-59.056-26.538-59.056-59.158s26.492-59.159 59.056-59.159c32.563 0 59.055 26.538 59.055 59.159s-26.492 59.158-59.055 59.158z" fill="#b5e8e0"/><path d="m141.396 62.768c-7.018 0-13.751 1.239-20 3.499 22.748 8.228 39.055 30.069 39.055 55.659s-16.307 47.431-39.055 55.659c6.249 2.26 12.982 3.499 20 3.499 32.562 0 59.055-26.538 59.055-59.158s-26.492-59.158-59.055-59.158z" fill="#97dbd1"/><ellipse cx="322.698" cy="121.926" fill="#59a1a5" rx="90.625" ry="90.783"/><ellipse cx="322.698" cy="121.926" fill="#b5e8e0" rx="59.055" ry="59.158"/><path d="m322.698 62.768c-7.018 0-13.751 1.239-20 3.499 22.748 8.228 39.055 30.069 39.055 55.659s-16.307 47.431-39.055 55.659c6.249 2.26 12.982 3.499 20 3.499 32.562 0 59.055-26.538 59.055-59.158s-26.493-59.158-59.055-59.158z" fill="#97dbd1"/></g></g><g><path d="m486.093 189.692c-14.285 0-25.907 11.622-25.907 25.907v1.573l-62.201 34.169v-7.035c0-17.202-11.173-31.835-26.638-37.05 29.536-16.959 49.477-48.855 49.477-85.331 0-54.194-44.019-98.284-98.125-98.284-40.813 0-75.88 25.089-90.651 60.675-14.771-35.586-49.838-60.675-90.65-60.675-12.242 0-24.195 2.236-35.526 6.646-3.859 1.502-5.771 5.85-4.269 9.709 1.503 3.86 5.849 5.771 9.71 4.269 9.589-3.732 19.712-5.625 30.085-5.625 45.835 0 83.124 37.361 83.124 83.283 0 45.923-37.289 83.284-83.124 83.284s-83.125-37.361-83.125-83.284c0-21.553 8.188-41.997 23.055-57.565 2.861-2.996 2.752-7.743-.244-10.604-2.995-2.861-7.742-2.751-10.604.244-17.545 18.372-27.207 42.495-27.207 67.925 0 36.475 19.941 68.372 49.477 85.331-15.466 5.215-26.639 19.848-26.639 37.05v11.253h-14.297v-.458c0-14.285-11.622-25.907-25.907-25.907s-25.907 11.625-25.907 25.91v66.516c0 14.285 11.622 25.907 25.907 25.907s25.907-11.622 25.907-25.907v-.458h14.295v128.1c0 21.559 17.539 39.098 39.098 39.098h253.681c21.558 0 39.097-17.539 39.097-39.098v-24.931c0-4.142-3.357-7.5-7.5-7.5s-7.5 3.358-7.5 7.5v24.931c0 13.288-10.81 24.098-24.097 24.098h-253.681c-13.287 0-24.098-10.81-24.098-24.098v-204.953c0-13.287 10.811-24.097 24.098-24.097h253.681c13.287 0 24.097 10.81 24.097 24.097v140.034c0 4.142 3.357 7.5 7.5 7.5s7.5-3.358 7.5-7.5v-32.551l62.201 34.168v1.573c0 14.285 11.622 25.907 25.907 25.907s25.907-11.621 25.907-25.906v-171.932c0-14.286-11.622-25.908-25.907-25.908zm-449.279 131.926c0 6.014-4.893 10.907-10.907 10.907s-10.907-4.893-10.907-10.907v-66.516c0-6.014 4.893-10.907 10.907-10.907s10.907 4.893 10.907 10.907zm15-15.458v-35.6h14.295v35.6zm270.884-267.517c45.835 0 83.125 37.361 83.125 83.284 0 45.922-37.29 83.283-83.125 83.283s-83.125-37.361-83.125-83.283c0-45.924 37.29-83.284 83.125-83.284zm-129.26 166.566c17.153-10.792 30.752-26.747 38.608-45.675 7.857 18.928 21.456 34.883 38.608 45.675zm204.547 129.467v-66.221l62.2-34.168v134.557zm99.015 52.856c0 6.014-4.893 10.907-10.907 10.907s-10.907-4.893-10.907-10.907c0-57.311 0-114.621 0-171.932 0-6.014 4.893-10.907 10.907-10.907s10.907 4.892 10.907 10.907z"/><path d="m99.22 427.51c0 16.03 13.024 29.071 29.033 29.071s29.033-13.041 29.033-29.071-13.024-29.071-29.033-29.071-29.033 13.041-29.033 29.071zm43.066 0c0 7.759-6.295 14.071-14.033 14.071s-14.033-6.312-14.033-14.071 6.295-14.071 14.033-14.071 14.033 6.312 14.033 14.071z"/><path d="m165.907 427.51c0 16.03 13.024 29.071 29.033 29.071s29.032-13.041 29.032-29.071-13.023-29.071-29.032-29.071-29.033 13.041-29.033 29.071zm43.066 0c0 7.759-6.295 14.071-14.032 14.071-7.738 0-14.033-6.312-14.033-14.071s6.295-14.071 14.033-14.071c7.737 0 14.032 6.312 14.032 14.071z"/><path d="m141.396 188.584c36.698 0 66.555-29.903 66.555-66.658 0-36.756-29.856-66.659-66.555-66.659s-66.556 29.903-66.556 66.659c.001 36.756 29.857 66.658 66.556 66.658zm0-118.316c28.428 0 51.555 23.174 51.555 51.659 0 28.484-23.127 51.658-51.555 51.658s-51.556-23.174-51.556-51.658c.001-28.486 23.129-51.659 51.556-51.659z"/><path d="m322.698 188.584c36.698 0 66.555-29.903 66.555-66.658 0-36.756-29.856-66.659-66.555-66.659s-66.555 29.903-66.555 66.659c.001 36.756 29.857 66.658 66.555 66.658zm0-118.316c28.428 0 51.555 23.174 51.555 51.659 0 28.484-23.127 51.658-51.555 51.658s-51.555-23.174-51.555-51.658c.001-28.486 23.128-51.659 51.555-51.659z"/><path d="m124.347 139.005c3.537 2.926 7.072 2.923 10.606-.009l6.443-6.454 6.443 6.454c3.534 2.932 7.07 2.935 10.606.009 2.932-2.927 2.936-7.675.009-10.607l-6.461-6.472 6.461-6.472c2.927-2.932 2.923-7.68-.009-10.607s-7.681-2.922-10.606.009l-6.443 6.454-6.443-6.454c-2.927-2.931-7.676-2.935-10.606-.009-2.932 2.927-2.936 7.675-.009 10.607l6.461 6.472-6.461 6.472c-2.927 2.932-2.923 7.68.009 10.607z"/><path d="m305.648 139.005c3.537 2.926 7.072 2.923 10.606-.009l6.443-6.454 6.443 6.454c3.534 2.932 7.07 2.935 10.606.009 2.932-2.927 2.936-7.675.009-10.607l-6.461-6.472 6.461-6.472c2.927-2.932 2.923-7.68-.009-10.607s-7.681-2.922-10.606.009l-6.443 6.454-6.443-6.454c-2.926-2.931-7.675-2.935-10.606-.009-2.932 2.927-2.936 7.675-.009 10.607l6.461 6.472-6.461 6.472c-2.926 2.932-2.922 7.68.009 10.607z"/></g></g></svg>