<?xml version="1.0" encoding="iso-8859-1"?>
<!-- Generator: Adobe Illustrator 19.0.0, SVG Export Plug-In . SVG Version: 6.00 Build 0)  -->
<svg version="1.1" id="Layer_1" xmlns="http://www.w3.org/2000/svg" xmlns:xlink="http://www.w3.org/1999/xlink" x="0px" y="0px"
	 viewBox="0 0 512 512" style="enable-background:new 0 0 512 512;" xml:space="preserve">
<rect x="122.625" y="10.199" style="fill:#E8E8E8;" width="266.75" height="491.602"/>
<g>
	<rect x="167.593" y="53.636" style="fill:#F07057;" width="63.368" height="63.368"/>
	<rect x="281.039" y="53.636" style="fill:#F07057;" width="63.368" height="63.368"/>
	<rect x="167.593" y="166.063" style="fill:#F07057;" width="63.368" height="63.368"/>
	<rect x="281.039" y="166.063" style="fill:#F07057;" width="63.368" height="63.368"/>
	<rect x="167.593" y="278.489" style="fill:#F07057;" width="63.368" height="63.368"/>
	<rect x="281.039" y="278.489" style="fill:#F07057;" width="63.368" height="63.368"/>
</g>
<rect x="203.872" y="396.025" style="fill:#84B3D2;" width="104.246" height="105.786"/>
<path d="M389.376,512c5.632,0,10.199-4.566,10.199-10.199V10.199C399.575,4.566,395.008,0,389.376,0H122.624
	c-5.632,0-10.199,4.566-10.199,10.199v491.602c0,5.633,4.567,10.199,10.199,10.199H389.376z M266.199,491.602v-31.193
	c0-5.633-4.567-10.199-10.199-10.199c-5.632,0-10.199,4.566-10.199,10.199v31.193h-31.726v-85.383h83.851v85.383H266.199z
	 M379.177,491.602h-60.854V396.02c0-5.633-4.567-10.199-10.199-10.199H203.876c-5.632,0-10.199,4.566-10.199,10.199v95.582h-60.854
	V20.398h246.355v471.203H379.177z"/>
<path d="M167.593,127.201h63.367c5.632,0,10.199-4.566,10.199-10.199V53.636c0-5.633-4.567-10.199-10.199-10.199h-63.367
	c-5.632,0-10.199,4.566-10.199,10.199v63.367C157.394,122.635,161.961,127.201,167.593,127.201z M177.793,63.835h42.968v42.968
	h-42.968V63.835z"/>
<path d="M281.04,127.201h63.367c5.632,0,10.199-4.566,10.199-10.199V53.636c0-5.633-4.567-10.199-10.199-10.199H281.04
	c-5.632,0-10.199,4.566-10.199,10.199v63.367C270.841,122.635,275.407,127.201,281.04,127.201z M291.239,63.835h42.968v42.968
	h-42.968V63.835z"/>
<path d="M167.593,239.626h63.367c5.632,0,10.199-4.566,10.199-10.199V166.06c0-5.633-4.567-10.199-10.199-10.199h-63.367
	c-5.632,0-10.199,4.566-10.199,10.199v63.367C157.394,235.06,161.961,239.626,167.593,239.626z M177.793,176.26h42.968v42.968
	h-42.968V176.26z"/>
<path d="M281.04,239.626h63.367c5.632,0,10.199-4.566,10.199-10.199V166.06c0-5.633-4.567-10.199-10.199-10.199H281.04
	c-5.632,0-10.199,4.566-10.199,10.199v63.367C270.841,235.06,275.407,239.626,281.04,239.626z M291.239,176.26h42.968v42.968
	h-42.968V176.26z"/>
<path d="M167.593,352.051h63.367c5.632,0,10.199-4.566,10.199-10.199v-63.367c0-5.633-4.567-10.199-10.199-10.199h-63.367
	c-5.632,0-10.199,4.566-10.199,10.199v63.367C157.394,347.485,161.961,352.051,167.593,352.051z M177.793,288.684h42.968v42.968
	h-42.968V288.684z"/>
<path d="M281.04,352.051h63.367c5.632,0,10.199-4.566,10.199-10.199v-63.367c0-5.633-4.567-10.199-10.199-10.199H281.04
	c-5.632,0-10.199,4.566-10.199,10.199v63.367C270.841,347.485,275.407,352.051,281.04,352.051z M291.239,288.684h42.968v42.968
	h-42.968V288.684z"/>
<path d="M256,418.526c-5.632,0-10.199,4.566-10.199,10.199v1.022c0,5.633,4.567,10.199,10.199,10.199
	c5.632,0,10.199-4.566,10.199-10.199v-1.022C266.199,423.093,261.632,418.526,256,418.526z"/>
<g>
</g>
<g>
</g>
<g>
</g>
<g>
</g>
<g>
</g>
<g>
</g>
<g>
</g>
<g>
</g>
<g>
</g>
<g>
</g>
<g>
</g>
<g>
</g>
<g>
</g>
<g>
</g>
<g>
</g>
</svg>
