<svg id="Capa_1" enable-background="new 0 0 512.014 512.014" height="512" viewBox="0 0 512.014 512.014" width="512" xmlns="http://www.w3.org/2000/svg"><g><path d="m75.759 436.685-63.631 63.632c4.481 4.31 10.972 5.286 16.372 2.937.003.003 22.217-9.684 49.722-21.68z" fill="#3857bc"/><path d="m23.772 498.542 43.026-28.39 8.961-33.467-45.308-2.882-21.686 49.716c-2.378 5.493-1.341 12.11 3.145 16.597.07.07.146.132.217.201 2.414 2.08 7.044 1.251 11.645-1.775z" fill="#3a6fd8"/><path d="m181.601 436.477 47.741-153.793-162.544 187.468 11.424 11.424c44.357-19.353 102.474-44.703 103.379-45.099z" fill="#ffe09e"/><path d="m229.342 282.684-153.8 47.734-45.092 103.386 36.348 36.348 113.788-75.082z" fill="#fec"/><path d="m283.601 185.999-103.015 209.071v33.64c0 2.686.353 5.29 1.015 7.767.007.007 176.246-176.232 176.246-176.232z" fill="#ffbc2b"/><path d="m251.782 154.179-176.238 176.238c2.476.661 5.078 1.014 7.763 1.014h33.64v33.64c0 16.568 13.432 30 30 30h33.64l5.272-5.262 150.776-150.776z" fill="#ffcf66"/><path d="m357.829 260.249-21.213-21.213v-127.279l63.64 106.066z" fill="#81a0a8"/><path d="m336.616 239.036-84.853-84.853 42.427-42.426 106.066 63.639z" fill="#93b7c0"/><path d="m400.256 217.823-21.213-21.213-21.214-106.066 84.853 84.852z" fill="#93b7c0"/><path d="m297.829 102.97h120v60h-120z" fill="#acd5df" transform="matrix(.707 .707 -.707 .707 198.83 -214.078)"/><path d="m495.715 79.937-21.213-21.213-74.246 74.246 42.426 42.426 53.033-53.033c11.716-11.715 11.716-30.71 0-42.426z" fill="#e33a38"/><path d="m474.502 58.724-42.426-42.426c-11.716-11.716-30.711-11.716-42.426 0l-53.034 53.032 84.853 84.853 53.033-53.033c11.716-11.716 11.716-30.71 0-42.426z" fill="#ff443b"/><path d="m453.289 164.79-21.213-21.213-21.213 21.213 21.213 21.213c5.858 5.858 15.355 5.858 21.213 0s5.858-15.355 0-21.213z" fill="#acd5df"/><path d="m432.076 164.79c5.858-5.858 5.858-15.355 0-21.213l-84.853-84.853c-5.858-5.858-15.355-5.858-21.213 0s-5.858 15.355 0 21.213l84.853 84.853c5.857 5.858 15.355 5.858 21.213 0z" fill="#bdf2ff"/><path d="m368.436 249.643-21.213-21.213-21.213 21.213 21.213 21.213c5.858 5.858 15.355 5.858 21.213 0s5.858-15.356 0-21.213z" fill="#acd5df"/><path d="m347.223 249.643c5.858-5.858 5.858-15.355 0-21.213l-84.853-84.853c-5.858-5.858-15.355-5.858-21.213 0s-5.858 15.355 0 21.213l84.853 84.853c5.857 5.857 15.355 5.858 21.213 0z" fill="#bdf2ff"/><path d="m512.014 101.139c0-10.017-3.901-19.434-10.983-26.517l-63.64-63.64c-7.083-7.082-16.5-10.982-26.516-10.982-10.018 0-19.435 3.9-26.518 10.982l-38.045 38.045c-2.989-1.429-6.273-2.207-9.685-2.207-6.01 0-11.66 2.34-15.91 6.589-4.25 4.25-6.59 9.9-6.59 15.91 0 3.412.779 6.696 2.208 9.685l-54.863 54.864c-8.36-3.984-18.692-2.519-25.607 4.394-6.911 6.912-8.353 17.228-4.375 25.589l-161.247 161.246c-.663.664-1.195 1.445-1.57 2.305 0 0-66.498 152.473-66.731 153.146l-.05-.021c-3.714 8.54-1.864 18.308 4.712 24.885 4.322 4.321 10.026 6.603 15.862 6.603 3.035 0 6.106-.618 9.037-1.887l153.109-66.785c.859-.375 1.641-.907 2.305-1.57l161.239-161.24c2.989 1.429 6.274 2.208 9.685 2.208 6.011 0 11.661-2.341 15.909-6.59 4.25-4.249 6.591-9.899 6.591-15.91 0-3.411-.778-6.696-2.207-9.685l54.882-54.883c3.054 1.453 6.361 2.204 9.677 2.204 5.762 0 11.524-2.192 15.911-6.578 4.249-4.25 6.589-9.9 6.589-15.91 0-3.411-.778-6.695-2.207-9.685l38.044-38.045c7.082-7.085 10.984-16.502 10.984-26.52zm-90.534 84.853-21.212 21.213-95.459-95.458 21.213-21.213zm-240.882 201.568h-33.64c-12.406 0-22.5-10.094-22.5-22.5v-33.64c0-4.143-3.357-7.5-7.5-7.5h-24.324l148.535-148.533 95.458 95.458-148.529 148.532v-24.317c0-4.142-3.358-7.5-7.5-7.5zm-100.517-48.795c1.075.092 2.154.156 3.237.156h26.14v26.14c0 20.678 16.822 37.5 37.5 37.5h26.14v26.14c0 1.082.063 2.158.156 3.232l-93.345 40.716-40.54-40.54c15.582-35.731 34.242-78.511 40.712-93.344zm-54.556 157.605c-2.86 1.238-6.124.625-8.313-1.566-2.189-2.188-2.803-5.445-1.563-8.295.009-.021.018-.041.026-.061.367-.85 7.637-17.521 17.252-39.568l32.211 32.211zm337.619-230.827c-1.416 1.416-3.3 2.196-5.303 2.196s-3.887-.78-5.303-2.197l-106.065-106.066c-2.925-2.924-2.925-7.683 0-10.606 2.923-2.923 7.68-2.925 10.606 0 2.93 2.928 7.677 2.928 10.606 0l26.516-26.516 95.459 95.458-21.212 21.213-79.55-79.549c-2.93-2.928-7.678-2.928-10.607 0-2.929 2.93-2.929 7.678 0 10.607l84.854 84.853c1.417 1.416 2.196 3.299 2.196 5.303 0 2.003-.78 3.887-2.197 5.304zm84.854-84.854c-2.925 2.924-7.683 2.924-10.607 0l-106.056-106.056c-1.428-1.43-2.207-3.312-2.207-5.313 0-2.003.78-3.887 2.197-5.303 1.462-1.463 3.382-2.193 5.303-2.193s3.841.73 5.303 2.193l106.066 106.066c2.925 2.924 2.925 7.682.001 10.606zm42.425-63.64-37.122 37.123-95.459-95.459 37.123-37.123c8.771-8.773 23.047-8.773 31.818 0l63.64 63.64c8.773 8.773 8.773 23.047 0 31.819z"/></g></svg>