<?xml version="1.0" encoding="iso-8859-1"?>
<!-- Generator: Adobe Illustrator 19.0.0, SVG Export Plug-In . SVG Version: 6.00 Build 0)  -->
<svg version="1.1" id="Layer_1" xmlns="http://www.w3.org/2000/svg" xmlns:xlink="http://www.w3.org/1999/xlink" x="0px" y="0px"
	 viewBox="0 0 512.002 512.002" style="enable-background:new 0 0 512.002 512.002;" xml:space="preserve">
<g>
	<path style="fill:#999999;" d="M312.001,232.441h140v-32.443c0-38.498-31.499-69.998-70-69.998c-38.502,0-70,31.5-70,69.998
		V232.441z"/>
	<g>
		<path style="fill:#E8E8E8;" d="M452.001,232.441h-140V328.8l3.94,2.275l35.857,20.703c8.059,4.77,18.387,5.184,27.084,0.186
			l37.526-21.664l15.863-9.158l1.479-0.795l53.029-30.617c9.008-4.367,15.222-13.6,15.222-24.287v-21.906
			c0-6.104-4.993-11.096-11.097-11.096H452.001z"/>
		<path style="fill:#E8E8E8;" d="M416.409,330.301l-37.526,21.664c-8.697,4.998-19.025,4.584-27.084-0.186l-35.857-20.703
			l-3.94,3.471V370v40h178.904c4.131,0,7.752-2.285,9.662-5.654l-4.201-3.705l-42.167-37.158c-0.626-0.551-1.259-1.072-1.898-1.557
			l-32.623-28.744L416.409,330.301z"/>
		<path style="fill:#E8E8E8;" d="M419.678,333.182l32.623,28.744c0.64,0.484,1.273,1.006,1.898,1.557l42.167,37.158l4.201,3.705
			c0.914-1.609,1.435-3.467,1.435-5.441V265.443c0,10.688-6.214,19.92-15.222,24.287l-53.029,30.617l-1.479,0.795l-15.863,9.158
			L419.678,333.182z"/>
		<path style="fill:#E8E8E8;" d="M312.001,334.547v-5.746v-96.359v-32.443c0-38.499,31.499-69.999,70-69.999H252v94.996
			c0,11.047-8.954,20-19.999,20c-11.046,0-20-8.953-20-20V130h-132c-38.5,0-70,31.5-70,69.998V410h70.002h69.999h9.997h52.002H252
			h60.001v-40V334.547z"/>
	</g>
	<path style="fill:#BD2326;" d="M252,224.996V130V10h-39.999h-50c-16.5,0-30,13.502-30,30.002s13.5,29.998,30,29.998h50v60v94.996
		c0,11.047,8.954,20,20,20C243.046,244.996,252,236.043,252,224.996z"/>
	<rect x="160.001" y="410" style="fill:#F6BB59;" width="52" height="92"/>
	<rect x="212.001" y="410" style="fill:#BC9366;" width="39.999" height="92"/>
</g>
<g>
	<path style="fill:#000001;" d="M231.998,380.004h0.239c5.522,0,10-4.477,10-10c0-5.521-4.478-10-10-10h-0.239
		c-5.523,0-10,4.479-10,10C221.998,375.527,226.474,380.004,231.998,380.004z"/>
	<path style="fill:#000001;" d="M126.541,159.998H75.505c-5.523,0-10,4.477-10,10s4.477,10,10,10h51.036c5.523,0,10-4.477,10-10
		S132.064,159.998,126.541,159.998z"/>
	<path style="fill:#000001;" d="M165.507,170.002c0-5.523-4.477-10-10-10h-0.238c-5.523,0-10,4.477-10,10s4.477,10,10,10h0.238
		C161.031,180.002,165.507,175.525,165.507,170.002z"/>
	<path style="fill:#000001;" d="M490.906,222.441h-28.905v-22.443c0-44.111-35.888-79.998-80-79.998h-120V10c0-5.523-4.478-10-10-10
		h-89.999c-22.057,0-40,17.945-40,40.002c0,22.055,17.943,39.998,40,39.998h40v40h-122c-44.112,0-80,35.887-80,79.998V410
		c0,5.523,4.477,10,10,10H150v82.002c0,5.521,4.477,10,10,10h92.001c5.522,0,10-4.479,10-10V420h50h178.904
		c7.643,0,14.328-4.098,18.029-10.197c0.143-0.217,0.278-0.436,0.4-0.66c1.693-3.035,2.667-6.523,2.667-10.238V243.537
		C512.003,231.906,502.539,222.441,490.906,222.441z M460.796,355.967c-0.734-0.646-1.438-1.227-2.141-1.771L433.464,332
		l3.549-2.049c0.557-0.281,1.127-0.592,1.738-0.943l52.742-30.451c0.174-0.086,0.337-0.188,0.509-0.277v85.188L460.796,355.967z
		 M492.002,243.537v21.906c0,6.565-3.673,12.422-9.585,15.289c-0.217,0.105-0.43,0.219-0.637,0.338l-53.021,30.613
		c-0.298,0.172-0.6,0.336-0.902,0.486c-0.199,0.098-0.394,0.201-0.584,0.313l-53.374,30.813c-5.257,3.021-11.774,2.977-17.007-0.121
		c-0.031-0.018-0.063-0.037-0.093-0.055l-34.798-20.092v-80.586h168.904C491.49,242.441,492.002,242.953,492.002,243.537z
		 M442.001,199.998v22.443h-120v-22.443c0-33.084,26.917-59.998,60-59.998S442.001,166.914,442.001,199.998z M162.002,60
		c-11.028,0-20-8.971-20-19.998c0-11.029,8.972-20.002,20-20.002h79.999v204.996c0,5.514-4.485,10-9.999,10c-5.514,0-10-4.486-10-10
		V70c0-5.523-4.477-10-10-10H162.002z M20.001,199.998c0-33.084,26.917-59.998,60.003-59.998h121.998v84.996
		c0,16.543,13.458,30,30,30c16.541,0,29.999-13.457,29.999-30V140h67.171c-16.643,14.67-27.171,36.121-27.171,59.998v32.443V360
		h-41.035c-5.523,0-10,4.479-10,10c0,5.523,4.477,10,10,10h41.035v20H252h-92.001H20.001V199.998z M170,420h32.002v72.002H170V420z
		 M242,492.002h-19.999V420H242V492.002z M322.001,346.123l24.756,14.293c5.771,3.402,12.256,5.107,18.745,5.107
		c6.346-0.002,12.696-1.631,18.38-4.898l31.305-18.072l30.504,26.875c0.184,0.164,0.375,0.318,0.57,0.467
		c0.416,0.316,0.868,0.688,1.327,1.09L480.513,400H322.001V346.123z"/>
</g>
<g>
</g>
<g>
</g>
<g>
</g>
<g>
</g>
<g>
</g>
<g>
</g>
<g>
</g>
<g>
</g>
<g>
</g>
<g>
</g>
<g>
</g>
<g>
</g>
<g>
</g>
<g>
</g>
<g>
</g>
</svg>
