<svg id="Capa_1" enable-background="new 0 0 511.443 511.443" height="512" viewBox="0 0 511.443 511.443" width="512" xmlns="http://www.w3.org/2000/svg"><g><g><path d="m342.43 354.29c0 12.391-10.045 22.436-22.436 22.436h-128.545c-12.391 0-22.436-10.045-22.436-22.436v-65.453h173.417z" fill="#f8f7f8"/><path d="m229.346 362.14c-12.391 0-22.436-10.045-22.436-22.436v-50.867h-37.896v65.453c0 12.391 10.045 22.436 22.436 22.436h128.545c9.629 0 17.848-6.074 21.031-14.593z" fill="#efedee"/><g><path d="m481.58 415.007h-451.717c-12.351 0-22.364-10.013-22.364-22.364v-11.536c0-2.42 1.962-4.381 4.381-4.381h487.681c2.42 0 4.381 1.962 4.381 4.381v11.536c.001 12.351-10.011 22.364-22.362 22.364z" fill="#f9de58"/><g id="XMLID_231_"><g><g><path d="m447.632 156.988c31.1 0 56.31 25.22 56.31 56.32s-25.21 56.31-56.31 56.31-56.32-25.21-56.32-56.31 25.22-56.32 56.32-56.32zm26.31 56.32c0-14.51-11.8-26.32-26.31-26.32s-26.32 11.81-26.32 26.32 11.81 26.31 26.32 26.31 26.31-11.8 26.31-26.31z" fill="#efedee"/></g></g></g><g id="XMLID_141_"><g><g><path d="m420.762 139.688v94.73c0 55.7-45.16 100.86-100.86 100.86h-129.36c-55.7 0-100.86-45.16-100.86-100.86v-94.73c0-7.05 5.72-12.76 12.77-12.76h305.54c7.05 0 12.77 5.71 12.77 12.76z" fill="#f8f7f8"/></g></g></g><path d="m366.306 304.538h-129.36c-55.7 0-100.86-45.16-100.86-100.86v-76.75h-33.635c-7.05 0-12.77 5.71-12.77 12.76v94.73c0 55.7 45.16 100.86 100.86 100.86h129.36c30.705 0 58.194-13.717 76.693-35.364-9.563 3.008-19.731 4.624-30.288 4.624z" fill="#efedee"/><path d="m347.424 214.192-23.625-11.876c-5.181-2.604-11.289-2.604-16.47 0l-23.625 11.876c-6.192 3.113-10.1 9.451-10.1 16.382v49.141c0 10.126 8.209 18.335 18.335 18.335h47.25c10.126 0 18.336-8.209 18.336-18.335v-49.141c-.001-6.931-3.909-13.269-10.101-16.382z" fill="#f8deb6"/><path d="m309.598 291.831c-9.713 0-17.588-7.564-17.588-16.895v-45.281c0-6.386 3.749-12.227 9.688-15.095l22.661-10.943c.363-.175.739-.31 1.11-.46l-1.672-.84c-5.181-2.604-11.289-2.604-16.47 0l-23.625 11.876c-6.192 3.113-10.1 9.451-10.1 16.382v49.141c0 10.126 8.209 18.335 18.336 18.335h47.25c5.476 0 10.378-2.414 13.737-6.22z" fill="#f7d8a4"/><path d="m118.022 376.726h-44.226c-36.614 0-66.296-29.682-66.296-66.296v-35.265c0-4.949 4.012-8.962 8.962-8.962h35.265c36.614 0 66.296 29.682 66.296 66.296v44.227z" fill="#b8de9c"/><path d="m100.716 370.407c-36.614 0-66.296-29.682-66.296-66.296v-35.265c0-.92.14-1.807.397-2.643h-18.355c-4.949 0-8.962 4.012-8.962 8.962v35.265c0 36.614 29.682 66.296 66.296 66.296h44.227v-6.319z" fill="#a6d786"/><path d="m147.536 376.726h-29.514v-36.428c0-25.745 20.87-46.615 46.615-46.615h23.771c3.172 0 5.743 2.571 5.743 5.743v30.686c0 25.744-20.87 46.614-46.615 46.614z" fill="#daeecc"/><path d="m130.949 354.311c0-25.745 20.87-46.615 46.615-46.615h16.587v-8.271c0-3.172-2.571-5.743-5.743-5.743h-23.771c-25.745 0-46.615 20.87-46.615 46.615v36.428h12.927z" fill="#c9e7b4"/></g></g><g><path d="m499.562 369.226h-46.284c-4.142 0-7.5 3.358-7.5 7.5s3.358 7.5 7.5 7.5h43.165v8.417c0 8.196-6.667 14.863-14.863 14.863h-451.717c-8.196 0-14.863-6.667-14.863-14.863v-8.417h406.316c4.142 0 7.5-3.358 7.5-7.5s-3.358-7.5-7.5-7.5h-75.395c2.544-4.4 4.009-9.499 4.009-14.936v-15.751c33.228-9.599 59.943-34.706 71.754-66.941 8.128 3.626 16.946 5.52 25.945 5.52 35.187 0 63.813-28.626 63.813-63.813s-28.626-63.814-63.813-63.814c-6.588 0-13.135 1.027-19.373 3.009v-12.816c0-11.172-9.089-20.261-20.26-20.261h-51.542v-6.291c0-13.342-10.854-24.196-24.195-24.196-13.342 0-24.196 10.854-24.196 24.196v6.291h-139.05c-4.142 0-7.5 3.358-7.5 7.5s3.358 7.5 7.5 7.5h139.051v59.56c-1.403.423-2.777.965-4.104 1.632l-23.625 11.876c-8.778 4.413-14.232 13.258-14.232 23.083v9.044c0 4.142 3.358 7.5 7.5 7.5s7.5-3.358 7.5-7.5v-9.044c0-4.121 2.287-7.83 5.969-9.681l23.625-11.876c3.047-1.531 6.686-1.532 9.732 0l23.625 11.876c3.682 1.851 5.969 5.56 5.969 9.681v49.142c0 5.975-4.861 10.835-10.835 10.835h-47.25c-5.975 0-10.835-4.86-10.835-10.835v-8.135c0-4.142-3.358-7.5-7.5-7.5s-7.5 3.358-7.5 7.5v8.135c0 14.246 11.59 25.835 25.835 25.835h47.25c14.246 0 25.835-11.589 25.835-25.835v-49.142c0-9.825-5.454-18.67-14.232-23.083l-23.625-11.876c-1.326-.667-2.7-1.209-4.104-1.632v-59.56h84.933c2.9 0 5.26 2.36 5.26 5.261v94.733c0 51.479-41.881 93.359-93.359 93.359h-118.245v-28.352c0-7.302-5.94-13.243-13.243-13.243h-23.771c-14.968 0-28.534 6.111-38.34 15.966-18.533-17.595-29.111-42.12-29.111-67.731v-94.733c0-2.901 2.36-5.261 5.26-5.261h34.604c4.142 0 7.5-3.358 7.5-7.5s-3.358-7.5-7.5-7.5h-34.604c-11.171 0-20.26 9.089-20.26 20.261v94.733c0 11.517 1.843 22.844 5.351 33.589-10.613-5.917-22.822-9.302-35.811-9.302h-35.264c-9.077.001-16.462 7.385-16.462 16.462v35.265c0 23.975 11.499 45.308 29.263 58.796h-17.382c-6.551 0-11.881 5.33-11.881 11.881v11.536c0 16.467 13.396 29.863 29.863 29.863h451.717c16.467 0 29.863-13.396 29.863-29.863v-11.536c0-6.551-5.33-11.881-11.881-11.881zm-176.498-256.093c0-5.071 4.125-9.196 9.196-9.196 5.07 0 9.195 4.125 9.195 9.196v6.291h-18.391zm124.566 51.358c26.916 0 48.813 21.898 48.813 48.814s-21.897 48.813-48.813 48.813c-7.592 0-15.017-1.757-21.747-5.116 1.118-5.254 1.854-10.646 2.178-16.149 5.528 3.938 12.28 6.265 19.57 6.265 18.645 0 33.813-15.169 33.813-33.814s-15.168-33.813-33.813-33.813c-7.203 0-13.882 2.271-19.373 6.125v-17.102c6.082-2.627 12.694-4.023 19.372-4.023zm-18.814 48.813c0-10.374 8.44-18.813 18.814-18.813s18.813 8.44 18.813 18.813c0 10.374-8.44 18.814-18.813 18.814-10.374 0-18.814-8.44-18.814-18.814zm-228.677 129.473h119.758c5.101 0 10.118-.363 15.033-1.048v12.561c0 8.236-6.7 14.936-14.936 14.936h-128.545c-1.9 0-3.751-.381-5.479-1.064 6.836-6.904 11.821-15.635 14.169-25.385zm-35.502-41.594h22.014v28.928c0 21.568-17.547 39.115-39.115 39.115h-22.014v-28.929c0-21.568 17.547-39.114 39.115-39.114zm-149.637 9.247v-35.265c0-.806.656-1.461 1.462-1.461h35.265c32.42 0 58.796 26.375 58.796 58.795v36.727h-36.728c-32.42 0-58.795-26.375-58.795-58.796z"/><path d="m323.064 244.728v-7.105c0-4.142-3.358-7.5-7.5-7.5s-7.5 3.358-7.5 7.5v7.105c0 4.142 3.358 7.5 7.5 7.5s7.5-3.358 7.5-7.5z"/></g></g></svg>