<?xml version="1.0" encoding="iso-8859-1"?>
<!-- Generator: Adobe Illustrator 19.0.0, SVG Export Plug-In . SVG Version: 6.00 Build 0)  -->
<svg version="1.1" id="Capa_1" xmlns="http://www.w3.org/2000/svg" xmlns:xlink="http://www.w3.org/1999/xlink" x="0px" y="0px"
	 viewBox="0 0 512 512" style="enable-background:new 0 0 512 512;" xml:space="preserve">
<polygon style="fill:#F6A7C5;" points="416.567,29.92 38.849,103.163 116.669,504.488 384.876,452.48 473.152,321.733 "/>
<g>
	<polygon style="fill:#F082A6;" points="384.876,452.48 473.152,321.733 363.64,342.969 	"/>
	<polygon style="fill:#F082A6;" points="110.66,89.238 146.383,167.829 226.54,167.829 242.565,63.661 	"/>
</g>
<polygon style="fill:#FCDE76;" points="242.571,167.829 146.383,167.829 146.383,7.515 170.43,23.546 194.477,7.515 218.524,23.546 
	242.571,7.515 "/>
<path d="M479.982,324.846c0.642-1.409,0.843-3.021,0.547-4.545l-36.964-190.624c-0.791-4.074-4.724-6.74-8.808-5.947
	c-4.074,0.791-6.737,4.733-5.948,8.808l35.534,183.247l-102.133,19.806c-4.074,0.791-6.737,4.733-5.948,8.808l19.805,102.135
	l-253.45,49.146L47.656,109.11l91.212-17.687v76.406c0,4.15,3.365,7.515,7.515,7.515h96.188c4.15,0,7.515-3.365,7.515-7.515V69.857
	L410.62,38.728l11.496,59.284c0.696,3.591,3.843,6.086,7.369,6.086c0.474,0,0.955-0.045,1.439-0.139
	c4.074-0.791,6.737-4.733,5.948-8.808l-12.925-66.662c-0.779-4.013-4.788-6.729-8.808-5.947L250.086,54.547V7.515
	c0-5.882-6.778-9.524-11.683-6.252l-19.879,13.253L198.645,1.262c-2.525-1.683-5.812-1.683-8.336,0L170.43,14.515L150.551,1.262
	c-4.905-3.27-11.683,0.37-11.683,6.252v68.599L37.418,95.786c-4.014,0.778-6.726,4.788-5.947,8.808l77.82,401.325
	c0.779,4.018,4.787,6.729,8.808,5.947l268.205-52.008c1.933-0.376,3.695-1.54,4.797-3.172l88.277-130.748
	C479.611,325.594,479.81,325.224,479.982,324.846z M153.897,21.556l12.364,8.243c2.525,1.683,5.812,1.683,8.336,0l19.879-13.253
	l19.879,13.253c2.525,1.683,5.812,1.683,8.336,0l12.364-8.243v138.758h-81.159L153.897,21.556L153.897,21.556z M456.772,332.563
	L388.798,433.24l-16.35-84.324L456.772,332.563z"/>
<g>
</g>
<g>
</g>
<g>
</g>
<g>
</g>
<g>
</g>
<g>
</g>
<g>
</g>
<g>
</g>
<g>
</g>
<g>
</g>
<g>
</g>
<g>
</g>
<g>
</g>
<g>
</g>
<g>
</g>
</svg>
