<?xml version="1.0" ?><!DOCTYPE svg  PUBLIC '-//W3C//DTD SVG 1.1//EN'  'http://www.w3.org/Graphics/SVG/1.1/DTD/svg11.dtd'><svg enable-background="new 0 0 128 128" id="Слой_1" version="1.1" viewBox="0 0 128 128" xml:space="preserve" xmlns="http://www.w3.org/2000/svg" xmlns:xlink="http://www.w3.org/1999/xlink"><g><g><g><path d="M108,124H20c-8.8,0-16-7.2-16-16V20c0-8.8,7.2-16,16-16h88c8.8,0,16,7.2,16,16v88     C124,116.8,116.8,124,108,124z" fill="#FFFFFF"/></g><g><path d="M4,18.1v21.2h120V18.1c0-7.8-6.3-14.1-14.1-14.1H18.1C10.3,4,4,10.3,4,18.1z" fill="#D2D5D6"/></g><g><circle cx="20.5" cy="21.1" fill="#EC7BB0" r="7.1"/></g><g><circle cx="59.5" cy="21.1" fill="#82CFCD" r="7.1"/><path d="M59.5,29.1c-4.4,0-8.1-3.6-8.1-8.1c0-4.4,3.6-8.1,8.1-8.1c4.4,0,8.1,3.6,8.1,8.1     C67.5,25.5,63.9,29.1,59.5,29.1z M59.5,15c-3.3,0-6.1,2.7-6.1,6.1s2.7,6.1,6.1,6.1s6.1-2.7,6.1-6.1S62.8,15,59.5,15z" fill="#62355C"/></g><g><circle cx="40" cy="21.1" fill="#F1ED7B" r="7.1"/></g><g><path d="M20.5,29.1c-4.4,0-8.1-3.6-8.1-8.1c0-4.4,3.6-8.1,8.1-8.1c4.4,0,8.1,3.6,8.1,8.1     C28.6,25.5,25,29.1,20.5,29.1z M20.5,15c-3.3,0-6.1,2.7-6.1,6.1s2.7,6.1,6.1,6.1s6.1-2.7,6.1-6.1S23.9,15,20.5,15z" fill="#62355C"/></g><g><path d="M59.5,29.1c-4.4,0-8.1-3.6-8.1-8.1c0-4.4,3.6-8.1,8.1-8.1c4.4,0,8.1,3.6,8.1,8.1     C67.5,25.5,63.9,29.1,59.5,29.1z M59.5,15c-3.3,0-6.1,2.7-6.1,6.1s2.7,6.1,6.1,6.1s6.1-2.7,6.1-6.1S62.8,15,59.5,15z" fill="#62355C"/></g><g><path d="M40,29.1c-4.4,0-8.1-3.6-8.1-8.1c0-4.4,3.6-8.1,8.1-8.1s8.1,3.6,8.1,8.1C48.1,25.5,44.4,29.1,40,29.1z      M40,15c-3.3,0-6.1,2.7-6.1,6.1s2.7,6.1,6.1,6.1s6.1-2.7,6.1-6.1S43.3,15,40,15z" fill="#62355C"/></g><g><rect fill="#62355C" height="2" width="120" x="4" y="38.3"/></g><g><path d="M108,104.3H20c-0.6,0-1-0.4-1-1s0.4-1,1-1h88c0.6,0,1,0.4,1,1S108.6,104.3,108,104.3z" fill="#62355C"/></g><g><path d="M60,56.3H20c-0.6,0-1-0.4-1-1s0.4-1,1-1h40c0.6,0,1,0.4,1,1S60.6,56.3,60,56.3z" fill="#62355C"/></g><g><path d="M60,72.3H20c-0.6,0-1-0.4-1-1s0.4-1,1-1h40c0.6,0,1,0.4,1,1S60.6,72.3,60,72.3z" fill="#62355C"/></g><g><path d="M60,88.3H20c-0.6,0-1-0.4-1-1s0.4-1,1-1h40c0.6,0,1,0.4,1,1S60.6,88.3,60,88.3z" fill="#62355C"/></g><g><path d="M108,125H20c-9.4,0-17-7.6-17-17V20c0-9.4,7.6-17,17-17h88c9.4,0,17,7.6,17,17v88     C125,117.4,117.4,125,108,125z M20,5C11.7,5,5,11.7,5,20v88c0,8.3,6.7,15,15,15h88c8.3,0,15-6.7,15-15V20c0-8.3-6.7-15-15-15H20z     " fill="#62355C"/></g></g><g><path d="M108.9,28.1H79.6c-3.9,0-7.1-3.2-7.1-7.1v0c0-3.9,3.2-7.1,7.1-7.1h29.3c3.9,0,7.1,3.2,7.1,7.1v0    C116,25,112.8,28.1,108.9,28.1z" fill="#FFFFFF"/></g><g><path d="M108.9,29.1H79.6c-4.4,0-8.1-3.6-8.1-8.1c0-4.4,3.6-8.1,8.1-8.1h29.3c4.4,0,8.1,3.6,8.1,8.1    C117,25.5,113.4,29.1,108.9,29.1z M79.6,15c-3.3,0-6.1,2.7-6.1,6.1s2.7,6.1,6.1,6.1h29.3c3.3,0,6.1-2.7,6.1-6.1s-2.7-6.1-6.1-6.1    H79.6z" fill="#62355C"/></g><g><rect fill="#F1ED7B" height="32" width="32" x="76" y="55.3"/></g><g><path d="M104.8,88.3H79.2c-2.3,0-4.2-1.9-4.2-4.2V58.5c0-2.3,1.9-4.2,4.2-4.2h25.6c2.3,0,4.2,1.9,4.2,4.2v25.6    C109,86.4,107.1,88.3,104.8,88.3z M79.2,56.3c-1.2,0-2.2,1-2.2,2.2v25.6c0,1.2,1,2.2,2.2,2.2h25.6c1.2,0,2.2-1,2.2-2.2V58.5    c0-1.2-1-2.2-2.2-2.2H79.2z" fill="#62355C"/></g></g></svg>