<?xml version="1.0" ?><!DOCTYPE svg  PUBLIC '-//W3C//DTD SVG 1.1//EN'  'http://www.w3.org/Graphics/SVG/1.1/DTD/svg11.dtd'><svg enable-background="new 0 0 128 128" id="Слой_1" version="1.1" viewBox="0 0 128 128" xml:space="preserve" xmlns="http://www.w3.org/2000/svg" xmlns:xlink="http://www.w3.org/1999/xlink"><path d="M114,124H14c-5.5,0-10-4.5-10-10V22c0-5.5,4.5-10,10-10h100c5.5,0,10,4.5,10,10v92  C124,119.5,119.5,124,114,124z" fill="#FFF7E7"/><path d="M4,35V22c0-5.5,4.5-10,10-10h99.6c5.7,0,10.2,4.7,10,10.4L123,35H4z" fill="#F37865"/><g><path d="M12,114V22c0-5.5,4.5-10,10-10h-8C8.5,12,4,16.5,4,22v92c0,5.5,4.5,10,10,10h8C16.5,124,12,119.5,12,114z" fill="#FFFFFF"/></g><circle cx="19.5" cy="108.5" fill="#E3D34C" r="7.5"/><circle cx="41.5" cy="108.5" fill="#E3D34C" r="7.5"/><circle cx="63.5" cy="108.5" fill="#E3D34C" r="7.5"/><circle cx="85.5" cy="108.5" fill="#E3D34C" r="7.5"/><circle cx="107.5" cy="108.5" fill="#F1684E" r="7.5"/><path d="M14,125.5h100c6.3,0,11.5-5.2,11.5-11.5V22c0-6.3-5.2-11.5-11.5-11.5H93.5V4c0-0.8-0.7-1.5-1.5-1.5  S90.5,3.2,90.5,4v6.5h-51V4c0-0.8-0.7-1.5-1.5-1.5S36.5,3.2,36.5,4v6.5H14C7.7,10.5,2.5,15.7,2.5,22v92  C2.5,120.3,7.7,125.5,14,125.5z M14,13.5h22.5V20c0,0.8,0.7,1.5,1.5,1.5s1.5-0.7,1.5-1.5v-6.5h51V20c0,0.8,0.7,1.5,1.5,1.5  s1.5-0.7,1.5-1.5v-6.5H114c4.7,0,8.5,3.8,8.5,8.5v11.5H5.5V22C5.5,17.3,9.3,13.5,14,13.5z M5.5,36.5h117V114c0,4.7-3.8,8.5-8.5,8.5  H14c-4.7,0-8.5-3.8-8.5-8.5V36.5z" fill="#62355C"/><path d="M19.5,117.5c5,0,9-4,9-9s-4-9-9-9s-9,4-9,9S14.5,117.5,19.5,117.5z M19.5,102.5c3.3,0,6,2.7,6,6s-2.7,6-6,6  s-6-2.7-6-6S16.2,102.5,19.5,102.5z" fill="#62355C"/><path d="M41.5,117.5c5,0,9-4,9-9s-4-9-9-9s-9,4-9,9S36.5,117.5,41.5,117.5z M41.5,102.5c3.3,0,6,2.7,6,6s-2.7,6-6,6  s-6-2.7-6-6S38.2,102.5,41.5,102.5z" fill="#62355C"/><path d="M63.5,117.5c5,0,9-4,9-9s-4-9-9-9s-9,4-9,9S58.5,117.5,63.5,117.5z M63.5,102.5c3.3,0,6,2.7,6,6s-2.7,6-6,6  c-3.3,0-6-2.7-6-6S60.2,102.5,63.5,102.5z" fill="#62355C"/><path d="M76.5,108.5c0,5,4,9,9,9s9-4,9-9s-4-9-9-9S76.5,103.5,76.5,108.5z M91.5,108.5c0,3.3-2.7,6-6,6s-6-2.7-6-6  s2.7-6,6-6S91.5,105.2,91.5,108.5z" fill="#62355C"/><path d="M107.5,117.5c5,0,9-4,9-9s-4-9-9-9s-9,4-9,9S102.5,117.5,107.5,117.5z M107.5,102.5c3.3,0,6,2.7,6,6  s-2.7,6-6,6s-6-2.7-6-6S104.2,102.5,107.5,102.5z" fill="#62355C"/><path d="M43.5,81.4c-0.8,0-1.5,0.7-1.5,1.5s0.7,1.5,1.5,1.5h10c0.8,0,1.5-0.7,1.5-1.5s-0.7-1.5-1.5-1.5H50V47.9  c0-0.8-0.7-1.5-1.5-1.5h-5c-0.8,0-1.5,0.7-1.5,1.5s0.7,1.5,1.5,1.5H47v32H43.5z" fill="#62355C"/><path d="M60.7,84.2c0.3,0.2,0.5,0.2,0.8,0.2c0.5,0,1-0.2,1.3-0.7l23-35c0.3-0.5,0.3-1.1,0.1-1.5s-0.8-0.8-1.3-0.8  h-23c-0.8,0-1.5,0.7-1.5,1.5s0.7,1.5,1.5,1.5h20.2L60.2,82.1C59.8,82.8,60,83.7,60.7,84.2z" fill="#62355C"/></svg>