<?xml version="1.0" ?><!DOCTYPE svg  PUBLIC '-//W3C//DTD SVG 1.1//EN'  'http://www.w3.org/Graphics/SVG/1.1/DTD/svg11.dtd'><svg enable-background="new 0 0 128 128" id="Слой_1" version="1.1" viewBox="0 0 128 128" xml:space="preserve" xmlns="http://www.w3.org/2000/svg" xmlns:xlink="http://www.w3.org/1999/xlink"><path d="M59,99H9l27.4-63.9c1.6-3.7,5.2-6.1,9.2-6.1h36.8c4,0,7.6,2.4,9.2,6.1L119,99H59l28.8-67.2" fill="#B4D8A7"/><path d="M55.6,29h-10c-4,0-7.6,2.4-9.2,6.1L9,99h10l27.4-63.9C48,31.4,51.6,29,55.6,29z" fill="#FFFFFF"/><path d="M7.7,99.8c0.3,0.4,0.7,0.7,1.3,0.7h110c0.5,0,1-0.3,1.3-0.7c0.3-0.4,0.3-1,0.1-1.4L93,34.5  c-1.8-4.2-6-7-10.6-7H45.6c-4.6,0-8.8,2.7-10.6,7L7.6,98.4C7.4,98.9,7.5,99.4,7.7,99.8z M90.2,35.6l26.5,61.9H90.5v-41  c0-0.8-0.7-1.5-1.5-1.5s-1.5,0.7-1.5,1.5v41H61.3l27.5-64.1C89.4,34,89.9,34.8,90.2,35.6z M37.8,35.6c1.3-3.1,4.4-5.2,7.8-5.2h36.8  c1.4,0,2.7,0.3,3.9,1L58,97.5H11.3L37.8,35.6z" fill="#62355C"/></svg>