<?xml version="1.0" ?><!DOCTYPE svg  PUBLIC '-//W3C//DTD SVG 1.1//EN'  'http://www.w3.org/Graphics/SVG/1.1/DTD/svg11.dtd'><svg enable-background="new 0 0 128 128" id="Слой_1" version="1.1" viewBox="0 0 128 128" xml:space="preserve" xmlns="http://www.w3.org/2000/svg" xmlns:xlink="http://www.w3.org/1999/xlink"><g><g><path d="M18.5,17.1h60.7c6.4,0,11.6,5.2,11.6,11.6v46.3H34.8L15.6,90.3V74.9h0C9.2,74.9,4,69.7,4,63.3V31.5    C4,23.5,10.5,17.1,18.5,17.1z" fill="#C27DB5"/></g><g><path d="M14.6,92.4V75.9C8.1,75.4,3,69.9,3,63.3V31.5C3,23,9.9,16.1,18.5,16.1h60.7c6.9,0,12.6,5.6,12.6,12.6v47.3    H35.2L14.6,92.4z M18.5,18.1C11,18.1,5,24.1,5,31.5v31.8c0,5.8,4.7,10.6,10.6,10.6h1v14.3l17.9-14.3h55.3V28.6    c0-5.8-4.7-10.6-10.6-10.6H18.5z" fill="#62355C"/></g><g><path d="M15.6,91.3c-0.1,0-0.3,0-0.4-0.1c-0.3-0.2-0.6-0.5-0.6-0.9V75.9C8.1,75.4,3,69.9,3,63.3V31.5    C3,23,9.9,16.1,18.5,16.1h60.7c6.9,0,12.6,5.6,12.6,12.6v46.3c0,0.6-0.4,1-1,1H35.2l-19,15.2C16,91.3,15.8,91.3,15.6,91.3z     M18.5,18.1C11,18.1,5,24.1,5,31.5v31.8c0,5.8,4.7,10.6,10.6,10.6c0.6,0,1,0.4,1,1v13.3l17.7-14.1c0.2-0.1,0.4-0.2,0.6-0.2h54.9    V28.6c0-5.8-4.7-10.6-10.6-10.6H18.5z" fill="#62355C"/></g><g><path d="M112.4,37.7H48.8c-6.4,0-11.6,5.2-11.6,11.6v34.7c0,6.4,5.2,11.6,11.6,11.6h44.3l19.3,15.4V95.5h0    c6.4,0,11.6-5.2,11.6-11.6V49.2C124,42.9,118.8,37.7,112.4,37.7z" fill="#FFFFFF"/></g><g><path d="M112.4,111.9c-0.2,0-0.4-0.1-0.6-0.2l-19-15.2h-44c-6.9,0-12.6-5.6-12.6-12.6V49.2    c0-6.9,5.6-12.6,12.6-12.6h63.6c6.9,0,12.6,5.6,12.6,12.6v34.7c0,6.6-5.1,12-11.6,12.5v14.5c0,0.4-0.2,0.7-0.6,0.9    C112.7,111.9,112.6,111.9,112.4,111.9z M48.8,38.7c-5.8,0-10.6,4.7-10.6,10.6v34.7c0,5.8,4.7,10.6,10.6,10.6h44.3    c0.2,0,0.4,0.1,0.6,0.2l17.7,14.1V95.5c0-0.6,0.4-1,1-1c5.8,0,10.6-4.7,10.6-10.6V49.2c0-5.8-4.7-10.6-10.6-10.6H48.8z" fill="#62355C"/></g><g><path d="M112.4,111.9c-0.2,0-0.4-0.1-0.6-0.2l-19-15.2h-44c-6.9,0-12.6-5.6-12.6-12.6V49.2    c0-6.9,5.6-12.6,12.6-12.6h63.6c6.9,0,12.6,5.6,12.6,12.6v34.7c0,6.6-5.1,12-11.6,12.5v14.5c0,0.4-0.2,0.7-0.6,0.9    C112.7,111.9,112.6,111.9,112.4,111.9z M48.8,38.7c-5.8,0-10.6,4.7-10.6,10.6v34.7c0,5.8,4.7,10.6,10.6,10.6h44.3    c0.2,0,0.4,0.1,0.6,0.2l17.7,14.1V95.5c0-0.6,0.4-1,1-1c5.8,0,10.6-4.7,10.6-10.6V49.2c0-5.8-4.7-10.6-10.6-10.6H48.8z" fill="#62355C"/></g><g><circle cx="61.3" cy="67.1" fill="#72B6D3" r="4.8"/></g><g><circle cx="80.6" cy="67.1" fill="#72B6D3" r="4.8"/></g><g><circle cx="99.9" cy="67.1" fill="#72B6D3" r="4.8"/></g><g><path d="M61.3,72.9c-3.2,0-5.8-2.6-5.8-5.8s2.6-5.8,5.8-5.8s5.8,2.6,5.8,5.8S64.6,72.9,61.3,72.9z M61.3,63.3    c-2.1,0-3.8,1.7-3.8,3.8s1.7,3.8,3.8,3.8s3.8-1.7,3.8-3.8S63.5,63.3,61.3,63.3z" fill="#62355C"/></g><g><path d="M80.6,72.9c-3.2,0-5.8-2.6-5.8-5.8s2.6-5.8,5.8-5.8c3.2,0,5.8,2.6,5.8,5.8S83.8,72.9,80.6,72.9z     M80.6,63.3c-2.1,0-3.8,1.7-3.8,3.8s1.7,3.8,3.8,3.8c2.1,0,3.8-1.7,3.8-3.8S82.7,63.3,80.6,63.3z" fill="#62355C"/></g><g><path d="M99.9,72.9c-3.2,0-5.8-2.6-5.8-5.8s2.6-5.8,5.8-5.8s5.8,2.6,5.8,5.8S103.1,72.9,99.9,72.9z M99.9,63.3    c-2.1,0-3.8,1.7-3.8,3.8s1.7,3.8,3.8,3.8s3.8-1.7,3.8-3.8S102,63.3,99.9,63.3z" fill="#62355C"/></g></g></svg>