<?xml version="1.0" ?><!DOCTYPE svg  PUBLIC '-//W3C//DTD SVG 1.1//EN'  'http://www.w3.org/Graphics/SVG/1.1/DTD/svg11.dtd'><svg enable-background="new 0 0 128 128" id="Слой_1" version="1.1" viewBox="0 0 128 128" xml:space="preserve" xmlns="http://www.w3.org/2000/svg" xmlns:xlink="http://www.w3.org/1999/xlink"><g><g><g><g><g><path d="M91.3,20.7c0,0-56.8,15.2-57.6,15.4C20.3,39.8,12.3,53.6,15.9,67c3.6,13.4,17.4,21.4,30.9,17.8       c8.7-2.3,15.2-9,17.6-17.1l16.2-4.3c6.1,5.8,15,8.3,23.8,6c13.4-3.6,21.4-17.4,17.8-30.9C118.5,25.1,104.7,17.1,91.3,20.7z" fill="#F7F6F9"/></g></g><g><g><g><path d="M20.1,68.7C16.5,55.3,24.5,41.5,38,37.9c0.7-0.2,57.6-15.4,57.6-15.4c4.7-1.3,9.4-1.1,13.7,0.2        c-5.4-2.7-11.7-3.6-18-1.9c0,0-56.8,15.2-57.6,15.4C20.3,39.8,12.3,53.6,15.9,67c2.3,8.8,9,15.2,17.1,17.6        C26.9,81.5,22.1,75.9,20.1,68.7z" fill="#FFFFFF"/></g></g></g><g><g><circle cx="95.4" cy="36.2" fill="#FFFFFF" r="2.8"/></g></g><g><g><circle cx="100.2" cy="53.9" fill="#FFFFFF" r="2.8"/></g></g><g><g><circle cx="106.6" cy="42.7" fill="#FFFFFF" r="2.8"/></g></g><g><g><circle cx="88.9" cy="47.4" fill="#FFFFFF" r="2.8"/></g></g><g><g><circle cx="40.2" cy="60.5" fill="#D5D3DB" r="16"/></g></g></g><g><g><g><path d="M104.7,70.9c-8.7,2.3-17.8,0.2-24.6-5.8L65.5,69c-2.9,8.5-9.7,14.9-18.4,17.3       c-14.2,3.8-28.9-4.7-32.7-18.9s4.7-28.9,18.9-32.7l57.6-15.4c14.2-3.8,28.9,4.7,32.7,18.9C127.4,52.4,118.9,67.1,104.7,70.9z        M64,66.3L80.1,62c0.5-0.1,1,0,1.4,0.4c6,5.6,14.4,7.7,22.4,5.6c12.6-3.4,20.1-16.4,16.8-29s-16.4-20.1-29-16.8L34.1,37.6       C21.5,41,13.9,54,17.3,66.6s16.4,20.1,29,16.8c8-2.1,14.2-8.1,16.6-16C63.1,66.9,63.5,66.5,64,66.3z" fill="#B09AAC"/></g></g><g><g><path d="M76.3,35.8l-22.1,5.9c-0.8,0.2-1.6-0.3-1.8-1.1c-0.2-0.8,0.3-1.6,1.1-1.8l22.1-5.9       c0.8-0.2,1.6,0.3,1.8,1.1C77.6,34.7,77.1,35.6,76.3,35.8z" fill="#B09AAC"/></g></g><g><g><path d="M42.4,68.6c-0.8,0.2-1.6-0.3-1.8-1.1L37,54.2c-0.2-0.8,0.3-1.6,1.1-1.8c0.8-0.2,1.6,0.3,1.8,1.1       l3.6,13.3C43.7,67.6,43.2,68.4,42.4,68.6z" fill="#B09AAC"/></g></g><g><g><path d="M72.9,60.4c-0.2,0.1-0.5,0.1-0.8,0c-0.8-0.2-1.3-1-1.1-1.8l1.7-6.2c0.2-0.8,1-1.3,1.8-1.1       c0.8,0.2,1.3,1,1.1,1.8L74,59.3C73.9,59.9,73.4,60.3,72.9,60.4z" fill="#B09AAC"/></g></g><g><g><path d="M67.6,61.8c-0.2,0.1-0.5,0.1-0.8,0c-0.8-0.2-1.3-1-1.1-1.8l1.7-6.2c0.2-0.8,1-1.3,1.8-1.1       c0.8,0.2,1.3,1,1.1,1.8l-1.7,6.2C68.5,61.3,68.1,61.7,67.6,61.8z" fill="#B09AAC"/></g></g><g><g><path d="M47.3,60.2L34,63.7c-0.8,0.2-1.6-0.3-1.8-1.1c-0.2-0.8,0.3-1.6,1.1-1.8l13.3-3.6       c0.8-0.2,1.6,0.3,1.8,1.1C48.5,59.1,48.1,60,47.3,60.2z" fill="#B09AAC"/></g></g><g><g><path d="M96.5,40.3c-2.3,0.6-4.6-0.7-5.2-3c-0.6-2.3,0.7-4.6,3-5.2c2.3-0.6,4.6,0.7,5.2,3       C100.1,37.4,98.8,39.7,96.5,40.3z M95.1,35c-0.7,0.2-1.1,0.9-0.9,1.5c0.2,0.7,0.9,1.1,1.5,0.9c0.7-0.2,1.1-0.9,0.9-1.5       C96.4,35.2,95.7,34.8,95.1,35z" fill="#B09AAC"/></g></g><g><g><path d="M101.3,58c-2.3,0.6-4.6-0.7-5.2-3c-0.6-2.3,0.7-4.6,3-5.2c2.3-0.6,4.6,0.7,5.2,3       C104.9,55.1,103.5,57.4,101.3,58z M99.8,52.7c-0.7,0.2-1.1,0.9-0.9,1.5c0.2,0.7,0.9,1.1,1.5,0.9c0.7-0.2,1.1-0.9,0.9-1.5       C101.2,52.9,100.5,52.5,99.8,52.7z" fill="#B09AAC"/></g></g><g><g><path d="M107.7,46.8c-2.3,0.6-4.6-0.7-5.2-3c-0.6-2.3,0.7-4.6,3-5.2c2.3-0.6,4.6,0.7,5.2,3       C111.3,43.9,110,46.2,107.7,46.8z M106.3,41.5c-0.7,0.2-1.1,0.9-0.9,1.5c0.2,0.7,0.9,1.1,1.5,0.9c0.7-0.2,1.1-0.9,0.9-1.5       C107.7,41.7,107,41.3,106.3,41.5z" fill="#B09AAC"/></g></g><g><g><path d="M90,51.6c-2.3,0.6-4.6-0.7-5.2-3c-0.6-2.3,0.7-4.6,3-5.2c2.3-0.6,4.6,0.7,5.2,3S92.3,50.9,90,51.6z        M88.6,46.2c-0.7,0.2-1.1,0.9-0.9,1.5s0.9,1.1,1.5,0.9s1.1-0.9,0.9-1.5C90,46.5,89.3,46.1,88.6,46.2z" fill="#B09AAC"/></g></g><g><g><path d="M44.8,77.4c-9.3,2.5-19-3.1-21.5-12.4c-2.5-9.3,3.1-19,12.4-21.5C45,41,54.7,46.6,57.2,56       C59.7,65.3,54.1,74.9,44.8,77.4z M36.5,46.5c-7.7,2.1-12.4,10.1-10.3,17.8C28.3,72,36.2,76.6,44,74.5       c7.7-2.1,12.4-10.1,10.3-17.8C52.2,49,44.2,44.4,36.5,46.5z" fill="#B09AAC"/></g></g></g></g><g><g><g opacity="0.15"><path d="M96.5,59h-65c-5.9,0-11.5,1.6-16.3,4.3c0.1,1.2,0.4,2.5,0.7,3.8c3.6,13.4,17.4,21.4,30.9,17.8      c8.7-2.3,15.2-9,17.6-17.1l16.2-4.3c6.1,5.8,15,8.3,23.8,6c3.8-1,7.2-2.9,10-5.3C109.1,60.9,103,59,96.5,59z" fill="#62345B"/></g><g><path d="M96.5,65c0,0-64.2,0-65,0C16.3,65,4,77.3,4,92.5C4,107.7,16.3,120,31.5,120c9.9,0,18.5-5.2,23.4-13h18.3      c4.9,7.8,13.5,13,23.4,13c15.2,0,27.5-12.3,27.5-27.5C124,77.3,111.7,65,96.5,65z" fill="#EAE6EC"/></g><g><g><path d="M8,95.5C8,80.3,20.3,68,35.5,68c0.8,0,65,0,65,0c5.3,0,10.2,1.5,14.4,4.1C110,67.7,103.6,65,96.5,65       c0,0-64.2,0-65,0C16.3,65,4,77.3,4,92.5c0,9.9,5.2,18.6,13.1,23.4C11.5,110.9,8,103.6,8,95.5z" fill="#FFFFFF"/></g><g opacity="0.1"><path d="M50.9,104c-4.9,7.8-13.5,13-23.4,13c-5.3,0-10.2-1.5-14.4-4.1c4.9,4.4,11.3,7.1,18.4,7.1       c9.9,0,18.5-5.2,23.4-13h18.4c-0.8-0.9-1.5-1.9-2.2-3H50.9z" fill="#0C0F13"/></g></g><g><circle cx="96.5" cy="82.5" fill="#FFFFFF" r="3"/></g><g><circle cx="96.5" cy="102.5" fill="#FFFFFF" r="3"/></g><g><circle cx="106.5" cy="92.5" fill="#FFFFFF" r="3"/></g><g><circle cx="86.5" cy="92.5" fill="#FFFFFF" r="3"/></g><g><circle cx="31.5" cy="92.5" fill="#ADA2B5" r="17.5"/></g></g><g><g><path d="M96.5,121.5c-9.8,0-18.8-4.8-24.2-13H55.7c-5.4,8.2-14.4,13-24.2,13c-16,0-29-13-29-29s13-29,29-29h65      c16,0,29,13,29,29S112.5,121.5,96.5,121.5z M54.9,105.5h18.3c0.5,0,1,0.3,1.3,0.7c4.8,7.7,13,12.3,22.1,12.3      c14.3,0,26-11.7,26-26s-11.7-26-26-26h-65c-14.3,0-26,11.7-26,26s11.7,26,26,26c9,0,17.3-4.6,22.1-12.3      C53.9,105.8,54.3,105.5,54.9,105.5z" fill="#62355C"/></g><g><path d="M76.5,76.5h-25c-0.8,0-1.5-0.7-1.5-1.5s0.7-1.5,1.5-1.5h25c0.8,0,1.5,0.7,1.5,1.5S77.3,76.5,76.5,76.5z" fill="#62355C"/></g><g><path d="M31.5,101.5c-0.8,0-1.5-0.7-1.5-1.5V85c0-0.8,0.7-1.5,1.5-1.5S33,84.2,33,85v15      C33,100.8,32.3,101.5,31.5,101.5z" fill="#62355C"/></g><g><path d="M66,101.5c-0.3,0-0.5-0.1-0.7-0.2c-0.7-0.4-1-1.3-0.5-2l3.5-6.1c0.4-0.7,1.3-1,2-0.5      c0.7,0.4,1,1.3,0.5,2l-3.5,6.1C67,101.2,66.5,101.5,66,101.5z" fill="#62355C"/></g><g><path d="M60,101.5c-0.3,0-0.5-0.1-0.7-0.2c-0.7-0.4-1-1.3-0.5-2l3.5-6.1c0.4-0.7,1.3-1,2-0.5      c0.7,0.4,1,1.3,0.5,2l-3.5,6.1C61,101.2,60.5,101.5,60,101.5z" fill="#62355C"/></g><g><path d="M39,94H24c-0.8,0-1.5-0.7-1.5-1.5S23.2,91,24,91h15c0.8,0,1.5,0.7,1.5,1.5S39.8,94,39,94z" fill="#62355C"/></g><g><path d="M96.5,87C94,87,92,85,92,82.5s2-4.5,4.5-4.5s4.5,2,4.5,4.5S99,87,96.5,87z M96.5,81      c-0.8,0-1.5,0.7-1.5,1.5s0.7,1.5,1.5,1.5s1.5-0.7,1.5-1.5S97.3,81,96.5,81z" fill="#62355C"/></g><g><path d="M96.5,107c-2.5,0-4.5-2-4.5-4.5s2-4.5,4.5-4.5s4.5,2,4.5,4.5S99,107,96.5,107z M96.5,101      c-0.8,0-1.5,0.7-1.5,1.5s0.7,1.5,1.5,1.5s1.5-0.7,1.5-1.5S97.3,101,96.5,101z" fill="#62355C"/></g><g><path d="M106.5,97c-2.5,0-4.5-2-4.5-4.5s2-4.5,4.5-4.5s4.5,2,4.5,4.5S109,97,106.5,97z M106.5,91      c-0.8,0-1.5,0.7-1.5,1.5s0.7,1.5,1.5,1.5s1.5-0.7,1.5-1.5S107.3,91,106.5,91z" fill="#62355C"/></g><g><path d="M86.5,97C84,97,82,95,82,92.5s2-4.5,4.5-4.5s4.5,2,4.5,4.5S89,97,86.5,97z M86.5,91      c-0.8,0-1.5,0.7-1.5,1.5s0.7,1.5,1.5,1.5s1.5-0.7,1.5-1.5S87.3,91,86.5,91z" fill="#62355C"/></g><g><path d="M31.5,111.5c-10.5,0-19-8.5-19-19s8.5-19,19-19s19,8.5,19,19S42,111.5,31.5,111.5z M31.5,76.5      c-8.8,0-16,7.2-16,16s7.2,16,16,16s16-7.2,16-16S40.3,76.5,31.5,76.5z" fill="#62355C"/></g></g></g></g></svg>