<?xml version="1.0" ?><!DOCTYPE svg  PUBLIC '-//W3C//DTD SVG 1.1//EN'  'http://www.w3.org/Graphics/SVG/1.1/DTD/svg11.dtd'><svg enable-background="new 0 0 128 128" id="Слой_1" version="1.1" viewBox="0 0 128 128" xml:space="preserve" xmlns="http://www.w3.org/2000/svg" xmlns:xlink="http://www.w3.org/1999/xlink"><rect fill="#E3D34C" height="63.7" width="88.7" x="9.8" y="60.3"/><g><rect fill="#FFFFFF" height="63.7" width="7" x="9.8" y="60.3"/></g><path d="M20.9,124V82.7c0-2.8,2.2-5,5-5h14.4c2.8,0,5,2.2,5,5V124" fill="#95D6DD"/><path d="M62.8,106.6h18.9c2.8,0,5-2.2,5-5V82.7c0-2.8-2.2-5-5-5H62.8c-2.8,0-5,2.2-5,5v18.9  C57.8,104.4,60.1,106.6,62.8,106.6z" fill="#95D6DD"/><path d="M70.9,31.4v-5c0-2.8,2.2-5,5-5h2.7c2.8,0,5,2.2,5,5v5" fill="#A5A4AA"/><path d="M102.7,60.3H117c3.4,0,5.8-3.4,4.7-6.6l-6.5-19c-0.7-2-2.6-3.4-4.7-3.4l-94.9,0c-2.1,0-4,1.4-4.7,3.4  L4.3,53.7c-1.1,3.2,1.3,6.6,4.7,6.6H102.7z" fill="#C98F82"/><g><path d="M15.6,31.4c-2.1,0-4,1.4-4.7,3.4L4.3,53.7c-1.1,3.2,1.3,6.6,4.7,6.6h7c-3.4,0-5.8-3.4-4.7-6.6l6.5-18.9   c0.7-2,2.6-3.4,4.7-3.4l87.9,0c0,0,0,0,0,0L15.6,31.4z" fill="#FFFFFF"/></g><path d="M62.8,108.1h18.9c3.6,0,6.5-2.9,6.5-6.5V82.7c0-3.6-2.9-6.5-6.5-6.5H62.8c-3.6,0-6.5,2.9-6.5,6.5v18.9  C56.3,105.2,59.3,108.1,62.8,108.1z M59.3,82.7c0-1.9,1.6-3.5,3.5-3.5h18.9c1.9,0,3.5,1.6,3.5,3.5v18.9c0,1.9-1.6,3.5-3.5,3.5H62.8  c-1.9,0-3.5-1.6-3.5-3.5V82.7z" fill="#62355C"/><path d="M119,105.1h-19V61.8h17c2.1,0,4.1-1,5.3-2.7c1.2-1.7,1.5-3.9,0.9-5.9l-6.5-19c-0.9-2.6-3.4-4.4-6.1-4.4  l-25.3,0v-3.5c0-3.6-2.9-6.5-6.5-6.5h-2.7c-3.6,0-6.5,2.9-6.5,6.5v3.5l-53.9,0c-2.8,0-5.2,1.8-6.1,4.4L2.9,53.2  c-0.7,2-0.4,4.2,0.8,5.9c1.1,1.5,2.7,2.5,4.6,2.7v60.7H4c-0.8,0-1.5,0.7-1.5,1.5s0.7,1.5,1.5,1.5l16.9,0c0,0,0,0,0,0s0,0,0,0l24.4,0  c0,0,0,0,0,0c0,0,0,0,0,0l73.7,0c3.6,0,6.5-2.9,6.5-6.5v-7.4C125.5,108,122.6,105.1,119,105.1z M114.5,108.1v14.4l-5,0v-14.4H114.5z   M106.5,108.1v14.4H100v-14.4H106.5z M72.4,26.4c0-1.9,1.6-3.5,3.5-3.5h2.7c1.9,0,3.5,1.6,3.5,3.5v3.5l-9.7,0V26.4z M6.2,57.4  c-0.7-0.9-0.8-2.1-0.5-3.2l6.5-18.9c0.5-1.4,1.8-2.4,3.3-2.4l94.9,0c1.5,0,2.8,0.9,3.3,2.4l6.5,19c0.4,1.1,0.2,2.2-0.5,3.2  c-0.7,0.9-1.7,1.5-2.9,1.5H9C7.9,58.8,6.8,58.3,6.2,57.4z M11.3,61.8H97v60.7l-50.2,0V82.7c0-3.6-2.9-6.5-6.5-6.5H25.9  c-3.6,0-6.5,2.9-6.5,6.5v39.8l-8.2,0V61.8z M43.8,122.5l-21.4,0V82.7c0-1.9,1.6-3.5,3.5-3.5h14.4c1.9,0,3.5,1.6,3.5,3.5V122.5z   M122.5,119c0,1.9-1.6,3.5-3.5,3.5h-1.5v-14.4h1.5c1.9,0,3.5,1.6,3.5,3.5V119z" fill="#62355C"/><line fill="none" stroke="#62355C" stroke-linecap="round" stroke-miterlimit="10" stroke-width="2.8" x1="20.9" x2="86.8" y1="53.3" y2="53.3"/></svg>