<?xml version="1.0" ?><!DOCTYPE svg  PUBLIC '-//W3C//DTD SVG 1.1//EN'  'http://www.w3.org/Graphics/SVG/1.1/DTD/svg11.dtd'><svg enable-background="new 0 0 128 128" id="Слой_1" version="1.1" viewBox="0 0 128 128" xml:space="preserve" xmlns="http://www.w3.org/2000/svg" xmlns:xlink="http://www.w3.org/1999/xlink"><path d="M74,94H24c-5.5,0-10-4.5-10-10V54c0-5.5,4.5-10,10-10h50c5.5,0,10,4.5,10,10v30C84,89.5,79.5,94,74,94z" fill="#A5A4AA"/><g><path d="M21,84V54c0-5.5,4.5-10,10-10h-7c-5.5,0-10,4.5-10,10v30c0,5.5,4.5,10,10,10h7C25.5,94,21,89.5,21,84z" fill="#FFFFFF"/></g><path d="M91,58.1v21.7c0,2.7,1.1,5.2,2.9,7.1l3.7,3.7c1.3,1.3,3.4,0.4,3.4-1.4V48.8c0-1.8-2.2-2.7-3.4-1.4l-3.7,3.7  C92.1,52.9,91,55.5,91,58.1z" fill="#DEDFE6"/><circle cx="26.5" cy="31.5" fill="#E3D34C" r="12.5"/><g><path d="M19,31.5c0-6,4.3-11.1,10-12.2c-0.8-0.2-1.6-0.3-2.5-0.3C19.6,19,14,24.6,14,31.5S19.6,44,26.5,44   c0.9,0,1.7-0.1,2.5-0.3C23.3,42.6,19,37.5,19,31.5z" fill="#FFFFFF"/></g><g><path d="M26.5,35.5c-2.2,0-4-1.8-4-4s1.8-4,4-4s4,1.8,4,4S28.7,35.5,26.5,35.5z M26.5,30.5c-0.6,0-1,0.4-1,1   s0.4,1,1,1s1-0.4,1-1S27.1,30.5,26.5,30.5z" fill="#62355C"/></g><circle cx="59" cy="24" fill="#F37865" r="20"/><g><path d="M45,24c0-10,7.4-18.3,17-19.8C61,4.1,60,4,59,4c-11,0-20,9-20,20c0,11,9,20,20,20c1,0,2-0.1,3-0.2   C52.4,42.3,45,34,45,24z" fill="#FFFFFF"/></g><circle cx="59" cy="24" fill="#FFFFFF" r="5"/><path d="M96.5,46.4L92.9,50c-2.2,2.2-3.4,5.1-3.4,8.1v21.7c0,3.1,1.2,6,3.4,8.1l3.7,3.7c0.7,0.7,1.5,1,2.5,1  c0.9,0,1.8-0.3,2.4-1c0.7-0.7,1.1-1.6,1.1-2.5V48.8c0-1.9-1.6-3.5-3.5-3.5C98.1,45.3,97.2,45.7,96.5,46.4z M99.5,48.8v40.3  c0,0.1,0,0.3-0.1,0.4c-0.1,0.1-0.2,0.1-0.4,0.1c-0.1,0-0.2,0-0.3-0.2L95,85.9c-1.6-1.6-2.5-3.7-2.5-6V58.1c0-2.3,0.9-4.4,2.5-6  l3.7-3.7c0.1-0.1,0.2-0.2,0.3-0.2C99.1,48.3,99.5,48.4,99.5,48.8z" fill="#62355C"/><path d="M59,30.5c3.6,0,6.5-2.9,6.5-6.5s-2.9-6.5-6.5-6.5s-6.5,2.9-6.5,6.5S55.4,30.5,59,30.5z M59,20.5  c1.9,0,3.5,1.6,3.5,3.5s-1.6,3.5-3.5,3.5s-3.5-1.6-3.5-3.5S57.1,20.5,59,20.5z" fill="#62355C"/><path d="M41.5,125.5c0.8,0,1.5-0.7,1.5-1.5V95.5h31c6.3,0,11.5-5.2,11.5-11.5V54c0-6.3-5.2-11.5-11.5-11.5h-4.1  c6.3-3.7,10.6-10.6,10.6-18.5c0-11.9-9.6-21.5-21.5-21.5c-11.5,0-20.9,9.1-21.4,20.4c-2.6-3.3-6.6-5.4-11.1-5.4c-7.7,0-14,6.3-14,14  c0,5.1,2.7,9.6,6.8,12c-4,1.8-6.8,5.8-6.8,10.5v30c0,6.3,5.2,11.5,11.5,11.5h6V114c0,0.8,0.7,1.5,1.5,1.5s1.5-0.7,1.5-1.5V95.5h7  V124C40,124.8,40.7,125.5,41.5,125.5z M59,5.5c10.2,0,18.5,8.3,18.5,18.5S69.2,42.5,59,42.5S40.5,34.2,40.5,24S48.8,5.5,59,5.5z   M48.1,42.5h-13c2.5-2,4.4-4.8,5.1-8.1C42.1,37.8,44.8,40.5,48.1,42.5z M15.5,31.5c0-6.1,4.9-11,11-11s11,4.9,11,11s-4.9,11-11,11  S15.5,37.6,15.5,31.5z M15.5,84V54c0-4.7,3.8-8.5,8.5-8.5h50c4.7,0,8.5,3.8,8.5,8.5v30c0,4.7-3.8,8.5-8.5,8.5H24  C19.3,92.5,15.5,88.7,15.5,84z" fill="#62355C"/></svg>