<?xml version="1.0" ?><!DOCTYPE svg  PUBLIC '-//W3C//DTD SVG 1.1//EN'  'http://www.w3.org/Graphics/SVG/1.1/DTD/svg11.dtd'><svg enable-background="new 0 0 128 128" id="Слой_1" version="1.1" viewBox="0 0 128 128" xml:space="preserve" xmlns="http://www.w3.org/2000/svg" xmlns:xlink="http://www.w3.org/1999/xlink"><g><g><path d="M61.8,34.2L94,66.4c0.8,0.8,2.2,0.9,3,0.1c3.6-3.3,13.3-12.2,27-24.6c-4.2-7.8-9.6-15.1-16.1-21.6    C101.3,13.7,94,8.3,86.3,4.2c-12.5,13.7-21.4,23.4-24.6,27C60.8,32,60.9,33.3,61.8,34.2z" fill="#72B6D3"/></g><g><path d="M95.6,68.1L95.6,68.1c-0.9,0-1.7-0.3-2.3-1L61.1,34.9c-1.3-1.2-1.3-3.2-0.2-4.4c3.3-3.6,12.2-13.3,24.6-27    c0.3-0.3,0.8-0.4,1.2-0.2c8,4.3,15.4,9.8,21.8,16.3c6.5,6.5,12,13.8,16.3,21.9c0.2,0.4,0.1,0.9-0.2,1.2    C111,55.1,101.3,64,97.7,67.3C97.1,67.8,96.4,68.1,95.6,68.1z M86.5,5.4C74.3,18.8,65.6,28.3,62.4,31.8C62,32.3,62,33,62.5,33.5    l32.2,32.2c0.3,0.3,0.6,0.4,0.9,0.4h0c0.3,0,0.5-0.1,0.8-0.3c3.5-3.2,13-11.9,26.4-24.1c-4.2-7.6-9.4-14.6-15.6-20.7    C101,14.8,94.1,9.6,86.5,5.4z" fill="#62355C"/></g><g><path d="M90.8,63.3L64.9,37.3L29.1,65.2c-3.2,2.5-5.7,5.8-7.1,9.6l-17.9,46c-0.3,0.7-0.2,1.9,0.4,2.4l32.6-32.3    c-2-2.6-2.5-6.9-0.1-9.3c2.6-2.6,6.9-2.6,9.5,0c2.6,2.6,2.6,6.9,0,9.5c-2.4,2.4-6.8,1.8-9.5-0.2L4.5,123.2c0.6,0.6,2,0.7,2.5,0.5    l45.5-17c3.9-1.4,7.3-3.9,9.8-7.2L90.8,63.3z" fill="#F1ED7B"/></g><g opacity="0.1"><polygon fill="#0E1115" points="64.9,37.3 56,44.3 83.9,72.1 90.8,63.3   "/></g><g><path d="M6.3,124.8L6.3,124.8c-0.5,0-1.8-0.1-2.5-0.9c-1-0.9-0.9-2.6-0.6-3.5l17.9-46c1.5-3.9,4.1-7.4,7.4-10    l35.8-27.9c0.4-0.3,1-0.3,1.3,0.1l25.9,25.9c0.4,0.4,0.4,0.9,0.1,1.3l-28.4,36.3c-2.7,3.4-6.2,6-10.3,7.5l-45.5,17    C7,124.8,6.6,124.8,6.3,124.8z M37.2,92.2L6.3,122.8c0.2,0,0.3,0,0.4,0l45.5-17c3.7-1.4,6.9-3.8,9.4-6.9l27.9-35.6L64.8,38.7    L29.8,66c-3.1,2.4-5.4,5.5-6.8,9.2l-17.9,46c0,0,0,0.1,0,0.1l30.7-30.5c-1.8-2.9-2.1-7.3,0.5-9.9c1.5-1.5,3.4-2.3,5.5-2.3    c2.1,0,4,0.8,5.5,2.3s2.3,3.4,2.3,5.5c0,2.1-0.8,4-2.3,5.5c-1.2,1.2-2.9,1.9-4.9,1.9C40.6,93.7,38.7,93.2,37.2,92.2z M37.8,90.2    c1.3,0.9,3,1.5,4.6,1.5c1,0,2.4-0.2,3.5-1.3c1.1-1.1,1.7-2.5,1.7-4.1c0-1.5-0.6-3-1.7-4.1c-1.1-1.1-2.5-1.7-4.1-1.7    c-1.5,0-3,0.6-4.1,1.7C35.7,84.3,36.1,88,37.8,90.2z" fill="#62355C"/></g></g></svg>