<?xml version="1.0" ?><!DOCTYPE svg  PUBLIC '-//W3C//DTD SVG 1.1//EN'  'http://www.w3.org/Graphics/SVG/1.1/DTD/svg11.dtd'><svg enable-background="new 0 0 128 128" id="Слой_1" version="1.1" viewBox="0 0 128 128" xml:space="preserve" xmlns="http://www.w3.org/2000/svg" xmlns:xlink="http://www.w3.org/1999/xlink"><g><g><path d="M121.8,41.6c3.9-3.9,2.1-12-1.8-15.9l0,0L102.3,8l0,0c-3.9-3.9-12-5.7-15.9-1.8l0,0L78,14.5L113.5,50    L121.8,41.6L121.8,41.6z" fill="#938993"/></g><g><polygon fill="#EC7BB0" points="56.4,107.1 20.9,71.6 71.8,20.8 94.4,35.1 107.2,56.2   "/></g><g><path d="M20.9,71.6l0.1-0.1c5.5-2.2,11,3.3,8.8,8.8l-0.1,0.1h0c10.1-0.8,18.6,7.6,17.7,17.7v0l0.3-0.1    c5.6-2.1,10.9,3.5,8.6,9l0,0L5.9,123.9c-1.2,0.4-2.3-0.7-1.9-1.9L20.9,71.6z" fill="#EFD1AF"/></g><g><rect fill="#FFFEFE" height="8.9" transform="matrix(0.7071 0.7071 -0.7071 0.7071 52.1436 -55.1314)" width="50.2" x="67.5" y="31"/></g><g opacity="0.2"><path d="M4.8,123.8c-0.3-0.1-0.5-0.4-0.7-0.7l25.6-42.7l64-64l0.1-0.2c1.6-5.4-3.4-10.4-8.8-8.8l-0.2,0.1l-9,9    l-1,1l-54,54L4.1,122.1C3.7,123.2,4.8,123.8,4.8,123.8z" fill="#FDFDFC"/></g><path d="M111.9,34.1l-0.3,0.1l-64,64L4.8,123.8c0.3,0.2,0.7,0.2,1.1,0.1l9.7-3.2l40.7-13.6L113.5,50   l2.1-2.1l4.8-4.8C122.2,37.7,117.3,32.6,111.9,34.1z" fill="#593055" opacity="0.2"/><g><path d="M113.5,51c-0.3,0-0.5-0.1-0.7-0.3L77.3,15.2C77.1,15,77,14.8,77,14.5s0.1-0.5,0.3-0.7l8.3-8.3    C87.3,3.8,89.6,3,92.3,3c3.9,0,8.1,1.7,10.7,4.3L120.7,25c2.1,2.1,3.6,5.3,4.1,8.5c0.6,3.7-0.3,6.8-2.3,8.8l-8.3,8.3    C114,50.9,113.7,51,113.5,51z M79.4,14.5l34.1,34.1l7.6-7.6c1.5-1.5,2.2-4.1,1.7-7.1c-0.4-2.8-1.8-5.6-3.5-7.4L101.6,8.7    C99.4,6.5,95.6,5,92.3,5c-1.5,0-3.7,0.3-5.2,1.9L79.4,14.5z" fill="#62355C"/></g><g><path d="M20.9,72.6c-0.3,0-0.5-0.1-0.7-0.3c-0.4-0.4-0.4-1,0-1.4L71,20.1c0.4-0.4,1-0.4,1.4,0s0.4,1,0,1.4    L21.6,72.3C21.4,72.5,21.1,72.6,20.9,72.6z" fill="#62355C"/></g><g><path d="M56.4,108.1c-0.3,0-0.5-0.1-0.7-0.3c-0.4-0.4-0.4-1,0-1.4l50.9-50.9c0.4-0.4,1-0.4,1.4,0s0.4,1,0,1.4    l-50.9,50.9C56.9,108,56.6,108.1,56.4,108.1z" fill="#62355C"/></g><g><path d="M113.5,51c-0.3,0-0.5-0.1-0.7-0.3c-0.4-0.4-0.4-1,0-1.4l6.7-6.7c0.6-2.1,0.1-4.2-1.4-5.8    c-1.6-1.6-3.8-2.3-6-1.6l-0.3,0.1c-0.3,0.1-0.6,0-0.9-0.2c-0.2-0.2-0.4-0.5-0.4-0.8c-0.3-9.1-7.6-16.5-16.8-16.8    c-0.3,0-0.6-0.2-0.8-0.4s-0.2-0.6-0.1-0.9l0.1-0.2c0.7-2.2,0.1-4.4-1.5-6c-1.6-1.6-3.8-2.1-5.9-1.5l-6.7,6.7c-0.4,0.4-1,0.4-1.4,0    s-0.4-1,0-1.4l6.9-6.9c0.1-0.1,0.3-0.2,0.4-0.2l0.2-0.1c2.9-0.9,5.9-0.1,8,2c1.9,1.9,2.7,4.4,2.2,7c9.2,0.9,16.5,8.2,17.4,17.4    c2.6-0.4,5.2,0.4,7.1,2.4c2.1,2.2,2.8,5.2,1.8,8.1c0,0.1-0.1,0.3-0.2,0.4l-6.9,6.9C114,50.9,113.7,51,113.5,51z" fill="#62355C"/></g><g><path d="M107.2,57.2c-0.3,0-0.5-0.1-0.7-0.3L71,21.5c-0.4-0.4-0.4-1,0-1.4l6.3-6.3c0.4-0.4,1-0.4,1.4,0l35.5,35.5    c0.4,0.4,0.4,1,0,1.4l-6.3,6.3C107.7,57.1,107.5,57.2,107.2,57.2z M73.2,20.8l34.1,34.1l4.8-4.8L78,15.9L73.2,20.8z" fill="#62355C"/></g><g><path d="M5.5,125c-0.8,0-1.5-0.4-2-1c-0.5-0.7-0.6-1.5-0.3-2.2l16.8-50.4c0.1-0.3,0.3-0.5,0.6-0.6l0.1-0.1    c1-0.4,1.9-0.6,2.9-0.6c2.6,0,5,1.3,6.4,3.5c1.2,1.8,1.6,3.9,1.1,5.9c4.8,0,9.5,2.1,12.8,5.6c3,3.3,4.6,7.4,4.6,11.8    c3.1-0.7,6.3,0.7,8.1,3.3c1.4,2.2,1.7,4.9,0.6,7.3c-0.1,0.3-0.3,0.5-0.6,0.6L6.3,124.9C6,125,5.7,125,5.5,125z M21.7,72.4L5,122.4    c-0.1,0.2,0,0.3,0.1,0.4c0.1,0.2,0.3,0.2,0.5,0.2l50-16.7c0.6-1.7,0.4-3.5-0.6-5c-1.5-2.2-4.3-3.2-6.9-2.2l-0.3,0.1    c-0.3,0.1-0.7,0.1-1-0.1c-0.3-0.2-0.4-0.5-0.4-0.9c0.4-4.4-1.1-8.5-4-11.7c-3.2-3.5-7.8-5.3-12.6-4.9c-0.3,0-0.7-0.1-0.9-0.4    c-0.2-0.3-0.3-0.6-0.1-1l0.1-0.1c0.7-1.8,0.5-3.8-0.5-5.3C26.9,72.5,24.2,71.5,21.7,72.4z" fill="#62355C"/></g><g><path d="M7.3,112.3l-3.2,9.7c-0.4,1.2,0.7,2.3,1.9,1.9l9.7-3.2L7.3,112.3z" fill="#62355C"/></g></g></svg>