<?xml version="1.0" ?><!DOCTYPE svg  PUBLIC '-//W3C//DTD SVG 1.1//EN'  'http://www.w3.org/Graphics/SVG/1.1/DTD/svg11.dtd'><svg enable-background="new 0 0 128 128" id="Слой_1" version="1.1" viewBox="0 0 128 128" xml:space="preserve" xmlns="http://www.w3.org/2000/svg" xmlns:xlink="http://www.w3.org/1999/xlink"><g><path d="M112.5,106.5h-82V36.8h67c13.8,0,25,11.2,25,25v34.7C122.5,102,118,106.5,112.5,106.5z" fill="#D8675B"/><path d="M97.5,36.8h-67v7h67c13.8,0,25,11.2,25,25v-7C122.5,48,111.3,36.8,97.5,36.8z" fill="#FFFFFF"/><path d="M45.5,106.5h-30c-5.5,0-10-4.5-10-10v-35c0-13.8,11.2-25,25-25h0c13.8,0,25,11.2,25,25v35   C55.5,102,51,106.5,45.5,106.5z" fill="#F37865"/><g><path d="M5.5,61.5v35c0,5.5,4.5,10,10,10h8c-5.5,0-10-4.5-10-10v-35c0-12.4,9.1-22.8,21-24.7    c-1.3-0.2-2.6-0.3-4-0.3C16.7,36.5,5.5,47.7,5.5,61.5z" fill="#FFFFFF"/></g><polygon fill="#F0EF98" points="73,71.5 73,21.5 98.2,21.5 98.2,36.5 81.2,36.5 81.2,71.5  "/><path d="M15.5,108h30c6.3,0,11.5-5.2,11.5-11.5v-35c0-10.2-5.8-19.1-14.3-23.5h23.4c0.8,0,1.5-0.7,1.5-1.5   S67,35,66.2,35H30.5C15.9,35,4,46.9,4,61.5v35C4,102.8,9.2,108,15.5,108z M7,61.5C7,48.5,17.5,38,30.5,38S54,48.5,54,61.5v35   c0,4.7-3.8,8.5-8.5,8.5h-30c-4.7,0-8.5-3.8-8.5-8.5V61.5z" fill="#62355C"/><path d="M15.5,63h30c0.8,0,1.5-0.7,1.5-1.5S46.3,60,45.5,60h-30c-0.8,0-1.5,0.7-1.5,1.5S14.7,63,15.5,63z" fill="#62355C"/><path d="M99.7,21.5c0-0.8-0.7-1.5-1.5-1.5H73c-0.8,0-1.5,0.7-1.5,1.5v45.9c0,3.1,2.5,5.6,5.6,5.6s5.6-2.5,5.6-5.6   V38h14.8c13,0,23.5,10.5,23.5,23.5v35c0,4.7-3.8,8.5-8.5,8.5h-52c-0.8,0-1.5,0.7-1.5,1.5s0.7,1.5,1.5,1.5h52   c6.3,0,11.5-5.2,11.5-11.5v-35c0-13.9-10.7-25.3-24.3-26.4V21.5z M81.2,35c-0.8,0-1.5,0.7-1.5,1.5v30.9c0,1.4-1.2,2.6-2.6,2.6   s-2.6-1.2-2.6-2.6V23h22.2v12H81.2z" fill="#62355C"/></g></svg>