<?xml version="1.0" ?><!DOCTYPE svg  PUBLIC '-//W3C//DTD SVG 1.1//EN'  'http://www.w3.org/Graphics/SVG/1.1/DTD/svg11.dtd'><svg enable-background="new 0 0 128 128" id="Слой_1" version="1.1" viewBox="0 0 128 128" xml:space="preserve" xmlns="http://www.w3.org/2000/svg" xmlns:xlink="http://www.w3.org/1999/xlink"><g><g><g><path d="M103.4,124H24.6c-8.8,0-16-7.2-16-16V47.7c0-8.8,7.2-16,16-16h78.8c8.8,0,16,7.2,16,16V108     C119.4,116.8,112.2,124,103.4,124z" fill="#F7F7F7"/></g></g><g><g><path d="M103.4,125.2H24.6c-9.5,0-17.2-7.7-17.2-17.2V47.7c0-9.5,7.7-17.2,17.2-17.2h78.8     c9.5,0,17.2,7.7,17.2,17.2V108C120.6,117.5,112.9,125.2,103.4,125.2z M24.6,32.9c-8.1,0-14.8,6.6-14.8,14.8V108     c0,8.1,6.6,14.8,14.8,14.8h78.8c8.1,0,14.8-6.6,14.8-14.8V47.7c0-8.1-6.6-14.8-14.8-14.8H24.6z" fill="#62355C"/></g></g><path d="M103.4,31.7H24.6c-8.8,0-16,7.2-16,16v32h110.8v-32C119.4,38.9,112.2,31.7,103.4,31.7z" fill="#593055" opacity="0.2"/><g><path d="M119.4,68.6H8.6c-2,0-3.7-1.7-3.7-3.7V47.7c0-8.8,7.2-16,16-16h86.2c8.8,0,16,7.2,16,16v17.2    C123.1,67,121.4,68.6,119.4,68.6z" fill="#F7F7F7"/></g><g><path d="M119.4,69.9H8.6c-2.7,0-4.9-2.2-4.9-4.9V47.7c0-9.5,7.7-17.2,17.2-17.2h86.2c9.5,0,17.2,7.7,17.2,17.2    v17.2C124.3,67.6,122.1,69.9,119.4,69.9z M20.9,32.9c-8.1,0-14.8,6.6-14.8,14.8v17.2c0,1.3,1.1,2.4,2.4,2.4h110.8    c1.3,0,2.4-1.1,2.4-2.4V47.7c0-8.1-6.6-14.8-14.8-14.8H20.9z" fill="#62355C"/></g><g><rect fill="#EC7BB0" height="92.3" width="27.7" x="50.2" y="31.7"/></g><g><path d="M77.8,125.2H50.2c-0.7,0-1.2-0.6-1.2-1.2V31.7c0-0.7,0.6-1.2,1.2-1.2h27.7c0.7,0,1.2,0.6,1.2,1.2V124    C79.1,124.7,78.5,125.2,77.8,125.2z M51.4,122.8h25.2V32.9H51.4V122.8z" fill="#62355C"/></g><g><g><path d="M88,4H77.8C70.2,4,64,10.2,64,17.8v13.8h13.8c7.6,0,13.8-6.2,13.8-13.8V7.7C91.7,5.7,90,4,88,4z" fill="#EC7BB0"/></g><path d="M69.5,26.2V12.3c0-2.4,0.6-4.7,1.7-6.6C66.9,8,64,12.6,64,17.8v13.8h13.8    c5.2,0,9.8-2.9,12.2-7.2c-2,1.1-4.2,1.7-6.6,1.7H69.5z" fill="#593055" opacity="0.2"/><g><path d="M40,4h10.2C57.8,4,64,10.2,64,17.8v13.8H50.2c-7.6,0-13.8-6.2-13.8-13.8V7.7C36.3,5.7,38,4,40,4z" fill="#EC7BB0"/></g><path d="M56.8,5.7c1.1,2,1.7,4.2,1.7,6.6v13.8H44.6c-2.4,0-4.7-0.6-6.6-1.7    c2.3,4.3,6.9,7.2,12.2,7.2H64V17.8C64,12.6,61.1,8,56.8,5.7z" fill="#593055" opacity="0.2"/><g><path d="M77.8,32.9H64c-0.7,0-1.2-0.6-1.2-1.2V17.8c0-8.3,6.8-15.1,15.1-15.1H88c2.7,0,4.9,2.2,4.9,4.9v10.2     C92.9,26.2,86.2,32.9,77.8,32.9z M65.2,30.4h12.6c6.9,0,12.6-5.7,12.6-12.6V7.7c0-1.3-1.1-2.4-2.4-2.4H77.8     c-6.9,0-12.6,5.7-12.6,12.6V30.4z" fill="#62355C"/></g><g><path d="M64,32.9H50.2c-8.3,0-15.1-6.8-15.1-15.1V7.7c0-2.7,2.2-4.9,4.9-4.9h10.2c8.3,0,15.1,6.8,15.1,15.1v13.8     C65.2,32.4,64.7,32.9,64,32.9z M40,5.2c-1.3,0-2.4,1.1-2.4,2.4v10.2c0,6.9,5.7,12.6,12.6,12.6h12.6V17.8     c0-6.9-5.7-12.6-12.6-12.6H40z" fill="#62355C"/></g></g></g></svg>