<?xml version="1.0" ?><!DOCTYPE svg  PUBLIC '-//W3C//DTD SVG 1.1//EN'  'http://www.w3.org/Graphics/SVG/1.1/DTD/svg11.dtd'><svg enable-background="new 0 0 128 128" id="Слой_1" version="1.1" viewBox="0 0 128 128" xml:space="preserve" xmlns="http://www.w3.org/2000/svg" xmlns:xlink="http://www.w3.org/1999/xlink"><g><g><path d="M102.8,120.4L76.5,94.1l17.5-17.5l26.3,26.3c4.8,4.8,4.8,12.7,0,17.5l0,0    C115.5,125.2,107.7,125.2,102.8,120.4z" fill="#D6AB7F"/></g><g><polyline fill="#E5E5E5" points="76.5,94.1 88.2,105.8 105.8,88.2 94.1,76.5   "/></g><g><path d="M88.2,107c-0.3,0-0.6-0.1-0.9-0.4c-0.5-0.5-0.5-1.3,0-1.8l17.5-17.5c0.5-0.5,1.3-0.5,1.8,0    c0.5,0.5,0.5,1.3,0,1.8l-17.5,17.5C88.9,106.9,88.6,107,88.2,107z" fill="#62355C"/></g><g><path d="M111.6,125.2c-3.6,0-7.1-1.4-9.6-4L75.7,95c-0.2-0.2-0.4-0.6-0.4-0.9s0.1-0.6,0.4-0.9l17.5-17.5    c0.5-0.5,1.3-0.5,1.8,0l26.3,26.3c5.3,5.3,5.3,14,0,19.3C118.7,123.8,115.3,125.2,111.6,125.2z M78.3,94.1l25.4,25.4    c2.1,2.1,4.9,3.3,7.9,3.3s5.8-1.2,7.9-3.3c4.3-4.3,4.3-11.4,0-15.8L94.1,78.3L78.3,94.1z" fill="#62355C"/></g><path d="M120.4,102.8L99.9,82.4v0l-5.8-5.8l-5,5l0,0L76.5,94.1l5.8,5.8c3.5-2.2,6.8-4.8,9.8-7.8   c1.3-1.3,2.5-2.6,3.6-4l14.7,14.7c4.8,4.8,4.8,12.7,0,17.5v0c-1.1,1.1-2.4,2-3.8,2.6c4.5,2,10,1.1,13.7-2.6v0   C125.2,115.5,125.2,107.7,120.4,102.8z" fill="#593055" opacity="0.2"/><g><circle cx="53.6" cy="53.6" fill="#E5E5E5" r="49.6"/></g><g><path d="M53.6,104.4c-13.6,0-26.3-5.3-35.9-14.9C8,79.9,2.8,67.2,2.8,53.6C2.8,40,8,27.2,17.6,17.6    C27.2,8,40,2.8,53.6,2.8c13.6,0,26.3,5.3,35.9,14.9c9.6,9.6,14.9,22.4,14.9,35.9c0,13.6-5.3,26.3-14.9,35.9    C79.9,99.1,67.2,104.4,53.6,104.4z M53.6,5.2c-12.9,0-25,5-34.2,14.2S5.3,40.7,5.3,53.6c0,12.9,5,25,14.2,34.2    s21.3,14.2,34.2,14.2c12.9,0,25-5,34.2-14.2s14.2-21.3,14.2-34.2c0-12.9-5-25-14.2-34.2S66.5,5.2,53.6,5.2z" fill="#62355C"/></g><g><circle cx="53.6" cy="53.6" fill="#FFFFFF" r="41.3"/></g><g><line fill="#D6AB7F" x1="13.1" x2="30.6" y1="76.5" y2="94.1"/></g><g><circle cx="53.6" cy="53.6" fill="#72B6D3" r="28.9"/></g><g opacity="0.7"><circle cx="42" cy="42" fill="#FEFEFC" r="5.8"/></g><g><path d="M53.6,83.8c-8.1,0-15.6-3.1-21.3-8.8c-11.8-11.8-11.8-30.9,0-42.7c5.7-5.7,13.3-8.8,21.3-8.8    c8.1,0,15.6,3.1,21.3,8.8c11.8,11.8,11.8,30.9,0,42.7C69.2,80.6,61.6,83.8,53.6,83.8z M53.6,25.9c-7.4,0-14.3,2.9-19.6,8.1    c-10.8,10.8-10.8,28.3,0,39.1c5.2,5.2,12.2,8.1,19.6,8.1c7.4,0,14.3-2.9,19.6-8.1c10.8-10.8,10.8-28.3,0-39.1    C67.9,28.8,61,25.9,53.6,25.9z" fill="#62355C"/></g><g><g><path d="M46.1,46.1c2-2,2.2-5.2,0.5-7.5c6.1-2.8,13.6-1.7,18.6,3.3c6.5,6.5,6.5,16.9,0,23.4     c-6.5,6.5-16.9,6.5-23.4,0c-5-5-6.1-12.5-3.3-18.6C40.9,48.3,44.1,48.2,46.1,46.1z" fill="#938993"/></g></g><g><g><path d="M37.6,45.8c0.1,0.1,0.2,0.2,0.3,0.3c0.5,0.5,1.1,0.9,1.7,1.2c-0.9,2-1.4,4.1-1.4,6.3     c0,4.1,1.6,7.9,4.5,10.8c2.9,2.9,6.7,4.5,10.8,4.5c4.1,0,7.9-1.6,10.8-4.5c2.9-2.9,4.5-6.7,4.5-10.8s-1.6-7.9-4.5-10.8     c-2.9-2.9-6.7-4.5-10.8-4.5c-2.2,0-4.3,0.5-6.3,1.4c-0.3-0.6-0.7-1.2-1.2-1.7c-0.1-0.1-0.2-0.2-0.3-0.3c2.4-1.2,5.1-1.8,7.8-1.8     c4.7,0,9.2,1.8,12.6,5.2c3.4,3.4,5.2,7.8,5.2,12.6s-1.8,9.2-5.2,12.6c-3.4,3.4-7.8,5.2-12.6,5.2c-4.7,0-9.2-1.8-12.6-5.2     c-3.4-3.4-5.2-7.8-5.2-12.6C35.8,50.8,36.5,48.2,37.6,45.8z" fill="#343736"/></g></g><g opacity="0.5"><path d="M24.4,82.8c9.5-29.4,29-48.9,58.4-58.4c-16.1-16.1-42.3-16.1-58.4,0S8.2,66.7,24.4,82.8z" fill="#FEFEFC"/></g><g><path d="M53.6,96.2c-11.4,0-22.1-4.4-30.1-12.5c-16.6-16.6-16.6-43.6,0-60.2c8-8,18.7-12.5,30.1-12.5    c11.4,0,22.1,4.4,30.1,12.5c16.6,16.6,16.6,43.6,0,60.2C75.6,91.7,65,96.2,53.6,96.2z M53.6,13.5c-10.7,0-20.8,4.2-28.3,11.7    c-15.6,15.6-15.6,41,0,56.7c7.6,7.6,17.6,11.7,28.3,11.7c10.7,0,20.8-4.2,28.3-11.7c15.6-15.6,15.6-41,0-56.7    C74.4,17.7,64.3,13.5,53.6,13.5z" fill="#62355C"/></g></g></svg>