<?xml version="1.0" ?><!DOCTYPE svg  PUBLIC '-//W3C//DTD SVG 1.1//EN'  'http://www.w3.org/Graphics/SVG/1.1/DTD/svg11.dtd'><svg enable-background="new 0 0 128 128" id="Слой_1" version="1.1" viewBox="0 0 128 128" xml:space="preserve" xmlns="http://www.w3.org/2000/svg" xmlns:xlink="http://www.w3.org/1999/xlink"><path d="M71.3,105.9L40.9,40.3l27.2-12.7c5-2.3,11-0.2,13.3,4.8l25.4,54.4c2.3,5,0.2,11-4.8,13.3l-20.6,9.6" fill="#FFFFFF"/><path d="M71.3,105.9L40.9,40.3l27.2-12.7c5-2.3,11-0.2,13.3,4.8l25.4,54.4c2.3,5,0.2,11-4.8,13.3l-20.6,9.6" fill="#E3D34C"/><g><path d="M49.7,44.1c-1-2.1-0.1-4.6,2-5.6l23.4-10.9c0.2-0.1,0.5-0.2,0.7-0.3c-2.4-0.9-5.2-0.9-7.7,0.3L40.9,40.3   l30.4,65.6l10,3.8l3.1-1.5l-6.2-2.3L49.7,44.1z" fill="#FFFFFF"/></g><path d="M85.7,107.6c-2-4.3-6.3-7.4-11.4-7.4c-1.8,0-3.6,0.4-5.1,1.1l2.1,4.5l10,3.8L85.7,107.6z" opacity="0.1"/><circle cx="74.3" cy="112.8" fill="#42ACB7" r="7.5"/><path d="M23.4,2.6c-0.8,0.3-1.1,1.2-0.7,2l16.9,36.2c0,0,0,0,0,0l29.8,64.4c-2.4,1.6-4,4.4-4,7.5c0,5,4,9,9,9  s9-4,9-9c0-0.8-0.1-1.5-0.3-2.2l19.5-9.1c2.8-1.3,4.9-3.6,5.9-6.5c1.1-2.9,0.9-6-0.4-8.8L82.7,31.8c-2.7-5.7-9.5-8.2-15.3-5.6  l-25.8,12L25.4,3.4C25,2.6,24.1,2.3,23.4,2.6z M74.3,118.8c-3.3,0-6-2.7-6-6s2.7-6,6-6s6,2.7,6,6S77.6,118.8,74.3,118.8z M58.3,33.8  l24.7,53c0.3,0.5,0.8,0.9,1.4,0.9c0.2,0,0.4,0,0.6-0.1c0.8-0.3,1.1-1.2,0.7-2L61,32.5l7.7-3.6C73,27,78,28.8,80,33l25.4,54.4  c1,2.1,1.1,4.4,0.3,6.5c-0.8,2.1-2.3,3.8-4.4,4.8l-19.5,9.1c-1.6-2.4-4.4-4-7.5-4c-0.8,0-1.5,0.1-2.2,0.3L42.9,41L58.3,33.8z" fill="#62355C"/></svg>