<?xml version="1.0" encoding="UTF-8" standalone="no"?>
<svg
   xmlns:dc="http://purl.org/dc/elements/1.1/"
   xmlns:cc="http://creativecommons.org/ns#"
   xmlns:rdf="http://www.w3.org/1999/02/22-rdf-syntax-ns#"
   xmlns:svg="http://www.w3.org/2000/svg"
   xmlns="http://www.w3.org/2000/svg"
   xmlns:sodipodi="http://sodipodi.sourceforge.net/DTD/sodipodi-0.dtd"
   xmlns:inkscape="http://www.inkscape.org/namespaces/inkscape"
   height="2500"
   width="2500"
   viewBox="12 0.18999999999999906 487.619 510.941"
   version="1.1"
   id="svg105"
   sodipodi:docname="notion-logo-1.svg"
   inkscape:version="1.0.1 (3bc2e813f5, 2020-09-07)">
  <metadata
     id="metadata111">
    <rdf:RDF>
      <cc:Work
         rdf:about="">
        <dc:format>image/svg+xml</dc:format>
        <dc:type
           rdf:resource="http://purl.org/dc/dcmitype/StillImage" />
      </cc:Work>
    </rdf:RDF>
  </metadata>
  <defs
     id="defs109" />
  <sodipodi:namedview
     pagecolor="#ffffff"
     bordercolor="#666666"
     borderopacity="1"
     objecttolerance="10"
     gridtolerance="10"
     guidetolerance="10"
     inkscape:pageopacity="0"
     inkscape:pageshadow="2"
     inkscape:window-width="1920"
     inkscape:window-height="1027"
     id="namedview107"
     showgrid="false"
     inkscape:zoom="0.344"
     inkscape:cx="1250"
     inkscape:cy="1250"
     inkscape:window-x="-8"
     inkscape:window-y="-8"
     inkscape:window-maximized="1"
     inkscape:current-layer="svg105" />
  <path
     d="M96.085 91.118c15.81 12.845 21.741 11.865 51.43 9.884l279.888-16.806c5.936 0 1-5.922-.98-6.906L379.94 43.686c-8.907-6.915-20.773-14.834-43.516-12.853L65.408 50.6c-9.884.98-11.858 5.922-7.922 9.883zm16.804 65.228v294.491c0 15.827 7.909 21.748 25.71 20.769l307.597-17.799c17.81-.979 19.794-11.865 19.794-24.722V136.57c0-12.836-4.938-19.758-15.84-18.77l-321.442 18.77c-11.863.997-15.82 6.931-15.82 19.776zm303.659 15.797c1.972 8.903 0 17.798-8.92 18.799l-14.82 2.953v217.412c-12.868 6.916-24.734 10.87-34.622 10.87-15.831 0-19.796-4.945-31.654-19.76l-96.944-152.19v147.248l30.677 6.922s0 17.78-24.75 17.78l-68.23 3.958c-1.982-3.958 0-13.832 6.921-15.81l17.805-4.935V210.7l-24.721-1.981c-1.983-8.903 2.955-21.74 16.812-22.736l73.195-4.934 100.889 154.171V198.836l-25.723-2.952c-1.974-10.884 5.927-18.787 15.819-19.767zM42.653 23.919l281.9-20.76c34.618-2.969 43.525-.98 65.283 14.825l89.986 63.247c14.848 10.876 19.797 13.837 19.797 25.693v346.883c0 21.74-7.92 34.597-35.608 36.564L136.64 510.14c-20.785.991-30.677-1.971-41.562-15.815l-66.267-85.978C16.938 392.52 12 380.68 12 366.828V58.495c0-17.778 7.922-32.608 30.653-34.576z"
     fill-rule="evenodd"
     id="path103" />
  <path
     style="fill:#ffffff;stroke-width:2.90698"
     d="m 614.86425,2300.5643 c -37.92378,-10.1901 -56.10808,-33.2582 -61.21317,-77.6533 -3.66242,-31.8494 -3.53644,-1455.5237 0.1313,-1483.75853 5.44734,-41.9344 25.56761,-63.60781 63.95018,-68.88666 7.19477,-0.98952 68.67732,-5.01935 136.62791,-8.95519 309.13743,-17.90589 1109.00623,-64.61121 1341.70203,-78.34362 70.9127,-4.18488 123.5295,-6.09171 129.6989,-4.70028 21.8676,4.93195 35.5746,18.28794 45.6191,44.4512 4.385,11.42168 4.8516,73.67587 5.616,749.37508 0.5807,513.247 -0.1145,744.203 -2.2907,760.918 -6.5495,50.3078 -26.8241,73.5963 -71.2889,81.8865 -9.5537,1.7813 -97.1669,7.7995 -194.696,13.3738 -217.3391,12.4222 -391.156,22.4373 -553.779,31.9079 -67.9506,3.9573 -191.5698,11.1208 -274.7093,15.9191 -83.1396,4.7982 -230.049,13.3164 -326.46542,18.9291 -193.64788,11.2731 -215.6564,11.7832 -238.90293,5.5369 z m 379.3218,-224.8756 c 176.62725,-9.9079 197.36095,-11.8213 219.90435,-20.2941 31.0709,-11.6779 59.5022,-46.5588 57.1901,-70.1636 l -0.9317,-9.5118 -72.6744,-16.3193 -72.6744,-16.3192 -0.7383,-355.8543 c -0.4174,-201.1693 0.358,-354.6488 1.7837,-353.081 1.3872,1.5253 106.9497,166.9447 234.5833,367.5988 127.6337,200.6541 239.9507,374.6366 249.5934,386.6279 42.7126,53.1159 66.8379,69.6357 110.7081,75.8078 28.3471,3.9882 57.0772,1.7124 92.4601,-7.324 26.7224,-6.8246 78.6861,-27.5775 98.8685,-39.4854 l 10.7063,-6.3169 V 1479.9635 948.87349 l 42.28,-8.24352 c 47.6817,-9.29666 57.0932,-13.95831 68.1706,-33.76573 6.2227,-11.1268 7.2362,-16.56613 7.1354,-38.29468 -0.064,-13.92919 -0.8921,-26.10045 -1.8389,-27.04724 -0.9468,-0.94679 -79.5132,2.87545 -174.5921,8.49387 -193.5146,11.43522 -194.1213,11.53032 -217.3463,34.06942 -16.6908,16.19782 -23.0852,31.54506 -23.1635,55.59462 -0.054,16.72122 0.6883,19.64294 5.0234,19.763 12.1483,0.33651 117.0796,13.49872 118.4372,14.85636 0.8254,0.82538 1.168,148.73601 0.7614,328.69031 l -0.7393,327.1897 -242.7325,-370.7888 c -133.5029,-203.9338 -243.521,-371.97938 -244.4846,-373.43464 -1.5472,-2.33671 -131.1081,5.42271 -324.84628,19.45506 -63.35131,4.58852 -78.4993,9.27596 -96.60081,29.89241 -18.38159,20.9355 -30.38628,61.50314 -23.51141,79.45247 2.85084,7.4432 3.17485,7.5104 53.27777,11.0488 27.72521,1.958 54.66093,4.2933 59.85716,5.1895 l 9.44767,1.6294 v 474.2628 474.2628 l -47.23837,12.8641 c -43.975,11.9755 -48.06875,13.6816 -59.25837,24.6966 -7.14471,7.0332 -13.32822,16.5447 -15.24542,23.4507 -3.5593,12.821 -4.3585,37.1649 -1.31985,40.2035 3.0063,3.0063 15.26341,2.5511 179.74806,-6.6756 z"
     id="path113"
     transform="matrix(0.2043764,0,0,0.2043764,0.339,0.19)" />
  <path
     style="fill:#ffffff;stroke-width:2.90698"
     d="m 559.59302,492.55015 c -23.98318,-5.17942 -48.61565,-17.65503 -75.90295,-38.4425 -72.2848,-55.06662 -206.75315,-164.62745 -209.52774,-170.717 -5.04694,-11.07683 0.96742,-20.98975 17.05155,-28.10453 12.04463,-5.32791 41.81092,-8.07215 265.24641,-24.45383 1093.93551,-80.20436 1093.83461,-80.19737 1135.40021,-78.77 46.7145,1.60418 71.3697,7.38077 106.1743,24.87611 29.3806,14.76886 292.5417,205.0087 299.5636,216.55534 3.55,5.83754 4.4188,9.94923 2.5722,12.17416 -1.5604,1.88019 -15.909,4.19726 -32.584,5.26181 -24.6939,1.57648 -302.7263,18.26508 -1266.71451,76.03323 -40.77035,2.44319 -92.44186,5.70904 -114.82558,7.25738 -55.64,3.84881 -103.84625,3.21212 -126.45349,-1.67017 z"
     id="path115"
     transform="matrix(0.2043764,0,0,0.2043764,0.339,0.19)" />
</svg>
