<?xml version="1.0" encoding="UTF-8" standalone="no"?>
<svg
   xmlns:dc="http://purl.org/dc/elements/1.1/"
   xmlns:cc="http://creativecommons.org/ns#"
   xmlns:rdf="http://www.w3.org/1999/02/22-rdf-syntax-ns#"
   xmlns:svg="http://www.w3.org/2000/svg"
   xmlns="http://www.w3.org/2000/svg"
   xmlns:sodipodi="http://sodipodi.sourceforge.net/DTD/sodipodi-0.dtd"
   xmlns:inkscape="http://www.inkscape.org/namespaces/inkscape"
   viewBox="0 0 48 48"
   version="1.1"
   id="svg5259"
   sodipodi:docname="学生帽のアイコン素材.svg"
   inkscape:version="1.0.1 (3bc2e813f5, 2020-09-07)">
  <g
     id="g1461"
     transform="matrix(0.08844726,0,0,0.08844726,20.641927,21.973473)"
     style="fill:#ffffff;fill-opacity:1;stroke:#ffffff;stroke-opacity:1;stroke-width:11.30617274;stroke-miterlimit:4;stroke-dasharray:none;stroke-linecap:round;stroke-linejoin:round">
    <path
       class="st0"
       d="M 280.03135,-53.926186 53.459348,-158.22019 c -7.349,-3.385 -15.177,-5.093 -23.265,-5.093 -8.088,0 -15.914,1.708 -23.2649997,5.093 L -219.64265,-53.926186 c -3.745,1.731 -6.163,5.504 -6.163,9.627 0,4.123 2.418,7.896 6.163,9.627 l 226.5719983,104.294 c 7.3489997,3.385 15.1769997,5.101 23.2649997,5.101 8.088,0 15.916,-1.716 23.267,-5.101 l 178.812002,-82.306 v 82.881 c -7.096,0.8 -12.63,6.84 -12.63,14.138 0,6.359 4.208,11.864 10.206,13.618 l -12.092,79.790996 h 55.676 l -12.09,-79.790996 c 5.996,-1.754 10.204,-7.259 10.204,-13.618 0,-7.298 -5.534,-13.338 -12.63,-14.138 v -95.148 l 21.116,-9.721 c 3.744,-1.731 6.163,-5.504 6.163,-9.627 0,-4.123 -2.42,-7.896 -6.165,-9.627 z"
       style="opacity:1;fill:#ffffff;stroke:#ffffff;stroke-linecap:round;stroke-linejoin:round;stroke-opacity:1;fill-opacity:1;stroke-width:11.30617274;stroke-miterlimit:4;stroke-dasharray:none"
       id="path866" />
    <path
       class="st0"
       d="m 30.194348,112.48681 c -11.246,0 -22.1429997,-2.391 -32.3859997,-7.104 L -113.01265,54.365814 V 156.00381 c 0,22.314 67.425998,50.621 143.206998,50.621 75.782002,0 143.209002,-28.308 143.209002,-50.621 V 54.365814 L 62.576348,105.38281 c -10.237,4.713 -21.132,7.104 -32.382,7.104 z"
       style="opacity:1;fill:#ffffff;stroke:#ffffff;stroke-linecap:round;stroke-linejoin:round;stroke-opacity:1;fill-opacity:1;stroke-width:11.30617274;stroke-miterlimit:4;stroke-dasharray:none"
       id="path868" />
  </g>
  <metadata
     id="metadata5265">
    <rdf:RDF>
      <cc:Work
         rdf:about="">
        <dc:format>image/svg+xml</dc:format>
        <dc:type
           rdf:resource="http://purl.org/dc/dcmitype/StillImage" />
        <dc:title>845_ch_f</dc:title>
      </cc:Work>
    </rdf:RDF>
  </metadata>
  <defs
     id="defs5263" />
  <sodipodi:namedview
     pagecolor="#ffffff"
     bordercolor="#666666"
     borderopacity="1"
     objecttolerance="10"
     gridtolerance="10"
     guidetolerance="10"
     inkscape:pageopacity="0"
     inkscape:pageshadow="2"
     inkscape:window-width="1920"
     inkscape:window-height="1027"
     id="namedview5261"
     showgrid="false"
     inkscape:zoom="8.9583335"
     inkscape:cx="43.621079"
     inkscape:cy="31.996827"
     inkscape:window-x="-8"
     inkscape:window-y="-8"
     inkscape:window-maximized="1"
     inkscape:current-layer="svg5259"
     inkscape:document-rotation="0" />
  <title
     id="title5251">845_ch_f</title>
  <rect
     width="48"
     height="48"
     fill="none"
     id="rect5253" />
  <g
     inkscape:groupmode="layer"
     id="layer1"
     inkscape:label="Layer 1" />
</svg>
