<?xml version="1.0" encoding="iso-8859-1"?>
<!-- Generator: Adobe Illustrator 21.0.0, SVG Export Plug-In . SVG Version: 6.00 Build 0)  -->
<svg version="1.1" id="Capa_1" xmlns="http://www.w3.org/2000/svg" xmlns:xlink="http://www.w3.org/1999/xlink" x="0px" y="0px"
	 viewBox="0 0 511.997 511.997" style="enable-background:new 0 0 511.997 511.997;" xml:space="preserve">
<g>
	<g>
		<path style="fill:#A5E4EF;" d="M452.584,459.026L255.999,481.76L59.665,459.026c0,0-3.638-11.292-8.496-30.129
			C39.515,383.65,20.864,294.844,28.79,214.179c0,0,64.547-106.718,227.334-190.187c9.805,5.029,19.26,10.146,28.366,15.31
			c30.125,17.112,56.411,34.831,79.15,52.126c12.414,9.452,23.778,18.769,34.113,27.807c13.553,11.842,25.357,23.182,35.502,33.636
			c34.782,35.814,50.204,61.308,50.204,61.308C494.682,328.441,452.584,459.026,452.584,459.026z"/>
		<path style="fill:#DAF3F8;" d="M433.254,152.871L249.897,459.026h-55.652l203.506-339.791
			C411.305,131.076,423.109,142.417,433.254,152.871z"/>
		<path style="fill:#DAF3F8;" d="M363.639,91.428L143.482,459.026H59.665c0,0-3.638-11.292-8.496-30.129L284.49,39.302
			C314.614,56.414,340.901,74.133,363.639,91.428z"/>
		<path style="fill:#02C6DB;" d="M452.592,475.523c-1.677,0-3.382-0.258-5.064-0.8c-8.668-2.795-13.43-12.088-10.636-20.756
			c0.487-1.517,39.932-125.854,30.521-234.236c-5.209-7.802-21.06-30.171-49.251-58.712
			c-31.327-31.715-84.56-77.576-162.037-118.439c-77.477,40.863-130.71,86.724-162.037,118.439
			c-28.178,28.529-44.027,50.89-49.251,58.713c-9.421,108.495,30.116,232.979,30.522,234.239
			c2.789,8.668-1.975,17.959-10.643,20.751c-8.667,2.792-17.957-1.967-20.751-10.635c-1.762-5.465-43.019-135.183-31.589-251.517
			c0.241-2.45,1.027-4.816,2.302-6.922c0.699-1.157,17.566-28.77,54.975-66.823C103.793,104.096,162.552,53.436,248.6,9.317
			c4.724-2.422,10.325-2.422,15.049,0c86.047,44.119,144.807,94.779,178.948,129.508c37.409,38.053,54.276,65.666,54.975,66.823
			c1.274,2.107,2.061,4.472,2.302,6.922c11.43,116.334-29.828,246.052-31.589,251.517
			C466.032,471.074,459.557,475.523,452.592,475.523z"/>
		<circle style="fill:#665E66;" cx="207.94" cy="336.592" r="16.932"/>
		<path style="fill:#49CB8B;" d="M481.765,459.027H30.232c-12.555,0-22.733,10.178-22.733,22.733v0
			c0,12.555,10.178,22.733,22.733,22.733h451.532c12.555,0,22.733-10.178,22.733-22.733v0
			C504.497,469.205,494.32,459.027,481.765,459.027z"/>
		<path style="fill:#13B766;" d="M81.882,497.841c4.118,4.108,9.805,6.657,16.082,6.657H30.228c-6.277,0-11.954-2.549-16.072-6.657
			c-4.118-4.118-6.657-9.805-6.657-16.082c0-12.554,10.175-22.728,22.728-22.728h67.735c-12.554,0-22.738,10.175-22.738,22.728
			C75.225,488.036,77.774,493.723,81.882,497.841z"/>
	</g>
	<g>
		<path d="M207.94,312.159c-13.472,0-24.433,10.96-24.433,24.433s10.96,24.432,24.433,24.432s24.433-10.96,24.433-24.432
			S221.412,312.159,207.94,312.159z M207.94,346.024c-5.201,0-9.433-4.231-9.433-9.432c0-5.201,4.231-9.433,9.433-9.433
			s9.433,4.231,9.433,9.433C217.373,341.793,213.141,346.024,207.94,346.024z"/>
		<path d="M481.765,451.527h-1.909c10.439-36.974,36.957-143.291,27.486-239.689c-0.347-3.539-1.51-7.024-3.354-10.063
			c-0.714-1.184-17.945-29.453-56.042-68.202C413.42,98.45,354.014,47.225,267.082,2.652c-6.854-3.529-15.045-3.53-21.905-0.006
			C158.233,47.225,98.827,98.45,64.301,133.572C26.204,172.321,8.973,200.59,8.267,201.76c-1.845,3.042-3.004,6.527-3.351,10.076
			c-9.476,96.451,17.036,202.728,27.475,239.691h-2.158C13.562,451.527,0,465.089,0,481.76s13.562,30.233,30.232,30.233h104.581
			c4.142,0,7.5-3.358,7.5-7.5s-3.358-7.5-7.5-7.5H30.232c-8.399,0-15.232-6.833-15.232-15.233s6.833-15.233,15.232-15.233h451.532
			c8.399,0,15.232,6.833,15.232,15.233s-6.833,15.233-15.232,15.233H164.813c-4.142,0-7.5,3.358-7.5,7.5s3.358,7.5,7.5,7.5h316.952
			c16.67,0,30.232-13.562,30.232-30.233S498.435,451.527,481.765,451.527z M19.844,213.3c0.132-1.348,0.552-2.613,1.257-3.775
			c0.677-1.123,17.02-27.93,53.897-65.438c33.751-34.334,91.86-84.428,177.028-128.096c2.569-1.32,5.631-1.32,8.201,0.003
			c85.163,43.665,143.271,93.759,177.023,128.094c36.876,37.507,53.219,64.314,53.905,65.451c0.704,1.161,1.127,2.427,1.259,3.764
			c9.602,97.734-18.957,206.501-28.158,238.224h-18.779c7.15-23.975,37.922-134.435,29.403-232.447
			c-0.109-1.255-0.533-2.463-1.231-3.511c-5.577-8.365-21.628-30.939-50.153-59.819c-31.371-31.772-85.266-78.347-163.867-119.804
			c-2.19-1.155-4.808-1.155-6.998,0c-78.569,41.434-132.483,88.019-163.876,119.803c-28.461,28.815-44.554,51.43-50.152,59.816
			c-0.701,1.049-1.125,2.258-1.234,3.515c-8.454,97.372,22.288,208.407,29.411,232.446H47.991
			C38.79,419.816,10.236,311.093,19.844,213.3z M352.199,451.527V339.31h102.518c-8.972,61.19-23.954,109.157-24.923,112.217
			H352.199z M82.453,451.527c-0.879-2.762-15.953-50.776-24.951-112.217h102.548v112.217H82.453z M411.408,227.228h49.056
			c2.195,32.435,0.163,66.048-3.71,97.083H352.199v-97.083h29.21c4.142,0,7.5-3.358,7.5-7.5s-3.358-7.5-7.5-7.5h-29.21v-99.266
			c25.59,19.712,45.72,38.235,60.623,53.328c18.763,18.996,31.881,35.071,40.039,45.938h-41.453c-4.142,0-7.5,3.358-7.5,7.5
			S407.266,227.228,411.408,227.228z M175.049,227.228h162.149v224.298H175.049V227.228z M337.199,212.228H175.049V101.751
			c23.126-16.793,50.096-34.121,81.079-50.679c30.984,16.56,57.95,33.886,81.07,50.673V212.228z M160.049,212.228H59.392
			c8.172-10.883,21.302-26.973,40.034-45.938c14.91-15.095,35.041-33.616,60.624-53.323V212.228z M160.049,227.228v97.083H55.468
			c-3.862-31.003-5.882-64.602-3.684-97.083H160.049z"/>
	</g>
</g>
<g>
</g>
<g>
</g>
<g>
</g>
<g>
</g>
<g>
</g>
<g>
</g>
<g>
</g>
<g>
</g>
<g>
</g>
<g>
</g>
<g>
</g>
<g>
</g>
<g>
</g>
<g>
</g>
<g>
</g>
</svg>
