<?xml version="1.0" encoding="iso-8859-1"?>
<!-- Generator: Adobe Illustrator 21.0.0, SVG Export Plug-In . SVG Version: 6.00 Build 0)  -->
<svg version="1.1" id="Capa_1" xmlns="http://www.w3.org/2000/svg" xmlns:xlink="http://www.w3.org/1999/xlink" x="0px" y="0px"
	 viewBox="0 0 511.964 511.964" style="enable-background:new 0 0 511.964 511.964;" xml:space="preserve">
<g>
	<g>
		<rect x="50.653" y="268.582" style="fill:#A64C31;" width="402.732" height="122.781"/>
		<rect x="420.403" y="274.428" style="fill:#FA6931;" width="57.862" height="198.989"/>
		<rect x="29.716" y="274.428" style="fill:#FA6931;" width="57.862" height="198.989"/>
		<path style="fill:#FD7E42;" d="M478.265,335.113H29.716c-12.29,0-22.252,9.963-22.252,22.252v50.051
			c0,12.29,9.963,22.252,22.252,22.252h448.549c12.29,0,22.252-9.963,22.252-22.252v-50.051
			C500.517,345.076,490.555,335.113,478.265,335.113z"/>
		<path style="fill:#FD7E42;" d="M478.265,203.799H29.716c-12.29,0-22.252,9.963-22.252,22.252v50.051
			c0,12.29,9.963,22.252,22.252,22.252h448.549c12.29,0,22.252-9.963,22.252-22.252v-50.051
			C500.517,213.762,490.555,203.799,478.265,203.799z"/>
		<g>
			<g>
				<path style="fill:#49CB8B;" d="M287.083,38.545c-12.241,16.449,2.104,44.565,24.865,67.326
					c23.258,23.258,21.422,71.151-15.301,73.064s-46.286-33.28-46.286-33.28c-2.678,16.449-48.199,37.488-60.44,2.295
					c-14.473-41.611,53.555-91.808,53.555-91.808C262.919,40.904,287.083,38.545,287.083,38.545z"/>
				<path style="fill:#13B766;" d="M250.365,145.66c-2.677,16.45-48.199,37.491-60.446,2.29
					c-14.466-41.612,53.554-91.808,53.554-91.808c19.444-15.229,43.609-17.589,43.609-17.589
					C238.882,80.247,250.365,145.66,250.365,145.66z"/>
			</g>
			<g>
				<path style="fill:#49CB8B;" d="M464.295,38.545c-12.241,16.449,2.104,44.565,24.865,67.326
					c23.258,23.258,21.422,71.151-15.301,73.064s-46.286-33.28-46.286-33.28c-2.678,16.449-48.199,37.488-60.44,2.295
					c-14.473-41.611,53.555-91.808,53.555-91.808C440.131,40.904,464.295,38.545,464.295,38.545z"/>
				<path style="fill:#13B766;" d="M427.577,145.66c-2.677,16.45-48.199,37.491-60.446,2.29
					c-14.466-41.612,53.554-91.808,53.554-91.808c19.444-15.229,43.609-17.589,43.609-17.589
					C416.094,80.247,427.577,145.66,427.577,145.66z"/>
			</g>
			<g>
				<path style="fill:#49CB8B;" d="M109.871,38.545c-12.241,16.449,2.104,44.565,24.865,67.326
					c23.258,23.258,21.422,71.151-15.301,73.064s-46.286-33.28-46.286-33.28c-2.678,16.449-48.199,37.488-60.44,2.295
					c-14.473-41.611,53.555-91.808,53.555-91.808C85.707,40.904,109.871,38.545,109.871,38.545z"/>
				<path style="fill:#13B766;" d="M73.153,145.66c-2.677,16.45-48.199,37.491-60.446,2.29
					c-14.466-41.612,53.554-91.808,53.554-91.808c19.444-15.229,43.609-17.589,43.609-17.589
					C61.67,80.247,73.153,145.66,73.153,145.66z"/>
			</g>
		</g>
		<g>
			<circle style="fill:#454045;" cx="449.334" cy="251.077" r="15.638"/>
			<circle style="fill:#454045;" cx="449.334" cy="382.391" r="15.638"/>
		</g>
		<g>
			<circle style="fill:#454045;" cx="58.647" cy="251.077" r="15.638"/>
			<circle style="fill:#454045;" cx="58.647" cy="382.391" r="15.638"/>
		</g>
	</g>
	<g>
		<path d="M471.02,186.518c1.048,0,2.114-0.028,3.197-0.084c16.272-0.847,28.846-9.774,34.497-24.49
			c7.568-19.706,1.56-45.51-14.284-61.355c-22.606-22.606-32.535-46.266-24.148-57.537c1.771-2.38,1.973-5.581,0.514-8.165
			s-4.301-4.063-7.258-3.776c-1.074,0.105-26.509,2.753-47.416,19.089c-4.032,2.99-72.053,54.326-56.089,100.227
			c5.831,16.763,19.141,25.514,36.475,24.004c8.65-0.752,17.208-4.016,24.068-8.622l0.803,30.498H259.194l-0.62-23.541
			c8.221,7.747,19.788,13.756,35.261,13.756c1.046,0,2.112-0.028,3.194-0.084c16.008-0.836,28.492-9.533,34.251-23.86
			c7.68-19.103,2.267-44.662-12.869-60.773c-2.836-3.019-7.582-3.166-10.599-0.331c-3.019,2.836-3.168,7.581-0.331,10.6
			c11.154,11.873,15.403,31.181,9.883,44.91c-2.505,6.232-8.202,13.802-21.116,14.476c-0.812,0.042-1.606,0.063-2.387,0.063
			c-26.944-0.002-35.254-24.51-36.176-27.533c-0.592-3.889-5.151-38.05,11.344-70.407c1.882-3.69,0.415-8.206-3.275-10.087
			c-3.688-1.88-8.205-0.415-10.086,3.275c-17.706,34.732-14.07,70.485-12.946,78.548c-1.815,4.709-12.308,13.093-24.699,14.169
			c-10.391,0.899-17.465-3.804-21.008-13.989c-10.366-29.79,33.239-70.231,50.913-83.298c0.058-0.042,0.114-0.086,0.171-0.13
			c9.051-7.088,19.378-11.133,27.232-13.387c-1.343,11.258,2.781,24.71,12.24,39.274c2.257,3.474,6.901,4.459,10.374,2.204
			c3.473-2.256,4.46-6.9,2.205-10.374c-4.82-7.419-15.154-25.851-7.054-36.73c1.772-2.38,1.974-5.582,0.515-8.166
			c-1.458-2.584-4.301-4.064-7.259-3.776c-1.073,0.105-26.504,2.754-47.415,19.082c-4.024,2.984-72.057,54.328-56.085,100.229
			c5.83,16.76,19.122,25.507,36.469,24.002c8.649-0.751,17.208-4.013,24.069-8.618l0.803,30.496H82.007l-0.62-23.544
			c8.222,7.746,19.788,13.754,35.258,13.754c1.048,0,2.114-0.028,3.197-0.084c16.272-0.847,28.846-9.774,34.497-24.49
			c7.568-19.706,1.56-45.51-14.284-61.355c-22.606-22.606-32.535-46.266-24.148-57.537c1.771-2.38,1.973-5.581,0.514-8.165
			c-1.459-2.583-4.31-4.063-7.258-3.776c-1.074,0.105-26.509,2.753-47.416,19.089c-4.032,2.99-72.053,54.326-56.089,100.227
			c5.83,16.763,19.133,25.514,36.475,24.004c8.65-0.752,17.208-4.016,24.068-8.622l0.803,30.498H29.748
			C13.345,196.308,0,209.653,0,226.056v50.044c0,13.814,9.465,25.457,22.25,28.79v23.673C9.465,331.894,0,343.537,0,357.351v50.044
			c0,13.814,9.465,25.457,22.25,28.79v37.204c0,4.142,3.357,7.499,7.499,7.499h57.854c4.142,0,7.499-3.357,7.499-7.499v-36.245
			h52.139c4.142,0,7.499-3.357,7.499-7.499s-3.357-7.499-7.499-7.499H29.748c-8.133,0-14.75-6.617-14.75-14.75v-50.044
			c0-8.133,6.617-14.75,14.75-14.75h448.486c8.133,0,14.75,6.617,14.75,14.75v50.044c0,8.133-6.617,14.75-14.75,14.75H177.237
			c-4.142,0-7.499,3.357-7.499,7.499s3.357,7.499,7.499,7.499h235.646v36.245c0,4.142,3.357,7.499,7.499,7.499h57.854
			c4.142,0,7.499-3.357,7.499-7.499v-37.205c12.783-3.333,22.247-14.976,22.247-28.789v-50.044c0-13.813-9.464-25.455-22.247-28.788
			v-23.675c12.783-3.333,22.247-14.976,22.247-28.789v-50.044c0-16.403-13.345-29.748-29.748-29.748h-41.852l-0.62-23.544
			C443.984,180.51,455.55,186.518,471.02,186.518z M40.836,159.491c-10.402,0.904-17.468-3.803-21.012-13.989
			C9.463,115.71,53.068,75.27,70.741,62.204c0.059-0.043,0.116-0.087,0.173-0.132c9.053-7.094,19.386-11.142,27.243-13.395
			c-0.766,6.372,0.109,14.314,4.105,24.04c5.076,12.356,14.731,26.021,27.188,38.478c11.663,11.663,16.344,31.169,10.889,45.373
			c-2.464,6.415-8.155,14.206-21.276,14.89c-28.759,1.491-37.574-24.231-38.561-27.446c-0.578-3.777-5.186-38.007,11.341-70.427
			c1.882-3.69,0.415-8.206-3.275-10.087c-3.688-1.88-8.205-0.415-10.086,3.275c-17.698,34.715-14.074,70.45-12.947,78.536
			C63.729,150.016,53.235,158.413,40.836,159.491z M80.104,465.889H37.248v-28.746h42.856V465.889z M427.88,465.889v-28.746h42.856
			v28.746H427.88z M470.737,327.603H427.88v-21.751h42.856V327.603z M412.882,327.603H95.102v-21.755h317.781V327.603z
			 M80.104,305.852v21.751H37.248v-21.751H80.104z M492.984,226.056v50.044c0,8.133-6.617,14.75-14.75,14.75H29.748
			c-8.133,0-14.75-6.617-14.75-14.75v-50.044c0-8.133,6.617-14.75,14.75-14.75h448.486
			C486.366,211.306,492.984,217.923,492.984,226.056z M395.21,159.491c-10.401,0.904-17.468-3.803-21.012-13.989
			c-10.362-29.791,33.243-70.231,50.917-83.297c0.059-0.043,0.116-0.087,0.173-0.132c9.053-7.094,19.386-11.142,27.243-13.395
			c-0.767,6.372,0.109,14.314,4.105,24.04c5.076,12.356,14.731,26.021,27.188,38.478c11.663,11.663,16.344,31.169,10.889,45.373
			c-2.464,6.415-8.155,14.206-21.276,14.89c-28.74,1.491-37.573-24.233-38.561-27.447c-0.578-3.78-5.185-38.008,11.341-70.427
			c1.882-3.69,0.415-8.206-3.275-10.087c-3.688-1.88-8.205-0.415-10.086,3.275c-17.698,34.715-14.074,70.45-12.947,78.536
			C418.103,150.016,407.609,158.413,395.21,159.491z"/>
		<path d="M449.307,274.212c12.756,0,23.134-10.378,23.134-23.135c0-12.757-10.378-23.135-23.134-23.135
			c-12.757,0-23.135,10.378-23.135,23.135C426.172,263.834,436.55,274.212,449.307,274.212z M449.307,242.941
			c4.487,0,8.137,3.65,8.137,8.137c0,4.487-3.65,8.137-8.137,8.137c-4.487,0-8.138-3.65-8.138-8.137
			C441.169,246.591,444.82,242.941,449.307,242.941z"/>
		<path d="M472.441,382.373c0-12.757-10.378-23.135-23.134-23.135c-12.757,0-23.135,10.378-23.135,23.135
			c0,12.757,10.378,23.135,23.135,23.135C462.063,405.508,472.441,395.129,472.441,382.373z M441.169,382.373
			c0-4.487,3.651-8.137,8.138-8.137c4.487,0,8.137,3.65,8.137,8.137c0,4.487-3.65,8.137-8.137,8.137
			C444.82,390.51,441.169,386.86,441.169,382.373z"/>
		<path d="M58.675,227.943c-12.757,0-23.135,10.378-23.135,23.135c0,12.757,10.378,23.135,23.135,23.135
			c12.756,0,23.134-10.378,23.134-23.135C81.81,238.321,71.431,227.943,58.675,227.943z M58.675,259.214
			c-4.487,0-8.138-3.65-8.138-8.137c0-4.487,3.651-8.137,8.138-8.137s8.137,3.65,8.137,8.137
			C66.812,255.564,63.162,259.214,58.675,259.214z"/>
		<path d="M35.54,382.373c0,12.757,10.378,23.135,23.135,23.135c12.756,0,23.134-10.378,23.134-23.135
			c0-12.757-10.378-23.135-23.134-23.135C45.918,359.238,35.54,369.616,35.54,382.373z M66.812,382.373
			c0,4.487-3.65,8.137-8.137,8.137s-8.138-3.65-8.138-8.137c0-4.487,3.651-8.137,8.138-8.137S66.812,377.886,66.812,382.373z"/>
	</g>
</g>
<g>
</g>
<g>
</g>
<g>
</g>
<g>
</g>
<g>
</g>
<g>
</g>
<g>
</g>
<g>
</g>
<g>
</g>
<g>
</g>
<g>
</g>
<g>
</g>
<g>
</g>
<g>
</g>
<g>
</g>
</svg>
