<?xml version="1.0" encoding="iso-8859-1"?>
<!-- Generator: Adobe Illustrator 21.0.0, SVG Export Plug-In . SVG Version: 6.00 Build 0)  -->
<svg version="1.1" id="Capa_1" xmlns="http://www.w3.org/2000/svg" xmlns:xlink="http://www.w3.org/1999/xlink" x="0px" y="0px"
	 viewBox="0 0 512.001 512.001" style="enable-background:new 0 0 512.001 512.001;" xml:space="preserve">
<g>
	<g>
		<polyline style="fill:#49CB8B;" points="406.506,430.95 416.272,489.841 377.177,480.067 352.743,504.5 319.512,484.954 
			287.145,504.5 255.991,482.999 224.836,504.5 192.47,484.954 159.238,504.5 134.804,480.067 95.71,489.841 105.475,430.95 
			105.475,81.05 95.71,22.16 134.804,31.933 159.238,7.5 192.47,27.047 224.836,7.5 255.991,29.001 287.145,7.5 319.512,27.047 
			352.743,7.5 377.177,31.933 416.272,22.16 406.506,81.05 		"/>
		<path style="fill:#FA4954;" d="M406.506,81.05c-100.344-16.329-200.687-16.329-301.031,0c-14.048,116.633-14.048,233.266,0,349.9
			c100.344,16.329,200.687,16.329,301.031,0C420.554,314.317,420.554,197.684,406.506,81.05z"/>
		<circle style="fill:#DAF3F8;" cx="255.991" cy="256" r="113.624"/>
		<g>
			<path style="fill:#49CB8B;" d="M281.863,185.629c-10.425,14.009,1.792,37.955,21.176,57.339
				c19.808,19.808,18.244,60.597-13.032,62.226s-39.421-28.344-39.421-28.344c-2.281,14.009-41.05,31.928-51.475,1.955
				c-12.326-35.439,45.611-78.19,45.611-78.19C261.283,187.639,281.863,185.629,281.863,185.629z"/>
			<path style="fill:#13B766;" d="M250.592,276.856c-2.28,14.01-41.05,31.93-51.48,1.95c-12.32-35.44,45.61-78.19,45.61-78.19
				c16.56-12.97,37.14-14.98,37.14-14.98C240.812,221.146,250.592,276.856,250.592,276.856z"/>
		</g>
	</g>
	<g>
		<path d="M414.081,430.786c11.541-96.456,13.513-194.274,5.856-290.759c-0.327-4.129-3.947-7.207-8.07-6.883
			c-4.129,0.328-7.211,3.941-6.883,8.07c7.458,93.976,5.689,189.232-5.255,283.224c-95.415,14.938-192.063,14.938-287.478,0
			c-13.015-111.793-13.015-225.082,0-336.875c95.415-14.938,192.061-14.938,287.476,0c0.927,7.975,1.795,16.012,2.59,23.963
			c0.412,4.122,4.085,7.124,8.208,6.717c4.122-0.412,7.129-4.087,6.717-8.208c-0.956-9.566-2.023-19.25-3.164-28.81l9.591-57.838
			c0.414-2.493-0.457-5.027-2.313-6.74c-1.858-1.713-4.453-2.376-6.904-1.763l-34.976,8.744l-21.431-21.43
			c-2.417-2.416-6.159-2.894-9.105-1.161l-29.379,17.28L291.022,1.08c-2.524-1.525-5.708-1.428-8.137,0.248l-26.895,18.561
			L229.096,1.328c-2.427-1.675-5.612-1.772-8.137-0.248l-28.54,17.235L163.04,1.036c-2.945-1.733-6.69-1.255-9.105,1.161
			l-21.431,21.43l-34.976-8.744c-2.451-0.613-5.048,0.05-6.904,1.763c-1.857,1.713-2.727,4.247-2.313,6.74l9.59,57.831
			c-13.876,115.984-13.876,233.581,0,349.565l-9.59,57.831c-0.414,2.493,0.457,5.026,2.314,6.74
			c1.857,1.713,4.452,2.378,6.904,1.763l34.976-8.744l21.431,21.43c2.417,2.417,6.161,2.893,9.105,1.162l29.379-17.28l28.54,17.235
			c2.525,1.525,5.71,1.429,8.137-0.247l26.895-18.561l26.895,18.561c2.429,1.676,5.613,1.772,8.137,0.247l28.54-17.235l29.379,17.28
			c1.184,0.696,2.496,1.036,3.8,1.035c1.94,0,3.861-0.751,5.306-2.197l21.431-21.43l34.976,8.744
			c2.451,0.614,5.046-0.05,6.904-1.763s2.728-4.247,2.314-6.74L414.081,430.786z M132.986,39.21c2.554,0.639,5.259-0.11,7.122-1.973
			l20.33-20.33l28.23,16.604c2.373,1.396,5.322,1.379,7.679-0.044l28.218-17.041l27.167,18.748c2.563,1.77,5.956,1.77,8.52,0
			l27.167-18.748l28.218,17.041c2.357,1.424,5.306,1.441,7.679,0.044l28.23-16.604l20.33,20.33c1.862,1.863,4.567,2.612,7.122,1.973
			l28.008-7.002l-6.679,40.276c-95.816-14.82-192.852-14.82-288.668,0l-6.679-40.276L132.986,39.21z M378.995,472.791
			c-2.555-0.64-5.259,0.109-7.122,1.973l-20.33,20.33l-28.23-16.604c-2.374-1.396-5.322-1.379-7.679,0.045l-28.218,17.041
			l-27.167-18.749c-2.563-1.77-5.956-1.77-8.52,0l-27.167,18.749l-28.218-17.041c-2.357-1.424-5.306-1.441-7.679-0.045
			l-28.23,16.604l-20.33-20.33c-1.863-1.863-4.566-2.612-7.122-1.973l-28.008,7.002l6.679-40.275
			c47.908,7.41,96.121,11.123,144.334,11.123s96.426-3.713,144.334-11.123l6.679,40.275L378.995,472.791z"/>
		<path d="M180.171,340.952c-2.551,3.263-1.973,7.977,1.291,10.528c21.46,16.774,47.232,25.641,74.529,25.641
			c66.786,0,121.12-54.334,121.12-121.12s-54.334-121.12-121.12-121.12S134.87,189.215,134.87,256
			c0,26.478,8.391,51.63,24.266,72.738c2.49,3.31,7.191,3.975,10.502,1.486c3.31-2.49,3.976-7.192,1.486-10.502
			C157.22,301.235,149.87,279.2,149.87,256c0-58.515,47.605-106.12,106.12-106.12s106.12,47.605,106.12,106.12
			s-47.605,106.12-106.12,106.12c-23.917,0-46.494-7.766-65.292-22.459C187.435,337.11,182.721,337.688,180.171,340.952z"/>
		<path d="M288.393,181.941c-1.459-2.584-4.304-4.065-7.259-3.776c-0.928,0.09-22.897,2.377-40.957,16.485
			c-1.402,1.043-15.631,11.771-28.58,26.894c-19.037,22.234-25.621,42.329-19.569,59.726c5.071,14.581,17.115,22.505,32.216,21.189
			c6.857-0.596,13.652-3.014,19.343-6.487l0.805,30.596c0.107,4.074,3.443,7.303,7.494,7.303c0.067,0,0.134-0.001,0.201-0.002
			c4.141-0.109,7.409-3.554,7.3-7.695l-0.624-23.705c7.02,5.911,16.509,10.289,28.844,10.289c0.913,0,1.846-0.024,2.79-0.073
			c14.318-0.746,25.385-8.608,30.364-21.572c6.596-17.177,1.373-39.654-12.42-53.447c-18.855-18.855-27.27-38.412-20.463-47.559
			C289.651,187.726,289.852,184.524,288.393,181.941z M297.736,248.272c9.485,9.485,13.448,25.94,9.023,37.463
			c-2.881,7.5-8.648,11.528-17.142,11.97c-23.479,1.223-30.795-19.61-31.698-22.505c-0.44-2.978-3.131-23.95,4.304-46.57
			c1.293-3.935-0.848-8.173-4.783-9.467c-3.936-1.295-8.173,0.848-9.467,4.783c-7.949,24.186-5.869,46.218-5.033,52.466
			c-1.589,3.665-10.181,10.25-19.995,11.103c-8.401,0.729-13.881-2.924-16.75-11.173c-8.603-24.732,28.111-58.694,42.98-69.69
			c0.058-0.043,0.116-0.087,0.173-0.132c6.99-5.478,14.902-8.788,21.255-10.75c-0.345,5.292,0.584,11.704,3.731,19.364
			C278.713,225.791,287.024,237.56,297.736,248.272z"/>
	</g>
</g>
<g>
</g>
<g>
</g>
<g>
</g>
<g>
</g>
<g>
</g>
<g>
</g>
<g>
</g>
<g>
</g>
<g>
</g>
<g>
</g>
<g>
</g>
<g>
</g>
<g>
</g>
<g>
</g>
<g>
</g>
</svg>
