<?xml version="1.0" encoding="iso-8859-1"?>
<!-- Generator: Adobe Illustrator 21.0.0, SVG Export Plug-In . SVG Version: 6.00 Build 0)  -->
<svg version="1.1" id="Capa_1" xmlns="http://www.w3.org/2000/svg" xmlns:xlink="http://www.w3.org/1999/xlink" x="0px" y="0px"
	 viewBox="0 0 511.999 511.999" style="enable-background:new 0 0 511.999 511.999;" xml:space="preserve">
<g>
	<g>
		<rect x="242.016" y="298.756" style="fill:#665E66;" width="31.276" height="74.652"/>
		<rect x="147.534" y="268.95" style="fill:#665E66;" width="216.931" height="29.016"/>
		<path style="fill:#49CB8B;" d="M152.923,322.552H32.088c-13.579,0-24.587-11.008-24.587-24.587V268.95
			c0-13.579,11.008-24.587,24.587-24.587h120.835c13.579,0,24.587,11.008,24.587,24.587v29.016
			C177.509,311.545,166.502,322.552,152.923,322.552z"/>
		<path style="fill:#49CB8B;" d="M479.911,322.552H359.076c-13.579,0-24.587-11.008-24.587-24.587V268.95
			c0-13.579,11.008-24.587,24.587-24.587h120.835c13.579,0,24.587,11.008,24.587,24.587v29.016
			C504.498,311.545,493.49,322.552,479.911,322.552z"/>
		<path style="fill:#13B766;" d="M504.501,274.513v23.46c0,13.57-11.01,24.58-24.59,24.58H359.082c-13.58,0-24.59-11.01-24.59-24.58
			v-23.46c0,13.58,11.01,24.59,24.59,24.59h120.829C493.491,299.103,504.501,288.093,504.501,274.513z"/>
		<path style="fill:#13B766;" d="M177.513,274.513v23.46c0,13.57-11.01,24.58-24.59,24.58H32.093c-13.58,0-24.59-11.01-24.59-24.58
			v-23.46c0,13.58,11.01,24.59,24.59,24.59h120.829C166.503,299.103,177.513,288.093,177.513,274.513z"/>
		<path style="fill:#49CB8B;" d="M277.98,311.801h-40.652c-8.566,0-15.511-6.944-15.511-15.511v-25.014
			c0-8.566,6.944-15.511,15.511-15.511h40.652c8.566,0,15.511,6.944,15.511,15.511v25.014
			C293.49,304.857,286.546,311.801,277.98,311.801z"/>
		<path style="fill:#13B766;" d="M258.837,311.8h-21.5c-8.57,0-15.52-6.94-15.52-15.51v-25.01c0-8.57,6.95-15.51,15.52-15.51h21.5
			c-8.57,0-15.51,6.94-15.51,15.51v25.01C243.327,304.86,250.267,311.8,258.837,311.8z"/>
		<path style="fill:#49CB8B;" d="M366.469,390.209v52.22H148.84v-52.22c0-16.48,13.36-29.85,29.85-29.85h157.929
			C353.099,360.36,366.469,373.73,366.469,390.209z"/>
		<path style="fill:#13B766;" d="M232.529,360.36c-16.49,0-29.85,13.37-29.85,29.85v52.22h-53.84v-52.22
			c0-16.48,13.36-29.85,29.85-29.85H232.529z"/>
		<rect x="148.84" y="403.659" style="fill:#13B766;" width="217.629" height="38.77"/>
		<path style="fill:#49CB8B;" d="M394.706,504.499H120.601c-23.527,0-42.6-19.073-42.6-42.6v0c0-23.527,19.073-42.6,42.6-42.6
			h274.104c23.527,0,42.6,19.073,42.6,42.6v0C437.306,485.426,418.233,504.499,394.706,504.499z"/>
		<path style="fill:#13B766;" d="M201.9,504.499h-81.299c-23.53,0-42.6-19.07-42.6-42.6c0-11.76,4.77-22.42,12.48-30.12
			c7.7-7.71,18.36-12.48,30.12-12.48H201.9c-11.76,0-22.42,4.77-30.12,12.48c-7.71,7.7-12.48,18.36-12.48,30.12
			C159.301,485.429,178.371,504.499,201.9,504.499z"/>
	</g>
	<g>
		<path d="M479.911,236.863h-6.004v-7.482c0-4.142-3.358-7.5-7.5-7.5s-7.5,3.358-7.5,7.5v7.482h-16.276v-7.482
			c0-4.142-3.358-7.5-7.5-7.5s-7.5,3.358-7.5,7.5v7.482h-16.275v-7.482c0-4.142-3.358-7.5-7.5-7.5s-7.5,3.358-7.5,7.5v7.482H380.08
			v-7.482c0-4.142-3.358-7.5-7.5-7.5s-7.5,3.358-7.5,7.5v7.482h-6.004c-15.11,0-27.806,10.501-31.193,24.587h-29.101
			c-3.693-7.786-11.628-13.185-20.802-13.185h-40.652c-9.174,0-17.109,5.399-20.802,13.185h-32.41
			c-3.387-14.086-16.083-24.587-31.193-24.587h-6.004v-7.482c0-4.142-3.358-7.5-7.5-7.5s-7.5,3.358-7.5,7.5v7.482h-16.276v-7.482
			c0-4.142-3.358-7.5-7.5-7.5s-7.5,3.358-7.5,7.5v7.482H84.367v-7.482c0-4.142-3.358-7.5-7.5-7.5s-7.5,3.358-7.5,7.5v7.482H53.092
			v-7.482c0-4.142-3.358-7.5-7.5-7.5s-7.5,3.358-7.5,7.5v7.482h-6.004c-17.693,0-32.087,14.394-32.087,32.087v29.016
			c0,17.693,14.394,32.087,32.087,32.087h6.004v7.487c0,4.142,3.358,7.5,7.5,7.5s7.5-3.358,7.5-7.5v-7.487h16.275v7.487
			c0,4.142,3.358,7.5,7.5,7.5s7.5-3.358,7.5-7.5v-7.487h16.276v7.487c0,4.142,3.358,7.5,7.5,7.5s7.5-3.358,7.5-7.5v-7.487h16.276
			v7.487c0,4.142,3.358,7.5,7.5,7.5s7.5-3.358,7.5-7.5v-7.487h6.004c15.108,0,27.803-10.499,31.192-24.583h32.118
			c3.193,7.31,10.076,12.648,18.283,13.654v33.736H178.69c-20.595,0-37.35,16.755-37.35,37.35v21.59H120.6
			c-13.391,0-25.972,5.213-35.419,14.673c-9.467,9.455-14.68,22.036-14.68,35.427c0,12.737,4.784,24.872,13.47,34.17
			c2.828,3.027,7.574,3.188,10.601,0.36c3.027-2.828,3.188-7.574,0.36-10.601c-6.082-6.51-9.431-15.008-9.431-23.93
			c0-9.38,3.651-18.193,10.287-24.82c6.621-6.629,15.433-10.28,24.813-10.28h274.108c19.354,0,35.1,15.746,35.1,35.1
			c0,9.38-3.651,18.193-10.283,24.816c-6.631,6.631-15.445,10.283-24.817,10.283H120.6c-1.169,0-2.402-0.062-3.663-0.185
			c-4.121-0.396-7.79,2.616-8.191,6.738c-0.401,4.123,2.616,7.79,6.738,8.191c1.742,0.169,3.463,0.255,5.116,0.255h274.108
			c13.379,0,25.959-5.212,35.42-14.673c9.467-9.454,14.68-22.035,14.68-35.426c0-27.625-22.475-50.1-50.1-50.1h-20.74v-21.59
			c0-13.526-7.348-26.029-19.176-32.629c-3.616-2.019-8.186-0.723-10.204,2.895c-2.019,3.617-0.722,8.186,2.895,10.204
			c7.083,3.953,11.484,11.437,11.484,19.53v21.59H156.34v-21.59c0-12.324,10.026-22.35,22.35-22.35h142.929
			c4.142,0,7.5-3.358,7.5-7.5s-3.358-7.5-7.5-7.5h-40.828v-33.736c8.207-1.005,15.09-6.343,18.283-13.654h28.809
			c3.389,14.083,16.083,24.583,31.192,24.583h6.004v7.487c0,4.142,3.358,7.5,7.5,7.5s7.5-3.358,7.5-7.5v-7.487h16.276v7.487
			c0,4.142,3.358,7.5,7.5,7.5s7.5-3.358,7.5-7.5v-7.487h16.275v7.487c0,4.142,3.358,7.5,7.5,7.5s7.5-3.358,7.5-7.5v-7.487h16.276
			v7.487c0,4.142,3.358,7.5,7.5,7.5s7.5-3.358,7.5-7.5v-7.487h6.004c17.693,0,32.087-14.394,32.087-32.087V268.95
			C511.998,251.257,497.604,236.863,479.911,236.863z M152.923,315.053H32.088c-9.422,0-17.087-7.665-17.087-17.087V268.95
			c0-9.422,7.665-17.087,17.087-17.087h120.835c9.422,0,17.087,7.665,17.087,17.087v29.016
			C170.01,307.388,162.345,315.053,152.923,315.053z M185.01,276.45h29.307v14.02H185.01V276.45z M249.516,352.86v-33.558h16.276
			v33.558H249.516z M277.98,304.302h-40.652c-4.417,0-8.011-3.594-8.011-8.011v-25.015c0-4.417,3.594-8.011,8.011-8.011h40.652
			c4.417,0,8.011,3.594,8.011,8.011v25.015C285.991,300.708,282.397,304.302,277.98,304.302z M326.989,290.47h-25.998v-14.02h25.998
			V290.47z M496.998,297.966c0,9.422-7.665,17.087-17.087,17.087H359.076c-9.422,0-17.087-7.665-17.087-17.087V268.95
			c0-9.422,7.665-17.087,17.087-17.087h120.835c9.422,0,17.087,7.665,17.087,17.087V297.966z"/>
		<path d="M28.651,114.857c6.486,28.423,9.44,56.144,9.44,69.873c0,4.142,3.358,7.5,7.5,7.5s7.5-3.358,7.5-7.5
			c0-28.767-12.388-116.841-40.288-144.741c-2.929-2.929-7.678-2.929-10.606,0c-2.929,2.929-2.929,7.677,0,10.606
			C12.048,60.446,21.443,83.268,28.651,114.857z"/>
		<path d="M69.367,184.73c0,4.142,3.358,7.5,7.5,7.5s7.5-3.358,7.5-7.5c0-41.216-16.629-143.924-34.333-180.496
			c-1.804-3.729-6.292-5.288-10.018-3.483c-3.729,1.805-5.288,6.29-3.483,10.019C53.143,45.081,69.367,145.751,69.367,184.73z"/>
		<path d="M139.419,192.23c4.142,0,7.5-3.358,7.5-7.5c0-13.729,2.954-41.45,9.44-69.873c7.209-31.589,16.604-54.411,26.454-64.261
			c2.929-2.929,2.929-7.678,0-10.607c-2.928-2.929-7.677-2.929-10.606,0c-27.899,27.899-40.288,115.974-40.288,144.741
			C131.919,188.872,135.277,192.23,139.419,192.23z"/>
		<path d="M108.143,192.23c4.142,0,7.5-3.358,7.5-7.5c0-38.979,16.225-139.649,32.833-173.96c1.805-3.728,0.246-8.214-3.483-10.019
			c-3.729-1.805-8.214-0.245-10.018,3.483c-17.704,36.572-34.333,139.28-34.333,180.496
			C100.643,188.872,104.001,192.23,108.143,192.23z"/>
		<path d="M355.64,114.857c6.486,28.423,9.44,56.144,9.44,69.873c0,4.142,3.358,7.5,7.5,7.5s7.5-3.358,7.5-7.5
			c0-28.767-12.388-116.842-40.288-144.741c-2.929-2.929-7.678-2.929-10.606,0c-2.929,2.929-2.929,7.678,0,10.607
			C339.037,60.446,348.431,83.268,355.64,114.857z"/>
		<path d="M396.356,184.73c0,4.142,3.358,7.5,7.5,7.5s7.5-3.358,7.5-7.5c0-41.216-16.629-143.923-34.333-180.496
			c-1.804-3.729-6.291-5.288-10.018-3.483c-3.729,1.805-5.288,6.29-3.483,10.019C380.131,45.082,396.356,145.752,396.356,184.73z"/>
		<path d="M466.407,192.23c4.142,0,7.5-3.358,7.5-7.5c0-13.729,2.954-41.45,9.44-69.873c7.209-31.589,16.604-54.411,26.454-64.261
			c2.929-2.929,2.929-7.678,0-10.607c-2.929-2.929-7.678-2.929-10.606,0c-27.899,27.899-40.288,115.974-40.288,144.741
			C458.907,188.872,462.265,192.23,466.407,192.23z"/>
		<path d="M435.131,192.23c4.142,0,7.5-3.358,7.5-7.5c0-38.978,16.225-139.648,32.833-173.96c1.805-3.728,0.246-8.214-3.483-10.019
			c-3.729-1.805-8.213-0.245-10.018,3.483c-17.704,36.573-34.333,139.28-34.333,180.496
			C427.631,188.872,430.989,192.23,435.131,192.23z"/>
	</g>
</g>
<g>
</g>
<g>
</g>
<g>
</g>
<g>
</g>
<g>
</g>
<g>
</g>
<g>
</g>
<g>
</g>
<g>
</g>
<g>
</g>
<g>
</g>
<g>
</g>
<g>
</g>
<g>
</g>
<g>
</g>
</svg>
