<?xml version="1.0" encoding="iso-8859-1"?>
<!-- Generator: Adobe Illustrator 21.0.0, SVG Export Plug-In . SVG Version: 6.00 Build 0)  -->
<svg version="1.1" id="Capa_1" xmlns="http://www.w3.org/2000/svg" xmlns:xlink="http://www.w3.org/1999/xlink" x="0px" y="0px"
	 viewBox="0 0 512.006 512.006" style="enable-background:new 0 0 512.006 512.006;" xml:space="preserve">
<g>
	<g>
		<path style="fill:#D5694C;" d="M439.063,356.916L336.202,422.68l-198.717-6.6c0,0,18.635-15.284,43.242-35.022
			c36.379-29.192,85.805-68.142,107.335-81.878c12.491-7.966,27.057-14.535,43.677-17.785c0.01,0,0.01,0,0.02,0l0.223-0.04
			l4.221-0.739C403.736,291.123,439.063,356.916,439.063,356.916z"/>
		<path style="fill:#A64C31;" d="M288.061,299.18c12.491-7.966,27.057-14.535,43.677-17.785
			c-25.609,8.533-50.145,84.894-21.455,123.47c24.137,32.454-112.764-14.88-129.557-23.807
			C217.105,351.865,266.531,312.915,288.061,299.18z"/>
		<g>
			<path style="fill:#49CB8B;" d="M471.161,152.298c-19.818,2.907-29.331,32.238-29.331,63.683c0,32.131-34.352,63.947-61.04,39.901
				c-26.689-24.046-8.984-54.963-8.984-54.963c-13.212,9.513-59.19-7.399-43.336-40.165
				c18.746-38.741,100.412-26.424,100.412-26.424C452.84,137.236,471.161,152.298,471.161,152.298z"/>
			<path style="fill:#13B766;" d="M371.806,200.927c-13.212,9.514-59.193-7.397-43.336-40.173
				c18.752-38.737,100.412-26.425,100.412-26.425c23.951,2.912,42.274,17.974,42.274,17.974
				C409.059,147.809,371.806,200.927,371.806,200.927z"/>
		</g>
		<g>
			<path style="fill:#49CB8B;" d="M199.524,30.063c19.818,2.907,29.331,32.238,29.331,63.683c0,32.131,34.352,63.947,61.04,39.901
				c26.689-24.046,8.984-54.963,8.984-54.963c13.212,9.513,59.19-7.399,43.336-40.165C323.469-0.222,241.803,12.095,241.803,12.095
				C217.844,15.002,199.524,30.063,199.524,30.063z"/>
			<path style="fill:#13B766;" d="M298.879,78.692c13.212,9.514,59.193-7.397,43.336-40.173
				C323.463-0.218,241.803,12.094,241.803,12.094c-23.951,2.912-42.274,17.974-42.274,17.974
				C261.626,25.574,298.879,78.692,298.879,78.692z"/>
		</g>
		<g>
			<path style="fill:#FCD0A3;" d="M492.407,361.118h-0.009l-130.57,104.736c-10.73,8.609-24.499,12.529-38.163,10.861
				l-175.98-21.417l-46.89,17.345c-25.189-25.905-14.838-109.255-14.838-109.255l11.167-3.056
				c-0.969-14.921,6.068-29.737,19.13-38.215c1.441-0.943,2.951-1.799,4.54-2.576l75.461-36.853l38.809-18.955
				c2.113-1.03,4.27-1.842,6.461-2.436c16.222-4.444,33.832,2.689,42.135,17.986c9.42,17.366,3.484,39.071-13.463,49.225
				l-62.731,37.595L313.03,384.49c12.703,2.209,25.774-0.463,36.6-7.491l104.989-68.153c14.083-9.15,32.819-5.972,43.113,7.308
				c2.663,3.44,4.531,7.255,5.623,11.219C506.656,339.421,502.753,352.815,492.407,361.118z"/>
			<path style="fill:#FFB983;" d="M323.377,448.584c-72.294,9.39-122.134-33.003-152.288-72.887
				c-14.951-19.776-9.91-48.063,10.962-61.442c72.8-46.665,91.63-44.95,101.609-34.971c-8.303-15.297-25.913-22.43-42.135-17.986
				c-2.191,0.594-4.348,1.406-6.461,2.436l-38.809,18.955l-61.163,29.87c0,0-0.006,0.01-0.007,0.012l-14.29,6.971
				c-15.951,7.788-24.743,24.22-23.67,40.791l-11.167,3.056c0,0-10.351,83.35,14.838,109.255l46.89-17.345l175.98,21.417
				c13.664,1.668,27.433-2.253,38.163-10.861l130.57-104.736C447.277,348.877,372.069,441.136,323.377,448.584z"/>
			<path style="fill:#FA4954;" d="M70.34,352.898c-22.588,2.757-43.534,10.158-62.839,22.205
				c12.617,43.042,27.539,85.27,44.765,126.683c22.588-2.757,43.534-10.158,62.839-22.205
				C102.487,436.539,87.566,394.311,70.34,352.898z"/>
			<path style="fill:#E21F2D;" d="M115.105,479.581c-19.303,12.055-40.246,19.455-62.838,22.208
				c-4.484-10.79-8.806-21.631-12.976-32.522c23.534-2.905,45.388-10.547,65.561-22.937
				C108.424,457.363,111.845,468.447,115.105,479.581z"/>
		</g>
		<path style="fill:#D5694C;" d="M336.202,280.616c-1.417,0.223-2.824,0.466-4.221,0.739l-0.223,0.04
			C333.286,280.879,334.775,280.616,336.202,280.616z"/>
	</g>
	<g>
		<path d="M510.588,325.374c-1.384-5.011-3.714-9.656-6.93-13.814c-12.581-16.231-35.917-20.185-53.122-9.004l-28.692,18.625
			c-16.505-17.909-41.57-38.199-74.902-46.085c4.228-17.519,8.659-30.733,12.754-40.62c1.976,9.161,6.764,18.589,16.073,26.977
			c7.588,6.836,16.413,10.338,25.485,10.338c5.132,0,10.345-1.122,15.453-3.395c18.902-8.413,32.622-30.457,32.622-52.416
			c0-31.147,9.425-54.283,22.919-56.262c2.937-0.431,5.343-2.552,6.138-5.411c0.795-2.859-0.17-5.918-2.463-7.803
			c-0.815-0.671-20.252-16.444-46.032-19.607c-4.243-0.629-67.037-9.398-97.077,16.352c-5.459-27.215-12.106-44.313-17.738-54.876
			c8.725-1.22,18.003-5.066,25.22-11.127c13.099-11,16.258-26.308,8.668-41.997C328.232-7.593,245.68,3.939,240.794,4.664
			c-25.779,3.163-45.218,18.935-46.034,19.606c-2.292,1.884-3.258,4.943-2.463,7.802s3.201,4.981,6.137,5.412
			c4.123,0.605,14.315,4.543,19.888,27.971c0.958,4.03,5.003,6.52,9.032,5.561c4.03-0.958,6.52-5.002,5.561-9.032
			c-3.62-15.221-9.829-26.476-18.024-33.033c6.931-3.822,16.735-8.065,27.816-9.409c0.072-0.009,0.144-0.019,0.216-0.03
			c21.195-3.197,79.137-5.428,92.541,22.269c4.551,9.407,2.932,17.474-4.813,23.978c-9.251,7.77-22.189,9.229-26.643,7.25
			c-4.899-6.473-27.095-33.587-63.251-45.331c-3.941-1.281-8.17,0.876-9.45,4.816c-1.279,3.939,0.877,8.17,4.816,9.45
			c33.788,10.975,54.421,38.072,56.433,40.804c1.729,3.297,12.926,26.761-7.684,45.323c-9.466,8.532-18.706,7.094-24.792,4.386
			c-13.303-5.919-23.723-22.925-23.723-38.716c0-4.142-3.358-7.5-7.5-7.5s-7.5,3.358-7.5,7.5c0,21.964,13.721,44.01,32.626,52.421
			c5.108,2.272,10.315,3.393,15.447,3.393c9.071,0,17.899-3.504,25.483-10.34c8.213-7.397,12.906-15.604,15.257-23.725
			c3.619,10.9,7.314,25.39,10.435,44.496c-5.094,12.35-3.516,24.332,4.349,34.012c2.322,23.912,3.577,50.901,3.731,80.37
			c-11.735,2.455-23.186,6.62-34.213,12.427c-0.889-3.782-2.28-7.512-4.222-11.093c-9.886-18.214-30.736-27.114-50.688-21.646
			c-2.654,0.722-5.275,1.709-7.792,2.938l-114.243,55.801c-1.839,0.89-3.648,1.915-5.352,3.031
			c-13.327,8.651-21.62,23.135-22.549,38.798l-9.391,2.602c-0.983-2.407-1.972-4.81-2.969-7.208
			c-1.292-3.106-4.492-4.971-7.833-4.564c-23.577,2.877-45.75,10.712-65.901,23.287c-2.854,1.781-4.173,5.244-3.227,8.473
			c12.635,43.102,27.788,85.984,45.037,127.454c1.174,2.822,3.924,4.62,6.921,4.62c0.302,0,0.606-0.019,0.912-0.056
			c23.577-2.877,45.75-10.712,65.901-23.287c2.854-1.781,4.173-5.244,3.227-8.473c-0.422-1.439-0.854-2.878-1.281-4.316
			l27.565-10.197l174.165,21.199c2.336,0.285,4.678,0.426,7.016,0.426c13.268,0,26.36-4.533,36.759-12.881l55.66-44.648
			c3.231-2.592,3.75-7.313,1.158-10.543c-2.591-3.231-7.313-3.749-10.543-1.158l-55.664,44.651
			c-9.099,7.305-20.971,10.681-32.569,9.265l-175.973-21.419c-1.186-0.144-2.389-0.004-3.508,0.411l-28.432,10.518
			c-9.157-29.493-19.469-58.801-30.801-87.543l13.278-3.679c3.424-0.949,5.713-4.169,5.481-7.715
			c-0.818-12.559,5.209-24.603,15.755-31.449c1.191-0.78,2.434-1.485,3.718-2.106l114.265-55.812
			c1.669-0.814,3.401-1.468,5.162-1.947c13.21-3.622,27.01,2.272,33.555,14.33c7.527,13.875,2.816,31.1-10.728,39.215
			l-62.727,37.604c-2.688,1.611-4.09,4.723-3.517,7.804c0.573,3.08,3,5.48,6.087,6.018l105.567,18.382
			c14.608,2.539,29.516-0.512,41.969-8.589l104.989-68.154c10.896-7.083,25.126-4.667,33.091,5.608
			c2.013,2.601,3.47,5.502,4.326,8.606c2.591,9.464-0.631,19.542-8.209,25.753c-0.071,0.053-0.142,0.107-0.212,0.164l-51.229,41.096
			c-3.23,2.592-3.749,7.312-1.157,10.543c1.481,1.847,3.658,2.808,5.855,2.808c1.646,0,3.304-0.54,4.688-1.65l50.998-40.911
			c0.081-0.06,0.161-0.122,0.24-0.185C509.488,357.027,514.785,340.707,510.588,325.374z M56.977,493.547
			c-15.392-37.511-29.042-76.139-40.635-114.995c15.322-8.771,31.856-14.614,49.287-17.416
			c15.393,37.514,29.042,76.141,40.634,114.995C90.942,484.903,74.408,490.746,56.977,493.547z M342.832,236.407
			c-0.428-10.454-1.013-20.519-1.756-30.155c4.447,2.085,9.134,3.515,13.695,4.238C351.132,216.651,347.024,225.05,342.832,236.407z
			 M427.764,141.746c0.071,0.011,0.143,0.021,0.215,0.029c11.01,1.336,20.827,5.589,27.783,9.42
			c-4.883,3.896-9.702,9.972-13.62,19.353c-5.038,12.064-7.813,28.199-7.813,45.433c0,15.788-10.42,32.792-23.722,38.711
			c-6.086,2.708-15.331,4.147-24.798-4.382c-20.771-18.715-9.227-42.399-7.655-45.37c2.166-2.952,22.599-29.784,56.405-40.764
			c3.94-1.28,6.097-5.511,4.816-9.45c-1.279-3.94-5.515-6.093-9.449-4.816c-36.2,11.758-58.397,38.912-63.261,45.344
			c-4.474,1.971-17.398,0.503-26.639-7.26c-7.74-6.502-9.357-14.568-4.807-23.973C348.596,136.376,406.557,138.569,427.764,141.746z
			 M345.553,370.706c-9.269,6.012-20.363,8.282-31.234,6.394l-85.706-14.924l45.437-27.239
			c11.791-7.064,19.138-18.703,21.079-31.308c13.101-7.873,26.896-13.056,41.073-15.416c32.188,5.357,56.658,24.188,72.864,41.264
			L345.553,370.706z"/>
		<path d="M242.574,326.418c3.07,0,6.186-0.74,9.082-2.285l9.411-5.019c3.654-1.949,5.037-6.492,3.089-10.147
			c-1.95-3.654-6.491-5.039-10.147-3.088l-9.411,5.019c-1.877,1.002-4.256,0.429-5.417-1.303
			c-6.341-9.468-8.308-19.131-8.327-19.227c-0.791-4.056-4.717-6.706-8.774-5.931c-4.068,0.78-6.733,4.71-5.953,8.778
			c0.098,0.51,2.488,12.627,10.591,24.727C230.384,323.415,236.387,326.418,242.574,326.418z"/>
	</g>
</g>
<g>
</g>
<g>
</g>
<g>
</g>
<g>
</g>
<g>
</g>
<g>
</g>
<g>
</g>
<g>
</g>
<g>
</g>
<g>
</g>
<g>
</g>
<g>
</g>
<g>
</g>
<g>
</g>
<g>
</g>
</svg>
