<?xml version="1.0" encoding="iso-8859-1"?>
<!-- Generator: Adobe Illustrator 21.0.0, SVG Export Plug-In . SVG Version: 6.00 Build 0)  -->
<svg version="1.1" id="Capa_1" xmlns="http://www.w3.org/2000/svg" xmlns:xlink="http://www.w3.org/1999/xlink" x="0px" y="0px"
	 viewBox="0 0 511.999 511.999" style="enable-background:new 0 0 511.999 511.999;" xml:space="preserve">
<g>
	<g>
		<path style="fill:#FA4954;" d="M361.395,423.225c-3.04,25.75-9.55,51.88-18.34,78.31c-58.04,3.97-116.071,3.97-174.111,0
			c-8.79-26.43-15.3-52.56-18.34-78.31c-1.82-15.34-2.4-30.55-1.5-45.61c0.1-1.71,0.22-3.42,0.36-5.12
			c71.02-5.95,142.041-5.95,213.071,0c0.14,1.7,0.26,3.41,0.36,5.12C363.795,392.674,363.215,407.885,361.395,423.225z"/>
		<path style="fill:#E21F2D;" d="M226.214,504.164c-19.09-0.45-38.18-1.33-57.27-2.63c-14.61-43.95-22.93-87.06-19.48-129.041
			c23.52-1.97,47.04-3.29,70.57-3.95C219.084,412.724,221.664,458.024,226.214,504.164z"/>
		<path style="fill:#E21F2D;" d="M361.395,423.225H150.604c-1.82-15.34-2.4-30.55-1.5-45.61h213.791
			C363.795,392.674,363.215,407.885,361.395,423.225z"/>
		<path style="fill:#49CB8B;" d="M426.89,171.052c0,17.365-22.108,31.023-27.195,46.692c-5.273,16.24,4.401,40.249-5.436,53.767
			c-9.936,13.652-35.826,11.822-49.479,21.758c-13.517,9.837-19.722,35.08-35.962,40.353c-15.669,5.088-35.456-11.521-52.821-11.521
			c-17.365,0-37.151,16.609-52.82,11.521c-16.24-5.273-22.445-30.516-35.962-40.353c-13.652-9.936-39.543-8.106-49.479-21.758
			c-9.837-13.517-0.163-37.527-5.436-53.766c-5.088-15.669-27.195-29.328-27.195-46.693c0-17.365,22.108-31.023,27.195-46.692
			c5.273-16.24-4.401-40.249,5.436-53.767c9.936-13.652,35.826-11.822,49.479-21.758c13.517-9.837,19.722-35.08,35.962-40.353
			c15.669-5.088,35.456,11.521,52.821,11.521c17.365,0,37.151-16.609,52.82-11.521c16.24,5.273,22.445,30.516,35.962,40.353
			c13.652,9.936,39.543,8.106,49.479,21.758c9.837,13.517,0.163,37.527,5.436,53.766C404.783,140.028,426.89,153.687,426.89,171.052
			z"/>
		<path style="fill:#13B766;" d="M214.194,293.264c5.43,8.4,8.35,28.01,13.84,36.86c-8.76,3.35-17.29,5.96-24.86,3.5
			c-16.24-5.28-22.44-30.52-35.96-40.36c-13.65-9.93-39.54-8.1-49.48-21.75c-9.84-13.52-0.16-37.53-5.43-53.77
			c-5.09-15.67-27.2-29.33-27.2-46.69c0-17.37,22.11-31.03,27.2-46.69c5.27-16.24-4.41-40.25,5.43-53.77
			c9.94-13.65,35.83-11.82,49.48-21.76c13.52-9.84,19.72-35.08,35.96-40.35c7.57-2.46,16.1,0.15,24.86,3.5
			c-5.49,8.85-8.41,28.46-13.84,36.85c-6.43,9.94-18.62,8.11-23.3,21.76c-4.64,13.52-0.08,37.53-2.56,53.77
			c-2.4,15.66-12.81,29.32-12.81,46.69c0,17.36,10.41,31.02,12.81,46.69c2.48,16.24-2.08,40.25,2.56,53.77
			C195.574,285.164,207.764,283.334,214.194,293.264z"/>
		<polyline style="fill:#D5694C;" points="274.824,290.3 274.824,383.476 237.172,383.476 237.172,290.3 		"/>
		<polyline style="fill:#A64C31;" points="254.369,290.3 254.369,383.476 237.172,383.476 237.172,290.3 		"/>
		<path style="fill:#FA4954;" d="M366.213,406.282H145.783c-6.784,0-12.283-5.499-12.283-12.283v-21.044
			c0-6.784,5.499-12.283,12.283-12.283h220.429c6.784,0,12.283,5.499,12.283,12.283v21.044
			C378.496,400.782,372.996,406.282,366.213,406.282z"/>
		<path style="fill:#E21F2D;" d="M203.45,406.289h-57.66c-6.79,0-12.29-5.5-12.29-12.29v-21.04c0-6.78,5.5-12.28,12.29-12.28h57.66
			c-6.78,0-12.28,5.5-12.28,12.28v21.04C191.17,400.789,196.67,406.289,203.45,406.289z"/>
	</g>
	<path d="M418.195,138.918c-4.961-5.955-9.646-11.579-11.366-16.87c-1.847-5.692-1.379-13.254-0.884-21.261
		c0.754-12.179,1.533-24.772-5.625-34.607c-7.225-9.932-19.507-13.077-31.384-16.118c-7.712-1.975-14.996-3.841-19.738-7.293
		c-4.642-3.379-8.611-9.669-12.813-16.33c-6.284-9.959-13.406-21.246-25.252-25.09c-11.369-3.693-22.984,0.896-34.22,5.333
		c-7.244,2.861-14.734,5.82-20.918,5.82c-6.178,0-13.667-2.958-20.91-5.818c-11.237-4.438-22.861-9.028-34.225-5.335
		c-11.849,3.845-18.968,15.132-25.248,25.09c-4.201,6.66-8.169,12.951-12.819,16.336c-2.638,1.926-6.253,3.507-11.72,5.127
		c-3.972,1.177-6.237,5.351-5.06,9.322c1.176,3.971,5.346,6.237,9.321,5.06c4.839-1.434,11.064-3.57,16.293-7.387
		c6.968-5.072,11.901-12.893,16.671-20.456c5.402-8.565,10.505-16.655,17.193-18.825c6.242-2.028,14.908,1.396,24.083,5.02
		c8.548,3.376,17.387,6.867,26.42,6.867c9.039,0,17.879-3.492,26.429-6.869c9.171-3.623,17.828-7.046,24.077-5.018
		c6.687,2.17,11.792,10.261,17.198,18.828c4.771,7.562,9.706,15.382,16.671,20.452c7.064,5.144,16.104,7.459,24.846,9.697
		c9.733,2.493,18.927,4.847,22.976,10.413c3.982,5.471,3.399,14.886,2.783,24.855c-0.561,9.053-1.14,18.414,1.588,26.821
		c2.614,8.041,8.457,15.055,14.108,21.838c6.544,7.855,12.725,15.274,12.725,22.534c0,7.251-6.178,14.667-12.718,22.518
		c-5.654,6.788-11.501,13.806-14.116,21.857c-2.727,8.403-2.147,17.764-1.587,26.817c0.616,9.968,1.199,19.384-2.783,24.856
		c-4.05,5.566-13.247,7.92-22.984,10.412c-8.737,2.236-17.772,4.549-24.835,9.687c-6.969,5.071-11.903,12.893-16.676,20.458
		c-5.405,8.567-10.511,16.66-17.2,18.834c-6.217,2.022-14.87-1.389-24.03-5.002c-0.047-0.019-0.094-0.036-0.142-0.055V290.3
		c0-4.142-3.357-7.5-7.5-7.5s-7.5,3.358-7.5,7.5v62.871h-22.651V290.3c0-4.142-3.357-7.5-7.5-7.5s-7.5,3.358-7.5,7.5v31.136
		c-0.046,0.018-0.091,0.035-0.137,0.053c-9.161,3.613-17.816,7.026-24.042,5.003c-6.688-2.174-11.79-10.266-17.192-18.832
		c-4.771-7.565-9.704-15.388-16.675-20.461c-7.062-5.137-16.099-7.45-24.837-9.686c-9.739-2.492-18.938-4.846-22.989-10.41
		c-3.978-5.469-3.394-14.883-2.776-24.849c0.562-9.056,1.142-18.42-1.587-26.828c-2.614-8.048-8.461-15.067-14.115-21.854
		c-6.54-7.852-12.718-15.267-12.718-22.518c0-7.26,6.181-14.679,12.725-22.534c5.651-6.783,11.494-13.797,14.109-21.842
		c2.728-8.405,2.147-17.769,1.586-26.825c-0.617-9.966-1.201-19.38,2.765-24.834c1.14-1.56,2.702-2.915,4.776-4.143
		c3.564-2.111,4.742-6.711,2.632-10.275c-2.11-3.565-6.711-4.741-10.274-2.632c-3.856,2.284-6.88,4.965-9.255,8.213
		c-7.149,9.833-6.369,22.423-5.614,34.598c0.496,8.01,0.965,15.574-0.882,21.264c-1.721,5.295-6.406,10.919-11.367,16.874
		c-7.594,9.115-16.2,19.446-16.2,32.135c0,12.68,8.603,23.007,16.192,32.119c4.964,5.959,9.652,11.587,11.374,16.886
		c1.848,5.693,1.379,13.259,0.883,21.268c-0.755,12.175-1.535,24.765,5.618,34.603c7.232,9.932,19.518,13.076,31.399,16.116
		c7.71,1.973,14.992,3.837,19.73,7.283c4.643,3.379,8.611,9.672,12.813,16.334c6.279,9.958,13.397,21.244,25.243,25.096
		c2.915,0.947,5.846,1.349,8.782,1.349c6.689,0,13.41-2.09,20.033-4.581v15.646h-83.889c-10.909,0-19.784,8.875-19.784,19.784
		v21.044c0,9.645,6.942,17.688,16.089,19.425c2.248,27.697,8.721,57.375,19.739,90.48c0.961,2.886,3.569,4.907,6.604,5.114
		c29.053,1.987,58.31,2.981,87.567,2.981s58.515-0.994,87.567-2.981c3.036-0.208,5.646-2.229,6.605-5.117
		c3.693-11.111,6.911-21.948,9.564-32.208c1.036-4.011-1.374-8.102-5.385-9.139c-4.01-1.037-8.103,1.374-9.139,5.384
		c-2.187,8.46-4.774,17.336-7.71,26.45c-54.111,3.482-108.898,3.482-163.01,0c-9.482-29.404-15.169-55.896-17.318-80.605h197.655
		c-0.726,8.311-1.848,16.828-3.354,25.418c-0.715,4.08,2.013,7.967,6.093,8.682c0.438,0.077,0.874,0.114,1.304,0.114
		c3.574,0,6.74-2.565,7.379-6.207c1.681-9.588,2.901-19.098,3.656-28.367c9.147-1.737,16.089-9.78,16.089-19.424v-21.044
		c0-10.909-8.875-19.784-19.784-19.784h-83.889v-15.647c6.624,2.493,13.343,4.582,20.031,4.582c2.936,0,5.866-0.402,8.779-1.35
		c11.844-3.851,18.965-15.137,25.248-25.095c4.203-6.662,8.173-12.954,12.814-16.333c4.738-3.447,12.021-5.311,19.729-7.284
		c11.881-3.041,24.166-6.185,31.394-16.118c7.158-9.836,6.379-22.429,5.625-34.608c-0.495-8.007-0.963-15.57,0.883-21.259
		c1.723-5.301,6.411-10.93,11.375-16.889c7.59-9.111,16.192-19.439,16.192-32.119C434.395,158.364,425.788,148.033,418.195,138.918z
		 M370.996,372.955v21.044c0,2.638-2.146,4.783-4.784,4.783H145.783c-2.638,0-4.784-2.146-4.784-4.783v-21.044
		c0-2.638,2.146-4.784,4.784-4.784h220.429C368.85,368.171,370.996,370.317,370.996,372.955z"/>
</g>
<g>
</g>
<g>
</g>
<g>
</g>
<g>
</g>
<g>
</g>
<g>
</g>
<g>
</g>
<g>
</g>
<g>
</g>
<g>
</g>
<g>
</g>
<g>
</g>
<g>
</g>
<g>
</g>
<g>
</g>
</svg>
