<?xml version="1.0" encoding="iso-8859-1"?>
<!-- Generator: Adobe Illustrator 21.0.0, SVG Export Plug-In . SVG Version: 6.00 Build 0)  -->
<svg version="1.1" id="Capa_1" xmlns="http://www.w3.org/2000/svg" xmlns:xlink="http://www.w3.org/1999/xlink" x="0px" y="0px"
	 viewBox="0 0 511.911 511.911" style="enable-background:new 0 0 511.911 511.911;" xml:space="preserve">
<g>
	<g>
		<g>
			<path style="fill:#13B766;" d="M470.437,458.243c-0.83,12.21-1.77,24.43-2.82,36.64c-90.79,12.76-181.58,12.76-272.36,0
				c-1.05-12.21-1.99-24.43-2.82-36.64c-6.23-91.55-6.23-183.11,0-274.66c0.83-12.21,1.77-24.43,2.82-36.64
				c90.78-12.76,181.57-12.76,272.36,0c1.05,12.21,1.99,24.43,2.82,36.64C476.667,275.133,476.667,366.693,470.437,458.243z"/>
			<path style="fill:#BEE4C8;" d="M470.437,458.243c-92.67,8.3-185.33,8.3-278,0c-6.23-91.55-6.23-183.11,0-274.66
				c92.67-8.3,185.33-8.3,278,0C476.667,275.133,476.667,366.693,470.437,458.243z"/>
		</g>
		<path style="fill:#49CB8B;" d="M304.439,421.913c47.595-30.071,87.905-70.381,117.976-117.976
			c13.367-21.156,5.148-49.249-17.496-59.904c-0.254-0.119-0.507-0.239-0.761-0.358c-18.918-8.902-41.625-2.473-52.784,15.207
			c-23.431,37.125-54.865,68.559-91.99,91.99c-17.681,11.159-24.109,33.866-15.207,52.784c0.119,0.254,0.239,0.507,0.358,0.761
			C255.191,427.061,283.283,435.279,304.439,421.913z"/>
		<path style="fill:#13B766;" d="M409.616,246.627c-14.76-0.96-29.43,5.96-37.72,19.1c-23.43,37.12-54.86,68.56-91.99,91.99
			c-17.68,11.16-24.11,33.86-15.2,52.78c0.12,0.26,0.24,0.51,0.35,0.76c3.4,7.22,8.56,12.97,14.71,17.02
			c-14.62-0.89-28.45-9.46-35.23-23.86c-0.12-0.25-0.24-0.51-0.36-0.76c-8.9-18.92-2.47-41.62,15.21-52.78
			c37.12-23.43,68.56-54.87,91.99-91.99c11.16-17.68,33.87-24.11,52.78-15.21c0.26,0.12,0.51,0.24,0.76,0.36
			C406.556,244.807,408.126,245.677,409.616,246.627z"/>
		<path style="fill:#02C6DB;" d="M319.485,328.325c-0.83,12.21-1.77,24.43-2.82,36.64c-90.79,12.76-181.58,12.76-272.36,0
			c-1.05-12.21-1.99-24.43-2.82-36.64c-6.23-91.55-6.23-183.11,0-274.66c0.83-12.21,1.77-24.43,2.82-36.64
			c90.78-12.76,181.57-12.76,272.36,0c1.05,12.21,1.99,24.43,2.82,36.64C325.715,145.215,325.715,236.775,319.485,328.325z"/>
		<path style="fill:#A5E4EF;" d="M319.485,328.325c-92.67,8.3-185.33,8.3-278,0c-6.23-91.55-6.23-183.11,0-274.66
			c92.67-8.3,185.33-8.3,278,0C325.715,145.215,325.715,236.775,319.485,328.325z"/>
		<g>
			<g>
				<circle style="fill:#FA4954;" cx="186.964" cy="213.06" r="74.857"/>
				<path style="fill:#E21F2D;" d="M186.976,287.914c-41.342,0-74.87-33.511-74.87-74.854s33.527-74.87,74.87-74.87
					c-17.783,0-32.2,33.527-32.2,74.87S169.193,287.914,186.976,287.914z"/>
				<ellipse style="fill:#FC8086;" cx="231.312" cy="218.477" rx="13.796" ry="24.324"/>
			</g>
			<polygon style="fill:#49CB8B;" points="211.074,159.355 229.355,209.695 177.756,173.441 137.01,205.784 142.197,148.92 
				119.788,133.174 174.089,123.686 213.498,89.576 210.584,120.582 267.549,142.167 			"/>
			<polygon style="fill:#13B766;" points="184.118,142.601 177.756,173.441 137.01,205.784 142.197,148.92 119.788,133.174 
				174.089,123.686 			"/>
		</g>
	</g>
	<g>
		<path d="M104.604,213.063c0,45.413,36.946,82.359,82.359,82.359s82.359-36.946,82.359-82.359c0-21.494-8.106-41.528-22.606-56.714
			l23.016-7.005c3.069-0.934,5.205-3.718,5.313-6.925c0.106-3.207-1.838-6.127-4.838-7.264l-51.621-19.563l2.381-25.314
			c0.287-3.05-1.31-5.968-4.033-7.37c-2.723-1.403-6.025-1.008-8.342,0.997l-30.857,26.705
			c-10.12-13.991-22.264-21.514-23.134-22.04c-3.542-2.145-8.154-1.012-10.3,2.532c-2.146,3.543-1.012,8.155,2.532,10.3
			c0.165,0.1,9.391,5.806,17.507,16.373l-45.845,8.01c-2.988,0.522-5.367,2.793-6.028,5.753c-0.661,2.961,0.525,6.028,3.008,7.772
			l17.037,11.969C114.706,166.919,104.604,189.108,104.604,213.063z M254.323,213.063c0,37.142-30.218,67.359-67.359,67.359
			s-67.359-30.217-67.359-67.359c0-14.525,4.542-28.257,12.824-39.604l-2.887,31.642c-0.272,2.989,1.263,5.853,3.903,7.28
			c2.639,1.426,5.876,1.143,8.229-0.724l36.355-28.857l47.016,33.03c1.296,0.911,2.805,1.363,4.312,1.363
			c1.608,0,3.216-0.517,4.559-1.545c2.601-1.99,3.608-5.438,2.491-8.515l-15.582-42.904l9.349-2.845
			C245.567,174.229,254.323,192.858,254.323,213.063z M172.417,131.59c2.454,5.889,4.064,12.569,4.064,20.008
			c0,4.142,3.357,7.5,7.5,7.5s7.5-3.358,7.5-7.5c0-10.551-2.444-19.825-6.059-27.804l18.862-16.324l-1.167,12.407
			c-0.316,3.361,1.652,6.519,4.809,7.716l36.413,13.8l-35.447,10.788c-1.969,0.6-3.605,1.981-4.525,3.822s-1.043,3.979-0.341,5.913
			l10.149,27.945l-32.107-22.557c-1.297-0.911-2.805-1.363-4.311-1.363c-1.652,0-3.302,0.544-4.664,1.625l-27.021,21.448
			l3.596-39.416c0.244-2.674-0.96-5.275-3.157-6.818l-7.597-5.336L172.417,131.59z"/>
		<path d="M397.541,289.005c-2.399-6.107-11.385-5.973-13.851,0c-1.216,2.947-0.397,6.462,2.028,8.541
			c2.498,2.141,6.161,2.396,8.937,0.638C397.674,296.272,398.929,292.304,397.541,289.005z"/>
		<path d="M369.201,285.095c-2.389-5.777-10.776-6.136-13.608-0.538c-1.4,2.767-0.946,6.2,1.161,8.483
			c2.397,2.596,6.343,3.139,9.373,1.35C369.265,292.537,370.616,288.453,369.201,285.095z"/>
		<path d="M304.69,391.625c-1.243-2.954-4.268-4.843-7.474-4.61c-3.131,0.227-5.829,2.456-6.674,5.476
			c-1.815,6.484,5.569,11.922,11.232,8.333C304.801,398.905,306.095,394.945,304.69,391.625z"/>
		<path d="M477.917,183.076c-0.832-12.246-1.784-24.618-2.829-36.774c-0.3-3.484-2.967-6.298-6.43-6.784
			c-45.781-6.43-92.156-9.664-137.955-9.63c-0.768-25.64-2.001-51.237-3.736-76.732c-0.832-12.247-1.784-24.619-2.829-36.774
			c-0.3-3.483-2.967-6.298-6.429-6.784C226.648-3.2,134.311-3.199,43.261,9.598c-3.462,0.487-6.129,3.301-6.429,6.784
			c-1.048,12.19-2,24.563-2.83,36.775c-0.507,7.466-0.982,15.076-1.414,22.619c-0.237,4.135,2.924,7.68,7.059,7.916
			c4.136,0.233,7.68-2.924,7.916-7.059c0.306-5.342,0.64-10.702,0.986-16.035c87.582-7.476,176.281-7.476,263.863-0.001
			c5.61,86.564,5.61,174.229,0,260.794c-87.581,7.474-176.278,7.474-263.86,0c-4.622-71.329-5.459-143.606-2.464-214.942
			c0.174-4.138-3.04-7.634-7.179-7.808c-4.117-0.172-7.634,3.041-7.808,7.179c-3.108,74.025-2.133,149.058,2.9,223.014
			c0.83,12.21,1.782,24.583,2.83,36.773c0.3,3.483,2.967,6.298,6.429,6.785c45.525,6.399,91.372,9.599,137.221,9.599
			c0.239,0,0.478-0.003,0.716-0.003c0.76,25.456,2.017,51.241,3.755,76.766c0.83,12.212,1.782,24.584,2.83,36.774
			c0.3,3.483,2.967,6.298,6.429,6.785c45.53,6.399,91.367,9.599,137.221,9.598c45.843-0.001,91.703-3.2,137.228-9.598
			c3.462-0.487,6.129-3.301,6.429-6.785c1.045-12.154,1.997-24.526,2.829-36.773C484.141,367.291,484.141,274.54,477.917,183.076z
			 M460.647,153.559c0.601,7.243,1.153,14.537,1.68,21.822c-43.454-3.644-87.387-5.489-130.813-5.496
			c-0.086-8.335-0.227-16.668-0.415-24.998C374.091,144.875,417.614,147.784,460.647,153.559z M419.98,272.17
			c2.736,9.386,1.313,19.503-3.906,27.76c-29.291,46.366-69.28,86.355-115.646,115.645c-8.257,5.216-18.375,6.637-27.758,3.9
			c-9.398-2.741-17.181-9.394-21.376-18.308l-0.334-0.706c-3.088-6.56-4.002-13.798-2.694-20.808
			c23.201-1.599,46.363-4.017,69.442-7.261c3.462-0.487,6.129-3.301,6.429-6.785c1.045-12.155,1.997-24.527,2.829-36.773
			c0.615-9.038,1.152-18.092,1.645-27.152c10.694-12.102,20.485-25.134,29.105-38.794c9.094-14.408,27.686-19.752,43.31-12.396
			l0.706,0.33C410.588,254.988,417.239,262.769,419.98,272.17z M49.592,45.459c0.526-7.273,1.078-14.563,1.68-21.821
			c85.766-11.517,172.649-11.517,258.425,0c0.601,7.242,1.153,14.536,1.679,21.82C224.47,38.172,136.498,38.172,49.592,45.459z
			 M51.272,358.352c-0.602-7.257-1.154-14.547-1.68-21.82c43.453,3.643,87.171,5.489,130.892,5.489
			c43.721,0,87.439-1.846,130.892-5.489c-0.526,7.284-1.078,14.577-1.679,21.82C223.922,369.869,137.038,369.869,51.272,358.352z
			 M202.222,488.273c-0.602-7.257-1.154-14.547-1.68-21.821c43.56,3.65,87.463,5.505,131.239,5.505
			c21.744,0,43.465-0.452,65.077-1.357c4.139-0.173,7.354-3.669,7.18-7.808c-0.169-4.032-3.49-7.186-7.487-7.186
			c-0.106,0-0.213,0.002-0.319,0.006c-65.257,2.734-131.401,1.281-196.717-4.289c-1.499-23.137-2.603-46.424-3.295-69.462
			c12.26-0.196,24.518-0.619,36.767-1.272c-0.975,8.922,0.505,17.983,4.428,26.316l0.334,0.705
			c5.999,12.748,17.197,22.322,30.723,26.266c4.512,1.316,9.139,1.964,13.747,1.964c9.192,0,18.302-2.58,26.222-7.583
			c48.237-30.472,89.842-72.077,120.314-120.313c7.515-11.889,9.565-26.458,5.626-39.971c-1.815-6.226-4.834-11.948-8.798-16.909
			c1.905-2.588,4.062-5.945,5.775-9.766c5.74-12.806,3.916-24.844-5.137-33.898c-2.929-2.929-7.678-2.929-10.606,0
			c-2.93,2.929-2.93,7.677-0.001,10.606c2.85,2.85,6.177,7.698,2.186,16.863c-0.969,2.226-2.184,4.261-3.351,5.972
			c-2.021-1.349-4.146-2.564-6.375-3.613l-0.724-0.338c-22.396-10.541-49.187-2.807-62.316,17.994
			c-4.712,7.467-9.8,14.73-15.196,21.751c1.283-30.526,1.865-61.14,1.773-91.749c43.762,0.012,88.001,1.9,131.752,5.635
			c5.61,86.569,5.61,174.238-0.001,260.807c-12.563,1.075-25.146,2.005-37.5,2.752c-4.134,0.25-7.283,3.805-7.033,7.939
			c0.241,3.981,3.544,7.048,7.479,7.048c0.152,0,0.306-0.005,0.46-0.014c11.717-0.709,23.641-1.579,35.558-2.58
			c-0.526,7.278-1.077,14.565-1.678,21.801C374.87,499.789,287.988,499.789,202.222,488.273z"/>
	</g>
</g>
<g>
</g>
<g>
</g>
<g>
</g>
<g>
</g>
<g>
</g>
<g>
</g>
<g>
</g>
<g>
</g>
<g>
</g>
<g>
</g>
<g>
</g>
<g>
</g>
<g>
</g>
<g>
</g>
<g>
</g>
</svg>
