<?xml version="1.0" encoding="iso-8859-1"?>
<!-- Generator: Adobe Illustrator 21.0.0, SVG Export Plug-In . SVG Version: 6.00 Build 0)  -->
<svg version="1.1" id="Capa_1" xmlns="http://www.w3.org/2000/svg" xmlns:xlink="http://www.w3.org/1999/xlink" x="0px" y="0px"
	 viewBox="0 0 511.997 511.997" style="enable-background:new 0 0 511.997 511.997;" xml:space="preserve">
<g>
	<g>
		<path style="fill:#A5E4EF;" d="M452.584,459.026L255.999,481.76L59.665,459.026c0,0-3.638-11.292-8.496-30.129
			C39.515,383.65,20.864,294.844,28.79,214.179c0,0,64.547-106.718,227.334-190.187c9.805,5.029,19.26,10.146,28.366,15.31
			c30.125,17.112,56.411,34.831,79.15,52.126c12.414,9.452,23.778,18.769,34.113,27.807c13.553,11.842,25.357,23.182,35.502,33.636
			c34.782,35.814,50.204,61.308,50.204,61.308C494.682,328.441,452.584,459.026,452.584,459.026z"/>
		<path style="fill:#02C6DB;" d="M452.592,475.523c-1.677,0-3.382-0.258-5.064-0.8c-8.668-2.795-13.43-12.088-10.636-20.756
			c0.487-1.517,39.932-125.854,30.521-234.236c-5.209-7.802-21.06-30.171-49.251-58.712
			c-31.327-31.715-84.56-77.576-162.037-118.439c-77.477,40.863-130.71,86.724-162.037,118.439
			c-28.178,28.529-44.027,50.89-49.251,58.713c-9.421,108.495,30.116,232.979,30.522,234.239
			c2.789,8.668-1.975,17.959-10.643,20.751c-8.667,2.792-17.957-1.967-20.751-10.635c-1.762-5.465-43.019-135.183-31.589-251.517
			c0.241-2.45,1.027-4.816,2.302-6.922c0.699-1.157,17.566-28.77,54.975-66.823C103.793,104.096,162.552,53.436,248.6,9.317
			c4.724-2.422,10.325-2.422,15.049,0c86.047,44.119,144.807,94.779,178.948,129.508c37.409,38.053,54.276,65.666,54.975,66.823
			c1.274,2.107,2.061,4.472,2.302,6.922c11.43,116.334-29.828,246.052-31.589,251.517
			C466.032,471.074,459.557,475.523,452.592,475.523z"/>
		<path style="fill:#49CB8B;" d="M481.765,459.027H30.232c-12.555,0-22.733,10.178-22.733,22.733v0
			c0,12.555,10.178,22.733,22.733,22.733h451.532c12.555,0,22.733-10.178,22.733-22.733v0
			C504.497,469.205,494.32,459.027,481.765,459.027z"/>
		<path style="fill:#13B766;" d="M81.882,497.841c4.118,4.108,9.805,6.657,16.082,6.657H30.228c-6.277,0-11.954-2.549-16.072-6.657
			c-4.118-4.118-6.657-9.805-6.657-16.082c0-12.554,10.175-22.728,22.728-22.728h67.735c-12.554,0-22.738,10.175-22.738,22.728
			C75.225,488.036,77.774,493.724,81.882,497.841z"/>
		<g>
			
				<ellipse transform="matrix(0.7071 -0.7071 0.7071 0.7071 -173.4367 250.4566)" style="fill:#FA4954;" cx="215.61" cy="334.585" rx="39.444" ry="39.444"/>
			<path style="fill:#E21F2D;" d="M250.537,352.937c-1.805,3.431-4.148,6.65-7.035,9.537c-15.403,15.403-40.38,15.407-55.783,0.003
				s-15.403-40.383,0-55.787c2.887-2.887,6.106-5.23,9.537-7.035c-7.828,14.889-5.478,33.73,7.038,46.247
				C216.81,358.419,235.648,360.765,250.537,352.937z"/>
			
				<ellipse transform="matrix(0.7071 -0.7071 0.7071 0.7071 -168.7828 239.2212)" style="fill:#A71F29;" cx="204.374" cy="323.349" rx="23.555" ry="23.555"/>
		</g>
		<g>
			<circle style="fill:#FA4954;" cx="256.124" cy="196.566" r="84.054"/>
			<path style="fill:#E21F2D;" d="M281.099,276.848c-7.89,2.45-16.27,3.77-24.97,3.77c-46.42,0-84.06-37.63-84.06-84.05
				s37.64-84.06,84.06-84.06c8.7,0,17.08,1.32,24.97,3.77c-34.23,10.64-59.08,42.57-59.08,80.29S246.87,266.208,281.099,276.848z"/>
			<circle style="fill:#A71F29;" cx="256.124" cy="162.707" r="50.194"/>
			<path style="fill:#E4989D;" d="M294.684,189.042c0,2.19-0.18,4.33-0.53,6.42v0.01c-9.21,10.67-22.83,17.43-38.03,17.43
				c-15.21,0-28.84-6.77-38.04-17.45c-0.35-2.08-0.53-4.23-0.53-6.41c0-21.3,17.27-38.57,38.57-38.57
				C277.424,150.472,294.684,167.742,294.684,189.042z"/>
		</g>
		<path style="fill:#49CB8B;" d="M278.586,339.242c-15.939,15.939-22.925,37.439-20.962,58.255
			c20.816,1.963,42.316-5.023,58.255-20.962s22.925-37.439,20.962-58.255C316.025,316.318,294.525,323.303,278.586,339.242z"/>
	</g>
	<path d="M481.765,451.527h-1.909c10.439-36.974,36.957-143.291,27.486-239.689c-0.347-3.539-1.509-7.023-3.354-10.064
		c-0.715-1.185-17.962-29.47-56.042-68.201C413.421,98.45,354.015,47.225,267.081,2.652c-6.854-3.528-15.045-3.529-21.904-0.005
		C158.232,47.225,98.826,98.45,64.301,133.572c-38.08,38.731-55.327,67.016-56.035,68.188c-1.845,3.042-3.003,6.527-3.351,10.076
		c-9.476,96.451,17.035,202.727,27.475,239.691h-2.158C13.562,451.527,0,465.089,0,481.76s13.562,30.232,30.232,30.232h451.532
		c16.67,0,30.232-13.562,30.232-30.232S498.435,451.527,481.765,451.527z M19.844,213.3c0.132-1.347,0.552-2.613,1.256-3.774
		c0.678-1.124,17.038-27.948,53.898-65.438c33.75-34.334,91.859-84.428,177.027-128.096c2.57-1.319,5.631-1.32,8.201,0.002
		C345.39,59.66,403.499,109.753,437.25,144.088c36.859,37.49,53.219,64.314,53.905,65.45c0.705,1.161,1.128,2.427,1.259,3.764
		c9.602,97.735-18.956,206.501-28.158,238.224h-18.779c7.15-23.976,37.922-134.435,29.403-232.447
		c-0.109-1.255-0.533-2.463-1.231-3.511c-5.578-8.365-21.629-30.94-50.153-59.819c-31.372-31.772-85.266-78.347-163.867-119.803
		c-2.19-1.155-4.808-1.156-6.998,0C174.061,77.38,120.147,123.965,88.758,155.745c-1.896,1.916-3.73,3.812-5.515,5.667
		c-2.871,2.985-2.778,7.733,0.208,10.604c2.986,2.871,7.734,2.778,10.604-0.208c1.735-1.805,3.521-3.649,5.37-5.518
		c30.184-30.559,81.727-75.151,156.703-115.218c75.006,40.088,126.531,84.671,156.693,115.218
		c25.956,26.278,41.117,46.975,47.276,56.014c8.541,104.923-28.754,224.331-30.303,229.223H263.624v-46.225
		c0.304,0.003,0.608,0.021,0.912,0.021c21.196,0,41.506-8.341,56.646-23.482c0.914-0.914,1.853-1.898,2.87-3.011
		c2.796-3.056,2.585-7.8-0.471-10.596c-3.057-2.795-7.8-2.584-10.596,0.471c-0.866,0.947-1.654,1.774-2.409,2.529
		c-9.409,9.409-21.277,15.572-34.043,17.96l37.491-37.491c2.929-2.929,2.929-7.678,0-10.606c-2.929-2.929-7.678-2.929-10.606,0
		l-37.488,37.488c2.388-12.763,8.552-24.632,17.963-34.044c12.239-12.239,28.634-19.012,45.764-19.087
		c-0.039,6.851-1.148,13.716-3.278,20.16c-1.3,3.933,0.834,8.175,4.767,9.475s8.175-0.835,9.475-4.767
		c3.497-10.581,4.737-21.599,3.686-32.748c-0.338-3.586-3.178-6.425-6.764-6.763c-23.895-2.251-47.311,6.178-64.256,23.124
		c-3.617,3.617-6.842,7.53-9.662,11.677v-27.77l7.193-7.193c2.929-2.929,2.929-7.677,0-10.606c-1.95-1.95-4.704-2.594-7.193-1.948
		v-10.285c46.988-3.828,84.054-43.287,84.054-91.245c0-50.483-41.071-91.554-91.554-91.554s-91.554,41.071-91.554,91.554
		c0,47.958,37.066,87.417,84.054,91.245v13.408c-18.318-18.127-47.964-18.073-66.208,0.172c-18.304,18.304-18.304,48.086,0,66.39
		c9.152,9.152,21.173,13.728,33.195,13.728c11.943,0,23.884-4.522,33.014-13.556v47.453c-1.6,0.198-3.149,0.904-4.377,2.132
		c-2.929,2.929-2.929,7.678,0,10.606l4.377,4.377v19.006H82.453c-1.401-4.402-38.879-123.766-30.304-229.22
		c3.795-5.559,11.027-15.569,22.116-28.622c2.682-3.157,2.297-7.89-0.86-10.572c-3.156-2.681-7.89-2.297-10.572,0.86
		c-12.73,14.984-20.646,26.224-24.23,31.589c-0.701,1.05-1.126,2.26-1.235,3.518c-8.455,97.388,22.287,208.409,29.411,232.446
		H47.991C38.79,419.816,10.236,311.093,19.844,213.3z M298.818,162.707c0,2.558-0.239,5.06-0.672,7.496
		c-7.214-16.036-23.328-27.234-42.018-27.234c-18.694,0-34.811,11.198-42.027,27.233c-0.433-2.435-0.672-4.937-0.672-7.495
		c0-23.542,19.152-42.695,42.694-42.695S298.818,139.165,298.818,162.707z M225.223,192.122c-0.099-1.021-0.165-2.049-0.165-3.084
		c0-17.132,13.938-31.07,31.07-31.07c17.126,0,31.06,13.938,31.06,31.07c0,1.035-0.066,2.064-0.165,3.086
		c-7.782,8.17-18.752,13.278-30.899,13.278C243.976,205.401,233.005,200.293,225.223,192.122z M256.124,220.401
		c11.547,0,22.303-3.423,31.333-9.288c-5.984,12.546-14.412,24.108-25.473,32.354c-16.306,12.157-35.851,15.167-58.114,8.971
		c-14.938-13.979-24.3-33.848-24.3-55.873c0-21.174,8.644-40.365,22.585-54.238c-2.402,6.34-3.726,13.207-3.726,20.379
		C198.429,194.52,224.311,220.401,256.124,220.401z M270.949,255.494c29.454-21.959,42.869-63.491,42.869-92.787
		c0-7.177-1.332-14.045-3.738-20.39c13.948,13.873,22.596,33.068,22.596,54.248c0,42.212-34.342,76.554-76.554,76.554
		c-7.493,0-14.73-1.101-21.579-3.117C247.778,268.475,260.052,263.618,270.949,255.494z M193.021,311.997
		c3.13-3.13,7.241-4.695,11.353-4.695s8.223,1.565,11.353,4.695c6.26,6.26,6.26,16.446,0,22.706c-6.26,6.259-16.446,6.26-22.706,0
		c-3.033-3.033-4.703-7.064-4.703-11.353C188.319,319.061,189.989,315.029,193.021,311.997z M204.374,354.39
		c7.952,0,15.906-3.028,21.959-9.081c10.61-10.61,11.922-27.05,3.937-39.103c2.856,1.473,5.536,3.4,7.927,5.791
		c12.455,12.455,12.455,32.722,0,45.177c-12.455,12.455-32.721,12.455-45.176,0c-2.391-2.391-4.319-5.072-5.792-7.928
		C192.405,352.674,198.388,354.39,204.374,354.39z M481.765,496.992H30.232c-8.399,0-15.232-6.833-15.232-15.232
		c0-8.399,6.833-15.233,15.232-15.233h451.532c8.399,0,15.232,6.833,15.232,15.233C496.997,490.159,490.164,496.992,481.765,496.992
		z"/>
</g>
<g>
</g>
<g>
</g>
<g>
</g>
<g>
</g>
<g>
</g>
<g>
</g>
<g>
</g>
<g>
</g>
<g>
</g>
<g>
</g>
<g>
</g>
<g>
</g>
<g>
</g>
<g>
</g>
<g>
</g>
</svg>
