<?xml version="1.0" encoding="iso-8859-1"?>
<!-- Generator: Adobe Illustrator 21.0.0, SVG Export Plug-In . SVG Version: 6.00 Build 0)  -->
<svg version="1.1" id="Capa_1" xmlns="http://www.w3.org/2000/svg" xmlns:xlink="http://www.w3.org/1999/xlink" x="0px" y="0px"
	 viewBox="0 0 512 512" style="enable-background:new 0 0 512 512;" xml:space="preserve">
<g>
	<g>
		<path style="fill:#49CB8B;" d="M504.5,250.657c0,25.251-32.147,45.112-39.545,67.897c-7.668,23.615,6.4,58.528-7.905,78.184
			c-14.448,19.852-52.096,17.191-71.948,31.639c-19.656,14.305-28.679,51.011-52.293,58.679
			c-22.785,7.398-51.557-16.753-76.809-16.753c-25.251,0-54.023,24.151-76.807,16.753c-23.615-7.667-32.638-44.374-52.294-58.679
			c-19.852-14.448-57.5-11.787-71.948-31.639c-14.305-19.656-0.237-54.569-7.904-78.183C39.648,295.77,7.5,275.908,7.5,250.657
			c0-25.251,32.147-45.112,39.545-67.897c7.667-23.615-6.4-58.528,7.905-78.184c14.448-19.852,52.096-17.191,71.948-31.639
			c19.656-14.305,28.679-51.011,52.293-58.679C201.976,6.861,230.749,31.011,256,31.011c25.251,0,54.023-24.151,76.807-16.753
			c23.615,7.667,32.638,44.374,52.294,58.679c19.852,14.448,57.5,11.787,71.948,31.639c14.305,19.656,0.237,54.569,7.904,78.183
			C472.352,205.544,504.5,225.406,504.5,250.657z"/>
		<path style="fill:#13B766;" d="M190.37,428.38c8.75,12.52,13.35,42.2,22.42,54.55c-11.83,4.38-23.32,7.46-33.59,4.13
			c-23.62-7.67-32.64-44.38-52.3-58.68c-19.85-14.45-57.5-11.79-71.95-31.64c-14.3-19.66-0.23-54.57-7.9-78.19
			c-7.4-22.78-39.55-42.64-39.55-67.89s32.15-45.11,39.55-67.9c7.67-23.61-6.4-58.53,7.9-78.18c14.45-19.86,52.1-17.19,71.95-31.64
			c19.66-14.31,28.68-51.01,52.29-58.68c10.28-3.34,21.77-0.26,33.6,4.13c-9.07,12.35-13.67,42.03-22.42,54.55
			c-10.09,14.45-29.23,11.78-36.57,31.64c-7.27,19.65-0.12,54.57-4.02,78.18c-3.76,22.79-20.1,42.65-20.1,67.9
			s16.34,45.11,20.1,67.89c3.9,23.62-3.25,58.53,4.02,78.19C161.14,416.59,180.28,413.93,190.37,428.38z"/>
		<g>
			
				<ellipse transform="matrix(0.7071 -0.7071 0.7071 0.7071 -180.0741 227.9481)" style="fill:#FA4954;" cx="185.121" cy="331.343" rx="39.445" ry="39.445"/>
			<path style="fill:#E21F2D;" d="M220.048,349.695c-1.805,3.431-4.148,6.65-7.035,9.537c-15.404,15.404-40.38,15.407-55.784,0.003
				c-15.404-15.404-15.403-40.384,0-55.787c2.887-2.887,6.106-5.23,9.537-7.035c-7.828,14.889-5.479,33.73,7.038,46.247
				C186.321,355.177,205.159,357.523,220.048,349.695z"/>
			
				<ellipse transform="matrix(0.7071 -0.7071 0.7071 0.7071 -175.4202 216.7126)" style="fill:#A71F29;" cx="173.885" cy="320.107" rx="23.555" ry="23.555"/>
		</g>
		<path style="fill:#13B766;" d="M304.712,360.105c-15.939,15.939-22.925,37.439-20.962,58.255
			c20.816,1.963,42.316-5.023,58.255-20.962c15.939-15.939,22.925-37.439,20.962-58.255
			C342.152,337.18,320.651,344.166,304.712,360.105z"/>
		<path style="fill:#D5694C;" d="M481.767,453.689H30.233c-12.555,0-22.733,10.178-22.733,22.733v0
			c0,12.555,10.178,22.733,22.733,22.733h451.534c12.555,0,22.733-10.178,22.733-22.733v0
			C504.5,463.866,494.322,453.689,481.767,453.689z"/>
		<path style="fill:#A64C31;" d="M81.882,492.503c4.118,4.108,9.805,6.657,16.082,6.657H30.228c-6.277,0-11.954-2.549-16.072-6.657
			c-4.118-4.118-6.657-9.805-6.657-16.082c0-12.554,10.175-22.728,22.728-22.728h67.736c-12.554,0-22.738,10.175-22.738,22.728
			C75.226,482.698,77.774,488.385,81.882,492.503z"/>
		<g>
			
				<ellipse transform="matrix(0.7071 -0.7071 0.7071 0.7071 -45.8216 152.0909)" style="fill:#FA4954;" cx="160.679" cy="131.357" rx="84.054" ry="84.054"/>
			<path style="fill:#E21F2D;" d="M235.108,170.464c-3.847,7.311-8.839,14.17-14.991,20.322
				c-32.824,32.824-86.048,32.831-118.872,0.007s-32.824-86.055,0-118.879c6.152-6.152,13.011-11.144,20.322-14.991
				c-16.681,31.728-11.674,71.877,14.998,98.549S203.38,187.145,235.108,170.464z"/>
			
				<ellipse transform="matrix(0.7071 -0.7071 0.7071 0.7071 -35.9044 128.1487)" style="fill:#A71F29;" cx="136.737" cy="107.415" rx="50.195" ry="50.195"/>
			<path style="fill:#E4989D;" d="M182.624,98.77c1.549,1.549,2.934,3.189,4.165,4.914l0.007,0.007
				c1.032,14.057-3.818,28.468-14.566,39.216c-10.755,10.755-25.18,15.606-39.237,14.559c-1.718-1.223-3.366-2.616-4.907-4.158
				c-15.061-15.061-15.061-39.485,0-54.546C143.147,83.702,167.563,83.709,182.624,98.77z"/>
		</g>
		<g>
			
				<ellipse transform="matrix(0.7071 -0.7071 0.7071 0.7071 -45.0976 323.5655)" style="fill:#FA4954;" cx="368.029" cy="216.22" rx="69.66" ry="69.66"/>
			<path style="fill:#E21F2D;" d="M335.619,277.903c-6.059-3.188-11.744-7.325-16.842-12.424
				c-27.203-27.203-27.209-71.312-0.006-98.515c27.203-27.203,71.318-27.203,98.521,0c5.098,5.098,9.236,10.783,12.424,16.842
				c-26.294-13.824-59.568-9.675-81.673,12.429S321.795,251.608,335.619,277.903z"/>
			
				<ellipse transform="matrix(0.7071 -0.7071 0.7071 0.7071 -25.2555 331.7843)" style="fill:#A71F29;" cx="387.871" cy="196.378" rx="41.599" ry="41.599"/>
			<path style="fill:#E4989D;" d="M395.036,234.408c-1.283,1.283-2.643,2.432-4.073,3.452l-0.006,0.006
				c-11.65,0.856-23.593-3.164-32.5-12.072c-8.913-8.913-12.933-20.868-12.066-32.518c1.014-1.424,2.168-2.789,3.446-4.067
				c12.482-12.482,32.723-12.482,45.205,0C407.523,201.69,407.518,221.925,395.036,234.408z"/>
		</g>
	</g>
	<g>
		<path d="M218.315,298.148c-8.866-8.867-20.655-13.75-33.195-13.75c-12.539,0-24.328,4.883-33.195,13.75
			c-18.303,18.304-18.303,48.086,0,66.39c8.867,8.867,20.656,13.75,33.195,13.75c10.002,0,19.521-3.116,27.466-8.873l5.882,5.882
			c1.464,1.464,3.384,2.197,5.303,2.197s3.839-0.732,5.303-2.197c2.929-2.929,2.929-7.678,0-10.606l-5.885-5.885
			C236.434,340.467,234.814,314.646,218.315,298.148z M162.532,308.754c3.13-3.13,7.242-4.695,11.353-4.695
			s8.223,1.565,11.353,4.695c6.26,6.26,6.26,16.446,0,22.706s-16.446,6.26-22.706,0S156.272,315.014,162.532,308.754z
			 M162.532,353.931c-2.391-2.391-4.318-5.072-5.791-7.928c5.176,3.429,11.16,5.145,17.144,5.145c7.953,0,15.905-3.027,21.959-9.082
			c10.615-10.615,11.923-27.066,3.925-39.121c2.892,1.496,5.571,3.44,7.939,5.809c12.455,12.455,12.455,32.722,0,45.177
			c-6.034,6.034-14.056,9.356-22.588,9.356S168.566,359.965,162.532,353.931z"/>
		<path d="M363.671,331.676c-23.887-2.253-47.313,6.176-64.262,23.126c-16.949,16.949-25.378,40.372-23.126,64.263
			c0.338,3.585,3.177,6.425,6.763,6.763c2.547,0.24,5.086,0.359,7.616,0.359c21.193-0.001,41.505-8.343,56.646-23.485
			c16.949-16.949,25.378-40.372,23.126-64.263C370.096,334.853,367.257,332.014,363.671,331.676z M336.702,392.095
			c-12.244,12.244-28.644,19.018-45.776,19.09c0.072-17.133,6.846-33.533,19.09-45.776c12.244-12.244,28.644-19.018,45.776-19.09
			C355.719,363.451,348.945,379.851,336.702,392.095z"/>
		<path d="M481.767,446.188H378.566c3.51-4.838,7.059-8.911,10.947-11.744c5.749-4.184,13.587-6.733,20.496-8.674
			c3.988-1.121,6.312-5.262,5.191-9.249c-1.12-3.988-5.262-6.313-9.249-5.191c-8.19,2.302-17.597,5.407-25.269,10.989
			c-7.903,5.76-13.983,14.177-20.224,23.87H151.541c-6.241-9.693-12.321-18.11-20.227-23.872
			c-9.744-7.093-22.566-10.376-34.967-13.551c-14.769-3.782-28.719-7.353-35.332-16.437c-6.507-8.946-5.622-23.229-4.686-38.353
			c0.795-12.848,1.618-26.133-2.146-37.743c-3.598-11.076-11.885-21.023-19.898-30.643C24.367,273.685,15,262.441,15,250.66
			c0-11.78,9.365-23.023,19.281-34.927c8.016-9.624,16.304-19.574,19.903-30.658c3.764-11.602,2.941-24.887,2.146-37.735
			c-0.937-15.123-1.821-29.406,4.684-38.344c3.198-4.392,8.231-7.514,14.071-9.962c-10.797,28.772-6.836,62.151,12.755,87.799
			c2.515,3.292,7.221,3.922,10.513,1.408c3.292-2.515,3.922-7.221,1.408-10.513c-10.502-13.749-15.618-30.158-15.569-46.506
			c2.783,6.161,6.693,11.933,11.749,16.99c10.897,10.897,25.386,16.898,40.796,16.898c15.411,0,29.899-6.001,40.796-16.898
			c8.165-8.165,13.35-18.19,15.588-28.723c4.64,13.103,6.856,27.238,4.866,40.89c-2.939,20.161-14.685,36.12-34.873,47.483
			c-15.22,0.472-30.377-3.597-43.221-11.704c-3.502-2.212-8.135-1.164-10.345,2.339c-2.211,3.502-1.164,8.134,2.339,10.345
			c14.577,9.201,31.633,14.066,48.877,14.066c3.196,0,6.401-0.167,9.596-0.505c18.244-1.93,35.569-9.401,49.528-21.23l11.247,11.246
			c1.464,1.465,3.384,2.197,5.303,2.197s3.839-0.732,5.303-2.197c2.929-2.929,2.929-7.678,0-10.606l-11.254-11.254
			c14.06-16.522,21.745-37.265,21.745-59.201c0-24.455-9.524-47.447-26.819-64.742c-17.668-17.669-40.824-26.577-64.035-26.752
			c5.967-8.713,12.214-15.899,20.128-18.471c10.238-3.325,23.395,1.87,37.323,7.37C230.963,33.555,243.51,38.51,256,38.51
			s25.037-4.955,37.171-9.747c13.927-5.5,27.083-10.695,37.322-7.37c10.895,3.539,18.637,15.813,26.834,28.807
			c6.765,10.724,13.76,21.813,23.359,28.804c9.743,7.092,22.564,10.374,34.963,13.547c14.771,3.78,28.722,7.351,35.337,16.443
			c6.506,8.939,5.621,23.224,4.685,38.346c-0.796,12.848-1.618,26.133,2.146,37.737c3.598,11.075,11.884,21.024,19.897,30.646
			C487.632,227.63,497,238.878,497,250.66c0,11.781-9.367,23.026-19.285,34.93c-8.014,9.62-16.3,19.567-19.899,30.646
			c-3.764,11.606-2.941,24.892-2.146,37.739c0.937,15.123,1.821,29.407-4.682,38.347c-3.284,4.506-8.604,8.009-16.744,11.025
			c-3.884,1.439-5.866,5.754-4.427,9.638c1.121,3.025,3.986,4.897,7.034,4.896c0.865,0,1.746-0.151,2.604-0.469
			c11.036-4.088,18.553-9.254,23.659-16.261c9.682-13.31,8.586-30.998,7.527-48.103c-0.742-11.977-1.442-23.29,1.441-32.182
			c2.706-8.329,9.726-16.755,17.157-25.676C500.43,281.759,512,267.87,512,250.66s-11.57-31.103-22.76-44.537
			c-7.432-8.923-14.452-17.351-17.156-25.677c-2.884-8.891-2.184-20.203-1.442-32.179c1.06-17.106,2.155-34.795-7.527-48.099
			c-9.792-13.459-27.053-17.876-43.746-22.149c-11.538-2.953-22.436-5.742-29.853-11.141c-7.274-5.298-13.213-14.713-19.501-24.681
			c-9.259-14.678-18.833-29.855-34.887-35.07c-15.369-4.99-31.686,1.453-47.465,7.685C276.833,19.088,265.635,23.51,256,23.51
			s-20.833-4.422-31.661-8.698c-15.78-6.232-32.096-12.675-47.468-7.684c-15.882,5.164-25.417,20.068-34.581,34.588
			c-16.996,3.459-33.196,11.748-46.353,24.901c-4.175,4.175-7.858,8.679-11.065,13.427c-13.842,3.763-27.665,8.696-35.985,20.123
			c-9.683,13.305-8.587,30.993-7.528,48.1c0.742,11.976,1.442,23.288-1.442,32.177c-2.706,8.334-9.728,16.764-17.162,25.689
			C11.568,219.563,0,233.451,0,250.66c0,17.21,11.57,31.1,22.76,44.531c7.432,8.921,14.452,17.348,17.156,25.672
			c2.885,8.896,2.185,20.208,1.443,32.186c-1.06,17.105-2.155,34.793,7.528,48.105c9.791,13.45,27.049,17.869,43.739,22.143
			c11.54,2.955,22.44,5.746,29.856,11.145c3.89,2.835,7.44,6.909,10.951,11.748h-103.2C13.562,446.188,0,459.751,0,476.421
			s13.562,30.233,30.233,30.233h451.534c16.67,0,30.233-13.563,30.233-30.233S498.438,446.188,481.767,446.188z M106.547,77.225
			c8.064-8.064,18.786-12.505,30.19-12.505s22.126,4.441,30.19,12.505c1.809,1.809,3.409,3.747,4.825,5.776
			c-16.44-6.238-35.753-2.762-48.969,10.453c-13.222,13.222-16.699,32.544-10.456,48.987c-2.042-1.43-3.981-3.038-5.78-4.837
			C89.9,120.958,89.9,93.872,106.547,77.225z M166.927,137.604c-8.064,8.064-18.786,12.505-30.19,12.505
			c-0.343,0-0.683-0.017-1.025-0.025c-0.801-0.657-1.583-1.344-2.322-2.083c-12.114-12.114-12.114-31.826,0-43.94
			c12.11-12.11,31.818-12.107,43.932,0.006c0.733,0.733,1.414,1.508,2.066,2.3C179.661,117.647,175.516,129.015,166.927,137.604z
			 M237.232,131.358c0,20.448-7.964,39.671-22.427,54.129c-5.286,5.288-11.181,9.688-17.544,13.16
			c8.325-10.462,13.601-22.609,15.569-36.106c5.299-36.355-14.583-75.209-35.297-95.923c-4.993-4.993-10.745-8.944-16.989-11.775
			c19.648-0.034,39.307,7.424,54.263,22.379C229.268,91.685,237.232,110.911,237.232,131.358z M481.767,491.654H30.233
			c-8.399,0-15.233-6.833-15.233-15.233s6.833-15.233,15.233-15.233h451.534c8.399,0,15.233,6.833,15.233,15.233
			S490.167,491.654,481.767,491.654z"/>
		<path d="M422.589,161.66c-30.084-30.085-79.036-30.085-109.12,0c-28.295,28.295-29.971,73.275-5.041,103.556l-13.36,13.36
			c-2.929,2.929-2.929,7.678,0,10.606c1.464,1.464,3.384,2.197,5.303,2.197s3.839-0.732,5.303-2.197l13.36-13.36
			c14.183,11.676,31.587,17.522,48.995,17.522c19.759,0,39.518-7.521,54.56-22.563C452.674,240.696,452.674,191.745,422.589,161.66z
			 M421.97,196.378c0,9.108-3.547,17.671-9.987,24.111c-0.45,0.45-0.913,0.883-1.383,1.304c3.409-13.109-0.002-27.64-10.25-37.889
			c-10.251-10.251-24.783-13.663-37.894-10.255c0.422-0.47,0.854-0.933,1.304-1.383c6.648-6.648,15.379-9.971,24.112-9.971
			c8.731,0,17.465,3.325,24.111,9.971c0.412,0.412,0.799,0.839,1.198,1.26C418.861,179.803,421.97,187.852,421.97,196.378z
			 M353.782,195.99c0.433-0.508,0.886-1.003,1.362-1.479c9.539-9.54,25.059-9.54,34.599,0c9.535,9.536,9.533,25.054-0.006,34.593
			c-0.475,0.475-0.971,0.929-1.479,1.363c-0.129,0.001-0.257,0.009-0.386,0.009c-9.108,0-17.671-3.547-24.112-9.987
			s-9.987-15.003-9.987-24.111C353.772,196.248,353.78,196.12,353.782,195.99z M324.076,172.267
			c10.714-10.714,24.397-16.682,38.425-17.924c-3.331,2.01-6.475,4.446-9.347,7.317c-9.274,9.273-14.381,21.604-14.381,34.718
			s5.107,25.444,14.381,34.718c5.715,5.715,12.594,9.842,20.099,12.172c-9.457,2.821-19.422,4.009-29.089,2.601
			c-16.179-2.359-29.023-11.762-38.224-27.919C305.485,201.46,311.519,184.824,324.076,172.267z M324.076,260.174
			c-2.759-2.759-5.188-5.723-7.318-8.831c7.57,4.863,16.033,8.026,25.243,9.368c3.527,0.514,7.063,0.757,10.597,0.757
			c27.266,0,54.085-14.465,69.992-30.372c2.84-2.84,5.284-5.969,7.316-9.316c-1.248,14.017-7.216,27.689-17.922,38.394
			C387.747,284.411,348.312,284.411,324.076,260.174z"/>
	</g>
</g>
<g>
</g>
<g>
</g>
<g>
</g>
<g>
</g>
<g>
</g>
<g>
</g>
<g>
</g>
<g>
</g>
<g>
</g>
<g>
</g>
<g>
</g>
<g>
</g>
<g>
</g>
<g>
</g>
<g>
</g>
</svg>
