<?xml version="1.0" encoding="iso-8859-1"?>
<!-- Generator: Adobe Illustrator 21.0.0, SVG Export Plug-In . SVG Version: 6.00 Build 0)  -->
<svg version="1.1" id="Capa_1" xmlns="http://www.w3.org/2000/svg" xmlns:xlink="http://www.w3.org/1999/xlink" x="0px" y="0px"
	 viewBox="0 0 511.998 511.998" style="enable-background:new 0 0 511.998 511.998;" xml:space="preserve">
<g>
	<g>
		<path style="fill:#A5E4EF;" d="M452.584,459.028l-196.585,22.734L59.665,459.028c0,0-3.638-11.292-8.496-30.129
			C39.515,383.653,20.864,294.846,28.79,214.181c0,0,64.547-106.718,227.334-190.187c9.805,5.029,19.26,10.146,28.366,15.31
			c30.125,17.112,56.411,34.831,79.15,52.126c12.414,9.452,23.778,18.769,34.113,27.807c13.553,11.842,25.357,23.182,35.502,33.636
			c34.782,35.814,50.204,61.308,50.204,61.308C494.682,328.444,452.584,459.028,452.584,459.028z"/>
		<path style="fill:#DAF3F8;" d="M433.254,152.873L249.897,459.028h-55.652l203.506-339.791
			C411.305,131.079,423.109,142.419,433.254,152.873z"/>
		<path style="fill:#DAF3F8;" d="M363.639,91.431L143.482,459.028H59.665c0,0-3.638-11.292-8.496-30.129L284.49,39.305
			C314.614,56.417,340.901,74.136,363.639,91.431z"/>
		<path style="fill:#02C6DB;" d="M452.592,475.525c-1.677,0-3.382-0.258-5.064-0.8c-8.668-2.795-13.43-12.088-10.636-20.756
			c0.487-1.517,39.932-125.854,30.521-234.236c-5.209-7.802-21.06-30.171-49.251-58.712
			c-31.327-31.715-84.56-77.576-162.037-118.439c-77.477,40.863-130.71,86.724-162.037,118.439
			c-28.178,28.529-44.027,50.89-49.251,58.713C35.415,328.23,74.953,452.714,75.358,453.974c2.789,8.668-1.975,17.959-10.643,20.751
			c-8.667,2.792-17.957-1.967-20.751-10.635c-1.762-5.465-43.019-135.183-31.589-251.517c0.241-2.45,1.027-4.816,2.302-6.922
			c0.699-1.157,17.566-28.77,54.975-66.823C103.793,104.099,162.552,53.439,248.6,9.32c4.724-2.422,10.325-2.422,15.049,0
			c86.047,44.119,144.807,94.779,178.948,129.508c37.409,38.053,54.276,65.666,54.975,66.823c1.274,2.107,2.061,4.472,2.302,6.922
			c11.43,116.334-29.828,246.052-31.589,251.517C466.032,471.076,459.557,475.525,452.592,475.525z"/>
		<circle style="fill:#665E66;" cx="207.94" cy="336.594" r="16.932"/>
		<path style="fill:#49CB8B;" d="M481.765,459.029H30.232c-12.555,0-22.733,10.178-22.733,22.733v0
			c0,12.555,10.178,22.733,22.733,22.733h451.532c12.555,0,22.733-10.178,22.733-22.733v0
			C504.497,469.207,494.32,459.029,481.765,459.029z"/>
		<path style="fill:#13B766;" d="M81.882,497.844c4.118,4.108,9.805,6.657,16.082,6.657H30.228c-6.277,0-11.954-2.549-16.072-6.657
			c-4.118-4.118-6.657-9.805-6.657-16.082c0-12.554,10.175-22.728,22.728-22.728h67.735c-12.554,0-22.738,10.175-22.738,22.728
			C75.225,488.039,77.774,493.726,81.882,497.844z"/>
		<circle style="fill:#FCDD2E;" cx="409.264" cy="102.736" r="95.233"/>
		<polygon style="fill:#FFFFFF;" points="466.639,102.736 418.764,102.736 437.488,34.559 351.889,102.736 399.765,102.736 
			381.041,170.912 		"/>
	</g>
	<g>
		<path d="M207.94,312.162c-13.472,0-24.433,10.96-24.433,24.432s10.96,24.433,24.433,24.433s24.433-10.96,24.433-24.433
			S221.412,312.162,207.94,312.162z M207.94,346.027c-5.201,0-9.433-4.231-9.433-9.433c0-5.201,4.231-9.432,9.433-9.432
			s9.433,4.231,9.433,9.432C217.373,341.795,213.141,346.027,207.94,346.027z"/>
		<path d="M481.764,451.529h-1.909c10.439-36.975,36.956-143.294,27.486-239.689c-0.347-3.539-1.51-7.024-3.336-10.034
			c-0.07-0.118-6.588-10.953-20.403-28.229c17.584-18.446,28.395-43.406,28.395-70.844c0-56.645-46.084-102.729-102.729-102.729
			c-32.288,0-61.14,14.975-79.989,38.338c-19.952-12.74-40.84-24.735-62.198-35.687c-6.856-3.529-15.046-3.529-21.905-0.005
			C158.232,47.228,98.826,98.453,64.301,133.574c-38.08,38.731-55.327,67.016-56.035,68.188c-1.845,3.042-3.003,6.527-3.351,10.076
			C-4.56,308.29,21.951,414.566,32.391,451.529h-2.158C13.562,451.529,0,465.092,0,481.762s13.562,30.232,30.232,30.232h451.532
			c16.671,0,30.233-13.562,30.233-30.232S498.435,451.529,481.764,451.529z M492.414,213.305
			c9.601,97.731-18.957,206.5-28.157,238.224h-18.779c7.155-23.97,37.928-134.356,29.402-232.447
			c-0.108-1.254-0.531-2.46-1.229-3.508c-2.7-4.054-8.06-11.737-16.342-22.052c5.35-2.843,10.423-6.141,15.161-9.85
			c12.751,16.008,18.597,25.723,18.685,25.87C491.859,210.703,492.283,211.968,492.414,213.305z M51.808,227.23h108.241v97.083
			H55.55C51.159,288.984,49.875,256.091,51.808,227.23z M59.392,212.23c8.173-10.883,21.302-26.973,40.034-45.938
			c14.91-15.095,35.041-33.616,60.624-53.323v99.26H59.392z M175.049,451.529V227.23h162.149v224.299H175.049z M353.861,189.266
			c16.525,10.602,35.686,16.206,55.407,16.206c11.831,0,23.198-2.017,33.783-5.714c3.845,4.693,7.102,8.875,9.805,12.472H352.198
			v-24.072C352.751,188.529,353.299,188.906,353.861,189.266z M460.464,227.23c2.196,32.443,0.165,66.053-3.706,97.083H352.198
			V227.23H460.464z M352.198,339.313h102.525c-8.972,61.197-23.958,109.153-24.929,112.216h-77.595V339.313z M409.268,15.003
			c48.374,0,87.729,39.355,87.729,87.729c0,48.38-39.355,87.74-87.729,87.74c-33.52,0-64.572-19.528-79.111-49.751
			c-1.798-3.733-6.28-5.301-10.01-3.507c-3.733,1.796-5.304,6.277-3.508,10.01c5.168,10.742,12.134,20.45,20.559,28.739v36.268
			H175.049V101.753c23.126-16.793,50.096-34.121,81.079-50.678c17.994,9.621,35.606,20.04,52.483,31.023
			c-1.365,6.668-2.083,13.569-2.083,20.635c0,4.562,0.302,9.129,0.896,13.575c0.549,4.106,4.337,6.989,8.428,6.439
			c4.105-0.549,6.989-4.322,6.439-8.428c-0.507-3.789-0.764-7.687-0.764-11.585C321.528,54.358,360.888,15.003,409.268,15.003z
			 M19.844,213.302c0.132-1.347,0.552-2.613,1.256-3.774c0.678-1.124,17.038-27.948,53.898-65.438
			c33.75-34.334,91.859-84.428,177.027-128.096c2.569-1.319,5.63-1.321,8.202,0.002c20.778,10.655,41.092,22.308,60.502,34.68
			c-3.056,5.178-5.674,10.643-7.796,16.348c-17.178-11.02-35.065-21.453-53.305-31.075c-2.191-1.156-4.809-1.156-6.999-0.001
			c-34.429,18.156-64.122,37.302-89.262,55.757c-0.094,0.063-0.182,0.135-0.273,0.202c-32.097,23.587-56.755,46.038-74.342,63.843
			c-28.46,28.814-44.554,51.43-50.152,59.816c-0.701,1.049-1.125,2.259-1.234,3.516c-3.886,44.805-0.19,97.208,10.985,155.753
			c0.686,3.594,3.83,6.095,7.359,6.095c0.466,0,0.94-0.044,1.415-0.134c4.069-0.777,6.737-4.705,5.961-8.773
			c-2.114-11.073-3.944-21.986-5.512-32.712h102.474v112.216H82.454c-0.843-2.682-6.785-21.871-13.281-50.403
			c-0.919-4.039-4.941-6.568-8.978-5.648c-4.039,0.92-6.567,4.939-5.648,8.978c5.093,22.365,9.879,39.192,12.228,47.073H47.991
			C38.79,419.818,10.236,311.095,19.844,213.302z M481.764,496.995H30.232c-8.399,0-15.232-6.833-15.232-15.232
			c0-8.399,6.833-15.233,15.232-15.233h451.532c8.399,0,15.233,6.833,15.233,15.233
			C496.998,490.161,490.164,496.995,481.764,496.995z"/>
		<path d="M351.889,110.236h38.038l-16.119,58.69c-0.859,3.131,0.393,6.459,3.103,8.247c1.257,0.829,2.695,1.239,4.129,1.239
			c1.658,0,3.312-0.549,4.674-1.633l85.599-68.177c2.493-1.986,3.459-5.332,2.407-8.342c-1.053-3.009-3.892-5.025-7.08-5.025
			h-38.038l16.119-58.69c0.859-3.131-0.393-6.459-3.103-8.247c-2.71-1.788-6.262-1.629-8.803,0.394l-85.599,68.176
			c-2.493,1.986-3.459,5.332-2.407,8.342C345.861,108.22,348.701,110.236,351.889,110.236z M424.162,54.762l-12.631,45.988
			c-0.619,2.256-0.15,4.673,1.268,6.533c1.419,1.861,3.625,2.953,5.965,2.953h26.421l-50.817,40.475l12.631-45.988
			c0.619-2.256,0.15-4.673-1.268-6.534c-1.419-1.86-3.625-2.953-5.965-2.953h-26.421L424.162,54.762z"/>
	</g>
</g>
<g>
</g>
<g>
</g>
<g>
</g>
<g>
</g>
<g>
</g>
<g>
</g>
<g>
</g>
<g>
</g>
<g>
</g>
<g>
</g>
<g>
</g>
<g>
</g>
<g>
</g>
<g>
</g>
<g>
</g>
</svg>
