<?xml version="1.0" encoding="iso-8859-1"?>
<!-- Generator: Adobe Illustrator 21.0.0, SVG Export Plug-In . SVG Version: 6.00 Build 0)  -->
<svg version="1.1" id="Capa_1" xmlns="http://www.w3.org/2000/svg" xmlns:xlink="http://www.w3.org/1999/xlink" x="0px" y="0px"
	 viewBox="0 0 511.997 511.997" style="enable-background:new 0 0 511.997 511.997;" xml:space="preserve">
<g>
	<g>
		<path style="fill:#A5E4EF;" d="M222.005,217.28H32.534c0,0-1.754-5.445-4.097-14.529c-5.62-21.818-14.613-64.642-10.791-103.54
			c0,0,31.126-51.461,109.624-91.711c4.728,2.425,9.288,4.892,13.678,7.383c14.527,8.252,27.202,16.796,38.167,25.136
			c5.986,4.558,11.466,9.051,16.45,13.409c6.535,5.71,12.228,11.179,17.12,16.22c16.773,17.27,24.209,29.564,24.209,29.564
			C242.306,154.31,222.005,217.28,222.005,217.28z"/>
		<path style="fill:#DAF3F8;" d="M212.684,69.647L124.267,217.28H97.431l98.134-163.852C202.1,59.138,207.792,64.606,212.684,69.647
			z"/>
		<path style="fill:#DAF3F8;" d="M179.115,40.019L72.951,217.28H32.534c0,0-1.754-5.445-4.097-14.529L140.948,14.883
			C155.474,23.134,168.15,31.679,179.115,40.019z"/>
		<path style="fill:#49CB8B;" d="M236.077,217.28H18.462c-6.054,0-10.962,4.908-10.962,10.962v0c0,6.054,4.908,10.962,10.962,10.962
			h217.615c6.054,0,10.962-4.908,10.962-10.962v0C247.039,222.188,242.131,217.28,236.077,217.28z"/>
		<path style="fill:#13B766;" d="M43.368,235.997c1.986,1.981,4.728,3.21,7.755,3.21H18.46c-3.027,0-5.764-1.229-7.75-3.21
			c-1.986-1.986-3.21-4.728-3.21-7.755c0-6.054,4.906-10.96,10.96-10.96h32.663c-6.054,0-10.965,4.906-10.965,10.96
			C40.158,231.269,41.387,234.012,43.368,235.997z"/>
		<path style="fill:#A5E4EF;" d="M479.464,217.28H289.992c0,0-1.754-5.445-4.097-14.529c-5.62-21.818-14.613-64.642-10.791-103.54
			c0,0,31.126-51.461,109.624-91.711c4.728,2.425,9.288,4.892,13.678,7.383c14.527,8.252,27.202,16.796,38.167,25.136
			c5.986,4.558,11.466,9.051,16.45,13.409c6.536,5.71,12.228,11.179,17.12,16.22c16.773,17.27,24.209,29.564,24.209,29.564
			C499.764,154.31,479.464,217.28,479.464,217.28z"/>
		<path style="fill:#DAF3F8;" d="M470.143,69.647L381.725,217.28h-26.836l98.134-163.852
			C459.559,59.138,465.251,64.606,470.143,69.647z"/>
		<path style="fill:#DAF3F8;" d="M436.573,40.019L330.41,217.28h-40.418c0,0-1.754-5.445-4.097-14.529L398.406,14.883
			C412.933,23.134,425.609,31.679,436.573,40.019z"/>
		<path style="fill:#49CB8B;" d="M493.535,217.28H275.921c-6.054,0-10.962,4.908-10.962,10.962v0
			c0,6.054,4.908,10.962,10.962,10.962h217.615c6.054,0,10.962-4.908,10.962-10.962v0
			C504.497,222.188,499.589,217.28,493.535,217.28z"/>
		<path style="fill:#13B766;" d="M300.827,235.997c1.986,1.981,4.728,3.21,7.755,3.21h-32.663c-3.027,0-5.764-1.229-7.75-3.21
			c-1.986-1.986-3.21-4.728-3.21-7.755c0-6.054,4.906-10.96,10.96-10.96h32.663c-6.054,0-10.965,4.906-10.965,10.96
			C297.617,231.269,298.846,234.012,300.827,235.997z"/>
		<g>
			<path style="fill:#A5E4EF;" d="M222.005,482.573H32.534c0,0-1.754-5.445-4.097-14.529c-5.62-21.818-14.613-64.642-10.791-103.54
				c0,0,31.126-51.461,109.624-91.711c4.728,2.425,9.288,4.892,13.678,7.383c14.527,8.252,27.202,16.796,38.167,25.136
				c5.986,4.558,11.466,9.051,16.45,13.409c6.535,5.71,12.228,11.179,17.12,16.22c16.773,17.27,24.209,29.564,24.209,29.564
				C242.306,419.603,222.005,482.573,222.005,482.573z"/>
			<path style="fill:#DAF3F8;" d="M212.684,334.94l-88.417,147.632H97.431l98.134-163.852
				C202.1,324.43,207.792,329.899,212.684,334.94z"/>
			<path style="fill:#DAF3F8;" d="M179.115,305.311L72.951,482.573H32.534c0,0-1.754-5.445-4.097-14.529l112.511-187.868
				C155.474,288.427,168.15,296.971,179.115,305.311z"/>
			<path style="fill:#49CB8B;" d="M236.077,482.573H18.462c-6.054,0-10.962,4.908-10.962,10.962l0,0
				c0,6.054,4.908,10.962,10.962,10.962h217.615c6.054,0,10.962-4.908,10.962-10.962l0,0
				C247.039,487.481,242.131,482.573,236.077,482.573z"/>
			<path style="fill:#13B766;" d="M43.368,501.29c1.986,1.981,4.728,3.21,7.755,3.21H18.46c-3.027,0-5.764-1.229-7.75-3.21
				c-1.986-1.986-3.21-4.728-3.21-7.755c0-6.054,4.906-10.96,10.96-10.96h32.663c-6.054,0-10.965,4.906-10.965,10.96
				C40.158,496.562,41.387,499.304,43.368,501.29z"/>
		</g>
		<path style="fill:#A5E4EF;" d="M479.464,482.573H289.992c0,0-1.754-5.445-4.097-14.529c-5.62-21.818-14.613-64.642-10.791-103.54
			c0,0,31.126-51.461,109.624-91.711c4.728,2.425,9.288,4.892,13.678,7.383c14.527,8.252,27.202,16.796,38.167,25.136
			c5.986,4.558,11.466,9.051,16.45,13.409c6.536,5.71,12.228,11.179,17.12,16.22c16.773,17.27,24.209,29.564,24.209,29.564
			C499.764,419.603,479.464,482.573,479.464,482.573z"/>
		<path style="fill:#DAF3F8;" d="M470.143,334.94l-88.417,147.632h-26.836l98.134-163.852
			C459.559,324.43,465.251,329.899,470.143,334.94z"/>
		<path style="fill:#DAF3F8;" d="M436.573,305.311L330.41,482.573h-40.418c0,0-1.754-5.445-4.097-14.529l112.511-187.868
			C412.933,288.427,425.609,296.971,436.573,305.311z"/>
		<path style="fill:#49CB8B;" d="M493.535,482.573H275.921c-6.054,0-10.962,4.908-10.962,10.962l0,0
			c0,6.054,4.908,10.962,10.962,10.962h217.615c6.054,0,10.962-4.908,10.962-10.962l0,0
			C504.497,487.481,499.589,482.573,493.535,482.573z"/>
		<path style="fill:#13B766;" d="M300.827,501.29c1.986,1.981,4.728,3.21,7.755,3.21h-32.663c-3.027,0-5.764-1.229-7.75-3.21
			c-1.986-1.986-3.21-4.728-3.21-7.755c0-6.054,4.906-10.96,10.96-10.96h32.663c-6.054,0-10.965,4.906-10.965,10.96
			C297.617,496.562,298.846,499.304,300.827,501.29z"/>
	</g>
	<g>
		<path d="M236.077,209.781h-4.059c5.52-20.129,16.629-67.674,12.345-111.304c-0.109-1.114-0.467-2.19-1.046-3.148
			c-0.254-0.419-6.367-10.442-19.704-25.021c-2.796-3.057-7.54-3.267-10.596-0.471c-3.056,2.796-3.267,7.54-0.471,10.596
			c3.873,4.233,7.075,8.039,9.66,11.28h-44.723V48.224c4.898,3.819,9.648,7.752,14.235,11.799c3.105,2.74,7.844,2.444,10.586-0.662
			c2.74-3.106,2.444-7.845-0.662-10.586c-20.781-18.334-44.652-34.467-70.95-47.95c-2.148-1.101-4.695-1.101-6.844,0
			C44.368,41.578,12.539,93.152,11.223,95.327c-0.58,0.958-0.938,2.034-1.047,3.149c-4.284,43.63,6.825,91.175,12.345,111.304
			h-4.059C8.282,209.781,0,218.063,0,228.242s8.282,18.462,18.462,18.462h217.615c10.18,0,18.462-8.282,18.462-18.462
			S246.257,209.781,236.077,209.781z M177.482,209.781v-46.346h49.07c-3.251,20.827-7.786,38.105-10.135,46.346H177.482z
			 M24.574,106.712h52.483v41.723H25.975C24.476,134.957,23.748,120.64,24.574,106.712z M92.057,106.712h70.424V209.78H92.057
			V106.712z M229.965,106.712c0.826,13.928,0.099,28.245-1.401,41.723h-51.082v-41.723H229.965z M127.27,15.951
			c12.348,6.497,24.106,13.609,35.212,21.273v54.487H92.057V37.251C102.46,30.063,114.156,22.854,127.27,15.951z M77.057,48.263
			v43.449H32.344C40.528,81.47,55.057,65.428,77.057,48.263z M27.987,163.435h49.07v46.346H38.122
			C35.773,201.54,31.238,184.261,27.987,163.435z M236.077,231.705H18.462c-1.909,0-3.462-1.553-3.462-3.462
			s1.553-3.462,3.462-3.462h217.615c1.909,0,3.462,1.553,3.462,3.462S237.985,231.705,236.077,231.705z"/>
		<path d="M275.921,246.705h217.615c10.18,0,18.462-8.282,18.462-18.462s-8.282-18.462-18.462-18.462h-4.06
			c5.521-20.13,16.628-67.674,12.342-111.301c-0.109-1.114-0.467-2.19-1.046-3.148c-1.316-2.176-33.144-53.755-112.621-94.505
			c-2.148-1.102-4.695-1.102-6.844,0c-79.477,40.75-111.305,92.329-112.621,94.505c-0.58,0.958-0.937,2.034-1.046,3.148
			c-4.287,43.627,6.821,91.171,12.342,111.301h-4.06c-10.18,0-18.462,8.282-18.462,18.462S265.74,246.705,275.921,246.705z
			 M434.94,209.781v-46.346h49.069c-3.25,20.826-7.785,38.104-10.135,46.346H434.94z M282.036,106.712h52.479v41.723h-51.081
			C281.936,134.957,281.21,120.639,282.036,106.712z M487.419,106.712c0.827,13.927,0.1,28.245-1.399,41.723H434.94v-41.723H487.419
			z M349.516,106.712h70.424V209.78h-70.424V106.712z M479.614,91.712H434.94V48.301C456.866,65.433,471.408,81.469,479.614,91.712z
			 M384.728,15.952c13.106,6.9,24.803,14.118,35.212,21.321v54.439h-70.424V37.273C359.925,30.071,371.622,22.852,384.728,15.952z
			 M334.516,48.301v43.411h-44.673C298.05,81.467,312.592,65.431,334.516,48.301z M285.447,163.435h49.069v46.346h-38.933
			C293.233,201.539,288.697,184.261,285.447,163.435z M275.921,224.781h217.615c1.909,0,3.462,1.553,3.462,3.462
			s-1.553,3.462-3.462,3.462H275.921c-1.909,0-3.462-1.553-3.462-3.462S274.012,224.781,275.921,224.781z"/>
		<path d="M236.077,475.073h-4.06c5.521-20.13,16.629-67.674,12.342-111.301c-0.109-1.114-0.467-2.19-1.046-3.148
			c-1.316-2.176-33.144-53.755-112.621-94.505c-2.148-1.102-4.695-1.102-6.844,0c-79.477,40.75-111.305,92.329-112.621,94.505
			c-0.58,0.958-0.937,2.034-1.046,3.148c-4.287,43.627,6.821,91.171,12.342,111.301h-4.06C8.282,475.073,0,483.355,0,493.535
			s8.282,18.462,18.462,18.462h217.615c10.18,0,18.462-8.282,18.462-18.462S246.257,475.073,236.077,475.073z M177.482,475.073
			v-46.346h49.069c-3.25,20.826-7.786,38.104-10.135,46.346H177.482z M24.578,372.004h52.479v41.723H25.969
			C24.473,400.256,23.749,385.94,24.578,372.004z M229.961,372.004c0.827,13.927,0.1,28.245-1.399,41.723h-51.08v-41.723H229.961z
			 M92.057,372.004h70.424v103.068H92.057V372.004z M222.155,357.004h-44.674v-43.411
			C199.408,330.725,213.949,346.761,222.155,357.004z M127.269,281.244c13.106,6.9,24.803,14.119,35.212,21.321v54.439H92.057
			v-54.46C102.459,295.356,114.155,288.147,127.269,281.244z M77.057,313.557v43.447H32.35
			C40.534,346.761,55.061,330.72,77.057,313.557z M27.979,428.728h49.078v46.346H38.121
			C35.769,466.834,31.23,449.561,27.979,428.728z M236.077,496.997H18.462c-1.909,0-3.462-1.553-3.462-3.462
			s1.553-3.462,3.462-3.462h217.615c1.909,0,3.462,1.553,3.462,3.462S237.985,496.997,236.077,496.997z"/>
		<path d="M493.537,475.077h-4.063c5.52-20.128,16.63-67.675,12.343-111.305c-0.109-1.114-0.467-2.19-1.046-3.148
			c-1.316-2.176-33.144-53.755-112.621-94.505c-2.148-1.102-4.695-1.102-6.844,0c-79.477,40.75-111.305,92.329-112.621,94.505
			c-0.58,0.958-0.937,2.034-1.046,3.148c-4.287,43.63,6.823,91.177,12.343,111.305h-4.063c-10.179,0-18.46,8.281-18.46,18.46
			c0,4.913,1.916,9.544,5.42,13.067c3.496,3.478,8.126,5.393,13.04,5.393h139.739c4.142,0,7.5-3.358,7.5-7.5s-3.358-7.5-7.5-7.5
			H275.919c-1.243,0-2.075-0.643-2.433-1c-0.384-0.385-1.027-1.218-1.027-2.46c0-1.908,1.552-3.46,3.46-3.46h217.619
			c0.924,0,1.793,0.36,2.447,1.013c0.378,0.378,1.013,1.199,1.013,2.447c0,1.908-1.552,3.46-3.46,3.46h-47.899
			c-4.142,0-7.5,3.358-7.5,7.5s3.358,7.5,7.5,7.5h47.899c10.179,0,18.46-8.281,18.46-18.46c0-4.931-1.92-9.567-5.406-13.053
			C503.105,476.998,498.469,475.077,493.537,475.077z M282.036,372.004h52.479v41.723h-51.081
			C281.936,400.249,281.21,385.932,282.036,372.004z M487.419,372.004c0.827,13.927,0.1,28.245-1.399,41.723H434.94v-41.723H487.419
			z M349.516,372.004h70.424v103.068h-70.424V372.004z M434.94,428.728h49.069c-3.251,20.829-7.787,38.11-10.136,46.35H434.94
			V428.728z M479.614,357.004H434.94v-43.411C456.866,330.725,471.408,346.761,479.614,357.004z M384.728,281.245
			c13.106,6.9,24.803,14.118,35.212,21.321v54.439h-70.424v-54.438C359.925,295.363,371.622,288.145,384.728,281.245z
			 M334.516,313.594v43.41h-44.673C298.051,346.759,312.592,330.724,334.516,313.594z M285.447,428.728h49.069v46.35h-38.932
			C293.234,466.837,288.698,449.557,285.447,428.728z"/>
	</g>
</g>
<g>
</g>
<g>
</g>
<g>
</g>
<g>
</g>
<g>
</g>
<g>
</g>
<g>
</g>
<g>
</g>
<g>
</g>
<g>
</g>
<g>
</g>
<g>
</g>
<g>
</g>
<g>
</g>
<g>
</g>
</svg>
