<?xml version="1.0" encoding="iso-8859-1"?>
<!-- Generator: Adobe Illustrator 21.0.0, SVG Export Plug-In . SVG Version: 6.00 Build 0)  -->
<svg version="1.1" id="Capa_1" xmlns="http://www.w3.org/2000/svg" xmlns:xlink="http://www.w3.org/1999/xlink" x="0px" y="0px"
	 viewBox="0 0 512.002 512.002" style="enable-background:new 0 0 512.002 512.002;" xml:space="preserve">
<g>
	<g>
		<path style="fill:#02C6DB;" d="M361.25,7.504c0,0,106.554,133.36,103.89,241.112c-3.065,123.998-204.715,123.998-207.781,0
			C254.696,140.864,361.25,7.504,361.25,7.504z"/>
		<path style="fill:#02B0CC;" d="M361.244,341.614c-51.176,0-102.353-30.982-103.885-92.989
			C254.705,140.856,361.244,7.5,361.244,7.5s-40.346,133.356-39.332,241.125C322.495,310.632,341.87,341.614,361.244,341.614z"/>
		<path style="fill:#02C6DB;" d="M177.637,83.946c0,0,134.121,167.862,130.768,303.491c-3.859,156.078-257.678,156.078-261.537,0
			C43.516,251.808,177.637,83.946,177.637,83.946z"/>
		<path style="fill:#02B0CC;" d="M177.63,504.496c-64.416,0-128.833-38.997-130.761-117.047
			C43.528,251.799,177.63,83.942,177.63,83.942s-50.784,167.858-49.507,303.507C128.856,465.498,153.243,504.496,177.63,504.496z"/>
		<ellipse style="fill:#93D8E4;" cx="417.231" cy="237.851" rx="21.533" ry="41.434"/>
		<ellipse style="fill:#93D8E4;" cx="249.24" cy="386.787" rx="27.761" ry="52.691"/>
	</g>
	<g>
		<path d="M420.842,84.152c-2.027-3.611-6.6-4.896-10.212-2.869c-3.611,2.028-4.896,6.6-2.868,10.211
			c33.69,60.01,50.94,114.276,49.884,156.931c-0.786,31.792-16.104,57.541-43.132,72.504c-31.484,17.432-74.59,17.415-106.061,0.248
			c-7.7-33.327-21.313-69.51-40.766-108.301c8.501-49.532,34.605-100.867,55.194-135.447c15.622-26.239,30.478-47.003,38.366-57.58
			c6.704,8.987,18.438,25.326,31.377,46.101c2.189,3.517,6.818,4.59,10.331,2.401c3.516-2.19,4.591-6.815,2.401-10.331
			C384.89,25.16,367.822,3.715,367.106,2.818C365.683,1.037,363.526,0,361.246,0s-4.437,1.037-5.859,2.818
			c-0.885,1.107-21.937,27.57-45.276,66.741c-26.384,44.28-44.275,85.329-53.365,122.363c-1.936-3.57-3.902-7.154-5.931-10.765
			c-33.027-58.77-66.98-101.466-67.319-101.89c-1.423-1.781-3.579-2.818-5.859-2.818s-4.437,1.037-5.859,2.818
			c-0.339,0.424-34.292,43.12-67.319,101.89c-44.612,79.384-66.509,148.85-65.084,206.467c0.349,14.067,2.663,27.458,6.879,39.802
			c1.339,3.921,5.607,6.009,9.521,4.673c3.92-1.339,6.013-5.602,4.674-9.522c-3.723-10.899-5.768-22.784-6.078-35.325
			c-1.689-68.294,33.353-145.662,63.048-198.54c24.358-43.375,49.211-77.813,60.219-92.451
			c11.008,14.638,35.86,49.075,60.219,92.451c29.695,52.878,64.738,130.246,63.049,198.54c-0.657,26.582-8.882,49.41-24.446,67.852
			c-13.943,16.521-33.505,28.903-56.571,35.805c-26.251,7.855-55.304,8.132-81.808,0.778c-27.903-7.743-50.396-23.003-65.046-44.132
			c-2.359-3.404-7.034-4.25-10.437-1.89c-3.404,2.36-4.25,7.033-1.89,10.437c16.672,24.044,42.039,41.348,73.361,50.039
			c14.088,3.909,28.829,5.86,43.564,5.86c15.798,0,31.59-2.243,46.554-6.721c56.021-16.764,90.306-60.748,91.714-117.657
			c0.376-15.205-0.889-31.243-3.75-48.063c15.355,6.402,32.22,9.62,49.104,9.62c21.133,0,42.289-5.03,60.526-15.127
			c31.875-17.647,49.938-47.926,50.862-85.256C473.78,202.799,456.353,147.404,420.842,84.152z"/>
		<path d="M206.97,282.112c-3.337,0-5.996,1.584-7.295,4.346l-60.032,123.314c-0.553,1.103-0.869,2.308-0.869,3.306
			c0,4.438,3.899,9.19,9.703,9.19c3.403,0,6.615-1.788,7.81-4.347l60.202-123.314c0.577-1.152,0.698-2.434,0.698-3.306
			C217.187,285.805,211.903,282.112,206.97,282.112z"/>
		<path d="M156.679,294.347c-4.377-3.465-10.531-5.222-18.293-5.222c-7.824,0-14.001,1.757-18.357,5.222
			c-4.926,3.917-7.424,9.971-7.424,17.992v24.287c0,8.021,2.498,14.075,7.424,17.993c4.356,3.465,10.533,5.222,18.357,5.222
			c7.762,0,13.916-1.757,18.293-5.222c4.968-3.933,7.487-9.987,7.487-17.993v-24.287
			C164.166,304.333,161.647,298.28,156.679,294.347z M138.386,344.71c-5.479,0-8.256-2.72-8.256-8.085v-24.287
			c0-5.364,2.777-8.084,8.256-8.084c5.512,0,8.426,2.795,8.426,8.084v24.287C146.812,341.915,143.898,344.71,138.386,344.71z"/>
		<path d="M191.109,367.412v24.287c0,8.021,2.498,14.075,7.424,17.992c4.356,3.465,10.533,5.222,18.357,5.222
			c7.761,0,13.915-1.757,18.292-5.222c4.968-3.933,7.487-9.987,7.487-17.992v-24.287c0-8.005-2.52-14.059-7.487-17.993
			c-4.377-3.465-10.531-5.222-18.292-5.222c-7.824,0-14,1.757-18.357,5.223C193.608,353.337,191.109,359.391,191.109,367.412z
			 M225.317,391.699c0,5.289-2.914,8.084-8.426,8.084c-5.479,0-8.257-2.72-8.257-8.084v-24.287c0-5.365,2.778-8.085,8.257-8.085
			c5.512,0,8.426,2.796,8.426,8.085V391.699z"/>
	</g>
</g>
<g>
</g>
<g>
</g>
<g>
</g>
<g>
</g>
<g>
</g>
<g>
</g>
<g>
</g>
<g>
</g>
<g>
</g>
<g>
</g>
<g>
</g>
<g>
</g>
<g>
</g>
<g>
</g>
<g>
</g>
</svg>
