<?xml version="1.0" encoding="iso-8859-1"?>
<!-- Generator: Adobe Illustrator 21.0.0, SVG Export Plug-In . SVG Version: 6.00 Build 0)  -->
<svg version="1.1" id="Capa_1" xmlns="http://www.w3.org/2000/svg" xmlns:xlink="http://www.w3.org/1999/xlink" x="0px" y="0px"
	 viewBox="0 0 512 512" style="enable-background:new 0 0 512 512;" xml:space="preserve">
<g>
	<g>
		<path style="fill:#A5E4EF;" d="M470.41,140.73c-7.14-15.96-16.18-31.09-26.99-45.12c-5.95-7.73-12.45-15.13-19.46-22.14
			c-4.24-4.24-8.62-8.29-13.13-12.14c-23.78-20.34-51.14-35.28-80.58-44.19c-20.98-6.35-43.01-9.64-65.56-9.64h-17.38
			c-60.17,0-116.73,23.43-159.27,65.97c-42.54,42.54-65.97,99.11-65.97,159.27v256.49c0,8.43,6.83,15.27,15.26,15.27h437.34
			c8.43,0,15.26-6.84,15.26-15.27V232.74C489.93,200.5,483.2,169.29,470.41,140.73z"/>
		<path style="fill:#DAF3F8;" d="M410.83,61.33L154.97,504.5H48.88L330.25,17.14C359.69,26.05,387.05,40.99,410.83,61.33z"/>
		<path style="fill:#DAF3F8;" d="M470.41,140.73L260.39,504.5h-53.05L443.42,95.61C454.23,109.64,463.27,124.77,470.41,140.73z"/>
		<path style="fill:#02C6DB;" d="M474.665,504.5H37.335c-8.432,0-15.268-6.836-15.268-15.268V232.74
			c0-60.164,23.429-116.727,65.971-159.269C130.58,30.929,187.143,7.5,247.307,7.5h17.386c60.164,0,116.727,23.429,159.269,65.971
			c42.542,42.542,65.971,99.105,65.971,159.269v256.492C489.934,497.664,483.098,504.5,474.665,504.5z M52.603,473.964h406.794
			V232.74c0-107.36-87.344-194.704-194.704-194.704h-17.386c-107.36,0-194.704,87.343-194.704,194.704V473.964z"/>
		<circle style="fill:#665E66;" cx="219.52" cy="367.858" r="18.244"/>
	</g>
	<g>
		<path d="M458.402,103.606c-2.305-3.441-6.962-4.362-10.405-2.059c-3.441,2.305-4.363,6.963-2.059,10.405
			c23.874,35.649,36.492,77.417,36.492,120.787v256.49c0,4.285-3.481,7.77-7.76,7.77H37.33c-4.279,0-7.76-3.485-7.76-7.77V232.74
			c0-58.163,22.648-112.842,63.773-153.967C134.468,37.648,189.148,15,247.31,15h17.38c58.162,0,112.842,22.648,153.967,63.774
			c3.33,3.33,6.558,6.766,9.595,10.213c2.737,3.108,7.477,3.409,10.585,0.67c3.108-2.738,3.408-7.477,0.67-10.585
			c-3.245-3.684-6.692-7.353-10.245-10.905C385.305,24.209,326.858,0,264.69,0h-17.38C185.142,0,126.695,24.209,82.737,68.167
			C38.779,112.125,14.57,170.571,14.57,232.74v256.49c0,12.556,10.21,22.77,22.76,22.77h437.34c12.55,0,22.76-10.214,22.76-22.77
			V232.74C497.43,186.388,483.935,141.734,458.402,103.606z"/>
		<path d="M264.693,30.537h-17.386c-111.496,0-202.204,90.708-202.204,202.204v241.223c0,4.142,3.358,7.5,7.5,7.5h406.794
			c4.142,0,7.5-3.358,7.5-7.5V232.74C466.897,121.245,376.189,30.537,264.693,30.537z M420.043,128.39H263.5V45.537h1.193
			C329.314,45.537,386.389,78.449,420.043,128.39z M247.307,45.537h1.193v82.854H91.957
			C125.612,78.449,182.687,45.537,247.307,45.537z M82.838,143.39H248.5v50.96h-69.39c-4.142,0-7.5,3.358-7.5,7.5v43.83H60.103
			v-12.94C60.103,200.405,68.346,169.959,82.838,143.39z M340.39,260.68h111.507v102.28H340.39V260.68z M325.39,466.46H186.61
			V326.82c0-4.142-3.358-7.5-7.5-7.5s-7.5,3.358-7.5,7.5v36.14H60.103V260.68H171.61v36.14c0,4.142,3.358,7.5,7.5,7.5
			s7.5-3.358,7.5-7.5v-87.47h138.78V466.46z M60.103,377.96H171.61v88.503H60.103V377.96z M340.39,466.463V377.96h111.507v88.503
			H340.39z M451.897,245.68H340.39v-43.83c0-4.142-3.358-7.5-7.5-7.5H263.5v-50.96h165.662
			c14.492,26.569,22.735,57.014,22.735,89.35V245.68z"/>
		<path d="M219.52,393.602c14.196,0,25.745-11.549,25.745-25.744s-11.549-25.744-25.745-25.744
			c-14.195,0-25.744,11.549-25.744,25.744S205.324,393.602,219.52,393.602z M219.52,357.114c5.925,0,10.745,4.82,10.745,10.744
			s-4.82,10.744-10.745,10.744c-5.924,0-10.744-4.82-10.744-10.744S213.595,357.114,219.52,357.114z"/>
	</g>
</g>
<g>
</g>
<g>
</g>
<g>
</g>
<g>
</g>
<g>
</g>
<g>
</g>
<g>
</g>
<g>
</g>
<g>
</g>
<g>
</g>
<g>
</g>
<g>
</g>
<g>
</g>
<g>
</g>
<g>
</g>
</svg>
