<?xml version="1.0" encoding="iso-8859-1"?>
<!-- Generator: Adobe Illustrator 21.0.0, SVG Export Plug-In . SVG Version: 6.00 Build 0)  -->
<svg version="1.1" id="Capa_1" xmlns="http://www.w3.org/2000/svg" xmlns:xlink="http://www.w3.org/1999/xlink" x="0px" y="0px"
	 viewBox="0 0 512 512" style="enable-background:new 0 0 512 512;" xml:space="preserve">
<g>
	<g>
		<path style="fill:#A5E4EF;" d="M437.572,452.181l-189.955,21.967L57.905,452.181c0,0-3.515-10.911-8.209-29.113
			c-11.261-43.72-29.282-129.531-21.624-207.475c0,0,62.37-103.119,219.666-183.772c9.474,4.86,18.611,9.804,27.409,14.794
			c29.109,16.535,54.508,33.656,76.48,50.368c11.995,9.133,22.976,18.136,32.962,26.869c13.096,11.442,24.502,22.4,34.304,32.502
			c33.609,34.606,48.511,59.24,48.511,59.24C478.25,326.001,437.572,452.181,437.572,452.181z"/>
		<path style="fill:#DAF3F8;" d="M418.897,156.351l-38.689,64.604l-46.883,78.277v-78.277h-6.899l6.899-11.518l51.26-85.592
			C397.688,135.296,409.09,146.254,418.897,156.351z"/>
		<path style="fill:#DAF3F8;" d="M49.697,423.069l112.454-187.774v178.054l-23.258,38.834H57.91
			C57.91,452.183,54.393,441.264,49.697,423.069z"/>
		<path style="fill:#DAF3F8;" d="M351.626,96.984l-18.301,30.553l-55.947,93.419H170.741L275.146,46.612
			C304.26,63.145,329.653,80.267,351.626,96.984z"/>
		<rect x="162.151" y="220.956" style="fill:#02C6DB;" width="171.174" height="231.227"/>
		<path style="fill:#49CB8B;" d="M333.325,261.592v206.646h-81.089c-1.952-2.744-4.029-5.189-6.435-6.938
			c-9.605-6.986-27.809-5.701-34.805-15.306c-6.918-9.508-0.106-26.389-3.817-37.81c-3.585-11.015-19.132-20.62-19.132-32.834
			c0-12.213,15.547-21.818,19.132-32.843c3.71-11.421-3.102-28.302,3.817-37.81c6.996-9.595,25.2-8.31,34.805-15.296
			c9.498-6.918,13.866-24.678,25.287-28.379c11.015-3.585,24.93,8.097,37.143,8.097C316.299,269.12,325.102,264.027,333.325,261.592
			z"/>
		<path style="fill:#13B766;" d="M333.325,261.593v2.512c-1.594-0.01-3.14,0.203-4.628,0.686
			c-11.421,3.701-15.789,21.461-25.287,28.379c-9.605,6.986-27.809,5.701-34.805,15.296c-6.918,9.508-0.106,26.389-3.817,37.81
			c-3.585,11.025-19.132,20.63-19.132,32.843c0,12.214,15.547,21.818,19.132,32.834c3.71,11.421-3.102,28.302,3.817,37.81
			c6.996,9.605,25.2,8.32,34.805,15.306c1.227,0.889,2.367,1.971,3.459,3.169h-54.633c-1.952-2.744-4.029-5.189-6.435-6.938
			c-9.605-6.986-27.809-5.701-34.805-15.306c-6.919-9.508-0.106-26.389-3.817-37.81c-3.585-11.015-19.132-20.62-19.132-32.834
			c0-12.214,15.547-21.818,19.132-32.843c3.71-11.421-3.102-28.302,3.817-37.81c6.996-9.595,25.2-8.31,34.805-15.296
			c9.498-6.919,13.866-24.678,25.287-28.379c11.015-3.585,24.93,8.097,37.143,8.097C316.299,269.12,325.102,264.028,333.325,261.593
			z"/>
		<path style="fill:#02C6DB;" d="M437.579,468.122c-1.621,0-3.268-0.249-4.893-0.773c-8.376-2.7-12.977-11.68-10.277-20.056
			c0.471-1.466,38.585-121.609,29.491-226.335c-5.034-7.539-20.35-29.153-47.59-56.732c-30.271-30.646-81.708-74.96-156.571-114.444
			C172.875,89.266,121.438,133.58,91.167,164.226c-27.228,27.566-42.542,49.174-47.59,56.733
			c-9.104,104.836,29.101,225.12,29.493,226.338c2.695,8.376-1.908,17.354-10.284,20.051c-8.375,2.698-17.351-1.901-20.051-10.276
			c-1.702-5.281-41.568-130.623-30.524-243.033c0.232-2.368,0.993-4.653,2.224-6.689c0.676-1.118,16.974-27.8,53.121-64.569
			c32.99-33.558,89.767-82.509,172.912-125.14c4.565-2.34,9.977-2.34,14.541,0c83.145,42.631,139.923,91.582,172.912,125.14
			c36.147,36.769,52.445,63.451,53.121,64.569c1.231,2.036,1.991,4.321,2.224,6.689c11.044,112.41-28.821,237.752-30.524,243.033
			C450.566,463.823,444.31,468.122,437.579,468.122z"/>
		<path style="fill:#D5694C;" d="M465.768,452.182H29.466c-12.131,0-21.966,9.834-21.966,21.966v0
			c0,12.131,9.834,21.966,21.966,21.966h436.302c12.131,0,21.966-9.834,21.966-21.966v0
			C487.734,462.016,477.9,452.182,465.768,452.182z"/>
		<path style="fill:#A64C31;" d="M79.373,489.687c3.979,3.969,9.474,6.432,15.539,6.432H29.462c-6.065,0-11.551-2.463-15.53-6.432
			c-3.979-3.979-6.432-9.474-6.432-15.539c0-12.13,9.832-21.962,21.962-21.962h65.451c-12.13,0-21.971,9.832-21.971,21.962
			C72.941,480.213,75.404,485.708,79.373,489.687z"/>
		<rect x="333.325" y="220.956" style="fill:#A5E4EF;" width="171.174" height="231.227"/>
		<polygon style="fill:#DAF3F8;" points="504.499,220.956 504.499,274.7 398.2,452.183 344.427,452.183 482.922,220.956 		"/>
		<circle style="fill:#665E66;" cx="465.96" cy="333.877" r="16.361"/>
	</g>
	<g>
		<path d="M504.5,213.454h-13.753c-0.004-0.045-0.008-0.091-0.012-0.136c-0.333-3.44-1.465-6.842-3.285-9.86
			c-1.011-1.665-10.447-16.922-30.101-39.794c-2.7-3.141-7.435-3.499-10.577-0.8c-3.142,2.7-3.5,7.435-0.8,10.577
			c19.198,22.34,28.281,37.185,28.646,37.784c0.429,0.711,0.734,1.459,0.939,2.229h-19.698c-6.86-9.869-21.816-29.796-46.214-54.498
			c-30.325-30.712-82.422-75.735-158.402-115.809c-2.19-1.155-4.808-1.156-6.998,0C168.295,83.2,116.179,128.232,85.833,158.956
			c-27.516,27.858-43.077,49.727-48.49,57.836c-0.701,1.049-1.125,2.258-1.234,3.515c-8.255,95.074,21.203,200.659,28.312,224.375
			H46.814c-8.938-30.871-36.391-135.724-27.129-229.916c0.123-1.267,0.515-2.451,1.191-3.563
			c0.156-0.262,16.066-26.58,52.022-63.163c32.599-33.163,88.728-81.547,171.001-123.728c2.408-1.238,5.277-1.239,7.688,0.004
			c82.251,42.169,138.38,90.557,170.985,123.725c1.174,1.194,2.339,2.389,3.474,3.563c2.877,2.977,7.625,3.061,10.605,0.181
			c2.979-2.878,3.06-7.626,0.181-10.605c-1.165-1.206-2.36-2.431-3.564-3.656c-33.378-33.955-90.805-83.474-174.823-126.549
			c-6.696-3.45-14.698-3.451-21.397-0.007c-84.047,43.09-141.473,92.605-174.848,126.557c-37.199,37.848-53.52,64.846-54.17,65.932
			c-1.831,3.013-2.933,6.331-3.274,9.852c-9.134,92.885,16.312,195.338,26.461,231.374h-1.751C13.218,444.682,0,457.9,0,474.148
			s13.218,29.466,29.466,29.466h436.302c16.248,0,29.466-13.218,29.466-29.466c0-5.256-1.39-10.19-3.811-14.467H504.5
			c4.142,0,7.5-3.358,7.5-7.5V220.954C512,216.812,508.642,213.454,504.5,213.454z M169.651,228.456h156.174v27.794
			c-1.242,0.47-2.475,0.952-3.688,1.431c-4.904,1.938-9.976,3.943-13.906,3.943c-3.923,0-8.99-2.001-13.89-3.936
			c-7.884-3.114-16.822-6.642-25.565-3.796c-9.104,2.95-14.342,11.256-18.963,18.584c-2.71,4.299-5.514,8.745-8.424,10.864
			c-2.991,2.176-8.144,3.495-13.127,4.77c-8.328,2.131-17.767,4.547-23.33,12.179c-5.503,7.563-4.902,17.239-4.371,25.775
			c0.322,5.177,0.655,10.529-0.514,14.128c-1.081,3.323-4.392,7.299-7.595,11.144c-5.58,6.699-11.905,14.292-11.905,24.019
			c0,9.729,6.327,17.323,11.91,24.022c3.201,3.842,6.511,7.814,7.589,11.128c1.169,3.601,0.836,8.953,0.515,14.13
			c-0.404,6.5-0.841,13.657,1.401,20.046h-32.31V228.456z M221.27,444.682c-1.982-0.928-3.372-1.948-4.21-3.096
			c-2.326-3.197-1.92-9.715-1.528-16.019c0.409-6.578,0.832-13.379-1.221-19.7c-1.973-6.061-6.221-11.16-10.33-16.091
			c-4.146-4.977-8.434-10.122-8.434-14.421c0-4.298,4.286-9.443,8.43-14.419c4.111-4.935,8.361-10.038,10.334-16.107
			c2.052-6.316,1.629-13.118,1.22-19.696c-0.392-6.304-0.798-12.822,1.524-16.013c2.382-3.268,8.758-4.9,14.924-6.478
			c6.351-1.625,12.918-3.306,18.235-7.174c5.238-3.815,8.821-9.497,12.285-14.991c3.423-5.428,6.962-11.041,10.908-12.319
			c3.622-1.18,9.621,1.189,15.422,3.48c6.205,2.451,12.622,4.985,19.4,4.985c6.125,0,11.951-2.067,17.594-4.275v172.333H221.27z
			 M398.971,169.497c17.891,18.114,30.463,33.472,38.361,43.958h-96.507v-95.151C365.347,137.224,384.655,154.998,398.971,169.497z
			 M247.743,58.273c29.833,15.951,55.805,32.635,78.082,48.804v106.378H169.651V107.084
			C191.935,90.91,217.913,74.222,247.743,58.273z M96.505,169.497c14.32-14.499,33.631-32.271,58.146-51.186v95.145H58.147
			C66.058,202.955,78.643,187.58,96.505,169.497z M56.112,336.752H96.63c4.142,0,7.5-3.358,7.5-7.5s-3.358-7.5-7.5-7.5H54.076
			c-3.704-29.81-5.642-62.09-3.55-93.297h104.124v93.297H126.63c-4.142,0-7.5,3.358-7.5,7.5s3.358,7.5,7.5,7.5h28.021v107.93H80.11
			C78.843,440.668,64.667,394.983,56.112,336.752z M465.768,488.614H29.466c-7.977,0-14.466-6.489-14.466-14.466
			s6.489-14.466,14.466-14.466h436.302c7.977,0,14.466,6.489,14.466,14.466S473.745,488.614,465.768,488.614z M497,444.681H340.826
			V228.456L497,228.454V444.681z"/>
		<path d="M442.098,333.876c0,13.157,10.705,23.861,23.862,23.861s23.861-10.704,23.861-23.861s-10.704-23.861-23.861-23.861
			S442.098,320.719,442.098,333.876z M474.821,333.876c0,4.886-3.975,8.861-8.861,8.861s-8.862-3.975-8.862-8.861
			s3.976-8.861,8.862-8.861S474.821,328.99,474.821,333.876z"/>
	</g>
</g>
<g>
</g>
<g>
</g>
<g>
</g>
<g>
</g>
<g>
</g>
<g>
</g>
<g>
</g>
<g>
</g>
<g>
</g>
<g>
</g>
<g>
</g>
<g>
</g>
<g>
</g>
<g>
</g>
<g>
</g>
</svg>
