<?xml version="1.0" encoding="iso-8859-1"?>
<!-- Generator: Adobe Illustrator 21.0.0, SVG Export Plug-In . SVG Version: 6.00 Build 0)  -->
<svg version="1.1" id="Capa_1" xmlns="http://www.w3.org/2000/svg" xmlns:xlink="http://www.w3.org/1999/xlink" x="0px" y="0px"
	 viewBox="0 0 511.997 511.997" style="enable-background:new 0 0 511.997 511.997;" xml:space="preserve">
<g>
	<g>
		<path style="fill:#FA4954;" d="M221.217,469.716v-40.03c23.565,0,44.683-13.207,57.941-36.235
			c13.948-24.227,15.301-53.076,3.445-73.494l34.618-20.1c9.747,16.786,14.344,36.688,13.295,57.554
			c-0.975,19.399-6.738,38.768-16.667,56.013C293.557,448.672,258.927,469.716,221.217,469.716z"/>
		<path style="fill:#E21F2D;" d="M238.569,429.686c23.565,0,44.683-13.207,57.941-36.235c13.948-24.227,15.301-53.076,3.445-73.494
			l21.28-12.355c-1.226-2.644-2.555-5.233-4.013-7.745l-34.618,20.1c11.856,20.419,10.503,49.267-3.445,73.494
			c-13.258,23.028-34.376,36.235-57.941,36.235v40.03c5.873,0,11.671-0.511,17.351-1.506V429.686z"/>
		<g>
			<path style="fill:#02C6DB;" d="M254.17,324.958c-22.244-30.989-47.767-70.461-47.436-123.675l18.032-12.943
				c50.523,16.711,79.754,53.521,101.998,84.51l-21.389,36.222L254.17,324.958z"/>
			<path style="fill:#02B0CC;" d="M212.458,197.17c15.831,41.62,42.531,80.241,64.777,111.233l-23.065,16.556
				c-22.246-30.991-47.767-70.459-47.444-123.674L212.458,197.17z"/>
			<path style="fill:#E3DFE2;" d="M326.764,272.851l-72.594,52.108c-6.729,4.83-8.268,14.2-3.438,20.929l0,0
				c4.83,6.729,14.2,8.268,20.929,3.438l72.594-52.108c6.729-4.83,8.268-14.2,3.438-20.929l0,0
				C342.864,269.56,333.493,268.021,326.764,272.851z"/>
			<path style="fill:#D3CED5;" d="M288.315,331.968c3.785,0.622,7.814-0.201,11.18-2.617l-27.829,19.975
				c-3.366,2.416-7.395,3.239-11.18,2.617c-3.785-0.622-7.339-2.69-9.755-6.056c-4.826-6.723-3.287-16.094,3.445-20.926
				l27.829-19.975c-6.732,4.832-8.271,14.203-3.445,20.926C280.976,329.278,284.531,331.346,288.315,331.968z"/>
			<path style="fill:#E3DFE2;" d="M221.308,172.762l-28.227,20.261c-6.729,4.83-8.268,14.2-3.438,20.929l0,0
				c4.83,6.729,14.2,8.268,20.929,3.438l28.227-20.261c6.729-4.83,8.268-14.2,3.438-20.929l0,0
				C237.407,169.472,228.037,167.932,221.308,172.762z"/>
			<path style="fill:#D3CED5;" d="M217.473,207.022c3.785,0.622,7.806-0.195,11.172-2.611l-18.073,12.973
				c-3.366,2.416-7.395,3.238-11.18,2.617c-3.785-0.622-7.339-2.69-9.749-6.048c-4.832-6.732-3.293-16.103,3.439-20.935
				l18.073-12.973c-6.723,4.826-8.263,14.197-3.431,20.929C210.134,204.332,213.688,206.4,217.473,207.022z"/>
		</g>
		<path style="fill:#FA4954;" d="M290.783,469.716c-57.086,0-110.755-22.231-151.121-62.596s-62.596-94.035-62.596-151.121
			s22.231-110.755,62.596-151.121s94.035-62.596,151.121-62.596s110.755,22.231,151.122,62.596
			c40.365,40.366,62.596,94.035,62.596,151.121s-22.231,110.755-62.596,151.121C401.538,447.485,347.868,469.716,290.783,469.716z
			 M290.783,82.311c-95.772,0-173.687,77.916-173.687,173.687s77.916,173.687,173.687,173.687
			c95.771,0,173.687-77.916,173.687-173.687S386.554,82.311,290.783,82.311z"/>
		<g>
			<path style="fill:#E21F2D;" d="M300.174,429.43c3.11,0.166,6.24,0.256,9.391,0.256c95.771,0,173.687-77.916,173.687-173.687
				S405.336,82.311,309.565,82.311c-3.151,0-6.281,0.09-9.391,0.256c91.421,4.895,164.296,80.81,164.296,173.431
				S391.595,424.535,300.174,429.43z"/>
			<path style="fill:#E21F2D;" d="M158.444,407.12c-40.366-40.366-62.596-94.035-62.596-151.121s22.231-110.755,62.596-151.121
				c38.144-38.144,88.17-60.083,141.73-62.383c-3.12-0.134-6.249-0.213-9.391-0.213c-57.086,0-110.755,22.231-151.121,62.596
				s-62.596,94.035-62.596,151.121s22.231,110.755,62.596,151.121s94.035,62.596,151.121,62.596c3.142,0,6.272-0.079,9.391-0.213
				C246.613,467.202,196.588,445.264,158.444,407.12z"/>
		</g>
		<path style="fill:#FA4954;" d="M221.217,469.716c-57.086,0-110.755-22.231-151.121-62.596S7.5,313.084,7.5,255.999
			s22.231-110.755,62.596-151.121s94.035-62.596,151.121-62.596s110.755,22.231,151.122,62.596
			c40.365,40.366,62.596,94.035,62.596,151.121s-22.231,110.755-62.596,151.121C331.973,447.485,278.303,469.716,221.217,469.716z
			 M221.217,82.311c-95.772,0-173.687,77.916-173.687,173.687s77.916,173.687,173.687,173.687
			c95.771,0,173.687-77.916,173.687-173.687S316.989,82.311,221.217,82.311z"/>
		<g>
			<path style="fill:#E21F2D;" d="M230.609,429.43c3.11,0.166,6.24,0.256,9.391,0.256c95.771,0,173.687-77.916,173.687-173.687
				S335.771,82.311,240,82.311c-3.151,0-6.281,0.09-9.391,0.256c91.421,4.895,164.296,80.81,164.296,173.431
				S322.03,424.535,230.609,429.43z"/>
			<path style="fill:#E21F2D;" d="M88.879,407.12c-40.366-40.366-62.596-94.035-62.596-151.121s22.231-110.755,62.596-151.121
				c38.144-38.144,88.17-60.083,141.73-62.383c-3.12-0.134-6.249-0.213-9.391-0.213c-57.086,0-110.755,22.231-151.121,62.596
				S7.5,198.913,7.5,255.999S29.731,366.754,70.096,407.12s94.035,62.596,151.121,62.596c3.142,0,6.272-0.079,9.391-0.213
				C177.048,467.202,127.023,445.264,88.879,407.12z"/>
		</g>
		<path style="fill:#02C6DB;" d="M186.499,161.111c0,0-44.822-5.008-64.456-25.637c-22.593-23.739,15.08-61.412,38.819-38.819
			C181.491,116.289,186.499,161.111,186.499,161.111z"/>
		<path style="fill:#02B0CC;" d="M186.502,161.114c0,0-44.824-5.014-64.459-25.639c-11.298-11.869-7.526-27.22,2.032-36.787
			c-2.842,2.852,0.1,11.489,11.599,23.157C155.648,142.13,186.502,161.114,186.502,161.114z"/>
	</g>
	<g>
		<path d="M457.792,110.926c-2.72-3.124-7.459-3.449-10.581-0.728c-3.123,2.721-3.449,7.458-0.728,10.582
			c32.574,37.387,50.514,85.409,50.514,135.219c0,55.084-21.451,106.871-60.401,145.82c-36.193,36.194-83.471,57.265-134.174,60.068
			c25.411-10.015,48.906-24.788,69.39-43.86c29.43-14.773,54.319-37.271,72.02-65.139c18.406-28.978,28.135-62.481,28.135-96.889
			s-9.729-67.911-28.135-96.889c-17.702-27.868-42.591-50.365-72.02-65.139c-20.479-19.067-43.967-33.837-69.369-43.852
			c45.597,2.57,89.092,20.148,123.553,50.173c1.421,1.238,3.176,1.845,4.924,1.845c2.093,0,4.175-0.871,5.658-2.573
			c2.721-3.123,2.395-7.86-0.729-10.582c-40.119-34.955-91.637-54.205-145.063-54.205c-11.705,0-23.408,0.919-34.813,2.716
			c-11.393-1.788-23.003-2.713-34.756-2.713c-59.089,0-114.642,23.011-156.424,64.793C23.011,141.356,0,196.909,0,255.999
			s23.011,114.642,64.793,156.424c41.783,41.782,97.335,64.793,156.424,64.793c11.757,0,23.371-0.926,34.768-2.715
			c11.457,1.798,23.157,2.718,34.801,2.718c59.084,0,114.634-23.011,156.417-64.794c41.783-41.782,64.794-97.335,64.794-156.427
			C511.997,202.565,492.747,151.044,457.792,110.926z M431.171,167.152c16.876,26.569,25.796,57.292,25.796,88.846
			s-8.92,62.277-25.796,88.846c-6.252,9.843-13.482,18.955-21.548,27.216c21.37-34.546,32.812-74.422,32.812-116.062
			c0-41.626-11.434-81.49-32.791-116.028C417.699,148.224,424.926,157.32,431.171,167.152z M75.399,401.816
			C36.45,362.867,15,311.082,15,255.999S36.45,149.13,75.399,110.181c38.95-38.949,90.735-60.399,145.818-60.399
			s106.869,21.45,145.818,60.399s60.399,90.735,60.399,145.818s-21.45,106.869-60.399,145.818s-90.735,60.399-145.818,60.399
			S114.349,440.766,75.399,401.816z"/>
		<path d="M221.213,74.808c-21.49,0-42.473,3.733-62.436,11.093c-13.865-7.53-29.834-2.68-40.003,7.487
			c-5.736,5.736-9.772,13.319-10.857,21.328c-43.178,34.66-67.885,85.956-67.885,141.284c0,99.909,81.277,181.191,181.181,181.191
			c99.909,0,181.191-81.282,181.191-181.191S321.122,74.808,221.213,74.808z M171.555,97.381
			c15.191-4.774,30.972-7.299,47.081-7.543c-13.514,5.891-26.316,13.429-38.071,22.461
			C178.032,106.991,175.05,101.888,171.555,97.381z M129.381,103.994c4.994-4.994,9.96-6.74,14.323-6.74
			c5.157,0,9.471,2.439,11.987,4.834c7.421,7.063,13.798,19.498,18.44,35.959c1.469,5.208,2.548,10.074,3.316,14.039
			c-15.084-2.946-38.467-9.694-49.972-21.783C123.056,125.66,118.483,114.892,129.381,103.994z M258.507,331.08
			c0.015-0.01,0.031-0.017,0.045-0.027c0.035-0.025,0.066-0.054,0.1-0.08l72.461-52.012c0.008-0.006,0.017-0.009,0.025-0.015
			c0.004-0.003,0.007-0.006,0.011-0.009c1.286-0.92,2.793-1.401,4.344-1.401c0.408,0,0.819,0.033,1.23,0.101
			c1.977,0.325,3.708,1.4,4.876,3.027s1.632,3.611,1.308,5.587s-1.399,3.708-3.026,4.875l-72.595,52.108
			c-1.627,1.167-3.609,1.631-5.587,1.308c-1.976-0.325-3.708-1.4-4.875-3.027C254.423,338.168,255.181,333.498,258.507,331.08z
			 M297.28,340.169l22.164-15.909c2.951,10.359,4.16,21.34,3.586,32.772c-0.612,12.167-3.218,24.217-7.702,35.862
			c-12.778,8.812-26.843,15.884-41.853,20.869c4.526-4.849,8.621-10.382,12.183-16.57
			C295.938,379.355,300.057,358.855,297.28,340.169z M148.845,405.584c-1.275-1.205-2.572-2.458-3.88-3.765
			c-38.95-38.95-60.4-90.736-60.4-145.82c0-40.875,11.713-79.891,33.951-113.46c5.922,5.593,13.388,10.045,21.175,13.57
			c-19.716,29.678-30.096,64.01-30.096,99.89c0,72.931,44.097,137.845,108.947,166.157
			C193.603,421.76,169.98,415.852,148.845,405.584z M55.033,255.999c0-43.975,17.023-85.179,47.344-116.086
			c-21.516,34.725-32.812,74.516-32.812,116.086c0,41.618,11.429,81.473,32.777,116.007
			C73.09,342.034,55.033,301.089,55.033,255.999z M335.71,376.347c1.216-6.137,1.987-12.334,2.3-18.562
			c0.753-14.969-1.173-29.318-5.725-42.742l16.344-11.731c4.883-3.504,8.107-8.7,9.082-14.63c0.974-5.93-0.42-11.884-3.924-16.766
			s-8.699-8.107-14.629-9.081c-3.374-0.554-6.749-0.316-9.937,0.615c-18.83-25.798-42.037-53.613-77.675-71.962
			c1.962-6.474,1.026-13.752-3.215-19.66c-7.233-10.078-21.316-12.391-31.396-5.157l-28.227,20.261
			c-10.077,7.233-12.391,21.317-5.158,31.396c4.24,5.907,10.833,9.137,17.594,9.35c2.469,16.279,7.298,32.172,14.689,48.351
			c1.26,2.758,3.98,4.386,6.826,4.386c1.042,0,2.102-0.219,3.112-0.68c3.768-1.721,5.427-6.17,3.706-9.938
			c-7.171-15.699-11.714-31.059-13.849-46.801l26.856-19.277c33.533,16.622,55.755,42.864,73.784,67.436l-60.343,43.314
			c-3.939-5.614-8.37-12.149-12.642-19.088c-2.171-3.526-6.792-4.625-10.319-2.455c-3.527,2.172-4.626,6.792-2.455,10.319
			c4.774,7.754,9.704,14.978,13.978,21.036c-5.297,7.606-5.553,18.033,0.152,25.982c3.504,4.882,8.7,8.107,14.629,9.081
			c1.234,0.203,2.469,0.303,3.695,0.303c4.666,0,9.205-1.452,13.07-4.227l7.089-5.089c0.289,13.136-3.315,26.972-10.463,39.376
			c-6.868,11.929-16.033,20.911-26.561,26.374c-71.063-19.844-121.504-85.376-121.504-160.082c0-34.036,10.186-66.554,29.499-94.401
			c16.203,5.18,30.506,6.848,31.572,6.967c0.278,0.031,0.557,0.046,0.833,0.046c1.978,0,3.889-0.783,5.303-2.197
			c1.612-1.612,2.404-3.87,2.15-6.136c-0.124-1.107-1.92-16.5-7.588-33.468c20.296-16.437,44.25-27.896,69.66-33.323
			c74.981,16.045,131.38,82.811,131.38,162.512C387.404,303.303,367.537,346.053,335.71,376.347z M206.199,211.298
			c-3.358,2.411-8.053,1.639-10.463-1.718c-2.411-3.359-1.64-8.053,1.719-10.464l28.227-20.261c1.321-0.948,2.848-1.404,4.362-1.404
			c2.335,0,4.639,1.085,6.101,3.123c2.411,3.358,1.64,8.053-1.719,10.463L206.199,211.298z"/>
	</g>
</g>
<g>
</g>
<g>
</g>
<g>
</g>
<g>
</g>
<g>
</g>
<g>
</g>
<g>
</g>
<g>
</g>
<g>
</g>
<g>
</g>
<g>
</g>
<g>
</g>
<g>
</g>
<g>
</g>
<g>
</g>
</svg>
