<?xml version="1.0" encoding="iso-8859-1"?>
<!-- Generator: Adobe Illustrator 21.0.0, SVG Export Plug-In . SVG Version: 6.00 Build 0)  -->
<svg version="1.1" id="Capa_1" xmlns="http://www.w3.org/2000/svg" xmlns:xlink="http://www.w3.org/1999/xlink" x="0px" y="0px"
	 viewBox="0 0 512 512" style="enable-background:new 0 0 512 512;" xml:space="preserve">
<g>
	<g>
		<g>
			<path style="fill:#49CB8B;" d="M322.473,313.674c-20.446,2.999-30.26,33.259-30.26,65.7c0,33.149-35.44,65.973-62.974,41.165
				c-27.534-24.808-9.269-56.704-9.269-56.704c-13.631,9.814-61.065-7.633-44.709-41.437
				c19.34-39.969,103.593-27.261,103.593-27.261C303.572,298.135,322.473,313.674,322.473,313.674z"/>
			<path style="fill:#13B766;" d="M219.971,363.843c-13.631,9.815-61.068-7.631-44.709-41.445
				c19.346-39.964,103.593-27.262,103.593-27.262c24.71,3.004,43.613,18.543,43.613,18.543
				C258.404,309.043,219.971,363.843,219.971,363.843z"/>
		</g>
		<g>
			<path style="fill:#49CB8B;" d="M433.244,74.923c-14.995,2.199-22.193,24.392-22.193,48.184c0,24.312-25.992,48.384-46.185,30.19
				s-6.798-41.587-6.798-41.587c-9.997,7.198-44.786-5.598-32.789-30.39c14.184-29.313,75.975-19.994,75.975-19.994
				C419.381,63.527,433.244,74.923,433.244,74.923z"/>
			<path style="fill:#13B766;" d="M358.068,111.717c-9.997,7.199-44.787-5.597-32.79-30.396
				c14.189-29.31,75.975-19.994,75.975-19.994c18.122,2.203,31.986,13.599,31.986,13.599
				C386.255,71.527,358.068,111.717,358.068,111.717z"/>
		</g>
		<g>
			<path style="fill:#49CB8B;" d="M102.509,351.349c-12.363,11.515-4.909,36.433,10.161,58.259
				c15.399,22.302,6.803,60.848-23.245,56.949c-30.049-3.9-32.577-33.844-32.577-33.844c-4.611,12.935-44.63,23.232-49.328-7.109
				c-5.555-35.874,57.032-66.464,57.032-66.464C82.574,349.675,102.509,351.349,102.509,351.349z"/>
			<path style="fill:#13B766;" d="M56.852,432.718c-4.611,12.936-44.63,23.234-49.332-7.115
				c-5.549-35.874,57.031-66.464,57.031-66.464c18.02-9.458,37.956-7.784,37.956-7.784
				C57.253,377.996,56.852,432.718,56.852,432.718z"/>
		</g>
		<g>
			<path style="fill:#49CB8B;" d="M139.239,82.112c19.067-7.967,43.072,12.908,59.79,40.71c17.083,28.408,64.37,38.274,75.181,2.825
				c10.812-35.449-21.278-53.371-21.278-53.371c16.739,1.386,48.399-38.011,16.96-58.551
				c-37.171-24.286-102.827,30.023-102.827,30.023C147.429,59.055,139.239,82.112,139.239,82.112z"/>
			<path style="fill:#13B766;" d="M252.936,72.283c16.74,1.387,48.401-38.011,16.956-58.558
				c-37.175-24.279-102.827,30.022-102.827,30.022c-19.628,15.308-27.82,38.366-27.82,38.366
				C191.759,45.126,252.936,72.283,252.936,72.283z"/>
		</g>
		<g>
			<path style="fill:#49CB8B;" d="M42.231,187.567c20.446,2.999,30.26,33.259,30.26,65.7c0,33.149,35.44,65.973,62.974,41.165
				c27.534-24.808,9.269-56.704,9.269-56.704c13.631,9.814,61.065-7.633,44.709-41.437c-19.34-39.969-103.593-27.261-103.593-27.261
				C61.132,172.028,42.231,187.567,42.231,187.567z"/>
			<path style="fill:#13B766;" d="M144.734,237.736c13.631,9.815,61.068-7.631,44.709-41.445
				C170.096,156.326,85.85,169.028,85.85,169.028c-24.71,3.004-43.613,18.543-43.613,18.543
				C106.301,182.936,144.734,237.736,144.734,237.736z"/>
		</g>
		<g>
			<path style="fill:#49CB8B;" d="M504.827,236.628c-19.275-3.128-36.744,21.336-45.993,50.562
				c-9.451,29.864-50.737,49.331-68.469,19.131c-17.733-30.2,7.816-53.727,7.816-53.727c-15.078,4.955-52.838-24.287-28.464-50.078
				c28.818-30.494,101.1,4.975,101.1,4.975C492.229,217.24,504.827,236.628,504.827,236.628z"/>
			<path style="fill:#13B766;" d="M398.178,252.602c-15.079,4.956-52.84-24.286-28.462-50.085
				c28.823-30.488,101.099,4.974,101.099,4.974c21.405,9.751,34.004,29.14,34.004,29.14
				C448.427,214.189,398.178,252.602,398.178,252.602z"/>
		</g>
	</g>
	<g>
		<path d="M327.149,307.814c-0.839-0.69-20.816-16.901-47.315-20.154c-4.344-0.644-69.403-9.736-100.146,17.058
			c-5.685-28.508-12.631-46.282-18.478-57.164c9.039-1.201,18.7-5.171,26.197-11.469c13.402-11.259,16.632-26.925,8.863-42.981
			c-21.286-43.998-106.204-32.129-111.209-31.387c-26.494,3.251-46.474,19.461-47.313,20.151c-2.29,1.882-3.254,4.938-2.46,7.793
			c0.794,2.856,3.197,4.975,6.13,5.404c14.023,2.057,23.817,25.992,23.817,58.205c0,22.537,14.078,45.159,33.473,53.79
			c5.231,2.328,10.567,3.476,15.823,3.476c9.29,0,18.331-3.588,26.102-10.59c8.681-7.822,13.532-16.525,15.866-25.102
			c3.807,11.338,7.716,26.532,11.009,46.711c-5.248,12.681-3.627,24.984,4.463,34.913c0.601,6.176,1.135,12.544,1.596,19.111
			c-5.548-2.776-11.625-3.994-16.746-3.994c-4.137,0-7.49,3.354-7.49,7.49c0,4.137,3.353,7.49,7.49,7.49
			c0.048,0,5.013,0.097,9.747,2.253c5.193,2.365,7.883,6.12,8.376,11.717c0.594,14.378,0.897,29.493,0.897,45.278v58.341
			c0,4.137,3.353,7.49,7.49,7.49c4.137,0,7.49-3.354,7.49-7.49v-57.504c5.238-23.335,11.086-39.854,16.397-51.417
			c1.585,10.317,6.475,21.145,17.041,30.667c1.069,0.961,2.16,1.859,3.244,2.669c3.312,2.476,8.006,1.797,10.484-1.516
			c2.476-3.314,1.798-8.008-1.517-10.484c-0.721-0.539-1.458-1.147-2.186-1.801c-21.502-19.378-9.61-43.88-7.945-47.03
			c2.09-2.856,23.217-30.742,58.264-42.126c3.935-1.278,6.089-5.504,4.81-9.438c-1.278-3.935-5.506-6.086-9.437-4.81
			c-37.31,12.118-60.156,40.136-65.095,46.676c-4.624,2.089-18.127,0.612-27.754-7.472c-8.074-6.781-9.762-15.191-5.017-24.997
			c13.847-28.609,73.709-26.36,95.599-23.081c0.071,0.011,0.142,0.02,0.215,0.029c11.548,1.402,21.825,5.907,29.029,9.909
			c-5.099,3.982-10.151,10.265-14.244,20.068c-5.178,12.401-8.03,28.993-8.03,46.72c0,17.241-11.856,35.56-26.429,40.836
			c-3.89,1.408-5.902,5.703-4.493,9.593c1.103,3.048,3.978,4.943,7.043,4.943c0.847,0,1.708-0.144,2.549-0.449
			c20.701-7.494,36.311-31.105,36.311-54.922c0-32.213,9.794-56.148,23.818-58.205c2.932-0.43,5.335-2.548,6.129-5.404
			C330.402,312.751,329.438,309.697,327.149,307.814z M130.604,288.818c-9.848,8.874-19.469,7.377-25.806,4.556
			c-14.014-6.237-24.583-23.477-24.583-40.104c0-17.726-2.852-34.319-8.032-46.721c-4.098-9.815-9.156-16.101-14.262-20.082
			c7.179-3.993,17.435-8.482,29.047-9.891c0.069-0.008,0.142-0.018,0.212-0.029c21.898-3.282,81.759-5.532,95.604,23.082
			c4.742,9.801,3.056,18.207-5.014,24.986c-9.624,8.085-23.129,9.57-27.763,7.48c-4.951-6.554-27.799-34.561-65.092-46.674
			c-3.933-1.277-8.16,0.875-9.438,4.81c-1.279,3.934,0.875,8.16,4.809,9.438c34.849,11.319,56.138,39.242,58.26,42.121
			C140.267,245.052,152.062,269.485,130.604,288.818z M188.087,368.806c4.511,2.158,9.272,3.66,13.919,4.446
			c-3.758,5.919-7.944,13.872-12.183,24.527C189.386,387.756,188.808,378.086,188.087,368.806z"/>
		<path d="M107.81,356.708c2.169-2.02,2.943-5.129,1.974-7.93c-0.969-2.801-3.498-4.767-6.452-5.015
			c-0.903-0.077-22.244-1.731-41.925,8.564c-3.926,1.933-67.231,33.797-60.973,74.206c2.301,14.858,12.451,24.559,27.151,25.951
			c7.256,0.687,14.825-0.707,21.239-3.475c1.373,15.493,6.789,34.988,16.112,57.963c1.181,2.911,3.983,4.676,6.943,4.676
			c0.937,0,1.891-0.177,2.814-0.552c3.833-1.556,5.679-5.924,4.124-9.757c-6.186-15.247-9.897-27.302-12.119-36.58
			c5.59,4.41,12.795,7.764,21.975,8.955c1.703,0.221,3.377,0.33,5.018,0.33c11.692,0,21.662-5.544,27.836-15.665
			c9.306-15.256,8.251-37.64-2.51-53.226C104.679,384.39,99.966,364.015,107.81,356.708z M108.739,450.58
			c-3.988,6.538-10.089,9.323-18.137,8.28c-22.251-2.888-25.627-23.695-25.997-26.667c0.12-3.427,1.644-31.334,19.345-54.502
			c2.511-3.287,1.882-7.988-1.404-10.499c-3.288-2.512-7.988-1.882-10.5,1.404c-19.37,25.353-22.014,54.618-22.374,62.07
			c-2.142,3.146-11.315,7.793-20.674,6.904c-7.986-0.756-12.486-5.117-13.758-13.33c-3.85-24.857,36.845-50.66,52.846-58.503
			c0.065-0.032,0.13-0.064,0.194-0.098c7.429-3.901,15.338-5.671,21.638-6.45c-1.182,4.946-1.369,11.131,0.259,18.82
			c2.312,10.923,8.177,23.587,16.512,35.658C114.003,424.26,114.904,440.474,108.739,450.58z"/>
		<path d="M510.79,232.572c-0.562-0.864-14.002-21.259-37.049-31.792c-4.362-2.127-77.697-37.114-109.614-3.34
			c-11.717,12.398-13.292,27.616-4.319,41.752c4.903,7.725,12.348,14.012,20.069,17.735c-7.575,7.222-17.708,18.867-29.976,37.502
			c-2.892-52.936-6.594-92.853-9.997-121.688c2.825-12.478,5.8-22.246,8.628-29.843c2.059,5.538,5.585,11.055,11.18,16.096
			c6.086,5.484,13.17,8.292,20.456,8.292c4.13,0,8.326-0.903,12.44-2.734c14.912-6.636,25.734-23.994,25.734-41.274
			c0-22.25,6.628-39.372,15.761-40.712c2.933-0.43,5.336-2.549,6.13-5.404c0.794-2.855-0.17-5.91-2.46-7.793
			c-0.633-0.52-15.709-12.753-35.699-15.215c-4.013-0.592-67.425-9.36-83.629,24.129c-6.038,12.479-3.417,25.159,7.013,33.921
			c4.814,4.044,10.804,6.813,16.744,8.162c-2.93,5.316-6.152,12.442-9.385,21.927c-10.206-28.16-29.832-52.421-55.665-67.798
			c-1.581-0.941-3.075-1.781-4.499-2.545c6.844-5.67,12.787-13.811,15.867-22.778c5.687-16.557,0.385-31.65-14.549-41.41
			C233.046-18.967,166.383,34.969,162.49,38.172c-21.033,16.443-29.801,40.633-30.164,41.656c-0.992,2.793-0.244,5.908,1.908,7.946
			c2.152,2.037,5.303,2.615,8.038,1.473c11.277-4.711,28.579,6.261,44.082,27.955c2.404,3.365,7.083,4.144,10.449,1.739
			s4.145-7.084,1.739-10.45c-14.977-20.958-31.507-33.184-46.582-35.073c4.093-7.13,10.577-16.287,19.825-23.496
			c0.055-0.043,0.112-0.089,0.166-0.133c17.073-14.095,67.211-46.867,93.83-29.486c9.113,5.956,11.997,14.031,8.573,24.002
			c-4.09,11.904-14.893,20.123-19.944,20.708c-7.624-3.067-41.629-15.289-79.828-6.451c-4.03,0.932-6.541,4.956-5.609,8.986
			c0.931,4.031,4.957,6.538,8.986,5.61c35.726-8.266,68.385,4.721,71.643,6.077c3.167,1.917,25.846,16.775,17.417,44.391
			c-2.582,8.469-7.694,13.932-15.195,16.237c-10.686,3.284-25.226-0.45-36.188-9.288c-3.22-2.596-7.936-2.09-10.532,1.13
			c-2.596,3.22-2.09,7.936,1.13,10.533c11.035,8.897,24.662,13.776,37.274,13.776c4.414,0,8.706-0.598,12.717-1.831
			c12.195-3.748,21.119-13.049,25.124-26.186c3.821-12.52,2.953-23.511-0.294-32.712c24.066,18.772,40.142,47.015,43.822,77.932
			c1.009,8.474,2.046,17.94,3.081,28.437c-0.568-0.421-1.127-0.848-1.721-1.25c-12.556-8.53-30.12-11.866-42.708-8.112
			c-3.965,1.182-6.221,5.354-5.038,9.318c1.182,3.964,5.351,6.218,9.318,5.038c7.06-2.104,19.98-0.667,30.009,6.147
			c7.865,5.343,12.257,12.655,13.054,21.734c0.009,0.099,0.027,0.194,0.04,0.291c4.934,61.521,9.15,149.229,9.15,269.336
			c0,4.137,3.353,7.49,7.49,7.49c4.137,0,7.49-3.354,7.49-7.49c0-34.802-0.354-66.897-0.976-96.446
			c-0.128-8.937,2.53-16.27,7.916-21.794c7.431-7.621,18.216-10.086,22.275-10.086c4.137,0,7.49-3.354,7.49-7.49
			s-3.353-7.49-7.49-7.49c-6.123,0-20.04,2.728-31.058,12.744c-0.561-18.76-1.23-36.364-1.982-52.856
			c9.693-16.545,18.199-28.737,25.306-37.679c-0.276,8.363,1.655,17.532,7.209,26.992c7.121,12.127,18.483,18.819,31.634,18.819
			c1.482,0,2.986-0.085,4.511-0.257c20.088-2.264,39.366-18.75,45.838-39.202c9.12-28.82,24.557-47.474,37.594-45.363
			c2.925,0.472,5.856-0.819,7.475-3.303C512.403,238.261,512.406,235.057,510.79,232.572z M331.932,84.807
			c9.622-19.887,52.366-18.164,68.02-15.824c0.071,0.011,0.142,0.02,0.215,0.029c6.895,0.836,13.164,3.248,18.023,5.687
			c-3.18,3.086-6.232,7.439-8.782,13.544c-3.955,9.469-6.045,21.584-6.045,35.035c0,11.266-7.399,23.385-16.844,27.588
			c-5.971,2.658-11.619,1.648-16.777-3.001c-14.439-13.009-6.998-29.039-5.468-31.941c1.595-2.14,12.542-16.246,30.488-25.412
			c3.685-1.882,5.146-6.394,3.264-10.078c-1.883-3.684-6.394-5.146-10.078-3.263c-19.288,9.851-31.418,24.254-35.022,28.921
			c-2.771,0.857-11.397,0.103-17.907-5.423C329.887,96.31,328.876,91.122,331.932,84.807z M472.068,244.947
			c-8.237,9.738-15.565,23.923-20.635,39.944c-4.617,14.589-19.215,27.255-33.233,28.835c-6.399,0.721-15.318-0.65-21.549-11.261
			c-13.698-23.329,3.846-41.821,6.184-44.126c2.518-1.838,21.787-15.381,48.355-19.824c4.08-0.683,6.834-4.544,6.152-8.624
			c-0.683-4.079-4.534-6.834-8.624-6.152c-27.972,4.679-48.53,18.117-53.899,21.913c-4.695,0.483-16.118-4.649-22.364-14.488
			c-5.222-8.228-4.362-16.112,2.559-23.434c20.457-21.648,73.513-2.612,92.227,6.548c0.064,0.032,0.13,0.063,0.196,0.093
			c9.682,4.408,17.455,11.114,22.771,16.661C484.576,233.253,478.384,237.48,472.068,244.947z"/>
	</g>
</g>
<g>
</g>
<g>
</g>
<g>
</g>
<g>
</g>
<g>
</g>
<g>
</g>
<g>
</g>
<g>
</g>
<g>
</g>
<g>
</g>
<g>
</g>
<g>
</g>
<g>
</g>
<g>
</g>
<g>
</g>
</svg>
