<?xml version="1.0" encoding="iso-8859-1"?>
<!-- Generator: Adobe Illustrator 21.0.0, SVG Export Plug-In . SVG Version: 6.00 Build 0)  -->
<svg version="1.1" id="Capa_1" xmlns="http://www.w3.org/2000/svg" xmlns:xlink="http://www.w3.org/1999/xlink" x="0px" y="0px"
	 viewBox="0 0 512 512" style="enable-background:new 0 0 512 512;" xml:space="preserve">
<g>
	<g>
		<path style="fill:#A5E4EF;" d="M300.308,306.642V63.536c0-30.948-25.088-56.036-56.036-56.036l0,0
			c-30.948,0-56.036,25.088-56.036,56.036v243.106c-30.495,18.819-50.823,52.533-50.823,90.999
			c0,59.017,47.843,106.86,106.859,106.86c59.017,0,106.86-47.843,106.86-106.86C351.131,359.175,330.803,325.461,300.308,306.642z"
			/>
		<path style="fill:#FA4954;" d="M315.132,397.64c0,38.87-31.46,70.53-70.25,70.86c-38.36,0.32-70.38-30.49-71.44-68.83
			c-0.71-25.56,12-49,33.7-62.39c5.31-3.28,9.58-7.82,12.53-13.1c2.94-5.28,4.56-11.3,4.56-17.54V64.03
			c0-10.85,8.42-20.11,19.27-20.52c11.39-0.43,20.81,8.72,20.81,20.03v243.1c0,12.49,6.46,24.08,17.09,30.64
			c10.56,6.52,18.99,15.42,24.79,25.78C311.982,373.43,315.132,385.26,315.132,397.64z"/>
		<path style="fill:#E21F2D;" d="M244.27,468.497c-38.09-0.01-69.78-30.7-70.83-68.83c-0.71-25.56,12-49,33.69-62.39
			c5.32-3.28,9.59-7.82,12.54-13.1c2.94-5.28,4.56-11.3,4.56-17.54V64.027c0-10.85,8.42-20.11,19.27-20.52
			c0.25-0.01,0.5-0.01,0.75-0.01c-0.1,0-0.19,0-0.29,0.01c-4.29,0.41-7.62,9.67-7.62,20.52v242.61c0,6.24-0.64,12.26-1.8,17.54
			c-1.17,5.28-2.86,9.82-4.95,13.1c-8.58,13.39-13.61,36.83-13.33,62.39C216.68,437.797,229.2,468.487,244.27,468.497z"/>
		<path style="fill:#FFFFFF;" d="M264.312,63.54v69.1h-40.08V64.03c0-10.85,8.42-20.11,19.27-20.52
			C254.892,43.08,264.312,52.23,264.312,63.54z"/>
		<ellipse style="fill:#FC8086;" cx="277.828" cy="398.808" rx="16.615" ry="26.389"/>
	</g>
	<g>
		<path d="M144.912,397.64c0-34.719,17.667-66.352,47.26-84.618c2.213-1.366,3.561-3.781,3.561-6.382V63.54
			c0-12.962,5.049-25.153,14.211-34.324C219.119,20.049,231.311,15,244.272,15c26.765,0,48.54,21.775,48.54,48.54v52.78
			c0,4.142,3.357,7.5,7.5,7.5s7.5-3.358,7.5-7.5V63.54c0-35.036-28.504-63.54-63.54-63.54c-16.966,0-32.923,6.607-44.936,18.609
			c-11.997,12.008-18.604,27.965-18.604,44.931v239.005c-31.904,21.31-50.82,56.548-50.82,95.095c0,16.269,3.344,31.971,9.938,46.67
			c1.248,2.782,3.982,4.432,6.847,4.432c1.026,0,2.069-0.212,3.065-0.659c3.779-1.696,5.469-6.134,3.773-9.913
			C147.813,425.415,144.912,411.778,144.912,397.64z"/>
		<path d="M307.813,302.545V146.32c0-4.142-3.357-7.5-7.5-7.5s-7.5,3.358-7.5,7.5v160.32c0,2.601,1.348,5.016,3.561,6.382
			c29.592,18.266,47.259,49.898,47.259,84.618c0,54.787-44.572,99.36-99.359,99.36c-29.335,0-57.006-12.857-75.918-35.276
			c-2.671-3.166-7.402-3.568-10.568-0.896c-3.166,2.671-3.567,7.402-0.896,10.568C178.658,497.201,210.508,512,244.272,512
			c63.058,0,114.359-51.302,114.359-114.36C358.632,359.093,339.717,323.855,307.813,302.545z"/>
		<path d="M271.808,63.536c0-7.544-2.999-14.587-8.445-19.831c-5.444-5.242-12.604-7.972-20.147-7.685
			c-14.849,0.562-26.479,12.864-26.479,28.008v242.614c0,9.957-5.059,19.023-13.532,24.253
			c-24.115,14.882-38.044,40.669-37.26,68.98C167.11,441.989,202.186,476,244.282,476c0.22,0,0.444-0.001,0.664-0.003
			c42.836-0.364,77.685-35.514,77.685-78.356c0-27.384-13.94-52.335-37.29-66.746c-8.474-5.229-13.533-14.295-13.533-24.253V63.536z
			 M256.808,187.702v32.565h-25.072v-32.565H256.808z M231.735,172.702v-32.565h25.072v32.565H231.735z M256.808,125.137h-25.072
			V92.571h25.072V125.137z M231.735,235.268h25.072v32.565h-25.072V235.268z M243.781,51.009c0.164-0.006,0.326-0.009,0.489-0.009
			c3.257,0,6.325,1.236,8.688,3.51c2.482,2.391,3.85,5.596,3.85,9.026v14.035h-25.072V64.028
			C231.735,57.101,237.14,51.261,243.781,51.009z M277.464,343.66c18.89,11.658,30.167,31.837,30.167,53.98
			c0,34.641-28.177,63.063-62.812,63.357C244.64,461,244.462,461,244.282,461c-34.037,0-62.401-27.497-63.345-61.54
			c-0.635-22.901,10.634-43.761,30.143-55.8c12.934-7.981,20.655-21.819,20.655-37.018v-23.809h25.072v23.809
			C256.808,321.841,264.529,335.68,277.464,343.66z"/>
		<path d="M334.516,92.571h40.072c4.143,0,7.5-3.358,7.5-7.5s-3.357-7.5-7.5-7.5h-40.072c-4.143,0-7.5,3.358-7.5,7.5
			S330.373,92.571,334.516,92.571z"/>
		<path d="M374.588,125.137h-40.072c-4.143,0-7.5,3.358-7.5,7.5s3.357,7.5,7.5,7.5h40.072c4.143,0,7.5-3.358,7.5-7.5
			S378.73,125.137,374.588,125.137z"/>
		<path d="M374.588,172.702h-40.072c-4.143,0-7.5,3.358-7.5,7.5s3.357,7.5,7.5,7.5h40.072c4.143,0,7.5-3.358,7.5-7.5
			S378.73,172.702,374.588,172.702z"/>
		<path d="M374.588,220.268h-40.072c-4.143,0-7.5,3.358-7.5,7.5s3.357,7.5,7.5,7.5h40.072c4.143,0,7.5-3.358,7.5-7.5
			S378.73,220.268,374.588,220.268z"/>
		<path d="M374.588,267.833h-40.072c-4.143,0-7.5,3.358-7.5,7.5s3.357,7.5,7.5,7.5h40.072c4.143,0,7.5-3.358,7.5-7.5
			S378.73,267.833,374.588,267.833z"/>
	</g>
</g>
<g>
</g>
<g>
</g>
<g>
</g>
<g>
</g>
<g>
</g>
<g>
</g>
<g>
</g>
<g>
</g>
<g>
</g>
<g>
</g>
<g>
</g>
<g>
</g>
<g>
</g>
<g>
</g>
<g>
</g>
</svg>
