<?xml version="1.0" encoding="iso-8859-1"?>
<!-- Generator: Adobe Illustrator 21.0.0, SVG Export Plug-In . SVG Version: 6.00 Build 0)  -->
<svg version="1.1" id="Capa_1" xmlns="http://www.w3.org/2000/svg" xmlns:xlink="http://www.w3.org/1999/xlink" x="0px" y="0px"
	 viewBox="0 0 511.997 511.997" style="enable-background:new 0 0 511.997 511.997;" xml:space="preserve">
<g>
	<g>
		<path style="fill:#FA4954;" d="M267.765,159.216c-15.925-3.589-32.971-10.047-46.976-21.534
			c-5.648-4.619-10.797-10.057-15.176-16.445l-9.987-19.424l5.209-34.3l47.046,23.883c0,0,1.84,6.838,6.618,16.395
			c4.679,9.377,12.186,21.364,23.553,32.101C286.41,147.779,278.982,161.736,267.765,159.216z"/>
		<path style="fill:#A5E4EF;" d="M284.73,442.285c-2.289,35.03-31.511,62.212-66.611,62.212H93.625
			c-36.43,0-66.121-29.192-66.761-65.611c-0.63-36.1,1.22-82.147,10.787-124.984c11.347-50.885,33.58-97.232,75.448-116.986
			l37.789-28.002l37.789,28.002v3.499c0,21.624,10.017,42.028,27.122,55.254l42.608,32.92c8.418,6.508,14.646,15.336,17.945,25.313
			c0.92,2.759,1.61,5.608,2.059,8.527C282.441,348.432,287.85,394.838,284.73,442.285z"/>
		<path style="fill:#93D8E4;" d="M152.649,170.213l-18.165,26.702c-21.104,19.754-32.311,66.101-38.029,116.986
			c-4.819,42.838-5.748,88.884-5.438,124.984c0.33,36.419,15.286,65.611,33.65,65.611H93.625c-36.43,0-66.121-29.192-66.761-65.611
			c-0.63-36.1,1.22-82.147,10.787-124.984c11.347-50.885,33.58-97.232,75.448-116.986l37.789-28.002L152.649,170.213z"/>
		<polygon style="fill:#93D8E4;" points="156.208,172.852 152.649,170.213 153.528,168.913 		"/>
		<path style="fill:#02C6DB;" d="M284.73,442.285c-2.289,35.03-31.511,62.212-66.611,62.212H93.625
			c-36.43,0-66.121-29.192-66.761-65.611c-0.63-36.1,1.22-82.147,10.787-124.984h238.701c0.92,2.759,1.61,5.608,2.059,8.527
			C282.441,348.432,287.85,394.838,284.73,442.285z"/>
		<path style="fill:#02B0CC;" d="M91.02,438.888c-0.31-36.1,0.62-82.147,5.438-124.984H37.656
			c-9.567,42.838-11.417,88.884-10.787,124.984c0.64,36.419,30.331,65.611,66.761,65.611h31.041
			C106.306,504.499,91.35,475.307,91.02,438.888z"/>
		<path style="fill:#FA4954;" d="M282.545,77.586h-43.931l23.072-56.278h20.86c9.345,0,16.921,7.576,16.921,16.921v22.436
			C299.466,70.01,291.89,77.586,282.545,77.586z"/>
		<path style="fill:#E21F2D;" d="M299.46,42.096V60.66c0,9.347-7.568,16.925-16.915,16.925h-43.937l7.608-18.565h36.33
			C291.892,59.021,299.46,51.443,299.46,42.096z"/>
		<path style="fill:#E21F2D;" d="M254.499,107.791h-12.516c-5.668,0-10.757,3.459-12.846,8.737l-8.348,21.154
			c-5.648-4.619-10.797-10.057-15.176-16.445l-9.987-19.424l5.209-34.3l47.046,23.883
			C247.881,91.396,249.721,98.234,254.499,107.791z"/>
		<path style="fill:#E3DFE2;" d="M120.848,11.543L42.681,89.711c-8.699,8.699-2.538,23.572,9.764,23.572h35.189
			c7.626,0,13.808,6.182,13.808,13.808v0c0,7.626,6.182,13.808,13.808,13.808l38.278,28.014l34.926-28.014
			c5.669,0,10.762-3.465,12.844-8.738l12.643-32.029c2.082-5.273,7.175-8.738,12.844-8.738h21.092
			c7.626,0,13.808-6.182,13.808-13.808V21.307c0-7.626-6.182-13.808-13.808-13.808H130.612
			C126.95,7.499,123.438,8.954,120.848,11.543z"/>
		<path style="fill:#FA4954;" d="M188.673,196.92h-75.575c-9.854,0-17.842-7.988-17.842-17.842v-20.335
			c0-9.854,7.988-17.842,17.842-17.842h75.575c9.854,0,17.842,7.988,17.842,17.842v20.335
			C206.516,188.932,198.527,196.92,188.673,196.92z"/>
		<path style="fill:#E21F2D;" d="M146.582,196.912h-33.48c-9.857,0-17.845-7.988-17.845-17.835v-20.334
			c0-9.857,7.988-17.845,17.845-17.845h33.48c-9.857,0-17.845,7.988-17.845,17.845v20.334
			C128.737,188.925,136.724,196.912,146.582,196.912z"/>
	</g>
	<g>
		<path d="M282.545,13.808h-14.746C264.755,5.753,256.983,0,247.872,0H130.616c-5.697,0-11.049,2.214-15.07,6.235L86.344,35.437
			c-2.929,2.929-2.929,7.678,0,10.606c2.929,2.929,7.678,2.929,10.606,0l29.202-29.202c1.188-1.188,2.773-1.842,4.464-1.842h117.256
			c3.475,0,6.302,2.816,6.315,6.282c0,0.009-0.001,0.017-0.001,0.025v56.278c0,0.009,0.001,0.017,0.001,0.026
			c-0.012,3.467-2.84,6.284-6.315,6.284h-21.084c-8.814,0-16.596,5.294-19.822,13.483l-12.647,32.032
			c-0.954,2.418-3.249,3.981-5.85,3.989H115.22c-1.673-0.008-3.247-0.663-4.434-1.851c-1.188-1.188-1.842-2.77-1.842-4.454
			c0-11.753-9.558-21.316-21.306-21.316h-35.19c-3.914,0-5.452-2.978-5.831-3.891c-0.379-0.914-1.399-4.11,1.367-6.879
			l27.772-27.772c2.929-2.929,2.929-7.678,0-10.606c-2.929-2.929-7.678-2.929-10.606,0L37.375,84.406
			c-6.208,6.215-7.977,15.115-4.614,23.227c3.361,8.109,10.905,13.146,19.687,13.146h35.19c3.477,0,6.306,2.833,6.306,6.316
			c0,4.235,1.23,8.278,3.515,11.728c-5.902,4.644-9.703,11.844-9.703,19.919v20.335c0,7.469,3.25,14.192,8.408,18.835
			c-29.026,19.354-50.144,53.607-62.872,102.106c-12.673,48.287-14.567,102.24-13.926,138.999
			c0.344,19.593,8.229,37.947,22.201,51.68c13.974,13.735,32.462,21.3,52.059,21.3h124.494c32.567,0,61.819-21.714,71.136-52.804
			c1.189-3.968-1.063-8.148-5.031-9.337c-3.968-1.191-8.148,1.063-9.337,5.031c-7.43,24.793-30.774,42.109-56.768,42.109H93.626
			c-15.639,0-30.393-6.037-41.544-16.997c-11.15-10.96-17.443-25.608-17.717-41.245c-0.569-32.578,0.918-76.087,9.395-117.353h98.33
			v106.112c0,4.142,3.358,7.5,7.5,7.5s7.5-3.358,7.5-7.5V321.402h113.521c0.147,0.72,0.278,1.444,0.391,2.174
			c3.843,24.834,8.167,62.95,6.943,103.506c-0.125,4.141,3.13,7.598,7.27,7.723c0.078,0.002,0.154,0.003,0.231,0.003
			c4.037,0,7.37-3.211,7.492-7.273c1.259-41.698-3.173-80.796-7.113-106.254c-2.38-15.368-10.488-29.086-22.831-38.627
			l-42.605-32.918c-14.413-11.144-23.289-28.351-24.136-46.474c10.283-3.23,17.763-12.849,17.763-24.184v-20.335
			c0-7.508-3.285-14.26-8.489-18.905c0.899-1.212,1.678-2.531,2.318-3.947c13.964,14.781,33.497,25.07,58.274,30.64
			c1.418,0.319,2.835,0.474,4.23,0.474c6.842,0,13.165-3.717,16.521-10.026c4.041-7.594,2.566-16.654-3.67-22.544
			c-14.184-13.397-21.97-29.06-25.563-37.928c4.652-2.409,8.295-6.478,10.163-11.421h14.745c13.466,0,24.421-10.956,24.421-24.421
			V38.229C306.966,24.763,296.011,13.808,282.545,13.808z M47.187,306.402c11.248-44.421,31.636-84.193,67.665-101.982h27.238
			v101.982H47.187z M211.216,261.604l42.606,32.919c4.323,3.342,7.945,7.37,10.773,11.879H157.09V204.42h24.19
			C182.463,226.731,193.46,247.874,211.216,261.604z M199.016,179.078c0,5.689-4.617,10.318-10.301,10.34
			c-0.015,0-0.03-0.002-0.046-0.002c-0.029,0-0.058,0.004-0.087,0.004h-75.483c-5.703,0-10.342-4.64-10.342-10.342v-20.335
			c0-5.703,4.64-10.342,10.342-10.342h75.575c5.703,0,10.342,4.64,10.342,10.342V179.078z M272.901,145.339
			c1.905,1.8,1.144,3.812,0.728,4.593c-0.417,0.782-1.662,2.538-4.22,1.964c-24.769-5.568-43.354-16.236-55.311-31.736l6.822-17.279
			c0.954-2.422,3.257-3.987,5.868-3.987h15.67C245.935,108.38,254.817,128.259,272.901,145.339z M291.966,60.664
			c0,5.195-4.227,9.421-9.421,9.421h-13.357V28.808h13.357c5.195,0,9.421,4.226,9.421,9.421V60.664z"/>
		<path d="M181.069,45.57h50.809c4.142,0,7.5-3.358,7.5-7.5s-3.358-7.5-7.5-7.5h-50.809c-4.142,0-7.5,3.358-7.5,7.5
			S176.927,45.57,181.069,45.57z"/>
		<path d="M181.069,69.014h50.809c4.142,0,7.5-3.358,7.5-7.5s-3.358-7.5-7.5-7.5h-50.809c-4.142,0-7.5,3.358-7.5,7.5
			S176.927,69.014,181.069,69.014z"/>
		<path d="M487.075,19.61c-74.668-18.874-155.596,3.984-159.004,4.967c-3.98,1.147-6.277,5.303-5.13,9.283
			c0.947,3.287,3.945,5.425,7.203,5.425c0.687,0,1.387-0.095,2.08-0.295c0.796-0.229,80.401-22.726,151.175-4.837
			c4.018,1.013,8.094-1.418,9.109-5.434C493.523,24.704,491.091,20.625,487.075,19.61z"/>
		<path d="M470.536,72.961C404.354,45.2,328.813,44.679,325.629,44.67c-0.007,0-0.014,0-0.021,0c-4.131,0-7.486,3.344-7.499,7.478
			c-0.012,4.142,3.335,7.509,7.477,7.522c0.751,0.002,75.797,0.549,139.147,27.124c0.948,0.398,1.931,0.586,2.898,0.586
			c2.93,0,5.714-1.729,6.919-4.601C476.153,78.959,474.355,74.563,470.536,72.961z"/>
		<path d="M330.764,67.996c-4.066-0.823-8.016,1.81-8.834,5.87c-0.819,4.061,1.81,8.016,5.87,8.834
			c61.594,12.418,93.594,39.429,104.493,50.466c1.467,1.486,3.401,2.23,5.337,2.23c1.903,0,3.808-0.72,5.27-2.164
			c2.947-2.91,2.977-7.659,0.066-10.606C407.343,86.554,352.633,72.405,330.764,67.996z"/>
	</g>
</g>
<g>
</g>
<g>
</g>
<g>
</g>
<g>
</g>
<g>
</g>
<g>
</g>
<g>
</g>
<g>
</g>
<g>
</g>
<g>
</g>
<g>
</g>
<g>
</g>
<g>
</g>
<g>
</g>
<g>
</g>
</svg>
