<?xml version="1.0" encoding="iso-8859-1"?>
<!-- Generator: Adobe Illustrator 21.0.0, SVG Export Plug-In . SVG Version: 6.00 Build 0)  -->
<svg version="1.1" id="Capa_1" xmlns="http://www.w3.org/2000/svg" xmlns:xlink="http://www.w3.org/1999/xlink" x="0px" y="0px"
	 viewBox="0 0 512 512" style="enable-background:new 0 0 512 512;" xml:space="preserve">
<g>
	<g>
		<path style="fill:#A5E4EF;" d="M412.368,392.552c-1.272,12.247-11.154,21.781-23.486,22.648
			c-50.496,3.58-101.632,5.568-152.259,5.945c-5.86,0.047-11.71,0.066-17.551,0.066c-10.636,0-21.3-0.075-31.984-0.207
			c-17.918-0.245-35.874-0.688-53.84-1.338c-28.065-0.998-56.129-2.487-83.996-4.465c-5.492-0.386-10.514-2.496-14.489-5.813
			c-4.936-4.098-8.281-10.052-8.987-16.835c-8.686-83.685-8.686-168.538,0-252.214c1.272-12.256,11.145-21.781,23.477-22.657
			c52.201-3.693,105.07-5.699,157.375-5.973c4.155-0.028,8.3-0.038,12.445-0.038c30.184,0,60.604,0.584,90.996,1.743
			c17.73,0.659,35.451,1.526,53.115,2.591c8.582,0.509,17.155,1.074,25.7,1.677c7.122,0.509,13.434,3.9,17.73,9.044
			c3.147,3.749,5.219,8.432,5.756,13.613C421.054,224.014,421.054,308.877,412.368,392.552z"/>
		<path style="fill:#DAF3F8;" d="M406.612,126.725L236.623,421.145c-5.86,0.047-11.71,0.066-17.551,0.066
			c-10.636,0-21.3-0.075-31.984-0.207l176.094-304.999c8.582,0.509,17.155,1.074,25.7,1.677
			C396.004,118.19,402.316,121.581,406.612,126.725z"/>
		<path style="fill:#DAF3F8;" d="M310.068,113.414L133.248,419.665c-28.065-0.998-56.129-2.487-83.996-4.465
			c-5.492-0.386-10.514-2.496-14.489-5.813l171.864-297.679c4.155-0.028,8.3-0.038,12.445-0.038
			C249.256,111.671,279.676,112.255,310.068,113.414z"/>
		<polygon style="fill:#454045;" points="272.11,407.401 166.028,407.401 155.536,470.013 219.069,487.257 282.602,470.013 		"/>
		<path style="fill:#02C6DB;" d="M423.607,145.86c-2.374-22.864-20.839-40.67-43.76-42.29c-107.181-7.584-214.371-7.584-321.551,0
			c-22.921,1.621-41.386,19.426-43.76,42.29c-8.347,80.388-8.347,160.785,0,241.173c2.374,22.855,20.839,40.66,43.76,42.29
			c107.181,7.584,214.371,7.584,321.551,0c22.921-1.63,41.386-19.435,43.76-42.29C431.954,306.645,431.954,226.248,423.607,145.86z
			 M400.177,384.602c-1.187,11.484-10.438,20.406-21.997,21.225c-52.785,3.731-106.323,5.634-159.108,5.634
			c-52.785,0-106.323-1.903-159.108-5.634c-11.559-0.819-20.811-9.741-21.998-21.225c-8.139-78.4-8.139-157.912,0-236.312
			c1.187-11.484,10.438-20.406,21.998-21.225c52.785-3.74,106.323-5.634,159.108-5.634c52.785,0,106.323,1.894,159.108,5.634
			c11.559,0.82,20.81,9.741,21.997,21.225C408.317,226.69,408.317,306.202,400.177,384.602z"/>
		<path style="fill:#665E66;" d="M298.506,470.013H139.632c-9.523,0-17.243,7.72-17.243,17.243v0c0,9.523,7.72,17.243,17.243,17.243
			h158.874c9.523,0,17.243-7.72,17.243-17.243v0C315.75,477.733,308.03,470.013,298.506,470.013z"/>
		<circle style="fill:#FCDD2E;" cx="407.911" cy="103.281" r="55.007"/>
		<path style="fill:#F9C301;" d="M407.908,158.284c-30.375,0-55.004-24.619-55.004-55.004c0-30.375,24.628-55.004,55.004-55.004
			c-11.135,0-20.155,24.628-20.155,55.004C387.753,133.665,396.772,158.284,407.908,158.284z"/>
	</g>
	<g>
		<path d="M62.123,422.07l-3.298-0.231c-19.344-1.366-34.832-16.331-36.828-35.583c-8.258-79.5-8.258-160.12,0-239.622
			c1.996-19.251,17.484-34.215,36.829-35.582c72.979-5.163,146.953-6.807,219.867-4.889c4.15,0.086,7.585-3.16,7.695-7.3
			c0.109-4.141-3.16-7.586-7.3-7.695c-73.396-1.929-147.859-0.274-221.32,4.921C31.144,97.97,9.825,118.576,7.077,145.085
			c-8.364,80.529-8.364,162.191,0,242.718c2.749,26.511,24.067,47.117,50.67,48.997l3.283,0.23c0.186,0.014,0.371,0.021,0.554,0.021
			c3.894,0,7.184-3.009,7.472-6.954C69.358,425.965,66.254,422.372,62.123,422.07z"/>
		<path d="M425.581,166.394c-4.129,0.329-7.209,3.943-6.881,8.072c5.601,70.305,4.741,141.562-2.554,211.791
			c-1.996,19.251-17.484,34.215-36.829,35.582c-95.425,6.748-192.172,7.448-287.55,2.083c-4.131-0.232-7.677,2.932-7.91,7.067
			c-0.232,4.136,2.932,7.677,7.067,7.91c20.54,1.155,41.141,2.025,61.778,2.621l-3.515,20.993h-9.557
			c-13.644,0-24.743,11.1-24.743,24.743S125.989,512,139.632,512h158.874c13.644,0,24.744-11.1,24.744-24.744
			s-11.1-24.743-24.744-24.743h-9.552l-3.523-21.009c31.728-0.917,63.409-2.473,94.944-4.703
			c26.625-1.881,47.943-22.488,50.691-48.997c7.389-71.136,8.26-143.314,2.586-214.53
			C433.324,169.146,429.711,166.059,425.581,166.394z M308.25,487.256c0,5.373-4.371,9.744-9.744,9.744H139.632
			c-5.373,0-9.743-4.371-9.743-9.744s4.371-9.743,9.743-9.743h158.874C303.879,477.513,308.25,481.884,308.25,487.256z
			 M273.744,462.51H164.398l3.45-20.605c17.023,0.379,34.065,0.577,51.115,0.577c17.107,0,34.219-0.213,51.323-0.594L273.744,462.51
			z"/>
		<path d="M336.963,117.017c-39.261-2.047-78.927-3.085-117.895-3.085c-52.964,0-106.674,1.901-159.64,5.649
			c-15.194,1.076-27.361,12.823-28.93,27.932c-8.193,78.916-8.193,158.944,0,237.86c1.569,15.11,13.735,26.857,28.93,27.933
			c52.96,3.748,106.671,5.649,159.64,5.649c52.968,0,106.679-1.901,159.641-5.649c15.194-1.076,27.36-12.823,28.929-27.932
			c5.132-49.431,7.062-99.776,5.737-149.639c-0.11-4.141-3.551-7.393-7.697-7.298c-4.141,0.11-7.408,3.556-7.298,7.697
			c0.654,24.619,0.505,49.357-0.442,74.042h-34.652v-74.681c0-4.142-3.358-7.5-7.5-7.5s-7.5,3.358-7.5,7.5v74.681h-53.36v-87.461
			h93.761v-15h-93.761V192.22c0-4.142-3.358-7.5-7.5-7.5s-7.5,3.358-7.5,7.5v15.495h-53.354v-78.758
			c17.692,0.061,35.507,0.33,53.354,0.816v32.467c0,4.142,3.358,7.5,7.5,7.5s7.5-3.358,7.5-7.5v-32.009
			c13.769,0.466,27.537,1.05,41.255,1.765c4.138,0.209,7.665-2.962,7.88-7.099S341.099,117.232,336.963,117.017z M226.572,325.176
			h53.354v77.942c-17.825,0.485-35.624,0.744-53.354,0.804V325.176z M211.572,403.922c-17.731-0.06-35.531-0.319-53.357-0.805
			v-77.942h53.357V403.922z M143.215,402.653c-17.803-0.603-35.604-1.425-53.357-2.447v-75.03h53.357V402.653z M158.215,310.176
			v-87.461h53.357v87.461H158.215z M143.215,310.176H89.857v-87.461h53.357V310.176z M40.195,222.715h34.662v87.461H40.195
			C39.077,281.041,39.077,251.85,40.195,222.715z M89.857,207.715v-75.032c17.754-1.022,35.555-1.844,53.357-2.447v77.479H89.857z
			 M60.488,134.544c4.782-0.338,9.576-0.645,14.37-0.953v74.123h-33.99c1.011-19.597,2.528-39.159,4.552-58.652
			C46.234,141.21,52.572,135.104,60.488,134.544z M45.419,383.825c-2.024-19.493-3.541-39.054-4.551-58.649h33.989v74.121
			c-4.793-0.308-9.587-0.614-14.369-0.953C52.572,397.784,46.234,391.678,45.419,383.825z M397.256,325.176
			c-1.011,19.635-2.519,39.215-4.537,58.65c-0.815,7.852-7.152,13.958-15.068,14.518c-4.78,0.338-9.573,0.645-14.364,0.952v-74.12
			H397.256z M348.287,325.176v75.03c-17.755,1.022-35.556,1.844-53.36,2.447v-77.477H348.287z M279.927,222.715v87.461h-53.354
			v-87.461H279.927z M158.215,207.715V129.77c17.827-0.485,35.627-0.744,53.357-0.805v78.749H158.215z"/>
		<path d="M407.911,31.125c4.142,0,7.5-3.358,7.5-7.5L415.41,7.5c0-4.142-3.358-7.5-7.5-7.5s-7.5,3.358-7.5,7.5l0.001,16.125
			C400.411,27.767,403.769,31.125,407.911,31.125z"/>
		<path d="M415.411,182.937c0-4.142-3.358-7.5-7.5-7.5s-7.5,3.358-7.5,7.5v30.298c0,4.142,3.358,7.5,7.5,7.5s7.5-3.358,7.5-7.5
			V182.937z"/>
		<path d="M443.989,40.792c1.181,0.682,2.471,1.006,3.743,1.006c2.592,0,5.113-1.345,6.502-3.751l15.149-26.239
			c2.071-3.587,0.842-8.174-2.745-10.245c-3.587-2.072-8.174-0.843-10.245,2.745l-15.149,26.239
			C439.172,34.133,440.401,38.721,443.989,40.792z"/>
		<path d="M349.183,204.999c1.181,0.682,2.471,1.006,3.743,1.006c2.592,0,5.113-1.345,6.502-3.751l15.149-26.239
			c2.071-3.587,0.842-8.174-2.745-10.245c-3.588-2.072-8.174-0.843-10.245,2.745l-15.149,26.239
			C344.367,198.341,345.596,202.928,349.183,204.999z"/>
		<path d="M470.4,67.203c1.389,2.406,3.91,3.751,6.502,3.751c1.272,0,2.562-0.324,3.743-1.006l26.239-15.149
			c3.587-2.071,4.816-6.658,2.745-10.245c-2.072-3.588-6.658-4.816-10.245-2.745l-26.239,15.149
			C469.557,59.028,468.328,63.615,470.4,67.203z"/>
		<path d="M335.177,136.613l-26.239,15.149c-3.587,2.071-4.816,6.658-2.745,10.245c1.389,2.406,3.91,3.751,6.502,3.751
			c1.272,0,2.562-0.324,3.743-1.006l26.239-15.149c3.587-2.071,4.816-6.658,2.745-10.245S338.764,134.542,335.177,136.613z"/>
		<path d="M503.696,95.779l-16.13,0.001c-4.142,0-7.5,3.358-7.5,7.5c0,4.143,3.358,7.5,7.5,7.5l16.13-0.001
			c4.142,0,7.5-3.358,7.5-7.5S507.838,95.779,503.696,95.779z"/>
		<path d="M297.956,110.781h30.299c4.142,0,7.5-3.358,7.5-7.5s-3.358-7.5-7.5-7.5h-30.299c-4.142,0-7.5,3.358-7.5,7.5
			S293.814,110.781,297.956,110.781z"/>
		<path d="M506.884,151.763l-26.239-15.149c-3.587-2.072-8.174-0.842-10.245,2.745c-2.071,3.587-0.842,8.174,2.745,10.245
			l26.239,15.149c1.181,0.682,2.471,1.006,3.743,1.006c2.592,0,5.113-1.346,6.502-3.751
			C511.701,158.42,510.472,153.833,506.884,151.763z"/>
		<path d="M308.937,54.798l26.239,15.149c1.181,0.682,2.471,1.006,3.743,1.006c2.592,0,5.113-1.346,6.502-3.751
			c2.071-3.587,0.842-8.174-2.745-10.245l-26.239-15.149c-3.587-2.072-8.174-0.842-10.245,2.745
			C304.121,48.141,305.35,52.728,308.937,54.798z"/>
		<path d="M454.234,168.515c-2.072-3.587-6.659-4.816-10.245-2.745c-3.587,2.071-4.816,6.658-2.745,10.245l15.149,26.239
			c1.389,2.406,3.91,3.751,6.502,3.751c1.272,0,2.562-0.324,3.743-1.006c3.587-2.071,4.816-6.658,2.745-10.245L454.234,168.515z"/>
		<path d="M361.588,38.046c1.389,2.406,3.91,3.751,6.502,3.751c1.272,0,2.562-0.324,3.743-1.006
			c3.587-2.071,4.816-6.658,2.745-10.245L359.429,4.307c-2.071-3.588-6.658-4.817-10.245-2.745
			c-3.587,2.071-4.816,6.658-2.745,10.245L361.588,38.046z"/>
		<path d="M470.417,103.281c0-34.466-28.041-62.507-62.507-62.507s-62.507,28.041-62.507,62.507s28.041,62.506,62.507,62.506
			S470.417,137.747,470.417,103.281z M407.911,150.787c-26.195,0-47.507-21.311-47.507-47.506s21.312-47.507,47.507-47.507
			s47.507,21.312,47.507,47.507S434.106,150.787,407.911,150.787z"/>
	</g>
</g>
<g>
</g>
<g>
</g>
<g>
</g>
<g>
</g>
<g>
</g>
<g>
</g>
<g>
</g>
<g>
</g>
<g>
</g>
<g>
</g>
<g>
</g>
<g>
</g>
<g>
</g>
<g>
</g>
<g>
</g>
</svg>
