<?xml version="1.0" encoding="iso-8859-1"?>
<!-- Generator: Adobe Illustrator 21.0.0, SVG Export Plug-In . SVG Version: 6.00 Build 0)  -->
<svg version="1.1" id="Capa_1" xmlns="http://www.w3.org/2000/svg" xmlns:xlink="http://www.w3.org/1999/xlink" x="0px" y="0px"
	 viewBox="0 0 511.908 511.908" style="enable-background:new 0 0 511.908 511.908;" xml:space="preserve">
<g>
	<g>
		<rect x="174.153" y="373.731" style="fill:#454045;" width="163.602" height="72.414"/>
		<path style="fill:#665E66;" d="M465.347,395.525c-139.596,10.422-279.191,10.422-418.787,0
			c-15.349-1.146-27.769-12.996-29.649-28.272c-12.607-102.423-12.607-204.846,0-307.269c1.88-15.277,14.301-27.126,29.65-28.272
			c139.596-10.422,279.191-10.422,418.787,0c15.349,1.146,27.769,12.996,29.65,28.272c12.607,102.423,12.607,204.846,0,307.269
			C493.117,382.529,480.696,394.379,465.347,395.525z"/>
		<path style="fill:#454045;" d="M50.634,395.814c-1.361-0.091-2.712-0.191-4.073-0.292c-15.354-1.149-27.774-12.995-29.65-28.268
			c-12.612-102.428-12.612-204.856,0-307.274c1.875-15.273,14.296-27.129,29.65-28.268c1.361-0.101,2.712-0.202,4.073-0.292
			C39.695,35.713,31.61,45.734,30.118,57.892c-12.783,103.809-12.783,207.628,0,311.447
			C31.61,381.498,39.695,391.519,50.634,395.814z"/>
		<path style="fill:#DAF3F8;" d="M469.077,325.283c-0.516,5.696-5.059,10.199-10.765,10.603c-8.145,0.567-16.29,1.103-24.455,1.599
			c-17.575,1.082-35.19,2.003-52.815,2.762c-8.792,0.384-17.585,0.718-26.377,1.022c-18.789,0.638-37.578,1.103-56.316,1.376
			c-14.165,0.222-28.3,0.324-42.394,0.324c-14.104,0-28.239-0.101-42.394-0.314c-15.045-0.223-30.121-0.567-45.196-1.022
			c-20.63-0.627-41.291-1.467-61.911-2.54c-10.381-0.536-20.742-1.133-31.092-1.781c-7.265-0.446-14.519-0.921-21.774-1.427
			c-5.696-0.405-10.239-4.907-10.755-10.603c-7.953-87.023-6.587-174.846,4.098-261.606c0.121-0.971,0.911-1.73,1.882-1.801
			c68.72-5.13,138.422-7.741,207.142-7.741s138.412,2.61,207.142,7.741c0.971,0.071,1.76,0.829,1.882,1.801
			C475.653,150.437,477.019,238.26,469.077,325.283z"/>
		<path style="fill:#665E66;" d="M372.864,487.978h-233.82c-11.552,0-20.916-9.365-20.916-20.916v0
			c0-11.552,9.365-20.917,20.916-20.917h233.82c11.552,0,20.916,9.365,20.916,20.917v0
			C393.78,478.613,384.416,487.978,372.864,487.978z"/>
		<path style="fill:#454045;" d="M201.824,487.97h-62.777c-11.553,0-20.919-9.355-20.919-20.909c0-5.776,2.339-11.009,6.13-14.789
			c3.781-3.79,9.013-6.13,14.79-6.13h62.777c-5.777,0-11.009,2.339-14.79,6.13c-3.791,3.781-6.13,9.013-6.13,14.789
			C180.905,478.615,190.271,487.97,201.824,487.97z"/>
		<g>
			<path style="fill:#49CB8B;" d="M191.95,109.677c-14.504,19.489,2.493,52.802,29.461,79.77
				c27.556,27.556,25.381,84.303-18.13,86.569s-54.842-39.432-54.842-39.432c-3.173,19.489-57.108,44.418-71.612,2.719
				c-17.149-49.302,63.454-108.778,63.454-108.778C163.32,112.472,191.95,109.677,191.95,109.677z"/>
			<path style="fill:#13B766;" d="M148.446,236.591c-3.172,19.491-57.109,44.421-71.619,2.713
				c-17.139-49.304,63.453-108.778,63.453-108.778c23.038-18.044,51.669-20.84,51.669-20.84
				C134.84,159.087,148.446,236.591,148.446,236.591z"/>
		</g>
	</g>
	<g>
		<path d="M502.44,59.068c-2.312-18.776-17.677-33.427-36.534-34.834c-139.314-10.401-280.59-10.401-419.904,0
			C27.144,25.641,11.778,40.291,9.467,59.068c-12.623,102.552-12.623,206.549,0,309.101c2.311,18.777,17.676,33.427,36.535,34.835
			c40.087,2.993,80.337,5.12,120.655,6.39v29.251h-27.615c-7.581,0-14.714,2.951-20.101,8.324
			c-5.358,5.373-8.309,12.509-8.309,20.096c0,15.666,12.745,28.41,28.41,28.41h47.78c4.142,0,7.5-3.358,7.5-7.5s-3.358-7.5-7.5-7.5
			h-47.78c-7.394,0-13.41-6.016-13.41-13.41c0-3.587,1.396-6.962,3.916-9.49c2.541-2.534,5.913-3.93,9.494-3.93h233.82
			c7.399,0,13.42,6.02,13.42,13.42c0,3.581-1.396,6.95-3.933,9.486c-2.531,2.53-5.9,3.924-9.487,3.924h-156.04
			c-4.142,0-7.5,3.358-7.5,7.5s3.358,7.5,7.5,7.5h156.04c7.594,0,14.729-2.954,20.094-8.317c5.369-5.37,8.326-12.505,8.326-20.093
			c0-15.671-12.749-28.42-28.42-28.42h-27.604v-29.251c40.316-1.271,80.563-3.397,120.647-6.39
			c18.857-1.408,34.223-16.058,36.535-34.835C515.063,265.617,515.063,161.62,502.44,59.068z M330.259,438.646H181.657v-28.82
			c24.752,0.649,49.524,0.98,74.297,0.98c24.776,0,49.551-0.331,74.305-0.98V438.646z M487.554,366.337
			c-1.441,11.702-11.015,20.832-22.765,21.709c-138.572,10.346-279.098,10.346-417.67,0c-11.75-0.877-21.324-10.007-22.764-21.709
			C11.882,265,11.882,162.237,24.355,60.901c1.44-11.702,11.014-20.832,22.764-21.709c69.286-5.172,139.061-7.759,208.835-7.759
			s139.549,2.586,208.835,7.759c11.75,0.877,21.323,10.007,22.765,21.709C500.026,162.237,500.026,265.001,487.554,366.337z"/>
		<path d="M470.271,115.736c-4.131,0.305-7.232,3.901-6.927,8.032c4.927,66.671,4.344,134.243-1.733,200.834
			c-0.189,2.059-1.799,3.658-3.82,3.8c-67.134,4.691-135.04,7.069-201.833,7.069c-66.8,0-134.71-2.378-201.837-7.069
			c-2.028-0.143-3.638-1.742-3.827-3.796c-7.754-84.955-6.561-170.925,3.542-255.588c67.083-4.899,135.063-7.382,202.123-7.382
			c67.048,0,135.015,2.483,202.113,7.383c0.959,8.032,1.864,16.363,2.698,24.828c0.406,4.122,4.078,7.133,8.199,6.728
			c4.122-0.406,7.135-4.077,6.729-8.2c-1.001-10.153-2.103-20.119-3.277-29.633c-0.565-4.515-4.262-8.028-8.77-8.352
			c-68.902-5.145-138.78-7.754-207.692-7.754c-68.92,0-138.801,2.609-207.688,7.752c-4.525,0.329-8.219,3.842-8.786,8.369
			C28.759,149.92,27.37,238.477,35.357,325.976c0.867,9.412,8.313,16.726,17.712,17.39c67.48,4.715,135.741,7.105,202.889,7.105
			c67.141,0,135.398-2.391,202.884-7.106c9.396-0.664,16.842-7.978,17.707-17.396c6.152-67.414,6.742-135.816,1.755-203.308
			C477.999,118.532,474.393,115.423,470.271,115.736z"/>
		<path d="M199.891,283.605c1.234,0,2.497-0.033,3.781-0.1c18.71-0.974,33.164-11.229,39.656-28.133
			c8.781-22.865,1.794-52.821-16.614-71.229c-13.263-13.264-23.438-27.553-28.648-40.236c-3.609-8.785-6.556-21.077-0.099-29.753
			c1.772-2.381,1.973-5.582,0.514-8.166c-1.46-2.584-4.312-4.065-7.259-3.776c-1.257,0.123-31.02,3.221-55.483,22.344
			c-4.57,3.387-84.606,63.705-65.995,117.21c6.684,19.216,21.925,29.25,41.793,27.519c9.645-0.838,19.994-4.615,28.396-10.364
			c0.537-0.367,1.05-0.743,1.563-1.12l1.26,47.871c0.107,4.074,3.443,7.303,7.494,7.303c0.067,0,0.134-0.001,0.201-0.002
			c4.141-0.109,7.409-3.554,7.3-7.695l-1.053-40.009C165.274,274.391,179.085,283.605,199.891,283.605z M110.238,254.343
			c-13.042,1.128-21.894-4.757-26.328-17.503c-7.668-22.046,8.681-47.703,23.747-65.345c17.237-20.185,36.882-34.791,37.077-34.934
			c0.058-0.043,0.116-0.086,0.173-0.131c11.707-9.173,25.171-14.11,34.818-16.685c-1.536,8.775-0.053,18.862,4.467,29.863
			c5.947,14.477,17.282,30.508,31.916,45.143c14.183,14.184,19.866,37.934,13.217,55.245c-3.067,7.985-10.143,17.683-26.434,18.531
			c-35.391,1.836-46.012-29.911-47.122-33.594c-0.654-4.239-6.306-45.435,13.559-84.401c1.881-3.69,0.415-8.207-3.275-10.088
			c-3.689-1.88-8.207-0.416-10.088,3.275c-21.058,41.306-16.417,83.824-15.16,92.572
			C138.681,242.886,125.055,253.056,110.238,254.343z"/>
		<path d="M425.404,104.154H276.083c-4.143,0-7.5,3.358-7.5,7.5s3.357,7.5,7.5,7.5h149.321c4.143,0,7.5-3.358,7.5-7.5
			S429.547,104.154,425.404,104.154z"/>
		<path d="M425.404,140.251H276.083c-4.143,0-7.5,3.358-7.5,7.5s3.357,7.5,7.5,7.5h149.321c4.143,0,7.5-3.358,7.5-7.5
			S429.547,140.251,425.404,140.251z"/>
		<path d="M425.404,176.347H276.083c-4.143,0-7.5,3.358-7.5,7.5s3.357,7.5,7.5,7.5h149.321c4.143,0,7.5-3.358,7.5-7.5
			S429.547,176.347,425.404,176.347z"/>
		<path d="M425.404,212.444H276.083c-4.143,0-7.5,3.358-7.5,7.5s3.357,7.5,7.5,7.5h149.321c4.143,0,7.5-3.358,7.5-7.5
			S429.547,212.444,425.404,212.444z"/>
		<path d="M425.404,248.541H276.083c-4.143,0-7.5,3.358-7.5,7.5s3.357,7.5,7.5,7.5h149.321c4.143,0,7.5-3.358,7.5-7.5
			S429.547,248.541,425.404,248.541z"/>
		<path d="M425.404,284.637H276.083c-4.143,0-7.5,3.358-7.5,7.5s3.357,7.5,7.5,7.5h149.321c4.143,0,7.5-3.358,7.5-7.5
			S429.547,284.637,425.404,284.637z"/>
	</g>
</g>
<g>
</g>
<g>
</g>
<g>
</g>
<g>
</g>
<g>
</g>
<g>
</g>
<g>
</g>
<g>
</g>
<g>
</g>
<g>
</g>
<g>
</g>
<g>
</g>
<g>
</g>
<g>
</g>
<g>
</g>
</svg>
