<?xml version="1.0" encoding="iso-8859-1"?>
<!-- Generator: Adobe Illustrator 21.0.0, SVG Export Plug-In . SVG Version: 6.00 Build 0)  -->
<svg version="1.1" id="Capa_1" xmlns="http://www.w3.org/2000/svg" xmlns:xlink="http://www.w3.org/1999/xlink" x="0px" y="0px"
	 viewBox="0 0 511.969 511.969" style="enable-background:new 0 0 511.969 511.969;" xml:space="preserve">
<g>
	<g>
		<path style="fill:#665E66;" d="M499.543,306.029c-0.507,8.917-1.08,17.826-1.706,26.742c-1.013,14.354-12.06,25.975-26.348,27.674
			c-68.398,8.134-136.788,8.134-205.178,0c-14.287-1.698-25.342-13.319-26.355-27.674c-0.626-8.917-1.192-17.826-1.706-26.742
			c-4.559-79.348-4.559-158.696,0-238.051c0.514-8.917,1.08-17.826,1.706-26.742c1.013-14.347,12.068-25.968,26.355-27.666
			c68.39-8.135,136.781-8.135,205.178,0c14.287,1.698,25.334,13.319,26.348,27.666c0.626,8.917,1.199,17.826,1.706,26.742
			C504.11,147.333,504.11,226.681,499.543,306.029z"/>
		<path style="fill:#454045;" d="M267.876,360.624c-0.521-0.052-1.043-0.119-1.564-0.179c-14.287-1.698-25.342-13.319-26.355-27.674
			c-0.626-8.917-1.192-17.826-1.706-26.742c-4.559-79.348-4.559-158.696,0-238.051c0.514-8.917,1.08-17.826,1.706-26.742
			c1.013-14.347,12.068-25.968,26.355-27.666c0.521-0.06,1.043-0.127,1.564-0.179c-7.308,5.237-12.217,13.558-12.887,23.025
			c-0.641,9.214-1.229,18.414-1.758,27.629c-4.708,81.978-4.708,163.948,0,245.918c0.529,9.214,1.117,18.414,1.758,27.629
			C255.659,347.066,260.568,355.387,267.876,360.624z"/>
		<path style="fill:#DAF3F8;" d="M499.543,306.029c-4.715,6.265-13.416,10.749-23.74,11.636c-71.266,6.123-142.539,6.123-213.812,0
			c-10.324-0.887-19.025-5.371-23.74-11.636c-4.559-79.348-4.559-158.696,0-238.051c4.723-6.265,13.423-10.742,23.74-11.628
			c71.273-6.131,142.546-6.131,213.812,0c10.317,0.886,19.018,5.363,23.74,11.628C504.11,147.333,504.11,226.681,499.543,306.029z"
			/>
		<circle style="fill:#FCDD2E;" cx="289.239" cy="267.1" r="24.434"/>
		<g>
			<path style="fill:#49CB8B;" d="M320.881,292.141c-22.753,3.337-33.674,37.012-33.674,73.113c0,36.89-39.439,73.416-70.079,45.809
				s-10.315-63.102-10.315-63.102c-15.169,10.921-67.956-8.494-49.753-46.113c21.522-44.478,115.282-30.337,115.282-30.337
				C299.847,274.848,320.881,292.141,320.881,292.141z"/>
			<path style="fill:#13B766;" d="M206.813,347.97c-15.169,10.923-67.958-8.492-49.753-46.122
				c21.529-44.474,115.281-30.338,115.281-30.338c27.498,3.343,48.534,20.635,48.534,20.635
				C249.582,286.987,206.813,347.97,206.813,347.97z"/>
		</g>
		<g>
			<path style="fill:#49CB8B;" d="M9.018,151.805c22.753,3.337,33.674,37.012,33.674,73.113c0,36.89,39.439,73.416,70.079,45.809
				s10.315-63.102,10.315-63.102c15.169,10.921,67.956-8.494,49.753-46.113c-21.522-44.478-115.282-30.337-115.282-30.337
				C30.052,134.512,9.018,151.805,9.018,151.805z"/>
			<path style="fill:#13B766;" d="M123.086,207.634c15.169,10.923,67.958-8.492,49.754-46.122
				c-21.529-44.474-115.281-30.338-115.281-30.338C30.06,134.517,9.025,151.81,9.025,151.81
				C80.316,146.651,123.086,207.634,123.086,207.634z"/>
		</g>
		<path style="fill:#02C6DB;" d="M286.917,81.431c0,0,16.251,20.339,15.845,36.773c-0.468,18.911-31.222,18.911-31.689,0
			C270.667,101.77,286.917,81.431,286.917,81.431z"/>
		<g>
			<path style="fill:#665E66;" d="M452.403,125.153h-89.311c-6.062,0-10.976-4.914-10.976-10.976V99.64
				c0-6.062,4.914-10.976,10.976-10.976h89.311c6.062,0,10.976,4.914,10.976,10.976v14.537
				C463.379,120.239,458.465,125.153,452.403,125.153z"/>
			<path style="fill:#FCDD2E;" d="M431.935,125.153h-68.843c-6.062,0-10.976-4.914-10.976-10.976V99.64
				c0-6.062,4.914-10.976,10.976-10.976h68.843V125.153z"/>
			<path style="fill:#665E66;" d="M452.403,205.249h-89.311c-6.062,0-10.976-4.914-10.976-10.976v-14.537
				c0-6.062,4.914-10.976,10.976-10.976h89.311c6.062,0,10.976,4.914,10.976,10.976v14.537
				C463.379,200.335,458.465,205.249,452.403,205.249z"/>
			<path style="fill:#665E66;" d="M452.403,285.344h-89.311c-6.062,0-10.976-4.914-10.976-10.976v-14.537
				c0-6.062,4.914-10.976,10.976-10.976h89.311c6.062,0,10.976,4.914,10.976,10.976v14.537
				C463.379,280.43,458.465,285.344,452.403,285.344z"/>
			<path style="fill:#49CB8B;" d="M440.732,285.344h-77.639c-6.062,0-10.976-4.914-10.976-10.976v-14.537
				c0-6.062,4.914-10.976,10.976-10.976h77.639V285.344z"/>
			<path style="fill:#FA4954;" d="M390.886,205.249h-27.793c-6.062,0-10.976-4.914-10.976-10.976v-14.537
				c0-6.062,4.914-10.976,10.976-10.976h27.793V205.249z"/>
		</g>
	</g>
	<g>
		<path d="M507.031,67.551c-0.511-8.941-1.088-17.972-1.716-26.838c-1.261-17.922-15.112-32.47-32.937-34.591
			c-68.664-8.161-138.294-8.162-206.95,0c-17.821,2.12-31.682,16.665-32.956,34.597c-0.638,9.15-1.211,18.177-1.705,26.83
			c-3.709,64.51-4.397,129.923-2.065,194.558c-23.365,1.119-50.49,6.203-67.368,21.753c-6.569-33.572-14.689-53.922-21.364-66.007
			c1.815-0.203,3.674-0.507,5.569-0.925c11.576-2.554,26.605-10.01,34.071-23.281c2.031-3.61,0.751-8.183-2.858-10.214
			c-3.611-2.031-8.184-0.751-10.214,2.859c-4.153,7.381-13.664,13.657-24.229,15.988c-6.538,1.442-11.551,0.935-14.055-0.281
			c-5.179-6.898-30.561-38.338-72.239-51.876c-3.939-1.277-8.171,0.876-9.45,4.816c-1.28,3.939,0.876,8.17,4.815,9.45
			c39.175,12.724,63.055,44.135,65.359,47.269c1.854,3.484,15.537,31.403-8.984,53.5c-11.312,10.194-22.374,8.466-29.664,5.223
			c-15.903-7.077-27.896-26.621-27.896-45.461c0-19.644-3.155-38.017-8.884-51.734C36.537,161.757,30.595,154.7,24.674,150.4
			c8.142-4.651,20.175-10.128,33.781-11.776c0.072-0.009,0.145-0.019,0.217-0.03c24.3-3.663,90.906-6.213,107.11,25.571
			c1.882,3.69,6.397,5.155,10.089,3.275c3.689-1.881,5.156-6.398,3.274-10.088C154.952,109.899,61.91,122.95,56.545,123.746
			c-29.281,3.583-51.367,21.507-52.295,22.27c-2.292,1.885-3.258,4.944-2.462,7.804s3.203,4.98,6.14,5.41
			c16.054,2.349,27.266,29.361,27.266,65.689c0,24.795,15.476,49.677,36.797,59.165c5.711,2.541,11.535,3.794,17.273,3.794
			c10.152,0,20.035-3.923,28.53-11.578c10.84-9.768,16.006-20.436,18.132-30.208c4.567,12.987,9.312,30.806,13.251,55.013
			c-5.861,13.976-4.071,27.542,4.916,38.453c0.725,7.431,1.361,15.121,1.905,23.059c-0.705-0.378-1.426-0.742-2.173-1.083
			c-8.399-3.826-16.53-3.936-17.43-3.936c-4.143,0-7.5,3.358-7.5,7.5s3.357,7.5,7.5,7.5c0.056,0,5.777,0.111,11.212,2.586
			c6.098,2.777,9.255,7.183,9.826,13.747c0.664,16.046,1.002,32.915,1.002,50.531v65.006c0,4.142,3.357,7.5,7.5,7.5
			s7.5-3.358,7.5-7.5v-65.006c0-1.53-0.007-3.045-0.012-4.564c6.209-24.747,13.248-42.433,19.557-54.823
			c1.106,11.347,5.881,24.625,19.126,36.559c8.496,7.655,18.377,11.577,28.529,11.577c5.739,0,11.565-1.253,17.276-3.795
			c19.714-8.773,34.42-30.711,36.524-53.568c24.728,2.114,49.605,3.181,74.494,3.181c26.029,0,52.072-1.157,77.94-3.47
			c4.126-0.369,7.171-4.013,6.802-8.138c-0.368-4.125-3.994-7.17-8.138-6.802c-49.984,4.47-100.599,4.535-150.565,0.219
			c0.586-10.46,2.15-19.936,4.51-28.015c23.017,1.275,46.145,1.92,69.3,1.92c35.95,0,71.959-1.536,107.668-4.602
			c5.259-0.453,10.203-1.692,14.628-3.597c-0.234,3.581-0.474,7.154-0.725,10.7c-0.666,9.5-7.265,17.58-16.421,20.104
			c-3.993,1.101-6.338,5.23-5.237,9.224c0.917,3.326,3.936,5.509,7.227,5.509c0.659,0,1.33-0.088,1.997-0.271
			c15.278-4.212,26.288-17.681,27.397-33.511c0.628-8.867,1.205-17.898,1.716-26.838
			C511.596,227.195,511.596,146.812,507.031,67.551z M267.2,21.016c67.479-8.022,135.917-8.021,203.407,0
			c10.685,1.272,18.988,9.998,19.745,20.752c0.252,3.563,0.494,7.156,0.729,10.755c-4.464-1.934-9.434-3.199-14.635-3.646
			c-71.359-6.138-143.729-6.138-215.098,0c-5.201,0.447-10.169,1.715-14.634,3.649c0.231-3.56,0.469-7.144,0.721-10.755
			C248.2,31.016,256.512,22.287,267.2,21.016z M172.445,388.907c-0.52-12.744-1.244-24.982-2.172-36.661
			c5.837,2.982,12.112,4.948,18.14,5.789c-0.637,0.951-1.282,1.937-1.944,2.989C181.42,369.06,176.74,378.384,172.445,388.907z
			 M251.813,410.712c-7.29,3.244-18.353,4.971-29.665-5.221c-24.48-22.057-10.891-49.922-9.011-53.464
			c2.142-2.936,25.883-34.479,65.383-47.305c3.939-1.279,6.097-5.51,4.817-9.45c-1.28-3.939-5.511-6.095-9.45-4.817
			c-41.655,13.526-67.029,44.942-72.229,51.866c-2.309,1.114-6.869,1.661-12.801,0.549c-7.077-1.327-14.091-4.57-19.242-8.897
			c-9.326-7.834-11.278-17.543-5.805-28.857c9.54-19.715,37.508-25.9,59.291-27.618c25.001-1.971,47.896,1.396,48.122,1.43
			c0.071,0.011,0.143,0.021,0.215,0.029c13.611,1.651,25.645,7.129,33.786,11.779c-5.921,4.3-11.861,11.357-16.634,22.785
			c-5.729,13.718-8.884,32.091-8.884,51.733C279.707,384.093,267.715,403.636,251.813,410.712z M304.863,273.593
			c-8.638-4.135-19.462-8.038-31.512-9.515c-0.166-0.025-0.417-0.061-0.745-0.107c1.473-7.845,8.362-13.803,16.628-13.803
			c9.341,0,16.94,7.595,16.94,16.93C306.174,269.351,305.713,271.551,304.863,273.593z M475.163,310.196
			c-56.274,4.833-113.289,5.814-169.651,2.934c4.453-7.779,10.07-12.632,16.458-13.569c2.936-0.431,5.342-2.552,6.137-5.411
			s-0.17-5.918-2.463-7.803c-0.313-0.257-3.037-2.467-7.625-5.417c2.059-4.281,3.155-8.998,3.155-13.832
			c0-17.606-14.328-31.93-31.94-31.93c-16.034,0-29.341,11.882-31.59,27.302c-4.096-0.283-8.81-0.511-13.94-0.592
			c-2.298-63.433-1.661-127.621,1.901-190.958c3.812-3.883,10.001-6.494,17.028-7.098c70.516-6.065,142.02-6.065,212.527,0
			c7.029,0.604,13.22,3.216,17.031,7.101c4.341,77.042,4.341,155.119-0.001,232.164C488.382,306.974,482.192,309.59,475.163,310.196
			z"/>
		<path d="M341.775,36.216h54.249c4.143,0,7.5-3.358,7.5-7.5s-3.357-7.5-7.5-7.5h-54.249c-4.143,0-7.5,3.358-7.5,7.5
			S337.632,36.216,341.775,36.216z"/>
		<path d="M286.918,139.887c14.976,0,23.078-10.815,23.343-21.498c0.46-18.627-15.646-39.339-17.483-41.64
			c-1.423-1.781-3.579-2.818-5.859-2.818s-4.437,1.037-5.859,2.818c-0.182,0.227-4.492,5.648-8.754,13.231
			c-5.994,10.667-8.932,20.225-8.729,28.409C263.839,129.072,271.942,139.887,286.918,139.887z M286.925,94.668
			c4.175,6.899,8.52,16.045,8.339,23.349c-0.161,6.538-6.981,6.869-8.347,6.869s-8.186-0.332-8.347-6.869
			C278.391,110.746,282.746,101.584,286.925,94.668z"/>
		<path d="M303.416,183.74c-4.143,0-7.5,3.358-7.5,7.5v7.819c0,1.973-1.604,3.577-3.577,3.577s-3.577-1.604-3.577-3.577v-11.412
			c3.987-0.175,7.168-3.453,7.168-7.483s-3.181-7.308-7.168-7.483v-8.806c0-4.142-3.357-7.5-7.5-7.5s-7.5,3.358-7.5,7.5v8.79h-5.531
			c-4.143,0-7.5,3.358-7.5,7.5s3.357,7.5,7.5,7.5h5.531v11.396c0,10.244,8.334,18.577,18.577,18.577s18.577-8.333,18.577-18.577
			v-7.819C310.916,187.098,307.558,183.74,303.416,183.74z"/>
		<path d="M452.403,81.164h-89.311c-10.188,0-18.476,8.288-18.476,18.476v14.537c0,10.188,8.288,18.476,18.476,18.476h89.311
			c10.188,0,18.477-8.288,18.477-18.476V99.64C470.879,89.453,462.591,81.164,452.403,81.164z M359.617,114.177V99.64
			c0-1.917,1.56-3.476,3.476-3.476h61.343v21.488h-61.343C361.176,117.653,359.617,116.094,359.617,114.177z M455.879,114.177
			c0,1.917-1.56,3.476-3.477,3.476h-12.968V96.164h12.968c1.917,0,3.477,1.559,3.477,3.476V114.177z"/>
		<path d="M452.403,161.26h-89.311c-10.188,0-18.476,8.288-18.476,18.476v14.537c0,10.188,8.288,18.476,18.476,18.476h89.311
			c10.188,0,18.477-8.289,18.477-18.476v-14.537C470.879,169.548,462.591,161.26,452.403,161.26z M359.617,194.273v-14.537
			c0-1.917,1.56-3.476,3.476-3.476h20.293v21.489h-20.293C361.176,197.749,359.617,196.189,359.617,194.273z M455.879,194.273
			c0,1.917-1.56,3.476-3.477,3.476h-54.018V176.26h54.018c1.917,0,3.477,1.56,3.477,3.476V194.273z"/>
		<path d="M452.403,241.356h-89.311c-10.188,0-18.476,8.288-18.476,18.476v14.537c0,10.188,8.288,18.476,18.476,18.476h89.311
			c10.188,0,18.477-8.289,18.477-18.476v-14.537C470.879,249.644,462.591,241.356,452.403,241.356z M359.617,274.369v-14.537
			c0-1.917,1.56-3.476,3.476-3.476h70.14v21.489h-70.14C361.176,277.845,359.617,276.285,359.617,274.369z M455.879,274.369
			c0,1.917-1.56,3.476-3.477,3.476h-4.171v-21.489h4.171c1.917,0,3.477,1.56,3.477,3.476V274.369z"/>
	</g>
</g>
<g>
</g>
<g>
</g>
<g>
</g>
<g>
</g>
<g>
</g>
<g>
</g>
<g>
</g>
<g>
</g>
<g>
</g>
<g>
</g>
<g>
</g>
<g>
</g>
<g>
</g>
<g>
</g>
<g>
</g>
</svg>
