<?xml version="1.0" encoding="iso-8859-1"?>
<!-- Generator: Adobe Illustrator 21.0.0, SVG Export Plug-In . SVG Version: 6.00 Build 0)  -->
<svg version="1.1" id="Capa_1" xmlns="http://www.w3.org/2000/svg" xmlns:xlink="http://www.w3.org/1999/xlink" x="0px" y="0px"
	 viewBox="0 0 511.998 511.998" style="enable-background:new 0 0 511.998 511.998;" xml:space="preserve">
<g>
	<g>
		<path style="fill:#A5E4EF;" d="M452.584,459.026L255.999,481.76L59.665,459.026c0,0-3.638-11.292-8.496-30.129
			C39.515,383.65,20.864,294.844,28.79,214.179c0,0,64.547-106.718,227.334-190.187c9.805,5.029,19.26,10.146,28.366,15.31
			c30.125,17.112,56.411,34.831,79.15,52.126c12.414,9.452,23.778,18.769,34.113,27.807c13.553,11.842,25.357,23.182,35.502,33.636
			c34.782,35.814,50.204,61.308,50.204,61.308C494.682,328.441,452.584,459.026,452.584,459.026z"/>
		<path style="fill:#02C6DB;" d="M452.592,475.523c-1.677,0-3.382-0.258-5.064-0.8c-8.668-2.795-13.43-12.088-10.636-20.756
			c0.487-1.517,39.932-125.854,30.521-234.236c-5.209-7.802-21.06-30.171-49.251-58.712
			c-31.327-31.715-84.56-77.576-162.037-118.439c-77.477,40.863-130.71,86.724-162.037,118.439
			c-28.178,28.529-44.027,50.89-49.251,58.713c-9.421,108.495,30.116,232.979,30.522,234.239
			c2.789,8.668-1.975,17.959-10.643,20.751c-8.667,2.792-17.957-1.967-20.751-10.635c-1.762-5.465-43.019-135.183-31.589-251.517
			c0.241-2.45,1.027-4.816,2.302-6.922c0.699-1.157,17.566-28.77,54.975-66.823C103.793,104.096,162.552,53.436,248.6,9.317
			c4.724-2.422,10.325-2.422,15.049,0c86.047,44.119,144.807,94.779,178.948,129.508c37.409,38.053,54.276,65.666,54.975,66.823
			c1.274,2.107,2.061,4.472,2.302,6.922c11.43,116.334-29.828,246.052-31.589,251.517
			C466.032,471.074,459.557,475.523,452.592,475.523z"/>
		<path style="fill:#49CB8B;" d="M481.765,459.027H30.232c-12.555,0-22.733,10.178-22.733,22.733v0
			c0,12.555,10.178,22.733,22.733,22.733h451.532c12.555,0,22.733-10.178,22.733-22.733v0
			C504.497,469.205,494.32,459.027,481.765,459.027z"/>
		<path style="fill:#13B766;" d="M81.882,497.841c4.118,4.108,9.805,6.657,16.082,6.657H30.228c-6.277,0-11.954-2.549-16.072-6.657
			c-4.118-4.118-6.657-9.805-6.657-16.082c0-12.554,10.175-22.728,22.728-22.728h67.735c-12.554,0-22.738,10.175-22.738,22.728
			C75.225,488.036,77.774,493.724,81.882,497.841z"/>
		<g>
			<path style="fill:#49CB8B;" d="M129.375,266.868c17.278,2.534,25.571,28.105,25.571,55.519c0,28.012,29.948,55.749,53.215,34.786
				s7.833-47.917,7.833-47.917c11.518,8.293,51.602-6.45,37.78-35.016c-16.343-33.775-87.54-23.037-87.54-23.037
				C145.347,253.737,129.375,266.868,129.375,266.868z"/>
			<path style="fill:#13B766;" d="M215.993,309.262c11.519,8.294,51.604-6.449,37.781-35.023
				c-16.348-33.771-87.539-23.037-87.539-23.037c-20.881,2.539-36.854,15.669-36.854,15.669
				C183.516,262.954,215.993,309.262,215.993,309.262z"/>
		</g>
		<g>
			<path style="fill:#49CB8B;" d="M394.245,199.305c-17.278,2.534-25.571,28.105-25.571,55.519
				c0,28.012-29.948,55.749-53.215,34.786c-23.267-20.963-7.833-47.917-7.833-47.917c-11.518,8.293-51.602-6.45-37.78-35.016
				c16.343-33.775,87.54-23.037,87.54-23.037C378.273,186.174,394.245,199.305,394.245,199.305z"/>
			<path style="fill:#13B766;" d="M307.627,241.699c-11.519,8.294-51.604-6.449-37.781-35.023
				c16.348-33.771,87.539-23.037,87.539-23.037c20.881,2.539,36.854,15.669,36.854,15.669
				C340.104,195.391,307.627,241.699,307.627,241.699z"/>
		</g>
	</g>
	<path d="M481.764,451.527h-1.909c10.439-36.975,36.957-143.294,27.486-239.689c-0.347-3.54-1.51-7.025-3.351-10.059
		c-0.713-1.182-17.886-29.395-56.045-68.206C413.42,98.45,354.014,47.225,267.082,2.652c-6.854-3.528-15.044-3.53-21.905-0.005
		C158.233,47.225,98.827,98.45,64.301,133.572C26.204,172.322,8.973,200.59,8.267,201.76c-1.845,3.042-3.004,6.527-3.351,10.076
		c-9.476,96.451,17.036,202.728,27.475,239.691h-2.158C13.562,451.527,0,465.089,0,481.76s13.562,30.233,30.232,30.233h451.532
		c16.671,0,30.233-13.562,30.233-30.233S498.435,451.527,481.764,451.527z M19.844,213.3c0.132-1.348,0.552-2.613,1.257-3.775
		c0.677-1.123,17.02-27.93,53.897-65.438c33.751-34.334,91.86-84.428,177.028-128.096c2.568-1.32,5.631-1.32,8.201,0.003
		c85.162,43.665,143.271,93.759,177.022,128.094c36.935,37.566,53.219,64.313,53.905,65.452c0.704,1.16,1.128,2.426,1.259,3.763
		c9.601,97.73-18.957,206.5-28.158,238.224h-18.782c2.457-8.246,7.712-26.725,13.166-51.229c0.899-4.043-1.648-8.05-5.692-8.95
		c-4.04-0.899-8.05,1.649-8.95,5.692c-6.96,31.282-13.541,52.387-14.204,54.488H270.427c0.509-15.028,1.25-29.531,2.216-43.205
		c0.644-9.103,1.396-18.009,2.238-26.471c1.536-15.446,3.338-29.167,5.304-41.349c1.578-8.041,13.743-13.731,17.897-15.093
		c3.943-1.267,6.113-5.492,4.846-9.435c-1.268-3.944-5.495-6.113-9.436-4.845c-0.485,0.156-4.035,1.335-8.474,3.701
		c3.864-17.686,8.005-30.907,11.854-40.716c2.098,7.211,6.275,14.498,13.566,21.068c6.801,6.127,14.714,9.266,22.85,9.266
		c4.607,0,9.287-1.007,13.875-3.049c16.81-7.481,29.011-27.068,29.011-46.574c0-26.665,7.878-46.444,19.158-48.098
		c2.937-0.431,5.343-2.552,6.138-5.411s-0.17-5.918-2.463-7.803c-0.72-0.592-17.871-14.51-40.616-17.305
		c-1.729-0.254-19.373-2.73-39.226-1.192c-29.183,2.261-48.048,11.814-56.07,28.395c-6.724,13.896-3.81,28.013,7.797,37.763
		c5.838,4.904,13.201,8.18,20.352,9.55c-8.99,15.738-20.816,46.63-28.576,105.978c-7.509-16.962-17.905-30.228-26.526-39.313
		c5.918-1.675,11.774-4.607,16.59-8.653c11.604-9.75,14.519-23.866,7.796-37.764c-7.2-14.865-23.229-24.115-47.643-27.49
		c-4.104-0.567-7.89,2.299-8.457,6.402c-0.567,4.103,2.299,7.889,6.402,8.456c19.14,2.646,31.318,9.096,36.195,19.167
		c3.803,7.861,2.513,14.32-3.944,19.745c-7.537,6.333-18.261,7.756-21.988,6.294c-3.821-5.002-17.932-22.061-40.663-33.547
		c-3.697-1.868-8.208-0.385-10.076,3.312c-1.868,3.697-0.385,8.208,3.312,10.076c21.232,10.728,34.154,27.439,35.961,29.87
		c1.398,2.591,11.201,22.406-6.491,38.341c-6.319,5.695-13.245,6.926-20.583,3.661c-11.274-5.017-20.106-19.455-20.106-32.869
		c0-15.15-2.446-29.35-6.888-39.984c-3.191-7.64-7.067-12.829-11.051-16.327c5.88-3.106,13.815-6.361,22.634-7.434
		c0.07-0.008,0.144-0.019,0.213-0.029c0.06-0.009,6.129-0.91,14.904-1.324c4.138-0.195,7.334-3.708,7.139-7.845
		c-0.195-4.138-3.707-7.338-7.845-7.138c-9.027,0.426-15.363,1.318-16.322,1.459c-22.748,2.801-39.897,16.718-40.617,17.31
		c-2.292,1.885-3.258,4.944-2.462,7.803c0.795,2.859,3.202,4.981,6.138,5.411c11.101,1.626,19.157,21.855,19.157,48.099
		c0,19.507,12.2,39.094,29.008,46.573c4.586,2.041,9.263,3.047,13.87,3.047c8.136,0,16.051-3.14,22.852-9.268
		c10.831-9.756,14.792-21.092,15.265-31.415c5.203,5.922,10.861,13.394,15.807,22.271c-5.104,0.712-8.759,3.023-9.303,3.385
		c-3.45,2.293-4.387,6.948-2.094,10.398c2.293,3.45,6.949,4.388,10.398,2.094c0.023-0.015,2.558-1.493,4.979-0.988
		c1.425,0.297,2.797,1.344,4.085,3.111c3.658,10.662,5.847,22.656,5.355,35.826c-0.984,13.965-1.739,28.77-2.252,44.105H82.453
		c-1.401-4.402-38.878-123.775-30.303-229.222c6.18-9.06,21.375-29.793,47.276-56.015c30.184-30.559,81.727-75.151,156.703-115.219
		c75.004,40.087,126.53,84.671,156.693,115.219c25.958,26.281,41.118,46.976,47.276,56.014c3.41,41.836-0.005,90.814-10.155,145.619
		c-0.754,4.073,1.937,7.986,6.009,8.74c4.078,0.758,7.987-1.936,8.741-6.009c10.552-56.976,13.979-107.973,10.187-151.575
		c-0.109-1.255-0.532-2.462-1.231-3.51c-5.576-8.365-21.627-30.938-50.153-59.819c-31.372-31.772-85.268-78.348-163.867-119.804
		c-2.189-1.155-4.808-1.155-6.998,0c-78.569,41.434-132.483,88.019-163.876,119.803c-28.461,28.815-44.554,51.43-50.152,59.816
		c-0.701,1.049-1.125,2.258-1.234,3.515c-8.454,97.372,22.288,208.407,29.411,232.446H47.991
		C38.79,419.816,10.236,311.093,19.844,213.3z M313.988,245.695c2.116-2.865,19.704-25.719,48.647-35.122
		c3.939-1.28,6.096-5.511,4.815-9.45c-1.279-3.94-5.516-6.094-9.45-4.816c-31.434,10.213-50.872,33.639-55.473,39.67
		c-3.718,1.466-14.447,0.046-21.987-6.289c-6.457-5.425-7.747-11.884-3.943-19.745c11.406-23.572,61.382-21.624,79.671-18.887
		c0.071,0.011,0.143,0.021,0.215,0.029c8.816,1.07,16.751,4.324,22.631,7.428c-3.986,3.499-7.863,8.689-11.054,16.33
		c-4.44,10.633-6.886,24.831-6.886,39.979c0,13.414-8.833,27.852-20.11,32.87c-7.341,3.267-14.267,2.036-20.584-3.657
		C302.998,268.287,312.61,248.317,313.988,245.695z M481.764,496.992H30.232c-8.399,0-15.232-6.833-15.232-15.233
		s6.833-15.233,15.232-15.233h451.532c8.399,0,15.233,6.833,15.233,15.233S490.164,496.992,481.764,496.992z"/>
</g>
<g>
</g>
<g>
</g>
<g>
</g>
<g>
</g>
<g>
</g>
<g>
</g>
<g>
</g>
<g>
</g>
<g>
</g>
<g>
</g>
<g>
</g>
<g>
</g>
<g>
</g>
<g>
</g>
<g>
</g>
</svg>
