<?xml version="1.0" encoding="iso-8859-1"?>
<!-- Generator: Adobe Illustrator 21.0.0, SVG Export Plug-In . SVG Version: 6.00 Build 0)  -->
<svg version="1.1" id="Capa_1" xmlns="http://www.w3.org/2000/svg" xmlns:xlink="http://www.w3.org/1999/xlink" x="0px" y="0px"
	 viewBox="0 0 512 512" style="enable-background:new 0 0 512 512;" xml:space="preserve">
<g>
	<g>
		<path style="fill:#FA4954;" d="M444.077,504.5H67.922l10.022-37.657c3.477-13.079,13.508-23.41,26.477-27.266l89.173-26.527v-0.01
			l16.835-5.006h91.151l105.998,31.543c12.969,3.857,23,14.188,26.477,27.266L444.077,504.5z"/>
		<path style="fill:#E21F2D;" d="M195.102,504.5H67.922l10.022-37.657c3.477-13.079,13.508-23.41,26.477-27.266l89.173-26.527
			C175.18,431.483,179.886,488.154,195.102,504.5z"/>
		<path style="fill:#49CB8B;" d="M352.586,98.142H159.413c0,0,0.969-14.897,5.625-32.552c3.607-13.708,9.442-29.065,18.774-40.415
			c0,0,36.608-17.675,72.188-17.675c35.579,0,72.188,17.675,72.188,17.675c9.332,11.35,15.167,26.707,18.774,40.415
			C351.617,83.244,352.586,98.142,352.586,98.142z"/>
		<path style="fill:#13B766;" d="M255.09,7.51c-3.179,0.09-6.364,0.641-9.465,1.496c-18.253,5.035-31.834,20.209-35.92,38.697
			c-1.32,5.971-2.369,12.077-3.203,17.887c-2.538,17.655-3.057,32.552-3.057,32.552h-44.032c0,0,0.969-14.897,5.625-32.552
			c3.607-13.708,9.442-29.065,18.774-40.415C183.812,25.175,219.801,7.8,255.09,7.51z"/>
		<path style="fill:#13B766;" d="M352.586,98.142H159.413c0,0,0.969-14.897,5.625-32.552c27.826-5.036,58.599-7.823,90.961-7.823
			c32.362,0,63.135,2.788,90.961,7.823C351.617,83.244,352.586,98.142,352.586,98.142z"/>
		<ellipse style="fill:#49CB8B;" cx="256" cy="174.504" rx="225.728" ry="92.492"/>
		<path style="fill:#13B766;" d="M434.376,231.186C393.082,252.978,328.538,266.996,256,266.996
			c-124.672,0-225.735-41.414-225.735-92.49c0-34.82,46.949-65.144,116.319-80.92c-29.654,15.656-47.309,35.32-47.309,56.671
			c0,51.086,101.063,92.49,225.725,92.49C364.686,242.747,401.974,238.55,434.376,231.186z"/>
		<path style="fill:#FCD0A3;" d="M301.57,327.553v80.48c0,25.168-20.402,45.571-45.57,45.571c-25.168,0-45.571-20.402-45.571-45.571
			v-80.48H301.57z"/>
		<path style="fill:#FFB983;" d="M255.996,453.604c-25.168,0-45.571-20.402-45.571-45.571v-80.48h25.568v80.48
			C235.993,433.202,244.945,453.604,255.996,453.604z"/>
		<g>
			<polygon style="fill:#49CB8B;" points="163.556,504.5 121.891,504.5 121.891,416.72 163.556,406.729 			"/>
			<polygon style="fill:#49CB8B;" points="390.11,504.5 348.445,504.5 348.445,406.729 390.11,416.72 			"/>
		</g>
		<path style="fill:#FFB983;" d="M301.57,327.553v66.173c-13.928,6.195-29.344,9.622-45.57,9.622
			c-16.226,0-31.643-3.427-45.571-9.622v-66.173H301.57z"/>
		<path style="fill:#FFB983;" d="M378.225,225.698H133.775c-15.608,0-28.26,12.653-28.26,28.26v0c0,15.608,12.653,28.26,28.26,28.26
			h244.451c15.608,0,28.26-12.652,28.26-28.26v0C406.486,238.35,393.833,225.698,378.225,225.698z"/>
		<path style="fill:#FCD0A3;" d="M368.522,152.464v117.528c0,62.146-50.376,112.523-112.523,112.523
			c-62.146,0-112.523-50.376-112.523-112.523V152.464C215.765,123.839,296.235,123.839,368.522,152.464z"/>
		<path style="fill:#FFB983;" d="M256,382.515c-62.146,0-112.523-50.376-112.523-112.523V152.464
			c16.166-6.394,32.742-11.37,49.537-14.907v132.435C193.014,332.139,221.22,382.515,256,382.515z"/>
		<path style="fill:#665E66;" d="M316.28,158.365c24.763,8.956,53.56,3.522,73.412-16.329
			c19.852-19.852,25.286-48.648,16.329-73.412L316.28,158.365z"/>
		<g>
			<path style="fill:#665E66;" d="M293.108,299.962h35.836v0c0-20.494-16.614-37.108-37.108-37.108H256v0
				C256,283.348,272.614,299.962,293.108,299.962z"/>
			<path style="fill:#665E66;" d="M218.892,299.962h-35.836v0c0-20.494,16.614-37.108,37.108-37.108H256v0
				C256,283.348,239.386,299.962,218.892,299.962z"/>
		</g>
	</g>
	<g>
		<path d="M209.077,228.198v-25.889c0-4.142-3.357-7.5-7.5-7.5s-7.5,3.358-7.5,7.5v25.889c0,4.142,3.357,7.5,7.5,7.5
			S209.077,232.34,209.077,228.198z"/>
		<path d="M317.922,228.198v-25.889c0-4.142-3.357-7.5-7.5-7.5s-7.5,3.358-7.5,7.5v25.889c0,4.142,3.357,7.5,7.5,7.5
			S317.922,232.34,317.922,228.198z"/>
		<path d="M175.556,299.961c0,4.142,3.357,7.5,7.5,7.5h35.836c15.458,0,29.101-7.907,37.108-19.885
			c8.007,11.979,21.649,19.885,37.107,19.885h35.836c4.143,0,7.5-3.358,7.5-7.5c0-24.597-20.012-44.608-44.608-44.608H256h-35.836
			C195.567,255.354,175.556,275.365,175.556,299.961z M291.835,270.354c13.736,0,25.317,9.401,28.646,22.108h-27.374
			c-13.736,0-25.316-9.401-28.646-22.108H291.835z M220.164,270.354h27.374c-3.329,12.707-14.91,22.108-28.646,22.108h-27.374
			C194.847,279.754,206.428,270.354,220.164,270.354z"/>
		<path d="M489.225,174.505c0-12.686-5.133-24.931-15.257-36.396c-2.742-3.106-7.482-3.4-10.586-0.658
			c-3.105,2.742-3.399,7.481-0.658,10.586c7.632,8.644,11.501,17.549,11.501,26.469c0,22.215-23.91,43.972-65.856,60.206
			c-1.384-2.159-3.001-4.19-4.858-6.051c-6.762-6.749-15.74-10.465-25.281-10.465h-2.207v-56.983
			c6.904-3.585,13.322-8.223,18.973-13.874c8.779-8.779,15.129-19.402,18.84-30.837c10.261,4.26,19.457,8.915,27.379,13.897
			c1.24,0.78,2.62,1.152,3.985,1.152c2.492,0,4.931-1.242,6.355-3.508c2.205-3.506,1.15-8.137-2.356-10.342
			c-9.271-5.83-20.047-11.224-32.088-16.076c1.413-11.811,0.145-23.993-4.036-35.551c-0.872-2.413-2.918-4.212-5.422-4.77
			c-2.507-0.561-5.12,0.203-6.935,2.017l-25.025,25.025c-5.612-1.41-11.336-2.729-17.19-3.93
			c-2.713-17.759-9.22-45.398-24.522-64.005c-0.69-0.839-1.554-1.518-2.532-1.99C329.891,17.668,292.871,0,256,0
			s-73.891,17.668-75.448,18.421c-0.979,0.472-1.842,1.151-2.532,1.99c-15.296,18.598-21.804,46.227-24.52,63.988
			c-21.879,4.492-42.11,10.454-59.954,17.765c-45.637,18.699-70.771,44.39-70.771,72.342c0,29.185,26.795,55.413,75.624,74.271
			c-0.246,1.691-0.379,3.418-0.379,5.177c0,9.555,3.719,18.536,10.464,25.281c6.748,6.763,15.73,10.487,25.293,10.487h3.819
			c3.009,18.278,10.197,35.553,21.245,50.755c1.468,2.02,3.755,3.091,6.073,3.091c1.529,0,3.072-0.466,4.403-1.434
			c3.351-2.435,4.093-7.125,1.658-10.476c-13.083-18-19.998-39.324-19.998-61.664V157.607c28.04-10.557,57.393-16.806,87.328-18.584
			c27.069-1.607,54.095,0.479,80.525,6.184l-7.854,7.854c-1.813,1.814-2.574,4.43-2.017,6.934c0.558,2.504,2.356,4.549,4.77,5.422
			c8.553,3.093,17.441,4.594,26.274,4.594c7.118,0,14.191-0.997,21.019-2.901v102.882c0,57.91-47.113,105.023-105.022,105.023
			c-24.21,0-46.952-8.002-65.768-23.142c-3.229-2.598-7.948-2.085-10.546,1.142c-2.597,3.227-2.085,7.948,1.142,10.545
			c6.847,5.509,14.273,10.206,22.101,14.058v24.822l-31.873,9.485v-5.197c0-2.297-1.053-4.467-2.856-5.889
			c-1.804-1.423-4.165-1.94-6.393-1.404l-41.665,9.992c-3.373,0.809-5.751,3.825-5.751,7.293v12.065l-12.107,3.602
			c-15.364,4.569-27.468,17.033-31.588,32.527l-10.021,37.657c-0.599,2.251-0.118,4.653,1.302,6.5S65.594,512,67.923,512h376.154
			c2.329,0,4.526-1.083,5.946-2.929s1.9-4.249,1.302-6.5l-10.021-37.655c-4.118-15.496-16.223-27.96-31.587-32.528l-12.106-3.601
			V416.72c0-3.468-2.378-6.484-5.751-7.293l-41.665-9.992c-2.234-0.536-4.589-0.019-6.393,1.404
			c-1.804,1.422-2.856,3.592-2.856,5.889v5.194l-31.865-9.482v-24.822c33.979-16.827,58.897-49.274,65.312-87.898h3.837
			c19.717,0,35.757-16.045,35.757-35.768c0-1.751-0.128-3.483-0.374-5.187C462.434,229.917,489.225,203.692,489.225,174.505z
			 M188.566,31.241C195.619,28.065,226.442,15,256,15c29.477,0,60.378,13.074,67.436,16.244
			c11.184,14.455,16.736,35.812,19.364,50.256c-27.388-4.594-56.805-6.984-86.799-6.984c-30.224,0-59.579,2.396-86.795,6.96
			C171.835,67.029,177.389,45.685,188.566,31.241z M133.776,274.72c-5.55,0-10.761-2.16-14.681-6.088
			c-3.918-3.918-6.076-9.131-6.076-14.68c0-11.445,9.312-20.757,20.757-20.757h2.201v36.797c0,1.581,0.031,3.156,0.092,4.728
			H133.776z M237.416,124.05c-33.218,1.974-65.752,9.188-96.699,21.441c-2.86,1.132-4.739,3.897-4.739,6.973v65.731h-2.201
			c-12.642,0-23.764,6.6-30.124,16.53c-41.959-16.242-65.877-38.005-65.877-60.22c0-21.15,22.4-42.459,61.458-58.462
			C140.984,98.937,196.659,89.516,256,89.516c37.785,0,74.559,3.885,107.25,11.273l-31.923,31.922
			C300.613,125.092,269.042,122.17,237.416,124.05z M330.901,154.351l71.105-71.105c2.854,19.357-3.506,39.374-17.619,53.487
			C370.276,150.845,350.26,157.205,330.901,154.351z M85.191,468.77c2.787-10.483,10.975-18.915,21.368-22.005l7.831-2.33V497H77.68
			L85.191,468.77z M129.391,497v-74.366l26.665-6.395V497H129.391z M405.44,446.765c10.394,3.09,18.581,11.522,21.367,22.006
			L434.32,497h-36.71v-52.564L405.44,446.765z M355.945,416.24l26.665,6.395V497h-26.665V416.24z M340.945,497h-169.89v-69.424
			l32.792-9.759c4.606,24.604,26.233,43.287,52.162,43.287c25.92,0,47.545-18.683,52.151-43.287l32.784,9.756V497z M294.08,408.034
			c0,20.992-17.078,38.07-38.08,38.07c-20.992,0-38.071-17.078-38.071-38.07v-24.26c12.207,4.083,25.07,6.242,38.071,6.242
			c13.305,0,26.11-2.18,38.08-6.195V408.034z M378.229,274.72h-2.309c0.061-1.569,0.102-3.144,0.102-4.728v-36.797h2.207
			c5.54,0,10.756,2.16,14.675,6.071c3.922,3.93,6.082,9.146,6.082,14.686C398.986,265.404,389.675,274.72,378.229,274.72z"/>
	</g>
</g>
<g>
</g>
<g>
</g>
<g>
</g>
<g>
</g>
<g>
</g>
<g>
</g>
<g>
</g>
<g>
</g>
<g>
</g>
<g>
</g>
<g>
</g>
<g>
</g>
<g>
</g>
<g>
</g>
<g>
</g>
</svg>
