<?xml version="1.0" encoding="iso-8859-1"?>
<!-- Generator: Adobe Illustrator 21.0.0, SVG Export Plug-In . SVG Version: 6.00 Build 0)  -->
<svg version="1.1" id="Capa_1" xmlns="http://www.w3.org/2000/svg" xmlns:xlink="http://www.w3.org/1999/xlink" x="0px" y="0px"
	 viewBox="0 0 512 512" style="enable-background:new 0 0 512 512;" xml:space="preserve">
<g>
	<g>
		<path style="fill:#665E66;" d="M35.32,160.091H21.16c-7.54,0-13.66,6.12-13.66,13.67v43.69c0,7.55,6.12,13.67,13.66,13.67h14.16
			h441.36h14.16c7.54,0,13.66-6.12,13.66-13.67v-43.69c0-7.55-6.12-13.67-13.66-13.67h-14.16"/>
		<path style="fill:#454045;" d="M504.5,191.061v26.39c0,7.55-6.12,13.67-13.66,13.67H21.16c-7.54,0-13.66-6.12-13.66-13.67v-26.39
			c0,7.55,6.12,13.67,13.66,13.67h469.68C498.38,204.731,504.5,198.611,504.5,191.061z"/>
		<path style="fill:#8379BF;" d="M453.854,253.716c-131.902,3.635-263.805,3.635-395.707,0c-9.731-0.268-18.277-6.717-21.049-16.049
			c-8.326-28.041-8.326-56.082,0-84.123c2.771-9.332,11.317-15.781,21.049-16.049c131.902-3.635,263.805-3.635,395.707,0
			c9.732,0.268,18.277,6.717,21.049,16.049c8.326,28.041,8.326,56.082,0,84.123C472.131,246.999,463.585,253.447,453.854,253.716z"
			/>
		<path style="fill:#6253AF;" d="M480.48,209.305c-0.91-9.46-2.78-18.91-5.58-28.36c-2.77-9.33-11.31-15.78-21.05-16.05
			c-131.9-3.63-263.8-3.63-395.7,0c-9.74,0.27-18.28,6.72-21.05,16.05c-2.8,9.45-4.67,18.9-5.58,28.36
			c-1.8-18.58,0.06-37.17,5.58-55.76c2.77-9.34,11.31-15.78,21.05-16.05c131.9-3.64,263.8-3.64,395.7,0
			c9.74,0.27,18.28,6.71,21.05,16.05C480.42,172.134,482.28,190.724,480.48,209.305z"/>
		<path style="fill:#A9A2D5;" d="M424.597,214.175H87.403c-5.668,0-10.262,4.595-10.262,10.262v0
			c0,5.668,4.595,10.262,10.262,10.262h337.194c5.668,0,10.262-4.595,10.262-10.262v0
			C434.859,218.77,430.265,214.175,424.597,214.175z"/>
	</g>
	<g>
		<path d="M81.971,305.672c-3.447-2.297-8.104-1.367-10.4,2.08l-22.233,33.351c-2.298,3.446-1.366,8.103,2.08,10.4
			c1.279,0.853,2.724,1.261,4.153,1.261c2.423,0,4.802-1.173,6.247-3.341l22.233-33.351
			C86.349,312.626,85.417,307.97,81.971,305.672z"/>
		<path d="M440.429,307.752c-2.298-3.446-6.955-4.377-10.4-2.08c-3.446,2.297-4.378,6.954-2.08,10.4l22.233,33.351
			c1.445,2.168,3.823,3.341,6.247,3.341c1.43,0,2.875-0.408,4.153-1.261c3.446-2.297,4.378-6.954,2.08-10.4L440.429,307.752z"/>
		<path d="M149.674,304.686c-3.987-1.109-8.125,1.227-9.234,5.218l-13.518,48.636c-1.109,3.991,1.227,8.125,5.218,9.234
			c0.672,0.187,1.347,0.276,2.013,0.276c3.284,0,6.299-2.175,7.222-5.494l13.518-48.636
			C156.001,309.93,153.665,305.796,149.674,304.686z"/>
		<path d="M371.561,309.904c-1.109-3.991-5.247-6.325-9.234-5.218c-3.991,1.109-6.327,5.244-5.218,9.234l13.518,48.636
			c0.922,3.319,3.938,5.494,7.222,5.494c0.665,0,1.341-0.089,2.013-0.276c3.991-1.109,6.327-5.244,5.218-9.234L371.561,309.904z"/>
		<path d="M218.889,304.432c-4.127-0.294-7.722,2.811-8.019,6.942l-4.698,65.311c-0.297,4.131,2.811,7.722,6.942,8.019
			c0.183,0.013,0.365,0.02,0.546,0.02c3.897,0,7.189-3.014,7.473-6.962l4.698-65.311
			C226.129,308.319,223.021,304.729,218.889,304.432z"/>
		<path d="M301.129,311.374c-0.296-4.131-3.88-7.24-8.019-6.942c-4.131,0.297-7.24,3.887-6.942,8.019l4.698,65.311
			c0.284,3.948,3.575,6.962,7.473,6.962c0.181,0,0.363-0.007,0.546-0.02c4.131-0.297,7.24-3.887,6.942-8.019L301.129,311.374z"/>
		<path d="M390.81,247.682c-110.235,2.066-222.088,1.576-332.452-1.458c-6.571-0.182-12.224-4.477-14.068-10.688
			c-7.871-26.495-7.871-53.364,0-79.86c1.844-6.21,7.497-10.505,14.064-10.688c15.612-0.425,29.279-0.759,41.782-1.019
			c4.142-0.086,7.429-3.513,7.343-7.655c-0.085-4.088-3.426-7.344-7.496-7.344c-0.053,0-0.106,0-0.159,0.001
			c-12.536,0.261-26.234,0.595-41.882,1.021c-13.071,0.362-24.336,8.967-28.031,21.411c-0.117,0.395-0.216,0.791-0.33,1.186h-8.42
			c-11.668,0-21.16,9.497-21.16,21.17v43.69c0,11.673,9.492,21.17,21.16,21.17h8.42c0.114,0.395,0.213,0.79,0.33,1.185
			c3.695,12.445,14.96,21.05,28.034,21.412c65.862,1.811,132.242,2.718,198.504,2.718c45.005,0,89.962-0.418,134.643-1.256
			c4.142-0.078,7.436-3.498,7.358-7.639C398.372,250.898,394.937,247.598,390.81,247.682z M21.16,223.62
			c-3.396,0-6.16-2.768-6.16-6.17v-43.69c0-3.402,2.764-6.17,6.16-6.17H26c-3.491,18.642-3.491,37.388,0,56.03H21.16z"/>
		<path d="M490.84,152.591h-8.42c-0.114-0.395-0.213-0.79-0.33-1.185c-3.695-12.445-14.96-21.05-28.034-21.412
			c-107.575-2.958-216.664-3.504-324.237-1.622c-4.142,0.073-7.44,3.489-7.368,7.63c0.072,4.097,3.415,7.369,7.497,7.369
			c0.044,0,0.089,0,0.134-0.001c107.35-1.88,216.211-1.334,323.561,1.618c6.571,0.182,12.224,4.477,14.068,10.688
			c7.871,26.495,7.871,53.364,0,79.86c-1.844,6.21-7.497,10.505-14.065,10.688c-11.709,0.32-22.466,0.592-32.886,0.829
			c-4.141,0.094-7.421,3.528-7.327,7.669c0.093,4.083,3.432,7.329,7.495,7.329c0.058,0,0.116,0,0.174-0.002
			c10.443-0.238,21.223-0.51,32.957-0.831c13.072-0.362,24.337-8.967,28.031-21.411c0.117-0.395,0.216-0.791,0.33-1.186h8.42
			c11.668,0,21.16-9.497,21.16-21.17v-43.69C512,162.087,502.508,152.591,490.84,152.591z M497,217.45c0,3.402-2.764,6.17-6.16,6.17
			H486c3.491-18.642,3.491-37.388,0-56.03h4.839c3.396,0,6.16,2.768,6.16,6.17V217.45z"/>
	</g>
</g>
<g>
</g>
<g>
</g>
<g>
</g>
<g>
</g>
<g>
</g>
<g>
</g>
<g>
</g>
<g>
</g>
<g>
</g>
<g>
</g>
<g>
</g>
<g>
</g>
<g>
</g>
<g>
</g>
<g>
</g>
</svg>
