<?xml version="1.0" encoding="iso-8859-1"?>
<!-- Generator: Adobe Illustrator 21.0.0, SVG Export Plug-In . SVG Version: 6.00 Build 0)  -->
<svg version="1.1" id="Capa_1" xmlns="http://www.w3.org/2000/svg" xmlns:xlink="http://www.w3.org/1999/xlink" x="0px" y="0px"
	 viewBox="0 0 512 512" style="enable-background:new 0 0 512 512;" xml:space="preserve">
<g>
	<g>
		<polygon style="fill:#E3DFE2;" points="300.32,473.451 211.665,473.451 240.354,257.353 271.632,257.353 276.712,295.581 		"/>
		<polygon style="fill:#C5BEC7;" points="276.712,295.581 255.993,295.581 242.203,473.451 211.665,473.451 240.354,257.353 
			271.632,257.353 		"/>
		<g>
			<path style="fill:#E3DFE2;" d="M281.171,157.468c-4.35,17.789-9.479,37.818-15.419,60.387h-19.519
				c-5.94-22.559-11.069-42.588-15.419-60.387c-22.819-93.365-24.129-125.153-9.01-138.523c6.74-5.97,20.109-11.889,34.188-11.419
				c14.079-0.47,27.449,5.45,34.188,11.419C305.29,32.315,303.98,64.103,281.171,157.468z"/>
			<path style="fill:#E3DFE2;" d="M443.023,331.469c-6.64,12.419-18.449,21.039-26.989,23.899
				c-19.049,6.37-45.768-10.479-114.534-76.196c-13.469-12.859-28.549-27.608-45.508-44.418l9.759-16.899
				c22.849,6.23,43.018,11.869,60.787,17.069c91.635,26.779,119.674,41.508,123.683,61.227
				C452.022,304.98,450.462,319.51,443.023,331.469z"/>
			<path style="fill:#E3DFE2;" d="M255.993,234.754c-16.959,16.809-32.038,31.558-45.508,44.418
				C141.719,344.888,115,361.737,95.951,355.368c-8.55-2.86-20.359-11.479-26.989-23.899c-7.44-11.959-9-26.489-7.2-35.318
				c4.01-19.719,32.038-34.448,123.683-61.227c17.769-5.2,37.938-10.839,60.787-17.069L255.993,234.754z"/>
		</g>
		<path style="fill:#C5BEC7;" d="M326.539,234.924c-2.66,17.729-11.849,33.318-25.039,44.248
			c-13.469-12.859-28.549-27.608-45.508-44.418c-16.959,16.809-32.038,31.558-45.508,44.418
			c-13.189-10.929-22.379-26.518-25.039-44.248c17.769-5.2,37.938-10.839,60.787-17.069c-5.94-22.559-11.069-42.588-15.419-60.387
			c7.83-2.96,16.319-4.58,25.179-4.58c8.86,0,17.349,1.62,25.179,4.58c-4.35,17.789-9.479,37.818-15.419,60.387
			C288.601,224.085,308.77,229.724,326.539,234.924z"/>
		<circle style="fill:#665E66;" cx="255.992" cy="224.233" r="43.979"/>
		<circle style="fill:#C5BEC7;" cx="255.992" cy="224.233" r="17.162"/>
		<path style="fill:#49CB8B;" d="M376.529,473.45H135.456c-8.574,0-15.525,6.951-15.525,15.525v0
			c0,8.574,6.951,15.525,15.525,15.525h241.073c8.574,0,15.525-6.951,15.525-15.525v0
			C392.054,480.401,385.103,473.45,376.529,473.45z"/>
		<polygon style="fill:#FCDD2E;" points="450.905,125.753 403.032,125.753 421.755,57.58 336.161,125.753 384.034,125.753 
			365.311,193.927 		"/>
	</g>
	<g>
		<path d="M255.992,248.894c13.598,0,24.662-11.063,24.662-24.662s-11.063-24.662-24.662-24.662
			c-13.599,0-24.662,11.063-24.662,24.662S242.394,248.894,255.992,248.894z M255.992,214.571c5.328,0,9.662,4.334,9.662,9.662
			s-4.334,9.662-9.662,9.662c-5.328,0-9.662-4.334-9.662-9.662S250.665,214.571,255.992,214.571z"/>
		<path d="M336.161,133.253h38.035l-16.117,58.687c-0.859,3.131,0.393,6.459,3.103,8.247c1.257,0.829,2.695,1.239,4.129,1.239
			c1.658,0,3.312-0.549,4.674-1.633l85.594-68.173c2.493-1.986,3.459-5.332,2.407-8.342c-1.053-3.009-3.892-5.025-7.08-5.025H412.87
			l16.118-58.687c0.859-3.131-0.393-6.459-3.103-8.247c-2.709-1.788-6.262-1.629-8.803,0.394l-85.595,68.173
			c-2.493,1.986-3.459,5.332-2.407,8.342C330.133,131.238,332.972,133.253,336.161,133.253z M408.429,77.782l-12.63,45.985
			c-0.619,2.256-0.15,4.673,1.268,6.534c1.419,1.86,3.625,2.953,5.965,2.953h26.418l-50.813,40.472l12.629-45.985
			c0.619-2.256,0.15-4.673-1.269-6.534c-1.418-1.86-3.624-2.953-5.964-2.953h-26.418L408.429,77.782z"/>
		<path d="M307.406,221.62c-0.871-17.33-10.356-32.419-24.245-41.086c28.825-113.87,31.308-150.115,11.993-167.203
			c-7.876-6.975-23.023-13.776-39.161-13.309c-16.135-0.455-31.285,6.333-39.157,13.305c-14.479,12.806-16.136,36.83-6.114,88.638
			c0.786,4.066,4.721,6.729,8.788,5.939c4.067-0.787,6.726-4.721,5.939-8.788c-8.609-44.507-8.225-66.106,1.329-74.557
			c5.505-4.875,16.929-9.929,28.965-9.538c0.167,0.006,0.334,0.006,0.501,0c12.039-0.396,23.459,4.663,28.968,9.541
			c13.224,11.7,9.24,49.845-15.995,149.92c-4.222-1.124-8.653-1.73-13.224-1.73c-4.572,0-9.003,0.607-13.225,1.73
			c-4.509-17.87-8.181-33.092-11.178-46.339c-0.914-4.041-4.931-6.576-8.97-5.66c-4.04,0.914-6.574,4.93-5.66,8.97
			c3.156,13.951,7.05,30.059,11.865,49.079c-13.889,8.666-23.375,23.757-24.246,41.086
			c-112.53,31.842-145.021,47.772-150.165,73.032c-2.102,10.305-0.419,26.814,8.049,40.567
			c7.667,14.205,21.126,23.922,31.108,27.261c3.274,1.095,6.644,1.682,10.233,1.682c23.139-0.002,55.242-24.426,127.346-94.498
			L205.095,465.95h-69.64c-12.696,0-23.025,10.329-23.025,23.025S122.76,512,135.456,512h241.073
			c12.696,0,23.025-10.329,23.025-23.025s-10.329-23.025-23.025-23.025h-69.638l-26.056-196.286
			c37.614,36.549,62.98,59.296,81.838,73.409c1.349,1.009,2.925,1.496,4.488,1.496c2.283,0,4.537-1.039,6.011-3.007
			c2.481-3.316,1.806-8.017-1.511-10.498c-18.097-13.544-42.611-35.512-78.96-70.787c6.309-6.424,10.951-14.487,13.216-23.488
			c98.629,28.018,133.438,43.583,136.957,60.859c1.469,7.205,0.148,19.622-6.219,29.859c-0.087,0.139-0.169,0.281-0.246,0.425
			c-5.683,10.63-15.779,17.986-22.753,20.322c-3.099,1.036-8.335,1.927-17.988-2.29c-3.797-1.657-8.217,0.076-9.875,3.871
			c-1.658,3.796,0.075,8.217,3.871,9.875c6.714,2.933,12.886,4.393,18.648,4.393c3.511,0,6.87-0.542,10.104-1.624
			c9.973-3.34,23.429-13.056,31.104-27.258c8.468-13.752,10.15-30.263,8.051-40.567C452.427,269.394,419.936,253.465,307.406,221.62
			z M255.992,187.753c20.115,0,36.48,16.365,36.48,36.479s-16.365,36.479-36.48,36.479s-36.479-16.365-36.479-36.479
			S235.877,187.753,255.992,187.753z M103.594,349.074c-1.902,0-3.65-0.28-5.263-0.819c-6.981-2.335-17.078-9.689-22.751-20.317
			c-0.078-0.146-0.161-0.29-0.248-0.43c-6.368-10.237-7.688-22.654-6.219-29.86c3.518-17.277,38.328-32.841,136.956-60.857
			c2.265,9.001,6.907,17.064,13.216,23.488C152.942,324.652,121.386,349.077,103.594,349.074z M384.554,488.975
			c0,4.425-3.601,8.025-8.025,8.025H135.456c-4.425,0-8.025-3.6-8.025-8.025s3.6-8.025,8.025-8.025h241.073
			C380.954,480.95,384.554,484.55,384.554,488.975z M220.227,465.95l25.392-191.288c3.352,0.688,6.821,1.05,10.373,1.05
			c3.553,0,7.022-0.362,10.374-1.051l25.392,191.288H220.227z"/>
	</g>
</g>
<g>
</g>
<g>
</g>
<g>
</g>
<g>
</g>
<g>
</g>
<g>
</g>
<g>
</g>
<g>
</g>
<g>
</g>
<g>
</g>
<g>
</g>
<g>
</g>
<g>
</g>
<g>
</g>
<g>
</g>
</svg>
