<?xml version="1.0" encoding="iso-8859-1"?>
<!-- Generator: Adobe Illustrator 21.0.0, SVG Export Plug-In . SVG Version: 6.00 Build 0)  -->
<svg version="1.1" id="Capa_1" xmlns="http://www.w3.org/2000/svg" xmlns:xlink="http://www.w3.org/1999/xlink" x="0px" y="0px"
	 viewBox="0 0 512 512" style="enable-background:new 0 0 512 512;" xml:space="preserve">
<g>
	<g>
		<path style="fill:#FD7E42;" d="M162.681,271.072C114.537,319.215-48.55,408.883,27.277,484.71s165.494-87.26,213.638-135.404
			l22.266-100.5L162.681,271.072z"/>
		<path style="fill:#FA6931;" d="M263.186,248.8l-79.81,42.96C135.226,339.9-8.443,448.98,27.277,484.71
			c-75.82-75.83,87.27-165.5,135.41-213.639L263.186,248.8z"/>
		<path style="fill:#E3DFE2;" d="M436.542,353.521c65.061-119.283,69.722-247.664,67.537-307.987
			c-0.741-20.466-17.16-36.885-37.626-37.626c-60.323-2.185-188.704,2.475-307.987,67.537
			c-33.108,18.059-39.286,63.06-12.619,89.727L346.815,366.14C373.482,392.807,418.484,386.629,436.542,353.521z"/>
		<path style="fill:#C5BEC7;" d="M436.975,352.72c-0.14,0.27-0.28,0.53-0.43,0.8c-18.06,33.1-63.06,39.28-89.73,12.62
			L145.846,165.17c-26.67-26.67-20.49-71.67,12.62-89.73c0.26-0.14,0.52-0.28,0.78-0.42c-10.93,20.98-8.17,48.11,10.23,66.51
			L370.445,342.5C388.855,360.91,415.995,363.67,436.975,352.72z"/>
		<path style="fill:#E3DFE2;" d="M240.915,349.305l-78.234-78.234l83.65-83.65c21.604-21.604,56.63-21.604,78.233,0l0,0
			c21.604,21.604,21.604,56.63,0,78.234L240.915,349.305z"/>
		<path style="fill:#C5BEC7;" d="M324.567,187.425c-7-7-35.941-0.925-57.541,20.685l-83.65,83.65l-20.699-20.685l83.65-83.65
			C267.937,165.816,302.967,165.816,324.567,187.425z"/>
	</g>
	<path d="M511.571,45.269c-0.877-24.273-20.574-43.976-44.843-44.854c-65.273-2.358-192.584,3.399-311.846,68.449
		c-17.772,9.695-29.627,26.789-32.523,46.901c-2.922,20.289,3.709,40.231,18.191,54.714l56.059,56.058l-39.228,39.228
		c-0.002,0.002-0.003,0.003-0.005,0.005c-10.186,10.187-25.675,22.285-43.609,36.294c-20.041,15.653-42.754,33.394-62.386,52.086
		c-3,2.856-3.116,7.603-0.26,10.603c1.474,1.548,3.451,2.329,5.433,2.329c1.857,0,3.719-0.686,5.171-2.068
		c19.1-18.185,41.507-35.687,61.276-51.128c15.472-12.085,29.149-22.774,39.559-32.333l67.875,67.876
		c-9.561,10.411-20.251,24.088-32.336,39.559c-34.714,44.44-82.257,105.301-125.083,107.924
		c-14.539,0.891-27.758-4.836-40.428-17.505c-26.021-26.02-23.155-55.68,9.017-93.343c2.69-3.15,2.318-7.884-0.831-10.574
		c-3.15-2.69-7.885-2.317-10.573,0.831C-7.068,419.948-9.834,458.2,21.98,490.013C36.585,504.616,52.764,512,70.128,512
		c1.261,0,2.529-0.039,3.803-0.117c49.571-3.036,97.486-64.375,135.986-113.662c14.011-17.936,26.112-33.427,36.302-43.615
		c0.003-0.003,0.006-0.007,0.009-0.01l39.218-39.218l56.07,56.07c12.238,12.233,28.369,18.86,45.316,18.86
		c3.111,0,6.253-0.224,9.399-0.677c20.111-2.897,37.205-14.748,46.899-32.516c24.527-44.964,42.837-95.425,54.421-149.981
		c0.861-4.052-1.727-8.034-5.778-8.894c-4.051-0.857-8.034,1.726-8.893,5.779c-11.283,53.133-29.087,102.226-52.917,145.913
		c-7.408,13.578-20.483,22.636-35.87,24.853c-15.567,2.24-30.865-2.841-41.971-13.944l-56.069-56.069l33.813-33.813
		c24.493-24.493,24.493-64.345,0-88.839c-11.865-11.865-27.64-18.399-44.419-18.399c-16.78,0-32.555,6.534-44.42,18.399
		l-33.812,33.812l-56.058-56.058c-11.108-11.108-16.194-26.406-13.952-41.97c2.216-15.388,11.277-28.462,24.86-35.871
		c116.118-63.337,240.381-68.929,304.121-66.628c16.45,0.595,29.8,13.95,30.395,30.408c1.07,29.34,0.508,75.547-8.246,129.063
		c-0.669,4.088,2.103,7.944,6.19,8.612c4.088,0.67,7.943-2.103,8.612-6.19C512.091,122.563,512.665,75.287,511.571,45.269z
		 M251.634,192.726c9.031-9.032,21.04-14.006,33.812-14.006c12.773,0,24.782,4.974,33.813,14.006
		c9.032,9.032,14.007,21.04,14.007,33.813s-4.975,24.781-14.007,33.813l-78.344,78.345l-67.626-67.626L251.634,192.726z"/>
</g>
<g>
</g>
<g>
</g>
<g>
</g>
<g>
</g>
<g>
</g>
<g>
</g>
<g>
</g>
<g>
</g>
<g>
</g>
<g>
</g>
<g>
</g>
<g>
</g>
<g>
</g>
<g>
</g>
<g>
</g>
</svg>
