<?xml version="1.0" encoding="iso-8859-1"?>
<!-- Generator: Adobe Illustrator 21.0.0, SVG Export Plug-In . SVG Version: 6.00 Build 0)  -->
<svg version="1.1" id="Capa_1" xmlns="http://www.w3.org/2000/svg" xmlns:xlink="http://www.w3.org/1999/xlink" x="0px" y="0px"
	 viewBox="0 0 511.981 511.981" style="enable-background:new 0 0 511.981 511.981;" xml:space="preserve">
<g>
	<g>
		<path style="fill:#FD7E42;" d="M141.247,303.313C99.759,344.802-40.785,422.075,24.56,487.42s142.618-75.199,184.107-116.687
			l19.189-86.608L141.247,303.313z"/>
		<path style="fill:#FA6931;" d="M227.86,284.121l-68.778,37.022C117.588,362.628-6.222,456.629,24.56,487.42
			c-65.339-65.348,75.207-142.623,116.692-184.108L227.86,284.121z"/>
		<path style="fill:#E3DFE2;" d="M495.408,156.156L495.408,156.156c-12.122-12.122-31.776-12.122-43.898,0l-84.864,84.864
			c-7.15,7.15-18.743,7.15-25.894,0l0,0c-7.15-7.15-7.15-18.743,0-25.893l84.864-84.864c12.122-12.122,12.122-31.776,0-43.898l0,0
			c-12.122-12.122-31.776-12.122-43.898,0l-84.864,84.864c-7.15,7.15-18.743,7.15-25.894,0l0,0c-7.15-7.15-7.15-18.743,0-25.893
			l84.864-84.864c12.122-12.122,12.122-31.776,0-43.898l0,0c-12.122-12.122-31.776-12.122-43.898,0L170.334,158.166
			c-26.918,26.918-26.918,70.561,0,97.48l0,0c5.131,5.131,5.131,13.45,0,18.581l-29.087,29.087l67.419,67.419l29.087-29.087
			c5.131-5.131,13.45-5.131,18.581,0l0,0c26.918,26.918,70.561,26.918,97.48,0l141.593-141.593
			C507.529,187.931,507.529,168.278,495.408,156.156z"/>
		<g>
			<path style="fill:#C5BEC7;" d="M353.699,253.967c7.15,7.15,18.743,7.15,25.893,0l84.864-84.864
				c9.869-9.869,24.728-11.701,36.453-5.502c-1.416-2.677-3.248-5.192-5.501-7.445l0,0c-12.122-12.122-31.776-12.122-43.898,0
				l-84.864,84.864c-7.15,7.15-18.743,7.15-25.893,0L353.699,253.967z"/>
			<path style="fill:#C5BEC7;" d="M283.907,184.175c7.15,7.15,18.743,7.15,25.893,0l84.864-84.864
				c9.869-9.869,24.728-11.701,36.453-5.502c-1.416-2.677-3.248-5.192-5.502-7.445c-12.122-12.122-31.776-12.122-43.898,0
				l-84.864,84.864c-7.15,7.15-18.743,7.15-25.893,0L283.907,184.175z"/>
			<path style="fill:#C5BEC7;" d="M171.256,255.072c0.612-0.381,0.808-1.172,0.459-1.802
				c-14.544-26.216-10.688-59.903,11.566-82.157L324.874,29.52c9.869-9.869,24.728-11.701,36.453-5.502
				c-1.416-2.677-3.248-5.192-5.502-7.445l0,0c-12.122-12.122-31.776-12.122-43.898,0L170.334,158.166
				c-26.661,26.661-26.916,69.73-0.763,96.705C170.012,255.326,170.718,255.407,171.256,255.072L171.256,255.072z"/>
		</g>
	</g>
	<path d="M500.713,150.848c-15.029-15.027-39.48-15.027-54.508,0l-84.859,84.87c-2.041,2.042-4.757,3.166-7.646,3.166
		c-2.889,0-5.604-1.124-7.646-3.166c-2.04-2.04-3.163-4.755-3.163-7.646c0-2.879,1.126-5.594,3.164-7.637l84.869-84.87
		c7.278-7.278,11.286-16.957,11.286-27.253s-4.008-19.975-11.286-27.253c-7.278-7.278-16.957-11.287-27.254-11.287
		c-10.296,0-19.975,4.008-27.253,11.287l-84.87,84.87c-2.041,2.042-4.755,3.166-7.641,3.166c-2.887,0-5.601-1.124-7.642-3.166
		c-2.041-2.04-3.164-4.756-3.164-7.647c0-2.891,1.123-5.606,3.164-7.646l37.399-37.4c2.929-2.929,2.929-7.678,0-10.606
		c-2.93-2.929-7.678-2.929-10.607,0l-37.399,37.4c-4.873,4.873-7.557,11.355-7.557,18.253s2.684,13.38,7.558,18.254
		c4.874,4.874,11.355,7.559,18.248,7.559s13.373-2.685,18.248-7.559l84.87-84.87c4.444-4.445,10.356-6.893,16.646-6.893
		c6.29,0,12.202,2.448,16.647,6.893c4.444,4.445,6.893,10.357,6.893,16.646s-2.448,12.202-6.894,16.647l-84.876,84.876
		c-4.868,4.881-7.55,11.358-7.55,18.236c0,6.898,2.684,13.38,7.557,18.253c4.875,4.875,11.357,7.559,18.253,7.559
		c6.896,0,13.379-2.685,18.254-7.559l84.859-84.87c9.179-9.178,24.114-9.18,33.291-0.002c9.177,9.184,9.178,24.12,0.002,33.295
		L348.504,336.349c-11.587,11.596-27.012,17.981-43.434,17.981c-16.414,0-31.84-6.387-43.432-17.979
		c-3.898-3.905-9.083-6.056-14.599-6.056s-10.7,2.151-14.594,6.051l-23.776,23.777l-56.813-56.813l23.766-23.766
		c3.906-3.891,6.058-9.078,6.058-14.604c0-5.518-2.147-10.705-6.048-14.604c-11.603-11.598-17.993-27.023-17.993-43.432
		c0-16.41,6.391-31.837,17.993-43.439l141.601-141.59c9.178-9.176,24.108-9.175,33.282,0c0.067,0.066,0.135,0.132,0.203,0.195
		c4.323,4.422,6.7,10.253,6.7,16.451c0,6.29-2.448,12.201-6.894,16.646l-26.439,26.44c-2.929,2.929-2.929,7.678,0,10.606
		c2.93,2.928,7.678,2.93,10.607,0l26.438-26.44c7.279-7.278,11.287-16.957,11.287-27.253s-4.008-19.975-11.287-27.253
		c-0.083-0.084-0.169-0.166-0.256-0.245c-15.044-14.779-39.306-14.699-54.249,0.244l-141.601,141.59
		c-14.436,14.436-22.387,33.63-22.387,54.046c0,20.417,7.951,39.609,22.388,54.04c1.066,1.066,1.653,2.485,1.653,3.996
		c0,1.509-0.584,2.921-1.654,3.987l-29.079,29.08c-8.733,8.734-22.697,19.642-37.481,31.189
		C55.82,362.509,2.746,403.968,0.105,447.158c-1.011,16.517,5.434,31.848,19.153,45.565c12.779,12.783,26.979,19.259,42.222,19.259
		c0.303,0,0.608-0.002,0.912-0.008c23.4-0.395,48.087-15.333,77.688-47.013c2.828-3.026,2.668-7.772-0.359-10.601
		c-3.026-2.829-7.772-2.667-10.6,0.359c-26.273,28.117-48.184,41.939-66.982,42.257c-11.518,0.178-22.083-4.666-32.274-14.86
		c-10.697-10.696-15.535-21.832-14.788-34.042c2.229-36.445,54.476-77.256,92.624-107.056
		c12.983-10.142,24.508-19.147,33.413-27.239l57.09,57.091c-8.092,8.906-17.098,20.429-27.242,33.411
		c-7.203,9.219-14.651,18.751-22.485,28.245c-2.636,3.195-2.184,7.922,1.012,10.558c1.397,1.154,3.088,1.715,4.77,1.715
		c2.161,0,4.306-0.93,5.789-2.727c7.96-9.647,15.471-19.26,22.734-28.557c11.547-14.777,22.452-28.734,31.185-37.476
		c0.003-0.002,0.006-0.005,0.008-0.007l29.085-29.085c1.063-1.066,2.478-1.653,3.981-1.653s2.918,0.587,3.986,1.658
		c14.431,14.43,33.623,22.377,54.044,22.377c20.431,0,39.624-7.948,54.043-22.377l141.6-141.599
		C515.734,190.333,515.735,165.882,500.713,150.848z"/>
</g>
<g>
</g>
<g>
</g>
<g>
</g>
<g>
</g>
<g>
</g>
<g>
</g>
<g>
</g>
<g>
</g>
<g>
</g>
<g>
</g>
<g>
</g>
<g>
</g>
<g>
</g>
<g>
</g>
<g>
</g>
</svg>
