<?xml version="1.0" encoding="iso-8859-1"?>
<!-- Generator: Adobe Illustrator 21.0.0, SVG Export Plug-In . SVG Version: 6.00 Build 0)  -->
<svg version="1.1" id="Capa_1" xmlns="http://www.w3.org/2000/svg" xmlns:xlink="http://www.w3.org/1999/xlink" x="0px" y="0px"
	 viewBox="0 0 511.97 511.97" style="enable-background:new 0 0 511.97 511.97;" xml:space="preserve">
<g>
	<g>
		<g>
			<path style="fill:#A5E4EF;" d="M452.645,472.551H176.81c0,0-2.554-7.927-5.964-21.151c-8.181-31.764-21.274-94.107-15.71-150.735
				c0,0,45.313-74.918,159.592-133.514c6.883,3.531,13.521,7.122,19.913,10.748c21.148,12.013,39.602,24.452,55.564,36.593
				c8.715,6.635,16.692,13.176,23.948,19.521c9.514,8.313,17.801,16.274,24.923,23.613c24.418,25.142,35.244,43.039,35.244,43.039
				C482.199,380.879,452.645,472.551,452.645,472.551z"/>
			<path style="fill:#D5694C;" d="M473.131,472.552H156.325c-8.814,0-15.959,7.145-15.959,15.959v0
				c0,8.814,7.145,15.959,15.959,15.959h316.806c8.814,0,15.959-7.145,15.959-15.959v0
				C489.089,479.697,481.944,472.552,473.131,472.552z"/>
			<path style="fill:#A64C31;" d="M192.583,499.8c2.891,2.884,6.883,4.673,11.29,4.673h-47.551c-4.406,0-8.392-1.789-11.283-4.673
				c-2.891-2.891-4.673-6.883-4.673-11.29c0-8.813,7.143-15.956,15.956-15.956h47.551c-8.813,0-15.963,7.143-15.963,15.956
				C187.91,492.917,189.699,496.91,192.583,499.8z"/>
			<g>
				<g>
					<circle style="fill:#FA4954;" cx="315.814" cy="366.18" r="74.857"/>
					<path style="fill:#E21F2D;" d="M315.826,441.034c-41.342,0-74.87-33.511-74.87-74.854s33.527-74.87,74.87-74.87
						c-17.783,0-32.2,33.527-32.2,74.87S298.043,441.034,315.826,441.034z"/>
					<ellipse style="fill:#FC8086;" cx="360.162" cy="371.597" rx="13.796" ry="24.324"/>
				</g>
				<polygon style="fill:#49CB8B;" points="339.924,312.475 358.205,362.816 306.605,326.561 265.86,358.904 271.047,302.04 
					248.638,286.294 302.939,276.806 342.348,242.696 339.434,273.702 396.399,295.287 				"/>
				<polygon style="fill:#13B766;" points="312.968,295.721 306.605,326.561 265.86,358.904 271.047,302.04 248.638,286.294 
					302.939,276.806 				"/>
			</g>
		</g>
		<g>
			<g>
				<path style="fill:#665E66;" d="M240.877,253.36c-0.417,7.343-0.89,14.681-1.405,22.024
					c-0.834,11.822-9.932,21.392-21.699,22.791c-56.331,6.699-112.655,6.699-168.979,0c-11.767-1.399-20.871-10.969-21.705-22.791
					c-0.515-7.343-0.982-14.681-1.405-22.024c-3.755-65.349-3.755-130.698,0-196.053c0.423-7.343,0.89-14.681,1.405-22.024
					c0.834-11.816,9.939-21.386,21.705-22.785c56.324-6.699,112.649-6.699,168.979,0c11.767,1.399,20.865,10.969,21.699,22.785
					c0.515,7.343,0.988,14.681,1.405,22.024C244.638,122.662,244.638,188.011,240.877,253.36z"/>
				<path style="fill:#454045;" d="M50.082,298.323c-0.429-0.043-0.859-0.098-1.288-0.147
					c-11.767-1.399-20.871-10.969-21.705-22.791c-0.515-7.343-0.982-14.681-1.405-22.024c-3.755-65.349-3.755-130.698,0-196.053
					c0.423-7.343,0.89-14.681,1.405-22.024c0.834-11.816,9.939-21.386,21.705-22.785c0.429-0.049,0.859-0.104,1.288-0.147
					c-6.018,4.313-10.061,11.166-10.613,18.963c-0.528,7.589-1.012,15.165-1.448,22.754c-3.877,67.514-3.877,135.023,0,202.531
					c0.436,7.589,0.92,15.165,1.448,22.754C40.021,287.157,44.064,294.01,50.082,298.323z"/>
				<path style="fill:#DAF3F8;" d="M240.877,253.36c-3.883,5.16-11.049,8.853-19.552,9.583c-58.692,5.043-117.391,5.043-176.09,0
					c-8.503-0.73-15.669-4.423-19.552-9.583c-3.755-65.349-3.755-130.698,0-196.053c3.889-5.159,11.055-8.846,19.552-9.576
					c58.699-5.049,117.397-5.049,176.09,0c8.497,0.73,15.662,4.417,19.552,9.576C244.638,122.662,244.638,188.011,240.877,253.36z"
					/>
			</g>
		</g>
	</g>
	<g>
		<path d="M473.13,465.052h-10.413c7.397-26.006,25.591-98.74,19.066-165.121c-0.109-1.114-0.467-2.19-1.046-3.148
			c-0.481-0.795-12.081-19.785-38.011-46.161c-23.757-24.166-64.653-59.42-124.574-90.14c-2.147-1.101-4.694-1.102-6.841-0.001
			c-21.289,10.906-41.611,23.141-60.637,36.436c1.126-46.703,0.364-93.604-2.308-140.041c-0.419-7.329-0.896-14.772-1.417-22.117
			C245.87,19.363,233.97,6.868,218.654,5.046c-56.65-6.728-114.098-6.728-170.751,0C32.588,6.869,20.689,19.365,19.608,34.753
			c-0.468,6.605-0.931,13.838-1.417,22.121c-3.749,65.338-3.749,131.591,0,196.929c0.485,8.271,0.948,15.503,1.416,22.106
			c1.081,15.393,12.98,27.888,28.297,29.712c6.779,0.805,13.729,1.532,20.656,2.161c4.118,0.375,7.773-2.666,8.148-6.791
			s-2.666-7.773-6.791-8.148c-6.791-0.617-13.602-1.33-20.242-2.118c-8.175-0.974-14.527-7.647-15.105-15.873
			c-0.154-2.167-0.307-4.411-0.46-6.73c3.25,1.182,6.774,1.966,10.482,2.285c29.427,2.532,59.05,3.797,88.686,3.797
			c29.628,0,59.267-1.266,88.689-3.797c3.705-0.318,7.226-1.102,10.474-2.282c-0.15,2.246-0.296,4.496-0.454,6.732
			c-0.578,8.222-6.93,14.896-15.104,15.868c-38.962,4.631-78.449,6.027-117.363,4.146c-4.152-0.202-7.653,2.993-7.853,7.129
			c-0.2,4.137,2.992,7.653,7.129,7.853c11.428,0.552,22.903,0.828,34.401,0.828c4.546,0,9.096-0.059,13.647-0.145
			c-3.791,63.367,12.888,129.892,19.891,154.515h-10.411c-12.936,0-23.459,10.523-23.459,23.458
			c0,12.936,10.523,23.459,23.459,23.459H473.13c12.936,0,23.459-10.523,23.459-23.459
			C496.589,475.576,486.066,465.052,473.13,465.052z M49.673,19.941c55.478-6.589,111.735-6.588,167.21,0
			c8.175,0.972,14.527,7.646,15.104,15.873c0.158,2.233,0.304,4.482,0.454,6.726c-3.248-1.18-6.769-1.963-10.473-2.281
			c-58.846-5.063-118.523-5.063-177.375,0c-3.708,0.319-7.232,1.103-10.483,2.285c0.154-2.321,0.307-4.566,0.46-6.734
			C35.149,27.588,41.501,20.914,49.673,19.941z M220.683,255.464c-57.999,4.988-116.812,4.989-174.805,0
			c-5.189-0.446-9.908-2.362-12.85-5.127c-3.52-63.054-3.52-126.95,0-190.005c2.942-2.765,7.661-4.682,12.851-5.128
			c57.999-4.988,116.812-4.989,174.805,0c5.187,0.446,9.906,2.361,12.848,5.126c3.53,63.06,3.53,126.954,0,190.007
			C230.59,253.102,225.871,255.018,220.683,255.464z M161.903,310.095c18.958-0.753,37.915-2.235,56.752-4.474
			c10.086-1.2,18.69-7.031,23.699-15.269c0.514,0.796,1.166,1.511,1.972,2.077l17.033,11.966
			c-17.801,15.635-27.899,37.826-27.899,61.788c0,45.414,36.942,82.36,82.35,82.36c17.008,0,33.335-5.145,47.216-14.879
			c3.391-2.378,4.213-7.055,1.834-10.447c-2.378-3.392-7.056-4.213-10.447-1.834c-11.345,7.956-24.694,12.161-38.604,12.161
			c-37.137,0-67.35-30.217-67.35-67.36c0-14.53,4.54-28.264,12.82-39.609l-2.887,31.646c-0.273,2.989,1.263,5.853,3.903,7.28
			c2.641,1.427,5.877,1.143,8.228-0.724l36.355-28.857l47.016,33.03c1.296,0.911,2.804,1.363,4.311,1.363
			c1.609,0,3.217-0.517,4.56-1.545c2.6-1.99,3.608-5.438,2.49-8.515l-15.582-42.904l9.348-2.845
			c15.392,12.844,24.148,31.474,24.148,51.679c0,12.743-3.573,25.143-10.333,35.858c-2.21,3.503-1.162,8.135,2.341,10.345
			c1.243,0.784,2.627,1.158,3.995,1.158c2.489,0,4.924-1.238,6.351-3.499c8.274-13.115,12.647-28.282,12.647-43.862
			c0-21.495-8.105-41.529-22.604-56.714l23.017-7.005c3.07-0.935,5.205-3.718,5.312-6.925c0.107-3.207-1.837-6.126-4.838-7.264
			l-51.621-19.563l2.381-25.314c0.287-3.05-1.31-5.968-4.033-7.37c-2.724-1.403-6.025-1.008-8.342,0.997l-30.857,26.705
			c-10.12-13.991-22.265-21.514-23.134-22.041c-3.538-2.143-8.131-1.01-10.28,2.52c-2.151,3.531-1.03,8.142,2.496,10.302
			c0.165,0.101,9.352,5.852,17.459,16.395l-45.779,7.999c-0.269,0.047-0.527,0.124-0.785,0.199c0.18-1.048,0.314-2.111,0.39-3.189
			c0.521-7.352,0.998-14.795,1.417-22.119c0.728-12.648,1.311-25.332,1.756-38.036c20.039-14.725,41.728-28.224,64.606-40.159
			c100.028,52.22,145.579,117.37,152.295,127.58c6.054,66.545-14.059,141.708-19.946,161.873H182.372
			C176.685,445.591,157.739,374.897,161.903,310.095z M305.332,304.719c0,4.142,3.358,7.5,7.5,7.5s7.5-3.358,7.5-7.5
			c0-10.551-2.444-19.825-6.059-27.804l18.861-16.323l-1.167,12.406c-0.316,3.361,1.652,6.52,4.809,7.716l36.414,13.8
			l-35.448,10.789c-1.969,0.6-3.605,1.981-4.525,3.822c-0.92,1.841-1.043,3.979-0.341,5.913l10.149,27.945l-32.108-22.557
			c-1.297-0.911-2.805-1.363-4.311-1.363c-1.652,0-3.301,0.544-4.663,1.625l-27.021,21.447l3.596-39.416
			c0.244-2.674-0.96-5.275-3.157-6.818l-7.596-5.336l33.466-5.847C303.706,290.615,305.332,297.296,305.332,304.719z M473.13,496.97
			H156.325c-4.664,0-8.459-3.794-8.459-8.459c0-4.664,3.795-8.458,8.459-8.458H473.13c4.664,0,8.459,3.794,8.459,8.458
			C481.589,493.175,477.795,496.97,473.13,496.97z"/>
		<path d="M194.675,78.889c-3.71-1.845-8.211-0.329-10.054,3.38l-58.138,117.03l-30.382-35.666
			c-2.688-3.154-7.42-3.531-10.573-0.846c-3.153,2.686-3.532,7.42-0.846,10.573l37.752,44.318c1.435,1.684,3.527,2.637,5.708,2.637
			c0.304,0,0.61-0.019,0.916-0.056c2.501-0.307,4.681-1.85,5.802-4.107l63.194-127.208
			C199.898,85.233,198.385,80.732,194.675,78.889z"/>
	</g>
</g>
<g>
</g>
<g>
</g>
<g>
</g>
<g>
</g>
<g>
</g>
<g>
</g>
<g>
</g>
<g>
</g>
<g>
</g>
<g>
</g>
<g>
</g>
<g>
</g>
<g>
</g>
<g>
</g>
<g>
</g>
</svg>
