<?xml version="1.0" encoding="iso-8859-1"?>
<!-- Generator: Adobe Illustrator 21.0.0, SVG Export Plug-In . SVG Version: 6.00 Build 0)  -->
<svg version="1.1" id="Capa_1" xmlns="http://www.w3.org/2000/svg" xmlns:xlink="http://www.w3.org/1999/xlink" x="0px" y="0px"
	 viewBox="0 0 511.97 511.97" style="enable-background:new 0 0 511.97 511.97;" xml:space="preserve">
<g>
	<g>
		<g>
			<path style="fill:#A5E4EF;" d="M452.651,472.552H176.816c0,0-2.554-7.927-5.964-21.151
				c-8.181-31.764-21.274-94.107-15.71-150.735c0,0,45.313-74.918,159.592-133.514c6.883,3.531,13.521,7.122,19.913,10.748
				c21.148,12.013,39.602,24.452,55.564,36.593c8.715,6.635,16.692,13.176,23.948,19.521c9.514,8.313,17.801,16.274,24.923,23.613
				c24.418,25.142,35.244,43.039,35.244,43.039C482.205,380.88,452.651,472.552,452.651,472.552z"/>
			<path style="fill:#D5694C;" d="M473.136,472.553H156.33c-8.814,0-15.959,7.145-15.959,15.959v0
				c0,8.814,7.145,15.959,15.959,15.959h316.806c8.814,0,15.959-7.145,15.959-15.959v0
				C489.095,479.698,481.95,472.553,473.136,472.553z"/>
			<path style="fill:#A64C31;" d="M192.589,499.801c2.891,2.884,6.883,4.673,11.29,4.673h-47.551c-4.406,0-8.392-1.789-11.283-4.673
				c-2.891-2.891-4.673-6.883-4.673-11.29c0-8.813,7.143-15.956,15.956-15.956h47.551c-8.813,0-15.963,7.143-15.963,15.956
				C187.916,492.918,189.705,496.91,192.589,499.801z"/>
			<g>
				<path style="fill:#49CB8B;" d="M347.418,301.941c-10.417,13.998,1.79,37.926,21.16,57.296
					c19.793,19.793,18.23,60.551-13.022,62.179s-39.391-28.322-39.391-28.322c-2.279,13.998-41.019,31.903-51.436,1.953
					c-12.317-35.412,45.576-78.131,45.576-78.131C326.855,303.949,347.418,301.941,347.418,301.941z"/>
				<path style="fill:#13B766;" d="M316.171,393.099c-2.278,13.999-41.019,31.906-51.441,1.949
					c-12.311-35.413,45.576-78.131,45.576-78.131c16.548-12.96,37.112-14.969,37.112-14.969
					C306.398,337.431,316.171,393.099,316.171,393.099z"/>
			</g>
		</g>
		<g>
			<g>
				<path style="fill:#665E66;" d="M240.883,253.361c-0.417,7.343-0.89,14.681-1.405,22.024
					c-0.834,11.822-9.932,21.392-21.699,22.791c-56.331,6.699-112.655,6.699-168.979,0c-11.767-1.399-20.871-10.969-21.705-22.791
					c-0.515-7.343-0.982-14.681-1.405-22.024c-3.755-65.349-3.755-130.698,0-196.053c0.423-7.343,0.89-14.681,1.405-22.024
					c0.834-11.816,9.939-21.386,21.705-22.785c56.324-6.699,112.649-6.699,168.979,0c11.767,1.399,20.865,10.969,21.699,22.785
					c0.515,7.343,0.988,14.681,1.405,22.024C244.643,122.663,244.643,188.012,240.883,253.361z"/>
				<path style="fill:#454045;" d="M50.088,298.323c-0.429-0.043-0.859-0.098-1.288-0.147
					c-11.767-1.399-20.871-10.969-21.705-22.791c-0.515-7.343-0.982-14.681-1.405-22.024c-3.755-65.349-3.755-130.698,0-196.053
					c0.423-7.343,0.89-14.681,1.405-22.024c0.834-11.816,9.939-21.386,21.705-22.785c0.429-0.049,0.859-0.104,1.288-0.147
					c-6.018,4.313-10.061,11.166-10.613,18.963c-0.528,7.589-1.012,15.165-1.448,22.754c-3.877,67.514-3.877,135.023,0,202.531
					c0.436,7.589,0.92,15.165,1.448,22.754C40.026,287.158,44.069,294.01,50.088,298.323z"/>
				<path style="fill:#DAF3F8;" d="M240.883,253.361c-3.883,5.16-11.049,8.853-19.552,9.583c-58.692,5.043-117.391,5.043-176.09,0
					c-8.503-0.73-15.669-4.423-19.552-9.583c-3.755-65.349-3.755-130.698,0-196.053c3.889-5.159,11.055-8.846,19.552-9.576
					c58.699-5.049,117.397-5.049,176.09,0c8.497,0.73,15.662,4.417,19.552,9.576C244.643,122.663,244.643,188.012,240.883,253.361z"
					/>
			</g>
		</g>
		<circle style="fill:#FCDD2E;" cx="133.288" cy="155.337" r="43.004"/>
	</g>
	<g>
		<path d="M473.136,465.053h-10.431c1.87-6.615,4.447-16.295,7.159-28.214c0.919-4.039-1.61-8.058-5.649-8.977
			c-4.04-0.92-8.059,1.609-8.977,5.649c-3.257,14.312-6.356,25.44-8.148,31.542H324.846l-0.763-46.564
			c7.04,6.013,16.603,10.491,29.076,10.491c0.913,0,1.845-0.024,2.788-0.073c14.31-0.745,25.371-8.604,30.346-21.56
			c6.592-17.166,1.373-39.629-12.411-53.413c-18.54-18.54-27.139-38.523-20.447-47.515c1.772-2.381,1.973-5.582,0.514-8.166
			c-1.46-2.584-4.307-4.067-7.259-3.776c-0.927,0.09-22.883,2.375-40.93,16.474c-1.405,1.046-15.621,11.764-28.558,26.874
			c-19.023,22.219-25.603,42.3-19.556,59.687c5.068,14.571,17.097,22.478,32.198,21.177c6.775-0.589,13.488-2.959,19.136-6.366
			l0.864,52.731H182.378c-5.688-19.461-24.634-90.157-20.469-154.96c18.968-0.75,37.908-2.229,56.759-4.471
			c15.301-1.822,27.201-14.315,28.295-29.717c0.527-7.587,1-15.027,1.406-22.109c0.728-12.647,1.311-25.33,1.757-38.033
			c20.025-14.718,41.718-28.22,64.615-40.164c100.024,52.224,145.571,117.372,152.286,127.581
			c2.667,29.276,0.667,63.353-5.953,101.317c-0.711,4.081,2.02,7.965,6.101,8.677c0.436,0.076,0.869,0.113,1.297,0.113
			c3.577,0,6.744-2.568,7.38-6.213c6.987-40.073,8.984-76.12,5.935-107.142c-0.109-1.114-0.467-2.19-1.046-3.148
			c-0.481-0.795-12.08-19.784-38.008-46.16c-23.754-24.165-64.648-59.42-124.567-90.142c-2.147-1.101-4.694-1.102-6.841-0.001
			c-21.304,10.914-41.629,23.151-60.645,36.44c1.126-46.704,0.364-93.605-2.308-140.043c-0.405-7.088-0.878-14.527-1.407-22.124
			c-1.093-15.391-12.993-27.884-28.297-29.706c-56.654-6.729-114.104-6.729-170.75,0C32.608,6.867,20.705,19.36,19.609,34.765
			c-0.53,7.625-1.002,15.064-1.406,22.11c-0.805,14.014-1.437,27.961-1.878,41.454c-0.135,4.14,3.111,7.606,7.25,7.742
			c4.162,0.113,7.606-3.111,7.742-7.25c0.41-12.536,0.993-25.475,1.721-38.493c2.942-2.763,7.659-4.678,12.846-5.124
			c57.999-4.988,116.812-4.989,174.805,0c5.185,0.445,9.902,2.36,12.844,5.123c3.53,63.063,3.53,126.958,0,190.015
			c-2.942,2.763-7.659,4.677-12.845,5.123c-57.999,4.988-116.812,4.989-174.805,0c-5.184-0.445-9.899-2.358-12.841-5.119
			c-2.27-40.498-3.101-81.483-2.452-121.87c0.066-4.142-3.237-7.553-7.378-7.62c-4.146-0.041-7.553,3.237-7.62,7.378
			c-0.669,41.612,0.209,83.858,2.611,125.559c0.403,7.044,0.876,14.483,1.407,22.124c1.094,15.392,12.998,27.885,28.305,29.706
			c28.323,3.37,56.847,5.054,85.372,5.054c4.521,0,9.043-0.058,13.563-0.143c-3.792,63.368,12.887,129.896,19.89,154.52H156.33
			c-12.935,0-23.458,10.523-23.458,23.458c0,12.936,10.523,23.459,23.458,23.459h316.806c12.936,0,23.459-10.523,23.459-23.459
			C496.595,475.576,486.072,465.053,473.136,465.053z M288.545,403.744c-8.391,0.728-13.866-2.921-16.731-11.161
			c-8.595-24.71,28.089-58.645,42.946-69.632c0.058-0.043,0.116-0.087,0.173-0.132c6.982-5.471,14.883-8.777,21.229-10.738
			c-0.343,5.288,0.585,11.692,3.729,19.344c4.375,10.65,12.68,22.411,23.385,33.115c9.476,9.476,13.436,25.917,9.015,37.428
			c-2.877,7.493-8.639,11.516-17.124,11.958c-23.456,1.221-30.787-19.662-31.671-22.499c-0.531-3.524-4.25-32.1,9.557-59.183
			c1.881-3.69,0.415-8.207-3.275-10.088c-3.688-1.881-8.207-0.415-10.088,3.275c-14.996,29.416-12.182,59.702-11.17,67.224
			C306.929,396.318,298.348,402.893,288.545,403.744z M44.599,40.259c-3.707,0.319-7.231,1.103-10.481,2.285
			c0.147-2.226,0.297-4.465,0.454-6.728c0.585-8.226,6.941-14.902,15.114-15.874c55.472-6.589,111.73-6.589,167.208,0
			c8.168,0.973,14.521,7.648,15.105,15.863c0.157,2.264,0.308,4.508,0.455,6.739c-3.25-1.181-6.774-1.966-10.481-2.284
			C163.127,35.196,103.45,35.197,44.599,40.259z M49.687,290.727c-8.173-0.973-14.53-7.649-15.114-15.862
			c-0.157-2.268-0.308-4.511-0.455-6.74c3.25,1.181,6.773,1.966,10.48,2.284c29.427,2.532,59.05,3.797,88.686,3.797
			c29.628,0,59.267-1.266,88.689-3.797c3.707-0.319,7.232-1.103,10.482-2.285c-0.147,2.229-0.297,4.469-0.454,6.728
			c-0.584,8.226-6.938,14.902-15.105,15.874C161.416,297.326,105.159,297.326,49.687,290.727z M473.136,496.97H156.33
			c-4.664,0-8.458-3.794-8.458-8.459c0-4.664,3.794-8.458,8.458-8.458h316.806c4.664,0,8.459,3.794,8.459,8.458
			C481.595,493.176,477.8,496.97,473.136,496.97z"/>
		<path d="M133.288,205.842c27.848,0,50.504-22.656,50.504-50.504s-22.656-50.504-50.504-50.504s-50.504,22.656-50.504,50.504
			S105.44,205.842,133.288,205.842z M133.288,119.833c19.577,0,35.504,15.927,35.504,35.504s-15.927,35.504-35.504,35.504
			s-35.504-15.927-35.504-35.504S113.711,119.833,133.288,119.833z"/>
		<path d="M140.788,88.255V80.21c0-4.142-3.358-7.5-7.5-7.5s-7.5,3.358-7.5,7.5v8.045c0,4.142,3.358,7.5,7.5,7.5
			S140.788,92.397,140.788,88.255z"/>
		<path d="M125.788,222.42v8.045c0,4.142,3.358,7.5,7.5,7.5s7.5-3.358,7.5-7.5v-8.045c0-4.142-3.358-7.5-7.5-7.5
			S125.788,218.277,125.788,222.42z"/>
		<path d="M99.754,104.744c1.272,0,2.562-0.324,3.743-1.006c3.587-2.071,4.816-6.658,2.745-10.245l-4.022-6.967
			c-2.071-3.588-6.658-4.817-10.245-2.745c-3.587,2.071-4.816,6.658-2.745,10.245l4.022,6.967
			C94.641,103.399,97.162,104.744,99.754,104.744z"/>
		<path d="M163.08,206.937c-3.587,2.071-4.817,6.658-2.746,10.245l4.022,6.968c1.389,2.406,3.91,3.752,6.502,3.752
			c1.272,0,2.562-0.324,3.743-1.006c3.587-2.071,4.817-6.658,2.746-10.245l-4.022-6.968
			C171.254,206.095,166.665,204.866,163.08,206.937z"/>
		<path d="M78.943,115.301l-6.968-4.022c-3.587-2.072-8.174-0.842-10.245,2.746c-2.071,3.587-0.842,8.174,2.746,10.245l6.968,4.022
			c1.181,0.682,2.47,1.006,3.743,1.006c2.592,0,5.113-1.346,6.502-3.752C83.76,121.959,82.53,117.372,78.943,115.301z"/>
		<path d="M187.633,195.374l6.967,4.022c1.181,0.682,2.471,1.006,3.743,1.006c2.592,0,5.113-1.346,6.502-3.751
			c2.071-3.587,0.842-8.174-2.745-10.245l-6.967-4.022c-3.587-2.072-8.174-0.842-10.245,2.745
			C182.817,188.716,184.046,193.303,187.633,195.374z"/>
		<path d="M50.661,155.338c0,4.142,3.358,7.5,7.5,7.5h8.045c4.142,0,7.5-3.358,7.5-7.5s-3.358-7.5-7.5-7.5h-8.045
			C54.019,147.838,50.661,151.195,50.661,155.338z"/>
		<path d="M192.871,155.338c0,4.142,3.358,7.5,7.5,7.5h8.045c4.142,0,7.5-3.358,7.5-7.5s-3.358-7.5-7.5-7.5h-8.045
			C196.229,147.838,192.871,151.195,192.871,155.338z"/>
		<path d="M71.444,182.383l-6.968,4.022c-3.587,2.071-4.817,6.658-2.746,10.245c1.389,2.406,3.91,3.752,6.502,3.752
			c1.272,0,2.562-0.324,3.743-1.006l6.968-4.022c3.587-2.071,4.817-6.658,2.746-10.245
			C79.618,181.541,75.029,180.312,71.444,182.383z"/>
		<path d="M194.601,111.278l-6.967,4.022c-3.587,2.071-4.816,6.658-2.745,10.245c1.389,2.406,3.91,3.751,6.502,3.751
			c1.272,0,2.562-0.324,3.743-1.006l6.967-4.022c3.587-2.071,4.816-6.658,2.745-10.245
			C202.775,110.436,198.187,109.207,194.601,111.278z"/>
		<path d="M93.252,209.683l-4.022,6.968c-2.071,3.587-0.842,8.174,2.746,10.245c1.181,0.682,2.47,1.006,3.743,1.006
			c2.592,0,5.113-1.346,6.502-3.752l4.022-6.968c2.071-3.587,0.842-8.174-2.746-10.245
			C99.909,204.865,95.322,206.095,93.252,209.683z"/>
		<path d="M166.823,104.744c2.592,0,5.113-1.346,6.502-3.751l4.022-6.967c2.071-3.587,0.842-8.174-2.745-10.245
			c-3.587-2.073-8.174-0.842-10.245,2.745l-4.022,6.967c-2.071,3.587-0.842,8.174,2.745,10.245
			C164.261,104.42,165.55,104.744,166.823,104.744z"/>
	</g>
</g>
<g>
</g>
<g>
</g>
<g>
</g>
<g>
</g>
<g>
</g>
<g>
</g>
<g>
</g>
<g>
</g>
<g>
</g>
<g>
</g>
<g>
</g>
<g>
</g>
<g>
</g>
<g>
</g>
<g>
</g>
</svg>
