<?xml version="1.0" encoding="iso-8859-1"?>
<!-- Generator: Adobe Illustrator 21.0.0, SVG Export Plug-In . SVG Version: 6.00 Build 0)  -->
<svg version="1.1" id="Capa_1" xmlns="http://www.w3.org/2000/svg" xmlns:xlink="http://www.w3.org/1999/xlink" x="0px" y="0px"
	 viewBox="0 0 511.976 511.976" style="enable-background:new 0 0 511.976 511.976;" xml:space="preserve">
<g>
	<g>
		<g>
			<path style="fill:#A5E4EF;" d="M452.65,472.554H176.815c0,0-2.554-7.927-5.964-21.151c-8.181-31.764-21.274-94.107-15.71-150.735
				c0,0,45.313-74.918,159.592-133.514c6.883,3.531,13.521,7.122,19.913,10.748c21.148,12.013,39.602,24.452,55.564,36.593
				c8.715,6.635,16.692,13.176,23.948,19.521c9.514,8.313,17.801,16.274,24.923,23.613c24.418,25.142,35.244,43.039,35.244,43.039
				C482.204,380.882,452.65,472.554,452.65,472.554z"/>
			<path style="fill:#D5694C;" d="M473.135,472.555H156.329c-8.814,0-15.959,7.145-15.959,15.959v0
				c0,8.814,7.145,15.959,15.959,15.959h316.806c8.814,0,15.959-7.145,15.959-15.959v0
				C489.094,479.7,481.949,472.555,473.135,472.555z"/>
			<path style="fill:#A64C31;" d="M192.588,499.803c2.891,2.884,6.883,4.673,11.29,4.673h-47.551c-4.406,0-8.392-1.789-11.283-4.673
				c-2.891-2.891-4.673-6.883-4.673-11.29c0-8.813,7.143-15.956,15.956-15.956h47.551c-8.813,0-15.963,7.143-15.963,15.956
				C187.915,492.92,189.704,496.912,192.588,499.803z"/>
			<g>
				<circle style="fill:#FA4954;" cx="314.732" cy="328.153" r="63.185"/>
				<path style="fill:#E21F2D;" d="M333.507,388.502c-5.931,1.842-12.23,2.834-18.77,2.834c-34.895,0-63.189-28.287-63.189-63.181
					s28.294-63.189,63.189-63.189c6.54,0,12.839,0.992,18.77,2.834c-25.731,7.998-44.411,32-44.411,60.355
					C289.095,356.509,307.776,380.503,333.507,388.502z"/>
				<circle style="fill:#A71F29;" cx="314.732" cy="302.7" r="37.732"/>
				<path style="fill:#E4989D;" d="M343.718,322.496c0,1.646-0.135,3.255-0.398,4.826v0.008
					c-6.923,8.021-17.162,13.102-28.588,13.102c-11.434,0-21.679-5.089-28.595-13.117c-0.263-1.564-0.398-3.18-0.398-4.819
					c0-16.011,12.982-28.994,28.994-28.994S343.718,306.485,343.718,322.496z"/>
			</g>
		</g>
		<g>
			<g>
				<path style="fill:#665E66;" d="M240.882,253.363c-0.417,7.343-0.89,14.681-1.405,22.024
					c-0.834,11.822-9.932,21.392-21.699,22.791c-56.331,6.699-112.655,6.699-168.979,0c-11.767-1.399-20.871-10.969-21.705-22.791
					c-0.515-7.343-0.982-14.681-1.405-22.024c-3.755-65.349-3.755-130.698,0-196.053c0.423-7.343,0.89-14.681,1.405-22.024
					c0.834-11.816,9.939-21.386,21.705-22.785c56.324-6.699,112.649-6.699,168.979,0c11.767,1.399,20.865,10.969,21.699,22.785
					c0.515,7.343,0.988,14.681,1.405,22.024C244.642,122.665,244.642,188.014,240.882,253.363z"/>
				<path style="fill:#454045;" d="M50.087,298.325c-0.429-0.043-0.859-0.098-1.288-0.147
					c-11.767-1.399-20.871-10.969-21.705-22.791c-0.515-7.343-0.982-14.681-1.405-22.024c-3.755-65.349-3.755-130.698,0-196.053
					c0.423-7.343,0.89-14.681,1.405-22.024C27.927,23.47,37.032,13.9,48.798,12.501c0.429-0.049,0.859-0.104,1.288-0.147
					c-6.018,4.313-10.061,11.166-10.613,18.963c-0.528,7.589-1.012,15.165-1.448,22.754c-3.877,67.514-3.877,135.023,0,202.531
					c0.436,7.589,0.92,15.165,1.448,22.754C40.025,287.16,44.068,294.012,50.087,298.325z"/>
				<path style="fill:#DAF3F8;" d="M240.882,253.363c-3.883,5.16-11.049,8.853-19.552,9.583c-58.692,5.043-117.391,5.043-176.09,0
					c-8.503-0.73-15.669-4.423-19.552-9.583c-3.755-65.349-3.755-130.698,0-196.053c3.889-5.159,11.055-8.846,19.552-9.576
					c58.699-5.049,117.397-5.049,176.09,0c8.497,0.73,15.662,4.417,19.552,9.576C244.642,122.665,244.642,188.014,240.882,253.363z"
					/>
			</g>
		</g>
		<g>
			<path style="fill:#02C6DB;" d="M133.287,83.864c0,0,45.59,57.06,44.451,103.163c-1.312,53.054-87.59,53.054-88.901,0
				C87.697,140.923,133.287,83.864,133.287,83.864z"/>
			<path style="fill:#02B0CC;" d="M133.285,226.817c-21.896,0-43.793-13.256-44.448-39.786
				c-1.136-46.11,44.448-103.168,44.448-103.168s-17.262,57.058-16.828,103.168C116.706,213.561,124.995,226.817,133.285,226.817z"
				/>
			<ellipse style="fill:#93D8E4;" cx="152.626" cy="180.305" rx="9.437" ry="17.911"/>
		</g>
	</g>
	<g>
		<path d="M489.723,471.923c-4.429-4.428-10.321-6.866-16.593-6.866h-10.409c7.397-26.004,25.592-98.74,19.067-165.122
			c-0.109-1.114-0.467-2.19-1.046-3.148c-0.481-0.795-12.081-19.785-38.012-46.161c-23.756-24.166-64.652-59.42-124.573-90.14
			c-2.147-1.101-4.692-1.102-6.842-0.001c-21.287,10.905-41.61,23.141-60.639,36.438c1.126-46.703,0.364-93.603-2.308-140.037
			c-0.403-7.093-0.864-14.33-1.411-22.127c-1.087-15.392-12.987-27.884-28.295-29.705c-56.654-6.737-114.103-6.737-170.75,0
			C32.601,6.874,20.698,19.366,19.612,34.761c-0.505,7.202-0.98,14.644-1.411,22.119c-3.753,65.334-3.753,131.585,0,196.915
			c0.431,7.47,0.905,14.912,1.411,22.121c1.087,15.395,12.989,27.89,28.301,29.71c28.328,3.369,56.845,5.053,85.374,5.053
			c4.521,0,9.043-0.058,13.564-0.143c-3.792,63.369,12.888,129.897,19.891,154.52h-10.41c-12.936,0-23.46,10.524-23.46,23.46
			c0,6.275,2.446,12.167,6.868,16.574c4.425,4.44,10.317,6.886,16.592,6.886h316.8c12.936,0,23.46-10.524,23.46-23.46
			C496.591,482.245,494.152,476.352,489.723,471.923z M33.037,250.343c-3.525-63.056-3.525-126.952,0-190.013
			c2.942-2.763,7.66-4.678,12.846-5.124c57.999-4.988,116.812-4.989,174.805,0c5.186,0.445,9.904,2.36,12.846,5.124
			c3.531,63.061,3.531,126.957,0,190.012c-2.942,2.763-7.66,4.678-12.846,5.124c-57.999,4.988-116.812,4.989-174.805,0
			C40.696,255.021,35.979,253.106,33.037,250.343z M49.684,19.948C77.42,16.649,105.353,15,133.286,15s55.867,1.649,83.606,4.949
			c8.17,0.971,14.522,7.644,15.103,15.862c0.161,2.294,0.312,4.528,0.459,6.735c-3.25-1.181-6.774-1.966-10.481-2.284
			c-58.846-5.063-118.523-5.063-177.375,0c-3.707,0.319-7.231,1.103-10.48,2.284c0.149-2.261,0.301-4.51,0.457-6.731
			C35.155,27.593,41.51,20.92,49.684,19.948z M49.683,290.73c-8.174-0.972-14.528-7.646-15.109-15.868
			c-0.156-2.223-0.308-4.473-0.457-6.735c3.25,1.181,6.773,1.965,10.48,2.284c29.427,2.532,59.05,3.797,88.686,3.797
			c29.628,0,59.267-1.266,88.689-3.797c3.708-0.319,7.232-1.103,10.482-2.285c-0.147,2.206-0.298,4.439-0.459,6.732
			c-0.581,8.226-6.932,14.9-15.104,15.872C161.413,297.328,105.157,297.329,49.683,290.73z M473.131,496.976h-316.8
			c-2.258,0-4.377-0.878-5.986-2.493c-1.596-1.59-2.474-3.709-2.474-5.967c0-4.665,3.795-8.46,8.46-8.46h239.71
			c4.143,0,7.5-3.358,7.5-7.5s-3.357-7.5-7.5-7.5h-73.809v-15.548l11.42-11.42c2.929-2.929,2.929-7.678-0.001-10.606
			c-2.928-2.93-7.677-2.929-10.606,0l-0.813,0.813v-1.435c0-0.004,0-0.007,0-0.011v-28.413
			c35.462-3.758,63.185-33.841,63.185-70.283c0-38.976-31.709-70.685-70.685-70.685s-70.685,31.709-70.685,70.685
			c0,36.442,27.722,66.525,63.185,70.283v10.312l-0.946-0.946c-2.93-2.929-7.678-2.929-10.607,0c-2.929,2.929-2.929,7.678,0,10.606
			l11.554,11.554v16.438c0,0.002,0,0.003,0,0.005v18.652H182.377c-5.687-19.459-24.634-90.156-20.469-154.96
			c18.968-0.75,37.908-2.229,56.755-4.47c15.309-1.82,27.208-14.315,28.295-29.714c0.547-7.795,1.008-15.03,1.411-22.119
			c0.728-12.647,1.311-25.329,1.757-38.031c20.043-14.727,41.731-28.227,64.609-40.16c100.027,52.22,145.579,117.37,152.294,127.58
			c6.055,66.546-14.059,141.712-19.946,161.874H426.02c-4.143,0-7.5,3.358-7.5,7.5s3.357,7.5,7.5,7.5h47.11
			c2.266,0,4.392,0.878,5.986,2.473c1.595,1.596,2.474,3.722,2.474,5.987C481.591,493.181,477.796,496.976,473.131,496.976z
			 M344.947,302.056C338.38,292.374,327.288,286,314.735,286c-12.556,0-23.65,6.375-30.219,16.057
			c0.344-16.374,13.762-29.589,30.216-29.589C331.186,272.468,344.602,285.683,344.947,302.056z M293.304,324.004
			c-0.034-0.501-0.062-1.004-0.062-1.51c0-11.852,9.642-21.493,21.493-21.493c11.848,0,21.486,9.642,21.486,21.493
			c0,0.505-0.028,1.009-0.062,1.511c-5.479,5.511-13.061,8.928-21.427,8.928C306.365,332.932,298.783,329.515,293.304,324.004z
			 M314.732,347.932c6.794,0,13.238-1.515,19.025-4.21c-4.07,7.036-9.29,13.39-15.734,18.195
			c-11.665,8.697-25.673,10.882-41.651,6.543c-10.66-10.15-17.325-24.46-17.325-40.307c0-12.521,4.157-24.089,11.159-33.401
			c-0.46,2.582-0.707,5.236-0.707,7.948C269.5,327.641,289.791,347.932,314.732,347.932z M326.989,373.942
			c22.778-16.982,32.975-48.018,32.975-71.242c0-2.715-0.252-5.371-0.713-7.956c7.006,9.313,11.166,20.883,11.166,33.408
			c0,30.705-24.98,55.685-55.685,55.685c-2.311,0-4.584-0.158-6.821-0.433C314.71,381.487,321.105,378.329,326.989,373.942z"/>
		<path d="M98.416,222.725c9.347,7.473,21.732,11.589,34.875,11.589c13.143,0,25.528-4.116,34.875-11.589
			c10.809-8.643,16.712-20.923,17.073-35.513c1.194-48.277-44.157-105.61-46.088-108.027c-1.423-1.781-3.579-2.818-5.859-2.818
			c0,0,0,0,0,0c-2.28,0-4.436,1.037-5.859,2.818c-0.489,0.611-12.098,15.209-23.607,35.792c-2.022,3.616-0.73,8.185,2.885,10.207
			c3.616,2.022,8.186,0.729,10.207-2.885c5.982-10.697,12.076-19.795,16.368-25.84c11.913,16.808,37.778,57.24,36.958,90.384
			c-0.399,16.164-11.98,32.473-36.953,32.473c-24.972,0-36.553-16.309-36.952-32.472c-0.272-11.078,2.456-24.026,8.108-38.485
			c1.508-3.858-0.397-8.208-4.255-9.716c-3.857-1.506-8.208,0.397-9.716,4.255c-6.381,16.324-9.454,31.234-9.132,44.315
			C81.703,201.802,87.607,214.082,98.416,222.725z"/>
	</g>
</g>
<g>
</g>
<g>
</g>
<g>
</g>
<g>
</g>
<g>
</g>
<g>
</g>
<g>
</g>
<g>
</g>
<g>
</g>
<g>
</g>
<g>
</g>
<g>
</g>
<g>
</g>
<g>
</g>
<g>
</g>
</svg>
