<?xml version="1.0" encoding="iso-8859-1"?>
<!-- Generator: Adobe Illustrator 21.0.0, SVG Export Plug-In . SVG Version: 6.00 Build 0)  -->
<svg version="1.1" id="Capa_1" xmlns="http://www.w3.org/2000/svg" xmlns:xlink="http://www.w3.org/1999/xlink" x="0px" y="0px"
	 viewBox="0 0 511.993 511.993" style="enable-background:new 0 0 511.993 511.993;" xml:space="preserve">
<g>
	<g>
		<path style="fill:#A5E4EF;" d="M452.054,459.148l-196.058,22.673L60.189,459.148c0,0-3.628-11.262-8.473-30.048
			c-11.623-45.125-30.223-133.693-22.319-214.141c0,0,64.374-106.432,226.724-189.676c9.779,5.016,19.208,10.118,28.289,15.269
			c30.044,17.066,56.26,34.737,78.937,51.986c12.38,9.427,23.714,18.719,34.021,27.732c13.517,11.81,25.289,23.12,35.407,33.546
			c34.689,35.717,50.07,61.143,50.07,61.143C494.039,328.914,452.054,459.148,452.054,459.148z"/>
		<path style="fill:#665E66;" d="M452.062,475.601c-1.673,0-3.373-0.257-5.051-0.798c-8.645-2.787-13.394-12.055-10.607-20.701
			c0.486-1.513,39.825-125.517,30.439-233.607c-5.195-7.781-21.004-30.09-49.119-58.555C386.48,130.311,333.39,84.573,256.122,43.82
			C178.853,84.573,125.763,130.311,94.52,161.941c-28.103,28.452-43.909,50.753-49.119,58.556
			c-9.396,108.204,30.036,232.353,30.44,233.61c2.782,8.645-1.969,17.911-10.614,20.695c-8.644,2.784-17.909-1.962-20.695-10.606
			c-1.757-5.45-42.904-134.82-31.505-250.841c0.24-2.444,1.025-4.803,2.295-6.904c0.697-1.154,17.519-28.693,54.827-66.643
			c34.05-34.636,92.651-85.16,178.468-129.161c4.711-2.416,10.297-2.416,15.009,0c85.816,44.001,144.418,94.525,178.468,129.161
			c37.308,37.951,54.13,65.49,54.827,66.643c1.271,2.101,2.055,4.46,2.295,6.904c11.399,116.021-29.747,245.391-31.505,250.841
			C465.466,471.164,459.009,475.601,452.062,475.601z"/>
		<path style="fill:#49CB8B;" d="M481.156,459.149H30.836c-12.521,0-22.672,10.15-22.672,22.672v0
			c0,12.521,10.15,22.672,22.672,22.672h450.32c12.521,0,22.672-10.15,22.672-22.672v0
			C503.828,469.3,493.678,459.149,481.156,459.149z"/>
		<path style="fill:#13B766;" d="M82.347,497.86c4.107,4.097,9.779,6.639,16.039,6.639H30.832c-6.26,0-11.922-2.542-16.029-6.639
			c-4.107-4.107-6.639-9.779-6.639-16.039c0-12.52,10.147-22.667,22.667-22.667h67.554c-12.52,0-22.677,10.147-22.677,22.667
			C75.708,488.081,78.25,493.753,82.347,497.86z"/>
		<path style="fill:#FA4954;" d="M293.898,416.893h-75.803c-15.674,0-28.381,12.707-28.381,28.381v13.875h132.565v-13.875
			C322.279,429.6,309.572,416.893,293.898,416.893z"/>
		<path style="fill:#E21F2D;" d="M261.851,416.891c-15.678,0-28.384,12.706-28.384,28.383v13.873h-43.752v-13.873
			c0-15.678,12.706-28.383,28.383-28.383H261.851z"/>
		<path style="fill:#02C6DB;" d="M103.021,7.5c0,0,49.255,61.645,48.023,111.454c-1.417,57.318-94.629,57.318-96.046,0
			C53.766,69.145,103.021,7.5,103.021,7.5z"/>
		<path style="fill:#02B0CC;" d="M103.018,161.942c-23.656,0-47.312-14.321-48.02-42.984C53.77,69.142,103.018,7.498,103.018,7.498
			s-18.65,61.644-18.181,111.459C85.106,147.62,94.062,161.942,103.018,161.942z"/>
	</g>
	<g>
		<path d="M481.156,451.649h-1.877c10.416-36.9,36.85-142.908,27.406-239.03c-0.348-3.533-1.508-7.011-3.347-10.043
			c-0.713-1.181-17.894-29.371-55.895-68.023c-34.436-35.03-93.686-86.119-180.385-130.572c-6.843-3.523-15.018-3.522-21.864-0.006
			c-34.911,17.899-68.222,38.376-99.162,60.932c-14.266-33.18-35.787-60.38-37.153-62.09C107.457,1.037,105.301,0,103.021,0
			s-4.437,1.037-5.859,2.818c-0.519,0.649-12.836,16.139-25.152,38.056c-16.808,29.908-25.054,56.24-24.51,78.264
			c0.239,9.654,2.754,18.356,7.372,25.776c-31.309,33.467-45.369,56.664-45.958,57.647c-1.842,3.036-2.999,6.515-3.346,10.058
			c-9.449,96.181,16.978,202.142,27.395,239.029h-2.126c-16.637,0-30.172,13.535-30.172,30.172s13.535,30.172,30.172,30.172h450.32
			c16.637,0,30.172-13.535,30.172-30.172S497.793,451.649,481.156,451.649z M252.044,17.321c2.556-1.313,5.603-1.314,8.16,0.003
			c84.929,43.545,142.881,93.503,176.543,127.746c36.779,37.41,53.073,64.138,53.758,65.272c0.699,1.154,1.121,2.414,1.252,3.745
			c9.574,97.452-18.896,205.907-28.077,237.563h-18.685c7.152-23.955,37.82-133.96,29.315-231.804
			c-0.109-1.255-0.532-2.463-1.231-3.511c-5.563-8.344-21.573-30.86-50.022-59.663c-15.56-15.751-32.715-31.188-50.99-45.882
			c-3.227-2.595-7.948-2.083-10.544,1.145s-2.083,7.949,1.146,10.545c17.83,14.337,34.558,29.388,49.717,44.733
			c25.882,26.203,41,46.84,47.145,55.856c8.517,104.634-28.618,223.529-30.218,228.581h-99.533v-6.371
			c0-19.786-16.098-35.884-35.884-35.884h-30.397v-33.849c0-16.542,13.457-29.999,29.999-29.999c8.012,0,15.541,3.122,21.209,8.797
			c5.668,5.661,8.79,13.19,8.79,21.202v13.195c0,4.142,3.357,7.5,7.5,7.5s7.5-3.358,7.5-7.5v-13.195
			c0-12.022-4.685-23.321-13.184-31.808c-8.494-8.506-19.793-13.19-31.815-13.19c-15.637,0-29.431,8.022-37.499,20.162
			c-8.068-12.14-21.862-20.162-37.499-20.162c-12.022,0-23.321,4.685-31.809,13.183c-8.506,8.494-13.19,19.793-13.19,31.815v13.195
			c0,4.142,3.357,7.5,7.5,7.5s7.5-3.358,7.5-7.5v-13.195c0-8.011,3.122-15.541,8.797-21.209c5.661-5.668,13.19-8.79,21.202-8.79
			c16.542,0,29.999,13.457,29.999,29.999v33.849h-25.9c-4.143,0-7.5,3.358-7.5,7.5s3.357,7.5,7.5,7.5h71.298
			c11.516,0,20.884,9.368,20.884,20.884v6.371H197.215v-6.371c0-4.521,1.408-8.806,4.073-12.39c2.472-3.324,1.78-8.022-1.544-10.494
			c-3.322-2.472-8.022-1.78-10.493,1.544c-4.604,6.191-7.036,13.57-7.036,21.34v6.371H82.931
			c-1.503-4.73-38.757-123.569-30.217-228.579c6.004-8.803,20.543-28.652,45.151-53.828c1.703,0.132,3.423,0.2,5.155,0.2
			c14.063,0,27.31-4.4,37.301-12.389c11.534-9.223,17.834-22.333,18.22-37.914c0.031-1.236,0.024-2.479-0.001-3.724
			c30.068-23.333,62.858-44.544,97.585-63.102c29.22,15.625,57.198,33.192,83.212,52.251c3.34,2.448,8.034,1.724,10.482-1.617
			c2.448-3.341,1.724-8.035-1.617-10.483c-27.642-20.251-57.442-38.849-88.576-55.276c-2.189-1.156-4.809-1.156-6.998-0.001
			c-34.011,17.935-66.251,38.367-96.023,60.823c-1.209-6.226-2.919-12.46-4.989-18.594
			C182.838,56.375,216.593,35.497,252.044,17.321z M103.024,20.068c12.677,17.765,41.424,62.204,40.521,98.701
			c-0.438,17.757-13.14,35.674-40.524,35.674c-27.386,0-40.087-17.917-40.525-35.674C61.594,82.329,90.349,37.848,103.024,20.068z
			 M20.495,214.084c0.132-1.341,0.55-2.6,1.262-3.774c0.139-0.232,13.505-22.287,43.035-54.041c0.31,0.26,0.609,0.529,0.927,0.783
			c4.421,3.535,9.482,6.365,14.967,8.424c-23.129,24.5-36.523,43.368-41.519,50.854c-0.7,1.049-1.124,2.258-1.233,3.515
			c-8.432,97.105,22.203,207.775,29.324,231.804H48.563C39.382,420.008,10.915,311.604,20.495,214.084z M481.156,496.993H30.836
			c-8.366,0-15.172-6.806-15.172-15.172s6.806-15.172,15.172-15.172h450.32c8.366,0,15.172,6.806,15.172,15.172
			S489.523,496.993,481.156,496.993z"/>
		<path d="M236.897,242.609c2.261,3.471,6.907,4.452,10.378,2.191s4.451-6.907,2.19-10.378
			c-16.098-24.715-43.299-39.469-72.765-39.469c-23.177,0-44.972,9.025-61.373,25.414c-16.395,16.395-25.424,38.19-25.424,61.372
			v27.825c0,4.142,3.357,7.5,7.5,7.5s7.5-3.358,7.5-7.5v-27.825c0-19.175,7.469-37.204,21.029-50.764
			c13.566-13.557,31.596-21.023,50.768-21.023C201.074,209.953,223.577,222.16,236.897,242.609z"/>
		<path d="M310.463,257.558c-23.484,0-43.958,13.131-54.467,32.437c-10.509-19.306-30.984-32.437-54.468-32.437
			c-34.169,0-61.967,27.798-61.967,61.967v25.959c0,4.142,3.357,7.5,7.5,7.5s7.5-3.358,7.5-7.5v-25.959
			c0-25.898,21.069-46.967,46.968-46.967c25.897,0,46.967,21.069,46.967,46.967c0,4.142,3.357,7.5,7.5,7.5s7.5-3.358,7.5-7.5
			c0-25.898,21.069-46.967,46.968-46.967c25.897,0,46.967,21.069,46.967,46.967v25.959c0,4.142,3.357,7.5,7.5,7.5s7.5-3.358,7.5-7.5
			v-25.959C372.431,285.357,344.632,257.558,310.463,257.558z"/>
		<path d="M262.528,234.422c-2.261,3.471-1.28,8.117,2.19,10.378s8.117,1.28,10.378-2.191
			c13.319-20.448,35.822-32.656,60.196-32.656c19.172,0,37.201,7.466,50.766,21.021c13.563,13.562,21.031,31.59,21.031,50.765
			v27.825c0,4.142,3.357,7.5,7.5,7.5s7.5-3.358,7.5-7.5v-27.825c0-23.182-9.029-44.977-25.426-61.374
			c-16.399-16.387-38.194-25.412-61.371-25.412C305.826,194.953,278.625,209.708,262.528,234.422z"/>
	</g>
</g>
<g>
</g>
<g>
</g>
<g>
</g>
<g>
</g>
<g>
</g>
<g>
</g>
<g>
</g>
<g>
</g>
<g>
</g>
<g>
</g>
<g>
</g>
<g>
</g>
<g>
</g>
<g>
</g>
<g>
</g>
</svg>
