<?xml version="1.0" encoding="iso-8859-1"?>
<!-- Generator: Adobe Illustrator 21.0.0, SVG Export Plug-In . SVG Version: 6.00 Build 0)  -->
<svg version="1.1" id="Capa_1" xmlns="http://www.w3.org/2000/svg" xmlns:xlink="http://www.w3.org/1999/xlink" x="0px" y="0px"
	 viewBox="0 0 512.001 512.001" style="enable-background:new 0 0 512.001 512.001;" xml:space="preserve">
<g>
	<g>
		<circle style="fill:#FCDD2E;" cx="180.307" cy="188.613" r="98.572"/>
		<path style="fill:#F9C301;" d="M207.865,283.283c-8.75,2.55-17.99,3.91-27.56,3.91c-54.44,0-98.57-44.14-98.57-98.58
			c0-54.44,44.13-98.57,98.57-98.57c9.57,0,18.81,1.36,27.56,3.91c-41.03,11.92-71.01,49.79-71.01,94.66
			C136.855,233.483,166.835,271.363,207.865,283.283z"/>
	</g>
	<g>
		<path d="M180.31,294.69c58.487,0,106.07-47.587,106.07-106.08c0-58.487-47.583-106.07-106.07-106.07
			c-34.696,0-67.263,17.022-87.115,45.534c-2.366,3.399-1.529,8.074,1.87,10.44c3.4,2.369,8.074,1.529,10.44-1.869
			c17.049-24.487,45.014-39.105,74.805-39.105c50.217,0,91.07,40.854,91.07,91.07c0,50.222-40.854,91.08-91.07,91.08
			c-50.222,0-91.079-40.858-91.079-91.08c0-9.248,1.377-18.363,4.092-27.092c1.229-3.956-0.979-8.159-4.935-9.389
			c-3.96-1.231-8.159,0.979-9.39,4.934c-3.163,10.173-4.768,20.787-4.768,31.547C74.231,247.103,121.817,294.69,180.31,294.69z"/>
		<path d="M180.307,42.351c4.143,0,7.5-3.358,7.5-7.5L187.806,7.5c0-4.142-3.358-7.5-7.5-7.5c-4.143,0-7.5,3.358-7.5,7.5
			l0.001,27.351C172.807,38.994,176.165,42.351,180.307,42.351z"/>
		<path d="M180.307,334.876c-4.143,0-7.5,3.358-7.5,7.5v115.777c0,4.142,3.357,7.5,7.5,7.5s7.5-3.358,7.5-7.5V342.376
			C187.807,338.234,184.449,334.876,180.307,334.876z"/>
		<path d="M96.931,59.201c1.389,2.406,3.91,3.751,6.502,3.751c1.272,0,2.563-0.324,3.743-1.006
			c3.587-2.071,4.816-6.658,2.745-10.245L100.7,35.73c-2.07-3.587-6.659-4.816-10.245-2.745c-3.587,2.071-4.816,6.658-2.745,10.245
			L96.931,59.201z"/>
		<path d="M263.687,318.031c-2.071-3.588-6.66-4.817-10.245-2.747c-3.588,2.07-4.817,6.657-2.747,10.245l17.159,29.73
			c1.39,2.407,3.911,3.752,6.503,3.752c1.272,0,2.562-0.324,3.742-1.006c3.588-2.07,4.817-6.657,2.747-10.245L263.687,318.031z"/>
		<path d="M295.845,373.74c-2.072-3.587-6.66-4.816-10.245-2.745c-3.587,2.071-4.816,6.658-2.745,10.245l73.33,127.01
			c1.39,2.406,3.91,3.751,6.502,3.751c1.272,0,2.563-0.324,3.743-1.006c3.587-2.071,4.816-6.658,2.745-10.245L295.845,373.74z"/>
		<path d="M50.895,105.237l-15.97-9.22c-3.589-2.072-8.175-0.842-10.245,2.745c-2.071,3.587-0.842,8.174,2.745,10.245l15.97,9.22
			c1.182,0.682,2.471,1.006,3.743,1.006c2.592,0,5.113-1.345,6.502-3.751C55.711,111.895,54.482,107.308,50.895,105.237z"/>
		<path d="M508.25,369.29L317.219,259c-3.589-2.071-8.176-0.842-10.245,2.745c-2.071,3.587-0.842,8.174,2.745,10.245L500.75,382.28
			c1.182,0.682,2.471,1.006,3.743,1.006c2.592,0,5.113-1.346,6.502-3.751C513.067,375.948,511.837,371.361,508.25,369.29z"/>
		<path d="M34.045,188.614c0-4.142-3.357-7.5-7.5-7.5L7.5,181.112c-4.142,0-7.5,3.358-7.5,7.5c0,4.142,3.357,7.5,7.5,7.5
			l19.045,0.001C30.687,196.113,34.045,192.755,34.045,188.614z"/>
		<path d="M326.569,188.613c0,4.142,3.357,7.5,7.5,7.5H504.5c4.143,0,7.5-3.358,7.5-7.5s-3.357-7.5-7.5-7.5H334.069
			C329.927,181.113,326.569,184.471,326.569,188.613z"/>
		<path d="M43.395,259l-26.783,15.463c-3.587,2.071-4.816,6.658-2.745,10.245c1.39,2.406,3.91,3.751,6.502,3.751
			c1.272,0,2.563-0.324,3.743-1.006l26.783-15.463c3.587-2.071,4.816-6.658,2.745-10.245C51.567,258.157,46.981,256.929,43.395,259z
			"/>
		<path d="M313.476,119.233c1.272,0,2.563-0.324,3.743-1.006l108.002-62.354c3.587-2.071,4.816-6.658,2.745-10.245
			c-2.07-3.587-6.66-4.817-10.245-2.745l-108.002,62.354c-3.587,2.071-4.816,6.658-2.745,10.245
			C308.362,117.888,310.884,119.233,313.476,119.233z"/>
		<path d="M107.176,315.28c-3.589-2.071-8.176-0.842-10.245,2.745l-36.769,63.686c-2.071,3.587-0.842,8.174,2.745,10.245
			c1.182,0.682,2.471,1.006,3.743,1.006c2.592,0,5.113-1.346,6.502-3.751l36.769-63.686
			C111.992,321.938,110.763,317.351,107.176,315.28z"/>
		<path d="M253.439,61.946c1.182,0.682,2.471,1.006,3.743,1.006c2.592,0,5.113-1.346,6.502-3.751l18.793-32.55
			c2.071-3.587,0.842-8.174-2.745-10.245c-3.59-2.072-8.175-0.842-10.245,2.745l-18.793,32.55
			C248.622,55.289,249.852,59.875,253.439,61.946z"/>
	</g>
</g>
<g>
</g>
<g>
</g>
<g>
</g>
<g>
</g>
<g>
</g>
<g>
</g>
<g>
</g>
<g>
</g>
<g>
</g>
<g>
</g>
<g>
</g>
<g>
</g>
<g>
</g>
<g>
</g>
<g>
</g>
</svg>
