<?xml version="1.0" encoding="iso-8859-1"?>
<!-- Generator: Adobe Illustrator 21.0.0, SVG Export Plug-In . SVG Version: 6.00 Build 0)  -->
<svg version="1.1" id="Capa_1" xmlns="http://www.w3.org/2000/svg" xmlns:xlink="http://www.w3.org/1999/xlink" x="0px" y="0px"
	 viewBox="0 0 511.997 511.997" style="enable-background:new 0 0 511.997 511.997;" xml:space="preserve">
<g>
	<g>
		<path style="fill:#49CB8B;" d="M188.369,268.908c-9.305-66.156-33.24-129.429-70.051-185.18
			C101.956,58.946,67.558,54.13,44.984,73.424c-0.253,0.216-0.506,0.432-0.759,0.649c-18.86,16.12-22.986,43.819-9.305,64.517
			c28.726,43.459,47.391,92.8,54.621,144.391c3.444,24.57,24.869,42.603,49.676,42.205c0.333-0.005,0.665-0.011,0.998-0.016
			C169.908,324.692,192.505,298.315,188.369,268.908z"/>
		<path style="fill:#13B766;" d="M50.081,69.61c-8.24,15.498-7.913,34.743,2.256,50.122c28.721,43.456,47.394,92.795,54.621,144.391
			c3.445,24.57,24.862,42.602,49.676,42.195c0.34-0.003,0.669-0.011,0.993-0.008c9.469-0.155,18.206-2.931,25.588-7.607
			c-8.097,15.38-24.115,26.159-43,26.466c-0.329,0.008-0.669,0.011-0.998,0.018c-24.809,0.396-46.226-17.636-49.671-42.206
			c-7.232-51.585-25.901-100.934-54.621-144.391c-13.679-20.698-9.554-48.401,9.3-64.514c0.257-0.222,0.508-0.434,0.76-0.646
			C46.619,72.032,48.326,70.758,50.081,69.61z"/>
		<g>
			<g>
				
					<ellipse transform="matrix(0.9978 -0.0659 0.0659 0.9978 -10.7667 14.971)" style="fill:#FA4954;" cx="221.541" cy="170.683" rx="88.143" ry="88.143"/>
				<path style="fill:#E21F2D;" d="M227.364,258.629c-48.574,3.208-90.566-33.563-93.774-82.137
					c-3.208-48.574,33.582-90.568,82.156-93.776c-20.894,1.38-35.231,41.89-32.023,90.465
					C186.931,221.755,206.471,260.009,227.364,258.629z"/>
				
					<ellipse transform="matrix(0.9978 -0.0659 0.0659 0.9978 -10.8452 18.4389)" style="fill:#FC8086;" cx="274.067" cy="173.606" rx="16.244" ry="28.641"/>
			</g>
			<polygon style="fill:#49CB8B;" points="245.701,105.713 271.086,163.44 207.648,124.848 162.285,166.011 163.967,98.797 
				141.416,82.036 199.479,66.674 243.134,23.54 242.117,60.196 310.721,81.136 			"/>
			<polygon style="fill:#13B766;" points="212.73,88.12 207.648,124.848 162.285,166.011 163.967,98.797 141.416,82.036 
				199.479,66.674 			"/>
		</g>
		<g>
			<g>
				
					<ellipse transform="matrix(0.391 -0.9204 0.9204 0.391 74.4188 458.9095)" style="fill:#FA4954;" cx="383.97" cy="173.223" rx="88.143" ry="88.143"/>
				<path style="fill:#E21F2D;" d="M349.525,254.352c-44.806-19.032-65.714-70.784-46.683-115.589s70.801-65.707,115.607-46.676
					c-19.273-8.186-50.332,21.512-69.363,66.318S330.252,246.166,349.525,254.352z"/>
				
					<ellipse transform="matrix(0.391 -0.9204 0.9204 0.391 77.9787 516.8611)" style="fill:#FC8086;" cx="429.539" cy="199.508" rx="28.641" ry="16.244"/>
			</g>
			<polygon style="fill:#49CB8B;" points="434.822,126.118 426.46,184.09 392.228,126.045 333.181,142.341 364.979,83.101 
				347.941,55.721 411.159,70.435 469.571,51.609 452.139,83.871 503.939,133.487 			"/>
			<polygon style="fill:#13B766;" points="413.321,95.552 392.228,126.045 333.181,142.341 364.979,83.101 347.941,55.721 
				411.159,70.435 			"/>
		</g>
		<rect x="81.242" y="308.057" style="fill:#454045;" width="344.957" height="89.906"/>
		<rect x="37.721" y="306.735" style="fill:#FA6931;" width="73.897" height="78.178"/>
		<rect x="400.379" y="306.735" style="fill:#FA6931;" width="73.897" height="78.178"/>
		<path style="fill:#FD7E42;" d="M474.275,360.267H37.721c-16.691,0-30.221,13.531-30.221,30.221v67.748
			c0,16.691,13.531,30.221,30.221,30.221h436.554c16.691,0,30.221-13.531,30.221-30.221v-67.748
			C504.497,373.798,490.966,360.267,474.275,360.267z"/>
		<path style="fill:#FA6931;" d="M503.432,466.194c-3.489,12.831-15.224,22.264-29.161,22.264H37.715
			c-16.685,0-30.215-13.531-30.215-30.226v-67.744c0-14.402,10.062-26.442,23.541-29.475v74.985
			c0,16.695,13.53,30.226,30.215,30.226h436.556C498.249,466.225,500.379,466.214,503.432,466.194z"/>
		<path style="fill:#FD7E42;" d="M504.5,233.416v67.744c0,2.566-0.325,5.061-0.923,7.445c-3.317,13.094-15.174,22.781-29.303,22.781
			H37.719c-16.685,0-30.215-13.531-30.215-30.225v-67.744c0-14.727,10.528-26.99,24.464-29.668c1.866-0.365,3.783-0.558,5.751-0.558
			h436.556C490.969,203.19,504.5,216.721,504.5,233.416z"/>
		<path style="fill:#FA6931;" d="M503.432,309.118c-3.489,12.831-15.224,22.264-29.161,22.264H37.715
			c-16.685,0-30.215-13.531-30.215-30.226v-67.744c0-14.402,10.062-26.442,23.541-29.475v74.985
			c0,16.695,13.53,30.226,30.215,30.226h436.556C498.249,309.148,500.379,309.138,503.432,309.118z"/>
		<circle style="fill:#454045;" cx="74.67" cy="267.286" r="19.827"/>
		<circle style="fill:#454045;" cx="437.327" cy="267.286" r="19.827"/>
		<circle style="fill:#454045;" cx="74.67" cy="424.362" r="19.827"/>
		<circle style="fill:#454045;" cx="437.327" cy="424.362" r="19.827"/>
	</g>
	<g>
		<path d="M511.997,301.16v-67.748c0-19.911-15.509-36.257-35.079-37.619c4.724-19.355,3.258-39.617-4.142-58.083l30.369,3.238
			c3.189,0.343,6.244-1.387,7.597-4.296c1.353-2.91,0.704-6.358-1.613-8.577l-22.06-21.13c-2.992-2.866-7.74-2.763-10.604,0.228
			c-2.865,2.991-2.763,7.739,0.228,10.604l6.187,5.926l-47.263-5.04c-4.017-0.43-7.643,2.394-8.219,6.387l-5.314,36.853
			l-23.392-39.663c-1.722-2.92-5.19-4.32-8.455-3.42l-42.161,11.631l23.514-43.804c1.27-2.366,1.178-5.23-0.24-7.51l-7.474-12.009
			l43.13,10.035c0.092,7.997-1.22,16.538-4.875,25.144c-1.62,3.813,0.158,8.216,3.971,9.835c0.957,0.407,1.951,0.599,2.929,0.599
			c2.918,0,5.693-1.714,6.906-4.57c4.931-11.607,6.488-22.955,6.118-33.371l32.042-10.325l-8.552,15.829
			c-1.604,2.969-1.027,6.645,1.409,8.979l8.17,7.83c2.99,2.867,7.738,2.765,10.604-0.225c2.866-2.99,2.766-7.738-0.225-10.604
			l-4.045-3.877l14.714-27.234c1.456-2.695,1.127-6.004-0.832-8.359c-1.958-2.356-5.151-3.284-8.067-2.344L420.164,59.65
			c-4.306-20.304-14.333-34.485-15.04-35.465c-2.419-3.354-7.091-4.111-10.451-1.699c-3.359,2.411-4.128,7.094-1.725,10.459
			c0.141,0.197,8.256,11.8,12.093,28.362L349.64,48.416c-2.957-0.691-6.032,0.472-7.798,2.938s-1.872,5.754-0.27,8.329l13.85,22.253
			c-21.622,6.732-39.812,20.662-51.867,39.484c-5.048-8.414-11.355-15.974-18.743-22.471l28.56-10.796
			c3.001-1.135,4.949-4.053,4.844-7.26s-2.237-5.992-5.306-6.929l-63.139-19.276l0.862-30.94c0.085-3.062-1.7-5.868-4.51-7.088
			c-2.811-1.221-6.079-0.608-8.258,1.544l-35.209,34.785c-12.996-16.184-28.34-24.324-29.412-24.88
			c-3.671-1.903-8.183-0.472-10.095,3.194c-1.912,3.667-0.488,8.193,3.175,10.114c0.216,0.113,12.775,6.857,23.692,20
			l-50.519,13.365c-2.785,0.737-4.902,3.003-5.447,5.833c-0.545,2.829,0.579,5.72,2.891,7.438l18.361,13.645
			c-3.825,3.664-7.304,7.591-10.422,11.742c-6.265-11.536-13.067-22.876-20.302-33.842c-8.974-13.592-23.377-22.694-39.518-24.971
			c-11.333-1.596-22.77,0.284-32.874,5.197c-2.75-5.877-0.314-11.281,0.013-11.951c1.913-3.674,0.485-8.203-3.189-10.116
			c-3.676-1.915-8.204-0.485-10.116,3.189c-2.734,5.251-5.274,16.539,0.716,27.2c-0.038,0.032-0.074,0.065-0.112,0.097
			c-0.051,0.042-0.102,0.083-0.152,0.126c-21.794,18.627-26.388,50.594-10.685,74.355c11.071,16.755,20.664,34.534,28.632,52.966
			H37.721C16.921,195.691,0,212.613,0,233.412v67.748c0,18.232,13.002,33.482,30.221,36.97v15.388
			C13.002,357.006,0,372.256,0,390.489v67.748c0,20.799,16.921,37.721,37.721,37.721h436.554c20.8,0,37.721-16.922,37.721-37.721
			v-67.748c0-18.232-13.002-33.483-30.221-36.971V338.13C498.994,334.642,511.997,319.392,511.997,301.16z M346.417,101.825
			l-19.844,36.968c-1.42,2.645-1.126,5.88,0.746,8.226c1.873,2.345,4.962,3.349,7.856,2.551l53.513-14.762L420,187.9
			c1.366,2.316,3.84,3.69,6.458,3.69c0.481,0,0.968-0.046,1.454-0.143c3.123-0.616,5.517-3.137,5.971-6.288l7.328-50.816
			l14.223,1.517c9.673,18.512,11.796,39.875,5.982,59.83H306.541c-5.187-17.813-4.107-36.792,3.189-53.969l0.083-0.195
			c0.078-0.183,0.155-0.369,0.243-0.55c0.042-0.085,0.082-0.172,0.12-0.259C317.646,123.732,330.414,110.192,346.417,101.825z
			 M198.826,74.603c3.674,7.086,6.343,15.284,6.957,24.593c0.262,3.965,3.56,7.006,7.477,7.006c0.166,0,0.333-0.006,0.501-0.017
			c4.133-0.273,7.263-3.845,6.99-7.978c-0.831-12.583-4.556-23.414-9.581-32.544l23.949-23.66l-0.501,17.981
			c-0.094,3.375,2.078,6.396,5.307,7.382l47.584,14.527l-44.46,16.806c-1.925,0.728-3.466,2.214-4.263,4.112
			s-0.779,4.039,0.05,5.923l15.795,35.916l-43.087-26.208c-2.839-1.727-6.477-1.379-8.937,0.854l-32.386,29.385l1.245-49.699
			c0.061-2.438-1.067-4.753-3.024-6.208l-10.056-7.472L198.826,74.603z M155.839,123.864l-1.05,41.958
			c-0.075,3,1.646,5.756,4.375,7.006c1,0.458,2.064,0.681,3.122,0.681c1.828,0,3.633-0.668,5.041-1.946l41.212-37.394l58.653,35.676
			c2.797,1.701,6.375,1.392,8.839-0.766c2.463-2.158,3.242-5.664,1.924-8.661l-22.202-50.484l12.74-4.815
			c11.69,8.365,20.838,19.537,26.685,32.62c-7.416,18.547-8.826,38.717-4.155,57.952H144.875
			c-2.071-6.347-3.357-12.948-3.801-19.694C139.824,157.064,145.104,138.835,155.839,123.864z M41.177,134.455
			c-11.522-17.435-8.144-40.905,7.854-54.629c0.293-0.241,0.579-0.489,0.863-0.739c9.135-7.783,21.183-11.283,33.072-9.607
			c11.884,1.677,22.489,8.377,29.094,18.381c8.591,13.022,16.542,26.594,23.685,40.388c-7.366,14.851-10.773,31.548-9.639,48.735
			c0.419,6.362,1.466,12.62,3.112,18.707H73.593C64.811,174.321,53.922,153.743,41.177,134.455z M15,301.16v-67.748
			c0-12.529,10.193-22.722,22.721-22.722h436.554c12.528,0,22.721,10.193,22.721,22.722v67.748
			c0,12.528-10.193,22.721-22.721,22.721H37.721C25.193,323.881,15,313.688,15,301.16z M466.775,352.767h-58.896v-13.886h58.896
			V352.767z M104.118,352.767H45.221v-13.886h58.896V352.767z M496.997,390.489v67.748c0,12.528-10.193,22.721-22.721,22.721H37.721
			C25.193,480.957,15,470.765,15,458.236v-67.748c0-12.529,10.193-22.722,22.721-22.722h99.242c4.142,0,7.5-3.358,7.5-7.5
			s-3.358-7.5-7.5-7.5h-17.845v-13.886h273.761v13.886H167.393c-4.142,0-7.5,3.358-7.5,7.5s3.358,7.5,7.5,7.5h306.882
			C486.804,367.767,496.997,377.96,496.997,390.489z"/>
		<path d="M74.669,294.613c15.068,0,27.327-12.259,27.327-27.327s-12.259-27.327-27.327-27.327s-27.326,12.259-27.326,27.327
			S59.602,294.613,74.669,294.613z M74.669,254.959c6.797,0,12.327,5.53,12.327,12.327s-5.53,12.327-12.327,12.327
			s-12.326-5.53-12.326-12.327S67.873,254.959,74.669,254.959z"/>
		<path d="M437.327,294.613c15.068,0,27.327-12.259,27.327-27.327s-12.259-27.327-27.327-27.327S410,252.218,410,267.286
			S422.259,294.613,437.327,294.613z M437.327,254.959c6.797,0,12.327,5.53,12.327,12.327s-5.53,12.327-12.327,12.327
			S425,274.083,425,267.286S430.53,254.959,437.327,254.959z"/>
		<path d="M74.669,397.036c-15.068,0-27.326,12.258-27.326,27.326s12.258,27.327,27.326,27.327s27.327-12.259,27.327-27.327
			S89.737,397.036,74.669,397.036z M74.669,436.689c-6.797,0-12.326-5.53-12.326-12.327s5.529-12.326,12.326-12.326
			s12.327,5.529,12.327,12.326S81.466,436.689,74.669,436.689z"/>
		<path d="M437.327,397.036c-15.068,0-27.327,12.258-27.327,27.326s12.259,27.327,27.327,27.327s27.327-12.259,27.327-27.327
			S452.395,397.036,437.327,397.036z M437.327,436.689c-6.797,0-12.327-5.53-12.327-12.327s5.53-12.326,12.327-12.326
			s12.327,5.529,12.327,12.326S444.124,436.689,437.327,436.689z"/>
		<path d="M99.39,104.748c-1.22-2.955-4.291-4.843-7.48-4.61c-3.188,0.232-5.945,2.554-6.722,5.652
			c-1.63,6.508,5.836,11.776,11.431,8.058C99.585,111.877,100.705,108.032,99.39,104.748z"/>
		<path d="M98.08,162.738c-1.115-2.847-4.079-4.701-7.106-4.628c-3.064,0.074-5.849,2.079-6.873,4.969
			c-1.041,2.938-0.133,6.347,2.299,8.319c2.545,2.064,6.187,2.257,8.92,0.44C98.248,169.891,99.452,165.99,98.08,162.738z"/>
	</g>
</g>
<g>
</g>
<g>
</g>
<g>
</g>
<g>
</g>
<g>
</g>
<g>
</g>
<g>
</g>
<g>
</g>
<g>
</g>
<g>
</g>
<g>
</g>
<g>
</g>
<g>
</g>
<g>
</g>
<g>
</g>
</svg>
