<?xml version="1.0" encoding="iso-8859-1"?>
<!-- Generator: Adobe Illustrator 21.0.0, SVG Export Plug-In . SVG Version: 6.00 Build 0)  -->
<svg version="1.1" id="Capa_1" xmlns="http://www.w3.org/2000/svg" xmlns:xlink="http://www.w3.org/1999/xlink" x="0px" y="0px"
	 viewBox="0 0 512.001 512.001" style="enable-background:new 0 0 512.001 512.001;" xml:space="preserve">
<g>
	<g>
		<path style="fill:#FA4954;" d="M160.796,262.96c0,0-8.205,57.4,24.131,101.056h142.145
			c32.336-43.656,24.131-101.056,24.131-101.056L256,240.227L160.796,262.96z"/>
		<path style="fill:#E21F2D;" d="M227.448,364.02h-42.52c-32.34-43.66-24.13-101.06-24.13-101.06l95.2-22.73l-38.24,22.73
			C217.757,262.96,214.457,320.36,227.448,364.02z"/>
		<path style="fill:#49CB8B;" d="M256,217.495c0,0-0.472-209.995,113.079-209.995s78.214,100.83,22.852,90.699
			c0,0,26.196,10.089,19.553,37.928c-9.894,41.462-115.906,5.836-115.906,81.367L256,240.227V217.495z"/>
		<path style="fill:#49CB8B;" d="M256,217.49v22.74L231.22,226l-14.8-8.51c0-75.53-106.01-39.9-115.9-81.36
			c-6.65-27.84,19.55-37.93,19.55-37.93c-26.77,4.9-48.87-16.16-51.69-39.21C65.35,34.38,84.29,7.5,142.92,7.5
			C256.47,7.5,256,217.49,256,217.49z"/>
		<path style="fill:#13B766;" d="M256,217.49v22.74L231.22,226c-0.18-2.67-0.28-5.5-0.28-8.51c0-93.05-162.42-189.6-162.56-158.5
			C65.35,34.38,84.29,7.5,142.92,7.5C256.47,7.5,256,217.49,256,217.49z"/>
		<path style="fill:#13B766;" d="M256,217.49v22.74l24.78-14.23c0.18-2.67,0.28-5.5,0.28-8.51c0-93.05,162.42-189.6,162.56-158.5
			c3.03-24.61-15.91-51.49-74.54-51.49C255.531,7.5,256,217.49,256,217.49z"/>
		<path style="fill:#D5694C;" d="M481.768,217.495H30.233c-12.555,0-22.733,10.178-22.733,22.733v0
			c0,12.555,10.178,22.733,22.733,22.733h451.534c12.555,0,22.733-10.178,22.733-22.733v0
			C504.5,227.672,494.323,217.495,481.768,217.495z"/>
		<path style="fill:#A64C31;" d="M81.883,256.309c4.118,4.108,9.805,6.657,16.082,6.657H30.229c-6.277,0-11.954-2.549-16.072-6.657
			c-4.118-4.118-6.657-9.805-6.657-16.082c0-12.554,10.175-22.729,22.728-22.729h67.736c-12.554,0-22.738,10.175-22.738,22.729
			C75.226,246.504,77.775,252.191,81.883,256.309z"/>
	</g>
	<g>
		<path d="M503.144,218.847c-5.711-5.711-13.301-8.856-21.373-8.856H303.517c3.363-28.458,26.68-34.911,60.906-41.082
			c24.119-4.349,49.059-8.845,54.353-31.036c3.418-14.312-0.402-25.331-6.415-33.176c10.984-2.94,20.984-9.622,28.296-19.355
			c11.782-15.686,14.097-35.448,6.041-51.577C432.021,4.387,391.769,0,369.081,0c-31.759,0-58.033,15.021-78.09,44.645
			c-2.322,3.43-1.424,8.093,2.005,10.416c3.429,2.321,8.093,1.424,10.416-2.005C320.508,27.804,342.603,15,369.081,15
			c44.788,0,59.446,15.956,64.197,25.467c5.5,11.011,3.731,24.753-4.615,35.865c-8.669,11.542-21.897,16.959-35.382,14.491
			c-3.811-0.699-7.521,1.619-8.57,5.346c-1.048,3.727,0.912,7.639,4.524,9.03c0.82,0.315,20.018,7.975,14.95,29.19
			c-2.815,11.8-17.905,15.336-42.424,19.756c-16.804,3.03-34.181,6.163-48.26,14.679c-14.897,9.011-23.297,22.842-25.059,41.166
			h-24.776c0.73-21.21,4.685-83.338,26.087-131.875c1.671-3.79-0.046-8.217-3.836-9.888c-3.789-1.671-8.217,0.047-9.888,3.836
			c-9.703,22.003-15.984,46.239-20.053,68.518c-9.463-52.045-26.151-90.356-49.635-113.893C188.67,8.979,167.333,0,142.921,0
			C90.062,0,71.602,21.155,65.303,33.765c-8.056,16.128-5.742,35.891,6.041,51.576c7.313,9.734,17.311,16.416,28.296,19.355
			c-6.012,7.844-9.833,18.863-6.418,33.172c5.296,22.193,30.237,26.691,54.357,31.041c34.225,6.172,57.543,12.627,60.907,41.081
			H30.23C13.562,209.99,0,223.556,0,240.23c0,8.085,3.148,15.678,8.85,21.367c5.702,5.715,13.294,8.863,21.38,8.863h59.84
			c4.142,0,7.5-3.358,7.5-7.5s-3.358-7.5-7.5-7.5H30.23c-4.072,0-7.893-1.583-10.773-4.47C16.583,248.123,15,244.302,15,240.23
			c0-8.403,6.832-15.24,15.23-15.24h451.54c4.065,0,7.889,1.585,10.773,4.47c2.874,2.867,4.457,6.691,4.457,10.77
			c0,8.398-6.832,15.23-15.23,15.23H120.03c-4.142,0-7.5,3.358-7.5,7.5s3.358,7.5,7.5,7.5h32.564
			c-1.049,18.278-0.272,62.138,26.306,98.021c1.415,1.91,3.65,3.036,6.027,3.036h17.409c-5.866,20.14-4.037,41.153,4.86,59.992
			c-9.781,15.742-17.339,31.927-17.339,47.187c0,4.142,3.358,7.5,7.5,7.5s7.5-3.358,7.5-7.5c0-9.873,4.549-21.061,11.047-32.512
			c2.971,4.094,6.308,8.029,10.032,11.752c20.105,20.105,7.477,41.752,6.953,42.626c-2.175,3.525-1.082,8.146,2.444,10.321
			c1.228,0.758,2.587,1.119,3.931,1.119c2.515,0,4.972-1.265,6.39-3.563c6.864-11.122,13.792-38.207-9.111-61.11
			c-4.699-4.699-8.682-9.788-11.939-15.145c4.254-6.383,8.785-12.716,13.153-18.818c7.003-9.784,13.518-18.891,18.244-27.237
			c4.726,8.346,11.241,17.453,18.244,27.237c4.367,6.102,8.899,12.435,13.153,18.818c-3.258,5.357-7.24,10.446-11.939,15.145
			c-22.903,22.903-15.975,49.988-9.111,61.11c1.417,2.298,3.875,3.563,6.39,3.563c1.343,0,2.704-0.361,3.931-1.119
			c3.525-2.175,4.619-6.796,2.444-10.321c-0.033-0.054-3.319-5.562-4.197-13.531c-1.181-10.727,2.57-20.516,11.149-29.095
			c3.723-3.724,7.061-7.658,10.032-11.752c6.498,11.451,11.047,22.64,11.047,32.512c0,4.142,3.358,7.5,7.5,7.5s7.5-3.358,7.5-7.5
			c0-15.26-7.558-31.444-17.339-47.187c8.898-18.838,10.726-39.852,4.86-59.992h17.409c2.376,0,4.612-1.126,6.027-3.036
			c26.578-35.883,27.355-79.743,26.306-98.021h122.365c16.669,0,30.23-13.561,30.23-30.23
			C512,232.138,508.853,224.542,503.144,218.847z M198.502,168.828c-14.08-8.517-31.457-11.65-48.262-14.681
			c-24.521-4.422-39.613-7.959-42.429-19.761c-4.916-20.599,12.943-28.385,14.953-29.188c3.613-1.392,5.573-5.304,4.524-9.031
			c-1.048-3.726-4.756-6.041-8.57-5.346c-13.484,2.467-26.713-2.949-35.383-14.49c-8.346-11.111-10.115-24.853-4.615-35.863
			C83.473,30.957,98.132,15,142.921,15c20.276,0,38.036,7.493,52.786,22.27c45.004,45.085,51.647,144.654,52.625,172.721h-24.771
			C221.798,191.669,213.398,177.838,198.502,168.828z M225.559,404.636c-2.719,3.799-5.496,7.681-8.242,11.622
			c-4.626-14.49-4.489-30.004,0.783-44.741h28.502C242.849,380.475,234.096,392.708,225.559,404.636z M294.684,416.257
			c-2.746-3.94-5.523-7.823-8.242-11.622c-8.537-11.928-17.29-24.161-21.043-33.119h28.502
			C299.173,386.253,299.31,401.768,294.684,416.257z M323.208,356.517H188.792c-21.795-31.815-22.019-70.894-21.131-86.057h176.678
			C345.228,285.631,345.001,324.704,323.208,356.517z"/>
		<path d="M311.48,346.225c0.673,0.188,1.351,0.277,2.017,0.277c3.283,0,6.297-2.172,7.221-5.489
			c5.643-20.257,7.268-40.546,7.637-54c0.114-4.141-3.15-7.589-7.291-7.703c-4.143-0.124-7.589,3.15-7.703,7.291
			c-0.347,12.614-1.859,31.596-7.093,50.387C305.157,340.977,307.49,345.113,311.48,346.225z"/>
		<path d="M191.138,341.012c0.924,3.317,3.938,5.489,7.221,5.489c0.666,0,1.343-0.089,2.017-0.277
			c3.99-1.112,6.324-5.248,5.212-9.238c-5.235-18.792-6.747-37.773-7.093-50.386c-0.114-4.141-3.594-7.41-7.703-7.292
			c-4.141,0.114-7.405,3.563-7.292,7.703C183.871,300.465,185.495,320.754,191.138,341.012z"/>
		<path d="M279.121,346.449c0.294,0.034,0.587,0.051,0.876,0.051c3.754,0,6.996-2.813,7.44-6.633
			c2.311-19.844,2.976-39.761,3.128-52.975c0.047-4.142-3.271-7.538-7.414-7.585c-0.029,0-0.058,0-0.088,0
			c-4.102,0-7.45,3.302-7.498,7.414c-0.147,12.856-0.793,32.211-3.028,51.412C272.06,342.247,275.007,345.97,279.121,346.449z"/>
		<path d="M231.859,346.5c0.29,0,0.582-0.017,0.876-0.051c4.114-0.479,7.062-4.203,6.583-8.317
			c-2.235-19.201-2.881-38.556-3.028-51.412c-0.047-4.113-3.396-7.414-7.498-7.414c-0.029,0-0.059,0-0.088,0
			c-4.142,0.047-7.461,3.444-7.414,7.585c0.152,13.214,0.817,33.131,3.128,52.975C224.863,343.687,228.104,346.5,231.859,346.5z"/>
		<path d="M238.056,182.221c-30.679-113.378-95.975-135.887-98.74-136.79c-3.938-1.286-8.172,0.864-9.458,4.801
			s0.864,8.172,4.801,9.458c0.6,0.196,60.333,20.814,88.917,126.449c0.905,3.343,3.931,5.543,7.235,5.543
			c0.648,0,1.308-0.085,1.963-0.262C236.774,190.337,239.138,186.219,238.056,182.221z"/>
		<path d="M279.226,191.419c0.656,0.177,1.315,0.262,1.963,0.262c3.304,0,6.331-2.201,7.235-5.543
			c14.874-54.97,38.316-86.445,55.361-103.169c18.266-17.922,33.279-23.185,33.586-23.29c3.918-1.298,6.053-5.521,4.771-9.448
			c-1.285-3.937-5.518-6.085-9.458-4.801c-2.765,0.903-68.061,23.412-98.74,136.79C272.863,186.219,275.227,190.337,279.226,191.419
			z"/>
	</g>
</g>
<g>
</g>
<g>
</g>
<g>
</g>
<g>
</g>
<g>
</g>
<g>
</g>
<g>
</g>
<g>
</g>
<g>
</g>
<g>
</g>
<g>
</g>
<g>
</g>
<g>
</g>
<g>
</g>
<g>
</g>
</svg>
