<?xml version="1.0" encoding="iso-8859-1"?>
<!-- Generator: Adobe Illustrator 21.0.0, SVG Export Plug-In . SVG Version: 6.00 Build 0)  -->
<svg version="1.1" id="Capa_1" xmlns="http://www.w3.org/2000/svg" xmlns:xlink="http://www.w3.org/1999/xlink" x="0px" y="0px"
	 viewBox="0 0 511.998 511.998" style="enable-background:new 0 0 511.998 511.998;" xml:space="preserve">
<g>
	<g>
		<path style="fill:#A5E4EF;" d="M452.584,459.026L255.999,481.76L59.665,459.026c0,0-3.638-11.292-8.496-30.129
			C39.515,383.651,20.864,294.844,28.79,214.179c0,0,64.547-106.718,227.334-190.187c9.805,5.029,19.26,10.146,28.366,15.31
			c30.125,17.112,56.411,34.831,79.15,52.126c12.414,9.452,23.778,18.769,34.113,27.807c13.553,11.842,25.357,23.182,35.502,33.636
			c34.782,35.814,50.204,61.308,50.204,61.308C494.682,328.442,452.584,459.026,452.584,459.026z"/>
		<path style="fill:#02C6DB;" d="M452.592,475.523c-1.677,0-3.382-0.258-5.064-0.8c-8.668-2.795-13.43-12.088-10.636-20.756
			c0.487-1.517,39.932-125.854,30.521-234.236c-5.209-7.802-21.06-30.171-49.251-58.712
			c-31.327-31.715-84.56-77.576-162.037-118.439c-77.477,40.863-130.71,86.724-162.037,118.439
			c-28.178,28.529-44.027,50.89-49.251,58.713c-9.421,108.495,30.116,232.979,30.522,234.239
			c2.789,8.668-1.975,17.959-10.643,20.751c-8.667,2.792-17.957-1.967-20.751-10.635c-1.762-5.465-43.019-135.183-31.589-251.517
			c0.241-2.45,1.027-4.816,2.302-6.922c0.699-1.157,17.566-28.77,54.975-66.823C103.793,104.096,162.552,53.436,248.6,9.317
			c4.724-2.422,10.325-2.422,15.049,0c86.047,44.119,144.807,94.779,178.948,129.508c37.409,38.053,54.276,65.666,54.975,66.823
			c1.274,2.107,2.061,4.472,2.302,6.922c11.43,116.334-29.828,246.052-31.589,251.517
			C466.032,471.074,459.557,475.523,452.592,475.523z"/>
		<path style="fill:#49CB8B;" d="M481.765,459.027H30.232c-12.555,0-22.733,10.178-22.733,22.733v0
			c0,12.555,10.178,22.733,22.733,22.733h451.532c12.555,0,22.733-10.178,22.733-22.733v0
			C504.497,469.205,494.32,459.027,481.765,459.027z"/>
		<path style="fill:#13B766;" d="M81.882,497.842c4.118,4.108,9.805,6.657,16.082,6.657H30.228c-6.277,0-11.954-2.549-16.072-6.657
			c-4.118-4.118-6.657-9.805-6.657-16.082c0-12.554,10.175-22.728,22.728-22.728h67.735c-12.554,0-22.738,10.175-22.738,22.728
			C75.225,488.037,77.774,493.724,81.882,497.842z"/>
		<g>
			<g>
				<path style="fill:#FA4954;" d="M235.678,347.292c0,27.895-26.728,75.285-59.698,75.285s-59.698-47.391-59.698-75.285
					s26.728-50.508,59.698-50.508S235.678,319.397,235.678,347.292z"/>
				<path style="fill:#E21F2D;" d="M175.982,422.576c-32.975,0-59.701-47.389-59.701-75.284c0-27.895,26.725-50.506,59.701-50.506
					c-12.459,0-22.553,22.611-22.553,50.506C153.428,375.187,163.523,422.576,175.982,422.576z"/>
				<path style="fill:#49CB8B;" d="M175.979,296.784c0,0-4.264-56.5-68.227-63.963C107.753,232.822,92.828,296.784,175.979,296.784z
					"/>
				<path style="fill:#13B766;" d="M175.979,296.784c0,0,4.264-56.5,68.227-63.963C244.206,232.822,259.131,296.784,175.979,296.784
					z"/>
			</g>
			<g>
				<path style="fill:#FA4954;" d="M395.966,290.378c0,27.895-26.728,75.285-59.698,75.285s-59.698-47.391-59.698-75.285
					c0-27.895,26.728-50.508,59.698-50.508S395.966,262.484,395.966,290.378z"/>
				<path style="fill:#E21F2D;" d="M336.27,365.663c-32.975,0-59.701-47.389-59.701-75.284c0-27.895,26.725-50.506,59.701-50.506
					c-12.459,0-22.553,22.611-22.553,50.506C313.717,318.274,323.811,365.663,336.27,365.663z"/>
				<path style="fill:#49CB8B;" d="M336.268,239.871c0,0-4.264-56.5-68.227-63.963C268.041,175.908,253.117,239.871,336.268,239.871
					z"/>
				<path style="fill:#13B766;" d="M336.268,239.871c0,0,4.264-56.5,68.227-63.963C404.495,175.908,419.419,239.871,336.268,239.871
					z"/>
			</g>
		</g>
	</g>
	<g>
		<path d="M481.764,451.527h-1.909c10.439-36.975,36.956-143.294,27.486-239.689c-0.347-3.539-1.51-7.024-3.352-10.061
			c-0.713-1.183-17.903-29.411-56.044-68.205C413.42,98.451,354.015,47.226,267.082,2.652c-6.855-3.528-15.044-3.529-21.905-0.005
			C158.232,47.225,98.826,98.451,64.301,133.572c-38.08,38.731-55.327,67.016-56.035,68.188c-1.845,3.042-3.003,6.527-3.351,10.076
			c-9.476,96.451,17.035,202.728,27.475,239.691h-2.158C13.562,451.527,0,465.09,0,481.76s13.562,30.232,30.232,30.232h451.532
			c16.671,0,30.233-13.562,30.233-30.232S498.435,451.527,481.764,451.527z M19.844,213.3c0.132-1.347,0.552-2.613,1.256-3.774
			c0.678-1.124,17.038-27.948,53.898-65.438c33.75-34.334,91.859-84.428,177.027-128.096c2.569-1.32,5.63-1.32,8.202,0.002
			c85.162,43.666,143.271,93.759,177.022,128.094c36.917,37.549,53.219,64.313,53.905,65.451c0.704,1.161,1.128,2.426,1.259,3.763
			c9.601,97.731-18.957,206.5-28.157,238.224h-18.779c7.155-23.97,37.928-134.356,29.402-232.447
			c-0.109-1.255-0.532-2.463-1.231-3.511c-5.577-8.365-21.628-30.939-50.154-59.82c-24.983-25.292-53.555-49.338-84.922-71.467
			c-3.384-2.388-8.064-1.579-10.451,1.805c-2.389,3.385-1.58,8.064,1.805,10.452c30.644,21.62,58.534,45.088,82.896,69.751
			c25.957,26.28,41.117,46.976,47.276,56.014c8.544,104.974-28.754,224.332-30.305,229.223H82.453
			c-1.401-4.402-38.879-123.768-30.303-229.221c6.18-9.06,21.376-29.794,47.276-56.016c30.184-30.559,81.726-75.151,156.703-115.218
			c16.87,9.019,33.405,18.726,49.204,28.886c3.481,2.239,8.124,1.233,10.364-2.251c2.241-3.483,1.233-8.124-2.251-10.365
			c-17.25-11.094-35.356-21.657-53.817-31.395c-2.189-1.157-4.808-1.156-6.998,0c-78.569,41.434-132.483,88.019-163.876,119.802
			c-28.46,28.814-44.554,51.43-50.152,59.816c-0.701,1.049-1.125,2.258-1.234,3.515c-8.455,97.388,22.287,208.409,29.411,232.446
			H47.991C38.79,419.816,10.236,311.093,19.844,213.3z M481.764,496.992H30.232c-8.399,0-15.232-6.833-15.232-15.232
			c0-8.399,6.833-15.233,15.232-15.233h451.532c8.399,0,15.233,6.833,15.233,15.233
			C496.998,490.159,490.164,496.992,481.764,496.992z"/>
		<path d="M240.922,280.065c16.814-21.189,10.85-47.824,10.587-48.947c-0.867-3.715-4.38-6.188-8.173-5.746
			c-36.064,4.208-54.522,23.184-63.656,38.362c-1.402,2.33-2.625,4.639-3.701,6.891c-1.076-2.252-2.299-4.561-3.701-6.891
			c-9.134-15.178-27.592-34.154-63.656-38.362c-3.787-0.44-7.306,2.031-8.173,5.746c-0.262,1.124-6.227,27.758,10.588,48.947
			c6.769,8.531,16.127,14.806,27.933,18.838c-18.175,10.394-30.19,28.198-30.19,48.386c0,10.435,3.196,23.004,8.999,35.391
			c1.757,3.751,6.222,5.367,9.973,3.61c3.751-1.757,5.367-6.222,3.61-9.973c-4.818-10.286-7.582-20.866-7.582-29.028
			c0-23.68,23.347-42.949,52.071-43.007c0.044,0,0.085,0.002,0.129,0.002c0.043,0,0.085-0.002,0.128-0.002
			c28.724,0.058,52.071,19.327,52.071,43.007c0,12.703-6.327,29.89-16.117,43.788c-10.747,15.253-23.898,24.002-36.083,24.002
			c-12.396,0-22.828-8.523-29.396-15.674c-2.803-3.051-7.548-3.251-10.597-0.45c-3.05,2.802-3.252,7.547-0.45,10.597
			c12.335,13.428,26.321,20.526,40.443,20.526c37.094,0,67.2-50.096,67.2-82.79c0-20.188-12.015-37.992-30.19-48.386
			C224.794,294.871,234.153,288.596,240.922,280.065z M122.874,270.85c-7.926-9.911-8.912-22.001-8.592-29.43
			c37.199,7.295,48.989,33.808,52.64,47.583C146.247,287.665,131.452,281.576,122.874,270.85z M185.109,288.998
			c1.291-4.775,3.545-11.084,7.424-17.529c9.632-16.006,24.796-26.093,45.143-30.054c0.321,7.437-0.666,19.526-8.591,29.435
			C220.517,281.563,205.748,287.652,185.109,288.998z"/>
		<path d="M154.659,326.596c-4.142,0-7.5,3.358-7.5,7.5v10.66c0,4.142,3.358,7.5,7.5,7.5s7.5-3.358,7.5-7.5v-10.66
			C162.159,329.954,158.801,326.596,154.659,326.596z"/>
		<path d="M183.479,359.681V349.02c0-4.142-3.358-7.5-7.5-7.5s-7.5,3.358-7.5,7.5v10.661c0,4.142,3.358,7.5,7.5,7.5
			S183.479,363.823,183.479,359.681z"/>
		<path d="M151.423,374.605v10.661c0,4.142,3.358,7.5,7.5,7.5s7.5-3.358,7.5-7.5v-10.661c0-4.142-3.358-7.5-7.5-7.5
			S151.423,370.463,151.423,374.605z"/>
		<path d="M191.97,316.349c-4.142,0-7.5,3.358-7.5,7.5v10.66c0,4.142,3.358,7.5,7.5,7.5s7.5-3.358,7.5-7.5v-10.66
			C199.47,319.707,196.112,316.349,191.97,316.349z"/>
		<path d="M194.957,360.747v10.661c0,4.142,3.358,7.5,7.5,7.5s7.5-3.358,7.5-7.5v-10.661c0-4.142-3.358-7.5-7.5-7.5
			S194.957,356.605,194.957,360.747z"/>
		<path d="M260.738,174.204c-0.263,1.124-6.227,27.757,10.588,48.947c6.77,8.532,16.13,14.808,27.938,18.84
			c-18.177,10.393-30.194,28.198-30.194,48.387c0,32.691,30.104,82.786,67.198,82.786s67.198-50.094,67.198-82.786
			c0-20.189-12.017-37.994-30.194-48.387c11.808-4.032,21.168-10.308,27.938-18.84c16.814-21.189,10.851-47.823,10.588-48.947
			c-0.867-3.716-4.391-6.184-8.173-5.746c-36.064,4.208-54.522,23.184-63.656,38.362c-1.402,2.33-2.625,4.639-3.701,6.891
			c-1.076-2.252-2.299-4.561-3.701-6.891c-9.134-15.178-27.592-34.154-63.656-38.362
			C265.13,168.021,261.605,170.489,260.738,174.204z M388.466,290.378c0,12.701-6.326,29.887-16.116,43.784
			c-10.746,15.253-23.897,24.001-36.082,24.001s-25.336-8.748-36.082-24.001c-9.79-13.897-16.116-31.083-16.116-43.784
			c0-23.714,23.416-43.008,52.198-43.008S388.466,266.664,388.466,290.378z M397.965,184.507c0.32,7.437-0.668,19.521-8.591,29.429
			c-8.579,10.726-23.374,16.815-44.048,18.153C348.978,218.314,360.765,191.802,397.965,184.507z M274.57,184.506
			c37.199,7.295,48.988,33.808,52.64,47.583c-20.675-1.337-35.469-7.427-44.048-18.153
			C275.236,204.025,274.25,191.935,274.57,184.506z"/>
		<path d="M314.947,295.343c4.143,0,7.5-3.358,7.5-7.5v-10.661c0-4.142-3.357-7.5-7.5-7.5s-7.5,3.358-7.5,7.5v10.661
			C307.447,291.985,310.804,295.343,314.947,295.343z"/>
		<path d="M336.268,310.267c4.143,0,7.5-3.358,7.5-7.5v-10.661c0-4.142-3.357-7.5-7.5-7.5s-7.5,3.358-7.5,7.5v10.661
			C328.768,306.909,332.125,310.267,336.268,310.267z"/>
		<path d="M311.711,317.692v10.661c0,4.142,3.357,7.5,7.5,7.5s7.5-3.358,7.5-7.5v-10.661c0-4.142-3.357-7.5-7.5-7.5
			S311.711,313.55,311.711,317.692z"/>
		<path d="M352.258,285.096c4.143,0,7.5-3.358,7.5-7.5v-10.661c0-4.142-3.357-7.5-7.5-7.5s-7.5,3.358-7.5,7.5v10.661
			C344.758,281.738,348.116,285.096,352.258,285.096z"/>
		<path d="M355.245,303.833v10.66c0,4.142,3.357,7.5,7.5,7.5s7.5-3.358,7.5-7.5v-10.66c0-4.142-3.357-7.5-7.5-7.5
			S355.245,299.691,355.245,303.833z"/>
	</g>
</g>
<g>
</g>
<g>
</g>
<g>
</g>
<g>
</g>
<g>
</g>
<g>
</g>
<g>
</g>
<g>
</g>
<g>
</g>
<g>
</g>
<g>
</g>
<g>
</g>
<g>
</g>
<g>
</g>
<g>
</g>
</svg>
