<?xml version="1.0" encoding="iso-8859-1"?>
<!-- Generator: Adobe Illustrator 21.0.0, SVG Export Plug-In . SVG Version: 6.00 Build 0)  -->
<svg version="1.1" id="Capa_1" xmlns="http://www.w3.org/2000/svg" xmlns:xlink="http://www.w3.org/1999/xlink" x="0px" y="0px"
	 viewBox="0 0 511.992 511.992" style="enable-background:new 0 0 511.992 511.992;" xml:space="preserve">
<g>
	<g>
		<path style="fill:#02C6DB;" d="M153.955,153.411L153.955,153.411c-8.285,0-15.001,6.716-15.001,15.001v71.236h30.001v-71.236
			C168.955,160.126,162.24,153.411,153.955,153.411z"/>
		<polygon style="fill:#E3DFE2;" points="427.156,202.662 421.3,252.669 345.289,424.701 320.766,308.151 311.257,262.939 
			377.149,208.528 381.353,208.037 		"/>
		<polygon style="fill:#C5BEC7;" points="391.442,222.811 320.766,308.151 311.257,262.939 377.149,208.528 381.353,208.037 		"/>
		<polygon style="fill:#E3DFE2;" points="477.161,234.749 421.298,252.674 377.147,208.523 395.072,152.66 445.34,184.481 		"/>
		<polygon style="fill:#C5BEC7;" points="445.341,184.48 421.639,179.225 391.44,222.806 377.147,208.523 395.074,152.66 		"/>
		<path style="fill:#02C6DB;" d="M389.999,129.14L389.999,129.14c-5.094,5.094-5.094,13.353,0,18.447l92.235,92.235
			c5.094,5.094,13.353,5.094,18.447,0l0,0c5.094-5.094,5.094-13.353,0-18.447l-92.235-92.235
			C403.352,124.046,395.093,124.046,389.999,129.14z"/>
		<path style="fill:#02B0CC;" d="M437.504,158.197c-5.105-4.945-13.252-4.894-18.287,0.15c-5.095,5.095-5.095,13.353,0,18.448
			l-29.218-29.208c-5.095-5.095-5.095-13.352,0-18.447c5.095-5.095,13.352-5.095,18.447,0L437.504,158.197z"/>
		<path style="fill:#02C6DB;" d="M77.417,386.349c-1.787-0.172-17.926-1.977-34.386-12.224c-15.953-9.931-34.97-29.581-34.97-66.795
			c0-4.739-0.107-10.304-0.23-16.748c-0.673-35.139-1.798-93.95,13.508-146.576C40.693,77.464,80.719,37.925,140.307,26.488
			c37.484-7.197,68.623-0.818,92.55,18.953c22.328,18.45,37.607,47.522,46.709,88.879c6.77,30.756,10.06,68.574,10.06,115.615
			c0,8.292-6.722,15.014-15.014,15.014c-8.292,0-15.014-6.722-15.014-15.014c0-96.524-15.003-155.843-45.868-181.346
			c-16.929-13.989-39.092-18.115-67.763-12.612c-48.285,9.269-79.619,40.806-95.793,96.414
			c-14.029,48.236-13,102.024-12.319,137.616c0.126,6.598,0.236,12.295,0.236,17.322c0,18.705,6.545,32.048,20.008,40.793
			c10.803,7.016,22.182,8.334,22.295,8.347l-1.537,14.935L77.417,386.349z"/>
		<path style="fill:#FCDD2E;" d="M340.122,488.382c15.653-75.246-3.913-223.154-60.002-265.838H123.302
			C67.213,265.228,47.647,413.136,63.3,488.382H340.122z"/>
		<path style="fill:#F9C301;" d="M138.241,488.382H63.3c-15.655-75.241,3.914-223.151,60.007-265.841h42.45
			C140.032,265.231,131.064,413.13,138.241,488.382z"/>
	</g>
	<path d="M505.985,216.072l-92.235-92.235c-3.88-3.88-9.039-6.018-14.526-6.018c-5.488,0-10.647,2.137-14.527,6.018
		c-8.01,8.01-8.01,21.043,0,29.053l1.836,1.836l-15.856,49.414l-57.145,47.194c-4.89-8.559-10.423-16.523-16.669-23.43
		c-0.902-37.601-4.163-68.78-9.971-95.198c-9.474-43.051-25.587-73.486-49.262-93.044c-25.738-21.268-58.957-28.178-98.739-20.542
		C76.311,31.136,34.339,72.449,14.142,141.913C-1.483,195.643-0.347,255.165,0.331,290.725l0.023,1.233
		c0.11,5.904,0.206,11.004,0.206,15.372c0,40.66,20.941,62.228,38.508,73.16c4.261,2.654,8.803,4.971,13.553,6.93
		c-1.199,12.835-1.861,25.466-1.994,37.549c-0.045,4.142,3.275,7.537,7.417,7.583c4.134,0.063,7.537-3.275,7.583-7.417
		c0.437-39.524,6.313-80.56,16.549-115.545c11.005-37.616,26.093-65.04,43.73-79.549h151.604
		c50.04,41.125,69.283,176.919,56.409,250.841H69.507c-1.401-8.042-2.437-16.872-3.086-26.335c-0.283-4.133-3.866-7.239-7.996-6.969
		c-4.132,0.284-7.252,3.863-6.969,7.996c0.86,12.546,2.376,24.098,4.504,34.335c0.723,3.479,3.789,5.974,7.343,5.974h276.821
		c3.554,0,6.619-2.494,7.343-5.972c3.781-18.175,5.549-40.15,5.355-63.702l54.859-124.154c1.674-3.789-0.04-8.217-3.829-9.892
		c-3.785-1.674-8.217,0.041-9.892,3.829l-42.678,96.585c-1.383-16.895-3.683-34.048-6.893-50.739
		c-3.911-20.339-11.218-50.1-23.808-76.875l56.082-46.316l35.697,35.696l-6.269,14.193c-1.674,3.789,0.041,8.217,3.83,9.891
		c0.985,0.436,2.014,0.642,3.026,0.642c2.879,0,5.626-1.668,6.864-4.472l6.984-15.812l48.297-15.497l1.836,1.836
		c4.006,4.005,9.267,6.008,14.527,6.008s10.521-2.003,14.527-6.008C513.995,237.115,513.994,224.082,505.985,216.072z
		 M123.299,215.041c-1.642,0-3.237,0.538-4.543,1.532c-29.474,22.436-48.95,71.15-59.271,123.327
		c-9.452-7.297-13.896-17.733-13.896-32.569c0-4.78-0.097-10.091-0.209-16.24l-0.023-1.25
		c-0.672-35.131-1.687-88.222,12.015-135.352c15.313-52.647,44.757-82.463,90.012-91.15c26.334-5.047,46.473-1.44,61.565,11.029
		c12.686,10.478,22.691,27.894,29.739,51.766c6.82,23.099,11.075,52.982,12.672,88.907h-74.904v-46.629
		c0-12.407-10.094-22.5-22.501-22.5c-12.406,0-22.5,10.094-22.5,22.5v46.629H123.299z M146.454,215.041v-46.629
		c0-4.136,3.364-7.5,7.5-7.5s7.501,3.365,7.501,7.5v46.629H146.454z M266.375,215.041c-3.407-78.622-19.089-128.462-47.874-152.237
		c-18.755-15.494-42.943-20.136-73.944-14.195C93.236,58.459,60.006,91.723,42.968,150.301
		C28.629,199.623,29.67,254.087,30.36,290.141l0.022,1.223c0.111,6.076,0.207,11.324,0.207,15.966
		c0,21.151,7.882,36.991,23.418,47.075c0.845,0.55,1.716,1.073,2.598,1.583c-0.844,5.257-1.599,10.524-2.263,15.78
		c-2.54-1.216-4.998-2.55-7.346-4.012c-14.341-8.925-31.436-26.653-31.436-60.426c0-4.509-0.097-9.673-0.209-15.653l-0.022-1.236
		c-0.663-34.709-1.772-92.803,13.216-144.341C47.042,82.484,85.12,44.718,141.719,33.852c35.178-6.755,64.232-0.909,86.357,17.374
		c20.993,17.343,35.439,45.049,44.165,84.702c4.918,22.368,7.944,48.419,9.205,79.24c-0.437-0.079-0.88-0.127-1.329-0.127H266.375z
		 M423.365,244.134l-37.678-37.678l12.771-39.802l64.709,64.709L423.365,244.134z M495.377,234.519c-2.16,2.162-5.68,2.161-7.84,0
		l-92.234-92.235c-2.162-2.162-2.162-5.679,0-7.84c1.047-1.047,2.438-1.624,3.92-1.624c1.48,0,2.872,0.577,3.919,1.624
		l92.235,92.235C497.539,228.84,497.539,232.357,495.377,234.519z"/>
</g>
<g>
</g>
<g>
</g>
<g>
</g>
<g>
</g>
<g>
</g>
<g>
</g>
<g>
</g>
<g>
</g>
<g>
</g>
<g>
</g>
<g>
</g>
<g>
</g>
<g>
</g>
<g>
</g>
<g>
</g>
</svg>
