<?xml version="1.0" encoding="iso-8859-1"?>
<!-- Generator: Adobe Illustrator 21.0.0, SVG Export Plug-In . SVG Version: 6.00 Build 0)  -->
<svg version="1.1" id="Capa_1" xmlns="http://www.w3.org/2000/svg" xmlns:xlink="http://www.w3.org/1999/xlink" x="0px" y="0px"
	 viewBox="0 0 512.004 512.004" style="enable-background:new 0 0 512.004 512.004;" xml:space="preserve">
<g>
	<g>
		<g>
			<path style="fill:#FA4954;" d="M138.225,428.716c-1.742,24.012-5.472,48.378-10.508,73.024c-33.254,3.702-66.503,3.702-99.758,0
				c-5.036-24.646-8.766-49.012-10.508-73.024c-1.043-14.305-1.375-28.488-0.859-42.531c0.057-1.595,0.126-3.189,0.206-4.774
				c40.691-5.548,81.383-5.548,122.08,0c0.08,1.585,0.149,3.18,0.206,4.774C139.6,400.228,139.268,414.412,138.225,428.716z"/>
			<path style="fill:#E21F2D;" d="M60.773,504.192c-10.938-0.42-21.876-1.24-32.813-2.452
				c-8.371-40.983-13.138-81.184-11.161-120.33c13.476-1.837,26.952-3.068,40.434-3.683
				C56.687,418.924,58.166,461.167,60.773,504.192z"/>
			<path style="fill:#E21F2D;" d="M138.225,428.716H17.451c-1.043-14.305-1.375-28.488-0.859-42.531h122.493
				C139.6,400.228,139.268,414.412,138.225,428.716z"/>
			<path style="fill:#FA4954;" d="M139.045,412.917H16.63c-4.959,0-8.978-4.02-8.978-8.978v-24.575c0-4.959,4.02-8.978,8.978-8.978
				h122.415c4.959,0,8.978,4.02,8.978,8.978v24.575C148.023,408.897,144.003,412.917,139.045,412.917z"/>
			<path style="fill:#E21F2D;" d="M47.73,412.923H14.693c-3.89,0-7.042-5.129-7.042-11.46v-19.62c0-6.322,3.151-11.451,7.042-11.451
				H47.73c-3.885,0-7.036,5.129-7.036,11.451v19.62C40.694,407.795,43.845,412.923,47.73,412.923z"/>
		</g>
		<g>
			<path style="fill:#FA4954;" d="M494.554,428.716c-1.742,24.012-5.472,48.378-10.508,73.024c-33.255,3.702-66.503,3.702-99.758,0
				c-5.036-24.646-8.766-49.012-10.508-73.024c-1.043-14.305-1.375-28.488-0.859-42.531c0.057-1.595,0.126-3.189,0.206-4.774
				c40.691-5.548,81.383-5.548,122.08,0c0.08,1.585,0.149,3.18,0.206,4.774C495.929,400.228,495.597,414.412,494.554,428.716z"/>
			<path style="fill:#E21F2D;" d="M417.102,504.192c-10.938-0.42-21.876-1.24-32.813-2.452
				c-8.371-40.983-13.138-81.184-11.161-120.33c13.476-1.837,26.952-3.068,40.434-3.683
				C413.017,418.924,414.495,461.167,417.102,504.192z"/>
			<path style="fill:#E21F2D;" d="M494.554,428.716H373.78c-1.043-14.305-1.375-28.488-0.859-42.531h122.493
				C495.929,400.228,495.597,414.412,494.554,428.716z"/>
			<path style="fill:#FA4954;" d="M495.374,412.917H372.959c-4.959,0-8.978-4.02-8.978-8.978v-24.575
				c0-4.959,4.02-8.978,8.978-8.978h122.415c4.959,0,8.978,4.02,8.978,8.978v24.575
				C504.352,408.897,500.333,412.917,495.374,412.917z"/>
			<path style="fill:#E21F2D;" d="M404.059,412.923h-33.037c-3.89,0-7.042-5.129-7.042-11.46v-19.62
				c0-6.322,3.151-11.451,7.042-11.451h33.037c-3.885,0-7.036,5.129-7.036,11.451v19.62
				C397.023,407.795,400.174,412.923,404.059,412.923z"/>
		</g>
		<g>
			<path style="fill:#FA4954;" d="M316.39,428.716c-1.742,24.012-5.472,48.378-10.508,73.024c-33.254,3.702-66.503,3.702-99.758,0
				c-5.036-24.646-8.766-49.012-10.508-73.024c-1.043-14.305-1.375-28.488-0.859-42.531c0.057-1.595,0.126-3.189,0.206-4.774
				c40.691-5.548,81.383-5.548,122.08,0c0.08,1.585,0.149,3.18,0.206,4.774C317.765,400.228,317.432,414.412,316.39,428.716z"/>
			<path style="fill:#E21F2D;" d="M238.937,504.192c-10.938-0.42-21.876-1.24-32.813-2.452
				c-8.371-40.983-13.138-81.184-11.161-120.33c13.476-1.837,26.952-3.068,40.434-3.683
				C234.852,418.924,236.33,461.167,238.937,504.192z"/>
			<path style="fill:#E21F2D;" d="M316.39,428.716H195.616c-1.043-14.305-1.375-28.488-0.859-42.531h122.493
				C317.765,400.228,317.432,414.412,316.39,428.716z"/>
			<path style="fill:#FA4954;" d="M317.209,412.917H194.794c-4.959,0-8.978-4.02-8.978-8.978v-24.575
				c0-4.959,4.02-8.978,8.978-8.978h122.415c4.959,0,8.978,4.02,8.978,8.978v24.575
				C326.188,408.897,322.168,412.917,317.209,412.917z"/>
			<path style="fill:#E21F2D;" d="M225.894,412.923h-33.037c-3.89,0-7.042-5.129-7.042-11.46v-19.62
				c0-6.322,3.151-11.451,7.042-11.451h33.037c-3.885,0-7.036,5.129-7.036,11.451v19.62
				C218.858,407.795,222.01,412.923,225.894,412.923z"/>
		</g>
		<g>
			<path style="fill:#49CB8B;" d="M395.119,153.993c-20.434,2.997-30.242,33.239-30.242,65.66c0,33.129-35.418,65.933-62.936,41.14
				c-27.517-24.793-9.263-56.67-9.263-56.67c-13.622,9.808-61.029-7.629-44.682-41.412c19.328-39.945,103.531-27.245,103.531-27.245
				C376.229,138.464,395.119,153.993,395.119,153.993z"/>
			<path style="fill:#13B766;" d="M292.678,204.132c-13.623,9.81-61.031-7.627-44.682-41.42
				c19.335-39.94,103.53-27.246,103.53-27.246c24.695,3.002,43.586,18.532,43.586,18.532
				C331.088,149.365,292.678,204.132,292.678,204.132z"/>
		</g>
		<g>
			<path style="fill:#49CB8B;" d="M115.045,27.962c20.434,2.997,30.242,33.239,30.242,65.66c0,33.129,35.418,65.933,62.936,41.14
				s9.263-56.67,9.263-56.67c13.622,9.808,61.029-7.629,44.682-41.412C242.84-3.264,158.637,9.436,158.637,9.436
				C133.935,12.433,115.045,27.962,115.045,27.962z"/>
			<path style="fill:#13B766;" d="M217.486,78.101c13.623,9.81,61.031-7.627,44.682-41.42C242.833-3.26,158.637,9.435,158.637,9.435
				c-24.695,3.002-43.586,18.532-43.586,18.532C179.076,23.334,217.486,78.101,217.486,78.101z"/>
		</g>
		<g>
			<path style="fill:#49CB8B;" d="M160.968,238.708c-15.662,6.309-17.644,32.226-11.413,57.99
				c6.367,26.327-15.474,59.202-42.106,44.788s-18.253-43.253-18.253-43.253c-8.94,10.412-49.964,5.667-43.466-24.321
				c7.682-35.457,77.036-41.549,77.036-41.549C142.972,229.998,160.968,238.708,160.968,238.708z"/>
			<path style="fill:#13B766;" d="M89.198,298.241c-8.94,10.414-49.965,5.669-43.468-24.328
				c7.688-35.455,77.036-41.549,77.036-41.549c20.201-2.36,38.198,6.35,38.198,6.35C109.195,247.337,89.198,298.241,89.198,298.241z
				"/>
		</g>
	</g>
	<g>
		<path d="M495.374,362.885h-53.425c0.858-15.786,2.685-29.409,5.124-41.141c0.078-0.224,0.169-0.439,0.227-0.674
			c1.898-7.817,13.229-10.737,13.305-10.755c4.038-0.921,6.566-4.941,5.646-8.979c-0.921-4.038-4.942-6.566-8.979-5.646
			c-0.193,0.044-1.413,0.336-3.205,0.962c7.078-19.566,15.712-30.99,22.001-37.278c2.929-2.929,2.929-7.678,0-10.606
			c-2.93-2.929-7.678-2.929-10.607,0c-21.667,21.668-31.434,56.099-35.747,85.826c-10.248-23.546-23.48-37.013-24.263-37.795
			c-2.929-2.929-7.677-2.93-10.607,0c-2.929,2.929-2.929,7.678,0,10.606c0.219,0.22,20.406,20.76,28.5,55.48h-50.383
			c-9.086,0-16.479,7.392-16.479,16.479v24.575c0,6.463,3.75,12.054,9.18,14.752c0.318,6.591,0.798,13.353,1.443,20.184
			c0.367,3.884,3.634,6.795,7.458,6.795c0.236,0,0.475-0.011,0.714-0.034c4.124-0.39,7.151-4.048,6.762-8.172
			c-0.544-5.76-0.961-11.46-1.265-17.046H487.57c-1.239,22.848-4.457,47.326-9.793,74.44c-28.964,2.858-58.252,2.857-87.224,0
			c-1.894-9.625-3.541-19.045-4.909-28.07c-0.62-4.096-4.451-6.915-8.539-6.292c-4.095,0.621-6.912,4.444-6.291,8.539
			c1.659,10.954,3.72,22.463,6.124,34.21c0.652,3.188,3.285,5.591,6.519,5.95c16.827,1.871,33.771,2.806,50.713,2.806
			s33.884-0.936,50.705-2.806c3.233-0.36,5.867-2.764,6.519-5.952c6.342-31.014,10.045-58.742,11.29-84.558
			c5.425-2.7,9.17-8.287,9.17-14.747v-24.575C511.852,370.277,504.46,362.885,495.374,362.885z M371.48,379.364
			c0-0.815,0.663-1.479,1.479-1.479h122.415c0.815,0,1.479,0.663,1.479,1.479v24.575c0,0.815-0.663,1.479-1.479,1.479H372.959
			c-0.815,0-1.479-0.663-1.479-1.479V379.364z"/>
		<path d="M164.235,231.957c-0.813-0.394-20.158-9.602-42.236-7.055c-4.354,0.395-74.934,7.426-83.6,47.422
			c-3.186,14.706,2.812,27.413,16.044,33.992c6.53,3.247,14.099,4.664,21.082,4.382c-3.825,13.375-5.776,30.904-5.821,52.186H16.63
			c-9.086,0-16.479,7.392-16.479,16.479v24.575c0,6.462,3.748,12.052,9.177,14.75c1.245,25.84,4.947,53.567,11.283,84.554
			c0.651,3.188,3.284,5.592,6.518,5.952c16.824,1.873,33.767,2.809,50.709,2.809s33.885-0.937,50.709-2.809
			c3.233-0.36,5.866-2.764,6.518-5.951c6.336-30.981,10.038-58.708,11.284-84.555c5.427-2.699,9.175-8.288,9.175-14.75v-24.575
			c0-9.086-7.393-16.479-16.479-16.479H84.702c0.035-12.865,0.811-23.079,1.868-31.055c3.638,6.126,9.164,11.844,17.31,16.252
			c5.432,2.94,11.04,4.399,16.536,4.399c6.93,0,13.68-2.322,19.66-6.925c14.172-10.909,21.224-32.198,16.769-50.621
			c-5.936-24.542-3.022-45.264,6.926-49.271c2.752-1.108,4.593-3.736,4.693-6.702S166.906,233.25,164.235,231.957z M121.448,494.858
			c-28.965,2.861-58.254,2.861-87.221,0c-5.334-27.095-8.548-51.571-9.788-74.44h106.797
			C129.996,443.291,126.781,467.77,121.448,494.858z M140.523,379.364v24.575c0,0.815-0.663,1.479-1.479,1.479H16.63
			c-0.815,0-1.479-0.663-1.479-1.479v-24.575c0-0.815,0.663-1.479,1.479-1.479h122.415
			C139.86,377.885,140.523,378.548,140.523,379.364z M139.645,259.225c-1.787,11.193-0.881,24.761,2.619,39.236
			c3.028,12.519-1.952,27.984-11.338,35.209c-6.071,4.673-12.769,5.083-19.908,1.22c-19.776-10.703-15.413-31.393-14.702-34.249
			c1.326-3.15,12.626-28.567,37.633-43.946c3.528-2.17,4.63-6.789,2.46-10.317c-2.17-3.529-6.79-4.631-10.317-2.46
			c-27.196,16.725-40.173,43.107-43.187,49.943c-3.129,2.168-13.364,3.211-21.785-0.976c-7.185-3.573-9.822-9.259-8.062-17.385
			c5.329-24.597,52.602-34.086,70.362-35.666c0.072-0.006,0.145-0.014,0.216-0.022c8.34-0.976,16.356,0.21,22.521,1.744
			C143.278,245.753,140.885,251.461,139.645,259.225z"/>
		<path d="M396.207,161.414c2.937-0.43,5.343-2.552,6.138-5.411c0.795-2.859-0.17-5.918-2.463-7.803
			c-0.839-0.69-20.832-16.912-47.347-20.166c-4.349-0.645-69.442-9.748-100.211,17.061c-5.688-28.517-12.636-46.298-18.486-57.188
			c9.047-1.204,18.715-5.18,26.218-11.484c13.409-11.268,16.64-26.944,8.863-43.009C247.611-10.621,162.631,1.263,157.632,2.005
			c-26.518,3.256-46.509,19.479-47.349,20.168c-2.292,1.885-3.258,4.945-2.462,7.805s3.204,4.98,6.141,5.41
			c11.74,1.716,20.608,18.581,23.145,44.013c0.41,4.122,4.079,7.126,8.207,6.719c4.122-0.411,7.13-4.085,6.719-8.207
			c-2.439-24.464-10.034-42.199-21.493-51.137c7.209-4,17.474-8.493,29.005-9.892c0.07-0.008,0.143-0.019,0.212-0.029
			c21.91-3.284,81.806-5.539,95.661,23.095c4.744,9.801,3.059,18.21-5.012,24.991c-9.626,8.09-23.133,9.58-27.777,7.496
			c-4.946-6.55-27.813-34.587-65.143-46.712c-3.934-1.278-8.17,0.876-9.449,4.816c-1.28,3.939,0.876,8.17,4.816,9.45
			c34.797,11.302,56.085,39.151,58.283,42.13c0.72,1.386,3.749,7.617,4.577,15.768c1.236,12.176-2.973,22.707-12.513,31.301
			c-6.768,6.1-14.183,8.091-22.036,5.919c-11.479-3.173-22.101-14.773-26.427-28.863c-1.217-3.96-5.418-6.182-9.371-4.968
			c-3.96,1.216-6.185,5.412-4.969,9.371c5.861,19.087,20.295,34.363,36.77,38.918c3.34,0.923,6.684,1.379,9.989,1.379
			c9.312,0,18.323-3.618,26.084-10.612c8.684-7.823,13.539-16.527,15.877-25.105c3.807,11.342,7.717,26.541,11.01,46.722
			c-5.254,12.69-3.632,25.005,4.467,34.943c0.601,6.177,1.135,12.547,1.596,19.115c-5.551-2.775-11.63-3.995-16.753-3.995
			c-4.126,0-7.455,3.333-7.479,7.458c-0.022,4.126,3.313,7.496,7.438,7.542c0.052,0,5.258,0.084,10.128,2.411
			c4.968,2.373,7.553,6.07,8.042,11.533c0.595,14.397,0.899,29.533,0.899,45.341v26.14c-0.097-0.051-0.201-0.113-0.296-0.161
			c-3.696-1.867-8.246-0.403-10.113,3.295c-1.866,3.697-0.42,8.189,3.277,10.056c0.291,0.156,7.132,3.902,7.132,11.576v25.681
			h-53.673c-9.086,0-16.479,7.392-16.479,16.479v24.575c0,6.462,3.748,12.052,9.177,14.75c1.245,25.84,4.947,53.567,11.283,84.554
			c0.651,3.188,3.284,5.592,6.518,5.952c16.824,1.873,33.767,2.809,50.709,2.809s33.885-0.937,50.709-2.809
			c3.233-0.36,5.866-2.764,6.518-5.952c6.337-30.988,10.038-58.715,11.283-84.555c5.427-2.699,9.175-8.288,9.175-14.749v-24.575
			c0-9.086-7.393-16.479-16.479-16.479h-53.741v-75.749c5.24-23.344,11.09-39.871,16.403-51.441
			c1.588,10.32,6.481,21.148,17.05,30.67c7.777,7.007,16.825,10.598,26.123,10.598c5.26,0,10.601-1.149,15.835-3.479
			c19.41-8.638,33.498-31.277,33.498-53.831C372.377,187.421,382.177,163.472,396.207,161.414z M299.613,494.858
			c-28.967,2.861-58.256,2.861-87.221,0c-5.334-27.095-8.548-51.571-9.788-74.44h106.796
			C308.162,443.286,304.947,467.763,299.613,494.858z M318.687,379.364v24.575c0,0.815-0.663,1.479-1.479,1.479H194.795
			c-0.815,0-1.479-0.663-1.479-1.479v-24.575c0-0.815,0.663-1.479,1.479-1.479h122.414
			C318.024,377.885,318.687,378.548,318.687,379.364z M260.731,209.243c4.509,2.156,9.268,3.658,13.913,4.445
			c-3.756,5.917-7.942,13.887-12.178,24.53C262.03,228.194,261.452,218.524,260.731,209.243z M357.377,219.654
			c0,16.635-10.574,33.886-24.597,40.126c-6.339,2.821-15.965,4.32-25.818-4.558c-21.567-19.431-9.559-44.014-7.937-47.072
			c2.235-3.026,23.516-30.839,58.285-42.132c3.94-1.28,6.097-5.511,4.816-9.45c-1.279-3.941-5.514-6.095-9.449-4.816
			c-37.34,12.128-60.204,40.171-65.142,46.712c-4.642,2.085-18.145,0.598-27.771-7.488c-8.073-6.782-9.761-15.192-5.017-24.998
			c13.854-28.632,73.753-26.38,95.661-23.096c0.071,0.011,0.143,0.021,0.215,0.029c11.549,1.401,21.829,5.906,29.039,9.91
			c-5.101,3.985-10.152,10.271-14.248,20.077C360.231,185.31,357.377,201.914,357.377,219.654z"/>
	</g>
</g>
<g>
</g>
<g>
</g>
<g>
</g>
<g>
</g>
<g>
</g>
<g>
</g>
<g>
</g>
<g>
</g>
<g>
</g>
<g>
</g>
<g>
</g>
<g>
</g>
<g>
</g>
<g>
</g>
<g>
</g>
</svg>
