<?xml version="1.0" encoding="iso-8859-1"?>
<!-- Generator: Adobe Illustrator 21.0.0, SVG Export Plug-In . SVG Version: 6.00 Build 0)  -->
<svg version="1.1" id="Capa_1" xmlns="http://www.w3.org/2000/svg" xmlns:xlink="http://www.w3.org/1999/xlink" x="0px" y="0px"
	 viewBox="0 0 512 512" style="enable-background:new 0 0 512 512;" xml:space="preserve">
<g>
	<g>
		<path style="fill:#D5694C;" d="M448.467,459.033L256,481.765L63.533,459.033c0,0,23.617-43.974,69.599-83.555
			c14.413-12.407,34.602-15.271,52.115-7.856c19.623,8.309,44.147,13.243,70.753,13.243s51.131-4.934,70.753-13.243
			c17.512-7.416,37.701-4.551,52.115,7.856C424.85,415.059,448.467,459.033,448.467,459.033z"/>
		<path style="fill:#A64C31;" d="M186.543,459.033l69.45,22.73l-192.46-22.73c0,0,23.61-43.97,69.59-83.56
			c14.42-12.4,34.61-15.27,52.12-7.85c7.98,3.39,16.78,6.2,26.2,8.36C194.993,415.443,186.543,459.033,186.543,459.033z"/>
		<path style="fill:#49CB8B;" d="M481.767,459.032H30.233c-12.555,0-22.733,10.178-22.733,22.733v0
			c0,12.555,10.178,22.733,22.733,22.733h451.534c12.555,0,22.733-10.178,22.733-22.733v0
			C504.5,469.21,494.322,459.032,481.767,459.032z"/>
		<path style="fill:#13B766;" d="M81.882,497.847c4.118,4.108,9.805,6.657,16.082,6.657H30.228c-6.277,0-11.954-2.549-16.072-6.657
			c-4.118-4.118-6.657-9.805-6.657-16.082c0-12.554,10.175-22.729,22.728-22.729h67.736c-12.554,0-22.738,10.175-22.738,22.729
			C75.226,488.042,77.774,493.729,81.882,497.847z"/>
		<g>
			<path style="fill:#FCDD2E;" d="M295.185,253.881c-1.579-0.841-3.216-1.621-4.909-2.315c-26.361-10.807-56.487,1.808-67.291,28.16
				c-0.455,1.11-0.87,2.227-1.234,3.352c-58.322-20.397-115.237-44.249-170.728-71.527c-8.347-4.103-16.67-8.293-24.953-12.553
				c17.204-67.51,43.373-131.344,78.505-191.493c8.89,2.78,17.759,5.638,26.584,8.575C197.316,38.09,261.696,64.484,324.272,95.25
				c8.347,4.103,16.661,8.289,24.944,12.55C336.291,158.571,318.273,207.266,295.185,253.881z"/>
			<path style="fill:#49CB8B;" d="M265.206,248c-18.205,1.961-34.785,13.591-42.22,31.726c-0.455,1.11-0.87,2.227-1.234,3.352
				c-58.322-20.397-115.237-44.249-170.728-71.527C71.898,144.001,98.61,78.844,131.16,16.081
				C197.316,38.09,261.696,64.484,324.272,95.25C308.093,147.605,288.408,198.523,265.206,248z"/>
			<g>
				<path style="fill:#FCDD2E;" d="M175.221,123.705c-22.009,9.21-36.218,29.192-39.105,51.259
					c17.743,13.434,41.949,17.34,63.958,8.13s36.218-29.192,39.105-51.259C221.435,118.401,197.23,114.495,175.221,123.705z"/>
				<path style="fill:#F9C301;" d="M184.277,145.346c-22.01,9.211-39.862,20.486-48.16,29.617
					c2.886-22.064,17.093-42.048,39.103-51.259c22.01-9.211,46.216-5.302,63.956,8.131
					C226.849,131.336,206.288,136.135,184.277,145.346z"/>
			</g>
		</g>
	</g>
	<g>
		<path d="M481.767,451.532h-28.941c-5.467-9.281-20.832-33.576-46.102-59.939c-2.866-2.99-7.614-3.091-10.604-0.225
			c-2.99,2.867-3.091,7.614-0.225,10.604c18.775,19.587,31.972,38.245,39.27,49.559H76.841c9.867-15.28,30.506-43.962,61.179-70.372
			c12.205-10.495,29.183-13.036,44.305-6.63c21.368,9.05,46.844,13.833,73.675,13.833s52.308-4.784,73.675-13.833
			c15.124-6.405,32.1-3.865,44.254,6.586l0.31,0.268c0.096,0.083,0.192,0.164,0.285,0.249c3.059,2.792,7.803,2.577,10.596-0.482
			c2.792-3.059,2.577-7.803-0.482-10.596c-0.202-0.185-0.409-0.364-0.619-0.544l-0.257-0.223
			c-16.559-14.239-39.524-17.712-59.936-9.07c-19.532,8.273-42.986,12.646-67.825,12.646s-48.292-4.373-67.825-12.646
			c-20.411-8.644-43.377-5.169-59.938,9.073c-39.032,33.608-62.083,69.869-69.067,81.742H30.233C13.562,451.532,0,465.095,0,481.765
			s13.562,30.232,30.233,30.232h451.534c16.67,0,30.233-13.562,30.233-30.232S498.438,451.532,481.767,451.532z M481.767,496.997
			H30.233c-8.399,0-15.233-6.833-15.233-15.232c0-8.399,6.833-15.233,15.233-15.233h451.534c8.399,0,15.233,6.833,15.233,15.233
			C497,490.164,490.167,496.997,481.767,496.997z"/>
		<path d="M22.639,205.673c8.308,4.274,16.744,8.517,25.072,12.611c55.521,27.296,113.243,51.479,171.563,71.879
			c0.804,0.281,1.641,0.42,2.477,0.42c1.141,0,2.279-0.261,3.322-0.776c1.807-0.893,3.178-2.475,3.806-4.389
			c0.328-1,0.668-1.923,1.053-2.851c9.216-22.485,35.017-33.278,57.481-24.075c1.416,0.586,2.848,1.263,4.259,2.013
			c1.79,0.952,3.89,1.139,5.817,0.517c1.929-0.621,3.525-1.996,4.424-3.812c23.228-46.918,41.59-96.563,54.577-147.557
			c0.863-3.389-0.73-6.924-3.84-8.522c-8.849-4.547-17.05-8.672-25.069-12.609c-45.131-22.191-91.835-42.382-138.814-60.012
			c-3.877-1.455-8.201,0.509-9.657,4.387c-1.455,3.878,0.509,8.202,4.387,9.657c44.521,16.708,88.789,35.742,131.689,56.61
			c-15.259,48.429-33.773,96.161-55.094,142.041c-18.037,3.327-34.192,14.945-42.595,32.425
			c-53.442-18.978-106.318-41.156-157.379-65.99c19.737-62.637,44.867-123.933,74.777-182.397
			c6.727,2.269,13.623,4.647,20.582,7.103c3.906,1.378,8.19-0.671,9.568-4.578c1.378-3.906-0.671-8.189-4.578-9.568
			c-9.165-3.233-18.229-6.34-26.934-9.232c-8.694-2.898-17.682-5.799-26.713-8.623c-3.338-1.043-6.951,0.357-8.714,3.375
			C62.796,64.157,36.115,129.237,18.802,197.151C17.938,200.538,19.53,204.073,22.639,205.673z M291.652,244.043
			c-4.847-1.838-9.796-2.977-14.739-3.496c19.926-43.623,37.345-88.836,51.887-134.68c3.798,1.895,7.66,3.84,11.652,5.875
			C328.445,157.336,312.05,201.782,291.652,244.043z M108.061,16.462c4.174,1.323,8.322,2.66,12.429,4.001
			C91.006,78.37,66.151,138.999,46.501,200.939c-3.89-1.94-7.783-3.896-11.663-5.873C51.322,132.528,75.932,72.498,108.061,16.462z"
			/>
		<path d="M128.679,173.991c-0.35,2.672,0.761,5.326,2.909,6.953c12.728,9.636,28.14,14.618,43.657,14.618
			c9.393,0,18.825-1.826,27.723-5.549c23.598-9.875,40.322-31.794,43.647-57.204c0.35-2.672-0.761-5.326-2.91-6.953
			c-20.431-15.469-47.785-18.944-71.38-9.068C148.728,126.661,132.004,148.58,128.679,173.991z M197.178,176.175
			c-14.267,5.969-30.264,5.76-44.24-0.12l75.211-31.474C222.526,158.662,211.445,170.204,197.178,176.175z M178.116,130.623
			L178.116,130.623c14.266-5.97,30.264-5.761,44.241,0.12l-75.21,31.474C152.769,148.135,163.849,136.594,178.116,130.623z"/>
		<path d="M304.94,296.993c-1.788-2.716-5.309-3.96-8.411-3.009c-2.994,0.919-5.161,3.675-5.32,6.81
			c-0.336,6.633,7.923,10.362,12.688,5.777C306.491,304.075,306.914,299.991,304.94,296.993z"/>
		<path d="M253.13,289.843c2.982,1.195,6.47,0.401,8.571-2.055c2.066-2.414,2.367-6.002,0.733-8.728
			c-3.408-5.687-12.29-4.223-13.746,2.214C247.891,284.804,249.811,288.443,253.13,289.843z"/>
		<path d="M251.38,320.953c1.241,2.941,4.276,4.851,7.477,4.607c3.025-0.231,5.657-2.31,6.587-5.193
			c2.073-6.423-5.118-12.14-10.929-8.755C251.323,313.472,249.971,317.541,251.38,320.953z"/>
		<path d="M286.69,343.913c-3.598-5.458-12.307-3.698-13.58,2.69c-0.626,3.141,0.87,6.418,3.656,7.995
			c2.702,1.529,6.169,1.205,8.537-0.803C288.129,351.398,288.844,346.996,286.69,343.913z"/>
	</g>
</g>
<g>
</g>
<g>
</g>
<g>
</g>
<g>
</g>
<g>
</g>
<g>
</g>
<g>
</g>
<g>
</g>
<g>
</g>
<g>
</g>
<g>
</g>
<g>
</g>
<g>
</g>
<g>
</g>
<g>
</g>
</svg>
