<?xml version="1.0" encoding="iso-8859-1"?>
<!-- Generator: Adobe Illustrator 21.0.0, SVG Export Plug-In . SVG Version: 6.00 Build 0)  -->
<svg version="1.1" id="Capa_1" xmlns="http://www.w3.org/2000/svg" xmlns:xlink="http://www.w3.org/1999/xlink" x="0px" y="0px"
	 viewBox="0 0 512.002 512.002" style="enable-background:new 0 0 512.002 512.002;" xml:space="preserve">
<g>
	<g>
		<g>
			<path style="fill:#49CB8B;" d="M95.101,162.363c13.923-5.811,31.442,9.436,43.64,29.737c12.464,20.745,46.984,27.96,54.887,2.083
				s-15.52-38.971-15.52-38.971c12.22,1.017,35.345-27.738,12.398-42.742c-27.131-17.741-75.08,21.891-75.08,21.891
				C101.087,145.532,95.101,162.363,95.101,162.363z"/>
			<path style="fill:#13B766;" d="M178.112,155.218c12.221,1.017,35.347-27.737,12.395-42.747
				c-27.134-17.736-75.079,21.891-75.079,21.891c-14.334,11.171-20.321,28.003-20.321,28.003
				C133.455,135.375,178.112,155.218,178.112,155.218z"/>
		</g>
		<g>
			<path style="fill:#49CB8B;" d="M378.005,17.258c-22.632,9.116-25.496,46.568-16.492,83.798
				c9.201,38.043-22.361,85.549-60.845,64.721s-26.376-62.502-26.376-62.502c-12.919,15.046-72.199,8.189-62.811-35.145
				C222.583,16.892,322.802,8.09,322.802,8.09C352.001,4.671,378.005,17.258,378.005,17.258z"/>
			<path style="fill:#13B766;" d="M274.295,103.285c-12.919,15.048-72.202,8.192-62.813-35.155
				c11.11-51.234,111.32-60.04,111.32-60.04C351.993,4.679,378,17.265,378,17.265C303.192,29.726,274.295,103.285,274.295,103.285z"
				/>
		</g>
		<path style="fill:#A5E4EF;" d="M381.213,504.502h-245.03c-25.31,0-42.63-25.67-33.02-49.08c16.95-41.3,51.06-100.06,116.69-141.38
			v-56.052h77.7v56.052c65.62,41.32,99.73,100.08,116.68,141.38C423.853,478.832,406.523,504.502,381.213,504.502z"/>
		<rect x="219.853" y="257.989" style="fill:#93D8E4;" width="77.7" height="31.832"/>
		<path style="fill:#93D8E4;" d="M203.834,455.422c-3.39,23.41,2.72,49.08,11.65,49.08h-79.29c-25.31,0-42.64-25.67-33.03-49.08
			c16.95-41.3,51.07-100.06,116.69-141.38v-56.053h25.15v56.053C221.844,355.361,209.814,414.122,203.834,455.422z"/>
		<path style="fill:#02C6DB;" d="M381.214,504.502h-245.03c-25.31,0-42.63-25.67-33.02-49.08c8.28-20.17,20.65-44.5,38.78-68.93
			h233.51c18.13,24.43,30.51,48.76,38.78,68.93C423.844,478.832,406.524,504.502,381.214,504.502z"/>
		<path style="fill:#02B0CC;" d="M215.484,504.502h-79.29c-25.31,0-42.64-25.67-33.03-49.08c8.28-20.17,20.65-44.5,38.78-68.93
			h75.57c-6.4,24.43-10.76,48.76-13.68,68.93C200.444,478.832,206.554,504.502,215.484,504.502z"/>
		<path style="fill:#A5E4EF;" d="M296.851,274.117H220.55c-8.907,0-16.128-7.221-16.128-16.128v0
			c0-8.907,7.221-16.128,16.128-16.128h76.301c8.907,0,16.128,7.221,16.128,16.128v0
			C312.979,266.896,305.758,274.117,296.851,274.117z"/>
		<path style="fill:#93D8E4;" d="M249.903,274.119h-29.35c-8.91,0-16.13-7.23-16.13-16.13c0-4.45,1.8-8.49,4.72-11.41
			c2.92-2.92,6.96-4.72,11.41-4.72h29.35c-4.46,0-8.49,1.8-11.41,4.72c-2.91,2.92-4.72,6.96-4.72,11.41
			C233.773,266.889,240.993,274.119,249.903,274.119z"/>
		<ellipse style="fill:#93D8E4;" cx="363.106" cy="451.999" rx="18.081" ry="24.434"/>
	</g>
	<path d="M421.172,452.574c-11.266-27.453-32.32-67.81-68.654-104.165c-2.93-2.931-7.679-2.93-10.606-0.003
		c-2.93,2.928-2.932,7.677-0.003,10.606c6.552,6.556,12.58,13.25,18.125,19.975h-95.485V296.71c0-4.142-3.357-7.5-7.5-7.5
		s-7.5,3.358-7.5,7.5v82.278h-92.203c17.268-20.903,39.06-41.321,66.505-58.6c2.181-1.373,3.504-3.77,3.504-6.347v-32.42h62.699
		v32.42c0,2.577,1.323,4.973,3.503,6.346c9.296,5.854,18.304,12.307,26.771,19.178c3.216,2.609,7.939,2.117,10.55-1.099
		c2.609-3.217,2.118-7.94-1.099-10.55c-7.862-6.379-16.165-12.416-24.726-17.98v-29.79c8.997-3.341,15.426-12.012,15.426-22.158
		c0-13.028-10.6-23.627-23.628-23.627h-32.303v-26.687c0-0.022-0.003-0.043-0.003-0.066c0-0.024,0.003-0.048,0.002-0.073
		c-0.565-30.58,1.632-52.148,4.307-66.782c4.408,11.824,12.994,23.368,28.25,31.624c7.321,3.961,14.879,5.928,22.278,5.928
		c9.313,0,18.376-3.116,26.4-9.293c19.481-14.997,29.163-44.316,23.021-69.712c-4.428-18.321-5.671-35.903-3.5-49.505
		c1.505-9.426,5.415-21.515,15.501-25.576c2.753-1.108,4.594-3.736,4.695-6.702c0.101-2.966-1.557-5.713-4.228-7.006
		c-1.141-0.552-28.259-13.474-59.235-9.881c-4.429,0.399-76.842,7.454-106.416,42.951c-2.651,3.183-2.221,7.912,0.962,10.563
		c3.184,2.651,7.912,2.221,10.563-0.961c25.864-31.044,95.616-37.558,96.314-37.62c0.072-0.006,0.145-0.014,0.216-0.022
		c14.865-1.741,29.021,1.087,38.638,3.935c-5.923,6.715-9.938,16.145-11.822,27.956c-2.477,15.516-1.15,35.188,3.732,55.394
		c4.738,19.589-2.824,42.934-17.591,54.302c-6.813,5.246-17.964,9.864-32.39,2.059c-13.595-7.357-21.567-18.468-23.697-33.025
		c-1.472-10.069,0.386-18.54,0.862-20.465c1.611-3.871,18.316-42.231,55.808-65.287c3.528-2.17,4.63-6.789,2.46-10.317
		c-2.171-3.528-6.79-4.631-10.317-2.46c-39.681,24.402-57.941,63.291-61.426,71.416c-4.652,3.964-19.064,6.212-32.737,0.801
		c-8.161-3.23-17.766-10.025-17.178-24.052c0.174-4.139-3.04-7.634-7.179-7.808c-4.123-0.167-7.634,3.041-7.808,7.179
		c-0.737,17.555,8.975,31.634,26.644,38.628c7.247,2.868,15.075,4.246,22.474,4.246c2.385,0,4.72-0.151,6.981-0.433
		c-4.974,15.174-9.907,40.936-9.664,83.232c-7.409-11.053-17.393-21.362-29.781-30.657c-8.811-6.611-17.421-11.666-24.301-15.255
		c4.627-4.27,8.542-9.938,10.664-16.114c4.418-12.855,0.143-25.049-11.436-32.621c-31.055-20.304-80.736,19.74-83.875,22.317
		c-15.823,12.37-22.428,30.571-22.701,31.341c-0.994,2.796-0.246,5.915,1.907,7.957c2.154,2.042,5.309,2.622,8.048,1.478
		c8.481-3.542,22.909,7.684,34.322,26.679c8.076,13.442,23.845,22.337,38.793,22.337c1.481,0,2.957-0.088,4.414-0.267
		c12.326-1.515,21.541-9.41,25.282-21.659c2.281-7.469,2.391-14.232,1.16-20.194c18.094,11.743,39.884,31.009,46.214,58.182h-27.624
		c-13.028,0-23.628,10.6-23.628,23.628c0,10.147,6.431,18.819,15.431,22.159v29.787c-64.779,42.077-98.876,100.601-116.129,142.638
		c-5.451,13.28-3.926,28.338,4.082,40.282c8.038,11.989,21.45,19.146,35.877,19.146h245.029c14.432,0,27.848-7.161,35.887-19.156
		C425.104,480.902,426.626,465.846,421.172,452.574z M186.456,191.992c-2.018,6.607-6.313,10.36-12.767,11.153
		c-10.219,1.252-22.741-5.292-28.52-14.907c-6.906-11.496-14.914-20.777-23.157-26.84c-5.309-3.904-10.146-6.057-14.446-7.064
		c2.884-4.545,6.988-9.785,12.47-14.055c0.058-0.044,0.114-0.09,0.17-0.136c0.113-0.094,11.495-9.447,25.941-16.671
		c12.273-6.137,29.22-11.939,40.255-4.724c5.827,3.81,7.627,8.736,5.503,15.061c-2.703,8.047-9.679,13.135-12.491,13.84
		c-5.675-2.216-24.491-8.649-47.045-6.547c-4.124,0.384-7.156,4.039-6.772,8.163c0.385,4.124,4.033,7.158,8.163,6.773
		c20.955-1.954,38.585,4.913,41.009,5.91C177.248,163.446,192.147,173.359,186.456,191.992z M220.551,249.361h36.436
		c0.018,0,0.034,0.002,0.052,0.002c0.005,0,0.011-0.001,0.016-0.001c0.011,0,0.021-0.001,0.032-0.001h39.764
		c4.758,0,8.628,3.871,8.628,8.628c0,4.757-3.87,8.627-8.628,8.627h-76.3c-4.758,0-8.628-3.871-8.628-8.628
		C211.923,253.232,215.793,249.361,220.551,249.361z M404.639,484.495c-5.326,7.948-13.865,12.507-23.426,12.507H136.184
		c-9.557,0-18.092-4.556-23.418-12.5c-5.295-7.897-6.266-17.458-2.664-26.232c7.804-19.014,19.22-41.563,35.641-64.281h103.806
		v53.638c0,4.142,3.357,7.5,7.5,7.5s7.5-3.358,7.5-7.5v-53.638h107.056c17.113,23.702,28.497,46.748,35.692,64.284
		C410.899,467.041,409.931,476.599,404.639,484.495z"/>
</g>
<g>
</g>
<g>
</g>
<g>
</g>
<g>
</g>
<g>
</g>
<g>
</g>
<g>
</g>
<g>
</g>
<g>
</g>
<g>
</g>
<g>
</g>
<g>
</g>
<g>
</g>
<g>
</g>
<g>
</g>
</svg>
