<?xml version="1.0" encoding="iso-8859-1"?>
<!-- Generator: Adobe Illustrator 21.0.0, SVG Export Plug-In . SVG Version: 6.00 Build 0)  -->
<svg version="1.1" id="Capa_1" xmlns="http://www.w3.org/2000/svg" xmlns:xlink="http://www.w3.org/1999/xlink" x="0px" y="0px"
	 viewBox="0 0 511.998 511.998" style="enable-background:new 0 0 511.998 511.998;" xml:space="preserve">
<g>
	<g>
		<path style="fill:#A5E4EF;" d="M452.584,459.026L255.999,481.76L59.665,459.026c0,0-3.638-11.292-8.496-30.129
			c-11.654-45.246-30.305-134.053-22.379-214.718c0,0,64.547-106.718,227.334-190.187c9.805,5.029,19.26,10.146,28.366,15.31
			c30.125,17.112,56.411,34.831,79.15,52.126c12.414,9.452,23.778,18.769,34.113,27.807c13.553,11.842,25.357,23.182,35.502,33.636
			c34.782,35.814,50.204,61.308,50.204,61.308C494.683,328.442,452.584,459.026,452.584,459.026z"/>
		<path style="fill:#02C6DB;" d="M452.592,475.523c-1.677,0-3.382-0.258-5.064-0.8c-8.668-2.795-13.43-12.088-10.636-20.756
			c0.487-1.517,39.932-125.854,30.521-234.236c-5.209-7.802-21.06-30.171-49.251-58.712
			c-31.327-31.715-84.56-77.576-162.037-118.439c-77.477,40.863-130.71,86.724-162.037,118.439
			c-28.178,28.529-44.027,50.89-49.251,58.713c-9.421,108.495,30.116,232.979,30.522,234.239
			c2.789,8.668-1.975,17.959-10.643,20.751c-8.667,2.792-17.957-1.967-20.751-10.635c-1.762-5.465-43.019-135.183-31.589-251.517
			c0.241-2.45,1.027-4.816,2.302-6.922c0.699-1.157,17.566-28.77,54.975-66.823C103.793,104.096,162.553,53.436,248.6,9.317
			c4.724-2.422,10.325-2.422,15.049,0c86.047,44.119,144.807,94.779,178.948,129.508c37.409,38.053,54.276,65.666,54.975,66.823
			c1.274,2.107,2.061,4.472,2.302,6.922c11.43,116.334-29.828,246.052-31.589,251.517
			C466.032,471.074,459.558,475.523,452.592,475.523z"/>
		<path style="fill:#49CB8B;" d="M481.765,459.027H30.233c-12.555,0-22.733,10.178-22.733,22.733v0
			c0,12.555,10.178,22.733,22.733,22.733h451.532c12.555,0,22.733-10.178,22.733-22.733v0
			C504.498,469.205,494.32,459.027,481.765,459.027z"/>
		<path style="fill:#13B766;" d="M81.882,497.842c4.118,4.108,9.805,6.657,16.082,6.657H30.229c-6.277,0-11.954-2.549-16.072-6.657
			c-4.118-4.118-6.657-9.805-6.657-16.082c0-12.554,10.175-22.728,22.728-22.728h67.735c-12.554,0-22.738,10.175-22.738,22.728
			C75.226,488.037,77.774,493.724,81.882,497.842z"/>
		<circle style="fill:#FCDD2E;" cx="256.124" cy="174.346" r="50.7"/>
		<path style="fill:#F9C301;" d="M256.124,225.046c-28,0-50.7-22.7-50.7-50.7s22.7-50.7,50.7-50.7c-8.34,0-15.1,22.7-15.1,50.7
			S247.784,225.046,256.124,225.046z"/>
		<path style="fill:#665E66;" d="M256.124,106.021L256.124,106.021c-34.895,0-66.156,21.571-78.541,54.194l-8.12,21.389h173.32
			l-8.12-21.389C322.281,127.592,291.019,106.021,256.124,106.021z"/>
		<path style="fill:#454045;" d="M256.124,106.025c-14.15,0-26.82,21.57-31.84,54.2l-3.29,21.38h-51.53l8.12-21.38
			C189.974,127.595,221.234,106.025,256.124,106.025z"/>
		<g>
			<g>
				<path style="fill:#49CB8B;" d="M200.492,318.287c-10.425,14.009,1.792,37.954,21.176,57.339
					c19.808,19.808,18.244,60.597-13.032,62.226c-31.276,1.629-39.421-28.344-39.421-28.344
					c-2.281,14.009-41.049,31.927-51.475,1.955c-12.326-35.438,45.611-78.19,45.611-78.19
					C179.913,320.296,200.492,318.287,200.492,318.287z"/>
				<path style="fill:#13B766;" d="M169.221,409.513c-2.28,14.01-41.05,31.93-51.48,1.95c-12.32-35.44,45.61-78.19,45.61-78.19
					c16.56-12.97,37.14-14.98,37.14-14.98C159.441,353.803,169.221,409.513,169.221,409.513z"/>
			</g>
			<g>
				<path style="fill:#49CB8B;" d="M354.265,318.287c-10.425,14.009,1.792,37.954,21.176,57.339
					c19.808,19.808,18.244,60.597-13.032,62.226c-31.276,1.629-39.421-28.344-39.421-28.344
					c-2.281,14.009-41.049,31.927-51.475,1.955c-12.326-35.438,45.611-78.19,45.611-78.19
					C333.686,320.296,354.265,318.287,354.265,318.287z"/>
				<path style="fill:#13B766;" d="M322.994,409.513c-2.28,14.01-41.05,31.93-51.48,1.95c-12.32-35.44,45.61-78.19,45.61-78.19
					c16.56-12.97,37.14-14.98,37.14-14.98C313.214,353.803,322.994,409.513,322.994,409.513z"/>
			</g>
		</g>
	</g>
	<g>
		<path d="M481.765,451.527h-1.909c10.439-36.975,36.957-143.294,27.486-239.689c-0.347-3.54-1.51-7.025-3.351-10.059
			c-0.713-1.182-17.886-29.395-56.045-68.206C413.421,98.45,354.015,47.226,267.082,2.652c-6.853-3.528-15.043-3.529-21.905-0.005
			C158.233,47.226,98.827,98.45,64.303,133.572c-38.16,38.812-55.333,67.025-56.034,68.187c-1.845,3.041-3.005,6.526-3.353,10.078
			c-9.476,96.447,17.036,202.727,27.475,239.691h-2.158C13.563,451.527,0,465.09,0,481.76s13.563,30.233,30.233,30.233h451.531
			c16.671,0,30.233-13.562,30.233-30.233S498.436,451.527,481.765,451.527z M19.844,213.302c0.133-1.348,0.553-2.614,1.261-3.781
			c0.675-1.12,16.959-27.867,53.895-65.434c33.751-34.334,91.859-84.428,177.026-128.095c2.568-1.319,5.63-1.321,8.202,0.002
			C345.39,59.66,403.498,109.753,437.25,144.088c36.935,37.566,53.219,64.313,53.905,65.452c0.704,1.16,1.128,2.426,1.259,3.763
			c9.601,97.73-18.957,206.5-28.158,238.224h-18.779c7.155-23.97,37.928-134.356,29.402-232.447
			c-0.109-1.255-0.532-2.463-1.231-3.511c-5.576-8.365-21.627-30.938-50.153-59.819c-31.372-31.772-85.268-78.348-163.867-119.804
			c-2.189-1.155-4.81-1.155-6.997,0c-78.569,41.434-132.483,88.019-163.877,119.803c-28.456,28.81-44.552,51.428-50.151,59.816
			c-0.701,1.049-1.125,2.259-1.234,3.516c-8.454,97.371,22.288,208.407,29.412,232.446H47.991
			C38.791,419.815,10.237,311.089,19.844,213.302z M331.597,451.527l-0.431-16.401c7.02,5.911,16.509,10.289,28.844,10.289
			c0.912,0,1.846-0.024,2.789-0.073c14.319-0.746,25.387-8.609,30.365-21.573c6.597-17.176,1.373-39.654-12.419-53.446
			c-18.557-18.556-27.162-38.557-20.464-47.558c1.771-2.381,1.974-5.582,0.514-8.166c-1.46-2.584-4.309-4.063-7.259-3.776
			c-0.928,0.091-22.897,2.377-40.956,16.484c-1.4,1.042-15.631,11.77-28.58,26.894c-19.036,22.234-25.62,42.329-19.569,59.726
			c5.071,14.58,17.11,22.501,32.215,21.189c6.857-0.596,13.652-3.014,19.344-6.487l0.603,22.898H177.824l-0.432-16.404
			c7.021,5.911,16.51,10.289,28.845,10.289c0.914,0,1.846-0.024,2.792-0.073c14.317-0.746,25.384-8.609,30.362-21.573
			c6.595-17.174,1.371-39.649-12.42-53.44c-18.854-18.854-27.27-38.412-20.466-47.561c1.771-2.381,1.972-5.582,0.512-8.166
			c-1.46-2.583-4.293-4.063-7.259-3.775c-0.928,0.091-22.897,2.378-40.955,16.477c-1.475,1.098-17.208,12.963-30.658,29.385
			c-2.624,3.205-2.154,7.93,1.051,10.554c3.202,2.624,7.929,2.155,10.555-1.05c12.598-15.382,27.902-26.778,28.053-26.888
			c0.057-0.042,0.113-0.085,0.17-0.129c6.991-5.476,14.905-8.785,21.258-10.746c-0.345,5.292,0.584,11.704,3.73,19.364
			c4.379,10.658,12.689,22.427,23.403,33.141c9.483,9.483,13.447,25.936,9.023,37.456c-2.881,7.5-8.647,11.528-17.141,11.971
			c-23.493,1.217-30.831-19.727-31.703-22.524c-0.535-3.657-4.138-32.346,9.563-59.223c1.882-3.69,0.415-8.207-3.275-10.088
			c-3.688-1.88-8.206-0.415-10.088,3.276c-15.009,29.442-12.188,59.758-11.176,67.278c-1.596,3.666-10.182,10.243-19.989,11.096
			c-8.409,0.731-13.888-2.926-16.757-11.173c-1.98-5.709-1.684-12.27,0.884-19.502c1.385-3.904-0.656-8.191-4.56-9.577
			c-3.9-1.385-8.191,0.655-9.576,4.559c-3.736,10.524-4.045,20.428-0.917,29.444c5.074,14.584,17.133,22.51,32.226,21.193
			c6.854-0.596,13.646-3.014,19.336-6.484l0.603,22.895H82.454c-1.4-4.403-38.878-123.776-30.304-229.222
			c6.182-9.06,21.379-29.796,47.276-56.015c29.166-29.528,78.28-72.159,149.203-111.15v43.692
			c-15.949,1.296-31.194,6.714-44.476,15.878c-15.35,10.592-26.964,25.408-33.586,42.846l-8.12,21.38
			c-0.875,2.305-0.562,4.893,0.838,6.922c1.4,2.029,3.708,3.241,6.174,3.241h30.38c6.604,25.175,29.73,43.45,56.29,43.45
			c26.554,0,49.676-18.275,56.28-43.45h30.38c2.466,0,4.773-1.212,6.174-3.241c1.399-2.029,1.713-4.617,0.838-6.922l-8.119-21.376
			c-3.964-10.455-9.736-19.989-17.158-28.335c-2.752-3.095-7.493-3.374-10.588-0.621c-3.096,2.752-3.374,7.493-0.621,10.588
			c6.203,6.976,11.028,14.945,14.343,23.689l4.261,11.217H180.33l4.261-11.217c11.21-29.522,39.955-49.358,71.528-49.362
			c0.004,0,0.007,0.001,0.01,0.001c0.004,0,0.007-0.001,0.011-0.001c12.401,0.002,24.74,3.059,35.685,8.841
			c3.667,1.937,8.201,0.534,10.136-3.128c1.935-3.662,0.534-8.2-3.128-10.135c-10.888-5.752-22.929-9.242-35.204-10.259V55.141
			c70.948,39.009,120.047,81.631,149.193,111.149c25.958,26.281,41.118,46.976,47.276,56.013
			c8.545,104.976-28.756,224.337-30.305,229.224H331.597z M346.737,347.791c4.378,10.658,12.689,22.427,23.4,33.138
			c9.485,9.485,13.448,25.94,9.023,37.462c-2.881,7.501-8.648,11.528-17.142,11.971c-23.502,1.218-30.815-19.669-31.701-22.517
			c-0.528-3.513-4.257-32.121,9.564-59.234c1.882-3.69,0.415-8.207-3.275-10.088c-3.688-1.88-8.205-0.415-10.088,3.276
			c-15.005,29.434-12.19,59.742-11.178,67.273c-1.592,3.666-10.182,10.248-19.994,11.101c-8.417,0.731-13.882-2.926-16.749-11.173
			c-8.604-24.732,28.11-58.694,42.979-69.69c0.059-0.043,0.116-0.087,0.173-0.132c6.99-5.478,14.902-8.787,21.255-10.75
			C342.661,333.72,343.59,340.131,346.737,347.791z M215.533,189.1h81.182c-6.093,16.695-22.235,28.45-40.586,28.45
			C237.773,217.55,221.627,205.795,215.533,189.1z M481.765,496.993H30.233c-8.399,0-15.233-6.833-15.233-15.233
			s6.834-15.233,15.233-15.233h451.531c8.399,0,15.233,6.833,15.233,15.233S490.164,496.993,481.765,496.993z"/>
		<path d="M256.124,245.398c-4.143,0-7.5,3.358-7.5,7.5v34.095c0,4.142,3.357,7.5,7.5,7.5s7.5-3.358,7.5-7.5v-34.095
			C263.624,248.756,260.267,245.398,256.124,245.398z"/>
		<path d="M220.598,235.879c-3.589-2.072-8.175-0.842-10.245,2.745l-17.047,29.527c-2.071,3.587-0.842,8.174,2.745,10.245
			c1.182,0.682,2.471,1.006,3.743,1.006c2.592,0,5.113-1.345,6.502-3.751l17.047-29.527
			C225.414,242.537,224.185,237.95,220.598,235.879z"/>
		<path d="M194.591,209.872c-2.072-3.588-6.659-4.816-10.245-2.745l-29.526,17.048c-3.587,2.071-4.816,6.658-2.745,10.245
			c1.39,2.406,3.91,3.751,6.502,3.751c1.272,0,2.563-0.324,3.743-1.006l29.526-17.048
			C195.433,218.046,196.662,213.459,194.591,209.872z"/>
		<path d="M357.43,224.175l-29.527-17.048c-3.59-2.072-8.175-0.842-10.245,2.745c-2.071,3.587-0.842,8.174,2.745,10.245
			l29.527,17.048c1.182,0.682,2.471,1.006,3.743,1.006c2.592,0,5.113-1.345,6.502-3.751
			C362.246,230.832,361.017,226.246,357.43,224.175z"/>
		<path d="M301.896,238.624c-2.07-3.588-6.659-4.816-10.245-2.745c-3.587,2.071-4.816,6.658-2.745,10.245l17.047,29.527
			c1.389,2.406,3.91,3.751,6.502,3.751c1.272,0,2.563-0.324,3.743-1.006c3.587-2.071,4.816-6.658,2.745-10.245L301.896,238.624z"/>
	</g>
</g>
<g>
</g>
<g>
</g>
<g>
</g>
<g>
</g>
<g>
</g>
<g>
</g>
<g>
</g>
<g>
</g>
<g>
</g>
<g>
</g>
<g>
</g>
<g>
</g>
<g>
</g>
<g>
</g>
<g>
</g>
</svg>
