<?xml version="1.0" encoding="iso-8859-1"?>
<!-- Generator: Adobe Illustrator 21.0.0, SVG Export Plug-In . SVG Version: 6.00 Build 0)  -->
<svg version="1.1" id="Capa_1" xmlns="http://www.w3.org/2000/svg" xmlns:xlink="http://www.w3.org/1999/xlink" x="0px" y="0px"
	 viewBox="0 0 512 512" style="enable-background:new 0 0 512 512;" xml:space="preserve">
<g>
	<g>
		<path style="fill:#FD7E42;" d="M128.636,504.533H61.44c-18.15,0-32.863-14.713-32.863-32.863V40.396
			c0-18.15,14.713-32.863,32.863-32.863h67.196c18.15,0,32.863,14.713,32.863,32.863v431.273
			C161.499,489.819,146.786,504.533,128.636,504.533z"/>
		<g>
			<path style="fill:#49CB8B;" d="M483.423,74.983c-14.995,2.199-22.193,24.392-22.193,48.184c0,24.312-25.992,48.384-46.185,30.19
				s-6.798-41.587-6.798-41.587c-9.997,7.198-44.786-5.598-32.789-30.39c14.184-29.313,75.975-19.994,75.975-19.994
				C469.561,63.586,483.423,74.983,483.423,74.983z"/>
			<path style="fill:#13B766;" d="M408.248,111.777c-9.997,7.199-44.787-5.597-32.79-30.396
				c14.189-29.31,75.975-19.994,75.975-19.994c18.122,2.203,31.986,13.599,31.986,13.599
				C436.435,71.586,408.248,111.777,408.248,111.777z"/>
		</g>
		<g>
			<path style="fill:#49CB8B;" d="M233.976,303.79c16.437-4.661,34.084,14.84,45.068,39.309
				c11.223,25.003,49.067,37.761,61.435,9.727s-12.207-45.907-12.207-45.907c13.604,2.787,43.474-26.432,19.692-46.391
				c-28.119-23.598-87.365,14.512-87.365,14.512C242.972,285.671,233.976,303.79,233.976,303.79z"/>
			<path style="fill:#13B766;" d="M328.275,306.926c13.604,2.788,43.476-26.432,19.689-46.397
				c-28.123-23.593-87.365,14.511-87.365,14.511c-17.62,10.632-26.617,28.752-26.617,28.752
				C280.733,278.605,328.275,306.926,328.275,306.926z"/>
		</g>
		<g>
			<path style="fill:#49CB8B;" d="M189.419,82.172c19.067-7.967,43.072,12.908,59.79,40.71c17.083,28.408,64.37,38.274,75.181,2.825
				c10.812-35.449-21.278-53.371-21.278-53.371c16.739,1.386,48.399-38.011,16.96-58.551
				c-37.171-24.286-102.827,30.023-102.827,30.023C197.609,59.115,189.419,82.172,189.419,82.172z"/>
			<path style="fill:#13B766;" d="M303.116,72.342c16.74,1.387,48.401-38.011,16.956-58.558
				c-37.175-24.279-102.827,30.022-102.827,30.022c-19.628,15.308-27.82,38.366-27.82,38.366
				C241.939,45.185,303.116,72.342,303.116,72.342z"/>
		</g>
	</g>
	<g>
		<path d="M128.653,0.065H61.461c-22.252,0-40.355,18.103-40.355,40.355v28.177c0,4.142,3.357,7.499,7.499,7.499
			s7.499-3.357,7.499-7.499V40.42c0-13.982,11.375-25.357,25.357-25.357h67.192c11.373,0,21.021,7.527,24.224,17.861H93.255
			c-4.142,0-7.499,3.357-7.499,7.499s3.357,7.499,7.499,7.499h60.754v20.937h-32.088c-4.142,0-7.499,3.357-7.499,7.499
			c0,4.142,3.357,7.499,7.499,7.499h32.088v20.937h-32.088c-4.142,0-7.499,3.357-7.499,7.499s3.357,7.499,7.499,7.499h32.088v20.937
			h-32.088c-4.142,0-7.499,3.357-7.499,7.499c0,4.142,3.357,7.499,7.499,7.499h32.088v20.937H93.255
			c-4.142,0-7.499,3.357-7.499,7.499s3.357,7.499,7.499,7.499h60.754v20.937h-32.088c-4.142,0-7.499,3.357-7.499,7.499
			c0,4.142,3.357,7.499,7.499,7.499h32.088v20.937h-32.088c-4.142,0-7.499,3.357-7.499,7.499c0,4.142,3.357,7.499,7.499,7.499
			h32.088v20.937h-32.088c-4.142,0-7.499,3.357-7.499,7.499c0,4.142,3.357,7.499,7.499,7.499h32.088v20.937H93.255
			c-4.142,0-7.499,3.357-7.499,7.499c0,4.142,3.357,7.499,7.499,7.499h60.754v20.937h-32.088c-4.142,0-7.499,3.357-7.499,7.499
			s3.357,7.499,7.499,7.499h32.088v20.937h-32.088c-4.142,0-7.499,3.357-7.499,7.499c0,4.142,3.357,7.499,7.499,7.499h32.088v20.937
			h-32.088c-4.142,0-7.499,3.357-7.499,7.499c0,4.142,3.357,7.499,7.499,7.499h32.088v20.937H93.255
			c-4.142,0-7.499,3.357-7.499,7.499s3.357,7.499,7.499,7.499h59.622c-3.204,10.334-12.851,17.861-24.224,17.861H61.461
			c-13.982,0-25.357-11.375-25.357-25.357V98.573c0-4.142-3.357-7.499-7.499-7.499s-7.499,3.357-7.499,7.499v373.072
			c0,22.252,18.103,40.355,40.355,40.355h67.192c22.251,0,40.354-18.103,40.354-40.355V40.42
			C169.007,18.169,150.904,0.065,128.653,0.065z"/>
		<path d="M488.157,69.213c-0.634-0.521-15.727-12.769-35.741-15.233c-4.037-0.596-67.501-9.368-83.724,24.157
			c-6.045,12.493-3.42,25.188,7.021,33.96c4.82,4.049,10.819,6.821,16.767,8.172c-2.651,4.809-5.54,11.088-8.461,19.261
			c-9.424-25.512-29.398-48.953-56.667-65.186c-1.582-0.942-3.078-1.782-4.502-2.547c6.854-5.678,12.805-13.832,15.887-22.812
			c5.69-16.574,0.378-31.681-14.571-41.449c-17.807-11.634-42.302-9.792-72.803,5.475c-21.005,10.514-37.316,23.748-38.805,24.971
			c-21.057,16.459-29.834,40.676-30.197,41.701c-0.993,2.796-0.244,5.915,1.91,7.955c2.155,2.039,5.308,2.618,8.048,1.474
			c13.094-5.474,33.845,10.012,50.464,37.649c10.579,17.591,31.186,29.232,50.703,29.23c1.935,0,3.863-0.115,5.766-0.349
			c15.745-1.941,27.519-12.05,32.302-27.734c3.85-12.625,2.941-23.698-0.37-32.949c22.869,17.159,43.891,44.419,43.891,77.333v7.892
			c-6.455-5.55-13.745-8.332-19.157-8.332c-4.142,0-7.499,3.357-7.499,7.499c0,4.142,3.357,7.499,7.499,7.499
			c3.899,0,19.157,7.225,19.157,27.682V330.26c-4.187-5.445-9.22-10.459-15.084-14.977c-4.078-3.142-8.149-5.725-11.917-7.832
			c5.262-4.03,9.937-9.492,12.915-15.661c6.48-13.418,3.408-27.251-8.215-37.003c-31.67-26.578-92.434,11.514-96.144,13.886
			c-19.206,11.63-28.962,30.958-29.368,31.777c-1.32,2.658-0.949,5.844,0.946,8.127c1.897,2.283,4.963,3.232,7.814,2.424
			c10.483-2.974,25.695,11.818,36.179,35.163c7.875,17.532,26.485,30.033,44.527,30.032c0.305,0,0.612-0.004,0.916-0.011
			c4.141-0.098,7.418-3.534,7.32-7.674c-0.098-4.141-3.527-7.418-7.674-7.32c-12.177,0.307-25.946-9.013-31.407-21.172
			c-6.17-13.737-13.846-25.138-22.2-32.972c-5.839-5.476-11.322-8.557-16.244-10.113c3.988-5.075,9.702-11.052,17.029-15.473
			c0.06-0.036,0.122-0.075,0.18-0.112c15.202-9.755,58.936-31.478,78.486-15.072c6.475,5.432,7.897,11.645,4.349,18.992
			c-4.382,9.076-13.366,14.084-16.948,14.325c-5.474-2.958-24.665-12.373-49.27-13.612c-4.164-0.201-7.658,2.977-7.866,7.113
			c-0.208,4.137,2.976,7.658,7.112,7.867c23.053,1.16,41.075,10.805,43.597,12.216c2.419,1.91,18.318,15.482,9.806,35.874
			c-1.595,3.822,0.21,8.213,4.032,9.809c3.824,1.595,8.214-0.21,9.808-4.032c4.368-10.464,4.409-20.045,2.252-28.24
			c12.425,9.362,25.068,24.748,25.068,48.607v129.305c0,4.142,3.357,7.499,7.499,7.499c4.142,0,7.499-3.357,7.499-7.499v-81.488
			c0-20.457,15.259-27.682,19.158-27.682c4.142,0,7.499-3.357,7.499-7.499c0-4.142-3.357-7.499-7.499-7.499
			c-5.413,0-12.701,2.8-19.158,8.353V276.461c0-20.457,15.259-27.682,19.158-27.682c4.142,0,7.499-3.357,7.499-7.499
			s-3.357-7.499-7.499-7.499c-5.412,0-12.702,2.788-19.158,8.339v-68.979c2.858-12.705,5.874-22.619,8.739-30.315
			c2.061,5.545,5.591,11.068,11.192,16.115c6.093,5.49,13.185,8.302,20.48,8.302c4.135,0,8.336-0.904,12.454-2.737
			c14.929-6.643,25.763-24.022,25.763-41.322c0-22.276,6.636-39.417,15.779-40.758c2.936-0.43,5.342-2.551,6.137-5.41
			C491.414,74.157,490.449,71.098,488.157,69.213z M317.209,123.535c-3.873,12.696-12.901,16.374-19.791,17.224
			c-15.237,1.877-33.204-7.46-41.781-21.725c-9.145-15.209-20.154-27.973-30.996-35.941c-8.569-6.298-16.143-9.082-22.572-9.868
			c4.118-7.152,10.609-16.317,19.792-23.476c0.055-0.043,0.112-0.089,0.166-0.134c0.16-0.132,16.181-13.283,36.273-23.302
			c17.383-8.668,41.497-16.784,57.663-6.22c9.126,5.962,12.015,14.045,8.59,24.023c-4.086,11.906-14.899,20.149-19.958,20.74
			c-7.608-3.062-41.666-15.314-79.931-6.463c-4.035,0.933-6.549,4.961-5.615,8.996c0.933,4.035,4.96,6.545,8.996,5.616
			c35.635-8.245,68.222,4.63,71.689,6.069c1.316,0.807,7.139,4.591,12.063,11.168C319.134,100.048,320.957,111.249,317.209,123.535z
			 M459.757,88.109c-3.959,9.48-6.052,21.609-6.052,35.075c0,11.279-7.407,23.412-16.863,27.62
			c-5.978,2.661-11.631,1.651-16.797-3.004c-14.462-13.031-6.998-29.088-5.471-31.983c1.607-2.156,12.565-16.266,30.52-25.437
			c3.689-1.884,5.152-6.401,3.268-10.09c-1.885-3.688-6.403-5.153-10.09-3.267c-19.311,9.863-31.454,24.283-35.062,28.955
			c-2.774,0.858-11.41,0.103-17.927-5.429c-5.139-4.363-6.151-9.557-3.091-15.879c9.634-19.91,52.425-18.185,68.098-15.842
			c0.071,0.011,0.143,0.021,0.215,0.029c6.902,0.837,13.179,3.252,18.044,5.693C465.366,77.639,462.31,81.997,459.757,88.109z"/>
	</g>
</g>
<g>
</g>
<g>
</g>
<g>
</g>
<g>
</g>
<g>
</g>
<g>
</g>
<g>
</g>
<g>
</g>
<g>
</g>
<g>
</g>
<g>
</g>
<g>
</g>
<g>
</g>
<g>
</g>
<g>
</g>
</svg>
