<?xml version="1.0" encoding="iso-8859-1"?>
<!-- Generator: Adobe Illustrator 21.0.0, SVG Export Plug-In . SVG Version: 6.00 Build 0)  -->
<svg version="1.1" id="Capa_1" xmlns="http://www.w3.org/2000/svg" xmlns:xlink="http://www.w3.org/1999/xlink" x="0px" y="0px"
	 viewBox="0 0 512.001 512.001" style="enable-background:new 0 0 512.001 512.001;" xml:space="preserve">
<g>
	<g>
		<circle style="fill:#FCDD2E;" cx="358.799" cy="133.133" r="61.353"/>
		<path style="fill:#F9C301;" d="M358.795,194.483c-33.88,0-61.35-27.46-61.35-61.35c0-33.88,27.47-61.35,61.35-61.35
			c-12.42,0-22.48,27.47-22.48,61.35C336.315,167.023,346.375,194.483,358.795,194.483z"/>
		<path style="fill:#A5E4EF;" d="M402.404,466.206l-165.557,19.146L71.502,466.206c0,0-3.064-9.51-7.155-25.373
			c-9.815-38.105-25.521-112.894-18.846-180.827c0,0,54.359-89.874,191.452-160.168c8.257,4.236,16.22,8.544,23.888,12.894
			c25.37,14.411,47.507,29.333,66.657,43.898c10.454,7.96,20.025,15.807,28.728,23.418c11.414,9.973,21.355,19.523,29.898,28.327
			c29.292,30.161,42.28,51.631,42.28,51.631C437.858,356.233,402.404,466.206,402.404,466.206z"/>
		<path style="fill:#DAF3F8;" d="M386.125,208.374L231.709,466.206h-46.868l171.385-286.159
			C367.641,190.02,377.581,199.57,386.125,208.374z"/>
		<path style="fill:#DAF3F8;" d="M327.498,156.63L142.09,466.206H71.502c0,0-3.064-9.51-7.155-25.373l196.494-328.102
			C286.211,127.142,308.349,142.064,327.498,156.63z"/>
		<path style="fill:#02C6DB;" d="M402.411,480.1c-1.413,0-2.848-0.217-4.265-0.674c-7.3-2.354-11.31-10.18-8.957-17.48
			c0.41-1.278,33.629-105.99,25.703-197.264c-4.387-6.57-17.736-25.409-41.478-49.445c-26.383-26.71-71.214-65.332-136.461-99.745
			c-65.248,34.413-110.079,73.035-136.461,99.745c-23.731,24.026-37.078,42.858-41.478,49.446
			C51.08,356.053,84.377,460.889,84.719,461.95c2.349,7.3-1.663,15.125-8.963,17.476c-7.299,2.351-15.123-1.657-17.476-8.956
			c-1.484-4.602-36.229-113.846-26.603-211.818c0.203-2.064,0.865-4.056,1.938-5.83c0.589-0.974,14.794-24.229,46.298-56.276
			c28.752-29.248,78.238-71.912,150.703-109.067c3.979-2.04,8.695-2.04,12.674,0c72.466,37.155,121.951,79.819,150.703,109.067
			c31.504,32.047,45.709,55.301,46.298,56.276c1.073,1.774,1.736,3.766,1.938,5.83c9.626,97.972-25.12,207.215-26.603,211.818
			C413.729,476.353,408.277,480.1,402.411,480.1z"/>
		<circle style="fill:#665E66;" cx="196.374" cy="363.097" r="14.26"/>
		<path style="fill:#49CB8B;" d="M426.979,466.207H46.716c-10.573,0-19.145,8.571-19.145,19.145v0
			c0,10.573,8.571,19.145,19.145,19.145h380.263c10.573,0,19.145-8.571,19.145-19.145v0
			C446.124,474.779,437.552,466.207,426.979,466.207z"/>
		<path style="fill:#13B766;" d="M90.213,498.896c3.468,3.46,8.257,5.606,13.543,5.606H46.712c-5.286,0-10.067-2.146-13.535-5.606
			c-3.468-3.468-5.606-8.257-5.606-13.543c0-10.572,8.569-19.141,19.141-19.141h57.044c-10.572,0-19.149,8.569-19.149,19.141
			C84.607,490.638,86.753,495.428,90.213,498.896z"/>
	</g>
	<g>
		<path d="M196.374,341.337c-11.999,0-21.76,9.761-21.76,21.76c0,11.998,9.761,21.76,21.76,21.76s21.76-9.761,21.76-21.76
			C218.134,351.099,208.373,341.337,196.374,341.337z M196.374,369.857c-3.728,0-6.76-3.032-6.76-6.76c0-3.728,3.032-6.76,6.76-6.76
			s6.76,3.032,6.76,6.76C203.134,366.825,200.102,369.857,196.374,369.857z"/>
		<path d="M426.98,458.711h-0.048c9.078-32.499,30.635-120.685,22.765-200.792c-0.309-3.155-1.345-6.262-2.989-8.974
			c-0.606-1.003-15.204-24.942-47.365-57.654c-0.473-0.481-0.966-0.975-1.45-1.463c18.572-12.731,29.757-33.649,29.757-56.698
			c0-4.142-3.358-7.5-7.5-7.5s-7.5,3.358-7.5,7.5c0,19.03-9.749,36.201-25.751,45.947c-19.528-18.521-45.823-40.563-79.28-62.692
			c7.142-21.773,27.9-37.105,51.181-37.105c20.153,0,38.465,11.115,47.79,29.006c1.914,3.673,6.443,5.1,10.117,3.185
			c3.673-1.914,5.099-6.444,3.185-10.117c-11.918-22.868-35.327-37.074-61.091-37.074c-15.737,0-31.125,5.448-43.327,15.339
			c-9.298,7.537-16.459,17.41-20.787,28.444c-14.726-9.228-30.693-18.395-47.964-27.251c-6.111-3.146-13.414-3.148-19.529-0.006
			c-73.36,37.613-123.493,80.843-152.63,110.484c-32.162,32.712-46.76,56.651-47.358,57.642c-1.645,2.712-2.678,5.82-2.988,8.983
			c-7.875,80.151,13.678,168.304,22.756,200.794H46.72c-14.695,0-26.65,11.951-26.65,26.64c0,7.117,2.772,13.809,7.799,18.835
			c5.024,5.039,11.719,7.815,18.851,7.815h380.26c14.689,0,26.64-11.955,26.64-26.65c0-7.125-2.775-13.817-7.799-18.826
			C440.796,461.487,434.105,458.711,426.98,458.711z M39.145,259.382c0.094-0.957,0.392-1.856,0.893-2.682
			c0.568-0.942,14.279-23.42,45.222-54.892c28.363-28.854,77.199-70.952,148.783-107.655c1.824-0.937,3.999-0.938,5.826,0.003
			c71.579,36.7,120.414,78.799,148.778,107.652c30.942,31.471,44.653,53.95,45.229,54.904c0.5,0.825,0.801,1.724,0.895,2.672
			c7.984,81.261-15.449,171.637-23.427,199.328h-13.338c6.775-23.015,31.391-113.74,24.356-194.681
			c-0.109-1.255-0.533-2.463-1.231-3.511c-4.716-7.073-18.286-26.159-42.38-50.552c-26.479-26.817-71.965-66.126-138.292-101.109
			c-2.19-1.155-4.808-1.156-6.998,0c-66.302,34.965-111.804,74.282-138.301,101.109c-24.039,24.337-37.645,43.458-42.378,50.549
			c-0.701,1.05-1.125,2.259-1.234,3.516c-7.075,81.489,17.55,171.751,24.344,194.68H62.563
			C54.585,431.031,31.157,340.69,39.145,259.382z M404.873,351.571h-85.826v-79.392h88.881
			C409.63,298.709,407.999,326.144,404.873,351.571z M169.859,272.179h134.188v186.528H169.859V272.179z M319.047,257.179v-80
			c20.594,16.009,36.879,31.025,49.028,43.329c14.705,14.887,25.271,27.626,32.18,36.671H319.047z M304.047,257.179H169.859v-91.257
			c19.185-13.899,41.51-28.227,67.098-41.936c25.589,13.71,47.91,28.036,67.09,41.931V257.179z M154.859,257.179H73.655
			c6.92-9.058,17.494-21.808,32.175-36.671c12.154-12.305,28.44-27.32,49.029-43.324V257.179z M65.977,272.179h88.882v79.392H69.021
			C65.9,326.16,64.275,298.731,65.977,272.179z M319.047,366.571h83.784c-7.125,47.846-18.525,85.79-20.492,92.141h-63.292V366.571z
			 M426.98,497.001H46.72c-3.117,0-6.039-1.209-8.237-3.414c-2.201-2.201-3.414-5.126-3.414-8.236c0-6.418,5.227-11.64,11.65-11.64
			h61.81c4.142,0,7.5-3.358,7.5-7.5s-3.358-7.5-7.5-7.5H91.565c-1.954-6.296-13.375-44.238-20.504-92.141h83.798v92.141H138.49
			c-4.142,0-7.5,3.358-7.5,7.5s3.358,7.5,7.5,7.5h288.49c3.11,0,6.029,1.209,8.234,3.421c2.196,2.19,3.406,5.109,3.406,8.219
			C438.62,491.775,433.398,497.001,426.98,497.001z"/>
		<path d="M413.661,70.021c1.42,1.234,3.172,1.84,4.917,1.84c2.096,0,4.181-0.874,5.664-2.58l24.182-27.818
			c2.718-3.126,2.386-7.863-0.74-10.581s-7.863-2.386-10.581,0.74L412.921,59.44C410.203,62.566,410.535,67.304,413.661,70.021z"/>
		<path d="M437.867,105.908c1.07,3.108,3.979,5.06,7.091,5.06c0.81,0,1.634-0.132,2.442-0.411l34.851-12
			c3.917-1.348,5.998-5.617,4.649-9.533c-1.348-3.917-5.618-5.998-9.533-4.649l-34.851,12
			C438.6,97.723,436.518,101.991,437.867,105.908z"/>
		<path d="M485.861,150.191l-36.182-7.033c-4.063-0.789-8.003,1.865-8.793,5.931c-0.79,4.066,1.865,8.003,5.931,8.793l36.182,7.033
			c0.483,0.094,0.965,0.139,1.439,0.139c3.518,0,6.658-2.488,7.354-6.07C492.583,154.918,489.927,150.981,485.861,150.191z"/>
		<path d="M460.309,211.437l-27.818-24.182c-3.125-2.717-7.863-2.387-10.581,0.74c-2.718,3.126-2.386,7.863,0.74,10.581
			l27.818,24.182c1.42,1.234,3.172,1.84,4.917,1.84c2.096,0,4.181-0.874,5.664-2.58
			C463.767,218.891,463.435,214.154,460.309,211.437z"/>
		<path d="M257.289,54.829l27.818,24.182c1.42,1.234,3.172,1.84,4.917,1.84c2.096,0,4.181-0.874,5.664-2.58
			c2.718-3.126,2.386-7.863-0.74-10.581l-27.818-24.182c-3.125-2.718-7.863-2.386-10.581,0.74
			C253.831,47.374,254.163,52.111,257.289,54.829z"/>
		<path d="M322.041,49.415c1.07,3.108,3.978,5.06,7.091,5.06c0.81,0,1.634-0.132,2.442-0.411c3.917-1.348,5.998-5.617,4.649-9.533
			l-12-34.851c-1.349-3.917-5.616-6-9.533-4.65c-3.917,1.348-5.998,5.616-4.649,9.533L322.041,49.415z"/>
		<path d="M374.755,51.046c0.483,0.094,0.965,0.139,1.439,0.139c3.518,0,6.658-2.488,7.354-6.071l7.033-36.182
			c0.79-4.066-1.865-8.003-5.931-8.793c-4.063-0.79-8.003,1.865-8.793,5.931l-7.033,36.182
			C368.034,46.318,370.689,50.255,374.755,51.046z"/>
	</g>
</g>
<g>
</g>
<g>
</g>
<g>
</g>
<g>
</g>
<g>
</g>
<g>
</g>
<g>
</g>
<g>
</g>
<g>
</g>
<g>
</g>
<g>
</g>
<g>
</g>
<g>
</g>
<g>
</g>
<g>
</g>
</svg>
