<?xml version="1.0" encoding="iso-8859-1"?>
<!-- Generator: Adobe Illustrator 21.0.0, SVG Export Plug-In . SVG Version: 6.00 Build 0)  -->
<svg version="1.1" id="Capa_1" xmlns="http://www.w3.org/2000/svg" xmlns:xlink="http://www.w3.org/1999/xlink" x="0px" y="0px"
	 viewBox="0 0 512 512" style="enable-background:new 0 0 512 512;" xml:space="preserve">
<g>
	<g>
		<g>
			<circle style="fill:#FA4954;" cx="334.694" cy="229.136" r="134.354"/>
			<path style="fill:#E21F2D;" d="M334.716,363.483c-74.201,0-134.375-60.145-134.375-134.347S260.515,94.761,334.716,94.761
				c-31.917,0-57.793,60.174-57.793,134.376S302.799,363.483,334.716,363.483z"/>
			<ellipse style="fill:#FC8086;" cx="414.576" cy="229.346" rx="24.76" ry="43.656"/>
		</g>
		<polygon style="fill:#49CB8B;" points="415.04,114.01 424.35,216.07 351.22,158.03 309.55,187.3 309.49,187.34 258.61,223.09 
			291.42,132.75 190.06,101.9 292.3,63.15 287.07,7.51 287.08,7.52 357.8,68.73 455.26,85.75 		"/>
		<polygon style="fill:#13B766;" points="320.75,80.78 309.55,187.3 309.49,187.34 258.61,223.09 291.42,132.75 190.06,101.9 
			292.3,63.15 287.07,7.51 287.08,7.52 		"/>
		<g>
			<circle style="fill:#FA4954;" cx="177.298" cy="370.139" r="134.354"/>
			<path style="fill:#E21F2D;" d="M177.32,504.486c-74.201,0-134.375-60.145-134.375-134.347s60.174-134.376,134.375-134.376
				c-31.917,0-57.793,60.174-57.793,134.376S145.403,504.486,177.32,504.486z"/>
			<ellipse style="fill:#FC8086;" cx="256.893" cy="379.861" rx="24.76" ry="43.656"/>
		</g>
		<polygon style="fill:#49CB8B;" points="220.57,273.75 253.38,364.1 160.77,299.03 87.64,357.08 96.95,255.02 56.73,226.76 
			154.19,209.73 224.92,148.51 219.69,204.16 321.93,242.9 		"/>
		<polygon style="fill:#13B766;" points="172.19,243.68 160.77,299.03 87.64,357.08 96.95,255.02 56.73,226.76 154.19,209.73 		"/>
	</g>
	<path d="M422.943,118.079l-0.039-0.427l36.667-25.754c2.482-1.744,3.67-4.811,3.009-7.772s-3.041-5.232-6.029-5.754l-35.38-6.18
		c-4.081-0.711-7.966,2.018-8.679,6.098c-0.713,4.08,2.017,7.966,6.098,8.679l17.54,3.064l-25.4,17.841
		c-2.198,1.544-3.403,4.145-3.158,6.82l7.727,84.622l-59.426-47.159c-2.604-2.066-6.256-2.172-8.975-0.261l-73.105,51.382
		L298.47,135.3c0.702-1.934,0.579-4.072-0.341-5.913c-0.92-1.841-2.556-3.222-4.525-3.822l-80.332-24.45l81.686-30.952
		c3.157-1.196,5.125-4.354,4.81-7.715l-3.482-37.051l47.388,41.023c-6.336,15.933-11.126,34.047-11.126,52.406
		c0,4.142,3.358,7.5,7.5,7.5s7.5-3.358,7.5-7.5c0-14.657,3.587-29.396,8.568-42.804c0.132,0.031,0.261,0.073,0.395,0.097l32.53,5.68
		c4.083,0.712,7.966-2.018,8.678-6.098c0.712-4.08-2.018-7.966-6.098-8.678l-29.563-5.162
		c10.813-23.169,23.752-39.701,23.973-39.981c2.575-3.244,2.032-7.962-1.212-10.537c-3.246-2.575-7.962-2.032-10.537,1.212
		c-0.929,1.17-13.248,16.876-24.263,39.519L291.979,1.83c-2.315-2.005-5.619-2.4-8.342-0.998c-2.724,1.402-4.321,4.32-4.034,7.37
		l4.695,49.96l-96.896,36.715c-3,1.137-4.945,4.057-4.838,7.264c0.107,3.207,2.242,5.99,5.312,6.925l50.981,15.517
		c-5.574,5.111-10.725,10.655-15.421,16.597c-1.239,0.251-2.423,0.796-3.421,1.66L159.55,195.17
		c-3.49-5.354-7.419-10.568-11.789-15.608c-15.521-17.905-30.984-27.364-31.635-27.758c-3.544-2.145-8.155-1.011-10.3,2.532
		s-1.011,8.155,2.532,10.3c0.351,0.213,22.277,13.763,38.606,38.742l-91.526,15.991c-2.988,0.522-5.368,2.793-6.029,5.753
		c-0.661,2.961,0.526,6.028,3.008,7.772l36.673,25.764l-0.04,0.437C54.94,286.183,35.441,326.461,35.441,370.14
		c0,21.937,4.875,42.965,14.491,62.502c1.305,2.652,3.966,4.19,6.735,4.19c1.112,0,2.241-0.248,3.306-0.772
		c3.716-1.829,5.246-6.325,3.417-10.041c-8.592-17.458-12.949-36.259-12.949-55.878c0-33.932,13.161-65.571,36.615-89.178
		l-6.883,75.434c-0.273,2.989,1.263,5.853,3.903,7.28c2.641,1.427,5.878,1.142,8.228-0.724l68.739-54.561l88.027,61.842
		c1.296,0.91,2.804,1.363,4.311,1.363c1.609,0,3.217-0.517,4.56-1.545c2.6-1.99,3.608-5.438,2.49-8.516l-30.111-82.911l25.838-7.864
		c30.55,24.23,47.992,60.237,47.992,99.379c0,69.951-56.905,126.86-126.85,126.86c-38.494,0-74.46-17.184-98.677-47.145
		c-2.604-3.222-7.327-3.722-10.547-1.118c-3.222,2.604-3.722,7.326-1.119,10.548C94.036,492.786,134.254,512,177.3,512
		c78.209,0,141.838-63.627,141.85-141.839c5.151,0.561,10.349,0.844,15.537,0.844c78.229,0,141.873-63.644,141.873-141.873
		C476.56,185.466,457.058,145.185,422.943,118.079z M255.869,129.76l25.803,7.854L255.5,209.707l-27.808-10.539l4.164-44.262
		C238.684,145.448,246.741,137.008,255.869,129.76z M213.523,276.313l24.679,67.952l-73.12-51.369
		c-1.297-0.911-2.805-1.363-4.311-1.363c-1.652,0-3.301,0.545-4.663,1.625L96.703,340.31l7.72-84.612
		c0.244-2.674-0.96-5.275-3.157-6.818l-25.41-17.851l78.888-13.784c5.774,12.243,9.7,26.486,9.7,42.583c0,4.142,3.358,7.5,7.5,7.5
		s7.5-3.358,7.5-7.5c0-17.691-4.197-35.058-12.301-51.393l48.565-42.03l-3.485,37.049c-0.316,3.361,1.652,6.519,4.809,7.716
		l81.689,30.959l-80.333,24.449c-1.969,0.599-3.605,1.981-4.525,3.822C212.943,272.24,212.82,274.378,213.523,276.313z
		 M334.687,356.006c-5.464,0-10.939-0.352-16.342-1.046c-1.815-17.258-6.735-33.827-14.721-49.418
		c-7.658-14.95-18.068-28.55-30.477-39.952l50.966-15.512c3.07-0.934,5.205-3.718,5.312-6.925c0.107-3.207-1.837-6.127-4.838-7.264
		l-46.201-17.51l72.551-50.992l68.761,54.566c2.351,1.866,5.587,2.15,8.229,0.723c2.64-1.427,4.175-4.291,3.902-7.28l-6.889-75.444
		c23.457,23.618,36.619,55.258,36.619,89.179C461.56,299.091,404.645,356.006,334.687,356.006z"/>
</g>
<g>
</g>
<g>
</g>
<g>
</g>
<g>
</g>
<g>
</g>
<g>
</g>
<g>
</g>
<g>
</g>
<g>
</g>
<g>
</g>
<g>
</g>
<g>
</g>
<g>
</g>
<g>
</g>
<g>
</g>
</svg>
