<?xml version="1.0" encoding="iso-8859-1"?>
<!-- Generator: Adobe Illustrator 21.0.0, SVG Export Plug-In . SVG Version: 6.00 Build 0)  -->
<svg version="1.1" id="Capa_1" xmlns="http://www.w3.org/2000/svg" xmlns:xlink="http://www.w3.org/1999/xlink" x="0px" y="0px"
	 viewBox="0 0 512 512" style="enable-background:new 0 0 512 512;" xml:space="preserve">
<g>
	<g>
		<path style="fill:#D5694C;" d="M122.032,459.058c0,0,46.006-85.687,133.969-99.37c87.963,13.683,133.969,99.37,133.969,99.37
			L256,481.786L122.032,459.058z"/>
		<path style="fill:#A64C31;" d="M219.471,459.058l36.53,22.73l-133.969-22.73c0,0,46.01-85.679,133.969-99.369
			C232.011,373.368,219.471,459.058,219.471,459.058z"/>
		<g>
			<path style="fill:#49CB8B;" d="M431.777,192.557c-25.812,3.786-38.202,41.987-38.202,82.943
				c0,41.849-44.741,83.287-79.501,51.968s-11.701-71.585-11.701-71.585c-17.208,12.39-77.092-9.636-56.442-52.312
				c24.415-50.458,130.781-34.416,130.781-34.416C407.915,172.94,431.777,192.557,431.777,192.557z"/>
			<path style="fill:#13B766;" d="M302.373,255.893c-17.208,12.391-77.095-9.634-56.442-52.323
				c24.424-50.453,130.78-34.417,130.78-34.417c31.195,3.792,55.059,23.409,55.059,23.409
				C350.892,186.71,302.373,255.893,302.373,255.893z"/>
		</g>
		<g>
			<path style="fill:#49CB8B;" d="M77.986,33.354c25.812,3.786,38.202,41.987,38.202,82.942c0,41.849,44.741,83.287,79.501,51.968
				s11.701-71.585,11.701-71.585c17.208,12.39,77.092-9.636,56.442-52.312C239.417-6.091,133.052,9.951,133.052,9.951
				C101.848,13.737,77.986,33.354,77.986,33.354z"/>
			<path style="fill:#13B766;" d="M207.39,96.69c17.208,12.391,77.095-9.634,56.442-52.323C239.409-6.086,133.052,9.95,133.052,9.95
				C101.857,13.743,77.994,33.36,77.994,33.36C158.87,27.507,207.39,96.69,207.39,96.69z"/>
		</g>
		<path style="fill:#49CB8B;" d="M481.766,459.053H30.234c-12.555,0-22.733,10.178-22.733,22.733v0
			c0,12.555,10.178,22.733,22.733,22.733h451.532c12.555,0,22.733-10.178,22.733-22.733v0
			C504.499,469.231,494.321,459.053,481.766,459.053z"/>
		<path style="fill:#13B766;" d="M81.884,497.868c4.118,4.108,9.805,6.657,16.082,6.657H30.23c-6.277,0-11.954-2.549-16.072-6.657
			c-4.118-4.118-6.657-9.805-6.657-16.082c0-12.554,10.175-22.728,22.728-22.728h67.735c-12.554,0-22.738,10.175-22.738,22.728
			C75.227,488.063,77.776,493.75,81.884,497.868z"/>
	</g>
	<path d="M481.749,451.539h-87.464c-4.048-6.73-13.455-21.209-28.212-37.261c-2.804-3.049-7.546-3.249-10.597-0.446
		c-3.049,2.803-3.249,7.547-0.445,10.596c9.507,10.341,16.682,20.064,21.436,27.111H135.555
		c15.431-22.793,56.46-73.776,120.447-84.267c27.664,4.527,53.93,17.023,78.092,37.154c3.183,2.652,7.912,2.221,10.562-0.961
		c2.651-3.182,2.222-7.911-0.961-10.562c-23.688-19.737-49.364-32.719-76.447-38.716c6.768-28.582,13.989-48.678,20.375-62.636
		c1.115,12.811,6.375,27.921,21.427,41.483c9.443,8.507,20.422,12.866,31.701,12.866c6.371,0,12.838-1.391,19.174-4.212
		c23.838-10.609,41.14-38.446,41.14-66.19c0-20.213,3.14-38.863,8.841-52.516c3.985-9.542,11.201-21.278,22.947-23.001
		c2.936-0.431,5.342-2.552,6.137-5.411s-0.17-5.918-2.463-7.802c-1.042-0.857-25.875-21.006-58.814-25.04
		c-5.304-0.789-90.642-12.801-127.574,23.422c-7.76-40.491-17.485-64.215-25.244-77.798c11.883-0.976,25.142-6,34.993-14.274
		c16.191-13.603,20.089-32.543,10.695-51.962C244.254-13.305,137.989,1.651,132.051,2.533C99.115,6.57,74.275,26.723,73.232,27.58
		c-2.293,1.885-3.259,4.944-2.463,7.803c0.795,2.859,3.202,4.981,6.139,5.41c11.75,1.72,18.966,13.455,22.951,22.995
		c5.702,13.651,8.843,32.302,8.843,52.518c0,24.27,13.479,49.214,33.541,62.07c3.487,2.235,8.126,1.219,10.361-2.268
		c2.235-3.487,1.219-8.126-2.268-10.36c-15.682-10.049-26.634-30.38-26.634-49.441c0-22.154-3.552-42.858-10.001-58.298
		c-5.029-12.04-11.746-20.916-19.811-26.312c9.32-5.481,23.697-12.297,40.075-14.287c0.072-0.009,0.143-0.018,0.214-0.029
		c0.258-0.038,26.076-3.855,54.534-1.651c45.448,3.522,62.263,19.302,68.367,31.919c6.436,13.304,4.134,24.725-6.841,33.946
		c-12.45,10.46-30.955,13.043-37.658,9.494c-5.49-7.355-34.184-43.273-81.583-58.668c-3.94-1.281-8.17,0.876-9.45,4.816
		c-1.279,3.939,0.877,8.17,4.816,9.449c45.072,14.64,72.4,50.917,74.709,54.073c2.124,3.981,18.042,36.318-10.4,61.945
		c-5.181,4.673-10.746,7.564-16.539,8.595c-4.078,0.725-6.796,4.619-6.071,8.697c0.646,3.634,3.808,6.188,7.375,6.188
		c0.436,0,0.878-0.038,1.322-0.117c8.599-1.529,16.66-5.642,23.956-12.221c13.463-12.131,19.091-25.501,20.928-37.357
		c5.605,15.103,11.541,36.478,16.389,66.368c-6.662,15.67-4.651,30.886,5.507,43.078c3.124,31.881,4.787,67.988,4.945,107.466
		c-35.278,6.992-68.976,26.205-97.822,55.864c-17.49,17.983-28.482,34.848-32.948,42.276H30.251
		c-16.669,0-30.231,13.561-30.231,30.23c0,16.669,13.562,30.23,30.231,30.23h451.498c16.669,0,30.23-13.561,30.23-30.23
		C511.98,465.1,498.418,451.539,481.749,451.539z M262.805,314.203c-0.612-19.446-1.629-37.908-3.044-55.275
		c7.671,4.145,16.198,6.73,24.164,7.523C277.764,276.239,270.293,291.312,262.805,314.203z M320.801,174.943
		c28.471-2.239,54.526,1.594,54.783,1.633c0.071,0.011,0.143,0.021,0.215,0.029c16.381,1.987,30.757,8.802,40.073,14.282
		c-8.063,5.397-14.779,14.274-19.807,26.315c-6.449,15.441-10,36.145-10,58.296c0,21.743-13.859,44.308-32.239,52.487
		c-8.541,3.801-21.503,5.83-34.737-6.095c-28.574-25.745-12.374-58.261-10.382-61.972c2.413-3.308,29.544-39.382,74.688-54.045
		c3.94-1.28,6.096-5.51,4.816-9.45c-1.279-3.94-5.513-6.093-9.449-4.816c-47.407,15.398-76.104,51.326-81.587,58.673
		c-2.597,1.34-7.832,2.23-15.362,0.817c-8.193-1.536-16.318-5.295-22.29-10.312c-10.977-9.222-13.279-20.643-6.843-33.945
		C263.715,184.039,295.815,176.909,320.801,174.943z M481.749,497.001H30.251c-8.399,0-15.232-6.833-15.232-15.232
		c0-8.399,6.833-15.232,15.232-15.232h451.498c8.399,0,15.231,6.833,15.231,15.232C496.981,490.168,490.148,497.001,481.749,497.001
		z"/>
</g>
<g>
</g>
<g>
</g>
<g>
</g>
<g>
</g>
<g>
</g>
<g>
</g>
<g>
</g>
<g>
</g>
<g>
</g>
<g>
</g>
<g>
</g>
<g>
</g>
<g>
</g>
<g>
</g>
<g>
</g>
</svg>
