<?xml version="1.0" encoding="iso-8859-1"?>
<!-- Generator: Adobe Illustrator 21.0.0, SVG Export Plug-In . SVG Version: 6.00 Build 0)  -->
<svg version="1.1" id="Capa_1" xmlns="http://www.w3.org/2000/svg" xmlns:xlink="http://www.w3.org/1999/xlink" x="0px" y="0px"
	 viewBox="0 0 512 512" style="enable-background:new 0 0 512 512;" xml:space="preserve">
<g>
	<g>
		<path style="fill:#D5694C;" d="M448.466,459.04L256,481.771L63.534,459.04c0,0,23.617-43.974,69.598-83.555
			c14.413-12.407,34.602-15.271,52.114-7.856c19.623,8.309,44.147,13.243,70.753,13.243s51.131-4.934,70.753-13.243
			c17.512-7.416,37.701-4.551,52.114,7.856C424.849,415.066,448.466,459.04,448.466,459.04z"/>
		<path style="fill:#A64C31;" d="M186.544,459.04l69.45,22.73L63.534,459.04c0,0,23.61-43.97,69.59-83.56
			c14.42-12.4,34.61-15.27,52.12-7.85c7.98,3.39,16.78,6.2,26.2,8.36C194.993,415.45,186.544,459.04,186.544,459.04z"/>
		<path style="fill:#49CB8B;" d="M481.766,459.039H30.234c-12.555,0-22.733,10.178-22.733,22.733v0
			c0,12.555,10.178,22.733,22.733,22.733h451.533c12.555,0,22.733-10.178,22.733-22.733v0
			C504.499,469.216,494.321,459.039,481.766,459.039z"/>
		<path style="fill:#13B766;" d="M81.883,497.853c4.118,4.108,9.805,6.657,16.082,6.657H30.229c-6.277,0-11.954-2.549-16.072-6.657
			c-4.118-4.118-6.657-9.805-6.657-16.082c0-12.554,10.175-22.728,22.728-22.728h67.736c-12.554,0-22.738,10.175-22.738,22.728
			C75.226,488.048,77.775,493.735,81.883,497.853z"/>
		<g>
			<path style="fill:#FCD0A3;" d="M288.732,105.389c-4.085,14.267-18.958,22.52-33.221,18.428
				c-17.777-5.09-24.219-9.974-24.219-9.974l89.258,89.258c4.59,4.59,6.889,10.61,6.889,16.637c0,6.028-2.299,12.048-6.889,16.637
				c-9.184,9.184-24.074,9.188-33.263,0.012l20.938,20.938c9.189,9.189,9.189,24.088,0,33.277l0,0
				c-9.189,9.189-24.088,9.189-33.277,0l-25.946-25.946l0,0c9.189,9.189,9.189,24.088,0,33.277l0,0
				c-9.189,9.189-24.088,9.189-33.277,0l-33.695-33.695c9.189,9.189,9.189,24.088,0,33.277l0,0c-9.189,9.189-24.088,9.189-33.277,0
				L69.29,218.054c-35.78-35.78-54.415-100.318-13.783-140.949c0,0,28.979-28.979,49.559-49.559
				c55.053-55.053,131.646,20.811,131.646,20.811s19.847,19.871,33.592,23.811C284.564,76.249,292.817,91.122,288.732,105.389z"/>
			<path style="fill:#FFB983;" d="M55.508,77.107c0,0,4.427-4.427,11.052-11.052c-40.63,40.63-21.998,105.168,13.782,140.947
				l79.464,79.464c4.589,4.589,10.621,6.887,16.638,6.894c3.479,0,6.965-0.771,10.168-2.319c-1.11,2.34-2.645,4.54-4.582,6.477
				c-4.596,4.596-10.621,6.887-16.638,6.894c-6.025,0-12.049-2.305-16.638-6.894L69.29,218.054
				C33.51,182.274,14.871,117.744,55.508,77.107z"/>
			<path style="fill:#FFB983;" d="M288.729,105.39c-4.08,14.262-18.957,22.521-33.22,18.427c-17.777-5.091-24.211-9.97-24.211-9.97
				l-24.968-24.968c-2.761-2.761-2.761-7.237,0-9.997l0,0c2.73-2.73,7.138-2.765,9.913-0.082
				C229.391,91.508,266.027,123.136,288.729,105.39z"/>
			<path style="fill:#FFB983;" d="M132.256,203.413c3.052-3.052,8-3.052,11.052,0l83.471,83.471
				c4.589,4.589,10.621,6.887,16.638,6.894c3.479,0,6.965-0.771,10.168-2.319c-1.11,2.34-2.645,4.54-4.582,6.477
				c-4.596,4.596-10.621,6.887-16.638,6.894c-6.025,0-12.049-2.305-16.638-6.894l-83.471-83.471
				C129.204,211.413,129.204,206.465,132.256,203.413L132.256,203.413z"/>
			<path style="fill:#FFB983;" d="M173.868,178.471c3.052-3.052,8-3.052,11.052,0l101.081,101.081
				c4.589,4.589,10.621,6.887,16.638,6.894c3.479,0,6.965-0.771,10.168-2.319c-1.11,2.34-2.645,4.54-4.582,6.477
				c-4.596,4.596-10.621,6.887-16.638,6.894c-6.025,0-12.049-2.305-16.638-6.894L173.868,189.524
				C170.816,186.472,170.816,181.523,173.868,178.471L173.868,178.471z"/>
			<path style="fill:#FFB983;" d="M201.329,139.38c3.052-3.052,8-3.052,11.052,0l85.946,85.946
				c4.589,4.589,10.621,6.887,16.638,6.894c3.479,0,6.965-0.771,10.168-2.319c-1.11,2.34-2.645,4.54-4.582,6.477
				c-4.596,4.596-10.621,6.887-16.638,6.894c-6.025,0-12.049-2.305-16.638-6.894l-85.946-85.946
				C198.277,147.38,198.277,142.432,201.329,139.38L201.329,139.38z"/>
		</g>
		<g>
			<path style="fill:#FCDD2E;" d="M201.87,148.64c-23.858,0-44.679,12.947-55.861,32.189c11.182,19.242,32.003,32.189,55.861,32.189
				s44.679-12.947,55.861-32.189C246.549,161.587,225.728,148.64,201.87,148.64z"/>
			<path style="fill:#F9C301;" d="M201.87,172.1c-23.86,0-44.68,3.51-55.86,8.73c11.18-19.24,32-32.19,55.86-32.19
				c23.86,0,44.68,12.95,55.86,32.19C246.55,175.61,225.73,172.1,201.87,172.1z"/>
		</g>
		<g>
			<path style="fill:#FCDD2E;" d="M231.352,257.083c-12.355,20.41-12.06,44.927-1.39,64.457
				c22.252,0.398,44.11-10.709,56.464-31.119c12.355-20.41,12.06-44.927,1.39-64.457
				C265.564,225.566,243.706,236.673,231.352,257.083z"/>
			<path style="fill:#F9C301;" d="M251.421,269.232c-12.356,20.412-20.134,40.04-21.458,52.308
				c-10.67-19.527-10.967-44.044,1.389-64.456c12.356-20.412,34.215-31.517,56.464-31.118
				C277.561,232.827,263.777,248.82,251.421,269.232z"/>
		</g>
	</g>
	<g>
		<path d="M481.763,451.535h-28.94c-4.866-8.256-17.561-28.383-38.09-51.293c-2.765-3.084-7.506-3.345-10.591-0.581
			c-3.085,2.764-3.345,7.506-0.581,10.591c14.739,16.448,25.344,31.569,31.606,41.283H76.834
			c9.842-15.258,30.443-43.898,61.188-70.371c12.205-10.494,29.182-13.035,44.304-6.63c21.367,9.05,46.843,13.834,73.674,13.834
			s52.307-4.784,73.674-13.834c15.123-6.405,32.098-3.864,44.3,6.627c3.094,2.664,6.175,5.426,9.157,8.21
			c3.028,2.826,7.773,2.662,10.6-0.366c2.826-3.028,2.662-7.774-0.366-10.6c-3.128-2.919-6.359-5.816-9.608-8.613
			c-16.556-14.238-39.521-17.715-59.933-9.069c-19.533,8.273-42.987,12.646-67.824,12.646s-48.291-4.373-67.824-12.646
			c-20.412-8.645-43.375-5.169-59.937,9.072c-39.032,33.607-62.081,69.867-69.066,81.741H30.237
			c-16.67,0-30.232,13.562-30.232,30.232c0,16.67,13.562,30.232,30.232,30.232h451.526c16.67,0,30.232-13.562,30.232-30.232
			C511.995,465.097,498.433,451.535,481.763,451.535z M481.763,497H30.237c-8.399,0-15.232-6.833-15.232-15.233
			c0-8.399,6.833-15.232,15.232-15.232h451.526c8.399,0,15.232,6.833,15.232,15.233C496.995,490.167,490.162,497,481.763,497z"/>
		<path d="M46.502,187.444c3.762-1.733,5.406-6.188,3.673-9.95c-16.678-36.198-12.7-71.744,10.643-95.087
			c0,0,28.968-28.979,49.547-49.558c20.305-20.299,46.446-23.288,77.696-8.88c24.608,11.345,43.19,29.545,43.343,29.696
			c2.172,2.174,21.659,21.369,36.831,25.72c4.973,1.422,9.093,4.696,11.602,9.217c2.51,4.522,3.106,9.752,1.68,14.729
			c-1.422,4.973-4.696,9.094-9.22,11.603c-4.523,2.508-9.754,3.104-14.724,1.678c-13.783-3.946-20.113-7.694-21.465-8.556
			l-29.48-29.479c-2.93-2.929-7.678-2.929-10.607,0c-2.929,2.929-2.929,7.678,0,10.606l119.223,119.221
			c3.026,3.027,4.693,7.053,4.693,11.337c0,4.284-1.667,8.31-4.689,11.333c-4.074,4.067-9.956,5.58-15.376,4.17
			c-1.39-4.419-3.212-8.734-5.475-12.876c-1.292-2.365-3.754-3.855-6.448-3.903c-0.428-0.008-0.854-0.011-1.282-0.011
			c-2.152,0-4.291,0.104-6.413,0.295l-23.562-23.563c2.796-3.269,5.324-6.803,7.524-10.588c1.354-2.33,1.354-5.207,0-7.536
			c-12.875-22.157-36.764-35.921-62.345-35.921s-49.47,13.764-62.345,35.921c-1.354,2.33-1.354,5.207,0,7.536
			c11.508,19.804,31.818,32.894,54.267,35.452l31.913,31.921c-0.258,0.408-0.52,0.813-0.771,1.227
			c-6.153,10.166-9.573,21.557-10.243,33.096l-27.352-27.352c-0.002-0.002-0.004-0.005-0.007-0.008l-49.775-49.774
			c-2.93-2.929-7.678-2.929-10.607,0c-2.929,2.929-2.929,7.678,0,10.606l49.769,49.768c0.002,0.002,0.004,0.005,0.007,0.008l0.001,0
			c3.027,3.028,4.695,7.054,4.695,11.336s-1.668,8.308-4.696,11.336c-3.026,3.026-7.052,4.693-11.336,4.693
			c-4.284,0-8.31-1.667-11.337-4.693l-79.459-79.469c-3.438-3.438-6.72-7.168-9.751-11.086c-2.534-3.276-7.246-3.876-10.521-1.342
			c-3.275,2.535-3.877,7.245-1.342,10.521c3.418,4.418,7.122,8.628,11.008,12.513l79.459,79.469
			c5.86,5.859,13.653,9.086,21.943,9.086c8.291,0,16.084-3.227,21.942-9.086c4.06-4.06,6.856-9.045,8.192-14.481l14.891,14.892
			c1.912,1.912,4.03,3.536,6.319,4.869c1.468,5.872,3.677,11.601,6.644,17.033c1.292,2.364,3.754,3.854,6.448,3.903
			c0.428,0.008,0.855,0.011,1.283,0.011c20.935,0,40.77-9.178,54.344-24.671c2.01,0.404,4.056,0.612,6.124,0.612
			c8.278,0,16.069-3.225,21.942-9.086c5.862-5.861,9.09-13.654,9.09-21.943s-3.228-16.082-9.089-21.943l-2.163-2.163
			c5.365-1.326,10.401-4.085,14.493-8.17c5.859-5.859,9.086-13.652,9.086-21.943c0-8.29-3.227-16.083-9.086-21.943l-65.521-65.521
			c6.643,0.513,13.287-0.921,19.244-4.226c8.029-4.454,13.841-11.768,16.364-20.591c2.53-8.827,1.47-18.109-2.985-26.137
			c-4.454-8.025-11.766-13.835-20.587-16.358c-9.711-2.785-25.203-16.755-30.378-21.929c-0.82-0.812-20.387-20.033-47.296-32.527
			c-37.169-17.258-69.995-13.2-94.933,11.733c-20.58,20.58-49.55,49.56-49.549,49.559c-27.969,27.97-33.076,69.828-13.658,111.97
			C38.285,187.532,42.737,189.176,46.502,187.444z M231.364,304.741c-3.756-14.69-1.605-30.544,6.404-43.774
			c8.009-13.232,21.057-22.49,35.815-25.973L231.364,304.741z M235.086,240.138l-20.723-20.729
			c11.488-2.041,22.28-6.847,31.447-13.892l17.016,17.016C252.389,226.195,242.869,232.21,235.086,240.138z M201.871,156.141
			c15.466,0,30.142,6.369,40.764,17.189h-81.529C171.729,162.51,186.405,156.141,201.871,156.141z M161.107,188.33h81.529
			c-10.622,10.82-25.299,17.189-40.764,17.189S171.729,199.15,161.107,188.33z M244.195,312.509l42.219-69.747
			c3.755,14.69,1.604,30.544-6.404,43.774C272,299.768,258.953,309.026,244.195,312.509z M302.921,285.291
			c-2.085,2.08-4.643,3.501-7.422,4.198c4.256-8.436,6.754-17.551,7.482-26.793c2.985,3.02,4.631,7.015,4.631,11.264
			C307.611,278.242,305.944,282.269,302.921,285.291z"/>
	</g>
</g>
<g>
</g>
<g>
</g>
<g>
</g>
<g>
</g>
<g>
</g>
<g>
</g>
<g>
</g>
<g>
</g>
<g>
</g>
<g>
</g>
<g>
</g>
<g>
</g>
<g>
</g>
<g>
</g>
<g>
</g>
</svg>
