<?xml version="1.0" encoding="iso-8859-1"?>
<!-- Generator: Adobe Illustrator 21.0.0, SVG Export Plug-In . SVG Version: 6.00 Build 0)  -->
<svg version="1.1" id="Capa_1" xmlns="http://www.w3.org/2000/svg" xmlns:xlink="http://www.w3.org/1999/xlink" x="0px" y="0px"
	 viewBox="0 0 500.338 500.338" style="enable-background:new 0 0 500.338 500.338;" xml:space="preserve">
<g>
	<g>
		<rect x="173.478" y="351.297" style="fill:#9A9999;" width="153.382" height="101.528"/>
	</g>
	<g>
		<rect x="296.86" y="351.297" style="fill:#696867;" width="30" height="101.528"/>
	</g>
	<path style="fill:#FFF8F7;" d="M475.934,376.737H24.404c-9.298,0-16.905-7.607-16.905-16.905V41.849
		c0-9.298,7.607-16.905,16.905-16.905h451.529c9.298,0,16.905,7.607,16.905,16.905v317.984
		C492.838,369.13,485.231,376.737,475.934,376.737z"/>
	<g>
		<path style="fill:#DBDEDF;" d="M492.838,64.878V41.685c0-9.207-7.325-16.741-16.278-16.741H23.778
			c-8.953,0-16.278,7.533-16.278,16.741v23.193H492.838z"/>
	</g>
	<g>
		<path style="fill:#E9EBEC;" d="M475.934,24.944h-30c9.297,0,16.905,7.607,16.905,16.905v317.984
			c0,9.298-7.607,16.905-16.905,16.905h30c9.297,0,16.905-7.607,16.905-16.905V41.849C492.838,32.551,485.231,24.944,475.934,24.944
			z"/>
	</g>
	<g>
		<path style="fill:#B4B4B4;" d="M476.56,24.944h-30c8.953,0,16.279,7.533,16.279,16.741v23.193h30V41.685
			C492.838,32.478,485.513,24.944,476.56,24.944z"/>
	</g>
	<g>
		<path style="fill:#DBDEDF;" d="M7.5,325.551v33.638c0,9.651,6.988,17.548,15.53,17.548h454.279c8.541,0,15.53-7.897,15.53-17.548
			v-33.638H7.5z"/>
	</g>
	<g>
		<path style="fill:#B4B4B4;" d="M462.838,325.551v33.638c0,9.651-6.988,17.548-15.53,17.548h30c8.542,0,15.53-7.896,15.53-17.548
			v-33.638H462.838z"/>
	</g>
	<g>
		<path style="fill:#D0CFD1;" d="M368.653,475.394c-0.738-27.01-22.962-48.879-50.044-48.879h-136.88
			c-27.082,0-49.306,21.87-50.044,48.879H368.653z"/>
	</g>
	<g>
		<path style="fill:#B4B4B4;" d="M318.609,426.514h-30c27.082,0,49.306,21.87,50.044,48.879h30
			C367.915,448.384,345.691,426.514,318.609,426.514z"/>
	</g>
	<g>
		<path style="fill:#ACEDED;" d="M202.348,144.417H68.691c-10.312,0-18.672,8.36-18.672,18.672v0
			c0,10.312,8.36,18.672,18.672,18.672h10.866l19.661,21.054l19.661-21.054h83.469c10.312,0,18.672-8.36,18.672-18.672v0
			C221.02,152.777,212.66,144.417,202.348,144.417z"/>
	</g>
	<g>
		<g>
			<path style="fill:#66D6E6;" d="M202.348,144.417h-30c10.312,0,18.672,8.36,18.672,18.672v0c0,10.312-8.36,18.672-18.672,18.672
				h30c10.312,0,18.672-8.36,18.672-18.672v0C221.02,152.777,212.66,144.417,202.348,144.417z"/>
		</g>
	</g>
	<g>
		<path style="fill:#ACEDED;" d="M202.348,230.878H68.691c-10.312,0-18.672,8.36-18.672,18.672v0
			c0,10.312,8.36,18.672,18.672,18.672h10.866l19.661,21.054l19.661-21.054h83.469c10.312,0,18.672-8.36,18.672-18.672v0
			C221.02,239.238,212.66,230.878,202.348,230.878z"/>
	</g>
	<g>
		<g>
			<path style="fill:#66D6E6;" d="M202.348,230.878h-30c10.312,0,18.672,8.36,18.672,18.672v0c0,10.312-8.36,18.672-18.672,18.672
				h30c10.312,0,18.672-8.36,18.672-18.672v0C221.02,239.238,212.66,230.878,202.348,230.878z"/>
		</g>
	</g>
	<g>
		<path style="fill:#FFEC56;" d="M310.407,106.417h133.656c10.312,0,18.672,8.36,18.672,18.672v0
			c0,10.312-8.36,18.672-18.672,18.672h-10.866l-19.661,21.054l-19.661-21.054h-83.469c-10.312,0-18.672-8.36-18.672-18.672v0
			C291.735,114.777,300.095,106.417,310.407,106.417z"/>
	</g>
	<g>
		<path style="fill:#F9CD45;" d="M444.063,106.417h-30c10.312,0,18.672,8.36,18.672,18.672v0c0,10.312-8.36,18.672-18.672,18.672
			h-10.866l-4.661,4.991l15,16.063l19.661-21.054h10.866c10.312,0,18.672-8.36,18.672-18.672v0
			C462.735,114.777,454.375,106.417,444.063,106.417z"/>
	</g>
	<g>
		<path style="fill:#FFEC56;" d="M300.407,208.417h143.656c10.312,0,18.672,8.36,18.672,18.672v0
			c0,10.312-8.36,18.672-18.672,18.672h-10.866l-19.661,21.054l-19.661-21.054h-93.469c-10.312,0-18.672-8.36-18.672-18.672v0
			C281.735,216.777,290.095,208.417,300.407,208.417z"/>
	</g>
	<g>
		<path style="fill:#F9CD45;" d="M444.063,208.417h-30c10.312,0,18.672,8.36,18.672,18.672v0c0,10.312-8.36,18.672-18.672,18.672
			h-10.866l-4.661,4.991l15,16.063l19.661-21.054h10.866c10.312,0,18.672-8.36,18.672-18.672v0
			C462.735,216.777,454.375,208.417,444.063,208.417z"/>
	</g>
	<g>
		<circle cx="251.582" cy="351.144" r="7.64"/>
		<path d="M475.934,17.444H24.404C10.947,17.444,0,28.392,0,41.849v317.984c0,13.457,10.947,24.405,24.404,24.405h141.573v37.037
			c-23.453,6.823-41.093,28.403-41.79,53.915c-0.056,2.024,0.71,3.984,2.122,5.435c1.412,1.451,3.351,2.27,5.375,2.27h236.969
			c2.024,0,3.963-0.819,5.375-2.27c1.412-1.451,2.178-3.412,2.122-5.435c-0.697-25.512-18.337-47.092-41.79-53.915v-37.037h141.573
			c13.457,0,24.404-10.948,24.404-24.405V41.849C500.338,28.392,489.391,17.444,475.934,17.444z M475.934,369.237H24.404
			c-5.186,0-9.404-4.219-9.404-9.405v-26.781h288.963c4.143,0,7.5-3.358,7.5-7.5s-3.357-7.5-7.5-7.5H15V72.378h150.521
			c4.143,0,7.5-3.358,7.5-7.5s-3.357-7.5-7.5-7.5H15V41.849c0-5.186,4.219-9.405,9.404-9.405h451.529
			c5.186,0,9.404,4.219,9.404,9.405v15.529H195.521c-4.143,0-7.5,3.358-7.5,7.5s3.357,7.5,7.5,7.5h289.817v245.674H333.963
			c-4.143,0-7.5,3.358-7.5,7.5s3.357,7.5,7.5,7.5h151.375v26.781C485.338,365.018,481.119,369.237,475.934,369.237z
			 M360.233,467.894H140.104c4.136-19.26,21.412-33.879,41.624-33.879h136.881C338.821,434.014,356.098,448.633,360.233,467.894z
			 M319.36,419.033c-0.251-0.003-0.499-0.019-0.751-0.019H181.729c-0.252,0-0.5,0.016-0.751,0.019v-34.796H319.36V419.033z"/>
		<path d="M202.348,136.917H68.691c-14.432,0-26.172,11.74-26.172,26.172s11.74,26.172,26.172,26.172h7.607l17.438,18.673
			c1.418,1.519,3.403,2.381,5.481,2.381s4.063-0.862,5.481-2.381l17.438-18.673h80.211c14.432,0,26.172-11.741,26.172-26.172
			S216.779,136.917,202.348,136.917z M202.348,174.261h-83.469c-2.078,0-4.063,0.862-5.481,2.381l-14.18,15.184l-14.18-15.184
			c-1.418-1.519-3.403-2.381-5.481-2.381H68.691c-6.16,0-11.172-5.012-11.172-11.172s5.012-11.172,11.172-11.172h133.656
			c6.16,0,11.172,5.011,11.172,11.172S208.508,174.261,202.348,174.261z"/>
		<path d="M202.348,223.378H68.691c-14.432,0-26.172,11.741-26.172,26.172s11.74,26.172,26.172,26.172h7.607l17.438,18.673
			c1.418,1.519,3.403,2.381,5.481,2.381s4.063-0.862,5.481-2.381l17.438-18.673h80.211c14.432,0,26.172-11.74,26.172-26.172
			S216.779,223.378,202.348,223.378z M202.348,260.722h-83.469c-2.078,0-4.063,0.862-5.481,2.381l-14.18,15.184l-14.18-15.184
			c-1.418-1.519-3.403-2.381-5.481-2.381H68.691c-6.16,0-11.172-5.011-11.172-11.172s5.012-11.172,11.172-11.172h133.656
			c6.16,0,11.172,5.012,11.172,11.172S208.508,260.722,202.348,260.722z"/>
		<path d="M310.407,151.261h80.21l17.438,18.673c1.418,1.519,3.403,2.381,5.481,2.381s4.063-0.862,5.481-2.381l17.438-18.673h7.608
			c14.432,0,26.172-11.741,26.172-26.172s-11.74-26.172-26.172-26.172H310.407c-14.432,0-26.172,11.74-26.172,26.172
			S295.976,151.261,310.407,151.261z M310.407,113.917h133.656c6.16,0,11.172,5.011,11.172,11.172s-5.012,11.172-11.172,11.172
			h-10.866c-2.078,0-4.063,0.862-5.481,2.381l-14.18,15.184l-14.18-15.184c-1.418-1.519-3.403-2.381-5.481-2.381h-83.468
			c-6.16,0-11.172-5.012-11.172-11.172S304.247,113.917,310.407,113.917z"/>
		<path d="M408.055,271.933c1.418,1.519,3.403,2.381,5.481,2.381s4.063-0.862,5.481-2.381l17.438-18.673h7.608
			c14.432,0,26.172-11.741,26.172-26.172s-11.74-26.172-26.172-26.172H300.407c-14.432,0-26.172,11.741-26.172,26.172
			c0,14.431,11.74,26.172,26.172,26.172h90.21L408.055,271.933z M289.235,227.089c0-6.16,5.012-11.172,11.172-11.172h143.656
			c6.16,0,11.172,5.012,11.172,11.172s-5.012,11.172-11.172,11.172h-10.866c-2.078,0-4.063,0.862-5.481,2.381l-14.18,15.184
			l-14.18-15.184c-1.418-1.519-3.403-2.381-5.481-2.381h-93.468C294.247,238.261,289.235,233.249,289.235,227.089z"/>
		<circle cx="323.746" cy="282.645" r="6.5"/>
		<circle cx="350.746" cy="282.645" r="6.5"/>
		<circle cx="296.746" cy="282.645" r="6.5"/>
	</g>
</g>
<g>
</g>
<g>
</g>
<g>
</g>
<g>
</g>
<g>
</g>
<g>
</g>
<g>
</g>
<g>
</g>
<g>
</g>
<g>
</g>
<g>
</g>
<g>
</g>
<g>
</g>
<g>
</g>
<g>
</g>
</svg>
