<?xml version="1.0" encoding="iso-8859-1"?>
<!-- Generator: Adobe Illustrator 21.0.0, SVG Export Plug-In . SVG Version: 6.00 Build 0)  -->
<svg version="1.1" id="Capa_1" xmlns="http://www.w3.org/2000/svg" xmlns:xlink="http://www.w3.org/1999/xlink" x="0px" y="0px"
	 viewBox="0 0 505.534 505.534" style="enable-background:new 0 0 505.534 505.534;" xml:space="preserve">
<g>
	<g>
		<path style="fill:#FFF4F1;" d="M234.798,110.37H22.5c-8.25,0-15,6.75-15,15v31.179c0,8.25,6.75,15,15,15h74.083l13.019,22.55
			c3.897,6.749,13.639,6.749,17.536,0l13.019-22.55h94.64c8.25,0,15-6.75,15-15V125.37
			C249.798,117.12,243.048,110.37,234.798,110.37z"/>
	</g>
	<g>
		<g>
			<path style="fill:#DBDEDF;" d="M234.798,110.37h-30c8.25,0,15,6.75,15,15v31.178c0,8.25-6.75,15-15,15h30c8.25,0,15-6.75,15-15
				V125.37C249.798,117.12,243.048,110.37,234.798,110.37z"/>
		</g>
	</g>
	<g>
		<circle style="fill:#ACEDED;" cx="263.064" cy="364.122" r="130.415"/>
	</g>
	<g>
		<path style="fill:#66D6E6;" d="M263.064,233.707c-5.074,0-10.077,0.3-15,0.864c64.96,7.44,115.415,62.599,115.415,129.551
			s-50.455,122.111-115.415,129.551c4.923,0.564,9.926,0.864,15,0.864c72.026,0,130.415-58.389,130.415-130.415
			C393.479,292.096,335.09,233.707,263.064,233.707z"/>
	</g>
	<g>
		<ellipse style="fill:#FFF4F1;" cx="263.064" cy="364.122" rx="46.432" ry="130.415"/>
	</g>
	<g>
		<path style="fill:#DBDEDF;" d="M263.064,233.707c-5.249,0-10.294,2.45-15,6.959c18.283,17.52,31.432,66.173,31.432,123.456
			c0,57.283-13.149,105.937-31.432,123.456c4.706,4.509,9.751,6.959,15,6.959c25.644,0,46.432-58.389,46.432-130.415
			C309.496,292.096,288.708,233.707,263.064,233.707z"/>
	</g>
	<g>
		<path style="fill:#FFF4F1;" d="M476.62,386.083H310.338c-9.641,0-17.528,7.888-17.528,17.528v36.434
			c0,9.641,7.888,17.528,17.528,17.528h51.513l15.214,26.351c4.554,7.887,15.938,7.887,20.491,0l15.214-26.351h63.85
			c9.641,0,17.528-7.888,17.528-17.528v-36.434C494.148,393.971,486.26,386.083,476.62,386.083z"/>
	</g>
	<g>
		<g>
			<path style="fill:#DBDEDF;" d="M476.62,386.083h-30c9.641,0,17.528,7.888,17.528,17.528v36.434
				c0,9.641-7.888,17.528-17.528,17.528h30c9.641,0,17.528-7.888,17.528-17.528v-36.434
				C494.148,393.971,486.26,386.083,476.62,386.083z"/>
		</g>
	</g>
	<g>
		<path style="fill:#FFF4F1;" d="M340.737,10.997h142.297c8.25,0,15,6.75,15,15v31.179c0,8.25-6.75,15-15,15h-14.083l-13.019,22.55
			c-3.897,6.749-13.639,6.749-17.536,0l-13.019-22.55h-84.64c-8.25,0-15-6.75-15-15V25.997
			C325.737,17.747,332.487,10.997,340.737,10.997z"/>
	</g>
	<g>
		<path style="fill:#DBDEDF;" d="M468.034,25.997v31.179c0,5.908-3.471,11.032-8.466,13.473h30
			c4.995-2.441,8.466-7.565,8.466-13.473V25.997c0-8.25-6.75-15-15-15h-30C461.284,10.997,468.034,17.747,468.034,25.997z"/>
	</g>
	<g>
		<g>
			<path style="fill:#F86654;" d="M425.309,198.629c0,35.477-64.237,104.864-64.237,104.864s-64.237-69.387-64.237-104.864
				s28.76-64.237,64.237-64.237S425.309,163.152,425.309,198.629z"/>
		</g>
		<g>
			<path style="fill:#EA543C;" d="M361.072,134.392c-5.167,0-10.186,0.627-15,1.779c28.238,6.758,49.237,32.148,49.237,62.458
				c0,24.348-30.254,64.665-49.237,87.566c8.677,10.468,15,17.299,15,17.299s64.237-69.387,64.237-104.865
				C425.309,163.152,396.549,134.392,361.072,134.392z"/>
		</g>
		<g>
			<circle style="fill:#FFF4F1;" cx="361.162" cy="199.672" r="24.273"/>
		</g>
	</g>
	<g>
		<path d="M392.936,199.672c0-17.52-14.253-31.773-31.773-31.773c-17.52,0-31.773,14.253-31.773,31.773s14.253,31.773,31.773,31.773
			C378.682,231.445,392.936,217.191,392.936,199.672z M344.389,199.672c0-9.249,7.524-16.773,16.773-16.773
			c9.249,0,16.773,7.524,16.773,16.773s-7.524,16.773-16.773,16.773C351.914,216.445,344.389,208.92,344.389,199.672z"/>
		<path d="M133.633,197.849l10.854-18.8h90.31c12.407,0,22.5-10.093,22.5-22.5V125.37c0-12.406-10.093-22.5-22.5-22.5H58.187
			c-4.142,0-7.5,3.358-7.5,7.5s3.358,7.5,7.5,7.5h176.611c4.136,0,7.5,3.365,7.5,7.5v31.178c0,4.135-3.364,7.5-7.5,7.5h-94.64
			c-2.68,0-5.155,1.43-6.495,3.75l-13.02,22.55c-0.659,1.142-1.707,1.312-2.273,1.312s-1.613-0.17-2.272-1.312l-13.02-22.55
			c-1.34-2.32-3.815-3.75-6.495-3.75H22.5c-4.136,0-7.5-3.365-7.5-7.5V125.37c0-4.135,3.364-7.5,7.5-7.5h5.687
			c4.142,0,7.5-3.358,7.5-7.5s-3.358-7.5-7.5-7.5H22.5c-12.407,0-22.5,10.094-22.5,22.5v31.178c0,12.407,10.093,22.5,22.5,22.5
			h69.753l10.854,18.8c3.185,5.518,8.891,8.813,15.262,8.813c0,0,0,0,0,0C124.741,206.661,130.448,203.366,133.633,197.849z"/>
		<path d="M476.62,378.583h-76.398c0.5-4.796,0.757-9.627,0.757-14.461c0-25.51-6.971-50.254-20.189-71.862
			c5.446-6.531,11.92-14.604,18.438-23.445c22.283-30.223,33.582-53.837,33.582-70.187c0-39.556-32.181-71.737-71.737-71.737
			c-39.556,0-71.737,32.181-71.737,71.737c0,8.726,3.221,19.524,9.611,32.29c-11.633-3.13-23.646-4.711-35.882-4.711
			c-37.878,0-74.494,15.828-100.46,43.425c-2.838,3.017-2.694,7.764,0.323,10.602c1.449,1.363,3.295,2.038,5.138,2.038
			c1.996,0,3.988-0.792,5.464-2.36c17.241-18.325,38.967-30.595,62.854-35.829c-11.725,16.296-19.806,43.047-23.969,72.795
			c-16.201,2.2-31.108,5.465-43.917,9.691c-10.988,3.626-19.303,7.563-25.566,11.584c2.545-11.814,6.806-23.224,12.693-33.785
			c2.017-3.618,0.719-8.186-2.899-10.203c-3.618-2.016-8.185-0.718-10.202,2.899c-11.366,20.39-17.373,43.578-17.373,67.058
			c0,76.046,61.869,137.915,137.915,137.915c34.393,0,67.336-12.733,92.761-35.855c0.376-0.342,0.709-0.714,0.999-1.109h0.697
			l13.049,22.601c3.494,6.052,9.753,9.666,16.741,9.666c6.988,0,13.247-3.614,16.74-9.666l13.049-22.601h59.52
			c13.8,0,25.028-11.228,25.028-25.028v-36.434C501.648,389.811,490.42,378.583,476.62,378.583z M385.127,378.583h-68.395
			c0.169-4.568,0.264-9.17,0.264-13.768c0-10.864-0.508-21.839-1.504-32.6c44.604,6.59,70.487,20.868,70.487,31.907
			C385.979,368.961,385.688,373.795,385.127,378.583z M263.064,487.037c-8.736,0-18.37-12.345-25.771-33.022
			c-4.257-11.892-7.553-25.789-9.782-40.952c11.453,1.044,23.379,1.595,35.553,1.595c7.483,0,14.919-0.228,22.246-0.635v26.022
			c0,4.851,1.391,9.38,3.79,13.219C281.74,474.149,271.841,487.037,263.064,487.037z M285.747,398.979
			c-7.457,0.44-15.044,0.679-22.683,0.679c-13.402,0-25.889-0.643-37.376-1.781c-1.019-10.638-1.556-21.725-1.556-33.062
			c0-11.836,0.585-23.399,1.694-34.462c11.449-1.129,23.89-1.767,37.238-1.767s25.79,0.638,37.238,1.767
			c1.109,11.063,1.694,22.626,1.694,34.462c0,5.121-0.114,10.25-0.332,15.32C293.531,383.15,287.383,390.277,285.747,398.979z
			 M361.072,141.892c31.285,0,56.737,25.452,56.737,56.737c0,24.182-36.941,71.159-56.737,93.658
			c-19.796-22.499-56.737-69.476-56.737-93.658C304.335,167.344,329.788,141.892,361.072,141.892z M322.917,268.816
			c16.123,21.867,31.984,39.052,32.652,39.773c1.419,1.533,3.414,2.405,5.503,2.405s4.084-0.872,5.503-2.405
			c0.189-0.204,1.597-1.729,3.881-4.303c5.936,10.629,10.217,22.037,12.763,33.882c-6.265-4.026-14.588-7.968-25.588-11.599
			c-12.809-4.227-27.716-7.491-43.917-9.691c-4.161-29.729-12.234-56.465-23.947-72.765c6.551,1.452,12.979,3.441,19.248,5.969
			c0.39,0.157,0.787,0.271,1.185,0.359C313.942,256.264,318.179,262.389,322.917,268.816z M237.293,275.615
			c7.401-20.677,17.035-33.022,25.771-33.022s18.37,12.345,25.771,33.022c4.124,11.521,7.338,24.933,9.563,39.546
			c-11.386-1.031-23.237-1.575-35.334-1.575s-23.948,0.544-35.334,1.575C229.954,300.549,233.169,287.136,237.293,275.615z
			 M210.636,332.216c-0.996,10.761-1.504,21.735-1.504,32.6c0,10.391,0.461,20.885,1.373,31.194
			c-44.524-6.599-70.356-20.86-70.356-31.887C140.149,353.084,166.032,338.806,210.636,332.216z M142.917,390.083
			c6.264,4.024,14.584,7.964,25.579,11.593c12.757,4.21,27.594,7.466,43.719,9.666c3.966,29.298,11.716,55.819,22.984,72.509
			C189.125,473.13,152.92,436.424,142.917,390.083z M290.829,483.872c3.829-5.607,7.351-12.463,10.502-20.482
			c2.797,1.083,5.833,1.683,9.007,1.683h22.852C320.355,474.003,305.988,480.367,290.829,483.872z M486.648,440.045
			c0,5.53-4.499,10.028-10.028,10.028h-63.85c-2.68,0-5.155,1.43-6.495,3.75l-15.214,26.352c-1.128,1.954-2.998,2.165-3.75,2.165
			c-0.752,0-2.623-0.211-3.751-2.166l-15.214-26.351c-1.34-2.32-3.815-3.75-6.495-3.75h-51.513c-5.53,0-10.028-4.499-10.028-10.028
			v-36.434c0-5.53,4.499-10.028,10.028-10.028H476.62c5.529,0,10.028,4.499,10.028,10.028V440.045z"/>
		<path d="M483.034,3.497H340.737c-12.407,0-22.5,10.094-22.5,22.5v31.179c0,12.406,10.093,22.5,22.5,22.5h80.31l10.854,18.8
			c3.186,5.518,8.891,8.812,15.262,8.812c0,0,0,0,0,0c6.371,0,12.077-3.294,15.263-8.812l10.854-18.8h9.753
			c12.407,0,22.5-10.094,22.5-22.5V25.997C505.534,13.59,495.441,3.497,483.034,3.497z M490.534,57.176c0,4.135-3.364,7.5-7.5,7.5
			h-14.083c-2.68,0-5.155,1.429-6.495,3.75l-13.019,22.55c-0.659,1.142-1.707,1.312-2.273,1.312s-1.613-0.17-2.272-1.312
			l-13.02-22.55c-1.34-2.321-3.815-3.75-6.495-3.75h-84.64c-4.136,0-7.5-3.365-7.5-7.5V25.997c0-4.135,3.364-7.5,7.5-7.5h142.297
			c4.136,0,7.5,3.365,7.5,7.5V57.176z"/>
	</g>
</g>
<g>
</g>
<g>
</g>
<g>
</g>
<g>
</g>
<g>
</g>
<g>
</g>
<g>
</g>
<g>
</g>
<g>
</g>
<g>
</g>
<g>
</g>
<g>
</g>
<g>
</g>
<g>
</g>
<g>
</g>
</svg>
