<?xml version="1.0" encoding="iso-8859-1"?>
<!-- Generator: Adobe Illustrator 21.0.0, SVG Export Plug-In . SVG Version: 6.00 Build 0)  -->
<svg version="1.1" id="Capa_1" xmlns="http://www.w3.org/2000/svg" xmlns:xlink="http://www.w3.org/1999/xlink" x="0px" y="0px"
	 viewBox="0 0 505.488 505.488" style="enable-background:new 0 0 505.488 505.488;" xml:space="preserve">
<g>
	<g>
		<path style="fill:#FFF4F1;" d="M381.805,425.503H116.301c-8.284,0-15-6.716-15-15V23.83c0-8.284,6.716-15,15-15h265.504
			c8.284,0,15,6.716,15,15v386.673C396.805,418.788,390.089,425.503,381.805,425.503z"/>
	</g>
	<g>
		<path style="fill:#E3E5E6;" d="M381.805,8.83h-30c8.284,0,15,6.716,15,15v386.673c0,8.284-6.716,15-15,15h30
			c8.284,0,15-6.716,15-15V23.83C396.805,15.546,390.089,8.83,381.805,8.83z"/>
	</g>
	<g>
		<rect x="160.658" y="296.198" style="fill:#F45A3C;" width="36.376" height="26.271"/>
	</g>
	<g>
		<rect x="197.034" y="280.705" style="fill:#FFD4C6;" width="36.376" height="41.765"/>
	</g>
	<g>
		<rect x="233.409" y="265.885" style="fill:#5E8EE1;" width="36.376" height="56.585"/>
	</g>
	<g>
		<rect x="269.785" y="254.433" style="fill:#66D6E6;" width="36.376" height="68.036"/>
	</g>
	<g>
		<rect x="306.161" y="238.94" style="fill:#FFEC56;" width="36.376" height="83.53"/>
	</g>
	<g>
		<path style="fill:#F7EC77;" d="M82.162,447.134c21.368,0,39.961,11.254,49.595,27.865c12.545-12.739,20.275-30.061,20.275-49.163
			c0-39.114-32.355-70.823-72.266-70.823S7.5,386.721,7.5,425.835c0,20.75,9.107,39.414,23.615,52.367
			c0.338-1.036,0.792-2.064,1.373-3.071C42.098,458.447,60.736,447.134,82.162,447.134z"/>
	</g>
	<g>
		<g>
			<path style="fill:#F9CD45;" d="M79.766,355.012c-3.497,0-6.935,0.249-10.299,0.719c35.032,4.9,61.967,34.417,61.967,70.104
				c0,13.237-3.715,25.618-10.169,36.213c4.149,3.772,7.7,8.134,10.493,12.95c12.544-12.739,20.275-30.061,20.275-49.163
				C152.032,386.721,119.677,355.012,79.766,355.012z"/>
		</g>
	</g>
	<g>
		<path style="fill:#FFF4F1;" d="M131.757,474.998c-9.634-16.611-28.227-27.865-49.595-27.865
			c-21.426,0-40.064,11.314-49.675,27.998c-0.58,1.007-1.034,2.035-1.373,3.071c12.841,11.464,29.912,18.456,48.651,18.456
			C100.187,496.658,118.615,488.345,131.757,474.998z"/>
	</g>
	<g>
		<path style="fill:#DBDEDF;" d="M82.162,447.134c-3.518,0-6.96,0.311-10.3,0.895c11.518,2.013,21.815,7.339,29.756,14.9
			c6.366,6.062,5.616,16.471-1.682,21.371c-8.927,5.994-19.296,10.076-30.493,11.641c3.372,0.473,6.818,0.718,10.323,0.718
			c20.421,0,38.849-8.314,51.991-21.66C122.124,458.388,103.531,447.134,82.162,447.134z"/>
	</g>
	<g>
		<ellipse style="fill:#FFD4C6;" cx="81.069" cy="402.941" rx="16.935" ry="21.461"/>
	</g>
	<g>
		<g>
			<path style="fill:#FC9086;" d="M254.797,447.134c21.368,0,39.961,11.254,49.595,27.865
				c12.545-12.739,20.275-30.061,20.275-49.163c0-39.114-32.355-70.823-72.266-70.823s-72.266,31.709-72.266,70.823
				c0,20.75,9.107,39.414,23.615,52.367c0.338-1.036,0.792-2.064,1.373-3.071C214.734,458.447,233.371,447.134,254.797,447.134z"/>
		</g>
		<g>
			<g>
				<path style="fill:#F57A73;" d="M252.401,355.012c-3.497,0-6.935,0.249-10.299,0.719c35.032,4.9,61.967,34.417,61.967,70.104
					c0,13.237-3.715,25.618-10.169,36.213c4.149,3.772,7.7,8.134,10.493,12.95c12.544-12.739,20.275-30.061,20.275-49.163
					C324.667,386.721,292.313,355.012,252.401,355.012z"/>
			</g>
		</g>
		<g>
			<path style="fill:#FFF4F1;" d="M304.392,474.998c-9.634-16.611-28.227-27.865-49.595-27.865
				c-21.426,0-40.064,11.314-49.675,27.998c-0.58,1.007-1.034,2.035-1.373,3.071c12.841,11.464,29.912,18.456,48.651,18.456
				C272.822,496.658,291.25,488.345,304.392,474.998z"/>
		</g>
		<g>
			<path style="fill:#DBDEDF;" d="M254.797,447.134c-3.518,0-6.96,0.311-10.3,0.895c11.518,2.013,21.815,7.339,29.756,14.9
				c6.366,6.062,5.616,16.471-1.682,21.371c-8.927,5.994-19.296,10.076-30.493,11.641c3.372,0.473,6.818,0.718,10.323,0.718
				c20.421,0,38.849-8.314,51.991-21.66C294.759,458.388,276.166,447.134,254.797,447.134z"/>
		</g>
		<g>
			<ellipse style="fill:#FFD4C6;" cx="253.704" cy="402.941" rx="16.935" ry="21.461"/>
		</g>
	</g>
	<g>
		<g>
			<path style="fill:#ACEDED;" d="M428.118,447.134c21.368,0,39.961,11.254,49.595,27.865
				c12.544-12.739,20.275-30.061,20.275-49.163c0-39.114-32.355-70.823-72.266-70.823s-72.266,31.709-72.266,70.823
				c0,20.75,9.107,39.414,23.615,52.367c0.338-1.036,0.792-2.064,1.373-3.071C388.054,458.447,406.692,447.134,428.118,447.134z"/>
		</g>
		<g>
			<g>
				<path style="fill:#66D6E6;" d="M425.722,355.012c-3.497,0-6.935,0.249-10.299,0.719c35.032,4.9,61.967,34.417,61.967,70.104
					c0,13.237-3.715,25.618-10.169,36.213c4.149,3.772,7.7,8.134,10.493,12.95c12.544-12.739,20.275-30.061,20.275-49.163
					C497.988,386.721,465.633,355.012,425.722,355.012z"/>
			</g>
		</g>
		<g>
			<path style="fill:#FFF4F1;" d="M477.713,474.998c-9.634-16.611-28.227-27.865-49.595-27.865
				c-21.426,0-40.064,11.314-49.675,27.998c-0.58,1.007-1.034,2.035-1.373,3.071c12.841,11.464,29.912,18.456,48.651,18.456
				C446.142,496.658,464.571,488.345,477.713,474.998z"/>
		</g>
		<g>
			<path style="fill:#DBDEDF;" d="M428.118,447.134c-3.518,0-6.96,0.311-10.3,0.895c11.518,2.013,21.815,7.339,29.756,14.9
				c6.366,6.062,5.616,16.471-1.682,21.371c-8.927,5.994-19.296,10.076-30.493,11.641c3.372,0.473,6.818,0.718,10.323,0.718
				c20.421,0,38.849-8.314,51.991-21.66C468.079,458.388,449.486,447.134,428.118,447.134z"/>
		</g>
		<g>
			<ellipse style="fill:#FFD4C6;" cx="427.025" cy="402.941" rx="16.935" ry="21.461"/>
		</g>
	</g>
	<g>
		<path d="M253.704,373.98c-13.474,0-24.435,12.992-24.435,28.961s10.961,28.961,24.435,28.961s24.435-12.992,24.435-28.961
			S267.178,373.98,253.704,373.98z M253.704,416.902c-5.114,0-9.435-6.394-9.435-13.961c0-7.568,4.321-13.961,9.435-13.961
			s9.435,6.394,9.435,13.961C263.139,410.509,258.818,416.902,253.704,416.902z"/>
		<path d="M486.951,475.977c11.982-14.068,18.537-31.656,18.537-50.141c0-43.188-35.783-78.323-79.767-78.323
			c-7.419,0-14.597,1.021-21.417,2.891V23.83c0-12.406-10.094-22.5-22.5-22.5H116.301c-12.407,0-22.5,10.094-22.5,22.5v163.337
			c0,4.142,3.358,7.5,7.5,7.5s7.5-3.358,7.5-7.5V23.83c0-4.135,3.365-7.5,7.5-7.5h265.504c4.136,0,7.5,3.365,7.5,7.5v332.357
			c-23.471,11.881-40.209,34.847-42.949,61.816h-14.589c-4.015-39.524-38.074-70.491-79.366-70.491s-75.352,30.968-79.367,70.491
			h-13.902c-3.019-29.72-23.035-54.581-50.332-65.096v-135.74c0-4.142-3.358-7.5-7.5-7.5s-7.5,3.358-7.5,7.5v131.584
			c-4.56-0.798-9.245-1.239-14.035-1.239c-15.474,0-30.484,4.358-43.407,12.603c-3.492,2.228-4.517,6.865-2.289,10.356
			c2.228,3.491,6.864,4.517,10.356,2.289c10.509-6.704,22.729-10.248,35.339-10.248c35.712,0,64.766,28.407,64.766,63.323
			c0,13.405-4.276,26.244-12.186,36.959c-12.05-14.486-30.473-23.161-50.184-23.161c-21.08,0-40.662,9.904-52.576,26.224
			C20.23,454.625,15,440.468,15,425.835c0-11.715,3.295-23.154,9.529-33.081c2.203-3.508,1.145-8.137-2.363-10.34
			c-3.509-2.203-8.137-1.144-10.34,2.363C4.089,397.097,0,411.294,0,425.835c0,20.366,8.161,39.96,22.523,54.516l-0.059,0.181
			l3.656,3.265c14.707,13.13,33.758,20.361,53.646,20.361c21.798,0,42.16-8.487,57.335-23.897l4.014-4.076l-0.12-0.208
			c10.422-12.237,16.734-27.134,18.198-42.974h13.799c1.672,17.752,9.499,34.511,22.167,47.35l-0.059,0.181l3.655,3.263
			c14.706,13.13,33.758,20.361,53.646,20.361c21.798,0,42.16-8.487,57.335-23.897l4.015-4.076l-0.121-0.208
			c10.421-12.237,16.733-27.134,18.198-42.973h14.486c1.672,17.75,9.497,34.508,22.163,47.346l-0.059,0.182l3.658,3.266
			c14.706,13.13,33.759,20.361,53.646,20.361c21.794,0,42.153-8.484,57.327-23.89c0.003-0.003,0.005-0.005,0.008-0.007
			c0.003-0.003,0.006-0.007,0.01-0.01l4.005-4.066L486.951,475.977z M40.608,476.275c0.014-0.021,0.027-0.044,0.041-0.066
			c1.238-1.846,2.613-3.584,4.09-5.225h-0.016c9.229-10.257,22.85-16.351,37.44-16.351c14.579,0,28.209,6.094,37.44,16.351h-0.023
			c0.222,0.247,0.438,0.5,0.656,0.75c0.381,0.442,0.761,0.886,1.126,1.342c0.144,0.178,0.29,0.354,0.431,0.535
			c0.061,0.079,0.116,0.163,0.176,0.242c-11.737,9.911-26.507,15.304-42.203,15.304C65.531,489.158,51.832,484.619,40.608,476.275z
			 M213.243,476.275c0.02-0.029,0.036-0.061,0.056-0.09c0.047-0.071,0.099-0.138,0.146-0.209c0.457-0.672,0.937-1.324,1.427-1.969
			c0.207-0.27,0.411-0.543,0.623-0.808c0.369-0.465,0.754-0.916,1.14-1.366c0.468-0.541,0.945-1.074,1.435-1.594
			c9.21-9.797,22.5-15.605,36.727-15.605c14.261,0,27.597,5.846,36.814,15.699c0.386,0.412,0.764,0.832,1.136,1.256
			c0.353,0.405,0.697,0.817,1.036,1.234c0.222,0.271,0.449,0.538,0.664,0.816c0.054,0.07,0.103,0.144,0.156,0.214
			c-11.737,9.911-26.508,15.305-42.203,15.305C238.166,489.158,224.467,484.619,213.243,476.275z M304.981,462.794
			c-12.05-14.485-30.473-23.16-50.184-23.16c-21.081,0-40.663,9.904-52.577,26.223c-9.356-11.232-14.586-25.389-14.586-40.021
			c0-34.917,29.054-63.323,64.767-63.323c35.712,0,64.766,28.407,64.766,63.323C317.167,439.241,312.891,452.079,304.981,462.794z
			 M425.722,362.512c35.713,0,64.767,28.407,64.767,63.323c0,13.406-4.276,26.244-12.187,36.959
			c-12.05-14.485-30.473-23.161-50.184-23.161c-21.08,0-40.662,9.904-52.576,26.224c-9.355-11.232-14.586-25.389-14.586-40.022
			C360.956,390.919,390.01,362.512,425.722,362.512z M386.564,476.275c0.017-0.026,0.032-0.054,0.05-0.079
			c0.058-0.087,0.121-0.17,0.18-0.256c0.445-0.653,0.912-1.287,1.388-1.915c0.214-0.281,0.426-0.563,0.647-0.839
			c0.329-0.414,0.674-0.815,1.017-1.217c0.51-0.594,1.03-1.179,1.566-1.749c9.21-9.786,22.491-15.587,36.709-15.587
			c14.261,0,27.597,5.846,36.814,15.699c0.386,0.412,0.764,0.832,1.136,1.256c0.353,0.405,0.697,0.817,1.036,1.234
			c0.222,0.271,0.449,0.538,0.664,0.816c0.054,0.07,0.103,0.144,0.156,0.214c-11.737,9.911-26.508,15.305-42.203,15.305
			C411.487,489.158,397.788,484.619,386.564,476.275z"/>
		<path d="M427.024,431.902c13.474,0,24.436-12.992,24.436-28.961s-10.962-28.961-24.436-28.961s-24.435,12.992-24.435,28.961
			S413.551,431.902,427.024,431.902z M427.024,388.98c5.114,0,9.436,6.394,9.436,13.961c0,7.567-4.321,13.961-9.436,13.961
			s-9.435-6.394-9.435-13.961C417.59,395.373,421.91,388.98,427.024,388.98z"/>
		<path d="M155.569,74.265h58.926c4.142,0,7.5-3.358,7.5-7.5s-3.358-7.5-7.5-7.5h-58.926c-4.142,0-7.5,3.358-7.5,7.5
			S151.427,74.265,155.569,74.265z"/>
		<path d="M155.569,123.265h185.492c4.143,0,7.5-3.358,7.5-7.5s-3.357-7.5-7.5-7.5H155.569c-4.142,0-7.5,3.358-7.5,7.5
			S151.427,123.265,155.569,123.265z"/>
		<path d="M155.569,153.265h185.492c4.143,0,7.5-3.358,7.5-7.5s-3.357-7.5-7.5-7.5H155.569c-4.142,0-7.5,3.358-7.5,7.5
			S151.427,153.265,155.569,153.265z"/>
		<path d="M155.569,183.265h185.492c4.143,0,7.5-3.358,7.5-7.5s-3.357-7.5-7.5-7.5H155.569c-4.142,0-7.5,3.358-7.5,7.5
			S151.427,183.265,155.569,183.265z"/>
		<path d="M155.569,213.265h185.492c4.143,0,7.5-3.358,7.5-7.5s-3.357-7.5-7.5-7.5H155.569c-4.142,0-7.5,3.358-7.5,7.5
			S151.427,213.265,155.569,213.265z"/>
		<path d="M342.537,231.44h-36.376c-4.143,0-7.5,3.358-7.5,7.5v7.994h-28.876c-4.143,0-7.5,3.358-7.5,7.5v3.952h-28.876
			c-4.142,0-7.5,3.358-7.5,7.5v7.32h-28.875c-4.142,0-7.5,3.358-7.5,7.5v7.993h-28.876c-4.142,0-7.5,3.358-7.5,7.5v26.271
			c0,4.142,3.358,7.5,7.5,7.5h36.376h36.375h36.376h36.376h36.376c4.143,0,7.5-3.358,7.5-7.5v-83.53
			C350.037,234.798,346.68,231.44,342.537,231.44z M168.158,303.698h21.376v11.271h-21.376V303.698z M204.534,296.198v-7.993h21.375
			v26.765h-21.375V296.198z M240.909,280.705v-7.32h21.376v41.584h-21.376V280.705z M277.285,265.885v-3.952h21.376v53.036h-21.376
			V265.885z M335.037,314.97h-21.376v-60.536v-7.994h21.376V314.97z"/>
		<path d="M105.504,402.941c0-15.969-10.961-28.961-24.435-28.961s-24.435,12.992-24.435,28.961s10.961,28.961,24.435,28.961
			S105.504,418.911,105.504,402.941z M71.634,402.941c0-7.568,4.321-13.961,9.435-13.961s9.435,6.394,9.435,13.961
			c0,7.567-4.321,13.961-9.435,13.961S71.634,410.509,71.634,402.941z"/>
	</g>
</g>
<g>
</g>
<g>
</g>
<g>
</g>
<g>
</g>
<g>
</g>
<g>
</g>
<g>
</g>
<g>
</g>
<g>
</g>
<g>
</g>
<g>
</g>
<g>
</g>
<g>
</g>
<g>
</g>
<g>
</g>
</svg>
