<?xml version="1.0" encoding="iso-8859-1"?>
<!-- Generator: Adobe Illustrator 21.0.0, SVG Export Plug-In . SVG Version: 6.00 Build 0)  -->
<svg version="1.1" id="Capa_1" xmlns="http://www.w3.org/2000/svg" xmlns:xlink="http://www.w3.org/1999/xlink" x="0px" y="0px"
	 viewBox="0 0 506.014 506.014" style="enable-background:new 0 0 506.014 506.014;" xml:space="preserve">
<g>
	<g>
		<path style="fill:#FFF4F1;" d="M246.049,161.493h236.194c8.949,0,16.27,7.321,16.27,16.27v218.479v3.34v78.017l-1.599,2.769
			l-49.773-64.516H246.049c-8.948,0-16.27-7.322-16.27-16.27V177.763C229.779,168.815,237.1,161.493,246.049,161.493z"/>
	</g>
	<g>
		<path style="fill:#E4E7E7;" d="M482.243,161.493h-30c8.949,0,16.27,7.322,16.27,16.27v218.479v3.34v43.972l28.401,36.814
			l1.599-2.769v-78.017v-3.34V177.763C498.513,168.815,491.192,161.493,482.243,161.493z"/>
	</g>
	<g>
		<path style="fill:#FFD4C6;" d="M338.529,383.522H279.66c-8.25,0-15-6.75-15-15v-17.247c0-8.25,6.75-15,15-15h58.869
			c8.25,0,15,6.75,15,15v17.247C353.529,376.772,346.779,383.522,338.529,383.522z"/>
	</g>
	<g>
		<path style="fill:#FDA59D;" d="M338.529,336.275h-30c8.25,0,15,6.75,15,15v17.247c0,8.25-6.75,15-15,15h30c8.25,0,15-6.75,15-15
			v-17.247C353.529,343.025,346.779,336.275,338.529,336.275z"/>
	</g>
	<g>
		<circle style="fill:#FFEC56;" cx="425.4" cy="272.592" r="36.56"/>
	</g>
	<g>
		<path style="fill:#F9CD45;" d="M425.4,236.032c-5.348,0-10.422,1.158-15,3.221c12.708,5.727,21.56,18.495,21.56,33.339
			s-8.852,27.612-21.56,33.339c4.578,2.063,9.652,3.221,15,3.221c20.192,0,36.56-16.369,36.56-36.56S445.592,236.032,425.4,236.032z
			"/>
	</g>
	<g>
		<path style="fill:#FFF4F1;" d="M259.964,25.645H23.77c-8.948,0-16.27,7.321-16.27,16.27v218.479v3.34v78.017l1.599,2.769
			l49.773-64.516h201.093c8.948,0,16.27-7.322,16.27-16.27V41.915C276.234,32.967,268.913,25.645,259.964,25.645z"/>
	</g>
	<g>
		<g>
			<path style="fill:#E4E7E7;" d="M259.964,25.645h-30c8.948,0,16.27,7.322,16.27,16.27v221.819c0,8.948-7.322,16.27-16.27,16.27h30
				c8.948,0,16.27-7.321,16.27-16.27V41.915C276.234,32.967,268.913,25.645,259.964,25.645z"/>
		</g>
	</g>
	<g>
		<circle style="fill:#FC9086;" cx="150.045" cy="150.424" r="79.734"/>
	</g>
	<g>
		<path style="fill:#F57A73;" d="M150.045,70.691c-5.13,0-10.14,0.503-15,1.429c36.862,7.02,64.734,39.399,64.734,78.305
			c0,38.906-27.872,71.284-64.734,78.305c4.86,0.926,9.87,1.429,15,1.429c44.036,0,79.734-35.698,79.734-79.734
			C229.779,106.388,194.081,70.691,150.045,70.691z"/>
	</g>
	<g>
		<path d="M158.457,144.103c-5.056,3.953-5.147,6.71-5.147,11.49c0,1.746-0.92,3.769-5.424,3.769c-3.769,0-5.055-1.379-5.055-6.159
			c0-7.905,3.492-11.674,6.158-13.972c3.033-2.574,8.181-5.423,8.181-10.387c0-4.229-3.677-6.25-8.272-6.25
			c-9.376,0-7.354,7.078-12.317,7.078c-2.481,0-5.515-1.655-5.515-5.239c0-4.964,5.698-12.317,18.107-12.317
			c11.766,0,19.579,6.526,19.579,15.167C168.752,135.922,160.938,142.173,158.457,144.103z M155.056,172.782
			c0,3.769-3.125,7.078-7.078,7.078c-3.952,0-6.985-3.31-6.985-7.078c0-3.86,3.125-7.078,6.985-7.078
			C151.839,165.704,155.056,168.922,155.056,172.782z"/>
	</g>
	<g>
		<path d="M482.243,153.993h-98.714c-4.143,0-7.5,3.358-7.5,7.5s3.357,7.5,7.5,7.5h98.714c4.836,0,8.771,3.934,8.771,8.77v282.677
			l-37.934-49.169c-1.42-1.841-3.613-2.919-5.938-2.919H246.049c-4.836,0-8.77-3.934-8.77-8.77V287.505h22.686
			c8.795,0,16.484-4.805,20.595-11.925c0.779,0.274,1.613,0.43,2.485,0.43h78.588c4.143,0,7.5-3.358,7.5-7.5s-3.357-7.5-7.5-7.5
			h-77.898v-19.265h77.898c4.143,0,7.5-3.358,7.5-7.5s-3.357-7.5-7.5-7.5h-77.898V207.48H461.96c4.143,0,7.5-3.358,7.5-7.5
			s-3.357-7.5-7.5-7.5H283.734v-23.486h69.795c4.143,0,7.5-3.358,7.5-7.5s-3.357-7.5-7.5-7.5h-69.795V41.915
			c0-13.107-10.663-23.77-23.77-23.77H23.77C10.663,18.145,0,28.809,0,41.915v119.577c0,4.142,3.357,7.5,7.5,7.5s7.5-3.358,7.5-7.5
			V41.915c0-4.836,3.934-8.77,8.77-8.77h236.195c4.836,0,8.77,3.934,8.77,8.77v221.819c0,4.836-3.934,8.77-8.77,8.77H58.872
			c-2.325,0-4.519,1.078-5.938,2.919L15,324.593v-133.1c0-4.142-3.357-7.5-7.5-7.5s-7.5,3.358-7.5,7.5v150.258
			c0,1.316,0.347,2.609,1.005,3.75l1.599,2.77c1.25,2.167,3.498,3.567,5.994,3.734c0.168,0.011,0.335,0.017,0.502,0.017
			c2.314,0,4.512-1.071,5.938-2.919l47.521-61.597h159.721v112.078c0,13.107,10.663,23.77,23.77,23.77h197.406l47.521,61.597
			c1.426,1.848,3.623,2.919,5.938,2.919c0.167,0,0.334-0.005,0.501-0.017c2.496-0.167,4.744-1.567,5.995-3.733l1.599-2.769
			c0.658-1.14,1.005-2.434,1.005-3.75V177.763C506.014,164.656,495.351,153.993,482.243,153.993z"/>
		<path d="M461.96,331.65h-74.625c-4.143,0-7.5,3.358-7.5,7.5s3.357,7.5,7.5,7.5h74.625c4.143,0,7.5-3.358,7.5-7.5
			S466.103,331.65,461.96,331.65z"/>
		<path d="M461.96,364.085h-74.625c-4.143,0-7.5,3.358-7.5,7.5s3.357,7.5,7.5,7.5h74.625c4.143,0,7.5-3.358,7.5-7.5
			S466.103,364.085,461.96,364.085z"/>
		<path d="M353.847,295.275H269.16c-4.143,0-7.5,3.358-7.5,7.5s3.357,7.5,7.5,7.5h84.687c4.143,0,7.5-3.358,7.5-7.5
			S357.989,295.275,353.847,295.275z"/>
		<path d="M338.529,328.776H279.66c-12.406,0-22.5,10.093-22.5,22.5v17.247c0,12.407,10.094,22.5,22.5,22.5h58.869
			c12.406,0,22.5-10.093,22.5-22.5v-17.247C361.029,338.869,350.936,328.776,338.529,328.776z M346.029,368.522
			c0,4.136-3.364,7.5-7.5,7.5H279.66c-4.136,0-7.5-3.364-7.5-7.5v-17.247c0-4.136,3.364-7.5,7.5-7.5h58.869
			c4.136,0,7.5,3.364,7.5,7.5V368.522z"/>
		<path d="M425.4,228.532c-24.295,0-44.061,19.765-44.061,44.06c0,24.294,19.766,44.06,44.061,44.06s44.06-19.765,44.06-44.06
			C469.46,248.297,449.695,228.532,425.4,228.532z M425.4,301.651c-16.024,0-29.061-13.036-29.061-29.06
			c0-16.024,13.036-29.06,29.061-29.06c16.023,0,29.06,13.036,29.06,29.06C454.46,288.615,441.424,301.651,425.4,301.651z"/>
		<path d="M237.279,150.424c0-48.101-39.133-87.233-87.234-87.233c-48.101,0-87.233,39.133-87.233,87.233
			c0,48.101,39.133,87.234,87.233,87.234C198.146,237.658,237.279,198.525,237.279,150.424z M77.812,150.424
			c0-39.83,32.403-72.233,72.233-72.233s72.234,32.404,72.234,72.233c0,39.83-32.404,72.234-72.234,72.234
			S77.812,190.254,77.812,150.424z"/>
	</g>
</g>
<g>
</g>
<g>
</g>
<g>
</g>
<g>
</g>
<g>
</g>
<g>
</g>
<g>
</g>
<g>
</g>
<g>
</g>
<g>
</g>
<g>
</g>
<g>
</g>
<g>
</g>
<g>
</g>
<g>
</g>
</svg>
