<?xml version="1.0" encoding="iso-8859-1"?>
<!-- Generator: Adobe Illustrator 21.0.0, SVG Export Plug-In . SVG Version: 6.00 Build 0)  -->
<svg version="1.1" id="Capa_1" xmlns="http://www.w3.org/2000/svg" xmlns:xlink="http://www.w3.org/1999/xlink" x="0px" y="0px"
	 viewBox="0 0 507.167 507.167" style="enable-background:new 0 0 507.167 507.167;" xml:space="preserve">
<g>
	<g>
		<path style="fill:#FC9086;" d="M499.667,259.589v207.949c0,8.998-5.702,16.292-12.737,16.292H294.584V259.589H499.667z"/>
	</g>
	<g>
		<path style="fill:#5E8EE1;" d="M486.931,133.313H294.584v53.731c5.634-4.845,12.958-7.78,20.971-7.78
			c17.778,0,32.19,14.412,32.19,32.19c0,17.778-14.412,32.19-32.19,32.19c-8.013,0-15.337-2.935-20.971-7.78v72.706h80.299
			c-6.126-5.86-9.948-14.11-9.948-23.257c0-17.778,14.412-32.19,32.19-32.19c17.778,0,32.19,14.412,32.19,32.19
			c0,9.147-3.822,17.397-9.948,23.257h80.299V146.049C499.667,139.015,493.965,133.313,486.931,133.313z"/>
	</g>
	<g>
		<path style="fill:#F57A73;" d="M469.667,259.589v207.949c0,8.998-5.702,16.292-12.737,16.292h30
			c7.034,0,12.737-7.294,12.737-16.292V259.589H469.667z"/>
	</g>
	<g>
		<g>
			<path style="fill:#467BFF;" d="M486.931,133.313h-30c7.034,0,12.737,5.702,12.737,12.737v162.522h30V146.049
				C499.667,139.015,493.965,133.313,486.931,133.313z"/>
		</g>
	</g>
	<g>
		<path style="fill:#FFEC56;" d="M231.201,78.776c-6.94,0-13.361,2.203-18.618,5.938V23.338H20.237
			C13.202,23.338,7.5,29.04,7.5,36.074v162.522h78.504c-5.068,5.688-8.153,13.183-8.153,21.402c0,17.778,14.412,32.19,32.19,32.19
			c17.778,0,32.19-14.412,32.19-32.19c0-8.218-3.084-15.713-8.153-21.402h78.504v-61.377c5.257,3.735,11.678,5.938,18.618,5.938
			c17.778,0,32.19-14.412,32.19-32.19C263.392,93.189,248.98,78.776,231.201,78.776z"/>
	</g>
	<g>
		<path style="fill:#ACEDED;" d="M311.378,367.009c-6.155,0-11.904,1.729-16.794,4.726v-63.163h-85.56
			c3.424,5.115,5.424,11.265,5.424,17.883c0,17.778-14.412,32.19-32.19,32.19c-17.778,0-32.19-14.412-32.19-32.19
			c0-6.618,2-12.768,5.424-17.883H89.5v162.522c0,7.034,5.702,12.737,12.737,12.737h192.347v-57.167
			c4.89,2.996,10.639,4.726,16.794,4.726c17.778,0,32.19-14.412,32.19-32.19S329.156,367.009,311.378,367.009z"/>
	</g>
	<g>
		<g>
			<path style="fill:#F9CD45;" d="M201.201,78.776c4.008,0,7.843,0.739,11.382,2.077V23.338h-30v37.445
				c0,10.102,8.308,18.059,18.41,17.995C201.063,78.777,201.132,78.776,201.201,78.776z"/>
		</g>
		<g>
			<path style="fill:#F9CD45;" d="M121.686,198.596c-7.068,0-12.155,6.665-10.428,13.519c0.636,2.522,0.974,5.163,0.974,7.883
				c0,12.36-6.97,23.087-17.19,28.481c5.357,2.827,11.603,4.196,18.215,3.552c15.071-1.468,27.247-13.558,28.799-28.621
				c0.983-9.545-2.215-18.347-7.977-24.814H121.686z"/>
		</g>
		<g>
			<path style="fill:#F9CD45;" d="M201.201,143.157c-0.069,0-0.139,0-0.208-0.001c-10.102-0.064-18.41,7.892-18.41,17.995v37.445h30
				V141.08C209.044,142.419,205.21,143.157,201.201,143.157z"/>
		</g>
		<g>
			<path style="fill:#F9CD45;" d="M231.201,78.776c-5.414,0-10.504,1.356-14.981,3.719c10.21,5.397,17.171,16.119,17.171,28.471
				c0,12.353-6.961,23.074-17.171,28.471c4.476,2.364,9.566,3.719,14.981,3.719c17.778,0,32.19-14.412,32.19-32.19
				C263.392,93.189,248.98,78.776,231.201,78.776z"/>
		</g>
	</g>
	<g>
		<g>
			<path style="fill:#66D6E6;" d="M311.378,367.009c-5.419,0-10.522,1.343-15.002,3.708c10.221,5.394,17.192,16.121,17.192,28.482
				c0,12.361-6.971,23.088-17.192,28.482c4.48,2.365,9.583,3.708,15.002,3.708c17.778,0,32.19-14.412,32.19-32.19
				S329.156,367.009,311.378,367.009z"/>
		</g>
	</g>
	<g>
		<path d="M149.732,219.998c0-4.792-0.864-9.494-2.513-13.902h65.364c4.142,0,7.5-3.358,7.5-7.5v-49.518
			c3.579,1.044,7.313,1.579,11.118,1.579c21.885,0,39.69-17.805,39.69-39.69s-17.805-39.69-39.69-39.69
			c-3.805,0-7.539,0.535-11.118,1.579V23.337c0-4.142-3.358-7.5-7.5-7.5H20.237C9.078,15.837,0,24.916,0,36.074v162.522
			c0,4.142,3.358,7.5,7.5,7.5h65.364c-1.649,4.407-2.513,9.11-2.513,13.902c0,21.885,17.805,39.69,39.69,39.69
			S149.732,241.883,149.732,219.998z M85.352,219.998c0-6.059,2.22-11.888,6.252-16.413c1.966-2.207,2.453-5.361,1.244-8.058
			s-3.889-4.432-6.844-4.432H15V36.074c0-2.888,2.349-5.237,5.237-5.237h184.847v53.877c0,2.806,1.566,5.377,4.06,6.665
			c2.492,1.286,5.495,1.075,7.784-0.55c4.192-2.979,9.128-4.553,14.274-4.553c13.614,0,24.69,11.076,24.69,24.69
			s-11.076,24.69-24.69,24.69c-5.146,0-10.083-1.574-14.274-4.552c-2.287-1.625-5.291-1.837-7.784-0.551
			c-2.493,1.287-4.06,3.858-4.06,6.665v53.877H134.08c-2.955,0-5.635,1.735-6.844,4.432s-0.722,5.851,1.244,8.058
			c4.032,4.525,6.252,10.354,6.252,16.413c0,13.614-11.076,24.69-24.69,24.69S85.352,233.612,85.352,219.998z"/>
		<path d="M486.931,125.813H365.783c-4.142,0-7.5,3.358-7.5,7.5s3.358,7.5,7.5,7.5h121.147c2.888,0,5.237,2.349,5.237,5.236v155.022
			h-58.585c2.121-4.901,3.234-10.234,3.234-15.757c0-21.885-17.805-39.69-39.69-39.69s-39.69,17.805-39.69,39.69
			c0,5.523,1.112,10.856,3.234,15.757h-58.586v-52.287c4.288,1.549,8.845,2.36,13.471,2.36c21.885,0,39.69-17.805,39.69-39.69
			s-17.805-39.69-39.69-39.69c-4.626,0-9.183,0.812-13.471,2.36v-33.312h33.7c4.142,0,7.5-3.358,7.5-7.5s-3.358-7.5-7.5-7.5h-41.2
			c-4.142,0-7.5,3.358-7.5,7.5v53.731c0,2.931,1.708,5.594,4.372,6.816c2.665,1.222,5.797,0.782,8.018-1.13
			c4.475-3.847,10.186-5.966,16.082-5.966c13.614,0,24.69,11.076,24.69,24.69s-11.076,24.69-24.69,24.69
			c-5.896,0-11.607-2.119-16.082-5.966c-2.222-1.911-5.354-2.352-8.018-1.13c-2.664,1.223-4.372,3.885-4.372,6.816v65.206h-78.06
			c-2.769,0-5.312,1.525-6.616,3.968c-1.304,2.442-1.156,5.404,0.384,7.705c2.719,4.062,4.156,8.803,4.156,13.711
			c0,13.614-11.076,24.69-24.69,24.69s-24.69-11.076-24.69-24.69c0-4.908,1.438-9.649,4.156-13.711
			c1.541-2.3,1.688-5.262,0.384-7.705c-1.304-2.442-3.848-3.968-6.616-3.968H89.5c-4.142,0-7.5,3.358-7.5,7.5v70.103
			c0,4.142,3.358,7.5,7.5,7.5s7.5-3.358,7.5-7.5v-62.603h46.941c-0.909,3.359-1.374,6.844-1.374,10.383
			c0,21.885,17.805,39.69,39.69,39.69s39.69-17.805,39.69-39.69c0-3.539-0.465-7.024-1.374-10.383h66.509v55.663
			c0,2.714,1.467,5.217,3.835,6.543s5.268,1.27,7.583-0.148c3.866-2.369,8.318-3.621,12.876-3.621
			c13.614,0,24.69,11.076,24.69,24.69s-11.076,24.69-24.69,24.69c-4.558,0-9.01-1.252-12.876-3.621
			c-2.315-1.418-5.214-1.475-7.583-0.148c-2.368,1.326-3.835,3.829-3.835,6.543v49.667H102.237c-2.888,0-5.237-2.349-5.237-5.237
			v-62.419c0-4.142-3.358-7.5-7.5-7.5s-7.5,3.358-7.5,7.5v62.419c0,11.159,9.078,20.237,20.237,20.237h192.347h192.347
			c11.159,0,20.237-9.078,20.237-20.237V308.571V146.049C507.167,134.891,498.089,125.813,486.931,125.813z M486.931,476.33H302.083
			v-38.541c3.027,0.728,6.146,1.1,9.294,1.1c21.885,0,39.69-17.805,39.69-39.69s-17.805-39.69-39.69-39.69
			c-3.149,0-6.267,0.373-9.294,1.1v-44.538h72.8c3.064,0,5.819-1.864,6.96-4.707s0.438-6.095-1.776-8.213
			c-4.922-4.708-7.632-11.043-7.632-17.837c0-13.614,11.076-24.69,24.69-24.69s24.69,11.076,24.69,24.69
			c0,6.794-2.71,13.129-7.632,17.838c-2.214,2.118-2.917,5.369-1.776,8.212c1.141,2.844,3.896,4.707,6.96,4.707h72.799v155.022
			C492.167,473.981,489.818,476.33,486.931,476.33z"/>
	</g>
</g>
<g>
</g>
<g>
</g>
<g>
</g>
<g>
</g>
<g>
</g>
<g>
</g>
<g>
</g>
<g>
</g>
<g>
</g>
<g>
</g>
<g>
</g>
<g>
</g>
<g>
</g>
<g>
</g>
<g>
</g>
</svg>
