<?xml version="1.0" encoding="iso-8859-1"?>
<!-- Generator: Adobe Illustrator 21.0.0, SVG Export Plug-In . SVG Version: 6.00 Build 0)  -->
<svg version="1.1" id="Capa_1" xmlns="http://www.w3.org/2000/svg" xmlns:xlink="http://www.w3.org/1999/xlink" x="0px" y="0px"
	 viewBox="0 0 507.694 507.694" style="enable-background:new 0 0 507.694 507.694;" xml:space="preserve">
<g>
	<g>
		<rect x="205.777" y="270.065" style="fill:#9A9999;" width="96.139" height="183.122"/>
	</g>
	<g>
		<rect x="271.917" y="270.065" style="fill:#696867;" width="30" height="183.122"/>
	</g>
	<g>
		<path style="fill:#ACEDED;" d="M485.194,402.931H22.5c-8.25,0-15-6.75-15-15V45.09c0-8.25,6.75-15,15-15h462.694
			c8.25,0,15,6.75,15,15v342.841C500.194,396.181,493.444,402.931,485.194,402.931z"/>
	</g>
	<g>
		<path style="fill:#FFD4C6;" d="M485.194,30.09H257.56v372.841h227.633c8.25,0,15-6.75,15-15V45.09
			C500.194,36.84,493.444,30.09,485.194,30.09z"/>
	</g>
	<g>
		<path style="fill:#FDACA4;" d="M485.194,30.09h-30c8.25,0,15,6.75,15,15v342.841c0,8.25-6.75,15-15,15h30c8.25,0,15-6.75,15-15
			V45.09C500.194,36.84,493.444,30.09,485.194,30.09z"/>
	</g>
	<g>
		<path style="fill:#B4B4B4;" d="M327.859,477.603H179.835c-8.813,0-16.023-7.21-16.023-16.023v0c0-8.813,7.21-16.023,16.023-16.023
			h148.024c8.813,0,16.023,7.21,16.023,16.023v0C343.882,470.393,336.672,477.603,327.859,477.603z"/>
	</g>
	<g>
		<path style="fill:#DBDEDF;" d="M7.5,345.018v38.702c0,10.566,8.645,19.211,19.211,19.211h454.272
			c10.566,0,19.211-8.645,19.211-19.211v-38.702H7.5z"/>
	</g>
	<g>
		<path style="fill:#B4B4B4;" d="M470.194,345.018v38.702c0,10.566-8.645,19.211-19.211,19.211h30
			c10.566,0,19.211-8.645,19.211-19.211v-38.702H470.194z"/>
	</g>
	<g>
		<path style="fill:#FFF4F1;" d="M192.127,112.642H83.024c-8.378,0-15.233-6.855-15.233-15.233v-5.446
			c0-8.378,6.855-15.233,15.233-15.233h109.103c8.378,0,15.233,6.855,15.233,15.233v5.446
			C207.36,105.787,200.505,112.642,192.127,112.642z"/>
	</g>
	<g>
		<path style="fill:#DBDEDF;" d="M192.127,76.729h-30c8.378,0,15.233,6.855,15.233,15.233v5.446c0,8.378-6.855,15.233-15.233,15.233
			h30c8.378,0,15.233-6.855,15.233-15.233v-5.446C207.36,83.584,200.505,76.729,192.127,76.729z"/>
	</g>
	<g>
		<path style="fill:#9A9999;" d="M327.859,445.557h-30c8.813,0,16.023,7.21,16.023,16.023s-7.21,16.023-16.023,16.023h30
			c8.813,0,16.023-7.21,16.023-16.023S336.672,445.557,327.859,445.557z"/>
	</g>
	<g>
		<path style="fill:#ACEDED;" d="M436.553,112.642H327.45c-8.378,0-15.233-6.855-15.233-15.233v-5.446
			c0-8.378,6.855-15.233,15.233-15.233h109.103c8.378,0,15.233,6.855,15.233,15.233v5.446
			C451.786,105.787,444.931,112.642,436.553,112.642z"/>
	</g>
	<g>
		<path style="fill:#66D6E6;" d="M436.553,76.729h-30c8.378,0,15.233,6.855,15.233,15.233v5.446c0,8.378-6.855,15.233-15.233,15.233
			h30c8.378,0,15.233-6.855,15.233-15.233v-5.446C451.786,83.584,444.931,76.729,436.553,76.729z"/>
	</g>
	<g>
		<path style="fill:#F7EC77;" d="M139.799,262.114c21.368,0,39.961,11.254,49.595,27.865c12.545-12.739,20.275-30.061,20.275-49.163
			c0-39.114-32.355-70.823-72.266-70.823s-72.266,31.709-72.266,70.823c0,20.75,9.107,39.414,23.615,52.367
			c0.338-1.036,0.792-2.064,1.373-3.071C99.735,273.428,118.373,262.114,139.799,262.114z"/>
	</g>
	<g>
		<g>
			<path style="fill:#F9CD45;" d="M137.403,169.993c-3.497,0-6.935,0.249-10.299,0.719c35.032,4.9,61.967,34.417,61.967,70.104
				c0,13.237-3.715,25.618-10.169,36.213c4.149,3.772,7.7,8.134,10.493,12.95c12.544-12.739,20.275-30.061,20.275-49.163
				C209.669,201.702,177.314,169.993,137.403,169.993z"/>
		</g>
	</g>
	<g>
		<path style="fill:#FFF4F1;" d="M189.394,289.979c-9.634-16.611-28.227-27.865-49.595-27.865
			c-21.426,0-40.064,11.314-49.675,27.998c-0.58,1.007-1.034,2.035-1.373,3.071c12.841,11.464,29.912,18.456,48.651,18.456
			C157.823,311.639,176.251,303.325,189.394,289.979z"/>
	</g>
	<g>
		<path style="fill:#DBDEDF;" d="M139.799,262.114c-3.518,0-6.96,0.311-10.3,0.895c11.518,2.013,21.815,7.339,29.756,14.9
			c6.366,6.062,5.616,16.471-1.682,21.371c-8.927,5.994-19.296,10.076-30.493,11.641c3.372,0.473,6.818,0.718,10.323,0.718
			c20.421,0,38.849-8.314,51.991-21.66C179.76,273.369,161.167,262.114,139.799,262.114z"/>
	</g>
	<g>
		<ellipse style="fill:#FFD4C6;" cx="138.706" cy="217.922" rx="16.935" ry="21.461"/>
	</g>
	<g>
		<path style="fill:#F7EC77;" d="M387.935,262.114c21.368,0,39.961,11.254,49.595,27.865c12.545-12.739,20.275-30.061,20.275-49.163
			c0-39.114-32.355-70.823-72.266-70.823s-72.266,31.709-72.266,70.823c0,20.75,9.107,39.414,23.615,52.367
			c0.338-1.036,0.792-2.064,1.373-3.071C347.871,273.428,366.509,262.114,387.935,262.114z"/>
	</g>
	<g>
		<g>
			<path style="fill:#F9CD45;" d="M385.539,169.993c-3.497,0-6.935,0.249-10.299,0.719c35.032,4.9,61.967,34.417,61.967,70.104
				c0,13.237-3.715,25.618-10.169,36.213c4.149,3.772,7.7,8.134,10.493,12.95c12.544-12.739,20.275-30.061,20.275-49.163
				C457.805,201.702,425.45,169.993,385.539,169.993z"/>
		</g>
	</g>
	<g>
		<path style="fill:#FFF4F1;" d="M437.53,289.979c-9.634-16.611-28.227-27.865-49.595-27.865c-21.426,0-40.064,11.314-49.675,27.998
			c-0.58,1.007-1.034,2.035-1.373,3.071c12.841,11.464,29.912,18.456,48.651,18.456C405.959,311.639,424.387,303.325,437.53,289.979
			z"/>
	</g>
	<g>
		<path style="fill:#DBDEDF;" d="M387.935,262.114c-3.518,0-6.96,0.311-10.3,0.895c11.518,2.013,21.815,7.339,29.756,14.9
			c6.366,6.062,5.616,16.471-1.682,21.371c-8.927,5.994-19.296,10.076-30.493,11.641c3.372,0.473,6.818,0.718,10.323,0.718
			c20.421,0,38.849-8.314,51.991-21.66C427.896,273.369,409.303,262.114,387.935,262.114z"/>
	</g>
	<g>
		<ellipse style="fill:#FFD4C6;" cx="386.841" cy="217.922" rx="16.935" ry="21.461"/>
	</g>
	<g>
		<path d="M485.194,22.591H250.061H97.791c-4.142,0-7.5,3.358-7.5,7.5s3.358,7.5,7.5,7.5h152.27v299.928H15V45.091
			c0-4.136,3.365-7.5,7.5-7.5h45.291c4.142,0,7.5-3.358,7.5-7.5s-3.358-7.5-7.5-7.5H22.5c-12.407,0-22.5,10.093-22.5,22.5v292.428
			v46.202v4.21c0,12.407,10.093,22.5,22.5,22.5h4.211h171.566v27.626h-18.442c-12.971,0-23.523,10.553-23.523,23.523
			s10.552,23.523,23.523,23.523h148.024c12.971,0,23.523-10.552,23.523-23.523s-10.552-23.523-23.523-23.523h-18.442v-27.626
			h171.566h4.211c12.407,0,22.5-10.093,22.5-22.5v-4.21v-46.202V45.091C507.694,32.684,497.601,22.591,485.194,22.591z M15,383.72
			v-31.202h235.061v42.913H26.711C20.253,395.431,15,390.177,15,383.72z M336.382,461.58c0,4.7-3.823,8.523-8.523,8.523H179.835
			c-4.7,0-8.523-3.823-8.523-8.523s3.823-8.523,8.523-8.523h148.024C332.559,453.057,336.382,456.881,336.382,461.58z
			 M294.417,438.057h-81.139v-27.626h36.783h44.356V438.057z M265.061,395.431v-42.913h227.633v31.202
			c0,6.457-5.253,11.71-11.711,11.71H265.061z M265.061,337.518V37.591h220.133c4.136,0,7.5,3.364,7.5,7.5v292.428H265.061z"/>
		<path d="M192.126,69.229H83.023c-12.535,0-22.733,10.198-22.733,22.733v5.446c0,12.535,10.198,22.733,22.733,22.733h109.103
			c12.535,0,22.733-10.198,22.733-22.733v-5.446C214.86,79.427,204.662,69.229,192.126,69.229z M199.86,97.408
			c0,4.264-3.469,7.733-7.733,7.733H83.023c-4.264,0-7.733-3.469-7.733-7.733v-5.446c0-4.264,3.469-7.733,7.733-7.733h109.103
			c4.264,0,7.733,3.469,7.733,7.733V97.408z"/>
		<path d="M327.45,120.142h109.103c12.535,0,22.733-10.198,22.733-22.733v-5.446c0-12.535-10.198-22.733-22.733-22.733h-42.06
			c-4.142,0-7.5,3.358-7.5,7.5s3.358,7.5,7.5,7.5h42.06c4.264,0,7.733,3.469,7.733,7.733v5.446c0,4.264-3.469,7.733-7.733,7.733
			H327.45c-4.264,0-7.733-3.469-7.733-7.733v-5.446c0-4.264,3.469-7.733,7.733-7.733h37.043c4.142,0,7.5-3.358,7.5-7.5
			s-3.358-7.5-7.5-7.5H327.45c-12.535,0-22.733,10.198-22.733,22.733v5.446C304.716,109.944,314.915,120.142,327.45,120.142z"/>
		<path d="M137.403,162.493c-43.983,0-79.766,35.135-79.766,78.323c0,20.367,8.161,39.961,22.524,54.518l-0.059,0.181l3.655,3.263
			c14.707,13.13,33.758,20.361,53.646,20.361c21.798,0,42.16-8.487,57.335-23.897l4.014-4.076l-0.12-0.208
			c11.982-14.068,18.537-31.656,18.537-50.141C217.169,197.629,181.386,162.493,137.403,162.493z M137.403,177.493
			c35.712,0,64.766,28.406,64.766,63.323c0,13.405-4.276,26.244-12.186,36.959c-12.05-14.486-30.473-23.161-50.184-23.161
			c-21.08,0-40.662,9.904-52.576,26.224c-9.356-11.232-14.586-25.389-14.586-40.022C72.637,205.9,101.691,177.493,137.403,177.493z
			 M98.245,291.256c0.016-0.023,0.029-0.048,0.044-0.071c0.182-0.269,0.375-0.529,0.566-0.79
			c9.053-12.903,24.366-20.78,40.944-20.78c12.138,0,23.608,4.236,32.44,11.57c0.385,0.32,0.761,0.65,1.137,0.982
			c0.379,0.335,0.754,0.674,1.123,1.021c0.345,0.324,0.685,0.654,1.02,0.988c0.394,0.395,0.78,0.798,1.16,1.207
			c0.29,0.311,0.581,0.621,0.863,0.939c0.425,0.482,0.835,0.978,1.24,1.478c0.221,0.272,0.449,0.538,0.665,0.816
			c0.055,0.071,0.105,0.147,0.16,0.219c-11.737,9.911-26.507,15.304-42.203,15.304C123.168,304.139,109.469,299.599,98.245,291.256z
			"/>
		<path d="M138.706,246.883c13.474,0,24.435-12.992,24.435-28.961s-10.961-28.961-24.435-28.961s-24.435,12.992-24.435,28.961
			S125.232,246.883,138.706,246.883z M138.706,203.961c5.114,0,9.435,6.394,9.435,13.961c0,7.567-4.321,13.961-9.435,13.961
			s-9.435-6.394-9.435-13.961C129.271,210.354,133.591,203.961,138.706,203.961z"/>
		<path d="M385.539,162.493c-43.983,0-79.766,35.135-79.766,78.323c0,20.366,8.161,39.96,22.523,54.516l-0.059,0.181l3.656,3.265
			c14.707,13.13,33.758,20.361,53.646,20.361c21.798,0,42.16-8.487,57.335-23.897l4.014-4.076l-0.12-0.208
			c11.982-14.068,18.537-31.656,18.537-50.141C465.305,197.629,429.522,162.493,385.539,162.493z M385.539,177.493
			c35.712,0,64.766,28.406,64.766,63.323c0,13.405-4.276,26.244-12.186,36.958c-0.217-0.261-0.451-0.506-0.673-0.763
			c-0.2-0.233-0.391-0.475-0.594-0.705h-0.026c-12.052-13.591-29.861-21.692-48.89-21.692c-21.08,0-40.662,9.904-52.577,26.224
			c-9.355-11.232-14.586-25.389-14.586-40.022C320.772,205.9,349.827,177.493,385.539,177.493z M346.38,291.256
			c0.013-0.02,0.025-0.041,0.038-0.061c1.23-1.834,2.598-3.558,4.066-5.188h-0.029c9.23-10.282,22.869-16.392,37.48-16.392
			c9.121,0,17.865,2.395,25.398,6.692h-0.002c1.155,0.659,2.274,1.373,3.369,2.119c0.346,0.236,0.692,0.472,1.032,0.717
			c0.401,0.288,0.796,0.584,1.188,0.884c0.397,0.304,0.786,0.617,1.173,0.934c0.327,0.267,0.657,0.529,0.977,0.804
			c0.67,0.578,1.326,1.172,1.963,1.786c0.213,0.205,0.415,0.42,0.624,0.628c0.48,0.481,0.953,0.969,1.413,1.47
			c0.22,0.24,0.437,0.483,0.652,0.727c0.47,0.535,0.928,1.081,1.375,1.638c0.158,0.197,0.32,0.389,0.475,0.588
			c0.059,0.076,0.112,0.158,0.171,0.235c-11.737,9.91-26.507,15.304-42.203,15.304C371.303,304.139,357.604,299.599,346.38,291.256z
			"/>
		<path d="M386.841,246.883c13.474,0,24.435-12.992,24.435-28.961s-10.961-28.961-24.435-28.961
			c-13.473,0-24.435,12.992-24.435,28.961S373.368,246.883,386.841,246.883z M386.841,203.961c5.114,0,9.435,6.394,9.435,13.961
			c0,7.567-4.321,13.961-9.435,13.961s-9.435-6.394-9.435-13.961C377.407,210.354,381.727,203.961,386.841,203.961z"/>
	</g>
</g>
<g>
</g>
<g>
</g>
<g>
</g>
<g>
</g>
<g>
</g>
<g>
</g>
<g>
</g>
<g>
</g>
<g>
</g>
<g>
</g>
<g>
</g>
<g>
</g>
<g>
</g>
<g>
</g>
<g>
</g>
</svg>
