<?xml version="1.0" encoding="iso-8859-1"?>
<!-- Generator: Adobe Illustrator 21.0.0, SVG Export Plug-In . SVG Version: 6.00 Build 0)  -->
<svg version="1.1" id="Capa_1" xmlns="http://www.w3.org/2000/svg" xmlns:xlink="http://www.w3.org/1999/xlink" x="0px" y="0px"
	 viewBox="0 0 506.548 506.548" style="enable-background:new 0 0 506.548 506.548;" xml:space="preserve">
<g>
	<g>
		<path style="fill:#9A9999;" d="M267.506,7.5h-28.464c-8.284,0-15,6.716-15,15v104.653c0,8.284,6.716,15,15,15h28.464
			c8.284,0,15-6.716,15-15V22.5C282.506,14.216,275.79,7.5,267.506,7.5z"/>
	</g>
	<g>
		<path style="fill:#696867;" d="M267.367,7.5h-27.959c-0.391,0-0.775,0.029-1.159,0.058c7.818,0.589,13.98,7.045,13.98,14.942
			v104.653c0,7.897-6.162,14.354-13.98,14.942c0.384,0.029,0.768,0.058,1.159,0.058h27.959c8.361,0,15.139-6.716,15.139-15V22.5
			C282.506,14.216,275.728,7.5,267.367,7.5z"/>
	</g>
	<g>
		<path style="fill:#FFF4F1;" d="M467.254,499.048H39.294c-15.95,0-29-13.05-29-29V181.759c0-15.95,13.05-29,29-29h427.96
			c15.95,0,29,13.05,29,29v288.289C496.254,485.998,483.204,499.048,467.254,499.048z"/>
	</g>
	<g>
		<path style="fill:#DBDEDF;" d="M467.254,152.759h-30c15.95,0,29,13.05,29,29v288.289c0,15.95-13.05,29-29,29h30
			c15.95,0,29-13.05,29-29V181.759C496.254,165.809,483.204,152.759,467.254,152.759z"/>
	</g>
	<g>
		<path style="fill:#B4B4B4;" d="M267.506,187.693h-28.464c-8.284,0-15-6.716-15-15v-55.039c0-8.284,6.716-15,15-15h28.464
			c8.284,0,15,6.716,15,15v55.039C282.506,180.977,275.79,187.693,267.506,187.693z"/>
	</g>
	<g>
		<path style="fill:#9A9999;" d="M267.506,102.655h-28.464c-0.259,0-0.512,0.026-0.768,0.039
			c7.925,0.402,14.232,6.936,14.232,14.961v55.039c0,8.025-6.307,14.559-14.232,14.961c0.256,0.013,0.509,0.039,0.768,0.039h28.464
			c8.284,0,15-6.716,15-15v-55.039C282.506,109.37,275.791,102.655,267.506,102.655z"/>
	</g>
	<g>
		<g>
			<path style="fill:#F7EC77;" d="M109.871,310.565c17.771,0,33.235,9.36,41.247,23.174c10.433-10.594,16.862-25.001,16.862-40.887
				c0-32.53-26.908-58.901-60.101-58.901s-60.101,26.371-60.101,58.901c0,17.257,7.574,32.779,19.64,43.552
				c0.281-0.862,0.659-1.716,1.142-2.554C76.551,319.974,92.052,310.565,109.871,310.565z"/>
		</g>
		<g>
			<g>
				<path style="fill:#F9CD45;" d="M107.878,233.951c-2.909,0-5.767,0.207-8.566,0.598c29.135,4.075,51.536,28.623,51.536,58.303
					c0,11.009-3.089,21.306-8.457,30.117c3.451,3.137,6.403,6.764,8.727,10.77c10.433-10.594,16.862-25.001,16.862-40.887
					C167.98,260.322,141.071,233.951,107.878,233.951z"/>
			</g>
		</g>
		<g>
			<path style="fill:#FFF4F1;" d="M151.118,333.739c-8.012-13.814-23.475-23.174-41.247-23.174c-17.819,0-33.32,9.409-41.313,23.285
				c-0.483,0.838-0.86,1.692-1.142,2.554c10.679,9.535,24.877,15.349,40.462,15.349
				C124.861,351.753,140.187,344.839,151.118,333.739z"/>
		</g>
		<g>
			<path style="fill:#DBDEDF;" d="M109.871,310.565c-2.926,0-5.788,0.259-8.566,0.744c9.579,1.674,18.143,6.103,24.747,12.392
				c5.295,5.042,4.671,13.699-1.399,17.774c-7.425,4.985-16.047,8.38-25.36,9.681c2.804,0.393,5.67,0.597,8.585,0.597
				c16.983,0,32.309-6.914,43.24-18.014C143.106,319.925,127.643,310.565,109.871,310.565z"/>
		</g>
		<g>
			<ellipse style="fill:#FFD4C6;" cx="108.962" cy="273.811" rx="14.084" ry="17.848"/>
		</g>
		<g>
			<g>
				<path style="fill:#FC9086;" d="M253.446,310.565c17.771,0,33.235,9.36,41.247,23.174c10.433-10.594,16.862-25.001,16.862-40.887
					c0-32.53-26.908-58.901-60.101-58.901s-60.101,26.371-60.101,58.901c0,17.257,7.574,32.779,19.64,43.552
					c0.281-0.862,0.659-1.716,1.142-2.554C220.126,319.974,235.627,310.565,253.446,310.565z"/>
			</g>
			<g>
				<g>
					<path style="fill:#F57A73;" d="M251.453,233.951c-2.909,0-5.767,0.207-8.566,0.598c29.135,4.075,51.536,28.623,51.536,58.303
						c0,11.009-3.089,21.306-8.457,30.117c3.451,3.137,6.403,6.764,8.727,10.77c10.433-10.594,16.862-25.001,16.862-40.887
						C311.554,260.322,284.646,233.951,251.453,233.951z"/>
				</g>
			</g>
			<g>
				<path style="fill:#FFF4F1;" d="M294.693,333.739c-8.012-13.814-23.475-23.174-41.247-23.174
					c-17.819,0-33.32,9.409-41.313,23.285c-0.483,0.838-0.86,1.692-1.142,2.554c10.679,9.535,24.877,15.349,40.462,15.349
					C268.436,351.753,283.762,344.839,294.693,333.739z"/>
			</g>
			<g>
				<path style="fill:#DBDEDF;" d="M253.446,310.565c-2.926,0-5.788,0.259-8.566,0.744c9.579,1.674,18.143,6.103,24.747,12.392
					c5.295,5.042,4.671,13.699-1.399,17.774c-7.425,4.985-16.047,8.38-25.36,9.681c2.804,0.393,5.671,0.597,8.585,0.597
					c16.983,0,32.309-6.914,43.24-18.014C286.681,319.925,271.217,310.565,253.446,310.565z"/>
			</g>
			<g>
				<ellipse style="fill:#FFD4C6;" cx="252.537" cy="273.811" rx="14.084" ry="17.848"/>
			</g>
		</g>
		<g>
			<g>
				<path style="fill:#ACEDED;" d="M397.591,310.565c17.771,0,33.235,9.36,41.247,23.174c10.433-10.594,16.862-25.001,16.862-40.887
					c0-32.53-26.908-58.901-60.101-58.901s-60.101,26.371-60.101,58.901c0,17.257,7.574,32.779,19.64,43.552
					c0.281-0.862,0.659-1.716,1.142-2.554C364.271,319.974,379.772,310.565,397.591,310.565z"/>
			</g>
			<g>
				<g>
					<path style="fill:#66D6E6;" d="M395.598,233.951c-2.909,0-5.767,0.207-8.566,0.598c29.135,4.075,51.536,28.623,51.536,58.303
						c0,11.009-3.089,21.306-8.457,30.117c3.451,3.137,6.403,6.764,8.727,10.77c10.433-10.594,16.862-25.001,16.862-40.887
						C455.699,260.322,428.791,233.951,395.598,233.951z"/>
				</g>
			</g>
			<g>
				<path style="fill:#FFF4F1;" d="M438.838,333.739c-8.012-13.814-23.475-23.174-41.247-23.174
					c-17.819,0-33.32,9.409-41.313,23.285c-0.483,0.838-0.86,1.692-1.142,2.554c10.679,9.535,24.877,15.349,40.462,15.349
					C412.581,351.753,427.907,344.839,438.838,333.739z"/>
			</g>
			<g>
				<path style="fill:#DBDEDF;" d="M397.591,310.565c-2.926,0-5.788,0.259-8.566,0.744c9.579,1.674,18.143,6.103,24.747,12.392
					c5.295,5.042,4.671,13.699-1.399,17.774c-7.425,4.985-16.047,8.38-25.36,9.681c2.804,0.393,5.671,0.597,8.585,0.597
					c16.983,0,32.309-6.914,43.24-18.014C430.826,319.925,415.362,310.565,397.591,310.565z"/>
			</g>
			<g>
				<ellipse style="fill:#FFD4C6;" cx="396.682" cy="273.811" rx="14.084" ry="17.848"/>
			</g>
		</g>
	</g>
	<g>
		<path d="M251.453,359.253c17.997,0,34.827-6.845,47.574-19.276v-0.132c0.356-0.253,0.698-0.527,1.009-0.844
			c12.265-12.455,19.019-28.844,19.019-46.149c0-36.614-30.326-66.401-67.602-66.401s-67.602,29.788-67.602,66.401
			c0,18.669,8.072,36.582,22.146,49.146c0.204,0.182,0.419,0.348,0.639,0.505v0.04C219.01,353.318,234.885,359.253,251.453,359.253z
			 M220.641,334.514c0.149-0.208,0.297-0.416,0.45-0.62c0.25-0.334,0.502-0.668,0.763-0.993c0.233-0.291,0.474-0.573,0.716-0.857
			c0.326-0.381,0.653-0.762,0.993-1.13c7.432-8.063,18.272-12.849,29.884-12.849c9.736,0,18.935,3.376,26.038,9.223h-0.011
			c0.458,0.376,0.907,0.764,1.348,1.159c0.063,0.057,0.127,0.115,0.19,0.172c0.405,0.368,0.803,0.742,1.192,1.126
			c0.472,0.47,0.938,0.945,1.385,1.44c0.105,0.116,0.203,0.239,0.307,0.356c0.306,0.347,0.6,0.705,0.893,1.064
			c-9.375,7.55-21.004,11.648-33.335,11.648C240.307,344.253,229.567,340.828,220.641,334.514z M198.852,292.852
			c0-28.343,23.597-51.401,52.602-51.401c29.005,0,52.602,23.059,52.602,51.401c0,10.34-3.138,20.267-8.964,28.693
			c-10.261-11.587-25.442-18.48-41.645-18.48c-17.366,0-33.541,7.906-43.76,21.02C202.724,315.179,198.852,304.191,198.852,292.852z
			"/>
		<path d="M252.537,299.16c11.901,0,21.584-11.372,21.584-25.349s-9.683-25.349-21.584-25.349
			c-11.902,0-21.584,11.372-21.584,25.349S240.635,299.16,252.537,299.16z M252.537,263.463c3.114,0,6.584,4.25,6.584,10.349
			s-3.47,10.349-6.584,10.349s-6.584-4.25-6.584-10.349S249.423,263.463,252.537,263.463z"/>
		<path d="M395.598,226.451c-37.275,0-67.601,29.788-67.601,66.401c0,17.237,6.894,33.82,19.026,46.153
			c-0.03,0.043-0.054,0.09-0.084,0.133l3.203,2.86c12.462,11.126,28.605,17.254,45.456,17.254c18.469,0,35.723-7.192,48.584-20.251
			l1.438-1.46c-0.01-0.014-0.019-0.028-0.029-0.041c11.361-12.257,17.609-28.025,17.609-44.648
			C463.199,256.238,432.873,226.451,395.598,226.451z M395.598,241.451c29.005,0,52.602,23.059,52.602,51.401
			c0,10.341-3.137,20.267-8.963,28.693c-10.262-11.588-25.443-18.48-41.646-18.48c-17.366,0-33.541,7.906-43.759,21.02
			c-6.963-8.905-10.835-19.894-10.835-31.233C342.997,264.509,366.594,241.451,395.598,241.451z M364.787,334.514
			c0.233-0.325,0.461-0.654,0.704-0.971c0.084-0.109,0.164-0.223,0.249-0.331c0.427-0.544,0.873-1.071,1.328-1.59
			c0.223-0.253,0.45-0.502,0.68-0.749c0.245-0.265,0.496-0.524,0.748-0.781c0.244-0.248,0.484-0.499,0.734-0.741h-0.009
			c7.352-7.117,17.527-11.286,28.371-11.286c10.595,0,20.553,3.997,27.866,10.827h-0.015c0.576,0.537,1.136,1.092,1.683,1.659
			c0.07,0.074,0.142,0.145,0.211,0.219c0.397,0.42,0.773,0.859,1.15,1.298c0.151,0.177,0.302,0.355,0.449,0.535
			c-9.375,7.55-21.005,11.648-33.336,11.648C384.452,344.253,373.712,340.828,364.787,334.514z"/>
		<path d="M396.682,299.16c11.901,0,21.584-11.372,21.584-25.349s-9.683-25.349-21.584-25.349s-21.584,11.372-21.584,25.349
			S384.78,299.16,396.682,299.16z M396.682,263.463c3.114,0,6.584,4.25,6.584,10.349s-3.47,10.349-6.584,10.349
			s-6.584-4.25-6.584-10.349S393.567,263.463,396.682,263.463z"/>
		<path d="M107.878,226.451c-37.275,0-67.602,29.788-67.602,66.401c0,18.253,7.732,35.77,21.23,48.286
			c-0.006,0.009-0.012,0.019-0.018,0.028l0.933,0.833c12.462,11.126,28.606,17.254,45.457,17.254
			c18.469,0,35.723-7.192,48.583-20.251l1.492-1.516c-0.011-0.013-0.021-0.027-0.033-0.04c11.33-12.249,17.558-27.995,17.558-44.594
			C175.479,256.238,145.154,226.451,107.878,226.451z M55.277,292.852c0-28.343,23.597-51.401,52.602-51.401
			s52.601,23.059,52.601,51.401c0,10.341-3.137,20.267-8.963,28.693c-10.261-11.588-25.442-18.48-41.645-18.48
			c-17.366,0-33.541,7.906-43.76,21.02C59.149,315.179,55.277,304.191,55.277,292.852z M77.067,334.514
			c0.14-0.195,0.278-0.39,0.421-0.581c0.282-0.378,0.569-0.753,0.865-1.12c0.241-0.299,0.488-0.592,0.737-0.882
			c0.34-0.395,0.686-0.785,1.041-1.166c0.218-0.234,0.439-0.464,0.663-0.692c0.419-0.427,0.847-0.845,1.286-1.251
			c0.177-0.165,0.355-0.328,0.535-0.489c0.504-0.45,1.019-0.888,1.547-1.311c7.056-5.68,16.115-8.956,25.709-8.956
			c8.948,0,17.446,2.849,24.278,7.847h-0.021c1.219,0.889,2.38,1.851,3.487,2.871c0.119,0.111,0.243,0.216,0.361,0.328
			c0.378,0.357,0.74,0.731,1.103,1.104c0.247,0.255,0.499,0.506,0.739,0.769c0.277,0.301,0.542,0.614,0.81,0.925
			c0.198,0.23,0.393,0.462,0.585,0.696c-9.375,7.55-21.004,11.649-33.335,11.649C96.732,344.253,85.992,340.829,77.067,334.514z"/>
		<path d="M108.962,299.16c11.901,0,21.584-11.372,21.584-25.349s-9.683-25.349-21.584-25.349
			c-11.902,0-21.584,11.372-21.584,25.349S97.06,299.16,108.962,299.16z M108.962,263.463c3.114,0,6.584,4.25,6.584,10.349
			s-3.47,10.349-6.584,10.349s-6.584-4.25-6.584-10.349S105.848,263.463,108.962,263.463z"/>
		<path d="M242.676,491.548H39.294c-11.855,0-21.5-9.645-21.5-21.5v-288.29c0-11.855,9.645-21.5,21.5-21.5h38.836
			c4.142,0,7.5-3.358,7.5-7.5s-3.358-7.5-7.5-7.5H39.294c-20.126,0-36.5,16.374-36.5,36.5v288.29c0,20.126,16.374,36.5,36.5,36.5
			h203.381c4.142,0,7.5-3.358,7.5-7.5S246.818,491.548,242.676,491.548z"/>
		<path d="M467.254,145.259H290.006v-27.604c0-0.393-0.01-0.784-0.031-1.172h0.031V22.5c0-12.407-10.182-22.5-22.697-22.5H239.24
			c-12.516,0-22.698,10.093-22.698,22.5v95.155v27.604H108.131c-4.142,0-7.5,3.358-7.5,7.5s3.358,7.5,7.5,7.5h108.411v12.434
			c0,12.407,10.093,22.5,22.5,22.5h28.464c12.406,0,22.5-10.093,22.5-22.5v-12.434h177.248c11.855,0,21.5,9.645,21.5,21.5v288.29
			c0,11.855-9.645,21.5-21.5,21.5H272.676c-4.143,0-7.5,3.358-7.5,7.5s3.357,7.5,7.5,7.5h194.578c20.126,0,36.5-16.374,36.5-36.5
			v-288.29C503.754,161.633,487.38,145.259,467.254,145.259z M239.24,15h28.068c4.244,0,7.697,3.364,7.697,7.5v73.945
			c-2.347-0.833-4.871-1.29-7.5-1.29h-28.464c-2.629,0-5.153,0.458-7.5,1.29V22.5C231.542,18.364,234.996,15,239.24,15z
			 M275.006,172.693c0,4.136-3.364,7.5-7.5,7.5h-28.464c-4.136,0-7.5-3.364-7.5-7.5v-55.038c0-4.136,3.364-7.5,7.5-7.5h28.464
			c4.136,0,7.5,3.364,7.5,7.5V172.693z"/>
		<path d="M48.208,392.747c0,4.142,3.358,7.5,7.5,7.5h394.48c4.143,0,7.5-3.358,7.5-7.5s-3.357-7.5-7.5-7.5H55.708
			C51.565,385.247,48.208,388.605,48.208,392.747z"/>
		<path d="M55.708,422.745c-4.142,0-7.5,3.358-7.5,7.5s3.358,7.5,7.5,7.5h149.612c4.142,0,7.5-3.358,7.5-7.5s-3.358-7.5-7.5-7.5
			H55.708z"/>
		<path d="M450.188,422.745H300.576c-4.143,0-7.5,3.358-7.5,7.5s3.357,7.5,7.5,7.5h149.611c4.143,0,7.5-3.358,7.5-7.5
			S454.33,422.745,450.188,422.745z"/>
	</g>
</g>
<g>
</g>
<g>
</g>
<g>
</g>
<g>
</g>
<g>
</g>
<g>
</g>
<g>
</g>
<g>
</g>
<g>
</g>
<g>
</g>
<g>
</g>
<g>
</g>
<g>
</g>
<g>
</g>
<g>
</g>
</svg>
