<?xml version="1.0" encoding="iso-8859-1"?>
<!-- Generator: Adobe Illustrator 21.0.0, SVG Export Plug-In . SVG Version: 6.00 Build 0)  -->
<svg version="1.1" id="Capa_1" xmlns="http://www.w3.org/2000/svg" xmlns:xlink="http://www.w3.org/1999/xlink" x="0px" y="0px"
	 viewBox="0 0 502.104 502.104" style="enable-background:new 0 0 502.104 502.104;" xml:space="preserve">
<g>
	<g>
		<path style="fill:#FFEC56;" d="M254.36,108.246V72.06c0-15.95-13.05-29-29-29H36.5c-15.95,0-29,13.05-29,29v36.185H254.36z"/>
	</g>
	<g>
		<path style="fill:#F9CD45;" d="M225.36,43.06h-30c15.95,0,29,13.05,29,29v36.185h30V72.06C254.36,56.11,241.31,43.06,225.36,43.06
			z"/>
	</g>
	<g>
		<path style="fill:#FFEC56;" d="M465.605,459.044H36.745c-15.95,0-29-13.05-29-29V110.035c0-15.95,13.05-29,29-29h428.86
			c15.95,0,29,13.05,29,29v320.009C494.605,445.994,481.555,459.044,465.605,459.044z"/>
	</g>
	<g>
		<path style="fill:#F9CD45;" d="M465.605,81.035h-30c15.95,0,29,13.05,29,29v320.009c0,15.95-13.05,29-29,29h30
			c15.95,0,29-13.05,29-29V110.035C494.605,94.085,481.555,81.035,465.605,81.035z"/>
	</g>
	<g>
		<path style="fill:#F8B53C;" d="M7.745,408.509v21.535c0,15.95,13.05,29,29,29h428.86c15.95,0,29-13.05,29-29v-21.535H7.745z"/>
	</g>
	<g>
		<path style="fill:#DC8839;" d="M464.605,408.509v21.535c0,15.95-13.05,29-29,29h30c15.95,0,29-13.05,29-29v-21.535H464.605z"/>
	</g>
	<g>
		<path style="fill:#FFF4F1;" d="M367.397,191.844H134.952c-6.551,0-11.911-5.36-11.911-11.911v-40.802
			c0-6.551,5.36-11.911,11.911-11.911h232.445c6.551,0,11.911,5.36,11.911,11.911v40.802
			C379.308,186.484,373.948,191.844,367.397,191.844z"/>
	</g>
	<g>
		<g>
			<path style="fill:#F7EC77;" d="M109.308,313.558c17.771,0,33.235,9.36,41.247,23.174c10.433-10.594,16.862-25.001,16.862-40.887
				c0-32.53-26.908-58.901-60.101-58.901s-60.101,26.371-60.101,58.901c0,17.257,7.574,32.779,19.64,43.552
				c0.281-0.862,0.659-1.716,1.142-2.554C75.988,322.967,91.488,313.558,109.308,313.558z"/>
		</g>
		<g>
			<g>
				<path style="fill:#F9CD45;" d="M107.315,236.943c-2.909,0-5.767,0.207-8.566,0.598c29.135,4.075,51.536,28.623,51.536,58.303
					c0,11.009-3.089,21.306-8.457,30.117c3.451,3.137,6.403,6.764,8.727,10.77c10.433-10.594,16.862-25.001,16.862-40.887
					C167.416,263.314,140.508,236.943,107.315,236.943z"/>
			</g>
		</g>
		<g>
			<path style="fill:#FFF4F1;" d="M150.554,336.732c-8.012-13.814-23.475-23.174-41.247-23.174c-17.819,0-33.32,9.409-41.313,23.285
				c-0.483,0.838-0.86,1.692-1.142,2.554c10.679,9.535,24.877,15.349,40.462,15.349
				C124.298,354.746,139.624,347.831,150.554,336.732z"/>
		</g>
		<g>
			<path style="fill:#DBDEDF;" d="M109.308,313.558c-2.926,0-5.788,0.259-8.566,0.744c9.579,1.674,18.143,6.103,24.747,12.392
				c5.295,5.042,4.671,13.699-1.399,17.774c-7.425,4.985-16.047,8.38-25.36,9.681c2.804,0.393,5.67,0.597,8.585,0.597
				c16.983,0,32.309-6.914,43.24-18.014C142.542,322.917,127.079,313.558,109.308,313.558z"/>
		</g>
		<g>
			<ellipse style="fill:#FFD4C6;" cx="108.398" cy="276.804" rx="14.084" ry="17.848"/>
		</g>
		<g>
			<g>
				<path style="fill:#FC9086;" d="M252.883,313.558c17.771,0,33.235,9.36,41.247,23.174c10.433-10.594,16.862-25.001,16.862-40.887
					c0-32.53-26.908-58.901-60.101-58.901s-60.101,26.371-60.101,58.901c0,17.257,7.574,32.779,19.64,43.552
					c0.281-0.862,0.659-1.716,1.141-2.554C219.563,322.967,235.063,313.558,252.883,313.558z"/>
			</g>
			<g>
				<g>
					<path style="fill:#F57A73;" d="M250.89,236.943c-2.909,0-5.767,0.207-8.566,0.598c29.135,4.075,51.536,28.623,51.536,58.303
						c0,11.009-3.089,21.306-8.457,30.117c3.451,3.137,6.403,6.764,8.727,10.77c10.433-10.594,16.862-25.001,16.862-40.887
						C310.991,263.314,284.083,236.943,250.89,236.943z"/>
				</g>
			</g>
			<g>
				<path style="fill:#FFF4F1;" d="M294.129,336.732c-8.012-13.814-23.475-23.174-41.247-23.174
					c-17.819,0-33.32,9.409-41.313,23.285c-0.483,0.838-0.86,1.692-1.141,2.554c10.679,9.535,24.877,15.349,40.462,15.349
					C267.873,354.746,283.199,347.831,294.129,336.732z"/>
			</g>
			<g>
				<path style="fill:#DBDEDF;" d="M252.883,313.558c-2.926,0-5.788,0.259-8.566,0.744c9.579,1.674,18.143,6.103,24.747,12.392
					c5.295,5.042,4.671,13.699-1.399,17.774c-7.425,4.985-16.047,8.38-25.36,9.681c2.804,0.393,5.67,0.597,8.585,0.597
					c16.983,0,32.309-6.914,43.24-18.014C286.117,322.917,270.654,313.558,252.883,313.558z"/>
			</g>
			<g>
				<ellipse style="fill:#FFD4C6;" cx="251.973" cy="276.804" rx="14.084" ry="17.848"/>
			</g>
		</g>
		<g>
			<g>
				<path style="fill:#ACEDED;" d="M397.028,313.558c17.771,0,33.235,9.36,41.247,23.174c10.433-10.594,16.862-25.001,16.862-40.887
					c0-32.53-26.908-58.901-60.101-58.901s-60.101,26.371-60.101,58.901c0,17.257,7.574,32.779,19.64,43.552
					c0.281-0.862,0.659-1.716,1.141-2.554C363.708,322.967,379.208,313.558,397.028,313.558z"/>
			</g>
			<g>
				<g>
					<path style="fill:#66D6E6;" d="M395.035,236.943c-2.909,0-5.767,0.207-8.566,0.598c29.135,4.075,51.536,28.623,51.536,58.303
						c0,11.009-3.089,21.306-8.457,30.117c3.451,3.137,6.403,6.764,8.727,10.77c10.433-10.594,16.862-25.001,16.862-40.887
						C455.136,263.314,428.228,236.943,395.035,236.943z"/>
				</g>
			</g>
			<g>
				<path style="fill:#FFF4F1;" d="M438.274,336.732c-8.012-13.814-23.475-23.174-41.247-23.174
					c-17.819,0-33.32,9.409-41.313,23.285c-0.483,0.838-0.86,1.692-1.141,2.554c10.679,9.535,24.877,15.349,40.462,15.349
					C412.018,354.746,427.344,347.831,438.274,336.732z"/>
			</g>
			<g>
				<path style="fill:#DBDEDF;" d="M397.028,313.558c-2.926,0-5.788,0.259-8.566,0.744c9.579,1.674,18.143,6.103,24.747,12.392
					c5.295,5.042,4.671,13.699-1.399,17.774c-7.425,4.985-16.047,8.38-25.36,9.681c2.804,0.393,5.671,0.597,8.585,0.597
					c16.983,0,32.309-6.914,43.24-18.014C430.262,322.917,414.799,313.558,397.028,313.558z"/>
			</g>
			<g>
				<ellipse style="fill:#FFD4C6;" cx="396.118" cy="276.804" rx="14.084" ry="17.848"/>
			</g>
		</g>
	</g>
	<g>
		<path d="M250.89,229.443c-37.275,0-67.602,29.788-67.602,66.401c0,18.668,8.071,36.581,22.145,49.146
			c0.084,0.075,0.173,0.14,0.26,0.211v0.01c12.427,10.983,28.462,17.033,45.198,17.033c18.466,0,35.717-7.189,48.575-20.244
			c0.002-0.002,0.005-0.005,0.008-0.007c0.003-0.003,0.006-0.007,0.01-0.01l1.322-1.343c-0.007-0.014-0.016-0.027-0.023-0.041
			c11.425-12.272,17.71-28.083,17.71-44.756C318.491,259.231,288.165,229.443,250.89,229.443z M198.288,295.845
			c0-28.343,23.597-51.401,52.602-51.401s52.602,23.059,52.602,51.401c0,10.341-3.138,20.268-8.964,28.693
			c-10.261-11.588-25.442-18.48-41.645-18.48c-17.366,0-33.542,7.906-43.76,21.02C202.16,318.171,198.288,307.184,198.288,295.845z
			 M220.078,337.506c0.161-0.224,0.32-0.45,0.486-0.67c0.221-0.291,0.437-0.588,0.667-0.871c0.008-0.01,0.017-0.02,0.025-0.03
			c0.399-0.491,0.81-0.971,1.229-1.444h-0.023c7.441-8.419,18.528-13.433,30.421-13.433c9.828,0,19.111,3.436,26.24,9.384
			c0.249,0.208,0.492,0.422,0.736,0.636c0.354,0.311,0.704,0.628,1.046,0.952c0.203,0.191,0.407,0.381,0.606,0.577
			c0.528,0.521,1.046,1.053,1.543,1.604c0.064,0.071,0.125,0.147,0.188,0.219c0.338,0.38,0.659,0.775,0.981,1.169
			c-9.375,7.549-21.004,11.648-33.335,11.648C239.744,347.246,229.004,343.821,220.078,337.506z"/>
		<path d="M251.974,302.153c11.901,0,21.584-11.372,21.584-25.349s-9.683-25.349-21.584-25.349
			c-11.902,0-21.585,11.372-21.585,25.349S240.071,302.153,251.974,302.153z M251.974,266.456c3.114,0,6.584,4.25,6.584,10.349
			s-3.47,10.349-6.584,10.349s-6.585-4.25-6.585-10.349S248.859,266.456,251.974,266.456z"/>
		<path d="M395.035,229.443c-37.275,0-67.602,29.788-67.602,66.401c0,18.474,7.914,36.2,21.716,48.743v0.021l0.429,0.383
			c12.462,11.126,28.605,17.254,45.457,17.254c18.469,0,35.723-7.192,48.583-20.251l1.781-1.809
			c-0.015-0.014-0.03-0.028-0.045-0.042c11.156-12.206,17.281-27.834,17.281-44.3C462.636,259.231,432.311,229.443,395.035,229.443z
			 M342.434,295.845c0-28.343,23.597-51.401,52.602-51.401c29.004,0,52.601,23.059,52.601,51.401
			c0,10.341-3.137,20.267-8.963,28.693c-10.261-11.586-25.444-18.48-41.646-18.48c-17.366,0-33.541,7.906-43.759,21.02
			C346.306,318.172,342.434,307.184,342.434,295.845z M364.223,337.506c0.25-0.349,0.495-0.704,0.757-1.044
			c0.058-0.075,0.113-0.153,0.171-0.228c0.433-0.554,0.889-1.09,1.351-1.618c0.186-0.211,0.373-0.421,0.563-0.628
			c0.353-0.386,0.716-0.762,1.085-1.133c0.1-0.1,0.196-0.205,0.297-0.304h-0.006c7.367-7.245,17.636-11.494,28.585-11.494
			c9.443,0,18.376,3.18,25.387,8.704c0.508,0.399,1.008,0.807,1.495,1.229c0.048,0.042,0.094,0.087,0.141,0.129
			c0.672,0.588,1.317,1.206,1.946,1.839c0.374,0.379,0.749,0.757,1.108,1.151c0.175,0.192,0.34,0.392,0.511,0.588
			c0.257,0.295,0.507,0.596,0.755,0.9c-9.375,7.55-21.005,11.648-33.335,11.648C383.888,347.246,373.148,343.821,364.223,337.506z"
			/>
		<path d="M396.118,302.153c11.901,0,21.584-11.372,21.584-25.349s-9.683-25.349-21.584-25.349s-21.584,11.372-21.584,25.349
			S384.217,302.153,396.118,302.153z M396.118,266.456c3.114,0,6.584,4.25,6.584,10.349s-3.47,10.349-6.584,10.349
			s-6.584-4.25-6.584-10.349S393.004,266.456,396.118,266.456z"/>
		<path d="M107.314,229.443c-37.275,0-67.601,29.788-67.601,66.401c0,17.889,7.427,35.071,20.428,47.53
			c-0.009,0.019-0.02,0.038-0.029,0.057l1.746,1.559c12.462,11.126,28.605,17.254,45.456,17.254c18.47,0,35.724-7.192,48.584-20.251
			l2.601-2.641c-0.019-0.034-0.038-0.069-0.057-0.104c10.645-12.071,16.473-27.34,16.473-43.405
			C174.916,259.231,144.59,229.443,107.314,229.443z M54.714,295.845c0-28.343,23.597-51.401,52.601-51.401
			c29.005,0,52.602,23.059,52.602,51.401c0,10.341-3.137,20.267-8.963,28.693c-10.262-11.588-25.443-18.48-41.646-18.48
			c-17.366,0-33.541,7.906-43.759,21.021C58.586,318.172,54.714,307.184,54.714,295.845z M76.503,337.506
			c0.115-0.16,0.23-0.321,0.347-0.479c0.391-0.528,0.796-1.045,1.214-1.551c0.2-0.242,0.398-0.485,0.603-0.722
			c0.542-0.624,1.103-1.23,1.685-1.816c0.088-0.089,0.171-0.183,0.26-0.271c1.454-1.438,3.022-2.758,4.686-3.952
			c6.784-4.877,15.171-7.657,24.009-7.657c10.436,0,20.252,3.881,27.533,10.525h-0.013c0.643,0.586,1.267,1.193,1.874,1.817
			c0.072,0.075,0.145,0.149,0.216,0.225c0.461,0.482,0.898,0.986,1.331,1.494c0.135,0.159,0.27,0.318,0.402,0.479
			c-9.375,7.55-21.005,11.648-33.336,11.648C96.169,347.246,85.429,343.821,76.503,337.506z"/>
		<path d="M108.398,302.153c11.901,0,21.584-11.372,21.584-25.349s-9.683-25.349-21.584-25.349s-21.584,11.372-21.584,25.349
			S96.497,302.153,108.398,302.153z M108.398,266.456c3.114,0,6.584,4.25,6.584,10.349s-3.47,10.349-6.584,10.349
			s-6.584-4.25-6.584-10.349S105.284,266.456,108.398,266.456z"/>
		<path d="M465.604,73.535H351.056c-4.143,0-7.5,3.358-7.5,7.5s3.357,7.5,7.5,7.5h114.549c11.855,0,21.5,9.645,21.5,21.5v290.974
			h-336.55c-4.143,0-7.5,3.358-7.5,7.5s3.357,7.5,7.5,7.5h336.55v14.035c0,11.855-9.645,21.5-21.5,21.5H36.745
			c-11.855,0-21.5-9.645-21.5-21.5v-14.035h105.31c4.143,0,7.5-3.358,7.5-7.5s-3.357-7.5-7.5-7.5H15.245V110.035
			c0-11.855,9.645-21.5,21.5-21.5h284.311c4.143,0,7.5-3.358,7.5-7.5s-3.357-7.5-7.5-7.5h-59.342
			c0.095-0.477,0.147-0.97,0.147-1.475c0-20.126-16.374-36.5-36.5-36.5H36.5c-20.126,0-36.5,16.374-36.5,36.5v36.185
			c0,0.648,0.091,1.273,0.245,1.872v298.391v21.535c0,20.126,16.374,36.5,36.5,36.5h428.859c20.126,0,36.5-16.374,36.5-36.5v-21.535
			V110.035C502.104,89.909,485.73,73.535,465.604,73.535z M36.5,50.561h188.86c11.855,0,21.5,9.645,21.5,21.5
			c0,0.505,0.052,0.998,0.147,1.475H36.745c-8.141,0-15.667,2.681-21.745,7.204v-8.679C15,60.206,24.645,50.561,36.5,50.561z"/>
		<path d="M367.397,119.72H134.952c-10.703,0-19.411,8.708-19.411,19.411v40.802c0,10.703,8.708,19.411,19.411,19.411h232.445
			c10.703,0,19.411-8.708,19.411-19.411v-40.802C386.809,128.428,378.101,119.72,367.397,119.72z M371.809,179.933
			c0,2.391-2.021,4.411-4.411,4.411H134.952c-2.391,0-4.411-2.02-4.411-4.411v-40.802c0-2.391,2.021-4.411,4.411-4.411h232.445
			c2.391,0,4.411,2.02,4.411,4.411V179.933z"/>
		<path d="M341.339,152.46H156.124c-4.143,0-7.5,3.358-7.5,7.5s3.357,7.5,7.5,7.5h185.215c4.143,0,7.5-3.358,7.5-7.5
			S345.481,152.46,341.339,152.46z"/>
	</g>
</g>
<g>
</g>
<g>
</g>
<g>
</g>
<g>
</g>
<g>
</g>
<g>
</g>
<g>
</g>
<g>
</g>
<g>
</g>
<g>
</g>
<g>
</g>
<g>
</g>
<g>
</g>
<g>
</g>
<g>
</g>
</svg>
