<?xml version="1.0" encoding="iso-8859-1"?>
<!-- Generator: Adobe Illustrator 21.0.0, SVG Export Plug-In . SVG Version: 6.00 Build 0)  -->
<svg version="1.1" id="Capa_1" xmlns="http://www.w3.org/2000/svg" xmlns:xlink="http://www.w3.org/1999/xlink" x="0px" y="0px"
	 viewBox="0 0 508.253 508.253" style="enable-background:new 0 0 508.253 508.253;" xml:space="preserve">
<g>
	<g>
		<path style="fill:#FFF4F1;" d="M174.425,97.045H41.932c-18.937,0-34.432,15.494-34.432,34.432v0
			c0,18.937,15.494,34.432,34.432,34.432h37.648c1.207,0,2.323,0.644,2.927,1.69l6.917,11.981c4.539,7.862,15.887,7.862,20.426,0
			l6.917-11.981c0.604-1.046,1.719-1.69,2.927-1.69h54.731c18.937,0,34.432-15.494,34.432-34.432v0
			C208.857,112.539,193.362,97.045,174.425,97.045z"/>
	</g>
	<g>
		<g>
			<path style="fill:#DBDEDF;" d="M174.425,97.045h-29.824c18.937,0,34.432,15.494,34.432,34.432v0
				c0,18.937-15.494,34.432-34.432,34.432h29.824c18.937,0,34.432-15.494,34.432-34.432v0
				C208.857,112.539,193.362,97.045,174.425,97.045z"/>
		</g>
	</g>
	<g>
		<path style="fill:#FFF4F1;" d="M466.321,97.045H333.828c-18.937,0-34.432,15.494-34.432,34.432v0
			c0,18.937,15.494,34.432,34.432,34.432h37.648c1.207,0,2.323,0.644,2.927,1.69l6.917,11.981c4.539,7.862,15.887,7.862,20.426,0
			l6.917-11.981c0.604-1.046,1.719-1.69,2.927-1.69h54.731c18.937,0,34.432-15.494,34.432-34.432v0
			C500.753,112.539,485.259,97.045,466.321,97.045z"/>
	</g>
	<g>
		<g>
			<path style="fill:#DBDEDF;" d="M466.321,97.045h-29.824c18.937,0,34.432,15.494,34.432,34.432v0
				c0,18.937-15.494,34.432-34.432,34.432h29.824c18.937,0,34.432-15.494,34.432-34.432v0
				C500.753,112.539,485.259,97.045,466.321,97.045z"/>
		</g>
	</g>
	<g>
		<path style="fill:#FFF4F1;" d="M436.833,50.253H69.783c-20.059,0-36.471,16.412-36.471,36.471v0
			c0,20.059,16.412,36.471,36.471,36.471h157.223l15.523,26.886c4.646,8.047,16.261,8.047,20.907,0l15.523-26.886h157.874
			c20.059,0,36.471-16.412,36.471-36.471v0C473.304,66.665,456.892,50.253,436.833,50.253z"/>
	</g>
	<g>
		<g>
			<path style="fill:#DBDEDF;" d="M436.833,50.253h-29.824c20.059,0,36.471,16.412,36.471,36.471v0
				c0,20.059-16.412,36.471-36.471,36.471h29.824c20.059,0,36.471-16.412,36.471-36.471v0
				C473.304,66.665,456.892,50.253,436.833,50.253z"/>
		</g>
	</g>
	<g>
		<path style="fill:#ACEDED;" d="M92.23,403.799c23.386,0,43.735,12.317,54.278,30.496c13.729-13.941,22.189-32.899,22.189-53.805
			c0-42.808-35.409-77.51-79.089-77.51s-79.089,34.702-79.089,77.51c0,22.709,9.967,43.135,25.845,57.312
			c0.37-1.134,0.867-2.259,1.502-3.361C48.384,416.181,68.781,403.799,92.23,403.799z"/>
	</g>
	<g>
		<path style="fill:#FFF4F1;" d="M146.508,434.294c-10.543-18.179-30.892-30.496-54.278-30.496
			c-23.449,0-43.847,12.382-54.365,30.642c-0.635,1.102-1.132,2.227-1.502,3.361c14.053,12.547,32.737,20.198,53.245,20.198
			C111.956,457.999,132.125,448.901,146.508,434.294z"/>
	</g>
	<g>
		<path style="fill:#D0CFD1;" d="M92.23,403.799c-6.316,0-12.406,0.906-18.146,2.575c9.064,2.637,17.245,7.194,24.015,13.175
			c8.215,7.257,7.202,20.318-2.074,26.159c-7.442,4.686-15.737,8.183-24.606,10.223c5.841,1.348,11.928,2.069,18.189,2.069
			c22.349,0,42.517-9.099,56.9-23.705C135.965,416.116,115.616,403.799,92.23,403.799z"/>
	</g>
	<g>
		<ellipse style="fill:#FFD4C6;" cx="91.034" cy="355.434" rx="18.534" ry="23.487"/>
	</g>
	<g>
		<path style="fill:#66D6E6;" d="M89.608,302.98c-6.247,0-12.316,0.732-18.146,2.074c34.93,8.04,60.943,38.751,60.943,75.436
			c0,11.548-2.592,22.495-7.217,32.337c8.877,5.315,16.239,12.708,21.319,21.468c13.729-13.942,22.189-32.899,22.189-53.805
			C168.697,337.682,133.288,302.98,89.608,302.98z"/>
	</g>
	<g>
		<path style="fill:#ACEDED;" d="M348.105,412.345c4.476,9.717,10.938,18.368,18.877,25.456c0.37-1.134,0.867-2.259,1.502-3.361
			c10.519-18.26,30.916-30.642,54.365-30.642c23.386,0,43.734,12.317,54.278,30.496c13.729-13.941,22.189-32.899,22.189-53.805
			c0-42.808-35.41-77.51-79.089-77.51c-19.345,0-37.068,6.807-50.811,18.11"/>
	</g>
	<g>
		<path style="fill:#ACEDED;" d="M369.415,321.089c-17.288,14.218-28.278,35.552-28.278,59.4c0,11.354,2.492,22.138,6.968,31.856"/>
	</g>
	<g>
		<path style="fill:#FFF4F1;" d="M477.126,434.294c-10.543-18.179-30.892-30.496-54.278-30.496
			c-23.449,0-43.847,12.382-54.365,30.642c-0.635,1.102-1.132,2.227-1.502,3.361c14.053,12.547,32.737,20.198,53.245,20.198
			C442.574,457.999,462.743,448.901,477.126,434.294z"/>
	</g>
	<g>
		<path style="fill:#D0CFD1;" d="M422.848,403.799c-6.316,0-12.406,0.906-18.146,2.575c9.064,2.637,17.245,7.194,24.015,13.175
			c8.215,7.257,7.202,20.318-2.074,26.159c-7.442,4.686-15.737,8.183-24.606,10.223c5.841,1.348,11.928,2.069,18.189,2.069
			c22.349,0,42.517-9.099,56.9-23.705C466.583,416.116,446.234,403.799,422.848,403.799z"/>
	</g>
	<g>
		<ellipse style="fill:#FFD4C6;" cx="421.652" cy="355.434" rx="18.534" ry="23.487"/>
	</g>
	<g>
		<path style="fill:#66D6E6;" d="M420.226,302.98c-6.247,0-12.316,0.732-18.146,2.074c34.93,8.04,60.944,38.751,60.944,75.436
			c0,11.548-2.592,22.495-7.217,32.337c8.877,5.315,16.239,12.708,21.319,21.468c13.729-13.942,22.189-32.899,22.189-53.805
			C499.315,337.682,463.906,302.98,420.226,302.98z"/>
	</g>
	<g>
		<path style="fill:#ACEDED;" d="M261.276,377.419c33.621,0,62.875,17.707,78.032,43.842c19.737-20.043,31.9-47.298,31.9-77.352
			c0-61.542-50.906-111.432-113.703-111.432s-113.702,49.89-113.702,111.432c0,32.647,14.328,62.013,37.155,82.394
			c0.532-1.63,1.247-3.247,2.16-4.832C198.24,395.22,227.565,377.419,261.276,377.419z"/>
	</g>
	<g>
		<path style="fill:#FFF4F1;" d="M339.308,421.261c-15.157-26.135-44.411-43.842-78.032-43.842
			c-33.711,0-63.036,17.801-78.158,44.052c-0.913,1.585-1.628,3.202-2.16,4.832c20.203,18.038,47.064,29.038,76.547,29.038
			C289.635,455.34,318.63,442.259,339.308,421.261z"/>
	</g>
	<g>
		<path style="fill:#D0CFD1;" d="M261.276,377.419c-5.045,0-9.989,0.405-14.805,1.171c-0.036,0.006-0.035,0.057,0.001,0.063
			c14.614,2.389,28.009,8.162,39.26,16.44c16.202,11.92,14.429,36.755-3.247,46.355c-12.065,6.553-25.474,11.018-39.721,12.894
			c-0.037,0.005-0.038,0.058-0.001,0.063c4.826,0.613,9.745,0.936,14.742,0.936c32.12,0,61.108-13.073,81.785-34.062
			c0.01-0.01,0.012-0.027,0.005-0.039C324.134,395.116,294.887,377.419,261.276,377.419z"/>
	</g>
	<g>
		<ellipse style="fill:#FFD4C6;" cx="259.556" cy="307.887" rx="26.645" ry="33.767"/>
	</g>
	<g>
		<path style="fill:#66D6E6;" d="M257.506,232.476c-8.981,0-17.707,1.052-26.087,2.981c50.216,11.559,87.615,55.71,87.615,108.45
			c0,16.601-3.726,32.34-10.375,46.49c12.762,7.642,23.346,18.269,30.65,30.863c19.737-20.043,31.9-47.298,31.9-77.352
			C371.208,282.366,320.302,232.476,257.506,232.476z"/>
	</g>
	<g>
		<path d="M91.034,324.446C76.679,324.446,65,338.347,65,355.434c0,17.086,11.679,30.987,26.034,30.987s26.034-13.901,26.034-30.987
			C117.067,338.347,105.389,324.446,91.034,324.446z M91.034,371.421C85.053,371.421,80,364.1,80,355.434
			c0-8.666,5.053-15.988,11.034-15.988s11.034,7.321,11.034,15.988C102.067,364.1,97.015,371.421,91.034,371.421z"/>
		<path d="M421.652,386.421c14.355,0,26.034-13.901,26.034-30.987c0-17.087-11.679-30.988-26.034-30.988
			s-26.034,13.901-26.034,30.988C395.618,372.52,407.297,386.421,421.652,386.421z M421.652,339.446
			c5.981,0,11.034,7.321,11.034,15.988c0,8.666-5.053,15.987-11.034,15.987s-11.034-7.321-11.034-15.987
			C410.618,346.768,415.671,339.446,421.652,339.446z"/>
		<path d="M420.226,295.48c-16.668,0-32.951,4.753-46.847,13.525c-15.235-48.6-61.415-84.028-115.873-84.028
			c-31.053,0-60.587,11.511-83.163,32.413c-3.04,2.814-3.222,7.559-0.408,10.599c2.813,3.04,7.559,3.222,10.599,0.408
			c19.795-18.327,45.71-28.419,72.973-28.419c58.56,0,106.202,46.624,106.202,103.932c0,23.901-8.271,46.699-23.466,65.127
			c-17.971-24.349-47.364-39.117-78.966-39.117c-33.665,0-64.782,16.729-82.303,43.945c-17.689-19.044-27.67-44.043-27.67-69.956
			c0-5.185,0.408-10.338,1.184-15.422c0.405-1.006,0.578-2.08,0.529-3.146c2.274-12.305,6.788-24.139,13.399-34.899
			c2.168-3.529,1.064-8.148-2.465-10.316c-3.529-2.169-8.148-1.065-10.316,2.465c-5.64,9.181-9.954,19.042-12.87,29.3
			c-14.753-10.65-32.505-16.409-51.157-16.409c-47.746,0-86.589,38.135-86.589,85.01c0,23.892,10.333,46.821,28.349,62.906
			c0.471,0.42,0.989,0.768,1.535,1.052c-0.055,0.037-0.109,0.079-0.165,0.115c15.771,13.502,35.885,20.935,56.87,20.935
			c23.665,0,45.77-9.213,62.244-25.942l4.014-4.076l-0.111-0.192c3.745-4.343,7.019-8.997,9.784-13.943
			c2.161,2.474,4.432,4.866,6.808,7.171l-0.038,0.117l3.655,3.264c22.35,19.954,51.309,30.943,81.542,30.943
			c33.135,0,64.084-12.898,87.146-36.317l1.692-1.718c3.409,5.478,7.425,10.555,12.038,15.169l-0.052,0.158l3.655,3.264
			c15.965,14.253,36.648,22.103,58.24,22.103c23.665,0,45.77-9.213,62.244-25.942l4.014-4.076l-0.112-0.193
			c13.211-15.331,20.443-34.57,20.443-54.798C506.815,333.615,467.972,295.48,420.226,295.48z M378.708,343.908
			c0-6.569-0.554-13.012-1.603-19.294c12.371-9.133,27.537-14.135,43.121-14.135c39.475,0,71.589,31.406,71.589,70.01
			c0,15.129-4.925,29.604-14.019,41.596c-13.039-16.11-33.273-25.787-54.948-25.787c-23.164,0-44.655,11.031-57.505,29.154
			c-3.429-3.991-6.37-8.338-8.813-12.992C370.928,392.515,378.708,368.739,378.708,343.908z M45.796,435.86
			c9.88-15.214,27.415-24.561,46.435-24.561c17.475,0,33.72,7.904,43.904,21.002h-0.024c0.163,0.21,0.331,0.415,0.495,0.623
			c0.055,0.073,0.11,0.145,0.164,0.218c-13.055,11.235-29.584,17.358-47.162,17.358C73.649,450.499,58.3,445.337,45.796,435.86z
			 M147.18,422.088c-13.038-16.112-33.274-25.789-54.95-25.789c-23.158,0-44.645,11.027-57.496,29.142
			c-10.713-12.528-16.716-28.466-16.716-44.951c0-38.604,32.115-70.01,71.589-70.01c17.801,0,34.599,6.316,47.743,17.852
			c-0.69,5.145-1.047,10.347-1.047,15.577c0,22.874,6.777,45.116,19.135,64.092C153.248,413.009,150.493,417.722,147.18,422.088z
			 M190.175,424.284c0.087-0.146,0.174-0.291,0.261-0.436c0.164-0.258,0.328-0.515,0.489-0.775h-0.024
			c14.635-23.597,41.361-38.155,70.375-38.155c26.445,0,51.015,12.123,66.235,32.157h-0.004c0.671,0.881,1.323,1.778,1.958,2.688
			c0.078,0.112,0.158,0.222,0.235,0.335c-19.697,17.934-45.108,27.741-72.195,27.741
			C232.829,447.84,209.133,439.513,190.175,424.284z M376.595,435.992h-0.266c9.864-15.291,27.445-24.693,46.52-24.693
			c17.678,0,34.094,8.092,44.252,21.463H467.1c0.015,0.02,0.03,0.039,0.045,0.058c0.081,0.107,0.163,0.214,0.243,0.322
			c-13.055,11.235-29.584,17.358-47.162,17.358C404.343,450.499,389.067,445.383,376.595,435.992z"/>
		<path d="M293.701,307.887c0-22.754-15.317-41.267-34.145-41.267s-34.145,18.512-34.145,41.267s15.317,41.267,34.145,41.267
			S293.701,330.641,293.701,307.887z M240.411,307.887c0-14.238,8.768-26.267,19.145-26.267s19.145,12.029,19.145,26.267
			s-8.768,26.267-19.145,26.267S240.411,322.125,240.411,307.887z"/>
		<path d="M41.932,173.408h35.269l5.728,9.92c3.487,6.04,9.733,9.646,16.708,9.646c6.975,0,13.221-3.606,16.708-9.646l5.728-9.92
			h52.353c23.121,0,41.932-18.811,41.932-41.932c0-0.261-0.018-0.521-0.023-0.782h6.343l13.357,23.136
			c3.538,6.127,9.874,9.785,16.949,9.785s13.411-3.658,16.949-9.785l13.358-23.136h8.631c-0.005,0.261-0.024,0.521-0.024,0.782
			c0,23.121,18.811,41.932,41.932,41.932h35.269l5.728,9.92c3.487,6.04,9.733,9.646,16.708,9.646h0
			c6.974,0,13.221-3.606,16.708-9.646l5.728-9.92h52.353c23.121,0,41.932-18.811,41.932-41.932c0-17.75-11.512-33.533-27.781-39.447
			c0.21-1.741,0.331-3.509,0.331-5.306c0-24.245-19.725-43.97-43.971-43.97H154.688c-4.142,0-7.5,3.358-7.5,7.5s3.358,7.5,7.5,7.5
			h282.145c15.975,0,28.971,12.996,28.971,28.97c0,15.975-12.996,28.971-28.971,28.971H278.959c-2.68,0-5.155,1.429-6.495,3.75
			l-15.523,26.886c-1.191,2.063-3.165,2.285-3.958,2.285s-2.768-0.223-3.958-2.285l-15.522-26.886
			c-1.34-2.321-3.815-3.75-6.495-3.75H69.783c-15.975,0-28.971-12.996-28.971-28.971c0-15.974,12.996-28.97,28.971-28.97h55.081
			c4.142,0,7.5-3.358,7.5-7.5s-3.358-7.5-7.5-7.5H69.783c-24.246,0-43.971,19.725-43.971,43.97c0,1.997,0.146,3.96,0.406,5.887
			C10.544,98.955,0,114.238,0,131.477C0,154.598,18.811,173.408,41.932,173.408z M476.13,106.416
			c10.067,3.996,17.123,13.925,17.123,25.06c0,14.85-12.082,26.932-26.932,26.932H411.59c-3.875,0-7.485,2.085-9.422,5.44
			l-6.917,11.98c-1.119,1.938-2.973,2.147-3.718,2.147s-2.599-0.209-3.718-2.147l-6.917-11.979
			c-1.937-3.356-5.547-5.441-9.422-5.441h-37.647c-14.85,0-26.932-12.082-26.932-26.932c0-0.261,0.016-0.521,0.024-0.782h129.913
			C454.001,130.695,468.893,120.798,476.13,106.416z M30.776,106.98c7.339,14.076,22.065,23.715,39.008,23.715h131.55
			c0.008,0.261,0.023,0.521,0.023,0.782c0,14.85-12.082,26.932-26.932,26.932h-54.731c-3.874,0-7.483,2.084-9.422,5.44
			l-6.917,11.981c-1.119,1.938-2.973,2.146-3.718,2.146c-0.746,0-2.6-0.209-3.718-2.146L89,163.847
			c-1.938-3.354-5.547-5.438-9.421-5.438H41.932c-14.85,0-26.932-12.082-26.932-26.932C15,120.806,21.299,111.304,30.776,106.98z"/>
		<path d="M109.086,87.493c0,4.15,3.35,7.5,7.5,7.5c4.14,0,7.5-3.35,7.5-7.5c0-4.14-3.36-7.5-7.5-7.5
			C112.436,79.993,109.086,83.353,109.086,87.493z"/>
		<path d="M167.086,87.493c0-4.14-3.36-7.5-7.5-7.5c-4.15,0-7.5,3.36-7.5,7.5c0,4.15,3.35,7.5,7.5,7.5
			C163.726,94.993,167.086,91.643,167.086,87.493z"/>
		<path d="M339.086,87.493c0-4.14-3.36-7.5-7.5-7.5c-4.15,0-7.5,3.36-7.5,7.5c0,4.15,3.35,7.5,7.5,7.5
			C335.726,94.993,339.086,91.643,339.086,87.493z"/>
		<path d="M382.086,87.493c0-4.14-3.36-7.5-7.5-7.5c-4.14,0-7.5,3.36-7.5,7.5c0,4.15,3.36,7.5,7.5,7.5
			C378.726,94.993,382.086,91.643,382.086,87.493z"/>
		<path d="M210.086,87.493c0-4.14-3.36-7.5-7.5-7.5c-4.15,0-7.5,3.36-7.5,7.5c0,4.15,3.35,7.5,7.5,7.5
			C206.726,94.993,210.086,91.643,210.086,87.493z"/>
		<path d="M296.086,87.493c0-4.14-3.36-7.5-7.5-7.5c-4.15,0-7.5,3.36-7.5,7.5c0,4.15,3.35,7.5,7.5,7.5
			C292.726,94.993,296.086,91.643,296.086,87.493z"/>
		<path d="M253.086,87.493c0-4.14-3.36-7.5-7.5-7.5c-4.15,0-7.5,3.36-7.5,7.5c0,4.15,3.35,7.5,7.5,7.5
			C249.726,94.993,253.086,91.643,253.086,87.493z"/>
	</g>
</g>
<g>
</g>
<g>
</g>
<g>
</g>
<g>
</g>
<g>
</g>
<g>
</g>
<g>
</g>
<g>
</g>
<g>
</g>
<g>
</g>
<g>
</g>
<g>
</g>
<g>
</g>
<g>
</g>
<g>
</g>
</svg>
