<?xml version="1.0" encoding="iso-8859-1"?>
<!-- Generator: Adobe Illustrator 21.0.0, SVG Export Plug-In . SVG Version: 6.00 Build 0)  -->
<svg version="1.1" id="Capa_1" xmlns="http://www.w3.org/2000/svg" xmlns:xlink="http://www.w3.org/1999/xlink" x="0px" y="0px"
	 viewBox="0 0 504.118 504.118" style="enable-background:new 0 0 504.118 504.118;" xml:space="preserve">
<g>
	<g>
		<path style="fill:#DBDEDF;" d="M104.043,125.038c7.485-7.701,16.062-13.692,25.246-17.982l1.581,36.232l78.94-60.955
			l-83.95-53.846l1.497,34.299c-22.049,0.284-43.985,8.979-60.569,26.042c-33.122,34.078-32.347,88.555,1.731,121.677
			c6.493,6.311,13.73,11.383,21.416,15.237C72.64,193.571,77.232,152.623,104.043,125.038z"/>
	</g>
	<g>
		<path style="fill:#DBDEDF;" d="M391.9,380.317c-8.748,6.228-18.263,10.578-28.069,13.147l4.964-35.925l-88.618,45.757
			l72.892,68.071l4.699-34.008c21.741,3.688,44.882-0.919,64.266-14.719c38.713-27.563,47.752-81.29,20.189-120.003
			c-5.252-7.376-11.458-13.668-18.325-18.841C435.122,318.553,423.237,358.006,391.9,380.317z"/>
	</g>
	<g>
		<g>
			<path style="fill:#F7EC77;" d="M116.803,423.859c31.282,0,58.502,16.476,72.605,40.793
				c18.365-18.649,29.682-44.008,29.682-71.973c0-57.262-47.366-103.682-105.795-103.682S7.5,335.417,7.5,392.679
				c0,30.377,13.332,57.701,34.571,76.664c0.495-1.517,1.16-3.021,2.009-4.496C58.151,440.422,85.436,423.859,116.803,423.859z"/>
		</g>
		<g>
			<g>
				<path style="fill:#F9CD45;" d="M113.295,288.997c-5.12,0-10.152,0.364-15.078,1.053c51.286,7.173,90.717,50.385,90.717,102.629
					c0,19.379-5.438,37.504-14.887,53.015c6.074,5.522,11.272,11.907,15.361,18.958c18.365-18.649,29.681-44.008,29.681-71.973
					C219.09,335.417,171.724,288.997,113.295,288.997z"/>
			</g>
		</g>
		<g>
			<path style="fill:#FFF4F1;" d="M189.408,464.652c-14.103-24.317-41.323-40.793-72.605-40.793
				c-31.367,0-58.652,16.563-72.722,40.988c-0.849,1.474-1.514,2.979-2.009,4.496c18.798,16.783,43.791,27.018,71.224,27.018
				C143.19,496.362,170.168,484.191,189.408,464.652z"/>
		</g>
		<g>
			<path style="fill:#DBDEDF;" d="M116.803,423.859c-5.151,0-10.189,0.455-15.079,1.31c16.862,2.947,31.936,10.743,43.562,21.814
				c9.32,8.874,8.221,24.113-2.463,31.287c-13.07,8.775-28.248,14.75-44.641,17.041c4.936,0.692,9.982,1.05,15.113,1.05
				c29.895,0,56.873-12.171,76.114-31.709C175.305,440.335,148.085,423.859,116.803,423.859z"/>
		</g>
		<g>
			<ellipse style="fill:#FFD4C6;" cx="115.202" cy="359.163" rx="24.792" ry="31.418"/>
		</g>
	</g>
	<g>
		<path style="fill:#FC9086;" d="M394.331,142.619c31.282,0,58.502,16.476,72.605,40.793c18.365-18.649,29.682-44.008,29.682-71.973
			c0-57.262-47.366-103.682-105.795-103.682s-105.795,46.42-105.795,103.682c0,30.377,13.332,57.701,34.571,76.664
			c0.495-1.517,1.16-3.021,2.009-4.496C335.679,159.182,362.964,142.619,394.331,142.619z"/>
	</g>
	<g>
		<path style="fill:#F57A73;" d="M390.823,7.757c-5.12,0-10.152,0.364-15.078,1.053c51.286,7.173,90.717,50.385,90.717,102.629
			c0,19.379-5.438,37.504-14.887,53.015c6.074,5.522,11.272,11.907,15.361,18.958c18.365-18.649,29.681-44.008,29.681-71.973
			C496.618,54.177,449.252,7.757,390.823,7.757z"/>
	</g>
	<g>
		<path style="fill:#FFF4F1;" d="M466.936,183.412c-14.103-24.317-41.323-40.793-72.605-40.793
			c-31.367,0-58.652,16.563-72.722,40.988c-0.849,1.474-1.514,2.979-2.009,4.496c18.798,16.783,43.791,27.018,71.224,27.018
			C420.718,215.121,447.696,202.95,466.936,183.412z"/>
	</g>
	<g>
		<path style="fill:#DBDEDF;" d="M394.331,142.619c-5.151,0-10.189,0.455-15.079,1.31c16.862,2.947,31.936,10.743,43.562,21.814
			c9.32,8.874,8.221,24.113-2.463,31.287c-13.07,8.775-28.248,14.75-44.641,17.041c4.936,0.692,9.982,1.05,15.113,1.05
			c29.895,0,56.873-12.171,76.114-31.709C452.833,159.095,425.614,142.619,394.331,142.619z"/>
	</g>
	<g>
		<ellipse style="fill:#FFD4C6;" cx="392.73" cy="77.923" rx="24.792" ry="31.418"/>
	</g>
	<g>
		<path d="M113.295,281.497c-16.852,0-33.071,3.546-48.208,10.54c-3.761,1.737-5.4,6.194-3.663,9.954
			c1.737,3.761,6.194,5.399,9.954,3.663c13.151-6.076,27.254-9.157,41.917-9.157c54.2,0,98.295,43.147,98.295,96.182
			c0,21.894-7.501,42.789-21.293,59.751c-16.853-22.467-44.157-36.071-73.494-36.071c-31.269,0-60.187,15.422-76.65,40.563
			C24.067,439.361,15,416.433,15,392.679c0-26.817,11.573-52.62,31.752-70.792c3.078-2.772,3.326-7.514,0.555-10.592
			c-2.774-3.08-7.515-3.326-10.592-0.554C13.382,331.753,0,361.618,0,392.679c0,31.239,13.514,61.221,37.076,82.259
			c0.207,0.184,0.424,0.352,0.646,0.51c0,0.018-0.001,0.035,0,0.053c20.801,18.291,47.601,28.36,75.573,28.36
			c30.972,0,59.9-12.056,81.457-33.947l3.971-4.032c-0.037-0.031-0.072-0.061-0.109-0.092
			c18.081-20.278,27.976-46.026,27.976-73.112C226.59,331.373,175.766,281.497,113.295,281.497z M51.328,467.342
			c0.059-0.098,0.117-0.197,0.176-0.294c0.62-1.016,1.261-2.016,1.929-2.994c0.084-0.123,0.171-0.243,0.255-0.366
			c2.249-3.25,4.752-6.297,7.48-9.12h-0.011c14.104-14.601,34.197-23.209,55.646-23.209c22.155,0,42.884,9.203,57.045,24.709
			c0.45,0.492,0.891,0.993,1.327,1.498c0.099,0.115,0.2,0.228,0.298,0.343c0.38,0.445,0.752,0.897,1.121,1.352
			c0.158,0.195,0.319,0.389,0.475,0.586c0.308,0.386,0.608,0.779,0.908,1.172c0.207,0.272,0.414,0.543,0.617,0.817
			c0.257,0.348,0.509,0.701,0.76,1.054c0.142,0.2,0.282,0.4,0.422,0.601c-18.183,16.403-41.565,25.368-66.482,25.368
			C90.607,488.861,68.815,481.257,51.328,467.342z"/>
		<path d="M147.494,359.163c0-21.459-14.486-38.918-32.292-38.918S82.91,337.704,82.91,359.163s14.486,38.918,32.292,38.918
			S147.494,380.623,147.494,359.163z M97.91,359.163c0-12.965,7.919-23.918,17.292-23.918s17.292,10.953,17.292,23.918
			c0,12.965-7.919,23.918-17.292,23.918S97.91,372.128,97.91,359.163z"/>
		<path d="M504.118,111.439c0-61.306-50.824-111.182-113.295-111.182c-21.439,0-42.313,5.906-60.365,17.08
			c-3.522,2.18-4.61,6.802-2.43,10.324c2.181,3.522,6.804,4.61,10.324,2.43c15.679-9.705,33.822-14.834,52.471-14.834
			c54.2,0,98.295,43.147,98.295,96.182c0,21.894-7.501,42.789-21.293,59.751c-16.853-22.467-44.157-36.071-73.494-36.071
			c-31.269,0-60.187,15.422-76.65,40.563c-16.085-17.562-25.152-40.489-25.152-64.243c0-23.74,8.912-46.537,25.095-64.192
			c2.799-3.054,2.592-7.798-0.462-10.597c-3.052-2.799-7.796-2.593-10.597,0.461c-18.724,20.429-29.036,46.825-29.036,74.328
			c0,31.239,13.514,61.221,37.076,82.259c0.425,0.379,0.889,0.698,1.377,0.966c-0.024,0.058-0.044,0.118-0.068,0.176
			c20.706,17.924,47.234,27.781,74.909,27.781c30.972,0,59.9-12.056,81.457-33.947l0.728-0.739c-0.003-0.003-0.005-0.007-0.008-0.01
			C493.072,167.17,504.118,140.053,504.118,111.439z M328.856,186.102c0.063-0.104,0.124-0.209,0.187-0.312
			c0.584-0.956,1.185-1.9,1.812-2.824c0.063-0.093,0.129-0.183,0.193-0.276c0.621-0.906,1.262-1.795,1.922-2.669
			c14.051-18.628,36.816-29.902,61.361-29.902c22.701,0,43.904,9.663,58.078,25.869h-0.008c1.663,1.9,3.23,3.888,4.691,5.962
			c0.071,0.101,0.142,0.201,0.212,0.302c-18.183,16.403-41.565,25.368-66.482,25.368
			C368.135,207.621,346.343,200.016,328.856,186.102z"/>
		<path d="M425.022,77.923c0-21.459-14.486-38.918-32.292-38.918s-32.292,17.458-32.292,38.918s14.486,38.918,32.292,38.918
			S425.022,99.382,425.022,77.923z M375.438,77.923c0-12.965,7.919-23.918,17.292-23.918s17.292,10.953,17.292,23.918
			c0,12.965-7.919,23.918-17.292,23.918S375.438,90.888,375.438,77.923z"/>
		<path d="M63.291,215.884c6.895,6.7,14.728,12.273,23.281,16.563c1.069,0.536,2.219,0.796,3.36,0.796
			c1.98,0,3.934-0.785,5.38-2.272c2.28-2.346,2.776-5.898,1.229-8.779c-16.289-30.299-11.112-67.241,12.88-91.925v0
			c3.94-4.054,8.258-7.64,12.906-10.726l1.05,24.075c0.122,2.798,1.794,5.295,4.334,6.475c2.539,1.179,5.524,0.846,7.743-0.866
			l78.939-60.955c1.93-1.49,3.016-3.827,2.909-6.263s-1.391-4.669-3.444-5.986l-83.95-53.846c-2.357-1.512-5.359-1.585-7.789-0.188
			c-2.428,1.396-3.875,4.03-3.753,6.828l1.174,26.884c-22.092,2.078-42.503,11.824-58.13,27.902
			c-17.416,17.918-26.812,41.546-26.456,66.531C35.309,175.117,45.373,198.468,63.291,215.884z M72.166,94.055
			c14.636-15.058,34.27-23.499,55.287-23.77c2.028-0.026,3.961-0.874,5.354-2.348s2.13-3.451,2.042-5.479l-0.867-19.851
			l62.82,40.293l-59.07,45.612l-0.95-21.785c-0.109-2.503-1.462-4.787-3.604-6.086c-2.143-1.3-4.794-1.443-7.063-0.382
			c-10.269,4.797-19.504,11.375-27.449,19.55c-22.603,23.254-31.182,55.644-24.179,86.027c-0.248-0.235-0.495-0.472-0.74-0.71
			c-15.046-14.623-23.495-34.229-23.794-55.208C49.653,128.94,57.543,109.101,72.166,94.055z"/>
		<path d="M428.411,277.805c-2.613-1.968-6.199-2.016-8.863-0.12c-2.665,1.897-3.793,5.302-2.787,8.415
			c10.57,32.735-1.169,68.143-29.21,88.107c-4.606,3.279-9.498,6.03-14.625,8.229l3.299-23.871c0.383-2.774-0.812-5.531-3.098-7.149
			c-2.287-1.617-5.286-1.826-7.772-0.542l-88.618,45.757c-2.168,1.119-3.655,3.222-3.989,5.638s0.528,4.843,2.311,6.508
			l72.892,68.071c1.412,1.318,3.25,2.019,5.12,2.019c0.842,0,1.689-0.142,2.508-0.432c2.64-0.937,4.537-3.267,4.921-6.042
			l3.683-26.656c22.103,1.928,43.937-3.984,62.201-16.988c20.356-14.493,33.85-36.045,37.995-60.686s-1.553-49.422-16.045-69.777
			C442.756,290.455,436.054,283.563,428.411,277.805z M449.585,365.575c-3.48,20.69-14.811,38.786-31.902,50.955
			c-17.105,12.179-37.936,16.951-58.662,13.435c-1.997-0.339-4.053,0.146-5.689,1.347c-1.636,1.2-2.716,3.011-2.994,5.021
			l-2.719,19.683l-54.545-50.938l66.313-34.24l-2.984,21.6c-0.343,2.482,0.576,4.972,2.45,6.635c1.875,1.664,4.453,2.281,6.88,1.646
			c10.962-2.871,21.23-7.679,30.519-14.292c26.417-18.808,40.684-49.125,39.262-80.272c0.202,0.276,0.402,0.553,0.601,0.832
			C448.281,324.077,453.065,344.885,449.585,365.575z"/>
	</g>
</g>
<g>
</g>
<g>
</g>
<g>
</g>
<g>
</g>
<g>
</g>
<g>
</g>
<g>
</g>
<g>
</g>
<g>
</g>
<g>
</g>
<g>
</g>
<g>
</g>
<g>
</g>
<g>
</g>
<g>
</g>
</svg>
