<?xml version="1.0" encoding="iso-8859-1"?>
<!-- Generator: Adobe Illustrator 21.0.0, SVG Export Plug-In . SVG Version: 6.00 Build 0)  -->
<svg version="1.1" id="Capa_1" xmlns="http://www.w3.org/2000/svg" xmlns:xlink="http://www.w3.org/1999/xlink" x="0px" y="0px"
	 viewBox="0 0 508.889 508.889" style="enable-background:new 0 0 508.889 508.889;" xml:space="preserve">
<g>
	<g>
		<path style="fill:#ACEDED;" d="M425.555,108.631c23.192,0,43.372,12.215,53.828,30.243c13.615-13.826,22.005-32.627,22.005-53.359
			c0-42.453-35.116-76.868-78.434-76.868S344.52,43.062,344.52,85.515c0,22.521,9.884,42.778,25.631,56.837
			c0.367-1.124,0.86-2.24,1.49-3.333C382.072,120.91,402.3,108.631,425.555,108.631z"/>
	</g>
	<g>
		<g>
			<path style="fill:#88DFEB;" d="M422.954,8.647c-3.796,0-7.527,0.27-11.178,0.781c38.022,5.318,67.256,37.354,67.256,76.087
				c0,14.367-4.032,27.805-11.037,39.304c4.503,4.094,8.357,8.828,11.388,14.055c13.615-13.826,22.005-32.627,22.005-53.359
				C501.388,43.062,466.272,8.647,422.954,8.647z"/>
		</g>
	</g>
	<g>
		<path style="fill:#FFF4F1;" d="M479.383,138.874c-10.456-18.028-30.636-30.243-53.828-30.243
			c-23.255,0-43.483,12.28-53.915,30.388c-0.63,1.093-1.123,2.209-1.49,3.333c13.937,12.443,32.466,20.031,52.804,20.031
			C445.118,162.383,465.119,153.359,479.383,138.874z"/>
	</g>
	<g>
		<path style="fill:#DBDEDF;" d="M425.555,108.631c-3.819,0-7.554,0.337-11.179,0.971c12.501,2.185,23.677,7.965,32.296,16.172
			c6.91,6.579,6.095,17.877-1.826,23.196c-9.69,6.506-20.943,10.936-33.096,12.634c3.659,0.513,7.4,0.779,11.204,0.779
			c22.164,0,42.165-9.023,56.429-23.509C468.927,120.846,448.747,108.631,425.555,108.631z"/>
	</g>
	<g>
		<ellipse style="fill:#FFD4C6;" cx="424.368" cy="60.666" rx="18.38" ry="23.293"/>
	</g>
	<g>
		<path style="fill:#FFEC56;" d="M88.535,108.631c23.192,0,43.372,12.215,53.828,30.243c13.615-13.826,22.005-32.627,22.005-53.359
			c0-42.453-35.116-76.868-78.434-76.868S7.5,43.062,7.5,85.515c0,22.521,9.884,42.778,25.631,56.837
			c0.367-1.124,0.86-2.24,1.49-3.333C45.052,120.91,65.281,108.631,88.535,108.631z"/>
	</g>
	<g>
		<g>
			<path style="fill:#F9CD45;" d="M85.934,8.647c-3.796,0-7.527,0.27-11.178,0.781c38.022,5.318,67.256,37.354,67.256,76.087
				c0,14.367-4.032,27.805-11.037,39.304c4.503,4.094,8.357,8.828,11.388,14.055c13.615-13.826,22.005-32.627,22.005-53.359
				C164.369,43.062,129.253,8.647,85.934,8.647z"/>
		</g>
	</g>
	<g>
		<path style="fill:#FFF4F1;" d="M142.364,138.874c-10.456-18.028-30.636-30.243-53.828-30.243
			c-23.255,0-43.483,12.28-53.915,30.388c-0.63,1.093-1.123,2.209-1.49,3.333c13.937,12.443,32.466,20.031,52.804,20.031
			C108.098,162.383,128.099,153.359,142.364,138.874z"/>
	</g>
	<g>
		<path style="fill:#DBDEDF;" d="M88.535,108.631c-3.819,0-7.554,0.337-11.179,0.971c12.501,2.185,23.677,7.965,32.296,16.172
			c6.91,6.579,6.095,17.877-1.826,23.196c-9.689,6.506-20.942,10.936-33.096,12.634c3.659,0.513,7.4,0.779,11.204,0.779
			c22.164,0,42.165-9.023,56.429-23.509C131.908,120.846,111.728,108.631,88.535,108.631z"/>
	</g>
	<g>
		<ellipse style="fill:#FFD4C6;" cx="87.349" cy="60.666" rx="18.38" ry="23.293"/>
	</g>
	<g>
		<path style="fill:#FFD4C6;" d="M425.555,446.49c23.192,0,43.372,12.215,53.828,30.243c13.615-13.826,22.005-32.627,22.005-53.359
			c0-42.453-35.116-76.868-78.434-76.868s-78.434,34.415-78.434,76.868c0,22.521,9.884,42.778,25.631,56.837
			c0.367-1.124,0.86-2.24,1.49-3.333C382.072,458.77,402.3,446.49,425.555,446.49z"/>
	</g>
	<g>
		<g>
			<path style="fill:#FDA8A1;" d="M422.954,346.506c-3.796,0-7.527,0.27-11.178,0.781c38.022,5.318,67.256,37.354,67.256,76.087
				c0,14.367-4.032,27.805-11.037,39.304c4.503,4.094,8.357,8.828,11.388,14.055c13.615-13.826,22.005-32.627,22.005-53.359
				C501.388,380.921,466.272,346.506,422.954,346.506z"/>
		</g>
	</g>
	<g>
		<path style="fill:#FFF4F1;" d="M479.383,476.733c-10.456-18.028-30.636-30.243-53.828-30.243
			c-23.255,0-43.483,12.28-53.915,30.388c-0.63,1.093-1.123,2.209-1.49,3.333c13.937,12.443,32.466,20.031,52.804,20.031
			C445.118,500.242,465.119,491.219,479.383,476.733z"/>
	</g>
	<g>
		<path style="fill:#DBDEDF;" d="M425.555,446.49c-3.819,0-7.554,0.337-11.179,0.971c12.501,2.185,23.677,7.965,32.296,16.172
			c6.91,6.579,6.095,17.877-1.826,23.196c-9.69,6.506-20.943,10.936-33.096,12.634c3.659,0.513,7.4,0.779,11.204,0.779
			c22.164,0,42.165-9.023,56.429-23.509C468.927,458.705,448.747,446.49,425.555,446.49z"/>
	</g>
	<g>
		<ellipse style="fill:#FFD4C6;" cx="424.368" cy="398.526" rx="18.38" ry="23.293"/>
	</g>
	<g>
		<path style="fill:#F45A3C;" d="M88.535,446.49c23.192,0,43.372,12.215,53.828,30.243c13.615-13.826,22.005-32.627,22.005-53.359
			c0-42.453-35.116-76.868-78.434-76.868S7.5,380.921,7.5,423.374c0,22.521,9.884,42.778,25.631,56.837
			c0.367-1.124,0.86-2.24,1.49-3.333C45.052,458.77,65.281,446.49,88.535,446.49z"/>
	</g>
	<g>
		<g>
			<path style="fill:#EA543C;" d="M85.934,346.506c-3.796,0-7.527,0.27-11.178,0.781c38.022,5.318,67.256,37.354,67.256,76.087
				c0,14.367-4.032,27.805-11.037,39.304c4.503,4.094,8.357,8.828,11.388,14.055c13.615-13.826,22.005-32.627,22.005-53.359
				C164.369,380.921,129.253,346.506,85.934,346.506z"/>
		</g>
	</g>
	<g>
		<path style="fill:#FFF4F1;" d="M142.364,476.733c-10.456-18.028-30.636-30.243-53.828-30.243
			c-23.255,0-43.483,12.28-53.915,30.388c-0.63,1.093-1.123,2.209-1.49,3.333c13.937,12.443,32.466,20.031,52.804,20.031
			C108.098,500.242,128.099,491.219,142.364,476.733z"/>
	</g>
	<g>
		<path style="fill:#DBDEDF;" d="M88.535,446.49c-3.819,0-7.554,0.337-11.179,0.971c12.501,2.185,23.677,7.965,32.296,16.172
			c6.91,6.579,6.095,17.877-1.826,23.196c-9.689,6.506-20.942,10.936-33.096,12.634c3.659,0.513,7.4,0.779,11.204,0.779
			c22.164,0,42.165-9.023,56.429-23.509C131.908,458.705,111.728,446.49,88.535,446.49z"/>
	</g>
	<g>
		<ellipse style="fill:#FFD4C6;" cx="87.349" cy="398.526" rx="18.38" ry="23.293"/>
	</g>
	<g>
		<circle style="fill:#FFEC56;" cx="253.055" cy="253.646" r="78.191"/>
	</g>
	<g>
		<path d="M424.368,91.459c14.271,0,25.88-13.813,25.88-30.793s-11.61-30.793-25.88-30.793s-25.88,13.813-25.88,30.793
			S410.098,91.459,424.368,91.459z M424.368,44.874c5.898,0,10.88,7.232,10.88,15.793s-4.982,15.793-10.88,15.793
			s-10.88-7.232-10.88-15.793S418.47,44.874,424.368,44.874z"/>
		<path d="M113.229,60.667c0-16.979-11.61-30.793-25.88-30.793s-25.88,13.813-25.88,30.793s11.61,30.793,25.88,30.793
			S113.229,77.646,113.229,60.667z M76.468,60.667c0-8.561,4.982-15.793,10.88-15.793s10.88,7.232,10.88,15.793
			s-4.982,15.793-10.88,15.793S76.468,69.227,76.468,60.667z"/>
		<path d="M465.538,350.139c13.824-30.357,20.843-62.789,20.843-96.493c0-33.179-6.827-65.176-20.255-95.175
			c6.743-3.867,13.006-8.653,18.602-14.335c15.581-15.822,24.162-36.641,24.162-58.622c0-46.521-38.55-84.368-85.935-84.368
			c-30.869,0-57.977,16.069-73.132,40.128c-30.42-13.906-62.937-20.954-96.767-20.954c-33.005,0-64.801,6.723-94.62,19.987
			c-15.268-23.517-42.05-39.161-72.5-39.161c-18.582,0-36.271,5.729-51.153,16.569c-3.348,2.438-4.085,7.13-1.647,10.478
			c2.438,3.348,7.128,4.085,10.478,1.647c12.3-8.958,26.935-13.694,42.322-13.694c39.113,0,70.934,31.118,70.934,69.368
			c0,14.964-4.862,29.281-13.842,41.151c-12.944-15.954-33.005-25.535-54.491-25.535c-22.958,0-44.262,10.918-57.024,28.862
			C20.928,117.589,15,101.822,15,85.515c0-11.836,3.1-23.517,8.963-33.78c2.055-3.597,0.805-8.178-2.792-10.233
			c-3.596-2.053-8.178-0.805-10.233,2.792C3.783,56.819,0,71.073,0,85.515c0,23.712,10.255,46.467,28.136,62.432
			c3.877,3.461,8.038,6.536,12.421,9.216c-13.82,30.34-20.826,62.761-20.826,96.483c0,34.203,7.199,67.043,21.398,97.73
			c-2.164,1.304-4.285,2.697-6.347,4.199c-3.348,2.438-4.085,7.13-1.647,10.478c2.438,3.347,7.128,4.086,10.478,1.647
			c3.341-2.433,6.859-4.543,10.513-6.343c0.069-0.032,0.14-0.055,0.208-0.089c0.05-0.025,0.096-0.056,0.146-0.082
			c9.705-4.714,20.383-7.179,31.456-7.179c39.113,0,70.934,31.119,70.934,69.368c0,14.964-4.862,29.281-13.842,41.151
			c-12.944-15.954-33.005-25.535-54.491-25.535c-22.959,0-44.263,10.918-57.024,28.862C20.928,455.448,15,439.681,15,423.374
			c0-11.836,3.1-23.517,8.963-33.78c2.055-3.597,0.805-8.178-2.792-10.233c-3.596-2.054-8.178-0.805-10.233,2.792
			C3.783,394.678,0,408.932,0,423.374c0,23.712,10.255,46.468,28.136,62.432c15.844,14.146,36.371,21.936,57.799,21.936
			c23.485,0,45.423-9.144,61.773-25.746c4.436-4.505,8.283-9.426,11.547-14.652c29.587,13.024,61.106,19.627,93.8,19.627
			c33.533,0,65.787-6.931,95.989-20.603c4.32,7.167,9.727,13.737,16.112,19.437c15.844,14.146,36.371,21.936,57.799,21.936
			c23.485,0,45.423-9.144,61.773-25.746c15.581-15.822,24.162-36.641,24.162-58.622C508.889,392.06,491.408,364.696,465.538,350.139
			z M42.577,478.259c9.794-15.034,27.142-24.269,45.958-24.269c17.651,0,34.031,8.142,44.075,21.575
			c-12.928,11.107-29.279,17.176-46.675,17.176C70.142,492.742,54.958,487.627,42.577,478.259z M471.38,253.646
			c0,31.545-6.567,61.893-19.5,90.291c-9.044-3.184-18.78-4.931-28.927-4.931c-20.734,0-39.776,7.247-54.637,19.295l-49.634-49.634
			c12.51-14.898,20.064-34.09,20.064-55.021s-7.554-40.123-20.064-55.021l48.743-48.743c15.511,12.91,35.105,20.001,55.528,20.001
			c10.263,0,20.23-1.747,29.564-5.098C465.024,192.791,471.38,222.664,471.38,253.646z M255.835,306.789c-4.142,0-7.5,3.358-7.5,7.5
			v9.874c-33.873-2.246-61.282-28.446-65.412-61.778h10.283c4.142,0,7.5-3.358,7.5-7.5s-3.358-7.5-7.5-7.5h-10.549
			c3.045-34.502,30.971-61.953,65.678-64.254v9.125c0,4.142,3.358,7.5,7.5,7.5s7.5-3.358,7.5-7.5v-8.544
			c32.093,4.697,57.238,31.033,60.119,63.673h-9.288c-4.142,0-7.5,3.358-7.5,7.5s3.358,7.5,7.5,7.5h9.022
			c-3.902,31.489-28.575,56.62-59.852,61.198v-9.293C263.335,310.146,259.977,306.789,255.835,306.789z M422.954,154.883
			c-15.793,0-30.976-5.114-43.358-14.483c9.794-15.034,27.143-24.269,45.959-24.269c17.65,0,34.031,8.143,44.074,21.576
			C456.701,148.814,440.351,154.883,422.954,154.883z M422.954,16.147c39.113,0,70.935,31.118,70.935,69.368
			c0,14.964-4.862,29.281-13.842,41.151c-12.944-15.954-33.005-25.535-54.491-25.535c-22.959,0-44.263,10.918-57.024,28.862
			c-10.583-12.404-16.511-28.171-16.511-44.478C352.02,47.265,383.841,16.147,422.954,16.147z M171.869,85.515
			c0-11.287-2.286-22.055-6.4-31.904c27.621-12.131,57.046-18.29,87.587-18.29c31.44,0,61.659,6.509,89.944,19.337
			c-3.843,9.565-5.979,19.968-5.979,30.857c0,19.714,7.094,38.762,19.759,53.801l-48.703,48.703
			c-14.898-12.51-34.09-20.064-55.021-20.064s-40.123,7.554-55.021,20.064l-47.22-47.22
			C164.42,125.441,171.869,105.984,171.869,85.515z M88.535,116.131c17.651,0,34.031,8.143,44.075,21.576
			c-12.929,11.107-29.279,17.176-46.675,17.176c-15.793,0-30.976-5.114-43.358-14.483C52.37,125.366,69.719,116.131,88.535,116.131z
			 M54.611,344.786c-13.19-28.62-19.881-59.243-19.881-91.14c0-31.386,6.488-61.559,19.275-89.807
			c10.059,3.953,20.871,6.043,31.93,6.043c19.94,0,38.75-6.613,53.986-18.765l47.507,47.507
			c-12.51,14.898-20.064,34.09-20.064,55.021s7.554,40.123,20.064,55.021l-48.424,48.424c-14.624-11.311-33.051-18.085-53.07-18.085
			C75.058,339.006,64.492,340.984,54.611,344.786z M253.055,471.971c-30.323,0-59.557-6.074-87.016-18.04
			c3.815-9.631,5.83-19.955,5.83-30.557c0-21.526-8.265-41.185-21.829-56.106l47.994-47.994
			c14.898,12.51,34.09,20.064,55.021,20.064s40.123-7.554,55.021-20.064l49.47,49.47c-12.785,14.732-20.526,33.805-20.526,54.631
			c0,10.163,1.889,20.148,5.45,29.5C314.333,465.543,284.29,471.971,253.055,471.971z M379.597,478.259
			c9.794-15.034,27.142-24.269,45.959-24.269c17.65,0,34.031,8.142,44.074,21.575c-12.928,11.107-29.279,17.176-46.675,17.176
			C407.161,492.742,391.978,487.627,379.597,478.259z M480.046,464.525c-12.944-15.954-33.005-25.535-54.491-25.535
			c-22.959,0-44.263,10.918-57.024,28.861c-10.583-12.403-16.511-28.17-16.511-44.478c0-38.25,31.821-69.368,70.934-69.368
			s70.935,31.119,70.935,69.368C493.889,438.337,489.027,452.655,480.046,464.525z"/>
		<path d="M424.368,367.733c-14.271,0-25.88,13.813-25.88,30.793c0,16.979,11.61,30.792,25.88,30.792s25.88-13.813,25.88-30.792
			C450.249,381.546,438.639,367.733,424.368,367.733z M424.368,414.318c-5.898,0-10.88-7.232-10.88-15.792
			s4.982-15.793,10.88-15.793s10.88,7.232,10.88,15.793S430.266,414.318,424.368,414.318z"/>
		<path d="M113.229,398.526c0-16.979-11.61-30.793-25.88-30.793s-25.88,13.813-25.88,30.793c0,16.979,11.61,30.792,25.88,30.792
			S113.229,415.505,113.229,398.526z M76.468,398.526c0-8.561,4.982-15.793,10.88-15.793s10.88,7.232,10.88,15.793
			s-4.982,15.792-10.88,15.792S76.468,407.086,76.468,398.526z"/>
		<path d="M270.981,260.412c0-9.898-7.771-13.344-14.443-15.836v-10.705c4.766,0.367,6.159,2.713,8.578,2.713
			c3.226,0,4.546-4.033,4.546-6.012c0-5.059-8.579-6.232-13.124-6.379v-1.833c0-1.026-1.393-1.979-2.786-1.979
			c-1.613,0-2.786,0.953-2.786,1.979v2.053c-7.772,1.1-14.664,5.572-14.664,14.883c0,9.385,7.918,12.538,14.664,15.104v11.878
			c-5.426-0.953-7.918-5.279-10.998-5.279c-2.786,0-4.985,3.666-4.985,6.159c0,4.692,7.185,9.238,15.983,9.531v1.833
			c0,1.026,1.173,1.979,2.786,1.979c1.393,0,2.786-0.953,2.786-1.979v-2.126C265.116,275.002,270.981,269.503,270.981,260.412z
			 M251.699,242.815c-2.786-1.173-4.692-2.493-4.692-4.619c0-1.76,1.393-3.446,4.692-4.106V242.815z M255.805,266.204v-9.825
			c2.64,1.246,4.473,2.786,4.473,5.206C260.277,264.224,258.297,265.617,255.805,266.204z"/>
	</g>
</g>
<g>
</g>
<g>
</g>
<g>
</g>
<g>
</g>
<g>
</g>
<g>
</g>
<g>
</g>
<g>
</g>
<g>
</g>
<g>
</g>
<g>
</g>
<g>
</g>
<g>
</g>
<g>
</g>
<g>
</g>
</svg>
