<?xml version="1.0" encoding="iso-8859-1"?>
<!-- Generator: Adobe Illustrator 21.0.0, SVG Export Plug-In . SVG Version: 6.00 Build 0)  -->
<svg version="1.1" id="Capa_1" xmlns="http://www.w3.org/2000/svg" xmlns:xlink="http://www.w3.org/1999/xlink" x="0px" y="0px"
	 viewBox="0 0 507.91 507.91" style="enable-background:new 0 0 507.91 507.91;" xml:space="preserve">
<g>
	<g>
		<rect x="397.91" y="193.099" style="fill:#DC8839;" width="102.5" height="102.5"/>
	</g>
	<g>
		<rect x="470.41" y="193.099" style="fill:#BE7511;" width="30" height="102.5"/>
	</g>
	<g>
		<rect x="166.91" y="193.099" style="fill:#DC8839;" width="102.5" height="102.5"/>
	</g>
	<g>
		<rect x="239.41" y="193.099" style="fill:#BE7511;" width="30" height="102.5"/>
	</g>
	<g>
		<ellipse style="fill:#FFD4C6;" cx="105.97" cy="177.535" rx="23.746" ry="34.195"/>
	</g>
	<g>
		<path style="fill:#BE7511;" d="M38.098,461.622c-5.073,0.001-10.078-2.334-13.309-6.739c-5.385-7.344-3.798-17.663,3.545-23.048
			l59.096-43.336l-9.402-41.326c-0.133-9.105,6.039-17.694,15.145-17.829c9.084-0.147,26.487,8.239,26.623,17.344l0.732,49.833
			c0.079,5.337-2.43,10.382-6.735,13.539l-65.956,48.367C44.897,460.583,41.481,461.622,38.098,461.622z"/>
	</g>
	<g>
		<path style="fill:#DC8839;" d="M137.144,337.131l43.089,43.547l1.37,1.215c2.773,2.46,4.236,5.872,4.337,9.286l1.508,67.569
			c0.204,7.776-6.002,14.243-13.859,14.444c-7.858,0.202-14.393-5.939-14.597-13.715c-0.006-0.228-0.005-0.504,0-0.73l-8.982-58.717
			l0.26-0.777l-63.896-34.485c-9.914-4.584-16.844-15.457-16.218-25.647"/>
	</g>
	<g>
		<path style="fill:#B4B4B4;" d="M214.788,489.638c-0.372-16.622-13.953-29.984-30.664-29.984
			c-16.711,0-30.292,13.362-30.664,29.984H214.788z"/>
	</g>
	<g>
		<path style="fill:#B4B4B4;" d="M50.865,485.956c11.49-12.016,11.336-31.068-0.481-42.884
			c-11.816-11.816-30.868-11.971-42.884-0.481L50.865,485.956z"/>
	</g>
	<g>
		<path style="fill:#FFEC56;" d="M220.353,237.085H105.526c-0.573-0.029-1.151-0.044-1.731-0.044
			c-18.5,0-33.637,15.136-33.637,33.637v66.445h67.274v-66.445c0-1.088-0.057-2.164-0.159-3.226h83.081
			c8.351,0,15.183-6.833,15.183-15.183l0,0C235.536,243.918,228.703,237.085,220.353,237.085z"/>
	</g>
	<g>
		<ellipse style="fill:#FFD4C6;" cx="336.97" cy="177.535" rx="23.746" ry="34.195"/>
	</g>
	<g>
		<g>
			<path style="fill:#F9CD45;" d="M110.57,267.452c-1.755,0-3.141,1.438-3.139,3.193c0,0.011,0,0.022,0,0.033v66.445h30v-66.445
				c0-1.088-0.057-2.164-0.159-3.226H110.57z"/>
		</g>
		<g>
			<path style="fill:#F9CD45;" d="M220.353,237.085h-30c8.351,0,15.183,6.833,15.183,15.183c0,8.351-6.832,15.183-15.183,15.183h30
				c8.351,0,15.183-6.833,15.183-15.183C235.535,243.918,228.703,237.085,220.353,237.085z"/>
		</g>
	</g>
	<g>
		<path style="fill:#2970D6;" d="M269.098,461.622c-5.073,0.001-10.078-2.334-13.309-6.739c-5.385-7.344-3.798-17.663,3.545-23.048
			l59.096-43.336l-9.402-41.326c-0.133-9.105,6.04-17.694,15.145-17.829c9.084-0.147,26.487,8.239,26.623,17.344l0.732,49.833
			c0.079,5.337-2.43,10.382-6.735,13.539l-65.956,48.367C275.897,460.583,272.481,461.622,269.098,461.622z"/>
	</g>
	<g>
		<path style="fill:#467BFF;" d="M345.622,322.475l65.611,58.204l1.37,1.215c2.773,2.46,4.236,5.872,4.337,9.286l1.508,67.569
			c0.204,7.776-6.002,14.243-13.859,14.444c-7.858,0.202-14.393-5.939-14.597-13.715c-0.006-0.228-0.005-0.504,0-0.73l-8.982-58.717
			l0.26-0.777l-63.896-34.485c-12.957-5.991-18.553-21.241-12.499-34.063c6.054-12.822,21.466-18.359,34.423-12.368
			C341.623,319.414,343.797,320.871,345.622,322.475z"/>
	</g>
	<g>
		<path style="fill:#B4B4B4;" d="M445.788,489.638c-0.372-16.622-13.953-29.984-30.664-29.984
			c-16.711,0-30.292,13.362-30.664,29.984H445.788z"/>
	</g>
	<g>
		<path style="fill:#B4B4B4;" d="M281.865,485.956c11.49-12.016,11.336-31.068-0.481-42.884
			c-11.816-11.816-30.868-11.971-42.884-0.481L281.865,485.956z"/>
	</g>
	<g>
		<path style="fill:#FC9086;" d="M451.353,237.085H336.526c-0.573-0.029-1.151-0.044-1.731-0.044
			c-18.5,0-33.637,15.136-33.637,33.637v66.445h67.274v-66.445c0-1.088-0.057-2.164-0.159-3.226h83.081
			c8.351,0,15.183-6.833,15.183-15.183l0,0C466.535,243.918,459.703,237.085,451.353,237.085z"/>
	</g>
	<g>
		<g>
			<path style="fill:#F57A73;" d="M341.57,267.452c-1.755,0-3.141,1.438-3.139,3.193c0,0.011,0,0.022,0,0.033v66.445h30v-66.445
				c0-1.088-0.057-2.164-0.159-3.226H341.57z"/>
		</g>
		<g>
			<path style="fill:#F57A73;" d="M451.353,237.085h-30c8.351,0,15.183,6.833,15.183,15.183c0,8.351-6.832,15.183-15.183,15.183h30
				c8.351,0,15.183-6.833,15.183-15.183C466.535,243.918,459.703,237.085,451.353,237.085z"/>
		</g>
	</g>
	<g>
		<path d="M105.971,219.229c17.521,0,31.246-18.314,31.246-41.695c0-23.38-13.725-41.694-31.246-41.694
			c-17.521,0-31.247,18.314-31.247,41.694C74.724,200.915,88.449,219.229,105.971,219.229z M105.971,150.84
			c8.806,0,16.246,12.225,16.246,26.694c0,14.47-7.44,26.695-16.246,26.695c-8.807,0-16.247-12.225-16.247-26.695
			C89.724,163.065,97.164,150.84,105.971,150.84z"/>
		<path d="M194.838,453.718l-1.401-62.761c-0.167-5.608-2.666-10.957-6.856-14.673l-1.178-1.045l-40.472-41.184v-59.103h14.479
			v20.647c0,4.142,3.358,7.5,7.5,7.5h102.5c4.143,0,7.5-3.358,7.5-7.5v-102.5c0-4.142-3.357-7.5-7.5-7.5h-40.129
			c-4.142,0-7.5,3.358-7.5,7.5s3.358,7.5,7.5,7.5h32.629v87.5h-87.5v-13.147h45.943c12.507,0,22.683-10.176,22.683-22.683
			c0-12.507-10.176-22.683-22.683-22.683H174.41v-28.986h24.872c4.142,0,7.5-3.358,7.5-7.5s-3.358-7.5-7.5-7.5H166.91
			c-4.142,0-7.5,3.358-7.5,7.5v36.486h-53.702c-0.634-0.029-1.272-0.044-1.913-0.044c-22.683,0-41.137,18.454-41.137,41.137v66.445
			c0,0.317,0.026,0.628,0.064,0.935c-0.975,10.399,3.587,20.844,11.909,27.994l4.393,19.31l-55.126,40.425
			c-0.557,0.408-1.034,0.884-1.443,1.4c-7.354,1.195-14.417,4.513-20.138,9.984c-1.458,1.395-2.293,3.318-2.316,5.336
			s0.769,3.96,2.196,5.387l43.365,43.365c1.407,1.407,3.315,2.197,5.303,2.197c0.028,0,0.056,0,0.084,0
			c2.018-0.022,3.942-0.857,5.337-2.316c9.476-9.909,12.51-23.841,9.184-36.342l52.757-38.688
			c6.251-4.584,9.915-11.948,9.799-19.697l-0.01-0.646l14.992,8.091c0,0,9.204,61.441,10.354,64.015
			c-4.484,6.101-7.219,13.552-7.399,21.597c-0.045,2.018,0.725,3.969,2.136,5.412s3.344,2.256,5.362,2.256h61.328
			c2.018,0,3.951-0.813,5.362-2.256s2.181-3.394,2.136-5.412C221.909,472.603,210.335,458.321,194.838,453.718z M77.658,270.678
			c0-14.412,11.725-26.137,26.137-26.137c0.452,0,0.902,0.012,1.349,0.035c0.127,0.006,0.255,0.01,0.382,0.01h114.827
			c4.236,0,7.683,3.447,7.683,7.683c0,4.236-3.447,7.683-7.683,7.683h-83.081c-2.114,0-4.131,0.893-5.552,2.458
			c-1.421,1.565-2.116,3.658-1.913,5.762c0.083,0.856,0.125,1.699,0.125,2.506v58.945H77.658V270.678z M49.8,474.285l-30.629-30.628
			c8.536-3.806,18.977-2.213,25.91,4.719C52.013,455.307,53.606,465.747,49.8,474.285z M113.028,396.634
			c0.043,2.903-1.329,5.662-3.671,7.379L58.688,441.17c-0.924-1.179-1.918-2.319-3.001-3.402c-3.494-3.494-7.532-6.156-11.854-8
			l48.03-35.221c2.41-1.768,3.541-4.798,2.878-7.712l-2.341-10.29l20.494,11.061L113.028,396.634z M89.937,358.17
			c-0.136-0.073-0.274-0.143-0.415-0.208c-5.877-2.717-10.065-7.844-11.434-13.34h56.198l40.598,41.312
			c0.12,0.122,0.244,0.24,0.371,0.353l1.371,1.216c1.11,0.985,1.773,2.406,1.816,3.843l1.363,61.063
			c-4.832,0.557-9.411,2.028-13.546,4.247l-8.591-56.162c0.525-3.12-0.976-6.297-3.835-7.84L89.937,358.17z M162.467,482.138
			c3.346-8.728,11.855-14.984,21.658-14.984c9.803,0,18.312,6.256,21.658,14.984H162.467z"/>
		<path d="M500.41,185.599h-102.5c-4.143,0-7.5,3.358-7.5,7.5v36.486h-53.702c-0.635-0.029-1.272-0.044-1.913-0.044
			c-22.684,0-41.138,18.454-41.138,41.137v65.892c-1.605,10.753,3.171,21.962,11.975,29.493l4.391,19.3
			c0,0-56.159,41.308-56.568,41.824c-7.354,1.195-14.418,4.513-20.139,9.985c-1.458,1.395-2.293,3.318-2.316,5.336
			s0.769,3.96,2.196,5.387l43.365,43.365c1.408,1.407,3.315,2.197,5.304,2.197c0.027,0,0.056,0,0.084,0
			c2.018-0.022,3.941-0.857,5.337-2.316c9.439-9.871,12.488-23.733,9.224-36.196l52.714-38.928
			c6.237-4.605,9.876-11.981,9.734-19.73l-0.01-0.554l15.068,8.132c0,0,9.98,63.853,10.138,64.293
			c-4.361,6.048-7.014,13.394-7.192,21.314c-0.045,2.018,0.725,3.969,2.136,5.412s3.344,2.256,5.362,2.256h61.327
			c2.019,0,3.951-0.813,5.362-2.256s2.181-3.394,2.136-5.412c-0.378-16.867-11.952-31.149-27.449-35.752l-1.4-62.761
			c-0.167-5.607-2.666-10.956-6.857-14.674l-1.178-1.045l-40.471-41.175v-59.111h14.479v20.647c0,4.142,3.357,7.5,7.5,7.5h7.243
			c4.143,0,7.5-3.358,7.5-7.5c0-4.056-3.22-7.36-7.243-7.496v-13.152h45.942c12.507,0,22.683-10.176,22.683-22.683
			c0-12.507-10.176-22.683-22.683-22.683H405.41v-28.986h87.5v87.5h-57.757c-4.143,0-7.5,3.358-7.5,7.5s3.357,7.5,7.5,7.5h65.257
			c4.143,0,7.5-3.358,7.5-7.5v-102.5C507.91,188.957,504.553,185.599,500.41,185.599z M280.801,474.285l-30.629-30.629
			c8.539-3.805,18.979-2.212,25.91,4.719C283.013,455.307,284.605,465.747,280.801,474.285z M343.961,396.557
			c0.054,2.903-1.31,5.666-3.646,7.391l-50.545,37.326c-0.947-1.216-1.967-2.392-3.081-3.506c-3.495-3.494-7.533-6.156-11.854-8
			l48.03-35.221c2.41-1.767,3.541-4.797,2.878-7.711l-2.341-10.29l20.397,11.009L343.961,396.557z M436.782,482.138h-43.315
			c3.346-8.728,11.855-14.984,21.658-14.984S433.436,473.41,436.782,482.138z M406.257,386.289l1.369,1.214
			c1.11,0.986,1.773,2.407,1.816,3.844l1.362,61.063c-4.779,0.551-9.308,1.998-13.407,4.177l-8.727-56.108
			c0.517-3.115-0.983-6.284-3.838-7.824l-63.896-34.485c-0.137-0.073-0.274-0.143-0.415-0.208
			c-5.903-2.729-10.219-7.896-11.654-13.34h56.411l40.605,41.313C406.005,386.057,406.129,386.175,406.257,386.289z
			 M459.035,252.268c0,4.236-3.446,7.683-7.683,7.683h-83.08c-2.113,0-4.129,0.892-5.55,2.456c-1.422,1.563-2.117,3.654-1.916,5.758
			c0.083,0.869,0.125,1.714,0.125,2.512v58.945h-52.274v-58.945c0-14.412,11.726-26.137,26.138-26.137
			c0.452,0,0.901,0.012,1.348,0.035c0.128,0.006,0.255,0.01,0.383,0.01h114.827C455.589,244.585,459.035,248.032,459.035,252.268z"
			/>
		<path d="M336.971,219.229c17.521,0,31.246-18.314,31.246-41.695c0-23.38-13.725-41.694-31.246-41.694
			s-31.246,18.314-31.246,41.694C305.725,200.915,319.449,219.229,336.971,219.229z M336.971,150.84
			c8.807,0,16.246,12.225,16.246,26.694c0,14.47-7.439,26.695-16.246,26.695s-16.246-12.225-16.246-26.695
			C320.725,163.065,328.164,150.84,336.971,150.84z"/>
		<path d="M175.654,96.871c1.464,1.465,3.384,2.197,5.303,2.197s3.839-0.732,5.303-2.197l3.806-3.806l3.806,3.806
			c1.464,1.465,3.384,2.197,5.303,2.197c1.919,0,3.839-0.732,5.303-2.197c2.929-2.929,2.929-7.677,0-10.606l-3.806-3.806
			l3.806-3.806c2.929-2.929,2.929-7.678,0-10.606c-2.929-2.929-7.678-2.929-10.606,0l-3.806,3.806l-3.806-3.806
			c-2.928-2.929-7.677-2.929-10.606,0c-2.929,2.929-2.929,7.677,0,10.606l3.806,3.806l-3.806,3.806
			C172.725,89.194,172.725,93.943,175.654,96.871z"/>
		<path d="M415.543,134.147c1.465,1.465,3.384,2.197,5.304,2.197c1.919,0,3.839-0.732,5.303-2.197l3.807-3.807l3.807,3.807
			c1.464,1.465,3.384,2.197,5.303,2.197s3.839-0.732,5.304-2.197c2.929-2.929,2.929-7.678-0.001-10.606l-3.806-3.806l3.806-3.806
			c2.93-2.929,2.93-7.677,0.001-10.606c-2.929-2.929-7.678-2.93-10.606,0l-3.807,3.807l-3.807-3.807
			c-2.928-2.93-7.677-2.929-10.606,0c-2.929,2.929-2.929,7.678,0.001,10.606l3.806,3.806l-3.806,3.806
			C412.614,126.469,412.614,131.218,415.543,134.147z"/>
		<path d="M332.779,41.794c1.465,1.464,3.385,2.197,5.304,2.197s3.839-0.732,5.304-2.197l3.806-3.806l3.806,3.806
			c1.465,1.464,3.385,2.197,5.304,2.197s3.839-0.732,5.304-2.197c2.929-2.929,2.929-7.678,0-10.606l-3.806-3.806l3.806-3.806
			c2.929-2.929,2.929-7.678,0-10.606c-2.93-2.929-7.678-2.929-10.607,0l-3.806,3.806l-3.806-3.806c-2.93-2.929-7.678-2.929-10.607,0
			c-2.929,2.929-2.929,7.678,0,10.606l3.806,3.806l-3.806,3.806C329.851,34.117,329.851,38.866,332.779,41.794z"/>
	</g>
</g>
<g>
</g>
<g>
</g>
<g>
</g>
<g>
</g>
<g>
</g>
<g>
</g>
<g>
</g>
<g>
</g>
<g>
</g>
<g>
</g>
<g>
</g>
<g>
</g>
<g>
</g>
<g>
</g>
<g>
</g>
</svg>
