<?xml version="1.0" encoding="iso-8859-1"?>
<!-- Generator: Adobe Illustrator 21.0.0, SVG Export Plug-In . SVG Version: 6.00 Build 0)  -->
<svg version="1.1" id="Capa_1" xmlns="http://www.w3.org/2000/svg" xmlns:xlink="http://www.w3.org/1999/xlink" x="0px" y="0px"
	 viewBox="0 0 504.543 504.543" style="enable-background:new 0 0 504.543 504.543;" xml:space="preserve">
<g>
	<g>
		<polyline style="fill:#FFF4F1;" points="173.946,151.55 494.579,151.55 494.579,497.377 8.259,497.377 8.259,151.55 
			49.187,151.55 		"/>
	</g>
	<g>
		<line style="fill:#FFF4F1;" x1="50.04" y1="151.216" x2="174.799" y2="151.216"/>
	</g>
	<g>
		<rect x="463.678" y="151.216" style="fill:#E3E5E6;" width="31.753" height="345.827"/>
	</g>
	<g>
		<rect x="60.327" y="296.453" style="fill:#FC9086;" width="42.198" height="148.765"/>
	</g>
	<g>
		<rect x="102.525" y="320.77" style="fill:#FFD4C6;" width="42.198" height="124.447"/>
	</g>
	<g>
		<rect x="144.723" y="347.949" style="fill:#FFEC56;" width="42.198" height="97.269"/>
	</g>
	<g>
		<rect x="186.92" y="365.829" style="fill:#ACEDED;" width="42.198" height="79.389"/>
	</g>
	<g>
		<rect x="229.118" y="394.438" style="fill:#5E8EE1;" width="42.198" height="50.78"/>
	</g>
	<g>
		<circle style="fill:#ACEDED;" cx="391.873" cy="262.011" r="53.641"/>
	</g>
	<g>
		<path style="fill:#66D6E6;" d="M391.873,208.37c-5.528,0-10.859,0.838-15.877,2.391c21.874,6.769,37.764,27.153,37.764,51.251
			s-15.891,44.482-37.764,51.251c5.017,1.553,10.349,2.391,15.877,2.391c29.625,0,53.641-24.016,53.641-53.641
			S421.498,208.37,391.873,208.37z"/>
	</g>
	<g>
		<g>
			<path style="fill:#ACEDED;" d="M324,117.136c25.431,0,47.559,13.394,59.025,33.163c14.93-15.161,24.13-35.777,24.13-58.51
				c0-46.551-38.506-84.289-86.006-84.289s-86.006,37.737-86.006,84.289c0,24.695,10.838,46.908,28.105,62.324
				c0.402-1.233,0.943-2.456,1.634-3.655C276.319,130.601,298.501,117.136,324,117.136z"/>
		</g>
		<g>
			<g>
				<path style="fill:#66D6E6;" d="M321.148,7.5c-4.162,0-8.253,0.296-12.258,0.856c41.693,5.831,73.749,40.96,73.749,83.433
					c0,15.754-4.421,30.489-12.102,43.099c4.938,4.489,9.163,9.68,12.488,15.412c14.93-15.161,24.13-35.777,24.13-58.51
					C407.155,45.237,368.648,7.5,321.148,7.5z"/>
			</g>
		</g>
		<g>
			<path style="fill:#FFF4F1;" d="M383.025,150.299c-11.465-19.769-33.594-33.163-59.025-33.163c-25.5,0-47.681,13.465-59.12,33.321
				c-0.691,1.199-1.231,2.422-1.634,3.655c15.282,13.644,35.6,21.965,57.901,21.965
				C345.452,176.077,367.384,166.183,383.025,150.299z"/>
		</g>
		<g>
			<path style="fill:#DBDEDF;" d="M324,117.136c-4.187,0-8.283,0.37-12.259,1.065c13.708,2.396,25.962,8.734,35.414,17.733
				c7.577,7.214,6.684,19.603-2.002,25.435c-10.625,7.134-22.964,11.991-36.291,13.854c4.013,0.563,8.115,0.854,12.286,0.854
				c24.303,0,46.235-9.894,61.877-25.778C371.56,130.53,349.432,117.136,324,117.136z"/>
		</g>
		<g>
			<ellipse style="fill:#FFD4C6;" cx="322.699" cy="64.542" rx="20.155" ry="25.542"/>
		</g>
	</g>
	<g>
		<g>
			<path style="fill:#FC9086;" d="M113.876,117.136c25.431,0,47.559,13.394,59.025,33.163c14.93-15.161,24.13-35.777,24.13-58.51
				c0-46.551-38.506-84.289-86.006-84.289S25.018,45.237,25.018,91.789c0,24.695,10.838,46.908,28.105,62.324
				c0.402-1.233,0.943-2.456,1.634-3.655C66.195,130.601,88.377,117.136,113.876,117.136z"/>
		</g>
		<g>
			<g>
				<path style="fill:#F57A73;" d="M111.024,7.5c-4.162,0-8.253,0.296-12.258,0.856c41.693,5.831,73.749,40.96,73.749,83.433
					c0,15.754-4.421,30.489-12.102,43.099c4.938,4.489,9.163,9.68,12.488,15.412c14.93-15.161,24.13-35.777,24.13-58.51
					C197.031,45.237,158.524,7.5,111.024,7.5z"/>
			</g>
		</g>
		<g>
			<path style="fill:#FFF4F1;" d="M172.901,150.299c-11.465-19.769-33.594-33.163-59.025-33.163c-25.5,0-47.681,13.465-59.12,33.321
				c-0.691,1.199-1.231,2.422-1.634,3.655c15.282,13.644,35.6,21.965,57.901,21.965C135.328,176.077,157.26,166.183,172.901,150.299
				z"/>
		</g>
		<g>
			<path style="fill:#DBDEDF;" d="M113.876,117.136c-4.187,0-8.283,0.37-12.259,1.065c13.708,2.396,25.962,8.734,35.414,17.733
				c7.577,7.214,6.684,19.603-2.002,25.435c-10.625,7.134-22.964,11.991-36.291,13.854c4.013,0.563,8.115,0.854,12.286,0.854
				c24.303,0,46.235-9.894,61.877-25.778C161.436,130.53,139.307,117.136,113.876,117.136z"/>
		</g>
		<g>
			<ellipse style="fill:#FFD4C6;" cx="112.575" cy="64.542" rx="20.155" ry="25.542"/>
		</g>
	</g>
	<g>
		<path d="M322.699,97.583c15.249,0,27.655-14.822,27.655-33.042S337.948,31.5,322.699,31.5s-27.654,14.822-27.654,33.042
			S307.45,97.583,322.699,97.583z M322.699,46.5c6.86,0,12.655,8.262,12.655,18.042s-5.795,18.042-12.655,18.042
			c-6.859,0-12.654-8.262-12.654-18.042S315.84,46.5,322.699,46.5z"/>
		<path d="M112.575,97.583c15.249,0,27.655-14.822,27.655-33.042S127.824,31.5,112.575,31.5S84.921,46.322,84.921,64.542
			S97.326,97.583,112.575,97.583z M112.575,46.5c6.86,0,12.655,8.262,12.655,18.042s-5.795,18.042-12.655,18.042
			c-6.859,0-12.654-8.262-12.654-18.042S105.716,46.5,112.575,46.5z"/>
		<path d="M285.157,489.543H16.612V263.777c0-4.142-3.357-7.5-7.5-7.5s-7.5,3.358-7.5,7.5v233.267c0,4.142,3.357,7.5,7.5,7.5
			h276.045c4.143,0,7.5-3.358,7.5-7.5S289.3,489.543,285.157,489.543z"/>
		<path d="M495.431,143.716h-97.213c10.666-15.192,16.437-33.165,16.437-51.928C414.655,41.176,372.708,0,321.148,0
			s-93.506,41.176-93.506,91.789c0,18.654,5.837,36.762,16.424,51.928h-55.972c10.666-15.192,16.437-33.165,16.437-51.928
			C204.531,41.176,162.584,0,111.024,0S17.518,41.176,17.518,91.789c0,18.654,5.837,36.762,16.424,51.928H9.112
			c-4.143,0-7.5,3.358-7.5,7.5v82.561c0,4.142,3.357,7.5,7.5,7.5s7.5-3.358,7.5-7.5v-75.061h28.927c0.457,0,0.903-0.047,1.338-0.126
			l1.251,1.117c17.241,15.393,39.578,23.87,62.896,23.87c24.028,0,46.565-8.796,63.96-24.861h82.157l1.11,0.991
			c17.241,15.393,39.578,23.87,62.896,23.87c24.056,0,46.617-8.817,64.021-24.917c0.291,0.034,0.585,0.057,0.885,0.057h101.878
			v330.827H315.157c-4.143,0-7.5,3.358-7.5,7.5s3.357,7.5,7.5,7.5h180.274c4.143,0,7.5-3.358,7.5-7.5V151.216
			C502.931,147.074,499.574,143.716,495.431,143.716z M321.148,15c43.289,0,78.507,34.447,78.507,76.788
			c0,9.319-1.729,18.618-5.11,27.304c-1.737,4.462-3.901,8.757-6.451,12.809c-3.889,6.181-4.994,4.822-9.665,0.166
			c-5.199-5.183-11.092-9.584-17.558-13.066c-12.657-6.816-27.242-10.145-41.605-9.258c-21.971,1.357-43.617,12.642-56.656,30.484
			c-0.199,0.272-0.393,0.547-0.588,0.822c-0.163,0.23-0.331,0.455-0.491,0.687c-12.097-13.836-18.888-31.583-18.888-49.948
			C242.642,49.447,277.86,15,321.148,15z M111.024,15c43.289,0,78.507,34.447,78.507,76.789c0,8.183-1.329,16.356-3.949,24.11
			c-2.08,6.156-6.274,18.495-12.122,21.833c-5.375-4.925-9.642-10.311-15.754-14.51c-5.873-4.035-12.321-7.223-19.076-9.489
			c-13.344-4.476-27.886-5.335-41.633-2.259c-17.785,3.98-34.418,14.525-45.099,29.577c-0.163,0.23-0.331,0.455-0.491,0.687
			c-12.097-13.836-18.888-31.583-18.888-49.948C32.518,49.447,67.736,15,111.024,15z M111.024,168.577
			c-17.704,0-34.726-5.796-48.524-16.423c10.332-16.282,29.463-26.655,48.613-27.516c19.822-0.891,40.337,8.376,52.09,24.501
			C148.817,161.716,130.508,168.577,111.024,168.577z M321.148,168.616c-17.344-0.021-34.643-5.871-48.411-16.426
			c10.746-18.374,33.951-28.643,54.728-27.483c17.854,0.996,35.089,10.164,45.895,24.411c-13.715,11.91-31.608,18.908-49.764,19.463
			C322.78,168.605,321.964,168.617,321.148,168.616z"/>
		<path d="M61.912,256.683h215.411c4.143,0,7.5-3.358,7.5-7.5s-3.357-7.5-7.5-7.5H61.912c-4.143,0-7.5,3.358-7.5,7.5
			S57.769,256.683,61.912,256.683z"/>
		<path d="M441.807,358.978h-99.869c-4.143,0-7.5,3.358-7.5,7.5s3.357,7.5,7.5,7.5h99.869c4.143,0,7.5-3.358,7.5-7.5
			S445.95,358.978,441.807,358.978z"/>
		<path d="M441.807,391.163h-99.869c-4.143,0-7.5,3.358-7.5,7.5s3.357,7.5,7.5,7.5h99.869c4.143,0,7.5-3.358,7.5-7.5
			S445.95,391.163,441.807,391.163z"/>
		<path d="M441.807,423.347h-99.869c-4.143,0-7.5,3.358-7.5,7.5s3.357,7.5,7.5,7.5h99.869c4.143,0,7.5-3.358,7.5-7.5
			S445.95,423.347,441.807,423.347z"/>
		<path d="M61.912,223.783h215.411c4.143,0,7.5-3.358,7.5-7.5s-3.357-7.5-7.5-7.5H61.912c-4.143,0-7.5,3.358-7.5,7.5
			S57.769,223.783,61.912,223.783z"/>
		<path d="M52.827,445.218c0,4.142,3.357,7.5,7.5,7.5h42.198h42.197h42.198h42.197h42.198c4.143,0,7.5-3.358,7.5-7.5v-50.78
			c0-4.142-3.357-7.5-7.5-7.5h-34.698v-21.108c0-4.142-3.357-7.5-7.5-7.5h-34.697v-10.38c0-4.142-3.357-7.5-7.5-7.5h-34.698v-19.678
			c0-4.142-3.357-7.5-7.5-7.5h-34.697v-16.817c0-4.142-3.357-7.5-7.5-7.5H60.327c-4.143,0-7.5,3.358-7.5,7.5V445.218z
			 M263.816,401.938v35.78h-27.198v-35.78H263.816z M221.618,373.329v21.108v43.28h-27.197v-64.389H221.618z M179.421,355.449v10.38
			v71.889h-27.198v-82.269H179.421z M137.222,328.271v19.678v89.769h-27.197V328.271H137.222z M67.827,303.953h27.198v16.817
			v116.947H67.827V303.953z"/>
		<path d="M391.873,200.87c-33.714,0-61.142,27.428-61.142,61.141s27.428,61.141,61.142,61.141s61.142-27.428,61.142-61.141
			S425.587,200.87,391.873,200.87z M437.645,256.277h-38.272v-39.788C419.402,219.778,435.119,236.005,437.645,256.277z
			 M384.373,216.489v39.788H346.1C348.626,236.005,364.344,219.778,384.373,216.489z M346.666,271.277h37.707v36.256
			C365.52,304.438,350.475,289.883,346.666,271.277z M399.373,307.533v-36.256h37.707
			C433.271,289.883,418.226,304.438,399.373,307.533z"/>
	</g>
</g>
<g>
</g>
<g>
</g>
<g>
</g>
<g>
</g>
<g>
</g>
<g>
</g>
<g>
</g>
<g>
</g>
<g>
</g>
<g>
</g>
<g>
</g>
<g>
</g>
<g>
</g>
<g>
</g>
<g>
</g>
</svg>
