<?xml version="1.0" encoding="iso-8859-1"?>
<!-- Generator: Adobe Illustrator 21.0.0, SVG Export Plug-In . SVG Version: 6.00 Build 0)  -->
<svg version="1.1" id="Capa_1" xmlns="http://www.w3.org/2000/svg" xmlns:xlink="http://www.w3.org/1999/xlink" x="0px" y="0px"
	 viewBox="0 0 512.145 512.145" style="enable-background:new 0 0 512.145 512.145;" xml:space="preserve">
<g>
	<g>
		<path style="fill:#5E8EE1;" d="M228.386,503.004v-71.258c0-37.954-31.054-66.008-69.008-66.008h-42.434
			c-37.954,0-69.008,28.053-69.008,66.008v71.258H228.386z"/>
	</g>
	<g>
		<path style="fill:#467BFF;" d="M159.378,365.738h-30c37.954,0,69.008,28.053,69.008,66.008v71.258h30v-71.258
			C228.386,393.792,197.332,365.738,159.378,365.738z"/>
	</g>
	<g>
		<polyline style="fill:#BE7511;" points="277.622,360.973 287.622,261.897 462.758,261.897 472.259,357.342 		"/>
	</g>
	<g>
		<path style="fill:#5E8EE1;" d="M465.386,504.645v-71.258c0-37.954-31.053-66.008-69.008-66.008h-42.434
			c-37.954,0-69.008,28.054-69.008,66.008v71.258H465.386z"/>
	</g>
	<g>
		<path style="fill:#467BFF;" d="M396.378,367.379h-30c37.954,0,69.008,28.053,69.008,66.008v71.258h30v-71.258
			C465.386,395.433,434.332,367.379,396.378,367.379z"/>
	</g>
	<g>
		<circle style="fill:#FFF4F1;" cx="247.692" cy="88.5" r="81"/>
	</g>
	<g>
		<path style="fill:#DFE2E3;" d="M247.692,7.5c-5.128,0-10.137,0.498-15,1.409c37.565,7.037,66,39.983,66,79.591
			s-28.435,72.553-66,79.591c4.863,0.911,9.872,1.409,15,1.409c44.735,0,81-36.265,81-81S292.427,7.5,247.692,7.5z"/>
	</g>
	<g>
		<circle style="fill:#FFD4C6;" cx="137.756" cy="375.577" r="37.738"/>
	</g>
	<g>
		<path style="fill:#FFD4C6;" d="M65.086,315.144c-1.547,0.321-3.148,0.492-4.789,0.497c-13.129,0.039-23.804-10.572-23.843-23.701
			c-0.039-13.129,10.572-23.804,23.701-23.843c1.014-0.003,2.012,0.057,2.993,0.178"/>
	</g>
	<g>
		<path style="fill:#FFD4C6;" d="M212.823,267.725c0.668-0.058,1.343-0.089,2.026-0.091c13.129-0.039,23.804,10.572,23.843,23.701
			c0.039,13.129-10.572,23.804-23.701,23.843c-0.623,0.002-1.241-0.02-1.853-0.066"/>
	</g>
	<g>
		<path style="fill:#FFD4C6;" d="M64.8,245.917l0.192,64.169c0.121,40.296,33.189,73.166,73.484,73.045h0
			c40.296-0.121,73.166-33.189,73.045-73.484l-0.191-63.73H64.8z"/>
	</g>
	<g>
		<ellipse transform="matrix(1 -0.003 0.003 1 -0.9356 0.3244)" cx="107.791" cy="312.357" rx="8.509" ry="8.509"/>
	</g>
	<g>
		<ellipse transform="matrix(1 -0.003 0.003 1 -0.9348 0.5046)" cx="167.894" cy="312.177" rx="8.509" ry="8.509"/>
	</g>
	<g>
		<path style="fill:#FDC1BB;" d="M211.331,245.917h-30l0.191,63.73c0.106,35.227-25.003,64.928-58.244,71.924
			c4.91,1.031,9.992,1.576,15.198,1.56h0c40.296-0.121,73.166-33.189,73.045-73.484L211.331,245.917z"/>
	</g>
	<g>
		<path style="fill:#DC8839;" d="M192.626,186.288c-11.225,0.41-21.15,5.584-27.909,13.504c-6.667-5.888-15.509-9.335-25.1-8.985
			c-11.085,0.405-20.81,5.789-27.113,13.92c-6.684-13.305-20.674-22.214-36.526-21.635c-21.67,0.791-38.595,18.999-37.804,40.669
			c0.791,21.67,18.999,38.595,40.669,37.804c12.885-0.47,24.092-7.1,30.895-16.952c6.433,11.201,18.697,18.554,32.502,18.051
			c9.59-0.35,18.158-4.433,24.378-10.791c7.318,7.406,17.594,11.843,28.819,11.433c21.268-0.776,37.88-18.647,37.103-39.914
			S213.894,185.512,192.626,186.288z"/>
	</g>
	<g>
		<g>
			<path style="fill:#BE7511;" d="M232.541,223.391c-0.776-21.268-18.647-37.879-39.914-37.103
				c-4.823,0.176-9.403,1.237-13.598,3.011c13.357,5.654,22.948,18.64,23.512,34.092c0.6,16.444-9.198,30.849-23.502,36.9
				c5.027,2.129,10.583,3.227,16.399,3.015C216.705,262.53,233.317,244.659,232.541,223.391z"/>
		</g>
	</g>
	<g>
		<ellipse style="fill:#FC9086;" cx="101.158" cy="338.722" rx="11.906" ry="6.29"/>
	</g>
	<g>
		<ellipse style="fill:#FC9086;" cx="176.183" cy="338.722" rx="11.906" ry="6.29"/>
	</g>
	<g>
		<circle style="fill:#FC9086;" cx="374.756" cy="377.219" r="37.738"/>
	</g>
	<g>
		<circle style="fill:#FFF4F1;" cx="369.692" cy="121.5" r="16"/>
	</g>
	<g>
		<circle style="fill:#FFF4F1;" cx="129.378" cy="134.899" r="16"/>
	</g>
	<g>
		<path style="fill:#F86654;" d="M267.738,59.939c-8.702,0-16.253,4.911-20.046,12.11c-3.792-7.199-11.344-12.11-20.046-12.11
			C215.139,59.939,205,70.078,205,82.586c0,3.467,0.633,6.825,2.171,9.688c7.608,14.17,40.521,31.043,40.521,31.043
			s32.959-16.67,40.521-31.043c1.514-2.877,2.171-6.222,2.171-9.688C290.385,70.078,280.246,59.939,267.738,59.939z"/>
	</g>
	<g>
		<path style="fill:#FFF4F1;" d="M197.573,503.004c0-33.137-26.863-60-60-60s-60,26.863-60,60"/>
	</g>
	<g>
		<path style="fill:#DBDEDF;" d="M137.573,443.004c-5.18,0-10.206,0.656-15,1.89c25.878,6.661,45,30.152,45,58.11h30
			C197.573,469.866,170.71,443.004,137.573,443.004z"/>
	</g>
	<g>
		<g>
			<path style="fill:#EA543C;" d="M267.738,59.939c-5.755,0-10.998,2.157-14.992,5.693c4.683,4.149,7.639,10.205,7.639,16.953
				c0,3.467-0.658,6.812-2.171,9.688c-4.109,7.811-15.714,16.294-25.459,22.417c8.133,5.134,14.938,8.625,14.938,8.625
				s32.959-16.67,40.521-31.043c1.514-2.877,2.171-6.222,2.171-9.688C290.385,70.078,280.246,59.939,267.738,59.939z"/>
		</g>
	</g>
	<g>
		<path style="fill:#FFD4C6;" d="M301.8,247.559l0.192,64.169c0.121,40.296,33.189,73.166,73.484,73.045h0
			c40.296-0.121,73.166-33.189,73.045-73.484l-0.191-63.73H301.8z"/>
	</g>
	<g>
		<path style="fill:#FDC1BB;" d="M448.331,247.559h-30l0.191,63.73c0.106,35.227-25.003,64.928-58.243,71.924
			c4.91,1.031,9.992,1.576,15.198,1.56h0c40.296-0.121,73.166-33.188,73.045-73.484L448.331,247.559z"/>
	</g>
	<g>
		<path style="fill:#FFD4C6;" d="M302.086,316.786c-1.547,0.321-3.148,0.492-4.789,0.497c-13.129,0.039-23.804-10.572-23.843-23.701
			c-0.039-13.129,10.572-23.804,23.701-23.843c1.014-0.003,2.012,0.057,2.993,0.178"/>
	</g>
	<g>
		<path style="fill:#FFD4C6;" d="M449.823,269.366c0.668-0.058,1.343-0.089,2.026-0.091c13.129-0.039,23.804,10.572,23.843,23.701
			c0.039,13.129-10.572,23.804-23.701,23.843c-0.623,0.002-1.241-0.02-1.853-0.066"/>
	</g>
	<g>
		<ellipse transform="matrix(1 -0.003 0.003 1 -0.9395 1.0347)" cx="344.791" cy="313.999" rx="8.509" ry="8.509"/>
	</g>
	<g>
		<ellipse transform="matrix(1 -0.003 0.003 1 -0.9387 1.2149)" cx="404.894" cy="313.819" rx="8.509" ry="8.509"/>
	</g>
	<g>
		<ellipse style="fill:#FC9086;" cx="338.158" cy="340.363" rx="11.906" ry="6.29"/>
	</g>
	<g>
		<ellipse style="fill:#FC9086;" cx="413.183" cy="340.363" rx="11.906" ry="6.29"/>
	</g>
	<g>
		<path style="fill:#DC8839;" d="M466.288,266.586l-0.025-8.432c-0.15-50.16-41.313-91.077-91.473-90.926h0
			c-50.16,0.15-91.077,41.313-90.927,91.473l0.024,7.886H466.288z"/>
	</g>
	<g>
		<path style="fill:#BE7511;" d="M466.262,258.154c-0.15-50.16-41.313-91.077-91.473-90.927h0
			c-5.013,0.015-9.931,0.446-14.727,1.249c42.979,7.191,76.066,44.719,76.201,89.678l0.025,8.433h30L466.262,258.154z"/>
	</g>
	<g>
		<path style="fill:#FFF4F1;" d="M436.573,504.645c0-33.137-26.863-60-60-60s-60,26.863-60,60"/>
	</g>
	<g>
		<path style="fill:#DBDEDF;" d="M376.573,444.645c-5.18,0-10.206,0.656-15,1.89c25.878,6.661,45,30.152,45,58.11h30
			C436.573,471.508,409.71,444.645,376.573,444.645z"/>
	</g>
	<g>
		<path d="M137.724,360.853c-7.194,0-14.072-2.671-19.377-7.527c-3.055-2.797-3.265-7.541-0.468-10.597
			c2.798-3.055,7.542-3.264,10.597-0.468c2.541,2.326,5.824,3.606,9.291,3.592c3.449-0.01,6.74-1.305,9.268-3.646
			c3.04-2.815,7.785-2.632,10.599,0.407c2.814,3.039,2.632,7.784-0.407,10.599c-5.297,4.905-12.192,7.619-19.415,7.641
			C137.782,360.853,137.752,360.853,137.724,360.853z"/>
	</g>
	<g>
		<path style="fill:#FFD4C6;" d="M412.494,377.219c0,20.842-16.896,37.738-37.738,37.738s-37.738-16.896-37.738-37.738"/>
		<path d="M374.756,422.457c-24.944,0-45.238-20.293-45.238-45.238c0-4.142,3.358-7.5,7.5-7.5s7.5,3.358,7.5,7.5
			c0,16.673,13.564,30.238,30.238,30.238s30.238-13.564,30.238-30.238c0-4.142,3.358-7.5,7.5-7.5s7.5,3.358,7.5,7.5
			C419.994,402.163,399.7,422.457,374.756,422.457z"/>
	</g>
	<path d="M218.018,322.525c7.216-0.705,13.904-3.865,19.081-9.073c5.889-5.924,9.118-13.787,9.093-22.14s-3.301-16.196-9.226-22.085
		c-4.09-4.065-9.082-6.854-14.545-8.189c1.882-1.48,3.666-3.111,5.327-4.898c8.372-9.006,12.735-20.733,12.287-33.021
		c-0.449-12.288-5.656-23.667-14.662-32.038c-9.006-8.372-20.73-12.729-33.021-12.287c-10.471,0.382-20.485,4.363-28.351,11.125
		c-7.329-4.609-15.873-6.924-24.658-6.605c-9.464,0.346-18.413,3.736-25.635,9.552c-9.144-11.234-23.19-17.803-38.003-17.267
		c-12.482,0.456-24.041,5.745-32.544,14.894c-8.504,9.148-12.937,21.062-12.481,33.543c0.456,12.482,5.745,24.041,14.894,32.545
		c2.049,1.905,4.244,3.594,6.546,5.081c-5.28,1.407-10.119,4.185-14.073,8.163c-5.889,5.924-9.118,13.787-9.093,22.14
		s3.301,16.197,9.226,22.085c5.514,5.481,12.707,8.656,20.412,9.05c2.818,17.026,10.964,32.271,22.676,43.944
		c-10.87,5.562-20.098,13.212-26.986,22.435c-9.057,12.126-13.845,26.742-13.845,42.268v29.958c0,4.142,3.358,7.5,7.5,7.5
		s7.5-3.358,7.5-7.5v-29.958c0-23.677,13.85-43.515,37.171-53.459c1.407,23.687,21.115,42.529,45.149,42.529
		c24.15,0,43.939-19.022,45.176-42.869c23.824,9.698,37.953,29.622,37.953,53.799v63.758h-16.24c-3.744-33.702-32.39-60-67.073-60
		s-63.329,26.298-67.073,60H55.436v-3.8c0-4.142-3.358-7.5-7.5-7.5s-7.5,3.358-7.5,7.5v11.3c0,4.142,3.358,7.5,7.5,7.5h180.45
		c4.142,0,7.5-3.358,7.5-7.5v-71.258c0-27.756-15.348-51.728-40.696-64.659C207.065,355.269,215.287,339.797,218.018,322.525z
		 M137.573,450.503c26.402,0,48.304,19.593,51.956,45H85.617C89.268,470.096,111.171,450.503,137.573,450.503z M231.192,291.357
		c0.013,4.347-1.667,8.438-4.731,11.521c-2.087,2.1-4.652,3.542-7.446,4.264l-0.095-31.503c2.797,0.705,5.372,2.139,7.472,4.227
		C229.474,282.929,231.179,287.01,231.192,291.357z M76.252,190.587c12.393-0.458,23.982,6.42,29.551,17.506
		c1.156,2.301,3.413,3.849,5.976,4.098c2.568,0.245,5.076-0.835,6.654-2.87c5.189-6.694,13.011-10.711,21.458-11.02
		c7.319-0.26,14.367,2.258,19.861,7.111c1.508,1.331,3.488,1.995,5.493,1.86c2.006-0.142,3.872-1.083,5.177-2.613
		c5.63-6.597,13.822-10.562,22.477-10.877c8.281-0.304,16.19,2.639,22.262,8.283c6.072,5.644,9.582,13.314,9.884,21.599
		c0.303,8.284-2.639,16.19-8.283,22.262c-5.644,6.071-13.314,9.582-21.599,9.884c-8.659,0.318-17.114-3.041-23.21-9.209
		c-1.409-1.426-3.331-2.229-5.335-2.229c-0.006,0-0.013,0-0.019,0c-2.011,0.005-3.936,0.818-5.343,2.256
		c-5.125,5.24-11.976,8.273-19.289,8.54c-10.591,0.375-20.441-5.09-25.725-14.291c-1.282-2.232-3.62-3.651-6.193-3.758
		c-2.563-0.108-5.02,1.113-6.483,3.232c-5.765,8.349-14.876,13.35-24.997,13.719c-8.474,0.316-16.57-2.701-22.784-8.478
		c-6.214-5.776-9.807-13.627-10.116-22.105C45.031,205.985,58.75,191.226,76.252,190.587z M43.953,291.918
		c-0.013-4.347,1.667-8.438,4.731-11.521c2.398-2.412,5.422-3.966,8.705-4.54l0.096,32.04c-3.286-0.555-6.32-2.09-8.732-4.487
		C45.671,300.346,43.966,296.265,43.953,291.918z M72.492,310.064l-0.123-41.242c2.222,0.237,4.475,0.321,6.748,0.239
		c11.28-0.412,22.013-4.963,30.171-12.539c8.479,9.025,20.519,14.095,33.226,13.637c8.789-0.321,17.138-3.254,24.11-8.385
		c7.896,5.842,17.53,9.058,27.42,9.058c0.554,0,1.11-0.01,1.666-0.03c2.787-0.102,5.523-0.46,8.191-1.04l0.12,39.909
		c0.108,36.263-29.305,65.854-65.568,65.962c-0.068,0-0.131,0-0.2,0C102.085,375.632,72.6,346.258,72.492,310.064z M137.756,405.815
		c-13.325,0-24.657-8.668-28.674-20.659c9.056,3.522,18.888,5.475,29.171,5.475c0.082,0,0.164,0,0.246,0
		c9.76-0.029,19.115-1.799,27.774-5.011C162.122,397.371,150.909,405.815,137.756,405.815z"/>
	<g>
		<path d="M247.693,177c-48.799,0-88.5-39.701-88.5-88.5S198.893,0,247.693,0s88.5,39.701,88.5,88.5S296.492,177,247.693,177z
			 M247.693,15c-40.528,0-73.5,32.972-73.5,73.5s32.972,73.5,73.5,73.5s73.5-32.972,73.5-73.5S288.22,15,247.693,15z"/>
	</g>
	<g>
		<path d="M369.693,145c-12.958,0-23.5-10.542-23.5-23.5s10.542-23.5,23.5-23.5s23.5,10.542,23.5,23.5S382.651,145,369.693,145z
			 M369.693,113c-4.687,0-8.5,3.813-8.5,8.5s3.813,8.5,8.5,8.5s8.5-3.813,8.5-8.5S374.38,113,369.693,113z"/>
	</g>
	<g>
		<path d="M129.378,158.398c-12.958,0-23.5-10.542-23.5-23.5s10.542-23.5,23.5-23.5s23.5,10.542,23.5,23.5
			S142.336,158.398,129.378,158.398z M129.378,126.398c-4.687,0-8.5,3.813-8.5,8.5s3.813,8.5,8.5,8.5s8.5-3.813,8.5-8.5
			S134.065,126.398,129.378,126.398z"/>
	</g>
	<g>
		<path d="M247.693,130.816c-1.174,0-2.348-0.275-3.421-0.826c-3.582-1.836-35.239-18.395-43.708-34.169
			c-2.033-3.786-3.063-8.24-3.063-13.236c0-16.623,13.524-30.147,30.147-30.147c7.534,0,14.619,2.784,20.046,7.621
			c5.427-4.837,12.511-7.621,20.045-7.621c16.623,0,30.147,13.524,30.147,30.147c0,4.92-1.021,9.355-3.034,13.181
			c-8.434,16.029-40.181,32.426-43.773,34.243C250.013,130.547,248.853,130.816,247.693,130.816z M227.647,67.438
			c-8.352,0-15.147,6.795-15.147,15.147c0,2.458,0.442,4.582,1.279,6.141c4.312,8.031,21.832,19.509,33.933,26.113
			c12.099-6.538,29.6-17.952,33.865-26.058c0.856-1.627,1.309-3.77,1.309-6.196c0-8.352-6.795-15.147-15.147-15.147
			c-5.638,0-10.776,3.106-13.41,8.105c-1.297,2.462-3.852,4.004-6.636,4.004c-2.783,0-5.338-1.542-6.636-4.004
			C238.423,70.544,233.284,67.438,227.647,67.438z"/>
	</g>
	<g>
		<path d="M374.724,362.494c-7.194,0-14.071-2.671-19.377-7.527c-3.055-2.796-3.265-7.541-0.468-10.596
			c2.796-3.056,7.54-3.266,10.596-0.468c2.542,2.326,5.871,3.583,9.291,3.592c3.449-0.01,6.74-1.305,9.268-3.646
			c3.04-2.815,7.785-2.631,10.599,0.407c2.814,3.039,2.632,7.784-0.407,10.599c-5.297,4.905-12.192,7.619-19.415,7.641
			C374.782,362.494,374.752,362.494,374.724,362.494z"/>
	</g>
	<path d="M475.666,313.384c4.887-5.689,7.548-12.855,7.526-20.431c-0.025-8.353-3.301-16.196-9.226-22.085
		c-0.32-0.318-0.648-0.625-0.979-0.927c0.521-1.04,0.803-2.193,0.8-3.377l-0.025-8.433c-0.163-54.423-44.606-98.547-98.996-98.404
		c-15.982,0.048-31.873,4.05-45.954,11.575c-3.653,1.952-5.032,6.496-3.08,10.149s6.496,5.033,10.149,3.08
		c11.928-6.374,25.389-9.764,38.93-9.804c0.087,0,0.168,0,0.255,0c46.033,0,83.558,37.384,83.696,83.449l0.003,0.91H291.363
		l-0.001-0.408c-0.064-21.649,8.719-43.102,24.1-58.857c2.894-2.964,2.836-7.712-0.127-10.606
		c-2.965-2.894-7.713-2.836-10.606,0.127c-18.104,18.545-28.442,43.833-28.366,69.381l0.024,7.886
		c0.003,1.078,0.238,2.1,0.651,3.025c-0.684,0.58-1.351,1.187-1.991,1.83c-5.889,5.924-9.118,13.787-9.093,22.14
		c0.024,8.173,3.168,15.853,8.853,21.696c-0.111,0.405-0.196,0.822-0.238,1.254l-4.12,42.235c-0.21,0.691-0.325,1.423-0.325,2.183
		c0,4.142,3.358,7.5,7.5,7.5h0.146c0.003,0,0.007,0,0.01,0c0.003,0,0.007,0,0.01,0h40.351c0.055,0.055,0.105,0.112,0.16,0.167
		c-25.45,12.904-40.863,36.914-40.863,64.747v71.258c0,4.142,3.358,7.5,7.5,7.5h180.45c4.142,0,7.5-3.358,7.5-7.5v-71.258
		c0-28.036-15.285-51.901-40.649-64.706c0.071-0.071,0.146-0.137,0.217-0.208h38.605c0.262,0,0.52-0.014,0.775-0.04
		c0.25,0.025,0.502,0.041,0.757,0.041c0.234,0,0.472-0.011,0.709-0.033c4.124-0.387,7.154-4.044,6.767-8.168L475.666,313.384z
		 M285.753,305.051c-3.083-3.064-4.788-7.145-4.8-11.492c-0.013-4.347,1.667-8.438,4.731-11.521
		c2.395-2.409,5.415-3.963,8.693-4.539l0.107,32.038C291.199,308.984,288.165,307.449,285.753,305.051z M328.956,358.087
		c-12.499-12.425-19.412-28.897-19.464-46.385l-0.126-37.616h131.531l0.125,37.225c0.065,21.745-10.492,41.081-26.769,53.109
		c-0.392,0.229-0.762,0.495-1.108,0.793c-10.666,7.547-23.66,12.017-37.69,12.059c-0.067,0-0.133,0-0.2,0
		C357.843,377.273,341.407,370.464,328.956,358.087z M456.013,308.777l-0.106-31.493c2.803,0.704,5.381,2.132,7.484,4.223
		c3.083,3.064,4.788,7.145,4.8,11.492C468.215,300.572,463.026,306.95,456.013,308.777z M455.018,324.167
		c2.216-0.217,4.381-0.669,6.469-1.338l2.876,30.644h-20.132C449.609,344.665,453.343,334.754,455.018,324.167z M286.036,353.473
		l2.907-29.802c2.153,0.587,4.378,0.952,6.649,1.068c1.688,10.21,5.314,19.934,10.712,28.734H286.036z M324.617,497.145
		c3.651-25.407,25.554-45,51.956-45s48.304,19.593,51.956,45H324.617z M457.885,433.387v63.758h-14.24
		c-3.744-33.702-32.39-60-67.073-60s-63.329,26.298-67.073,60h-17.063v-63.758c0-24.51,14.503-44.631,38.899-54.175
		c12.99,8.495,28.119,13.061,43.917,13.061c0.082,0,0.165,0,0.246,0c16.084-0.048,31.058-4.838,43.636-13.012
		C443.132,388.612,457.885,409.051,457.885,433.387z"/>
</g>
<g>
</g>
<g>
</g>
<g>
</g>
<g>
</g>
<g>
</g>
<g>
</g>
<g>
</g>
<g>
</g>
<g>
</g>
<g>
</g>
<g>
</g>
<g>
</g>
<g>
</g>
<g>
</g>
<g>
</g>
</svg>
