<?xml version="1.0" encoding="iso-8859-1"?>
<!-- Generator: Adobe Illustrator 21.0.0, SVG Export Plug-In . SVG Version: 6.00 Build 0)  -->
<svg version="1.1" id="Capa_1" xmlns="http://www.w3.org/2000/svg" xmlns:xlink="http://www.w3.org/1999/xlink" x="0px" y="0px"
	 viewBox="0 0 508.004 508.004" style="enable-background:new 0 0 508.004 508.004;" xml:space="preserve">
<g>
	<path style="fill:#5E8EE1;" d="M390.368,27.559h43.061c14.777,0,26.756,11.979,26.756,26.756v265.88h-96.573V54.315
		C363.612,39.538,375.591,27.559,390.368,27.559z"/>
</g>
<g>
	<path style="fill:#467BFF;" d="M433.09,27.559h-30.381c14.964,0,27.096,12.131,27.096,27.096v265.54h30.381V54.654
		C460.185,39.69,448.054,27.559,433.09,27.559z"/>
</g>
<g>
	<rect x="363.612" y="230.114" style="fill:#FFFFFF;" width="96.573" height="90.081"/>
</g>
<g>
	<rect x="429.804" y="230.114" style="fill:#DBDEDF;" width="30.381" height="90.081"/>
</g>
<g>
	<path style="fill:#5E8EE1;" d="M32.25,115.007V71.945c0-14.777,11.979-26.756,26.756-26.756h265.88v96.573H59.006
		C44.229,141.762,32.25,129.783,32.25,115.007z"/>
</g>
<g>
	<rect x="234.805" y="45.189" style="fill:#FFFFFF;" width="90.081" height="96.573"/>
</g>
<g>
	<path style="fill:#FFD4C6;" d="M399.581,196.468c5.446-7.669,3.628-18.401-4.042-23.847l-16.828-11.95l97.719-0.073
		c9.407,0,17.103-7.697,17.103-17.103c0-9.407-7.696-17.103-17.103-17.103h6.971c9.407,0,17.103-7.696,17.103-17.103v0
		c0-9.407-7.696-17.103-17.103-17.103h-6.337c9.407,0,17.103-7.696,17.103-17.103c0-9.407-7.696-17.103-17.103-17.103h-13.972
		h-61.528v-0.023h54.238c9.407,0,17.103-7.696,17.103-17.103c0-9.407-7.697-17.103-17.103-17.103l-120.552,2.064
		c-37.776,0-68.4,31.595-68.4,69.371v0c0,30.932,20.537,59.97,48.716,68.425l60.167,36.899
		C383.403,205.956,394.134,204.137,399.581,196.468z"/>
</g>
<g>
	<g>
		<path style="fill:#FDBEB8;" d="M442.525,40.853c0,9.407-7.696,17.103-17.103,17.103h30.381c9.407,0,17.103-7.697,17.103-17.103
			S465.21,23.75,455.803,23.75l-26.538,0.454C436.835,25.962,442.525,32.768,442.525,40.853z"/>
	</g>
	<g>
		<path style="fill:#FDBEB8;" d="M500.504,109.288c0-9.407-7.696-17.103-17.103-17.103h-6.337c9.407,0,17.103-7.696,17.103-17.103
			c0-9.407-7.696-17.103-17.103-17.103h-30.381c9.407,0,17.103,7.696,17.103,17.103c0,9.407-7.696,17.103-17.103,17.103h6.337
			c9.407,0,17.103,7.696,17.103,17.103c0,9.407-7.696,17.103-17.103,17.103h-6.971c9.407,0,17.103,7.696,17.103,17.103
			c0,9.407-7.696,17.103-17.103,17.103l-2.971,0.002v0.023l33.352-0.025c9.407,0,17.103-7.697,17.103-17.103
			c0-9.407-7.696-17.103-17.103-17.103h6.971C492.808,126.391,500.504,118.695,500.504,109.288z"/>
	</g>
</g>
<g>
	<line style="fill:#FFD4C6;" x1="477.351" y1="126.279" x2="402.844" y2="126.279"/>
</g>
<g>
	<line style="fill:#FFD4C6;" x1="478.647" y1="92.153" x2="402.05" y2="92.153"/>
</g>
<g>
	<line style="fill:#FFD4C6;" x1="470.266" y1="57.878" x2="415.503" y2="57.878"/>
</g>
<g>
	<line style="fill:#FFD4C6;" x1="477.351" y1="126.279" x2="402.844" y2="126.279"/>
</g>
<g>
	<line style="fill:#FFD4C6;" x1="478.647" y1="92.153" x2="402.05" y2="92.153"/>
</g>
<g>
	<line style="fill:#FFD4C6;" x1="470.266" y1="57.878" x2="415.503" y2="57.878"/>
</g>
<g>
	<path style="fill:#5E8EE1;" d="M112.312,480.446H69.251c-14.777,0-26.756-11.979-26.756-26.756V187.81h96.573v265.88
		C139.068,468.467,127.089,480.446,112.312,480.446z"/>
</g>
<g>
	<path style="fill:#467BFF;" d="M108.687,187.81v265.54c0,14.964-12.131,27.096-27.096,27.096h30.381
		c14.964,0,27.096-12.131,27.096-27.096V187.81H108.687z"/>
</g>
<g>
	<rect x="42.495" y="187.81" style="fill:#FFFFFF;" width="96.573" height="90.081"/>
</g>
<g>
	<rect x="108.687" y="187.81" style="fill:#DBDEDF;" width="30.381" height="90.081"/>
</g>
<g>
	<path style="fill:#FFD4C6;" d="M193.774,113.115c-7.669-5.446-18.401-3.628-23.847,4.042l-11.95,16.827l-0.073-97.719
		c0-9.407-7.697-17.103-17.103-17.103c-9.407,0-17.103,7.696-17.103,17.103v-6.971c0-9.407-7.696-17.103-17.103-17.103h0
		c-9.407,0-17.103,7.696-17.103,17.103v6.337c0-9.407-7.696-17.103-17.103-17.103c-9.407,0-17.103,7.696-17.103,17.103v13.972
		v61.528h-0.023V56.893c0-9.407-7.696-17.103-17.103-17.103c-9.407,0-17.103,7.697-17.103,17.103l2.064,120.552
		c0,37.776,31.595,68.4,69.371,68.4h0c30.932,0,59.97-20.537,68.425-48.716l36.899-60.167
		C203.262,129.293,201.443,118.561,193.774,113.115z"/>
</g>
<g>
	<line style="fill:#FFD4C6;" x1="123.585" y1="35.345" x2="123.585" y2="109.852"/>
</g>
<g>
	<line style="fill:#FFD4C6;" x1="89.459" y1="34.048" x2="89.459" y2="110.646"/>
</g>
<g>
	<line style="fill:#FFD4C6;" x1="55.184" y1="42.43" x2="55.184" y2="97.193"/>
</g>
<g>
	<path style="fill:#FDBEB8;" d="M193.774,113.115c-7.67-5.446-18.401-3.628-23.847,4.042l-11.95,16.828l-0.073-97.719
		c0-9.407-7.696-17.103-17.103-17.103c-8.23,0-15.15,5.891-16.753,13.664v10.515c13.552,31.222,26.556,92.175,17.631,131.731
		c-8.525,37.783-30.672,55.042-60.385,69.85c3.654,0.598,7.392,0.923,11.198,0.923h0c30.932,0,59.97-20.537,68.425-48.716
		l36.899-60.166C203.262,129.293,201.443,118.561,193.774,113.115z"/>
</g>
<g>
	<line style="fill:#FFD4C6;" x1="123.585" y1="35.345" x2="123.585" y2="109.852"/>
</g>
<g>
	<line style="fill:#FFD4C6;" x1="89.459" y1="34.048" x2="89.459" y2="110.646"/>
</g>
<g>
	<line style="fill:#FFD4C6;" x1="55.184" y1="42.43" x2="55.184" y2="97.193"/>
</g>
<g>
	<path style="fill:#5E8EE1;" d="M475.754,395.473v43.061c0,14.777-11.979,26.756-26.756,26.756h-265.88v-96.573h265.88
		C463.775,368.717,475.754,380.696,475.754,395.473z"/>
</g>
<g>
	<rect x="183.118" y="368.717" style="fill:#FFFFFF;" width="90.081" height="96.573"/>
</g>
<g>
	<path style="fill:#FFD4C6;" d="M108.423,314.011c-5.446,7.669-3.628,18.401,4.042,23.847l16.827,11.95l-97.719,0.073
		c-9.407,0-17.103,7.697-17.103,17.103c0,9.407,7.696,17.103,17.103,17.103h-6.971c-9.407,0-17.103,7.696-17.103,17.103v0
		c0,9.407,7.696,17.103,17.103,17.103h6.337c-9.407,0-17.103,7.696-17.103,17.103c0,9.407,7.696,17.103,17.103,17.103h13.972h61.528
		v0.023H52.201c-9.407,0-17.103,7.696-17.103,17.103c0,9.407,7.697,17.103,17.103,17.103l120.552-2.064
		c37.776,0,68.4-31.595,68.4-69.371v0c0-30.932-20.537-59.97-48.716-68.425l-60.167-36.899
		C124.601,304.523,113.87,306.342,108.423,314.011z"/>
</g>
<g>
	<line style="fill:#FFD4C6;" x1="30.653" y1="384.2" x2="105.16" y2="384.2"/>
</g>
<g>
	<line style="fill:#FFD4C6;" x1="29.357" y1="418.326" x2="105.954" y2="418.326"/>
</g>
<g>
	<line style="fill:#FFD4C6;" x1="37.738" y1="452.601" x2="92.501" y2="452.601"/>
</g>
<g>
	<line style="fill:#FFD4C6;" x1="30.653" y1="384.2" x2="105.16" y2="384.2"/>
</g>
<g>
	<line style="fill:#FFD4C6;" x1="29.357" y1="418.326" x2="105.954" y2="418.326"/>
</g>
<g>
	<line style="fill:#FFD4C6;" x1="37.738" y1="452.601" x2="92.501" y2="452.601"/>
</g>
<g>
	<path style="fill:#FFD4C6;" d="M308.907,394.89c7.669,5.446,18.401,3.628,23.847-4.042l11.95-16.828l0.073,97.719
		c0,9.407,7.697,17.103,17.103,17.103c9.407,0,17.103-7.696,17.103-17.103v6.971c0,9.407,7.696,17.103,17.103,17.103h0
		c9.407,0,17.103-7.696,17.103-17.103v-6.337c0,9.407,7.696,17.103,17.103,17.103c9.407,0,17.103-7.696,17.103-17.103v-13.972
		v-61.528h0.023v54.238c0,9.407,7.696,17.103,17.103,17.103c9.407,0,17.103-7.697,17.103-17.103l-2.064-120.552
		c0-37.776-31.595-68.4-69.371-68.4h0c-30.932,0-59.97,20.537-68.425,48.716l-36.899,60.167
		C299.419,378.712,301.237,389.443,308.907,394.89z"/>
</g>
<g>
	<path style="fill:#FDBEB8;" d="M192.437,346.869l-60.167-36.899c-7.661-5.441-18.377-3.631-23.829,4.018l53.615,32.881
		c28.178,8.455,48.716,37.494,48.716,68.425c0,37.437-30.081,68.786-67.39,69.345v0.529l29.371-0.503
		c37.776,0,68.399-31.595,68.399-69.371C241.153,384.363,220.616,355.324,192.437,346.869z"/>
</g>
<g>
	<g>
		<path style="fill:#FDBEB8;" d="M479.561,330.56c0-37.776-31.595-68.4-69.371-68.4l0,0c-5.18,0-10.303,0.588-15.289,1.68
			c30.735,6.856,54.28,34.114,54.28,66.72l2.064,120.552c0,2.81-0.699,5.46-1.913,7.805c2.85,5.506,8.594,9.298,15.19,9.298
			c9.407,0,17.103-7.697,17.103-17.103L479.561,330.56z"/>
	</g>
</g>
<g>
	<line style="fill:#FFD4C6;" x1="379.095" y1="472.66" x2="379.095" y2="398.152"/>
</g>
<g>
	<line style="fill:#FFD4C6;" x1="413.221" y1="473.956" x2="413.221" y2="397.359"/>
</g>
<g>
	<line style="fill:#FFD4C6;" x1="447.496" y1="465.575" x2="447.496" y2="410.812"/>
</g>
<g>
	<line style="fill:#FFD4C6;" x1="379.095" y1="472.66" x2="379.095" y2="398.152"/>
</g>
<g>
	<line style="fill:#FFD4C6;" x1="413.221" y1="473.956" x2="413.221" y2="397.359"/>
</g>
<g>
	<line style="fill:#FFD4C6;" x1="447.496" y1="465.575" x2="447.496" y2="410.812"/>
</g>
<path d="M508.004,109.288c0-8.399-4.231-15.83-10.674-20.271c2.734-3.964,4.337-8.766,4.337-13.936
	c0-13.108-10.304-23.855-23.238-24.565c1.272-2.968,1.978-6.235,1.978-9.664c0-13.566-11.037-24.603-24.604-24.603
	c-0.043,0-0.086,0-0.128,0.001l-120.49,2.063c-18.593,0.016-36.189,6.871-50.086,19.375h-57.794h-61.901l-0.001-1.424
	c0-13.566-11.037-24.603-24.603-24.603c-5.042,0-9.736,1.525-13.643,4.138c-4.403-6.687-11.976-11.108-20.563-11.108
	c-8.399,0-15.83,4.231-20.271,10.674c-3.964-2.734-8.766-4.337-13.936-4.337c-13.108,0-23.855,10.305-24.565,23.238
	c-2.969-1.272-6.235-1.978-9.664-1.978c-13.566,0-24.603,11.037-24.603,24.604c0,0.043,0,0.085,0.001,0.128l1.188,69.387
	c0.071,4.141,3.487,7.437,7.627,7.371c4.142-0.071,7.441-3.486,7.371-7.627l-1.187-69.313c0.03-5.271,4.326-9.549,9.603-9.549
	c4.901,0,8.948,3.692,9.525,8.44v41.463c0,0.348,0.032,0.687,0.078,1.022v12.917c0,4.142,3.381,7.5,7.523,7.5s7.5-3.358,7.5-7.5
	v-75.5c0-5.295,4.308-9.603,9.603-9.603c5.08,0,9.241,3.969,9.571,8.967v75.65c0,4.142,3.358,7.5,7.5,7.5s7.5-3.358,7.5-7.5V36.27
	c0.018-0.211,0.032-0.423,0.032-0.639v-6.337c0-5.295,4.308-9.603,9.603-9.603s9.603,4.308,9.603,9.603v4.804
	c-0.068,0.406-0.112,0.82-0.112,1.246v74.507c0,4.142,3.358,7.5,7.5,7.5s7.5-3.358,7.5-7.5V37.511
	c0.068-0.406,0.112-0.82,0.112-1.246c0-5.295,4.308-9.603,9.603-9.603s9.603,4.308,9.603,9.608l0.073,97.719
	c0.002,3.263,2.114,6.15,5.224,7.141c3.11,0.993,6.502-0.143,8.391-2.803l11.95-16.828c3.067-4.318,9.073-5.335,13.39-2.27
	c2.076,1.475,3.456,3.686,3.887,6.229c0.431,2.542-0.144,5.085-1.618,7.161c-0.098,0.138-0.19,0.278-0.279,0.422
	c0,0-37.503,61.312-37.689,61.932c-7.419,24.726-33.748,43.372-61.242,43.372c-16.354,0-31.838-6.353-43.6-17.888
	c-11.782-11.556-18.271-26.831-18.271-43.011c0-0.105-0.002-0.21-0.007-0.316l-0.876-20.785c-0.175-4.139-3.668-7.375-7.809-7.177
	c-4.138,0.174-7.352,3.67-7.177,7.809l0.869,20.631c0.04,18.557,6.892,36.117,19.375,49.99v50.293v7.5v56.988l-3.421,0.002
	c-13.566,0-24.603,11.037-24.603,24.603c0,5.042,1.525,9.736,4.138,13.643C4.422,385.03,0,392.603,0,401.191
	c0,8.399,4.231,15.83,10.674,20.271c-2.734,3.964-4.337,8.767-4.337,13.936c0,13.108,10.305,23.854,23.239,24.565
	c-1.272,2.968-1.978,6.235-1.978,9.664c0,13.566,11.037,24.604,24.603,24.604c0.043,0,0.085,0,0.128-0.001l120.49-2.063
	c18.593-0.016,36.19-6.871,50.087-19.376h114.397c0.553,13.08,11.363,23.552,24.577,23.552c5.043,0,9.735-1.525,13.643-4.138
	c4.402,6.687,11.976,11.108,20.563,11.108c8.399,0,15.829-4.231,20.271-10.674c3.964,2.734,8.767,4.337,13.936,4.337
	c13.108,0,23.854-10.305,24.565-23.238c2.968,1.272,6.235,1.978,9.664,1.978c13.565,0,24.603-11.037,24.603-24.604
	c0-0.053-0.001-0.106-0.002-0.159l-1.79-84.298c-0.088-4.141-3.509-7.406-7.657-7.339c-4.142,0.088-7.427,3.517-7.339,7.658
	l1.788,84.207c-0.037,5.264-4.33,9.536-9.603,9.536c-4.899,0-8.947-3.691-9.525-8.437v-41.466c0-0.349-0.032-0.689-0.078-1.025
	v-12.913c0-4.142-3.381-7.5-7.523-7.5s-7.5,3.358-7.5,7.5v75.5c0,5.295-4.308,9.603-9.603,9.603c-5.08,0-9.241-3.969-9.571-8.967
	v-75.65c0-4.142-3.357-7.5-7.5-7.5s-7.5,3.358-7.5,7.5v74.375c-0.018,0.211-0.032,0.423-0.032,0.639v6.337
	c0,5.295-4.308,9.603-9.603,9.603s-9.604-4.308-9.604-9.603v-4.801c0.068-0.407,0.112-0.823,0.112-1.249v-74.507
	c0-4.142-3.357-7.5-7.5-7.5s-7.5,3.358-7.5,7.5v72.337c-0.068,0.407-0.112,0.823-0.112,1.249c0,5.295-4.308,9.603-9.603,9.603
	s-9.604-4.308-9.604-9.608l-0.072-97.719c-0.002-3.263-2.114-6.15-5.224-7.141c-3.111-0.992-6.502,0.143-8.392,2.803l-11.949,16.828
	c-3.067,4.317-9.073,5.334-13.391,2.27c-2.076-1.474-3.456-3.686-3.888-6.229c-0.431-2.542,0.145-5.085,1.618-7.161
	c0.098-0.137,0.191-0.278,0.279-0.422c0,0,37.502-61.312,37.688-61.932c7.42-24.726,33.748-43.372,61.242-43.372
	c16.354,0,31.838,6.353,43.601,17.888c11.782,11.556,18.271,26.831,18.271,43.011c0,4.142,3.357,7.5,7.5,7.5s7.5-3.358,7.5-7.5
	c0-18.618-6.856-36.24-19.376-50.153V168.104l8.746-0.007c13.565,0,24.603-11.037,24.603-24.603c0-5.042-1.524-9.736-4.138-13.643
	C503.583,125.449,508.004,117.876,508.004,109.288z M272.13,52.689c-8.311,12.54-12.779,27.207-12.779,42.496
	c0,13.885,3.704,27.343,10.178,39.078h-27.224V52.689H272.13z M165.459,110.739l-0.043-58.049h61.89v81.573h-19.911
	c1.104-3.614,1.365-7.466,0.714-11.311c-1.101-6.493-4.649-12.158-9.992-15.952C187.785,99.663,173.675,101.456,165.459,110.739z
	 M131.568,243.166v27.225H49.995v-29.826c12.54,8.311,27.208,12.779,42.496,12.779C106.376,253.344,119.834,249.64,131.568,243.166z
	 M49.995,285.391h81.573v15.708c-4.172-1.685-8.746-2.194-13.308-1.421c-6.492,1.101-12.157,4.648-15.952,9.991v0
	c-3.794,5.342-5.278,11.86-4.177,18.353c0.951,5.611,3.73,10.603,7.915,14.304l-56.051,0.042V285.391z M172.753,477.166
	c-0.043,0-0.085,0-0.128,0.001L52.146,479.23c-5.27-0.03-9.548-4.327-9.548-9.604c0-4.902,3.694-8.95,8.443-9.525h41.46
	c0.346,0,0.685-0.032,1.019-0.077h12.92c4.142,0,7.5-3.382,7.5-7.524s-3.358-7.5-7.5-7.5h-75.5c-5.295,0-9.603-4.308-9.603-9.603
	c0-5.081,3.969-9.241,8.967-9.571h75.65c4.142,0,7.5-3.358,7.5-7.5s-3.358-7.5-7.5-7.5H31.579c-0.211-0.018-0.423-0.032-0.639-0.032
	h-6.337c-5.295,0-9.603-4.308-9.603-9.603s4.308-9.603,9.603-9.603h4.807c0.405,0.068,0.818,0.111,1.242,0.111h74.508
	c4.142,0,7.5-3.358,7.5-7.5s-3.358-7.5-7.5-7.5H32.816c-0.405-0.068-0.818-0.111-1.242-0.111c-5.295,0-9.603-4.308-9.603-9.604
	c0-5.295,4.308-9.603,9.608-9.603l97.719-0.072c3.263-0.002,6.15-2.114,7.141-5.224c0.991-3.109-0.143-6.502-2.803-8.391
	l-16.828-11.951c-2.076-1.474-3.456-3.686-3.887-6.228c-0.431-2.542,0.144-5.085,1.618-7.162l0,0
	c3.066-4.317,9.073-5.334,13.39-2.27c0.138,0.098,0.278,0.19,0.422,0.279c0,0,61.312,37.503,61.932,37.689
	c24.726,7.419,43.372,33.748,43.372,61.242c0,16.354-6.353,31.838-17.888,43.601C204.209,470.677,188.934,477.166,172.753,477.166z
	 M238.474,376.217h27.224v81.573h-29.825c8.31-12.54,12.779-27.207,12.779-42.496C248.653,401.409,244.949,387.951,238.474,376.217z
	 M337.222,397.266l0.044,60.524h-56.568v-81.573h13.972c-0.557,2.874-0.603,5.857-0.098,8.836
	c1.101,6.493,4.648,12.158,9.991,15.952C314.895,408.341,329.003,406.548,337.222,397.266z M334.876,307.761l-32.783,53.456h-74.249
	c-8.761-9.788-19.826-17.291-32.292-21.236l-48.983-30.04v-24.55v-7.5v-45.355c9.788-8.761,17.291-19.826,21.236-32.292
	l31.265-50.981h28.236h52.854c8.761,9.788,19.827,17.291,32.293,21.236l43.659,26.775v78.196
	C346.324,284.23,338.822,295.295,334.876,307.761z M371.112,264.839v-27.225h81.573v29.825c-12.54-8.31-27.207-12.779-42.495-12.779
	C396.305,254.66,382.846,258.364,371.112,264.839z M452.685,222.614h-81.573v-16.141l0.505,0.31
	c4.261,2.956,9.145,4.377,13.986,4.377c7.705,0,15.301-3.602,20.093-10.349c0.001,0,0.001,0,0.001,0
	c7.336-10.332,5.543-24.44-3.739-32.657l50.728-0.038V222.614z M483.402,118.891h-4.805c-0.406-0.068-0.82-0.112-1.246-0.112
	h-74.507c-4.143,0-7.5,3.358-7.5,7.5s3.357,7.5,7.5,7.5h72.341c0.406,0.068,0.82,0.112,1.246,0.112c5.295,0,9.603,4.308,9.603,9.603
	s-4.308,9.603-9.608,9.603l-97.72,0.073c-3.263,0.002-6.15,2.114-7.141,5.224s0.144,6.502,2.804,8.391l16.828,11.95
	c4.317,3.066,5.335,9.073,2.271,13.39c-3.067,4.318-9.073,5.336-13.391,2.27c-0.138-0.098-0.278-0.19-0.422-0.279
	c0,0-61.313-37.503-61.933-37.689c-24.726-7.419-43.371-33.748-43.371-61.242c0-16.354,6.353-31.838,17.889-43.6
	c11.556-11.782,26.831-18.271,43.012-18.271c0.043,0,0.086,0,0.128-0.001l120.479-2.063c5.271,0.03,9.549,4.326,9.549,9.603
	c0,4.9-3.693,8.948-8.44,9.525h-41.463c-0.348,0-0.687,0.032-1.022,0.078h-12.917c-4.143,0-7.5,3.381-7.5,7.523s3.357,7.5,7.5,7.5
	h75.499c5.295,0,9.604,4.308,9.604,9.603c0,5.08-3.969,9.241-8.968,9.571h-75.65c-4.143,0-7.5,3.358-7.5,7.5s3.357,7.5,7.5,7.5
	h74.375c0.211,0.018,0.423,0.032,0.639,0.032h6.338c5.295,0,9.603,4.308,9.603,9.603S488.697,118.891,483.402,118.891z"/>
<g>
</g>
<g>
</g>
<g>
</g>
<g>
</g>
<g>
</g>
<g>
</g>
<g>
</g>
<g>
</g>
<g>
</g>
<g>
</g>
<g>
</g>
<g>
</g>
<g>
</g>
<g>
</g>
<g>
</g>
</svg>
