<?xml version="1.0" encoding="iso-8859-1"?>
<!-- Generator: Adobe Illustrator 21.0.0, SVG Export Plug-In . SVG Version: 6.00 Build 0)  -->
<svg version="1.1" id="Capa_1" xmlns="http://www.w3.org/2000/svg" xmlns:xlink="http://www.w3.org/1999/xlink" x="0px" y="0px"
	 viewBox="0 0 508.356 508.356" style="enable-background:new 0 0 508.356 508.356;" xml:space="preserve">
<g>
	<g>
		<path style="fill:#B4B4B4;" d="M373.092,248.348l-4.931,0.12c-1.285-23.551-9.818-45.192-23.385-62.764l4.145-3.028
			c6.779-4.953,7.721-14.728,1.992-20.866c-11.759-12.599-25.958-22.885-41.558-30.105c-7.623-3.528-16.62,0.433-19.2,8.426
			l-2.043,6.33c-10.417-3.173-21.461-4.895-32.902-4.895c-12.333,0-24.199,2.011-35.32,5.676l-2.283-6.998
			c-2.606-7.986-11.615-11.918-19.227-8.366c-15.578,7.27-29.745,17.601-41.465,30.238c-5.709,6.155-4.736,15.928,2.058,20.859
			l5.613,4.074c-13.626,18.207-21.865,40.648-22.438,64.951l-5.542,0.006c-8.384,0.009-14.891,7.333-13.906,15.658
			c2.04,17.246,7.427,33.781,15.928,48.892c4.112,7.309,13.692,9.386,20.469,4.446l2.985-2.176
			c13.618,19.714,33.323,34.897,56.38,42.84l-0.63,1.945c-2.586,7.981,2.372,16.45,10.604,18.068
			c8.403,1.651,16.972,2.484,25.618,2.484c0.003,0,0.004,0,0.008,0c8.687,0,17.298-0.841,25.739-2.508
			c8.232-1.626,13.185-10.1,10.591-18.08l-0.403-1.241c24.895-8.064,46.024-24.535,60.048-46.055l2.302,1.586
			c6.913,4.763,16.452,2.425,20.353-5.009c8.009-15.259,13.03-32.059,14.694-49.167C388.199,255.329,381.49,248.144,373.092,248.348
			z M255.21,321.182c-36.66,0-66.485-29.825-66.485-66.485s29.825-66.485,66.485-66.485s66.485,29.825,66.485,66.485
			S291.87,321.182,255.21,321.182z"/>
	</g>
	<g>
		<path style="fill:#9A9999;" d="M373.092,248.348l-4.931,0.12c-1.285-23.551-9.818-45.192-23.385-62.764l4.145-3.028
			c6.779-4.953,7.721-14.728,1.992-20.866c-11.759-12.599-25.958-22.885-41.558-30.104c-7.623-3.528-16.62,0.433-19.2,8.426
			l-2.043,6.33c-5.296-1.613-10.755-2.846-16.344-3.674c36.837,21.686,68.563,61.743,68.563,107.582
			c0,65.422-57.358,119.076-121.426,124.33c1.917,3.478,5.282,6.146,9.532,6.981c8.402,1.651,16.973,2.484,25.619,2.484
			c0.003,0,0.004,0,0.008,0c8.687,0,17.298-0.841,25.739-2.508c8.232-1.626,13.185-10.1,10.591-18.08l-0.403-1.241
			c24.895-8.063,46.024-24.535,60.048-46.055l2.302,1.586c6.913,4.763,16.452,2.425,20.353-5.009
			c8.01-15.259,13.03-32.059,14.694-49.167C388.199,255.329,381.49,248.144,373.092,248.348z"/>
	</g>
	<g>
		<path style="fill:#F7EC77;" d="M184.861,49.502c5-3.37,10.282-6.417,15.823-9.116c24.17-11.777,50.869-15.79,77.214-11.61
			c0.077,0.012,0.155,0.025,0.232,0.039c39.475,6.865,73.004,30.54,91.987,64.955c4.261,7.725,1.453,17.441-6.271,21.702
			c-7.728,4.262-17.441,1.452-21.702-6.271c-14.262-25.854-39.544-43.669-69.374-48.891c-40.263-6.343-81.302,13.652-99.82,48.647
			c-2.866,5.415-8.404,8.505-14.133,8.505c-2.519,0-5.075-0.598-7.457-1.858c-7.798-4.126-10.774-13.792-6.648-21.59
			c4.61-8.712,10.213-16.765,16.699-24.053"/>
	</g>
	<g>
		<path style="fill:#F7EC77;" d="M161.411,69.96c6.87-7.72,14.731-14.581,23.45-20.459"/>
	</g>
	<g>
		<ellipse style="fill:#FFD4C6;" cx="256.183" cy="46.182" rx="26.325" ry="38.682"/>
	</g>
	<g>
		<path style="fill:#66D6E6;" d="M390.896,158.817c0-2.519,0.598-5.075,1.858-7.457c4.126-7.798,13.792-10.774,21.59-6.648
			c23.232,12.294,41.777,31.649,53.628,55.972c11.777,24.17,15.79,50.869,11.61,77.214c-0.012,0.077-0.025,0.155-0.039,0.232
			c-6.865,39.475-30.54,73.004-64.955,91.987c-7.725,4.261-17.441,1.453-21.702-6.271c-4.262-7.728-1.452-17.441,6.271-21.702
			c25.854-14.262,43.669-39.544,48.891-69.374c6.343-40.263-13.652-81.302-48.647-99.82
			C393.986,170.084,390.896,164.546,390.896,158.817z"/>
	</g>
	<g>
		<ellipse style="fill:#FFD4C6;" cx="462.174" cy="256.183" rx="38.682" ry="26.325"/>
	</g>
	<g>
		<path style="fill:#F7EC77;" d="M349.539,390.896c2.519,0,5.075,0.598,7.457,1.858c7.798,4.126,10.774,13.792,6.648,21.59
			c-12.294,23.232-31.649,41.777-55.972,53.628c-24.17,11.777-50.869,15.79-77.214,11.61c-0.077-0.012-0.155-0.025-0.232-0.039
			c-39.475-6.865-73.004-30.54-91.987-64.955c-4.261-7.725-1.453-17.441,6.271-21.702c7.728-4.262,17.441-1.452,21.702,6.271
			c14.262,25.854,39.544,43.669,69.374,48.891c40.263,6.343,81.302-13.652,99.82-48.647
			C338.272,393.986,343.811,390.896,349.539,390.896z"/>
	</g>
	<g>
		<ellipse style="fill:#FFD4C6;" cx="252.173" cy="462.175" rx="26.325" ry="38.682"/>
	</g>
	<g>
		<path style="fill:#66D6E6;" d="M117.46,349.54c0,2.519-0.598,5.075-1.858,7.457c-4.126,7.798-13.792,10.774-21.59,6.648
			c-23.232-12.294-41.777-31.649-53.628-55.972c-11.777-24.17-15.79-50.869-11.61-77.214c0.012-0.077,0.025-0.155,0.039-0.232
			c6.865-39.475,30.54-73.004,64.955-91.987c7.725-4.261,17.441-1.453,21.702,6.271c4.262,7.728,1.452,17.441-6.271,21.702
			c-25.854,14.262-43.669,39.544-48.891,69.374c-6.343,40.263,13.652,81.302,48.647,99.82
			C114.37,338.273,117.46,343.811,117.46,349.54z"/>
	</g>
	<g>
		<ellipse style="fill:#FFD4C6;" cx="46.182" cy="252.174" rx="38.682" ry="26.325"/>
	</g>
	<g>
		<path d="M389.199,247.714c-3.708-3.987-8.774-6.405-14.152-6.81c-2.2-19.254-8.989-37.562-19.894-53.651
			c3.927-3.583,6.415-8.526,6.922-13.873c0.58-6.118-1.49-12.2-5.68-16.688c-12.34-13.222-27.517-24.216-43.89-31.793
			c-5.572-2.579-11.998-2.645-17.631-0.18c-5.491,2.403-9.73,6.991-11.698,12.636c-9.148-2.184-18.525-3.288-27.967-3.288
			c-10.298,0-20.509,1.317-30.451,3.921l-0.022-0.069c-1.91-5.854-6.247-10.619-11.897-13.071
			c-5.641-2.447-12.066-2.362-17.632,0.235c-16.35,7.63-31.493,18.673-43.792,31.934c-4.175,4.501-6.226,10.59-5.626,16.705
			c0.585,5.979,3.648,11.445,8.427,15.063c-10.973,16.745-17.521,35.785-19.181,55.781c-5.561,0.412-10.779,2.976-14.507,7.176
			c-4.074,4.589-5.997,10.714-5.276,16.805c2.163,18.282,7.828,35.673,16.84,51.689c3.008,5.347,8.174,9.162,14.172,10.466
			c4.759,1.035,9.7,0.416,14.015-1.689c12.938,16.455,30.127,29.453,49.428,37.366c-0.312,4.317,0.683,8.676,2.916,12.474
			c3.113,5.292,8.35,9.005,14.367,10.188c8.864,1.742,17.97,2.625,27.073,2.625c9.138,0,18.287-0.892,27.191-2.65
			c6.02-1.189,11.254-4.909,14.363-10.206c2.072-3.532,3.073-7.548,2.95-11.563c5.855-2.264,11.544-4.992,16.979-8.145
			c3.583-2.079,4.802-6.668,2.724-10.251c-2.078-3.583-6.667-4.801-10.251-2.724c-6.438,3.734-13.281,6.788-20.342,9.074
			c-1.894,0.614-3.466,1.955-4.37,3.728c-0.904,1.773-1.066,3.833-0.451,5.727l0.403,1.241c0.585,1.798,0.38,3.688-0.579,5.321
			c-0.953,1.624-2.491,2.718-4.332,3.082c-15.854,3.132-32.593,3.142-48.466,0.023c-1.839-0.361-3.377-1.453-4.33-3.075
			c-0.961-1.632-1.169-3.523-0.587-5.32l0.631-1.945c1.262-3.889-0.825-8.072-4.69-9.404c-21.167-7.293-39.866-21.503-52.652-40.012
			c-1.149-1.664-2.922-2.793-4.915-3.131c-1.994-0.339-4.039,0.142-5.674,1.333l-2.985,2.176c-1.526,1.112-3.384,1.502-5.227,1.102
			c-1.843-0.401-3.365-1.524-4.288-3.165c-8.035-14.281-13.087-29.79-15.016-46.096c-0.222-1.869,0.346-3.675,1.598-5.084
			c1.253-1.412,2.981-2.19,4.867-2.192l5.542-0.006c4.07-0.004,7.395-3.254,7.49-7.323c0.521-22.053,7.763-43.02,20.945-60.634
			c1.203-1.607,1.711-3.631,1.41-5.616c-0.3-1.985-1.385-3.768-3.01-4.947l-5.613-4.074c-1.531-1.111-2.477-2.761-2.66-4.646
			c-0.185-1.875,0.418-3.667,1.695-5.043c10.993-11.854,24.527-21.723,39.138-28.541c1.699-0.793,3.59-0.817,5.316-0.068
			c1.74,0.755,3.021,2.163,3.609,3.963l2.283,6.999c0.618,1.895,1.965,3.465,3.743,4.366c1.778,0.9,3.842,1.055,5.734,0.431
			c10.67-3.517,21.764-5.3,32.973-5.3c10.427,0,20.761,1.538,30.717,4.57c3.921,1.192,8.066-0.976,9.323-4.871l2.043-6.33
			c0.582-1.803,1.858-3.214,3.597-3.975c1.725-0.756,3.614-0.737,5.315,0.051c14.631,6.771,28.194,16.597,39.226,28.416
			c1.281,1.374,1.89,3.163,1.712,5.039c-0.179,1.885-1.118,3.538-2.646,4.654l-4.145,3.028c-1.634,1.194-2.716,2.997-3.001,5
			c-0.284,2.003,0.253,4.037,1.489,5.639c13.118,16.992,20.668,37.251,21.832,58.589c0.218,3.986,3.516,7.091,7.486,7.091
			c0.062,0,0.123,0,0.185-0.002l4.932-0.12c1.873-0.032,3.646,0.694,4.939,2.083c1.282,1.379,1.889,3.167,1.707,5.035
			c-1.561,16.047-6.357,32.094-13.87,46.408c-0.873,1.663-2.36,2.827-4.189,3.279c-1.841,0.453-3.71,0.113-5.269-0.961l-2.302-1.585
			c-1.667-1.147-3.728-1.574-5.708-1.181c-1.984,0.392-3.727,1.569-4.83,3.263c-3.794,5.822-8.185,11.299-13.051,16.28
			c-2.896,2.963-2.84,7.711,0.123,10.606c2.964,2.896,7.712,2.838,10.605-0.124c3.878-3.969,7.491-8.215,10.793-12.678
			c4.165,1.683,8.8,2.038,13.234,0.942c5.965-1.473,11.021-5.435,13.874-10.87c8.405-16.013,13.771-33.97,15.519-51.927
			C395.445,258.304,393.385,252.217,389.199,247.714z"/>
		<path d="M255.21,180.712c-40.796,0-73.985,33.189-73.985,73.985s33.189,73.985,73.985,73.985s73.985-33.189,73.985-73.985
			S296.006,180.712,255.21,180.712z M255.21,313.682c-32.524,0-58.985-26.46-58.985-58.985s26.461-58.985,58.985-58.985
			s58.985,26.46,58.985,58.985S287.734,313.682,255.21,313.682z"/>
		<path d="M147.852,122.232c3.375,1.785,7.166,2.729,10.965,2.729c8.728,0,16.684-4.789,20.762-12.498
			c9.963-18.826,27.349-33.368,48.297-40.682c5.993,12.486,16.328,20.583,28.307,20.583c12.214,0,22.716-8.419,28.652-21.323
			c21.859,7.182,39.767,21.885,50.743,41.781c4.274,7.748,12.313,12.131,20.595,12.13c3.829,0,7.713-0.938,11.298-2.915
			c11.332-6.252,15.466-20.559,9.215-31.892c-19.073-34.577-52.189-59.021-91.283-67.547C279.583,8.975,268.795,0,256.183,0
			c-12.813,0-23.742,9.263-29.491,23.253c-10.061,2.344-19.899,5.813-29.293,10.39c-5.813,2.832-11.441,6.075-16.729,9.639
			c-3.436,2.315-4.343,6.977-2.027,10.411c1.448,2.149,3.815,3.309,6.226,3.309c1.441,0,2.899-0.416,4.185-1.282
			c4.711-3.175,9.729-6.066,14.916-8.593c6.056-2.951,12.315-5.39,18.703-7.308c-0.201,2.077-0.314,4.198-0.314,6.363
			c0,3.903,0.343,7.676,0.981,11.273c-24.686,8.508-45.219,25.696-57.019,47.992c-1.474,2.784-4.349,4.513-7.504,4.513
			c-1.382,0-2.711-0.333-3.949-0.988c-2.001-1.058-3.469-2.833-4.135-4.996s-0.45-4.456,0.608-6.457
			c4.809-9.086,10.815-17.483,17.854-24.958c2.84-3.016,2.697-7.762-0.318-10.602c-3.014-2.839-7.761-2.698-10.602,0.318
			c-7.961,8.454-14.754,17.95-20.191,28.225c-2.933,5.542-3.531,11.894-1.687,17.886
			C138.241,114.384,142.31,119.299,147.852,122.232z M363.55,97.391c2.257,4.091,0.765,9.256-3.324,11.512
			c-4.093,2.258-9.258,0.764-11.514-3.326c-12.888-23.362-33.918-40.582-59.557-48.902c0.552-3.363,0.853-6.87,0.853-10.493
			c0-2.405-0.129-4.761-0.377-7.057C321.239,48.046,347.797,68.833,363.55,97.391z M256.183,15c10.204,0,18.825,14.28,18.825,31.182
			s-8.621,31.182-18.825,31.182s-18.825-14.28-18.825-31.182S245.979,15,256.183,15z"/>
		<path d="M508.356,256.183c0-12.804-9.251-23.727-23.225-29.479c-2.342-10.057-5.843-19.915-10.417-29.304
			c-12.553-25.763-32.216-46.274-56.863-59.316c-5.542-2.934-11.895-3.533-17.886-1.687c-5.992,1.845-10.907,5.913-13.84,11.455
			c-1.786,3.375-2.729,7.166-2.729,10.966c0,8.727,4.789,16.682,12.498,20.762c18.826,9.962,33.367,27.349,40.681,48.297
			c-12.486,5.993-20.582,16.328-20.582,28.307c0,12.207,8.41,22.704,21.302,28.642c-7.168,21.866-21.793,39.739-41.761,50.753
			c-11.331,6.251-15.465,20.557-9.215,31.891c4.274,7.749,12.313,12.131,20.594,12.131c3.83,0,7.714-0.938,11.298-2.916
			c34.571-19.07,59.023-52.193,67.549-91.284C499.382,279.583,508.356,268.794,508.356,256.183z M402.909,166.321
			c-2.784-1.474-4.514-4.349-4.514-7.504c0-1.383,0.332-2.711,0.987-3.95c1.059-2,2.833-3.469,4.996-4.135
			c2.163-0.667,4.456-0.449,6.456,0.609c21.818,11.545,39.244,29.744,50.395,52.628c2.947,6.049,5.386,12.314,7.306,18.702
			c-2.077-0.201-4.198-0.314-6.362-0.314c-3.903,0-7.675,0.343-11.273,0.981C442.392,198.653,425.205,178.12,402.909,166.321z
			 M410.966,363.55c-4.093,2.259-9.257,0.765-11.513-3.326c-2.257-4.091-0.765-9.256,3.325-11.512
			c23.447-12.934,40.601-33.909,48.905-59.556c3.362,0.552,6.869,0.852,10.491,0.852c2.407,0,4.764-0.129,7.062-0.377
			C460.315,321.238,439.519,347.8,410.966,363.55z M462.174,275.008c-16.902,0-31.182-8.621-31.182-18.825
			c0-10.205,14.279-18.826,31.182-18.826s31.183,8.621,31.183,18.826C493.356,266.387,479.076,275.008,462.174,275.008z"/>
		<path d="M360.504,386.125c-3.374-1.785-7.165-2.729-10.965-2.729c-8.727,0-16.682,4.789-20.762,12.498
			c-9.963,18.826-27.353,33.358-48.302,40.67c-5.994-12.48-16.327-20.572-28.302-20.572c-12.203,0-22.697,8.404-28.636,21.29
			c-21.866-7.166-39.744-21.78-50.759-41.748c-6.252-11.332-20.559-15.465-31.892-9.215c-5.49,3.028-9.472,8.014-11.212,14.037
			c-1.741,6.024-1.031,12.365,1.997,17.854c19.078,34.587,52.183,59.017,91.281,67.544c5.818,13.626,16.607,22.602,29.22,22.602
			c12.807,0,23.733-9.256,29.484-23.235c10.061-2.345,19.909-5.831,29.3-10.407c25.763-12.553,46.274-32.216,59.316-56.862
			c2.933-5.542,3.531-11.894,1.687-17.887C370.114,393.972,366.046,389.057,360.504,386.125z M144.806,410.965
			c-1.093-1.982-1.349-4.271-0.721-6.445s2.065-3.974,4.047-5.067c4.092-2.256,9.257-0.763,11.513,3.327
			c12.934,23.447,33.909,40.6,59.555,48.903c-0.552,3.362-0.852,6.869-0.852,10.491c0,2.406,0.129,4.764,0.377,7.062
			C187.114,460.315,160.564,439.534,144.806,410.965z M252.173,493.356c-10.204,0-18.825-14.28-18.825-31.182
			s8.621-31.182,18.825-31.182c10.205,0,18.826,14.28,18.826,31.182S262.378,493.356,252.173,493.356z M357.016,410.836
			c-11.545,21.817-29.744,39.243-52.629,50.394c-6.052,2.949-12.313,5.393-18.702,7.311c0.202-2.079,0.314-4.201,0.314-6.366
			c0-3.906-0.344-7.682-0.983-11.282c24.685-8.508,45.221-25.688,57.019-47.982c1.474-2.784,4.349-4.514,7.504-4.514
			c1.383,0,2.712,0.332,3.949,0.987c2.001,1.059,3.47,2.833,4.136,4.996C358.29,406.542,358.074,408.835,357.016,410.836z"/>
		<path d="M112.463,328.778c-18.864-9.983-33.299-27.124-40.698-48.29c12.495-5.992,20.599-16.33,20.599-28.314
			c0-12.207-8.41-22.704-21.303-28.642c7.167-21.865,21.792-39.738,41.761-50.753c11.332-6.252,15.466-20.558,9.215-31.892
			c-6.252-11.334-20.561-15.465-31.891-9.215c-34.474,19.016-59.02,52.232-67.537,91.279C8.98,228.768,0,239.558,0,252.174
			c0,12.944,9.451,23.969,23.681,29.669c-0.073,0.823-0.02,1.669,0.196,2.515c2.317,9.105,5.603,18.055,9.766,26.599
			c12.553,25.763,32.216,46.274,56.862,59.316c3.432,1.816,7.174,2.737,10.949,2.737c2.321,0,4.655-0.348,6.938-1.051
			c5.992-1.845,10.908-5.914,13.841-11.458c1.784-3.374,2.728-7.165,2.728-10.963C124.96,340.813,120.172,332.857,112.463,328.778z
			 M97.392,144.806c4.091-2.256,9.255-0.764,11.512,3.326c2.256,4.091,0.764,9.256-3.327,11.513
			c-23.447,12.935-40.6,33.909-48.903,59.556c-3.363-0.552-6.87-0.853-10.492-0.853c-2.403,0-4.758,0.129-7.053,0.376
			C48.055,187.142,68.917,160.513,97.392,144.806z M15,252.174c0-10.204,14.279-18.825,31.182-18.825s31.183,8.621,31.183,18.825
			s-14.28,18.825-31.183,18.825S15,262.378,15,252.174z M108.974,353.489c-1.059,2-2.833,3.469-4.996,4.135
			c-2.163,0.667-4.457,0.45-6.457-0.608c-21.817-11.545-39.243-29.744-50.394-52.628c-2.946-6.047-5.39-12.319-7.309-18.702
			c2.078,0.201,4.199,0.314,6.364,0.314c3.902,0,7.673-0.343,11.27-0.981c8.605,24.944,25.647,45.191,47.996,57.018
			c2.783,1.473,4.513,4.349,4.513,7.504C109.96,350.922,109.628,352.251,108.974,353.489z"/>
	</g>
</g>
<g>
</g>
<g>
</g>
<g>
</g>
<g>
</g>
<g>
</g>
<g>
</g>
<g>
</g>
<g>
</g>
<g>
</g>
<g>
</g>
<g>
</g>
<g>
</g>
<g>
</g>
<g>
</g>
<g>
</g>
</svg>
