<?xml version="1.0" encoding="iso-8859-1"?>
<!-- Generator: Adobe Illustrator 21.0.0, SVG Export Plug-In . SVG Version: 6.00 Build 0)  -->
<svg version="1.1" id="Capa_1" xmlns="http://www.w3.org/2000/svg" xmlns:xlink="http://www.w3.org/1999/xlink" x="0px" y="0px"
	 viewBox="0 0 503.596 503.596" style="enable-background:new 0 0 503.596 503.596;" xml:space="preserve">
<g>
	<g>
		<path style="fill:#5E8EE1;" d="M265.256,141.665c31.121,0,58.2,16.391,72.23,40.582c18.27-18.553,29.528-43.781,29.528-71.601
			C367.014,53.68,319.893,7.5,261.766,7.5S156.518,53.68,156.518,110.646c0,30.22,13.263,57.403,34.393,76.268
			c0.492-1.509,1.154-3.006,1.999-4.473C206.907,158.143,234.051,141.665,265.256,141.665z"/>
	</g>
	<g>
		<g>
			<path style="fill:#467BFF;" d="M261.766,7.5c-5.093,0-10.1,0.362-15,1.047c51.021,7.136,90.248,50.124,90.248,102.099
				c0,19.279-5.41,37.311-14.81,52.741c6.042,5.493,11.214,11.846,15.282,18.86c18.27-18.553,29.528-43.781,29.528-71.601
				C367.014,53.68,319.893,7.5,261.766,7.5z"/>
		</g>
	</g>
	<g>
		<path style="fill:#FFF4F1;" d="M337.486,182.247c-14.03-24.191-41.109-40.582-72.23-40.582c-31.205,0-58.349,16.477-72.346,40.776
			c-0.845,1.467-1.507,2.964-1.999,4.473c18.701,16.697,43.564,26.879,70.856,26.879
			C291.506,213.793,318.345,201.685,337.486,182.247z"/>
	</g>
	<g>
		<path style="fill:#DBDEDF;" d="M265.256,141.665c-5.124,0-10.136,0.453-15.001,1.303c16.775,2.932,31.771,10.688,43.337,21.701
			c9.272,8.829,8.179,23.989-2.45,31.125c-13.002,8.73-28.102,14.674-44.41,16.953c4.91,0.688,9.93,1.045,15.035,1.045
			c29.74,0,56.579-12.108,75.72-31.545C323.456,158.056,296.377,141.665,265.256,141.665z"/>
	</g>
	<g>
		<ellipse style="fill:#FFD4C6;" cx="263.664" cy="77.303" rx="24.664" ry="31.256"/>
	</g>
	<g>
		<path style="fill:#F7EC77;" d="M135.541,438.989c24.64,0,46.08,12.977,57.188,32.131c14.465-14.689,23.379-34.664,23.379-56.69
			c0-45.103-37.308-81.666-83.33-81.666s-83.33,36.563-83.33,81.666c0,23.927,10.501,45.448,27.23,60.385
			c0.39-1.195,0.914-2.38,1.583-3.541C89.343,452.035,110.834,438.989,135.541,438.989z"/>
	</g>
	<g>
		<g>
			<path style="fill:#FFEC56;" d="M132.777,332.764c-4.033,0-7.997,0.287-11.876,0.829c40.396,5.65,71.454,39.686,71.454,80.837
				c0,15.264-4.283,29.541-11.726,41.758c4.784,4.349,8.878,9.379,12.099,14.932c14.465-14.689,23.379-34.664,23.379-56.69
				C216.108,369.327,178.8,332.764,132.777,332.764z"/>
		</g>
	</g>
	<g>
		<path style="fill:#FFF4F1;" d="M192.729,471.12c-11.109-19.154-32.548-32.131-57.188-32.131c-24.706,0-46.198,13.046-57.28,32.285
			c-0.669,1.161-1.193,2.347-1.583,3.541c14.807,13.22,34.492,21.281,56.1,21.281C156.324,496.096,177.574,486.509,192.729,471.12z"
			/>
	</g>
	<g>
		<path style="fill:#DBDEDF;" d="M135.541,438.989c-4.057,0-8.025,0.358-11.877,1.032c13.282,2.321,25.155,8.462,34.312,17.182
			c7.341,6.99,6.476,18.993-1.94,24.643c-10.294,6.912-22.25,11.618-35.162,13.423c3.888,0.545,7.862,0.827,11.904,0.827
			c23.547,0,44.797-9.587,59.951-24.976C181.62,451.966,160.181,438.989,135.541,438.989z"/>
	</g>
	<g>
		<ellipse style="fill:#FFD4C6;" cx="134.28" cy="388.03" rx="19.528" ry="24.747"/>
	</g>
	<g>
		<path style="fill:#FC9086;" d="M373.582,438.989c24.64,0,46.08,12.977,57.188,32.131c14.465-14.689,23.379-34.664,23.379-56.69
			c0-45.103-37.308-81.666-83.33-81.666s-83.33,36.563-83.33,81.666c0,23.927,10.501,45.448,27.23,60.385
			c0.39-1.195,0.914-2.38,1.583-3.541C327.384,452.035,348.875,438.989,373.582,438.989z"/>
	</g>
	<g>
		<g>
			<path style="fill:#F57A73;" d="M370.819,332.764c-4.033,0-7.997,0.287-11.876,0.829c40.396,5.65,71.454,39.686,71.454,80.837
				c0,15.264-4.283,29.541-11.726,41.758c4.784,4.349,8.878,9.379,12.099,14.932c14.465-14.689,23.379-34.664,23.379-56.69
				C454.149,369.327,416.841,332.764,370.819,332.764z"/>
		</g>
	</g>
	<g>
		<path style="fill:#FFF4F1;" d="M430.77,471.12c-11.109-19.154-32.548-32.131-57.188-32.131c-24.706,0-46.198,13.046-57.28,32.285
			c-0.669,1.161-1.193,2.347-1.583,3.541c14.807,13.22,34.492,21.281,56.1,21.281C394.366,496.096,415.615,486.509,430.77,471.12z"
			/>
	</g>
	<g>
		<path style="fill:#DBDEDF;" d="M373.582,438.989c-4.057,0-8.025,0.358-11.877,1.032c13.282,2.321,25.155,8.462,34.312,17.182
			c7.341,6.99,6.476,18.993-1.94,24.643c-10.294,6.912-22.25,11.618-35.162,13.423c3.888,0.545,7.862,0.827,11.904,0.827
			c23.547,0,44.797-9.587,59.951-24.976C419.661,451.966,398.222,438.989,373.582,438.989z"/>
	</g>
	<g>
		<ellipse style="fill:#FFD4C6;" cx="372.321" cy="388.03" rx="19.528" ry="24.747"/>
	</g>
	<g>
		<path d="M182.3,189.122l-0.04,0.123l3.656,3.264c20.79,18.562,47.728,28.784,75.851,28.784c30.822,0,59.612-11.998,81.064-33.783
			l4.015-4.076l-0.078-0.134c17.935-20.164,27.748-45.744,27.748-72.653C374.515,49.636,323.936,0,261.766,0
			c-25.509,0-49.573,8.156-69.591,23.585c-3.281,2.529-3.89,7.238-1.361,10.519c2.527,3.281,7.238,3.891,10.519,1.362
			C218.702,22.077,239.6,15,261.766,15c53.899,0,97.749,42.907,97.749,95.646c0,21.755-7.448,42.518-21.143,59.379
			c-16.775-22.336-43.937-35.86-73.116-35.86c-31.102,0-59.87,15.335-76.26,40.33c-15.975-17.458-24.979-40.243-24.979-63.848
			c0-19.913,6.191-38.998,17.904-55.19c2.428-3.356,1.675-8.045-1.681-10.473c-3.356-2.428-8.045-1.675-10.472,1.681
			c-13.576,18.767-20.751,40.891-20.751,63.982C149.018,140.097,161.093,168.42,182.3,189.122z M265.256,149.165
			c25.409,0,48.931,12.172,62.719,32.096h-0.321c-18.05,16.184-41.211,25.031-65.888,25.031c-22.549,0-44.211-7.555-61.595-21.379
			c0.086-0.142,0.169-0.285,0.255-0.426c0.206-0.335,0.415-0.667,0.626-0.998c0.17-0.266,0.342-0.531,0.515-0.795
			c0.285-0.432,0.572-0.863,0.866-1.289C216.206,161.392,239.767,149.165,265.256,149.165z"/>
		<path d="M295.827,77.303c0-21.37-14.429-38.756-32.164-38.756c-17.735,0-32.164,17.386-32.164,38.756s14.429,38.756,32.164,38.756
			C281.399,116.059,295.827,98.674,295.827,77.303z M246.5,77.303c0-12.877,7.86-23.756,17.164-23.756s17.164,10.879,17.164,23.756
			s-7.86,23.756-17.164,23.756S246.5,90.18,246.5,77.303z"/>
		<path d="M132.777,325.264c-17.989,0-35.381,5.155-50.295,14.907c-3.467,2.267-4.439,6.915-2.173,10.382
			c2.267,3.467,6.915,4.439,10.382,2.173c12.467-8.152,27.021-12.461,42.086-12.461c41.813,0,75.831,33.271,75.831,74.166
			c0,16.201-5.331,31.695-15.165,44.479c-13.649-17.119-35.01-27.42-57.902-27.42c-24.448,0-47.117,11.723-60.547,30.956
			c-11.561-13.33-18.046-30.377-18.046-48.015c0-15.464,4.815-30.279,13.926-42.845c2.431-3.354,1.684-8.043-1.67-10.474
			c-3.354-2.432-8.043-1.684-10.475,1.67c-10.979,15.143-16.781,33.003-16.781,51.65c0,23.417,9.467,45.951,26.128,62.571
			l-0.047,0.145l3.644,3.254c0.003,0.003,0.007,0.006,0.01,0.009c0.002,0.002,0.004,0.003,0.006,0.005
			c16.746,14.949,38.44,23.181,61.089,23.181c24.825,0,48.014-9.665,65.295-27.214l4.014-4.076l-0.107-0.184
			c13.976-16.116,21.628-36.381,21.628-57.692C223.608,365.263,182.861,325.264,132.777,325.264z M86.077,472.863
			c0.059-0.093,0.12-0.185,0.18-0.277c1.023-1.576,2.121-3.094,3.293-4.549c10.834-13.457,27.771-21.548,45.992-21.548
			c18.182,0,35.107,8.072,45.946,21.496h-0.015c0.484,0.599,0.964,1.2,1.425,1.818c0.04,0.054,0.081,0.106,0.121,0.16
			c-13.872,12.058-31.493,18.633-50.239,18.633C115.748,488.596,99.374,483.046,86.077,472.863z"/>
		<path d="M161.308,388.031c0-17.781-12.125-32.247-27.028-32.247s-27.028,14.466-27.028,32.247s12.125,32.247,27.028,32.247
			S161.308,405.812,161.308,388.031z M122.252,388.031c0-9.349,5.508-17.247,12.028-17.247s12.028,7.898,12.028,17.247
			s-5.508,17.247-12.028,17.247S122.252,397.379,122.252,388.031z"/>
		<path d="M440.021,472.122c13.976-16.115,21.627-36.38,21.627-57.692c0-49.167-40.746-89.166-90.83-89.166s-90.83,40-90.83,89.166
			c0,23.417,9.467,45.951,26.128,62.572l-0.047,0.145l3.654,3.263c16.747,14.952,38.444,23.187,61.095,23.187
			c24.823,0,48.011-9.663,65.291-27.21c0.001-0.001,0.003-0.002,0.004-0.004c0.002-0.002,0.003-0.003,0.005-0.005l4.01-4.071
			L440.021,472.122z M370.818,340.264c41.813,0,75.83,33.271,75.83,74.166c0,16.202-5.33,31.695-15.165,44.479
			c-13.649-17.119-35.009-27.42-57.901-27.42c-24.45,0-47.12,11.724-60.548,30.956c-11.561-13.33-18.046-30.377-18.046-48.015
			C294.988,373.534,329.006,340.264,370.818,340.264z M370.818,488.596c-17.029,0-33.402-5.55-46.701-15.732
			c0.061-0.096,0.124-0.191,0.186-0.287c0.456-0.7,0.924-1.392,1.409-2.069h-0.003c10.689-14.934,28.561-24.019,47.872-24.019
			c19.295,0,37.175,9.089,47.866,24.019h-1.046C406.632,482.211,389.274,488.596,370.818,488.596z"/>
		<path d="M372.321,420.277c14.903,0,27.027-14.466,27.027-32.247s-12.124-32.247-27.027-32.247s-27.028,14.466-27.028,32.247
			S357.418,420.277,372.321,420.277z M372.321,370.784c6.52,0,12.027,7.898,12.027,17.247s-5.508,17.247-12.027,17.247
			c-6.521,0-12.028-7.898-12.028-17.247S365.801,370.784,372.321,370.784z"/>
		<path d="M145.501,312.032c4.142,0,7.5-3.358,7.5-7.5v-1.445c0-17.878,14.544-32.423,32.422-32.423h149.656
			c17.878,0,32.423,14.545,32.423,32.423v1.485c0,4.142,3.357,7.5,7.5,7.5s7.5-3.358,7.5-7.5v-1.485
			c0-26.149-21.273-47.423-47.423-47.423h-67.328v-14.981c0-4.142-3.357-7.5-7.5-7.5c-4.142,0-7.5,3.358-7.5,7.5v14.981h-67.328
			c-26.149,0-47.422,21.274-47.422,47.423v1.445C138.001,308.674,141.359,312.032,145.501,312.032z"/>
	</g>
</g>
<g>
</g>
<g>
</g>
<g>
</g>
<g>
</g>
<g>
</g>
<g>
</g>
<g>
</g>
<g>
</g>
<g>
</g>
<g>
</g>
<g>
</g>
<g>
</g>
<g>
</g>
<g>
</g>
<g>
</g>
</svg>
