<?xml version="1.0" encoding="iso-8859-1"?>
<!-- Generator: Adobe Illustrator 21.0.0, SVG Export Plug-In . SVG Version: 6.00 Build 0)  -->
<svg version="1.1" id="Capa_1" xmlns="http://www.w3.org/2000/svg" xmlns:xlink="http://www.w3.org/1999/xlink" x="0px" y="0px"
	 viewBox="0 0 508.356 508.356" style="enable-background:new 0 0 508.356 508.356;" xml:space="preserve">
<g>
	<g>
		<circle style="fill:#DC8839;" cx="257.482" cy="250.369" r="191.99"/>
	</g>
	<g>
		<path style="fill:#BE7511;" d="M257.482,58.379c-6.754,0-13.426,0.353-20,1.033c96.634,10.003,171.99,91.678,171.99,190.957
			s-75.356,180.954-171.99,190.957c6.574,0.68,13.246,1.033,20,1.033c106.033,0,191.99-85.957,191.99-191.99
			S363.515,58.379,257.482,58.379z"/>
	</g>
	<g>
		<path style="fill:#FC9086;" d="M158.817,117.461c-2.519,0-5.075-0.598-7.457-1.858c-7.798-4.126-10.774-13.792-6.648-21.59
			c12.294-23.232,31.649-41.777,55.972-53.628c24.17-11.777,50.869-15.79,77.214-11.61c0.077,0.012,0.155,0.025,0.232,0.039
			c39.475,6.865,73.004,30.54,91.987,64.955c4.261,7.725,1.453,17.441-6.271,21.702c-7.728,4.262-17.441,1.452-21.702-6.271
			c-14.262-25.854-39.544-43.669-69.374-48.891c-40.263-6.343-81.302,13.652-99.82,48.647
			C170.084,114.371,164.546,117.461,158.817,117.461z"/>
	</g>
	<g>
		<ellipse style="fill:#FFD4C6;" cx="256.183" cy="46.182" rx="26.325" ry="38.682"/>
	</g>
	<g>
		<path style="fill:#467BFF;" d="M445.931,232.727c-6.704-25.301-23.317-47.493-46.529-59.777
			c-5.415-2.866-8.505-8.404-8.505-14.133c0-2.519,0.598-5.075,1.858-7.457c4.126-7.798,13.792-10.774,21.59-6.648
			c23.232,12.294,41.777,31.649,53.628,55.972c11.777,24.17,15.79,50.869,11.61,77.214c-0.012,0.077-0.025,0.155-0.039,0.232
			c-6.865,39.475-30.54,73.004-64.955,91.987c-7.725,4.261-17.441,1.453-21.702-6.271c-4.262-7.728-1.452-17.441,6.271-21.702
			c22.989-12.682,39.623-34.076,46.698-59.635"/>
	</g>
	<g>
		<ellipse style="fill:#FFD4C6;" cx="462.174" cy="256.183" rx="38.682" ry="26.325"/>
	</g>
	<g>
		<path style="fill:#FC9086;" d="M349.54,390.896c2.519,0,5.075,0.598,7.457,1.858c7.798,4.126,10.774,13.792,6.648,21.59
			c-12.294,23.232-31.649,41.777-55.972,53.628c-24.17,11.777-50.869,15.79-77.214,11.61c-0.077-0.012-0.155-0.025-0.232-0.039
			c-39.475-6.865-73.004-30.54-91.987-64.955c-4.261-7.725-1.453-17.441,6.271-21.702c7.728-4.262,17.441-1.452,21.702,6.271
			c14.262,25.854,39.544,43.669,69.374,48.891c40.263,6.343,81.302-13.652,99.82-48.647
			C338.273,393.986,343.811,390.896,349.54,390.896z"/>
	</g>
	<g>
		<ellipse style="fill:#FFD4C6;" cx="252.174" cy="462.175" rx="26.325" ry="38.682"/>
	</g>
	<g>
		<path style="fill:#467BFF;" d="M117.461,349.54c0,2.519-0.598,5.075-1.858,7.457c-4.126,7.798-13.792,10.774-21.59,6.648
			c-23.232-12.294-41.777-31.649-53.628-55.972c-11.777-24.17-15.79-50.869-11.61-77.214c0.012-0.077,0.025-0.155,0.039-0.232
			c6.865-39.475,30.54-73.004,64.955-91.987c7.725-4.261,17.441-1.453,21.702,6.271c4.262,7.728,1.452,17.441-6.271,21.702
			c-25.854,14.262-43.669,39.544-48.891,69.374c-6.343,40.263,13.652,81.302,48.647,99.82
			C114.371,338.273,117.461,343.811,117.461,349.54z"/>
	</g>
	<g>
		<ellipse style="fill:#FFD4C6;" cx="46.182" cy="252.174" rx="38.682" ry="26.325"/>
	</g>
	<g>
		<circle style="fill:#FFF4F1;" cx="254.909" cy="245.757" r="88.795"/>
	</g>
	<g>
		<path d="M267.46,239.473c-7.009,5.479-7.136,9.302-7.136,15.928c0,2.421-1.274,5.225-7.519,5.225
			c-5.225,0-7.008-1.912-7.008-8.538c0-10.958,4.842-16.183,8.537-19.369c4.205-3.568,11.341-7.519,11.341-14.399
			c0-5.861-5.097-8.665-11.468-8.665c-12.998,0-10.194,9.812-17.075,9.812c-3.44,0-7.646-2.294-7.646-7.263
			c0-6.881,7.9-17.075,25.103-17.075c16.311,0,27.142,9.047,27.142,21.025S270.9,236.797,267.46,239.473z M262.745,279.23
			c0,5.225-4.332,9.812-9.812,9.812s-9.685-4.587-9.685-9.812c0-5.352,4.332-9.812,9.685-9.812
			C258.285,269.418,262.745,273.878,262.745,279.23z"/>
	</g>
	<g>
		<path d="M508.356,256.183c0-12.803-9.249-23.725-23.22-29.478c-2.347-10.069-5.843-19.908-10.423-29.306
			c-11.456-23.512-28.849-42.63-50.532-55.708c-0.196-0.903-0.557-1.786-1.104-2.599c-12.588-18.696-28.124-35.021-46.177-48.532
			c-0.073-0.138-0.139-0.277-0.215-0.415c-19.058-34.55-52.198-59.017-91.28-67.542C279.586,8.978,268.796,0,256.183,0
			c-12.808,0-23.733,9.256-29.484,23.236c-10.06,2.344-19.907,5.83-29.299,10.407c-25.763,12.552-46.274,32.215-59.316,56.862
			c-0.012,0.023-0.023,0.048-0.035,0.071c-14.617,10.942-27.618,23.812-38.74,38.271c-3.175,0.295-6.284,1.238-9.161,2.825
			c-34.473,19.016-59.019,52.232-67.536,91.279C8.98,228.768,0,239.558,0,252.174c0,12.807,9.256,23.732,23.235,29.483
			c2.344,10.059,5.832,19.91,10.407,29.3c12.553,25.762,32.215,46.273,56.862,59.316c3.031,1.603,6.303,2.506,9.626,2.697
			c8.578,10.993,18.286,21.079,28.954,30.061c-0.841,5.034-0.064,10.373,2.587,15.179c19.079,34.588,52.184,59.017,91.282,67.543
			c5.818,13.626,16.607,22.603,29.22,22.603c12.807,0,23.733-9.256,29.484-23.236c10.06-2.345,19.909-5.831,29.3-10.407
			c25.762-12.553,46.273-32.215,59.315-56.862c0.708-1.338,1.277-2.724,1.711-4.14c13.924-9.777,26.563-21.284,37.594-34.269
			c2.947-0.338,5.878-1.239,8.632-2.758c12.459-6.873,23.697-15.603,33.405-25.948c2.834-3.021,2.683-7.767-0.338-10.601
			c-3.021-2.835-7.768-2.683-10.602,0.337c-8.632,9.2-18.628,16.964-29.71,23.077c-4.094,2.259-9.257,0.765-11.513-3.326
			c-2.256-4.091-0.764-9.256,3.327-11.513c23.361-12.887,40.58-33.917,48.902-59.556c3.363,0.552,6.87,0.853,10.493,0.853
			c2.397,0,4.746-0.129,7.035-0.375c-2.665,9.482-6.382,18.566-11.157,27.092c-2.023,3.614-0.735,8.185,2.879,10.208
			c1.159,0.649,2.417,0.958,3.658,0.958c2.626,0,5.176-1.382,6.551-3.836c6.733-12.022,11.618-25.013,14.589-38.642
			C499.369,279.598,508.356,268.804,508.356,256.183z M461.229,203.97c2.95,6.054,5.384,12.313,7.302,18.701
			c-2.075-0.201-4.194-0.313-6.356-0.313c-3.904,0-7.677,0.343-11.275,0.982c-8.514-24.658-25.804-45.278-47.99-57.018
			c-2.784-1.473-4.514-4.349-4.514-7.504c0-1.384,0.332-2.712,0.986-3.95c1.059-2,2.833-3.469,4.996-4.135
			c2.161-0.667,4.455-0.45,6.457,0.608C432.653,162.886,450.079,181.084,461.229,203.97z M363.551,97.392
			c2.257,4.091,0.765,9.255-3.326,11.512c-4.09,2.258-9.255,0.764-11.513-3.326c-12.934-23.447-33.909-40.6-59.556-48.903
			c0.552-3.363,0.853-6.87,0.853-10.492c0-2.406-0.129-4.764-0.377-7.062C321.235,48.042,347.809,68.854,363.551,97.392z
			 M256.183,15c10.205,0,18.826,14.28,18.826,31.182s-8.621,31.182-18.826,31.182c-10.204,0-18.825-14.28-18.825-31.182
			S245.979,15,256.183,15z M151.341,97.521c11.546-21.817,29.744-39.243,52.629-50.394c6.052-2.949,12.315-5.384,18.701-7.304
			c-0.201,2.076-0.314,4.196-0.314,6.359c0,3.903,0.343,7.675,0.981,11.273c-24.686,8.508-45.22,25.697-57.018,47.991
			c-1.474,2.784-4.349,4.514-7.504,4.514c-1.383,0-2.711-0.332-3.949-0.988c-2.001-1.059-3.47-2.833-4.136-4.996
			S150.282,99.521,151.341,97.521z M97.392,144.806c1.134-0.625,2.368-0.967,3.623-1.035c0.61,0.156,1.23,0.255,1.85,0.255
			c0.193,0,0.386-0.018,0.578-0.033c0.131,0.031,0.263,0.056,0.393,0.093c2.174,0.628,3.974,2.066,5.066,4.047
			c2.256,4.091,0.764,9.256-3.327,11.513c-23.446,12.934-40.599,33.908-48.902,59.556c-3.363-0.552-6.87-0.853-10.492-0.853
			c-2.404,0-4.76,0.129-7.056,0.377C48.053,187.142,68.917,160.512,97.392,144.806z M15,252.174
			c0-10.204,14.28-18.825,31.183-18.825s31.182,8.621,31.182,18.825s-14.279,18.825-31.182,18.825S15,262.378,15,252.174z
			 M47.127,304.387c-2.948-6.051-5.384-12.314-7.303-18.702c2.076,0.201,4.196,0.314,6.359,0.314c3.904,0,7.676-0.343,11.275-0.982
			c8.514,24.658,25.804,45.278,47.99,57.019c2.784,1.473,4.514,4.348,4.514,7.503c0,1.382-0.332,2.711-0.987,3.949
			c-1.059,2-2.833,3.469-4.996,4.135c-2.166,0.667-4.457,0.449-6.457-0.608C75.703,345.47,58.277,327.271,47.127,304.387z
			 M144.807,410.965c-2.257-4.091-0.765-9.256,3.325-11.512c4.088-2.256,9.256-0.765,11.513,3.327
			c12.909,23.402,33.912,40.59,59.556,48.903c-0.552,3.363-0.852,6.869-0.852,10.491c0,2.406,0.129,4.764,0.377,7.062
			C187.115,460.316,160.565,439.534,144.807,410.965z M252.174,493.356c-10.204,0-18.825-14.28-18.825-31.182
			s8.621-31.182,18.825-31.182s18.825,14.28,18.825,31.182S262.378,493.356,252.174,493.356z M357.016,410.836
			c-11.545,21.817-29.744,39.243-52.628,50.394c-6.051,2.948-12.314,5.379-18.702,7.297c0.201-2.074,0.313-4.191,0.313-6.352
			c0-3.902-0.343-7.674-0.981-11.271c24.669-8.514,45.26-25.775,57.017-47.994c1.474-2.784,4.349-4.514,7.504-4.514
			c1.383,0,2.712,0.333,3.95,0.987c2.001,1.058,3.469,2.833,4.135,4.996S358.074,408.835,357.016,410.836z M395.534,335.578
			c-11.332,6.251-15.466,20.557-9.216,31.891c1.758,3.187,4.159,5.793,6.945,7.771c-7.018,7.626-14.652,14.649-22.832,20.993
			c-2.173-4.291-5.589-7.813-9.928-10.108c-3.375-1.785-7.166-2.728-10.965-2.728c-8.727,0-16.682,4.789-20.762,12.498
			c-9.927,18.76-27.355,33.373-48.291,40.694c-5.992-12.493-16.33-20.596-28.313-20.596c-12.21,0-22.709,8.414-28.646,21.311
			c-21.863-7.175-39.755-21.838-50.749-41.769c-6.252-11.333-20.559-15.466-31.893-9.216c-1.654,0.913-3.15,2.001-4.488,3.223
			c-7.492-6.524-14.45-13.644-20.801-21.279c2.719-2.046,4.995-4.661,6.634-7.758c1.786-3.375,2.729-7.166,2.729-10.965
			c0-8.728-4.789-16.683-12.498-20.762c-18.731-9.912-33.381-27.36-40.703-48.287c12.498-5.991,20.604-16.331,20.604-28.317
			c0-12.207-8.41-22.704-21.302-28.642c7.167-21.865,21.793-39.738,41.76-50.753c11.332-6.251,15.466-20.557,9.216-31.891
			c-1.731-3.138-4.118-5.761-6.956-7.777c6.714-8.146,14.088-15.709,22.084-22.593c2.085,5.026,5.815,9.137,10.686,11.714
			c3.374,1.786,7.166,2.729,10.966,2.729c8.727,0,16.682-4.789,20.762-12.498c9.962-18.826,27.348-33.367,48.297-40.681
			c5.993,12.486,16.327,20.583,28.307,20.583c12.207,0,22.705-8.41,28.643-21.302c21.865,7.168,39.738,21.793,50.753,41.761
			c4.274,7.747,12.313,12.129,20.594,12.129c3.831,0,7.713-0.938,11.298-2.915c4.824-2.662,8.337-6.784,10.307-11.514
			c8.904,7.66,17.031,16.126,24.32,25.324c-0.714,0.15-1.425,0.33-2.131,0.548c-5.992,1.845-10.907,5.914-13.84,11.455
			c-1.785,3.373-2.729,7.165-2.729,10.966c0,8.726,4.788,16.682,12.497,20.762c18.73,9.912,33.381,27.36,40.704,48.287
			c-12.499,5.991-20.605,16.331-20.605,28.317c0,12.213,8.419,22.715,21.323,28.651
			C430.134,306.694,415.431,324.603,395.534,335.578z M462.175,275.008c-16.902,0-31.183-8.621-31.183-18.825
			c0-10.205,14.28-18.826,31.183-18.826s31.182,8.621,31.182,18.826C493.356,266.387,479.077,275.008,462.175,275.008z"/>
		<path d="M254.909,149.462c-21.809,0-43.174,7.494-60.162,21.103c-3.232,2.59-3.754,7.31-1.164,10.542
			c2.589,3.232,7.31,3.754,10.543,1.165c14.544-11.651,32.104-17.81,50.783-17.81c44.826,0,81.295,36.469,81.295,81.295
			s-36.469,81.295-81.295,81.295s-81.295-36.469-81.295-81.295c0-14.421,3.822-28.583,11.055-40.957
			c2.09-3.576,0.885-8.17-2.691-10.26c-3.575-2.09-8.169-0.886-10.26,2.69c-8.572,14.668-13.104,31.448-13.104,48.526
			c0,53.097,43.197,96.295,96.295,96.295s96.295-43.198,96.295-96.295S308.007,149.462,254.909,149.462z"/>
	</g>
</g>
<g>
</g>
<g>
</g>
<g>
</g>
<g>
</g>
<g>
</g>
<g>
</g>
<g>
</g>
<g>
</g>
<g>
</g>
<g>
</g>
<g>
</g>
<g>
</g>
<g>
</g>
<g>
</g>
<g>
</g>
</svg>
