<?xml version="1.0" encoding="iso-8859-1"?>
<!-- Generator: Adobe Illustrator 21.0.0, SVG Export Plug-In . SVG Version: 6.00 Build 0)  -->
<svg version="1.1" id="Capa_1" xmlns="http://www.w3.org/2000/svg" xmlns:xlink="http://www.w3.org/1999/xlink" x="0px" y="0px"
	 viewBox="0 0 510.521 510.521" style="enable-background:new 0 0 510.521 510.521;" xml:space="preserve">
<g>
	<g>
		<path style="fill:#DC8839;" d="M334.697,503.021H226.011c-6.608,0-12.014-5.406-12.014-12.014l-16.019-95.663
			c0-6.608,5.406-12.014,12.014-12.014h140.724c6.608,0,12.014,5.406,12.014,12.014l-16.019,95.663
			C346.711,497.615,341.304,503.021,334.697,503.021z"/>
	</g>
	<g>
		<path style="fill:#BE7511;" d="M350.716,383.33h-30c6.608,0,12.014,5.406,12.014,12.014l-16.019,95.662
			c0,6.608-5.406,12.014-12.014,12.014h30c6.608,0,12.014-5.406,12.014-12.014l16.019-95.662
			C362.73,388.737,357.323,383.33,350.716,383.33z"/>
	</g>
	<g>
		<path style="fill:#DC8839;" d="M362.059,402.511H198.648c-8.25,0-15-6.75-15-15v-18.433c0-8.25,6.75-15,15-15h163.412
			c8.25,0,15,6.75,15,15v18.433C377.059,395.761,370.309,402.511,362.059,402.511z"/>
	</g>
	<g>
		<path style="fill:#BE7511;" d="M362.059,354.078h-30c8.25,0,15,6.75,15,15v18.433c0,8.25-6.75,15-15,15h30c8.25,0,15-6.75,15-15
			v-18.433C377.059,360.828,370.309,354.078,362.059,354.078z"/>
	</g>
	<g>
		<path style="fill:#55E08F;" d="M306.429,64.749c-11.63,11.63-27.668,14.447-35.822,6.293c-8.154-8.154-5.337-24.193,6.293-35.822
			s40.111-10.582,40.111-10.582S318.059,53.119,306.429,64.749z"/>
	</g>
	<g>
		<path style="fill:#55E08F;" d="M339.881,160.339c-7.15,0.261-15.556-3.171-22.396-9.836c-10.89-10.614-10.26-36.957-10.26-36.957
			s26.319-1.307,37.209,9.306c6.322,6.161,9.916,13.731,10.363,20.492"/>
	</g>
	<g>
		<path style="fill:#55E08F;" d="M252.686,162.132c13.015,2.626,22.074,12.153,20.232,21.279s-13.885,14.395-26.9,11.768
			s-25.032-22.247-25.032-22.247S239.671,159.506,252.686,162.132z"/>
	</g>
	<g>
		<path style="fill:#55E08F;" d="M432.918,264.381c-11.63-11.63-27.668-14.447-35.822-6.293c-8.154,8.154-5.337,24.193,6.293,35.822
			s40.111,10.582,40.111,10.582S444.548,276.011,432.918,264.381z"/>
	</g>
	<g>
		<path style="fill:#55E08F;" d="M132.639,324.172c11.63-11.63,14.447-27.668,6.293-35.822c-8.154-8.154-24.193-5.337-35.822,6.293
			s-10.582,40.111-10.582,40.111S121.009,335.802,132.639,324.172z"/>
	</g>
	<g>
		<path style="fill:#55E08F;" d="M88.501,62.577c16.447,0,29.78-9.348,29.78-20.88s-13.333-20.88-29.78-20.88
			s-35.846,20.88-35.846,20.88S72.053,62.577,88.501,62.577z"/>
	</g>
	<g>
		<g>
			<path style="fill:#FFF4F1;" d="M160.506,91.168c19.408,0,36.295,10.222,45.044,25.308c11.393-11.57,18.414-27.303,18.414-44.652
				c0-35.525-29.386-64.324-65.635-64.324S92.695,36.299,92.695,71.824c0,18.846,8.271,35.797,21.448,47.562
				c0.307-0.941,0.72-1.875,1.247-2.789C124.119,101.444,141.046,91.168,160.506,91.168z"/>
		</g>
		<g>
			<g>
				<path style="fill:#DBDEDF;" d="M158.33,7.5c-3.176,0-6.298,0.226-9.354,0.653c31.818,4.45,56.281,31.259,56.281,63.671
					c0,12.023-3.374,23.268-9.236,32.89c3.768,3.426,6.993,7.387,9.53,11.761c11.393-11.57,18.414-27.303,18.414-44.652
					C223.965,36.299,194.579,7.5,158.33,7.5z"/>
			</g>
		</g>
		<g>
			<path style="fill:#FC9086;" d="M205.55,116.476c-8.75-15.086-25.637-25.308-45.044-25.308c-19.46,0-36.388,10.276-45.117,25.429
				c-0.527,0.915-0.939,1.848-1.247,2.789c11.662,10.412,27.168,16.762,44.187,16.762
				C176.877,136.149,193.614,128.598,205.55,116.476z"/>
		</g>
		<g>
			<path style="fill:#F57A73;" d="M160.506,91.168c-3.196,0-6.321,0.282-9.355,0.813c10.461,1.828,19.813,6.665,27.026,13.533
				c5.782,5.506,5.101,14.96-1.528,19.41c-8.108,5.444-17.525,9.151-27.695,10.573c3.062,0.429,6.193,0.652,9.376,0.652
				c18.547,0,35.284-7.551,47.221-19.672C196.801,101.39,179.914,91.168,160.506,91.168z"/>
		</g>
		<g>
			<ellipse style="fill:#FFD4C6;" cx="159.513" cy="51.031" rx="15.381" ry="19.492"/>
		</g>
	</g>
	<g>
		<g>
			<path style="fill:#FFF4F1;" d="M394.603,222.178c19.348,0,36.183,10.19,44.906,25.23c11.358-11.534,18.358-27.219,18.358-44.515
				c0-35.416-29.295-64.126-65.433-64.126S327,167.477,327,202.893c0,18.788,8.246,35.687,21.382,47.416
				c0.306-0.938,0.717-1.869,1.243-2.781C358.327,232.422,375.203,222.178,394.603,222.178z"/>
		</g>
		<g>
			<g>
				<path style="fill:#DBDEDF;" d="M392.433,138.767c-3.167,0-6.279,0.225-9.326,0.651c31.72,4.436,56.108,31.162,56.108,63.475
					c0,11.986-3.363,23.196-9.207,32.789c3.757,3.415,6.972,7.364,9.501,11.725c11.358-11.534,18.358-27.219,18.358-44.514
					C457.866,167.477,428.571,138.767,392.433,138.767z"/>
			</g>
		</g>
		<g>
			<path style="fill:#FC9086;" d="M439.508,247.408c-8.723-15.04-25.558-25.23-44.906-25.23c-19.4,0-36.276,10.244-44.978,25.351
				c-0.525,0.912-0.937,1.843-1.243,2.781c11.627,10.38,27.084,16.711,44.051,16.711
				C410.923,267.02,427.609,259.492,439.508,247.408z"/>
		</g>
		<g>
			<path style="fill:#F57A73;" d="M394.603,222.178c-3.186,0-6.302,0.281-9.326,0.81c10.429,1.823,19.752,6.645,26.942,13.491
				c5.764,5.489,5.085,14.914-1.523,19.351c-8.083,5.427-17.471,9.123-27.61,10.54c3.053,0.428,6.174,0.65,9.347,0.65
				c18.49,0,35.176-7.528,47.075-19.612C430.786,232.368,413.951,222.178,394.603,222.178z"/>
		</g>
		<g>
			<ellipse style="fill:#FFD4C6;" cx="393.613" cy="182.164" rx="15.334" ry="19.432"/>
		</g>
	</g>
	<g>
		<g>
			<path style="fill:#FFF4F1;" d="M179.422,272.71c19.348,0,36.183,10.19,44.906,25.23c11.358-11.534,18.358-27.219,18.358-44.515
				c0-35.416-29.295-64.126-65.433-64.126s-65.433,28.71-65.433,64.126c0,18.788,8.246,35.687,21.382,47.416
				c0.306-0.938,0.717-1.869,1.243-2.781C143.146,282.954,160.022,272.71,179.422,272.71z"/>
		</g>
		<g>
			<g>
				<path style="fill:#DBDEDF;" d="M177.252,189.299c-3.167,0-6.279,0.225-9.326,0.651c31.72,4.436,56.108,31.162,56.108,63.475
					c0,11.986-3.363,23.196-9.207,32.789c3.757,3.415,6.972,7.364,9.501,11.725c11.358-11.534,18.358-27.219,18.358-44.514
					C242.685,218.009,213.39,189.299,177.252,189.299z"/>
			</g>
		</g>
		<g>
			<path style="fill:#FC9086;" d="M224.328,297.94c-8.723-15.04-25.558-25.23-44.906-25.23c-19.4,0-36.276,10.244-44.978,25.351
				c-0.525,0.912-0.937,1.843-1.243,2.781c11.627,10.38,27.084,16.711,44.051,16.711
				C195.742,317.552,212.428,310.024,224.328,297.94z"/>
		</g>
		<g>
			<path style="fill:#F57A73;" d="M179.422,272.71c-3.186,0-6.302,0.281-9.326,0.81c10.429,1.823,19.752,6.645,26.942,13.491
				c5.764,5.489,5.085,14.914-1.523,19.351c-8.083,5.427-17.471,9.123-27.61,10.54c3.053,0.428,6.174,0.65,9.347,0.65
				c18.49,0,35.176-7.528,47.075-19.612C215.605,282.9,198.77,272.71,179.422,272.71z"/>
		</g>
		<g>
			<ellipse style="fill:#FFD4C6;" cx="178.432" cy="232.696" rx="15.334" ry="19.432"/>
		</g>
	</g>
	<g>
		<path d="M159.513,78.023c12.617,0,22.881-12.108,22.881-26.992c0-14.884-10.264-26.992-22.881-26.992
			s-22.881,12.108-22.881,26.992C136.632,65.915,146.897,78.023,159.513,78.023z M159.513,39.039c4.198,0,7.881,5.604,7.881,11.992
			s-3.683,11.992-7.881,11.992s-7.881-5.604-7.881-11.992S155.315,39.039,159.513,39.039z"/>
		<path d="M393.613,209.096c12.591,0,22.834-12.082,22.834-26.932c0-14.851-10.243-26.932-22.834-26.932
			c-12.59,0-22.833,12.082-22.833,26.932C370.779,197.014,381.022,209.096,393.613,209.096z M393.613,170.232
			c4.173,0,7.834,5.576,7.834,11.932c0,6.356-3.661,11.932-7.834,11.932c-3.705,0-7.833-4.9-7.833-11.932
			S389.907,170.232,393.613,170.232z"/>
		<path d="M201.265,232.696c0-14.851-10.243-26.932-22.833-26.932s-22.833,12.082-22.833,26.932
			c0,14.85,10.243,26.932,22.833,26.932S201.265,247.546,201.265,232.696z M170.598,232.696c0-6.356,3.661-11.932,7.833-11.932
			s7.833,5.576,7.833,11.932c0,6.356-3.661,11.932-7.833,11.932S170.598,239.052,170.598,232.696z"/>
		<path d="M437.957,258.822c2.403-1.897,4.714-3.937,6.895-6.152l4.014-4.076l-0.129-0.222
			c10.752-12.802,16.628-28.738,16.628-45.479c0-39.495-32.718-71.626-72.933-71.626c-11.03,0-21.49,2.43-30.871,6.754
			c-1.646-7.299-5.83-14.631-11.893-20.54c-12.861-12.534-39.786-11.578-42.815-11.426c-3.923,0.195-7.032,3.384-7.126,7.312
			c-0.072,3.031-0.337,29.974,12.523,42.507c5.14,5.009,11.258,8.632,17.468,10.512c-6.482,10.699-10.219,23.181-10.219,36.508
			c0,10.758,2.507,21.272,7.136,30.81l-42.213,42.213V83.211c9.149-0.449,19.095-4.945,27.309-13.159
			c13.551-13.55,12.893-42.441,12.774-45.69c-0.145-3.925-3.294-7.075-7.219-7.219c-3.252-0.119-32.141-0.776-45.69,12.774
			c-14.782,14.782-17.546,35.176-6.293,46.429c1.262,1.262,2.648,2.333,4.12,3.245v58.098L227.355,95.62
			c2.701-7.557,4.11-15.581,4.11-23.796C231.465,32.22,198.656,0,158.33,0c-18.666,0-35.712,6.912-48.649,18.255
			c-6.151-3.21-13.463-4.939-21.181-4.939c-19.164,0-39.127,20.893-41.34,23.275c-2.674,2.878-2.674,7.332,0,10.21
			c2.088,2.248,19.976,20.963,38.085,23.073c-0.018,0.65-0.05,1.295-0.05,1.949c0,18.538,7.376,36.375,20.363,49.693l-0.066,0.201
			l3.646,3.255c0.003,0.003,0.006,0.006,0.009,0.008c0.003,0.003,0.007,0.006,0.011,0.009
			c13.482,12.032,30.944,18.658,49.172,18.658c19.983,0,38.651-7.781,52.564-21.91l4.014-4.076l-0.129-0.222
			c2.039-2.427,3.901-4.964,5.583-7.6l49,49c0.019,0.02,0.041,0.036,0.061,0.055v2.408c-4.2-3.04-9.389-5.339-15.253-6.522v0
			c-15.772-3.185-35.377,10.492-37.56,12.062c-3.19,2.292-4.071,6.658-2.02,10.008c1.405,2.294,14.18,22.5,29.945,25.682
			c2.811,0.567,5.577,0.838,8.252,0.838c6.255,0,11.998-1.496,16.636-4.16v117.924l-28.606-28.606
			c6.101-10.616,9.368-22.635,9.368-35.103c0-39.495-32.718-71.626-72.933-71.626c-14.292,0-28.133,4.061-40.027,11.742
			c-3.479,2.247-4.479,6.89-2.231,10.369c2.247,3.48,6.89,4.479,10.369,2.231c9.464-6.112,20.492-9.343,31.89-9.343
			c31.944,0,57.933,25.402,57.933,56.626c0,11.683-3.633,22.884-10.368,32.315c-11.049-12.858-27.654-20.531-45.396-20.531
			c-18.996,0-36.665,8.78-47.632,23.301c-8.006-9.929-12.47-22.305-12.47-35.085c0-9.11,2.143-17.805,6.37-25.842
			c1.928-3.667,0.519-8.201-3.147-10.129c-3.667-1.928-8.2-0.519-10.129,3.147c-5.294,10.069-8.093,21.419-8.093,32.824
			c0,9.391,1.916,18.596,5.478,27.13c-4.302,2.207-8.374,5.167-11.991,8.784c-13.551,13.55-12.893,42.441-12.774,45.69
			c0.145,3.925,3.294,7.075,7.219,7.219c0.435,0.016,1.326,0.042,2.578,0.042c8.12,0,31.373-1.076,43.112-12.815
			c3.364-3.364,6.211-7.176,8.38-11.192c9.594,4.416,20.123,6.769,30.931,6.769c19.928,0,38.544-7.76,52.419-21.85l2.286-2.321
			l37.466,37.467v8.23h-70.775c-12.407,0-22.5,10.093-22.5,22.5v18.433c0,10.346,7.021,19.077,16.546,21.694l13.814,82.499
			c0.368,10.439,8.975,18.817,19.502,18.817h108.686c10.527,0,19.134-8.378,19.502-18.817l13.814-82.499
			c9.526-2.617,16.546-11.349,16.546-21.694v-18.433c0-12.407-10.093-22.5-22.5-22.5h-77.636v-49.448l50.382-50.382
			c1.557,1.976,3.222,3.876,4.993,5.693l-0.066,0.201l3.654,3.263c11.646,10.397,26.273,16.74,41.794,18.254
			c1.067,8.747,5.695,17.846,12.905,25.055c11.74,11.74,34.994,12.815,43.112,12.815c1.252,0,2.145-0.026,2.579-0.042
			c3.925-0.145,7.075-3.293,7.219-7.219c0.119-3.25,0.777-32.14-12.775-45.691C438.134,258.99,438.044,258.908,437.957,258.822z
			 M63.495,41.697c6.67-5.849,17.07-13.38,25.006-13.38c3.691,0,7.252,0.593,10.445,1.663c-5.433,7.416-9.462,15.88-11.705,25.027
			C79.489,54.286,69.816,47.24,63.495,41.697z M158.33,15c32.056,0,58.135,25.491,58.135,56.824c0,11.733-3.652,22.983-10.42,32.453
			c-11.08-12.906-27.738-20.609-45.538-20.609c-19.058,0-36.783,8.813-47.779,23.387c-8.045-9.967-12.532-22.396-12.532-35.231
			C100.195,40.491,126.274,15,158.33,15z M123.822,117.554h-0.162c8.066-11.721,21.882-18.886,36.846-18.886
			c13.983,0,26.982,6.266,35.207,16.662c-10.453,8.629-23.516,13.318-37.384,13.318
			C145.822,128.648,133.776,124.742,123.822,117.554z M265.567,181.928c-0.873,4.329-8.783,7.773-18.065,5.9
			c-5.141-1.037-11.285-7.025-15.806-12.721c6.161-3.363,14.274-6.676,19.507-5.623C260.483,171.357,266.44,177.598,265.567,181.928
			z M127.335,318.869c-5.612,5.612-18.294,7.64-27.143,8.22c0.581-8.852,2.609-21.532,8.22-27.143
			c2.621-2.621,5.539-4.728,8.581-6.234c2.266,3.274,4.811,6.373,7.624,9.259l-0.066,0.202l3.654,3.263
			c1.667,1.488,3.395,2.892,5.177,4.212C131.882,313.568,129.826,316.378,127.335,318.869z M142.994,299.087h-0.328
			c8.031-11.715,21.82-18.877,36.756-18.877c13.925,0,26.871,6.237,35.067,16.585c-10.414,8.589-23.425,13.257-37.236,13.257
			C164.841,310.052,152.888,306.191,142.994,299.087z M369.559,369.078v18.433c0,4.135-3.364,7.5-7.5,7.5H246.608
			c-4.142,0-7.5,3.358-7.5,7.5s3.358,7.5,7.5,7.5h106.062l-13.355,79.757c-0.068,0.41-0.103,0.824-0.103,1.239
			c0,2.447-2.067,4.514-4.514,4.514H226.01c-2.447,0-4.514-2.067-4.514-4.514c0-0.415-0.035-0.829-0.103-1.239l-13.355-79.757h8.57
			c4.142,0,7.5-3.358,7.5-7.5s-3.358-7.5-7.5-7.5h-17.96c-4.136,0-7.5-3.365-7.5-7.5v-18.433c0-4.136,3.364-7.5,7.5-7.5h163.412
			C366.195,361.578,369.559,364.942,369.559,369.078z M282.203,40.523c5.612-5.612,18.294-7.64,27.143-8.22
			c-0.581,8.852-2.609,21.532-8.22,27.143c-7.452,7.452-19.64,11.868-25.216,6.293C270.334,60.163,274.751,47.975,282.203,40.523z
			 M392.433,259.52c-12.501,0-24.541-3.914-34.476-11.117c8.046-11.623,21.775-18.726,36.646-18.726
			c13.925,0,26.871,6.237,35.067,16.585C419.255,254.852,406.244,259.52,392.433,259.52z M450.366,202.894
			c0,11.683-3.633,22.884-10.367,32.315c-11.049-12.858-27.654-20.531-45.396-20.531c-18.996,0-36.667,8.782-47.633,23.301
			c-8.006-9.929-12.47-22.305-12.47-35.085c0-31.224,25.989-56.626,57.933-56.626S450.366,171.669,450.366,202.894z
			 M339.607,152.844c-5.34,0.211-11.806-2.761-16.887-7.712c-4.72-4.601-7.004-15.247-7.736-24.006
			c8.044,0.464,19.175,2.185,24.216,7.098c5.054,4.926,8.175,11.293,8.145,16.617c-0.003,0.576,0.065,1.135,0.185,1.675
			c-2.543,1.958-4.954,4.073-7.211,6.339C340.083,152.841,339.846,152.835,339.607,152.844z M408.692,288.606
			c-4.308-4.307-7.29-9.585-8.338-14.511c8.568-0.901,16.792-3.261,24.387-6.958c0.992,0.795,1.962,1.635,2.874,2.547
			c5.612,5.612,7.64,18.294,8.22,27.143C426.984,296.247,414.303,294.218,408.692,288.606z"/>
	</g>
</g>
<g>
</g>
<g>
</g>
<g>
</g>
<g>
</g>
<g>
</g>
<g>
</g>
<g>
</g>
<g>
</g>
<g>
</g>
<g>
</g>
<g>
</g>
<g>
</g>
<g>
</g>
<g>
</g>
<g>
</g>
</svg>
