<?xml version="1.0" encoding="iso-8859-1"?>
<!-- Generator: Adobe Illustrator 21.0.0, SVG Export Plug-In . SVG Version: 6.00 Build 0)  -->
<svg version="1.1" id="Capa_1" xmlns="http://www.w3.org/2000/svg" xmlns:xlink="http://www.w3.org/1999/xlink" x="0px" y="0px"
	 viewBox="0 0 503.474 503.474" style="enable-background:new 0 0 503.474 503.474;" xml:space="preserve">
<g>
	<g>
		<circle style="fill:#5E8EE1;" cx="382.996" cy="127.539" r="112.978"/>
	</g>
	<g>
		<circle style="fill:#FFFFFF;" cx="382.996" cy="127.539" r="75.579"/>
	</g>
	<g>
		<path style="fill:#467BFF;" d="M382.996,14.561c-5.086,0-10.092,0.342-15,0.993c55.304,7.337,97.978,54.675,97.978,111.985
			c0,57.31-42.673,104.647-97.978,111.984c4.908,0.651,9.914,0.993,15,0.993c62.396,0,112.978-50.582,112.978-112.978
			C495.973,65.143,445.392,14.561,382.996,14.561z"/>
	</g>
	<g>
		<path style="fill:#FFF4F1;" d="M382.996,51.959c-5.136,0-10.151,0.518-15,1.494c34.555,6.958,60.58,37.48,60.58,74.085
			s-26.025,67.126-60.58,74.085c4.849,0.976,9.864,1.494,15,1.494c41.741,0,75.58-33.838,75.58-75.579
			C458.575,85.797,424.737,51.959,382.996,51.959z"/>
	</g>
	<g>
		<path style="fill:#FFD4C6;" d="M473.025,386.646h21.962l-21.513-56.295c-0.204-43.951-35.892-79.518-79.891-79.518
			c-44.125,0-79.896,35.771-79.896,79.896c0,1.966,0.074,3.915,0.214,5.846v39.336c0,62.41,50.593,113.003,113.003,113.003h0
			v-50.564h46.121V386.646z"/>
	</g>
	<g>
		<g>
			<path style="fill:#FDB0A9;" d="M473.475,330.35c-0.204-43.951-35.892-79.519-79.891-79.519c-5.129,0-10.138,0.503-14.999,1.426
				c36.831,7.001,64.71,39.265,64.89,78.092l15.938,41.707c2.69,7.039-2.508,14.589-10.043,14.589h0
				c-3.504,0-6.344,2.84-6.344,6.344v45.358h30v-51.703h21.962L473.475,330.35z"/>
		</g>
	</g>
	<g>
		<path style="fill:#FFD4C6;" d="M42.202,313.537H7.5l33.992-88.951C41.814,155.14,98.204,98.941,167.726,98.941
			c69.721,0,126.242,56.52,126.242,126.242c0,3.107-0.117,6.187-0.338,9.237v62.154c0,98.612-79.941,178.553-178.553,178.553h0
			v-79.895H42.202V313.537z"/>
	</g>
	<g>
		<path style="fill:#FDB0A9;" d="M167.726,98.941c-5.077,0-10.081,0.308-15.001,0.891c62.65,7.418,111.243,60.706,111.243,125.351
			c0,3.107-0.117,6.187-0.338,9.237v62.155c0,88.387-64.227,161.762-148.553,176.03v2.523h0
			c98.612,0,178.553-79.941,178.553-178.553V234.42c0.221-3.051,0.338-6.13,0.338-9.237
			C293.968,155.461,237.448,98.941,167.726,98.941z"/>
	</g>
	<g>
		<path style="fill:#FC9086;" d="M388.239,180.992c-1.197,0-2.381,0.057-3.557,0.138c-8.295-16.634-25.466-28.066-45.317-28.066
			c-9.953,0-19.228,2.884-27.055,7.846c-7.828-4.962-17.102-7.846-27.055-7.846c-19.903,0-37.114,11.491-45.384,28.197
			c-1.721-0.177-3.468-0.269-5.236-0.269c-27.956,0-50.62,22.663-50.62,50.62s22.663,50.62,50.62,50.62
			c0.655,0,1.304-0.025,1.953-0.049c6.047,21.188,25.539,36.705,48.667,36.705c9.953,0,19.228-2.884,27.055-7.846
			c7.828,4.962,17.102,7.846,27.055,7.846c23.113,0,42.593-15.496,48.655-36.661c0.074,0,0.146,0.005,0.22,0.005
			c27.956,0,50.62-22.663,50.62-50.62S416.196,180.992,388.239,180.992z"/>
	</g>
	<g>
		<g>
			<path style="fill:#F57A73;" d="M388.239,180.992c-1.198,0-2.381,0.057-3.557,0.139c-8.295-16.634-25.466-28.066-45.317-28.066
				c-5.222,0-10.254,0.801-14.991,2.272c13.267,4.117,24.197,13.541,30.308,25.795c1.177-0.082,2.36-0.139,3.557-0.139
				c27.956,0,50.62,22.663,50.62,50.62s-22.663,50.62-50.62,50.62c-0.074,0-0.146-0.005-0.22-0.005
				c-4.69,16.378-17.419,29.354-33.645,34.39c4.737,1.471,9.769,2.271,14.99,2.271c23.113,0,42.593-15.496,48.655-36.661
				c0.074,0,0.146,0.005,0.22,0.005c27.956,0,50.62-22.663,50.62-50.62S416.196,180.992,388.239,180.992z"/>
		</g>
	</g>
	<g>
		<path d="M384.484,136.066h18.15c4.143,0,7.5-3.358,7.5-7.5c0-4.142-3.357-7.5-7.5-7.5h-10.54V97.597c0-4.142-3.357-7.5-7.5-7.5
			s-7.5,3.358-7.5,7.5v29.733c-0.067,0.403-0.11,0.814-0.11,1.236C376.984,132.708,380.342,136.066,384.484,136.066z"/>
		<path d="M480.957,328.92c-0.603-29.287-15.879-56.274-40.451-71.933c3.74-7.673,5.853-16.28,5.853-25.375
			c0-0.527-0.026-1.048-0.04-1.571c35.798-22.15,57.154-60.415,57.154-102.501c0-66.432-54.046-120.478-120.478-120.478
			S262.518,61.107,262.518,127.539c0,1.124,0.019,2.247,0.05,3.37c-9.952-9.997-21.47-18.444-33.984-24.849
			c-18.952-9.7-39.427-14.619-60.859-14.619c-28.901,0-56.415,9.072-79.566,26.235c-3.327,2.467-4.025,7.164-1.558,10.491
			c2.467,3.328,7.166,4.026,10.491,1.559c20.548-15.233,44.973-23.285,70.633-23.285c36.493,0,70.084,16.211,92.763,44.611
			c-10.191,4.78-18.88,12.498-24.906,22.447c-0.317-0.005-0.633-0.008-0.948-0.008c-32.047,0-58.12,26.072-58.12,58.12
			c0,30.897,24.233,56.24,54.692,58.02c8.465,21.375,29.122,36.032,52.335,36.723c-13.791,78.667-80.961,137.625-160.965,141.11
			v-72.232c0-4.142-3.358-7.5-7.5-7.5H49.702v-74.195c0-4.142-3.358-7.5-7.5-7.5H18.395l30.103-78.774
			c0.323-0.844,0.49-1.739,0.494-2.643c0.126-27.259,9.721-53.843,27.016-74.854c2.632-3.198,2.174-7.925-1.024-10.557
			c-3.198-2.633-7.925-2.174-10.557,1.024c-19.19,23.313-29.965,52.715-30.421,82.932L0.494,310.86
			c-0.881,2.306-0.571,4.897,0.828,6.93c1.399,2.033,3.709,3.248,6.178,3.248h27.202v74.195c0,4.142,3.358,7.5,7.5,7.5h65.375
			l0,72.395c0,4.142,3.358,7.5,7.5,7.5c92.013,0,170.215-67.533,183.928-157.893c2.584-0.629,5.118-1.447,7.593-2.426
			c-0.268,2.794-0.41,5.605-0.41,8.42c0,2.006,0.072,4.061,0.214,6.111v39.071c0,21.165,5.567,41.986,16.099,60.21
			c1.391,2.405,3.91,3.749,6.501,3.749c1.273,0,2.564-0.325,3.746-1.008c3.586-2.073,4.813-6.66,2.74-10.246
			c-9.215-15.947-14.086-34.172-14.086-52.706v-39.336c0-0.181-0.007-0.361-0.02-0.541c-0.129-1.783-0.194-3.568-0.194-5.305
			c0-2.391,0.137-4.776,0.369-7.146c5.721,1.843,11.719,2.806,17.807,2.806c23.945,0,45.46-14.92,54.1-36.889
			c15.46-1.384,29.186-8.855,38.784-19.982c20.797,13.161,33.612,36.085,33.726,60.869c0.004,0.903,0.172,1.799,0.494,2.643
			l17.624,46.118h-11.067c-4.143,0-7.5,3.358-7.5,7.5v44.203h-38.621c-4.143,0-7.5,3.358-7.5,7.5v42.8
			c-24.104-1.698-46.799-11.558-64.572-28.191c-3.026-2.832-7.772-2.673-10.602,0.352c-2.83,3.024-2.673,7.771,0.352,10.601
			c22.397,20.959,51.633,32.502,82.322,32.502c4.143,0,7.5-3.358,7.5-7.5v-43.064h38.621c4.143,0,7.5-3.358,7.5-7.5v-44.203h14.463
			c2.468,0,4.778-1.214,6.178-3.248c1.399-2.033,1.709-4.624,0.828-6.93L480.957,328.92z M318.53,149.431
			c-2.375-7.018-3.614-14.431-3.614-21.893c0-37.539,30.541-68.08,68.08-68.08s68.079,30.541,68.079,68.08
			c0,22.789-11.074,43.577-29.788,56.292c-9.187-6.374-20.289-10.173-32.255-10.333c-10.511-17.348-29.125-27.933-49.667-27.933
			C332.193,145.564,325.143,146.888,318.53,149.431z M382.996,22.061c58.16,0,105.478,47.317,105.478,105.478
			c0,34.78-16.658,66.584-44.887,86.355c-2.345-7.31-6.102-13.99-10.947-19.726c21.07-15.644,33.436-40.019,33.436-66.629
			c0-45.81-37.27-83.08-83.079-83.08c-45.811,0-83.08,37.27-83.08,83.08c0,6.979,0.888,13.926,2.608,20.649
			c-5.557-1.731-11.372-2.624-17.269-2.624c-2.07,0-4.12,0.112-6.144,0.323c-1.055-6.027-1.592-12.185-1.592-18.349
			C277.518,69.378,324.836,22.061,382.996,22.061z M388.299,274.731l-0.229-0.005c-0.018,0-0.034,0-0.051,0
			c-3.344,0-6.287,2.216-7.209,5.435c-5.266,18.385-22.309,31.226-41.444,31.226c-8.178,0-16.146-2.31-23.041-6.681
			c-1.226-0.777-2.62-1.165-4.015-1.165s-2.79,0.389-4.016,1.166c-6.895,4.37-14.861,6.68-23.039,6.68
			c-19.154,0-36.201-12.856-41.456-31.264c-0.948-3.323-4.022-5.558-7.5-5.436c-0.553,0.021-1.106,0.044-1.665,0.044
			c-23.776,0-43.12-19.343-43.12-43.12s19.343-43.12,43.12-43.12c1.481,0,2.985,0.077,4.47,0.23c3.112,0.32,6.099-1.328,7.488-4.133
			c7.335-14.819,22.151-24.024,38.663-24.024c8.179,0,16.146,2.31,23.039,6.68c2.45,1.554,5.579,1.555,8.031,0
			c6.895-4.37,14.861-6.68,23.04-6.68c16.457,0,31.25,9.163,38.605,23.913c1.354,2.714,4.203,4.349,7.234,4.135
			c1.178-0.083,2.142-0.121,3.034-0.121c23.776,0,43.12,19.343,43.12,43.12C431.359,255.367,412.048,274.698,388.299,274.731z"/>
		<path d="M290.145,180.937c-11.83,0-22.718,5.947-29.124,15.908c-2.24,3.484-1.232,8.125,2.252,10.365
			c1.255,0.807,2.66,1.193,4.05,1.193c2.466,0,4.882-1.215,6.315-3.444c3.633-5.649,9.804-9.021,16.507-9.021
			c5.237,0,10.16,2.039,13.862,5.742c2.93,2.929,7.679,2.929,10.606,0.001c2.93-2.929,2.93-7.677,0.001-10.606
			C308.08,184.536,299.39,180.937,290.145,180.937z"/>
		<path d="M370.486,215.878c-11.691-1.853-23.368,2.325-31.251,11.163c-2.758,3.091-2.486,7.832,0.604,10.589
			s7.833,2.486,10.589-0.605c4.471-5.012,11.094-7.377,17.714-6.332c5.173,0.818,9.717,3.602,12.796,7.837
			c1.467,2.019,3.754,3.091,6.072,3.091c1.529,0,3.072-0.466,4.403-1.434c3.351-2.436,4.093-7.126,1.657-10.477
			C387.638,222.235,379.616,217.322,370.486,215.878z"/>
		<path d="M209.539,74.913c1.464,1.465,3.384,2.197,5.303,2.197s3.839-0.732,5.303-2.197l3.806-3.806l3.806,3.806
			c1.464,1.465,3.384,2.197,5.303,2.197c1.919,0,3.839-0.732,5.303-2.197c2.929-2.929,2.929-7.677,0-10.606l-3.806-3.806
			l3.806-3.806c2.929-2.929,2.929-7.678,0-10.606c-2.929-2.929-7.678-2.929-10.606,0l-3.806,3.806l-3.806-3.806
			c-2.928-2.929-7.677-2.929-10.606,0c-2.929,2.929-2.929,7.677,0,10.606l3.806,3.806l-3.806,3.806
			C206.61,67.236,206.61,71.984,209.539,74.913z"/>
		<path d="M136.321,166.484c1.464,1.465,3.384,2.197,5.303,2.197s3.839-0.732,5.303-2.197l3.806-3.806l3.806,3.806
			c1.464,1.465,3.384,2.197,5.303,2.197s3.839-0.732,5.303-2.197c2.929-2.929,2.929-7.678,0-10.606l-3.806-3.806l3.806-3.806
			c2.929-2.929,2.929-7.677,0-10.606c-2.929-2.929-7.678-2.929-10.606,0l-3.806,3.806l-3.806-3.806
			c-2.929-2.93-7.678-2.929-10.606,0c-2.929,2.929-2.929,7.678,0,10.606l3.806,3.806l-3.806,3.806
			C133.392,158.806,133.392,163.555,136.321,166.484z"/>
		<path d="M119.281,49.367c1.464,1.465,3.384,2.197,5.303,2.197s3.839-0.732,5.303-2.197l3.806-3.806l3.806,3.806
			c1.464,1.465,3.384,2.197,5.303,2.197s3.839-0.732,5.303-2.197c2.929-2.929,2.929-7.678,0-10.606l-3.806-3.806l3.806-3.806
			c2.929-2.929,2.929-7.677,0-10.606c-2.928-2.929-7.677-2.929-10.606,0l-3.806,3.806l-3.806-3.806
			c-2.929-2.93-7.678-2.929-10.606,0c-2.929,2.929-2.929,7.678,0,10.606l3.806,3.806l-3.806,3.806
			C116.352,41.689,116.352,46.438,119.281,49.367z"/>
	</g>
</g>
<g>
</g>
<g>
</g>
<g>
</g>
<g>
</g>
<g>
</g>
<g>
</g>
<g>
</g>
<g>
</g>
<g>
</g>
<g>
</g>
<g>
</g>
<g>
</g>
<g>
</g>
<g>
</g>
<g>
</g>
</svg>
