<?xml version="1.0" encoding="iso-8859-1"?>
<!-- Generator: Adobe Illustrator 21.0.0, SVG Export Plug-In . SVG Version: 6.00 Build 0)  -->
<svg version="1.1" id="Capa_1" xmlns="http://www.w3.org/2000/svg" xmlns:xlink="http://www.w3.org/1999/xlink" x="0px" y="0px"
	 viewBox="0 0 507.965 507.965" style="enable-background:new 0 0 507.965 507.965;" xml:space="preserve">
<g>
	<g>
		<path style="fill:#B4B4B4;" d="M195.888,414.765h-25.645c11.814,0,21.48,9.666,21.48,21.48v0.708
			c0,11.814-9.666,21.48-21.48,21.48h25.645c11.814,0,21.48-9.666,21.48-21.48v-0.708
			C217.368,424.432,207.702,414.765,195.888,414.765z"/>
	</g>
	<g>
		<path style="fill:#FFEC56;" d="M186.735,429.755l-0.968-1.588c-31.789-52.158-49.374-109.684-51.463-168.352l-1.445-40.58
			c-0.623,0-14.867-1.495-20.267-2.065c-0.001-0.138-0.001-0.217-0.001-0.217s-0.379,0.04-1.026,0.108
			c-0.647-0.068-1.026-0.108-1.026-0.108s0,0.078-0.001,0.217c-5.4,0.569-19.644,2.065-20.267,2.065l-1.445,40.579
			c-2.089,58.669-19.674,116.195-51.464,168.353l-0.967,1.587c0,0,66.095,0.571,75.17,0.109
			C120.641,430.326,186.735,429.755,186.735,429.755z"/>
	</g>
	<g>
		<path style="fill:#F9CD45;" d="M85.92,429.865c-1.454,0.074-4.375,0.121-8.249,0.149c7.601,0.028,15.032,0.041,21.071,0.023
			C92.604,430.017,87.902,429.965,85.92,429.865z"/>
	</g>
	<g>
		<path style="fill:#F9CD45;" d="M185.768,428.168c-31.789-52.158-49.374-109.684-51.463-168.353l-1.445-40.58
			c-0.623,0-14.867-1.495-20.267-2.064c-0.001-0.138-0.001-0.217-0.001-0.217s-0.379,0.04-1.026,0.108
			c-0.647-0.068-1.026-0.108-1.026-0.108s0,0.078-0.001,0.217c-2.673,0.282-7.513,0.79-11.796,1.232
			c4.368,0.451,8.157,0.832,8.471,0.832l1.445,40.58c2.089,58.668,19.674,116.195,51.463,168.353l0.968,1.588
			c0,0-21.228,0.183-41.275,0.258c20.309,0.144,66.921-0.258,66.921-0.258L185.768,428.168z"/>
	</g>
	<g>
		<circle style="fill:#FFEC56;" cx="110.234" cy="154.624" r="45.651"/>
	</g>
	<g>
		<path style="fill:#F9CD45;" d="M110.234,108.973c-4.454,0-8.753,0.65-12.823,1.839c18.968,5.543,32.828,23.053,32.828,43.812
			s-13.86,38.269-32.828,43.812c4.069,1.189,8.369,1.839,12.823,1.839c25.212,0,45.651-20.438,45.651-45.651
			C155.885,129.412,135.446,108.973,110.234,108.973z"/>
	</g>
	<g>
		<path style="fill:#FFEC56;" d="M133.472,232.271H88.137c-7.786,0-14.157-6.371-14.157-14.157v-2.319
			c0-7.786,6.371-14.157,14.157-14.157h45.335c7.786,0,14.157,6.371,14.157,14.157v2.319
			C147.629,225.9,141.259,232.271,133.472,232.271z"/>
	</g>
	<g>
		<path style="fill:#F9CD45;" d="M132.561,201.638h-25.645c8.287,0,15.068,6.781,15.068,15.068v0.497
			c0,8.288-6.781,15.068-15.068,15.068h25.645c8.287,0,15.068-6.781,15.068-15.068v-0.497
			C147.63,208.418,140.849,201.638,132.561,201.638z"/>
	</g>
	<g>
		<path style="fill:#DBDEDF;" d="M197.187,458.434H27.681c-11.1,0-20.181-9.082-20.181-20.181v-3.306
			c0-11.1,9.082-20.181,20.181-20.181h169.505c11.1,0,20.181,9.082,20.181,20.181v3.306
			C217.368,449.352,208.286,458.434,197.187,458.434z"/>
	</g>
	<path style="fill:#F7EC77;" d="M197.187,458.434H27.681c-11.1,0-20.181-9.082-20.181-20.181v-3.306
		c0-11.1,9.082-20.181,20.181-20.181h169.505c11.1,0,20.181,9.082,20.181,20.181v3.306
		C217.368,449.352,208.286,458.434,197.187,458.434z"/>
	<g>
		<path style="fill:#FC9086;" d="M469.833,429.755l-0.968-1.588c-31.789-52.158-49.374-109.684-51.463-168.352l-1.445-40.58
			c-0.623,0-14.867-1.495-20.267-2.065c-0.001-0.138-0.001-0.217-0.001-0.217s-0.379,0.04-1.026,0.108
			c-0.647-0.068-1.026-0.108-1.026-0.108s0,0.078-0.001,0.217c-5.4,0.569-19.644,2.065-20.267,2.065l-1.445,40.579
			c-2.089,58.669-19.674,116.195-51.464,168.353l-0.967,1.587c0,0,66.095,0.571,75.17,0.109
			C403.738,430.326,469.833,429.755,469.833,429.755z"/>
	</g>
	<g>
		<path style="fill:#F57A73;" d="M369.017,429.865c-1.454,0.074-4.375,0.121-8.249,0.149c7.601,0.028,15.032,0.041,21.071,0.023
			C375.701,430.017,370.999,429.965,369.017,429.865z"/>
	</g>
	<g>
		<path style="fill:#F57A73;" d="M468.865,428.168c-31.789-52.158-49.374-109.684-51.463-168.353l-1.445-40.58
			c-0.623,0-14.867-1.495-20.267-2.064c-0.001-0.138-0.001-0.217-0.001-0.217s-0.379,0.04-1.026,0.108
			c-0.647-0.068-1.026-0.108-1.026-0.108s0,0.078-0.001,0.217c-2.673,0.282-7.513,0.79-11.796,1.232
			c4.368,0.451,8.157,0.832,8.471,0.832l1.445,40.58c2.089,58.668,19.674,116.195,51.463,168.353l0.968,1.588
			c0,0-21.228,0.183-41.275,0.258c20.309,0.144,66.921-0.258,66.921-0.258L468.865,428.168z"/>
	</g>
	<g>
		<circle style="fill:#FC9086;" cx="393.331" cy="154.624" r="45.651"/>
	</g>
	<g>
		<path style="fill:#F57A73;" d="M393.332,108.973c-4.454,0-8.753,0.65-12.823,1.839c18.968,5.543,32.828,23.053,32.828,43.812
			s-13.86,38.269-32.828,43.812c4.069,1.189,8.369,1.839,12.823,1.839c25.212,0,45.651-20.438,45.651-45.651
			C438.982,129.412,418.544,108.973,393.332,108.973z"/>
	</g>
	<g>
		<path style="fill:#FC9086;" d="M416.57,232.271h-45.335c-7.786,0-14.157-6.371-14.157-14.157v-2.319
			c0-7.786,6.371-14.157,14.157-14.157h45.335c7.786,0,14.157,6.371,14.157,14.157v2.319
			C430.727,225.9,424.356,232.271,416.57,232.271z"/>
	</g>
	<g>
		<path style="fill:#F57A73;" d="M415.659,201.638h-25.645c8.287,0,15.068,6.781,15.068,15.068v0.497
			c0,8.288-6.781,15.068-15.068,15.068h25.645c8.287,0,15.068-6.781,15.068-15.068v-0.497
			C430.727,208.418,423.946,201.638,415.659,201.638z"/>
	</g>
	<g>
		<path style="fill:#FC9086;" d="M480.284,458.434H310.778c-11.1,0-20.181-9.082-20.181-20.181v-3.306
			c0-11.1,9.082-20.181,20.181-20.181h169.505c11.1,0,20.181,9.082,20.181,20.181v3.306
			C500.465,449.352,491.384,458.434,480.284,458.434z"/>
	</g>
	<g>
		<path style="fill:#F57A73;" d="M480.284,414.766h-30c11.1,0,20.181,9.082,20.181,20.181v3.306c0,11.1-9.082,20.181-20.181,20.181
			h30c11.1,0,20.181-9.082,20.181-20.181v-3.306C500.465,423.847,491.384,414.766,480.284,414.766z"/>
	</g>
	<g>
		<path style="fill:#B4B4B4;" d="M349.269,424.781l-1.132-1.857c-37.187-61.014-57.758-128.308-60.202-196.939l-1.69-47.47
			c-0.729,0-17.392-1.749-23.709-2.415c-0.001-0.162-0.001-0.253-0.001-0.253s-0.443,0.047-1.2,0.127
			c-0.757-0.08-1.2-0.127-1.2-0.127s0,0.092-0.001,0.253c-6.317,0.666-22.98,2.415-23.709,2.415l-1.69,47.47
			c-2.444,68.63-23.015,135.925-60.202,196.939l-1.132,1.857c0,0,77.317,0.668,87.934,0.128
			C271.952,425.449,349.269,424.781,349.269,424.781z"/>
	</g>
	<g>
		<path style="fill:#9A9999;" d="M231.335,424.909c-1.701,0.087-5.118,0.142-9.65,0.174c8.891,0.033,17.584,0.048,24.649,0.026
			C239.154,425.088,233.654,425.027,231.335,424.909z"/>
	</g>
	<g>
		<path style="fill:#9A9999;" d="M348.137,422.924c-37.187-61.014-57.758-128.309-60.202-196.939l-1.69-47.47
			c-0.729,0-17.392-1.749-23.709-2.415c-0.001-0.162-0.001-0.253-0.001-0.253s-0.443,0.047-1.2,0.127
			c-0.757-0.08-1.2-0.127-1.2-0.127s0,0.092-0.001,0.253c-3.127,0.33-8.789,0.925-13.799,1.441c5.11,0.527,9.542,0.974,9.91,0.974
			l1.69,47.47c2.443,68.63,23.015,135.925,60.202,196.939l1.132,1.857c0,0-24.833,0.214-48.284,0.302
			c23.758,0.169,78.284-0.302,78.284-0.302L348.137,422.924z"/>
	</g>
	<g>
		<circle style="fill:#E5DCDE;" cx="259.778" cy="102.933" r="53.402"/>
	</g>
	<g>
		<path style="fill:#D0CFD1;" d="M259.778,49.531c-5.21,0-10.24,0.76-15,2.151c22.188,6.484,38.402,26.968,38.402,51.251
			s-16.214,44.767-38.402,51.251c4.76,1.391,9.79,2.151,15,2.151c29.493,0,53.402-23.909,53.402-53.402
			C313.18,73.44,289.271,49.531,259.778,49.531z"/>
	</g>
	<g>
		<path style="fill:#DBDEDF;" d="M285.896,193.764h-50.901c-9.695,0-17.627-7.932-17.627-17.627v-0.581
			c0-9.695,7.932-17.627,17.627-17.627h50.901c9.695,0,17.627,7.932,17.627,17.627v0.581
			C303.523,185.832,295.591,193.764,285.896,193.764z"/>
	</g>
	<g>
		<path style="fill:#D0CFD1;" d="M285.896,157.93h-30c9.695,0,17.627,7.932,17.627,17.627v0.581c0,9.695-7.932,17.627-17.627,17.627
			h30c9.695,0,17.627-7.932,17.627-17.627v-0.581C303.523,165.862,295.591,157.93,285.896,157.93z"/>
	</g>
	<g>
		<path style="fill:#DBDEDF;" d="M359.975,458.33H164.727c-13.82,0-25.127-11.307-25.127-25.127v-0.828
			c0-13.82,11.307-25.128,25.127-25.128h195.248c13.82,0,25.127,11.307,25.127,25.128v0.828
			C385.103,447.022,373.796,458.33,359.975,458.33z"/>
	</g>
	<g>
		<path style="fill:#B4B4B4;" d="M359.975,407.247h-30c13.82,0,25.128,11.308,25.128,25.128v0.828
			c0,13.82-11.307,25.127-25.128,25.127h30c13.82,0,25.128-11.307,25.128-25.127v-0.828
			C385.103,418.554,373.796,407.247,359.975,407.247z"/>
	</g>
	<path d="M480.284,407.266h-14.75c-25.134-46.718-38.811-96.403-40.638-147.718l-0.753-21.147
		c8.217-3.078,14.083-11.009,14.083-20.287v-2.319c0-8.501-4.926-15.87-12.071-19.413c12.365-9.741,20.327-24.832,20.327-41.758
		c0-29.308-23.844-53.151-53.151-53.151s-53.15,23.843-53.15,53.151c0,17.131,8.155,32.385,20.777,42.112
		c-6.771,3.666-11.381,10.834-11.381,19.059v2.319c0,9.834,6.592,18.153,15.587,20.785l-0.735,20.649
		c-1.523,42.775-11.309,84.488-29.115,124.297c-24.526-50.338-37.936-103.435-39.884-158.152l-1.014-25.918
		c9.674-3.498,16.607-12.772,16.607-23.637v-0.581c0-10.498-6.474-19.508-15.637-23.26c15.308-11.073,25.295-29.069,25.295-49.363
		c0-33.582-27.32-60.902-60.902-60.902c-7.236,0-14.321,1.258-21.056,3.74c-3.887,1.432-5.877,5.744-4.444,9.631
		c1.432,3.886,5.745,5.875,9.63,4.444c5.069-1.868,10.409-2.815,15.87-2.815c25.311,0,45.902,20.591,45.902,45.902
		s-20.592,45.902-45.902,45.902s-45.902-20.592-45.902-45.902c0-10.169,3.255-19.801,9.413-27.853
		c2.516-3.291,1.889-7.998-1.402-10.514c-3.29-2.517-7.997-1.888-10.514,1.401c-8.176,10.691-12.497,23.473-12.497,36.965
		c0,20.516,10.208,38.682,25.8,49.722c-8.722,3.946-14.808,12.723-14.808,22.901v0.581c0,11.512,7.785,21.234,18.365,24.195
		l-0.993,25.386c-2.154,60.486-18.323,119.016-48.051,174.028h-0.685c-22.628-44.554-34.979-91.704-36.705-140.199l-0.753-21.147
		c8.217-3.078,14.083-11.009,14.083-20.287v-2.319c0-8.501-4.926-15.871-12.072-19.413c12.365-9.741,20.326-24.832,20.326-41.758
		c0-29.308-23.843-53.151-53.15-53.151s-53.151,23.843-53.151,53.151c0,17.131,8.155,32.385,20.778,42.112
		c-6.771,3.666-11.38,10.834-11.38,19.059v2.319c0,9.834,6.591,18.153,15.586,20.785l-0.736,20.649
		c-0.797,22.382-3.936,44.849-9.331,66.774c-0.989,4.022,1.469,8.085,5.491,9.075c0.602,0.148,1.204,0.219,1.798,0.219
		c3.371,0,6.436-2.29,7.277-5.71c5.64-22.923,8.922-46.416,9.755-69.825l0.723-20.311h29.041l0.724,20.311
		c1.719,48.28,13.497,95.256,35.021,139.801c-6.774,0.599-12.96,3.271-17.914,7.384H57.612
		c7.731-15.153,14.407-30.765,19.865-46.572c1.353-3.915-0.726-8.185-4.641-9.537c-3.922-1.353-8.187,0.727-9.537,4.641
		c-6.054,17.531-13.667,34.819-22.62,51.468H27.682C12.418,407.266,0,419.683,0,434.947v3.306c0,15.264,12.418,27.681,27.682,27.681
		h137.409v-0.104h194.885c1.223,0,2.429-0.073,3.618-0.205c0.673,0.198,1.384,0.309,2.122,0.309h114.568
		c15.263,0,27.681-12.417,27.681-27.681v-3.306C507.965,419.683,495.547,407.266,480.284,407.266z M72.083,154.624
		c0-21.037,17.114-38.151,38.151-38.151c21.036,0,38.15,17.114,38.15,38.151s-17.114,38.151-38.15,38.151
		C89.197,192.775,72.083,175.661,72.083,154.624z M81.48,215.795c0-3.671,2.986-6.657,6.656-6.657h45.336
		c3.671,0,6.657,2.986,6.657,6.657v2.319c0,3.604-2.881,6.542-6.46,6.647c-0.114-0.005-0.227-0.017-0.342-0.017
		c-0.091,0-0.181,0.001-0.271,0.005c-0.086,0.003-0.169,0.016-0.255,0.022H88.137c-3.67,0-6.656-2.986-6.656-6.657V215.795z
		 M355.181,154.624c0-21.037,17.114-38.151,38.15-38.151c21.037,0,38.151,17.114,38.151,38.151s-17.114,38.151-38.151,38.151
		C372.295,192.775,355.181,175.661,355.181,154.624z M364.577,215.795c0-3.671,2.986-6.657,6.657-6.657h45.335
		c3.671,0,6.657,2.986,6.657,6.657v2.319c0,3.67-2.986,6.657-6.657,6.657h-45.335c-3.671,0-6.657-2.986-6.657-6.657V215.795z
		 M379.419,260.081l0.723-20.311h29.041l0.723,20.312c1.817,51.036,14.824,100.499,38.683,147.184h-67.804
		c-5.652-4.693-12.907-7.519-20.81-7.519h-15.516C365.943,355.248,377.702,308.325,379.419,260.081z M224.868,176.138v-0.581
		c0-5.584,4.543-10.127,10.127-10.127h50.901c5.583,0,10.126,4.543,10.126,10.127v0.581c0,5.583-4.543,10.126-10.126,10.126h-50.901
		C229.411,186.264,224.868,181.721,224.868,176.138z M242.229,226.278l0.979-25.014h36.255l0.978,24.989
		c2.144,60.207,17.637,118.515,46.068,173.494H196.162C224.594,344.767,240.087,286.459,242.229,226.278z M164.727,414.747h166.313
		c0.399,0.065,0.8,0.109,1.199,0.109c0.407,0,0.81-0.044,1.209-0.109h26.528c9.72,0,17.627,7.908,17.627,17.627v0.828
		c0,9.72-7.907,17.627-17.627,17.627H164.727c-9.72,0-17.627-7.908-17.627-17.627v-0.828
		C147.1,422.654,155.007,414.747,164.727,414.747z M15,438.252v-3.306c0-6.992,5.688-12.681,12.682-12.681h17.418
		c0.016,0,0.031,0.003,0.047,0.003c0.015,0,0.03-0.003,0.044-0.003h88.519c-1.041,3.185-1.611,6.581-1.611,10.108v0.828
		c0,6.535,1.938,12.622,5.26,17.731H27.682C20.688,450.934,15,445.245,15,438.252z M492.965,438.252
		c0,6.992-5.688,12.681-12.681,12.681h-92.942c3.322-5.109,5.26-11.197,5.26-17.731v-0.828c0-3.528-0.57-6.924-1.611-10.108h89.292
		c6.992,0,12.681,5.689,12.681,12.681V438.252z"/>
</g>
<g>
</g>
<g>
</g>
<g>
</g>
<g>
</g>
<g>
</g>
<g>
</g>
<g>
</g>
<g>
</g>
<g>
</g>
<g>
</g>
<g>
</g>
<g>
</g>
<g>
</g>
<g>
</g>
<g>
</g>
</svg>
