<?xml version="1.0" encoding="iso-8859-1"?>
<!-- Generator: Adobe Illustrator 21.0.0, SVG Export Plug-In . SVG Version: 6.00 Build 0)  -->
<svg version="1.1" id="Capa_1" xmlns="http://www.w3.org/2000/svg" xmlns:xlink="http://www.w3.org/1999/xlink" x="0px" y="0px"
	 viewBox="0 0 507.431 507.431" style="enable-background:new 0 0 507.431 507.431;" xml:space="preserve">
<g>
	<g>
		<path style="fill:#FFEC56;" d="M455.139,63.91H252.242c-9.274,0-16.861,7.588-16.861,16.861s7.588,16.861,16.861,16.861h202.897
			c9.274,0,16.861-7.588,16.861-16.861S464.412,63.91,455.139,63.91z"/>
	</g>
	<g>
		<ellipse style="fill:#FFD4C6;" cx="353.69" cy="56.48" rx="26.371" ry="37.974"/>
	</g>
	<g>
		<path style="fill:#FFF4F1;" d="M336.418,87.052h133.083c16.806,0,30.43,13.624,30.43,30.43v344.875
			c0,16.806-13.624,30.43-30.43,30.43H228.523c-16.806,0-30.43-13.624-30.43-30.43V117.482c0-16.806,13.624-30.43,30.43-30.43
			H336.418"/>
	</g>
	<g>
		<rect x="251.931" y="392.908" style="fill:#FC9086;" width="207.333" height="54"/>
	</g>
	<g>
		<rect x="250.931" y="138.455" style="fill:#DBDEDF;" width="151.333" height="51.102"/>
	</g>
	<g>
		<path style="fill:#DBDEDF;" d="M469.5,87.052h-30c16.806,0,30.43,13.624,30.43,30.43v344.875c0,16.806-13.624,30.43-30.43,30.43
			h30c16.806,0,30.43-13.624,30.43-30.43V117.482C499.931,100.676,486.307,87.052,469.5,87.052z"/>
	</g>
	<g>
		<rect x="429.264" y="392.908" style="fill:#F57A73;" width="30" height="54"/>
	</g>
	<g>
		<rect x="372.264" y="138.455" style="fill:#B4B4B4;" width="30" height="51.102"/>
	</g>
	<g>
		<ellipse style="fill:#FFD4C6;" cx="116.855" cy="170.276" rx="26.371" ry="37.974"/>
	</g>
	<g>
		<path style="fill:#2970D6;" d="M41.48,462.766c-5.634,0.001-11.192-2.592-14.78-7.484c-5.98-8.156-4.218-19.615,3.937-25.596
			l65.628-48.126l-10.441-45.894c-0.148-10.112,6.707-19.65,16.819-19.799c10.088-0.163,29.415,9.15,29.566,19.262l0.813,55.342
			c0.088,5.927-2.699,11.53-7.48,15.036L52.295,459.22C49.031,461.612,45.237,462.766,41.48,462.766z"/>
	</g>
	<g>
		<path style="fill:#2970D6;" d="M126.464,308.237l72.863,64.637l1.521,1.35c3.08,2.732,4.704,6.521,4.817,10.313l1.674,75.038
			c0.226,8.635-6.665,15.817-15.391,16.041s-15.984-6.595-16.21-15.231c-0.007-0.254-0.006-0.56,0-0.81l-9.974-65.208l0.289-0.863
			l-70.959-38.296c-14.389-6.653-20.604-23.589-13.881-37.828c6.723-14.239,23.838-20.389,38.228-13.736
			C122.022,304.838,124.436,306.457,126.464,308.237z"/>
	</g>
	<g>
		<path style="fill:#B4B4B4;" d="M237.702,493.878c-0.413-18.459-15.495-33.298-34.053-33.298c-18.558,0-33.64,14.839-34.053,33.298
			H237.702z"/>
	</g>
	<g>
		<path style="fill:#ACEDED;" d="M243.881,213.409h-127.52c-0.637-0.033-1.278-0.049-1.923-0.049
			c-20.545,0-37.355,16.81-37.355,37.355v73.79h74.71v-73.79c0-1.208-0.063-2.403-0.177-3.583h92.264
			c9.274,0,16.861-7.588,16.861-16.861l0,0C260.743,220.997,253.155,213.409,243.881,213.409z"/>
	</g>
	<g>
		<g>
			<path style="fill:#66D6E6;" d="M125.28,247.132c-1.949,0-3.488,1.597-3.486,3.547c0,0.012,0,0.024,0,0.036v73.79h30v-73.79
				c0-1.208-0.063-2.403-0.177-3.583H125.28z"/>
		</g>
		<g>
			<path style="fill:#66D6E6;" d="M244.271,213.409h-30c9.273,0,16.861,7.588,16.861,16.861s-7.588,16.861-16.861,16.861h30
				c9.273,0,16.861-7.588,16.861-16.861S253.545,213.409,244.271,213.409z"/>
		</g>
	</g>
	<g>
		<path style="fill:#B4B4B4;" d="M55.659,489.79c12.76-13.345,12.589-34.502-0.534-47.625c-13.123-13.123-34.28-13.294-47.625-0.534
			L55.659,489.79z"/>
	</g>
	<g>
		<path d="M243.178,273.242c0,4.142,3.357,7.5,7.5,7.5h204.667c4.143,0,7.5-3.358,7.5-7.5s-3.357-7.5-7.5-7.5H250.678
			C246.536,265.742,243.178,269.099,243.178,273.242z"/>
		<path d="M250.678,322.742h204.667c4.143,0,7.5-3.358,7.5-7.5s-3.357-7.5-7.5-7.5H250.678c-4.143,0-7.5,3.358-7.5,7.5
			S246.536,322.742,250.678,322.742z"/>
		<path d="M250.678,364.742h204.667c4.143,0,7.5-3.358,7.5-7.5s-3.357-7.5-7.5-7.5H250.678c-4.143,0-7.5,3.358-7.5,7.5
			S246.536,364.742,250.678,364.742z"/>
		<path d="M251.931,454.409h207.333c4.143,0,7.5-3.358,7.5-7.5v-54c0-4.142-3.357-7.5-7.5-7.5H251.931c-4.143,0-7.5,3.358-7.5,7.5
			v54C244.431,451.051,247.789,454.409,251.931,454.409z M259.431,400.409h192.333v39H259.431V400.409z"/>
		<path d="M402.264,130.955H250.931c-4.143,0-7.5,3.358-7.5,7.5v51.102c0,4.142,3.357,7.5,7.5,7.5h151.333
			c4.143,0,7.5-3.358,7.5-7.5v-51.102C409.764,134.313,406.407,130.955,402.264,130.955z M394.764,182.057H258.431v-36.102h136.333
			V182.057z"/>
		<path d="M389.754,412.405c-4.15,0-7.5,3.36-7.5,7.5c0,4.15,3.35,7.5,7.5,7.5c4.14,0,7.5-3.35,7.5-7.5
			C397.254,415.765,393.894,412.405,389.754,412.405z"/>
		<path d="M325.754,412.405c-4.141,0-7.5,3.36-7.5,7.5c0,4.15,3.359,7.5,7.5,7.5c4.14,0,7.5-3.35,7.5-7.5
			C333.254,415.765,329.894,412.405,325.754,412.405z"/>
		<path d="M357.754,412.405c-4.141,0-7.5,3.36-7.5,7.5c0,4.15,3.359,7.5,7.5,7.5c4.14,0,7.5-3.35,7.5-7.5
			C365.254,415.765,361.894,412.405,357.754,412.405z"/>
		<path d="M50.686,98.465c1.465,1.464,3.385,2.197,5.304,2.197s3.839-0.732,5.304-2.197l3.806-3.806l3.806,3.806
			c1.465,1.464,3.385,2.197,5.304,2.197s3.839-0.732,5.304-2.197c2.929-2.929,2.929-7.678,0-10.606l-3.806-3.806l3.806-3.806
			c2.929-2.929,2.929-7.678,0-10.606c-2.93-2.929-7.678-2.929-10.607,0l-3.806,3.806l-3.806-3.806c-2.93-2.929-7.678-2.929-10.607,0
			c-2.929,2.929-2.929,7.678,0,10.606l3.806,3.806l-3.806,3.806C47.757,90.787,47.757,95.536,50.686,98.465z"/>
		<path d="M174.476,37.075c1.465,1.464,3.385,2.197,5.304,2.197s3.839-0.732,5.304-2.197l3.806-3.806l3.806,3.806
			c1.465,1.464,3.385,2.197,5.304,2.197s3.839-0.732,5.304-2.197c2.929-2.929,2.929-7.678,0-10.606l-3.806-3.806l3.806-3.806
			c2.929-2.929,2.929-7.678,0-10.606c-2.93-2.929-7.678-2.929-10.607,0l-3.806,3.806l-3.806-3.806c-2.93-2.929-7.678-2.929-10.607,0
			c-2.929,2.929-2.929,7.678,0,10.606l3.806,3.806l-3.806,3.806C171.547,29.397,171.547,34.146,174.476,37.075z"/>
		<path d="M499.931,217.668c4.143,0,7.5-3.358,7.5-7.5v-92.686c0-17.456-11.857-32.187-27.937-36.584
			c0.001-0.042,0.006-0.083,0.006-0.126c0-13.433-10.929-24.361-24.361-24.361H387.56c-0.028-25.466-14.894-45.404-33.87-45.404
			s-33.842,19.938-33.87,45.404h-67.578c-13.029,0-23.701,10.281-24.331,23.157c-20.632,0.33-37.318,17.206-37.318,37.915v88.427
			H138.12c7.728-8.266,12.606-21.041,12.606-35.633c0-25.5-14.878-45.475-33.871-45.475s-33.871,19.975-33.871,45.475
			c0,16.398,6.158,30.501,15.602,38.487c-16.931,6.42-29.002,22.799-29.002,41.952v27.274c0,4.142,3.357,7.5,7.5,7.5
			s7.5-3.358,7.5-7.5v-27.274c0-16.462,13.394-29.855,29.855-29.855c0.516,0,1.028,0.013,1.539,0.04
			c0.128,0.006,0.256,0.01,0.384,0.01h127.52c5.162,0,9.361,4.2,9.361,9.361s-4.199,9.361-9.361,9.361h-92.265
			c-2.115,0-4.132,0.893-5.553,2.458c-1.422,1.566-2.116,3.659-1.912,5.764c0.094,0.972,0.142,1.935,0.142,2.86v66.29h-59.71v-9.016
			c0-4.142-3.357-7.5-7.5-7.5s-7.5,3.358-7.5,7.5v16.516c0,0.375,0.037,0.741,0.09,1.102c-0.018,0.123-0.042,0.243-0.055,0.368
			c-1.083,11.146,4.102,22.484,13.176,30.188l5.064,22.26c0,0-62.852,46.251-63.299,46.869c-8.12,1.256-15.932,4.884-22.243,10.919
			c-1.458,1.395-2.293,3.318-2.316,5.336c-0.022,2.018,0.77,3.96,2.196,5.387l48.158,48.159c1.408,1.407,3.315,2.197,5.304,2.197
			c0.027,0,0.056,0,0.084,0c2.019-0.022,3.942-0.857,5.337-2.316c10.456-10.935,13.708-26.367,9.849-40.117l59.048-43.302
			c6.726-4.932,10.667-12.855,10.543-21.194l-0.031-2.129l18.256,9.853c0,0,10.33,68.868,11.688,71.733
			c-5.049,6.711-8.135,14.969-8.336,23.894c-0.045,2.018,0.725,3.968,2.136,5.412c1.411,1.443,3.344,2.256,5.362,2.256h68.107
			c1.381,0,2.717-0.389,3.878-1.091H469.5c20.915,0,37.931-17.016,37.931-37.93V240.168c0-4.142-3.357-7.5-7.5-7.5
			s-7.5,3.358-7.5,7.5v222.189c0,12.644-10.287,22.93-22.931,22.93H244.128c-3.459-14.77-14.902-26.594-29.397-30.669l-1.568-70.305
			c-0.18-6-2.854-11.723-7.336-15.698l-0.253-0.225c0.007-0.132,0.02-0.261,0.02-0.395V254.632h38.288
			c10.455,0,19.391-6.621,22.84-15.89h133.888c4.143,0,7.5-3.358,7.5-7.5s-3.357-7.5-7.5-7.5H267.347
			c-2.862-10.271-12.294-17.833-23.466-17.833h-38.288v-88.427c0-12.644,10.287-22.93,22.931-22.93h106.41
			c5.338,4.69,11.767,7.403,18.756,7.403s13.418-2.713,18.756-7.403H469.5c12.644,0,22.931,10.287,22.931,22.93v92.686
			C492.431,214.31,495.789,217.668,499.931,217.668z M54.721,478.246l-35.677-35.678c9.972-5,22.537-3.339,30.777,4.901
			C58.062,455.708,59.721,468.273,54.721,478.246z M125.522,390.581c0.052,3.493-1.599,6.811-4.416,8.876l-56.92,41.741
			c-1.139-1.512-2.386-2.965-3.758-4.337c-4.168-4.169-9.048-7.25-14.265-9.262l54.536-39.993c2.41-1.767,3.541-4.797,2.878-7.711
			l-3.005-13.208l24.795,13.382L125.522,390.581z M98.657,348.609c-0.137-0.073-0.274-0.143-0.415-0.208
			c-7.097-3.282-12.231-9.732-13.474-16.396h58.913l50.577,46.397c0.017,0.015,0.035,0.028,0.051,0.043
			c0.014,0.013,0.026,0.027,0.041,0.04l1.522,1.351c1.403,1.245,2.241,3.041,2.296,4.87l1.53,68.57
			c-5.949,0.575-11.552,2.437-16.531,5.294c-0.006-0.042-0.007-0.085-0.014-0.128l-9.724-63.567
			c0.589-3.161-0.914-6.404-3.813-7.969L98.657,348.609z M228.876,486.378h-50.455c3.517-10.587,13.574-18.298,25.228-18.298
			S225.36,475.791,228.876,486.378z M190.593,354.684l-31.427-28.83c0.08-0.438,0.127-0.888,0.127-1.349v-69.873h31.3V354.684z
			 M116.855,139.801c10.229,0,18.871,13.956,18.871,30.475c0,16.519-8.642,30.474-18.871,30.474s-18.871-13.956-18.871-30.474
			C97.984,153.757,106.625,139.801,116.855,139.801z M464.412,79.552h-81.4c1.101-2.559,2.021-5.282,2.739-8.142h69.389
			C459.887,71.41,463.811,74.966,464.412,79.552z M252.242,71.41h69.388c0.718,2.86,1.637,5.583,2.739,8.142h-81.399
			C243.57,74.966,247.494,71.41,252.242,71.41z M353.69,86.954c-10.229,0-18.871-13.956-18.871-30.474
			c0-16.519,8.642-30.475,18.871-30.475s18.871,13.956,18.871,30.475C372.561,72.999,363.919,86.954,353.69,86.954z"/>
	</g>
</g>
<g>
</g>
<g>
</g>
<g>
</g>
<g>
</g>
<g>
</g>
<g>
</g>
<g>
</g>
<g>
</g>
<g>
</g>
<g>
</g>
<g>
</g>
<g>
</g>
<g>
</g>
<g>
</g>
<g>
</g>
</svg>
