<?xml version="1.0" encoding="iso-8859-1"?>
<!-- Generator: Adobe Illustrator 21.0.0, SVG Export Plug-In . SVG Version: 6.00 Build 0)  -->
<svg version="1.1" id="Capa_1" xmlns="http://www.w3.org/2000/svg" xmlns:xlink="http://www.w3.org/1999/xlink" x="0px" y="0px"
	 viewBox="0 0 500.339 500.339" style="enable-background:new 0 0 500.339 500.339;" xml:space="preserve">
<g>
	<g>
		<path style="fill:#FFF4F1;" d="M58.175,376.738H24.405c-9.298,0-16.905-7.607-16.905-16.905V41.849
			c0-9.298,7.607-16.905,16.905-16.905h451.529c9.298,0,16.905,7.607,16.905,16.905v317.984c0,9.298-7.607,16.905-16.905,16.905
			H88.175"/>
	</g>
	<g>
		<rect x="173.478" y="351.298" style="fill:#9A9999;" width="153.382" height="101.528"/>
	</g>
	<g>
		<rect x="296.861" y="351.298" style="fill:#696867;" width="30" height="101.528"/>
	</g>
	<g>
		<path style="fill:#5E8EE1;" d="M213.233,24.945H24.405c-9.298,0-16.905,7.607-16.905,16.905v317.984
			c0,9.297,7.607,16.904,16.905,16.904h188.828V24.945z"/>
	</g>
	<g>
		<rect x="183.233" y="24.945" style="fill:#467BFF;" width="30" height="351.793"/>
	</g>
	<g>
		<path style="fill:#DBDEDF;" d="M492.839,64.878V41.685c0-9.207-7.325-16.741-16.278-16.741H23.779
			c-8.953,0-16.278,7.533-16.278,16.741v23.193H492.839z"/>
	</g>
	<g>
		<path style="fill:#DBDEDF;" d="M7.5,325.552v33.638c0,9.651,6.988,17.548,15.53,17.548h454.279c8.541,0,15.53-7.896,15.53-17.548
			v-33.638H7.5z"/>
	</g>
	<g>
		<path style="fill:#E9EBEC;" d="M475.934,24.945h-30c9.297,0,16.905,7.607,16.905,16.905v317.984
			c0,9.297-7.607,16.904-16.905,16.904h30c9.297,0,16.905-7.607,16.905-16.904V41.849C492.839,32.552,485.232,24.945,475.934,24.945
			z"/>
	</g>
	<g>
		<path style="fill:#B4B4B4;" d="M476.56,24.945h-30c8.953,0,16.278,7.533,16.278,16.741v23.193h30V41.686
			C492.839,32.478,485.513,24.945,476.56,24.945z"/>
	</g>
	<g>
		<path style="fill:#D0CFD1;" d="M368.653,475.394c-0.738-27.01-22.962-48.879-50.044-48.879h-136.88
			c-27.082,0-49.306,21.87-50.044,48.879H368.653z"/>
	</g>
	<g>
		<path style="fill:#B4B4B4;" d="M462.839,325.552v33.638c0,9.651-6.988,17.548-15.53,17.548h30c8.541,0,15.53-7.896,15.53-17.548
			v-33.638H462.839z"/>
	</g>
	<g>
		<path style="fill:#B4B4B4;" d="M318.609,426.515h-30c27.082,0,49.306,21.87,50.044,48.879h30
			C367.916,448.385,345.691,426.515,318.609,426.515z"/>
	</g>
	<g>
		<circle style="fill:#ACEDED;" cx="57.09" cy="106.341" r="14.347"/>
	</g>
	<g>
		<circle style="fill:#FFF4F1;" cx="57.09" cy="165.721" r="14.347"/>
	</g>
	<circle style="fill:#FFEC56;" cx="57.09" cy="165.721" r="14.347"/>
	<g>
		<circle style="fill:#FC9086;" cx="57.09" cy="225.102" r="14.347"/>
	</g>
	<g>
		<circle style="fill:#467BFF;" cx="57.09" cy="284.483" r="14.347"/>
	</g>
	<g>
		<path style="fill:#FFEC56;" d="M297.156,206.758h151.656c8.103,0,14.672,6.569,14.672,14.672v0
			c0,8.103-6.569,14.672-14.672,14.672h-14.866l-19.661,19.054l-19.661-19.054h-97.469c-8.103,0-14.672-6.569-14.672-14.672v0
			C282.484,213.327,289.053,206.758,297.156,206.758z"/>
	</g>
	<g>
		<path style="fill:#FC9086;" d="M337.156,104.189h111.656c8.103,0,14.672,6.569,14.672,14.672v0
			c0,8.103-6.569,14.672-14.672,14.672h-14.866l-19.661,19.054l-19.661-19.054h-57.469c-8.103,0-14.672-6.569-14.672-14.672v0
			C322.484,110.757,329.053,104.189,337.156,104.189z"/>
	</g>
	<g>
		<path d="M57.09,143.874c-12.046,0-21.847,9.801-21.847,21.847s9.801,21.847,21.847,21.847s21.847-9.8,21.847-21.847
			S69.136,143.874,57.09,143.874z M57.09,172.568c-3.775,0-6.847-3.071-6.847-6.847s3.072-6.847,6.847-6.847
			s6.847,3.072,6.847,6.847S60.865,172.568,57.09,172.568z"/>
		<path d="M432.404,283.854c-4.14,0-7.5,3.36-7.5,7.5c0,4.15,3.36,7.5,7.5,7.5s7.5-3.35,7.5-7.5
			C439.904,287.214,436.544,283.854,432.404,283.854z"/>
		<path d="M406.404,283.854c-4.14,0-7.5,3.36-7.5,7.5c0,4.15,3.36,7.5,7.5,7.5s7.5-3.35,7.5-7.5
			C413.904,287.214,410.544,283.854,406.404,283.854z"/>
		<path d="M458.404,283.854c-4.14,0-7.5,3.36-7.5,7.5c0,4.15,3.36,7.5,7.5,7.5s7.5-3.35,7.5-7.5
			C465.904,287.214,462.544,283.854,458.404,283.854z"/>
		<path d="M57.09,84.493c-12.046,0-21.847,9.801-21.847,21.847s9.801,21.847,21.847,21.847s21.847-9.801,21.847-21.847
			S69.136,84.493,57.09,84.493z M57.09,113.188c-3.775,0-6.847-3.072-6.847-6.847s3.072-6.847,6.847-6.847s6.847,3.072,6.847,6.847
			S60.865,113.188,57.09,113.188z"/>
		<path d="M57.09,203.255c-12.046,0-21.847,9.801-21.847,21.847s9.801,21.847,21.847,21.847s21.847-9.801,21.847-21.847
			S69.136,203.255,57.09,203.255z M57.09,231.949c-3.775,0-6.847-3.072-6.847-6.847s3.072-6.847,6.847-6.847
			s6.847,3.072,6.847,6.847S60.865,231.949,57.09,231.949z"/>
		<path d="M57.09,262.635c-12.046,0-21.847,9.801-21.847,21.847s9.801,21.847,21.847,21.847s21.847-9.8,21.847-21.847
			S69.136,262.635,57.09,262.635z M57.09,291.329c-3.775,0-6.847-3.071-6.847-6.847s3.072-6.847,6.847-6.847
			s6.847,3.072,6.847,6.847S60.865,291.329,57.09,291.329z"/>
		<path d="M448.813,199.258H297.156c-12.226,0-22.172,9.946-22.172,22.172s9.946,22.172,22.172,22.172h94.43l17.48,16.939
			c1.454,1.41,3.337,2.114,5.219,2.114s3.765-0.705,5.219-2.114l17.48-16.939h11.828c12.226,0,22.172-9.946,22.172-22.172
			S461.038,199.258,448.813,199.258z M448.813,228.602h-14.866c-1.948,0-3.82,0.758-5.219,2.114l-14.442,13.996l-14.442-13.996
			c-1.399-1.356-3.271-2.114-5.219-2.114h-97.468c-3.955,0-7.172-3.217-7.172-7.172s3.217-7.172,7.172-7.172h151.656
			c3.955,0,7.172,3.217,7.172,7.172S452.767,228.602,448.813,228.602z"/>
		<path d="M337.156,141.032h54.43l17.48,16.939c1.454,1.41,3.337,2.114,5.219,2.114s3.765-0.705,5.219-2.114l17.48-16.939h11.828
			c12.226,0,22.172-9.946,22.172-22.172s-9.946-22.172-22.172-22.172H337.156c-12.226,0-22.172,9.946-22.172,22.172
			S324.931,141.032,337.156,141.032z M337.156,111.689h111.656c3.955,0,7.172,3.217,7.172,7.172s-3.217,7.172-7.172,7.172h-14.866
			c-1.948,0-3.82,0.758-5.219,2.114l-14.442,13.996l-14.442-13.996c-1.399-1.356-3.271-2.114-5.219-2.114h-57.468
			c-3.955,0-7.172-3.217-7.172-7.172S333.202,111.689,337.156,111.689z"/>
		<path d="M105.155,112.868h69.195c4.142,0,7.5-3.358,7.5-7.5s-3.358-7.5-7.5-7.5h-69.195c-4.142,0-7.5,3.358-7.5,7.5
			S101.013,112.868,105.155,112.868z"/>
		<path d="M174.35,157.359h-69.195c-4.142,0-7.5,3.358-7.5,7.5s3.358,7.5,7.5,7.5h69.195c4.142,0,7.5-3.358,7.5-7.5
			S178.492,157.359,174.35,157.359z"/>
		<path d="M174.35,216.85h-69.195c-4.142,0-7.5,3.358-7.5,7.5s3.358,7.5,7.5,7.5h69.195c4.142,0,7.5-3.358,7.5-7.5
			S178.492,216.85,174.35,216.85z"/>
		<path d="M174.35,276.341h-69.195c-4.142,0-7.5,3.358-7.5,7.5s3.358,7.5,7.5,7.5h69.195c4.142,0,7.5-3.358,7.5-7.5
			S178.492,276.341,174.35,276.341z"/>
		<path d="M475.934,17.445H282.169c-4.142,0-7.5,3.358-7.5,7.5s3.358,7.5,7.5,7.5h193.765c5.186,0,9.405,4.219,9.405,9.405v15.529
			H15V41.849c0-5.186,4.219-9.405,9.405-9.405h217.765c4.142,0,7.5-3.358,7.5-7.5s-3.358-7.5-7.5-7.5H24.405
			C10.948,17.445,0,28.392,0,41.849v317.984c0,13.457,10.948,24.404,24.405,24.404h33.771c4.142,0,7.5-3.358,7.5-7.5
			s-3.358-7.5-7.5-7.5H24.405c-5.186,0-9.405-4.219-9.405-9.404v-26.781h470.339v26.781c0,5.186-4.219,9.404-9.405,9.404H88.175
			c-4.142,0-7.5,3.358-7.5,7.5s3.358,7.5,7.5,7.5h77.803v37.037c-23.453,6.824-41.093,28.403-41.79,53.916
			c-0.055,2.024,0.71,3.984,2.122,5.435c1.412,1.451,3.351,2.27,5.375,2.27h236.968c2.024,0,3.963-0.818,5.375-2.27
			c1.412-1.451,2.177-3.411,2.122-5.435c-0.697-25.512-18.336-47.092-41.79-53.916v-37.037h141.573
			c13.457,0,24.405-10.948,24.405-24.404V41.849C500.339,28.392,489.391,17.445,475.934,17.445z M360.233,467.894H140.106
			c4.135-19.26,21.411-33.879,41.624-33.879h136.88C338.822,434.015,356.098,448.634,360.233,467.894z M319.361,419.034
			c-0.251-0.003-0.5-0.019-0.751-0.019h-136.88c-0.252,0-0.5,0.016-0.751,0.019v-34.796h138.383V419.034z M15,72.378h190.733
			v245.674H15V72.378z M220.733,318.052V72.378h264.605v245.674H220.733z"/>
	</g>
</g>
<g>
</g>
<g>
</g>
<g>
</g>
<g>
</g>
<g>
</g>
<g>
</g>
<g>
</g>
<g>
</g>
<g>
</g>
<g>
</g>
<g>
</g>
<g>
</g>
<g>
</g>
<g>
</g>
<g>
</g>
</svg>
