<?xml version="1.0" encoding="iso-8859-1"?>
<!-- Generator: Adobe Illustrator 21.0.0, SVG Export Plug-In . SVG Version: 6.00 Build 0)  -->
<svg version="1.1" id="Capa_1" xmlns="http://www.w3.org/2000/svg" xmlns:xlink="http://www.w3.org/1999/xlink" x="0px" y="0px"
	 viewBox="0 0 505.165 505.165" style="enable-background:new 0 0 505.165 505.165;" xml:space="preserve">
<g>
	<g>
		<path style="fill:#2970D6;" d="M462.287,456.239c5.866,0.001,11.653-2.698,15.389-7.792c6.226-8.491,4.391-20.422-4.098-26.649
			l-68.329-50.107l10.871-47.783c0.154-10.528-6.983-20.459-17.511-20.614c-10.503-0.17-30.626,9.526-30.782,20.054l-0.847,57.619
			c-0.092,6.171,2.81,12.004,7.787,15.654l76.26,55.924C454.425,455.038,458.374,456.239,462.287,456.239z"/>
	</g>
	<g>
		<path style="fill:#5E8EE1;" d="M373.806,295.352l-75.862,67.297l-1.584,1.405c-3.206,2.844-4.897,6.79-5.015,10.737l-1.743,78.126
			c-0.235,8.991,6.939,16.468,16.025,16.701c9.086,0.233,16.642-6.867,16.877-15.857c0.007-0.264,0.006-0.583,0-0.844l10.385-67.891
			l-0.301-0.898l73.879-39.872c14.981-6.927,21.452-24.56,14.452-39.385c-7-14.825-24.819-21.228-39.801-14.301
			C378.43,291.813,375.917,293.498,373.806,295.352z"/>
	</g>
	<g>
		<path style="fill:#FC9086;" d="M258.491,126.627L258.491,126.627c6.827-6.827,17.999-6.827,24.827,0l78.612,78.612
			c6.684-5.412,15.176-8.669,24.396-8.669c21.391,0,38.892,17.501,38.892,38.892v76.827h-77.784v-71.893l-88.942-88.942
			C251.664,144.627,251.664,133.454,258.491,126.627z"/>
	</g>
	<g>
		<g>
			<path style="fill:#F57A73;" d="M353.138,196.708c0.081-0.007,0.161-0.013,0.242-0.019l-69.68-69.68
				c-5.391-5.391-13.637-7.022-20.502-3.708c-3.118,1.505-5.399,3.691-7.016,6.19l50.538,50.538
				C318.929,192.238,335.931,198.124,353.138,196.708z"/>
		</g>
		<g>
			<path style="fill:#F57A73;" d="M386.325,196.57c-5.307,0-10.371,1.084-14.99,3.033c13.994,5.903,23.882,19.782,23.882,35.859
				v76.827h30v-76.827C425.217,214.072,407.716,196.57,386.325,196.57z"/>
		</g>
	</g>
	<g>
		<path style="fill:#2970D6;" d="M42.878,456.239c-5.866,0.001-11.653-2.698-15.389-7.792c-6.226-8.491-4.391-20.422,4.098-26.649
			l68.329-50.107l-10.871-47.783c-0.154-10.528,6.983-20.459,17.511-20.614c10.503-0.17,30.626,9.526,30.782,20.054l0.847,57.619
			c0.092,6.171-2.81,12.004-7.787,15.654l-76.26,55.924C50.74,455.038,46.79,456.239,42.878,456.239z"/>
	</g>
	<g>
		<path style="fill:#5E8EE1;" d="M131.359,295.352l75.862,67.297l1.584,1.405c3.206,2.844,4.897,6.79,5.015,10.737l1.743,78.126
			c0.235,8.991-6.939,16.468-16.025,16.701s-16.642-6.867-16.877-15.857c-0.007-0.264-0.006-0.583,0-0.844l-10.385-67.891
			l0.301-0.898l-73.879-39.872c-14.981-6.927-21.452-24.56-14.452-39.385c7-14.825,24.819-21.228,39.801-14.301
			C126.735,291.813,129.248,293.498,131.359,295.352z"/>
	</g>
	<g>
		<path style="fill:#B4B4B4;" d="M247.175,488.632c-0.43-19.218-16.133-34.668-35.454-34.668c-19.322,0-35.024,15.45-35.454,34.668
			H247.175z"/>
	</g>
	<g>
		<path style="fill:#B4B4B4;" d="M57.64,484.375c13.285-13.894,13.107-35.922-0.556-49.584
			C43.422,421.128,21.394,420.95,7.5,434.235L57.64,484.375z"/>
	</g>
	<g>
		<path style="fill:#ACEDED;" d="M246.673,126.627L246.673,126.627c-6.827-6.827-17.999-6.827-24.827,0l-78.612,78.612
			c-6.684-5.412-15.176-8.669-24.396-8.669c-21.391,0-38.892,17.501-38.892,38.892v76.827h77.784v-71.893l88.942-88.942
			C253.501,144.627,253.501,133.454,246.673,126.627z"/>
	</g>
	<g>
		<g>
			<path style="fill:#66D6E6;" d="M246.84,126.796c-6.827-7.012-18.408-6.753-25.328,0.167l-2.529,2.529
				c4.397,6.795,3.631,16.022-2.309,21.963l-67.659,67.659c-13.627,13.627-21.283,32.11-21.283,51.382v41.794h30v-71.893
				l88.942-88.942C253.445,144.682,253.5,133.637,246.84,126.796z"/>
		</g>
	</g>
	<g>
		<path style="fill:#B4B4B4;" d="M257.99,488.632c0.43-19.218,16.133-34.668,35.454-34.668c19.322,0,35.024,15.45,35.454,34.668
			H257.99z"/>
	</g>
	<g>
		<path style="fill:#B4B4B4;" d="M447.524,484.375c-13.285-13.894-13.107-35.922,0.556-49.584
			c13.663-13.663,35.691-13.841,49.584-0.556L447.524,484.375z"/>
	</g>
	<g>
		<ellipse style="fill:#FFD4C6;" cx="119.043" cy="132.892" rx="27.456" ry="39.537"/>
	</g>
	<g>
		<ellipse style="fill:#FFD4C6;" cx="386.122" cy="132.892" rx="27.456" ry="39.537"/>
	</g>
	<g>
		<path style="fill:#FFD4C6;" d="M250.927,96.626c-0.073-4.45-4.521-7.598-8.686-6.028c-11.901,4.486-20.277,16.069-20.058,29.517
			c0.219,13.447,8.969,24.751,21.01,28.846c4.213,1.433,8.557-1.858,8.484-6.308L250.927,96.626z"/>
	</g>
	<g>
		<path style="fill:#FFD4C6;" d="M251.368,96.976c-0.035-4.45,4.336-7.705,8.537-6.236c12.006,4.197,20.66,15.574,20.766,29.022
			c0.106,13.448-8.368,24.96-20.306,29.346c-4.177,1.535-8.599-1.651-8.634-6.101L251.368,96.976z"/>
	</g>
	<g>
		<path d="M119.043,179.929c19.602,0,34.956-20.661,34.956-47.037c0-26.375-15.354-47.037-34.956-47.037
			s-34.957,20.661-34.957,47.037C84.086,159.268,99.441,179.929,119.043,179.929z M119.043,100.855
			c10.817,0,19.956,14.671,19.956,32.037s-9.139,32.037-19.956,32.037s-19.957-14.671-19.957-32.037
			S108.226,100.855,119.043,100.855z"/>
		<path d="M386.122,179.929c19.602,0,34.956-20.661,34.956-47.037c0-26.375-15.354-47.037-34.956-47.037
			s-34.956,20.661-34.956,47.037C351.166,159.268,366.52,179.929,386.122,179.929z M386.122,100.855
			c10.817,0,19.956,14.671,19.956,32.037s-9.139,32.037-19.956,32.037s-19.956-14.671-19.956-32.037
			S375.305,100.855,386.122,100.855z"/>
		<path d="M502.849,428.814c-6.559-6.271-14.685-10.027-23.126-11.307c-0.459-0.658-66.069-48.952-66.069-48.952l5.336-23.456
			c10.068-8.463,15.559-21.179,13.728-33.36v-25.59c0-4.142-3.357-7.5-7.5-7.5s-7.5,3.358-7.5,7.5v18.638h-62.784v-64.393
			c0-1.989-0.79-3.897-2.196-5.303l-82.528-82.528c5.809-3.673,10.488-8.82,13.613-14.827l72.804,72.804
			c2.714,2.713,7.038,2.942,10.023,0.526c5.653-4.578,12.458-6.998,19.676-6.998c17.31,0,31.393,14.083,31.393,31.392v20.688
			c0,4.142,3.357,7.5,7.5,7.5s7.5-3.358,7.5-7.5v-20.688c0-25.581-20.812-46.392-46.393-46.392c-8.266,0-16.408,2.258-23.509,6.448
			l-74.194-74.195c-0.149-0.149-0.306-0.286-0.464-0.42c0.009-0.399,0.017-0.799,0.014-1.201
			c-0.129-16.21-10.493-30.695-25.791-36.042c-3.663-1.28-7.681-0.936-11.074,0.874c-3.566-2.026-7.859-2.405-11.711-0.954
			c-15.165,5.717-25.175,20.448-24.911,36.657c0.015,0.938,0.069,1.87,0.151,2.794l-72.488,72.487
			c-7.101-4.19-15.243-6.448-23.509-6.448c-25.581,0-46.392,20.812-46.392,46.392v20.688c0,4.142,3.358,7.5,7.5,7.5
			s7.5-3.358,7.5-7.5v-20.688c0-17.31,14.083-31.392,31.392-31.392c7.218,0,14.022,2.42,19.676,6.998
			c2.984,2.416,7.308,2.188,10.022-0.526l71.457-71.457c3.423,5.824,8.35,10.723,14.345,14.095l-81.913,81.913
			c-1.407,1.406-2.197,3.314-2.197,5.303v64.393H87.447V286.15c0-4.142-3.358-7.5-7.5-7.5s-7.5,3.358-7.5,7.5v26.138
			c0,0.395,0.04,0.78,0.098,1.158c-0.022,0.144-0.05,0.285-0.064,0.432c-1.111,11.527,4.278,23.254,13.69,31.205l5.34,23.472
			c0,0-65.609,48.294-66.068,48.952c-8.442,1.279-16.568,5.036-23.126,11.307c-1.459,1.395-2.294,3.319-2.316,5.337
			s0.769,3.96,2.196,5.387l50.14,50.141c1.407,1.407,3.315,2.197,5.303,2.197c0.028,0,0.056,0,0.084,0
			c2.018-0.022,3.942-0.857,5.336-2.316c10.862-11.359,14.206-27.413,10.125-41.679l61.649-45.209
			c6.922-5.076,10.979-13.231,10.851-21.813l-0.04-2.743l19.605,10.581c0,0,10.812,71.902,12.257,74.898
			c-5.294,6.967-8.531,15.568-8.74,24.869c-0.045,2.018,0.725,3.969,2.136,5.412s3.344,2.256,5.362,2.256h152.634
			c2.019,0,3.951-0.813,5.362-2.256c1.411-1.443,2.181-3.394,2.136-5.412c-0.199-8.884-3.165-17.126-8.043-23.92
			c0.181-0.483,11.568-75.851,11.568-75.851l19.598-10.577l-0.04,2.742c-0.128,8.582,3.929,16.737,10.851,21.813l61.65,45.209
			c-4.081,14.266-0.737,30.319,10.124,41.678c1.395,1.459,3.318,2.294,5.337,2.316c0.028,0,0.056,0,0.084,0
			c1.988,0,3.896-0.79,5.304-2.197l50.141-50.141c1.427-1.427,2.219-3.369,2.196-5.387
			C505.142,432.133,504.307,430.209,502.849,428.814z M273.172,119.822c0.074,9.375-5.474,17.892-13.952,21.663l-0.34-43.104
			C267.417,102.017,273.098,110.446,273.172,119.822z M243.452,98.213l0.703,43.099c-8.567-3.565-14.319-11.946-14.472-21.319
			C229.53,110.618,235.005,102.054,243.452,98.213z M56.746,472.875L19,435.129c10.559-5.497,24-3.813,32.781,4.965
			C60.561,448.874,62.244,462.317,56.746,472.875z M130.687,381.08c0.056,3.736-1.71,7.285-4.723,9.495l-59.505,43.637
			c-1.225-1.651-2.579-3.232-4.071-4.724c-4.449-4.449-9.681-7.702-15.273-9.774l57.238-41.973c2.41-1.768,3.541-4.798,2.878-7.712
			l-3.279-14.415l26.573,14.342L130.687,381.08z M102.26,337.656c-0.136-0.073-0.274-0.143-0.415-0.208
			c-1.353-0.625-2.628-1.372-3.833-2.198c-0.431-0.406-0.912-0.752-1.424-1.045c-4.803-3.783-8.1-9.044-8.994-14.417h61.96
			l52.589,48.38c0.033,0.031,0.066,0.061,0.1,0.091l1.584,1.405c1.525,1.353,2.435,3.303,2.494,5.294l1.6,71.684
			c-6.418,0.576-12.457,2.592-17.783,5.726c-0.014-0.196-0.034-0.392-0.064-0.586l-10.132-66.238
			c0.614-3.176-0.889-6.444-3.803-8.017L102.26,337.656z M185.03,481.132c3.578-11.353,14.273-19.668,26.69-19.668
			s23.112,8.315,26.69,19.668H185.03z M252.582,476.251c-4.476-13.689-15.706-24.428-29.628-28.26l-1.639-73.422
			c-0.183-6.162-2.929-12.04-7.534-16.125l-1.533-1.36l-47.156-43.381c0.087-0.458,0.137-0.93,0.137-1.414v-68.786l86.746-86.746
			c0.22-0.22,0.418-0.454,0.605-0.693c0.187,0.239,0.385,0.473,0.605,0.693l86.746,86.746v68.786c0,0.341,0.031,0.675,0.075,1.004
			l-47.107,43.805l-1.518,1.346c-4.604,4.084-7.352,9.961-7.537,16.181l-1.637,73.367
			C268.288,451.823,257.059,462.562,252.582,476.251z M266.755,481.132c3.577-11.353,14.273-19.668,26.689-19.668
			s23.112,8.315,26.69,19.668H266.755z M329.025,377.528c-2.917,1.574-4.42,4.849-3.801,8.029l-10.052,66.896
			c-5.362-3.183-11.454-5.228-17.929-5.81l1.598-71.627c0.061-2.048,0.971-3.999,2.496-5.352l1.584-1.405
			c0.044-0.039,0.087-0.078,0.13-0.118l51.998-48.353h62.692c-1.333,7.166-6.781,14.126-14.423,17.66
			c-0.141,0.065-0.278,0.134-0.415,0.208l-39.218,21.166c-0.013,0.007-0.026,0.014-0.04,0.021L329.025,377.528z M379.201,390.575
			c-3.014-2.21-4.779-5.759-4.724-9.496l0.164-11.124l26.573-14.341l-3.279,14.415c-0.663,2.914,0.468,5.944,2.878,7.712
			l57.238,41.973c-5.592,2.072-10.825,5.325-15.274,9.774c-1.491,1.492-2.846,3.073-4.071,4.724L379.201,390.575z M448.419,472.875
			c-5.498-10.558-3.815-24,4.964-32.78c5.412-5.411,12.594-8.126,19.781-8.126c4.474,0,8.949,1.052,13,3.162L448.419,472.875z"/>
		<path d="M170.971,83.746c1.464,1.465,3.384,2.197,5.303,2.197s3.839-0.732,5.303-2.197l3.806-3.806l3.806,3.806
			c1.464,1.465,3.384,2.197,5.303,2.197s3.839-0.732,5.303-2.197c2.929-2.929,2.929-7.678,0-10.606l-3.806-3.806l3.806-3.806
			c2.929-2.929,2.929-7.677,0-10.606c-2.928-2.929-7.677-2.929-10.606,0l-3.806,3.806l-3.806-3.806
			c-2.929-2.93-7.678-2.929-10.606,0c-2.929,2.929-2.929,7.678,0,10.606l3.806,3.806l-3.806,3.806
			C168.041,76.068,168.041,80.817,170.971,83.746z"/>
		<path d="M279.031,40.055c1.465,1.464,3.385,2.197,5.304,2.197s3.839-0.732,5.304-2.197l3.806-3.806l3.806,3.806
			c1.465,1.464,3.385,2.197,5.304,2.197s3.839-0.732,5.304-2.197c2.929-2.929,2.929-7.678,0-10.606l-3.806-3.806l3.806-3.806
			c2.929-2.929,2.929-7.678,0-10.606c-2.93-2.929-7.678-2.929-10.607,0l-3.806,3.806l-3.806-3.806c-2.93-2.929-7.678-2.929-10.607,0
			c-2.929,2.929-2.929,7.678,0,10.606l3.806,3.806l-3.806,3.806C276.103,32.378,276.103,37.127,279.031,40.055z"/>
		<path d="M262.401,221.041l3.806-3.806c2.929-2.929,2.929-7.678,0-10.606c-2.93-2.929-7.678-2.929-10.607,0l-3.806,3.806
			l-3.806-3.806c-2.929-2.929-7.678-2.929-10.606,0c-2.929,2.929-2.929,7.678,0,10.606l3.806,3.806l-3.806,3.806
			c-2.929,2.929-2.929,7.678,0,10.606c1.464,1.464,3.384,2.197,5.303,2.197s3.839-0.732,5.303-2.197l3.806-3.806l3.806,3.806
			c1.465,1.464,3.385,2.197,5.304,2.197s3.839-0.732,5.304-2.197c2.929-2.929,2.929-7.678,0-10.606L262.401,221.041z"/>
	</g>
</g>
<g>
</g>
<g>
</g>
<g>
</g>
<g>
</g>
<g>
</g>
<g>
</g>
<g>
</g>
<g>
</g>
<g>
</g>
<g>
</g>
<g>
</g>
<g>
</g>
<g>
</g>
<g>
</g>
<g>
</g>
</svg>
