<?xml version="1.0" encoding="iso-8859-1"?>
<!-- Generator: Adobe Illustrator 21.0.0, SVG Export Plug-In . SVG Version: 6.00 Build 0)  -->
<svg version="1.1" id="Capa_1" xmlns="http://www.w3.org/2000/svg" xmlns:xlink="http://www.w3.org/1999/xlink" x="0px" y="0px"
	 viewBox="0 0 505.886 505.886" style="enable-background:new 0 0 505.886 505.886;" xml:space="preserve">
<g>
	<g>
		
			<rect x="214.326" y="245.578" transform="matrix(0.9337 -0.358 0.358 0.9337 -113.7801 109.0028)" style="fill:#DC8839;" width="46.326" height="232.408"/>
	</g>
	<g>
		<polygon style="fill:#BE7511;" points="217.515,244.988 191.36,255.016 270.719,461.991 253.618,468.549 257.463,478.577 
			300.719,461.991 		"/>
	</g>
	<g>
		
			<rect x="104.915" y="245.578" transform="matrix(-0.9337 -0.358 0.358 -0.9337 118.1458 745.4383)" style="fill:#DC8839;" width="46.326" height="232.408"/>
	</g>
	<g>
		<rect x="160.447" y="246.169" style="fill:#DC8839;" width="46.326" height="232.408"/>
	</g>
	<g>
		<polygon style="fill:#BE7511;" points="148.052,244.988 145.104,252.676 168.308,261.573 88.052,470.888 108.104,478.577 
			191.308,261.573 		"/>
	</g>
	<g>
		<rect x="182.773" y="246.169" style="fill:#BE7511;" width="24" height="232.408"/>
	</g>
	<g>
		<circle style="fill:#FFFFFF;" cx="186.385" cy="206.194" r="178.885"/>
	</g>
	<g>
		<path style="fill:#DBDEDF;" d="M186.385,27.309c-5.053,0-10.053,0.221-15,0.632c91.775,7.621,163.885,84.511,163.885,178.254
			c0,93.743-72.11,170.633-163.885,178.253c4.947,0.411,9.947,0.632,15,0.632c98.795,0,178.885-80.09,178.885-178.885
			C365.271,107.398,285.181,27.309,186.385,27.309z"/>
	</g>
	<g>
		<circle style="fill:#F86654;" cx="186.385" cy="206.194" r="140.379"/>
	</g>
	<g>
		<path style="fill:#EA543C;" d="M186.385,65.815c-5.068,0-10.071,0.275-15,0.799c70.476,7.487,125.379,67.119,125.379,139.581
			c0,72.461-54.904,132.093-125.379,139.581c4.929,0.523,9.932,0.799,15,0.799c77.529,0,140.379-62.85,140.379-140.379
			C326.765,128.665,263.915,65.815,186.385,65.815z"/>
	</g>
	<g>
		<circle style="fill:#FFF4F1;" cx="186.385" cy="206.194" r="97.707"/>
	</g>
	<g>
		<circle style="fill:#F86654;" cx="186.385" cy="206.194" r="43.304"/>
	</g>
	<g>
		<path style="fill:#EA543C;" d="M186.385,162.89c-5.274,0-10.326,0.945-15,2.671c16.522,6.102,28.304,21.99,28.304,40.633
			c0,18.642-11.781,34.531-28.304,40.632c4.674,1.726,9.726,2.671,15,2.671c23.916,0,43.304-19.388,43.304-43.304
			S210.302,162.89,186.385,162.89z"/>
	</g>
	<g>
		<path d="M186.386,170.39c13.693,0,25.987,7.624,32.086,19.896c1.843,3.708,6.344,5.222,10.055,3.378
			c3.709-1.843,5.222-6.345,3.379-10.054c-8.65-17.407-26.093-28.22-45.52-28.22c-28.014,0-50.804,22.791-50.804,50.804
			s22.79,50.804,50.804,50.804c19.783,0,37.908-11.617,46.177-29.596c1.731-3.763,0.084-8.217-3.68-9.948
			c-3.766-1.73-8.217-0.083-9.947,3.68c-5.829,12.674-18.605,20.864-32.55,20.864c-19.742,0-35.804-16.062-35.804-35.804
			S166.644,170.39,186.386,170.39z"/>
		<path d="M498.386,197.354h-20.463l6.92-7.296c2.851-3.005,2.726-7.752-0.28-10.603c-3.004-2.851-7.752-2.726-10.603,0.28
			l-16.71,17.618h-84.694c-4.632-98.684-86.361-177.545-186.17-177.545c-35.209,0-69.497,9.868-99.156,28.537
			c-3.506,2.207-4.559,6.837-2.353,10.342c2.207,3.505,6.838,4.56,10.343,2.352c27.264-17.16,58.788-26.231,91.166-26.231
			c91.537,0,166.543,72.135,171.159,162.545h-23.552c-4.589-77.44-69.035-139.039-147.607-139.039
			c-81.541,0-147.88,66.338-147.88,147.879s66.339,147.879,147.88,147.879c79.477,0,144.499-63.025,147.741-141.72h23.521
			c-3.256,91.659-78.823,165.226-171.262,165.226C91.884,377.579,15,300.696,15,206.194c0-50.261,21.954-97.812,60.234-130.458
			c3.151-2.688,3.527-7.422,0.839-10.573c-2.687-3.152-7.421-3.527-10.573-0.84C23.874,99.824,0,151.534,0,206.194
			c0,68.79,37.463,128.989,93.055,161.283l-35.209,91.829c-1.482,3.868,0.45,8.205,4.317,9.688l43.255,16.585
			c0.866,0.332,1.776,0.497,2.686,0.497c1.042,0,2.083-0.217,3.053-0.649c1.817-0.81,3.238-2.308,3.95-4.166l35.342-92.173
			c0.832,0.163,1.663,0.328,2.499,0.48v89.008c0,4.142,3.357,7.5,7.5,7.5h46.326c4.143,0,7.5-3.358,7.5-7.5v-88.084
			c0.436-0.066,0.87-0.137,1.305-0.205l34.881,90.975c0.712,1.857,2.133,3.355,3.95,4.166c0.97,0.432,2.011,0.649,3.053,0.649
			c0.909,0,1.819-0.166,2.686-0.497l43.256-16.585c3.867-1.483,5.8-5.82,4.317-9.688l-33.944-88.529
			c57.14-30.464,96.64-89.81,98.88-158.424h46.307l21.003,15.377c1.336,0.978,2.887,1.449,4.425,1.449
			c2.31,0,4.588-1.063,6.058-3.07c2.446-3.342,1.721-8.035-1.621-10.482l-4.473-3.275h54.03c4.143,0,7.5-3.358,7.5-7.5
			S502.528,197.354,498.386,197.354z M103.786,468.889l-29.25-11.215l31.88-83.145c9.369,4.469,19.165,8.182,29.313,11.052
			L103.786,468.889z M199.273,471.077h-31.326v-79.409c6.067,0.599,12.217,0.912,18.438,0.912c4.333,0,8.628-0.161,12.888-0.454
			V471.077z M291.031,457.674l-29.251,11.215l-31.285-81.597c10.265-2.5,20.199-5.851,29.725-9.977L291.031,457.674z
			 M186.386,339.073c-73.271,0-132.88-59.609-132.88-132.879s59.609-132.879,132.88-132.879
			c70.298,0,128.012,54.876,132.578,124.039h-27.746c-4.505-53.89-49.798-96.367-104.832-96.367
			c-58.012,0-105.207,47.196-105.207,105.207s47.195,105.207,105.207,105.207c55.944,0,101.822-43.893,105.022-99.047h27.709
			C315.887,282.775,257.59,339.073,186.386,339.073z M188.702,212.354h87.676c-3.177,46.878-42.323,84.047-89.992,84.047
			c-49.74,0-90.207-40.467-90.207-90.207s40.467-90.207,90.207-90.207c46.758,0,85.317,35.76,89.773,81.367h-87.457
			c-4.143,0-7.5,3.358-7.5,7.5S184.56,212.354,188.702,212.354z"/>
	</g>
</g>
<g>
</g>
<g>
</g>
<g>
</g>
<g>
</g>
<g>
</g>
<g>
</g>
<g>
</g>
<g>
</g>
<g>
</g>
<g>
</g>
<g>
</g>
<g>
</g>
<g>
</g>
<g>
</g>
<g>
</g>
</svg>
