<?xml version="1.0" encoding="iso-8859-1"?>
<!-- Generator: Adobe Illustrator 21.0.0, SVG Export Plug-In . SVG Version: 6.00 Build 0)  -->
<svg version="1.1" id="Capa_1" xmlns="http://www.w3.org/2000/svg" xmlns:xlink="http://www.w3.org/1999/xlink" x="0px" y="0px"
	 viewBox="0 0 501.014 501.014" style="enable-background:new 0 0 501.014 501.014;" xml:space="preserve">
<g>
	<g>
		<circle style="fill:#ACEDED;" cx="43.064" cy="463.206" r="29.845"/>
	</g>
	<g>
		<path style="fill:#66D6E6;" d="M43.064,433.36c-4.076,0-7.96,0.82-11.5,2.299c10.774,4.503,18.345,15.139,18.345,27.546
			c0,12.407-7.572,23.043-18.345,27.546c3.54,1.479,7.424,2.299,11.5,2.299c16.483,0,29.845-13.362,29.845-29.845
			C72.909,446.722,59.547,433.36,43.064,433.36z"/>
	</g>
	<g>
		<circle style="fill:#FC9086;" cx="57.259" cy="316.331" r="29.845"/>
	</g>
	<g>
		<path style="fill:#F57A73;" d="M57.259,286.485c-4.076,0-7.96,0.82-11.5,2.299c10.774,4.503,18.345,15.139,18.345,27.546
			c0,12.407-7.572,23.043-18.345,27.546c3.54,1.479,7.424,2.299,11.5,2.299c16.483,0,29.845-13.362,29.845-29.846
			C87.105,299.847,73.743,286.485,57.259,286.485z"/>
	</g>
	<g>
		
			<ellipse transform="matrix(1 -0.0074 0.0074 1 -1.3801 2.8842)" style="fill:#FC9086;" cx="386.89" cy="186.906" rx="29.845" ry="29.845"/>
	</g>
	<g>
		<path style="fill:#F57A73;" d="M386.668,157.062c-3.996,0.03-7.8,0.849-11.273,2.3c10.696,4.474,18.248,14.997,18.339,27.322
			c0.093,12.487-7.499,23.233-18.35,27.767c3.607,1.509,7.571,2.331,11.727,2.3c16.483-0.123,29.745-13.584,29.622-30.067
			C416.612,170.201,403.151,156.939,386.668,157.062z"/>
	</g>
	<g>
		
			<ellipse transform="matrix(1 -0.0074 0.0074 1 -0.7613 3.4532)" style="fill:#ACEDED;" cx="463.668" cy="104.03" rx="29.845" ry="29.845"/>
	</g>
	<g>
		<path style="fill:#66D6E6;" d="M463.446,74.185c-3.996,0.03-7.8,0.85-11.273,2.3c10.696,4.474,18.247,14.997,18.339,27.322
			c0.093,12.487-7.499,23.233-18.35,27.767c3.607,1.508,7.571,2.331,11.727,2.3c16.483-0.123,29.745-13.584,29.622-30.067
			S479.929,74.063,463.446,74.185z"/>
	</g>
	<g>
		
			<ellipse transform="matrix(1 -0.0074 0.0074 1 -0.2713 2.6975)" style="fill:#FFEC56;" cx="362.351" cy="37.808" rx="29.845" ry="29.845"/>
	</g>
	<g>
		<path style="fill:#F9CD45;" d="M362.129,7.964c-3.996,0.03-7.8,0.85-11.273,2.3c10.696,4.474,18.247,14.997,18.339,27.322
			c0.093,12.487-7.499,23.233-18.35,27.767c3.607,1.509,7.571,2.331,11.727,2.3c16.483-0.123,29.745-13.584,29.622-30.067
			C392.073,21.104,378.612,7.841,362.129,7.964z"/>
	</g>
	<g>
		
			<ellipse transform="matrix(1 -0.0074 0.0074 1 -0.9041 2.0989)" style="fill:#ACEDED;" cx="281.602" cy="122.539" rx="29.845" ry="29.845"/>
	</g>
	<g>
		<path style="fill:#66D6E6;" d="M281.38,92.695c-3.996,0.03-7.8,0.85-11.273,2.3c10.696,4.473,18.247,14.996,18.339,27.322
			c0.093,12.486-7.499,23.233-18.35,27.767c3.607,1.509,7.571,2.331,11.727,2.3c16.483-0.123,29.745-13.584,29.622-30.066
			C311.324,105.834,297.863,92.572,281.38,92.695z"/>
	</g>
	<g>
		<circle style="fill:#FFEC56;" cx="170.321" cy="233.82" r="26.893"/>
	</g>
	<g>
		<circle style="fill:#5E8EE1;" cx="42.641" cy="82.712" r="35.141"/>
	</g>
	<g>
		<path style="fill:#F9CD45;" d="M170.321,206.927c-4.115,0-8.013,0.928-11.5,2.58c9.099,4.312,15.393,13.576,15.393,24.313
			s-6.295,20.002-15.393,24.313c3.487,1.652,7.385,2.58,11.5,2.58c14.853,0,26.893-12.041,26.893-26.894
			S185.174,206.927,170.321,206.927z"/>
	</g>
	<g>
		<path style="fill:#2970D6;" d="M42.641,47.571c-4.029,0-7.896,0.687-11.5,1.935c13.758,4.765,23.641,17.827,23.641,33.206
			c0,15.379-9.883,28.442-23.641,33.207c3.604,1.248,7.471,1.935,11.5,1.935c19.408,0,35.141-15.733,35.141-35.142
			C77.782,63.304,62.049,47.571,42.641,47.571z"/>
	</g>
	<g>
		<circle style="fill:#FFEC56;" cx="179.5" cy="429.949" r="29.845"/>
	</g>
	<g>
		<path style="fill:#F9CD45;" d="M179.5,400.104c-4.66,0-9.07,1.07-13,2.974c9.97,4.833,16.845,15.048,16.845,26.872
			c0,11.823-6.875,22.039-16.845,26.871c3.93,1.905,8.34,2.974,13,2.974c16.483,0,29.845-13.362,29.845-29.845
			C209.345,413.466,195.983,400.104,179.5,400.104z"/>
	</g>
	<g>
		<circle style="fill:#ACEDED;" cx="402.254" cy="432.954" r="35.141"/>
	</g>
	<g>
		<path style="fill:#66D6E6;" d="M402.254,397.813c-4.029,0-7.896,0.687-11.5,1.936c13.758,4.764,23.641,17.827,23.641,33.206
			s-9.883,28.441-23.641,33.206c3.604,1.248,7.471,1.935,11.5,1.935c19.408,0,35.141-15.733,35.141-35.141
			C437.395,413.546,421.662,397.813,402.254,397.813z"/>
	</g>
	<path d="M463.39,66.685c-7.04,0.053-13.615,2.062-19.216,5.504l-44.603-31.424c0.084-1.067,0.133-2.145,0.125-3.235v0
		c-0.153-20.499-16.876-37.067-37.341-37.067c-0.093,0-0.189,0-0.282,0.001c-20.591,0.154-37.219,17.031-37.066,37.623
		c0.026,3.54,0.558,6.958,1.506,10.198c-0.001,0.001-0.002,0.002-0.003,0.003l-35.804,38.042c-3.002-0.758-6.146-1.154-9.382-1.135
		c-9.975,0.074-19.324,4.029-26.325,11.135c-3.364,3.415-5.984,7.365-7.799,11.65L83.091,69.246
		c-5.652-16.931-21.643-29.175-40.45-29.175C19.129,40.071,0,59.2,0,82.712c0,18.067,11.3,33.535,27.2,39.736l1.863,37.983
		c0.197,4.012,3.512,7.133,7.485,7.133c0.124,0,0.249-0.003,0.374-0.009c4.137-0.203,7.327-3.722,7.124-7.858l-1.685-34.35
		c0.094,0.001,0.187,0.007,0.281,0.007c22.691,0,41.294-17.818,42.566-40.197l159.053,37.541c0,0.04-0.002,0.08-0.002,0.12
		c0.06,8.108,2.685,15.803,7.481,22.159l-72.129,55.735c-2.957-0.831-6.07-1.285-9.289-1.285c-18.965,0-34.394,15.429-34.394,34.394
		c0,3.463,0.52,6.806,1.476,9.961l-63.126,39.324c-5.108-2.627-10.89-4.12-17.019-4.12c-2.944,0-5.805,0.353-8.554,1l-3.658-88.232
		c-0.172-4.139-3.673-7.368-7.804-7.183c-4.139,0.172-7.354,3.666-7.183,7.804l3.916,94.468c0.004,0.101,0.019,0.199,0.027,0.299
		c-8.578,6.849-14.089,17.384-14.089,29.188c0,16.803,11.157,31.046,26.45,35.72l-7.298,74.026
		c-18.719,2.002-33.347,17.887-33.347,37.128c0,20.592,16.753,37.346,37.345,37.346c20.465,0,37.13-16.549,37.336-36.966
		l66.67-15.152c6.44,11.256,18.56,18.862,32.43,18.862c14.664,0,27.376-8.5,33.483-20.828l150.603,4.43
		c6.788,14.57,21.564,24.699,38.669,24.699c23.513,0,42.642-19.129,42.642-42.641c0-18.119-11.364-33.624-27.335-39.79
		l-4.681-47.569c-0.405-4.122-4.077-7.133-8.198-6.729c-4.122,0.406-7.135,4.076-6.729,8.198l4.256,43.249
		c-23.491,0.025-42.595,19.144-42.595,42.641c0,0.949,0.042,1.888,0.104,2.822l-142.913-4.203c0.023-0.539,0.041-1.079,0.041-1.624
		c0-8.033-2.558-15.476-6.891-21.574L369.472,219.96c3.723,1.968,7.758,3.287,11.964,3.898l11.537,93.391
		c0.469,3.799,3.702,6.582,7.434,6.582c0.307,0,0.617-0.019,0.929-0.058c4.111-0.508,7.032-4.252,6.524-8.363l-11.414-92.398
		c16.083-4.259,27.919-18.997,27.79-36.384c-0.051-6.88-1.95-13.461-5.454-19.181l34.833-27.444
		c3.232,0.898,6.602,1.372,10.045,1.372c0.096,0,0.191,0,0.287-0.001c9.975-0.074,19.324-4.028,26.325-11.134
		c7.001-7.106,10.815-16.513,10.742-26.488C500.859,83.16,484.007,66.573,463.39,66.685z M42.641,110.354
		C27.4,110.354,15,97.954,15,82.712c0-15.241,12.4-27.641,27.641-27.641s27.641,12.4,27.641,27.641
		C70.282,97.954,57.882,110.354,42.641,110.354z M402.254,405.313c15.242,0,27.642,12.4,27.642,27.642
		c0,15.241-12.4,27.641-27.642,27.641c-15.241,0-27.641-12.4-27.641-27.641C374.613,417.713,387.013,405.313,402.254,405.313z
		 M362.185,15.464c0.057,0,0.113-0.001,0.169-0.001c12.244,0,22.251,9.915,22.342,22.179c0.092,12.321-9.857,22.419-22.178,22.511
		c-0.057,0-0.113,0.001-0.169,0.001c-12.244,0-22.251-9.915-22.342-22.179C339.915,25.654,349.864,15.555,362.185,15.464z
		 M334.062,62.15c6.858,7.958,16.999,13.004,28.285,13.004c0.093,0,0.189,0,0.282-0.001c13.932-0.104,26.041-7.869,32.375-19.255
		l38.04,26.8c-4.169,5.968-6.638,13.198-6.709,20.986l-109.542,6.381c-2.374-6.67-6.591-12.465-12.035-16.779L334.062,62.15z
		 M265.685,106.857c4.189-4.252,9.783-6.618,15.751-6.662c0.057,0,0.113-0.001,0.169-0.001c12.244,0,22.251,9.915,22.342,22.179
		c0.044,5.969-2.238,11.597-6.427,15.849c-4.189,4.252-9.783,6.618-15.752,6.662c-5.985,0.046-11.596-2.238-15.848-6.427
		s-6.618-9.783-6.662-15.751C259.213,116.737,261.496,111.108,265.685,106.857z M262.761,155.415
		c0.153-0.119,0.295-0.247,0.437-0.374c5.553,3.156,11.846,4.843,18.396,4.843c0.096,0,0.191,0,0.287-0.001
		c6.706-0.05,13.126-1.861,18.743-5.197l48.966,30.468c-0.031,0.673-0.047,1.35-0.042,2.029c0.03,4.073,0.718,8.038,1.993,11.786
		l-152.055,16.648c-1.594-2.545-3.511-4.866-5.694-6.907L262.761,155.415z M181.291,392.649l-1.076-125.893
		c14.156-4.261,24.5-17.411,24.5-32.937c0-1.238-0.069-2.459-0.197-3.664l150.631-16.493L198.992,398.109
		C193.792,394.914,187.755,392.956,181.291,392.649z M170.321,214.427c2.336,0,4.566,0.436,6.641,1.196
		c0.601,0.366,1.246,0.636,1.913,0.819c6.41,3.168,10.839,9.757,10.839,17.378c0,10.694-8.7,19.394-19.394,19.394
		c-6.885,0-12.927-3.616-16.369-9.039c-0.177-0.492-0.405-0.974-0.693-1.436c-0.141-0.226-0.293-0.441-0.453-0.647
		c-1.192-2.513-1.879-5.311-1.879-8.272C150.928,223.126,159.627,214.427,170.321,214.427z M165.224,267.834l1.087,127.182
		c-4.536,1.718-8.652,4.294-12.15,7.531l-64.898-66.992c3.388-5.62,5.342-12.198,5.342-19.225c0-8.75-3.033-16.801-8.093-23.174
		l58.286-36.309C150.019,262.628,157.169,266.632,165.224,267.834z M34.914,316.33c0-12.321,10.024-22.345,22.345-22.345
		s22.346,10.024,22.346,22.345s-10.024,22.346-22.346,22.346S34.914,328.652,34.914,316.33z M43.064,485.551
		c-12.321,0-22.345-10.024-22.345-22.346s10.024-22.345,22.345-22.345s22.345,10.024,22.345,22.345S55.385,485.551,43.064,485.551z
		 M77.537,448.853c-4.254-10.18-12.89-18.088-23.538-21.356l7.3-74.043c6.592-0.712,12.672-3.15,17.786-6.848l66.219,68.355
		c-2.02,4.591-3.15,9.659-3.15,14.988c0,1.408,0.085,2.796,0.238,4.164L77.537,448.853z M179.5,452.295
		c-12.321,0-22.345-10.024-22.345-22.345s10.024-22.346,22.345-22.346s22.346,10.024,22.346,22.346c0,1.833-0.227,3.613-0.645,5.319
		c-0.437,0.813-0.731,1.717-0.841,2.68C197.134,446.329,189.003,452.295,179.5,452.295z M387.057,209.251
		c-5.951,0.045-11.597-2.238-15.849-6.427c-4.252-4.189-6.618-9.783-6.662-15.752c-0.045-5.968,2.238-11.597,6.427-15.848
		c4.189-4.252,9.783-6.618,15.751-6.662c0.057,0,0.114-0.001,0.171-0.001c5.905,0,11.466,2.279,15.677,6.428
		c4.252,4.189,6.618,9.783,6.662,15.751C409.327,199.061,399.377,209.159,387.057,209.251z M408.499,156.452
		c-6.361-4.523-13.965-6.933-21.887-6.89c-9.975,0.074-19.324,4.029-26.325,11.135c-2.735,2.776-4.976,5.907-6.697,9.282
		l-41.524-25.837c4.005-5.624,6.35-12.215,6.793-19.17l110.377-6.43c1.887,4.477,4.657,8.581,8.222,12.093
		c0.57,0.562,1.161,1.096,1.76,1.616L408.499,156.452z M479.586,119.713c-4.189,4.251-9.783,6.618-15.752,6.662
		c-5.999,0.009-11.597-2.238-15.848-6.427c-4.252-4.189-6.618-9.783-6.662-15.751c-0.047-6.277,2.516-11.973,6.667-16.067
		c0.908-0.49,1.723-1.177,2.385-2.046c3.674-2.729,8.209-4.362,13.125-4.398c0.057,0,0.113-0.001,0.169-0.001
		c12.244,0,22.251,9.915,22.342,22.179C486.057,109.832,483.775,115.461,479.586,119.713z"/>
</g>
<g>
</g>
<g>
</g>
<g>
</g>
<g>
</g>
<g>
</g>
<g>
</g>
<g>
</g>
<g>
</g>
<g>
</g>
<g>
</g>
<g>
</g>
<g>
</g>
<g>
</g>
<g>
</g>
<g>
</g>
</svg>
