<?xml version="1.0" encoding="iso-8859-1"?>
<!-- Generator: Adobe Illustrator 21.0.0, SVG Export Plug-In . SVG Version: 6.00 Build 0)  -->
<svg version="1.1" id="Capa_1" xmlns="http://www.w3.org/2000/svg" xmlns:xlink="http://www.w3.org/1999/xlink" x="0px" y="0px"
	 viewBox="0 0 504.469 504.469" style="enable-background:new 0 0 504.469 504.469;" xml:space="preserve">
<g>
	<g>
		<path style="fill:#FFEC56;" d="M87.844,336.6H22.5c-8.284,0-15-6.716-15-15v-65.344c0-8.284,6.716-15,15-15h65.344
			c8.284,0,15,6.716,15,15V321.6C102.844,329.884,96.128,336.6,87.844,336.6z"/>
	</g>
	<g>
		<path style="fill:#F9CD45;" d="M87.844,241.256h-30c8.284,0,15,6.716,15,15V321.6c0,8.284-6.716,15-15,15h30
			c8.284,0,15-6.716,15-15v-65.344C102.844,247.972,96.128,241.256,87.844,241.256z"/>
	</g>
	<g>
		<circle style="fill:#FC9086;" cx="248.321" cy="289.235" r="51.909"/>
	</g>
	<g>
		<path style="fill:#F57A73;" d="M248.321,237.325c-5.217,0-10.25,0.778-15,2.21c21.354,6.437,36.909,26.248,36.909,49.7
			c0,23.452-15.556,43.263-36.909,49.699c4.75,1.432,9.783,2.21,15,2.21c28.669,0,51.909-23.241,51.909-51.909
			C300.23,260.566,276.99,237.325,248.321,237.325z"/>
	</g>
	<g>
		<path style="fill:#5E8EE1;" d="M405.362,110.993H93.408c-8.25,0-15-6.75-15-15V29.856c0-8.25,6.75-15,15-15h311.955
			c8.25,0,15,6.75,15,15v66.137C420.362,104.243,413.612,110.993,405.362,110.993z"/>
	</g>
	<g>
		<polygon style="fill:#ACEDED;" points="440.903,236.62 384.838,333.728 496.969,333.728 440.903,236.62 384.838,333.728 
			496.969,333.728 		"/>
	</g>
	<g>
		<polygon style="fill:#66D6E6;" points="440.903,236.62 425.903,262.601 466.969,333.729 496.969,333.729 		"/>
	</g>
	<g>
		<path style="fill:#467BFF;" d="M405.362,14.856h-30c8.25,0,15,6.75,15,15v66.137c0,8.25-6.75,15-15,15h30c8.25,0,15-6.75,15-15
			V29.856C420.362,21.606,413.612,14.856,405.362,14.856z"/>
	</g>
	<g>
		<path style="fill:#FFEEC6;" d="M378.232,489.612H120.538c-8.25,0-15-6.75-15-15v-50.882c0-8.25,6.75-15,15-15h257.693
			c8.25,0,15,6.75,15,15v50.882C393.232,482.862,386.482,489.612,378.232,489.612z"/>
	</g>
	<g>
		<path style="fill:#FFE89F;" d="M378.232,408.73h-30c8.25,0,15,6.75,15,15v50.882c0,8.25-6.75,15-15,15h30c8.25,0,15-6.75,15-15
			V423.73C393.232,415.48,386.482,408.73,378.232,408.73z"/>
	</g>
	<g>
		<path d="M503.464,329.979l-55.426-96.001c0.015-0.196,0.03-0.393,0.03-0.593V213.74c0-12.57-10.226-22.796-22.796-22.796H255.542
			v-72.45h149.82c12.407,0,22.5-10.093,22.5-22.5V29.856c0-12.407-10.093-22.5-22.5-22.5H93.408c-12.407,0-22.5,10.093-22.5,22.5
			v66.137c0,12.407,10.093,22.5,22.5,22.5h22.409c4.142,0,7.5-3.358,7.5-7.5s-3.358-7.5-7.5-7.5H93.408c-4.136,0-7.5-3.364-7.5-7.5
			V29.856c0-4.136,3.364-7.5,7.5-7.5h311.955c4.136,0,7.5,3.364,7.5,7.5v66.137c0,4.136-3.364,7.5-7.5,7.5H145.817
			c-4.142,0-7.5,3.358-7.5,7.5s3.358,7.5,7.5,7.5h94.726v72.45H69.73c-12.57,0-22.796,10.227-22.796,22.796v20.017H22.5
			c-12.407,0-22.5,10.093-22.5,22.5V321.6c0,12.407,10.093,22.5,22.5,22.5h24.434v92.375c0,12.57,10.227,22.796,22.796,22.796
			h28.308v15.341c0,12.407,10.093,22.5,22.5,22.5h257.693c12.407,0,22.5-10.093,22.5-22.5v-15.341h24.54
			c12.57,0,22.796-10.227,22.796-22.796v-95.247h48.901c2.68,0,5.155-1.43,6.495-3.75c0.67-1.16,1.005-2.455,1.005-3.75
			S504.134,331.139,503.464,329.979z M15,321.6v-65.344c0-4.136,3.364-7.5,7.5-7.5h65.344c4.136,0,7.5,3.364,7.5,7.5V321.6
			c0,4.136-3.364,7.5-7.5,7.5H22.5C18.364,329.1,15,325.736,15,321.6z M433.067,436.475c0,4.299-3.497,7.796-7.796,7.796h-24.54
			V423.73c0-12.407-10.093-22.5-22.5-22.5h-74.79c-4.142,0-7.5,3.358-7.5,7.5s3.358,7.5,7.5,7.5h74.79c4.135,0,7.5,3.364,7.5,7.5
			v50.882c0,4.136-3.365,7.5-7.5,7.5H120.539c-4.136,0-7.5-3.364-7.5-7.5V423.73c0-4.136,3.364-7.5,7.5-7.5h152.903
			c4.142,0,7.5-3.358,7.5-7.5s-3.358-7.5-7.5-7.5H120.539c-12.407,0-22.5,10.093-22.5,22.5v20.541H69.73
			c-4.299,0-7.796-3.498-7.796-7.796V344.1h25.91c12.407,0,22.5-10.093,22.5-22.5v-65.344c0-12.407-10.093-22.5-22.5-22.5h-25.91
			V213.74c0-4.299,3.498-7.796,7.796-7.796h170.812v24.408c-29.094,3.824-51.631,28.763-51.631,58.884
			c0,32.758,26.651,59.409,59.41,59.409c32.758,0,59.409-26.651,59.409-59.409c0-30.313-22.825-55.379-52.188-58.955v-24.336
			h169.729c4.299,0,7.796,3.498,7.796,7.796v19.645c0,0.526,0.055,1.039,0.158,1.534l-54.883,95.06
			c-0.67,1.16-1.005,2.455-1.005,3.75s0.335,2.59,1.005,3.75c1.34,2.32,3.815,3.75,6.495,3.75h48.229V436.475z M248.321,244.825
			c24.487,0,44.409,19.922,44.409,44.41c0,24.487-19.922,44.409-44.409,44.409c-24.488,0-44.41-19.922-44.41-44.409
			C203.912,264.747,223.833,244.825,248.321,244.825z M397.828,326.229l43.075-74.608l43.075,74.608H397.828z"/>
		<path d="M356.153,71.088c4.142,0,7.5-3.358,7.5-7.5s-3.358-7.5-7.5-7.5h-221.41c-4.142,0-7.5,3.358-7.5,7.5s3.358,7.5,7.5,7.5
			H356.153z"/>
		<path d="M224.354,441.666c-4.14,0-7.5,3.36-7.5,7.5c0,4.15,3.36,7.5,7.5,7.5s7.5-3.35,7.5-7.5
			C231.854,445.026,228.495,441.666,224.354,441.666z"/>
		<path d="M158.354,441.666c-4.14,0-7.5,3.36-7.5,7.5c0,4.15,3.36,7.5,7.5,7.5s7.5-3.35,7.5-7.5
			C165.854,445.026,162.495,441.666,158.354,441.666z"/>
		<path d="M191.354,441.666c-4.14,0-7.5,3.36-7.5,7.5c0,4.15,3.36,7.5,7.5,7.5s7.5-3.35,7.5-7.5
			C198.854,445.026,195.495,441.666,191.354,441.666z"/>
		<path d="M257.354,441.666c-4.14,0-7.5,3.36-7.5,7.5c0,4.15,3.36,7.5,7.5,7.5s7.5-3.35,7.5-7.5
			C264.854,445.026,261.495,441.666,257.354,441.666z"/>
		<path d="M290.354,441.666c-4.14,0-7.5,3.36-7.5,7.5c0,4.15,3.36,7.5,7.5,7.5s7.5-3.35,7.5-7.5
			C297.854,445.026,294.495,441.666,290.354,441.666z"/>
		<path d="M323.354,456.666c4.14,0,7.5-3.35,7.5-7.5c0-4.14-3.36-7.5-7.5-7.5s-7.5,3.36-7.5,7.5
			C315.854,453.316,319.214,456.666,323.354,456.666z"/>
	</g>
</g>
<g>
</g>
<g>
</g>
<g>
</g>
<g>
</g>
<g>
</g>
<g>
</g>
<g>
</g>
<g>
</g>
<g>
</g>
<g>
</g>
<g>
</g>
<g>
</g>
<g>
</g>
<g>
</g>
<g>
</g>
</svg>
