<?xml version="1.0" encoding="iso-8859-1"?>
<!-- Generator: Adobe Illustrator 21.0.0, SVG Export Plug-In . SVG Version: 6.00 Build 0)  -->
<svg version="1.1" id="Capa_1" xmlns="http://www.w3.org/2000/svg" xmlns:xlink="http://www.w3.org/1999/xlink" x="0px" y="0px"
	 viewBox="0 0 498.727 498.727" style="enable-background:new 0 0 498.727 498.727;" xml:space="preserve">
<g>
	<g>
		<path style="fill:#FFD4C6;" d="M470.927,254.732H223.923c-8.25,0-15,6.75-15,15V418.4c0,8.25,6.75,15,15,15h89.896l30.932,53.576
			l30.932-53.576h95.244c8.25,0,15-6.75,15-15V269.732C485.927,261.482,479.177,254.732,470.927,254.732z"/>
	</g>
	<g>
		<g>
			<path style="fill:#FC9086;" d="M470.927,253.618H445.75v1.929c5.9,2.021,10.177,7.622,10.177,14.185V418.4
				c0,6.259-3.889,11.647-9.367,13.887h24.367c8.25,0,15-6.75,15-15V268.618C485.927,260.368,479.177,253.618,470.927,253.618z"/>
		</g>
	</g>
	<g>
		<path style="fill:#ACEDED;" d="M213.826,77.67H19.312C12.816,77.67,7.5,82.985,7.5,89.482v117.075
			c0,6.497,5.316,11.812,11.812,11.812h70.792l24.359,42.191l24.359-42.191h75.004c6.497,0,11.812-5.316,11.812-11.812V89.482
			C225.638,82.985,220.323,77.67,213.826,77.67z"/>
	</g>
	<g>
		<g>
			<path style="fill:#66D6E6;" d="M213.826,77.669h-30c6.497,0,11.812,5.315,11.812,11.813v117.075
				c0,6.497-5.316,11.813-11.812,11.813h30c6.497,0,11.812-5.315,11.812-11.813V89.482
				C225.638,82.985,220.323,77.669,213.826,77.669z"/>
		</g>
	</g>
	<g>
		<path style="fill:#FFE89F;" d="M479.415,11.751H284.901c-6.497,0-11.812,5.316-11.812,11.812v117.075
			c0,6.497,5.316,11.812,11.812,11.812h70.792l24.359,42.191l24.359-42.191h75.004c6.497,0,11.812-5.316,11.812-11.812V23.563
			C491.227,17.066,485.912,11.751,479.415,11.751z"/>
	</g>
	<g>
		<g>
			<path style="fill:#F9CD45;" d="M479.415,11.75h-30c6.497,0,11.812,5.315,11.812,11.813v117.075
				c0,6.497-5.316,11.813-11.812,11.813h30c6.497,0,11.812-5.315,11.812-11.813V23.563C491.227,17.066,485.912,11.75,479.415,11.75z
				"/>
		</g>
	</g>
	<g>
		<path style="fill:#FC9086;" d="M298.391,287.627c-31.683,0-57.367,25.685-57.367,57.367c0,31.683,25.684,57.367,57.367,57.367
			c31.683,0,57.367-25.684,57.367-57.367C355.758,313.311,330.074,287.627,298.391,287.627z M298.391,369.874
			c-13.741,0-24.88-11.139-24.88-24.88c0-13.741,11.139-24.88,24.88-24.88c13.741,0,24.88,11.14,24.88,24.88
			C323.271,358.735,312.132,369.874,298.391,369.874z"/>
	</g>
	<g>
		<circle style="fill:#66D6E6;" cx="52.456" cy="132.482" r="16.296"/>
	</g>
	<g>
		<circle style="fill:#FFEC56;" cx="323.463" cy="60.974" r="16.296"/>
	</g>
	<g>
		<path d="M470.927,247.231h-163.76c-4.143,0-7.5,3.358-7.5,7.5s3.357,7.5,7.5,7.5h163.76c4.136,0,7.5,3.365,7.5,7.5V418.4
			c0,4.136-3.364,7.5-7.5,7.5h-95.244c-2.68,0-5.155,1.43-6.495,3.75l-24.437,42.326l-24.438-42.326
			c-1.34-2.32-3.815-3.75-6.495-3.75h-89.896c-4.136,0-7.5-3.364-7.5-7.5V269.731c0-4.135,3.364-7.5,7.5-7.5h53.245
			c4.143,0,7.5-3.358,7.5-7.5s-3.357-7.5-7.5-7.5h-53.245c-12.407,0-22.5,10.093-22.5,22.5V418.4c0,12.407,10.093,22.5,22.5,22.5
			h85.566l28.768,49.826c1.34,2.32,3.815,3.75,6.495,3.75s5.155-1.43,6.495-3.75l28.767-49.826h90.914
			c12.406,0,22.5-10.093,22.5-22.5V269.731C493.427,257.325,483.333,247.231,470.927,247.231z"/>
		<path d="M233.138,206.557V89.482c0-10.649-8.664-19.313-19.313-19.313H78.884c-4.142,0-7.5,3.358-7.5,7.5s3.358,7.5,7.5,7.5
			h134.942c2.337,0,4.313,1.975,4.313,4.313v117.075c0,2.337-1.975,4.313-4.313,4.313h-75.004c-2.68,0-5.155,1.43-6.495,3.75
			l-17.863,30.94L96.6,214.62c-1.34-2.32-3.815-3.75-6.495-3.75H19.313c-2.337,0-4.313-1.975-4.313-4.313V89.482
			c0-2.337,1.975-4.313,4.313-4.313h29.571c4.142,0,7.5-3.358,7.5-7.5s-3.358-7.5-7.5-7.5H19.313C8.664,70.169,0,78.833,0,89.482
			v117.075c0,10.649,8.664,19.313,19.313,19.313h66.462l22.194,38.44c1.34,2.32,3.816,3.75,6.495,3.75c2.68,0,5.155-1.43,6.495-3.75
			l22.193-38.44h70.674C224.475,225.87,233.138,217.206,233.138,206.557z"/>
		<path d="M479.415,4.25H284.902c-10.649,0-19.313,8.664-19.313,19.313v117.075c0,10.649,8.663,19.313,19.313,19.313h66.462
			l22.193,38.44c1.34,2.32,3.815,3.75,6.495,3.75s5.155-1.43,6.495-3.75l22.193-38.44h70.674c10.649,0,19.313-8.664,19.313-19.313
			V23.563C498.727,12.914,490.064,4.25,479.415,4.25z M483.727,140.638c0,2.337-1.975,4.313-4.313,4.313h-75.004
			c-2.68,0-5.155,1.43-6.495,3.75l-17.863,30.94l-17.863-30.94c-1.34-2.32-3.815-3.75-6.495-3.75h-70.792
			c-2.338,0-4.313-1.975-4.313-4.313V23.563c0-2.337,1.975-4.313,4.313-4.313h194.513c2.338,0,4.313,1.975,4.313,4.313V140.638z"/>
		<path d="M298.391,377.374c17.854,0,32.38-14.525,32.38-32.38s-14.525-32.38-32.38-32.38s-32.38,14.526-32.38,32.38
			S280.537,377.374,298.391,377.374z M298.391,327.614c9.583,0,17.38,7.797,17.38,17.38s-7.797,17.38-17.38,17.38
			s-17.38-7.796-17.38-17.38S288.808,327.614,298.391,327.614z"/>
		<path d="M233.524,344.994c0,35.768,29.1,64.867,64.867,64.867s64.867-29.099,64.867-64.867s-29.1-64.868-64.867-64.868
			S233.524,309.226,233.524,344.994z M298.391,295.126c27.497,0,49.867,22.371,49.867,49.868s-22.37,49.867-49.867,49.867
			s-49.867-22.37-49.867-49.867S270.894,295.126,298.391,295.126z"/>
		<path d="M52.457,108.686c-13.121,0-23.796,10.675-23.796,23.796c0,13.122,10.675,23.796,23.796,23.796
			s23.796-10.675,23.796-23.796C76.252,119.36,65.578,108.686,52.457,108.686z M52.457,141.278c-4.85,0-8.796-3.946-8.796-8.796
			c0-4.85,3.946-8.796,8.796-8.796s8.796,3.946,8.796,8.796C61.252,137.332,57.307,141.278,52.457,141.278z"/>
		<path d="M196.553,140.411c4.142,0,7.5-3.358,7.5-7.5s-3.358-7.5-7.5-7.5h-92.81c-4.142,0-7.5,3.358-7.5,7.5s3.358,7.5,7.5,7.5
			H196.553z"/>
		<path d="M29.648,177.795c0,4.142,3.358,7.5,7.5,7.5h158.3c4.142,0,7.5-3.358,7.5-7.5s-3.358-7.5-7.5-7.5h-158.3
			C33.006,170.295,29.648,173.653,29.648,177.795z"/>
		<path d="M323.463,84.771c13.121,0,23.796-10.675,23.796-23.796c0-13.121-10.675-23.796-23.796-23.796
			s-23.796,10.675-23.796,23.796C299.667,74.096,310.342,84.771,323.463,84.771z M323.463,52.178c4.85,0,8.796,3.946,8.796,8.796
			s-3.946,8.796-8.796,8.796s-8.796-3.946-8.796-8.796S318.614,52.178,323.463,52.178z"/>
		<path d="M467.56,53.903h-92.81c-4.143,0-7.5,3.358-7.5,7.5s3.357,7.5,7.5,7.5h92.81c4.143,0,7.5-3.358,7.5-7.5
			S471.703,53.903,467.56,53.903z"/>
		<path d="M466.456,98.788H308.155c-4.143,0-7.5,3.358-7.5,7.5s3.357,7.5,7.5,7.5h158.301c4.143,0,7.5-3.358,7.5-7.5
			S470.598,98.788,466.456,98.788z"/>
		<path d="M387.922,301.558h60.172c4.143,0,7.5-3.358,7.5-7.5s-3.357-7.5-7.5-7.5h-60.172c-4.143,0-7.5,3.358-7.5,7.5
			S383.78,301.558,387.922,301.558z"/>
		<path d="M387.922,346.923h60.172c4.143,0,7.5-3.358,7.5-7.5s-3.357-7.5-7.5-7.5h-60.172c-4.143,0-7.5,3.358-7.5,7.5
			S383.78,346.923,387.922,346.923z"/>
		<path d="M387.922,392.289h60.172c4.143,0,7.5-3.358,7.5-7.5s-3.357-7.5-7.5-7.5h-60.172c-4.143,0-7.5,3.358-7.5,7.5
			S383.78,392.289,387.922,392.289z"/>
	</g>
</g>
<g>
</g>
<g>
</g>
<g>
</g>
<g>
</g>
<g>
</g>
<g>
</g>
<g>
</g>
<g>
</g>
<g>
</g>
<g>
</g>
<g>
</g>
<g>
</g>
<g>
</g>
<g>
</g>
<g>
</g>
</svg>
