<?xml version="1.0" encoding="iso-8859-1"?>
<!-- Generator: Adobe Illustrator 21.0.0, SVG Export Plug-In . SVG Version: 6.00 Build 0)  -->
<svg version="1.1" id="Capa_1" xmlns="http://www.w3.org/2000/svg" xmlns:xlink="http://www.w3.org/1999/xlink" x="0px" y="0px"
	 viewBox="0 0 510.07 510.07" style="enable-background:new 0 0 510.07 510.07;" xml:space="preserve">
<g>
	<g>
		<path style="fill:#DC8839;" d="M230.22,487.57V22.5c0-8.25,6.75-15,15-15h19.63c8.25,0,15,6.75,15,15v465.07c0,8.25-6.75,15-15,15
			h-19.63C236.97,502.57,230.22,495.82,230.22,487.57z"/>
	</g>
	<g>
		<path style="fill:#BE7511;" d="M264.85,7.5h-19.63c-1.273,0-2.503,0.178-3.685,0.48c6.48,1.655,11.315,7.542,11.315,14.52v465.07
			c0,6.978-4.835,12.864-11.315,14.52c1.182,0.302,2.412,0.48,3.685,0.48h19.63c8.25,0,15-6.75,15-15V22.5
			C279.85,14.25,273.1,7.5,264.85,7.5z"/>
	</g>
	<g>
		<rect x="88.225" y="94.232" style="fill:#FFF4F1;" width="333.621" height="319.304"/>
	</g>
	<g>
		<rect x="391.845" y="94.231" style="fill:#DBDEDF;" width="30" height="319.304"/>
	</g>
	<g>
		<path style="fill:#B4B4B4;" d="M434.209,111.479H75.861c-8.25,0-15-6.75-15-15V86.282c0-8.25,6.75-15,15-15h358.347
			c8.25,0,15,6.75,15,15v10.197C449.209,104.729,442.459,111.479,434.209,111.479z"/>
	</g>
	<g>
		<path style="fill:#9A9999;" d="M434.208,71.282h-30c8.25,0,15,6.75,15,15v10.196c0,8.25-6.75,15-15,15h30c8.25,0,15-6.75,15-15
			V86.282C449.208,78.032,442.458,71.282,434.208,71.282z"/>
	</g>
	<g>
		<path style="fill:#B4B4B4;" d="M434.209,437.352H75.861c-8.25,0-15-6.75-15-15v-10.197c0-8.25,6.75-15,15-15h358.347
			c8.25,0,15,6.75,15,15v10.197C449.209,430.602,442.459,437.352,434.209,437.352z"/>
	</g>
	<g>
		<path style="fill:#9A9999;" d="M434.208,397.155h-30c8.25,0,15,6.75,15,15v10.197c0,8.25-6.75,15-15,15h30c8.25,0,15-6.75,15-15
			v-10.197C449.208,403.905,442.458,397.155,434.208,397.155z"/>
	</g>
	<g>
		<path style="fill:#CB9558;" d="M332.758,70.346v-11.22c0-8.25-6.75-15-15-15H192.312c-8.25,0-15,6.75-15,15v11.22H332.758z"/>
	</g>
	<g>
		<circle style="fill:#F86654;" cx="181.221" cy="344.361" r="25.283"/>
	</g>
	<g>
		
			<ellipse transform="matrix(0.7071 -0.7071 0.7071 0.7071 -141.007 348.3005)" style="fill:#F86654;" cx="349.932" cy="344.361" rx="25.283" ry="25.283"/>
	</g>
	<g>
		<circle style="fill:#F86654;" cx="349.932" cy="193.954" r="25.283"/>
	</g>
	<g>
		<path d="M434.209,63.782h-93.951v-4.656c0-12.407-10.094-22.5-22.5-22.5H287.35V22.5c0-12.407-10.094-22.5-22.5-22.5h-19.631
			c-12.406,0-22.5,10.093-22.5,22.5v14.126h-30.407c-12.406,0-22.5,10.093-22.5,22.5v4.656H75.861c-12.406,0-22.5,10.093-22.5,22.5
			v10.196c0,12.407,10.094,22.5,22.5,22.5h4.863v84.632c0,4.142,3.357,7.5,7.5,7.5s7.5-3.358,7.5-7.5v-84.632h318.621v170.403
			c0,4.142,3.357,7.5,7.5,7.5s7.5-3.358,7.5-7.5V118.979h4.863c12.406,0,22.5-10.093,22.5-22.5V86.282
			C456.709,73.875,446.615,63.782,434.209,63.782z M237.719,22.5c0-4.136,3.364-7.5,7.5-7.5h19.631c4.136,0,7.5,3.364,7.5,7.5
			v14.126h-34.631V22.5z M184.812,59.126c0-4.136,3.364-7.5,7.5-7.5h125.445c4.136,0,7.5,3.364,7.5,7.5v3.72H184.812V59.126z
			 M441.709,96.479c0,4.136-3.364,7.5-7.5,7.5H75.861c-4.136,0-7.5-3.364-7.5-7.5V86.282c0-4.136,3.364-7.5,7.5-7.5h358.348
			c4.136,0,7.5,3.364,7.5,7.5V96.479z"/>
		<path d="M434.209,389.655h-4.863v-70.274c0-4.142-3.357-7.5-7.5-7.5s-7.5,3.358-7.5,7.5v70.274H95.724V233.611
			c0-4.142-3.357-7.5-7.5-7.5s-7.5,3.358-7.5,7.5v156.044h-4.863c-12.406,0-22.5,10.093-22.5,22.5v10.197
			c0,12.407,10.094,22.5,22.5,22.5h146.858v42.718c0,12.407,10.094,22.5,22.5,22.5h19.631c12.406,0,22.5-10.093,22.5-22.5v-42.718
			h146.858c12.406,0,22.5-10.093,22.5-22.5v-10.197C456.709,399.749,446.615,389.655,434.209,389.655z M272.35,487.57
			c0,4.136-3.364,7.5-7.5,7.5h-19.631c-4.136,0-7.5-3.364-7.5-7.5v-42.718h34.631V487.57z M441.709,422.352
			c0,4.136-3.364,7.5-7.5,7.5H75.861c-4.136,0-7.5-3.364-7.5-7.5v-10.197c0-4.136,3.364-7.5,7.5-7.5h358.348
			c4.136,0,7.5,3.364,7.5,7.5V422.352z"/>
		<path d="M151.05,195.201c1.465,1.464,3.385,2.197,5.304,2.197s3.839-0.732,5.304-2.197l7.871-7.871l7.871,7.871
			c1.465,1.464,3.385,2.197,5.304,2.197s3.839-0.732,5.304-2.197c2.929-2.929,2.929-7.678,0-10.606l-7.871-7.871l7.871-7.871
			c2.929-2.929,2.929-7.678,0-10.606c-2.93-2.929-7.678-2.929-10.607,0l-7.871,7.871l-7.871-7.871c-2.93-2.929-7.678-2.929-10.607,0
			c-2.929,2.929-2.929,7.678,0,10.606l7.871,7.871l-7.871,7.871C148.121,187.523,148.121,192.272,151.05,195.201z"/>
		<path d="M181.22,377.144c18.077,0,32.783-14.707,32.783-32.783c0-15.496-10.81-28.506-25.283-31.907v-44.032l3.686,3.942
			c1.477,1.58,3.476,2.378,5.48,2.378c1.835,0,3.674-0.669,5.12-2.021c3.025-2.829,3.186-7.575,0.356-10.601l-16.229-17.358
			c-1.591-1.702-3.789-2.498-5.946-2.364c-2.136-0.114-4.306,0.68-5.882,2.364l-16.229,17.358
			c-2.829,3.026-2.669,7.772,0.356,10.601c1.446,1.352,3.285,2.021,5.12,2.021c2.004,0,4.004-0.798,5.48-2.378l3.686-3.942v44.032
			c-14.473,3.401-25.283,16.411-25.283,31.907C148.437,362.438,163.143,377.144,181.22,377.144z M181.22,326.578
			c9.806,0,17.783,7.978,17.783,17.783s-7.978,17.783-17.783,17.783s-17.783-7.978-17.783-17.783S171.415,326.578,181.22,326.578z"
			/>
		<path d="M326.752,367.542c6.391,6.391,14.785,9.586,23.181,9.586s16.79-3.195,23.181-9.586c6.192-6.192,9.603-14.424,9.603-23.181
			s-3.41-16.989-9.602-23.181c-6.192-6.192-14.425-9.603-23.182-9.603c-5.965,0-11.684,1.585-16.683,4.551l-31.125-31.125
			l5.394,0.181c0.086,0.003,0.171,0.004,0.257,0.004c4.025,0,7.354-3.194,7.491-7.248c0.139-4.14-3.104-7.608-7.244-7.748
			l-23.749-0.798c-2.253-0.079-4.329,0.875-5.766,2.436c-1.657,1.432-2.678,3.569-2.599,5.928l0.799,23.75
			c0.137,4.054,3.466,7.248,7.491,7.248c0.085,0,0.171-0.001,0.257-0.004c4.14-0.139,7.383-3.608,7.244-7.748l-0.181-5.393
			l30.907,30.908c-3.431,5.265-5.277,11.411-5.277,17.842C317.149,353.118,320.559,361.35,326.752,367.542z M362.507,331.786
			L362.507,331.786c3.359,3.359,5.209,7.825,5.209,12.575s-1.85,9.216-5.208,12.575c-6.936,6.933-18.215,6.933-25.15,0
			c-3.358-3.359-5.208-7.825-5.208-12.575s1.85-9.216,5.209-12.575c3.467-3.467,8.021-5.2,12.574-5.2
			S359.04,328.319,362.507,331.786z"/>
		<path d="M250.496,199.202l17.357,16.229c1.446,1.352,3.285,2.021,5.12,2.021c2.004,0,4.004-0.798,5.48-2.378
			c2.829-3.025,2.669-7.771-0.356-10.601l-3.942-3.686h43.716c3.153,14.807,16.328,25.95,32.062,25.95
			c18.077,0,32.783-14.707,32.783-32.783c0-18.077-14.706-32.784-32.783-32.784c-15.259,0-28.115,10.478-31.753,24.617h-44.024
			l3.942-3.686c3.025-2.829,3.186-7.575,0.356-10.601c-2.828-3.025-7.574-3.186-10.601-0.356l-17.357,16.229
			c-1.693,1.583-2.488,3.768-2.364,5.914C248.008,195.434,248.802,197.618,250.496,199.202z M349.932,176.171
			c9.806,0,17.783,7.978,17.783,17.784c0,9.806-7.978,17.783-17.783,17.783s-17.783-7.978-17.783-17.783
			C332.149,184.148,340.127,176.171,349.932,176.171z"/>
	</g>
</g>
<g>
</g>
<g>
</g>
<g>
</g>
<g>
</g>
<g>
</g>
<g>
</g>
<g>
</g>
<g>
</g>
<g>
</g>
<g>
</g>
<g>
</g>
<g>
</g>
<g>
</g>
<g>
</g>
<g>
</g>
</svg>
