<?xml version="1.0" encoding="iso-8859-1"?>
<!-- Generator: Adobe Illustrator 21.0.0, SVG Export Plug-In . SVG Version: 6.00 Build 0)  -->
<svg version="1.1" id="Capa_1" xmlns="http://www.w3.org/2000/svg" xmlns:xlink="http://www.w3.org/1999/xlink" x="0px" y="0px"
	 viewBox="0 0 501.316 501.316" style="enable-background:new 0 0 501.316 501.316;" xml:space="preserve">
<g>
	<g>
		<path style="fill:#FFF4F1;" d="M356.364,493.816h-327c-8.284,0-15-6.716-15-15V22.5c0-8.284,6.716-15,15-15h327
			c8.284,0,15,6.716,15,15v456.316C371.364,487.1,364.649,493.816,356.364,493.816z"/>
	</g>
	<g>
		<path style="fill:#E3E5E6;" d="M356.364,7.5h-30c8.284,0,15,6.715,15,15v456.316c0,8.284-6.716,15-15,15h30
			c8.284,0,15-6.716,15-15V22.5C371.364,14.215,364.649,7.5,356.364,7.5z"/>
	</g>
	<g>
		<path style="fill:#B4B4B4;" d="M474.66,336.252l-4.221,0.102c-1.1-20.16-8.405-38.686-20.019-53.728l3.548-2.592
			c5.803-4.24,6.609-12.608,1.706-17.862c-10.066-10.785-22.221-19.59-35.575-25.771c-6.526-3.02-14.227,0.37-16.436,7.213
			l-1.749,5.419c-8.917-2.716-18.371-4.19-28.165-4.19c-10.557,0-20.715,1.722-30.235,4.859l-1.955-5.991
			c-2.23-6.836-9.943-10.202-16.459-7.161c-13.335,6.223-25.463,15.067-35.495,25.884c-4.887,5.269-4.054,13.635,1.762,17.856
			l4.805,3.488c-11.664,15.586-18.717,34.796-19.207,55.6l-4.744,0.005c-7.177,0.008-12.747,6.277-11.904,13.404
			c1.746,14.763,6.357,28.917,13.635,41.853c3.52,6.257,11.721,8.035,17.522,3.806l2.555-1.863
			c11.657,16.876,28.525,29.873,48.263,36.673l-0.539,1.665c-2.213,6.832,2.031,14.082,9.078,15.467
			c7.193,1.413,14.529,2.126,21.93,2.126c0.003,0,0.003,0,0.007,0c7.436,0,14.807-0.72,22.033-2.147
			c7.047-1.392,11.287-8.646,9.066-15.477l-0.345-1.062c21.311-6.903,39.398-21.003,51.403-39.424l1.971,1.357
			c5.918,4.078,14.083,2.076,17.423-4.288c6.856-13.062,11.154-27.443,12.578-42.089
			C487.592,342.228,481.849,336.078,474.66,336.252z M373.749,398.6c-31.382,0-56.913-25.531-56.913-56.913
			s25.531-56.913,56.913-56.913s56.913,25.531,56.913,56.913S405.131,398.6,373.749,398.6z"/>
	</g>
	<g>
		<path style="fill:#9A9999;" d="M474.66,336.252l-4.221,0.102c-1.1-20.16-8.405-38.686-20.019-53.728l3.548-2.592
			c5.803-4.24,6.609-12.608,1.706-17.862c-10.066-10.785-22.221-19.59-35.575-25.771c-6.526-3.02-14.227,0.371-16.436,7.213
			l-1.749,5.418c-1.411-0.43-2.84-0.816-4.277-1.183c24.844,21.02,46.622,64.42,46.622,99.511
			c0,55.812-45.904,90.296-98.737,100.499c1.48,1.228,3.271,2.128,5.307,2.528c7.193,1.413,14.529,2.126,21.93,2.126
			c0.003,0,0.003,0,0.007,0c7.437,0,14.807-0.72,22.033-2.147c7.047-1.392,11.287-8.646,9.066-15.477l-0.345-1.062
			c21.311-6.903,39.398-21.002,51.403-39.424l1.971,1.357c5.918,4.077,14.083,2.076,17.423-4.288
			c6.856-13.063,11.154-27.443,12.578-42.089C487.592,342.228,481.849,336.078,474.66,336.252z"/>
	</g>
	<g>
		<circle style="fill:#FFEC56;" cx="82.939" cy="148.083" r="20.348"/>
	</g>
	<g>
		<circle style="fill:#FFEC56;" cx="82.939" cy="241.121" r="20.348"/>
	</g>
	<g>
		<circle style="fill:#FFEC56;" cx="82.939" cy="334.16" r="20.348"/>
	</g>
	<g>
		<circle style="fill:#FFEC56;" cx="82.939" cy="427.198" r="20.348"/>
	</g>
	<g>
		<path style="fill:#ACEDED;" d="M302.42,94.173H78.679c-8.25,0-15-6.75-15-15v-5.133c0-8.25,6.75-15,15-15H302.42
			c8.25,0,15,6.75,15,15v5.133C317.42,87.423,310.67,94.173,302.42,94.173z"/>
	</g>
	<g>
		<path style="fill:#ACEDED;" d="M302.42,59.039h-30c8.25,0,15,6.75,15,15v5.134c0,8.25-6.75,15-15,15h30c8.25,0,15-6.75,15-15
			v-5.134C317.42,65.789,310.67,59.039,302.42,59.039z"/>
	</g>
	<g>
		<g>
			<path style="fill:#FFEC56;" d="M374.97,361.554c19.805,0,37.038,10.431,45.967,25.826c11.627-11.807,18.791-27.862,18.791-45.566
				c0-36.253-29.988-65.642-66.979-65.642s-66.979,29.389-66.979,65.642c0,19.232,8.44,36.53,21.887,48.536
				c0.313-0.96,0.734-1.913,1.272-2.846C337.837,372.04,355.112,361.554,374.97,361.554z"/>
		</g>
		<g>
			<g>
				<path style="fill:#F9CD45;" d="M372.749,276.172c-3.241,0-6.427,0.23-9.546,0.667c32.469,4.541,57.433,31.899,57.433,64.975
					c0,12.269-3.443,23.744-9.425,33.564c3.845,3.496,7.136,7.538,9.725,12.002c11.627-11.807,18.791-27.862,18.791-45.566
					C439.728,305.561,409.741,276.172,372.749,276.172z"/>
			</g>
		</g>
		<g>
			<path style="fill:#FFF4F1;" d="M420.937,387.38c-8.929-15.395-26.162-25.826-45.967-25.826c-19.858,0-37.133,10.486-46.041,25.95
				c-0.538,0.933-0.959,1.886-1.272,2.846c11.901,10.626,27.724,17.105,45.092,17.105
				C391.676,407.455,408.756,399.75,420.937,387.38z"/>
		</g>
		<g>
			<path style="fill:#DBDEDF;" d="M374.97,361.554c-3.261,0-6.45,0.288-9.547,0.829c10.676,1.866,20.219,6.802,27.579,13.81
				c5.9,5.618,5.205,15.266-1.559,19.808c-8.274,5.556-17.884,9.339-28.262,10.789c3.125,0.438,6.319,0.665,9.568,0.665
				c18.927,0,36.007-7.706,48.188-20.075C412.008,371.985,394.775,361.554,374.97,361.554z"/>
		</g>
		<g>
			<ellipse style="fill:#FFD4C6;" cx="373.957" cy="320.595" rx="15.696" ry="19.891"/>
		</g>
	</g>
	<g>
		<path d="M372.749,268.672c-41.068,0-74.479,32.811-74.479,73.142c0,18.909,7.536,37.101,20.801,50.67l-0.064,0.197l3.655,3.264
			c13.731,12.259,31.519,19.011,50.087,19.011c20.347,0,39.355-7.921,53.523-22.306c0.003-0.002,0.005-0.004,0.008-0.007
			c0.003-0.003,0.006-0.007,0.01-0.01l4.004-4.066l-0.127-0.218c11.03-13.089,17.06-29.398,17.06-46.534
			C447.228,301.483,413.817,268.672,372.749,268.672z M337.211,388.438c8.255-12.03,22.419-19.384,37.759-19.384
			c14.37,0,27.729,6.46,36.146,17.177c-10.715,8.891-24.127,13.725-38.366,13.725C359.855,399.956,347.439,395.9,337.211,388.438z
			 M421.451,375.18c-11.277-13.225-28.294-21.126-46.481-21.126c-19.467,0-37.57,9.035-48.752,23.962
			c-8.311-10.225-12.947-23.002-12.947-36.202c0-32.06,26.682-58.142,59.479-58.142s59.479,26.082,59.479,58.142
			C432.228,353.887,428.451,365.458,421.451,375.18z"/>
		<path d="M373.957,293.204c-12.79,0-23.196,12.288-23.196,27.391s10.406,27.391,23.196,27.391s23.196-12.288,23.196-27.391
			S386.747,293.204,373.957,293.204z M373.957,332.986c-4.366,0-8.196-5.79-8.196-12.391s3.83-12.391,8.196-12.391
			s8.196,5.79,8.196,12.391S378.323,332.986,373.957,332.986z"/>
		<path d="M14.364,228.158c4.142,0,7.5-3.358,7.5-7.5V22.5c0-4.136,3.364-7.5,7.5-7.5h327c4.136,0,7.5,3.364,7.5,7.5v114.331
			c0,4.142,3.358,7.5,7.5,7.5s7.5-3.358,7.5-7.5V22.5c0-12.407-10.093-22.5-22.5-22.5h-327c-12.407,0-22.5,10.093-22.5,22.5v198.158
			C6.864,224.8,10.222,228.158,14.364,228.158z"/>
		<path d="M489.239,334.974c-3.154-3.392-7.395-5.53-11.935-6.083c-1.969-16.038-7.624-31.295-16.598-44.787
			c3.169-3.183,5.169-7.395,5.599-11.927c0.525-5.543-1.351-11.056-5.147-15.123c-10.659-11.419-23.767-20.915-37.908-27.459
			c-5.05-2.336-10.874-2.397-15.978-0.163c-4.677,2.047-8.352,5.842-10.258,10.538c-5.96-1.365-12.041-2.195-18.149-2.492v-70.648
			c0-4.142-3.358-7.5-7.5-7.5s-7.5,3.358-7.5,7.5v70.998c-5.219,0.495-10.403,1.378-15.492,2.66
			c-1.866-4.893-5.636-8.851-10.465-10.947c-5.11-2.218-10.935-2.14-15.979,0.213c-14.122,6.59-27.201,16.127-37.823,27.581
			c-3.783,4.079-5.642,9.597-5.099,15.139c0.498,5.083,2.972,9.756,6.85,13.022c-9.009,14.034-14.454,29.888-15.978,46.531
			c-4.692,0.572-9.056,2.839-12.229,6.413c-3.692,4.159-5.435,9.709-4.782,15.23c1.868,15.791,6.763,30.813,14.547,44.649
			c2.726,4.846,7.407,8.303,12.842,9.485c4.025,0.875,8.191,0.445,11.909-1.166c10.967,13.717,25.367,24.597,41.513,31.357
			c-0.116,3.653,0.794,7.308,2.683,10.519c2.821,4.796,7.567,8.162,13.022,9.233c4.763,0.936,9.606,1.583,14.48,1.94v19.127
			c0,4.136-3.364,7.5-7.5,7.5h-327c-4.136,0-7.5-3.364-7.5-7.5V250.658c0-4.142-3.358-7.5-7.5-7.5s-7.5,3.358-7.5,7.5v228.158
			c0,12.407,10.093,22.5,22.5,22.5h327c12.407,0,22.5-10.093,22.5-22.5V459.86c5.853-0.293,11.68-1.006,17.389-2.134
			c5.455-1.077,10.199-4.448,13.017-9.248c1.747-2.976,2.654-6.331,2.683-9.713c17.892-7.073,33.609-19.069,45.222-34.511
			c3.567,1.267,7.467,1.483,11.208,0.557c5.406-1.334,9.99-4.926,12.575-9.852c7.259-13.83,11.894-29.339,13.402-44.849
			C494.9,344.572,493.033,339.055,489.239,334.974z M479.431,348.659c-1.322,13.599-5.387,27.199-11.754,39.329
			c-0.812,1.547-2.159,2.081-2.89,2.261c-0.737,0.181-2.187,0.337-3.639-0.664l-1.971-1.357c-1.666-1.147-3.723-1.573-5.708-1.181
			c-1.984,0.392-3.726,1.569-4.83,3.263c-11.196,17.182-28.041,30.104-47.43,36.384c-1.894,0.614-3.466,1.955-4.37,3.728
			c-0.904,1.773-1.067,3.833-0.452,5.726l0.346,1.063c0.545,1.676-0.017,3.022-0.4,3.675c-0.38,0.648-1.274,1.787-2.987,2.125
			c-13.43,2.653-27.622,2.662-41.07,0.02c-1.709-0.336-2.604-1.472-2.985-2.12c-0.384-0.653-0.947-1.999-0.404-3.677l0.539-1.665
			c1.259-3.889-0.828-8.07-4.692-9.401c-17.903-6.168-33.72-18.188-44.535-33.845c-1.149-1.664-2.922-2.793-4.916-3.131
			c-0.417-0.071-0.837-0.106-1.255-0.106c-1.578,0-3.127,0.498-4.419,1.44l-2.554,1.863c-1.421,1.035-2.871,0.919-3.61,0.76
			c-0.736-0.16-2.099-0.657-2.958-2.183c-6.809-12.102-11.089-25.243-12.724-39.057c-0.206-1.74,0.603-2.946,1.103-3.51
			c0.501-0.564,1.604-1.512,3.36-1.514l4.745-0.005c4.07-0.004,7.394-3.254,7.49-7.323c0.439-18.652,6.565-36.385,17.714-51.284
			c1.203-1.608,1.711-3.631,1.411-5.616c-0.301-1.986-1.385-3.768-3.01-4.947l-4.804-3.487c-1.427-1.035-1.764-2.455-1.837-3.209
			c-0.073-0.749-0.019-2.197,1.168-3.478c9.317-10.045,20.786-18.41,33.168-24.188c1.581-0.737,2.975-0.345,3.665-0.046
			c0.696,0.302,1.945,1.059,2.492,2.737l1.955,5.991c0.618,1.895,1.965,3.465,3.744,4.366c1.778,0.899,3.841,1.054,5.734,0.431
			c9.025-2.974,18.408-4.482,27.888-4.482c8.819,0,17.56,1.3,25.98,3.865c3.916,1.192,8.064-0.975,9.322-4.871l1.749-5.418
			c0.542-1.68,1.79-2.441,2.485-2.746c0.688-0.302,2.082-0.698,3.664,0.035c12.398,5.738,23.894,14.065,33.242,24.082
			c1.192,1.276,1.25,2.724,1.18,3.474c-0.071,0.754-0.404,2.175-1.827,3.214l-3.548,2.592c-1.634,1.194-2.716,2.997-3.001,5
			c-0.285,2.004,0.252,4.037,1.489,5.639c11.096,14.372,17.481,31.507,18.466,49.553c0.221,4.047,3.635,7.213,7.67,7.089
			l4.221-0.102h0.001c1.784-0.007,2.895,0.883,3.412,1.438C478.766,345.739,479.6,346.923,479.431,348.659z"/>
		<path d="M82.939,120.235c-15.355,0-27.848,12.493-27.848,27.848s12.493,27.848,27.848,27.848s27.848-12.493,27.848-27.848
			S98.294,120.235,82.939,120.235z M82.939,160.931c-7.084,0-12.848-5.764-12.848-12.848s5.764-12.848,12.848-12.848
			s12.848,5.764,12.848,12.848S90.023,160.931,82.939,160.931z"/>
		<path d="M315.221,132.041c0-4.142-3.358-7.5-7.5-7.5H136.608c-4.142,0-7.5,3.358-7.5,7.5s3.358,7.5,7.5,7.5h171.113
			C311.863,139.541,315.221,136.183,315.221,132.041z"/>
		<path d="M136.608,165.565h99.69c4.142,0,7.5-3.358,7.5-7.5s-3.358-7.5-7.5-7.5h-99.69c-4.142,0-7.5,3.358-7.5,7.5
			S132.466,165.565,136.608,165.565z"/>
		<path d="M82.939,213.273c-15.355,0-27.848,12.493-27.848,27.848s12.493,27.848,27.848,27.848s27.848-12.492,27.848-27.848
			S98.294,213.273,82.939,213.273z M82.939,253.969c-7.084,0-12.848-5.764-12.848-12.848c0-7.084,5.764-12.848,12.848-12.848
			s12.848,5.764,12.848,12.848C95.787,248.206,90.023,253.969,82.939,253.969z"/>
		<path d="M295.221,225.079c0-4.142-3.358-7.5-7.5-7.5H136.608c-4.142,0-7.5,3.358-7.5,7.5s3.358,7.5,7.5,7.5h151.113
			C291.863,232.579,295.221,229.221,295.221,225.079z"/>
		<path d="M136.608,258.604h69.69c4.142,0,7.5-3.358,7.5-7.5s-3.358-7.5-7.5-7.5h-69.69c-4.142,0-7.5,3.358-7.5,7.5
			S132.466,258.604,136.608,258.604z"/>
		<path d="M82.939,306.312c-15.355,0-27.848,12.492-27.848,27.848s12.493,27.848,27.848,27.848s27.848-12.493,27.848-27.848
			S98.294,306.312,82.939,306.312z M82.939,347.008c-7.084,0-12.848-5.764-12.848-12.848c0-7.084,5.764-12.848,12.848-12.848
			s12.848,5.764,12.848,12.848C95.787,341.244,90.023,347.008,82.939,347.008z"/>
		<path d="M245.221,318.117c0-4.142-3.358-7.5-7.5-7.5H136.608c-4.142,0-7.5,3.358-7.5,7.5s3.358,7.5,7.5,7.5h101.113
			C241.863,325.617,245.221,322.259,245.221,318.117z"/>
		<path d="M136.608,351.642h69.69c4.142,0,7.5-3.358,7.5-7.5s-3.358-7.5-7.5-7.5h-69.69c-4.142,0-7.5,3.358-7.5,7.5
			S132.466,351.642,136.608,351.642z"/>
		<path d="M82.939,399.35c-15.355,0-27.848,12.493-27.848,27.848s12.493,27.848,27.848,27.848s27.848-12.492,27.848-27.848
			S98.294,399.35,82.939,399.35z M82.939,440.046c-7.084,0-12.848-5.764-12.848-12.848c0-7.084,5.764-12.848,12.848-12.848
			s12.848,5.764,12.848,12.848C95.787,434.282,90.023,440.046,82.939,440.046z"/>
		<path d="M136.608,418.656h31.113c4.142,0,7.5-3.358,7.5-7.5s-3.358-7.5-7.5-7.5h-31.113c-4.142,0-7.5,3.358-7.5,7.5
			S132.466,418.656,136.608,418.656z"/>
		<path d="M136.608,444.681h79.69c4.142,0,7.5-3.358,7.5-7.5s-3.358-7.5-7.5-7.5h-79.69c-4.142,0-7.5,3.358-7.5,7.5
			S132.466,444.681,136.608,444.681z"/>
		<path d="M324.92,79.173v-5.134c0-12.407-10.093-22.5-22.5-22.5H78.678c-12.407,0-22.5,10.093-22.5,22.5v5.134
			c0,12.407,10.093,22.5,22.5,22.5H302.42C314.826,101.673,324.92,91.58,324.92,79.173z M309.92,79.173c0,4.136-3.365,7.5-7.5,7.5
			H78.678c-4.135,0-7.5-3.364-7.5-7.5v-5.134c0-4.136,3.365-7.5,7.5-7.5H302.42c4.135,0,7.5,3.364,7.5,7.5V79.173z"/>
		<path d="M476.495,174.585c-2.929-2.93-7.678-2.929-10.606,0l-3.806,3.806l-3.806-3.806c-2.928-2.929-7.677-2.929-10.606,0
			c-2.929,2.929-2.929,7.677,0,10.606l3.806,3.806l-3.806,3.807c-2.929,2.929-2.929,7.678,0,10.606
			c1.464,1.464,3.384,2.197,5.303,2.197s3.839-0.732,5.303-2.197l3.806-3.806l3.806,3.806c1.464,1.465,3.384,2.197,5.303,2.197
			c1.919,0,3.839-0.732,5.303-2.197c2.929-2.929,2.929-7.677,0-10.606l-3.806-3.807l3.806-3.806
			C479.424,182.263,479.424,177.514,476.495,174.585z"/>
		<path d="M398.149,133.337c1.464,1.464,3.384,2.197,5.303,2.197s3.839-0.732,5.303-2.197l3.806-3.806l3.806,3.806
			c1.464,1.464,3.384,2.197,5.303,2.197s3.839-0.732,5.303-2.197c2.929-2.929,2.929-7.678,0-10.606l-3.806-3.806l3.806-3.806
			c2.929-2.929,2.929-7.678,0-10.606c-2.929-2.929-7.678-2.929-10.606,0l-3.806,3.806l-3.806-3.806
			c-2.929-2.929-7.678-2.929-10.606,0c-2.929,2.929-2.929,7.678,0,10.606l3.806,3.806l-3.806,3.806
			C395.22,125.66,395.22,130.409,398.149,133.337z"/>
		<path d="M446.149,55.337c1.464,1.464,3.384,2.197,5.303,2.197s3.839-0.732,5.303-2.197l3.806-3.806l3.806,3.806
			c1.464,1.464,3.384,2.197,5.303,2.197s3.839-0.732,5.303-2.197c2.929-2.929,2.929-7.678,0-10.606l-3.806-3.806l3.806-3.806
			c2.929-2.929,2.929-7.678,0-10.606c-2.929-2.929-7.678-2.929-10.606,0l-3.806,3.806l-3.806-3.806
			c-2.929-2.929-7.678-2.929-10.606,0c-2.929,2.929-2.929,7.678,0,10.606l3.806,3.806l-3.806,3.806
			C443.22,47.66,443.22,52.409,446.149,55.337z"/>
	</g>
</g>
<g>
</g>
<g>
</g>
<g>
</g>
<g>
</g>
<g>
</g>
<g>
</g>
<g>
</g>
<g>
</g>
<g>
</g>
<g>
</g>
<g>
</g>
<g>
</g>
<g>
</g>
<g>
</g>
<g>
</g>
</svg>
