<?xml version="1.0" encoding="iso-8859-1"?>
<!-- Generator: Adobe Illustrator 21.0.0, SVG Export Plug-In . SVG Version: 6.00 Build 0)  -->
<svg version="1.1" id="Capa_1" xmlns="http://www.w3.org/2000/svg" xmlns:xlink="http://www.w3.org/1999/xlink" x="0px" y="0px"
	 viewBox="0 0 504.792 504.792" style="enable-background:new 0 0 504.792 504.792;" xml:space="preserve">
<g>
	<g>
		<path style="fill:#ACEDED;" d="M447.031,497.292H47.827c-8.284,0-15-6.716-15-15V225.288c0-8.284,6.716-15,15-15h399.203
			c8.284,0,15,6.716,15,15v257.004C462.031,490.576,455.315,497.292,447.031,497.292z"/>
	</g>
	<g>
		<path style="fill:#66D6E6;" d="M447.031,210.288h-30c8.284,0,15,6.716,15,15v257.004c0,8.285-6.716,15-15,15h30
			c8.284,0,15-6.715,15-15V225.288C462.031,217.003,455.315,210.288,447.031,210.288z"/>
	</g>
	<g>
		<path style="fill:#66D6E6;" d="M462.031,227.914v-2.626c0-8.284-6.716-15-15-15H47.827c-8.284,0-15,6.716-15,15v0.626
			L224.285,340.5c13.46,6.902,29.404,6.973,42.924,0.19L462.031,227.914z"/>
	</g>
	<g>
		<path style="fill:#5E8EE1;" d="M32.827,454.572v27.72c0,8.285,6.716,15,15,15h399.203c8.284,0,15-6.715,15-15v-27.72H32.827z"/>
	</g>
	<g>
		<path style="fill:#467BFF;" d="M432.031,454.572v27.72c0,8.285-6.716,15-15,15h30c8.284,0,15-6.715,15-15v-27.72H432.031z"/>
	</g>
	<g>
		<g>
			<path style="fill:#FFEC56;" d="M93.818,96.764c20.706,0,38.722,10.905,48.057,27c12.155-12.344,19.646-29.129,19.646-47.638
				c0-37.901-31.351-68.626-70.024-68.626S21.472,38.225,21.472,76.126c0,20.106,8.824,38.191,22.882,50.743
				c0.328-1.004,0.768-2,1.33-2.976C54.997,107.726,73.057,96.764,93.818,96.764z"/>
		</g>
		<g>
			<g>
				<path style="fill:#F9CD45;" d="M91.496,7.5c-3.389,0-6.72,0.241-9.98,0.697c33.945,4.748,60.045,33.349,60.045,67.929
					c0,12.827-3.599,24.824-9.853,35.09c4.02,3.655,7.461,7.881,10.167,12.548c12.155-12.344,19.646-29.129,19.646-47.638
					C161.52,38.225,130.169,7.5,91.496,7.5z"/>
			</g>
		</g>
		<g>
			<path style="fill:#FFF4F1;" d="M141.875,123.764c-9.335-16.095-27.351-27-48.057-27c-20.761,0-38.821,10.963-48.134,27.13
				c-0.562,0.976-1.002,1.972-1.33,2.976c12.442,11.109,28.985,17.883,47.142,17.883
				C111.283,144.752,129.14,136.696,141.875,123.764z"/>
		</g>
		<g>
			<path style="fill:#DBDEDF;" d="M93.818,96.764c-3.409,0-6.744,0.301-9.981,0.867c11.161,1.951,21.138,7.111,28.833,14.438
				c6.169,5.874,5.442,15.96-1.63,20.708c-8.651,5.808-18.697,9.763-29.547,11.28c3.267,0.458,6.607,0.695,10.003,0.695
				c19.787,0,37.644-8.056,50.379-20.988C132.54,107.669,114.524,96.764,93.818,96.764z"/>
		</g>
		<g>
			<ellipse style="fill:#FFD4C6;" cx="92.759" cy="53.942" rx="16.41" ry="20.795"/>
		</g>
	</g>
	<g>
		<g>
			<path style="fill:#ACEDED;" d="M254.718,96.764c20.706,0,38.722,10.905,48.057,27c12.155-12.344,19.646-29.129,19.646-47.638
				c0-37.901-31.351-68.626-70.024-68.626s-70.024,30.725-70.024,68.626c0,20.106,8.824,38.191,22.882,50.743
				c0.328-1.004,0.768-2,1.33-2.976C215.897,107.726,233.957,96.764,254.718,96.764z"/>
		</g>
		<g>
			<g>
				<path style="fill:#66D6E6;" d="M252.396,7.5c-3.389,0-6.72,0.241-9.98,0.697c33.945,4.748,60.045,33.349,60.045,67.929
					c0,12.827-3.599,24.824-9.853,35.09c4.02,3.655,7.461,7.881,10.167,12.548c12.155-12.344,19.646-29.129,19.646-47.638
					C322.42,38.225,291.069,7.5,252.396,7.5z"/>
			</g>
		</g>
		<g>
			<path style="fill:#FFF4F1;" d="M302.775,123.764c-9.335-16.095-27.351-27-48.057-27c-20.761,0-38.821,10.963-48.134,27.13
				c-0.562,0.976-1.002,1.972-1.33,2.976c12.442,11.109,28.985,17.883,47.142,17.883
				C272.183,144.752,290.04,136.696,302.775,123.764z"/>
		</g>
		<g>
			<path style="fill:#DBDEDF;" d="M254.718,96.764c-3.409,0-6.744,0.301-9.981,0.867c11.161,1.951,21.138,7.111,28.833,14.438
				c6.169,5.874,5.442,15.96-1.63,20.708c-8.651,5.808-18.697,9.763-29.547,11.28c3.267,0.458,6.607,0.695,10.003,0.695
				c19.787,0,37.644-8.056,50.379-20.988C293.44,107.669,275.424,96.764,254.718,96.764z"/>
		</g>
		<g>
			<ellipse style="fill:#FFD4C6;" cx="253.659" cy="53.942" rx="16.41" ry="20.795"/>
		</g>
	</g>
	<g>
		<g>
			<path style="fill:#FFD4C6;" d="M254.718,375.59c20.706,0,38.722,10.905,48.057,27c12.155-12.344,19.646-29.129,19.646-47.638
				c0-37.901-31.351-68.626-70.024-68.626s-70.024,30.725-70.024,68.626c0,20.106,8.824,38.191,22.882,50.743
				c0.328-1.004,0.768-2,1.33-2.976C215.897,386.553,233.957,375.59,254.718,375.59z"/>
		</g>
		<g>
			<g>
				<path style="fill:#F8A29D;" d="M252.396,286.327c-3.389,0-6.72,0.241-9.98,0.697c33.945,4.748,60.045,33.349,60.045,67.929
					c0,12.827-3.599,24.824-9.853,35.09c4.02,3.655,7.461,7.881,10.167,12.548c12.155-12.344,19.646-29.129,19.646-47.638
					C322.42,317.051,291.069,286.327,252.396,286.327z"/>
			</g>
		</g>
		<g>
			<path style="fill:#FFF4F1;" d="M302.775,402.591c-9.335-16.095-27.351-27-48.057-27c-20.761,0-38.821,10.963-48.134,27.13
				c-0.562,0.976-1.002,1.972-1.33,2.976c12.442,11.109,28.985,17.883,47.142,17.883
				C272.183,423.579,290.04,415.523,302.775,402.591z"/>
		</g>
		<g>
			<path style="fill:#DBDEDF;" d="M254.718,375.59c-3.409,0-6.744,0.301-9.981,0.867c11.161,1.951,21.138,7.111,28.833,14.438
				c6.169,5.874,5.442,15.96-1.63,20.708c-8.651,5.808-18.697,9.763-29.547,11.28c3.267,0.458,6.607,0.695,10.003,0.695
				c19.787,0,37.644-8.056,50.379-20.988C293.44,386.495,275.424,375.59,254.718,375.59z"/>
		</g>
		<g>
			<ellipse style="fill:#FFD4C6;" cx="253.659" cy="332.769" rx="16.41" ry="20.795"/>
		</g>
	</g>
	<g>
		<g>
			<path style="fill:#FC9086;" d="M415.618,96.764c20.706,0,38.722,10.905,48.057,27c12.155-12.344,19.646-29.129,19.646-47.638
				c0-37.901-31.351-68.626-70.024-68.626s-70.024,30.725-70.024,68.626c0,20.106,8.824,38.191,22.882,50.743
				c0.328-1.004,0.768-2,1.33-2.976C376.797,107.726,394.857,96.764,415.618,96.764z"/>
		</g>
		<g>
			<g>
				<path style="fill:#F57A73;" d="M413.296,7.5c-3.389,0-6.72,0.241-9.98,0.697c33.945,4.748,60.045,33.349,60.045,67.929
					c0,12.827-3.599,24.824-9.853,35.09c4.02,3.655,7.461,7.881,10.167,12.548c12.155-12.344,19.646-29.129,19.646-47.638
					C483.32,38.225,451.969,7.5,413.296,7.5z"/>
			</g>
		</g>
		<g>
			<path style="fill:#FFF4F1;" d="M463.675,123.764c-9.335-16.095-27.351-27-48.057-27c-20.761,0-38.821,10.963-48.134,27.13
				c-0.562,0.976-1.002,1.972-1.33,2.976c12.442,11.109,28.985,17.883,47.142,17.883
				C433.083,144.752,450.94,136.696,463.675,123.764z"/>
		</g>
		<g>
			<path style="fill:#DBDEDF;" d="M415.618,96.764c-3.409,0-6.744,0.301-9.981,0.867c11.161,1.951,21.138,7.111,28.833,14.438
				c6.169,5.874,5.442,15.96-1.63,20.708c-8.651,5.808-18.697,9.763-29.547,11.28c3.267,0.458,6.607,0.695,10.003,0.695
				c19.787,0,37.644-8.056,50.379-20.988C454.34,107.669,436.324,96.764,415.618,96.764z"/>
		</g>
		<g>
			<ellipse style="fill:#FFD4C6;" cx="414.559" cy="53.942" rx="16.41" ry="20.795"/>
		</g>
	</g>
	<g>
		<path d="M92.759,82.237c13.184,0,23.91-12.693,23.91-28.295s-10.726-28.295-23.91-28.295s-23.91,12.693-23.91,28.295
			S79.575,82.237,92.759,82.237z M92.759,40.646c4.83,0,8.91,6.088,8.91,13.295s-4.08,13.295-8.91,13.295s-8.91-6.088-8.91-13.295
			S87.929,40.646,92.759,40.646z"/>
		<path d="M253.659,82.237c13.184,0,23.909-12.693,23.909-28.295s-10.726-28.295-23.909-28.295c-13.184,0-23.91,12.693-23.91,28.295
			S240.475,82.237,253.659,82.237z M253.659,40.646c4.829,0,8.909,6.088,8.909,13.295s-4.08,13.295-8.909,13.295
			c-4.83,0-8.91-6.088-8.91-13.295S248.829,40.646,253.659,40.646z"/>
		<path d="M253.659,304.473c-13.184,0-23.91,12.693-23.91,28.295s10.726,28.295,23.91,28.295c13.184,0,23.909-12.693,23.909-28.295
			S266.843,304.473,253.659,304.473z M253.659,346.064c-4.83,0-8.91-6.088-8.91-13.295s4.08-13.295,8.91-13.295
			c4.829,0,8.909,6.088,8.909,13.295S258.488,346.064,253.659,346.064z"/>
		<path d="M469.018,129.026l4.015-4.076l-0.123-0.212c11.578-13.653,17.91-30.699,17.91-48.612C490.82,34.15,456.043,0,413.296,0
			s-77.524,34.15-77.524,76.126c0,19.749,7.897,38.75,21.796,52.888l-0.061,0.188l3.653,3.262
			c13.355,11.923,30.398,18.837,48.345,19.694v50.63H261.75v-51.102c17.604-2.062,33.81-9.91,46.36-22.652
			c0.003-0.002,0.005-0.004,0.008-0.007c0.003-0.003,0.006-0.007,0.01-0.011l4.004-4.066l-0.123-0.212
			c11.579-13.653,17.912-30.699,17.912-48.612C329.921,34.15,295.143,0,252.396,0s-77.524,34.15-77.524,76.126
			c0,19.748,7.896,38.749,21.793,52.886l-0.062,0.188l3.655,3.263c12.894,11.512,29.228,18.337,46.491,19.567v50.756H98.996v-50.892
			c18.324-1.711,35.23-9.675,48.223-22.869l4.014-4.076l-0.123-0.212c11.578-13.653,17.911-30.699,17.911-48.612
			C169.02,34.15,134.243,0,91.496,0S13.971,34.15,13.971,76.126c0,19.748,7.896,38.747,21.792,52.885l-0.061,0.188l3.657,3.265
			c12.432,11.099,28.06,17.854,44.637,19.427v50.896H47.827c-12.407,0-22.5,10.093-22.5,22.5v4.878v60.757
			c0,4.142,3.358,7.5,7.5,7.5s7.5-3.358,7.5-7.5v-51.78l141.38,84.615c-4.378,9.527-6.835,20.081-6.835,31.194
			c0,19.748,7.896,38.749,21.793,52.886l-0.061,0.188l3.655,3.264c14.293,12.761,32.809,19.789,52.137,19.789
			c21.181,0,40.967-8.246,55.714-23.219c0.002-0.002,0.005-0.004,0.008-0.007c0.003-0.003,0.006-0.007,0.01-0.011l4.004-4.066
			l-0.123-0.211c11.578-13.652,17.912-30.698,17.912-48.612c0-13.184-3.435-25.594-9.466-36.418l134.076-77.613v206.15H319.643
			c-4.143,0-7.5,3.358-7.5,7.5s3.357,7.5,7.5,7.5h134.888v20.22c0,3.618-2.576,6.647-5.99,7.347c-0.488,0.1-0.993,0.153-1.51,0.153
			H47.827c-0.517,0-1.022-0.053-1.51-0.153c-3.415-0.7-5.99-3.729-5.99-7.347v-20.22h249.316c4.143,0,7.5-3.358,7.5-7.5
			s-3.357-7.5-7.5-7.5H40.327V320.923c0-4.142-3.358-7.5-7.5-7.5s-7.5,3.358-7.5,7.5v133.648v27.72c0,12.407,10.093,22.5,22.5,22.5
			h399.204c12.406,0,22.5-10.093,22.5-22.5v-27.72V232.238v-6.951c0-12.407-10.094-22.5-22.5-22.5h-22.527v-51.33
			C441.395,149.076,456.908,141.325,469.018,129.026z M216.313,122.812c0.208-0.271,0.421-0.536,0.635-0.802
			c8.876-11.076,22.788-17.746,37.77-17.746c14.92,0,28.794,6.627,37.676,17.634c0.166,0.199,0.333,0.397,0.494,0.6
			c0.03,0.039,0.057,0.081,0.087,0.119c-11.304,9.478-25.499,14.635-40.577,14.635c-13.669,0-26.826-4.335-37.629-12.307
			C215.26,124.216,215.78,123.508,216.313,122.812z M252.396,15c34.476,0,62.524,27.421,62.524,61.126
			c0,12.84-4.064,25.142-11.588,35.436c-11.722-13.951-29.55-22.298-48.615-22.298c-20.396,0-39.352,9.536-50.956,25.265
			c-8.912-10.806-13.89-24.377-13.89-38.402C189.872,42.421,217.92,15,252.396,15z M93.818,104.264
			c14.697,0,28.373,6.437,37.269,17.149c0.305,0.365,0.618,0.723,0.911,1.098c0.027,0.034,0.05,0.071,0.076,0.105
			c-11.304,9.479-25.499,14.636-40.578,14.636c-13.669,0-26.826-4.335-37.629-12.307C62.532,112.114,77.551,104.264,93.818,104.264z
			 M91.496,15c34.476,0,62.524,27.421,62.524,61.126c0,12.84-4.064,25.141-11.587,35.436c-11.723-13.951-29.55-22.298-48.615-22.298
			c-20.397,0-39.352,9.534-50.957,25.265c-8.912-10.805-13.89-24.377-13.89-38.402C28.971,42.421,57.02,15,91.496,15z
			 M214.767,403.771c0.257-0.38,0.538-0.741,0.806-1.112c0.89-1.229,1.822-2.423,2.825-3.553h-0.006
			c8.902-10.04,22.137-16.016,36.325-16.016c13.603,0,26.33,5.517,35.205,14.829c0.374,0.392,0.751,0.78,1.111,1.185
			c0.393,0.442,0.766,0.902,1.142,1.36c0.237,0.289,0.485,0.569,0.714,0.864c0.029,0.037,0.055,0.077,0.083,0.114
			c-11.304,9.479-25.499,14.636-40.577,14.636C238.728,416.079,225.571,411.743,214.767,403.771z M303.333,390.388
			c-11.722-13.95-29.549-22.297-48.615-22.297c-20.396,0-39.352,9.536-50.956,25.265c-8.912-10.805-13.89-24.377-13.89-38.402
			c0-33.705,28.048-61.126,62.524-61.126c34.476,0,62.524,27.421,62.524,61.126C314.921,367.793,310.856,380.094,303.333,390.388z
			 M447.751,217.824c0.077,0.007,0.153,0.021,0.229,0.03c0.158,0.02,0.316,0.042,0.472,0.072c0.089,0.017,0.176,0.039,0.264,0.059
			c0.14,0.033,0.28,0.067,0.417,0.107c0.09,0.026,0.179,0.055,0.267,0.084c0.132,0.044,0.263,0.093,0.392,0.144
			c0.086,0.034,0.172,0.068,0.256,0.105c0.131,0.058,0.259,0.121,0.385,0.186c0.076,0.039,0.154,0.076,0.229,0.118
			c0.144,0.08,0.283,0.167,0.421,0.256c0.052,0.034,0.107,0.064,0.158,0.099c0.186,0.126,0.365,0.261,0.538,0.403
			c0.047,0.039,0.091,0.082,0.137,0.122c0.124,0.107,0.247,0.216,0.364,0.331c0.062,0.061,0.12,0.125,0.179,0.188
			c0.096,0.101,0.191,0.203,0.281,0.309c0.061,0.071,0.118,0.145,0.176,0.218c0.083,0.104,0.163,0.211,0.24,0.32
			c0.055,0.078,0.109,0.156,0.161,0.236c0.073,0.113,0.143,0.229,0.21,0.345c0.046,0.081,0.094,0.161,0.137,0.243
			c0.067,0.127,0.128,0.258,0.188,0.39c0.035,0.077,0.073,0.151,0.105,0.229c0.074,0.177,0.139,0.359,0.199,0.542
			c0.013,0.039,0.028,0.077,0.041,0.117c0.062,0.2,0.112,0.404,0.157,0.611l-142.495,82.486
			c-14.232-16.703-35.603-27.351-59.464-27.351c-26,0-49.033,12.646-63.104,31.989L41.051,222.095c0.02-0.042,0.04-0.083,0.06-0.125
			c0.118-0.239,0.248-0.47,0.39-0.694c0.027-0.043,0.051-0.088,0.079-0.13c0.171-0.256,0.359-0.5,0.558-0.732
			c0.049-0.058,0.101-0.112,0.152-0.167c0.171-0.188,0.351-0.366,0.54-0.536c0.051-0.045,0.099-0.093,0.151-0.137
			c0.234-0.198,0.479-0.383,0.736-0.552c0.054-0.036,0.112-0.067,0.167-0.101c0.217-0.135,0.442-0.259,0.673-0.372
			c0.071-0.034,0.14-0.07,0.212-0.102c0.284-0.128,0.575-0.241,0.877-0.333c0.042-0.013,0.087-0.021,0.13-0.034
			c0.266-0.076,0.538-0.135,0.815-0.182c0.084-0.014,0.169-0.028,0.255-0.039c0.322-0.042,0.649-0.072,0.983-0.072h399.204
			C447.274,217.788,447.514,217.801,447.751,217.824z M377.28,122.72c0.246-0.319,0.505-0.627,0.76-0.94
			c8.884-10.937,22.701-17.516,37.578-17.516c13.796,0,26.696,5.671,35.586,15.226h-0.001c0.362,0.389,0.715,0.788,1.066,1.187
			c0.376,0.434,0.747,0.871,1.107,1.319c0.137,0.169,0.28,0.333,0.414,0.506c0.029,0.038,0.055,0.078,0.084,0.115
			c-11.303,9.478-25.499,14.635-40.579,14.635c-13.668,0-26.825-4.335-37.629-12.307C376.181,124.185,376.722,123.445,377.28,122.72
			z M413.296,15c34.476,0,62.524,27.421,62.524,61.126c0,12.84-4.064,25.141-11.587,35.436
			c-11.723-13.951-29.551-22.298-48.615-22.298c-20.397,0-39.353,9.536-50.957,25.265c-8.912-10.805-13.89-24.377-13.89-38.402
			C350.771,42.421,378.82,15,413.296,15z"/>
		<path d="M414.558,82.237c13.185,0,23.91-12.693,23.91-28.295s-10.726-28.295-23.91-28.295c-13.184,0-23.909,12.693-23.909,28.295
			S401.375,82.237,414.558,82.237z M414.558,40.646c4.746,0,8.91,6.213,8.91,13.295s-4.164,13.295-8.91,13.295
			c-4.829,0-8.909-6.088-8.909-13.295S409.729,40.646,414.558,40.646z"/>
	</g>
</g>
<g>
</g>
<g>
</g>
<g>
</g>
<g>
</g>
<g>
</g>
<g>
</g>
<g>
</g>
<g>
</g>
<g>
</g>
<g>
</g>
<g>
</g>
<g>
</g>
<g>
</g>
<g>
</g>
<g>
</g>
</svg>
