<?xml version="1.0" encoding="iso-8859-1"?>
<!-- Generator: Adobe Illustrator 21.0.0, SVG Export Plug-In . SVG Version: 6.00 Build 0)  -->
<svg version="1.1" id="Capa_1" xmlns="http://www.w3.org/2000/svg" xmlns:xlink="http://www.w3.org/1999/xlink" x="0px" y="0px"
	 viewBox="0 0 507.207 507.207" style="enable-background:new 0 0 507.207 507.207;" xml:space="preserve">
<g>
	<g>
		<path style="fill:#FFF4F1;" d="M456.52,502.879H50.687c-8.284,0-15-6.716-15-15V151.423c0-8.284,6.716-15,15-15H456.52
			c8.284,0,15,6.716,15,15v336.456C471.52,496.163,464.804,502.879,456.52,502.879z"/>
	</g>
	<g>
		<path style="fill:#DBDEDF;" d="M456.52,133.251h-30c8.284,0,15,6.716,15,15v336.456c0,8.284-6.716,15-15,15h30
			c8.284,0,15-6.716,15-15V148.251C471.52,139.967,464.804,133.251,456.52,133.251z"/>
	</g>
	<g>
		<path style="fill:#5E8EE1;" d="M471.52,176.112v-27.861c0-8.284-6.716-15-15-15H50.687c-8.284,0-15,6.716-15,15v27.861H471.52z"/>
	</g>
	<g>
		<path style="fill:#467BFF;" d="M456.52,133.251h-30c8.284,0,15,6.716,15,15v27.861h30v-27.861
			C471.52,139.967,464.804,133.251,456.52,133.251z"/>
	</g>
	<g>
		<circle style="fill:#467BFF;" cx="248.978" cy="33.941" r="26.441"/>
	</g>
	<g>
		<path style="fill:#F7EC77;" d="M401.928,281.356H157.433V239.2h244.495c8.284,0,15,6.716,15,15v12.156
			C416.928,274.64,410.212,281.356,401.928,281.356z"/>
	</g>
	<g>
		<path style="fill:#F9CD45;" d="M401.928,239.2h-30c8.284,0,15,6.716,15,15v12.156c0,8.284-6.716,15-15,15h30
			c8.284,0,15-6.716,15-15V254.2C416.928,245.916,410.212,239.2,401.928,239.2z"/>
	</g>
	<g>
		<path style="fill:#ACEDED;" d="M261.407,361.807h-88.974c-8.284,0-15-6.716-15-15v-12.156c0-8.284,6.716-15,15-15h88.974
			c8.284,0,15,6.716,15,15v12.156C276.407,355.092,269.691,361.807,261.407,361.807z"/>
	</g>
	<g>
		<path style="fill:#66D6E6;" d="M261.407,319.651h-30c8.284,0,15,6.715,15,15v12.156c0,8.285-6.716,15-15,15h30
			c8.284,0,15-6.715,15-15v-12.156C276.407,326.367,269.691,319.651,261.407,319.651z"/>
	</g>
	<g>
		<path style="fill:#FC9086;" d="M401.928,442.259H284.849c-8.284,0-15-6.716-15-15v-12.156c0-8.284,6.716-15,15-15h117.078
			c8.284,0,15,6.716,15,15v12.156C416.928,435.543,410.212,442.259,401.928,442.259z"/>
	</g>
	<g>
		<path style="fill:#F57A73;" d="M402.382,400.103h-30.454c8.284,0,15,6.716,15,15v12.156c0,8.284-6.716,15-15,15h30.454
			c8.284,0,15-6.716,15-15v-12.156C417.382,406.818,410.666,400.103,402.382,400.103z"/>
	</g>
	<g>
		<circle style="fill:#FFEC56;" cx="102.88" cy="254.356" r="20.579"/>
	</g>
	<g>
		<circle style="fill:#ACEDED;" cx="102.88" cy="340.954" r="20.579"/>
	</g>
	<g>
		<circle style="fill:#FC9086;" cx="102.88" cy="426.946" r="20.579"/>
	</g>
	<g>
		<path d="M456.52,125.751h-36.791l-136.56-92.029l-0.254,0.377c0-0.053,0.004-0.104,0.004-0.157
			C282.919,15.226,267.694,0,248.978,0s-33.941,15.226-33.941,33.941c0,0.757,0.034,1.506,0.083,2.251L82.227,125.751h-31.54
			c-12.406,0-22.5,10.093-22.5,22.5v111.538c0,4.142,3.357,7.5,7.5,7.5s7.5-3.358,7.5-7.5v-76.177h233.22c4.143,0,7.5-3.358,7.5-7.5
			s-3.357-7.5-7.5-7.5H43.187v-20.361c0-4.136,3.364-7.5,7.5-7.5H456.52c4.136,0,7.5,3.364,7.5,7.5v20.361H306.407
			c-4.143,0-7.5,3.358-7.5,7.5s3.357,7.5,7.5,7.5H464.02v301.095c0,4.136-3.364,7.5-7.5,7.5H50.687c-4.136,0-7.5-3.364-7.5-7.5
			V289.789c0-4.142-3.357-7.5-7.5-7.5s-7.5,3.358-7.5,7.5v194.918c0,12.407,10.094,22.5,22.5,22.5H456.52
			c12.406,0,22.5-10.093,22.5-22.5V148.251C479.02,135.844,468.926,125.751,456.52,125.751z M248.978,15
			c10.444,0,18.941,8.497,18.941,18.941s-8.497,18.941-18.941,18.941s-18.941-8.497-18.941-18.941S238.534,15,248.978,15z
			 M219.747,51.163c5.912,9.997,16.798,16.72,29.231,16.72c13.232,0,24.712-7.616,30.307-18.69l113.602,76.558H109.068
			L219.747,51.163z"/>
		<path d="M401.927,392.603H284.849c-12.406,0-22.5,10.093-22.5,22.5v12.156c0,12.407,10.094,22.5,22.5,22.5h117.078
			c12.406,0,22.5-10.093,22.5-22.5v-12.156C424.427,402.696,414.333,392.603,401.927,392.603z M409.427,427.259
			c0,4.136-3.364,7.5-7.5,7.5H284.849c-4.136,0-7.5-3.364-7.5-7.5v-12.156c0-4.136,3.364-7.5,7.5-7.5h117.078
			c4.136,0,7.5,3.364,7.5,7.5V427.259z"/>
		<path d="M156.053,204.409c-4.143,0-7.5,3.358-7.5,7.5v249.14c0,4.142,3.357,7.5,7.5,7.5s7.5-3.358,7.5-7.5v-91.742h97.854
			c12.406,0,22.5-10.093,22.5-22.5v-12.156c0-12.407-10.094-22.5-22.5-22.5h-97.854v-23.295h238.374c12.406,0,22.5-10.093,22.5-22.5
			V254.2c0-12.407-10.094-22.5-22.5-22.5H163.553v-19.791C163.553,207.767,160.196,204.409,156.053,204.409z M164.933,327.151
			h96.474c4.136,0,7.5,3.364,7.5,7.5v12.156c0,4.136-3.364,7.5-7.5,7.5h-96.474V327.151z M164.933,246.7h236.994
			c4.136,0,7.5,3.364,7.5,7.5v12.156c0,4.136-3.364,7.5-7.5,7.5H164.933V246.7z"/>
		<path d="M102.88,282.435c15.482,0,28.079-12.596,28.079-28.079s-12.597-28.08-28.079-28.08s-28.079,12.597-28.079,28.08
			S87.398,282.435,102.88,282.435z M102.88,241.276c7.212,0,13.079,5.868,13.079,13.08s-5.867,13.079-13.079,13.079
			s-13.079-5.867-13.079-13.079S95.668,241.276,102.88,241.276z"/>
		<path d="M102.88,369.033c15.482,0,28.079-12.597,28.079-28.08s-12.597-28.079-28.079-28.079s-28.079,12.596-28.079,28.079
			S87.398,369.033,102.88,369.033z M102.88,327.875c7.212,0,13.079,5.867,13.079,13.079s-5.867,13.08-13.079,13.08
			s-13.079-5.868-13.079-13.08S95.668,327.875,102.88,327.875z"/>
		<path d="M102.88,455.025c15.482,0,28.079-12.596,28.079-28.079s-12.597-28.08-28.079-28.08s-28.079,12.597-28.079,28.08
			S87.398,455.025,102.88,455.025z M102.88,413.867c7.212,0,13.079,5.868,13.079,13.08s-5.867,13.079-13.079,13.079
			s-13.079-5.867-13.079-13.079S95.668,413.867,102.88,413.867z"/>
	</g>
</g>
<g>
</g>
<g>
</g>
<g>
</g>
<g>
</g>
<g>
</g>
<g>
</g>
<g>
</g>
<g>
</g>
<g>
</g>
<g>
</g>
<g>
</g>
<g>
</g>
<g>
</g>
<g>
</g>
<g>
</g>
</svg>
