<?xml version="1.0" encoding="iso-8859-1"?>
<!-- Generator: Adobe Illustrator 21.0.0, SVG Export Plug-In . SVG Version: 6.00 Build 0)  -->
<svg version="1.1" id="Capa_1" xmlns="http://www.w3.org/2000/svg" xmlns:xlink="http://www.w3.org/1999/xlink" x="0px" y="0px"
	 viewBox="0 0 502.1 502.1" style="enable-background:new 0 0 502.1 502.1;" xml:space="preserve">
<g>
	<g>
		<path style="fill:#F7EC77;" d="M343.464,210.441c0-51.039-41.375-92.414-92.414-92.414s-92.414,41.375-92.414,92.414
			c0,42.092,28.143,77.607,66.638,88.766v48.814h51.552v-48.814C315.321,288.049,343.464,252.534,343.464,210.441z"/>
	</g>
	<g>
		<path style="fill:#F9CD45;" d="M251.05,118.027c-5.108,0-10.117,0.421-15,1.218c43.904,7.167,77.414,45.265,77.414,91.196
			c0,42.092-28.143,77.607-66.638,88.766v48.814h30v-48.814c38.495-11.159,66.638-46.674,66.638-88.766
			C343.464,159.402,302.089,118.027,251.05,118.027z"/>
	</g>
	<g>
		<path style="fill:#DBDEDF;" d="M251.074,392.07L251.074,392.07c-14.254,0-25.81-11.555-25.81-25.809v-39.519h51.619v39.519
			C276.883,382.006,265.328,392.07,251.074,392.07z"/>
	</g>
	<g>
		<path style="fill:#D0CFD1;" d="M247.883,326.741v39.519c0,9.662-4.355,17.178-11.01,21.549c4.074,2.69,8.953,4.26,14.2,4.26
			c14.254,0,25.81-10.063,25.81-25.809v-39.519H247.883z"/>
	</g>
	<g>
		<path style="fill:#F9CD45;" d="M284.075,214.315c0,34.248-34.383,62.012-34.383,62.012s-34.383-27.764-34.383-62.012
			s34.383-62.012,34.383-62.012S284.075,180.067,284.075,214.315z"/>
	</g>
	<g>
		<path style="fill:#F8B53C;" d="M249.693,152.303c0,0-7.194,5.82-15,15.4c9.261,11.365,19.383,28.028,19.383,46.612
			c0,18.584-10.122,35.247-19.383,46.612c7.806,9.58,15,15.4,15,15.4s34.383-27.764,34.383-62.012
			C284.075,180.067,249.693,152.303,249.693,152.303z"/>
	</g>
	<g>
		<g>
			<path style="fill:#ACEDED;" d="M84.642,106.762c19.332,0,36.153,10.182,44.868,25.209c11.349-11.525,18.342-27.196,18.342-44.477
				c0-35.386-29.271-64.073-65.378-64.073S17.096,52.107,17.096,87.493c0,18.772,8.239,35.657,21.364,47.376
				c0.306-0.937,0.717-1.867,1.242-2.778C48.397,116.997,65.258,106.762,84.642,106.762z"/>
		</g>
		<g>
			<path style="fill:#FFF4F1;" d="M129.51,131.971c-8.715-15.027-25.536-25.209-44.868-25.209c-19.384,0-36.245,10.235-44.94,25.329
				c-0.525,0.911-0.936,1.841-1.242,2.778c11.617,10.372,27.061,16.697,44.014,16.697
				C100.949,151.566,117.62,144.045,129.51,131.971z"/>
		</g>
		<g>
			<path style="fill:#D0CFD1;" d="M84.642,106.762c-5.221,0-10.256,0.749-15,2.128c7.493,2.18,14.255,5.947,19.851,10.891
				c6.791,5.999,5.953,16.796-1.714,21.624c-6.152,3.874-13.009,6.764-20.341,8.45c4.828,1.114,9.86,1.71,15.036,1.71
				c18.474,0,35.146-7.521,47.036-19.595C120.795,116.943,103.974,106.762,84.642,106.762z"/>
		</g>
		<g>
			<ellipse style="fill:#FFD4C6;" cx="83.653" cy="66.781" rx="15.321" ry="19.416"/>
		</g>
		<g>
			<g>
				<path style="fill:#66D6E6;" d="M82.474,23.421c-5.164,0-10.181,0.605-15,1.714c28.874,6.646,50.378,32.033,50.378,62.358
					c0,9.546-2.143,18.595-5.966,26.731c7.338,4.394,13.424,10.505,17.623,17.746c11.349-11.525,18.342-27.196,18.342-44.477
					C147.853,52.107,118.582,23.421,82.474,23.421z"/>
			</g>
		</g>
	</g>
	<g>
		<g>
			<path style="fill:#5E8EE1;" d="M425.6,106.762c19.332,0,36.153,10.182,44.868,25.209c11.349-11.525,18.342-27.196,18.342-44.477
				c0-35.386-29.271-64.073-65.378-64.073s-65.378,28.686-65.378,64.073c0,18.772,8.239,35.657,21.364,47.376
				c0.306-0.937,0.717-1.867,1.242-2.778C389.355,116.997,406.217,106.762,425.6,106.762z"/>
		</g>
		<g>
			<path style="fill:#FFF4F1;" d="M470.468,131.971c-8.715-15.027-25.536-25.209-44.868-25.209
				c-19.384,0-36.245,10.235-44.94,25.329c-0.525,0.911-0.936,1.841-1.242,2.778c11.617,10.372,27.061,16.697,44.014,16.697
				C441.907,151.566,458.578,144.045,470.468,131.971z"/>
		</g>
		<g>
			<path style="fill:#D0CFD1;" d="M425.6,106.762c-5.221,0-10.256,0.749-15,2.128c7.493,2.18,14.255,5.947,19.851,10.891
				c6.791,5.999,5.953,16.796-1.714,21.624c-6.152,3.874-13.009,6.764-20.341,8.45c4.828,1.114,9.86,1.71,15.036,1.71
				c18.474,0,35.146-7.521,47.036-19.595C461.753,116.943,444.932,106.762,425.6,106.762z"/>
		</g>
		<g>
			<ellipse style="fill:#FFD4C6;" cx="424.611" cy="66.781" rx="15.321" ry="19.416"/>
		</g>
		<g>
			<g>
				<path style="fill:#467BFF;" d="M423.433,23.421c-5.164,0-10.181,0.605-15,1.714c28.874,6.646,50.378,32.033,50.378,62.358
					c0,9.546-2.143,18.595-5.966,26.731c7.338,4.394,13.424,10.505,17.623,17.746c11.349-11.525,18.342-27.196,18.342-44.477
					C488.811,52.107,459.54,23.421,423.433,23.421z"/>
			</g>
		</g>
	</g>
	<g>
		<g>
			<path style="fill:#5E8EE1;" d="M84.642,445.601c19.332,0,36.153,10.182,44.868,25.209c11.349-11.525,18.342-27.196,18.342-44.477
				c0-35.386-29.271-64.073-65.378-64.073s-65.378,28.686-65.378,64.073c0,18.772,8.239,35.657,21.364,47.376
				c0.306-0.937,0.717-1.867,1.242-2.778C48.397,455.836,65.258,445.601,84.642,445.601z"/>
		</g>
		<g>
			<path style="fill:#FFF4F1;" d="M129.51,470.809c-8.715-15.027-25.536-25.209-44.868-25.209c-19.384,0-36.245,10.236-44.94,25.329
				c-0.525,0.911-0.936,1.841-1.242,2.778c11.617,10.372,27.061,16.697,44.014,16.697
				C100.949,490.405,117.62,482.884,129.51,470.809z"/>
		</g>
		<g>
			<path style="fill:#D0CFD1;" d="M84.642,445.601c-5.221,0-10.256,0.749-15,2.128c7.493,2.18,14.255,5.947,19.851,10.891
				c6.791,5.999,5.953,16.796-1.714,21.624c-6.152,3.874-13.009,6.764-20.341,8.45c4.828,1.114,9.86,1.71,15.036,1.71
				c18.474,0,35.146-7.521,47.036-19.595C120.795,455.782,103.974,445.601,84.642,445.601z"/>
		</g>
		<g>
			<ellipse style="fill:#FFD4C6;" cx="83.653" cy="405.62" rx="15.321" ry="19.416"/>
		</g>
		<g>
			<g>
				<path style="fill:#467BFF;" d="M82.474,362.26c-5.164,0-10.181,0.605-15,1.714c28.874,6.646,50.378,32.033,50.378,62.358
					c0,9.546-2.143,18.595-5.966,26.731c7.338,4.394,13.424,10.505,17.623,17.746c11.349-11.525,18.342-27.196,18.342-44.477
					C147.853,390.946,118.582,362.26,82.474,362.26z"/>
			</g>
		</g>
	</g>
	<path style="fill:#ACEDED;" d="M425.6,445.601c19.332,0,36.153,10.182,44.868,25.209c11.349-11.525,18.342-27.196,18.342-44.477
		c0-35.386-29.271-64.073-65.378-64.073s-65.378,28.686-65.378,64.073c0,18.772,8.239,35.657,21.364,47.376
		c0.306-0.937,0.717-1.867,1.242-2.778C389.355,455.836,406.217,445.601,425.6,445.601z"/>
	<path style="fill:#FFF4F1;" d="M470.468,470.809c-8.715-15.027-25.536-25.209-44.868-25.209c-19.384,0-36.245,10.236-44.94,25.329
		c-0.525,0.911-0.936,1.841-1.242,2.778c11.617,10.372,27.061,16.697,44.014,16.697
		C441.907,490.405,458.578,482.884,470.468,470.809z"/>
	<path style="fill:#D0CFD1;" d="M425.6,445.601c-5.221,0-10.256,0.749-15,2.128c7.493,2.18,14.255,5.947,19.851,10.891
		c6.791,5.999,5.953,16.796-1.714,21.624c-6.152,3.874-13.009,6.764-20.341,8.45c4.828,1.114,9.86,1.71,15.036,1.71
		c18.474,0,35.146-7.521,47.036-19.595C461.753,455.782,444.932,445.601,425.6,445.601z"/>
	<ellipse style="fill:#FFD4C6;" cx="424.611" cy="405.62" rx="15.321" ry="19.416"/>
	<path style="fill:#66D6E6;" d="M423.433,362.26c-5.164,0-10.181,0.605-15,1.714c28.874,6.646,50.378,32.033,50.378,62.358
		c0,9.546-2.143,18.595-5.966,26.731c7.338,4.394,13.424,10.505,17.623,17.746c11.349-11.525,18.342-27.196,18.342-44.477
		C488.811,390.946,459.54,362.26,423.433,362.26z"/>
	<path d="M83.653,93.697c12.583,0,22.821-12.074,22.821-26.916S96.237,39.866,83.653,39.866S60.833,51.94,60.833,66.782
		S71.07,93.697,83.653,93.697z M83.653,54.866c3.699,0,7.821,4.894,7.821,11.916c0,7.022-4.122,11.916-7.821,11.916
		s-7.821-4.894-7.821-11.916C75.833,59.759,79.954,54.866,83.653,54.866z"/>
	<path d="M31.37,138.492c-0.01,0.025-0.02,0.05-0.03,0.075l2.12,1.893c0.002,0.002,0.003,0.003,0.005,0.005
		c0.002,0.002,0.004,0.003,0.006,0.005c13.435,11.992,30.837,18.597,49.003,18.597c19.912,0,38.512-7.753,52.375-21.829
		c0.001-0.001,0.003-0.002,0.004-0.004c0.002-0.002,0.003-0.004,0.005-0.005l4.009-4.071l-0.129-0.222
		c10.742-12.792,16.613-28.714,16.613-45.441c0-39.465-32.693-71.573-72.878-71.573c-40.186,0-72.878,32.107-72.878,71.573
		C9.596,106.662,17.507,125.08,31.37,138.492z M48.036,132.963c0.415-0.599,0.836-1.192,1.281-1.767
		c0.129-0.167,0.266-0.327,0.398-0.491c0.381-0.478,0.773-0.946,1.174-1.405c0.23-0.263,0.462-0.523,0.698-0.78
		c0.338-0.368,0.686-0.727,1.037-1.083c0.232-0.235,0.458-0.476,0.695-0.706h-0.003c8.119-7.864,19.355-12.469,31.327-12.469
		c11.963,0,23.205,4.606,31.326,12.469h-0.015c1.078,1.044,2.091,2.154,3.056,3.307c0.219,0.263,0.448,0.518,0.661,0.787
		c-10.403,8.578-23.4,13.241-37.196,13.241C69.987,144.066,57.961,140.158,48.036,132.963z M82.475,30.921
		c31.914,0,57.878,25.378,57.878,56.573c0,11.669-3.628,22.857-10.353,32.278c-11.042-12.845-27.631-20.51-45.358-20.51
		c-18.979,0-36.634,8.771-47.592,23.277c-7.995-9.918-12.454-22.28-12.454-35.046C24.596,56.299,50.561,30.921,82.475,30.921z"/>
	<path d="M424.611,93.697c12.583,0,22.821-12.074,22.821-26.916s-10.237-26.916-22.821-26.916s-22.821,12.074-22.821,26.916
		S412.028,93.697,424.611,93.697z M424.611,54.866c3.699,0,7.821,4.894,7.821,11.916c0,7.022-4.122,11.916-7.821,11.916
		s-7.821-4.894-7.821-11.916C416.791,59.759,420.912,54.866,424.611,54.866z"/>
	<path d="M370.835,137l-0.066,0.202l3.649,3.258c0.002,0.002,0.003,0.003,0.005,0.005c0.002,0.002,0.004,0.003,0.006,0.005
		c13.435,11.992,30.837,18.597,49.003,18.597c19.912,0,38.512-7.753,52.375-21.829c0.001-0.001,0.003-0.002,0.004-0.004
		c0.002-0.002,0.003-0.004,0.005-0.005l4.009-4.071l-0.129-0.222c10.742-12.792,16.613-28.714,16.613-45.441
		c0-39.465-32.693-71.573-72.878-71.573c-40.186,0-72.878,32.107-72.878,71.573C350.554,105.961,357.901,123.731,370.835,137z
		 M388.994,132.963c0.274-0.396,0.559-0.782,0.846-1.167c0.206-0.276,0.402-0.559,0.615-0.83c0.402-0.512,0.826-1.005,1.25-1.497
		c0.173-0.2,0.336-0.411,0.512-0.608c8.216-9.158,20.366-14.6,33.383-14.6c12.999,0,25.148,5.436,33.366,14.584h-0.004
		c0.163,0.181,0.312,0.374,0.472,0.558c0.405,0.467,0.809,0.936,1.193,1.422c-10.403,8.578-23.4,13.241-37.196,13.241
		C410.945,144.066,398.919,140.158,388.994,132.963z M423.433,30.921c31.914,0,57.878,25.378,57.878,56.573
		c0,11.669-3.628,22.857-10.353,32.278c-11.042-12.845-27.631-20.51-45.357-20.51c-18.98,0-36.634,8.771-47.593,23.277
		c-7.995-9.918-12.454-22.28-12.454-35.046C365.554,56.299,391.519,30.921,423.433,30.921z"/>
	<path d="M138.739,471.773c10.742-12.792,16.613-28.714,16.613-45.441c0-39.465-32.693-71.573-72.878-71.573
		c-16.675,0-32.049,5.541-44.343,14.829c-0.004,0.002-0.008,0.004-0.012,0.006c-0.505,0.303-0.956,0.661-1.361,1.054
		C20.208,383.78,9.596,403.858,9.596,426.332c0,18.468,7.347,36.237,20.281,49.506l-0.066,0.202l3.649,3.258
		c0.002,0.002,0.003,0.003,0.005,0.005c0.002,0.002,0.004,0.003,0.006,0.005c13.435,11.992,30.837,18.597,49.003,18.597
		c19.912,0,38.512-7.752,52.375-21.829c0.001-0.001,0.003-0.002,0.004-0.004c0.002-0.002,0.003-0.004,0.005-0.005l4.009-4.071
		L138.739,471.773z M82.475,369.76c31.914,0,57.878,25.378,57.878,56.573c0,11.669-3.628,22.857-10.353,32.278
		c-11.042-12.845-27.631-20.51-45.358-20.51c-18.979,0-36.634,8.771-47.592,23.277c-7.995-9.918-12.454-22.28-12.454-35.046
		C24.596,395.138,50.561,369.76,82.475,369.76z M48.036,471.802c0.294-0.425,0.6-0.841,0.909-1.254
		c0.606-0.801,1.231-1.587,1.889-2.343h0c8.218-9.457,20.559-15.104,33.809-15.104c13.91,0,26.841,6.229,35.028,16.563
		c-10.403,8.578-23.4,13.241-37.196,13.241C69.987,482.905,57.961,478.997,48.036,471.802z"/>
	<path d="M83.653,432.536c12.583,0,22.821-12.074,22.821-26.916s-10.237-26.916-22.821-26.916s-22.821,12.074-22.821,26.916
		S71.07,432.536,83.653,432.536z M83.653,393.705c3.699,0,7.821,4.894,7.821,11.916c0,7.022-4.122,11.916-7.821,11.916
		s-7.821-4.894-7.821-11.916C75.833,398.598,79.954,393.705,83.653,393.705z"/>
	<path d="M447.432,405.62c0-14.841-10.237-26.916-22.821-26.916s-22.821,12.074-22.821,26.916s10.237,26.916,22.821,26.916
		S447.432,420.462,447.432,405.62z M416.791,405.62c0-7.022,4.122-11.916,7.821-11.916s7.821,4.894,7.821,11.916
		c0,7.022-4.122,11.916-7.821,11.916S416.791,412.642,416.791,405.62z"/>
	<path d="M423.433,354.76c-16.627,0-32.286,5.356-45.282,15.489c-3.267,2.547-3.85,7.26-1.303,10.526
		c2.547,3.266,7.258,3.85,10.526,1.303c10.336-8.059,22.806-12.319,36.06-12.319c31.914,0,57.878,25.378,57.878,56.573
		c0,11.669-3.628,22.857-10.353,32.278c-11.042-12.845-27.631-20.51-45.357-20.51c-18.98,0-36.634,8.771-47.593,23.277
		c-7.995-9.918-12.454-22.28-12.454-35.046c0-8.206,1.755-16.116,5.218-23.511c1.756-3.751,0.139-8.216-3.612-9.972
		c-3.752-1.757-8.216-0.139-9.973,3.613c-4.401,9.401-6.633,19.451-6.633,29.871c0,14.843,4.748,29.236,13.322,41.206
		c0.139,0.217,0.28,0.43,0.437,0.628c1.975,2.696,4.163,5.253,6.522,7.672l-0.066,0.202l3.649,3.258
		c0.002,0.002,0.003,0.003,0.005,0.005c0.002,0.002,0.004,0.003,0.006,0.005c13.435,11.992,30.837,18.597,49.003,18.597
		c19.912,0,38.512-7.752,52.375-21.829c0.001-0.001,0.003-0.002,0.004-0.004c0.002-0.002,0.003-0.004,0.005-0.005l4.009-4.071
		l-0.129-0.222c10.742-12.792,16.613-28.714,16.613-45.441C496.311,386.867,463.618,354.76,423.433,354.76z M388.994,471.802
		c0.165-0.238,0.339-0.468,0.509-0.702c0.381-0.524,0.761-1.049,1.167-1.552c0.135-0.169,0.278-0.331,0.415-0.497
		c0.523-0.629,1.055-1.25,1.61-1.849c8.206-8.85,20.132-14.101,32.906-14.101c12.757,0,24.684,5.247,32.891,14.088
		c0.283,0.304,0.56,0.614,0.835,0.924c0.444,0.508,0.882,1.021,1.302,1.551c-10.403,8.578-23.4,13.241-37.196,13.241
		C410.945,482.905,398.919,478.997,388.994,471.802z"/>
	<path d="M251.05,110.527c-17.85,0-35.371,4.766-50.669,13.784c-3.568,2.103-4.756,6.701-2.652,10.27
		c2.104,3.568,6.701,4.757,10.27,2.652c12.991-7.658,27.878-11.706,43.052-11.706c46.822,0,84.914,38.092,84.914,84.914
		c0,37.573-25.177,71.113-61.226,81.563c-3.206,0.929-5.412,3.865-5.412,7.203v20.034h-36.553v-20.034
		c0-3.338-2.206-6.274-5.412-7.203c-36.049-10.45-61.226-43.99-61.226-81.563c0-20.118,7.161-39.629,20.164-54.938
		c2.682-3.157,2.296-7.89-0.861-10.572c-3.156-2.681-7.89-2.296-10.571,0.861c-15.304,18.018-23.731,40.977-23.731,64.649
		c0,22.083,7.061,43.015,20.42,60.531c11.77,15.433,28.026,27.249,46.218,33.696v14.616h-0.331c-4.142,0-7.5,3.358-7.5,7.5
		s3.358,7.5,7.5,7.5h0.321v12.855h-0.321c-4.142,0-7.5,3.358-7.5,7.5s3.358,7.5,7.5,7.5h0.321v4.119
		c0,18.367,14.942,33.31,33.31,33.31c19.301,0,33.31-14.009,33.31-33.31v-4.119h0.272c4.142,0,7.5-3.358,7.5-7.5s-3.358-7.5-7.5-7.5
		h-0.272v-12.855h0.272c4.142,0,7.5-3.358,7.5-7.5s-3.358-7.5-7.5-7.5h-0.329v-14.616c18.192-6.448,34.448-18.263,46.218-33.696
		c13.359-17.517,20.42-38.448,20.42-60.531C350.964,155.349,306.143,110.527,251.05,110.527z M269.383,366.26
		c0,12.648-9.196,18.31-18.31,18.31c-10.096,0-18.31-8.214-18.31-18.31v-4.119h36.619V366.26z M269.383,347.141h-36.619v-12.855
		h36.619V347.141z"/>
	<path d="M244.98,282.162c1.375,1.11,3.043,1.665,4.712,1.665c1.668,0,3.337-0.555,4.712-1.665
		c1.518-1.226,37.171-30.445,37.171-67.847s-35.653-66.621-37.171-67.847c-2.749-2.22-6.675-2.22-9.424,0
		c-1.518,1.226-37.17,30.445-37.17,67.847C207.81,251.717,243.463,280.936,244.98,282.162z M249.692,162.431
		c8.813,8.572,26.883,28.948,26.883,51.884c0,17.477-10.491,33.461-19.383,43.874v-28.525c0-4.142-3.358-7.5-7.5-7.5
		s-7.5,3.358-7.5,7.5v28.568c-8.892-10.388-19.382-26.36-19.382-43.917C222.81,191.378,240.884,171,249.692,162.431z"/>
	<g>
		<g>
			<path d="M150.44,29.065c-1.59-3.83,0.21-8.22,4.04-9.81l0,0c3.82-1.6,8.21,0.21,9.81,4.03l0,0c1.59,3.83-0.22,8.22-4.04,9.81l0,0
				c-0.94,0.39-1.92,0.58-2.88,0.58l0,0C154.43,33.675,151.64,31.935,150.44,29.065z M341.57,32.975L341.57,32.975
				c-3.83-1.59-5.64-5.98-4.05-9.8l0,0c1.59-3.82,5.98-5.64,9.81-4.05l0,0l0,0l0,0c3.82,1.59,5.63,5.98,4.04,9.81l0,0
				c-1.2,2.88-3.99,4.62-6.93,4.62l0,0C343.49,33.555,342.51,33.375,341.57,32.975z M180.38,17.795c-1.08-4,1.29-8.12,5.29-9.2l0,0
				c0,0,0,0,0,0.01l0,0c4-1.08,8.12,1.29,9.19,5.29l0,0c1.08,4-1.29,8.11-5.29,9.19l0,0c-0.65,0.18-1.31,0.26-1.95,0.26l0,0
				C184.31,23.345,181.28,21.135,180.38,17.795z M312.23,23.005c-4-1.07-6.37-5.18-5.3-9.18l0,0c1.07-4,5.18-6.38,9.18-5.31l0,0
				c4,1.07,6.38,5.18,5.31,9.18l0,0c-0.9,3.36-3.93,5.57-7.24,5.57l0,0C313.53,23.265,312.88,23.175,312.23,23.005z M211.54,10.575
				c-0.54-4.11,2.35-7.88,6.46-8.42l0,0l0,0l0,0c4.11-0.54,7.87,2.35,8.41,6.46l0,0c0.54,4.11-2.35,7.87-6.45,8.42l0,0
				c-0.34,0.04-0.67,0.06-0.99,0.06l0,0C215.26,17.095,212.04,14.345,211.54,10.575z M281.83,16.995c-4.11-0.54-7-4.3-6.47-8.41l0,0
				c0.54-4.11,4.3-7,8.41-6.47l0,0c4.11,0.53,7,4.3,6.47,8.41l0,0c-0.49,3.78-3.72,6.53-7.43,6.53l0,0
				C282.49,17.055,282.16,17.035,281.83,16.995z M243.39,7.505c-0.01-4.14,3.35-7.5,7.49-7.5l0,0c4.14-0.01,7.5,3.35,7.51,7.49l0,0
				c0,4.14-3.36,7.5-7.5,7.51l0,0C246.75,15.005,243.39,11.645,243.39,7.505z"/>
		</g>
		<g>
			<path d="M243.71,494.605c0-4.15,3.36-7.51,7.5-7.51l0,0c4.14,0,7.5,3.35,7.5,7.49l0,0c0.01,4.15-3.35,7.51-7.49,7.51l0,0
				C247.08,502.095,243.72,498.745,243.71,494.605z M218.33,499.985c-4.11-0.54-7-4.3-6.47-8.41l0,0c0.54-4.11,4.3-7,8.41-6.47l0,0
				c4.1,0.54,7,4.3,6.47,8.41l0,0c-0.5,3.78-3.72,6.53-7.43,6.53l0,0C218.99,500.045,218.66,500.025,218.33,499.985z
				 M275.69,493.485c-0.54-4.11,2.35-7.88,6.45-8.42l0,0c4.11-0.54,7.88,2.35,8.42,6.46l0,0c0.54,4.11-2.35,7.87-6.46,8.41l0,0
				c-0.33,0.05-0.66,0.07-0.99,0.07l0,0C279.4,500.005,276.18,497.255,275.69,493.485z M185.99,493.585c-4-1.07-6.38-5.19-5.31-9.19
				l0,0c1.07-4,5.19-6.38,9.19-5.3l0,0c4,1.07,6.37,5.18,5.3,9.18l0,0c-0.89,3.35-3.93,5.56-7.24,5.56l0,0
				C187.29,493.835,186.64,493.755,185.99,493.585z M307.24,488.205c-1.08-4,1.29-8.12,5.29-9.19l0,0c4-1.08,8.11,1.29,9.19,5.29
				l0,0c1.08,4-1.29,8.11-5.29,9.19l0,0c-0.66,0.18-1.31,0.26-1.96,0.26l0,0C311.17,493.755,308.14,491.545,307.24,488.205z
				 M154.77,482.965c-3.82-1.59-5.63-5.97-4.04-9.8l0,0c1.59-3.82,5.97-5.64,9.8-4.05l0,0c3.83,1.59,5.64,5.98,4.05,9.81l0,0
				c-1.2,2.88-3.99,4.62-6.93,4.62l0,0C156.69,483.545,155.71,483.365,154.77,482.965z M337.81,478.815
				c-1.59-3.83,0.22-8.22,4.04-9.81l0,0c3.82-1.6,8.21,0.21,9.81,4.03l0,0c1.59,3.82-0.21,8.22-4.04,9.81l0,0
				c-0.94,0.39-1.92,0.58-2.88,0.58l0,0C341.8,483.425,339.02,481.695,337.81,478.815z"/>
		</g>
		<g>
			<path d="M473.17,351.375c-3.83-1.59-5.64-5.98-4.05-9.81l0,0c1.59-3.82,5.98-5.63,9.8-4.04l0,0c3.83,1.59,5.64,5.97,4.05,9.8l0,0
				c-1.2,2.88-3.99,4.62-6.93,4.62l0,0C475.08,351.945,474.11,351.765,473.17,351.375z M484.4,321.415c-4-1.07-6.38-5.18-5.31-9.18
				l0,0c1.07-4,5.18-6.38,9.19-5.31l0,0c4,1.07,6.37,5.18,5.3,9.18l0,0c-0.9,3.36-3.93,5.57-7.24,5.57l0,0
				C485.7,321.675,485.05,321.585,484.4,321.415z M491.58,290.235c-4.11-0.53-7.01-4.3-6.47-8.4l0,0c0.53-4.11,4.3-7.01,8.4-6.47
				l0,0c4.11,0.53,7.01,4.3,6.47,8.4l0,0c-0.49,3.78-3.72,6.54-7.43,6.54l0,0C492.23,290.305,491.9,290.285,491.58,290.235z
				 M487.1,250.895c-0.01-4.15,3.35-7.51,7.49-7.51l0,0c4.14,0,7.5,3.35,7.51,7.49l0,0c0,4.15-3.36,7.51-7.5,7.51l0,0
				C490.46,258.385,487.1,255.035,487.1,250.895z M485.07,219.955c-0.54-4.11,2.35-7.87,6.46-8.41l0,0c4.1-0.54,7.87,2.35,8.41,6.45
				l0,0c0.54,4.11-2.35,7.88-6.46,8.42l0,0c-0.33,0.04-0.66,0.06-0.98,0.06l0,0C488.79,226.475,485.56,223.735,485.07,219.955z
				 M479.01,189.565c-1.07-4,1.3-8.11,5.3-9.19l0,0c4-1.07,8.11,1.3,9.19,5.3l0,0c1.07,4-1.3,8.11-5.3,9.19l0,0
				c-0.65,0.17-1.3,0.26-1.95,0.26l0,0C482.94,195.125,479.91,192.915,479.01,189.565z M469,160.245L469,160.245
				c-1.59-3.82,0.22-8.21,4.04-9.8l0,0c3.82-1.6,8.21,0.21,9.81,4.03l0,0l0,0l0,0c1.59,3.82-0.21,8.21-4.04,9.81l0,0
				c-0.94,0.39-1.92,0.58-2.88,0.58l0,0C472.99,164.865,470.2,163.125,469,160.245z"/>
		</g>
		<g>
			<path d="M19.25,347.625L19.25,347.625L19.25,347.625c-1.59-3.83,0.21-8.22,4.04-9.81l0,0c3.82-1.6,8.21,0.21,9.81,4.03l0,0
				c1.59,3.83-0.21,8.22-4.04,9.81l0,0c-0.94,0.4-1.92,0.58-2.88,0.58l0,0C23.24,352.235,20.45,350.505,19.25,347.625z M8.6,316.425
				c-1.07-4,1.3-8.12,5.3-9.19l0,0c4-1.08,8.11,1.29,9.19,5.29l0,0c1.07,4-1.3,8.12-5.3,9.19l0,0c-0.65,0.18-1.3,0.26-1.95,0.26l0,0
				C12.53,321.975,9.5,319.775,8.6,316.425z M2.16,284.095c-0.54-4.1,2.35-7.87,6.46-8.41l0,0c4.1-0.54,7.87,2.35,8.41,6.46l0,0
				c0.54,4.1-2.35,7.87-6.46,8.41l0,0c-0.33,0.04-0.66,0.07-0.99,0.07l0,0C5.88,290.615,2.66,287.875,2.16,284.095z M0,251.215
				c0-4.14,3.36-7.5,7.5-7.5l0,0c4.14-0.01,7.5,3.35,7.5,7.49l0,0c0.01,4.14-3.35,7.5-7.49,7.51l0,0
				C3.37,258.715,0.01,255.355,0,251.215z M8.59,226.735c-4.11-0.54-7.01-4.3-6.47-8.41l0,0c0.53-4.1,4.29-7,8.4-6.47l0,0
				c4.11,0.54,7.01,4.3,6.47,8.41l0,0c-0.49,3.78-3.71,6.53-7.42,6.53l0,0C9.24,226.795,8.92,226.775,8.59,226.735z M13.82,195.175
				c-4-1.07-6.37-5.19-5.3-9.19l0,0c1.07-4,5.18-6.37,9.18-5.3l0,0c4,1.07,6.38,5.18,5.31,9.18l0,0c-0.9,3.35-3.93,5.56-7.24,5.56
				l0,0C15.13,195.425,14.47,195.345,13.82,195.175z M23.18,164.575c-3.83-1.59-5.64-5.98-4.05-9.8l0,0
				c1.59-3.83,5.98-5.64,9.8-4.05l0,0c3.83,1.59,5.64,5.98,4.05,9.8l0,0c-1.2,2.89-3.99,4.63-6.93,4.63l0,0
				C25.09,165.155,24.12,164.965,23.18,164.575z"/>
		</g>
	</g>
</g>
<g>
</g>
<g>
</g>
<g>
</g>
<g>
</g>
<g>
</g>
<g>
</g>
<g>
</g>
<g>
</g>
<g>
</g>
<g>
</g>
<g>
</g>
<g>
</g>
<g>
</g>
<g>
</g>
<g>
</g>
</svg>
