<?xml version="1.0" encoding="iso-8859-1"?>
<!-- Generator: Adobe Illustrator 21.0.0, SVG Export Plug-In . SVG Version: 6.00 Build 0)  -->
<svg version="1.1" id="Capa_1" xmlns="http://www.w3.org/2000/svg" xmlns:xlink="http://www.w3.org/1999/xlink" x="0px" y="0px"
	 viewBox="0 0 507.135 507.135" style="enable-background:new 0 0 507.135 507.135;" xml:space="preserve">
<g>
	<g>
		<path style="fill:#DC8839;" d="M489.895,397.731l-0.108-6.635c-0.068-22.611-18.623-41.055-41.234-40.987h0
			c-22.611,0.068-41.055,18.623-40.987,41.234l0,0.108h-0.001l0.108,6.635c0.068,22.611,18.623,41.055,41.234,40.987h0
			c22.611-0.068,41.055-18.623,40.987-41.234L489.895,397.731L489.895,397.731z"/>
	</g>
	<g>
		<path style="fill:#BE7511;" d="M489.895,397.731l-0.108-6.635c-0.068-22.611-18.623-41.055-41.234-40.987h0
			c-5.245,0.016-10.26,1.037-14.878,2.862c15.205,6.01,26.06,20.845,26.112,38.125l0.108,6.635h0l0,0.108
			c0.052,17.366-10.821,32.329-26.11,38.372c4.691,1.854,9.791,2.878,15.122,2.862h0c22.611-0.068,41.055-18.623,40.987-41.234
			L489.895,397.731L489.895,397.731z"/>
	</g>
	<g>
		<path style="fill:#DC8839;" d="M359.786,397.731l-0.108-6.635c-0.068-22.611-18.623-41.055-41.234-40.987h0
			c-22.611,0.068-41.055,18.623-40.987,41.234l0,0.108h-0.001l0.108,6.635c0.068,22.611,18.623,41.055,41.234,40.987h0
			c22.611-0.068,41.055-18.623,40.987-41.234L359.786,397.731L359.786,397.731z"/>
	</g>
	<g>
		<path style="fill:#BE7511;" d="M359.802,397.587l-0.142-6.635c-0.183-22.61-18.832-40.96-41.442-40.777h0
			c-5.245,0.042-10.255,1.089-14.863,2.938c15.236,5.932,26.166,20.712,26.306,37.992l0.142,6.635h0l0.001,0.108
			c0.141,17.365-10.656,32.383-25.914,38.504c4.7,1.83,9.806,2.828,15.136,2.785h0c22.61-0.183,40.96-18.832,40.777-41.442
			L359.802,397.587L359.802,397.587z"/>
	</g>
	<g>
		<path style="fill:#DC8839;" d="M229.677,397.731l-0.108-6.635c-0.068-22.611-18.623-41.055-41.234-40.987h0
			c-22.611,0.068-41.055,18.623-40.987,41.234l0,0.108h-0.001l0.108,6.635c0.068,22.611,18.623,41.055,41.234,40.987h0
			c22.611-0.068,41.055-18.623,40.987-41.234L229.677,397.731L229.677,397.731z"/>
	</g>
	<g>
		<path style="fill:#BE7511;" d="M229.677,397.731l-0.108-6.635c-0.068-22.611-18.623-41.055-41.234-40.987h0
			c-5.245,0.016-10.26,1.037-14.878,2.862c15.205,6.01,26.06,20.845,26.112,38.125l0.108,6.635h-0.001l0,0.108
			c0.052,17.366-10.821,32.329-26.11,38.372c4.691,1.854,9.791,2.878,15.122,2.862h0c22.611-0.068,41.055-18.623,40.987-41.234
			L229.677,397.731L229.677,397.731z"/>
	</g>
	<g>
		<path style="fill:#DC8839;" d="M99.569,397.731l-0.108-6.635c-0.068-22.611-18.623-41.055-41.234-40.987h0
			c-22.611,0.068-41.055,18.623-40.987,41.234l0,0.108h-0.001l0.108,6.635c0.068,22.611,18.623,41.055,41.234,40.987h0
			c22.611-0.068,41.055-18.623,40.987-41.234L99.569,397.731L99.569,397.731z"/>
	</g>
	<g>
		<path style="fill:#BE7511;" d="M99.569,397.731l-0.108-6.635c-0.068-22.611-18.623-41.055-41.234-40.987h0
			c-5.245,0.016-10.26,1.037-14.878,2.862c15.205,6.01,26.06,20.845,26.112,38.125l0.108,6.635h-0.001l0,0.108
			c0.052,17.366-10.821,32.329-26.11,38.372c4.691,1.854,9.791,2.878,15.122,2.862h0c22.611-0.068,41.055-18.623,40.987-41.234
			L99.569,397.731L99.569,397.731z"/>
	</g>
	<g>
		<path style="fill:#FFD4C6;" d="M369.249,499.634V459.65c0-21.297-17.425-38.722-38.722-38.722h-23.811
			c-21.297,0-38.722,17.425-38.722,38.722v39.985H369.249z"/>
	</g>
	<g>
		<path style="fill:#FDA8A1;" d="M330.527,420.928h-23.811c-1.042,0-2.072,0.054-3.095,0.136
			c19.863,1.591,35.627,18.332,35.627,38.586v39.985h30V459.65C369.249,438.353,351.824,420.928,330.527,420.928z"/>
	</g>
	<g>
		<path style="fill:#FFEC56;" d="M239.14,499.634V459.65c0-21.297-17.425-38.722-38.722-38.722h-23.811
			c-21.297,0-38.722,17.425-38.722,38.722v39.985H239.14z"/>
	</g>
	<g>
		<path style="fill:#F9CD45;" d="M200.418,420.928h-23.811c-1.042,0-2.072,0.054-3.095,0.136
			c19.863,1.591,35.627,18.332,35.627,38.586v39.985h30V459.65C239.14,438.353,221.715,420.928,200.418,420.928z"/>
	</g>
	<g>
		<path style="fill:#FC9086;" d="M109.031,499.634V459.65c0-21.297-17.425-38.722-38.722-38.722H46.498
			c-21.297,0-38.722,17.425-38.722,38.722v39.985H109.031z"/>
	</g>
	<g>
		<path style="fill:#F57A73;" d="M70.309,420.928H46.498c-1.042,0-2.072,0.054-3.095,0.136
			c19.863,1.591,35.627,18.332,35.627,38.586v39.985h30V459.65C109.031,438.353,91.606,420.928,70.309,420.928z"/>
	</g>
	<g>
		<path style="fill:#ACEDED;" d="M499.358,499.634V459.65c0-21.297-17.425-38.722-38.722-38.722h-23.811
			c-21.297,0-38.722,17.425-38.722,38.722v39.985H499.358z"/>
	</g>
	<g>
		<path style="fill:#66D6E6;" d="M460.636,420.928h-23.811c-1.042,0-2.072,0.054-3.095,0.136
			c19.863,1.591,35.627,18.332,35.627,38.586v39.985h30V459.65C499.358,438.353,481.933,420.928,460.636,420.928z"/>
	</g>
	<g>
		<path style="fill:#FFF4F1;" d="M400.292,261.682H105.443c-17.676,0-32.006-14.33-32.006-32.006V39.506
			c0-17.676,14.33-32.006,32.006-32.006h294.848c17.676,0,32.006,14.33,32.006,32.006v190.17
			C432.298,247.353,417.968,261.682,400.292,261.682z"/>
	</g>
	<g>
		<path style="fill:#E3E5E6;" d="M400.292,7.5h-30c17.676,0,32.006,14.33,32.006,32.006v190.17c0,17.676-14.33,32.006-32.006,32.006
			h30c17.676,0,32.006-14.33,32.006-32.006V39.506C432.298,21.83,417.968,7.5,400.292,7.5z"/>
	</g>
	<g>
		<rect x="218.078" y="148.934" style="fill:#FFEC56;" width="34.236" height="65.456"/>
	</g>
	<g>
		<rect x="157.786" y="173.653" style="fill:#FC9086;" width="34.236" height="40.738"/>
	</g>
	<g>
		<rect x="338.662" y="115.424" style="fill:#66D6E6;" width="34.236" height="98.011"/>
	</g>
	<g>
		<rect x="278.37" y="115.196" style="fill:#FFD4C6;" width="34.236" height="99.195"/>
	</g>
	<g>
		<path d="M130.373,221.891h27.414h34.236h26.056h34.236h26.056h34.236h71.489c4.142,0,7.5-3.358,7.5-7.5s-3.358-7.5-7.5-7.5h-3.697
			v-91.467c0-4.142-3.358-7.5-7.5-7.5h-34.236c-4.142,0-7.5,3.358-7.5,7.5v91.467h-11.056v-91.695c0-4.142-3.358-7.5-7.5-7.5H278.37
			c-4.142,0-7.5,3.358-7.5,7.5v91.695h-11.056v-57.957c0-4.142-3.358-7.5-7.5-7.5h-34.236c-4.142,0-7.5,3.358-7.5,7.5v57.957
			h-11.056v-33.238c0-4.142-3.358-7.5-7.5-7.5h-34.236c-4.142,0-7.5,3.358-7.5,7.5v33.238h-19.914c-4.142,0-7.5,3.358-7.5,7.5
			S126.231,221.891,130.373,221.891z M346.162,122.924h19.236v83.011h-19.236V122.924z M285.87,122.696h19.236v84.195H285.87
			V122.696z M225.578,156.434h19.236v50.457h-19.236V156.434z M165.286,181.153h19.236v25.738h-19.236V181.153z"/>
		<path d="M140.225,132.826c1.298,2.668,3.969,4.219,6.749,4.219c1.102,0,2.22-0.244,3.277-0.758l120.831-58.812l-2.327,4.837
			c-1.796,3.733-0.226,8.214,3.507,10.01c1.048,0.504,2.156,0.743,3.246,0.743c2.792,0,5.473-1.566,6.764-4.25l11.677-24.27
			c0.01-0.021,0.017-0.042,0.026-0.063c0.016-0.033,0.033-0.066,0.048-0.099c0.059-0.13,0.11-0.265,0.161-0.399
			c0.026-0.067,0.054-0.133,0.078-0.201c0.007-0.019,0.015-0.038,0.021-0.057c0.043-0.125,0.077-0.255,0.114-0.384
			c0.026-0.091,0.056-0.182,0.079-0.273c0.003-0.011,0.006-0.022,0.008-0.033c0.022-0.094,0.037-0.192,0.056-0.288
			c0.026-0.132,0.056-0.264,0.075-0.396c0.001-0.009,0.002-0.018,0.003-0.026c0,0,0-0.001,0-0.001
			c0.001-0.006,0.001-0.012,0.002-0.018c0.008-0.058,0.01-0.116,0.016-0.174c0.019-0.166,0.039-0.332,0.046-0.498
			c0.001-0.018,0-0.037,0.001-0.055c0.003-0.075-0.002-0.149-0.001-0.224c0-0.029,0-0.058,0-0.086c0-0.117,0.005-0.235-0.001-0.352
			c-0.001-0.024-0.004-0.048-0.005-0.072c-0.007-0.112-0.023-0.221-0.034-0.332c-0.004-0.034-0.006-0.067-0.01-0.101
			c-0.008-0.07-0.011-0.141-0.022-0.211c-0.004-0.028-0.009-0.055-0.013-0.083c-0.022-0.137-0.053-0.27-0.082-0.404
			c-0.017-0.076-0.028-0.154-0.047-0.23c-0.007-0.027-0.013-0.055-0.02-0.082c-0.034-0.132-0.079-0.26-0.12-0.39
			c-0.026-0.08-0.048-0.162-0.076-0.241c-0.009-0.024-0.015-0.048-0.024-0.072c-0.042-0.115-0.093-0.225-0.141-0.337
			c-0.04-0.095-0.078-0.19-0.123-0.284c-0.01-0.022-0.018-0.045-0.029-0.067c0,0,0-0.001-0.001-0.002c0,0,0,0,0,0
			c-0.043-0.089-0.095-0.173-0.141-0.26c-0.057-0.107-0.114-0.215-0.176-0.32c-0.015-0.026-0.029-0.052-0.044-0.078
			c-0.044-0.071-0.094-0.136-0.14-0.206c-0.073-0.11-0.145-0.22-0.223-0.326c-0.016-0.022-0.031-0.044-0.047-0.066
			c-0.057-0.075-0.119-0.144-0.178-0.216c-0.077-0.094-0.154-0.189-0.236-0.28c-0.018-0.02-0.036-0.041-0.054-0.061
			c-0.068-0.074-0.141-0.142-0.212-0.212c-0.08-0.08-0.158-0.16-0.242-0.237c-0.024-0.022-0.047-0.043-0.071-0.065
			c-0.078-0.069-0.161-0.133-0.242-0.199c-0.08-0.065-0.157-0.132-0.24-0.194c-0.031-0.024-0.063-0.047-0.095-0.07
			c-0.083-0.06-0.171-0.114-0.256-0.17c-0.014-0.009-0.027-0.018-0.041-0.027c-0.07-0.046-0.136-0.095-0.208-0.138
			c-0.038-0.023-0.076-0.046-0.115-0.068c-0.067-0.039-0.137-0.072-0.206-0.109c-0.082-0.044-0.163-0.09-0.247-0.131
			c-0.027-0.013-0.052-0.03-0.079-0.043c-0.003-0.001-0.006-0.002-0.009-0.004c-0.036-0.017-0.073-0.034-0.109-0.051
			c-0.061-0.028-0.124-0.05-0.185-0.076c-0.098-0.042-0.197-0.084-0.297-0.122c-0.039-0.015-0.078-0.034-0.117-0.048
			c-0.024-0.009-0.049-0.016-0.074-0.025c-0.085-0.03-0.173-0.051-0.26-0.077c-0.007-0.002-0.014-0.004-0.021-0.006
			c-0.128-0.039-0.256-0.083-0.386-0.115c-0.01-0.002-0.019-0.004-0.029-0.006c-0.059-0.014-0.119-0.022-0.177-0.035
			c-0.178-0.039-0.355-0.077-0.534-0.102c-0.007-0.001-0.013-0.001-0.02-0.002c0,0-0.002,0-0.002,0l-26.487-3.677
			c-4.106-0.569-7.891,2.294-8.46,6.397c-0.57,4.103,2.294,7.891,6.397,8.46l2.08,0.289L143.686,122.8
			C139.962,124.613,138.412,129.101,140.225,132.826z"/>
		<path d="M274.464,307.517c0-9.272-5.874-17.196-14.096-20.251v-18.084h139.924c21.784,0,39.506-17.722,39.506-39.506V39.506
			C439.797,17.722,422.075,0,400.292,0H105.443C83.66,0,65.938,17.722,65.938,39.506v94.923c0,4.142,3.358,7.5,7.5,7.5
			s7.5-3.358,7.5-7.5V39.506C80.938,25.993,91.931,15,105.443,15h294.848c13.513,0,24.506,10.993,24.506,24.506v190.17
			c0,13.513-10.993,24.506-24.506,24.506H105.443c-13.513,0-24.506-10.993-24.506-24.506v-65.247c0-4.142-3.358-7.5-7.5-7.5
			s-7.5,3.358-7.5,7.5v65.247c0,21.784,17.722,39.506,39.506,39.506h139.924v18.084c-8.221,3.055-14.096,10.979-14.096,20.251
			c0,11.908,9.688,21.596,21.596,21.596C264.776,329.113,274.464,319.425,274.464,307.517z M252.867,314.113
			c-3.637,0-6.596-2.959-6.596-6.596s2.959-6.596,6.596-6.596c3.637,0,6.596,2.959,6.596,6.596S256.505,314.113,252.867,314.113z"/>
		<path d="M142.043,48.777c-4.142,0-7.5,3.358-7.5,7.5v4.17h-4.17c-4.142,0-7.5,3.358-7.5,7.5s3.358,7.5,7.5,7.5h4.17v4.17
			c0,4.142,3.358,7.5,7.5,7.5s7.5-3.358,7.5-7.5v-4.17h4.17c4.142,0,7.5-3.358,7.5-7.5s-3.358-7.5-7.5-7.5h-4.17v-4.17
			C149.543,52.135,146.185,48.777,142.043,48.777z"/>
		<path d="M99.53,423.867c4.911-7.771,7.566-16.836,7.538-26.028v-0.108c0-0.041,0-0.081-0.001-0.122l-0.107-6.536
			c-0.081-26.755-21.872-48.465-48.608-48.465c-0.049,0-0.099,0-0.148,0c-12.939,0.039-25.119,5.144-34.295,14.376
			c-9.176,9.231-14.208,21.441-14.17,34.324l0,0.108c0,0.052,0,0.104,0.001,0.156l0.107,6.536
			c0.027,9.164,2.652,18.043,7.496,25.708C6.937,432.299,0.276,445.209,0.276,459.65v39.985c0,4.142,3.358,7.5,7.5,7.5h101.255
			c4.142,0,7.5-3.358,7.5-7.5V459.65C116.531,445.239,109.899,432.351,99.53,423.867z M24.846,397.965l-0.106-6.548l0-0.097
			c-0.027-8.932,3.457-17.371,9.808-23.761c6.352-6.39,14.77-9.924,23.702-9.951c0.035,0,0.067,0,0.103,0
			c18.485,0,33.553,15.012,33.61,33.609l0.106,6.548l0,0.097c0.02,6.667-1.888,13.005-5.538,18.512
			c-5.05-1.899-10.515-2.946-16.221-2.946H46.498c-5.671,0-11.103,1.032-16.128,2.909C26.806,410.918,24.866,404.575,24.846,397.965
			z M101.531,492.135H15.276V459.65c0-11.703,6.476-21.917,16.029-27.262c0.25-0.119,0.497-0.249,0.736-0.398
			c4.326-2.27,9.242-3.562,14.457-3.562h23.811c17.216,0,31.222,14.006,31.222,31.222V492.135z"/>
		<path d="M229.645,423.872c4.92-7.76,7.56-16.758,7.532-26.033v-0.108c0-0.041,0-0.081-0.001-0.122l-0.107-6.536
			c-0.039-12.939-5.145-25.118-14.376-34.295c-9.231-9.176-21.455-14.161-34.38-14.17c-10.192,0.031-19.957,3.212-28.239,9.199
			c-3.357,2.427-4.111,7.115-1.684,10.472c2.427,3.356,7.115,4.11,10.472,1.684c5.722-4.136,12.463-6.334,19.496-6.355
			c0.035,0,0.067,0,0.103,0c18.485,0,33.553,15.012,33.61,33.609l0.106,6.548l0,0.097c0.02,6.619-1.928,13.029-5.545,18.509
			c-5.048-1.898-10.511-2.943-16.214-2.943h-23.811c-5.671,0-11.104,1.032-16.128,2.909c-3.565-5.42-5.504-11.765-5.525-18.372
			l-0.106-6.548l0-0.097c-0.005-1.709,0.121-3.425,0.374-5.1c0.618-4.096-2.201-7.917-6.296-8.536
			c-4.092-0.616-7.917,2.2-8.536,6.296c-0.367,2.429-0.549,4.913-0.542,7.362v0.108c0,0.041,0,0.081,0.001,0.121l0.106,6.536
			c0.028,9.16,2.654,18.041,7.497,25.707c-10.406,8.482-17.067,21.394-17.067,35.835v39.985c0,4.142,3.358,7.5,7.5,7.5H239.14
			c4.142,0,7.5-3.358,7.5-7.5V459.65C246.64,445.242,240.011,432.355,229.645,423.872z M231.64,492.135h-86.255V459.65
			c0-17.216,14.006-31.222,31.222-31.222h23.811c17.216,0,31.222,14.006,31.222,31.222V492.135z"/>
		<path d="M359.754,423.872c4.92-7.759,7.56-16.756,7.532-26.033v-0.108c0-0.041,0-0.081-0.001-0.122l-0.107-6.536
			c-0.081-26.755-21.872-48.465-48.608-48.465c-0.049,0-0.099,0-0.148,0c-12.939,0.039-25.119,5.144-34.295,14.376
			c-9.176,9.231-14.208,21.441-14.17,34.358v0.108c0,0.041,0,0.081,0.001,0.121l0.106,6.536c0.027,9.163,2.652,18.043,7.496,25.708
			c-10.406,8.482-17.066,21.393-17.066,35.834v39.985c0,4.142,3.358,7.5,7.5,7.5h101.255c4.142,0,7.5-3.358,7.5-7.5V459.65
			C376.749,445.242,370.12,432.356,359.754,423.872z M285.064,397.965l-0.106-6.548l0-0.097c-0.027-8.932,3.457-17.371,9.808-23.761
			c6.352-6.39,14.77-9.924,23.702-9.951c0.035,0,0.067,0,0.103,0c18.485,0,33.553,15.012,33.61,33.609l0.106,6.548l0,0.097
			c0.02,6.62-1.928,13.03-5.545,18.509c-5.048-1.898-10.511-2.943-16.214-2.943h-23.811c-5.671,0-11.104,1.032-16.128,2.909
			C287.023,410.918,285.084,404.575,285.064,397.965z M361.749,492.135h-86.255V459.65c0-11.689,6.46-21.892,15.994-27.242
			c0.252-0.118,0.497-0.253,0.737-0.401c4.334-2.281,9.262-3.579,14.49-3.579h23.811c5.232,0,10.164,1.3,14.5,3.584
			c0.248,0.155,0.503,0.293,0.763,0.416c9.515,5.356,15.959,15.548,15.959,27.222V492.135z"/>
		<path d="M489.859,423.869c4.917-7.768,7.563-16.796,7.536-26.03v-0.108c0-0.041,0-0.081-0.001-0.122l-0.107-6.536
			c-0.081-26.755-21.872-48.465-48.608-48.465c-0.049,0-0.099,0-0.148,0c-12.939,0.039-25.118,5.144-34.295,14.376
			c-9.176,9.232-14.208,21.441-14.17,34.358v0.108c0,0.041,0,0.081,0.001,0.121l0.106,6.536c0.028,9.163,2.653,18.042,7.496,25.708
			c-10.406,8.483-17.066,21.393-17.066,35.834v39.985c0,4.142,3.358,7.5,7.5,7.5h101.255c4.142,0,7.5-3.358,7.5-7.5V459.65
			C506.858,445.24,500.227,432.353,489.859,423.869z M415.172,397.965l-0.106-6.548l0-0.097c-0.027-8.932,3.457-17.371,9.808-23.761
			c6.352-6.39,14.77-9.924,23.702-9.951c0.035,0,0.067,0,0.103,0c18.485,0,33.553,15.012,33.61,33.609l0.106,6.548l0,0.097
			c0.02,6.591-1.929,13.025-5.543,18.51c-5.049-1.898-10.512-2.943-16.216-2.943h-23.811c-5.671,0-11.104,1.032-16.128,2.909
			C417.132,410.917,415.193,404.574,415.172,397.965z M491.858,492.135h-86.255V459.65c0-17.216,14.006-31.222,31.222-31.222h23.811
			c17.216,0,31.222,14.006,31.222,31.222V492.135z"/>
	</g>
</g>
<g>
</g>
<g>
</g>
<g>
</g>
<g>
</g>
<g>
</g>
<g>
</g>
<g>
</g>
<g>
</g>
<g>
</g>
<g>
</g>
<g>
</g>
<g>
</g>
<g>
</g>
<g>
</g>
<g>
</g>
</svg>
