<?xml version="1.0" encoding="iso-8859-1"?>
<!-- Generator: Adobe Illustrator 21.0.0, SVG Export Plug-In . SVG Version: 6.00 Build 0)  -->
<svg version="1.1" id="Capa_1" xmlns="http://www.w3.org/2000/svg" xmlns:xlink="http://www.w3.org/1999/xlink" x="0px" y="0px"
	 viewBox="0 0 505.657 505.657" style="enable-background:new 0 0 505.657 505.657;" xml:space="preserve">
<g>
	<g>
		<path style="fill:#9A9999;" d="M392.519,498.157H110.361c-8.284,0-15-6.716-15-15V22.5c0-8.284,6.716-15,15-15h282.158
			c8.284,0,15,6.716,15,15v460.657C407.519,491.441,400.803,498.157,392.519,498.157z"/>
	</g>
	<g>
		<path style="fill:#696867;" d="M392.519,7.5h-30c8.284,0,15,6.716,15,15v460.657c0,8.284-6.716,15-15,15h30
			c8.284,0,15-6.716,15-15V22.5C407.519,14.216,400.803,7.5,392.519,7.5z"/>
	</g>
	<g>
		<path style="fill:#DBDEDF;" d="M131.361,413.33V64.087c0-8.284,6.716-15,15-15h210.158c8.284,0,15,6.716,15,15V413.33
			c0,8.284-6.716,15-15,15H146.361C138.077,428.33,131.361,421.614,131.361,413.33z"/>
	</g>
	<g>
		<path style="fill:#D0CFD1;" d="M356.519,49.087h-30c8.284,0,15,6.716,15,15V413.33c0,8.284-6.716,15-15,15h30
			c8.284,0,15-6.716,15-15V64.087C371.519,55.803,364.804,49.087,356.519,49.087z"/>
	</g>
	<g>
		<path style="fill:#FFF4F1;" d="M244.834,215.667H46.563c-14.507,0-26.376,11.869-26.376,26.376v0
			c0,14.507,11.869,26.376,26.376,26.376h113.844l15.738,27.258c3.024,5.238,10.585,5.238,13.61,0l15.738-27.258h39.341
			c14.507,0,26.376-11.869,26.376-26.376v0C271.21,227.536,259.341,215.667,244.834,215.667z"/>
	</g>
	<g>
		<g>
			<path style="fill:#DBDEDF;" d="M244.834,215.667h-30c14.507,0,26.376,11.869,26.376,26.376v0
				c0,14.507-11.869,26.376-26.376,26.376h30c14.507,0,26.376-11.869,26.376-26.376v0
				C271.21,227.536,259.341,215.667,244.834,215.667z"/>
		</g>
	</g>
	<g>
		<circle style="fill:#B4B4B4;" cx="251.44" cy="461.854" r="16.349"/>
	</g>
	<g>
		<path style="fill:#FFF4F1;" d="M410.625,90.165h-198.27c-14.507,0-26.376,11.869-26.376,26.376v0
			c0,14.507,11.869,26.376,26.376,26.376h76.593l15.738,27.258c3.024,5.238,10.585,5.238,13.61,0l15.738-27.258h76.593
			c14.507,0,26.376-11.869,26.376-26.376v0C437,102.034,425.131,90.165,410.625,90.165z"/>
	</g>
	<g>
		<g>
			<path style="fill:#DBDEDF;" d="M410.625,90.165h-30c14.507,0,26.376,11.869,26.376,26.376v0
				c0,14.507-11.869,26.376-26.376,26.376h30c14.507,0,26.376-11.869,26.376-26.376v0C437,102.034,425.131,90.165,410.625,90.165z"
				/>
		</g>
	</g>
	<g>
		<path style="fill:#FFF4F1;" d="M459.093,312.63H260.822c-14.507,0-26.376,11.869-26.376,26.376v0
			c0,14.507,11.869,26.376,26.376,26.376h16.564l15.738,27.258c3.024,5.238,10.585,5.238,13.61,0l15.738-27.258h136.621
			c14.507,0,26.376-11.869,26.376-26.376v0C485.469,324.499,473.599,312.63,459.093,312.63z"/>
	</g>
	<g>
		<g>
			<path style="fill:#DBDEDF;" d="M459.093,312.63h-30c14.507,0,26.376,11.869,26.376,26.376v0
				c0,14.507-11.869,26.376-26.376,26.376h30c14.507,0,26.376-11.869,26.376-26.376v0
				C485.469,324.499,473.599,312.63,459.093,312.63z"/>
		</g>
	</g>
	<path d="M459.093,305.13h-44.073V150.122c16.61-2.162,29.481-16.392,29.481-33.581s-12.872-31.419-29.481-33.581V22.5
		c0-12.406-10.094-22.5-22.5-22.5H110.361c-12.406,0-22.5,10.094-22.5,22.5v185.667H46.563c-18.679,0-33.875,15.197-33.875,33.876
		c0,18.679,15.196,33.875,33.875,33.875h41.298v207.239c0,12.406,10.094,22.5,22.5,22.5h282.158c12.406,0,22.5-10.094,22.5-22.5
		V372.882h44.073c18.68,0,33.876-15.197,33.876-33.876S477.772,305.13,459.093,305.13z M379.019,305.13V150.416h21V305.13H379.019z
		 M102.861,22.5c0-4.135,3.364-7.5,7.5-7.5h282.158c4.136,0,7.5,3.365,7.5,7.5v60.165h-21V64.087c0-12.406-10.094-22.5-22.5-22.5
		H146.361c-12.406,0-22.5,10.094-22.5,22.5v144.08h-21V22.5z M27.688,242.042c0-10.408,8.468-18.875,18.875-18.875h198.271
		c10.408,0,18.876,8.468,18.876,18.876c0,10.408-8.468,18.875-18.876,18.875h-39.341c-2.68,0-5.155,1.429-6.495,3.75l-15.739,27.259
		c-0.05,0.088-0.103,0.178-0.309,0.178s-0.259-0.091-0.31-0.179l-15.737-27.259c-1.34-2.321-3.815-3.75-6.495-3.75H46.563
		C36.156,260.918,27.688,252.451,27.688,242.042z M400.019,483.157c0,4.135-3.364,7.5-7.5,7.5H110.361c-4.136,0-7.5-3.365-7.5-7.5
		V275.918h21V413.33c0,12.406,10.094,22.5,22.5,22.5h44.579c4.143,0,7.5-3.358,7.5-7.5s-3.357-7.5-7.5-7.5h-44.579
		c-4.136,0-7.5-3.365-7.5-7.5V275.918h17.217l13.572,23.509c2.776,4.809,7.749,7.679,13.302,7.679
		c5.552,0,10.523-2.871,13.298-7.679l13.573-23.509h35.011c18.68,0,33.876-15.197,33.876-33.876
		c0-18.679-15.196-33.875-33.876-33.875H138.861V64.087c0-4.135,3.364-7.5,7.5-7.5h210.158c4.136,0,7.5,3.365,7.5,7.5v18.577H260.94
		c-4.143,0-7.5,3.358-7.5,7.5s3.357,7.5,7.5,7.5h149.685c10.408,0,18.876,8.468,18.876,18.876s-8.468,18.876-18.876,18.876h-76.593
		c-2.68,0-5.155,1.429-6.495,3.75l-15.739,27.26c-0.05,0.087-0.103,0.178-0.309,0.178s-0.259-0.091-0.31-0.179l-15.737-27.258
		c-1.34-2.321-3.815-3.75-6.495-3.75h-76.593c-10.408,0-18.876-8.468-18.876-18.876s8.468-18.876,18.876-18.876h18.586
		c4.143,0,7.5-3.358,7.5-7.5s-3.357-7.5-7.5-7.5h-18.586c-18.68,0-33.876,15.197-33.876,33.876s15.196,33.876,33.876,33.876h72.263
		l13.572,23.508c2.776,4.809,7.749,7.679,13.301,7.679c5.553,0,10.524-2.871,13.299-7.679l13.573-23.508h25.657V305.13H260.822
		c-18.68,0-33.876,15.197-33.876,33.876s15.196,33.876,33.876,33.876h12.234l13.572,23.509c2.777,4.808,7.75,7.678,13.302,7.678
		c5.552,0,10.523-2.871,13.299-7.679l13.572-23.508h37.218v40.448c0,4.135-3.364,7.5-7.5,7.5H220.94c-4.143,0-7.5,3.358-7.5,7.5
		s3.357,7.5,7.5,7.5h135.579c12.406,0,22.5-10.094,22.5-22.5v-40.448h21V483.157z M459.093,357.882H322.471
		c-2.68,0-5.155,1.429-6.495,3.75l-15.737,27.258c-0.051,0.088-0.104,0.179-0.31,0.179c-0.207,0-0.26-0.092-0.311-0.179
		l-15.737-27.258c-1.34-2.321-3.815-3.75-6.495-3.75h-16.564c-10.408,0-18.876-8.468-18.876-18.876s8.468-18.876,18.876-18.876
		h198.271c10.408,0,18.876,8.468,18.876,18.876S469.501,357.882,459.093,357.882z"/>
</g>
<g>
</g>
<g>
</g>
<g>
</g>
<g>
</g>
<g>
</g>
<g>
</g>
<g>
</g>
<g>
</g>
<g>
</g>
<g>
</g>
<g>
</g>
<g>
</g>
<g>
</g>
<g>
</g>
<g>
</g>
</svg>
