<svg id="Capa_1" enable-background="new 0 0 512.275 512.275" height="512" viewBox="0 0 512.275 512.275" width="512" xmlns="http://www.w3.org/2000/svg"><g><g id="_x3C_Group_x3E__49_"><path d="m359.59 87.5h-201.021v183h201.021l-10.783-9.082 10.783-10.92v-143l-6.477-9.3z" fill="#f5fcff"/><path d="m359.588 107.498v-20l-107.661-12.397-99.239 12.397v20 143 20l98.799 13.164 108.101-13.164v-20h-174.9c-2.761 0-5-2.239-5-5v-133c0-2.761 2.239-5 5-5z" fill="#e6f7fe"/><path d="m209.348 148.202h100.24v60.072h-100.24z" fill="#b78c7a"/><g fill="#ab7b64"><path d="m309.588 202.408v48.09l-8.34 10.92 8.34 9.08h-94.9v-68.09z"/><path d="m309.588 87.498-9.221 10.7 9.221 9.3v46.57h-100.24v-66.57z"/><path d="m202.688 148.202h24v60.072h-24z"/></g><path d="m226.688 245.498v-43.09h-24v48.09 20l48.799 13.164 58.101-13.164v-20h-77.9c-2.762 0-5-2.239-5-5z" fill="#9a6a53"/><path d="m309.588 87.498-57.661-12.397-49.239 12.397v20 46.57h24v-41.57c0-2.761 2.239-5 5-5h77.9z" fill="#9a6a53"/><path d="m271.138 410.633h-25.376v-83.548h21.357l4.019 19.413z" fill="#e6f7fe"/><path d="m271.138 327.088h-15-15v19.41 36.5h15v-32.5c0-2.209 1.791-4 4-4h11z" fill="#d3effd"/><path d="m274.202 429.782h-36.128l7.688-20.58c0-1.657-6.345-26.202-4.688-26.202h30.128c1.657 0 3 1.343 3 3v27.578l-5.541 5.009z" fill="#e6f7fe"/><path d="m256.078 413.578c-1.657 0-3-1.343-3-3v-24.58c0-1.65 1.34-3 3-3l-8.087-2.392-6.853 2.392h-.06c-1.657 0-3 1.343-3 3v27.58 16.2h15 21.12v-16.2z" fill="#d3effd"/><path d="m364.638 270.5h-201.225l-15.413 1.445c-8.284 0-12.33 5.367-12.33 13.651l-.44 29.064c0 8.284 5.367 12.424 13.651 12.424l12.11 2.415h203.647c8.284 0 15-6.716 15-15v-29c0-8.283-6.716-14.999-15-14.999z" fill="#b78c7a"/><path d="m174.638 329.498h-27c-8.28 0-15-6.71-15-15v-29c0-8.28 6.72-15 15-15h27c-8.28 0-15 6.72-15 15v29c0 8.29 6.72 15 15 15z" fill="#ab7b64"/><path d="m94.998 261.418h-15.6c-1.15-4.67-1.76-9.55-1.76-14.57v-12.42c0-4.14 3.36-7.5 7.5-7.5s7.5 3.36 7.5 7.5v12.42c0 5.09.83 9.99 2.36 14.57z" fill="#e6f7fe"/><path d="m102.638 243.035h-35c-8.284 0-11.674-4.336-11.674-12.62v-5c0-8.284 3.39-15 11.674-15h35c8.284 0 15 6.716 15 15v5c0 8.284-6.716 12.62-15 12.62z" fill="#5f6c75"/><path d="m434.638 234.428v12.42c0 5.02-.61 9.9-1.76 14.57h-15.6c1.53-4.58 2.36-9.48 2.36-14.57v-12.42c0-4.14 3.36-7.5 7.5-7.5s7.5 3.36 7.5 7.5z" fill="#e6f7fe"/><path d="m445.943 241.56h-35c-8.284 0-13.695-2.858-13.695-11.142v-5c0-8.284 4.106-15.003 12.39-15.003h35c8.284 0 15 6.716 15 15v5c0 8.284-5.411 11.145-13.695 11.145z" fill="#5f6c75"/><path d="m117.638 228.418v2c0 8.28-6.72 15-15 15h-35c-8.28 0-15-6.72-15-15v-5c0-8.29 6.72-15 15-15h2v3c0 8.28 6.72 15 15 15z" fill="#4e5a61"/><path d="m459.638 228.418v2c0 8.28-6.72 15-15 15h-35c-8.28 0-15-6.72-15-15v-5c0-8.29 6.72-15 15-15h2v3c0 8.28 6.72 15 15 15z" fill="#4e5a61"/><path d="m355.891 489.782-99.753-41.03-99.754 41.03v-30l99.754-30 99.753 30z" fill="#e6f7fe"/><path d="m302.928 454.876v-11.028l-46.79-14.07-46.79 14.07v11.028c0 1.765-1.157 3.322-2.848 3.831l-50.112 15.071v16l99.75-30 99.75 30v-16l-50.112-15.071c-1.691-.509-2.848-2.066-2.848-3.831z" fill="#d3effd"/><path d="m271.138 476.055-35.787 3.333c-5.523 0-5.882-5.737-5.882-11.26l-.881-28.183c0-7.194 2.595-13.334 9.79-13.334h35.521c7.194 0 13.027 5.832 13.027 13.027v29.75c-.001 5.523-10.265 6.667-15.788 6.667z" fill="#5f6c75"/><path d="m146.384 445.064h-18.746c-5.523 0-5.619 6.918-5.619 12.441l-1.083 34.092c0 5.523 4.477 10 10 10l13.541-.165c5.523 0 11.907-1.409 11.907-6.931v-39.436c0-5.524-4.477-10.001-10-10.001z" fill="#5f6c75"/><path d="m384.661 445.339h-18.746c-5.523 0-7.64 4.477-7.64 10v39.436c0 5.523 2.117 10 7.64 10h18.746c5.523 0 10-4.477 10-10v-39.436c0-5.522-4.477-10-10-10z" fill="#5f6c75"/><path d="m286.928 459.388v10c0 5.52-4.48 10-10 10h-41.58c-5.52 0-10-4.48-10-10v-29.75c0-7.19 5.83-13.03 13.03-13.03h6.97v22.78c0 5.52 4.48 10 10 10z" fill="#4e5a61"/><path d="m156.388 484.498v10c0 5.52-4.48 10-10 10h-18.75c-5.52 0-10-4.48-10-10v-39.43c0-5.53 4.48-10 10-10h10v29.43c0 5.52 4.48 10 10 10z" fill="#4e5a61"/><path d="m394.658 484.778v10c0 5.52-4.47 10-10 10h-18.74c-5.53 0-10-4.48-10-10v-39.44c0-5.52 4.47-10 10-10h10v29.44c0 5.52 4.47 10 10 10z" fill="#4e5a61"/><path d="m362.463 7.5h-196.408l-12.417 3.72c-8.284 0-15 6.716-15 15v40.514c0 8.284 6.716 15 15 15l15.06 5.766h193.766c8.284 0 15-6.716 15-15v-50c-.001-8.284-6.717-15-15.001-15z" fill="#b78c7a"/><path d="m176.808 87.498h-27c-8.28 0-15-6.71-15-15v-50c0-8.28 6.72-15 15-15h27c-8.28 0-15 6.72-15 15v50c0 8.29 6.72 15 15 15z" fill="#ab7b64"/></g><g><path d="m444.638 202.915h-35c-12.406 0-22.5 10.093-22.5 22.5v5c0 12.407 10.094 22.5 22.5 22.5h9.595c-2.361 17.876-15.005 32.752-32.095 38.023v-5.438c0-11.578-8.791-21.138-20.048-22.364v-102.126c0-4.142-3.357-7.5-7.5-7.5s-7.5 3.358-7.5 7.5v101.99h-35v-168h35v31.031c0 4.142 3.357 7.5 7.5 7.5s7.5-3.358 7.5-7.5v-31.512c10.194-2.14 17.873-11.198 17.873-22.019v-50c0-12.407-10.094-22.5-22.5-22.5h-142.517c-4.143 0-7.5 3.358-7.5 7.5s3.357 7.5 7.5 7.5h142.517c4.136 0 7.5 3.364 7.5 7.5v50c0 4.136-3.364 7.5-7.5 7.5h-212.65c-4.136 0-7.5-3.364-7.5-7.5v-50c0-4.136 3.364-7.5 7.5-7.5h35.091c4.143 0 7.5-3.358 7.5-7.5s-3.357-7.5-7.5-7.5h-35.091c-12.406 0-22.5 10.093-22.5 22.5v50c0 10.821 7.679 19.88 17.873 22.019v168.617c-11.257 1.226-20.048 10.786-20.048 22.364v5.44c-17.097-5.267-29.738-20.135-32.096-38.025h9.596c12.406 0 22.5-10.093 22.5-22.5v-5c0-12.407-10.094-22.5-22.5-22.5h-35c-12.406 0-22.5 10.093-22.5 22.5v5c0 12.407 10.094 22.5 22.5 22.5h10.305c2.584 26.109 21.667 47.732 47.195 53.537v8.048c0 12.407 10.094 22.5 22.5 22.5h86v41.596c-1.892 1.9-3.063 4.518-3.063 7.404v34.661c-5.478 2.261-9.76 6.826-11.653 12.481l-55.81 16.784c-2.2-7.15-8.865-12.363-16.728-12.363h-18.746c-9.649 0-17.5 7.851-17.5 17.5v39.437c0 9.649 7.851 17.5 17.5 17.5h18.746c9.355 0 16.997-7.385 17.456-16.629l56.522-16.998c3.063 5.091 8.627 8.515 14.989 8.515h41.574c6.362 0 11.926-3.424 14.989-8.515l56.531 17.001c.319 9.371 8.022 16.901 17.47 16.901h18.746c9.649 0 17.5-7.851 17.5-17.5v-39.436c0-9.649-7.851-17.5-17.5-17.5h-18.746c-7.771 0-14.369 5.096-16.645 12.119l-6.263-1.884c-3.967-1.193-8.149 1.055-9.343 5.022-1.192 3.967 1.056 8.149 5.022 9.342l9.729 2.926v14.337l-53.99-16.237v-14.337l10.887 3.274c.721.217 1.447.32 2.163.32 3.224 0 6.203-2.096 7.18-5.342 1.192-3.966-1.056-8.149-5.022-9.342l-16.278-4.895c-1.894-5.655-6.175-10.22-11.653-12.481v-34.661c0-2.887-1.172-5.504-3.063-7.404v-41.596h86c12.406 0 22.5-10.093 22.5-22.5v-8.047c25.519-5.807 44.607-27.449 47.194-53.538h10.306c12.406 0 22.5-10.093 22.5-22.5v-5c-.001-12.407-10.095-22.5-22.501-22.5zm-384.5 27.5v-5c0-4.136 3.364-7.5 7.5-7.5h35c4.136 0 7.5 3.364 7.5 7.5v5c0 4.136-3.364 7.5-7.5 7.5h-35c-4.136 0-7.5-3.364-7.5-7.5zm100.048 32.585v-168h35v168zm50-101.437h91.904v33.34h-91.904zm91.904-15h-91.904v-51.563h91.904zm-35.389 243.937v28.611h-21.127v-28.611zm-102.817 74.858 53.967-16.23v14.337l-53.967 16.23zm-15 29.142c0 1.378-1.121 2.5-2.5 2.5h-18.746c-1.379 0-2.5-1.122-2.5-2.5v-39.437c0-1.378 1.121-2.5 2.5-2.5h18.746c1.379 0 2.5 1.122 2.5 2.5zm130.541-25.112c0 1.378-1.121 2.5-2.5 2.5h-41.574c-1.379 0-2.5-1.122-2.5-2.5v-29.75c0-3.047 2.479-5.527 5.526-5.527h35.521c3.047 0 5.526 2.479 5.526 5.527v29.75zm83.99-14.049c0-1.378 1.121-2.5 2.5-2.5h18.746c1.379 0 2.5 1.122 2.5 2.5v39.436c0 1.378-1.121 2.5-2.5 2.5h-18.746c-1.379 0-2.5-1.122-2.5-2.5zm-99.777-79.839h-15v-38.5h15zm108.5-61c0 4.136-3.364 7.5-7.5 7.5h-217c-4.136 0-7.5-3.364-7.5-7.5v-29c0-4.136 3.364-7.5 7.5-7.5h79.33c4.143 0 7.5-3.358 7.5-7.5s-3.357-7.5-7.5-7.5h-16.782v-53.096h91.904v53.096h-40.207c-4.143 0-7.5 3.358-7.5 7.5s3.357 7.5 7.5 7.5h102.755c4.136 0 7.5 3.364 7.5 7.5zm80-84.085c0 4.136-3.364 7.5-7.5 7.5h-35c-4.136 0-7.5-3.364-7.5-7.5v-5c0-4.136 3.364-7.5 7.5-7.5h35c4.136 0 7.5 3.364 7.5 7.5z"/></g></g></svg>