<svg id="Capa_1" enable-background="new 0 0 512 512" height="512" viewBox="0 0 512 512" width="512" xmlns="http://www.w3.org/2000/svg"><g><g id="_x3C_Group_x3E__10_"><path d="m413.229 57.08h-97.83l-59.67 9.81-59.67-9.81h-97.83c-1.02 0-2.021.076-2.999.223-9.626 1.448-11.381 12.446-11.381 22.467l-1.431 398.312c0 11.05 8.95 20 20 20l310.605 2.789c10.03 0 18.537-3.746 19.983-13.372.147-.978.223-1.98.223-3v-407.419c0-11.04-8.95-20-20-20zm-72.68 57.88c0 9.79-7.94 17.73-17.73 17.73h-134.18c-9.79 0-17.73-7.94-17.73-17.73v-.03c0-9.79 7.94-17.73 17.73-17.73h7.39l57.801-9.833 61.599 9.833h7.39c9.79 0 17.73 7.94 17.73 17.73z" fill="#bed9fd"/><path d="m105.5 487.5c-5.5 0-10-4.5-10-10v-420.2c-9.63 1.46-17 9.76-17 19.78v407.42c0 11.046 8.954 20 20 20h315c10.03 0 18.33-7.37 19.78-17z" fill="#9ec8fc"/><path d="m315.7 97.2h-17l-44.6-9.83-40.8 9.83h-17l.03-40.12h119.34z" fill="#9ec8fc"/><path d="m298.702 97.202h-85.404l.048-74.698c.005-8.288 6.719-15.004 15-15.004h55.308c8.28 0 14.995 6.716 15 15.004z" fill="#5f6c75"/><path d="m271.11 469.28h-154.358c-2.761 0-5-2.239-5-5l-1.509-54.023c0-2.761 2.239-5 5-5l8.247-2.463h11.42l9.044 4.444 5.956-4.444h18.92l6.674 4.444 8.326-4.444h18.93l7.91 4.444 7.09-4.444h18.93l8.493 4.444 6.507-4.444h21.431c2.761 0 5 2.239 5 5v48.986l-2.011 7.5c0 2.761-2.238 5-5 5z" fill="#f5fcff"/><path d="m278.12 456.78v10c0 2.761-2.239 5-5 5h-21.43l-6.507-4.927-8.493 4.927h-18.93l-6.729-4.927-8.271 4.927h-18.93l-7.784-4.927-7.216 4.927h-18.92l-6.729-4.927-8.271 4.927h-21.42c-2.761 0-5-2.239-5-5v-58.99c0-2.761 2.239-5 5-5h10v49.99c0 2.209 1.791 4 4 4z" fill="#e6f7fe"/><path d="m396.78 469.28-53.535-2.5c-2.761 0-5-2.239-5-5v-51.578c0-2.761 2.239-5 5-5l7.275-2.397h47.98c2.761 0 5 2.239 5 5v47.975l-1.72 8.5c0 2.761-2.239 5-5 5z" fill="#ffe07d"/><path d="m403.5 455.78v11c0 2.761-2.239 5-5 5h-58.98c-2.761 0-5-2.239-5-5v-58.98c0-2.761 2.239-5 5-5h11v47.98c0 2.761 2.239 5 5 5z" fill="#ffd064"/><g><g><path d="m134.91 456.78h15v15h-15z" fill="#d3effd"/></g><g><path d="m168.83 456.78h15v15h-15z" fill="#d3effd"/></g><g><path d="m202.76 456.78h15v15h-15z" fill="#d3effd"/></g><g><path d="m236.69 456.78h15v15h-15z" fill="#d3effd"/></g></g><path d="m168.83 181.043c0-5.523 4.477-10 10-10l1.35-2.862h156.636c5.523 0 10 4.477 10 10v167.819l-2.296 2.064c0 5.523-4.477 10-10 10l-16.06 2.941-63.903-10-61.237 10-11.99-3.664c-5.523 0-10-4.477-10-10z" fill="#f5fcff"/><path d="m346.82 346v5c0 5.53-4.48 10-10 10h-18.36l-63.409-10-61.731 10h-18.14c-5.52 0-10-4.47-10-10v-172.82c0-5.523 4.477-10 10-10h5v172.82c0 2.761 2.239 5 5 5z" fill="#e6f7fe"/><g><path d="m318.46 361-67.162-7.532-57.978 7.532 4.701-14.851.24-1.74c.74-5.47 3.649-8.497 7.479-12.217 2.29-2.23 5.06-4.03 8.15-5.23l9.61-3.72 17.14-6.65 30.742 1.522 18.781 2.616 10.736 4.16c8.23 3.2 14.09 10.62 15.28 19.37l.24 1.74z" fill="#d5717f"/><path d="m316.42 346h-98.743c-4.011 0-5.186-5.601-1.459-7.084.03-.012.061-.024.092-.036l21.12-8.19c5.6 1.99 11.51 3.05 17.62 3.05 6.43 0 12.64-1.17 18.49-3.36 5.95-2.22 11.53-5.49 16.62-9.64l-17.017-6.586-35.503.366-17.14 6.65-9.61 3.73c-3.09 1.2-5.85 2.99-8.15 5.22-3.83 3.72-6.4 8.67-7.14 14.14l-.24 1.74-2.04 15h125.14z" fill="#cd5668"/><path d="m208.574 255.106c1.091 35.226 18.716 62.277 45.277 62.277 2.544 0 6.24 1.099 8.681.602 19.404-3.955 35.095-23.048 40.151-48.006.957-4.722-1.225-10.138-1.077-15.217l-47.049-40.754z" fill="#f7e5c1"/><path d="m304.361 255.248c-.15 5.08-.72 10.01-1.68 14.73-17.983-1.5-27.05-11.553-33.029-19.664-1.034-1.403-3.033-1.616-4.359-.485-13.705 11.695-30.331 16.737-43.122 18.879 4.77 25.56 20.65 45.23 40.36 49.27-2.44.5-4.94.76-7.48.76-22.71 0-41.84-20.56-47.58-48.54-.98-4.74-1.57-9.69-1.73-14.79l48.82-41.4 7.59 6.28z" fill="#f4d9b1"/><path d="m301.497 213.539c-1.991-2.369-7.479-8.9-17.256-11.312-3.622-.894-6.984-1.012-9.867-.776-5.899.484-11.813-.267-17.503-1.899-2.41-.691-5.19-1.291-8.263-1.619-4.713-.503-9.776.917-15.589 2.343-4.247 1.042-13.773 6.283-22.912 19.064-10.24 14.319-7.725 24.69-5.969 30.927.405 1.438 1.705 2.434 3.199 2.435 14.657.009 32.252-2.283 47.715-17.021 2.379-2.268 8.008-2.793 11.01-3.14 5.1-.589 10.421 1.521 13.654 6.075 6.404 9.02 11.908 15.7 25.175 16.484 1.604.095 3.033-1.002 3.402-2.566 1.654-6.994 4.556-25.486-6.796-38.995z" fill="#5f6c75"/><path d="m266.811 232.474-.781-.196c-8.714-2.189-17.876-.662-25.602 3.925-4.646 2.758-9.586 4.889-14.54 6.512-1.858.608-3.809-.73-3.903-2.683-.372-7.717.984-17.305 7.494-26.404 5.84-8.17 13.17-12.94 19.13-15.7-4.71-.5-10.12-.36-15.93 1.06-4.25 1.05-17.31 4.86-26.45 17.64-7.907 11.057-7.615 22.891-6.266 30.58-.001 0-.003 0-.004 0 .819 2.857.55 7.884 4.49 8.04 6.604-.011 13.329-.775 19.82-2.19 0 0 0-.001-.001-.002 11.563-2.531 23.979-7.56 33.481-16.618 2.581-2.455 5.801-3.755 9.062-3.964z" fill="#4e5a61"/></g></g><g><g><path d="m433.5 359.564c4.142 0 7.5-3.358 7.5-7.5v-274.981c0-15.164-12.336-27.5-27.5-27.5h-107.329l-.017-27.083c-.008-12.407-10.102-22.5-22.5-22.5h-55.308c-12.398 0-22.492 10.093-22.5 22.5l-.018 27.083h-107.328c-15.164 0-27.5 12.336-27.5 27.5v407.417c0 15.164 12.336 27.5 27.5 27.5h315c15.164 0 27.5-12.336 27.5-27.5v-97.521c0-4.142-3.358-7.5-7.5-7.5s-7.5 3.358-7.5 7.5v97.521c0 6.893-5.607 12.5-12.5 12.5h-315c-6.893 0-12.5-5.607-12.5-12.5v-407.417c0-6.893 5.607-12.5 12.5-12.5h107.319l-.016 25.12h-22.891c-13.911 0-25.228 11.317-25.228 25.261 0 13.911 11.317 25.228 25.228 25.228h98.13c4.142 0 7.5-3.358 7.5-7.5s-3.358-7.5-7.5-7.5h-98.13c-5.64 0-10.228-4.588-10.228-10.261 0-5.64 4.588-10.228 10.228-10.228h30.381.005 85.404.005 30.381c5.64 0 10.228 4.588 10.228 10.261 0 5.64-4.588 10.228-10.228 10.228h-13.194c-4.142 0-7.5 3.358-7.5 7.5s3.358 7.5 7.5 7.5h13.194c13.911 0 25.228-11.317 25.228-25.261 0-13.911-11.317-25.228-25.228-25.228h-22.891l-.016-25.12h107.319c6.893 0 12.5 5.607 12.5 12.5v274.981c0 4.142 3.358 7.5 7.5 7.5zm-212.697-269.861.043-67.193c.003-4.141 3.367-7.509 7.5-7.509h55.308c4.133 0 7.497 3.369 7.5 7.509l.043 67.193z"/><path d="m354.316 351.005v-172.824c0-9.649-7.851-17.5-17.5-17.5h-161.632c-9.649 0-17.5 7.851-17.5 17.5v30.202c0 4.142 3.358 7.5 7.5 7.5s7.5-3.358 7.5-7.5v-30.202c0-1.378 1.122-2.5 2.5-2.5h161.632c1.378 0 2.5 1.122 2.5 2.5v172.824c0 1.378-1.122 2.5-2.5 2.5h-11.702l-1.395-10.252c-1.558-11.457-9.223-21.17-20.003-25.352l-14.944-5.796c12.574-11.894 21.193-30.349 22.91-51.67 1.957-1.479 3.415-3.626 4.018-6.174 1.977-8.354 5.12-29.517-8.352-45.547-2.239-2.664-9.051-10.771-21.201-13.769-3.989-.984-8.121-1.312-12.277-.969-4.709.384-9.696-.163-14.822-1.634-9.24-2.65-18.938-2.868-28.045-.635-7.276 1.784-20.949 6.828-30.765 20.555-8.487 11.869-10.594 26.594-6.093 42.582.729 2.59 2.382 4.744 4.536 6.146 1.847 21.356 10.633 39.799 23.366 51.574l-13.762 5.337c-10.78 4.181-18.445 13.895-20.003 25.352l-1.394 10.252h-11.702c-1.378 0-2.5-1.122-2.5-2.5v-107.707c0-4.142-3.358-7.5-7.5-7.5s-7.5 3.358-7.5 7.5v107.707c0 9.649 7.851 17.5 17.5 17.5h161.632c9.647 0 17.498-7.851 17.498-17.5zm-141.878-130.017c7.004-9.794 16.875-13.421 22.137-14.711 3.033-.744 6.101-1.116 9.189-1.116 3.7 0 7.426.534 11.147 1.601 6.874 1.973 13.665 2.701 20.186 2.165 2.538-.208 5.045-.012 7.457.583 7.404 1.826 11.543 6.752 13.31 8.855 7.635 9.086 7.168 21.448 5.961 28.82-6.945-1.31-10.473-5.286-15.886-12.911-3.725-5.247-9.539-8.61-15.952-9.228-6.375-.613-12.679 1.559-17.297 5.961-12.04 11.475-30.485 16.082-44.879 16.673-2.228-10.308-.677-19.275 4.627-26.692zm1.456 41.279c12.845-1.253 33.655-5.639 49.144-20.402 2.005-1.911 4.315-2.004 5.51-1.888 2.076.2 3.957 1.286 5.16 2.98 5.912 8.328 11.889 15.526 22.823 18.392-3.072 28.029-20.748 49.89-41.374 49.89-20.38.001-37.907-21.396-41.263-48.972zm-10.75 83.007c.823-6.05 4.871-11.18 10.563-13.388l23.827-9.24c5.55 2.322 11.469 3.594 17.623 3.594 6.457 0 12.655-1.391 18.436-3.932l24.7 9.579c5.693 2.208 9.741 7.338 10.563 13.388l1.12 8.231h-107.951z"/><path d="m113.489 395.294c-6.893 0-12.5 5.607-12.5 12.5v58.99c0 6.893 5.607 12.5 12.5 12.5h159.632c6.893 0 12.5-5.607 12.5-12.5v-58.99c0-6.893-5.607-12.5-12.5-12.5zm70.346 15h18.929v53.99h-18.929zm-15 53.99h-18.928v-53.99h18.928zm48.929-53.99h18.929v53.99h-18.929zm-101.775 0h18.917v53.99h-18.917zm154.632 53.99h-18.929v-53.99h18.929z"/><path d="m339.521 479.284h58.979c6.893 0 12.5-5.607 12.5-12.5v-58.979c0-6.893-5.607-12.5-12.5-12.5h-58.979c-6.893 0-12.5 5.607-12.5 12.5v58.979c0 6.893 5.607 12.5 12.5 12.5zm2.5-68.979h53.979v53.979h-53.979z"/></g></g></g></svg>