<svg id="Capa_1" enable-background="new 0 0 512 512" height="512" viewBox="0 0 512 512" width="512" xmlns="http://www.w3.org/2000/svg"><g><g id="_x3C_Group_x3E__11_"><path d="m421.5 200.431h-331v-124.559c0-8.284 6.716-15 15-15h301c8.284 0 15 6.716 15 15z" fill="#5f6c75"/><path d="m90.5 176.5h331v21.709h-331z" fill="#4e5a61"/><path d="m366.798 295.55c0 8.063 2.234 14.406-5.829 14.406h-209.938c-8.063 0-14.6-6.537-14.6-14.6l4.899-272.833c0-8.284 1.817-15.023 10.101-15.023h144.353c2.639 0 5.17 1.043 7.043 2.901l69.784 69.24c1.892 1.878 2.957 4.433 2.957 7.099v89.76z" fill="#f5fcff"/><path d="m375.57 86.74v11.83h-69.49c-12.23 0-22.18-9.94-22.18-22.16v-68.91h11.88c2.64 0 5.17 1.04 7.05 2.9l69.78 69.24c1.89 1.88 2.96 4.43 2.96 7.1z" fill="#e6f7fe"/><path d="m374.66 82.57h-68.58c-3.41 0-6.18-2.75-6.18-6.16v-68.03c1.08.49 2.07 1.17 2.93 2.02l69.78 69.24c.87.86 1.56 1.85 2.05 2.93z" fill="#d3effd"/><path d="m375.57 193.5v-17h-217.14c-3.314 0-6-2.686-6-6v-163h-1c-8.284 0-15 6.716-15 15v154 17l125.496 15.19z" fill="#e6f7fe"/><path d="m489.5 402.5h-18l-240.775-17.885-190.225 17.885h-18c-8.284 0-15-6.716-15-15v-179c0-8.284 6.716-15 15-15h34l184.794 15.19 214.206-15.19h34c8.284 0 15 6.716 15 15v179c0 8.284-6.716 15-15 15z" fill="#5f6c75"/><path d="m439.459 285.422-363.275 2.869c-8.284 0-15-6.716-15-15l-4.684-79.788 9.087 10.202 8.913-10.202h381v80.707l-.655 3.332c0 8.285-7.102 7.88-15.386 7.88z" fill="#bed9fd"/><path d="m455.5 274.21v3c0 8.284-6.716 15-15 15h-369c-8.284 0-15-6.716-15-15v-83.71h18v72.71c0 4.418 3.582 8 8 8z" fill="#9ec8fc"/><path d="m471.5 358.51v43.99h-16l-201.074-11.61-197.926 11.61h-16v-43.99c0-17.09 13.91-31 31-31h369c17.09 0 31 13.91 31 31z" fill="#4e5a61"/><path d="m440.5 343.511h-64.5l-114.074 8.553-125.926-8.553h-64.5c-8.284 0-15 6.716-15 15v44l202.628-9.639 196.372 9.639v-44c0-8.285-6.716-15-15-15z" fill="#5f6c75"/><path d="m460.5 382.51v20h-410l-1-20z" fill="#4e5a61"/><path d="m376 343.511v147.036c0 7.706-7.206 10.655-15.298 10.655l-205.28-1.982c-8.092 0-14.652-6.247-14.652-13.953l-2.825-140.516 6.578 4.194 7.477-5.434z" fill="#f5fcff"/><path d="m376 488.5v2.05c0 7.7-6.56 13.95-14.65 13.95h-210.7c-8.09 0-14.65-6.25-14.65-13.95v-147.039h16v138.989c0 3.31 2.69 6 6 6z" fill="#e6f7fe"/><circle cx="169.074" cy="242.855" fill="#94d4a2" r="15"/><path d="m120.5 242.855c0-8.284-6.716-15-15-15-.637 0-1.264.04-1.88.117-7.397.925-9.96 7.235-9.96 14.883 0 8.284 3.555 11.962 11.839 11.962 7.649 0 13.961-2.687 14.884-10.086.078-.615.117-1.241.117-1.876z" fill="#d5717f"/><path d="m184.074 242.855c0-8.284-6.716-15-15-15-.638 0-1.267.04-1.884.117-7.395.927-6.649 5.718-6.649 13.364 0 8.284.963 12.16 9.248 12.16 7.649 0 13.246-1.366 14.169-8.764.077-.616.116-1.242.116-1.877z" fill="#94d4a2"/><path d="m120.38 244.73c-.92 7.4-7.23 13.12-14.88 13.12-8.28 0-15-6.71-15-15 0-7.64 5.72-13.95 13.12-14.88-.08.61-.12 1.24-.12 1.88 0 8.29 6.72 15 15 15 .64 0 1.27-.04 1.88-.12z" fill="#cd5668"/><path d="m183.95 244.73c-.92 7.4-7.23 13.12-14.88 13.12-8.28 0-15-6.71-15-15 0-7.64 5.72-13.95 13.12-14.88-.08.61-.12 1.24-.12 1.88 0 8.29 6.72 15 15 15 .64 0 1.26-.04 1.88-.12z" fill="#7fcb8f"/></g><g><g><path d="m489.5 186h-60.5v-110.127c0-12.407-10.094-22.5-22.5-22.5h-49.714l-48.676-48.296c-3.299-3.274-7.677-5.077-12.326-5.077h-144.353c-12.407 0-22.5 10.093-22.5 22.5v30.873h-23.431c-12.407 0-22.5 10.093-22.5 22.5v110.127h-60.5c-12.407 0-22.5 10.093-22.5 22.5v179c0 12.407 10.093 22.5 22.5 22.5h106v80.546c0 11.83 9.937 21.454 22.152 21.454h210.695c12.215 0 22.152-9.624 22.152-21.454v-25.823c0-4.142-3.357-7.5-7.5-7.5s-7.5 3.358-7.5 7.5v25.823c0 3.559-3.209 6.454-7.152 6.454h-210.695c-3.944 0-7.152-2.895-7.152-6.454v-139.535h31.287c4.142 0 7.5-3.358 7.5-7.5s-3.358-7.5-7.5-7.5h-103.287c-12.407 0-22.5 10.093-22.5 22.5v36.489h-26.5c-4.136 0-7.5-3.364-7.5-7.5v-179c0-4.136 3.364-7.5 7.5-7.5h26.5v76.207c0 12.407 10.093 22.5 22.5 22.5h369c12.406 0 22.5-10.093 22.5-22.5v-76.207h26.5c4.136 0 7.5 3.364 7.5 7.5v179c0 4.136-3.364 7.5-7.5 7.5h-26.5v-36.489c0-12.407-10.094-22.5-22.5-22.5h-230.734c-4.142 0-7.5 3.358-7.5 7.5s3.358 7.5 7.5 7.5h158.734v78.798c0 4.142 3.357 7.5 7.5 7.5s7.5-3.358 7.5-7.5v-19.809h106c12.406 0 22.5-10.093 22.5-22.5v-179c0-12.407-10.094-22.5-22.5-22.5zm-425.5 172.511c0-4.136 3.364-7.5 7.5-7.5h57v43.989h-64.5zm342.5-290.138c4.136 0 7.5 3.364 7.5 7.5v110.127h-30.932v-99.26c0-4.633-1.886-9.161-5.174-12.423l-5.991-5.944zm-49.138 6.701h-49.959v-49.568zm90.638 202.133c0 4.136-3.364 7.5-7.5 7.5h-369c-4.136 0-7.5-3.364-7.5-7.5v-76.207h242.83c4.143 0 7.5-3.358 7.5-7.5s-3.357-7.5-7.5-7.5h-162.899v-51.34c0-4.142-3.358-7.5-7.5-7.5s-7.5 3.358-7.5 7.5v51.34h-30.931v-110.127c0-4.136 3.365-7.5 7.5-7.5h23.431v31.308c0 4.142 3.358 7.5 7.5 7.5s7.5-3.358 7.5-7.5v-77.181c0-4.136 3.364-7.5 7.5-7.5h140.972v61.415c0 7.532 6.137 13.66 13.681 13.66h61.984v95.925h-26.26c-4.143 0-7.5 3.358-7.5 7.5s3.357 7.5 7.5 7.5h106.192zm-64.5 73.804h57c4.136 0 7.5 3.364 7.5 7.5v36.489h-64.5z"/><path d="m105.5 220.354c-12.407 0-22.5 10.093-22.5 22.5s10.093 22.5 22.5 22.5 22.5-10.093 22.5-22.5-10.093-22.5-22.5-22.5zm0 30c-4.136 0-7.5-3.364-7.5-7.5s3.364-7.5 7.5-7.5 7.5 3.364 7.5 7.5-3.364 7.5-7.5 7.5z"/><path d="m169.075 220.354c-12.407 0-22.5 10.093-22.5 22.5s10.093 22.5 22.5 22.5 22.5-10.093 22.5-22.5-10.094-22.5-22.5-22.5zm0 30c-4.136 0-7.5-3.364-7.5-7.5s3.364-7.5 7.5-7.5 7.5 3.364 7.5 7.5-3.365 7.5-7.5 7.5z"/><path d="m254.425 235.354h-35c-4.142 0-7.5 3.358-7.5 7.5s3.358 7.5 7.5 7.5h35c4.142 0 7.5-3.358 7.5-7.5s-3.358-7.5-7.5-7.5z"/><path d="m299.903 235.354c-4.143 0-7.5 3.358-7.5 7.5s3.357 7.5 7.5 7.5h121.597c4.143 0 7.5-3.358 7.5-7.5s-3.357-7.5-7.5-7.5z"/><path d="m228.553 465.968c-4.142 0-7.5 3.358-7.5 7.5s3.358 7.5 7.5 7.5h51.745c4.143 0 7.5-3.358 7.5-7.5s-3.357-7.5-7.5-7.5z"/><path d="m336.415 440.298c0-4.142-3.357-7.5-7.5-7.5h-161.447c-4.142 0-7.5 3.358-7.5 7.5s3.358 7.5 7.5 7.5h161.447c4.143 0 7.5-3.358 7.5-7.5z"/><path d="m352.463 409.5c0-4.142-3.357-7.5-7.5-7.5h-177.495c-4.142 0-7.5 3.358-7.5 7.5s3.358 7.5 7.5 7.5h177.495c4.142 0 7.5-3.358 7.5-7.5z"/><path d="m344.963 372.511h-87.473c-4.142 0-7.5 3.358-7.5 7.5s3.358 7.5 7.5 7.5h87.473c4.143 0 7.5-3.358 7.5-7.5s-3.358-7.5-7.5-7.5z"/></g></g></g></svg>