<svg id="Capa_1" enable-background="new 0 0 512 512" height="512" viewBox="0 0 512 512" width="512" xmlns="http://www.w3.org/2000/svg"><g><g id="_x3C_Group_x3E__27_"><path d="m424.339 501.422-332.339-1.954c-8.284 0-15-6.716-15-15l-2.46-421.639c0-8.284 6.716-15 15-15l2.8-2.052h332.322c8.284 0 15 6.716 15 15v423.723l-2.992 4.261c0 8.285-4.046 12.661-12.331 12.661z" fill="#b78c7a"/><path d="m337.06 45.78v53.41h-162.12v-53.41h16.996l48.44 15.092 79.688-15.092z" fill="#ab7b64"/><path d="m310.064 26.66h-33.632c-1.025 0-1.871-.778-1.982-1.797-1.065-9.763-9.324-17.363-19.37-17.363s-5.86 5.37-6.925 15.133c-.111 1.019-13.402 4.027-14.427 4.027h-31.792c-5.523 0-5.817 5.313-5.817 10.836l-4.183 44.696h128.128v-45.532c0-5.523-4.477-10-10-10z" fill="#ffe07d"/><path d="m211.94 67.19c-2.761 0-5-2.239-5-5v-25.53c0-5.52 4.47-10 10-10h-15c-5.53 0-10 4.48-10 10v30.53 15l60.656 13.434 67.464-13.434v-15z" fill="#ffd064"/><path d="m262.58 9c-6.42 2.67-11.09 8.68-11.87 15.86-.11 1.02-.96 1.8-1.98 1.8h-15c1.02 0 1.87-.78 1.98-1.8 1.06-9.76 9.32-17.36 19.37-17.36 2.66 0 5.19.53 7.5 1.5z" fill="#ffd064"/><path d="m439.66 484.5v5c0 8.28-6.71 15-15 15h-337.32c-8.29 0-15-6.72-15-15v-428.72c0-8.29 6.71-15 15-15h5v431.72c0 3.87 3.13 7 7 7z" fill="#ab7b64"/><path d="m120.908 465.968 200.367-3.078c2.621 0 5.137-1.029 7.006-2.865l68.514-68.947c1.915-1.88 2.994-4.451 2.994-7.135l4.018-8.843v-282.909c0-5.523-4.477-10-10-10h-270.617l-2.282 3.873c-5.523 0-10 4.477-10 10v359.904c0 5.523 4.477 10 10 10z" fill="#f5fcff"/><path d="m339.96 453.8-12.36 12.14c-1.87 1.84-4.39 2.86-7.01 2.86h-202.4c-5.52 0-10-4.47-10-10v-366.61c0-5.523 4.477-10 10-10h5v364.61c0 3.866 3.134 7 7 7z" fill="#e6f7fe"/><path d="m308.778 401.1v67.7h11.81c1.31 0 2.595-.255 3.786-.74s16.351-34.856 17.286-35.776l27.776-32.587c.874-.856 32.946-7.512 33.449-8.599.602-1.301.923-2.729.923-4.189v-11.809h-69.03c-14.34 0-26 11.66-26 26z" fill="#e6f7fe"/><path d="m324.778 401.1v66.79c1.04-.48 1.99-1.13 2.82-1.95l73.21-71.9c.87-.86 1.58-1.85 2.08-2.94h-68.11c-5.53 0-10 4.48-10 10z" fill="#d3effd"/><path d="m353.029 153.312-193.554-1.321c-2.761 0-5-2.239-5-5l-2.49-21.422c0-2.761 2.239-5 5-5l6.236-1.994h193.716c2.761 0 5 2.239 5 5v17.616l-3.908 7.122c0 2.76-2.239 4.999-5 4.999z" fill="#bed9fd"/><path d="m361.94 141.19v10c0 2.761-2.239 5-5 5h-203.72c-2.761 0-5-2.239-5-5v-27.62c0-2.761 2.239-5 5-5h10v17.62c0 2.761 2.239 5 5 5z" fill="#9ec8fc"/><path d="m213.518 397.619c0-17.862-14.48-32.342-32.342-32.342-3.425 0-6.725.532-9.823 1.519-13.06 4.158-16.879 15.272-16.879 29.709 0 17.862 8.84 27.501 26.702 27.501 14.438 0 26.666-3.504 30.824-16.564.986-3.098 1.518-6.398 1.518-9.823z" fill="#d5717f"/><path d="m211.995 407.44c-4.15 13.06-16.38 22.52-30.82 22.52-17.86 0-32.34-14.48-32.34-32.34 0-14.44 9.46-26.67 22.52-30.82-.99 3.1-1.52 6.4-1.52 9.82 0 17.86 14.48 32.34 32.34 32.34 3.42 0 6.72-.53 9.82-1.52z" fill="#cd5668"/></g><g><g><path d="m424.661 38.276h-97.098v-1.616c0-9.649-7.851-17.5-17.5-17.5h-29.148c-3.368-11.076-13.673-19.16-25.835-19.16s-22.467 8.084-25.835 19.16h-27.308c-9.649 0-17.5 7.851-17.5 17.5v1.617h-97.098c-12.406 0-22.5 10.093-22.5 22.5v428.723c0 12.407 10.094 22.5 22.5 22.5h25.661c4.143 0 7.5-3.358 7.5-7.5s-3.357-7.5-7.5-7.5h-25.661c-4.136 0-7.5-3.365-7.5-7.5v-428.724c0-4.135 3.364-7.5 7.5-7.5h97.098v21.415h-66.245c-9.649 0-17.5 7.851-17.5 17.5v238.745c0 4.142 3.357 7.5 7.5 7.5s7.5-3.358 7.5-7.5v-238.745c0-1.378 1.121-2.5 2.5-2.5h222.659c4.143 0 7.5-3.358 7.5-7.5s-3.357-7.5-7.5-7.5h-13.287v-21.415h97.098c4.136 0 7.5 3.365 7.5 7.5v428.724c0 4.135-3.364 7.5-7.5 7.5h-276.683c-4.143 0-7.5 3.358-7.5 7.5s3.357 7.5 7.5 7.5h276.683c12.406 0 22.5-10.093 22.5-22.5v-428.724c-.001-12.406-10.095-22.5-22.501-22.5zm-169.581-23.276c6.617 0 12 5.383 12 12s-5.383 12-12 12-12-5.383-12-12 5.383-12 12-12zm-55.643 59.691v-38.031c0-1.378 1.121-2.5 2.5-2.5h27.115c3.145 11.423 13.619 19.84 26.028 19.84s22.883-8.417 26.029-19.84h28.954c1.379 0 2.5 1.122 2.5 2.5v38.032h-113.126z"/><path d="m286.957 126.075c4.143 0 7.5-3.358 7.5-7.5s-3.357-7.5-7.5-7.5h-133.733c-6.893 0-12.5 5.607-12.5 12.5v27.611c0 6.893 5.607 12.5 12.5 12.5h203.713c6.893 0 12.5-5.607 12.5-12.5v-27.611c0-6.893-5.607-12.5-12.5-12.5h-34.915c-4.143 0-7.5 3.358-7.5 7.5s3.357 7.5 7.5 7.5h32.415v22.611h-198.713v-22.611z"/><path d="m148.224 224.589h12.521c4.143 0 7.5-3.358 7.5-7.5s-3.357-7.5-7.5-7.5h-12.521c-4.143 0-7.5 3.358-7.5 7.5s3.357 7.5 7.5 7.5z"/><path d="m361.937 209.589h-155.235c-4.143 0-7.5 3.358-7.5 7.5s3.357 7.5 7.5 7.5h155.234c4.143 0 7.5-3.358 7.5-7.5s-3.357-7.5-7.499-7.5z"/><path d="m148.224 259.713h12.521c4.143 0 7.5-3.358 7.5-7.5s-3.357-7.5-7.5-7.5h-12.521c-4.143 0-7.5 3.358-7.5 7.5s3.357 7.5 7.5 7.5z"/><path d="m206.702 259.713h45.191c4.143 0 7.5-3.358 7.5-7.5s-3.357-7.5-7.5-7.5h-45.191c-4.143 0-7.5 3.358-7.5 7.5s3.358 7.5 7.5 7.5z"/><path d="m361.937 244.713h-68.682c-4.143 0-7.5 3.358-7.5 7.5s3.357 7.5 7.5 7.5h68.682c4.143 0 7.5-3.358 7.5-7.5s-3.358-7.5-7.5-7.5z"/><path d="m148.224 294.836h12.521c4.143 0 7.5-3.358 7.5-7.5s-3.357-7.5-7.5-7.5h-12.521c-4.143 0-7.5 3.358-7.5 7.5s3.357 7.5 7.5 7.5z"/><path d="m369.437 287.336c0-4.142-3.357-7.5-7.5-7.5h-155.235c-4.143 0-7.5 3.358-7.5 7.5s3.357 7.5 7.5 7.5h155.234c4.143 0 7.501-3.357 7.501-7.5z"/><path d="m148.224 330.407h12.521c4.143 0 7.5-3.358 7.5-7.5s-3.357-7.5-7.5-7.5h-12.521c-4.143 0-7.5 3.358-7.5 7.5s3.357 7.5 7.5 7.5z"/><path d="m352.841 322.907c0-4.142-3.357-7.5-7.5-7.5h-138.639c-4.143 0-7.5 3.358-7.5 7.5s3.357 7.5 7.5 7.5h138.639c4.142 0 7.5-3.358 7.5-7.5z"/><path d="m108.191 358.479c-4.143 0-7.5 3.358-7.5 7.5v92.826c0 9.649 7.851 17.5 17.5 17.5h202.4c4.614 0 8.969-1.78 12.262-5.013l73.216-71.895c3.329-3.27 5.239-7.821 5.239-12.487v-294.719c0-9.649-7.851-17.5-17.5-17.5h-17.915c-4.143 0-7.5 3.358-7.5 7.5s3.357 7.5 7.5 7.5h17.915c1.379 0 2.5 1.122 2.5 2.5v291.413h-61.532c-9.649 0-17.5 7.851-17.5 17.5v60.2h-199.085c-1.379 0-2.5-1.122-2.5-2.5v-92.826c0-4.142-3.357-7.499-7.5-7.499zm226.585 40.125h50.69l-53.19 52.23v-49.73c0-1.378 1.121-2.5 2.5-2.5z"/><path d="m141.337 397.619c0 21.969 17.873 39.842 39.842 39.842 21.97 0 39.843-17.873 39.843-39.842s-17.873-39.843-39.843-39.843c-21.969 0-39.842 17.874-39.842 39.843zm64.684 0c0 13.698-11.145 24.842-24.843 24.842s-24.842-11.144-24.842-24.842 11.144-24.843 24.842-24.843 24.843 11.145 24.843 24.843z"/></g></g></g></svg>