<svg id="Capa_1" enable-background="new 0 0 512 512" height="512" viewBox="0 0 512 512" width="512" xmlns="http://www.w3.org/2000/svg"><g><g id="_x3C_Group_x3E__25_"><path d="m342.085 42.303-176.585-3.803 7.5-11.39c0-5.523-3.023-19.61 2.5-19.61h161c5.523 0 10 4.477 10 10v6z" fill="#e6f7fe"/><path d="m346.5 23.5v15l-83 13.271-98-13.271v-21c0-5.523 4.477-10 10-10h5v12c0 2.209 1.791 4 4 4z" fill="#d3effd"/><path d="m94.775 504.5h-19.973c-2.761 0 3.85-56.709 3.85-59.47l-8.85-51.19h29.974v105.66c-.001 2.761-2.239 5-5.001 5z" fill="#e6f7fe"/><path d="m437.198 504.5h-19.974c-2.761 0 3.592-56.709 3.592-59.47l-8.592-51.19h29.974v105.66c0 2.761-2.238 5-5 5z" fill="#e6f7fe"/><g fill="#d3effd"><path d="m69.8 393.84v26 79.66c0 2.761 2.239 5 5 5h16c-2.76 0-5-2.24-5-5v-74.66c0-2.761 2.239-5 5-5h8.98v-26h-13.98z"/><path d="m442.2 419.84v-26h-13.98-16v26 79.66c0 2.761 2.239 5 5 5h16c-2.76 0-5-2.24-5-5v-74.66c0-2.761 2.239-5 5-5z"/></g><path d="m459.789 393.84-401.97 1.49c-8.284 0-15-6.716-15-15l-1.158-325.257c0-8.284 2.523-16.573 10.808-16.573h17.17l188.161 23.179 184.562-23.179h17.17c8.284 0 15 6.716 15 15v331.34c0 8.285-6.459 9-14.743 9z" fill="#5f6c75"/><path d="m474.53 382.84v2c0 8.284-6.716 15-15 15h-407.06c-8.29 0-15-6.72-15-15v-331.34c0-8.28 6.71-15 15-15h2v339.34c0 2.761 2.239 5 5 5z" fill="#4e5a61"/><path d="m427.211 363.34-346.202-3.549c-2.761 0-5-2.239-5-5l-1.321-312.929 11.952-3.362h355.722v311.84l-10.15 8c-.001 2.761-2.239 5-5.001 5z" fill="#f5fcff"/><path d="m442.36 350.34v12c0 2.76-2.24 5-5 5h-362.72c-2.76 0-5-2.24-5-5v-323.84h17v306.84c0 2.76 2.24 5 5 5z" fill="#e6f7fe"/><path d="m271.809 444.926c0-8.731-7.078-15.809-15.809-15.809-.886 0-1.754.073-2.6.213-7.494 1.24-8.18 7.855-8.18 15.7 0 8.731 2.049 11.438 10.78 11.438 7.847 0 14.359-1.452 15.597-8.948.139-.845.212-1.711.212-2.594z" fill="#d5717f"/><path d="m271.6 447.52c-1.24 7.5-7.75 13.21-15.6 13.21-8.73 0-15.81-7.07-15.81-15.8 0-7.85 5.72-14.36 13.21-15.6-.14.85-.21 1.71-.21 2.6 0 8.73 7.08 15.8 15.81 15.8.88 0 1.75-.07 2.6-.21z" fill="#cd5668"/><path d="m257.8 254.89c.027 17.622-6.22 33.907-16.619 46.714-5.074 6.249-12.61 10.71-19.415 15.055l-15.133-12.724-1.373-16.716c10.46-7.09 17.31-19.12 17.18-32.62-.01-1.18-.08-2.34-.19-3.49-.18-1.74 1.03-3.32 2.75-3.64l28.21-5.12c1.89-.34 3.69.96 3.94 2.86.43 3.211.65 6.441.65 9.681z" fill="#ffe07d"/><path d="m144.62 255.65c.04 2.36.29 4.66.73 6.9l-14.42 14.138-16.409-5.344c-1.34-5.51-3.201-10.529-3.211-16.429-.02-15.42 4.049-28.55 12.209-40.49l16.171 3.745 10.3 17.18c-3.52 5.96-5.49 12.91-5.37 20.3z" fill="#d5717f"/><path d="m243.37 298.78c-5.48 7.45-12.32 13.85-20.13 18.84l-8.185-2.29 4.045-4.71c7.2-1.99 13.98-5.05 20.14-8.99v-.01c1.41-.9 2.79-1.85 4.13-2.84z" fill="#ffd064"/><path d="m130.69 266.73-7.451 8.307-11.929-2.777c-1.34-5.51-2.05-11.25-2.06-17.15-.02-15.42 4.76-29.81 12.92-41.75l4.041-1.406 2.049 6.216c-1.97 6.65-3.02 13.68-3.01 20.94.01 5.9.72 11.64 2.06 17.15.87 3.6 2 7.09 3.38 10.47z" fill="#cd5668"/><path d="m230.57 122.276 161.843 2.5c2.761 0 5-2.239 5-5l2.055-4.996v-15.003c0-2.761-2.239-5-5-5h-159.238l-6.99 4.883c-2.761 0-5 2.239-5 5l2.33 12.617c0 2.761 2.239 4.999 5 4.999z" fill="#94d4a2"/><path d="m399.47 114.78v10c0 2.761-2.239 5-5 5h-169.24c-2.761 0-5-2.239-5-5v-25c0-2.761 2.239-5 5-5h10v17c0 1.657 1.343 3 3 3z" fill="#7fcb8f"/><path d="m208.17 188.6-9.98 26.88c-.6 1.64-2.36 2.55-4.04 2.08-3.52-1-7.25-1.52-11.1-1.47-14.08.17-26.37 7.91-33.06 19.26l-21.732-17.178-2.662-4.812c2.541-3.718 1.984-7.199 5.138-10.397 13.478-13.67 32.158-22.2 52.677-22.233 7.69-.02 15.32 1.17 22.63 3.49 1.829.58 2.799 2.58 2.129 4.38z" fill="#bed9fd"/><path d="m139.69 195.22c-.52.7-1.03 1.42-1.52 2.14-4.32 6.32-7.69 13.33-9.91 20.81l-6.09-4.81c4.78-6.99 10.71-13.13 17.52-18.14z" fill="#9ec8fc"/><path d="m223.24 317.62-1.474-.96c-11.48 7.34-22.757 9.682-37.277 9.702-34.85.06-62.47-20.899-70.34-53.489l8.759-.313 7.782-5.828 14.66-4.182c3.54 18.01 19.5 31.56 38.58 31.36 7.89-.08 15.22-2.54 21.33-6.69l13.84 23.4-9.164 5.04z" fill="#94d4a2"/><path d="m223.24 317.62v.01c-11.48 7.34-25.08 11.62-39.6 11.64-34.85.06-64.46-24.42-72.33-57.01l19.38-5.53c11.09 27.22 37.95 46.59 68.95 46.54 6.72-.01 13.25-.94 19.46-2.65z" fill="#7fcb8f"/></g><g><g><path d="m459.532 31h-105.532v-13.5c0-9.649-7.851-17.5-17.5-17.5h-161c-9.649 0-17.5 7.851-17.5 17.5v13.5h-18.575c-4.142 0-7.5 3.358-7.5 7.5s3.358 7.5 7.5 7.5h295.437v313.84h-357.724v-72.925c0-4.142-3.358-7.5-7.5-7.5s-7.5 3.358-7.5 7.5v75.425c0 6.893 5.607 12.5 12.5 12.5h173.862v17.5h-196.032c-4.136 0-7.5-3.364-7.5-7.5v-331.34c0-4.136 3.364-7.5 7.5-7.5h9.67v205.936c0 4.142 3.358 7.5 7.5 7.5s7.5-3.358 7.5-7.5v-205.936h26.926c4.142 0 7.5-3.358 7.5-7.5s-3.358-7.5-7.5-7.5h-51.596c-12.407 0-22.5 10.093-22.5 22.5v331.34c0 12.407 10.093 22.5 22.5 22.5h9.833v92.16c0 6.893 5.607 12.5 12.5 12.5h19.974c6.893 0 12.5-5.607 12.5-12.5v-92.16h141.225v15.522c-9.183 3.13-15.809 11.835-15.809 22.063 0 12.853 10.456 23.309 23.309 23.309s23.309-10.456 23.309-23.309c0-10.228-6.626-18.933-15.809-22.063v-15.522h24.075c4.142 0 7.5-3.358 7.5-7.5s-3.358-7.5-7.5-7.5h-24.075v-17.5h173.862c6.893 0 12.5-5.607 12.5-12.5v-316.34h9.67c4.136 0 7.5 3.364 7.5 7.5v331.34c0 4.136-3.364 7.5-7.5 7.5h-136.851c-4.142 0-7.5 3.358-7.5 7.5s3.358 7.5 7.5 7.5h82.044v92.16c0 6.893 5.607 12.5 12.5 12.5h19.974c6.893 0 12.5-5.607 12.5-12.5v-92.16h9.833c12.407 0 22.5-10.093 22.5-22.5v-331.34c0-12.407-10.094-22.5-22.5-22.5zm-367.257 466h-14.973v-89.66h14.974v89.66zm163.725-43.766c-4.582 0-8.309-3.727-8.309-8.309 0-4.581 3.727-8.308 8.309-8.308s8.309 3.727 8.309 8.308c0 4.582-3.727 8.309-8.309 8.309zm-83-435.734c0-1.378 1.122-2.5 2.5-2.5h161c1.378 0 2.5 1.122 2.5 2.5v13.5h-166zm261.698 479.5h-14.974v-89.66h14.974z"/><path d="m183.529 173.226c-20.846-.107-42.572 8.655-57.809 24.141-15.488 15.535-24 36.047-23.967 57.756.033 21.71 8.606 42.196 24.142 57.684 15.506 15.459 35.966 23.968 57.63 23.967 20.846.107 42.572-8.655 57.81-24.141 15.488-15.535 24-36.047 23.967-57.756-.005-3.55-.245-7.134-.712-10.649-.389-2.926-1.981-5.602-4.369-7.342-2.393-1.743-5.436-2.438-8.348-1.911l-28.215 5.12c-5.53 1.004-9.428 6.166-8.874 11.752.093.936.145 1.888.154 2.83.13 17.014-13.671 31.562-31.406 31.736-17.072 0-31.133-13.789-31.414-30.886.068-7.603 2.488-15.715 8.923-22.39 5.885-6.056 13.732-9.447 22.096-9.548 3.044-.037 6.067.36 8.97 1.184 5.397 1.529 11.162-1.408 13.118-6.684l9.977-26.879c1.029-2.775.875-5.892-.423-8.552-1.295-2.655-3.652-4.69-6.463-5.584-8.027-2.554-16.365-3.848-24.787-3.848zm-46.354 83.857-19.951 5.69c-.297-2.531-.467-5.089-.471-7.672-.017-11.026 2.67-21.43 7.408-30.611l16.407 12.973c-1.861 4.554-3.804 12.448-3.393 19.62zm92.763-2.557c-.001-.108-.002-.217-.004-.326l20.218-3.669c.098 1.456.148 2.915.15 4.367.032 20.935-9.632 39.657-24.738 51.932l-10.519-17.79c9.269-8.591 15.03-20.908 14.893-34.514zm-46.407 46.887c5.358.015 12.829-1.29 18.992-4.076l10.407 17.599c-7.652 3.901-19.235 6.873-29.403 6.838-17.665 0-34.368-6.955-47.041-19.589-7.173-7.152-12.528-15.601-15.837-24.79l19.626-5.598c6.768 17.325 23.666 29.618 43.256 29.616zm8.904-91.969c-3.11-.606-6.28-.894-9.48-.854-12.382.15-23.984 5.156-32.67 14.093-.613.631-1.201 1.279-1.773 1.937l-15.992-12.645c12.236-14.484 30.505-23.719 50.907-23.749 3.913-.001 10.085.504 16.157 1.958z"/><path d="m164.734 87.16h-56.247c-4.142 0-7.5 3.358-7.5 7.5s3.358 7.5 7.5 7.5h56.247c4.142 0 7.5-3.358 7.5-7.5s-3.358-7.5-7.5-7.5z"/><path d="m165.5 122.276h-56.247c-4.142 0-7.5 3.358-7.5 7.5s3.358 7.5 7.5 7.5h56.247c4.142 0 7.5-3.358 7.5-7.5s-3.358-7.5-7.5-7.5z"/><path d="m399.468 208.047h-98.043c-4.142 0-7.5 3.358-7.5 7.5s3.358 7.5 7.5 7.5h98.043c4.142 0 7.5-3.358 7.5-7.5s-3.358-7.5-7.5-7.5z"/><path d="m399.468 245.627h-62.638c-4.142 0-7.5 3.358-7.5 7.5s3.358 7.5 7.5 7.5h62.639c4.142 0 7.5-3.358 7.5-7.5s-3.359-7.5-7.501-7.5z"/><path d="m399.468 280.415h-62.638c-4.142 0-7.5 3.358-7.5 7.5s3.358 7.5 7.5 7.5h62.639c4.142 0 7.5-3.358 7.5-7.5s-3.359-7.5-7.501-7.5z"/><path d="m399.468 314.361h-62.638c-4.142 0-7.5 3.358-7.5 7.5s3.358 7.5 7.5 7.5h62.639c4.142 0 7.5-3.358 7.5-7.5s-3.359-7.5-7.501-7.5z"/><path d="m305.511 245.627h-4.085c-4.142 0-7.5 3.358-7.5 7.5s3.358 7.5 7.5 7.5h4.085c4.142 0 7.5-3.358 7.5-7.5s-3.358-7.5-7.5-7.5z"/><path d="m305.511 280.415h-4.085c-4.142 0-7.5 3.358-7.5 7.5s3.358 7.5 7.5 7.5h4.085c4.142 0 7.5-3.358 7.5-7.5s-3.358-7.5-7.5-7.5z"/><path d="m305.511 314.361h-4.085c-4.142 0-7.5 3.358-7.5 7.5s3.358 7.5 7.5 7.5h4.085c4.142 0 7.5-3.358 7.5-7.5s-3.358-7.5-7.5-7.5z"/><path d="m406.968 99.776c0-6.893-5.607-12.5-12.5-12.5h-169.234c-6.893 0-12.5 5.607-12.5 12.5v25c0 6.893 5.607 12.5 12.5 12.5h110.915c4.142 0 7.5-3.358 7.5-7.5s-3.358-7.5-7.5-7.5h-108.415v-20h164.234v20h-20.755c-4.142 0-7.5 3.358-7.5 7.5s3.358 7.5 7.5 7.5h23.255c6.893 0 12.5-5.607 12.5-12.5z"/><path d="m399.468 173.84h-98.043c-4.142 0-7.5 3.358-7.5 7.5s3.358 7.5 7.5 7.5h98.043c4.142 0 7.5-3.358 7.5-7.5s-3.358-7.5-7.5-7.5z"/></g></g></g></svg>