<svg id="Capa_1" enable-background="new 0 0 511.993 511.993" height="512" viewBox="0 0 511.993 511.993" width="512" xmlns="http://www.w3.org/2000/svg"><g><g id="_x3C_Group_x3E__24_"><path d="m306.39 69.611-22.992 61.959-9.48 14.325c-1.84 4.94-7.15 7.71-12.22 6.27-10.65-3.02-23.985-3.216-35.625-3.076-14.81.18-28.97 3.13-41.99 8.36l-29.663-41.174-7.43-53.574c26.15-10.83 54.73-16.84 84.6-16.89 23.22-.03 46.28 3.53 68.37 10.56 5.53 1.76 8.45 7.8 6.43 13.24z" fill="#ffe07d"/><path d="m184.082 158.621c-12.56 5.03-25.009 14.59-35.009 23.39l-42.463-32.268-17.81-51.812c17.4-14.51 37-26.46 58.19-35.23l30.611 72.53z" fill="#94d4a2"/><path d="m109.66 271.285c.34 21.03.72 44.251 10.72 61.211l-31.58 37.431-49.36 15.084c-20.2-33.57-31.87-72.74-31.94-114.43-.11-69.04 31.66-131.28 81.3-172.65l48.371 61.979 10.911 22.476c-25.01 22.04-39.002 53.159-38.422 88.899z" fill="#7fcb8f"/><path d="m456.36 269.901c.18 123.12-100.97 224.58-224.09 224.77-81.43.12-153.39-44.09-192.83-109.66l67.172-40.636 16.29-17.491c20.65 35.01 62.587 68.887 106.257 68.437 64.62-.66 124.858-59.986 124.208-124.606-.03-3.56-.529-6.617-.869-10.097-.52-5.26 2.607-7.537 7.817-8.477l17.075-8.297 65.099-11.813c5.71-1.04 11.15 2.89 11.91 8.64 1.291 9.69 1.941 19.45 1.961 29.23z" fill="#d5717f"/><path d="m283.4 131.571-7.15 19.26c-1.84 4.94-7.15 7.71-12.22 6.27-10.65-3.02-21.91-4.57-33.55-4.43-14.81.18-28.97 3.13-41.99 8.36l-10.89-11.288v-14.512l.45-.18c16.6-6.67 34.12-10.16 52.09-10.38.6-.01 15.48.38 16.08.38 3.15 0 19.22 2.79 37.18 6.52z" fill="#ffd064"/><path d="m188.49 161.031c-12.56 5.03-24.07 12.18-34.07 20.98l-17.25-5.405v-16.695c12.11-10.43 25.72-18.73 40.43-24.68z" fill="#7fcb8f"/><path d="m114.36 272.201c.34 21.03 6.21 40.72 16.21 57.68l-7.258 14.49h-16.702c-.05-.09-.11-.18-.16-.27-12.73-21.6-19.68-46.3-20.09-71.45-.69-42.6 17.37-83.29 49.56-111.66.41-.36.83-.73 1.25-1.08l17.25 22.1c-25.01 22.04-40.64 54.45-40.06 90.19z" fill="#71bf7e"/><path d="m377.49 272.281c-1.09 78.67-64.99 142.72-144.05 143.53-.51 0-1.02.01-1.53.01-51.18 0-99.17-27.37-125.3-71.45l23.96-14.49c20.65 35.01 58.91 58.38 102.58 57.93 64.62-.66 117-54.16 116.35-118.78-.03-3.56-.23-7.08-.57-10.56-.52-5.26 3.1-10.03 8.31-10.97l20.15-3.66c1.13 12.88.1 28.44.1 28.44z" fill="#cd5668"/><path d="m413.676 193.925 14.533 4.376 67.926-12.227c5.698-1.026 9.4-6.607 8.105-12.251-7.875-34.314-23.75-66.345-46.388-93.437-22.637-27.092-51.336-48.408-83.705-62.256-5.323-2.277-11.474.374-13.496 5.799l-23.661 63.482 1.66 17.855c-1.852 4.97.447 10.503 5.251 12.75 31.163 14.574 49.243 34.603 58.162 68.477 1.351 5.129 6.394 8.372 11.613 7.432z" fill="#bed9fd"/><path d="m428.21 198.301-17.08 3.08c-5.22.93-10.27-2.31-11.62-7.44-8.91-33.87-32.61-61.75-63.78-76.32-4.8-2.25-7.1-7.78-5.25-12.75l6.51-17.46c12.19 7.9 21.48 13.96 21.48 13.96 28.24 16.66 49.75 42.4 61.08 73.09 0 0 4.33 10.5 8.66 23.84z" fill="#9ec8fc"/><path d="m280.14 51.811c-.25-.01-.35-.02-.28-.05.04-.02.14 0 .28.05z" fill="#cd5668"/></g><g><g><path d="m454.736 227.76c-3.894-2.837-8.845-3.971-13.585-3.11l-85.255 15.472c-8.994 1.633-15.333 10.021-14.432 19.097.325 3.262.506 6.59.54 9.893.144 14.274-2.447 28.214-7.7 41.433-1.53 3.85.351 8.21 4.2 9.74 3.854 1.533 8.21-.351 9.74-4.2 5.976-15.038 8.923-30.893 8.76-47.125-.038-3.746-.244-7.522-.612-11.224-.135-1.354.825-2.608 2.184-2.855l85.254-15.472c.988-.182 1.725.221 2.075.476.342.249.935.811 1.063 1.776 1.24 9.332 1.876 18.838 1.891 28.252.087 57.542-22.506 111.941-63.617 153.177s-95.441 63.993-152.983 64.08c-.109 0-.208 0-.317 0-74.201 0-142.601-39.343-182.025-99.731l78.228-47.331c4.754 7.031 10.253 13.633 16.468 19.693 23.269 22.805 55.567 35.991 88.617 35.514 37.463-.382 72.524-17.5 96.193-46.962 2.594-3.229 2.08-7.95-1.149-10.544-3.23-2.594-7.949-2.079-10.544 1.149-20.845 25.947-51.7 41.021-84.653 41.357-60.371.589-110.223-47.938-111.212-108.233-.482-29.37 10.616-57.238 31.249-78.468 20.614-21.211 48.121-33.089 77.454-33.445 10.67-.125 21.249 1.267 31.42 4.149 8.755 2.482 18.107-2.299 21.292-10.882l30.142-81.214c1.676-4.516 1.426-9.588-.686-13.918-2.104-4.316-5.932-7.625-10.5-9.079-22.766-7.242-46.417-10.913-70.304-10.913-.117 0-.235 0-.353 0-61.549.093-119.644 24.416-163.584 68.489-43.941 44.073-68.088 102.241-67.995 163.79.008 5.853.243 11.771.697 17.591.322 4.129 3.931 7.213 8.061 6.894 4.129-.322 7.216-3.931 6.894-8.061-.424-5.44-.644-10.973-.651-16.446-.087-57.542 22.506-111.941 63.617-153.177 2.969-2.978 6.015-5.848 9.119-8.632l56.556 72.456c-.65.641-1.297 1.287-1.936 1.944-23.434 24.113-36.038 55.78-35.49 89.168.318 19.401 5.035 38.068 13.642 54.868l-78.348 47.404c-9.378-16.794-16.606-34.979-21.232-54.222-.969-4.028-5.017-6.511-9.045-5.539-4.027.968-6.507 5.018-5.539 9.045 11.968 49.779 40.835 95.024 81.285 127.399 41.008 32.823 92.243 50.886 144.312 50.886h.34c61.549-.093 119.644-24.417 163.583-68.489 43.94-44.073 68.087-102.242 67.995-163.791-.016-10.065-.696-20.228-2.021-30.206-.634-4.75-3.223-9.096-7.103-11.923zm-311.74-155.226 7.622 18.059c1.208 2.864 3.988 4.586 6.913 4.586.972 0 1.961-.19 2.913-.592 3.816-1.61 5.604-6.01 3.994-9.826l-7.577-17.953c23.66-8.821 48.874-13.456 74.741-13.495 22.474-.002 44.688 3.399 66.086 10.207.93.296 1.38.979 1.565 1.359.19.389.456 1.182.105 2.125l-30.142 81.214c-.482 1.299-1.861 2.033-3.14 1.669-11.561-3.276-23.573-4.864-35.692-4.717-13.028.158-25.734 2.322-37.781 6.326l-14.576-34.536c-1.61-3.815-6.009-5.603-9.826-3.993-3.816 1.61-5.604 6.01-3.993 9.826l14.474 34.293c-8.14 3.859-15.877 8.618-23.091 14.227l-56.357-72.2c13.618-10.648 28.298-19.543 43.762-26.579z"/><path d="m511.551 172.146c-8.111-35.346-24.689-68.739-47.942-96.568-6.985-8.359-14.632-16.294-22.728-23.583-3.077-2.771-7.819-2.522-10.592.556-2.771 3.078-2.523 7.82.556 10.592 7.571 6.816 14.722 14.236 21.253 22.054 21.745 26.024 37.248 57.251 44.833 90.306.218.95-.139 1.683-.371 2.035-.235.356-.776.98-1.753 1.156l-85.009 15.302c-1.367.249-2.672-.596-3.031-1.96-9.44-35.856-34.173-65.455-67.855-81.207-1.284-.6-1.886-2.035-1.401-3.336l30.169-80.943c.347-.93 1.056-1.351 1.449-1.519.388-.167 1.172-.389 2.069-.004 11.395 4.875 22.441 10.772 32.832 17.529 3.471 2.257 8.118 1.273 10.376-2.199s1.273-8.118-2.199-10.376c-11.111-7.226-22.924-13.532-35.108-18.745-4.408-1.886-9.466-1.883-13.879.008-4.419 1.894-7.917 5.563-9.595 10.067l-30.169 80.943c-3.187 8.551.812 18.286 9.102 22.163 29.639 13.861 51.4 39.899 59.704 71.437 2.063 7.838 9.251 13.18 17.113 13.18 1.018 0 2.049-.09 3.081-.275l85.009-15.302c4.731-.852 8.964-3.642 11.614-7.654 2.643-4.007 3.544-8.984 2.472-13.657z"/></g></g></g></svg>