<svg id="Capa_1" enable-background="new 0 0 512 512" height="512" viewBox="0 0 512 512" width="512" xmlns="http://www.w3.org/2000/svg"><g><g id="_x3C_Group_x3E__18_"><path d="m479.5 463.191h-5.5l-230.3-31.259-205.7 31.259h-5.5c-13.807 0-25-11.193-25-25v-226.688c0-13.807 11.193-25 25-25h447c13.807 0 25 11.193 25 25v226.689c0 13.807-11.193 24.999-25 24.999z" fill="#bed9fd"/><path d="m474 68.81v374.38l-1.681 15.044-242.468 2.043-6.151-411.467h230.3c11.05 0 20 8.95 20 20z" fill="#5f6c75"/><path d="m474 443.19v20h-250.3l-15.749-211.04 15.749-203.34h20v388.38c0 3.314 2.686 6 6 6z" fill="#4e5a61"/><path d="m223.7 48.81v414.38h-185.7v-394.38c0-11.05 8.95-20 20-20z" fill="#5f6c75"/><path d="m223.7 443.19v20h-185.7v-394.38c0-9.68 6.87-17.75 16-19.6v387.98c0 3.314 2.686 6 6 6z" fill="#4e5a61"/><path d="m419.642 134.68-140.477-2.315c-5.523 0-10-4.477-10-10l-.128-13.641c0-5.523 4.477-10 10-10l3.443-2.8h139.515c5.523 0 10 4.477 10 10v12.997l-2.352 5.76c-.001 5.522-4.478 9.999-10.001 9.999z" fill="#f5fcff"/><path d="m431.99 118.92v7c0 5.523-4.477 10-10 10h-146.51c-5.52 0-10-4.47-10-10v-20c0-5.523 4.477-10 10-10h7v18c0 2.761 2.239 5 5 5z" fill="#e6f7fe"/><path d="m161.367 423.458-67.376.533c-13.807 0-22.659-9.104-22.659-22.911v-289.53c0-12.081 6.155-23.137 17.548-25.468 1.627-.333 3.312-.508 5.038-.508h66.974c13.807 0 25 11.193 25 25v290.851c0 1.714-.172 3.388-.501 5.004-2.319 11.41-11.931 17.029-24.024 17.029z" fill="#bed9fd"/><path d="m185.39 406.43c-2.32 11.41-12.4 20-24.5 20h-66.97c-13.81 0-25-11.2-25-25v-290.86c0-12.09 8.59-22.18 20-24.5v308.36c0 6.627 5.373 12 12 12z" fill="#9ec8fc"/><g fill="#4e5a61"><path d="m296.383 186.503h-14.943v-.003h-10c-2.77 0-5 2.24-5 5v20c0 2.76 2.23 5 5 5h2.941c.009 0 .017.003.025.003l.02-.003h21.953c2.76 0 5-2.24 5-5v-9.988l.003-.012v-9.997c.001-2.762-2.238-5-4.999-5z"/><path d="m361.38 186.5h-14.943l-.007.002v-.002h-10c-2.76 0-5 2.24-5 5v20c0 2.76 2.24 5 5 5h24.95c2.76 0 5-2.24 5-5v-10h-.001l.001-.003v-9.997c0-2.761-2.239-5-5-5z"/><path d="m431.99 191.5c0-2.761-2.239-5-5-5h-14.94-.003-9.997c-2.76 0-5 2.24-5 5v20c0 2.76 2.24 5 5 5h24.94c2.77 0 5-2.24 5-5v-10h-.001l.001-.003z"/><path d="m426.99 246.5h-14.94-.003-9.997c-2.76 0-5 2.24-5 5v20c0 2.76 2.24 5 5 5h24.94c2.77 0 5-2.24 5-5v-10h-.001l.001-.003v-9.997c0-2.761-2.239-5-5-5z"/><path d="m361.38 246.5h-14.943l-.007.002v-.002h-10c-2.76 0-5 2.24-5 5v20c0 2.76 2.24 5 5 5h24.95c2.76 0 5-2.24 5-5v-10h-.001l.001-.003v-9.997c0-2.761-2.239-5-5-5z"/><path d="m296.383 246.5h-14.943-10c-2.77 0-5 2.24-5 5v20c0 2.76 2.23 5 5 5h24.94c2.76 0 5-2.24 5-5v-9.991l.003-.012v-9.997c0-2.761-2.239-5-5-5z"/><path d="m296.383 306.5h-14.943-10c-2.77 0-5 2.24-5 5v20c0 2.76 2.23 5 5 5h24.94c2.76 0 5-2.24 5-5v-9.991l.003-.012v-9.997c0-2.761-2.239-5-5-5z"/><path d="m361.38 306.5h-14.943l-.007.002v-.002h-10c-2.76 0-5 2.24-5 5v20c0 2.76 2.24 5 5 5h24.95c2.76 0 5-2.24 5-5v-10h-.001l.001-.003v-9.997c0-2.761-2.239-5-5-5z"/><path d="m426.99 306.5h-14.94-.003-9.997c-2.76 0-5 2.24-5 5v20c0 2.76 2.24 5 5 5h24.94c2.77 0 5-2.24 5-5v-10h-.001l.001-.003v-9.997c0-2.761-2.239-5-5-5z"/></g><path d="m431.995 400.957c0-11.99-9.72-21.71-21.71-21.71-1.106 0-2.193.083-3.255.242-10.446 1.57-14.801 10.706-14.801 21.59 0 11.99 6.065 18.782 18.055 18.782 10.457 0 19.187-4.588 21.249-14.432.303-1.442.462-2.938.462-4.472z" fill="#94d4a2"/><path d="m431.53 405.43c-2.06 9.84-10.79 17.24-21.25 17.24-11.99 0-21.71-9.72-21.71-21.71 0-10.89 8.01-19.9 18.46-21.47-.3 1.44-.46 2.94-.46 4.47 0 11.99 9.72 21.71 21.71 21.71 1.1 0 2.19-.08 3.25-.24z" fill="#7fcb8f"/></g><g id="_x3C_Group_x3E__1_"><path d="m479.5 463.191h-5.5l-230.3-31.259-205.7 31.259h-5.5c-13.807 0-25-11.193-25-25v-226.688c0-13.807 11.193-25 25-25h447c13.807 0 25 11.193 25 25v226.689c0 13.807-11.193 24.999-25 24.999z" fill="#bed9fd"/><path d="m474 68.81v374.38l-1.681 15.044-242.468 2.043-6.151-411.467h230.3c11.05 0 20 8.95 20 20z" fill="#5f6c75"/><path d="m474 443.19v20h-250.3l-15.749-211.04 15.749-203.34h20v388.38c0 3.314 2.686 6 6 6z" fill="#4e5a61"/><path d="m223.7 48.81v414.38h-185.7v-394.38c0-11.05 8.95-20 20-20z" fill="#5f6c75"/><path d="m223.7 443.19v20h-185.7v-394.38c0-9.68 6.87-17.75 16-19.6v387.98c0 3.314 2.686 6 6 6z" fill="#4e5a61"/><path d="m419.642 134.68-140.477-2.315c-5.523 0-10-4.477-10-10l-.128-13.641c0-5.523 4.477-10 10-10l3.443-2.8h139.515c5.523 0 10 4.477 10 10v12.997l-2.352 5.76c-.001 5.522-4.478 9.999-10.001 9.999z" fill="#f5fcff"/><path d="m431.99 118.92v7c0 5.523-4.477 10-10 10h-146.51c-5.52 0-10-4.47-10-10v-20c0-5.523 4.477-10 10-10h7v18c0 2.761 2.239 5 5 5z" fill="#e6f7fe"/><path d="m161.367 423.458-67.376.533c-13.807 0-22.659-9.104-22.659-22.911v-289.53c0-12.081 6.155-23.137 17.548-25.468 1.627-.333 3.312-.508 5.038-.508h66.974c13.807 0 25 11.193 25 25v290.851c0 1.714-.172 3.388-.501 5.004-2.319 11.41-11.931 17.029-24.024 17.029z" fill="#bed9fd"/><path d="m185.39 406.43c-2.32 11.41-12.4 20-24.5 20h-66.97c-13.81 0-25-11.2-25-25v-290.86c0-12.09 8.59-22.18 20-24.5v308.36c0 6.627 5.373 12 12 12z" fill="#9ec8fc"/><g fill="#4e5a61"><path d="m296.383 186.503h-14.943v-.003h-10c-2.77 0-5 2.24-5 5v20c0 2.76 2.23 5 5 5h2.941c.009 0 .017.003.025.003l.02-.003h21.953c2.76 0 5-2.24 5-5v-9.988l.003-.012v-9.997c.001-2.762-2.238-5-4.999-5z"/><path d="m361.38 186.5h-14.943l-.007.002v-.002h-10c-2.76 0-5 2.24-5 5v20c0 2.76 2.24 5 5 5h24.95c2.76 0 5-2.24 5-5v-10h-.001l.001-.003v-9.997c0-2.761-2.239-5-5-5z"/><path d="m431.99 191.5c0-2.761-2.239-5-5-5h-14.94-.003-9.997c-2.76 0-5 2.24-5 5v20c0 2.76 2.24 5 5 5h24.94c2.77 0 5-2.24 5-5v-10h-.001l.001-.003z"/><path d="m426.99 246.5h-14.94-.003-9.997c-2.76 0-5 2.24-5 5v20c0 2.76 2.24 5 5 5h24.94c2.77 0 5-2.24 5-5v-10h-.001l.001-.003v-9.997c0-2.761-2.239-5-5-5z"/><path d="m361.38 246.5h-14.943l-.007.002v-.002h-10c-2.76 0-5 2.24-5 5v20c0 2.76 2.24 5 5 5h24.95c2.76 0 5-2.24 5-5v-10h-.001l.001-.003v-9.997c0-2.761-2.239-5-5-5z"/><path d="m296.383 246.5h-14.943-10c-2.77 0-5 2.24-5 5v20c0 2.76 2.23 5 5 5h24.94c2.76 0 5-2.24 5-5v-9.991l.003-.012v-9.997c0-2.761-2.239-5-5-5z"/><path d="m296.383 306.5h-14.943-10c-2.77 0-5 2.24-5 5v20c0 2.76 2.23 5 5 5h24.94c2.76 0 5-2.24 5-5v-9.991l.003-.012v-9.997c0-2.761-2.239-5-5-5z"/><path d="m361.38 306.5h-14.943l-.007.002v-.002h-10c-2.76 0-5 2.24-5 5v20c0 2.76 2.24 5 5 5h24.95c2.76 0 5-2.24 5-5v-10h-.001l.001-.003v-9.997c0-2.761-2.239-5-5-5z"/><path d="m426.99 306.5h-14.94-.003-9.997c-2.76 0-5 2.24-5 5v20c0 2.76 2.24 5 5 5h24.94c2.77 0 5-2.24 5-5v-10h-.001l.001-.003v-9.997c0-2.761-2.239-5-5-5z"/></g><path d="m431.995 400.957c0-11.99-9.72-21.71-21.71-21.71-1.106 0-2.193.083-3.255.242-10.446 1.57-14.801 10.706-14.801 21.59 0 11.99 6.065 18.782 18.055 18.782 10.457 0 19.187-4.588 21.249-14.432.303-1.442.462-2.938.462-4.472z" fill="#94d4a2"/><path d="m431.53 405.43c-2.06 9.84-10.79 17.24-21.25 17.24-11.99 0-21.71-9.72-21.71-21.71 0-10.89 8.01-19.9 18.46-21.47-.3 1.44-.46 2.94-.46 4.47 0 11.99 9.72 21.71 21.71 21.71 1.1 0 2.19-.08 3.25-.24z" fill="#7fcb8f"/></g><g><g><path d="m481.5 179.07v-110.261c0-15.164-12.337-27.5-27.5-27.5h-396c-15.164 0-27.5 12.336-27.5 27.5v110.261c-16.992 1.038-30.5 15.184-30.5 32.432v226.689c0 17.92 14.58 32.5 32.5 32.5h447c17.921 0 32.5-14.58 32.5-32.5v-226.689c0-17.248-13.508-31.394-30.5-32.432zm-466.5 259.121v-226.689c0-8.972 6.79-16.38 15.5-17.377v261.443c-8.71-.997-15.5-8.404-15.5-17.377zm482 0c0 8.972-6.79 16.38-15.5 17.377v-74.27c0-4.142-3.357-7.5-7.5-7.5s-7.5 3.358-7.5 7.5v74.394h-235.298v-279.84c0-4.142-3.358-7.5-7.5-7.5s-7.5 3.358-7.5 7.5v279.84h-170.702v-386.883c0-6.893 5.607-12.5 12.5-12.5h158.202v84.564c0 4.142 3.358 7.5 7.5 7.5s7.5-3.358 7.5-7.5v-84.564h222.798c6.893 0 12.5 5.607 12.5 12.5v277.425c0 4.142 3.357 7.5 7.5 7.5s7.5-3.358 7.5-7.5v-152.108c8.71.997 15.5 8.405 15.5 17.377z"/><path d="m421.995 88.423h-16.314c-4.143 0-7.5 3.358-7.5 7.5s3.357 7.5 7.5 7.5h16.314c1.379 0 2.5 1.122 2.5 2.5v20c0 1.378-1.121 2.5-2.5 2.5h-146.515c-1.379 0-2.5-1.122-2.5-2.5v-20c0-1.378 1.121-2.5 2.5-2.5h95.222c4.143 0 7.5-3.358 7.5-7.5s-3.357-7.5-7.5-7.5h-95.222c-9.649 0-17.5 7.851-17.5 17.5v20c0 9.649 7.851 17.5 17.5 17.5h146.515c9.649 0 17.5-7.851 17.5-17.5v-20c0-9.649-7.85-17.5-17.5-17.5z"/><path d="m160.891 78.075h-66.974c-17.92 0-32.5 14.58-32.5 32.5v186.553c0 4.142 3.358 7.5 7.5 7.5s7.5-3.358 7.5-7.5v-186.553c0-9.649 7.851-17.5 17.5-17.5h66.974c9.649 0 17.5 7.851 17.5 17.5v290.851c0 9.649-7.851 17.5-17.5 17.5h-66.974c-9.649 0-17.5-7.851-17.5-17.5v-69.191c0-4.142-3.358-7.5-7.5-7.5s-7.5 3.358-7.5 7.5v69.191c0 17.92 14.58 32.5 32.5 32.5h66.974c17.92 0 32.5-14.58 32.5-32.5v-290.851c0-17.921-14.579-32.5-32.5-32.5z"/><path d="m271.437 224.002h24.946c6.893 0 12.5-5.607 12.5-12.5v-20c0-6.893-5.607-12.5-12.5-12.5h-24.946c-6.893 0-12.5 5.607-12.5 12.5v20c0 6.893 5.607 12.5 12.5 12.5zm2.5-30h19.946v15h-19.946z"/><path d="m361.378 179.002h-24.947c-6.893 0-12.5 5.607-12.5 12.5v20c0 6.893 5.607 12.5 12.5 12.5h24.947c6.893 0 12.5-5.607 12.5-12.5v-20c0-6.892-5.607-12.5-12.5-12.5zm-2.5 30h-19.947v-15h19.947z"/><path d="m426.995 179.002h-24.947c-6.893 0-12.5 5.607-12.5 12.5v20c0 6.893 5.607 12.5 12.5 12.5h24.947c6.893 0 12.5-5.607 12.5-12.5v-20c0-6.892-5.607-12.5-12.5-12.5zm-2.5 30h-19.947v-15h19.947z"/><path d="m258.937 271.502c0 6.893 5.607 12.5 12.5 12.5h24.946c6.893 0 12.5-5.607 12.5-12.5v-20c0-6.893-5.607-12.5-12.5-12.5h-24.946c-6.893 0-12.5 5.607-12.5 12.5zm15-17.5h19.946v15h-19.946z"/><path d="m361.378 239.002h-24.947c-6.893 0-12.5 5.607-12.5 12.5v20c0 6.893 5.607 12.5 12.5 12.5h24.947c6.893 0 12.5-5.607 12.5-12.5v-20c0-6.892-5.607-12.5-12.5-12.5zm-2.5 30h-19.947v-15h19.947z"/><path d="m426.995 239.002h-24.947c-6.893 0-12.5 5.607-12.5 12.5v20c0 6.893 5.607 12.5 12.5 12.5h24.947c6.893 0 12.5-5.607 12.5-12.5v-20c0-6.892-5.607-12.5-12.5-12.5zm-2.5 30h-19.947v-15h19.947z"/><path d="m258.937 331.502c0 6.893 5.607 12.5 12.5 12.5h24.946c6.893 0 12.5-5.607 12.5-12.5v-20c0-6.893-5.607-12.5-12.5-12.5h-24.946c-6.893 0-12.5 5.607-12.5 12.5zm15-17.5h19.946v15h-19.946z"/><path d="m361.378 299.002h-24.947c-6.893 0-12.5 5.607-12.5 12.5v20c0 6.893 5.607 12.5 12.5 12.5h24.947c6.893 0 12.5-5.607 12.5-12.5v-20c0-6.892-5.607-12.5-12.5-12.5zm-2.5 30h-19.947v-15h19.947z"/><path d="m426.995 299.002h-24.947c-6.893 0-12.5 5.607-12.5 12.5v20c0 6.893 5.607 12.5 12.5 12.5h24.947c6.893 0 12.5-5.607 12.5-12.5v-20c0-6.892-5.607-12.5-12.5-12.5zm-2.5 30h-19.947v-15h19.947z"/><path d="m410.284 371.748c-16.106 0-29.21 13.104-29.21 29.21s13.104 29.21 29.21 29.21c16.107 0 29.211-13.104 29.211-29.21s-13.103-29.21-29.211-29.21zm0 43.419c-7.835 0-14.21-6.375-14.21-14.21s6.375-14.21 14.21-14.21c7.836 0 14.211 6.375 14.211 14.21s-6.375 14.21-14.211 14.21z"/><path d="m348.904 408.458h-82.468c-4.143 0-7.5 3.358-7.5 7.5s3.357 7.5 7.5 7.5h82.468c4.143 0 7.5-3.358 7.5-7.5s-3.357-7.5-7.5-7.5z"/><path d="m348.904 378.458h-82.468c-4.143 0-7.5 3.358-7.5 7.5s3.357 7.5 7.5 7.5h82.468c4.143 0 7.5-3.358 7.5-7.5s-3.357-7.5-7.5-7.5z"/></g></g></g></svg>