<svg id="Capa_1" enable-background="new 0 0 512 512" height="512" viewBox="0 0 512 512" width="512" xmlns="http://www.w3.org/2000/svg"><g><g id="_x3C_Group_x3E__23_"><path d="m504.5 100.3v38.51l-7.17 20h-485.504l1.321-55.086c0-8.29 1.073-18.424 9.353-18.424h10.66l21.326 8.691 23.395-8.691h48.699l19.09 8.085 23.367-8.085h50.963l18.229 5.691 7.431-5.691h67.759l19.02 7.507 10.651-7.507h63.748l15.353 6.269 8.752-6.269h58.557c8.28 0 15 6.71 15 15z" fill="#d5717f"/><g fill="#cd5668"><path d="m446.84 85.3v9.72c0 11.05-8.95 20-20 20-11.04 0-20-8.95-20-20v-9.72z"/><path d="m417.147 112.518 14.289 8.931-6.766-12.047z"/><path d="m323.79 112.518 14.288 8.931-6.766-12.047z"/><path d="m229.949 112.518 14.288 8.931-6.766-12.047z"/><path d="m136.921 112.518 14.289 8.931-6.767-12.047z"/><path d="m42.793 112.518 14.288 8.931-6.766-12.047z"/><path d="m42.38 112.518 14.288 8.931-6.766-12.047z"/><path d="m260 85.3v10.22c0 10.77-8.73 19.5-19.5 19.5h-1c-10.77 0-19.5-8.73-19.5-19.5v-10.22z"/><path d="m166.58 85.3v9.72c0 11.05-8.96 20-20 20-11.05 0-20-8.95-20-20v-9.72z"/><path d="m73.16 85.3v11.22c0 10.22-8.29 18.5-18.5 18.5h-3c-10.22 0-18.5-8.28-18.5-18.5v-11.22z"/><path d="m353.42 85.3v9.72c0 11.05-8.95 20-20 20-11.04 0-20-8.95-20-20v-9.72z"/><path d="m504.5 138.81v20l-256.197 15.823-240.803-15.823v-58.51c0-8.284 6.716-15 15-15h5v47.51c0 3.314 2.686 6 6 6z"/></g><path d="m504.5 158.81v294.17c0 8.28-10.78 10.21-19.06 10.21l-458.615-1.41c-8.28 0-15-6.72-15-15l-4.325-287.97z" fill="#f5fcff"/><path d="m504.5 447.98v5c0 8.284-6.716 15-15 15h-467c-8.284 0-15-6.716-15-15v-294.17h20v283.17c0 3.314 2.686 6 6 6z" fill="#e6f7fe"/><path d="m257.385 119.972c-10.77 0-17.965-4.093-17.965-14.862l1.451-41.45c0-10.77 3.859-19.639 14.628-19.639h1c10.77 0 19.5 8.73 19.5 19.5v42c.001 10.77-7.844 14.451-18.614 14.451z" fill="#f5fcff"/><path d="m162.58 121.449c-11.046 0-16.663-5.914-16.663-16.959l-1.156-39.508c0-11.046 6.771-20.96 17.817-20.96 11.046 0 20 8.954 20 20v41c0 11.045-8.952 16.427-19.998 16.427z" fill="#f5fcff"/><path d="m68.633 121.449c-10.217 0-15.473-5.626-15.473-15.843l-2.362-43.266c0-10.217 6.641-18.318 16.859-18.318h3c10.217 0 18.5 8.283 18.5 18.5v44c0 10.217-10.307 14.927-20.524 14.927z" fill="#f5fcff"/><path d="m350.468 121.449c-11.046 0-13.431-5.788-13.431-16.834l-7.615-40.593c0-11.046 8.954-20 20-20 11.046 0 20 8.954 20 20v41c0 11.045-7.908 16.427-18.954 16.427z" fill="#f5fcff"/><path d="m444.046 121.449c-11.046 0-6.605-10.243-6.605-21.289l-14.597-36.139c0-11.046 8.954-20 20-20 11.046 0 20 8.954 20 20v41c-.001 11.046-7.752 16.428-18.798 16.428z" fill="#f5fcff"/><path d="m276 105.02v.5c0 10.77-8.73 19.5-19.5 19.5h-1c-10.77 0-19.5-8.73-19.5-19.5v-42c0-10.77 8.73-19.5 19.5-19.5h.5v41.5c0 10.77 8.73 19.5 19.5 19.5z" fill="#e6f7fe"/><path d="m182.58 105.02c0 11.05-8.96 20-20 20-11.05 0-20-8.95-20-20v-41c0-11.04 8.95-20 20-20v41c0 11.05 8.95 20 20 20z" fill="#e6f7fe"/><path d="m89.16 105.02v1.5c0 10.22-8.29 18.5-18.5 18.5h-3c-10.22 0-18.5-8.28-18.5-18.5v-44c0-10.22 8.28-18.5 18.5-18.5h1.5v42.5c0 10.22 8.28 18.5 18.5 18.5z" fill="#e6f7fe"/><path d="m369.42 105.02c0 11.05-8.95 20-20 20-11.04 0-20-8.95-20-20v-41c0-11.04 8.96-20 20-20v41c0 11.05 8.96 20 20 20z" fill="#e6f7fe"/><path d="m462.84 105.02c0 11.05-8.95 20-20 20-11.04 0-20-8.95-20-20v-41c0-11.04 8.96-20 20-20v41c0 11.05 8.96 20 20 20z" fill="#e6f7fe"/><path d="m369.34 257.013h-59.84c-2.761 0-5-2.239-5-5v-35c0-2.761 2.239-5 5-5h59.84c2.761 0 5 2.239 5 5v35c0 2.762-2.238 5-5 5z" fill="#bed9fd"/><path d="m369.34 417.013h-59.84c-2.761 0-5-2.239-5-5v-35c0-2.761 2.239-5 5-5h59.84c2.761 0 5 2.239 5 5v35c0 2.762-2.238 5-5 5z" fill="#94d4a2"/><path d="m369.34 337.013h-59.84c-2.761 0-5-2.239-5-5v-35c0-2.761 2.239-5 5-5h59.84c2.761 0 5 2.239 5 5v35c0 2.762-2.238 5-5 5z" fill="#bed9fd"/><path d="m469.34 257.013h-59.84c-2.761 0-5-2.239-5-5v-35c0-2.761 2.239-5 5-5h59.84c2.761 0 5 2.239 5 5v35c0 2.762-2.238 5-5 5z" fill="#bed9fd"/><path d="m469.34 417.013h-59.84c-2.761 0-5-2.239-5-5v-35c0-2.761 2.239-5 5-5h59.84c2.761 0 5 2.239 5 5v35c0 2.762-2.238 5-5 5z" fill="#94d4a2"/><path d="m469.34 337.013h-59.84c-2.761 0-5-2.239-5-5v-35c0-2.761 2.239-5 5-5h59.84c2.761 0 5 2.239 5 5v35c0 2.762-2.238 5-5 5z" fill="#94d4a2"/><path d="m269.34 257.013h-59.84c-2.761 0-5-2.239-5-5v-35c0-2.761 2.239-5 5-5h59.84c2.761 0 5 2.239 5 5v35c0 2.762-2.238 5-5 5z" fill="#bed9fd"/><path d="m269.34 417.013h-59.84c-2.761 0-5-2.239-5-5v-35c0-2.761 2.239-5 5-5h59.84c2.761 0 5 2.239 5 5v35c0 2.762-2.238 5-5 5z" fill="#94d4a2"/><path d="m269.34 337.013h-59.84c-2.761 0-5-2.239-5-5v-35c0-2.761 2.239-5 5-5h59.84c2.761 0 5 2.239 5 5v35c0 2.762-2.238 5-5 5z" fill="#bed9fd"/><path d="m156.486 413.458-102.009 2.5c-2.761 0-5-2.239-5-5l-3.349-52.315c0-2.761 2.239-5 5-5l11.031-2.578h101.181c2.761 0 5 2.239 5 5v41.946l-6.854 10.448c0 2.76-2.238 4.999-5 4.999z" fill="#ffe07d"/><path d="m168.34 398.01v14c0 2.761-2.239 5-5 5h-115.18c-2.761 0-5-2.239-5-5v-55.95c0-2.761 2.239-5 5-5h14v43.95c0 1.657 1.343 3 3 3z" fill="#ffd064"/></g><g><g><path d="m504.5 266.649c-4.143 0-7.5 3.358-7.5 7.5v178.83c0 4.136-3.364 7.5-7.5 7.5h-117.479c-4.143 0-7.5 3.358-7.5 7.5s3.357 7.5 7.5 7.5h117.479c12.406 0 22.5-10.093 22.5-22.5v-178.83c0-4.142-3.357-7.5-7.5-7.5z"/><path d="m489.5 77.798h-19.157v-13.777c0-15.164-12.337-27.5-27.5-27.5s-27.5 12.336-27.5 27.5v13.776h-38.421v-13.776c0-15.164-12.337-27.5-27.5-27.5s-27.5 12.336-27.5 27.5v13.776h-38.422v-14.276c0-14.888-12.112-27-27-27h-1c-14.888 0-27 12.112-27 27v14.276h-38.422v-13.776c0-15.164-12.337-27.5-27.5-27.5s-27.5 12.336-27.5 27.5v13.776h-38.421v-15.276c0-14.336-11.663-26-26-26h-3c-14.337 0-26 11.664-26 26v15.276h-19.157c-12.406 0-22.5 10.093-22.5 22.5v352.681c0 12.407 10.094 22.5 22.5 22.5h314.543c4.143 0 7.5-3.358 7.5-7.5s-3.357-7.5-7.5-7.5h-314.543c-4.136 0-7.5-3.364-7.5-7.5v-286.67h74.766c4.143 0 7.5-3.358 7.5-7.5s-3.357-7.5-7.5-7.5h-74.766v-51.011c0-4.136 3.364-7.5 7.5-7.5h19.157v13.724c0 14.336 11.663 26 26 26h3c14.337 0 26-11.664 26-26v-13.723h38.421v12.224c0 15.164 12.337 27.5 27.5 27.5s27.5-12.336 27.5-27.5v-12.224h38.422v12.724c0 14.888 12.112 27 27 27h1c14.888 0 27-12.112 27-27v-12.724h38.422v12.224c0 15.164 12.337 27.5 27.5 27.5s27.5-12.336 27.5-27.5v-12.224h38.421v12.224c0 15.164 12.337 27.5 27.5 27.5s27.5-12.336 27.5-27.5v-12.224h19.157c4.136 0 7.5 3.364 7.5 7.5v51.011h-372.128c-4.143 0-7.5 3.358-7.5 7.5s3.357 7.5 7.5 7.5h372.128v72.67c0 4.142 3.357 7.5 7.5 7.5s7.5-3.358 7.5-7.5v-138.681c0-12.407-10.094-22.5-22.5-22.5zm-407.843 28.723c0 6.065-4.935 11-11 11h-3c-6.065 0-11-4.935-11-11v-44c0-6.065 4.935-11 11-11h3c6.065 0 11 4.935 11 11zm93.421-1.5c0 6.893-5.607 12.5-12.5 12.5s-12.5-5.607-12.5-12.5v-41c0-6.893 5.607-12.5 12.5-12.5s12.5 5.607 12.5 12.5zm93.422.5c0 6.617-5.383 12-12 12h-1c-6.617 0-12-5.383-12-12v-42c0-6.617 5.383-12 12-12h1c6.617 0 12 5.383 12 12zm93.422-.5c0 6.893-5.607 12.5-12.5 12.5s-12.5-5.607-12.5-12.5v-41c0-6.893 5.607-12.5 12.5-12.5s12.5 5.607 12.5 12.5zm93.421 0c0 6.893-5.607 12.5-12.5 12.5s-12.5-5.607-12.5-12.5v-41c0-6.893 5.607-12.5 12.5-12.5s12.5 5.607 12.5 12.5z"/><path d="m309.5 264.513h59.841c6.893 0 12.5-5.607 12.5-12.5v-35c0-6.893-5.607-12.5-12.5-12.5h-59.841c-6.893 0-12.5 5.607-12.5 12.5v35c0 6.893 5.607 12.5 12.5 12.5zm2.5-45h54.841v30h-54.841z"/><path d="m297 412.013c0 6.893 5.607 12.5 12.5 12.5h59.841c6.893 0 12.5-5.607 12.5-12.5v-35c0-6.893-5.607-12.5-12.5-12.5h-59.841c-6.893 0-12.5 5.607-12.5 12.5zm15-32.5h54.841v30h-54.841z"/><path d="m297 332.013c0 6.893 5.607 12.5 12.5 12.5h59.841c6.893 0 12.5-5.607 12.5-12.5v-35c0-6.893-5.607-12.5-12.5-12.5h-59.841c-6.893 0-12.5 5.607-12.5 12.5zm15-32.5h54.841v30h-54.841z"/><path d="m409.5 264.513h59.841c6.893 0 12.5-5.607 12.5-12.5v-35c0-6.893-5.607-12.5-12.5-12.5h-59.841c-6.893 0-12.5 5.607-12.5 12.5v35c0 6.893 5.607 12.5 12.5 12.5zm2.5-45h54.841v30h-54.841z"/><path d="m397 412.013c0 6.893 5.607 12.5 12.5 12.5h59.841c6.893 0 12.5-5.607 12.5-12.5v-35c0-6.893-5.607-12.5-12.5-12.5h-59.841c-6.893 0-12.5 5.607-12.5 12.5zm15-32.5h54.841v30h-54.841z"/><path d="m397 332.013c0 6.893 5.607 12.5 12.5 12.5h59.841c6.893 0 12.5-5.607 12.5-12.5v-35c0-6.893-5.607-12.5-12.5-12.5h-59.841c-6.893 0-12.5 5.607-12.5 12.5zm15-32.5h54.841v30h-54.841z"/><path d="m281.841 217.013c0-6.893-5.607-12.5-12.5-12.5h-59.841c-6.893 0-12.5 5.607-12.5 12.5v35c0 6.893 5.607 12.5 12.5 12.5h59.841c6.893 0 12.5-5.607 12.5-12.5zm-15 32.5h-54.841v-30h54.841z"/><path d="m269.341 364.513h-59.841c-6.893 0-12.5 5.607-12.5 12.5v35c0 6.893 5.607 12.5 12.5 12.5h59.841c6.893 0 12.5-5.607 12.5-12.5v-35c0-6.892-5.608-12.5-12.5-12.5zm-2.5 45h-54.841v-30h54.841z"/><path d="m281.841 297.013c0-6.893-5.607-12.5-12.5-12.5h-59.841c-6.893 0-12.5 5.607-12.5 12.5v35c0 6.893 5.607 12.5 12.5 12.5h59.841c6.893 0 12.5-5.607 12.5-12.5zm-15 32.5h-54.841v-30h54.841z"/><path d="m168.341 227.013h-125.184c-4.143 0-7.5 3.358-7.5 7.5s3.357 7.5 7.5 7.5h125.184c4.143 0 7.5-3.358 7.5-7.5s-3.358-7.5-7.5-7.5z"/><path d="m168.341 267.013h-125.184c-4.143 0-7.5 3.358-7.5 7.5s3.357 7.5 7.5 7.5h125.184c4.143 0 7.5-3.358 7.5-7.5s-3.358-7.5-7.5-7.5z"/><path d="m168.341 307.013h-125.184c-4.143 0-7.5 3.358-7.5 7.5s3.357 7.5 7.5 7.5h125.184c4.143 0 7.5-3.358 7.5-7.5s-3.358-7.5-7.5-7.5z"/><path d="m75.17 358.564c4.143 0 7.5-3.358 7.5-7.5s-3.357-7.5-7.5-7.5h-27.013c-6.893 0-12.5 5.607-12.5 12.5v55.949c0 6.893 5.607 12.5 12.5 12.5h115.184c6.893 0 12.5-5.607 12.5-12.5v-55.949c0-6.893-5.607-12.5-12.5-12.5h-53.277c-4.143 0-7.5 3.358-7.5 7.5s3.357 7.5 7.5 7.5h50.777v50.949h-110.184v-50.949z"/></g></g></g></svg>