<svg id="Capa_1" enable-background="new 0 0 512.01 512.01" height="512" viewBox="0 0 512.01 512.01" width="512" xmlns="http://www.w3.org/2000/svg"><g><g id="_x3C_Group_x3E__39_"><path d="m504.505 132.515v246.98c0 11.05-8.95 20-20 20h-457c-11.05 0-20-8.95-20-20v-246.98c0-.08 0-.17.01-.25l226.28 151.08c13.45 8.98 30.97 8.98 44.42 0l226.28-151.08c.01.08.01.17.01.25z" fill="#f7e5c1"/><path d="m222.685 299.975c9.9 6.61 21.42 10.11 33.32 10.11s23.42-3.5 33.32-10.11l215.18-143.67v-23.79c-.098-.054-.12-.067-.217-.121l-226.073 140.951c-13.45 8.98-30.97 8.98-44.42 0l-226.28-141.08c-.006.003-.004.002-.01.006v24.034 223.19c0 11.046 8.954 20 20 20h457c11.05 0 20-8.95 20-20h-468c-4.971 0-9-4.029-9-9v-195.226c0-2.397 2.672-3.826 4.666-2.495z" fill="#f4d9b1"/><path d="m451.558 354.835-106.979-1.021c-7.732 0-5.106 1.094-5.106-6.638l-7.404-24c0-7.732 3.97-14.904 11.702-14.904h4.004 105.221c7.732 0 14 6.268 14 14v21.004l-8.545 4.411c.001 7.731.839 7.148-6.893 7.148z" fill="#f5fcff"/><path d="m466.995 343.275v4c0 7.73-6.27 14-14 14h-109.22c-7.74 0-14-6.27-14-14v-25c0-7.74 6.26-14 14-14h4v30c0 2.76 2.23 5 5 5z" fill="#e6f7fe"/><path d="m504.495 132.265-226.28 151.08c-13.45 8.98-30.97 8.98-44.42 0l-226.28-151.08c.13-10.94 9.02-19.75 19.99-19.75h457c10.97 0 19.86 8.81 19.99 19.75z" fill="#f7e5c1"/></g><g><g><path d="m452.996 353.771h-6.247c-4.142 0-7.5 3.358-7.5 7.5s3.358 7.5 7.5 7.5h6.247c11.855 0 21.5-9.645 21.5-21.5v-25c0-11.855-9.645-21.5-21.5-21.5h-109.225c-11.855 0-21.5 9.645-21.5 21.5v25c0 11.855 9.645 21.5 21.5 21.5h67.915c4.142 0 7.5-3.358 7.5-7.5s-3.358-7.5-7.5-7.5h-67.915c-3.584 0-6.5-2.916-6.5-6.5v-25c0-3.584 2.916-6.5 6.5-6.5h109.225c3.584 0 6.5 2.916 6.5 6.5v25c0 3.584-2.916 6.5-6.5 6.5z"/><path d="m511.99 131.942c-.307-14.899-12.514-26.927-27.485-26.927h-325.202c-4.142 0-7.5 3.358-7.5 7.5s3.358 7.5 7.5 7.5h325.202c5.548 0 10.258 3.636 11.887 8.649l-91.846 61.319c-3.445 2.3-4.373 6.957-2.073 10.402 1.446 2.166 3.823 3.336 6.245 3.336 1.431 0 2.878-.409 4.158-1.263l84.131-56.168v233.203c0 6.893-5.607 12.5-12.5 12.5h-315.651c-4.142 0-7.5 3.358-7.5 7.5s3.358 7.5 7.5 7.5h315.649c15.164 0 27.5-12.336 27.5-27.5-.015-.546.028-246.982-.015-247.551z"/><path d="m142.423 346.229h-97.482c-4.142 0-7.5 3.358-7.5 7.5s3.358 7.5 7.5 7.5h97.482c4.142 0 7.5-3.358 7.5-7.5s-3.358-7.5-7.5-7.5z"/><path d="m142.423 316.229h-97.482c-4.142 0-7.5 3.358-7.5 7.5s3.358 7.5 7.5 7.5h97.482c4.142 0 7.5-3.358 7.5-7.5s-3.358-7.5-7.5-7.5z"/><path d="m133.814 391.994h-106.309c-6.893 0-12.5-5.607-12.5-12.5v-233.202l214.625 143.288c8.012 5.35 17.192 8.023 26.375 8.023 9.181 0 18.364-2.675 26.375-8.022l101.381-67.685c3.445-2.3 4.373-6.957 2.073-10.402s-6.957-4.372-10.402-2.073l-101.382 67.684c-10.962 7.318-25.129 7.319-36.091 0l-222.341-148.44c1.628-5.013 6.338-8.649 11.887-8.649h96.734c4.142 0 7.5-3.358 7.5-7.5s-3.358-7.5-7.5-7.5h-96.734c-14.971 0-27.178 12.028-27.485 26.927-.043.189 0 247.378-.015 247.552 0 15.164 12.336 27.5 27.5 27.5h106.309c4.142 0 7.5-3.358 7.5-7.5s-3.358-7.501-7.5-7.501z"/></g></g></g></svg>