<svg id="Capa_1" enable-background="new 0 0 512 512" height="512" viewBox="0 0 512 512" width="512" xmlns="http://www.w3.org/2000/svg"><g><g id="_x3C_Group_x3E__36_"><path d="m103.5 504.5-70.543-5.883c-5.523 0-10-4.477-10-10l-1.934-354.611 39.317-5.389 62.447 5.872v342.894z" fill="#5f6c75"/><path d="m117.73 484.5-14.23 20h-76c-5.523 0-10-4.477-10-10v-360.01l8.266-4.523 6.734 4.523v344.01c0 3.314 2.686 6 6 6z" fill="#4e5a61"/><path d="m408.5 504.5 73.776-2.862c5.523 0 10-4.477 10-10l2.224-7.138v-350.011l-51.032-5.617-58.514 5.617v353.617z" fill="#5f6c75"/><path d="m428.5 478.5v-344.01l-16-4.596-27.55 4.596v333.62 20l23.55 16.39h20 56c5.523 0 10-4.477 10-10v-10h-60c-3.314 0-6-2.686-6-6z" fill="#4e5a61"/><path d="m408.5 347.489h43c2.761 0 5-2.239 5-5v-49c0-2.761-2.239-5-5-5h-43z" fill="#bed9fd"/><path d="m408.5 451.489h43c2.761 0 5-2.239 5-5v-49c0-2.761-2.239-5-5-5h-43z" fill="#bed9fd"/><path d="m408.5 243.489h43c2.761 0 5-2.239 5-5v-49c0-2.761-2.239-5-5-5h-43z" fill="#bed9fd"/><path d="m404.404 288.49h24.096v59h-24.096z" fill="#9ec8fc"/><path d="m404.404 392.49h24.096v59h-24.096z" fill="#9ec8fc"/><path d="m404.404 184.49h24.096v59h-24.096z" fill="#9ec8fc"/><path d="m405.579 131.048 92.017.324c2.761 0 5-2.239 5-5l1.905-6.882v-10.001c0-2.761-2.239-5-5-5h-71.001l-24.095 4.723z" fill="#5f6c75"/><path d="m504.5 119.49v10c0 2.761-2.239 5-5 5h-91l-3.543-15 3.543-15h20v10c0 2.761 2.239 5 5 5z" fill="#4e5a61"/><path d="m113.5 243.489h-53c-2.761 0-5-2.239-5-5v-49c0-2.761 2.239-5 5-5h53z" fill="#bed9fd"/><path d="m113.5 347.489h-53c-2.761 0-5-2.239-5-5v-49c0-2.761 2.239-5 5-5h53z" fill="#bed9fd"/><path d="m113.5 451.489h-53c-2.761 0-5-2.239-5-5v-49c0-2.761 2.239-5 5-5h53z" fill="#bed9fd"/><path d="m103.5 134.489-86.67-4.469c-2.761 0-5-2.239-5-5l-2.149-14.496c0-2.761 2.239-5 5-5l7.819-1.035h81l7.5 17.566z" fill="#5f6c75"/><path d="m103.5 119.49 3.713 6.829-3.713 8.171h-91c-2.76 0-5-2.24-5-5v-20c0-2.76 2.24-5 5-5h10v10c0 2.76 2.24 5 5 5z" fill="#4e5a61"/><path d="m408.5 42.5v442l-4.606 12.798-294.394 2.553v-457.351l138.995-7.755z" fill="#5f6c75"/><path d="m412.5 484.5v20h-35.04l-21.5-6.786-21.5 6.786h-31.64l-57.054-9.16-36.596 9.16h-30.67l-23.457-5.415-19.543 5.415h-42l10-20.032v-441.968l7.5-9.457 6.5 9.457v436c0 3.314 2.686 6 6 6z" fill="#4e5a61"/><g fill="#bed9fd"><path d="m171 82v47.05c0 1.1-.9 2-2 2h-24c-1.1 0-2-.9-2-2v-47.05c0-1.1.9-2 2-2h24c1.1 0 2 .9 2 2z"/><path d="m171 148.05v47.05c0 1.1-.9 2-2 2h-24c-1.1 0-2-.9-2-2v-47.05c0-1.11.9-2 2-2h24c1.1 0 2 .89 2 2z"/><path d="m171 214.1v47.05c0 1.1-.9 2-2 2h-24c-1.1 0-2-.9-2-2v-47.05c0-1.11.9-2 2-2h24c1.1 0 2 .89 2 2z"/><path d="m171 280.15v47.04c0 1.11-.9 2-2 2h-24c-1.1 0-2-.89-2-2v-47.04c0-1.11.9-2 2-2h24c1.1 0 2 .89 2 2z"/><path d="m171 346.19v47.41c0 1.1-.9 2-2 2h-24c-1.1 0-2-.9-2-2v-47.41c0-1.1.9-2 2-2h24c1.1 0 2 .9 2 2z"/><path d="m248.49 82v47.05c0 1.1-.89 2-2 2h-27.82c-1.1 0-2-.9-2-2v-47.05c0-1.1.9-2 2-2h27.82c1.11 0 2 .9 2 2z"/><path d="m248.49 148.05v47.05c0 1.1-.89 2-2 2h-27.82c-1.1 0-2-.9-2-2v-47.05c0-1.11.9-2 2-2h27.82c1.11 0 2 .89 2 2z"/><path d="m248.49 214.1v47.05c0 1.1-.89 2-2 2h-27.82c-1.1 0-2-.9-2-2v-47.05c0-1.11.9-2 2-2h27.82c1.11 0 2 .89 2 2z"/><path d="m248.49 280.15v47.04c0 1.11-.89 2-2 2h-27.82c-1.1 0-2-.89-2-2v-47.04c0-1.11.9-2 2-2h27.82c1.11 0 2 .89 2 2z"/><path d="m248.49 346.19v47.41c0 1.1-.89 2-2 2h-27.82c-1.1 0-2-.9-2-2v-47.41c0-1.1.9-2 2-2h27.82c1.11 0 2 .9 2 2z"/><path d="m295.31 82v47.05c0 1.1-.89 2-2 2h-27.82c-1.1 0-2-.9-2-2v-47.05c0-1.1.9-2 2-2h27.82c1.11 0 2 .9 2 2z"/><path d="m295.31 148.05v47.05c0 1.1-.89 2-2 2h-27.82c-1.1 0-2-.9-2-2v-47.05c0-1.11.9-2 2-2h27.82c1.11 0 2 .89 2 2z"/><path d="m295.31 214.1v47.05c0 1.1-.89 2-2 2h-27.82c-1.1 0-2-.9-2-2v-47.05c0-1.11.9-2 2-2h27.82c1.11 0 2 .89 2 2z"/><path d="m295.31 280.15v47.04c0 1.11-.89 2-2 2h-27.82c-1.1 0-2-.89-2-2v-47.04c0-1.11.9-2 2-2h27.82c1.11 0 2 .89 2 2z"/><path d="m295.31 346.19v47.41c0 1.1-.89 2-2 2h-27.82c-1.1 0-2-.9-2-2v-47.41c0-1.1.9-2 2-2h27.82c1.11 0 2 .9 2 2z"/><path d="m369.95 82v47.05c0 1.1-.89 2-2 2h-24c-1.1 0-2-.9-2-2v-47.05c0-1.1.9-2 2-2h24c1.11 0 2 .9 2 2z"/><path d="m369.95 148.05v47.05c0 1.1-.89 2-2 2h-24c-1.1 0-2-.9-2-2v-47.05c0-1.11.9-2 2-2h24c1.11 0 2 .89 2 2z"/><path d="m369.95 214.1v47.05c0 1.1-.89 2-2 2h-24c-1.1 0-2-.9-2-2v-47.05c0-1.11.9-2 2-2h24c1.11 0 2 .89 2 2z"/><path d="m369.95 280.15v47.04c0 1.11-.89 2-2 2h-24c-1.1 0-2-.89-2-2v-47.04c0-1.11.9-2 2-2h24c1.11 0 2 .89 2 2z"/><path d="m369.95 346.19v47.41c0 1.1-.89 2-2 2h-24c-1.1 0-2-.9-2-2v-47.41c0-1.1.9-2 2-2h24c1.11 0 2 .9 2 2z"/></g><path d="m408.5 38.234-307.776 2.191c-2.761 0-5-2.239-5-5l2.776-20.68c0-2.761 2.239-5 5-5l10-2.245h300c2.761 0 5 2.239 5 5v10l-5 10.734c0 2.761-2.239 5-5 5z" fill="#5f6c75"/><path d="m418.5 22.5v15c0 2.76-2.24 5-5 5h-315c-2.76 0-5-2.24-5-5v-25c0-2.76 2.24-5 5-5h15v10c0 2.76 2.24 5 5 5z" fill="#4e5a61"/><path d="m178.5 438.2v46.3l-.819 16.798-40.17.34.49-60.426c0-2.76 2.24-5 5-5l12.499-3.012h18c2.76 0 5 2.24 5 5z" fill="#bed9fd"/><path d="m377.46 438.2v46.3l-1.481 17.138h-38.298l-.726-61.723c0-2.76 2.23-5 5-5l12.505-1.715h18c2.76 0 5 2.24 5 5z" fill="#bed9fd"/><path d="m302.82 438.2v46.3l-2.415 17.138-88.17-1.787-.56-59.085c0-2.76 2.24-5 5-5l12.495-2.566h68.65c2.76 0 5 2.24 5 5z" fill="#bed9fd"/><path d="m178.5 484.5v20h-43v-66.3c0-2.761 2.239-5 5-5h15v46.3c0 2.761 2.239 5 5 5z" fill="#9ec8fc"/><path d="m377.46 484.5v20h-43v-66.3c0-2.76 2.23-5 5-5h15v46.3c0 2.761 2.239 5 5 5z" fill="#9ec8fc"/><path d="m302.82 484.5v20h-93.65v-66.3c0-2.761 2.239-5 5-5h15v46.3c0 2.761 2.239 5 5 5z" fill="#9ec8fc"/></g><g><g><path d="m499.5 96.989h-24.628c-4.143 0-7.5 3.358-7.5 7.5s3.357 7.5 7.5 7.5h22.128v15h-81v-15h24.149c4.143 0 7.5-3.358 7.5-7.5s-3.357-7.5-7.5-7.5h-24.149v-47.241c5.699-1.161 10-6.211 10-12.248v-25c0-6.893-5.607-12.5-12.5-12.5h-315c-6.893 0-12.5 5.607-12.5 12.5v25c0 6.037 4.301 11.087 10 12.248v47.241h-83.5c-6.893 0-12.5 5.607-12.5 12.5v20c0 6.037 4.301 11.087 10 12.248v183.858c0 4.142 3.357 7.5 7.5 7.5s7.5-3.358 7.5-7.5v-183.606h71v35h-35.5c-6.893 0-12.5 5.607-12.5 12.5v49c0 6.893 5.607 12.5 12.5 12.5h35.5v30h-35.5c-6.893 0-12.5 5.607-12.5 12.5v49c0 6.893 5.607 12.5 12.5 12.5h35.5v30h-35.5c-6.893 0-12.5 5.607-12.5 12.5v49c0 6.893 5.607 12.5 12.5 12.5h35.5v38.011h-68.5c-1.379 0-2.5-1.122-2.5-2.5v-134.053c0-4.142-3.357-7.5-7.5-7.5s-7.5 3.358-7.5 7.5v134.053c0 9.649 7.851 17.5 17.5 17.5h76 305 76c9.649 0 17.5-7.851 17.5-17.5v-352.763c5.699-1.161 10-6.211 10-12.248v-20c0-6.892-5.607-12.5-12.5-12.5zm-83.5 303h33v44h-33zm0-104h33v44h-33zm0-104h33v44h-33zm-401-65v-15h81v15zm48 109v-44h33v44zm0 104v-44h33v44zm0 104v-44h33v44zm48-393.989h48.894c4.143 0 7.5-3.358 7.5-7.5s-3.357-7.5-7.5-7.5h-58.894v-20h310v20h-215.957c-4.143 0-7.5 3.358-7.5 7.5s3.357 7.5 7.5 7.5h205.957v447h-16.046v-58.801c0-6.893-5.607-12.5-12.5-12.5h-33c-6.893 0-12.5 5.607-12.5 12.5v58.801h-16.639v-58.801c0-6.893-5.607-12.5-12.5-12.5h-28.143c-4.143 0-7.5 3.358-7.5 7.5s3.357 7.5 7.5 7.5h25.643v56.301h-78.641v-56.301h17.998c4.143 0 7.5-3.358 7.5-7.5s-3.357-7.5-7.5-7.5h-20.498c-6.893 0-12.5 5.607-12.5 12.5v58.801h-15.674v-58.801c0-6.893-5.607-12.5-12.5-12.5h-33c-6.893 0-12.5 5.607-12.5 12.5v58.801h-17zm258.954 447h-28v-56.301h28zm-198.954 0h-28v-56.301h28zm313.5 0h-68.5v-38.011h35.5c6.893 0 12.5-5.607 12.5-12.5v-49c0-6.893-5.607-12.5-12.5-12.5h-35.5v-30h35.5c6.893 0 12.5-5.607 12.5-12.5v-49c0-6.893-5.607-12.5-12.5-12.5h-35.5v-30h35.5c6.893 0 12.5-5.607 12.5-12.5v-49c0-6.893-5.607-12.5-12.5-12.5h-35.5v-35h71v352.511c0 1.378-1.121 2.5-2.5 2.5z"/><path d="m214.175 410.597h83.641c6.893 0 12.5-5.607 12.5-12.5v-320.597c0-6.893-5.607-12.5-12.5-12.5h-83.641c-6.893 0-12.5 5.607-12.5 12.5v320.597c0 6.892 5.607 12.5 12.5 12.5zm34.32-147.452h-31.82v-51.048h31.82zm15-51.048h31.82v51.048h-31.82zm-15 66.048v51.048h-31.82v-51.048zm15 0h31.82v51.048h-31.82zm31.82-81.048h-31.82v-51.048h31.82zm-46.82 0h-31.82v-51.048h31.82zm-31.82 147.096h31.82v51.403h-31.82zm46.82 51.404v-51.403h31.82v51.403zm31.82-264.549h-31.82v-51.048h31.82zm-46.82-51.048v51.048h-31.82v-51.048z"/><path d="m140.5 410.597h33c6.893 0 12.5-5.607 12.5-12.5v-320.597c0-6.893-5.607-12.5-12.5-12.5h-33c-6.893 0-12.5 5.607-12.5 12.5v320.597c0 6.892 5.607 12.5 12.5 12.5zm30.5-132.452v51.048h-28v-51.048zm-28-15v-51.048h28v51.048zm28-66.048h-28v-51.048h28zm-28 198.5v-51.403h28v51.403zm28-315.597v51.048h-28v-51.048z"/><path d="m339.454 410.597h33c6.893 0 12.5-5.607 12.5-12.5v-320.597c0-6.893-5.607-12.5-12.5-12.5h-33c-6.893 0-12.5 5.607-12.5 12.5v320.597c0 6.892 5.608 12.5 12.5 12.5zm30.5-132.452v51.048h-28v-51.048zm-28-15v-51.048h28v51.048zm28-66.048h-28v-51.048h28zm-28 198.5v-51.403h28v51.403zm28-315.597v51.048h-28v-51.048z"/></g></g></g></svg>