<svg id="Capa_1" enable-background="new 0 0 512 512" height="512" viewBox="0 0 512 512" width="512" xmlns="http://www.w3.org/2000/svg"><g><g id="_x3C_Group_x3E__2_"><path d="m32.5 41.043c-1.712 0-3.384.172-4.999.5-11.412 2.316-16.886 12.408-16.886 24.503l.541 157.752c0 13.807 11.193 25 25 25l15.034-.4c6.29 0 11.388 5.099 11.388 11.388 0 0 .35 16.195.35 27.765 0 4.447-.834 11.889 3.613 11.889l4.44-3.839c2.136 0 4.184-.848 5.694-2.359l36.293-39.151c4.271-4.271 10.065-6.671 16.106-6.671l120.22-.384c22.014 0 36.991-15.783 36.991-37.797l4.216-20.5v-122.696c0-13.807-11.193-25-25-25z" fill="#ffe07d"/><path d="m290.5 188.74h-44c-23.112 0-42.202 17.524-44.708 39.979-.226 2.024-1.887 3.581-3.924 3.581h-67.338c-11.42 0-22.17 4.45-30.24 12.53l-14.028 14.022c-2.762 2.761-7.439 1.419-8.389-2.369-3.453-13.759-15.887-24.294-30.513-24.183h-14.86c-2.76 0-5-2.25-5-5v-185.76c-11.41 2.32-20 12.41-20 24.5v161.26c0 13.8 11.19 25 25 25h14.86c6.29 0 11.39 5.1 11.39 11.38v31.222c0 4.352 3.322 8.144 7.669 8.349 2.278.107 4.472-.752 6.071-2.351l41.94-41.93c4.27-4.27 10.06-6.67 16.1-6.67h70.97 49.14c12.512.024 27.21-6.666 34.57-20h-.018c3.37-5.849 5.307-12.627 5.307-19.86v-23.7z" fill="#ffd064"/><path d="m479.5 208.741c13.807 0 25 11.193 25 25v161.254c0 13.807-11.193 25-25 25l-13.986-2.976c-6.29 0-15.853 3.839-15.853 10.128 0 0-.589 14.852-.589 26.422 0 4.447-3.605 8.05-8.053 8.05-2.136 0-4.184-.848-5.694-2.359l-34.545-37.838c-4.271-4.271-10.065-6.671-16.106-6.671l-133.619-.102c-13.807 0-25-11.193-25-25l-1.422-155.869c0-12.081 5.437-22.2 16.829-24.531 1.627-.333 3.312-.508 5.038-.508z" fill="#f5fcff"/><path d="m504 399.99c-2.32 11.41-12.4 20-24.5 20h-14.86c-6.291 0-11.39 5.099-11.39 11.39v31.53c0 4.44-3.6 8.05-8.05 8.05-2.14 0-4.18-.85-5.69-2.36l-41.94-41.93c-4.27-4.28-10.06-6.68-16.1-6.68h-134.97c-13.807 0-25-11.193-25-25v-161.25c0-12.1 8.59-22.18 20-24.5v185.75c0 2.761 2.239 5 5 5h134.97c11.42 0 22.17 4.45 30.24 12.53l14.001 14.001c2.77 2.77 7.433 1.405 8.4-2.391 3.43-13.465 15.723-24.201 30.529-24.14z" fill="#e6f7fe"/></g><g><g><path d="m96.66 48.543h168.84c9.649 0 17.5 7.851 17.5 17.5v82.83c0 4.142 3.358 7.5 7.5 7.5s7.5-3.358 7.5-7.5v-82.83c0-17.92-14.58-32.5-32.5-32.5h-168.84c-4.142 0-7.5 3.358-7.5 7.5s3.358 7.5 7.5 7.5z"/><path d="m504.5 282.819c-4.142 0-7.5 3.358-7.5 7.5v104.675c0 9.649-7.851 17.5-17.5 17.5h-14.859c-10.415 0-18.888 8.473-18.888 18.888v31.525c0 .451-.624.707-.943.388l-41.933-41.933c-5.719-5.719-13.322-8.868-21.409-8.868h-134.968c-9.649 0-17.5-7.851-17.5-17.5v-42.377c0-4.142-3.358-7.5-7.5-7.5s-7.5 3.358-7.5 7.5v42.377c0 17.92 14.58 32.5 32.5 32.5h134.967c4.081 0 7.917 1.589 10.803 4.475l41.934 41.934c2.938 2.937 6.843 4.554 10.996 4.554 8.576 0 15.553-6.976 15.553-15.55v-31.525c0-2.144 1.744-3.888 3.888-3.888h14.859c17.92 0 32.5-14.58 32.5-32.5v-104.675c0-4.142-3.358-7.5-7.5-7.5z"/><path d="m479.5 201.241h-181.5v-17.39c0-4.142-3.358-7.5-7.5-7.5s-7.5 3.358-7.5 7.5v17.39h-36.5c-17.92 0-32.5 14.58-32.5 32.5v11.056h-83.467c-8.087 0-15.69 3.149-21.409 8.868l-41.933 41.933c-.32.319-.943.062-.943-.388v-31.524c0-10.415-8.473-18.889-18.888-18.889h-14.86c-9.649 0-17.5-7.851-17.5-17.5v-161.254c0-9.649 7.851-17.5 17.5-17.5h28.925c4.142 0 7.5-3.358 7.5-7.5s-3.358-7.5-7.5-7.5h-28.925c-17.92 0-32.5 14.58-32.5 32.5v161.253c0 17.92 14.58 32.5 32.5 32.5h14.859c2.144 0 3.888 1.745 3.888 3.889v31.524c0 8.574 6.977 15.55 15.553 15.55 4.154 0 8.06-1.618 10.997-4.555l41.933-41.933c2.886-2.885 6.722-4.475 10.803-4.475h83.467v57.501c0 4.142 3.358 7.5 7.5 7.5s7.5-3.358 7.5-7.5v-83.557c0-9.649 7.851-17.5 17.5-17.5h233c9.649 0 17.5 7.851 17.5 17.5v21.6c0 4.142 3.358 7.5 7.5 7.5s7.5-3.358 7.5-7.5v-21.6c0-17.92-14.58-32.499-32.5-32.499z"/><path d="m363.111 352.42c4.142 0 7.5-3.358 7.5-7.5v-97.084c0-4.142-3.358-7.5-7.5-7.5s-7.5 3.358-7.5 7.5v97.084c0 4.143 3.358 7.5 7.5 7.5z"/><path d="m156 151.415c8.003-1.528 15.303-5.505 21.061-11.569 7.512-7.911 11.336-18.28 10.77-29.196-1.064-20.498-17.985-36.878-38.521-37.292-19.947-.369-37.061 14.169-39.814 33.894-.252 1.806-.379 3.651-.379 5.483 0 4.142 3.358 7.5 7.5 7.5s7.5-3.358 7.5-7.5c0-1.142.079-2.29.236-3.411 1.703-12.204 12.277-21.232 24.656-20.969 12.712.256 23.186 10.39 23.844 23.072.351 6.767-2.017 13.192-6.668 18.091-4.654 4.902-10.934 7.602-17.683 7.602-4.142 0-7.5 3.358-7.5 7.5v33.341c0 4.142 3.358 7.5 7.5 7.5s7.5-3.358 7.5-7.5v-26.546z"/><circle cx="148.5" cy="208.16" r="7.5"/><circle cx="363" cy="375.701" r="7.5"/></g></g></g></svg>