<svg id="Capa_1" enable-background="new 0 0 512 512" height="512" viewBox="0 0 512 512" width="512" xmlns="http://www.w3.org/2000/svg"><g><g id="_x3C_Group_x3E__17_"><path d="m504.5 153.5v282c0 8.28-6.72 15-15 15h-467c-8.28 0-15-6.72-15-15v-282z" fill="#f5fcff"/><path d="m504.5 173.5v-20l-276.011-12.798-220.989 12.798v20 262c0 8.284 6.716 15 15 15h20c-8.28 0-15-6.72-15-15v-256c0-3.314 2.686-6 6-6z" fill="#e6f7fe"/><path d="m364.837 300.549c0-60.109-48.728-108.837-108.837-108.837-30.054 0-57.264 12.182-76.959 31.878s-25.619 48.356-25.619 78.41c0 60.109 42.469 100.149 102.578 100.149 27.21 0 52.088-2.748 71.169-19.254 23.071-19.957 37.668-49.447 37.668-82.346z" fill="#bed9fd"/><path d="m339.22 370.7c-19.97 23.66-49.84 38.69-83.22 38.69-60.11 0-108.84-48.73-108.84-108.84 0-35.64 17.14-67.29 43.62-87.15-15.99 18.94-25.62 43.43-25.62 70.15 0 60.11 48.73 108.84 108.84 108.84 24.47 0 47.04-8.07 65.22-21.69z" fill="#9ec8fc"/><g><path d="m504.5 76.5v77.5h-497v-77.5c0-8.284 6.716-15 15-15h467c8.284 0 15 6.716 15 15z" fill="#5f6c75"/><g fill="#4e5a61"><path d="m235.258 133.5c-8.255 0-14.947-6.716-14.947-15s6.692-15 14.947-15h208.315c8.255 0 14.947 6.716 14.947 15s-6.692 15-14.947 15z"/><ellipse cx="168.369" cy="118.5" rx="14.947" ry="15"/><path d="m178.861 129.184 12.874-12.869-13.139 1.179z"/><path d="m158.092 107.608 12.562-12.516-2.693 10.408z"/><ellipse cx="105.534" cy="118.5" rx="14.947" ry="15"/><path d="m116.053 129.157 12.382-12.499-12.674.836z"/><path d="m95.257 107.608 12.371-12.459-2.502 10.351z"/><ellipse cx="40.447" cy="118.5" rx="14.947" ry="15"/><path d="m51.269 128.846 12.721-13.186-13.139 1.381z"/><path d="m30.17 107.608 11.622-12.038-1.753 9.93z"/></g><ellipse cx="181.349" cy="105.5" fill="#94d4a2" rx="14.947" ry="15"/><path d="m225.014 107.577 12.971-12.991-3.025 14.276z" fill="#4e5a61"/><path d="m454.33 128.915 13.149-13.179-10.185 3.381z" fill="#4e5a61"/><ellipse cx="118.446" cy="105.5" fill="#ffe07d" rx="14.947" ry="15"/><ellipse cx="52.995" cy="105.5" fill="#cd5668" rx="14.947" ry="15"/><path d="m248.237 120.5c-8.255 0-14.947-6.716-14.947-15s6.692-15 14.947-15h208.315c8.255 0 14.947 6.716 14.947 15s-6.692 15-14.947 15z" fill="#f5fcff"/></g><path d="m271.557 328.179 16.063 2.609 6.8 2.637c7.023 2.724 12.013 9.047 13.028 16.512l.661 4.862c.608 4.468-2.842 8.455-7.35 8.497l-89.381.831c-4.565.042-8.105-3.974-7.49-8.497l.774-5.694c1.015-7.464 6.005-13.788 13.028-16.512l5.826-2.259 16.924-2.986z" fill="#d5717f"/><path d="m287.62 330.79c-9.18 7.83-20.29 12.39-32.28 12.39-11.79 0-22.73-4.41-31.82-12.01l16.98-6.59 29.95-.548z" fill="#cd5668"/><path d="m213.302 274.188c.349 11.261 5.642 19.201 10.218 27.812 7.626 14.352 17.667 26.179 31.818 26.179 22.675 0 41.161-24.034 42.04-54.126l-41.378-29.933z" fill="#f7e5c1"/><path d="m297.38 274.05c-.15 5.12-.81 10.06-1.91 14.74-15.103-1.35-23.124-9.313-28.437-16.253-.678-.886-1.952-1.051-2.819-.35-10.317 8.334-22.292 12.575-32.359 14.723-1.107.236-1.776 1.349-1.508 2.448 4.745 19.454 17.186 34.24 32.503 37.922-2.43.59-4.95.9-7.51.9-18.76 0-34.66-16.46-40.08-39.19-1.13-4.69-1.8-9.66-1.96-14.8l42.7-30.07 7.4 5.35z" fill="#f4d9b1"/><path d="m294.934 238.5c-1.697-2.02-6.376-7.587-14.71-9.643-3.088-.762-5.954-.863-8.411-.661-5.029.413-10.07-.227-14.921-1.619-5.206-1.493-12.436-2.486-20.623-.478-1.574.386-4.568 1.218-8.09 2.931-4.58 2.227-8.977 6.068-13.381 12.227-8.729 12.207-5.722 24.149-4.225 29.466.345 1.226 1.453 2.075 2.727 2.076 12.494.008 31.164-2.216 44.345-14.779 5.475-5.218 14.342-4.309 18.72 1.858 5.459 7.69 10.151 13.384 21.461 14.052 1.367.081 2.585-.855 2.9-2.187 1.411-5.963 3.885-21.727-5.792-33.243z" fill="#5f6c75"/><g fill="#4e5a61"><path d="m259.67 256.46c-.71.44-1.39.96-2.02 1.56-13.19 12.56-32.95 16.04-45.44 16.03-1.28 0-2.38-.84-2.73-2.07-1.5-5.32-4.49-18.64 4.24-30.85 5.37-7.51 12.34-11.39 17.34-13.37-.8.91-1.59 1.9-2.34 2.95-8.73 12.21-5.74 25.53-4.24 30.85.35 1.22 1.45 2.07 2.73 2.07 8.82.01 21.27-1.73 32.46-7.17z"/><path d="m261.57 255.5c-.63.33-1.26.65-1.9.96.61-.38 1.25-.7 1.9-.96z"/></g></g><g><g><path d="m29.36 109c0 12.407 10.121 22.5 22.561 22.5s22.561-10.093 22.561-22.5-10.121-22.5-22.561-22.5-22.561 10.093-22.561 22.5zm30.121 0c0 4.136-3.392 7.5-7.561 7.5s-7.561-3.364-7.561-7.5 3.392-7.5 7.561-7.5 7.561 3.364 7.561 7.5z"/><path d="m94.623 109c0 12.407 10.121 22.5 22.561 22.5s22.561-10.093 22.561-22.5-10.121-22.5-22.561-22.5-22.561 10.093-22.561 22.5zm30.121 0c0 4.136-3.392 7.5-7.561 7.5s-7.561-3.364-7.561-7.5 3.392-7.5 7.561-7.5 7.561 3.364 7.561 7.5z"/><path d="m158.003 109c0 12.407 10.121 22.5 22.561 22.5s22.561-10.093 22.561-22.5-10.121-22.5-22.561-22.5-22.561 10.093-22.561 22.5zm30.122 0c0 4.136-3.392 7.5-7.561 7.5s-7.561-3.364-7.561-7.5 3.392-7.5 7.561-7.5 7.561 3.364 7.561 7.5z"/><path d="m481.369 109c0-12.407-10.121-22.5-22.561-22.5h-210.848c-12.44 0-22.561 10.093-22.561 22.5s10.121 22.5 22.561 22.5h210.849c12.44 0 22.56-10.093 22.56-22.5zm-240.97 0c0-4.136 3.392-7.5 7.561-7.5h210.849c4.169 0 7.561 3.364 7.561 7.5s-3.392 7.5-7.561 7.5h-210.849c-4.169 0-7.561-3.364-7.561-7.5z"/><path d="m504.5 380.5c-4.142 0-7.5 3.358-7.5 7.5v47.5c0 4.136-3.364 7.5-7.5 7.5h-467c-4.136 0-7.5-3.364-7.5-7.5v-188.5c0-4.142-3.358-7.5-7.5-7.5s-7.5 3.358-7.5 7.5v188.5c0 12.407 10.093 22.5 22.5 22.5h467c12.407 0 22.5-10.093 22.5-22.5v-47.5c0-4.142-3.358-7.5-7.5-7.5z"/><path d="m489.5 54h-467c-12.407 0-22.5 10.093-22.5 22.5v135.5c0 4.142 3.358 7.5 7.5 7.5s7.5-3.358 7.5-7.5v-51h363.274c4.142 0 7.5-3.358 7.5-7.5s-3.358-7.5-7.5-7.5h-363.274v-69.5c0-4.136 3.364-7.5 7.5-7.5h467c4.136 0 7.5 3.364 7.5 7.5v71.083h-77.844c-4.142 0-7.5 3.358-7.5 7.5s3.358 7.5 7.5 7.5h77.844v190.417c0 4.142 3.358 7.5 7.5 7.5s7.5-3.358 7.5-7.5v-276.5c0-12.407-10.093-22.5-22.5-22.5z"/><path d="m205.09 405.165c3.595 1.745 7.336 3.328 11.121 4.706 12.986 4.726 26.44 7.078 39.859 7.078 16.757 0 33.457-3.669 49.096-10.962 28.163-13.133 49.527-36.447 60.155-65.647s9.249-60.792-3.884-88.956c-13.133-28.163-36.447-49.526-65.648-60.155s-60.792-9.249-88.955 3.884c-28.164 13.133-49.527 36.447-60.155 65.647-15.551 42.726-4.641 90.935 27.795 122.82 2.954 2.903 7.702 2.862 10.606-.091 2.904-2.954 2.863-7.703-.091-10.606-28.257-27.776-37.762-69.773-24.215-106.992 9.257-25.436 27.866-45.743 52.398-57.183 24.532-11.439 52.049-12.643 77.486-3.383 52.507 19.111 79.677 77.377 60.566 129.885-9.257 25.436-27.866 45.744-52.398 57.183-24.532 11.44-52.051 12.641-77.485 3.383-3.303-1.203-6.567-2.584-9.703-4.105-3.727-1.808-8.213-.254-10.022 3.473-1.807 3.725-.253 8.212 3.474 10.021z"/><path d="m197.232 348.926-.774 5.694c-.587 4.315.728 8.664 3.607 11.931 2.849 3.232 6.939 5.078 11.243 5.078.046 0 .094 0 .14-.001l89.381-.832c4.302-.04 8.382-1.929 11.197-5.182 2.813-3.253 4.095-7.563 3.515-11.825l-.661-4.863c-1.382-10.165-8.183-18.784-17.748-22.494l-11.146-4.322c10.15-10.251 17.084-25.529 18.598-43.077 1.666-1.392 2.907-3.31 3.44-5.565 1.724-7.285 4.458-25.744-7.35-39.794v-.001c-1.966-2.339-7.948-9.458-18.655-12.099-3.518-.867-7.159-1.156-10.821-.854-3.882.319-7.999-.137-12.239-1.353-8.062-2.313-16.525-2.503-24.478-.553-6.352 1.559-18.287 5.963-26.861 17.954-7.437 10.4-9.29 23.278-5.359 37.243.643 2.285 2.043 4.211 3.875 5.547 1.629 17.554 8.7 32.794 18.969 42.947l-10.126 3.927c-9.563 3.71-16.364 12.329-17.747 22.494zm22.59-103.432c5.763-8.059 13.897-11.047 18.233-12.11 2.498-.613 5.025-.919 7.569-.919 3.052 0 6.128.441 9.199 1.322 5.987 1.717 11.908 2.351 17.603 1.884 2.042-.167 4.061-.01 6 .468 4.696 1.096 9.484 5.292 10.765 7.187 5.851 6.962 5.859 16.359 5.012 22.521-4.824-1.25-7.52-4.39-11.723-10.311-3.361-4.735-8.608-7.77-14.396-8.327-5.753-.556-11.446 1.408-15.615 5.382-9.783 9.325-24.686 13.213-36.598 13.864-1.545-8.087-.222-15.125 3.951-20.961zm1.574 35.528c11.171-1.231 28.437-5.195 41.424-17.574 1.39-1.325 2.994-1.39 3.828-1.309.852.082 2.453.461 3.603 2.08 5.011 7.058 10.091 13.182 19.147 15.849-2.835 22.893-17.263 40.612-34.059 40.612-16.548-.001-30.83-17.236-33.943-39.658zm-.992 59.396 19.898-7.717c4.743 1.927 9.792 2.978 15.036 2.978 5.503 0 10.788-1.156 15.731-3.266l20.64 8.004c4.478 1.736 7.662 5.771 8.309 10.529l.673 4.85-89.369.845.774-5.694c.647-4.758 3.83-8.793 8.308-10.529z"/></g></g></g></svg>