<svg id="Capa_1" enable-background="new 0 0 512 512" height="512" viewBox="0 0 512 512" width="512" xmlns="http://www.w3.org/2000/svg"><g><g id="_x3C_Group_x3E__12_"><path d="m108.319 63.504-27.755-1.1.34-43.915c0-5.523.528-10.989 6.051-10.989h14.698c5.523 0 10 4.477 10 10v30.14z" fill="#5f6c75"/><path d="m111.65 47.64v16l-19.256 8.892-15.434-8.892v-46.14c0-5.52 4.47-10 10-10h5v36.14c0 2.209 1.791 4 4 4z" fill="#4e5a61"/><path d="m115.46 428.5-47.322 7.5 2.412-345.5c0-5.523-1.768-26.864 3.755-26.864h40c5.523 0 10 4.477 10 10v220.744z" fill="#bed9fd"/><path d="m62.802 409.234v26.975c0 3.977 5.343 7.217 5.343 7.217l-2.093 6.573 15.714 37.548c.778 1.859 2.597 3.07 4.612 3.07h15.847c2.016 0 3.834-1.21 4.612-3.07l16.638-39.756c1.535-3.668 2.326-7.605 2.326-11.582v-26.976l-31.5-3z" fill="#bed9fd"/><path d="m101.38 490.62h-15c-2.02 0-3.84-1.21-4.61-3.07l-15.72-37.55 2.095-6.574c-1.54-3.67-5.345-3.236-5.345-7.216v-26.98l7.759-3 7.241 3v26.98c0 3.98.79 7.91 2.33 11.58l.92 2.21 15.72 37.55c.77 1.86 2.59 3.07 4.61 3.07z" fill="#9ec8fc"/><path d="m88.3 63.64c-5.52 0-10 4.47-10 10v219.86l-6.757 5.33c-.94 0-6.563-5-7.243-4.45v-220.74c0-5.53 4.48-10 10-10z" fill="#9ec8fc"/><path d="m272.45 419.54-10.46 41.63-22.447 11.787-12.937-14.611-14.156-38.806 30.156-5.646z" fill="#f7e5c1"/><path d="m272.451 419.538h-22.501l-8.365-3.261-6.635 3.261h-18.727l3.727-297.212v-55.411l46.571.511 5.93 55.082z" fill="#7fcb8f"/><path d="m443.2 7.5h-91.54c-8.28 0-15 6.72-15 15v467c0 8.28 6.72 15 15 15h91.54c8.28 0 15-6.72 15-15v-467c0-8.28-6.72-15-15-15zm-45.77 60c-8.28 0-15-6.71-15-15 0-8.28 6.72-15 15-15s15 6.72 15 15c0 8.29-6.72 15-15 15z" fill="#ffe07d"/><path d="m351.66 483.5v-476c-8.28 0-15 6.72-15 15v467c0 8.284 6.716 15 15 15h91.54c8.28 0 15-6.72 15-15h-100.54c-3.314 0-6-2.686-6-6z" fill="#ffd064"/><g><g><path d="m336.66 248.5h15v15h-15z" fill="#d3effd"/></g><g><path d="m336.66 308.5h15v15h-15z" fill="#d3effd"/></g><g><path d="m336.66 368.5h15v15h-15z" fill="#d3effd"/></g><g><path d="m336.66 428.5h15v15h-15z" fill="#d3effd"/></g><g><path d="m336.66 188.5h15v15h-15z" fill="#d3effd"/></g><g><path d="m336.66 128.5h15v15h-15z" fill="#d3effd"/></g><g><path d="m336.66 68.5h15v15h-15z" fill="#d3effd"/></g></g><g><path d="m83.49 367.87c0 4.14-3.36 7.5-7.5 7.5h-13.19l2.657-7.5-2.657-7.5h13.19c4.14 0 7.5 3.35 7.5 7.5z" fill="#e6f7fe"/></g><g><path d="m83.49 397.38c0 4.14-3.36 7.5-7.5 7.5h-13.19l6.232-5.795-6.232-9.205h13.19c4.14 0 7.5 3.36 7.5 7.5z" fill="#e6f7fe"/></g><g><path d="m83.49 337.96c0 4.14-3.36 7.5-7.5 7.5h-13.19l4.062-6.885-4.062-8.115h13.19c4.14 0 7.5 3.36 7.5 7.5z" fill="#e6f7fe"/></g><path d="m257.451 7.5h-30c-8.284 0-11.568 6.45-11.568 14.734l4.067 36.085 50.316 3.66 2.185-14.479v-25c0-8.284-6.716-15-15-15z" fill="#d5717f"/><path d="m232.45 47.5c-2.761 0-5-2.239-5-5v-20c0-8.28 6.72-15 15-15h-15c-8.284 0-15 6.716-15 15v25 15l24.88 6 35.12-6v-15z" fill="#cd5668"/><g><path d="m94.305 230.829c-4.142 0-7.5-3.358-7.5-7.5v-95c0-4.142 3.358-7.5 7.5-7.5s7.5 3.358 7.5 7.5v95c0 4.142-3.358 7.5-7.5 7.5z" fill="#9ec8fc"/></g><path d="m272.451 122.508h-45.001l-11.567-5.04v-52.425l11.567-2.539h45.001z" fill="#f5fcff"/><path d="m237.159 458.146-9.709-38.606-7.5-7.348-7.5 7.348 10.47 41.63 9.94 39.55c.55 2.22 2.55 3.78 4.84 3.78h9.5c2.29 0 4.29-1.56 4.85-3.78l9.94-39.55h-20.952c-1.833 0-3.432-1.246-3.879-3.024z" fill="#f4d9b1"/><path d="m212.45 122.51h15v297.03h-15z" fill="#71bf7e"/><path d="m212.45 62.5h15v60.01h-15z" fill="#e6f7fe"/><path d="m134.802 401.234v-16.154l-1-7.5 1-7.5v-14.52l-1-7.5 1-7.5v-15l-1-7.5 1-7.5v-14.91l-1-7.5 1-7.5v-16.15c0-4.418-3.582-8-8-8h-65c-4.418 0-8 3.582-8 8v16.15l1 7.5-1 7.5v14.91l1 7.5-1 7.5v15l1 8.717-1 6.283v14.52l1 7.5-1 7.5v16.154c0 4.418 3.582 8 8 8h65c4.419 0 8-3.582 8-8z" fill="#5f6c75"/><path d="m76.8 409.23h-15c-4.42 0-8-3.58-8-8v-16.15l1-7.5-1-7.5v-14.52l1-6.28-1-8.72v-15l1-7.5-1-7.5v-14.91l1-7.5-1-7.5v-16.15c0-4.42 3.58-8 8-8h15c-4.42 0-8 3.58-8 8v136.73c0 4.42 3.58 8 8 8z" fill="#4e5a61"/><g><path d="m81.05 450h-15l-.92-2.21c-1.54-3.67-2.33-7.6-2.33-11.58v-1.21h15v1.21c0 3.98.79 7.91 2.33 11.58z" fill="#4e5a61"/></g></g><g><g><path d="m257.451 0h-30c-12.407 0-22.5 10.093-22.5 22.5v40.003 357.034c.03.484.01.829.226 1.828l20.405 81.182c1.399 5.565 6.384 9.452 12.123 9.452h9.492c5.738 0 10.724-3.887 12.124-9.453l20.404-81.181c.069-.349.207-.915.227-1.828v-45.304c0-4.142-3.357-7.5-7.5-7.5s-7.5 3.358-7.5 7.5v37.804h-15v-190.207c0-4.142-3.358-7.5-7.5-7.5s-7.5 3.358-7.5 7.5v190.208h-15v-282.03h15v56.822c0 4.142 3.358 7.5 7.5 7.5s7.5-3.358 7.5-7.5v-56.822h15v208.822c0 4.142 3.357 7.5 7.5 7.5s7.5-3.358 7.5-7.5v-276.326-40.004c-.002-12.407-10.095-22.5-22.501-22.5zm-30 15h30c4.135 0 7.5 3.364 7.5 7.5v32.503h-45v-32.503c0-4.136 3.364-7.5 7.5-7.5zm17.796 482h-5.593l-7.121-28.33h19.834zm17.585-69.962-6.694 26.632h-27.375l-6.694-26.632zm-42.881-312.03v-45.004h45v45.004z"/><path d="m458.195 88.075c4.143 0 7.5-3.358 7.5-7.5v-58.075c0-12.407-10.094-22.5-22.5-22.5h-91.532c-12.406 0-22.5 10.093-22.5 22.5v467c0 12.407 10.094 22.5 22.5 22.5h91.532c12.406 0 22.5-10.093 22.5-22.5v-374.075c0-4.142-3.357-7.5-7.5-7.5s-7.5 3.358-7.5 7.5v374.075c0 4.136-3.364 7.5-7.5 7.5h-91.532c-4.136 0-7.5-3.364-7.5-7.5v-46h15.058c4.143 0 7.5-3.358 7.5-7.5s-3.357-7.5-7.5-7.5h-15.058v-45h25.181c4.143 0 7.5-3.358 7.5-7.5s-3.357-7.5-7.5-7.5h-25.181v-45h15.058c4.143 0 7.5-3.358 7.5-7.5s-3.357-7.5-7.5-7.5h-15.058v-45h25.181c4.143 0 7.5-3.358 7.5-7.5s-3.357-7.5-7.5-7.5h-25.181v-45h15.058c4.143 0 7.5-3.358 7.5-7.5s-3.357-7.5-7.5-7.5h-15.058v-45h25.181c4.143 0 7.5-3.358 7.5-7.5s-3.357-7.5-7.5-7.5h-25.181v-45h15.058c4.143 0 7.5-3.358 7.5-7.5s-3.357-7.5-7.5-7.5h-15.058v-46c0-4.136 3.364-7.5 7.5-7.5h91.532c4.136 0 7.5 3.364 7.5 7.5v58.075c0 4.142 3.358 7.5 7.5 7.5z"/><path d="m419.93 52.504c0-12.407-10.094-22.5-22.5-22.5s-22.5 10.093-22.5 22.5 10.094 22.5 22.5 22.5 22.5-10.093 22.5-22.5zm-22.5 7.5c-4.136 0-7.5-3.364-7.5-7.5s3.364-7.5 7.5-7.5 7.5 3.364 7.5 7.5-3.365 7.5-7.5 7.5z"/><path d="m419.43 473.333c4.143 0 7.5-3.358 7.5-7.5v-89.833c0-4.142-3.357-7.5-7.5-7.5s-7.5 3.358-7.5 7.5v89.833c0 4.142 3.357 7.5 7.5 7.5z"/><path d="m426.93 323.5c0-4.142-3.357-7.5-7.5-7.5s-7.5 3.358-7.5 7.5v18c0 4.142 3.357 7.5 7.5 7.5s7.5-3.358 7.5-7.5z"/><g><path d="m134.562 56.136h-15.408v-38.636c0-9.649-7.851-17.5-17.5-17.5h-14.698c-9.649 0-17.5 7.851-17.5 17.5v39.334c-7.295 2.109-12.651 8.836-12.651 16.802v52.385c0 4.142 3.358 7.5 7.5 7.5s7.5-3.358 7.5-7.5v-52.385c0-1.378 1.122-2.5 2.5-2.5h37.5 2.5c1.378 0 2.5 1.122 2.5 2.5v175.364h-45v-88.127c0-4.142-3.358-7.5-7.5-7.5s-7.5 3.358-7.5 7.5v88.971c-6.098 2.086-10.5 7.861-10.5 14.657v136.733c0 6.224 3.695 11.588 9 14.052v20.923c0 4.997.978 9.868 2.907 14.478l16.639 39.757c1.952 4.662 6.478 7.674 11.531 7.674h.423v6.383c0 4.142 3.358 7.5 7.5 7.5s7.5-3.358 7.5-7.5v-6.383h.423c5.055 0 9.581-3.013 11.531-7.674l16.639-39.756c1.929-4.61 2.907-9.48 2.907-14.478v-20.923c5.305-2.464 9-7.828 9-14.052v-136.735c0-6.796-4.402-12.57-10.5-14.657l-.2-178.707h2.957c5.431 0 9.849 4.418 9.849 9.849v124.665c0 4.142 3.358 7.5 7.5 7.5s7.5-3.358 7.5-7.5v-124.665c0-13.701-11.147-24.849-24.849-24.849zm-20.942 239.518h13.685v14.91h-13.685c-4.142 0-7.5 3.358-7.5 7.5s3.358 7.5 7.5 7.5h13.685v15h-13.685c-4.142 0-7.5 3.358-7.5 7.5s3.358 7.5 7.5 7.5h13.685v14.516h-13.685c-4.142 0-7.5 3.358-7.5 7.5s3.358 7.5 7.5 7.5h13.685v16.154c0 .276-.224.5-.5.5h-65c-.276 0-.5-.224-.5-.5v-16.154h13.685c4.142 0 7.5-3.358 7.5-7.5s-3.358-7.5-7.5-7.5h-13.685v-14.516h13.685c4.142 0 7.5-3.358 7.5-7.5s-3.358-7.5-7.5-7.5h-13.685v-15h13.685c4.142 0 7.5-3.358 7.5-7.5s-3.358-7.5-7.5-7.5h-13.685v-14.91h13.685c4.142 0 7.5-3.358 7.5-7.5s-3.358-7.5-7.5-7.5h-13.685v-16.154c0-.276.224-.5.5-.5h65c.276 0 .5.224.5.5v16.154h-13.685c-4.142 0-7.5 3.358-7.5 7.5s3.358 7.5 7.5 7.5zm4.685 139.346h-48v-18.267h48zm-17.741 48.117h-12.519l-13.86-33.117h40.239zm-13.608-468.117h14.698c1.378 0 2.5 1.122 2.5 2.5v38.636h-19.698v-38.636c0-1.378 1.121-2.5 2.5-2.5z"/><path d="m101.805 205.5v-95c0-4.142-3.358-7.5-7.5-7.5s-7.5 3.358-7.5 7.5v95c0 4.142 3.358 7.5 7.5 7.5s7.5-3.358 7.5-7.5z"/></g></g></g></g></svg>