<svg id="Capa_1" enable-background="new 0 0 512 512" height="512" viewBox="0 0 512 512" width="512" xmlns="http://www.w3.org/2000/svg"><g><g id="_x3C_Group_x3E__19_"><path d="m421 7.5h-330c-8.284 0-13.66 6.62-13.66 14.904v9.984l-.255 455.888c0 8.284 6.716 15 15 15l328.149-.106c8.284 0 14.553-5.248 14.553-13.532l1.213-2.138v-455.016-9.984c0-8.284-6.716-15-15-15z" fill="#ffe07d"/><path d="m436 487.5v2c0 8.284-6.716 15-15 15h-330c-8.284 0-15-6.716-15-15v-467c0-8.284 6.716-15 15-15h2v472c0 4.418 3.582 8 8 8z" fill="#ffd064"/><path d="m360.549 470.234-209.099-.574c-1.919 0-3.663-1.102-4.497-2.831-7.494-15.529-18.913-26.477-34.442-33.971-1.729-.834-2.831-2.578-2.831-4.497l-1.871-337.701c0-1.341 1.645-2.51 2.608-1.577 6.241 6.049 11.672 5.975 17.862 6.638 9.795 1.049 17.655-2.236 17.655-2.236.94 0 1.734.728 1.78 1.666.869 17.833 15.602 32.024 33.65 32.024 8.994 0 17.16-3.529 23.2-9.273 1.123-1.068 2.996-.27 3.003 1.28.156 33.776 30.093 45.01 48.434 45.01 18.342 0 48.488-11.234 48.472-44.924 0-.016 0-.033 0-.049-.002-1.554 1.834-2.392 2.96-1.321 6.041 5.747 14.209 9.277 23.205 9.277 18.048 0 32.781-14.192 33.65-32.024.046-.939.84-1.666 1.78-1.666 0 0 21.402 8.069 37.049-6.869.97-.926 2.608.236 2.608 1.577v343.083c0 1.919-1.102 3.663-2.831 4.497-8.462 4.084-16.054 9.683-22.424 16.447-5.319 5.648-12.012 8.118-15.422 15.185-.836 1.727-2.579 2.829-4.499 2.829z" fill="#f5fcff"/><path d="m380.47 452.22c-5.32 5.65-9.79 12.1-13.2 19.17-.83 1.73-2.58 2.83-4.5 2.83h-213.54c-1.92 0-3.67-1.1-4.5-2.83-7.5-15.53-20.09-28.12-35.62-35.62-1.73-.83-2.83-2.58-2.83-4.5v-343.08c0-1.537 1.832-2.3 2.95-1.245 6.15 5.804 12.975 8.117 19.05 8.765v323.939c0 1.017.521 1.956 1.373 2.512 11.422 7.467 21.219 17.265 28.686 28.686.556.851 1.495 1.373 2.512 1.373z" fill="#e6f7fe"/><path d="m176.548 415.681-3.455-8.429c-.865-1.555-2.492-2.533-4.271-2.568l-10.483.879c-3.805-.075-6.135-4.203-4.232-7.499l.231-4.126 28.508-49.377 33.01 19.058-28.684 49.682-1.924 2.449c-1.943 3.364-6.812 3.325-8.7-.069z" fill="#ffe07d"/><path d="m187.17 413.3-3.53 6.12c-1.94 3.36-6.81 3.32-8.7-.07l-4.67-8.39c-.87-1.56-2.49-2.54-4.27-2.57l-11.32-.22c-3.8-.08-6.13-4.21-4.23-7.5l3.89-6.73 19.66.45c1.78.03 3.4 1.01 4.27 2.57z" fill="#ffd064"/><path d="m237.686 415.985 6.328-7.604c.87-1.332 2.323-2.17 3.911-2.257l5.708-.145c3.722-.204 5.92-4.264 4.056-7.492l-.151-6.495-27.384-47.43-33.01 19.058 27.508 47.645 4.517 4.486c1.865 3.227 6.478 3.354 8.517.234z" fill="#ffe07d"/><path d="m247.31 344.534c0 3.593-.465 7.078-1.337 10.397-4.597 17.494-18.122 25.261-37.058 25.261-22.53 0-39.319-13.101-39.319-35.631 0-15.887 5.207-29.679 18.462-36.416 5.543-2.817 11.815-4.405 18.459-4.405 22.529 0 40.793 18.264 40.793 40.794z" fill="#d5717f"/><path d="m258.66 408.45-10.67.58c-1.59.09-3.04.93-3.91 2.26l-5.86 8.96c-2.04 3.12-6.65 2.99-8.51-.23l-5.05-8.76 10.42-15.97c.87-1.33 2.32-2.17 3.91-2.26l18.55-1.04 5.17 8.96c1.87 3.23-.33 7.29-4.05 7.5z" fill="#ffd064"/><path d="m245.97 354.93c-4.59 17.49-20.51 30.4-39.45 30.4-22.53 0-40.8-18.27-40.8-40.8 0-15.88 9.08-29.65 22.34-36.38-.88 3.31-1.34 6.79-1.34 10.38 0 22.53 18.27 40.8 40.8 40.8 6.64 0 12.91-1.59 18.45-4.4z" fill="#cd5668"/></g><g><g><path d="m155.204 94.784c-.241-4.935-4.313-8.8-9.271-8.8-.993 0-1.977.197-2.893.58-.164.069-16.517 6.703-28.936-5.334-2.517-2.439-6.255-3.123-9.527-1.736-3.47 1.469-5.802 4.964-5.802 8.698v343.083c0 4.761 2.775 9.178 7.071 11.251 13.974 6.744 25.383 18.153 32.127 32.128 2.073 4.294 6.49 7.068 11.25 7.068h125.393c4.143 0 7.5-3.358 7.5-7.5s-3.357-7.5-7.5-7.5h-123.831c-8.05-15.903-21.104-28.958-37.009-37.009v-330.473c10.264 5.15 20.624 4.625 27.397 3.329 4.139 18.479 20.608 32.106 40.189 32.106 6.949 0 13.672-1.729 19.645-4.979 5.582 30.588 34.77 41.996 54.992 41.996 12.376 0 25.64-4.196 35.479-11.225 7.748-5.534 16.727-15.108 19.576-30.736 5.956 3.228 12.655 4.944 19.581 4.944 19.641 0 36.149-13.708 40.227-32.272 6.762 1.17 17.188 1.619 27.36-3.327v49.966c0 4.142 3.357 7.5 7.5 7.5s7.5-3.358 7.5-7.5v-60.85c0-3.717-2.316-7.205-5.764-8.681-3.258-1.394-6.994-.735-9.523 1.679-11.944 11.4-28.561 5.519-29.225 5.277-.846-.319-1.741-.482-2.646-.482-4.957 0-9.029 3.865-9.271 8.801-.68 13.957-12.171 24.89-26.159 24.89-6.742 0-13.147-2.561-18.037-7.213-2.68-2.548-6.606-3.251-10.004-1.791-3.421 1.47-5.628 4.829-5.623 8.601.006 12.496-4.775 22.249-14.212 28.989-8.702 6.216-19.529 8.431-26.761 8.431-14.098 0-40.796-7.847-40.934-37.548-.019-3.701-2.234-7.031-5.644-8.484-3.41-1.454-7.346-.744-10.027 1.807-4.889 4.648-11.292 7.208-18.032 7.208-13.985-.001-25.476-10.934-26.156-24.892z"/><path d="m421 0h-270.915c-4.143 0-7.5 3.358-7.5 7.5s3.357 7.5 7.5 7.5h270.915c4.136 0 7.5 3.364 7.5 7.5v467c0 4.136-3.364 7.5-7.5 7.5h-330c-4.136 0-7.5-3.364-7.5-7.5v-467c0-4.136 3.364-7.5 7.5-7.5h24.17c4.143 0 7.5-3.358 7.5-7.5s-3.357-7.5-7.5-7.5h-24.17c-12.406 0-22.5 10.093-22.5 22.5v467c0 12.407 10.094 22.5 22.5 22.5h330c12.406 0 22.5-10.093 22.5-22.5v-467c0-12.407-10.094-22.5-22.5-22.5z"/><path d="m309.426 481.723h53.349c4.763 0 9.18-2.776 11.252-7.071 6.743-13.973 18.152-25.382 32.127-32.126 4.295-2.073 7.07-6.49 7.07-11.251v-247.254c0-4.142-3.357-7.5-7.5-7.5s-7.5 3.358-7.5 7.5v245.692c-15.903 8.051-28.959 21.106-37.01 37.009h-51.788c-4.143 0-7.5 3.358-7.5 7.5s3.357 7.501 7.5 7.501z"/><path d="m362.798 252.784c0-4.142-3.357-7.5-7.5-7.5h-106.532c-4.143 0-7.5 3.358-7.5 7.5s3.357 7.5 7.5 7.5h106.532c4.142 0 7.5-3.358 7.5-7.5z"/><path d="m156.702 260.284h56.894c4.143 0 7.5-3.358 7.5-7.5s-3.357-7.5-7.5-7.5h-56.894c-4.143 0-7.5 3.358-7.5 7.5s3.358 7.5 7.5 7.5z"/><path d="m355.298 224.195c4.143 0 7.5-3.358 7.5-7.5s-3.357-7.5-7.5-7.5h-45.106c-4.143 0-7.5 3.358-7.5 7.5s3.357 7.5 7.5 7.5z"/><path d="m156.702 224.195h118.426c4.143 0 7.5-3.358 7.5-7.5s-3.357-7.5-7.5-7.5h-118.426c-4.143 0-7.5 3.358-7.5 7.5s3.358 7.5 7.5 7.5z"/><path d="m143.896 409.311c2.195 3.891 6.174 6.267 10.642 6.354l9.878.193 3.97 7.136c2.184 3.926 6.331 6.388 10.823 6.424h.101c4.454 0 8.596-2.388 10.825-6.25l16.366-28.347 16.711 28.943c2.188 3.79 6.104 6.125 10.479 6.246.119.003.237.005.355.005 4.237 0 8.125-2.099 10.454-5.663l5.163-7.901 9.407-.517c4.37-.24 8.223-2.682 10.307-6.531 2.083-3.849 2.021-8.41-.168-12.2l-18.8-32.564c2.818-6.127 4.402-12.933 4.402-20.107 0-26.629-21.665-48.294-48.295-48.294-10.429 0-20.359 3.273-28.719 9.464-3.329 2.465-4.028 7.163-1.563 10.491 2.464 3.328 7.162 4.028 10.49 1.563 5.757-4.264 12.601-6.518 19.791-6.518 18.358 0 33.295 14.936 33.295 33.294s-14.937 33.294-33.295 33.294-33.294-14.936-33.294-33.294c0-.447.009-.892.026-1.335.164-4.139-3.058-7.627-7.197-7.792-4.127-.172-7.627 3.058-7.791 7.197-.025.64-.038 1.283-.038 1.93 0 7.162 1.579 13.957 4.388 20.076l-18.653 32.307c-2.233 3.871-2.256 8.504-.06 12.396zm97.088-30.995 13.201 22.865-6.608.363c-3.956.218-7.611 2.328-9.777 5.644l-3.631 5.556-12.845-22.247c7.525-2.431 14.247-6.659 19.66-12.181zm-68.955-.02c5.41 5.525 12.129 9.757 19.654 12.192l-12.333 21.361-2.525-4.539c-2.155-3.874-6.247-6.334-10.679-6.42l-7.081-.139z"/><path d="m292.489 340.032h62.809c4.143 0 7.5-3.358 7.5-7.5s-3.357-7.5-7.5-7.5h-62.809c-4.143 0-7.5 3.358-7.5 7.5s3.358 7.5 7.5 7.5z"/><path d="m355.298 356.627h-34.553c-4.143 0-7.5 3.358-7.5 7.5s3.357 7.5 7.5 7.5h34.553c4.143 0 7.5-3.358 7.5-7.5s-3.358-7.5-7.5-7.5z"/><path d="m322.5 54.504c0-4.142-3.357-7.5-7.5-7.5h-118c-4.143 0-7.5 3.358-7.5 7.5s3.357 7.5 7.5 7.5h118c4.143 0 7.5-3.358 7.5-7.5z"/><path d="m237.659 77.006c-4.143 0-7.5 3.358-7.5 7.5s3.357 7.5 7.5 7.5h36.682c4.143 0 7.5-3.358 7.5-7.5s-3.357-7.5-7.5-7.5z"/></g></g></g></svg>