<svg id="Capa_1" enable-background="new 0 0 511.999 511.999" height="512" viewBox="0 0 511.999 511.999" width="512" xmlns="http://www.w3.org/2000/svg"><g><g id="_x3C_Group_x3E__13_"><path d="m358.405 370.928 49.961 16.526c20.709 6.85 36.069 24.4 40.116 45.834l8.966 47.493c.236 1.25.351 2.49.353 3.71.023 10.801-8.851 15.011-20.112 15.011l-142.384 4.989-39.446-10.674-39.275 10.674-135.83-2.436c-12.533 0-21.978-11.395-19.653-23.71l7.908-42.417c4.047-21.434 19.407-38.984 40.116-45.834l49.961-16.526z" fill="#f5fcff"/><path d="m74.268 484.491 8.96-47.49c2.7-14.29 12.95-25.99 26.75-30.56l42.493-14.053c1.739-.575 3.651-.229 5.079.918l45.608 36.664c4.3 3.45 9.69 5.36 15.19 5.36 10.34 0 19.56-6.55 22.96-16.31l14.7-42.2 14.72 42.27c3.39 9.75 12.62 16.3 22.95 16.3h.01c5.49 0 10.89-1.9 15.19-5.36l58.9-47.35c2.38-1.91 4.32-4.2 5.79-6.74l-15.16-5.01h-155.6-49.15l-49.96 16.52c-20.71 6.85-36.07 24.4-40.12 45.84l-8.97 47.49c-2.32 12.32 7.12 23.71 19.66 23.71h142.32l39.27-10.67 39.45 10.67h142.49c11.26 0 20.03-9.2 20-20h-383.53z" fill="#e6f7fe"/><path d="m320.696 333.255-6.334-35.843h-116.666l-6.325 35.797 64.487 58.662z" fill="#f4d9b1"/><path d="m136.01 218.961c-22.621 0-40.96-18.338-40.96-40.959v-2.217c0-11.864 9.618-21.482 21.482-21.482h40.659l-1.181 64.658z" fill="#f7e5c1"/><path d="m354.006 218.961h22.311c22.621 0 40.96-18.338 40.96-40.959v-2.217c0-11.864-9.618-21.482-21.482-21.482h-41.789z" fill="#f7e5c1"/><path d="m157.188 154.301-1.18 64.66h-20c-3.64 0-7.17-.48-10.53-1.37-6.23-19.89-9.76-41.24-10.35-63.24.47-.03.93-.05 1.4-.05z" fill="#f4d9b1"/><path d="m396.928 154.331c-.59 22.04-4.13 43.42-10.38 63.34-3.27.84-6.7 1.29-10.23 1.29h-22.31v-64.66h41.79c.38 0 .75.01 1.13.03z" fill="#f4d9b1"/><path d="m295.304 504.491h-78.721l20.327-65.922 22.556-1 15.511 1z" fill="#b78c7a"/><path d="m217.997 59.802c-48.58 0-87.961 39.381-87.961 87.961 0 93.229 56.409 168.805 125.993 168.805s125.993-75.577 125.993-168.805c0-48.579-39.381-87.961-87.961-87.961z" fill="#f7e5c1"/><path d="m382.028 147.76c0 7.19-.34 14.27-.99 21.22-42.4-3.02-59.53-27.36-77.61-53.02-4.16-5.9-8.39-11.91-13.1-18.01-16.95 23.34-41.07 41.46-71.98 54.02-34.86 14.17-68.28 17.13-87.28 17.47-.68-7.1-1.03-14.34-1.03-21.68 0-25.79 11.1-48.98 28.77-65.06 15.63-14.23 36.4-22.9 59.19-22.9h76.06c9.32 0 18.3 1.45 26.73 4.14 13.54 4.31 25.66 11.81 35.47 21.62 10.4 10.4 18.21 23.4 22.37 37.93 2.22 7.711 3.4 15.851 3.4 24.27z" fill="#f4d9b1"/><path d="m388.922 151.246c-60.34 0-58.414-40.717-102.383-85.149-2.307-2.027-.785-14.129-3.293-23.91-2.478-9.663-.1-17.553.934-20.455 7.477-2.671 25.183-7.829 46.373-2.601 24.959 6.157 38.969 22.829 44.052 28.878 25.574 30.432 22.811 70.771 18.905 92.102-.593 3.242-4.588 11.135-4.588 11.135z" fill="#5f6c75"/><path d="m123.391 148.948c45.52 1.577 125.103-11.34 160.34-80.17 6.88-13.439 8.975-36.703.449-47.046-8.222-4.385-42.351-21.383-85.256-10.859-5.814 1.426-18.101 4.885-31.844 12.818-11.885 6.86-20.103 18.591-30.922 33.722-30.843 43.131-14.644 83.975-12.767 91.535z" fill="#5f6c75"/><path d="m378.548 138.631c-24.67-3.13-34.46-17.04-50.58-39.94-8.13-11.53-17.23-24.46-29.8-37.83.01-.09.01-.17.02-.24 0 0-.023-.024-.067-.071-3.528-3.728-5.576-8.588-5.963-13.706-.758-10.031-3.579-19.778-7.98-25.113-1.56-.83-4.07-2.12-7.39-3.59 3.89 10.66 4.43 27.55.15 36.85-24.923 54.047-83.926 68.676-120.06 69.459-4.735.103-8.912-3.07-10.002-7.679-3.502-14.806-8.536-46.563 10.282-75.791 6.44-9.99 13.88-17.45 21.15-23.01-14.37 6.42-32.54 17.83-46.91 37.92-30.84 43.13-12.82 90.92-10.94 98.48 45.519 1.58 132.737-13.12 167.978-81.947 39.277 42.51 43.727 81.877 101.712 81.877.48-1.55 1.99-6.69 3.36-14.19-9.02-.79-14.96-1.479-14.96-1.479z" fill="#4e5a61"/><path d="m284.89 414.157-9.913 24.412h-38.067l-9.769-24.477-.558-52.368 29.432 3 29.433-3z" fill="#ab7b64"/><path d="m289.138 484.491h-42.257c-4.038 0-6.923-3.909-5.734-7.767l11.761-38.153h-16l-20.32 65.92h16 62.72z" fill="#ab7b64"/><path d="m226.688 361.724v.007l-.1-.01.55 52.37 9.77 24.48h16l-8.391-21.025c-.889-2.229-.948-4.703-.165-6.971l10.715-31.028c.31-.897 1.578-.899 1.89-.002l13.772 39.547c1.53 4.4 4.25 8.15 7.72 10.93l6.44-15.86.46-52.436h-58.661z" fill="#9a6a53"/><g fill="#f5fcff"><path d="m212.553 418.276-58.899-47.348c-3.114-2.503-4.278-6.718-2.889-10.464l11.131-30.033c2.099-5.665 8.704-8.189 14.046-5.368l69.435 36.662-18.236 52.368c-2.111 6.06-9.586 8.204-14.588 4.183z"/><path d="m299.477 418.34 58.899-47.348c3.114-2.503 4.278-6.718 2.889-10.464l-11.131-30.033c-2.099-5.665-8.704-8.189-14.046-5.368l-69.435 36.662 18.236 52.368c2.111 6.06 9.587 8.204 14.588 4.183z"/></g></g><g><g><path d="m326.392 461.085c-4.143 0-7.5 3.357-7.5 7.5s3.357 7.5 7.5 7.5h55.228c4.143 0 7.5-3.357 7.5-7.5s-3.357-7.5-7.5-7.5z"/><path d="m464.818 479.389-2.104-11.14c-.77-4.071-4.698-6.746-8.762-5.979-4.07.769-6.747 4.691-5.979 8.762l2.104 11.139c1.298 5.992-3.775 14.967-12.283 14.819h-136.954l-17.908-58.077 4.902-12.074c1.729.573 2.404.827 5.816 1.047 3.783 0 7.512-1.278 10.525-3.701h.001l55.783-44.844 46.05 15.232c18.112 5.992 31.563 21.359 35.103 40.107l.353 1.864c.681 3.6 3.827 6.107 7.36 6.107.463 0 .932-.043 1.402-.132 4.07-.77 6.745-4.692 5.976-8.763l-.352-1.862c-4.551-24.102-21.844-43.859-45.131-51.563l-41.619-13.766c.482-2.836.247-5.811-.803-8.646l-11.131-30.033c-3.055-8.65-14.785-14.652-24.58-9.393l-6.296 3.324-3.731-21.111c7.901-5.988 15.367-13.069 22.265-21.181 2.683-3.155 2.3-7.889-.855-10.572-3.157-2.684-7.89-2.298-10.572.855-21.525 25.315-49.002 39.258-77.369 39.258-31.696.302-61.505-18.254-81.495-44.343-21.233-27.419-34.088-63.768-36.559-103.027 18.208-.887 44.906-4.252 72.983-14.885 35.401-13.406 61.859-34.074 78.814-61.514 7.694 9.175 14.046 18.187 19.794 26.349 16.527 23.47 31.094 44.142 64.572 49.048-1.715 29.282-9.243 57.218-21.927 81.157-1.939 3.66-.545 8.199 3.115 10.139 1.12.594 2.321.875 3.505.875 2.688 0 5.288-1.45 6.634-3.99 3.803-7.178 7.167-14.687 10.096-22.455.249.025.5.038.755.038 26.721 0 48.459-21.739 48.459-48.46v-2.217c0-14.644-10.92-26.779-25.044-28.707 4.477-20.543 10.472-68.364-19.39-103.901-5.112-6.081-20.669-24.587-47.992-31.327-19.127-4.722-35.958-1.909-47.553 1.769-14.83-7.354-47.877-19.785-87.66-10.031-15.059 3.693-29.733 10.285-42.435 19.063-3.407 2.354-4.261 7.026-1.906 10.434 2.354 3.407 7.026 4.262 10.434 1.906 11.215-7.75 24.175-13.572 37.479-16.835 36.119-8.858 65.982 3.041 78.483 9.433 5.691 8.559 8.056 30.692 2.565 41.418-31.646 61.814-109.371 77.974-154.835 77.972-.266-.058-.535-.104-.811-.133-9.346-33.826-5.52-62.95 11.388-86.594.659-.922 1.327-1.824 2.002-2.707 2.519-3.288 1.894-7.996-1.395-10.515-3.288-2.517-7.996-1.895-10.514 1.396-.773 1.01-1.538 2.043-2.293 3.1-12.976 18.146-19.459 39.135-19.272 62.384.112 13.803 2.617 25.684 4.666 33.485-13.192 2.708-23.145 14.409-23.145 28.391v2.217c0 26.721 21.739 48.46 48.459 48.46.157 0 .31-.014.464-.023 6.583 17.461 15.389 33.51 26.201 47.473 8.15 10.524 17.162 19.498 26.817 26.832l-3.717 21.032-6.332-3.343c-8.046-4.412-20.785-1.057-24.581 9.393l-11.13 30.033c-1.059 2.857-1.29 5.858-.792 8.715l-41.602 13.761c-23.287 7.703-40.58 27.461-45.13 51.563l-8.966 47.493c-3.437 15.628 9.929 32.881 27.022 32.602h363.531c16.171.435 30.328-15.757 27.027-32.601zm-55.042-303.605v2.217c0 16.985-12.724 31.044-29.137 33.171 4.584-15.752 7.444-32.357 8.458-49.37h6.698c7.709.001 13.981 6.274 13.981 13.982zm-81.019-149.372c22.58 5.571 35.311 20.716 40.106 26.421 27.202 32.37 19.526 77.672 15.591 93.827-33.089-1.711-45.028-18.662-62.623-43.647-6.914-9.818-14.672-20.824-24.678-32.126 4.266-12.929 3.301-31.548-1.902-44.592 9.081-2.099 20.693-3.043 33.506.117zm-226.206 151.589v-2.217c0-7.709 6.272-13.981 13.981-13.981 3.036-.014 1.587.001 6.435.137 1.021 17.016 3.872 33.556 8.414 49.194-16.266-2.262-28.83-16.254-28.83-33.133zm139.44 253.068-6.847-17.155 15.562-44.69h10.595l15.575 44.73-6.949 17.114h-27.936zm97.602-99.31c.869-.459 1.663-.275 2.059-.124.396.15 1.109.542 1.452 1.466l11.13 30.032c.244.659.063 1.379-.425 1.869-.208.161-.407.336-.598.52l-58.431 46.973c-.597.479-1.205.439-1.612.325-.406-.117-.943-.407-1.194-1.13l-16.115-46.279 48.262-25.482c.016-.008.031-.016.046-.024zm-136.463-21.993c16.49 9.372 34.417 14.303 52.899 14.303 18.378 0 36.347-4.958 52.89-14.356l3.44 19.463-47.441 25.048h-17.685l-47.526-25.094zm-138.49 182.702c-2.383-2.875-3.352-6.628-2.66-10.296l8.966-47.493c3.54-18.746 16.99-34.113 35.102-40.105l46.086-15.243 13.609 10.94c3.229 2.594 7.95 2.081 10.544-1.146 2.595-3.229 2.082-7.949-1.146-10.545l-16.79-13.496c-.601-.482-.824-1.292-.556-2.014l11.131-30.033c.342-.924 1.056-1.315 1.452-1.466.395-.15 1.188-.335 2.059.124l15.446 8.156c.024.013.048.026.073.039l48.215 25.457-16.116 46.279c-.251.724-.788 1.014-1.194 1.13-.405.117-1.015.154-1.611-.325l-14.729-11.84c-3.23-2.595-7.95-2.082-10.544 1.146-2.595 3.229-2.082 7.949 1.146 10.545l14.729 11.839c3.015 2.424 6.743 3.702 10.526 3.702 1.21-.121 2.234.088 5.756-1.024l4.826 12.091-17.915 58.101h-136.782c-3.733 0-7.241-1.649-9.623-4.523zm162.104 4.523 15.701-50.922h26.996l15.702 50.922z"/></g></g></g></svg>