<svg id="Capa_1" enable-background="new 0 0 512.009 512.009" height="512" viewBox="0 0 512.009 512.009" width="512" xmlns="http://www.w3.org/2000/svg"><g><g id="_x3C_Group_x3E__14_"><path d="m102.298 152.613v152.036c0 21.637 17.364 39.177 38.783 39.177h229.903c21.419 0 38.783-17.54 38.783-39.177v-152.036c.001-82.567-307.469-82.567-307.469 0z" fill="#4e5a61"/><path d="m409.772 152.61v8.59l-24.53-9.24 23.86-5.87c.45 2.11.67 4.29.67 6.52z" fill="#5f6c75"/><path d="m354.011 381.244 27.421-2.692 26.939 8.911c20.709 6.85 36.069 24.4 40.116 45.834l8.966 47.493c.236 1.25.351 2.49.353 3.71.023 10.801-15.66 12.202-26.921 12.202l-135.83 3.574-39.193-6.451-39.274 10.675-136.511-8.145c-12.533 0-21.978-11.395-19.653-23.71l10.972-37.178c4.047-21.434 19.407-38.984 40.116-45.834l46.182-15.484z" fill="#f5fcff"/><path d="m74.272 484.5 8.96-47.49c2.7-14.29 12.95-25.99 26.75-30.56l31.672-10.474 64.658 51.974c5.36 4.31 12.08 6.68 18.93 6.68 12.88 0 24.38-8.16 28.61-20.31l1.19-3.41 1.48 4.25c4.26 12.23 15.83 20.45 28.8 20.45 3.45 0 6.87-.6 10.1-1.74 3.23-1.13 6.27-2.81 8.97-4.98l66.42-53.4c5.48-4.4 9.12-10.41 10.62-16.94l-7.861-2.599s.001-.001.001-.001l-15.16-5.01h-155.6-49.15l-23.05 7.62v.002l-26.91 8.898c-20.71 6.85-36.07 24.4-40.12 45.84l-8.97 47.49c-2.32 12.32 7.12 23.71 19.66 23.71h161.762l19.828-10.67 20.172 10.67h161.768c11.26 0 20.03-9.2 20-20z" fill="#e6f7fe"/><path d="m236.034 504.5 22.904-7.543 17.096 7.543-1-11.775 1-8.225v-122.766h-40v122.766l1 7.784z" fill="#ab7b64"/><path d="m321.26 375.147-11.893-77.725h-106.666l-12.991 73.515 64.316 29.218z" fill="#f4d9b1"/><path d="m396.932 154.34c-.59 22.04-4.13 43.42-10.38 63.34-3.27.84-6.7 1.29-10.23 1.29h-240.31c-3.64 0-7.17-.48-10.53-1.37-6.23-19.89-9.76-41.24-10.35-63.24.47-.03.93-.05 1.4-.05h279.27c.38 0 .75.01 1.13.03z" fill="#f4d9b1"/><path d="m387.018 154.21h8.791c11.864 0 21.482 9.618 21.482 21.482v2.217c0 22.621-18.338 40.959-40.959 40.959h-240.308c-22.621 0-40.959-18.338-40.959-40.959v-2.217c0-11.864 9.618-21.482 21.482-21.482h13.597z" fill="#f7e5c1"/><path d="m396.932 154.21c-.59 22.04-4.13 43.55-10.38 63.47-3.27.84-6.7 1.29-10.23 1.29h-240.31c-3.64 0-7.17-.48-10.53-1.37-6.23-19.89-9.76-41.24-10.35-63.24.47-.03.93-.05 1.4-.05l271.714-2.672c.38 0 8.306 2.552 8.686 2.572z" fill="#f4d9b1"/><path d="m236.034 484.5h40v20h-40z" fill="#9a6a53"/><path d="m276.192 369.872v83.22c-8.96-2.87-16.3-9.8-19.51-19l-1.48-4.25-1.19 3.41c-2.99 8.6-9.63 15.2-17.82 18.32v-81.7z" fill="#9a6a53"/><path d="m218.84 432.363-65.096-52.329c-3.442-2.767-4.728-7.425-3.193-11.565l12.302-33.192c2.32-6.261 9.619-9.05 15.523-5.933l76.74 40.518-20.154 57.877c-2.332 6.699-10.594 9.068-16.122 4.624z" fill="#f5fcff"/><path d="m291.857 433.299 66.42-53.394c3.512-2.823 4.824-7.576 3.258-11.801l-12.552-33.867c-2.367-6.388-9.815-9.234-15.839-6.053l-78.027 41.678 20.29 58.719c2.38 6.835 10.809 9.252 16.45 4.718z" fill="#f5fcff"/><path d="m218.001 59.811c-48.58 0-87.961 39.381-87.961 87.961 0 93.229 56.409 168.805 125.993 168.805s125.993-75.577 125.993-168.805c0-48.579-39.381-87.961-87.961-87.961z" fill="#f7e5c1"/><path d="m382.032 147.77c0 7.235 7.641 13.511 6.98 20.507-.15 1.59-8.297 4.027-8.48 5.603-45.735-3.517-85.057-27.964-105.104-62.985-1.333-2.329-4.566-2.682-6.379-.704-9.513 10.379-21.553 20.616-35.407 29.899-32.46 21.75-68.65 33.87-102.05 34.2-.335-2.836-6.225-5.6-6.452-8.481-.466-5.896 4.902-11.98 4.902-18.039 0-48.58 39.38-87.96 87.96-87.96h76.06c24.29 0 46.28 9.85 62.2 25.76 15.92 15.92 25.77 37.91 25.77 62.2z" fill="#f4d9b1"/><path d="m387.013 154.22c-53.334-2.028-97.492-37.169-104.714-82.881-1.225-7.757-9.303-6.672-10.76-1.712-9.011 30.673-80.991 76.463-147.804 76.463l-21.437 8.22c0-35.884 16.51-65.121 35.735-90.119 25.527-33.193 60.89-56.691 118-56.691 99.465 0 153.734 63.278 153.734 146.81z" fill="#5f6c75"/><path d="m272.122 68.33c-.24.39-.44.83-.58 1.3-8.91 30.34-73.19 83.51-139.24 84.65-.72.02-1.45.03-2.17.03h-27.83c0-41.47 13.21-77.94 38.76-104.15 25.92-26.61 64.55-42.66 114.97-42.66 5.1 0 10.09.17 14.95.5-72.48 4.845-117.859 45.007-133.02 101.561-1.369 5.108 2.424 10.139 7.712 10.139h8.458c45.88 0 91.19-25.48 117.99-51.37z" fill="#4e5a61"/></g><g><g><path d="m381.625 461.095h-55.228c-4.143 0-7.5 3.357-7.5 7.5s3.357 7.5 7.5 7.5h55.228c4.143 0 7.5-3.357 7.5-7.5s-3.358-7.5-7.5-7.5z"/><path d="m464.823 479.398-8.967-47.493c-4.551-24.102-21.844-43.859-45.122-51.561l-41.878-13.908c-.162-.707-5.1-13.789-5.561-15.11h7.604c25.521 0 46.283-20.939 46.283-46.678v-100.636c4.801-7.519 7.598-16.437 7.598-26.001v-2.217c0-7.522-2.882-14.383-7.598-19.539v-3.643c0-43.915-14.443-81.546-41.77-108.826-28.691-28.645-70.001-43.786-119.464-43.786-49.713 0-91.11 15.144-119.719 43.794-27.16 27.2-41.516 64.829-41.516 108.818v4.143c-4.452 5.097-7.158 11.755-7.158 19.038v2.217c0 9.273 2.622 17.943 7.158 25.316v39.784c0 4.143 3.357 7.5 7.5 7.5s7.5-3.357 7.5-7.5v-24.43c6.645 4.443 17.255 7.971 26.763 7.767 6.573 17.435 15.364 33.462 26.156 47.411 9.397 12.146 19.935 22.246 31.293 30.125l-4.045 22.892-8.001-4.215c-8.44-4.725-22.271-.979-26.058 9.959l-1.374 3.707h-13.45c-17.25 0-31.283-14.211-31.283-31.678v-26.538c0-4.143-3.357-7.5-7.5-7.5s-7.5 3.357-7.5 7.5v26.538c0 25.738 20.763 46.678 46.283 46.678h7.891c-.331.955-5.456 14.593-5.581 15.136l-41.964 13.88c-23.287 7.703-40.58 27.461-45.131 51.563l-8.966 47.493c-3.437 15.629 9.928 32.882 27.022 32.602h363.531c16.168.434 30.325-15.757 27.024-32.602zm-75.716-317.585h6.693c7.709 0 13.981 6.272 13.981 13.981v2.217c0 16.97-12.701 31.019-29.094 33.166 4.566-15.695 7.411-32.262 8.42-49.364zm-286.552 16.198v-2.217c0-7.709 6.272-13.981 13.981-13.981h6.427c1.014 17.064 3.866 33.65 8.421 49.33-16.264-2.262-28.829-16.254-28.829-33.132zm71.942 86.669c-21.233-27.445-34.075-63.818-36.524-103.096 18.893-1.086 38.375-6.071 58.031-14.865 3.781-1.691 5.476-6.128 3.783-9.908-1.69-3.781-6.128-5.475-9.908-3.783-20.447 9.147-40.548 13.785-59.744 13.785-5.752.189-14.345-.585-20.347.802 2.165-81.948 57.745-132.615 146.16-132.615 87.013 0 143.859 51.827 146.154 132.511-1.565-.771-11.53-.63-14.805-.785-49.84-1.895-90.882-34.092-97.59-76.558-1.081-6.844-5.813-11.527-12.055-11.931-6.052-.385-11.617 3.513-13.31 9.275-3.381 11.507-18.623 31.147-45.054 49.086-3.427 2.326-4.32 6.99-1.994 10.418 2.326 3.427 6.989 4.319 10.418 1.994 22.973-15.592 40.778-34.273 48.36-50.366 9.76 42.838 49.189 75.519 98.081 81.981-1.93 33.525-11.34 64.776-27.387 90.757-2.177 3.524-1.084 8.146 2.439 10.322 1.229.759 2.59 1.12 3.935 1.12 2.514 0 4.97-1.264 6.388-3.56 6.331-10.25 11.681-21.256 16.056-32.831 8.382.316 19.079-2.621 26.598-7.471v85.686c0 17.467-14.033 31.678-31.283 31.678h-13.163l-1.721-4.645c-3.418-9.774-15.944-15.417-26.374-10.078l-8.315 4.39-3.352-21.905c6.542-4.534 12.836-9.813 18.826-15.823 2.924-2.934 2.916-7.683-.019-10.606-2.935-2.925-7.684-2.916-10.606.019-6.321 6.343-13.004 11.759-19.969 16.221-.265.147-.521.306-.764.482-15.384 9.672-32.127 14.697-49.409 14.697-30.43 0-59.387-15.767-81.536-44.398zm33.203 47.555c15.212 7.77 31.543 11.843 48.334 11.843 16.696 0 32.891-3.973 48.038-11.669l3.213 20.999-52.446 27.691-51.024-26.881zm59.642 184.765h-25v-66.645l12.628-37.603 12.372 35.527zm-95.394-161.252c14.204 3.87 59.454 31.064 73.753 37.49l-17.821 53.067c-.734 1.242-1.483 2.512-4.319 1.262l-65.116-53.431c-.928-.745-1.273-1.997-.86-3.112 2.418-6.526 10.128-27.325 12.302-33.192.486-1.313 1.499-1.869 2.061-2.084zm-107.304 156.73c-2.382-2.875-3.352-6.627-2.658-10.296l8.966-47.493c3.539-18.746 16.989-34.113 35.102-40.104l39.187-12.962 68.842 57.572c.02.017.039.032.06.048 3.189 2.564 7.135 3.916 11.138 3.916.687 0 1.375-.049 2.063-.13v53.971h-153.076c-3.733 0-7.241-1.648-9.624-4.522zm382.779 0c-2.383 2.874-5.891 4.522-9.624 4.522h-155.457v-54.095c.979.163 1.963.254 2.944.254 4.05 0 8.042-1.369 11.27-3.963l24.091-19.366c3.229-2.596 3.741-7.316 1.146-10.545-2.597-3.228-7.315-3.742-10.545-1.146l-24.091 19.366c-1.387.718-2.796 1.451-4.668-1.339l-18.444-52.966c14.079-7.447 59.73-31.499 72.601-38.332 1.538-.409 3.072-1.322 5.305 2.027l12.551 33.866c.445 1.201.074 2.548-.924 3.35l-15.006 12.063c-3.229 2.596-3.741 7.316-1.146 10.545 2.596 3.228 7.316 3.741 10.545 1.146 3.159-2.698 18.834-16.304 18.834-16.304l39.21 13.022c18.112 5.992 31.563 21.359 35.102 40.105l8.967 47.492c.691 3.67-.278 7.423-2.661 10.298z"/></g></g></g></svg>