<svg id="Capa_1" enable-background="new 0 0 512 512" height="512" viewBox="0 0 512 512" width="512" xmlns="http://www.w3.org/2000/svg"><g><g id="_x3C_Group_x3E__41_"><path d="m316.83 315.797 3.67 24.623v9.999c0 5.523-4.477 10-10 10h-100.394l-8.681-2.27c-5.523 0-6.128-5.456-6.128-10.979l-3.798-31.755z" fill="#5f6c75"/><path d="m320.5 340.42v-24.61l-129-.39v25 10c0 5.523 4.477 10 10 10h15c-5.52 0-10-4.48-10-10v-5c0-2.761 2.239-5 5-5z" fill="#4e5a61"/><path d="m356.42 282.5v42.92h-200.84v-42.92c0-2.76 2.24-5 5-5h190.84c2.76 0 5 2.24 5 5z" fill="#e6f7fe"/><path d="m363.809 279.596v13.957l-189.229-1.053c-2.21 0-4 1.79-4 4v28.92h-20v-42.92c0-2.76 4.851-10.734 7.611-10.734l92.936-14.298 100.272 15.66c2.761 0 12.41 3.708 12.41 6.468z" fill="#d3effd"/><path d="m356.404 340.487 4.085 115.705c0 2.761-6.324 6.08-9.085 6.08h-190.808c-2.761 0-5-2.239-5-5v-116.761l-42.096.043 3.29 139.638c0 11.046 8.954 20 20 20l238.16.17c11.046 0 23.55-4.816 23.55-15.862v-104.08l-6.607-39.962z" fill="#f5fcff"/><g fill="#e6f7fe"><path d="m133.5 478.5v-94.08c0-2.209 1.791-4 4-4h18.1v-39.89-.02l-42.1.04v39.87 84.08 20c0 11.046 8.954 20 20 20h20 225c11.05 0 20-8.95 20-20h-259c-3.314 0-6-2.686-6-6z"/><path d="m356.4 340.49v39.93 76.85c0 2.76-2.23 5-5 5h20c2.761 0 5-2.239 5-5v-72.85c0-2.209 1.791-4 4-4h18.1v-39.95-.02z"/></g><path d="m101.851 25.145 3.234 321.515c0 5.523 1.222 6.113 6.745 6.113l40.498 3.759 3.255-16.021v-58.011c0-2.761 2.239-5 5-5h190.835c2.761 0 8.647 2.568 8.647 5.33l1.532 71.319 38.979 2.213c5.523 0 9.532-.435 9.532-5.957l3.892-9.985v-317.92c0-8.284-6.716-15-15-15h-42.58l-103.29 13.032-97.55-13.032h-37.58l-1.149 2.645c-8.284 0-15 6.716-15 15z" fill="#d5717f"/><path d="m414 340.42v10c0 5.523-4.477 10-10 10h-47.58v-77.92c0-2.76-2.24-5-5-5h20c2.761 0 5 2.239 5 5v50.92c0 3.866 3.134 7 7 7z" fill="#cd5668"/><path d="m125 340.42h30.58v20h-47.58c-5.52 0-10-4.48-10-10v-327.92c0-8.28 6.72-15 15-15h5v325.92c0 3.86 3.13 7 7 7z" fill="#cd5668"/><path d="m340.319 219.681-166.106-1.702c-8.284 0-15-6.716-15-15v-106.532c0-8.284 2.95-11.915 11.234-11.915l2.133-2.57h168.837c8.284 0 15 6.716 15 15v107.978 2.003c0 8.284-7.814 12.738-16.098 12.738z" fill="#f5fcff"/><path d="m356.42 204.94v2c0 8.29-6.72 15-15 15h-170.84c-8.28 0-15-6.71-15-15v-109.98c0-8.28 6.72-15 15-15h2v115.98c0 3.87 3.14 7 7 7z" fill="#e6f7fe"/><path d="m318 186.46-124 .556c-2.761 0-5-2.239-5-5v-61.846c0-2.761 2.239-5 5-5l9.15-2.855h117.701c2.761 0 5 2.239 5 5v57.275l-2.851 6.87c0 2.761-2.239 5-5 5z" fill="#5f6c75"/><path d="m325.85 174.59v12c0 2.761-2.239 5-5 5h-129.7c-2.761 0-5-2.239-5-5v-69.27c0-2.77 2.24-5 5-5h12v59.27c0 1.657 1.343 3 3 3z" fill="#4e5a61"/><path d="m356.42 7.5c0 7.12-2.109 13.748-5.736 19.293-6.301 9.633-17.184 11.782-29.554 11.782h-130.26c-19.49 0-31.657-10.467-31.657-29.957l7.83 7.83 8.367-8.948z" fill="#e6f7fe"/><path d="m350.68 26.79c-6.3 9.64-17.18 16-29.55 16h-130.26c-19.49 0-35.29-15.8-35.29-35.29h19.83c5.83 11.45 17.73 19.29 31.46 19.29z" fill="#d3effd"/></g><g><g><path d="m414 263.096c4.142 0 7.5-3.358 7.5-7.5v-233.096c0-12.407-10.093-22.5-22.5-22.5h-286c-12.407 0-22.5 10.093-22.5 22.5v327.919c0 8.972 6.79 16.38 15.5 17.377v116.704c0 15.164 12.336 27.5 27.5 27.5h245c15.164 0 27.5-12.336 27.5-27.5v-116.704c8.71-.997 15.5-8.405 15.5-17.377v-59.844c0-4.142-3.358-7.5-7.5-7.5s-7.5 3.358-7.5 7.5v59.844c0 1.378-1.122 2.5-2.5 2.5h-40.083v-70.419c0-6.893-5.607-12.5-12.5-12.5h-190.834c-6.893 0-12.5 5.607-12.5 12.5v70.419h-40.083c-1.378 0-2.5-1.122-2.5-2.5v-327.919c0-4.136 3.364-7.5 7.5-7.5h35.754c3.556 20.028 21.08 35.289 42.114 35.289h79.622c4.142 0 7.5-3.358 7.5-7.5s-3.358-7.5-7.5-7.5h-79.622c-12.723 0-23.468-8.599-26.749-20.289h183.763c-3.281 11.689-14.026 20.289-26.749 20.289h-15.58c-4.142 0-7.5 3.358-7.5 7.5s3.358 7.5 7.5 7.5h15.58c21.033 0 38.558-15.26 42.114-35.289h35.753c4.136 0 7.5 3.364 7.5 7.5v233.096c0 4.142 3.358 7.5 7.5 7.5zm-65.083 21.904v32.915h-185.834v-32.915zm-149.917 47.915h114v17.504c0 1.378-1.122 2.5-2.5 2.5h-109c-1.378 0-2.5-1.122-2.5-2.5zm-50.904 35.004v89.353c0 6.893 5.607 12.5 12.5 12.5h30.702c4.142 0 7.5-3.358 7.5-7.5s-3.358-7.5-7.5-7.5h-28.202v-94.261c0-.088-.01-.174-.013-.261v-27.334h20.917v17.504c0 9.649 7.851 17.5 17.5 17.5h109c9.649 0 17.5-7.851 17.5-17.5v-17.504h20.917v27.311c-.003.087-.013.173-.013.261v94.285h-122.713c-4.142 0-7.5 3.358-7.5 7.5s3.358 7.5 7.5 7.5h125.213c6.893 0 12.5-5.607 12.5-12.5v-89.353h27.096v116.58c0 6.893-5.607 12.5-12.5 12.5h-245c-6.893 0-12.5-5.607-12.5-12.5v-116.581z"/><path d="m155.583 137.16c-4.142 0-7.5 3.358-7.5 7.5v62.283c0 12.407 10.093 22.5 22.5 22.5h170.835c12.407 0 22.5-10.093 22.5-22.5v-109.981c0-12.407-10.093-22.5-22.5-22.5h-170.835c-12.407 0-22.5 10.093-22.5 22.5v12.676c0 4.142 3.358 7.5 7.5 7.5s7.5-3.358 7.5-7.5v-12.676c0-4.135 3.364-7.5 7.5-7.5h170.835c4.136 0 7.5 3.365 7.5 7.5v109.981c0 4.136-3.364 7.5-7.5 7.5h-170.835c-4.136 0-7.5-3.364-7.5-7.5v-62.283c0-4.142-3.358-7.5-7.5-7.5z"/><path d="m320.851 199.089c6.893 0 12.5-5.607 12.5-12.5v-69.274c0-6.893-5.607-12.5-12.5-12.5h-129.702c-6.893 0-12.5 5.607-12.5 12.5v69.274c0 6.893 5.607 12.5 12.5 12.5zm-127.202-79.274h124.702v64.274h-124.702z"/></g></g></g></svg>