<svg id="Capa_1" enable-background="new 0 0 512 512" height="512" viewBox="0 0 512 512" width="512" xmlns="http://www.w3.org/2000/svg"><g><g id="_x3C_Group_x3E__28_"><path d="m399.805 144.66c-3.917-84.213-66.802-137.16-143.805-137.16-30.902 0-59.531 8.527-82.987 24.18-34.993 23.352-51.711 61.993-54.056 112.41l-2.649 339.144c0 8.284 6.063 15 13.542 15l256-2.043c7.479 0 14.149 1.593 14.149-6.691z" fill="#f5fcff"/><path d="m400 323.48v-40h-256v-168.82h.19c1.53-32.84 12.02-60.93 28.83-82.97-35 23.34-58.48 62.55-60.83 112.97h-.19v138.82 40 166.02c0 8.28 6.06 15 13.54 15h260.92c7.48 0 13.54-6.72 13.54-15v-14h-242.46c-7.48 0-13.54-6.72-13.54-15v-132.02c0-2.761 2.239-5 5-5z" fill="#e6f7fe"/><path d="m400 301.255-283.691-2.851c-5.523 0-10-4.477-10-10l-2.33-22.404c0-5.523 4.477-10 10-10l6.521-2.106h281c5.523 0 10 4.477 10 10v19.586l-1.5 7.775c0 5.523-4.477 10-10 10z" fill="#bed9fd"/><path d="m411.5 283.48v10c0 5.52-4.48 10-10 10h-291c-5.52 0-10-4.48-10-10v-29.59c0-5.52 4.48-10 10-10h10v19.59c0 5.52 4.48 10 10 10z" fill="#9ec8fc"/><path d="m349.197 130.697c0-51.471-41.726-93.197-93.197-93.197-32.04 0-60.304 16.168-77.078 40.791-10.172 14.933-13.667 32.975-13.667 52.405 0 51.471 39.273 88.048 90.745 88.048 27.52 0 52.255-6.78 69.315-25.748 14.847-16.508 23.882-38.348 23.882-62.299z" fill="#bed9fd"/><g fill="#9ec8fc"><path d="m332.37 184.11c-16.84 24.05-44.77 39.78-76.37 39.78-51.47 0-93.2-41.72-93.2-93.19 0-26 10.65-49.52 27.83-66.41-10.61 15.12-16.83 33.54-16.83 53.41 0 51.47 41.73 93.19 93.2 93.19 25.47 0 48.56-10.22 65.37-26.78z"/><circle cx="256" cy="130.697" r="62.293"/></g></g><g><g><path d="m407.5 247.476c-.307-4.978.58-99.558-.292-104.896-2.332-41.758-18.5-77.552-46.821-103.6-27.329-25.136-64.402-38.98-104.387-38.98s-77.058 13.844-104.387 38.98c-28.321 26.048-44.489 61.842-46.821 103.6-.23 2.266-.066 37.611-.292 39.739 0 4.143 3.357 7.5 7.5 7.5s7.5-3.357 7.5-7.5c.193-1.599-.367-35.442.188-37.312 3.56-76.546 59.614-130.007 136.312-130.007s132.752 53.461 136.313 130.008c.561 2.185-.01 99.474.188 101.386h-273v-29.096c0-4.143-3.357-7.5-7.5-7.5s-7.5 3.357-7.5 7.5v30.178c-6.698 2.457-11.5 8.879-11.5 16.418v29.588c0 7.539 4.802 13.961 11.5 16.418v179.6c0 12.406 9.439 22.5 21.042 22.5h260.916c11.603 0 21.042-10.094 21.042-22.5v-31.096c0-4.143-3.357-7.5-7.5-7.5s-7.5 3.357-7.5 7.5v31.096c0 4.065-2.767 7.5-6.042 7.5h-260.917c-3.275 0-6.042-3.435-6.042-7.5v-178.519h174.266c4.143 0 7.5-3.357 7.5-7.5s-3.357-7.5-7.5-7.5h-183.266c-1.379 0-2.5-1.121-2.5-2.5v-29.588c0-1.379 1.121-2.5 2.5-2.5h291c1.379 0 2.5 1.121 2.5 2.5v29.588c0 1.379-1.121 2.5-2.5 2.5h-72.67c-4.143 0-7.5 3.357-7.5 7.5s3.357 7.5 7.5 7.5h63.67v112.273c0 4.143 3.357 7.5 7.5 7.5s7.5-3.357 7.5-7.5v-113.355c6.698-2.457 11.5-8.879 11.5-16.418v-29.588c0-7.539-4.802-13.961-11.5-16.417z"/><path d="m356.697 130.697c0-55.524-45.173-100.697-100.697-100.697s-100.697 45.173-100.697 100.697 45.173 100.697 100.697 100.697 100.697-45.172 100.697-100.697zm-186.394 0c0-47.254 38.443-85.697 85.697-85.697s85.697 38.443 85.697 85.697c0 47.253-38.443 85.696-85.697 85.696s-85.697-38.443-85.697-85.696z"/><path d="m325.793 130.697c0-9.934-2.047-19.533-6.082-28.532-1.696-3.779-6.133-5.467-9.913-3.774-3.779 1.695-5.469 6.134-3.773 9.913 3.164 7.056 4.769 14.59 4.769 22.394 0 30.212-24.58 54.792-54.793 54.792s-54.793-24.58-54.793-54.792c0-30.213 24.58-54.793 54.793-54.793 10.764 0 21.18 3.117 30.121 9.013 3.457 2.28 8.108 1.327 10.39-2.132 2.28-3.458 1.326-8.109-2.132-10.39-11.401-7.518-24.672-11.492-38.38-11.492-38.484 0-69.793 31.309-69.793 69.793 0 38.483 31.309 69.792 69.793 69.792s69.793-31.308 69.793-69.792z"/></g></g></g></svg>