<svg id="Capa_1" enable-background="new 0 0 512 512" height="512" viewBox="0 0 512 512" width="512" xmlns="http://www.w3.org/2000/svg"><g><g id="_x3C_Group_x3E__29_"><path d="m471.298 498.66-119.128 3.085c-8.284 0-15-6.716-15-15l6.128-464c0-8.284-3.082-15.245 5.202-15.245h125c8.284 0 15 6.716 15 15v467c0 8.284-8.918 9.16-17.202 9.16z" fill="#94d4a2"/><path d="m488.5 488.5v1c0 8.284-6.716 15-15 15h-125c-8.284 0-15-6.716-15-15l-19.309-255.691 19.309-211.309c0-8.284 6.716-15 15-15h1v474c0 3.866 3.134 7 7 7z" fill="#7fcb8f"/><path d="m458.5 84.43v196.74l-47.5 14.426-47.5-14.426 10-80.042-10-116.698 47.5-11.983z" fill="#f5fcff"/><g fill="#e6f7fe"><path d="m458.5 281.17v28.87l-2.649 10.577c0 5.53-2.991 5.106-8.511 5.106l-71.362 2.17c-5.52 0-10-4.47-10-10l-2.478-36.723z"/><path d="m458.5 51.02v33.41h-95l5-29.345c0-5.52 4.48-10 10-10l5-4.065h65c5.52 0 10 4.48 10 10z"/><path d="m383.5 84.43v196.74l-10 14.426-10-14.426v-196.74l10-8.919z"/></g><path d="m458.5 310.04v10c0 5.53-4.48 10-10 10h-75c-5.52 0-10-4.47-10-10v-38.87h20v18.87c0 5.53 4.48 10 10 10z" fill="#d3effd"/><path d="m383.5 41.02v43.41h-20v-33.41c0-5.52 4.48-10 10-10z" fill="#d3effd"/><circle cx="411" cy="428.606" fill="#d3effd" r="47.5"/><circle cx="411" cy="428.606" fill="#f5fcff" r="17.5"/><g><path d="m411 453.606c-13.785 0-25-11.215-25-25s11.215-25 25-25 25 11.215 25 25-11.215 25-25 25zm0-35c-5.514 0-10 4.486-10 10s4.486 10 10 10 10-4.486 10-10-4.486-10-10-10z" fill="#e6f7fe"/></g><path d="m317.426 500.362-120.149-.319c-8.284 0-15-6.716-15-15l1.362-461.617c0-8.284 1.577-15.926 9.862-15.926h125c8.284 0 15 6.716 15 15v467c-.001 8.284-7.791 10.862-16.075 10.862z" fill="#d5717f"/><path d="m303.5 84.43v196.74l-47.5 14.426-47.5-14.426 10-80.042-10-116.698 47.5-11.983z" fill="#f5fcff"/><path d="m303.5 281.17v28.87l-2.649 10.577c0 5.53-2.991 5.106-8.511 5.106l-71.362 2.17c-5.52 0-10-4.47-10-10l-2.478-36.723z" fill="#e6f7fe"/><path d="m303.5 51.02v33.41h-95l5-29.345c0-5.52 4.48-10 10-10l5-4.065h65c5.52 0 10 4.48 10 10z" fill="#e6f7fe"/><path d="m228.5 84.43v196.74l-10 14.426-10-14.426v-196.74l10-8.919z" fill="#e6f7fe"/><path d="m303.5 310.04v10c0 5.53-4.48 10-10 10h-75c-5.52 0-10-4.47-10-10v-38.87h20v18.87c0 5.53 4.48 10 10 10z" fill="#d3effd"/><path d="m228.5 41.02v43.41h-20v-33.41c0-5.52 4.48-10 10-10z" fill="#d3effd"/><path d="m333.5 488.5v1c0 8.284-6.716 15-15 15h-125c-8.284 0-15-6.716-15-15l-23.628-223.521 23.628-243.479c0-8.284 6.716-15 15-15h1v474c0 3.866 3.134 7 7 7z" fill="#cd5668"/><circle cx="256" cy="428.606" fill="#d3effd" r="47.5"/><circle cx="256" cy="428.606" fill="#f5fcff" r="17.5"/><g><path d="m256 453.606c-13.785 0-25-11.215-25-25s11.215-25 25-25 25 11.215 25 25-11.215 25-25 25zm0-35c-5.514 0-10 4.486-10 10s4.486 10 10 10 10-4.486 10-10-4.486-10-10-10z" fill="#e6f7fe"/></g><path d="m160.83 498.66-116.426-.34c-8.284 0-15-6.716-15-15l-1-459.553c0-8.285 1.812-16.267 10.096-16.267h125c8.284 0 15 6.716 15 15v467c0 8.284-9.386 9.16-17.67 9.16z" fill="#ffe07d"/><path d="m178.5 488.5v1c0 8.284-6.716 15-15 15h-125c-8.284 0-15-6.716-15-15v-467c0-8.284 6.716-15 15-15h1v474c0 3.866 3.134 7 7 7z" fill="#ffd064"/><circle cx="101.496" cy="428.606" fill="#d3effd" r="47.5"/><circle cx="101.496" cy="428.606" fill="#f5fcff" r="17.5"/><g><path d="m101.496 453.606c-13.785 0-25-11.215-25-25s11.215-25 25-25 25 11.215 25 25-11.215 25-25 25zm0-35c-5.514 0-10 4.486-10 10s4.486 10 10 10 10-4.486 10-10-4.486-10-10-10z" fill="#e6f7fe"/></g><path d="m148.5 84.43v196.74l-47.5 14.426-47.5-14.426 10-80.042-10-116.698 47.5-11.983z" fill="#f5fcff"/><path d="m148.5 281.17v28.87l-2.649 10.577c0 5.53-2.991 5.106-8.511 5.106l-71.362 2.17c-5.52 0-10-4.47-10-10l-2.478-36.723z" fill="#e6f7fe"/><path d="m148.5 51.02v33.41h-95l5-29.345c0-5.52 4.48-10 10-10l5-4.065h65c5.52 0 10 4.48 10 10z" fill="#e6f7fe"/><path d="m73.5 84.43v196.74l-10 14.426-10-14.426v-196.74l10-8.919z" fill="#e6f7fe"/><path d="m148.5 310.04v10c0 5.53-4.48 10-10 10h-75c-5.52 0-10-4.47-10-10v-38.87h20v18.87c0 5.53 4.48 10 10 10z" fill="#d3effd"/><path d="m73.5 41.02v43.41h-20v-33.41c0-5.52 4.48-10 10-10z" fill="#d3effd"/></g><g><g><path d="m473.5 0h-125c-5.758 0-11.016 2.177-15 5.748-3.984-3.571-9.242-5.748-15-5.748h-125c-5.758 0-11.016 2.177-15 5.748-3.984-3.571-9.242-5.748-15-5.748h-125c-12.407 0-22.5 10.094-22.5 22.5v467c0 12.406 10.093 22.5 22.5 22.5h125c5.758 0 11.016-2.177 15-5.748 3.984 3.571 9.242 5.748 15 5.748h125c5.758 0 11.016-2.177 15-5.748 3.984 3.571 9.242 5.748 15 5.748h125c12.407 0 22.5-10.094 22.5-22.5v-467c0-12.406-10.093-22.5-22.5-22.5zm-155 497h-125c-4.136 0-7.5-3.364-7.5-7.5v-95.096c0-4.143-3.358-7.5-7.5-7.5s-7.5 3.357-7.5 7.5v95.096c0 4.136-3.364 7.5-7.5 7.5h-125c-4.136 0-7.5-3.364-7.5-7.5v-467c0-4.136 3.364-7.5 7.5-7.5h125c4.136 0 7.5 3.364 7.5 7.5v336.543c0 4.143 3.358 7.5 7.5 7.5s7.5-3.357 7.5-7.5v-336.543c0-4.136 3.364-7.5 7.5-7.5h125c4.136 0 7.5 3.364 7.5 7.5v467c0 4.136-3.364 7.5-7.5 7.5zm162.5-7.5c0 4.136-3.364 7.5-7.5 7.5h-125c-4.136 0-7.5-3.364-7.5-7.5v-467c0-4.136 3.364-7.5 7.5-7.5h125c4.136 0 7.5 3.364 7.5 7.5z"/><path d="m101.496 373.606c-30.327 0-55 24.673-55 55s24.673 55 55 55 55-24.673 55-55-24.673-55-55-55zm0 95c-22.056 0-40-17.944-40-40s17.944-40 40-40 40 17.944 40 40-17.944 40-40 40z"/><path d="m101.496 403.606c-13.785 0-25 11.215-25 25s11.215 25 25 25 25-11.215 25-25-11.215-25-25-25zm0 35c-5.514 0-10-4.486-10-10s4.486-10 10-10 10 4.486 10 10-4.486 10-10 10z"/><path d="m256 373.606c-30.327 0-55 24.673-55 55s24.673 55 55 55 55-24.673 55-55-24.673-55-55-55zm0 95c-22.056 0-40-17.944-40-40s17.944-40 40-40 40 17.944 40 40-17.944 40-40 40z"/><path d="m256 403.606c-13.785 0-25 11.215-25 25s11.215 25 25 25 25-11.215 25-25-11.215-25-25-25zm0 35c-5.514 0-10-4.486-10-10s4.486-10 10-10 10 4.486 10 10-4.486 10-10 10z"/><path d="m448.148 398.068c-3.569 2.103-4.757 6.7-2.655 10.269 3.603 6.115 5.507 13.124 5.507 20.27 0 22.056-17.944 40-40 40s-40-17.944-40-40 17.944-40 40-40c3.916 0 7.782.563 11.489 1.673 3.966 1.183 8.147-1.066 9.335-5.035 1.188-3.968-1.066-8.147-5.035-9.335-5.104-1.528-10.417-2.303-15.79-2.303-30.327 0-55 24.673-55 55s24.673 55 55 55 55-24.673 55-55c0-9.821-2.622-19.463-7.583-27.883-2.102-3.571-6.7-4.759-10.268-2.656z"/><path d="m411 403.606c-13.785 0-25 11.215-25 25s11.215 25 25 25 25-11.215 25-25-11.215-25-25-25zm0 35c-5.514 0-10-4.486-10-10s4.486-10 10-10 10 4.486 10 10-4.486 10-10 10z"/><path d="m63.5 337.543h75c9.649 0 17.5-7.851 17.5-17.5v-269.022c0-9.649-7.851-17.5-17.5-17.5h-75c-9.649 0-17.5 7.851-17.5 17.5v60.063c0 4.143 3.358 7.5 7.5 7.5s7.5-3.357 7.5-7.5v-19.158h80v181.744h-80v-127.521c0-4.143-3.358-7.5-7.5-7.5s-7.5 3.357-7.5 7.5v173.894c0 9.649 7.851 17.5 17.5 17.5zm-2.5-260.617v-25.905c0-1.379 1.122-2.5 2.5-2.5h75c1.378 0 2.5 1.121 2.5 2.5v25.904h-80zm80 211.744v31.373c0 1.379-1.122 2.5-2.5 2.5h-75c-1.378 0-2.5-1.121-2.5-2.5v-31.373z"/><path d="m86 141.202h30c4.142 0 7.5-3.357 7.5-7.5s-3.358-7.5-7.5-7.5h-30c-4.142 0-7.5 3.357-7.5 7.5s3.358 7.5 7.5 7.5z"/><path d="m86 191.032h30c4.142 0 7.5-3.357 7.5-7.5s-3.358-7.5-7.5-7.5h-30c-4.142 0-7.5 3.357-7.5 7.5s3.358 7.5 7.5 7.5z"/><path d="m86 244.5h30c4.142 0 7.5-3.357 7.5-7.5s-3.358-7.5-7.5-7.5h-30c-4.142 0-7.5 3.357-7.5 7.5s3.358 7.5 7.5 7.5z"/><path d="m293.5 33.521h-75c-9.649 0-17.5 7.851-17.5 17.5v269.021c0 9.649 7.851 17.5 17.5 17.5h75c9.649 0 17.5-7.851 17.5-17.5v-269.021c0-9.649-7.851-17.5-17.5-17.5zm-77.5 58.405h80v181.744h-80zm2.5-43.405h75c1.378 0 2.5 1.121 2.5 2.5v25.904h-80v-25.904c0-1.378 1.122-2.5 2.5-2.5zm75 274.022h-75c-1.378 0-2.5-1.121-2.5-2.5v-31.373h80v31.373c0 1.379-1.122 2.5-2.5 2.5z"/><path d="m241 141.202h30c4.142 0 7.5-3.357 7.5-7.5s-3.358-7.5-7.5-7.5h-30c-4.142 0-7.5 3.357-7.5 7.5s3.358 7.5 7.5 7.5z"/><path d="m271 176.032h-30c-4.142 0-7.5 3.357-7.5 7.5s3.358 7.5 7.5 7.5h30c4.142 0 7.5-3.357 7.5-7.5s-3.358-7.5-7.5-7.5z"/><path d="m271 229.5h-30c-4.142 0-7.5 3.357-7.5 7.5s3.358 7.5 7.5 7.5h30c4.142 0 7.5-3.357 7.5-7.5s-3.358-7.5-7.5-7.5z"/><path d="m448.5 33.521h-75c-9.649 0-17.5 7.851-17.5 17.5v269.021c0 9.649 7.851 17.5 17.5 17.5h75c9.649 0 17.5-7.851 17.5-17.5v-269.021c0-9.649-7.851-17.5-17.5-17.5zm-75 15h75c1.378 0 2.5 1.121 2.5 2.5v25.904h-29.745c-4.142 0-7.5 3.357-7.5 7.5s3.358 7.5 7.5 7.5h29.745v181.745h-80v-181.744h15.447c4.142 0 7.5-3.357 7.5-7.5s-3.358-7.5-7.5-7.5h-15.447v-25.905c0-1.378 1.122-2.5 2.5-2.5zm75 274.022h-75c-1.378 0-2.5-1.121-2.5-2.5v-31.373h80v31.373c0 1.379-1.122 2.5-2.5 2.5z"/><path d="m388.5 133.702c0 4.143 3.358 7.5 7.5 7.5h30c4.142 0 7.5-3.357 7.5-7.5s-3.358-7.5-7.5-7.5h-30c-4.142 0-7.5 3.358-7.5 7.5z"/><path d="m426 176.032h-30c-4.142 0-7.5 3.357-7.5 7.5s3.358 7.5 7.5 7.5h30c4.142 0 7.5-3.357 7.5-7.5s-3.358-7.5-7.5-7.5z"/><path d="m426 229.5h-30c-4.142 0-7.5 3.357-7.5 7.5s3.358 7.5 7.5 7.5h30c4.142 0 7.5-3.357 7.5-7.5s-3.358-7.5-7.5-7.5z"/></g></g></g></svg>