<svg id="Capa_1" enable-background="new 0 0 512 512" height="512" viewBox="0 0 512 512" width="512" xmlns="http://www.w3.org/2000/svg"><g><g id="_x3C_Group_x3E__30_"><path d="m32.5 169.5h163.59l9.421 129.67-9.421 175.44-157.579-4.397c-13.81 0-25-11.2-25-25l-1.532-251.234c0-11.379 3.119-20.458 13.519-23.485 2.222-.647 4.571-.994 7.002-.994z" fill="#bed9fd"/><path d="m196.09 456.61 7.038 8.007-7.038 9.993h-163.59c-13.81 0-25-11.2-25-25v-255.11c0-11.38 7.6-20.98 18-24v274.11c0 6.627 5.373 12 12 12z" fill="#9ec8fc"/><path d="m504.5 194.5v255.11c0 13.8-11.19 25-25 25h-10.1l-15.379-145.142 15.379-159.968h10.1c13.81 0 25 11.19 25 25z" fill="#bed9fd"/><path d="m503.5 456.61h-11.1c-4.418 0-8-3.582-8-8v-278.63c-1.59-.31-3.22-.48-4.9-.48h-10.1l-15.38 159.97 15.38 145.14c3.488-.085 11.68.302 15-.48v-.02c9.164-1.823 16.526-8.635 19.1-17.5z" fill="#9ec8fc"/><path d="m469.346 99.145.006 7.795.032 42.56-12.384 27.623c-14.224.001-259.766-.005-259.117-.012l3.713-148.75c0-8.284.907-14.298 9.191-14.298l5.303-2.375h158.2l6.88 3.567c3.985 0 7.739 6.37 10.553 9.191l61.957 61.277c2.805 2.812 15.665 9.452 15.666 13.422z" fill="#f5fcff"/><path d="m469.35 99.15v7.79h-74.25c-11.47 0-20.81-9.33-20.81-20.8v-74.45h7.78c1.99 0 3.94.395 5.745 1.144s30.073 47.304 31.483 48.719l45.672 27.007c1.275 1.28 2.297 2.765 3.033 4.379.878 1.93 1.347 4.044 1.347 6.211z" fill="#e6f7fe"/><path d="m468 92.94h-72.9c-3.76 0-6.81-3.04-6.81-6.8v-73.1c1.62.74 3.11 1.76 4.4 3.06l72.28 72.46c1.27 1.27 2.29 2.76 3.03 4.38z" fill="#d3effd"/><path d="m469.39 177.12c-2.38 0-273.3 0-273.3-.01v-150.42c0-8.28 6.72-15 15-15h5v129.81c0 4.42 3.58 8 8 8h245.27z" fill="#e6f7fe"/><path d="m469.4 169.5v295.117h-273.31l8.91-142.562-8.91-152.555 6.357 5.896 11.643-5.896z" fill="#5f6c75"/><path d="m214.09 448.61v-279.11h-18v287.11 18h18 255.31v-18h-247.31c-4.418 0-8-3.582-8-8z" fill="#4e5a61"/><path d="m405.34 250.078h-140.482c-5.523 0-10-4.477-10-10l-1.687-27.376c0-5.523 4.477-10 10-10l7.81-1.626h136.997c5.523 0 10 4.477 10 10v21.804l-2.637 7.198c-.001 5.523-4.478 10-10.001 10z" fill="#bed9fd"/><path d="m417.98 232.88v10c0 5.523-4.477 10-10 10h-147c-5.53 0-10-4.48-10-10v-31.8c0-5.523 4.477-10 10-10h10v23.8c0 4.418 3.582 8 8 8z" fill="#9ec8fc"/><path d="m141.17 495.255-76.998-.319c-8.284 0-15-6.716-15-15l1.104-324.766c0-8.284-1.05-15.276 7.234-15.276h88.468c8.284 0 15 6.716 15 15v325.416l-9.34 4.477c0 8.285-2.184 10.468-10.468 10.468z" fill="#5f6c75"/><g fill="#4e5a61"><path d="m160.98 480.31v5c0 8.284-6.716 15-15 15h-88.47c-8.284 0-15-6.716-15-15v-330.42c0-8.284 6.716-15 15-15h5v329.42c0 6.075 4.925 11 11 11z"/><g><path d="m275.34 282.312h-15c-5.523 0-10 4.477-10 10v10c0 5.523 4.477 10 10 10h15c5.523 0 10-4.477 10-10v-10c0-5.523-4.478-10-10-10z"/><path d="m275.34 342.312h-15c-5.523 0-10 4.477-10 10v10c0 5.523 4.477 10 10 10h15c5.523 0 10-4.477 10-10v-10c0-5.523-4.478-10-10-10z"/><path d="m275.34 402.312h-15c-5.523 0-10 4.477-10 10v10c0 5.523 4.477 10 10 10h15c5.523 0 10-4.477 10-10v-10c0-5.523-4.478-10-10-10z"/><path d="m408.869 282.312h-15c-5.523 0-10 4.477-10 10v10c0 5.523 4.477 10 10 10h15c5.523 0 10-4.477 10-10v-10c0-5.523-4.477-10-10-10z"/><path d="m408.869 342.312h-15c-5.523 0-10 4.477-10 10v10c0 5.523 4.477 10 10 10h15c5.523 0 10-4.477 10-10v-10c0-5.523-4.477-10-10-10z"/><path d="m408.869 402.312h-15c-5.523 0-10 4.477-10 10v10c0 5.523 4.477 10 10 10h15c5.523 0 10-4.477 10-10v-10c0-5.523-4.477-10-10-10z"/><path d="m341.977 282.312h-15c-5.523 0-10 4.477-10 10v10c0 5.523 4.477 10 10 10h15c5.523 0 10-4.477 10-10v-10c0-5.523-4.477-10-10-10z"/><path d="m341.977 342.312h-15c-5.523 0-10 4.477-10 10v10c0 5.523 4.477 10 10 10h15c5.523 0 10-4.477 10-10v-10c0-5.523-4.477-10-10-10z"/><path d="m341.977 402.312h-15c-5.523 0-10 4.477-10 10v10c0 5.523 4.477 10 10 10h15c5.523 0 10-4.477 10-10v-10c0-5.523-4.477-10-10-10z"/></g></g></g><g><g><path d="m479.5 162h-2.64l-.014-62.856c-.001-5.998-2.335-11.64-6.57-15.885l-72.278-72.459c-4.19-4.202-9.997-6.611-15.93-6.611h-170.983c-12.407 0-22.5 10.094-22.5 22.5v29.333c0 4.143 3.358 7.5 7.5 7.5s7.5-3.357 7.5-7.5v-29.334c0-4.136 3.364-7.5 7.5-7.5h169.708v66.955c0 7.886 6.417 14.302 14.306 14.302h66.748l.013 61.555h-258.275v-71c0-4.143-3.358-7.5-7.5-7.5s-7.5 3.357-7.5 7.5v71h-20.106v-7.105c0-12.406-10.093-22.5-22.5-22.5h-88.468c-12.407 0-22.5 10.094-22.5 22.5v7.105h-2.511c-17.92 0-32.5 14.579-32.5 32.5v255.106c0 17.921 14.58 32.5 32.5 32.5h2.511v3.205c0 12.406 10.093 22.5 22.5 22.5h88.468c12.407 0 22.5-10.094 22.5-22.5v-3.205h311.021c17.92 0 32.5-14.579 32.5-32.5v-255.106c0-17.921-14.58-32.5-32.5-32.5zm-83.708-132.172 55.478 55.617h-55.478zm-242.313 455.484c0 4.136-3.365 7.5-7.5 7.5h-88.468c-4.135 0-7.5-3.364-7.5-7.5v-228.269c0-4.143-3.358-7.5-7.5-7.5s-7.5 3.357-7.5 7.5v210.063h-2.511c-9.649 0-17.5-7.851-17.5-17.5v-255.106c0-9.649 7.851-17.5 17.5-17.5h2.511v44.937c0 4.143 3.358 7.5 7.5 7.5s7.5-3.357 7.5-7.5v-67.042c0-4.136 3.365-7.5 7.5-7.5h88.468c4.135 0 7.5 3.364 7.5 7.5zm15-308.312h20.106v237.063c0 4.143 3.358 7.5 7.5 7.5s7.5-3.357 7.5-7.5v-237.063h258.319v290.106h-258.319v-17.979c0-4.143-3.358-7.5-7.5-7.5s-7.5 3.357-7.5 7.5v17.979h-20.106zm328.521 272.606c0 9.649-7.851 17.5-17.5 17.5h-2.596v-290.106h2.596c9.649 0 17.5 7.851 17.5 17.5z"/><path d="m260.977 260.381h147c9.649 0 17.5-7.851 17.5-17.5v-31.805c0-9.649-7.851-17.5-17.5-17.5h-24.892c-4.142 0-7.5 3.357-7.5 7.5s3.358 7.5 7.5 7.5h24.892c1.378 0 2.5 1.121 2.5 2.5v31.805c0 1.379-1.122 2.5-2.5 2.5h-147c-1.378 0-2.5-1.121-2.5-2.5v-31.805c0-1.379 1.122-2.5 2.5-2.5h87.129c4.142 0 7.5-3.357 7.5-7.5s-3.358-7.5-7.5-7.5h-87.129c-9.649 0-17.5 7.851-17.5 17.5v31.805c0 9.649 7.851 17.5 17.5 17.5z"/><path d="m260.339 319.812h15c9.649 0 17.5-7.851 17.5-17.5v-10c0-9.649-7.851-17.5-17.5-17.5h-15c-9.649 0-17.5 7.851-17.5 17.5v10c0 9.649 7.851 17.5 17.5 17.5zm-2.5-27.5c0-1.379 1.122-2.5 2.5-2.5h15c1.378 0 2.5 1.121 2.5 2.5v10c0 1.379-1.122 2.5-2.5 2.5h-15c-1.378 0-2.5-1.121-2.5-2.5z"/><path d="m260.339 379.812h15c9.649 0 17.5-7.851 17.5-17.5v-10c0-9.649-7.851-17.5-17.5-17.5h-15c-9.649 0-17.5 7.851-17.5 17.5v10c0 9.649 7.851 17.5 17.5 17.5zm-2.5-27.5c0-1.379 1.122-2.5 2.5-2.5h15c1.378 0 2.5 1.121 2.5 2.5v10c0 1.379-1.122 2.5-2.5 2.5h-15c-1.378 0-2.5-1.121-2.5-2.5z"/><path d="m260.339 439.812h15c9.649 0 17.5-7.851 17.5-17.5v-10c0-9.649-7.851-17.5-17.5-17.5h-15c-9.649 0-17.5 7.851-17.5 17.5v10c0 9.649 7.851 17.5 17.5 17.5zm-2.5-27.5c0-1.379 1.122-2.5 2.5-2.5h15c1.378 0 2.5 1.121 2.5 2.5v10c0 1.379-1.122 2.5-2.5 2.5h-15c-1.378 0-2.5-1.121-2.5-2.5z"/><path d="m408.869 274.812h-15c-9.649 0-17.5 7.851-17.5 17.5v10c0 9.649 7.851 17.5 17.5 17.5h15c9.649 0 17.5-7.851 17.5-17.5v-10c0-9.65-7.851-17.5-17.5-17.5zm2.5 27.5c0 1.379-1.122 2.5-2.5 2.5h-15c-1.378 0-2.5-1.121-2.5-2.5v-10c0-1.379 1.122-2.5 2.5-2.5h15c1.378 0 2.5 1.121 2.5 2.5z"/><path d="m408.869 334.812h-15c-9.649 0-17.5 7.851-17.5 17.5v10c0 9.649 7.851 17.5 17.5 17.5h15c9.649 0 17.5-7.851 17.5-17.5v-10c0-9.65-7.851-17.5-17.5-17.5zm2.5 27.5c0 1.379-1.122 2.5-2.5 2.5h-15c-1.378 0-2.5-1.121-2.5-2.5v-10c0-1.379 1.122-2.5 2.5-2.5h15c1.378 0 2.5 1.121 2.5 2.5z"/><path d="m408.869 394.812h-15c-9.649 0-17.5 7.851-17.5 17.5v10c0 9.649 7.851 17.5 17.5 17.5h15c9.649 0 17.5-7.851 17.5-17.5v-10c0-9.65-7.851-17.5-17.5-17.5zm2.5 27.5c0 1.379-1.122 2.5-2.5 2.5h-15c-1.378 0-2.5-1.121-2.5-2.5v-10c0-1.379 1.122-2.5 2.5-2.5h15c1.378 0 2.5 1.121 2.5 2.5z"/><path d="m341.977 274.812h-15c-9.649 0-17.5 7.851-17.5 17.5v10c0 9.649 7.851 17.5 17.5 17.5h15c9.649 0 17.5-7.851 17.5-17.5v-10c0-9.65-7.851-17.5-17.5-17.5zm2.5 27.5c0 1.379-1.122 2.5-2.5 2.5h-15c-1.378 0-2.5-1.121-2.5-2.5v-10c0-1.379 1.122-2.5 2.5-2.5h15c1.378 0 2.5 1.121 2.5 2.5z"/><path d="m341.977 334.812h-15c-9.649 0-17.5 7.851-17.5 17.5v10c0 9.649 7.851 17.5 17.5 17.5h15c9.649 0 17.5-7.851 17.5-17.5v-10c0-9.65-7.851-17.5-17.5-17.5zm2.5 27.5c0 1.379-1.122 2.5-2.5 2.5h-15c-1.378 0-2.5-1.121-2.5-2.5v-10c0-1.379 1.122-2.5 2.5-2.5h15c1.378 0 2.5 1.121 2.5 2.5z"/><path d="m341.977 394.812h-15c-9.649 0-17.5 7.851-17.5 17.5v10c0 9.649 7.851 17.5 17.5 17.5h15c9.649 0 17.5-7.851 17.5-17.5v-10c0-9.65-7.851-17.5-17.5-17.5zm2.5 27.5c0 1.379-1.122 2.5-2.5 2.5h-15c-1.378 0-2.5-1.121-2.5-2.5v-10c0-1.379 1.122-2.5 2.5-2.5h15c1.378 0 2.5 1.121 2.5 2.5z"/><path d="m238.77 98.921h114.145c4.142 0 7.5-3.357 7.5-7.5s-3.358-7.5-7.5-7.5h-114.145c-4.142 0-7.5 3.357-7.5 7.5s3.358 7.5 7.5 7.5z"/><path d="m238.77 134.023h63.762c4.142 0 7.5-3.357 7.5-7.5s-3.358-7.5-7.5-7.5h-63.762c-4.142 0-7.5 3.357-7.5 7.5s3.358 7.5 7.5 7.5z"/><path d="m332.717 126.523c0 4.143 3.358 7.5 7.5 7.5h92.698c4.142 0 7.5-3.357 7.5-7.5s-3.358-7.5-7.5-7.5h-92.698c-4.142 0-7.5 3.358-7.5 7.5z"/><path d="m238.77 64.231h52.175c4.142 0 7.5-3.357 7.5-7.5s-3.358-7.5-7.5-7.5h-52.175c-4.142 0-7.5 3.357-7.5 7.5s3.358 7.5 7.5 7.5z"/></g></g></g></svg>