<svg id="Capa_1" enable-background="new 0 0 512 512" height="512" viewBox="0 0 512 512" width="512" xmlns="http://www.w3.org/2000/svg"><g><g id="_x3C_Group_x3E__33_"><path d="m141 341.659h30v89.081h-30z" fill="#e6f7fe"/><path d="m246 65.25h-155.383l-19.872 2.303c-5.523 0-10 4.477-10 10l-1.064 38.847c0 5.523 4.477 10 10 10h172.851c5.523 0 10-4.477 10-10l3.468-16.81v-24.34c0-5.523-4.477-10-10-10z" fill="#b78c7a"/><path d="m495.63 260.702v60.458l-6.46 20h-150.54v-80.458z" fill="#5f6c75"/><path d="m495.63 337.912v57.078l-2.545 23.248h-158.455l8.838-36.515-8.838-43.811z" fill="#5f6c75"/><path d="m495.63 394.99v20h-161v-73.83l11.391-7.607 8.609 7.607v48.83c0 2.761 2.239 5 5 5z" fill="#4e5a61"/><path d="m495.63 414.99v56.95l-.885 5.656c0 5.52-4.48 10-10 10l-136.511.34c-5.53 0-10-4.48-10-10l-3.604-62.946z" fill="#5f6c75"/><path d="m495.63 471.94v10c0 5.523-4.477 10-10 10h-141c-5.523 0-10-4.477-10-10v-76.95h20v61.95c0 2.761 2.239 5 5 5z" fill="#4e5a61"/><path d="m458.45 178.26h-23.9c-4.327 0-8.445.895-12.179 2.511-10.893 4.714-16.195 15.391-16.195 28.016v4.349l81.335.004v-4.181c0-4.187.796-8.182-.722-11.818-4.628-11.088-15.573-18.881-28.339-18.881z" fill="#ffe07d"/><path d="m489.14 208.95v4.19l-45.076 9.945-40.204-9.945v-4.19c0-12.62 7.62-23.47 18.51-28.18-1.61 3.74-2.51 7.86-2.51 12.18 0 2.314 1.876 4.19 4.19 4.19h62.74c1.51 3.64 2.35 7.63 2.35 11.81z" fill="#ffd064"/><path d="m397.128 112.532-62.298 1.532c-5.523 0-10-4.477-10-10v-12.368c0-15.829 6.756-27.089 20.4-33.027 4.709-2.049 9.907-3.186 15.37-3.186h10.504c21.292 0 38.553 17.261 38.553 38.553v2.364l-2.53 6.132c.001 5.523-4.476 10-9.999 10z" fill="#ffe07d"/><path d="m409.66 96.4v10c0 5.53-4.48 10-10 10h-67.61c-5.53 0-10-4.47-10-10v-12.36c0-15.83 9.54-29.43 23.18-35.37-2.05 4.71-3.18 9.91-3.18 15.37v12.36c0 5.53 4.47 10 10 10z" fill="#ffd064"/><path d="m358.043 182.441-33.936-3.654-20.298 3.654h-9.199l-7.631 1.176c-2.761 0-5 2.239-5 5l-1.277 18.766c0 2.761 2.239 5 5 5l71.596-.66c2.761 0 5-2.239 5-5l.745-8.583v-10.699c0-2.761-2.239-5-5-5z" fill="#d5717f"/><path d="m363.04 198.14v10c0 2.76-2.24 5-5 5l-38.146 6.115-35.284-6.115c-2.77 0-5-2.24-5-5v-20.7c0-2.76 2.23-5 5-5h10v10.7c0 2.76 2.23 5 5 5z" fill="#cd5668"/><path d="m372.851 151.747h-61.391l-7.46 1.147c-2.761 0-5 2.239-5 5l-.979 17.866c0 2.761 2.239 5 5 5l68.702-1.42c2.761 0 5-2.239 5-5l1.128-6.9v-10.693c0-2.762-2.239-5-5-5z" fill="#7fcb8f"/><path d="m377.85 167.44v10c0 2.76-2.24 5-5 5h-71.39c-2.76 0-5-2.24-5-5v-20.69c0-2.76 2.24-5 5-5h10v10.69c0 2.76 2.24 5 5 5z" fill="#71bf7e"/><g><path d="m490.63 256.51-460.55 8.833c-5.523 0-10-4.477-10-10v-32.207c0-5.523 4.477-10 10-10h464.42c5.523 0 10 4.477 10 10v16.204l-3.87 7.17c0 5.523-4.477 10-10 10z" fill="#5f6c75"/><path d="m504.5 236.34v19c0 5.53-4.48 10-10 10h-464.42c-5.52 0-10-4.47-10-10v-32.2c0-5.53 4.48-10 10-10h14v14.2c0 5.53 4.48 9 10 9z" fill="#4e5a61"/></g><g><path d="m89.5 469.441c0-12.426-10.074-22.5-22.5-22.5-1.987 0-3.914.258-5.749.741-9.641 2.541-14.293 11.319-14.293 21.759 0 12.426 7.241 18.665 19.668 18.665 10.439 0 19.592-3.274 22.133-12.914.483-1.835.741-3.763.741-5.751z" fill="#5f6c75"/><path d="m88.75 475.19c-2.53 9.64-11.31 16.75-21.75 16.75-12.43 0-22.5-10.07-22.5-22.5 0-10.44 7.11-19.22 16.75-21.76-.49 1.84-.75 3.77-.75 5.76 0 12.43 10.07 22.5 22.5 22.5 1.99 0 3.91-.26 5.75-.75z" fill="#4e5a61"/></g><g><path d="m267.5 469.441c0-12.426-10.074-22.5-22.5-22.5-1.987 0-3.914.258-5.749.741-9.641 2.541-14.591 10.423-14.591 20.863 0 12.426 7.914 21.604 20.34 21.604 10.439 0 19.217-5.316 21.758-14.957.484-1.835.742-3.763.742-5.751z" fill="#5f6c75"/><path d="m266.75 475.19c-2.53 9.64-11.31 16.75-21.75 16.75-12.43 0-22.5-10.07-22.5-22.5 0-10.44 7.11-19.22 16.75-21.76-.49 1.84-.75 3.77-.75 5.76 0 12.43 10.07 22.5 22.5 22.5 1.99 0 3.91-.26 5.75-.75z" fill="#4e5a61"/></g><path d="m171 479.441h-30c-2.761 0-5-2.239-5-5l-3.6-40.824c0-2.761 2.239-5 5-5l14.98-1.835h20.131c2.761 0 5 2.239 5 5v30.578l-1.511 12.081c0 2.762-2.239 5-5 5z" fill="#5f6c75"/><path d="m177.51 462.36v15c0 2.76-2.24 5-5 5h-35.11c-2.76 0-5-2.24-5-5v-45.58c0-2.76 2.24-5 5-5h15v30.58c0 2.76 2.24 5 5 5z" fill="#4e5a61"/><path d="m292.064 276.505-53.064.069v-27.569h55c5.523 0 10 4.477 10 10l-1.936 7.5c0 5.523-4.477 10-10 10z" fill="#ab7b64"/><path d="m75.638 276.532-56.511.34c-5.523 0-10-4.477-10-10l-1.627-7.867c0-5.523 4.477-10 10-10h59.16z" fill="#ab7b64"/><path d="m304 259.01v10c0 5.52-4.48 10-10 10h-55v-15h55c4.66 0 8.57-3.19 9.68-7.5.21.8.32 1.63.32 2.5z" fill="#9a6a53"/><path d="m245 129.59-101.532-10-76.468 10 9.66 195.452c0 8.284 6.716 15 15 15l134.191 3.383c8.284 0 15-6.716 15-15l4.149-12.805z" fill="#b78c7a"/><path d="m76.66 264.01v15h-59.16c-5.52 0-10-4.48-10-10v-10c0-.87.11-1.7.32-2.5 1.11 4.31 5.02 7.5 9.68 7.5z" fill="#9a6a53"/><path d="m91 99.59c-2.761 0-5-2.239-5-5v-19.34c0-5.52 4.48-10 10-10h-30c-5.523 0-10 4.477-10 10v14.34 30c0 5.523 4.477 10 10 10h30 150c5.523 0 10-4.477 10-10v-20z" fill="#ab7b64"/><path d="m97 309.62v-190.03h-30v181.03 30c0 8.284 6.716 15 15 15h30 118c8.284 0 15-6.716 15-15v-15h-142c-3.314 0-6-2.686-6-6z" fill="#ab7b64"/><path d="m495.63 321.16v20h-161v-75.82l9.689-5.148 10.311 5.148v50.82c0 2.761 2.239 5 5 5z" fill="#4e5a61"/></g><g><g><path d="m398.276 309.117h33.702c4.143 0 7.5-3.357 7.5-7.5s-3.357-7.5-7.5-7.5h-33.702c-4.143 0-7.5 3.357-7.5 7.5s3.358 7.5 7.5 7.5z"/><path d="m431.979 370.576h-33.702c-4.143 0-7.5 3.357-7.5 7.5s3.357 7.5 7.5 7.5h33.702c4.143 0 7.5-3.357 7.5-7.5s-3.358-7.5-7.5-7.5z"/><path d="m398.276 444.398c-4.143 0-7.5 3.357-7.5 7.5s3.357 7.5 7.5 7.5h33.702c4.143 0 7.5-3.357 7.5-7.5s-3.357-7.5-7.5-7.5z"/><path d="m496.5 205.76c-1.63-19.57-18.07-35-38.05-35h-4.45v-116.61c0-22.94-18.66-41.59-41.59-41.59h-12.47c-20.85 0-38.17 15.43-41.13 35.47-24.57.95-44.26 21.21-44.26 46.01v12.36c0 9.65 7.85 17.5 17.5 17.5h67.61c9.65 0 17.5-7.85 17.5-17.5v-12.36c0-24.4-19.08-44.42-43.1-45.95 2.75-11.75 13.3-20.53 25.88-20.53h12.47c14.66 0 26.59 11.93 26.59 26.59v116.61h-4.45c-19.94 0-36.35 15.36-38.04 34.88h-25.97v-15.7h2.31c6.89 0 12.5-5.61 12.5-12.5v-20.69c0-6.9-5.61-12.5-12.5-12.5h-71.39c-6.9 0-12.5 5.6-12.5 12.5v18.19h-4.35c-6.9 0-12.5 5.61-12.5 12.5v18.2h-19.61v-69.81c6.44-2.59 11-8.89 11-16.24v-44.34c0-9.65-7.85-17.5-17.5-17.5h-180c-9.65 0-17.5 7.85-17.5 17.5v44.34c0 7.35 4.56 13.65 11 16.24v69.806h-29.42c-9.649 0-17.5 7.851-17.5 17.5v19.081c-7.26 2.134-12.58 8.85-12.58 16.783v10c0 9.65 7.85 17.5 17.5 17.5h12.08v18.91c0 17.46 13.84 31.75 31.13 32.47 3.03 8.85 11.42 15.24 21.29 15.24h51.5v67.19c-4.44 1.92-7.55 6.34-7.55 11.47v30.16h-29.9c-3.34-12.92-15.1-22.5-29.05-22.5-16.54 0-30 13.46-30 30s13.46 30 30 30c13.95 0 25.71-9.57 29.05-22.5h29.9v.42c0 6.89 5.6 12.5 12.5 12.5h35.1c6.9 0 12.5-5.61 12.5-12.5v-.42h29.9c3.34 12.93 15.1 22.5 29.05 22.5 16.54 0 30-13.46 30-30s-13.46-30-30-30c-13.95 0-25.71 9.58-29.05 22.5h-29.9v-30.16c0-5.13-3.11-9.55-7.55-11.47v-8.54c0-4.15-3.36-7.5-7.5-7.5s-7.5 3.35-7.5 7.5v7.51h-15v-66.16h15v23.54c0 4.14 3.36 7.5 7.5 7.5s7.5-3.36 7.5-7.5v-23.54h51.5c9.87 0 18.27-6.4 21.3-15.26 17.09-.94 30.7-15.13 30.7-32.45v-18.91h12c8.33 0 15.31-5.85 17.06-13.66h16.07v209.1c0 9.65 7.85 17.5 17.5 17.5h141c9.65 0 17.5-7.85 17.5-17.5v-13.15c0-4.15-3.36-7.5-7.5-7.5s-7.5 3.35-7.5 7.5v13.15c0 1.38-1.12 2.5-2.5 2.5h-141c-1.38 0-2.5-1.12-2.5-2.5v-59.45h146v11.15c0 4.14 3.36 7.5 7.5 7.5s7.5-3.36 7.5-7.5v-163.09c5.29-3.01 8.87-8.7 8.87-15.21v-32.2c0-8.98-6.79-16.38-15.5-17.38zm-94.34-111.72v12.36c0 1.38-1.12 2.5-2.5 2.5h-67.61c-1.38 0-2.5-1.12-2.5-2.5v-12.36c0-17.13 13.93-31.06 31.05-31.06h10.5c17.13 0 31.06 13.93 31.06 31.06zm-335.16 390.4c-8.27 0-15-6.73-15-15s6.73-15 15-15 15 6.73 15 15-6.73 15-15 15zm178-30c8.27 0 15 6.73 15 15s-6.73 15-15 15-15-6.73-15-15 6.73-15 15-15zm-185.5-131.74c-8.43-1.25-14.92-8.52-14.92-17.29v-18.91h14.92zm0-51.2h-42c-1.38 0-2.5-1.12-2.5-2.5v-10c0-1.37 1.12-2.5 2.5-2.5h42zm-31.92-30v-18.364c0-1.379 1.121-2.5 2.5-2.5h29.42v20.864zm143.47 192.78v40.58h-30.1v-40.58zm77.45-314.69c0 1.38-1.12 2.5-2.5 2.5h-117.85c-4.14 0-7.5 3.36-7.5 7.5s3.36 7.5 7.5 7.5h109.35v193.53c0 4.13-3.36 7.5-7.5 7.5h-148c-4.14 0-7.5-3.37-7.5-7.5v-193.53h18.8c4.14 0 7.5-3.36 7.5-7.5s-3.36-7.5-7.5-7.5h-27.3c-1.38 0-2.5-1.12-2.5-2.5v-44.34c0-1.38 1.12-2.5 2.5-2.5h180c1.38 0 2.5 1.12 2.5 2.5zm186.05 66.17h23.9c11.66 0 21.34 8.65 22.95 19.88h-69.8c1.61-11.23 11.29-19.88 22.95-19.88zm-130.59-26.51h66.39v15.69h-66.39zm-16.85 30.69h68.43v15.7h-68.43zm-20.11 115.47c0 8.63-6.28 15.8-14.5 17.23v-36.14h14.5zm29.5-36.41c0 1.38-1.12 2.5-2.5 2.5h-41.5v-15h41.5c1.38 0 2.5 1.13 2.5 2.5zm191.63 138.49h-146v-58.82h146zm8.87-152.15c0 1.38-1.12 2.5-2.5 2.5h-91.5c-4.14 0-7.5 3.36-7.5 7.5 0 4.15 3.36 7.5 7.5 7.5h85.13v60.83h-146v-60.83h26.08c4.15 0 7.5-3.35 7.5-7.5 0-4.14-3.35-7.5-7.5-7.5h-56.77c-.6-9.1-8.18-16.34-17.44-16.34h-41.5v-20.86h242c1.38 0 2.5 1.12 2.5 2.5z"/></g></g></g></svg>