<svg id="Capa_1" enable-background="new 0 0 512 512" height="512" viewBox="0 0 512 512" width="512" xmlns="http://www.w3.org/2000/svg"><g><g id="_x3C_Group_x3E__22_"><path d="m504.5 154.042v282c0 8.28-6.72 15-15 15h-467c-8.28 0-15-6.72-15-15v-282z" fill="#f5fcff"/><path d="m504.5 174.042v-20l-276.011-12.798-220.989 12.798v20 262c0 8.284 6.716 15 15 15h20c-8.28 0-15-6.72-15-15v-256c0-3.314 2.686-6 6-6z" fill="#e6f7fe"/><g><path d="m504.5 77.042v77.5h-497v-77.5c0-8.284 6.716-15 15-15h467c8.284 0 15 6.716 15 15z" fill="#5f6c75"/><g fill="#4e5a61"><path d="m235.258 134.042c-8.255 0-14.947-6.716-14.947-15s6.692-15 14.947-15h208.315c8.255 0 14.947 6.716 14.947 15s-6.692 15-14.947 15z"/><ellipse cx="168.369" cy="119.042" rx="14.947" ry="15"/><path d="m178.861 129.726 12.874-12.869-13.139 1.179z"/><path d="m158.092 108.15 12.562-12.516-2.693 10.408z"/><ellipse cx="105.534" cy="119.042" rx="14.947" ry="15"/><path d="m116.053 129.699 12.382-12.499-12.674.836z"/><path d="m95.257 108.15 12.371-12.459-2.502 10.351z"/><ellipse cx="40.447" cy="119.042" rx="14.947" ry="15"/><path d="m51.269 129.388 12.721-13.186-13.139 1.381z"/><path d="m30.17 108.15 11.622-12.038-1.753 9.93z"/></g><ellipse cx="181.349" cy="106.042" fill="#94d4a2" rx="14.947" ry="15"/><path d="m225.014 108.119 12.971-12.991-3.025 14.276z" fill="#4e5a61"/><path d="m454.33 129.457 13.149-13.179-10.185 3.381z" fill="#4e5a61"/><ellipse cx="118.446" cy="106.042" fill="#ffe07d" rx="14.947" ry="15"/><ellipse cx="52.995" cy="106.042" fill="#cd5668" rx="14.947" ry="15"/><path d="m248.237 121.042c-8.255 0-14.947-6.716-14.947-15s6.692-15 14.947-15h208.315c8.255 0 14.947 6.716 14.947 15s-6.692 15-14.947 15z" fill="#f5fcff"/></g><path d="m38.048 199.925c0-5.523 4.477-10 10-10l2.812-2.925h71.384c5.523 0 10 4.477 10 10v206.002l-1.885 5.037c0 5.523-6.391 6.567-11.914 6.567l-67.999-1.234c-5.523 0-10-4.477-10-10z" fill="#bed9fd"/><path d="m132.24 403.002v4c0 5.52-4.47 10-10 10h-75.38c-5.523 0-10-4.477-10-10v-210c0-5.523 4.477-10 10-10h4v210c0 3.314 2.686 6 6 6z" fill="#9ec8fc"/><path d="m101.68 234.128c0-9.459-7.668-17.128-17.128-17.128-1.279 0-2.525.14-3.724.406-7.669 1.7-11.744 8.745-11.744 16.926 0 9.459 6.37 14.699 15.83 14.699 8.183 0 14.664-3.515 16.361-11.188.265-1.196.405-2.439.405-3.715z" fill="#f5fcff"/><path d="m101.27 237.842c-1.69 7.68-8.54 13.41-16.72 13.41-9.46 0-17.13-7.66-17.13-17.12 0-8.18 5.74-15.02 13.41-16.72-.27 1.2-.41 2.44-.41 3.72 0 9.46 7.67 17.12 17.13 17.12 1.28 0 2.52-.14 3.72-.41z" fill="#e6f7fe"/><path d="m239.745 414.755-71.085 1.128c-2.761 0-5-2.239-5-5l1.426-87.439c0-2.761 2.239-5 5-5l7.154-1.444h63.868c2.761 0 5 2.239 5 5v80.002l-1.363 7.753c0 2.761-2.239 5-5 5z" fill="#ffe07d"/><path d="m246.11 402.002v10c0 2.761-2.239 5-5 5h-73.87c-2.761 0-5-2.239-5-5v-90c0-2.761 2.239-5 5-5h10v82c0 1.657 1.343 3 3 3z" fill="#ffd064"/><path d="m353.91 414.755-71.085 1.128c-2.761 0-5-2.239-5-5l1.426-87.439c0-2.761 2.239-5 5-5l7.155-1.443h63.868c2.761 0 5 2.239 5 5v80.002l-1.363 7.753c-.001 2.76-2.24 4.999-5.001 4.999z" fill="#94d4a2"/><path d="m360.275 402.002v10c0 2.761-2.239 5-5 5h-73.87c-2.761 0-5-2.239-5-5v-90c0-2.761 2.239-5 5-5h10v82c0 1.657 1.343 3 3 3z" fill="#7fcb8f"/><path d="m468.093 414.755-71.085 1.128c-2.761 0-5-2.239-5-5l1.426-87.439c0-2.761 2.239-5 5-5l7.155-1.443h63.868c2.761 0 5 2.239 5 5v80.002l-1.363 7.753c-.001 2.76-2.24 4.999-5.001 4.999z" fill="#ffe07d"/><path d="m474.458 402.002v10c0 2.761-2.239 5-5 5h-73.87c-2.761 0-5-2.239-5-5v-90c0-2.761 2.239-5 5-5h10v82c0 1.657 1.343 3 3 3z" fill="#ffd064"/><path d="m239.745 284.754-71.085 1.128c-2.761 0-5-2.239-5-5l1.426-87.439c0-2.761 2.239-5 5-5l7.155-1.443h63.868c2.761 0 5 2.239 5 5v80.002l-1.363 7.753c-.001 2.76-2.24 4.999-5.001 4.999z" fill="#94d4a2"/><path d="m246.11 272.001v10c0 2.761-2.239 5-5 5h-73.87c-2.761 0-5-2.239-5-5v-90c0-2.761 2.239-5 5-5h10v82c0 1.657 1.343 3 3 3z" fill="#7fcb8f"/><path d="m353.91 284.754-71.085 1.128c-2.761 0-5-2.239-5-5l1.426-87.439c0-2.761 2.239-5 5-5l7.155-1.443h63.868c2.761 0 5 2.239 5 5v80.002l-1.363 7.753c-.001 2.76-2.24 4.999-5.001 4.999z" fill="#ffe07d"/><path d="m360.275 272.001v10c0 2.761-2.239 5-5 5h-73.87c-2.761 0-5-2.239-5-5v-90c0-2.761 2.239-5 5-5h10v82c0 1.657 1.343 3 3 3z" fill="#ffd064"/><path d="m468.093 284.754-71.085 1.128c-2.761 0-5-2.239-5-5l1.426-87.439c0-2.761 2.239-5 5-5l7.155-1.443h63.868c2.761 0 5 2.239 5 5v80.002l-1.363 7.753c-.001 2.76-2.24 4.999-5.001 4.999z" fill="#94d4a2"/><path d="m474.458 272.001v10c0 2.761-2.239 5-5 5h-73.87c-2.761 0-5-2.239-5-5v-90c0-2.761 2.239-5 5-5h10v82c0 1.657 1.343 3 3 3z" fill="#7fcb8f"/></g><g><g><path d="m51.921 86.5c-12.44 0-22.561 10.094-22.561 22.5s10.121 22.5 22.561 22.5 22.561-10.094 22.561-22.5-10.121-22.5-22.561-22.5zm0 30c-4.169 0-7.561-3.364-7.561-7.5s3.392-7.5 7.561-7.5 7.561 3.364 7.561 7.5-3.392 7.5-7.561 7.5z"/><path d="m117.184 86.5c-12.44 0-22.561 10.094-22.561 22.5s10.121 22.5 22.561 22.5 22.561-10.094 22.561-22.5-10.121-22.5-22.561-22.5zm0 30c-4.169 0-7.561-3.364-7.561-7.5s3.392-7.5 7.561-7.5 7.561 3.364 7.561 7.5-3.392 7.5-7.561 7.5z"/><path d="m180.563 86.5c-12.44 0-22.561 10.094-22.561 22.5s10.121 22.5 22.561 22.5 22.561-10.094 22.561-22.5-10.12-22.5-22.561-22.5zm0 30c-4.169 0-7.561-3.364-7.561-7.5s3.392-7.5 7.561-7.5 7.561 3.364 7.561 7.5-3.392 7.5-7.561 7.5z"/><path d="m458.809 86.5h-37.724c-4.142 0-7.5 3.357-7.5 7.5s3.358 7.5 7.5 7.5h37.724c4.169 0 7.561 3.364 7.561 7.5s-3.392 7.5-7.561 7.5h-210.849c-4.169 0-7.561-3.364-7.561-7.5s3.392-7.5 7.561-7.5h137.976c4.142 0 7.5-3.357 7.5-7.5s-3.358-7.5-7.5-7.5h-137.976c-12.44 0-22.561 10.094-22.561 22.5s10.121 22.5 22.561 22.5h210.849c12.44 0 22.561-10.094 22.561-22.5s-10.121-22.5-22.561-22.5z"/><path d="m489.5 54h-467c-12.407 0-22.5 10.094-22.5 22.5v359c0 12.406 10.093 22.5 22.5 22.5h467c12.407 0 22.5-10.094 22.5-22.5v-188.064c0-4.143-3.358-7.5-7.5-7.5s-7.5 3.357-7.5 7.5v188.064c0 4.136-3.364 7.5-7.5 7.5h-467c-4.136 0-7.5-3.364-7.5-7.5v-274.5h482v51.393c0 4.143 3.358 7.5 7.5 7.5s7.5-3.357 7.5-7.5v-135.893c0-12.406-10.093-22.5-22.5-22.5zm-474.5 92v-69.5c0-4.136 3.364-7.5 7.5-7.5h467c4.136 0 7.5 3.364 7.5 7.5v69.5z"/><path d="m36.86 271.138c-4.142 0-7.5 3.357-7.5 7.5v128.362c0 9.649 7.851 17.5 17.5 17.5h75.384c9.649 0 17.5-7.851 17.5-17.5v-210c0-9.649-7.851-17.5-17.5-17.5h-75.384c-9.649 0-17.5 7.851-17.5 17.5v46.659c0 4.143 3.358 7.5 7.5 7.5s7.5-3.357 7.5-7.5v-46.659c0-1.379 1.122-2.5 2.5-2.5h75.384c1.378 0 2.5 1.121 2.5 2.5v210c0 1.379-1.122 2.5-2.5 2.5h-75.384c-1.378 0-2.5-1.121-2.5-2.5v-128.362c0-4.143-3.358-7.5-7.5-7.5z"/><path d="m84.552 258.756c13.58 0 24.628-11.048 24.628-24.628s-11.048-24.628-24.628-24.628-24.627 11.048-24.627 24.628 11.048 24.628 24.627 24.628zm0-34.256c5.309 0 9.628 4.319 9.628 9.628s-4.319 9.628-9.628 9.628-9.627-4.319-9.627-9.628 4.319-9.628 9.627-9.628z"/><path d="m66.921 293.443h35.263c4.142 0 7.5-3.357 7.5-7.5s-3.358-7.5-7.5-7.5h-35.263c-4.142 0-7.5 3.357-7.5 7.5s3.358 7.5 7.5 7.5z"/><path d="m66.921 323.443h35.263c4.142 0 7.5-3.357 7.5-7.5s-3.358-7.5-7.5-7.5h-35.263c-4.142 0-7.5 3.357-7.5 7.5s3.358 7.5 7.5 7.5z"/><path d="m66.921 353.443h35.263c4.142 0 7.5-3.357 7.5-7.5s-3.358-7.5-7.5-7.5h-35.263c-4.142 0-7.5 3.357-7.5 7.5s3.358 7.5 7.5 7.5z"/><path d="m66.921 383.443h17.631c4.142 0 7.5-3.357 7.5-7.5s-3.358-7.5-7.5-7.5h-17.631c-4.142 0-7.5 3.357-7.5 7.5s3.358 7.5 7.5 7.5z"/><path d="m395.588 294.5h73.869c6.893 0 12.5-5.607 12.5-12.5v-90c0-6.893-5.607-12.5-12.5-12.5h-73.869c-6.893 0-12.5 5.607-12.5 12.5v90c0 6.893 5.608 12.5 12.5 12.5zm2.5-100h68.869v85h-68.869z"/><path d="m395.594 424.5h73.869c6.893 0 12.5-5.607 12.5-12.5v-90c0-6.893-5.607-12.5-12.5-12.5h-73.869c-6.893 0-12.5 5.607-12.5 12.5v90c0 6.893 5.607 12.5 12.5 12.5zm2.5-100h68.869v85h-68.869z"/><path d="m281.406 293.443h73.869c6.893 0 12.5-5.607 12.5-12.5v-88.943c0-6.893-5.607-12.5-12.5-12.5h-73.869c-6.893 0-12.5 5.607-12.5 12.5v88.943c0 6.893 5.607 12.5 12.5 12.5zm2.5-98.943h68.869v83.943h-68.869z"/><path d="m281.411 424.5h73.869c6.893 0 12.5-5.607 12.5-12.5v-90c0-6.893-5.607-12.5-12.5-12.5h-73.869c-6.893 0-12.5 5.607-12.5 12.5v12.021c0 4.143 3.358 7.5 7.5 7.5s7.5-3.357 7.5-7.5v-9.521h68.869v85h-68.869v-40.33c0-4.143-3.358-7.5-7.5-7.5s-7.5 3.357-7.5 7.5v42.83c0 6.893 5.608 12.5 12.5 12.5z"/><path d="m167.233 294.5h73.869c6.893 0 12.5-5.607 12.5-12.5v-90c0-6.893-5.607-12.5-12.5-12.5h-73.869c-6.893 0-12.5 5.607-12.5 12.5v90c0 6.893 5.608 12.5 12.5 12.5zm2.5-100h68.869v85h-68.869z"/><path d="m167.239 424.5h73.869c6.893 0 12.5-5.607 12.5-12.5v-90c0-6.893-5.607-12.5-12.5-12.5h-73.869c-6.893 0-12.5 5.607-12.5 12.5v90c0 6.893 5.607 12.5 12.5 12.5zm2.5-100h68.869v85h-68.869z"/><path d="m215.668 249.5h-23c-4.142 0-7.5 3.357-7.5 7.5s3.358 7.5 7.5 7.5h23c4.142 0 7.5-3.357 7.5-7.5s-3.358-7.5-7.5-7.5z"/><path d="m329.84 249.5h-23c-4.142 0-7.5 3.357-7.5 7.5s3.358 7.5 7.5 7.5h23c4.142 0 7.5-3.357 7.5-7.5s-3.358-7.5-7.5-7.5z"/><path d="m444.023 249.5h-23c-4.142 0-7.5 3.357-7.5 7.5s3.358 7.5 7.5 7.5h23c4.142 0 7.5-3.357 7.5-7.5s-3.358-7.5-7.5-7.5z"/><path d="m215.673 379.5h-23c-4.142 0-7.5 3.357-7.5 7.5s3.358 7.5 7.5 7.5h23c4.142 0 7.5-3.357 7.5-7.5s-3.358-7.5-7.5-7.5z"/><path d="m329.84 394.5c4.142 0 7.5-3.357 7.5-7.5s-3.358-7.5-7.5-7.5h-23c-4.142 0-7.5 3.357-7.5 7.5s3.358 7.5 7.5 7.5z"/><path d="m444.023 379.5h-23c-4.142 0-7.5 3.357-7.5 7.5s3.358 7.5 7.5 7.5h23c4.142 0 7.5-3.357 7.5-7.5s-3.358-7.5-7.5-7.5z"/></g></g></g></svg>