<svg id="Capa_1" enable-background="new 0 0 512 512" height="512" viewBox="0 0 512 512" width="512" xmlns="http://www.w3.org/2000/svg"><g><g id="_x3C_Group_x3E__79_"><path d="m458.63 77.69v79.4h-123.3v-79.24c35.95-.69 51.17-14.92 63.64-25.58 6.4-5.47 16.04-4.16 20.95 2.67 6.91 9.6 19.05 20.84 38.71 22.75z" fill="#4e5a61"/><path d="m412.471 137.278 19.773 5.004 22.681 9.329c6.854 2.819 11.587 9.197 12.299 16.574l2.109 21.835c.853 8.827-6.306 13.551-15.174 13.531l-109.125-.551c-8.816-.02-15.713-7.603-14.902-16.381l1.995-21.792c.685-7.409 8.998-8.273 15.879-11.103l28.445-17.905z" fill="#d5717f"/><path d="m346.957 191.42c-4.428 0-7.898-3.808-7.488-8.217l1.265-13.593c.17-1.84 1.35-3.44 3.08-4.15l29.971-12.325c1.608-.661 3.397-.747 5.057-.229 5.354 1.668 10.954 2.555 16.722 2.555 13.48 0 26.05-4.81 36.68-13.18l-15.71-6.46h-12.39-27.7l-16.9 6.95s.001 0 .001.001l-21.441 8.819c-6.88 2.83-11.62 9.25-12.3 16.65l-2 21.8c-.81 8.78 6.09 16.36 14.9 16.38l115.66.04c8.39.02 15.07-6.81 15.04-15.03z" fill="#cd5668"/><g><path d="m348.005 66.589c1.198 38.683 15.998 70.538 45.165 70.538 3.417 0 10.16 2.903 13.402 2.093 24.469-6.117 43.154-34.261 44.154-68.491l-52.253-43.106z" fill="#f7e5c1"/><path d="m406.569 139.21c-3.24.82-6.58 1.24-10 1.24-29.17 0-52.95-30.86-54.15-69.55l20.817-10.028-.197 2.422c-.679 8.327-.285 16.73 1.49 24.894 5.658 26.017 21.885 45.989 42.04 51.022z" fill="#f4d9b1"/></g><path d="m396 467.85 6.234 14.597-5.624 19.894-98.036.149c-5.52 0-10-4.48-10-10l.553-14.639c0-5.52 4.48-10 10-10h4.372 92.501z" fill="#bed9fd"/><path d="m180.78 272.47 5.156 17.424-5.156 16.681-161.482-.445c-5.52 0-10-4.48-10-10l1.319-13.66c0-5.52 4.48-10 10-10h2.883z" fill="#94d4a2"/><path d="m224.5 282.47v10.66l-1.84 3c0 5.52-4.48 10-10 10l-31.88 3v-36.66h33.72c5.52 0 10 4.48 10 10z" fill="#f5fcff"/><path d="m396 272.47 7.5 17.211-7.5 18-97.043-.511c-5.52 0-10-4.48-10-10l.298-13.362c0-5.52 4.48-10 10-10l4.245-1.339h92.5z" fill="#94d4a2"/><path d="m504.5 282.47v10.66l-2.521 2.125c0 5.52-4.48 10-10 10l-95.979 3.875v-36.66h98.5c5.52 0 10 4.48 10 10z" fill="#f5fcff"/><path d="m180.78 293.13 6.348 8-6.348 8h-163.28c-5.52 0-10-4.48-10-10v-16.66c0-5.52 4.48-10 10-10h6v10.66c0 5.52 4.48 10 10 10z" fill="#7fcb8f"/><path d="m224.5 293.13v6c0 5.52-4.48 10-10 10h-33.72v-16z" fill="#e6f7fe"/><path d="m396 293.13 8.021 8-8.021 8h-98.5c-5.52 0-10-4.48-10-10v-16.66c0-5.52 4.48-10 10-10h6v10.66c0 5.52 4.48 10 10 10z" fill="#7fcb8f"/><path d="m504.5 293.13v6c0 5.52-4.48 10-10 10h-98.5v-16z" fill="#e6f7fe"/><path d="m82.7 370.16 4.343 16.585-4.343 20.065-64.083-3c-5.52 0-10-4.47-10-10l.681-12.682c0-5.52 4.48-10 10-10l5.202-.968z" fill="#ffe07d"/><path d="m224.5 380.16v10.65l-2.351 3c0 5.53-4.48 10-10 10l-129.449 3v-36.65h131.8c5.52 0 10 4.48 10 10z" fill="#f5fcff"/><path d="m449.08 370.16 3.665 20.244-3.665 14.17-148.846-.764c-5.52 0-10-4.47-10-10l-.723-12.47c0-5.52 4.48-10 10-10l4.989-1.181h144.58z" fill="#ffe07d"/><path d="m504.5 380.16v10.65l-.989 4.403c0 5.53-4.48 10-10 10l-44.431-.638v-34.415h45.42c5.52 0 10 4.48 10 10z" fill="#f5fcff"/><path d="m82.7 390.81 3.662 8-3.662 8h-65.2c-5.52 0-10-4.47-10-10v-16.65c0-5.52 4.48-10 10-10h7v10.65c0 5.53 4.48 10 10 10z" fill="#ffd064"/><path d="m224.5 390.81v6c0 5.53-4.48 10-10 10h-131.8v-16z" fill="#e6f7fe"/><path d="m449.08 390.81 4.516 6.828-4.516 9.172h-151.58c-5.52 0-10-4.47-10-10v-16.65c0-5.52 4.48-10 10-10h7v10.65c0 5.53 4.48 10 10 10z" fill="#ffd064"/><path d="m504.5 390.81v6c0 5.53-4.48 10-10 10h-45.42v-16z" fill="#e6f7fe"/><path d="m116 467.85 3.213 14.724-1.872 19.574-96.511-.648c-5.52 0-10-4.48-10-10l-.043-11.819c0-5.52 4.48-10 10-10l2.713-1.831z" fill="#bed9fd"/><path d="m504.5 477.85v10.65l-2.266 3c0 5.52-4.48 10-10 10l-96.234.989v-34.639h98.5c5.52 0 10 4.48 10 10z" fill="#f5fcff"/><path d="m396 488.5 6.234 8-6.234 8h-98.5c-5.52 0-10-4.48-10-10v-16.65c0-5.52 4.48-10 10-10h6v10.65c0 5.52 4.48 10 10 10z" fill="#9ec8fc"/><path d="m504.5 488.5v6c0 5.52-4.48 10-10 10h-98.5v-16z" fill="#e6f7fe"/><path d="m224.5 477.85v10.65l-2.181 3.649c0 5.52-4.48 10-10 10l-96.319 2.351v-36.65h98.5c5.52 0 10 4.48 10 10z" fill="#f5fcff"/><path d="m116 488.5 3.213 8-3.213 8h-98.5c-5.52 0-10-4.48-10-10v-16.65c0-5.52 4.48-10 10-10h6v10.65c0 5.52 4.48 10 10 10z" fill="#9ec8fc"/><path d="m224.5 488.5v6c0 5.52-4.48 10-10 10h-98.5v-16z" fill="#e6f7fe"/><path d="m130.702 140.5 21.117 1.782 22.681 9.329c6.854 2.819 11.587 9.197 12.299 16.574l2.109 21.835c.853 8.827-6.306 13.551-15.174 13.531l-114.011-.295c-8.816-.02-12.301-7.562-11.489-16.34l3.778-15.775c.685-7.409 5.426-13.825 12.307-16.655l31.706-18.666z" fill="#bed9fd"/><path d="m66.532 191.42c-4.428 0-7.898-3.808-7.488-8.217l1.265-13.593c.17-1.84 1.35-3.44 3.08-4.15l29.971-12.325c1.608-.661 3.397-.747 5.057-.229 5.354 1.668 10.954 2.555 16.722 2.555 13.48 0 26.05-4.81 36.68-13.18l-15.71-6.46h-12.39-27.7l-16.9 6.95s.001 0 .001.001l-21.44 8.818c-6.88 2.83-11.62 9.25-12.3 16.65l-2 21.8c-.81 8.78 6.09 16.36 14.9 16.38l115.66.04c8.39.02 15.07-6.81 15.04-15.03z" fill="#9ec8fc"/><path d="m67.615 65.788c1.198 38.683 18.359 74.667 47.526 74.667 29.211 0 53.024-30.961 54.156-69.725l-52.253-43.106z" fill="#f7e5c1"/><path d="m125.14 139.21c-3.24.82-6.58 1.24-10 1.24-29.17 0-52.95-30.86-54.15-69.55l20.817-10.028-.197 2.422c-.679 8.327-.285 16.73 1.49 24.894 5.658 26.017 21.885 45.989 42.04 51.022z" fill="#f4d9b1"/><path d="m166.148 24.929c-2.187-2.602-8.213-9.773-18.95-12.422-3.977-.981-7.67-1.112-10.835-.852-6.478.532-12.973-.293-19.221-2.085-6.706-1.923-16.02-3.202-26.566-.615-4.664 1.144-15.705 4.821-25.741 18.856-11.245 15.725-7.39 32.89-5.462 39.738.445 1.58 2.795-1.401 4.436-1.4 16.095.01 37.324.109 54.304-16.075 7.052-6.722 18.475-5.551 24.115 2.393 7.033 9.906 13.077 17.241 27.646 18.102 1.761.104 3.33-1.101 3.736-2.818 1.817-7.68 5.004-27.987-7.462-42.822z" fill="#5f6c75"/><path d="m119.94 48.57c-.64.45-1.25.95-1.83 1.5-16.98 16.19-42.43 20.67-58.53 20.66-1.64 0-3.07-1.09-3.51-2.67-1.93-6.85-5.78-24.02 5.46-39.74 10.04-14.04 24.38-18.22 29.05-19.37 2.25-.55 4.44-.93 6.56-1.15-5.24 2.52-11.33 6.6-16.29 13.12-10.35 13.65-6.8 28.55-5.03 34.49.41 1.37 1.73 2.32 3.24 2.32 11.09.01 27.02-2.17 40.88-9.16z" fill="#4e5a61"/><path d="m123.22 46.79c-1.07.63-2.16 1.22-3.27 1.78 1.03-.74 2.13-1.32 3.27-1.78z" fill="#4e5a61"/><path d="m458.63 69.15v8.54c-19.66-1.91-31.8-13.15-38.71-22.75-4.91-6.83-14.55-8.14-20.95-2.67-11.559 9.881-25.481 22.83-56.085 25.219-1.186.093-2.501-1.594-3.738-1.534-1.279.062.509-2.888-.826-2.862l-.771-4.734c0-34.05 25.39-60.858 59.43-60.858 34.05-.001 61.65 27.599 61.65 61.649z" fill="#5f6c75"/><path d="m401.64 50.46c-.93.49-1.83 1.09-2.67 1.81-3.09 2.64-6.35 5.5-10.05 8.32-11.23 8.56-26.55 16.74-53.59 17.26v-8.7c0-8.6 1.76-16.8 4.95-24.23 6.98-16.31 20.79-29.01 37.84-34.48-3.94 2.48-8.01 5.87-11.52 10.48-10.35 13.65-6.8 28.55-5.03 34.49.41 1.37 1.73 2.32 3.24 2.32 10.02.01 24-1.77 36.83-7.27z" fill="#4e5a61"/></g><g><g><path d="m214.5 264.975h-197c-9.649 0-17.5 7.851-17.5 17.5v16.651c0 9.649 7.851 17.5 17.5 17.5h197c9.649 0 17.5-7.851 17.5-17.5v-16.651c0-9.65-7.851-17.5-17.5-17.5zm-199.5 34.151v-16.651c0-1.379 1.122-2.5 2.5-2.5h155.782v21.651h-155.782c-1.378 0-2.5-1.121-2.5-2.5zm202 0c0 1.379-1.122 2.5-2.5 2.5h-26.218v-21.651h26.218c1.378 0 2.5 1.121 2.5 2.5z"/><path d="m494.5 264.975h-197c-9.649 0-17.5 7.851-17.5 17.5v16.651c0 9.649 7.851 17.5 17.5 17.5h197c9.649 0 17.5-7.851 17.5-17.5v-16.651c0-9.65-7.851-17.5-17.5-17.5zm-199.5 34.151v-16.651c0-1.379 1.122-2.5 2.5-2.5h91v21.651h-91c-1.378 0-2.5-1.121-2.5-2.5zm202 0c0 1.379-1.122 2.5-2.5 2.5h-91v-21.651h91c1.378 0 2.5 1.121 2.5 2.5z"/><path d="m214.5 362.661h-197c-9.649 0-17.5 7.851-17.5 17.5v16.652c0 9.649 7.851 17.5 17.5 17.5h128.202c4.142 0 7.5-3.357 7.5-7.5s-3.358-7.5-7.5-7.5h-55.5v-21.652h124.298c1.378 0 2.5 1.121 2.5 2.5v16.652c0 1.379-1.122 2.5-2.5 2.5h-33.691c-4.142 0-7.5 3.357-7.5 7.5s3.358 7.5 7.5 7.5h33.691c9.649 0 17.5-7.851 17.5-17.5v-16.652c0-9.649-7.851-17.5-17.5-17.5zm-139.297 36.652h-57.703c-1.378 0-2.5-1.121-2.5-2.5v-16.652c0-1.379 1.122-2.5 2.5-2.5h57.703z"/><path d="m494.5 362.661h-197c-9.649 0-17.5 7.851-17.5 17.5v16.652c0 9.649 7.851 17.5 17.5 17.5h197c9.649 0 17.5-7.851 17.5-17.5v-16.652c0-9.649-7.851-17.5-17.5-17.5zm-199.5 34.152v-16.652c0-1.379 1.122-2.5 2.5-2.5h144.084v21.652h-144.084c-1.378 0-2.5-1.121-2.5-2.5zm202 0c0 1.379-1.122 2.5-2.5 2.5h-37.916v-21.652h37.916c1.378 0 2.5 1.121 2.5 2.5z"/><path d="m214.5 460.349h-197c-9.649 0-17.5 7.851-17.5 17.5v16.651c0 9.649 7.851 17.5 17.5 17.5h197c9.649 0 17.5-7.851 17.5-17.5v-16.651c0-9.65-7.851-17.5-17.5-17.5zm-199.5 34.151v-16.651c0-1.379 1.122-2.5 2.5-2.5h91v21.651h-91c-1.378 0-2.5-1.121-2.5-2.5zm202 0c0 1.379-1.122 2.5-2.5 2.5h-91v-21.651h91c1.378 0 2.5 1.121 2.5 2.5z"/><path d="m494.5 460.349h-34.181c-4.142 0-7.5 3.357-7.5 7.5s3.358 7.5 7.5 7.5h34.181c1.378 0 2.5 1.121 2.5 2.5v16.651c0 1.379-1.122 2.5-2.5 2.5h-91v-21.651h21.776c4.142 0 7.5-3.357 7.5-7.5s-3.358-7.5-7.5-7.5h-127.776c-9.649 0-17.5 7.851-17.5 17.5v16.651c0 9.649 7.851 17.5 17.5 17.5h197c9.649 0 17.5-7.851 17.5-17.5v-16.651c0-9.65-7.851-17.5-17.5-17.5zm-199.5 34.151v-16.651c0-1.379 1.122-2.5 2.5-2.5h91v21.651h-91c-1.378 0-2.5-1.121-2.5-2.5z"/><path d="m116 347.144c4.142 0 7.5-3.357 7.5-7.5s-3.358-7.5-7.5-7.5h-108.5c-4.142 0-7.5 3.357-7.5 7.5s3.358 7.5 7.5 7.5z"/><path d="m7.5 249.457h108.5c4.142 0 7.5-3.357 7.5-7.5s-3.358-7.5-7.5-7.5h-108.5c-4.142 0-7.5 3.357-7.5 7.5s3.358 7.5 7.5 7.5z"/><path d="m116 444.831c4.142 0 7.5-3.357 7.5-7.5s-3.358-7.5-7.5-7.5h-108.5c-4.142 0-7.5 3.357-7.5 7.5s3.358 7.5 7.5 7.5z"/><path d="m396 347.144c4.142 0 7.5-3.357 7.5-7.5s-3.358-7.5-7.5-7.5h-108.5c-4.142 0-7.5 3.357-7.5 7.5s3.358 7.5 7.5 7.5z"/><path d="m287.5 249.457h108.5c4.142 0 7.5-3.357 7.5-7.5s-3.358-7.5-7.5-7.5h-108.5c-4.142 0-7.5 3.357-7.5 7.5s3.358 7.5 7.5 7.5z"/><path d="m396 444.831c4.142 0 7.5-3.357 7.5-7.5s-3.358-7.5-7.5-7.5h-108.5c-4.142 0-7.5 3.357-7.5 7.5s3.358 7.5 7.5 7.5z"/><path d="m196.374 189.299-2.109-21.835c-.982-10.17-7.462-18.902-16.912-22.79l-26.877-11.055c14.328-12.952 24.185-33.622 26.034-57.605 2.143-1.525 3.752-3.802 4.399-6.536 2.145-9.065 5.56-32.025-9.02-49.373-2.421-2.881-9.784-11.645-22.896-14.88-4.304-1.062-8.76-1.413-13.245-1.044-5.255.429-10.822-.181-16.538-1.82-10.022-2.875-20.541-3.113-30.421-.69-7.891 1.935-22.718 7.403-33.36 22.285-9.186 12.846-11.461 28.799-6.581 46.131.784 2.788 2.609 5.081 4.973 6.517 1.993 24.047 12.054 44.719 26.58 57.531l-25.571 10.519c-9.493 3.904-15.977 12.68-16.923 22.907l-1.994 21.786c-.581 6.275 1.519 12.549 5.76 17.212 4.241 4.662 10.289 7.345 16.609 7.359h50.718c4.142 0 7.5-3.357 7.5-7.5s-3.358-7.5-7.5-7.5h-50.7c-2.132-.005-4.096-.876-5.531-2.453s-2.116-3.614-1.919-5.744l1.994-21.786c.43-4.646 3.377-8.634 7.692-10.408l35.345-14.539c6.061 2.564 12.53 3.968 19.259 3.968 7.07 0 13.855-1.538 20.176-4.352l36.329 14.943c4.295 1.767 7.241 5.736 7.688 10.358l2.109 21.835c.206 2.135-.475 4.185-1.919 5.771-1.439 1.581-3.408 2.451-5.545 2.451-.006 0-.012 0-.018 0l-29.942-.069c-.006 0-.012 0-.018 0-4.134 0-7.49 3.347-7.5 7.482-.01 4.143 3.34 7.508 7.482 7.518l29.943.069h.052c6.321 0 12.384-2.679 16.64-7.354 4.268-4.69 6.366-10.999 5.757-17.309zm-128.744-156.618c7.83-10.949 18.856-15.001 24.732-16.441 3.39-.832 6.819-1.247 10.269-1.247 4.131 0 8.291.596 12.443 1.787 7.463 2.14 14.831 2.93 21.902 2.351 2.865-.234 5.7-.013 8.425.658 8.365 2.064 13.188 7.805 15.004 9.966v.001c8.832 10.509 8.015 24.86 6.583 32.978-8.367-1.325-12.386-5.789-18.646-14.607-3.967-5.588-10.16-9.169-16.99-9.826-6.786-.644-13.5 1.661-18.415 6.347-13.539 12.902-34.341 17.983-50.375 18.532-2.687-11.783-.986-22.032 5.068-30.499zm15.871 82.906c-7.873-10.145-12.91-23.373-14.505-37.806 13.928-1.265 37.128-5.92 54.29-22.278 1.788-1.705 4.137-2.513 6.629-2.273 2.493.24 4.751 1.545 6.196 3.579 6.511 9.171 13.087 17.081 25.277 20.07-1.478 14.76-6.554 28.305-14.571 38.659-8.698 11.232-19.948 17.418-31.677 17.418-11.71-.001-22.946-6.169-31.639-17.369z"/><path d="m476.798 189.337-2.109-21.835c-.656-6.794-3.776-12.937-8.585-17.432 0-5.493.001-78.097 0-80.936 0-9.738-1.987-19.157-5.905-27.996-1.679-3.787-6.111-5.494-9.896-3.816-3.787 1.679-5.495 6.109-3.816 9.896 3 6.766 4.542 13.978 4.606 21.438-12.274-3.491-20.29-11.435-25.082-18.097-3.602-5.007-9.158-8.299-15.245-9.032-5.998-.722-12.075 1.114-16.667 5.039l-1.419 1.217c-10.982 9.428-23.317 20.002-49.842 22.184v-.832c0-29.85 24.284-54.134 54.133-54.134 10.371 0 20.444 2.938 29.133 8.499 3.489 2.231 8.127 1.212 10.36-2.274 2.232-3.489 1.214-8.128-2.275-10.36-11.107-7.109-23.977-10.866-37.219-10.866-38.12 0-69.133 31.014-69.133 69.134v80.102c-5.355 4.574-8.833 11.094-9.505 18.356l-1.994 21.569c-1.302 11.638 8.708 24.969 22.37 24.839h115.642c11.815.245 23.921-11.024 22.448-24.663zm-45.898-55.68c8.475-7.424 15.456-17.542 20.204-29.469v37.778zm-28.451-74.493 1.396-1.196c1.433-1.225 3.254-1.777 5.125-1.55 1.96.236 3.688 1.267 4.863 2.9 5.609 7.797 14.604 16.946 28.025 22.094-4.615 29.386-23.405 50.872-45.348 50.872-21.138 0-39.558-20.28-44.876-48.242 26.423-3.94 40.263-15.819 50.815-24.878zm-59.612 47.233c3.229 7.54 7.39 14.415 12.377 20.287 2.166 2.55 4.46 4.876 6.856 6.977l-19.234 7.911v-35.175zm117.111 90.152c-1.443 1.586-3.424 2.435-5.581 2.451h-115.642c-3.329-.088-7.552-2.933-7.451-8.458l1.994-21.568c.43-4.646 3.377-8.635 7.692-10.409l36.704-15.097c6.027 2.501 12.374 3.818 18.846 3.818 6.542 0 12.86-1.346 18.802-3.819l36.759 15.119c4.295 1.767 7.241 5.735 7.688 10.358l2.109 21.835c.205 2.134-.476 4.184-1.92 5.77z"/></g></g></g></svg>