<svg id="Capa_1" enable-background="new 0 0 512 512" height="512" viewBox="0 0 512 512" width="512" xmlns="http://www.w3.org/2000/svg"><g><g id="_x3C_Group_x3E__40_"><path d="m392.857 161.59h-31.995l6.353 15.998-6.353 15.998 29.204-.543 2.791-14.453z" fill="#ffe07d"/><path d="m392.852 178.59v15l-16.956 4.219-15.034-4.219v-32h15v13c0 2.209 1.791 4 4 4z" fill="#ffd064"/><path d="m52.747 444.381h133.447v50.279h-133.447z" fill="#b78c7a"/><path d="m188.682 484.5v20h-142.13v-65.1h20v40.1c0 2.761 2.239 5 5 5z" fill="#ab7b64"/><path d="m41.3 408.404 6.892-1.662h130.49l10 22.658-8.285 16.574-139.905.345c-5.523 0-10-4.477-10-10l.809-17.915c-.001-5.523 4.476-10 9.999-10z" fill="#ab7b64"/><path d="m188.682 429.4v20h-150.49c-5.52 0-10-4.47-10-10v-22.66c0-5.52 4.48-10 10-10h10v12.66c0 5.53 4.48 10 10 10z" fill="#9a6a53"/><path d="m188.416 372.935h131.565v123.427h-131.565z" fill="#b78c7a"/><path d="m320.792 484.5v20h-142.12v-130.57h20v105.57c0 2.761 2.239 5 5 5z" fill="#ab7b64"/><path d="m172.704 344.064 7.608-2.799h130.483l9.997 20.033-10 19.319-137.875.681c-5.523 0-10-4.477-10-10l-.213-17.234c0-5.523 4.477-10 10-10z" fill="#ab7b64"/><path d="m310.792 363.93 3.827 12.942-3.827 7.058h-140.48c-5.53 0-10-4.48-10-10v-22.67c0-5.52 4.47-10 10-10h10v12.67c0 5.52 4.47 10 10 10z" fill="#9a6a53"/><path d="m393.107 193.586h-32.496c-.451 0-.898.018-1.34.054-8.428.682-13.929 8.076-13.929 16.68l1.532 15.262 56.34 1.163 6.288-16.165v-.599c.001-9.055-7.34-16.395-16.395-16.395z" fill="#ffe07d"/><path d="m409.502 210.58v15l-32.645 7.292-32.645-7.292v-15.6c0-8.6 6.63-15.65 15.06-16.33-.04.44-.06.88-.06 1.33v10.6c0 2.761 2.239 5 5 5z" fill="#ffd064"/><path d="m314.757 35.511 2.416 66.089c0 34.299 25.389 62.104 59.687 62.104s62.102-27.805 62.102-62.104v-62.104z" fill="#ffe07d"/><path d="m386.862 162.89c-3.25.54-6.6.81-10 .81-34.3 0-62.11-27.8-62.11-62.1v-62.1l10.08-1.691 9.92 1.691v62.1c0 30.9 22.56 56.52 52.11 61.29z" fill="#ffd064"/><path d="m419.471 225.581h-75.255l-11.096 2.496c-5.523 0-4.628 4.719-4.628 10.242v37.139h91.234l9.746-19.998v-19.879c-.001-5.523-4.478-10-10.001-10z" fill="#ffe07d"/><path d="m429.472 255.46v20l-54.342 7.115-50.878-7.115v-39.88c0-5.52 4.47-10 10-10h10v24.88c0 2.761 2.239 5 5 5z" fill="#ffd064"/><path d="m316.576 309.13h126.347v187.232h-126.347z" fill="#b78c7a"/><path d="m442.922 484.49v20h-132.13v-196.37h20v171.37c0 2.761 2.239 5 5 5z" fill="#ab7b64"/><path d="m305.002 278.149 8.05-2.691h137.618c5.523 0 10 4.477 10 10v12.662l-4.051 6.01c0 5.523-4.477 10-10 10l-139.787 3.99c-5.523 0-10-4.477-10-10l-1.83-19.971c0-5.523 4.477-10 10-10z" fill="#ab7b64"/><path d="m460.672 298.12v10c0 5.52-4.48 10-10 10h-147.62c-5.53 0-10-4.48-10-10v-22.66c0-5.52 4.47-10 10-10h10v12.66c0 5.52 4.47 10 10 10z" fill="#9a6a53"/><path d="m441.683 37.809h-130.383c-8.284 0-12.936-5.026-12.936-13.311v-1.996c0-8.284 4.691-15.002 12.975-15.002h131.041c8.284 0 15 6.716 15 15v1.996c0 8.284-7.413 13.313-15.697 13.313z" fill="#ffe07d"/><path d="m457.382 24.5c0 8.28-6.72 15-15 15h-131.04c-8.29 0-15-6.72-15-15v-2c0-8.28 6.71-15 15-15v2c0 8.28 6.71 15 15 15z" fill="#ffd064"/></g><g><path d="m432.16 143.799c31.696-10.829 54.713-39.015 58.874-72.378 1.244-9.979-1.859-20.025-8.516-27.563-5.066-5.737-11.83-9.605-19.205-11.129 1.007-2.552 1.567-5.327 1.567-8.232v-1.997c0-12.406-10.094-22.5-22.5-22.5h-131.041c-12.406 0-22.5 10.094-22.5 22.5v1.996c0 2.905.56 5.681 1.567 8.232-7.375 1.524-14.139 5.392-19.204 11.128-6.657 7.538-9.762 17.585-8.518 27.564 4.159 33.359 27.178 61.549 58.874 72.377 8.071 10.552 19.081 18.737 31.803 23.314v20.101c-9.642 3.078-16.646 12.119-16.646 22.768v8.1h-2.469c-9.649 0-17.5 7.851-17.5 17.5v32.377h-13.699c-9.649 0-17.5 7.851-17.5 17.5v22.661c0 9.649 7.851 17.5 17.5 17.5h.247v8.146h-72.038c-4.142 0-7.5 3.357-7.5 7.5s3.358 7.5 7.5 7.5h72.038v27.661h-132.985c-1.378 0-2.5-1.121-2.5-2.5v-22.661c0-1.379 1.122-2.5 2.5-2.5h25.906c4.142 0 7.5-3.357 7.5-7.5s-3.358-7.5-7.5-7.5h-25.906c-9.649 0-17.5 7.851-17.5 17.5v22.661c0 9.649 7.851 17.5 17.5 17.5h.858v7.816h-132.971c-9.649 0-17.5 7.851-17.5 17.5v22.661c0 9.649 7.851 17.5 17.5 17.5h.858v47.598c0 4.143 3.358 7.5 7.5 7.5 66.018-.009 396.369-.009 396.369-.009 4.143 0 7.5-3.357 7.5-7.5v-36.98c0-4.143-3.357-7.5-7.5-7.5s-7.5 3.357-7.5 7.5v29.48h-117.128c0-38.354 0-134.383 0-171.372h117.128v107.04c0 4.143 3.357 7.5 7.5 7.5s7.5-3.357 7.5-7.5v-107.04h.247c9.649 0 17.5-7.851 17.5-17.5v-22.661c0-9.649-7.851-17.5-17.5-17.5h-13.699v-32.377c0-9.649-7.851-17.5-17.5-17.5h-2.468v-8.1c0-10.649-7.004-19.691-16.646-22.768v-20.101c12.722-4.577 23.732-12.762 31.803-23.313zm39.114-90.013c3.811 4.315 5.587 10.066 4.875 15.779-2.695 21.606-14.924 40.591-32.665 52.157 1.929-6.374 2.977-13.127 2.977-20.123v-54.603h9.758c5.758 0 11.245 2.475 15.055 6.79zm-193.706 15.779c-.712-5.713 1.065-11.465 4.876-15.779 3.811-4.315 9.297-6.79 15.054-6.79h9.759v54.604c0 6.995 1.048 13.748 2.977 20.122-17.741-11.567-29.971-30.554-32.666-52.157zm44.689 32.035v-54.604h20.362c4.143 0 7.5-3.357 7.5-7.5s-3.357-7.5-7.5-7.5h-31.28c-4.136 0-7.5-3.364-7.5-7.5v-1.996c0-4.136 3.364-7.5 7.5-7.5h131.041c4.136 0 7.5 3.364 7.5 7.5v1.996c0 4.136-3.364 7.5-7.5 7.5h-64.697c-4.143 0-7.5 3.357-7.5 7.5s3.357 7.5 7.5 7.5h53.779v54.604c0 30.109-24.494 54.604-54.603 54.604s-54.602-24.495-54.602-54.604zm-18.962 395.4h-117.113c.006-29.769-.023-75.975-.015-105.574h117.127v105.574zm-249.241-40.097h22.692c4.142 0 7.5-3.357 7.5-7.5s-3.358-7.5-7.5-7.5h-30.192-8.358c-1.378 0-2.5-1.121-2.5-2.5v-22.661c0-1.379 1.122-2.5 2.5-2.5h132.971v27.661h-59.272c-4.142 0-7.5 3.357-7.5 7.5s3.358 7.5 7.5 7.5h59.287v40.097h-117.128zm399.116-171.445v22.661c0 1.379-1.121 2.5-2.5 2.5h-7.747-132.128-7.747c-1.379 0-2.5-1.121-2.5-2.5v-22.661c0-1.379 1.121-2.5 2.5-2.5h147.622c1.379 0 2.5 1.121 2.5 2.5zm-31.199-49.877v32.377h-90.224v-32.377c0-1.379 1.121-2.5 2.5-2.5h85.224c1.379 0 2.5 1.121 2.5 2.5zm-19.968-17.5h-50.287v-8.1c0-4.905 3.99-8.896 8.896-8.896.042 0 .083-.006.125-.006.042.001.083.006.125.006h31.995c.042 0 .083-.006.125-.006.042.001.083.006.125.006 4.905 0 8.896 3.99 8.896 8.896zm-16.646-31.995h-16.995v-15.419c2.788.341 5.62.537 8.498.537s5.71-.196 8.497-.537z"/></g></g></svg>