<svg id="Capa_1" enable-background="new 0 0 511.971 511.971" height="512" viewBox="0 0 511.971 511.971" width="512" xmlns="http://www.w3.org/2000/svg"><g><g id="_x3C_Group_x3E__38_"><path d="m77.666 200.86c0-65.527 23.631-123.306 70.558-158.311 29.606-22.085 66.422-35.049 107.761-35.049 106.867 0 183.5 86.633 183.5 193.5 0 124.521-110.943 240.293-160.38 285.007-9.688 8.763-14.424 9.719-18.09 12.555-1.441 1.115-3.437 1.115-4.878 0-22.373-17.304-178.471-148.778-178.471-297.702z" fill="#d5717f"/><path d="m395.985 194.987c0 40.255-16.99 76.543-44.191 102.082-25.044 23.515-57.819 33.833-94.884 33.833-77.32 0-139.074-58.595-139.074-135.915 0-35.177 11.122-67.323 32.546-91.916 25.666-29.463 63.46-48.084 105.603-48.084 77.32 0 140 62.681 140 140z" fill="#f5fcff"/><path d="m308.457 251.064h-104.943v-148.511c0-2.761 2.239-5 5-5h94.943c2.761 0 5 2.239 5 5z" fill="#bed9fd"/><path d="m279.105 486.007c-9.69 8.76-17.02 14.79-20.68 17.63-1.44 1.12-3.44 1.12-4.88 0-22.37-17.3-181.06-153.71-181.06-302.64 0-72.36 35.14-135.45 91.01-168.64-41.15 35.47-66.01 89.77-66.01 150.64 0 148.93 158.69 285.34 181.06 302.64.18.14.37.26.56.37z" fill="#cd5668"/><path d="m362.665 285.667c-25.69 30.18-63.95 49.32-106.68 49.32-77.32 0-140-62.68-140-140 0-42.73 19.14-80.99 49.32-106.68-20.78 24.43-33.32 56.09-33.32 90.68 0 77.32 62.68 140 140 140 34.59 0 66.25-12.54 90.68-33.32z" fill="#e6f7fe"/><path d="m303.457 90.054h-94.943c-6.893 0-11.103 5.53-11.103 12.423l.979 25.204v30l.255 29.987 2.17 31.787-3.032 40.154c0 4.143 3.357 7.5 7.5 7.5l33.212 1.455h34.98 34.981c4.143 0 3.039-4.243 3.039-8.386l4.461-11.111v-31.259-30-30.128-30-25.127c.001-6.892-5.606-12.499-12.499-12.499zm-3.5 120.255h-17.981c-.552 0-1-.448-1-1v-13c0-.552.448-1 1-1h17.981c.552 0 1 .448 1 1v13c0 .552-.448 1-1 1zm-87.943-45.128h17.981c.552 0 1 .448 1 1v13.128c0 .552-.448 1-1 1h-17.981c-.552 0-1-.448-1-1v-13.128c0-.553.447-1 1-1zm0-30h17.981c.552 0 1 .448 1 1v13c0 .552-.448 1-1 1h-17.981c-.552 0-1-.448-1-1v-13c0-.553.447-1 1-1zm0 60.128h17.981c.552 0 1 .448 1 1v13c0 .552-.448 1-1 1h-17.981c-.552 0-1-.448-1-1v-13c0-.553.447-1 1-1zm34.981-60.128h17.98c.552 0 1 .448 1 1v13c0 .552-.448 1-1 1h-17.98c-.552 0-1-.448-1-1v-13c0-.553.448-1 1-1zm52.962 15h-17.981c-.552 0-1-.448-1-1v-13c0-.552.448-1 1-1h17.981c.552 0 1 .448 1 1v13c0 .552-.448 1-1 1zm-18.981 29.128v-13.128c0-.552.448-1 1-1h17.981c.552 0 1 .448 1 1v13.128c0 .552-.448 1-1 1h-17.981c-.553 0-1-.448-1-1zm19.981-73.255v13.127c0 .552-.448 1-1 1h-26.481-34.98-26.481c-.552 0-1-.448-1-1v-13.127c0-.552.448-1 1-1h87.943c.551 0 .999.447.999 1zm-88.943 119.255h17.981c.552 0 1 .448 1 1v16.256c0 .552-.448 1-1 1h-17.981c-.552 0-1-.448-1-1v-16.256c0-.553.447-1 1-1zm34.981 18.255c-.552 0-1-.448-1-1v-24.756-30-21.628c0-.552.448-1 1-1h17.98c.552 0 1 .448 1 1v21.628 30 24.756c0 .552-.448 1-1 1zm33.981-1v-16.256c0-.552.448-1 1-1h17.981c.552 0 1 .448 1 1v16.256c0 .552-.448 1-1 1h-17.981c-.553 0-1-.447-1-1z" fill="#5f6c75"/><path d="m315.955 249.067v12c0 4.14-3.36 7.5-7.5 7.5h-104.94c-4.14 0-7.5-3.36-7.5-7.5v-158.51c0-6.9 5.61-12.5 12.5-12.5h10c-6.89 0-12.5 5.6-12.5 12.5v143.51c0 1.66 1.34 3 3 3z" fill="#4e5a61"/><path d="m200.092 280.392 112.936-1.319c5.523 0 9.957-2.486 9.957-8.008v-3c0-5.523-4.477-10-10-10h-106.968-5.004c-5.523 0-10 4.477-10 10l-.922 2.328c.001 5.521 4.478 9.999 10.001 9.999z" fill="#5f6c75"/><path d="m323.017 269.062v2c0 5.52-4.48 10-10 10h-114c-5.52 0-10-4.48-10-10v-3c0-4.482 2.943-8.268 6.998-9.542.948-.298 4.009-5.362 5.055-5.362l4.947 4.904v1c0 5.52 4.48 10 10 10z" fill="#4e5a61"/></g><g><g><path d="m79.985 201c0-53.129 19.287-101.615 54.31-136.528 2.934-2.924 2.941-7.673.017-10.606-2.924-2.934-7.673-2.94-10.606-.017-37.867 37.748-58.721 90.007-58.721 147.151 0 45.701 14.486 94.386 43.058 144.701 21.018 37.015 49.084 74.123 83.419 110.295 1.475 1.554 3.455 2.337 5.44 2.337 1.854 0 3.712-.684 5.162-2.061 3.005-2.852 3.128-7.599.276-10.603-45.695-48.141-122.355-143.941-122.355-244.669z"/><path d="m393.307 59.071c-35.373-38.092-84.142-59.071-137.322-59.071-37.717 0-73.664 10.617-103.955 30.702-3.452 2.289-4.396 6.943-2.106 10.396s6.943 4.395 10.396 2.106c27.826-18.451 60.907-28.204 95.665-28.204 100.337 0 176 79.963 176 186 0 61.023-27.108 126.997-80.572 196.087-42.246 54.593-85.465 90.838-95.439 98.913-6.202-4.976-16.65-13.968-28.788-25.482-3.006-2.85-7.752-2.725-10.604.279-2.851 3.005-2.726 7.752.279 10.604 14.092 13.367 26.097 23.529 32.095 28.169 2.07 1.602 4.55 2.402 7.029 2.401 2.479 0 4.959-.8 7.028-2.4.506-.392 51.188-39.886 100.263-103.304 24.541-31.714 44.024-63.516 57.909-94.521 17.119-38.228 25.8-75.488 25.8-110.746 0-54.247-19.063-104.652-53.678-141.929z"/><path d="m335.125 301.268c-3.32 2.477-4.004 7.176-1.527 10.496 2.477 3.321 7.177 4.004 10.496 1.527 18.027-13.447 32.969-31.105 43.208-51.066 10.739-20.933 16.184-43.555 16.184-67.237 0-81.332-66.168-147.5-147.5-147.5s-147.5 66.168-147.5 147.5 66.168 147.5 147.5 147.5c19.478 0 38.408-3.739 56.265-11.114 3.829-1.581 5.65-5.966 4.07-9.794-1.583-3.83-5.971-5.647-9.795-4.07-16.033 6.621-33.037 9.979-50.54 9.979-73.061 0-132.5-59.439-132.5-132.5s59.439-132.5 132.5-132.5 132.5 59.439 132.5 132.5c-.001 42.245-19.45 80.983-53.361 106.279z"/><path d="m312.985 273.564h-60.851c-4.143 0-7.5 3.357-7.5 7.5s3.357 7.5 7.5 7.5h60.851c9.649 0 17.5-7.851 17.5-17.5v-10c0-8.635-6.292-15.811-14.528-17.228v-86.156-30-25.127c0-6.893-5.607-12.5-12.5-12.5h-94.943c-6.893 0-12.5 5.607-12.5 12.5v141.283c-8.236 1.417-14.528 8.594-14.528 17.228v10c0 9.649 7.851 17.5 17.5 17.5h18.085c4.143 0 7.5-3.357 7.5-7.5s-3.357-7.5-7.5-7.5h-18.085c-1.379 0-2.5-1.121-2.5-2.5v-10c0-1.379 1.121-2.5 2.5-2.5h4.528 104.943 4.528c1.379 0 2.5 1.121 2.5 2.5v10c0 1.379-1.121 2.5-2.5 2.5zm-12.028-138.383v15h-19.981v-15zm0 30v15.128h-19.981v-15.128zm-19.981 30.128h19.981v15h-19.981zm-15-45.128h-19.98v-15h19.98zm-34.981 30.128h-19.981v-15.128h19.981zm0-30.128h-19.981v-15h19.981zm-19.981 45.128h19.981v15h-19.981zm34.981-30.128h19.98v78.384h-19.98zm34.981 60.128h19.981v18.256h-19.981zm19.981-120.255v15.127h-27.481-34.98-27.481v-15.127zm-89.943 120.255h19.981v18.256h-19.981z"/></g></g></g></svg>