<svg id="Capa_1" enable-background="new 0 0 512 512" height="512" viewBox="0 0 512 512" width="512" xmlns="http://www.w3.org/2000/svg"><g><g id="_x3C_Group_x3E__37_"><path d="m504.5 153.5v282c0 8.28-6.72 15-15 15h-467c-8.28 0-15-6.72-15-15v-282z" fill="#f5fcff"/><path d="m504.5 173.5v-20l-276.011-12.798-220.989 12.798v20 262c0 8.284 6.716 15 15 15h20c-8.28 0-15-6.72-15-15v-256c0-3.314 2.686-6 6-6z" fill="#e6f7fe"/><g><path d="m504.5 76.5v77.5h-497v-77.5c0-8.284 6.716-15 15-15h467c8.284 0 15 6.716 15 15z" fill="#5f6c75"/><g fill="#4e5a61"><path d="m235.258 133.5c-8.255 0-14.947-6.716-14.947-15s6.692-15 14.947-15h208.315c8.255 0 14.947 6.716 14.947 15s-6.692 15-14.947 15z"/><ellipse cx="168.369" cy="118.5" rx="14.947" ry="15"/><path d="m178.861 129.184 12.874-12.869-13.139 1.179z"/><path d="m158.092 107.608 12.562-12.516-2.693 10.408z"/><ellipse cx="105.534" cy="118.5" rx="14.947" ry="15"/><path d="m116.053 129.157 12.382-12.499-12.674.836z"/><path d="m95.257 107.608 12.371-12.459-2.502 10.351z"/><ellipse cx="40.447" cy="118.5" rx="14.947" ry="15"/><path d="m51.269 128.846 12.721-13.186-13.139 1.381z"/><path d="m30.17 107.608 11.622-12.038-1.753 9.93z"/></g><ellipse cx="181.349" cy="105.5" fill="#94d4a2" rx="14.947" ry="15"/><path d="m225.014 107.577 12.971-12.991-3.025 14.276z" fill="#4e5a61"/><path d="m454.33 128.915 13.149-13.179-10.185 3.381z" fill="#4e5a61"/><ellipse cx="118.446" cy="105.5" fill="#ffe07d" rx="14.947" ry="15"/><ellipse cx="52.995" cy="105.5" fill="#cd5668" rx="14.947" ry="15"/><path d="m248.237 120.5c-8.255 0-14.947-6.716-14.947-15s6.692-15 14.947-15h208.315c8.255 0 14.947 6.716 14.947 15s-6.692 15-14.947 15z" fill="#f5fcff"/></g><path d="m186.489 238.362-142.83.021c-2.761 0-5-2.239-5-5l-.277-22.319c0-2.761 2.239-5 5-5l8.698-1.064h135.807c2.761 0 5 2.239 5 5v15.57l-1.398 7.792c0 2.761-2.238 5-5 5z" fill="#bed9fd"/><path d="m192.89 225.57v10c0 2.77-2.24 5-5 5h-145.81c-2.761 0-5-2.239-5-5v-25.57c0-2.761 2.239-5 5-5h10v17.57c0 1.657 1.343 3 3 3z" fill="#9ec8fc"/><path d="m101.681 393.979-57.979-.106c-2.761 0-5-2.239-5-5l.085-18.213c0-2.761 2.239-5 5-5l7.293-.617h52.267c2.761 0 5 2.239 5 5v10.997l-1.666 7.939c0 2.761-2.239 5-5 5z" fill="#94d4a2"/><path d="m108.35 381.04v9c0 2.761-2.239 5-5 5h-61.27c-2.761 0-5-2.239-5-5v-20c0-2.761 2.239-5 5-5h9v13c0 1.657 1.343 3 3 3z" fill="#7fcb8f"/><path d="m289.638 362.957-20.489.447c-1.657 0-3-1.343-3-3l-.128-60.383c0-1.657 1.343-3 3-3l9.849-1.092h11.999c1.657 0 3 1.343 3 3v52.111l-1.231 8.917c0 1.657-1.343 3-3 3z" fill="#94d4a2"/><path d="m348.574 362.574-19.468-.404c-1.657 0-3-1.343-3-3l-.17-95.83c0-1.657 1.343-3 3-3l9.934-2.617h11.999c1.657 0 3 1.343 3 3v90.317l-2.295 8.534c0 1.657-1.343 3-3 3z" fill="#d5717f"/><path d="m408.83 362.574-18.957.83c-1.657 0-3-1.343-3-3l-.511-60.383c0-1.657 1.343-3 3-3l9.508-1.092h11.999c1.657 0 3 1.343 3 3v52.111l-2.039 8.534c0 1.657-1.343 3-3 3z" fill="#ffe07d"/><path d="m468.915 363.404-19.468-.83c-1.657 0-3-1.343-3-3l.17-129.596c0-1.657 1.343-3 3-3l9.253-2.617h11.999c1.657 0 3 1.343 3 3v123.679l-1.954 9.364c0 1.657-1.343 3-3 3z" fill="#bed9fd"/><path d="m293.87 351.04v11c0 1.66-1.34 3-3 3h-24c-1.66 0-3-1.34-3-3v-63.11c0-1.66 1.34-3 3-3h12v52.11c0 1.66 1.34 3 3 3z" fill="#7fcb8f"/><path d="m353.87 351.04v11c0 1.66-1.34 3-3 3h-24c-1.66 0-3-1.34-3-3v-101.32c0-1.65 1.34-3 3-3h12v90.32c0 1.66 1.34 3 3 3z" fill="#cd5668"/><path d="m413.87 351.04v11c0 1.66-1.34 3-3 3h-24c-1.66 0-3-1.34-3-3v-63.11c0-1.66 1.34-3 3-3h12v52.11c0 1.66 1.34 3 3 3z" fill="#ffd064"/><path d="m473.87 351.04v11c0 1.66-1.34 3-3 3h-24c-1.66 0-3-1.34-3-3v-134.68c0-1.66 1.34-3 3-3h12v123.68c0 1.66 1.34 3 3 3z" fill="#9ec8fc"/></g><g><g><path d="m29.36 109c0 12.406 10.121 22.5 22.561 22.5s22.561-10.094 22.561-22.5-10.122-22.5-22.561-22.5-22.561 10.094-22.561 22.5zm30.121 0c0 4.136-3.392 7.5-7.561 7.5s-7.561-3.364-7.561-7.5 3.392-7.5 7.561-7.5 7.561 3.364 7.561 7.5z"/><path d="m94.623 109c0 12.406 10.121 22.5 22.561 22.5s22.561-10.094 22.561-22.5-10.121-22.5-22.561-22.5-22.561 10.094-22.561 22.5zm30.121 0c0 4.136-3.392 7.5-7.561 7.5s-7.561-3.364-7.561-7.5 3.392-7.5 7.561-7.5 7.561 3.364 7.561 7.5z"/><path d="m158.003 109c0 12.406 10.121 22.5 22.561 22.5s22.561-10.094 22.561-22.5-10.121-22.5-22.561-22.5-22.561 10.094-22.561 22.5zm30.121 0c0 4.136-3.392 7.5-7.561 7.5s-7.561-3.364-7.561-7.5 3.392-7.5 7.561-7.5 7.561 3.364 7.561 7.5z"/><path d="m481.369 109c0-12.406-10.121-22.5-22.561-22.5h-210.848c-12.44 0-22.561 10.094-22.561 22.5s10.12 22.5 22.561 22.5h210.849c12.439 0 22.56-10.094 22.56-22.5zm-240.97 0c0-4.136 3.392-7.5 7.561-7.5h210.849c4.169 0 7.561 3.364 7.561 7.5s-3.392 7.5-7.561 7.5h-210.849c-4.169 0-7.561-3.364-7.561-7.5z"/><path d="m504.5 380.5c-4.143 0-7.5 3.357-7.5 7.5v47.5c0 4.136-3.364 7.5-7.5 7.5h-467c-4.136 0-7.5-3.364-7.5-7.5v-188.5c0-4.143-3.357-7.5-7.5-7.5s-7.5 3.357-7.5 7.5v188.5c0 12.406 10.094 22.5 22.5 22.5h467c12.406 0 22.5-10.094 22.5-22.5v-47.5c0-4.143-3.357-7.5-7.5-7.5z"/><path d="m489.5 54h-467c-12.406 0-22.5 10.094-22.5 22.5v135.5c0 4.143 3.357 7.5 7.5 7.5s7.5-3.357 7.5-7.5v-51h363.274c4.143 0 7.5-3.357 7.5-7.5s-3.357-7.5-7.5-7.5h-363.274v-69.5c0-4.136 3.364-7.5 7.5-7.5h467c4.136 0 7.5 3.364 7.5 7.5v71.083h-77.844c-4.143 0-7.5 3.357-7.5 7.5s3.357 7.5 7.5 7.5h77.844v190.417c0 4.143 3.357 7.5 7.5 7.5s7.5-3.357 7.5-7.5v-276.5c0-12.406-10.094-22.5-22.5-22.5z"/><path d="m232.899 197.5c-4.143 0-7.5 3.357-7.5 7.5v190.043c0 4.143 3.357 7.5 7.5 7.5h240.97c4.143 0 7.5-3.357 7.5-7.5s-3.357-7.5-7.5-7.5h-233.47v-182.543c0-4.143-3.357-7.5-7.5-7.5z"/><path d="m42.08 248.074h145.807c6.893 0 12.5-5.607 12.5-12.5v-25.574c0-6.893-5.607-12.5-12.5-12.5h-145.807c-6.893 0-12.5 5.607-12.5 12.5v25.574c0 6.893 5.608 12.5 12.5 12.5zm2.5-35.574h140.807v20.574h-140.807z"/><path d="m29.58 390.043c0 6.893 5.607 12.5 12.5 12.5h61.267c6.893 0 12.5-5.607 12.5-12.5v-20c0-6.893-5.607-12.5-12.5-12.5h-61.267c-6.893 0-12.5 5.607-12.5 12.5zm15-17.5h56.267v15h-56.267z"/><path d="m37.08 327.925h154.296c4.143 0 7.5-3.357 7.5-7.5s-3.357-7.5-7.5-7.5h-154.296c-4.143 0-7.5 3.357-7.5 7.5s3.358 7.5 7.5 7.5z"/><path d="m37.08 292.307h154.296c4.143 0 7.5-3.357 7.5-7.5s-3.357-7.5-7.5-7.5h-154.296c-4.143 0-7.5 3.357-7.5 7.5s3.358 7.5 7.5 7.5z"/><path d="m293.869 372.543c4.143 0 7.5-3.357 7.5-7.5v-69.113c0-4.143-3.357-7.5-7.5-7.5h-30c-4.143 0-7.5 3.357-7.5 7.5v69.113c0 4.143 3.357 7.5 7.5 7.5zm-22.5-69.113h15v54.113h-15z"/><path d="m323.869 333.372c-4.143 0-7.5 3.357-7.5 7.5v24.171c0 4.143 3.357 7.5 7.5 7.5h30c4.143 0 7.5-3.357 7.5-7.5v-107.319c0-4.143-3.357-7.5-7.5-7.5h-30c-4.143 0-7.5 3.357-7.5 7.5v48.511c0 4.143 3.357 7.5 7.5 7.5s7.5-3.357 7.5-7.5v-41.011h15v92.319h-15v-16.671c0-4.143-3.357-7.5-7.5-7.5z"/><path d="m413.869 372.543c4.143 0 7.5-3.357 7.5-7.5v-69.113c0-4.143-3.357-7.5-7.5-7.5h-30c-4.143 0-7.5 3.357-7.5 7.5v69.113c0 4.143 3.357 7.5 7.5 7.5zm-22.5-69.113h15v54.113h-15z"/><path d="m473.869 372.543c4.143 0 7.5-3.357 7.5-7.5v-140.682c0-4.143-3.357-7.5-7.5-7.5h-30c-4.143 0-7.5 3.357-7.5 7.5v140.682c0 4.143 3.357 7.5 7.5 7.5zm-22.5-140.682h15v125.682h-15z"/></g></g></g></svg>