<svg id="Capa_1" enable-background="new 0 0 512 512" height="512" viewBox="0 0 512 512" width="512" xmlns="http://www.w3.org/2000/svg"><g><g><path d="m325.797 371.661h-139.594l29.797-108.661-1.079-92.997h82.158z" fill="#b78c7a"/><path d="m242.18 189.21-21.04 147.81-19.97 11.342c-1.92 0-8.32-11.132-10.12-10.722l21.24-149.19c1.99.5 15.57-8.45 17.71-8.45z" fill="#ab7b64"/><path d="m315.361 390.734-61.424 6.479-57.297-6.479c-14.198 0-15.709-11.51-15.709-25.709v-2.301c0-14.198 1.488-24.575 15.686-24.575l24.523-1.133h94.221c14.198 0 25.709 11.51 25.709 25.709v2.301c-.001 14.197-11.511 25.708-25.709 25.708z" fill="#ffe07d"/><path d="m226.64 390.73-13.346 1.887-16.654-1.887c-14.2 0-25.71-11.51-25.71-25.7v-2.31c0-12.27 8.61-22.54 20.12-25.08 1.8-.41 3.67-.62 5.59-.62h24.5c-11.51 2.56-20.21 13.43-20.21 25.7v2.31c0 2.29.3 4.51.87 6.63 2.92 10.98 12.94 19.07 24.84 19.07z" fill="#ffd064"/><path d="m392.709 504.5h-239.369l-31.05-3c-5.523 0-10-4.477-10-10l-3-27.123h290.419l3 20.003v10.12c0 5.523-4.477 10-10 10z" fill="#5f6c75"/><path d="m402.71 484.38v-20l-146.71-28.38-146.71 28.38v20 10.12c0 5.523 4.477 10 10 10h40c-5.52 0-10-4.48-10-10 0-5.589 4.531-10.12 10.12-10.12z" fill="#4e5a61"/><path d="m415.894 464.377h-288.766l-29.021-2c-5.523 0-10-4.477-10-10v-13.621c0-27.614 23.386-45 51-45l23.085-3h213.702c27.614 0 50 22.386 50 50v13.621c0 5.523-4.477 10-10 10z" fill="#b78c7a"/><path d="m126.11 440.76v13.62c0 5.52 4.47 10 10 10h-40c-5.53 0-10-4.48-10-10v-13.62c0-27.62 22.38-50 50-50h40c-27.62 0-50 22.38-50 50z" fill="#ab7b64"/><path d="m325.797 77.297c0 4.711-.467 9.314-1.357 13.763-6.391 31.956-34.604 46.034-68.44 46.034-38.548 0-59.797-21.249-59.797-59.797 0-28.42 6.986-52.873 31.36-63.76 8.686-3.88 18.309-6.037 28.437-6.037 38.548 0 69.797 31.249 69.797 69.797z" fill="#b78c7a"/><path d="m324.44 91.06c-6.39 31.95-34.6 56.03-68.44 56.03-38.55 0-69.8-31.25-69.8-69.79 0-28.42 16.99-52.88 41.36-63.77-.89 4.45-1.36 9.06-1.36 13.77 0 38.54 31.25 69.79 69.8 69.79 10.13 0 19.75-2.16 28.44-6.03z" fill="#ab7b64"/><path d="m293.488 189.208h-74.975c-14.198 0-15.709-11.51-15.709-25.709v-2.301c0-14.198 1.51-25.709 15.709-25.709h74.975c14.198 0 25.709 11.51 25.709 25.709v2.301c-.001 14.199-11.511 25.709-25.709 25.709z" fill="#ffe07d"/><path d="m242.18 189.21h-23.67c-2.14 0-4.23-.26-6.22-.76-11.19-2.78-19.49-12.89-19.49-24.95v-2.3c0-14.2 11.51-25.71 25.71-25.71h30c-14.2 0-25.71 11.51-25.71 25.71v2.3c0 2.24.29 4.42.83 6.5 2.36 9.07 9.44 16.95 18.55 19.21z" fill="#ffd064"/></g><g><path d="m375.894 383.256h-32.797c3.454-5.237 5.472-11.501 5.472-18.23v-2.301c0-13.947-8.647-25.906-20.858-30.817l-9.432-66.23c-.584-4.1-4.382-6.96-8.483-6.367-4.101.584-6.952 4.382-6.368 8.482l8.79 61.724h-49.218c-4.142 0-7.5 3.357-7.5 7.5s3.358 7.5 7.5 7.5h52.36c10.041 0 18.209 8.169 18.209 18.209v2.301c0 10.04-8.168 18.208-18.209 18.208-1.322.044-117.504.043-118.721 0-10.041 0-18.209-8.168-18.209-18.208v-2.301c0-10.04 8.168-18.209 18.209-18.209h31.361c4.142 0 7.5-3.357 7.5-7.5s-3.358-7.5-7.5-7.5h-28.219l18.913-132.808h74.612l5.186 36.418c.533 3.742 3.742 6.443 7.416 6.443.352 0 .708-.024 1.067-.076 4.101-.584 6.952-4.382 6.368-8.482l-5.36-37.639c11.068-5.392 18.714-16.755 18.714-29.872v-2.301c0-12.248-6.67-22.961-16.564-28.718 14.7-14.403 23.165-34.177 23.165-55.184-.001-42.623-34.676-77.298-77.298-77.298-24.871 0-48.376 12.086-62.876 32.329-2.412 3.367-1.638 8.053 1.73 10.465 3.367 2.411 8.053 1.639 10.464-1.73 11.69-16.321 30.637-26.064 50.682-26.064 34.351 0 62.297 27.946 62.297 62.297 0 20.198-9.711 38.984-26.084 50.693h-72.426c-16.373-11.709-26.084-30.496-26.084-50.693 0-2.268.123-4.555.366-6.798.446-4.118-2.531-7.818-6.649-8.264-4.113-.456-7.818 2.53-8.264 6.648-.301 2.777-.453 5.608-.453 8.413 0 21.007 8.465 40.781 23.165 55.184-9.894 5.757-16.564 16.47-16.564 28.718v2.301c0 13.117 7.646 24.479 18.714 29.872l-19.729 138.535c-12.211 4.912-20.858 16.87-20.858 30.818v2.301c0 6.729 2.018 12.993 5.472 18.23h-32.797c-31.706 0-57.5 25.794-57.5 57.5v13.621c0 9.649 7.851 17.5 17.5 17.5h5.685v22.624c0 9.649 7.851 17.5 17.5 17.5h39.709c4.142 0 7.5-3.357 7.5-7.5s-3.358-7.5-7.5-7.5h-39.709c-1.378 0-2.5-1.121-2.5-2.5v-22.623h278.419v22.623c0 1.379-1.122 2.5-2.5 2.5h-198.71c-4.142 0-7.5 3.357-7.5 7.5s3.358 7.5 7.5 7.5h198.709c9.649 0 17.5-7.851 17.5-17.5v-22.623h5.685c9.649 0 17.5-7.851 17.5-17.5v-13.621c0-31.706-25.794-57.5-57.5-57.5zm-175.59-222.057c0-10.04 8.168-18.209 18.208-18.209h74.976c10.04 0 18.208 8.169 18.208 18.209v2.301c0 10.04-8.168 18.208-18.208 18.208h-74.976c-10.04 0-18.208-8.168-18.208-18.208zm218.09 293.178c0 1.379-1.122 2.5-2.5 2.5h-319.788c-1.378 0-2.5-1.121-2.5-2.5v-13.621c0-23.435 19.065-42.5 42.5-42.5h239.788c23.435 0 42.5 19.065 42.5 42.5z"/></g></g></svg>