<svg id="Capa_1" enable-background="new 0 0 511.99 511.99" height="512" viewBox="0 0 511.99 511.99" width="512" xmlns="http://www.w3.org/2000/svg"><g><g><path d="m12.504 354.587h267.033l-193.776-58.294-52.456-21.781h-20.801c-3.494 0-5.913 3.49-4.686 6.762l11.819 31.518c.425 1.133.425 2.382 0 3.514l-11.819 31.519c-1.227 3.272 1.192 6.762 4.686 6.762z" fill="#ab7b64"/><path d="m499.486 354.587h-267.033v-80.074h222.499l6.733 11.398 16.999-11.398h20.801c3.494 0 5.913 3.49 4.686 6.762l-11.819 31.518c-.425 1.133-.425 2.382 0 3.514l11.819 31.518c1.228 3.272-1.191 6.762-4.685 6.762z" fill="#ab7b64"/><path d="m232.455 274.515v54.03h-177.15c-12.13 0-22-9.87-22-22v-32.03z" fill="#9a6a53"/><path d="m478.685 274.515v32.03c0 12.13-9.87 22-22 22h-177.15v-54.03z" fill="#9a6a53"/><path d="m55.304 219.461h401.382c2.761 0 5 2.239 5 5v82.085c0 2.761-2.239 5-5 5h-34.231l-13.758-10.017-295.149 10.017-15.191-10.016-11.482 10.017h-31.571c-2.761 0-5-2.239-5-5v-82.085c0-2.762 2.239-5.001 5-5.001z" fill="#b78c7a"/><path d="m426.075 306.845-3.62 4.7h-335.58c-5.97-7.87-8.22-17.84-6.18-27.57l5.27-25.05-6.13-24.86c-1.2-4.87-1.31-9.84-.38-14.6h352.55c.12 2.83-.11 5.7-.71 8.55l-5.27 25.05 6.13 24.86c2.49 10.11.28 20.66-6.08 28.92z" fill="#ab7b64"/><path d="m379.079 359.524-23.264 11.701c-2.155 1.084-4.039 2.64-5.511 4.552l-16.689 16.041c-2.981 3.873-7.564 6.178-12.451 6.262l-24.009 1.776c-2.412.042-4.784.626-6.94 1.71l-23.264 11.701c-4.366 2.196-9.495 2.285-13.935.24l-23.653-10.893c-2.192-1.009-4.582-1.512-6.995-1.47l-23.726 1.011c-4.887.084-9.546-2.062-12.659-5.83l-16.584-20.077c-1.537-1.86-3.473-3.35-5.664-4.36l-23.653-10.893c-4.439-2.044-7.706-5.999-8.876-10.745l-4.273-23.836c-.577-2.343-1.675-4.525-3.212-6.385l-16.584-20.077c-3.113-3.768-4.34-8.749-3.335-13.532l3.357-25.401c.496-2.361.454-4.804-.123-7.147l-3.915-24.984c-1.169-4.746-5.923-8.892-2.942-12.765l15.883-20.636c1.472-1.912 2.494-4.131 2.99-6.492l5.357-25.484c1.005-4.783 4.134-8.848 8.5-11.044l23.264-11.701c2.155-1.084 4.039-2.64 5.511-4.552l15.883-20.636c2.981-3.873 7.564-6.178 12.451-6.262l26.037-.448c2.412-.042 4.784-.626 6.94-1.71l23.264-11.701c4.366-2.196 9.495-2.285 13.935-.24l23.653 10.893c2.192 1.009 4.582 1.512 6.995 1.47l26.037-.448c4.887-.084 9.546 2.062 12.659 5.83l16.584 20.077c1.537 1.86 3.473 3.35 5.664 4.36l23.653 10.893c4.439 2.044 7.706 5.999 8.876 10.745l6.231 25.284c.577 2.343 1.675 4.525 3.212 6.385l16.584 20.077c3.113 3.768 4.34 8.749 3.335 13.532l-5.357 25.484c-.496 2.361-.454 4.804.123 7.147l6.231 25.284c1.169 4.746.114 9.766-2.867 13.639l-15.883 20.636c-1.472 1.912-2.494 4.131-2.99 6.492l-5.357 25.484c-1.003 4.782-4.131 8.847-8.498 11.043z" fill="#ffe07d"/><path d="m353.395 372.725c-1.16.87-2.2 1.89-3.09 3.05l-15.88 20.64c-2.98 3.87-7.57 6.18-12.45 6.26l-26.04.45c-2.41.04-4.79.62-6.94 1.71l-23.27 11.7c-4.36 2.2-9.49 2.28-13.93.24l-23.65-10.89c-2.19-1.01-4.59-1.51-7-1.47l-26.03.45c-4.89.08-9.55-2.07-12.66-5.83l-16.59-20.08c-1.53-1.86-3.47-3.35-5.66-4.36l-23.66-10.89c-4.44-2.05-7.7-6-8.87-10.75l-6.23-25.28c-.58-2.35-1.68-4.53-3.21-6.39l-16.59-20.08c-3.11-3.76-4.34-8.74-3.33-13.53l5.35-25.48c.5-2.36.46-4.81-.12-7.15l-6.23-25.28c-1.17-4.75-.12-9.77 2.87-13.64l15.88-20.64c1.47-1.91 2.49-4.13 2.99-6.49 0 0-8.81 21.05-7.1 56.39 4.22 87.31 78.59 154.69 166.11 150.48 27.65-1.33 53.3-9.64 75.33-23.14z" fill="#ffd064"/><path d="m368.292 250.584c1.708 35.437-13.183 67.831-37.831 89.648-18.49 16.366-42.116 22.526-68.7 23.807-62.02 2.989-111.054-41.129-114.043-103.149-1.509-31.308 5.919-59.723 25.605-81.086 19.311-20.955 46.549-34.625 77.26-36.105 62.02-2.989 114.72 44.865 117.709 106.885z" fill="#f5fcff"/><path d="m343.515 326.565c-19.45 24.11-48.73 40.12-82.11 41.73-62.02 2.99-114.72-44.87-117.71-106.89-1.8-37.29 14.79-71.21 41.78-92.98-16.7 20.69-26.16 47.34-24.78 75.98 2.99 62.02 55.69 109.88 117.71 106.89 24.73-1.19 47.21-10.29 65.11-24.73z" fill="#e6f7fe"/><path d="m258.764 192.659 18.661 37.931c.45.914 1.321 1.547 2.329 1.692l41.841 6.026c2.535.365 3.548 3.482 1.711 5.267l-30.308 29.469c-.73.71-1.063 1.735-.89 2.738l7.198 41.655c.436 2.524-2.215 4.45-4.481 3.255l-37.392-19.718c-.901-.475-1.978-.475-2.879 0l-19.159 10.103-13.24 3.724c-2.266 1.195-4.917-.731-4.481-3.255l7.868-38.218c.173-1.004-.159-2.028-.89-2.738l-28.434-24.69c-1.836-1.786-.824-4.902 1.711-5.267l12.824-5.258 21.481-3.094c1.008-.145 1.88-.778 2.329-1.692l18.661-37.931c1.133-2.298 4.41-2.298 5.54.001z" fill="#ffe07d"/><path d="m242.725 268.705-7.33 42.37-18.23 9.62c-2.27 1.19-4.92-.73-4.48-3.26l7.2-41.65c.17-1.01-.16-2.03-.89-2.74l-30.31-29.47c-1.84-1.79-.83-4.9 1.71-5.27l20.36-2.93 30.9 30.05c.88.85 1.27 2.08 1.07 3.28z" fill="#ffd064"/></g><g><g><path d="m499.703 314.549 11.491-30.643c1.439-3.839.904-8.144-1.432-11.513-2.335-3.369-6.177-5.381-10.276-5.381h-30.301v-42.552c0-6.893-5.607-12.5-12.5-12.5h-36.967c-.886-2.122-2.085-4.13-3.593-5.956l-16.584-20.076c-.814-.986-1.406-2.163-1.712-3.405l-6.231-25.283c-1.725-7.001-6.471-12.746-13.021-15.764l-23.651-10.892c-1.161-.535-2.206-1.34-3.021-2.324l-16.584-20.077c-4.593-5.56-11.379-8.671-18.57-8.553l-26.039.448c-1.245.027-2.565-.248-3.726-.783l-23.654-10.894c-6.551-3.017-14.001-2.888-20.442.353l-23.263 11.701c-1.143.574-2.422.89-3.7.911l-26.037.449c-7.21.124-13.867 3.473-18.265 9.187l-15.883 20.637c-.78 1.013-1.795 1.852-2.938 2.426l-23.264 11.701c-6.442 3.24-10.987 9.146-12.47 16.201l-5.356 25.483c-.263 1.252-.814 2.448-1.594 3.462l-15.883 20.636c-.104.135-.198.275-.299.412h-38.634c-6.893 0-12.5 5.607-12.5 12.5v42.552h-30.3c-4.1 0-7.942 2.012-10.278 5.382s-2.87 7.674-1.431 11.514l11.491 30.642-11.49 30.642c-1.44 3.839-.905 8.144 1.431 11.514s6.178 5.382 10.278 5.382h31.725c4.142 0 7.5-3.357 7.5-7.5s-3.358-7.5-7.5-7.5h-28.125l10.555-28.146c1.062-2.832 1.062-5.95 0-8.782l-10.555-28.146h26.699v24.534c0 6.893 5.607 12.5 12.5 12.5h51.349l5.795 7.016c.814.985 1.407 2.163 1.712 3.404l4.342 17.62h-38.507c-4.142 0-7.5 3.357-7.5 7.5s3.358 7.5 7.5 7.5h43.595c2.385 3.626 5.755 6.553 9.822 8.427l23.652 10.892c1.162.535 2.207 1.34 3.021 2.324l16.584 20.077c4.591 5.559 11.342 8.659 18.57 8.553l26.038-.448c1.297-.034 2.567.248 3.728.783l23.653 10.894c3.149 1.45 6.506 2.173 9.859 2.173 3.621 0 7.238-.843 10.582-2.525l23.265-11.701c1.142-.574 2.421-.89 3.699-.911l26.036-.449c7.209-.124 13.867-3.472 18.266-9.187l15.883-20.637c.779-1.013 1.795-1.852 2.938-2.426l23.264-11.701c2.173-1.093 4.124-2.495 5.82-4.137h111.217c4.1 0 7.941-2.012 10.276-5.381 2.336-3.37 2.871-7.675 1.432-11.516zm-45.517-10.502h-39.208l2.776-3.606c4.397-5.716 5.93-13.008 4.204-20.008l-6.23-25.283c-.306-1.242-.329-2.56-.065-3.81l5.124-24.379h33.4v77.086zm-396.382-77.086h31.569c.071 1.533.283 3.072.658 4.597l6.231 25.283c.306 1.241.329 2.559.066 3.81l-5.357 25.484c-1.317 6.263-.055 12.665 3.456 17.912h-36.623zm294.641 137.564c-3.143 1.581-5.938 3.89-8.084 6.678l-15.883 20.636c-1.598 2.076-4.017 3.293-6.637 3.338l-26.036.449c-3.517.06-7.037.928-10.182 2.509l-23.265 11.701c-2.341 1.178-5.049 1.224-7.427.128l-23.654-10.895c-3.076-1.415-6.476-2.158-9.859-2.158-.133 0-.267.001-.4.003l-26.037.448c-2.627.02-5.08-1.087-6.748-3.107l-16.585-20.078c-2.24-2.711-5.113-4.922-8.308-6.395l-23.653-10.893c-2.38-1.096-4.104-3.184-4.731-5.728l-6.231-25.285c-.842-3.415-2.471-6.654-4.711-9.366l-8.04-9.734-8.544-10.344c-1.668-2.02-2.316-4.647-1.777-7.211l5.357-25.485c.723-3.442.661-7.067-.181-10.483l-6.231-25.283c-.462-1.874-.276-3.803.489-5.52.019-.043.037-.086.055-.129.265-.569.592-1.113.984-1.623l15.883-20.636c2.146-2.787 3.663-6.08 4.387-9.523l5.356-25.484c.539-2.563 2.19-4.71 4.531-5.887l23.263-11.701c3.144-1.58 5.939-3.89 8.085-6.678l15.883-20.637c1.598-2.075 4.017-3.292 6.637-3.337l26.035-.449c3.517-.06 7.037-.927 10.183-2.509l23.264-11.701c2.341-1.178 5.048-1.226 7.427-.128l23.655 10.894c3.197 1.473 6.765 2.221 10.259 2.156l26.037-.448c2.605-.041 5.079 1.088 6.748 3.107l16.586 20.079c2.24 2.711 5.112 4.922 8.308 6.394l23.652 10.893c2.38 1.096 4.104 3.184 4.731 5.728l6.231 25.283c.842 3.415 2.47 6.654 4.711 9.368l16.585 20.077c1.668 2.02 2.316 4.648 1.777 7.212l-5.355 25.482c-.725 3.441-.662 7.067.18 10.486l6.23 25.284c.627 2.544.07 5.194-1.527 7.271l-15.884 20.636c-2.146 2.787-3.662 6.081-4.386 9.523l-5.356 25.484c-.263 1.25-.794 2.397-1.537 3.385-.022.032-.046.062-.067.094-.771.997-1.764 1.822-2.927 2.408zm43.092-17.438 4.74-22.55c.263-1.251.813-2.447 1.593-3.46l1.563-2.03h53.254c6.893 0 12.5-5.607 12.5-12.5v-24.534h26.699l-10.555 28.146c-1.062 2.832-1.062 5.95 0 8.782l10.556 28.146z"/><path d="m372.333 226.784c-1.005-4.02-5.079-6.46-9.096-5.457-4.019 1.006-6.462 5.078-5.457 9.096 1.67 6.675 2.686 13.579 3.021 20.521 1.35 27.994-8.284 54.839-27.125 75.588-18.842 20.75-44.635 32.92-72.63 34.269-3.221.154-6.478.165-9.677.027-4.104-.18-7.636 3.034-7.814 7.172-.177 4.139 3.034 7.637 7.172 7.814 2.092.027 3.265.253 11.042-.031 31.996-1.542 61.478-15.451 83.012-39.167 21.535-23.715 32.545-54.397 31.003-86.395-.383-7.923-1.544-15.809-3.451-23.437z"/><path d="m219.345 354.345c-39.38-14.699-66.132-51.32-68.155-93.299-1.349-27.994 8.284-54.839 27.125-75.589 18.841-20.749 44.635-32.919 72.629-34.268 37.724-1.817 73.681 16.914 93.856 48.883 2.212 3.502 6.841 4.55 10.346 2.34 3.503-2.211 4.55-6.843 2.34-10.346-23.057-36.532-64.16-57.932-107.264-55.859-31.997 1.542-61.478 15.451-83.013 39.167-21.535 23.715-32.545 54.397-31.003 86.395 2.312 47.976 32.886 89.83 77.893 106.629.864.322 1.75.476 2.622.476 3.041 0 5.902-1.863 7.027-4.879 1.449-3.881-.522-8.202-4.403-9.65z"/><path d="m291.33 327.327c1.565.825 3.26 1.233 4.946 1.233 2.186-.001 4.356-.686 6.213-2.034 3.287-2.389 4.9-6.36 4.209-10.367l-6.802-39.36 28.64-27.848c2.913-2.834 3.942-6.996 2.687-10.861-1.257-3.865-4.536-6.626-8.559-7.206l-39.537-5.694-17.633-35.842c0-.001 0-.001 0-.001-1.795-3.646-5.435-5.912-9.499-5.912s-7.704 2.266-9.499 5.913l-17.634 35.842-39.537 5.694c-4.023.58-7.302 3.341-8.559 7.207-1.256 3.865-.227 8.026 2.688 10.861l28.64 27.847-6.802 39.361c-.692 4.005.921 7.978 4.209 10.366 3.289 2.389 7.564 2.696 11.161.8l35.333-18.632zm-40.273-32.986-29.456 15.532 5.671-32.814c.595-3.444-.546-6.955-3.052-9.392l-23.876-23.215 32.956-4.747c3.463-.496 6.453-2.668 7.995-5.806l14.701-29.88 14.701 29.883c1.546 3.138 4.533 5.307 7.988 5.803l32.962 4.747-23.875 23.214c-2.508 2.438-3.648 5.95-3.053 9.394l5.671 32.814-29.454-15.532c-1.547-.816-3.244-1.225-4.941-1.225s-3.393.409-4.938 1.224z"/></g></g></g></svg>