<svg id="Capa_1" enable-background="new 0 0 512 512" height="512" viewBox="0 0 512 512" width="512" xmlns="http://www.w3.org/2000/svg"><g><g><path d="m484.5 231.75v147.378c0 9.456-6.878 17.122-15.362 17.122h-446.276c-8.484 0-15.362-7.666-15.362-17.122v-11.378l7.798-7.5-7.798-7.5v-21l6.521-7.5-6.521-7.5v-85z" fill="#7fcb8f"/><path d="m484.5 135.25v77h-.5c-19.673 0-26.233 18.355-39.73 30.622-15.297 13.903-36.27 23.081-36.27 45.378h-324v-.5c0-19.426-26.256-24.313-38.25-37.75-13.919-15.593-15.206-38.25-37.75-38.25h-.5v-77h.5c22.585 0 30.994-22.357 44.915-38 11.949-13.427 31.085-18.615 31.085-38h324v.5c0 20.329 24.997 26.665 38 40.303 13.842 14.518 16.359 35.697 38 35.697z" fill="#94d4a2"/><g fill="#7fcb8f"><path d="m84 287.75v.5h-61.19c-8.45 0-15.31-6.86-15.31-15.31v-61.19h.5c41.97 0 76 34.03 76 76z"/><path d="m84 58.75c0 41.97-34.03 76-76 76h-.5v-60.69c0-8.45 6.86-15.31 15.31-15.31z"/><path d="m484.5 74.06v61.19h-.5c-41.97 0-76-34.03-76-76v-.5h61.19c8.45 0 15.31 6.86 15.31 15.31z"/><path d="m484.5 212.25v60.69c0 8.45-6.86 15.31-15.31 15.31h-61.19c0-41.97 34.03-76 76-76z"/></g><path d="m7.5 316.75h477v15h-477z" fill="#71bf7e"/><path d="m7.5 352.75h477v15h-477z" fill="#71bf7e"/><path d="m330.5 173.5c0 9.198-1.47 18.052-4.187 26.341-11.069 33.77-42.843 53.925-80.313 53.925-46.668 0-78.702-35.715-78.702-82.383 0-29.997 9.833-54.226 33.393-69.221 13.094-8.334 28.638-13.162 45.309-13.162 46.668 0 84.5 37.832 84.5 84.5z" fill="#7fcb8f"/><path d="m326.31 199.84c-11.06 33.77-42.84 58.16-80.31 58.16-46.67 0-84.5-37.83-84.5-84.5 0-30 15.63-56.35 39.19-71.34-2.72 8.29-4.19 17.14-4.19 26.34 0 46.67 37.83 84.5 84.5 84.5 16.67 0 32.22-4.83 45.31-13.16z" fill="#71bf7e"/><path d="m504.5 347.25c0 14.605-2.954 28.521-8.297 41.181-16.073 38.087-52.779 56.824-96.716 56.824-58.542 0-99.254-39.463-99.254-98.005 0-33.725 8.016-63.772 32.562-83.186 18.062-14.286 40.887-22.814 65.704-22.814 58.543 0 106.001 47.458 106.001 106z" fill="#5f6c75"/><path d="m496.2 388.43c-16.07 38.09-53.76 64.82-97.7 64.82-58.54 0-106-47.46-106-106 0-33.72 15.75-63.77 40.3-83.18-5.35 12.66-8.3 26.58-8.3 41.18 0 58.54 47.46 106 106 106 24.82 0 47.64-8.53 65.7-22.82z" fill="#4e5a61"/><path d="m399.664 421.426c-43.01 0-76.791-31.166-76.791-74.176 0-9.663-.606-18.921 2.62-27.469 10.29-27.259 35.433-47.291 65.507-50.173 2.469-.237 4.971 7.648 7.5 7.648 2.52 0 5.013-7.885 7.472-7.65 36.894 3.523 66.373 32.854 70.124 69.681.267 2.619-6.841 5.276-6.841 7.964 0 2.53 7.124 5.032 6.887 7.5-2.188 22.827-14.256 42.813-31.865 55.62-12.865 9.355-27.524 11.055-44.613 11.055z" fill="#f5fcff"/><path d="m444.27 410.36c-10.956 7.982-24.067 13.171-38.27 14.532-2.469.237-4.971-6.871-7.5-6.871-2.53 0-5.032 7.108-7.5 6.871-37.277-3.573-66.977-33.492-70.208-70.866-.193-2.233 5.996-4.494 5.996-6.776 0-2.529-6.166-5.031-5.929-7.5.668-6.96 2.255-13.658 4.632-19.97 7.08 51.67 51.4 91.47 105.01 91.47 4.669 0 9.259-.3 13.769-.89z" fill="#e6f7fe"/></g><g><g><path d="m170.062 135.643c-3.853-1.517-8.208.384-9.723 4.238-4.206 10.708-6.339 22.019-6.339 33.619 0 50.729 41.271 92 92 92s92-41.271 92-92-41.271-92-92-92c-24.363 0-47.324 9.429-64.654 26.549-2.947 2.911-2.976 7.66-.065 10.606 2.913 2.947 7.662 2.976 10.606.065 14.505-14.328 33.722-22.22 54.113-22.22 42.458 0 77 34.542 77 77s-34.542 77-77 77-77-34.542-77-77c0-9.716 1.783-19.182 5.3-28.135 1.514-3.855-.383-8.209-4.238-9.722z"/><path d="m245.409 208.307c-8.646.065-11.588-.409-18.354-4.836-3.467-2.268-8.114-1.296-10.382 2.171-2.268 3.466-1.296 8.114 2.171 10.382 7.474 4.89 12.719 6.559 19.116 7.075v7.151c0 4.143 3.357 7.5 7.5 7.5s7.5-3.357 7.5-7.5v-7.856c13.001-3.187 21.338-14.241 23.171-25.143 2.377-14.141-5.011-26.432-18.819-31.313-8.039-2.842-16.94-6.284-22.011-10.26-1.943-1.523-2.78-4.727-2.134-8.158.636-3.374 2.922-7.463 7.432-8.821 10.349-3.116 17.062 2.577 17.342 2.82 3.127 2.718 7.864 2.387 10.58-.742 2.717-3.126 2.385-7.863-.742-10.58-.865-.752-6.289-5.204-14.818-6.833v-6.615c0-4.143-3.357-7.5-7.5-7.5s-7.5 3.357-7.5 7.5v7.119c-.557.141-1.119.296-1.688.467-9.156 2.759-15.994 10.578-17.846 20.406-1.698 9.01 1.221 17.723 7.617 22.739 5.462 4.284 13.072 7.935 26.269 12.6 9.792 3.461 9.574 11.422 9.025 14.684-1.089 6.479-6.538 13.48-15.929 13.543z"/><path d="m492 282.985v-208.922c0-12.579-10.234-22.813-22.813-22.813h-113.187c-4.143 0-7.5 3.357-7.5 7.5s3.357 7.5 7.5 7.5h44.815c3.378 40.466 35.719 72.807 76.185 76.185v62.618c-22.545 1.911-43.52 12.972-57.841 30.588-6.701-1.237-13.605-1.89-20.659-1.89-37.765 0-71.275 18.544-91.919 47h-215.397c-3.377-40.467-35.718-72.808-76.184-76.186v-62.631c40.299-3.364 72.546-35.452 76.146-75.685h229.854c4.143 0 7.5-3.357 7.5-7.5s-3.357-7.5-7.5-7.5h-298.187c-12.579.001-22.813 10.235-22.813 22.814v305.064c0 13.577 10.256 24.622 22.861 24.622h277.227c19.618 34.038 56.383 57 98.412 57 37.414 0 72.413-18.437 93.622-49.316 2.345-3.414 1.478-8.083-1.937-10.429-3.416-2.345-8.084-1.478-10.429 1.937-18.409 26.806-48.786 42.809-81.257 42.809-54.313 0-98.5-44.187-98.5-98.5s44.187-98.5 98.5-98.5 98.5 44.187 98.5 98.5c0 8.857-1.175 17.635-3.49 26.089-1.095 3.995 1.257 8.12 5.252 9.215 3.998 1.092 8.12-1.258 9.215-5.252 2.67-9.745 4.023-19.856 4.023-30.052.001-23.839-7.393-45.98-19.999-64.265zm-202.833 33.765h-165.167c-4.143 0-7.5 3.357-7.5 7.5s3.357 7.5 7.5 7.5h162.063c-.753 6.093-1.325 12.784-.928 21h-270.135v-21h74c4.143 0 7.5-3.357 7.5-7.5s-3.357-7.5-7.5-7.5h-74v-22.379c2.438.892 5.07 1.379 7.813 1.379h274.559c-3.4 6.649-6.159 13.677-8.205 21zm-213.022-36h-53.332c-4.309 0-7.813-3.505-7.813-7.813v-11.187-42.145c32.194 3.283 57.862 28.951 61.145 61.145zm-53.332-214.5h53.268c-3.497 31.958-29.055 57.38-61.081 60.645v-52.832c0-4.308 3.505-7.813 7.813-7.813zm.048 322.5c-4.335 0-7.861-4.316-7.861-9.622v-11.378h271.859c1.331 7.263 3.351 14.287 5.997 21zm392.994-322.5h53.332c4.309 0 7.813 3.505 7.813 7.813v53.332c-32.194-3.283-57.862-28.951-61.145-61.145zm19.607 173.685c11.123-11.144 25.827-18.189 41.538-19.816v45.234c-11.729-11.247-25.861-20.004-41.538-25.418z"/><path d="m398.5 261.75c-47.145 0-85.5 38.355-85.5 85.5s38.355 85.5 85.5 85.5 85.5-38.355 85.5-85.5-38.355-85.5-85.5-85.5zm7.5 155.597v-15.097c0-4.143-3.357-7.5-7.5-7.5s-7.5 3.357-7.5 7.5v15.097c-32.895-3.495-59.102-29.702-62.597-62.597h15.097c4.143 0 7.5-3.357 7.5-7.5s-3.357-7.5-7.5-7.5h-15.097c3.495-32.895 29.702-59.102 62.597-62.597v15.097c0 4.143 3.357 7.5 7.5 7.5s7.5-3.357 7.5-7.5v-15.097c32.895 3.495 59.102 29.702 62.597 62.597h-15.097c-4.143 0-7.5 3.357-7.5 7.5s3.357 7.5 7.5 7.5h15.097c-3.495 32.895-29.702 59.102-62.597 62.597z"/><path d="m425.196 308.946-32 32c-2.929 2.93-2.929 7.678 0 10.607l29 29c1.465 1.464 3.385 2.196 5.304 2.196s3.839-.732 5.304-2.196c2.929-2.93 2.929-7.678 0-10.607l-23.696-23.696 26.696-26.696c2.929-2.93 2.929-7.678 0-10.607-2.93-2.928-7.678-2.928-10.608-.001z"/></g></g></g></svg>