<svg id="Capa_1" enable-background="new 0 0 512 512" height="512" viewBox="0 0 512 512" width="512" xmlns="http://www.w3.org/2000/svg"><g><g><path d="m139.5 504.5c-20.711 0-37.5-16.789-37.5-37.5v-422c0-20.711 16.789-37.5 37.5-37.5h233c20.711 0 37.5 16.789 37.5 37.5v422c0 20.711-16.789 37.5-37.5 37.5z" fill="#f5fcff"/><path d="m407.09 481.5c-5.66 13.51-19.02 23-34.59 23h-233c-20.71 0-37.5-16.79-37.5-37.5v-422c0-15.57 9.49-28.93 23-34.59v456.59c0 8 6.5 14.5 14.5 14.5z" fill="#e6f7fe"/><path d="m206.298 246.759 9.329-20.155c2.115-4.569 1.154-9.971-2.406-13.531l-23.784-23.784c-4.688-4.688-12.289-4.688-16.977 0l-24.617 24.617.016.016c-7.056 7.057-6.233 15.066-1.598 24.528 28.069 57.296 69.989 99.215 127.284 127.284 9.463 4.636 17.486 5.479 24.543-1.578.007-.007.013-.014.019-.021l24.599-24.599c4.688-4.688 4.688-12.289 0-16.977l-13.786-13.789-10.996-9.996c-3.56-3.56-7.962-3.52-12.531-1.406l-20.155 9.329c-4.569 2.115-9.971.154-13.531-3.406l-43.002-43.002c-3.561-3.559-4.521-8.961-2.407-13.53z" fill="#94d4a2"/><g fill="#7fcb8f"><path d="m308.92 308.77c-3.56-3.56-8.96-4.52-13.53-2.4l-20.15 9.33c-4.57 2.11-9.97 1.15-13.53-2.41l-10-10c3.56 3.56 8.96 4.52 13.53 2.41l20.15-9.33c4.57-2.12 9.97-1.16 13.53 2.4z"/><path d="m298.63 363.61-.52.52c-.01.01-.01.02-.02.03-7.06 7.05-18.08 9.21-27.54 4.57-57.3-28.07-99.22-69.98-127.29-127.28-4.63-9.46-2.46-20.47 4.6-27.53l-.02-.01.54-.54c.25 3.38 1.2 6.81 2.9 10.1 31.41 60.64 76.61 105.83 137.25 137.24 3.29 1.7 6.72 2.65 10.1 2.9z"/></g></g><g><g><path d="m309 497h-169.5c-16.542 0-30-13.458-30-30v-309c0-4.143-3.358-7.5-7.5-7.5s-7.5 3.357-7.5 7.5v309c0 24.813 20.187 45 45 45h169.5c4.142 0 7.5-3.357 7.5-7.5s-3.358-7.5-7.5-7.5z"/><path d="m372.5 0h-233c-24.813 0-45 20.187-45 45v78c0 4.143 3.358 7.5 7.5 7.5s7.5-3.357 7.5-7.5v-78c0-16.542 13.458-30 30-30h233c16.542 0 30 13.458 30 30v422c0 16.542-13.458 30-30 30h-28.5c-4.142 0-7.5 3.357-7.5 7.5s3.358 7.5 7.5 7.5h28.5c24.813 0 45-20.187 45-45v-422c0-24.813-20.187-45-45-45z"/><path d="m269 30h-50c-4.142 0-7.5 3.357-7.5 7.5s3.358 7.5 7.5 7.5h50c4.142 0 7.5-3.357 7.5-7.5s-3.358-7.5-7.5-7.5z"/><path d="m304.227 293.471c-5.759-5.759-14.595-7.328-21.984-3.908l-20.155 9.329c-1.708.792-3.748.429-5.078-.902l-43.003-43.003c-1.33-1.33-1.692-3.37-.902-5.077l9.329-20.155c3.421-7.39 1.851-16.225-3.909-21.985l-23.784-23.783c-3.684-3.684-8.582-5.713-13.792-5.713s-10.108 2.029-13.792 5.713l-24.617 24.616c-.159.16-.311.326-.454.498-9.134 9.529-11.38 23.767-5.559 35.649 16.252 33.175 37.473 61.827 63.074 85.16 3.061 2.79 7.805 2.571 10.595-.491 2.791-3.061 2.57-7.805-.491-10.595-24.201-22.058-44.289-49.2-59.708-80.674-3.099-6.326-1.827-13.932 3.166-18.925.142-.142.276-.287.404-.438l24.196-24.195c.851-.851 1.981-1.319 3.185-1.319s2.334.469 3.186 1.32l23.783 23.782c1.331 1.331 1.693 3.371.903 5.078l-9.33 20.155c-3.42 7.392-1.85 16.227 3.909 21.985l43.002 43.003c5.758 5.758 14.592 7.328 21.984 3.908l20.157-9.33c1.706-.789 3.747-.428 5.076.903l23.784 23.783c1.756 1.757 1.756 4.615 0 6.371l-24.599 24.599c-.02.021-.042.042-.063.063-4.988 4.953-12.574 6.202-18.897 3.104-13.318-6.524-25.947-13.919-37.536-21.978-3.402-2.368-8.076-1.525-10.439 1.875-2.365 3.4-1.525 8.075 1.875 10.439 12.212 8.492 25.502 16.275 39.501 23.134 4.418 2.164 9.158 3.216 13.862 3.216 8.177 0 16.24-3.181 22.284-9.226.022-.022.045-.046.068-.069l24.55-24.551c7.604-7.604 7.604-19.979 0-27.584z"/><path d="m340.272 251.522c-11.249-38.717-41.08-68.548-79.798-79.797-3.976-1.157-8.139 1.133-9.294 5.109-1.156 3.978 1.132 8.14 5.11 9.295 33.759 9.809 59.77 35.818 69.578 69.578.953 3.278 3.948 5.409 7.199 5.409.693 0 1.397-.097 2.096-.3 3.977-1.154 6.265-5.316 5.109-9.294z"/><path d="m249.411 227.073c17.231 5.007 30.507 18.282 35.513 35.514.953 3.278 3.948 5.409 7.199 5.409.693 0 1.397-.097 2.096-.3 3.978-1.155 6.266-5.317 5.11-9.295-6.447-22.189-23.543-39.285-45.733-45.732-3.977-1.155-8.139 1.133-9.294 5.109-1.156 3.978 1.131 8.14 5.109 9.295z"/><path d="m371.182 257.067c.693 0 1.397-.097 2.096-.3 3.978-1.155 6.266-5.317 5.11-9.295-7.188-24.739-20.238-47.834-37.74-66.788-2.811-3.044-7.556-3.233-10.598-.422-3.043 2.81-3.232 7.555-.422 10.598 15.934 17.256 27.814 38.278 34.356 60.798.952 3.279 3.947 5.409 7.198 5.409z"/><path d="m255.23 138.721c-1.156 3.978 1.132 8.139 5.11 9.294 15.307 4.447 29.792 11.267 43.051 20.271 1.291.876 2.756 1.296 4.207 1.296 2.401 0 4.761-1.151 6.211-3.288 2.327-3.427 1.436-8.091-1.991-10.418-14.563-9.889-30.474-17.38-47.293-22.266-3.978-1.157-8.139 1.132-9.295 5.111z"/><circle cx="294" cy="37.5" r="7.5"/></g></g></g></svg>