<svg id="Capa_1" enable-background="new 0 0 512 512" height="512" viewBox="0 0 512 512" width="512" xmlns="http://www.w3.org/2000/svg"><g><g><path d="m452.62 31.49v367.38c0 .41-.01.81-.03 1.22h-91.51c-6.63 0-12 5.37-12 11.99v92.35c-.59.05-1.18.07-1.78.07l-252.8-4.053c-13.26 0-24.01-10.74-24.01-23.99l-4.384-444.776c0-11.594 1.504-21.457 12.445-23.693 1.563-.32 3.182-.488 4.839-.488h345.22c13.26 0 24.01 10.74 24.01 23.99z" fill="#f5fcff"/><path d="m231.043 208.191-123.107-2.191c-5.523 0-10-4.477-10-10l-3.436-140.532c0-5.523 4.477-10 10-10l6-2.301h124c5.523 0 10 4.477 10 10v140.663l-3.457 4.361c0 5.523-4.478 10-10 10z" fill="#bed9fd"/><path d="m244.5 193.83v6c0 5.53-4.48 10-10 10h-17.513l-47.486-2-47.486 2h-17.515c-5.52 0-10-4.47-10-10v-146.66c0-5.53 4.48-10 10-10h6v145.66c0 2.76 2.24 5 5 5z" fill="#9ec8fc"/><path d="m452.62 380.09v18.78c0 .41-.01.81-.03 1.22l-73.973 15.415c-6.63 0-12 5.37-12 11.99l-17.537 76.935c-.59.05-1.18.07-1.78.07h-18.22v-92.42c0-17.64 14.36-31.99 32-31.99z" fill="#e6f7fe"/><path d="m103.39 484.5h245.69v19.93c-.59.05-1.18.07-1.78.07h-263.91c-13.26 0-24.01-10.74-24.01-23.99v-449.02c0-11.99 8.8-21.92 20.29-23.7-.19 1.21-.29 2.44-.29 3.7v449.02c0 13.25 10.75 23.99 24.01 23.99z" fill="#e6f7fe"/><path d="m452.59 400.09c-.3 5.9-2.78 11.51-6.97 15.72l-81.32 81.64c-4.08 4.09-9.49 6.56-15.22 6.98v-92.35c0-6.62 5.37-11.99 12-11.99z" fill="#d3effd"/><path d="m216.691 207.52-2.437-19.194c-.981-7.211-5.801-13.32-12.586-15.951l-18.421-7.144h-27.572l-16.802 8.244c-6.785 2.631-10.686 8.323-11.667 15.534l-1.138 14.821 12.899-1.39z" fill="#d5717f"/><path d="m216.987 209.83-2.035-16-73.435-.14c-1.198 0-2.125-1.051-1.974-2.24v-1.17c.26-1.77 1.46-2.1 3.13-2.75l12.59-6.05c4.5 1.62 9.27 2.49 14.2 2.49 4.94 0 9.7-.87 14.2-2.49 5.85-2.1 11.26-5.48 16.01-9.88l-16.43-6.37h-27.57l-16.42 6.37-2 .77c-6.79 2.64-11.61 8.74-12.59 15.96l-2.648 21.499h94.972z" fill="#cd5668"/><path d="m136.738 123.136c.781 25.209 13.715 45.838 32.722 45.838 19.036 0 34.554-20.176 35.292-45.438l-35.116-28.145z" fill="#f7e5c1"/><path d="m174.359 128.825c-7.253 4.174-15.439 6.565-22.647 7.916 4.35 15.12 13.88 27.4 25.5 31.09-2.5.75-5.09 1.14-7.75 1.14-15.09 0-27.96-12.66-33.02-30.49-1.32-4.64-2.11-9.63-2.27-14.83l35.46-28.26 7.06 5.65 28.06 22.49c-.15 5.17-.92 10.13-2.22 14.75-11.524-.905-18.982-3.887-25.561-9.282-.74-.607-1.781-.652-2.612-.174z" fill="#f4d9b1"/><path d="m202.7 86.689c-1.425-1.696-5.352-6.369-12.349-8.095-2.524-.623-4.871-.72-6.897-.568-4.181.313-8.397-.079-12.419-1.267-4.388-1.296-10.567-2.201-17.583-.48-.673.165-1.655.427-2.848.835-4.194 1.433-7.745 5.659-12.837 12.78-7.328 10.247-7.139 24.36-5.883 28.823.29 1.029 1.22 1.742 2.289 1.742 12.378.008 32.488-.21 40.953-11.704.772-1.048 2.331-1.064 3.151-.053 8.585 10.577 13.292 13.928 26.85 14.729 1.148.068 2.17-.717 2.435-1.836 1.185-5.005 3.262-25.239-4.862-34.906z" fill="#5f6c75"/><path d="m175.803 108.181c-.26.13-.49.32-.68.57-8.46 11.5-29.49 14.79-41.87 14.79-1.07 0-2-.72-2.29-1.75-1.26-4.46-3.77-22.65 3.56-32.89 5.42-7.58 12.76-10.75 16.85-12.04-.28.36-.56.73-.83 1.11-7.32 10.25-4.81 28.44-3.56 32.9.29 1.03 1.22 1.74 2.29 1.74 7.29.01 17.57-1.14 26.53-4.43z" fill="#4e5a61"/></g><g><g><path d="m428.613 0h-345.226c-17.373 0-31.508 14.127-31.508 31.49v449.02c0 17.363 14.135 31.49 31.508 31.49h62.719c4.142 0 7.5-3.357 7.5-7.5s-3.358-7.5-7.5-7.5h-62.719c-9.103 0-16.508-7.397-16.508-16.49v-449.02c0-9.093 7.406-16.49 16.508-16.49h345.226c9.103 0 16.508 7.397 16.508 16.49v361.099h-84.04c-10.754 0-19.504 8.745-19.504 19.495v84.916h-159.577c-4.142 0-7.5 3.357-7.5 7.5s3.358 7.5 7.5 7.5h165.301c8.312 0 16.445-3.374 22.317-9.261l26.88-26.987c2.923-2.935 2.914-7.684-.021-10.606-2.935-2.924-7.684-2.913-10.607.021l-26.876 26.983c-.741.743-1.554 1.405-2.417 1.989v-82.054c0-2.479 2.021-4.495 4.504-4.495h81.533c-.655 1.046-1.418 2.033-2.312 2.929l-28.73 28.845c-2.923 2.935-2.914 7.684.021 10.606 2.935 2.924 7.684 2.913 10.607-.021l28.726-28.841c5.929-5.944 9.195-13.841 9.195-22.233v-367.385c0-17.363-14.135-31.49-31.508-31.49z"/><path d="m316.313 50.667c5.317 0 10.443 1.564 14.825 4.525 3.432 2.316 8.094 1.416 10.413-2.016 2.319-3.433 1.417-8.095-2.016-10.414-6.871-4.642-14.901-7.096-23.222-7.096-22.897 0-41.525 18.628-41.525 41.524 0 22.897 18.628 41.525 41.525 41.525 9.122 0 17.304-2.993 23.662-8.655 1.246-1.109 2.43-2.331 3.521-3.631 2.662-3.174 2.247-7.904-.927-10.566-3.174-2.661-7.904-2.246-10.566.928-.625.745-1.299 1.44-2.003 2.068-3.619 3.223-8.224 4.856-13.686 4.856-14.626 0-26.525-11.899-26.525-26.525s11.899-26.523 26.524-26.523z"/><path d="m394.038 118.717h.061c3.843-.025 7.257-2.487 8.512-6.177l22.219-66.884c1.306-3.931-.822-8.176-4.753-9.481-3.933-1.309-8.176.821-9.482 4.753l-16.68 50.209-17.505-50.429c-1.358-3.914-5.633-5.987-9.545-4.626-3.913 1.358-5.984 5.631-4.626 9.544l23.285 67.079c1.279 3.603 4.696 6.012 8.514 6.012z"/><path d="m234.5 35.667h-130c-9.649 0-17.5 7.851-17.5 17.5v146.666c0 9.649 7.851 17.5 17.5 17.5h130c9.649 0 17.5-7.851 17.5-17.5v-66.27c0-4.143-3.358-7.5-7.5-7.5s-7.5 3.357-7.5 7.5v66.27c0 1.379-1.122 2.5-2.5 2.5h-10.613l-2.113-17.307c-.004-.034-.009-.067-.013-.102-1.349-9.912-7.98-18.316-17.306-21.933l-6.567-2.547c7.661-8.636 12.864-20.758 14.148-34.536 1.397-1.297 2.434-3.004 2.902-4.979 1.319-5.574 4.094-28.947-6.42-41.458 0 0 0-.001-.001-.001-1.712-2.038-6.925-8.24-16.292-10.55-3.007-.742-6.12-1.001-9.254-.767-3.396.256-6.672-.075-9.735-.981-7.071-2.088-14.503-2.284-21.493-.57-5.494 1.347-15.818 5.156-23.244 15.541-9.376 13.111-6.076 34.327-4.678 39.293.562 1.994 1.728 3.699 3.258 4.953 1.361 13.575 6.54 25.514 14.113 34.051l-6.575 2.55c-9.327 3.617-15.958 12.021-17.307 21.934-.004.034-.009.068-.013.102l-2.113 17.307h-10.684c-1.378 0-2.5-1.121-2.5-2.5v-146.666c0-1.379 1.122-2.5 2.5-2.5h130c1.378 0 2.5 1.121 2.5 2.5v45.396c0 4.143 3.358 7.5 7.5 7.5s7.5-3.357 7.5-7.5v-45.396c0-9.649-7.851-17.5-17.5-17.5zm-92.059 92.492c9.736-.976 24.383-3.87 34.164-12.356 5.872 6.421 11.346 10.085 20.12 11.766-2.728 17.882-14.061 31.513-27.188 31.513-12.97 0-24.209-13.338-27.096-30.923zm-1.741-37.29c4.613-6.451 11.136-8.845 14.615-9.697 2.003-.491 4.03-.737 6.07-.737 2.521 0 5.063.376 7.601 1.125 4.809 1.422 9.889 1.945 15.103 1.555 1.549-.119 3.077.008 4.543.371 3.251.824 7.052 3.691 8.403 5.638 4.326 5.148 4.642 16.832 3.96 23.992-7.552-1.069-10.567-3.831-16.818-11.532-1.872-2.305-4.634-3.605-7.613-3.516-2.954.07-5.651 1.474-7.4 3.85-5.324 7.229-19.357 10.925-31.632 11.61-.84-6.424-.835-17.06 3.168-22.659zm-8.519 96.032c.626-4.485 3.635-8.286 7.86-9.925l15.326-5.944c4.435 1.974 9.201 3.05 14.169 3.05 4.97 0 9.738-1.076 14.173-3.048l15.323 5.943c4.225 1.638 7.232 5.438 7.859 9.924l1.884 15.432h-78.479z"/><path d="m282.288 166h74c4.142 0 7.5-3.357 7.5-7.5s-3.358-7.5-7.5-7.5h-74c-4.142 0-7.5 3.357-7.5 7.5s3.358 7.5 7.5 7.5z"/><path d="m282.288 201h111c4.142 0 7.5-3.357 7.5-7.5s-3.358-7.5-7.5-7.5h-111c-4.142 0-7.5 3.357-7.5 7.5s3.358 7.5 7.5 7.5z"/><path d="m222 257.5c0 4.143 3.358 7.5 7.5 7.5h163c4.142 0 7.5-3.357 7.5-7.5s-3.358-7.5-7.5-7.5h-163c-4.142 0-7.5 3.357-7.5 7.5z"/><path d="m119.5 250c-4.142 0-7.5 3.357-7.5 7.5s3.358 7.5 7.5 7.5h75c4.142 0 7.5-3.357 7.5-7.5s-3.358-7.5-7.5-7.5z"/><path d="m392.5 285h-79.5c-4.142 0-7.5 3.357-7.5 7.5s3.358 7.5 7.5 7.5h79.5c4.142 0 7.5-3.357 7.5-7.5s-3.358-7.5-7.5-7.5z"/><path d="m285.5 292.5c0-4.143-3.358-7.5-7.5-7.5h-158.5c-4.142 0-7.5 3.357-7.5 7.5s3.358 7.5 7.5 7.5h158.5c4.142 0 7.5-3.357 7.5-7.5z"/><path d="m130.5 367h-11c-4.142 0-7.5 3.357-7.5 7.5s3.358 7.5 7.5 7.5h11c4.142 0 7.5-3.357 7.5-7.5s-3.358-7.5-7.5-7.5z"/><path d="m294.5 367h-130c-4.142 0-7.5 3.357-7.5 7.5s3.358 7.5 7.5 7.5h130c4.142 0 7.5-3.357 7.5-7.5s-3.358-7.5-7.5-7.5z"/><path d="m130.5 402h-11c-4.142 0-7.5 3.357-7.5 7.5s3.358 7.5 7.5 7.5h11c4.142 0 7.5-3.357 7.5-7.5s-3.358-7.5-7.5-7.5z"/><path d="m294.5 402h-130c-4.142 0-7.5 3.357-7.5 7.5s3.358 7.5 7.5 7.5h130c4.142 0 7.5-3.357 7.5-7.5s-3.358-7.5-7.5-7.5z"/><path d="m130.5 437h-11c-4.142 0-7.5 3.357-7.5 7.5s3.358 7.5 7.5 7.5h11c4.142 0 7.5-3.357 7.5-7.5s-3.358-7.5-7.5-7.5z"/><path d="m302 444.5c0-4.143-3.358-7.5-7.5-7.5h-130c-4.142 0-7.5 3.357-7.5 7.5s3.358 7.5 7.5 7.5h130c4.142 0 7.5-3.357 7.5-7.5z"/><path d="m171 347h72c4.142 0 7.5-3.357 7.5-7.5s-3.358-7.5-7.5-7.5h-72c-4.142 0-7.5 3.357-7.5 7.5s3.358 7.5 7.5 7.5z"/></g></g></g></svg>