<svg id="Capa_1" enable-background="new 0 0 512 512" height="512" viewBox="0 0 512 512" width="512" xmlns="http://www.w3.org/2000/svg"><g><g><path d="m459.895 145.66-15.149.915-8.666-12.602 9.857-16.505c2.517-6.095 7.242-13.107 13.484-12.261 1.183.16 2.365.474 3.521.951 7.252 2.993 10.703 11.299 7.709 18.55l-2.093 5.061z" fill="#5f6c75"/><path d="m468.562 129.77-6.22 15.04-14.532-.789-11.728-10.051 8.31-20.1c2.52-6.09 8.79-9.51 15.03-8.66l-5.429 13.137c-1.055 2.553.16 5.478 2.714 6.532z" fill="#4e5a61"/><path d="m386.294 7.5c13.247 0 23.989 10.733 24 23.98l.367 449.029c0 1.36-.113 2.694-.331 3.992-1.902 11.35-12.068 16.386-23.966 16.386l-340.085-3.845c-13.259 0-24.008-10.749-24.008-24.008l.008-440.162c0-11.602 3.37-22.646 14.31-24.885 1.562-.319 3.181-.487 4.838-.487h263.914z" fill="#f5fcff"/><path d="m410.322 484.5c-1.89 11.35-11.77 20-23.67 20h-345.22c-13.26 0-24.01-10.75-24.01-24.01v-448.98c0-11.89 8.65-21.77 20-23.67v466.66c0 5.52 4.47 10 10 10z" fill="#e6f7fe"/><path d="m298.444 98.234h-169.904c-5.523 0-10-4.477-10-10v-15.984c0-5.523 4.477-10 10-10l6.602-.004h167.792c5.523 0 10 4.477 10 10v10.444l-4.489 5.544c-.001 5.523-4.478 10-10.001 10z" fill="#94d4a2"/><path d="m312.932 82.69v10c0 5.53-4.48 10-10 10h-177.79c-5.52 0-10-4.47-10-10v-20.44c0-5.53 4.48-10 10-10h10v10.44c0 5.53 4.48 10 10 10z" fill="#7fcb8f"/><path d="m128.54 421.5c0 1.933-.196 3.82-.569 5.643-2.611 12.759-13.9 16.413-27.431 16.413-15.464 0-24.644-7.536-24.644-23 0-13.015 5.524-23.011 17.555-26.15 2.264-.591 4.64-.905 7.089-.905 15.464-.001 28 12.535 28 27.999z" fill="#d5717f"/><path d="m127.632 428.59c-3.14 12.03-14.08 20.91-27.09 20.91-15.47 0-28-12.54-28-28 0-13.01 8.88-23.95 20.91-27.09-.6 2.27-.91 4.64-.91 7.09 0 15.46 12.53 28 28 28 2.45 0 4.82-.32 7.09-.91z" fill="#cd5668"/><g fill="#bed9fd"><path d="m351.251 400.572c-.676.582-1.394 1.054-2.135 1.421l-13.858-5.747c-.261-.775-.433-1.605-.501-2.484l-.677-8.771-3.28-29.995h30.645l19.807 20.824-23.333 19.013z"/><path d="m381.252 375.82-13.22 10.77-35.37-14.6-1.86-16.99h30.64z"/><path d="m416.473 281.888-44.397-18.325 51.231-124.045c2.108-5.105 7.954-7.535 13.059-5.427l25.911 10.692c5.105 2.108 7.535 7.954 5.427 13.059z"/></g><path d="m429.092 251.32-12.62 30.57-44.4-18.33 12.62-30.56z" fill="#9ec8fc"/><path d="m381.252 375.82-13.22 10.77-35.37-14.6-1.86-16.99h30.64z" fill="#9ec8fc"/><path d="m362.51 258.388-34.864 84.488c-2.107 5.105.324 10.951 5.428 13.058l45.904 18.948c5.105 2.107 10.953-.323 13.059-5.429l34.864-84.488c2.106-5.105-.324-10.951-5.428-13.058l-45.904-18.948c-5.105-2.107-10.953.324-13.059 5.429z" fill="#5f6c75"/><path d="m380.182 254.86-42.49 102.98-4.62-1.91c-5.1-2.1-7.53-7.95-5.43-13.05l34.87-84.49c2.1-5.11 7.95-7.54 13.06-5.43z" fill="#4e5a61"/></g><g><g><path d="m304.578 497h-263.151c-9.103 0-16.508-7.405-16.508-16.508v-107.985c0-4.143-3.358-7.5-7.5-7.5s-7.5 3.357-7.5 7.5v107.985c0 17.373 14.135 31.508 31.508 31.508h263.151c4.143 0 7.5-3.357 7.5-7.5s-3.357-7.5-7.5-7.5z"/><path d="m488.657 147.553-16.518-6.813 5.446-13.169c2.212-5.359 2.206-11.259-.019-16.612-2.226-5.354-6.401-9.521-11.762-11.733-11.061-4.563-23.776.718-28.342 11.776l-6.154 14.886c-1.859.134-3.704.552-5.475 1.288-3.311 1.376-6.052 3.685-7.957 6.632l-.083-102.333c-.013-17.356-14.144-31.475-31.499-31.475h-344.867c-17.373 0-31.508 14.135-31.508 31.508v305.977c0 4.143 3.358 7.5 7.5 7.5s7.5-3.357 7.5-7.5v-305.977c0-9.103 7.406-16.508 16.508-16.508h344.867c9.091 0 16.492 7.396 16.5 16.486l.112 137.782-31.152 75.427c-2.276 0-4.553.449-6.718 1.348-4.317 1.795-7.677 5.164-9.46 9.485l.001-.001-34.863 84.488c-2.586 6.265-1.24 13.179 2.874 18.02l3.023 27.651.668 8.653c.306 3.964 1.918 7.586 4.474 10.403l-2.928 7.094c-1.58 3.829.242 8.214 4.071 9.794 2.742 1.047 7.52.559 9.794-4.071l2.927-7.093c3.804-.19 7.508-1.614 10.526-4.21 0 0 0 0 0-.001l6.59-5.673 21.484-17.505c1.798-.149 3.581-.567 5.295-1.279 4.316-1.795 7.676-5.163 9.459-9.484l4.082-9.891.109 118.086c0 9.093-7.406 16.49-16.509 16.49h-47.074c-4.143 0-7.5 3.357-7.5 7.5s3.357 7.5 7.5 7.5h47.074c17.374 0 31.509-14.126 31.509-31.497l-.142-154.35 15.815-38.327c2.777-6.729 1.029-14.213-3.825-19.065l16.507-39.967c1.582-3.829-.24-8.214-4.068-9.795-3.827-1.58-8.214.241-9.795 4.068l-15.999 38.737-30.532-12.603 31.189-75.517c.007-.015.013-.031.019-.046l12.909-31.257c.688-.394-.325-1.49 3.266-1.356l25.909 10.692c1.274.526 1.884 1.991 1.358 3.264l-14.543 35.212c-1.582 3.829.24 8.214 4.068 9.795 3.83 1.585 8.214-.24 9.795-4.068 3.085-7.907 12.893-30.332 15.314-37.605l7.528 3.105c3.417 1.41 5.049 5.339 3.639 8.756l-26.453 64.071c-1.58 3.829.242 8.214 4.07 9.795 2.742 1.046 7.52.56 9.795-4.07l26.453-64.072c4.566-11.062-.718-23.778-11.782-28.346zm-142.299 247.335c-1.014.873-2.055.636-2.586.416-.53-.219-1.435-.785-1.538-2.118-.286-5.654-1.935-20.506-2.604-26.431l27.13 11.198c.001 0-19.578 16.229-20.402 16.935zm73.611-112.784-34.863 84.487c-.688.394.322 1.49-3.262 1.359l-45.907-18.949c-1.274-.525-1.883-1.991-1.357-3.265l34.863-84.488c.306-.322.636-1.861 3.266-1.357l45.903 18.948c1.274.527 1.882 1.992 1.357 3.265zm40.112-169.014c3.417 1.411 5.05 5.339 3.641 8.753l-5.448 13.176-12.395-5.115 5.448-13.175c1.41-3.416 5.337-5.05 8.754-3.639z"/><path d="m125.146 69.745h109.51c4.142 0 7.5-3.357 7.5-7.5s-3.358-7.5-7.5-7.5h-109.51c-9.649 0-17.5 7.851-17.5 17.5v20.448c0 9.649 7.851 17.5 17.5 17.5h177.787c9.649 0 17.5-7.851 17.5-17.5v-20.448c0-9.649-7.851-17.5-17.5-17.5h-33.253c-4.143 0-7.5 3.357-7.5 7.5s3.357 7.5 7.5 7.5h33.254c1.379 0 2.5 1.121 2.5 2.5v20.448c0 1.379-1.121 2.5-2.5 2.5h-177.788c-1.378 0-2.5-1.121-2.5-2.5v-20.448c0-1.379 1.122-2.5 2.5-2.5z"/><path d="m100.526 293.289c-10.639.065-14.833-.404-23.881-6.323-3.466-2.268-8.114-1.296-10.382 2.171-2.268 3.466-1.296 8.114 2.171 10.382 9.606 6.284 16.167 8.155 24.642 8.631v10.628c0 4.143 3.358 7.5 7.5 7.5s7.5-3.357 7.5-7.5v-11.223c16.856-3.302 26.701-17.198 28.883-30.18 2.805-16.686-5.923-31.193-22.236-36.96-10.153-3.589-21.412-7.948-27.936-13.064-3-2.354-4.276-6.933-3.331-11.952.892-4.732 4.128-10.478 10.534-12.407 13.846-4.174 22.828 3.442 23.327 3.878 3.045 2.761 7.755 2.554 10.548-.474 2.808-3.045 2.616-7.79-.428-10.598-.427-.395-7.608-6.863-19.361-8.624v-9.757c0-4.143-3.358-7.5-7.5-7.5s-7.5 3.357-7.5 7.5v10.333c-1.118.246-2.252.529-3.412.878-10.742 3.236-18.77 12.43-20.949 23.993-1.987 10.543 1.39 20.709 8.814 26.532 6.635 5.203 15.962 9.666 32.194 15.404 13.892 4.911 13.036 16.803 12.443 20.331-1.479 8.802-8.882 18.316-21.64 18.401z"/><path d="m361.444 208.097c0-4.143-3.357-7.5-7.5-7.5h-91c-4.143 0-7.5 3.357-7.5 7.5s3.357 7.5 7.5 7.5h91c4.143 0 7.5-3.358 7.5-7.5z"/><path d="m176.945 215.597h51c4.142 0 7.5-3.357 7.5-7.5s-3.358-7.5-7.5-7.5h-51c-4.142 0-7.5 3.357-7.5 7.5s3.358 7.5 7.5 7.5z"/><path d="m176.945 255.597h157c4.143 0 7.5-3.357 7.5-7.5s-3.357-7.5-7.5-7.5h-157c-4.142 0-7.5 3.357-7.5 7.5s3.358 7.5 7.5 7.5z"/><path d="m313.944 280.597h-137c-4.142 0-7.5 3.357-7.5 7.5s3.358 7.5 7.5 7.5h137c4.143 0 7.5-3.357 7.5-7.5s-3.357-7.5-7.5-7.5z"/><path d="m283.944 320.597h-107c-4.142 0-7.5 3.357-7.5 7.5s3.358 7.5 7.5 7.5h107c4.143 0 7.5-3.357 7.5-7.5s-3.357-7.5-7.5-7.5z"/><path d="m100.54 386c-19.575 0-35.5 15.925-35.5 35.5s15.925 35.5 35.5 35.5 35.5-15.925 35.5-35.5-15.925-35.5-35.5-35.5zm0 56c-11.304 0-20.5-9.196-20.5-20.5s9.196-20.5 20.5-20.5 20.5 9.196 20.5 20.5-9.196 20.5-20.5 20.5z"/><path d="m278.758 427.595-2.956-13.958c-1.755-8.288-8.695-14.076-16.877-14.076-8.362 0-15.513 6.195-17.002 14.73l-4.34 24.87c-.344 1.97-1.798 3.399-3.458 3.399-1.697 0-3.182-1.512-3.479-3.528l-4.234-40.335c-.91-8.668-8.12-15.146-16.813-15.146-.065 0-.132.001-.197.001-8.117.092-15.039 5.957-16.46 13.948l-5.433 30.536c-.432 1.494-1.792 2.524-3.361 2.524h-21.416c-4.142 0-7.5 3.357-7.5 7.5s3.358 7.5 7.5 7.5h21.416c8.584 0 15.981-5.829 17.987-14.176.147-.592 5.469-30.744 5.575-31.258.161-.902.943-1.565 1.861-1.575.007-.001.015-.001.022-.001.982 0 1.797.732 1.9 1.713.006.032 4.229 40.337 4.27 40.653 1.251 9.488 9.145 16.644 18.361 16.644 8.966 0 16.635-6.653 18.234-15.821l4.34-24.87c.23-1.316 1.187-2.309 2.226-2.309 1.009 0 1.935.918 2.203 2.184l2.956 13.958c1.853 8.748 9.17 14.858 17.795 14.858h21.746c4.143 0 7.5-3.357 7.5-7.5s-3.357-7.5-7.5-7.5h-21.746c-1.444.001-2.756-1.247-3.12-2.965z"/><path d="m353.944 160.597h-177c-4.142 0-7.5 3.357-7.5 7.5s3.358 7.5 7.5 7.5h177c4.143 0 7.5-3.357 7.5-7.5s-3.357-7.5-7.5-7.5z"/></g></g></g></svg>