<svg id="Capa_1" enable-background="new 0 0 512 512" height="512" viewBox="0 0 512 512" width="512" xmlns="http://www.w3.org/2000/svg"><g><g><path d="m428.254 7.5c13.247 0 23.989 10.733 24 23.98l.367 449.029c0 1.36-.113 2.694-.331 3.992-1.902 11.349-13.222 16.456-20.095 12.07l-343.783 3.543c-18.285 4.385-24.008-10.749-24.008-24.008l-.51-444.766c0-11.894 4.134-21.599 15.485-23.507 1.303-.219 2.642-.333 4.008-.333h263.914z" fill="#f5fcff"/><path d="m452.28 484.5c-1.89 11.35-11.77 20-23.67 20h-345.22c-13.26 0-24.01-10.75-24.01-24.01v-448.98c0-11.89 8.65-21.77 20-23.67v466.66c0 5.5 4.5 10 10 10z" fill="#e6f7fe"/><path d="m333 115.255c0 18.181-6.301 34.891-16.84 48.064-14.11 17.638-33.199 23.085-57.543 23.085-42.526 0-74.383-29.985-74.383-72.511 0-23.552 5.34-43.273 22-57.397 13.421-11.378 30.792-18.241 49.766-18.241 42.526 0 77 34.474 77 77z" fill="#bed9fd"/><path d="m318.69 159.97c-13.96 19.55-36.84 32.29-62.69 32.29-42.53 0-77-34.48-77-77 0-25.86 12.75-48.75 32.3-62.7-9 12.6-14.3 28.04-14.3 44.7 0 42.52 34.47 77 77 77 16.66 0 32.09-5.29 44.69-14.29z" fill="#9ec8fc"/><path d="m386.327 459.551-7.88-1.487c-4.09 11.877-7.334 13.713-17.938 6.979l-1.977-2.043c-4.196-2.664-6.525.414-11.404 1.362l-1.191-1.872c-12.331 2.396-21.466-2.088-20.936-14.638l1.532-3.574c.21-4.966-2.117-7.173-5.378-10.925l2.144-.309c-8.24-9.481-11.185-21.417-.051-27.234l.391.742c2.203-1.151 3.748-5.37 5.341-7.22s2.836-4 3.645-6.35c4.09-11.877 18.201-16.815 28.805-10.081 4.196 2.664 9.252 3.621 14.131 2.673 12.331-2.396 23.663 7.355 23.133 19.906-.21 4.966 1.49 9.823 4.751 13.574 8.24 9.481 5.462 24.171-5.672 29.987-2.025 1.058-3.829 2.454-5.344 4.11-1.78 1.945-5.228 3.861-6.102 6.4z" fill="#d5717f"/><path d="m392.43 453.15c-.13.14-.26.29-.39.44-1.6 1.85-2.84 4-3.65 6.35-4.09 11.88-18.2 16.82-28.8 10.08-3.14-1.99-6.76-3.03-10.43-3.03-1.23 0-2.47.12-3.7.36-1.27.25-2.52.36-3.76.36-10.78 0-19.86-9.01-19.38-20.27.01-.27.02-.55.02-.82 0-4.67-1.69-9.21-4.77-12.75-3.23-3.72-4.77-8.25-4.77-12.72 0-6.93 3.68-13.73 10.44-17.27 2.2-1.15 4.15-2.7 5.74-4.55.48-.55.92-1.13 1.33-1.74-.18 1.73-.27 3.48-.27 5.26 0 28.43 23.04 51.47 51.47 51.47 3.75 0 7.4-.4 10.92-1.17z" fill="#cd5668"/><path d="m271.004 147.892v-15.637c0-1.105.895-2 2-2h15.629c2.792 0 5.043-2.287 4.999-5.078l-.314-20c-.043-2.731-2.269-4.922-4.999-4.922h-15.315c-1.105 0-2-.895-2-2v-15.354c0-2.734-2.196-4.961-4.929-5l-12.075-.17-6.128.737c-2.789-.039-5.071 2.21-5.071 5l.858 14.788c0 1.105-3.551 2-4.656 2h-15.353c-2.734 0-4.961 2.196-4.999 4.929l-.171 12.076 1.755 6.336c-.039 2.789 2.21 5.071 5 5.071l17.979-3.539c1.105 0 2 .895 2 2l-3.642 16.745c0 2.734 2.196 4.961 4.929 5l7.5 3.851 11.933.169c2.788.037 5.07-2.212 5.07-5.002z" fill="#d5717f"/><g fill="#cd5668"><path d="m254 77.73v20.53c0 1.1-.89 2-2 2h-13c1.11 0 2-.9 2-2v-15.64c0-2.79 2.29-5.04 5.07-5z"/><path d="m254 119.26v33.46l-8.07-.11c-2.73-.04-4.93-2.27-4.93-5v-15.35c0-1.11-.89-2-2-2h-15.63c-2.79 0-5.04-2.29-5-5.08l.11-7.92h33.52c1.11 0 2 .89 2 2z"/></g></g><g><g><path d="m193.6 497h-110.213c-9.103 0-16.508-7.405-16.508-16.508v-317.516c0-4.143-3.357-7.5-7.5-7.5s-7.5 3.357-7.5 7.5v317.517c0 17.373 14.135 31.508 31.508 31.508h110.213c4.143 0 7.5-3.357 7.5-7.5s-3.358-7.501-7.5-7.501z"/><path d="m460.032 372.49c-.004-4.141-3.36-7.494-7.5-7.494-.002 0-.004 0-.006 0-4.143.003-7.498 3.364-7.494 7.506l.089 108.008c0 9.093-7.405 16.49-16.508 16.49h-200.013c-4.143 0-7.5 3.357-7.5 7.5s3.357 7.5 7.5 7.5h200.014c17.373 0 31.508-14.126 31.508-31.496z"/><path d="m59.379 135.476c4.143 0 7.5-3.357 7.5-7.5v-96.468c0-9.103 7.405-16.508 16.508-16.508h344.867c9.091 0 16.492 7.396 16.5 16.486l.25 306.016c.003 4.141 3.36 7.494 7.5 7.494h.006c4.143-.003 7.497-3.364 7.494-7.506l-.25-306.016c-.014-17.355-14.145-31.474-31.5-31.474h-344.867c-17.373 0-31.508 14.135-31.508 31.508v96.468c0 4.142 3.357 7.5 7.5 7.5z"/><path d="m324.175 468.687c6.289 5.412 14.568 7.608 22.712 6.025 3.01-.585 6.093-.002 8.68 1.642 4.392 2.788 9.373 4.213 14.408 4.213 2.997 0 6.014-.505 8.936-1.527 7.831-2.74 13.872-8.812 16.573-16.656 0 0 0 0 .001-.001.997-2.897 3.044-5.275 5.762-6.695 7.354-3.842 12.456-10.721 13.998-18.872 1.542-8.152-.695-16.42-6.139-22.684-2.011-2.313-3.047-5.273-2.918-8.337.35-8.29-3.057-16.148-9.347-21.56-6.289-5.412-14.569-7.608-22.711-6.024-3.009.586-6.091.001-8.68-1.642-7.002-4.447-15.51-5.427-23.344-2.687-7.831 2.74-13.872 8.812-16.574 16.657-.998 2.897-3.044 5.275-5.762 6.695-7.354 3.842-12.456 10.721-13.998 18.873s.695 16.42 6.139 22.683c2.011 2.313 3.047 5.273 2.918 8.337-.35 8.29 3.057 16.148 9.346 21.56zm-3.663-49.791c.683-3.614 2.944-6.663 6.203-8.366 6.132-3.202 10.748-8.567 13-15.106 1.198-3.478 3.876-6.168 7.347-7.383 3.473-1.216 7.243-.779 10.348 1.19 5.838 3.706 12.79 5.022 19.582 3.704 3.61-.703 7.278.271 10.066 2.67s4.299 5.883 4.144 9.557c-.292 6.91 2.046 13.591 6.583 18.811 2.413 2.776 3.404 6.44 2.721 10.055-.684 3.613-2.944 6.662-6.205 8.365-6.131 3.204-10.747 8.568-12.999 15.106-1.197 3.478-3.875 6.169-7.346 7.383-3.473 1.219-7.243.781-10.347-1.189-4.359-2.769-9.341-4.204-14.411-4.204-1.721 0-3.452.166-5.172.5-3.606.699-7.279-.271-10.066-2.671-2.788-2.398-4.299-5.882-4.144-9.557.292-6.91-2.046-13.591-6.584-18.811-2.413-2.776-3.404-6.441-2.72-10.054z"/><path d="m245.828 160.108 19.998.282c.062.001.123.002.185.002 3.303 0 6.41-1.273 8.769-3.598 2.401-2.368 3.725-5.529 3.725-8.902v-10.138h10.129c3.376 0 6.54-1.325 8.908-3.73 2.368-2.406 3.643-5.59 3.59-8.965l-.313-20.001c-.106-6.784-5.713-12.304-12.498-12.304h-9.815v-9.854c0-6.797-5.529-12.403-12.324-12.498l-19.998-.282c-3.39-.045-6.551 1.229-8.953 3.596-2.401 2.368-3.725 5.529-3.725 8.902v10.137h-9.854c-6.797 0-12.403 5.529-12.498 12.323l-.283 20.001c-.048 3.372 1.23 6.552 3.598 8.952 2.368 2.401 5.529 3.724 8.901 3.724h10.137v9.855c-.003 6.797 5.526 12.404 12.321 12.498zm-19.926-37.353.213-15h14.889c4.143 0 7.5-3.357 7.5-7.5v-15.101l15 .212v14.889c0 4.143 3.357 7.5 7.5 7.5h14.854l.235 15h-15.089c-4.143 0-7.5 3.357-7.5 7.5v15.102l-15-.212v-14.89c0-4.143-3.357-7.5-7.5-7.5z"/><path d="m313.212 63.182c2.779-3.071 2.543-7.814-.527-10.594-15.557-14.079-35.688-21.833-56.685-21.833-46.594 0-84.5 37.906-84.5 84.5s37.906 84.5 84.5 84.5 84.5-37.906 84.5-84.5c0-10.733-1.987-21.193-5.905-31.091-1.524-3.852-5.884-5.737-9.734-4.213-3.852 1.525-5.737 5.883-4.213 9.734 3.22 8.132 4.853 16.735 4.853 25.569 0 38.322-31.178 69.5-69.5 69.5s-69.5-31.178-69.5-69.5 31.178-69.5 69.5-69.5c17.27 0 33.826 6.376 46.618 17.954 3.07 2.779 7.814 2.543 10.593-.526z"/><path d="m239.931 468.561h21.746c4.143 0 7.5-3.357 7.5-7.5s-3.357-7.5-7.5-7.5h-21.746c-1.444 0-2.757-1.247-3.121-2.966l-2.956-13.958c-1.755-8.288-8.694-14.076-16.876-14.076-8.362 0-15.513 6.194-17.004 14.73l-4.34 24.87c-.344 1.97-1.798 3.399-3.458 3.399-1.696 0-3.181-1.512-3.479-3.528l-4.234-40.334c-.909-8.669-8.118-15.147-16.812-15.147-.065 0-.132.001-.197.001-8.116.092-15.039 5.957-16.46 13.948l-5.434 30.536c-.432 1.494-1.792 2.524-3.361 2.524h-21.416c-4.143 0-7.5 3.357-7.5 7.5s3.357 7.5 7.5 7.5h21.416c8.584 0 15.98-5.829 17.987-14.176.035-.146.065-.292.092-.439l5.483-30.818c.161-.902.943-1.565 1.86-1.575.008-.001.016-.001.022-.001.982 0 1.798.732 1.9 1.713l4.247 40.456c.007.065.015.132.023.197 1.251 9.488 9.145 16.644 18.361 16.644 8.967 0 16.635-6.654 18.234-15.821l4.34-24.869c.229-1.316 1.187-2.31 2.227-2.31 1.008 0 1.934.918 2.202 2.184l2.956 13.958c1.855 8.747 9.173 14.858 17.798 14.858z"/><path d="m160.028 213.653c-3.498-2.215-8.134-1.175-10.348 2.326l-15.01 23.712-7.994-10.156c-2.563-3.255-7.279-3.816-10.532-1.255-3.255 2.563-3.816 7.277-1.255 10.532l14.554 18.489c1.427 1.812 3.602 2.861 5.893 2.861.128 0 .257-.003.386-.01 2.431-.125 4.65-1.422 5.952-3.479l20.681-32.673c2.215-3.498 1.173-8.132-2.327-10.347z"/><path d="m391.217 214.826h-197.617c-4.143 0-7.5 3.357-7.5 7.5s3.357 7.5 7.5 7.5h197.617c4.143 0 7.5-3.357 7.5-7.5s-3.358-7.5-7.5-7.5z"/><path d="m193.6 257.826h92.762c4.143 0 7.5-3.357 7.5-7.5s-3.357-7.5-7.5-7.5h-92.762c-4.143 0-7.5 3.357-7.5 7.5s3.357 7.5 7.5 7.5z"/><path d="m160.028 274.326c-3.498-2.215-8.134-1.175-10.348 2.326l-15.01 23.713-7.994-10.156c-2.563-3.255-7.279-3.816-10.532-1.255-3.255 2.563-3.816 7.277-1.255 10.532l14.554 18.489c1.427 1.812 3.602 2.861 5.893 2.861.128 0 .257-.003.386-.01 2.431-.125 4.65-1.422 5.952-3.479l20.681-32.674c2.215-3.499 1.173-8.132-2.327-10.347z"/><path d="m391.217 275.5h-46.791c-4.143 0-7.5 3.357-7.5 7.5s3.357 7.5 7.5 7.5h46.791c4.143 0 7.5-3.357 7.5-7.5s-3.358-7.5-7.5-7.5z"/><path d="m316.926 283c0-4.143-3.357-7.5-7.5-7.5h-115.826c-4.143 0-7.5 3.357-7.5 7.5s3.357 7.5 7.5 7.5h115.826c4.142 0 7.5-3.357 7.5-7.5z"/><path d="m193.6 303.5c-4.143 0-7.5 3.357-7.5 7.5s3.357 7.5 7.5 7.5h92.762c4.143 0 7.5-3.357 7.5-7.5s-3.357-7.5-7.5-7.5z"/><path d="m160.028 335c-3.498-2.215-8.134-1.175-10.348 2.326l-15.01 23.712-7.994-10.156c-2.564-3.256-7.28-3.816-10.532-1.255-3.255 2.563-3.816 7.277-1.255 10.532l14.554 18.489c1.427 1.812 3.602 2.861 5.893 2.861.128 0 .257-.003.386-.01 2.431-.125 4.65-1.422 5.952-3.479l20.681-32.673c2.215-3.498 1.173-8.132-2.327-10.347z"/><path d="m398.717 343.674c0-4.143-3.357-7.5-7.5-7.5h-197.617c-4.143 0-7.5 3.357-7.5 7.5s3.357 7.5 7.5 7.5h197.617c4.142 0 7.5-3.358 7.5-7.5z"/><path d="m193.6 364.174c-4.143 0-7.5 3.357-7.5 7.5s3.357 7.5 7.5 7.5h92.762c4.143 0 7.5-3.357 7.5-7.5s-3.357-7.5-7.5-7.5z"/></g></g></g></svg>