<svg id="Capa_1" enable-background="new 0 0 511.997 511.997" height="512" viewBox="0 0 511.997 511.997" width="512" xmlns="http://www.w3.org/2000/svg"><g><g><path d="m318.149 413.471 27.004-68.957c.877-2.239.917-4.718.115-6.984l-76.842-217.029 21.762 318.33z" fill="#9a6a53"/><path d="m282.483 203.319-42.423 60.277-51.047 33.193 17.175-46.64-3.695-32.49 33.255-40.872 37.205-29.578z" fill="#f5fcff"/><path d="m312.103 438.831c-2.47 6.19-3.329 8.488-4.969 9.568l-51.356 43.793c-7.44 4.87-12.6 3.849-20.03-1.021l-26.685-10.281 37.205-60.804 65.835-42.236 8.44 49.73c.45 1.919-5.95 5.041-8.44 11.251z" fill="#f5fcff"/><path d="m302.073 318.749-55.805 74.89-73.855 54.761c-1.765-1.836 1.04-11.519 0-13.909-2.87-6.51 2.59-14.39 3.04-16.34v-41.76l47.485-63.889 69.125-52.721z" fill="#f5fcff"/><path d="m251.783 312.227 7.99-10.508-7.791 1.232z" fill="#e6f7fe"/><path d="m319.513 441.159c-2.47 6.19-6.94 9.44-8.58 10.52l-55.07 49.17c-7.44 4.87-17.02 4.87-24.45 0l-22.35-19.96-11.215-27.336c-.88-.58-23.865-3.514-25.434-5.154-1.77-1.84-3.31-4.11-4.35-6.5-2.87-6.51-1.78-12.37-1.33-14.32l8.72-51.19 13.56-43.006v-36.594l13.48-79.13 13.737-46.659 2.812-50.501h24.34l-53.08 311.64.71.47 34.04 30.38 15.257 13.624c1.898 1.695 4.767 1.694 6.664-.003l71.099-63.601 2.47 14.57c.45 1.92 1.46 7.37-1.03 13.58z" fill="#e6f7fe"/><path d="m312.103 377.849-103.04 103.04-11.556-23.251c-.88-.58-23.524-7.6-25.094-9.239l129.66-129.65z" fill="#ab7b64"/><path d="m292.063 259.779-116.61 116.61 13.56-43.006v-36.594l93.47-93.47z" fill="#ab7b64"/><path d="m272.953 147.209-70.46 70.45 15.716-53.808.834-43.352 25.571-13.967 23.809 13.967z" fill="#ab7b64"/><g fill="#9a6a53"><path d="m243.383 120.499-11.55 67.83-29.34 29.33 16.55-97.16 12.525-6.841z"/><path d="m226.063 463.889-17 17-32.72-29.21c-.88-.58-2.36-1.64-3.93-3.28l18.236-18.235z"/><path d="m253.143 298.699c-2.16-5.61-7.6-9.58-13.98-9.58h-24.502l3.692-21.67-29.34 29.34-13.56 79.6 29.34-29.34 4.333-25.434c.246-1.442 1.495-2.496 2.957-2.496h20.64l5.897-1.998c4.15 0 3.493-1.902 6.213-4.621 2.71-2.71 6.95-5.026 6.95-9.166 0-1.91 2.02-2.955 1.36-4.635z"/></g><path d="m254.163 304.119c0 4.14-1.68 7.89-4.39 10.6-2.72 2.72-6.46 4.4-10.61 4.4h-6.44l20.42-20.42c.66 1.68 1.02 3.51 1.02 5.42z" fill="#e6f7fe"/><path d="m249.252 302.915-60.239.34c-8.284 0-13.56-3.852-13.56-12.136 0-8.284 3.514-15.001 11.798-15.001h61.915c8.284 0 15 6.716 15 15 0 8.284-6.63 11.797-14.914 11.797z" fill="#ffe07d"/><path d="m264.163 291.119c0 4.14-1.68 7.89-4.39 10.6-2.72 2.72-6.46 4.4-10.61 4.4h-61.91c-8.29 0-15-6.72-15-15 0-4.14 1.68-7.9 4.39-10.61s6.47-4.39 10.61-4.39c0 8.28 6.71 15 15 15z" fill="#ffd064"/><path d="m303.753 18.779-39.19 55.881-51.62 34.929-1.22-31.525-20-6.475 25.529-42.546 38.561-21.544h27.9c1.97 0 3.89.58 5.52 1.66z" fill="#ab7b64"/><path d="m314.913 37.249-35.321 63.25-21.489 20h-39.06l-6.1-10.91 90.81-90.81h.01l7.94 5.25c4.36 2.89 5.76 8.65 3.21 13.22z" fill="#f5fcff"/><path d="m255.813 7.499-44.09 44.09-18.982 15.241-17.288-31.66c-2.58-4.6-1.44-5.991 2.99-8.851l12.478-12.473 7.342-4.747c1.85-.54 3.58-1.05 5.43-1.6z" fill="#f5fcff"/><path d="m232.943 89.589-5.478 18.092-14.522 1.908-21.22-38 5.784-20h14.216z" fill="#9a6a53"/><path d="m279.593 100.499-11.17 20h-49.38l-6.1-10.91 20-20 4.382 7.838c1.061 1.897 3.064 3.072 5.237 3.072z" fill="#e6f7fe"/><path d="m211.723 51.589-20 20-19.34-34.62c-2.58-4.6-1.13-10.41 3.3-13.27l15.24-9.85z" fill="#e6f7fe"/></g><g><path d="m352.339 335.026-10.802-30.508c-1.383-3.904-5.669-5.949-9.573-4.566-3.905 1.382-5.949 5.668-4.567 9.573l10.802 30.506c.2.568.19 1.188-.028 1.748l-17.149 43.79-30.659-180.639 25.322 71.517c1.09 3.077 3.982 4.999 7.07 4.999.83 0 1.676-.139 2.503-.432 3.905-1.382 5.949-5.668 4.567-9.573l-53.197-150.246 44.831-80.293c4.437-7.944 1.968-18.102-5.619-23.124l-22.462-14.869c-2.873-1.903-6.213-2.909-9.661-2.909h-80.027c-.719 0-1.434.103-2.123.307l-5.426 1.601c-.689.203-1.346.505-1.949.895l-22.582 14.595c-7.728 4.996-10.266 15.2-5.778 23.232l45.37 81.219-3.293 19.326c-.65 3.817 1.54 7.689 5.262 8.755.704.202 1.405.295 2.091.295 3.589 0 6.762-2.584 7.385-6.241l2.723-15.984h36.722l2.823 16.635-51.08 51.08 2.874-16.871c.69-4.053-1.836-8.118-5.868-8.923-4.167-.832-8.159 1.94-8.866 6.095l-15.779 92.629c-11.917.554-21.443 10.421-21.443 22.473 0 9.423 5.825 17.507 14.062 20.852l-19.446 114.153c-.829 3.749-1.618 10.975 1.832 18.797 2.412 5.472 5.967 9.196 9.037 11.599 1.23.963 2.448 1.932 3.615 2.971 10.071 8.963 51.887 46.532 53.451 47.634 4.961 3.25 10.646 4.875 16.333 4.875s11.372-1.625 16.333-4.875c1.024-.626 40.767-36.323 52.416-46.713 1.455-1.297 2.929-2.561 4.47-3.755 3.02-2.341 7.115-6.433 9.626-12.71 2.999-7.499 2.212-14.299 1.422-17.831l-2.011-11.848 26.245-67.017c1.532-3.917 1.605-8.257.201-12.224zm-168.888 112.947 33.494-33.493c2.929-2.929 2.929-7.678 0-10.606-2.929-2.929-7.677-2.929-10.607 0l-32.296 32.296c-.668-2.928-.334-5.474-.004-6.91.032-.14.061-.281.085-.422l8.318-48.829 66.39-66.39h.336c12.406 0 22.5-10.093 22.5-22.5 0-.11-.007-.218-.008-.328l15.441-15.441 6.93 40.832-62.895 62.895c-2.929 2.929-2.929 7.678 0 10.606 1.465 1.464 3.385 2.197 5.304 2.197 1.92 0 3.839-.732 5.304-2.197l55.365-55.365 6.953 40.969-95.292 95.292zm44.166-134.356-40.821 40.821 6.954-40.821zm56.405-56.404-18.489 18.489c-4.106-4.356-9.922-7.084-16.366-7.084h-21.37l49.722-49.722zm1.075-241.797 6.864 4.543-16.875 16.875c-2.929 2.929-2.929 7.678 0 10.606 1.465 1.464 3.385 2.197 5.304 2.197s3.839-.732 5.304-2.197l19.033-19.033 2.835 1.877c1.083.717 1.437 2.168.802 3.304l-44.34 79.412h-40.583l-1.186-2.122 38.672-38.671c2.929-2.929 2.929-7.678 0-10.606s-7.677-2.93-10.607 0l-35.668 35.667-13.621-24.382 57.886-57.886h24.801c.492 0 .968.144 1.379.416zm-105.345 14.58 20.205-13.06c.973-.629 2.031-1.114 3.141-1.442 1.111-.328 2.263-.494 3.421-.494h31.184l-44.274 44.274-14.502-25.96c-.643-1.151-.282-2.602.825-3.318zm88.241 132.774 6.448 37.989-67.857 67.858h-5.167l8.063-47.333zm-80.74 120.847h61.914c4.136 0 7.5 3.364 7.5 7.5s-3.364 7.5-7.5 7.5h-61.914c-4.136 0-7.5-3.364-7.5-7.5s3.364-7.5 7.5-7.5zm125.3 154.758c-1.333 3.335-3.555 5.443-5.091 6.583-1.302.966-2.532 2.025-3.741 3.105l-52.396 46.781c-4.723 2.871-10.654 2.87-15.377 0l-15.972-14.26 87.163-87.162 6.01 35.411c.028.138.073.356.101.494.403 1.752.835 5.22-.697 9.048z"/></g></g></svg>