<svg id="Capa_1" enable-background="new 0 0 512 512" height="512" viewBox="0 0 512 512" width="512" xmlns="http://www.w3.org/2000/svg"><g><g><path d="m504.5 61.958v293.68l-239.5 13.277-257.5-13.277v-293.68c0-11.05 8.95-20 20-20h457c11.05 0 20 8.95 20 20z" fill="#f5fcff"/><path d="m504.5 373.508v3c0 11.05-8.95 20-20 20h-457c-11.05 0-20-8.95-20-20v-314.55c0-11.05 8.95-20 20-20h3v319.55c0 6.63 5.37 12 12 12z" fill="#e6f7fe"/><path d="m330.815 168.616v92.923h-149.714v-92.943z" fill="#4e5a61"/><path d="m192.728 141.486h-8.043c-7.018 0-12.707 5.689-12.707 12.707v1.702c0 13.381 10.848 24.229 24.229 24.229l7.074.377h105.439l7.074-.377c13.381 0 24.229-10.848 24.229-24.229v-1.702c0-7.018-5.689-12.707-12.707-12.707h-8.043z" fill="#f4d9b1"/><path d="m226.087 238.984 3.725-26.273 52.341-.042 3.199 26.054-29.363 35.587z" fill="#f4d9b1"/><path d="m356.255 314-6.546-36.671c-1.97-10.437-9.45-18.982-19.533-22.317l-8.877-2.948-16.98-.426-48.929 2.904-51.064 1.692-14.745-3.788-7.758 2.566c-10.084 3.335-17.563 11.881-19.533 22.317l-6.545 36.671 102.495 29.917z" fill="#d5717f"/><path d="m314.15 271.19-31.7 25.48c-1.77 1.42-3.77 2.52-5.88 3.27-2.12.75-4.37 1.14-6.63 1.14-5.59 0-10.77-2.33-14.47-6.2-3.7 3.87-8.88 6.2-14.46 6.2-4.53 0-8.98-1.57-12.52-4.41l-31.7-25.48c-5.68-4.57-8.34-11.75-7.21-18.75l20.236-6.738 45.574 8.841 44.288-9.735 21.621 7.253c1.291 7.119-1.359 14.479-7.149 19.129z" fill="#cd5668"/><path d="m293.596 437.404-8.969-27.895-.002-.001h.005l-4.18-13h-48.9l-13.15 40.9h24.18l.001-.004z" fill="#ab7b64"/><path d="m308.745 433.042h-105.49c-1.488 0-2.949.116-4.375.341-13.351 2.1-16.647 11.677-16.647 25.617 0 5.523 4.477 10 10 10l126.398-1.234c5.523 0 10-4.477 10-10l-.134 1.559c0-4.297 7.212-6.714 5.479-10.351-4.489-9.421-14.1-15.932-25.231-15.932z" fill="#b78c7a"/><path d="m336.68 460.978c0 5.52-4.48 10-10 10h-141.36c-2.76 0-5.26-1.12-7.07-2.93s-2.93-4.31-2.93-7.07c0-13.94 10.21-25.5 23.56-27.6-.37 1.81-.56 3.68-.56 5.6 0 2.76 1.12 5.26 2.93 7.07s4.31 2.93 7.07 2.93h125.65c1.74 3.64 2.71 7.71 2.71 12z" fill="#ab7b64"/><path d="m213.673 355.638-80.928-.468v-33.01c0-5.523-.632-9.532 4.891-9.532h66.037c5.523 0 10 4.477 10 10z" fill="#bed9fd"/><path d="m299.019 355.638h-85.346l2.136-32c0-5.523 4.477-10 10-10l1.861-1.011h61.349c5.523 0 10 4.477 10 10z" fill="#bed9fd"/><path d="m309.02 340.638v15l-57.505 6.128-37.845-6.128v-33.01c0-5.523 4.477-10 10-10h4v21.01c0 3.866 3.134 7 7 7z" fill="#9ec8fc"/><path d="m382.106 356.319-83.088-.681 4.279-31.829c0-5.523.199-9.021 5.722-9.021l4-2.16h61.344c5.523 0 10 4.477 10 10v19.01z" fill="#bed9fd"/><path d="m223.67 341.638v14l-56.017 6.128-40.013-6.128v-33.01c0-5.52 4.47-10 10-10h4v22.01c0 3.866 3.134 7 7 7z" fill="#9ec8fc"/><path d="m384.36 341.638v14l-51.19 7.15-34.15-7.15v-33.01c0-5.523 4.477-10 10-10h4v22.01c0 3.866 3.134 7 7 7z" fill="#9ec8fc"/><path d="m363.532 111.564c0-10.753 2.821-20.542 12.35-27.868 10.592-8.143 25.765-13.244 42.617-13.244 32.015 0 57.968 18.406 57.968 41.112 0 6.984-2.455 13.561-6.787 19.32-9.752 12.967-29.013 19.792-51.181 19.792-4.327 0-11.134-.957-15.188-1.594-2.255-.354-4.559-.189-6.742.48l-23.633 6.855c-4.443 1.362-8.601-2.803-7.257-7.268l4.461-8.495c1.254-4.165.703-8.691-1.61-12.37-3.211-5.108-4.998-10.765-4.998-16.72z" fill="#bed9fd"/><path d="m375.95 125.794c2.64 4.2 3.27 9.38 1.84 14.14l-3.96 13.14c-.58 1.91-.27 3.77.62 5.27l-3.51 1.07c-4.45 1.37-8.6-2.8-7.26-7.26l3.46-11.5c1.25-4.16.7-8.69-1.61-12.37-3.21-5.11-5-10.77-5-16.72 0-13.13 8.68-24.82 22.18-32.34-7.85 7.72-12.48 17.21-12.48 27.45 0 6.81 2.05 13.28 5.72 19.12z" fill="#bed9fd"/><path d="m419.86 143.674c-4.83 0-12.43-.95-16.95-1.59-2.52-.36-5.09-.19-7.53.48l-16.551 4.54c-1.516.416-2.898-1-2.444-2.506l1.406-4.664c1.43-4.76.8-9.94-1.84-14.14-3.67-5.84-5.72-12.31-5.72-19.12 0-10.24 4.63-19.73 12.48-27.45-13.5 7.52-22.18 19.21-22.18 32.34 0 5.95 1.79 11.61 5 16.72 2.31 3.68 2.86 8.21 1.61 12.37l-3.006 9.99c-.001 0-.003 0-.004 0l-.45 1.51c-1.34 4.46 2.81 8.63 7.26 7.26l3.51-1.07c-.001-.001-.001-.003-.002-.004l22.122-6.776c2.18-.67 4.49-.84 6.74-.48 4.06.64 10.86 1.59 15.19 1.59 24.63 0 45.68-10.89 54.07-26.26-11.731 10.45-30.971 17.26-52.711 17.26z" fill="#9ec8fc"/><path d="m504.5 355.638v20.87c0 11.05-8.95 20-20 20h-457c-11.05 0-20-8.95-20-20v-20.87l13.287 6.128 9.713-6.128z" fill="#b78c7a"/><path d="m504.5 373.508v3c0 11.05-8.95 20-20 20h-457c-11.05 0-20-8.95-20-20v-20.87h23v5.87c0 6.63 5.37 12 12 12z" fill="#ab7b64"/><path d="m273.054 284.975 31.697-25.48c1.676-1.347 2.302-3.615 1.555-5.631l-5.99-16.162c-1.13-3.048-4.684-4.407-7.559-2.889l-37.366 19.729 9.813 28.182c1.136 3.262 5.158 4.415 7.85 2.251z" fill="#d5717f"/><path d="m237.89 284.975-31.697-25.48c-1.676-1.347-2.302-3.615-1.555-5.631l5.99-16.162c1.13-3.048 4.684-4.407 7.559-2.889l37.366 19.729-9.813 28.182c-1.136 3.262-5.159 4.415-7.85 2.251z" fill="#d5717f"/><path d="m194.696 141.486c1.249 43.919 28.218 79.01 61.304 79.01 33.134 0 60.133-35.192 61.309-79.2l-60.963-59.906z" fill="#f7e5c1"/><path d="m326.787 147.213c-.16 5.81-10.237 5.557-11.247 10.997-21.91-1.83-41.08-12.65-52.65-28.5-4.06 3.81-8.68 7.49-13.75 10.88-16.64 11.15-35.25 17.46-52.62 17.87-1.04-5.46-12.296-6.183-12.456-12.013l72.286-65.057z" fill="#f4d9b1"/><path d="m330.815 141.976-11.039-.535c-25.97-.987-47.471-18.098-50.987-40.356-.597-3.777-4.53-3.249-5.239-.834-4.388 14.935-36.321 41.235-68.853 41.235l-13.595.513v-1.341c0-11.013 1.959-21.294 5.806-30.419 1.412-3.349 3.255-6.496 5.371-9.451 6.489-9.059 13.576-16.077 21.372-20.719 11.299-6.427 25.449-10.069 42.307-10.069 48.432 0 74.857 30.455 74.857 70.659z" fill="#5f6c75"/><path d="m209.99 125.89c18.57 0 36.95-8.57 50.11-18.71-9.8 14.64-36.38 33.53-63.71 34.28-.56.02-1.13.03-1.69.03l-13.6.51v-1.34c0-11.01 1.96-21.3 5.81-30.42 1.41-3.35 3.25-6.5 5.37-9.45 5.21-7.27 10.8-13.23 16.84-17.7 1.48-1.1 2.99-2.1 4.53-3.02 11.3-6.43 25.45-10.07 42.31-10.07 2.58 0 5.11.09 7.56.26-13.5.95-25.05 4.39-34.58 9.81-7.8 4.64-14.88 11.66-21.37 20.72-2.12 2.95-3.96 6.1-5.37 9.45-2.03 4.82-3.54 9.96-4.5 15.36-.065.262-.123.529-.18.8-.166-.054 12.095-.498 12.47-.51z" fill="#4e5a61"/></g><g><g><path d="m484.5 33.989h-457c-15.164 0-27.5 12.337-27.5 27.5v190.16c0 4.143 3.357 7.5 7.5 7.5s7.5-3.357 7.5-7.5v-190.16c0-6.893 5.607-12.5 12.5-12.5h457c6.893 0 12.5 5.607 12.5 12.5v286.181h-39.611c-4.143 0-7.5 3.357-7.5 7.5s3.357 7.5 7.5 7.5h39.611v13.371c0 6.893-5.607 12.5-12.5 12.5-125.376 0-331.822 0-457 0-6.893 0-12.5-5.607-12.5-12.5v-13.371h407.389c4.143 0 7.5-3.357 7.5-7.5s-3.357-7.5-7.5-7.5h-30.524v-25.511c0-9.649-7.851-17.5-17.5-17.5h-11.841l-5.423-28.721c-2.08-11.021-9.071-20.355-18.764-25.544v-72.174c5.688-5.737 9.206-13.628 9.206-22.325v-1.701c0-7.115-3.705-13.369-9.278-16.971-.724-20.957-8.076-38.979-21.396-52.277-14.709-14.684-35.764-22.446-60.89-22.446-17.644 0-33.126 3.718-46.016 11.05-3.601 2.049-4.859 6.627-2.812 10.228 2.049 3.602 6.628 4.857 10.228 2.812 10.602-6.031 23.589-9.089 38.6-9.089 39.103 0 64.258 21.442 67.084 56.441h-3.119c-22.372-.907-40.751-15.199-43.726-34.026-.806-5.101-4.592-8.737-9.422-9.05-4.693-.295-9.093 2.753-10.422 7.271-3.512 11.957-32.634 35.85-61.657 35.85h-1.968-3.861c.759-9.368 3.146-17.895 7.124-25.42 1.936-3.661.536-8.199-3.126-10.136s-8.199-.536-10.136 3.126c-5.582 10.559-8.621 22.563-9.064 35.721-5.523 3.611-9.187 9.839-9.187 16.916v1.701c0 8.654 3.485 16.508 9.123 22.238v72.308c-9.651 5.198-16.606 14.51-18.681 25.498l-5.423 28.722h-11.884c-9.649 0-17.5 7.851-17.5 17.5v25.511h-105.134v-61.021c0-4.143-3.357-7.5-7.5-7.5s-7.5 3.357-7.5 7.5v89.392c0 15.163 12.336 27.5 27.5 27.5h193.764l-6.923 21.533h-11.085c-19.539 0-35.436 15.896-35.436 35.437 0 9.649 7.851 17.5 17.5 17.5h42.567c4.143 0 7.5-3.357 7.5-7.5s-3.357-7.5-7.5-7.5h-42.567c-1.379 0-2.5-1.121-2.5-2.5 0-11.269 9.167-20.437 20.436-20.437h16.529c.008 0 .017.002.025.002s.016-.002.025-.002h72.333c.008 0 .016.002.025.002s.017-.002.025-.002h16.529c11.269 0 20.436 9.168 20.436 20.437 0 1.379-1.121 2.5-2.5 2.5h-63.794c-4.143 0-7.5 3.357-7.5 7.5s3.357 7.5 7.5 7.5h63.794c9.649 0 17.5-7.851 17.5-17.5 0-19.54-15.896-35.437-35.436-35.437h-11.087l-6.923-21.533h193.763c15.164 0 27.5-12.337 27.5-27.5v-314.554c0-15.163-12.336-27.5-27.5-27.5zm-263.327 288.17c0-1.379 1.121-2.5 2.5-2.5h65.346c1.379 0 2.5 1.121 2.5 2.5v25.511h-70.346zm155.691 0v25.511h-70.346v-25.511c0-1.379 1.121-2.5 2.5-2.5h65.346c1.379 0 2.5 1.121 2.5 2.5zm-66.791-81.733c-.269-.089-.538-.159-.809-.216l-1.895-5.114c-1.289-3.479-4.016-6.232-7.48-7.557-2.701-1.033-5.645-1.104-8.365-.272l-1.346-10.968c9.427-6.977 17.445-16.77 23.392-28.546l2.458-.131c2.517-.017 4.962-.336 7.31-.91v58.118zm-45.458 17.738 29.528-15.591 4.524 12.206-27.526 22.128zm-9.121-12.147-21.219-11.203 1.519-10.713c6.394 2.531 13.185 3.894 20.228 3.894 6.965 0 13.682-1.328 20.012-3.8l1.266 10.309zm-15.648 30.89-27.526-22.128 4.523-12.206 29.529 15.591zm-28.748-49.368c-3.465 1.324-6.191 4.078-7.48 7.557l-2.034 5.488-12.96 4.287v-58.178c2.372.586 4.846.912 7.393.929l2.469.132c5.926 11.725 13.903 21.486 23.278 28.458l-1.601 11.292c-2.912-1.077-6.132-1.086-9.065.035zm-18.918-55.432c-7.271-1.817-12.68-8.386-12.68-16.213v-1.701c0-2.871 2.336-5.207 5.207-5.207h2.963c.729 8.101 2.261 15.857 4.51 23.121zm132.194-23.121h2.962c2.871 0 5.207 2.336 5.207 5.207v1.701c0 7.825-5.407 14.393-12.677 16.212 2.247-7.264 3.78-15.018 4.508-23.12zm-59.719-35.32c7.281 17.328 24.185 30.29 44.772 34.137-1.577 17.169-7.399 32.959-16.704 45.014-10.047 13.013-23.081 20.18-36.702 20.18-13.6 0-26.619-7.147-36.658-20.124-9.198-11.888-15.01-27.428-16.687-44.346 25.966-2.951 50.486-19.623 61.979-34.861zm-94.972 165.055c1.464-7.754 7.027-14.11 14.519-16.588l12.857-4.252c.532 2.872 2.065 5.538 4.457 7.46l31.696 25.479c2.244 1.805 5.02 2.757 7.837 2.757 1.149 0 2.308-.159 3.438-.483 3.899-1.118 7.024-4.073 8.358-7.903l2.649-7.607 2.649 7.606c1.334 3.832 4.459 6.786 8.357 7.904 1.131.324 2.288.483 3.438.483 2.816 0 5.592-.952 7.836-2.757v.001l31.696-25.479c2.49-2.001 4.043-4.807 4.512-7.812l13.859 4.602c7.492 2.479 13.056 8.835 14.519 16.589l4.897 25.938h-38.239c-3.718 0-7.162 1.174-10 3.159-2.838-1.985-6.282-3.159-10-3.159h-65.346c-3.718 0-7.162 1.174-10 3.159-2.838-1.985-6.282-3.159-10-3.159h-38.887zm-34.547 43.438c0-1.379 1.121-2.5 2.5-2.5h66.037c1.379 0 2.5 1.121 2.5 2.5v25.511h-71.037zm146.768 102.915h-51.809l6.923-21.533h37.962z"/><path d="m356.499 149.52c-1.424 4.729-.136 9.829 3.362 13.311 2.534 2.521 5.911 3.877 9.372 3.877 1.302 0 2.616-.192 3.901-.586l25.634-7.855c1.088-.332 2.258-.418 3.38-.241 4.893.769 11.701 1.685 16.352 1.685 17.024 0 33.123-4.768 45.328-13.424 12.987-9.211 20.14-21.708 20.14-35.188s-7.152-25.977-20.14-35.188c-12.206-8.656-28.304-13.424-45.328-13.424s-33.122 4.768-45.328 13.424c-12.987 9.211-20.14 21.707-20.14 35.188 0 7.256 2.069 14.225 6.149 20.713 1.139 1.81 1.422 4.075.777 6.216zm62.001-72.035c27.356 0 50.468 15.393 50.468 33.611 0 18.22-23.111 33.612-50.468 33.612-2.831 0-7.943-.548-14.023-1.503-3.356-.528-6.851-.279-10.104.718l-22.61 6.93 2.56-8.505c1.895-6.291 1.004-13.044-2.443-18.524-2.553-4.06-3.847-8.342-3.847-12.728-.001-18.218 23.111-33.611 50.467-33.611z"/><circle cx="391.5" cy="114.6" r="7.5"/><circle cx="418.5" cy="114.6" r="7.5"/><circle cx="445.5" cy="114.6" r="7.5"/></g></g></g></svg>