<svg id="Capa_1" enable-background="new 0 0 512 512" height="512" viewBox="0 0 512 512" width="512" xmlns="http://www.w3.org/2000/svg"><g><g id="_x3C_Group_x3E__47_"><path d="m490.5 113.595c0-2.143-.459-4.24-1.322-6.158-.726-1.613-64.691-44.608-64.691-44.608-1.282-1.297-31.069-53.207-32.693-53.955-1.948-.897-4.085-1.374-6.272-1.374h-207.335c-8.284 0-15 6.716-15 15v48.67l35.832 320.394 169.072 29.555h107.409c8.284 0 15-6.716 15-15z" fill="#f5fcff"/><path d="m490.5 113.59v6.85h-90.45c-11.72 0-21.26-9.54-21.26-21.27v-91.67h6.73c2.19 0 4.32.48 6.27 1.37 1.63.75 31.41 52.66 32.7 53.96 0 0 63.96 42.99 64.69 44.61.86 1.91 1.32 4.01 1.32 6.15z" fill="#e6f7fe"/><path d="m489.17 107.44h-89.12c-4.56 0-8.26-3.7-8.26-8.27v-90.29c1.63.75 3.12 1.79 4.4 3.08l89.98 91.09c1.27 1.29 2.28 2.77 3 4.39z" fill="#d3effd"/><path d="m368.09 105.17v315.95h-204.9v-349.95h170.9c18.75 0 34 15.25 34 34z" fill="#e6f7fe"/><path d="m27.936 107.44c0-8.284.28-17.268 8.564-17.268h297.589c8.284 0 15 6.716 15 15v384.328c0 8.284-8.356 10.803-16.64 10.803l-292.449 1.156c-8.284 0-15-6.716-15-15z" fill="#f5fcff"/><path d="m349.09 487.5v2c0 8.284-6.716 15-15 15h-297.59c-8.284 0-15-6.716-15-15v-384.33c0-8.284 6.716-15 15-15h2v392.33c0 2.761 2.239 5 5 5z" fill="#e6f7fe"/><path d="m307.403 276.5h-13.043l-44.554-6.31-49.756 10-9.755-3.69c-5.523 0-10-4.477-10-10l-1.593-131.828c0-5.523 4.477-10 10-10l1.758-3.677h118.335c5.523 0 10 4.477 10 10v139.195c0 5.522-5.869 6.31-11.392 6.31z" fill="#bed9fd"/><path d="m318.8 265.19v5c0 5.52-4.48 10-10 10h-14.442l-44.191-10-50.117 10h-14.59c-5.52 0-10-4.48-10-10v-139.19c0-5.53 4.48-10 10-10h5v139.19c0 2.76 2.24 5 5 5z" fill="#9ec8fc"/><g><path d="m294.358 280.19-2.437-19.194c-.981-7.211-5.801-13.32-12.586-15.951l-1.994-.773-18.255-4.786-25.744-1.585-16.802 8.244c-6.785 2.631-10.686 8.323-11.667 15.534l-1.138 14.821 12.899-1.39z" fill="#d5717f"/><path d="m294.36 280.19-1.91-15h-73.266c-1.198 0-2.125-1.051-1.974-2.24.26-1.77 1.46-3.27 3.13-3.92l11.913-4.617c.438-.17.919-.174 1.363-.022 4.298 1.466 8.834 2.25 13.515 2.25 4.94 0 9.7-.87 14.2-2.49 5.85-2.1 11.26-5.48 16.01-9.88l-16.43-6.37h-27.57l-16.42 6.37-2 .77c-6.79 2.64-11.61 8.74-12.59 15.96l-2.28 19.19h14.969.001 79.339z" fill="#cd5668"/><path d="m214.405 195.805c.781 25.209 13.715 45.838 32.722 45.838 19.036 0 34.554-20.176 35.292-45.438l-35.116-28.145z" fill="#f7e5c1"/><path d="m252.027 201.494c-7.253 4.174-15.439 6.565-22.647 7.916 4.35 15.12 13.88 27.4 25.5 31.09-2.5.75-5.09 1.14-7.75 1.14-15.09 0-27.96-12.66-33.02-30.49-1.32-4.64-2.11-9.63-2.27-14.83l35.46-28.26 7.06 5.65 28.06 22.49c-.15 5.17-.92 10.13-2.22 14.75-11.524-.905-18.982-3.887-25.561-9.282-.741-.607-1.782-.652-2.612-.174z" fill="#f4d9b1"/><path d="m280.367 159.358c-1.425-1.696-5.352-6.369-12.349-8.095-2.524-.623-4.871-.72-6.897-.568-4.181.313-8.397-.079-12.418-1.267-4.388-1.296-10.567-2.201-17.583-.48-.967.237-2.574.675-4.526 1.458-4.18 1.675-6.581 6.342-11.039 12.577-7.328 10.247-3.55 23.299-2.293 27.762.29 1.029 1.22 1.742 2.289 1.742 12.378.008 28.779.431 37.244-11.063.772-1.048 2.331-1.064 3.151-.053 8.585 10.577 13.292 13.928 26.85 14.729 1.148.068 2.17-.717 2.435-1.836 1.183-5.005 3.26-25.238-4.864-34.906z" fill="#5f6c75"/><path d="m253.47 180.85c-.26.13-.49.32-.68.57-8.46 11.5-29.49 14.79-41.87 14.79-1.07 0-2-.72-2.29-1.75-1.26-4.46-3.77-22.65 3.56-32.89 5.42-7.58 12.76-10.75 16.85-12.04-.28.36-.56.73-.83 1.11-7.32 10.25-4.81 28.44-3.56 32.9.29 1.03 1.22 1.74 2.29 1.74 7.29.01 17.57-1.14 26.53-4.43z" fill="#4e5a61"/></g></g><g><g><path d="m490.5 353.072c-4.143 0-7.5 3.358-7.5 7.5v45.547c0 4.136-3.364 7.5-7.5 7.5h-34.5c-4.143 0-7.5 3.358-7.5 7.5s3.357 7.5 7.5 7.5h34.5c12.406 0 22.5-10.093 22.5-22.5v-45.547c0-4.142-3.357-7.5-7.5-7.5z"/><path d="m406 413.619h-49.41v-32.707h84.41c4.143 0 7.5-3.358 7.5-7.5s-3.357-7.5-7.5-7.5h-84.41v-15h84.41c4.143 0 7.5-3.358 7.5-7.5s-3.357-7.5-7.5-7.5h-84.41v-90.118h84.41c4.143 0 7.5-3.358 7.5-7.5s-3.357-7.5-7.5-7.5h-84.41v-125.622c0-12.407-10.094-22.5-22.5-22.5h-163.403v-18.989c0-4.142-3.358-7.5-7.5-7.5s-7.5 3.358-7.5 7.5v18.989h-119.187c-12.407 0-22.5 10.093-22.5 22.5v164.892c0 4.142 3.358 7.5 7.5 7.5s7.5-3.358 7.5-7.5v-164.892c0-4.136 3.364-7.5 7.5-7.5h297.59c4.136 0 7.5 3.364 7.5 7.5v384.328c0 4.136-3.364 7.5-7.5 7.5h-297.59c-4.136 0-7.5-3.364-7.5-7.5v-184.458c0-4.142-3.358-7.5-7.5-7.5s-7.5 3.358-7.5 7.5v184.458c0 12.407 10.093 22.5 22.5 22.5h297.59c12.406 0 22.5-10.093 22.5-22.5v-60.881h49.41c4.143 0 7.5-3.358 7.5-7.5s-3.357-7.5-7.5-7.5z"/><path d="m491.508 97.783-89.979-91.094c-4.198-4.251-10.033-6.689-16.008-6.689h-207.334c-12.407 0-22.5 10.093-22.5 22.5v8.076c0 4.142 3.358 7.5 7.5 7.5s7.5-3.358 7.5-7.5v-8.076c0-4.136 3.364-7.5 7.5-7.5h206.102v84.17c0 8.693 7.072 15.765 15.766 15.765h82.945v210.529c0 4.142 3.357 7.5 7.5 7.5s7.5-3.358 7.5-7.5v-211.87c0-5.958-2.306-11.573-6.492-15.811zm-92.22 1.387v-73.404l73.262 74.17h-72.497c-.421 0-.765-.344-.765-.766z"/><path d="m59.207 144.672h51.088c4.142 0 7.5-3.358 7.5-7.5s-3.358-7.5-7.5-7.5h-51.088c-4.142 0-7.5 3.358-7.5 7.5s3.358 7.5 7.5 7.5z"/><path d="m59.207 177.982h79.858c4.142 0 7.5-3.358 7.5-7.5s-3.358-7.5-7.5-7.5h-79.858c-4.142 0-7.5 3.358-7.5 7.5s3.358 7.5 7.5 7.5z"/><path d="m59.207 208.734h79.858c4.142 0 7.5-3.358 7.5-7.5s-3.358-7.5-7.5-7.5h-79.858c-4.142 0-7.5 3.358-7.5 7.5s3.358 7.5 7.5 7.5z"/><path d="m59.207 239.485h79.858c4.142 0 7.5-3.358 7.5-7.5s-3.358-7.5-7.5-7.5h-79.858c-4.142 0-7.5 3.358-7.5 7.5s3.358 7.5 7.5 7.5z"/><path d="m59.207 291.5h38.411c4.142 0 7.5-3.358 7.5-7.5s-3.358-7.5-7.5-7.5h-38.411c-4.142 0-7.5 3.358-7.5 7.5s3.358 7.5 7.5 7.5z"/><path d="m62.677 317c0 4.142 3.358 7.5 7.5 7.5h78.889c4.142 0 7.5-3.358 7.5-7.5s-3.358-7.5-7.5-7.5h-78.889c-4.142 0-7.5 3.358-7.5 7.5z"/><path d="m299.903 309.5h-105.201c-4.142 0-7.5 3.358-7.5 7.5s3.358 7.5 7.5 7.5h105.201c4.143 0 7.5-3.358 7.5-7.5s-3.357-7.5-7.5-7.5z"/><path d="m59.207 354.5h170.275c4.142 0 7.5-3.358 7.5-7.5s-3.358-7.5-7.5-7.5h-170.275c-4.142 0-7.5 3.358-7.5 7.5s3.358 7.5 7.5 7.5z"/><path d="m59.207 400.618h78.889c4.142 0 7.5-3.358 7.5-7.5s-3.358-7.5-7.5-7.5h-78.889c-4.142 0-7.5 3.358-7.5 7.5s3.358 7.5 7.5 7.5z"/><path d="m299.903 420.618h-179.073c-4.142 0-7.5 3.358-7.5 7.5s3.358 7.5 7.5 7.5h179.074c4.143 0 7.5-3.358 7.5-7.5s-3.358-7.5-7.501-7.5z"/><path d="m299.903 450.618h-179.073c-4.142 0-7.5 3.358-7.5 7.5s3.358 7.5 7.5 7.5h179.074c4.143 0 7.5-3.358 7.5-7.5s-3.358-7.5-7.501-7.5z"/><path d="m86.838 420.618h-6.662c-4.142 0-7.5 3.358-7.5 7.5s3.358 7.5 7.5 7.5h6.662c4.142 0 7.5-3.358 7.5-7.5s-3.358-7.5-7.5-7.5z"/><path d="m86.838 450.618h-6.662c-4.142 0-7.5 3.358-7.5 7.5s3.358 7.5 7.5 7.5h6.662c4.142 0 7.5-3.358 7.5-7.5s-3.358-7.5-7.5-7.5z"/><path d="m247.154 58.966c4.142 0 7.5-3.358 7.5-7.5s-3.358-7.5-7.5-7.5h-44.324c-4.142 0-7.5 3.358-7.5 7.5s3.358 7.5 7.5 7.5z"/><path d="m326.295 270.189v-139.194c0-9.649-7.851-17.5-17.5-17.5h-123.337c-9.649 0-17.5 7.851-17.5 17.5v139.194c0 9.649 7.851 17.5 17.5 17.5h123.336c9.65 0 17.501-7.85 17.501-17.5zm-143.337 0v-139.194c0-1.378 1.122-2.5 2.5-2.5h123.336c1.379 0 2.5 1.122 2.5 2.5v139.194c0 1.378-1.121 2.5-2.5 2.5h-7.892l-1.538-12.603c-.004-.034-.008-.068-.013-.102-1.348-9.912-7.979-18.316-17.306-21.934l-6.567-2.547c7.661-8.637 12.865-20.761 14.148-34.542 1.396-1.296 2.434-3 2.901-4.972 1.318-5.574 4.096-28.946-6.42-41.458 0 0-.002-.003-.003-.003-1.713-2.038-6.926-8.238-16.291-10.548-3.008-.742-6.122-.999-9.254-.766-3.393.253-6.67-.076-9.733-.98-7.072-2.09-14.505-2.288-21.495-.572-5.493 1.347-15.818 5.157-23.243 15.541-9.376 13.112-6.076 34.327-4.679 39.29.561 1.996 1.728 3.703 3.26 4.958 1.361 13.575 6.54 25.513 14.113 34.049l-6.576 2.55c-9.327 3.617-15.958 12.021-17.306 21.934-.004.034-.009.067-.013.102l-1.538 12.603h-7.892c-1.377 0-2.499-1.121-2.499-2.5zm95.627-82.013c-7.553-1.07-10.567-3.831-16.817-11.531-1.871-2.305-4.634-3.573-7.611-3.517-2.954.07-5.652 1.473-7.402 3.849-5.324 7.229-19.355 10.924-31.632 11.61-.839-6.423-.834-17.059 3.169-22.658 4.613-6.45 11.136-8.844 14.615-9.697 2.003-.492 4.03-.737 6.069-.737 2.522 0 5.063.375 7.603 1.126 4.811 1.42 9.894 1.942 15.101 1.553 1.551-.117 3.077.01 4.543.371 4.621 1.14 7.271 4.292 8.403 5.638 0 0 0 0 .001.001 4.325 5.148 4.641 16.831 3.958 23.992zm-24.39 2.688c5.872 6.421 11.345 10.085 20.12 11.765-2.728 17.882-14.062 31.514-27.188 31.514-12.97 0-24.209-13.338-27.096-30.924 9.737-.976 24.384-3.871 34.164-12.355zm-21.236 55.229c4.435 1.974 9.201 3.049 14.168 3.049 4.97 0 9.738-1.075 14.172-3.048l15.323 5.942c4.226 1.639 7.233 5.438 7.86 9.924l1.31 10.728h-77.33l1.31-10.728c.626-4.486 3.634-8.286 7.859-9.924z"/></g></g></g></svg>