<?xml version="1.0" encoding="iso-8859-1"?>
<!-- Generator: Adobe Illustrator 23.0.6, SVG Export Plug-In . SVG Version: 6.00 Build 0)  -->
<svg version="1.1" id="Capa_1" xmlns="http://www.w3.org/2000/svg" xmlns:xlink="http://www.w3.org/1999/xlink" x="0px" y="0px"
	 viewBox="0 0 512 512" style="enable-background:new 0 0 512 512;" xml:space="preserve">
<g>
	<g>
		<path style="fill:#FFB54E;" d="M435.09,421.91H76.91c-13.26,0-21.73-14.14-15.47-25.83l12.48-23.29h364.16l12.48,23.29
			C456.82,407.77,448.35,421.91,435.09,421.91z"/>
		<rect x="187.34" y="372.79" style="fill:#FF9A1B;" width="137.32" height="49.12"/>
		<path style="fill:#FF9A1B;" d="M435.093,421.904h-24.116c13.254,0,21.724-14.14,15.463-25.826l-12.48-23.292h24.116l12.48,23.292
			C456.817,407.765,448.347,421.904,435.093,421.904z"/>
		<polygon style="fill:#FFCE8B;" points="438.079,372.79 473.961,148.322 341.378,262.04 256,71.37 170.622,262.04 38.039,148.322 
			73.921,372.79 		"/>
		<polygon style="fill:#FFB54E;" points="473.96,148.323 438.076,372.787 413.96,372.787 449.874,168.988 		"/>
		<circle style="fill:#BDEB73;" cx="256" cy="71.37" r="30.539"/>
		<path style="fill:#9AD63B;" d="M286.539,71.374c0,16.868-13.671,30.539-30.539,30.539c-3.655,0-7.146-0.641-10.394-1.822
			c11.758-4.245,20.146-15.504,20.146-28.717c0-13.213-8.388-24.472-20.146-28.717c3.247-1.181,6.739-1.822,10.394-1.822
			C272.868,40.834,286.539,54.506,286.539,71.374z"/>
		<g>
			<circle style="fill:#BDEB73;" cx="38.039" cy="148.229" r="30.539"/>
			<path style="fill:#9AD63B;" d="M68.58,148.231c0,16.868-13.671,30.539-30.539,30.539c-3.655,0-7.146-0.641-10.394-1.812
				c11.748-4.255,20.146-15.504,20.146-28.727s-8.398-24.472-20.146-28.727c3.247-1.171,6.739-1.812,10.394-1.812
				C54.908,117.692,68.58,131.363,68.58,148.231z"/>
			<circle style="fill:#BDEB73;" cx="473.961" cy="148.229" r="30.539"/>
			<path style="fill:#9AD63B;" d="M504.499,148.231c0,16.868-13.671,30.539-30.539,30.539c-3.655,0-7.146-0.641-10.394-1.812
				c11.747-4.255,20.146-15.504,20.146-28.727s-8.398-24.472-20.146-28.727c3.247-1.171,6.739-1.812,10.394-1.812
				C490.827,117.692,504.499,131.363,504.499,148.231z"/>
		</g>
		<g>
			<polygon style="fill:#BDEB73;" points="283.113,316.041 228.887,316.041 201.341,343.588 201.341,443.623 228.887,471.169 
				283.113,471.169 310.659,443.623 310.659,343.588 			"/>
			<polygon style="fill:#9AD63B;" points="228.887,471.169 201.341,443.623 231.88,430.973 241.537,440.63 			"/>
			<polygon style="fill:#9AD63B;" points="283.113,471.169 310.659,443.623 280.12,430.973 270.463,440.63 			"/>
			<polygon style="fill:#9AD63B;" points="283.113,316.041 310.659,343.588 280.12,356.238 270.463,346.581 			"/>
			<polygon style="fill:#9AD63B;" points="228.887,316.041 201.341,343.588 231.88,356.238 241.537,346.581 			"/>
			<polygon style="fill:#E3F6C5;" points="241.537,440.63 231.88,430.973 231.88,356.238 241.537,346.581 270.463,346.581 
				280.12,356.238 280.12,430.973 270.463,440.63 			"/>
		</g>
		<g>
			<g>
				<path style="fill:#ED6264;" d="M144.878,317.381l-8.249,8.249c-3.975,3.975-10.421,3.975-14.396,0l-8.249-8.249
					c-3.975-3.975-3.975-10.421,0-14.396l8.249-8.249c3.975-3.975,10.421-3.975,14.396,0l8.249,8.249
					C148.854,306.96,148.854,313.406,144.878,317.381z"/>
			</g>
			<g>
				<path style="fill:#ED6264;" d="M398.016,317.381l-8.249,8.249c-3.975,3.975-10.421,3.975-14.396,0l-8.249-8.249
					c-3.975-3.975-3.975-10.421,0-14.396l8.249-8.249c3.975-3.975,10.421-3.975,14.396,0l8.249,8.249
					C401.991,306.96,401.991,313.406,398.016,317.381z"/>
			</g>
		</g>
		<g>
			<path style="fill:#ED6264;" d="M271.447,229.025l-8.249,8.249c-3.975,3.975-10.421,3.975-14.396,0l-8.249-8.249
				c-3.975-3.975-3.975-10.421,0-14.396l8.249-8.249c3.975-3.975,10.421-3.975,14.396,0l8.249,8.249
				C275.422,218.604,275.422,225.05,271.447,229.025z"/>
		</g>
	</g>
	<g>
		<path d="M512,148.229c0-20.975-17.064-38.04-38.04-38.04c-20.975,0-38.039,17.064-38.039,38.04c0,6.769,1.785,13.125,4.898,18.638
			l-96.7,82.941l-23.384-52.221c-1.693-3.78-6.131-5.473-9.91-3.78c-3.781,1.693-5.473,6.13-3.78,9.91l27.488,61.388
			c0.967,2.16,2.896,3.736,5.206,4.253c0.543,0.122,1.093,0.182,1.64,0.182c1.773,0,3.51-0.629,4.883-1.807l104.353-89.504
			c3.026,2.361,6.413,4.278,10.069,5.645l-29,181.417H318.159v-21.618c0.025-2.026-0.812-4.033-2.259-5.449l-27.425-27.425
			c-1.704-1.747-3.822-2.184-6.148-2.256c-4.72-0.146-39.124-0.052-51.59,0c-2.68,0.011-5.197,0.19-7.213,2.256l-27.426,27.426
			c-1.449,1.412-2.284,3.426-2.258,5.448v21.618h-33.143c-4.142,0-7.5,3.358-7.5,7.5s3.358,7.5,7.5,7.5h33.143v34.118H76.906
			c-3.617,0-6.757-1.78-8.616-4.883c-1.858-3.104-1.944-6.712-0.236-9.901l10.358-19.333h46.891c4.142,0,7.5-3.358,7.5-7.5
			s-3.358-7.5-7.5-7.5H80.317l-29-181.417c3.656-1.366,7.043-3.284,10.069-5.645l104.353,89.504
			c1.373,1.178,3.109,1.807,4.883,1.807c0.546,0,1.096-0.06,1.64-0.182c2.309-0.517,4.238-2.094,5.206-4.253l70.14-156.639
			c2.702,0.611,5.508,0.945,8.393,0.945s5.69-0.333,8.393-0.945l28.26,63.111c1.247,2.785,3.983,4.437,6.85,4.437
			c1.024,0,2.065-0.211,3.061-0.657c3.781-1.693,5.473-6.13,3.78-9.91l-28.267-63.127c9.654-6.906,15.964-18.201,15.964-30.949
			c0-20.975-17.064-38.04-38.04-38.04s-38.04,17.064-38.04,38.04c0,12.748,6.31,24.043,15.964,30.949l-66.043,147.489
			l-96.701-82.941c3.112-5.512,4.898-11.869,4.898-18.638c0-20.975-17.064-38.04-38.039-38.04c-20.975,0-38.04,17.064-38.04,38.04
			c0,20.46,16.239,37.191,36.504,38l29.612,185.247l-11.284,21.064c-4.197,7.834-3.977,17.064,0.589,24.689
			c4.566,7.625,12.598,12.178,21.485,12.178h116.935v14.132c-0.025,1.996,0.784,3.975,2.197,5.387l27.487,27.487
			c1.405,1.44,3.374,2.256,5.386,2.256h54.178c2.012,0,3.981-0.816,5.386-2.256l27.487-27.487c1.413-1.412,2.222-3.391,2.197-5.387
			v-14.132h28.143c4.142,0,7.5-3.358,7.5-7.5s-3.358-7.5-7.5-7.5h-28.143V380.29h115.43l10.357,19.333
			c1.708,3.188,1.622,6.797-0.236,9.901c-1.858,3.104-4.999,4.883-8.616,4.883h-53.396c-4.142,0-7.5,3.358-7.5,7.5
			s3.358,7.5,7.5,7.5h53.396c8.888,0,16.919-4.552,21.485-12.178c4.565-7.625,4.786-16.855,0.588-24.689l-11.284-21.063
			l29.612-185.248C495.761,185.42,512,168.689,512,148.229z M256,48.331c12.704,0,23.04,10.335,23.04,23.04S268.704,94.41,256,94.41
			s-23.04-10.335-23.04-23.04S243.296,48.331,256,48.331z M15,148.229c0-12.704,10.335-23.04,23.04-23.04
			c12.704,0,23.039,10.335,23.039,23.04s-10.335,23.04-23.039,23.04C25.335,171.269,15,160.933,15,148.229z M285.747,457.929
			l-6.437-15.54l2.569-2.569l15.54,6.437L285.747,457.929z M214.581,446.257l15.54-6.437l2.569,2.569l-6.437,15.54L214.581,446.257z
			 M208.841,354.813l15.54,6.437v64.712l-15.54,6.437V354.813z M226.253,329.282l6.437,15.539l-2.57,2.57l-15.54-6.437
			L226.253,329.282z M297.419,340.954l-15.54,6.437l-2.57-2.57l6.437-15.539L297.419,340.954z M244.644,433.13l-5.263-5.263v-68.522
			l5.264-5.264h22.712l5.264,5.264v68.522l-5.263,5.263H244.644z M265.451,339.081h-18.903l-6.437-15.539h31.776L265.451,339.081z
			 M246.549,448.13h18.903l6.437,15.54h-31.776L246.549,448.13z M287.62,425.962v-64.712l15.54-6.437v77.586L287.62,425.962z
			 M450.921,148.229c0-12.704,10.335-23.04,23.039-23.04c12.704,0,23.04,10.335,23.04,23.04s-10.335,23.04-23.04,23.04
			C461.257,171.269,450.921,160.933,450.921,148.229z"/>
		<path d="M116.93,330.933c3.447,3.447,7.974,5.17,12.501,5.17s9.055-1.723,12.501-5.17l8.249-8.249
			c6.894-6.893,6.894-18.11,0-25.003l-8.249-8.249c-6.894-6.894-18.109-6.894-25.003,0l-8.249,8.249
			c-6.894,6.893-6.894,18.11,0,25.003L116.93,330.933z M119.288,308.288l8.249-8.249c0.522-0.522,1.209-0.784,1.895-0.784
			s1.373,0.261,1.895,0.784l8.249,8.249c1.045,1.045,1.045,2.745,0,3.79l-8.249,8.249c-1.045,1.045-2.745,1.045-3.79,0l-8.249-8.249
			C118.243,311.033,118.243,309.333,119.288,308.288z"/>
		<path d="M395.07,289.433c-6.894-6.894-18.109-6.894-25.003,0l-8.249,8.249c-6.894,6.893-6.894,18.11,0,25.003l8.249,8.249
			c3.447,3.447,7.974,5.17,12.501,5.17s9.055-1.723,12.501-5.17l8.249-8.249c6.894-6.893,6.894-18.11,0-25.003L395.07,289.433z
			 M392.712,312.078l-8.249,8.249c-1.045,1.045-2.745,1.045-3.79,0l-8.249-8.249c-1.045-1.045-1.045-2.745,0-3.79l8.249-8.249
			c0.522-0.522,1.209-0.784,1.895-0.784s1.373,0.261,1.895,0.784l8.249,8.249C393.757,309.333,393.757,311.033,392.712,312.078z"/>
		<path d="M276.75,234.329c6.894-6.893,6.894-18.11,0-25.003l-8.249-8.249c-6.894-6.894-18.109-6.894-25.003,0l-8.249,8.249
			c-6.894,6.893-6.894,18.11,0,25.003l8.249,8.249c3.446,3.446,7.974,5.169,12.501,5.169s9.055-1.723,12.501-5.169L276.75,234.329z
			 M266.144,223.722l-8.249,8.248c-1.045,1.045-2.745,1.044-3.79,0l-8.249-8.249c-1.045-1.045-1.045-2.745,0-3.79l8.249-8.249
			c0.522-0.522,1.209-0.784,1.895-0.784s1.373,0.261,1.895,0.784l8.249,8.249C267.188,220.977,267.188,222.677,266.144,223.722z"/>
		<path d="M248.5,279.167c0,4.142,3.358,7.5,7.5,7.5s7.5-3.358,7.5-7.5v-0.032c0-4.142-3.358-7.484-7.5-7.484
			S248.5,275.025,248.5,279.167z"/>
		<path d="M263.5,164.115v-0.032c0-4.142-3.358-7.484-7.5-7.484s-7.5,3.374-7.5,7.516s3.358,7.5,7.5,7.5
			S263.5,168.257,263.5,164.115z"/>
		<path d="M418.998,253.765v-0.032c0-4.142-3.358-7.484-7.5-7.484s-7.5,3.374-7.5,7.516s3.358,7.5,7.5,7.5
			S418.998,257.907,418.998,253.765z"/>
		<path d="M108.002,253.733c0-4.142-3.358-7.484-7.5-7.484s-7.5,3.374-7.5,7.516s3.358,7.5,7.5,7.5s7.5-3.358,7.5-7.5V253.733z"/>
		<path d="M184.367,294.855c0,4.142,3.358,7.5,7.5,7.5s7.5-3.358,7.5-7.5v-0.032c0-4.142-3.358-7.484-7.5-7.484
			S184.367,290.713,184.367,294.855z"/>
		<path d="M327.633,294.855v-0.032c0-4.142-3.358-7.484-7.5-7.484s-7.5,3.374-7.5,7.516s3.358,7.5,7.5,7.5
			S327.633,298.998,327.633,294.855z"/>
	</g>
</g>
<g>
</g>
<g>
</g>
<g>
</g>
<g>
</g>
<g>
</g>
<g>
</g>
<g>
</g>
<g>
</g>
<g>
</g>
<g>
</g>
<g>
</g>
<g>
</g>
<g>
</g>
<g>
</g>
<g>
</g>
</svg>
