<?xml version="1.0" encoding="iso-8859-1"?>
<!-- Generator: Adobe Illustrator 23.0.6, SVG Export Plug-In . SVG Version: 6.00 Build 0)  -->
<svg version="1.1" id="Capa_1" xmlns="http://www.w3.org/2000/svg" xmlns:xlink="http://www.w3.org/1999/xlink" x="0px" y="0px"
	 viewBox="0 0 512 512" style="enable-background:new 0 0 512 512;" xml:space="preserve">
<g>
	<g>
		<path style="fill:#756F6F;" d="M270.021,223.806c0-29.887,20.276-54.116,45.288-54.116c25.012,0,45.288,24.229,45.288,54.116
			s-20.276,37.311-45.288,37.311C290.298,261.117,270.021,253.694,270.021,223.806z"/>
		<path style="fill:#5B5555;" d="M360.601,223.808c0,29.888-20.277,37.311-45.292,37.311c-3.903,0-7.691-0.186-11.315-0.599
			c19.533-2.271,33.966-11.491,33.966-36.713s-14.433-46.407-33.966-52.416c3.624-1.115,7.413-1.703,11.315-1.703
			C340.325,169.689,360.601,193.92,360.601,223.808z"/>
		<path style="fill:#756F6F;" d="M392.637,332.934V504.5H139.82V310.19c0-0.32,0-0.63,0.01-0.95
			c0.506-49.649,40.914-89.747,90.687-89.747h48.688c52.292,0,96.314,35.381,109.436,83.512
			C391.243,312.534,392.637,322.579,392.637,332.934z"/>
		<path style="fill:#65BAFC;" d="M328.628,419.894V504.5H195.612v-83.202c19.822,5.121,41.358,7.919,63.886,7.919
			C284.028,429.217,307.381,425.892,328.628,419.894z"/>
		<path style="fill:#5B5555;" d="M392.635,332.934V504.5h-18.057V332.934c0-62.647-50.795-113.441-113.441-113.441h18.067
			C341.851,219.493,392.635,270.287,392.635,332.934z"/>
		<path style="fill:#FFC26D;" d="M388.642,303.004c-4.966,3.52-10.252,6.845-15.827,9.932
			c-30.724,17.066-70.225,27.328-113.317,27.328c-46.128,0-88.137-11.749-119.667-31.024c0.506-49.649,40.914-89.747,90.687-89.747
			h48.688C331.498,219.493,375.52,254.873,388.642,303.004z"/>
		<path style="fill:#FFA730;" d="M388.642,303.004c-4.966,3.52-10.252,6.845-15.827,9.932
			c-9.436-53.107-55.853-93.443-111.676-93.443h18.067C331.498,219.493,375.52,254.873,388.642,303.004z"/>
		<g>
			<path style="fill:#FFC26D;" d="M328.632,504.5V370.872h0c18.012,0,32.613,14.601,32.613,32.613V504.5H328.632z"/>
		</g>
		<g>
			<path style="fill:#FFC26D;" d="M196.376,504.5V370.872h0c-15.624,0-28.29,12.666-28.29,28.29V504.5H196.376z"/>
		</g>
		<g>
			<path style="fill:#ED6264;" d="M316.848,222.136v36.434c0,18.356-8.569,35.112-21.897,46.128
				c-10.056,8.311-22.806,13.349-36.651,13.359c-27.07,0.021-49.927-18.418-56.638-43.403c-1.074-3.975-1.734-8.115-1.941-12.379
				v-40.14c0-5.699,4.625-10.324,10.324-10.324h96.479C312.223,211.812,316.848,216.437,316.848,222.136z"/>
			<path style="fill:#E84649;" d="M294.95,304.698c-10.056,8.311-22.806,13.349-36.651,13.359
				c-27.07,0.021-49.927-18.418-56.638-43.403c9.942-10.252,23.849-16.632,39.221-16.632
				C268.314,258.022,291.089,278.33,294.95,304.698z"/>
			<path style="fill:#756F6F;" d="M225.466,167.638v91.825c0,18.107,14.679,32.785,32.785,32.785h0
				c18.107,0,32.785-14.679,32.785-32.785v-91.825H225.466z"/>
			<path style="fill:#5B5555;" d="M291.038,167.635v91.823c0,9.054-3.665,17.252-9.601,23.188
				c-5.936,5.936-14.134,9.601-23.188,9.601c-3.717,0-7.278-0.619-10.613-1.755c4.78-1.642,9.065-4.346,12.564-7.846
				c5.926-5.936,9.601-14.134,9.601-23.188v-91.823H291.038z"/>
		</g>
		<g>
			<g>
				<circle style="fill:#DAEDFF;" cx="240.888" cy="312.665" r="40.193"/>
				<path style="fill:#B6DCFF;" d="M281.08,312.669c0,22.199-17.992,40.191-40.191,40.191c-4.244,0-8.331-0.653-12.176-1.874
					c16.238-5.163,28.015-20.361,28.015-38.317c0-17.955-11.777-33.154-28.015-38.329c3.845-1.221,7.932-1.874,12.176-1.874
					C263.089,272.466,281.08,290.47,281.08,312.669z"/>
			</g>
		</g>
		<path style="fill:#FFC26D;" d="M148.278,50.573c-20.027,22.787-44.689,66.571-15.549,142.326
			c28.397,73.822,81.643,42.847,81.643,42.847l100.685-54.754c0,0,27.135-27.188,11.847-111.158
			C311.615-14.136,189.716,3.425,148.278,50.573z"/>
		<path style="fill:#FFA730;" d="M315.052,180.994l-17.086,9.292c6.711-9.767,23.333-42.597,10.076-115.424
			c-7.784-42.742-41.42-60.85-79.299-62.647c44.249-5.73,89.262,8.745,98.162,57.619C342.194,153.8,315.052,180.994,315.052,180.994
			z"/>
		<path style="fill:#FFF5F5;" d="M315.052,180.994l-17.086,9.292l-52.168,28.371c-1.704-24.768,1.611-84.41,65.847-118.8
			c5.658-3.035,11.79-5.864,18.429-8.466C337.475,158.529,315.052,180.994,315.052,180.994z"/>
		<path style="fill:#EFE2DD;" d="M315.052,180.994l-17.086,9.292c5.885-8.569,19.409-34.896,13.679-90.429
			c5.658-3.035,11.79-5.864,18.429-8.466C337.475,158.529,315.052,180.994,315.052,180.994z"/>
		<path style="fill:#65BAFC;" d="M259.131,72.236c-57.007,38.648-114.273,33.808-137.079,29.696
			c-5.007,23.26-3.882,53.118,10.675,90.966c0.248,0.64,0.496,1.28,0.754,1.91c64.443-2.085,99.07-18.738,135.308-44.249
			c22.091-15.554,22.799-44.168,19.314-65.93c-1.101-6.873-5.999-12.517-12.62-14.664c-0.064-0.021-0.128-0.042-0.193-0.062
			C269.836,68.13,263.878,69.018,259.131,72.236z"/>
		<path style="fill:#8ECBFD;" d="M247.862,79.333l-54.377,107.691c-9.467,2.406-19.678,4.305-30.91,5.647l51.311-97.873
			C224.932,91.061,236.361,86.023,247.862,79.333z"/>
		<path style="fill:#756F6F;" d="M145.87,58.236h27.988c4.944,0,9.699-1.872,13.309-5.25c8.575-8.023,26.821-23.462,49.741-33.512
			c6.206-2.721,4.218-11.969-2.558-11.975c-25.89-0.022-63.349,7.094-92.624,41.78C138.74,52.819,141.241,58.236,145.87,58.236z"/>
	</g>
	<g>
		<path d="M328.632,363.372c-4.142,0-7.5,3.358-7.5,7.5v43.264c-19.643,5.027-40.346,7.581-61.635,7.581
			c-19.105,0-37.791-2.088-55.621-6.157v-44.688c0-4.142-3.358-7.5-7.5-7.5c-19.735,0-35.79,16.056-35.79,35.791V504.5
			c0,4.142,3.358,7.5,7.5,7.5s7.5-3.358,7.5-7.5V399.162c0-8.821,5.521-16.376,13.29-19.392V504.5c0,4.142,3.358,7.5,7.5,7.5
			s7.5-3.358,7.5-7.5v-73.553c17.909,3.828,36.583,5.77,55.621,5.77c21.208,0,41.892-2.399,61.635-7.127v74.91
			c0,4.142,3.358,7.5,7.5,7.5s7.5-3.358,7.5-7.5V379.515c10.195,3.197,17.613,12.733,17.613,23.969V504.5c0,4.142,3.358,7.5,7.5,7.5
			s7.5-3.358,7.5-7.5V403.484C368.745,381.366,350.75,363.372,328.632,363.372z"/>
		<path d="M392.638,456.531c-4.142,0-7.5,3.358-7.5,7.5V504.5c0,4.142,3.358,7.5,7.5,7.5s7.5-3.358,7.5-7.5v-40.469
			C400.138,459.889,396.781,456.531,392.638,456.531z"/>
		<path d="M139.822,407.198c-4.142,0-7.5,3.358-7.5,7.5V504.5c0,4.142,3.358,7.5,7.5,7.5s7.5-3.358,7.5-7.5v-89.802
			C147.322,410.556,143.964,407.198,139.822,407.198z"/>
		<path d="M378.373,263.701c-4.448-6.361-9.452-12.226-14.93-17.554c3.074-6.232,4.655-13.708,4.655-22.34
			c0-26.814-14.901-50.325-36.236-58.524c6.302-17.893,11.211-48.515,2.421-96.792c-7.621-41.862-41.431-65.995-90.632-64.908
			c-2.457-2.244-5.718-3.58-9.294-3.583c-0.044,0-0.085,0-0.129,0c-27.734,0-67.243,7.725-98.232,44.443
			c-3.004,3.56-3.848,8.282-2.336,12.597c-15.652,22.378-22.935,48.383-21.654,77.389c0.178,4.026,3.497,7.169,7.487,7.169
			c0.112,0,0.224-0.002,0.336-0.007c4.138-0.183,7.345-3.686,7.162-7.823c-0.355-8.041,0.051-15.806,1.171-23.295
			c6.822,0.911,15.404,1.653,25.314,1.652c29.132-0.001,69.629-6.404,109.864-33.682c2.875-1.95,6.387-2.465,9.663-1.4l0.167,0.054
			c3.99,1.294,6.875,4.634,7.528,8.716c5.612,35.048-5.726,51.218-16.226,58.611c-35.367,24.898-67.656,39.982-125.893,42.67
			c-2.495-6.766-4.636-13.459-6.329-19.93c-1.049-4.008-5.151-6.408-9.154-5.357c-4.007,1.049-6.406,5.147-5.357,9.154
			c2.093,7.999,4.782,16.285,7.991,24.627c8.5,22.098,20.021,37.585,34.336,46.206c-17.714,18.258-27.744,42.783-27.744,68.396
			v69.109c0,4.142,3.358,7.5,7.5,7.5s7.5-3.358,7.5-7.5v-57.269c16.795,8.703,35.84,15.473,55.883,19.812
			c8.732,11.251,22.372,18.512,37.684,18.512c12.613,0,24.089-4.93,32.627-12.953c41.172-2.09,79.791-13.406,110.145-32.125
			c0.969,5.79,1.478,11.687,1.478,17.654v95.703c0,4.142,3.358,7.5,7.5,7.5s7.5-3.358,7.5-7.5v-95.703
			C400.138,308.001,392.612,284.062,378.373,263.701z M353.097,223.806c0,4.607-0.561,8.654-1.656,12.121
			c-8.311-6.195-17.422-11.314-27.168-15.228c-0.736-9.157-8.408-16.387-17.751-16.387h-7.986v-5.799l20.103-10.932
			c0.634-0.345,1.215-0.78,1.726-1.291c0.319-0.32,2.505-2.595,5.276-7.326C341.743,184.596,353.097,202.81,353.097,223.806z
			 M287.178,301.196c-0.889-3.586-2.188-7.01-3.839-10.227c9.582-7.61,15.197-19.085,15.197-31.507v-40.151h7.986
			c1.557,0,2.824,1.267,2.824,2.824v36.431C309.347,275.446,300.742,291.503,287.178,301.196z M210.027,276.346
			c-1.607-4.566-2.554-9.333-2.805-14.252v-15.311c5.91-1.834,9.836-3.944,10.744-4.454v17.133c0,3.635,0.488,7.196,1.433,10.646
			C216.025,271.819,212.882,273.916,210.027,276.346z M233.696,265.514c-0.483-1.966-0.73-3.989-0.73-6.052v-25.292l50.571-27.501
			v52.793c0,7.584-3.333,14.61-9.052,19.387c-8.627-8.572-20.503-13.878-33.596-13.878
			C238.444,264.972,236.042,265.158,233.696,265.514z M228.451,15.126c-21.248,10.346-37.977,24.495-46.408,32.384
			c-2.224,2.081-5.13,3.226-8.185,3.226h-23.436C175.114,23.641,205.336,16.141,228.451,15.126z M277.757,62.817l-0.15-0.049
			c-7.681-2.494-15.95-1.307-22.685,3.26c-49.019,33.232-98.362,32.917-123.52,29.743c3.174-10.703,8.003-20.736,14.485-30.035
			h27.97c6.874,0,13.42-2.583,18.434-7.273c8.439-7.897,25.849-22.57,47.628-32.12c3.552-1.557,6.132-4.408,7.38-7.802
			c22.348,0.175,63.889,6.85,72.225,52.635c0.982,5.394,1.78,10.538,2.419,15.447c-8.935,3.817-17.222,8.212-24.826,13.121
			c-0.17-5.188-0.699-10.623-1.608-16.302C293.96,73.769,287.173,65.871,277.757,62.817z M273.107,156.691
			c12.225-8.607,19.867-21.379,22.758-37.68c8.095-6.332,17.357-11.914,27.653-16.664c3.32,48.401-10.257,68.837-13.266,72.72
			l-57.216,31.115c0.298-11.81,2.293-26.393,8.322-41.541C265.283,162.097,269.189,159.449,273.107,156.691z M144.819,201.764
			c41.43-2.558,70.835-11.611,97.154-25.64c-3.569,14.507-4.252,27.808-3.899,38.194l-27.285,14.838
			c-0.044,0.024-0.117,0.065-0.161,0.09c-0.171,0.098-17.3,9.669-35.531,3.166c-2.727-0.973-5.356-2.257-7.888-3.842l21.841-5.71
			c4.007-1.048,6.407-5.146,5.359-9.153c-1.048-4.007-5.144-6.408-9.153-5.359l-28.506,7.452c-0.87,0.227-1.657,0.605-2.357,1.088
			C150.94,212.602,147.742,207.568,144.819,201.764z M147.487,305.058c1.351-21.818,11.266-42.334,27.686-56.978
			c4.635,1.151,9.127,1.616,13.35,1.616c1.259,0,2.492-0.045,3.7-0.121v12.702c0,0.119,0.003,0.238,0.008,0.356
			c0.447,9.39,2.847,18.355,7.091,26.689c-3.893,6.905-6.126,14.865-6.126,23.342c0,4.022,0.506,7.928,1.448,11.662
			C177.523,319.659,161.479,313.112,147.487,305.058z M240.888,345.358c-18.027,0-32.693-14.666-32.693-32.693
			c0-18.027,14.666-32.693,32.693-32.693c17.973,0,32.601,14.578,32.689,32.53c-0.044,0.413-0.05,0.83-0.023,1.249
			C272.978,331.276,258.551,345.358,240.888,345.358z M284.678,331.541c1.816-4.197,3.042-8.704,3.581-13.417
			c22.067-11.537,36.087-34.427,36.087-59.557v-21.5c16.709,7.865,31.033,19.929,41.733,35.23
			c5.986,8.56,10.602,17.849,13.799,27.605C353.949,316.998,320.707,328.024,284.678,331.541z"/>
		<path d="M250.106,318.99h-0.129v-19.887c0-2.599-1.346-5.013-3.557-6.38c-2.209-1.366-4.972-1.49-7.297-0.329l-8.883,4.441
			c-3.705,1.853-5.207,6.357-3.354,10.063c1.533,3.066,4.884,4.627,8.092,4.019v8.072h-0.13c-4.142,0-7.5,3.358-7.5,7.5
			s3.358,7.5,7.5,7.5h15.259c4.142,0,7.5-3.358,7.5-7.5S254.248,318.99,250.106,318.99z"/>
		<path d="M283.47,391.724c4.142,0,7.5-3.358,7.5-7.5s-3.358-7.5-7.5-7.5h-55.75c-4.142,0-7.5,3.358-7.5,7.5s3.358,7.5,7.5,7.5
			H283.47z"/>
		<path d="M227.72,460.35h-9.292c-4.142,0-7.5,3.358-7.5,7.5s3.358,7.5,7.5,7.5h9.292c4.142,0,7.5-3.358,7.5-7.5
			S231.862,460.35,227.72,460.35z"/>
		<path d="M292.762,460.35h-9.292c-4.142,0-7.5,3.358-7.5,7.5s3.358,7.5,7.5,7.5h9.292c4.142,0,7.5-3.358,7.5-7.5
			S296.904,460.35,292.762,460.35z"/>
		<path d="M269.289,100.247v-0.032c0-4.142-3.358-7.484-7.5-7.484s-7.5,3.374-7.5,7.516s3.358,7.5,7.5,7.5
			S269.289,104.389,269.289,100.247z"/>
	</g>
</g>
<g>
</g>
<g>
</g>
<g>
</g>
<g>
</g>
<g>
</g>
<g>
</g>
<g>
</g>
<g>
</g>
<g>
</g>
<g>
</g>
<g>
</g>
<g>
</g>
<g>
</g>
<g>
</g>
<g>
</g>
</svg>
