<?xml version="1.0" encoding="iso-8859-1"?>
<!-- Generator: Adobe Illustrator 23.0.6, SVG Export Plug-In . SVG Version: 6.00 Build 0)  -->
<svg version="1.1" id="Capa_1" xmlns="http://www.w3.org/2000/svg" xmlns:xlink="http://www.w3.org/1999/xlink" x="0px" y="0px"
	 viewBox="0 0 511.996 511.996" style="enable-background:new 0 0 511.996 511.996;" xml:space="preserve">
<g>
	<g>
		<path style="fill:#C47A4A;" d="M369.491,50.224c0,22.505-17.413,40.948-39.498,42.599c-1.07,0.08-2.14,0.12-3.231,0.12
			c-23.595,0-42.719-19.124-42.719-42.719c0-11.822,4.801-22.515,12.553-30.256c7.732-7.712,18.394-12.473,30.166-12.473
			C350.357,7.496,369.491,26.629,369.491,50.224z"/>
		<path style="fill:#B7693E;" d="M329.993,92.823c-1.07,0.08-2.14,0.12-3.231,0.12c-23.595,0-42.719-19.124-42.719-42.719
			c0-11.822,4.801-22.515,12.553-30.256c2.851,2.551,5.551,5.321,8.112,8.282C319.521,45.433,328.353,68.108,329.993,92.823z"/>
		<path style="fill:#D68A5A;" d="M261.308,184.496c48.533-13.759,54.977-45.827,54.977-83.195c0-49.91-32.305-90.369-80.529-90.369
			c-62.434,0-87.918,24.97-94.108,67.804c-5.692,39.392,42.842,87.777,54.735,105.76H261.308z"/>
		<path style="fill:#C47A4A;" d="M293.766,101.305c0,37.373-6.447,69.439-54.993,83.191h22.543
			c48.525-13.759,54.965-45.826,54.965-83.191c0-49.91-32.297-90.368-80.526-90.368c-4.851,0-9.492,0.15-13.903,0.45
			C265.27,15.887,293.766,54.425,293.766,101.305z"/>
		<g>
			<g>
				<g>
					<path style="fill:#E0D3CE;" d="M392.766,338.282v166.213H147.836V316.248c0-48.52,39.338-87.868,87.868-87.868h47.169
						C343.566,228.38,392.766,277.59,392.766,338.282z"/>
					<polygon style="fill:#FFF5F5;" points="289.756,467.948 215.229,337.212 256.23,337.212 330.757,467.948 					"/>
					<rect x="196.446" y="467.948" style="fill:#756F6F;" width="134.307" height="36.547"/>
					<path style="fill:#CDBFBB;" d="M392.764,338.282v166.213H375.27V338.282c0-60.692-49.21-109.902-109.902-109.902h17.504
						C343.564,228.38,392.764,277.59,392.764,338.282z"/>
				</g>
				<g>
					<circle style="fill:#F5A871;" cx="142.97" cy="157.438" r="23.74"/>
					<path style="fill:#ED6264;" d="M310.338,230.936v35.3c0,18.99-9.45,36.2-23.88,46.76c-9.28,6.81-20.63,10.86-32.84,10.87
						c-26.15,0.03-48.23-17.72-54.82-41.81c-1.07-3.92-1.73-8.02-1.93-12.23v-48.89h103.47
						C305.858,220.936,310.338,225.416,310.338,230.936z"/>
					<path style="fill:#E84649;" d="M286.458,312.996c-9.28,6.81-20.63,10.86-32.84,10.87c-26.15,0.03-48.23-17.72-54.82-41.81
						c9.39-8.45,21.8-13.6,35.39-13.6C260.518,268.456,282.428,287.786,286.458,312.996z"/>
					<path style="fill:#FFBC8A;" d="M146.936,92.22v80.794c0,41.378,33.51,74.926,74.871,74.996v19.093
						c0,17.542,14.221,31.763,31.762,31.763h0c17.542,0,31.763-14.221,31.763-31.763V92.22H146.936z"/>
					<circle style="fill:#FFBC8A;" cx="294.042" cy="157.438" r="23.74"/>
				</g>
			</g>
			<g>
				<path style="fill:#ED6264;" d="M220.143,187.997c0,12.804-6.52,15.809-14.563,15.809c-8.043,0-14.563-3.005-14.563-15.809
					s6.52-30.558,14.563-30.558C213.623,157.438,220.143,175.193,220.143,187.997z"/>
			</g>
			<g>
				<g>
					<circle style="fill:#FFC26D;" cx="234.191" cy="321.395" r="38.939"/>
					<path style="fill:#FFA730;" d="M273.129,321.4c0,21.507-17.43,38.937-38.937,38.937c-4.112,0-8.071-0.633-11.796-1.816
						c15.732-5.002,27.141-19.726,27.141-37.121s-11.409-32.119-27.141-37.133c3.725-1.183,7.684-1.816,11.796-1.816
						C255.699,282.451,273.129,299.893,273.129,321.4z"/>
				</g>
			</g>
		</g>
		<g>
			<path style="fill:#756F6F;" d="M314.964,111.005H143.08c-5.206,0-9.426-4.22-9.426-9.426V80.043c0-5.206,4.22-9.426,9.426-9.426
				h171.884c5.206,0,9.426,4.22,9.426,9.426v21.536C324.39,106.785,320.17,111.005,314.964,111.005z"/>
			<path style="fill:#5B5555;" d="M324.392,80.04v21.534c0,5.211-4.221,9.432-9.432,9.432h-19.594c5.211,0,9.432-4.221,9.432-9.432
				V80.04c0-5.201-4.221-9.422-9.432-9.422h19.594C320.171,70.618,324.392,74.839,324.392,80.04z"/>
		</g>
	</g>
	<g>
		<path d="M147.837,438.193c-4.142,0-7.5,3.358-7.5,7.5v58.802c0,4.142,3.358,7.5,7.5,7.5s7.5-3.358,7.5-7.5v-58.802
			C155.337,441.551,151.979,438.193,147.837,438.193z"/>
		<path d="M376.108,266.937c-14.863-19.395-35.752-33.862-58.996-40.953c-2.144-7.243-8.848-12.546-16.776-12.546h-7.503v-24.789
			c0.402,0.015,0.805,0.029,1.21,0.029c8.345,0,16.189-3.25,22.09-9.15s9.149-13.746,9.149-22.09c0-6.456-1.952-12.608-5.565-17.797
			c1.854-6.835,3.043-14.546,3.62-23.372c5.101-2.919,8.553-8.405,8.553-14.691v-1.394c25.294-2.576,45.096-24,45.096-49.963
			C376.986,22.529,354.457,0,326.765,0c-15.923,0-30.755,7.547-40.166,20.073C272.369,9.366,254.93,3.432,235.755,3.432
			c-29.5,0-51.883,5.337-68.43,16.317c-15.224,10.102-25.177,24.701-30.4,44.543c-6.296,2.469-10.772,8.591-10.772,15.751v21.536
			c0,8.082,5.697,14.849,13.283,16.521v8.303c-15.568,1.761-27.708,15.004-27.708,31.035c0,16.536,12.917,30.104,29.189,31.165
			c4.24,22.053,17.307,41.006,35.356,53.056c-22.676,18.013-35.937,45.17-35.937,74.591v94.047c0,4.142,3.358,7.5,7.5,7.5
			s7.5-3.358,7.5-7.5v-94.047c0-26.37,12.64-50.587,34.03-65.668v19.247c0,0.119,0.003,0.238,0.008,0.356
			c0.42,8.816,2.588,17.237,6.442,25.088c-5.086,7.448-8.066,16.442-8.066,26.121c0,21.86,15.186,40.229,35.56,45.14l53.536,93.913
			h-20.02c-4.142,0-7.5,3.358-7.5,7.5s3.358,7.5,7.5,7.5h32.928h33.502v29.047c0,4.142,3.357,7.5,7.5,7.5s7.5-3.358,7.5-7.5V375.036
			c0-4.142-3.357-7.5-7.5-7.5s-7.5,3.358-7.5,7.5v64.612l-51.709-90.706c4.976-6.731,8.171-14.848,8.905-23.656
			c22.461-10.689,37.383-34.093,37.383-59.051v-24.207c40.037,14.558,67.429,53.14,67.429,96.253v166.214c0,4.142,3.357,7.5,7.5,7.5
			s7.5-3.358,7.5-7.5V338.281C400.267,312.233,391.913,287.563,376.108,266.937z M308.126,118.505
			c-0.325,3.713-0.778,7.169-1.363,10.391c-3.952-1.763-8.262-2.698-12.719-2.698c-0.405,0-0.808,0.014-1.21,0.029v-7.722H308.126z
			 M326.765,15c19.421,0,35.222,15.8,35.222,35.222c0,17.68-13.096,32.355-30.096,34.845v-5.024c0-8.487-6.286-15.515-14.443-16.723
			c-0.589-1.67-1.226-3.301-1.887-4.913c3.047-5.242,9.253-13.493,16.832-15.186c4.043-0.903,6.588-4.912,5.685-8.955
			c-0.902-4.042-4.915-6.585-8.954-5.685c-7.697,1.72-15.061,6.796-21.326,14.68c-2.982-4.729-6.331-9.086-9.998-13.053
			C304.342,20.755,315.132,15,326.765,15z M235.755,18.432c29.249,0,53.676,16.903,65.517,44.685h-27.577
			c-4.143,0-7.5,3.358-7.5,7.5s3.357,7.5,7.5,7.5h41.269c1.063,0,1.927,0.864,1.927,1.926v21.536c0,1.063-0.864,1.927-1.927,1.927
			H143.08c-1.063,0-1.927-0.864-1.927-1.927V80.042c0-1.062,0.864-1.926,1.927-1.926h95.22c4.142,0,7.5-3.358,7.5-7.5
			s-3.358-7.5-7.5-7.5h-85.392C163.152,32.29,189.053,18.432,235.755,18.432z M126.729,157.438c0-7.741,5.448-14.223,12.708-15.842
			v31.418c0,0.09,0.006,0.178,0.006,0.268C132.18,171.665,126.729,165.181,126.729,157.438z M154.437,173.014v-54.509h123.396
			v12.218c-2.112,1.287-4.087,2.831-5.881,4.625c-2.929,2.929-2.929,7.678,0.001,10.606c2.928,2.93,7.677,2.929,10.606,0
			c3.066-3.067,7.145-4.756,11.483-4.756c4.338,0,8.416,1.689,11.483,4.756s4.756,7.146,4.756,11.484s-1.688,8.417-4.757,11.484
			c-3.066,3.067-7.145,4.756-11.482,4.756c-4.339,0-8.417-1.689-11.483-4.756c-2.929-2.929-7.678-2.929-10.606,0
			c-2.93,2.929-2.93,7.677-0.001,10.606c1.793,1.793,3.769,3.338,5.881,4.625v82.949c0,8.558-4.46,16.351-11.614,20.714
			c-8.339-7.958-19.619-12.86-32.029-12.86c-1.185,0-2.357,0.059-3.52,0.147c-0.891-2.558-1.363-5.266-1.363-8.001V248.01
			c0-4.137-3.35-7.493-7.487-7.5C184.665,240.447,154.437,210.169,154.437,173.014z M207.167,283.664
			c-1.61-4.483-2.553-9.172-2.8-14.019v-16.043c3.25,0.708,6.562,1.246,9.941,1.557v11.943c0,3.924,0.605,7.818,1.748,11.543
			C212.897,279.991,209.923,281.685,207.167,283.664z M202.751,321.395c0-17.335,14.104-31.439,31.439-31.439
			c17.335,0,31.439,14.104,31.439,31.439c0,17.336-14.104,31.439-31.439,31.439C216.855,352.834,202.751,338.731,202.751,321.395z
			 M294.113,460.448l-53.084-93.121c7.112-1.054,13.701-3.727,19.385-7.631l57.436,100.752H294.113z M302.838,266.235
			c0,17.344-9.356,33.714-23.891,42.8c-0.894-3.234-2.127-6.327-3.664-9.238c10.837-7.186,17.55-19.355,17.55-32.694v-38.664h7.503
			c1.38,0,2.502,1.123,2.502,2.502V266.235z"/>
		<path d="M184.891,148.424c0-4.142-3.358-7.484-7.5-7.484s-7.5,3.374-7.5,7.516s3.358,7.5,7.5,7.5s7.5-3.358,7.5-7.5V148.424z"/>
		<path d="M238.007,155.955c4.142,0,7.5-3.358,7.5-7.5v-0.031c0-4.142-3.358-7.484-7.5-7.484s-7.5,3.374-7.5,7.516
			S233.865,155.955,238.007,155.955z"/>
		<path d="M227.643,187.997c0-15.555-7.856-38.058-22.063-38.058s-22.063,22.503-22.063,38.058c0,15.031,7.835,23.309,22.063,23.309
			S227.643,203.028,227.643,187.997z M205.58,196.306c-4.641,0-7.063-0.37-7.063-8.309c0-10.151,4.375-20.237,7.063-22.716
			c2.688,2.479,7.063,12.564,7.063,22.716C212.643,195.936,210.221,196.306,205.58,196.306z"/>
		<path d="M228.758,229.41c0.028,0.002,0.344,0.021,0.893,0.021c4.771,0,27.13-1.456,31.36-28.283
			c0.646-4.091-2.148-7.931-6.24-8.577c-4.088-0.638-7.931,2.149-8.577,6.241c-2.445,15.505-14.075,15.742-16.417,15.632
			c-4.101-0.262-7.656,2.833-7.955,6.94C221.521,225.517,224.626,229.109,228.758,229.41z"/>
		<path d="M250.621,334.789c0-4.105-3.3-7.436-7.391-7.495v-19.038c0-2.599-1.346-5.013-3.557-6.38
			c-2.21-1.366-4.971-1.49-7.297-0.329l-8.606,4.303c-3.705,1.853-5.207,6.357-3.354,10.063c1.49,2.978,4.693,4.535,7.814,4.066
			v7.315c-4.091,0.059-7.392,3.389-7.392,7.495c0,4.142,3.358,7.5,7.5,7.5h14.783C247.263,342.289,250.621,338.931,250.621,334.789z
			"/>
		<path d="M220.302,460.448h-16.355v-85.412c0-4.142-3.358-7.5-7.5-7.5s-7.5,3.358-7.5,7.5v129.459c0,4.142,3.358,7.5,7.5,7.5
			s7.5-3.358,7.5-7.5v-29.047h16.355c4.142,0,7.5-3.358,7.5-7.5S224.444,460.448,220.302,460.448z"/>
	</g>
</g>
<g>
</g>
<g>
</g>
<g>
</g>
<g>
</g>
<g>
</g>
<g>
</g>
<g>
</g>
<g>
</g>
<g>
</g>
<g>
</g>
<g>
</g>
<g>
</g>
<g>
</g>
<g>
</g>
<g>
</g>
</svg>
