<?xml version="1.0" encoding="iso-8859-1"?>
<!-- Generator: Adobe Illustrator 23.0.6, SVG Export Plug-In . SVG Version: 6.00 Build 0)  -->
<svg version="1.1" id="Capa_1" xmlns="http://www.w3.org/2000/svg" xmlns:xlink="http://www.w3.org/1999/xlink" x="0px" y="0px"
	 viewBox="0 0 512 512" style="enable-background:new 0 0 512 512;" xml:space="preserve">
<g>
	<g>
		<g>
			<path style="fill:#ED6264;" d="M314.99,138.337H144.758V59.937c0-28.96,23.477-52.437,52.437-52.437h65.357
				c28.96,0,52.437,23.477,52.437,52.437V138.337z"/>
			<path style="fill:#E84649;" d="M314.988,59.941v78.392h-16.293V59.941c0-28.963-23.485-52.438-52.438-52.438h16.292
				C291.513,7.503,314.988,30.977,314.988,59.941z"/>
		</g>
		<g>
			<g>
				<g>
					<g>
						<path style="fill:#ED6264;" d="M395.501,334.964V504.5H145.676V312.489c0-35.278,20.373-65.792,50.01-80.412
							c0.867-0.428,1.745-0.847,2.632-1.245c11.273-5.121,23.791-7.968,36.982-7.968h48.112c17.507,0,34.074,4.009,48.837,11.181
							C369.69,252.186,395.501,290.565,395.501,334.964z"/>
						<polygon style="fill:#FFF5F5;" points="395.501,382.271 395.501,504.5 145.676,504.5 145.676,385.117 264.641,462.845 						
							"/>
						<path style="fill:#D68A5A;" d="M195.686,232.078V504.5h-50.01V312.489C145.676,277.211,166.05,246.697,195.686,232.078z"/>
						<rect x="145.677" y="417.792" style="fill:#65BAFC;" width="50.009" height="37.789"/>
						<path style="fill:#E84649;" d="M395.5,334.964V504.5h-17.843V334.964c0-61.905-50.193-112.099-112.099-112.099h17.853
							C345.316,222.865,395.5,273.059,395.5,334.964z"/>
						<path style="fill:#D68A5A;" d="M395.501,334.964V504.5h-56.355V237.689C372.822,257.021,395.501,293.351,395.501,334.964z"/>
						<path style="fill:#C47A4A;" d="M395.501,334.964V504.5h-17.843V334.964c0-33.738-14.915-64.007-38.512-84.564v-12.712
							C372.822,257.021,395.501,293.351,395.501,334.964z"/>
					</g>
					<g>
						<path style="fill:#65BAFC;" d="M195.687,215.275v68.232c1.459,30.654,26.867,55.143,57.881,55.12
							c31.826-0.024,57.858-26.961,57.858-58.787v-54.364c0-5.634-4.568-10.202-10.202-10.202H195.687z"/>
						<circle style="fill:#C47A4A;" cx="140.712" cy="150.506" r="24.215"/>
						<path style="fill:#2EA8FC;" d="M272.119,320.263c0,5.56-0.847,10.926-2.408,15.976c-5.132,1.551-10.539,2.387-16.139,2.387
							c-29.045,0.02-53.183-21.455-57.325-49.367c-0.275-1.887-0.469-3.805-0.561-5.754v-12.355
							c6.835-3.132,14.436-4.887,22.434-4.887C247.9,266.264,272.119,290.494,272.119,320.263z"/>
						<path style="fill:#D68A5A;" d="M162.748,83.984c-9.935,0-17.989,8.054-17.989,17.989v64.42
							c0,42.205,34.18,76.424,76.368,76.495v37.838c0,17.893,14.505,32.397,32.397,32.397h0c17.893,0,32.397-14.505,32.397-32.397
							V117.311c0-18.406-14.921-33.327-33.327-33.327H162.748z"/>
						<circle style="fill:#D68A5A;" cx="294.805" cy="150.506" r="24.215"/>
					</g>
				</g>
				<g>
					<path style="fill:#ED6264;" d="M219.428,181.675c0,13.06-6.65,16.125-14.854,16.125s-14.854-3.065-14.854-16.125
						s6.65-31.169,14.854-31.169S219.428,168.615,219.428,181.675z"/>
				</g>
			</g>
			<g>
				<g>
					<circle style="fill:#FFC26D;" cx="218.123" cy="320.266" r="39.717"/>
					<path style="fill:#FFA730;" d="M257.84,320.27c0,21.937-17.779,39.715-39.715,39.715c-4.194,0-8.232-0.645-12.032-1.852
						c16.046-5.102,27.684-20.121,27.684-37.863s-11.637-32.761-27.684-37.875c3.799-1.207,7.838-1.852,12.032-1.852
						C240.061,280.543,257.84,298.334,257.84,320.27z"/>
				</g>
			</g>
			<path style="fill:#FFF5F5;" d="M283.073,410.867h-35.031c-5.634,0-10.202-4.568-10.202-10.202v-8.448
				c0-5.634,4.568-10.202,10.202-10.202h35.031c5.634,0,10.202,4.568,10.202,10.202v8.448
				C293.275,406.299,288.707,410.867,283.073,410.867z"/>
		</g>
	</g>
	<g>
		<path d="M397.589,299.292c-1.234-3.954-5.441-6.16-9.394-4.925c-3.954,1.234-6.159,5.439-4.925,9.394
			c3.141,10.062,4.732,20.56,4.732,31.202V504.5c0,4.142,3.357,7.5,7.5,7.5s7.5-3.358,7.5-7.5V334.963
			C403.003,322.804,401.182,310.802,397.589,299.292z"/>
		<path d="M343.472,231.572c-0.417-0.295-0.864-0.551-1.338-0.757c-7.56-4.279-15.579-7.743-23.924-10.28
			c-2.146-7.361-8.941-12.759-16.985-12.759h-7.804v-25.588c0.46,0.02,0.921,0.034,1.384,0.034c8.472,0,16.436-3.299,22.427-9.289
			c10.245-10.246,11.992-25.812,5.259-37.883V59.938C322.49,26.888,295.603,0,262.553,0h-65.356
			c-33.05,0-59.938,26.888-59.938,59.938v59.045c-15.869,1.727-28.262,15.203-28.262,31.523c0,16.828,13.176,30.63,29.752,31.648
			c4.308,22.57,17.694,41.961,36.189,54.244c-23.178,18.357-36.761,46.145-36.761,76.095v105.28c0,0.007-0.001,37.808-0.001,37.808
			c0,0.007,0.001,48.919,0.001,48.919c0,4.142,3.357,7.5,7.5,7.5s7.5-3.358,7.5-7.5v-41.419h35.01V504.5c0,4.142,3.357,7.5,7.5,7.5
			s7.5-3.358,7.5-7.5v-72.847l57.351,37.471c1.245,0.813,2.673,1.221,4.103,1.221c1.362,0,2.726-0.371,3.933-1.114l63.072-38.836
			V504.5c0,4.142,3.357,7.5,7.5,7.5s7.5-3.358,7.5-7.5V251.692c8.309,6.317,15.708,13.863,21.844,22.426
			c1.465,2.044,3.767,3.132,6.103,3.132c1.513,0,3.039-0.456,4.362-1.404c3.367-2.413,4.141-7.098,1.729-10.465
			C370.784,251.566,358.016,240.05,343.472,231.572z M123.997,150.506c0-8.033,5.697-14.756,13.262-16.352
			c0,0,0.01,32.55,0.011,32.706C129.699,165.269,123.997,158.543,123.997,150.506z M152.259,166.393v-64.419
			c0-5.784,4.705-10.489,10.489-10.489h25.555c4.143,0,7.5-3.358,7.5-7.5s-3.357-7.5-7.5-7.5h-25.555
			c-3.738,0-7.288,0.816-10.489,2.268V59.938c0-24.779,20.159-44.938,44.938-44.938h65.356c24.778,0,44.938,20.159,44.938,44.938
			v61.492c-3.95-1.724-8.246-2.639-12.686-2.639c-0.463,0-0.924,0.014-1.384,0.034v-1.514c0-22.512-18.314-40.827-40.826-40.827
			h-28.897c-4.143,0-7.5,3.358-7.5,7.5s3.357,7.5,7.5,7.5h28.897c14.24,0,25.826,11.586,25.826,25.827v6.029
			c-2.172,1.315-4.201,2.9-6.042,4.741c-2.929,2.929-2.929,7.678,0.001,10.606c2.928,2.93,7.677,2.929,10.606,0
			c3.156-3.157,7.354-4.896,11.818-4.896s8.662,1.739,11.819,4.896c0.36,0.36,0.692,0.737,1.012,1.12
			c0.347,1.745,1.299,3.271,2.629,4.352c2.474,6.049,1.263,13.264-3.64,18.167c-3.158,3.157-7.355,4.896-11.82,4.896
			s-8.662-1.738-11.818-4.896c-2.93-2.929-7.679-2.93-10.606,0c-2.93,2.929-2.93,7.677-0.001,10.606
			c1.841,1.841,3.87,3.426,6.042,4.741v103.053c0,10.405-6.524,19.611-15.98,23.244c-5.469-14.825-18.178-26.162-33.813-29.729
			v-31.353c0-4.137-3.351-7.493-7.487-7.5C183.158,235.324,152.259,204.373,152.259,166.393z M185.906,320.266
			c0-17.765,14.452-32.217,32.217-32.217s32.218,14.453,32.218,32.217c0,17.765-14.453,32.218-32.218,32.218
			S185.906,338.031,185.906,320.266z M213.627,250.044v23.224c-3.614,0.343-7.107,1.101-10.439,2.216v-27.076
			C206.597,249.159,210.077,249.722,213.627,250.044z M188.187,448.081h-35.009v-22.789h35.009V448.081z M153.178,410.292v-97.8
			c0-26.967,13.028-51.864,35.01-67.266v38.281c0,0.088,0.01,0.174,0.013,0.262c-10.551,8.667-17.294,21.808-17.294,36.496
			c0,14.682,6.738,27.819,17.281,36.486v53.541H153.178z M331.646,412.781l-66.886,41.184l-61.566-40.227
			c-0.002-0.001-0.004-0.002-0.006-0.003v-48.687c4.698,1.571,9.716,2.435,14.936,2.435c16.554,0,31.135-8.57,39.568-21.498
			c9.013-0.604,17.916-3.154,25.974-7.47c3.651-1.956,5.026-6.501,3.07-10.152c-1.954-3.651-6.5-5.027-10.152-3.07
			c-3.93,2.105-8.021,3.625-12.229,4.593c0.646-3.107,0.988-6.325,0.988-9.621c0-0.476-0.022-0.947-0.036-1.42
			c16.502-5.1,28.116-20.549,28.116-38.12v-57.95h7.804c1.489,0,2.701,1.212,2.701,2.702v54.364c0,8.035-1.973,16.115-5.704,23.367
			c-1.896,3.684-0.445,8.206,3.237,10.101c1.098,0.565,2.271,0.833,3.426,0.833c2.72,0,5.345-1.485,6.675-4.07
			c4.819-9.366,7.366-19.819,7.366-30.23V236.58c4.365,1.58,8.614,3.449,12.72,5.593V412.781z"/>
		<path d="M183.321,141.311c0-4.142-3.357-7.484-7.5-7.484s-7.5,3.374-7.5,7.516s3.357,7.5,7.5,7.5s7.5-3.358,7.5-7.5V141.311z"/>
		<path d="M237.649,148.843c4.143,0,7.5-3.358,7.5-7.5v-0.032c0-4.142-3.357-7.484-7.5-7.484s-7.5,3.374-7.5,7.516
			S233.507,148.843,237.649,148.843z"/>
		<path d="M226.928,181.675c0-15.805-7.96-38.669-22.354-38.669s-22.354,22.864-22.354,38.669c0,15.235,7.938,23.625,22.354,23.625
			S226.928,196.91,226.928,181.675z M204.574,190.3c-5.518,0-7.354-1.247-7.354-8.625c0-10.57,4.589-20.985,7.354-23.375
			c2.765,2.391,7.354,12.806,7.354,23.375C211.928,189.053,210.092,190.3,204.574,190.3z"/>
		<path d="M221.29,215.742c-0.301,4.131,2.805,7.724,6.936,8.025c0.029,0.002,0.35,0.022,0.906,0.022
			c4.841,0,27.537-1.478,31.833-28.722c0.646-4.091-2.148-7.931-6.24-8.577c-4.097-0.644-7.933,2.149-8.576,6.241
			c-2.516,15.951-14.504,16.187-16.9,16.071C225.133,208.541,221.589,211.633,221.29,215.742z"/>
		<path d="M234.731,333.927c0-4.142-3.357-7.5-7.5-7.5h-0.039v-19.563c0-2.6-1.346-5.014-3.558-6.38
			c-2.211-1.367-4.972-1.491-7.297-0.328l-8.777,4.389c-3.705,1.853-5.206,6.357-3.354,10.063c1.517,3.031,4.804,4.586,7.985,4.038
			v7.781h-0.039c-4.143,0-7.5,3.358-7.5,7.5s3.357,7.5,7.5,7.5h15.078C231.374,341.427,234.731,338.069,234.731,333.927z"/>
		<path d="M283.073,374.515h-35.031c-9.761,0-17.702,7.941-17.702,17.702v8.448c0,9.761,7.941,17.702,17.702,17.702h35.031
			c9.761,0,17.701-7.941,17.701-17.702v-8.448C300.774,382.456,292.834,374.515,283.073,374.515z M285.774,400.665
			c0,1.49-1.212,2.702-2.701,2.702h-35.031c-1.49,0-2.702-1.212-2.702-2.702v-8.448c0-1.49,1.212-2.702,2.702-2.702h35.031
			c1.489,0,2.701,1.212,2.701,2.702V400.665z"/>
	</g>
</g>
<g>
</g>
<g>
</g>
<g>
</g>
<g>
</g>
<g>
</g>
<g>
</g>
<g>
</g>
<g>
</g>
<g>
</g>
<g>
</g>
<g>
</g>
<g>
</g>
<g>
</g>
<g>
</g>
<g>
</g>
</svg>
