<?xml version="1.0" encoding="iso-8859-1"?>
<!-- Generator: Adobe Illustrator 23.0.6, SVG Export Plug-In . SVG Version: 6.00 Build 0)  -->
<svg version="1.1" id="Capa_1" xmlns="http://www.w3.org/2000/svg" xmlns:xlink="http://www.w3.org/1999/xlink" x="0px" y="0px"
	 viewBox="0 0 511.994 511.994" style="enable-background:new 0 0 511.994 511.994;" xml:space="preserve">
<g>
	<g>
		<g>
			<path style="fill:#F37D7E;" d="M323.587,272.007v222.08c0,8.3-9.24,13.25-16.15,8.67l-27.8-18.43l-23.64-15.67l-23.64,15.67
				l-27.8,18.43c-6.91,4.58-16.15-0.37-16.15-8.67v-222.08H323.587z"/>
			<path style="fill:#ED6264;" d="M323.587,272.007v41.86c-1.13,0.15-2.28,0.22-3.43,0.22c-5.91,0-11.49-1.95-16.08-5.5
				c-1.23,4.21-3.47,8.04-6.58,11.17c-5.05,5.07-12.14,7.97-19.46,7.97c-9.12,0.01-17.15-4.34-22.04-11.53
				c-4.89,7.19-12.92,11.53-22.04,11.53c-7.32,0-14.41-2.9-19.46-7.97c-3.11-3.13-5.35-6.95-6.58-11.17
				c-4.59,3.55-10.17,5.5-16.08,5.5c-1.15,0-2.3-0.07-3.43-0.22v-41.86H323.587z"/>
			<path style="fill:#ED6264;" d="M323.587,272.007v222.08c0,8.3-9.24,13.25-16.15,8.67l-6.77-4.49c0.55-1.26,0.86-2.66,0.86-4.18
				v-222.08H323.587z"/>
			<polygon style="fill:#FFF5F5;" points="279.637,272.007 279.637,484.327 255.997,468.657 232.357,484.327 232.357,272.007 			"/>
			<path style="fill:#E0D3CE;" d="M279.637,272.007v55.67c-0.53,0.03-1.07,0.05-1.6,0.05c-9.12,0.01-17.15-4.34-22.04-11.53
				c-4.89,7.19-12.92,11.53-22.04,11.53c-0.53,0-1.07-0.02-1.6-0.05v-55.67H279.637z"/>
		</g>
		<g>
			<g>
				<g>
					<g>
						<path style="fill:#65BAFC;" d="M265.82,16.541L265.82,16.541c4.535-14.139,25.413-10.832,25.358,4.016l0,0
							c-0.038,10.033,12.818,14.21,18.684,6.071l0,0c8.682-12.045,27.517-2.448,22.875,11.656l0,0
							c-3.136,9.53,7.799,17.475,15.894,11.548l0,0c11.98-8.773,26.927,6.175,18.154,18.154l0,0
							c-5.928,8.094,2.017,19.03,11.548,15.894l0,0c14.104-4.641,23.701,14.193,11.656,22.875l0,0
							c-8.139,5.867-3.962,18.722,6.071,18.684h0c14.848-0.056,18.155,20.822,4.016,25.358l0,0c-9.553,3.064-9.553,16.581,0,19.646
							l0,0c14.139,4.535,10.832,25.413-4.016,25.358h0c-10.033-0.038-14.21,12.818-6.071,18.684l0,0
							c12.045,8.682,2.448,27.517-11.656,22.875l0,0c-9.53-3.136-17.475,7.799-11.548,15.894l0,0
							c8.773,11.98-6.174,26.927-18.154,18.154l0,0c-8.094-5.928-19.03,2.017-15.894,11.548l0,0
							c4.641,14.104-14.193,23.701-22.875,11.656l0,0c-5.867-8.139-18.722-3.962-18.684,6.071l0,0
							c0.056,14.848-20.822,18.155-25.358,4.016l0,0c-3.064-9.553-16.581-9.553-19.646,0l0,0
							c-4.535,14.139-25.413,10.832-25.358-4.016v0c0.038-10.033-12.818-14.21-18.684-6.071l0,0
							c-8.682,12.045-27.517,2.449-22.875-11.656l0,0c3.136-9.53-7.799-17.475-15.894-11.548l0,0
							c-11.98,8.773-26.927-6.174-18.154-18.154l0,0c5.928-8.094-2.017-19.03-11.548-15.894l0,0
							c-14.104,4.641-23.701-14.193-11.656-22.875l0,0c8.139-5.867,3.962-18.722-6.071-18.684h0
							c-14.848,0.056-18.155-20.822-4.016-25.358l0,0c9.553-3.064,9.553-16.581,0-19.646l0,0
							c-14.139-4.535-10.832-25.413,4.016-25.358h0c10.033,0.038,14.21-12.818,6.071-18.684l0,0
							c-12.045-8.682-2.449-27.517,11.656-22.875l0,0c9.53,3.136,17.475-7.799,11.548-15.894l0,0
							c-8.773-11.98,6.174-26.927,18.154-18.154l0,0c8.094,5.928,19.03-2.017,15.894-11.548l0,0
							c-4.641-14.104,14.193-23.701,22.875-11.656l0,0c5.867,8.139,18.722,3.962,18.684-6.071v0
							c-0.056-14.848,20.822-18.155,25.358-4.016l0,0C249.238,26.094,262.755,26.094,265.82,16.541z"/>
						<circle style="fill:#2EA8FC;" cx="255.994" cy="160.625" r="122.313"/>
						<circle style="fill:#DAEDFF;" cx="255.749" cy="160.624" r="108.685"/>
						<path style="fill:#B6DCFF;" d="M364.682,160.628c0,60.018-48.667,108.685-108.685,108.685c-3.337,0-6.641-0.152-9.902-0.447
							c55.383-4.997,98.783-51.557,98.783-108.239c0-56.69-43.4-103.241-98.783-108.239c3.261-0.295,6.565-0.447,9.902-0.447
							C316.015,51.942,364.682,100.601,364.682,160.628z"/>
					</g>
				</g>
			</g>
			<g>
				<g>
					<g>
						<path style="fill:#FFCE8B;" d="M308.87,153.667l-22.348,21.777l5.275,30.757c0.789,4.606-4.043,8.116-8.183,5.944
							l-27.616-14.518l-27.616,14.518c-4.141,2.172-8.972-1.338-8.183-5.944l2.855-16.652l2.42-14.105l-22.348-21.777
							c-3.344-3.261-1.495-8.95,3.126-9.619l30.877-4.486l13.812-27.984c2.067-4.193,8.048-4.193,10.115,0l13.812,27.984
							l10.288,1.495l20.59,2.991C310.365,144.717,312.214,150.406,308.87,153.667z"/>
						<path style="fill:#FFB54E;" d="M308.87,153.667l-22.348,21.777l5.275,30.757c0.789,4.606-4.043,8.116-8.183,5.944
							l-27.616-14.518l-27.616,14.518c-4.141,2.172-8.972-1.338-8.183-5.944l2.855-16.652c42.856-7.823,57.329-31.351,62.101-48.492
							l20.59,2.991C310.365,144.717,312.214,150.406,308.87,153.667z"/>
					</g>
				</g>
			</g>
		</g>
	</g>
	<g>
		<path d="M402.366,163.3c-1.702-0.546-1.956-1.914-1.956-2.681s0.254-2.135,1.956-2.681c9.849-3.159,15.597-12.5,13.979-22.715
			c-1.614-10.188-9.926-17.285-20.23-17.285c-0.028,0-0.056,0-0.084,0c-1.765-0.023-2.452-1.216-2.688-1.945
			s-0.418-2.109,1.032-3.155c8.39-6.048,10.971-16.708,6.275-25.923c-4.695-9.216-14.836-13.394-24.661-10.16
			c-1.696,0.558-2.707-0.399-3.158-1.02c-0.451-0.621-1.05-1.877,0.006-3.319c6.11-8.344,5.271-19.28-2.042-26.593
			c-7.313-7.313-18.249-8.153-26.594-2.042c-1.442,1.056-2.698,0.457-3.319,0.006c-0.621-0.451-1.578-1.46-1.02-3.158
			c3.233-9.824-0.945-19.965-10.16-24.661c-9.214-4.696-19.875-2.116-25.923,6.275c-1.046,1.45-2.427,1.268-3.155,1.032
			c-0.729-0.237-1.952-0.901-1.945-2.688c0.039-10.343-7.069-18.696-17.285-20.314c-10.213-1.615-19.556,4.13-22.715,13.979
			c-0.546,1.701-1.914,1.956-2.681,1.956h0c-0.767,0-2.135-0.254-2.681-1.956c-3.159-9.849-12.501-15.597-22.715-13.979
			c-10.216,1.618-17.323,9.972-17.285,20.314c0.007,1.787-1.216,2.451-1.945,2.688c-0.728,0.238-2.109,0.419-3.155-1.032
			c-6.048-8.39-16.707-10.971-25.923-6.275c-9.215,4.695-13.394,14.836-10.16,24.661c0.559,1.697-0.399,2.707-1.02,3.158
			c-0.622,0.451-1.878,1.05-3.319-0.006c-8.344-6.11-19.28-5.271-26.593,2.042c-7.313,7.313-8.153,18.25-2.042,26.594
			c1.056,1.442,0.457,2.698,0.006,3.319s-1.46,1.579-3.158,1.02c-9.822-3.232-19.965,0.945-24.661,10.16
			c-4.696,9.215-2.115,19.875,6.275,25.923c1.45,1.045,1.269,2.425,1.032,3.155c-0.236,0.728-0.898,1.945-2.674,1.945
			c-0.033,0.001-0.066,0-0.099,0c-10.304,0-18.617,7.097-20.23,17.285c-1.618,10.215,4.131,19.556,13.979,22.715
			c1.702,0.546,1.956,1.914,1.956,2.681s-0.254,2.135-1.956,2.681c-9.849,3.159-15.597,12.5-13.979,22.715
			c1.614,10.188,9.926,17.285,20.23,17.285c0.033,0,0.065-0.001,0.099,0c1.775,0,2.437,1.218,2.673,1.945
			c0.237,0.729,0.418,2.109-1.032,3.155c-8.39,6.048-10.971,16.708-6.275,25.923c4.696,9.216,14.835,13.394,24.661,10.16
			c1.697-0.558,2.707,0.399,3.158,1.02c0.451,0.621,1.05,1.877-0.006,3.319c-6.11,8.344-5.271,19.28,2.042,26.593
			c7.313,7.313,18.249,8.153,26.594,2.042c1.442-1.056,2.698-0.457,3.319-0.006c0.621,0.451,1.578,1.46,1.02,3.158
			c-3.066,9.315,0.54,18.905,8.775,23.878v99.821c0,4.142,3.358,7.5,7.5,7.5s7.5-3.358,7.5-7.5v-97.164
			c4.78-1.019,9.168-3.792,12.308-8.149c1.045-1.45,2.425-1.269,3.155-1.032s1.952,0.901,1.945,2.688
			c-0.031,8.263,4.508,15.245,11.541,18.549v161.099l-24.445,16.205c-1.259,0.834-2.404,0.445-2.975,0.138
			c-0.571-0.306-1.529-1.046-1.529-2.556v-54.384c0-4.142-3.358-7.5-7.5-7.5s-7.5,3.358-7.5,7.5v54.384
			c0,6.604,3.615,12.648,9.434,15.772c2.657,1.426,5.566,2.133,8.469,2.133c3.454,0,6.898-1.002,9.889-2.985l27.843-18.458
			c0.004-0.003,0.008-0.005,0.011-0.007l19.441-12.888l47.296,31.354c5.504,3.649,12.539,3.976,18.359,0.852
			c5.819-3.124,9.434-9.167,9.434-15.772v-99.384c0-4.142-3.358-7.5-7.5-7.5s-7.5,3.358-7.5,7.5v99.384
			c0,1.51-0.958,2.25-1.529,2.556c-0.571,0.307-1.716,0.696-2.976-0.138l-24.443-16.204V319.202
			c7.033-3.303,11.571-10.286,11.541-18.549c-0.007-1.787,1.216-2.451,1.945-2.688c0.729-0.237,2.11-0.418,3.155,1.032
			c3.141,4.356,7.528,7.13,12.307,8.149v52.164c0,4.142,3.358,7.5,7.5,7.5s7.5-3.358,7.5-7.5v-54.82
			c8.236-4.973,11.842-14.564,8.776-23.879c-0.559-1.697,0.399-2.707,1.02-3.158c0.621-0.451,1.877-1.051,3.319,0.006
			c8.345,6.11,19.28,5.271,26.593-2.042s8.153-18.25,2.042-26.594c-1.056-1.442-0.457-2.698-0.006-3.319
			c0.451-0.621,1.459-1.579,3.158-1.02c9.822,3.233,19.965-0.945,24.661-10.16c4.696-9.215,2.115-19.875-6.275-25.923
			c-1.45-1.045-1.269-2.425-1.032-3.155c0.236-0.728,0.898-1.945,2.674-1.945c0.036,0,0.066,0,0.099,0
			c10.304,0,18.617-7.097,20.23-17.285C417.963,175.8,412.214,166.459,402.366,163.3z M260.14,462.405
			c-2.512-1.665-5.776-1.665-8.288,0l-11.995,7.952V320.391c6.244-1.856,11.298-6.668,13.459-13.402
			c0.546-1.702,1.914-1.956,2.681-1.956h0c0.767,0,2.135,0.254,2.681,1.956c2.16,6.734,7.215,11.538,13.459,13.394v149.976
			L260.14,462.405z M401.53,183.669c-0.172,1.088-1.071,4.631-5.412,4.631c-0.036-0.001-0.069,0-0.103,0
			c-7.862,0-14.506,4.825-16.938,12.31c-2.44,7.508,0.122,15.342,6.526,19.958c3.543,2.554,2.183,5.962,1.682,6.945
			c-0.501,0.984-2.461,4.086-6.607,2.722c-7.501-2.469-15.343,0.065-19.982,6.451c-4.64,6.387-4.625,14.629,0.039,20.999
			c2.58,3.523,0.234,6.344-0.547,7.125s-3.603,3.126-7.125,0.547c-6.367-4.664-14.61-4.68-20.998-0.04
			c-6.387,4.641-8.919,12.484-6.451,19.983c1.365,4.148-1.738,6.105-2.722,6.607c-0.984,0.5-4.392,1.861-6.945-1.682
			c-4.616-6.403-12.448-8.965-19.958-6.526c-7.508,2.439-12.339,9.117-12.31,17.011c0.017,4.367-3.541,5.27-4.631,5.442
			c-1.09,0.171-4.752,0.413-6.085-3.746c-2.411-7.517-9.07-12.374-16.964-12.374c-7.894,0-14.553,4.857-16.964,12.375
			c-1.334,4.158-4.996,3.916-6.085,3.745c-1.09-0.173-4.647-1.076-4.631-5.442c0.03-7.894-4.802-14.571-12.31-17.011
			c-1.886-0.613-3.793-0.91-5.664-0.91c-5.577,0-10.838,2.641-14.294,7.436c-2.554,3.543-5.961,2.183-6.945,1.682
			c-0.984-0.501-4.087-2.459-2.722-6.607c2.468-7.499-0.064-15.342-6.451-19.982c-6.387-4.641-14.629-4.625-20.999,0.039
			c-3.525,2.581-6.344,0.234-7.125-0.547c-0.78-0.781-3.127-3.602-0.547-7.125c4.665-6.369,4.68-14.611,0.04-20.998
			s-12.483-8.921-19.983-6.451c-4.145,1.361-6.105-1.739-6.607-2.722c-0.501-0.983-1.861-4.392,1.682-6.945
			c6.404-4.616,8.966-12.451,6.526-19.958c-2.432-7.485-9.075-12.31-16.938-12.31c-0.034,0-0.066,0-0.103,0
			c-4.341,0-5.24-3.543-5.413-4.631c-0.173-1.09-0.413-4.751,3.746-6.085c7.517-2.411,12.374-9.07,12.374-16.964
			c0-7.894-4.857-14.553-12.375-16.964c-4.158-1.333-3.917-4.995-3.745-6.085c0.172-1.088,1.071-4.631,5.412-4.631
			c0.033,0,0.068,0,0.103,0c7.862,0,14.506-4.825,16.938-12.31c2.44-7.508-0.122-15.342-6.526-19.958
			c-3.543-2.554-2.183-5.962-1.682-6.945c0.502-0.983,2.464-4.084,6.607-2.722c7.5,2.467,15.342-0.065,19.982-6.451
			c4.64-6.387,4.625-14.629-0.039-20.999c-2.58-3.523-0.234-6.344,0.547-7.125c0.78-0.781,3.603-3.126,7.125-0.547
			c6.368,4.664,14.611,4.681,20.998,0.04c6.387-4.641,8.919-12.484,6.451-19.983c-1.365-4.148,1.738-6.105,2.722-6.607
			c0.983-0.501,4.391-1.862,6.945,1.682c4.617,6.404,12.452,8.966,19.958,6.526c7.508-2.439,12.339-9.117,12.31-17.011
			c-0.017-4.367,3.541-5.27,4.631-5.442c1.09-0.172,4.751-0.413,6.085,3.746c2.411,7.517,9.07,12.374,16.964,12.374
			c7.894,0,14.553-4.857,16.964-12.374c0,0,0,0,0-0.001c1.333-4.158,4.995-3.917,6.085-3.745c1.09,0.173,4.647,1.076,4.631,5.442
			c-0.03,7.894,4.802,14.571,12.31,17.011c7.507,2.44,15.342-0.122,19.958-6.526c2.554-3.543,5.962-2.183,6.945-1.682
			c0.984,0.501,4.087,2.459,2.722,6.607c-2.468,7.499,0.064,15.342,6.451,19.982c6.387,4.641,14.629,4.625,20.999-0.039
			c3.524-2.581,6.344-0.234,7.125,0.547c0.78,0.781,3.127,3.602,0.547,7.125c-4.665,6.369-4.68,14.611-0.04,20.998
			c4.641,6.387,12.482,8.921,19.983,6.451c4.143-1.364,6.105,1.738,6.607,2.722c0.501,0.983,1.861,4.392-1.682,6.945
			c-6.404,4.616-8.966,12.451-6.526,19.958c2.432,7.485,9.075,12.31,16.938,12.31c0.033,0,0.067,0,0.103,0
			c4.341,0,5.24,3.543,5.413,4.631c0.173,1.09,0.413,4.751-3.746,6.085c-7.517,2.411-12.374,9.07-12.374,16.964
			c0,7.894,4.857,14.553,12.375,16.964C401.943,178.917,401.702,182.579,401.53,183.669z"/>
		<path d="M338.756,89.781c-3.323,2.473-4.012,7.172-1.539,10.495c13.059,17.545,19.961,38.414,19.961,60.349
			c0,55.793-45.392,101.185-101.185,101.185s-101.185-45.391-101.185-101.185S200.2,59.44,255.994,59.44
			c20.677,0,40.564,6.2,57.51,17.93c3.405,2.357,8.078,1.507,10.436-1.898c2.357-3.406,1.507-8.078-1.898-10.436
			c-19.466-13.474-42.305-20.596-66.047-20.596c-64.064,0-116.185,52.121-116.185,116.185s52.12,116.185,116.185,116.185
			s116.185-52.12,116.185-116.185c0-25.187-7.929-49.151-22.928-69.305C346.778,87.997,342.079,87.309,338.756,89.781z"/>
		<path d="M317.428,145.567c-1.557-4.791-5.621-8.218-10.607-8.942l-26.977-3.92L267.78,108.26c0,0,0,0,0,0
			c-2.229-4.518-6.745-7.324-11.782-7.324c-5.038,0-9.553,2.806-11.783,7.324l-12.064,24.445l-26.977,3.92
			c-4.986,0.725-9.05,4.151-10.607,8.942c-1.557,4.792-0.283,9.953,3.325,13.469l19.521,19.028l-4.608,26.868
			c-0.852,4.965,1.151,9.89,5.227,12.851c4.075,2.961,9.377,3.344,13.838,1l24.128-12.686l24.129,12.686
			c1.939,1.02,4.038,1.523,6.126,1.523c2.713,0,5.408-0.85,7.711-2.523c4.076-2.961,6.079-7.886,5.227-12.851l-4.608-26.868
			l19.52-19.028C317.71,155.52,318.984,150.359,317.428,145.567z M281.288,170.076c-1.768,1.723-2.574,4.206-2.157,6.638
			l4.637,27.039l-24.282-12.767c-1.093-0.574-2.292-0.861-3.49-0.861c-1.199,0-2.397,0.287-3.49,0.861l-24.282,12.767l4.637-27.039
			c0.417-2.433-0.389-4.915-2.157-6.638l-19.645-19.149l27.148-3.945c2.443-0.355,4.554-1.889,5.647-4.103l12.141-24.601
			l12.141,24.601c1.093,2.213,3.204,3.748,5.647,4.103l27.148,3.945L281.288,170.076z"/>
	</g>
</g>
<g>
</g>
<g>
</g>
<g>
</g>
<g>
</g>
<g>
</g>
<g>
</g>
<g>
</g>
<g>
</g>
<g>
</g>
<g>
</g>
<g>
</g>
<g>
</g>
<g>
</g>
<g>
</g>
<g>
</g>
</svg>
