<?xml version="1.0" encoding="iso-8859-1"?>
<!-- Generator: Adobe Illustrator 23.0.6, SVG Export Plug-In . SVG Version: 6.00 Build 0)  -->
<svg version="1.1" id="Capa_1" xmlns="http://www.w3.org/2000/svg" xmlns:xlink="http://www.w3.org/1999/xlink" x="0px" y="0px"
	 viewBox="0 0 511.999 511.999" style="enable-background:new 0 0 511.999 511.999;" xml:space="preserve">
<g>
	<g>
		<g>
			<g>
				<path style="fill:#ED6264;" d="M395.832,504.499h-244.88V316.292c0-48.518,39.331-87.849,87.849-87.849h47.157
					c60.682,0,109.875,49.193,109.875,109.875V504.499z"/>
				<path style="fill:#E84649;" d="M395.83,338.319v166.18h-17.49v-166.18c0-60.68-49.2-109.88-109.88-109.88h17.5
					C346.64,228.439,395.83,277.639,395.83,338.319z"/>
				<rect x="333.835" y="415.723" style="fill:#FFBC8A;" width="61.997" height="88.776"/>
				<rect x="378.34" y="415.719" style="fill:#F5A871;" width="17.49" height="88.78"/>
				<rect x="333.835" y="384.438" style="fill:#FFF5F5;" width="61.997" height="31.285"/>
				<rect x="378.34" y="384.439" style="fill:#E0D3CE;" width="17.49" height="31.28"/>
				<rect x="150.952" y="384.438" style="fill:#FFF5F5;" width="51.6" height="31.285"/>
				<rect x="150.952" y="415.723" style="fill:#FFBC8A;" width="51.6" height="88.776"/>
			</g>
			<g>
				<circle style="fill:#F5A871;" cx="146.086" cy="157.512" r="23.736"/>
				<path style="fill:#65BAFC;" d="M313.419,230.999v35.29c0,13.16-4.55,25.48-12.16,35.32c-10.4,13.47-26.53,22.29-44.55,22.3
					c-19.27,0.01-36.34-9.63-46.61-24.35c-5.94-8.49-9.61-18.68-10.13-29.68v-48.88h103.45
					C308.939,220.999,313.419,225.479,313.419,230.999z"/>
				<path style="fill:#2EA8FC;" d="M301.259,301.609c-10.4,13.47-26.53,22.29-44.55,22.3c-19.27,0.01-36.34-9.63-46.61-24.35
					c9.34-15.03,26-25.06,44.97-25.06C274.879,274.499,292.189,285.449,301.259,301.609z"/>
				<path style="fill:#FFBC8A;" d="M150.052,92.306v80.778c0,41.37,33.503,74.911,74.856,74.981v19.089
					c0,17.538,14.218,31.756,31.756,31.756h0c17.538,0,31.756-14.218,31.756-31.756V92.306H150.052z"/>
				<rect x="288.42" y="83.468" style="fill:#E0D3CE;" width="25.649" height="79.837"/>
				<g>
					<path style="fill:#756F6F;" d="M145.841,11.346c-4.394-4.897-11.999-5.164-16.683-0.544
						c-6.257,6.17-12.991,18.127-12.991,41.015c0,16.374,3.882,28.845,8.672,38.001c6.745,12.893,20.173,20.89,34.723,20.89h134.244
						c11.192,0,20.264-9.073,20.264-20.264V53.92c0-19.024-15.422-34.447-34.447-34.447H164.054
						C157.104,19.473,150.483,16.519,145.841,11.346L145.841,11.346z"/>
					<path style="fill:#5B5555;" d="M314.07,53.919v36.53c0,11.19-9.07,20.26-20.26,20.26h-18.35c11.19,0,20.26-9.07,20.26-20.26
						v-36.53c0-19.02-15.42-34.45-34.45-34.45h18.35C298.649,19.469,314.07,34.899,314.07,53.919z"/>
				</g>
				<circle style="fill:#FFBC8A;" cx="297.128" cy="157.512" r="23.736"/>
			</g>
		</g>
		<g>
			<circle style="fill:#DAEDFF;" cx="255.068" cy="327.435" r="38.931"/>
			<path style="fill:#B6DCFF;" d="M293.999,327.44c0,21.502-17.427,38.929-38.929,38.929c-4.111,0-8.069-0.632-11.794-1.815
				c15.729-5.001,27.136-19.722,27.136-37.114s-11.407-32.113-27.136-37.126c3.724-1.183,7.683-1.815,11.794-1.815
				C276.572,288.499,293.999,305.937,293.999,327.44z"/>
		</g>
		<g>
			<path style="fill:#ED6264;" d="M223.243,188.063c0,12.801-6.519,15.806-14.56,15.806c-8.041,0-14.56-3.005-14.56-15.806
				s6.519-30.552,14.56-30.552C216.724,157.512,223.243,175.262,223.243,188.063z"/>
		</g>
	</g>
	<g>
		<path d="M202.552,367.566c-4.143,0-7.5,3.358-7.5,7.5v1.872h-36.6v-10.241c0-4.142-3.357-7.5-7.5-7.5s-7.5,3.358-7.5,7.5v137.802
			c0,4.142,3.357,7.5,7.5,7.5s7.5-3.358,7.5-7.5v-81.276h36.6v81.276c0,4.142,3.357,7.5,7.5,7.5s7.5-3.358,7.5-7.5V375.066
			C210.052,370.924,206.695,367.566,202.552,367.566z M158.453,408.223v-16.285h36.6v16.285H158.453z"/>
		<path d="M379.313,267.163c-14.865-19.474-35.812-34.015-59.119-41.123c-2.145-7.24-8.847-12.541-16.774-12.541h-7.5v-24.795
			c0.402,0.015,0.805,0.029,1.207,0.029c7.999,0,15.998-3.044,22.088-9.134c11.34-11.34,12.115-29.297,2.338-41.549
			c0.004-0.107,0.016-0.213,0.016-0.321V90.444V53.92c0-23.129-18.817-41.947-41.947-41.947h-18.926c-4.143,0-7.5,3.358-7.5,7.5
			s3.357,7.5,7.5,7.5h18.926c14.858,0,26.947,12.088,26.947,26.947v36.524c0,7.038-5.727,12.764-12.765,12.764h-56.99
			c-11.876,0-22.635-6.463-28.077-16.867c-1.921-3.671-6.452-5.088-10.122-3.169c-3.67,1.92-5.089,6.452-3.169,10.122
			c1.912,3.654,4.277,6.968,6.99,9.914h-5.625c-11.876,0-22.635-6.463-28.077-16.867c-5.188-9.914-7.817-21.53-7.817-34.523
			c0-4.142-3.357-7.5-7.5-7.5s-7.5,3.358-7.5,7.5c0,15.44,3.205,29.396,9.526,41.477c1.912,3.654,4.277,6.968,6.99,9.914h-2.871
			c-11.876,0-22.635-6.463-28.077-16.867c-5.188-9.914-7.817-21.53-7.817-34.523c0-20.718,5.85-30.835,10.758-35.675
			c1.053-1.039,2.273-1.161,2.922-1.142c0.652,0.02,1.897,0.222,2.913,1.354c6.056,6.748,14.729,10.618,23.795,10.618h61.248
			c4.143,0,7.5-3.358,7.5-7.5s-3.357-7.5-7.5-7.5h-61.248c-4.813,0-9.416-2.055-12.631-5.637c-3.468-3.864-8.432-6.171-13.619-6.329
			c-5.27-0.146-10.184,1.778-13.912,5.454c-12.584,12.409-15.226,32.058-15.226,46.355c0,15.44,3.205,29.396,9.526,41.477
			c5.306,10.142,14.025,17.725,24.358,21.725v11.462c-15.565,1.762-27.701,15.002-27.701,31.03
			c0,16.533,12.913,30.099,29.183,31.161c4.24,22.046,17.304,40.995,35.349,53.042c-22.653,18.025-35.929,45.266-35.929,74.578
			v15.009c0,4.142,3.357,7.5,7.5,7.5s7.5-3.358,7.5-7.5v-15.009c0-26.27,12.659-50.565,34.02-65.647v19.236
			c0,0.119,0.003,0.238,0.009,0.356c0.758,15.952,7.378,30.866,18.657,42.198c-1.612,4.709-2.5,9.751-2.5,15
			c0,25.602,20.829,46.431,46.431,46.431c25.603,0,46.432-20.829,46.432-46.431c0-4.518-0.661-8.883-1.87-13.016
			c13.544-12.458,21.291-29.877,21.291-48.133v-24.196c18.27,6.666,34.592,18.613,46.469,34.173
			c13.701,17.95,20.943,39.408,20.943,62.054v38.62h-46.997v-1.872c0-4.142-3.357-7.5-7.5-7.5s-7.5,3.358-7.5,7.5v129.433
			c0,4.142,3.357,7.5,7.5,7.5s7.5-3.358,7.5-7.5v-81.276h46.997v11.078c0,4.142,3.357,7.5,7.5,7.5s7.5-3.358,7.5-7.5v-95.983
			C403.332,312.355,395.027,287.75,379.313,267.163z M306.57,115.087v12.663c-3.455-1.09-7.061-1.568-10.649-1.431v-8.2
			C299.736,117.83,303.337,116.768,306.57,115.087z M129.85,157.512c0-7.738,5.445-14.218,12.701-15.837v31.409
			c0,0.089,0.006,0.177,0.006,0.266C135.298,171.733,129.85,165.251,129.85,157.512z M157.551,173.084v-54.944
			c0.669,0.028,1.336,0.068,2.01,0.068H280.92v12.606c-2.094,1.271-4.073,2.803-5.88,4.61c-2.929,2.929-2.929,7.678,0,10.606
			c2.93,2.929,7.678,2.929,10.607,0c6.33-6.329,16.63-6.33,22.96,0c6.331,6.331,6.331,16.63,0.001,22.961
			c-6.332,6.331-16.63,6.33-22.962,0c-2.928-2.93-7.677-2.929-10.606,0c-2.929,2.929-2.929,7.678,0.001,10.606
			c1.807,1.807,3.785,3.339,5.879,4.61v82.945c0,6.729-2.742,13.029-7.58,17.603c-5.612-2.412-11.788-3.753-18.273-3.753
			c-5.618,0-11.006,1.004-15.995,2.841c-4.266-4.483-6.665-10.399-6.665-16.691v-19.089c0-4.137-3.351-7.493-7.487-7.5
			C187.773,240.502,157.551,210.231,157.551,173.084z M207.472,269.696v-16.039c3.248,0.708,6.559,1.246,9.936,1.557v11.939
			c0,8.946,2.991,17.424,8.394,24.269c-2.597,2.115-4.957,4.507-7.045,7.127C211.984,290.402,208.016,280.354,207.472,269.696z
			 M255.068,358.867c-17.331,0-31.431-14.1-31.431-31.431c0-17.332,14.1-31.432,31.431-31.432s31.432,14.1,31.432,31.432
			C286.499,344.766,272.399,358.867,255.068,358.867z M305.92,266.286c0,12.566-4.782,24.633-13.272,33.927
			c-1.9-2.616-4.06-5.032-6.452-7.198c6.24-7.099,9.724-16.207,9.724-25.862v-38.655h7.5c1.379,0,2.5,1.122,2.5,2.5V266.286z
			 M341.335,408.223v-16.285h46.997v16.285H341.335z"/>
		<path d="M395.832,462.197c-4.143,0-7.5,3.358-7.5,7.5v34.802c0,4.142,3.357,7.5,7.5,7.5s7.5-3.358,7.5-7.5v-34.802
			C403.332,465.555,399.975,462.197,395.832,462.197z"/>
		<path d="M294.843,389.777h-62.117c-4.143,0-7.5,3.358-7.5,7.5s3.357,7.5,7.5,7.5h62.117c4.143,0,7.5-3.358,7.5-7.5
			S298.986,389.777,294.843,389.777z"/>
		<path d="M294.843,417.223h-62.117c-4.143,0-7.5,3.358-7.5,7.5s3.357,7.5,7.5,7.5h62.117c4.143,0,7.5-3.358,7.5-7.5
			S298.986,417.223,294.843,417.223z"/>
		<path d="M187.999,148.499c0-4.142-3.357-7.484-7.5-7.484s-7.5,3.373-7.5,7.515s3.357,7.5,7.5,7.5s7.5-3.358,7.5-7.5V148.499z"/>
		<path d="M241.103,156.03c4.143,0,7.5-3.358,7.5-7.5v-0.031c0-4.142-3.357-7.484-7.5-7.484s-7.5,3.373-7.5,7.515
			S236.96,156.03,241.103,156.03z"/>
		<path d="M230.743,188.063c0-15.552-7.855-38.052-22.06-38.052s-22.06,22.5-22.06,38.052c0,15.029,7.834,23.306,22.06,23.306
			S230.743,203.093,230.743,188.063z M208.683,196.37c-4.639,0-7.06-0.37-7.06-8.306c0-10.146,4.372-20.229,7.06-22.709
			c2.688,2.48,7.06,12.563,7.06,22.709C215.743,196,213.322,196.37,208.683,196.37z"/>
		<path d="M231.856,229.47c0.028,0.002,0.344,0.021,0.894,0.021c4.771,0,27.126-1.455,31.355-28.277
			c0.646-4.092-2.148-7.932-6.24-8.577c-4.101-0.649-7.931,2.149-8.576,6.24c-2.445,15.501-14.075,15.735-16.412,15.628
			c-4.098-0.257-7.657,2.833-7.956,6.94C224.62,225.577,227.725,229.169,231.856,229.47z"/>
		<path d="M264.107,333.332V314.3c0-2.599-1.346-5.013-3.557-6.38c-2.213-1.367-4.972-1.49-7.297-0.329l-8.604,4.302
			c-3.705,1.853-5.207,6.357-3.354,10.063c1.488,2.977,4.69,4.531,7.813,4.066v7.31c-4.092,0.059-7.391,3.389-7.391,7.495
			c0,4.142,3.357,7.5,7.5,7.5h14.78c4.143,0,7.5-3.358,7.5-7.5C271.497,336.722,268.198,333.392,264.107,333.332z"/>
	</g>
</g>
<g>
</g>
<g>
</g>
<g>
</g>
<g>
</g>
<g>
</g>
<g>
</g>
<g>
</g>
<g>
</g>
<g>
</g>
<g>
</g>
<g>
</g>
<g>
</g>
<g>
</g>
<g>
</g>
<g>
</g>
</svg>
