<?xml version="1.0" encoding="iso-8859-1"?>
<!-- Generator: Adobe Illustrator 23.0.6, SVG Export Plug-In . SVG Version: 6.00 Build 0)  -->
<svg version="1.1" id="Capa_1" xmlns="http://www.w3.org/2000/svg" xmlns:xlink="http://www.w3.org/1999/xlink" x="0px" y="0px"
	 viewBox="0 0 511.993 511.993" style="enable-background:new 0 0 511.993 511.993;" xml:space="preserve">
<g>
	<g>
		<g>
			<path style="fill:#E0D3CE;" d="M166.548,327.076v143.351H69.866c-0.648,0-1.297-0.01-1.935-0.04
				c-4.05-0.15-7.971-0.768-11.712-1.806c-21.559-5.966-37.382-25.729-37.382-49.184v-82.345c0-5.517,4.459-9.976,9.976-9.976
				H166.548z"/>
			<path style="fill:#CDBFBB;" d="M166.548,327.076v143.331l-98.617-0.02c-4.05-0.15-7.971-0.768-11.712-1.806
				c21.3-5.866,36.953-25.37,36.963-48.525l0.03-92.98H166.548z"/>
			<path style="fill:#E0D3CE;" d="M493.156,58.551v82.346c0,5.517-4.459,9.976-9.976,9.976H345.445V7.521h96.682
				c0.648,0,1.297,0.01,1.935,0.04c4.05,0.15,7.981,0.768,11.732,1.816C477.344,15.353,493.156,35.106,493.156,58.551z"/>
			<path style="fill:#CDBFBB;" d="M455.795,9.377c-21.29,5.866-36.923,25.37-36.933,48.515l-0.03,92.98h-73.387V7.541l98.617,0.02
				C448.113,7.711,452.043,8.329,455.795,9.377z"/>
		</g>
		<path style="fill:#FFF5F5;" d="M441.718,7.571c-27.794,0-50.331,22.537-50.341,50.321l-0.1,361.536
			c0,28.183-22.856,51.029-51.039,51.019l-50.161-0.01l-68.159-0.02l-151.642-0.04c27.794,0,50.331-22.537,50.341-50.321
			l0.1-361.536c0-28.183,22.856-51.029,51.039-51.019L441.718,7.571z"/>
		<path style="fill:#EFE2DD;" d="M323.467,381.628l-19.145,18.656l4.519,26.338c1.008,5.866-0.609,11.822-4.43,16.351
			c-3.611,4.29-8.789,6.864-14.336,7.153v20.312l-68.159-0.02v-20.292c-5.547-0.289-10.725-2.863-14.336-7.153
			c-3.821-4.529-5.437-10.485-4.43-16.351l4.519-26.338l-19.135-18.646c-5.537-5.397-7.482-13.299-5.088-20.641
			c2.384-7.343,8.61-12.58,16.242-13.688l26.438-3.841l11.822-23.963c3.412-6.914,10.326-11.214,18.047-11.214
			c7.722,0,14.635,4.3,18.047,11.223l11.822,23.953l26.448,3.841c7.622,1.107,13.847,6.345,16.232,13.688
			C330.94,368.339,328.994,376.24,323.467,381.628z"/>
		<path style="fill:#EFE2DD;" d="M441.718,7.571c-27.794,0-50.331,22.537-50.341,50.321l-0.1,361.536
			c0,28.183-22.856,51.029-51.039,51.019l-24.013-0.01c27.984-0.21,50.61-22.976,50.61-51.01l0.1-361.536
			c0.01-27.784,22.547-50.321,50.341-50.321l-245.949-0.06c0.14-0.01,0.289-0.01,0.429-0.01L441.718,7.571z"/>
		<g>
			<path style="fill:#F37D7E;" d="M266.81,503.492l-10.814-7.169l-10.814,7.169c-3.983,2.64-9.302-0.216-9.302-4.994v-85.371h40.232
				v85.371C276.113,503.277,270.793,506.133,266.81,503.492z"/>
			<g>
				<g>
					<path style="fill:#FFCE8B;" d="M313.714,371.633l-24.396,23.773l5.759,33.576c0.861,5.029-4.413,8.859-8.933,6.489
						l-30.147-15.849L225.85,435.47c-4.52,2.371-9.795-1.46-8.933-6.489l3.117-18.178l2.641-15.397l-24.396-23.773
						c-3.65-3.56-1.632-9.77,3.413-10.5l33.707-4.897l15.077-30.549c2.256-4.577,8.786-4.577,11.041,0l15.077,30.549l11.23,1.632
						l22.477,3.265C315.347,361.863,317.365,368.072,313.714,371.633z"/>
					<path style="fill:#FFB54E;" d="M313.714,371.633l-24.396,23.773l5.759,33.576c0.861,5.029-4.413,8.859-8.933,6.489
						l-30.147-15.849L225.85,435.47c-4.52,2.371-9.795-1.46-8.933-6.489l3.117-18.178c46.783-8.539,62.582-34.224,67.791-52.935
						l22.477,3.265C315.347,361.863,317.365,368.072,313.714,371.633z"/>
				</g>
			</g>
		</g>
	</g>
	<g>
		<path d="M442.129,0.021L171.758,0c-0.006,0-0.01,0-0.016,0c-15.628,0-30.323,6.084-41.376,17.133
			c-11.058,11.053-17.15,25.75-17.154,41.384l-0.072,261.057H28.809c-9.636,0-17.476,7.84-17.476,17.477v82.346
			c0,32.274,26.257,58.532,58.531,58.532l158.517-0.007v20.578c0,4.978,2.724,9.532,7.11,11.887
			c4.386,2.354,9.688,2.108,13.836-0.642l6.67-4.422l6.67,4.422c2.254,1.495,4.849,2.25,7.453,2.25c2.187,0,4.381-0.533,6.383-1.608
			c4.386-2.354,7.11-6.909,7.11-11.887v-20.564l56.622,0.015c0.006,0,0.009,0,0.015,0c32.266,0,58.523-26.249,58.532-58.517
			L398.83,243.7c0.001-4.142-3.356-7.501-7.498-7.502c0,0-0.001,0-0.002,0c-4.141,0-7.499,3.356-7.5,7.498l-0.048,175.732
			c-0.006,24-19.533,43.521-43.532,43.521c-0.003,0-0.008,0-0.011,0l-56.626-0.015v-20.372c4.421,1.913,9.476,1.375,13.424-1.493
			c4.237-3.078,6.319-8.196,5.434-13.357l-5.092-29.686l21.568-21.023c3.75-3.655,5.074-9.019,3.456-13.999
			c-1.618-4.98-5.842-8.542-11.024-9.294l-29.807-4.331l-13.33-27.01c0,0,0,0,0,0c-2.317-4.695-7.01-7.612-12.246-7.612
			s-9.928,2.917-12.246,7.612l-13.33,27.01l-29.807,4.331c-5.182,0.753-9.406,4.314-11.024,9.294
			c-1.618,4.98-0.293,10.344,3.456,13.999l21.568,21.023l-5.092,29.687c-0.885,5.161,1.197,10.279,5.434,13.357
			c2.394,1.739,5.194,2.622,8.013,2.622c1.833,0,3.669-0.397,5.411-1.152v20.381l-119.256-0.03c0.692-0.628,1.371-1.275,2.037-1.941
			c10.928-10.922,16.948-25.446,16.952-40.896l0.01-36.354c0.001-4.142-3.356-7.501-7.498-7.502c0,0-0.001,0-0.002,0
			c-4.141,0-7.499,3.356-7.5,7.498l-0.01,36.354c-0.003,11.443-4.462,22.201-12.556,30.291c-8.091,8.087-18.846,12.54-30.285,12.54
			c-0.003,0-0.008,0-0.012,0c-0.001,0-0.001,0-0.002,0c-0.253,0-0.503,0.013-0.75,0.038c-23.84-0.193-43.176-19.638-43.176-43.523
			V337.05c0-1.366,1.111-2.477,2.476-2.477h84.328l-0.004,13.727c-0.001,4.142,3.356,7.501,7.498,7.502c0,0,0.001,0,0.002,0
			c4.141,0,7.499-3.356,7.5-7.498l0.08-289.784C128.218,34.52,147.744,15,171.743,15c0.003,0,0.008,0,0.011,0l231.157,0.058
			c-11.678,10.587-19.026,25.87-19.031,42.837L383.839,208.3c-0.001,4.142,3.356,7.501,7.498,7.502c0,0,0.001,0,0.002,0
			c4.141,0,7.499-3.356,7.5-7.498l0.014-49.929h11.446c4.142,0,7.5-3.358,7.5-7.5s-3.358-7.5-7.5-7.5h-11.442l0.023-85.477
			c0.003-11.443,4.462-22.201,12.556-30.291c8.091-8.087,18.847-12.541,30.286-12.541c0.003,0,0.007,0,0.011,0
			c0.001,0,0.001,0,0.002,0c0.253,0,0.503-0.013,0.75-0.038c23.84,0.193,43.176,19.638,43.176,43.523v82.347
			c0,1.365-1.111,2.476-2.476,2.476h-37.49c-4.142,0-7.5,3.358-7.5,7.5s3.358,7.5,7.5,7.5h37.49c9.636,0,17.476-7.84,17.476-17.476
			V58.553C500.661,26.278,474.404,0.021,442.129,0.021z M260.141,490.072c-2.512-1.665-5.776-1.665-8.288,0l-8.472,5.616v-60.963
			l12.616-6.633l12.616,6.633v60.964L260.141,490.072z M227.908,390.037l-22.441-21.875l31.014-4.506
			c2.443-0.355,4.555-1.889,5.647-4.103l13.87-28.104l13.87,28.104c1.092,2.213,3.204,3.748,5.647,4.103l31.014,4.506
			l-22.441,21.875c-1.768,1.723-2.575,4.206-2.157,6.639l5.298,30.888l-27.739-14.583c-1.093-0.574-2.292-0.861-3.49-0.861
			s-2.397,0.287-3.49,0.861l-27.739,14.583l5.298-30.888C230.482,394.243,229.676,391.76,227.908,390.037z"/>
		<path d="M260.767,60.924c-2.211-1.367-4.972-1.491-7.297-0.328l-11.732,5.866c-3.705,1.852-5.207,6.357-3.354,10.062
			c1.852,3.705,6.357,5.208,10.062,3.354l0.878-0.439v20.627h-2.577c-4.142,0-7.5,3.358-7.5,7.5s3.358,7.5,7.5,7.5h20.154
			c4.142,0,7.5-3.358,7.5-7.5s-3.358-7.5-7.5-7.5h-2.577V67.304C264.324,64.705,262.979,62.291,260.767,60.924z"/>
		<path d="M213.356,149.592c0,4.142,3.358,7.5,7.5,7.5h70.28c4.142,0,7.5-3.358,7.5-7.5s-3.358-7.5-7.5-7.5h-70.28
			C216.714,142.092,213.356,145.45,213.356,149.592z"/>
		<path d="M336.809,192.067H175.184c-4.142,0-7.5,3.358-7.5,7.5s3.358,7.5,7.5,7.5h161.625c4.142,0,7.5-3.358,7.5-7.5
			S340.951,192.067,336.809,192.067z"/>
		<path d="M336.809,222.296H175.184c-4.142,0-7.5,3.358-7.5,7.5s3.358,7.5,7.5,7.5h161.625c4.142,0,7.5-3.358,7.5-7.5
			S340.951,222.296,336.809,222.296z"/>
		<path d="M336.809,252.525H175.184c-4.142,0-7.5,3.358-7.5,7.5s3.358,7.5,7.5,7.5h161.625c4.142,0,7.5-3.358,7.5-7.5
			S340.951,252.525,336.809,252.525z"/>
	</g>
</g>
<g>
</g>
<g>
</g>
<g>
</g>
<g>
</g>
<g>
</g>
<g>
</g>
<g>
</g>
<g>
</g>
<g>
</g>
<g>
</g>
<g>
</g>
<g>
</g>
<g>
</g>
<g>
</g>
<g>
</g>
</svg>
