<?xml version="1.0" encoding="iso-8859-1"?>
<!-- Generator: Adobe Illustrator 23.0.6, SVG Export Plug-In . SVG Version: 6.00 Build 0)  -->
<svg version="1.1" id="Capa_1" xmlns="http://www.w3.org/2000/svg" xmlns:xlink="http://www.w3.org/1999/xlink" x="0px" y="0px"
	 viewBox="0 0 512 512" style="enable-background:new 0 0 512 512;" xml:space="preserve">
<g>
	<g>
		<g>
			<g>
				<path style="fill:#E84649;" d="M491.726,391.588v74.104c0,11.76-9.525,21.285-21.285,21.285H256.004v-95.39H491.726z"/>
				<path style="fill:#D73337;" d="M491.726,391.588v74.104c0,11.76-9.525,21.285-21.285,21.285h-22.701
					c11.76,0,21.285-9.525,21.285-21.285v-74.104H491.726z"/>
				<path style="fill:#D73337;" d="M491.726,391.588v23.563c-61.142,1.415-115.27,13.08-160.948,34.663
					c-28.682,13.548-47.349,28.011-57.502,37.164h-17.273v-95.39H491.726z"/>
				<path style="fill:#CDBFBB;" d="M256,331.993v150.946c16.132-16.728,86.944-79.949,238.082-82.748
					c5.788-0.107,10.418-4.849,10.418-10.637v-57.56H256z"/>
				<path style="fill:#B9ACAC;" d="M504.498,331.989v57.566c0,5.79-4.629,10.526-10.419,10.632
					c-6.247,0.117-12.356,0.33-18.327,0.649c3.576-1.713,6.045-5.374,6.045-9.6v-59.247H504.498z"/>
				<path style="fill:#EFE2DD;" d="M504.5,158.12v182.94c0,5.79-4.63,10.53-10.42,10.64c-151.14,2.8-221.95,66.02-238.08,82.75
					V230.22c13.48-13.97,65.09-60.38,169.8-76.92c20.53-3.24,43.1-5.34,67.82-5.82C499.59,147.36,504.5,152.15,504.5,158.12z"/>
				<path style="fill:#E0D3CE;" d="M428.44,183.46c0,95.09-77.35,172.45-172.44,172.45V230.22c13.48-13.97,65.09-60.38,169.8-76.92
					C427.53,163.09,428.44,173.17,428.44,183.46z"/>
				<path style="fill:#E0D3CE;" d="M504.498,158.121v182.946c0,5.779-4.629,10.526-10.419,10.632
					c-6.747,0.128-13.335,0.373-19.763,0.724c4.342-1.341,7.482-5.406,7.482-10.174V158.121c0-4.566-2.863-8.44-6.886-9.961
					c6.088-0.33,12.324-0.553,18.71-0.681C499.591,147.362,504.498,152.151,504.498,158.121z"/>
			</g>
			<g>
				<path style="fill:#ED6264;" d="M20.274,391.588v74.104c0,11.76,9.525,21.285,21.285,21.285h214.438v-95.39H20.274z"/>
				<path style="fill:#E84649;" d="M20.274,391.588v23.563c61.142,1.415,115.27,13.08,160.948,34.663
					c28.682,13.548,47.349,28.011,57.502,37.164h17.273v-95.39H20.274z"/>
				<path style="fill:#E0D3CE;" d="M256,331.993v150.946c-16.132-16.728-86.944-79.949-238.082-82.748
					C12.13,400.084,7.5,395.342,7.5,389.553v-57.56H256z"/>
				<path style="fill:#FFF5F5;" d="M256,230.22v204.23c-16.13-16.73-86.94-79.95-238.08-82.75c-5.79-0.11-10.42-4.85-10.42-10.64
					V158.12c0-5.97,4.91-10.76,10.88-10.64c24.72,0.48,47.29,2.58,67.82,5.82C190.91,169.84,242.52,216.25,256,230.22z"/>
				<path style="fill:#EFE2DD;" d="M256,230.22v125.69c-95.09,0-172.44-77.36-172.44-172.45c0-10.29,0.91-20.37,2.64-30.16
					C190.91,169.84,242.52,216.25,256,230.22z"/>
			</g>
		</g>
		<g>
			<g>
				<g>
					<circle style="fill:#FFB54E;" cx="256" cy="183.464" r="158.444"/>
					<circle style="fill:#FF9A1B;" cx="256.266" cy="183.464" r="132.52"/>
					<circle style="fill:#FFCE8B;" cx="256" cy="183.464" r="117.755"/>
					<path style="fill:#FFB54E;" d="M374.024,183.468c0,65.027-52.728,117.755-117.755,117.755c-3.616,0-7.195-0.164-10.728-0.484
						c60.005-5.414,107.027-55.86,107.027-117.271c0-61.42-47.022-111.857-107.027-117.271c3.533-0.32,7.113-0.484,10.728-0.484
						C321.296,65.712,374.024,118.432,374.024,183.468z"/>
				</g>
				<g>
					<path style="fill:#FFA730;" d="M275.57,213.884v-78.037c0-5.399-2.267-10.639-6.459-14.041
						c-6.13-4.976-14.596-5.232-20.927-0.995l-28.824,19.293c-4.038,2.703-5.121,8.168-2.418,12.206l9.788,14.624
						c2.703,4.038,8.168,5.121,12.206,2.418l1.438-0.963v45.494h-12.713c-4.859,0-8.799,3.939-8.799,8.799v17.598
						c0,4.859,3.939,8.799,8.799,8.799h60.622c4.859,0,8.799-3.939,8.799-8.799v-17.598c0-4.859-3.939-8.799-8.799-8.799H275.57z"/>
				</g>
			</g>
		</g>
	</g>
	<g>
		<path d="M506.563,145.176c-3.514-3.446-8.168-5.281-13.083-5.197c-26.234,0.507-51.619,2.894-75.575,7.051
			C401.254,72.997,334.988,17.52,256,17.52S110.746,72.997,94.095,147.03c-23.956-4.157-49.341-6.544-75.575-7.051
			c-4.934-0.095-9.57,1.751-13.083,5.197C1.931,148.615,0,153.212,0,158.122v51.181c0,4.142,3.358,7.5,7.5,7.5s7.5-3.358,7.5-7.5
			v-51.181c0-1.144,0.589-1.893,0.941-2.237c0.355-0.349,1.113-0.945,2.29-0.908c25.452,0.492,50.052,2.802,73.24,6.822
			c-0.929,7.093-1.414,14.324-1.414,21.667c0,88.988,70.41,161.83,158.444,165.767v68.053
			c-30.473-25.648-102.06-70.704-230.443-73.082C16.372,344.17,15,342.762,15,341.063v-96.365c0-4.142-3.358-7.5-7.5-7.5
			s-7.5,3.358-7.5,7.5v144.856c0,8.076,5.4,15.003,12.771,17.312v58.829c0,15.873,12.913,28.786,28.785,28.786h345.746
			c4.142,0,7.5-3.358,7.5-7.5s-3.358-7.5-7.5-7.5h-116.71c10.954-9.529,29.584-23.389,57.026-36.357
			c44.77-21.156,97.417-32.962,156.611-35.15v57.721c0,7.602-6.184,13.786-13.785,13.786h-47.746c-4.142,0-7.5,3.358-7.5,7.5
			s3.358,7.5,7.5,7.5h47.746c15.872,0,28.785-12.913,28.785-28.786v-58.829C506.6,404.556,512,397.63,512,389.554V158.122
			C512,153.212,510.069,148.615,506.563,145.176z M105.056,183.464C105.056,100.233,172.77,32.52,256,32.52
			s150.944,67.713,150.944,150.944c0,34.731-11.475,67.381-33.184,94.42c-2.593,3.229-2.077,7.95,1.153,10.543
			c3.23,2.594,7.951,2.077,10.543-1.153c23.529-29.306,36.488-66.173,36.488-103.811c0-7.343-0.485-14.573-1.414-21.667
			c23.188-4.02,47.788-6.329,73.24-6.822c1.154-0.018,1.934,0.56,2.29,0.908c0.352,0.345,0.941,1.094,0.941,2.237v182.941
			c0,1.699-1.372,3.107-3.057,3.139c-128.381,2.377-199.969,47.433-230.443,73.081v-68.041
			c35.095-1.534,68.038-13.837,95.689-35.821c3.242-2.578,3.781-7.296,1.203-10.538c-2.579-3.243-7.296-3.782-10.538-1.203
			c-26.931,21.412-59.385,32.729-93.854,32.729C172.77,334.408,105.056,266.695,105.056,183.464z M17.78,359.199
			c63.274,1.172,119.328,13.094,166.602,35.434c34.692,16.394,55.303,34.215,64.118,42.902v28.239
			c-30.474-25.648-102.062-70.703-230.443-73.081c-1.686-0.031-3.057-1.439-3.057-3.139v-30.646
			C15.908,359.068,16.832,359.181,17.78,359.199z M27.771,465.694v-57.721c59.193,2.188,111.841,13.994,156.611,35.15
			c27.442,12.968,46.071,26.828,57.026,36.357H41.556C33.955,479.48,27.771,473.296,27.771,465.694z M263.5,465.773v-28.239
			c8.815-8.687,29.426-26.508,64.118-42.902c47.274-22.34,103.328-34.261,166.602-35.434c0.948-0.018,1.872-0.131,2.78-0.291v30.646
			c0,1.699-1.372,3.107-3.057,3.139C365.562,395.07,293.974,440.125,263.5,465.773z"/>
		<path d="M381.521,183.464c0-69.066-56.189-125.255-125.255-125.255c-69.065,0-125.254,56.189-125.254,125.255
			c0,69.065,56.189,125.254,125.254,125.254C325.332,308.719,381.521,252.53,381.521,183.464z M146.011,183.464
			c0-60.795,49.46-110.255,110.254-110.255c60.795,0,110.255,49.46,110.255,110.255c0,60.794-49.46,110.254-110.255,110.254
			C195.471,293.719,146.011,244.259,146.011,183.464z"/>
		<path d="M304.583,240.28v-17.598c0-8.987-7.312-16.299-16.299-16.299h-5.213v-70.537c0-7.861-3.365-15.102-9.232-19.864
			c-8.629-7.005-20.614-7.569-29.826-1.405l-28.824,19.292c-3.618,2.422-6.076,6.107-6.922,10.378
			c-0.846,4.271,0.022,8.615,2.443,12.233l9.788,14.624c2.902,4.336,7.538,6.832,12.377,7.185v28.093h-5.213
			c-8.987,0-16.299,7.312-16.299,16.299v17.598c0,8.987,7.312,16.299,16.299,16.299h60.622
			C297.271,256.579,304.583,249.268,304.583,240.28z M226.363,240.28v-17.598c0-0.716,0.583-1.299,1.299-1.299h12.713
			c4.142,0,7.5-3.358,7.5-7.5V168.39c0-2.769-1.525-5.312-3.967-6.616c-2.442-1.303-5.404-1.156-7.705,0.383l-1.438,0.962
			c-0.37,0.248-0.733,0.242-0.975,0.195c-0.241-0.047-0.58-0.182-0.827-0.552l-9.788-14.624c-0.248-0.37-0.243-0.734-0.195-0.975
			c0.047-0.241,0.182-0.58,0.552-0.827l28.824-19.292c3.707-2.482,8.542-2.246,12.029,0.585c2.308,1.873,3.686,4.945,3.686,8.218
			v78.037c0,4.142,3.358,7.5,7.5,7.5h12.713c0.716,0,1.299,0.583,1.299,1.299v17.598c0,0.716-0.583,1.299-1.299,1.299h-60.622
			C226.945,241.579,226.363,240.997,226.363,240.28z"/>
	</g>
</g>
<g>
</g>
<g>
</g>
<g>
</g>
<g>
</g>
<g>
</g>
<g>
</g>
<g>
</g>
<g>
</g>
<g>
</g>
<g>
</g>
<g>
</g>
<g>
</g>
<g>
</g>
<g>
</g>
<g>
</g>
</svg>
