<?xml version="1.0" encoding="iso-8859-1"?>
<!-- Generator: Adobe Illustrator 23.0.6, SVG Export Plug-In . SVG Version: 6.00 Build 0)  -->
<svg version="1.1" id="Capa_1" xmlns="http://www.w3.org/2000/svg" xmlns:xlink="http://www.w3.org/1999/xlink" x="0px" y="0px"
	 viewBox="0 0 512 512" style="enable-background:new 0 0 512 512;" xml:space="preserve">
<g>
	<g>
		<g>
			<g>
				<path style="fill:#FFCE8B;" d="M58.22,33.25v445.5c0,5.52-4.48,10-10,10H35.99c-5.53,0-10-4.48-10-10V33.25
					c0-5.52,4.47-10,10-10h12.23C53.74,23.25,58.22,27.73,58.22,33.25z"/>
				<rect x="25.99" y="70.25" style="fill:#FFB54E;" width="32.23" height="129.43"/>
			</g>
			<g>
				<path style="fill:#FFCE8B;" d="M486.01,33.25v445.5c0,5.52-4.47,10-10,10h-12.23c-5.52,0-10-4.48-10-10V33.25
					c0-5.52,4.48-10,10-10h12.23C481.54,23.25,486.01,27.73,486.01,33.25z"/>
				<g>
					<g>
						<rect x="453.78" y="70.25" style="fill:#FFB54E;" width="32.23" height="129.43"/>
					</g>
				</g>
			</g>
		</g>
		<g>
			<g>
				<rect x="153.927" y="84.248" style="fill:#FFB54E;" width="204.146" height="101.43"/>
				<rect x="332.844" y="84.248" style="fill:#FF9A1B;" width="25.23" height="101.43"/>
				<rect x="153.927" y="84.248" style="fill:#FF9A1B;" width="25.23" height="101.43"/>
				<g>
					<g>
						<path style="fill:#756F6F;" d="M58.215,134.963H7.5V94.248c0-5.523,4.477-10,10-10h40.715V134.963z"/>
						<rect x="58.215" y="84.248" style="fill:#FFF5F5;" width="50.715" height="50.715"/>
						<rect x="108.93" y="84.248" style="fill:#756F6F;" width="50.715" height="50.715"/>
						<path style="fill:#FFF5F5;" d="M58.215,185.678H17.5c-5.523,0-10-4.477-10-10v-40.715h50.715V185.678z"/>
						<rect x="58.215" y="134.963" style="fill:#756F6F;" width="50.715" height="50.715"/>
						<rect x="108.93" y="134.963" style="fill:#FFF5F5;" width="50.715" height="50.715"/>
					</g>
					<g>
						<rect x="352.355" y="84.248" style="fill:#756F6F;" width="50.715" height="50.715"/>
						<rect x="403.07" y="84.248" style="fill:#FFF5F5;" width="50.715" height="50.715"/>
						<path style="fill:#756F6F;" d="M504.5,134.963h-50.715V84.248H494.5c5.523,0,10,4.477,10,10V134.963z"/>
						<rect x="352.355" y="134.963" style="fill:#FFF5F5;" width="50.715" height="50.715"/>
						<rect x="403.07" y="134.963" style="fill:#756F6F;" width="50.715" height="50.715"/>
						<path style="fill:#FFF5F5;" d="M494.5,185.678h-40.715v-50.715H504.5v40.715C504.5,181.201,500.023,185.678,494.5,185.678z"/>
					</g>
				</g>
			</g>
		</g>
	</g>
	<g>
		<path d="M494.5,76.748h-0.986V33.252c0-9.649-7.851-17.5-17.5-17.5h-12.229c-9.649,0-17.5,7.851-17.5,17.5v43.496H65.715V33.252
			c0-9.649-7.851-17.5-17.5-17.5H35.986c-9.649,0-17.5,7.851-17.5,17.5v43.496H17.5c-9.649,0-17.5,7.851-17.5,17.5v81.43
			c0,9.649,7.851,17.5,17.5,17.5h0.986v285.569c0,9.649,7.851,17.5,17.5,17.5h12.229c9.649,0,17.5-7.851,17.5-17.5v-29.05
			c0-4.142-3.358-7.5-7.5-7.5s-7.5,3.358-7.5,7.5v29.05c0,1.378-1.122,2.5-2.5,2.5H35.986c-1.378,0-2.5-1.122-2.5-2.5V193.178
			h17.229v221.124c0,4.142,3.358,7.5,7.5,7.5s7.5-3.358,7.5-7.5V193.178h118.587c4.142,0,7.5-3.358,7.5-7.5s-3.358-7.5-7.5-7.5
			h-17.157v-86.43h177.709v86.43H219.698c-4.142,0-7.5,3.358-7.5,7.5s3.358,7.5,7.5,7.5h226.587v45.124c0,4.142,3.357,7.5,7.5,7.5
			s7.5-3.358,7.5-7.5v-45.124h17.229v285.569c0,1.378-1.121,2.5-2.5,2.5h-12.229c-1.379,0-2.5-1.122-2.5-2.5v-205.05
			c0-4.142-3.357-7.5-7.5-7.5s-7.5,3.358-7.5,7.5v205.05c0,9.649,7.851,17.5,17.5,17.5h12.229c9.649,0,17.5-7.851,17.5-17.5V193.178
			h0.986c9.649,0,17.5-7.851,17.5-17.5v-81.43C512,84.599,504.149,76.748,494.5,76.748z M497,94.248v33.215h-35.715V91.748H494.5
			C495.879,91.748,497,92.87,497,94.248z M463.785,30.752h12.229c1.379,0,2.5,1.122,2.5,2.5v43.496h-17.229V33.252
			C461.285,31.874,462.406,30.752,463.785,30.752z M446.285,127.463h-35.716V91.748h35.716V127.463z M395.569,178.178h-35.715
			v-35.715h35.715V178.178z M395.569,127.463h-35.715V91.748h35.715V127.463z M152.146,127.463H116.43V91.748h35.715V127.463z
			 M101.43,178.178H65.715v-35.715h35.715V178.178z M101.43,127.463H65.715V91.748h35.715V127.463z M33.486,33.252
			c0-1.378,1.122-2.5,2.5-2.5h12.229c1.378,0,2.5,1.122,2.5,2.5v43.496H33.486V33.252z M15,94.248c0-1.378,1.122-2.5,2.5-2.5h33.215
			v35.715H15V94.248z M15,175.678v-33.215h35.715v35.715H17.5C16.122,178.178,15,177.057,15,175.678z M116.43,142.463h35.715v35.715
			H116.43V142.463z M410.569,142.463h35.716v35.715h-35.716V142.463z M497,175.678c0,1.378-1.121,2.5-2.5,2.5h-33.215v-35.715H497
			V175.678z"/>
		<path d="M260.772,108.404c-2.21-1.366-4.971-1.491-7.297-0.328l-11.76,5.88c-3.705,1.852-5.207,6.357-3.354,10.062
			c1.852,3.705,6.356,5.208,10.062,3.354l0.906-0.453v20.722h-2.601c-4.142,0-7.5,3.358-7.5,7.5s3.358,7.5,7.5,7.5h20.202
			c4.143,0,7.5-3.358,7.5-7.5s-3.357-7.5-7.5-7.5h-2.601v-32.857C264.33,112.185,262.983,109.771,260.772,108.404z"/>
	</g>
</g>
<g>
</g>
<g>
</g>
<g>
</g>
<g>
</g>
<g>
</g>
<g>
</g>
<g>
</g>
<g>
</g>
<g>
</g>
<g>
</g>
<g>
</g>
<g>
</g>
<g>
</g>
<g>
</g>
<g>
</g>
</svg>
