<?xml version="1.0" encoding="iso-8859-1"?>
<!-- Generator: Adobe Illustrator 23.0.6, SVG Export Plug-In . SVG Version: 6.00 Build 0)  -->
<svg version="1.1" id="Capa_1" xmlns="http://www.w3.org/2000/svg" xmlns:xlink="http://www.w3.org/1999/xlink" x="0px" y="0px"
	 viewBox="0 0 512 512" style="enable-background:new 0 0 512 512;" xml:space="preserve">
<g>
	<g>
		<path style="fill:#8EC737;" d="M351.691,191v313.5h-199.36V191c0-55.05,44.63-99.68,99.68-99.68c27.53,0,52.45,11.16,70.49,29.2
			C340.541,138.56,351.691,163.48,351.691,191z"/>
		<path style="fill:#83B832;" d="M351.691,219.09V504.5h-199.36V305.49c4.9-1.05,9.99-1.6,15.2-1.6c19.55,0,37.93,7.61,51.73,21.43
			c13.82,13.8,21.43,32.18,21.43,51.73v11.63c6.6-2.32,13.6-3.78,20.87-4.24v-88.25c0-43.03,35-78.03,78.03-78.03
			C343.681,218.16,347.721,218.47,351.691,219.09z"/>
		<path style="fill:#83B832;" d="M351.696,190.997V504.5h-21.635V190.997c0-27.525-11.155-52.442-29.196-70.483
			c-15.645-15.645-36.454-26.105-59.66-28.612c3.554-0.383,7.158-0.584,10.813-0.584c27.525,0,52.442,11.155,70.483,29.196
			C340.541,138.556,351.696,163.473,351.696,190.997z"/>
		<path style="fill:#9E9797;" d="M346.219,158.338c-5.457,2.497-11.94,4.752-19.642,6.504c-10.068,2.295-22.229,3.735-36.877,3.735
			c-72.486,0-75.164,16.793-92.621,42.294c-12.816,18.736-19.843,32.035-44.75,37.773v-57.647c0-51.395,38.901-93.709,88.876-99.095
			h0.01c3.544-0.393,7.148-0.584,10.803-0.584c27.525,0,52.442,11.155,70.483,29.196
			C333.041,131.055,341.236,143.952,346.219,158.338z"/>
		<path style="fill:#756F6F;" d="M346.219,158.338c-5.457,2.497-11.94,4.752-19.642,6.504
			c-4.601-17.014-13.601-32.216-25.712-44.327c-15.645-15.645-36.444-26.105-59.65-28.612c3.544-0.393,7.148-0.584,10.803-0.584
			c27.525,0,52.442,11.155,70.483,29.196C333.041,131.055,341.236,143.952,346.219,158.338z"/>
		<g>
			<path style="fill:#BDEB73;" d="M226.691,377.05V504.5h-118.31V377.05c0-32.67,26.48-59.16,59.15-59.16
				c16.33,0,31.13,6.62,41.83,17.33C220.071,345.92,226.691,360.72,226.691,377.05z"/>
			<path style="fill:#9AD63B;" d="M226.691,377.05V504.5h-18.76V377.05c0-16.33-6.62-31.13-17.33-41.83
				c-8.61-8.62-19.87-14.59-32.45-16.59c3.06-0.49,6.19-0.74,9.38-0.74c16.33,0,31.13,6.62,41.83,17.33
				C220.071,345.92,226.691,360.72,226.691,377.05z"/>
			<path style="fill:#9AD63B;" d="M226.691,395.21V504.5h-38.22v-42.2C188.471,433.8,203.821,408.83,226.691,395.21z"/>
		</g>
		<g>
			<path style="fill:#BDEB73;" d="M403.621,296.19V504.5h-128.06V296.19c0-35.37,28.67-64.03,64.03-64.03
				c17.68,0,33.69,7.16,45.27,18.75C396.451,262.5,403.621,278.5,403.621,296.19z"/>
			<path style="fill:#9AD63B;" d="M344.531,462.3v42.2h-68.97V384.8C314.331,389.3,344.531,422.34,344.531,462.3z"/>
			<path style="fill:#9AD63B;" d="M403.624,296.183V504.5h-20.427V296.183c0-17.679-7.168-33.686-18.756-45.274
				c-9.312-9.312-21.474-15.766-35.065-17.94c3.322-0.534,6.735-0.815,10.219-0.815c17.678,0,33.686,7.168,45.273,18.756
				C396.457,262.497,403.624,278.504,403.624,296.183z"/>
			<path style="fill:#B9ACAC;" d="M403.624,296.183v123.448c-7.863-0.654-14.618-2.265-20.427-4.621
				c-58.251-23.649-21.665-123.015-61.945-98.43c-21.776,13.299-36.374,8.779-45.686,0.413v-20.81
				c0-31.884,23.306-58.331,53.811-63.214c3.322-0.534,6.735-0.815,10.219-0.815c17.678,0,33.686,7.168,45.273,18.756
				C396.457,262.497,403.624,278.504,403.624,296.183z"/>
			<path style="fill:#9E9797;" d="M403.624,296.183v123.448c-7.863-0.654-14.618-2.265-20.427-4.621V296.183
				c0-17.679-7.168-33.686-18.756-45.274c-9.312-9.312-21.474-15.766-35.065-17.94c3.322-0.534,6.735-0.815,10.219-0.815
				c17.678,0,33.686,7.168,45.273,18.756C396.457,262.497,403.624,278.504,403.624,296.183z"/>
		</g>
		<g>
			<path style="fill:#E3F6C5;" d="M330.526,504.5H202.469v-42.2c0-35.362,28.666-64.028,64.028-64.028h0
				c35.362,0,64.028,28.667,64.028,64.028V504.5z"/>
			<path style="fill:#BDEB73;" d="M330.521,462.3v42.2h-20v-42.2c0-17.68-7.17-33.69-18.76-45.28
				c-9.35-9.35-21.59-15.82-35.26-17.97c3.26-0.51,6.6-0.78,10-0.78c17.68,0,33.68,7.17,45.27,18.75
				C323.361,428.61,330.521,444.62,330.521,462.3z"/>
		</g>
		<path style="fill:#ED6264;" d="M311.852,58.581h-63.555V14.883h63.555c5.56,0,10.068,4.507,10.068,10.068v23.563
			C321.92,54.074,317.412,58.581,311.852,58.581z"/>
		<path style="fill:#E84649;" d="M321.921,24.95v23.56c0,5.56-4.51,10.07-10.07,10.07h-18.6c5.56,0,10.07-4.51,10.07-10.07V24.95
			c0-5.56-4.51-10.07-10.07-10.07h18.6C317.411,14.88,321.921,19.39,321.921,24.95z"/>
	</g>
	<path d="M403.622,445.802c4.143,0,7.5-3.358,7.5-7.5V296.186c0-32.643-21.989-60.229-51.927-68.775v-36.411
		c0-57.833-46.044-105.107-103.398-107.108v-17.81h56.056c9.687,0,17.567-7.881,17.567-17.568V24.95
		c0-9.687-7.881-17.567-17.567-17.567h-56.062C255.728,3.295,252.4,0,248.297,0c-4.143,0-7.5,3.358-7.5,7.5v76.913
		c-18.673,1.933-36.367,8.676-51.71,19.821c-3.351,2.435-4.094,7.125-1.66,10.476c1.468,2.02,3.755,3.092,6.074,3.092
		c1.528,0,3.071-0.466,4.402-1.433c12.76-9.269,27.413-15.006,42.894-16.875v10.168c0,4.142,3.357,7.5,7.5,7.5s7.5-3.358,7.5-7.5
		V98.899c36.122,1.466,66.95,23.816,80.713,55.274c-12.797,4.578-28.494,6.905-46.81,6.905c-31.846,0-52.34,3.154-66.448,10.226
		c-13.88,6.957-20.501,17.172-27.51,27.987c-1.539,2.374-3.13,4.829-4.854,7.346c-1.093,1.597-2.144,3.155-3.167,4.673
		c-8.854,13.127-14.81,21.944-27.89,27.197v-47.507c0-18.244,5.323-35.883,15.395-51.01c2.295-3.448,1.361-8.104-2.087-10.399
		c-3.446-2.296-8.103-1.361-10.399,2.086c-11.716,17.597-17.908,38.11-17.908,59.322v123.378
		c-25.61,9.305-43.954,33.883-43.954,62.669V504.5c0,4.142,3.357,7.5,7.5,7.5h295.244c4.143,0,7.5-3.358,7.5-7.5v-30.802
		c0-4.142-3.357-7.5-7.5-7.5s-7.5,3.358-7.5,7.5V497h-58.096v-34.7c0-33.737-23.486-62.075-54.962-69.57v-62.465
		c4.677,1.746,10.1,2.657,16.31,2.105v39.964c0,4.142,3.357,7.5,7.5,7.5s7.5-3.358,7.5-7.5v-43.821
		c3.422-1.413,7.011-3.226,10.786-5.532c4.314-2.634,6.279-2.794,6.758-2.794c0.083,0,0.118,0.003,0.119,0.002
		c2.671,1.71,4.408,15.664,5.446,24.001c1.915,15.377,4.298,34.515,12.959,50.563c9.474,17.555,24.834,28.108,45.68,31.488v12.062
		C396.122,442.444,399.479,445.802,403.622,445.802z M255.797,22.383h56.056c1.416,0,2.567,1.152,2.567,2.567v23.563
		c0,1.416-1.151,2.568-2.567,2.568h-56.056V22.383z M323.026,462.3V497H209.969v-34.7c0-31.17,25.358-56.528,56.528-56.528
		S323.026,431.13,323.026,462.3z M268.064,296.186v94.626c-0.523-0.011-1.042-0.04-1.567-0.04c-11.623,0-22.597,2.805-32.311,7.745
		v-21.471c0-7.223-1.168-14.364-3.471-21.224c-1.318-3.926-5.571-6.042-9.497-4.723c-3.927,1.318-6.042,5.57-4.724,9.497
		c1.786,5.318,2.691,10.853,2.691,16.45v31.672c-14.837,13.116-24.218,32.269-24.218,53.581V497h-35.138v-85.804
		c0-4.142-3.357-7.5-7.5-7.5s-7.5,3.358-7.5,7.5V497h-28.953V377.046c0-28.482,23.172-51.654,51.654-51.654
		c11.175,0,21.811,3.513,30.759,10.158c3.325,2.469,8.023,1.776,10.493-1.549s1.775-8.023-1.55-10.493
		c-2.213-1.643-4.507-3.136-6.869-4.479v-46.509c0-4.142-3.357-7.5-7.5-7.5s-7.5,3.358-7.5,7.5v40.284
		c-5.746-1.59-11.726-2.412-17.833-2.412c-2.606,0-5.172,0.167-7.7,0.459v-56.457c21.307-6.519,29.804-19.097,40.326-34.697
		c1.005-1.491,2.038-3.022,3.109-4.589c1.829-2.671,3.473-5.207,5.062-7.659c5.735-8.849,10.344-15.96,18.824-21.159V289.7
		c0,4.142,3.357,7.5,7.5,7.5s7.5-3.358,7.5-7.5V180.254c10.792-2.753,25.731-4.177,47.547-4.177c19.939,0,37.267-2.6,51.679-7.718
		c1.836,7.246,2.816,14.831,2.816,22.64v33.822c-1.523-0.097-3.055-0.164-4.603-0.164
		C300.152,224.657,268.064,256.745,268.064,296.186z M363.643,387.628c-7.324-13.571-9.423-30.424-11.274-45.292
		c-2.146-17.233-3.84-30.846-13.797-35.648c-8.664-4.178-18.119,1.594-21.229,3.491c-13.973,8.534-25.22,9.576-34.278,3.192v-17.185
		c0-31.17,25.358-56.528,56.528-56.528s56.529,25.358,56.529,56.528V411.03C381.049,408.082,370.606,400.531,363.643,387.628z"/>
</g>
<g>
</g>
<g>
</g>
<g>
</g>
<g>
</g>
<g>
</g>
<g>
</g>
<g>
</g>
<g>
</g>
<g>
</g>
<g>
</g>
<g>
</g>
<g>
</g>
<g>
</g>
<g>
</g>
<g>
</g>
</svg>
