<?xml version="1.0" encoding="iso-8859-1"?>
<!-- Generator: Adobe Illustrator 23.0.6, SVG Export Plug-In . SVG Version: 6.00 Build 0)  -->
<svg version="1.1" id="Capa_1" xmlns="http://www.w3.org/2000/svg" xmlns:xlink="http://www.w3.org/1999/xlink" x="0px" y="0px"
	 viewBox="0 0 512.015 512.015" style="enable-background:new 0 0 512.015 512.015;" xml:space="preserve">
<g>
	<g>
		<rect x="160.387" y="51.25" style="fill:#FFB54E;" width="191.24" height="53.07"/>
		<polygon style="fill:#FF9A1B;" points="214.377,104.32 160.387,104.32 160.387,51.25 190.627,51.25 		"/>
		<polygon style="fill:#FF9A1B;" points="351.627,51.25 351.627,104.32 297.637,104.32 321.387,51.25 		"/>
		<g>
			<g>
				<path style="fill:#FFCE8B;" d="M258.813,237.915L175.298,51.248h-41.102c-7.247,0-12.088,7.469-9.128,14.084l77.214,172.583
					H258.813z"/>
				<polygon style="fill:#FFB54E;" points="258.817,237.92 237.517,237.92 153.997,51.25 175.297,51.25 				"/>
			</g>
			<g>
				<path style="fill:#FFCE8B;" d="M253.201,237.915l83.515-186.667h41.102c7.247,0,12.088,7.469,9.128,14.084l-77.214,172.583
					H253.201z"/>
				<path style="fill:#FFB54E;" d="M386.947,65.33l-77.21,172.59h-21.44l77.21-172.59c2.96-6.61-1.88-14.08-9.13-14.08h21.44
					C385.067,51.25,389.907,58.72,386.947,65.33z"/>
			</g>
		</g>
		<g>
			<g>
				<g>
					<path style="fill:#BDEB73;" d="M446.684,155.981c8.331,24.123,10.547,59.196-0.36,62.963s-30.806-25.199-39.137-49.323
						c-8.331-24.123-1.938-34.268,8.968-38.035S438.353,131.858,446.684,155.981z"/>
				</g>
				<g>
					<path style="fill:#9AD63B;" d="M446.322,218.939c-2.537,0.88-5.57-0.02-8.836-2.224c3.478-12.657,0.667-36.697-5.54-54.672
						c-6.591-19.076-15.033-25.587-23.676-25.617c2.123-2.224,4.822-3.791,7.885-4.842c10.908-3.761,22.2,0.273,30.53,24.394
						C455.016,180.109,457.23,215.179,446.322,218.939z"/>
				</g>
				<g>
					<path style="fill:#8EC737;" d="M465.722,312.552c-5.034,3.72-15.478-0.96-26.396-9.291c-9.21-7.036-18.763-16.66-25.708-26.052
						c-15.174-20.532-12.111-32.118-2.831-38.982c9.018-6.662,20.593-6.399,35.171,12.475c0.425,0.536,0.839,1.092,1.264,1.668
						C462.386,272.893,475.002,305.688,465.722,312.552z"/>
					<path style="fill:#83B832;" d="M465.722,312.552c-5.034,3.72-15.478-0.96-26.396-9.291c-0.596-4.307-0.768-9.169-0.516-14.568
						c0.556-12.03,3.184-25.86,7.147-37.991c0.425,0.536,0.839,1.092,1.264,1.668C462.386,272.893,475.002,305.688,465.722,312.552z
						"/>
					<path style="fill:#BDEB73;" d="M461.057,250.443c-8.993,23.884-12.176,58.883-1.377,62.949s31.489-24.34,40.482-48.224
						c8.993-23.884,2.883-34.202-7.916-38.268S470.05,226.559,461.057,250.443z"/>
					<path style="fill:#9AD63B;" d="M500.164,265.17c-8.997,23.878-29.681,52.286-40.488,48.222
						c-2.517-0.94-4.266-3.569-5.368-7.339c10.777-7.42,24.06-27.831,30.793-45.705c7.087-18.834,4.792-29.226-1.789-34.776
						c2.982-0.313,5.985,0.212,8.937,1.324C503.046,230.969,509.152,241.281,500.164,265.17z"/>
				</g>
				<g>
					<path style="fill:#8EC737;" d="M439.68,415.416c-6.096,1.436-13.84-6.996-20.583-18.965
						c-5.692-10.089-10.665-22.716-13.344-34.079c-5.843-24.839,1.547-34.291,12.778-36.93c10.928-2.568,21.462,2.244,27.407,25.354
						c0.172,0.657,0.334,1.324,0.495,2.012C452.266,377.657,450.911,412.767,439.68,415.416z"/>
					<path style="fill:#83B832;" d="M439.68,415.416c-6.096,1.436-13.84-6.996-20.583-18.965c1.142-4.195,2.901-8.724,5.267-13.587
						c5.267-10.837,13.142-22.493,21.574-32.067c0.172,0.657,0.334,1.324,0.495,2.012
						C452.266,377.657,450.911,412.767,439.68,415.416z"/>
					<path style="fill:#BDEB73;" d="M459.904,356.503c-17.689,18.397-34.425,49.298-26.108,57.296
						c8.318,7.998,38.539-9.937,56.228-28.334s16.146-30.288,7.829-38.286C489.536,339.181,477.593,338.107,459.904,356.503z"/>
					<path style="fill:#9AD63B;" d="M490.025,385.461c-17.691,18.399-47.908,36.333-56.229,28.337
						c-1.284-1.233-1.971-3.023-2.143-5.227c12.839-3.771,31.198-16.337,43.501-29.125c17.226-17.914,16.215-29.661,8.472-37.658
						c5.681-0.566,10.352,1.658,14.224,5.388C506.169,355.174,507.716,367.072,490.025,385.461z"/>
				</g>
			</g>
			<g>
				<g>
					<path style="fill:#BDEB73;" d="M65.33,155.981c-8.331,24.123-10.547,59.196,0.36,62.963s30.806-25.199,39.137-49.323
						s1.938-34.268-8.968-38.035S73.661,131.858,65.33,155.981z"/>
				</g>
				<g>
					<path style="fill:#9AD63B;" d="M104.826,169.626c-8.33,24.121-28.226,53.085-39.134,49.314c-2.679-0.92-4.569-3.73-5.762-7.815
						c10.615-7.592,23.464-28.529,29.742-46.705c6.288-18.217,4.185-28.468-1.921-33.998c2.689-0.222,5.409,0.232,8.108,1.163
						C106.767,135.355,113.156,145.494,104.826,169.626z"/>
				</g>
				<g>
					<path style="fill:#8EC737;" d="M46.293,312.552c5.034,3.72,15.477-0.96,26.396-9.291c9.21-7.036,18.763-16.66,25.708-26.052
						c15.174-20.532,12.111-32.118,2.831-38.982c-9.018-6.662-20.593-6.399-35.171,12.475c-0.425,0.536-0.839,1.092-1.264,1.668
						C49.629,272.893,37.012,305.688,46.293,312.552z"/>
					<path style="fill:#83B832;" d="M98.396,277.21c-6.945,9.392-16.498,19.016-25.708,26.052
						c-10.918,8.33-21.361,13.011-26.396,9.291c-1.365-1.011-2.264-2.598-2.74-4.61c4.226-1.84,8.987-4.822,13.84-8.522
						c9.21-7.036,18.763-16.66,25.708-26.052c14.932-20.199,12.202-31.744,3.275-38.638c5.57-1.314,10.514,0.293,14.851,3.498
						C110.507,245.092,113.571,256.678,98.396,277.21z"/>
					<path style="fill:#83B832;" d="M46.293,312.552c5.034,3.72,15.477-0.96,26.396-9.291c0.596-4.307,0.768-9.169,0.516-14.568
						c-0.556-12.03-3.184-25.86-7.147-37.991c-0.425,0.536-0.839,1.092-1.264,1.668C49.629,272.893,37.012,305.688,46.293,312.552z"
						/>
					<path style="fill:#BDEB73;" d="M50.957,250.443c8.993,23.884,12.176,58.883,1.377,62.949s-31.489-24.34-40.482-48.224
						c-8.993-23.884-2.883-34.202,7.916-38.268S41.964,226.559,50.957,250.443z"/>
					<path style="fill:#9AD63B;" d="M52.338,313.391c-2.719,1.021-6.066-0.01-9.695-2.517c3.943-12.192,0.465-37.597-6.551-56.228
						c-6.399-16.984-14.002-23.767-21.745-24.809c1.597-1.233,3.427-2.194,5.419-2.942c10.797-4.064,22.2-0.334,31.187,23.545
						C59.95,274.329,63.135,309.327,52.338,313.391z"/>
				</g>
				<g>
					<path style="fill:#8EC737;" d="M72.335,415.416c6.096,1.436,13.84-6.996,20.583-18.965
						c5.692-10.089,10.665-22.716,13.344-34.079c5.843-24.839-1.547-34.291-12.778-36.93c-10.928-2.568-21.462,2.244-27.407,25.354
						c-0.172,0.657-0.334,1.324-0.495,2.012C59.748,377.657,61.103,412.767,72.335,415.416z"/>
					<path style="fill:#83B832;" d="M106.262,362.372c-2.679,11.363-7.653,23.99-13.344,34.079
						c-6.743,11.969-14.487,20.401-20.583,18.965c-2.871-0.677-5.095-3.478-6.723-7.683c3.943-3.367,8.037-8.967,11.808-15.67
						c5.692-10.089,10.665-22.716,13.344-34.079c4.236-17.995,1.516-27.922-4.569-33.017c2.376-0.303,4.822-0.101,7.289,0.475
						C104.715,328.08,112.105,337.533,106.262,362.372z"/>
					<path style="fill:#83B832;" d="M72.335,415.416c6.096,1.436,13.84-6.996,20.583-18.965c-1.142-4.195-2.901-8.724-5.267-13.587
						c-5.267-10.837-13.142-22.493-21.574-32.067c-0.172,0.657-0.334,1.324-0.495,2.012
						C59.748,377.657,61.103,412.767,72.335,415.416z"/>
					<path style="fill:#BDEB73;" d="M52.11,356.503c17.689,18.397,34.425,49.298,26.108,57.296
						c-8.318,7.998-38.539-9.937-56.228-28.334s-16.146-30.288-7.829-38.286S34.422,338.107,52.11,356.503z"/>
					<path style="fill:#9AD63B;" d="M78.218,413.798c-2.659,2.558-7.562,2.467-13.577,0.546
						c2.234-11.474-12.556-37.243-28.074-53.378c-8.492-8.836-15.659-13.173-21.735-14.416c8.28-7.41,20.057-7.956,37.273,9.958
						C69.797,374.897,86.538,405.802,78.218,413.798z"/>
				</g>
			</g>
		</g>
		<g>
			<circle style="fill:#F37D7E;" cx="256.007" cy="341.177" r="119.59"/>
			<circle style="fill:#ED6264;" cx="256.007" cy="341.177" r="102.804"/>
			<circle style="fill:#65BAFC;" cx="256.007" cy="341.177" r="88.804"/>
			<path style="fill:#2EA8FC;" d="M344.807,341.177c0,49.05-39.75,88.8-88.8,88.8c-3.64,0-7.23-0.22-10.75-0.65
				c43.98-5.3,78.05-42.74,78.05-88.15s-34.07-82.85-78.05-88.15c3.52-0.43,7.11-0.65,10.75-0.65
				C305.057,252.377,344.807,292.127,344.807,341.177z"/>
			<g>
				<path style="fill:#FFCE8B;" d="M302.887,333.247l-19.81,19.31l4.67,27.27c0.7,4.08-3.58,7.2-7.25,5.27l-24.49-12.88
					l-24.49,12.88c-3.67,1.93-7.95-1.19-7.25-5.27l2.2-12.86l2.47-14.41l-19.81-19.31c-2.96-2.89-1.33-7.93,2.77-8.53l27.38-3.98
					l12.25-24.81c1.83-3.71,7.13-3.71,8.96,0l12.25,24.81l11.53,1.68l15.85,2.3C304.217,325.317,305.847,330.357,302.887,333.247z"
					/>
				<path style="fill:#FFB54E;" d="M302.887,333.247l-19.81,19.31l4.67,27.27c0.7,4.08-3.58,7.2-7.25,5.27l-24.49-12.88
					l-24.49,12.88c-3.67,1.93-7.95-1.19-7.25-5.27l2.2-12.86c36.74-10.17,51.74-30.78,57.8-44.55l15.85,2.3
					C304.217,325.317,305.847,330.357,302.887,333.247z"/>
			</g>
		</g>
	</g>
	<g>
		<path d="M481.169,334.543c-3.39,0.561-6.826,1.792-10.338,3.689c0.949-6.65,1.561-13.475,1.828-20.43
			c0.001-0.037-0.002-0.073-0.001-0.111c4.372-2.799,8.978-7.21,13.801-13.252c8.213-10.288,15.959-23.981,20.722-36.63
			c4.831-12.83,6.025-23.064,3.651-31.289c-2.254-7.808-7.768-13.563-15.943-16.642c-8.178-3.077-16.116-2.388-22.959,1.994
			c-4.022,2.575-7.62,6.357-10.856,11.422c-1.667-5.542-3.255-10.205-4.566-13.82c8.956-14.686,3.548-47.746-2.736-65.942
			c-4.475-12.958-10.092-21.597-17.17-26.41c-6.72-4.569-14.635-5.477-22.896-2.625c-8.258,2.852-13.927,8.451-16.396,16.194
			c-2.6,8.156-1.688,18.42,2.787,31.378c4.411,12.774,11.776,26.677,19.703,37.188c8.387,11.123,16.223,16.97,23.376,17.492
			c1.353,3.853,2.937,8.698,4.556,14.357c-6.248-6.974-12.435-11.343-18.771-13.256c-7.782-2.346-15.605-0.844-22.633,4.349
			c-7.024,5.193-10.757,12.234-10.795,20.36c-0.039,8.561,3.903,18.08,12.052,29.104c12.87,17.412,34.763,36.516,49.893,39.311
			c-0.583,10.027-1.938,19.714-4.052,28.893c-3.134-12.675-7.748-21.454-14.097-26.789c-6.224-5.229-14.005-6.935-22.511-4.936
			c-8.504,1.998-14.713,6.994-17.955,14.446c-3.414,7.85-3.55,18.153-0.412,31.498c3.66,15.574,12.421,36.381,22.517,48.517
			c-13.837,15.153-31.682,27.881-53.124,37.867c-3.755,1.749-5.382,6.21-3.633,9.965c1.271,2.731,3.978,4.336,6.804,4.336
			c1.06,0,2.138-0.227,3.161-0.703c23.622-11.001,43.309-25.171,58.592-42.148c2.053,0.86,4.337,1.27,6.807,1.27
			c17.19,0,42.927-19.083,55.854-32.527c9.502-9.882,14.638-18.814,15.702-27.309c1.011-8.064-1.784-15.527-8.081-21.582
			C496.754,335.717,489.189,333.22,481.169,334.543z M468.076,253.085c8.995-23.889,18.098-20.457,21.528-19.168
			c3.428,1.291,12.533,4.72,3.54,28.607c-8.954,23.779-25.231,42.418-30.762,43.689
			C459.065,301.611,459.122,276.865,468.076,253.085z M414.277,167.173c-8.332-24.126,0.865-27.302,4.327-28.498
			c0.972-0.335,2.396-0.827,4.125-0.827c4.433,0,10.873,3.229,16.866,20.581c8.293,24.016,7.669,48.754,4.227,53.267
			C438.327,210.269,422.57,191.189,414.277,167.173z M419.649,272.747c-15.172-20.524-7.348-26.31-4.402-28.486
			s10.771-7.96,25.941,12.563c2.437,3.298,4.829,6.965,7.109,10.898c-1.533,7.235-2.529,14.551-2.842,21.277
			c-0.161,3.45-0.135,6.621,0.065,9.528C436.335,291.724,426.197,281.607,419.649,272.747z M412.62,338.573
			c1.353-3.107,3.706-4.905,7.633-5.828c3.926-0.924,6.834-0.362,9.429,1.818c2.703,2.271,6.537,7.579,9.448,19.965
			c0.94,3.997,1.687,8.327,2.231,12.862c-6.052,8.555-11.615,18.243-14.691,27.191c-5.609-9.486-10.876-22.273-13.615-33.925
			C410.143,348.271,411.211,341.811,412.62,338.573z M496.249,361.49c-0.438,3.505-2.813,9.606-11.631,18.777
			c-17.611,18.314-39.938,29.009-45.507,28.005c-1.23-5.541,8.588-28.255,26.198-46.57c17.693-18.401,24.705-11.655,27.346-9.116
			C495.563,355.38,496.671,358.126,496.249,361.49z"/>
		<path d="M144.168,450.471c-21.441-9.985-39.282-22.715-53.122-37.87c10.095-12.135,18.855-32.941,22.515-48.514
			c3.138-13.345,3.002-23.648-0.412-31.498c-3.242-7.452-9.451-12.448-17.954-14.446c-8.508-2-16.289-0.293-22.512,4.936
			c-6.35,5.336-10.965,14.117-14.099,26.796c-2.117-9.186-3.469-18.874-4.052-28.912c6.199-1.13,13.553-4.868,21.981-11.194
			c10.042-7.538,20.478-18.045,27.914-28.105c8.148-11.024,12.091-20.544,12.052-29.104c-0.038-8.126-3.771-15.167-10.796-20.36
			c-7.025-5.192-14.854-6.693-22.631-4.349c-6.338,1.913-12.527,6.283-18.776,13.259c1.606-5.617,3.184-10.447,4.559-14.36
			c7.153-0.522,14.989-6.37,23.376-17.492c7.927-10.511,15.292-24.413,19.703-37.188c4.476-12.958,5.387-23.222,2.787-31.378
			c-2.469-7.743-8.138-13.343-16.396-16.194c-8.258-2.851-16.174-1.942-22.896,2.625c-7.078,4.813-12.695,13.452-17.17,26.41
			c-6.284,18.196-11.692,51.256-2.736,65.942c-1.339,3.691-2.921,8.352-4.565,13.82c-3.235-5.065-6.834-8.846-10.856-11.421
			c-6.846-4.383-14.785-5.072-22.959-1.993c-8.176,3.078-13.689,8.833-15.943,16.641c-2.374,8.225-1.18,18.459,3.651,31.289
			c4.763,12.648,12.509,26.342,20.722,36.63c4.828,6.048,9.439,10.462,13.814,13.26c0.267,6.996,0.871,13.857,1.824,20.538
			c-3.516-1.901-6.955-3.134-10.348-3.695c-8.023-1.324-15.586,1.175-21.883,7.229s-9.092,13.518-8.081,21.582
			c1.064,8.494,6.2,17.427,15.702,27.309c12.929,13.445,38.664,32.527,55.854,32.527c2.467,0,4.75-0.409,6.802-1.269
			c15.286,16.979,34.975,31.147,58.596,42.147c1.024,0.478,2.101,0.703,3.161,0.703c2.826,0,5.532-1.605,6.804-4.336
			C149.55,456.681,147.923,452.22,144.168,450.471z M72.885,354.527c2.911-12.385,6.745-17.692,9.448-19.964
			c2.596-2.18,5.503-2.741,9.43-1.818c3.926,0.923,6.279,2.721,7.632,5.828c1.408,3.238,2.477,9.698-0.435,22.083
			c-2.739,11.651-8.006,24.439-13.615,33.925c-3.076-8.947-8.639-18.635-14.69-27.189C71.199,362.855,71.945,358.527,72.885,354.527
			z M70.826,256.826c15.172-20.525,22.997-14.742,25.941-12.564c2.946,2.177,10.771,7.962-4.401,28.486
			c-8.068,10.915-17.739,19.836-25.868,25.745c0.197-2.897,0.222-6.056,0.062-9.492c-0.313-6.721-1.308-14.03-2.838-21.259
			C66.001,263.807,68.383,260.131,70.826,256.826z M72.419,158.429c8.332-24.124,17.529-20.946,20.991-19.754
			c3.462,1.196,12.659,4.372,4.327,28.498c-8.293,24.016-24.05,43.096-29.545,44.522C64.75,207.183,64.126,182.445,72.419,158.429z
			 M18.871,262.525c-8.993-23.888,0.112-27.316,3.54-28.606c1.009-0.38,2.507-0.944,4.351-0.944c4.424,0,10.829,3.252,17.178,20.111
			c8.916,23.682,9.009,48.315,5.733,53.064c-0.159-0.031-0.319-0.05-0.478-0.071C43.29,304.002,27.601,285.711,18.871,262.525z
			 M72.903,408.272c-5.593,0.994-27.896-9.691-45.507-28.005c-8.817-9.171-11.192-15.272-11.631-18.777
			c-0.422-3.363,0.687-6.109,3.594-8.904c1.242-1.194,3.452-3.319,7.287-3.319c4.315,0,10.69,2.692,20.059,12.436
			C64.315,380.017,74.133,402.731,72.903,408.272z"/>
		<path d="M320.678,231.814l10.159-22.708c1.692-3.78-0.002-8.217-3.783-9.908c-3.775-1.69-8.217,0.002-9.908,3.783l-9.816,21.942
			c-11.149-4.941-23.134-8.326-35.682-9.873l69.93-156.301h36.24c1.183,0,1.822,0.714,2.099,1.14
			c0.275,0.427,0.667,1.302,0.185,2.382l-48.435,108.257c-1.692,3.78,0.002,8.217,3.783,9.908c3.775,1.691,8.217-0.001,9.908-3.783
			l48.436-108.258c2.432-5.437,1.949-11.667-1.29-16.665c-3.239-4.997-8.729-7.98-14.686-7.98H134.196
			c-5.955,0-11.445,2.983-14.685,7.98c-3.239,4.998-3.722,11.228-1.289,16.666l73.114,163.419
			c-37.335,22.162-62.419,62.885-62.419,109.363c0,70.077,57.013,127.09,127.09,127.09s127.09-57.013,127.09-127.09
			C383.097,294.699,358.014,253.976,320.678,231.814z M308.111,96.822h-23.406c-4.143,0-7.5,3.357-7.5,7.5s3.357,7.5,7.5,7.5H301.4
			l-45.393,101.459l-45.393-101.459h38.695c4.143,0,7.5-3.357,7.5-7.5s-3.357-7.5-7.5-7.5h-45.406L186.87,58.748h138.275
			L308.111,96.822z M131.914,62.271c-0.483-1.081-0.092-1.957,0.184-2.383c0.276-0.426,0.916-1.14,2.098-1.14h36.241l69.93,156.301
			c-12.548,1.547-24.533,4.932-35.682,9.873L131.914,62.271z M256.007,453.266c-61.807,0-112.09-50.283-112.09-112.09
			s50.283-112.09,112.09-112.09s112.09,50.283,112.09,112.09S317.814,453.266,256.007,453.266z"/>
		<path d="M256.007,244.872c-53.103,0-96.305,43.201-96.305,96.304c0,19.685,5.906,38.619,17.08,54.758
			c2.357,3.406,7.029,4.256,10.436,1.896c3.405-2.357,4.255-7.03,1.896-10.436c-9.429-13.618-14.412-29.6-14.412-46.219
			c0-44.831,36.474-81.304,81.305-81.304s81.305,36.473,81.305,81.304c0,44.832-36.474,81.305-81.305,81.305
			c-15.442,0-30.468-4.35-43.453-12.578c-3.499-2.215-8.132-1.178-10.35,2.32c-2.218,3.499-1.179,8.133,2.32,10.35
			c15.391,9.753,33.192,14.908,51.482,14.908c53.103,0,96.305-43.202,96.305-96.305S309.11,244.872,256.007,244.872z"/>
		<path d="M311.282,325.803c-1.481-4.559-5.348-7.818-10.091-8.507l-23.476-3.412l-10.499-21.272
			c-2.121-4.298-6.416-6.968-11.209-6.968s-9.088,2.67-11.209,6.968l-10.499,21.272l-23.476,3.412
			c-4.743,0.688-8.609,3.948-10.091,8.507s-0.269,9.469,3.163,12.814l16.987,16.558l-4.011,23.382
			c-0.81,4.724,1.097,9.407,4.974,12.225c3.875,2.815,8.919,3.182,13.164,0.952l20.997-11.039l20.998,11.039
			c1.845,0.97,3.841,1.449,5.827,1.448c2.581,0,5.146-0.809,7.336-2.4c3.877-2.817,5.783-7.501,4.973-12.226l-4.01-23.381
			l16.986-16.558C311.55,335.272,312.763,330.362,311.282,325.803z M277.837,347.186c-1.768,1.724-2.574,4.206-2.156,6.639
			l3.82,22.274l-20.004-10.517c-2.186-1.148-4.795-1.148-6.98,0l-20.004,10.517l3.82-22.274c0.418-2.433-0.389-4.915-2.156-6.639
			l-16.184-15.774l22.364-3.25c2.443-0.354,4.555-1.889,5.647-4.103l10.002-20.266l10.002,20.266
			c1.093,2.214,3.204,3.748,5.647,4.103l22.364,3.25L277.837,347.186z"/>
	</g>
</g>
<g>
</g>
<g>
</g>
<g>
</g>
<g>
</g>
<g>
</g>
<g>
</g>
<g>
</g>
<g>
</g>
<g>
</g>
<g>
</g>
<g>
</g>
<g>
</g>
<g>
</g>
<g>
</g>
<g>
</g>
</svg>
