<?xml version="1.0" encoding="iso-8859-1"?>
<!-- Generator: Adobe Illustrator 23.0.6, SVG Export Plug-In . SVG Version: 6.00 Build 0)  -->
<svg version="1.1" id="Capa_1" xmlns="http://www.w3.org/2000/svg" xmlns:xlink="http://www.w3.org/1999/xlink" x="0px" y="0px"
	 viewBox="0 0 512.008 512.008" style="enable-background:new 0 0 512.008 512.008;" xml:space="preserve">
<g>
	<g>
		<g>
			<g>
				<path style="fill:#ED6264;" d="M359.714,413.083l74.274,88.516c2.887,3.441,8.017,3.896,11.464,1.003l31.654-26.561
					c3.441-2.887,3.89-8.023,1.003-11.464l-79.505-94.75l-37.887,31.791c-1.845,1.548-2.828,3.744-2.902,5.973
					C357.755,409.521,358.375,411.487,359.714,413.083z"/>
				<path style="fill:#E84649;" d="M357.815,407.591l45.098,10.033c4.94,1.102,10.116-0.16,13.993-3.414l11.114-9.326
					l-29.417-35.057l-37.887,31.791C358.872,403.167,357.888,405.362,357.815,407.591z"/>
				<path style="fill:#F37D7E;" d="M448.644,387.577l-31.66,26.57c-3.44,2.88-8.57,2.43-11.46-1.01l-65.8-78.41l-21.36-25.46
					l44.12-37.02l23.55,28.06l63.61,75.81C452.534,379.557,452.084,384.697,448.644,387.577z"/>
				<path style="fill:#ED6264;" d="M386.034,300.307c-5.35,6.21-13.17,9.98-21.34,9.98c-3.75,0-7.43-0.78-10.89-2.28
					c0.62,6.64-1.11,13.18-5.05,18.63c-2.43,3.34-5.52,6.09-9.03,8.09l-21.36-25.46l44.12-37.02L386.034,300.307z"/>
			</g>
			<g>
				<path style="fill:#ED6264;" d="M152.294,413.083L78.02,501.599c-2.887,3.441-8.017,3.896-11.464,1.003l-31.654-26.561
					c-3.441-2.887-3.89-8.023-1.003-11.464l79.505-94.75l37.887,31.791c1.845,1.548,2.828,3.744,2.902,5.973
					C154.253,409.521,153.633,411.487,152.294,413.083z"/>
				<path style="fill:#E84649;" d="M154.194,407.591l-45.098,10.033c-4.94,1.102-10.116-0.16-13.993-3.414l-11.114-9.326
					l29.417-35.057l37.887,31.791C153.137,403.167,154.12,405.362,154.194,407.591z"/>
				<path style="fill:#F37D7E;" d="M193.644,309.267l-21.36,25.46l-65.8,78.41c-2.89,3.44-8.02,3.89-11.46,1.01l-31.66-26.57
					c-3.44-2.88-3.89-8.02-1-11.46l63.61-75.81l23.55-28.06L193.644,309.267z"/>
				<path style="fill:#ED6264;" d="M149.524,272.247l44.12,37.02l-21.36,25.46c-3.51-2-6.6-4.75-9.02-8.09
					c-3.95-5.45-5.68-11.99-5.06-18.63c-3.46,1.5-7.14,2.28-10.88,2.28h-0.01c-8.18,0-16-3.77-21.34-9.98L149.524,272.247z"/>
			</g>
		</g>
		<g>
			<g>
				<path style="fill:#65BAFC;" d="M266.647,17.295L266.647,17.295c4.914-15.319,27.534-11.736,27.474,4.351v0
					c-0.041,10.87,13.887,15.396,20.243,6.578l0,0c9.407-13.05,29.813-2.653,24.784,12.628l0,0
					c-3.398,10.325,8.45,18.933,17.22,12.511l0,0c12.979-9.505,29.174,6.69,19.669,19.669l0,0
					c-6.422,8.77,2.186,20.618,12.511,17.22l0,0c15.281-5.029,25.679,15.378,12.628,24.784l0,0
					c-8.818,6.356-4.292,20.284,6.578,20.243h0c16.087-0.06,19.67,22.56,4.351,27.474l0,0c-10.351,3.32-10.351,17.965,0,21.285l0,0
					c15.318,4.914,11.736,27.534-4.351,27.474h0c-10.87-0.041-15.396,13.887-6.578,20.243l0,0
					c13.05,9.407,2.653,29.813-12.628,24.784l0,0c-10.325-3.398-18.933,8.45-12.511,17.22l0,0
					c9.505,12.979-6.69,29.174-19.669,19.669l0,0c-8.77-6.422-20.618,2.186-17.22,12.511l0,0
					c5.029,15.281-15.378,25.679-24.784,12.628l0,0c-6.356-8.818-20.284-4.292-20.243,6.578v0c0.06,16.087-22.56,19.67-27.474,4.351
					l0,0c-3.32-10.351-17.965-10.351-21.285,0l0,0c-4.914,15.318-27.534,11.736-27.474-4.351v0
					c0.041-10.87-13.887-15.396-20.243-6.578l0,0c-9.407,13.05-29.813,2.653-24.784-12.628l0,0
					c3.398-10.325-8.45-18.933-17.22-12.511l0,0c-12.979,9.505-29.174-6.69-19.669-19.669l0,0c6.422-8.77-2.186-20.618-12.511-17.22
					l0,0c-15.281,5.029-25.679-15.378-12.628-24.784l0,0c8.818-6.356,4.292-20.284-6.578-20.243h0
					c-16.087,0.061-19.67-22.56-4.351-27.474l0,0c10.351-3.32,10.351-17.965,0-21.285l0,0c-15.318-4.914-11.736-27.534,4.351-27.474
					h0c10.87,0.041,15.396-13.887,6.578-20.243l0,0c-13.05-9.407-2.653-29.813,12.628-24.784l0,0
					c10.325,3.398,18.933-8.45,12.511-17.22l0,0c-9.505-12.979,6.69-29.174,19.669-19.669l0,0c8.77,6.422,20.618-2.186,17.22-12.511
					l0,0c-5.029-15.281,15.378-25.679,24.784-12.628l0,0c6.356,8.818,20.284,4.292,20.243-6.578v0
					c-0.06-16.087,22.56-19.67,27.474-4.351l0,0C248.682,27.645,263.327,27.645,266.647,17.295z"/>
				<circle style="fill:#2EA8FC;" cx="256.001" cy="173.402" r="132.52"/>
				<circle style="fill:#FFCE8B;" cx="255.735" cy="173.402" r="117.755"/>
				<path style="fill:#FFB54E;" d="M373.759,173.406c0,65.027-52.728,117.755-117.755,117.755c-3.616,0-7.195-0.164-10.728-0.484
					c60.005-5.414,107.027-55.86,107.027-117.271c0-61.42-47.022-111.857-107.027-117.271c3.533-0.32,7.113-0.484,10.728-0.484
					C321.031,55.651,373.759,108.37,373.759,173.406z"/>
			</g>
			<g>
				<path style="fill:#FFA730;" d="M275.306,203.822l0-78.037c0-5.399-2.268-10.639-6.459-14.041
					c-6.13-4.976-14.595-5.232-20.927-0.995l-28.824,19.293c-4.038,2.703-5.121,8.168-2.418,12.206l9.788,14.624
					c2.703,4.038,8.168,5.121,12.206,2.418l1.438-0.963v45.494h-12.713c-4.859,0-8.799,3.939-8.799,8.799v17.598
					c0,4.859,3.939,8.799,8.799,8.799h60.622c4.859,0,8.799-3.939,8.799-8.799v-17.598c0-4.859-3.939-8.799-8.799-8.799H275.306z"/>
			</g>
		</g>
	</g>
	<g>
		<path d="M483.854,459.756l-45.267-53.947l14.875-12.482c6.605-5.542,7.471-15.425,1.928-22.031l-69.881-83.281
			c1.821-6.192,0.738-13.007-3.421-18.686c-1.43-1.953-0.481-3.681-0.008-4.333c0.475-0.653,1.823-2.089,4.124-1.332
			c10.346,3.403,21.022-0.995,25.966-10.698c4.943-9.703,2.227-20.927-6.607-27.294c-1.964-1.416-1.597-3.353-1.348-4.12
			c0.249-0.765,1.086-2.54,3.492-2.54c0.038,0.001,0.072,0,0.107,0c10.849,0,19.602-7.472,21.3-18.198
			c1.704-10.756-4.349-20.591-14.718-23.917c-2.305-0.739-2.554-2.695-2.554-3.501c0-0.806,0.249-2.761,2.554-3.5
			c10.369-3.326,16.422-13.161,14.718-23.917c-1.698-10.727-10.45-18.198-21.3-18.198c-0.034,0-0.071,0.002-0.106,0
			c-2.407,0-3.244-1.776-3.493-2.541c-0.249-0.767-0.616-2.704,1.348-4.119c8.834-6.368,11.551-17.592,6.607-27.294
			c-4.944-9.704-15.624-14.102-25.965-10.699c-2.302,0.758-3.651-0.679-4.125-1.331s-1.422-2.381,0.008-4.334
			c6.435-8.786,5.55-20.3-2.15-28c-7.7-7.701-19.216-8.585-28-2.151c-1.953,1.432-3.682,0.481-4.334,0.008
			c-0.652-0.474-2.088-1.825-1.331-4.125c3.404-10.344-0.995-21.021-10.698-25.965s-20.928-2.227-27.295,6.607
			c-1.416,1.962-3.351,1.596-4.118,1.347c-0.768-0.25-2.55-1.09-2.541-3.511c0.041-10.89-7.442-19.685-18.197-21.389
			c-10.754-1.703-20.591,4.349-23.918,14.718c-0.739,2.305-2.694,2.554-3.501,2.554c-0.806,0-2.762-0.249-3.501-2.554
			c-3.326-10.37-13.158-16.423-23.917-14.718c-10.756,1.703-18.239,10.499-18.198,21.388c0.009,2.421-1.774,3.262-2.541,3.511
			c-0.767,0.249-2.703,0.617-4.119-1.347c-6.369-8.833-17.591-11.55-27.294-6.607c-9.703,4.944-14.102,15.621-10.698,25.965
			c0.756,2.299-0.679,3.65-1.332,4.124s-2.381,1.422-4.333-0.009c-8.787-6.434-20.301-5.548-28,2.151
			c-7.7,7.7-8.584,19.214-2.151,28c1.43,1.953,0.482,3.681,0.008,4.333c-0.474,0.652-1.823,2.088-4.124,1.331
			c-10.345-3.405-21.022,0.995-25.965,10.699c-4.944,9.703-2.227,20.927,6.607,27.294c1.964,1.416,1.596,3.352,1.347,4.119
			c-0.249,0.765-1.086,2.541-3.493,2.541c-0.006,0-0.012,0-0.018,0c-10.879-0.084-19.686,7.442-21.389,18.198
			c-1.704,10.756,4.349,20.591,14.719,23.917c2.305,0.739,2.553,2.694,2.553,3.5c0,0.807-0.249,2.762-2.554,3.501
			c-10.37,3.326-16.422,13.161-14.718,23.917c1.699,10.727,10.451,18.199,21.3,18.198c0.036,0,0.071,0,0.107,0
			c2.406,0,3.244,1.775,3.492,2.541c0.249,0.767,0.617,2.704-1.347,4.119c-8.834,6.368-11.551,17.591-6.607,27.294
			c4.943,9.703,15.62,14.102,25.966,10.698c2.3-0.756,3.65,0.679,4.123,1.332c0.474,0.652,1.422,2.38-0.008,4.333
			c-4.158,5.679-5.241,12.494-3.42,18.686l-22.075,26.308c-2.662,3.173-2.249,7.904,0.925,10.566
			c1.405,1.179,3.116,1.754,4.817,1.754c2.14,0,4.266-0.911,5.749-2.679l19.852-23.659c7.394,4.805,16.831,4.647,24.304-0.826
			c1.954-1.429,3.681-0.482,4.333-0.008c0.653,0.474,2.088,1.825,1.332,4.124c-2.602,7.905-0.633,15.996,4.764,21.583
			l-69.762,83.138c-0.042,0.05-0.169,0.202-0.432,0.225c-0.261,0.025-0.415-0.104-0.465-0.146l-31.653-26.561
			c-0.27-0.226-0.305-0.629-0.079-0.898l24.968-29.755c2.663-3.173,2.249-7.904-0.924-10.566c-3.173-2.663-7.904-2.25-10.566,0.924
			l-24.968,29.755c-5.542,6.605-4.677,16.488,1.928,22.03l14.877,12.483l-45.267,53.947c-2.685,3.199-3.962,7.252-3.598,11.415
			c0.364,4.162,2.327,7.932,5.525,10.616l31.654,26.561c2.843,2.386,6.359,3.661,10.024,3.661c0.463,0,0.928-0.021,1.395-0.062
			c4.159-0.365,7.927-2.328,10.611-5.527l74.275-88.517c5.47-6.519,4.594-16.559-1.928-22.03l-14.876-12.483l43.207-51.492
			c7.363,0.693,14.625-2.478,19.285-8.944c1.416-1.964,3.353-1.596,4.119-1.347c0.767,0.25,2.55,1.09,2.541,3.511
			c-0.041,10.89,7.442,19.685,18.198,21.389c1.212,0.192,2.411,0.286,3.591,0.285c9.297,0,17.375-5.802,20.326-15.003
			c0.739-2.305,2.695-2.554,3.501-2.554c0.806,0,2.762,0.249,3.501,2.554c3.326,10.369,13.163,16.423,23.917,14.718
			c10.756-1.704,18.239-10.499,18.198-21.389c-0.009-2.42,1.773-3.261,2.54-3.51c0.769-0.249,2.704-0.617,4.12,1.346
			c4.66,6.466,11.923,9.637,19.285,8.944l43.206,51.491l-14.875,12.482c-6.522,5.472-7.4,15.511-1.928,22.031l31.566,37.62
			c1.483,1.768,3.608,2.679,5.749,2.679c1.701,0,3.412-0.576,4.817-1.755c3.173-2.662,3.587-7.393,0.924-10.566l-22.577-26.906
			l26.832,5.969c1.691,0.377,3.408,0.562,5.12,0.562c5.546,0,11.024-1.94,15.326-5.55c0.012-0.01,0.023-0.022,0.035-0.032
			c0.016-0.013,0.033-0.024,0.048-0.037l5.287-4.436l45.267,53.948c0.112,0.133,0.161,0.29,0.146,0.465
			c-0.016,0.175-0.091,0.32-0.225,0.433l-31.654,26.561c-0.27,0.224-0.672,0.19-0.897-0.079l-19.868-23.679
			c-2.662-3.173-7.394-3.587-10.566-0.925c-3.173,2.663-3.587,7.394-0.924,10.566l19.868,23.679
			c3.089,3.681,7.525,5.579,11.992,5.579c3.547,0,7.114-1.198,10.038-3.652l31.653-26.561c3.199-2.684,5.162-6.454,5.526-10.616
			C487.816,467.008,486.538,462.955,483.854,459.756z M443.821,381.837l-31.653,26.561c-0.05,0.042-0.211,0.17-0.465,0.146
			c-0.263-0.023-0.391-0.175-0.433-0.225l-69.761-83.139c5.398-5.587,7.366-13.678,4.764-21.583
			c-0.757-2.299,0.679-3.649,1.331-4.124s2.381-1.422,4.334,0.008c7.471,5.473,16.91,5.631,24.304,0.825l67.658,80.632
			C444.125,381.208,444.09,381.61,443.821,381.837z M72.275,496.778c-0.113,0.135-0.258,0.211-0.433,0.226
			c-0.257,0.024-0.415-0.105-0.465-0.147l-31.654-26.562c-0.133-0.112-0.208-0.257-0.224-0.433
			c-0.015-0.175,0.034-0.331,0.146-0.465l45.267-53.947l5.287,4.436c0.014,0.011,0.029,0.021,0.042,0.033
			c0.014,0.012,0.026,0.025,0.04,0.037c4.303,3.61,9.782,5.55,15.327,5.55c1.709,0,3.426-0.185,5.116-0.562l26.836-5.97
			L72.275,496.778z M141.066,402.829l-19.845,4.415l10.374-12.363L141.066,402.829z M320.447,314.184
			c-4.838-6.714-13.048-9.401-20.922-6.842c-7.871,2.557-12.937,9.557-12.905,17.833c0.02,5.229-4.239,6.31-5.545,6.517
			s-5.69,0.495-7.287-4.485c-2.528-7.88-9.509-12.972-17.784-12.972c-8.275,0-15.256,5.092-17.784,12.972
			c-1.597,4.979-5.982,4.69-7.287,4.484c-1.306-0.207-5.564-1.288-5.545-6.517c0.031-8.275-5.035-15.275-12.906-17.833
			c-7.872-2.558-16.083,0.128-20.922,6.841c-3.059,4.242-7.139,2.614-8.316,2.013c-1.178-0.6-4.894-2.944-3.26-7.912
			c2.587-7.861-0.068-16.084-6.763-20.948c-6.695-4.864-15.335-4.848-22.012,0.042c-4.219,3.089-7.597,0.279-8.532-0.655
			c-0.935-0.935-3.745-4.313-0.655-8.532c4.889-6.677,4.905-15.318,0.041-22.013c-4.864-6.694-13.088-9.35-20.947-6.762
			c-4.968,1.633-7.312-2.083-7.912-3.26c-0.6-1.178-2.229-5.259,2.013-8.316c6.713-4.839,9.399-13.052,6.841-20.923
			c-2.55-7.847-9.515-12.905-17.757-12.905c-0.038,0-0.075,0-0.112,0c-5.197,0-6.274-4.242-6.48-5.545
			c-0.207-1.306-0.495-5.69,4.485-7.287c7.88-2.528,12.972-9.509,12.972-17.785c0-8.276-5.092-15.256-12.973-17.784
			c-4.979-1.597-4.691-5.981-4.484-7.287c0.206-1.303,1.282-5.545,6.481-5.545c0.037-0.001,0.074,0,0.111,0
			c8.243,0,15.208-5.059,17.758-12.906c2.557-7.871-0.128-16.083-6.841-20.922c-4.242-3.058-2.613-7.139-2.013-8.316
			c0.6-1.178,2.946-4.895,7.912-3.26c7.861,2.587,16.083-0.068,20.947-6.763c4.865-6.695,4.848-15.336-0.041-22.013
			c-3.089-4.219-0.28-7.596,0.655-8.531c0.935-0.935,4.313-3.745,8.532-0.655c6.677,4.889,15.317,4.906,22.012,0.041
			c6.695-4.864,9.35-13.087,6.763-20.949c-1.634-4.966,2.082-7.311,3.26-7.911c1.178-0.601,5.26-2.228,8.316,2.013
			c4.839,6.713,13.05,9.4,20.922,6.842c7.871-2.557,12.937-9.557,12.906-17.833c-0.02-5.229,4.239-6.31,5.544-6.517
			c1.305-0.208,5.69-0.495,7.288,4.485c2.528,7.88,9.509,12.972,17.784,12.972c8.275,0,15.256-5.092,17.784-12.972l-7.142-2.292
			l7.142,2.291c1.597-4.98,5.986-4.692,7.287-4.485c1.306,0.207,5.564,1.288,5.545,6.517c-0.031,8.275,5.034,15.275,12.905,17.833
			c7.867,2.557,16.083-0.127,20.923-6.842c3.06-4.241,7.139-2.613,8.315-2.013c1.179,0.601,4.896,2.945,3.261,7.912
			c-2.587,7.861,0.067,16.083,6.762,20.948c6.697,4.866,15.339,4.848,22.013-0.041c4.221-3.09,7.598-0.279,8.532,0.655
			c0.935,0.935,3.744,4.313,0.655,8.532c-4.89,6.677-4.905,15.317-0.041,22.012s13.086,9.349,20.948,6.763
			c4.964-1.635,7.311,2.082,7.911,3.26c0.601,1.178,2.229,5.259-2.014,8.316c-6.713,4.839-9.399,13.051-6.842,20.922
			c2.55,7.847,9.514,12.906,17.758,12.906c0.036,0,0.074,0,0.111,0c5.198,0,6.274,4.242,6.481,5.544
			c0.206,1.306,0.494,5.69-4.485,7.288c-7.88,2.527-12.972,9.508-12.972,17.784s5.092,15.257,12.972,17.785
			c4.979,1.597,4.691,5.981,4.485,7.288c-0.207,1.303-1.283,5.544-6.481,5.544c-0.037,0-0.073,0-0.112,0
			c-8.242,0-15.207,5.059-17.757,12.905c-2.558,7.871,0.128,16.083,6.842,20.923c4.242,3.057,2.614,7.138,2.014,8.316
			s-2.947,4.892-7.911,3.26c-7.863-2.586-16.085,0.067-20.948,6.763c-4.864,6.695-4.849,15.335,0.041,22.013
			c3.089,4.219,0.279,7.597-0.655,8.532c-0.935,0.935-4.313,3.744-8.531,0.655c-6.678-4.891-15.319-4.906-22.013-0.042
			c-6.695,4.865-9.35,13.087-6.763,20.948c1.634,4.967-2.082,7.312-3.26,7.912C327.584,316.797,323.504,318.424,320.447,314.184z
			 M390.787,407.244l-19.845-4.415l9.471-7.947L390.787,407.244z"/>
		<path d="M381.256,173.402c0-26.774-8.338-52.323-24.111-73.882c-2.445-3.344-7.14-4.07-10.481-1.625
			c-3.343,2.446-4.07,7.139-1.624,10.481c13.88,18.973,21.217,41.458,21.217,65.026c0,60.795-49.46,110.255-110.255,110.255
			s-110.255-49.46-110.255-110.255c0-60.794,49.46-110.254,110.255-110.254c23.867,0,46.58,7.502,65.685,21.697
			c3.325,2.471,8.023,1.777,10.493-1.547c2.47-3.325,1.777-8.023-1.548-10.493c-21.71-16.13-47.517-24.657-74.63-24.657
			c-69.066,0-125.255,56.189-125.255,125.254c0,69.066,56.189,125.255,125.255,125.255
			C325.067,298.657,381.256,242.468,381.256,173.402z"/>
		<path d="M227.397,196.322c-8.987,0-16.299,7.312-16.299,16.299v17.598c0,8.987,7.312,16.299,16.299,16.299h60.623
			c8.987,0,16.299-7.312,16.299-16.299v-17.598c0-8.987-7.312-16.299-16.299-16.299h-5.214v-70.537
			c0-7.861-3.365-15.102-9.232-19.864c-8.63-7.006-20.615-7.569-29.826-1.405l-28.824,19.293
			c-7.468,4.999-9.477,15.142-4.479,22.611l9.788,14.624c2.422,3.618,6.107,6.076,10.378,6.922c0.666,0.132,1.333,0.222,2,0.271
			v28.084H227.397z M243.644,151.713c-2.441-1.304-5.403-1.158-7.704,0.382l-1.44,0.963c-0.37,0.247-0.732,0.242-0.975,0.194
			c-0.241-0.047-0.58-0.182-0.827-0.552l-9.788-14.624c-0.399-0.595-0.239-1.404,0.356-1.802l28.824-19.292
			c3.709-2.481,8.544-2.245,12.029,0.585c2.308,1.873,3.686,4.945,3.686,8.218v78.037c0,4.142,3.357,7.5,7.5,7.5h12.714
			c0.716,0,1.299,0.583,1.299,1.299v17.598c0,0.716-0.583,1.299-1.299,1.299h-60.623c-0.716,0-1.299-0.583-1.299-1.299v-17.598
			c0-0.716,0.583-1.299,1.299-1.299h12.713c4.142,0,7.5-3.358,7.5-7.5v-45.494C247.611,155.56,246.086,153.017,243.644,151.713z"/>
	</g>
</g>
<g>
</g>
<g>
</g>
<g>
</g>
<g>
</g>
<g>
</g>
<g>
</g>
<g>
</g>
<g>
</g>
<g>
</g>
<g>
</g>
<g>
</g>
<g>
</g>
<g>
</g>
<g>
</g>
<g>
</g>
</svg>
