<?xml version="1.0" encoding="iso-8859-1"?>
<!-- Generator: Adobe Illustrator 23.0.6, SVG Export Plug-In . SVG Version: 6.00 Build 0)  -->
<svg version="1.1" id="Capa_1" xmlns="http://www.w3.org/2000/svg" xmlns:xlink="http://www.w3.org/1999/xlink" x="0px" y="0px"
	 viewBox="0 0 512.015 512.015" style="enable-background:new 0 0 512.015 512.015;" xml:space="preserve">
<g>
	<g>
		<g>
			<path style="fill:#E84649;" d="M443.971,428.56l20.563,18.223c6.963,6.17,2.598,17.675-6.705,17.675H346.173
				c-5.583,0-10.109-4.526-10.109-10.109v-63.942h122.938c9.153,0,13.594,11.193,6.931,17.469L443.971,428.56z"/>
			<path style="fill:#D73337;" d="M396.174,390.407v16.509c0,13.375-10.877,24.263-24.263,24.263h-35.848v-40.771H396.174z"/>
			<path style="fill:#E84649;" d="M175.951,390.407v63.942c0,5.583-4.526,10.109-10.109,10.109H54.185
				c-9.303,0-13.668-11.505-6.705-17.675l20.563-18.223l-21.961-20.684c-6.663-6.276-2.222-17.469,6.931-17.469H175.951z"/>
			<path style="fill:#D73337;" d="M115.84,390.407h60.111v40.771h-35.848c-13.385,0-24.263-10.888-24.263-24.263V390.407z"/>
		</g>
		<g>
			<g>
				<g>
					<path style="fill:#BDEB73;" d="M446.684,73.168c8.331,24.123,10.547,59.196-0.36,62.963s-30.806-25.199-39.137-49.323
						c-8.331-24.123-1.938-34.268,8.968-38.035C427.062,45.007,438.353,49.045,446.684,73.168z"/>
				</g>
				<g>
					<path style="fill:#9AD63B;" d="M446.322,136.126c-2.537,0.88-5.57-0.02-8.836-2.224c3.478-12.657,0.667-36.697-5.54-54.672
						c-6.591-19.076-15.033-25.587-23.676-25.617c2.123-2.224,4.822-3.791,7.885-4.842c10.908-3.761,22.2,0.273,30.53,24.394
						C455.016,97.296,457.23,132.365,446.322,136.126z"/>
				</g>
				<g>
					<path style="fill:#8EC737;" d="M465.722,229.739c-5.034,3.72-15.478-0.96-26.396-9.291c-9.21-7.036-18.763-16.66-25.708-26.052
						c-15.174-20.532-12.111-32.118-2.831-38.982c9.018-6.662,20.593-6.399,35.171,12.475c0.425,0.536,0.839,1.092,1.264,1.668
						C462.386,190.08,475.002,222.875,465.722,229.739z"/>
					<path style="fill:#83B832;" d="M465.722,229.739c-5.034,3.72-15.478-0.96-26.396-9.291c-0.596-4.307-0.768-9.169-0.516-14.568
						c0.556-12.03,3.184-25.86,7.147-37.991c0.425,0.536,0.839,1.092,1.264,1.668C462.386,190.08,475.002,222.875,465.722,229.739z"
						/>
					<path style="fill:#BDEB73;" d="M461.057,167.63c-8.993,23.884-12.176,58.883-1.377,62.949s31.489-24.34,40.482-48.224
						s2.883-34.202-7.916-38.268S470.05,143.745,461.057,167.63z"/>
					<path style="fill:#9AD63B;" d="M500.164,182.356c-8.997,23.878-29.681,52.286-40.488,48.222
						c-2.517-0.94-4.266-3.569-5.368-7.339c10.777-7.42,24.06-27.831,30.793-45.705c7.087-18.834,4.792-29.226-1.789-34.776
						c2.982-0.313,5.985,0.212,8.937,1.324C503.046,148.156,509.152,158.468,500.164,182.356z"/>
				</g>
				<g>
					<path style="fill:#8EC737;" d="M439.68,332.602c-6.096,1.436-13.84-6.996-20.583-18.965
						c-5.692-10.089-10.665-22.716-13.344-34.079c-5.843-24.839,1.547-34.291,12.778-36.93c10.928-2.568,21.462,2.244,27.407,25.354
						c0.172,0.657,0.334,1.324,0.495,2.012C452.266,294.844,450.911,329.954,439.68,332.602z"/>
					<path style="fill:#83B832;" d="M439.68,332.602c-6.096,1.436-13.84-6.996-20.583-18.965c1.142-4.195,2.901-8.724,5.267-13.587
						c5.267-10.837,13.142-22.493,21.574-32.067c0.172,0.657,0.334,1.324,0.495,2.012
						C452.266,294.844,450.911,329.954,439.68,332.602z"/>
					<path style="fill:#BDEB73;" d="M459.904,273.69c-17.689,18.397-34.425,49.298-26.108,57.296
						c8.318,7.998,38.539-9.938,56.228-28.334c17.689-18.397,16.146-30.288,7.829-38.286
						C489.536,256.368,477.593,255.293,459.904,273.69z"/>
					<path style="fill:#9AD63B;" d="M490.025,302.648c-17.691,18.399-47.908,36.333-56.229,28.337
						c-1.284-1.233-1.971-3.023-2.143-5.227c12.839-3.771,31.198-16.337,43.501-29.125c17.226-17.914,16.215-29.661,8.472-37.658
						c5.681-0.566,10.352,1.658,14.224,5.388C506.169,272.36,507.716,284.259,490.025,302.648z"/>
				</g>
			</g>
			<g>
				<g>
					<path style="fill:#BDEB73;" d="M65.33,73.168c-8.331,24.123-10.547,59.196,0.36,62.963s30.806-25.199,39.137-49.323
						s1.938-34.268-8.968-38.035C84.952,45.007,73.661,49.045,65.33,73.168z"/>
				</g>
				<g>
					<path style="fill:#9AD63B;" d="M104.826,86.812c-8.33,24.121-28.226,53.085-39.134,49.314c-2.679-0.92-4.569-3.73-5.762-7.815
						c10.615-7.592,23.464-28.529,29.742-46.705c6.288-18.217,4.185-28.468-1.921-33.998c2.689-0.222,5.409,0.232,8.108,1.163
						C106.767,52.542,113.156,62.681,104.826,86.812z"/>
				</g>
				<g>
					<path style="fill:#8EC737;" d="M46.293,229.739c5.034,3.72,15.477-0.96,26.396-9.291c9.21-7.036,18.763-16.66,25.708-26.052
						c15.174-20.532,12.111-32.118,2.831-38.982c-9.018-6.662-20.593-6.399-35.171,12.475c-0.425,0.536-0.839,1.092-1.264,1.668
						C49.629,190.08,37.012,222.875,46.293,229.739z"/>
					<path style="fill:#83B832;" d="M98.396,194.397c-6.945,9.392-16.498,19.016-25.708,26.052
						c-10.918,8.33-21.361,13.011-26.396,9.291c-1.365-1.011-2.264-2.598-2.74-4.61c4.226-1.84,8.987-4.822,13.84-8.522
						c9.21-7.036,18.763-16.66,25.708-26.052c14.932-20.199,12.202-31.744,3.275-38.638c5.57-1.314,10.514,0.293,14.851,3.498
						C110.507,162.279,113.571,173.865,98.396,194.397z"/>
					<path style="fill:#83B832;" d="M46.293,229.739c5.034,3.72,15.477-0.96,26.396-9.291c0.596-4.307,0.768-9.169,0.516-14.568
						c-0.556-12.03-3.184-25.86-7.147-37.991c-0.425,0.536-0.839,1.092-1.264,1.668C49.629,190.08,37.012,222.875,46.293,229.739z"
						/>
					<path style="fill:#BDEB73;" d="M50.957,167.63c8.993,23.884,12.176,58.883,1.377,62.949s-31.489-24.34-40.482-48.224
						s-2.883-34.202,7.916-38.268S41.964,143.745,50.957,167.63z"/>
					<path style="fill:#9AD63B;" d="M52.338,230.578c-2.719,1.021-6.066-0.01-9.695-2.517c3.943-12.192,0.465-37.597-6.551-56.228
						c-6.399-16.984-14.002-23.767-21.745-24.809c1.597-1.233,3.427-2.194,5.419-2.942c10.797-4.064,22.2-0.334,31.187,23.545
						C59.95,191.516,63.135,226.514,52.338,230.578z"/>
				</g>
				<g>
					<path style="fill:#8EC737;" d="M72.335,332.602c6.096,1.436,13.84-6.996,20.583-18.965
						c5.692-10.089,10.665-22.716,13.344-34.079c5.843-24.839-1.547-34.291-12.778-36.93c-10.928-2.568-21.462,2.244-27.407,25.354
						c-0.172,0.657-0.334,1.324-0.495,2.012C59.748,294.844,61.103,329.954,72.335,332.602z"/>
					<path style="fill:#83B832;" d="M106.262,279.558c-2.679,11.363-7.653,23.99-13.344,34.079
						c-6.743,11.969-14.487,20.401-20.583,18.965c-2.871-0.677-5.095-3.478-6.723-7.683c3.943-3.367,8.037-8.967,11.808-15.67
						c5.692-10.089,10.665-22.716,13.344-34.079c4.236-17.995,1.516-27.922-4.569-33.017c2.376-0.303,4.822-0.101,7.289,0.475
						C104.715,245.267,112.105,254.72,106.262,279.558z"/>
					<path style="fill:#83B832;" d="M72.335,332.602c6.096,1.436,13.84-6.996,20.583-18.965c-1.142-4.195-2.901-8.724-5.267-13.587
						c-5.267-10.837-13.142-22.493-21.574-32.067c-0.172,0.657-0.334,1.324-0.495,2.012
						C59.748,294.844,61.103,329.954,72.335,332.602z"/>
					<path style="fill:#BDEB73;" d="M52.11,273.69c17.689,18.397,34.425,49.298,26.108,57.296
						c-8.318,7.998-38.539-9.938-56.228-28.334c-17.689-18.397-16.146-30.288-7.829-38.286S34.422,255.293,52.11,273.69z"/>
					<path style="fill:#9AD63B;" d="M78.218,330.985c-2.659,2.558-7.562,2.467-13.577,0.546
						c2.234-11.474-12.556-37.243-28.074-53.378c-8.492-8.836-15.659-13.173-21.735-14.416c8.28-7.41,20.057-7.956,37.273,9.958
						C69.797,292.084,86.538,322.988,78.218,330.985z"/>
				</g>
			</g>
		</g>
		<path style="fill:#ED6264;" d="M371.916,417.025H140.098c-5.583,0-10.109-4.526-10.109-10.109v-74.145
			c0-5.583,4.526-10.109,10.109-10.109h231.818c5.583,0,10.109,4.526,10.109,10.109v74.145
			C382.025,412.499,377.499,417.025,371.916,417.025z"/>
		<path style="fill:#E84649;" d="M382.021,332.773v74.142c0,5.58-4.519,10.109-10.109,10.109h-23.727
			c5.591,0,10.109-4.529,10.109-10.109v-74.142c0-5.59-4.519-10.109-10.109-10.109h23.727
			C377.502,322.664,382.021,327.183,382.021,332.773z"/>
		<g>
			<path style="fill:#FFDBAA;" d="M293.618,316.826c0,9.259-3.352,17.75-8.905,24.303c-6.906,8.138-17.205,13.308-28.705,13.308
				s-21.799-5.17-28.705-13.308c-5.553-6.553-8.905-15.044-8.905-24.303c0-20.769,16.841-37.611,37.611-37.611
				S293.618,296.057,293.618,316.826z"/>
			<path style="fill:#FFC26D;" d="M293.618,316.826c0,9.259-3.352,17.75-8.905,24.303l-28.705-15.095l-28.705,15.095
				c-5.553-6.553-8.905-15.044-8.905-24.303c0-20.769,16.841-37.611,37.611-37.611S293.618,296.057,293.618,316.826z"/>
			<g>
				<g>
					<path style="fill:#FFCE8B;" d="M372.029,213.603l-49.04,47.787l11.576,67.492c1.731,10.108-8.871,17.809-17.957,13.043
						l-60.6-31.858l-60.6,31.858c-9.086,4.765-19.689-2.935-17.957-13.043l6.266-36.541l5.31-30.951l-49.04-47.787
						c-7.338-7.156-3.281-19.639,6.86-21.107l67.756-9.844l30.308-61.408c4.535-9.201,17.66-9.201,22.195,0l30.308,61.408
						l22.575,3.281l45.182,6.563C375.31,193.964,379.367,206.447,372.029,213.603z"/>
					<path style="fill:#FFB54E;" d="M372.029,213.603l-49.04,47.787l11.576,67.492c1.731,10.108-8.871,17.809-17.957,13.043
						l-60.6-31.858l-60.6,31.858c-9.086,4.765-19.689-2.935-17.957-13.043l6.266-36.541c94.041-17.166,125.8-68.795,136.271-106.408
						l45.182,6.563C375.31,193.964,379.367,206.447,372.029,213.603z"/>
				</g>
			</g>
		</g>
	</g>
	<g>
		<path d="M481.169,251.731c-3.392,0.561-6.83,1.793-10.344,3.692c0.958-6.71,1.563-13.603,1.827-20.63
			c14.463-9.217,28.505-33.798,34.529-49.796c4.831-12.829,6.025-23.064,3.651-31.288c-2.255-7.809-7.768-13.563-15.943-16.641
			c-8.176-3.08-16.113-2.388-22.959,1.992c-4.021,2.575-7.62,6.357-10.856,11.422c-1.661-5.521-3.246-10.181-4.565-13.82
			c8.957-14.686,3.549-47.746-2.736-65.943c-4.475-12.958-10.092-21.597-17.17-26.41c-6.721-4.57-14.637-5.478-22.896-2.626
			c-8.258,2.852-13.927,8.451-16.396,16.194c-2.6,8.156-1.688,18.42,2.787,31.378c4.411,12.774,11.776,26.677,19.703,37.188
			c8.387,11.124,16.223,16.971,23.377,17.493c1.358,3.871,2.941,8.714,4.555,14.356c-6.248-6.974-12.436-11.343-18.773-13.255
			c-7.779-2.349-15.606-0.844-22.631,4.349c-7.025,5.192-10.758,12.233-10.796,20.36c-0.039,8.56,3.903,18.079,12.052,29.104
			c7.437,10.061,17.872,20.568,27.914,28.106c8.432,6.329,15.787,10.066,21.987,11.195c-0.583,10.037-1.941,19.724-4.058,28.911
			c-3.133-12.68-7.749-21.461-14.099-26.797c-6.224-5.229-14.006-6.935-22.512-4.936c-8.504,1.999-14.712,6.995-17.954,14.447
			c-3.414,7.85-3.55,18.152-0.412,31.498c3.668,15.608,12.346,36.333,22.511,48.516c-8.872,9.716-19.401,18.452-31.439,26.076
			v-23.096c0-9.71-7.899-17.609-17.609-17.609h-32.091l-8.772-51.148l46.208-45.04c5.457-5.319,7.384-13.126,5.029-20.374
			s-8.503-12.431-16.045-13.527l-63.856-9.279l-28.559-57.864c-3.373-6.834-10.202-11.078-17.822-11.078
			s-14.449,4.244-17.822,11.078l-28.559,57.864l-63.857,9.279c-7.541,1.097-13.689,6.279-16.044,13.527s-0.428,15.055,5.029,20.374
			l12.727,12.404c2.968,2.891,7.716,2.828,10.606-0.136c2.891-2.967,2.83-7.715-0.136-10.606l-12.727-12.404
			c-1.959-1.908-1.516-4.13-1.234-4.997c0.282-0.866,1.229-2.925,3.936-3.318l67.759-9.846c2.443-0.354,4.555-1.889,5.647-4.103
			l30.304-61.4c1.21-2.452,3.46-2.717,4.371-2.717s3.161,0.265,4.371,2.717l30.304,61.4c1.093,2.214,3.204,3.748,5.647,4.103
			l67.758,9.846c2.707,0.394,3.654,2.452,3.937,3.318c0.281,0.867,0.725,3.089-1.234,4.997l-49.031,47.793
			c-1.768,1.724-2.574,4.206-2.156,6.639l11.574,67.486c0.462,2.695-1.202,4.231-1.939,4.768c-0.735,0.535-2.712,1.646-5.134,0.371
			l-60.605-31.862c-2.186-1.148-4.795-1.148-6.98,0l-60.604,31.862c-2.423,1.272-4.397,0.165-5.135-0.371s-2.401-2.072-1.939-4.769
			l11.574-67.485c0.418-2.433-0.389-4.915-2.156-6.639l-10.965-10.688c-2.97-2.892-7.717-2.83-10.606,0.136
			c-2.891,2.967-2.83,7.715,0.136,10.606l8.142,7.935l-8.772,51.148h-32.091c-9.71,0-17.61,7.899-17.61,17.609v23.092
			c-12.036-7.623-22.57-16.359-31.443-26.077c9.145-11.033,18.297-30.558,22.516-48.512c3.138-13.346,3.002-23.648-0.412-31.498
			c-3.242-7.452-9.45-12.448-17.954-14.447c-8.507-2-16.288-0.293-22.512,4.936c-6.345,5.332-10.958,14.103-14.092,26.766
			c-2.112-9.168-3.476-18.843-4.059-28.87c15.13-2.793,37.023-21.898,49.895-39.312c8.148-11.024,12.091-20.544,12.052-29.104
			c-0.038-8.127-3.771-15.168-10.796-20.36s-14.849-6.698-22.632-4.349c-6.336,1.912-12.524,6.281-18.772,13.255
			c1.636-5.717,3.226-10.564,4.556-14.357c7.154-0.522,14.989-6.37,23.376-17.493c7.927-10.511,15.292-24.413,19.703-37.188
			c4.476-12.958,5.387-23.222,2.787-31.378c-2.469-7.743-8.138-13.343-16.396-16.194S82.132,39.74,75.412,44.31
			c-7.078,4.813-12.695,13.452-17.17,26.41c-6.286,18.201-11.696,51.274-2.729,65.954c-0.027,0.068-0.059,0.132-0.084,0.201
			c-1.266,3.501-2.833,8.11-4.487,13.608c-3.236-5.066-6.835-8.848-10.857-11.424c-6.843-4.382-14.781-5.069-22.959-1.993
			C8.95,140.145,3.437,145.9,1.182,153.708c-2.374,8.224-1.18,18.459,3.651,31.288c6.024,15.999,20.065,40.579,34.529,49.796
			c0.265,7.03,0.88,13.923,1.838,20.636c-3.518-1.903-6.959-3.136-10.355-3.698c-8.022-1.329-15.585,1.174-21.883,7.229
			c-6.297,6.056-9.092,13.519-8.081,21.582c1.064,8.494,6.2,17.427,15.702,27.309c9.368,9.742,21.89,19.268,33.496,25.479
			c8.873,4.749,16.332,7.126,22.32,7.126c2.563,0,4.846-0.451,6.866-1.323c11.843,13.148,26.361,24.639,43.223,34.214v9.56H53.013
			c-7.265,0-13.689,4.363-16.368,11.115c-2.68,6.752-0.993,14.333,4.294,19.313l15.986,15.056l-14.42,12.778
			c-5.525,4.897-7.404,12.522-4.785,19.426s9.082,11.363,16.465,11.363h111.656c9.71,0,17.609-7.899,17.609-17.609v-29.824h9.859
			c4.143,0,7.5-3.357,7.5-7.5s-3.357-7.5-7.5-7.5h-53.211c-1.439,0-2.61-1.171-2.61-2.609v-74.145c0-1.438,1.171-2.609,2.61-2.609
			h29.69c-0.287,6.613,2.706,12.918,8.172,16.89c6.164,4.479,14.186,5.06,20.932,1.514l17.909-9.416
			c7.955,13.995,22.825,22.787,39.206,22.787c16.426,0,31.256-8.782,39.206-22.787l17.91,9.416c2.934,1.542,6.107,2.304,9.267,2.304
			c4.104,0,8.181-1.286,11.664-3.817c5.466-3.971,8.459-10.277,8.172-16.89h29.69c1.438,0,2.609,1.171,2.609,2.609v74.145
			c0,1.438-1.171,2.609-2.609,2.609H228.705c-4.143,0-7.5,3.357-7.5,7.5s3.357,7.5,7.5,7.5h99.859v29.824
			c0,9.71,7.899,17.609,17.609,17.609H457.83c7.383,0,13.846-4.46,16.465-11.363s0.74-14.528-4.785-19.426l-14.42-12.778
			l15.986-15.056c5.287-4.98,6.974-12.562,4.294-19.313c-2.679-6.752-9.104-11.115-16.368-11.115h-22.297
			c-4.143,0-7.5,3.357-7.5,7.5s3.357,7.5,7.5,7.5h22.297c1.542,0,2.182,1.032,2.426,1.647s0.486,1.805-0.637,2.861L438.829,423.1
			c-1.533,1.444-2.389,3.468-2.356,5.573c0.032,2.106,0.948,4.103,2.524,5.5l20.563,18.223c1.173,1.039,0.948,2.25,0.71,2.879
			c-0.239,0.629-0.873,1.684-2.44,1.684H346.173c-1.438,0-2.609-1.171-2.609-2.609v-29.824h28.352
			c9.71,0,17.609-7.899,17.609-17.609v-9.009h11.785c4.143,0,7.5-3.357,7.5-7.5s-3.357-7.5-7.5-7.5h-11.785v-9.561
			c16.866-9.578,31.383-21.066,43.224-34.213c2.019,0.872,4.302,1.323,6.866,1.323c5.988,0,13.448-2.378,22.32-7.126
			c11.606-6.212,24.128-15.737,33.496-25.479c9.502-9.882,14.638-18.814,15.702-27.309c1.011-8.063-1.784-15.526-8.081-21.582
			C496.753,252.905,489.185,250.403,481.169,251.731z M443.822,128.883c-5.495-1.427-21.252-20.508-29.545-44.523
			c-8.332-24.126,0.865-27.302,4.327-28.498c0.972-0.335,2.396-0.827,4.125-0.827c4.433,0,10.873,3.229,16.866,20.582
			C447.889,99.632,447.264,124.369,443.822,128.883z M445.545,215.697c-8.135-5.91-17.822-14.839-25.896-25.763
			c-7.563-10.23-9.13-16.588-9.114-20.119c0.016-3.389,1.469-5.969,4.712-8.366c2.946-2.179,10.772-7.959,25.942,12.563
			c2.448,3.311,4.837,6.999,7.125,10.95C446.133,195.194,444.847,206.273,445.545,215.697z M72.419,75.617
			c5.993-17.354,12.435-20.582,16.866-20.582c1.729,0,3.153,0.492,4.125,0.827c3.462,1.196,12.659,4.372,4.327,28.498
			c-8.293,24.016-24.05,43.097-29.545,44.523C64.75,124.369,64.125,99.632,72.419,75.617z M70.826,174.012
			c15.171-20.523,22.995-14.742,25.942-12.563c3.243,2.397,4.696,4.978,4.712,8.366c0.016,3.531-1.552,9.889-9.114,20.119
			c-6.555,8.868-16.708,18.997-25.899,25.802c0.704-9.433-0.582-20.528-2.766-30.774C65.991,181.008,68.381,177.32,70.826,174.012z
			 M18.871,179.711c-4.482-11.906-4.256-18.45-3.276-21.843c0.939-3.257,3.042-5.342,6.816-6.764
			c1.664-0.626,3.169-0.941,4.576-0.941c1.785,0,3.413,0.507,5.009,1.529c2.974,1.904,7.46,6.673,11.943,18.579
			c8.953,23.779,9.011,48.524,5.693,53.13C44.101,222.127,27.825,203.489,18.871,179.711z M72.903,325.458
			c-5.586,1.003-27.897-9.691-45.507-28.005c-17.69-18.398-10.677-25.143-8.037-27.682c1.242-1.194,3.452-3.318,7.287-3.318
			c4.316,0,10.69,2.692,20.059,12.435C64.315,297.203,74.134,319.918,72.903,325.458z M81.663,302.96
			c-2.94-6.052-6.738-12.375-10.997-18.414c0.542-4.516,1.28-8.835,2.22-12.833c2.911-12.385,6.745-17.692,9.448-19.964
			c2.596-2.179,5.502-2.74,9.429-1.818c3.566,0.839,13.038,3.065,7.198,27.912c-2.713,11.544-7.975,24.35-13.603,33.881
			C84.394,308.979,83.169,306.061,81.663,302.96z M140.099,424.525h28.352v29.824c0,1.438-1.171,2.609-2.609,2.609H54.185
			c-1.567,0-2.201-1.055-2.44-1.684c-0.238-0.629-0.463-1.84,0.71-2.879l20.563-18.223c1.576-1.397,2.492-3.394,2.524-5.5
			c0.032-2.105-0.823-4.129-2.356-5.573l-21.963-20.685c-1.122-1.057-0.88-2.246-0.636-2.861s0.884-1.647,2.426-1.647h69.476v9.009
			C122.489,416.625,130.389,424.525,140.099,424.525z M256.007,346.936c-10.763,0-20.539-5.692-25.91-14.777l25.91-13.622
			l25.917,13.625C276.559,341.255,266.799,346.936,256.007,346.936z M468.076,170.272c4.483-11.906,8.97-16.675,11.943-18.579
			c2.854-1.828,5.811-2.01,9.585-0.587c3.774,1.421,5.877,3.506,6.816,6.763c0.979,3.393,1.206,9.937-3.276,21.843
			c-8.729,23.179-24.411,41.467-30.319,43.554c-0.161,0.021-0.322,0.04-0.482,0.072C459.067,218.585,459.16,193.953,468.076,170.272
			z M430.352,302.96c-1.507,3.103-2.733,6.023-3.697,8.769c-5.625-9.519-10.88-22.308-13.601-33.886
			c-5.84-24.847,3.632-27.073,7.198-27.912c3.926-0.924,6.833-0.362,9.429,1.818c2.703,2.271,6.537,7.579,9.448,19.964
			c0.939,3.996,1.68,8.313,2.222,12.83C437.091,290.583,433.292,296.907,430.352,302.96z M484.619,297.453
			c-17.611,18.315-39.916,29.007-45.507,28.005c-1.23-5.542,8.589-28.256,26.198-46.57c17.693-18.4,24.706-11.654,27.346-9.116
			C495.295,272.311,502.309,279.055,484.619,297.453z"/>
		<path d="M322.682,381.449c0-4.143-3.357-7.5-7.5-7.5h-118.35c-4.143,0-7.5,3.357-7.5,7.5s3.357,7.5,7.5,7.5h118.35
			C319.325,388.949,322.682,385.591,322.682,381.449z"/>
	</g>
</g>
<g>
</g>
<g>
</g>
<g>
</g>
<g>
</g>
<g>
</g>
<g>
</g>
<g>
</g>
<g>
</g>
<g>
</g>
<g>
</g>
<g>
</g>
<g>
</g>
<g>
</g>
<g>
</g>
<g>
</g>
</svg>
