<?xml version="1.0" encoding="iso-8859-1"?>
<!-- Generator: Adobe Illustrator 23.0.6, SVG Export Plug-In . SVG Version: 6.00 Build 0)  -->
<svg version="1.1" id="Capa_1" xmlns="http://www.w3.org/2000/svg" xmlns:xlink="http://www.w3.org/1999/xlink" x="0px" y="0px"
	 viewBox="0 0 511.995 511.995" style="enable-background:new 0 0 511.995 511.995;" xml:space="preserve">
<g>
	<g>
		<path style="fill:#FFCE8B;" d="M91.197,70.677v423.84c0,5.51-4.48,9.98-9.99,9.98h-12.21c-5.52,0-9.98-4.47-9.98-9.98V70.677
			c0-5.52,4.46-9.99,9.98-9.99h12.21C86.717,60.687,91.197,65.157,91.197,70.677z"/>
		<rect x="59.017" y="95.927" style="fill:#FFB54E;" width="32.18" height="267.32"/>
		<path style="fill:#E84649;" d="M395.954,457.743H221.133c-5.523,0-10-4.477-10-10V218.426h249.79
			c6.684,0,11.487,6.431,9.588,12.84l-64.969,219.317C404.285,454.83,400.383,457.743,395.954,457.743z"/>
		<path style="fill:#D73337;" d="M470.507,231.267l-16.78,56.67l-31.93,107.78l-16.25,54.87c-1.26,4.24-5.16,7.16-9.59,7.16h-24.57
			c4.43,0,8.33-2.92,9.59-7.16l16.25-54.87l31.93-107.78l16.79-56.67c1.9-6.41-2.9-12.84-9.59-12.84h24.57
			C467.607,218.427,472.407,224.857,470.507,231.267z"/>
		<polygon style="fill:#FFA730;" points="453.727,287.937 421.797,395.717 211.137,395.717 211.137,287.937 		"/>
		<polygon style="fill:#FA8916;" points="453.727,287.937 421.797,395.717 397.227,395.717 429.157,287.937 		"/>
		<path style="fill:#D73337;" d="M310.897,320.327v25.02c0,2.51-0.94,4.92-2.64,6.77l-94.31,102.57c-1.74-1.8-2.81-4.24-2.81-6.94
			v-127.42H310.897z"/>
		<path style="fill:#ED6264;" d="M300.899,349.245H57.717c-5.523,0-10-4.477-10-10V119.928c0-5.523,4.477-10,10-10h243.182
			c5.523,0,10,4.477,10,10v219.317C310.899,344.768,306.422,349.245,300.899,349.245z"/>
		<path style="fill:#E84649;" d="M310.897,119.927v219.32c0,5.52-4.48,10-10,10h-23.33c5.52,0,10-4.48,10-10v-219.32
			c0-5.52-4.48-10-10-10h23.33C306.417,109.927,310.897,114.407,310.897,119.927z"/>
		<rect x="47.717" y="175.696" style="fill:#FFB54E;" width="263.18" height="107.781"/>
		<rect x="287.567" y="175.697" style="fill:#FFA730;" width="23.33" height="107.78"/>
		<circle style="fill:#FFB54E;" cx="75.103" cy="41.545" r="34.045"/>
		<path style="fill:#FF9A1B;" d="M109.15,41.544c0,18.801-15.246,34.047-34.047,34.047c-3.604,0-7.069-0.559-10.324-1.588
			C78.537,69.63,88.512,56.75,88.512,41.544c0-15.206-9.974-28.086-23.733-32.459c3.255-1.028,6.72-1.587,10.324-1.587
			C93.904,7.497,109.15,22.743,109.15,41.544z"/>
		<g>
			<path style="fill:#65BAFC;" d="M203.33,266.218l0-100.612c0-5.3-2.226-10.445-6.341-13.785
				c-6.018-4.885-14.329-5.137-20.545-0.977l-28.298,18.941c-3.965,2.654-5.027,8.019-2.374,11.983l9.61,14.357
				c2.654,3.965,8.019,5.027,11.983,2.374l1.412-0.945v68.664h-12.481c-4.771,0-8.638,3.867-8.638,8.638v17.276
				c0,4.771,3.867,8.638,8.638,8.638h59.516c4.771,0,8.638-3.867,8.638-8.638v-17.276c0-4.771-3.867-8.638-8.638-8.638H203.33z"/>
		</g>
	</g>
	<path d="M477.703,233.396c1.583-5.346,0.578-10.975-2.758-15.441s-8.446-7.029-14.021-7.029H318.399v-90.998
		c0-9.649-7.851-17.5-17.5-17.5h-39.207c-4.142,0-7.5,3.357-7.5,7.5s3.358,7.5,7.5,7.5h39.207c1.378,0,2.5,1.121,2.5,2.5v48.269
		H210.83v-2.591c0-7.759-3.322-14.905-9.114-19.608c-8.518-6.913-20.35-7.471-29.444-1.386l-28.298,18.94
		c-1.882,1.26-3.409,2.852-4.566,4.645H55.217v-48.269c0-1.379,1.122-2.5,2.5-2.5h168.58c4.142,0,7.5-3.357,7.5-7.5
		s-3.358-7.5-7.5-7.5H98.69v-26.71c10.839-7.505,17.958-20.02,17.958-34.173C116.647,18.637,98.011,0,75.103,0
		S33.558,18.637,33.558,41.545c0,14.151,7.116,26.664,17.953,34.169v27.871c-6.591,2.512-11.294,8.88-11.294,16.342v219.317
		c0,7.462,4.703,13.83,11.294,16.342V494.51c0,9.642,7.843,17.485,17.484,17.485h12.21c9.641,0,17.484-7.844,17.484-17.485v-46.815
		c0-4.143-3.358-7.5-7.5-7.5s-7.5,3.357-7.5,7.5v46.815c0,1.37-1.114,2.485-2.484,2.485h-12.21c-1.37,0-2.484-1.115-2.484-2.485
		V356.745H83.69V412.3c0,4.143,3.358,7.5,7.5,7.5s7.5-3.357,7.5-7.5v-55.555h104.943v90.998c0,4.508,1.728,8.609,4.537,11.715
		c0.14,0.169,0.289,0.332,0.447,0.491c3.18,3.26,7.613,5.294,12.516,5.294h93.163c4.142,0,7.5-3.357,7.5-7.5s-3.358-7.5-7.5-7.5
		h-86.076l43.24-47.026h140.292l-13.401,45.236c-0.313,1.054-1.298,1.79-2.397,1.79h-46.263c-4.142,0-7.5,3.357-7.5,7.5
		s3.358,7.5,7.5,7.5h46.263c7.694,0,14.594-5.152,16.779-12.53L477.703,233.396z M460.924,225.926c1.09,0,1.723,0.629,2.003,1.004
		c0.28,0.375,0.704,1.161,0.394,2.207l-15.197,51.3H318.399v-54.511H460.924z M57.717,341.745c-1.378,0-2.5-1.121-2.5-2.5v-48.269
		h84.941v1.156c0,8.898,7.24,16.139,16.138,16.139h59.516c8.898,0,16.138-7.24,16.138-16.139v-1.156h71.449v29.312
		c0,0.013-0.002,0.026-0.002,0.039v18.937c-0.011,1.37-1.126,2.481-2.498,2.481H57.717z M303.399,183.196v92.78H231.95v-1.12
		c0-8.898-7.24-16.139-16.138-16.139h-4.982v-75.521H303.399z M152.318,176.017l28.297-18.939c3.59-2.401,8.271-2.175,11.647,0.565
		c2.234,1.814,3.568,4.791,3.568,7.963v100.612c0,4.143,3.358,7.5,7.5,7.5h12.482c0.627,0,1.138,0.511,1.138,1.139v17.276
		c0,0.628-0.511,1.139-1.138,1.139h-59.516c-0.627,0-1.138-0.511-1.138-1.139v-17.276c0-0.628,0.511-1.139,1.138-1.139h12.481
		c4.142,0,7.5-3.357,7.5-7.5v-68.664c0-2.769-1.525-5.312-3.967-6.616c-2.441-1.303-5.403-1.155-7.705,0.384l-1.411,0.944
		c-0.522,0.35-1.23,0.21-1.579-0.313l-9.61-14.357C151.656,177.074,151.796,176.366,152.318,176.017z M138.07,183.196
		c0.395,0.943,0.879,1.863,1.469,2.743l9.61,14.357c2.848,4.255,7.382,6.721,12.128,7.104v51.317h-4.981
		c-8.898,0-16.138,7.24-16.138,16.139v1.12H55.217v-92.78H138.07z M75.103,15c14.637,0,26.544,11.908,26.544,26.545
		S89.74,68.09,75.103,68.09S48.558,56.182,48.558,41.545S60.466,15,75.103,15z M75.103,83.09c2.944,0,5.815-0.313,8.587-0.897
		v20.235H66.511V82.191C69.284,82.777,72.157,83.09,75.103,83.09z M293.813,356.745l-75.18,81.764v-81.764H293.813z
		 M285.253,388.217l28.527-31.025c2.978-3.241,4.617-7.447,4.617-11.845v-6.063c0-0.013,0.002-0.026,0.002-0.039v-43.809H443.68
		l-27.485,92.78H285.253z"/>
</g>
<g>
</g>
<g>
</g>
<g>
</g>
<g>
</g>
<g>
</g>
<g>
</g>
<g>
</g>
<g>
</g>
<g>
</g>
<g>
</g>
<g>
</g>
<g>
</g>
<g>
</g>
<g>
</g>
<g>
</g>
</svg>
