<?xml version="1.0" encoding="iso-8859-1"?>
<!-- Generator: Adobe Illustrator 23.0.6, SVG Export Plug-In . SVG Version: 6.00 Build 0)  -->
<svg version="1.1" id="Capa_1" xmlns="http://www.w3.org/2000/svg" xmlns:xlink="http://www.w3.org/1999/xlink" x="0px" y="0px"
	 viewBox="0 0 511.986 511.986" style="enable-background:new 0 0 511.986 511.986;" xml:space="preserve">
<g>
	<g>
		<g>
			<g>
				<path style="fill:#FFDBAA;" d="M332.509,38.848C291.255,37.869,311.118,7.5,255.993,7.5c-55.125,0-35.262,30.369-76.515,31.348
					c-41.254,0.98,35.846,87.188,35.846,87.188h81.338C296.662,126.036,373.762,39.828,332.509,38.848z"/>
				<path style="fill:#FFC26D;" d="M296.666,126.034h-21.473c0,0,63.038-70.479,48.355-87.987c2.624,0.441,5.589,0.721,8.964,0.801
					C373.766,39.83,296.666,126.034,296.666,126.034z"/>
				<path style="fill:#FFDBAA;" d="M365.142,220.462c-22.623-23.748-41.986-50.364-56.937-79.46H203.781
					c-14.951,29.097-34.314,55.712-56.937,79.46c-23.55,24.721-38.008,58.18-38.008,95.019v107.646
					c0,28.773,23.325,52.098,52.098,52.098h190.117c28.773,0,52.098-23.325,52.098-52.098V315.482
					C403.15,278.643,388.692,245.183,365.142,220.462z"/>
				<path style="fill:#FFC26D;" d="M403.152,315.478v107.647c0,28.775-23.326,52.101-52.101,52.101h-24.708
					c28.775,0,52.101-23.326,52.101-52.101V315.478c0-36.837-14.452-70.299-38.009-95.017
					c-22.625-23.747-41.985-50.358-56.938-79.453h24.708c14.953,29.095,34.313,55.706,56.938,79.453
					C388.689,245.179,403.152,278.641,403.152,315.478z"/>
				<path style="fill:#ED6264;" d="M306.485,152.542H205.501c-9.608,0-17.398-7.789-17.398-17.398v0
					c0-9.608,7.789-17.398,17.398-17.398h100.984c9.608,0,17.398,7.789,17.398,17.398v0
					C323.883,144.753,316.094,152.542,306.485,152.542z"/>
				<path style="fill:#E84649;" d="M323.884,135.15c0,4.8-1.95,9.15-5.1,12.29c-3.15,3.15-7.49,5.1-12.3,5.1h-18.38
					c4.81,0,9.15-1.95,12.3-5.1c3.15-3.14,5.1-7.49,5.1-12.29c0-9.61-7.79-17.4-17.4-17.4h18.38
					C316.094,117.75,323.884,125.54,323.884,135.15z"/>
			</g>
			<g>
				<g>
					<g>
						<g>
							<path style="fill:#F37D7E;" d="M296.164,342.589v151.76c0,8.08-9,12.91-15.74,8.45l-24.43-16.2l-24.43,16.2
								c-6.74,4.46-15.74-0.37-15.74-8.45v-151.76c0-5.59,4.54-10.13,10.13-10.13h60.07
								C291.624,332.459,296.164,336.999,296.164,342.589z"/>
							<path style="fill:#ED6264;" d="M296.164,342.589v32.4c-11.32,8.13-25.2,12.92-40.17,12.92c-14.97,0-28.85-4.79-40.17-12.92
								v-32.4c0-5.59,4.54-10.13,10.13-10.13h60.07C291.624,332.459,296.164,336.999,296.164,342.589z"/>
						</g>
					</g>
				</g>
				<g>
					<g>
						<circle style="fill:#FFC26D;" cx="255.993" cy="318.868" r="55.046"/>
						<path style="fill:#FFA730;" d="M311.039,318.871c0,30.397-24.648,55.045-55.045,55.045c-3.525,0-6.981-0.33-10.326-0.971
							c25.469-4.827,44.729-27.202,44.729-54.074c0-26.882-19.26-49.246-44.729-54.074c3.345-0.641,6.801-0.971,10.326-0.971
							C286.39,263.825,311.039,288.464,311.039,318.871z"/>
					</g>
				</g>
			</g>
		</g>
	</g>
	<g>
		<path d="M404.009,271.971c-1.238-3.951-5.446-6.151-9.4-4.912c-3.952,1.239-6.151,5.448-4.912,9.4
			c3.95,12.597,5.953,25.726,5.953,39.022v107.646c0,24.591-20.007,44.598-44.598,44.598h-47.388V359.294
			c9.267-10.911,14.875-25.022,14.875-40.426c0-34.488-28.058-62.546-62.546-62.546c-34.488,0-62.546,28.058-62.546,62.546
			c0,15.403,5.608,29.514,14.875,40.425v108.432h-47.387c-24.591,0-44.598-20.007-44.598-44.598v-30.431c0-4.143-3.358-7.5-7.5-7.5
			s-7.5,3.357-7.5,7.5v30.431c0,32.862,26.736,59.598,59.598,59.598h47.387v11.62c0,6.507,3.562,12.461,9.294,15.539
			c2.618,1.405,5.484,2.102,8.344,2.102c3.403,0,6.796-0.987,9.743-2.941l20.29-13.45l20.29,13.45
			c5.423,3.596,12.354,3.917,18.087,0.839c5.732-3.077,9.294-9.031,9.294-15.538v-11.62h47.388
			c32.862,0,59.598-26.735,59.598-59.598V315.481C410.649,300.661,408.415,286.021,404.009,271.971z M255.993,271.322
			c26.217,0,47.546,21.329,47.546,47.546s-21.329,47.546-47.546,47.546s-47.546-21.329-47.546-47.546
			S229.776,271.322,255.993,271.322z M287.275,496.668c-0.521,0.278-1.562,0.633-2.705-0.125l-24.434-16.197
			c-2.511-1.666-5.775-1.666-8.288,0l-24.434,16.197c-1.143,0.758-2.186,0.403-2.704,0.125s-1.389-0.95-1.389-2.322V372.177
			c9.515,5.853,20.704,9.237,32.671,9.237c11.967,0,23.156-3.384,32.671-9.236v122.168
			C288.664,495.718,287.794,496.39,287.275,496.668z"/>
		<path d="M108.837,364.802c4.142,0,7.5-3.357,7.5-7.5v-41.82c0-33.61,12.763-65.519,35.938-89.847
			c19.443-20.409,36.16-42.539,49.752-65.84c1.136,0.159,2.295,0.248,3.475,0.248h14.796c4.142,0,7.5-3.357,7.5-7.5
			s-3.358-7.5-7.5-7.5h-14.796c-5.458,0-9.897-4.44-9.897-9.897s4.44-9.897,9.897-9.897h100.984c5.457,0,9.897,4.44,9.897,9.897
			s-4.44,9.897-9.897,9.897h-50.793c-4.142,0-7.5,3.357-7.5,7.5s3.358,7.5,7.5,7.5h50.793c1.181,0,2.341-0.088,3.478-0.248
			c13.591,23.299,30.308,45.435,49.747,65.841c5.95,6.247,11.312,13.132,15.934,20.461c1.426,2.262,3.861,3.501,6.351,3.501
			c1.367,0,2.752-0.374,3.993-1.157c3.504-2.209,4.554-6.841,2.344-10.344c-5.15-8.168-11.126-15.842-17.76-22.807
			c-18.346-19.259-34.157-40.1-47.051-62.013c4.834-4.544,7.861-10.989,7.861-18.131c0-9.786-5.677-18.267-13.908-22.334
			c6.94-8.746,14.876-19.391,21.368-29.839c12.076-19.434,15.796-32.674,11.703-41.667c-1.999-4.395-6.722-9.689-17.859-9.954
			c-15.789-0.375-20.085-5.151-26.03-11.762C298.808,10.861,289.039,0,255.993,0s-42.814,10.861-50.663,19.589
			c-5.945,6.61-10.241,11.387-26.03,11.762c-11.126,0.265-15.849,5.549-17.852,9.937c-4.058,8.89-0.48,21.912,11.26,40.981
			c6.586,10.698,14.757,21.66,21.804,30.542c-8.232,4.067-13.909,12.548-13.909,22.334c0,7.14,3.026,13.583,7.857,18.127
			c-12.894,21.915-28.697,42.755-47.046,62.017c-25.844,27.13-40.077,62.713-40.077,100.192v41.82
			C101.337,361.444,104.695,364.802,108.837,364.802z M175.094,47.516c0.236-0.517,1.764-1.103,4.563-1.169
			c22.258-0.528,29.998-9.135,36.827-16.728C223.245,22.102,229.631,15,255.993,15s32.749,7.102,39.511,14.619
			c6.828,7.593,14.568,16.199,36.827,16.728c2.799,0.066,4.327,0.653,4.563,1.171c0.108,0.239,2.519,6.118-10.791,27.537
			c-7.917,12.74-18.213,25.932-25.845,35.192H281.1c3.334-13.04,7.65-31.372,9.705-46.127c0.571-4.103-2.292-7.892-6.395-8.463
			c-4.099-0.572-7.892,2.291-8.463,6.395c-2.162,15.528-7.018,35.475-10.34,48.195h-19.229c-3.208-12.288-8.16-32.538-10.34-48.195
			c-0.571-4.103-4.361-6.969-8.462-6.395c-4.103,0.571-6.965,4.36-6.394,8.463c2.01,14.433,6.101,32.057,9.704,46.127h-19.154
			C178.523,69.959,173.23,51.598,175.094,47.516z"/>
		<path d="M249.357,313.086l1.311-0.655v17.871h-2.949c-4.142,0-7.5,3.357-7.5,7.5s3.358,7.5,7.5,7.5h20.898
			c4.143,0,7.5-3.357,7.5-7.5s-3.357-7.5-7.5-7.5h-2.949v-30.007c0-2.6-1.346-5.014-3.557-6.38c-2.212-1.366-4.974-1.49-7.298-0.328
			l-12.165,6.083c-3.705,1.853-5.206,6.357-3.354,10.063S245.653,314.937,249.357,313.086z"/>
		<path d="M270.661,210.122c4.143,0,7.5-3.357,7.5-7.5s-3.357-7.5-7.5-7.5h-26.894c-4.142,0-7.5,3.357-7.5,7.5s3.358,7.5,7.5,7.5
			H270.661z"/>
		<path d="M217.958,230.086c0,4.143,3.358,7.5,7.5,7.5h63.513c4.143,0,7.5-3.357,7.5-7.5s-3.357-7.5-7.5-7.5h-63.513
			C221.315,222.586,217.958,225.943,217.958,230.086z"/>
	</g>
</g>
<g>
</g>
<g>
</g>
<g>
</g>
<g>
</g>
<g>
</g>
<g>
</g>
<g>
</g>
<g>
</g>
<g>
</g>
<g>
</g>
<g>
</g>
<g>
</g>
<g>
</g>
<g>
</g>
<g>
</g>
</svg>
