<?xml version="1.0" encoding="iso-8859-1"?>
<!-- Generator: Adobe Illustrator 23.0.6, SVG Export Plug-In . SVG Version: 6.00 Build 0)  -->
<svg version="1.1" id="Capa_1" xmlns="http://www.w3.org/2000/svg" xmlns:xlink="http://www.w3.org/1999/xlink" x="0px" y="0px"
	 viewBox="0 0 512 512" style="enable-background:new 0 0 512 512;" xml:space="preserve">
<g>
	<g>
		<g>
			<g>
				<path style="fill:#FFF5F5;" d="M504.5,93.508v324.985c0,5.525-4.484,10.01-10.01,10.01H17.51c-5.525,0-10.01-4.484-10.01-10.01
					V93.508c0-5.525,4.484-10.01,10.01-10.01H494.49C500.016,83.498,504.5,87.982,504.5,93.508z"/>
				<path style="fill:#EFE2DD;" d="M504.5,93.508v324.985c0,5.525-4.484,10.01-10.01,10.01h-22.722c5.525,0,10.01-4.484,10.01-10.01
					V93.508c0-5.525-4.484-10.01-10.01-10.01h22.722C500.016,83.498,504.5,87.982,504.5,93.508z"/>
			</g>
		</g>
		<g>
			<g>
				<g>
					<g>
						<g>
							<path style="fill:#F37D7E;" d="M197.792,244.428v91.76c0,8.08-9,12.91-15.74,8.45l-24.43-16.2l-24.43,16.2
								c-6.74,4.46-15.74-0.37-15.74-8.45v-91.76c0-5.59,4.54-10.13,10.13-10.13h60.07
								C193.252,234.298,197.792,238.838,197.792,244.428z"/>
							<path style="fill:#ED6264;" d="M197.792,244.428v32.4c-11.32,8.13-25.2,12.92-40.17,12.92s-28.85-4.79-40.17-12.92v-32.4
								c0-5.59,4.54-10.13,10.13-10.13h60.07C193.252,234.298,197.792,238.838,197.792,244.428z"/>
						</g>
					</g>
				</g>
				<g>
					<g>
						<circle style="fill:#FFC26D;" cx="157.621" cy="220.707" r="55.046"/>
						<path style="fill:#FFA730;" d="M212.666,220.71c0,30.397-24.648,55.045-55.046,55.045c-3.525,0-6.981-0.33-10.326-0.971
							c25.47-4.827,44.729-27.202,44.729-54.074c0-26.882-19.26-49.246-44.729-54.074c3.345-0.641,6.801-0.971,10.326-0.971
							C188.018,165.664,212.666,190.302,212.666,220.71z"/>
					</g>
				</g>
			</g>
			<path style="fill:#65BAFC;" d="M399.425,234.296h-132.37c-5.523,0-10-4.477-10-10v-19.535c0-5.523,4.477-10,10-10h132.37
				c5.523,0,10,4.477,10,10v19.535C409.425,229.819,404.948,234.296,399.425,234.296z"/>
			<path style="fill:#2EA8FC;" d="M409.43,204.76v19.54c0,5.52-4.48,10-10,10h-17.39c5.52,0,10-4.48,10-10v-19.54
				c0-5.52-4.48-10-10-10h17.39C404.95,194.76,409.43,199.24,409.43,204.76z"/>
		</g>
	</g>
	<g>
		<path d="M504.5,305.197c-4.143,0-7.5,3.357-7.5,7.5V418.49c0,1.384-1.126,2.51-2.51,2.51H238.697c-4.143,0-7.5,3.357-7.5,7.5
			s3.357,7.5,7.5,7.5H494.49c9.655,0,17.51-7.854,17.51-17.51V312.697C512,308.555,508.643,305.197,504.5,305.197z"/>
		<path d="M494.49,76H17.51C7.854,76,0,83.854,0,93.51v324.98C0,428.146,7.854,436,17.51,436h185.793c4.143,0,7.5-3.357,7.5-7.5
			s-3.357-7.5-7.5-7.5H17.51c-1.384,0-2.51-1.126-2.51-2.51V93.51c0-1.384,1.126-2.51,2.51-2.51h476.98
			c1.384,0,2.51,1.126,2.51,2.51v183.793c0,4.143,3.357,7.5,7.5,7.5s7.5-3.357,7.5-7.5V93.51C512,83.854,504.146,76,494.49,76z"/>
		<path d="M58.748,148.427c-7.727,0-14.012-6.285-14.012-14.012c0-4.143-3.357-7.5-7.5-7.5s-7.5,3.357-7.5,7.5
			c0,15.997,13.015,29.012,29.012,29.012s29.012-13.015,29.012-29.012c0-5.078-1.312-9.856-3.613-14.013h54.557
			c4.143,0,7.5-3.357,7.5-7.5s-3.357-7.5-7.5-7.5H58.748c-4.143,0-7.5,3.357-7.5,7.5s3.357,7.5,7.5,7.5
			c7.727,0,14.012,6.286,14.012,14.013S66.475,148.427,58.748,148.427z"/>
		<path d="M58.748,391.598c-4.143,0-7.5,3.357-7.5,7.5s3.357,7.5,7.5,7.5h79.955c4.143,0,7.5-3.357,7.5-7.5s-3.357-7.5-7.5-7.5
			H84.146c2.302-4.156,3.613-8.935,3.613-14.013c0-15.997-13.015-29.012-29.012-29.012s-29.012,13.015-29.012,29.012
			c0,4.143,3.357,7.5,7.5,7.5s7.5-3.357,7.5-7.5c0-7.727,6.285-14.012,14.012-14.012s14.012,6.285,14.012,14.012
			S66.475,391.598,58.748,391.598z"/>
		<path d="M453.252,120.402c4.143,0,7.5-3.357,7.5-7.5s-3.357-7.5-7.5-7.5h-79.955c-4.143,0-7.5,3.357-7.5,7.5s3.357,7.5,7.5,7.5
			h54.557c-2.302,4.156-3.613,8.935-3.613,14.013c0,15.997,13.015,29.012,29.012,29.012s29.012-13.015,29.012-29.012
			c0-4.143-3.357-7.5-7.5-7.5s-7.5,3.357-7.5,7.5c0,7.727-6.285,14.012-14.012,14.012s-14.012-6.285-14.012-14.012
			S445.525,120.402,453.252,120.402z"/>
		<path d="M453.252,363.573c7.727,0,14.012,6.285,14.012,14.012c0,4.143,3.357,7.5,7.5,7.5s7.5-3.357,7.5-7.5
			c0-15.997-13.015-29.012-29.012-29.012s-29.012,13.015-29.012,29.012c0,5.078,1.312,9.856,3.613,14.013h-54.557
			c-4.143,0-7.5,3.357-7.5,7.5s3.357,7.5,7.5,7.5h79.955c4.143,0,7.5-3.357,7.5-7.5s-3.357-7.5-7.5-7.5
			c-7.727,0-14.012-6.286-14.012-14.013S445.525,363.573,453.252,363.573z"/>
		<path d="M177.911,350.886c2.947,1.953,6.339,2.939,9.742,2.939c2.859,0,5.728-0.697,8.345-2.103
			c5.732-3.078,9.294-9.031,9.294-15.538v-75.052c9.267-10.911,14.875-25.022,14.875-40.426c0-34.488-28.058-62.546-62.546-62.546
			s-62.546,28.058-62.546,62.546c0,15.404,5.608,29.514,14.875,40.426v75.052c0,6.507,3.562,12.461,9.294,15.539
			s12.665,2.758,18.086-0.839l20.291-13.451L177.911,350.886z M157.621,173.161c26.217,0,47.546,21.329,47.546,47.546
			s-21.329,47.546-47.546,47.546s-47.546-21.329-47.546-47.546S131.404,173.161,157.621,173.161z M153.478,322.185l-24.435,16.198
			c-1.144,0.755-2.184,0.403-2.703,0.125c-0.52-0.279-1.39-0.951-1.39-2.323v-62.168c9.515,5.853,20.704,9.236,32.671,9.236
			s23.156-3.384,32.671-9.236v62.168c0,1.372-0.87,2.044-1.39,2.323c-0.52,0.277-1.562,0.63-2.703-0.125l-24.434-16.198
			C159.252,320.519,155.987,320.519,153.478,322.185z"/>
		<path d="M150.984,214.925l1.312-0.656v17.872h-2.949c-4.143,0-7.5,3.357-7.5,7.5s3.357,7.5,7.5,7.5h20.898
			c4.143,0,7.5-3.357,7.5-7.5s-3.357-7.5-7.5-7.5h-2.949v-30.007c0-2.6-1.346-5.014-3.557-6.38c-2.213-1.366-4.973-1.49-7.298-0.328
			l-12.166,6.083c-3.704,1.853-5.206,6.357-3.354,10.063C142.773,215.276,147.278,216.776,150.984,214.925z"/>
		<path d="M267.056,202.261h72.247c4.143,0,7.5-3.357,7.5-7.5s-3.357-7.5-7.5-7.5h-72.247c-9.649,0-17.5,7.851-17.5,17.5v19.535
			c0,9.649,7.851,17.5,17.5,17.5h132.369c9.649,0,17.5-7.851,17.5-17.5v-19.535c0-9.649-7.851-17.5-17.5-17.5h-24.728
			c-4.143,0-7.5,3.357-7.5,7.5s3.357,7.5,7.5,7.5h24.728c1.379,0,2.5,1.121,2.5,2.5v19.535c0,1.379-1.121,2.5-2.5,2.5H267.056
			c-1.379,0-2.5-1.121-2.5-2.5v-19.535C264.556,203.382,265.677,202.261,267.056,202.261z"/>
		<path d="M257.056,272.5h152.369c4.143,0,7.5-3.357,7.5-7.5s-3.357-7.5-7.5-7.5H257.056c-4.143,0-7.5,3.357-7.5,7.5
			S252.913,272.5,257.056,272.5z"/>
		<path d="M257.056,303.948h152.369c4.143,0,7.5-3.357,7.5-7.5s-3.357-7.5-7.5-7.5H257.056c-4.143,0-7.5,3.357-7.5,7.5
			S252.913,303.948,257.056,303.948z"/>
		<path d="M257.056,335.396h64.212c4.143,0,7.5-3.357,7.5-7.5s-3.357-7.5-7.5-7.5h-64.212c-4.143,0-7.5,3.357-7.5,7.5
			S252.913,335.396,257.056,335.396z"/>
	</g>
</g>
<g>
</g>
<g>
</g>
<g>
</g>
<g>
</g>
<g>
</g>
<g>
</g>
<g>
</g>
<g>
</g>
<g>
</g>
<g>
</g>
<g>
</g>
<g>
</g>
<g>
</g>
<g>
</g>
<g>
</g>
</svg>
