<?xml version="1.0" encoding="iso-8859-1"?>
<!-- Generator: Adobe Illustrator 23.0.6, SVG Export Plug-In . SVG Version: 6.00 Build 0)  -->
<svg version="1.1" id="Capa_1" xmlns="http://www.w3.org/2000/svg" xmlns:xlink="http://www.w3.org/1999/xlink" x="0px" y="0px"
	 viewBox="0 0 512 512" style="enable-background:new 0 0 512 512;" xml:space="preserve">
<g>
	<g>
		<path style="fill:#FFF5F5;" d="M494.638,458.632H17.362c-5.447,0-9.862-4.415-9.862-9.862V73.092
			c0-10.893,8.831-19.724,19.724-19.724h457.552c10.893,0,19.724,8.831,19.724,19.724V448.77
			C504.5,454.216,500.085,458.632,494.638,458.632z"/>
		<path style="fill:#EFE2DD;" d="M504.5,73.091v375.68c0,5.45-4.42,9.86-9.86,9.86h-27c5.45,0,9.86-4.41,9.86-9.86V73.091
			c0-10.89-8.83-19.72-19.72-19.72h27C495.67,53.371,504.5,62.201,504.5,73.091z"/>
		<path style="fill:#FFB54E;" d="M504.5,73.091v54.91H7.5v-54.91c0-10.89,8.83-19.72,19.72-19.72h457.56
			C495.67,53.371,504.5,62.201,504.5,73.091z"/>
		<path style="fill:#FF9A1B;" d="M504.5,73.091v54.91h-27v-54.91c0-10.89-8.83-19.72-19.72-19.72h27
			C495.67,53.371,504.5,62.201,504.5,73.091z"/>
		<g>
			<g>
				<g>
					<g>
						<g>
							<path style="fill:#8EC737;" d="M353.424,267.881c-6.248-0.386-11.239-10.685-14.248-24.084
								c-2.532-11.31-3.664-24.823-2.948-36.482c1.574-25.482,11.367-32.388,22.889-31.681c11.19,0.693,19.888,8.335,18.924,32.164
								c-0.019,0.683-0.059,1.376-0.104,2.09C376.361,235.356,364.945,268.588,353.424,267.881z"/>
							<path style="fill:#83B832;" d="M353.424,267.881c-6.248-0.386-11.239-10.685-14.248-24.084
								c2.311-3.682,5.305-7.518,8.969-11.491c8.159-8.858,19.062-17.763,29.895-24.509c-0.019,0.683-0.059,1.376-0.104,2.09
								C376.361,235.356,364.945,268.588,353.424,267.881z"/>
							<path style="fill:#BDEB73;" d="M389.774,217.304c-22.242,12.516-47.176,37.28-41.518,47.336
								c5.659,10.056,39.768,1.595,62.009-10.92c22.242-12.516,24.193-24.347,18.534-34.403
								C423.141,209.26,412.015,204.788,389.774,217.304z"/>
							<path style="fill:#9AD63B;" d="M410.265,253.723c-22.241,12.509-56.346,20.975-62.012,10.915
								c-1.324-2.338-0.974-5.476,0.605-9.073c13.025,1.243,36.321-5.854,52.967-15.218c17.535-9.872,22.457-19.308,20.983-27.79
								c2.486,1.677,4.448,4.01,5.995,6.759C434.456,229.376,432.505,241.2,410.265,253.723z"/>
						</g>
					</g>
					<g>
						<g>
							<path style="fill:#8EC737;" d="M158.576,267.88c6.248-0.386,11.239-10.685,14.248-24.084
								c2.532-11.31,3.664-24.823,2.948-36.482c-1.574-25.482-11.367-32.388-22.889-31.681c-11.19,0.693-19.888,8.335-18.924,32.164
								c0.019,0.683,0.059,1.376,0.104,2.09C135.639,235.355,147.055,268.587,158.576,267.88z"/>
							<path style="fill:#83B832;" d="M175.772,207.315c0.716,11.659-0.416,25.172-2.948,36.482
								c-3.009,13.399-8,23.698-14.248,24.084c-1.695,0.103-3.405-0.535-5.062-1.77c2.054-4.126,3.785-9.471,5.124-15.424
								c2.532-11.31,3.664-24.823,2.948-36.482c-1.545-25.071-11.057-32.16-22.327-31.704c3.422-4.587,8.242-6.534,13.625-6.866
								C164.405,174.927,174.199,181.833,175.772,207.315z"/>
							<path style="fill:#83B832;" d="M158.576,267.88c6.248-0.386,11.239-10.685,14.248-24.084
								c-2.311-3.682-5.305-7.518-8.969-11.491c-8.159-8.858-19.062-17.763-29.895-24.509c0.019,0.683,0.059,1.376,0.104,2.09
								C135.639,235.355,147.055,268.587,158.576,267.88z"/>
							<path style="fill:#BDEB73;" d="M122.226,217.303c22.242,12.516,47.176,37.28,41.518,47.336
								c-5.659,10.056-39.768,1.595-62.009-10.92S77.541,229.372,83.2,219.316S99.985,204.788,122.226,217.303z"/>
							<path style="fill:#9AD63B;" d="M163.746,264.637c-1.427,2.53-4.653,3.891-9.045,4.303
								c-4.817-11.874-23.811-29.1-41.161-38.863c-15.819-8.897-26.003-9.207-32.605-5.027c0.431-1.971,1.215-3.883,2.26-5.737
								c5.659-10.053,16.792-14.526,39.025-2.011C144.469,229.821,169.405,254.584,163.746,264.637z"/>
						</g>
					</g>
				</g>
				<g>
					<g>
						<g>
							<path style="fill:#8EC737;" d="M353.424,312.507c-6.248,0.386-11.239,10.685-14.248,24.084
								c-2.532,11.31-3.664,24.823-2.948,36.482c1.574,25.482,11.367,32.388,22.889,31.681c11.19-0.693,19.888-8.335,18.924-32.164
								c-0.019-0.683-0.059-1.376-0.104-2.09C376.361,345.032,364.945,311.8,353.424,312.507z"/>
							<path style="fill:#83B832;" d="M353.424,312.507c-6.248,0.386-11.239,10.685-14.248,24.084
								c2.311,3.682,5.305,7.518,8.969,11.491c8.159,8.858,19.062,17.763,29.895,24.509c-0.019-0.683-0.059-1.376-0.104-2.09
								C376.361,345.032,364.945,311.8,353.424,312.507z"/>
							<path style="fill:#BDEB73;" d="M389.774,363.084c-22.242-12.516-47.176-37.28-41.518-47.336
								c5.659-10.056,39.768-1.595,62.009,10.92s24.193,24.347,18.534,34.403C423.141,371.127,412.015,375.599,389.774,363.084z"/>
							<path style="fill:#9AD63B;" d="M410.265,326.665c-22.241-12.509-56.346-20.975-62.012-10.915
								c-1.324,2.338-0.974,5.476,0.605,9.073c13.025-1.243,36.321,5.854,52.967,15.218c17.535,9.872,22.457,19.308,20.983,27.79
								c2.486-1.677,4.448-4.01,5.995-6.759C434.456,351.012,432.505,339.187,410.265,326.665z"/>
						</g>
					</g>
					<g>
						<g>
							<path style="fill:#8EC737;" d="M158.576,312.507c6.248,0.386,11.239,10.685,14.248,24.084
								c2.532,11.31,3.664,24.823,2.948,36.482c-1.574,25.482-11.367,32.388-22.889,31.681c-11.19-0.693-19.888-8.335-18.924-32.164
								c0.019-0.683,0.059-1.376,0.104-2.09C135.639,345.032,147.055,311.8,158.576,312.507z"/>
							<path style="fill:#83B832;" d="M175.772,373.072c0.716-11.659-0.416-25.172-2.948-36.482
								c-3.009-13.399-8-23.698-14.248-24.084c-1.695-0.103-3.405,0.535-5.062,1.77c2.054,4.126,3.785,9.471,5.124,15.424
								c2.532,11.31,3.664,24.823,2.948,36.482c-1.545,25.071-11.057,32.16-22.327,31.704c3.422,4.587,8.242,6.534,13.625,6.866
								C164.405,405.461,174.199,398.555,175.772,373.072z"/>
							<path style="fill:#83B832;" d="M158.576,312.507c6.248,0.386,11.239,10.685,14.248,24.084
								c-2.311,3.682-5.305,7.518-8.969,11.491c-8.159,8.858-19.062,17.763-29.895,24.509c0.019-0.683,0.059-1.376,0.104-2.09
								C135.639,345.032,147.055,311.8,158.576,312.507z"/>
							<path style="fill:#BDEB73;" d="M122.226,363.084c22.242-12.516,47.176-37.28,41.518-47.336
								c-5.659-10.056-39.768-1.595-62.009,10.92S77.541,351.015,83.2,361.071C88.859,371.127,99.985,375.6,122.226,363.084z"/>
							<path style="fill:#9AD63B;" d="M163.746,315.75c-1.427-2.53-4.653-3.891-9.045-4.303
								c-4.817,11.874-23.811,29.1-41.161,38.863c-15.819,8.897-26.003,9.207-32.605,5.027c0.431,1.971,1.215,3.883,2.26,5.737
								c5.659,10.053,16.792,14.526,39.025,2.011C144.469,350.567,169.405,325.803,163.746,315.75z"/>
						</g>
					</g>
				</g>
			</g>
			<g>
				<g>
					<path style="fill:#ED6264;" d="M451.36,324.382h-112.1c-5.16,0-9.34-4.18-9.34-9.33v-59.05h122.53
						c8.45,0,12.55,10.34,6.4,16.13l-20.28,19.1l18.99,16.83C463.99,313.762,459.96,324.382,451.36,324.382z"/>
					<path style="fill:#E84649;" d="M380.43,290.192c0,11.85-1.67,23.32-4.78,34.19h-36.39c-5.16,0-9.34-4.18-9.34-9.33v-59.05
						h45.73C378.76,266.872,380.43,278.342,380.43,290.192z"/>
					<path style="fill:#ED6264;" d="M182.08,256.002v59.05c0,5.15-4.18,9.33-9.34,9.33H60.64c-8.6,0-12.63-10.62-6.2-16.32
						l18.99-16.83l-20.28-19.1c-6.15-5.79-2.05-16.13,6.4-16.13H182.08z"/>
					<path style="fill:#E84649;" d="M136.35,256.002h45.73v59.05c0,5.15-4.18,9.33-9.34,9.33h-36.39
						c-3.11-10.87-4.78-22.34-4.78-34.19C131.57,278.342,133.24,266.872,136.35,256.002z"/>
				</g>
				<g>
					<circle style="fill:#FFCE8B;" cx="256" cy="290.194" r="110.43"/>
					<circle style="fill:#FFB54E;" cx="256" cy="290.194" r="94.93"/>
					<circle style="fill:#65BAFC;" cx="256" cy="290.194" r="82.003"/>
					<path style="fill:#2EA8FC;" d="M337.999,290.194c0,45.293-36.705,81.999-81.999,81.999c-3.361,0-6.676-0.203-9.927-0.6
						c40.611-4.894,72.072-39.467,72.072-81.398s-31.461-76.504-72.072-81.398c3.25-0.397,6.565-0.6,9.927-0.6
						C301.293,208.195,337.999,244.9,337.999,290.194z"/>
					<g>
						<path style="fill:#FFCE8B;" d="M299.289,282.872l-18.293,17.831l4.312,25.181c0.646,3.767-3.306,6.648-6.695,4.866
							L256,318.857l-22.614,11.894c-3.389,1.782-7.341-1.099-6.695-4.866l2.032-11.875l2.281-13.306l-18.293-17.831
							c-2.733-2.669-1.228-7.323,2.558-7.877l25.283-3.675l11.312-22.91c1.69-3.426,6.584-3.426,8.274,0l11.312,22.91l10.647,1.551
							l14.636,2.124C300.518,275.549,302.023,280.203,299.289,282.872z"/>
						<path style="fill:#FFB54E;" d="M299.289,282.872l-18.293,17.831l4.312,25.181c0.646,3.767-3.306,6.648-6.695,4.866
							L256,318.857l-22.614,11.894c-3.389,1.782-7.341-1.099-6.695-4.866l2.032-11.875c33.926-9.391,47.777-28.423,53.373-41.138
							l14.636,2.124C300.518,275.549,302.023,280.203,299.289,282.872z"/>
					</g>
				</g>
			</g>
		</g>
	</g>
	<g>
		<path d="M504.5,394.599c-4.143,0-7.5,3.357-7.5,7.5v46.671c0,1.303-1.06,2.362-2.362,2.362H17.362
			c-1.303,0-2.362-1.06-2.362-2.362V135.501h360.303c4.143,0,7.5-3.357,7.5-7.5s-3.357-7.5-7.5-7.5H15V73.092
			c0-6.74,5.484-12.224,12.225-12.224h122.078c4.143,0,7.5-3.357,7.5-7.5s-3.357-7.5-7.5-7.5H27.225
			C12.213,45.868,0,58.081,0,73.092V448.77c0,9.573,7.789,17.362,17.362,17.362h477.275c9.573,0,17.362-7.789,17.362-17.362v-46.671
			C512,397.956,508.643,394.599,504.5,394.599z"/>
		<path d="M484.775,45.868H184.697c-4.143,0-7.5,3.357-7.5,7.5s3.357,7.5,7.5,7.5h300.078c6.74,0,12.225,5.483,12.225,12.224v47.409
			h-86.303c-4.143,0-7.5,3.357-7.5,7.5s3.357,7.5,7.5,7.5H497v231.203c0,4.143,3.357,7.5,7.5,7.5s7.5-3.357,7.5-7.5V73.092
			C512,58.081,499.787,45.868,484.775,45.868z"/>
		<path d="M435.336,215.639c-4.284-7.613-10.809-12.188-18.868-13.23c-8.489-1.1-18.424,1.636-30.372,8.359
			c-0.246,0.138-0.494,0.287-0.74,0.428c0.02-0.281,0.049-0.571,0.066-0.85c0.845-13.684-1.024-23.816-5.712-30.979
			c-4.451-6.801-11.413-10.679-20.132-11.216c-8.717-0.551-16.104,2.453-21.357,8.656c-4.284,5.058-7.103,12.101-8.552,21.37
			c-20.199-16.204-45.82-25.914-73.669-25.914c-27.85,0-53.47,9.71-73.669,25.914c-1.448-9.269-4.267-16.312-8.552-21.37
			c-5.253-6.201-12.636-9.2-21.357-8.657c-8.72,0.538-15.681,4.417-20.132,11.217c-4.688,7.162-6.557,17.295-5.712,30.979
			c0.017,0.279,0.047,0.568,0.066,0.849c-0.246-0.141-0.494-0.289-0.74-0.427c-11.947-6.724-21.88-9.453-30.372-8.36
			c-8.06,1.042-14.585,5.617-18.868,13.23c-4.284,7.613-4.809,15.565-1.517,22.996c1.517,3.423,3.804,6.702,6.896,9.87h-22.49
			c-6.945,0-13.088,4.171-15.648,10.627c-2.562,6.455-0.949,13.702,4.105,18.464l14.304,13.471L49.47,302.448
			c-5.282,4.683-7.078,11.972-4.574,18.571c2.503,6.6,8.682,10.864,15.74,10.864h21.408c-3.093,3.168-5.379,6.447-6.896,9.87
			c-3.292,7.431-2.768,15.383,1.517,22.995c4.284,7.613,10.809,12.188,18.868,13.23c1.213,0.157,2.454,0.236,3.728,0.236
			c7.641-0.001,16.403-2.833,26.645-8.596c0.246-0.138,0.494-0.286,0.74-0.427c-0.019,0.281-0.049,0.57-0.066,0.849
			c-0.845,13.684,1.024,23.816,5.712,30.979c4.451,6.801,11.413,10.679,20.132,11.216c0.667,0.042,1.325,0.063,1.977,0.063
			c7.859,0,14.53-2.991,19.381-8.719c4.284-5.058,7.103-12.102,8.552-21.37c20.199,16.204,45.819,25.914,73.669,25.914
			c27.85,0,53.47-9.71,73.669-25.914c1.448,9.269,4.267,16.312,8.552,21.369c4.852,5.729,11.521,8.719,19.383,8.719
			c0.649,0,1.309-0.021,1.975-0.062c8.719-0.537,15.681-4.415,20.132-11.216c4.688-7.162,6.557-17.295,5.712-30.979
			c-0.017-0.279-0.047-0.568-0.066-0.849c0.246,0.141,0.494,0.289,0.74,0.427c10.242,5.764,19.003,8.596,26.645,8.596
			c1.272-0.001,2.516-0.079,3.728-0.236c8.06-1.042,14.584-5.617,18.868-13.23s4.809-15.565,1.517-22.996
			c-1.517-3.422-3.803-6.701-6.896-9.869h21.407c7.059,0,13.237-4.265,15.741-10.864c2.503-6.6,0.707-13.889-4.575-18.571
			l-12.845-11.383l14.303-13.471c5.056-4.762,6.668-12.009,4.106-18.464c-2.561-6.456-8.703-10.627-15.648-10.627h-22.49
			c3.093-3.168,5.379-6.447,6.896-9.87C440.145,231.203,439.62,223.251,435.336,215.639z M349.666,186.503
			c2.191-2.586,4.959-3.623,8.988-3.381c4.025,0.249,6.648,1.624,8.505,4.46c1.934,2.954,4.075,9.142,3.292,21.84
			c-0.253,4.1-0.788,8.456-1.573,12.949c-3.739,2.927-7.324,6.015-10.608,9.145c-4.184-7.265-9.124-14.041-14.705-20.229
			c0.033-1.189,0.08-2.37,0.151-3.515C344.499,195.075,347.384,189.197,349.666,186.503z M141.549,209.422
			c-1.571-25.476,8.141-26.074,11.797-26.301c3.649-0.217,13.367-0.824,14.938,24.651c0.07,1.144,0.115,2.325,0.148,3.518
			c-5.577,6.183-10.513,12.955-14.696,20.215c-3.296-3.148-6.883-6.237-10.619-9.16
			C142.335,217.861,141.802,213.513,141.549,209.422z M105.413,247.184c-11.088-6.239-15.121-11.398-16.552-14.627
			c-1.373-3.099-1.103-6.048,0.875-9.563s4.358-5.276,7.72-5.711c3.499-0.451,10.003,0.316,21.093,6.557
			c9.829,5.532,20.496,13.828,28.224,21.908c-0.373,0.913-0.735,1.832-1.085,2.756H107.84
			C107.016,248.069,106.206,247.63,105.413,247.184z M58.92,315.699c-0.298-0.786-0.131-1.467,0.499-2.024l18.988-16.827
			c1.576-1.397,2.492-3.394,2.524-5.5s-0.823-4.129-2.356-5.573l-20.28-19.1c-0.602-0.566-0.752-1.244-0.447-2.013
			s0.879-1.158,1.706-1.158h81.563c-1.992,8.579-3.047,17.513-3.047,26.689c0,9.177,1.055,18.111,3.047,26.69H60.636
			C59.795,316.884,59.218,316.485,58.92,315.699z M118.549,356.548c-11.088,6.238-17.587,7.014-21.093,6.556
			c-3.361-0.435-5.742-2.195-7.72-5.711c-1.978-3.514-2.248-6.463-0.875-9.563c1.431-3.229,5.464-8.387,16.553-14.627
			c0.793-0.447,1.609-0.885,2.433-1.319h37.84c0.35,0.924,0.712,1.842,1.084,2.754C139.045,342.719,128.379,351.016,118.549,356.548
			z M162.334,393.885c-2.19,2.587-4.954,3.626-8.988,3.381c-4.025-0.249-6.648-1.624-8.505-4.46
			c-1.934-2.954-4.075-9.142-3.292-21.841c0.253-4.093,0.789-8.44,1.571-12.924c3.735-2.923,7.321-6.011,10.616-9.158
			c4.183,7.261,9.121,14.034,14.699,20.219c-0.033,1.199-0.081,2.381-0.151,3.514C167.501,385.313,164.616,391.19,162.334,393.885z
			 M153.069,290.193c0-56.756,46.175-102.93,102.931-102.93s102.93,46.174,102.93,102.93S312.756,393.124,256,393.124
			S153.069,346.949,153.069,290.193z M370.451,370.966c0.783,12.698-1.358,18.886-3.292,21.84c-1.856,2.836-4.479,4.211-8.505,4.46
			c-3.649,0.218-13.367,0.824-14.938-24.651c-0.07-1.139-0.116-2.321-0.149-3.517c5.578-6.184,10.514-12.956,14.697-20.217
			c3.297,3.152,6.881,6.241,10.618,9.165C369.665,362.527,370.198,366.873,370.451,370.966z M404.381,331.998
			c0.747,0.396,1.483,0.799,2.207,1.206c11.087,6.239,15.12,11.397,16.551,14.626c1.373,3.099,1.103,6.048-0.875,9.563
			c-1.978,3.515-4.358,5.275-7.72,5.71c-3.502,0.457-10.004-0.315-21.093-6.556c-9.884-5.562-20.488-13.816-28.225-21.908
			c0.373-0.913,0.735-1.831,1.085-2.756h37.878C404.254,331.921,404.314,331.963,404.381,331.998z M454.152,264.662
			c0.305,0.769,0.154,1.446-0.448,2.013l-20.279,19.1c-1.533,1.444-2.389,3.467-2.356,5.573s0.948,4.103,2.524,5.5l18.988,16.827
			c0.63,0.558,0.797,1.238,0.499,2.024s-0.875,1.185-1.716,1.185h-80.482c1.992-8.579,3.047-17.514,3.047-26.69
			c0-9.176-1.055-18.111-3.047-26.689h81.563C453.273,263.504,453.848,263.894,454.152,264.662z M366.312,248.504
			c-0.35-0.924-0.712-1.842-1.084-2.754c7.736-8.097,18.295-16.323,28.224-21.91c11.088-6.238,17.587-7.014,21.093-6.556
			c3.361,0.435,5.742,2.195,7.72,5.711c1.978,3.514,2.248,6.463,0.875,9.563c-1.431,3.229-5.464,8.387-16.552,14.626
			c-0.773,0.436-1.563,0.866-2.365,1.29c-0.018,0.009-0.033,0.021-0.051,0.03H366.312z"/>
		<path d="M256,200.691c-49.353,0-89.503,40.15-89.503,89.502c0,49.353,40.15,89.503,89.503,89.503s89.503-40.15,89.503-89.503
			C345.503,240.842,305.353,200.691,256,200.691z M256,364.696c-41.081,0-74.503-33.422-74.503-74.503
			c0-41.08,33.422-74.502,74.503-74.502s74.503,33.422,74.503,74.502C330.503,331.274,297.081,364.696,256,364.696z"/>
		<path d="M297.805,267.573l-21.378-3.106l-9.561-19.372c0,0,0-0.001-0.001-0.001c-2.057-4.166-6.22-6.754-10.865-6.754
			s-8.809,2.588-10.866,6.755l-9.561,19.372l-21.379,3.106c-4.598,0.669-8.346,3.829-9.781,8.247s-0.262,9.178,3.065,12.422
			l15.471,15.078l-3.651,21.292c-0.786,4.579,1.061,9.121,4.82,11.853c2.124,1.543,4.608,2.327,7.11,2.327
			c1.925,0,3.861-0.465,5.649-1.405L256,327.334l19.121,10.053c4.113,2.162,9.003,1.809,12.762-0.923s5.605-7.272,4.819-11.851
			l-3.651-21.293l15.472-15.079c3.326-3.243,4.5-8.003,3.064-12.421S302.403,268.242,297.805,267.573z M275.757,295.331
			c-1.768,1.724-2.574,4.206-2.156,6.639l3.33,19.422l-17.44-9.17c-1.093-0.574-2.291-0.861-3.49-0.861
			c-1.198,0-2.397,0.287-3.49,0.861l-17.44,9.169l3.33-19.421c0.418-2.433-0.389-4.915-2.156-6.639l-14.111-13.754l19.5-2.833
			c2.443-0.354,4.555-1.889,5.647-4.103L256,256.971l8.721,17.671c1.093,2.214,3.204,3.748,5.647,4.103l19.5,2.833L275.757,295.331z
			"/>
		<path d="M50.932,91.206c0,4.143,3.357,7.5,7.5,7.5s7.5-3.357,7.5-7.5v-0.03c0-4.143-3.357-7.485-7.5-7.485
			S50.932,87.063,50.932,91.206z"/>
		<path d="M78.932,91.206c0,4.143,3.357,7.5,7.5,7.5s7.5-3.357,7.5-7.5v-0.03c0-4.143-3.357-7.485-7.5-7.485
			S78.932,87.063,78.932,91.206z"/>
		<path d="M106.932,91.206c0,4.143,3.357,7.5,7.5,7.5s7.5-3.357,7.5-7.5v-0.03c0-4.143-3.357-7.485-7.5-7.485
			S106.932,87.063,106.932,91.206z"/>
		<path d="M461.068,91.206c0-4.143-3.357-7.5-7.5-7.5H236.114c-4.143,0-7.5,3.357-7.5,7.5s3.357,7.5,7.5,7.5h217.454
			C457.711,98.706,461.068,95.349,461.068,91.206z"/>
	</g>
</g>
<g>
</g>
<g>
</g>
<g>
</g>
<g>
</g>
<g>
</g>
<g>
</g>
<g>
</g>
<g>
</g>
<g>
</g>
<g>
</g>
<g>
</g>
<g>
</g>
<g>
</g>
<g>
</g>
<g>
</g>
</svg>
