<?xml version="1.0" encoding="iso-8859-1"?>
<!-- Generator: Adobe Illustrator 23.0.6, SVG Export Plug-In . SVG Version: 6.00 Build 0)  -->
<svg version="1.1" id="Capa_1" xmlns="http://www.w3.org/2000/svg" xmlns:xlink="http://www.w3.org/1999/xlink" x="0px" y="0px"
	 viewBox="0 0 511.999 511.999" style="enable-background:new 0 0 511.999 511.999;" xml:space="preserve">
<g>
	<g>
		<g>
			<g>
				<path style="fill:#FDD1A7;" d="M230.21,117.92v-80.36c0-16.601-13.458-30.059-30.059-30.059h-15.627
					c-16.601,0-30.059,13.458-30.059,30.059v81.351H84.601c-16.591,0-30.058,13.454-30.058,30.058v103.345
					c0,14.364,2.865,28.416,8.241,41.436c5.404,13.02,13.346,24.994,23.528,35.15c37.756,37.702,57.986,89.537,57.986,142.907
					v17.663c0,8.3,6.729,15.029,15.029,15.029h244.175c8.301,0,15.029-6.729,15.029-15.029v-55.582
					c0-31.43,7.576-62.411,22.076-90.298l4.792-9.219c7.915-15.219,12.056-32.122,12.056-49.283V117.92H230.21z"/>
			</g>
			<path style="fill:#FFBC8A;" d="M457.455,171.181v113.908c0,17.161-4.141,34.064-12.056,49.283l-4.792,9.219
				c-14.5,27.886-22.076,58.868-22.076,90.298v55.582c0,8.295-6.72,15.029-15.029,15.029h-97.29v-88.071
				c0-131.448-118.456-149.424-118.456-149.424v-95.824H457.455z"/>
			<path style="fill:#F5A871;" d="M457.455,171.181v113.908c0,17.161-4.141,34.064-12.056,49.283l-4.792,9.219
				c-14.5,27.886-22.076,58.868-22.076,90.298v55.582c0,8.295-6.72,15.029-15.029,15.029h-25.185
				c8.309,0,15.029-6.734,15.029-15.029v-55.582c0-31.43,7.589-62.411,22.089-90.298l4.779-9.219
				c7.915-15.219,12.056-32.122,12.056-49.283V171.181H457.455z"/>
			<path style="fill:#F5A871;" d="M457.455,171.181v44.531c-9.924,8.716-22.931,14.011-37.146,14.011h-0.502
				c-14.459,0-27.669-5.431-37.716-14.35c-9.965,8.92-23.121,14.35-37.526,14.35h-0.489c-14.459,0-27.669-5.431-37.716-14.35
				c-9.979,8.92-23.135,14.35-37.526,14.35h-0.502c-16.618,0-31.593-7.168-42.006-18.573c-5.892,4.698-12.463,8.54-19.564,11.377
				v29.57c12.979,3.896,32.109,11.323,51.184,24.804c29.329,20.725,64.054,59.833,67.062,129.657c0.232,5.386-4.11,9.87-9.501,9.87
				h0c-5.098,0-9.27-4.029-9.491-9.123c-5.333-123.164-118.261-140.301-118.261-140.301v-95.824H457.455z"/>
			<g>
				<g>
					<path style="fill:#FDD1A7;" d="M230.239,37.561v135.293c0,20.913,16.953,37.865,37.865,37.865h0.498
						c20.641,0,37.374-16.733,37.374-37.374V37.561c0-16.602-13.459-30.061-30.061-30.061H260.3
						C243.698,7.5,230.239,20.959,230.239,37.561z"/>
					<path style="fill:#FFBC8A;" d="M305.983,37.561V173.34c0,20.65-16.74,37.376-37.376,37.376h-0.502
						c-4.467,0-8.771-0.774-12.748-2.199c14.418-5.186,24.723-18.966,24.723-35.177V37.561c0-14.853-10.766-27.18-24.913-29.611
						c1.67-0.299,3.381-0.448,5.132-0.448h15.613C292.515,7.502,305.983,20.956,305.983,37.561z"/>
					<path style="fill:#FDD1A7;" d="M305.977,37.561v135.293c0,20.913,16.953,37.865,37.865,37.865h0.498
						c20.641,0,37.374-16.733,37.374-37.374V37.561c0-16.602-13.459-30.061-30.061-30.061h-15.616
						C319.435,7.5,305.977,20.959,305.977,37.561z"/>
					<path style="fill:#FFBC8A;" d="M381.713,37.561V173.34c0,20.65-16.726,37.376-37.376,37.376h-0.489
						c-4.48,0-8.77-0.774-12.748-2.199c14.405-5.186,24.709-18.98,24.709-35.177V37.561c0-14.853-10.766-27.18-24.913-29.611
						c1.67-0.299,3.394-0.448,5.146-0.448h15.613C368.258,7.502,381.713,20.956,381.713,37.561z"/>
					<path style="fill:#FDD1A7;" d="M381.714,37.559v135.295c0,20.913,16.953,37.865,37.865,37.865h0.498
						c20.641,0,37.374-16.733,37.374-37.374V37.561c0-16.602-13.459-30.061-30.061-30.061h-15.618
						C395.172,7.5,381.714,20.958,381.714,37.559z"/>
					<path style="fill:#FFBC8A;" d="M457.456,37.561V173.34c0,20.65-16.74,37.376-37.376,37.376h-0.502
						c-4.467,0-8.77-0.774-12.748-2.199c14.418-5.186,24.723-18.98,24.723-35.177V37.561c0-14.853-10.753-27.18-24.913-29.611
						c1.67-0.299,3.381-0.448,5.132-0.448h15.627C443.988,7.502,457.456,20.956,457.456,37.561z"/>
				</g>
			</g>
			<path style="fill:#FFBC8A;" d="M154.466,99.905v28.182h75.773V37.561c0-16.604-13.468-30.059-30.072-30.059h-15.613
				c-1.751,0-3.462,0.149-5.132,0.448c14.147,2.43,24.913,14.758,24.913,29.611v62.344H154.466z"/>
			<path style="fill:#FDD1A7;" d="M146.885,118.912h75.096c8.088,0,14.645,6.557,14.645,14.645v16.959
				c0,32.315-26.197,58.512-58.512,58.512h-31.229V118.912z"/>
		</g>
	</g>
	<g>
		<path d="M464.952,37.561C464.952,16.85,448.103,0,427.392,0h-15.619c-12.28,0-23.202,5.925-30.059,15.065
			C374.856,5.925,363.934,0,351.654,0h-15.617c-12.281,0-23.203,5.925-30.061,15.066C299.119,5.925,288.197,0,275.916,0H260.3
			c-12.289,0-23.218,5.932-30.075,15.083c-6.856-9.15-17.785-15.083-30.073-15.083h-15.626c-20.71,0-37.559,16.849-37.559,37.559
			v73.851H84.602c-20.71,0-37.559,16.849-37.559,37.559v31.334c0,4.143,3.358,7.5,7.5,7.5s7.5-3.357,7.5-7.5v-31.334
			c0-12.438,10.12-22.559,22.559-22.559l90.7,0.002c4.142,0,7.5-3.357,7.5-7.5s-3.358-7.5-7.5-7.5h-13.334V37.56
			c0-12.438,10.12-22.559,22.559-22.559h15.626c12.439,0,22.559,10.12,22.559,22.559v73.871c-0.243-0.008-0.485-0.019-0.73-0.019
			h-11.283c-4.142,0-7.5,3.357-7.5,7.5s3.358,7.5,7.5,7.5h11.283c3.94,0,7.145,3.205,7.145,7.146v16.96
			c0,28.128-22.884,51.012-51.012,51.012h-31.229c-4.142,0-7.5,3.357-7.5,7.5s3.358,7.5,7.5,7.5h31.229
			c0.718,0,1.429-0.031,2.141-0.054v50.527c0,3.698,2.708,6.847,6.363,7.413c0.284,0.044,28.679,4.624,56.519,24.476
			c36.873,26.292,55.569,65.838,55.569,117.539c0,4.143,3.358,7.5,7.5,7.5s7.5-3.357,7.5-7.5
			c0-71.114-33.932-110.019-62.397-130.134c-22.745-16.072-45.343-22.882-56.054-25.412v-46.625
			c12.818-3.451,24.098-10.674,32.586-20.4c7.595,14.683,22.831,24.361,40.264,24.361h0.499c15.654,0,29.453-8.063,37.485-20.248
			c8.141,12.196,22.023,20.248,37.754,20.248h0.498c15.654,0,29.454-8.063,37.486-20.248c8.141,12.196,22.023,20.248,37.754,20.248
			h0.498c11.466,0,21.937-4.328,29.877-11.43v78.298c0,15.877-3.876,31.722-11.21,45.824l-4.792,9.218
			c-3.158,6.074-6.086,12.514-8.703,19.142c-1.521,3.853,0.369,8.209,4.222,9.73c0.904,0.356,1.835,0.525,2.752,0.525
			c2.989,0,5.814-1.799,6.978-4.748c2.427-6.147,5.138-12.113,8.059-17.73l4.792-9.217c8.441-16.229,12.902-34.469,12.902-52.744
			L464.952,37.561z M298.477,173.346c0,16.473-13.401,29.874-29.874,29.874h-0.499c-14.958,0-27.501-10.635-29.946-25.329
			c3.82-8.346,5.967-17.61,5.967-27.373v-16.96c0-6.05-2.441-11.538-6.386-15.539V37.561C237.739,25.12,247.86,15,260.3,15h15.616
			c12.44,0,22.561,10.12,22.561,22.561v135.293V173.346z M374.214,173.346c0,16.473-13.401,29.874-29.874,29.874h-0.498
			c-16.744,0-30.366-13.622-30.366-30.366V37.561c0-12.44,10.121-22.561,22.561-22.561h15.617c12.44,0,22.561,10.12,22.561,22.561
			v135.293V173.346z M449.952,173.346c0,16.473-13.401,29.874-29.874,29.874h-0.498c-16.744,0-30.366-13.622-30.366-30.366V37.561
			v-0.002c0-12.438,10.12-22.559,22.559-22.559h15.619c12.44,0,22.561,10.12,22.561,22.561V173.346z"/>
		<path d="M423.743,388.499c-4.063-0.803-8.009,1.837-8.814,5.899c-2.586,13.051-3.897,26.337-3.897,39.488v55.583
			c0,4.151-3.378,7.529-7.53,7.529c-4.142,0-7.5,3.357-7.5,7.5s3.358,7.5,7.5,7.5c12.423,0,22.53-10.106,22.53-22.529v-55.583
			c0-12.175,1.215-24.48,3.611-36.572C430.448,393.251,427.807,389.305,423.743,388.499z"/>
		<path d="M159.328,496.999c-4.152,0-7.529-3.378-7.529-7.529v-17.663c0-27.766-5.173-54.724-15.375-80.124
			c-10.387-25.861-25.463-48.77-44.815-68.094c-9.42-9.395-16.787-20.401-21.893-32.701c-5.091-12.331-7.673-25.31-7.673-38.573
			v-36.617c0-4.143-3.358-7.5-7.5-7.5s-7.5,3.357-7.5,7.5v36.617c0,15.238,2.963,30.142,8.813,44.311
			c5.871,14.145,14.335,26.789,25.156,37.582c35.452,35.401,55.785,85.555,55.785,137.6v17.663
			c0,12.423,10.106,22.529,22.529,22.529c4.142,0,7.5-3.357,7.5-7.5S163.47,496.999,159.328,496.999z"/>
	</g>
</g>
<g>
</g>
<g>
</g>
<g>
</g>
<g>
</g>
<g>
</g>
<g>
</g>
<g>
</g>
<g>
</g>
<g>
</g>
<g>
</g>
<g>
</g>
<g>
</g>
<g>
</g>
<g>
</g>
<g>
</g>
</svg>
