<?xml version="1.0" encoding="iso-8859-1"?>
<!-- Generator: Adobe Illustrator 23.0.6, SVG Export Plug-In . SVG Version: 6.00 Build 0)  -->
<svg version="1.1" id="Capa_1" xmlns="http://www.w3.org/2000/svg" xmlns:xlink="http://www.w3.org/1999/xlink" x="0px" y="0px"
	 viewBox="0 0 511.996 511.996" style="enable-background:new 0 0 511.996 511.996;" xml:space="preserve">
<g>
	<g>
		<g>
			<path style="fill:#FDD1A7;" d="M404.382,219.758v123.129c0,12.64-3.05,25.09-8.88,36.3l-3.53,6.79
				c-10.68,20.54-16.26,43.36-16.26,66.509v40.94c0,6.11-4.95,11.07-11.07,11.07H184.794c-6.12,0-11.07-4.96-11.07-11.07v-13.01
				c0-39.31-14.9-77.489-42.71-105.259c-7.5-7.48-13.35-16.3-17.33-25.89c-3.96-9.59-6.07-19.94-6.07-30.52v-76.119
				c0-12.23,9.92-22.14,22.14-22.14h51.46V36.03c0-15.33,12.1-28.27,27.43-28.53c7.89-0.13,15.04,3.02,20.19,8.17
				c5.05,5.05,8.17,12.01,8.17,19.72v184.369H404.382z"/>
		</g>
		<path style="fill:#FFBC8A;" d="M404.382,258.988v83.899c0,12.64-3.05,25.09-8.88,36.3l-3.53,6.79
			c-10.68,20.54-16.26,43.36-16.26,66.509v40.94c0,6.11-4.95,11.07-11.07,11.07h-71.659v-64.87
			c0-96.819-87.249-110.059-87.249-110.059v-70.58H404.382z"/>
		<path style="fill:#F5A871;" d="M404.382,258.988v83.899c0,12.64-3.05,25.09-8.88,36.3l-3.53,6.79
			c-10.68,20.54-16.26,43.36-16.26,66.509v40.94c0,6.11-4.95,11.07-11.07,11.07h-18.55c6.12,0,11.07-4.96,11.07-11.07v-40.94
			c0-23.15,5.59-45.97,16.27-66.509l3.52-6.79c5.83-11.21,8.88-23.66,8.88-36.3v-83.899H404.382z"/>
		<path style="fill:#F5A871;" d="M404.382,258.988v32.8c-7.31,6.42-16.89,10.32-27.36,10.32h-0.37c-10.65,0-20.38-4-27.78-10.57
			c-7.34,6.57-17.03,10.57-27.64,10.57h-0.36c-10.65,0-20.38-4-27.78-10.57c-7.35,6.57-17.04,10.57-27.64,10.57h-0.37
			c-12.24,0-23.27-5.28-30.94-13.68c-4.34,3.46-9.18,6.29-14.41,8.38v21.78c9.56,2.87,23.65,8.34,37.7,18.27
			c21.597,15.261,47.166,44.056,49.393,95.459c0.172,3.981-3.014,7.31-6.999,7.31l0,0c-3.736,0-6.826-2.938-6.986-6.67
			c-3.9-90.762-87.108-103.389-87.108-103.389v-70.58H404.382z"/>
		<g>
			<g>
				<path style="fill:#FDD1A7;" d="M237.02,160.569v99.651c0,15.403,12.487,27.89,27.89,27.89h0.367
					c15.203,0,27.528-12.325,27.528-27.528V160.569c0-12.228-9.913-22.141-22.141-22.141h-11.502
					C246.933,138.427,237.02,148.34,237.02,160.569z"/>
				<path style="fill:#FFBC8A;" d="M292.809,160.569v100.009c0,15.21-12.33,27.53-27.53,27.53h-0.37c-3.29,0-6.46-0.57-9.39-1.62
					c10.62-3.82,18.21-13.97,18.21-25.91V160.569c0-10.94-7.93-20.02-18.35-21.81c1.23-0.22,2.49-0.33,3.78-0.33h11.5
					C282.889,138.429,292.809,148.339,292.809,160.569z"/>
				<path style="fill:#FDD1A7;" d="M292.805,160.569v99.651c0,15.403,12.487,27.89,27.89,27.89h0.367
					c15.203,0,27.528-12.325,27.528-27.528V160.569c0-12.228-9.913-22.141-22.141-22.141h-11.502
					C302.718,138.427,292.805,148.34,292.805,160.569z"/>
				<path style="fill:#FFBC8A;" d="M348.589,160.569v100.009c0,15.21-12.32,27.53-27.53,27.53h-0.36c-3.3,0-6.46-0.57-9.39-1.62
					c10.61-3.82,18.2-13.98,18.2-25.91V160.569c0-10.94-7.93-20.02-18.35-21.81c1.23-0.22,2.5-0.33,3.79-0.33h11.5
					C338.679,138.429,348.589,148.339,348.589,160.569z"/>
				<path style="fill:#FDD1A7;" d="M348.59,160.569v99.651c0,15.403,12.487,27.89,27.89,27.89h0.367
					c15.203,0,27.528-12.325,27.528-27.528V160.569c0-12.228-9.913-22.141-22.141-22.141h-11.502
					C358.503,138.427,348.59,148.34,348.59,160.569z"/>
				<path style="fill:#FFBC8A;" d="M404.378,160.569v100.009c0,15.21-12.33,27.53-27.53,27.53h-0.37c-3.29,0-6.46-0.57-9.39-1.62
					c10.62-3.82,18.21-13.98,18.21-25.91V160.569c0-10.94-7.92-20.02-18.35-21.81c1.23-0.22,2.49-0.33,3.78-0.33h11.51
					C394.458,138.429,404.378,148.339,404.378,160.569z"/>
			</g>
		</g>
		<path style="fill:#FDD1A7;" d="M175.63,220.489h55.312c5.958,0,10.787,4.83,10.787,10.787v12.492
			c0,23.802-19.296,43.098-43.098,43.098H175.63V220.489z"/>
		<path style="fill:#FFBC8A;" d="M181.214,226.488v-20h49.73c2.09,0,4.12,0.26,6.06,0.75v18.52L181.214,226.488z"/>
	</g>
	<g>
		<path d="M411.875,210.029c0-4.143-3.358-7.5-7.5-7.5s-7.5,3.357-7.5,7.5v50.553c0,11.044-8.985,20.028-20.028,20.028h-0.367
			c-11.243,0-20.39-9.147-20.39-20.391v-99.651c0-8.073,6.568-14.641,14.641-14.641h11.502c8.073,0,14.642,6.567,14.642,14.641
			v14.066c0,4.143,3.358,7.5,7.5,7.5s7.5-3.357,7.5-7.5v-14.066c0-16.344-13.297-29.641-29.642-29.641h-11.502
			c-8.798,0-16.708,3.856-22.141,9.963c-5.433-6.107-13.344-9.963-22.141-9.963h-11.502c-8.798,0-16.708,3.856-22.141,9.963
			c-5.433-6.107-13.344-9.963-22.141-9.963h-11.502c-5.331,0-10.333,1.422-14.66,3.895V35.387c0-9.448-3.682-18.334-10.367-25.021
			c-6.842-6.843-15.979-10.52-25.619-10.361c-19.188,0.319-34.799,16.479-34.799,36.021v83.275c0,4.143,3.358,7.5,7.5,7.5
			s7.5-3.357,7.5-7.5V36.026c0-11.408,8.994-20.84,20.048-21.023c5.558-0.106,10.821,2.027,14.763,5.97
			c3.853,3.854,5.974,8.972,5.974,14.414v177.603h-40.785v-58.293c0-4.143-3.358-7.5-7.5-7.5s-7.5,3.357-7.5,7.5v58.293h-43.957
			c-16.344,0-29.641,13.297-29.641,29.641v76.122c0,11.497,2.232,22.726,6.639,33.386c4.422,10.655,10.8,20.187,18.957,28.33
			c25.743,25.7,40.507,62.128,40.507,99.943v13.015c0,10.239,8.331,18.57,18.57,18.57c4.142,0,7.5-3.357,7.5-7.5s-3.358-7.5-7.5-7.5
			c-1.969,0-3.57-1.602-3.57-3.57v-13.015c0-41.769-16.369-82.066-44.909-110.559c-6.755-6.744-12.037-14.639-15.696-23.455
			c-3.648-8.824-5.498-18.125-5.498-27.646V242.63c0-8.073,6.568-14.641,14.641-14.641h101.183c1.813,0,3.287,1.475,3.287,3.287
			v12.491c0,19.629-15.969,35.598-35.598,35.598H175.63c-4.142,0-7.5,3.357-7.5,7.5s3.358,7.5,7.5,7.5h22.603v35.2
			c0,3.695,2.708,6.843,6.359,7.413c0.256,0.04,25.892,4.224,47.994,23.346c1.418,1.228,3.165,1.828,4.904,1.828
			c2.102,0,4.192-0.879,5.675-2.593c2.71-3.133,2.368-7.869-0.765-10.579c-18.64-16.126-39.056-22.914-49.167-25.471v-31.301
			c8.32-2.513,15.738-7.115,21.65-13.193c6.288,10.086,17.447,16.595,30.027,16.595h0.367c11.213,0,21.206-5.303,27.621-13.526
			c6.486,8.228,16.531,13.526,27.797,13.526h0.367c11.214,0,21.206-5.303,27.621-13.526c6.486,8.228,16.531,13.526,27.797,13.526
			h0.367c7.445,0,14.35-2.342,20.031-6.318v53.6c0,11.382-2.777,22.735-8.031,32.832l-3.535,6.792
			c-11.185,21.534-17.096,45.729-17.096,69.97v40.939c0,1.969-1.602,3.57-3.57,3.57c-4.142,0-7.5,3.357-7.5,7.5s3.358,7.5,7.5,7.5
			c10.24,0,18.57-8.331,18.57-18.57v-40.939c0-21.845,5.328-43.648,15.405-63.051l3.532-6.786
			c6.362-12.228,9.725-25.975,9.725-39.757L411.875,210.029z M285.305,260.582c0,11.044-8.984,20.028-20.028,20.028h-0.367
			c-9.821,0-18.124-6.883-19.991-16.442c2.763-6.245,4.311-13.144,4.311-20.401v-12.491c0-4.694-1.793-8.966-4.709-12.207v-58.501
			c0-8.073,6.568-14.641,14.641-14.641h11.502c8.073,0,14.642,6.567,14.642,14.641v99.651V260.582z M341.09,260.582
			c0,11.044-8.985,20.028-20.028,20.028h-0.367c-11.243,0-20.39-9.147-20.39-20.391v-99.651c0-8.073,6.568-14.641,14.641-14.641
			h11.502c8.073,0,14.642,6.567,14.642,14.641v99.651V260.582z"/>
		<path d="M277.246,377.408c-3.684,1.894-5.136,6.415-3.243,10.099c7.615,14.817,11.476,32.354,11.476,52.121
			c0,4.143,3.358,7.5,7.5,7.5s7.5-3.357,7.5-7.5c0-22.176-4.419-42.019-13.134-58.977
			C285.452,376.966,280.93,375.516,277.246,377.408z"/>
	</g>
</g>
<g>
</g>
<g>
</g>
<g>
</g>
<g>
</g>
<g>
</g>
<g>
</g>
<g>
</g>
<g>
</g>
<g>
</g>
<g>
</g>
<g>
</g>
<g>
</g>
<g>
</g>
<g>
</g>
<g>
</g>
</svg>
