<?xml version="1.0" encoding="iso-8859-1"?>
<!-- Generator: Adobe Illustrator 23.0.6, SVG Export Plug-In . SVG Version: 6.00 Build 0)  -->
<svg version="1.1" id="Capa_1" xmlns="http://www.w3.org/2000/svg" xmlns:xlink="http://www.w3.org/1999/xlink" x="0px" y="0px"
	 viewBox="0 0 512 512" style="enable-background:new 0 0 512 512;" xml:space="preserve">
<g>
	<g>
		<g>
			<g>
				<path style="fill:#FFBC8A;" d="M416.8,253.198l-202.444-0.002c-10.462-0.006-20.775-2.517-30.063-7.347l-5.624-2.93
					c-17.009-8.831-35.89-13.452-55.066-13.449l-88.894,0.002c-5.062-0.006-9.164-4.107-9.166-9.174l0.003-148.908
					c-0.002-5.067,4.099-9.169,9.166-9.171l67.499-0.003c16.027-0.001,31.725-3.18,46.248-9.198
					c14.518-6.01,27.869-14.856,39.202-26.189c12.379-12.378,29.159-19.328,46.664-19.33l108.857,0.004
					c5.873,0.001,11.358,1.659,16.011,4.538c8.676,5.367,14.453,14.966,14.451,25.927c-0.003,9.429-4.277,17.854-11.006,23.435
					c-5.279,4.387-12.062,7.023-19.459,7.028l24.523-0.004l73.732,0.002c4.449,0.004,8.607,1.262,12.138,3.446
					c6.579,4.07,10.957,11.349,10.962,19.651c-0.004,12.759-10.346,23.099-23.097,23.1l21.926-0.005
					c4.449,0.004,8.599,1.257,12.13,3.441c6.579,4.07,10.957,11.349,10.957,19.659c0.001,12.751-10.341,23.091-23.092,23.092
					l-21.921-0.003c12.599,0.002,22.849,10.105,23.088,22.647c0.247,12.946-10.666,23.548-23.611,23.547l-23.592-0.002
					c12.599,0.002,22.849,10.105,23.087,22.647C440.658,242.597,429.745,253.198,416.8,253.198z"/>
				<path style="fill:#F5A871;" d="M453,71.533L369.564,253.2h-80.045l84.857-184.774h67.057
					C445.649,68.435,449.59,69.563,453,71.533z"/>
				<path style="fill:#F5A871;" d="M223.304,253.2h-8.946c-10.467-0.009-20.779-2.521-30.064-7.351l-5.628-2.933
					c-14.363-7.461-30.073-11.916-46.168-13.107L59.74,71.377c-1.338-2.933-2.007-6.05-2.016-9.157h44.491
					c10.715,0,21.292-1.421,31.466-4.18L223.304,253.2z"/>
			</g>
			<g>
				<g>
					<g>
						<path style="fill:#ED6264;" d="M272.834,320.269L393.115,58.371c1.495-3.255,4.748-5.34,8.329-5.34h31.643
							c6.682,0,11.118,6.919,8.329,12.991L324.649,320.269H272.834z"/>
						<g>
							<g>
								<path style="fill:#E84649;" d="M441.415,66.024L324.651,320.266h-20.706L420.718,66.024
									c2.786-6.077-1.65-12.997-8.332-12.997h20.697C439.765,53.027,444.201,59.947,441.415,66.024z"/>
							</g>
						</g>
					</g>
					<g>
						<g>
							<g>
								<path style="fill:#ED6264;" d="M239.987,320.269L119.706,58.371c-1.495-3.255-4.748-5.34-8.329-5.34H79.734
									c-6.682,0-11.118,6.919-8.329,12.991l116.767,254.247H239.987z"/>
							</g>
						</g>
						<g>
							<g>
								<path style="fill:#E84649;" d="M239.986,320.266h-20.706L99.007,58.371c-1.494-3.254-4.748-5.344-8.332-5.344h20.706
									c3.575,0,6.828,2.09,8.323,5.344L239.986,320.266z"/>
							</g>
						</g>
					</g>
				</g>
			</g>
		</g>
		<g>
			<g>
				<g>
					<circle style="fill:#FFB54E;" cx="253.029" cy="391.655" r="112.845"/>
					<circle style="fill:#FF9A1B;" cx="253.219" cy="391.655" r="96.167"/>
					<circle style="fill:#FFCE8B;" cx="253.029" cy="391.655" r="83.866"/>
					<path style="fill:#FFB54E;" d="M337.087,391.657c0,46.313-37.553,83.866-83.866,83.866c-2.575,0-5.124-0.117-7.641-0.345
						c42.736-3.856,76.225-39.784,76.225-83.522c0-43.744-33.489-79.665-76.225-83.522c2.517-0.228,5.066-0.345,7.641-0.345
						C299.533,307.791,337.087,345.338,337.087,391.657z"/>
				</g>
				<g>
					<path style="fill:#FFA730;" d="M266.968,413.32v-55.578c0-3.845-1.615-7.577-4.6-10c-4.366-3.544-10.395-3.726-14.904-0.709
						l-20.529,13.74c-2.876,1.925-3.647,5.817-1.722,8.693l6.971,10.415c1.925,2.876,5.817,3.647,8.693,1.722l1.024-0.686v32.401
						h-9.054c-3.461,0-6.267,2.806-6.267,6.267v12.533c0,3.461,2.806,6.267,6.267,6.267h43.176c3.461,0,6.267-2.806,6.267-6.267
						v-12.533c0-3.461-2.806-6.267-6.267-6.267H266.968z"/>
				</g>
			</g>
		</g>
	</g>
	<g>
		<path d="M493.955,137.719c0-15.44-11.496-28.246-26.379-30.307c2.826-4.633,4.455-10.071,4.455-15.884
			c0-13.984-9.435-25.799-22.27-29.435c-0.017-3.101-0.907-6.182-2.645-8.892c-3.079-4.803-8.324-7.67-14.029-7.67h-31.643
			c-6.492,0-12.438,3.812-15.145,9.71l-2.614,5.691h-10.29c4.862-6.381,7.752-14.343,7.752-22.966
			C381.147,17.032,364.115,0,343.181,0H233.998c-19.274,0-38.105,7.855-51.665,21.552c-15.752,15.909-35.548,26.557-57.414,30.95
			c-3.093-4.308-8.123-6.971-13.541-6.971H79.734c-5.706,0-10.951,2.867-14.03,7.671c-0.317,0.494-0.599,1.004-0.859,1.521H34.711
			c-9.189,0-16.666,7.477-16.666,16.666c0,4.143,3.358,7.5,7.5,7.5s7.5-3.357,7.5-7.5c0-0.919,0.748-1.666,1.666-1.666h30.14
			l70.16,152.766c-3.795-0.343-7.605-0.518-11.404-0.518H34.711c-0.918,0-1.666-0.747-1.666-1.666c0-4.143-3.358-7.5-7.5-7.5
			s-7.5,3.357-7.5,7.5c0,9.189,7.477,16.666,16.666,16.666h88.896c6.28,0,12.591,0.541,18.788,1.595l4.821,10.498
			c1.263,2.751,3.979,4.372,6.82,4.372c1.047,0,2.111-0.221,3.125-0.687c3.764-1.729,5.414-6.182,3.685-9.945L78.22,62.891
			c-0.314-0.683-0.113-1.243,0.111-1.593c0.225-0.35,0.65-0.767,1.403-0.767h31.643c0.649,0,1.243,0.381,1.514,0.97l16.372,35.647
			c1.729,3.765,6.179,5.415,9.946,3.686c3.764-1.729,5.414-6.182,3.685-9.945L131.64,66.385
			c23.306-5.413,44.396-17.155,61.352-34.281C203.754,21.234,218.7,15,233.998,15h109.183c12.664,0,22.967,10.303,22.967,22.967
			c0,12.663-10.303,22.966-22.967,22.966h-80.885c-3.694,0-6.841,2.708-7.413,6.357c-0.029,0.185-3.038,18.653-15.963,36.694
			c-16.581,23.146-41.338,35.155-73.603,35.729l-7.754-16.884c-1.729-3.765-6.179-5.416-9.946-3.686
			c-3.764,1.729-5.414,6.182-3.685,9.945l68.548,149.257c-10.209,3.665-19.783,8.67-28.509,14.806l-8.381-18.248
			c-1.729-3.765-6.182-5.415-9.946-3.686c-3.764,1.729-5.414,6.182-3.685,9.945l9.953,21.671
			c-24.091,22.021-39.228,53.685-39.228,88.819c0,66.358,53.986,120.345,120.345,120.345c23.751,0,46.729-6.917,66.451-20.005
			c3.452-2.29,4.393-6.944,2.103-10.396s-6.944-4.396-10.396-2.103C293.931,490.947,273.82,497,253.029,497
			c-58.087,0-105.345-47.258-105.345-105.345c0-58.088,47.257-105.346,105.345-105.346c58.087,0,105.345,47.258,105.345,105.346
			c0,24.088-7.917,46.761-22.896,65.569c-2.58,3.24-2.045,7.958,1.195,10.539c3.241,2.582,7.958,2.045,10.539-1.195
			c17.114-21.49,26.161-47.396,26.161-74.913c0-32.797-13.193-62.566-34.543-84.294l21.432-46.667l56.576,0.001
			c16.679,0,30.614-13.342,31.064-29.741c0.162-5.926-1.343-11.62-4.313-16.562c15.488-1.315,28.003-14.103,28.429-29.63
			c0.164-5.997-1.38-11.759-4.422-16.742C482.471,165.951,493.955,153.151,493.955,137.719z M457.031,91.528
			c0,8.599-6.996,15.595-15.596,15.595h-10.642l14.137-30.781C451.851,77.935,457.031,84.132,457.031,91.528z M401.444,60.531
			h31.643c0.753,0,1.179,0.417,1.402,0.767c0.225,0.35,0.426,0.911,0.112,1.595L327.132,296.894
			c-8.441-6.616-17.786-12.127-27.814-16.321L399.932,61.5C400.201,60.911,400.796,60.531,401.444,60.531z M251.509,112.165
			c10.023-14.185,14.763-28.328,16.816-36.232h108.472l-14.325,31.19h-77.134c-4.143,0-7.5,3.357-7.5,7.5s3.357,7.5,7.5,7.5h70.245
			l-14.325,31.19h-55.92c-4.143,0-7.5,3.357-7.5,7.5s3.357,7.5,7.5,7.5h49.031l-14.325,31.19h-34.707c-4.143,0-7.5,3.357-7.5,7.5
			s3.357,7.5,7.5,7.5h27.818l-14.325,31.19h-84.469c-0.123,0-0.242,0.012-0.363,0.018l-41.915-91.266
			C214.673,151.725,238.681,130.318,251.509,112.165z M227.055,274.141l-6.176-13.447h71.063l-6.868,14.954
			c-10.207-2.823-20.951-4.339-32.044-4.339C244.113,271.31,235.423,272.293,227.055,274.141z M416.839,245.695l-49.687-0.001
			l14.325-31.191h35.842c4.246,0,8.217,1.677,11.179,4.722c2.961,3.043,4.527,7.063,4.411,11.317
			C432.68,238.898,425.471,245.695,416.839,245.695z M440.955,199.504h-52.589l14.325-31.19h38.745
			c4.247,0,8.217,1.677,11.179,4.722c2.961,3.043,4.527,7.062,4.411,11.317C456.796,192.707,449.587,199.504,440.955,199.504z
			 M463.359,153.313h-53.78l14.325-31.19h39.455c8.6,0,15.596,6.996,15.596,15.596C478.955,146.317,471.959,153.313,463.359,153.313
			z"/>
		<path d="M253.219,300.289c-50.379,0-91.366,40.986-91.366,91.366c0,50.379,40.986,91.365,91.366,91.365
			c50.379,0,91.365-40.986,91.365-91.365C344.584,341.275,303.598,300.289,253.219,300.289z M253.219,468.021
			c-42.108,0-76.366-34.257-76.366-76.365s34.257-76.366,76.366-76.366s76.365,34.258,76.365,76.366
			S295.327,468.021,253.219,468.021z"/>
		<path d="M276.022,405.82h-1.555v-48.078c0-6.252-2.688-12.02-7.373-15.823c-6.887-5.592-16.453-6.04-23.804-1.118l-20.528,13.74
			c-3.056,2.045-5.133,5.158-5.847,8.766s0.019,7.276,2.064,10.332l6.971,10.415c2.047,3.058,5.114,5.032,8.451,5.774v15.992h-1.555
			c-7.591,0-13.767,6.176-13.767,13.767v12.533c0,7.591,6.176,13.767,13.767,13.767h43.176c7.591,0,13.767-6.176,13.767-13.767
			v-12.533C289.789,411.996,283.613,405.82,276.022,405.82z M274.789,430.887H234.08V420.82h7.821c4.142,0,7.5-3.357,7.5-7.5
			v-32.401c0-2.769-1.525-5.312-3.967-6.615s-5.403-1.156-7.704,0.382l-5.6-8.365l19.503-13.054
			c1.849-1.237,4.263-1.118,6.006,0.297c1.145,0.93,1.828,2.491,1.828,4.179v55.578c0,4.143,3.357,7.5,7.5,7.5h7.821V430.887z"/>
	</g>
</g>
<g>
</g>
<g>
</g>
<g>
</g>
<g>
</g>
<g>
</g>
<g>
</g>
<g>
</g>
<g>
</g>
<g>
</g>
<g>
</g>
<g>
</g>
<g>
</g>
<g>
</g>
<g>
</g>
<g>
</g>
</svg>
