<?xml version="1.0" encoding="iso-8859-1"?>
<!-- Generator: Adobe Illustrator 23.0.6, SVG Export Plug-In . SVG Version: 6.00 Build 0)  -->
<svg version="1.1" id="Capa_1" xmlns="http://www.w3.org/2000/svg" xmlns:xlink="http://www.w3.org/1999/xlink" x="0px" y="0px"
	 viewBox="0 0 511.981 511.981" style="enable-background:new 0 0 511.981 511.981;" xml:space="preserve">
<g>
	<g>
		<path style="fill:#FFB54E;" d="M226.662,425.958l-28.415-28.415l258.405-258.405c3.626-3.626,9.505-3.626,13.131,0l15.284,15.284
			c3.626,3.626,3.626,9.505,0,13.131L226.662,425.958z"/>
		<path style="fill:#FF9A1B;" d="M485.067,167.549l-258.41,258.41l-14.044-14.044l258.41-258.41c3.624-3.624,3.624-9.507,0-13.131
			l14.044,14.044C488.698,158.048,488.691,163.924,485.067,167.549z"/>
		<g>
			<g>
				<g>
					<path style="fill:#FDD1A7;" d="M145.462,471.279l-59.824-59.824c-6.138-6.138-10.706-13.668-13.315-21.95l-1.588-5.014
						c-4.791-15.163-13.167-28.96-24.411-40.214l-19.889-19.889c-2.971-2.971-2.971-7.781,0-10.752l87.373-87.383
						c2.971-2.971,7.79-2.971,10.762,0l6.314,6.323c19.1,19.1,44.894,30.409,71.895,30.39c7.28-0.009,14.401,1.43,20.994,4.16
						c6.583,2.73,12.637,6.741,17.781,11.876l36.983,36.983c5.942,5.943,5.933,15.581,0,21.514l-25.005,25.005l9.192,9.192
						l19.926,19.917c5.933,5.943,5.933,15.571,0,21.514l-5.599,5.59c-5.942,5.942-15.571,5.942-21.514,0l-20.223-20.223
						l-8.533-8.533L145.462,471.279z"/>
				</g>
				<path style="fill:#FFBC8A;" d="M126.404,452.221l-40.762-40.762c-6.141-6.141-10.708-13.672-13.322-21.95l-1.584-5.014
					c-4.79-15.168-13.166-28.966-24.414-40.213l-19.89-19.89c-2.969-2.969-2.973-7.783,0-10.757l34.816-34.816l31.517,31.517
					c47.039,47.039,95.862,11.082,95.862,11.082l34.291,34.291L126.404,452.221z"/>
				<path style="fill:#F5A871;" d="M126.404,452.221l-40.762-40.762c-6.141-6.141-10.708-13.672-13.322-21.95l-1.584-5.014
					c-4.79-15.168-13.166-28.966-24.414-40.213l-19.89-19.89c-2.969-2.969-2.973-7.783,0-10.757l9.012-9.012
					c-2.973,2.973-2.969,7.788,0,10.757l19.89,19.89c11.247,11.247,19.618,25.05,24.409,40.218l1.589,5.009
					c2.614,8.279,7.181,15.809,13.322,21.95l40.762,40.762L126.404,452.221z"/>
				<g>
					<g>
						<path style="fill:#FDD1A7;" d="M255.531,418.728l-48.415-48.415c-7.484-7.484-19.617-7.484-27.101,0l-0.178,0.178
							c-7.386,7.386-7.386,19.362,0,26.749l48.591,48.591c5.941,5.941,15.574,5.941,21.515,0l5.588-5.588
							C261.472,434.301,261.472,424.669,255.531,418.728z"/>
						<path style="fill:#FFBC8A;" d="M228.425,445.833l-48.589-48.589c-7.39-7.39-7.385-19.366,0-26.751l0.18-0.18
							c1.598-1.598,3.415-2.862,5.349-3.775c-3.304,7.016-2.06,15.634,3.741,21.435l48.589,48.589
							c5.315,5.315,13.579,5.874,19.512,1.681c-0.491,0.704-1.049,1.37-1.676,1.997l-5.587,5.587
							C244.002,451.77,234.367,451.775,228.425,445.833z"/>
						<path style="fill:#FDD1A7;" d="M228.428,445.831l-48.415-48.415c-7.484-7.484-19.617-7.484-27.101,0l-0.178,0.178
							c-7.386,7.387-7.386,19.362,0,26.749l48.591,48.591c5.941,5.941,15.574,5.941,21.515,0l5.588-5.588
							C234.369,461.404,234.369,451.772,228.428,445.831z"/>
						<path style="fill:#FFBC8A;" d="M201.325,472.933l-48.589-48.589c-7.39-7.39-7.39-19.361,0-26.751l0.175-0.175
							c1.603-1.603,3.415-2.862,5.349-3.775c-3.299,7.011-2.05,15.634,3.746,21.431l48.589,48.589
							c5.315,5.315,13.579,5.874,19.512,1.681c-0.491,0.704-1.054,1.375-1.681,2.002l-5.587,5.587
							C216.896,478.875,207.267,478.875,201.325,472.933z"/>
						<path style="fill:#FDD1A7;" d="M201.325,472.935l-48.416-48.416c-7.484-7.484-19.617-7.484-27.101,0l-0.178,0.178
							c-7.386,7.387-7.386,19.362,0,26.749l48.591,48.591c5.941,5.941,15.574,5.941,21.515,0l5.589-5.589
							C207.266,488.507,207.266,478.875,201.325,472.935z"/>
						<path style="fill:#FFBC8A;" d="M174.22,500.038l-48.589-48.589c-7.39-7.39-7.385-19.366,0-26.751l0.18-0.18
							c1.598-1.598,3.415-2.862,5.349-3.775c-3.304,7.016-2.055,15.639,3.741,21.436l48.589,48.589
							c5.315,5.315,13.575,5.879,19.512,1.681c-0.491,0.704-1.049,1.37-1.676,1.997l-5.592,5.592
							C189.796,505.976,180.162,505.98,174.22,500.038z"/>
					</g>
				</g>
				<path style="fill:#FFBC8A;" d="M255.529,418.725l-32.396-32.396l9.267-9.267l32.405,32.396
					c5.311,5.311,13.575,5.878,19.508,1.681c-0.492,0.706-1.049,1.374-1.681,1.996l-5.58,5.59
					C271.109,424.667,261.471,424.667,255.529,418.725z"/>
				<path style="fill:#FFBC8A;" d="M253.533,362.503l9.192,9.192l-24.16,24.16c-1.012,1.012-2.098,1.894-3.25,2.637l-8.533-8.533
					L253.533,362.503z"/>
				<path style="fill:#FDD1A7;" d="M256.247,359.787l-26.873,26.873c-2.894,2.894-7.587,2.894-10.482,0l-6.069-6.069
					c-11.564-11.564-11.564-30.314,0-41.878l11.175-11.175L256.247,359.787z"/>
			</g>
		</g>
		<path style="fill:#ED6264;" d="M175.467,139.198l171.814,171.814c3.626,3.626,9.505,3.626,13.131,0l115.847-115.847
			c3.626-3.626,3.626-9.505,0-13.131L304.445,10.22c-5.194-5.194-14.077-2.586-15.639,4.591l-19.434,89.314l-89.314,19.434
			C172.881,125.121,170.273,134.004,175.467,139.198z"/>
		<path style="fill:#E84649;" d="M476.256,195.163L360.412,311.007c-3.631,3.631-9.5,3.631-13.131,0l-15.528-15.528
			c3.624,3.624,9.5,3.631,13.131,0l115.844-115.844c3.624-3.624,3.624-9.507,0-13.131l15.528,15.528
			C479.886,185.663,479.88,191.539,476.256,195.163z"/>
		<g>
			<path style="fill:#65BAFC;" d="M332.732,201.826l48.331-48.331c3.48-3.48,5.396-8.319,4.887-13.214
				c-0.744-7.158-6.035-12.78-12.848-14.13l-31.015-6.144c-4.345-0.861-8.566,1.964-9.426,6.309l-3.117,15.736
				c-0.861,4.345,1.964,8.566,6.309,9.426l1.548,0.307l-27.355,27.355l-8.195-8.195c-3.132-3.132-8.211-3.132-11.343,0
				l-11.343,11.343c-3.132,3.132-3.132,8.211,0,11.343l37.106,37.106c3.132,3.132,8.211,3.132,11.343,0l11.343-11.343
				c3.132-3.132,3.132-8.211,0-11.343L332.732,201.826z"/>
		</g>
	</g>
	<g>
		<path d="M490.37,149.119l-15.284-15.285c-6.544-6.545-17.192-6.543-23.738,0l-6.341,6.341l-60.333-60.333
			c-2.93-2.928-7.678-2.928-10.607,0c-2.929,2.93-2.929,7.678,0,10.607l96.889,96.889c0.696,0.695,0.696,1.828,0,2.523
			l-71.601,71.601c-2.929,2.93-2.929,7.678,0,10.607c1.465,1.464,3.385,2.196,5.304,2.196s3.839-0.732,5.304-2.196l71.601-71.601
			c3.17-3.171,4.916-7.386,4.916-11.869c0-3.296-0.951-6.443-2.711-9.141l6.602-6.602
			C496.914,166.311,496.914,155.663,490.37,149.119z M461.955,144.441c0.696-0.699,1.83-0.696,2.524-0.001l15.283,15.285
			c0.696,0.695,0.696,1.828,0,2.523l-6.341,6.341l-17.808-17.808L461.955,144.441z"/>
		<path d="M374.326,286.491l-19.217,19.218c-0.697,0.693-1.83,0.695-2.525,0L180.771,133.894c-0.619-0.619-0.587-1.302-0.451-1.766
			c0.136-0.463,0.478-1.055,1.333-1.241l89.314-19.435c2.869-0.624,5.109-2.864,5.733-5.733l19.434-89.313
			c0.187-0.856,0.778-1.198,1.242-1.335c0.465-0.135,1.146-0.169,1.765,0.451l49.898,49.898c2.93,2.928,7.678,2.928,10.607,0
			c2.929-2.93,2.929-7.678,0-10.607L309.748,4.916c-4.343-4.343-10.703-5.964-16.597-4.236c-5.895,1.73-10.367,6.534-11.674,12.537
			l-18.409,84.604l-84.605,18.41c-6.002,1.306-10.806,5.778-12.536,11.672c-1.73,5.895-0.107,12.255,4.236,16.599l135.259,135.259
			l-26.252,26.251L246.857,273.7c-5.798-5.797-12.596-10.34-20.216-13.506c-7.589-3.138-15.592-4.729-23.783-4.729
			c-0.051-0.001-0.097-0.001-0.148,0c-24.356,0-48.601-10.274-66.519-28.192l-6.321-6.322c-5.891-5.889-15.473-5.889-21.363,0
			c-2.929,2.93-2.929,7.678,0,10.607c2.93,2.928,7.678,2.928,10.607,0c0.04-0.042,0.107-0.043,0.149-0.001l6.32,6.322
			c20.712,20.712,48.819,32.586,77.131,32.586c0.048,0,0.094,0,0.138,0c6.22,0,12.296,1.208,18.046,3.585
			c5.785,2.404,10.95,5.854,15.352,10.257l36.982,36.982c1.456,1.456,2.258,3.393,2.258,5.453s-0.802,3.997-2.258,5.452
			l-25.002,25.002c-0.034,0.034-0.063,0.072-0.096,0.106c-0.037,0.036-0.077,0.066-0.114,0.103l-23.888,23.889l-6.007-6.008
			c-4.176-4.176-6.476-9.729-6.476-15.635s2.3-11.46,6.477-15.636l11.175-11.175c2.929-2.93,2.929-7.678,0-10.607
			c-2.93-2.928-7.678-2.928-10.607,0l-9.321,9.321l-15.442-15.442c-2.61-2.608-6.748-2.919-9.732-0.749
			c-1.793,1.304-44.372,31.424-86.129-10.336c-2.93-2.928-7.678-2.928-10.607,0c-2.929,2.93-2.929,7.678,0,10.607
			c26.571,26.569,53.9,28.406,72.146,25.271c12.345-2.122,22.189-6.74,27.929-9.974l12.721,12.722
			c-2.046,4.277-3.249,8.933-3.534,13.766c-7.909-0.928-16.091,1.669-21.998,7.575l-0.193,0.191
			c-5.266,5.267-7.833,12.222-7.713,19.139c-6.949-0.091-13.929,2.505-19.225,7.801l-0.164,0.164
			c-5.266,5.266-7.832,12.22-7.713,19.136c-6.945-0.094-13.916,2.495-19.197,7.775l-0.193,0.191
			c-2.841,2.841-4.952,6.217-6.246,9.899l-23.136-23.136c-5.263-5.263-9.23-11.799-11.474-18.906l-1.584-5.013
			c-5.132-16.251-14.213-31.209-26.262-43.259l-19.89-19.89c-0.035-0.035-0.036-0.113-0.001-0.149
			c2.929-2.928,2.93-7.677,0.001-10.606c-2.927-2.929-7.676-2.93-10.606-0.001c-2.854,2.853-4.426,6.646-4.426,10.682
			s1.572,7.829,4.425,10.683l19.89,19.89c10.354,10.353,18.156,23.205,22.566,37.17l1.583,5.012
			c2.965,9.394,8.211,18.037,15.171,24.996l88.58,88.578c4.429,4.428,10.243,6.642,16.061,6.641c5.815,0,11.633-2.214,16.062-6.641
			l5.589-5.59c4.139-4.14,6.318-9.494,6.587-14.926c5.432-0.27,10.787-2.449,14.926-6.588l5.59-5.589
			c4.139-4.14,6.318-9.494,6.587-14.927c5.432-0.269,10.787-2.448,14.928-6.588l5.588-5.588c4.142-4.143,6.321-9.501,6.588-14.937
			c5.435-0.267,10.794-2.446,14.936-6.587l5.592-5.592c8.854-8.855,8.854-23.265-0.001-32.121l-5.516-5.516l62.272-62.272
			c2.769,1.799,5.953,2.703,9.141,2.702c4.298,0,8.597-1.636,11.869-4.907l19.218-19.219c2.929-2.929,2.929-7.678-0.001-10.606
			C382.004,283.561,377.255,283.562,374.326,286.491z M223.125,462.042l-5.59,5.588c-3.008,3.008-7.903,3.006-10.907,0l-7.87-7.87
			c-2.93-2.928-7.678-2.928-10.607,0c-2.929,2.93-2.929,7.678,0,10.607l7.87,7.87l0.001,0.001c3.007,3.007,3.007,7.899,0,10.906
			l-5.588,5.589c-3.007,3.007-7.901,3.009-10.908,0l-48.593-48.592c-2.155-2.155-3.343-5.021-3.343-8.07s1.188-5.916,3.329-8.058
			l0.193-0.191c4.548-4.55,11.947-4.546,16.493,0l15.516,15.516c2.93,2.928,7.678,2.928,10.607,0c2.929-2.93,2.929-7.678,0-10.607
			l-15.691-15.691c-4.451-4.45-4.451-11.691,0.014-16.156l0.163-0.164c4.549-4.547,11.949-4.547,16.494,0l48.416,48.416
			c0.001,0.001,0.003,0.003,0.005,0.004C226.131,454.147,226.129,459.037,223.125,462.042z M250.227,434.939l-5.587,5.588
			c-3.007,3.007-7.901,3.009-10.908,0l-48.416-48.416l-0.176-0.176c-4.451-4.45-4.451-11.691-0.015-16.128l0.193-0.191
			c3.751-3.752,9.583-4.469,14.109-1.83c1.842,4.474,4.568,8.583,8.092,12.107l6.068,6.07c2.469,2.468,5.596,3.877,8.821,4.25
			l27.818,27.818C253.234,427.038,253.234,431.932,250.227,434.939z M277.343,407.822l-5.591,5.592
			c-3.009,3.008-7.902,3.007-10.907,0l-23.809-23.809l16.498-16.498l23.809,23.808C280.35,399.923,280.35,404.815,277.343,407.822z
			 M264.141,362.501l19.699-19.698c6.757-6.757,8.34-16.743,4.785-25.032l27.404-27.403l17.808,17.808l-62.01,62.01L264.141,362.501
			z"/>
		<path d="M374.561,118.794l-31.016-6.145c-8.397-1.66-16.576,3.814-18.241,12.21l-3.117,15.736
			c-0.805,4.066,0.021,8.203,2.327,11.648c0.243,0.363,0.5,0.715,0.77,1.053l-15.237,15.237l-2.892-2.893
			c-6.053-6.051-15.897-6.051-21.95,0.001l-11.342,11.343c-2.932,2.931-4.547,6.829-4.547,10.976c0,4.146,1.615,8.044,4.546,10.975
			l37.106,37.106c3.026,3.025,6.999,4.538,10.975,4.537c3.974,0,7.949-1.513,10.976-4.538l11.342-11.343
			c2.932-2.931,4.547-6.829,4.547-10.975s-1.614-8.043-4.546-10.975l-0.922-0.923l43.028-43.027
			c5.209-5.209,7.775-12.241,7.043-19.292C392.334,129.139,384.759,120.814,374.561,118.794z M375.76,148.191l-48.331,48.331
			c-2.929,2.929-2.929,7.678,0,10.606l6.225,6.227c0.038,0.037,0.153,0.152,0.153,0.368c0,0.215-0.114,0.329-0.153,0.368
			l-11.342,11.343c-0.203,0.202-0.535,0.204-0.736,0l-37.107-37.106c-0.038-0.038-0.152-0.152-0.152-0.367
			c0-0.216,0.114-0.33,0.153-0.369l11.342-11.343c0.102-0.102,0.235-0.152,0.369-0.152s0.268,0.051,0.368,0.151l8.194,8.195
			c1.406,1.407,3.314,2.197,5.304,2.197s3.896-0.79,5.304-2.196l27.355-27.355c1.957-1.958,2.677-4.835,1.872-7.483
			c-0.805-2.649-3.003-4.64-5.719-5.178l-1.548-0.307c-0.053-0.01-0.212-0.042-0.331-0.221c-0.12-0.179-0.089-0.339-0.078-0.391
			l3.116-15.735c0.057-0.281,0.337-0.467,0.612-0.41l31.016,6.145c3.701,0.733,6.452,3.766,6.845,7.548
			C378.75,143.556,377.73,146.223,375.76,148.191z"/>
	</g>
</g>
<g>
</g>
<g>
</g>
<g>
</g>
<g>
</g>
<g>
</g>
<g>
</g>
<g>
</g>
<g>
</g>
<g>
</g>
<g>
</g>
<g>
</g>
<g>
</g>
<g>
</g>
<g>
</g>
<g>
</g>
</svg>
