<?xml version="1.0" encoding="iso-8859-1"?>
<!-- Generator: Adobe Illustrator 23.0.6, SVG Export Plug-In . SVG Version: 6.00 Build 0)  -->
<svg version="1.1" id="Capa_1" xmlns="http://www.w3.org/2000/svg" xmlns:xlink="http://www.w3.org/1999/xlink" x="0px" y="0px"
	 viewBox="0 0 511.999 511.999" style="enable-background:new 0 0 511.999 511.999;" xml:space="preserve">
<g>
	<g>
		<g>
			<g>
				<path style="fill:#FFCE8B;" d="M327.743,424.254l-30.325,29.55l7.158,41.735c1.071,6.251-5.486,11.012-11.104,8.066L256,483.904
					l-37.472,19.7c-5.618,2.947-12.175-1.815-11.104-8.066l3.875-22.596l3.283-19.139l-30.325-29.55
					c-4.538-4.425-2.029-12.144,4.242-13.052l41.898-6.087l18.741-37.972c2.804-5.69,10.921-5.69,13.725,0l18.741,37.972
					l13.959,2.029l27.939,4.058C329.772,412.11,332.28,419.829,327.743,424.254z"/>
				<path style="fill:#FFB54E;" d="M327.743,424.254l-30.325,29.55l7.158,41.735c1.071,6.251-5.486,11.012-11.104,8.066L256,483.904
					l-37.472,19.7c-5.618,2.947-12.175-1.815-11.104-8.066l3.875-22.596c58.151-10.615,77.79-42.54,84.265-65.799l27.939,4.058
					C329.772,412.11,332.28,419.829,327.743,424.254z"/>
			</g>
		</g>
		<path style="fill:#F37D7E;" d="M380.806,17.697v211.498c0,3.243-1.543,6.293-4.156,8.215L256,326.123l-120.65-88.713
			c-2.613-1.921-4.156-4.971-4.156-8.215V17.697c0-5.631,4.565-10.197,10.197-10.197h229.219
			C376.24,7.5,380.806,12.065,380.806,17.697z"/>
		<path style="fill:#ED6264;" d="M355.233,253.146c2.62-1.927,4.16-4.976,4.16-8.218V17.697c0-5.629-4.568-10.197-10.197-10.197
			h21.413c5.628,0,10.197,4.568,10.197,10.197v211.497c0,3.243-1.54,6.291-4.16,8.219L355.233,253.146z"/>
		<polygon style="fill:#FFF5F5;" points="330.955,7.5 330.955,271.01 256,326.123 181.045,271.01 181.045,7.5 		"/>
		<polygon style="fill:#65BAFC;" points="285.172,7.5 285.172,304.669 256,326.123 226.827,304.669 226.827,7.5 		"/>
	</g>
	<path d="M380.804,81.802c4.143,0,7.5-3.358,7.5-7.5V17.696C388.304,7.938,380.366,0,370.608,0h-96.911c-4.143,0-7.5,3.358-7.5,7.5
		s3.357,7.5,7.5,7.5h3.976v285.877l-19.881,14.619c-0.575-0.141-1.173-0.224-1.792-0.224s-1.217,0.083-1.792,0.224l-19.88-14.618
		v-56.181c0-4.142-3.357-7.5-7.5-7.5s-7.5,3.358-7.5,7.5v45.151l-30.783-22.635V15h30.783v194.302c0,4.142,3.357,7.5,7.5,7.5
		s7.5-3.358,7.5-7.5V15h3.975c4.143,0,7.5-3.358,7.5-7.5s-3.357-7.5-7.5-7.5h-96.911c-9.758,0-17.696,7.938-17.696,17.696v211.498
		c0,5.606,2.696,10.937,7.213,14.257L248.5,329.917v27.44c-2.575,1.464-4.711,3.68-6.088,6.469l-16.992,34.432l-37.999,5.521
		c-5.749,0.835-10.436,4.787-12.23,10.312c-1.796,5.525-0.326,11.478,3.834,15.533l27.495,26.801l-6.49,37.844
		c-0.982,5.727,1.327,11.405,6.027,14.82c2.656,1.93,5.763,2.91,8.892,2.91c2.408,0,4.829-0.581,7.065-1.756L256,492.375
		l33.986,17.868c5.144,2.703,11.258,2.261,15.957-1.153c4.7-3.415,7.01-9.094,6.027-14.82l-6.49-37.844l27.495-26.801
		c4.16-4.055,5.63-10.007,3.834-15.533c-1.795-5.525-6.481-9.477-12.231-10.312l-37.998-5.521l-16.992-34.432v0
		c-1.377-2.789-3.513-5.004-6.088-6.468v-27.44l117.591-86.466c4.518-3.321,7.214-8.651,7.214-14.257V109.697
		c0-4.142-3.357-7.5-7.5-7.5s-7.5,3.358-7.5,7.5v119.497c0,0.854-0.411,1.667-1.1,2.172l-33.75,24.817V15h32.153
		c1.486,0,2.696,1.209,2.696,2.696v56.606C373.304,78.444,376.662,81.802,380.804,81.802z M138.695,229.194V17.696
		c0-1.487,1.21-2.696,2.696-2.696h32.153v241.184l-33.751-24.817C139.106,230.861,138.695,230.049,138.695,229.194z
		 M274.874,408.432c1.093,2.213,3.204,3.748,5.647,4.103l41.974,6.099c0.036,0.035,0.072,0.147,0.01,0.249l-30.318,29.554
		c-1.768,1.723-2.574,4.206-2.156,6.639l7.17,41.804c-0.021,0.045-0.11,0.115-0.233,0.086l-37.477-19.702
		c-2.186-1.148-4.795-1.148-6.98,0L214.967,497c-0.05-0.007-0.146-0.076-0.155-0.195l7.157-41.73
		c0.418-2.433-0.389-4.916-2.156-6.639l-30.372-29.606c-0.009-0.049,0.027-0.161,0.137-0.207l41.9-6.088
		c2.443-0.355,4.555-1.889,5.647-4.103l18.771-38.034c0.025-0.014,0.075-0.02,0.119-0.02c0.032,0,0.062,0.003,0.074,0.009
		c0,0,0.019,0.02,0.047,0.078L274.874,408.432z M323.455,267.213l-30.782,22.634V15h30.782V267.213z"/>
</g>
<g>
</g>
<g>
</g>
<g>
</g>
<g>
</g>
<g>
</g>
<g>
</g>
<g>
</g>
<g>
</g>
<g>
</g>
<g>
</g>
<g>
</g>
<g>
</g>
<g>
</g>
<g>
</g>
<g>
</g>
</svg>
