<?xml version="1.0" encoding="iso-8859-1"?>
<!-- Generator: Adobe Illustrator 23.0.6, SVG Export Plug-In . SVG Version: 6.00 Build 0)  -->
<svg version="1.1" id="Capa_1" xmlns="http://www.w3.org/2000/svg" xmlns:xlink="http://www.w3.org/1999/xlink" x="0px" y="0px"
	 viewBox="0 0 512 512" style="enable-background:new 0 0 512 512;" xml:space="preserve">
<g>
	<g>
		<g>
			<g>
				<g>
					<g>
						<g>
							<g>
								<path style="fill:#8EC737;" d="M336.944,245.353c-5.356-0.331-9.635-9.159-12.214-20.646
									c-2.171-9.695-3.141-21.279-2.527-31.274c1.349-21.845,9.744-27.765,19.621-27.159c9.593,0.594,17.049,7.145,16.222,27.572
									c-0.016,0.586-0.051,1.179-0.089,1.792C356.606,217.471,346.821,245.959,336.944,245.353z"/>
								<path style="fill:#83B832;" d="M336.944,245.353c-5.356-0.331-9.635-9.159-12.214-20.646
									c1.981-3.157,4.548-6.445,7.689-9.85c6.994-7.594,16.341-15.227,25.628-21.01c-0.016,0.586-0.051,1.179-0.089,1.792
									C356.606,217.471,346.821,245.959,336.944,245.353z"/>
								<path style="fill:#BDEB73;" d="M368.105,201.996c-19.066,10.729-40.441,31.958-35.591,40.579s34.091,1.368,53.157-9.361
									c19.066-10.729,20.739-20.871,15.888-29.492C396.709,195.101,387.171,191.267,368.105,201.996z"/>
								<path style="fill:#9AD63B;" d="M385.671,233.216c-19.066,10.723-48.302,17.98-53.159,9.357
									c-1.135-2.004-0.835-4.694,0.519-7.778c11.165,1.065,31.136-5.018,45.406-13.046c15.032-8.463,19.251-16.552,17.987-23.823
									c2.131,1.437,3.813,3.437,5.139,5.794C406.408,212.345,404.736,222.481,385.671,233.216z"/>
							</g>
						</g>
						<g>
							<g>
								<path style="fill:#8EC737;" d="M175.056,245.352c5.356-0.331,9.635-9.159,12.214-20.646
									c2.171-9.695,3.141-21.279,2.527-31.274c-1.349-21.845-9.744-27.765-19.621-27.159c-9.593,0.594-17.049,7.145-16.222,27.572
									c0.016,0.586,0.051,1.179,0.089,1.792C155.394,217.471,165.179,245.958,175.056,245.352z"/>
								<path style="fill:#83B832;" d="M189.797,193.433c0.614,9.994-0.356,21.578-2.527,31.274
									c-2.58,11.486-6.858,20.315-12.214,20.646c-1.453,0.088-2.919-0.458-4.339-1.518c1.761-3.537,3.245-8.119,4.392-13.223
									c2.171-9.695,3.141-21.279,2.527-31.274c-1.325-21.492-9.479-27.569-19.14-27.178c2.934-3.932,7.066-5.601,11.68-5.886
									C180.053,165.669,188.448,171.589,189.797,193.433z"/>
								<path style="fill:#83B832;" d="M175.056,245.352c5.356-0.331,9.635-9.159,12.214-20.646
									c-1.981-3.157-4.548-6.445-7.689-9.85c-6.994-7.594-16.341-15.227-25.628-21.01c0.016,0.586,0.051,1.179,0.089,1.792
									C155.394,217.471,165.179,245.958,175.056,245.352z"/>
								<path style="fill:#BDEB73;" d="M143.895,201.996c19.066,10.729,40.441,31.958,35.591,40.579
									c-4.851,8.62-34.091,1.368-53.157-9.361c-19.066-10.729-20.739-20.871-15.888-29.492
									C115.291,195.101,124.829,191.267,143.895,201.996z"/>
								<path style="fill:#9AD63B;" d="M179.488,242.572c-1.223,2.169-3.989,3.336-7.754,3.689
									c-4.129-10.179-20.411-24.946-35.285-33.315c-13.561-7.627-22.291-7.892-27.95-4.309c0.369-1.69,1.042-3.329,1.937-4.918
									c4.851-8.618,14.395-12.452,33.454-1.724C162.963,212.726,184.339,233.954,179.488,242.572z"/>
							</g>
						</g>
					</g>
					<g>
						<g>
							<g>
								<path style="fill:#8EC737;" d="M336.944,266.647c-5.356,0.331-9.635,9.159-12.214,20.646
									c-2.171,9.695-3.141,21.279-2.527,31.274c1.349,21.845,9.744,27.765,19.621,27.159c9.593-0.594,17.049-7.145,16.222-27.572
									c-0.016-0.586-0.051-1.179-0.089-1.792C356.606,294.529,346.821,266.041,336.944,266.647z"/>
								<path style="fill:#83B832;" d="M336.944,266.647c-5.356,0.331-9.635,9.159-12.214,20.646
									c1.981,3.157,4.548,6.445,7.689,9.85c6.994,7.594,16.341,15.227,25.628,21.01c-0.016-0.586-0.051-1.179-0.089-1.792
									C356.606,294.529,346.821,266.041,336.944,266.647z"/>
								<path style="fill:#BDEB73;" d="M368.105,310.004c-19.066-10.729-40.441-31.958-35.591-40.579
									c4.851-8.62,34.091-1.368,53.157,9.361c19.066,10.729,20.739,20.871,15.888,29.492S387.171,320.733,368.105,310.004z"/>
								<path style="fill:#9AD63B;" d="M385.671,278.784c-19.066-10.723-48.302-17.98-53.159-9.357
									c-1.135,2.004-0.835,4.694,0.519,7.778c11.165-1.065,31.136,5.018,45.406,13.046c15.032,8.463,19.251,16.552,17.987,23.823
									c2.131-1.437,3.813-3.437,5.139-5.794C406.408,299.655,404.736,289.519,385.671,278.784z"/>
							</g>
						</g>
						<g>
							<g>
								<path style="fill:#8EC737;" d="M175.056,266.648c5.356,0.331,9.635,9.159,12.214,20.646
									c2.171,9.695,3.141,21.279,2.527,31.274c-1.349,21.845-9.744,27.765-19.621,27.159c-9.593-0.594-17.049-7.145-16.222-27.572
									c0.016-0.586,0.051-1.179,0.089-1.792C155.394,294.529,165.179,266.042,175.056,266.648z"/>
								<path style="fill:#83B832;" d="M189.797,318.567c0.614-9.994-0.356-21.578-2.527-31.274
									c-2.58-11.486-6.858-20.315-12.214-20.646c-1.453-0.088-2.919,0.458-4.339,1.518c1.761,3.537,3.245,8.119,4.392,13.223
									c2.171,9.695,3.141,21.279,2.527,31.274c-1.325,21.492-9.479,27.569-19.14,27.178c2.934,3.932,7.066,5.601,11.68,5.886
									C180.053,346.332,188.448,340.411,189.797,318.567z"/>
								<path style="fill:#83B832;" d="M175.056,266.648c5.356,0.331,9.635,9.159,12.214,20.646
									c-1.981,3.157-4.548,6.445-7.689,9.85c-6.994,7.594-16.341,15.227-25.628,21.01c0.016-0.586,0.051-1.179,0.089-1.792
									C155.394,294.529,165.179,266.042,175.056,266.648z"/>
								<path style="fill:#BDEB73;" d="M143.895,310.004c19.066-10.729,40.441-31.958,35.591-40.579s-34.091-1.368-53.157,9.361
									c-19.066,10.729-20.739,20.871-15.888,29.492S124.829,320.733,143.895,310.004z"/>
								<path style="fill:#9AD63B;" d="M179.488,269.428c-1.223-2.169-3.989-3.336-7.754-3.689
									c-4.129,10.179-20.411,24.946-35.285,33.315c-13.561,7.627-22.291,7.892-27.95,4.309c0.369,1.69,1.042,3.329,1.937,4.918
									c4.851,8.618,14.395,12.452,33.454,1.724C162.963,299.274,184.339,278.046,179.488,269.428z"/>
							</g>
						</g>
					</g>
				</g>
				<g>
					<g>
						<g>
							<circle style="fill:#FFCE8B;" cx="256" cy="256" r="94.665"/>
							<circle style="fill:#FFB54E;" cx="256" cy="256" r="81.378"/>
							<circle style="fill:#ED6264;" cx="256" cy="256" r="67.901"/>
							<path style="fill:#E84649;" d="M323.898,256c0,37.504-30.393,67.898-67.898,67.898c-2.783,0-5.528-0.168-8.22-0.497
								c33.628-4.052,59.678-32.68,59.678-67.401s-26.05-63.348-59.678-67.401c2.691-0.329,5.436-0.497,8.22-0.497
								C293.504,188.102,323.898,218.496,323.898,256z"/>
						</g>
					</g>
				</g>
			</g>
		</g>
		<g>
			<g>
				<g>
					<path style="fill:#FFB54E;" d="M64.758,256C64.758,150.38,150.38,64.758,256,64.758V37.417
						C135.28,37.417,37.417,135.28,37.417,256H64.758z"/>
				</g>
			</g>
			<g>
				<g>
					<path style="fill:#ED6264;" d="M256,113.885L256,113.885c-8.27,0-14.975-6.704-14.975-14.975V22.475
						c0-8.27,6.704-14.975,14.975-14.975h0c8.27,0,14.975,6.704,14.975,14.975V98.91C270.975,107.18,264.27,113.885,256,113.885z"/>
				</g>
				<g>
					<path style="fill:#ED6264;" d="M256,504.5L256,504.5c-8.27,0-14.975-6.704-14.975-14.975V413.09
						c0-8.27,6.704-14.975,14.975-14.975h0c8.27,0,14.975,6.704,14.975,14.975v76.435C270.975,497.796,264.27,504.5,256,504.5z"/>
				</g>
			</g>
		</g>
		<g>
			<g>
				<path style="fill:#ED6264;" d="M428.115,256L428.115,256c0-8.27,6.704-14.975,14.975-14.975h46.435
					c8.27,0,14.975,6.704,14.975,14.975v0c0,8.27-6.704,14.975-14.975,14.975H443.09C434.82,270.975,428.115,264.27,428.115,256z"/>
			</g>
			<g>
				<path style="fill:#ED6264;" d="M7.5,256L7.5,256c0-8.27,6.704-14.975,14.975-14.975H68.91c8.27,0,14.975,6.704,14.975,14.975v0
					c0,8.27-6.704,14.975-14.975,14.975H22.475C14.204,270.975,7.5,264.27,7.5,256z"/>
			</g>
		</g>
		<g>
			<g>
				<path style="fill:#ED6264;" d="M428.115,256L428.115,256c0-8.27,6.704-14.975,14.975-14.975h46.435
					c8.27,0,14.975,6.704,14.975,14.975v0c0,8.27-6.704,14.975-14.975,14.975H443.09C434.82,270.975,428.115,264.27,428.115,256z"/>
			</g>
			<g>
				<path style="fill:#ED6264;" d="M7.5,256L7.5,256c0-8.27,6.704-14.975,14.975-14.975H68.91c8.27,0,14.975,6.704,14.975,14.975v0
					c0,8.27-6.704,14.975-14.975,14.975H22.475C14.204,270.975,7.5,264.27,7.5,256z"/>
			</g>
		</g>
	</g>
	<g>
		<path d="M120.875,188.164c-7.257,0.938-13.126,5.046-16.971,11.879s-4.311,13.98-1.346,20.672
			c3.069,6.927,9.642,13.153,20.092,19.034c9.312,5.24,20.886,9.698,31.274,12.13c-0.055,1.368-0.09,2.74-0.09,4.121
			c0,1.379,0.037,2.752,0.091,4.12c-10.379,2.433-22.017,6.921-31.276,12.131c-10.45,5.881-17.022,12.107-20.092,19.034
			c-2.965,6.691-2.5,13.839,1.346,20.673c3.845,6.832,9.714,10.939,16.971,11.878c1.084,0.14,2.193,0.21,3.33,0.21
			c6.467,0,13.808-2.284,22.29-6.913c-0.552,11.347,1.126,19.86,5.132,25.98c4.008,6.122,10.262,9.614,18.088,10.097
			c0.553,0.034,1.131,0.054,1.733,0.054c6.988,0,16.984-2.663,22.306-16.249c12.356,9.514,27.007,16.308,43.154,19.362
			c4.07,0.77,7.994-1.905,8.763-5.976c0.77-4.069-1.905-7.993-5.975-8.763c-41.06-7.767-70.862-43.782-70.862-85.638
			c0-48.063,39.102-87.166,87.166-87.166s87.166,39.103,87.166,87.166c0,41.855-29.802,77.871-70.862,85.638
			c-4.07,0.77-6.745,4.693-5.975,8.763c0.681,3.6,3.827,6.107,7.361,6.107c0.462,0,0.932-0.043,1.402-0.132
			c16.147-3.054,30.797-9.848,43.153-19.361c5.325,13.596,15.338,16.248,22.31,16.248c0.602,0,1.18-0.02,1.731-0.054
			c7.825-0.482,14.08-3.975,18.087-10.097c4.005-6.12,5.683-14.633,5.132-25.979c8.483,4.629,15.823,6.913,22.29,6.913
			c1.136,0,2.246-0.07,3.33-0.21c7.257-0.938,13.126-5.046,16.971-11.879c5.873-10.436,3.812-21.247-5.801-30.442
			c-2.994-2.862-7.741-2.759-10.604,0.235c-2.863,2.994-2.757,7.741,0.236,10.604c5.992,5.73,4.74,9.326,3.097,12.246
			c-1.528,2.716-5.107,9.071-23.241-1.133c-6.442-3.625-13.36-8.685-19.256-14.041c1.605-4.63,2.888-9.399,3.819-14.284
			c2.303,0.585,4.678,1.275,7.126,2.089c0.786,0.262,1.584,0.386,2.37,0.386c3.141,0,6.068-1.989,7.115-5.133
			c1.308-3.93-0.817-8.177-4.747-9.485c-3.48-1.158-6.869-2.114-10.135-2.875c0.055-1.369,0.092-2.743,0.092-4.124
			c0-1.38-0.036-2.751-0.09-4.118c10.382-2.434,22.005-6.917,31.274-12.133c10.451-5.88,17.023-12.106,20.092-19.034
			c2.965-6.69,2.5-13.839-1.346-20.671c-3.845-6.833-9.713-10.941-16.971-11.88c-7.254-0.936-15.647,1.263-25.62,6.706
			c0.552-11.348-1.126-19.861-5.132-25.982c-4.008-6.122-10.262-9.614-18.088-10.097c-7.022-0.431-18.286,1.471-24.053,16.243
			c-17.244-13.285-38.829-21.2-62.231-21.2c-23.402,0-44.988,7.915-62.232,21.2c-5.771-14.784-17.054-16.677-24.053-16.243
			c-7.825,0.482-14.08,3.975-18.087,10.097c-4.006,6.121-5.683,14.634-5.132,25.982C136.522,189.427,128.129,187.23,120.875,188.164
			z M349.208,306.259c0.627,3.664,1.057,7.219,1.264,10.568c1.281,20.77-6,21.219-9.109,21.411
			c-2.718,0.161-8.309,0.504-10.758-12.467c6.139-6.573,11.409-13.937,15.644-21.914
			C347.22,304.669,348.207,305.471,349.208,306.259z M389.201,203.04c1.797,0.232,3.894,0.933,5.822,4.36
			c1.928,3.426,1.438,5.581,0.704,7.238c-1.161,2.619-4.485,6.834-13.734,12.038c-7.623,4.29-17.038,8.002-25.633,10.186
			c-0.933-4.903-2.216-9.682-3.824-14.311c5.892-5.354,12.751-10.363,19.247-14.019C381.031,203.328,386.355,202.672,389.201,203.04
			z M341.362,173.762c3.109,0.192,10.391,0.642,9.11,21.411c-0.207,3.357-0.642,6.915-1.269,10.583
			c-0.999,0.787-1.983,1.588-2.955,2.4c-4.25-7.984-9.527-15.339-15.656-21.891C333.013,173.251,338.593,173.596,341.362,173.762z
			 M130.007,226.677c-18.135-10.205-14.558-16.563-13.03-19.277c1.528-2.715,5.108-9.071,23.241,1.133
			c6.488,3.651,13.353,8.662,19.247,14.017c-1.609,4.629-2.891,9.408-3.824,14.311C147.076,234.671,137.54,230.916,130.007,226.677z
			 M116.977,304.602c-1.527-2.715-5.105-9.073,13.03-19.278c7.616-4.286,17.047-8.004,25.647-10.188
			c0.931,4.888,2.215,9.66,3.821,14.292c-5.899,5.359-12.805,10.41-19.257,14.04C122.083,313.675,118.504,307.315,116.977,304.602z
			 M170.638,338.238c-3.109-0.192-10.391-0.642-9.11-21.411c0.207-3.354,0.64-6.909,1.266-10.572c1-0.787,1.986-1.587,2.958-2.399
			c4.235,7.978,9.505,15.343,15.645,21.916C178.955,338.745,173.373,338.4,170.638,338.238z M170.638,173.762
			c2.75-0.167,8.335-0.504,10.766,12.509c-6.127,6.55-11.403,13.904-15.651,21.886c-0.972-0.813-1.956-1.614-2.956-2.401
			c-0.628-3.67-1.062-7.229-1.268-10.582C160.248,174.403,167.529,173.954,170.638,173.762z"/>
		<path d="M296.332,200.883c2.068-3.589,0.834-8.175-2.754-10.243c-11.401-6.568-24.395-10.04-37.578-10.04
			c-41.576,0-75.401,33.824-75.401,75.4s33.825,75.4,75.401,75.4s75.401-33.824,75.401-75.4c0-13.181-3.472-26.174-10.04-37.577
			c-2.067-3.59-6.653-4.824-10.243-2.756c-3.589,2.067-4.823,6.653-2.755,10.242c5.259,9.13,8.038,19.535,8.038,30.091
			c0,33.305-27.096,60.4-60.401,60.4s-60.401-27.096-60.401-60.4s27.096-60.4,60.401-60.4c10.558,0,20.962,2.779,30.089,8.038
			C289.678,205.705,294.264,204.472,296.332,200.883z"/>
		<path d="M246.41,267.254c-4.142,0-7.5,3.357-7.5,7.5s3.358,7.5,7.5,7.5h20.897c4.142,0,7.5-3.357,7.5-7.5s-3.358-7.5-7.5-7.5
			h-2.949v-30.008c0-2.6-1.346-5.014-3.557-6.38c-2.212-1.365-4.972-1.491-7.297-0.328l-12.166,6.083
			c-3.705,1.853-5.207,6.357-3.354,10.063c1.853,3.704,6.358,5.205,10.062,3.354l1.312-0.655v17.872H246.41z"/>
		<path d="M78.598,166.317c-1.846,3.644-3.6,7.391-5.213,11.137c-1.638,3.804,0.118,8.216,3.922,9.854
			c0.967,0.416,1.973,0.613,2.963,0.613c2.905,0,5.67-1.698,6.892-4.536c1.49-3.461,3.111-6.923,4.816-10.291
			c1.872-3.694,0.394-8.208-3.301-10.079C84.983,161.143,80.469,162.621,78.598,166.317z"/>
		<path d="M73.172,199.224c-4.001-1.067-8.113,1.307-9.183,5.308c-1.054,3.938-1.997,7.965-2.804,11.967
			c-0.819,4.06,1.809,8.016,5.869,8.834c0.501,0.102,0.999,0.149,1.491,0.149c3.497,0,6.626-2.458,7.344-6.019
			c0.746-3.697,1.617-7.417,2.59-11.057C79.55,204.405,77.174,200.294,73.172,199.224z"/>
		<path d="M156.654,100.059c1.329,0,2.676-0.354,3.894-1.096c3.214-1.958,6.539-3.845,9.88-5.608
			c3.664-1.934,5.066-6.47,3.132-10.134s-6.472-5.065-10.133-3.132c-3.612,1.906-7.206,3.946-10.682,6.063
			c-3.537,2.155-4.658,6.77-2.503,10.307C151.654,98.778,154.124,100.059,156.654,100.059z"/>
		<path d="M192.184,83.166c0.83,0,1.675-0.139,2.501-0.432c3.553-1.257,7.19-2.418,10.813-3.452c3.983-1.137,6.291-5.287,5.154-9.27
			c-1.137-3.983-5.286-6.293-9.27-5.154c-3.92,1.118-7.856,2.375-11.701,3.735c-3.905,1.382-5.95,5.667-4.568,9.572
			C186.203,81.244,189.095,83.166,192.184,83.166z"/>
		<path d="M100.735,131.927c-2.546,3.182-5.029,6.488-7.379,9.829c-2.384,3.387-1.57,8.065,1.818,10.449
			c1.313,0.924,2.818,1.367,4.31,1.367c2.358,0,4.68-1.109,6.14-3.186c2.173-3.088,4.469-6.146,6.823-9.087
			c2.588-3.234,2.065-7.954-1.169-10.542C108.043,128.169,103.323,128.693,100.735,131.927z"/>
		<path d="M129.411,102.781c-3.145,2.602-6.247,5.333-9.22,8.116c-3.024,2.831-3.181,7.577-0.35,10.602
			c1.477,1.577,3.474,2.374,5.477,2.374c1.837,0,3.678-0.671,5.124-2.024c2.751-2.576,5.622-5.104,8.532-7.511
			c3.191-2.641,3.638-7.368,0.997-10.56C137.329,100.586,132.603,100.14,129.411,102.781z"/>
		<path d="M156.685,68.734c1.148,0,2.314-0.265,3.407-0.823c3.416-1.745,6.93-3.421,10.445-4.979c3.787-1.68,5.495-6.11,3.816-9.896
			c-1.679-3.787-6.112-5.492-9.896-3.816c-3.766,1.67-7.531,3.465-11.19,5.335c-3.688,1.885-5.151,6.403-3.266,10.092
			C151.327,67.241,153.957,68.734,156.685,68.734z"/>
		<path d="M193.726,53.917c0.706,0,1.425-0.101,2.137-0.312c3.688-1.095,7.453-2.1,11.188-2.986c4.03-0.956,6.522-4.999,5.565-9.028
			c-0.957-4.03-5.001-6.523-9.029-5.565c-4.004,0.95-8.039,2.026-11.992,3.199c-3.971,1.179-6.235,5.354-5.056,9.324
			C187.506,51.808,190.491,53.917,193.726,53.917z"/>
		<path d="M122.942,90.071c1.594,0,3.202-0.506,4.564-1.553c3.054-2.346,6.208-4.635,9.374-6.803
			c3.417-2.341,4.291-7.009,1.95-10.426c-2.34-3.418-7.007-4.291-10.426-1.951c-3.391,2.322-6.768,4.773-10.037,7.285
			c-3.285,2.523-3.901,7.232-1.378,10.517C118.466,89.063,120.691,90.071,122.942,90.071z"/>
		<path d="M49.251,184.474c0.886,0.341,1.797,0.503,2.694,0.503c3.012,0,5.853-1.828,7-4.807c1.38-3.584,2.882-7.186,4.464-10.703
			c1.699-3.777,0.014-8.217-3.764-9.916c-3.776-1.7-8.218-0.015-9.916,3.764c-1.695,3.768-3.304,7.625-4.783,11.465
			C43.458,178.645,45.385,182.984,49.251,184.474z"/>
		<path d="M65.741,148.051c1.225,0.753,2.582,1.112,3.922,1.112c2.519,0,4.979-1.269,6.396-3.572
			c2.017-3.278,4.15-6.544,6.341-9.704c2.36-3.403,1.514-8.076-1.891-10.437c-3.405-2.36-8.078-1.515-10.437,1.892
			c-2.346,3.384-4.63,6.88-6.79,10.392C61.112,141.261,62.213,145.881,65.741,148.051z"/>
		<path d="M88.588,115.253c1.434,1.293,3.23,1.93,5.02,1.93c2.05,0,4.092-0.835,5.572-2.478c2.578-2.859,5.267-5.683,7.992-8.392
			c2.938-2.92,2.952-7.669,0.031-10.606c-2.92-2.936-7.669-2.95-10.606-0.031c-2.917,2.9-5.796,5.924-8.556,8.984
			C85.267,107.736,85.512,112.479,88.588,115.253z"/>
		<path d="M39.717,223.296c0.462,0.085,0.921,0.126,1.375,0.126c3.545,0,6.697-2.523,7.366-6.135c0.7-3.779,1.516-7.59,2.423-11.325
			c0.979-4.025-1.491-8.081-5.516-9.06c-4.027-0.978-8.081,1.492-9.059,5.517c-0.973,4.003-1.847,8.086-2.597,12.136
			C32.955,218.628,35.645,222.541,39.717,223.296z"/>
		<path d="M489.525,233.525h-8.55c-5.081-51.291-27.729-99.551-64.123-136.396c-37.06-37.518-86.125-60.926-138.377-66.094v-8.561
			C278.475,10.082,268.393,0,256,0s-22.475,10.082-22.475,22.475v8.554c-0.471,0.046-0.943,0.087-1.413,0.137
			c-4.119,0.433-7.108,4.123-6.675,8.242c0.405,3.854,3.659,6.718,7.45,6.718c0.211,0,0.425-0.016,0.639-0.034v12.429
			c-1.349,0.152-2.698,0.313-4.03,0.49c-4.105,0.548-6.99,4.32-6.442,8.426c0.502,3.77,3.723,6.51,7.425,6.51
			c0.33,0,0.665-0.021,1.001-0.066c0.675-0.09,1.364-0.157,2.047-0.24V98.91c0,12.393,10.082,22.475,22.475,22.475
			s22.475-10.082,22.475-22.475V73.624c83.657,10.2,149.983,76.654,159.966,160.388c-10.169,2.148-17.825,11.189-17.825,21.988
			c0,10.795,7.652,19.834,17.816,21.986c-9.969,83.757-75.981,150.167-159.957,160.392V413.09c0-12.393-10.082-22.475-22.475-22.475
			s-22.475,10.082-22.475,22.475v25.28c-40.441-4.953-78.369-23.398-107.371-52.364c-29.173-29.137-47.713-67.318-52.584-108.021
			c10.163-2.152,17.814-11.191,17.814-21.985c0-12.393-10.083-22.475-22.475-22.475H22.475C10.082,233.525,0,243.607,0,256
			s10.082,22.475,22.475,22.475h8.551c5.132,51.835,28.178,100.505,65.213,137.493c36.965,36.917,85.552,59.887,137.287,65.009
			v8.548C233.525,501.918,243.607,512,256,512s22.475-10.082,22.475-22.475v-8.559c52.095-5.155,101.004-28.418,138.04-65.755
			c36.597-36.895,59.363-85.276,64.462-136.737h8.55C501.918,278.475,512,268.393,512,256S501.918,233.525,489.525,233.525z
			 M263.475,98.91c0,4.121-3.353,7.475-7.475,7.475s-7.475-3.354-7.475-7.475V22.475c0-4.121,3.353-7.475,7.475-7.475
			s7.475,3.354,7.475,7.475V98.91z M278.475,58.525V46.109c48.223,5.115,93.453,26.884,127.706,61.561
			c33.63,34.047,54.678,78.53,59.707,125.855h-12.413C443.137,141.735,370.255,68.862,278.475,58.525z M15,256
			c0-4.121,3.353-7.475,7.475-7.475H68.91c4.122,0,7.475,3.354,7.475,7.475s-3.354,7.475-7.475,7.475H22.475
			C18.353,263.475,15,260.121,15,256z M106.838,405.354c-34.226-34.183-55.65-79.047-60.729-126.88h12.409
			c5.029,44.518,25.174,86.321,57.036,118.145c31.804,31.764,73.536,51.839,117.971,56.86v12.41
			C185.786,460.818,140.999,439.471,106.838,405.354z M263.475,489.525c0,4.121-3.353,7.475-7.475,7.475s-7.475-3.354-7.475-7.475
			V413.09c0-4.121,3.353-7.475,7.475-7.475s7.475,3.354,7.475,7.475V489.525z M405.865,404.648
			c-34.229,34.508-79.314,56.149-127.39,61.251v-12.427c92.135-10.368,164.675-83.185,174.999-174.998h12.414
			C460.843,325.96,439.684,370.554,405.865,404.648z M489.525,263.475H443.09c-4.122,0-7.475-3.354-7.475-7.475
			s3.354-7.475,7.475-7.475h46.435c4.122,0,7.475,3.354,7.475,7.475S493.647,263.475,489.525,263.475z"/>
	</g>
</g>
<g>
</g>
<g>
</g>
<g>
</g>
<g>
</g>
<g>
</g>
<g>
</g>
<g>
</g>
<g>
</g>
<g>
</g>
<g>
</g>
<g>
</g>
<g>
</g>
<g>
</g>
<g>
</g>
<g>
</g>
</svg>
