<?xml version="1.0" encoding="iso-8859-1"?>
<!-- Generator: Adobe Illustrator 23.0.6, SVG Export Plug-In . SVG Version: 6.00 Build 0)  -->
<svg version="1.1" id="Capa_1" xmlns="http://www.w3.org/2000/svg" xmlns:xlink="http://www.w3.org/1999/xlink" x="0px" y="0px"
	 viewBox="0 0 512 512" style="enable-background:new 0 0 512 512;" xml:space="preserve">
<g>
	<g>
		<g>
			<g>
				<g>
					<g>
						<path style="fill:#2EA8FC;" d="M313.759,281.328V361.2c0,7.404-6.002,13.406-13.406,13.406h-16.255v86.988
							c0,5.523-4.477,10-10,10h-36.196c-5.523,0-10-4.477-10-10v-86.988h-16.255c-7.404,0-13.406-6.002-13.406-13.406v-79.862
							c0-19.966,16.186-36.152,36.152-36.152h43.225C297.578,245.187,313.759,261.368,313.759,281.328z"/>
						<g>
							<rect x="227.9" y="345.271" style="fill:#756F6F;" width="56.2" height="46.399"/>
						</g>
						<path style="fill:#FFBC8A;" d="M284.098,383.606v77.988c0,5.523-4.477,10-10,10h-36.196c-5.523,0-10-4.477-10-10v-77.988
							H284.098z"/>
						<path style="fill:#FFBC8A;" d="M198.241,345.271V361.2c0,7.41,6.005,13.406,13.406,13.406h16.255v-29.335H198.241z"/>
						<path style="fill:#FFBC8A;" d="M284.098,345.271v29.335h16.255c7.4,0,13.406-5.996,13.406-13.406v-15.929H284.098z"/>
						<g>
							<circle style="fill:#FFBC8A;" cx="256" cy="218.518" r="28.995"/>
							<path style="fill:#E89A5E;" d="M284.998,218.517c0,16.018-12.981,28.998-28.998,28.998c-3.314,0-6.49-0.554-9.449-1.583
								c11.368-3.908,19.54-14.712,19.54-27.415c0-12.704-8.172-23.497-19.54-27.415c2.958-1.029,6.134-1.583,9.449-1.583
								C272.018,189.519,284.998,202.509,284.998,218.517z"/>
						</g>
					</g>
					<g>
						<g>
							<path style="fill:#EFE2DD;" d="M165.02,284.3v79.87c0,7.4-6,13.4-13.41,13.4h-16.25v84.02c0,5.53-4.48,10-10,10h-36.2
								c-5.52,0-10-4.47-10-10v-84.02H62.91c-7.41,0-13.41-6-13.41-13.4v-79.86c0-19.97,16.19-36.16,36.15-36.16h43.23
								C148.84,248.15,165.02,264.34,165.02,284.3z"/>
							<path style="fill:#FFBC8A;" d="M49.5,348.239v15.929c0,7.41,6.005,13.406,13.406,13.406h16.255v-29.335H49.5z"/>
							<path style="fill:#FFBC8A;" d="M135.357,348.239v29.335h16.255c7.4,0,13.406-5.996,13.406-13.406v-15.929H135.357z"/>
							<g>
								<g>
									<rect x="79.16" y="348.24" style="fill:#756F6F;" width="56.2" height="43.43"/>
								</g>
							</g>
							<path style="fill:#FFBC8A;" d="M135.357,386.574v75.02c0,5.523-4.477,10-10,10H89.161c-5.523,0-10-4.477-10-10v-75.02
								H135.357z"/>
							<g>
								<circle style="fill:#FFBC8A;" cx="107.259" cy="221.486" r="28.995"/>
								<path style="fill:#E89A5E;" d="M136.258,221.485c0,16.018-12.981,28.998-28.998,28.998c-3.314,0-6.49-0.554-9.449-1.583
									c11.368-3.908,19.54-14.712,19.54-27.415c0-12.704-8.172-23.497-19.54-27.415c2.958-1.029,6.134-1.583,9.449-1.583
									C123.277,192.487,136.258,205.477,136.258,221.485z"/>
							</g>
						</g>
						<g>
							<path style="fill:#ED6264;" d="M462.5,284.296v79.872c0,7.404-6.002,13.406-13.406,13.406h-16.255v84.02
								c0,5.523-4.477,10-10,10h-36.196c-5.523,0-10-4.477-10-10v-84.02h-16.255c-7.404,0-13.406-6.002-13.406-13.406v-79.862
								c0-19.966,16.186-36.152,36.152-36.152h43.225C446.319,248.155,462.5,264.336,462.5,284.296z"/>
							<g>
								<rect x="376.641" y="348.24" style="fill:#756F6F;" width="56.2" height="43.43"/>
							</g>
							<path style="fill:#FFBC8A;" d="M432.839,386.574v75.02c0,5.523-4.477,10-10,10h-36.196c-5.523,0-10-4.477-10-10v-75.02
								H432.839z"/>
							<path style="fill:#FFBC8A;" d="M346.981,348.239v15.929c0,7.41,6.005,13.406,13.406,13.406h16.255v-29.335H346.981z"/>
							<path style="fill:#FFBC8A;" d="M432.839,348.239v29.335h16.255c7.4,0,13.406-5.996,13.406-13.406v-15.929H432.839z"/>
							<g>
								<circle style="fill:#FFBC8A;" cx="404.741" cy="221.486" r="28.995"/>
								<path style="fill:#E89A5E;" d="M433.739,221.485c0,16.018-12.981,28.998-28.998,28.998c-3.314,0-6.49-0.554-9.449-1.583
									c11.368-3.908,19.54-14.712,19.54-27.415c0-12.704-8.172-23.497-19.54-27.415c2.958-1.029,6.134-1.583,9.449-1.583
									C420.758,192.487,433.739,205.477,433.739,221.485z"/>
							</g>
						</g>
					</g>
				</g>
				<rect x="7.5" y="277.615" style="fill:#FFB54E;" width="497" height="42.885"/>
			</g>
			<g>
				<g>
					<g>
						<g>
							<g>
								<rect x="7.5" y="40.405" style="fill:#756F6F;" width="41.417" height="41.417"/>
								<rect x="48.917" y="40.405" style="fill:#FFF5F5;" width="41.417" height="41.417"/>
								<rect x="90.333" y="40.405" style="fill:#756F6F;" width="41.417" height="41.417"/>
								<rect x="7.5" y="81.822" style="fill:#FFF5F5;" width="41.417" height="41.417"/>
								<rect x="48.917" y="81.822" style="fill:#756F6F;" width="41.417" height="41.417"/>
								<rect x="90.333" y="81.822" style="fill:#FFF5F5;" width="41.417" height="41.417"/>
							</g>
						</g>
					</g>
				</g>
				<g>
					<g>
						<g>
							<g>
								<rect x="131.75" y="40.405" style="fill:#FFF5F5;" width="41.417" height="41.417"/>
								<rect x="173.167" y="40.405" style="fill:#756F6F;" width="41.417" height="41.417"/>
								<rect x="214.583" y="40.405" style="fill:#FFF5F5;" width="41.417" height="41.417"/>
								<rect x="131.75" y="81.822" style="fill:#756F6F;" width="41.417" height="41.417"/>
								<rect x="173.167" y="81.822" style="fill:#FFF5F5;" width="41.417" height="41.417"/>
								<rect x="214.583" y="81.822" style="fill:#756F6F;" width="41.417" height="41.417"/>
							</g>
						</g>
					</g>
				</g>
				<g>
					<g>
						<g>
							<g>
								<rect x="380.25" y="40.405" style="fill:#FFF5F5;" width="41.417" height="41.417"/>
								<rect x="421.667" y="40.405" style="fill:#756F6F;" width="41.417" height="41.417"/>
								<rect x="463.083" y="40.405" style="fill:#FFF5F5;" width="41.417" height="41.417"/>
								<rect x="380.25" y="81.822" style="fill:#756F6F;" width="41.417" height="41.417"/>
								<rect x="421.667" y="81.822" style="fill:#FFF5F5;" width="41.417" height="41.417"/>
								<rect x="463.083" y="81.822" style="fill:#756F6F;" width="41.417" height="41.417"/>
							</g>
						</g>
					</g>
				</g>
				<g>
					<g>
						<g>
							<g>
								<rect x="256" y="40.405" style="fill:#756F6F;" width="41.417" height="41.417"/>
								<rect x="297.417" y="40.405" style="fill:#FFF5F5;" width="41.417" height="41.417"/>
								<rect x="338.833" y="40.405" style="fill:#756F6F;" width="41.417" height="41.417"/>
								<rect x="256" y="81.822" style="fill:#FFF5F5;" width="41.417" height="41.417"/>
								<rect x="297.417" y="81.822" style="fill:#756F6F;" width="41.417" height="41.417"/>
								<rect x="338.833" y="81.822" style="fill:#FFF5F5;" width="41.417" height="41.417"/>
							</g>
						</g>
					</g>
				</g>
			</g>
		</g>
	</g>
	<path d="M504.5,32.905H7.5c-4.142,0-7.5,3.357-7.5,7.5v82.833c0,4.143,3.358,7.5,7.5,7.5H9v139.376H7.5c-4.142,0-7.5,3.357-7.5,7.5
		v42.885c0,4.143,3.358,7.5,7.5,7.5H9v142.894c0,4.143,3.358,7.5,7.5,7.5s7.5-3.357,7.5-7.5V327.999h18v36.172
		c0,11.527,9.378,20.906,20.906,20.906h8.753v76.518c0,9.649,7.851,17.5,17.5,17.5h36.2c9.649,0,17.5-7.851,17.5-17.5v-76.518h8.753
		c11.528,0,20.906-9.379,20.906-20.906v-36.172h18.222v33.203c0,11.527,9.378,20.906,20.906,20.906h8.753v79.486
		c0,9.649,7.851,17.5,17.5,17.5h36.201c9.649,0,17.5-7.851,17.5-17.5v-79.486h8.752c11.528,0,20.907-9.379,20.907-20.906v-33.203
		h18.222v36.171c0,11.528,9.379,20.907,20.906,20.907h8.753v22.226c0,4.143,3.357,7.5,7.5,7.5s7.5-3.357,7.5-7.5v-13.229h12.546
		v70.021h-10.046c-1.379,0-2.5-1.121-2.5-2.5v-18.897c0-4.143-3.357-7.5-7.5-7.5s-7.5,3.357-7.5,7.5v18.897
		c0,9.649,7.851,17.5,17.5,17.5h36.2c9.649,0,17.5-7.851,17.5-17.5v-76.518h8.753c11.527,0,20.906-9.379,20.906-20.907v-36.171h18
		v142.894c0,4.143,3.357,7.5,7.5,7.5s7.5-3.357,7.5-7.5V327.999h1.5c4.143,0,7.5-3.357,7.5-7.5v-42.885c0-4.143-3.357-7.5-7.5-7.5
		H503V130.738h1.5c4.143,0,7.5-3.357,7.5-7.5V40.405C512,36.263,508.643,32.905,504.5,32.905z M497,74.322h-26.417V47.905H497
		V74.322z M497,115.738h-26.417V89.322H497V115.738z M455.583,115.738h-26.416V89.322h26.416V115.738z M414.167,115.738H387.75
		V89.322h26.417V115.738z M372.75,115.738h-26.417V89.322h26.417V115.738z M331.333,115.738h-26.416V89.322h26.416V115.738z
		 M289.917,115.738H263.5V89.322h26.417V115.738z M248.5,115.738h-26.417V89.322H248.5V115.738z M207.083,115.738h-26.417V89.322
		h26.417V115.738z M165.667,115.738H139.25V89.322h26.417V115.738z M124.25,115.738H97.833V89.322h26.417V115.738z M82.833,115.738
		H56.417V89.322h26.417V115.738z M41.417,115.738H15V89.322h26.417V115.738z M455.583,74.322h-26.416V47.905h26.416V74.322z
		 M414.167,74.322H387.75V47.905h26.417V74.322z M372.75,74.322h-26.417V47.905h26.417V74.322z M331.333,74.322h-26.416V47.905
		h26.416V74.322z M289.917,74.322H263.5V47.905h26.417V74.322z M248.5,74.322h-26.417V47.905H248.5V74.322z M207.083,74.322h-26.417
		V47.905h26.417V74.322z M165.667,74.322H139.25V47.905h26.417V74.322z M124.25,74.322H97.833V47.905h26.417V74.322z M82.833,74.322
		H56.417V47.905h26.417V74.322z M15,47.905h26.417v26.417H15V47.905z M105.302,285.114c4.142,0,7.5-3.357,7.5-7.5
		s-3.358-7.5-7.5-7.5H60.758c5.004-8.765,14.425-14.455,24.886-14.455h8.816c3.985,1.498,8.297,2.322,12.799,2.322
		s8.814-0.825,12.799-2.322h8.815c10.462,0,19.883,5.69,24.887,14.455h-13.062c-4.142,0-7.5,3.357-7.5,7.5s3.358,7.5,7.5,7.5H497
		v27.885h-74.303c-4.143,0-7.5,3.357-7.5,7.5s3.357,7.5,7.5,7.5h2.644v12.741h-41.2v-12.741h3.162c4.143,0,7.5-3.357,7.5-7.5
		s-3.357-7.5-7.5-7.5H15v-27.885H105.302z M107.259,242.981c-11.853,0-21.496-9.643-21.496-21.495s9.643-21.495,21.496-21.495
		s21.496,9.643,21.496,21.495S119.112,242.981,107.259,242.981z M256,240.014c-11.853,0-21.496-9.643-21.496-21.495
		s9.643-21.496,21.496-21.496s21.495,9.644,21.495,21.496S267.853,240.014,256,240.014z M234.385,252.691h8.816
		c3.985,1.498,8.297,2.322,12.799,2.322c4.502,0,8.813-0.825,12.799-2.322h8.816c11.665,0,21.955,7.05,26.366,17.423h-95.935
		C212.47,259.76,222.776,252.691,234.385,252.691z M404.74,242.981c-11.853,0-21.495-9.643-21.495-21.495
		s9.643-21.495,21.495-21.495s21.496,9.643,21.496,21.495S416.593,242.981,404.74,242.981z M383.126,255.659h8.816
		c3.985,1.498,8.297,2.322,12.799,2.322c4.508,0,8.824-0.827,12.814-2.328c0.038,0.001,0.075,0.006,0.113,0.006h8.688
		c10.518,0,19.898,5.681,24.886,14.455H358.24C363.236,261.344,372.632,255.659,383.126,255.659z M425.341,379.074h-13.654V355.74
		h13.654V379.074z M276.601,376.105h-13.655c0,0-0.019-23.059-0.049-23.334H276.6L276.601,376.105z M235.4,352.771h12.595
		c-0.031,0.275-0.049,23.334-0.049,23.334H235.4V352.771z M235.4,337.771v-9.772h41.2v9.772H235.4z M127.859,379.074h-13.654V355.74
		h13.654V379.074z M86.659,355.74h12.546v23.334H86.659V355.74z M86.659,340.74v-12.741h41.2v12.741H86.659z M71.659,327.999v12.741
		H57v-12.741H71.659z M62.906,370.077c-3.257,0-5.906-2.649-5.906-5.906v-8.431h14.659v14.337H62.906z M86.659,461.595v-67.521
		h12.546v70.021H89.159C87.781,464.095,86.659,462.974,86.659,461.595z M125.359,464.095h-11.154v-70.021h13.654v67.521
		C127.859,462.974,126.738,464.095,125.359,464.095z M151.612,370.077h-8.753V355.74h14.659v8.431
		C157.519,367.428,154.869,370.077,151.612,370.077z M157.519,340.74h-14.659v-12.741h14.659V340.74z M220.4,327.999v9.772h-14.659
		v-9.772H220.4z M211.647,367.108c-3.257,0-5.906-2.649-5.906-5.906v-8.431H220.4v14.337H211.647z M235.4,461.595v-70.489h12.546
		v72.989H237.9C236.521,464.095,235.4,462.974,235.4,461.595z M274.101,464.095h-11.155v-72.989h13.655v70.489
		C276.601,462.974,275.479,464.095,274.101,464.095z M300.353,367.108H291.6v-14.337h14.66v8.431
		C306.26,364.459,303.609,367.108,300.353,367.108z M306.26,337.771H291.6v-9.772h14.66V337.771z M369.141,327.999v12.74h-14.659
		v-12.74H369.141z M360.388,370.077c-3.257,0-5.906-2.65-5.906-5.907v-8.43h14.659v14.337H360.388z M384.141,379.074V355.74h12.546
		v23.334H384.141z M422.841,464.095h-11.154v-70.021h13.654v67.521C425.341,462.974,424.22,464.095,422.841,464.095z
		 M449.094,370.077h-8.753V355.74H455v8.43C455,367.427,452.351,370.077,449.094,370.077z M455,340.739h-14.659v-12.74H455V340.739z
		 M488,270.114h-20.36c-5.03-14.711-17.444-25.478-32.442-28.554c3.811-5.763,6.038-12.662,6.038-20.073
		c0-20.123-16.372-36.495-36.496-36.495c-20.123,0-36.495,16.372-36.495,36.495c0,7.413,2.227,14.313,6.04,20.076
		c-14.974,3.083-27.409,13.857-32.441,28.552h-22.052c-4.262-16.083-17.331-28.203-33.341-31.512
		c3.815-5.765,6.045-12.668,6.045-20.084c0-20.124-16.372-36.496-36.495-36.496c-20.124,0-36.496,16.372-36.496,36.496
		c0,7.419,2.231,14.323,6.049,20.09c-15.964,3.323-29.082,15.457-33.345,31.506H170.15c-5.035-14.672-17.494-25.456-32.437-28.548
		c3.814-5.764,6.042-12.666,6.042-20.08c0-20.123-16.372-36.495-36.496-36.495s-36.496,16.372-36.496,36.495
		c0,7.414,2.228,14.315,6.042,20.08c-14.944,3.092-27.402,13.875-32.437,28.548H24V130.738h464V270.114z"/>
</g>
<g>
</g>
<g>
</g>
<g>
</g>
<g>
</g>
<g>
</g>
<g>
</g>
<g>
</g>
<g>
</g>
<g>
</g>
<g>
</g>
<g>
</g>
<g>
</g>
<g>
</g>
<g>
</g>
<g>
</g>
</svg>
