<?xml version="1.0" encoding="iso-8859-1"?>
<!-- Generator: Adobe Illustrator 23.0.6, SVG Export Plug-In . SVG Version: 6.00 Build 0)  -->
<svg version="1.1" id="Capa_1" xmlns="http://www.w3.org/2000/svg" xmlns:xlink="http://www.w3.org/1999/xlink" x="0px" y="0px"
	 viewBox="0 0 512 512" style="enable-background:new 0 0 512 512;" xml:space="preserve">
<g>
	<g>
		<g>
			<g>
				<path style="fill:#A4E540;" d="M313.288,117.227v79.211c0,7.35-5.956,13.296-13.296,13.296h-16.123v96.197h-55.738v-96.197
					h-16.123c-7.34,0-13.297-5.947-13.297-13.296v-79.211c0-19.803,16.054-35.857,35.847-35.857h42.883
					C297.234,81.37,313.288,97.424,313.288,117.227z"/>
				<path style="fill:#FFBC8A;" d="M198.712,180.638v15.799c0,7.35,5.956,13.296,13.297,13.296h16.123v-29.095H198.712z"/>
				<path style="fill:#FFBC8A;" d="M283.869,180.638v29.095h16.123c7.34,0,13.296-5.947,13.296-13.296v-15.799H283.869z"/>
				<g>
					<circle style="fill:#FFBC8A;" cx="256" cy="54.919" r="28.759"/>
					<path style="fill:#E89A5E;" d="M284.762,54.918c0,15.887-12.875,28.762-28.762,28.762c-3.287,0-6.437-0.55-9.371-1.57
						c11.275-3.876,19.381-14.592,19.381-27.192s-8.106-23.306-19.381-27.192c2.934-1.021,6.084-1.57,9.371-1.57
						C271.887,26.156,284.762,39.041,284.762,54.918z"/>
				</g>
				<g>
					<circle style="fill:#FFC26D;" cx="256" cy="122.274" r="12.781"/>
				</g>
			</g>
			<g>
				<g>
					<path style="fill:#EFE2DD;" d="M124.103,186.716v79.211c0,7.35-5.956,13.296-13.296,13.296H94.684v93.253H38.946v-93.253
						H22.823c-7.34,0-13.297-5.947-13.297-13.296v-79.211c0-19.803,16.054-35.857,35.847-35.857h42.883
						C108.049,150.86,124.103,166.914,124.103,186.716z"/>
					<path style="fill:#FFBC8A;" d="M9.527,250.128v15.799c0,7.35,5.956,13.296,13.297,13.296h16.123v-29.095H9.527z"/>
					<path style="fill:#FFBC8A;" d="M94.684,250.128v29.095h16.123c7.34,0,13.296-5.947,13.296-13.296v-15.799H94.684z"/>
					<g>
						<circle style="fill:#FFBC8A;" cx="66.815" cy="124.409" r="28.759"/>
						<path style="fill:#E89A5E;" d="M95.577,124.407c0,15.887-12.875,28.762-28.762,28.762c-3.287,0-6.437-0.55-9.371-1.57
							c11.275-3.876,19.381-14.592,19.381-27.192s-8.106-23.306-19.381-27.192c2.934-1.021,6.084-1.57,9.371-1.57
							C82.702,95.646,95.577,108.53,95.577,124.407z"/>
					</g>
					<g>
						<circle style="fill:#FFC26D;" cx="66.815" cy="191.764" r="12.781"/>
					</g>
				</g>
				<g>
					<path style="fill:#6D80D6;" d="M502.473,186.716v79.211c0,7.35-5.956,13.296-13.296,13.296h-16.123v93.253h-55.738v-93.253
						h-16.123c-7.34,0-13.297-5.947-13.297-13.296v-79.211c0-19.803,16.054-35.857,35.847-35.857h42.883
						C486.419,150.86,502.473,166.914,502.473,186.716z"/>
					<path style="fill:#FFBC8A;" d="M387.897,250.128v15.799c0,7.35,5.956,13.296,13.297,13.296h16.123v-29.095H387.897z"/>
					<path style="fill:#FFBC8A;" d="M473.054,250.128v29.095h16.123c7.34,0,13.296-5.947,13.296-13.296v-15.799H473.054z"/>
					<g>
						<circle style="fill:#FFBC8A;" cx="445.185" cy="124.409" r="28.759"/>
						<path style="fill:#E89A5E;" d="M473.947,124.407c0,15.887-12.875,28.762-28.762,28.762c-3.287,0-6.437-0.55-9.371-1.57
							c11.275-3.876,19.381-14.592,19.381-27.192s-8.106-23.306-19.381-27.192c2.934-1.021,6.084-1.57,9.371-1.57
							C461.072,95.646,473.947,108.53,473.947,124.407z"/>
					</g>
					<g>
						<circle style="fill:#FFC26D;" cx="445.185" cy="191.764" r="12.781"/>
					</g>
				</g>
			</g>
		</g>
		<g>
			<g>
				<g>
					<path style="fill:#2EA8FC;" d="M158.214,394.1v91.736H37.705c-5.475,0-9.918-4.434-9.918-9.918V394.1H158.214z"/>
					<rect x="136.126" y="394.1" style="fill:#0097FA;" width="22.088" height="91.736"/>
					<path style="fill:#2EA8FC;" d="M484.214,394.1v81.817c0,5.485-4.444,9.918-9.918,9.918H353.786V394.1H484.214z"/>
					<rect x="353.786" y="394.1" style="fill:#0097FA;" width="22.088" height="91.736"/>
					<path style="fill:#0097FA;" d="M484.214,394.1v81.817c0,5.485-4.444,9.918-9.918,9.918h-20.283
						c5.475,0,9.918-4.434,9.918-9.918V394.1H484.214z"/>
					<path style="fill:#F69798;" d="M158.045,368.56v33.118H17.422c-5.485,0-9.918-4.443-9.918-9.918v-13.281
						c0-5.475,4.434-9.918,9.918-9.918H158.045z"/>
					<rect x="136.126" y="368.56" style="fill:#F37D7E;" width="21.92" height="33.118"/>
					<path style="fill:#FFCE8B;" d="M504.497,378.478v13.281c0,5.475-4.434,9.918-9.918,9.918H353.955V368.56h140.624
						C500.063,368.56,504.497,373.003,504.497,378.478z"/>
					<path style="fill:#FFB54E;" d="M504.497,378.478v13.281c0,5.475-4.434,9.918-9.918,9.918h-20.283
						c5.485,0,9.918-4.443,9.918-9.918v-13.281c0-5.475-4.434-9.918-9.918-9.918h20.283
						C500.063,368.56,504.497,373.003,504.497,378.478z"/>
					<rect x="353.955" y="368.56" style="fill:#FFB54E;" width="21.92" height="33.118"/>
					<rect x="150.015" y="319.727" style="fill:#8ECBFD;" width="211.969" height="166.114"/>
					<rect x="341.557" y="319.727" style="fill:#65BAFC;" width="20.428" height="166.114"/>
					<g>
						<path style="fill:#FFC26D;" d="M376.54,337.773H135.46c-5.478,0-9.918-4.441-9.918-9.918v-16.247
							c0-5.478,4.441-9.918,9.918-9.918H376.54c5.478,0,9.918,4.441,9.918,9.918v16.247
							C386.458,333.333,382.017,337.773,376.54,337.773z"/>
					</g>
					<g>
						<path style="fill:#FFA730;" d="M386.457,311.608v16.246c0,5.475-4.443,9.918-9.918,9.918h-20.283
							c5.475,0,9.918-4.443,9.918-9.918v-16.246c0-5.475-4.443-9.918-9.918-9.918h20.283
							C382.014,301.69,386.457,306.133,386.457,311.608z"/>
					</g>
				</g>
				<g>
					<path style="fill:#F37D7E;" d="M285.432,436.505L256,416.993l-29.432,19.511c-3.956,2.622-9.239-0.214-9.239-4.96V301.689
						h77.343v129.855C294.671,436.291,289.388,439.127,285.432,436.505z"/>
					<path style="fill:#ED6264;" d="M294.672,301.692v129.852c0,4.741-5.287,7.578-9.244,4.959l-6.804-4.513
						c0.01-0.149,0.02-0.298,0.02-0.446V301.692H294.672z"/>
				</g>
			</g>
		</g>
	</g>
	<g>
		<path d="M494.582,361.064h-14.026v-74.338h8.621c11.468,0,20.797-9.329,20.797-20.797v-79.215c0-20.21-13.903-37.232-32.646-42.01
			c-0.191-0.132-0.387-0.259-0.593-0.375c-0.32-0.18-0.65-0.326-0.983-0.455c3.597-5.628,5.692-12.305,5.692-19.466
			c0-19.994-16.266-36.26-36.259-36.26c-19.994,0-36.26,16.266-36.26,36.26c0,7.161,2.095,13.838,5.692,19.466
			c-0.333,0.129-0.664,0.274-0.984,0.455c-0.206,0.116-0.402,0.243-0.593,0.375c-18.742,4.779-32.645,21.8-32.645,42.009v79.216
			c0,11.468,9.329,20.797,20.797,20.797h8.621v74.338h-40.33v-15.791h7.056c9.604,0,17.418-7.813,17.418-17.418v-16.248
			c0-9.604-7.813-17.418-17.418-17.418h-81.869h-3.3v-76.953h8.62c11.468,0,20.797-9.329,20.797-20.797v-79.215
			c0-20.209-13.902-37.23-32.644-42.009c-0.191-0.132-0.386-0.258-0.593-0.375c-0.321-0.181-0.652-0.326-0.985-0.455
			c3.597-5.629,5.692-12.306,5.692-19.467c0-19.993-16.266-36.259-36.259-36.259s-36.259,16.266-36.259,36.259
			c0,7.161,2.095,13.838,5.692,19.467c-0.334,0.129-0.664,0.274-0.985,0.455c-0.206,0.116-0.402,0.243-0.593,0.375
			c-18.742,4.779-32.644,21.8-32.644,42.009v79.215c0,11.468,9.329,20.797,20.797,20.797h8.62v76.953h-3.3h-81.868
			c-9.604,0-17.419,7.813-17.419,17.418v16.248c0,9.604,7.814,17.418,17.419,17.418h7.055v15.791h-40.33v-74.338h8.621
			c11.468,0,20.797-9.329,20.797-20.797v-79.215c0-20.209-13.902-37.231-32.645-42.01c-0.191-0.132-0.387-0.259-0.593-0.375
			c-0.321-0.18-0.651-0.326-0.984-0.455c3.597-5.628,5.692-12.305,5.692-19.466c0-19.994-16.266-36.26-36.259-36.26
			c-19.994,0-36.26,16.266-36.26,36.26c0,7.161,2.095,13.838,5.692,19.466c-0.333,0.129-0.664,0.274-0.984,0.455
			c-0.206,0.116-0.402,0.243-0.593,0.375c-18.742,4.779-32.645,21.8-32.645,42.009v79.216c0,11.468,9.329,20.797,20.797,20.797
			h8.621v74.338H17.418C7.813,361.064,0,368.879,0,378.483v13.271c0,9.604,7.813,17.418,17.418,17.418h2.869v66.749
			c0,9.604,7.813,17.418,17.418,17.418h436.59c9.604,0,17.419-7.813,17.419-17.418v-66.749h2.868
			c9.604,0,17.418-7.813,17.418-17.418v-13.271C512,368.879,504.187,361.064,494.582,361.064z M489.177,271.727h-8.621v-14.099
			h14.418v8.302C494.974,269.126,492.373,271.727,489.177,271.727z M445.186,186.482c2.911,0,5.28,2.369,5.28,5.281
			s-2.369,5.281-5.28,5.281c-2.912,0-5.281-2.369-5.281-5.281S442.273,186.482,445.186,186.482z M452.122,172.73
			c-2.168-0.793-4.498-1.248-6.937-1.248s-4.769,0.455-6.937,1.248l-8.096-14.366h2.251c0.022,0,0.043-0.003,0.065-0.003
			c3.959,1.488,8.243,2.307,12.716,2.307c4.532,0,8.87-0.843,12.873-2.369c0.309,0.039,0.622,0.065,0.942,0.065h1.218
			L452.122,172.73z M445.186,103.149c11.722,0,21.259,9.537,21.259,21.26c0,11.722-9.537,21.259-21.259,21.259
			c-11.723,0-21.26-9.537-21.26-21.259C423.926,112.687,433.463,103.149,445.186,103.149z M401.193,271.727
			c-3.196,0-5.797-2.601-5.797-5.797v-8.302h14.418v14.099H401.193z M424.814,223.722c0-4.143-3.357-7.5-7.5-7.5s-7.5,3.357-7.5,7.5
			v18.906h-14.418v-55.914c0-12.18,7.722-22.589,18.527-26.593l12.951,22.98c-1.25,2.631-1.97,5.561-1.97,8.662
			c0,11.184,9.098,20.281,20.281,20.281c11.183,0,20.28-9.098,20.28-20.281c0-3.102-0.72-6.031-1.97-8.662l12.951-22.98
			c10.805,4.004,18.527,14.413,18.527,26.594v55.913h-14.418v-18.906c0-4.143-3.357-7.5-7.5-7.5s-7.5,3.357-7.5,7.5v137.343h-13.42
			v-81.838c0-4.143-3.357-7.5-7.5-7.5s-7.5,3.357-7.5,7.5v81.838h-12.321V223.722z M378.958,311.607v16.248
			c0,1.333-1.085,2.418-2.418,2.418h-74.369v-21.084h74.369C377.873,309.189,378.958,310.274,378.958,311.607z M299.991,202.236
			h-8.62v-14.098h14.417v8.301C305.788,199.636,303.188,202.236,299.991,202.236z M256,116.993c2.912,0,5.281,2.369,5.281,5.281
			s-2.369,5.281-5.281,5.281s-5.281-2.369-5.281-5.281S253.088,116.993,256,116.993z M262.937,103.241
			c-2.168-0.793-4.497-1.248-6.937-1.248s-4.769,0.455-6.937,1.248l-8.096-14.366h2.251c0.022,0,0.044-0.003,0.066-0.003
			c3.959,1.488,8.243,2.307,12.716,2.307c4.638,0,9.07-0.885,13.15-2.479c0.516,0.112,1.05,0.175,1.6,0.175h0.283L262.937,103.241z
			 M256,33.66c11.722,0,21.259,9.537,21.259,21.259c0,11.723-9.537,21.26-21.259,21.26s-21.259-9.537-21.259-21.26
			C234.741,43.197,244.278,33.66,256,33.66z M212.009,202.236c-3.196,0-5.797-2.601-5.797-5.797v-8.301h14.417v14.098H212.009z
			 M235.629,154.231c0-4.143-3.357-7.5-7.5-7.5s-7.5,3.357-7.5,7.5v18.907h-14.417v-55.914c0-12.18,7.722-22.588,18.526-26.593
			l12.951,22.98c-1.25,2.631-1.97,5.561-1.97,8.662c0,11.184,9.098,20.281,20.281,20.281s20.281-9.098,20.281-20.281
			c0-3.102-0.72-6.031-1.97-8.662l12.951-22.98c10.804,4.004,18.526,14.413,18.526,26.593v55.914h-14.417v-18.907
			c0-4.143-3.357-7.5-7.5-7.5s-7.5,3.357-7.5,7.5v139.958H262.95v-84.453c0-4.143-3.357-7.5-7.5-7.5s-7.5,3.357-7.5,7.5v84.453
			h-12.321V154.231z M133.042,327.855v-16.248c0-1.333,1.085-2.418,2.419-2.418h74.368v21.084h-74.368
			C134.127,330.273,133.042,329.188,133.042,327.855z M110.807,271.727h-8.621v-14.099h14.418v8.302
			C116.604,269.126,114.003,271.727,110.807,271.727z M66.815,186.482c2.911,0,5.28,2.369,5.28,5.281s-2.369,5.281-5.28,5.281
			c-2.912,0-5.281-2.369-5.281-5.281S63.903,186.482,66.815,186.482z M73.751,172.73c-2.168-0.793-4.497-1.248-6.936-1.248
			c-2.439,0-4.769,0.455-6.937,1.248l-8.096-14.366H53c0.32,0,0.633-0.027,0.942-0.065c4.003,1.526,8.341,2.369,12.873,2.369
			c4.473,0,8.756-0.819,12.716-2.307c0.022,0,0.043,0.003,0.065,0.003h2.251L73.751,172.73z M66.815,103.149
			c11.722,0,21.259,9.537,21.259,21.26c0,11.722-9.537,21.259-21.259,21.259c-11.723,0-21.26-9.537-21.26-21.259
			C45.556,112.687,55.093,103.149,66.815,103.149z M22.823,271.727c-3.196,0-5.797-2.601-5.797-5.797v-8.302h14.418v14.099H22.823z
			 M46.444,223.722c0-4.143-3.357-7.5-7.5-7.5s-7.5,3.357-7.5,7.5v18.906H17.026v-55.914c0-12.18,7.722-22.589,18.527-26.593
			l12.951,22.98c-1.25,2.631-1.97,5.561-1.97,8.662c0,11.184,9.098,20.281,20.281,20.281c11.183,0,20.28-9.098,20.28-20.281
			c0-3.102-0.72-6.031-1.97-8.663l12.951-22.98c10.805,4.004,18.527,14.413,18.527,26.594v55.913h-14.418v-18.906
			c0-4.143-3.357-7.5-7.5-7.5s-7.5,3.357-7.5,7.5v137.343h-13.42v-81.838c0-4.143-3.357-7.5-7.5-7.5s-7.5,3.357-7.5,7.5v81.838
			H46.444V223.722z M15,391.755v-13.271c0-1.334,1.085-2.419,2.418-2.419h125.098v18.108H17.418
			C16.085,394.173,15,393.088,15,391.755z M157.516,478.34v-13.362c0-4.143-3.357-7.5-7.5-7.5s-7.5,3.357-7.5,7.5v13.362H37.705
			c-1.333,0-2.418-1.085-2.418-2.418v-66.749h107.229v20.698c0,4.143,3.357,7.5,7.5,7.5s7.5-3.357,7.5-7.5v-84.598h52.313v86.271
			c0,4.963,2.716,9.504,7.089,11.852c4.373,2.347,9.659,2.104,13.795-0.64L256,425.991l25.288,16.766
			c2.248,1.489,4.835,2.242,7.43,2.242c2.182,0,4.368-0.532,6.364-1.604c4.373-2.348,7.089-6.889,7.089-11.852v-40.955
			c0-4.143-3.357-7.5-7.5-7.5s-7.5,3.357-7.5,7.5v38.07l-27.026-17.917c-2.512-1.666-5.777-1.666-8.289,0l-27.026,17.917v-119.47
			h62.342v46.293c0,4.143,3.357,7.5,7.5,7.5s7.5-3.357,7.5-7.5v-10.209h52.313V478.34H157.516z M497,391.755
			c0,1.333-1.085,2.418-2.418,2.418h-71.261c-4.143,0-7.5,3.357-7.5,7.5s3.357,7.5,7.5,7.5h53.393v66.749
			c0,1.333-1.085,2.418-2.419,2.418H369.484v-69.167h18.731c4.143,0,7.5-3.357,7.5-7.5s-3.357-7.5-7.5-7.5h-18.731v-18.108h125.098
			c1.333,0,2.418,1.085,2.418,2.419V391.755z"/>
	</g>
</g>
<g>
</g>
<g>
</g>
<g>
</g>
<g>
</g>
<g>
</g>
<g>
</g>
<g>
</g>
<g>
</g>
<g>
</g>
<g>
</g>
<g>
</g>
<g>
</g>
<g>
</g>
<g>
</g>
<g>
</g>
</svg>
