<?xml version="1.0" encoding="iso-8859-1"?>
<!-- Generator: Adobe Illustrator 23.0.6, SVG Export Plug-In . SVG Version: 6.00 Build 0)  -->
<svg version="1.1" id="Capa_1" xmlns="http://www.w3.org/2000/svg" xmlns:xlink="http://www.w3.org/1999/xlink" x="0px" y="0px"
	 viewBox="0 0 512.01 512.01" style="enable-background:new 0 0 512.01 512.01;" xml:space="preserve">
<g>
	<g>
		<g>
			<path style="fill:#FFC26D;" d="M319.863,105.429c0,33.37-28.59,60.422-63.858,60.422s-63.858-27.052-63.858-60.422
				c0-48.797,42.769-50.601,49.693-90.594c1.008-5.823,7.348-9.036,12.628-6.38C276.023,19.3,319.863,48.37,319.863,105.429z"/>
			<path style="fill:#FFA730;" d="M319.864,105.431c0,33.367-28.593,60.418-63.859,60.418c-4.386,0-8.662-0.418-12.8-1.213
				c29.13-5.619,51.039-29.985,51.039-59.205c0-47.21-30.005-75.256-52.571-89.687c0.06-0.298,0.119-0.597,0.169-0.905
				c1.004-5.828,7.35-9.04,12.621-6.385C276.025,19.295,319.864,48.365,319.864,105.431z"/>
			<path style="fill:#65BAFC;" d="M295.655,128.335c0,20.72-17.752,37.517-39.65,37.517c-21.898,0-39.65-16.797-39.65-37.517
				c0-30.299,26.556-31.419,30.855-56.251c0.626-3.616,4.563-5.611,7.841-3.961C268.435,74.856,295.655,92.906,295.655,128.335z"/>
			<path style="fill:#2EA8FC;" d="M295.657,128.336c0,20.716-17.752,37.514-39.652,37.514c-3.501,0-6.892-0.428-10.114-1.233
				c16.997-4.237,29.528-18.876,29.528-36.281c0-26.753-15.525-43.6-28.891-53.138c0.268-0.995,0.497-2.029,0.686-3.113
				c0.627-3.62,4.555-5.609,7.837-3.958C268.437,74.859,295.657,92.91,295.657,128.336z"/>
		</g>
		<g>
			<path style="fill:#FFC26D;" d="M333.714,202.849c-10.283-33.162-41.165-57.262-77.709-57.262s-67.425,24.099-77.709,57.262
				H333.714z"/>
			<path style="fill:#FFA730;" d="M333.718,202.849h-22.636c-9.199-29.667-34.898-52.094-66.385-56.48
				c3.69-0.517,7.469-0.786,11.308-0.786C292.544,145.584,323.434,169.692,333.718,202.849z"/>
			<path style="fill:#FFDBAA;" d="M265.631,504.51h-19.252c-5.268,0-9.622-4.108-9.929-9.367l-14.294-245.551h67.698L275.56,495.143
				C275.254,500.402,270.899,504.51,265.631,504.51z"/>
			<path style="fill:#FFC26D;" d="M289.859,249.592l-14.301,245.55c-0.308,5.261-4.654,9.369-9.925,9.369h-18.17
				c5.261,0,9.617-4.108,9.925-9.369l14.291-245.55H289.859z"/>
			<path style="fill:#FFC26D;" d="M305.943,269.795h-99.877c-5.493,0-9.945-4.453-9.945-9.945v-44.742h119.768v44.742
				C315.889,265.342,311.436,269.795,305.943,269.795z"/>
			<path style="fill:#FFA730;" d="M315.886,215.112v44.734c0,5.5-4.446,9.945-9.945,9.945h-16.539c5.5,0,9.945-4.446,9.945-9.945
				v-44.734H315.886z"/>
			<path style="fill:#B9ACAC;" d="M333.059,221.145H178.951c-7.883,0-14.274-6.391-14.274-14.274v0
				c0-7.883,6.391-14.274,14.274-14.274h154.107c7.883,0,14.274,6.391,14.274,14.274v0
				C347.332,214.755,340.942,221.145,333.059,221.145z"/>
			<path style="fill:#9E9797;" d="M347.333,206.867c0,3.938-1.601,7.519-4.187,10.094c-2.576,2.586-6.146,4.187-10.085,4.187
				h-18.399c3.938,0,7.509-1.601,10.085-4.187c2.586-2.576,4.187-6.156,4.187-10.094c0-7.877-6.395-14.272-14.272-14.272h18.399
				C340.938,192.596,347.333,198.991,347.333,206.867z"/>
		</g>
	</g>
	<path d="M334.398,185.143c-6.871-12.867-16.579-23.566-28.127-31.494c13.495-12.697,21.091-29.858,21.091-48.22
		c0-16.436-3.446-31.97-10.243-46.169c-1.789-3.736-6.267-5.314-10.003-3.526c-3.736,1.788-5.315,6.267-3.527,10.003
		c5.821,12.161,8.773,25.516,8.773,39.692c0,10.811-3.458,21.099-9.753,29.76c0.36-2.253,0.545-4.543,0.545-6.855
		c0-40.078-31.284-60.146-44.736-66.913c-3.703-1.863-7.95-1.861-11.652,0.006c-3.653,1.84-6.25,5.346-6.948,9.377
		c-1.531,8.846-6.767,13.992-12.829,19.952c-8.08,7.943-18.136,17.829-18.136,37.578c0,2.312,0.185,4.599,0.543,6.847
		c-6.295-8.681-9.75-18.998-9.75-29.752c0-23.599,10.823-34.238,23.354-46.559c10.634-10.455,22.687-22.304,26.228-42.757
		c0.094-0.543,0.438-0.82,0.709-0.957c0.385-0.194,0.775-0.196,1.158-0.002c8.783,4.419,21.711,12.156,33.423,23.925
		c2.92,2.938,7.669,2.948,10.606,0.026c2.936-2.922,2.947-7.671,0.025-10.606c-13.13-13.194-27.538-21.826-37.313-26.745
		c-4.654-2.34-9.993-2.341-14.647,0.006c-4.665,2.349-7.851,6.648-8.742,11.795c-2.718,15.697-11.636,24.466-21.964,34.619
		c-13.048,12.828-27.838,27.368-27.838,57.255c0,18.252,7.622,35.472,21.088,48.183c-11.547,7.928-21.243,18.636-28.121,31.531
		c-11.385,0.694-20.437,10.172-20.437,21.729c0,12.006,9.768,21.773,21.773,21.773h9.67v31.205c0,9.619,7.826,17.445,17.445,17.445
		h10.19l12.707,218.283c0.536,9.214,8.187,16.432,17.416,16.432h19.252c9.229,0,16.879-7.217,17.416-16.432l6.433-110.506
		c0.241-4.135-2.917-7.683-7.051-7.923c-4.123-0.239-7.683,2.916-7.923,7.052l-6.433,110.505c-0.075,1.292-1.147,2.304-2.441,2.304
		h-19.252c-1.294,0-2.366-1.012-2.441-2.303l-9.316-160.042h42.768l-0.827,14.211c-0.241,4.135,2.917,7.682,7.051,7.923
		c0.148,0.009,0.296,0.013,0.443,0.013c3.943,0,7.249-3.077,7.48-7.064l4.218-72.452h10.189c9.62,0,17.445-7.826,17.445-17.445
		v-31.205h9.67c12.006,0,21.774-9.768,21.774-21.773C354.833,195.316,345.783,185.839,334.398,185.143z M237.506,101.453
		c6.439-6.33,13.679-13.447,16.54-25.398c29.609,15.969,34.109,39.482,34.109,52.28c0,5.054-1.356,9.958-3.918,14.342
		c-6.643-2.22-13.594-3.665-20.732-4.263v-14.962c0-4.143-3.358-7.5-7.5-7.5s-7.5,3.357-7.5,7.5v14.959
		c-7.148,0.595-14.099,2.031-20.736,4.241c-2.556-4.376-3.914-9.258-3.914-14.318C223.855,114.874,229.879,108.951,237.506,101.453z
		 M256.005,153.088c24.566,0,47.148,12.073,60.839,32.011H195.151C208.827,165.138,231.345,153.088,256.005,153.088z
		 M233.748,319.666l-0.729-12.515h45.971l-0.729,12.515H233.748z M279.864,292.151h-47.718l-0.865-14.855h49.447L279.864,292.151z
		 M333.059,213.645h-89.355c-4.142,0-7.5,3.357-7.5,7.5s3.358,7.5,7.5,7.5h64.686v31.205c0,1.349-1.097,2.445-2.445,2.445h-99.877
		c-1.348,0-2.445-1.097-2.445-2.445v-31.205h4.687c4.142,0,7.5-3.357,7.5-7.5s-3.358-7.5-7.5-7.5h-29.356
		c-3.735,0-6.773-3.038-6.773-6.773s3.039-6.773,6.773-6.773h154.107c3.735,0,6.774,3.038,6.774,6.773
		S336.794,213.645,333.059,213.645z"/>
</g>
<g>
</g>
<g>
</g>
<g>
</g>
<g>
</g>
<g>
</g>
<g>
</g>
<g>
</g>
<g>
</g>
<g>
</g>
<g>
</g>
<g>
</g>
<g>
</g>
<g>
</g>
<g>
</g>
<g>
</g>
</svg>
