<?xml version="1.0" encoding="iso-8859-1"?>
<!-- Generator: Adobe Illustrator 23.0.6, SVG Export Plug-In . SVG Version: 6.00 Build 0)  -->
<svg version="1.1" id="Capa_1" xmlns="http://www.w3.org/2000/svg" xmlns:xlink="http://www.w3.org/1999/xlink" x="0px" y="0px"
	 viewBox="0 0 511.998 511.998" style="enable-background:new 0 0 511.998 511.998;" xml:space="preserve">
<g>
	<g>
		<g>
			<g>
				<path style="fill:#FFA730;" d="M295.954,178.043h-80.229c-3.937-2.637-9.212-6.268-15.276-10.728
					C157.104,135.552,73.333,62.496,147.396,17.368c40.656-24.768,73.591,0.497,98.118,38.133
					C274.231,99.559,291.406,160.576,295.954,178.043z"/>
				<path style="fill:#FA8916;" d="M295.954,178.043h-28.68C260.433,151.797,225.039,27.14,164.851,9.57
					C242.494-12.395,288.106,147.86,295.954,178.043z"/>
				<g>
					<path style="fill:#FFA730;" d="M216.042,178.044c8.428-32.378,60.309-214.45,148.558-160.676
						c84.42,51.44-36.231,139.167-68.33,160.676H216.042z"/>
					<path style="fill:#FA8916;" d="M296.273,178.043h-27.788c32.107-21.506,152.751-109.24,68.329-160.675
						c-6.141-3.746-12.117-6.345-17.901-7.925c13.926-3.949,29.164-2.14,45.689,7.925
						C449.024,68.803,328.367,156.537,296.273,178.043z"/>
				</g>
			</g>
			<g>
				<g>
					<path style="fill:#BDEB73;" d="M401.72,504.498H110.278c-6.988,0-12.654-5.665-12.654-12.654V200.402
						c0-6.988,5.665-12.654,12.654-12.654H401.72c6.988,0,12.654,5.665,12.654,12.654v291.443
						C414.374,498.833,408.709,504.498,401.72,504.498z"/>
					<path style="fill:#A4E540;" d="M414.371,200.399v291.449c0,6.985-5.656,12.654-12.654,12.654h-29.774
						c6.985,0,12.654-5.669,12.654-12.654V200.399c0-6.985-5.669-12.654-12.654-12.654h29.774
						C408.715,187.746,414.371,193.415,414.371,200.399z"/>
					<path style="fill:#E3F6C5;" d="M414.371,251.431v104.658c-9.262,9.376-19.309,19.562-29.774,30.141
						c-40.998,41.466-88.195,88.992-117.855,118.272H161.287l223.31-223.297L414.371,251.431z"/>
					<path style="fill:#BDEB73;" d="M414.371,251.431v104.658c-9.262,9.376-19.309,19.562-29.774,30.141V281.205L414.371,251.431z"
						/>
					<path style="fill:#E3F6C5;" d="M354.811,187.746c-72.366,72.91-181.148,182.363-257.184,258.259V340.411l152.665-152.665
						H354.811z"/>
				</g>
				<path style="fill:#8EC737;" d="M426.983,227.516H85.015c-7.037,0-12.741-5.704-12.741-12.741v-39.28
					c0-7.037,5.704-12.741,12.741-12.741h341.968c7.037,0,12.741,5.704,12.741,12.741v39.28
					C439.724,221.811,434.02,227.516,426.983,227.516z"/>
				<path style="fill:#83B832;" d="M439.723,175.494v39.28c0,7.033-5.708,12.741-12.741,12.741h-31.139
					c7.033,0,12.741-5.708,12.741-12.741v-39.28c0-7.033-5.708-12.741-12.741-12.741h31.139
					C434.015,162.753,439.723,168.461,439.723,175.494z"/>
			</g>
			<g>
				<g>
					<path style="fill:#FFC26D;" d="M219.135,377.389l-23.012-14.218l-23.012,14.218c-4.244,2.622-9.719-0.431-9.719-5.419V162.552
						c0-7.037,5.704-12.741,12.741-12.741h39.98c7.037,0,12.741,5.704,12.741,12.741v209.417
						C228.854,376.958,223.379,380.011,219.135,377.389z"/>
					<path style="fill:#FFA730;" d="M228.855,162.548v209.422c0,4.99-5.477,8.043-9.721,5.418l-14.882-9.202V162.548
						c0-7.033-5.708-12.741-12.741-12.741h24.603C223.151,149.807,228.855,155.511,228.855,162.548z"/>
				</g>
				<g>
					<path style="fill:#FFC26D;" d="M338.887,377.389l-23.012-14.218l-23.012,14.218c-4.244,2.622-9.719-0.431-9.719-5.419V162.552
						c0-7.037,5.704-12.741,12.741-12.741h39.98c7.037,0,12.741,5.704,12.741,12.741v209.417
						C348.605,376.958,343.131,380.011,338.887,377.389z"/>
					<path style="fill:#FFA730;" d="M348.606,162.548v209.422c0,4.99-5.477,8.043-9.721,5.418l-14.882-9.202V162.548
						c0-7.033-5.708-12.741-12.741-12.741h24.603C342.902,149.807,348.606,155.511,348.606,162.548z"/>
				</g>
			</g>
		</g>
		<g>
			<g>
				<g>
					<g>
						<g>
							<circle style="fill:#FFCE8B;" cx="255.999" cy="173.879" r="102.54"/>
							<circle style="fill:#FFB54E;" cx="255.999" cy="173.879" r="88.148"/>
							<circle style="fill:#8998DD;" cx="255.999" cy="173.879" r="73.549"/>
							<path style="fill:#6D80D6;" d="M329.545,173.879c0,40.624-32.922,73.546-73.546,73.546c-3.015,0-5.988-0.182-8.903-0.538
								c36.425-4.39,64.643-35.398,64.643-73.008s-28.217-68.618-64.643-73.008c2.915-0.356,5.889-0.538,8.903-0.538
								C296.623,100.333,329.545,133.255,329.545,173.879z"/>
						</g>
					</g>
				</g>
			</g>
		</g>
	</g>
	<g>
		<path d="M426.983,155.253h-62.528c-1.098-6.414-2.751-12.64-4.912-18.627c30.329-30.082,44.36-57.345,41.689-81.061
			c-1.978-17.567-12.99-32.573-32.729-44.602C351.669,0.704,334.806-2.374,318.382,1.81C296.187,7.465,275.217,26.408,256,58.122
			c-19.197-31.68-40.14-50.614-62.31-56.293c-16.447-4.212-33.334-1.14-50.195,9.134c-19.646,11.971-30.648,26.896-32.702,44.357
			c-2.794,23.763,11.222,51.12,41.659,81.312c-2.159,5.985-3.812,12.209-4.91,18.62H85.015c-11.161,0-20.241,9.08-20.241,20.241
			v39.28c0,11.161,9.08,20.241,20.241,20.241h5.109v256.829c0,11.112,9.041,20.153,20.154,20.153h223.023c4.142,0,7.5-3.357,7.5-7.5
			s-3.358-7.5-7.5-7.5h-48.333c35.699-35.492,86.786-87.084,121.906-122.641v117.487c0,2.842-2.312,5.153-5.154,5.153h-33.023
			c-4.142,0-7.5,3.357-7.5,7.5s3.358,7.5,7.5,7.5h33.023c11.113,0,20.154-9.041,20.154-20.153V235.016h5.109
			c11.161,0,20.241-9.08,20.241-20.241v-39.28C447.224,164.333,438.144,155.253,426.983,155.253z M255.999,268.919
			c-52.406,0-95.041-42.635-95.041-95.04s42.635-95.04,95.041-95.04s95.041,42.635,95.041,95.04S308.405,268.919,255.999,268.919z
			 M105.124,343.521l50.765-50.765v79.215c0,1.52,0.253,3.004,0.723,4.404c-18.696,18.742-35.947,36.01-51.488,51.541V343.521z
			 M170.889,369.946V243.551c13.063,15.928,30.501,28.136,50.46,34.774v91.617l-21.289-13.15c-2.416-1.492-5.467-1.492-7.884,0.001
			L170.889,369.946z M236.349,282.159c4.117,0.745,8.314,1.254,12.574,1.526c-4.18,4.203-8.371,8.417-12.574,12.642V282.159z
			 M322.085,16.346c12.538-3.194,25.168-0.765,38.612,7.426c15.793,9.624,24.177,20.572,25.629,33.471
			c2.447,21.728-15.568,46.226-33.348,64.681c-7.641-14.206-18.309-26.552-31.141-36.164c5.859-6.68,12.465-12.969,19.73-18.736
			c3.244-2.576,3.786-7.293,1.21-10.537c-2.576-3.245-7.293-3.786-10.538-1.211c-8.567,6.802-16.33,14.274-23.133,22.256
			c-11.997-6.639-25.355-11.104-39.544-12.856C286.426,37.184,304.077,20.934,322.085,16.346z M125.691,57.072
			c1.487-12.647,10.104-23.852,25.609-33.301c13.464-8.204,26.112-10.628,38.667-7.411c17.993,4.608,35.622,20.854,52.465,48.315
			c-11.486,1.418-22.427,4.616-32.543,9.304c-5.092-6.481-10.602-12.6-16.415-18.221c-2.979-2.881-7.727-2.8-10.605,0.178
			c-2.879,2.978-2.8,7.726,0.178,10.605c4.744,4.587,9.261,9.55,13.496,14.781c-15.687,10.112-28.647,24.1-37.523,40.599
			C128.99,90.795,124.222,69.563,125.691,57.072z M79.774,214.774v-39.28c0-2.89,2.351-5.241,5.241-5.241h61.009
			c-0.039,1.205-0.066,2.412-0.066,3.626c0,16.281,3.558,31.744,9.931,45.661v0.476H85.015
			C82.125,220.016,79.774,217.664,79.774,214.774z M155.889,235.016v36.56c-0.115,0.101-0.232,0.199-0.341,0.308l-50.424,50.423
			v-87.292H155.889z M105.124,491.845v-42.727c18.49-18.46,39.77-39.755,63.317-63.36c0.439,0.042,0.879,0.083,1.32,0.083
			c2.533,0,5.062-0.691,7.29-2.068l19.068-11.783l19.076,11.783c4.273,2.641,9.652,2.762,14.039,0.315
			c4.388-2.446,7.114-7.089,7.114-12.115v-54.378c11.566-11.623,23.104-23.223,34.495-34.68c1.609-0.218,3.208-0.466,4.795-0.753
			v18.14c0,4.143,3.358,7.5,7.5,7.5s7.5-3.357,7.5-7.5v-21.974c19.963-6.637,37.404-18.846,50.47-34.777v126.396l-21.287-13.154
			c-2.417-1.494-5.469-1.493-7.884-0.001l-21.298,13.156v-34.245c0-4.143-3.358-7.5-7.5-7.5s-7.5,3.357-7.5,7.5v36.27
			c0,2.167,0.509,4.261,1.438,6.14L158.184,496.998h-47.906C107.436,496.998,105.124,494.687,105.124,491.845z M263.665,496.998
			h-84.266L290.61,385.793c2.16-0.172,4.286-0.844,6.19-2.02l19.078-11.784l19.068,11.783c4.274,2.642,9.657,2.763,14.046,0.313
			c4.39-2.447,7.116-7.089,7.116-12.113v-51.685c0.033-0.032,0.069-0.059,0.102-0.092l50.664-50.661v83.474
			C368.896,391.486,302.517,458.589,263.665,496.998z M406.874,248.321l-50.765,50.763v-64.068h50.765V248.321z M432.224,214.774
			c0,2.89-2.351,5.241-5.241,5.241h-70.874v-0.476c6.373-13.917,9.931-29.38,9.931-45.661c0-1.214-0.027-2.421-0.066-3.626h61.009
			c2.89,0,5.241,2.352,5.241,5.241V214.774z"/>
		<path d="M255.999,92.83c-15.086,0-29.82,4.187-42.61,12.106c-3.521,2.181-4.608,6.803-2.428,10.324s6.802,4.608,10.325,2.428
			c10.416-6.449,22.419-9.858,34.712-9.858c36.42,0,66.049,29.629,66.049,66.049s-29.629,66.049-66.049,66.049
			s-66.049-29.629-66.049-66.049c0-11.77,3.148-23.337,9.104-33.451c2.102-3.569,0.912-8.167-2.657-10.269
			c-3.571-2.104-8.168-0.911-10.269,2.657c-7.313,12.42-11.178,26.619-11.178,41.063c0,44.69,36.358,81.049,81.049,81.049
			s81.049-36.358,81.049-81.049S300.69,92.83,255.999,92.83z"/>
		<path d="M260.872,147.186c-2.211-1.366-4.972-1.491-7.297-0.328l-13.178,6.589c-3.705,1.853-5.207,6.357-3.354,10.063
			c1.852,3.704,6.356,5.206,10.062,3.354l2.324-1.162v20.992h-3.818c-4.142,0-7.5,3.357-7.5,7.5s3.358,7.5,7.5,7.5h22.636
			c4.142,0,7.5-3.357,7.5-7.5s-3.358-7.5-7.5-7.5h-3.818v-33.127C264.429,150.966,263.083,148.552,260.872,147.186z"/>
	</g>
</g>
<g>
</g>
<g>
</g>
<g>
</g>
<g>
</g>
<g>
</g>
<g>
</g>
<g>
</g>
<g>
</g>
<g>
</g>
<g>
</g>
<g>
</g>
<g>
</g>
<g>
</g>
<g>
</g>
<g>
</g>
</svg>
