<?xml version="1.0" encoding="iso-8859-1"?>
<!-- Generator: Adobe Illustrator 23.0.6, SVG Export Plug-In . SVG Version: 6.00 Build 0)  -->
<svg version="1.1" id="Capa_1" xmlns="http://www.w3.org/2000/svg" xmlns:xlink="http://www.w3.org/1999/xlink" x="0px" y="0px"
	 viewBox="0 0 512 512" style="enable-background:new 0 0 512 512;" xml:space="preserve">
<g>
	<g>
		<path style="fill:#FFF5F5;" d="M504.5,86.523v294.985c0,5.525-4.484,10.01-10.01,10.01H17.51c-5.525,0-10.01-4.484-10.01-10.01
			V86.523c0-5.525,4.484-10.01,10.01-10.01H494.49C500.016,76.513,504.5,80.998,504.5,86.523z"/>
		<path style="fill:#EFE2DD;" d="M323.635,312.341l-19.179,18.688l4.524,26.396c1.011,5.886-0.61,11.861-4.434,16.406
			c-3.624,4.294-8.819,6.877-14.374,7.177v10.51h-68.346v-10.51c-5.555-0.3-10.74-2.883-14.374-7.177
			c-3.824-4.544-5.445-10.52-4.434-16.406l4.524-26.396l-19.179-18.688c-5.545-5.405-7.497-13.333-5.105-20.69
			c2.402-7.367,8.638-12.622,16.296-13.733l26.496-3.854l11.851-24.013c3.413-6.937,10.35-11.251,18.098-11.251
			s14.684,4.314,18.108,11.261l11.841,24.003l26.496,3.854c7.657,1.111,13.893,6.366,16.296,13.733
			C331.133,299.008,329.181,306.936,323.635,312.341z"/>
		<path style="fill:#EFE2DD;" d="M504.5,86.523v294.985c0,5.525-4.484,10.01-10.01,10.01h-22.722c5.525,0,10.01-4.484,10.01-10.01
			V86.523c0-5.525-4.484-10.01-10.01-10.01h22.722C500.016,76.513,504.5,80.998,504.5,86.523z"/>
		<path style="fill:#EFE2DD;" d="M109.642,359.236c-10.726,0-20.221-7.155-23.091-17.4c-3.81-13.6-14.632-24.389-28.242-28.156
			c-10.29-2.848-17.477-12.352-17.477-23.112V177.462c0-10.759,7.187-20.263,17.477-23.112c13.61-3.767,24.432-14.556,28.243-28.157
			c2.869-10.244,12.364-17.399,23.09-17.399h292.716c10.726,0,20.221,7.155,23.091,17.4c3.81,13.6,14.632,24.389,28.242,28.156
			c10.29,2.848,17.477,12.352,17.477,23.112v113.106c0,10.76-7.187,20.264-17.477,23.112c-13.61,3.767-24.432,14.556-28.243,28.157
			c-2.869,10.244-12.363,17.399-23.09,17.399H109.642z"/>
		<path style="fill:#8ECBFD;" d="M457.154,177.461V290.57c0,4.444-2.913,8.418-7.197,9.609
			c-18.378,5.075-32.862,19.529-38.007,37.877c-1.191,4.274-5.155,7.167-9.589,7.167H109.639c-4.434,0-8.398-2.893-9.589-7.167
			c-5.145-18.348-19.629-32.802-38.007-37.877c-4.284-1.191-7.197-5.165-7.197-9.609V177.461c0-4.444,2.913-8.418,7.197-9.609
			c18.378-5.075,32.862-19.529,38.007-37.877c1.191-4.274,5.155-7.167,9.589-7.167h292.723c4.434,0,8.398,2.893,9.589,7.167
			c5.145,18.348,19.629,32.802,38.007,37.877C454.242,169.043,457.154,173.017,457.154,177.461z"/>
		<path style="fill:#65BAFC;" d="M323.635,312.341l-19.179,18.688l2.433,14.194H205.111l2.433-14.194l-19.179-18.688
			c-5.545-5.405-7.497-13.333-5.105-20.69c2.402-7.367,8.638-12.622,16.296-13.733l26.496-3.854l11.851-24.013
			c3.413-6.937,10.35-11.251,18.098-11.251s14.684,4.314,18.108,11.261l11.841,24.003l26.496,3.854
			c7.657,1.111,13.893,6.366,16.296,13.733C331.133,299.008,329.181,306.936,323.635,312.341z"/>
		<g>
			<path style="fill:#F37D7E;" d="M266.839,434.481L256,427.296l-10.839,7.186c-3.992,2.647-9.324-0.216-9.324-5.006v-85.573h40.327
				v85.573C276.164,434.265,270.832,437.128,266.839,434.481z"/>
			<g>
				<g>
					<path style="fill:#FFCE8B;" d="M313.854,302.31L289.4,326.139l5.772,33.655c0.863,5.04-4.424,8.88-8.954,6.504L256,350.412
						l-30.218,15.886c-4.531,2.376-9.818-1.464-8.954-6.504l3.125-18.221l2.648-15.434l-24.454-23.829
						c-3.659-3.569-1.636-9.793,3.421-10.525l33.786-4.909l15.113-30.621c2.261-4.588,8.806-4.588,11.068,0l15.113,30.621
						l11.257,1.636l22.53,3.273C315.49,292.517,317.513,298.742,313.854,302.31z"/>
					<path style="fill:#FFB54E;" d="M313.854,302.31L289.4,326.139l5.772,33.655c0.863,5.04-4.424,8.88-8.954,6.504L256,350.412
						l-30.218,15.886c-4.531,2.376-9.818-1.464-8.954-6.504l3.125-18.221c46.893-8.56,62.73-34.304,67.951-53.06l22.53,3.273
						C315.49,292.517,317.513,298.742,313.854,302.31z"/>
				</g>
			</g>
		</g>
		<g>
			<path style="fill:#FFCE8B;" d="M359.507,207.648H152.493c-5.528,0-10.01-4.481-10.01-10.01v-17.786
				c0-5.528,4.481-10.01,10.01-10.01h207.015c5.528,0,10.01,4.481,10.01,10.01v17.786
				C369.517,203.167,365.036,207.648,359.507,207.648z"/>
		</g>
	</g>
	<g>
		<path d="M494.49,69.016H17.51C7.854,69.016,0,76.871,0,86.525v294.98c0,9.655,7.854,17.51,17.51,17.51h40.793
			c4.143,0,7.5-3.358,7.5-7.5s-3.357-7.5-7.5-7.5H17.51c-1.384,0-2.51-1.126-2.51-2.51V86.525c0-1.384,1.126-2.51,2.51-2.51h476.98
			c1.384,0,2.51,1.126,2.51,2.51v229.779c0,4.142,3.357,7.5,7.5,7.5s7.5-3.358,7.5-7.5V86.525
			C512,76.871,504.146,69.016,494.49,69.016z"/>
		<path d="M504.5,344.2c-4.143,0-7.5,3.358-7.5,7.5v29.806c0,1.384-1.126,2.51-2.51,2.51H283.664v-10.633
			c4.433,1.928,9.504,1.391,13.464-1.486c4.241-3.081,6.324-8.205,5.438-13.37l-0.995-5.803h100.788
			c7.815,0,14.731-5.199,16.817-12.643c4.423-15.784,16.982-28.306,32.778-32.678c7.478-2.069,12.7-8.992,12.7-16.834V177.462
			c0-7.842-5.223-14.765-12.7-16.834c-15.796-4.372-28.355-16.894-32.778-32.678c-2.086-7.443-9.002-12.642-16.817-12.642H197.697
			c-4.143,0-7.5,3.358-7.5,7.5s3.357,7.5,7.5,7.5h204.661c1.119,0,2.095,0.695,2.374,1.689c5.831,20.813,22.392,37.322,43.22,43.087
			c1.002,0.277,1.702,1.255,1.702,2.378v113.106c0,1.123-0.7,2.101-1.702,2.378c-20.828,5.765-37.389,22.274-43.22,43.086
			c-0.279,0.995-1.255,1.69-2.374,1.69h-103.36l-1.537-8.962l21.625-21.08c3.755-3.659,5.08-9.029,3.46-14.014
			c-1.619-4.985-5.849-8.551-11.036-9.304l-29.886-4.343l-13.365-27.082c-2.32-4.701-7.018-7.621-12.259-7.621
			s-9.938,2.92-12.259,7.621l-13.365,27.082l-29.886,4.343c-5.188,0.753-9.417,4.319-11.036,9.304
			c-1.62,4.985-0.295,10.355,3.459,14.014l21.626,21.08l-1.537,8.962h-103.36c-1.119,0-2.095-0.694-2.374-1.689
			c-5.831-20.812-22.392-37.322-43.22-43.087c-1.002-0.277-1.702-1.255-1.702-2.378V177.462c0-1.123,0.7-2.101,1.702-2.378
			c20.828-5.765,37.389-22.274,43.221-43.088c0.278-0.994,1.254-1.688,2.373-1.688h52.661c4.143,0,7.5-3.358,7.5-7.5
			s-3.357-7.5-7.5-7.5h-52.661c-7.817,0-14.733,5.199-16.817,12.643c-4.423,15.784-16.982,28.306-32.778,32.678
			c-7.478,2.069-12.7,8.992-12.7,16.834v113.106c0,7.842,5.223,14.765,12.7,16.834c15.796,4.372,28.355,16.894,32.777,32.677
			c2.085,7.444,9.001,12.644,16.818,12.644H210.43l-0.995,5.802c-0.887,5.167,1.196,10.29,5.438,13.371
			c2.396,1.741,5.199,2.626,8.022,2.626c1.844,0,3.689-0.401,5.441-1.164v10.658H93.697c-4.143,0-7.5,3.358-7.5,7.5
			s3.357,7.5,7.5,7.5h134.639v30.46c0,4.983,2.728,9.542,7.117,11.899c2.005,1.076,4.2,1.61,6.39,1.609
			c2.606,0,5.204-0.756,7.461-2.251l6.696-4.439l6.696,4.438c4.152,2.753,9.458,3,13.851,0.643c4.39-2.357,7.117-6.917,7.117-11.899
			v-30.46H494.49c9.655,0,17.51-7.855,17.51-17.51V351.7C512,347.558,508.643,344.2,504.5,344.2z M227.833,320.771l-22.521-21.952
			l31.122-4.522c2.443-0.355,4.555-1.889,5.647-4.103L256,261.993l13.918,28.201c1.093,2.213,3.204,3.748,5.647,4.103l31.122,4.522
			l-22.521,21.952c-1.768,1.723-2.574,4.206-2.156,6.638l5.315,30.997l-27.836-14.634c-1.093-0.574-2.291-0.861-3.49-0.861
			s-2.397,0.287-3.49,0.861l-27.836,14.634l5.315-30.997C230.407,324.976,229.601,322.494,227.833,320.771z M260.144,421.044
			c-2.512-1.665-5.775-1.665-8.287,0l-8.521,5.648v-61.151L256,358.883l12.664,6.658v61.151L260.144,421.044z"/>
		<path d="M377.017,179.853c0-9.655-7.854-17.51-17.51-17.51H152.493c-9.655,0-17.51,7.855-17.51,17.51v17.786
			c0,9.655,7.854,17.51,17.51,17.51h207.014c9.655,0,17.51-7.855,17.51-17.51V179.853z M362.017,197.639
			c0,1.384-1.126,2.51-2.51,2.51H152.493c-1.384,0-2.51-1.126-2.51-2.51v-17.786c0-1.384,1.126-2.51,2.51-2.51h207.014
			c1.384,0,2.51,1.126,2.51,2.51V197.639z"/>
		<path d="M365.91,244.543h-39.593c-4.143,0-7.5,3.358-7.5,7.5s3.357,7.5,7.5,7.5h39.593c4.143,0,7.5-3.358,7.5-7.5
			S370.053,244.543,365.91,244.543z"/>
		<path d="M365.91,271.689h-21.504c-4.143,0-7.5,3.358-7.5,7.5s3.357,7.5,7.5,7.5h21.504c4.143,0,7.5-3.358,7.5-7.5
			S370.053,271.689,365.91,271.689z"/>
		<path d="M193.183,252.043c0-4.142-3.357-7.5-7.5-7.5H146.09c-4.143,0-7.5,3.358-7.5,7.5s3.357,7.5,7.5,7.5h39.593
			C189.825,259.543,193.183,256.185,193.183,252.043z"/>
		<path d="M146.09,271.689c-4.143,0-7.5,3.358-7.5,7.5s3.357,7.5,7.5,7.5h21.504c4.143,0,7.5-3.358,7.5-7.5s-3.357-7.5-7.5-7.5
			H146.09z"/>
	</g>
</g>
<g>
</g>
<g>
</g>
<g>
</g>
<g>
</g>
<g>
</g>
<g>
</g>
<g>
</g>
<g>
</g>
<g>
</g>
<g>
</g>
<g>
</g>
<g>
</g>
<g>
</g>
<g>
</g>
<g>
</g>
</svg>
