<?xml version="1.0" encoding="iso-8859-1"?>
<!-- Generator: Adobe Illustrator 23.0.6, SVG Export Plug-In . SVG Version: 6.00 Build 0)  -->
<svg version="1.1" id="Capa_1" xmlns="http://www.w3.org/2000/svg" xmlns:xlink="http://www.w3.org/1999/xlink" x="0px" y="0px"
	 viewBox="0 0 512 512" style="enable-background:new 0 0 512 512;" xml:space="preserve">
<g>
	<g>
		<g>
			<g>
				<g>
					<path style="fill:#FFC26D;" d="M324.801,198.797l41.338,41.338c23.523,23.523,23.523,61.782,0,85.305L219.004,472.577
						c-23.515,23.515-61.773,23.515-85.297-0.008L92.368,431.23l22.792-22.792l41.338,41.338c10.949,10.949,28.764,10.94,39.704,0
						L343.339,302.64c10.949-10.949,10.949-28.755,0-39.704l-41.338-41.338L324.801,198.797z"/>
				</g>
				
					<rect x="97.903" y="415.587" transform="matrix(0.7071 -0.7071 0.7071 0.7071 -270.7233 206.5938)" style="fill:#FF9A1B;" width="32.233" height="29.004"/>
				<path style="fill:#FF9A1B;" d="M324.801,198.797l30.612,30.612c-5.692,2.177-11.4,4.698-17.059,7.581
					c-4.534,2.3-8.961,4.854-13.306,7.655l-23.047-23.047L324.801,198.797z"/>
				
					<rect x="242.52" y="348.587" transform="matrix(0.7071 -0.7071 0.7071 0.7071 -168.8284 321.8314)" style="fill:#FF9A1B;" width="123.102" height="32.245"/>
			</g>
			<path style="fill:#FFDBAA;" d="M256.847,225.53L32.761,449.615l29.624,29.624L286.47,255.153
				c13.089-13.089,28.013-24.269,44.51-32.662c71.511-36.384,147.077-18.955,147.077-18.955L308.464,33.943
				c0,0,17.428,75.566-18.955,147.077C281.115,197.517,269.935,212.441,256.847,225.53z"/>
			
				<rect x="164.13" y="265.377" transform="matrix(0.7071 -0.7071 0.7071 0.7071 -136.3584 243.4421)" style="fill:#FFC26D;" width="123.102" height="41.886"/>
			<path style="fill:#FFB54E;" d="M499.567,215.125L499.567,215.125c-6.577,6.577-17.242,6.577-23.819,0L296.875,36.252
				c-6.577-6.577-6.577-17.242,0-23.819l0,0c6.577-6.577,17.242-6.577,23.819,0l178.873,178.873
				C506.144,197.883,506.144,208.548,499.567,215.125z"/>
			<circle style="fill:#FFB54E;" cx="40.798" cy="471.202" r="33.298"/>
			<path style="fill:#F37D7E;" d="M419.571,431.459l-40.53,8.215l-8.215,40.53c-1.104,5.447-7.828,7.474-11.759,3.544
				L173.506,298.187c-4.536-4.536-4.536-11.891,0-16.427l47.62-47.62c4.536-4.536,11.891-4.536,16.427,0L423.115,419.7
				C427.045,423.63,425.019,430.355,419.571,431.459z"/>
			<path style="fill:#ED6264;" d="M237.55,234.14l185.559,185.559c3.934,3.934,1.914,10.653-3.532,11.762l-14.053,2.85
				L221.451,250.238c-4.534-4.534-11.893-4.534-16.427,0l16.098-16.098C225.665,229.598,233.016,229.606,237.55,234.14z"/>
		</g>
	</g>
	<g>
		<path d="M504.87,186.003l-24.422-24.422c-2.929-2.929-7.678-2.929-10.606,0c-2.929,2.929-2.929,7.678,0,10.606l24.422,24.423
			c1.765,1.764,2.736,4.11,2.736,6.605c0,2.496-0.972,4.842-2.736,6.606s-4.111,2.736-6.606,2.736c-2.495,0-4.841-0.972-6.606-2.736
			L302.178,30.948c-1.765-1.764-2.736-4.11-2.736-6.606c0-2.495,0.972-4.841,2.737-6.606c1.764-1.765,4.11-2.736,6.606-2.736
			c2.495,0,4.841,0.972,6.606,2.736l129.422,129.422c2.929,2.929,7.678,2.929,10.606,0c2.929-2.929,2.929-7.678,0-10.606
			L325.998,7.13C321.4,2.532,315.287,0,308.785,0c-6.502,0-12.616,2.532-17.213,7.129c-4.598,4.598-7.13,10.711-7.13,17.213
			c0,6.502,2.532,12.616,7.13,17.213l12.339,12.339c0.005,0.18,0.008,0.359,0.026,0.541c2.541,25.514,3.176,75.443-21.113,123.183
			c-7.785,15.301-18.309,29.636-31.281,42.608l-8.648,8.648l-0.038-0.038c-7.453-7.453-19.58-7.453-27.033,0l-47.621,47.62
			c-7.453,7.454-7.453,19.581,0,27.034l0.038,0.038l-45.135,45.135l-1.905-1.905c-2.929-2.929-7.678-2.929-10.606,0
			c-2.929,2.929-2.929,7.678,0,10.606l1.905,1.905l-13.277,13.277l-1.904-1.904c-2.929-2.93-7.678-2.929-10.606,0
			c-2.929,2.929-2.929,7.678,0,10.606l1.904,1.904L75.339,396.43l-1.904-1.904c-2.929-2.93-7.678-2.929-10.606,0
			c-2.929,2.929-2.929,7.678,0,10.606l1.904,1.904l-23.381,23.381c-0.185-0.002-0.369-0.013-0.554-0.013
			c-10.898,0-21.143,4.244-28.849,11.95C4.244,450.059,0,460.304,0,471.202c0,10.898,4.244,21.143,11.95,28.849
			C19.655,507.756,29.9,512,40.798,512c10.897,0,21.143-4.244,28.848-11.95c7.706-7.706,11.95-17.951,11.95-28.849
			c0-0.185-0.011-0.369-0.013-0.554l19.795-19.795l27.024,27.024c13.223,13.223,30.586,19.832,47.956,19.832
			c17.365,0,34.735-6.612,47.955-19.832l59.14-59.14l70.313,70.313c2.757,2.757,6.444,4.241,10.223,4.241
			c1.396,0,2.805-0.203,4.183-0.618c5.111-1.541,8.945-5.748,10.006-10.979l7.228-35.657l35.657-7.228
			c5.232-1.061,9.439-4.895,10.979-10.006s0.152-10.631-3.623-14.406l-70.313-70.313l13.343-13.343
			c26.442-26.442,26.442-69.467,0-95.91l-15.124-15.124c40.521-14.612,79.672-13.848,101.817-11.584l12.304,12.304
			c4.598,4.598,10.711,7.13,17.213,7.13s12.615-2.532,17.213-7.13s7.13-10.711,7.13-17.213S509.468,190.6,504.87,186.003z
			 M59.04,489.444C54.167,494.316,47.689,497,40.798,497c-6.891,0-13.37-2.684-18.242-7.556c-3.055-3.055-5.249-6.742-6.461-10.766
			h16.099c4.142,0,7.5-3.358,7.5-7.5s-3.358-7.5-7.5-7.5H16.109c1.215-4.005,3.404-7.675,6.447-10.718
			c4.873-4.873,11.351-7.556,18.242-7.556c6.891,0,13.369,2.684,18.242,7.556s7.556,11.351,7.556,18.242
			C66.596,478.093,63.913,484.571,59.04,489.444z M213.705,467.271c-20.594,20.594-54.103,20.593-74.697,0l-27.024-27.024
			l12.192-12.192l27.024,27.024c6.936,6.936,16.046,10.403,25.156,10.403c9.11,0,18.221-3.468,25.156-10.403l59.14-59.14
			l12.193,12.193L213.705,467.271z M377.551,432.324c-2.953,0.599-5.262,2.907-5.86,5.86l-8.02,39.561L251.987,366.061
			c-2.929-2.929-7.678-2.929-10.606,0c-2.929,2.929-2.929,7.678,0,10.606l8.665,8.665l-59.14,59.14
			c-8.022,8.022-21.076,8.022-29.099,0l-27.024-27.024l24.408-24.408c2.929-2.929,2.929-7.678,0-10.606
			c-2.929-2.929-7.678-2.929-10.606,0l-71.03,71.03c-1.967-4.067-4.619-7.821-7.908-11.11c-3.289-3.289-7.043-5.941-11.11-7.908
			l16.803-16.803l0.515,0.515c1.464,1.465,3.384,2.197,5.303,2.197s3.839-0.732,5.303-2.197c2.929-2.929,2.929-7.678,0-10.606
			l-0.515-0.515l13.277-13.277l0.515,0.515c1.464,1.465,3.384,2.197,5.303,2.197s3.839-0.732,5.303-2.197
			c2.929-2.929,2.929-7.678,0-10.606l-0.515-0.515l13.277-13.277l0.515,0.515c1.464,1.464,3.384,2.197,5.303,2.197
			s3.839-0.732,5.303-2.197c2.929-2.929,2.929-7.678,0-10.606l-0.515-0.515l45.135-45.135l19.017,19.017l-24.253,24.253
			c-2.929,2.929-2.929,7.678,0,10.606c1.464,1.464,3.384,2.197,5.303,2.197s3.839-0.732,5.303-2.197l24.253-24.253l7.881,7.881
			c2.929,2.929,7.678,2.929,10.606,0c2.929-2.929,2.929-7.678,0-10.606l-48.149-48.149c-1.604-1.604-1.604-4.216,0-5.821
			l47.621-47.62c1.604-1.604,4.216-1.604,5.82,0l184.862,184.862L377.551,432.324z M312.478,242.674l25.564,25.563
			c8.022,8.022,8.022,21.076,0,29.099L324.7,310.679l-41.574-41.574l8.648-8.648C298.342,253.888,305.262,247.95,312.478,242.674z
			 M360.841,245.438c20.594,20.594,20.594,54.104,0,74.697l-13.343,13.343l-12.193-12.193l13.342-13.343
			c13.871-13.871,13.871-36.44,0-50.312l-23.405-23.405c3.005-1.792,6.051-3.479,9.138-5.05c2.292-1.166,4.589-2.257,6.887-3.311
			L360.841,245.438z M327.58,215.807c-16.708,8.501-32.323,19.955-46.413,34.043l-8.648,8.648l-19.018-19.018l8.648-8.648
			c14.089-14.088,25.542-29.704,34.043-46.413c21.346-41.953,24.742-85.261,23.782-114.461l122.059,122.059
			C412.498,191.034,369.413,194.522,327.58,215.807z"/>
		<path d="M455.329,63.253c1.919,0,3.839-0.732,5.303-2.197l14.09-14.089c2.929-2.929,2.929-7.677,0-10.606
			c-2.928-2.93-7.677-2.929-10.606,0l-14.09,14.089c-2.929,2.929-2.929,7.677,0,10.606C451.49,62.521,453.41,63.253,455.329,63.253z
			"/>
		<path d="M465.72,84.851c0.727,3.551,3.851,5.998,7.34,5.998c0.498,0,1.004-0.05,1.511-0.154l19.521-3.994
			c4.058-0.83,6.675-4.793,5.844-8.851c-0.83-4.058-4.789-6.678-8.851-5.844L471.564,76C467.506,76.83,464.889,80.793,465.72,84.851
			z"/>
		<path d="M426.231,45.363c0.507,0.104,1.013,0.154,1.511,0.154c3.488,0,6.614-2.447,7.34-5.998l3.994-19.521
			c0.831-4.058-1.786-8.021-5.844-8.851c-4.058-0.834-8.021,1.786-8.851,5.844l-3.994,19.521
			C419.557,40.57,422.173,44.533,426.231,45.363z"/>
	</g>
</g>
<g>
</g>
<g>
</g>
<g>
</g>
<g>
</g>
<g>
</g>
<g>
</g>
<g>
</g>
<g>
</g>
<g>
</g>
<g>
</g>
<g>
</g>
<g>
</g>
<g>
</g>
<g>
</g>
<g>
</g>
</svg>
