<?xml version="1.0" encoding="iso-8859-1"?>
<!-- Generator: Adobe Illustrator 23.0.6, SVG Export Plug-In . SVG Version: 6.00 Build 0)  -->
<svg version="1.1" id="Capa_1" xmlns="http://www.w3.org/2000/svg" xmlns:xlink="http://www.w3.org/1999/xlink" x="0px" y="0px"
	 viewBox="0 0 512 512" style="enable-background:new 0 0 512 512;" xml:space="preserve">
<g>
	<g>
		<path style="fill:#FFE8CA;" d="M449.912,39.127L449.912,39.127c-14.478,0-28.362,5.751-38.599,15.988l-21.011,21.011l26.773,28.87
			v305.206c0,12.071,9.785,21.856,21.856,21.856c12.071,0,21.856-9.785,21.856-21.856v-83.793c0,12.071,9.785,21.856,21.856,21.856
			c12.071,0,21.856-9.785,21.856-21.856V93.714C504.5,63.566,480.06,39.127,449.912,39.127z"/>
		<path style="fill:#FFCE8B;" d="M504.5,93.717v232.69c0,12.07-9.79,21.86-21.86,21.86c-4.04,0-7.83-1.1-11.07-3.02
			c6.45-3.8,10.77-10.82,10.77-18.84V93.717c0-26.34-18.66-48.33-43.47-53.46c3.61-0.75,7.3-1.13,11.04-1.13
			C480.06,39.127,504.5,63.567,504.5,93.717z"/>
		<g>
			<path style="fill:#8EC737;" d="M328.673,299.196L154.847,473.022c-8.363,8.363-21.918,8.356-30.274,0L13.77,362.219
				c-8.356-8.356-8.363-21.911,0-30.274l173.826-173.826c10.271-10.271,22.221-17.831,34.974-22.683
				c15.228-5.797,31.583-7.727,47.568-5.805c24.878,3.005,49.755-5.586,67.473-23.304L392.9,51.039l42.853,42.853l-55.288,55.288
				c-17.718,17.718-26.308,42.596-23.304,67.473c1.922,15.985-0.008,32.34-5.805,47.568
				C346.505,276.975,338.944,288.925,328.673,299.196z"/>
			<path style="fill:#83B832;" d="M328.673,299.196L154.847,473.022c-8.363,8.363-21.918,8.356-30.274,0l-15.871-15.871
				c8.356,8.356,21.911,8.363,30.274,0L303.72,292.407c10.271-10.271,17.831-22.221,22.683-34.974
				c5.797-15.228,7.727-31.583,5.805-47.568c-3.005-24.878,5.586-49.755,23.304-67.473l64.37-64.37l15.871,15.871l-55.288,55.288
				c-17.718,17.718-26.308,42.596-23.304,67.473c1.922,15.985-0.008,32.34-5.805,47.568
				C346.505,276.975,338.944,288.925,328.673,299.196z"/>
			
				<rect x="95.239" y="235.677" transform="matrix(0.7071 -0.7071 0.7071 0.7071 -192.856 205.2724)" style="fill:#FFCE8B;" width="112.237" height="199.513"/>
			
				<rect x="157.842" y="386.814" transform="matrix(0.7071 -0.7071 0.7071 0.7071 -218.787 267.8755)" style="fill:#FFB54E;" width="112.237" height="22.445"/>
			<g>
				<circle style="fill:#9E9797;" cx="207.452" cy="279.34" r="54.328"/>
			</g>
			<path style="fill:#ED6264;" d="M351.356,264.222H233.272c-5.904,0-10.702-4.798-10.702-10.702V135.436
				c15.228-5.797,31.583-7.727,47.568-5.805c24.878,3.005,49.755-5.586,67.473-23.304L392.9,51.039l42.853,42.853l-55.288,55.288
				c-17.718,17.718-26.308,42.596-23.304,67.473C359.084,232.638,357.153,248.994,351.356,264.222z"/>
			
				<rect x="376.101" y="57.997" transform="matrix(0.7071 -0.7071 0.7071 0.7071 54.2791 307.6391)" style="fill:#E84649;" width="44.783" height="60.603"/>
			<path style="fill:#E84649;" d="M351.356,264.222l-27.837,0c1.052-2.233,2.013-4.496,2.884-6.789
				c5.797-15.228,7.727-31.583,5.805-47.568c-3.005-24.878,5.586-49.755,23.304-67.473l64.37-64.37l15.871,15.871l-55.288,55.288
				c-17.718,17.718-26.308,42.596-23.304,67.473C359.084,232.638,357.153,248.994,351.356,264.222z"/>
			<path style="fill:#ED6264;" d="M367.343,67.62l51.828,51.828c4.18,4.18,10.957,4.18,15.137,0l16.626-16.626
				c4.18-4.18,4.18-10.957,0-15.137l-51.828-51.828c-4.18-4.18-10.957-4.18-15.137,0l-16.626,16.626
				C363.163,56.663,363.163,63.44,367.343,67.62z"/>
		</g>
	</g>
	<g>
		<path d="M449.912,31.626c-12.093,0-24.077,3.629-34.166,10.264L404.41,30.554c-3.438-3.438-8.01-5.332-12.872-5.332
			c-4.862,0-9.434,1.894-12.872,5.332L362.04,47.179c-6.821,6.823-7.066,17.746-0.774,24.887l-28.956,28.956
			c-16.195,16.195-38.532,23.906-61.277,21.165c-17.264-2.083-34.945,0.074-51.129,6.238c-0.074,0.028-0.146,0.059-0.22,0.087
			c-0.015,0.006-0.03,0.011-0.045,0.018c-14.053,5.388-26.618,13.556-37.347,24.285L8.466,326.642
			C3.005,332.103-0.001,339.363,0,347.086c0.001,7.72,3.008,14.978,8.466,20.436L119.27,478.325
			c5.636,5.635,13.038,8.453,20.44,8.453s14.805-2.818,20.44-8.453l129.07-129.07c2.929-2.929,2.929-7.678,0-10.606
			c-2.929-2.929-7.678-2.929-10.606,0l-17.036,17.036l-22.951-22.952c4.482-2.616,8.706-5.837,12.543-9.674
			c13.653-13.653,20.013-32.459,17.642-51.337h70.936c-4.281,8.124-9.76,15.553-16.378,22.171l-19.728,19.728
			c-6.823,6.822,3.765,17.448,10.606,10.606l19.728-19.728c10.731-10.731,18.899-23.298,24.287-37.351
			c0.004-0.009,0.007-0.019,0.011-0.028c0.029-0.077,0.061-0.152,0.091-0.229c6.165-16.187,8.322-33.868,6.239-51.133
			c-2.745-22.746,4.97-45.081,21.165-61.276l23.806-23.806v53.633c0,4.142,3.358,7.5,7.5,7.5s7.5-3.358,7.5-7.5v-54.378
			c0.719,0.086,1.441,0.144,2.165,0.144c4.662,0,9.323-1.774,12.872-5.323l13.675-13.675v62.627c0,4.142,3.358,7.5,7.5,7.5
			s7.5-3.358,7.5-7.5v-64.967c0-5.799-2.505-11.281-6.796-15.081c-0.368-4.259-2.196-8.216-5.254-11.273L426.646,52.79
			c7.06-3.999,15.132-6.164,23.267-6.164C475.876,46.626,497,67.75,497,93.714v232.694c0,7.916-6.44,14.356-14.356,14.356
			s-14.356-6.44-14.356-14.356v-68.843c0-4.142-3.358-7.5-7.5-7.5s-7.5,3.358-7.5,7.5v152.636c0,7.916-6.44,14.356-14.356,14.356
			s-14.356-6.44-14.356-14.356V219.704c0-4.142-3.358-7.5-7.5-7.5s-7.5,3.358-7.5,7.5v190.497c0,16.187,13.169,29.356,29.356,29.356
			s29.356-13.169,29.356-29.356v-58.193c4.247,2.391,9.146,3.756,14.356,3.756c16.187,0,29.356-13.169,29.356-29.356V93.714
			C512,59.479,484.147,31.626,449.912,31.626z M192.899,163.422c6.618-6.618,14.047-12.096,22.171-16.378v70.935
			c-18.878-2.37-37.688,3.995-51.337,17.643c-3.838,3.838-7.059,8.061-9.675,12.543l-22.951-22.951L192.899,163.422z
			 M149.543,467.719c-5.422,5.422-14.245,5.421-19.667,0L19.073,356.916c-5.422-5.422-5.422-14.245,0-19.667l22.064-22.064
			l130.471,130.47L149.543,467.719z M250.972,366.291l-68.757,68.757L51.744,304.577l68.757-68.757l27.315,27.315
			c-5.583,20.684-0.289,43.718,15.917,59.923c12.053,12.053,27.886,18.08,43.719,18.08c5.454,0,10.905-0.733,16.205-2.163
			L250.972,366.291z M240.564,312.452c-8.845,8.845-20.604,13.715-33.112,13.715s-24.268-4.871-33.112-13.715
			c-18.258-18.258-18.258-47.966,0-66.225c10.781-10.78,25.818-15.564,40.73-13.098v20.389c0,10.038,8.166,18.204,18.204,18.204
			h20.388C256.129,286.636,251.348,301.668,240.564,312.452z M446.57,95.254c0,0.496-0.122,1.449-0.938,2.265l-16.625,16.625
			c-1.249,1.249-3.281,1.249-4.531,0l-13.494-13.494c-2.929-2.929-7.678-2.929-10.606,0c-2.929,2.929-2.929,7.678,0,10.606
			l3.703,3.703l-28.915,28.915c-19.474,19.475-28.75,46.33-25.45,73.68c1.587,13.159,0.309,26.593-3.686,39.167H233.273
			c-1.767,0-3.204-1.437-3.204-3.204V140.766c12.572-3.994,26.009-5.273,39.167-3.687c27.35,3.299,54.206-5.976,73.68-25.45
			l28.915-28.915l3.516,3.516c2.929,2.929,7.678,2.929,10.606,0c2.929-2.929,2.929-7.678,0-10.606l-13.307-13.307
			c-1.249-1.249-1.249-3.282,0-4.531l16.626-16.625c0.816-0.816,1.77-0.938,2.265-0.938c0.496,0,1.449,0.122,2.266,0.938
			l51.828,51.829C446.448,93.805,446.57,94.758,446.57,95.254z"/>
		<path d="M125.271,316.203c-2.929-2.93-7.678-2.929-10.606,0c-2.929,2.929-2.929,7.678,0,10.606l45.317,45.317
			c1.464,1.465,3.384,2.197,5.303,2.197c1.919,0,3.839-0.732,5.303-2.197c2.929-2.929,2.929-7.678,0-10.606L125.271,316.203z"/>
	</g>
</g>
<g>
</g>
<g>
</g>
<g>
</g>
<g>
</g>
<g>
</g>
<g>
</g>
<g>
</g>
<g>
</g>
<g>
</g>
<g>
</g>
<g>
</g>
<g>
</g>
<g>
</g>
<g>
</g>
<g>
</g>
</svg>
