<?xml version="1.0" encoding="iso-8859-1"?>
<!-- Generator: Adobe Illustrator 23.0.6, SVG Export Plug-In . SVG Version: 6.00 Build 0)  -->
<svg version="1.1" id="Capa_1" xmlns="http://www.w3.org/2000/svg" xmlns:xlink="http://www.w3.org/1999/xlink" x="0px" y="0px"
	 viewBox="0 0 511.999 511.999" style="enable-background:new 0 0 511.999 511.999;" xml:space="preserve">
<g>
	<g>
		<g>
			<g>
				<path style="fill:#DAEDFF;" d="M414.76,142.385l-19.71,175.71l-76.2-33.29l-45.37-19.82l-40.45-17.68
					c-7.59-3.31-8.18-13.85-1.01-17.99l37.98-21.93l120.46-69.54l9.22-5.33c5.99-3.46,13.13,0,14.79,6.03
					C414.8,139.735,414.909,141.025,414.76,142.385z"/>
				<path style="fill:#B6DCFF;" d="M298.99,239.405c-0.52,9.14-6.04,17.08-14.42,20.73l-11.09,4.85l-40.45-17.68
					c-7.59-3.31-8.18-13.85-1.01-17.99l37.98-21.93l16.98,9.81C294.9,221.765,299.5,230.275,298.99,239.405z"/>
				<path style="fill:#F37D7E;" d="M414.76,142.385l-19.71,175.71l-76.2-33.29c3.89-12.6,11.638-27.512,28.73-36.77
					c46.753-25.325,37.92-86.32,31.42-100.97c-19.273-43.44-41-15.924-48.5-33.824c-11.954-28.531,79.833-42.859,83.97,25.305
					C414.547,139.82,414.699,141.095,414.76,142.385z"/>
				<path style="fill:#ED6264;" d="M414.76,142.385l-19.71,175.71l-16.21-7.08l18.92-168.63c-0.06-1.29-0.21-2.57-0.29-3.84
					c-1.92-31.65-22.73-45.51-43.28-48.42c24.21-3.53,57.81,7.8,60.28,48.42C414.55,139.815,414.699,141.095,414.76,142.385z"/>
				<path style="fill:#DAEDFF;" d="M419.766,452.906c-7.771,4.487-17.14-2.642-14.823-11.311
					c3.844-14.379,17.507-30.468,37.241-41.861c19.735-11.394,40.499-15.182,54.874-11.321c8.666,2.327,10.156,14.006,2.385,18.492
					L419.766,452.906z"/>
			</g>
			<g>
				<path style="fill:#DAEDFF;" d="M278.969,247.305l-24.88,10.87l-137.14,59.92l-10.9-97.14l-8.81-78.57
					c-0.92-8.23,7.91-14.01,15.08-9.87l167.66,96.8C287.15,233.455,286.56,243.995,278.969,247.305z"/>
				<path style="fill:#FFCE8B;" d="M254.09,258.175l-137.14,59.92l-10.9-97.14c9.65,3.8,21.12,12.19,33.7,28.85
					C171.65,292.065,235.69,211.035,254.09,258.175z"/>
				<path style="fill:#DAEDFF;" d="M92.233,452.906c7.771,4.487,17.14-2.642,14.823-11.311
					c-3.844-14.379-17.507-30.468-37.241-41.861c-19.735-11.394-40.499-15.182-54.874-11.321
					c-8.666,2.327-10.156,14.006-2.385,18.492L92.233,452.906z"/>
			</g>
		</g>
		<circle style="fill:#A4E540;" cx="186.985" cy="84.415" r="26.673"/>
		<path style="fill:#8EC737;" d="M212.98,90.385c-3.3,14.36-17.61,23.32-31.96,20.03c-0.39-0.09-0.77-0.19-1.16-0.29
			c9.12-2.54,16.6-9.87,18.87-19.74c3.21-13.97-5.19-27.89-18.87-31.68c4.13-1.15,8.61-1.32,13.09-0.29
			C207.31,61.715,216.28,76.025,212.98,90.385z"/>
	</g>
	<g>
		<path d="M511.846,395.842c-0.929-7.067-5.97-12.827-12.843-14.673c-15.182-4.078-34.924-0.865-53.945,8.543l-42.277-73.226
			l19.432-173.262c0.222-1.981,0.103-3.939-0.312-5.81c-2.338-33.949-23.874-46.812-36.568-51.459
			c-20.633-7.553-45.85-3.985-57.414,8.122c-5.999,6.281-7.58,14.323-4.337,22.063c4.837,11.546,14.66,11.654,21.16,11.725
			c7.791,0.085,15.211,0.181,23.357,14.221l-53.812,31.068c-3.587,2.071-4.816,6.658-2.745,10.245
			c2.071,3.588,6.661,4.818,10.245,2.745l52.253-30.168c2.041,8.056,3.863,21.669,1.79,36.536
			c-3.173,22.747-13.88,39.209-31.824,48.93c-13.369,7.242-23.246,18.43-29.468,33.298l-39.807-17.392l7.243-3.164
			c6.119-2.673,10.152-8.476,10.524-15.144c0.373-6.667-2.988-12.884-8.771-16.223l-12.729-7.349l20.117-11.615
			c3.587-2.071,4.816-6.658,2.745-10.245s-6.66-4.817-10.245-2.745L256,206.807l-64.1-37.009c-3.588-2.071-8.174-0.842-10.245,2.745
			c-2.071,3.587-0.842,8.174,2.745,10.245l91.829,53.018c1.204,0.695,1.328,1.799,1.295,2.396c-0.033,0.596-0.279,1.679-1.554,2.236
			l-18.372,8.027c-3.193-5.085-7.28-8.726-12.219-10.849c-13.415-5.765-29.261,0.689-46.037,7.522
			c-25.563,10.414-41.928,15.62-53.606,0.148c-10.61-14.052-21.594-23.919-32.709-29.419l-8.335-74.316
			c-0.155-1.382,0.66-2.137,1.16-2.464c0.499-0.327,1.515-0.772,2.722-0.076l45.157,26.071c3.587,2.071,8.174,0.841,10.245-2.745
			c2.071-3.587,0.842-8.174-2.745-10.245l-45.157-26.071c-5.783-3.339-12.847-3.143-18.436,0.515
			c-5.588,3.657-8.597,10.051-7.853,16.687l19.432,173.264L66.94,389.712c-19.023-9.408-38.763-12.619-53.945-8.543
			c-6.874,1.846-11.915,7.605-12.843,14.673c-0.932,7.093,2.465,13.985,8.654,17.558l79.677,46.001
			c2.746,1.585,5.782,2.368,8.808,2.368c3.792,0,7.567-1.231,10.725-3.652c5.657-4.338,8.124-11.583,6.286-18.459
			c-4.06-15.186-16.703-30.687-34.364-42.458l42.27-73.214l133.792-58.454l83.148,36.328c8.887,3.884,14.838-9.887,6.006-13.745
			l-16.877-7.374c4.89-11.858,12.411-20.442,22.875-26.11c22.052-11.945,35.724-32.709,39.536-60.047
			c2.647-18.982-0.125-36.546-3.26-46.336l15.997-9.236c1.206-0.696,2.224-0.251,2.723,0.076c0.499,0.327,1.314,1.082,1.159,2.464
			l-18.573,165.604l-11.276-4.927c-3.796-1.658-8.218,0.074-9.876,3.87c-1.658,3.796,0.074,8.217,3.87,9.875l18.34,8.013
			l42.27,73.214c-17.661,11.771-30.304,27.271-34.364,42.458c-1.839,6.876,0.629,14.122,6.285,18.459
			c3.158,2.422,6.933,3.653,10.726,3.653c3.024,0,6.062-0.783,8.808-2.368l79.677-46.001
			C509.381,409.827,512.778,402.934,511.846,395.842z M133.764,254.324c8.817,11.681,19.528,15.673,30.751,15.673
			c13.559,0,27.867-5.828,40.485-10.968c13.181-5.369,26.81-10.918,34.456-7.633c1.525,0.655,2.889,1.722,4.117,3.196
			l-120.307,52.563l-8.109-72.305C121.31,239.572,127.534,246.074,133.764,254.324z M99.811,443.532
			c0.362,1.354-0.302,2.206-0.922,2.682c-0.521,0.399-1.59,0.956-2.905,0.197L16.307,400.41c-1.314-0.759-1.367-1.964-1.282-2.614
			c0.102-0.775,0.507-1.776,1.861-2.14c3.083-0.828,6.496-1.231,10.14-1.231c11.712,0,25.814,4.169,39.039,11.805
			C83.405,416.24,96.335,430.534,99.811,443.532z M395.925,126.02l-14.848,8.573c-11.444-19.634-24.087-21.595-36.171-21.728
			c-6.463-0.071-6.579-0.35-7.49-2.523c-0.679-1.622-0.986-3.459,1.35-5.905c8.157-8.539,28.37-9.171,41.41-4.397
			c8.67,3.174,18.78,9.807,23.79,23.627C401.195,123.787,398.439,124.569,395.925,126.02z M495.693,400.41l-79.677,46.001
			c-1.315,0.76-2.384,0.202-2.905-0.197c-0.62-0.476-1.284-1.328-0.923-2.682c3.476-12.999,16.406-27.292,33.746-37.304
			c13.226-7.636,27.326-11.805,39.039-11.805c3.643,0,7.057,0.404,10.14,1.231c1.354,0.364,1.76,1.365,1.861,2.14
			C497.06,398.446,497.006,399.651,495.693,400.41z"/>
		<path d="M256,155.723c4.143,0,7.5-3.358,7.5-7.5v-17.154c0-4.142-3.357-7.5-7.5-7.5c-4.142,0-7.5,3.358-7.5,7.5v17.154
			C248.5,152.365,251.857,155.723,256,155.723z"/>
		<path d="M279.463,160.481c1.272,0.84,2.707,1.242,4.126,1.242c2.435,0,4.823-1.185,6.266-3.368l9.452-14.315
			c2.282-3.457,1.33-8.109-2.126-10.392c-3.455-2.282-8.108-1.33-10.392,2.126l-9.452,14.315
			C275.055,153.546,276.007,158.199,279.463,160.481z"/>
		<path d="M214.818,133.649c-3.457,2.283-4.408,6.935-2.126,10.392l9.453,14.315c1.442,2.184,3.831,3.368,6.266,3.368
			c1.418,0,2.854-0.402,4.126-1.242c3.457-2.283,4.408-6.935,2.126-10.392l-9.453-14.315
			C222.926,132.318,218.273,131.368,214.818,133.649z"/>
		<path d="M179.336,117.721c2.563,0.589,5.126,0.871,7.651,0.871c15.566,0,29.674-10.728,33.303-26.529
			c4.217-18.365-7.293-36.738-25.658-40.955c-8.896-2.043-18.057-0.499-25.792,4.347c-7.735,4.846-13.121,12.415-15.163,21.311
			c-2.043,8.896-0.499,18.056,4.347,25.792C162.872,110.293,170.44,115.679,179.336,117.721z M186.983,65.24
			c1.416,0,2.855,0.158,4.292,0.488c10.304,2.366,16.762,12.674,14.396,22.978c-2.366,10.304-12.672,16.761-22.978,14.396
			c-6.196-1.423-10.982-5.725-13.315-11.163l7.753-0.267c4.14-0.143,7.38-3.614,7.238-7.753c-0.143-4.141-3.631-7.385-7.753-7.238
			l-7.287,0.251C172.33,69.844,179.343,65.24,186.983,65.24z"/>
	</g>
</g>
<g>
</g>
<g>
</g>
<g>
</g>
<g>
</g>
<g>
</g>
<g>
</g>
<g>
</g>
<g>
</g>
<g>
</g>
<g>
</g>
<g>
</g>
<g>
</g>
<g>
</g>
<g>
</g>
<g>
</g>
</svg>
