<?xml version="1.0" encoding="UTF-8" standalone="no"?>
<svg
   xmlns:serif="http://www.serif.com/"
   xmlns:dc="http://purl.org/dc/elements/1.1/"
   xmlns:cc="http://creativecommons.org/ns#"
   xmlns:rdf="http://www.w3.org/1999/02/22-rdf-syntax-ns#"
   xmlns:svg="http://www.w3.org/2000/svg"
   xmlns="http://www.w3.org/2000/svg"
   xmlns:sodipodi="http://sodipodi.sourceforge.net/DTD/sodipodi-0.dtd"
   xmlns:inkscape="http://www.inkscape.org/namespaces/inkscape"
   version="1.1"
   id="svg833"
   xml:space="preserve"
   width="2666.6667"
   height="2666.6667"
   viewBox="0 0 2666.6667 2666.6667"
   sodipodi:docname="pencil-white.svg"
   inkscape:version="1.0.1 (3bc2e813f5, 2020-09-07)"><metadata
     id="metadata839"><rdf:RDF><cc:Work
         rdf:about=""><dc:format>image/svg+xml</dc:format><dc:type
           rdf:resource="http://purl.org/dc/dcmitype/StillImage" /><dc:title></dc:title></cc:Work></rdf:RDF></metadata><defs
     id="defs837"><clipPath
       clipPathUnits="userSpaceOnUse"
       id="clipPath851"><path
         d="M 0,2000 H 2000 V 0 H 0 Z"
         id="path849" /></clipPath><clipPath
       clipPathUnits="userSpaceOnUse"
       id="clipPath887"><path
         d="M 0,2000 H 2000 V 0 H 0 Z"
         id="path885" /></clipPath><clipPath
       clipPathUnits="userSpaceOnUse"
       id="clipPath925"><path
         d="M 0,2000 H 2000 V 0 H 0 Z"
         id="path923" /></clipPath></defs><sodipodi:namedview
     pagecolor="#ffffff"
     bordercolor="#666666"
     borderopacity="1"
     objecttolerance="10"
     gridtolerance="10"
     guidetolerance="10"
     inkscape:pageopacity="0"
     inkscape:pageshadow="2"
     inkscape:window-width="1920"
     inkscape:window-height="1027"
     id="namedview835"
     showgrid="true"
     inkscape:zoom="0.20020312"
     inkscape:cx="1118.8938"
     inkscape:cy="1369.6352"
     inkscape:window-x="-8"
     inkscape:window-y="-8"
     inkscape:window-maximized="1"
     inkscape:current-layer="layer2"><inkscape:grid
       type="xygrid"
       id="grid1830" /></sodipodi:namedview><g
     inkscape:groupmode="layer"
     id="layer4"
     inkscape:label="back white"
     style="display:none" /><g
     inkscape:groupmode="layer"
     id="layer5"
     inkscape:label="back black"
     style="display:none;mix-blend-mode:normal" /><g
     id="g841"
     inkscape:groupmode="layer"
     inkscape:label="ios7_icon_Apple_grid"
     transform="matrix(1.3333333,0,0,-1.3333333,0,2666.6667)"
     style="display:none"
     sodipodi:insensitive="true"><path
       d="M 1959.5,39.5 H 39.5 v 1920 h 1920 z"
       style="fill:none;stroke:#ff3660;stroke-width:1;stroke-linecap:butt;stroke-linejoin:miter;stroke-miterlimit:10;stroke-dasharray:none;stroke-opacity:1"
       id="path843" /><g
       id="g845"><g
         id="g847"
         clip-path="url(#clipPath851)"><g
           id="g853"
           transform="translate(1837.5,999.811)"><path
             d="m 0,0 c 0,-462.815 -375.186,-838 -838,-838 -462.814,0 -838,375.185 -838,838 0,462.814 375.186,838 838,838 C -375.186,838 0,462.814 0,0 Z"
             style="fill:none;stroke:#c8c8c8;stroke-width:1;stroke-linecap:butt;stroke-linejoin:miter;stroke-miterlimit:10;stroke-dasharray:none;stroke-opacity:1"
             id="path855" /></g><g
           id="g857"
           transform="translate(1518,999.5)"><path
             d="m 0,0 c 0,-285.808 -231.692,-517.5 -517.5,-517.5 -285.808,0 -517.5,231.692 -517.5,517.5 0,285.808 231.692,517.5 517.5,517.5 C -231.692,517.5 0,285.808 0,0 Z"
             style="fill:none;stroke:#c8c8c8;stroke-width:1;stroke-linecap:butt;stroke-linejoin:miter;stroke-miterlimit:10;stroke-dasharray:none;stroke-opacity:1"
             id="path859" /></g><g
           id="g861"
           transform="translate(634.0723,39.5)"><path
             d="M 0,0 -0.01,1920"
             style="fill:none;stroke:#c8c8c8;stroke-width:1;stroke-linecap:butt;stroke-linejoin:miter;stroke-miterlimit:10;stroke-dasharray:none;stroke-opacity:1"
             id="path863" /></g><g
           id="g865"
           transform="translate(1365.9277,1959.5)"><path
             d="M 0,0 -0.006,-1920"
             style="fill:none;stroke:#c8c8c8;stroke-width:1;stroke-linecap:butt;stroke-linejoin:miter;stroke-miterlimit:10;stroke-dasharray:none;stroke-opacity:1"
             id="path867" /></g><g
           id="g869"
           transform="translate(1959.5,1364.9375)"><path
             d="M 0,0 -1920,0.021"
             style="fill:none;stroke:#c8c8c8;stroke-width:1;stroke-linecap:butt;stroke-linejoin:miter;stroke-miterlimit:10;stroke-dasharray:none;stroke-opacity:1"
             id="path871" /></g><g
           id="g873"
           transform="translate(39.5,634.082)"><path
             d="M 0,0 1920,0.012"
             style="fill:none;stroke:#c8c8c8;stroke-width:1;stroke-linecap:butt;stroke-linejoin:miter;stroke-miterlimit:10;stroke-dasharray:none;stroke-opacity:1"
             id="path875" /></g><g
           id="g877"
           transform="translate(1365.9219,1000)"><path
             d="m 0,0 c 0,-202.104 -163.837,-365.939 -365.94,-365.939 -202.103,0 -365.94,163.835 -365.94,365.939 0,202.103 163.837,365.94 365.94,365.94 C -163.837,365.94 0,202.103 0,0 Z"
             style="fill:none;stroke:#c8c8c8;stroke-width:1;stroke-linecap:butt;stroke-linejoin:miter;stroke-miterlimit:10;stroke-dasharray:none;stroke-opacity:1"
             id="path879" /></g></g></g><g
       id="g881"><g
         id="g883"
         clip-path="url(#clipPath887)"><g
           id="g889"
           transform="translate(-1,2000)"><path
             d="M 0,0 2000,-2000"
             style="fill:none;stroke:#00ffff;stroke-width:1;stroke-linecap:butt;stroke-linejoin:miter;stroke-miterlimit:10;stroke-dasharray:none;stroke-opacity:1"
             id="path891" /></g><path
           d="M 0,0 2000,2000"
           style="fill:none;stroke:#00ffff;stroke-width:1;stroke-linecap:butt;stroke-linejoin:miter;stroke-miterlimit:10;stroke-dasharray:none;stroke-opacity:1"
           id="path893" /><g
           id="g895"
           transform="translate(0,1837.5)"><path
             d="M 0,0 H 1999"
             style="fill:none;stroke:#00ffff;stroke-width:1;stroke-linecap:butt;stroke-linejoin:miter;stroke-miterlimit:10;stroke-dasharray:none;stroke-opacity:1"
             id="path897" /></g><g
           id="g899"
           transform="translate(0,161.5)"><path
             d="M 0,0 H 2000"
             style="fill:none;stroke:#00ffff;stroke-width:1;stroke-linecap:butt;stroke-linejoin:miter;stroke-miterlimit:10;stroke-dasharray:none;stroke-opacity:1"
             id="path901" /></g><g
           id="g903"
           transform="translate(161.5,2000)"><path
             d="M 0,0 V -2000"
             style="fill:none;stroke:#00ffff;stroke-width:1;stroke-linecap:butt;stroke-linejoin:miter;stroke-miterlimit:10;stroke-dasharray:none;stroke-opacity:1"
             id="path905" /></g><g
           id="g907"
           transform="translate(1837.5,2000)"><path
             d="M 0,0 V -2000"
             style="fill:none;stroke:#00ffff;stroke-width:1;stroke-linecap:butt;stroke-linejoin:miter;stroke-miterlimit:10;stroke-dasharray:none;stroke-opacity:1"
             id="path909" /></g><g
           id="g911"
           transform="translate(2000,999.5)"><path
             d="M 0,0 H -2000"
             style="fill:none;stroke:#00ffff;stroke-width:1;stroke-linecap:butt;stroke-linejoin:miter;stroke-miterlimit:10;stroke-dasharray:none;stroke-opacity:1"
             id="path913" /></g><g
           id="g915"
           transform="translate(999.5,2000)"><path
             d="M 0,0 V -2000"
             style="fill:none;stroke:#00ffff;stroke-width:1;stroke-linecap:butt;stroke-linejoin:miter;stroke-miterlimit:10;stroke-dasharray:none;stroke-opacity:1"
             id="path917" /></g></g></g><g
       id="g919"><g
         id="g921"
         clip-path="url(#clipPath925)"><g
           id="g927"
           transform="translate(1959.5,455.5)"><path
             d="m 0,0 c 0,-229.75 -186.25,-416 -416,-416 h -1088 c -229.75,0 -416,186.25 -416,416 v 1088 c 0,229.75 186.25,416 416,416 h 1088 c 229.75,0 416,-186.25 416,-416 z"
             style="fill:none;stroke:#000000;stroke-width:1;stroke-linecap:butt;stroke-linejoin:miter;stroke-miterlimit:10;stroke-dasharray:none;stroke-opacity:1"
             id="path929" /></g></g></g><path
       style="fill:#ffffff;stroke:#ffffff;stroke-width:176.597;stroke-linecap:square;stroke-linejoin:miter;stroke-miterlimit:4;stroke-dasharray:none;stroke-opacity:1"
       d="m 2451.1945,2534.1464 c 0,-41.7653 0.4112,-75.9369 0.9137,-75.9369 0.5026,0 35.0577,34.1716 76.7891,75.9369 l 75.8752,75.9369 h -76.789 -76.789 z"
       id="path1981"
       transform="matrix(0.75000002,0,0,-0.75000002,0,2000.0001)" /><path
       style="fill:#ffffff;stroke:#ffffff;stroke-width:176.597;stroke-linecap:square;stroke-linejoin:miter;stroke-miterlimit:4;stroke-dasharray:none;stroke-opacity:1"
       d="m 2451.3567,2134.1534 -0.1622,-311.6943 h 79.4688 79.4688 l -0.069,135.097 c -0.075,147.3803 -3.0678,185.0336 -19.5237,245.6503 -21.9145,80.724 -66.6027,163.4371 -119.6446,221.4497 l -19.3759,21.1916 z"
       id="path1983"
       transform="matrix(0.75000002,0,0,-0.75000002,0,2000.0001)" /><path
       style="fill:#ffffff;stroke:#ffffff;stroke-width:176.597;stroke-linecap:square;stroke-linejoin:miter;stroke-miterlimit:4;stroke-dasharray:none;stroke-opacity:1"
       d="m 2451.3567,2134.1534 -0.1622,-311.6943 h 79.784 79.784 l -1.5834,154.5227 c -1.7428,170.0674 -3.1692,183.3104 -27.642,256.6382 -21.8792,65.5567 -67.1745,143.8316 -110.5469,191.0361 l -19.4713,21.1916 z"
       id="path1985"
       transform="matrix(0.75000002,0,0,-0.75000002,0,2000.0001)" /><path
       style="fill:#ffffff;stroke:#ffffff;stroke-width:176.597;stroke-linecap:square;stroke-linejoin:miter;stroke-miterlimit:4;stroke-dasharray:none;stroke-opacity:1"
       d="m 2286.3184,2284.2612 -159.5491,-159.8206 24.6796,-26.4896 c 67.8095,-72.7827 135.7018,-169.2488 174.9716,-248.6116 l 13.3007,-26.8803 h 53.9706 53.9707 v 310.8113 c 0,170.9463 -0.4039,310.8114 -0.8975,310.8114 -0.4937,0 -72.6946,-71.9193 -160.4466,-159.8206 z"
       id="path1987"
       transform="matrix(0.75000002,0,0,-0.75000002,0,2000.0001)" /><path
       style="fill:#ffffff;stroke:#ffffff;stroke-width:176.597;stroke-linecap:square;stroke-linejoin:miter;stroke-miterlimit:4;stroke-dasharray:none;stroke-opacity:1"
       d=""
       id="path1989"
       transform="matrix(0.75000002,0,0,-0.75000002,0,2000.0001)" /><path
       style="fill:#ffffff;stroke:#ffffff;stroke-width:176.597;stroke-linecap:square;stroke-linejoin:miter;stroke-miterlimit:4;stroke-dasharray:none;stroke-opacity:1"
       d="m 1822.5079,2532.6113 v -77.9337 h 309.5928 309.5927 l -6.7283,7.5083 c -3.7006,4.1296 -19.4433,17.4352 -34.9839,29.568 -68.7845,53.7015 -143.8616,88.9605 -231.3425,108.647 -30.9269,6.9597 -45.788,7.6523 -189.8421,8.8475 l -156.2887,1.2966 z"
       id="path1991"
       transform="matrix(0.75000002,0,0,-0.75000002,0,2000.0001)" /><path
       style="fill:#ffffff;stroke:#ffffff;stroke-width:176.597;stroke-linecap:square;stroke-linejoin:miter;stroke-miterlimit:4;stroke-dasharray:none;stroke-opacity:1"
       d="m 1822.5079,2532.6374 v -77.9598 h 309.661 309.6611 l -8.5626,9.2164 c -34.9851,37.6569 -137.8913,98.6297 -202.1333,119.7658 -70.0271,23.0395 -78.3959,23.8904 -250.5716,25.479 l -158.0546,1.4584 z"
       id="path1993"
       transform="matrix(0.75000002,0,0,-0.75000002,0,2000.0001)" /><path
       style="fill:#ffffff;stroke:#ffffff;stroke-width:176.597;stroke-linecap:square;stroke-linejoin:miter;stroke-miterlimit:4;stroke-dasharray:none;stroke-opacity:1"
       d="m 1820.3244,2406.9963 c 0.01,-23.3108 0.5786,-32.3875 1.2702,-20.1703 0.6917,12.2172 0.686,31.2897 -0.013,42.3834 -0.6986,11.0936 -1.2645,1.0978 -1.2575,-22.2131 z"
       id="path1995"
       transform="matrix(0.75000002,0,0,-0.75000002,0,2000.0001)" /><path
       style="fill:#ffffff;stroke:#ffffff;stroke-width:176.597;stroke-linecap:square;stroke-linejoin:miter;stroke-miterlimit:4;stroke-dasharray:none;stroke-opacity:1"
       d="m 1822.5079,2394.8826 v -52.7312 l 43.2664,-23.6955 c 81.3841,-44.5713 151.7803,-94.5784 221.03,-157.0122 l 36.4858,-32.8947 159.5324,159.5324 159.5323,159.5323 h -309.9234 -309.9235 z"
       id="path1997"
       transform="matrix(0.75000002,0,0,-0.75000002,0,2000.0001)" /><path
       style="fill:#ffffff;stroke:#ffffff;stroke-width:176.597;stroke-linecap:square;stroke-linejoin:miter;stroke-miterlimit:4;stroke-dasharray:none;stroke-opacity:1"
       d="m 1822.5079,2081.4959 v -253.7073 l 148.5099,148.326 148.5099,148.326 -24.0088,22.2081 c -66.5586,61.5667 -162.3957,130.2947 -235.0425,168.5569 l -37.9685,19.9975 z"
       id="path1999"
       transform="matrix(0.75000002,0,0,-0.75000002,0,2000.0001)" /><path
       style="fill:#ffffff;stroke:#ffffff;stroke-width:176.597;stroke-linecap:square;stroke-linejoin:miter;stroke-miterlimit:4;stroke-dasharray:none;stroke-opacity:1"
       d="m 1822.5079,2081.4959 v -253.7073 l 148.5099,148.326 148.5099,148.326 -24.0088,22.2081 c -66.5586,61.5667 -162.3957,130.2947 -235.0425,168.5569 l -37.9685,19.9975 z"
       id="path2001"
       transform="matrix(0.75000002,0,0,-0.75000002,0,2000.0001)" /><path
       style="fill:#ffffff;stroke:#ffffff;stroke-width:176.597;stroke-linecap:square;stroke-linejoin:miter;stroke-miterlimit:4;stroke-dasharray:none;stroke-opacity:1"
       d="m 1822.5079,2081.4959 v -253.7073 l 148.5099,148.326 148.5099,148.326 -24.0088,22.2081 c -66.5586,61.5667 -162.3957,130.2947 -235.0425,168.5569 l -37.9685,19.9975 z"
       id="path2003"
       transform="matrix(0.75000002,0,0,-0.75000002,0,2000.0001)" /><path
       style="fill:#ffffff;stroke:#ffffff;stroke-width:176.597;stroke-linecap:square;stroke-linejoin:miter;stroke-miterlimit:4;stroke-dasharray:none;stroke-opacity:1"
       d="m 1972.6157,1970.8009 -148.3103,-148.3418 h 255.4822 255.4822 l -18.1199,33.9125 c -42.2197,79.0169 -93.5019,152.1935 -156.0995,222.7448 -19.5327,22.0144 -36.5513,40.0263 -37.8192,40.0263 -1.2679,0 -69.0449,-66.7538 -150.6155,-148.3418 z"
       id="path2005"
       transform="matrix(0.75000002,0,0,-0.75000002,0,2000.0001)" /><path
       style="fill:#ffffff;stroke:#ffffff;stroke-width:176.597;stroke-linecap:square;stroke-linejoin:miter;stroke-miterlimit:4;stroke-dasharray:none;stroke-opacity:1"
       d="m 1972.6157,1970.8009 -148.3103,-148.3418 h 255.4822 255.4822 l -18.1199,33.9125 c -42.2197,79.0169 -93.5019,152.1935 -156.0995,222.7448 -19.5327,22.0144 -36.5513,40.0263 -37.8192,40.0263 -1.2679,0 -69.0449,-66.7538 -150.6155,-148.3418 z"
       id="path2007"
       transform="matrix(0.75000002,0,0,-0.75000002,0,2000.0001)" /><path
       style="fill:#ffffff;stroke:#ffffff;stroke-width:176.597;stroke-linecap:square;stroke-linejoin:miter;stroke-miterlimit:4;stroke-dasharray:none;stroke-opacity:1"
       d="m 1506.3987,1504.5839 -169.5059,-169.5334 h 241.5273 241.5273 l -2.4374,30.9045 c -8.4052,106.5729 -46.9066,200.2696 -116.4311,283.3456 -11.4228,13.6492 -21.7599,24.8168 -22.9715,24.8168 -1.2116,0 -78.4805,-76.2901 -171.7087,-169.5335 z"
       id="path2009"
       transform="matrix(0.75000002,0,0,-0.75000002,0,2000.0001)" /><path
       style="fill:#ffffff;stroke:#ffffff;stroke-width:176.597;stroke-linecap:square;stroke-linejoin:miter;stroke-miterlimit:4;stroke-dasharray:none;stroke-opacity:1"
       d="m 1506.3987,1504.5839 -169.5059,-169.5334 h 241.5273 241.5273 l -2.5005,30.9045 c -8.9164,110.2019 -48.2664,204.2109 -121.2226,289.6071 -8.7188,10.2054 -16.8575,18.5553 -18.086,18.5553 -1.2286,0 -78.5114,-76.2901 -171.7396,-169.5335 z"
       id="path2011"
       transform="matrix(0.75000002,0,0,-0.75000002,0,2000.0001)" /><g
       style="clip-rule:evenodd;fill-rule:evenodd;stroke-miterlimit:10"
       id="g2128"
       transform="matrix(0.2448001,0,0,-0.24480011,1.0200821,2000.0001)"><g
         id="back-gray"
         serif:id="back gray"><rect
           x="0"
           y="8.835"
           width="8322.8799"
           height="8319.1699"
           style="fill:#c9c9c9"
           id="rect2061" /></g><g
         id="Main-Contents-1920"
         serif:id="Main Contents 1920"><rect
           x="164.58299"
           y="168.75"
           width="8000"
           height="8000"
           style="fill:#b3b3b3;stroke:#ff3660;stroke-width:4.17px"
           id="rect2064" /></g><g
         id="Circle--Extreme-and-Mean-Ratio-Grid"
         serif:id="Circle, Extreme and Mean Ratio Grid"><path
           d="m 7656.25,4167.45 c 0,1928.4 -1563.28,3491.67 -3491.67,3491.67 -1928.39,0 -3491.67,-1563.27 -3491.67,-3491.67 0,-1928.39 1563.28,-3491.67 3491.67,-3491.67 1928.39,0 3491.67,1563.28 3491.67,3491.67 z"
           style="fill:#b3b3b3;fill-rule:nonzero;stroke:#c8c8c8;stroke-width:4.17px"
           id="path2067" /><path
           d="M 6325,4168.75 C 6325,5359.62 5359.617,6325 4168.75,6325 2977.88,6325 2012.5,5359.617 2012.5,4168.75 2012.5,2977.88 2977.883,2012.5 4168.75,2012.5 5359.62,2012.5 6325,2977.883 6325,4168.75 Z"
           style="fill:#b3b3b3;fill-rule:nonzero;stroke:#c8c8c8;stroke-width:4.17px"
           id="path2069" /><path
           d="m 2641.97,8168.75 -0.042,-8000"
           style="fill:none;fill-rule:nonzero;stroke:#c8c8c8;stroke-width:4.17px"
           id="path2071" /><path
           d="m 5691.36,168.75 -0.025,8000"
           style="fill:none;fill-rule:nonzero;stroke:#c8c8c8;stroke-width:4.17px"
           id="path2073" /><path
           d="m 8164.58,2646.09 -8000,-0.088"
           style="fill:none;fill-rule:nonzero;stroke:#c8c8c8;stroke-width:4.17px"
           id="path2075" /><path
           d="m 164.583,5691.32 8000,-0.05"
           style="fill:none;fill-rule:nonzero;stroke:#c8c8c8;stroke-width:4.17px"
           id="path2077" /><path
           d="m 5691.34,4166.67 c 0,842.1 -682.654,1524.75 -1524.75,1524.75 -842.096,0 -1524.75,-682.646 -1524.75,-1524.75 0,-842.096 682.654,-1524.75 1524.75,-1524.75 842.096,0 1524.75,682.654 1524.75,1524.75 z"
           style="fill:#b3b3b3;fill-rule:nonzero;stroke:#c8c8c8;stroke-width:4.17px"
           id="path2079" /></g><g
         id="Axis-and-Diagonal-Grid"
         serif:id="Axis and Diagonal Grid"><path
           d="m -4.167,0 8333.33,8333.33"
           style="fill:none;fill-rule:nonzero;stroke:#00ffff;stroke-width:4.17px"
           id="path2082" /><path
           d="M 0,8333.33 8333.33,0"
           style="fill:none;fill-rule:nonzero;stroke:#00ffff;stroke-width:4.17px"
           id="path2084" /><path
           d="M 0,677.083 H 8329.17"
           style="fill:none;fill-rule:nonzero;stroke:#00ffff;stroke-width:4.17px"
           id="path2086" /><path
           d="M 0,7660.42 H 8333.33"
           style="fill:none;fill-rule:nonzero;stroke:#00ffff;stroke-width:4.17px"
           id="path2088" /><path
           d="M 672.917,0 V 8333.33"
           style="fill:none;fill-rule:nonzero;stroke:#00ffff;stroke-width:4.17px"
           id="path2090" /><path
           d="M 7656.25,0 V 8333.33"
           style="fill:none;fill-rule:nonzero;stroke:#00ffff;stroke-width:4.17px"
           id="path2092" /><path
           d="M 8333.33,4168.75 H 0"
           style="fill:none;fill-rule:nonzero;stroke:#00ffff;stroke-width:4.17px"
           id="path2094" /><path
           d="M 4164.58,0 V 8333.33"
           style="fill:none;fill-rule:nonzero;stroke:#00ffff;stroke-width:4.17px"
           id="path2096" /></g></g></g><g
     id="g1977"
     inkscape:groupmode="layer"
     inkscape:label="ios7_icon_Apple_grid コピー"
     transform="matrix(1.3333333,0,0,-1.3333333,0,2666.6667)"
     style="display:none"
     sodipodi:insensitive="true"><path
       d="M 1959.5,39.5 H 39.5 v 1920 h 1920 z"
       style="fill:none;stroke:#ff3660;stroke-width:1;stroke-linecap:butt;stroke-linejoin:miter;stroke-miterlimit:10;stroke-dasharray:none;stroke-opacity:1"
       id="path1901" /><g
       id="g1933"><g
         id="g1931"
         clip-path="url(#clipPath851)"><g
           id="g1905"
           transform="translate(1837.5,999.811)"><path
             d="m 0,0 c 0,-462.815 -375.186,-838 -838,-838 -462.814,0 -838,375.185 -838,838 0,462.814 375.186,838 838,838 C -375.186,838 0,462.814 0,0 Z"
             style="fill:none;stroke:#c8c8c8;stroke-width:1;stroke-linecap:butt;stroke-linejoin:miter;stroke-miterlimit:10;stroke-dasharray:none;stroke-opacity:1"
             id="path1903" /></g><g
           id="g1909"
           transform="translate(1518,999.5)"><path
             d="m 0,0 c 0,-285.808 -231.692,-517.5 -517.5,-517.5 -285.808,0 -517.5,231.692 -517.5,517.5 0,285.808 231.692,517.5 517.5,517.5 C -231.692,517.5 0,285.808 0,0 Z"
             style="fill:none;stroke:#c8c8c8;stroke-width:1;stroke-linecap:butt;stroke-linejoin:miter;stroke-miterlimit:10;stroke-dasharray:none;stroke-opacity:1"
             id="path1907" /></g><g
           id="g1913"
           transform="translate(634.0723,39.5)"><path
             d="M 0,0 -0.01,1920"
             style="fill:none;stroke:#c8c8c8;stroke-width:1;stroke-linecap:butt;stroke-linejoin:miter;stroke-miterlimit:10;stroke-dasharray:none;stroke-opacity:1"
             id="path1911" /></g><g
           id="g1917"
           transform="translate(1365.9277,1959.5)"><path
             d="M 0,0 -0.006,-1920"
             style="fill:none;stroke:#c8c8c8;stroke-width:1;stroke-linecap:butt;stroke-linejoin:miter;stroke-miterlimit:10;stroke-dasharray:none;stroke-opacity:1"
             id="path1915" /></g><g
           id="g1921"
           transform="translate(1959.5,1364.9375)"><path
             d="M 0,0 -1920,0.021"
             style="fill:none;stroke:#c8c8c8;stroke-width:1;stroke-linecap:butt;stroke-linejoin:miter;stroke-miterlimit:10;stroke-dasharray:none;stroke-opacity:1"
             id="path1919" /></g><g
           id="g1925"
           transform="translate(39.5,634.082)"><path
             d="M 0,0 1920,0.012"
             style="fill:none;stroke:#c8c8c8;stroke-width:1;stroke-linecap:butt;stroke-linejoin:miter;stroke-miterlimit:10;stroke-dasharray:none;stroke-opacity:1"
             id="path1923" /></g><g
           id="g1929"
           transform="translate(1365.9219,1000)"><path
             d="m 0,0 c 0,-202.104 -163.837,-365.939 -365.94,-365.939 -202.103,0 -365.94,163.835 -365.94,365.939 0,202.103 163.837,365.94 365.94,365.94 C -163.837,365.94 0,202.103 0,0 Z"
             style="fill:none;stroke:#c8c8c8;stroke-width:1;stroke-linecap:butt;stroke-linejoin:miter;stroke-miterlimit:10;stroke-dasharray:none;stroke-opacity:1"
             id="path1927" /></g></g></g><g
       id="g1967"><g
         id="g1965"
         clip-path="url(#clipPath887)"><g
           id="g1937"
           transform="translate(-1,2000)"><path
             d="M 0,0 2000,-2000"
             style="fill:none;stroke:#00ffff;stroke-width:1;stroke-linecap:butt;stroke-linejoin:miter;stroke-miterlimit:10;stroke-dasharray:none;stroke-opacity:1"
             id="path1935" /></g><path
           d="M 0,0 2000,2000"
           style="fill:none;stroke:#00ffff;stroke-width:1;stroke-linecap:butt;stroke-linejoin:miter;stroke-miterlimit:10;stroke-dasharray:none;stroke-opacity:1"
           id="path1939" /><g
           id="g1943"
           transform="translate(0,1837.5)"><path
             d="M 0,0 H 1999"
             style="fill:none;stroke:#00ffff;stroke-width:1;stroke-linecap:butt;stroke-linejoin:miter;stroke-miterlimit:10;stroke-dasharray:none;stroke-opacity:1"
             id="path1941" /></g><g
           id="g1947"
           transform="translate(0,161.5)"><path
             d="M 0,0 H 2000"
             style="fill:none;stroke:#00ffff;stroke-width:1;stroke-linecap:butt;stroke-linejoin:miter;stroke-miterlimit:10;stroke-dasharray:none;stroke-opacity:1"
             id="path1945" /></g><g
           id="g1951"
           transform="translate(161.5,2000)"><path
             d="M 0,0 V -2000"
             style="fill:none;stroke:#00ffff;stroke-width:1;stroke-linecap:butt;stroke-linejoin:miter;stroke-miterlimit:10;stroke-dasharray:none;stroke-opacity:1"
             id="path1949" /></g><g
           id="g1955"
           transform="translate(1837.5,2000)"><path
             d="M 0,0 V -2000"
             style="fill:none;stroke:#00ffff;stroke-width:1;stroke-linecap:butt;stroke-linejoin:miter;stroke-miterlimit:10;stroke-dasharray:none;stroke-opacity:1"
             id="path1953" /></g><g
           id="g1959"
           transform="translate(2000,999.5)"><path
             d="M 0,0 H -2000"
             style="fill:none;stroke:#00ffff;stroke-width:1;stroke-linecap:butt;stroke-linejoin:miter;stroke-miterlimit:10;stroke-dasharray:none;stroke-opacity:1"
             id="path1957" /></g><g
           id="g1963"
           transform="translate(999.5,2000)"><path
             d="M 0,0 V -2000"
             style="fill:none;stroke:#00ffff;stroke-width:1;stroke-linecap:butt;stroke-linejoin:miter;stroke-miterlimit:10;stroke-dasharray:none;stroke-opacity:1"
             id="path1961" /></g></g></g><g
       id="g1975"><g
         id="g1973"
         clip-path="url(#clipPath925)"><g
           id="g1971"
           transform="translate(1959.5,455.5)"><path
             d="m 0,0 c 0,-229.75 -186.25,-416 -416,-416 h -1088 c -229.75,0 -416,186.25 -416,416 v 1088 c 0,229.75 186.25,416 416,416 h 1088 c 229.75,0 416,-186.25 416,-416 z"
             style="fill:none;stroke:#000000;stroke-width:1;stroke-linecap:butt;stroke-linejoin:miter;stroke-miterlimit:10;stroke-dasharray:none;stroke-opacity:1"
             id="path1969" /></g></g></g></g><g
     inkscape:groupmode="layer"
     id="layer2"
     inkscape:label="ios7_icon_Apple_grid 2"
     style="display:inline"><g
       id="g1887"
       style="stroke-width:70;stroke-miterlimit:4;stroke-dasharray:none"><g
         id="g1894"
         transform="rotate(-140,1394.3823,1131.6837)"
         style="stroke-width:70;stroke-miterlimit:4;stroke-dasharray:none"><g
           id="g1863"
           transform="matrix(-0.69231009,0.64654949,-0.62335882,-0.71806596,3060.0796,1249.7661)"
           style="stroke-width:73.78005865;stroke-miterlimit:4;stroke-dasharray:none"><path
             style="fill:none;stroke:#ffffff;stroke-width:73.78005865;stroke-linecap:round;stroke-linejoin:round;stroke-miterlimit:4;stroke-dasharray:none;stroke-opacity:1"
             d="M 172.84878,1868.8386 1669.2729,206.8913 2328.2298,743.32687 928.22981,2303.3269"
             id="path1856"
             sodipodi:nodetypes="cccc" /><path
             style="fill:none;stroke:#ffffff;stroke-width:73.78005865;stroke-linecap:round;stroke-linejoin:round;stroke-miterlimit:4;stroke-dasharray:none;stroke-opacity:1"
             d="M 1894.267,593.72189 520.00003,2120"
             id="path1858"
             sodipodi:nodetypes="cc" /></g><path
           style="fill:none;stroke:#ffffff;stroke-width:70;stroke-linecap:butt;stroke-linejoin:round;stroke-miterlimit:4;stroke-dasharray:none;stroke-opacity:1"
           d="M 1775.4576,19.572006 981.65766,63.672016 1383.9667,-606.7847 Z"
           id="path1878"
           sodipodi:nodetypes="cccc" /><path
           sodipodi:type="star"
           style="fill:#ffffff;stroke:#ffffff;stroke-width:76.43711578;stroke-linecap:butt;stroke-linejoin:round;stroke-miterlimit:4;stroke-dasharray:none;stroke-opacity:1"
           id="path1880"
           sodipodi:sides="3"
           sodipodi:cx="1400"
           sodipodi:cy="-160"
           sodipodi:r1="89.442719"
           sodipodi:r2="89.442719"
           sodipodi:arg1="2.677945"
           sodipodi:arg2="2.677945"
           inkscape:flatsided="false"
           inkscape:rounded="0"
           inkscape:randomized="0"
           d="m 1320,-120 v 0 l 85.359,-129.28203 v 0 l 69.282,138.56406 v 0 z"
           inkscape:transform-center-x="-0.82607902"
           inkscape:transform-center-y="-19.999998"
           transform="matrix(0.93318266,-0.05460211,0.07451865,0.8943524,91.107845,-302.24532)" /></g></g></g></svg>
