<?xml version="1.0" encoding="iso-8859-1"?>
<!-- Generator: Adobe Illustrator 21.0.0, SVG Export Plug-In . SVG Version: 6.00 Build 0)  -->
<svg version="1.1" id="Capa_1" xmlns="http://www.w3.org/2000/svg" xmlns:xlink="http://www.w3.org/1999/xlink" x="0px" y="0px"
	 viewBox="0 0 512.002 512.002" style="enable-background:new 0 0 512.002 512.002;" xml:space="preserve">
<g>
	<g>
		<path style="fill-rule:evenodd;clip-rule:evenodd;fill:#CDD3E0;" d="M30.001,50.001h452V30c0-11-9-20-20-20h-412c-11,0-20,9-20,20
			V50.001z"/>
		<path style="fill-rule:evenodd;clip-rule:evenodd;fill:#99EBFB;" d="M482.001,50.001h-452v269.996h252.65v-77.995
			c0-5.5,2.25-10.5,5.875-14.125c3.625-3.625,8.625-5.875,14.125-5.875H422c11,0,20,9,20,20v77.995h40.001V50.001z"/>
		<path style="fill-rule:evenodd;clip-rule:evenodd;fill:#CFCDF5;" d="M422,222.002H302.651c-5.5,0-10.5,2.25-14.125,5.875
			c-3.625,3.625-5.875,8.625-5.875,14.125v77.995v50.001v40v72.004c0,11,9,19.999,20,19.999H422c11,0,20-9,20-19.999v-72.004v-50
			v-40.001v-77.995C442,231.002,433,222.002,422,222.002z"/>
		<rect x="442" y="319.997" style="fill-rule:evenodd;clip-rule:evenodd;fill:#CDD3E0;" width="40.001" height="40.001"/>
		<path style="fill-rule:evenodd;clip-rule:evenodd;fill:#8690AF;" d="M482.001,359.999H442v50h40.002c11,0,20-9,20-20v-30H482.001z
			"/>
		<path style="fill-rule:evenodd;clip-rule:evenodd;fill:#CDD3E0;" d="M282.651,369.999v-50.001H30.001v40.001h166
			c0,5.5,4.499,10,10,10H282.651z"/>
		<path style="fill-rule:evenodd;clip-rule:evenodd;fill:#8690AF;" d="M282.651,369.999h-76.65c-5.5,0-10-4.5-10-10h-166H10v30
			c0,11,9,20,20,20h252.65V369.999z"/>
	</g>
	<g>
		<path d="M502.001,349.999h-10V30c0-16.542-13.458-30-30-30h-412c-16.542,0-30,13.458-30,30v319.999h-10c-5.523,0-10,4.477-10,10
			v30c0,16.542,13.458,30,30,30h242.65v62.004c0,16.542,13.458,30,30,30H422c16.542,0,30-13.458,30-30v-62.004h30.003
			c16.542,0,30-13.458,30-30v-30C512.002,354.476,507.524,349.999,502.001,349.999z M452,349.999v-20.001h20.001v20.001H452z
			 M50.001,20h412c5.514,0,10,4.486,10,10v10.001h-432V30C40.001,24.486,44.487,20,50.001,20z M40.001,329.998h10
			c5.523,0,10-4.477,10-10c0-5.523-4.477-10-10-10h-10V60.001h432v249.996H452v-67.996c0-16.542-13.458-30-30-30H302.65
			c-4.626,0-9.01,1.054-12.926,2.932L246.79,172h15.858c5.523,0,10-4.477,10-10c0-5.523-4.477-10-10-10h-40c-5.523,0-10,4.477-10,10
			v39.999c0,5.523,4.477,10,10,10c5.523,0,10-4.477,10-10v-15.858l42.934,42.934c-1.878,3.917-2.932,8.301-2.932,12.927v67.996
			H140.001c-5.523,0-10,4.477-10,10c0,5.523,4.477,10,10,10H272.65v30.001h-66.649c0-5.523-4.477-10-10-10h-156V329.998z
			 M30,399.999c-5.514,0-10-4.486-10-10v-20h168.685c3.463,5.974,9.928,10,17.316,10h66.649v20H30z M432,482.003
			c0,5.514-4.486,10-10,10H302.65c-5.514,0-10-4.486-10-10V246.143l45.859,45.859h-15.857c-5.523,0-10,4.477-10,10
			c0,5.523,4.477,10,10,10h39.999c5.523,0,10-4.477,10-10v-39.999c0-5.523-4.477-10-10-10s-10,4.477-10,10v15.858l-45.859-45.859
			H422c5.514,0,10,4.486,10,10V482.003z M492.001,389.999c0,5.514-4.486,10-9.999,10H452v-30h40.002V389.999z"/>
		<path d="M362.329,462h-0.007c-5.523,0-9.997,4.477-9.997,10c0,5.523,4.481,10,10.004,10s10-4.477,10-10
			C372.329,466.478,367.852,462,362.329,462z"/>
		<path d="M387.003,100.003H442c5.523,0,10-4.477,10-10c0-5.523-4.477-10-10-10h-54.996c-5.523,0-10,4.477-10,10
			C377.003,95.526,381.48,100.003,387.003,100.003z"/>
		<path d="M342.007,100.003c5.523,0,10-4.477,10-10c0-5.523-4.477-10-10-10H342c-5.523,0-9.997,4.477-9.997,10
			C332.003,95.526,336.484,100.003,342.007,100.003z"/>
		<path d="M95.005,309.998h-0.007c-5.523,0-9.996,4.477-9.996,10c0,5.523,4.48,10,10.003,10c5.523,0,10-4.477,10-10
			C105.005,314.475,100.528,309.998,95.005,309.998z"/>
	</g>
</g>
<g>
</g>
<g>
</g>
<g>
</g>
<g>
</g>
<g>
</g>
<g>
</g>
<g>
</g>
<g>
</g>
<g>
</g>
<g>
</g>
<g>
</g>
<g>
</g>
<g>
</g>
<g>
</g>
<g>
</g>
</svg>
