<?xml version="1.0" encoding="iso-8859-1"?>
<!-- Generator: Adobe Illustrator 21.0.0, SVG Export Plug-In . SVG Version: 6.00 Build 0)  -->
<svg version="1.1" id="Capa_1" xmlns="http://www.w3.org/2000/svg" xmlns:xlink="http://www.w3.org/1999/xlink" x="0px" y="0px"
	 viewBox="0 0 512.001 512.001" style="enable-background:new 0 0 512.001 512.001;" xml:space="preserve">
<g>
	<g>
		<g>
			<path style="fill-rule:evenodd;clip-rule:evenodd;fill:#CDD3E0;" d="M30,96.003h452V76.001c0-11-9-20-20-20H50c-11,0-20,9-20,20
				V96.003z"/>
			<rect x="30" y="96.003" style="fill-rule:evenodd;clip-rule:evenodd;fill:#99EBFB;" width="452" height="269.996"/>
			<path style="fill-rule:evenodd;clip-rule:evenodd;fill:#CDD3E0;" d="M482,365.999H30V406h166c0,5.5,4.499,10,10,10h100
				c5.5,0,10-4.5,10-10h166V365.999z"/>
			<path style="fill-rule:evenodd;clip-rule:evenodd;fill:#8690AF;" d="M306,416H206c-5.5,0-10-4.5-10-10H30H10v30c0,11,9,20,20,20
				h452.002c11,0,20-9,20-20v-30H482H316C316,411.501,311.501,416,306,416z"/>
		</g>
		<rect x="70.002" y="136.004" style="fill-rule:evenodd;clip-rule:evenodd;fill:#CFCDF5;" width="371.997" height="79.997"/>
	</g>
	<g>
		<path d="M502.001,396H492V76.001c0-16.542-13.458-30-30-30H160.002c-5.522,0-10,4.477-10,10c0,5.523,4.478,10,10,10H462
			c5.514,0,10,4.486,10,10v10.001H40V76.001c0-5.514,4.486-10,10-10h20.002c5.522,0,10-4.477,10-10c0-5.523-4.478-10-10-10H50
			c-16.542,0-30,13.458-30,30V396H10c-5.522,0-10,4.477-10,10v30c0,16.542,13.457,30,29.999,30h452.002c16.542,0,30-13.458,30-30
			v-30C512.001,400.477,507.523,396,502.001,396z M40,375.999h311.999c5.523,0,10-4.477,10-10c0-5.523-4.477-10-10-10H40V106.003
			h432v249.996h-30.001c-5.522,0-10,4.477-10,10c0,5.523,4.478,10,10,10H472V396H316c-5.522,0-10,4.477-10,10H206
			c0-5.523-4.477-10-10-10H40V375.999z M492.001,436c0,5.514-4.486,10-10,10H29.999C24.485,446,20,441.514,20,436v-20h168.684
			c3.464,5.974,9.929,10,17.316,10h100c7.388,0,13.853-4.026,17.316-10h168.685V436z"/>
		<path d="M70.002,226.001h371.997c5.523,0,10-4.477,10-10v-79.997c0-5.523-4.477-10-10-10H70.002c-5.522,0-10,4.477-10,10v79.997
			C60.002,221.524,64.479,226.001,70.002,226.001z M431.999,203.622l-128.434-27.619l128.434-27.619V203.622z M347.934,206.001
			H164.067L256,186.231L347.934,206.001z M256,165.774l-91.933-19.77h183.867L256,165.774z M208.436,176.003L80.002,203.622v-55.239
			L208.436,176.003z"/>
		<path d="M70.002,285.999h371.997c5.523,0,10-4.477,10-10c0-5.523-4.477-10-10-10H70.002c-5.522,0-10,4.477-10,10
			C60.002,281.522,64.479,285.999,70.002,285.999z"/>
		<path d="M451.999,315.999c0-5.523-4.477-10-10-10H70.002c-5.522,0-10,4.477-10,10c0,5.523,4.478,10,10,10h371.997
			C447.522,325.999,451.999,321.522,451.999,315.999z"/>
		<path d="M397.003,355.999h-0.008c-5.522,0-9.996,4.477-9.996,10c0,5.523,4.482,10,10.004,10c5.522,0,10-4.477,10-10
			C407.003,360.476,402.525,355.999,397.003,355.999z"/>
		<path d="M115.005,66.001c5.522,0,10-4.477,10-10c0-5.523-4.478-10-10-10h-0.007c-5.522,0-9.996,4.477-9.996,10
			C105.002,61.524,109.482,66.001,115.005,66.001z"/>
	</g>
</g>
<g>
</g>
<g>
</g>
<g>
</g>
<g>
</g>
<g>
</g>
<g>
</g>
<g>
</g>
<g>
</g>
<g>
</g>
<g>
</g>
<g>
</g>
<g>
</g>
<g>
</g>
<g>
</g>
<g>
</g>
</svg>
