<?xml version="1.0" encoding="iso-8859-1"?>
<!-- Generator: Adobe Illustrator 21.0.0, SVG Export Plug-In . SVG Version: 6.00 Build 0)  -->
<svg version="1.1" id="Capa_1" xmlns="http://www.w3.org/2000/svg" xmlns:xlink="http://www.w3.org/1999/xlink" x="0px" y="0px"
	 viewBox="0 0 512.002 512.002" style="enable-background:new 0 0 512.002 512.002;" xml:space="preserve">
<g>
	<g>
		<path style="fill-rule:evenodd;clip-rule:evenodd;fill:#FBF7F6;" d="M502.002,236.004H300.004c0,22-18.003,40-40,40h-120
			l0,119.995v60c0,10.992,9,20,20,20h321.997c11,0,20-9,20-20L502.002,236.004z"/>
		<path style="fill-rule:evenodd;clip-rule:evenodd;fill:#CDD3E0;" d="M140.005,276.004l0-60c0-10.992,9.008-20,20-20H75.003
			l-0.001,119.995l0,60c0,10.992,9,20,20,20h45.002L140.005,276.004z"/>
		<path style="fill-rule:evenodd;clip-rule:evenodd;fill:#CDD3E0;" d="M195.003,196.004H437l0-40H235.002
			C235.002,178.004,217,196.004,195.003,196.004z"/>
		<path style="fill-rule:evenodd;clip-rule:evenodd;fill:#FBF7F6;" d="M75.003,196.004l0-60c0-10.992,9.008-20,19.999-20H10.001
			l0,179.995c0,10.992,9,20,20,20h45.002L75.003,196.004z"/>
		<path style="fill-rule:evenodd;clip-rule:evenodd;fill:#FBF7F6;" d="M130.001,116.004h241.997l0-40H170
			C170,98.004,151.998,116.004,130.001,116.004z"/>
		<path style="fill-rule:evenodd;clip-rule:evenodd;fill:#FFC234;" d="M190.999,36.004h-113H30c-10.992,0-20,9.008-20,20l0,60h120
			c21.997,0,40-18,40-40h201.997v-20c0-11-9.008-20-20-20H304H190.999z"/>
		<path style="fill-rule:evenodd;clip-rule:evenodd;fill:#FFC234;" d="M256.001,116.004h-113H95.002c-10.992,0-20,9.008-20,20l0,60
			h120c21.997,0,40-18,40-40H437v-20c0-11-9.008-20-20-20h-47.998H256.001z"/>
		<path style="fill-rule:evenodd;clip-rule:evenodd;fill:#FFC234;" d="M321.003,196.004h-113h-47.999c-10.992,0-20,9.008-20,20l0,60
			h120c21.997,0,40-18,40-40h201.997v-20c0-11-9.008-20-20-20h-47.998H321.003z"/>
	</g>
	<g>
		<path d="M512.002,236.004c0-0.007-0.001-0.013-0.001-0.019v-19.981c0-16.542-13.458-30-29.999-30H447v-50
			c0-16.542-13.458-30-30-30h-35.003V76.023c0-0.007,0.001-0.013,0.001-0.019s-0.001-0.013-0.001-0.019V56.004
			c0-16.542-13.458-30-30-30H135.008c-5.523,0-10,4.477-10,10c0,5.523,4.478,10,10,10h216.989c5.514,0,10,4.486,10,10v10H170
			c-5.522,0-10,4.477-10,10c0,16.542-13.457,30-29.999,30H95.002H20v-50c0-5.514,4.486-10,10-10h15.008c5.522,0,10-4.477,10-10
			c0-5.523-4.478-10-10-10H30c-16.542,0-30,13.458-30,30v239.995c0,16.542,13.458,30,30,30h35.003v50c0,16.542,13.458,30,29.999,30
			h35.002v50c0,16.542,13.458,30,30,30h231.998c5.522,0,10-4.477,10-10c0-5.523-4.478-10-10-10H160.004c-5.514,0-10-4.486-10-10
			V286.004h110.001c24.145,0,44.349-17.206,48.994-40h183.002v209.995c0,5.514-4.485,10-9.999,10c-5.523,0-10,4.477-10,10
			c0,5.523,4.477,10,10,10c16.541,0,29.999-13.458,29.999-30V236.023C512.001,236.017,512.002,236.01,512.002,236.004z
			 M234.965,186.004c4.379-5.818,7.527-12.612,9.032-20H427v20H234.965z M427,136.004v10H235.002c-5.522,0-10,4.477-10,10
			c0,16.542-13.457,30-29.999,30h-34.999H85.003v-50c0-5.514,4.485-10,9.999-10H417C422.514,126.004,427,130.49,427,136.004z
			 M178.995,86.004h183.002v20H169.963C174.342,100.186,177.49,93.392,178.995,86.004z M30,305.999c-5.514,0-10-4.486-10-10V126.004
			h46.723c-1.11,3.13-1.72,6.494-1.72,10v169.995H30z M95.002,385.999c-5.514,0-9.999-4.486-9.999-10V206.004h46.721
			c-1.11,3.13-1.72,6.494-1.72,10v169.995H95.002z M300.004,226.004c-5.522,0-10,4.477-10,10c0,16.542-13.457,30-29.999,30H150.004
			v-50c0-5.514,4.486-10,10-10h321.998c5.514,0,9.999,4.486,9.999,10v10H300.004z"/>
		<path d="M220.008,226.004h-0.007c-5.522,0-9.997,4.477-9.997,10c0,5.523,4.481,10,10.004,10c5.522,0,10-4.477,10-10
			C230.008,230.481,225.53,226.004,220.008,226.004z"/>
		<path d="M260.01,226.004h-0.008c-5.523,0-9.996,4.477-9.996,10c0,5.523,4.481,10,10.004,10c5.522,0,10-4.477,10-10
			C270.01,230.481,265.532,226.004,260.01,226.004z"/>
		<path d="M180.007,226.004h-0.008c-5.523,0-9.996,4.477-9.996,10c0,5.523,4.481,10,10.004,10c5.522,0,10-4.477,10-10
			C190.007,230.481,185.529,226.004,180.007,226.004z"/>
		<path d="M155.006,146.004h-0.007c-5.523,0-9.997,4.477-9.997,10c0,5.523,4.481,10,10.004,10c5.522,0,10-4.477,10-10
			C165.006,150.481,160.528,146.004,155.006,146.004z"/>
		<path d="M195.008,146.004H195c-5.522,0-9.996,4.477-9.996,10c0,5.523,4.481,10,10.004,10c5.522,0,10-4.477,10-10
			C205.008,150.481,200.53,146.004,195.008,146.004z"/>
		<path d="M115.005,146.004h-0.008c-5.522,0-9.996,4.477-9.996,10c0,5.523,4.481,10,10.004,10c5.522,0,10-4.477,10-10
			C125.005,150.481,120.527,146.004,115.005,146.004z"/>
		<path d="M90.004,86.004c5.522,0,10-4.477,10-10c0-5.523-4.478-10-10-10h-0.007c-5.522,0-9.997,4.477-9.997,10
			C80,81.527,84.481,86.004,90.004,86.004z"/>
		<path d="M130.006,86.004c5.522,0,10-4.477,10-10c0-5.523-4.478-10-10-10h-0.008c-5.522,0-9.996,4.477-9.996,10
			C120.002,81.527,124.483,86.004,130.006,86.004z"/>
		<path d="M49.995,66.004c-5.523,0-9.996,4.477-9.996,10c0,5.523,4.481,10,10.004,10c5.522,0,10-4.477,10-10c0-5.523-4.478-10-10-10
			H49.995z"/>
		<path d="M327.922,331.433l-32.431,81.763c-2.036,5.134,0.475,10.946,5.608,12.982c1.21,0.48,2.458,0.708,3.685,0.708
			c3.979,0,7.742-2.392,9.299-6.316l32.431-81.763c2.036-5.134-0.476-10.946-5.608-12.983
			C335.771,323.787,329.958,326.299,327.922,331.433z"/>
		<path d="M269.644,328.048c-3.906-3.905-10.236-3.905-14.143,0L214.62,368.93c-3.905,3.905-3.905,10.237,0,14.143l40.881,40.881
			c1.953,1.953,4.512,2.929,7.071,2.929c2.559,0,5.118-0.977,7.071-2.929c3.905-3.905,3.905-10.237,0-14.143l-33.81-33.81
			l33.81-33.81C273.549,338.285,273.549,331.954,269.644,328.048z"/>
		<path d="M372.361,423.954c1.953,1.953,4.512,2.929,7.071,2.929c2.559,0,5.118-0.976,7.071-2.929l40.881-40.881
			c3.905-3.905,3.905-10.237,0-14.143l-40.881-40.881c-3.904-3.904-10.234-3.905-14.143,0c-3.905,3.905-3.905,10.237,0,14.142
			l33.81,33.81l-33.81,33.81C368.456,413.717,368.456,420.048,372.361,423.954z"/>
		<path d="M90.012,46.004c5.522,0,10-4.477,10-10c0-5.523-4.478-10-10-10h-0.008c-5.522,0-9.996,4.477-9.996,10
			C80.008,41.527,84.489,46.004,90.012,46.004z"/>
		<path d="M437.005,465.998h-0.008c-5.522,0-9.996,4.477-9.996,10c0,5.523,4.482,10,10.004,10c5.522,0,10-4.477,10-10
			C447.005,470.475,442.527,465.998,437.005,465.998z"/>
	</g>
</g>
<g>
</g>
<g>
</g>
<g>
</g>
<g>
</g>
<g>
</g>
<g>
</g>
<g>
</g>
<g>
</g>
<g>
</g>
<g>
</g>
<g>
</g>
<g>
</g>
<g>
</g>
<g>
</g>
<g>
</g>
</svg>
