<?xml version="1.0" encoding="iso-8859-1"?>
<!-- Generator: Adobe Illustrator 21.0.0, SVG Export Plug-In . SVG Version: 6.00 Build 0)  -->
<svg version="1.1" id="Capa_1" xmlns="http://www.w3.org/2000/svg" xmlns:xlink="http://www.w3.org/1999/xlink" x="0px" y="0px"
	 viewBox="0 0 512.002 512.002" style="enable-background:new 0 0 512.002 512.002;" xml:space="preserve">
<g>
	<g>
		<rect x="30" y="30" style="fill-rule:evenodd;clip-rule:evenodd;fill:#FBF7F6;" width="452.002" height="452.002"/>
		<rect x="10" y="10" style="fill-rule:evenodd;clip-rule:evenodd;fill:#8481E2;" width="40" height="40"/>
		<rect x="10" y="462.002" style="fill-rule:evenodd;clip-rule:evenodd;fill:#8481E2;" width="40" height="40"/>
		<rect x="462.002" y="462.002" style="fill-rule:evenodd;clip-rule:evenodd;fill:#8481E2;" width="40" height="40"/>
		<rect x="462.002" y="10" style="fill-rule:evenodd;clip-rule:evenodd;fill:#8481E2;" width="40" height="40"/>
		<rect x="80.001" y="81.002" style="fill-rule:evenodd;clip-rule:evenodd;fill:#CFCDF5;" width="145.999" height="349.998"/>
		<rect x="286.002" y="81.002" style="fill-rule:evenodd;clip-rule:evenodd;fill:#CFCDF5;" width="145.999" height="144.998"/>
		<rect x="286.002" y="286.002" style="fill-rule:evenodd;clip-rule:evenodd;fill:#CFCDF5;" width="145.999" height="144.998"/>
	</g>
	<g>
		<path d="M50,0H10C4.477,0,0,4.477,0,10v40c0,5.523,4.477,10,10,10h40c5.523,0,10-4.477,10-10V10C60,4.477,55.523,0,50,0z M40,40
			H20V20h20V40z"/>
		<path d="M502.001,0h-40c-5.523,0-10,4.477-10,10v40c0,5.523,4.477,10,10,10h40c5.523,0,10-4.477,10-10V10
			C512.001,4.477,507.524,0,502.001,0z M492.001,40h-20V20h20V40z"/>
		<path d="M50,452.002H10c-5.523,0-10,4.477-10,10v39.999c0,5.523,4.477,10,10,10h40c5.523,0,10-4.477,10-10v-39.999
			C60,456.479,55.523,452.002,50,452.002z M40,492.001H20v-19.999h20V492.001z"/>
		<path d="M502.001,452.002h-40c-5.523,0-10,4.477-10,10v39.999c0,5.523,4.477,10,10,10h40c5.523,0,10-4.477,10-10v-39.999
			C512.001,456.479,507.524,452.002,502.001,452.002z M492.001,492.001h-20v-19.999h20V492.001z"/>
		<path d="M96.001,40h20c5.523,0,10-4.477,10-10c0-5.523-4.477-10-10-10h-20c-5.523,0-10,4.477-10,10
			C86.001,35.522,90.478,40,96.001,40z"/>
		<path d="M156.001,40h20c5.523,0,10-4.477,10-10c0-5.523-4.477-10-10-10h-20c-5.523,0-10,4.477-10,10
			C146.001,35.522,150.478,40,156.001,40z"/>
		<path d="M236.001,20h-20c-5.523,0-10,4.477-10,10c0,5.523,4.477,10,10,10h20c5.523,0,10-4.477,10-10
			C246.001,24.477,241.524,20,236.001,20z"/>
		<path d="M276.001,40h20c5.523,0,10-4.477,10-10c0-5.523-4.477-10-10-10h-20c-5.523,0-10,4.477-10,10
			C266.001,35.522,270.478,40,276.001,40z"/>
		<path d="M336,40h20.001c5.523,0,10-4.477,10-10c0-5.523-4.477-10-10-10H336c-5.523,0-10,4.477-10,10C326,35.522,330.477,40,336,40
			z"/>
		<path d="M396,40h20c5.523,0,10-4.477,10-10c0-5.523-4.477-10-10-10h-20c-5.523,0-10,4.477-10,10C386,35.522,390.477,40,396,40z"/>
		<path d="M20,416c0,5.523,4.477,10,10,10c5.523,0,10-4.477,10-10v-20c0-5.523-4.477-10-10-10c-5.523,0-10,4.477-10,10V416z"/>
		<path d="M20,356c0,5.523,4.477,10,10,10c5.523,0,10-4.477,10-10v-20c0-5.523-4.477-10-10-10c-5.523,0-10,4.477-10,10V356z"/>
		<path d="M20,296.001c0,5.523,4.477,10,10,10c5.523,0,10-4.477,10-10v-20c0-5.523-4.477-10-10-10c-5.523,0-10,4.477-10,10V296.001z
			"/>
		<path d="M20,236.001c0,5.523,4.477,10,10,10c5.523,0,10-4.477,10-10v-20c0-5.523-4.477-10-10-10c-5.523,0-10,4.477-10,10V236.001z
			"/>
		<path d="M20,176.001c0,5.523,4.477,10,10,10c5.523,0,10-4.477,10-10v-20c0-5.523-4.477-10-10-10c-5.523,0-10,4.477-10,10V176.001z
			"/>
		<path d="M30,126.002c5.523,0,10-4.477,10-10v-20c0-5.523-4.477-10-10-10c-5.523,0-10,4.477-10,10v20
			C20,121.524,24.477,126.002,30,126.002z"/>
		<path d="M416,472.002h-20c-5.523,0-10,4.477-10,10c0,5.523,4.477,10,10,10h20c5.523,0,10-4.477,10-10
			C426,476.479,421.523,472.002,416,472.002z"/>
		<path d="M356.001,472.002H336c-5.523,0-10,4.477-10,10c0,5.523,4.477,10,10,10h20.001c5.523,0,10-4.477,10-10
			C366.001,476.479,361.524,472.002,356.001,472.002z"/>
		<path d="M296.001,472.002h-20c-5.523,0-10,4.477-10,10c0,5.523,4.477,10,10,10h20c5.523,0,10-4.477,10-10
			C306.001,476.479,301.524,472.002,296.001,472.002z"/>
		<path d="M236.001,472.002h-20c-5.523,0-10,4.477-10,10c0,5.523,4.477,10,10,10h20c5.523,0,10-4.477,10-10
			C246.001,476.479,241.524,472.002,236.001,472.002z"/>
		<path d="M176.001,472.002h-20c-5.523,0-10,4.477-10,10c0,5.523,4.477,10,10,10h20c5.523,0,10-4.477,10-10
			C186.001,476.479,181.524,472.002,176.001,472.002z"/>
		<path d="M116.001,472.002h-20c-5.523,0-10,4.477-10,10c0,5.523,4.477,10,10,10h20c5.523,0,10-4.477,10-10
			C126.001,476.479,121.524,472.002,116.001,472.002z"/>
		<path d="M482.002,126.002c5.523,0,10-4.477,10-10v-20c0-5.523-4.477-10-10-10c-5.523,0-10,4.477-10,10v20
			C472.002,121.524,476.479,126.002,482.002,126.002z"/>
		<path d="M472.002,176.001c0,5.523,4.477,10,10,10c5.523,0,10-4.477,10-10v-20c0-5.523-4.477-10-10-10c-5.523,0-10,4.477-10,10
			V176.001z"/>
		<path d="M472.002,236.001c0,5.523,4.477,10,10,10c5.523,0,10-4.477,10-10v-20c0-5.523-4.477-10-10-10c-5.523,0-10,4.477-10,10
			V236.001z"/>
		<path d="M472.002,296.001c0,5.523,4.477,10,10,10c5.523,0,10-4.477,10-10v-20c0-5.523-4.477-10-10-10c-5.523,0-10,4.477-10,10
			V296.001z"/>
		<path d="M472.002,356c0,5.523,4.477,10,10,10c5.523,0,10-4.477,10-10v-20c0-5.523-4.477-10-10-10c-5.523,0-10,4.477-10,10V356z"/>
		<path d="M472.002,416c0,5.523,4.477,10,10,10c5.523,0,10-4.477,10-10v-20c0-5.523-4.477-10-10-10c-5.523,0-10,4.477-10,10V416z"/>
		<path d="M432.001,71.002H286.002c-5.523,0-10,4.477-10,10V226c0,5.523,4.477,10,10,10h145.999c5.523,0,10-4.477,10-10V81.002
			C442.001,75.479,437.524,71.002,432.001,71.002z M296.002,105.027l48.808,48.474l-48.808,48.474V105.027z M310.262,91.002h97.479
			l-48.74,48.405L310.262,91.002z M359.001,167.595L407.741,216h-97.479L359.001,167.595z M373.192,153.501l48.808-48.474v96.947
			L373.192,153.501z"/>
		<path d="M432.001,276.002H286.002c-5.523,0-10,4.477-10,10V431c0,5.523,4.477,10,10,10h28.003c5.523,0,10-4.477,10-10
			c0-5.523-4.477-10-10-10h-3.743l48.74-48.405L407.741,421h-3.736c-5.523,0-10,4.477-10,10c0,5.523,4.477,10,10,10h27.996
			c5.523,0,10-4.477,10-10V286.002C442.001,280.479,437.524,276.002,432.001,276.002z M407.741,296.002l-48.74,48.405l-48.74-48.405
			H407.741z M296.002,406.975v-96.947l48.808,48.474L296.002,406.975z M422.001,310.027v96.947l-48.808-48.474L422.001,310.027z"/>
		<path d="M153,91.002c5.523,0,10-4.477,10-10c0-5.523-4.477-10-10-10h-0.007c-5.523,0-9.996,4.477-9.996,10
			C142.997,86.525,147.477,91.002,153,91.002z"/>
		<path d="M359.009,421h-0.007c-5.523,0-9.996,4.477-9.996,10c0,5.523,4.48,10,10.003,10s10-4.477,10-10
			C369.009,425.477,364.532,421,359.009,421z"/>
		<path d="M236,431V81.002c0-5.523-4.477-10-10-10h-28.003c-5.523,0-10,4.477-10,10c0,5.523,4.477,10,10,10h12.996l-57.993,139.024
			L95.008,91.002h12.989c5.523,0,10-4.477,10-10c0-5.523-4.477-10-10-10H80.001c-5.523,0-10,4.477-10,10V431c0,5.523,4.477,10,10,10
			H226C231.523,441,236,436.523,236,431z M216,130.95v250.102l-52.164-125.051L216,130.95z M210.993,421H95.008l57.993-139.024
			L210.993,421z M90.001,381.053V130.949l52.164,125.052L90.001,381.053z"/>
	</g>
</g>
<g>
</g>
<g>
</g>
<g>
</g>
<g>
</g>
<g>
</g>
<g>
</g>
<g>
</g>
<g>
</g>
<g>
</g>
<g>
</g>
<g>
</g>
<g>
</g>
<g>
</g>
<g>
</g>
<g>
</g>
</svg>
