<?xml version="1.0" encoding="iso-8859-1"?>
<!-- Generator: Adobe Illustrator 21.0.0, SVG Export Plug-In . SVG Version: 6.00 Build 0)  -->
<svg version="1.1" id="Capa_1" xmlns="http://www.w3.org/2000/svg" xmlns:xlink="http://www.w3.org/1999/xlink" x="0px" y="0px"
	 viewBox="0 0 512.002 512.002" style="enable-background:new 0 0 512.002 512.002;" xml:space="preserve">
<g>
	<g>
		<polygon style="fill-rule:evenodd;clip-rule:evenodd;fill:#8481E2;" points="30.001,50 50.001,50 50.001,10 10.001,10 10.001,50 
					"/>
		<polygon style="fill-rule:evenodd;clip-rule:evenodd;fill:#8481E2;" points="123.001,10 123.001,50 143.001,50 163.001,50 
			163.001,10 		"/>
		<polygon style="fill-rule:evenodd;clip-rule:evenodd;fill:#8481E2;" points="236.001,10 236.001,50 256.001,50 276.001,50 
			276.001,10 		"/>
		<polygon style="fill-rule:evenodd;clip-rule:evenodd;fill:#8481E2;" points="349.002,10 349.002,50 369.002,50 389.002,50 
			389.002,10 		"/>
		<polygon style="fill-rule:evenodd;clip-rule:evenodd;fill:#8481E2;" points="462.002,10 462.002,50 482.002,50 502.002,50 
			502.002,10 		"/>
		<path style="fill-rule:evenodd;clip-rule:evenodd;fill:#FFC234;" d="M256.001,116.004h-113H95.003c-10.992,0-20,9.008-20,20l0,60
			h120c21.997,0,40-18,40-40H437v-20c0-11-9.008-20-20-20h-47.998H256.001z"/>
		<polygon style="fill-rule:evenodd;clip-rule:evenodd;fill:#8481E2;" points="50.001,462.002 30.001,462.002 10.001,462.002 
			10.001,502.002 50.001,502.002 		"/>
		<polygon style="fill-rule:evenodd;clip-rule:evenodd;fill:#8481E2;" points="123.001,462.002 123.001,502.002 163.001,502.002 
			163.001,462.002 143.001,462.002 		"/>
		<polygon style="fill-rule:evenodd;clip-rule:evenodd;fill:#8481E2;" points="236.001,462.002 236.001,502.002 276.001,502.002 
			276.001,462.002 256.001,462.002 		"/>
		<polygon style="fill-rule:evenodd;clip-rule:evenodd;fill:#8481E2;" points="349.002,462.002 349.002,502.002 389.002,502.002 
			389.002,462.002 369.002,462.002 		"/>
		<polygon style="fill-rule:evenodd;clip-rule:evenodd;fill:#8481E2;" points="462.002,462.002 462.002,502.002 502.002,502.002 
			502.002,462.002 482.002,462.002 		"/>
		<path style="fill-rule:evenodd;clip-rule:evenodd;fill:#45E08C;" d="M255.142,330.142l60-60c7.809-7.81,7.809-20.472,0-28.281
			c-7.81-7.809-20.472-7.809-28.281,0l-45.859,45.859l-15.859-15.859c-7.81-7.809-20.472-7.809-28.281,0
			c-7.809,7.809-7.809,20.472,0,28.281l30,30C234.67,337.951,247.332,337.951,255.142,330.142z"/>
		<path style="fill-rule:evenodd;clip-rule:evenodd;fill:#FBF7F6;" d="M315.142,270.142l-60,60c-7.809,7.809-20.472,7.809-28.281,0
			l-30-30c-7.809-7.809-7.809-20.472,0-28.281c7.81-7.809,20.472-7.809,28.281,0l15.859,15.859l45.859-45.859
			c7.81-7.809,20.472-7.809,28.281,0C322.951,249.67,322.951,262.332,315.142,270.142L315.142,270.142z M143.001,395.999h113
			h113.001H417c11,0,20-9,20-20V156.004H235.003c0,22-18.003,40-40,40h-120l0,179.995c0,10.992,9,20,20,20H143.001z"/>
	</g>
	<g>
		<path d="M195.015,126.004c5.523,0,10-4.477,10-10c0-5.523-4.477-10-10-10h-0.008c-5.523,0-9.996,4.477-9.996,10
			C185.011,121.527,189.492,126.004,195.015,126.004z"/>
		<path d="M155.006,146.004h-0.007c-5.523,0-9.997,4.477-9.997,10c0,5.523,4.481,10,10.004,10c5.523,0,10-4.477,10-10
			C165.006,150.482,160.529,146.004,155.006,146.004z"/>
		<path d="M195.007,166.004c5.523,0,10-4.477,10-10c0-5.523-4.477-10-10-10h-0.007c-5.523,0-9.997,4.477-9.997,10
			C185.004,161.527,189.484,166.004,195.007,166.004z"/>
		<path d="M114.998,146.004c-5.523,0-9.997,4.477-9.997,10c0,5.523,4.481,10,10.004,10c5.523,0,10-4.477,10-10
			c0-5.523-4.477-10-10-10H114.998z"/>
		<path d="M279.79,234.789L279.79,234.789l-38.789,38.789l-8.788-8.789c-11.697-11.697-30.729-11.695-42.424,0.001
			c-11.695,11.696-11.695,30.727,0,42.423l30,30c5.666,5.666,13.199,8.786,21.212,8.786c8.013,0,15.546-3.121,21.212-8.786
			l60.001-60c11.695-11.696,11.695-30.727-0.001-42.423C310.517,223.094,291.486,223.093,279.79,234.789z M308.071,263.07
			l-60.001,60c-1.888,1.888-4.398,2.928-7.069,2.928c-2.67,0-5.181-1.04-7.069-2.928l-30-30c-3.898-3.898-3.898-10.241,0-14.139
			c1.888-1.889,4.399-2.928,7.07-2.928c2.67,0,5.181,1.039,7.069,2.928l15.859,15.859c1.876,1.876,4.419,2.929,7.071,2.929
			c2.652,0,5.196-1.054,7.071-2.929l45.859-45.859c3.899-3.898,10.242-3.898,14.14-0.001
			C311.969,252.83,311.969,259.172,308.071,263.07z"/>
		<path d="M482.003,146.004c5.523,0,10-4.477,10-10V60h9.999c5.523,0,10-4.477,10-10V10c0-5.523-4.477-10-10-10h-40
			c-5.523,0-10,4.477-10,10v40c0,5.523,4.477,10,10,10h10.001v66.004h-26.723c-4.128-11.639-15.243-19.999-28.28-19.999h-37.998V60
			h10c5.523,0,10-4.477,10-10V10c0-5.523-4.477-10-10-10h-40c-5.523,0-10,4.477-10,10v40c0,5.523,4.477,10,10,10h10v46.004h-93V60
			h9.999c5.523,0,10-4.477,10-10V10c0-5.523-4.477-10-10-10h-40c-5.523,0-10,4.477-10,10v40c0,5.523,4.477,10,10,10h10.001v46.004
			h-5.99c-5.523,0-10,4.477-10,10c0,5.523,4.477,10,10,10H417c5.514,0,10,4.486,10,10v10H235.003c-5.523,0-10,4.477-10,10
			c0,16.542-13.458,30-30,30h-110v-50c0-5.514,4.486-10,10-10h55.009c5.523,0,10-4.477,10-10c0-4.481-2.948-8.274-7.011-9.545V60
			h9.999c5.523,0,10-4.477,10-10V10c0-5.523-4.477-10-10-10h-40c-5.523,0-10,4.477-10,10v40c0,5.523,4.477,10,10,10h10v46.004
			H95.003c-13.036,0-24.152,8.361-28.28,19.999H40.001V60H50c5.523,0,10-4.477,10-10V10c0-5.523-4.477-10-10-10H10
			C4.477,0,0,4.477,0,10v40c0,5.523,4.477,10,10,10h10.001v76.004c0,5.523,4.477,10,10,10h35.002v219.995H30.001
			c-5.523,0-10,4.477-10,10v76.003H10c-5.523,0-10,4.477-10,10v40c0,5.523,4.477,10,10,10h40c5.523,0,10-4.477,10-10v-40
			c0-5.523-4.477-10-10-10h-9.999v-66.003h26.722c4.128,11.639,15.243,20,28.28,20h37.998v46.003h-10c-5.523,0-10,4.477-10,10v40
			c0,5.523,4.477,10,10,10h40c5.523,0,10-4.477,10-10v-40c0-5.523-4.477-10-10-10h-9.999v-46.003h93.001v46.003h-10.001
			c-5.523,0-10,4.477-10,10v40c0,5.523,4.477,10,10,10h40c5.523,0,10-4.477,10-10v-40c0-5.523-4.477-10-10-10h-9.999v-46.003h93
			v46.003h-10c-5.523,0-10,4.477-10,10v40c0,5.523,4.477,10,10,10h40c5.523,0,10-4.477,10-10v-40c0-5.523-4.477-10-10-10h-10
			v-46.003H417c13.036,0,24.152-8.361,28.28-20h26.723v66.003h-10.001c-5.523,0-10,4.477-10,10v40c0,5.523,4.477,10,10,10h40
			c5.523,0,10-4.477,10-10v-40c0-5.523-4.477-10-10-10h-9.999v-76.003c0-5.523-4.477-10-10-10H447V156.014c0-0.003,0-0.007,0-0.01
			c0-0.003,0-0.006,0-0.01v-9.991H482.003z M472.002,20h20v20h-20V20z M359.002,20h20v20h-20V20z M246.001,20h20v20h-20V20z
			 M133.001,20h20v20h-20V20z M20,20h20v20H20V20z M40,492.002H20v-20h20V492.002z M153.001,492.002h-20v-20h20V492.002z
			 M266.001,492.002h-20v-20h20V492.002z M379.002,492.002h-20v-20h20V492.002z M492.002,492.002h-20v-20h20V492.002z M417,385.999
			H95.003c-5.514,0-10-4.486-10-10V206.004h110c24.146,0,44.349-17.206,48.995-40H427v209.994
			C427,381.513,422.514,385.999,417,385.999z"/>
		<path d="M297.006,345.997h-0.007c-5.523,0-9.997,4.477-9.997,10c0,5.523,4.481,10,10.004,10c5.523,0,10-4.477,10-10
			C307.006,350.474,302.529,345.997,297.006,345.997z"/>
		<path d="M396.999,345.997h-54.996c-5.523,0-10,4.477-10,10c0,5.523,4.477,10,10,10h54.996c5.523,0,10-4.477,10-10
			C406.999,350.474,402.522,345.997,396.999,345.997z"/>
	</g>
</g>
<g>
</g>
<g>
</g>
<g>
</g>
<g>
</g>
<g>
</g>
<g>
</g>
<g>
</g>
<g>
</g>
<g>
</g>
<g>
</g>
<g>
</g>
<g>
</g>
<g>
</g>
<g>
</g>
<g>
</g>
</svg>
