<?xml version="1.0" encoding="iso-8859-1"?>
<!-- Generator: Adobe Illustrator 21.0.0, SVG Export Plug-In . SVG Version: 6.00 Build 0)  -->
<svg version="1.1" id="Capa_1" xmlns="http://www.w3.org/2000/svg" xmlns:xlink="http://www.w3.org/1999/xlink" x="0px" y="0px"
	 viewBox="0 0 512.002 512.002" style="enable-background:new 0 0 512.002 512.002;" xml:space="preserve">
<g>
	<g>
		<path style="fill-rule:evenodd;clip-rule:evenodd;fill:#8481E2;" d="M10,30v60c0,11.046,8.954,20,20,20s20-8.954,20-20V78.281
			l40.001,40.001l25.858,25.858c7.809,7.81,20.472,7.81,28.281,0c7.809-7.809,7.809-20.472,0-28.281l-25.858-25.858L78.282,50H90
			c11.046,0,20-8.954,20-20c0-11.046-8.954-20-20-20H30C18.954,10,10,18.954,10,30z"/>
		<path style="fill-rule:evenodd;clip-rule:evenodd;fill:#45E08C;" d="M144.14,144.14c-7.809,7.81-20.472,7.81-28.281,0
			l-25.858-25.858V393.72l25.858-25.858c7.809-7.81,20.472-7.81,28.281,0c7.809,7.809,7.809,20.472,0,28.281l-25.859,25.858h275.437
			l-25.859-25.858c-7.809-7.809-7.809-20.472,0-28.281c7.81-7.81,20.472-7.81,28.281,0l25.858,25.858V118.282l-25.858,25.858
			c-7.809,7.81-20.472,7.81-28.281,0c-7.809-7.809-7.809-20.472,0-28.281l25.858-25.858H118.282l25.858,25.858
			C151.95,123.669,151.95,136.331,144.14,144.14z"/>
		<path style="fill-rule:evenodd;clip-rule:evenodd;fill:#8481E2;" d="M433.72,50l-40,40.001l-25.858,25.858
			c-7.809,7.809-7.809,20.472,0,28.281c7.81,7.81,20.472,7.81,28.281,0l25.858-25.858l40.001-40.001V90c0,11.046,8.954,20,20,20
			c11.046,0,20-8.954,20-20V30c0-11.046-8.954-20-20-20h-60c-11.046,0-20,8.954-20,20c0,11.046,8.954,20,20,20H433.72z"/>
		<path style="fill-rule:evenodd;clip-rule:evenodd;fill:#8481E2;" d="M482.001,402.002c-11.046,0-20,8.954-20,20v11.719
			l-40.001-40.001l-25.858-25.858c-7.809-7.81-20.472-7.81-28.281,0c-7.809,7.809-7.809,20.472,0,28.281l25.859,25.858l40,40.001
			h-11.718c-11.046,0-20,8.954-20,20c0,11.046,8.954,20,20,20h60c11.046,0,20-8.954,20-20v-60
			C502.001,410.956,493.047,402.002,482.001,402.002z"/>
		<path style="fill-rule:evenodd;clip-rule:evenodd;fill:#8481E2;" d="M78.282,462.001l40-40.001l25.859-25.858
			c7.809-7.809,7.809-20.472,0-28.281c-7.809-7.81-20.472-7.81-28.281,0L90.001,393.72L50,433.72v-11.719c0-11.046-8.954-20-20-20
			s-20,8.954-20,20v60c0,11.046,8.954,20,20,20h60c11.046,0,20-8.954,20-20c0-11.046-8.954-20-20-20H78.282z"/>
	</g>
	<g>
		<path d="M453.905,100.52c4.271,11.369,15.254,19.48,28.097,19.48c16.542,0,30-13.458,30-30V30c0-16.542-13.458-30-30-30h-60
			c-16.542,0-30,13.458-30,30c0,12.843,8.111,23.826,19.479,28.097l-21.904,21.904H239.998c-5.523,0-10,4.477-10,10
			c0,5.523,4.477,10,10,10h129.578l-8.787,8.787c-5.666,5.665-8.786,13.199-8.786,21.212c0,8.013,3.12,15.546,8.786,21.211
			c5.666,5.666,13.199,8.786,21.212,8.786s15.546-3.121,21.212-8.786l8.787-8.787v227.153l-8.787-8.787
			c-11.696-11.696-30.727-11.696-42.424,0c-3.218,3.218-5.613,7.04-7.083,11.209h-26.698c-5.522,0-10,4.477-10,10
			c0,5.523,4.478,10,10,10h26.696c1.47,4.171,3.865,7.995,7.085,11.215l8.787,8.787H142.425l8.788-8.788
			c11.695-11.696,11.695-30.727,0-42.423c-11.698-11.697-30.728-11.696-42.425,0L100,369.578V142.424l8.787,8.787
			c5.666,5.666,13.199,8.786,21.213,8.786c8.013,0,15.546-3.121,21.212-8.787c11.695-11.696,11.695-30.727,0-42.423l-8.787-8.787
			h7.573c5.522,0,10-4.477,10-10c0-5.523-4.478-10-10-10h-27.573l-21.904-21.904C111.889,53.826,120,42.843,120,30
			c0-16.542-13.458-30-30-30H30C13.458,0,0,13.458,0,30v60c0,16.542,13.458,30,30,30c12.843,0,23.826-8.111,28.097-19.48L80,122.424
			v267.154l-21.903,21.904c-4.271-11.369-15.254-19.48-28.097-19.48c-16.542,0-30,13.458-30,30.001v59.999c0,16.542,13.458,30,30,30
			h60c16.542,0,30-13.458,30-30c0-12.843-8.111-23.826-19.479-28.097l21.904-21.904h267.152l21.904,21.904
			c-11.368,4.271-19.479,15.254-19.479,28.097c0,16.542,13.458,30,30,30h60c16.542,0,30-13.458,30-30v-59.999
			c0-16.543-13.458-30.001-30-30.001c-12.843,0-23.826,8.111-28.097,19.48L432,389.577V122.424L453.905,100.52z M57.072,71.21
			c-1.913-1.913-4.471-2.929-7.073-2.929c-1.288,0-2.588,0.249-3.825,0.762C42.437,70.59,40,74.237,40,78.281V90
			c0,5.514-4.486,10-10,10c-5.514,0-10-4.486-10-10V30c0-5.514,4.486-10,10-10h60c5.514,0,10,4.486,10,10c0,5.514-4.486,10-10,10
			H78.282c-4.045,0-7.691,2.437-9.239,6.173c-1.548,3.737-0.691,8.038,2.168,10.898l65.859,65.859
			c3.897,3.898,3.897,10.241,0,14.139c-1.888,1.889-4.4,2.928-7.069,2.928c-2.672,0-5.183-1.04-7.07-2.928L57.072,71.21z
			 M69.042,465.828c1.548,3.737,5.194,6.173,9.239,6.173H90c5.514,0,10,4.486,10,10c0,5.514-4.486,10-10,10H30
			c-5.514,0-10-4.486-10-10v-59.999c0-5.514,4.486-10.001,10-10.001c5.514,0,10,4.486,10,10.001v11.719
			c0,4.044,2.436,7.691,6.173,9.239c3.736,1.549,8.038,0.692,10.898-2.168l65.858-65.859c1.888-1.889,4.398-2.928,7.07-2.928
			c2.67,0,5.182,1.04,7.069,2.928c3.897,3.898,3.897,10.241,0,14.139l-25.857,25.856c-0.002,0.002-0.003,0.003-0.005,0.005
			L71.21,454.93C68.351,457.791,67.494,462.091,69.042,465.828z M454.93,440.792c2.86,2.86,7.162,3.717,10.898,2.168
			c3.736-1.548,6.173-5.194,6.173-9.239v-11.719c0-5.514,4.486-10.001,10-10.001s10,4.486,10,10.001v59.999c0,5.514-4.486,10-10,10
			h-60c-5.514,0-10-4.486-10-10c0-5.514,4.486-10,10-10h11.719c4.045,0,7.691-2.436,9.239-6.173
			c1.548-3.737,0.691-8.038-2.168-10.898l-65.859-65.859c-1.889-1.888-2.929-4.399-2.929-7.069c0-2.671,1.04-5.181,2.929-7.069
			c1.888-1.889,4.398-2.928,7.069-2.928s5.182,1.04,7.069,2.928L454.93,440.792z M389.071,137.069
			c-1.888,1.889-4.398,2.928-7.069,2.928s-5.182-1.04-7.069-2.928c-1.889-1.888-2.929-4.398-2.929-7.069
			c0-2.671,1.04-5.181,2.929-7.069l65.859-65.859c2.859-2.86,3.716-7.161,2.168-10.898C441.411,42.437,437.765,40,433.72,40h-11.719
			c-5.514,0-10-4.486-10-10c0-5.514,4.486-10,10-10h60c5.514,0,10,4.486,10,10v60c0,5.514-4.486,10-10,10s-10-4.486-10-10V78.281
			c0-4.045-2.436-7.691-6.173-9.239c-3.736-1.548-8.038-0.692-10.898,2.167L389.071,137.069z"/>
		<path d="M195.001,100.001c5.522,0,10-4.477,10-10c0-5.523-4.478-10-10-10h-0.007c-5.522,0-9.996,4.477-9.996,10
			C184.998,95.523,189.479,100.001,195.001,100.001z"/>
		<path d="M292.011,381.999c0-5.523-4.478-10-10-10h-0.007c-5.522,0-9.997,4.477-9.997,10c0,5.523,4.481,10,10.004,10
			C287.533,391.999,292.011,387.522,292.011,381.999z"/>
	</g>
</g>
<g>
</g>
<g>
</g>
<g>
</g>
<g>
</g>
<g>
</g>
<g>
</g>
<g>
</g>
<g>
</g>
<g>
</g>
<g>
</g>
<g>
</g>
<g>
</g>
<g>
</g>
<g>
</g>
<g>
</g>
</svg>
