<?xml version="1.0" encoding="iso-8859-1"?>
<!-- Generator: Adobe Illustrator 21.0.0, SVG Export Plug-In . SVG Version: 6.00 Build 0)  -->
<svg version="1.1" id="Capa_1" xmlns="http://www.w3.org/2000/svg" xmlns:xlink="http://www.w3.org/1999/xlink" x="0px" y="0px"
	 viewBox="0 0 512.002 512.002" style="enable-background:new 0 0 512.002 512.002;" xml:space="preserve">
<g>
	<g>
		<path style="fill-rule:evenodd;clip-rule:evenodd;fill:#FBF7F6;" d="M130.001,116.001h-120l0,239.997c0,10.995,9,20,20,20h351.998
			c11,0,20-9,20-20l0-279.997H170C170,98.001,151.998,116.001,130.001,116.001z"/>
		<path style="fill-rule:evenodd;clip-rule:evenodd;fill:#FFC234;" d="M401.999,76.001v-20c0-11-9-20-20-20H30c-11,0-20,9-20,20
			l0,60h120c22,0,40-18,40-40H401.999z"/>
		<path style="fill-rule:evenodd;clip-rule:evenodd;fill:#99EBFB;" d="M401.999,476.001c55.08,0,100.004-44.923,100.004-100.003
			s-44.924-100.003-100.004-100.003s-100.004,44.923-100.004,100.003S346.918,476.001,401.999,476.001z"/>
		<path style="fill-rule:evenodd;clip-rule:evenodd;fill:#8481E2;" d="M251.159,250.235c-7.809,7.809-7.809,20.472,0,28.281
			c7.81,7.81,20.472,7.81,28.281,0l39.533-39.533c7.81-7.809,7.81-20.472,0-28.281l-39.532-39.532c-7.809-7.81-20.472-7.81-28.281,0
			c-7.809,7.809-7.809,20.472,0,28.281l5.47,5.47l-101.261,0l5.471-5.471c7.809-7.81,7.809-20.472,0-28.281
			c-7.809-7.809-20.472-7.809-28.281,0l-39.533,39.533c-7.809,7.809-7.809,20.472,0,28.281l39.533,39.532
			c7.809,7.809,20.472,7.809,28.281,0c7.809-7.81,7.809-20.472,0-28.281l-5.47-5.469l101.26,0L251.159,250.235z"/>
		<path style="fill-rule:evenodd;clip-rule:evenodd;fill:#45E08C;" d="M423.86,335.105c7.809-7.809,20.472-7.809,28.281,0
			c7.809,7.809,7.809,20.472,0,28.281l-53.502,53.502c-7.81,7.809-20.472,7.809-28.281,0l-26.751-26.751
			c-7.809-7.81-7.809-20.472,0-28.281c7.81-7.809,20.472-7.809,28.281,0l12.611,12.611L423.86,335.105z"/>
	</g>
	<g>
		<path d="M130.004,86.001c5.522,0,10-4.477,10-10c0-5.523-4.478-10-10-10h-0.007c-5.522,0-9.997,4.477-9.997,10
			C120,81.524,124.481,86.001,130.004,86.001z"/>
		<path d="M90.003,86.001c5.522,0,10-4.477,10-10c0-5.523-4.478-10-10-10h-0.008c-5.522,0-9.996,4.477-9.996,10
			C79.999,81.524,84.48,86.001,90.003,86.001z"/>
		<path d="M49.994,66.001c-5.523,0-9.997,4.477-9.997,10c0,5.523,4.481,10,10.004,10c5.522,0,10-4.477,10-10c0-5.523-4.478-10-10-10
			H49.994z"/>
		<path d="M411.998,266.453V76.02c0-0.007,0.001-0.013,0.001-0.019s-0.001-0.013-0.001-0.019V56.001c0-16.542-13.457-30-29.999-30
			H135.007c-5.522,0-10,4.477-10,10c0,5.523,4.478,10,10,10h246.992c5.514,0,9.999,4.486,9.999,10v10H170c-5.522,0-10,4.477-10,10
			c0,16.542-13.458,30-29.999,30H20v-50c0-5.514,4.486-10,10-10h15.007c5.522,0,10-4.477,10-10c0-5.523-4.478-10-10-10H30
			c-16.542,0-30,13.458-30,30v299.997c0,16.542,13.458,29.999,30,29.999h262.454c5.07,55.987,52.259,100.003,109.544,100.003
			c60.656,0,110.004-49.347,110.004-110.003C512.002,318.712,467.985,271.523,411.998,266.453z M401.998,466.001
			c-49.628,0-90.003-40.376-90.003-90.003c0-9.64,1.518-19.13,4.514-28.209c1.73-5.245-1.119-10.899-6.364-12.629
			c-5.241-1.729-10.898,1.119-12.63,6.364c-2.62,7.943-4.299,16.143-5.052,24.475H30c-5.514,0-10-4.486-10-9.999V126.001h110.001
			c24.145,0,44.349-17.206,48.994-40h213.003v180.461c-8.334,0.754-16.536,2.433-24.482,5.055c-5.245,1.73-8.094,7.384-6.364,12.629
			c1.73,5.244,7.383,8.094,12.63,6.364c9.083-2.996,18.577-4.516,28.217-4.516c49.628,0,90.004,40.375,90.004,90.003
			S451.626,466.001,401.998,466.001z"/>
		<path d="M90.01,46.001c5.522,0,10-4.477,10-10c0-5.523-4.478-10-10-10h-0.007c-5.522,0-9.996,4.477-9.996,10
			C80.007,41.524,84.487,46.001,90.01,46.001z"/>
		<path d="M338.357,312.355c3.905-3.905,3.905-10.237,0-14.142c-3.906-3.905-10.236-3.905-14.143,0l-0.005,0.005
			c-3.905,3.905-3.902,10.234,0.003,14.139c1.952,1.952,4.511,2.928,7.069,2.928C333.842,315.285,336.403,314.308,338.357,312.355z"
			/>
		<path d="M459.212,328.034c-11.697-11.695-30.727-11.695-42.424,0l-32.29,32.291l-5.54-5.539
			C373.293,349.12,365.76,346,357.746,346c-8.013,0-15.546,3.121-21.212,8.787c-11.694,11.696-11.694,30.727,0,42.423l26.752,26.751
			c5.849,5.848,13.53,8.771,21.212,8.771c7.682,0,15.363-2.924,21.212-8.771l53.502-53.503
			C470.908,358.762,470.908,339.731,459.212,328.034z M445.069,356.316l-53.502,53.503c-3.897,3.897-10.241,3.898-14.139,0
			l-26.752-26.75c-3.897-3.898-3.897-10.241,0-14.139c1.888-1.889,4.399-2.928,7.069-2.928c2.671,0,5.182,1.04,7.069,2.928
			l12.611,12.61c3.906,3.905,10.236,3.904,14.143,0l39.361-39.362c3.898-3.898,10.24-3.898,14.139,0
			C448.968,346.075,448.968,352.418,445.069,356.316z"/>
		<path d="M326.045,203.631l-39.532-39.532c-11.697-11.696-30.727-11.696-42.424,0c-5.666,5.666-8.786,13.199-8.786,21.212
			c0,3.319,0.535,6.555,1.565,9.61l-61.755,0.001c3.521-10.465,1.12-22.501-7.202-30.823c-11.697-11.696-30.727-11.696-42.424,0
			l-39.533,39.533c-11.696,11.696-11.696,30.727,0,42.424l39.533,39.532c11.697,11.696,30.727,11.696,42.424,0
			c5.666-5.666,8.786-13.199,8.786-21.212c0-3.318-0.535-6.555-1.564-9.61l61.734,0c-1.03,3.056-1.565,6.292-1.565,9.611
			c0,8.013,3.121,15.546,8.786,21.212c5.849,5.848,13.53,8.772,21.212,8.772c7.682,0,15.363-2.924,21.212-8.772l39.533-39.533
			C337.741,234.359,337.741,215.327,326.045,203.631z M311.902,231.912l-39.533,39.533c-3.898,3.898-10.24,3.898-14.139,0
			c-1.889-1.888-2.929-4.398-2.929-7.069c0-2.67,1.04-5.181,2.929-7.069l5.47-5.47c2.86-2.86,3.717-7.161,2.169-10.898
			c-1.548-3.737-5.194-6.173-9.239-6.173l-101.26,0c-4.045,0-7.691,2.437-9.239,6.173c-1.548,3.737-0.691,8.038,2.169,10.898
			l5.469,5.469c3.898,3.898,3.898,10.241,0,14.139c-3.898,3.898-10.24,3.898-14.139,0l-39.533-39.532
			c-3.898-3.898-3.898-10.241,0-14.139l39.533-39.533c3.898-3.898,10.24-3.898,14.139,0c1.889,1.888,2.929,4.399,2.929,7.069
			s-1.04,5.181-2.929,7.069l-5.471,5.471c-2.859,2.86-3.716,7.162-2.168,10.898c1.548,3.737,5.194,6.173,9.239,6.173l101.261-0.001
			c4.045,0,7.691-2.436,9.239-6.173c1.548-3.737,0.691-8.038-2.168-10.898l-5.47-5.47c-3.898-3.898-3.898-10.241,0-14.139
			c3.898-3.898,10.24-3.898,14.139,0l39.532,39.532C315.801,221.672,315.801,228.014,311.902,231.912z"/>
	</g>
</g>
<g>
</g>
<g>
</g>
<g>
</g>
<g>
</g>
<g>
</g>
<g>
</g>
<g>
</g>
<g>
</g>
<g>
</g>
<g>
</g>
<g>
</g>
<g>
</g>
<g>
</g>
<g>
</g>
<g>
</g>
</svg>
