<?xml version="1.0" encoding="iso-8859-1"?>
<!-- Generator: Adobe Illustrator 21.0.0, SVG Export Plug-In . SVG Version: 6.00 Build 0)  -->
<svg version="1.1" id="Capa_1" xmlns="http://www.w3.org/2000/svg" xmlns:xlink="http://www.w3.org/1999/xlink" x="0px" y="0px"
	 viewBox="0 0 512.003 512.003" style="enable-background:new 0 0 512.003 512.003;" xml:space="preserve">
<g>
	<g>
		<circle style="fill-rule:evenodd;clip-rule:evenodd;fill:#CFCDF5;" cx="96.003" cy="30.001" r="20"/>
		<polygon style="fill-rule:evenodd;clip-rule:evenodd;fill:#8481E2;" points="236.001,30.001 236.001,50 256.001,50 276.001,50 
			276.001,30.001 276.001,10 236.001,10 		"/>
		<circle style="fill-rule:evenodd;clip-rule:evenodd;fill:#CFCDF5;" cx="416" cy="30" r="20"/>
		<path style="fill-rule:evenodd;clip-rule:evenodd;fill:#FBF7F6;" d="M306.324,142.005l-21.879-40.001L256.001,50l-28.443,52.003
			l-21.879,40.001l-28.773,52.605l29.095,63.455h100l29.095-63.455L306.324,142.005L306.324,142.005z M256.001,173.785
			c11.184,0,20.25,9.066,20.25,20.25c0,11.184-9.066,20.25-20.25,20.25c-11.184,0-20.25-9.066-20.25-20.25
			C235.751,182.851,244.818,173.785,256.001,173.785z"/>
		<circle style="fill-rule:evenodd;clip-rule:evenodd;fill:#99EBFB;" cx="256.001" cy="194.034" r="20.25"/>
		<polygon style="fill-rule:evenodd;clip-rule:evenodd;fill:#FFC234;" points="306.001,258.065 206.001,258.065 196.002,258.065 
			196.002,298.065 206.001,298.065 306.001,298.065 316.001,298.065 316.001,258.065 		"/>
		<rect x="206.001" y="298.065" style="fill-rule:evenodd;clip-rule:evenodd;fill:#FF5D7F;" width="100" height="113.936"/>
		<polygon style="fill-rule:evenodd;clip-rule:evenodd;fill:#99EBFB;" points="316.001,258.065 316.001,298.065 306.001,298.065 
			306.001,412.001 482.001,412.001 482.001,142.005 306.324,142.005 335.096,194.61 306.001,258.065 		"/>
		<path style="fill-rule:evenodd;clip-rule:evenodd;fill:#CDD3E0;" d="M306.324,142.005h175.677v-20.002c0-11-9-20-20-20H284.445
			L306.324,142.005z"/>
		<path style="fill-rule:evenodd;clip-rule:evenodd;fill:#CDD3E0;" d="M205.679,142.005l21.879-40.001H50.001c-11,0-20,9-20,20
			v20.002H205.679z"/>
		<polygon style="fill-rule:evenodd;clip-rule:evenodd;fill:#99EBFB;" points="205.679,142.005 30.001,142.005 30.001,412.001 
			206.001,412.001 206.001,298.065 196.002,298.065 196.002,258.065 206.001,258.065 176.906,194.61 		"/>
		<path style="fill-rule:evenodd;clip-rule:evenodd;fill:#CDD3E0;" d="M206.001,412.001h-176v40.001h166c0,5.5,4.499,10,10,10h100
			c5.5,0,10-4.5,10-10h166v-40.001h-176H206.001z"/>
		<path style="fill-rule:evenodd;clip-rule:evenodd;fill:#8690AF;" d="M196.001,452.003h-166H10.001v30c0,11,9,20,20,20h452.002
			c11,0,20-9,20-20v-30h-20.001h-166c0,5.5-4.499,10-10,10h-100C200.501,462.003,196.001,457.503,196.001,452.003z"/>
	</g>
	<g>
		<path d="M502.002,442.003h-10V122.004c0-16.542-13.458-30-30-30H290.373L272.869,60h3.133c5.523,0,10-4.477,10-10V40H387.72
			c4.128,11.639,15.243,20,28.28,20c16.542,0,30-13.458,30-30c0-16.542-13.458-30-30-30c-13.036,0-24.152,8.361-28.28,20H286.001V10
			c0-5.523-4.477-10-10-10h-40c-5.523,0-10,4.477-10,10v10H124.283c-4.128-11.639-15.243-20-28.28-20c-16.542,0-30,13.458-30,30
			s13.458,30,30,30c13.036,0,24.152-8.361,28.28-20h101.719v10c0,5.523,4.477,10,10,10h3.133l-17.505,32.004h-81.628
			c-5.523,0-10,4.477-10,10c0,5.523,4.477,10,10,10h70.689l-10.94,20.001H40.001v-10.001c0-5.514,4.486-10,10-10
			c5.523,0,10-4.477,10-10c0-5.523-4.477-10-10-10c-16.542,0-30,13.458-30,30v319.999h-10c-5.523,0-10,4.477-10,10v30
			c0,16.542,13.458,30,30,30h452.002c16.542,0,30-13.458,30-30v-30C512.002,446.479,507.525,442.003,502.002,442.003z M416,20
			c5.514,0,10,4.486,10,10c0,5.514-4.486,10-10,10c-5.514,0-10-4.486-10-10C406,24.486,410.486,20,416,20z M96.003,40
			c-5.514,0-10-4.486-10-10c0-5.514,4.486-10,10-10c5.512,0,9.997,4.483,10,9.995c0,0.002,0,0.003,0,0.005c0,0.002,0,0.003,0,0.005
			C106,35.517,101.515,40,96.003,40z M216.001,402.001v-93.936h80v93.936H216.001z M214.451,146.807
			c0.012-0.023,0.025-0.045,0.037-0.068l21.841-39.931c0.013-0.024,0.026-0.048,0.039-0.072l9.634-17.613v76.368
			c-11.779,4.139-20.25,15.368-20.25,28.544c0,16.68,13.57,30.25,30.25,30.25c16.68,0,30.25-13.57,30.25-30.25
			c0-13.176-8.471-24.405-20.25-28.544V89.123l9.634,17.613c0.013,0.024,0.026,0.048,0.039,0.072l21.845,39.939
			c0.009,0.017,0.019,0.035,0.029,0.052l26.367,48.207l-24.329,53.06h-87.168l-24.329-53.06L214.451,146.807z M255.997,183.785
			c0.001,0,0.003,0,0.005,0c0.002,0,0.003,0,0.005,0c5.649,0.003,10.245,4.599,10.245,10.25c0,5.652-4.598,10.25-10.25,10.25
			c-5.652,0-10.25-4.598-10.25-10.25C245.751,188.384,250.347,183.787,255.997,183.785z M206.002,288.065v-20h99.947
			c0.015,0,0.031,0.002,0.046,0.002c0.002,0,0.004,0,0.006,0v19.998H206.002z M316.001,308.065c5.523,0,10-4.477,10-10v-40
			c0-3.71-2.025-6.941-5.025-8.667l23.21-50.62c1.317-2.871,1.199-6.195-0.316-8.967l-20.679-37.807h148.81v249.996h-156V308.065z
			 M462.001,112.004c5.514,0,10,4.486,10,10v10.001H312.252l-10.94-20.001H462.001z M246.001,20h20v20h-20V20z M188.811,152.005
			l-20.679,37.807c-1.516,2.771-1.633,6.096-0.316,8.967l23.211,50.621c-3,1.726-5.025,4.957-5.025,8.666v40
			c0,5.523,4.477,10,9.999,10v93.936h-156V152.005H188.811z M40.001,422.001h432v20.001h-156c-5.523,0-10,4.477-10,10h-100
			c0-5.523-4.477-10-10-10h-156V422.001z M492.002,482.003c0,5.514-4.486,10-9.999,10H30c-5.514,0-10-4.486-10-10v-20h168.685
			c3.463,5.974,9.928,10,17.316,10h100c7.388,0,13.853-4.026,17.316-10h168.685V482.003z"/>
		<path d="M105.005,102.004c0-5.523-4.477-10-10-10h-0.007c-5.523,0-9.996,4.477-9.996,10c0,5.523,4.48,10,10.003,10
			C100.528,112.004,105.005,107.527,105.005,102.004z"/>
		<path d="M352.008,362H352c-5.523,0-9.997,4.477-9.997,10c0,5.523,4.481,10,10.004,10s10-4.477,10-10
			C362.008,366.477,357.531,362,352.008,362z"/>
		<path d="M442,362h-44.996c-5.523,0-10,4.477-10,10c0,5.523,4.477,10,10,10H442c5.523,0,10-4.477,10-10
			C452,366.477,447.523,362,442,362z"/>
	</g>
</g>
<g>
</g>
<g>
</g>
<g>
</g>
<g>
</g>
<g>
</g>
<g>
</g>
<g>
</g>
<g>
</g>
<g>
</g>
<g>
</g>
<g>
</g>
<g>
</g>
<g>
</g>
<g>
</g>
<g>
</g>
</svg>
