<?xml version="1.0" encoding="iso-8859-1"?>
<!-- Generator: Adobe Illustrator 21.0.0, SVG Export Plug-In . SVG Version: 6.00 Build 0)  -->
<svg version="1.1" id="Capa_1" xmlns="http://www.w3.org/2000/svg" xmlns:xlink="http://www.w3.org/1999/xlink" x="0px" y="0px"
	 viewBox="0 0 512.006 512.006" style="enable-background:new 0 0 512.006 512.006;" xml:space="preserve">
<g>
	<g>
		<path style="fill-rule:evenodd;clip-rule:evenodd;fill:#CFCDF5;" d="M201.359,336.003c7.639,15.966,19.178,29.711,33.383,40
			c17.366,12.58,38.716,19.996,61.799,19.996c29.121,0,55.485-11.804,74.569-30.888c19.084-19.084,30.888-45.448,30.888-74.57
			c0-58.242-47.215-105.457-105.457-105.457c-46.146,0-85.369,29.639-99.671,70.919c-3.749,10.821-5.786,22.442-5.786,34.538
			c0,1.832,0.047,3.653,0.139,5.462C191.95,310.269,195.513,323.787,201.359,336.003z"/>
		<path style="fill-rule:evenodd;clip-rule:evenodd;fill:#FF5D7F;" d="M409.827,385.506l-18.322,18.322
			c-5.039,5.038-5.039,13.283,0,18.322l13.85,13.85l56.224,56.224c5.038,5.039,13.283,5.039,18.322,0l18.322-18.321
			c5.039-5.039,5.039-13.283,0-18.322l-56.224-56.224l-13.85-13.85C423.11,380.467,414.866,380.468,409.827,385.506z"/>
		<path style="fill-rule:evenodd;clip-rule:evenodd;fill:#FBF7F6;" d="M391.505,403.828l18.322-18.322
			c5.039-5.038,13.284-5.039,18.322,0l13.85,13.85l0-263.353H210.001c0,22-18.003,40-40,40h-120l0,179.997v60c0,10.994,9,20,20,20
			h335.355l-13.85-13.85C386.467,417.111,386.467,408.866,391.505,403.828L391.505,403.828z M401.998,290.542
			c0,29.121-11.804,55.486-30.888,74.57c-19.084,19.084-45.448,30.888-74.569,30.888c-23.083,0-44.433-7.416-61.799-19.996
			c-14.205-10.289-25.743-24.034-33.383-40c-5.846-12.216-9.408-25.734-10.136-40c-0.092-1.809-0.139-3.63-0.139-5.462
			c0-12.097,2.037-23.717,5.786-34.538c14.302-41.28,53.525-70.919,99.671-70.919C354.783,185.084,401.998,232.299,401.998,290.542z
			"/>
		<path style="fill-rule:evenodd;clip-rule:evenodd;fill:#FFC234;" d="M50.001,176.004h120c21.997,0,40-18,40-40h231.998v-20
			c0-11-9.005-20-20-20h-20.001H130H70.001c-10.994,0-20,9.005-20,20L50.001,176.004z"/>
		<path style="fill-rule:evenodd;clip-rule:evenodd;fill:#CDD3E0;" d="M50.001,176.004l0-60c0-10.994,9.005-20,20-20H10L10,336
			c0,10.994,9,20,20,20h20.001L50.001,176.004z"/>
		<path style="fill-rule:evenodd;clip-rule:evenodd;fill:#CDD3E0;" d="M130,96.004h271.998l0-40H170
			C170,78.004,151.997,96.004,130,96.004z"/>
		<path style="fill-rule:evenodd;clip-rule:evenodd;fill:#FFC234;" d="M130,96.004c21.997,0,40-18,40-40h231.998v-20
			c0-11-9.005-20-20-20H30c-10.994,0-20,9.005-20,20l0,60h60.001H130z"/>
	</g>
	<g>
		<path d="M130.003,66.004c5.523,0,10-4.477,10-10c0-5.523-4.477-10-10-10h-0.007c-5.523,0-9.997,4.477-9.997,10
			C119.999,61.527,124.48,66.004,130.003,66.004z"/>
		<path d="M90.002,66.004c5.523,0,10-4.477,10-10c0-5.523-4.477-10-10-10h-0.007c-5.523,0-9.997,4.477-9.997,10
			C79.998,61.527,84.479,66.004,90.002,66.004z"/>
		<path d="M49.993,46.004c-5.523,0-9.997,4.477-9.997,10c0,5.523,4.481,10,10.004,10c5.523,0,10-4.477,10-10c0-5.523-4.477-10-10-10
			H49.993z"/>
		<path d="M170.004,126.004h-0.007c-5.523,0-9.997,4.477-9.997,10c0,5.523,4.481,10,10.004,10c5.523,0,10-4.477,10-10
			C180.004,130.481,175.527,126.004,170.004,126.004z"/>
		<path d="M130.003,126.004h-0.007c-5.523,0-9.997,4.477-9.997,10c0,5.523,4.481,10,10.004,10c5.523,0,10-4.477,10-10
			C140.003,130.481,135.526,126.004,130.003,126.004z"/>
		<path d="M90.002,126.004h-0.008c-5.523,0-9.996,4.477-9.996,10c0,5.523,4.481,10,10.004,10c5.523,0,10-4.477,10-10
			C100.002,130.481,95.525,126.004,90.002,126.004z"/>
		<path d="M341.539,348.087c2.468,0,4.939-0.908,6.873-2.738c15.21-14.399,23.586-33.863,23.586-54.807c0-5.523-4.478-10-10-10
			c-5.523,0-10,4.477-10,10c0,15.394-6.156,29.7-17.336,40.283c-4.011,3.797-4.184,10.126-0.387,14.137
			C336.241,347.039,338.888,348.087,341.539,348.087z"/>
		<path d="M505.294,448.509l-53.295-53.295V116.004c0-16.542-13.458-30-30-30h-10.001v-50c0-16.542-13.458-30-30-30h-247
			c-5.523,0-10,4.477-10,10c0,5.523,4.477,10,10,10h247c5.514,0,10,4.486,10,10v10H169.999c-5.523,0-10,4.477-10,10
			c0,16.542-13.457,30-29.999,30H70.001H20v-50c0-5.514,4.486-10,9.999-10h14.999c5.523,0,10-4.477,10-10c0-5.523-4.477-10-10-10
			H29.999C13.457,6.004,0,19.462,0,36.004v299.997c0,16.542,13.457,30,29.999,30h10.002v50c0,16.542,13.458,30,30,30h331.212
			l53.295,53.294c4.325,4.326,10.09,6.708,16.232,6.708c6.142,0,11.906-2.382,16.231-6.707l18.322-18.322
			C514.243,472.023,514.244,457.46,505.294,448.509z M431.999,116.004v10H210.001c-5.523,0-10,4.477-10,10c0,16.542-13.458,30-30,30
			h-110v-50c0-5.514,4.486-10,10-10h351.998C427.513,106.004,431.999,110.49,431.999,116.004z M178.995,66.004h213.003v20H169.962
			C174.341,80.186,177.489,73.392,178.995,66.004z M29.999,346.001c-5.514,0-9.999-4.486-9.999-10V106.004h21.721
			c-1.11,3.13-1.72,6.494-1.72,10v229.997H29.999z M60.001,416V186.004h110c24.145,0,44.349-17.206,48.996-40h213.002v229.764
			c-3.794-2.619-8.287-4.04-13.012-4.04c-6.142,0-11.906,2.382-16.231,6.707l-2.09,2.09l-15.761-15.762
			c16.897-20.084,27.094-45.983,27.094-74.222c0-63.664-51.794-115.457-115.457-115.457c-47.885,0-89.052,29.304-106.517,70.919
			H90.002c-5.523,0-10,4.477-10,10c0,5.523,4.477,10,10,10h93.714c-1.409,6.482-2.27,13.166-2.536,20H90.002
			c-5.523,0-10,4.477-10,10c0,5.523,4.477,10,10,10h92.119c0.924,6.875,2.457,13.56,4.54,19.999h-96.66c-5.523,0-10,4.477-10,10
			c0,5.523,4.477,10,10,10h105.301c3.939,7.161,8.611,13.863,13.922,20H90.002c-5.523,0-10,4.477-10,10c0,5.523,4.477,10,10,10
			h141.669c18.501,12.612,40.839,19.996,64.87,19.996c28.239,0,54.138-10.197,74.222-27.093l15.761,15.762l-2.09,2.09
			c-7.945,7.945-8.82,20.305-2.66,29.243H70.001C64.487,426,60.001,421.515,60.001,416z M201.083,290.542
			c0-52.635,42.822-95.457,95.458-95.457c52.635,0,95.457,42.822,95.457,95.457c0,52.635-42.822,95.457-95.457,95.457
			C243.906,385.999,201.083,343.177,201.083,290.542z M491.151,466.831l-18.322,18.322c-0.739,0.739-1.626,0.85-2.089,0.85
			c-0.464,0-1.351-0.11-2.09-0.85l-70.074-70.074c-1.133-1.132-1.133-3.047,0-4.179l18.322-18.322c0.739-0.74,1.626-0.85,2.09-0.85
			c0.463,0,1.35,0.11,2.089,0.85l70.074,70.074C492.284,463.784,492.284,465.698,491.151,466.831z"/>
		<path d="M306.541,355.999c0-5.523-4.477-10-10-10h-0.008c-5.522,0-9.996,4.477-9.996,10c0,5.523,4.482,10,10.004,10
			C302.064,365.999,306.541,361.522,306.541,355.999z"/>
		<path d="M90.002,26.004c5.523,0,10-4.477,10-10c0-5.523-4.477-10-10-10h-0.007c-5.523,0-9.996,4.477-9.996,10
			C79.999,21.527,84.479,26.004,90.002,26.004z"/>
	</g>
</g>
<g>
</g>
<g>
</g>
<g>
</g>
<g>
</g>
<g>
</g>
<g>
</g>
<g>
</g>
<g>
</g>
<g>
</g>
<g>
</g>
<g>
</g>
<g>
</g>
<g>
</g>
<g>
</g>
<g>
</g>
</svg>
