<?xml version="1.0" encoding="iso-8859-1"?>
<!-- Generator: Adobe Illustrator 21.0.0, SVG Export Plug-In . SVG Version: 6.00 Build 0)  -->
<svg version="1.1" id="Capa_1" xmlns="http://www.w3.org/2000/svg" xmlns:xlink="http://www.w3.org/1999/xlink" x="0px" y="0px"
	 viewBox="0 0 512.001 512.001" style="enable-background:new 0 0 512.001 512.001;" xml:space="preserve">
<g>
	<g>
		<path style="fill-rule:evenodd;clip-rule:evenodd;fill:#CDD3E0;" d="M10,76.002h492.001V57.177
			c0-11.647-9.529-21.177-21.176-21.177H31.176C19.529,36,10,45.53,10,57.177V76.002z"/>
		<rect x="10" y="76.002" style="fill-rule:evenodd;clip-rule:evenodd;fill:#99EBFB;" width="492.001" height="279.996"/>
		<path style="fill-rule:evenodd;clip-rule:evenodd;fill:#CDD3E0;" d="M502.001,355.999H10v18.826
			c0,11.647,9.529,21.176,21.176,21.176H216h80.001h184.824c11.647,0,21.176-9.529,21.176-21.176V355.999z"/>
		<polygon style="fill-rule:evenodd;clip-rule:evenodd;fill:#8690AF;" points="296.001,396.001 216,396.001 205.999,476 
			306.001,476 		"/>
		<rect x="50.001" y="116.001" style="fill-rule:evenodd;clip-rule:evenodd;fill:#CFCDF5;" width="100" height="199.999"/>
		<rect x="210.003" y="116.001" style="fill-rule:evenodd;clip-rule:evenodd;fill:#CFCDF5;" width="251.997" height="50"/>
		<rect x="210.003" y="216.001" style="fill-rule:evenodd;clip-rule:evenodd;fill:#CFCDF5;" width="251.997" height="50"/>
	</g>
	<g>
		<path d="M480.825,26H141.177c-5.523,0-10,4.477-10,10c0,5.523,4.477,10,10,10h339.648c6.162,0,11.176,5.014,11.176,11.177v8.826
			H20v-8.826C20,51.014,25.014,46,31.176,46h20.001c5.522,0,10-4.477,10-10c0-5.523-4.478-10-10-10H31.176
			C13.985,26,0,39.986,0,57.177v317.647c0,17.19,13.985,31.176,31.176,31.176h173.496l-7.501,60h-31.173c-5.522,0-10,4.477-10,10
			c0,5.523,4.478,10,10,10h180.004c5.522,0,10-4.477,10-10c0-5.523-4.478-10-10-10h-31.173l-7.5-60h173.496
			c17.19,0,31.176-13.985,31.176-31.176V57.177C512.001,39.986,498.016,26,480.825,26z M492.001,86.003v259.996H20V86.003H492.001z
			 M294.673,466.001h-77.346l7.501-60h62.345L294.673,466.001z M480.825,386.001H31.176c-6.162,0-11.176-5.013-11.176-11.176v-8.826
			h472.001v8.826C492.001,380.987,486.987,386.001,480.825,386.001z"/>
		<path d="M362.007,305.998H362c-5.522,0-9.997,4.477-9.997,10c0,5.523,4.481,10,10.004,10c5.522,0,10-4.477,10-10
			C372.007,310.475,367.529,305.998,362.007,305.998z"/>
		<path d="M462,305.998h-54.996c-5.522,0-10,4.477-10,10c0,5.523,4.478,10,10,10H462c5.522,0,10-4.477,10-10
			C472,310.475,467.522,305.998,462,305.998z"/>
		<path d="M96.18,46c5.522,0,10-4.477,10-10c0-5.523-4.478-10-10-10h-0.007c-5.522,0-9.996,4.477-9.996,10
			C86.177,41.523,90.657,46,96.18,46z"/>
		<path d="M50.001,326.001h100c5.522,0,10-4.477,10-10v-200c0-5.523-4.478-10-10-10h-100c-5.522,0-10,4.477-10,10v200
			C40.001,321.523,44.479,326.001,50.001,326.001z M140.001,273.64l-28.82-57.639l28.82-57.639V273.64z M133.821,306.001H66.181
			l33.82-67.639L133.821,306.001z M100.001,193.64l-33.82-67.639h67.639L100.001,193.64z M88.821,216.001l-28.82,57.639V158.362
			L88.821,216.001z"/>
		<path d="M210.003,176.002H462c5.522,0,10-4.477,10-10v-50.001c0-5.523-4.478-10-10-10H210.003c-5.523,0-10,4.477-10,10v50.001
			C200.003,171.524,204.48,176.002,210.003,176.002z M220.003,126.001H452v30.001H220.003V126.001z"/>
		<path d="M210.003,276.002H462c5.522,0,10-4.477,10-10v-50c0-5.523-4.478-10-10-10H210.003c-5.523,0-10,4.477-10,10v50
			C200.003,271.525,204.48,276.002,210.003,276.002z M220.003,226.002H452v30H220.003V226.002z"/>
	</g>
</g>
<g>
</g>
<g>
</g>
<g>
</g>
<g>
</g>
<g>
</g>
<g>
</g>
<g>
</g>
<g>
</g>
<g>
</g>
<g>
</g>
<g>
</g>
<g>
</g>
<g>
</g>
<g>
</g>
<g>
</g>
</svg>
