<?xml version="1.0" encoding="iso-8859-1"?>
<!-- Generator: Adobe Illustrator 21.0.0, SVG Export Plug-In . SVG Version: 6.00 Build 0)  -->
<svg version="1.1" id="Capa_1" xmlns="http://www.w3.org/2000/svg" xmlns:xlink="http://www.w3.org/1999/xlink" x="0px" y="0px"
	 viewBox="0 0 512.002 512.002" style="enable-background:new 0 0 512.002 512.002;" xml:space="preserve">
<g>
	<g>
		<rect x="30" y="30" style="fill-rule:evenodd;clip-rule:evenodd;fill:#FBF7F6;" width="452.002" height="452.002"/>
		<rect x="10.001" y="10" style="fill-rule:evenodd;clip-rule:evenodd;fill:#8481E2;" width="40" height="40"/>
		<rect x="10.001" y="462.002" style="fill-rule:evenodd;clip-rule:evenodd;fill:#8481E2;" width="40" height="40"/>
		<path style="fill-rule:evenodd;clip-rule:evenodd;fill:#FFC234;" d="M162.67,226l81.291,52.258
			c6.622,4.257,16.97,4.572,22.995,0.698L349.333,226l35.715-22.959c6.025-3.873,5.535-10.525-1.087-14.782L268.042,113.74
			c-6.623-4.257-16.97-4.572-22.995-0.699l-118.092,75.916c-6.025,3.873-5.535,10.525,1.087,14.782L162.67,226z"/>
		<path style="fill-rule:evenodd;clip-rule:evenodd;fill:#FFC234;" d="M243.961,278.259L162.67,226l-35.714,22.959
			c-6.025,3.873-5.535,10.525,1.087,14.782l34.627,22.26l81.291,52.258c6.622,4.257,16.97,4.572,22.995,0.698l82.378-52.957
			l35.715-22.959c6.025-3.873,5.535-10.525-1.087-14.782L349.333,226l-82.378,52.957C260.93,282.83,250.583,282.516,243.961,278.259
			z"/>
		<path style="fill-rule:evenodd;clip-rule:evenodd;fill:#FFC234;" d="M266.955,338.959c-6.025,3.873-16.372,3.559-22.995-0.698
			l-81.291-52.258l-35.714,22.959c-6.025,3.873-5.535,10.525,1.087,14.782l115.918,74.519c6.622,4.257,16.97,4.572,22.995,0.698
			l118.092-75.916c6.025-3.873,5.535-10.525-1.087-14.782l-34.628-22.26L266.955,338.959z"/>
		<rect x="462.002" y="462.002" style="fill-rule:evenodd;clip-rule:evenodd;fill:#8481E2;" width="40" height="40"/>
		<rect x="462.002" y="10" style="fill-rule:evenodd;clip-rule:evenodd;fill:#8481E2;" width="40" height="40"/>
	</g>
	<g>
		<path d="M50,0H10C4.478,0,0,4.477,0,10v40c0,5.523,4.478,10,10,10h40c5.522,0,10-4.477,10-10V10C60,4.477,55.523,0,50,0z M40,40
			H20V20h20V40z"/>
		<path d="M502.002,0h-40c-5.523,0-10,4.477-10,10v40c0,5.523,4.477,10,10,10h40c5.522,0,10-4.477,10-10V10
			C512.002,4.477,507.525,0,502.002,0z M492.002,40h-20V20h20V40z"/>
		<path d="M50,452.003H10c-5.522,0-10,4.477-10,10v40c0,5.523,4.478,10,10,10h40c5.522,0,10-4.477,10-10v-40
			C60,456.479,55.523,452.003,50,452.003z M40,492.002H20v-20h20V492.002z"/>
		<path d="M502.002,452.003h-40c-5.523,0-10,4.477-10,10v40c0,5.523,4.477,10,10,10h40c5.522,0,10-4.477,10-10v-40
			C512.002,456.479,507.525,452.003,502.002,452.003z M492.002,492.002h-20v-20h20V492.002z"/>
		<path d="M96.002,40h20c5.522,0,10-4.477,10-10c0-5.523-4.478-10-10-10h-20c-5.522,0-10,4.477-10,10
			C86.002,35.523,90.48,40,96.002,40z"/>
		<path d="M156.001,40h20.001c5.522,0,10-4.477,10-10c0-5.523-4.478-10-10-10h-20.001c-5.522,0-10,4.477-10,10
			C146.001,35.523,150.479,40,156.001,40z"/>
		<path d="M216.001,40h20c5.523,0,10-4.477,10-10c0-5.523-4.477-10-10-10h-20c-5.522,0-10,4.477-10,10
			C206.001,35.523,210.479,40,216.001,40z"/>
		<path d="M276.001,40h20c5.522,0,10-4.477,10-10c0-5.523-4.478-10-10-10h-20c-5.522,0-10,4.477-10,10
			C266.001,35.523,270.479,40,276.001,40z"/>
		<path d="M336.001,40h20c5.522,0,10-4.477,10-10c0-5.523-4.478-10-10-10h-20c-5.522,0-10,4.477-10,10
			C326.001,35.523,330.479,40,336.001,40z"/>
		<path d="M416.001,20h-20c-5.522,0-10,4.477-10,10c0,5.523,4.478,10,10,10h20c5.522,0,10-4.477,10-10
			C426.001,24.477,421.523,20,416.001,20z"/>
		<path d="M20,416.001c0,5.523,4.478,10,10,10c5.522,0,10-4.477,10-10V396c0-5.523-4.478-10-10-10c-5.522,0-10,4.477-10,10V416.001z
			"/>
		<path d="M20,356.001c0,5.523,4.478,10,10,10c5.522,0,10-4.477,10-10v-20c0-5.523-4.478-10-10-10c-5.522,0-10,4.477-10,10V356.001z
			"/>
		<path d="M20,296.001c0,5.523,4.478,10,10,10c5.522,0,10-4.477,10-10v-20c0-5.523-4.478-10-10-10c-5.522,0-10,4.477-10,10V296.001z
			"/>
		<path d="M20,236.001c0,5.523,4.478,10,10,10c5.522,0,10-4.477,10-10v-20c0-5.523-4.478-10-10-10c-5.522,0-10,4.477-10,10V236.001z
			"/>
		<path d="M20,176.001c0,5.523,4.478,10,10,10c5.522,0,10-4.477,10-10v-20c0-5.523-4.478-10-10-10c-5.522,0-10,4.477-10,10V176.001z
			"/>
		<path d="M30,126.002c5.522,0,10-4.477,10-10V96.002c0-5.523-4.478-10-10-10c-5.522,0-10,4.477-10,10v20.001
			C20,121.525,24.478,126.002,30,126.002z"/>
		<path d="M416.001,472.003h-20c-5.522,0-10,4.477-10,10c0,5.523,4.478,10,10,10h20c5.522,0,10-4.477,10-10
			C426.001,476.479,421.523,472.003,416.001,472.003z"/>
		<path d="M356.001,472.003h-20c-5.522,0-10,4.477-10,10c0,5.523,4.478,10,10,10h20c5.522,0,10-4.477,10-10
			C366.001,476.479,361.523,472.003,356.001,472.003z"/>
		<path d="M296.001,472.003h-20c-5.522,0-10,4.477-10,10c0,5.523,4.478,10,10,10h20c5.522,0,10-4.477,10-10
			C306.001,476.479,301.523,472.003,296.001,472.003z"/>
		<path d="M236.001,472.003h-20c-5.522,0-10,4.477-10,10c0,5.523,4.478,10,10,10h20c5.523,0,10-4.477,10-10
			C246.001,476.479,241.524,472.003,236.001,472.003z"/>
		<path d="M176.002,472.003h-20.001c-5.522,0-10,4.477-10,10c0,5.523,4.478,10,10,10h20.001c5.522,0,10-4.477,10-10
			C186.002,476.479,181.525,472.003,176.002,472.003z"/>
		<path d="M116.002,472.003h-20c-5.522,0-10,4.477-10,10c0,5.523,4.478,10,10,10h20c5.522,0,10-4.477,10-10
			C126.002,476.479,121.525,472.003,116.002,472.003z"/>
		<path d="M482.002,126.002c5.522,0,10-4.477,10-10V96.002c0-5.523-4.478-10-10-10c-5.523,0-10,4.477-10,10v20.001
			C472.002,121.525,476.479,126.002,482.002,126.002z"/>
		<path d="M472.002,176.001c0,5.523,4.477,10,10,10c5.522,0,10-4.477,10-10v-20c0-5.523-4.478-10-10-10c-5.523,0-10,4.477-10,10
			V176.001z"/>
		<path d="M472.002,236.001c0,5.523,4.477,10,10,10c5.522,0,10-4.477,10-10v-20c0-5.523-4.478-10-10-10c-5.523,0-10,4.477-10,10
			V236.001z"/>
		<path d="M472.002,296.001c0,5.523,4.477,10,10,10c5.522,0,10-4.477,10-10v-20c0-5.523-4.478-10-10-10c-5.523,0-10,4.477-10,10
			V296.001z"/>
		<path d="M472.002,356.001c0,5.523,4.477,10,10,10c5.522,0,10-4.477,10-10v-20c0-5.523-4.478-10-10-10c-5.523,0-10,4.477-10,10
			V356.001z"/>
		<path d="M472.002,416.001c0,5.523,4.477,10,10,10c5.522,0,10-4.477,10-10V396c0-5.523-4.478-10-10-10c-5.523,0-10,4.477-10,10
			V416.001z"/>
		<path d="M399.265,316.298c0.001-6.409-3.606-12.403-9.897-16.447l-21.543-13.849l22.629-14.547
			c5.6-3.599,8.811-9.124,8.811-15.159c0.001-6.409-3.606-12.403-9.897-16.447L367.826,226l22.629-14.547
			c5.6-3.599,8.811-9.125,8.811-15.159c0.001-6.409-3.606-12.403-9.897-16.447L273.45,105.328
			c-9.947-6.395-24.481-6.695-33.811-0.699l-21.194,13.626c-4.646,2.986-5.991,9.174-3.005,13.819
			c2.987,4.646,9.173,5.991,13.82,3.004l21.194-13.625c2.497-1.604,8.608-1.599,12.181,0.698l114.874,73.848l-115.962,74.546
			c-2.495,1.605-8.605,1.598-12.179-0.698l-114.874-73.848l19.059-12.252c4.646-2.986,5.991-9.173,3.005-13.819
			c-2.985-4.645-9.174-5.991-13.819-3.004l-21.19,13.622c-5.599,3.599-8.81,9.124-8.811,15.159c0,6.409,3.607,12.404,9.897,16.447
			L144.177,226l-22.63,14.548c-5.599,3.599-8.81,9.124-8.81,15.159c0,6.409,3.607,12.403,9.897,16.447l21.543,13.849l-22.63,14.548
			c-5.599,3.599-8.81,9.125-8.81,15.159c0,6.409,3.607,12.403,9.897,16.447l115.918,74.519c5.175,3.327,11.59,5.004,17.867,5.004
			c5.792,0,11.467-1.428,15.942-4.305l21.196-13.625c4.646-2.986,5.991-9.174,3.005-13.819c-2.986-4.646-9.174-5.993-13.819-3.005
			l-21.197,13.626c-2.497,1.605-8.605,1.598-12.179-0.699l-114.874-73.847l28.176-18.113l75.884,48.782
			c5.174,3.326,11.589,5.003,17.867,5.003c5.791,0,11.467-1.428,15.941-4.305l76.97-49.48l28.176,18.113l-19.06,12.253
			c-4.646,2.987-5.99,9.174-3.004,13.819c1.911,2.973,5.132,4.594,8.422,4.594c1.852-0.001,3.725-0.514,5.398-1.59l21.188-13.622
			C396.054,327.858,399.265,322.333,399.265,316.298z M261.547,330.547c-2.497,1.605-8.605,1.599-12.179-0.699l-114.874-73.847
			l28.176-18.113l75.884,48.783c5.174,3.326,11.589,5.003,17.866,5.003c5.792,0,11.467-1.428,15.942-4.305l76.97-49.481
			l28.176,18.113L261.547,330.547z"/>
		<path d="M177.676,156.551c1.927,2.891,5.098,4.454,8.329,4.454c1.906,0,3.833-0.544,5.538-1.681l0.006-0.004
			c4.596-3.063,5.834-9.27,2.771-13.865c-3.063-4.595-9.273-5.836-13.87-2.771C175.854,145.747,174.612,151.956,177.676,156.551z"/>
		<path d="M331.548,369.323l0.006-0.004c4.596-3.064,5.834-9.27,2.771-13.865c-3.063-4.594-9.273-5.835-13.87-2.771
			c-4.596,3.063-5.837,9.272-2.773,13.867c1.927,2.891,5.098,4.454,8.329,4.454C327.916,371.004,329.843,370.46,331.548,369.323z"/>
	</g>
</g>
<g>
</g>
<g>
</g>
<g>
</g>
<g>
</g>
<g>
</g>
<g>
</g>
<g>
</g>
<g>
</g>
<g>
</g>
<g>
</g>
<g>
</g>
<g>
</g>
<g>
</g>
<g>
</g>
<g>
</g>
</svg>
