<?xml version="1.0" encoding="iso-8859-1"?>
<!-- Generator: Adobe Illustrator 21.0.0, SVG Export Plug-In . SVG Version: 6.00 Build 0)  -->
<svg version="1.1" id="Capa_1" xmlns="http://www.w3.org/2000/svg" xmlns:xlink="http://www.w3.org/1999/xlink" x="0px" y="0px"
	 viewBox="0 0 512.001 512.001" style="enable-background:new 0 0 512.001 512.001;" xml:space="preserve">
<g>
	<g>
		<g>
			<path style="fill-rule:evenodd;clip-rule:evenodd;fill:#FBF7F6;" d="M130,116H10l0,340c0,11,9,20,20,20h452.002c11,0,20-9,20-20
				v-380H170C170,98,152,116,130,116z"/>
			<path style="fill-rule:evenodd;clip-rule:evenodd;fill:#FFC234;" d="M502.001,76.001V56c0-11-9-20-20-20H30c-11,0-20,9-20,20
				l0,60h120c22,0,40-18,40-40H502.001z"/>
		</g>
		<path style="fill-rule:evenodd;clip-rule:evenodd;fill:#99EBFB;" d="M338.692,265.002c0-45.67-37.022-82.692-82.692-82.692
			c-45.67,0-82.692,37.023-82.692,82.692c0,33.372,19.771,62.123,48.237,75.189v20.677h68.911v-20.677
			C318.921,327.125,338.692,298.374,338.692,265.002z"/>
		<path style="fill-rule:evenodd;clip-rule:evenodd;fill:#8690AF;" d="M290.456,360.868h-68.911v27.566
			c0,15.16,12.404,27.564,27.564,27.564h13.783c15.16,0,27.564-12.404,27.564-27.564V360.868z"/>
	</g>
	<g>
		<path d="M482.001,26.001H134.993c-5.523,0-10,4.477-10,10c0,5.523,4.477,10,10,10h347.009c5.514,0,10,4.486,10,10v10H169.999
			c-5.523,0-10,4.477-10,10c0,16.542-13.458,30-29.999,30H20V56c0-5.514,4.486-10,10-10h14.993c5.523,0,10-4.477,10-10
			c0-5.523-4.477-10-10-10H30c-16.542,0-30,13.458-30,30v400C0,472.543,13.458,486,30,486h452.002
			c16.542,0,29.999-13.457,29.999-29.999V56C512.001,39.458,498.543,26.001,482.001,26.001z M482.001,466H30
			c-5.514,0-10-4.486-10-9.999V126h110c24.145,0,44.349-17.206,48.995-40h313.006v370C492.001,461.514,487.515,466,482.001,466z"/>
		<path d="M90.003,66.001h-0.007c-5.523,0-9.997,4.477-9.997,10c0,5.523,4.481,10,10.004,10c5.523,0,10-4.477,10-10
			C100.003,70.478,95.526,66.001,90.003,66.001z"/>
		<path d="M130.005,86.001c5.523,0,10-4.477,10-10c0-5.523-4.477-10-10-10h-0.007c-5.523,0-9.997,4.477-9.997,10
			C120.001,81.524,124.482,86.001,130.005,86.001z"/>
		<path d="M49.995,66.001c-5.523,0-9.996,4.477-9.996,10c0,5.523,4.481,10,10.004,10c5.523,0,10-4.477,10-10c0-5.523-4.477-10-10-10
			H49.995z"/>
		<path d="M256,172.31c-51.111,0-92.692,41.581-92.692,92.692c0,33.936,18.734,65.189,48.237,81.348v4.604
			c-4.932,0.616-8.751,4.815-8.751,9.914s3.819,9.298,8.751,9.914v17.652c0,20.713,16.851,37.564,37.564,37.564h13.783
			c20.713,0,37.564-16.851,37.564-37.564v-17.652c4.932-0.616,8.75-4.815,8.75-9.914c0-5.099-3.819-9.298-8.75-9.914v-4.604
			c29.503-16.159,48.237-47.413,48.237-81.348C348.692,213.891,307.111,172.31,256,172.31z M262.892,405.998h-13.783
			c-9.685,0-17.564-7.879-17.564-17.564v-17.566h48.91v17.566C280.456,398.119,272.576,405.998,262.892,405.998z M286.284,331.103
			c-3.552,1.63-5.828,5.18-5.828,9.088v10.677h-48.91v-10.677c0-3.908-2.276-7.458-5.828-9.088
			c-25.763-11.826-42.409-37.771-42.409-66.101c0-40.083,32.61-72.692,72.692-72.692s72.692,32.61,72.692,72.692
			C328.692,293.331,312.046,319.277,286.284,331.103z"/>
		<path d="M256,150.962c5.523,0,10-4.477,10-10v-4.961c0-5.523-4.477-10-10-10c-5.523,0-10,4.477-10,10v4.961
			C246.001,146.485,250.478,150.962,256,150.962z"/>
		<path d="M185.32,162.58c1.852,3.209,5.213,5.002,8.67,5.002c1.696,0,3.416-0.433,4.991-1.342c4.783-2.761,6.422-8.877,3.66-13.66
			l-2.48-4.296c-2.762-4.784-8.878-6.422-13.66-3.66c-4.783,2.761-6.422,8.877-3.66,13.66L185.32,162.58z"/>
		<path d="M153.579,194.322l-4.296-2.48c-4.784-2.762-10.899-1.122-13.66,3.66c-2.762,4.783-1.123,10.899,3.66,13.66l4.296,2.48
			c1.575,0.91,3.294,1.342,4.991,1.342c3.456,0,6.817-1.794,8.67-5.002C160.001,203.199,158.362,197.083,153.579,194.322z"/>
		<path d="M131.96,255.002H127c-5.523,0-10,4.477-10,10c0,5.523,4.477,10,10,10h4.96c5.523,0,10-4.477,10-10
			C141.96,259.479,137.483,255.002,131.96,255.002z"/>
		<path d="M385.001,255.002h-4.961c-5.523,0-10,4.477-10,10c0,5.523,4.477,10,10,10h4.961c5.523,0,10-4.477,10-10
			C395.001,259.479,390.524,255.002,385.001,255.002z"/>
		<path d="M363.431,212.984c1.696,0,3.416-0.433,4.991-1.342l4.296-2.48c4.783-2.761,6.422-8.877,3.66-13.66
			c-2.761-4.784-8.878-6.422-13.66-3.66l-4.296,2.48c-4.783,2.761-6.422,8.877-3.66,13.66
			C356.614,211.191,359.975,212.984,363.431,212.984z"/>
		<path d="M313.021,166.24c1.575,0.91,3.294,1.342,4.991,1.342c3.456,0,6.817-1.794,8.669-5.002l2.48-4.296
			c2.762-4.783,1.123-10.899-3.66-13.66c-4.782-2.762-10.898-1.122-13.66,3.66l-2.48,4.296
			C306.599,157.364,308.238,163.479,313.021,166.24z"/>
		<path d="M462,425.999h-54.996c-5.523,0-10,4.477-10,10c0,5.523,4.477,10,10,10H462c5.523,0,10-4.477,10-10
			C472,430.476,467.523,425.999,462,425.999z"/>
		<path d="M362.008,425.999H362c-5.523,0-9.997,4.477-9.997,10c0,5.523,4.481,10,10.004,10s10-4.477,10-10
			C372.008,430.476,367.531,425.999,362.008,425.999z"/>
		<path d="M89.996,46.001c5.523,0,10-4.477,10-10c0-5.523-4.477-10-10-10h-0.007c-5.523,0-9.996,4.477-9.996,10
			C79.993,41.524,84.473,46.001,89.996,46.001z"/>
	</g>
</g>
<g>
</g>
<g>
</g>
<g>
</g>
<g>
</g>
<g>
</g>
<g>
</g>
<g>
</g>
<g>
</g>
<g>
</g>
<g>
</g>
<g>
</g>
<g>
</g>
<g>
</g>
<g>
</g>
<g>
</g>
</svg>
