<?xml version="1.0" encoding="iso-8859-1"?>
<!-- Generator: Adobe Illustrator 21.0.0, SVG Export Plug-In . SVG Version: 6.00 Build 0)  -->
<svg version="1.1" id="Capa_1" xmlns="http://www.w3.org/2000/svg" xmlns:xlink="http://www.w3.org/1999/xlink" x="0px" y="0px"
	 viewBox="0 0 512.002 512.002" style="enable-background:new 0 0 512.002 512.002;" xml:space="preserve">
<g>
	<g>
		<rect x="30" y="29.999" style="fill-rule:evenodd;clip-rule:evenodd;fill:#FBF7F6;" width="452.002" height="452.002"/>
		<polygon style="fill-rule:evenodd;clip-rule:evenodd;fill:#8481E2;" points="120.001,280 240.001,280 240.001,240.001 
			200.001,240.001 200.001,120 240.001,120 240.001,160 280.001,160 280.001,80.001 80.001,80.001 80.001,160 120.001,160 
			120.001,120 160.001,120 160.001,240.001 120.001,240.001 		"/>
		<rect x="10" y="10" style="fill-rule:evenodd;clip-rule:evenodd;fill:#8481E2;" width="40" height="40"/>
		<rect x="10" y="462.002" style="fill-rule:evenodd;clip-rule:evenodd;fill:#8481E2;" width="40" height="40"/>
		<rect x="462.002" y="462.002" style="fill-rule:evenodd;clip-rule:evenodd;fill:#8481E2;" width="40" height="40"/>
		<rect x="462.002" y="10" style="fill-rule:evenodd;clip-rule:evenodd;fill:#8481E2;" width="40" height="40"/>
	</g>
	<g>
		<path d="M432.001,419.998h-0.008c-5.523,0-9.996,4.477-9.996,10c0,5.523,4.481,10,10.004,10c5.523,0,10-4.477,10-10
			C442.001,424.475,437.524,419.998,432.001,419.998z"/>
		<path d="M50,0H10C4.477,0,0,4.477,0,10v39.999c0,5.523,4.477,10,10,10H50c5.523,0,10-4.477,10-10V10C60,4.477,55.523,0,50,0z
			 M40,39.999H20V20H40V39.999z"/>
		<path d="M502.002,0h-39.999c-5.523,0-10,4.477-10,10v39.999c0,5.523,4.477,10,10,10h39.999c5.523,0,10-4.477,10-10V10
			C512.002,4.477,507.525,0,502.002,0z M492.002,39.999h-19.999V20h19.999V39.999z"/>
		<path d="M50,452.002H10c-5.523,0-10,4.477-10,10v40c0,5.523,4.477,10,10,10H50c5.523,0,10-4.477,10-10v-40
			C60,456.479,55.523,452.002,50,452.002z M40,492.002H20v-20H40V492.002z"/>
		<path d="M502.002,452.002h-39.999c-5.523,0-10,4.477-10,10v40c0,5.523,4.477,10,10,10h39.999c5.523,0,10-4.477,10-10v-40
			C512.002,456.479,507.525,452.002,502.002,452.002z M492.002,492.002h-19.999v-20h19.999V492.002z"/>
		<path d="M96.001,40h20c5.523,0,10-4.477,10-10c0-5.523-4.477-10-10-10h-20c-5.523,0-10,4.477-10,10
			C86.001,35.523,90.478,40,96.001,40z"/>
		<path d="M156.001,40h20c5.523,0,10-4.477,10-10c0-5.523-4.477-10-10-10h-20c-5.523,0-10,4.477-10,10
			C146.001,35.523,150.478,40,156.001,40z"/>
		<path d="M216.001,40h20c5.523,0,10-4.477,10-10c0-5.523-4.477-10-10-10h-20c-5.523,0-10,4.477-10,10
			C206.001,35.523,210.478,40,216.001,40z"/>
		<path d="M276.001,40h20c5.523,0,10-4.477,10-10c0-5.523-4.477-10-10-10h-20c-5.523,0-10,4.477-10,10
			C266.001,35.523,270.478,40,276.001,40z"/>
		<path d="M336.001,40h20c5.523,0,10-4.477,10-10c0-5.523-4.477-10-10-10h-20c-5.523,0-10,4.477-10,10
			C326.001,35.523,330.478,40,336.001,40z"/>
		<path d="M396,40h20c5.523,0,10-4.477,10-10c0-5.523-4.477-10-10-10h-20c-5.523,0-10,4.477-10,10C386,35.523,390.477,40,396,40z"/>
		<path d="M20,416c0,5.523,4.477,10,10,10c5.523,0,10-4.477,10-10v-20c0-5.523-4.477-10-10-10c-5.523,0-10,4.477-10,10V416z"/>
		<path d="M20,356.001c0,5.523,4.477,10,10,10c5.523,0,10-4.477,10-10v-20c0-5.523-4.477-10-10-10c-5.523,0-10,4.477-10,10V356.001z
			"/>
		<path d="M20,296.001c0,5.523,4.477,10,10,10c5.523,0,10-4.477,10-10v-20c0-5.523-4.477-10-10-10c-5.523,0-10,4.477-10,10V296.001z
			"/>
		<path d="M20,236.001c0,5.523,4.477,10,10,10c5.523,0,10-4.477,10-10v-20c0-5.523-4.477-10-10-10c-5.523,0-10,4.477-10,10V236.001z
			"/>
		<path d="M20,176.001c0,5.523,4.477,10,10,10c5.523,0,10-4.477,10-10v-20c0-5.523-4.477-10-10-10c-5.523,0-10,4.477-10,10V176.001z
			"/>
		<path d="M30,126.001c5.523,0,10-4.477,10-10v-20c0-5.523-4.477-10-10-10c-5.523,0-10,4.477-10,10v20
			C20,121.524,24.477,126.001,30,126.001z"/>
		<path d="M416.001,472.002h-20c-5.523,0-10,4.477-10,10c0,5.523,4.477,10,10,10h20c5.523,0,10-4.477,10-10
			C426.001,476.479,421.524,472.002,416.001,472.002z"/>
		<path d="M356.001,472.002h-20c-5.523,0-10,4.477-10,10c0,5.523,4.477,10,10,10h20c5.523,0,10-4.477,10-10
			C366.001,476.479,361.524,472.002,356.001,472.002z"/>
		<path d="M296.001,472.002h-20c-5.523,0-10,4.477-10,10c0,5.523,4.477,10,10,10h20c5.523,0,10-4.477,10-10
			C306.001,476.479,301.524,472.002,296.001,472.002z"/>
		<path d="M236.001,472.002h-20c-5.523,0-10,4.477-10,10c0,5.523,4.477,10,10,10h20c5.523,0,10-4.477,10-10
			C246.001,476.479,241.524,472.002,236.001,472.002z"/>
		<path d="M176.001,472.002h-20c-5.523,0-10,4.477-10,10c0,5.523,4.477,10,10,10h20c5.523,0,10-4.477,10-10
			C186.001,476.479,181.524,472.002,176.001,472.002z"/>
		<path d="M116.002,472.002h-20c-5.523,0-10,4.477-10,10c0,5.523,4.477,10,10,10h20c5.523,0,10-4.477,10-10
			C126.002,476.479,121.525,472.002,116.002,472.002z"/>
		<path d="M482.002,126.001c5.523,0,10-4.477,10-10v-20c0-5.523-4.477-10-10-10c-5.523,0-10,4.477-10,10v20
			C472.002,121.524,476.479,126.001,482.002,126.001z"/>
		<path d="M472.002,176.001c0,5.523,4.477,10,10,10c5.523,0,10-4.477,10-10v-20c0-5.523-4.477-10-10-10c-5.523,0-10,4.477-10,10
			V176.001z"/>
		<path d="M472.002,236.001c0,5.523,4.477,10,10,10c5.523,0,10-4.477,10-10v-20c0-5.523-4.477-10-10-10c-5.523,0-10,4.477-10,10
			V236.001z"/>
		<path d="M472.002,296.001c0,5.523,4.477,10,10,10c5.523,0,10-4.477,10-10v-20c0-5.523-4.477-10-10-10c-5.523,0-10,4.477-10,10
			V296.001z"/>
		<path d="M472.002,356.001c0,5.523,4.477,10,10,10c5.523,0,10-4.477,10-10v-20c0-5.523-4.477-10-10-10c-5.523,0-10,4.477-10,10
			V356.001z"/>
		<path d="M472.002,416c0,5.523,4.477,10,10,10c5.523,0,10-4.477,10-10v-20c0-5.523-4.477-10-10-10c-5.523,0-10,4.477-10,10V416z"/>
		<path d="M80.001,170h40c5.523,0,10-4.477,10-10v-30h20v100h-30c-5.523,0-10,4.477-10,10v40c0,5.523,4.477,10,10,10h120
			c5.523,0,10-4.477,10-10v-40c0-5.523-4.477-10-10-10h-30V130h20v30c0,5.523,4.477,10,10,10h40c5.523,0,10-4.477,10-10V80
			c0-5.523-4.477-10-10-10h-89.999c-5.523,0-10,4.477-10,10c0,5.523,4.477,10,10,10h79.999v60h-20v-30c0-5.523-4.477-10-10-10h-40
			c-5.523,0-10,4.477-10,10v120c0,5.523,4.477,10,10,10h30v20h-100v-20h30c5.523,0,10-4.477,10-10V120c0-5.523-4.477-10-10-10h-40
			c-5.523,0-10,4.477-10,10v30h-20V90h10.001c5.523,0,10-4.477,10-10c0-5.523-4.477-10-10-10H80.001c-5.523,0-10,4.477-10,10v80
			C70.001,165.523,74.478,170,80.001,170z"/>
		<path d="M432.001,70h-102c-5.523,0-10,4.477-10,10c0,5.523,4.477,10,10,10h102c5.523,0,10-4.477,10-10
			C442.001,74.478,437.524,70,432.001,70z"/>
		<path d="M432.001,113.75h-102c-5.523,0-10,4.477-10,10c0,5.523,4.477,10,10,10h102c5.523,0,10-4.477,10-10
			C442.001,118.228,437.524,113.75,432.001,113.75z"/>
		<path d="M432.001,157.5h-102c-5.523,0-10,4.477-10,10c0,5.523,4.477,10,10,10h102c5.523,0,10-4.477,10-10
			C442.001,161.977,437.524,157.5,432.001,157.5z"/>
		<path d="M432.001,201.25h-102c-5.523,0-10,4.477-10,10c0,5.523,4.477,10,10,10h102c5.523,0,10-4.477,10-10
			C442.001,205.727,437.524,201.25,432.001,201.25z"/>
		<path d="M432.001,244.999h-102c-5.523,0-10,4.477-10,10c0,5.523,4.477,10,10,10h102c5.523,0,10-4.477,10-10
			C442.001,249.477,437.524,244.999,432.001,244.999z"/>
		<path d="M432.001,288.749h-102c-5.523,0-10,4.477-10,10c0,5.523,4.477,10,10,10h102c5.523,0,10-4.477,10-10
			C442.001,293.226,437.524,288.749,432.001,288.749z"/>
		<path d="M432.001,332.499H80.001c-5.523,0-10,4.477-10,10c0,5.523,4.477,10,10,10h352.001c5.523,0,10-4.477,10-10
			C442.001,336.976,437.524,332.499,432.001,332.499z"/>
		<path d="M432.001,376.249H80.001c-5.523,0-10,4.477-10,10c0,5.523,4.477,10,10,10h352.001c5.523,0,10-4.477,10-10
			C442.001,380.726,437.524,376.249,432.001,376.249z"/>
		<path d="M396.998,429.998c0-5.523-4.477-10-10-10H80.001c-5.523,0-10,4.477-10,10c0,5.523,4.477,10,10,10h306.997
			C392.521,439.998,396.998,435.521,396.998,429.998z"/>
		<path d="M145.005,90c5.523,0,10-4.477,10-10c0-5.523-4.477-10-10-10h-0.007c-5.523,0-9.996,4.477-9.996,10
			C135.002,85.523,139.482,90,145.005,90z"/>
	</g>
</g>
<g>
</g>
<g>
</g>
<g>
</g>
<g>
</g>
<g>
</g>
<g>
</g>
<g>
</g>
<g>
</g>
<g>
</g>
<g>
</g>
<g>
</g>
<g>
</g>
<g>
</g>
<g>
</g>
<g>
</g>
</svg>
