<?xml version="1.0" encoding="iso-8859-1"?>
<!-- Generator: Adobe Illustrator 21.0.0, SVG Export Plug-In . SVG Version: 6.00 Build 0)  -->
<svg version="1.1" id="Capa_1" xmlns="http://www.w3.org/2000/svg" xmlns:xlink="http://www.w3.org/1999/xlink" x="0px" y="0px"
	 viewBox="0 0 512.001 512.001" style="enable-background:new 0 0 512.001 512.001;" xml:space="preserve">
<g>
	<g>
		<circle style="fill-rule:evenodd;clip-rule:evenodd;fill:#FFC234;" cx="70" cy="136.001" r="20"/>
		<circle style="fill-rule:evenodd;clip-rule:evenodd;fill:#FFC234;" cx="70" cy="216.001" r="20"/>
		<circle style="fill-rule:evenodd;clip-rule:evenodd;fill:#FFC234;" cx="70" cy="296" r="20"/>
		<circle style="fill-rule:evenodd;clip-rule:evenodd;fill:#FFC234;" cx="70" cy="376" r="20"/>
		<circle style="fill-rule:evenodd;clip-rule:evenodd;fill:#FFC234;" cx="250.004" cy="136.001" r="20"/>
		<circle style="fill-rule:evenodd;clip-rule:evenodd;fill:#FFC234;" cx="250.004" cy="216.001" r="20"/>
		<circle style="fill-rule:evenodd;clip-rule:evenodd;fill:#FFC234;" cx="250.004" cy="296" r="20"/>
		<circle style="fill-rule:evenodd;clip-rule:evenodd;fill:#FFC234;" cx="250.004" cy="376" r="20"/>
		<path style="fill-rule:evenodd;clip-rule:evenodd;fill:#FBF7F6;" d="M130,56c0-10.999-9-20-20-20H30c-11,0-20,9-20,20v400
			c0,11,9,20,20,20h80c11,0,20-9.001,20-20C130,322.667,130,189.334,130,56L130,56z M70,276c11.046,0,20,8.955,20,20
			c0,11.045-8.955,20-20,20c-11.045,0-20-8.955-20-20C50,284.955,58.955,276,70,276L70,276z M70,356c11.046,0,20,8.955,20,20
			s-8.955,20-20,20c-11.045,0-20-8.955-20-20S58.955,356,70,356L70,356z M70,196c11.046,0,20,8.955,20,20c0,11.045-8.955,20-20,20
			c-11.045,0-20-8.955-20-20C50,204.955,58.955,196,70,196L70,196z M70,116.001c11.046,0,20,8.955,20,20c0,11.045-8.955,20-20,20
			c-11.045,0-20-8.955-20-20C50,124.955,58.955,116.001,70,116.001z"/>
		<path style="fill-rule:evenodd;clip-rule:evenodd;fill:#FBF7F6;" d="M190.003,56c0,144.839,0,254.683,0,400c0,11,9.001,20,20,20
			h271.999c11,0,20-9,20-20V56c0-11-9-20-20-20H210.002C199.003,36.001,190.003,45,190.003,56L190.003,56z M230.004,136.001
			c0-11.046,8.955-20,20-20s20,8.955,20,20c0,11.045-8.955,20-20,20S230.004,147.046,230.004,136.001L230.004,136.001z
			 M230.004,216.001c0-11.046,8.955-20,20-20s20,8.955,20,20c0,11.045-8.955,20-20,20S230.004,227.046,230.004,216.001
			L230.004,216.001z M250.004,276c11.046,0,20,8.955,20,20c0,11.045-8.955,20-20,20s-20-8.955-20-20
			C230.004,284.955,238.958,276,250.004,276L250.004,276z M250.004,356c11.046,0,20,8.955,20,20s-8.955,20-20,20s-20-8.955-20-20
			S238.958,356,250.004,356z"/>
	</g>
	<g>
		<path d="M10,100.997c5.523,0,10-4.477,10-10V56c0-5.514,4.486-9.999,10-9.999h80c5.514,0,10,4.486,10,9.999v140
			c0,5.523,4.478,10,10,10c5.523,0,10-4.477,10-10V56c0-16.542-13.458-29.999-30-29.999H30C13.458,26.001,0,39.458,0,56v34.997
			C0,96.52,4.478,100.997,10,100.997z"/>
		<path d="M130,306.001c-5.522,0-10,4.477-10,10V456c0,5.514-4.486,10-10,10H30c-5.514,0-10-4.486-10-10V180.997
			c0-5.523-4.477-10-10-10c-5.522,0-10,4.477-10,10V456c0,16.542,13.458,30,30,30h80c16.542,0,30-13.458,30-30V316.001
			C140,310.478,135.523,306.001,130,306.001z"/>
		<path d="M482.002,26.001h-272c-16.542,0-29.999,13.457-29.999,29.999v140c0,5.523,4.477,10,10,10c5.522,0,10-4.477,10-10V56
			c0-5.514,4.485-9.999,9.999-9.999h272c5.514,0,9.999,4.486,9.999,9.999v400c0,5.514-4.485,10-9.999,10h-272
			c-5.514,0-9.999-4.486-9.999-10V316.001c0-5.523-4.478-10-10-10c-5.523,0-10,4.477-10,10V456c0,16.542,13.457,30,29.999,30h272
			c16.542,0,29.999-13.458,29.999-30V56C512.001,39.458,498.544,26.001,482.002,26.001z"/>
		<path d="M70,106.001c-16.542,0-30,13.458-30,30s13.458,30,30,30s30-13.458,30-30S86.542,106.001,70,106.001z M70,146.001
			c-5.514,0-10-4.486-10-10c0-5.514,4.486-10,10-10c5.514,0,10,4.486,10,10C80,141.515,75.514,146.001,70,146.001z"/>
		<path d="M70,186.001c-16.542,0-30,13.458-30,30s13.458,30,30,30s30-13.458,30-30S86.542,186.001,70,186.001z M70,226.001
			c-5.514,0-10-4.486-10-10c0-5.514,4.486-10,10-10c5.514,0,10,4.486,10,10C80,221.515,75.514,226.001,70,226.001z"/>
		<path d="M70,266c-16.542,0-30,13.458-30,30c0,16.542,13.458,30,30,30s30-13.458,30-30C100,279.458,86.542,266,70,266z M70,306
			c-5.514,0-10-4.486-10-10c0-5.514,4.486-10,10-10c5.514,0,10,4.486,10,10C80,301.515,75.514,306,70,306z"/>
		<path d="M70,346c-16.542,0-30,13.458-30,30c0,16.542,13.458,30,30,30s30-13.458,30-30C100,359.458,86.542,346,70,346z M70,386
			c-5.514,0-10-4.486-10-10c0-5.514,4.486-10,10-10c5.514,0,10,4.486,10,10C80,381.515,75.514,386,70,386z"/>
		<path d="M250.004,166.001c16.542,0,30-13.458,30-30s-13.458-30-30-30s-30,13.458-30,30S233.462,166.001,250.004,166.001z
			 M250.004,126.001c5.514,0,10,4.486,10,10c0,5.514-4.486,10-10,10c-5.514,0-10-4.486-10-10
			C240.004,130.486,244.49,126.001,250.004,126.001z"/>
		<path d="M250.004,246.001c16.542,0,30-13.458,30-30s-13.458-30-30-30s-30,13.458-30,30S233.462,246.001,250.004,246.001z
			 M250.004,206.001c5.514,0,10,4.486,10,10c0,5.514-4.486,10-10,10c-5.514,0-10-4.486-10-10
			C240.004,210.486,244.49,206.001,250.004,206.001z"/>
		<path d="M250.004,326c16.542,0,30-13.458,30-30c0-16.542-13.458-30-30-30s-30,13.458-30,30
			C220.004,312.543,233.462,326,250.004,326z M250.004,286c5.514,0,10,4.486,10,10c0,5.514-4.486,10-10,10c-5.514,0-10-4.486-10-10
			C240.004,290.486,244.49,286,250.004,286z"/>
		<path d="M250.004,406c16.542,0,30-13.458,30-30c0-16.542-13.458-30-30-30s-30,13.458-30,30
			C220.004,392.543,233.462,406,250.004,406z M250.004,366c5.514,0,10,4.486,10,10c0,5.514-4.486,10-10,10c-5.514,0-10-4.486-10-10
			C240.004,370.486,244.49,366,250.004,366z"/>
		<path d="M310.005,126.001H462c5.522,0,10-4.477,10-10c0-5.523-4.478-10-10-10H310.005c-5.523,0-10,4.477-10,10
			C300.005,121.524,304.482,126.001,310.005,126.001z"/>
		<path d="M310.005,166.001H462c5.522,0,10-4.477,10-10c0-5.523-4.478-10-10-10H310.005c-5.523,0-10,4.477-10,10
			C300.005,161.524,304.482,166.001,310.005,166.001z"/>
		<path d="M310.005,206.001H462c5.522,0,10-4.477,10-10c0-5.523-4.478-10-10-10H310.005c-5.523,0-10,4.477-10,10
			C300.005,201.524,304.482,206.001,310.005,206.001z"/>
		<path d="M310.005,246.001H462c5.522,0,10-4.477,10-10c0-5.523-4.478-10-10-10H310.005c-5.523,0-10,4.477-10,10
			C300.005,241.524,304.482,246.001,310.005,246.001z"/>
		<path d="M310.005,286.001H462c5.522,0,10-4.477,10-10c0-5.523-4.478-10-10-10H310.005c-5.523,0-10,4.477-10,10
			C300.005,281.524,304.482,286.001,310.005,286.001z"/>
		<path d="M310.005,326.001H462c5.522,0,10-4.477,10-10c0-5.523-4.478-10-10-10H310.005c-5.523,0-10,4.477-10,10
			C300.005,321.524,304.482,326.001,310.005,326.001z"/>
		<path d="M310.005,366.001H462c5.522,0,10-4.477,10-10c0-5.523-4.478-10-10-10H310.005c-5.523,0-10,4.477-10,10
			C300.005,361.524,304.482,366.001,310.005,366.001z"/>
		<path d="M310.005,406.001h106.991c5.522,0,10-4.477,10-10c0-5.523-4.478-10-10-10H310.005c-5.523,0-10,4.477-10,10
			C300.005,401.524,304.482,406.001,310.005,406.001z"/>
		<path d="M193.311,280.564l17.492-17.493c3.842-3.841,3.849-10.298,0-14.142l-17.492-17.492
			c-3.906-3.905-10.236-3.905-14.142,0.001c-3.905,3.905-3.905,10.237,0,14.142l0.42,0.42h-39.176l0.42-0.42
			c3.905-3.905,3.905-10.237,0-14.142c-3.904-3.905-10.234-3.905-14.143-0.001l-17.492,17.492c-3.848,3.843-3.844,10.299,0,14.142
			l17.492,17.492c1.953,1.953,4.512,2.929,7.071,2.929s5.118-0.977,7.071-2.929c3.905-3.905,3.905-10.237,0-14.142L140.413,266
			h39.178l-0.422,0.422c-3.905,3.905-3.905,10.237,0,14.142c1.953,1.953,4.512,2.929,7.071,2.929
			C188.8,283.493,191.358,282.516,193.311,280.564z"/>
		<path d="M462,386.001h-0.008c-5.522,0-9.996,4.477-9.996,10c0,5.523,4.482,10,10.004,10c5.522,0,10-4.477,10-10
			C472,390.478,467.522,386.001,462,386.001z"/>
		<path d="M10,146.001c5.523,0,10-4.477,10-10v-0.007c0-5.523-4.477-9.996-10-9.996c-5.522,0-10,4.48-10,10.003
			C0,141.523,4.478,146.001,10,146.001z"/>
	</g>
</g>
<g>
</g>
<g>
</g>
<g>
</g>
<g>
</g>
<g>
</g>
<g>
</g>
<g>
</g>
<g>
</g>
<g>
</g>
<g>
</g>
<g>
</g>
<g>
</g>
<g>
</g>
<g>
</g>
<g>
</g>
</svg>
