<?xml version="1.0" encoding="iso-8859-1"?>
<!-- Generator: Adobe Illustrator 21.0.0, SVG Export Plug-In . SVG Version: 6.00 Build 0)  -->
<svg version="1.1" id="Capa_1" xmlns="http://www.w3.org/2000/svg" xmlns:xlink="http://www.w3.org/1999/xlink" x="0px" y="0px"
	 viewBox="0 0 512.002 512.002" style="enable-background:new 0 0 512.002 512.002;" xml:space="preserve">
<g>
	<g>
		<g>
			<path style="fill-rule:evenodd;clip-rule:evenodd;fill:#CDD3E0;" d="M480.826,36.001H31.177C19.53,36.001,10,45.53,10,57.177
				v18.826h492.002V57.177C502.002,45.53,492.473,36.001,480.826,36.001z"/>
			<path style="fill-rule:evenodd;clip-rule:evenodd;fill:#99EBFB;" d="M502.002,76.003H10v279.996h65.002l0-119.994l0-60
				c0-10.992,9.008-20,20-20h321.997c10.992,0,20,9,20,20v20v159.994h65.003V76.003z"/>
			<path style="fill-rule:evenodd;clip-rule:evenodd;fill:#8481E2;" d="M286.86,281.861l-45.859,45.859l-15.859-15.859
				c-7.809-7.809-20.472-7.809-28.281,0c-7.81,7.809-7.81,20.472,0,28.281l30,30c7.809,7.81,20.472,7.81,28.281,0l60-60
				c7.809-7.809,7.809-20.472,0-28.281C307.332,274.052,294.67,274.052,286.86,281.861z"/>
			<path style="fill-rule:evenodd;clip-rule:evenodd;fill:#CDD3E0;" d="M75.002,396.001v-40.002H10v18.826
				c0,11.647,9.529,21.176,21.176,21.176H75.002z"/>
			<path style="fill-rule:evenodd;clip-rule:evenodd;fill:#CDD3E0;" d="M436.999,355.999v40.002h43.826
				c11.647,0,21.176-9.529,21.176-21.176v-18.826H436.999z"/>
			<polygon style="fill-rule:evenodd;clip-rule:evenodd;fill:#8690AF;" points="306.002,476.001 301.001,436 211.001,436 
				206,476.001 			"/>
			<path style="fill-rule:evenodd;clip-rule:evenodd;fill:#FBF7F6;" d="M436.999,196.005H235.002c0,22-18.003,40-40,40h-120
				l0,107.991V416c0,10.992,9,20,20,20h321.997c11,0,20-9,20-20v-72.003V196.005z"/>
			<path style="fill-rule:evenodd;clip-rule:evenodd;fill:#FFC234;" d="M235.002,196.005h201.997v-20c0-11-9.009-20-20-20H95.002
				c-10.991,0-20,9.009-20,20l0,60h120C217,236.005,235.002,218.005,235.002,196.005z"/>
		</g>
		<path style="fill-rule:evenodd;clip-rule:evenodd;fill:#45E08C;" d="M286.86,281.861l-45.859,45.859l-15.859-15.859
			c-7.809-7.809-20.472-7.809-28.281,0c-7.81,7.809-7.81,20.472,0,28.281l30,30c7.809,7.81,20.472,7.81,28.281,0l60-60
			c7.809-7.809,7.809-20.472,0-28.281C307.332,274.052,294.67,274.052,286.86,281.861z"/>
	</g>
	<g>
		<path d="M480.825,26.001H31.177C13.985,26.001,0,39.987,0,57.177v317.647c0,17.19,13.985,31.176,31.177,31.176h33.825v9.998
			c0,16.542,13.458,30,30,30h104.671l-2.501,20.002h-31.173c-5.523,0-10,4.477-10,10c0,5.523,4.477,10,10,10h180.004
			c5.522,0,10-4.477,10-10c0-5.523-4.478-10-10-10H314.83l-2.501-20.002h104.67c16.542,0,30-13.458,30-30v-9.998h33.826
			c17.191,0,31.177-13.986,31.177-31.176V57.177C512.002,39.987,498.017,26.001,480.825,26.001z M31.177,46.001h449.648
			c6.163,0,11.177,5.014,11.177,11.176v8.826H120.007c-5.522,0-10,4.477-10,10c0,5.523,4.478,10,10,10h371.995v259.996h-45.003
			V176.005c0-16.542-13.458-29.999-30-29.999H95.002c-16.542,0-30,13.458-30,29.999v169.994H20V86.003h10.007
			c5.522,0,10-4.477,10-10c0-5.523-4.478-10-10-10H20v-8.826C20,51.015,25.014,46.001,31.177,46.001z M426.999,186.005H235.002
			c-5.522,0-10,4.477-10,10c0,16.542-13.458,29.999-29.999,29.999h-110l-0.001,0v-50c0-5.514,4.486-9.999,10-9.999h321.997
			c5.514,0,10,4.486,10,9.999V186.005z M31.177,386.001c-6.163,0-11.177-5.014-11.177-11.176v-8.826h45.002v20.002H31.177z
			 M294.674,466.001h-77.346l2.501-20.002h72.345L294.674,466.001z M426.999,415.999c0,5.514-4.486,10-10,10H95.002
			c-5.514,0-10-4.486-10-10v-19.998V246.005h0.001h110c24.145,0,44.349-17.206,48.994-39.999h183.002v189.996V415.999z
			 M480.825,386.001h-33.826v-20.002h45.003v8.826C492.002,380.987,486.988,386.001,480.825,386.001z"/>
		<path d="M155.006,186.005h-0.008c-5.522,0-9.996,4.477-9.996,10c0,5.523,4.481,10,10.004,10c5.522,0,10-4.477,10-10
			C165.006,190.482,160.528,186.005,155.006,186.005z"/>
		<path d="M195.007,186.005H195c-5.522,0-9.997,4.477-9.997,10c0,5.523,4.481,10,10.004,10c5.522,0,10-4.477,10-10
			C205.007,190.482,200.529,186.005,195.007,186.005z"/>
		<path d="M115.005,186.005h-0.008c-5.522,0-9.996,4.477-9.996,10c0,5.523,4.481,10,10.004,10c5.522,0,10-4.477,10-10
			C125.005,190.482,120.527,186.005,115.005,186.005z"/>
		<path d="M301.001,266.004c-8.013,0-15.546,3.121-21.212,8.786l-38.788,38.789l-8.788-8.789
			c-5.666-5.666-13.199-8.786-21.212-8.786c-8.013,0-15.546,3.121-21.212,8.786c-5.666,5.666-8.786,13.199-8.786,21.212
			c0,8.013,3.12,15.546,8.786,21.212l30,30c5.666,5.665,13.199,8.786,21.212,8.786c8.013,0,15.546-3.121,21.212-8.786l60-60
			c5.666-5.665,8.786-13.199,8.786-21.212c0-8.013-3.12-15.546-8.786-21.212C316.547,269.124,309.014,266.004,301.001,266.004z
			 M308.07,303.071l-60,60c-1.888,1.889-4.398,2.928-7.069,2.928c-2.671,0-5.182-1.039-7.069-2.928l-30-30
			c-1.889-1.888-2.929-4.399-2.929-7.069c0-2.67,1.04-5.181,2.929-7.069c1.888-1.889,4.398-2.928,7.069-2.928
			c2.671,0,5.182,1.04,7.069,2.928l15.859,15.859c3.906,3.905,10.236,3.905,14.143,0l45.859-45.859
			c3.898-3.898,10.24-3.898,14.139,0c1.889,1.888,2.929,4.399,2.929,7.069C310.999,298.673,309.959,301.183,308.07,303.071z"/>
		<path d="M396.999,385.998h-54.996c-5.522,0-10,4.477-10,10c0,5.523,4.478,10,10,10h54.996c5.522,0,10-4.477,10-10
			C406.999,390.475,402.522,385.998,396.999,385.998z"/>
		<path d="M297.006,385.998h-0.007c-5.523,0-9.997,4.477-9.997,10c0,5.523,4.481,10,10.004,10c5.523,0,10-4.477,10-10
			C307.006,390.475,302.528,385.998,297.006,385.998z"/>
		<path d="M75.01,86.003c5.522,0,10-4.477,10-10c0-5.523-4.478-10-10-10h-0.007c-5.522,0-9.996,4.477-9.996,10
			C65.007,81.526,69.487,86.003,75.01,86.003z"/>
	</g>
</g>
<g>
</g>
<g>
</g>
<g>
</g>
<g>
</g>
<g>
</g>
<g>
</g>
<g>
</g>
<g>
</g>
<g>
</g>
<g>
</g>
<g>
</g>
<g>
</g>
<g>
</g>
<g>
</g>
<g>
</g>
</svg>
