<?xml version="1.0" encoding="iso-8859-1"?>
<!-- Generator: Adobe Illustrator 21.0.0, SVG Export Plug-In . SVG Version: 6.00 Build 0)  -->
<svg version="1.1" id="Capa_1" xmlns="http://www.w3.org/2000/svg" xmlns:xlink="http://www.w3.org/1999/xlink" x="0px" y="0px"
	 viewBox="0 0 512.002 512.002" style="enable-background:new 0 0 512.002 512.002;" xml:space="preserve">
<g>
	<g>
		<path style="fill-rule:evenodd;clip-rule:evenodd;fill:#CDD3E0;" d="M126.001,60.001h100c5.5,0,10-4.5,10-10h80V30
			c0-11-9-20-20-20h-240c-11,0-20,9-20,20v20.001h80C116.002,55.501,120.501,60.001,126.001,60.001z"/>
		<path style="fill-rule:evenodd;clip-rule:evenodd;fill:#99EBFB;" d="M226.002,60.001h-100c-5.5,0-10-4.5-10-10h-80L36.001,462
			h280.001v-61.002H134.004c-11,0-20-9.008-20-20l0-179.995l0-60c0-10.992,9.008-20,20-20h181.998V50.001h-80
			C236.001,55.501,231.502,60.001,226.002,60.001z"/>
		<path style="fill-rule:evenodd;clip-rule:evenodd;fill:#FBF7F6;" d="M476.001,161.003H274.004c0,22-18.002,40-40,40h-120
			l0,179.995c0,10.992,9,20,20,20h181.998h139.999c11,0,20-9,20-20L476.001,161.003L476.001,161.003z M309.143,234.431
			c7.81-7.81,20.474-7.81,28.284,0l42.426,42.427c7.811,7.81,7.811,20.474,0,28.284l-42.426,42.426
			c-7.811,7.811-20.474,7.811-28.285,0c-7.811-7.81-7.811-20.474,0-28.284l8.286-8.286h-93.139
			c-11.044,0-19.998-8.954-19.998-19.998c0-11.044,8.954-19.998,19.998-19.998h93.138l-8.286-8.286
			C301.333,254.905,301.333,242.242,309.143,234.431z"/>
		<path style="fill-rule:evenodd;clip-rule:evenodd;fill:#CDD3E0;" d="M316.002,462h-280v20.002c0,11,9,20,20,20h240
			c11,0,20-9,20-20V462z"/>
		<path style="fill-rule:evenodd;clip-rule:evenodd;fill:#8481E2;" d="M309.143,319.284c-7.811,7.811-7.811,20.474,0,28.284
			c7.811,7.811,20.474,7.811,28.285,0l42.426-42.426c7.811-7.811,7.811-20.474,0-28.284l-42.426-42.427
			c-7.811-7.81-20.474-7.81-28.284,0c-7.811,7.811-7.811,20.474,0,28.285l8.286,8.286h-93.138c-11.044,0-19.998,8.954-19.998,19.998
			c0,11.044,8.954,19.998,19.998,19.998h93.139L309.143,319.284z"/>
		<path style="fill-rule:evenodd;clip-rule:evenodd;fill:#FFC234;" d="M114.004,201.003h120c21.997,0,40-18,40-40h201.997v-20
			c0-11-9.008-20-20-20H316.002H134.004c-10.992,0-20,9.008-20,20L114.004,201.003z"/>
	</g>
	<g>
		<path d="M101.005,20c5.523,0,10-4.477,10-10c0-5.523-4.477-10-10-10h-0.007c-5.523,0-9.996,4.477-9.996,10
			C91.002,15.523,95.482,20,101.005,20z"/>
		<path d="M486.001,161.003c0-0.003,0-0.006,0-0.01v-19.99c0-16.542-13.458-30-30-30h-130V30c0-16.542-13.457-30-29.999-30H146.001
			c-5.523,0-10,4.477-10,10c0,5.523,4.477,10,10,10h150.001c5.514,0,9.999,4.486,9.999,10v10.001h-70c-5.523,0-9.999,4.477-9.999,10
			h-100c0-5.523-4.477-10-10-10h-70V30c0-5.514,4.486-10,10-10c5.523,0,10-4.477,10-10c0-5.523-4.477-10-10-10
			c-16.542,0-30,13.458-30,30v431.981c0,0.007-0.001,0.013-0.001,0.019c0,0.007,0.001,0.013,0.001,0.019v19.983
			c0,16.542,13.458,30,30,30h240.001c16.542,0,29.999-13.458,29.999-30v-19.973c0-0.01,0.001-0.019,0.001-0.029
			c0-0.01-0.001-0.019-0.001-0.029v-50.973h40c5.523,0,10-4.477,10-10c0-5.523-4.477-10-10-10H134.004c-5.514,0-10-4.486-10-10
			V211.003h110c24.146,0,44.349-17.206,48.995-40h183.001v209.995c0,5.514-4.486,10-10,10c-5.523,0-10,4.477-10,10
			c0,5.523,4.477,10,10,10c16.542,0,30-13.458,30-30V161.013C486.001,161.009,486.001,161.006,486.001,161.003z M296.002,492.002
			H56.002c-5.514,0-10-4.486-10-10V472h260v10.002C306.001,487.516,301.516,492.002,296.002,492.002z M134.004,410.998h171.998V452
			h-260V60.001h62.684c3.463,5.974,9.928,10,17.316,10h100c7.388,0,13.853-4.026,17.315-10h62.684v51.001H134.004
			c-16.542,0-30,13.458-30,30v239.995C104.004,397.54,117.462,410.998,134.004,410.998z M274.004,151.003c-5.523,0-10,4.477-10,10
			c0,16.542-13.458,30-30,30h-110v-50c0-5.514,4.486-10,10-10h321.997c5.514,0,10,4.486,10,10v10H274.004z"/>
		<path d="M194.008,151.003h-0.007c-5.523,0-9.997,4.477-9.997,10c0,5.523,4.481,10,10.004,10c5.523,0,10-4.477,10-10
			C204.008,155.48,199.531,151.003,194.008,151.003z"/>
		<path d="M234.009,151.003h-0.008c-5.523,0-9.996,4.477-9.996,10c0,5.523,4.481,10,10.004,10c5.523,0,10-4.477,10-10
			C244.009,155.48,239.532,151.003,234.009,151.003z"/>
		<path d="M154.006,151.003h-0.007c-5.523,0-9.997,4.477-9.997,10c0,5.523,4.481,10,10.004,10c5.523,0,10-4.477,10-10
			C164.006,155.48,159.529,151.003,154.006,151.003z"/>
		<path d="M344.499,227.36c-11.698-11.697-30.73-11.698-42.427,0c-5.666,5.667-8.787,13.2-8.787,21.214
			c0,4.359,0.923,8.576,2.678,12.428h-71.672c-16.541,0-29.998,13.457-29.998,29.998c0,16.541,13.457,29.998,29.998,29.998h71.672
			c-1.754,3.852-2.678,8.069-2.678,12.429c0,8.013,3.121,15.547,8.787,21.213c5.849,5.848,13.531,8.772,21.213,8.772
			c7.683,0,15.365-2.924,21.214-8.772l42.426-42.426c5.666-5.667,8.787-13.2,8.787-21.213c0-8.014-3.121-15.547-8.787-21.213
			L344.499,227.36z M372.783,298.071l-42.426,42.426c-1.889,1.889-4.4,2.929-7.071,2.929c-2.671,0-5.183-1.04-7.071-2.929
			c-1.889-1.889-2.929-4.4-2.929-7.071c0-2.671,1.04-5.182,2.929-7.071h0.001l8.287-8.287c2.86-2.86,3.715-7.162,2.167-10.898
			c-1.548-3.737-5.194-6.173-9.239-6.173h-93.139c-5.513,0-9.998-4.485-9.998-9.998s4.485-9.998,9.998-9.998h93.138
			c4.044,0,7.691-2.437,9.239-6.173c1.548-3.737,0.692-8.038-2.168-10.898l-8.286-8.286c-1.889-1.889-2.929-4.4-2.929-7.071
			c0-2.671,1.04-5.183,2.929-7.071c1.889-1.889,4.4-2.929,7.071-2.929c2.671,0,5.182,1.04,7.071,2.929l42.427,42.427
			c1.889,1.889,2.929,4.399,2.929,7.071C375.712,293.671,374.672,296.182,372.783,298.071z"/>
		<path d="M411.004,390.998h-0.007c-5.523,0-9.996,4.477-9.996,10c0,5.523,4.48,10,10.003,10c5.523,0,10-4.477,10-10
			C421.004,395.475,416.527,390.998,411.004,390.998z"/>
	</g>
</g>
<g>
</g>
<g>
</g>
<g>
</g>
<g>
</g>
<g>
</g>
<g>
</g>
<g>
</g>
<g>
</g>
<g>
</g>
<g>
</g>
<g>
</g>
<g>
</g>
<g>
</g>
<g>
</g>
<g>
</g>
</svg>
