<?xml version="1.0" encoding="iso-8859-1"?>
<!-- Generator: Adobe Illustrator 21.0.0, SVG Export Plug-In . SVG Version: 6.00 Build 0)  -->
<svg version="1.1" id="Capa_1" xmlns="http://www.w3.org/2000/svg" xmlns:xlink="http://www.w3.org/1999/xlink" x="0px" y="0px"
	 viewBox="0 0 512.002 512.002" style="enable-background:new 0 0 512.002 512.002;" xml:space="preserve">
<g>
	<g>
		<path style="fill-rule:evenodd;clip-rule:evenodd;fill:#FBF7F6;" d="M156.002,110.003H356v79.998H156.002V110.003L156.002,110.003
			z M116.001,280.004h280V70.001h-280V280.004z"/>
		<rect x="156.002" y="110.003" style="fill-rule:evenodd;clip-rule:evenodd;fill:#CFCDF5;" width="199.997" height="79.998"/>
		<rect x="116.001" y="280.004" style="fill-rule:evenodd;clip-rule:evenodd;fill:#45E08C;" width="280" height="181.996"/>
		<polygon style="fill-rule:evenodd;clip-rule:evenodd;fill:#8481E2;" points="396.001,462 116.001,462 116.001,502.002 
			376.001,502.002 396.001,502.002 		"/>
		<path style="fill-rule:evenodd;clip-rule:evenodd;fill:#FFC234;" d="M116.001,70.001h280V30c0-11-9-20-20-20H136.001
			c-11,0-20,9-20,20V70.001z"/>
	</g>
	<g>
		<path d="M376.001,0h-140c-5.523,0-10,4.477-10,10c0,5.523,4.477,10,10,10h140c5.514,0,10,4.486,10,10v30.001h-260V30
			c0-5.514,4.486-10,10-10h10.001c5.523,0,10-4.477,10-10c0-5.523-4.477-10-10-10h-10.001c-16.542,0-30,13.458-30,30v472.002
			c0,5.523,4.477,10,10,10h280c5.523,0,10-4.477,10-10V30C406.001,13.458,392.543,0,376.001,0z M386.001,80.001v190.003h-260V80.001
			H386.001z M126.001,492.002V472h0.001H266c5.523,0,10-4.477,10-10c0-5.523-4.477-10-10-10H126.001h-0.001V290.004h260V452h-0.001
			H356c-5.523,0-10,4.477-10,10c0,5.523,4.477,10,10,10h30.001h0.001v20.002H126.001z"/>
		<path d="M146.01,30h-0.007c-5.523,0-9.997,4.477-9.997,10c0,5.523,4.481,10,10.004,10c5.523,0,10-4.477,10-10
			C156.01,34.477,151.533,30,146.01,30z"/>
		<path d="M156.002,200.001H356c5.523,0,10-4.477,10-10v-79.999c0-5.523-4.477-10-10-10H156.002c-5.523,0-10,4.477-10,10v79.999
			C146.002,195.524,150.479,200.001,156.002,200.001z M166.002,120.003H346v59.999H166.002V120.003z"/>
		<path d="M356,220.003H156.002c-5.523,0-10,4.477-10,10c0,5.523,4.477,10,10,10H356c5.523,0,10-4.477,10-10
			C366,224.48,361.523,220.003,356,220.003z"/>
		<path d="M206.002,340.004H306c5.523,0,10-4.477,10-10c0-5.523-4.477-10-10-10h-99.999c-5.523,0-10,4.477-10,10
			C196.002,335.527,200.479,340.004,206.002,340.004z"/>
		<path d="M366,370.004c0-5.523-4.477-10-10-10H156.002c-5.523,0-10,4.477-10,10c0,5.523,4.477,10,10,10H356
			C361.523,380.004,366,375.527,366,370.004z"/>
		<path d="M316,410.004c0-5.523-4.477-10-10-10h-99.999c-5.523,0-10,4.477-10,10c0,5.523,4.477,10,10,10H306
			C311.523,420.004,316,415.527,316,410.004z"/>
		<path d="M191.005,20c5.523,0,10-4.477,10-10c0-5.523-4.477-10-10-10h-0.007c-5.523,0-9.996,4.477-9.996,10
			C181.001,15.523,185.482,20,191.005,20z"/>
		<path d="M311.003,452h-0.007c-5.523,0-9.996,4.477-9.996,10c0,5.523,4.48,10,10.004,10c5.523,0,10-4.477,10-10
			C321.003,456.478,316.526,452,311.003,452z"/>
	</g>
</g>
<g>
</g>
<g>
</g>
<g>
</g>
<g>
</g>
<g>
</g>
<g>
</g>
<g>
</g>
<g>
</g>
<g>
</g>
<g>
</g>
<g>
</g>
<g>
</g>
<g>
</g>
<g>
</g>
<g>
</g>
</svg>
