<?xml version="1.0" encoding="iso-8859-1"?>
<!-- Generator: Adobe Illustrator 21.0.0, SVG Export Plug-In . SVG Version: 6.00 Build 0)  -->
<svg version="1.1" id="Capa_1" xmlns="http://www.w3.org/2000/svg" xmlns:xlink="http://www.w3.org/1999/xlink" x="0px" y="0px"
	 viewBox="0 0 512.001 512.001" style="enable-background:new 0 0 512.001 512.001;" xml:space="preserve">
<g>
	<g>
		<path style="fill-rule:evenodd;clip-rule:evenodd;fill:#CDD3E0;" d="M10,76.002H256h246.001V57.177
			c0-11.647-9.529-21.176-21.176-21.176H31.176C19.529,36,10,45.529,10,57.177V76.002z"/>
		<path style="fill-rule:evenodd;clip-rule:evenodd;fill:#FFC234;" d="M130,156.004c21.997,0,40-18,40-40H256V76.002H10v80.001H130z
			"/>
		<path style="fill-rule:evenodd;clip-rule:evenodd;fill:#FFC234;" d="M256,116.004l0,40h120c21.997,0,40-18,40-40h86.001l0-40.001
			H256V116.004z"/>
		<path style="fill-rule:evenodd;clip-rule:evenodd;fill:#FBF7F6;" d="M256,156.004v-40h-86.001c0,22-18.003,40-40,40H10v199.995
			H256V156.004L256,156.004z M50.001,196.005h165.998v79.999H50.001V196.005z"/>
		<rect x="50.001" y="196.005" style="fill-rule:evenodd;clip-rule:evenodd;fill:#CFCDF5;" width="165.998" height="79.998"/>
		<path style="fill-rule:evenodd;clip-rule:evenodd;fill:#45E08C;" d="M256,156.004v199.995h40.001v-39.993H462v39.993h40.002
			l0-239.995H416c0,22-18.003,40-40,40H256z"/>
		<rect x="296.002" y="316.005" style="fill-rule:evenodd;clip-rule:evenodd;fill:#CFCDF5;" width="165.998" height="39.993"/>
		<path style="fill-rule:evenodd;clip-rule:evenodd;fill:#CDD3E0;" d="M462,355.998H296.002H256H10v18.826
			C10,386.471,19.529,396,31.176,396H216h80.001h184.824c11.647,0,21.176-9.529,21.176-21.176v-18.826H462z"/>
		<polygon style="fill-rule:evenodd;clip-rule:evenodd;fill:#8690AF;" points="306.001,476 296.001,396 216,396 205.999,476 		"/>
	</g>
	<g>
		<path d="M480.825,26H141.177c-5.523,0-10,4.477-10,10c0,5.523,4.477,10,10,10h339.648c6.162,0,11.176,5.014,11.176,11.177v8.825
			H20v-8.825C20,51.014,25.014,46,31.176,46h20.001c5.522,0,10-4.477,10-10c0-5.523-4.478-10-10-10H31.176
			C13.985,26,0,39.986,0,57.177v317.647C0,392.015,13.985,406,31.176,406h173.496l-7.501,60h-31.173c-5.522,0-10,4.477-10,10
			c0,5.523,4.478,10,10,10h180.004c5.522,0,10-4.477,10-10c0-5.523-4.478-10-10-10h-31.173l-7.5-60h173.496
			c17.19,0,31.176-13.986,31.176-31.176V57.177C512.001,39.986,498.016,26,480.825,26z M461.999,306.006h-20
			c-5.522,0-10,4.477-10,10c0,5.523,4.478,10,10,10h10v19.993H306.002v-19.993h45.997c5.523,0,10-4.477,10-10
			c0-5.523-4.477-10-10-10h-55.997c-5.523,0-10,4.477-10,10v29.993H266V166.004h110c24.146,0,44.35-17.206,48.995-40h67.006v219.995
			h-20.002v-29.993C471.999,310.483,467.522,306.006,461.999,306.006z M20,345.999V166.004h110c24.145,0,44.349-17.206,48.994-40
			H246v219.995H20z M492.001,106.004H416c-5.522,0-10,4.477-10,10c0,16.542-13.458,30-30,30H266V86.003h226.001V106.004z
			 M246,86.003v20.001h-76.001c-5.522,0-10,4.477-10,10c0,16.542-13.458,30-29.999,30H20V86.003H246z M294.673,466h-77.346l7.501-60
			h62.345L294.673,466z M480.825,386H31.176C25.014,386,20,380.987,20,374.824v-8.826h472.001v8.826
			C492.001,380.987,486.987,386,480.825,386z"/>
		<path d="M96.18,46c5.522,0,10-4.477,10-10c0-5.523-4.478-10-10-10h-0.007c-5.522,0-9.996,4.477-9.996,10
			C86.177,41.523,90.657,46,96.18,46z"/>
		<path d="M130.003,126.004c5.522,0,10-4.477,10-10c0-5.523-4.478-10-10-10h-0.008c-5.522,0-9.996,4.477-9.996,10
			C119.999,121.527,124.48,126.004,130.003,126.004z"/>
		<path d="M90.002,126.004c5.522,0,10-4.477,10-10c0-5.523-4.478-10-10-10h-0.008c-5.522,0-9.996,4.477-9.996,10
			C79.998,121.527,84.479,126.004,90.002,126.004z"/>
		<path d="M50,126.004c5.522,0,10-4.477,10-10c0-5.523-4.478-10-10-10h-0.007c-5.522,0-9.997,4.477-9.997,10
			C39.996,121.527,44.478,126.004,50,126.004z"/>
		<path d="M376.004,126.004c5.522,0,10-4.477,10-10c0-5.523-4.478-10-10-10h-0.008c-5.522,0-9.996,4.477-9.996,10
			C366,121.527,370.482,126.004,376.004,126.004z"/>
		<path d="M336.002,126.004c5.522,0,10-4.477,10-10c0-5.523-4.478-10-10-10h-0.007c-5.522,0-9.997,4.477-9.997,10
			C325.998,121.527,330.479,126.004,336.002,126.004z"/>
		<path d="M296.001,126.004c5.522,0,10-4.477,10-10c0-5.523-4.478-10-10-10h-0.008c-5.522,0-9.996,4.477-9.996,10
			C285.997,121.527,290.478,126.004,296.001,126.004z"/>
		<path d="M215.999,186.005H50.001c-5.522,0-10,4.477-10,10v79.999c0,5.523,4.478,10,10,10h165.998c5.523,0,10-4.477,10-10v-79.999
			C225.999,190.482,221.521,186.005,215.999,186.005z M60.001,211.925l49.965,24.08l-49.965,24.079V211.925z M93.785,206.005h78.429
			L133,224.904L93.785,206.005z M133,247.105l39.214,18.899H93.785L133,247.105z M156.034,236.005l49.965-24.08v48.159
			L156.034,236.005z"/>
		<path d="M133,306.004H50.001c-5.522,0-10,4.477-10,10c0,5.523,4.478,10,10,10H133c5.523,0,10-4.477,10-10
			C143,310.481,138.523,306.004,133,306.004z"/>
		<path d="M461.999,266.006H296.002c-5.523,0-10,4.477-10,10c0,5.523,4.477,10,10,10h165.997c5.523,0,10-4.477,10-10
			C471.999,270.483,467.522,266.006,461.999,266.006z"/>
		<path d="M296.002,246.006h82.999c5.522,0,10-4.477,10-10c0-5.523-4.478-10-10-10h-82.999c-5.523,0-10,4.477-10,10
			C286.002,241.529,290.479,246.006,296.002,246.006z"/>
		<path d="M296.002,206.006h165.997c5.523,0,10-4.477,10-10c0-5.523-4.477-10-10-10H296.002c-5.523,0-10,4.477-10,10
			C286.002,201.529,290.479,206.006,296.002,206.006z"/>
		<path d="M397.002,306.006h-0.007c-5.522,0-9.996,4.477-9.996,10c0,5.523,4.48,10,10.003,10c5.522,0,10-4.477,10-10
			C407.002,310.483,402.524,306.006,397.002,306.006z"/>
	</g>
</g>
<g>
</g>
<g>
</g>
<g>
</g>
<g>
</g>
<g>
</g>
<g>
</g>
<g>
</g>
<g>
</g>
<g>
</g>
<g>
</g>
<g>
</g>
<g>
</g>
<g>
</g>
<g>
</g>
<g>
</g>
</svg>
