<?xml version="1.0" encoding="iso-8859-1"?>
<!-- Generator: Adobe Illustrator 21.0.0, SVG Export Plug-In . SVG Version: 6.00 Build 0)  -->
<svg version="1.1" id="Capa_1" xmlns="http://www.w3.org/2000/svg" xmlns:xlink="http://www.w3.org/1999/xlink" x="0px" y="0px"
	 viewBox="0 0 512 512" style="enable-background:new 0 0 512 512;" xml:space="preserve">
<g>
	<g>
		<path style="fill-rule:evenodd;clip-rule:evenodd;fill:#CDD3E0;" d="M328.001,30c0-11-9-20-20-20H76c-11,0-20,9-20,20v20.002
			h272.002V30z"/>
		<path style="fill-rule:evenodd;clip-rule:evenodd;fill:#99EBFB;" d="M328.001,50.001H56v259.996h240.651V242c0-11,9-20,20-20
			h11.351V50.001L328.001,50.001z M96.001,90.003h192v120h-192V90.003z"/>
		<rect x="96.001" y="90.003" style="fill-rule:evenodd;clip-rule:evenodd;fill:#CFCDF5;" width="192" height="120"/>
		<path style="fill-rule:evenodd;clip-rule:evenodd;fill:#CFCDF5;" d="M316.651,222c-11,0-20,9-20,20v67.998V370v112
			c0,11,9,20,20,20H436c11,0,20-9,20-20V242c0-11-9-20-20-20H328.001H316.651z"/>
		<path style="fill-rule:evenodd;clip-rule:evenodd;fill:#CDD3E0;" d="M296.651,309.998H56V350c0,11,9,20,20,20h220.651V309.998z"/>
	</g>
	<g>
		<path d="M192.004,329.999h-0.007c-5.522,0-9.997,4.477-9.997,10s4.481,10,10.004,10s10-4.477,10-10
			S197.526,329.999,192.004,329.999z"/>
		<path d="M436,212h-97.998V30c0-16.542-13.458-30-30-30H76C59.458,0,46,13.458,46,30v320c0,16.542,13.458,30,30,30h210.651v102
			c0,16.542,13.457,30,29.999,30H436c16.542,0,30-13.458,30-30V242C466,225.458,452.542,212,436,212z M76,20h232.002
			c5.514,0,10,4.486,10,10v10.001H186.001c-5.522,0-10,4.477-10,10s4.478,10,10,10h132.001V212h-1.352
			c-16.542,0-29.999,13.458-29.999,30v17.997h-49.65c-5.522,0-10,4.477-10,10s4.478,10,10,10h49.65v20.001H66V60.001h30.001
			c5.522,0,10-4.477,10-10s-4.478-10-10-10H66V30C66,24.486,70.486,20,76,20z M76,360c-5.514,0-10-4.486-10-10v-30.002h220.651V360
			H76z M446,482c0,5.514-4.486,10-10,10H316.65c-5.514,0-9.999-4.486-9.999-10V242c0-5.514,4.485-10,9.999-10H436
			c5.514,0,10,4.486,10,10V482z"/>
		<path d="M376.329,461.999h-0.008c-5.522,0-9.996,4.477-9.996,10s4.481,10,10.004,10s10-4.477,10-10
			S381.851,461.999,376.329,461.999z"/>
		<path d="M375.599,131.706c1.953,1.953,4.512,2.929,7.071,2.929s5.118-0.977,7.071-2.929c3.177-3.178,3.769-7.961,1.775-11.737
			h35.151c2.529,0,4.666,2.137,4.666,4.667v35.152c-3.776-1.993-8.56-1.403-11.738,1.775c-3.905,3.905-3.905,10.237,0,14.142
			l14.667,14.667c1.876,1.875,4.419,2.929,7.071,2.929s5.196-1.054,7.071-2.929l14.666-14.667c3.905-3.905,3.905-10.237,0-14.142
			c-3.178-3.177-7.961-3.768-11.737-1.775v-35.152c0-13.601-11.065-24.667-24.666-24.667h-35.151
			c1.993-3.776,1.402-8.56-1.775-11.737c-3.905-3.905-10.235-3.905-14.143,0l-14.667,14.667c-1.875,1.875-2.929,4.419-2.929,7.071
			s1.054,5.196,2.929,7.071L375.599,131.706z"/>
		<path d="M249.055,465.596c-3.904-3.905-10.234-3.905-14.143,0c-3.178,3.178-3.769,7.962-1.775,11.738h-35.152
			c-2.529,0-4.667-2.137-4.667-4.667v-35.152c1.456,0.769,3.061,1.154,4.667,1.154c2.56,0,5.118-0.977,7.071-2.929
			c3.905-3.905,3.905-10.237,0-14.142l-14.667-14.667c-1.876-1.875-4.419-2.929-7.071-2.929s-5.196,1.054-7.071,2.929
			l-14.666,14.667c-3.905,3.905-3.905,10.237,0,14.142c3.178,3.177,7.961,3.768,11.737,1.775v35.152
			c0,13.601,11.065,24.667,24.667,24.667h35.152c-1.994,3.776-1.403,8.56,1.775,11.738c1.953,1.953,4.512,2.929,7.071,2.929
			s5.118-0.977,7.071-2.929l14.666-14.667c3.905-3.905,3.905-10.236,0-14.142L249.055,465.596z"/>
		<path d="M86.001,90.002v120c0,5.523,4.478,10,10,10h192c5.522,0,10-4.477,10-10v-120c0-5.523-4.478-10-10-10h-192
			C90.478,80.002,86.001,84.479,86.001,90.002z M278.001,191.96l-67.132-41.958l67.132-41.958V191.96z M253.132,200.002H130.869
			l61.132-38.207L253.132,200.002z M192.001,138.211l-61.133-38.208h122.266L192.001,138.211z M173.133,150.003l-67.132,41.958
			v-83.915L173.133,150.003z"/>
		<path d="M192.005,259.997h-0.008c-5.522,0-9.996,4.477-9.996,10s4.481,10,10.004,10s10-4.477,10-10
			S197.527,259.997,192.005,259.997z"/>
		<path d="M141.004,60.001c5.522,0,10-4.477,10-10s-4.478-10-10-10h-0.007c-5.522,0-9.996,4.477-9.996,10
			S135.481,60.001,141.004,60.001z"/>
	</g>
</g>
<g>
</g>
<g>
</g>
<g>
</g>
<g>
</g>
<g>
</g>
<g>
</g>
<g>
</g>
<g>
</g>
<g>
</g>
<g>
</g>
<g>
</g>
<g>
</g>
<g>
</g>
<g>
</g>
<g>
</g>
</svg>
