<?xml version="1.0" encoding="iso-8859-1"?>
<!-- Generator: Adobe Illustrator 21.0.0, SVG Export Plug-In . SVG Version: 6.00 Build 0)  -->
<svg version="1.1" id="Capa_1" xmlns="http://www.w3.org/2000/svg" xmlns:xlink="http://www.w3.org/1999/xlink" x="0px" y="0px"
	 viewBox="0 0 512.002 512.002" style="enable-background:new 0 0 512.002 512.002;" xml:space="preserve">
<g>
	<g>
		<path style="fill-rule:evenodd;clip-rule:evenodd;fill:#8481E2;" d="M496.144,467.863l-65.859-65.859h11.718
			c11.046,0,20-8.954,20-20s-8.954-20-20-20h-20.003h-39.997c-11.046,0-20,8.954-20,20V422v20.003c0,11.046,8.954,20,20,20
			c11.046,0,20-8.954,20-20v-11.719l65.859,65.859c7.809,7.809,20.472,7.809,28.281,0
			C503.954,488.335,503.954,475.672,496.144,467.863z"/>
		<path style="fill-rule:evenodd;clip-rule:evenodd;fill:#8481E2;" d="M149.998,442.004V422v-39.997c0-11.046-8.954-20-20-20H90.001
			H69.998c-11.046,0-20,8.954-20,20s8.954,20,20,20h11.718l-65.859,65.859c-7.809,7.809-7.809,20.472,0,28.281
			c7.809,7.809,20.472,7.809,28.281,0l65.859-65.859v11.719c0,11.046,8.954,20,20,20
			C141.044,462.004,149.998,453.049,149.998,442.004z"/>
		<path style="fill-rule:evenodd;clip-rule:evenodd;fill:#FF5D7F;" d="M149.998,422h212.005v-39.997c0-11.046,8.954-20,20-20h39.997
			V149.997h-39.997c-11.046,0-20-8.954-20-20V90.001H149.998v39.997c0,11.046-8.954,20-20,20H90.001v212.006h39.997
			c11.046,0,20,8.954,20,20V422z"/>
		<path style="fill-rule:evenodd;clip-rule:evenodd;fill:#8481E2;" d="M90.001,149.997h39.997c11.046,0,20-8.954,20-20V90.001
			V69.998c0-11.046-8.954-20-20-20c-11.046,0-20,8.954-20,20v11.719L44.139,15.857c-7.809-7.81-20.472-7.81-28.281,0
			c-7.809,7.809-7.809,20.472,0,28.281l65.859,65.859H69.998c-11.046,0-20,8.954-20,20c0,11.046,8.954,20,20,20H90.001z"/>
		<path style="fill-rule:evenodd;clip-rule:evenodd;fill:#8481E2;" d="M362.004,90.001v39.997c0,11.046,8.954,20,20,20h39.997
			h20.003c11.046,0,20-8.954,20-20c0-11.046-8.954-20-20-20h-11.718l65.859-65.859c7.81-7.809,7.81-20.472,0-28.281
			c-7.809-7.81-20.472-7.81-28.281,0l-65.859,65.859V69.998c0-11.046-8.954-20-20-20c-11.046,0-20,8.954-20,20V90.001z"/>
	</g>
	<g>
		<path d="M452.524,410.101c11.369-4.27,19.479-15.254,19.479-28.097c0-16.542-13.458-30-30-30h-10.003V159.997h10.003
			c16.542,0,30-13.458,30-30c0-12.843-8.111-23.826-19.479-28.097l50.69-50.691c5.666-5.665,8.787-13.198,8.787-21.212
			c0-8.013-3.121-15.546-8.786-21.211C497.55,3.121,490.017,0,482.003,0c-8.013,0-15.546,3.12-21.212,8.786l-50.691,50.691
			c-4.271-11.369-15.254-19.48-28.097-19.48c-16.542,0-30,13.458-30,30V80H239.999c-5.523,0-10,4.478-10,10c0,5.522,4.477,10,10,10
			h112.005v29.997c0,16.542,13.458,30,30,30h29.997v192.007h-29.997c-13.035,0-24.149,8.358-28.278,19.995h-26.717
			c-5.523,0-10,4.477-10,10c0,5.522,4.477,10,10,10h24.996V412H159.999v-29.996c0-16.542-13.458-30-30-30h-29.997V159.997h29.997
			c16.542,0,30-13.458,30-30v-60c0-16.542-13.458-30-30-30c-12.843,0-23.826,8.111-28.097,19.48L51.211,8.786
			C45.545,3.12,38.011,0,29.999,0S14.453,3.12,8.787,8.786c-5.666,5.665-8.787,13.198-8.787,21.211
			c0,8.014,3.121,15.547,8.786,21.212L59.478,101.9c-11.369,4.271-19.48,15.254-19.48,28.097c0,16.542,13.458,30,30,30h10.003
			v192.007H69.998c-16.542,0-30,13.458-30,30c0,12.843,8.111,23.826,19.48,28.097L8.787,460.792
			c-5.666,5.666-8.786,13.199-8.786,21.212c0,8.013,3.121,15.546,8.786,21.212c5.848,5.848,13.53,8.771,21.212,8.771
			c7.682,0,15.364-2.924,21.212-8.771l50.691-50.691c4.271,11.369,15.254,19.479,28.097,19.479c16.542,0,30-13.458,30-30V432
			h192.005v10.004c0,16.542,13.458,30,30,30c12.843,0,23.826-8.11,28.097-19.479l50.691,50.691
			c5.666,5.666,13.199,8.786,21.212,8.786c8.013,0,15.546-3.12,21.212-8.786c5.665-5.666,8.786-13.199,8.786-21.212
			c0-8.013-3.121-15.546-8.786-21.212L452.524,410.101z M372.004,129.997v-60c0-5.514,4.486-10,10-10c5.514,0,10,4.486,10,10v11.719
			c0,4.045,2.437,7.691,6.173,9.239c3.737,1.545,8.038,0.691,10.898-2.168l65.859-65.858c1.888-1.889,4.399-2.929,7.069-2.929
			c2.671,0,5.181,1.04,7.07,2.929c1.888,1.888,2.928,4.398,2.928,7.068c0,2.671-1.04,5.182-2.928,7.069l-65.858,65.859
			c-2.86,2.86-3.715,7.161-2.168,10.899c1.548,3.736,5.194,6.173,9.239,6.173h11.718c5.514,0,10,4.486,10,10s-4.486,10-10,10h-60
			C376.49,139.997,372.004,135.511,372.004,129.997z M59.998,129.997c0-5.514,4.486-10,10-10h11.719
			c4.044,0,7.691-2.437,9.239-6.173c1.548-3.737,0.692-8.038-2.168-10.899L22.929,37.067c-1.888-1.888-2.928-4.399-2.928-7.069
			c0-2.67,1.04-5.181,2.928-7.068C24.817,21.04,27.328,20,29.999,20c2.67,0,5.181,1.04,7.069,2.929l65.859,65.858
			c2.86,2.859,7.16,3.714,10.898,2.168c3.737-1.548,6.173-5.194,6.173-9.239V69.997c0-5.514,4.486-10,10-10c5.514,0,10,4.486,10,10
			v60c0,5.514-4.486,10-10,10h-60C64.484,139.997,59.998,135.511,59.998,129.997z M139.999,442.004c0,5.514-4.486,10-10,10
			c-5.514,0-10-4.486-10-10v-11.719c0-4.045-2.437-7.691-6.173-9.239c-3.737-1.546-8.038-0.692-10.898,2.168l-65.859,65.859
			c-1.888,1.889-4.399,2.929-7.069,2.929c-2.67,0-5.181-1.04-7.069-2.929c-1.889-1.888-2.928-4.398-2.928-7.069
			s1.04-5.182,2.928-7.069l65.859-65.859c2.86-2.86,3.715-7.161,2.168-10.898c-1.548-3.736-5.194-6.173-9.239-6.173H69.998
			c-5.514,0-10-4.486-10-10c0-5.514,4.486-10,10-10h60c5.514,0,10,4.486,10,10V442.004z M489.073,489.073
			c-1.888,1.889-4.398,2.929-7.069,2.929c-2.67,0-5.181-1.04-7.069-2.929l-65.859-65.859c-1.913-1.913-4.471-2.929-7.074-2.929
			c-1.288,0-2.587,0.249-3.824,0.761c-3.737,1.548-6.173,5.194-6.173,9.239v11.719c0,5.514-4.486,10-10,10c-5.514,0-10-4.486-10-10
			v-60c0-5.514,4.486-10,10-10h60c5.514,0,10,4.486,10,10c0,5.514-4.486,10-10,10h-11.718c-4.044,0-7.691,2.436-9.239,6.173
			c-1.548,3.737-0.692,8.038,2.168,10.898l65.858,65.859c1.889,1.888,2.928,4.398,2.928,7.069S490.961,487.186,489.073,489.073z"/>
		<path d="M195.002,100c5.523,0,10-4.478,10-10c0-5.522-4.477-10-10-10h-0.008c-5.523,0-9.996,4.478-9.996,10
			C184.998,95.522,189.479,100,195.002,100z"/>
		<path d="M292.012,381.999c0-5.523-4.477-10-10-10h-0.007c-5.523,0-9.997,4.477-9.997,10c0,5.522,4.481,10,10.004,10
			C287.535,391.999,292.012,387.522,292.012,381.999z"/>
	</g>
</g>
<g>
</g>
<g>
</g>
<g>
</g>
<g>
</g>
<g>
</g>
<g>
</g>
<g>
</g>
<g>
</g>
<g>
</g>
<g>
</g>
<g>
</g>
<g>
</g>
<g>
</g>
<g>
</g>
<g>
</g>
</svg>
