<?xml version="1.0" encoding="iso-8859-1"?>
<!-- Generator: Adobe Illustrator 21.0.0, SVG Export Plug-In . SVG Version: 6.00 Build 0)  -->
<svg version="1.1" id="Capa_1" xmlns="http://www.w3.org/2000/svg" xmlns:xlink="http://www.w3.org/1999/xlink" x="0px" y="0px"
	 viewBox="0 0 512.001 512.001" style="enable-background:new 0 0 512.001 512.001;" xml:space="preserve">
<g>
	<g>
		<path style="fill-rule:evenodd;clip-rule:evenodd;fill:#FBF7F6;" d="M130,116H10l0,239.997c0,10.995,9,20,20,20h351.998
			c11,0,20-9,20-20l0-279.997H170C170,98,151.997,116,130,116z"/>
		<path style="fill-rule:evenodd;clip-rule:evenodd;fill:#FFC234;" d="M401.998,76.001V56c0-11-9-20-20-20H30c-11,0-20,9-20,20l0,60
			h120c22,0,40-18,40-40H401.998z"/>
		<path style="fill-rule:evenodd;clip-rule:evenodd;fill:#99EBFB;" d="M401.998,476c55.08,0,100.004-44.923,100.004-100.004
			s-44.924-100.003-100.004-100.003s-100.003,44.923-100.003,100.003S346.918,476,401.998,476z"/>
		<path style="fill-rule:evenodd;clip-rule:evenodd;fill:#8481E2;" d="M251.159,250.235c-7.809,7.809-7.809,20.472,0,28.281
			c7.809,7.809,20.472,7.809,28.281,0l39.533-39.533c7.809-7.809,7.809-20.472,0-28.281l-39.532-39.532
			c-7.809-7.809-20.472-7.809-28.281,0c-7.809,7.81-7.809,20.472,0,28.281l5.47,5.47l-101.261,0l5.471-5.471
			c7.809-7.809,7.809-20.472,0-28.281c-7.809-7.809-20.472-7.809-28.281,0l-39.533,39.533c-7.81,7.809-7.81,20.472,0,28.281
			l39.533,39.532c7.809,7.809,20.472,7.809,28.281,0c7.809-7.809,7.809-20.472,0-28.281l-5.47-5.469l101.26,0L251.159,250.235z"/>
		<path style="fill-rule:evenodd;clip-rule:evenodd;fill:#FF5D7F;" d="M414.608,335.105c7.81-7.809,20.472-7.809,28.281,0
			c7.81,7.809,7.81,20.472,0,28.281l-12.611,12.611l12.611,12.611c7.81,7.81,7.81,20.472,0,28.281c-7.809,7.81-20.472,7.81-28.281,0
			l-12.611-12.611l-12.61,12.611c-7.81,7.81-20.472,7.81-28.281,0c-7.809-7.809-7.809-20.472,0-28.281l12.611-12.611l-12.611-12.611
			c-7.809-7.81-7.809-20.472,0-28.281c7.81-7.809,20.472-7.809,28.281,0l12.61,12.61L414.608,335.105z"/>
	</g>
	<g>
		<path d="M130.003,86.001c5.523,0,10-4.478,10-10c0-5.522-4.477-10-10-10h-0.007c-5.523,0-9.997,4.478-9.997,10
			C119.999,81.523,124.48,86.001,130.003,86.001z"/>
		<path d="M90.002,86.001c5.523,0,10-4.478,10-10c0-5.522-4.477-10-10-10h-0.007c-5.523,0-9.997,4.478-9.997,10
			C79.998,81.523,84.479,86.001,90.002,86.001z"/>
		<path d="M49.994,66.001c-5.523,0-9.997,4.478-9.997,10c0,5.522,4.481,10,10.004,10c5.523,0,10-4.478,10-10c0-5.522-4.477-10-10-10
			H49.994z"/>
		<path d="M411.998,266.453V56.001c0-16.542-13.458-30-30-30H135.006c-5.523,0-10,4.478-10,10c0,5.523,4.477,10,10,10h246.992
			c5.514,0,10,4.486,10,10v10H170c-5.523,0-10,4.478-10,10c0,16.542-13.458,30-30,30H20v-50c0-5.514,4.486-10,10-10h15.006
			c5.523,0,10-4.477,10-10c0-5.522-4.477-10-10-10H30c-16.542,0-30,13.458-30,30v299.997c0,16.542,13.458,29.999,30,29.999h262.454
			c5.069,55.987,52.259,100.004,109.544,100.004c60.656,0,110.003-49.348,110.003-110.004
			C512.001,318.712,467.985,271.523,411.998,266.453z M401.998,466.001c-49.628,0-90.003-40.376-90.003-90.004
			c0-9.638,1.518-19.129,4.513-28.21c1.73-5.244-1.12-10.898-6.364-12.629c-5.244-1.73-10.899,1.12-12.629,6.365
			c-2.62,7.943-4.299,16.142-5.052,24.474H30c-5.514,0-10-4.485-10-9.999V126.001h110c24.145,0,44.349-17.206,48.996-40h213.002
			v180.461c-8.334,0.753-16.536,2.433-24.482,5.054c-5.245,1.73-8.094,7.385-6.364,12.63c1.73,5.245,7.383,8.094,12.629,6.364
			c9.082-2.996,18.576-4.516,28.217-4.516c49.628,0,90.003,40.375,90.003,90.003S451.626,466.001,401.998,466.001z"/>
		<path d="M90.01,46.001c5.523,0,10-4.477,10-10c0-5.522-4.477-10-10-10h-0.008c-5.523,0-9.996,4.478-9.996,10
			C80.006,41.523,84.487,46.001,90.01,46.001z"/>
		<path d="M323.914,298.527l-0.005,0.006c-3.732,4.071-3.454,10.393,0.617,14.125c1.919,1.76,4.339,2.628,6.753,2.628
			c2.707,0,5.406-1.093,7.379-3.245c3.732-4.071,3.456-10.396-0.614-14.128C333.97,294.18,327.645,294.457,323.914,298.527z"/>
		<path d="M449.961,328.034c-5.666-5.666-13.199-8.786-21.212-8.786c-8.013,0-15.546,3.12-21.212,8.786h0.001l-5.54,5.539
			l-5.539-5.539c-11.696-11.695-30.728-11.695-42.424,0c-11.696,11.696-11.696,30.728,0,42.424l5.539,5.539l-5.539,5.54
			c-5.666,5.665-8.787,13.198-8.787,21.212c0,8.013,3.121,15.546,8.786,21.212c11.696,11.695,30.727,11.695,42.424,0l5.539-5.54
			l5.539,5.54c5.666,5.666,13.199,8.786,21.212,8.786c8.013,0,15.546-3.12,21.212-8.786c11.696-11.696,11.696-30.728,0-42.424
			l-5.54-5.54l5.54-5.539C461.657,358.762,461.657,339.73,449.961,328.034z M435.818,409.818c-1.888,1.889-4.398,2.929-7.069,2.929
			c-2.67,0-5.181-1.04-7.069-2.929l-12.611-12.611c-1.875-1.875-4.419-2.929-7.071-2.929c-2.652,0-5.196,1.054-7.071,2.929
			l-12.61,12.611c-1.888,1.889-4.399,2.929-7.069,2.929s-5.181-1.04-7.069-2.929c-1.889-1.888-2.928-4.398-2.928-7.069
			s1.04-5.182,2.928-7.069l12.61-12.611c3.905-3.905,3.905-10.237,0-14.143l-12.61-12.61c-3.898-3.898-3.898-10.241,0-14.139
			c3.897-3.898,10.241-3.898,14.139,0l12.61,12.61c3.906,3.906,10.238,3.904,14.142,0l12.611-12.61h0
			c1.888-1.889,4.399-2.929,7.069-2.929c2.671,0,5.181,1.04,7.069,2.929c3.898,3.897,3.898,10.24,0,14.139l-12.611,12.61
			c-1.876,1.875-2.929,4.419-2.929,7.071c0,2.652,1.053,5.195,2.929,7.071l12.611,12.611c1.889,1.888,2.928,4.398,2.928,7.069
			S437.707,407.93,435.818,409.818z"/>
		<path d="M334.83,224.843c0-8.013-3.12-15.546-8.786-21.212l-39.533-39.532c-11.695-11.695-30.727-11.695-42.423,0
			c-8.322,8.322-10.723,20.357-7.202,30.822l-61.774,0.001c3.521-10.465,1.12-22.501-7.202-30.823
			c-5.666-5.666-13.199-8.786-21.212-8.786c-8.013,0-15.546,3.121-21.212,8.786l-39.534,39.532
			c-5.665,5.666-8.786,13.199-8.786,21.212c0,8.014,3.121,15.547,8.786,21.212l39.533,39.532c5.666,5.666,13.199,8.786,21.212,8.786
			c8.013,0,15.546-3.12,21.211-8.786c5.666-5.665,8.786-13.198,8.786-21.212c0-3.318-0.535-6.555-1.564-9.609l61.754-0.001
			c-3.52,10.465-1.12,22.501,7.202,30.823c5.666,5.666,13.199,8.786,21.212,8.786c8.013,0,15.546-3.12,21.212-8.786l39.533-39.533
			C331.71,240.389,334.83,232.856,334.83,224.843z M311.902,231.912l-39.533,39.533c-1.888,1.889-4.398,2.929-7.069,2.929
			c-2.67,0-5.181-1.04-7.069-2.929c-3.898-3.897-3.898-10.241,0-14.139l5.471-5.471c2.86-2.86,3.715-7.161,2.168-10.898
			c-1.548-3.736-5.194-6.173-9.239-6.173l-101.26,0.001c-4.045,0-7.691,2.436-9.239,6.174c-1.547,3.737-0.691,8.038,2.169,10.898
			l5.469,5.468c1.888,1.888,2.928,4.398,2.928,7.069c0,2.671-1.04,5.182-2.928,7.069c-1.888,1.889-4.399,2.929-7.069,2.929
			c-2.671,0-5.181-1.04-7.07-2.929l-39.533-39.532c-1.888-1.888-2.928-4.398-2.928-7.069c0-2.67,1.039-5.182,2.928-7.069
			l39.534-39.532c1.888-1.889,4.398-2.929,7.069-2.929c2.67,0,5.181,1.04,7.069,2.929c3.898,3.897,3.898,10.241,0,14.139
			l-5.471,5.471c-2.86,2.86-3.715,7.161-2.167,10.898c1.548,3.736,5.194,6.173,9.239,6.173l101.261-0.001
			c4.045,0,7.691-2.436,9.239-6.173c1.548-3.737,0.692-8.038-2.168-10.898l-5.47-5.47c-3.898-3.898-3.898-10.24,0-14.139
			c3.898-3.898,10.24-3.898,14.139,0l39.532,39.532c1.888,1.888,2.928,4.398,2.928,7.069S313.79,230.024,311.902,231.912z"/>
	</g>
</g>
<g>
</g>
<g>
</g>
<g>
</g>
<g>
</g>
<g>
</g>
<g>
</g>
<g>
</g>
<g>
</g>
<g>
</g>
<g>
</g>
<g>
</g>
<g>
</g>
<g>
</g>
<g>
</g>
<g>
</g>
</svg>
