<?xml version="1.0" encoding="iso-8859-1"?>
<!-- Generator: Adobe Illustrator 21.0.0, SVG Export Plug-In . SVG Version: 6.00 Build 0)  -->
<svg version="1.1" id="Capa_1" xmlns="http://www.w3.org/2000/svg" xmlns:xlink="http://www.w3.org/1999/xlink" x="0px" y="0px"
	 viewBox="0 0 512.002 512.002" style="enable-background:new 0 0 512.002 512.002;" xml:space="preserve">
<g>
	<g>
		<path style="fill-rule:evenodd;clip-rule:evenodd;fill:#CDD3E0;" d="M10,50.001h440V28.938C450,18.522,441.478,10,431.062,10
			H28.938C18.522,10,10,18.522,10,28.938V50.001z"/>
		<path style="fill-rule:evenodd;clip-rule:evenodd;fill:#99EBFB;" d="M450,50.001H10v241.948h220v-80.001v-29.945v-20.002
			c0-11,9-20,20-20h200V50.001z"/>
		<path style="fill-rule:evenodd;clip-rule:evenodd;fill:#CDD3E0;" d="M230,291.949H10v21.063c0,10.416,8.522,18.938,18.938,18.938
			h160.289H230V291.949z"/>
		<polygon style="fill-rule:evenodd;clip-rule:evenodd;fill:#8690AF;" points="189.227,331.95 180.284,410 230,410 230,331.95 		"/>
		<path style="fill-rule:evenodd;clip-rule:evenodd;fill:#CDD3E0;" d="M230,182.003h272.002v-20.002c0-11-9-20-20-20H450H250
			c-11,0-20,9-20,20V182.003z"/>
		<polygon style="fill-rule:evenodd;clip-rule:evenodd;fill:#CFCDF5;" points="502.002,182.003 230,182.003 230,211.948 
			230,291.949 230,331.95 230,410 230,442 502.002,442 		"/>
		<path style="fill-rule:evenodd;clip-rule:evenodd;fill:#CDD3E0;" d="M502.002,442H230v40.002c0,11,9,20,20,20h232.002
			c11,0,20-9,20-20V442z"/>
	</g>
	<g>
		<path d="M482.003,132.002H460V28.938C460,12.981,447.019,0,431.062,0H28.938C12.982,0,0.001,12.981,0.001,28.938v284.075
			c0,15.956,12.981,28.938,28.938,28.938h149.078L171.365,400h-11.081c-5.523,0-10,4.478-10,10c0,5.522,4.477,10,10,10h19.997
			c0.006,0,0.011,0.001,0.017,0.001c0.007,0,0.014-0.001,0.021-0.001h39.683v62.002c0,16.542,13.457,30,29.999,30h232.003
			c16.542,0,29.999-13.458,29.999-30v-320C512.002,145.46,498.544,132.002,482.003,132.002z M240.001,236.091l45.858,45.859h-15.857
			c-5.523,0-10,4.477-10,10c0,5.522,4.477,10,10,10h40c5.522,0,10-4.478,10-10V251.95c0-5.522-4.478-10-10-10s-10,4.478-10,10
			v15.857l-60.001-60.001v-15.803h252.001V432H240.001V236.091z M492.001,162.002v10.001H240.001v-10.001c0-5.514,4.486-10,9.999-10
			h232.003C487.516,152.002,492.001,156.488,492.001,162.002z M28.938,20h402.124c4.929,0,8.938,4.01,8.938,8.938v11.063h-320
			c-5.523,0-10,4.478-10,10c0,5.522,4.477,10,10,10h320v72.001H250c-16.542,0-29.999,13.458-29.999,30v25.804l-55.861-55.861h15.857
			c5.523,0,10-4.478,10-10c0-5.522-4.477-10-10-10h-39.999c-5.523,0-10,4.478-10,10v39.999c0,5.522,4.477,10,10,10
			c5.523,0,10-4.478,10-10v-15.857l70.003,70.004v65.859H20V60.001h10c5.523,0,10-4.478,10-10c0-5.522-4.477-10-10-10H20V28.938
			C20,24.01,24.01,20,28.938,20z M20,313.013v-11.063h200v20.001h-30.642c-0.012,0-0.024,0-0.037,0H28.938
			C24.01,321.95,20,317.94,20,313.013z M191.496,400l6.652-58.05h21.853V400H191.496z M482.003,492.002H250
			c-5.514,0-9.999-4.486-9.999-10V452h252.001v30.002C492.001,487.516,487.516,492.002,482.003,492.002z"/>
		<path d="M366.004,462h-0.007c-5.522,0-9.997,4.478-9.997,10c0,5.522,4.482,10,10.004,10c5.522,0,10-4.478,10-10
			C376.004,466.478,371.527,462,366.004,462z"/>
		<path d="M462,292.002c-5.522,0-10,4.481-10,10.004c0,5.523,4.478,10,10,10c5.523,0,10-4.477,10-10v-0.008
			C472,296.476,467.523,292.002,462,292.002z"/>
		<path d="M462,337.002c-5.522,0-10,4.477-10,10v54.996c0,5.522,4.478,10,10,10c5.523,0,10-4.478,10-10v-54.996
			C472,341.479,467.523,337.002,462,337.002z"/>
		<path d="M75.004,60.001c5.523,0,10-4.478,10-10c0-5.522-4.477-10-10-10h-0.007c-5.523,0-9.996,4.478-9.996,10
			C65.001,55.523,69.481,60.001,75.004,60.001z"/>
	</g>
</g>
<g>
</g>
<g>
</g>
<g>
</g>
<g>
</g>
<g>
</g>
<g>
</g>
<g>
</g>
<g>
</g>
<g>
</g>
<g>
</g>
<g>
</g>
<g>
</g>
<g>
</g>
<g>
</g>
<g>
</g>
</svg>
