<?xml version="1.0" encoding="iso-8859-1"?>
<!-- Generator: Adobe Illustrator 21.0.0, SVG Export Plug-In . SVG Version: 6.00 Build 0)  -->
<svg version="1.1" id="Capa_1" xmlns="http://www.w3.org/2000/svg" xmlns:xlink="http://www.w3.org/1999/xlink" x="0px" y="0px"
	 viewBox="0 0 512.001 512.001" style="enable-background:new 0 0 512.001 512.001;" xml:space="preserve">
<g>
	<g>
		<path style="fill-rule:evenodd;clip-rule:evenodd;fill:#99EBFB;" d="M10,265.268l150.019-150.019l138.206,138.206h26.627
			l60.937-60.937l60.937,60.937H450V36.001H10V265.268L10,265.268z M275.538,129.518c0-19.882,16.118-36,36-36s36,16.118,36,36
			s-16.118,36-36,36S275.538,149.4,275.538,129.518z"/>
		<circle style="fill-rule:evenodd;clip-rule:evenodd;fill:#FFC234;" cx="311.538" cy="129.518" r="36"/>
		<polygon style="fill-rule:evenodd;clip-rule:evenodd;fill:#45E08C;" points="298.224,253.454 160.018,115.249 10,265.268 
			10,396.001 230,396.001 230,395.184 230,253.454 		"/>
		<polygon style="fill-rule:evenodd;clip-rule:evenodd;fill:#45E08C;" points="385.788,192.518 324.851,253.454 446.724,253.454 		
			"/>
		<path style="fill-rule:evenodd;clip-rule:evenodd;fill:#99EBFB;" d="M446.724,253.454H324.851h-26.627H230v141.73l92.739-92.74
			l93.667,93.667l45.901-45.9l39.695,39.695V253.454H450H446.724L446.724,253.454z M416.406,291.265c11.046,0,20,8.954,20,20
			c0,11.046-8.954,20-20,20c-11.045,0-20-8.954-20-20C396.406,300.219,405.361,291.265,416.406,291.265z"/>
		<circle style="fill-rule:evenodd;clip-rule:evenodd;fill:#FFC234;" cx="416.406" cy="311.265" r="20"/>
		<polygon style="fill-rule:evenodd;clip-rule:evenodd;fill:#45E08C;" points="416.406,396.111 322.739,302.444 230,395.184 
			230,396.001 230,476.001 502.001,476.001 502.001,389.905 462.306,350.211 		"/>
	</g>
	<g>
		<path d="M311.538,175.517c25.364,0,46-20.636,46-46c0-25.364-20.636-46-46-46c-25.364,0-46,20.636-46,46
			C265.538,154.881,286.174,175.517,311.538,175.517z M311.538,103.517c14.336,0,26,11.664,26,26c0,14.336-11.664,26-26,26
			c-14.336,0-26-11.664-26-26C285.538,115.181,297.202,103.517,311.538,103.517z"/>
		<path d="M512.001,253.454c0-5.523-4.477-10-10-10H460V36c0-5.522-4.478-10-10-10H10C4.478,26,0,30.478,0,36v360
			c0,5.523,4.478,10,10,10h210v70c0,5.523,4.478,10,10,10h162c5.522,0,10-4.477,10-10c0-5.522-4.478-10-10-10H240v-66.675
			l82.739-82.739l86.596,86.596c1.953,1.952,4.512,2.929,7.071,2.929c2.559,0,5.118-0.977,7.071-2.929l38.829-38.829l29.694,29.694
			V466H482c-5.522,0-10,4.478-10,10c0,5.523,4.478,10,10,10h20.001c5.522,0,10-4.477,10-10V253.454z M20,46h420v186.586
			l-47.141-47.141c-3.906-3.904-10.236-3.904-14.143,0l-58.008,58.008h-18.342L167.09,108.177c-3.906-3.904-10.236-3.904-14.143,0
			L20,241.125V86.003h44.996c5.522,0,10-4.478,10-10s-4.478-10-10-10H20V46z M422.582,243.454h-73.588l36.794-36.794
			L422.582,243.454z M20,269.41l140.019-140.018l114.063,114.063H230c-5.522,0-10,4.477-10,10V386H20V269.41z M469.378,343.139
			c-3.906-3.904-10.236-3.904-14.143,0l-38.829,38.829l-86.596-86.596c-3.906-3.904-10.236-3.904-14.143,0L240,371.041V263.454
			h252.001v102.309L469.378,343.139z"/>
		<path d="M416.406,281.264c-16.542,0-30,13.458-30,30c0,16.542,13.458,30,30,30c16.542,0,30-13.458,30-30
			C446.406,294.722,432.948,281.264,416.406,281.264z M416.406,321.264c-5.514,0-10-4.486-10-10s4.486-10,10-10
			c5.514,0,10,4.486,10,10S421.92,321.264,416.406,321.264z"/>
		<path d="M109.992,86.003H110c5.522,0,9.996-4.478,9.996-10s-4.481-10-10.004-10c-5.522,0-10,4.478-10,10
			S104.47,86.003,109.992,86.003z"/>
		<path d="M437.004,466h-0.008c-5.522,0-9.996,4.478-9.996,10c0,5.523,4.482,10,10.004,10c5.522,0,10-4.477,10-10
			C447.004,470.478,442.526,466,437.004,466z"/>
	</g>
</g>
<g>
</g>
<g>
</g>
<g>
</g>
<g>
</g>
<g>
</g>
<g>
</g>
<g>
</g>
<g>
</g>
<g>
</g>
<g>
</g>
<g>
</g>
<g>
</g>
<g>
</g>
<g>
</g>
<g>
</g>
</svg>
