<?xml version="1.0" encoding="iso-8859-1"?>
<!-- Generator: Adobe Illustrator 21.0.0, SVG Export Plug-In . SVG Version: 6.00 Build 0)  -->
<svg version="1.1" id="Capa_1" xmlns="http://www.w3.org/2000/svg" xmlns:xlink="http://www.w3.org/1999/xlink" x="0px" y="0px"
	 viewBox="0 0 512.002 512.002" style="enable-background:new 0 0 512.002 512.002;" xml:space="preserve">
<g>
	<g>
		<path style="fill-rule:evenodd;clip-rule:evenodd;fill:#FF5D7F;" d="M150.142,164.132l105.86-105.86l105.86,105.86
			c7.809,7.81,20.472,7.81,28.281,0c7.81-7.809,7.81-20.472,0-28.281l-120-120c-7.809-7.809-20.472-7.809-28.281,0l-120,120
			c-7.809,7.81-7.809,20.472,0,28.281C129.67,171.941,142.332,171.941,150.142,164.132z"/>
		<polygon style="fill-rule:evenodd;clip-rule:evenodd;fill:#CFCDF5;" points="256.001,58.272 150.142,164.132 150.142,269.991 
			226.001,269.991 226.001,169.991 286.001,169.991 286.001,269.991 361.861,269.991 361.861,164.132 		"/>
		<polygon style="fill-rule:evenodd;clip-rule:evenodd;fill:#FFC234;" points="286.001,169.991 226.001,169.991 226.001,269.991 
			256.001,269.991 286.001,269.991 		"/>
		<path style="fill-rule:evenodd;clip-rule:evenodd;fill:#FFC234;" d="M110.001,401.995h-40H30c-11,0-20,8.999-20,20v20.001h120
			v-20.001C130,410.994,121.001,401.995,110.001,401.995z"/>
		<path style="fill-rule:evenodd;clip-rule:evenodd;fill:#FBF7F6;" d="M130,441.996H10v39.999c0,11,9,20,20,20h80c11,0,20-9,20-20
			V441.996z"/>
		<path style="fill-rule:evenodd;clip-rule:evenodd;fill:#FFC234;" d="M216.001,401.995c-11,0-20,8.999-20,20l0,20.001h120l0-20.001
			c0-11-9-20-20-20h-40H216.001z"/>
		<path style="fill-rule:evenodd;clip-rule:evenodd;fill:#FBF7F6;" d="M316.001,441.996h-120v39.999c0,11,9,20,20,20h80
			c11,0,20-9,20-20L316.001,441.996z"/>
		<path style="fill-rule:evenodd;clip-rule:evenodd;fill:#FFC234;" d="M382.002,421.994v20.001h120v-20.001c0-11-9-20-20-20h-40h-40
			C391.002,401.995,382.002,410.994,382.002,421.994z"/>
		<path style="fill-rule:evenodd;clip-rule:evenodd;fill:#FBF7F6;" d="M502.002,441.996h-120v39.999c0,11,9,20,20,20h80
			c11,0,20-9,20-20V441.996z"/>
	</g>
	<g>
		<path d="M361.86,279.991c5.522,0,10-4.478,10-10v-90.29c1.361,0.187,2.743,0.288,4.141,0.288c8.014,0,15.547-3.121,21.212-8.786
			c11.696-11.696,11.696-30.728,0-42.424l-120-120c-11.697-11.695-30.726-11.695-42.424,0l-28.178,28.178
			c-3.905,3.905-3.905,10.237,0,14.143c3.906,3.904,10.236,3.904,14.143,0l28.178-28.178c3.898-3.899,10.24-3.899,14.139,0l120,120
			c3.898,3.898,3.898,10.24,0,14.14c-1.888,1.888-4.398,2.928-7.069,2.928s-5.182-1.04-7.069-2.929L263.072,51.2
			c-1.876-1.875-4.419-2.929-7.071-2.929c-2.652,0-5.195,1.054-7.071,2.929L143.07,157.061c-3.898,3.898-10.24,3.898-14.139,0
			c-3.898-3.898-3.898-10.24,0-14.139l28.183-28.184c3.905-3.905,3.905-10.237,0-14.143c-3.906-3.904-10.236-3.904-14.143,0
			l-28.183,28.184c-11.696,11.696-11.696,30.727,0,42.424c6.902,6.901,16.357,9.727,25.353,8.483v90.305c0,5.522,4.478,10,10,10
			h95.859v46.002H70c-5.522,0-10,4.478-10,10v56.001H30c-16.542,0-30,13.458-30,30v60c0,16.542,13.458,30,30,30h80
			c16.542,0,30-13.458,30-30v-60c0-16.542-13.458-30-30-30H80v-46.001h166.001v46.001h-30c-16.542,0-30,13.458-30,30v60
			c0,16.542,13.458,30,30,30h80c16.542,0,30-13.458,30-30v-60c0-16.542-13.458-30-30-30h-30v-46.001h66c5.522,0,10-4.478,10-10
			c0-5.522-4.478-10-10-10h-66v-46.002H361.86z M110,491.994H30c-5.514,0-10-4.486-10-10v-29.998h100v29.998
			C120,487.508,115.514,491.994,110,491.994z M120,421.994v10.002H20v-10.002c0-5.514,4.486-10,10-10h80
			C115.514,411.994,120,416.481,120,421.994z M296.001,491.994h-80c-5.514,0-10-4.486-10-10v-29.998h100v29.998
			C306.001,487.508,301.515,491.994,296.001,491.994z M306.001,421.994v10.002h-100v-10.002c0-5.514,4.486-10,10-10h80
			C301.515,411.994,306.001,416.481,306.001,421.994z M236.001,259.991v-80h40v80H236.001z M160.142,168.274l95.859-95.86
			l95.859,95.86v91.717h-55.859v-90c0-5.523-4.478-10-10-10h-60c-5.522,0-10,4.477-10,10v90h-55.859V168.274z"/>
		<path d="M482.002,391.994h-30v-56.001c0-5.522-4.478-10-10-10h-20.001c-5.522,0-10,4.478-10,10c0,5.522,4.478,10,10,10h10.001
			v46.001h-30c-16.542,0-30,13.458-30,30v60c0,16.542,13.458,30,30,30h80c16.542,0,30-13.458,30-30v-60
			C512.002,405.452,498.544,391.994,482.002,391.994z M402.002,411.994h80c5.514,0,10,4.486,10,10v10.002h-100v-10.002
			C392.002,416.481,396.488,411.994,402.002,411.994z M482.002,491.994h-80c-5.514,0-10-4.486-10-10v-29.998h100v29.998
			C492.002,487.508,487.516,491.994,482.002,491.994z"/>
		<path d="M387.005,335.993c0-5.522-4.478-10-10-10h-0.008c-5.522,0-9.996,4.478-9.996,10c0,5.522,4.482,10,10.004,10
			C382.527,345.993,387.005,341.516,387.005,335.993z"/>
		<path d="M175.459,83.533c1.869,1.558,4.139,2.317,6.396,2.317c2.864,0,5.709-1.226,7.688-3.599l0.005-0.006
			c3.535-4.242,2.959-10.545-1.283-14.081c-4.244-3.534-10.551-2.958-14.087,1.284C170.643,73.691,171.216,79.997,175.459,83.533z"
			/>
	</g>
</g>
<g>
</g>
<g>
</g>
<g>
</g>
<g>
</g>
<g>
</g>
<g>
</g>
<g>
</g>
<g>
</g>
<g>
</g>
<g>
</g>
<g>
</g>
<g>
</g>
<g>
</g>
<g>
</g>
<g>
</g>
</svg>
