<?xml version="1.0" encoding="iso-8859-1"?>
<!-- Generator: Adobe Illustrator 21.0.0, SVG Export Plug-In . SVG Version: 6.00 Build 0)  -->
<svg version="1.1" id="Capa_1" xmlns="http://www.w3.org/2000/svg" xmlns:xlink="http://www.w3.org/1999/xlink" x="0px" y="0px"
	 viewBox="0 0 512.001 512.001" style="enable-background:new 0 0 512.001 512.001;" xml:space="preserve">
<g>
	<g>
		<path style="fill-rule:evenodd;clip-rule:evenodd;fill:#CDD3E0;" d="M10,76.002h440V54.939c0-10.416-8.522-18.938-18.938-18.938
			H28.938C18.522,36.001,10,44.523,10,54.939V76.002z"/>
		<path style="fill-rule:evenodd;clip-rule:evenodd;fill:#99EBFB;" d="M450,76.002H10v241.947h112.002v-82.029V215.92
			c0-11,9-20,20-20h53.856h68.285H450V76.002z"/>
		<path style="fill-rule:evenodd;clip-rule:evenodd;fill:#CDD3E0;" d="M122.002,317.949H10v21.063
			c0,10.416,8.522,18.938,18.938,18.938h93.064V317.949z"/>
		<path style="fill-rule:evenodd;clip-rule:evenodd;fill:#CDD3E0;" d="M122.002,235.921h73.856l0-40h-53.856c-11,0-20,9-20,20
			V235.921z"/>
		<rect x="195.857" y="195.921" style="fill-rule:evenodd;clip-rule:evenodd;fill:#CDD3E0;" width="68.285" height="40"/>
		<path style="fill-rule:evenodd;clip-rule:evenodd;fill:#CDD3E0;" d="M264.142,195.921v40h217.859V215.92c0-11-9-20-20-20H450
			H264.142z"/>
		<polygon style="fill-rule:evenodd;clip-rule:evenodd;fill:#CFCDF5;" points="482.001,235.921 264.142,235.921 195.857,235.921 
			122.002,235.921 122.002,317.949 122.002,357.951 122.002,436 482.001,436 		"/>
		<path style="fill-rule:evenodd;clip-rule:evenodd;fill:#CDD3E0;" d="M482.001,436h-360h-20v20c0,11,9,20,20,20h360
			c11,0,20-9,20-20v-20H482.001z"/>
	</g>
	<g>
		<path d="M502.001,426h-10V215.92c0-16.542-13.458-29.999-30-29.999H460V54.938c0-15.956-12.981-28.938-28.938-28.938H28.938
			C12.981,26.001,0,38.982,0,54.938v284.074c0,15.957,12.981,28.939,28.938,28.939h83.064V426h-10c-5.523,0-10,4.478-10,10v20.001
			c0,16.542,13.458,29.999,30,29.999h360c16.542,0,29.999-13.457,29.999-29.999V436C512.001,430.478,507.524,426,502.001,426z
			 M472.001,215.92v10.001H274.142v-20h187.859C467.516,205.921,472.001,210.406,472.001,215.92z M205.857,205.921h48.285v20
			h-48.285V205.921z M185.857,225.921h-53.855V215.92c0-5.514,4.486-9.999,10-9.999h43.855V225.921z M28.938,46.001h402.124
			c4.928,0,8.938,4.01,8.938,8.938v11.063H120.001c-5.523,0-10,4.478-10,10s4.477,10,10,10H440v99.919H274.142v-19.916
			c0-5.522-4.477-10-10-10c-5.523,0-10,4.478-10,10v19.916h-48.285v-35.776l11.213,11.214c3.905,3.904,10.237,3.904,14.142,0
			c3.905-3.905,3.905-10.237,0-14.143l-28.284-28.284c-1.875-1.875-4.418-2.929-7.071-2.929c-2.652,0-5.196,1.054-7.071,2.929
			l-28.284,28.284c-3.905,3.905-3.905,10.237,0.001,14.143c1.953,1.952,4.512,2.929,7.071,2.929c2.559,0,5.119-0.977,7.071-2.929
			l11.212-11.213v35.776h-43.855c-16.542,0-30,13.457-30,29.999v92.029H20V86.002h10c5.523,0,10-4.478,10-10s-4.477-10-10-10H20
			V54.938C20,50.011,24.01,46.001,28.938,46.001z M28.938,347.951c-4.928,0-8.938-4.01-8.938-8.939v-11.063h92.002v20.002H28.938z
			 M132.001,245.921h53.855v21.504c0,5.522,4.477,10,10,10c5.523,0,10-4.478,10-10v-21.504h48.285v37.363l-11.213-11.213
			c-3.905-3.904-10.237-3.904-14.142,0c-3.905,3.905-3.905,10.237,0.001,14.143l28.284,28.283c1.953,1.952,4.512,2.929,7.071,2.929
			c2.559,0,5.119-0.977,7.071-2.929l28.284-28.284c3.905-3.905,3.905-10.237,0-14.142c-3.905-3.904-10.237-3.904-14.142,0
			l-11.212,11.213v-37.363h197.859V426h-340V245.921z M492.001,456.001c0,5.514-4.486,9.999-10,9.999h-360
			c-5.514,0-10-4.485-10-9.999V446h8.791c0.397,0.048,0.799,0.08,1.209,0.08c0.41,0,0.812-0.032,1.209-0.08h357.582
			c0.397,0.048,0.799,0.08,1.209,0.08c0.41,0,0.812-0.032,1.209-0.08h8.791V456.001z"/>
		<path d="M442,386.079h-54.996c-5.523,0-10,4.478-10,10c0,5.522,4.477,10,10,10H442c5.523,0,10-4.478,10-10
			C452,390.557,447.523,386.079,442,386.079z"/>
		<path d="M342.007,386.079H342c-5.523,0-9.997,4.478-9.997,10c0,5.522,4.481,10,10.004,10c5.523,0,10-4.478,10-10
			C352.007,390.557,347.53,386.079,342.007,386.079z"/>
		<path d="M75.004,86.002c5.523,0,10-4.478,10-10s-4.477-10-10-10h-0.007c-5.523,0-9.996,4.478-9.996,10
			S69.481,86.002,75.004,86.002z"/>
	</g>
</g>
<g>
</g>
<g>
</g>
<g>
</g>
<g>
</g>
<g>
</g>
<g>
</g>
<g>
</g>
<g>
</g>
<g>
</g>
<g>
</g>
<g>
</g>
<g>
</g>
<g>
</g>
<g>
</g>
<g>
</g>
</svg>
