<?xml version="1.0" encoding="iso-8859-1"?>
<!-- Generator: Adobe Illustrator 21.0.0, SVG Export Plug-In . SVG Version: 6.00 Build 0)  -->
<svg version="1.1" id="Capa_1" xmlns="http://www.w3.org/2000/svg" xmlns:xlink="http://www.w3.org/1999/xlink" x="0px" y="0px"
	 viewBox="0 0 512.001 512.001" style="enable-background:new 0 0 512.001 512.001;" xml:space="preserve">
<g>
	<g>
		<path style="fill-rule:evenodd;clip-rule:evenodd;fill:#FBF7F6;" d="M482.002,276.003h-400c-11,0-20,9-20,20v139.996v20.002
			c0,11,9,20,20,20h400c11,0,20-9,20-20V296.003C502.002,285.003,493.001,276.003,482.002,276.003L482.002,276.003z
			 M102.002,316.003h360v40h-360V316.003z"/>
		<path style="fill-rule:evenodd;clip-rule:evenodd;fill:#CDD3E0;" d="M30,36.001h167.799c11,0,20,9,20,20v220.003H82.001
			c-11,0-20,9-20,20v139.996H30c-11,0-20-9-20-20V56C10,45.001,19,36.001,30,36.001z"/>
		<rect x="50" y="156.001" style="fill-rule:evenodd;clip-rule:evenodd;fill:#FFC234;" width="127.798" height="40"/>
		<rect x="102.002" y="316.003" style="fill-rule:evenodd;clip-rule:evenodd;fill:#FFC234;" width="360" height="40"/>
		<rect x="50" y="76.001" style="fill-rule:evenodd;clip-rule:evenodd;fill:#FFC234;" width="127.798" height="40"/>
	</g>
	<g>
		<path d="M482.002,266.004H227.798V56.001c0-16.542-13.458-30-29.999-30H140c-5.523,0-10,4.478-10,10c0,5.523,4.477,10,10,10
			h57.798c5.514,0,9.999,4.486,9.999,10v210.003H82.001c-16.542,0-30,13.457-30,29.999v129.996H30c-5.514,0-10-4.485-10-9.999
			V56.001c0-5.514,4.486-10,10-10h20c5.523,0,10-4.477,10-10c0-5.522-4.477-10-10-10H30c-16.542,0-30,13.458-30,30V416
			c0,16.542,13.458,29.999,30,29.999h22.001v10.002c0,16.542,13.458,30,30,30h400.001c16.542,0,29.999-13.458,29.999-30V296.003
			C512.001,279.461,498.544,266.004,482.002,266.004z M492.001,456.001c0,5.514-4.486,10-9.999,10H82.001c-5.514,0-10-4.486-10-10
			V296.003c0-5.514,4.486-9.999,10-9.999h400.001c5.514,0,9.999,4.485,9.999,9.999V456.001z"/>
		<path d="M102.001,366.004h360c5.523,0,10-4.478,10-10v-40c0-5.523-4.477-10-10-10h-360c-5.523,0-10,4.477-10,10v40
			C92.001,361.526,96.478,366.004,102.001,366.004z M112.001,326.004h340v20h-340V326.004z"/>
		<path d="M462.001,385.999h-360c-5.523,0-10,4.478-10,10c0,5.522,4.477,10,10,10h360c5.523,0,10-4.478,10-10
			C472.001,390.476,467.524,385.999,462.001,385.999z"/>
		<path d="M417.005,425.999H102.002c-5.523,0-10,4.478-10,10c0,5.522,4.477,10,10,10h315.003c5.523,0,10-4.478,10-10
			C427.005,430.476,422.528,425.999,417.005,425.999z"/>
		<path d="M187.798,76.001c0-5.522-4.477-10-10-10H50c-5.523,0-10,4.478-10,10v40c0,5.522,4.477,10,10,10h127.797
			c5.523,0,10-4.478,10-10V76.001z M167.798,106.001H60v-20h107.797V106.001z"/>
		<path d="M187.798,156.001c0-5.522-4.477-10-10-10H50c-5.523,0-10,4.478-10,10v40c0,5.522,4.477,10,10,10h127.797
			c5.523,0,10-4.478,10-10V156.001z M167.798,186.001H60v-20h107.797V186.001z"/>
		<path d="M177.798,226.002H50c-5.523,0-10,4.478-10,10c0,5.523,4.477,10,10,10h127.797c5.523,0,10-4.477,10-10
			C187.798,230.479,183.321,226.002,177.798,226.002z"/>
		<path d="M259.856,119.946c-2.998,3.925-2.623,9.629,0.873,13.128l20,19.999c1.953,1.952,4.512,2.929,7.071,2.929
			c2.559,0,5.119-0.977,7.071-2.93c3.905-3.905,3.905-10.236,0-14.142l-2.928-2.928h55.856c5.514,0,10,4.485,10,9.999v55.858
			l-2.93-2.93c-3.905-3.904-10.237-3.904-14.142,0c-3.905,3.905-3.905,10.237,0,14.143l20,20c3.846,3.848,10.296,3.846,14.142,0
			l20-20c3.905-3.905,3.905-10.237,0-14.143c-3.905-3.904-10.237-3.904-14.142,0l-2.928,2.929v-55.857
			c0-16.542-13.458-29.999-30-29.999h-55.857l2.93-2.93c3.905-3.905,3.905-10.237,0-14.143c-3.905-3.904-10.237-3.904-14.142,0
			l-20.001,20.001C260.414,119.246,260.126,119.593,259.856,119.946z"/>
		<path d="M462.009,425.999h-0.007c-5.523,0-9.996,4.478-9.996,10c0,5.522,4.48,10,10.003,10c5.523,0,10-4.478,10-10
			C472.009,430.476,467.532,425.999,462.009,425.999z"/>
		<path d="M95.004,46.001c5.523,0,10-4.477,10-10c0-5.522-4.477-10-10-10h-0.007c-5.523,0-9.996,4.478-9.996,10
			C85,41.523,89.481,46.001,95.004,46.001z"/>
	</g>
</g>
<g>
</g>
<g>
</g>
<g>
</g>
<g>
</g>
<g>
</g>
<g>
</g>
<g>
</g>
<g>
</g>
<g>
</g>
<g>
</g>
<g>
</g>
<g>
</g>
<g>
</g>
<g>
</g>
<g>
</g>
</svg>
