<?xml version="1.0" encoding="iso-8859-1"?>
<!-- Generator: Adobe Illustrator 21.0.0, SVG Export Plug-In . SVG Version: 6.00 Build 0)  -->
<svg version="1.1" id="Capa_1" xmlns="http://www.w3.org/2000/svg" xmlns:xlink="http://www.w3.org/1999/xlink" x="0px" y="0px"
	 viewBox="0 0 512.002 512.002" style="enable-background:new 0 0 512.002 512.002;" xml:space="preserve">
<g>
	<g>
		<rect x="30" y="30" style="fill-rule:evenodd;clip-rule:evenodd;fill:#FBF7F6;" width="452.002" height="452.002"/>
		<rect x="10" y="10" style="fill-rule:evenodd;clip-rule:evenodd;fill:#8481E2;" width="40" height="40"/>
		<rect x="462.002" y="10" style="fill-rule:evenodd;clip-rule:evenodd;fill:#8481E2;" width="40" height="40"/>
		<rect x="462.002" y="462.003" style="fill-rule:evenodd;clip-rule:evenodd;fill:#8481E2;" width="40" height="40"/>
		<rect x="10" y="462.003" style="fill-rule:evenodd;clip-rule:evenodd;fill:#8481E2;" width="40" height="40"/>
		<polygon style="fill-rule:evenodd;clip-rule:evenodd;fill:#45E08C;" points="80.001,400.002 432.001,400.002 432.001,288.584 
			380.632,237.215 321.231,296.615 200.016,175.399 80.001,295.415 		"/>
		<path style="fill-rule:evenodd;clip-rule:evenodd;fill:#99EBFB;" d="M200.016,175.399l121.215,121.215l59.401-59.4l51.369,51.369
			V112.001h-352v183.413L200.016,175.399L200.016,175.399z M295.349,186.815c0-14.294,11.588-25.882,25.882-25.882
			c14.295,0,25.883,11.588,25.883,25.882c0,14.294-11.588,25.882-25.883,25.882C306.937,212.697,295.349,201.109,295.349,186.815z"
			/>
		<circle style="fill-rule:evenodd;clip-rule:evenodd;fill:#FFC234;" cx="321.232" cy="186.815" r="25.882"/>
	</g>
	<g>
		<path d="M50,0H10C4.478,0,0,4.477,0,10v40c0,5.522,4.477,10,10,10H50c5.523,0,10-4.478,10-10V10C60,4.477,55.523,0,50,0z M40,40
			H20V20H40V40z"/>
		<path d="M502.001,0h-39.999c-5.522,0-10,4.477-10,10v40c0,5.522,4.478,10,10,10h39.999c5.522,0,10-4.478,10-10V10
			C512.001,4.477,507.524,0,502.001,0z M492.001,40h-19.999V20h19.999V40z"/>
		<path d="M50,452.003H10c-5.523,0-10,4.478-10,10v39.999c0,5.523,4.477,10,10,10H50c5.523,0,10-4.477,10-10v-39.999
			C60,456.48,55.523,452.003,50,452.003z M40,492.002H20v-19.999H40V492.002z"/>
		<path d="M502.001,452.003h-39.999c-5.522,0-10,4.478-10,10v39.999c0,5.523,4.478,10,10,10h39.999c5.522,0,10-4.477,10-10v-39.999
			C512.001,456.48,507.524,452.003,502.001,452.003z M492.001,492.002h-19.999v-19.999h19.999V492.002z"/>
		<path d="M96.001,40h20c5.523,0,10-4.478,10-10c0-5.522-4.477-10-10-10h-20c-5.523,0-10,4.478-10,10
			C86.001,35.522,90.479,40,96.001,40z"/>
		<path d="M156.001,40h20c5.523,0,10-4.478,10-10c0-5.522-4.477-10-10-10h-20c-5.523,0-10,4.478-10,10
			C146.001,35.522,150.479,40,156.001,40z"/>
		<path d="M216.001,40h20.001c5.523,0,10-4.478,10-10c0-5.522-4.477-10-10-10h-20.001c-5.523,0-10,4.478-10,10
			C206.001,35.522,210.478,40,216.001,40z"/>
		<path d="M276,40h20.001c5.522,0,10-4.478,10-10c0-5.522-4.478-10-10-10H276c-5.522,0-10,4.478-10,10C266,35.522,270.478,40,276,40
			z"/>
		<path d="M336,40h20c5.522,0,10-4.478,10-10c0-5.522-4.478-10-10-10h-20c-5.522,0-10,4.478-10,10C326,35.522,330.478,40,336,40z"/>
		<path d="M396,40h20c5.522,0,10-4.478,10-10c0-5.522-4.478-10-10-10h-20c-5.522,0-10,4.478-10,10C386,35.522,390.478,40,396,40z"/>
		<path d="M20,416.001c0,5.523,4.477,10,10,10c5.523,0,10-4.477,10-10v-20c0-5.522-4.477-10-10-10c-5.523,0-10,4.478-10,10V416.001z
			"/>
		<path d="M20,356.001c0,5.523,4.477,10,10,10c5.523,0,10-4.477,10-10v-20c0-5.522-4.477-10-10-10c-5.523,0-10,4.478-10,10V356.001z
			"/>
		<path d="M20,296.001c0,5.523,4.477,10,10,10c5.523,0,10-4.477,10-10v-20c0-5.522-4.477-10-10-10c-5.523,0-10,4.478-10,10V296.001z
			"/>
		<path d="M20,236.002c0,5.522,4.477,10,10,10c5.523,0,10-4.478,10-10v-20c0-5.522-4.477-10-10-10c-5.523,0-10,4.478-10,10V236.002z
			"/>
		<path d="M20,176.002c0,5.522,4.477,10,10,10c5.523,0,10-4.478,10-10v-20c0-5.522-4.477-10-10-10c-5.523,0-10,4.478-10,10V176.002z
			"/>
		<path d="M30,126.002c5.523,0,10-4.478,10-10v-20c0-5.522-4.477-10-10-10c-5.523,0-10,4.478-10,10v20
			C20,121.524,24.477,126.002,30,126.002z"/>
		<path d="M416,472.003h-20c-5.522,0-10,4.478-10,10s4.478,10,10,10h20c5.522,0,10-4.478,10-10S421.523,472.003,416,472.003z"/>
		<path d="M356,472.003h-20c-5.522,0-10,4.478-10,10s4.478,10,10,10h20c5.522,0,10-4.478,10-10S361.523,472.003,356,472.003z"/>
		<path d="M296.001,472.003H276c-5.522,0-10,4.478-10,10s4.478,10,10,10h20.001c5.522,0,10-4.478,10-10
			S301.524,472.003,296.001,472.003z"/>
		<path d="M236.001,472.003h-20.001c-5.523,0-10,4.478-10,10s4.477,10,10,10h20.001c5.523,0,10-4.478,10-10
			S241.524,472.003,236.001,472.003z"/>
		<path d="M176.001,472.003h-20c-5.523,0-10,4.478-10,10s4.477,10,10,10h20c5.523,0,10-4.478,10-10S181.524,472.003,176.001,472.003
			z"/>
		<path d="M116.001,472.003h-20c-5.523,0-10,4.478-10,10s4.477,10,10,10h20c5.523,0,10-4.478,10-10S121.524,472.003,116.001,472.003
			z"/>
		<path d="M482.002,126.002c5.522,0,10-4.478,10-10v-20c0-5.522-4.478-10-10-10c-5.522,0-10,4.478-10,10v20
			C472.002,121.524,476.48,126.002,482.002,126.002z"/>
		<path d="M472.002,176.002c0,5.522,4.478,10,10,10c5.522,0,10-4.478,10-10v-20c0-5.522-4.478-10-10-10c-5.522,0-10,4.478-10,10
			V176.002z"/>
		<path d="M472.002,236.002c0,5.522,4.478,10,10,10c5.522,0,10-4.478,10-10v-20c0-5.522-4.478-10-10-10c-5.522,0-10,4.478-10,10
			V236.002z"/>
		<path d="M472.002,296.001c0,5.523,4.478,10,10,10c5.522,0,10-4.477,10-10v-20c0-5.522-4.478-10-10-10c-5.522,0-10,4.478-10,10
			V296.001z"/>
		<path d="M472.002,356.001c0,5.523,4.478,10,10,10c5.522,0,10-4.477,10-10v-20c0-5.522-4.478-10-10-10c-5.522,0-10,4.478-10,10
			V356.001z"/>
		<path d="M472.002,416.001c0,5.523,4.478,10,10,10c5.522,0,10-4.477,10-10v-20c0-5.522-4.478-10-10-10c-5.522,0-10,4.478-10,10
			V416.001z"/>
		<path d="M442.001,112.001c0-5.522-4.478-10-10-10h-242c-5.523,0-10,4.478-10,10c0,5.522,4.477,10,10,10h232v142.441
			l-34.299-34.298c-3.906-3.904-10.236-3.904-14.143,0l-52.328,52.329L207.087,168.328c-1.876-1.875-4.419-2.929-7.071-2.929
			c-2.652,0-5.196,1.054-7.071,2.929L90.001,271.272V122.001h10c5.523,0,10-4.478,10-10c0-5.522-4.477-10-10-10h-20
			c-5.523,0-10,4.478-10,10v288.001c0,5.523,4.477,10,10,10H322c5.522,0,10-4.477,10-10c0-5.522-4.478-10-10-10H90.001v-90.444
			l110.015-110.016l114.145,114.144c1.876,1.875,4.419,2.929,7.071,2.929c2.652,0,5.196-1.054,7.071-2.929l52.328-52.329
			l41.37,41.369v97.275H412c-5.522,0-10,4.478-10,10c0,5.523,4.478,10,10,10h20.001c5.522,0,10-4.477,10-10V112.001z"/>
		<path d="M357.114,186.814c0-19.785-16.097-35.882-35.883-35.882c-19.785,0-35.882,16.097-35.882,35.882
			c0,19.785,16.097,35.882,35.882,35.882C341.017,222.696,357.114,206.6,357.114,186.814z M305.349,186.814
			c0-8.757,7.125-15.882,15.882-15.882c8.758,0,15.883,7.125,15.883,15.882c0,8.757-7.125,15.882-15.883,15.882
			C312.474,202.696,305.349,195.571,305.349,186.814z"/>
		<path d="M145.005,122.001c5.523,0,10-4.478,10-10c0-5.522-4.477-10-10-10h-0.007c-5.523,0-9.996,4.478-9.996,10
			C135.002,117.523,139.482,122.001,145.005,122.001z"/>
		<path d="M367.003,390.002h-0.007c-5.522,0-9.996,4.478-9.996,10c0,5.523,4.48,10,10.003,10c5.522,0,10-4.477,10-10
			C377.003,394.479,372.526,390.002,367.003,390.002z"/>
	</g>
</g>
<g>
</g>
<g>
</g>
<g>
</g>
<g>
</g>
<g>
</g>
<g>
</g>
<g>
</g>
<g>
</g>
<g>
</g>
<g>
</g>
<g>
</g>
<g>
</g>
<g>
</g>
<g>
</g>
<g>
</g>
</svg>
