<?xml version="1.0" encoding="iso-8859-1"?>
<!-- Generator: Adobe Illustrator 21.0.0, SVG Export Plug-In . SVG Version: 6.00 Build 0)  -->
<svg version="1.1" id="Capa_1" xmlns="http://www.w3.org/2000/svg" xmlns:xlink="http://www.w3.org/1999/xlink" x="0px" y="0px"
	 viewBox="0 0 512.001 512.001" style="enable-background:new 0 0 512.001 512.001;" xml:space="preserve">
<g>
	<g>
		<path style="fill-rule:evenodd;clip-rule:evenodd;fill:#FBF7F6;" d="M130,116.001H10l0,340c0,11,9,20,20,20h452.002
			c11,0,20-9,20-20v-380H169.999C169.999,98.001,151.999,116.001,130,116.001z"/>
		<path style="fill-rule:evenodd;clip-rule:evenodd;fill:#FFC234;" d="M502.001,76.001V56c0-11-9-20-20-20H30c-11,0-20,9-20,20l0,60
			h120c22,0,40-18,40-40H502.001z"/>
		<rect x="50.001" y="156.001" style="fill-rule:evenodd;clip-rule:evenodd;fill:#CDD3E0;" width="412" height="279.999"/>
		<path style="fill-rule:evenodd;clip-rule:evenodd;fill:#FBF7F6;" d="M394.591,295.999c-27.666-47.823-79.368-80-138.59-80
			s-110.924,32.177-138.59,80c27.666,47.823,79.368,80,138.59,80S366.925,343.822,394.591,295.999L394.591,295.999z M256,255.999
			c22.091,0,40,17.909,40,40c0,22.091-17.909,40-40,40c-22.091,0-40-17.909-40-40C216.001,273.908,233.909,255.999,256,255.999z"/>
		<circle style="fill-rule:evenodd;clip-rule:evenodd;fill:#8481E2;" cx="256" cy="295.999" r="40"/>
	</g>
	<g>
		<path d="M482.001,26.001H134.992c-5.522,0-10,4.478-10,10c0,5.522,4.478,10,10,10h347.009c5.514,0,10,4.485,10,9.999v10H169.999
			c-5.522,0-10,4.478-10,10c0,16.542-13.458,30-29.999,30H20V56c0-5.514,4.485-9.999,9.999-9.999h14.993c5.523,0,10-4.478,10-10
			c0-5.522-4.477-10-10-10H29.999C13.457,26.001,0,39.458,0,56v400.001C0,472.542,13.457,486,29.999,486h452.002
			c16.542,0,30-13.458,30-29.999V56C512.001,39.458,498.543,26.001,482.001,26.001z M482.001,466H29.999
			c-5.514,0-9.999-4.485-9.999-9.999V126h110c24.145,0,44.349-17.206,48.994-40h313.007v370.001
			C492.001,461.515,487.515,466,482.001,466z"/>
		<path d="M90.003,66h-0.007c-5.522,0-9.997,4.478-9.997,10c0,5.522,4.481,10,10.004,10c5.522,0,10-4.478,10-10
			C100.003,70.478,95.525,66,90.003,66z"/>
		<path d="M130.005,86c5.523,0,10-4.478,10-10c0-5.522-4.477-10-10-10h-0.008c-5.522,0-9.996,4.478-9.996,10
			C120.001,81.522,124.482,86,130.005,86z"/>
		<path d="M49.994,66c-5.523,0-9.996,4.478-9.996,10c0,5.522,4.481,10,10.004,10c5.522,0,10-4.478,10-10c0-5.522-4.478-10-10-10
			H49.994z"/>
		<path d="M342.207,229.452C316.181,214.109,286.371,206,256,206s-60.181,8.109-86.207,23.452
			c-25.254,14.887-46.36,36.167-61.039,61.54c-1.792,3.098-1.792,6.917,0,10.016c14.679,25.373,35.785,46.653,61.039,61.541
			C195.819,377.891,225.629,386,256,386s60.181-8.109,86.207-23.451c25.254-14.888,46.361-36.168,61.04-61.541
			c1.792-3.099,1.792-6.918,0-10.016C388.568,265.619,367.461,244.339,342.207,229.452z M256,366c-51.43,0-99.521-26.674-126.904-70
			c27.383-43.325,75.475-70,126.904-70s99.522,26.674,126.905,70C355.522,339.326,307.43,366,256,366z"/>
		<path d="M256,246c-27.57,0-50,22.43-50,50c0,27.57,22.43,50,50,50s50-22.43,50-50C306,268.43,283.57,246,256,246z M256,326
			c-16.542,0-30-13.458-30-30c0-16.542,13.458-30,30-30s30,13.458,30,30C286,312.542,272.542,326,256,326z"/>
		<path d="M90.003,146.002H50.001c-5.522,0-10,4.478-10,10v40.002c0,5.522,4.478,10,10,10s10-4.478,10-10v-30.002h30.002
			c5.522,0,10-4.477,10-10C100.003,150.48,95.525,146.002,90.003,146.002z"/>
		<path d="M90.003,426H60.001v-30.001c0-5.523-4.478-10-10-10s-10,4.477-10,10V436c0,5.522,4.478,10,10,10h40.002
			c5.522,0,10-4.478,10-10C100.003,430.478,95.525,426,90.003,426z"/>
		<path d="M462.001,146.002h-40.002c-5.522,0-10,4.478-10,10c0,5.523,4.478,10,10,10h30.002v30.002c0,5.522,4.477,10,10,10
			c5.522,0,10-4.478,10-10v-40.002C472.001,150.48,467.523,146.002,462.001,146.002z"/>
		<path d="M462.001,385.999c-5.523,0-10,4.477-10,10V426h-30.002c-5.522,0-10,4.478-10,10c0,5.522,4.478,10,10,10h40.002
			c5.522,0,10-4.478,10-10v-40.001C472.001,390.477,467.523,385.999,462.001,385.999z"/>
		<path d="M377.003,426h-0.008c-5.522,0-9.996,4.478-9.996,10c0,5.522,4.482,10,10.004,10c5.522,0,10-4.478,10-10
			C387.003,430.478,382.525,426,377.003,426z"/>
		<path d="M89.996,46.001c5.522,0,10-4.478,10-10c0-5.522-4.478-10-10-10h-0.008c-5.522,0-9.996,4.478-9.996,10
			C79.992,41.523,84.474,46.001,89.996,46.001z"/>
	</g>
</g>
<g>
</g>
<g>
</g>
<g>
</g>
<g>
</g>
<g>
</g>
<g>
</g>
<g>
</g>
<g>
</g>
<g>
</g>
<g>
</g>
<g>
</g>
<g>
</g>
<g>
</g>
<g>
</g>
<g>
</g>
</svg>
