<?xml version="1.0" encoding="iso-8859-1"?>
<!-- Generator: Adobe Illustrator 21.0.0, SVG Export Plug-In . SVG Version: 6.00 Build 0)  -->
<svg version="1.1" id="Capa_1" xmlns="http://www.w3.org/2000/svg" xmlns:xlink="http://www.w3.org/1999/xlink" x="0px" y="0px"
	 viewBox="0 0 512.003 512.003" style="enable-background:new 0 0 512.003 512.003;" xml:space="preserve">
<g>
	<g>
		<polygon style="fill-rule:evenodd;clip-rule:evenodd;fill:#8481E2;" points="60.001,281.002 60.001,231.002 36.41,231.002 
			10.001,231.002 10.001,281.002 36.417,281.002 		"/>
		<polygon style="fill-rule:evenodd;clip-rule:evenodd;fill:#8481E2;" points="231.001,36.417 231.001,60 281.002,60 
			281.002,36.417 281.002,10 231.001,10 		"/>
		<path style="fill-rule:evenodd;clip-rule:evenodd;fill:#99EBFB;" d="M316.001,256.001c0-33.137-26.863-60-60-60s-60,26.863-60,60
			c0,33.137,26.863,60,60,60S316.001,289.139,316.001,256.001L316.001,256.001z M256.002,236.002c11.046,0,20,8.954,20,20
			c0,11.046-8.954,20-20,20s-20-8.954-20-20C236.002,244.956,244.956,236.002,256.002,236.002z"/>
		<polygon style="fill-rule:evenodd;clip-rule:evenodd;fill:#8481E2;" points="452.003,231.001 452.003,281.001 475.593,281.001 
			502.003,281.001 502.003,231.001 475.593,231.001 		"/>
		<polygon style="fill-rule:evenodd;clip-rule:evenodd;fill:#8481E2;" points="281.002,475.586 281.002,452.003 231.002,452.003 
			231.002,475.593 231.002,502.003 281.002,502.003 		"/>
	</g>
	<g>
		<path d="M502.002,221.001h-17.657c-7.384-48.298-30.257-93.58-65.009-128.33c-34.751-34.75-80.035-57.623-128.335-65.006V10
			c0-5.523-4.478-10-10-10h-50c-5.522,0-10,4.477-10,10v17.681c-32.578,4.981-64.105,17.031-91.676,35.145
			c-4.615,3.032-5.899,9.232-2.866,13.849c1.921,2.924,5.111,4.51,8.367,4.51c1.884,0,3.789-0.531,5.482-1.644
			c24.325-15.98,52.019-26.797,80.693-31.613V60c0,5.522,4.478,10,10,10h50c5.522,0,10-4.478,10-10V47.927
			c87.882,14.778,158.304,85.195,173.082,173.074h-12.081c-5.522,0-10,4.478-10,10v50c0,5.523,4.478,10,10,10h12.081
			c-4.817,28.674-15.634,56.368-31.614,80.69c-3.033,4.616-1.749,10.816,2.866,13.849c1.692,1.112,3.598,1.644,5.482,1.644
			c3.254,0,6.445-1.587,8.366-4.51c18.113-27.568,30.162-59.093,35.145-91.672h17.673c5.523,0,10-4.477,10-10v-50
			C512.002,225.479,507.525,221.001,502.002,221.001z M241.001,50V36.335c0-0.008,0-0.017,0-0.025V20h30v16.31
			c0,0.008,0,0.017,0,0.025V50H241.001z M492.002,271.001h-16.304c-0.007,0-0.014,0-0.02,0h-13.675v-30h13.557
			c0.007,0,0.014,0.001,0.021,0.001c0.006,0,0.012-0.001,0.017-0.001h16.404V271.001z"/>
		<path d="M371.696,432.463c-24.322,15.98-52.017,26.797-80.694,31.614v-12.074c0-5.522-4.478-10-10-10h-50c-5.522,0-10,4.478-10,10
			v12.08c-87.879-14.778-158.297-85.199-173.075-173.081H60c5.522,0,10-4.477,10-10v-50c0-5.522-4.478-10-10-10h-12.08
			c4.816-28.674,15.633-56.367,31.613-80.689c3.033-4.615,1.75-10.816-2.866-13.849c-4.617-3.034-10.816-1.749-13.849,2.866
			c-18.114,27.568-30.163,59.093-35.145,91.672H10c-5.522,0-10,4.478-10,10v50c0,5.523,4.478,10,10,10h17.664
			c7.384,48.299,30.256,93.583,65.006,128.334c34.751,34.751,80.032,57.624,128.331,65.009v17.658c0,5.522,4.478,10,10,10h50
			c5.522,0,10-4.478,10-10v-17.68c32.582-4.983,64.109-17.032,91.677-35.145c4.615-3.032,5.899-9.232,2.866-13.849
			C382.511,430.713,376.312,429.428,371.696,432.463z M20,241.002h16.406c0.006,0,0.012,0.001,0.017,0.001
			c0.007,0,0.014-0.001,0.021-0.001H50v30H20V241.002z M241.001,492.003V475.7c0-0.008,0-0.017,0-0.025v-13.672h30v13.666
			c0,0.008,0,0.017,0,0.025v16.309H241.001z"/>
		<path d="M186.722,246.042c-0.24-0.017-0.479-0.037-0.723-0.037h-30c-5.523,0-10,4.478-10,10c0,5.522,4.477,10,10,10h30
			c0.245,0,0.484-0.019,0.725-0.037c4.388,30.636,28.679,54.925,59.315,59.312c-0.018,0.241-0.037,0.482-0.037,0.728v30
			c0,5.522,4.478,10,10,10c5.522,0,10-4.478,10-10v-30c0-0.246-0.019-0.487-0.037-0.728c30.636-4.387,54.927-28.676,59.315-59.312
			c0.241,0.017,0.481,0.037,0.726,0.037h29.999c5.522,0,10-4.478,10-10c0-5.523-4.478-10-10-10h-29.999
			c-0.245,0-0.484,0.019-0.725,0.037c-4.385-30.639-28.677-54.933-59.316-59.32c0.017-0.239,0.036-0.478,0.036-0.721v-29.999
			c0-5.522-4.478-10-10-10c-5.522,0-10,4.478-10,10v29.999c0,0.243,0.019,0.482,0.036,0.721
			C215.399,191.109,191.107,215.402,186.722,246.042z M256.001,206.001c27.57,0,50,22.43,50,50c0,27.57-22.43,50-50,50
			c-27.57,0-50-22.43-50-50C206.001,228.431,228.431,206.001,256.001,206.001z"/>
		<path d="M256.001,286.001c16.542,0,30-13.458,30-30c0-16.542-13.458-30-30-30s-30,13.458-30,30
			C226.001,272.543,239.459,286.001,256.001,286.001z M256.001,246.001c5.514,0,10,4.486,10,10c0,5.514-4.486,10-10,10
			c-5.514,0-10-4.486-10-10C246.001,250.487,250.488,246.001,256.001,246.001z"/>
		<path d="M93.326,107.416c1.869,1.557,4.138,2.316,6.395,2.316c2.867,0,5.714-1.227,7.692-3.601
			c3.535-4.242,2.962-10.548-1.281-14.084c-4.24-3.532-10.545-2.962-14.084,1.281l-0.005,0.006
			C88.507,97.577,89.084,103.88,93.326,107.416z"/>
		<path d="M418.68,404.585c-4.239-3.532-10.546-2.962-14.084,1.281l-0.005,0.006c-3.535,4.242-2.959,10.545,1.283,14.081
			c1.869,1.557,4.138,2.316,6.395,2.316c2.867,0,5.714-1.227,7.692-3.601C423.497,414.427,422.923,408.121,418.68,404.585z"/>
	</g>
</g>
<g>
</g>
<g>
</g>
<g>
</g>
<g>
</g>
<g>
</g>
<g>
</g>
<g>
</g>
<g>
</g>
<g>
</g>
<g>
</g>
<g>
</g>
<g>
</g>
<g>
</g>
<g>
</g>
<g>
</g>
</svg>
