<?xml version="1.0" encoding="iso-8859-1"?>
<!-- Generator: Adobe Illustrator 21.0.0, SVG Export Plug-In . SVG Version: 6.00 Build 0)  -->
<svg version="1.1" id="Capa_1" xmlns="http://www.w3.org/2000/svg" xmlns:xlink="http://www.w3.org/1999/xlink" x="0px" y="0px"
	 viewBox="0 0 512.001 512.001" style="enable-background:new 0 0 512.001 512.001;" xml:space="preserve">
<g>
	<g>
		<path style="fill-rule:evenodd;clip-rule:evenodd;fill:#8481E2;" d="M256.001,10C120.138,10,10,120.138,10,256
			s110.138,246.001,246.001,246.001S502.001,391.863,502.001,256S391.863,10,256.001,10L256.001,10z M50,256
			C50,142.229,142.23,50,256.001,50C369.772,50,462.001,142.229,462.001,256s-92.23,206.001-206.001,206.001
			C142.23,462.001,50,369.771,50,256z"/>
		<path style="fill-rule:evenodd;clip-rule:evenodd;fill:#45E08C;" d="M256.001,50C142.23,50,50,142.229,50,256
			s92.23,206.001,206.001,206.001c113.771,0,206.001-92.23,206.001-206.001S369.772,50,256.001,50L256.001,50z M96.216,295.619
			l149.179-29.013l-29.013,149.179L96.216,295.619L96.216,295.619z M266.606,245.395L295.62,96.216l120.165,120.165L266.606,245.395
			z"/>
		<polygon style="fill-rule:evenodd;clip-rule:evenodd;fill:#8481E2;" points="295.62,96.216 266.606,245.395 415.785,216.381 		"/>
		<polygon style="fill-rule:evenodd;clip-rule:evenodd;fill:#8481E2;" points="245.395,266.606 96.216,295.619 216.382,415.785 		
			"/>
	</g>
	<g>
		<path d="M437.021,74.98C388.668,26.629,324.381,0,256,0c-52.03,0-102.124,15.534-144.868,44.923
			c-4.551,3.129-5.704,9.355-2.575,13.906c3.129,4.552,9.356,5.704,13.906,2.574C161.858,34.317,208.034,20,256,20
			c130.131,0,236.001,105.869,236.001,236S386.131,492.001,256,492.001S20,386.131,20,256c0-47.971,14.316-94.145,41.399-133.53
			c3.129-4.551,1.977-10.776-2.574-13.906c-4.55-3.128-10.777-1.978-13.906,2.574C15.533,153.872,0,203.964,0,256
			c0,68.381,26.628,132.668,74.981,181.021c48.352,48.352,112.639,74.98,181.019,74.98s132.668-26.629,181.02-74.98
			c48.352-48.353,74.98-112.64,74.98-181.021C512.001,187.62,485.373,123.332,437.021,74.98z"/>
		<path d="M424.614,374.782c4.663,2.965,10.842,1.585,13.804-3.075c21.971-34.568,33.584-74.579,33.584-115.707
			c0-57.695-22.468-111.938-63.265-152.735C367.939,62.467,313.696,39.999,256,39.999s-111.938,22.468-152.735,63.266
			C62.468,144.062,40,198.305,40,256c0,57.696,22.468,111.939,63.265,152.736c40.797,40.797,95.04,63.265,152.735,63.265
			c41.13,0,81.139-11.611,115.701-33.58c4.661-2.963,6.038-9.142,3.075-13.804c-2.962-4.661-9.143-6.038-13.804-3.075
			c-31.35,19.927-67.649,30.459-104.973,30.459c-108.075,0-196-87.926-196-196.001S147.925,59.999,256,59.999
			S452.001,147.925,452.001,256c0,37.322-10.534,73.623-30.463,104.979C418.576,365.64,419.953,371.82,424.614,374.782z"/>
		<path d="M82.051,92.053c2.401,0,4.811-0.859,6.727-2.602c4.086-3.715,4.388-10.039,0.673-14.126
			c-3.716-4.086-10.04-4.388-14.126-0.673l-0.005,0.005c-4.086,3.715-4.385,10.037-0.67,14.124
			C76.623,90.951,79.332,92.053,82.051,92.053z"/>
		<path d="M394.939,394.266l-0.005,0.005c-4.086,3.715-4.385,10.037-0.67,14.124c1.973,2.17,4.682,3.272,7.401,3.272
			c2.401,0,4.811-0.859,6.727-2.602c4.086-3.715,4.388-10.039,0.673-14.126C405.349,390.852,399.024,390.552,394.939,394.266z"/>
		<path d="M425.348,219.304c1.081-3.535,0.122-7.38-2.492-9.994L302.69,89.145c-2.615-2.613-6.458-3.573-9.995-2.492
			c-3.536,1.081-6.187,4.024-6.893,7.654L256.79,243.485c-0.635,3.264,0.394,6.629,2.745,8.98c1.894,1.894,4.445,2.929,7.071,2.929
			c0.635,0,1.274-0.061,1.909-0.184l149.178-29.014C421.323,225.491,424.267,222.84,425.348,219.304z M279.253,232.747
			l22.592-116.163l93.571,93.571L279.253,232.747z"/>
		<path d="M243.485,256.79L94.307,285.803c-3.629,0.706-6.573,3.357-7.654,6.893c-1.081,3.535-0.122,7.38,2.492,9.994
			L209.31,422.857c1.904,1.903,4.458,2.929,7.072,2.929c0.976,0,1.961-0.143,2.922-0.436c3.536-1.081,6.187-4.024,6.893-7.654
			l29.013-149.179c0.635-3.264-0.394-6.629-2.745-8.98C250.115,257.184,246.749,256.159,243.485,256.79z M210.155,395.417
			l-93.571-93.571l116.164-22.592L210.155,395.417z"/>
	</g>
</g>
<g>
</g>
<g>
</g>
<g>
</g>
<g>
</g>
<g>
</g>
<g>
</g>
<g>
</g>
<g>
</g>
<g>
</g>
<g>
</g>
<g>
</g>
<g>
</g>
<g>
</g>
<g>
</g>
<g>
</g>
</svg>
