<?xml version="1.0" encoding="iso-8859-1"?>
<!-- Generator: Adobe Illustrator 21.0.0, SVG Export Plug-In . SVG Version: 6.00 Build 0)  -->
<svg version="1.1" id="Capa_1" xmlns="http://www.w3.org/2000/svg" xmlns:xlink="http://www.w3.org/1999/xlink" x="0px" y="0px"
	 viewBox="0 0 512.002 512.002" style="enable-background:new 0 0 512.002 512.002;" xml:space="preserve">
<g>
	<g>
		<g>
			<path style="fill-rule:evenodd;clip-rule:evenodd;fill:#FBF7F6;" d="M96.002,110.002h199.997V190H96.002V110.002L96.002,110.002z
				 M56.001,280.004h280V70.001h-280V280.004z"/>
			<rect x="96.002" y="110.002" style="fill-rule:evenodd;clip-rule:evenodd;fill:#CFCDF5;" width="199.997" height="79.998"/>
			<rect x="56.001" y="280.004" style="fill-rule:evenodd;clip-rule:evenodd;fill:#45E08C;" width="280" height="181.997"/>
			<polygon style="fill-rule:evenodd;clip-rule:evenodd;fill:#8481E2;" points="336.001,462 56.001,462 56.001,502.001 
				316.001,502.001 336.001,502.001 			"/>
			<path style="fill-rule:evenodd;clip-rule:evenodd;fill:#FFC234;" d="M56.001,70.001h280V29.999c0-11-9-20-20-20H76.001
				c-11,0-20,9-20,20V70.001z"/>
		</g>
		<path style="fill-rule:evenodd;clip-rule:evenodd;fill:#99EBFB;" d="M456.001,266c0-66.274-53.726-120-120-120
			c-14.026,0-27.49,2.406-40.001,6.829v0.01c-20.877,7.38-39.102,20.37-52.863,37.162h-0.006
			c-9.582,11.695-16.998,25.233-21.636,40.001c-3.569,11.364-5.493,23.457-5.493,35.999c0,4.737,0.274,9.41,0.808,14.003
			c2.118,18.226,8.32,35.205,17.667,50c10.407,16.474,24.714,30.24,41.624,40c17.628,10.175,38.085,15.997,59.901,15.997
			C402.275,386.001,456.001,332.274,456.001,266L456.001,266z M336.001,206c16.5,0,30,13.5,30,30v30h15v60h-90v-60h15v-30
			C306.001,219.5,319.5,206,336.001,206z"/>
		<path style="fill-rule:evenodd;clip-rule:evenodd;fill:#99EBFB;" d="M366.001,236c0-16.5-13.5-30-30-30c-16.5,0-30,13.5-30,30v30
			h60V236z"/>
		<polygon style="fill-rule:evenodd;clip-rule:evenodd;fill:#FF5D7F;" points="366.001,266 306.001,266 291.001,266 291.001,326 
			381.001,326 381.001,266 		"/>
	</g>
	<g>
		<path d="M86.009,30h-0.007c-5.523,0-9.997,4.478-9.997,10c0,5.522,4.481,10,10.004,10c5.523,0,10-4.478,10-10
			C96.009,34.478,91.532,30,86.009,30z"/>
		<path d="M256,410.004c0-5.522-4.477-10-10-10h-99.998c-5.523,0-10,4.478-10,10c0,5.522,4.477,10,10,10H246
			C251.523,420.004,256,415.526,256,410.004z"/>
		<path d="M131.004,20c5.523,0,10-4.477,10-10c0-5.522-4.477-10-10-10h-0.007c-5.523,0-9.996,4.478-9.996,10
			C121.001,15.523,125.481,20,131.004,20z"/>
		<path d="M251.003,452h-0.007c-5.523,0-9.996,4.478-9.996,10c0,5.522,4.48,10,10.003,10c5.523,0,10-4.478,10-10
			C261.002,456.478,256.526,452,251.003,452z"/>
		<path d="M381,256h-5v-20c0-22.056-17.944-40-40-40c-22.056,0-40,17.944-40,40v20h-4.999c-5.523,0-10,4.478-10,10v60
			c0,5.522,4.477,10,10,10H381c5.522,0,10-4.478,10-10v-60C391,260.478,386.523,256,381,256z M316,236c0-11.028,8.973-20,20.001-20
			c11.027,0,19.999,8.972,19.999,20v20h-40V236z M371,316h-69.999v-40H371V316z"/>
		<path d="M466.001,266c0-68.318-52.972-124.496-120-129.619V30c0-16.542-13.458-30-30-30H176.001c-5.523,0-10,4.478-10,10
			c0,5.523,4.477,10,10,10h140.001c5.514,0,10,4.486,10,10v30.001H66.001V30c0-5.514,4.486-10,10-10h10c5.523,0,10-4.477,10-10
			c0-5.522-4.477-10-10-10h-10c-16.542,0-30,13.458-30,30v472.002c0,5.522,4.477,10,10,10h280.001c5.523,0,10-4.478,10-10V395.62
			C413.029,390.497,466.001,334.318,466.001,266z M326.001,80.001v56.38c-6.828,0.522-13.507,1.58-20.002,3.12v-29.498
			c0-5.522-4.478-10-10-10H96.002c-5.523,0-10,4.478-10,10v79.998c0,5.522,4.477,10,10,10h128.041
			c-3.753,6.343-6.982,13.029-9.629,20.001H96.002c-5.523,0-10,4.478-10,10c0,5.523,4.477,10,10,10h112.612
			c-1.712,8.403-2.614,17.097-2.614,25.998c0,1.34,0.027,2.674,0.068,4.004H66.001V80.001H326.001z M285.999,145.977
			c-18.16,7.571-34.399,19.201-47.483,34.024H106.002v-59.998h179.997V145.977z M66.001,492.002V472h0.001h139.998
			c5.523,0,10-4.478,10-10c0-5.522-4.477-10-10-10H66.001h-0.001V290.004h142.23c1.967,10.495,5.197,20.55,9.53,30h-71.76
			c-5.523,0-10,4.478-10,10c0,5.522,4.477,10,10,10h83.182c5.025,7.232,10.759,13.936,17.11,20H96.002c-5.523,0-10,4.478-10,10
			c0,5.522,4.477,10,10,10H273.58c15.78,8.675,33.542,14.173,52.422,15.616V452H326h-30.001c-5.522,0-10,4.478-10,10
			c0,5.522,4.478,10,10,10H326h0.001v20.002H66.001z M336.001,376.001c-60.654,0-110.001-49.347-110.001-110.001
			c0-60.654,49.346-110,110.001-110s110,49.346,110,110C446.001,326.654,396.656,376.001,336.001,376.001z"/>
	</g>
</g>
<g>
</g>
<g>
</g>
<g>
</g>
<g>
</g>
<g>
</g>
<g>
</g>
<g>
</g>
<g>
</g>
<g>
</g>
<g>
</g>
<g>
</g>
<g>
</g>
<g>
</g>
<g>
</g>
<g>
</g>
</svg>
