<?xml version="1.0" encoding="iso-8859-1"?>
<!-- Generator: Adobe Illustrator 21.0.0, SVG Export Plug-In . SVG Version: 6.00 Build 0)  -->
<svg version="1.1" id="Capa_1" xmlns="http://www.w3.org/2000/svg" xmlns:xlink="http://www.w3.org/1999/xlink" x="0px" y="0px"
	 viewBox="0 0 512.001 512.001" style="enable-background:new 0 0 512.001 512.001;" xml:space="preserve">
<g>
	<g>
		<path style="fill-rule:evenodd;clip-rule:evenodd;fill:#CDD3E0;" d="M316,50.001h80V29.999c0-11-9-20-20-20H136c-11,0-20,9-20,20
			v20.002h80c0,5.5,4.499,10,10,10h100C311.501,60.001,316,55.501,316,50.001z"/>
		<path style="fill-rule:evenodd;clip-rule:evenodd;fill:#99EBFB;" d="M396,50.001h-80c0,5.5-4.499,10-10,10H206
			c-5.5,0-10-4.5-10-10h-80l-0.001,411.998h280.002L396,50.001z"/>
		<path style="fill-rule:evenodd;clip-rule:evenodd;fill:#CDD3E0;" d="M396.002,461.999H115.999L116,482.001c0,11,9,20,20,20h240
			c11,0,20-9,20-20L396.002,461.999z"/>
	</g>
	<g>
		<path d="M406.002,461.999c0-0.013-0.002-0.026-0.002-0.039V29.999C406,13.458,392.542,0,376.001,0H226c-5.522,0-10,4.478-10,10
			c0,5.523,4.478,10,10,10h150.001c5.514,0,9.999,4.485,9.999,9.999v10.002h-70c-5.522,0-10,4.478-10,10H206c0-5.522-4.477-10-10-10
			h-70V29.999c0-5.514,4.486-9.999,10-9.999c5.523,0,10-4.477,10-10c0-5.522-4.477-10-10-10c-16.542,0-30,13.458-30,29.999V461.98
			c0,0.007-0.001,0.013-0.001,0.019c0,0.007,0.001,0.013,0.001,0.019v19.983c0,16.542,13.458,30,30,30h240.001
			c16.541,0,29.999-13.458,29.999-30v-19.963C406,462.025,406.002,462.012,406.002,461.999z M188.684,60.001
			c3.464,5.974,9.929,10,17.316,10h100c7.388,0,13.853-4.026,17.316-10H386v391.998H126V60.001H188.684z M376.001,492.001H136
			c-5.514,0-10-4.486-10-10v-10.002h260v10.002C386,487.515,381.515,492.001,376.001,492.001z"/>
		<path d="M205.797,224.939h-7.732c-5.522,0-10,4.478-10,10c0,5.523,4.478,10,10,10h31.875c5.522,0,10-4.477,10-10v-31.874
			c0-5.523-4.478-10-10-10c-5.522,0-10,4.477-10,10v7.731l-56.867-56.867c-3.906-3.904-10.236-3.904-14.143,0
			c-3.905,3.905-3.905,10.237,0,14.143L205.797,224.939z"/>
		<path d="M229.939,277.061h-31.875c-5.522,0-10,4.477-10,10c0,5.522,4.478,10,10,10h7.733l-56.867,56.868
			c-3.905,3.905-3.905,10.237,0,14.142c1.953,1.952,4.512,2.929,7.071,2.929c2.56,0,5.118-0.977,7.071-2.929l56.867-56.868v7.732
			c0,5.522,4.478,10,10,10c5.522,0,10-4.478,10-10v-31.875C239.939,281.538,235.462,277.061,229.939,277.061z"/>
		<path d="M282.061,328.936c5.522,0,10-4.478,10-10v-7.732l56.868,56.868C350.882,370.023,353.44,371,356,371
			c2.56,0,5.118-0.977,7.071-2.929c3.905-3.905,3.905-10.237,0-14.142l-56.868-56.868h7.733c5.522,0,10-4.478,10-10
			c0-5.523-4.478-10-10-10h-31.875c-5.523,0-10,4.477-10,10v31.875C272.061,324.458,276.538,328.936,282.061,328.936z"/>
		<path d="M282.061,244.939h31.875c5.522,0,10-4.477,10-10c0-5.522-4.478-10-10-10h-7.732l56.868-56.867
			c3.905-3.905,3.905-10.237,0-14.143c-3.905-3.903-10.235-3.905-14.143,0l-56.868,56.867v-7.733c0-5.522-4.478-10-10-10
			c-5.523,0-10,4.478-10,10v31.875C272.061,240.462,276.538,244.939,282.061,244.939z"/>
		<path d="M256.008,431.998c5.522,0,10-4.478,10-10c0-5.523-4.478-10-10-10H256c-5.522,0-9.996,4.477-9.996,10
			C246.004,427.521,250.485,431.998,256.008,431.998z"/>
		<path d="M356,411.998h-54.996c-5.522,0-10,4.477-10,10c0,5.522,4.478,10,10,10H356c5.522,0,10-4.478,10-10
			C366,416.476,361.522,411.998,356,411.998z"/>
		<path d="M181.004,20c5.522,0,10-4.477,10-10c0-5.522-4.478-10-10-10h-0.008C175.474,0,171,4.478,171,10
			C171,15.523,175.482,20,181.004,20z"/>
	</g>
</g>
<g>
</g>
<g>
</g>
<g>
</g>
<g>
</g>
<g>
</g>
<g>
</g>
<g>
</g>
<g>
</g>
<g>
</g>
<g>
</g>
<g>
</g>
<g>
</g>
<g>
</g>
<g>
</g>
<g>
</g>
</svg>
