<?xml version="1.0" encoding="iso-8859-1"?>
<!-- Generator: Adobe Illustrator 21.0.0, SVG Export Plug-In . SVG Version: 6.00 Build 0)  -->
<svg version="1.1" id="Capa_1" xmlns="http://www.w3.org/2000/svg" xmlns:xlink="http://www.w3.org/1999/xlink" x="0px" y="0px"
	 viewBox="0 0 512.008 512.008" style="enable-background:new 0 0 512.008 512.008;" xml:space="preserve">
<g>
	<g>
		<rect x="71.501" y="379.004" style="fill-rule:evenodd;clip-rule:evenodd;fill:#8690AF;" width="61.5" height="61.5"/>
		<rect x="71.5" y="317.504" style="fill-rule:evenodd;clip-rule:evenodd;fill:#CDD3E0;" width="61.5" height="61.5"/>
		<rect x="133.001" y="379.004" style="fill-rule:evenodd;clip-rule:evenodd;fill:#CDD3E0;" width="61.5" height="61.5"/>
		<rect x="71.5" y="256.004" style="fill-rule:evenodd;clip-rule:evenodd;fill:#FBF7F6;" width="61.5" height="61.5"/>
		<rect x="133.001" y="317.504" style="fill-rule:evenodd;clip-rule:evenodd;fill:#FBF7F6;" width="61.5" height="61.5"/>
		<rect x="194.501" y="379.004" style="fill-rule:evenodd;clip-rule:evenodd;fill:#FBF7F6;" width="61.5" height="61.5"/>
		<rect x="71.5" y="194.504" style="fill-rule:evenodd;clip-rule:evenodd;fill:#CDD3E0;" width="61.5" height="61.5"/>
		<rect x="133.001" y="256.004" style="fill-rule:evenodd;clip-rule:evenodd;fill:#CDD3E0;" width="61.5" height="61.5"/>
		<rect x="194.501" y="317.504" style="fill-rule:evenodd;clip-rule:evenodd;fill:#CDD3E0;" width="61.5" height="61.5"/>
		<rect x="256.001" y="379.004" style="fill-rule:evenodd;clip-rule:evenodd;fill:#CDD3E0;" width="61.5" height="61.5"/>
		<rect x="71.5" y="133.004" style="fill-rule:evenodd;clip-rule:evenodd;fill:#FBF7F6;" width="61.5" height="61.5"/>
		<rect x="133.001" y="194.504" style="fill-rule:evenodd;clip-rule:evenodd;fill:#FBF7F6;" width="61.5" height="61.5"/>
		<rect x="194.501" y="256.004" style="fill-rule:evenodd;clip-rule:evenodd;fill:#FBF7F6;" width="61.5" height="61.5"/>
		<rect x="256.001" y="317.504" style="fill-rule:evenodd;clip-rule:evenodd;fill:#FBF7F6;" width="61.5" height="61.5"/>
		<rect x="317.501" y="379.004" style="fill-rule:evenodd;clip-rule:evenodd;fill:#FBF7F6;" width="61.5" height="61.5"/>
		<rect x="71.501" y="71.504" style="fill-rule:evenodd;clip-rule:evenodd;fill:#8690AF;" width="61.5" height="61.5"/>
		<rect x="133.001" y="133.004" style="fill-rule:evenodd;clip-rule:evenodd;fill:#8690AF;" width="61.5" height="61.5"/>
		<rect x="194.501" y="194.504" style="fill-rule:evenodd;clip-rule:evenodd;fill:#8690AF;" width="61.5" height="61.5"/>
		<rect x="256.001" y="256.004" style="fill-rule:evenodd;clip-rule:evenodd;fill:#8690AF;" width="61.5" height="61.5"/>
		<rect x="317.501" y="317.504" style="fill-rule:evenodd;clip-rule:evenodd;fill:#8690AF;" width="61.5" height="61.5"/>
		<rect x="379.001" y="379.004" style="fill-rule:evenodd;clip-rule:evenodd;fill:#8690AF;" width="61.5" height="61.5"/>
		<rect x="379.001" y="317.504" style="fill-rule:evenodd;clip-rule:evenodd;fill:#FBF7F6;" width="61.5" height="61.5"/>
		<rect x="379.001" y="256.004" style="fill-rule:evenodd;clip-rule:evenodd;fill:#CDD3E0;" width="61.5" height="61.5"/>
		<rect x="317.501" y="256.004" style="fill-rule:evenodd;clip-rule:evenodd;fill:#FBF7F6;" width="61.5" height="61.5"/>
		<rect x="317.501" y="194.504" style="fill-rule:evenodd;clip-rule:evenodd;fill:#CDD3E0;" width="61.5" height="61.5"/>
		<rect x="379.001" y="194.504" style="fill-rule:evenodd;clip-rule:evenodd;fill:#FBF7F6;" width="61.5" height="61.5"/>
		<rect x="379.001" y="133.004" style="fill-rule:evenodd;clip-rule:evenodd;fill:#CDD3E0;" width="61.5" height="61.5"/>
		<rect x="317.501" y="133.004" style="fill-rule:evenodd;clip-rule:evenodd;fill:#FBF7F6;" width="61.5" height="61.5"/>
		<rect x="379.001" y="71.504" style="fill-rule:evenodd;clip-rule:evenodd;fill:#8690AF;" width="61.5" height="61.5"/>
		<rect x="317.501" y="71.504" style="fill-rule:evenodd;clip-rule:evenodd;fill:#CDD3E0;" width="61.5" height="61.5"/>
		<rect x="256.001" y="71.504" style="fill-rule:evenodd;clip-rule:evenodd;fill:#FBF7F6;" width="61.5" height="61.5"/>
		<rect x="194.501" y="71.504" style="fill-rule:evenodd;clip-rule:evenodd;fill:#CDD3E0;" width="61.5" height="61.5"/>
		<rect x="133.001" y="71.504" style="fill-rule:evenodd;clip-rule:evenodd;fill:#FBF7F6;" width="61.5" height="61.5"/>
		<rect x="194.501" y="133.004" style="fill-rule:evenodd;clip-rule:evenodd;fill:#FBF7F6;" width="61.5" height="61.5"/>
		<rect x="256.001" y="133.004" style="fill-rule:evenodd;clip-rule:evenodd;fill:#CDD3E0;" width="61.5" height="61.5"/>
		<rect x="256.001" y="194.504" style="fill-rule:evenodd;clip-rule:evenodd;fill:#FBF7F6;" width="61.5" height="61.5"/>
	</g>
	<g>
		<path d="M457.005,430.504h-6.504v-349h51.5c5.523,0,10-4.478,10-10c0-5.522-4.477-10-10-10h-51.5V10.003c0-5.522-4.477-10-10-10
			c-5.523,0-10,4.477-10,10v51.501h-349v-6.497c0-5.523-4.477-10-10-10c-5.523,0-10,4.477-10,10v6.497H10c-5.523,0-10,4.478-10,10
			c0,5.522,4.477,10,10,10h51.5v349H10c-5.523,0-10,4.478-10,10c0,5.523,4.477,10,10,10h51.5v51.501c0,5.522,4.477,10,10,10
			c5.523,0,10-4.478,10-10v-51.501h349v51.501c0,5.522,4.477,10,10,10c5.523,0,10-4.478,10-10v-51.501h6.504c5.523,0,10-4.477,10-10
			C467.005,434.982,462.528,430.504,457.005,430.504z M369.001,246.004h-41.5v-41.5h41.5V246.004z M389.001,204.504h41.5v41.5h-41.5
			V204.504z M307.501,246.004h-41.5v-41.5h41.5V246.004z M266.001,184.504v-41.5h41.5v41.5H266.001z M246.001,184.504h-41.501v-41.5
			h41.501V184.504z M246.001,204.504v41.5h-41.501v-41.5H246.001z M184.501,246.004h-41.5v-41.5h41.5V246.004z M123.001,246.004
			h-41.5v-41.5h41.5V246.004z M123.001,266.004v41.5h-41.5v-41.5H123.001z M143.001,266.004h41.5v41.5h-41.5V266.004z
			 M204.501,266.004h41.501v41.5h-41.501V266.004z M246.001,327.504v41.5h-41.501v-41.5H246.001z M266.001,327.504h41.5v41.5h-41.5
			V327.504z M266.001,307.504v-41.5h41.5v41.5H266.001z M327.501,266.004h41.5v41.5h-41.5V266.004z M389.001,266.004h41.5v41.5
			h-41.5V266.004z M430.501,184.504h-41.5v-41.5h41.5V184.504z M369.001,184.504h-41.5v-41.5h41.5V184.504z M327.501,123.004v-41.5
			h41.5v41.5H327.501z M307.501,123.004h-41.5v-41.5h41.5V123.004z M246.001,123.004h-41.501v-41.5h41.501V123.004z
			 M184.501,123.004h-41.5v-41.5h41.5V123.004z M184.501,143.004v41.5h-41.5v-41.5H184.501z M123.001,184.504h-41.5v-41.5h41.5
			V184.504z M81.501,327.504h41.5v41.5h-41.5V327.504z M143.001,327.504h41.5v41.5h-41.5V327.504z M184.501,389.004v41.5h-41.5
			v-41.5H184.501z M204.501,389.004h41.501v41.5h-41.501V389.004z M266.001,389.004h41.5v41.5h-41.5V389.004z M327.501,389.004h41.5
			v41.5h-41.5V389.004z M327.501,369.004v-41.5h41.5v41.5H327.501z M389.001,327.504h41.5v41.5h-41.5V327.504z M430.501,123.004
			h-41.5v-41.5h41.5V123.004z M123.001,81.504v41.5h-41.5v-41.5H123.001z M81.501,389.004h41.5v41.5h-41.5V389.004z
			 M389.001,430.504v-41.5h41.5v41.5H389.001z"/>
		<path d="M502.008,430.504h-0.007c-5.523,0-9.996,4.478-9.996,10c0,5.523,4.481,10,10.003,10c5.523,0,10-4.477,10-10
			C512.008,434.982,507.531,430.504,502.008,430.504z"/>
		<path d="M71.501,20.011c5.523,0,10-4.478,10-10v-0.008c0-5.522-4.477-9.996-10-9.996c-5.523,0-10,4.481-10,10.004
			C61.5,15.533,65.978,20.011,71.501,20.011z"/>
	</g>
</g>
<g>
</g>
<g>
</g>
<g>
</g>
<g>
</g>
<g>
</g>
<g>
</g>
<g>
</g>
<g>
</g>
<g>
</g>
<g>
</g>
<g>
</g>
<g>
</g>
<g>
</g>
<g>
</g>
<g>
</g>
</svg>
