<?xml version="1.0" encoding="iso-8859-1"?>
<!-- Generator: Adobe Illustrator 21.0.0, SVG Export Plug-In . SVG Version: 6.00 Build 0)  -->
<svg version="1.1" id="Capa_1" xmlns="http://www.w3.org/2000/svg" xmlns:xlink="http://www.w3.org/1999/xlink" x="0px" y="0px"
	 viewBox="0 0 512.001 512.001" style="enable-background:new 0 0 512.001 512.001;" xml:space="preserve">
<g>
	<g>
		<path style="fill-rule:evenodd;clip-rule:evenodd;fill:#CDD3E0;" d="M10,76.003h492.002V57.177
			c0-11.647-9.529-21.177-21.176-21.177H31.176C19.529,36.001,10,45.53,10,57.177V76.003z"/>
		<rect x="10" y="76.003" style="fill-rule:evenodd;clip-rule:evenodd;fill:#99EBFB;" width="492.002" height="279.996"/>
		<path style="fill-rule:evenodd;clip-rule:evenodd;fill:#CDD3E0;" d="M502.002,355.999H10v18.826
			c0,11.647,9.529,21.176,21.176,21.176H216h80.001h184.824c11.647,0,21.176-9.529,21.176-21.176V355.999z"/>
		<polygon style="fill-rule:evenodd;clip-rule:evenodd;fill:#8690AF;" points="296.001,396.001 216,396.001 206,476.001 
			306.001,476.001 		"/>
		<path style="fill-rule:evenodd;clip-rule:evenodd;fill:#8481E2;" d="M163.69,261.86l-45.86-45.859l45.86-45.859
			c7.81-7.81,7.81-20.472,0-28.281c-7.809-7.809-20.472-7.809-28.281,0l-60,60c-7.809,7.81-7.809,20.472,0,28.281l60,60
			c7.809,7.809,20.472,7.809,28.281,0C171.5,282.332,171.5,269.669,163.69,261.86z"/>
		<path style="fill-rule:evenodd;clip-rule:evenodd;fill:#8481E2;" d="M261.284,148.657l-47.599,120
			c-4.056,10.226,0.946,21.803,11.172,25.859c10.226,4.056,21.803-0.946,25.859-11.172l47.598-120
			c4.056-10.226-0.946-21.803-11.172-25.859C276.918,133.429,265.34,138.431,261.284,148.657z"/>
		<path style="fill-rule:evenodd;clip-rule:evenodd;fill:#8481E2;" d="M394.171,216.001l-45.86,45.859
			c-7.809,7.81-7.809,20.472,0,28.281c7.809,7.809,20.472,7.809,28.281,0l60-60c7.81-7.809,7.81-20.472,0-28.281l-60-60
			c-7.81-7.809-20.472-7.809-28.281,0c-7.809,7.809-7.809,20.472,0,28.281L394.171,216.001z"/>
	</g>
	<g>
		<path d="M480.825,26.001H141.177c-5.523,0-10,4.478-10,10c0,5.523,4.477,10,10,10h339.648c6.163,0,11.176,5.014,11.176,11.177
			v8.825H20v-8.825c0-6.163,5.014-11.177,11.176-11.177h20.001c5.523,0,10-4.477,10-10c0-5.522-4.477-10-10-10H31.176
			C13.985,26.001,0,39.986,0,57.178v317.647c0,17.19,13.985,31.176,31.176,31.176h173.496l-7.5,60h-31.173c-5.523,0-10,4.478-10,10
			c0,5.523,4.477,10,10,10h180.004c5.523,0,10-4.477,10-10c0-5.522-4.477-10-10-10h-31.174l-7.5-60h173.496
			c17.191,0,31.176-13.985,31.176-31.176V57.178C512.001,39.986,498.016,26.001,480.825,26.001z M294.673,466.001h-77.346l7.5-60
			h62.345L294.673,466.001z M480.825,386.001H31.176c-6.163,0-11.176-5.014-11.176-11.176v-8.826h352c5.523,0,10-4.478,10-10
			s-4.477-10-10-10H20V86.003h472.001v259.996H462c-5.523,0-10,4.478-10,10s4.477,10,10,10h30.001v8.826
			C492.001,380.987,486.988,386.001,480.825,386.001z"/>
		<path d="M96.18,46.001c5.523,0,10-4.477,10-10c0-5.522-4.477-10-10-10h-0.007c-5.523,0-9.996,4.478-9.996,10
			C86.177,41.523,90.657,46.001,96.18,46.001z"/>
		<path d="M290.831,128.189c-7.429-2.945-15.56-2.823-22.897,0.347c-7.336,3.169-12.999,9.006-15.945,16.435v-0.001L204.39,264.971
			c-2.946,7.429-2.824,15.559,0.346,22.895c3.169,7.337,9.006,13,16.434,15.946c3.572,1.416,7.306,2.123,11.037,2.123
			c4.028,0,8.051-0.824,11.859-2.47c7.336-3.169,12.999-9.006,15.945-16.434l47.599-120.001c2.946-7.428,2.824-15.559-0.346-22.895
			C304.096,136.799,298.259,131.136,290.831,128.189z M289.02,159.657l-47.599,120.001c-0.977,2.462-2.854,4.397-5.286,5.448
			c-2.433,1.05-5.128,1.092-7.591,0.114c-2.462-0.977-4.397-2.854-5.448-5.286c-1.051-2.433-1.092-5.128-0.115-7.59l47.599-120
			c0-0.001,0-0.001,0-0.001c1.543-3.888,5.283-6.262,9.232-6.262c1.215,0,2.449,0.225,3.645,0.699
			c2.463,0.977,4.397,2.854,5.448,5.286C289.956,154.5,289.997,157.195,289.02,159.657z"/>
		<path d="M179.547,156.001c0-8.013-3.121-15.546-8.786-21.212c-5.666-5.666-13.199-8.786-21.212-8.786
			c-8.013,0-15.546,3.12-21.211,8.786l-60,60c-5.666,5.666-8.786,13.199-8.786,21.212c0,8.013,3.121,15.546,8.786,21.212l60,60
			c5.665,5.666,13.199,8.786,21.211,8.786c8.013,0,15.546-3.12,21.212-8.786c5.665-5.666,8.786-13.199,8.786-21.212
			c0-8.013-3.121-15.546-8.786-21.212l-38.789-38.788l38.789-38.788C176.427,171.547,179.547,164.013,179.547,156.001z
			 M156.619,163.07l-45.859,45.859c-3.905,3.905-3.905,10.237,0,14.143l45.859,45.859c1.889,1.888,2.928,4.398,2.928,7.069
			s-1.04,5.182-2.928,7.069c-1.888,1.889-4.399,2.929-7.069,2.929c-2.67,0-5.181-1.04-7.069-2.929l-60-60
			c-1.889-1.888-2.928-4.398-2.928-7.069c0-2.671,1.039-5.182,2.928-7.069l60-60c1.888-1.889,4.398-2.929,7.069-2.929
			c2.671,0,5.181,1.04,7.069,2.929c1.889,1.888,2.928,4.398,2.928,7.069C159.547,158.672,158.507,161.182,156.619,163.07z"/>
		<path d="M443.664,194.789l-60-60c-11.696-11.695-30.727-11.695-42.424,0c-5.666,5.666-8.786,13.199-8.786,21.212
			c0,8.013,3.121,15.546,8.786,21.212l38.789,38.788l-38.789,38.788c-5.666,5.666-8.786,13.199-8.786,21.212
			c0,8.013,3.121,15.546,8.786,21.212c5.848,5.848,13.53,8.771,21.212,8.771c7.682,0,15.364-2.924,21.212-8.771l60.001-60
			C455.359,225.516,455.359,206.485,443.664,194.789z M429.522,223.07l-60.001,60c-1.888,1.889-4.399,2.929-7.069,2.929
			s-5.181-1.04-7.069-2.929c-1.889-1.888-2.928-4.398-2.928-7.069s1.04-5.182,2.928-7.069l45.86-45.859
			c1.875-1.876,2.929-4.419,2.929-7.071c0-2.652-1.054-5.195-2.929-7.071l-45.86-45.859c-1.889-1.888-2.928-4.398-2.928-7.069
			c0-2.671,1.04-5.182,2.928-7.069c1.888-1.889,4.399-2.929,7.069-2.929s5.181,1.04,7.069,2.929l60,60
			C433.419,212.829,433.419,219.173,429.522,223.07z"/>
		<path d="M417.003,345.999h-0.007c-5.523,0-9.996,4.478-9.996,10s4.48,10,10.003,10c5.523,0,10-4.478,10-10
			S422.526,345.999,417.003,345.999z"/>
	</g>
</g>
<g>
</g>
<g>
</g>
<g>
</g>
<g>
</g>
<g>
</g>
<g>
</g>
<g>
</g>
<g>
</g>
<g>
</g>
<g>
</g>
<g>
</g>
<g>
</g>
<g>
</g>
<g>
</g>
<g>
</g>
</svg>
