<?xml version="1.0" encoding="iso-8859-1"?>
<!-- Generator: Adobe Illustrator 21.0.0, SVG Export Plug-In . SVG Version: 6.00 Build 0)  -->
<svg version="1.1" id="Capa_1" xmlns="http://www.w3.org/2000/svg" xmlns:xlink="http://www.w3.org/1999/xlink" x="0px" y="0px"
	 viewBox="0 0 512.002 512.002" style="enable-background:new 0 0 512.002 512.002;" xml:space="preserve">
<g>
	<g>
		<path style="fill-rule:evenodd;clip-rule:evenodd;fill:#FBF7F6;" d="M232.08,166.055l-21.113-21.113l99.172-28.662l-28.662,99.172
			l-21.113-21.113l-30.219,30.219l-28.284-28.284L232.08,166.055L232.08,166.055z M95.002,289.994h160.999h160.999c11,0,20-9,20-20
			L437,50H235.002c0,22-18.003,40-40,40h-120l0,179.995C75.002,280.986,84.002,289.994,95.002,289.994z"/>
		<polygon style="fill-rule:evenodd;clip-rule:evenodd;fill:#8481E2;" points="210.968,144.942 232.08,166.055 201.862,196.274 
			230.146,224.558 260.365,194.339 281.478,215.452 310.14,116.28 		"/>
		<path style="fill-rule:evenodd;clip-rule:evenodd;fill:#FFC234;" d="M130,422.001c0-11-9-20-20-20H70H30c-11,0-20,8.999-20,20
			v20.002h120V422.001z"/>
		<path style="fill-rule:evenodd;clip-rule:evenodd;fill:#FBF7F6;" d="M130,442.003H10v39.998c0,11,9,20,20,20h80c11,0,20-9,20-20
			V442.003z"/>
		<path style="fill-rule:evenodd;clip-rule:evenodd;fill:#FFC234;" d="M196.001,422.001l0,20.002h120l0-20.002c0-11-9-20-20-20h-40
			h-40C205.001,402.002,196.001,411.001,196.001,422.001z"/>
		<path style="fill-rule:evenodd;clip-rule:evenodd;fill:#FBF7F6;" d="M316.001,442.003h-120v39.998c0,11,9,20,20,20h80
			c11,0,20-9,20-20L316.001,442.003z"/>
		<path style="fill-rule:evenodd;clip-rule:evenodd;fill:#FFC234;" d="M382.002,422.001v20.002h120v-20.002c0-11-9-20-20-20h-40h-40
			C391.001,402.002,382.002,411.001,382.002,422.001z"/>
		<path style="fill-rule:evenodd;clip-rule:evenodd;fill:#FBF7F6;" d="M502.002,442.003h-120v39.998c0,11,9,20,20,20h80
			c11,0,20-9,20-20V442.003z"/>
		<path style="fill-rule:evenodd;clip-rule:evenodd;fill:#FFC234;" d="M256.001,10h-113H95.002c-10.992,0-20,9.008-20,20l0,60h120
			c21.997,0,40-18,40-40h201.997V30c0-11-9.008-20-20-20h-47.998H256.001z"/>
	</g>
	<g>
		<path d="M155.006,60c5.522,0,10-4.478,10-10c0-5.522-4.478-10-10-10h-0.008c-5.523,0-9.996,4.478-9.996,10
			C145.002,55.522,149.484,60,155.006,60z"/>
		<path d="M195.007,60c5.522,0,10-4.478,10-10c0-5.522-4.478-10-10-10h-0.008c-5.522,0-9.996,4.478-9.996,10
			C185.003,55.522,189.485,60,195.007,60z"/>
		<path d="M114.997,40C109.474,40,105,44.478,105,50c0,5.522,4.481,10,10.004,10c5.522,0,10-4.478,10-10c0-5.522-4.478-10-10-10
			H114.997z"/>
		<path d="M482.001,392.002h-30v-46.004c0-5.522-4.478-10-10-10H422c-5.522,0-10,4.478-10,10c0,5.523,4.478,10,10,10h10.001v36.004
			h-30c-16.542,0-30,13.458-30,30v60c0,16.542,13.458,30,30,30h80c16.542,0,30-13.458,30-30v-60
			C512.001,405.46,498.543,392.002,482.001,392.002z M402.001,412.002h80c5.514,0,10,4.486,10,10v10.002h-100v-10.002
			C392.001,416.488,396.488,412.002,402.001,412.002z M482.001,492.002h-80c-5.514,0-10-4.486-10-10v-29.998h100v29.998
			C492.001,487.516,487.515,492.002,482.001,492.002z"/>
		<path d="M332,335.998h-66l0-36.003h150.999c16.542,0,30-13.458,30-30V30c0-16.542-13.458-30-30-30H200.002
			c-5.523,0-10,4.477-10,10c0,5.522,4.477,10,10,10h216.997c5.514,0,10,4.486,10,10v10H235.002c-5.523,0-10,4.478-10,10
			c0,16.542-13.458,30-30,30h-110V30c0-5.514,4.486-10,10-10h15c5.522,0,10-4.478,10-10c0-5.523-4.478-10-10-10h-15
			c-16.542,0-30,13.458-30,30v239.995c0,16.542,13.458,30,30,30H246l0.001,36.003H70c-5.522,0-10,4.478-10,10v46.004H29.999
			c-16.542,0-29.999,13.458-29.999,30v60c0,16.542,13.457,30,29.999,30H110c16.542,0,30-13.458,30-30v-60c0-16.542-13.458-30-30-30
			H80v-36.004h166l0.001,36.004H216c-16.542,0-29.999,13.458-29.999,30v60c0,16.542,13.457,30,29.999,30h80.001
			c16.542,0,29.999-13.458,29.999-30v-60c0-16.542-13.457-30-29.999-30h-30l-0.001-36.004h66c5.522,0,10-4.477,10-10
			C342,340.476,337.523,335.998,332,335.998z M85.002,269.995V100h110c24.145,0,44.35-17.206,48.995-40h183.002v209.995
			c0,5.514-4.486,10-10,10H95.002C89.489,279.995,85.002,275.509,85.002,269.995z M110,492.002H29.999
			c-5.514,0-9.999-4.486-9.999-10v-29.998h100v29.998C120,487.516,115.514,492.002,110,492.002z M120,422.002v10.002H20v-10.002
			c0-5.514,4.485-10,9.999-10H110C115.514,412.002,120,416.488,120,422.002z M296.001,492.002H216c-5.514,0-9.999-4.486-9.999-10
			v-29.998H306v29.998C306,487.516,301.515,492.002,296.001,492.002z M306,422.002v10.002h-99.999v-10.002
			c0-5.514,4.485-10,9.999-10h80.001C301.515,412.002,306,416.488,306,422.002z"/>
		<path d="M274.407,222.523c2.502,2.502,6.14,3.492,9.565,2.613c3.426-0.883,6.131-3.51,7.112-6.908l28.662-99.172
			c1.012-3.499,0.04-7.271-2.535-9.848c-2.576-2.576-6.348-3.548-9.848-2.535l-99.173,28.662c-3.398,0.981-6.025,3.686-6.908,7.113
			c-0.882,3.426,0.112,7.063,2.613,9.564l14.042,14.042l-23.147,23.147c-3.905,3.905-3.905,10.237,0,14.143l28.284,28.284
			c1.953,1.952,4.512,2.929,7.071,2.929c2.56,0,5.118-0.977,7.071-2.929l23.147-23.148L274.407,222.523z M230.146,210.416
			l-14.142-14.142l23.148-23.147c3.905-3.905,3.905-10.237,0-14.143l-9.138-9.138l65.485-18.926l-18.926,65.485l-9.138-9.138
			c-3.906-3.904-10.236-3.904-14.143,0L230.146,210.416z"/>
		<path d="M155.006,20c5.522,0,10-4.478,10-10c0-5.523-4.478-10-10-10h-0.008c-5.523,0-9.996,4.477-9.996,10
			C145.002,15.522,149.484,20,155.006,20z"/>
		<path d="M387.004,345.998c0-5.522-4.478-10-10-10h-0.008c-5.522,0-9.996,4.478-9.996,10c0,5.523,4.482,10,10.004,10
			C382.527,355.998,387.004,351.521,387.004,345.998z"/>
	</g>
</g>
<g>
</g>
<g>
</g>
<g>
</g>
<g>
</g>
<g>
</g>
<g>
</g>
<g>
</g>
<g>
</g>
<g>
</g>
<g>
</g>
<g>
</g>
<g>
</g>
<g>
</g>
<g>
</g>
<g>
</g>
</svg>
