<?xml version="1.0" encoding="iso-8859-1"?>
<!-- Generator: Adobe Illustrator 21.0.0, SVG Export Plug-In . SVG Version: 6.00 Build 0)  -->
<svg version="1.1" id="Capa_1" xmlns="http://www.w3.org/2000/svg" xmlns:xlink="http://www.w3.org/1999/xlink" x="0px" y="0px"
	 viewBox="0 0 512.001 512.001" style="enable-background:new 0 0 512.001 512.001;" xml:space="preserve">
<g>
	<g>
		<path style="fill-rule:evenodd;clip-rule:evenodd;fill:#CDD3E0;" d="M87.141,84.573h85.714c4.715,0,8.571-3.857,8.571-8.571
			h68.571V53.143c0-9.429-7.714-17.143-17.143-17.143H27.142c-9.429,0-17.143,7.714-17.143,17.143v22.859H78.57
			C78.57,80.716,82.427,84.573,87.141,84.573z"/>
		<path style="fill-rule:evenodd;clip-rule:evenodd;fill:#99EBFB;" d="M172.855,84.573H87.141c-4.715,0-8.571-3.857-8.571-8.571
			H9.999v341.709h70.289V253.145c0-9.429,7.714-17.143,17.143-17.143h22.857h129.709V76.002h-68.571
			C181.426,80.716,177.57,84.573,172.855,84.573z"/>
		<path style="fill-rule:evenodd;clip-rule:evenodd;fill:#CDD3E0;" d="M80.288,417.711H9.999v22.859
			c0,9.429,7.714,17.143,17.143,17.143h53.147V417.711z"/>
		<path style="fill-rule:evenodd;clip-rule:evenodd;fill:#CDD3E0;" d="M80.288,253.145v164.566v40.001v1.145
			c0,9.429,7.714,17.143,17.143,17.143h22.857V236.003H97.431C88.002,236.003,80.288,243.716,80.288,253.145z"/>
		<path style="fill-rule:evenodd;clip-rule:evenodd;fill:#99EBFB;" d="M120.288,236.003v239.998h341.711V407.43
			c-4.714,0-8.571-3.857-8.571-8.571v-85.714c0-4.715,3.857-8.571,8.571-8.571v-68.571H249.997H120.288z"/>
		<path style="fill-rule:evenodd;clip-rule:evenodd;fill:#CDD3E0;" d="M453.428,313.145v85.714c0,4.715,3.857,8.571,8.571,8.571
			v68.571h22.859c9.429,0,17.143-7.714,17.143-17.143V253.145c0-9.429-7.714-17.143-17.143-17.143h-22.859v68.571
			C457.285,304.573,453.428,308.43,453.428,313.145z"/>
	</g>
	<g>
		<path d="M484.858,226.003h-224.86V53.143c0-14.967-12.176-27.143-27.143-27.143H27.143C12.176,26,0,38.176,0,53.143v22.858
			c0,5.522,4.478,10,10,10h61.498c3.305,5.151,9.082,8.572,15.644,8.572h85.714c6.562,0,12.339-3.421,15.643-8.572h51.499v140.001
			H97.432c-14.967,0-27.143,12.176-27.143,27.143v154.566H20v-241.71c0-5.522-4.477-10-10-10c-5.522,0-10,4.478-10,10V440.57
			c0,14.967,12.176,27.143,27.143,27.143H71.78C75.46,478.343,85.565,486,97.432,486h387.427c14.967,0,27.143-12.176,27.143-27.142
			V253.145C512.001,238.178,499.825,226.003,484.858,226.003z M181.427,66.002c-5.038,0-9.206,3.726-9.898,8.572h-83.06
			c-0.692-4.847-4.86-8.572-9.899-8.572H20V53.143C20,49.205,23.204,46,27.143,46h205.713c3.939,0,7.143,3.204,7.143,7.143v12.858
			H181.427z M452,414.501V466H130.288V246.003H452v51.499c-5.151,3.305-8.571,9.081-8.571,15.643v85.714
			C443.429,405.419,446.849,411.197,452,414.501z M20,440.57v-12.858h50.289v20.001H27.143C23.204,447.712,20,444.508,20,440.57z
			 M90.289,458.858V253.145c0-3.938,3.204-7.143,7.143-7.143h12.856V466H97.432C93.493,466,90.289,462.796,90.289,458.858z
			 M492.001,458.858c0,3.938-3.204,7.142-7.143,7.142H472v-58.571c0-5.038-3.725-9.205-8.571-9.898v-83.059
			c4.847-0.693,8.571-4.86,8.571-9.898v-58.571h12.858c3.939,0,7.143,3.204,7.143,7.143V458.858z"/>
		<path d="M322.929,103.073c1.953,1.952,4.512,2.929,7.071,2.929c2.56,0,5.118-0.977,7.071-2.929c3.905-3.905,3.905-10.237,0-14.143
			l-2.929-2.929h55.857c5.514,0,10,4.486,10,10v55.857l-2.929-2.929c-3.906-3.904-10.236-3.904-14.143,0
			c-3.905,3.905-3.905,10.237,0,14.142l20,20c1.953,1.952,4.512,2.929,7.071,2.929c2.56,0,5.118-0.977,7.071-2.929l20-20
			c3.905-3.905,3.905-10.237,0-14.142c-3.906-3.904-10.236-3.904-14.143,0l-2.929,2.929V96.002c0-16.542-13.458-30-30-30h-55.857
			l2.929-2.929c3.905-3.905,3.905-10.237,0-14.143c-3.906-3.904-10.236-3.904-14.143,0l-20,20c-3.905,3.905-3.905,10.237,0,14.143
			L322.929,103.073z"/>
		<path d="M411.998,426h-54.996c-5.523,0-10,4.478-10,10c0,5.522,4.477,10,10,10h54.996c5.522,0,10-4.478,10-10
			C421.998,430.477,417.521,426,411.998,426z"/>
		<path d="M312.006,426h-0.008c-5.523,0-9.996,4.478-9.996,10c0,5.522,4.481,10,10.004,10c5.522,0,10-4.478,10-10
			C322.006,430.477,317.528,426,312.006,426z"/>
		<path d="M10,131.005c5.523,0,10-4.478,10-10v-0.008c0-5.522-4.477-9.996-10-9.996c-5.522,0-10,4.481-10,10.004
			C0,126.528,4.478,131.005,10,131.005z"/>
	</g>
</g>
<g>
</g>
<g>
</g>
<g>
</g>
<g>
</g>
<g>
</g>
<g>
</g>
<g>
</g>
<g>
</g>
<g>
</g>
<g>
</g>
<g>
</g>
<g>
</g>
<g>
</g>
<g>
</g>
<g>
</g>
</svg>
