<?xml version="1.0" encoding="iso-8859-1"?>
<!-- Generator: Adobe Illustrator 21.0.0, SVG Export Plug-In . SVG Version: 6.00 Build 0)  -->
<svg version="1.1" id="Capa_1" xmlns="http://www.w3.org/2000/svg" xmlns:xlink="http://www.w3.org/1999/xlink" x="0px" y="0px"
	 viewBox="0 0 512.002 512.002" style="enable-background:new 0 0 512.002 512.002;" xml:space="preserve">
<g>
	<g>
		<path style="fill-rule:evenodd;clip-rule:evenodd;fill:#8481E2;" d="M50,256.001C50,142.23,142.23,50,256.001,50
			s206.001,92.23,206.001,206.001s-92.23,206.001-206.001,206.001S50,369.772,50,256.001L50,256.001z M502.002,256.001
			C502.002,120.138,391.863,10,256.001,10S10,120.138,10,256.001s110.138,246.001,246.001,246.001S502.002,391.863,502.002,256.001z
			"/>
		<path style="fill-rule:evenodd;clip-rule:evenodd;fill:#45E08C;" d="M256.001,50C142.23,50,50,142.23,50,256.001
			s92.23,206.001,206.001,206.001s206.001-92.23,206.001-206.001S369.772,50,256.001,50L256.001,50z M147.037,367.654
			l29.013-149.179l120.166,120.166L147.037,367.654L147.037,367.654z M215.786,173.36l149.179-29.013l-29.013,149.179
			L215.786,173.36z"/>
		<polygon style="fill-rule:evenodd;clip-rule:evenodd;fill:#8481E2;" points="364.965,144.347 215.786,173.36 335.952,293.526 		
			"/>
		<polygon style="fill-rule:evenodd;clip-rule:evenodd;fill:#8481E2;" points="296.216,338.642 176.05,218.476 147.037,367.654 		
			"/>
	</g>
	<g>
		<path d="M437.021,74.981C388.668,26.629,324.381,0,256.001,0C203.97,0,153.875,15.534,111.133,44.924
			c-4.551,3.129-5.703,9.355-2.574,13.906c3.13,4.552,9.355,5.701,13.906,2.574C161.858,34.317,208.034,20,256.001,20
			c130.131,0,236.001,105.87,236.001,236.001s-105.87,236.001-236.001,236.001S20,386.132,20,256.001
			c0-47.972,14.316-94.145,41.4-133.53c3.129-4.551,1.978-10.776-2.573-13.906c-4.55-3.127-10.776-1.978-13.906,2.574
			C15.533,153.872,0,203.965,0,256.001c0,68.38,26.628,132.668,74.981,181.02c48.352,48.353,112.64,74.981,181.02,74.981
			s132.667-26.629,181.02-74.981c48.352-48.352,74.981-112.64,74.981-181.02C512.002,187.621,485.373,123.333,437.021,74.981z"/>
		<path d="M424.615,374.783c4.659,2.963,10.841,1.586,13.803-3.075c21.971-34.569,33.583-74.58,33.583-115.707
			c0-57.696-22.468-111.938-63.265-152.736C367.939,62.468,313.697,40,256.001,40s-111.939,22.468-152.736,63.265
			C62.468,144.063,40,198.305,40,256.001c0,57.695,22.468,111.939,63.265,152.735c40.797,40.798,95.04,63.266,152.736,63.266
			c41.13,0,81.139-11.611,115.701-33.58c4.661-2.963,6.038-9.142,3.075-13.804c-2.962-4.661-9.143-6.038-13.804-3.075
			c-31.35,19.927-67.649,30.459-104.973,30.459C147.926,452.002,60,364.076,60,256.001S147.926,60,256.001,60
			s196,87.926,196,196.001c0,37.321-10.534,73.622-30.463,104.979C418.576,365.641,419.954,371.821,424.615,374.783z"/>
		<path d="M335.953,303.525c0.976,0,1.961-0.143,2.922-0.437c3.536-1.081,6.187-4.024,6.893-7.654l29.013-149.178
			c0.635-3.264-0.394-6.629-2.745-8.98c-2.351-2.35-5.713-3.378-8.98-2.745l-149.179,29.013c-3.629,0.706-6.573,3.357-7.654,6.894
			c-1.081,3.535-0.122,7.38,2.492,9.994L328.88,300.597C330.784,302.5,333.339,303.525,335.953,303.525z M352.318,156.995
			l-22.592,116.162l-93.571-93.57L352.318,156.995z"/>
		<path d="M173.126,208.912c-3.536,1.081-6.187,4.024-6.893,7.654l-29.013,149.179c-0.635,3.264,0.394,6.629,2.745,8.98
			c1.893,1.893,4.445,2.929,7.071,2.929c0.634,0,1.274-0.061,1.909-0.184l149.179-29.013c3.629-0.706,6.573-3.357,7.654-6.894
			c1.081-3.535,0.122-7.38-2.492-9.994L183.121,211.404C180.506,208.79,176.663,207.832,173.126,208.912z M159.684,355.007
			l22.592-116.163l93.572,93.571L159.684,355.007z"/>
		<path d="M75.647,89.737c1.869,1.557,4.138,2.316,6.395,2.316c2.867,0,5.714-1.227,7.692-3.601
			c3.536-4.242,2.962-10.548-1.28-14.084c-4.243-3.534-10.549-2.961-14.084,1.281l-0.005,0.006
			C70.829,79.898,71.405,86.201,75.647,89.737z"/>
		<path d="M394.294,394.908l-0.005,0.006c-3.732,4.071-3.454,10.394,0.617,14.125c1.919,1.76,4.339,2.628,6.753,2.628
			c2.707,0,5.406-1.093,7.378-3.245c3.732-4.071,3.457-10.396-0.614-14.128C404.351,390.562,398.026,390.838,394.294,394.908z"/>
	</g>
</g>
<g>
</g>
<g>
</g>
<g>
</g>
<g>
</g>
<g>
</g>
<g>
</g>
<g>
</g>
<g>
</g>
<g>
</g>
<g>
</g>
<g>
</g>
<g>
</g>
<g>
</g>
<g>
</g>
<g>
</g>
</svg>
