<?xml version="1.0" encoding="iso-8859-1"?>
<!-- Generator: Adobe Illustrator 21.0.0, SVG Export Plug-In . SVG Version: 6.00 Build 0)  -->
<svg version="1.1" id="Capa_1" xmlns="http://www.w3.org/2000/svg" xmlns:xlink="http://www.w3.org/1999/xlink" x="0px" y="0px"
	 viewBox="0 0 512.002 512.002" style="enable-background:new 0 0 512.002 512.002;" xml:space="preserve">
<g>
	<g>
		<path style="fill-rule:evenodd;clip-rule:evenodd;fill:#CDD3E0;" d="M213.143,58.572h85.715c4.715,0,8.571-3.857,8.571-8.571
			h68.572V30c0-11-9-20-20-20H156c-11,0-20,9-20,20v20.001h68.571C204.572,54.716,208.429,58.572,213.143,58.572z"/>
		<path style="fill-rule:evenodd;clip-rule:evenodd;fill:#99EBFB;" d="M298.858,58.572h-85.715c-4.715,0-8.571-3.857-8.571-8.571
			h-68.571v311.998h240V50.001h-68.572C307.429,54.716,303.573,58.572,298.858,58.572L298.858,58.572z M226.001,211h75v60h-90v-60
			H226.001z"/>
		<polygon style="fill-rule:evenodd;clip-rule:evenodd;fill:#45E08C;" points="301.001,211 226.001,211 211.001,211 211.001,271 
			301.001,271 		"/>
		<path style="fill-rule:evenodd;clip-rule:evenodd;fill:#CDD3E0;" d="M376.001,361.999h-240v20.001c0,11,9,20,20,20h100.001h100
			c11,0,20-9,20-20V361.999z"/>
		<rect x="56.001" y="462.001" style="fill-rule:evenodd;clip-rule:evenodd;fill:#8481E2;" width="40" height="40"/>
		<polygon style="fill-rule:evenodd;clip-rule:evenodd;fill:#8481E2;" points="236.001,462.001 236.001,502.001 276.001,502.001 
			276.001,462.001 256.001,462.001 		"/>
		<rect x="416" y="462.001" style="fill-rule:evenodd;clip-rule:evenodd;fill:#8481E2;" width="40" height="40"/>
	</g>
	<g>
		<path d="M456,452.002h-40c-5.522,0-10,4.478-10,10v10H286.001v-10c0-5.522-4.478-10-10-10H266V412h90.001
			C372.543,412,386,398.542,386,382V30c0-16.542-13.457-30-29.999-30H246c-5.522,0-10,4.477-10,10c0,5.522,4.478,10,10,10h110.001
			c5.514,0,9.999,4.486,9.999,10v10.001h-58.571c-5.038,0-9.206,3.726-9.898,8.572H214.47c-0.692-4.847-4.86-8.572-9.898-8.572H146
			V30c0-5.514,4.486-10,10-10c5.523,0,10-4.478,10-10c0-5.523-4.477-10-10-10c-16.542,0-30,13.458-30,30v352
			c0,16.542,13.458,30,30,30h90v40.002h-10c-5.522,0-10,4.478-10,10v10H106.001v-10c0-5.522-4.478-10-10-10h-40
			c-5.522,0-10,4.478-10,10v40c0,5.523,4.478,10,10,10h40c5.522,0,10-4.477,10-10v-10H226v10c0,5.523,4.478,10,10,10h40.001
			c5.522,0,10-4.477,10-10v-10H406v10c0,5.523,4.478,10,10,10h40c5.522,0,10-4.477,10-10v-40
			C466,456.479,461.523,452.002,456,452.002z M146,382v-10.001h120c5.522,0,10-4.477,10-10c0-5.522-4.478-10-10-10H146V60.001
			h51.499c3.305,5.151,9.082,8.572,15.644,8.572h85.715c6.562,0,12.339-3.421,15.644-8.572H366v291.998h-10c-5.522,0-10,4.478-10,10
			c0,5.523,4.478,10,10,10h10V382c0,5.514-4.485,10-9.999,10H156C150.487,392,146,387.514,146,382z M86.001,492.002h-20v-20h20
			V492.002z M266.001,492.002H246v-20h20.001V492.002z M446,492.002h-20v-20h20V492.002z"/>
		<path d="M311,271v-60c0-5.523-4.478-10-10-10h-65v-30.001c0-11.027,8.972-19.999,20-19.999c11.028,0,20,8.972,20,19.999
			c0,5.523,4.478,10,10,10c5.522,0,10-4.477,10-10C296,148.943,278.056,131,256,131c-22.056,0-40,17.943-40,39.999V201h-5
			c-5.522,0-10,4.477-10,10v60c0,5.522,4.478,10,10,10h90C306.523,281,311,276.522,311,271z M291,261h-70v-40h70V261z"/>
		<path d="M201.003,20c5.522,0,10-4.478,10-10c0-5.523-4.478-10-10-10h-0.007C195.474,0,191,4.477,191,10
			C191,15.522,195.481,20,201.003,20z"/>
		<path d="M301,361.999c0,5.523,4.48,10,10.003,10c5.522,0,10-4.477,10-10c0-5.522-4.478-10-10-10h-0.007
			C305.474,351.999,301,356.477,301,361.999z"/>
	</g>
</g>
<g>
</g>
<g>
</g>
<g>
</g>
<g>
</g>
<g>
</g>
<g>
</g>
<g>
</g>
<g>
</g>
<g>
</g>
<g>
</g>
<g>
</g>
<g>
</g>
<g>
</g>
<g>
</g>
<g>
</g>
</svg>
