<?xml version="1.0" encoding="iso-8859-1"?>
<!-- Generator: Adobe Illustrator 21.0.0, SVG Export Plug-In . SVG Version: 6.00 Build 0)  -->
<svg version="1.1" id="Capa_1" xmlns="http://www.w3.org/2000/svg" xmlns:xlink="http://www.w3.org/1999/xlink" x="0px" y="0px"
	 viewBox="0 0 512.002 512.002" style="enable-background:new 0 0 512.002 512.002;" xml:space="preserve">
<g>
	<g>
		<rect x="30" y="30" style="fill-rule:evenodd;clip-rule:evenodd;fill:#FBF7F6;" width="452.002" height="452.002"/>
		<rect x="10" y="10" style="fill-rule:evenodd;clip-rule:evenodd;fill:#8481E2;" width="40" height="40"/>
		<rect x="462.002" y="10" style="fill-rule:evenodd;clip-rule:evenodd;fill:#8481E2;" width="40" height="40"/>
		<path style="fill-rule:evenodd;clip-rule:evenodd;fill:#8481E2;" d="M252,136c0-11.046-8.954-20-20-20h-95.999
			c-3.707,0-7.178,1.01-10.155,2.768l-0.012,0.007l-0.412,0.251l-0.009,0.005l-0.411,0.264l-0.006,0.004
			c-2.261,1.494-4.202,3.433-5.695,5.695l-0.004,0.006l-0.264,0.411l-0.005,0.009l-0.251,0.412l-0.007,0.012
			c-1.758,2.977-2.768,6.448-2.768,10.155v95.998c0,11.046,8.954,20,20,20c11.046,0,20-8.954,20-20v-47.717L327.719,356h-47.717
			c-11.046,0-20,8.954-20,20s8.954,20,20,20h95.999c3.178,0,6.182-0.741,8.85-2.061l0.03-0.015l0.395-0.202l0.06-0.031l0.352-0.19
			l0.102-0.057l0.317-0.182l0.119-0.07l0.299-0.182l0.116-0.073l0.303-0.194l0.112-0.074l0.301-0.204l0.103-0.071l0.328-0.235
			l0.06-0.044l0.342-0.258l0.057-0.044c1.334-1.035,2.534-2.234,3.569-3.569l0.044-0.057l0.258-0.342l0.044-0.06l0.235-0.328
			l0.071-0.103l0.204-0.301l0.074-0.112l0.194-0.303l0.073-0.116l0.182-0.299l0.071-0.119l0.182-0.317l0.057-0.102l0.191-0.352
			l0.031-0.06l0.202-0.395l0.015-0.03c1.319-2.668,2.061-5.672,2.061-8.85v-95.998c0-11.046-8.954-20-20-20
			c-11.046,0-20,8.954-20,20v47.716L184.282,156H232C243.046,156,252,147.046,252,136z"/>
		<rect x="10" y="462.002" style="fill-rule:evenodd;clip-rule:evenodd;fill:#8481E2;" width="40" height="40"/>
		<rect x="462.002" y="462.002" style="fill-rule:evenodd;clip-rule:evenodd;fill:#8481E2;" width="40" height="40"/>
	</g>
	<g>
		<path d="M50,0H10C4.478,0,0,4.478,0,10v39.999c0,5.522,4.478,10,10,10h40c5.522,0,10-4.478,10-10V10C60,4.478,55.522,0,50,0z
			 M40,39.999H20V20h20V39.999z"/>
		<path d="M502.002,0h-40c-5.523,0-10,4.477-10,10v39.999c0,5.522,4.477,10,10,10h40c5.522,0,10-4.478,10-10V10
			C512.002,4.478,507.525,0,502.002,0z M492.002,39.999h-20V20h20V39.999z"/>
		<path d="M50,452.002H10c-5.522,0-10,4.478-10,10v40c0,5.522,4.478,10,10,10h40c5.522,0,10-4.478,10-10v-40
			C60,456.48,55.522,452.002,50,452.002z M40,492.002H20v-20h20V492.002z"/>
		<path d="M502.002,452.002h-40c-5.523,0-10,4.478-10,10v40c0,5.522,4.477,10,10,10h40c5.522,0,10-4.478,10-10v-40
			C512.002,456.48,507.525,452.002,502.002,452.002z M492.002,492.002h-20v-20h20V492.002z"/>
		<path d="M96.002,40h20c5.522,0,10-4.478,10-10c0-5.522-4.478-10-10-10h-20c-5.522,0-10,4.478-10,10
			C86.002,35.522,90.479,40,96.002,40z"/>
		<path d="M156.001,40h20.001c5.523,0,10-4.478,10-10c0-5.522-4.477-10-10-10h-20.001c-5.522,0-10,4.478-10,10
			C146.001,35.522,150.479,40,156.001,40z"/>
		<path d="M216.001,40h20c5.522,0,10-4.478,10-10c0-5.522-4.478-10-10-10h-20c-5.522,0-10,4.478-10,10
			C206.001,35.522,210.479,40,216.001,40z"/>
		<path d="M276.001,40h20c5.522,0,10-4.478,10-10c0-5.522-4.478-10-10-10h-20c-5.522,0-10,4.478-10,10
			C266.001,35.522,270.479,40,276.001,40z"/>
		<path d="M336.001,40h20c5.522,0,10-4.478,10-10c0-5.522-4.478-10-10-10h-20c-5.522,0-10,4.478-10,10
			C326.001,35.522,330.479,40,336.001,40z"/>
		<path d="M416.001,20h-20c-5.522,0-10,4.478-10,10c0,5.522,4.478,10,10,10h20c5.522,0,10-4.478,10-10
			C426.001,24.478,421.523,20,416.001,20z"/>
		<path d="M20,416c0,5.522,4.478,10,10,10c5.522,0,10-4.478,10-10v-20c0-5.523-4.478-10-10-10c-5.522,0-10,4.477-10,10V416z"/>
		<path d="M20,356.001c0,5.522,4.478,10,10,10c5.522,0,10-4.478,10-10V336c0-5.523-4.478-10-10-10c-5.522,0-10,4.477-10,10V356.001z
			"/>
		<path d="M20,296.001c0,5.522,4.478,10,10,10c5.522,0,10-4.478,10-10v-20c0-5.522-4.478-10-10-10c-5.522,0-10,4.478-10,10V296.001z
			"/>
		<path d="M20,236.001c0,5.523,4.478,10,10,10c5.522,0,10-4.477,10-10v-20c0-5.522-4.478-10-10-10c-5.522,0-10,4.478-10,10V236.001z
			"/>
		<path d="M20,176.001c0,5.523,4.478,10,10,10c5.522,0,10-4.477,10-10v-20c0-5.522-4.478-10-10-10c-5.522,0-10,4.478-10,10V176.001z
			"/>
		<path d="M30,126.001c5.522,0,10-4.478,10-10v-20c0-5.522-4.478-10-10-10c-5.522,0-10,4.478-10,10v20
			C20,121.523,24.478,126.001,30,126.001z"/>
		<path d="M416.001,472.002h-20c-5.522,0-10,4.478-10,10c0,5.522,4.478,10,10,10h20c5.522,0,10-4.478,10-10
			C426.001,476.48,421.523,472.002,416.001,472.002z"/>
		<path d="M356.001,472.002h-20c-5.522,0-10,4.478-10,10c0,5.522,4.478,10,10,10h20c5.522,0,10-4.478,10-10
			C366.001,476.48,361.523,472.002,356.001,472.002z"/>
		<path d="M296.001,472.002h-20c-5.522,0-10,4.478-10,10c0,5.522,4.478,10,10,10h20c5.522,0,10-4.478,10-10
			C306.001,476.48,301.523,472.002,296.001,472.002z"/>
		<path d="M236.001,472.002h-20c-5.522,0-10,4.478-10,10c0,5.522,4.478,10,10,10h20c5.522,0,10-4.478,10-10
			C246.001,476.48,241.523,472.002,236.001,472.002z"/>
		<path d="M176.002,472.002h-20.001c-5.522,0-10,4.478-10,10c0,5.522,4.478,10,10,10h20.001c5.523,0,10-4.478,10-10
			C186.002,476.48,181.525,472.002,176.002,472.002z"/>
		<path d="M116.002,472.002h-20c-5.522,0-10,4.478-10,10c0,5.522,4.478,10,10,10h20c5.522,0,10-4.478,10-10
			C126.002,476.48,121.524,472.002,116.002,472.002z"/>
		<path d="M482.002,126.001c5.522,0,10-4.478,10-10v-20c0-5.522-4.478-10-10-10c-5.523,0-10,4.478-10,10v20
			C472.002,121.523,476.479,126.001,482.002,126.001z"/>
		<path d="M472.002,176.001c0,5.523,4.477,10,10,10c5.522,0,10-4.477,10-10v-20c0-5.522-4.478-10-10-10c-5.523,0-10,4.478-10,10
			V176.001z"/>
		<path d="M472.002,236.001c0,5.523,4.477,10,10,10c5.522,0,10-4.477,10-10v-20c0-5.522-4.478-10-10-10c-5.523,0-10,4.478-10,10
			V236.001z"/>
		<path d="M472.002,296.001c0,5.522,4.477,10,10,10c5.522,0,10-4.478,10-10v-20c0-5.522-4.478-10-10-10c-5.523,0-10,4.478-10,10
			V296.001z"/>
		<path d="M472.002,356.001c0,5.522,4.477,10,10,10c5.522,0,10-4.478,10-10V336c0-5.523-4.478-10-10-10c-5.523,0-10,4.477-10,10
			V356.001z"/>
		<path d="M472.002,416c0,5.522,4.477,10,10,10c5.522,0,10-4.478,10-10v-20c0-5.523-4.478-10-10-10c-5.523,0-10,4.477-10,10V416z"/>
		<path d="M283.006,406.001c5.523,0,10-4.478,10-10c0-5.522-4.477-10-10-10h-3.004c-5.514,0-10-4.486-10-10.001
			c0-5.514,4.486-10,10-10h47.718c4.045,0,7.691-2.437,9.239-6.173c1.547-3.737,0.691-8.038-2.168-10.898L163.072,177.21
			c-2.86-2.859-7.161-3.714-10.898-2.168c-3.736,1.548-6.173,5.194-6.173,9.239v47.717c0,5.515-4.486,10.001-10,10.001
			c-5.514,0-10-4.486-10-10.001V136c0-5.514,4.486-10,10-10h2.996c5.523,0,10-4.478,10-10c0-5.523-4.477-10-10-10h-2.996
			c-16.542,0-30,13.458-30,30v95.998c0,16.543,13.458,30.001,30,30.001s30-13.458,30-30.001v-23.574L303.577,346h-23.575
			c-16.542,0-30,13.458-30,30c0,16.543,13.458,30.001,30,30.001H283.006z"/>
		<path d="M406.001,376v-95.997c0-16.542-13.458-30-30-30s-30,13.458-30,30v23.573L208.425,166H232c16.542,0,30-13.458,30-30
			s-13.458-30-30-30h-3.003c-5.522,0-10,4.477-10,10c0,5.522,4.478,10,10,10H232c5.514,0,10,4.486,10,10c0,5.514-4.486,10-10,10
			h-47.718c-4.045,0-7.691,2.437-9.239,6.173c-1.547,3.737-0.691,8.038,2.168,10.898L348.93,334.79
			c2.86,2.86,7.161,3.714,10.898,2.168c3.736-1.548,6.173-5.194,6.173-9.239v-47.716c0-5.514,4.486-10,10-10c5.514,0,10,4.486,10,10
			V376c0,5.515-4.486,10.001-10,10.001h-2.995c-5.522,0-10,4.478-10,10c0,5.522,4.478,10,10,10h2.995
			C392.543,406.001,406.001,392.543,406.001,376z"/>
		<path d="M183.993,106c-5.522,0-9.996,4.477-9.996,10c0,5.522,4.48,10,10.003,10c5.523,0,10-4.478,10-10c0-5.523-4.477-10-10-10
			H183.993z"/>
		<path d="M338.009,396.001c0-5.522-4.477-10-10-10h-0.008c-5.522,0-9.996,4.478-9.996,10c0,5.522,4.481,10,10.004,10
			C333.531,406.001,338.009,401.523,338.009,396.001z"/>
	</g>
</g>
<g>
</g>
<g>
</g>
<g>
</g>
<g>
</g>
<g>
</g>
<g>
</g>
<g>
</g>
<g>
</g>
<g>
</g>
<g>
</g>
<g>
</g>
<g>
</g>
<g>
</g>
<g>
</g>
<g>
</g>
</svg>
