<svg id="Capa_1" enable-background="new 0 0 511.076 511.076" height="512" viewBox="0 0 511.076 511.076" width="512" xmlns="http://www.w3.org/2000/svg"><g><g><path d="m186.703 250.221c-1.773-.234-13.88-24.916-13.88-24.916l-24.019-18.623-12.873 12.964-11.557 11.048c-3.203 3.189-6.156 6.586-8.859 10.152l-1.321 23.721 31.92 15.172c-.001.001 42.362-29.283 40.589-29.518z" fill="#ffe0d1"/><path d="m235.059 154.608-17.575-14.126c-8.508-6.838-20.948-5.484-27.786 3.023s-5.484 20.948 3.023 27.786l17.575 14.126 12.455 9.732 28.391-26.87z" fill="#ffe0d1"/><path d="m146.878 236.547c2.64-3.496 5.524-6.826 8.653-9.953l8.472-8.128-15.198-11.784-12.873 12.964-11.557 11.048c-3.203 3.189-6.156 6.586-8.859 10.152l-1.321 23.721 15.971 7.592c3.038-12.9 8.724-25.036 16.712-35.612z" fill="#ffd1c2"/><path d="m185.534 216.226-17.575-14.126c-8.508-6.838-20.948-5.484-27.786 3.023s-5.484 20.948 3.023 27.786l17.575 14.126 22.709 20.126 24.457-31.911z" fill="#ffe0d1"/><path d="m210.296 185.417-17.575-14.126c-8.508-6.838-20.948-5.485-27.786 3.023-6.838 8.508-5.484 20.948 3.023 27.786l17.575 14.126 22.403 19.024 24.165-32.794z" fill="#ffe0d1"/><path d="m251.143 168.28-16.084-13.671-11.673-9.383-15.585 19.568c-1.484 1.864-4.201 2.165-6.058.673l-.102-.082c-8.508-6.838-9.861-19.278-3.023-27.786.151-.188.328-.364.484-.544-3.971 1.264-7.605 3.801-10.213 7.531-6.005 8.587-3.96 20.442 4.207 27.007l17.201 13.825 12.455 9.732 5.889-5.573z" fill="#ffd1c2"/><path d="m232.102 202.456-21.805-17.039-11.536-9.272-14.372 18.045c-1.719 2.158-4.865 2.508-7.015.779l-1.614-1.297c-7.322-5.885-9.321-15.943-5.385-24.049-3.126 1.828-5.866 4.591-7.687 8.175-4.27 8.404-1.704 18.695 5.643 24.601l17.204 13.827 22.403 19.024 6.822-9.258z" fill="#ffd1c2"/><g id="XMLID_224_"><g><path d="m260.903 277.984-7.29-1.69c-8.99-2.08-15.33-10.12-15.25-19.34.05-5.39 2.26-10.26 5.8-13.78 3.55-3.53 8.43-5.71 13.81-5.73l41.22-.16c6.07-.02 11.99 1.88 16.91 5.43l51.91 37.36c5.7 4.11 10.41 9.43 13.79 15.58l19.38 35.25 68.799 55.298c5.028 4.041 5.74 11.431 1.575 16.358l-76.454 90.442c-4.021 4.757-11.103 5.439-15.958 1.536l-51.992-41.794-2.84-.11c-16.85-.62-33.11-6.39-46.6-16.53l-32.56-24.49s-54.89-40.86-54.89-42.19c0-.99 46.18-60.16 70.64-91.44z" fill="#ffe0d1"/></g></g><g><path d="m244.665 271.543c5.889-7.689 11.463-14.958 16.197-21.126l-7.063-1.669c-3.78-.891-7.074-2.893-9.589-5.615-.015.015-.031.027-.046.042-3.54 3.52-5.75 8.39-5.8 13.78-.05 5.687 2.349 10.92 6.301 14.588z" fill="#f8d3aa"/><path d="m469.982 386.203-9.371-7.532-69.72 84.044c-3.896 4.697-10.758 5.37-15.462 1.517l-48.245-39.52c-1.382-1.132-3.097-1.783-4.882-1.854-16.326-.612-32.081-6.309-45.152-16.321l-31.548-24.18s-25.554-19.385-41.236-31.717c-8.424 10.937-14.102 18.438-14.102 18.785 0 1.33 54.89 42.19 54.89 42.19l32.56 24.49c13.49 10.14 29.75 15.91 46.6 16.53l2.84.11 51.992 41.793c4.855 3.903 11.937 3.221 15.958-1.536l76.454-90.441c4.163-4.927 3.452-12.317-1.576-16.358z" fill="#ffd1c2"/></g><g><g id="XMLID_226_"><path d="m315.671 370.073 3.529 2.556c10.306 7.464 24.655 5.538 32.627-4.381l41.5-51.633-11.524-20.961c-3.38-6.15-8.09-11.47-13.79-15.58l-51.91-37.36c-4.92-3.55-10.84-5.45-16.91-5.43l-41.22.16c-5.38.02-10.26 2.2-13.81 5.73-3.54 3.52-5.75 8.39-5.8 13.78-.08 9.22 6.26 17.26 15.25 19.34l7.29 1.69c-4.029 5.153-8.65 11.065-13.555 17.347.577.16 1.159.31 1.748.446l7.303 1.693 23.272 5.379c2.355 26.33 15.255 50.558 36 67.224z" fill="#ffd1c2"/><path d="m207.937 235.25-22.403-19.024-11.4-9.162-12.521 15.721c-1.828 2.295-5.174 2.667-7.461.829l-2.178-1.751c-6.536-5.254-8.844-13.829-6.464-21.372-2.079 1.229-3.965 2.862-5.541 4.89-6.672 8.581-4.866 21.025 3.606 27.835l17.195 13.82 22.709 20.126 6.827-8.908z" fill="#ffd1c2"/><g><path d="m368.013 280.074-51.91-37.36c-4.92-3.55-10.84-5.45-16.91-5.43l-41.22.16c-5.38.02-10.26 2.2-13.81 5.73-3.54 3.52-5.75 8.39-5.8 13.78-.08 9.22 6.26 17.26 15.25 19.34l7.29 1.69c-24.46 31.28-70.64 90.45-70.64 91.44 0 1.33 54.89 42.19 54.89 42.19l11.683 8.787c1.893-1.949 3.709-3.99 5.429-6.13l107.055-133.199c-.434-.335-.862-.677-1.307-.998z" fill="#ffd1c2"/><path d="m366.543 226.884c-9.09-7.3-22.37-5.85-29.68 3.23 3.14-3.9 4.66-8.57 4.66-13.21 0-6.17-2.7-12.3-7.89-16.47-9.08-7.3-22.37-5.85-29.68 3.23 3.14-3.9 4.66-8.57 4.66-13.21 0-6.17-2.7-12.29-7.88-16.46-9.09-7.31-22.38-5.86-29.68 3.22 7.3-9.08 5.86-22.37-3.23-29.67-3.9-3.14-8.57-4.66-13.21-4.66-6.18 0-12.3 2.7-16.47 7.89l-61.985 77.117-27.953 35.047-32.692-22.091c-11.249 14.837-18.066 32.675-19.461 51.428l-2.89 38.88-55 68.418c-3.478 4.326-2.893 10.632 1.32 14.245l96.613 82.848c4.407 3.78 11.068 3.162 14.705-1.364l49.891-62.077c1.03-1.27 2.51-2.11 4.13-2.34 18-2.54 34.36-11.84 45.75-26.01l119.2-148.31c3.13-3.9 4.66-8.57 4.66-13.21.002-6.181-2.698-12.301-7.888-16.471z" fill="#ffe0d1"/></g><g><path d="m72.625 406.115c-4.115-3.542-4.686-9.724-1.29-13.965l53.714-67.072 2.823-38.115c.832-11.23 3.65-22.121 8.213-32.215l-20.572-13.902c-11.249 14.837-18.066 32.675-19.461 51.428l-2.89 38.88-55 68.418c-3.478 4.326-2.893 10.632 1.32 14.245l96.613 82.848c4.407 3.78 11.068 3.162 14.705-1.364l10.401-12.941z" fill="#ffd1c2"/></g></g><g id="XMLID_225_"><g><path d="m327.806 226.495c-8.352-6.025-18.213-9.21-28.518-9.21l-41.389.16c-10.501.039-20.387 4.14-27.838 11.548-7.446 7.404-11.6 17.269-11.697 27.789-.163 18.737 12.478 34.773 30.732 38.997l7.303 1.693 23.272 5.379c1.476 16.5 7.094 32.174 16.187 45.679l73.845-91.879z" fill="#ffd1c2"/><path d="m381.803 295.654 14.26 25.94-40.71 52.33-21.55-14.93-5.59-4.5c-17.8-14.3-28.38-35.74-28.91-58.58l-.2-9.1-38.2-8.83-7.29-1.69c-8.99-2.08-15.33-10.12-15.25-19.34.05-5.39 2.26-10.26 5.8-13.78 3.55-3.53 8.43-5.71 13.81-5.73l41.22-.16c6.07-.02 11.99 1.88 16.91 5.43l51.91 37.36c5.7 4.11 10.41 9.43 13.79 15.58z" fill="#ffe0d1"/></g></g><g fill="#fbe88c"><path d="m272.292 10.969c-13.388-4.621-26.61-4.632-39.667-.034-3.141 1.106-4.598 4.73-3.154 7.73l17.958 37.313c2.042 4.243 8.084 4.243 10.127 0l17.934-37.262c1.452-3.018-.033-6.655-3.198-7.747z"/><path d="m393.259 69.099c-7.327-12.12-17.478-20.593-30.452-25.419-3.121-1.161-6.56.69-7.371 3.919l-10.09 40.161c-1.147 4.567 3.495 8.435 7.78 6.483l37.631-17.146c3.047-1.389 4.235-5.133 2.502-7.998z"/><path d="m111.727 69.099c7.327-12.12 17.478-20.593 30.452-25.419 3.121-1.161 6.56.69 7.371 3.919l10.09 40.161c1.147 4.567-3.495 8.435-7.78 6.483l-37.631-17.146c-3.047-1.389-4.235-5.133-2.502-7.998z"/></g></g><path d="m149.568 261.242 11.473-14.275-11.832-9.223-11.333 14.1c-2.668 3.32-2.04 8.193 1.383 10.727 3.237 2.396 7.787 1.809 10.309-1.329z" fill="#ffd1c2"/></g><g><path d="m483.848 387.726-30.085-24.181c-3.227-2.595-7.949-2.081-10.544 1.147-2.595 3.229-2.081 7.95 1.147 10.544l30.085 24.181c1.385 1.114 3.045 1.655 4.693 1.655 2.194 0 4.369-.958 5.851-2.802 2.595-3.228 2.081-7.949-1.147-10.544z"/><path d="m428.823 343.5-21.784-17.509-18.662-33.947c-3.896-7.086-9.424-13.329-15.986-18.054l-4.436-3.194 7.662-9.533c9.883-12.296 7.92-30.339-4.376-40.223-6.508-5.23-14.627-7.141-22.293-5.958-.494-7.741-4.105-15.259-10.614-20.49s-14.627-7.142-22.293-5.959c-.494-7.741-4.106-15.259-10.614-20.49s-14.626-7.142-22.292-5.96c-.494-7.741-4.106-15.258-10.614-20.489-11.619-9.339-28.365-8.094-38.514 2.445l-11.824-9.504c-5.676-4.562-12.788-6.639-20.029-5.853-7.24.788-13.739 4.348-18.301 10.023-4.867 6.055-6.711 13.573-5.748 20.725-.238.02-.476.034-.714.061-7.24.788-13.739 4.347-18.301 10.024-4.87 6.059-6.714 13.582-5.746 20.738-7.196.594-14.146 4.012-19.017 10.071-3.734 4.646-5.802 10.255-5.998 16.109l-9.14 8.74c-.037.035-.072.07-.108.105-17.806 17.725-28.639 41.284-30.506 66.338l-2.723 36.558-59.771 74.365c-2.595 3.229-2.082 7.95 1.147 10.544 1.385 1.114 3.045 1.655 4.694 1.655 2.194 0 4.369-.958 5.851-2.802l61.231-76.182c.951-1.184 1.521-2.627 1.634-4.142l2.896-38.883c1.597-21.436 10.857-41.594 26.077-56.77l3.395-3.246c1.505 2.213 3.347 4.215 5.492 5.939l11.73 9.428-13.61 16.933c-2.595 3.229-2.082 7.95 1.147 10.544 1.385 1.114 3.045 1.655 4.694 1.655 2.194 0 4.369-.958 5.851-2.802l95.682-119.044c4.701-5.849 13.282-6.783 19.134-2.082 5.841 4.695 6.779 13.263 2.095 19.114l-.91 1.075c-2.675 3.163-2.279 7.895.884 10.57 3.161 2.675 7.895 2.278 10.569-.883l.034-.04c.182-.184 1.1-1.304 1.1-1.304 4.701-5.85 13.282-6.784 19.134-2.082 5.848 4.701 6.783 13.283 2.084 19.131l-.002.002c-.002.002-.003.004-.005.006 0 0-.942 1.211-1.102 1.469-2.474 3.319-1.791 8.015 1.526 10.492 3.32 2.479 8.02 1.796 10.497-1.523l.851-1.14c4.717-5.766 13.239-6.665 19.059-1.989 5.848 4.701 6.782 13.282 2.079 19.135-.001.001-.002.003-.003.004 0 0-.968 1.253-1.137 1.531l-.075.102c-2.458 3.334-1.747 8.029 1.586 10.487 3.335 2.458 8.03 1.748 10.488-1.586l.923-1.252c4.722-5.751 13.233-6.644 19.047-1.974 5.849 4.701 6.782 13.284 2.081 19.134l-8.16 10.153-35.275-25.398c-6.252-4.5-13.641-6.838-21.328-6.834l-41.219.155c-14.8.056-26.947 12.142-27.076 26.942-.112 12.838 8.545 23.825 21.054 26.718l39.813 9.207.075 3.282c.286 12.387 3.249 24.362 8.525 35.208-.436.344-.844.736-1.206 1.188l-19.188 23.873c-2.595 3.229-2.081 7.95 1.147 10.544 1.385 1.113 3.045 1.655 4.693 1.655 2.194 0 4.369-.958 5.851-2.802l16.88-21.001c4.272 5.75 9.295 10.999 15.006 15.588l5.59 4.493c1.385 1.114 3.045 1.655 4.693 1.655 2.194 0 4.369-.959 5.851-2.802 2.595-3.229 2.081-7.949-1.147-10.544l-5.59-4.493c-16.115-12.953-25.631-32.236-26.107-52.906l-.209-9.104c-.079-3.426-2.47-6.363-5.809-7.135l-45.486-10.519c-5.606-1.296-9.485-6.22-9.436-11.973.058-6.632 5.501-12.048 12.134-12.073l41.219-.155h.082c4.486 0 8.781 1.385 12.426 4.008l51.899 37.368c4.765 3.43 8.777 7.963 11.606 13.107l19.378 35.249c.473.859 1.109 1.618 1.874 2.232l22.942 18.44c3.229 2.597 7.95 2.081 10.544-1.147 2.59-3.226 2.077-7.947-1.152-10.542zm-233.279-195.296c2.052-2.553 4.976-4.154 8.232-4.509.452-.049.902-.073 1.35-.073 2.781 0 5.46.939 7.659 2.706l11.729 9.428-15.366 19.117-11.729-9.427c-5.27-4.237-6.111-11.972-1.875-17.242zm-24.763 30.808c2.052-2.553 4.976-4.154 8.232-4.508.452-.049.902-.074 1.35-.074 2.781 0 5.46.939 7.659 2.707l11.729 9.428-15.365 19.117-11.729-9.428c-5.27-4.236-6.112-11.971-1.876-17.242zm-27.395 39.819c-.354-3.256.581-6.456 2.633-9.009 2.42-3.011 5.98-4.576 9.571-4.576 2.696 0 5.41.883 7.67 2.7l11.73 9.428-15.366 19.117-11.729-9.427c-2.554-2.053-4.155-4.977-4.509-8.233z"/><path d="m392.574 495.707-60.726-48.808c-1.257-1.011-2.807-1.589-4.419-1.649l-2.834-.105c-15.401-.574-30.053-5.774-42.371-15.038l-26.389-19.847c.191-.232.392-.454.581-.689l15.17-18.874c2.595-3.229 2.081-7.95-1.147-10.544-3.228-2.595-7.948-2.08-10.544 1.147l-15.17 18.874c-10.233 12.732-24.777 21.001-40.949 23.283-3.525.497-6.694 2.298-8.923 5.072l-56.543 70.349c-2.595 3.229-2.082 7.95 1.147 10.544 1.385 1.114 3.045 1.655 4.694 1.655 2.194 0 4.369-.958 5.851-2.802l56.283-70.025c14.446-2.115 27.811-8.117 38.86-17.262l28.066 21.108c14.776 11.113 32.353 17.351 50.828 18.039l.352.013 58.789 47.251c1.385 1.114 3.045 1.655 4.693 1.655 2.194 0 4.369-.958 5.851-2.802 2.592-3.229 2.079-7.95-1.15-10.545z"/><path d="m240.672 59.229c2.206 4.583 6.735 7.43 11.821 7.43s9.616-2.847 11.821-7.43l17.934-37.262c1.625-3.375 1.729-7.296.287-10.757-1.436-3.445-4.277-6.117-7.796-7.332-14.967-5.165-29.973-5.172-44.605-.019-3.491 1.229-6.306 3.902-7.724 7.333-1.426 3.451-1.316 7.36.303 10.723zm27.132-41.837-15.311 31.811-15.338-31.87c10.161-3.159 20.229-3.139 30.649.059z"/><path d="m342.397 99.207c2.42 2.016 5.373 3.057 8.371 3.057 1.844 0 3.704-.394 5.467-1.197l37.632-17.146c3.409-1.553 5.999-4.498 7.106-8.079 1.103-3.565.63-7.438-1.295-10.623 0 0 0-.001-.001-.001-8.19-13.548-19.716-23.16-34.254-28.568-3.469-1.291-7.343-1.041-10.629.688-3.306 1.739-5.723 4.812-6.633 8.432l-10.09 40.161c-1.238 4.934.42 10.021 4.326 13.276zm19.793-47.713c9.83 4.078 17.551 10.537 23.509 19.666l-32.126 14.638z"/><path d="m111.118 83.922 37.632 17.146c1.763.803 3.623 1.197 5.467 1.197 2.998 0 5.952-1.041 8.371-3.057 3.907-3.256 5.564-8.343 4.325-13.275l-10.09-40.161c-.91-3.62-3.327-6.694-6.633-8.432-3.286-1.729-7.161-1.979-10.627-.688-14.539 5.408-26.064 15.02-34.255 28.568-1.925 3.186-2.398 7.057-1.296 10.622 1.107 3.581 3.697 6.526 7.106 8.08zm31.677-32.428 8.618 34.303-32.126-14.638c5.958-9.128 13.68-15.586 23.508-19.665z"/></g></g></svg>