<svg id="Capa_1" enable-background="new 0 0 514.972 514.972" height="512" viewBox="0 0 514.972 514.972" width="512" xmlns="http://www.w3.org/2000/svg"><g><g><path d="m393.222 406.292 35.59 24.476c15.068 10.363 24.069 27.478 24.069 45.765v24.958c0 3.302-2.677 5.979-5.979 5.979h-208.683c-3.302 0-5.979-2.677-5.979-5.979v-24.958c0-18.287 9.001-35.402 24.069-45.765l35.59-24.476s16.275-12.628 16.651-12.063c.376.564 35.551 20.315 35.551 20.315l32.165-18.434z" fill="#f9f7f7"/><path d="m312.076 332.234h60.97v79.322h-60.97z" fill="#ffd1c2"/><path d="m418.987 282.592 5.21-37.034c3.165-22.5-12.408-43.341-34.882-46.683l-4.443-.661s-40.987-5.438-42.312-4.55 4.298 121.932 4.594 121.044 69.509-11.835 69.509-11.835z" fill="#a59ca6"/><path d="m403.082 247.473.12-.357c4.625-14.368 4.613-29.418.168-43.471-4.244-2.368-8.965-4.014-14.055-4.771l-4.443-.661s-40.987-5.438-42.312-4.55c-1.174.786 3.102 95.814 4.301 116.915l35.923-5.095z" fill="#8f8390"/><path d="m388.924 242.52c9.849-30.593-7.637-63.255-38.557-72.022l-1.88-.533c-28.356-8.04-58.609 3.667-74.165 28.701-15.356 24.711-17.885 55.301-6.796 82.198l8.188 24.656 95.927-13.605z" fill="#a59ca6"/><path d="m406.775 316.159c9.746 0 17.647-7.901 17.647-17.647 0-9.746-7.901-17.647-17.647-17.647h-43.926v35.295h43.926z" fill="#ffd1c2"/><g><path d="m223.072 250.194 35.59 24.476c15.068 10.363 24.069 27.478 24.069 45.765v24.797c0 3.391-2.749 6.14-6.14 6.14h-208.36c-3.391 0-6.14-2.749-6.14-6.14v-24.797c0-18.287 9.001-35.402 24.069-45.765l35.59-24.476 20.176-11.716 30.485 20.145s33.75-19.001 34.765-18.219 15.896 9.79 15.896 9.79z" fill="#f9f7f7"/></g><path d="m278.347 316.159c-9.746 0-17.647-7.901-17.647-17.647 0-9.746 7.901-17.647 17.647-17.647h40.659v35.295h-40.659z" fill="#ffd1c2"/><path d="m141.926 171.562h60.97v102.892h-60.97z" fill="#ffd1c2"/><path d="m244.495 126.618 5.499-10.741c4.048-7.906 4.901-17.065 2.385-25.583l-.904-3.06 2.936-12.917c2.771-12.194-1.249-24.934-10.518-33.329l-4.664-4.224c-5.821-12.985-18.996-21.085-33.21-20.418l-4.982.234-16.5-6.595c-8.248-3.297-17.448-3.297-25.696 0l-16.5 6.595-4.982-.234c-14.214-.667-27.389 7.433-33.21 20.418l-4.664 4.224c-9.269 8.394-13.289 21.135-10.518 33.329l2.936 12.917-.904 3.06c-2.517 8.518-1.663 17.677 2.385 25.583l5.814 11.356 11.427 21.906h125.242z" fill="#a59ca6"/><path d="m108.197 160.061c-9.746 0-17.647-7.901-17.647-17.647 0-9.746 7.901-17.647 17.647-17.647h38.285v35.295h-38.285z" fill="#ffd1c2"/><path d="m236.625 160.061c9.746 0 17.647-7.901 17.647-17.647 0-9.746-7.901-17.647-17.647-17.647h-48.741v35.295h48.741z" fill="#ffd1c2"/><g><path d="m342.561 370.039c31.55 0 57.126-25.576 57.126-57.126v-39.808c0-14.237-6.211-27.766-17.008-37.047l-7.83-6.73c-1.819-1.564-4.495-1.604-6.361-.097l-8.358 6.751h-38.984c-19.722 0-35.71 15.988-35.71 35.71v41.222c-.001 31.549 25.575 57.125 57.125 57.125z" fill="#ffe0d1"/><path d="m328.844 254.737h53.325c3.936 0 7.773-1.23 10.975-3.519l1.008-.701c-2.838-5.438-6.712-10.368-11.472-14.459l-7.83-6.73c-1.819-1.564-4.495-1.604-6.361-.097l-8.358 6.751h-38.984c-19.722 0-35.71 15.988-35.71 35.71v2.18c9.927-11.622 25.673-19.135 43.407-19.135z" fill="#ffd1c2"/><path d="m354.35 451.794 7.872 55.677h-39.322l7.872-55.677 2.579-19.364 18.801-1.553z" fill="#b3adb5"/><path d="m393.222 406.292-16.955-10.182-32.165 18.434s-35.175-19.751-35.551-20.315-16.651 12.063-16.651 12.063l-12.345 8.49-23.493 16.157c-14.912 10.256-23.821 27.195-23.821 45.293v25.832c0 2.986 2.421 5.407 5.407 5.407h17.952v-17.083c0-18.099 8.909-35.038 23.821-45.293l13.398-9.215c.914-.629 2.161-.423 2.825.465l.551.737c2.144 2.866 4.905 5.257 8.162 6.74 5.019 2.285 10.468 2.602 15.461 1.081l22.741-6.92 22.827 6.947c1.979.602 4.036.908 6.104.908h.373c6.616 0 12.845-3.12 16.807-8.418l16.919-22.621z" fill="#f2eae7"/><path d="m362.222 430.837-4.24 16.583c-.658 2.573-2.976 4.373-5.632 4.373h-19.578c-2.656 0-4.974-1.8-5.632-4.373l-4.24-16.583-5.344-20.878h52.525z" fill="#b3adb5"/><path d="m335.957 409.959h-18.401l5.344 20.878 3.114 12.181 14.222-4.328c1.516-.461 3.135-.461 4.65 0l14.222 4.328 3.114-12.181 7.858-20.878h-17.979l-7.999 4.584c0 .001-3.424-1.922-8.145-4.584z" fill="#a59ca6"/><path d="m342.561 401.455-30.485-14.948c-2.144-1.051-4.707-.732-6.528.813l-12.725 10.798c-2.419 2.053-2.823 5.633-.923 8.174l16.39 21.914c1.655 2.213 4.52 3.152 7.164 2.347l27.108-8.25 9.591-6.538v-12.164z" fill="#f9f7f7"/><path d="m373.046 386.507-30.485 14.948v20.848l27.108 8.25c2.644.805 5.509-.134 7.164-2.347l16.39-21.914c1.9-2.54 1.496-6.121-.923-8.173l-12.725-10.798c-1.822-1.546-4.385-1.865-6.529-.814z" fill="#f9f7f7"/><path d="m229.536 103.752v53.063c0 31.55-25.576 57.126-57.126 57.126-31.55 0-57.126-25.576-57.126-57.126v-54.478c0-4.79 4.419-8.358 9.102-7.35l2.65.571c6.564 1.414 13.414.554 19.425-2.439l2.202-1.096c2.548-1.268 5.564-1.159 8.014.289l2.291 1.355c8.291 4.904 18.594 4.904 26.885 0l1.775-1.05c2.725-1.612 6.126-1.553 8.793.152 6.45 4.123 14.247 5.587 21.753 4.084l2.367-.474c4.654-.93 8.995 2.628 8.995 7.373z" fill="#ffe0d1"/><path d="m220.542 96.38-2.367.474c-7.506 1.503-15.303.039-21.753-4.084-2.668-1.705-6.068-1.764-8.793-.152l-1.775 1.05c-8.291 4.904-18.594 4.904-26.885 0l-2.291-1.355c-2.449-1.449-5.466-1.558-8.014-.289l-2.202 1.096c-6.011 2.993-12.861 3.853-19.425 2.439l-2.65-.571c-4.682-1.009-9.102 2.56-9.102 7.35v12.935c1.22-.322 2.536-.376 3.874-.088l2.939.633c7.279 1.568 14.875.614 21.54-2.704l2.442-1.216c2.825-1.406 6.17-1.286 8.886.321l2.54 1.503c9.193 5.438 20.618 5.438 29.811 0l1.969-1.165c3.022-1.788 6.792-1.722 9.751.169 7.152 4.572 15.798 6.195 24.121 4.529l2.625-.526c1.297-.26 2.572-.204 3.755.108v-13.084c-.002-4.746-4.343-8.304-8.996-7.373z" fill="#ffd1c2"/><path d="m223.072 250.194s-14.881-9.01-15.896-9.791-34.765 18.219-34.765 18.219l-30.485-20.145-7.712 4.478-12.465 7.238-35.602 24.485c-15.06 10.357-24.057 27.464-24.057 45.742v24.84c0 3.376 2.737 6.112 6.112 6.112h14.323v-17.357c0-18.278 8.997-35.385 24.057-45.742l12.63-8.686c2.136-1.469 5.05-.989 6.602 1.086l.104.139c2.674 3.575 6.302 6.39 10.539 7.796 4.371 1.451 8.951 1.493 13.213.196l22.74-6.92 22.743 6.921c2.036.619 4.147.933 6.273.933 6.762 0 13.216-3.232 17.267-8.647l16.746-22.391z" fill="#f2eae7"/><path d="m141.926 230.409 30.485 14.948v20.848l-27.108 8.249c-2.644.805-5.509-.134-7.164-2.347l-16.39-21.914c-1.9-2.54-1.496-6.121.923-8.173l12.725-10.798c1.822-1.545 4.385-1.864 6.529-.813z" fill="#f9f7f7"/><path d="m202.896 230.409-30.485 14.948v20.848l27.108 8.249c2.644.805 5.509-.134 7.164-2.347l16.39-21.914c1.9-2.54 1.496-6.121-.923-8.173l-12.725-10.798c-1.822-1.545-4.385-1.864-6.529-.813z" fill="#f9f7f7"/><g fill="#e17983"><path d="m76.1 415.632 36.561-36.357c1.014-1.008 2.651-1.008 3.665 0l36.561 36.357c1.644 1.635.486 4.442-1.833 4.442h-19.894v3.873c0 21.041 6.702 41.535 19.134 58.51l5.85 7.987c1.554 2.122-.764 4.909-3.134 3.769l-16.415-7.904c-23.701-11.412-38.77-35.392-38.77-61.697v-4.538h-19.893c-2.319 0-3.477-2.807-1.832-4.442z"/><path d="m418.15 103.613-36.561 36.357c-1.014 1.008-2.651 1.008-3.665 0l-36.561-36.357c-1.644-1.635-.486-4.442 1.833-4.442h19.895v-3.873c0-21.041-6.702-41.535-19.134-58.51l-5.85-7.987c-1.554-2.122.764-4.909 3.134-3.769l16.415 7.904c23.701 11.412 38.77 35.392 38.77 61.697v4.538h19.893c2.317 0 3.475 2.806 1.831 4.442z"/></g></g></g><g><path d="m406.276 323.659h.499c13.866 0 25.147-11.281 25.147-25.147 0-5.87-2.028-11.273-5.412-15.557l5.113-36.352c3.725-26.476-14.759-51.214-41.205-55.146l-.877-.13c-8.446-13.713-21.488-23.609-37.129-28.043l-1.88-.533c-31.396-8.905-65.356 4.239-82.582 31.958-16.182 26.04-19.187 58.351-8.198 86.89-4.07 4.47-6.555 10.407-6.555 16.914 0 13.866 11.281 25.147 25.147 25.147h.499c2.856 16.986 12.354 31.738 25.73 41.492v14.155c-1.389.536-2.705 1.298-3.88 2.295l-12.723 10.798c-3.25 2.758-4.868 6.76-4.738 10.751l-31.172 21.438c-17.106 11.765-27.319 31.184-27.319 51.945v30.938c0 4.142 3.358 7.5 7.5 7.5s7.5-3.358 7.5-7.5v-30.938c0-15.821 7.783-30.62 20.819-39.585l29.651-20.392 12.072 16.141c2.696 3.604 6.923 5.636 11.282 5.636 1.133 0 2.274-.146 3.4-.428l2.908 11.373c.534 2.089 1.551 3.947 2.903 5.486l-7.303 51.658c-.58 4.101 2.275 7.896 6.376 8.476.356.05.709.075 1.059.075 3.677 0 6.887-2.706 7.417-6.451l6.96-49.227h10.55l6.96 49.227c.53 3.746 3.74 6.451 7.417 6.451.349 0 .703-.024 1.059-.075 4.102-.58 6.956-4.375 6.376-8.476l-7.304-51.657c1.352-1.538 2.37-3.397 2.903-5.485l2.908-11.373c1.126.282 2.267.428 3.4.428 4.359 0 8.587-2.032 11.282-5.636l12.073-16.142 13.752 9.458c1.298.893 2.778 1.321 4.243 1.321 2.386 0 4.732-1.136 6.187-3.25 2.347-3.413 1.483-8.083-1.93-10.43l-15.274-10.504c.129-3.991-1.488-7.993-4.738-10.751l-12.725-10.798c-1.176-.998-2.492-1.76-3.88-2.295v-14.155c13.378-9.757 22.876-24.509 25.732-41.495zm.91-15.021v-20.253c5.404.218 9.736 4.67 9.736 10.127s-4.332 9.908-9.736 10.126zm9.584-64.125-4.156 29.543c-1.747-.417-3.563-.651-5.428-.681v-.269c0-11.594-3.57-22.749-10.039-32.082 2.745-10.672 2.699-21.648-.054-32.111 13.381 6.03 21.816 20.395 19.677 35.6zm-136.078-41.889c13.714-22.069 40.751-32.532 65.749-25.444l1.88.533c12.979 3.68 23.633 12.257 30 24.15 4.276 7.988 6.224 16.755 5.797 25.543l-4.381-3.766c-4.567-3.925-11.279-4.027-15.962-.244l-6.296 5.085h-36.334c-23.826 0-43.21 19.384-43.21 43.21v1.683c-1.718.028-3.394.228-5.012.585-8.31-23.605-5.512-49.963 7.769-71.335zm-12.493 95.887c0-5.456 4.332-9.908 9.736-10.127v20.253c-5.404-.217-9.736-4.669-9.736-10.126zm24.736 14.402v-41.222c0-15.555 12.655-28.21 28.21-28.21h38.984c1.715 0 3.378-.588 4.712-1.666l6.717-5.425 6.23 5.355c9.149 7.865 14.396 19.294 14.396 31.359v39.808c0 27.364-22.262 49.625-49.625 49.625s-49.624-22.26-49.624-49.624zm5.813 90.014 10.905-9.254 25.408 12.458v10.616l-21.16 6.439zm55.037 30.632-2.745 10.735h-16.958l-2.745-10.735 11.224-3.416zm32.588-30.632-15.152 20.259-21.16-6.439v-10.616l25.407-12.458zm-20.827-21.095-22.985 11.27-22.985-11.27v-8.532c7.147 2.73 14.891 4.239 22.985 4.239s15.838-1.509 22.985-4.239z"/><path d="m443.932 434.093c-2.79-3.063-7.533-3.283-10.595-.495-3.062 2.79-3.284 7.533-.495 10.595 8.086 8.877 12.539 20.363 12.539 32.34v30.938c0 4.142 3.358 7.5 7.5 7.5s7.5-3.358 7.5-7.5v-30.938c0-15.722-5.842-30.794-16.449-42.44z"/><path d="m273.067 469.194c-4.142 0-7.5 3.358-7.5 7.5v30.156c0 4.142 3.358 7.5 7.5 7.5s7.5-3.358 7.5-7.5v-30.156c0-4.142-3.358-7.5-7.5-7.5z"/><path d="m412.055 469.194c-4.142 0-7.5 3.358-7.5 7.5v30.156c0 4.142 3.358 7.5 7.5 7.5s7.5-3.358 7.5-7.5v-30.156c0-4.142-3.358-7.5-7.5-7.5z"/><path d="m69.591 320.435c0-10.125 3.145-19.837 9.093-28.088 2.423-3.36 1.663-8.047-1.697-10.47-3.361-2.424-8.048-1.663-10.47 1.697-7.802 10.822-11.926 23.568-11.926 36.861v30.938c0 4.142 3.358 7.5 7.5 7.5s7.5-3.358 7.5-7.5z"/><path d="m233.285 266.32c1.298.893 2.778 1.321 4.243 1.321 2.386 0 4.732-1.136 6.187-3.25 2.347-3.413 1.483-8.083-1.93-10.43l-10.045-6.909c.129-3.991-1.488-7.992-4.738-10.75l-12.725-10.798c-1.176-.998-2.492-1.76-3.88-2.295v-14.155c13.377-9.754 22.875-24.506 25.73-41.492h.499c13.866 0 25.147-11.281 25.147-25.147 0-7.088-2.952-13.496-7.686-18.071l2.584-5.047c4.947-9.662 5.977-20.716 2.901-31.126l-.349-1.182 2.501-11.007c3.367-14.814-1.536-30.352-12.796-40.55l-3.556-3.22c-7.434-15.026-22.852-24.144-39.705-23.354l-3.357.158-14.99-5.992c-10.079-4.028-21.182-4.028-31.263 0l-14.99 5.992-3.357-.158c-16.877-.798-32.272 8.329-39.705 23.354l-3.555 3.22c-11.26 10.198-16.164 25.735-12.797 40.55l2.501 11.007-.35 1.183c-3.075 10.41-2.045 21.464 2.902 31.126l3.078 6.013c-4.176 4.491-6.737 10.504-6.737 17.105 0 13.866 11.281 25.147 25.147 25.147h.499c2.856 16.986 12.354 31.738 25.73 41.492v14.155c-1.389.536-2.705 1.298-3.88 2.295l-12.725 10.799c-3.25 2.758-4.867 6.759-4.738 10.75l-20.299 13.96c-3.413 2.347-4.277 7.017-1.93 10.43 1.455 2.115 3.8 3.25 6.187 3.25 1.465 0 2.945-.428 4.243-1.321l18.777-12.913 12.073 16.142c2.696 3.604 6.923 5.635 11.283 5.635 1.358 0 2.729-.197 4.071-.605l17.424-5.303v74.424c0 4.142 3.358 7.5 7.5 7.5s7.5-3.358 7.5-7.5v-74.424l17.425 5.303c1.341.408 2.712.605 4.07.605 4.359 0 8.587-2.031 11.283-5.636l12.073-16.142zm3.751-113.78v-20.253c5.404.218 9.736 4.67 9.736 10.127s-4.332 9.908-9.736 10.126zm-138.987-10.127c0-5.456 4.332-9.908 9.736-10.127v20.253c-5.404-.217-9.736-4.669-9.736-10.126zm15.319-51.76c-3.548 2.865-5.583 7.124-5.583 11.685v14.939c-1.701.028-3.362.224-4.966.574l-2.76-5.392c-3.185-6.221-3.848-13.338-1.868-20.04l.904-3.06c.364-1.231.406-2.536.121-3.788l-2.936-12.917c-2.168-9.538.989-19.542 8.24-26.108l4.664-4.224c.769-.696 1.384-1.544 1.809-2.491 4.591-10.242 14.786-16.519 26.015-15.994l4.982.234c1.069.048 2.14-.13 3.135-.527l16.5-6.595c6.49-2.595 13.638-2.595 20.128 0l16.5 6.595c.996.397 2.067.575 3.135.527l4.982-.234c11.21-.528 21.423 5.751 26.015 15.994.424.947 1.041 1.795 1.809 2.491l4.664 4.224c7.25 6.565 10.407 16.569 8.239 26.107l-2.936 12.917c-.285 1.252-.243 2.556.121 3.788l.904 3.06c1.98 6.702 1.317 13.819-1.868 20.04l-2.631 5.14c-1.191-.194-2.41-.302-3.651-.323v-13.524c0-4.518-2.004-8.751-5.498-11.615-3.495-2.864-8.04-3.999-12.468-3.111l-2.368.474c-5.63 1.128-11.4.045-16.241-3.049-5.08-3.248-11.459-3.359-16.652-.289l-1.775 1.05c-5.937 3.512-13.312 3.511-19.248 0l-2.29-1.354c-4.659-2.756-10.332-2.961-15.175-.549l-2.203 1.097c-4.47 2.226-9.623 2.873-14.503 1.821l-2.65-.57c-4.453-.959-9.049.131-12.597 2.997zm9.417 66.162.022-54.495 2.65.571c8.196 1.766 16.843.68 24.347-3.057l2.203-1.097c.272-.135.589-.124.852.032l2.291 1.354c10.647 6.298 23.875 6.297 34.521 0l1.774-1.05c.291-.172.651-.167.936.016 8.126 5.194 17.808 7.011 27.265 5.119l2.389-.477s.001.006.001.02v53.063c0 27.364-22.262 49.625-49.625 49.625s-49.626-22.26-49.626-49.624zm49.626 64.626c8.094 0 15.838-1.509 22.985-4.239v8.532l-22.985 11.27-22.985-11.27v-8.532c7.146 2.729 14.891 4.239 22.985 4.239zm-28.661 45.647-15.152-20.259 10.905-9.254 25.408 12.458v10.616zm57.321 0-21.16-6.439v-10.616l25.407-12.458 10.905 9.254z"/><path d="m110.417 350.752v-30.156c0-4.142-3.358-7.5-7.5-7.5s-7.5 3.358-7.5 7.5v30.156c0 4.142 3.358 7.5 7.5 7.5s7.5-3.358 7.5-7.5z"/><path d="m234.404 320.596v30.156c0 4.142 3.358 7.5 7.5 7.5s7.5-3.358 7.5-7.5v-30.156c0-4.142-3.358-7.5-7.5-7.5s-7.5 3.358-7.5 7.5z"/><path d="m156.345 478.025c-10.853-14.818-16.906-32.192-17.614-50.451h12.324c4.105 0 7.77-2.452 9.336-6.248 1.565-3.795.696-8.118-2.215-11.013l-36.561-36.355c-3.925-3.905-10.314-3.906-14.243-.001l-36.561 36.356c-2.912 2.895-3.781 7.218-2.215 11.013s5.23 6.248 9.336 6.248h12.451c1.104 27.859 17.718 53.339 42.958 65.492l16.414 7.903c1.396.672 2.882.997 4.354.997 2.905 0 5.749-1.266 7.705-3.619 2.947-3.544 3.104-8.616.38-12.335zm-51.02-53.413v-4.538c0-4.142-3.358-7.5-7.5-7.5h-8.013l24.682-24.544 24.682 24.544h-8.015c-4.142 0-7.5 3.358-7.5 7.5v3.873c0 19.68 5.308 38.596 15.427 55.232-20.539-10.25-33.763-31.574-33.763-54.567z"/><path d="m337.905 41.22c10.853 14.818 16.906 32.192 17.614 50.451h-12.324c-4.105 0-7.77 2.452-9.336 6.248-1.565 3.795-.696 8.118 2.215 11.013l36.562 36.357c1.963 1.952 4.542 2.928 7.121 2.928s5.158-.977 7.122-2.928l36.561-36.356c2.912-2.895 3.781-7.218 2.215-11.013s-5.23-6.248-9.336-6.248h-12.451c-.177-4.502-.756-9-1.729-13.407-.892-4.046-4.9-6.603-8.939-5.708-4.045.892-6.601 4.894-5.708 8.939.952 4.315 1.434 8.736 1.434 13.139v4.538c0 4.142 3.358 7.5 7.5 7.5h8.013l-24.682 24.544-24.682-24.544h8.015c4.142 0 7.5-3.358 7.5-7.5v-3.873c0-19.68-5.308-38.597-15.427-55.232 7.485 3.729 14.01 8.861 19.405 15.263 2.668 3.167 7.399 3.571 10.568.901 3.167-2.669 3.571-7.401.901-10.568-6.95-8.246-15.404-14.801-25.128-19.483l-16.415-7.904c-4.153-2-9.111-.92-12.058 2.624-2.947 3.543-3.103 8.616-.38 12.334z"/></g></g></svg>