<svg id="Capa_1" enable-background="new 0 0 511.455 511.455" height="512" viewBox="0 0 511.455 511.455" width="512" xmlns="http://www.w3.org/2000/svg"><g><g><circle cx="243.092" cy="137.939" fill="#ffe0d1" r="13.93"/><circle cx="192.721" cy="136.513" fill="#ffe0d1" r="16.191"/><g><path d="m252.538 154.319c1.36-3.2 3.33-6.08 5.75-8.5 4.86-4.87 11.58-7.88 19.01-7.88h53.36c19.181 0 34.73 15.549 34.73 34.73v20.33c0 31.79-10.79 62.63-30.6 87.49l-24.05 30.18v141.949c0 7.031-5.7 12.731-12.731 12.731h-114.879c-7.031 0-12.731-5.7-12.731-12.731v-161.749l-6.72-8.98c-9.77-13.04-15.04-28.9-15.04-45.19v-52.47-29.91z" fill="#ffe0d1"/></g><path d="m202.475 430.872v-142.03c0-4.591-1.579-9.042-4.472-12.607l-2.248-2.769c-9.77-12.022-15.04-26.645-15.04-41.664v-66.148h-32.077v71.045c0 16.29 5.27 32.15 15.04 45.19l6.72 8.98v161.749c0 7.031 5.7 12.731 12.731 12.731h114.879c7.031 0 12.731-5.7 12.731-12.731v-10.009h-95.532c-7.033 0-12.732-5.255-12.732-11.737z" fill="#ffd1c2"/><path d="m255.398 284.75h75.994l3.402-4.269c19.808-24.856 30.594-55.699 30.594-87.482v-20.33c0-19.181-15.549-34.73-34.73-34.73h-53.36c-7.43 0-14.15 3.01-19.01 7.88-2.42 2.42-4.39 5.3-5.75 8.5h-15.797c-.884 3.414-1.333 6.93-1.333 10.51 0 14.851 7.768 27.921 19.454 35.362-12.314 14.103-19.454 32.449-19.454 51.538v13.031c0 11.04 8.95 19.99 19.99 19.99z" fill="#ffd1c2"/><g><path d="m59.583 183.227v-44.767l389.707.5v44.767z" fill="#f2eae7"/></g><path d="m270.81 138.731c-4.82 1.194-9.127 3.684-12.523 7.088-1.111 1.111-2.122 2.323-3.028 3.615 1.43-3.361 2.411-6.958 2.855-10.719l-126.096-.162c3.924 17.578 19.637 30.761 38.38 30.761 5.995 0 11.679-1.351 16.768-3.761 3.066-1.452 6.66-1.15 9.44.793 6.371 4.451 14.112 7.068 22.457 7.068 3.888 0 7.644-.571 11.192-1.63 2.833-.845 5.777.835 6.532 3.694.735 2.783 1.749 5.453 3.009 7.98l49.292.063v-44.767z" fill="#ede2dd"/><path d="m292.061 98.7c0-13.438-10.894-24.333-24.333-24.333-13.438 0-24.333 10.894-24.333 24.333v52.137c0 13.438 10.894 24.333 24.333 24.333 13.438 0 24.333-10.894 24.333-24.333z" fill="#ffe0d1"/><path d="m316.394 81.079c-13.439 0-24.333 10.894-24.333 24.333v47.048c0 1.372 1.112 2.484 2.484 2.484h43.697c1.372 0 2.484-1.112 2.484-2.484v-47.048c0-13.439-10.894-24.333-24.332-24.333z" fill="#ffe0d1"/><g id="XMLID_186_"><g><path d="m277.297 122.939c-4.617 0-9.115.751-13.362 2.183-2.313.78-4.703-.96-4.703-3.401v-24.16c0-10.04 6.077-18.666 14.756-22.383-1.999-.531-4.093-.81-6.26-.81-13.438 0-24.333 10.894-24.333 24.333v52.137c0 13.438 10.894 24.333 24.333 24.333 3.399 0 6.633-.699 9.571-1.957-7.564-2.01-13.664-7.579-16.439-14.798h29.991c.781-2.385 1.209-4.931 1.209-7.577v-27.898h-14.763z" fill="#ffd1c2"/><path d="m330.658 122.939h-17.954c-2.655 0-4.806-2.152-4.806-4.806v-10.617c0-11.76 8.339-21.58 19.429-23.848-3.289-1.658-6.998-2.588-10.933-2.588-13.438 0-24.333 10.894-24.333 24.333v47.048c0 1.372 1.112 2.484 2.484 2.484h10.19 3.2 30.307c1.372 0 2.484-1.112 2.484-2.484v-28.495c-3.252-.673-6.62-1.027-10.068-1.027z" fill="#ffd1c2"/><path d="m288.818 191.719h-11.52c-14.85 0-26.89-12.04-26.89-26.89 0-3.73.76-7.28 2.13-10.51 1.36-3.2 3.33-6.08 5.75-8.5 4.86-4.87 11.58-7.88 19.01-7.88h53.36c19.18 0 34.73 15.55 34.73 34.73v20.33c0 31.79-10.79 62.63-30.6 87.49l-20.11 25.23h-64.27v-53.99c0-22.03 11.48-42.47 30.28-53.94l8.13-4.96z" fill="#ffe0d1"/></g></g><g><path d="m219.064 82.285c-13.439 0-24.333 10.894-24.333 24.333v27.464c0 13.438 10.894 24.333 24.333 24.333 13.438 0 24.332-10.894 24.332-24.333v-27.464c0-13.439-10.894-24.333-24.332-24.333z" fill="#ffe0d1"/><path d="m170.399 85.916c-13.439 0-24.333 10.894-24.333 24.333v19.733c0 13.438 10.894 24.333 24.333 24.333 13.438 0 24.333-10.894 24.333-24.333v-19.733c-.001-13.439-10.895-24.333-24.333-24.333z" fill="#ffe0d1"/><path d="m209.699 136.705v-27.464c0-12.254 9.059-22.388 20.845-24.08-3.42-1.834-7.328-2.876-11.48-2.876-13.438 0-24.333 10.894-24.333 24.333v27.464c0 13.438 10.894 24.333 24.333 24.333 1.185 0 2.348-.089 3.487-.253-7.648-4.102-12.852-12.171-12.852-21.457z" fill="#ffd1c2"/><path d="m161.034 132.605v-19.733c0-12.254 9.059-22.388 20.845-24.08-3.42-1.834-7.328-2.876-11.48-2.876-13.438 0-24.332 10.894-24.332 24.332v19.733c0 13.438 10.894 24.333 24.332 24.333 1.185 0 2.348-.089 3.487-.253-7.649-4.101-12.852-12.169-12.852-21.456z" fill="#ffd1c2"/><g fill="#a59ca6"><path d="m432.387 275.586h20.453c7.202 0 13.04-5.838 13.04-13.04v-203.403c0-7.202-5.838-13.04-13.04-13.04h-20.453c-7.202 0-13.04 5.838-13.04 13.04v203.402c0 7.202 5.838 13.041 13.04 13.041z"/><path d="m478.921 256.864h11.994c7.202 0 13.04-5.838 13.04-13.04v-165.96c0-7.202-5.838-13.04-13.04-13.04h-11.994c-7.202 0-13.04 5.838-13.04 13.04v165.96c-.001 7.202 5.838 13.04 13.04 13.04z"/><path d="m79.068 275.586h-20.453c-7.202 0-13.04-5.838-13.04-13.04v-203.403c0-7.202 5.838-13.04 13.04-13.04h20.453c7.202 0 13.04 5.838 13.04 13.04v203.402c.001 7.202-5.838 13.041-13.04 13.041z"/><path d="m32.534 256.864h-11.993c-7.202 0-13.04-5.838-13.04-13.04v-165.96c0-7.202 5.838-13.04 13.04-13.04h11.994c7.202 0 13.04 5.838 13.04 13.04v165.96c0 7.202-5.839 13.04-13.041 13.04z"/></g></g></g><g><path d="m334.392 280.988c-3.238-2.581-7.958-2.048-10.54 1.191l-18.983 23.818c-1.059 1.328-1.635 2.976-1.635 4.674v154.682c0 4.142 3.358 7.5 7.5 7.5s7.5-3.358 7.5-7.5v-152.059l17.348-21.767c2.583-3.239 2.049-7.957-1.19-10.539z"/><path d="m490.915 57.323h-11.994c-1.94 0-3.812.289-5.592.794-.54-10.848-9.509-19.515-20.489-19.515h-20.453c-11.326 0-20.541 9.214-20.541 20.541v71.817h-63.62v-25.548c0-17.553-14.28-31.833-31.833-31.833-8.313 0-15.889 3.207-21.565 8.444-5.612-9.086-15.659-15.156-27.1-15.156-11.768 0-22.057 6.423-27.565 15.943-5.622-4.988-13.011-8.026-21.1-8.026-10.64 0-20.07 5.252-25.853 13.294-5.788-5.954-13.873-9.663-22.812-9.663-17.553 0-31.833 14.28-31.833 31.833v19.733c0 .328.015.653.025.979h-38.982v-21.22c0-4.142-3.358-7.5-7.5-7.5s-7.5 3.358-7.5 7.5v152.806c0 3.055-2.485 5.541-5.541 5.541h-20.452c-3.055 0-5.541-2.485-5.541-5.541v-203.403c0-3.055 2.485-5.541 5.541-5.541h20.453c3.055 0 5.541 2.485 5.541 5.541v18.634c0 4.142 3.358 7.5 7.5 7.5s7.5-3.358 7.5-7.5v-18.634c0-11.326-9.214-20.541-20.541-20.541h-20.453c-10.98 0-19.949 8.667-20.489 19.515-1.781-.505-3.652-.794-5.592-.794h-11.993c-11.327 0-20.541 9.215-20.541 20.541v165.96c0 11.326 9.214 20.541 20.541 20.541h11.994c1.94 0 3.812-.289 5.592-.794.54 10.848 9.509 19.515 20.489 19.515h20.453c11.326 0 20.541-9.214 20.541-20.541v-71.818h41.526v45.973c0 17.795 5.874 35.44 16.539 49.685l5.226 6.979v171.988c0 4.142 3.358 7.5 7.5 7.5s7.5-3.358 7.5-7.5v-174.484c0-1.621-.525-3.198-1.496-4.495l-6.722-8.978c-8.736-11.667-13.546-26.12-13.546-40.695v-45.973h98.574c3.75 3.275 8.213 5.749 13.125 7.157-15.584 13.305-24.924 33.086-24.924 53.844v6.063c0 4.142 3.358 7.5 7.5 7.5s7.5-3.358 7.5-7.5v-6.063c0-19.28 10.226-37.494 26.686-47.534l8.131-4.958c.009-.005.016-.012.025-.017h6.641c4.142 0 7.5-3.358 7.5-7.5s-3.358-7.5-7.5-7.5h-22.095c-10.69 0-19.388-8.697-19.388-19.388s8.698-19.388 19.388-19.388h53.363c15.014 0 27.229 12.215 27.229 27.229v20.331c0 22.316-5.684 44.451-16.438 64.011-1.996 3.63-.671 8.19 2.959 10.186 1.146.63 2.385.929 3.606.929 2.647 0 5.214-1.405 6.579-3.888 11.967-21.768 18.293-46.401 18.293-71.237v-2.276h38.958v71.818c0 11.326 9.214 20.541 20.541 20.541h20.453c10.98 0 19.949-8.667 20.489-19.515 1.781.505 3.652.794 5.592.794h11.994c11.326 0 20.541-9.214 20.541-20.541v-165.961c-.004-11.326-9.218-20.541-20.544-20.541zm-458.381 192.042h-11.993c-3.055 0-5.541-2.485-5.541-5.541v-165.96c0-3.055 2.485-5.541 5.541-5.541h11.994c3.055 0 5.541 2.485 5.541 5.541v165.96c-.001 3.055-2.487 5.541-5.542 5.541zm169.697-142.748c0-9.281 7.551-16.833 16.833-16.833s16.833 7.551 16.833 16.833v27.464c0 9.281-7.551 16.833-16.833 16.833s-16.833-7.551-16.833-16.833zm-48.665 3.632c0-9.281 7.551-16.833 16.833-16.833s16.833 7.551 16.833 16.833v19.733c0 9.282-7.551 16.833-16.833 16.833s-16.833-7.551-16.833-16.833zm-53.958 35.711h43.276c5.521 9.471 15.783 15.854 27.514 15.854 8.84 0 16.848-3.625 22.621-9.463 5.765 8.193 15.286 13.562 26.044 13.562 10.868 0 20.477-5.478 26.223-13.814.028-.007.056-.014.084-.022-1.582 3.947-2.462 8.248-2.462 12.754 0 3.808.631 7.469 1.779 10.896h-145.079zm151.288-3.135v-44.125c0-9.281 7.551-16.833 16.833-16.833s16.833 7.551 16.833 16.833v31.744h-7.265c-10.597 0-20.087 4.82-26.401 12.381zm48.666-12.381v-25.032c0-9.281 7.551-16.833 16.833-16.833s16.833 7.551 16.833 16.833v25.032zm73.327 45.283v-3.055c0-10.126-3.586-19.429-9.55-26.712h48.508v29.767zm123.566 68.097c0 3.055-2.485 5.541-5.541 5.541h-11.994c-3.055 0-5.541-2.485-5.541-5.541v-36.29c0-4.142-3.358-7.5-7.5-7.5s-7.5 3.358-7.5 7.5v55.011c0 3.055-2.485 5.541-5.541 5.541h-20.453c-3.055 0-5.541-2.485-5.541-5.541v-203.402c0-3.055 2.485-5.541 5.541-5.541h20.453c3.055 0 5.541 2.485 5.541 5.541v116.429c0 4.142 3.358 7.5 7.5 7.5s7.5-3.358 7.5-7.5v-97.708c0-3.055 2.485-5.541 5.541-5.541h11.994c3.055 0 5.541 2.485 5.541 5.541z"/></g></g></svg>