<svg id="Capa_1" enable-background="new 0 0 510.709 510.709" height="512" viewBox="0 0 510.709 510.709" width="512" xmlns="http://www.w3.org/2000/svg"><g><g><path d="m347.807 295.282 24.671-41.8c11.528-19.532 39.785-19.532 51.314 0l73.15 123.936c2.77 4.693-.613 10.618-6.062 10.618h-195.405z" fill="#cac5cb"/><path d="m162.903 295.282-24.671-41.8c-11.528-19.532-39.785-19.532-51.314 0l-74.656 126.489c-2.104 3.564.466 8.065 4.605 8.065h216.271z" fill="#cac5cb"/><g id="XMLID_187_"><g><path d="m364.889 324.228-69.68-118.06c-17.32-29.35-59.78-29.35-77.1 0l-69.94 118.5-5.193 24.922 161.75 29.221 60.164-23.023-.74-31.12z" fill="#f9f7f7"/><path d="m283.836 198.6c.74-1.173 1.542-2.278 2.37-3.351-20.141-17.792-53.294-14.165-68.096 10.919l-69.94 118.5-5.193 24.922 40.952 7.398z" fill="#f8f3f2"/><path d="m364.889 324.228 96.893 164.156c3.251 5.509-.72 12.464-7.116 12.464h-396.013c-6.397 0-10.368-6.955-7.116-12.464l96.633-163.716 26.45-5.82c4.49-.99 9.03-1.48 13.55-1.48 11.96 0 23.77 3.41 34 9.95 10.36 6.63 22.17 9.95 33.99 9.95s23.63-3.32 33.99-9.95c14.1-9.02 31.21-12.07 47.55-8.47z" fill="#b3adb5"/></g></g><path d="m453.491 474.338h-329.112c-6.396 0-10.368-6.508-7.116-11.663l89.818-142.392c-6.114-1.923-12.49-2.915-18.911-2.915-4.52 0-9.06.49-13.55 1.48l-26.45 5.82-96.634 163.716c-3.251 5.509.72 12.464 7.116 12.464h396.014c6.397 0 10.368-6.955 7.116-12.464z" fill="#a59ca6"/><path d="m261.393 12.807 18.482 37.449c.769 1.558 2.255 2.638 3.975 2.888l41.328 6.005c4.33.629 6.059 5.951 2.926 9.005l-29.905 29.15c-1.244 1.213-1.812 2.96-1.518 4.673l7.06 41.161c.74 4.313-3.787 7.601-7.66 5.565l-36.965-19.433c-1.538-.809-3.375-.809-4.913 0l-36.965 19.433c-3.873 2.036-8.4-1.253-7.66-5.565l7.06-41.161c.294-1.713-.274-3.46-1.518-4.673l-29.905-29.15c-3.133-3.054-1.404-8.376 2.926-9.005l41.328-6.005c1.719-.25 3.206-1.33 3.975-2.888l18.482-37.449c1.936-3.924 7.531-3.924 9.467 0z" fill="#fbe372"/></g><g><path d="m422.54 407.144c-2.105-3.567-6.703-4.75-10.271-2.647-3.566 2.105-4.752 6.704-2.646 10.271l53.055 89.889c1.399 2.371 3.899 3.689 6.466 3.689 1.296 0 2.608-.336 3.806-1.042 3.566-2.105 4.752-6.704 2.646-10.271z"/><path d="m509.667 384.224-79.417-134.554c-6.777-11.482-18.783-18.337-32.116-18.337-13.332 0-25.338 6.855-32.115 18.337l-18.212 30.856-46.139-78.171c-9.497-16.092-26.323-25.699-45.009-25.699s-35.512 9.607-45.009 25.699l-47.443 80.381-19.517-33.066c-6.777-11.482-18.783-18.337-32.115-18.337-13.333 0-25.339 6.855-32.116 18.337l-79.417 134.554c-2.105 3.567-.92 8.166 2.646 10.271 1.197.706 2.51 1.042 3.806 1.042 2.566 0 5.066-1.318 6.466-3.689l79.417-134.554c4.051-6.863 11.228-10.961 19.198-10.961s15.146 4.098 19.197 10.962l23.726 40.197-117.774 199.54c-2.105 3.567-.92 8.166 2.646 10.271 1.197.706 2.51 1.042 3.806 1.042 2.566 0 5.066-1.318 6.466-3.689l102.327-173.368 23.262-5.121c14.504-3.193 29.383-.542 41.893 7.465 11.553 7.395 24.795 11.092 38.036 11.092s26.483-3.697 38.036-11.092c12.511-8.007 27.388-10.657 41.893-7.465l24.411 5.374 32.61 55.25c2.106 3.568 6.704 4.752 10.271 2.647 3.566-2.105 4.752-6.704 2.646-10.271l-49.512-83.886 22.421-37.988c4.051-6.863 11.228-10.961 19.197-10.961 7.971 0 15.147 4.098 19.198 10.961l79.417 134.554c1.399 2.371 3.899 3.689 6.466 3.689 1.296 0 2.608-.336 3.806-1.042 3.567-2.105 4.753-6.703 2.647-10.27zm-170.354-72.706c-18.421-4.057-37.316-.688-53.203 9.48-18.193 11.645-41.707 11.645-59.9 0-15.887-10.168-34.782-13.536-53.203-9.48l-9.618 2.117 61.181-103.656c6.771-11.473 18.769-18.323 32.091-18.323s25.319 6.85 32.091 18.323l61.33 103.909z"/><path d="m184.663 78.09c2.966 2.892 7.715 2.829 10.605-.137 2.891-2.966 2.83-7.715-.137-10.605l-1.46-1.423 36.875-5.358c4.164-.605 7.762-3.22 9.621-6.991l16.491-33.415 16.49 33.413c1.86 3.773 5.458 6.388 9.623 6.993l36.875 5.358-26.684 26.01c-3.013 2.937-4.387 7.166-3.675 11.311l6.299 36.726-32.981-17.34c-3.725-1.957-8.17-1.957-11.895 0l-32.981 17.34 6.299-36.725c.712-4.146-.662-8.375-3.675-11.312l-2.146-2.092c-2.969-2.892-7.715-2.831-10.606.136-2.891 2.966-2.83 7.714.136 10.605l1.311 1.278-6.862 40.01c-.827 4.83 1.121 9.619 5.085 12.499 3.965 2.88 9.12 3.251 13.458.973l35.931-18.891 35.931 18.891c1.887.992 3.928 1.481 5.959 1.481 2.638 0 5.259-.827 7.499-2.454 3.964-2.88 5.912-7.669 5.084-12.5l-6.861-40.009 29.07-28.336c3.508-3.421 4.746-8.441 3.231-13.101-1.515-4.659-5.467-7.991-10.315-8.695l-40.172-5.837-17.967-36.406c-2.169-4.394-6.56-7.123-11.46-7.123s-9.291 2.729-11.46 7.123l-17.965 36.403-40.172 5.837c-4.849.705-8.801 4.037-10.315 8.696-1.515 4.66-.276 9.68 3.233 13.103z"/><path d="m359.025 89.943c0 4.142 3.357 7.5 7.5 7.5h16.303c4.143 0 7.5-3.358 7.5-7.5s-3.357-7.5-7.5-7.5h-16.303c-4.143 0-7.5 3.358-7.5 7.5z"/><path d="m349.693 34.925c1.453 0 2.923-.421 4.215-1.301l13.475-9.175c3.424-2.332 4.309-6.997 1.978-10.42s-6.997-4.31-10.421-1.978l-13.475 9.175c-3.424 2.331-4.309 6.997-1.978 10.42 1.451 2.131 3.807 3.279 6.206 3.279z"/><path d="m345.464 158.661 13.475 9.176c1.293.88 2.761 1.301 4.215 1.301 2.398 0 4.755-1.147 6.206-3.279 2.331-3.423 1.446-8.089-1.978-10.42l-13.475-9.176c-3.426-2.332-8.09-1.446-10.421 1.978-2.331 3.423-1.446 8.088 1.978 10.42z"/><path d="m130.491 97.443h16.303c4.143 0 7.5-3.358 7.5-7.5s-3.357-7.5-7.5-7.5h-16.303c-4.143 0-7.5 3.358-7.5 7.5s3.358 7.5 7.5 7.5z"/><path d="m145.937 24.448 13.475 9.175c1.293.88 2.761 1.301 4.215 1.301 2.398 0 4.755-1.148 6.206-3.279 2.331-3.424 1.446-8.089-1.978-10.42l-13.475-9.175c-3.425-2.332-8.09-1.445-10.421 1.978s-1.446 8.088 1.978 10.42z"/><path d="m159.411 146.262-13.475 9.176c-3.424 2.332-4.309 6.997-1.978 10.42 1.451 2.132 3.808 3.279 6.206 3.279 1.453 0 2.923-.421 4.215-1.301l13.475-9.176c3.424-2.332 4.309-6.997 1.978-10.42-2.33-3.423-6.996-4.31-10.421-1.978z"/></g></g></svg>