<svg id="Capa_1" enable-background="new 0 0 512.696 512.696" height="512" viewBox="0 0 512.696 512.696" width="512" xmlns="http://www.w3.org/2000/svg"><g><g><g id="XMLID_188_"><g><path d="m482.858 242.848c0 30.26-18.73 56.13-45.23 66.68-3.67 1.46-5.93 5.01-5.93 8.81 0 .79.09 1.59.3 2.39 8.79 34.09-8.78 68.62-39.73 82.4-1.96.87-3.54 2.3-4.65 4.04-1.1 1.74-1.71 3.8-1.71 5.94 0 37.79-30.64 68.43-68.43 68.43-23.02 0-43.37-11.37-55.77-28.79-2.6-3.65-8.12-3.65-10.72 0-12.4 17.42-32.75 28.79-55.77 28.79-18.89 0-36-7.66-48.39-20.04-12.38-12.39-20.04-29.49-20.04-48.39 0-4.28-2.45-8.24-6.36-9.98-25.56-11.38-41.99-36.91-41.99-64.66 0-5.85.73-11.8 2.26-17.74 1.19-4.62-1.2-9.44-5.63-11.2-26.5-10.55-45.23-36.42-45.23-66.68 0-39.63 32.13-71.76 71.76-71.76h.02c1.06 0 1.74-1.09 1.29-2.04-5.37-11.52-8.31-24.41-8.14-37.99.6-48.21 40.76-87.12 88.96-86.27 27.13.48 51.24 13.32 66.95 33.13 2.89 3.66 8.45 3.66 11.34 0 15.71-19.81 39.82-32.65 66.95-33.13 48.2-.85 88.36 38.06 88.96 86.27.17 13.58-2.77 26.47-8.14 37.99-.45.95.23 2.04 1.29 2.04h.02c39.63 0 71.76 32.13 71.76 71.76z" fill="#e79098"/></g></g><g><path d="m220.022 443.773c-13.112-11.708-21.225-27.868-21.225-45.728 0-4.045-2.595-7.787-6.736-9.431-27.072-10.754-44.473-34.88-44.473-61.104 0-5.528.773-11.151 2.394-16.764 1.26-4.366-1.271-8.921-5.963-10.584-28.067-9.97-47.905-34.417-47.905-63.012 0-37.45 34.03-67.813 76.004-67.813h.021c1.123 0 1.843-1.03 1.366-1.928-5.688-10.886-8.801-23.067-8.621-35.9.483-34.593 25.126-64.114 59.308-75.971-12.043-6.621-25.811-10.491-40.463-10.75-48.2-.85-88.36 38.06-88.96 86.27-.17 13.58 2.77 26.47 8.14 37.99.45.95-.23 2.04-1.29 2.04h-.02c-39.63 0-71.76 32.13-71.76 71.76 0 30.26 18.73 56.13 45.23 66.68 4.43 1.76 6.82 6.58 5.63 11.2-1.53 5.94-2.26 11.89-2.26 17.74 0 27.75 16.43 53.28 41.99 64.66 3.91 1.74 6.36 5.7 6.36 9.98 0 18.9 7.66 36 20.04 48.39 12.39 12.38 29.5 20.04 48.39 20.04 20.265 0 38.457-8.814 50.982-22.806-9.928-3.267-18.837-8.413-26.179-14.959z" fill="#e17983"/></g><g fill="#fbe88c"><path d="m457.822 49.759 14.835-38.597c1.026-2.669 4.08-4.091 6.785-3.165 11.732 4.016 20.163 11.669 25.294 22.958 1.183 2.603.063 5.78-2.495 7.059l-36.983 18.496c-4.397 2.198-9.2-2.162-7.436-6.751z"/><path d="m54.874 49.759-14.835-38.598c-1.026-2.669-4.08-4.091-6.785-3.165-11.731 4.017-20.163 11.669-25.294 22.958-1.183 2.603-.063 5.78 2.495 7.059l36.983 18.496c4.397 2.199 9.201-2.161 7.436-6.75z"/><path d="m457.822 461.938 14.835 38.597c1.026 2.669 4.08 4.091 6.785 3.165 11.732-4.016 20.163-11.669 25.294-22.958 1.183-2.603.063-5.78-2.495-7.059l-36.983-18.496c-4.397-2.198-9.2 2.161-7.436 6.751z"/><path d="m54.874 461.938-14.835 38.597c-1.026 2.669-4.08 4.091-6.785 3.165-11.732-4.016-20.163-11.669-25.294-22.958-1.183-2.603-.063-5.78 2.495-7.059l36.983-18.496c4.397-2.198 9.201 2.161 7.436 6.751z"/></g></g><g><path d="m424.24 375.434c-3.295-2.512-8.001-1.877-10.512 1.417-6.432 8.436-14.907 15.154-24.508 19.428-6.571 2.925-10.814 9.531-10.812 16.827 0 33.6-27.336 60.936-60.936 60.936-19.664 0-38.227-9.584-49.656-25.64-2.627-3.689-6.914-5.892-11.469-5.892s-8.842 2.203-11.47 5.893c-11.429 16.054-29.991 25.639-49.655 25.639-33.6 0-60.936-27.336-60.936-60.933.003-7.299-4.24-13.904-10.811-16.829-28.333-12.614-43.269-43.602-35.513-73.683 2.134-8.277-2.218-16.892-10.123-20.04-24.603-9.797-40.499-33.233-40.499-59.708 0-35.431 28.825-64.257 64.275-64.257h.005c3.063 0 5.875-1.541 7.521-4.122 1.651-2.59 1.862-5.802.562-8.594-5.087-10.908-7.589-22.592-7.438-34.727.163-13.106 3.622-26.091 10.006-37.552 2.015-3.619.715-8.187-2.903-10.202-3.619-2.014-8.186-.715-10.202 2.903-7.591 13.631-11.706 29.076-11.898 44.665-.143 11.436 1.703 22.54 5.494 33.118-39.562 4.406-70.422 38.05-70.422 78.768 0 32.654 19.606 61.561 49.95 73.644.907.361 1.4 1.376 1.146 2.359-9.591 37.201 8.887 75.526 43.938 91.131 1.162.517 1.912 1.741 1.911 3.123 0 41.871 34.064 75.936 75.936 75.936 24.08 0 46.834-11.529 61.125-30.904 14.292 19.375 37.045 30.904 61.125 30.904 41.871 0 75.936-34.065 75.936-75.94-.001-1.377.749-2.601 1.912-3.119 11.893-5.294 22.383-13.606 30.335-24.037 2.513-3.295 1.88-8.001-1.414-10.512z"/><path d="m440.404 316.492c30.344-12.083 49.95-40.989 49.95-73.644 0-40.709-30.851-74.349-70.423-78.766 3.792-10.58 5.638-21.684 5.495-33.12-.314-25.309-10.57-49.03-28.878-66.795-18.323-17.782-42.331-27.324-67.713-26.881-28.361.501-54.763 13.516-72.487 35.72-17.725-22.203-44.126-35.219-72.488-35.72-22.716-.388-44.969 7.483-62.525 22.202-3.174 2.661-3.59 7.392-.929 10.566 2.66 3.174 7.392 3.589 10.565.929 14.786-12.396 33.493-19.042 52.624-18.699 23.968.423 46.274 11.465 61.201 30.295 1.141 1.44 2.521 2.616 4.052 3.523v51.388c0 15.169-12.341 27.511-27.511 27.511-4.143 0-7.5 3.358-7.5 7.5s3.357 7.5 7.5 7.5c14.508 0 27.336-7.31 35.011-18.436 7.674 11.126 20.502 18.436 35.011 18.436 4.143 0 7.5-3.358 7.5-7.5s-3.357-7.5-7.5-7.5c-15.17 0-27.511-12.341-27.511-27.511v-51.387c1.53-.907 2.91-2.082 4.051-3.522 14.928-18.831 37.234-29.873 61.202-30.296 21.321-.406 41.562 7.667 57.002 22.647 15.421 14.964 24.06 34.929 24.325 56.217.15 12.134-2.352 23.818-7.439 34.729-1.299 2.79-1.088 6.001.563 8.591 1.646 2.582 4.458 4.122 7.542 4.122h.004c35.431 0 64.256 28.826 64.256 64.257 0 26.475-15.896 49.912-40.499 59.708-7.905 3.147-12.257 11.763-10.123 20.04 2.359 9.15 2.661 18.464.896 27.684-.779 4.068 1.888 7.998 5.955 8.777.478.091.951.135 1.42.135 3.525 0 6.67-2.5 7.357-6.091 2.186-11.413 1.814-22.937-1.103-34.25-.254-.983.24-1.998 1.147-2.359z"/><path d="m298.859 259.191c0-4.142-3.357-7.5-7.5-7.5-14.508 0-27.336 7.31-35.011 18.436-7.674-11.126-20.502-18.436-35.011-18.436-4.143 0-7.5 3.358-7.5 7.5s3.357 7.5 7.5 7.5c15.17 0 27.511 12.341 27.511 27.511v10.908c0 4.142 3.357 7.5 7.5 7.5s7.5-3.358 7.5-7.5v-10.908c0-15.169 12.341-27.511 27.511-27.511 4.142 0 7.5-3.358 7.5-7.5z"/><path d="m256.348 369.589c-4.143 0-7.5 3.358-7.5 7.5v7.962c0 9.956-8.101 18.056-18.057 18.056-4.143 0-7.5 3.358-7.5 7.5s3.357 7.5 7.5 7.5c10.287 0 19.489-4.724 25.557-12.115 6.067 7.391 15.27 12.115 25.557 12.115 4.143 0 7.5-3.358 7.5-7.5s-3.357-7.5-7.5-7.5c-9.956 0-18.057-8.1-18.057-18.056v-7.962c0-4.142-3.357-7.5-7.5-7.5z"/><path d="m347.269 245.799c0 4.142 3.357 7.5 7.5 7.5s7.5-3.358 7.5-7.5v-5.774c0-13.275 5.68-25.959 15.582-34.8 3.09-2.759 3.358-7.5.6-10.589-2.759-3.09-7.5-3.359-10.59-.6-13.086 11.684-20.592 28.446-20.592 45.99z"/><path d="m144.835 194.035c-3.091-2.76-7.832-2.49-10.59.6-2.759 3.09-2.49 7.831.6 10.589 9.902 8.841 15.582 21.525 15.582 34.8v5.774c0 4.142 3.357 7.5 7.5 7.5s7.5-3.358 7.5-7.5v-5.774c0-17.544-7.506-34.306-20.592-45.989z"/><path d="m176.116 305.4-.962.603c-17.905 11.221-28.596 30.535-28.596 51.666v1.655c0 4.142 3.357 7.5 7.5 7.5s7.5-3.358 7.5-7.5v-1.655c0-15.933 8.06-30.495 21.562-38.957l.964-.604c3.51-2.201 4.57-6.83 2.369-10.339-2.2-3.508-6.829-4.568-10.337-2.369z"/><path d="m326.243 307.77c-2.201 3.509-1.141 8.138 2.369 10.339l.966.606c13.501 8.46 21.561 23.022 21.561 38.955v1.655c0 4.142 3.357 7.5 7.5 7.5s7.5-3.358 7.5-7.5v-1.655c0-21.131-10.69-40.445-28.594-51.665l-.964-.604c-3.508-2.201-8.137-1.142-10.338 2.369z"/><path d="m175.249 104.848c-13.82 4.83-23.105 17.911-23.105 32.551v4.093c0 4.142 3.357 7.5 7.5 7.5s7.5-3.358 7.5-7.5v-4.093c0-8.271 5.246-15.662 13.055-18.391 3.91-1.367 5.972-5.644 4.605-9.554s-5.639-5.973-9.555-4.606z"/><path d="m337.447 104.848c-3.916-1.367-8.189.696-9.555 4.606s.695 8.188 4.605 9.554c7.809 2.729 13.055 10.12 13.055 18.391v4.093c0 4.142 3.357 7.5 7.5 7.5s7.5-3.358 7.5-7.5v-4.093c0-14.64-9.285-27.721-23.105-32.551z"/><path d="m454.189 61.233c2.438 2.212 5.516 3.359 8.638 3.359 1.96 0 3.938-.452 5.786-1.376l36.983-18.496c6.126-3.063 8.804-10.63 5.968-16.871-5.995-13.188-15.985-22.256-29.692-26.949-6.479-2.217-13.757 1.175-16.216 7.57l-14.835 38.598c-1.923 5.003-.601 10.563 3.368 14.165zm24.723-45.441c8.154 3.236 14.108 8.639 18.116 16.442l-30.25 15.128z"/><path d="m7.1 44.721 36.983 18.496c1.849.925 3.826 1.376 5.786 1.376 3.122 0 6.199-1.147 8.638-3.359 3.969-3.602 5.291-9.162 3.368-14.165l-14.835-38.6c-2.458-6.394-9.73-9.79-16.215-7.569-13.707 4.693-23.698 13.761-29.694 26.952-2.835 6.238-.157 13.806 5.969 16.869zm26.685-28.929 12.134 31.57-30.25-15.128c4.008-7.802 9.961-13.206 18.116-16.442z"/><path d="m505.596 466.976-36.983-18.496c-4.794-2.398-10.455-1.619-14.424 1.983s-5.291 9.162-3.368 14.165l14.836 38.599c1.947 5.065 6.918 8.249 12.123 8.249 1.364 0 2.745-.219 4.092-.68 13.707-4.693 23.697-13.76 29.693-26.951 2.835-6.239.157-13.806-5.969-16.869zm-26.684 28.928-12.134-31.57 30.25 15.128c-4.009 7.803-9.962 13.206-18.116 16.442z"/><path d="m58.507 450.463c-3.97-3.602-9.631-4.38-14.424-1.983l-36.983 18.496c-6.126 3.063-8.804 10.63-5.968 16.871 5.995 13.189 15.985 22.256 29.692 26.949 1.347.461 2.727.68 4.092.68 5.204 0 10.176-3.184 12.124-8.25l14.835-38.598c1.923-5.003.601-10.563-3.368-14.165zm-24.722 45.441c-8.154-3.236-14.108-8.639-18.116-16.442l30.25-15.128z"/><path d="m256.348 34.003c4.143 0 7.5-3.358 7.5-7.5v-18.79c0-4.142-3.357-7.5-7.5-7.5s-7.5 3.358-7.5 7.5v18.79c0 4.142 3.358 7.5 7.5 7.5z"/><path d="m256.348 478.693c-4.143 0-7.5 3.358-7.5 7.5v18.79c0 4.142 3.357 7.5 7.5 7.5s7.5-3.358 7.5-7.5v-18.79c0-4.142-3.357-7.5-7.5-7.5z"/><path d="m8.112 405.036c1.456 2.104 3.795 3.232 6.174 3.232 1.472 0 2.959-.432 4.261-1.333l21.36-14.782c3.406-2.357 4.257-7.029 1.899-10.436-2.356-3.406-7.028-4.256-10.435-1.899l-21.36 14.782c-3.406 2.358-4.257 7.03-1.899 10.436z"/><path d="m35.632 134.21c2.379 0 4.718-1.129 6.174-3.232 2.357-3.406 1.507-8.078-1.899-10.436l-21.36-14.782c-3.405-2.357-8.078-1.506-10.435 1.899-2.357 3.406-1.507 8.078 1.899 10.436l21.36 14.782c1.302.901 2.79 1.333 4.261 1.333z"/><path d="m502.685 394.601-21.36-14.782c-3.406-2.356-8.078-1.505-10.435 1.899-2.357 3.406-1.507 8.078 1.899 10.436l21.36 14.782c1.302.901 2.789 1.333 4.261 1.333 2.379 0 4.718-1.129 6.174-3.232 2.358-3.407 1.507-8.079-1.899-10.436z"/><path d="m504.584 107.66c-2.357-3.405-7.028-4.256-10.435-1.899l-21.36 14.782c-3.406 2.357-4.257 7.029-1.899 10.436 1.456 2.104 3.795 3.232 6.174 3.232 1.472 0 2.959-.432 4.261-1.333l21.36-14.782c3.406-2.358 4.257-7.03 1.899-10.436z"/></g></g></svg>