<svg id="Capa_1" enable-background="new 0 0 512.724 512.724" height="512" viewBox="0 0 512.724 512.724" width="512" xmlns="http://www.w3.org/2000/svg"><g><g><g><g id="XMLID_213_"><path d="m247.376 229.881c-7.115 5.897-17.669 4.99-23.676-2.07-.006-.008-.006-.008-.013-.015-6.052-7.127-5.177-17.811 1.95-23.863l11.171-9.493c-7.12 6.045-17.797 5.178-23.85-1.935-.006-.008-.006-.008-.013-.015-6.052-7.127-5.177-17.811 1.95-23.863l89.73-76.185c8.322-7.055 17.515-12.948 27.312-17.529s20.206-7.872 30.954-9.73l40.939-35.06 82.032 96.401-39.925 33.922-6.997 25.754c-4.156 15.315-12.856 29.008-24.956 39.277l-45.239 38.417c-7.729 6.564-19.309 5.624-25.874-2.091-.013-.015-.019-.023-.026-.03-6.564-7.729-5.632-19.302 2.083-25.867l-57.908 49.159c-7.12 6.045-17.791 5.186-23.837-1.92-.013-.015-.019-.023-.026-.03-6.045-7.12-5.186-17.791 1.927-23.844l-11.46 9.725c-7.12 6.045-17.798 5.192-23.851-1.921-.006-.008-.006-.008-.013-.015-6.052-7.127-5.184-17.819 1.944-23.871z" fill="#fff3e0"/></g></g><path d="m419.903 49.01-16.072-18.887-40.939 35.06c-10.748 1.859-21.157 5.149-30.954 9.73s-18.99 10.474-27.312 17.529l-89.73 76.185c-7.127 6.052-8.002 16.736-1.95 23.863.006.008.006.008.013.015 3.21 3.772 7.722 5.769 12.313 5.928.456-4.149 2.423-8.141 5.856-11.056l89.73-76.185c8.322-7.055 17.515-12.948 27.312-17.529 8.266-3.865 16.968-6.812 25.941-8.754 3.345-.724 6.473-2.226 9.072-4.452l.426-.365c6.136-5.255 15.34-4.674 20.767 1.311l53.758 59.292c1.652 1.822 3.556 3.363 5.631 4.604l22.099-18.776z" fill="#ffe6c6"/><g fill="#ffe6c6"><path d="m247.937 261.94 15.671-13.309c-7.115 5.897-17.669 4.99-23.676-2.07-.006-.008-.006-.008-.013-.015-1.842-2.169-3.033-4.669-3.611-7.266l-4.603 3.909c-7.127 6.052-7.995 16.743-1.944 23.871.007.008.007.008.013.015 3.209 3.771 7.72 5.764 12.31 5.92.456-4.149 2.421-8.14 5.853-11.055z"/><path d="m281.317 278.022-11.46 9.725c-.044.038-.092.068-.137.105 1.842.743 3.792 1.143 5.76 1.211.455-4.143 2.413-8.128 5.837-11.041z"/><path d="m241.869 222.683 11.171-9.493c-7.12 6.045-17.797 5.178-23.85-1.935-.006-.008-.006-.008-.013-.015-1.837-2.163-3.026-4.656-3.605-7.246-7.064 6.062-7.917 16.697-1.884 23.802.006.008.006.008.013.015 3.211 3.774 7.723 5.771 12.313 5.929.455-4.15 2.422-8.142 5.855-11.057z"/></g><path d="m240.643 254.71c6.547 6.522 6.648 17.114.192 23.766-.007.007-.007.007-.014.014-6.519 6.702-17.238 6.848-23.94.329l-10.513-10.218c6.695 6.512 6.848 17.224.343 23.926-.007.007-.007.007-.014.014-6.519 6.702-17.238 6.848-23.94.329l-84.375-82.076c-7.815-7.613-14.555-16.204-20.047-25.52s-9.758-19.366-12.631-29.888l-38.796-37.418 88.161-90.83 37.566 36.517 26.304 4.516c15.64 2.68 30.099 10.039 41.473 21.106l42.546 41.379c7.269 7.07 7.435 18.686.38 25.955-.014.014-.021.022-.028.029-7.07 7.269-18.679 7.442-25.948.387l54.444 52.969c6.695 6.512 6.855 17.217.357 23.912-.014.014-.021.022-.028.029-6.512 6.695-17.217 6.855-23.919.35l10.771 10.482c6.695 6.512 6.862 17.224.357 23.926-.007.007-.007.007-.014.014-6.519 6.702-17.245 6.855-23.947.336z" fill="#f8d3aa"/><path d="m197.566 279.025-84.375-82.076c-7.815-7.613-14.555-16.204-20.047-25.52-4.283-7.266-7.821-14.977-10.533-23.011-1.584-4.691-4.243-8.946-7.806-12.383l-.326-.314c-5.012-4.834-5.153-12.816-.315-17.824l63.012-65.224c.682-.706 1.308-1.446 1.889-2.208l-23.291-22.641-.706-.686-88.161 90.83 38.796 37.418c2.872 10.523 7.138 20.572 12.631 29.888 5.492 9.317 12.233 17.907 20.047 25.52l84.375 82.076c6.702 6.519 17.421 6.374 23.94-.329l.014-.014c2.442-2.516 3.945-5.597 4.517-8.808-4.849.532-9.89-1.026-13.661-4.694z" fill="#fabf8e"/><g><g id="XMLID_210_"><circle cx="267.341" cy="239.281" fill="#f8d3aa" r="18.203"/><path d="m271.973 248.326c.12-9.24 7.65-16.69 16.92-16.69h.02c9.35.01 16.92 7.6 16.91 16.95l-.01 14.66c.01-9.34 7.59-16.91 16.93-16.91h.02c9.35.01 16.92 7.6 16.91 16.95l-.13 117.71c-.02 10.91-1.49 21.73-4.35 32.16s-7.1 20.49-12.65 29.88l.17 53.9h-126.58l.04-52.39-15.08-22.02c-8.97-13.09-13.76-28.59-13.74-44.46l.06-59.35c.01-10.14 8.23-18.35 18.36-18.35h.04c10.14.01 18.35 8.22 18.35 18.35l.09-75.96c.01-9.34 7.58-16.91 16.91-16.91h.04c9.34.01 16.91 7.58 16.91 16.92l.02-15.03c.01-9.34 7.58-16.92 16.92-16.92h.02c9.35.01 16.93 7.6 16.92 16.95z" fill="#ffe0d1"/><path d="m253.678 227.736c.007-6.537 3.718-12.224 9.147-15.041-2.325-1.205-4.953-1.876-7.752-1.879-.01 0-.01 0-.02 0-9.34 0-16.91 7.58-16.92 16.92l-.11 87.74c8.588 0 15.553-6.956 15.564-15.545z" fill="#ffd1c2"/><g><path d="m286.616 248.546c0-.07 0-.15.01-.22.086-6.62 3.985-12.327 9.593-15.027-2.214-1.066-4.685-1.66-7.306-1.663-.01 0-.01 0-.02 0-9.27 0-16.8 7.45-16.92 16.69-.01.07-.01.15-.01.22l-.08 70.21c8.095 0 14.66-6.558 14.67-14.653z" fill="#ffd1c2"/></g></g></g><g fill="#ffd1c2"><path d="m320.954 263.246c.007-6.616 3.818-12.351 9.356-15.129-2.275-1.141-4.829-1.778-7.547-1.781-.01 0-.01 0-.02 0-9.34 0-16.92 7.57-16.93 16.91l.01 58.06c.046 0 .092 0 .138-.001 8.294-.034 15.002-6.768 15.001-15.062z"/><path d="m219.653 242.756c.007-6.568 3.749-12.27 9.216-15.07-2.305-1.179-4.899-1.837-7.666-1.84-.01 0-.02 0-.04 0-9.33 0-16.9 7.57-16.91 16.91l-.09 75.96v.04l-.02 25.89c8.507 0 15.405-6.893 15.412-15.4z"/><path d="m322.62 467.592c-1.039-.135-94.014-.314-94.014-.314-5.758-.006-10.422-4.679-10.418-10.437l.004-5.113c.006-8.055-2.426-15.923-6.978-22.569l-8.093-11.817c-8.97-13.09-13.76-28.59-13.74-44.46l.06-59.35c.004-4.342 1.523-8.324 4.043-11.465-2.337-1.079-4.929-1.699-7.673-1.701-.01 0-.02 0-.04 0-10.13 0-18.35 8.21-18.36 18.35l-.06 59.35c-.02 15.87 4.77 31.37 13.74 44.46l15.08 22.02-.04 52.39h14.539 112.041z"/></g><path d="m326.052 505.087c1.721.002 3.118-1.39 3.122-3.111l.025-9.811c.006-5.399-4.366-9.781-9.765-9.787l-120.239-.134c-5.399-.006-9.781 4.366-9.787 9.765l-.025 9.802c-.004 1.724 1.391 3.125 3.115 3.127z" fill="#e17983"/><path d="m107.659 10.562 18.491 17.865c3.883 3.752 3.99 9.941.238 13.824l-83.543 86.475c-3.752 3.883-9.941 3.99-13.824.238l-18.491-17.866c-1.673-1.617-1.719-4.284-.103-5.957l91.274-94.477c1.617-1.673 4.285-1.719 5.958-.102z" fill="#b8de9c"/><path d="m501.37 114.691-18.315 16.606c-4 3.627-10.183 3.324-13.809-.676l-80.763-89.077c-3.627-4-3.324-10.183.676-13.809l18.315-16.606c2.129-1.93 5.419-1.769 7.349.36l86.908 95.854c1.929 2.128 1.768 5.418-.361 7.348z" fill="#fbe372"/></g><path d="m510.78 106.158c-2.782-3.068-7.525-3.301-10.594-.519l-22.169 20.1c-.929.842-2.372.773-3.215-.157l-16.208-17.877c-2.782-3.068-7.525-3.301-10.594-.519s-3.301 7.525-.519 10.594l13.228 14.59-22.367 20.28c-1.123 1.018-1.911 2.352-2.26 3.827l-6.156 25.978c-3.323 14.025-10.723 26.555-21.401 36.237l-43.969 39.866c-4.442 4.028-11.333 3.69-15.362-.752-1.951-2.152-2.948-4.936-2.806-7.837s1.405-5.574 3.558-7.525l19.179-17.389c3.069-2.782 3.301-7.525.519-10.594-2.782-3.068-7.525-3.301-10.594-.519l-19.179 17.389c-3.031 2.748-5.314 6.1-6.748 9.807-3.199-1.503-6.715-2.3-10.355-2.304h-.027c-3.772 0-7.347.86-10.541 2.394-.787-2.495-1.967-4.815-3.463-6.895l18.722-16.975c3.069-2.782 3.301-7.525.519-10.594-2.782-3.068-7.525-3.301-10.594-.519l-10.622 9.63c-1.239-3.371-3.239-6.516-5.987-9.171l-5.923-5.722 9.607-8.71c3.069-2.782 3.301-7.525.519-10.594s-7.525-3.301-10.594-.519l-10.343 9.378-21.123-20.407c3.337-1.313 6.454-3.336 9.104-6.079 9.327-9.655 9.625-24.754 1.081-34.762l31.865-28.891c15.166-13.75 33.778-23.208 53.826-27.352 1.312-.271 2.527-.889 3.52-1.789l23.594-21.393 40.079 44.205c1.48 1.633 3.515 2.462 5.559 2.462 1.796 0 3.6-.642 5.035-1.944 3.069-2.782 3.301-7.525.519-10.594l-43.06-47.492c-.843-.93-.772-2.372.158-3.215l22.169-20.101c3.069-2.782 3.301-7.525.519-10.594s-7.524-3.301-10.594-.519l-22.169 20.101c-4.109 3.725-5.99 8.992-5.596 14.136l-24.796 22.482c-21.896 4.893-42.201 15.409-58.837 30.493l-32.51 29.476-33.679-32.53c-12.556-12.13-28.292-20.071-45.508-22.964l-24.034-4.039-22.656-21.888c.557-5.129-1.157-10.453-5.146-14.307l-21.521-20.792c-2.979-2.878-7.727-2.797-10.605.183-2.878 2.979-2.796 7.727.183 10.605l21.521 20.792c.903.873.928 2.317.056 3.22l-83.543 86.475c-.542.561-1.167.687-1.598.694-.424-.008-1.061-.098-1.621-.639l-21.522-20.792c-2.979-2.878-7.727-2.796-10.605.183s-2.796 7.727.183 10.605l21.521 20.792c3.246 3.136 7.495 4.852 11.996 4.852.102 0 .204-.001.306-.003.738-.013 1.464-.088 2.183-.191l24.062 23.247c6.33 21.524 18.165 41.09 34.315 56.693l15.652 15.122c1.456 1.406 3.334 2.106 5.21 2.106 1.963 0 3.923-.766 5.395-2.289 2.878-2.979 2.796-7.727-.183-10.605l-15.652-15.122c-14.723-14.224-25.391-32.17-30.85-51.9-.357-1.291-1.054-2.463-2.018-3.394l-22.905-22.128 77.376-80.092 21.715 20.979c1.09 1.053 2.473 1.751 3.968 2.002l26.328 4.425c14.214 2.389 27.207 8.944 37.573 18.959l42.685 41.238c4.313 4.167 4.432 11.065.266 15.377-3.714 3.844-9.595 4.347-13.884 1.461l-20.113-19.184c-2.979-2.878-7.727-2.797-10.605.183-2.878 2.979-2.796 7.727.183 10.605l73.537 70.797c1.973 1.906 2.945 4.466 2.87 7.029-1.396-.251-2.831-.39-4.299-.391h-.027c-3.357 0-6.558.681-9.473 1.912-.402-5.874-2.872-11.343-7.071-15.551-4.609-4.619-10.741-7.167-17.266-7.174h-.029c-2.054 0-4.069.253-6.011.742l-26.718-25.812c-2.979-2.878-7.728-2.797-10.605.183-2.878 2.979-2.796 7.727.183 10.605l24.162 23.343c-2.013 2.478-3.502 5.292-4.407 8.307-3.225-1.533-6.776-2.344-10.453-2.348h-.028c-1.858 0-3.683.213-5.452.615l-16.927-16.353c-2.979-2.878-7.727-2.797-10.605.183-2.878 2.979-2.796 7.727.183 10.605l14.121 13.642c-3.712 4.392-5.743 9.893-5.749 15.711l-.005 4.954-21.471-20.743c-2.979-2.878-7.727-2.797-10.605.183-2.878 2.979-2.796 7.727.183 10.605l31.87 30.789-.027 23.917c-1.824-.31-3.548-1.145-4.944-2.494l-46.012-44.452c-2.979-2.878-7.728-2.797-10.605.183-2.878 2.979-2.796 7.727.183 10.605l40.096 38.737c-2.908 1.273-5.585 3.084-7.899 5.393-4.893 4.881-7.591 11.376-7.599 18.288l-.066 59.351c-.02 17.458 5.185 34.299 15.05 48.702l13.771 20.106-.035 31.489c-.574.445-1.133.914-1.655 1.436-3.267 3.259-5.069 7.596-5.074 12.199l-.034 12.925c-.011 4.142 3.338 7.509 7.48 7.52h.02c4.133 0 7.489-3.345 7.5-7.48l.034-12.936c.001-.779.364-1.305.668-1.609s.789-.685 1.61-.665l120.238.133c1.255.001 2.275 1.024 2.274 2.269l-.033 12.924c-.011 4.142 3.338 7.508 7.481 7.519h.02c4.133 0 7.489-3.345 7.5-7.481l.033-12.935c.007-5.547-2.626-10.481-6.699-13.649l.037-33.471c11.104-19.494 16.977-41.594 17.001-64.05l.008-6.836c.005-4.143-3.349-7.504-7.491-7.509h-.009c-4.138 0-7.495 3.353-7.5 7.491l-.008 6.836c-.023 20.471-5.54 40.606-15.956 58.229-.682 1.153-1.042 2.468-1.043 3.808l-.036 31.849-111.363-.124.034-30.193c.001-1.516-.456-2.996-1.312-4.247l-15.086-22.026c-8.145-11.891-12.441-25.795-12.425-40.209l.066-59.351c.003-2.905 1.138-5.635 3.194-7.687 2.053-2.048 4.781-3.176 7.681-3.176h.013c5.997.007 10.87 4.891 10.863 10.887l-.029 25.889c-.004 4.142 3.35 7.504 7.492 7.508h.008c4.138 0 7.496-3.353 7.5-7.492l.029-25.889.084-76.005c.003-2.519.986-4.886 2.77-6.665 1.78-1.776 4.146-2.754 6.66-2.754h.011c2.519.003 4.886.986 6.665 2.77s2.757 4.152 2.754 6.671l-.084 76.005c-.004 4.142 3.35 7.504 7.492 7.508h.008c3.88 0 7.073-2.947 7.461-6.725.026-.252.039-.508.039-.766l.102-91.063c.003-2.519.986-4.886 2.77-6.665 1.78-1.776 4.145-2.754 6.66-2.754h.011c2.519.003 4.886.986 6.665 2.77 1.779 1.783 2.757 4.152 2.754 6.671l-.101 91.063c-.004 4.142 3.35 7.504 7.492 7.508h.008c3.88 0 7.073-2.947 7.461-6.725.026-.252.039-.508.039-.766l.078-70.287c.003-2.519.986-4.886 2.77-6.665 1.78-1.777 4.146-2.755 6.661-2.755h.01c5.2.006 9.426 4.241 9.42 9.441l-.078 70.287c-.004 4.142 3.35 7.504 7.492 7.508h.008c3.88 0 7.073-2.947 7.461-6.725.026-.252.039-.508.039-.766l.062-55.629c.009-5.193 4.237-9.414 9.43-9.414h.01c2.519.003 4.886.986 6.665 2.77 1.779 1.783 2.757 4.152 2.754 6.671l-.087 78.838c-.004 4.142 3.35 7.504 7.492 7.508h.008c4.138 0 7.496-3.353 7.5-7.492l.075-67.793c2.764 1.169 5.741 1.857 8.828 2.008.433.021.864.032 1.295.032 6.433 0 12.551-2.355 17.35-6.707l43.969-39.866c12.934-11.727 21.897-26.904 25.922-43.891l5.619-23.714 23.328-21.151c.716.126 1.439.224 2.176.26.289.014.577.021.864.021 4.295 0 8.38-1.573 11.584-4.479l22.169-20.1c3.071-2.782 3.302-7.525.52-10.594z"/></g></svg>