<svg id="Capa_1" enable-background="new 0 0 512.451 512.451" height="512" viewBox="0 0 512.451 512.451" width="512" xmlns="http://www.w3.org/2000/svg"><g><g><g><path d="m227.788 33.598h56.874v92.097h-56.874z" fill="#f2eae7"/></g><g><path d="m414.96 173.003 22.569-24.746c3.663-4.016 3.376-10.24-.639-13.903l-29.457-26.866c-4.016-3.662-10.24-3.376-13.903.64l-22.312 24.463-18.113 20.39 39.957 41.639z" fill="#f2eae7"/></g><path d="m141.231 132.591-22.312-24.463c-3.663-4.016-9.887-4.302-13.903-.64l-29.457 26.866c-4.016 3.662-4.302 9.887-.639 13.903l22.569 24.746s20.38 23.275 20.38 21.666 44.683-40.905 44.683-40.905z" fill="#f2eae7"/><circle cx="256.225" cy="301.019" fill="#e79098" r="203.931"/><g><path d="m125.616 308.52c0-92.946 53.945-173.292 132.244-211.42-.551-.004-1.083-.011-1.636-.011-112.628 0-203.931 91.303-203.931 203.931 0 103.333 76.84 188.72 176.507 202.109-62.28-42.27-103.184-113.668-103.184-194.609z" fill="#e17983"/><path d="m370.735 415.531.01.01c-29.31 29.3-69.8 47.43-114.52 47.43-89.44 0-161.95-72.51-161.95-161.95s72.51-161.95 161.95-161.95v121.44 36.62l28.64 32.53z" fill="#f9f7f7"/><path d="m180.071 158.048c-51.059 27.251-85.796 81.057-85.796 142.973 0 53.552 26.008 101.045 66.068 130.528-22.017-35.784-34.726-77.933-34.726-123.029-.001-57.24 20.448-109.707 54.454-150.472z" fill="#f8f3f2"/><path d="m256.225 139.071c89.44 0 161.95 72.51 161.95 161.95 0 44.72-18.13 85.21-47.43 114.52l-.01-.01-85.87-85.87-28.64-32.53v-36.62z" fill="#f2eae7"/></g><g><circle cx="256.225" cy="301.019" fill="#e79098" r="40.506"/><path d="m239.676 301.013c0-18.197 11.991-33.598 28.509-38.71-3.782-1.168-7.793-1.79-11.959-1.79-22.371 0-40.506 18.135-40.506 40.507 0 22.371 18.135 40.506 40.506 40.506 4.175 0 8.201-.633 11.99-1.805-16.53-5.105-28.54-20.503-28.54-38.708z" fill="#e17983"/><path d="m296.978 65.027h-80.505c-7.191 0-13.021-5.83-13.021-13.021v-31.485c0-7.191 5.83-13.021 13.021-13.021h80.505c7.191 0 13.021 5.83 13.021 13.021v31.485c0 7.192-5.83 13.021-13.021 13.021z" fill="#e79098"/><path d="m236.722 7.5h40.007v57.527h-40.007z" fill="#e17983"/></g></g><g><path d="m424.711 173.441 18.359-20.129c3.122-3.422 4.724-7.856 4.511-12.483-.213-4.626-2.215-8.894-5.638-12.015l-29.456-26.866c-3.423-3.122-7.868-4.715-12.482-4.51-4.627.213-8.895 2.215-12.015 5.637l-18.037 19.776c-23.238-14.885-49.568-25.34-77.79-30.193v-20.13h4.814c11.315 0 20.521-9.206 20.521-20.521v-31.486c.001-11.315-9.206-20.521-20.521-20.521h-80.504c-11.315 0-20.521 9.206-20.521 20.521v31.485c0 11.315 9.206 20.521 20.521 20.521h3.815v20.13c-28.222 4.853-54.552 15.308-77.79 30.193l-18.037-19.776c-3.122-3.422-7.389-5.424-12.016-5.637-4.626-.204-9.061 1.389-12.483 4.51l-29.457 26.866c-7.064 6.444-7.57 17.434-1.126 24.498l18.359 20.13c-26.935 35.485-42.945 79.694-42.945 127.578 0 46.138 14.601 89.981 42.224 126.789 2.487 3.313 7.188 3.984 10.5 1.497 3.313-2.486 3.983-7.188 1.497-10.5-25.658-34.19-39.221-74.92-39.221-117.785 0-108.312 88.119-196.431 196.431-196.431s196.432 88.119 196.432 196.431-88.119 196.431-196.432 196.431c-51.355 0-99.935-19.702-136.792-55.478-2.972-2.885-7.72-2.814-10.605.158s-2.814 7.72.158 10.605c39.671 38.507 91.962 59.714 147.239 59.714 116.584 0 211.432-94.848 211.432-211.431.001-47.884-16.01-92.093-42.945-127.578zm-180.489-115.914v-42.527h25.006v42.527zm58.277-37.006v31.485c0 3.044-2.477 5.521-5.521 5.521h-12.749v-42.527h12.749c3.044 0 5.521 2.477 5.521 5.521zm-91.547 31.485v-31.485c0-3.044 2.477-5.521 5.521-5.521h12.749v42.527h-12.749c-3.045 0-5.521-2.476-5.521-5.521zm-113.621 109.692-16.868-18.494c-.541-.592-.629-1.243-.609-1.685.021-.442.169-1.082.761-1.622l29.457-26.866c.592-.54 1.24-.63 1.685-.609.362.017 1.054.138 1.622.761l16.674 18.282c-11.942 8.909-22.908 19.053-32.722 30.233zm137.957-71.074v-18.097h41.875v18.097c-6.889-.68-13.872-1.036-20.938-1.036-7.065 0-14.048.356-20.937 1.036zm147.11 40.841 16.675-18.282c.568-.623 1.26-.744 1.621-.761.45-.021 1.093.069 1.686.609l29.456 26.866c.623.569.744 1.26.761 1.622.021.442-.068 1.092-.608 1.685l-16.868 18.494c-9.816-11.18-20.782-21.324-32.723-30.233z"/><path d="m369.823 196.387c2.808 3.045 7.552 3.241 10.599.433 3.046-2.807 3.239-7.552.433-10.598-32.009-34.733-77.435-54.653-124.629-54.653-93.436 0-169.451 76.015-169.451 169.451s76.015 169.45 169.45 169.45 169.451-76.015 169.451-169.451c0-31.162-8.535-61.628-24.683-88.105-2.156-3.538-6.771-4.654-10.309-2.499-3.536 2.157-4.654 6.772-2.498 10.309 14.713 24.125 22.489 51.89 22.489 80.295 0 39.89-15.201 76.295-40.114 103.73l-75.525-75.525c5.775-7.925 9.194-17.671 9.194-28.205 0-23.919-17.586-43.805-40.507-47.417v-106.843c40.301 1.978 78.623 19.813 106.1 49.628zm-161.604 104.633c0 26.471 21.536 48.006 48.006 48.006 10.534 0 20.281-3.419 28.206-9.194l75.525 75.525c-25.705 23.342-59.287 38.154-96.231 39.929v-7.689c0-4.142-3.357-7.5-7.5-7.5-4.142 0-7.5 3.358-7.5 7.5v7.689c-36.943-1.775-70.525-16.587-96.23-39.929l5.388-5.388c2.929-2.929 2.929-7.678 0-10.606-2.929-2.929-7.678-2.929-10.606 0l-5.388 5.388c-23.342-25.705-38.154-59.287-39.929-96.23h7.689c4.142 0 7.5-3.358 7.5-7.5s-3.358-7.5-7.5-7.5h-7.689c1.775-36.943 16.587-70.525 39.929-96.23l5.388 5.388c1.464 1.464 3.384 2.197 5.303 2.197s3.839-.732 5.303-2.197c2.929-2.929 2.929-7.678 0-10.606l-5.388-5.388c25.705-23.342 59.287-38.154 96.23-39.929v106.849c-22.92 3.61-40.506 23.495-40.506 47.415zm81.013 0c0 18.2-14.807 33.006-33.007 33.006s-33.006-14.807-33.006-33.006 14.807-33.006 33.006-33.006c18.2-.001 33.007 14.806 33.007 33.006z"/></g></g></svg>