<svg id="Capa_1" enable-background="new 0 0 512.446 512.446" height="512" viewBox="0 0 512.446 512.446" width="512" xmlns="http://www.w3.org/2000/svg"><g><g><path d="m127.636 359.44-28.705-28.705c-3.435-3.435-9.006-3.435-12.441 0l-21.781 21.781c-2.032 2.032-2.032 5.327 0 7.359l8.114 8.114c3.228 3.228 3.228 8.463 0 11.691l-13.8 13.8c-3.229 3.229-8.463 3.229-11.691 0l-8.114-8.114c-2.032-2.032-5.327-2.032-7.359 0l-21.781 21.781c-3.435 3.435-3.435 9.005 0 12.441l30.16 30.16 21.168 19.383 86.364-88.414z" fill="#f2eae7"/><g id="XMLID_218_"><g><path d="m127.636 359.44-9.155-9.156-64.942 64.941c-4.03 4.03-10.564 4.03-14.594 0l-14.923-14.923c-1.321-1.321-2.128-2.958-2.434-4.667l-11.512 11.511c-3.435 3.435-3.435 9.005 0 12.441l19.549 19.549 10.61 10.61 21.168 19.383 86.364-88.414z" fill="#ede2dd"/><path d="m208.575 280.444 35.24 36.82-45.67 37.83-133.69 133.69c-6.2 6.21-16.27 6.21-22.47 0l-9.16-9.15c-6.2-6.21-6.2-16.27 0-22.48l134.69-134.69z" fill="#f9f7f7"/></g></g><path d="m219.124 291.466-11.231 10.257 10.633-10.882-9.951-10.397-41.06 42.02-134.69 134.69c-6.2 6.21-6.2 16.27 0 22.48l9.16 9.15c5.821 5.83 15.052 6.185 21.29 1.068-.406-.333-.801-.688-1.18-1.068l-9.16-9.15c-6.2-6.21-6.2-16.27 0-22.48l108.728-108.728c4.204-4.204 11.021-4.204 15.225 0l13.962 13.962 7.295-7.295 45.67-37.83z" fill="#f2eae7"/><path d="m256.97 337.586-21.798 21.798c-7.211 7.211-18.903 7.211-26.115 0l-46.532-46.532c-7.211-7.211-7.211-18.903 0-26.115l22.478-22.478 18.569-16.252 70.668 71.156z" fill="#f2eae7"/><path d="m235.14 359.384-46.532-46.532c-7.211-7.211-7.211-18.903 0-26.115l22.479-22.479 4.615-4.04-12.129-12.212-18.569 16.252-22.478 22.479c-7.211 7.211-7.211 18.903 0 26.115l46.532 46.532c7.206 7.206 18.886 7.21 26.098.015-.005-.006-.011-.01-.016-.015z" fill="#ede2dd"/><circle cx="335.964" cy="188.066" fill="#f2eae7" r="169.064"/><path d="m228.017 193.534c0-79.025 48.899-146.636 118.081-174.23-46.577-2.778-94.092 13.627-129.68 49.216-66.024 66.024-66.024 173.069 0 239.093 29.702 29.702 67.716 46.043 106.552 49.021-56.698-32.248-94.953-93.209-94.953-163.1z" fill="#ede2dd"/><g id="XMLID_221_"><g><g><path d="m264.925 296.014c-7.18-4.74-14-10.27-20.32-16.59-50.45-50.46-50.45-132.26 0-182.72 50.46-50.45 132.26-50.45 182.72 0 50.45 50.46 50.45 132.26 0 182.72-6.64 6.64-13.82 12.41-21.41 17.29-42.82 27.63-98.39 27.39-140.99-.7z" fill="#e1f5f8"/></g></g></g><path d="m244.605 96.704c-50.45 50.46-50.45 132.26 0 182.72 2.727 2.727 5.551 5.297 8.453 7.729-15.914-27.551-25.04-59.515-25.04-93.619 0-43.362 14.723-83.283 39.44-115.043-8.117 5.083-15.792 11.154-22.853 18.213z" fill="#b3e5ee"/><path d="m370.797 231.173 1.349.207c29.241 4.49 51.975-24.985 40.205-52.127l-11.28-26.011c-1.113-2.568-1.88-5.272-2.278-8.042-4.495-31.242-31.264-54.435-62.828-54.435-31.564 0-58.333 23.193-62.828 54.435-.399 2.77-1.165 5.475-2.278 8.042l-11.28 26.011c-11.771 27.142 10.964 56.617 40.205 52.127l1.349-.207 27.521-8.566 16.529-.636z" fill="#8f8390"/><g><path d="m73.049 411.968h28.461v44.732h-28.461z" fill="#f2eae7" transform="matrix(.707 -.707 .707 .707 -281.557 188.93)"/></g><path d="m81.525 408.454-.034.034-20.086 20.096 10.05 10.05 20.125-20.125z" fill="#ede2dd"/><g><g><path d="m381.875 272.964c11.1 4.45 19.62 13.14 24.04 23.75-42.82 27.63-98.39 27.39-140.99-.7 4.49-10.3 12.89-18.69 23.74-23.05l29.83-11.97 8.3-3.42h12.54l12.71 3.42z" fill="#e79098"/></g><path d="m352.043 260.997c0 9.263-7.509 16.772-16.772 16.772s-16.772-7.509-16.772-16.772v-42.754h33.544z" fill="#ffd1c2"/><path d="m377.44 158.851v47.821c0 22.906-18.569 41.476-41.476 41.476-22.906 0-41.476-18.569-41.476-41.476v-35.991c0-11.073 3.77-21.816 10.69-30.461 1.204-1.504 3.402-1.739 4.897-.523l1.936 1.575c8.712 7.088 19.526 11.093 30.754 11.389l29.401.775c2.935.078 5.274 2.479 5.274 5.415z" fill="#ffe0d1"/><path d="m299.585 152.853 2.479 1.814c11.155 8.164 25.001 12.777 39.377 13.118l35.999.854v-9.787c0-2.936-2.339-5.338-5.274-5.415l-29.401-.775c-11.228-.296-22.042-4.301-30.754-11.389l-1.936-1.575c-1.494-1.216-3.693-.981-4.896.523-2.921 3.65-5.274 7.677-7.026 11.941.506.148.994.37 1.432.691z" fill="#ffd1c2"/></g></g><g><path d="m460.814 63.216c-33.349-33.349-77.688-51.715-124.851-51.715-47.161 0-91.501 18.366-124.85 51.715-33.349 33.348-51.715 77.688-51.715 124.85 0 26.245 5.695 51.613 16.487 74.702l-18.665 18.665c-10.123 10.125-10.123 26.598 0 36.721l2.001 2.001-30.133 30.132-24.857-24.856c-6.354-6.353-16.691-6.352-23.047 0l-21.781 21.781c-4.953 4.953-4.953 13.013 0 17.966l8.114 8.114c.3.299.3.786 0 1.084l-13.8 13.8c-.299.299-.785.299-1.084 0l-8.114-8.114c-2.399-2.399-5.59-3.721-8.983-3.721s-6.584 1.322-8.983 3.721l-21.78 21.783c-3.078 3.078-4.773 7.17-4.773 11.523 0 4.354 1.696 8.446 4.773 11.523l24.856 24.857-2.106 2.106c-9.121 9.122-9.121 23.963 0 33.084l9.153 9.153c4.419 4.418 10.294 6.852 16.543 6.852 6.248 0 12.123-2.434 16.542-6.852l131.699-131.698 2.293 2.293c4.904 4.904 11.425 7.605 18.361 7.605s13.456-2.701 18.36-7.605l17.921-17.92c23.849 11.682 50.231 17.864 77.567 17.864 47.163 0 91.502-18.366 124.851-51.715 68.843-68.842 68.843-180.856.001-249.699zm-401.66 420.27c-3.271 3.271-8.599 3.273-11.87 0l-9.153-9.153c-1.586-1.585-2.459-3.693-2.459-5.936 0-2.242.873-4.35 2.459-5.936l23.273-23.273 21.024 21.024zm22.376-64.423 21.024 21.024-9.518 9.518-21.024-21.024zm31.63 10.417-21.024-21.024 5.918-5.918c2.929-2.929 2.929-7.678 0-10.606-2.929-2.929-7.677-2.929-10.607 0l-47.211 47.21-24.856-24.857c-.313-.313-.38-.671-.38-.917 0-.245.066-.603.381-.917l20.157-20.158 6.49 6.491c2.979 2.978 6.938 4.618 11.149 4.618s8.171-1.64 11.149-4.618l13.8-13.8c6.147-6.147 6.147-16.15 0-22.297l-6.491-6.491 20.157-20.157c.505-.505 1.329-.506 1.834 0l24.856 24.856-8.401 8.401c-2.929 2.929-2.929 7.678 0 10.606 1.465 1.465 3.384 2.197 5.304 2.197 1.919 0 3.839-.732 5.304-2.197l49.14-49.14 21.024 21.024zm116.708-75.4c-2.07 2.071-4.824 3.212-7.753 3.212-2.93 0-5.684-1.141-7.754-3.212l-46.532-46.532c-4.275-4.275-4.275-11.232 0-15.508l15.351-15.351c7.611 13.071 16.955 25.247 27.934 36.227 10.23 10.23 21.499 19.044 33.562 26.357zm220.339-51.771c-30.515 30.516-71.087 47.321-114.243 47.321-43.155 0-83.728-16.806-114.242-47.321-30.517-30.516-47.322-71.088-47.322-114.243s16.806-83.728 47.322-114.243c30.515-30.516 71.087-47.321 114.242-47.321 43.156 0 83.729 16.806 114.243 47.321 62.994 62.994 62.994 165.492 0 228.486z"/><path d="m470.425 163.375c-4.998-27.352-18.068-52.239-37.8-71.97-25.819-25.819-60.147-40.039-96.661-40.039-36.513 0-70.842 14.219-96.661 40.039-53.298 53.299-53.298 140.022 0 193.321 25.819 25.819 60.148 40.039 96.661 40.039 36.514 0 70.842-14.219 96.66-40.038 4.031-4.03 7.85-8.355 11.349-12.854 2.542-3.27 1.953-7.981-1.316-10.524-3.271-2.543-7.982-1.955-10.525 1.316-3.117 4.009-6.52 7.863-10.113 11.455-4.238 4.238-8.735 8.122-13.453 11.643-5.71-8.823-14.079-15.818-23.898-19.758l-25.124-10.08v-6.342c4.975-2.745 9.418-6.332 13.15-10.564 1.814.212 3.619.319 5.408.319 13.859 0 26.761-6.292 35.467-17.58 10.178-13.196 12.295-30.201 5.664-45.489l-11.28-26.011c-.849-1.957-1.433-4.018-1.735-6.126-2.432-16.896-10.875-32.356-23.775-43.534-12.901-11.178-29.407-17.333-46.477-17.333-11.197 0-22.383 2.701-32.347 7.81-3.687 1.89-5.142 6.41-3.252 10.096 1.89 3.685 6.411 5.141 10.096 3.251 7.969-4.086 16.549-6.158 25.503-6.158 27.648 0 51.467 20.637 55.404 48.003.493 3.428 1.442 6.778 2.821 9.958l11.28 26.011c4.426 10.204 3.013 21.553-3.78 30.36-5.025 6.516-12.145 10.531-19.963 11.498 2.069-5.417 3.214-11.287 3.214-17.422v-47.821c0-7.055-5.524-12.727-12.577-12.913l-29.401-.775c-9.52-.25-18.83-3.699-26.218-9.709l-1.938-1.576c-2.286-1.859-5.159-2.708-8.087-2.397-2.929.313-5.556 1.751-7.397 4.052-7.954 9.938-12.334 22.42-12.334 35.147v35.991c0 6.134 1.144 12.004 3.213 17.42-7.813-.969-14.936-4.98-19.961-11.494-6.793-8.807-8.207-20.157-3.782-30.361l11.281-26.011c1.378-3.178 2.327-6.528 2.82-9.957 1.19-8.274 4.133-15.994 8.744-22.944 2.291-3.451 1.349-8.106-2.103-10.396-3.449-2.29-8.105-1.349-10.396 2.103-5.851 8.817-9.583 18.607-11.094 29.101-.304 2.111-.887 4.172-1.734 6.125l-11.281 26.011c-6.63 15.289-4.512 32.295 5.666 45.49 8.707 11.288 21.606 17.58 35.465 17.579 1.789 0 3.594-.107 5.408-.319 3.381 3.835 7.348 7.138 11.765 9.766v7.139l-25.123 10.08c-9.692 3.888-17.79 10.508-23.467 19.032-4.37-3.329-8.549-6.967-12.5-10.917-47.45-47.45-47.45-124.657 0-172.108 22.986-22.986 53.547-35.645 86.054-35.645s63.068 12.659 86.054 35.645c17.567 17.567 29.204 39.719 33.651 64.06 4.347 23.791 1.608 48.059-7.92 70.182-1.638 3.804.117 8.217 3.922 9.855 3.804 1.639 8.216-.116 9.855-3.921 10.702-24.848 13.779-52.1 8.898-78.811zm-168.437 7.307c0-7.982 2.35-15.833 6.678-22.497 9.709 7.413 21.678 11.651 33.901 11.974l27.373.722v45.792c0 18.734-15.242 33.976-33.977 33.976s-33.976-15.241-33.976-33.976v-35.991zm33.976 84.966c2.928 0 5.791-.273 8.579-.768v6.116c0 5.113-4.159 9.272-9.271 9.272s-9.272-4.158-9.272-9.271v-6.37c3.218.668 6.55 1.021 9.964 1.021zm-44.502 24.278 21.787-8.742c3.858 8.307 12.276 14.084 22.022 14.084s18.164-5.777 22.022-14.084l21.788 8.741c6.969 2.796 12.9 7.773 16.938 14.048-18.105 10.304-38.658 15.791-60.055 15.791-21.801 0-42.722-5.702-61.074-16.386 4.01-6.023 9.725-10.705 16.572-13.452z"/></g></g></svg>