<svg id="Capa_1" enable-background="new 0 0 508.979 508.979" height="512" viewBox="0 0 508.979 508.979" width="512" xmlns="http://www.w3.org/2000/svg"><g><g><g id="XMLID_227_"><g><path d="m359.19 49.907c1.19-.06 2.39-.1 3.6-.1 40.62 0 73.54 32.93 73.54 73.55 0 13.36-3.58 25.88-9.81 36.68 31.01 4.21 54.92 30.78 54.92 62.94 0 35.09-28.44 63.54-63.54 63.54h-326.82c-35.1 0-63.54-28.45-63.54-63.54 0-32.16 23.91-58.73 54.92-62.94-6.23-10.8-9.81-23.32-9.81-36.68 0-40.62 32.92-73.55 73.54-73.55 1.21 0 2.41.04 3.6.1 8.71-24.71 32.26-42.41 59.94-42.41 17.46 0 33.28 7.05 44.76 18.45 11.48-11.4 27.3-18.45 44.76-18.45 27.68 0 51.23 17.7 59.94 42.41z" fill="#e79098"/></g></g><g><path d="m162.875 257.417c-35.1 0-63.54-25.819-63.54-57.664 0-24.73 17.167-45.819 41.274-54.005 6.395-2.172 9.818-9.197 7.512-15.545-2.383-6.562-3.676-13.572-3.676-20.857 0-36.864 32.92-66.749 73.54-66.749h.036c2.148.001 4.068-1.271 4.977-3.217 4.224-9.045 10.904-16.923 19.301-22.908-9.528-5.706-20.657-8.975-32.569-8.975-27.68 0-51.23 17.7-59.94 42.41-1.19-.06-2.39-.1-3.6-.1-40.62 0-73.54 32.93-73.54 73.55 0 13.36 3.58 25.88 9.81 36.68-31.01 4.21-54.92 30.78-54.92 62.94 0 35.09 28.44 63.54 63.54 63.54h326.82c22.399 0 42.071-11.596 53.386-29.1z" fill="#e17983"/></g><path d="m264.147 239.109-71.514 137.818c-1.9 3.661.757 8.034 4.882 8.034h62.145l-30.162 112.76c-.877 3.279 3.537 5.236 5.377 2.383l108.846-168.688c2.362-3.66-.266-8.483-4.622-8.483h-70.27l.937-82.42c.036-3.135-4.175-4.188-5.619-1.404z" fill="#fbe88c"/><path d="m279.014 366.185h-52.679c-4.125 0-6.782-4.372-4.882-8.034l48.029-92.559.285-25.078c.036-3.135-4.175-4.188-5.619-1.405l-71.514 137.818c-1.9 3.661.757 8.034 4.882 8.034h62.145l-30.162 112.76c-.877 3.279 3.537 5.236 5.377 2.383l30.374-47.073 20.785-77.703c1.233-4.614-2.244-9.143-7.021-9.143z" fill="#f9de58"/></g><g><path d="m205.748 294.018c4.143 0 7.5-3.358 7.5-7.5s-3.357-7.5-7.5-7.5h-114.672c-30.899 0-56.038-25.139-56.038-56.038 0-27.755 20.608-51.508 48.005-55.44h15.555c4.143 0 7.5-3.358 7.5-7.5s-3.357-7.5-7.5-7.5h-11.645c-4.463-9.046-6.807-19.052-6.807-29.187 0-6.05.838-12.089 2.49-17.952 1.124-3.987-1.197-8.13-5.185-9.253-3.983-1.124-8.129 1.198-9.253 5.184-2.025 7.187-3.053 14.596-3.053 22.021 0 10.792 2.165 21.465 6.316 31.356-29.926 8.603-51.425 36.354-51.425 68.271 0 39.17 31.867 71.038 71.038 71.038z"/><path d="m437.517 154.708c4.151-9.891 6.316-20.564 6.316-31.356 0-44.211-35.59-80.245-79.623-81.01-11.048-24.912-36-42.342-64.961-42.342-16.487 0-32.134 5.59-44.759 15.871-12.625-10.281-28.272-15.871-44.759-15.871-28.955 0-53.902 17.422-64.954 42.325-22.982.401-44.724 10.547-59.839 27.987-2.713 3.13-2.374 7.867.756 10.58 1.419 1.229 3.168 1.832 4.909 1.832 2.1 0 4.188-.877 5.671-2.588 11.204-12.929 26.876-20.926 43.708-22.518-.835 4.349-1.289 8.832-1.289 13.42 0 4.142 3.357 7.5 7.5 7.5s7.5-3.358 7.5-7.5c0-30.899 25.139-56.038 56.038-56.038 14.887 0 28.905 5.779 39.475 16.271 2.924 2.903 7.645 2.903 10.568 0 10.569-10.492 24.588-16.271 39.475-16.271 30.899 0 56.038 25.138 56.038 56.038 0 4.142 3.357 7.5 7.5 7.5s7.5-3.358 7.5-7.5c0-4.592-.454-9.079-1.29-13.431 33.516 3.141 59.837 31.422 59.837 65.746 0 10.135-2.344 20.141-6.807 29.187h-9.597c-4.143 0-7.5 3.358-7.5 7.5s3.357 7.5 7.5 7.5h13.507c27.397 3.933 48.005 27.686 48.005 55.441 0 30.899-25.139 56.038-56.038 56.038h-118.658c-4.143 0-7.5 3.358-7.5 7.5s3.357 7.5 7.5 7.5h118.658c39.171 0 71.038-31.867 71.038-71.038 0-31.919-21.499-59.669-51.425-68.273z"/><path d="m339.099 315.434h-62.684l.85-74.834c.057-4.873-3.206-9.102-7.933-10.284-4.732-1.183-9.599 1.013-11.843 5.338l-71.515 137.819c-2.108 4.064-1.947 8.827.431 12.739s6.531 6.249 11.109 6.249h52.376l-27.639 103.322c-1.342 5.015 1.13 10.182 5.875 12.285 1.39.616 2.842.911 4.273.911 3.456 0 6.785-1.724 8.776-4.809l57.521-89.144c2.246-3.48 1.245-8.123-2.235-10.368-3.479-2.246-8.122-1.246-10.368 2.235l-41.912 64.954 22.724-84.949c.603-2.252.123-4.656-1.296-6.505-1.42-1.849-3.618-2.933-5.949-2.933h-58.855l61.245-118.029-.72 63.417c-.023 2.004.757 3.934 2.166 5.358 1.408 1.425 3.329 2.227 5.333 2.227h66.6l-31.9 49.44c-2.246 3.48-1.245 8.123 2.235 10.368 3.479 2.246 8.123 1.245 10.368-2.235l33.891-52.523c2.583-4.001 2.771-9.086.493-13.268s-6.653-6.781-11.417-6.781z"/><path d="m275.434 71.698c-8.86 4.967-16.021 12.171-20.944 20.675-4.923-8.504-12.084-15.708-20.944-20.675-3.612-2.025-8.184-.739-10.209 2.875-2.025 3.613-.738 8.184 2.875 10.209 12.816 7.185 20.778 20.776 20.778 35.469v3.058c0 4.142 3.357 7.5 7.5 7.5s7.5-3.358 7.5-7.5v-3.058c0-14.693 7.962-28.284 20.778-35.469 3.613-2.025 4.9-6.596 2.875-10.209-2.024-3.614-6.596-4.901-10.209-2.875z"/><path d="m192.276 158.552-1.691-.831c-3.72-1.828-8.212-.291-10.038 3.426-1.825 3.718-.291 8.212 3.427 10.038l1.692.831c11.537 5.664 19.972 16.055 23.142 28.51.864 3.394 3.915 5.652 7.263 5.652.612 0 1.235-.076 1.855-.234 4.015-1.021 6.44-5.104 5.419-9.118-4.257-16.72-15.581-30.671-31.069-38.274z"/><path d="m291.054 205.944c.62.158 1.242.234 1.855.234 3.348 0 6.398-2.259 7.263-5.652 3.17-12.455 11.604-22.846 23.143-28.51l1.691-.831c3.718-1.826 5.252-6.32 3.427-10.038-1.825-3.717-6.319-5.254-10.038-3.426l-1.69.83c-15.489 7.604-26.813 21.554-31.069 38.274-1.022 4.015 1.404 8.098 5.418 9.119z"/><path d="m419.475 247.707c4.143 0 7.5-3.358 7.5-7.5v-.87c0-14.977-12.185-27.161-27.161-27.161-4.143 0-7.5 3.358-7.5 7.5s3.357 7.5 7.5 7.5c6.706 0 12.161 5.456 12.161 12.161v.87c0 4.142 3.358 7.5 7.5 7.5z"/><path d="m82.004 239.336v.87c0 4.142 3.357 7.5 7.5 7.5s7.5-3.358 7.5-7.5v-.87c0-6.706 5.455-12.161 12.161-12.161 4.143 0 7.5-3.358 7.5-7.5s-3.357-7.5-7.5-7.5c-14.976 0-27.161 12.185-27.161 27.161z"/><path d="m99.335 410.204h-27.685l31.048-69.857c1.683-3.785-.022-8.217-3.808-9.899-3.784-1.681-8.217.022-9.899 3.808l-35.735 80.403c-1.031 2.32-.818 5.004.564 7.133 1.384 2.129 3.75 3.413 6.289 3.413h29.195l-16.775 56.885c-1.172 3.973 1.099 8.144 5.072 9.315.708.208 1.422.308 2.124.308 3.239 0 6.228-2.116 7.19-5.38l19.613-66.506c.669-2.268.229-4.719-1.187-6.613-1.415-1.895-3.641-3.01-6.006-3.01z"/><path d="m426.519 410.204h-27.685l31.048-69.857c1.683-3.785-.022-8.217-3.808-9.899-3.783-1.681-8.217.022-9.899 3.808l-35.735 80.403c-1.031 2.32-.818 5.004.564 7.133 1.384 2.129 3.75 3.413 6.289 3.413h29.194l-16.774 56.885c-1.172 3.973 1.099 8.144 5.072 9.315.708.208 1.422.308 2.124.308 3.239 0 6.228-2.116 7.19-5.38l19.612-66.506c.669-2.268.229-4.719-1.187-6.613-1.414-1.895-3.641-3.01-6.005-3.01z"/></g></g></svg>