<svg id="Capa_1" enable-background="new 0 0 511.183 511.183" height="512" viewBox="0 0 511.183 511.183" width="512" xmlns="http://www.w3.org/2000/svg"><g><g><g><path d="m236.745 104.917h34.359v116.378h-34.359z" fill="#fbe372"/></g><path d="m236.745 104.917v116.378h11.35 23.009v-37.022h-19.406c-1.99 0-3.603-1.613-3.603-3.603v-21.172c0-2.054 1.713-3.664 3.767-3.597.685.022 1.373.034 2.063.034 5.941 0 11.695-.786 17.179-2.234v-47.72-1.064z" fill="#f9de58"/><path d="m286.88 199.272h-66.91c-4.455 0-8.066 3.611-8.066 8.066v44.517h83.042v-44.517c0-4.454-3.611-8.066-8.066-8.066z" fill="#fbe88c"/><path d="m227.155 218.422c0-4.455 3.611-8.066 8.066-8.066h59.724v-3.017c0-4.455-3.612-8.067-8.066-8.067h-66.91c-4.455 0-8.066 3.612-8.066 8.067v44.516h15.252z" fill="#fbe372"/><g><path d="m305.078 237.855h-103.307c-3.655 0-6.617 2.963-6.617 6.618v259.21h116.542v-259.21c0-3.655-2.963-6.618-6.618-6.618z" fill="#e79098"/><path d="m225.895 450.461v-212.606h-24.124c-3.655 0-6.617 2.963-6.617 6.617v259.21h116.542v-32.244h-64.824c-11.586 0-20.977-9.392-20.977-20.977z" fill="#e17983"/><path d="m188.536 294.742h-103.307c-3.655 0-6.617 2.963-6.617 6.617v202.002h116.542v-202.002c0-3.654-2.963-6.617-6.618-6.617z" fill="#b8de9c"/><path d="m421.621 294.742h-103.308c-3.655 0-6.617 2.963-6.617 6.617v202.002h116.542v-202.002c0-3.654-2.963-6.617-6.617-6.617z" fill="#b3e5ee"/><path d="m110.343 459.021v-164.28h-25.114c-3.655 0-6.617 2.963-6.617 6.617v202.002h116.542v-28.283h-68.754c-8.868.002-16.057-7.187-16.057-16.056z" fill="#a6d786"/><path d="m343.428 462.388v-167.646h-25.114c-3.655 0-6.617 2.963-6.617 6.617v202.002h116.542v-28.283h-72.12c-7.01.001-12.691-5.681-12.691-12.69z" fill="#86d7e5"/><path d="m202.725 94.341-7.649-81.013c-.295-3.126 2.163-5.827 5.303-5.827h107.092c3.14 0 5.598 2.702 5.303 5.827l-7.649 81.013c-2.494 26.413-24.67 46.594-51.2 46.594-26.53 0-48.707-20.181-51.2-46.594z" fill="#fbe88c"/><path d="m279.473 132.991c-26.53 0-48.706-20.181-51.2-46.594l-7.449-78.897h-20.445c-3.14 0-5.598 2.701-5.303 5.827l7.649 81.013c2.494 26.413 24.67 46.594 51.2 46.594 10.086 0 19.536-2.912 27.521-7.98-.657.026-1.311.037-1.973.037z" fill="#fbe372"/></g></g><g><path d="m444.302 496.183h-8.564v-117.116c0-4.143-3.358-7.5-7.5-7.5s-7.5 3.357-7.5 7.5v117.115h-101.542v-193.94h101.542v44.836c0 4.143 3.358 7.5 7.5 7.5s7.5-3.357 7.5-7.5v-45.719c0-7.784-6.333-14.117-14.117-14.117h-102.425v-42.77c0-7.784-6.333-14.117-14.117-14.117h-2.632v-23.017c0-8.583-6.983-15.566-15.567-15.566h-8.275v-48.692c8.11-3.713 15.227-9.212 20.844-16.038 1.031.061 2.061.099 3.089.099 12.515-.001 24.703-4.475 34.31-12.768 11.569-9.987 18.204-24.479 18.204-39.763v-37.627c0-8.156-6.635-14.791-14.792-14.791h-20.79l.77-8.158c.339-3.588-.857-7.175-3.283-9.84-2.425-2.666-5.883-4.194-9.486-4.194h-107.092c-3.604 0-7.061 1.528-9.486 4.194-2.426 2.665-3.622 6.252-3.283 9.839l.77 8.159h-20.79c-8.156 0-14.791 6.635-14.791 14.791v37.628c0 15.283 6.635 29.775 18.204 39.763 9.608 8.294 21.794 12.768 34.31 12.768 1.027 0 2.058-.039 3.089-.099 5.617 6.826 12.734 12.324 20.844 16.038v48.692h-9.275c-8.583 0-15.567 6.983-15.567 15.566v23.017h-2.632c-7.784 0-14.117 6.333-14.117 14.117v42.77h-102.426c-7.784 0-14.117 6.333-14.117 14.117v194.823h-4.232c-4.142 0-7.5 3.357-7.5 7.5s3.358 7.5 7.5 7.5h377.422c4.142 0 7.5-3.357 7.5-7.5s-3.358-7.5-7.5-7.5zm-263.497-393.163c-8.266-7.135-13.006-17.489-13.006-28.408v-37.42h21.997l5.462 57.854c.552 5.845 1.935 11.411 4.015 16.594-6.761-1.105-13.165-4.043-18.468-8.62zm29.386-9.384-7.423-78.636h102.314l-3.22 34.104c-.389 4.124 2.638 7.782 6.762 8.172 4.12.392 7.783-2.638 8.172-6.762l1.258-13.321h21.997v37.419c0 10.919-4.74 21.272-13.006 28.408-5.303 4.578-11.707 7.517-18.468 8.622 2.08-5.184 3.463-10.75 4.015-16.595l1.172-12.419c.389-4.124-2.638-7.782-6.762-8.172-4.125-.387-7.783 2.638-8.172 6.762l-1.172 12.419c-2.142 22.689-20.943 39.799-43.733 39.799s-41.592-17.111-43.734-39.8zm34.055 54.001c3.152.515 6.382.797 9.679.797s6.528-.282 9.679-.797v44.135h-19.358zm-24.843 59.702c0-.312.254-.566.567-.566h66.909c.312 0 .567.254.567.566v23.017h-68.043zm-133.291 94.903h101.542v123.312c0 4.143 3.358 7.5 7.5 7.5s7.5-3.357 7.5-7.5v-180.199h101.542v250.827h-101.542v-38.64c0-4.143-3.358-7.5-7.5-7.5s-7.5 3.357-7.5 7.5v38.64h-101.542z"/><path d="m122.404 72.915h-9.675c-4.142 0-7.5 3.357-7.5 7.5s3.358 7.5 7.5 7.5h9.675c4.142 0 7.5-3.357 7.5-7.5s-3.358-7.5-7.5-7.5z"/><path d="m103.909 39.007 21.964 8.739c.91.362 1.848.533 2.771.533 2.981 0 5.802-1.79 6.971-4.729 1.531-3.849-.347-8.21-4.196-9.741l-21.964-8.739c-3.848-1.532-8.209.348-9.741 4.196s.347 8.21 4.195 9.741z"/><path d="m106.685 136.293c.922 0 1.861-.172 2.77-.533l21.964-8.739c3.849-1.531 5.728-5.893 4.196-9.741-1.531-3.849-5.892-5.727-9.742-4.196l-21.964 8.739c-3.849 1.531-5.727 5.893-4.196 9.741 1.17 2.939 3.99 4.729 6.972 4.729z"/><path d="m385.445 72.915c-4.142 0-7.5 3.357-7.5 7.5s3.358 7.5 7.5 7.5h9.675c4.142 0 7.5-3.357 7.5-7.5s-3.358-7.5-7.5-7.5z"/><path d="m379.206 48.279c.922 0 1.861-.172 2.771-.533l21.964-8.739c3.849-1.531 5.727-5.893 4.196-9.741s-5.893-5.726-9.741-4.196l-21.964 8.739c-3.849 1.531-5.728 5.893-4.196 9.741 1.168 2.939 3.988 4.729 6.97 4.729z"/><path d="m376.431 127.021 21.964 8.739c.91.362 1.847.533 2.77.533 2.981 0 5.802-1.79 6.971-4.729 1.531-3.849-.347-8.21-4.196-9.741l-21.964-8.739c-3.849-1.532-8.21.347-9.742 4.196-1.531 3.848.348 8.209 4.197 9.741z"/><path d="m263.66 101.378v-62.486c0-4.143-3.358-7.5-7.5-7.5h-13.355c-4.142 0-7.5 3.357-7.5 7.5s3.358 7.5 7.5 7.5h5.855v54.986c0 4.143 3.358 7.5 7.5 7.5s7.5-3.357 7.5-7.5z"/></g></g></svg>