<svg id="Capa_1" enable-background="new 0 0 511.247 511.247" height="512" viewBox="0 0 511.247 511.247" width="512" xmlns="http://www.w3.org/2000/svg"><g><g><g><path d="m483.832 156.624c0-22.923-18.583-41.506-41.506-41.506h-373.405c-22.923 0-41.506 18.583-41.506 41.506v304.344h456.417z" fill="#a59ca6"/></g><g><path d="m308.678 408.467c-9.249 0-17.898 4.575-23.103 12.221-1.168 1.716-3.107 2.744-5.183 2.744h-50.537c-2.076 0-4.015-1.029-5.183-2.745-5.204-7.645-13.852-12.22-23.1-12.22h-95.604c-11.548 0-20.909-9.361-20.909-20.909v-241.794c0-12.137 5.212-23.056 13.517-30.646h-29.655c-22.923 0-41.506 18.583-41.506 41.506v304.344h42.468 413.948v-10.86-41.641z" fill="#8f8390"/><path d="m302.108 431.942-2.249 3.305c-3.484 5.12-9.277 8.185-15.47 8.185h-58.531c-6.193 0-11.985-3.064-15.47-8.185l-2.249-3.304c-1.48-2.175-3.94-3.476-6.57-3.476h-187.842c-3.439 0-6.227 2.788-6.227 6.227v9.389c0 24.134 19.565 43.699 43.699 43.699h408.848c24.135 0 43.699-19.565 43.699-43.699v-9.389c0-3.439-2.788-6.227-6.227-6.227h-188.841c-2.63-.001-5.09 1.301-6.57 3.475z" fill="#a59ca6"/><path d="m226.025 185.257h26.657c11.084 0 20.101-9.017 20.101-20.101v-50.038h-66.859v50.038c0 11.084 9.017 20.101 20.101 20.101z" fill="#8f8390"/><g><path d="m442.326 147.118c5.25 0 9.506 4.256 9.506 9.506v233.816c0 3.328-2.698 6.026-6.026 6.026h-380.364c-3.328 0-6.026-2.698-6.026-6.026v-233.816c0-5.25 4.256-9.506 9.506-9.506z" fill="#b3e5ee"/></g><path d="m226.025 185.257h26.657c11.084 0 20.101-9.017 20.101-20.101v-18.038h-66.859v18.038c0 11.084 9.017 20.101 20.101 20.101z" fill="#86d7e5"/><path d="m85.059 387.558v-240.44h-16.138c-5.25 0-9.506 4.256-9.506 9.506v233.816c0 3.328 2.698 6.026 6.026 6.026h21.631c-1.278-2.705-2.013-5.717-2.013-8.908z" fill="#86d7e5"/><g fill="#fbe88c"><path d="m392.915 396.467h-46.925v-286.843c0-4.964 4.024-8.988 8.988-8.988h28.949c4.964 0 8.988 4.024 8.988 8.988z"/><path d="m313.267 396.467h-46.924v-194.56c0-4.964 4.024-8.988 8.988-8.988h28.949c4.964 0 8.988 4.024 8.988 8.988v194.56z"/><path d="m233.619 396.467h-46.924v-152.853c0-4.964 4.024-8.988 8.988-8.988h28.949c4.964 0 8.988 4.024 8.988 8.988v152.853z"/><path d="m153.971 396.467h-46.924v-120.532c0-4.964 4.024-8.988 8.988-8.988h28.949c4.964 0 8.988 4.024 8.988 8.988v120.532z"/></g><g fill="#fbe372"><path d="m366.505 372.973v-272.337h-11.527c-4.964 0-8.988 4.024-8.988 8.988v286.843h46.924v-13.925h-16.841c-5.284 0-9.568-4.284-9.568-9.569z"/><path d="m286.857 373.381v-180.462h-11.527c-4.964 0-8.988 4.024-8.988 8.988v194.56h46.924v-13.925h-17.249c-5.059 0-9.16-4.101-9.16-9.161z"/><path d="m207.209 373.197v-138.57h-11.527c-4.964 0-8.988 4.024-8.988 8.988v152.852h46.924v-13.925h-17.065c-5.16 0-9.344-4.184-9.344-9.345z"/><path d="m127.562 373.394v-106.446h-11.527c-4.964 0-8.988 4.024-8.988 8.988v120.531h46.924v-13.925h-17.261c-5.053 0-9.148-4.096-9.148-9.148z"/></g><path d="m220.924 165.156v-88.033c0-1.601-1.298-2.9-2.9-2.9h-17.912c-2.49 0-3.822-2.931-2.185-4.806l39.241-44.958c1.156-1.324 3.214-1.324 4.369 0l39.241 44.958c1.637 1.876.305 4.806-2.185 4.806h-17.912c-1.601 0-2.9 1.298-2.9 2.9v88.032c0 2.817-2.284 5.101-5.101 5.101h-26.658c-2.814 0-5.098-2.283-5.098-5.1z" fill="#e79098"/></g></g><g><path d="m503.747 420.967h-12.415v-264.343c0-27.021-21.984-49.005-49.006-49.005h-19.411c-4.143 0-7.5 3.357-7.5 7.5s3.357 7.5 7.5 7.5h19.411c18.751 0 34.006 15.255 34.006 34.005v264.343h-167.654c-5.118 0-9.893 2.525-12.771 6.756l-2.249 3.305c-2.09 3.071-5.555 4.904-9.27 4.904h-58.531c-3.714 0-7.18-1.833-9.27-4.904l-2.249-3.305c-2.879-4.23-7.653-6.756-12.771-6.756h-166.651v-264.343c0-18.75 15.255-34.005 34.006-34.005h122.002c4.142 0 7.5-3.357 7.5-7.5s-3.358-7.5-7.5-7.5h-122.003c-27.022 0-49.006 21.983-49.006 49.005v264.343h-12.415c-4.142 0-7.5 3.357-7.5 7.5v15.615c0 28.231 22.968 51.199 51.199 51.199h408.848c28.231 0 51.199-22.968 51.199-51.199v-15.615c.001-4.143-3.357-7.5-7.499-7.5zm-7.5 23.115c0 19.96-16.239 36.199-36.199 36.199h-408.849c-19.96 0-36.199-16.239-36.199-36.199v-8.115h186.569c.148 0 .287.073.37.195l2.249 3.305c4.885 7.179 12.986 11.465 21.67 11.465h58.531c8.684 0 16.784-4.286 21.67-11.465l2.249-3.305.001-.001c.083-.122.221-.194.369-.194h187.568v8.115z"/><path d="m280.283 115.119c0 4.143 3.357 7.5 7.5 7.5h28.208c4.143 0 7.5-3.357 7.5-7.5s-3.357-7.5-7.5-7.5h-28.208c-4.143 0-7.5 3.357-7.5 7.5z"/><path d="m315.991 154.618c4.143 0 7.5-3.357 7.5-7.5s-3.357-7.5-7.5-7.5h-28.208c-4.143 0-7.5 3.357-7.5 7.5s3.357 7.5 7.5 7.5z"/><path d="m345.991 257.163c-4.143 0-7.5 3.357-7.5 7.5v124.304h-17.724v-187.06c0-9.091-7.396-16.487-16.488-16.487h-28.948c-9.092 0-16.488 7.396-16.488 16.487v187.06h-17.723v-145.353c0-9.091-7.396-16.487-16.488-16.487h-28.949c-9.091 0-16.487 7.396-16.487 16.487v145.353h-17.724v-113.032c0-9.092-7.396-16.488-16.487-16.488h-28.949c-9.091 0-16.488 7.396-16.488 16.488v40.324c0 4.143 3.358 7.5 7.5 7.5s7.5-3.357 7.5-7.5v-40.324c0-.82.667-1.488 1.488-1.488h28.949c.82 0 1.487.668 1.487 1.488v113.031h-31.924v-40.718c0-4.143-3.358-7.5-7.5-7.5s-7.5 3.357-7.5 7.5v40.718h-32.632v-232.342c0-1.106.899-2.006 2.005-2.006h122.003c4.142 0 7.5-3.357 7.5-7.5s-3.358-7.5-7.5-7.5h-122.003c-9.377 0-17.005 7.629-17.005 17.006v239.843c0 4.143 3.358 7.5 7.5 7.5h392.416c4.143 0 7.5-3.357 7.5-7.5v-239.843c0-9.377-7.629-17.006-17.006-17.006h-19.411c-4.143 0-7.5 3.357-7.5 7.5s3.357 7.5 7.5 7.5h19.411c1.106 0 2.006.899 2.006 2.006v232.343h-43.917v-279.343c0-9.091-7.396-16.487-16.487-16.487h-28.949c-9.091 0-16.487 7.396-16.487 16.487v123.05c0 4.143 3.357 7.5 7.5 7.5s7.5-3.357 7.5-7.5v-123.05c0-.82.667-1.487 1.487-1.487h28.949c.82 0 1.487.667 1.487 1.487v279.343h-31.924v-124.304c0-4.143-3.358-7.5-7.5-7.5zm-151.796 131.804v-145.353c0-.82.667-1.487 1.487-1.487h28.949c.82 0 1.488.667 1.488 1.487v145.353zm79.647 0v-187.06c0-.82.668-1.487 1.488-1.487h28.948c.82 0 1.488.667 1.488 1.487v187.06z"/><path d="m200.113 81.723h13.312v17.194c0 4.143 3.358 7.5 7.5 7.5s7.5-3.357 7.5-7.5v-21.794c0-5.734-4.666-10.399-10.4-10.399h-7.79l29.119-33.362 29.119 33.362h-7.789c-5.734 0-10.399 4.665-10.399 10.399v85.634h-21.859v-31.85c0-4.143-3.358-7.5-7.5-7.5s-7.5 3.357-7.5 7.5v34.249c0 6.948 5.653 12.601 12.601 12.601h26.657c6.948 0 12.602-5.652 12.602-12.601v-83.433h13.311c4.069 0 7.786-2.394 9.469-6.098s1.041-8.078-1.634-11.14l-39.241-44.959c-1.975-2.264-4.831-3.562-7.835-3.562s-5.86 1.298-7.835 3.562l-39.24 44.958c-2.676 3.063-3.317 7.438-1.634 11.141 1.681 3.705 5.397 6.098 9.466 6.098z"/></g></g></svg>