<svg id="Capa_1" enable-background="new 0 0 510.941 510.941" height="512" viewBox="0 0 510.941 510.941" width="512" xmlns="http://www.w3.org/2000/svg"><g><g><path d="m302.72 367.791.88-.615c14.682-10.254 26.937-23.604 35.901-39.108l5.349 3.013c1.039.585 2.354.245 2.98-.77l7.65-12.413c33.924-55.047 31.861-124.996-5.25-177.947-46.314-66.083-144.202-66.083-190.515 0-37.11 52.951-39.174 122.901-5.25 177.947l8.769 14.23 7.208-4.061c8.963 15.504 21.218 28.854 35.901 39.108l.88.615 25.008 18.792h51.047z" fill="#a59ca6"/><path d="m280.692 358.948 48.163 26.005c28.148 15.198 45.692 44.61 45.692 76.598v29.419c0 5.843-4.736 10.579-10.579 10.579h-217.995c-5.843 0-10.579-4.736-10.579-10.579v-29.419c0-31.989 17.544-61.4 45.692-76.598l48.163-26.005 14.134-6.265h26.71z" fill="#b8de9c"/><path d="m285.88 361.749-5.188-2.801-10.599-6.265h-26.71l-14.134 6.265-48.163 26.005c-28.148 15.198-45.692 44.61-45.692 76.598v29.418c0 5.843 4.736 10.579 10.579 10.579h21.911c-.027-.308-.047-.618-.047-.934v-29.418c0-31.989 17.544-61.4 45.692-76.599 4.047-2.185 9.01-1.333 12.209 1.972 7.409 7.656 17.785 12.422 29.257 12.415 22.388-.013 40.697-19.147 40.697-41.535v-.403z" fill="#a6d786"/><path d="m280.692 368.265c0 14.206-11.516 25.721-25.721 25.721s-25.721-11.516-25.721-25.721v-70.716h51.443v70.716z" fill="#ffd1c2"/><g><path d="m182.423 223.228v49.052c0 40.343 32.705 73.048 73.048 73.048 40.343 0 73.048-32.705 73.048-73.048v-75.346c0-5.739-6.606-8.963-11.13-5.431l-11.474 8.958c-15.98 12.476-35.672 19.253-55.945 19.253h-64.034c-1.94 0-3.513 1.573-3.513 3.514z" fill="#ffe0d1"/><path d="m248.154 237.467c25.124 0 49.527-7.272 69.33-20.661l11.035-7.46v-12.413c0-5.739-6.606-8.963-11.13-5.431l-11.474 8.958c-15.98 12.476-35.672 19.253-55.945 19.253h-64.034c-1.941 0-3.514 1.573-3.514 3.514v14.239h65.732z" fill="#ffd1c2"/><g><circle cx="449.228" cy="63.606" fill="#fbe88c" r="54.214"/><circle cx="449.228" cy="401.3" fill="#b3e5ee" r="54.214"/><circle cx="458.034" cy="232.453" fill="#e79098" r="30.302"/></g><g><circle cx="61.714" cy="63.606" fill="#fbe88c" r="54.214"/><path d="m427.736 63.606c0-24.239 15.894-44.767 37.838-51.706-5.163-1.633-10.643-2.508-16.346-2.508-29.941 0-54.214 24.272-54.214 54.214 0 29.941 24.272 54.213 54.214 54.213 5.703 0 11.198-.886 16.361-2.518-21.944-6.938-37.853-27.456-37.853-51.695z" fill="#fbe372"/><path d="m40.222 63.606c0-24.239 15.899-44.76 37.843-51.698-5.163-1.633-10.648-2.515-16.351-2.515-29.942 0-54.214 24.272-54.214 54.213s24.272 54.213 54.214 54.213c5.703 0 11.198-.885 16.361-2.518-21.944-6.938-37.853-27.456-37.853-51.695z" fill="#fbe372"/><circle cx="61.714" cy="401.3" fill="#b3e5ee" r="54.214"/><path d="m427.736 393.986c0-19.855 10.694-37.216 26.616-46.661-1.683-.157-3.4-.239-5.124-.239-29.941 0-54.214 24.272-54.214 54.214 0 29.941 24.272 54.214 54.214 54.214 10.086 0 19.54-2.761 27.628-7.558-27.544-2.577-49.12-25.753-49.12-53.97z" fill="#86d7e5"/><path d="m40.222 393.986c0-19.855 10.691-37.216 26.613-46.661-1.683-.157-3.397-.239-5.122-.239-29.941 0-54.213 24.273-54.213 54.214s24.272 54.214 54.214 54.214c10.086 0 19.535-2.758 27.623-7.555-27.543-2.577-49.115-25.756-49.115-53.973z" fill="#86d7e5"/><circle cx="52.908" cy="232.453" fill="#e79098" r="30.302"/><g fill="#e17983"><path d="m447.913 232.453c0-13.196 8.449-24.419 20.221-28.577-3.157-1.115-6.562-1.724-10.101-1.724-16.735 0-30.302 13.566-30.302 30.301s13.566 30.302 30.302 30.302c3.539 0 6.944-.609 10.101-1.724-11.772-4.158-20.221-15.382-20.221-28.578z"/><path d="m42.787 232.453c0-13.196 8.434-24.424 20.207-28.582-3.157-1.115-6.548-1.719-10.087-1.719-16.735 0-30.301 13.566-30.301 30.301s13.566 30.302 30.301 30.302c3.539 0 6.947-.61 10.104-1.725-11.772-4.158-20.224-15.381-20.224-28.577z"/></g></g></g></g><g><path d="m151.285 410.863c-3.567-2.102-8.167-.919-10.271 2.649-8.583 14.549-13.121 31.161-13.121 48.04v39.997c0 4.143 3.358 7.5 7.5 7.5s7.5-3.357 7.5-7.5v-39.997c0-14.2 3.817-28.177 11.04-40.419 2.106-3.567.92-8.165-2.648-10.27z"/><path d="m332.419 378.354-18.146-9.798c10.783-8.578 20.243-18.912 27.82-30.42l.935.526c3.51 1.978 7.953.83 10.066-2.6l8.769-14.229c21.374-34.683 29.529-75.956 22.965-116.219-.667-4.088-4.52-6.862-8.609-6.195-4.088.667-6.862 4.521-6.195 8.609 5.984 36.702-1.449 74.324-20.93 105.936l-4.986 8.09-.926-.521c-3.582-2.017-8.118-.776-10.174 2.78-8.268 14.302-19.765 26.875-33.262 36.397l-11.553-6.238v-8.618c28.149-12.569 47.827-40.809 47.827-73.576v-75.346c0-5.546-3.096-10.501-8.08-12.933-4.984-2.434-10.795-1.822-15.166 1.59l-11.474 8.958c-9.918 7.743-21.519 13.115-33.745 15.765l18.901-22.703c2.65-3.184 2.218-7.912-.965-10.562s-7.913-2.218-10.562.965l-28.474 34.2h-27.105l20.056-24.67c2.613-3.215 2.126-7.938-1.088-10.551-3.213-2.613-7.938-2.126-10.55 1.088l-27.749 34.133h-14.081c-6.073 0-11.014 4.94-11.014 11.014v49.052c0 32.378 19.212 60.336 46.827 73.123v9.071l-11.552 6.238c-13.499-9.523-24.995-22.095-33.263-36.397-2.057-3.559-6.593-4.798-10.174-2.78l-.926.521-4.986-8.09c-32.384-52.548-30.418-119.162 5.006-169.709 20.652-29.467 53.133-46.367 89.116-46.367s68.464 16.9 89.116 46.367c7.214 10.293 13.171 21.506 17.708 33.328 1.484 3.867 5.823 5.797 9.689 4.315 3.867-1.483 5.799-5.821 4.315-9.688-4.975-12.966-11.511-25.268-19.428-36.564-23.498-33.528-60.457-52.758-101.399-52.758s-77.901 19.229-101.399 52.758c-38.865 55.455-41.021 128.538-5.493 186.188l8.769 14.229c2.112 3.429 6.556 4.578 10.066 2.6l.935-.526c7.577 11.508 17.037 21.842 27.821 30.419l-18.146 9.798c-4.714 2.545-9.238 5.511-13.449 8.812-3.259 2.557-3.829 7.271-1.272 10.53 1.479 1.886 3.682 2.871 5.906 2.871 1.62 0 3.251-.521 4.624-1.599 3.542-2.779 7.351-5.274 11.318-7.416l37.255-20.116c1.603 16.835 15.818 30.048 33.067 30.048 17.248 0 31.464-13.213 33.067-30.048l37.255 20.116c25.756 13.906 41.755 40.729 41.755 69.998v39.998c0 4.143 3.358 7.5 7.5 7.5s7.5-3.357 7.5-7.5v-39.998c-.005-34.788-19.021-66.667-49.633-83.196zm-142.497-106.074v-45.065h60.047c21.838 0 43.346-7.401 60.561-20.841l10.489-8.189v74.096c0 36.144-29.405 65.549-65.548 65.549s-65.549-29.407-65.549-65.55zm65.049 114.206c-10.047 0-18.222-8.174-18.222-18.221v-17.656c6.012 1.437 12.276 2.22 18.722 2.22 6.09 0 12.015-.702 17.722-1.989v17.425c-.001 10.047-8.175 18.221-18.222 18.221z"/><path d="m374.55 137.688c1.776 0 3.559-.627 4.989-1.902l28.99-25.846c10.873 9.562 25.115 15.38 40.699 15.38 34.029 0 61.714-27.685 61.714-61.714 0-34.028-27.685-61.713-61.714-61.713s-61.713 27.685-61.713 61.713c0 13.052 4.084 25.163 11.026 35.144l-28.984 25.841c-3.092 2.756-3.363 7.497-.607 10.589 1.481 1.661 3.536 2.508 5.6 2.508zm74.678-120.795c25.758 0 46.714 20.955 46.714 46.713s-20.956 46.714-46.714 46.714-46.713-20.956-46.713-46.714 20.955-46.713 46.713-46.713z"/><path d="m449.228 339.586c-15.584 0-29.826 5.818-40.699 15.38l-28.99-25.846c-3.091-2.757-7.832-2.484-10.589.606-2.756 3.092-2.485 7.833.607 10.589l28.984 25.841c-6.942 9.981-11.026 22.091-11.026 35.144 0 34.029 27.685 61.714 61.713 61.714 34.029 0 61.714-27.685 61.714-61.714s-27.685-61.714-61.714-61.714zm0 108.428c-25.758 0-46.713-20.956-46.713-46.714s20.956-46.714 46.713-46.714c25.758 0 46.714 20.956 46.714 46.714s-20.956 46.714-46.714 46.714z"/><path d="m458.034 194.652c-18.276 0-33.563 13.039-37.052 30.302h-9.366c-4.142 0-7.5 3.357-7.5 7.5s3.358 7.5 7.5 7.5h9.366c3.489 17.263 18.776 30.301 37.052 30.301 20.844 0 37.801-16.957 37.801-37.801s-16.958-37.802-37.801-37.802zm0 60.602c-12.573 0-22.802-10.229-22.802-22.801 0-12.573 10.229-22.802 22.802-22.802s22.801 10.229 22.801 22.802-10.229 22.801-22.801 22.801z"/><path d="m61.714 125.32c15.584 0 29.826-5.818 40.699-15.38l28.99 25.846c1.43 1.275 3.212 1.902 4.989 1.902 2.063 0 4.119-.848 5.601-2.509 2.756-3.092 2.485-7.833-.607-10.589l-28.984-25.84c6.941-9.981 11.026-22.091 11.026-35.143 0-8.205-1.592-16.185-4.731-23.719-1.593-3.823-5.985-5.63-9.808-4.038-3.824 1.593-5.631 5.984-4.038 9.808 2.374 5.696 3.577 11.735 3.577 17.949 0 25.758-20.956 46.713-46.713 46.713-25.759 0-46.715-20.955-46.715-46.713 0-25.759 20.956-46.715 46.714-46.715 8.931 0 17.622 2.541 25.131 7.348 3.489 2.234 8.127 1.216 10.36-2.273 2.233-3.488 1.215-8.127-2.273-10.359-9.929-6.355-21.416-9.715-33.218-9.715-34.029-.001-61.714 27.685-61.714 61.714 0 34.028 27.685 61.713 61.714 61.713z"/><path d="m141.385 340.316c3.092-2.756 3.363-7.497.607-10.589-2.757-3.092-7.497-3.364-10.589-.606l-28.99 25.846c-10.873-9.562-25.115-15.38-40.699-15.38-34.029-.001-61.714 27.684-61.714 61.713s27.685 61.714 61.714 61.714 61.713-27.685 61.713-61.714c0-13.052-4.084-25.163-11.026-35.144zm-79.671 107.698c-25.758 0-46.714-20.956-46.714-46.714s20.956-46.714 46.714-46.714 46.713 20.956 46.713 46.714-20.955 46.714-46.713 46.714z"/><path d="m89.96 224.954c-3.489-17.263-18.776-30.302-37.052-30.302-20.844 0-37.801 16.958-37.801 37.802s16.958 37.801 37.801 37.801c18.276 0 33.563-13.038 37.052-30.301h9.366c4.142 0 7.5-3.357 7.5-7.5s-3.358-7.5-7.5-7.5zm-37.052 30.3c-12.573 0-22.801-10.229-22.801-22.801 0-12.573 10.229-22.802 22.801-22.802s22.802 10.229 22.802 22.802c-.001 12.573-10.23 22.801-22.802 22.801z"/></g></g></svg>