<svg id="Capa_1" enable-background="new 0 0 507.207 507.207" height="512" viewBox="0 0 507.207 507.207" width="512" xmlns="http://www.w3.org/2000/svg"><g><g><g><g id="XMLID_252_"><g><path d="m226.272 295.571c2.2.01 4.4.08 6.61.22l9.94.64 39.63-42.8c5.37-5.8 12.71-8.78 20.09-8.78 5.96 0 11.95 1.95 16.96 5.91 10.68 8.44 13.53 23.46 6.67 35.23l-55.03 94.52c-7.75 13.3-17.32 25.36-28.37 35.86s-23.59 19.44-37.27 26.5v46.773c0 5.56-4.507 10.067-10.067 10.067h-140.676c-5.56 0-10.067-4.507-10.067-10.067v-46.983c0-1.93-.3-3.83-.89-5.64-.58-1.81-1.45-3.53-2.58-5.1-10.22-14.17-15.72-31.21-15.72-48.69v-219.69c0-6.93 2.81-13.2 7.35-17.74 4.55-4.54 10.82-7.35 17.75-7.35 13.86 0 25.09 11.23 25.09 25.09v-25.13c0-6.93 2.81-13.2 7.35-17.75 4.54-4.54 10.82-7.35 17.75-7.35 13.86 0 25.09 11.24 25.09 25.1v-30c0-6.93 2.81-13.2 7.35-17.75 4.646-4.636 11.087-7.468 18.192-7.346 13.778.237 24.648 11.873 24.648 25.653v14.863c0-6.93 2.81-13.2 7.35-17.74 4.646-4.646 11.114-7.48 18.237-7.345 13.766.261 24.613 11.895 24.613 25.664z" fill="#ffe0d1"/></g><g><path d="m226.272 295.571c2.2.01 4.4.08 6.61.22l9.94.64 39.63-42.8c5.37-5.8 12.71-8.78 20.09-8.78 5.96 0 11.95 1.95 16.96 5.91 10.68 8.44 13.53 23.46 6.67 35.23l-55.03 94.52c-7.75 13.3-17.32 25.36-28.37 35.86s-23.59 19.44-37.27 26.5v46.773c0 5.56-4.507 10.067-10.067 10.067h-140.676c-5.56 0-10.067-4.507-10.067-10.067v-46.983c0-1.93-.3-3.83-.89-5.64-.58-1.81-1.45-3.53-2.58-5.1-10.22-14.17-15.72-31.21-15.72-48.69v-219.69c0-6.93 2.81-13.2 7.35-17.74 4.55-4.54 10.82-7.35 17.75-7.35 13.86 0 25.09 11.23 25.09 25.09v-25.13c0-6.93 2.81-13.2 7.35-17.75 4.54-4.54 10.82-7.35 17.75-7.35 13.86 0 25.09 11.24 25.09 25.1v-30c0-6.93 2.81-13.2 7.35-17.75 4.646-4.636 11.087-7.468 18.192-7.346 13.778.237 24.648 11.873 24.648 25.653v14.863c0-6.93 2.81-13.2 7.35-17.74 4.646-4.646 11.114-7.48 18.237-7.345 13.766.261 24.613 11.895 24.613 25.664z" fill="#ffe0d1"/></g><g><path d="m80.926 480.771c-5.56 0-10.067-4.372-10.067-9.765v-45.576c0-1.872-.3-3.715-.89-5.471-.58-1.756-1.45-3.424-2.58-4.947-10.22-13.745-15.72-30.275-15.72-47.231v-213.109c0-5.808 2.099-11.147 5.598-15.33-2.123-.584-4.355-.89-6.665-.89-6.93 0-13.2 2.81-17.75 7.35-4.54 4.54-7.35 10.81-7.35 17.74v219.69c0 17.48 5.5 34.52 15.72 48.69 1.13 1.57 2 3.29 2.58 5.1.59 1.81.89 3.71.89 5.64v46.983c0 5.56 4.507 10.067 10.067 10.067h140.677c5.56 0 10.066-4.507 10.066-10.067v-8.874z" fill="#ffd1c2"/><path d="m231.669 425.633v.335c.412-.326.824-.65 1.233-.98-.413.212-.817.437-1.233.645z" fill="#fcf0b6"/></g><g><g id="XMLID_253_"><g><path d="m228.095 295.605c-.607-.012-1.215-.031-1.823-.034v-20h-.252c-29.872 0-58.909 10.611-81.761 29.881l-15.214 12.829-27.991 26.323c-9.235 8.685-14.472 20.799-14.472 33.477v18.069c0 15.624 12.666 28.289 28.289 28.289h113.223v-128.834z" fill="#ffd1c2"/><path d="m319.502 250.761c10.68 8.44 13.53 23.46 6.67 35.23l-55.03 94.52c-7.75 13.3-17.32 25.36-28.37 35.86s-23.59 19.44-37.27 26.5v5.14h-98.92v-51.666c0-18.815 7.772-36.793 21.478-49.683l14.292-13.441 14.8-12.48c19.39-16.35 43.91-25.23 69.12-25.17 2.2.01 4.4.08 6.61.22l9.94.64 39.63-42.8c5.37-5.8 12.71-8.78 20.09-8.78 5.96 0 11.95 1.95 16.96 5.91z" fill="#ffe0d1"/></g></g></g></g><path d="m446.792 7.5h-155.656c-19.282 0-34.914 15.631-34.914 34.914v91.676c0 19.282 15.631 34.914 34.914 34.914h9.086v13.501c0 5.318 5.854 8.556 10.359 5.729l30.649-19.231h105.563c19.282 0 34.914-15.631 34.914-34.914v-91.675c-.001-19.282-15.633-34.914-34.915-34.914z" fill="#b3e5ee"/><path d="m325.115 142.835c-11.964 0-21.663-9.699-21.663-21.663v-102.412c0-4.124 1.153-7.979 3.154-11.26h-15.469c-19.282 0-34.914 15.631-34.914 34.914v91.676c0 19.282 15.631 34.914 34.914 34.914h9.086v13.501c0 5.318 5.854 8.556 10.359 5.729l30.649-19.231h105.563c16.262 0 29.927-11.118 33.809-26.168z" fill="#86d7e5"/></g><g id="XMLID_254_"><path d="m196.324 123.832c0-6.93 2.81-13.2 7.35-17.74 2.18-2.18 4.6-3.983 7.461-5.245-3.098-1.368-6.358-2.105-9.962-2.105-6.93 0-13.21 2.81-17.75 7.35s-7.35 10.81-7.35 17.74v126.86c11.185 0 20.252-9.067 20.252-20.252v-106.608z" fill="#ffd1c2"/><g><g id="XMLID_255_"><g fill="#ffd1c2"><path d="m95.906 142.411c0-6.93 2.81-13.2 7.35-17.75 3.262-3.262 7.416-5.638 12.069-6.714-4.103-2.925-9.11-4.636-14.533-4.636-6.93 0-13.21 2.81-17.75 7.35-4.54 4.55-7.35 10.82-7.35 17.75v25.13 87.15c11.163 0 20.213-9.05 20.213-20.213v-88.067z"/><path d="m146.486 110.345c0-6.93 2.81-13.2 7.35-17.75 2.671-2.665 5.82-4.715 9.462-5.969-3.666-2.097-7.79-3.314-12.316-3.314-6.93 0-13.2 2.81-17.75 7.35-4.54 4.55-7.35 10.82-7.35 17.75v30 112.28c11.379 0 20.604-9.225 20.604-20.604z"/></g></g></g></g></g><g><path d="m324.159 244.877c-14.183-11.221-34.92-9.615-47.209 3.654l-37.211 40.184-5.972-.383v-164.498c0-17.974-14.623-32.596-32.596-32.596-7.271 0-13.993 2.395-19.421 6.435-4.449-12.712-16.558-21.858-30.77-21.858-17.973 0-32.596 14.622-32.596 32.596v2.584c-5.08-3.272-11.118-5.179-17.596-5.179-17.222 0-31.359 13.429-32.511 30.364-5.097-3.305-11.166-5.233-17.681-5.233-17.973 0-32.596 14.622-32.596 32.596v109.062c0 4.143 3.358 7.5 7.5 7.5s7.5-3.357 7.5-7.5v-109.062c0-9.702 7.894-17.596 17.596-17.596s17.596 7.894 17.596 17.596v90.963c0 4.143 3.358 7.5 7.5 7.5s7.5-3.357 7.5-7.5v-116.094c0-9.702 7.894-17.596 17.596-17.596 9.703 0 17.596 7.894 17.596 17.596v117.279c0 4.143 3.358 7.5 7.5 7.5s7.5-3.357 7.5-7.5v-147.28c0-9.702 7.894-17.596 17.596-17.596s17.596 7.894 17.596 17.596v146.28c0 4.143 3.358 7.5 7.5 7.5s7.5-3.357 7.5-7.5v-130.857c0-9.702 7.894-17.596 17.596-17.596s17.596 7.894 17.596 17.596v164.46c-24.357 1.515-47.528 10.756-66.447 26.712l-14.802 12.483c-3.167 2.671-3.569 7.402-.898 10.568 2.67 3.167 7.403 3.569 10.568.898l14.803-12.483c19.695-16.61 44.698-24.848 70.412-23.198l9.935.638c2.254.145 4.45-.732 5.983-2.389l39.635-42.801c7.002-7.559 18.817-8.473 26.896-2.082 7.702 6.093 9.783 17.086 4.842 25.572l-55.037 94.52c-14.804 25.424-36.448 45.989-62.592 59.476-2.495 1.286-4.062 3.858-4.062 6.665v56.834c0 4.143 3.358 7.5 7.5 7.5s7.5-3.357 7.5-7.5v-52.334c26.868-14.791 49.147-36.525 64.617-63.092l55.037-94.52c8.672-14.895 5.019-34.191-8.499-44.884z"/><path d="m33.002 383.23v-78.662c0-4.143-3.358-7.5-7.5-7.5s-7.5 3.357-7.5 7.5v78.662c0 19.174 5.927 37.529 17.142 53.082 1.341 1.86 2.05 4.056 2.05 6.349v57.046c0 4.143 3.358 7.5 7.5 7.5s7.5-3.357 7.5-7.5v-57.046c0-5.462-1.688-10.691-4.883-15.122-9.362-12.981-14.309-28.304-14.309-44.309z"/><path d="m446.792 0h-155.656c-23.387 0-42.413 19.027-42.413 42.414v34.01c0 4.143 3.357 7.5 7.5 7.5s7.5-3.357 7.5-7.5v-34.01c0-15.116 12.298-27.414 27.413-27.414h155.656c15.115 0 27.413 12.298 27.413 27.414v91.676c0 15.116-12.298 27.414-27.413 27.414h-105.563c-1.41 0-2.792.397-3.986 1.147l-29.521 18.522v-12.17c0-4.143-3.357-7.5-7.5-7.5h-9.086c-15.115 0-27.413-12.298-27.413-27.414v-25.703c0-4.143-3.357-7.5-7.5-7.5s-7.5 3.357-7.5 7.5v25.703c0 23.387 19.026 42.414 42.413 42.414h1.586v6.001c0 5.188 2.82 9.971 7.359 12.481 2.151 1.19 4.529 1.782 6.903 1.781 2.637 0 5.27-.729 7.582-2.181l28.82-18.083h103.405c23.387 0 42.413-19.027 42.413-42.414v-91.674c.001-23.387-19.025-42.414-42.412-42.414z"/><path d="m376.464 96.191c7.178-1.521 13.834-5.193 18.944-10.576 6.955-7.325 10.497-16.925 9.973-27.031-.985-18.979-16.652-34.146-35.668-34.529-.25-.006-.497-.008-.745-.008-18.146 0-33.604 13.374-36.12 31.394-.232 1.674-.351 3.381-.351 5.073 0 4.143 3.357 7.5 7.5 7.5s7.5-3.357 7.5-7.5c0-1.004.07-2.016.207-3.003 1.479-10.599 10.581-18.464 21.268-18.464.146 0 .293.001.438.004 11.191.226 20.411 9.147 20.99 20.311.31 5.958-1.775 11.613-5.87 15.926-4.097 4.315-9.625 6.692-15.566 6.692-4.143 0-7.5 3.357-7.5 7.5v18.906c0 4.143 3.357 7.5 7.5 7.5s7.5-3.357 7.5-7.5z"/><path d="m368.964 127.347c-4.143 0-7.5 3.357-7.5 7.5v5.964c0 4.143 3.357 7.5 7.5 7.5s7.5-3.357 7.5-7.5v-5.964c0-4.143-3.357-7.5-7.5-7.5z"/></g></g></svg>