<svg id="Capa_1" enable-background="new 0 0 503.799 503.799" height="512" viewBox="0 0 503.799 503.799" width="512" xmlns="http://www.w3.org/2000/svg"><g><g><path d="m360.169 17.065h-9.68c-9.97 0-18.06 8.09-18.06 18.07v19.95l6.962 12.445h31.418l7.42-12.445v-19.95c0-9.979-8.09-18.07-18.06-18.07z" fill="#f9de58"/><g><path d="m486.183 113.022c5.587 0 10.116 4.529 10.116 10.116v331.783c0 17.568-14.242 31.81-31.81 31.81h-425.18c-17.568 0-31.81-14.242-31.81-31.81v-331.783c0-5.587 4.529-10.116 10.116-10.116z" fill="#a59ca6"/><path d="m464.699 113.022h-424.51v323.964c0 18.053 14.687 32.74 32.74 32.74h359.03c18.053 0 32.739-14.688 32.739-32.74v-323.964z" fill="#8f8390"/><path d="m435.74 365.792h-177.172l-6.119 60.583v22.989.36h179.51c7.03 0 12.74-5.71 12.74-12.74v-39.34z" fill="#f2eae7"/><path d="m252.693 423.959-.244 2.417v22.989.36h179.51c7.03 0 12.74-5.71 12.74-12.74v-13.026z" fill="#ede2dd"/><path d="m444.699 101.105v296.54h-140.53c-28.57 0-51.72 23.15-51.72 51.72 0-2.45-.17-4.87-.51-7.23v-327.44c.27-12.33 10.34-22.25 22.74-22.25h161.35c4.79 0 8.67 3.88 8.67 8.66z" fill="#f9f7f7"/><g id="XMLID_284_"><g><path d="m378.229 55.085v286.46c0 1.55-.52 3.05-1.47 4.27l-15.93 20.49c-2.79 3.58-8.21 3.58-11 0l-15.93-20.49c-.95-1.22-1.47-2.72-1.47-4.27v-286.46z" fill="#e79098"/></g></g><g id="XMLID_282_"><g><path d="m251.939 442.135-3.314-26.348-17.718-55.747h-146.496l-24.221 37.604v39.34c0 7.03 5.71 12.74 12.74 12.74h179.52v-.36c-.001-2.448-.171-4.868-.511-7.229z" fill="#f2eae7"/><path d="m249.653 423.959h-125.213c-10.665 0-19.311-8.646-19.311-19.31v-44.608h-20.718l-24.221 37.604v39.34c0 7.03 5.71 12.74 12.74 12.74h179.52v-.36c0-2.45-.17-4.87-.51-7.23z" fill="#ede2dd"/><path d="m251.939 114.695v327.44c-3.51-25.15-25.1-44.49-51.22-44.49h-140.53v-296.54c0-4.78 3.88-8.66 8.67-8.66h160.22c12.42 0 22.53 9.9 22.86 22.25z" fill="#f8f3f2"/></g></g><g><path d="m105.129 92.445h-36.27c-4.79 0-8.67 3.88-8.67 8.66v296.54h44.94z" fill="#f2eae7"/></g><path d="m171.892 166.984-17.573-6.598c-32.55 0-58.94 26.39-58.94 58.94 0 16.28 6.6 31.02 17.27 41.68.03-.04 43.396-2.375 43.396-2.375l32.637-56.667z" fill="#e79098"/><g id="XMLID_283_"><g><path d="m154.319 160.385c32.55 0 58.93 26.39 58.93 58.94s-26.38 58.93-58.93 58.93c-16.27 0-31-6.59-41.67-17.25l.03-.04 41.64-41.64z" fill="#fbe88c"/></g></g></g></g><g><path d="m486.183 105.522h-33.984v-4.412c0-8.916-7.253-16.169-16.169-16.169h-27.801c-4.143 0-7.5 3.357-7.5 7.5s3.357 7.5 7.5 7.5h27.801c.645 0 1.169.524 1.169 1.169v289.033h-133.032c-17.844 0-33.858 7.944-44.725 20.468v-295.769c.181-8.218 7.012-14.901 15.233-14.901h27.752c4.143 0 7.5-3.357 7.5-7.5s-3.357-7.5-7.5-7.5h-27.752c-8.975 0-17.114 4.014-22.682 10.34-5.553-6.362-13.736-10.34-22.913-10.34h-160.22c-8.916 0-16.169 7.253-16.169 16.169v4.412h-35.075c-9.714 0-17.616 7.902-17.616 17.615v331.783c0 21.676 17.634 39.31 39.31 39.31h425.18c21.676 0 39.31-17.634 39.31-39.31v-331.783c-.001-9.713-7.904-17.615-17.617-17.615zm-418.492 299.621h133.032c21.952 0 40.211 16.081 43.637 37.08h-171.427c-2.89 0-5.241-2.352-5.241-5.241v-31.839zm1.169-305.202h160.22c8.378 0 15.117 6.55 15.362 14.918v294.603c-10.837-11.864-26.423-19.319-43.72-19.319h-133.031v-289.033c0-.645.525-1.169 1.169-1.169zm419.939 354.979c0 13.404-10.905 24.31-24.31 24.31h-425.179c-13.404 0-24.31-10.905-24.31-24.31v-331.783c0-1.442 1.173-2.615 2.616-2.615h35.076v316.46c0 11.161 9.08 20.241 20.241 20.241h244.29c4.143 0 7.5-3.357 7.5-7.5s-3.357-7.5-7.5-7.5h-56.693c3.425-20.999 21.685-37.08 43.637-37.08h133.031v31.839c0 2.89-2.352 5.241-5.241 5.241h-82.771c-4.143 0-7.5 3.357-7.5 7.5s3.357 7.5 7.5 7.5h82.771c11.161 0 20.241-9.08 20.241-20.241v-316.46h33.984c1.442 0 2.616 1.173 2.616 2.615v331.783z"/><path d="m343.909 370.908c2.761 3.548 6.923 5.583 11.419 5.583s8.658-2.035 11.419-5.583l15.934-20.482c1.966-2.527 3.048-5.682 3.048-8.883v-306.411c0-14.096-11.468-25.563-25.563-25.563h-9.674c-14.096 0-25.563 11.468-25.563 25.563v168.211c0 4.143 3.357 7.5 7.5 7.5s7.5-3.357 7.5-7.5v-140.76h30.801v278.777l-15.4 19.797-15.4-19.798v-106.054c0-4.143-3.357-7.5-7.5-7.5s-7.5 3.357-7.5 7.5v106.237c0 3.201 1.082 6.355 3.048 8.883zm-3.981-323.325v-12.45c0-5.825 4.738-10.563 10.563-10.563h9.674c5.825 0 10.563 4.738 10.563 10.563v12.45z"/><path d="m154.318 285.76c7.622 0 15.118-1.292 22.28-3.842 3.902-1.389 5.94-5.678 4.551-9.58s-5.679-5.94-9.581-4.551c-5.543 1.973-11.348 2.973-17.251 2.973-11.481 0-22.095-3.783-30.663-10.166l35.966-35.966c1.407-1.407 2.197-3.314 2.197-5.304v-50.884c24.819 3.642 43.936 25.069 43.936 50.883 0 11.849-3.925 22.988-11.351 32.215-2.597 3.227-2.086 7.947 1.14 10.545 3.229 2.597 7.948 2.086 10.545-1.141 9.457-11.75 14.666-26.53 14.666-41.619 0-36.633-29.803-66.436-66.436-66.436s-66.436 29.803-66.436 66.436 29.805 66.437 66.437 66.437zm-7.5-117.319v47.777l-33.77 33.769c-6.383-8.569-10.166-19.182-10.166-30.663 0-25.814 19.118-47.241 43.936-50.883z"/><path d="m98.837 136.38h114.417c4.142 0 7.5-3.357 7.5-7.5s-3.358-7.5-7.5-7.5h-114.417c-4.142 0-7.5 3.357-7.5 7.5s3.358 7.5 7.5 7.5z"/><path d="m213.254 305.644h-114.417c-4.142 0-7.5 3.357-7.5 7.5s3.358 7.5 7.5 7.5h114.417c4.142 0 7.5-3.357 7.5-7.5s-3.358-7.5-7.5-7.5z"/><path d="m213.254 343.985h-114.417c-4.142 0-7.5 3.357-7.5 7.5s3.358 7.5 7.5 7.5h114.417c4.142 0 7.5-3.357 7.5-7.5s-3.358-7.5-7.5-7.5z"/></g></g></svg>