<svg id="Capa_1" enable-background="new 0 0 512.964 512.964" height="512" viewBox="0 0 512.964 512.964" width="512" xmlns="http://www.w3.org/2000/svg"><g><path d="m471.811 368.195-39.147-16.022h-15.657l-38.369 16.023c-3.949 1.652-7.568 3.868-10.797 6.53l-24.91 21.522 3.543 25.095 13.475.827 1 11.554.005.032h132.12c3.375 0 6.111-2.736 6.111-6.111v-17.228c0-18.586-10.838-35.302-27.374-42.222z" fill="#b3e5ee"/><path d="m432.664 352.172h-15.657l-4.82 2.013-33.549 14.01c-3.949 1.652-7.568 3.868-10.797 6.53l-24.91 21.522 1.261 8.933 2.282 16.162 4.788.294 8.687.533 1 11.554.005.032h22.991c1.647-3.438 2.571-7.284 2.571-11.343v-31.52c0-1.854-.078-3.697-.229-5.527-.336-4.073 2.017-7.89 5.789-9.465l7.398-3.089c2.212-.924 4.795-.45 6.454 1.28 4.872 5.078 11.719 8.245 19.296 8.245 13.272 0 24.314-9.712 26.405-22.401z" fill="#86d7e5"/><path d="m441.99 355.57c0 9.26-7.506 16.766-16.766 16.766s-16.766-7.506-16.766-16.766v-48.634h33.532z" fill="#ffd1c2"/><path d="m460.737 325.756 1.349.207c29.231 4.489 51.957-24.977 40.191-52.109l-11.277-26.001c-1.113-2.567-1.879-5.27-2.277-8.039-4.494-31.231-31.253-54.416-62.806-54.416-31.553 0-58.312 23.185-62.806 54.416-.398 2.769-1.164 5.473-2.277 8.039l-11.276 26.002c-11.767 27.132 10.96 56.597 40.191 52.109l1.349-.207 23.534-9.228h20.458z" fill="#a59ca6"/><path d="m288.126 335.682h-63.686v-105.091h65.053z" fill="#ffd1c2"/><path d="m167.201 382.325-19.577-15.051c-4.186-3.117-8.873-5.655-13.973-7.461l-27.204-9.635-12.363-3.82h-14.091l-9.93 3.82-27.204 9.635c-21.194 7.506-35.359 27.551-35.359 50.034v17.281c0 3.66 2.967 6.626 6.626 6.626h126.923c.003-.005 16.706-33.049 26.152-51.429z" fill="#b3e5ee"/><path d="m309.2 320.214 37.175 24.629c15.739 10.427 25.141 27.649 25.141 46.05v31.519c0 6.265-5.079 11.343-11.343 11.343h-219.124v-42.862c0-18.401 9.402-35.623 25.141-46.05l37.175-24.629 21.075-13.246 36.213 15.333s27.782-14.553 28.861-15.333 19.686 13.246 19.686 13.246z" fill="#f9f7f7"/><path d="m305.123 104.067-4.64-.69-44.2-4.305s-5.788 95.255-4.748 95.255 28.028 19.11 28.028 19.11h54.01l2.54-21.93 5.44-38.68c3.31-23.499-12.96-45.269-36.43-48.76z" fill="#a59ca6"/><g id="XMLID_2_"><g><path d="m318.843 154.713.147-.457c4.866-15.106 4.769-30.934-.047-45.671-4.212-2.227-8.844-3.778-13.821-4.518l-4.64-.69-44.2-4.305s-5.788 95.255-4.748 95.255 28.028 19.11 28.028 19.11h16.124z" fill="#8f8390"/><path d="m300.483 103.378c7.37 13.69 9.39 30.26 4.23 46.28l-25.15 63.78h-93.06l-8.6-23.73c-4.77-11.58-7.13-23.81-7.13-36 0-17.39 4.8-34.69 14.23-49.86 16.25-26.15 47.85-38.38 77.47-29.98l1.96.56c16.11 4.56 28.72 15.33 36.05 28.95z" fill="#a59ca6"/></g></g><path d="m323.357 226.572c10.18 0 18.433-8.253 18.433-18.433 0-10.18-8.253-18.433-18.433-18.433h-39.99v36.867h39.99z" fill="#ffd1c2"/><path d="m189.209 226.572c-10.18 0-18.433-8.253-18.433-18.433 0-10.18 8.253-18.433 18.433-18.433h39.99v36.867h-39.99z" fill="#ffd1c2"/><path d="m149.381 270.193 1.63-19.29c3.506-42.998-39.828-74.399-79.596-57.678l-15.604 6.561c-19.731 4.008-32.935 22.679-30.138 42.618l3.871 27.598 3.756 18.747s113.091 1.19 113.091 0 2.99-18.556 2.99-18.556z" fill="#a59ca6"/><path d="m106.448 350.177-12.363-3.82h-14.092l-6.963 2.678-2.967 1.142-27.204 9.635c-21.194 7.507-35.359 27.552-35.359 50.035v17.281c0 3.66 2.967 6.626 6.626 6.626h12.47v-17.11c0-22.482 14.164-42.526 35.356-50.034l.074-.026c1.555-.551 3.257-.013 4.294 1.271 5.17 6.407 13.08 10.513 21.935 10.513 14.372 0 26.258-10.812 27.972-24.728z" fill="#86d7e5"/><g fill="#ffd1c2"><path d="m106.448 350.177c0 10.047-8.145 18.192-18.192 18.192-10.047 0-18.192-8.145-18.192-18.192v-50.466h36.385v50.466z"/><path d="m139.013 299.215c9.038 0 16.364-7.326 16.364-16.364 0-9.038-7.326-16.364-16.364-16.364h-35.999v32.925z"/><path d="m39.656 299.215c-9.038 0-16.364-7.326-16.364-16.364 0-9.038 7.326-16.364 16.364-16.364h33.374v32.728z"/></g><path d="m256.283 282.851c32.955 0 59.67-26.715 59.67-59.67v-41.581c0-14.871-6.488-29.003-17.765-38.697l-8.179-7.03c-1.9-1.633-4.695-1.676-6.644-.102l-8.73 7.051h-40.72c-20.601 0-37.301 16.7-37.301 37.301v43.058c-.001 32.955 26.714 59.67 59.669 59.67z" fill="#ffe0d1"/><path d="m232.607 162.32h52.856c3.605 0 7.117-1.141 10.033-3.26l8.034-5.837c.874-.635 1.887-1.051 2.921-1.279-2.359-3.304-5.126-6.344-8.263-9.041l-8.179-7.03c-1.9-1.633-4.695-1.676-6.645-.102l-8.73 7.051h-40.72c-18.693 0-34.172 13.728-36.879 31.665 9.453-7.577 21.911-12.167 35.572-12.167z" fill="#ffd1c2"/><path d="m263.783 433.755v-110.87c0-.719-.107-1.412-.296-2.071-1.743.915-2.834 1.486-2.834 1.486l-10.082-4.269c-1.113 1.309-1.788 3.001-1.788 4.854v110.87z" fill="#f2eae7"/><path d="m309.2 320.213s-18.607-14.025-19.686-13.246-28.861 15.333-28.861 15.333l-36.213-15.333-14.354 9.021-6.721 4.224-37.175 24.629c-15.739 10.427-25.141 27.649-25.141 46.05v42.862h23.84v-31.767c0-18.401 9.402-35.624 25.141-46.051l8.251-5.466c3.23-2.14 7.568-1.387 9.888 1.715 3.458 4.623 8.494 7.924 14.189 8.872 3.358.559 6.755.332 9.977-.647l23.948-7.288 23.951 7.289c2.063.627 4.202.945 6.357.945h.001c6.853 0 13.396-3.276 17.501-8.765l17.119-22.889c.258-.345.481-.704.715-1.06z" fill="#f2eae7"/><path d="m224.44 300.053 31.843 15.614v21.777l-28.315 8.617c-2.762.84-5.754-.14-7.483-2.452l-17.12-22.89c-1.985-2.654-1.562-6.393.964-8.538l13.292-11.279c1.902-1.614 4.579-1.947 6.819-.849z" fill="#f9f7f7"/><path d="m288.126 300.053-31.843 15.614v21.777l28.315 8.617c2.762.84 5.754-.14 7.483-2.452l17.12-22.89c1.985-2.654 1.562-6.393-.964-8.538l-13.292-11.279c-1.903-1.614-4.58-1.947-6.819-.849z" fill="#f9f7f7"/><path d="m191.194 433.755v-39.498c0-4.143-3.358-7.5-7.5-7.5s-7.5 3.357-7.5 7.5v39.498z" fill="#f2eae7"/><path d="m336.371 433.755v-39.498c0-4.143-3.358-7.5-7.5-7.5s-7.5 3.357-7.5 7.5v39.498z" fill="#f2eae7"/><path d="m467.378 253.46v47.805c0 22.898-18.563 41.461-41.461 41.461-22.898 0-41.461-18.563-41.461-41.461v-35.979c0-11.069 3.769-21.808 10.686-30.45 1.203-1.503 3.401-1.738 4.895-.523l1.935 1.574c8.709 7.086 19.519 11.089 30.743 11.385l29.391.775c2.934.077 5.272 2.478 5.272 5.413z" fill="#ffe0d1"/><path d="m389.698 245.595 2.465 1.574c11.092 7.086 24.858 11.089 39.152 11.385l36.064.747v-5.841c0-2.935-2.338-5.336-5.272-5.413l-29.391-.775c-11.224-.296-22.034-4.299-30.743-11.385l-1.935-1.575c-1.494-1.215-3.692-.98-4.895.523-2.551 3.186-4.669 6.659-6.333 10.328.309.117.609.254.888.432z" fill="#ffd1c2"/><path d="m57.547 240.269c-4.994 6.897-7.683 15.195-7.683 23.71v35.005c0 21.799 17.671 39.47 39.47 39.47 21.799 0 39.47-17.671 39.47-39.47v-38.711c0-2.83-2.294-5.123-5.123-5.123h-18.52c-14.917 0-29.424-4.879-41.309-13.893l-2.122-1.609c-1.321-1.004-3.21-.723-4.183.621z" fill="#ffe0d1"/><path d="m52.338 251.364c16.33 12.385 36.263 19.089 56.759 19.089h19.708v-10.181c0-2.83-2.294-5.124-5.123-5.124h-18.52c-14.917 0-29.424-4.879-41.309-13.893l-2.122-1.609c-1.322-1.003-3.21-.722-4.184.622-2.408 3.326-4.274 6.979-5.567 10.824z" fill="#ffd1c2"/></g><g><path d="m183.694 386.757c-4.142 0-7.5 3.357-7.5 7.5v39.498c0 4.143 3.358 7.5 7.5 7.5s7.5-3.357 7.5-7.5v-39.498c0-4.143-3.358-7.5-7.5-7.5z"/><path d="m328.871 386.757c-4.142 0-7.5 3.357-7.5 7.5v39.498c0 4.143 3.358 7.5 7.5 7.5s7.5-3.357 7.5-7.5v-39.498c0-4.143-3.358-7.5-7.5-7.5z"/><path d="m474.603 360.573-25.113-10.075v-6.414c4.93-2.74 9.356-6.305 13.081-10.513 15.885 1.875 31.084-4.466 40.923-17.223 10.175-13.192 12.292-30.193 5.664-45.478l-11.277-26.002c-.848-1.954-1.431-4.015-1.735-6.123-2.43-16.89-10.871-32.346-23.768-43.52-12.897-11.175-29.397-17.328-46.461-17.328s-33.564 6.153-46.461 17.328c-12.896 11.174-21.338 26.629-23.768 43.52-.304 2.109-.887 4.17-1.735 6.123l-11.276 26.002c-6.628 15.284-4.511 32.285 5.664 45.478 8.704 11.285 21.6 17.574 35.455 17.573 1.787 0 3.592-.106 5.406-.319 3.38 3.833 7.344 7.134 11.759 9.762v7.133l-25.112 10.076c-1.637.657-3.235 1.4-4.793 2.222-4.859-8.937-11.796-16.752-20.428-22.689l-32.709-22.495c.189-4.131-1.463-8.292-4.828-11.147l-13.291-11.278c-1.26-1.07-2.676-1.878-4.172-2.427v-15.184c14.049-10.19 24.011-25.672 26.931-43.502h.8c14.3 0 25.934-11.634 25.934-25.933 0-6.105-2.126-11.721-5.669-16.156l5.361-38.111c3.864-27.474-15.317-53.145-42.76-57.227l-1.067-.158c-8.775-14.322-22.366-24.655-38.673-29.279l-1.963-.557c-21.62-6.13-44.746-2.471-63.448 10.041-3.443 2.303-4.367 6.961-2.064 10.403s6.96 4.367 10.404 2.063c15.041-10.062 33.635-13.005 51.016-8.076l1.963.557c13.645 3.869 24.846 12.886 31.54 25.39 4.605 8.603 6.638 18.064 6.051 27.528l-5.084-4.37c-4.647-3.994-11.48-4.1-16.246-.25l-6.669 5.387h-38.069c-24.703 0-44.801 20.098-44.801 44.801v2.083c-1.989.007-3.923.245-5.783.678-8.479-23.87-6.088-50.764 6.656-72.763 2.076-3.585.854-8.173-2.73-10.25-3.584-2.075-8.172-.854-10.249 2.73-15.412 26.606-17.911 59.317-6.831 87.945-4.279 4.626-6.9 10.807-6.9 17.591 0 14.299 11.634 25.933 25.934 25.933h.8c2.92 17.83 12.882 33.312 26.931 43.502v15.184c-1.496.548-2.912 1.357-4.171 2.426l-13.292 11.279c-3.365 2.855-5.017 7.017-4.828 11.147l-32.709 22.495c-6.647 4.571-12.291 10.255-16.755 16.708-2.893-1.598-5.908-2.964-9.03-4.07l-22.208-7.866v-5.911c11.312-6.989 19.444-18.639 21.709-32.251h3.356c13.159 0 23.864-10.705 23.864-23.863 0-5.908-2.162-11.316-5.731-15.488l1.339-15.851c1.861-22.826-8.099-44.478-26.644-57.915-18.545-13.439-42.222-16.162-63.334-7.286l-14.949 6.285c-23.147 5.11-38.618 27.29-35.313 50.85l3.344 23.84c-3.608 4.182-5.797 9.621-5.797 15.565 0 13.158 10.705 23.863 23.864 23.863h3.356c2.118 12.729 9.369 23.738 19.551 30.829v7.333l-22.208 7.865c-3.11 1.102-6.174 2.482-9.106 4.104-3.625 2.004-4.939 6.567-2.935 10.192 1.368 2.475 3.929 3.872 6.57 3.872 1.227 0 2.472-.302 3.622-.938 2.213-1.224 4.52-2.264 6.855-3.091l19.19-6.797c3.886 9.262 13.046 15.784 23.703 15.784s19.817-6.522 23.703-15.784l19.19 6.798c2.414.854 4.744 1.917 6.977 3.165-2.979 7.552-4.576 15.69-4.576 24.041v44.494c0 4.143 3.358 7.5 7.5 7.5s7.5-3.357 7.5-7.5v-44.494c0-16.636 8.184-32.196 21.891-41.623l31.236-21.482 12.803 17.118c2.752 3.68 7.067 5.753 11.518 5.753 1.386 0 2.786-.201 4.155-.618l18.631-5.67v94.156c0 4.143 3.358 7.5 7.5 7.5s7.5-3.357 7.5-7.5v-94.156l18.633 5.671c1.369.416 2.767.617 4.153.617 4.45 0 8.766-2.074 11.518-5.753l12.802-17.118 31.236 21.482c13.708 9.427 21.891 24.987 21.891 41.623v44.494c0 4.143 3.358 7.5 7.5 7.5s7.5-3.357 7.5-7.5v-44.494c0-5.907-.801-11.708-2.321-17.272 1.52-.887 3.101-1.665 4.736-2.321l21.777-8.738c3.858 8.304 12.273 14.079 22.016 14.079s18.158-5.774 22.016-14.078l21.778 8.737c13.771 5.524 22.668 18.681 22.668 33.518v12.695c0 4.143 3.358 7.5 7.5 7.5s7.5-3.357 7.5-7.5v-12.695c-.001-21-12.595-39.621-32.084-47.441zm-296.328-152.434c0-5.996 4.853-10.876 10.837-10.929v21.856c-5.983-.052-10.837-4.931-10.837-10.927zm-39.262 83.576h-2.708v-17.728h2.708c4.888 0 8.864 3.977 8.864 8.864s-3.976 8.864-8.864 8.864zm-108.221-8.863c0-4.888 3.976-8.864 8.864-8.864h2.708v17.728h-2.708c-4.887-.001-8.864-3.977-8.864-8.864zm20.681-46.983c-4.975 6.87-7.983 14.781-8.844 23.118h-2.973c-1.376 0-2.722.124-4.035.348l-2.521-17.973c-2.242-15.98 8.39-31.014 24.204-34.227.484-.098.958-.244 1.414-.436l15.604-6.561c16.242-6.829 34.454-4.732 48.719 5.604 14.265 10.338 21.927 26.992 20.497 44.528l-.762 9.015c-1.226-.195-2.482-.299-3.763-.299h-2.774c-.646-6.359-6.031-11.339-12.558-11.339h-18.52c-13.199 0-26.26-4.393-36.776-12.368l-2.122-1.609c-2.228-1.69-5.094-2.424-7.857-2.012-2.766.412-5.293 1.947-6.933 4.211zm12.149 8.798c-.002.003-.003.005-.004.007.001-.002.003-.004.004-.007zm-6.257 19.312c0-5.424 1.307-10.666 3.81-15.386 12.773 9.079 28.302 14.056 43.987 14.056h16.143v36.334c0 17.629-14.342 31.971-31.97 31.971s-31.97-14.342-31.97-31.971zm30.89 96.89c-5.896 0-10.692-4.797-10.692-10.692v-5.718c3.763.975 7.708 1.495 11.772 1.495 3.294 0 6.508-.344 9.613-.993v5.216c0 5.895-4.797 10.692-10.693 10.692zm235.198-141.803v-21.856c5.984.052 10.837 4.933 10.837 10.929s-4.853 10.875-10.837 10.927zm10.675-67.285-4.392 31.22c-2.012-.511-4.117-.786-6.284-.794v-.607c0-12.092-3.74-23.723-10.513-33.442 2.953-11.374 2.849-23.084-.208-34.214 14.487 6.183 23.687 21.56 21.397 37.837zm-130.015 71.401v-43.058c0-16.433 13.369-29.801 29.801-29.801h40.72c1.715 0 3.378-.588 4.712-1.665l7.233-5.843 6.719 5.775c9.631 8.278 15.154 20.311 15.154 33.01v41.581c0 28.767-23.403 52.17-52.17 52.17s-52.169-23.403-52.169-52.169zm52.17 67.17c8.585 0 16.789-1.636 24.343-4.584v9.61l-24.343 11.936-24.343-11.936v-9.61c7.553 2.947 15.758 4.584 24.343 4.584zm-30.064 48.401-16.156-21.601 11.797-10.011 26.922 13.2v11.545zm60.127 0-22.563-6.866v-11.545l26.922-13.2 11.797 10.011zm73.871-31.566c-6.79-8.804-8.203-20.148-3.779-30.348l11.276-26.002c1.378-3.176 2.327-6.525 2.82-9.955 3.937-27.355 27.746-47.984 55.383-47.984s51.446 20.629 55.382 47.984c.493 3.429 1.442 6.778 2.82 9.955l11.276 26.002c4.423 10.199 3.011 21.544-3.779 30.348-5.028 6.518-12.153 10.531-19.973 11.494 1.615-4.196 2.668-8.669 3.055-13.331.342-4.128-2.728-7.752-6.855-8.094-4.124-.335-7.751 2.728-8.094 6.855-1.445 17.447-16.306 31.114-33.832 31.114-18.727 0-33.961-15.234-33.961-33.961v-35.979c0-7.978 2.348-15.824 6.673-22.484 9.705 7.408 21.668 11.645 33.888 11.968l27.361.722v17.276c0 4.143 3.358 7.5 7.5 7.5s7.5-3.357 7.5-7.5v-19.307c0-7.054-5.524-12.725-12.575-12.91l-29.391-.774c-9.517-.252-18.824-3.699-26.207-9.704l-1.938-1.577c-2.286-1.859-5.157-2.711-8.088-2.396-2.929.313-5.556 1.753-7.395 4.052-7.951 9.934-12.331 22.412-12.331 35.137v35.979c0 6.127 1.141 11.99 3.206 17.4-7.806-.97-14.921-4.97-19.942-11.48zm65.007 57.649c-5.109 0-9.266-4.156-9.266-9.266v-6.365c3.217.667 6.547 1.021 9.958 1.021 2.918 0 5.781-.274 8.573-.778v6.123c.001 5.109-4.156 9.265-9.265 9.265z"/><path d="m16.075 379.978c-3.728-1.809-8.213-.247-10.019 3.481-4.018 8.301-6.056 17.179-6.056 26.388v23.908c0 4.143 3.358 7.5 7.5 7.5s7.5-3.357 7.5-7.5v-23.908c0-6.926 1.533-13.604 4.558-19.851 1.805-3.728.246-8.214-3.483-10.018z"/></g></svg>