<svg id="Capa_1" enable-background="new 0 0 512 512" height="512" viewBox="0 0 512 512" width="512" xmlns="http://www.w3.org/2000/svg"><g><g><g><g id="XMLID_293_"><g><path d="m337.927 11.756-61.374 77.096-32.408 20.095c-25.174 15.625-44.73 38.833-55.856 66.292l-10.107 24.964-12.122 78.671 52.032 49.512 4.371 43.924c.429 4.35-.289 8.741-2.085 12.722l-15.575 34.493c-1.038 2.295-1.527 4.71-1.527 7.084 0 2.425.519 4.819 1.497 7.014 1.517 3.442 4.181 6.406 7.753 8.272 7.553 3.941 16.842 1.776 21.881-5.099l28.556-38.993c.519-.708.968-1.457 1.357-2.235l.239.12-12.173 24.895c-4.35 8.89-.419 19.616 8.651 23.587 2.255.988 4.63 1.457 6.965 1.457 5.717 0 11.255-2.824 14.558-7.862l16.723-25.523c.279-.569.589-1.128.938-1.666l12.293-19.137c-.389 1.008-.888 1.966-1.477 2.874l-11.754 17.93c-3.472 7.124-1.127 15.875 5.717 20.255 2.644 1.696 5.607 2.504 8.531 2.504 4.939 0 9.788-2.305 12.871-6.585l20.285-28.117-4.091 6.007c-1.916 2.814-2.844 6.027-2.844 9.21 0 4.999 2.285 9.918 6.565 13.121 7.074 5.288 17.062 4.011 22.58-2.874l12.342-15.406c3.043-3.792 4.949-8.371 5.508-13.201l3.732-32.468 17.232-142.233.748-29.215.259-41.927c.01-1.716.609-3.382 1.676-4.719l85.306-106.483c3.522-4.397.915-10.956-4.665-11.735l-144.299-20.138c-3.351-.468-6.701.87-8.809 3.517z" fill="#ffe0d1"/></g><g><path d="m346.736 8.239c-3.352-.468-6.702.87-8.809 3.517l-61.374 77.096-32.408 20.095c-25.174 15.625-44.73 38.833-55.856 66.292l-5.093 12.579h35.014l1.557-3.876c11.436-28.455 31.539-52.504 57.415-68.696l33.313-20.825 63.088-79.891c.7-.887 1.545-1.615 2.468-2.201z" fill="#ffd1c2"/></g><g><g id="XMLID_297_"><path d="m272.79 329.872-6.974 60.668c-.21 1.756-.708 3.462-1.497 5.029l.239.12-12.173 24.895c-4.35 8.89-.419 19.616 8.651 23.587 2.255.988 4.63 1.457 6.965 1.457 1.6 0 3.175-.217 4.702-.647-6.161-4.968-8.353-13.721-4.701-21.185l12.173-24.895-.239-.12c.788-1.567 1.287-3.273 1.497-5.029l5.518-48c.971-8.46-5.644-15.88-14.161-15.88z" fill="#ffd1c2"/></g><g id="XMLID_299_"><path d="m319.572 331.693-6.059 55.629c-.16 1.427-.509 2.824-1.038 4.141-.389 1.008-.888 1.966-1.477 2.874l-11.754 17.93c-3.472 7.124-1.128 15.875 5.717 20.255 2.815 1.806 6.002 2.582 9.108 2.471.006-.015-.006.015 0 0-4.054-4.714-5.033-11.496-2.238-17.23l11.754-17.93c.589-.908 1.088-1.866 1.477-2.874.529-1.317.878-2.714 1.038-4.141l5.229-48.017c.762-6.998-4.719-13.108-11.757-13.108z" fill="#ffd1c2"/></g></g></g></g><path d="m355.704 331.693-2.911 27.587-4.43 36.758c-.19 1.537-.768 3.003-1.676 4.26l-4.091 6.007c-1.916 2.814-2.844 6.027-2.844 9.21 0 4.999 2.285 9.918 6.565 13.121 3.01 2.251 6.538 3.313 10.036 3.259-2.847-3.075-4.36-7.068-4.36-11.119 0-3.183.928-6.396 2.844-9.21l4.091-6.007c.908-1.257 1.487-2.724 1.676-4.26l4.43-36.758 2.124-20.121c.716-6.803-4.615-12.727-11.454-12.727z" fill="#ffd1c2"/><path d="m306.453 214.251c1.061-3.786 1.599-7.672 1.599-11.552 0-22.618-17.708-41.28-40.302-42.486l-43.086-2.325c-1.065-.058-2.145-.087-3.212-.087-9.965 0-19.866 2.577-28.598 7.34-1.65 3.296-3.174 6.664-4.566 10.099l-10.107 24.964 19.614-14.605c7.424-5.529 16.551-8.284 25.795-7.785l43.084 2.325c12.332.659 21.422 10.916 21.422 22.56 0 2.025-.279 4.101-.858 6.166-2.504 8.91-10.187 15.386-19.377 16.364l-37.935 4.041-14.488 53.491c-.908 3.372-1.197 6.875-.858 10.347l7.882 79.204c.429 4.35-.289 8.741-2.085 12.722l-15.575 34.493c-1.038 2.295-1.527 4.71-1.527 7.084 0 2.425.519 4.819 1.497 7.014 1.517 3.442 4.181 6.406 7.753 8.272 5.666 2.956 12.31 2.476 17.402-.85-4.091-9.18-4.065-19.67.071-28.83l8.57-18.978c3.227-7.156 4.525-15.07 3.752-22.903l-7.878-79.173c-.106-1.083-.017-2.164.258-3.185l10.918-40.311 24.356-2.594c17.419-1.855 31.737-13.948 36.479-30.822z" fill="#ffd1c2"/><path d="m288.097 202.698c0 2.025-.279 4.101-.858 6.166-2.504 8.91-10.187 15.386-19.377 16.364l-37.935 4.041-14.488 53.491c-.908 3.372-1.197 6.875-.858 10.347l7.882 79.204c.429 4.35-.289 8.741-2.085 12.722l-15.575 34.493c-1.038 2.295-1.527 4.71-1.527 7.084 0 2.425.519 4.819 1.497 7.014l-17.242 5.987c-1.147.399-2.165 1.117-2.923 2.065l-43.249 53.979c-4.169 5.202-11.351 6.886-17.396 4.076l-106.789-49.626c-4.51-2.096-5.862-7.865-2.753-11.747l88.519-110.489 14.887-56.893c5.438-20.764 17.77-39.053 34.982-51.864l25.373-18.908 19.614-14.606c7.424-5.529 16.551-8.283 25.795-7.784l43.084 2.325c12.332.658 21.422 10.915 21.422 22.559z" fill="#ffe6c6"/><path d="m37.24 457.144 88.518-110.489 14.887-56.893c5.438-20.764 17.77-39.053 34.982-51.864l25.373-18.908 19.614-14.606c7.424-5.529 16.551-8.283 25.795-7.784l41.351 2.237c-1.752-9.962-10.143-18.114-21.086-18.698l-43.084-2.325c-9.243-.499-18.37 2.255-25.795 7.784l-19.614 14.606-25.373 18.908c-17.212 12.811-29.544 31.101-34.982 51.864l-14.887 56.893-88.518 110.49c-3.11 3.881-1.758 9.651 2.753 11.746l19.003 8.831c.267-.624.613-1.229 1.063-1.792z" fill="#f8d3aa"/><path d="m390.479 364.687 17.232-142.233.748-29.215.093-14.976-14.817-.667c-.548-.025-1.093-.037-1.634-.037-19.308 0-35.111 15.115-35.979 34.407l-.094 2.072c-.274 6.09.97 12.015 3.565 17.348-6.274 6.071-10.311 14.462-10.734 23.866l-.092 2.01c-.27 6.019.99 11.757 3.429 16.842-6.127 6.052-10.064 14.339-10.482 23.617l-.089 2.001c-.282 6.258 1.072 12.337 3.865 17.76-6.041 5.983-10.008 14.082-10.624 23.127-.665 9.763 2.559 19.161 9.079 26.461 6.517 7.3 15.491 11.562 25.269 12.001l15.787.711c.549.024 1.092.036 1.634.036.708 0 1.41-.027 2.109-.068z" fill="#ffd1c2"/><g fill="#ffe6c6"><path d="m407.505 237.441-16.429-.739c-11.621-.523-20.619-10.368-20.096-21.989l.093-2.067c.523-11.621 10.368-20.619 21.989-20.096l16.429.739c11.621.523 20.619 10.368 20.096 21.989l-.093 2.067c-.522 11.621-10.367 20.618-21.989 20.096z"/><path d="m400.904 280.063-17.688-.795c-11.274-.507-20.002-10.058-19.496-21.331l.09-2.006c.507-11.274 10.058-20.002 21.331-19.496l17.688.795c11.274.507 20.002 10.058 19.496 21.331l-.09 2.006c-.507 11.274-10.058 20.003-21.331 19.496z"/><path d="m394.448 323.643-19.683-.885c-11.274-.507-20.002-10.058-19.496-21.331l.177-3.919c.507-11.274 10.058-20.002 21.331-19.496l19.683.885c11.274.507 20.002 10.058 19.496 21.331l-.177 3.919c-.506 11.274-10.057 20.003-21.331 19.496z"/><path d="m386.52 363.476-15.788-.71c-11.823-.532-20.891-10.687-20.087-22.495.778-11.428 10.539-20.144 21.982-19.629l15.788.71c11.823.532 20.891 10.687 20.087 22.495-.779 11.428-10.539 20.144-21.982 19.629z"/></g><g fill="#f8d3aa"><path d="m411.588 226.375-16.429-.739c-11.621-.522-20.619-10.368-20.096-21.989l.093-2.067c.008-.188.042-.38.055-.566-2.427 3.259-3.941 7.267-4.137 11.631l-.093 2.067c-.523 11.621 8.475 21.466 20.096 21.989l16.429.739c11.435.514 21.144-8.18 21.952-19.529-4.035 5.417-10.614 8.79-17.87 8.464z"/><path d="m404.985 268.998-17.688-.795c-11.274-.507-20.002-10.058-19.496-21.331l.09-2.006c.005-.112.022-.234.028-.345-2.411 3.185-3.917 7.118-4.111 11.411l-.09 2.006c-.507 11.274 8.222 20.825 19.496 21.331l17.688.795c11.162.502 20.635-8.047 21.313-19.158-3.919 5.179-10.248 8.406-17.23 8.092z"/><path d="m398.53 312.577-19.683-.885c-11.274-.507-20.002-10.058-19.496-21.331l.177-3.919c.005-.112.023-.229.03-.341-2.411 3.185-3.919 7.114-4.112 11.407l-.177 3.919c-.507 11.274 8.222 20.825 19.496 21.331l19.683.885c11.162.502 20.635-8.047 21.314-19.159-3.922 5.18-10.251 8.407-17.232 8.093z"/><path d="m390.603 352.411-15.788-.71c-11.823-.532-20.891-10.687-20.087-22.494 0-.007-.005-.057-.001-.039-2.315 3.128-3.798 6.941-4.081 11.104-.804 11.807 8.265 21.963 20.087 22.494l15.788.709c11.436.515 21.19-8.19 21.979-19.607-4.04 5.459-10.624 8.87-17.897 8.543z"/></g></g><g><path d="m115.923 278.262c-3.998-1.046-8.087 1.347-9.134 5.345l-10.684 40.829-93.636 116.875c-2.584 3.225-2.063 7.935 1.161 10.52 1.381 1.106 3.033 1.642 4.675 1.642 2.193 0 4.367-.96 5.845-2.805l94.631-118.118c.657-.819 1.133-1.768 1.399-2.785l11.087-42.371c1.047-3.997-1.345-8.085-5.344-9.132z"/><path d="m130.557 257.807c6.08-12.902 15.319-24.208 26.715-32.697l44.993-33.509c6.009-4.475 13.443-6.727 20.92-6.315l43.091 2.325c4.617.248 8.808 2.548 11.498 6.307 2.691 3.762 3.515 8.47 2.262 12.921-1.688 5.993-6.781 10.29-12.972 10.951l-37.927 4.04c-3.07.327-5.624 2.505-6.431 5.485l-14.489 53.493c-1.154 4.264-1.518 8.655-1.081 13.044l2.235 22.465c.384 3.861 3.638 6.744 7.437 6.744.247 0 .498-.013.749-.038 4.113-.409 7.115-4.075 6.706-8.187l-2.235-22.466c-.256-2.574-.043-5.149.635-7.65l13.15-48.55 32.836-3.497c12.311-1.312 22.434-9.859 25.793-21.773 2.494-8.849.855-18.213-4.496-25.691-5.35-7.476-13.685-12.048-22.864-12.542l-43.091-2.325c-10.24-.546-20.409 2.28-28.88 7.994l.115-.284c10.596-26.166 28.876-47.861 52.863-62.742l32.404-20.101c.728-.452 1.375-1.026 1.909-1.697l64.785-81.366c2.574-3.233 2.04-7.941-1.192-10.516s-7.941-2.039-10.516 1.192l-63.976 80.351-31.302 19.419c-26.701 16.565-47.05 40.716-58.845 69.841l-9.324 23.026-23.697 17.649c-13.362 9.952-24.19 23.202-31.315 38.32-1.762 3.739-.16 8.198 3.579 9.959 3.738 1.763 8.197.159 9.958-3.58z"/><path d="m508.368 24.306c-3.227-2.585-7.935-2.063-10.52 1.161l-41.584 51.904c-2.584 3.225-2.063 7.935 1.161 10.52 1.381 1.106 3.033 1.642 4.675 1.642 2.193 0 4.367-.96 5.845-2.805l41.584-51.904c2.585-3.223 2.065-7.934-1.161-10.518z"/><path d="m446.817 101.133c-3.226-2.585-7.935-2.063-10.52 1.161l-31.743 39.622c-2.116 2.643-3.295 5.966-3.316 9.351l-.216 34.149-7.625-.343c-15.679-.711-29.094 11.511-29.801 27.233l-.094 2.07c-.308 6.845 1.803 13.424 5.965 18.772-1.436.897-2.803 1.925-4.079 3.091-5.505 5.031-8.721 11.904-9.055 19.352l-.091 2.009c-.307 6.827 1.882 13.197 5.751 18.233-7.35 4.738-12.38 12.842-12.803 22.223l-.09 2.004c-.314 6.975 1.934 13.675 6.351 19.019-7.35 4.748-12.486 12.765-13.118 22.041-.376 5.526.826 10.899 3.421 15.628-.187.519-.323 1.064-.392 1.634l-4.425 36.718c-.037.295-.149.578-.322.819l-20.282 28.121c-2.598 3.6-7.562 4.546-11.299 2.153-1.886-1.206-3.187-3.075-3.665-5.261-.375-1.721-.199-3.472.481-5.059l11.438-17.455c.854-1.304 2.214-4.315 2.246-4.402.733-1.898 1.23-3.886 1.451-5.907l7.105-65.21c.447-4.109-2.52-7.802-6.629-8.251-4.115-.444-7.803 2.519-8.251 6.629l-7.105 65.211c-.061.558-.19 1.105-.359 1.639l-29.446 45.539c-2.662 4.061-7.822 5.593-12.268 3.649-2.498-1.094-4.392-3.106-5.332-5.667s-.797-5.321.401-7.773l12.18-24.892c.366-.748 1.755-5.777 1.964-7.586l8.152-70.882c.472-4.105-2.473-7.817-6.58-8.29-4.103-.466-7.816 2.474-8.29 6.58l-8.152 70.882c-.153 1.335-.654 2.613-1.448 3.697l-28.564 38.995c-2.866 3.915-8.067 5.128-12.372 2.881-4.575-2.391-6.496-7.946-4.371-12.651l15.574-34.496c2.337-5.172 3.275-10.894 2.713-16.544l-2.486-24.993c-.408-4.113-4.074-7.112-8.187-6.706-4.113.409-7.115 4.075-6.706 8.187l2.486 24.993c.302 3.041-.203 6.119-1.461 8.904l-15.575 34.496c-1.804 3.997-2.453 8.236-2.086 12.335l-10.819 3.76c-2.487.865-4.672 2.408-6.313 4.459l-50.342 62.836c-2.584 3.225-2.063 7.935 1.161 10.52 1.381 1.105 3.033 1.643 4.675 1.643 2.193 0 4.367-.96 5.845-2.805l50.161-62.61 11.409-3.964c2.006 2.365 4.488 4.386 7.393 5.904 3.68 1.921 7.618 2.846 11.502 2.846 7.632 0 15.054-3.568 19.874-10.148l3.903-5.329c.099.303.198.607.308.908 2.358 6.427 7.111 11.479 13.383 14.223 3.251 1.422 6.65 2.103 10.004 2.102 8.164 0 16.047-4.038 20.781-11.26l5.881-8.974c1.685 2.309 3.788 4.32 6.269 5.908 3.885 2.485 8.243 3.68 12.557 3.68 7.265 0 14.406-3.385 18.949-9.684l3.382-4.691c1.529 2.457 3.52 4.682 5.977 6.519 4.311 3.225 9.331 4.789 14.306 4.789 6.98 0 13.873-3.081 18.598-8.976l12.339-15.403c3.927-4.9 6.382-10.789 7.099-17.029l3.197-27.811c9.768-4.033 16.992-13.357 17.75-24.481.496-7.283-1.739-14.306-6.31-19.931 7.544-4.703 12.735-12.911 13.163-22.442l.091-2.009c.301-6.707-1.802-12.974-5.546-17.969 7.557-4.701 12.76-12.917 13.19-22.462l.09-2.005c.303-6.749-1.797-13.234-5.934-18.488 7.521-4.843 12.672-13.133 13.103-22.731l.093-2.065c.343-7.617-2.301-14.912-7.445-20.541-3.721-4.071-8.429-6.911-13.631-8.303l.249-35.495 31.742-39.621c2.587-3.228 2.066-7.938-1.159-10.522zm-35.346 147.773c2.334 2.554 3.533 5.863 3.378 9.321l-.09 2.005c-.321 7.133-6.344 12.675-13.52 12.355l-19.456-1.012c-6.256-1.152-10.882-6.773-10.588-13.301l.091-2.009c.156-3.455 1.647-6.644 4.201-8.977 2.407-2.199 5.484-3.391 8.723-3.391.198 0 18.285.809 18.285.809 3.454.155 6.642 1.647 8.976 4.2zm-4.446 53.761c-.32 7.132-6.37 12.672-13.52 12.356l-17.096-.769c-3.456-.156-6.644-1.647-8.978-4.201-2.333-2.553-3.532-5.863-3.378-9.321l.09-2.004c.321-7.132 6.376-12.671 13.52-12.356l18.862.985c6.257 1.152 10.884 6.773 10.59 13.302zm-31.628 103.01-12.34 15.403c-3.014 3.762-8.399 4.448-12.258 1.56-3.817-2.855-4.706-8.179-2.021-12.119l4.095-6.011c.015-.021.026-.044.04-.065 1.54-2.213 2.536-4.785 2.883-7.507l3.351-27.8c3.237 1.45 6.75 2.298 10.408 2.462l12.529.564-2.775 24.134c-.396 3.436-1.748 6.68-3.912 9.379zm24.795-60.981c-.498 7.312-6.827 12.975-14.18 12.662l-15.787-.71c-3.688-.167-7.073-1.774-9.533-4.528s-3.676-6.299-3.425-9.983c.498-7.311 6.847-12.974 14.179-12.662l15.788.71c3.688.167 7.073 1.774 9.533 4.528 2.459 2.754 3.676 6.299 3.425 9.983zm21.919-129.753-.093 2.065c-.336 7.48-6.673 13.289-14.177 12.956l-16.429-.739c-3.624-.163-6.966-1.727-9.415-4.405s-3.706-6.147-3.543-9.769l.094-2.07c.337-7.48 6.678-13.26 14.177-12.956l16.429.739c3.624.163 6.966 1.727 9.415 4.405 2.448 2.677 3.705 6.148 3.542 9.774z"/></g></g></svg>