<svg id="Capa_1" enable-background="new 0 0 511.967 511.967" height="512" viewBox="0 0 511.967 511.967" width="512" xmlns="http://www.w3.org/2000/svg"><g><g><g><path d="m476.59 243.553c-24.843-38.134-106.56-151.636-205.472-162.478h-30.269c-98.912 10.842-180.629 124.344-205.472 162.478l-8.242 12.43 11.816 17.838c28.437 42.441 107.305 146.702 201.897 157.07h30.269c94.592-10.368 173.46-114.628 201.897-157.07l8.851-15.134z" fill="#f9f7f7"/></g><path d="m113.344 287.971c-17.592-21.028-17.662-51.595-.28-72.797 35.92-43.812 100.805-113.664 163.291-133.419-1.741-.255-3.485-.488-5.237-.68h-30.269c-98.912 10.842-180.629 124.344-205.472 162.478l-8.242 12.43 11.816 17.838c28.437 42.441 107.305 146.702 201.897 157.07h30.269c8.048-.882 15.988-2.446 23.787-4.591-65.289-9.774-141.263-90.162-181.56-138.329z" fill="#f8f3f2"/><g><circle cx="255.983" cy="255.983" fill="#cac5cb" r="106.381"/><path d="m189.792 254.983c0-50.958 35.841-93.552 83.681-103.957-5.688-.94-11.535-1.425-17.489-1.425-58.753 0-106.381 47.628-106.381 106.381s47.629 106.381 106.381 106.381c7.795 0 15.383-.836 22.701-2.427-50.435-8.337-88.893-52.154-88.893-104.953z" fill="#b3adb5"/><circle cx="255.127" cy="254.983" fill="#a59ca6" r="56.373"/><circle cx="298.586" cy="219.842" fill="#f9f7f7" r="21.232"/><g fill="#b3e5ee"><path d="m255.983 112.638c-8.358 0-15.134-6.776-15.134-15.134v-43.852c0-8.358 6.776-15.134 15.134-15.134 8.358 0 15.134 6.776 15.134 15.134v43.851c.001 8.359-6.775 15.135-15.134 15.135z"/><path d="m255.983 397.974c-8.358 0-15.134 6.776-15.134 15.134v43.851c0 8.358 6.776 15.134 15.134 15.134 8.358 0 15.134-6.776 15.134-15.134v-43.851c.001-8.359-6.775-15.134-15.134-15.134z"/><path d="m430.347 258.688c0 8.358 6.776 15.134 15.134 15.134h43.851c8.358 0 15.134-6.776 15.134-15.134 0-8.358-6.776-15.134-15.134-15.134h-43.851c-8.358-.001-15.134 6.775-15.134 15.134z"/><path d="m81.619 258.688c0 8.358-6.776 15.134-15.134 15.134h-43.851c-8.358 0-15.134-6.776-15.134-15.134 0-8.358 6.776-15.134 15.134-15.134h43.851c8.359-.001 15.134 6.775 15.134 15.134z"/></g><g><g><path d="m465.014 144.958c-8.284 0-15-6.716-15-15v-62.977h-68.005c-8.284 0-15-6.716-15-15s6.716-15 15-15h72.632c13.991 0 25.374 11.382 25.374 25.373v67.604c-.001 8.284-6.717 15-15.001 15z" fill="#e79098"/></g><g><path d="m46.953 144.958c-8.284 0-15-6.716-15-15v-67.604c0-13.991 11.382-25.373 25.374-25.373h72.632c8.284 0 15 6.716 15 15s-6.716 15-15 15h-68.006v62.977c0 8.284-6.716 15-15 15z" fill="#e79098"/></g><g><path d="m454.64 474.985h-72.632c-8.284 0-15-6.716-15-15s6.716-15 15-15h68.005v-62.977c0-8.284 6.716-15 15-15s15 6.716 15 15v67.604c.001 13.992-11.382 25.373-25.373 25.373z" fill="#e79098"/></g><g><path d="m129.958 474.985h-72.631c-13.991 0-25.374-11.382-25.374-25.373v-67.604c0-8.284 6.716-15 15-15s15 6.716 15 15v62.977h68.005c8.284 0 15 6.716 15 15s-6.715 15-15 15z" fill="#e79098"/></g></g></g></g><g><path d="m180.091 330.896c-2.737 3.109-2.436 7.848.673 10.585 20.789 18.303 47.502 28.383 75.219 28.383 62.794 0 113.881-51.087 113.881-113.881s-51.087-113.881-113.881-113.881-113.881 51.087-113.881 113.881c0 20.974 5.753 41.477 16.639 59.293 2.159 3.535 6.776 4.649 10.31 2.49 3.535-2.16 4.649-6.776 2.49-10.311-9.446-15.461-14.438-33.26-14.438-51.473 0-54.523 44.358-98.881 98.881-98.881s98.881 44.357 98.881 98.881-44.358 98.881-98.881 98.881c-24.065 0-47.258-8.751-65.307-24.641-3.109-2.736-7.848-2.434-10.586.674z"/><path d="m251.856 207.803c4.127-.349 7.191-3.977 6.843-8.104-.349-4.128-3.979-7.171-8.104-6.843-15.772 1.331-30.393 8.486-41.168 20.147-10.842 11.731-16.813 26.996-16.813 42.98 0 34.943 28.428 63.371 63.371 63.371 29.044 0 54.305-19.644 61.429-47.77 1.017-4.016-1.414-8.095-5.429-9.112s-8.095 1.414-9.112 5.429c-5.436 21.463-24.717 36.453-46.888 36.453-26.672 0-48.371-21.699-48.371-48.371-.001-24.923 19.433-46.087 44.242-48.18z"/><path d="m327.318 219.842c0-15.843-12.889-28.731-28.732-28.731s-28.731 12.889-28.731 28.731 12.889 28.731 28.731 28.731 28.732-12.888 28.732-28.731zm-42.464 0c0-7.571 6.16-13.731 13.731-13.731s13.732 6.16 13.732 13.731-6.16 13.731-13.732 13.731-13.731-6.16-13.731-13.731z"/><path d="m489.333 236.054h-8.699c-13.984-21.093-40.785-58.167-76.274-91.727-3.01-2.847-7.757-2.713-10.602.296-2.846 3.01-2.713 7.757.296 10.603 30.171 28.53 53.905 59.738 68.467 80.828h-17.039c-12.481 0-22.635 10.153-22.635 22.634s10.154 22.635 22.635 22.635h13.245c-14.553 20.516-37.939 50.558-66.962 77.571-38.477 35.813-76.496 57.091-113.147 63.365v-9.151c0-12.48-10.154-22.634-22.634-22.634s-22.634 10.153-22.634 22.634v9.151c-36.651-6.274-74.67-27.551-113.147-63.365-29.023-27.014-52.409-57.056-66.962-77.571h13.245c12.481 0 22.635-10.154 22.635-22.635s-10.154-22.634-22.635-22.634h-17.03c29.067-41.994 100.166-131.96 183.893-146.343v7.792c0 12.48 10.154 22.635 22.634 22.635s22.634-10.154 22.634-22.635v-7.795c29.603 5.084 60.282 20.055 91.328 44.597 1.377 1.089 3.017 1.616 4.646 1.616 2.215 0 4.408-.977 5.889-2.849 2.568-3.25 2.017-7.966-1.233-10.535-33.908-26.805-67.726-42.94-100.63-48.032v-20.853c0-12.48-10.154-22.634-22.634-22.634s-22.634 10.153-22.634 22.634v20.863c-41.991 6.479-85.086 30.717-128.209 72.156-34.309 32.97-60.24 68.92-73.807 89.382h-8.699c-12.48.001-22.634 10.154-22.634 22.635s10.154 22.635 22.634 22.635h12.336c30.794 45.237 106.437 141.903 198.379 156.124v19.513c0 12.48 10.154 22.634 22.634 22.634s22.634-10.153 22.634-22.634v-19.513c91.943-14.221 167.586-110.887 198.379-156.124h12.335c12.48 0 22.634-10.154 22.634-22.635s-10.152-22.634-22.632-22.634zm-233.35-190.035c4.209 0 7.634 3.425 7.634 7.634v43.851c0 4.21-3.425 7.635-7.634 7.635s-7.634-3.425-7.634-7.635v-43.852c0-4.209 3.425-7.633 7.634-7.633zm-240.983 212.669c0-4.209 3.425-7.634 7.634-7.634h43.851c4.21 0 7.635 3.425 7.635 7.634 0 4.21-3.425 7.635-7.635 7.635h-43.851c-4.209-.001-7.634-3.426-7.634-7.635zm240.983 205.905c-4.209 0-7.634-3.425-7.634-7.634v-43.852c0-4.209 3.425-7.634 7.634-7.634s7.634 3.425 7.634 7.634v43.852c.001 4.209-3.424 7.634-7.634 7.634zm233.35-198.271h-43.851c-4.21 0-7.635-3.425-7.635-7.635 0-4.209 3.425-7.634 7.635-7.634h43.851c4.209 0 7.634 3.425 7.634 7.634 0 4.21-3.425 7.635-7.634 7.635z"/><path d="m382.008 74.481h60.505v55.477c0 12.406 10.093 22.5 22.5 22.5s22.5-10.094 22.5-22.5v-67.604c0-18.126-14.747-32.873-32.874-32.873h-72.632c-12.407 0-22.5 10.094-22.5 22.5s10.095 22.5 22.501 22.5zm0-30h72.632c9.855 0 17.874 8.018 17.874 17.873v67.604c0 4.136-3.364 7.5-7.5 7.5s-7.5-3.364-7.5-7.5v-62.977c0-4.143-3.358-7.5-7.5-7.5h-68.005c-4.136 0-7.5-3.364-7.5-7.5s3.364-7.5 7.499-7.5z"/><path d="m46.953 152.458c12.407 0 22.5-10.094 22.5-22.5v-55.477h60.505c12.407 0 22.5-10.094 22.5-22.5s-10.093-22.5-22.5-22.5h-72.631c-18.126 0-32.874 14.747-32.874 32.873v67.604c0 12.406 10.093 22.5 22.5 22.5zm-7.5-90.104c0-9.855 8.018-17.873 17.874-17.873h72.632c4.136 0 7.5 3.364 7.5 7.5s-3.364 7.5-7.5 7.5h-68.006c-4.142 0-7.5 3.357-7.5 7.5v62.977c0 4.136-3.364 7.5-7.5 7.5s-7.5-3.364-7.5-7.5z"/><path d="m465.014 359.509c-12.407 0-22.5 10.094-22.5 22.5v55.477h-17.874c-4.142 0-7.5 3.357-7.5 7.5s3.358 7.5 7.5 7.5h25.374c4.142 0 7.5-3.357 7.5-7.5v-62.977c0-4.136 3.364-7.5 7.5-7.5s7.5 3.364 7.5 7.5v67.604c0 9.855-8.018 17.873-17.874 17.873h-72.632c-4.136 0-7.5-3.364-7.5-7.5s3.364-7.5 7.5-7.5h10.669c4.142 0 7.5-3.357 7.5-7.5s-3.358-7.5-7.5-7.5h-10.669c-12.407 0-22.5 10.094-22.5 22.5s10.093 22.5 22.5 22.5h72.632c18.126 0 32.874-14.747 32.874-32.873v-67.604c0-12.406-10.094-22.5-22.5-22.5z"/><path d="m129.958 437.485h-60.505v-55.477c0-12.406-10.093-22.5-22.5-22.5s-22.5 10.094-22.5 22.5v67.604c0 18.126 14.747 32.873 32.874 32.873h72.632c12.407 0 22.5-10.094 22.5-22.5s-10.094-22.5-22.501-22.5zm0 30h-72.631c-9.855 0-17.874-8.018-17.874-17.873v-67.604c0-4.136 3.364-7.5 7.5-7.5s7.5 3.364 7.5 7.5v62.977c0 4.143 3.358 7.5 7.5 7.5h68.005c4.136 0 7.5 3.364 7.5 7.5s-3.364 7.5-7.5 7.5z"/></g></g></svg>