<svg id="Capa_1" enable-background="new 0 0 511.499 511.499" height="512" viewBox="0 0 511.499 511.499" width="512" xmlns="http://www.w3.org/2000/svg"><g><g><path d="m373.715 303.309h-214.618v-80.23c0-8.681 7.037-15.718 15.718-15.718h183.182c8.681 0 15.718 7.037 15.718 15.718z" fill="#b3e5ee"/><path d="m187.367 249.053c0-8.681 7.037-15.718 15.718-15.718h170.63v-10.256c0-8.681-7.037-15.718-15.718-15.718h-183.182c-8.681 0-15.718 7.037-15.718 15.718v80.23h28.27z" fill="#86d7e5"/><path d="m423.671 370.128h-314.53v-70.174c0-10.297 8.348-18.645 18.645-18.645h277.24c10.297 0 18.645 8.348 18.645 18.645z" fill="#b3e5ee"/><path d="m144.821 323.363c0-10.297 8.348-18.645 18.645-18.645h260.205v-4.765c0-10.297-8.348-18.645-18.645-18.645h-277.24c-10.297 0-18.645 8.348-18.645 18.645v70.174h35.68z" fill="#86d7e5"/><path d="m272.782 9.528 22.747 46.09c.946 1.918 2.776 3.247 4.892 3.554l50.864 7.391c5.329.774 7.457 7.324 3.601 11.082l-36.805 35.876c-1.531 1.493-2.23 3.643-1.869 5.751l8.689 50.658c.91 5.308-4.661 9.355-9.427 6.849l-45.494-23.918c-1.893-.995-4.154-.995-6.047 0l-45.494 23.918c-4.767 2.506-10.338-1.542-9.427-6.849l8.689-50.658c.361-2.108-.337-4.258-1.869-5.751l-36.805-35.876c-3.856-3.759-1.728-10.308 3.601-11.082l50.864-7.391c2.116-.308 3.946-1.637 4.892-3.554l22.747-46.09c2.382-4.829 9.268-4.829 11.651 0z" fill="#fbe88c"/><path d="m324.901 169.932-1.326-7.734-51.542-27.098c-2.225-1.17-4.884-1.17-7.109 0l-27.701 14.563c-2.713 1.426-5.884-.877-5.366-3.898l6.492-37.853c.361-2.108-.337-4.258-1.869-5.751l-17.965-17.511c-3.368-3.283-1.509-9.002 3.145-9.678l29.324-4.261c2.116-.308 3.946-1.637 4.892-3.554l22.673-45.941-5.768-11.688c-2.383-4.829-9.27-4.829-11.653 0l-22.747 46.09c-.947 1.918-2.776 3.247-4.892 3.554l-50.864 7.391c-5.329.774-7.457 7.323-3.601 11.083l36.805 35.876c1.531 1.492 2.23 3.643 1.869 5.751l-8.688 50.658c-.91 5.308 4.661 9.356 9.428 6.85l45.494-23.917c1.893-.995 4.154-.995 6.047 0l45.494 23.918c4.767 2.505 10.338-1.543 9.428-6.85z" fill="#fbe372"/><g><path d="m455.4 455.232h-376.988v-89.947c0-8.923 7.234-16.157 16.157-16.157h344.673c8.923 0 16.157 7.234 16.157 16.157v89.947z" fill="#b3e5ee"/><path d="m115.289 389.241c0-8.923 7.234-16.157 16.157-16.157h323.954v-7.798c0-8.923-7.234-16.157-16.157-16.157h-344.673c-8.923 0-16.157 7.234-16.157 16.157v89.947h36.876z" fill="#86d7e5"/><path d="m474.335 504h-414.858c-6.267 0-11.347-5.08-11.347-11.347v-56.283c0-10.569 8.568-19.136 19.136-19.136h399.279c10.569 0 19.136 8.568 19.136 19.136v56.283c.001 6.266-5.079 11.347-11.346 11.347z" fill="#b3e5ee"/><path d="m92.161 460.188c0-10.568 8.568-19.136 19.136-19.136h374.384v-4.683c0-10.569-8.568-19.136-19.136-19.136h-399.279c-10.569 0-19.136 8.567-19.136 19.136v56.284c0 6.267 5.08 11.347 11.347 11.347h32.684z" fill="#86d7e5"/><g fill="#e79098"><path d="m470.622 261.132v-33.238c0-1.025.831-1.855 1.855-1.855h16.522c1.593 0 2.445-1.875 1.398-3.075l-33.599-38.494c-.739-.847-2.056-.847-2.795 0l-33.599 38.494c-1.047 1.2-.195 3.075 1.398 3.075h16.522c1.025 0 1.855.831 1.855 1.855v33.238c0 1.842 1.494 3.336 3.336 3.336h23.772c1.841 0 3.335-1.494 3.335-3.336z"/><path d="m71.321 301.897v-33.686c0-1.025.831-1.855 1.855-1.855h16.522c1.593 0 2.445-1.875 1.398-3.075l-33.599-38.494c-.739-.847-2.056-.847-2.795 0l-33.599 38.494c-1.047 1.2-.195 3.075 1.398 3.075h16.522c1.025 0 1.855.831 1.855 1.855v33.686c0 1.595 1.293 2.888 2.888 2.888h24.668c1.594 0 2.887-1.293 2.887-2.888z"/></g></g></g><g><path d="m466.546 409.732h-3.646v-44.447c0-13.045-10.612-23.657-23.656-23.657h-8.072v-41.674c0-14.416-11.729-26.145-26.145-26.145h-23.812v-50.73c0-12.803-10.415-23.218-23.218-23.218h-183.182c-12.802 0-23.218 10.415-23.218 23.218v50.73h-23.812c-14.416 0-26.145 11.729-26.145 26.145v41.674h-7.07c-13.044 0-23.657 10.612-23.657 23.657v44.447h-3.646c-14.688 0-26.636 11.948-26.636 26.636v67.631c0 4.143 3.358 7.5 7.5 7.5h437.552c4.143 0 7.5-3.357 7.5-7.5v-67.631c-.001-14.687-11.95-26.636-26.637-26.636zm-349.905-109.778c0-6.146 5-11.145 11.145-11.145h175.551c4.143 0 7.5-3.357 7.5-7.5s-3.357-7.5-7.5-7.5h-136.74v-50.73c0-4.531 3.687-8.218 8.218-8.218h183.182c4.531 0 8.218 3.687 8.218 8.218v50.73h-30.915c-4.143 0-7.5 3.357-7.5 7.5s3.357 7.5 7.5 7.5h69.727c6.146 0 11.145 4.999 11.145 11.145v41.674h-299.531zm361.541 196.545h-422.552v-60.131c0-6.416 5.22-11.636 11.636-11.636h88.56c4.142 0 7.5-3.357 7.5-7.5s-3.358-7.5-7.5-7.5h-69.914v-44.447c0-4.773 3.884-8.657 8.657-8.657h344.673c4.773 0 8.656 3.884 8.656 8.657v44.447h-260.11c-4.142 0-7.5 3.357-7.5 7.5s3.358 7.5 7.5 7.5h278.757c6.416 0 11.637 5.22 11.637 11.636z"/><path d="m210.169 120.119-8.599 50.138c-.907 5.29 1.226 10.535 5.568 13.69 4.342 3.153 9.99 3.563 14.741 1.065l45.027-23.672 45.027 23.672c2.066 1.086 4.303 1.623 6.527 1.623 2.89 0 5.761-.906 8.215-2.689 4.342-3.154 6.475-8.4 5.566-13.689l-8.599-50.138 36.428-35.509c3.844-3.746 5.201-9.244 3.543-14.349s-5.988-8.755-11.3-9.526l-11.467-1.666c-4.093-.604-7.905 2.244-8.5 6.344-.596 4.099 2.244 7.904 6.344 8.5l9.455 1.374-35.349 34.458c-3.3 3.216-4.806 7.847-4.026 12.39l8.345 48.655-43.695-22.972c-4.078-2.145-8.95-2.146-13.027 0l-43.696 22.972 8.345-48.656c.779-4.543-.727-9.175-4.026-12.388l-35.35-34.459 48.853-7.099c4.56-.663 8.5-3.525 10.539-7.657l21.848-44.268 21.848 44.267c2.038 4.132 5.978 6.995 10.538 7.658l7.646 1.111c4.101.603 7.905-2.245 8.501-6.343.596-4.1-2.244-7.905-6.343-8.501l-7.125-1.035-22.512-45.616c-2.375-4.814-7.186-7.804-12.553-7.804-5.368 0-10.177 2.99-12.552 7.803l-22.514 45.617-50.342 7.315c-5.311.771-9.641 4.422-11.299 9.526s-.301 10.603 3.542 14.348z"/><path d="m266.906 125.755c4.143 0 7.5-3.357 7.5-7.5v-41.567c0-4.143-3.357-7.5-7.5-7.5h-8.885c-4.142 0-7.5 3.357-7.5 7.5s3.358 7.5 7.5 7.5h1.385v34.067c0 4.142 3.358 7.5 7.5 7.5z"/><path d="m395.759 56.254c1.919 0 3.839-.732 5.304-2.196l12.45-12.45c2.929-2.93 2.929-7.678 0-10.607-2.93-2.928-7.678-2.928-10.607 0l-12.45 12.45c-2.929 2.93-2.929 7.678 0 10.607 1.465 1.463 3.385 2.196 5.303 2.196z"/><path d="m402.906 169.222c1.465 1.464 3.385 2.196 5.304 2.196s3.839-.732 5.304-2.196c2.929-2.93 2.929-7.678 0-10.607l-12.45-12.45c-2.93-2.928-7.678-2.928-10.607 0-2.929 2.93-2.929 7.678 0 10.607z"/><path d="m388.259 100.111c0 4.143 3.357 7.5 7.5 7.5h22.307c4.143 0 7.5-3.357 7.5-7.5s-3.357-7.5-7.5-7.5h-22.307c-4.142 0-7.5 3.358-7.5 7.5z"/><path d="m132.75 54.058c1.464 1.464 3.384 2.196 5.303 2.196s3.839-.732 5.303-2.196c2.929-2.93 2.929-7.678 0-10.607l-12.45-12.451c-2.929-2.928-7.678-2.928-10.606 0-2.929 2.93-2.929 7.678 0 10.607z"/><path d="m132.75 146.164-12.45 12.45c-2.929 2.93-2.929 7.678 0 10.607 1.464 1.464 3.384 2.196 5.303 2.196s3.839-.732 5.303-2.196l12.45-12.45c2.929-2.93 2.929-7.678 0-10.607-2.929-2.928-7.678-2.928-10.606 0z"/><path d="m115.746 107.611h22.307c4.142 0 7.5-3.357 7.5-7.5s-3.358-7.5-7.5-7.5h-22.307c-4.142 0-7.5 3.357-7.5 7.5s3.358 7.5 7.5 7.5z"/><path d="m496.047 218.032-33.6-38.495c-1.776-2.035-4.346-3.202-7.048-3.202-2.701 0-5.271 1.167-7.048 3.203l-33.598 38.493c-2.407 2.757-2.984 6.691-1.47 10.023 1.514 3.331 4.856 5.484 8.517 5.484h10.877v30.929c0 4.143 3.357 7.5 7.5 7.5s7.5-3.357 7.5-7.5v-36.574c0-5.158-4.196-9.354-9.354-9.354h-4.103l21.18-24.266 21.179 24.266h-4.103c-5.158 0-9.354 4.196-9.354 9.354v36.574c0 4.143 3.357 7.5 7.5 7.5s7.5-3.357 7.5-7.5v-30.929h10.877c3.66 0 7.003-2.153 8.517-5.484s.937-7.266-1.469-10.022z"/><path d="m48.378 304.785v-36.574c0-5.158-4.197-9.355-9.355-9.355h-4.103l21.179-24.265 21.179 24.265h-4.102c-5.158 0-9.355 4.197-9.355 9.355v36.574c0 4.143 3.358 7.5 7.5 7.5s7.5-3.357 7.5-7.5v-30.93h10.877c3.659 0 7.002-2.152 8.517-5.483 1.514-3.332.938-7.266-1.469-10.023l-33.6-38.495c-1.777-2.035-4.345-3.202-7.047-3.202s-5.27 1.167-7.048 3.203l-33.6 38.494c-2.406 2.758-2.982 6.691-1.468 10.023 1.515 3.331 4.857 5.483 8.517 5.483h10.877v30.93c0 4.143 3.358 7.5 7.5 7.5s7.501-3.357 7.501-7.5z"/></g></g></svg>