<svg id="Capa_1" enable-background="new 0 0 511.784 511.784" height="512" viewBox="0 0 511.784 511.784" width="512" xmlns="http://www.w3.org/2000/svg"><g><g><path d="m233.442 327.118 2.247.345c48.691 7.477 86.547-41.604 66.947-86.799l-18.784-43.312c-1.854-4.275-3.13-8.779-3.794-13.391-7.485-52.023-52.059-90.642-104.618-90.642-52.559 0-97.133 38.619-104.618 90.642-.664 4.613-1.939 9.116-3.794 13.391l-18.784 43.312c-19.6 45.195 18.256 94.276 66.947 86.799l2.247-.345 31.632-5.011h58.718z" fill="#a59ca6"/><path d="m202.214 376.78 49.673 19.929c27.546 11.051 45.599 37.747 45.599 67.427v26.6c0 7.482-6.065 13.547-13.547 13.547h-219.305c-7.482 0-13.547-6.065-13.547-13.547v-26.6c0-29.68 18.054-56.375 45.599-67.427l49.673-19.929 18.841-7.919h19.08z" fill="#b8de9c"/><path d="m202.214 376.78-17.934-7.919h-19.08l-18.841 7.919-14.59 5.854-35.083 14.075c-27.546 11.052-45.599 37.747-45.599 67.427v26.6c0 7.482 6.066 13.548 13.548 13.548h18.164v-25.511c0-29.68 18.053-56.375 45.599-67.427l7.401-2.969c3.9-1.565 8.309-.831 11.577 1.81 7.364 5.951 16.725 9.522 26.91 9.522 21.684 0 39.653-16.164 42.518-37.074z" fill="#a6d786"/><path d="m202.214 376.78c0 15.424-12.504 27.928-27.928 27.928s-27.928-12.504-27.928-27.928v-61.852h55.855v61.852z" fill="#ffd1c2"/><path d="m252.974 268.273c9.874 0 17.878-8.004 17.878-17.878 0-9.874-8.004-17.878-17.878-17.878h-35.41v35.756z" fill="#ffd1c2"/><g><path d="m97.907 268.273c-9.874 0-17.878-8.004-17.878-17.878 0-9.874 8.004-17.878 17.878-17.878h48.452v35.756z" fill="#ffd1c2"/><path d="m244.504 206.692v79.63c0 38.143-30.921 69.063-69.063 69.063-38.143 0-69.063-30.921-69.063-69.063v-59.931c0-18.438 6.278-36.327 17.8-50.722 2.004-2.504 5.665-2.895 8.154-.871l3.224 2.623c14.508 11.803 32.514 18.471 51.21 18.964l48.958 1.291c4.885.128 8.78 4.127 8.78 9.016z" fill="#ffe0d1"/><path d="m114.496 193.07 3.917 3.187c17.631 14.344 39.514 22.447 62.235 23.046l59.497 1.569c1.558.041 3.029.413 4.358 1.036v-15.217c0-4.889-3.895-8.888-8.782-9.017l-48.958-1.291c-18.696-.493-36.702-7.161-51.21-18.964l-3.224-2.623c-2.488-2.024-6.149-1.633-8.154.871-4.176 5.217-7.653 10.898-10.402 16.893.249.156.491.321.723.51z" fill="#ffd1c2"/><path d="m432.755 157.693h-166.024l-13.592 6.337c-5.402 2.518-11.59-1.425-11.59-7.385v-113.061c0-19.929 16.155-36.084 36.084-36.084h155.123c19.928 0 36.084 16.155 36.084 36.084v78.026c-.001 19.928-16.157 36.083-36.085 36.083z" fill="#b3e5ee"/></g><path d="m298.519 138.274c-13.136 0-23.785-10.649-23.785-23.785l.009-106.873c-18.572 1.478-33.195 17.016-33.195 35.967v113.062c0 5.96 6.189 9.903 11.59 7.385l13.593-6.336h166.024c13.915 0 25.995-7.889 32.015-19.426z" fill="#86d7e5"/></g><g><path d="m234.587 334.881c3.689.564 7.36.843 10.99.843 21.544 0 41.599-9.78 55.132-27.327 15.822-20.514 19.115-46.95 8.808-70.718l-18.783-43.312c-1.147-2.645-2.045-5.429-2.667-8.275-.885-4.048-4.884-6.607-8.929-5.726-4.047.885-6.61 4.883-5.726 8.929.83 3.794 2.027 7.509 3.56 11.041l18.783 43.312c8.103 18.683 5.514 39.463-6.923 55.588-10.987 14.244-27.438 21.964-45.002 21.444 5.216-10.34 8.174-22.007 8.174-34.358v-10.549h.97c13.993 0 25.378-11.384 25.378-25.377s-11.385-25.378-25.378-25.378h-.97v-18.326c0-9.022-7.065-16.276-16.085-16.514l-48.957-1.291c-16.946-.446-33.522-6.585-46.676-17.285l-3.222-2.62c-2.767-2.251-6.25-3.274-9.787-2.904-3.547.379-6.728 2.12-8.956 4.905-12.253 15.306-19.107 34.446-19.415 54.035h-.999c-13.993 0-25.378 11.385-25.378 25.378s11.385 25.377 25.378 25.377h.97v10.549c0 12.354 2.959 24.022 8.177 34.365-17.563.523-34.018-7.206-45.006-21.451-12.437-16.125-15.025-36.905-6.923-55.588l18.783-43.312c2.12-4.889 3.579-10.039 4.337-15.308 2.125-14.771 7.412-28.509 15.713-40.831 2.314-3.436 1.406-8.097-2.029-10.41-3.436-2.315-8.096-1.405-10.41 2.029-9.574 14.211-15.671 30.05-18.121 47.076-.567 3.949-1.661 7.811-3.251 11.475l-18.783 43.312c-10.308 23.769-7.015 50.204 8.808 70.718 13.534 17.548 33.587 27.329 55.131 27.327 3.628 0 7.302-.278 10.99-.843 6.235 7.581 13.894 13.945 22.566 18.682v18.145l-44.966 18.04c-4.015 1.611-7.957 3.584-11.717 5.864-3.542 2.147-4.672 6.76-2.524 10.302 1.411 2.327 3.885 3.612 6.42 3.612 1.325 0 2.667-.351 3.882-1.088 3.062-1.857 6.268-3.462 9.525-4.769l40.957-16.432c4.472 14.446 17.955 24.97 33.851 24.97s29.379-10.524 33.851-24.97l40.957 16.432c24.841 9.967 40.892 33.701 40.892 60.466v40.147c0 4.143 3.357 7.5 7.5 7.5s7.5-3.357 7.5-7.5v-40.147c0-32.928-19.746-62.126-50.306-74.388l-44.966-18.04v-16.955c9.619-4.836 18.093-11.628 24.872-19.871zm18.386-94.863c5.723 0 10.378 4.655 10.378 10.378 0 5.722-4.655 10.377-10.378 10.377h-.97v-20.755zm-155.066 20.754c-5.723 0-10.378-4.655-10.378-10.377 0-5.723 4.655-10.378 10.378-10.378h.97v20.755zm15.97 25.549v-59.931c0-16.092 5.345-31.883 15.085-44.665l1.858 1.513c15.708 12.778 35.506 20.11 55.747 20.643l48.957 1.291c.829.022 1.479.689 1.479 1.52v79.63c0 33.946-27.617 61.563-61.563 61.563s-61.563-27.617-61.563-61.564zm80.838 90.459c0 11.264-9.164 20.428-20.428 20.428s-20.428-9.164-20.428-20.428v-17.013c6.85 2.016 14.087 3.117 21.581 3.117 6.656 0 13.114-.857 19.274-2.461v16.357z"/><path d="m109.543 123.888c1.64 0 3.292-.535 4.673-1.638 17.32-13.821 39.063-21.433 61.225-21.433 11.471 0 22.757 1.989 33.544 5.913 3.894 1.422 8.197-.592 9.611-4.484 1.416-3.893-.592-8.195-4.484-9.611-12.435-4.523-25.445-6.817-38.671-6.817-25.547 0-50.613 8.774-70.58 24.708-3.238 2.584-3.769 7.303-1.185 10.54 1.481 1.856 3.664 2.822 5.867 2.822z"/><path d="m67.154 417.973c-3.46-2.272-8.111-1.313-10.387 2.148-8.623 13.119-13.181 28.339-13.181 44.015v40.148c0 4.143 3.357 7.5 7.5 7.5s7.5-3.357 7.5-7.5v-40.148c0-12.739 3.705-25.11 10.716-35.776 2.276-3.462 1.314-8.112-2.148-10.387z"/><path d="m432.755 0h-155.123c-24.032 0-43.584 19.551-43.584 43.583v113.062c0 5.374 2.706 10.308 7.239 13.196 2.564 1.634 5.474 2.461 8.399 2.461 2.247 0 4.505-.488 6.621-1.475l12.086-5.635h105.603c4.143 0 7.5-3.357 7.5-7.5s-3.357-7.5-7.5-7.5h-107.265c-1.095 0-2.177.24-3.169.702l-13.593 6.337c-.095.045-.319.152-.622-.041-.3-.191-.3-.439-.3-.546v-113.061c.001-15.761 12.823-28.583 28.585-28.583h155.123c15.762 0 28.584 12.822 28.584 28.583v78.026c0 15.762-12.822 28.584-28.584 28.584h-26.764c-4.143 0-7.5 3.357-7.5 7.5s3.357 7.5 7.5 7.5h26.764c24.032 0 43.584-19.552 43.584-43.584v-78.026c0-24.032-19.552-43.583-43.584-43.583z"/><path d="m363.932 91.727c6.089-1.454 11.716-4.651 16.079-9.247 6.202-6.532 9.36-15.093 8.894-24.104-.879-16.925-14.85-30.449-31.806-30.79-16.419-.34-30.598 11.696-32.871 27.984-.208 1.488-.313 3.012-.313 4.525 0 4.143 3.357 7.5 7.5 7.5s7.5-3.357 7.5-7.5c0-.823.057-1.648.169-2.453 1.207-8.646 8.633-15.063 17.354-15.063.12 0 .24.001.36.003 9.131.185 16.654 7.463 17.127 16.571.253 4.863-1.449 9.479-4.79 12.999-3.344 3.521-7.854 5.461-12.702 5.461-4.143 0-7.5 3.357-7.5 7.5v16.328c0 4.143 3.357 7.5 7.5 7.5s7.5-3.357 7.5-7.5v-9.714z"/><path d="m356.432 120.793c-4.143 0-7.5 3.357-7.5 7.5v5.151c0 4.143 3.357 7.5 7.5 7.5s7.5-3.357 7.5-7.5v-5.151c0-4.143-3.357-7.5-7.5-7.5z"/></g></g></svg>