<?xml version="1.0" encoding="iso-8859-1"?>
<!-- Generator: Adobe Illustrator 19.0.0, SVG Export Plug-In . SVG Version: 6.00 Build 0)  -->
<svg version="1.1" id="Layer_1" xmlns="http://www.w3.org/2000/svg" xmlns:xlink="http://www.w3.org/1999/xlink" x="0px" y="0px"
	 viewBox="0 0 512 512" style="enable-background:new 0 0 512 512;" xml:space="preserve">
<g id="XMLID_3155_">
	<g id="XMLID_1824_">
		<path id="XMLID_1399_" style="fill:#9BE3FF;" d="M435.789,215.22c24.296-21.496,39.62-52.903,39.62-87.895
			C475.409,62.528,422.881,10,358.084,10c-56.376,0-103.458,39.766-114.745,92.776c-16.099-16.109-38.346-26.074-62.919-26.074h0
			c-49.128,0-88.955,39.826-88.955,88.955v0c0,20.573,6.987,39.512,18.713,54.581c-11.437,9.6-18.713,23.997-18.713,40.097v0
			c0,28.904,23.432,52.336,52.336,52.336H409.27c28.905,0,52.336-23.432,52.336-52.336v0
			C461.606,241.112,451.235,224.319,435.789,215.22z"/>
		<circle id="XMLID_1398_" style="fill:#9BE3FF;" cx="201.156" cy="393.831" r="35.843"/>
		<circle id="XMLID_1139_" style="fill:#9BE3FF;" cx="108.73" cy="460.183" r="19.913"/>
		<g id="XMLID_994_">
			<path id="XMLID_28_" d="M409.27,322.672H236.998c-5.523,0-10-4.477-10-10s4.477-10,10-10H409.27
				c23.344,0,42.336-18.992,42.336-42.336c0-14.922-8.006-28.908-20.893-36.5c-2.758-1.625-4.572-4.472-4.878-7.658
				c-0.307-3.186,0.931-6.327,3.328-8.448c23.035-20.379,36.246-49.686,36.246-80.405C465.409,68.146,417.263,20,358.084,20
				c-50.351,0-94.495,35.688-104.964,84.859c-0.764,3.586-3.428,6.466-6.944,7.507c-3.514,1.041-7.319,0.073-9.91-2.521
				c-14.915-14.924-34.748-23.143-55.846-23.143c-43.536,0-78.955,35.419-78.955,78.955c0,17.729,5.742,34.479,16.605,48.439
				c3.303,4.245,2.657,10.342-1.463,13.8c-9.623,8.078-15.142,19.901-15.142,32.438c0,23.344,18.992,42.336,42.336,42.336h16.534
				c5.523,0,10,4.477,10,10s-4.477,10-10,10h-16.534c-34.372,0-62.336-27.964-62.336-62.336c0-15.341,5.608-29.953,15.628-41.275
				c-10.251-15.911-15.628-34.2-15.628-53.403c0-54.564,44.391-98.955,98.955-98.955c20.925,0,40.856,6.45,57.526,18.41
				c7.711-21.876,21.397-41.496,39.521-56.34C300.12,10.218,328.751,0,358.084,0c70.208,0,127.325,57.118,127.325,127.325
				c0,32.363-12.355,63.4-34.255,86.874c12.839,11.701,20.453,28.472,20.453,46.137C471.606,294.708,443.642,322.672,409.27,322.672
				z M199.339,322.672c-5.522,0-10.005-4.477-10.005-10s4.472-10,9.995-10h0.01c5.523,0,10,4.477,10,10
				S204.862,322.672,199.339,322.672z"/>
		</g>
		<g id="XMLID_1029_">
			<path id="XMLID_23_" d="M201.156,439.674c-25.278,0-45.843-20.565-45.843-45.843s20.565-45.843,45.843-45.843
				s45.843,20.565,45.843,45.843S226.433,439.674,201.156,439.674z M201.156,367.988c-14.25,0-25.843,11.593-25.843,25.843
				s11.593,25.843,25.843,25.843s25.843-11.593,25.843-25.843S215.406,367.988,201.156,367.988z"/>
		</g>
		<g id="XMLID_1043_">
			<path id="XMLID_20_" d="M108.73,490.096c-16.494,0-29.913-13.419-29.913-29.913s13.419-29.913,29.913-29.913
				s29.913,13.419,29.913,29.913S125.224,490.096,108.73,490.096z M108.73,450.271c-5.466,0-9.913,4.447-9.913,9.913
				s4.447,9.913,9.913,9.913s9.913-4.447,9.913-9.913S114.196,450.271,108.73,450.271z"/>
		</g>
		<g id="XMLID_1044_">
			<path id="XMLID_19_" d="M36.591,512c-2.63,0-5.21-1.07-7.07-2.93c-1.86-1.86-2.93-4.44-2.93-7.07c0-2.63,1.07-5.21,2.93-7.07
				c1.86-1.86,4.44-2.93,7.07-2.93c2.64,0,5.21,1.07,7.07,2.93c1.86,1.86,2.93,4.44,2.93,7.07c0,2.63-1.07,5.21-2.93,7.07
				C41.801,510.93,39.231,512,36.591,512z"/>
		</g>
		<g id="XMLID_1123_">
			<g id="XMLID_1125_">
				<path id="XMLID_18_" d="M284.776,234.121c-5.523,0-10-4.477-10-10v-19.298c0-6.909,5.621-12.53,12.53-12.53
					c11.225,0,20.356-9.132,20.356-20.356s-9.132-20.356-20.356-20.356h-2.53c-9.83,0-17.827,7.997-17.827,17.827
					c0,5.523-4.477,10-10,10s-10-4.477-10-10c0-20.858,16.969-37.827,37.827-37.827h2.53c22.252,0,40.356,18.104,40.356,40.356
					c0,19.701-14.19,36.149-32.886,39.664v12.521C294.776,229.644,290.299,234.121,284.776,234.121z"/>
			</g>
			<g id="XMLID_1124_">
				<path id="XMLID_17_" d="M284.771,273.05c-2.63,0-5.21-1.07-7.07-2.93c-1.86-1.86-2.93-4.44-2.93-7.07s1.07-5.21,2.93-7.07
					c1.86-1.86,4.44-2.93,7.07-2.93c2.63,0,5.21,1.07,7.07,2.93c1.86,1.86,2.93,4.43,2.93,7.07c0,2.63-1.07,5.21-2.93,7.07
					C289.981,271.98,287.401,273.05,284.771,273.05z"/>
			</g>
		</g>
	</g>
	<g id="XMLID_2068_">
		<path id="XMLID_16_" d="M358.084,63.908c-0.029,0-0.059,0-0.088,0c-5.514-0.048-10.012-4.552-9.976-10.066
			c0.036-5.499,4.569-9.934,10.063-9.934c0.015,0,0.029,0,0.044,0c5.515,0.024,10.033,4.508,10.021,10.022
			C368.136,59.444,363.598,63.908,358.084,63.908z"/>
	</g>
	<g id="XMLID_2066_">
		<path id="XMLID_15_" d="M431.501,137.325c-5.523,0-10-4.477-10-10c0-23.482-12.885-44.941-33.627-56.001
			c-4.874-2.599-6.717-8.656-4.119-13.529c2.598-4.873,8.654-6.719,13.529-4.119c27.274,14.543,44.217,42.764,44.217,73.649
			C441.501,132.848,437.024,137.325,431.501,137.325z"/>
	</g>
</g>
<g>
</g>
<g>
</g>
<g>
</g>
<g>
</g>
<g>
</g>
<g>
</g>
<g>
</g>
<g>
</g>
<g>
</g>
<g>
</g>
<g>
</g>
<g>
</g>
<g>
</g>
<g>
</g>
<g>
</g>
</svg>
