<?xml version="1.0" encoding="iso-8859-1"?>
<!-- Generator: Adobe Illustrator 19.0.0, SVG Export Plug-In . SVG Version: 6.00 Build 0)  -->
<svg version="1.1" id="Layer_1" xmlns="http://www.w3.org/2000/svg" xmlns:xlink="http://www.w3.org/1999/xlink" x="0px" y="0px"
	 viewBox="0 0 512 512" style="enable-background:new 0 0 512 512;" xml:space="preserve">
<g id="XMLID_1351_">
	
		<rect id="XMLID_1379_" x="40.989" y="123.116" transform="matrix(0.7071 -0.7071 0.7071 0.7071 -106.0389 256.0003)" style="fill:#E0FCA9;" width="430.023" height="265.77"/>
	<g id="XMLID_233_">
		<path id="XMLID_249_" d="M509.072,190.857L321.144,2.929c-3.906-3.905-10.236-3.905-14.143,0l-66.786,66.787
			c-3.905,3.905-3.905,10.237,0,14.142c3.906,3.905,10.236,3.905,14.143,0l59.563-59.564
			c92.73,100.185,90.437,257.133-6.918,354.488c-29.16,29.161-67.897,45.22-109.076,45.22c-37.831,0-73.596-13.565-101.772-38.38
			l81.423-81.423c0.003-0.003,0.006-0.006,0.01-0.009s0.006-0.007,0.009-0.01l20.331-20.331l57.445,57.445
			c1.953,1.953,4.512,2.929,7.071,2.929s5.118-0.976,7.071-2.929c3.905-3.905,3.905-10.237,0-14.143L140.289,197.926l59.068-59.069
			c3.905-3.905,3.905-10.237,0-14.142c-3.906-3.905-10.236-3.905-14.143,0L74.712,235.218c-0.001,0.001-0.002,0.002-0.004,0.004
			c-0.002,0.003-0.005,0.005-0.008,0.008L2.929,307.001c-3.905,3.905-3.905,10.237,0,14.143l71.76,71.76
			c0.007,0.007,0.013,0.014,0.02,0.02s0.014,0.013,0.021,0.02l116.127,116.127c1.953,1.953,4.512,2.929,7.071,2.929
			s5.118-0.976,7.071-2.929l304.072-304.072C512.977,201.094,512.977,194.762,509.072,190.857z M163.453,249.375
			c11.2,11.211,11.204,29.438,0.01,40.653l-0.029,0.029c-5.449,5.44-14.312,5.439-19.758-0.009
			c-0.001-0.001-0.002-0.002-0.004-0.003l-47.08-47.08c8.661-5.889,18.865-9.062,29.555-9.062c14.074,0,27.315,5.488,37.286,15.454
			L163.453,249.375z M82.172,256.828l47.357,47.357c0.001,0.002,0.003,0.003,0.004,0.005c0.003,0.003,0.007,0.006,0.01,0.009
			l9.874,9.874L82.172,371.32c-13.047-16.199-20.148-36.18-20.148-57.247C62.024,293.007,69.125,273.026,82.172,256.828z
			 M126.147,212.069l1.929,1.929c-1.286-0.034-2.572-0.034-3.857,0L126.147,212.069z M24.143,314.073l19.592-19.592
			c-1.13,6.405-1.711,12.955-1.711,19.593c0,6.638,0.581,13.187,1.711,19.592L24.143,314.073z M197.928,487.858l-51.604-51.604
			c16.501,5.098,33.85,7.748,51.603,7.748c0,0-0.002,0,0.001,0c17.753,0,35.103-2.651,51.606-7.75L197.928,487.858z
			 M380.214,305.572c14.264-33.613,21.765-70.056,21.765-107.645c0-37.588-7.5-74.03-21.764-107.642l107.643,107.643
			L380.214,305.572z"/>
		<path id="XMLID_914_" d="M220.11,113.96c2.631,0,5.21-1.06,7.07-2.93c1.86-1.86,2.93-4.44,2.93-7.07s-1.069-5.21-2.93-7.07
			c-1.86-1.86-4.439-2.93-7.07-2.93c-2.63,0-5.21,1.07-7.069,2.93c-1.86,1.86-2.931,4.44-2.931,7.07s1.07,5.21,2.931,7.07
			C214.9,112.9,217.48,113.96,220.11,113.96z"/>
		<path id="XMLID_915_" d="M293.18,364.96c1.86-1.86,2.93-4.44,2.93-7.07c0-2.63-1.069-5.21-2.93-7.07s-4.439-2.93-7.07-2.93
			c-2.63,0-5.21,1.07-7.069,2.93c-1.86,1.86-2.931,4.44-2.931,7.07c0,2.63,1.07,5.21,2.931,7.07c1.859,1.86,4.439,2.93,7.069,2.93
			C288.74,367.89,291.32,366.82,293.18,364.96z"/>
	</g>
</g>
<g>
</g>
<g>
</g>
<g>
</g>
<g>
</g>
<g>
</g>
<g>
</g>
<g>
</g>
<g>
</g>
<g>
</g>
<g>
</g>
<g>
</g>
<g>
</g>
<g>
</g>
<g>
</g>
<g>
</g>
</svg>
