<?xml version="1.0" encoding="iso-8859-1"?>
<!-- Generator: Adobe Illustrator 19.0.0, SVG Export Plug-In . SVG Version: 6.00 Build 0)  -->
<svg version="1.1" id="Layer_1" xmlns="http://www.w3.org/2000/svg" xmlns:xlink="http://www.w3.org/1999/xlink" x="0px" y="0px"
	 viewBox="0 0 511.986 511.986" style="enable-background:new 0 0 511.986 511.986;" xml:space="preserve">
<g id="XMLID_1207_">
	<g id="XMLID_1943_">
		<path id="XMLID_1945_" style="fill:#C9F3FF;" d="M354,110.755l142.142,142.142c7.81,7.81,7.81,20.474,0,28.284l-214.96,214.96
			c-7.81,7.81-20.474,7.81-28.284,0L113.211,356.456L354,110.755z"/>
		<polygon id="XMLID_1944_" style="fill:#7D91FF;" points="353.999,167.323 453.716,267.04 295.324,425.432 223.892,354 		"/>
	</g>
	<path id="XMLID_1182_" style="fill:#FFFFFF;" d="M334,354H30c-11.046,0-20-8.954-20-20V30c0-11.046,8.954-20,20-20h304
		c11.046,0,20,8.954,20,20v304C354,345.046,345.046,354,334,354z"/>
	<rect id="XMLID_833_" x="50" y="50" style="fill:#9BE3FF;" width="264" height="224"/>
	<g id="XMLID_1099_">
		<path id="XMLID_1097_" style="fill:#FFB954;" d="M182,193.892c11.554,0,20.908-9.218,21.227-20.695
			c8.348,7.888,21.476,7.791,29.646-0.377c8.168-8.171,8.265-21.297,0.377-29.646c11.477-0.319,20.695-9.673,20.695-21.227
			s-9.218-20.908-20.695-21.227c7.887-8.348,7.791-21.476-0.377-29.646c-8.171-8.168-21.298-8.265-29.646-0.377
			C202.908,59.218,193.554,50,182,50s-20.908,9.218-21.227,20.695c-8.348-7.888-21.476-7.791-29.646,0.377
			c-8.168,8.171-8.266,21.298-0.377,29.646c-11.477,0.319-20.695,9.673-20.695,21.227s9.218,20.908,20.695,21.227
			c-7.888,8.349-7.791,21.476,0.377,29.646c8.171,8.168,21.298,8.266,29.646,0.377C161.092,184.674,170.446,193.892,182,193.892z"/>
		<circle id="XMLID_1100_" style="fill:#FFFFFF;" cx="182" cy="122.054" r="25.711"/>
	</g>
	<g id="XMLID_1118_">
		<path id="XMLID_1120_" d="M393.32,374c-2.63,0-5.21,1.07-7.07,2.93c-1.86,1.86-2.93,4.44-2.93,7.07c0,2.63,1.07,5.21,2.93,7.07
			c1.86,1.86,4.44,2.93,7.07,2.93c2.64,0,5.21-1.07,7.07-2.93c1.87-1.86,2.93-4.44,2.93-7.07c0-2.63-1.06-5.21-2.93-7.07
			C398.54,375.07,395.96,374,393.32,374z"/>
		<path id="XMLID_1133_" d="M503.213,245.826L364,106.613V30c0-16.542-13.458-30-30-30H30C13.458,0,0,13.458,0,30v304
			c0,16.542,13.458,30,30,30h76.613l139.214,139.213c5.848,5.848,13.531,8.772,21.213,8.772s15.365-2.924,21.213-8.772
			l86.147-86.147c3.905-3.905,3.905-10.237,0-14.143c-3.905-3.905-10.237-3.905-14.143,0l-86.147,86.147
			c-3.898,3.898-10.243,3.898-14.142,0L134.898,364h84.852l68.503,68.503c1.953,1.953,4.512,2.929,7.071,2.929
			s5.119-0.976,7.071-2.929l158.392-158.392c3.905-3.905,3.905-10.237,0-14.142L364,163.181v-28.283l125.071,125.071
			c3.899,3.899,3.899,10.243,0,14.142l-77.48,77.48c-3.905,3.905-3.905,10.237,0,14.142c1.953,1.953,4.512,2.929,7.071,2.929
			s5.119-0.977,7.071-2.929l77.48-77.48C514.91,276.556,514.91,257.523,503.213,245.826z M20,334V30c0-5.514,4.486-10,10-10h304
			c5.514,0,10,4.486,10,10v80.75c0,0.003,0,0.007,0,0.01v56.526c0,0.024,0,0.048,0,0.072V334c0,5.514-4.486,10-10,10H223.897
			c-0.003,0-0.007,0-0.01,0H30C24.486,344,20,339.514,20,334z M295.324,411.29L248.035,364H334c3.702,0,7.247-0.678,10.523-1.91
			L295.324,411.29z M439.574,267.04l-77.483,77.483c1.232-3.276,1.91-6.821,1.91-10.523V191.466L439.574,267.04z"/>
		<path id="XMLID_1153_" d="M182,157.765c19.691,0,35.711-16.02,35.711-35.711s-16.02-35.71-35.711-35.71
			s-35.711,16.02-35.711,35.71S162.309,157.765,182,157.765z M182,106.343c8.663,0,15.711,7.048,15.711,15.71
			c0,8.663-7.048,15.711-15.711,15.711s-15.711-7.048-15.711-15.711C166.289,113.391,173.337,106.343,182,106.343z"/>
		<path id="XMLID_1172_" d="M314,284c5.523,0,10-4.477,10-10V50c0-5.523-4.477-10-10-10H50c-5.523,0-10,4.477-10,10v224
			c0,5.523,4.477,10,10,10H314z M139.991,139.461c-1.508-3.643-5.015-6.06-8.956-6.172c-6.157-0.175-10.98-5.11-10.981-11.233
			c0.001-6.126,4.824-11.061,10.98-11.235c3.941-0.112,7.449-2.529,8.957-6.172c1.508-3.643,0.734-7.832-1.975-10.696
			c-4.23-4.472-4.15-11.368,0.182-15.7c0,0,0,0,0,0c4.332-4.332,11.229-4.412,15.701-0.183c2.864,2.709,7.053,3.483,10.696,1.975
			c3.643-1.508,6.06-5.016,6.171-8.957c0.174-6.156,5.109-10.979,11.232-10.979c6.125,0.001,11.061,4.824,11.235,10.98
			c0.112,3.941,2.529,7.448,6.172,8.956c3.644,1.508,7.832,0.735,10.696-1.975c4.473-4.23,11.369-4.15,15.701,0.183
			c4.332,4.332,4.412,11.228,0.182,15.7c-2.709,2.865-3.483,7.054-1.975,10.696c1.508,3.643,5.016,6.06,8.957,6.172
			c6.156,0.174,10.979,5.109,10.98,11.232c-0.001,6.125-4.824,11.061-10.981,11.236c-3.941,0.112-7.448,2.529-8.956,6.172
			c-1.508,3.643-0.734,7.832,1.975,10.696c4.23,4.472,4.15,11.368-0.183,15.7c-4.332,4.333-11.229,4.414-15.701,0.183
			c-2.863-2.709-7.052-3.483-10.696-1.975c-3.643,1.508-6.06,5.015-6.172,8.956c-0.164,5.799-4.554,10.411-10.18,10.928
			c-0.347-0.036-0.698-0.057-1.054-0.057c-0.356,0-0.707,0.02-1.054,0.056c-5.627-0.518-10.016-5.13-10.18-10.928
			c-0.112-3.941-2.529-7.448-6.172-8.956c-1.236-0.512-2.534-0.76-3.822-0.76c-2.51,0-4.981,0.945-6.874,2.735
			c-4.472,4.23-11.369,4.15-15.701-0.183c-4.332-4.332-4.412-11.228-0.182-15.7C140.725,147.292,141.498,143.103,139.991,139.461z
			 M304,264H199.562c13.003-19.895,30.204-36.832,50.423-49.532c4.677-2.938,6.087-9.11,3.149-13.787
			c-2.938-4.677-9.112-6.086-13.787-3.149c-18.198,11.431-34.195,25.938-47.348,42.75v-37.908
			c7.416-2.477,13.571-7.633,17.311-14.378c10.552,3.028,22.294,0.343,30.633-7.997c8.34-8.339,11.025-20.083,7.997-30.633
			c9.6-5.322,16.003-15.523,16.005-27.313c-0.002-11.788-6.406-21.989-16.005-27.31c3.029-10.55,0.343-22.293-7.996-30.633
			c-1.571-1.571-3.263-2.94-5.045-4.109H304V264z M60,60h69.1c-1.782,1.169-3.474,2.539-5.045,4.109
			c-8.34,8.339-11.026,20.083-7.997,30.633c-9.599,5.322-16.003,15.523-16.005,27.313c0.002,11.788,6.406,21.988,16.005,27.31
			c-3.029,10.55-0.343,22.294,7.996,30.634c8.34,8.339,20.081,11.025,30.633,7.996c3.74,6.745,9.895,11.901,17.312,14.378v37.908
			c-13.152-16.811-29.149-31.319-47.348-42.749c-4.676-2.938-10.85-1.527-13.787,3.149s-1.527,10.85,3.149,13.787
			c20.22,12.7,37.421,29.638,50.424,49.532H60V60z"/>
		<path id="XMLID_1210_" d="M113.211,304H50c-5.523,0-10,4.477-10,10s4.477,10,10,10h63.211c5.523,0,10-4.477,10-10
			S118.734,304,113.211,304z"/>
		<path id="XMLID_1275_" d="M150.939,304h-0.272c-5.523,0-10,4.477-10,10s4.477,10,10,10h0.272c5.523,0,10-4.477,10-10
			S156.462,304,150.939,304z"/>
	</g>
</g>
<g>
</g>
<g>
</g>
<g>
</g>
<g>
</g>
<g>
</g>
<g>
</g>
<g>
</g>
<g>
</g>
<g>
</g>
<g>
</g>
<g>
</g>
<g>
</g>
<g>
</g>
<g>
</g>
<g>
</g>
</svg>
