<?xml version="1.0" encoding="iso-8859-1"?>
<!-- Generator: Adobe Illustrator 19.0.0, SVG Export Plug-In . SVG Version: 6.00 Build 0)  -->
<svg version="1.1" id="Layer_1" xmlns="http://www.w3.org/2000/svg" xmlns:xlink="http://www.w3.org/1999/xlink" x="0px" y="0px"
	 viewBox="0 0 512.001 512.001" style="enable-background:new 0 0 512.001 512.001;" xml:space="preserve">
<g id="XMLID_1059_">
	<path id="XMLID_1134_" style="fill:#B5EB7C;" d="M293.141,212.989c-20.462,20.462-33.159,44.688-36.987,67.013
		c22.325-3.828,46.551-16.526,67.013-36.987c20.462-20.462,33.159-44.688,36.987-67.013
		C337.829,179.83,313.603,192.527,293.141,212.989z"/>
	<path id="XMLID_1131_" style="fill:#B5EB7C;" d="M219.167,212.989c20.462,20.462,33.159,44.688,36.987,67.013
		c-22.325-3.828-46.551-16.526-67.013-36.987s-33.159-44.688-36.987-67.013C174.479,179.83,198.705,192.527,219.167,212.989z"/>
	<g id="XMLID_1365_">
		<path id="XMLID_1985_" style="fill:#FEDA9B;" d="M329.906,83.907c0-42.134-35.259-76.033-77.88-73.801
			c-38.141,1.997-68.134,32.228-69.854,70.382c-1.405,31.17,16.51,58.32,42.779,70.499l1.629,16.376
			c1.504,15.12,14.225,26.638,29.42,26.638h0c15.195,0,27.916-11.518,29.42-26.638l1.629-16.376
			C312.354,139.255,329.906,113.633,329.906,83.907z"/>
		<path id="XMLID_1992_" style="fill:#9BE3FF;" d="M224.951,150.987l1.629,16.376c1.504,15.12,14.225,26.638,29.42,26.638h0
			c15.195,0,27.916-11.518,29.42-26.638l1.629-16.376H224.951z"/>
	</g>
	<polygon id="XMLID_1194_" style="fill:#FF5D5D;" points="372.161,326.001 139.841,326.001 175.561,502.001 336.44,502.001 	"/>
	<rect id="XMLID_1193_" x="108.001" y="280.001" style="fill:#FFC66C;" width="296" height="46"/>
	<g id="XMLID_367_">
		<path id="XMLID_368_" d="M256.001,79.711c2.63,0,5.21-1.06,7.07-2.92c1.86-1.87,2.93-4.44,2.93-7.08c0-2.63-1.07-5.2-2.93-7.07
			c-1.86-1.86-4.44-2.93-7.07-2.93c-2.63,0-5.21,1.07-7.07,2.93c-1.86,1.87-2.93,4.44-2.93,7.07c0,2.64,1.07,5.22,2.93,7.08
			C250.791,78.651,253.37,79.711,256.001,79.711z"/>
		<path id="XMLID_865_" d="M404.001,270.001h-98.006c8.499-5.651,16.653-12.325,24.244-19.916
			c21.293-21.294,35.418-47.004,39.771-72.394c0.549-3.199-0.49-6.466-2.785-8.761c-2.295-2.295-5.564-3.332-8.761-2.785
			c-25.39,4.354-51.099,18.478-72.394,39.772c0,0,0,0,0,0c-7.66,7.66-14.386,15.893-20.069,24.476v-27.666
			c15.716-4.061,27.69-17.487,29.371-34.374l1.088-10.931c26.571-14.661,43.447-42.911,43.447-73.516
			c0-23.246-9.289-44.863-26.156-60.87C296.893,7.039,274.789-1.098,251.503,0.119c-43.269,2.266-77.369,36.623-79.32,79.918
			c-1.454,32.264,15.408,62.031,43.36,77.391l1.087,10.925c1.68,16.887,13.654,30.313,29.371,34.374v27.202
			c-5.618-8.416-12.241-16.49-19.763-24.012c-21.294-21.294-47.004-35.418-72.394-39.772c-3.199-0.549-6.466,0.489-8.761,2.785
			s-3.333,5.562-2.785,8.761c4.354,25.39,18.478,51.1,39.772,72.394c7.591,7.591,15.745,14.265,24.244,19.917h-98.313
			c-5.523,0-10,4.477-10,10v46c0,5.523,4.477,10,10,10h23.665l34.095,167.989c0.946,4.661,5.044,8.011,9.8,8.011H336.44
			c4.756,0,8.854-3.35,9.8-8.011l34.095-167.989h23.665c5.523,0,10-4.477,10-10v-46
			C414.001,274.479,409.524,270.001,404.001,270.001z M300.213,220.06L300.213,220.06c13.638-13.639,29.729-24.072,45.822-29.939
			c-5.868,16.093-16.301,32.185-29.939,45.822c-13.638,13.639-29.729,24.072-45.823,29.939
			C276.141,249.789,286.574,233.698,300.213,220.06z M192.162,80.938c1.486-32.963,27.446-59.122,60.387-60.846
			c1.164-0.061,2.322-0.091,3.477-0.091c16.463,0,31.96,6.159,43.957,17.543c12.848,12.193,19.923,28.658,19.923,46.363
			c0,24.091-13.73,46.263-35.154,57.081h-18.751v-32.591c0-5.523-4.477-10-10-10s-10,4.477-10,10v32.591h-18.75
			C204.733,129.642,191.019,106.306,192.162,80.938z M236.531,166.373l-0.536-5.386h40.01l-0.536,5.386
			c-1,10.05-9.37,17.628-19.469,17.628S237.531,176.423,236.531,166.373z M166.273,190.121
			c16.093,5.868,32.184,16.301,45.822,29.939h0c13.638,13.638,24.071,29.729,29.939,45.823
			c-16.094-5.868-32.185-16.301-45.823-29.94C182.574,222.305,172.141,206.214,166.273,190.121z M328.266,492.001h-144.53
			l-21.92-108h83.185c5.523,0,10-4.477,10-10s-4.477-10-10-10h-87.244l-5.683-28h207.854L328.266,492.001z M394.001,316.001h-21.84
			h-232.32h-21.84v-26h276V316.001z"/>
		<path id="XMLID_878_" d="M286.191,384.001c2.64,0,5.21-1.07,7.07-2.93s2.93-4.44,2.93-7.07c0-2.63-1.07-5.21-2.93-7.07
			c-1.86-1.86-4.43-2.93-7.07-2.93c-2.63,0-5.21,1.07-7.07,2.93c-1.86,1.86-2.93,4.44-2.93,7.07c0,2.63,1.07,5.21,2.93,7.07
			C280.981,382.931,283.561,384.001,286.191,384.001z"/>
	</g>
</g>
<g>
</g>
<g>
</g>
<g>
</g>
<g>
</g>
<g>
</g>
<g>
</g>
<g>
</g>
<g>
</g>
<g>
</g>
<g>
</g>
<g>
</g>
<g>
</g>
<g>
</g>
<g>
</g>
<g>
</g>
</svg>
