<?xml version="1.0" encoding="iso-8859-1"?>
<!-- Generator: Adobe Illustrator 19.0.0, SVG Export Plug-In . SVG Version: 6.00 Build 0)  -->
<svg version="1.1" id="Layer_1" xmlns="http://www.w3.org/2000/svg" xmlns:xlink="http://www.w3.org/1999/xlink" x="0px" y="0px"
	 viewBox="0 0 498.667 498.667" style="enable-background:new 0 0 498.667 498.667;" xml:space="preserve">
<g id="XMLID_1334_">
	<polygon id="XMLID_1791_" style="fill:#FFC66C;" points="232,335.957 295.333,452.043 333.833,452.043 314.333,335.957 	"/>
	<path id="XMLID_1792_" style="fill:#FEDA9B;" d="M432.669,329.295L432.669,329.295c0,34.607-28.055,62.662-62.662,62.662h-46.831
		c-11.598,0-22.466-5.665-29.108-15.172v0c-4.166-5.963-6.4-13.062-6.4-20.336v-20.492L432.669,329.295z"/>
	<path id="XMLID_1737_" style="fill:#FEDA9B;" d="M108.667,270.624H92.39c-45.503,0-82.39-36.887-82.39-82.39v0
		c0-33.937,20.809-64.402,52.422-76.746L80,104.624l4.59-3.503c46.319-35.349,102.972-54.497,161.239-54.497h0
		c68.162,0,133.718,26.188,183.119,73.152l0,0c16.079,15.285,28.784,33.764,37.299,54.25l15.522,37.341
		c4.553,10.953,6.897,22.697,6.897,34.558v0c0,49.724-40.309,90.033-90.033,90.033H177.667c-34.058,0-61.667-27.609-61.667-61.667v0
		c0-34.058,27.609-61.667,61.667-61.667h19.667"/>
	<polygon id="XMLID_1764_" style="fill:#FF5D5D;" points="288.279,94.091 235.39,212.613 294.014,212.613 278.661,277.609 
		352.638,169.92 281.27,169.92 	"/>
	<g id="XMLID_382_">
		<path id="XMLID_385_" d="M498.667,245.925c0-13.247-2.578-26.166-7.663-38.397l-15.522-37.341
			c-9.108-21.911-22.446-41.31-39.644-57.659c-10.18-9.678-21.189-18.645-32.72-26.651c-4.536-3.149-10.768-2.026-13.917,2.51
			s-2.026,10.768,2.51,13.917c10.695,7.426,20.905,15.743,30.347,24.719c10.614,10.09,19.553,21.502,26.72,34.064
			c-18.092,5.575-31.668,21.549-33.694,40.918l-29.598,16.923c-4.794,2.741-6.459,8.85-3.718,13.645
			c1.846,3.229,5.219,5.038,8.69,5.038c1.683,0,3.389-0.425,4.954-1.32l34.373-19.652c3.115-1.781,5.037-5.093,5.037-8.681v-0.914
			c0-13.698,9.859-25.129,22.851-27.589l14.861,35.751c4.068,9.786,6.131,20.121,6.131,30.72c0,44.13-35.902,80.032-80.033,80.032
			h-7.153c-11.191,0-20.296-9.104-20.296-20.296s9.104-20.296,20.296-20.296c5.523,0,10-4.477,10-10s-4.477-10-10-10
			c-22.219,0-40.296,18.077-40.296,40.296c0,7.398,2.013,14.331,5.506,20.296H177.667c-15.203,0-28.89-6.603-38.353-17.088
			c0.005-0.129,0.02-0.255,0.02-0.385c0-11.51,9.364-20.874,20.874-20.874h31.609c5.523,0,10-4.477,10-10s-4.477-10-10-10h-31.609
			c-13.643,0-25.737,6.725-33.166,17.028c-0.682-3.344-1.042-6.804-1.042-10.346c0-28.489,23.178-51.667,51.667-51.667h19.667
			c5.523,0,10-4.477,10-10s-4.477-10-10-10h-19.667c-34.843,0-63.944,24.999-70.344,58H92.39c-39.916,0-72.39-32.474-72.39-72.39
			c0-30.038,18.08-56.506,46.06-67.431l9.925-3.876c4.384,4.507,6.799,10.434,6.799,16.734c0,6.415-2.498,12.445-7.034,16.98
			c-3.905,3.905-3.906,10.237,0,14.142c1.953,1.953,4.512,2.929,7.071,2.929c2.559,0,5.119-0.977,7.071-2.929
			c3.815-3.815,6.833-8.212,8.994-12.984h53.044c9.46,0,17.157,7.697,17.157,17.157c0,5.523,4.477,10,10,10s10-4.477,10-10
			c0-20.489-16.668-37.157-37.157-37.157h-49.191c-0.378-9.149-3.544-17.795-9.083-24.968
			c30.521-22.579,65.943-38.065,103.062-45.38c-9.677,14.073-14.9,30.71-14.9,48.157c0,5.523,4.477,10,10,10s10-4.477,10-10
			c0-17.428,6.787-33.813,19.11-46.137l6.134-6.133c6.239-0.466,12.5-0.715,18.769-0.715c27.801,0,55.254,4.497,81.597,13.365
			c5.236,1.763,10.906-1.053,12.668-6.287s-1.053-10.906-6.287-12.668c-28.403-9.562-58.003-14.41-87.979-14.41
			c-60.106,0-119.523,20.082-167.306,56.547l-3.472,2.649l-16.267,6.352c-17.394,6.792-32.154,18.531-42.687,33.95
			C5.567,151.542,0,169.562,0,188.234c0,50.944,41.446,92.39,92.39,92.39h13.906c3.219,36.56,33.99,65.333,71.371,65.333h48.397
			l60.491,110.875c1.752,3.212,5.119,5.21,8.778,5.21h38.5c2.958,0,5.764-1.309,7.664-3.576c1.9-2.267,2.699-5.258,2.183-8.17
			l-8.575-48.339h34.901c37.844,0,69.008-29.086,72.35-66.074C475.664,319.629,498.667,285.414,498.667,245.925z M301.269,442.043
			l-52.422-96.086h28.82v10.492c0,9.37,2.836,18.383,8.202,26.063c6.853,9.808,17.237,16.425,28.779,18.63l7.255,40.901H301.269z
			 M370.006,381.957h-46.831c-8.326,0-16.143-4.075-20.911-10.899c-3.007-4.305-4.597-9.356-4.597-14.609v-10.492h100.967
			c7.582,0,14.969-0.853,22.072-2.459C414.49,365.656,394.123,381.957,370.006,381.957z"/>
		<path id="XMLID_387_" d="M362.716,84.894c1.483,0.778,3.071,1.146,4.637,1.146c3.599,0,7.076-1.948,8.864-5.356
			c2.565-4.891,0.681-10.936-4.21-13.501l-0.205-0.106c-4.92-2.5-10.956-0.545-13.458,4.378
			C355.842,76.378,357.792,82.392,362.716,84.894z"/>
		<path id="XMLID_390_" d="M298.237,95.012c0.451-4.873-2.692-9.356-7.426-10.595c-4.735-1.239-9.67,1.13-11.664,5.599
			l-52.889,118.522c-1.381,3.094-1.101,6.676,0.743,9.518c1.844,2.842,5.001,4.557,8.389,4.557h45.986l-12.448,52.697
			c-1.107,4.685,1.281,9.493,5.682,11.442c1.309,0.58,2.686,0.857,4.045,0.857c3.212,0,6.332-1.551,8.247-4.339l73.977-107.689
			c2.102-3.06,2.336-7.034,0.606-10.319c-1.729-3.286-5.136-5.343-8.849-5.343h-60.401L298.237,95.012z M333.637,179.92
			l-32.958,47.977l3.067-12.984c0.703-2.975,0.006-6.107-1.89-8.504c-1.896-2.397-4.785-3.795-7.842-3.795h-43.211l21.949-49.186
			L271.313,169c-0.259,2.8,0.673,5.58,2.568,7.658c1.895,2.078,4.577,3.262,7.389,3.262H333.637z"/>
		<path id="XMLID_784_" d="M234.613,270.533c-1.86,1.86-2.93,4.44-2.93,7.08c0,2.63,1.07,5.21,2.93,7.07
			c1.86,1.86,4.43,2.93,7.07,2.93c2.63,0,5.21-1.07,7.07-2.93c1.86-1.86,2.93-4.44,2.93-7.07s-1.07-5.21-2.93-7.08
			c-1.86-1.86-4.44-2.92-7.07-2.92C239.043,267.613,236.473,268.673,234.613,270.533z"/>
	</g>
</g>
<g>
</g>
<g>
</g>
<g>
</g>
<g>
</g>
<g>
</g>
<g>
</g>
<g>
</g>
<g>
</g>
<g>
</g>
<g>
</g>
<g>
</g>
<g>
</g>
<g>
</g>
<g>
</g>
<g>
</g>
</svg>
