<?xml version="1.0" encoding="iso-8859-1"?>
<!-- Generator: Adobe Illustrator 19.0.0, SVG Export Plug-In . SVG Version: 6.00 Build 0)  -->
<svg version="1.1" id="Layer_1" xmlns="http://www.w3.org/2000/svg" xmlns:xlink="http://www.w3.org/1999/xlink" x="0px" y="0px"
	 viewBox="0 0 512 512" style="enable-background:new 0 0 512 512;" xml:space="preserve">
<g id="XMLID_1816_">
	<g id="XMLID_783_">
		<polyline id="XMLID_782_" style="fill:#FFB954;" points="10,418.876 168.768,260.109 251.892,343.233 93.124,502 		"/>
		<polygon id="XMLID_795_" style="fill:#FEDA9B;" points="317.751,194.249 251.892,343.233 168.768,260.109 		"/>
		<polygon id="XMLID_1408_" style="fill:#7D91FF;" points="317.751,194.249 259.61,219.951 292.049,252.391 		"/>
	</g>
	<g id="XMLID_404_">
		<path id="XMLID_407_" d="M313.708,185.103l-148.983,65.859c-1.129,0.499-2.155,1.202-3.028,2.075L2.929,411.805
			c-3.905,3.905-3.905,10.237,0,14.143c3.906,3.905,10.236,3.904,14.143,0l151.696-151.697l68.982,68.982L86.053,494.929
			c-3.905,3.905-3.905,10.237,0,14.143c1.953,1.953,4.512,2.929,7.071,2.929s5.118-0.976,7.071-2.929l158.768-158.768
			c0.872-0.873,1.576-1.899,2.075-3.028l65.859-148.983c1.67-3.778,0.846-8.193-2.075-11.114
			C321.902,184.258,317.486,183.432,313.708,185.103z M288.326,236.081l-12.406-12.406l22.235-9.829L288.326,236.081z
			 M248.645,325.843l-62.488-62.488l70.149-31.01l23.349,23.35L248.645,325.843z"/>
		<path id="XMLID_409_" d="M161.739,350.263c-3.905-3.905-10.235-3.905-14.143,0L44.49,453.367c-3.905,3.905-3.905,10.237,0,14.142
			c1.953,1.953,4.512,2.929,7.071,2.929c2.559,0,5.118-0.977,7.071-2.929l103.105-103.104
			C165.644,360.5,165.644,354.168,161.739,350.263z"/>
		<path id="XMLID_410_" d="M186.66,339.48c1.859-1.86,2.93-4.44,2.93-7.07c0-2.63-1.07-5.21-2.93-7.07
			c-1.86-1.86-4.44-2.93-7.07-2.93s-5.21,1.07-7.07,2.93c-1.859,1.86-2.93,4.44-2.93,7.07c0,2.63,1.07,5.21,2.93,7.07
			c1.86,1.86,4.44,2.93,7.07,2.93S184.8,341.34,186.66,339.48z"/>
		<path id="XMLID_411_" d="M371.078,140.922c1.953,1.953,4.512,2.929,7.071,2.929s5.118-0.976,7.071-2.929l69.851-69.851
			c3.905-3.905,3.905-10.237,0-14.143c-3.906-3.905-10.236-3.905-14.143,0l-69.851,69.851
			C367.173,130.685,367.173,137.017,371.078,140.922z"/>
		<path id="XMLID_412_" d="M472.5,49.5c2.56,0,5.118-0.977,7.071-2.929l29.5-29.5c3.905-3.905,3.905-10.237,0-14.143
			c-3.906-3.904-10.236-3.904-14.143,0l-29.5,29.5c-3.905,3.905-3.905,10.237,0,14.143C467.382,48.524,469.941,49.5,472.5,49.5z"/>
		<path id="XMLID_413_" d="M385.221,188.964c-3.904-3.904-10.234-3.905-14.143,0c-3.905,3.905-3.905,10.237,0,14.142l67.879,67.88
			c1.953,1.953,4.512,2.929,7.071,2.929c2.559,0,5.118-0.977,7.071-2.929c3.905-3.905,3.905-10.237,0-14.143L385.221,188.964z"/>
		<path id="XMLID_414_" d="M502,294.042h-5.844v-5.843c0-5.523-4.478-10-10-10s-10,4.477-10,10v5.843h-5.843
			c-5.522,0-10,4.477-10,10s4.478,10,10,10h5.843v5.843c0,5.523,4.478,10,10,10s10-4.477,10-10v-5.843H502c5.522,0,10-4.477,10-10
			S507.523,294.042,502,294.042z"/>
		<path id="XMLID_415_" d="M192.115,35.844h5.844v5.843c0,5.523,4.478,10,10,10s10-4.477,10-10v-5.843h5.843c5.522,0,10-4.477,10-10
			s-4.478-10-10-10h-5.843V10c0-5.523-4.478-10-10-10s-10,4.477-10,10v5.843h-5.844c-5.522,0-10,4.477-10,10
			S186.592,35.844,192.115,35.844z"/>
		<path id="XMLID_416_" d="M347.06,154.94c-2.63,0-5.21,1.07-7.069,2.93c-1.86,1.86-2.931,4.44-2.931,7.07
			c0,2.64,1.07,5.21,2.931,7.07c1.859,1.87,4.439,2.93,7.069,2.93s5.21-1.06,7.07-2.93c1.86-1.86,2.93-4.43,2.93-7.07
			c0-2.63-1.069-5.21-2.93-7.07C352.27,156.01,349.69,154.94,347.06,154.94z"/>
		<path id="XMLID_823_" d="M308.895,140.922c1.953,1.953,4.512,2.929,7.071,2.929s5.118-0.977,7.071-2.929
			c3.905-3.905,3.905-10.237,0-14.142l-59.966-59.965c-3.906-3.905-10.236-3.905-14.143,0c-3.905,3.905-3.905,10.237,0,14.142
			L308.895,140.922z"/>
		<path id="XMLID_964_" d="M455.364,140.956c0,5.523,4.478,10,10,10s10-4.477,10-10v-12.65c0-5.523-4.478-10-10-10s-10,4.477-10,10
			V140.956z"/>
		<path id="XMLID_984_" d="M475.364,201.58v-12.65c0-5.523-4.478-10-10-10s-10,4.477-10,10v12.65c0,5.523,4.478,10,10,10
			S475.364,207.103,475.364,201.58z"/>
		<path id="XMLID_987_" d="M502,154.943h-12.65c-5.522,0-10,4.477-10,10s4.478,10,10,10H502c5.522,0,10-4.477,10-10
			S507.523,154.943,502,154.943z"/>
		<path id="XMLID_1011_" d="M428.727,154.943c-5.522,0-10,4.477-10,10s4.478,10,10,10h12.65c5.522,0,10-4.477,10-10s-4.478-10-10-10
			H428.727z"/>
		<path id="XMLID_1012_" d="M347.058,32.65c5.522,0,10-4.477,10-10V10c0-5.523-4.478-10-10-10s-10,4.477-10,10v12.65
			C337.058,28.173,341.535,32.65,347.058,32.65z"/>
		<path id="XMLID_1087_" d="M347.058,93.274c5.522,0,10-4.477,10-10v-12.65c0-5.523-4.478-10-10-10s-10,4.477-10,10v12.65
			C337.058,88.797,341.535,93.274,347.058,93.274z"/>
		<path id="XMLID_1089_" d="M383.695,56.637c5.522,0,10-4.477,10-10s-4.478-10-10-10h-12.65c-5.522,0-10,4.477-10,10s4.478,10,10,10
			H383.695z"/>
		<path id="XMLID_1093_" d="M323.071,36.637h-12.649c-5.522,0-10,4.477-10,10s4.478,10,10,10h12.649c5.522,0,10-4.477,10-10
			S328.593,36.637,323.071,36.637z"/>
	</g>
</g>
<g>
</g>
<g>
</g>
<g>
</g>
<g>
</g>
<g>
</g>
<g>
</g>
<g>
</g>
<g>
</g>
<g>
</g>
<g>
</g>
<g>
</g>
<g>
</g>
<g>
</g>
<g>
</g>
<g>
</g>
</svg>
