<?xml version="1.0" encoding="iso-8859-1"?>
<!-- Generator: Adobe Illustrator 19.0.0, SVG Export Plug-In . SVG Version: 6.00 Build 0)  -->
<svg version="1.1" id="Layer_1" xmlns="http://www.w3.org/2000/svg" xmlns:xlink="http://www.w3.org/1999/xlink" x="0px" y="0px"
	 viewBox="0 0 512 512" style="enable-background:new 0 0 512 512;" xml:space="preserve">
<g id="XMLID_821_">
	<rect id="XMLID_1719_" x="20" y="10" style="fill:#FFFFFF;" width="472" height="316"/>
	<rect id="XMLID_1718_" x="10" y="326" style="fill:#FFB954;" width="492" height="56"/>
	<rect id="XMLID_1716_" x="232" y="382" style="fill:#C9F3FF;" width="48" height="120"/>
	<polygon id="XMLID_1712_" style="fill:#9BE3FF;" points="398.667,502 345.667,502 280,382 333,382 	"/>
	<polygon id="XMLID_1711_" style="fill:#9BE3FF;" points="113.333,502 166.333,502 232,382 179,382 	"/>
	<path id="XMLID_762_" style="fill:#B5EB7C;" d="M112,256L112,256c-15.464,0-28-12.536-28-28v0c0-15.464,12.536-28,28-28h0
		c15.464,0,28,12.536,28,28v0C140,243.464,127.464,256,112,256z"/>
	<path id="XMLID_789_" style="fill:#B5EB7C;" d="M112,144L112,144c-15.464,0-28-12.536-28-28v0c0-15.464,12.536-28,28-28h0
		c15.464,0,28,12.536,28,28v0C140,131.464,127.464,144,112,144z"/>
	<g id="XMLID_464_">
		<path id="XMLID_465_" d="M100.33,316c-2.63,0-5.21,1.07-7.07,2.93c-1.86,1.86-2.93,4.44-2.93,7.07c0,2.63,1.069,5.21,2.93,7.07
			s4.44,2.93,7.07,2.93s5.21-1.07,7.069-2.93c1.86-1.86,2.931-4.44,2.931-7.07c0-2.63-1.07-5.21-2.931-7.07
			C105.54,317.07,102.96,316,100.33,316z"/>
		<path id="XMLID_468_" d="M502,316V10c0-5.523-4.478-10-10-10H20c-5.522,0-10,4.477-10,10v306c-5.522,0-10,4.477-10,10v56
			c0,5.523,4.478,10,10,10h152.128l-57.568,105.2c-1.695,3.098-1.631,6.861,0.17,9.899c1.801,3.039,5.07,4.901,8.603,4.901h53
			c3.654,0,7.018-1.994,8.772-5.2L222,421.105V502c0,5.523,4.478,10,10,10h48c5.522,0,10-4.477,10-10v-80.895l46.895,85.695
			c1.755,3.206,5.118,5.2,8.772,5.2h53c3.532,0,6.802-1.863,8.603-4.901c1.801-3.038,1.865-6.801,0.17-9.899L349.872,392H502
			c5.522,0,10-4.477,10-10v-56C512,320.477,507.522,316,502,316z M160.406,492h-30.201l54.722-100h30.201L160.406,492z M270,492h-28
			V392h28V492z M381.795,492h-30.201l-54.722-100h30.201L381.795,492z M492,372H20v-36h35.5c5.522,0,10-4.477,10-10s-4.478-10-10-10
			H30V20h452v296H140c-5.522,0-10,4.477-10,10s4.478,10,10,10h352V372z"/>
		<path id="XMLID_474_" d="M150,228c0-20.953-17.047-38-38-38s-38,17.047-38,38s17.047,38,38,38S150,248.953,150,228z M112,246
			c-9.925,0-18-8.075-18-18s8.075-18,18-18s18,8.075,18,18S121.925,246,112,246z"/>
		<path id="XMLID_475_" d="M432,218H232c-5.522,0-10,4.477-10,10s4.478,10,10,10h200c5.522,0,10-4.477,10-10S437.522,218,432,218z"
			/>
		<path id="XMLID_476_" d="M189,238c2.63,0,5.21-1.07,7.069-2.93c1.86-1.86,2.931-4.44,2.931-7.07c0-2.63-1.07-5.21-2.931-7.07
			C194.21,219.07,191.63,218,189,218s-5.21,1.07-7.07,2.93c-1.86,1.86-2.93,4.44-2.93,7.07c0,2.63,1.069,5.21,2.93,7.07
			S186.37,238,189,238z"/>
		<path id="XMLID_479_" d="M112,154c20.953,0,38-17.047,38-38s-17.047-38-38-38s-38,17.047-38,38S91.047,154,112,154z M112,98
			c9.925,0,18,8.075,18,18s-8.075,18-18,18s-18-8.075-18-18S102.075,98,112,98z"/>
		<path id="XMLID_480_" d="M189,126h243c5.522,0,10-4.477,10-10s-4.478-10-10-10H189c-5.522,0-10,4.477-10,10S183.478,126,189,126z"
			/>
	</g>
</g>
<g>
</g>
<g>
</g>
<g>
</g>
<g>
</g>
<g>
</g>
<g>
</g>
<g>
</g>
<g>
</g>
<g>
</g>
<g>
</g>
<g>
</g>
<g>
</g>
<g>
</g>
<g>
</g>
<g>
</g>
</svg>
