<?xml version="1.0" encoding="iso-8859-1"?>
<!-- Generator: Adobe Illustrator 19.0.0, SVG Export Plug-In . SVG Version: 6.00 Build 0)  -->
<svg version="1.1" id="Layer_1" xmlns="http://www.w3.org/2000/svg" xmlns:xlink="http://www.w3.org/1999/xlink" x="0px" y="0px"
	 viewBox="0 0 512 512" style="enable-background:new 0 0 512 512;" xml:space="preserve">
<g id="XMLID_1409_">
	<rect id="XMLID_1533_" x="42" y="42" style="fill:#FFFFFF;" width="428" height="428"/>
	<rect id="XMLID_1532_" x="10" y="10" style="fill:#2E9DE3;" width="64" height="64"/>
	<rect id="XMLID_1531_" x="438" y="10" style="fill:#2E9DE3;" width="64" height="64"/>
	<rect id="XMLID_1529_" x="10" y="438" style="fill:#2E9DE3;" width="64" height="64"/>
	<rect id="XMLID_1527_" x="438" y="438" style="fill:#2E9DE3;" width="64" height="64"/>
	<g id="XMLID_1489_">
		<polygon id="XMLID_1521_" style="fill:#FFB9B7;" points="359.923,316.056 256,376.056 152.077,316.056 152.077,196.056 
			256,136.056 359.923,196.056 		"/>
		<polygon id="XMLID_1494_" style="fill:#FF5D5D;" points="152.077,196.093 152.077,316.056 256,376.056 256.062,376.02 
			256.062,256.057 152.139,196.057 		"/>
		<polygon id="XMLID_1493_" style="fill:#FFFFFF;" points="152.077,196.056 152.077,196.059 256,256.059 359.923,196.059 
			359.923,196.056 256,136.056 		"/>
	</g>
	<g id="XMLID_923_">
		<path id="XMLID_926_" d="M502,0h-64c-5.522,0-10,4.477-10,10v22H211c-5.522,0-10,4.477-10,10s4.478,10,10,10h217v22
			c0,5.523,4.478,10,10,10h22v269.667c0,5.523,4.478,10,10,10s10-4.477,10-10V84h22c5.522,0,10-4.477,10-10V10
			C512,4.477,507.522,0,502,0z M492,64h-44V20h44V64z"/>
		<path id="XMLID_978_" d="M502,428h-64c-5.522,0-10,4.477-10,10v22H84v-22c0-5.523-4.478-10-10-10H52V84h22c5.522,0,10-4.477,10-10
			V52h44c5.522,0,10-4.477,10-10s-4.478-10-10-10H84V10c0-5.523-4.478-10-10-10H10C4.478,0,0,4.477,0,10v64c0,5.523,4.478,10,10,10
			h22v344H10c-5.522,0-10,4.477-10,10v64c0,5.523,4.478,10,10,10h64c5.522,0,10-4.477,10-10v-22h344v22c0,5.523,4.478,10,10,10h64
			c5.522,0,10-4.477,10-10v-64C512,432.477,507.522,428,502,428z M20,20h44v44H20V20z M64,492H20v-44h44V492z M492,492h-44v-44h44
			V492z"/>
		<path id="XMLID_1004_" d="M477.069,398.13c1.86-1.87,2.931-4.44,2.931-7.07c0-2.64-1.07-5.21-2.931-7.08
			c-1.859-1.86-4.439-2.93-7.069-2.93s-5.21,1.07-7.07,2.93c-1.86,1.86-2.93,4.44-2.93,7.08c0,2.63,1.069,5.21,2.93,7.07
			s4.44,2.93,7.07,2.93S475.21,399.99,477.069,398.13z"/>
		<path id="XMLID_1005_" d="M171,52c2.63,0,5.21-1.07,7.069-2.93C179.93,47.21,181,44.63,181,42c0-2.63-1.07-5.21-2.931-7.07
			C176.21,33.07,173.63,32,171,32s-5.21,1.07-7.07,2.93c-1.86,1.86-2.93,4.44-2.93,7.07c0,2.63,1.069,5.21,2.93,7.07
			S168.37,52,171,52z"/>
		<path id="XMLID_1057_" d="M142.077,196.056v120c0,3.573,1.906,6.874,5,8.66l103.923,60c1.547,0.893,3.273,1.34,5,1.34
			s3.453-0.447,5-1.34l103.923-60c3.094-1.786,5-5.087,5-8.66v-120c0-3.573-1.906-6.874-5-8.66l-103.923-60
			c-3.094-1.786-6.906-1.786-10,0l-103.923,60C143.983,189.182,142.077,192.483,142.077,196.056z M162.077,213.377L246,261.83
			v96.906l-83.923-48.453V213.377z M266,358.735V261.83l83.923-48.453v96.906L266,358.735z M256,147.603l83.923,48.453L256,244.509
			l-83.923-48.453L256,147.603z"/>
		<path id="XMLID_1061_" d="M370.103,372.538c-3.946,3.865-4.012,10.196-0.146,14.142c1.958,2,4.55,3.002,7.145,3.002
			c2.524,0,5.051-0.95,6.996-2.856l0.757-0.746c3.921-3.889,3.947-10.22,0.059-14.142c-3.889-3.922-10.221-3.947-14.143-0.059
			L370.103,372.538z"/>
		<path id="XMLID_1069_" d="M333.024,399.81l-0.826,0.441c-4.88,2.585-6.74,8.638-4.155,13.518c1.796,3.388,5.261,5.32,8.846,5.32
			c1.578,0,3.181-0.375,4.673-1.166l0.941-0.502c4.863-2.617,6.684-8.682,4.066-13.545
			C343.951,399.013,337.886,397.193,333.024,399.81z"/>
		<path id="XMLID_1084_" d="M288.903,415.792l-0.904,0.183c-5.417,1.075-8.937,6.338-7.861,11.756
			c0.945,4.76,5.123,8.055,9.798,8.055c0.646,0,1.301-0.063,1.958-0.193l1.057-0.214c5.408-1.117,8.887-6.407,7.77-11.816
			C299.603,418.153,294.313,414.68,288.903,415.792z"/>
		<path id="XMLID_1088_" d="M242.034,418.523l-0.938-0.082c-5.503-0.491-10.36,3.566-10.854,9.066
			c-0.493,5.501,3.565,10.36,9.066,10.854l1.055,0.092c0.284,0.024,0.566,0.036,0.847,0.036c5.145,0,9.516-3.946,9.953-9.165
			C251.626,423.819,247.538,418.984,242.034,418.523z"/>
		<path id="XMLID_1107_" d="M227.082,95.405c0.555,0,1.118-0.046,1.685-0.143l0.91-0.15c5.452-0.881,9.157-6.016,8.275-11.468
			c-0.883-5.454-6.027-9.156-11.469-8.275l-1.063,0.175c-5.444,0.924-9.11,6.087-8.187,11.532
			C218.063,91.955,222.294,95.405,227.082,95.405z"/>
		<path id="XMLID_1111_" d="M374.536,116.557l-0.803-0.679c-4.227-3.554-10.535-3.01-14.09,1.217s-3.01,10.535,1.217,14.09
			l0.723,0.611c1.881,1.599,4.183,2.38,6.472,2.38c2.832,0,5.646-1.197,7.624-3.523
			C379.256,126.445,378.744,120.134,374.536,116.557z"/>
		<path id="XMLID_1112_" d="M175.275,91.716c-4.959,2.431-7.008,8.422-4.576,13.381c1.736,3.543,5.29,5.601,8.986,5.601
			c1.478,0,2.978-0.329,4.395-1.023l0.866-0.423c4.968-2.412,7.041-8.395,4.629-13.363c-2.411-4.969-8.395-7.04-13.363-4.629
			L175.275,91.716z"/>
		<path id="XMLID_1113_" d="M276.636,94.292c0.423,0.053,0.844,0.079,1.26,0.079c4.967,0,9.273-3.697,9.909-8.753
			c0.689-5.479-3.194-10.48-8.674-11.169l-1.054-0.129c-5.478-0.657-10.46,3.258-11.116,8.743
			c-0.655,5.484,3.26,10.461,8.743,11.116L276.636,94.292z"/>
		<path id="XMLID_1115_" d="M321.83,106.832c1.315,0.582,2.688,0.856,4.038,0.856c3.839,0,7.5-2.223,9.151-5.959
			c2.233-5.051-0.051-10.956-5.102-13.189l-0.961-0.421c-5.063-2.207-10.955,0.109-13.162,5.173
			c-2.206,5.063,0.11,10.956,5.174,13.162L321.83,106.832z"/>
		<path id="XMLID_1116_" d="M73.056,262.521l0.041,1.059c0.221,5.379,4.65,9.59,9.984,9.59c0.138,0,0.277-0.002,0.417-0.008
			c5.519-0.227,9.808-4.884,9.581-10.402l-0.035-0.94c-0.194-5.52-4.805-9.855-10.346-9.643
			C77.18,252.37,72.862,257.001,73.056,262.521z"/>
		<path id="XMLID_1117_" d="M106.856,362.219c1.949,2.751,5.034,4.219,8.168,4.219c1.999,0,4.018-0.598,5.773-1.842
			c4.506-3.193,5.57-9.435,2.377-13.941l-0.563-0.796c-3.181-4.514-9.42-5.594-13.935-2.413s-5.595,9.421-2.413,13.935
			L106.856,362.219z"/>
		<path id="XMLID_1129_" d="M88.193,223.621c4.467,0,8.537-3.015,9.686-7.542l0.239-0.938c1.376-5.349-1.845-10.8-7.193-12.176
			c-5.354-1.375-10.801,1.846-12.176,7.194l-0.255,1c-1.358,5.354,1.88,10.794,7.232,12.153
			C86.553,223.521,87.379,223.621,88.193,223.621z"/>
		<path id="XMLID_1130_" d="M82.772,315.375c1.422,4.151,5.304,6.762,9.459,6.762c1.075,0,2.169-0.175,3.242-0.542
			c5.225-1.79,8.009-7.477,6.219-12.702l-0.301-0.889c-1.757-5.236-7.422-8.056-12.661-6.301c-5.236,1.756-8.058,7.424-6.301,12.661
			L82.772,315.375z"/>
		<path id="XMLID_1180_" d="M115.81,172.732l0.497-0.827c2.854-4.728,1.336-10.875-3.392-13.729
			c-4.73-2.855-10.876-1.335-13.729,3.392l-0.53,0.883c-2.84,4.737-1.301,10.879,3.437,13.718c1.61,0.965,3.382,1.424,5.131,1.424
			C110.622,177.593,113.936,175.859,115.81,172.732z"/>
		<path id="XMLID_1181_" d="M415.423,290.456l-0.193,0.887c-1.198,5.392,2.201,10.733,7.593,11.931c0.73,0.163,1.46,0.24,2.179,0.24
			c4.583,0,8.717-3.172,9.752-7.833c0.079-0.355,0.157-0.711,0.232-1.067c1.148-5.402-2.3-10.712-7.702-11.86
			C421.879,281.602,416.57,285.054,415.423,290.456z"/>
		<path id="XMLID_1208_" d="M439.056,256.056l-0.003-1.059c-0.032-5.503-4.503-9.941-9.999-9.941c-0.02,0-0.04,0-0.06,0
			c-5.522,0.033-9.974,4.536-9.941,10.059l0.003,0.941c0,5.523,4.478,10,10,10S439.056,261.579,439.056,256.056z"/>
		<path id="XMLID_1211_" d="M195.471,407.511c-5.131-2.048-10.946,0.452-12.994,5.581c-2.047,5.13,0.452,10.947,5.582,12.994
			l0.967,0.384c1.204,0.475,2.444,0.7,3.665,0.7c3.986,0,7.755-2.401,9.306-6.334c2.026-5.138-0.496-10.945-5.635-12.971
			L195.471,407.511z"/>
		<path id="XMLID_1235_" d="M154.881,383.979c-4.329-3.43-10.62-2.699-14.048,1.629c-3.429,4.33-2.699,10.619,1.63,14.048
			l0.85,0.668c1.826,1.422,3.989,2.111,6.138,2.111c2.978,0,5.925-1.325,7.896-3.856c3.394-4.357,2.612-10.641-1.745-14.034
			L154.881,383.979z"/>
		<path id="XMLID_1237_" d="M131.832,121.55c-4.061,3.744-4.315,10.071-0.571,14.13c1.971,2.137,4.658,3.22,7.354,3.22
			c2.424,0,4.854-0.876,6.776-2.649l0.698-0.641c4.079-3.723,4.368-10.048,0.645-14.127c-3.722-4.079-10.046-4.368-14.127-0.645
			L131.832,121.55z"/>
		<path id="XMLID_1238_" d="M399.047,334.387l-0.467,0.844c-2.679,4.83-0.935,10.917,3.895,13.595
			c1.537,0.852,3.2,1.257,4.842,1.257c3.517,0,6.928-1.859,8.754-5.152l0.498-0.901c2.663-4.838,0.899-10.919-3.939-13.582
			C407.793,327.786,401.711,329.548,399.047,334.387z"/>
		<path id="XMLID_1239_" d="M408.801,155.219c-3.036-4.611-9.236-5.891-13.852-2.853c-4.612,3.038-5.89,9.239-2.852,13.852
			l0.531,0.81c1.919,2.934,5.117,4.528,8.38,4.528c1.876,0,3.774-0.527,5.463-1.631c4.622-3.022,5.919-9.22,2.897-13.842
			L408.801,155.219z"/>
		<path id="XMLID_1273_" d="M431.216,202.9c-1.602-5.285-7.188-8.268-12.471-6.668c-5.285,1.603-8.271,7.187-6.668,12.472
			l0.269,0.896c1.287,4.348,5.269,7.163,9.584,7.163c0.939,0,1.896-0.134,2.844-0.414c5.296-1.568,8.316-7.133,6.748-12.428
			L431.216,202.9z"/>
	</g>
</g>
<g>
</g>
<g>
</g>
<g>
</g>
<g>
</g>
<g>
</g>
<g>
</g>
<g>
</g>
<g>
</g>
<g>
</g>
<g>
</g>
<g>
</g>
<g>
</g>
<g>
</g>
<g>
</g>
<g>
</g>
</svg>
