<?xml version="1.0" encoding="iso-8859-1"?>
<!-- Generator: Adobe Illustrator 19.0.0, SVG Export Plug-In . SVG Version: 6.00 Build 0)  -->
<svg version="1.1" id="Layer_1" xmlns="http://www.w3.org/2000/svg" xmlns:xlink="http://www.w3.org/1999/xlink" x="0px" y="0px"
	 viewBox="0 0 512 512" style="enable-background:new 0 0 512 512;" xml:space="preserve">
<g id="XMLID_2568_">
	<path id="XMLID_1810_" style="fill:#FFCB97;" d="M414,10L414,10c-22.091,0-40,17.909-40,40v13.788c0,22.091,17.909,40,40,40h0
		c22.091,0,40-17.909,40-40V50C454,27.909,436.091,10,414,10z"/>
	<path id="XMLID_2117_" style="fill:#9BE3FF;" d="M119.325,103.788h-42.65C39.851,103.788,10,133.639,10,170.463v14.008h176v-14.008
		C186,133.639,156.149,103.788,119.325,103.788z"/>
	<path id="XMLID_2116_" style="fill:#FFCB97;" d="M98,10L98,10c-22.091,0-40,17.909-40,40v13.788c0,22.091,17.909,40,40,40h0
		c22.091,0,40-17.909,40-40V50C138,27.909,120.091,10,98,10z"/>
	<path id="XMLID_1614_" style="fill:#7D91FF;" d="M277.325,421.317h-42.65c-36.824,0-66.675,29.851-66.675,66.675V502h176v-14.008
		C344,451.168,314.149,421.317,277.325,421.317z"/>
	<path id="XMLID_1613_" style="fill:#FFCB97;" d="M256,327.529L256,327.529c-22.091,0-40,17.909-40,40v13.788
		c0,22.091,17.909,40,40,40h0c22.091,0,40-17.909,40-40v-13.788C296,345.438,278.091,327.529,256,327.529z"/>
	<path id="XMLID_1543_" style="fill:#9BE3FF;" d="M435.325,103.788h-42.65c-36.824,0-66.675,29.851-66.675,66.675v14.008h176
		v-14.008C502,133.639,472.149,103.788,435.325,103.788z"/>
	<g id="XMLID_1382_">
		<path id="XMLID_1383_" style="fill:#FF5D5D;" d="M304.835,221.986c0-26.977-21.874-48.845-48.853-48.835
			c-26.768,0.009-48.291,21.105-48.809,47.868c-0.388,20.052,11.315,37.413,28.309,45.292l2.093,21.97
			c0.417,4.376,4.092,7.718,8.489,7.718h19.858c4.402,0,8.08-3.35,8.49-7.733l1.945-20.798c0.1-0.723,0.559-1.339,1.214-1.662
			C293.723,257.842,304.835,241.213,304.835,221.986z"/>
	</g>
	<g id="XMLID_282_">
		<path id="XMLID_520_" d="M196,184.471v-14.009c0-36.398-25.502-66.932-59.571-74.728C143.649,87.065,148,75.926,148,63.788V50
			c0-27.57-22.43-50-50-50S48,22.43,48,50v13.788c0,12.138,4.351,23.277,11.571,31.947C25.502,103.53,0,134.064,0,170.462v14.009
			c0,5.523,4.477,10,10,10h176C191.523,194.471,196,189.994,196,184.471z M68,50c0-16.542,13.458-30,30-30s30,13.458,30,30v13.788
			c0,16.542-13.458,30-30,30s-30-13.458-30-30V50z M176,174.471H20v-4.009c0-31.25,25.424-56.675,56.675-56.675H88v31.962
			c0,5.523,4.477,10,10,10s10-4.477,10-10v-31.962h11.325c31.25,0,56.675,25.424,56.675,56.675V174.471z"/>
		<path id="XMLID_542_" d="M294.429,413.263c7.22-8.67,11.571-19.809,11.571-31.947v-13.787c0-27.57-22.43-50-50-50s-50,22.43-50,50
			v13.787c0,12.138,4.351,23.277,11.571,31.947C183.502,421.059,158,451.593,158,487.991V502c0,5.522,4.477,10,10,10h176
			c5.523,0,10-4.478,10-10v-14.009C354,451.593,328.498,421.059,294.429,413.263z M226,367.529c0-16.542,13.458-30,30-30
			s30,13.458,30,30v13.787c0,16.542-13.458,30-30,30s-30-13.458-30-30V367.529z M334,492H178v-4.009
			c0-31.251,25.424-56.675,56.675-56.675h42.65c31.25,0,56.675,25.424,56.675,56.675V492z"/>
		<path id="XMLID_546_" d="M452.429,95.735C459.649,87.065,464,75.926,464,63.788V50c0-27.57-22.43-50-50-50s-50,22.43-50,50v13.788
			c0,12.138,4.351,23.277,11.571,31.947C341.502,103.53,316,134.064,316,170.462v14.009c0,5.523,4.477,10,10,10h176
			c5.523,0,10-4.477,10-10v-14.009C512,134.064,486.498,103.53,452.429,95.735z M384,50c0-16.542,13.458-30,30-30s30,13.458,30,30
			v13.788c0,16.542-13.458,30-30,30s-30-13.458-30-30V50z M492,174.471H336v-4.009c0-31.25,25.424-56.675,56.675-56.675H404v31.962
			c0,5.523,4.477,10,10,10s10-4.477,10-10v-31.962h11.325c31.25,0,56.675,25.424,56.675,56.675V174.471z"/>
		<path id="XMLID_548_" d="M295.064,143.443l10.856-10.856c3.905-3.905,3.905-10.237,0-14.143c-3.905-3.905-10.237-3.905-14.143,0
			L280.922,129.3c-3.905,3.905-3.905,10.237,0,14.143c1.953,1.953,4.512,2.929,7.071,2.929S293.112,145.396,295.064,143.443z"/>
		<path id="XMLID_549_" d="M224.007,146.372c2.559,0,5.119-0.976,7.071-2.929c3.905-3.905,3.905-10.237,0-14.143l-10.856-10.856
			c-3.905-3.905-10.237-3.905-14.143,0c-3.905,3.905-3.905,10.237,0,14.143l10.856,10.856
			C218.888,145.396,221.448,146.372,224.007,146.372z"/>
		<path id="XMLID_550_" d="M266,124.082V86.399c0-5.523-4.477-10-10-10s-10,4.477-10,10v37.682c0,5.523,4.477,10,10,10
			S266,129.604,266,124.082z"/>
		<path id="XMLID_838_" d="M226.04,272.629l1.581,16.601c0.911,9.561,8.84,16.771,18.444,16.771h19.858
			c9.621,0,17.551-7.224,18.446-16.802l1.547-16.539c17.947-10.563,28.92-29.596,28.92-50.673c0-15.719-6.123-30.496-17.24-41.609
			c-11.112-11.109-25.884-17.226-41.596-17.226c-0.007,0-0.014,0-0.021,0c-32.349,0.011-58.178,25.345-58.803,57.675
			C196.764,242.167,207.93,261.907,226.04,272.629z M247.404,286l-0.923-9.688h19.006L264.581,286H247.404z M255.986,183.151
			c0.005,0,0.009,0,0.014,0c10.371,0,20.122,4.038,27.457,11.37c7.338,7.335,11.379,17.089,11.379,27.465
			c0,14.526-7.912,27.564-20.706,34.325h-36.263c-12.91-6.831-20.979-20.379-20.695-35.099
			C217.584,199.877,234.634,183.159,255.986,183.151z"/>
		<path id="XMLID_840_" d="M204.395,60h103.211c5.523,0,10-4.477,10-10s-4.477-10-10-10H204.395c-5.523,0-10,4.477-10,10
			S198.872,60,204.395,60z"/>
		<path id="XMLID_841_" d="M424.545,286.761c-5.102-2.109-10.952,0.311-13.065,5.412l-36.455,88.01
			c-2.113,5.103,0.31,10.952,5.412,13.066c1.251,0.518,2.547,0.764,3.823,0.764c3.924,0,7.647-2.325,9.243-6.176l36.455-88.01
			C432.071,294.725,429.647,288.875,424.545,286.761z"/>
		<path id="XMLID_855_" d="M437.34,245.87c-2.63,0-5.21,1.07-7.07,2.93c-1.86,1.86-2.93,4.44-2.93,7.07c0,2.63,1.07,5.21,2.93,7.07
			c1.86,1.87,4.44,2.931,7.07,2.931s5.21-1.061,7.07-2.931c1.86-1.859,2.93-4.439,2.93-7.07c0-2.63-1.07-5.21-2.93-7.07
			C442.55,246.94,439.97,245.87,437.34,245.87z"/>
		<path id="XMLID_857_" d="M127.74,374.01c-2.64,0-5.22,1.07-7.07,2.93c-1.87,1.86-2.93,4.44-2.93,7.07s1.06,5.21,2.93,7.07
			c1.86,1.859,4.43,2.93,7.07,2.93c2.63,0,5.21-1.07,7.07-2.93c1.86-1.86,2.93-4.44,2.93-7.07s-1.07-5.21-2.93-7.07
			C132.95,375.08,130.37,374.01,127.74,374.01z"/>
		<path id="XMLID_858_" d="M123.007,346.461l-39.108-94.415c-2.113-5.103-7.963-7.528-13.065-5.412
			c-5.103,2.113-7.525,7.963-5.412,13.066l39.108,94.415c1.595,3.851,5.318,6.176,9.243,6.176c1.275,0,2.572-0.246,3.823-0.764
			C122.697,357.413,125.121,351.563,123.007,346.461z"/>
	</g>
</g>
<g>
</g>
<g>
</g>
<g>
</g>
<g>
</g>
<g>
</g>
<g>
</g>
<g>
</g>
<g>
</g>
<g>
</g>
<g>
</g>
<g>
</g>
<g>
</g>
<g>
</g>
<g>
</g>
<g>
</g>
</svg>
