<?xml version="1.0" encoding="iso-8859-1"?>
<!-- Generator: Adobe Illustrator 19.0.0, SVG Export Plug-In . SVG Version: 6.00 Build 0)  -->
<svg version="1.1" id="Layer_1" xmlns="http://www.w3.org/2000/svg" xmlns:xlink="http://www.w3.org/1999/xlink" x="0px" y="0px"
	 viewBox="0 0 512.975 512.975" style="enable-background:new 0 0 512.975 512.975;" xml:space="preserve">
<g id="XMLID_830_">
	<path id="XMLID_1042_" style="fill-rule:evenodd;clip-rule:evenodd;fill:#5A54E0;" d="M217.114,388.987
		c0-5.088-0.417-10.078-1.208-14.942l23.376-13.496l-32.692-56.624l-23.383,13.5c-7.688-6.3-16.411-11.381-25.874-14.958v-26.98
		H91.95v26.98c-9.462,3.577-18.185,8.659-25.874,14.958l-23.383-13.5l-32.692,56.624l23.376,13.496
		c-0.79,4.865-1.208,9.854-1.208,14.942c0,5.088,0.417,10.078,1.208,14.942l-23.376,13.496l32.692,56.624l23.383-13.5
		c7.688,6.3,16.411,11.381,25.874,14.958v26.98h65.383v-26.98c9.462-3.577,18.185-8.659,25.874-14.958l23.383,13.5l32.692-56.624
		l-23.376-13.496C216.696,399.065,217.114,394.075,217.114,388.987z"/>
	<path id="XMLID_1037_" style="fill-rule:evenodd;clip-rule:evenodd;fill:#FFFFFF;" d="M124.642,436.987c-26.51,0-48-21.49-48-48
		s21.49-48,48-48s48,21.49,48,48S151.151,436.987,124.642,436.987z"/>
	<g id="XMLID_1036_">
		<g id="XMLID_1049_">
			<g id="XMLID_1582_">
				<path id="XMLID_1593_" style="fill:#FFC66C;" d="M381.203,217.409c0-84.456-68.465-152.922-152.922-152.922
					S75.36,132.953,75.36,217.409c0,64.983,40.537,120.492,97.7,142.638v0.001h110.443v-0.001
					C340.666,337.901,381.203,282.393,381.203,217.409z"/>
				<path id="XMLID_1588_" style="fill:#9BE3FF;" d="M285.799,404.048H170.764c-12.15,0-22-9.85-22-22v0c0-12.15,9.85-22,22-22
					h115.035c12.15,0,22,9.85,22,22v0C307.799,394.199,297.949,404.048,285.799,404.048z"/>
				<path id="XMLID_1587_" style="fill:#9BE3FF;" d="M250.489,502.487h-44.415c-17.235,0-31.207-13.972-31.207-31.207v-23.232
					h106.829v23.232C281.696,488.515,267.724,502.487,250.489,502.487z"/>
				<path id="XMLID_796_" style="fill:#9BE3FF;" d="M285.799,448.048H170.764c-12.15,0-22-9.85-22-22v0c0-12.15,9.85-22,22-22
					h115.035c12.15,0,22,9.85,22,22v0C307.799,438.199,297.949,448.048,285.799,448.048z"/>
			</g>
			<circle id="XMLID_975_" style="fill:#FFFFFF;" cx="228.281" cy="254.614" r="22"/>
		</g>
		<g id="XMLID_2012_">
			<path id="XMLID_2030_" style="fill:#FFFFFF;" d="M502.975,86.286c0,1.418-57.315,75.798-128,75.798s-128-74.855-128-75.798
				c0-1.417,57.315-75.798,128-75.798S502.975,85.343,502.975,86.286z"/>
			<circle id="XMLID_2029_" style="fill:#9BE3FF;" cx="374.975" cy="86.286" r="41.6"/>
			<g id="XMLID_535_">
				<path id="XMLID_536_" d="M90.83,149.564c1.578,0.914,3.3,1.347,5.001,1.347c3.452,0,6.81-1.789,8.664-4.991l0.531-0.91
					c2.801-4.76,1.213-10.889-3.546-13.69c-4.759-2.801-10.889-1.214-13.69,3.546l-0.603,1.033
					C84.419,140.679,86.05,146.797,90.83,149.564z"/>
				<path id="XMLID_589_" d="M280.492,212.465l15.317-15.317c3.905-3.905,3.905-10.237,0-14.143c-3.905-3.905-10.237-3.905-14.143,0
					l-15.317,15.317c-3.905,3.905-3.905,10.237,0,14.143c1.953,1.953,4.512,2.929,7.071,2.929S278.539,214.417,280.492,212.465z"/>
				<path id="XMLID_590_" d="M183.142,215.393c2.559,0,5.119-0.976,7.071-2.929c3.905-3.905,3.905-10.237,0-14.143l-15.317-15.317
					c-3.905-3.905-10.237-3.905-14.143,0c-3.905,3.905-3.905,10.237,0,14.143l15.317,15.317
					C178.024,214.417,180.583,215.393,183.142,215.393z"/>
				<path id="XMLID_591_" d="M238.282,188.053v-53.166c0-5.523-4.477-10-10-10s-10,4.477-10,10v53.166c0,5.523,4.477,10,10,10
					S238.282,193.576,238.282,188.053z"/>
				<path id="XMLID_594_" d="M500.326,67.33c-6.051-6.679-15.914-16.795-28.536-27.057c-22.326-18.15-57.246-39.786-96.815-39.786
					c-39.623,0-74.512,21.534-96.803,39.599c-7.473,6.056-13.942,12.036-19.234,17.293c-10.045-1.912-20.35-2.892-30.656-2.892
					c-42.16,0-82.151,16.045-112.606,45.179c-3.991,3.818-4.131,10.148-0.313,14.139c1.964,2.054,4.593,3.088,7.228,3.087
					c2.484,0,4.974-0.921,6.911-2.774c26.715-25.556,61.797-39.631,98.781-39.631c4.799,0,9.597,0.242,14.36,0.717
					c-5.659,6.986-5.666,8.794-5.666,11.082c0,3.007,0,4.993,12.649,18.956c6.051,6.679,15.914,16.795,28.536,27.057
					c20.173,16.4,50.628,35.64,85.503,39.2c5,14.739,7.54,30.158,7.54,45.911c0,57.964-35.934,111.03-89.603,132.639l-43.319,0
					v-65.042c12.761-4.21,22-16.239,22-30.391c0-17.645-14.355-32-32-32s-32,14.355-32,32c0,14.153,9.239,26.181,22,30.391v65.042
					l-43.319,0c-28.552-11.496-53.013-32.287-69.02-58.709c-13.465-22.228-20.583-47.792-20.583-73.929
					c0-11.904,1.465-23.733,4.354-35.159c1.354-5.354-1.889-10.792-7.243-12.146c-5.357-1.353-10.793,1.889-12.146,7.243
					c-3.294,13.027-4.964,26.506-4.964,40.062c0,24.952,5.716,49.443,16.59,71.641v6.762c-5.837,2.677-11.403,5.895-16.642,9.622
					l-17.614-10.169c-4.783-2.761-10.898-1.122-13.66,3.66L1.342,355.549c-2.762,4.783-1.123,10.898,3.66,13.66l17.618,10.172
					c-0.299,3.198-0.45,6.411-0.45,9.606s0.151,6.408,0.45,9.606L5.002,408.766c-4.783,2.762-6.422,8.877-3.66,13.66l32.692,56.623
					c2.761,4.782,8.876,6.421,13.66,3.66l17.614-10.169c5.239,3.728,10.805,6.945,16.642,9.622v20.325c0,5.522,4.477,10,10,10
					h65.383c5.523,0,10-4.478,10-10v-17.165c5.755,15.828,20.948,27.165,38.741,27.165h44.415c22.722,0,41.208-18.485,41.208-41.207
					v-13.786c14.836-2.777,26.103-15.817,26.103-31.446c0-8.516-3.351-16.26-8.795-22c5.444-5.74,8.795-13.484,8.795-22
					c0-8.869-3.629-16.905-9.477-22.706c21.222-11.961,39.522-28.55,53.669-48.828c19.111-27.394,29.212-59.588,29.212-93.104
					c0-15.623-2.198-30.964-6.526-45.764c35.588-3.104,66.649-22.585,87.101-39.159c12.712-10.302,22.547-20.399,28.559-27.056
					c12.639-13.994,12.639-16.154,12.639-19.144C512.975,83.279,512.975,81.293,500.326,67.33z M228.282,242.614
					c6.617,0,12,5.383,12,12c0,6.617-5.383,12-12,12s-12-5.383-12-12C216.282,247.998,221.665,242.614,228.282,242.614z
					 M285.799,394.048H170.764c-6.617,0-12-5.383-12-12s5.383-12,12-12h115.035c6.617,0,12,5.383,12,12
					S292.415,394.048,285.799,394.048z M124.641,350.987c3.002,0,5.988,0.35,8.875,1.04c1.128,0.269,2.255,0.325,3.346,0.212
					c3.698,2.516,7.5,4.881,11.394,7.086c-5.858,5.803-9.494,13.845-9.494,22.722c0,8.516,3.351,16.26,8.795,22
					c-5.057,5.331-8.305,12.392-8.741,20.196c-4.481,1.797-9.307,2.744-14.177,2.744c-20.953,0-38-17.047-38-38
					S103.688,350.987,124.641,350.987z M153.796,466.154c-3.889,1.471-6.462,5.195-6.462,9.354v16.979H101.95v-16.979
					c0-4.158-2.573-7.883-6.463-9.354c-8.37-3.165-16.132-7.653-23.072-13.34c-3.22-2.64-7.736-3.008-11.338-0.926l-14.723,8.5
					l-22.692-39.303l14.715-8.496c3.598-2.077,5.537-6.163,4.871-10.265c-0.716-4.403-1.079-8.891-1.079-13.338
					s0.363-8.935,1.079-13.338c0.667-4.102-1.272-8.188-4.871-10.265l-14.715-8.496l22.692-39.303l14.723,8.5
					c3.604,2.081,8.119,1.714,11.338-0.926c6.94-5.687,14.703-10.175,23.072-13.34c0.006-0.002,0.011-0.005,0.017-0.007
					c5.188,7.271,10.962,14.096,17.242,20.406c-26.294,5.503-46.104,28.863-46.104,56.768c0,31.981,26.019,58,58,58
					c6.626,0,13.209-1.142,19.416-3.34c4.695,7.101,12.141,12.225,20.81,13.847v3.486
					C161.307,462.972,157.6,464.716,153.796,466.154z M271.696,471.28c0,11.693-9.514,21.207-21.208,21.207h-44.415
					c-11.694,0-21.208-9.514-21.208-21.207v-13.232h86.83V471.28z M285.799,438.048h-4.103h-106.83h-4.103c-6.617,0-12-5.383-12-12
					s5.383-12,12-12h115.035c6.617,0,12,5.383,12,12S292.415,438.048,285.799,438.048z M374.975,152.084
					c-55.049,0-101.779-49.847-115.439-66c14.44-17.497,62.278-65.596,115.439-65.596c55.049,0,101.779,49.847,115.439,66.001
					C475.974,103.985,428.139,152.084,374.975,152.084z"/>
				<path id="XMLID_890_" d="M374.975,34.686c-28.453,0-51.6,23.147-51.6,51.6s23.147,51.6,51.6,51.6s51.6-23.147,51.6-51.6
					S403.428,34.686,374.975,34.686z M374.975,117.886c-17.424,0-31.6-14.176-31.6-31.6s14.176-31.6,31.6-31.6
					s31.6,14.176,31.6,31.6S392.399,117.886,374.975,117.886z"/>
			</g>
		</g>
	</g>
</g>
<g>
</g>
<g>
</g>
<g>
</g>
<g>
</g>
<g>
</g>
<g>
</g>
<g>
</g>
<g>
</g>
<g>
</g>
<g>
</g>
<g>
</g>
<g>
</g>
<g>
</g>
<g>
</g>
<g>
</g>
</svg>
