<?xml version="1.0" encoding="iso-8859-1"?>
<!-- Generator: Adobe Illustrator 19.0.0, SVG Export Plug-In . SVG Version: 6.00 Build 0)  -->
<svg version="1.1" id="Layer_1" xmlns="http://www.w3.org/2000/svg" xmlns:xlink="http://www.w3.org/1999/xlink" x="0px" y="0px"
	 viewBox="0 0 512.001 512.001" style="enable-background:new 0 0 512.001 512.001;" xml:space="preserve">
<g id="XMLID_2314_">
	<path id="XMLID_1858_" style="fill:#ADE5FF;" d="M410.5,56.001h79.167c6.812,0,12.333,5.522,12.333,12.333v47.333
		c0,6.812-5.522,12.333-12.333,12.333h-122.72c-15.14,0-29.463,6.865-38.947,18.667l0,0v-8.167
		C328,92.937,364.937,56.001,410.5,56.001z"/>
	<path id="XMLID_1857_" style="fill:#FFB954;" d="M448,128.001v274.333c0,9.573-7.76,17.333-17.333,17.333h-29.333
		c-9.573,0-17.333-7.76-17.333-17.333V128.001H448z"/>
	<path id="XMLID_1856_" style="fill:#FFB954;" d="M391.189,56.001V32.323c0-6.621,5.368-11.989,11.989-11.989h25.645
		c6.621,0,11.989,5.368,11.989,11.989v23.678H391.189z"/>
	<path id="XMLID_1852_" style="fill:#9BE3FF;" d="M10,10.001v492h312L10,10.001z M70,215.23l142.904,225.349H70V215.23z"/>
	<g id="XMLID_1836_">
		<path id="XMLID_1842_" style="fill:#FFC66C;" d="M288,80.668v298.333c0,17.673-14.327,32-32,32h0c-17.673,0-32-14.327-32-32
			V80.668l32-70.667L288,80.668z"/>
		<polygon id="XMLID_1841_" style="fill:#FEDA9B;" points="224,80.668 288,80.668 256,10.001 		"/>
		<path id="XMLID_1840_" style="fill:#FF5D5D;" d="M224,357.001v22c0,17.673,14.327,32,32,32l0,0c17.673,0,32-14.327,32-32v-22H224z
			"/>
	</g>
	<g id="XMLID_575_">
		<path id="XMLID_611_" d="M278.368,414.523C290.152,407.077,298,393.942,298,379.001V80.667c0-1.423-0.304-2.829-0.891-4.125
			l-32-70.667c-1.62-3.577-5.183-5.875-9.109-5.875c-3.927,0-7.49,2.298-9.109,5.875l-32,70.667
			c-0.587,1.296-0.891,2.702-0.891,4.125V313.02l-56.833-89.622c-2.959-4.665-9.137-6.047-13.801-3.09
			c-4.664,2.958-6.047,9.137-3.09,13.801L214,350.367v28.634c0,23.159,18.841,42,42,42c0.992,0,1.973-0.047,2.949-0.115
			c0.232,0.6,0.524,1.187,0.881,1.751l43.987,69.364H20v-41.422h13c5.523,0,10-4.478,10-10s-4.477-10-10-10H20v-25.688h0.733
			c5.523,0,10-4.478,10-10s-4.477-10-10-10H20v-25.705h13c5.523,0,10-4.478,10-10s-4.477-10-10-10H20v-25.688h0.733
			c5.523,0,10-4.478,10-10s-4.477-10-10-10H20v-25.688h13c5.523,0,10-4.478,10-10c0-5.523-4.477-10-10-10H20v-25.688h0.733
			c5.523,0,10-4.477,10-10s-4.477-10-10-10H20v-25.688h12.993c5.523,0,10-4.477,10-10s-4.477-10-10-10H20v-25.688h0.733
			c5.523,0,10-4.477,10-10s-4.477-10-10-10H20V44.443l78.46,123.727c2.958,4.665,9.137,6.047,13.801,3.09
			c4.664-2.958,6.047-9.137,3.089-13.801L18.446,4.645c-2.383-3.758-6.962-5.488-11.233-4.248C2.939,1.638,0,5.552,0,10.001v492
			c0,5.522,4.477,10,10,10h312c3.647,0,7.005-1.985,8.762-5.181c1.757-3.196,1.636-7.095-0.317-10.175L278.368,414.523z M278,90.667
			v256.333h-44V90.667H278z M256,34.243l16.494,36.425h-32.988L256,34.243z M234,379.001v-12h44v12c0,12.131-9.869,22-22,22
			C243.87,401.001,234,391.132,234,379.001z"/>
		<path id="XMLID_614_" d="M128.75,207.251c2.63,0,5.2-1.07,7.07-2.93c1.86-1.86,2.92-4.44,2.92-7.07c0-2.63-1.06-5.21-2.92-7.07
			c-1.87-1.86-4.44-2.93-7.07-2.93c-2.64,0-5.22,1.07-7.08,2.93c-1.86,1.86-2.93,4.44-2.93,7.07c0,2.63,1.07,5.21,2.93,7.07
			S126.11,207.251,128.75,207.251z"/>
		<path id="XMLID_617_" d="M67.212,205.627C62.939,206.868,60,210.781,60,215.23v225.349c0,5.522,4.477,10,10,10h142.904
			c3.647,0,7.005-1.985,8.762-5.181c1.757-3.196,1.636-7.095-0.317-10.175L78.446,209.875
			C76.063,206.117,71.483,204.386,67.212,205.627z M80,249.672l114.722,180.907H80V249.672z"/>
		<path id="XMLID_618_" d="M448,236.001c-2.63,0-5.21,1.07-7.07,2.93c-1.86,1.86-2.93,4.44-2.93,7.07c0,2.63,1.07,5.21,2.93,7.07
			c1.86,1.86,4.44,2.93,7.07,2.93c2.63,0,5.21-1.07,7.07-2.93s2.93-4.44,2.93-7.07c0-2.63-1.07-5.21-2.93-7.07
			C453.21,237.071,450.63,236.001,448,236.001z"/>
		<path id="XMLID_621_" d="M489.667,46.001h-38.855V32.323c0-12.125-9.864-21.989-21.989-21.989h-25.645
			c-12.125,0-21.989,9.864-21.989,21.989v18.44C344.507,63.05,318,97.737,318,138.501v8.167c0,4.243,2.678,8.024,6.68,9.433
			c1.088,0.383,2.209,0.568,3.318,0.568c2.973,0,5.862-1.328,7.797-3.737c7.625-9.488,18.979-14.93,31.152-14.93H374v264.333
			c0,15.072,12.262,27.334,27.333,27.334h29.333c15.072,0,27.333-12.262,27.333-27.334V288.108c0-5.522-4.477-10-10-10
			s-10,4.478-10,10v114.226c0,4.044-3.29,7.334-7.333,7.334h-29.333c-4.043,0-7.333-3.29-7.333-7.334V138.001h44v70
			c0,5.523,4.477,10,10,10s10-4.477,10-10v-70h31.667c12.315,0,22.333-10.019,22.333-22.333V68.334
			C512,56.019,501.982,46.001,489.667,46.001z M401.189,32.323c0-1.097,0.893-1.989,1.989-1.989h25.645
			c1.097,0,1.989,0.892,1.989,1.989v13.678H410.5c-3.143,0-6.249,0.159-9.312,0.467V32.323z M492,115.667
			c0,1.287-1.047,2.333-2.333,2.333h-122.72c-9.787,0-19.222,2.345-27.631,6.711c6.458-33.404,35.922-58.711,71.185-58.711h79.167
			c1.287,0,2.333,1.047,2.333,2.333V115.667z"/>
	</g>
</g>
<g>
</g>
<g>
</g>
<g>
</g>
<g>
</g>
<g>
</g>
<g>
</g>
<g>
</g>
<g>
</g>
<g>
</g>
<g>
</g>
<g>
</g>
<g>
</g>
<g>
</g>
<g>
</g>
<g>
</g>
</svg>
