<?xml version="1.0" encoding="iso-8859-1"?>
<!-- Generator: Adobe Illustrator 19.0.0, SVG Export Plug-In . SVG Version: 6.00 Build 0)  -->
<svg version="1.1" id="Layer_1" xmlns="http://www.w3.org/2000/svg" xmlns:xlink="http://www.w3.org/1999/xlink" x="0px" y="0px"
	 viewBox="0 0 512 512" style="enable-background:new 0 0 512 512;" xml:space="preserve">
<g id="XMLID_2583_">
	<circle id="XMLID_895_" style="fill:#4DBAF6;" cx="475" cy="64" r="24"/>
	<circle id="XMLID_894_" style="fill:#FF5D5D;" cx="324.167" cy="64" r="24"/>
	<circle id="XMLID_893_" style="fill:#FFB954;" cx="37" cy="64" r="24"/>
	<circle id="XMLID_892_" style="fill:#9BE3FF;" cx="160" cy="448" r="24"/>
	<circle id="XMLID_891_" style="fill:#FEDA9B;" cx="420.167" cy="448" r="24"/>
	<rect id="XMLID_1997_" x="10" y="208" style="fill:#FFB954;" width="492" height="96"/>
	<rect id="XMLID_2013_" x="64" y="208" style="fill:#9BE3FF;" width="192" height="96"/>
	<rect id="XMLID_2064_" x="256" y="208" style="fill:#FF5D5D;" width="136.333" height="96"/>
	<rect id="XMLID_2091_" x="392.333" y="208" style="fill:#FEDA9B;" width="55.667" height="96"/>
	<rect id="XMLID_2093_" x="448" y="208" style="fill:#4DBAF6;" width="54" height="96"/>
	<g id="XMLID_597_">
		<path id="XMLID_598_" d="M146.33,218c2.64,0,5.21-1.07,7.069-2.93c1.87-1.86,2.931-4.44,2.931-7.07c0-2.63-1.061-5.21-2.931-7.07
			c-1.859-1.86-4.439-2.93-7.069-2.93s-5.21,1.07-7.07,2.93c-1.86,1.86-2.93,4.44-2.93,7.07c0,2.63,1.069,5.21,2.93,7.07
			S143.7,218,146.33,218z"/>
		<path id="XMLID_640_" d="M502,198h-17V96.497c13.883-4.281,24-17.229,24-32.497c0-18.748-15.252-34-34-34s-34,15.252-34,34
			c0,15.269,10.117,28.217,24,32.497V198H334.167V96.497c13.883-4.281,24-17.229,24-32.497c0-18.748-15.252-34-34-34
			s-34,15.252-34,34c0,15.269,10.117,28.217,24,32.497V198H187c-5.522,0-10,4.477-10,10s4.478,10,10,10h59.127v76H74v-76h31.667
			c5.522,0,10-4.477,10-10s-4.478-10-10-10H47V96.497C60.883,92.217,71,79.269,71,64c0-18.748-15.252-34-34-34S3,45.252,3,64
			c0,15.269,10.117,28.217,24,32.497V198H10c-5.522,0-10,4.477-10,10v96c0,5.522,4.478,10,10,10h140v101.503
			c-13.883,4.28-24,17.228-24,32.497c0,18.748,15.252,34,34,34s34-15.252,34-34c0-15.269-10.117-28.217-24-32.497V314h332
			c5.522,0,10-4.478,10-10v-96C512,202.477,507.522,198,502,198z M475,50c7.72,0,14,6.28,14,14s-6.28,14-14,14s-14-6.28-14-14
			S467.28,50,475,50z M324.167,50c7.72,0,14,6.28,14,14s-6.28,14-14,14s-14-6.28-14-14S316.447,50,324.167,50z M37,50
			c7.72,0,14,6.28,14,14s-6.28,14-14,14s-14-6.28-14-14S29.28,50,37,50z M160,462c-7.72,0-14-6.28-14-14s6.28-14,14-14
			s14,6.28,14,14S167.72,462,160,462z M438,218v76h-35.667v-76H438z M266.127,218h116.206v76H266.127V218z M20,218h34v76H20V218z
			 M492,294h-34v-76h34V294z"/>
		<path id="XMLID_866_" d="M430.167,415.503V384c0-5.522-4.478-10-10-10s-10,4.478-10,10v31.503c-13.883,4.28-24,17.228-24,32.497
			c0,18.748,15.252,34,34,34s34-15.252,34-34C454.167,432.731,444.05,419.783,430.167,415.503z M420.167,462c-7.72,0-14-6.28-14-14
			s6.28-14,14-14s14,6.28,14,14S427.887,462,420.167,462z"/>
		<path id="XMLID_904_" d="M420.17,354.33c2.63,0,5.21-1.061,7.07-2.931c1.859-1.859,2.93-4.439,2.93-7.069s-1.07-5.2-2.93-7.07
			c-1.86-1.86-4.44-2.93-7.07-2.93c-2.64,0-5.21,1.069-7.07,2.93c-1.87,1.86-2.93,4.44-2.93,7.07c0,2.64,1.06,5.21,2.93,7.069
			C414.96,353.27,417.54,354.33,420.17,354.33z"/>
	</g>
</g>
<g>
</g>
<g>
</g>
<g>
</g>
<g>
</g>
<g>
</g>
<g>
</g>
<g>
</g>
<g>
</g>
<g>
</g>
<g>
</g>
<g>
</g>
<g>
</g>
<g>
</g>
<g>
</g>
<g>
</g>
</svg>
