<?xml version="1.0" encoding="iso-8859-1"?>
<!-- Generator: Adobe Illustrator 19.0.0, SVG Export Plug-In . SVG Version: 6.00 Build 0)  -->
<svg version="1.1" id="Layer_1" xmlns="http://www.w3.org/2000/svg" xmlns:xlink="http://www.w3.org/1999/xlink" x="0px" y="0px"
	 viewBox="0 0 512.002 512.002" style="enable-background:new 0 0 512.002 512.002;" xml:space="preserve">
<g id="XMLID_2652_">
	<path id="XMLID_1714_" style="fill:#FEDA9B;" d="M109.385,440.513c-33.987-6.207-61.541-33.777-66.109-69.876
		c-2.185-17.269,1.21-33.958,8.78-48.255l36.694,7.369c-43.492,0-78.75-35.258-78.75-78.75c0-35.523,23.52-65.553,55.838-75.365
		l12.146,9.721c-10.655-7.259-17.651-19.491-17.651-33.356c0-22.275,18.058-40.333,40.333-40.333c1.905,0,3.779,0.132,5.613,0.387
		l21.719,38.253c-13.466-14.897-21.666-34.645-21.666-56.308c0-46.392,37.608-84,84-84s84,37.608,84,84v324
		c0,46.392-37.608,84-84,84s-84-37.608-84-84s37.608-84,84-84L109.385,440.513z"/>
	<g id="XMLID_1470_">
		<path id="XMLID_1479_" style="fill:#4DBAF6;" d="M502,393.2v-47.398h-24.103c-2.85-13.068-7.995-25.278-15.002-36.18
			l17.055-17.055l-33.516-33.516l-17.055,17.055c-10.902-7.007-23.112-12.152-36.18-15.002v-24.103h-47.398v24.074
			c-13.086,2.837-25.315,7.973-36.234,14.978l-17.001-17.001l-33.516,33.516l16.973,16.973
			c-7.034,10.923-12.199,23.161-15.056,36.262H237V393.2h23.937c2.844,13.119,8.001,25.376,15.032,36.316l-16.918,16.918
			l33.516,33.516l16.918-16.918c10.94,7.031,23.197,12.188,36.316,15.032v23.937h47.398v-23.967
			c13.101-2.858,25.339-8.022,36.262-15.056l16.973,16.973l33.516-33.516l-17.001-17.001c7.004-10.919,12.141-23.148,14.978-36.234
			H502z"/>
		<circle id="XMLID_1478_" style="fill:#FFFFFF;" cx="369.432" cy="369.569" r="46.166"/>
	</g>
	<g id="XMLID_1556_">
		<path id="XMLID_1561_" style="fill:#FFFFFF;" d="M482.704,103.001c0-5.085-0.525-10.047-1.52-14.838L502,76.145l-22.683-39.288
			l-20.831,12.027c-7.365-6.587-16.082-11.692-25.685-14.848V10.001h-45.366v24.035c-9.603,3.157-18.319,8.261-25.685,14.848
			l-20.831-12.027l-22.683,39.288l20.817,12.018c-0.995,4.79-1.52,9.752-1.52,14.838c0,5.085,0.525,10.047,1.52,14.838
			l-20.817,12.018l22.683,39.288l20.831-12.027c7.365,6.587,16.082,11.692,25.685,14.849v24.035h45.366v-24.035
			c9.603-3.157,18.319-8.261,25.685-14.849l20.831,12.027L502,129.857l-20.817-12.018
			C482.178,113.048,482.704,108.086,482.704,103.001z"/>
		<path id="XMLID_1560_" style="fill:#B5EB7C;" d="M482.704,103.001c0-5.085-0.525-10.047-1.52-14.838L502,76.145l-22.683-39.288
			l-20.831,12.027c-7.365-6.587-16.082-11.692-25.685-14.848V10.001h-45.366v24.035c-9.603,3.157-18.319,8.261-25.685,14.848
			l-20.831-12.027l-22.683,39.288l20.817,12.018c-0.995,4.79-1.52,9.752-1.52,14.838c0,5.085,0.525,10.047,1.52,14.838
			l-20.817,12.018l22.683,39.288l20.831-12.027c7.365,6.587,16.082,11.692,25.685,14.849v24.035h45.366v-24.035
			c9.603-3.157,18.319-8.261,25.685-14.849l20.831,12.027L502,129.857l-20.817-12.018
			C482.178,113.048,482.704,108.086,482.704,103.001z"/>
		<circle id="XMLID_1559_" style="fill:#FFFFFF;" cx="410.118" cy="103.001" r="32.587"/>
	</g>
	<g id="XMLID_624_">
		<path id="XMLID_625_" d="M119.017,226.167c-27.386,0-49.666,22.28-49.666,49.666c0,5.522,4.478,10,10,10s10-4.478,10-10
			c0-16.358,13.309-29.666,29.666-29.666c16.358,0,29.667,13.308,29.667,29.666c0,5.522,4.478,10,10,10s10-4.478,10-10
			C168.684,248.448,146.403,226.167,119.017,226.167z"/>
		<path id="XMLID_661_" d="M502,335.802h-16.327c-2.48-8.566-5.894-16.799-10.205-24.61l11.553-11.553
			c3.905-3.905,3.905-10.237,0-14.143l-33.516-33.516c-3.906-3.905-10.236-3.905-14.143,0l-11.553,11.553
			c-7.812-4.312-16.044-7.725-24.61-10.205v-16.328c0-5.523-4.478-10-10-10h-47.398c-5.522,0-10,4.477-10,10v16.288
			c-8.585,2.474-16.834,5.884-24.66,10.196l-11.503-11.504c-3.906-3.905-10.236-3.905-14.143,0l-1.162,1.162V94.001
			c0-51.832-42.168-94-94-94s-94,42.168-94,94c0,2.628,0.125,5.241,0.341,7.839c-25.892,2.044-46.341,23.752-46.341,50.161
			c0,6.08,1.107,12.008,3.168,17.548c-14.012,6.099-26.453,15.845-35.69,28.113C6.159,213.137,0,231.581,0,251.001
			c0,30.848,15.824,58.067,39.778,73.977c-6.233,14.761-8.46,30.822-6.424,46.916c4.771,37.696,31.868,67.99,68.25,77.142
			c12.848,36.627,47.768,62.965,88.729,62.965c31.864,0,60.929-15.808,78.249-41.893l16.914,16.914
			c3.906,3.904,10.236,3.904,14.143,0l11.416-11.416c7.854,4.335,16.132,7.762,24.747,10.245v16.15c0,5.522,4.478,10,10,10h47.398
			c5.522,0,10-4.478,10-10v-16.19c8.598-2.489,16.859-5.92,24.698-10.255l11.465,11.466c3.906,3.904,10.236,3.904,14.143,0
			l33.516-33.516c3.905-3.905,3.905-10.237,0-14.143l-11.504-11.503c4.312-7.826,7.722-16.075,10.195-24.66H502
			c5.522,0,10-4.478,10-10v-47.398C512,340.279,507.522,335.802,502,335.802z M190.333,492.001c-40.804,0-74-33.196-74-74
			c0-38.825,30.061-70.739,68.127-73.746c1.804,9.803,6.51,18.826,13.709,26.026c1.953,1.952,4.512,2.929,7.071,2.929
			s5.119-0.977,7.071-2.929c3.905-3.906,3.905-10.237,0-14.143c-5.604-5.603-8.689-13.053-8.689-20.977
			c0-7.925,3.086-15.375,8.689-20.978c3.905-3.905,3.905-10.236,0-14.143c-3.904-3.903-10.234-3.904-14.143,0
			c-6.731,6.731-11.278,15.057-13.317,24.123c-49.29,2.849-88.519,43.844-88.519,93.836c0,2.84,0.134,5.65,0.382,8.427
			c-23.402-9.626-40.234-31.089-43.519-57.046c-1.528-12.074,0.011-24.121,4.444-35.263c9.686,3.637,20.168,5.633,31.11,5.633
			c5.522,0,10-4.478,10-10s-4.478-10-10-10c-37.909,0-68.75-30.841-68.75-68.75c0-28.914,17.607-54.168,44.274-64.261
			c2.425,2.54,5.115,4.86,8.081,6.88c1.723,1.174,3.682,1.737,5.621,1.737c3.196,0,6.338-1.53,8.273-4.371
			c3.109-4.564,1.93-10.785-2.635-13.895c-8.316-5.666-13.281-15.046-13.281-25.091c0-16.673,13.523-30.244,30.177-30.33
			c3.998,12.995,10.784,25.069,20.07,35.343c3.704,4.097,10.027,4.417,14.125,0.713c4.097-3.703,4.416-10.027,0.713-14.124
			c-12.308-13.615-19.085-31.231-19.085-49.602c0-40.804,33.196-74,74-74s74,33.196,74,74v69.524
			c-8.283-6.189-18.554-9.858-29.666-9.858c-27.387,0-49.667,22.281-49.667,49.667c0,5.523,4.478,10,10,10s10-4.477,10-10
			c0-16.358,13.309-29.667,29.667-29.667c16.357,0,29.666,13.309,29.666,29.667v69.808l-12.354,12.354
			c-3.905,3.905-3.905,10.237,0,14.143l11.466,11.465c-4.335,7.839-7.766,16.101-10.255,24.698H237c-5.522,0-10,4.478-10,10V393.2
			c0,5.522,4.478,10,10,10h16.15c2.483,8.615,5.91,16.894,10.245,24.747l-11.416,11.416c-3.905,3.905-3.905,10.237,0,14.143l2.1,2.1
			C240.783,478.172,216.779,492.001,190.333,492.001z M492,383.2h-14.073c-4.706,0-8.775,3.281-9.772,7.881
			c-2.548,11.747-7.131,22.834-13.623,32.953c-2.538,3.956-1.978,9.146,1.346,12.471l9.93,9.93l-19.373,19.373l-9.901-9.901
			c-3.33-3.328-8.528-3.885-12.485-1.336c-10.129,6.522-21.225,11.13-32.979,13.693c-4.594,1.002-7.869,5.068-7.869,9.771v13.967
			h-27.398v-13.937c0-4.706-3.281-8.775-7.881-9.772c-11.772-2.553-22.886-7.153-33.029-13.672
			c-3.954-2.545-9.151-1.985-12.478,1.341l-9.847,9.847l-19.373-19.373l9.847-9.847c3.326-3.326,3.885-8.521,1.341-12.478
			c-6.519-10.144-11.119-21.257-13.672-33.029c-0.997-4.6-5.066-7.881-9.772-7.881H247v-27.398h13.967
			c4.702,0,8.769-3.275,9.771-7.869c2.563-11.754,7.171-22.85,13.693-32.979c2.549-3.957,1.992-9.156-1.336-12.485l-9.901-9.901
			l19.373-19.373l9.93,9.93c3.324,3.322,8.513,3.883,12.471,1.346c10.119-6.492,21.206-11.075,32.953-13.623
			c4.6-0.997,7.881-5.066,7.881-9.772v-14.073h27.398v14.104c0,4.701,3.275,8.769,7.869,9.771
			c11.727,2.558,22.798,7.148,32.904,13.644c3.955,2.545,9.152,1.984,12.478-1.341l9.983-9.983l19.373,19.373l-9.983,9.983
			c-3.326,3.326-3.885,8.521-1.341,12.478c6.495,10.106,11.086,21.178,13.644,32.904c1.002,4.594,5.069,7.869,9.771,7.869H492V383.2
			z"/>
		<path id="XMLID_665_" d="M369.432,313.403c-30.97,0-56.166,25.196-56.166,56.166s25.196,56.166,56.166,56.166
			s56.166-25.196,56.166-56.166S400.401,313.403,369.432,313.403z M369.432,405.735c-19.942,0-36.166-16.224-36.166-36.166
			s16.224-36.166,36.166-36.166s36.166,16.224,36.166,36.166S389.374,405.735,369.432,405.735z"/>
		<path id="XMLID_668_" d="M309.576,134.857l22.683,39.288c2.762,4.782,8.875,6.423,13.66,3.66l14.854-8.576
			c5.174,3.868,10.744,7.089,16.662,9.634v17.137c0,5.523,4.478,10,10,10h45.365c5.522,0,10-4.477,10-10v-17.137
			c5.918-2.545,11.488-5.767,16.662-9.634l14.854,8.576c4.784,2.764,10.899,1.122,13.66-3.66l22.683-39.288
			c2.762-4.783,1.123-10.899-3.66-13.66l-14.854-8.576c0.371-3.188,0.558-6.404,0.558-9.62s-0.187-6.432-0.558-9.62L507,84.805
			c4.783-2.761,6.422-8.877,3.66-13.66l-22.683-39.288c-2.762-4.782-8.875-6.421-13.66-3.66l-14.854,8.576
			c-5.174-3.868-10.744-7.089-16.662-9.634V10.001c0-5.523-4.478-10-10-10h-45.365c-5.522,0-10,4.477-10,10v17.137
			c-5.918,2.545-11.488,5.767-16.662,9.634l-14.854-8.576c-4.784-2.764-10.899-1.122-13.66,3.66l-22.683,39.288
			c-2.762,4.783-1.123,10.899,3.66,13.66l14.854,8.576c-0.371,3.188-0.558,6.404-0.558,9.62s0.187,6.432,0.558,9.62l-14.854,8.576
			C308.453,123.958,306.814,130.074,309.576,134.857z M348.844,115.804c-0.87-4.186-1.311-8.493-1.311-12.803
			s0.44-8.618,1.311-12.803c0.878-4.225-1.054-8.537-4.791-10.694l-12.156-7.019l12.683-21.968l12.172,7.027
			c3.739,2.159,8.445,1.675,11.666-1.206c6.481-5.796,13.931-10.104,22.141-12.802c4.104-1.349,6.878-5.18,6.878-9.5V20.001h25.365
			v14.035c0,4.32,2.773,8.151,6.878,9.5c8.21,2.699,15.659,7.006,22.141,12.802c3.218,2.879,7.924,3.366,11.666,1.206l12.172-7.027
			l12.683,21.968l-12.156,7.019c-3.737,2.158-5.669,6.469-4.791,10.694c0.87,4.186,1.311,8.493,1.311,12.803
			s-0.44,8.618-1.311,12.803c-0.878,4.225,1.054,8.537,4.791,10.694l12.156,7.019l-12.683,21.968l-12.172-7.027
			c-3.739-2.159-8.446-1.675-11.666,1.206c-6.481,5.796-13.931,10.104-22.141,12.802c-4.104,1.349-6.878,5.18-6.878,9.5v14.035
			h-25.365v-14.035c0-4.32-2.773-8.151-6.878-9.5c-8.21-2.699-15.659-7.006-22.141-12.802c-3.22-2.879-7.925-3.367-11.666-1.206
			l-12.172,7.027l-12.683-21.968l12.156-7.019C347.79,124.341,349.722,120.029,348.844,115.804z"/>
		<path id="XMLID_932_" d="M410.118,145.588c23.482,0,42.587-19.104,42.587-42.587s-19.104-42.587-42.587-42.587
			s-42.587,19.104-42.587,42.587S386.636,145.588,410.118,145.588z M410.118,80.414c12.454,0,22.587,10.132,22.587,22.587
			s-10.133,22.587-22.587,22.587s-22.587-10.132-22.587-22.587S397.664,80.414,410.118,80.414z"/>
		<path id="XMLID_938_" d="M191.34,62.013c0.084,0,0.168-0.001,0.252-0.003c5.431-0.134,9.858-4.584,9.85-10.017
			c-0.007-4.577-3.049-8.391-7.296-9.595c-0.889-0.259-1.828-0.397-2.801-0.397c-5.48,0-10.038,4.412-10.097,9.893
			c-0.043,3.922,2.23,7.348,5.537,9.021C188.153,61.618,189.702,62.013,191.34,62.013z"/>
		<path id="XMLID_946_" d="M151.939,58.931c-8.774,9.601-13.606,22.056-13.606,35.07c0,5.523,4.478,10,10,10s10-4.477,10-10
			c0-8.009,2.973-15.672,8.37-21.578c3.726-4.077,3.441-10.402-0.636-14.128C161.991,54.569,155.665,54.854,151.939,58.931z"/>
	</g>
</g>
<g>
</g>
<g>
</g>
<g>
</g>
<g>
</g>
<g>
</g>
<g>
</g>
<g>
</g>
<g>
</g>
<g>
</g>
<g>
</g>
<g>
</g>
<g>
</g>
<g>
</g>
<g>
</g>
<g>
</g>
</svg>
