<?xml version="1.0" encoding="iso-8859-1"?>
<!-- Generator: Adobe Illustrator 19.0.0, SVG Export Plug-In . SVG Version: 6.00 Build 0)  -->
<svg version="1.1" id="Layer_1" xmlns="http://www.w3.org/2000/svg" xmlns:xlink="http://www.w3.org/1999/xlink" x="0px" y="0px"
	 viewBox="0 0 512 512" style="enable-background:new 0 0 512 512;" xml:space="preserve">
<g id="XMLID_1304_">
	<path id="XMLID_898_" style="fill:#C9F3FF;" d="M308,123.168H204c-13.255,0-24-10.745-24-24v0c0-13.255,10.745-24,24-24h104
		c13.255,0,24,10.745,24,24v0C332,112.423,321.255,123.168,308,123.168z"/>
	<path id="XMLID_888_" style="fill:#ADE5FF;" d="M304,197.536v-74.368h-96v74.368C145.332,217.783,100,276.593,100,346
		c0,86.156,69.844,156,156,156s156-69.844,156-156C412,276.593,366.668,217.783,304,197.536z"/>
	<path id="XMLID_1142_" style="fill:#FE8F8D;" d="M369,291.667c-22.874,0-42.333,14.586-49.607,34.961
		c-5.991-9.868-16.839-16.461-29.226-16.461c-14.586,0-27.03,9.143-31.932,22.008C253.19,317.528,239.298,307,222.938,307
		c-15.321,0-28.479,9.232-34.233,22.434C182.387,309.471,163.719,295,141.667,295c-13.623,0-25.956,5.522-34.884,14.449
		l-3.073,2.608C101.285,322.985,100,334.342,100,346c0,86.156,69.844,156,156,156s156-69.844,156-156
		c0-12.998-1.59-25.625-4.586-37.696C397.806,298.064,384.15,291.667,369,291.667z"/>
	<circle id="XMLID_1232_" style="fill:#FFFFFF;" cx="190.424" cy="391.568" r="22"/>
	<circle id="XMLID_1231_" style="fill:#FFFFFF;" cx="295.169" cy="424" r="24"/>
	<circle id="XMLID_1230_" style="fill:#FFFFFF;" cx="271.169" cy="236.127" r="20"/>
	<g id="XMLID_650_">
		<path id="XMLID_690_" d="M389.54,247.386c-19.346-26.15-45.352-45.732-75.54-56.96v-57.799c15.895-2.843,28-16.759,28-33.459
			c0-18.748-15.252-34-34-34h-90.215c-1.355-11.669-6.544-22.472-14.976-30.903c-3.906-3.905-10.238-3.905-14.143,0
			c-3.905,3.905-3.905,10.237,0,14.142c4.79,4.789,7.885,10.817,9.008,17.36C181.94,68.741,170,82.583,170,99.168
			c0,16.7,12.105,30.616,28,33.459v57.799c-30.188,11.228-56.194,30.81-75.54,56.96C101.225,276.092,90,310.192,90,346
			c0,91.532,74.468,166,166,166c42.713,0,83.291-16.188,114.259-45.58c4.006-3.802,4.171-10.131,0.369-14.137
			c-3.8-4.007-10.132-4.172-14.137-0.369C329.255,477.764,293.567,492,256,492c-80.505,0-146-65.495-146-146
			c0-9.739,0.958-19.295,2.789-28.569c0.369-0.278,0.729-0.575,1.065-0.912c7.428-7.429,17.306-11.52,27.813-11.52
			c17.235,0,32.308,11.032,37.504,27.451c1.258,3.974,4.85,6.751,9.012,6.969c4.147,0.207,8.024-2.17,9.689-5.99
			c4.351-9.98,14.188-16.43,25.065-16.43c11.66,0,22.046,7.407,25.843,18.432c1.371,3.979,5.086,6.674,9.294,6.742
			c0.054,0.001,0.108,0.001,0.162,0.001c4.143,0,7.865-2.558,9.344-6.439c3.548-9.312,12.625-15.568,22.587-15.568
			c8.52,0,16.249,4.354,20.678,11.649c2.002,3.297,5.72,5.161,9.56,4.759c3.838-0.39,7.109-2.953,8.406-6.586
			c6.047-16.94,22.198-28.322,40.189-28.322c11.073,0,21.397,4.14,29.348,11.702C400.742,323.905,402,334.832,402,346
			c0,14.537-2.128,28.888-6.326,42.653c-1.61,5.283,1.366,10.871,6.648,12.482c5.282,1.608,10.871-1.364,12.482-6.648
			C419.579,378.829,422,362.516,422,346C422,310.192,410.775,276.092,389.54,247.386z M190,99.168c0-7.72,6.28-14,14-14h104
			c7.72,0,14,6.28,14,14s-6.28,14-14,14H204C196.28,113.168,190,106.888,190,99.168z M369,281.667
			c-21.086,0-40.451,10.646-51.928,27.591c-7.574-5.834-16.944-9.091-26.905-9.091c-11.986,0-23.271,4.956-31.434,13.197
			C249.922,303.188,236.963,297,222.938,297c-12.433,0-24.082,4.865-32.73,13.14C179.326,294.629,161.44,285,141.667,285
			c-6.895,0-13.61,1.171-19.92,3.413c16.212-37.937,48.17-68.064,89.327-81.362c4.129-1.333,6.926-5.177,6.926-9.516v-64.368h76
			v64.368c0,4.338,2.797,8.182,6.926,9.516c39.87,12.881,71.108,41.555,87.762,77.824C382.383,282.783,375.739,281.667,369,281.667z
			"/>
		<path id="XMLID_695_" d="M396.148,415.352c-4.778-2.773-10.897-1.145-13.668,3.631l-0.223,0.383
			c-2.771,4.777-1.146,10.896,3.631,13.668c1.58,0.917,3.306,1.353,5.009,1.353c3.449,0,6.805-1.786,8.659-4.983l0.223-0.383
			C402.551,424.242,400.925,418.123,396.148,415.352z"/>
		<path id="XMLID_698_" d="M222.424,391.568c0-17.645-14.355-32-32-32s-32,14.355-32,32s14.355,32,32,32
			S222.424,409.213,222.424,391.568z M190.424,403.568c-6.617,0-12-5.383-12-12s5.383-12,12-12s12,5.383,12,12
			S197.041,403.568,190.424,403.568z"/>
		<path id="XMLID_958_" d="M295.169,390c-18.748,0-34,15.252-34,34s15.252,34,34,34s34-15.252,34-34S313.917,390,295.169,390z
			 M295.169,438c-7.72,0-14-6.28-14-14s6.28-14,14-14s14,6.28,14,14S302.889,438,295.169,438z"/>
		<path id="XMLID_1009_" d="M271.169,206.127c-16.542,0-30,13.458-30,30s13.458,30,30,30s30-13.458,30-30
			S287.711,206.127,271.169,206.127z M271.169,246.127c-5.514,0-10-4.486-10-10s4.486-10,10-10s10,4.486,10,10
			S276.683,246.127,271.169,246.127z"/>
		<path id="XMLID_1047_" d="M384,60c16.542,0,30-13.458,30-30S400.542,0,384,0s-30,13.458-30,30S367.458,60,384,60z M384,20
			c5.514,0,10,4.486,10,10s-4.486,10-10,10s-10-4.486-10-10S378.486,20,384,20z"/>
		<path id="XMLID_1052_" d="M136.224,60c16.542,0,30-13.458,30-30s-13.458-30-30-30s-30,13.458-30,30S119.682,60,136.224,60z
			 M136.224,20c5.514,0,10,4.486,10,10s-4.486,10-10,10s-10-4.486-10-10S130.71,20,136.224,20z"/>
		<path id="XMLID_1053_" d="M336.33,375.67c2.64,0,5.21-1.07,7.069-2.93c1.87-1.87,2.931-4.44,2.931-7.07
			c0-2.64-1.061-5.21-2.931-7.07c-1.859-1.87-4.43-2.93-7.069-2.93c-2.63,0-5.21,1.06-7.07,2.93c-1.86,1.86-2.93,4.431-2.93,7.07
			c0,2.63,1.069,5.21,2.93,7.07C331.12,374.6,333.7,375.67,336.33,375.67z"/>
		<path id="XMLID_1054_" d="M215.67,469c2.63,0,5.2-1.07,7.07-2.931c1.859-1.859,2.93-4.439,2.93-7.069s-1.07-5.21-2.93-7.07
			c-1.87-1.86-4.44-2.93-7.07-2.93c-2.64,0-5.21,1.069-7.07,2.93c-1.87,1.86-2.93,4.44-2.93,7.07s1.06,5.21,2.93,7.069
			C210.46,467.93,213.03,469,215.67,469z"/>
		<path id="XMLID_1062_" d="M131.26,340.6c-1.86,1.86-2.93,4.431-2.93,7.07c0,2.63,1.069,5.2,2.93,7.07
			c1.86,1.859,4.44,2.93,7.07,2.93s5.21-1.07,7.069-2.93c1.87-1.87,2.931-4.44,2.931-7.07s-1.061-5.21-2.931-7.07
			c-1.859-1.87-4.43-2.93-7.069-2.93C135.7,337.67,133.12,338.729,131.26,340.6z"/>
		<path id="XMLID_1064_" d="M303.481,60c5.522,0,10-4.477,10-10v-3.857c0-8.652,3.369-16.786,9.487-22.904
			c3.905-3.905,3.905-10.237,0-14.142c-3.906-3.905-10.238-3.905-14.143,0c-9.896,9.896-15.345,23.052-15.345,37.046V50
			C293.481,55.523,297.959,60,303.481,60z"/>
		<path id="XMLID_1065_" d="M234.33,20c2.64,0,5.21-1.07,7.069-2.93c1.87-1.86,2.931-4.44,2.931-7.07c0-2.63-1.061-5.21-2.931-7.07
			C239.54,1.07,236.96,0,234.33,0s-5.21,1.07-7.07,2.93c-1.86,1.86-2.93,4.44-2.93,7.07c0,2.63,1.069,5.21,2.93,7.07
			S231.7,20,234.33,20z"/>
		<path id="XMLID_1066_" d="M263.67,51.34c2.63,0,5.21-1.07,7.07-2.93c1.859-1.86,2.93-4.44,2.93-7.07s-1.07-5.21-2.93-7.08
			c-1.86-1.86-4.44-2.92-7.07-2.92s-5.21,1.06-7.08,2.92c-1.86,1.87-2.92,4.44-2.92,7.08c0,2.63,1.06,5.21,2.92,7.07
			C258.46,50.27,261.03,51.34,263.67,51.34z"/>
	</g>
</g>
<g>
</g>
<g>
</g>
<g>
</g>
<g>
</g>
<g>
</g>
<g>
</g>
<g>
</g>
<g>
</g>
<g>
</g>
<g>
</g>
<g>
</g>
<g>
</g>
<g>
</g>
<g>
</g>
<g>
</g>
</svg>
