<?xml version="1.0" encoding="iso-8859-1"?>
<!-- Generator: Adobe Illustrator 19.0.0, SVG Export Plug-In . SVG Version: 6.00 Build 0)  -->
<svg version="1.1" id="Layer_1" xmlns="http://www.w3.org/2000/svg" xmlns:xlink="http://www.w3.org/1999/xlink" x="0px" y="0px"
	 viewBox="0 0 512 512" style="enable-background:new 0 0 512 512;" xml:space="preserve">
<g id="XMLID_1201_">
	<g id="XMLID_908_">
		<path id="XMLID_912_" style="fill:#4DBAF6;" d="M342.333,365.554v-59.442h-30.228c-3.575-16.388-10.027-31.7-18.814-45.372
			l21.389-21.389l-42.032-42.032l-21.389,21.389c-13.672-8.787-28.984-15.239-45.372-18.814v-30.228h-59.442v30.19
			c-16.411,3.558-31.747,9.999-45.44,18.783L79.685,197.32l-42.032,42.032l21.285,21.285c-8.822,13.698-15.298,29.046-18.882,45.476
			H10v59.442h30.019c3.567,16.453,10.033,31.824,18.851,45.544l-21.217,21.217l42.032,42.032l21.217-21.217
			c13.72,8.818,29.091,15.284,45.544,18.851V502h59.442v-30.056c16.43-3.584,31.777-10.061,45.476-18.882l21.285,21.285
			l42.032-42.032l-21.321-21.321c8.784-13.693,15.225-29.029,18.783-45.44H342.333z"/>
		<circle id="XMLID_889_" style="fill:#FFFFFF;" cx="176.081" cy="335.919" r="93"/>
		<circle id="XMLID_911_" style="fill:#4DBAF6;" cx="176.081" cy="335.919" r="41"/>
	</g>
	<g id="XMLID_899_">
		<path id="XMLID_907_" style="fill:#FFFFFF;" d="M398.884,31.395c-5.638,0-11.14,0.582-16.451,1.686L369.107,10l-43.561,25.15
			l13.335,23.097c-7.304,8.166-12.964,17.831-16.464,28.478h-26.649v50.3h26.649c3.5,10.647,9.16,20.312,16.464,28.478
			l-13.335,23.097l43.561,25.15l13.326-23.081c5.311,1.103,10.813,1.686,16.451,1.686s11.14-0.582,16.451-1.686l13.326,23.081
			l43.561-25.15l-13.335-23.097c7.304-8.166,12.964-17.831,16.464-28.478H502v-50.3h-26.649c-3.5-10.647-9.16-20.312-16.464-28.478
			l13.335-23.097L428.661,10l-13.326,23.081C410.024,31.978,404.522,31.395,398.884,31.395z"/>
		<path id="XMLID_906_" style="fill:#B5EB7C;" d="M398.884,31.395c-5.638,0-11.14,0.582-16.451,1.686L369.107,10l-43.561,25.15
			l13.335,23.097c-7.304,8.166-12.964,17.831-16.464,28.478h-26.649v50.3h26.649c3.5,10.647,9.16,20.312,16.464,28.478
			l-13.335,23.097l43.561,25.15l13.326-23.081c5.311,1.103,10.813,1.686,16.451,1.686s11.14-0.582,16.451-1.686l13.326,23.081
			l43.561-25.15l-13.335-23.097c7.304-8.166,12.964-17.831,16.464-28.478H502v-50.3h-26.649c-3.5-10.647-9.16-20.312-16.464-28.478
			l13.335-23.097L428.661,10l-13.326,23.081C410.024,31.978,404.522,31.395,398.884,31.395z"/>
		<circle id="XMLID_905_" style="fill:#FFFFFF;" cx="398.884" cy="111.876" r="36.132"/>
	</g>
	<g id="XMLID_699_">
		<path id="XMLID_706_" d="M176.081,284.919c-28.121,0-51,22.879-51,51s22.879,51,51,51s51-22.879,51-51
			S204.202,284.919,176.081,284.919z M176.081,366.919c-17.094,0-31-13.906-31-31s13.906-31,31-31s31,13.906,31,31
			S193.175,366.919,176.081,366.919z"/>
		<path id="XMLID_740_" d="M176.081,232.919c-56.794,0-103,46.206-103,103s46.206,103,103,103s103-46.206,103-103
			S232.875,232.919,176.081,232.919z M176.081,418.919c-45.767,0-83-37.233-83-83s37.233-83,83-83s83,37.233,83,83
			S221.848,418.919,176.081,418.919z"/>
		<path id="XMLID_743_" d="M398.884,158.008c25.438,0,46.132-20.695,46.132-46.132s-20.694-46.131-46.132-46.131
			c-25.437,0-46.131,20.694-46.131,46.131S373.447,158.008,398.884,158.008z M398.884,85.745c14.409,0,26.132,11.723,26.132,26.131
			c0,14.409-11.723,26.132-26.132,26.132c-14.408,0-26.131-11.723-26.131-26.132C372.753,97.467,384.476,85.745,398.884,85.745z"/>
		<path id="XMLID_746_" d="M510.66,81.726L480.883,30.15c-0.878-1.52-2.14-2.783-3.66-3.66L433.661,1.34
			c-1.521-0.878-3.244-1.34-5-1.34h-59.555c-1.755,0-3.479,0.462-5,1.34l-43.562,25.15c-0.172,0.099-0.341,0.203-0.506,0.313
			L74.179,188.972c-0.563,0.372-1.088,0.799-1.565,1.277l-42.031,42.032c-0.929,0.928-1.665,2.031-2.168,3.244l-27.653,66.76
			C0.259,303.499,0,304.799,0,306.112v59.441c0,1.313,0.259,2.613,0.761,3.827l27.653,66.762c0.503,1.213,1.239,2.315,2.168,3.244
			l42.031,42.031c0.929,0.929,2.031,1.665,3.244,2.168l66.761,27.653c1.214,0.502,2.514,0.761,3.827,0.761h59.442
			c1.313,0,2.613-0.259,3.827-0.761l66.761-27.653c1.213-0.503,2.315-1.239,3.244-2.168l42.031-42.031
			c0.499-0.499,0.943-1.05,1.327-1.643l157.543-243.713c0.091-0.141,0.178-0.284,0.262-0.429l29.777-51.576
			c0.878-1.52,1.34-3.245,1.34-5v-50.3C512,84.971,511.538,83.246,510.66,81.726z M472.223,168.602l-1.208-2.093
			c4.573-6.018,8.342-12.535,11.266-19.482h2.399L472.223,168.602z M313,416.493l-7.034-7.035
			c6.07-10.694,10.764-22.047,14.017-33.904h19.482L313,416.493z M272.648,460.204l-14.214-14.214
			c-3.329-3.328-8.529-3.885-12.485-1.336c-12.959,8.345-27.155,14.239-42.192,17.519c-4.594,1.002-7.869,5.068-7.869,9.771V492
			h-39.441v-20.019c0-4.706-3.281-8.775-7.881-9.772c-15.062-3.266-29.278-9.151-42.257-17.491
			c-3.955-2.544-9.149-1.985-12.478,1.341l-14.146,14.146l-27.889-27.89l14.146-14.146c3.326-3.326,3.884-8.521,1.341-12.478
			c-8.34-12.979-14.226-27.195-17.491-42.257c-0.997-4.6-5.066-7.881-9.772-7.881H20v-39.441h20.057
			c4.702,0,8.769-3.275,9.771-7.869c3.279-15.037,9.174-29.233,17.519-42.192c2.549-3.957,1.992-9.157-1.336-12.485l-14.214-14.214
			l13.944-13.945l13.944-13.945l14.25,14.25c3.326,3.324,8.516,3.883,12.471,1.346c12.947-8.306,27.132-14.169,42.16-17.428
			c4.6-0.997,7.881-5.066,7.881-9.773v-20.19h39.441v20.228c0,4.702,3.275,8.768,7.869,9.771
			c15.004,3.272,29.167,9.146,42.096,17.456c3.958,2.543,9.152,1.985,12.479-1.341l14.317-14.318l27.889,27.89l-14.317,14.317
			c-3.326,3.327-3.885,8.521-1.341,12.479c8.311,12.93,14.184,27.093,17.456,42.096c1.002,4.594,5.068,7.869,9.771,7.869h20.228
			v39.441h-20.19c-4.706,0-8.776,3.282-9.773,7.882c-3.258,15.027-9.12,29.212-17.427,42.159c-2.538,3.956-1.979,9.146,1.346,12.471
			l14.25,14.25l-13.81,13.81L272.648,460.204z M254.995,470.835l-39.107,16.198v-7.26c11.872-3.273,23.24-7.992,33.949-14.096
			L254.995,470.835z M136.446,487.034l-39.107-16.199l5.095-5.094c10.729,6.101,22.118,10.815,34.013,14.079V487.034z
			 M95.425,198.917l41.021-27.058v20.158c-11.857,3.253-23.21,7.946-33.904,14.017L95.425,198.917z M342.333,296.112h-22.398
			c-3.262-11.835-7.96-23.165-14.032-33.841l15.849-15.849c3.905-3.905,3.905-10.237,0-14.142l-42.031-42.032
			c-1.876-1.875-4.419-2.929-7.071-2.929s-5.195,1.054-7.071,2.929l-15.849,15.849c-10.676-6.072-22.006-10.77-33.841-14.032
			v-22.398c0-5.523-4.478-10-10-10h-50.956l167.26-110.325l4.562,7.902c-4.573,6.018-8.342,12.535-11.266,19.482h-19.721
			c-5.522,0-10,4.477-10,10v50.3c0,5.523,4.478,10,10,10h19.721c2.924,6.947,6.692,13.464,11.266,19.482l-9.869,17.093
			c-1.326,2.296-1.686,5.026-0.999,7.588c0.687,2.562,2.362,4.746,4.659,6.072l43.562,25.15c1.575,0.909,3.294,1.342,4.99,1.341
			c3.456,0,6.817-1.793,8.67-5.001l9.868-17.092c7.451,0.926,15.046,0.926,22.499,0l9.867,17.092
			c1.326,2.297,3.51,3.973,6.072,4.659c2.561,0.686,5.291,0.327,7.588-0.999l7.655-4.42l-88.983,137.654v-49.534
			C352.333,300.59,347.855,296.112,342.333,296.112z M373.772,38.081c2.158,3.737,6.47,5.668,10.694,4.791
			c9.433-1.96,19.404-1.959,28.835,0c4.226,0.878,8.537-1.054,10.694-4.791l8.325-14.421l26.241,15.151l-8.335,14.437
			c-2.16,3.741-1.674,8.446,1.206,11.667c6.527,7.298,11.378,15.687,14.418,24.935c1.349,4.104,5.181,6.877,9.5,6.877H492v30.3
			h-16.648c-4.319,0-8.151,2.773-9.5,6.877c-3.04,9.248-7.891,17.637-14.418,24.935c-2.88,3.22-3.366,7.925-1.206,11.667
			l8.335,14.437l-26.241,15.15l-8.325-14.421c-2.158-3.737-6.47-5.668-10.694-4.791c-9.432,1.959-19.403,1.96-28.835,0
			c-4.224-0.876-8.536,1.054-10.694,4.791l-8.326,14.421l-26.241-15.15l8.336-14.437c2.16-3.741,1.674-8.446-1.206-11.667
			c-6.527-7.298-11.378-15.687-14.418-24.935c-1.349-4.104-5.181-6.877-9.5-6.877h-16.649v-30.3h16.649
			c4.319,0,8.151-2.773,9.5-6.877c3.04-9.248,7.891-17.637,14.418-24.935c2.88-3.22,3.366-7.925,1.206-11.667l-8.336-14.437
			l26.241-15.15L373.772,38.081z M386.427,20h24.914l-1.208,2.092c-7.453-0.926-15.048-0.926-22.499,0L386.427,20z M482.28,76.726
			c-2.924-6.947-6.692-13.464-11.266-19.482l1.208-2.093l12.457,21.575H482.28z M41.165,257.005l5.158,5.158
			c-6.104,10.709-10.822,22.076-14.096,33.949h-7.26L41.165,257.005z M24.966,375.554h7.214c3.264,11.895,7.979,23.284,14.08,34.013
			l-5.095,5.095L24.966,375.554z"/>
		<path id="XMLID_886_" d="M463.689,286.503c-4.65-2.985-10.835-1.632-13.816,3.016l-48.845,76.126
			c-2.983,4.648-1.633,10.834,3.016,13.816c1.672,1.073,3.542,1.585,5.391,1.585c3.293,0,6.517-1.624,8.426-4.601l48.845-76.126
			C469.688,295.671,468.338,289.485,463.689,286.503z"/>
		<path id="XMLID_887_" d="M387.25,395.64c-2.63,0-5.21,1.061-7.07,2.92c-1.87,1.87-2.93,4.45-2.93,7.08s1.06,5.2,2.93,7.07
			c1.86,1.859,4.44,2.93,7.07,2.93s5.21-1.07,7.069-2.93c1.86-1.86,2.931-4.44,2.931-7.07c0-2.64-1.07-5.21-2.931-7.08
			C392.46,396.7,389.88,395.64,387.25,395.64z"/>
		<path id="XMLID_896_" d="M115.949,132.408c1.897,0,3.816-0.539,5.516-1.666l79.524-52.705c4.604-3.051,5.862-9.256,2.812-13.86
			c-3.053-4.605-9.258-5.861-13.86-2.811l-79.524,52.705c-4.604,3.051-5.862,9.256-2.812,13.86
			C109.529,130.835,112.709,132.408,115.949,132.408z"/>
		<path id="XMLID_1030_" d="M233.08,54.77c2.63,0,5.21-1.06,7.069-2.92c1.86-1.87,2.931-4.45,2.931-7.08c0-2.63-1.07-5.2-2.931-7.07
			c-1.859-1.86-4.439-2.93-7.069-2.93c-2.641,0-5.221,1.07-7.08,2.93c-1.86,1.87-2.92,4.44-2.92,7.07c0,2.64,1.06,5.21,2.92,7.08
			C227.87,53.71,230.439,54.77,233.08,54.77z"/>
	</g>
</g>
<g>
</g>
<g>
</g>
<g>
</g>
<g>
</g>
<g>
</g>
<g>
</g>
<g>
</g>
<g>
</g>
<g>
</g>
<g>
</g>
<g>
</g>
<g>
</g>
<g>
</g>
<g>
</g>
<g>
</g>
</svg>
