<?xml version="1.0" encoding="iso-8859-1"?>
<!-- Generator: Adobe Illustrator 19.0.0, SVG Export Plug-In . SVG Version: 6.00 Build 0)  -->
<svg version="1.1" id="Layer_1" xmlns="http://www.w3.org/2000/svg" xmlns:xlink="http://www.w3.org/1999/xlink" x="0px" y="0px"
	 viewBox="0 0 512.005 512.005" style="enable-background:new 0 0 512.005 512.005;" xml:space="preserve">
<g id="XMLID_1330_">
	<path id="XMLID_1169_" style="fill:#FFC66C;" d="M256.127,99.002H148.56c-28.41,0-51.44,23.031-51.44,51.44v8.452
		c0,15.891,12.882,28.774,28.774,28.774h74.337c30.871,0,55.897-25.026,55.897-55.897V99.002z"/>
	<path id="XMLID_1166_" style="fill:#FFCB97;" d="M106,180.269v54.4c0,35.346,28.654,64,64,64h0c35.346,0,64-28.654,64-64v-54.4H106
		z"/>
	<path id="XMLID_1075_" style="fill:#FF5D5D;" d="M135,307.169h-6c-65.722,0-119,53.278-119,119v75.833h320v-75.833
		c0-65.722-53.278-119-119-119h-5.5H135z"/>
	<path id="XMLID_1165_" style="fill:#FFCB97;" d="M198,292.336v44.771c0,15.464-12.536,28-28,28h0c-15.464,0-28-12.536-28-28
		v-44.771H198z"/>
	<path id="XMLID_1209_" style="fill:#FFFFFF;" d="M250,462.002L250,462.002c-17.673,0-32-14.327-32-32v-28.667h64v28.667
		C282,447.676,267.673,462.002,250,462.002z"/>
	<g id="XMLID_1016_">
		<path id="XMLID_1024_" style="fill:#9BE3FF;" d="M423.431,304.315h-38.509c-5.864,0-10.618-4.754-10.618-10.618v-37.428h59.745
			v37.428C434.05,299.561,429.296,304.315,423.431,304.315z"/>
		<path id="XMLID_1025_" style="fill:#FFC66C;" d="M486.649,146.741c0-45.558-36.94-82.488-82.502-82.472
			c-45.504,0.016-82.442,36.968-82.442,82.472c0,24.425,10.62,46.368,27.493,61.467c13.455,12.041,22.387,28.32,24.85,46.208
			l0.255,1.853h59.745l0.163-1.184c2.51-18.221,11.582-34.806,25.231-47.135C476.15,192.859,486.649,171.027,486.649,146.741z"/>
		<circle id="XMLID_1018_" style="fill:#FFFFFF;" cx="404.177" cy="153.269" r="20"/>
	</g>
	<g id="XMLID_1283_">
		<path id="XMLID_1636_" d="M211,297.169h-1.455c20.687-13.136,34.455-36.233,34.455-62.5v-53.693
			c13.563-12.079,22.127-29.656,22.127-49.204v-32.77c0-5.522-4.477-10-10-10H148.56c-33.878,0-61.44,27.563-61.44,61.44v8.452
			c0,9.362,3.336,17.96,8.881,24.668v51.107c0,26.267,13.768,49.364,34.455,62.5H129c-71.131,0-129,57.869-129,129v75.833
			c0,5.522,4.477,10,10,10h320c5.523,0,10-4.478,10-10v-75.833C340,355.039,282.131,297.169,211,297.169z M152,306.445
			c5.765,1.447,11.793,2.225,18,2.225s12.235-0.778,18-2.225v30.662c0,9.925-8.075,18-18,18s-18-8.075-18-18V306.445z
			 M107.119,150.443c0-22.851,18.59-41.44,41.44-41.44h97.567v22.77c0,25.308-20.589,45.897-45.897,45.897h-74.337
			c-10.352,0-18.774-8.422-18.774-18.774V150.443z M116,234.669v-38.284c3.16,0.835,6.475,1.284,9.893,1.284h74.337
			c8.38,0,16.391-1.589,23.77-4.454v41.454c0,29.775-24.224,54-54,54S116,264.445,116,234.669z M320,492.002H20v-28h75
			c5.523,0,10-4.478,10-10s-4.477-10-10-10H20v-17.833c0-60.103,48.897-109,109-109h3v19.938c0,20.953,17.047,38,38,38
			s38-17.047,38-38v-19.938h3c60.103,0,109,48.897,109,109V492.002z"/>
		<path id="XMLID_1643_" d="M218,391.335c-5.523,0-10,4.478-10,10v28.667c0,23.159,18.841,42,42,42s42-18.841,42-42v-28.667
			c0-5.522-4.477-10-10-10H218z M272,430.002c0,12.131-9.869,22-22,22s-22-9.869-22-22v-18.667h44V430.002z"/>
		<path id="XMLID_1646_" d="M404.178,54.269c-0.01,0-0.024,0-0.035,0c-50.971,0.019-92.438,41.502-92.438,92.473
			c0,26.269,11.235,51.388,30.825,68.919c11.832,10.588,19.507,24.836,21.613,40.121l0.162,1.172v36.743
			c0,11.369,9.249,20.618,20.618,20.618h38.509c11.369,0,20.618-9.249,20.618-20.618v-36.743l0.069-0.505
			c2.149-15.6,9.972-30.188,22.027-41.078c19.385-17.511,30.502-42.525,30.502-68.63c0-24.706-9.623-47.932-27.096-65.398
			C452.087,63.882,428.873,54.269,404.178,54.269z M424.05,293.697c0,0.341-0.277,0.618-0.618,0.618h-38.509
			c-0.341,0-0.618-0.277-0.618-0.618v-27.428h39.745V293.697z M404.177,163.269c-5.514,0-10-4.486-10-10s4.486-10,10-10
			s10,4.486,10,10S409.691,163.269,404.177,163.269z M452.74,200.529c-13.622,12.305-23.061,28.331-27.066,45.74h-11.497v-64.72
			c11.639-4.128,20-15.243,20-28.28c0-16.542-13.458-30-30-30s-30,13.458-30,30c0,13.036,8.361,24.152,20,28.28v64.72h-11.444
			c-3.877-17.372-13.259-33.336-26.866-45.513c-15.355-13.741-24.162-33.429-24.162-54.015c0-39.947,32.499-72.458,72.445-72.473
			c0.01,0,0.018,0,0.027,0c19.353,0,37.548,7.535,51.236,21.218c13.694,13.689,21.235,31.892,21.235,51.254
			C476.649,167.199,467.935,186.803,452.74,200.529z"/>
		<path id="XMLID_1649_" d="M509.076,19.831c-3.905-3.904-10.237-3.904-14.143,0L472.2,42.564c-3.905,3.905-3.905,10.237,0,14.143
			c1.953,1.952,4.512,2.929,7.071,2.929s5.119-0.977,7.071-2.929l22.733-22.733C512.981,30.068,512.981,23.736,509.076,19.831z"/>
		<path id="XMLID_1651_" d="M322.011,56.706c1.953,1.952,4.512,2.929,7.071,2.929c2.559,0,5.119-0.977,7.071-2.929
			c3.905-3.905,3.906-10.237,0-14.143l-22.733-22.733c-3.905-3.903-10.237-3.904-14.142,0c-3.905,3.905-3.906,10.237,0,14.143
			L322.011,56.706z"/>
		<path id="XMLID_1653_" d="M404.177,44.002c5.523,0,10-4.478,10-10v-24c0-5.522-4.477-10-10-10s-10,4.478-10,10v24
			C394.177,39.525,398.654,44.002,404.177,44.002z"/>
		<path id="XMLID_1654_" d="M131.67,444.002c-2.64,0-5.21,1.069-7.08,2.93c-1.86,1.86-2.92,4.44-2.92,7.07s1.06,5.21,2.92,7.069
			c1.87,1.86,4.44,2.931,7.08,2.931c2.63,0,5.2-1.07,7.07-2.931c1.86-1.859,2.93-4.439,2.93-7.069s-1.07-5.21-2.93-7.07
			S134.3,444.002,131.67,444.002z"/>
	</g>
</g>
<g>
</g>
<g>
</g>
<g>
</g>
<g>
</g>
<g>
</g>
<g>
</g>
<g>
</g>
<g>
</g>
<g>
</g>
<g>
</g>
<g>
</g>
<g>
</g>
<g>
</g>
<g>
</g>
<g>
</g>
</svg>
