<?xml version="1.0" encoding="iso-8859-1"?>
<!-- Generator: Adobe Illustrator 19.0.0, SVG Export Plug-In . SVG Version: 6.00 Build 0)  -->
<svg version="1.1" id="Layer_1" xmlns="http://www.w3.org/2000/svg" xmlns:xlink="http://www.w3.org/1999/xlink" x="0px" y="0px"
	 viewBox="0 0 512 512" style="enable-background:new 0 0 512 512;" xml:space="preserve">
<g id="XMLID_2833_">
	<g id="XMLID_2228_">
		<rect id="XMLID_2234_" x="10" y="408" style="fill:#FEDA9B;" width="412" height="54"/>
		<path id="XMLID_2233_" style="fill:#FFFFFF;" d="M216.001,448L216.001,448c-10.11-24.225-33.788-40-60.037-40H10V50h145.964
			c26.25,0,49.927,15.775,60.037,40l0,0V448z"/>
		<path id="XMLID_2232_" style="fill:#C9F3FF;" d="M422,112.333V50H276.036c-26.25,0-49.927,15.775-60.037,40l0,0v358l0,0
			c10.11-24.225,33.788-40,60.037-40H422v-48.333V112.333z"/>
	</g>
	<g id="XMLID_2133_">
		<g id="XMLID_2194_">
			<path id="XMLID_2227_" style="fill:#9BE3FF;" d="M438.783,357h-38.509c-5.864,0-10.618-4.754-10.618-10.618v-37.428h59.745
				v37.428C449.401,352.246,444.647,357,438.783,357z"/>
			<path id="XMLID_2226_" style="fill:#FFC66C;" d="M502,199.426c0-45.558-36.94-82.488-82.502-82.472
				c-45.504,0.016-82.442,36.968-82.442,82.472c0,24.425,10.62,46.368,27.493,61.467c13.455,12.041,22.387,28.32,24.85,46.208
				l0.255,1.853h59.745l0.163-1.184c2.51-18.221,11.582-34.806,25.231-47.135C491.501,245.544,502,223.712,502,199.426z"/>
			<circle id="XMLID_2222_" style="fill:#FFFFFF;" cx="419.528" cy="205.954" r="20"/>
		</g>
	</g>
	<g id="XMLID_1446_">
		<path id="XMLID_1447_" d="M347,452c-2.63,0-5.21,1.069-7.07,2.93c-1.86,1.86-2.93,4.44-2.93,7.07s1.07,5.21,2.93,7.069
			c1.86,1.86,4.44,2.931,7.07,2.931c2.63,0,5.21-1.07,7.07-2.931c1.86-1.859,2.93-4.439,2.93-7.069s-1.07-5.21-2.93-7.07
			S349.63,452,347,452z"/>
		<path id="XMLID_1610_" d="M484.905,134.027c-14.489-14.484-32.94-23.547-52.905-26.223V50c0-5.522-4.477-10-10-10H276.036
			C251.989,40,229.949,51.358,216,69.995C202.051,51.358,180.011,40,155.964,40H10C4.477,40,0,44.478,0,50v358v54
			c0,5.522,4.477,10,10,10h294.886c5.523,0,10-4.478,10-10s-4.477-10-10-10H225.16c0.013-0.029,0.024-0.06,0.037-0.089
			c0.009-0.021,0.021-0.039,0.03-0.059C233.809,431.287,253.753,418,276.036,418H412v34h-25c-5.523,0-10,4.478-10,10s4.477,10,10,10
			h35c5.523,0,10-4.478,10-10v-54v-41h6.783c11.369,0,20.618-9.249,20.618-20.618v-36.743l0.069-0.505
			c2.149-15.6,9.972-30.188,22.028-41.078C500.882,250.545,512,225.531,512,199.426C512,174.72,502.377,151.494,484.905,134.027z
			 M20,60h135.964c21.637,0,41.069,12.529,50.035,32.083v324.98C192.53,405.013,174.863,398,155.964,398H20V60z M20,418h135.964
			c22.283,0,42.227,13.287,50.809,33.852c0.009,0.021,0.021,0.039,0.03,0.059c0.012,0.03,0.024,0.06,0.037,0.089H20V418z M412,398
			H276.036c-18.899,0-36.566,7.013-50.035,19.063V92.083C234.967,72.529,254.399,60,276.036,60H412v47.262
			c-31.71,2.568-58.95,21.206-73.548,47.738h-71.448c-5.523,0-10,4.478-10,10s4.477,10,10,10h63.335
			c-2.135,7.785-3.281,15.974-3.281,24.427c0,6.632,0.719,13.191,2.105,19.573h-62.158c-5.523,0-10,4.478-10,10s4.477,10,10,10
			h68.97c5.224,11.028,12.626,21.04,21.908,29.346c11.832,10.588,19.507,24.836,21.612,40.121l0.162,1.172v36.743
			c0,11.369,9.249,20.618,20.618,20.618H412V398z M439.401,346.382c0,0.341-0.277,0.618-0.618,0.618h-38.509
			c-0.341,0-0.618-0.277-0.618-0.618v-27.428h39.745V346.382z M419.528,215.954c-5.514,0-10-4.486-10-10s4.486-10,10-10
			s10,4.486,10,10S425.042,215.954,419.528,215.954z M468.092,253.214c-13.623,12.306-23.062,28.331-27.066,45.74h-11.497v-64.72
			c11.639-4.128,20-15.243,20-28.28c0-16.542-13.458-30-30-30s-30,13.458-30,30c0,13.036,8.361,24.152,20,28.28v64.72h-11.444
			c-3.877-17.372-13.259-33.336-26.866-45.513c-15.355-13.74-24.162-33.428-24.162-54.015c0-39.947,32.498-72.458,72.445-72.473
			c0.01,0,0.018,0,0.027,0c19.353,0,37.549,7.535,51.236,21.218C484.458,161.861,492,180.063,492,199.426
			C492,219.884,483.286,239.489,468.092,253.214z"/>
		<path id="XMLID_1619_" d="M61,111c2.63,0,5.21-1.07,7.07-2.931C69.93,106.21,71,103.63,71,101s-1.07-5.21-2.93-7.07
			S63.63,91,61,91c-2.63,0-5.21,1.069-7.07,2.93C52.07,95.79,51,98.37,51,101s1.07,5.21,2.93,7.069C55.79,109.93,58.37,111,61,111z"
			/>
		<path id="XMLID_1620_" d="M98.5,111H165c5.523,0,10-4.478,10-10s-4.477-10-10-10H98.5c-5.523,0-10,4.478-10,10
			S92.977,111,98.5,111z"/>
		<path id="XMLID_1622_" d="M61,175h104c5.523,0,10-4.478,10-10s-4.477-10-10-10H61c-5.523,0-10,4.478-10,10S55.477,175,61,175z"/>
		<path id="XMLID_1623_" d="M61,239h104c5.523,0,10-4.478,10-10s-4.477-10-10-10H61c-5.523,0-10,4.478-10,10S55.477,239,61,239z"/>
		<path id="XMLID_1624_" d="M61,303h104c5.523,0,10-4.478,10-10s-4.477-10-10-10H61c-5.523,0-10,4.478-10,10S55.477,303,61,303z"/>
		<path id="XMLID_1625_" d="M175,357c0-5.522-4.477-10-10-10H61c-5.523,0-10,4.478-10,10s4.477,10,10,10h104
			C170.522,367,175,362.522,175,357z"/>
		<path id="XMLID_1626_" d="M267.003,111h104c5.523,0,10-4.478,10-10s-4.477-10-10-10h-104c-5.523,0-10,4.478-10,10
			S261.48,111,267.003,111z"/>
		<path id="XMLID_1627_" d="M342.769,283h-75.765c-5.523,0-10,4.478-10,10s4.477,10,10,10h75.765c5.523,0,10-4.478,10-10
			S348.292,283,342.769,283z"/>
		<path id="XMLID_1632_" d="M342.769,347h-75.765c-5.523,0-10,4.478-10,10s4.477,10,10,10h75.765c5.523,0,10-4.478,10-10
			S348.292,347,342.769,347z"/>
	</g>
</g>
<g>
</g>
<g>
</g>
<g>
</g>
<g>
</g>
<g>
</g>
<g>
</g>
<g>
</g>
<g>
</g>
<g>
</g>
<g>
</g>
<g>
</g>
<g>
</g>
<g>
</g>
<g>
</g>
<g>
</g>
</svg>
