<?xml version="1.0" encoding="iso-8859-1"?>
<!-- Generator: Adobe Illustrator 19.0.0, SVG Export Plug-In . SVG Version: 6.00 Build 0)  -->
<svg version="1.1" id="Layer_1" xmlns="http://www.w3.org/2000/svg" xmlns:xlink="http://www.w3.org/1999/xlink" x="0px" y="0px"
	 viewBox="0 0 512 512" style="enable-background:new 0 0 512 512;" xml:space="preserve">
<g id="XMLID_2799_">
	<rect id="XMLID_2294_" x="10" y="10" style="fill:#FEDA9B;" width="144" height="168"/>
	<rect id="XMLID_2293_" x="10" y="222" style="fill:#FEDA9B;" width="144" height="168"/>
	<rect id="XMLID_2292_" x="246" y="10" style="fill:#FEDA9B;" width="144" height="168"/>
	<rect id="XMLID_2291_" x="246" y="222" style="fill:#FEDA9B;" width="144" height="168"/>
	<rect id="XMLID_2236_" x="10" y="430" style="fill:#4DBAF6;" width="380" height="72"/>
	<g id="XMLID_2714_">
		<path id="XMLID_2720_" style="fill:#FFC66C;" d="M502,80.667V430c0,17.673-14.327,32-32,32h0c-17.673,0-32-14.327-32-32V80.667
			L470,10L502,80.667z"/>
		<polygon id="XMLID_2719_" style="fill:#7D91FF;" points="438,80.667 502,80.667 470,10 		"/>
		<path id="XMLID_2718_" style="fill:#FF5D5D;" d="M438,408v22c0,17.673,14.327,32,32,32l0,0c17.673,0,32-14.327,32-32v-22H438z"/>
	</g>
	<g id="XMLID_1341_">
		<path id="XMLID_1523_" d="M511.109,76.542l-32-70.667C477.49,2.298,473.927,0,470,0s-7.49,2.298-9.109,5.875l-32,70.667
			c-0.587,1.296-0.891,2.702-0.891,4.125v95.748c0,5.522,4.478,10,10,10s10-4.478,10-10V90.667h44V398h-44V261
			c0-5.522-4.478-10-10-10s-10,4.478-10,10v169c0,23.159,18.841,42,42,42s42-18.841,42-42V80.667
			C512,79.244,511.696,77.838,511.109,76.542z M470,34.242l16.494,36.425h-32.988L470,34.242z M470,452c-12.131,0-22-9.869-22-22
			v-12h44v12C492,442.131,482.131,452,470,452z"/>
		<path id="XMLID_1525_" d="M438,232c2.63,0,5.21-1.07,7.069-2.931C446.93,227.21,448,224.63,448,222s-1.07-5.21-2.931-7.07
			c-1.859-1.86-4.439-2.93-7.069-2.93s-5.21,1.069-7.07,2.93S428,219.37,428,222s1.069,5.21,2.93,7.069
			C432.79,230.93,435.37,232,438,232z"/>
		<path id="XMLID_1526_" d="M75.17,492c-2.63,0-5.21,1.069-7.07,2.93c-1.87,1.86-2.93,4.44-2.93,7.07s1.06,5.21,2.93,7.069
			c1.86,1.86,4.431,2.931,7.07,2.931c2.63,0,5.21-1.07,7.07-2.931c1.859-1.859,2.93-4.439,2.93-7.069s-1.07-5.21-2.93-7.07
			C80.38,493.069,77.8,492,75.17,492z"/>
		<path id="XMLID_1528_" d="M390,420H10c-5.522,0-10,4.478-10,10v72c0,5.522,4.478,10,10,10h29.667c5.522,0,10-4.478,10-10
			s-4.478-10-10-10H20v-52h32.929v19.5c0,5.522,4.478,10,10,10s10-4.478,10-10V440h25.688v7.233c0,5.522,4.478,10,10,10
			s10-4.478,10-10V440h25.705v19.5c0,5.522,4.478,10,10,10s10-4.478,10-10V440h25.688v7.233c0,5.522,4.478,10,10,10s10-4.478,10-10
			V440h25.688v19.5c0,5.522,4.478,10,10,10s10-4.478,10-10V440h25.688v7.233c0,5.522,4.478,10,10,10s10-4.478,10-10V440h25.688
			v19.492c0,5.522,4.478,10,10,10s10-4.478,10-10V440H380v52H111c-5.522,0-10,4.478-10,10s4.478,10,10,10h279
			c5.522,0,10-4.478,10-10v-72C400,424.478,395.522,420,390,420z"/>
		<path id="XMLID_1535_" d="M10,188h144c5.522,0,10-4.478,10-10V10c0-5.522-4.478-10-10-10H10C4.478,0,0,4.478,0,10v168
			C0,183.522,4.478,188,10,188z M144,150.967L95.171,94L144,37.033V150.967z M132.258,168H31.742L82,109.366L132.258,168z
			 M82,78.634L31.742,20h100.516L82,78.634z M68.829,94L20,150.967V37.033L68.829,94z"/>
		<path id="XMLID_1554_" d="M10,400h144c5.522,0,10-4.478,10-10V222c0-5.522-4.478-10-10-10H10c-5.522,0-10,4.478-10,10v168
			C0,395.522,4.478,400,10,400z M144,362.967L95.171,306L144,249.033V362.967z M132.258,380H31.742L82,321.366L132.258,380z
			 M82,290.634L31.742,232h100.516L82,290.634z M68.829,306L20,362.967V249.033L68.829,306z"/>
		<path id="XMLID_1564_" d="M390,0H246c-5.522,0-10,4.478-10,10v168c0,5.522,4.478,10,10,10h144c5.522,0,10-4.478,10-10V10
			C400,4.478,395.522,0,390,0z M256,37.033L304.829,94L256,150.967V37.033z M267.742,20h100.516L318,78.634L267.742,20z
			 M318,109.366L368.258,168H267.742L318,109.366z M331.171,94L380,37.033v113.934L331.171,94z"/>
		<path id="XMLID_1574_" d="M390,212H246c-5.522,0-10,4.478-10,10v168c0,5.522,4.478,10,10,10h144c5.522,0,10-4.478,10-10V222
			C400,216.478,395.522,212,390,212z M256,249.033L304.829,306L256,362.967V249.033z M267.742,232h100.516L318,290.634L267.742,232z
			 M318,321.366L368.258,380H267.742L318,321.366z M331.171,306L380,249.033v113.934L331.171,306z"/>
		<path id="XMLID_1594_" d="M200,135c5.522,0,10-4.478,10-10v-9c0-5.522-4.478-10-10-10s-10,4.478-10,10v9
			C190,130.522,194.478,135,200,135z"/>
		<path id="XMLID_1596_" d="M200,188c5.522,0,10-4.478,10-10v-9c0-5.522-4.478-10-10-10s-10,4.478-10,10v9
			C190,183.522,194.478,188,200,188z"/>
		<path id="XMLID_1597_" d="M200,82c5.522,0,10-4.478,10-10v-9c0-5.522-4.478-10-10-10s-10,4.478-10,10v9
			C190,77.522,194.478,82,200,82z"/>
		<path id="XMLID_1598_" d="M200,29c5.522,0,10-4.478,10-10v-9c0-5.522-4.478-10-10-10s-10,4.478-10,10v9
			C190,24.522,194.478,29,200,29z"/>
		<path id="XMLID_1599_" d="M200,294c5.522,0,10-4.478,10-10v-9c0-5.522-4.478-10-10-10s-10,4.478-10,10v9
			C190,289.522,194.478,294,200,294z"/>
		<path id="XMLID_1603_" d="M200,400c5.522,0,10-4.478,10-10v-9c0-5.522-4.478-10-10-10s-10,4.478-10,10v9
			C190,395.522,194.478,400,200,400z"/>
		<path id="XMLID_1604_" d="M200,347c5.522,0,10-4.478,10-10v-9c0-5.522-4.478-10-10-10s-10,4.478-10,10v9
			C190,342.522,194.478,347,200,347z"/>
		<path id="XMLID_1605_" d="M200,241c5.522,0,10-4.478,10-10v-9c0-5.522-4.478-10-10-10s-10,4.478-10,10v9
			C190,236.522,194.478,241,200,241z"/>
	</g>
</g>
<g>
</g>
<g>
</g>
<g>
</g>
<g>
</g>
<g>
</g>
<g>
</g>
<g>
</g>
<g>
</g>
<g>
</g>
<g>
</g>
<g>
</g>
<g>
</g>
<g>
</g>
<g>
</g>
<g>
</g>
</svg>
