<?xml version="1.0" encoding="iso-8859-1"?>
<!-- Generator: Adobe Illustrator 19.0.0, SVG Export Plug-In . SVG Version: 6.00 Build 0)  -->
<svg version="1.1" id="Layer_1" xmlns="http://www.w3.org/2000/svg" xmlns:xlink="http://www.w3.org/1999/xlink" x="0px" y="0px"
	 viewBox="0 0 512 512" style="enable-background:new 0 0 512 512;" xml:space="preserve">
<g id="XMLID_2287_">
	<path id="XMLID_1394_" style="fill:#C9F3FF;" d="M470,166H42c-17.673,0-32,14.327-32,32v272c0,17.673,14.327,32,32,32h428
		c17.673,0,32-14.327,32-32V198C502,180.327,487.673,166,470,166z"/>
	<rect id="XMLID_1390_" x="166" y="110" style="fill:#4DBAF6;" width="184" height="56"/>
	<path id="XMLID_1389_" style="fill:#FFC66C;" d="M86,126L86,126c-12.15,0-22,9.85-22,22v18h44v-18C108,135.85,98.15,126,86,126z"/>
	<circle id="XMLID_1465_" style="fill:#FFFFFF;" cx="256" cy="334" r="128"/>
	<circle id="XMLID_1546_" style="fill:#7D91FF;" cx="256" cy="334" r="88"/>
	<path id="XMLID_1798_" style="fill:#62CD4D;" d="M303.622,317.833l-92.105,92.105C224.57,417.601,239.77,422,256,422
		c41.166,0,75.726-28.268,85.338-66.451L303.622,317.833z"/>
	<path id="XMLID_1694_" style="fill:#B5EB7C;" d="M232.862,312.862l-57.169,57.169C189.459,400.666,220.237,422,256,422
		c23.792,0,45.375-9.446,61.213-24.786L232.862,312.862z"/>
	<rect id="XMLID_2286_" x="64" y="210.333" style="fill:#FFFFFF;" width="48.333" height="40"/>
	<g id="XMLID_1338_">
		<path id="XMLID_1459_" d="M470,156H360v-46c0-5.522-4.478-10-10-10H166c-5.522,0-10,4.478-10,10v46h-38v-8
			c0-17.645-14.355-32-32-32s-32,14.355-32,32v8H42c-23.159,0-42,18.841-42,42v272c0,23.159,18.841,42,42,42h428
			c23.159,0,42-18.841,42-42V198C512,174.841,493.159,156,470,156z M176,120h164v36H176V120z M74,148c0-6.617,5.383-12,12-12
			s12,5.383,12,12v8H74V148z M492,470c0,12.131-9.869,22-22,22H42c-12.131,0-22-9.869-22-22V198c0-12.131,9.869-22,22-22h385.086
			v89.5c0,5.522,4.478,10,10,10s10-4.478,10-10V176H470c12.131,0,22,9.869,22,22V470z"/>
		<path id="XMLID_1481_" d="M309.955,77.526c2.56,0,5.118-0.977,7.071-2.929l16.334-16.334c3.905-3.905,3.905-10.237,0-14.143
			c-3.906-3.904-10.236-3.904-14.143,0l-16.334,16.334c-3.905,3.905-3.905,10.237,0,14.143
			C304.837,76.55,307.396,77.526,309.955,77.526z"/>
		<path id="XMLID_1482_" d="M194.974,74.598c1.953,1.952,4.512,2.929,7.071,2.929c2.559,0,5.118-0.977,7.071-2.929
			c3.905-3.905,3.905-10.236,0-14.143l-16.333-16.334c-3.905-3.903-10.235-3.904-14.143,0c-3.905,3.905-3.905,10.236,0,14.143
			L194.974,74.598z"/>
		<path id="XMLID_1485_" d="M256,77.526c5.522,0,10-4.478,10-10V10c0-5.522-4.478-10-10-10s-10,4.478-10,10v57.526
			C246,73.049,250.478,77.526,256,77.526z"/>
		<path id="XMLID_1488_" d="M256,196c-76.094,0-138,61.906-138,138s61.906,138,138,138s138-61.906,138-138S332.094,196,256,196z
			 M256,452c-65.065,0-118-52.935-118-118s52.935-118,118-118s118,52.935,118,118S321.065,452,256,452z"/>
		<path id="XMLID_1492_" d="M256,236c-54.037,0-98,43.963-98,98c0,14.042,2.975,27.4,8.317,39.487
			c0.166,0.451,0.36,0.892,0.593,1.32C182.418,408.528,216.518,432,256,432c54.037,0,98-43.963,98-98S310.037,236,256,236z
			 M187.898,371.967l44.963-44.963l69.604,69.604C289.478,406.272,273.396,412,256,412C226.767,412,201.253,395.827,187.898,371.967
			z M316.854,382.712l-32.045-32.045l18.69-18.691l26.533,26.533C327.086,367.389,322.589,375.563,316.854,382.712z
			 M333.995,334.186l-23.424-23.424c-1.876-1.875-4.419-2.929-7.071-2.929s-5.196,1.054-7.071,2.929l-25.762,25.763l-30.734-30.734
			c-3.906-3.904-10.236-3.904-14.143,0l-45.772,45.772C178.713,345.913,178,340.04,178,334c0-43.01,34.99-78,78-78s78,34.99,78,78
			C334,334.062,333.995,334.124,333.995,334.186z"/>
		<path id="XMLID_1497_" d="M79.337,383.363c-5.522,0-10,4.478-10,10v12.65c0,5.522,4.478,10,10,10s10-4.478,10-10v-12.65
			C89.337,387.841,84.859,383.363,79.337,383.363z"/>
		<path id="XMLID_1498_" d="M79.337,443.986c-5.522,0-10,4.478-10,10v12.65c0,5.522,4.478,10,10,10s10-4.478,10-10v-12.65
			C89.337,448.464,84.859,443.986,79.337,443.986z"/>
		<path id="XMLID_1499_" d="M115.974,420h-12.65c-5.522,0-10,4.478-10,10s4.478,10,10,10h12.65c5.522,0,10-4.478,10-10
			S121.496,420,115.974,420z"/>
		<path id="XMLID_1500_" d="M55.351,420H42.7c-5.522,0-10,4.478-10,10s4.478,10,10,10h12.65c5.522,0,10-4.478,10-10
			S60.873,420,55.351,420z"/>
		<path id="XMLID_1501_" d="M437.086,66.68c5.522,0,10-4.478,10-10V44.03c0-5.522-4.478-10-10-10s-10,4.478-10,10V56.68
			C427.086,62.202,431.563,66.68,437.086,66.68z"/>
		<path id="XMLID_1502_" d="M437.086,127.304c5.522,0,10-4.478,10-10v-12.65c0-5.522-4.478-10-10-10s-10,4.478-10,10v12.65
			C427.086,122.826,431.563,127.304,437.086,127.304z"/>
		<path id="XMLID_1504_" d="M461.072,90.667h12.65c5.522,0,10-4.478,10-10s-4.478-10-10-10h-12.65c-5.522,0-10,4.478-10,10
			S455.55,90.667,461.072,90.667z"/>
		<path id="XMLID_1505_" d="M400.449,90.667h12.65c5.522,0,10-4.478,10-10s-4.478-10-10-10h-12.65c-5.522,0-10,4.478-10,10
			S394.927,90.667,400.449,90.667z"/>
		<path id="XMLID_1506_" d="M437.08,293c-2.63,0-5.2,1.069-7.061,2.93c-1.87,1.86-2.93,4.44-2.93,7.07s1.06,5.21,2.93,7.069
			c1.86,1.86,4.431,2.931,7.061,2.931c2.64,0,5.21-1.07,7.08-2.931c1.859-1.859,2.93-4.439,2.93-7.069s-1.07-5.21-2.93-7.07
			C442.3,294.069,439.72,293,437.08,293z"/>
		<path id="XMLID_1509_" d="M64,260.333h48.333c5.522,0,10-4.478,10-10v-40c0-5.522-4.478-10-10-10H64c-5.522,0-10,4.478-10,10v40
			C54,255.855,58.478,260.333,64,260.333z M74,220.333h28.333v20H74V220.333z"/>
	</g>
</g>
<g>
</g>
<g>
</g>
<g>
</g>
<g>
</g>
<g>
</g>
<g>
</g>
<g>
</g>
<g>
</g>
<g>
</g>
<g>
</g>
<g>
</g>
<g>
</g>
<g>
</g>
<g>
</g>
<g>
</g>
</svg>
