<?xml version="1.0" encoding="iso-8859-1"?>
<!-- Generator: Adobe Illustrator 19.0.0, SVG Export Plug-In . SVG Version: 6.00 Build 0)  -->
<svg version="1.1" id="Layer_1" xmlns="http://www.w3.org/2000/svg" xmlns:xlink="http://www.w3.org/1999/xlink" x="0px" y="0px"
	 viewBox="0 0 512 512" style="enable-background:new 0 0 512 512;" xml:space="preserve">
<g id="XMLID_1991_">
	<path id="XMLID_2044_" style="fill:#9BE3FF;" d="M174.127,390h8c11.046,0,20,8.954,20,20v0c0,11.046-8.954,20-20,20h-8
		c-11.046,0-20-8.954-20-20v0C154.127,398.954,163.081,390,174.127,390z"/>
	<path id="XMLID_2043_" style="fill:#9BE3FF;" d="M92,502h-8c-11.046,0-20-8.954-20-20v0c0-11.046,8.954-20,20-20h8
		c11.046,0,20,8.954,20,20v0C112,493.046,103.046,502,92,502z"/>
	<path id="XMLID_2042_" style="fill:#9BE3FF;" d="M92,358h-8c-11.046,0-20-8.954-20-20v0c0-11.046,8.954-20,20-20h8
		c11.046,0,20,8.954,20,20v0C112,349.046,103.046,358,92,358z"/>
	<g id="XMLID_2016_">
		<polygon id="XMLID_2139_" style="fill:#FF5D5D;" points="228.829,302 182,302 182,10 502,10 502,302 		"/>
		<rect id="XMLID_2138_" x="182" y="10" style="fill:#7D91FF;" width="320" height="64.8"/>
		<g id="XMLID_3178_">
			<path id="XMLID_37_" style="fill:#231F20;" d="M189.157,74.8h308.94"/>
		</g>
	</g>
	<path id="XMLID_2587_" style="fill:#FFFFFF;" d="M324.768,141.9l63.695,36.774c7.487,4.322,7.487,15.129,0,19.451L324.768,234.9
		c-7.487,4.322-16.845-1.081-16.845-9.726v-73.549C307.922,142.981,317.281,137.578,324.768,141.9z"/>
	<g id="XMLID_1167_">
		<path id="XMLID_1171_" d="M454.333,32.4H351c-5.522,0-10,4.478-10,10s4.478,10,10,10h103.333c5.522,0,10-4.478,10-10
			S459.855,32.4,454.333,32.4z"/>
		<path id="XMLID_1381_" d="M253.729,32.399c-2.64,0-5.22,1.07-7.069,2.931c-1.87,1.859-2.931,4.439-2.931,7.069
			c0,2.631,1.061,5.21,2.931,7.07c1.859,1.86,4.439,2.93,7.069,2.93s5.21-1.069,7.07-2.93s2.93-4.439,2.93-7.07
			c0-2.63-1.069-5.21-2.93-7.069C258.939,33.47,256.359,32.399,253.729,32.399z"/>
		<path id="XMLID_1391_" d="M217.12,32.399c-2.63,0-5.21,1.07-7.07,2.931c-1.86,1.859-2.93,4.439-2.93,7.069
			c0,2.631,1.069,5.21,2.93,7.07s4.44,2.93,7.07,2.93s5.21-1.069,7.069-2.93c1.86-1.86,2.931-4.439,2.931-7.07
			c0-2.63-1.07-5.21-2.931-7.069C222.33,33.47,219.75,32.399,217.12,32.399z"/>
		<path id="XMLID_1392_" d="M290.33,32.399c-2.63,0-5.21,1.07-7.07,2.931c-1.86,1.859-2.93,4.439-2.93,7.069
			c0,2.631,1.069,5.21,2.93,7.07s4.44,2.93,7.07,2.93c2.64,0,5.21-1.069,7.069-2.93c1.87-1.86,2.931-4.439,2.931-7.07
			c0-2.63-1.061-5.21-2.931-7.069C295.55,33.47,292.97,32.399,290.33,32.399z"/>
		<path id="XMLID_1396_" d="M502,0H182c-5.522,0-10,4.478-10,10v120.802c0,5.522,4.478,10,10,10s10-4.478,10-10V84.8h300V292H192
			v-83.197c0-5.522-4.478-10-10-10s-10,4.478-10,10V302c0,5.522,4.478,10,10,10h320c5.522,0,10-4.478,10-10V10
			C512,4.478,507.522,0,502,0z M192,64.8V20h300v44.8H192z"/>
		<path id="XMLID_1397_" d="M182,179.8c2.63,0,5.21-1.07,7.069-2.93c1.86-1.86,2.931-4.44,2.931-7.07s-1.07-5.21-2.931-7.07
			c-1.859-1.859-4.439-2.93-7.069-2.93s-5.21,1.07-7.07,2.93c-1.86,1.86-2.93,4.44-2.93,7.07c0,2.64,1.069,5.21,2.93,7.07
			C176.79,178.729,179.37,179.8,182,179.8z"/>
		<path id="XMLID_1403_" d="M319.153,246.438c3.645,0,7.291-0.959,10.614-2.878l63.696-36.774
			c6.646-3.839,10.614-10.712,10.613-18.387c0-7.675-3.968-14.548-10.614-18.385l-63.695-36.774
			c-6.646-3.837-14.581-3.837-21.229-0.001c-6.647,3.838-10.616,10.711-10.616,18.387v73.549c0,7.675,3.969,14.548,10.615,18.386
			C311.861,245.479,315.507,246.438,319.153,246.438z M317.922,151.626c0-0.194,0-0.711,0.615-1.065
			c0.234-0.136,0.444-0.182,0.624-0.182c0.291,0,0.502,0.121,0.605,0.182h0.001l63.695,36.774c0.168,0.097,0.614,0.355,0.614,1.065
			c0.001,0.71-0.446,0.969-0.614,1.065l-63.695,36.774c-0.17,0.097-0.615,0.353-1.23,0c-0.615-0.355-0.615-0.871-0.615-1.065
			V151.626z"/>
		<path id="XMLID_1412_" d="M10,420h135.847c4.128,11.639,15.243,20,28.28,20h8c13.036,0,24.152-8.361,28.28-20h45.72
			c5.522,0,10-4.478,10-10s-4.478-10-10-10h-45.72c-4.128-11.639-15.243-20-28.28-20h-8c-13.036,0-24.152,8.361-28.28,20H10
			c-5.522,0-10,4.478-10,10S4.478,420,10,420z M174.127,400h8c5.514,0,10,4.486,10,10s-4.486,10-10,10h-8c-5.514,0-10-4.486-10-10
			S168.613,400,174.127,400z"/>
		<path id="XMLID_1426_" d="M256.13,472c-2.64,0-5.21,1.069-7.07,2.93c-1.87,1.86-2.93,4.44-2.93,7.07s1.06,5.21,2.93,7.069
			c1.86,1.86,4.44,2.931,7.07,2.931s5.2-1.07,7.07-2.931c1.859-1.859,2.93-4.439,2.93-7.069s-1.07-5.21-2.93-7.07
			C261.33,473.069,258.76,472,256.13,472z"/>
		<path id="XMLID_1432_" d="M222,472H120.28c-4.128-11.639-15.243-20-28.28-20h-8c-13.036,0-24.152,8.361-28.28,20H10
			c-5.522,0-10,4.478-10,10s4.478,10,10,10h45.72c4.128,11.639,15.243,20,28.28,20h8c13.036,0,24.152-8.361,28.28-20H222
			c5.522,0,10-4.478,10-10S227.522,472,222,472z M92,492h-8c-5.514,0-10-4.486-10-10s4.486-10,10-10h8c5.514,0,10,4.486,10,10
			S97.514,492,92,492z"/>
		<path id="XMLID_1436_" d="M10,348h45.72c4.128,11.639,15.243,20,28.28,20h8c13.036,0,24.152-8.361,28.28-20h135.847
			c5.522,0,10-4.478,10-10s-4.478-10-10-10H120.28c-4.128-11.639-15.243-20-28.28-20h-8c-13.036,0-24.152,8.361-28.28,20H10
			c-5.522,0-10,4.478-10,10S4.478,348,10,348z M84,328h8c5.514,0,10,4.486,10,10s-4.486,10-10,10h-8c-5.514,0-10-4.486-10-10
			S78.486,328,84,328z"/>
	</g>
</g>
<g>
</g>
<g>
</g>
<g>
</g>
<g>
</g>
<g>
</g>
<g>
</g>
<g>
</g>
<g>
</g>
<g>
</g>
<g>
</g>
<g>
</g>
<g>
</g>
<g>
</g>
<g>
</g>
<g>
</g>
</svg>
