<?xml version="1.0" encoding="iso-8859-1"?>
<!-- Generator: Adobe Illustrator 19.0.0, SVG Export Plug-In . SVG Version: 6.00 Build 0)  -->
<svg version="1.1" id="Layer_1" xmlns="http://www.w3.org/2000/svg" xmlns:xlink="http://www.w3.org/1999/xlink" x="0px" y="0px"
	 viewBox="0 0 512 512" style="enable-background:new 0 0 512 512;" xml:space="preserve">
<g id="XMLID_2077_">
	<g id="XMLID_1568_">
		<g id="XMLID_1571_">
			<g id="XMLID_1591_">
				<rect id="XMLID_1592_" x="255.676" y="326" style="fill:#FE8F8D;" width="123.536" height="176"/>
			</g>
			<g id="XMLID_1589_">
				<path id="XMLID_1590_" style="fill:#FFB9B7;" d="M502,346v136c0,11.046-8.954,20-20,20H379.212V326H482
					C493.046,326,502,334.954,502,346z"/>
			</g>
			<g id="XMLID_1576_">
				<rect id="XMLID_1586_" x="132.632" y="326" style="fill:#FF5D5D;" width="123.165" height="176"/>
			</g>
			<g id="XMLID_1573_">
				<path id="XMLID_1575_" style="fill:#2E9DE3;" d="M133.165,326v176H30c-11.046,0-20-8.954-20-20V346c0-11.046,8.954-20,20-20
					H133.165z"/>
			</g>
		</g>
	</g>
	<g id="XMLID_1537_">
		<g id="XMLID_1538_">
			<g id="XMLID_1549_">
				
					<rect id="XMLID_1550_" x="193.206" y="169.212" transform="matrix(-0.7071 -0.7071 0.7071 -0.7071 316.8518 592.8331)" style="fill:#FFC66C;" width="176" height="123.165"/>
			</g>
			<g id="XMLID_1547_">
				<path id="XMLID_1548_" style="fill:#FEDA9B;" d="M363.754,52.079l96.167,96.167c7.81,7.81,7.81,20.474,0,28.284l-72.682,72.682
					L262.788,124.761l72.682-72.682C343.281,44.269,355.944,44.269,363.754,52.079z"/>
			</g>
			<g id="XMLID_1544_">
				
					<rect id="XMLID_1545_" x="106.201" y="256.217" transform="matrix(-0.7071 -0.7071 0.7071 -0.7071 106.8031 679.8381)" style="fill:#FFB954;" width="176" height="123.165"/>
			</g>
			<g id="XMLID_1539_">
				<path id="XMLID_1540_" style="fill:#FFB954;" d="M88.807,298.742l124.451,124.451l-72.949,72.949
					c-7.81,7.81-20.474,7.81-28.284,0l-96.167-96.167c-7.81-7.81-7.81-20.474,0-28.284L88.807,298.742z"/>
			</g>
		</g>
	</g>
	<g id="XMLID_2102_">
		<g id="XMLID_2103_">
			<g id="XMLID_2449_">
				<rect id="XMLID_2450_" x="10" y="132.788" style="fill:#9BE3FF;" width="176" height="123.536"/>
			</g>
			<g id="XMLID_1595_">
				<path id="XMLID_1672_" style="fill:#ADE5FF;" d="M30,10h136c11.046,0,20,8.954,20,20v102.788H10V30C10,18.954,18.954,10,30,10z"
					/>
			</g>
			<g id="XMLID_2104_">
				<rect id="XMLID_2446_" x="10" y="256.203" style="fill:#4DBAF6;" width="176" height="123.165"/>
			</g>
			<g id="XMLID_1441_">
				<path id="XMLID_1442_" style="fill:#2E9DE3;" d="M10,378.835h176V482c0,11.046-8.954,20-20,20H30c-11.046,0-20-8.954-20-20
					V378.835z"/>
			</g>
		</g>
	</g>
	<g id="XMLID_1031_">
		<path id="XMLID_1183_" d="M482,316H334.594l132.398-132.398c11.697-11.697,11.697-30.73,0-42.428l-96.166-96.166
			c-11.697-11.697-30.73-11.697-42.428,0L196,177.406V30c0-16.542-13.458-30-30-30H30C13.458,0,0,13.458,0,30v452
			c0,16.542,13.458,30,30,30h452c16.542,0,30-13.458,30-30V346C512,329.458,498.542,316,482,316z M20,266h156v103.212H20V266z
			 M196,482v-27.406l50-50V492h-51.72C195.39,488.87,196,485.506,196,482z M249.883,372.425c-0.667,0.517-1.265,1.115-1.782,1.782
			L196,426.309V246.363l89.972,89.973L249.883,372.425z M342.541,59.15c3.898-3.9,10.244-3.9,14.143,0l96.166,96.166
			c3.899,3.899,3.899,10.243,0,14.143l-65.611,65.611L276.93,124.761L342.541,59.15z M262.788,138.904l110.309,110.309
			l-72.981,72.981L196.211,218.289c-0.068-0.068-0.142-0.125-0.211-0.191v-12.407L262.788,138.904z M30,20h136
			c5.514,0,10,4.486,10,10v216H20V142.788h91c5.522,0,10-4.478,10-10s-4.478-10-10-10H20V30C20,24.486,24.486,20,30,20z M158,492H30
			c-5.514,0-10-4.486-10-10v-92.788h156v61.234c0,0.003,0,0.007,0,0.01V482c0,5.514-4.486,10-10,10H158z M492,482
			c0,5.514-4.486,10-10,10H266V384.594L314.594,336h54.618v90c0,5.522,4.478,10,10,10s10-4.478,10-10v-90H482
			c5.514,0,10,4.486,10,10V482z"/>
		<path id="XMLID_1203_" d="M379.21,454.5c-2.63,0-5.21,1.069-7.07,2.93s-2.93,4.43-2.93,7.07c0,2.63,1.069,5.21,2.93,7.069
			c1.86,1.86,4.44,2.931,7.07,2.931s5.21-1.07,7.069-2.931c1.86-1.859,2.931-4.439,2.931-7.069s-1.07-5.21-2.931-7.07
			C384.42,455.569,381.84,454.5,379.21,454.5z"/>
		<path id="XMLID_1204_" d="M148,142.79c2.63,0,5.21-1.07,7.069-2.931C156.93,138,158,135.42,158,132.79s-1.07-5.21-2.931-7.07
			c-1.859-1.87-4.439-2.93-7.069-2.93s-5.21,1.06-7.07,2.93c-1.86,1.86-2.93,4.43-2.93,7.07c0,2.63,1.069,5.21,2.93,7.069
			C142.79,141.72,145.37,142.79,148,142.79z"/>
		<path id="XMLID_1205_" d="M98.17,430.42c-2.641,0-5.21,1.06-7.07,2.93c-1.87,1.851-2.93,4.431-2.93,7.07
			c0,2.63,1.06,5.21,2.93,7.07c1.86,1.859,4.43,2.93,7.07,2.93c2.63,0,5.2-1.07,7.07-2.93c1.859-1.86,2.93-4.44,2.93-7.07
			c0-2.64-1.07-5.22-2.93-7.07C103.37,431.479,100.8,430.42,98.17,430.42z"/>
	</g>
</g>
<g>
</g>
<g>
</g>
<g>
</g>
<g>
</g>
<g>
</g>
<g>
</g>
<g>
</g>
<g>
</g>
<g>
</g>
<g>
</g>
<g>
</g>
<g>
</g>
<g>
</g>
<g>
</g>
<g>
</g>
</svg>
