<?xml version="1.0" encoding="iso-8859-1"?>
<!-- Generator: Adobe Illustrator 19.0.0, SVG Export Plug-In . SVG Version: 6.00 Build 0)  -->
<svg version="1.1" id="Layer_1" xmlns="http://www.w3.org/2000/svg" xmlns:xlink="http://www.w3.org/1999/xlink" x="0px" y="0px"
	 viewBox="0 0 512 512" style="enable-background:new 0 0 512 512;" xml:space="preserve">
<g id="XMLID_1938_">
	<g id="XMLID_2270_">
		<g id="XMLID_2765_">
			<g id="XMLID_2766_">
				<g id="XMLID_2767_">
					<path id="XMLID_2778_" style="fill:#FFC66C;" d="M199.067,143.982l191.527,191.527c15.208,15.208,15.208,39.865,0,55.073l0,0
						c-15.208,15.208-39.865,15.208-55.073,0L143.994,199.054L199.067,143.982z"/>
					<path id="XMLID_3065_" style="fill:#FF5D5D;" d="M390.594,390.581L390.594,390.581c15.208-15.208,15.208-39.865,0-55.073
						l-12.684-12.684l-55.073,55.073l12.684,12.684C350.729,405.789,375.386,405.789,390.594,390.581z"/>
					<polygon id="XMLID_2777_" style="fill:#FEDA9B;" points="110,109.987 199.067,143.982 143.994,199.054 					"/>
				</g>
			</g>
		</g>
		<path id="XMLID_3041_" style="fill:#7D91FF;" d="M162.435,413.094l-63.542-63.542c-2.524-2.524-2.524-6.617,0-9.141l241.52-241.52
			c2.524-2.524,6.617-2.524,9.141,0l63.542,63.542c2.524,2.524,2.524,6.617,0,9.141l-241.52,241.52
			C169.052,415.618,164.959,415.618,162.435,413.094z"/>
	</g>
	<g id="XMLID_57_">
		<path id="XMLID_93_" d="M356.624,91.819c-6.419-6.418-16.863-6.418-23.282,0.001l-86.147,86.147l-41.057-41.057
			c-0.996-0.995-2.19-1.77-3.505-2.271l-89.067-33.994c-3.684-1.406-7.849-0.517-10.637,2.271
			c-2.788,2.788-3.677,6.954-2.271,10.637l33.994,89.067c0.502,1.315,1.276,2.51,2.271,3.505l41.057,41.057L91.822,333.34
			c-6.418,6.418-6.418,16.863,0,23.283l63.543,63.542c3.209,3.209,7.425,4.813,11.641,4.813s8.432-1.605,11.642-4.814l16.266-16.266
			c3.905-3.905,3.905-10.237,0-14.143c-3.905-3.905-10.238-3.905-14.142,0l-13.765,13.765l-58.541-58.541l15.351-15.351l25.5,25.5
			c1.953,1.953,4.512,2.929,7.071,2.929s5.119-0.976,7.071-2.929c3.905-3.905,3.905-10.237,0-14.143l-25.5-25.5l9.817-9.817
			l9.668,9.668c1.953,1.953,4.512,2.929,7.071,2.929s5.119-0.976,7.071-2.929c3.905-3.905,3.905-10.237,0-14.143l-9.668-9.668
			l9.826-9.826l25.5,25.5c1.953,1.953,4.512,2.929,7.071,2.929s5.119-0.976,7.071-2.929c3.905-3.905,3.905-10.237,0-14.143
			l-25.5-25.5l9.817-9.817l9.668,9.668c1.953,1.953,4.512,2.929,7.071,2.929s5.119-0.976,7.071-2.929
			c3.905-3.905,3.905-10.237,0-14.143l-9.668-9.668l9.817-9.817l25.5,25.5c1.953,1.953,4.512,2.929,7.071,2.929
			s5.119-0.976,7.071-2.929c3.905-3.905,3.905-10.237,0-14.143l-25.5-25.5l9.817-9.817l9.668,9.668
			c1.953,1.953,4.512,2.929,7.071,2.929s5.119-0.976,7.071-2.929c3.905-3.905,3.905-10.237,0-14.143l-9.668-9.668l9.817-9.817
			l25.49,25.49c1.953,1.953,4.512,2.929,7.071,2.929s5.119-0.976,7.071-2.929c3.905-3.905,3.905-10.237,0-14.143l-25.49-25.49
			l9.817-9.817l9.668,9.668c1.953,1.953,4.512,2.929,7.071,2.929s5.119-0.976,7.071-2.929c3.905-3.905,3.905-10.237,0-14.143
			l-9.668-9.668l9.817-9.817l25.5,25.5c1.953,1.953,4.512,2.929,7.071,2.929s5.119-0.976,7.071-2.929
			c3.905-3.905,3.905-10.237,0-14.143l-25.5-25.5l15.34-15.34l58.541,58.541L232.271,338.257c-3.905,3.905-3.905,10.237,0,14.143
			c3.904,3.905,10.237,3.905,14.142,0l18.392-18.392l63.646,63.645c9.541,9.541,22.074,14.312,34.607,14.312
			c12.533,0,25.066-4.771,34.608-14.312c19.083-19.083,19.083-50.132,0-69.215l-63.645-63.645l86.147-86.147
			c6.419-6.418,6.419-16.863,0-23.283L356.624,91.819z M127.311,127.298l53.774,20.524l-33.25,33.25L127.311,127.298z
			 M158.136,199.054l40.931-40.931l33.985,33.986l-40.93,40.93L158.136,199.054z M383.523,383.51
			c-11.284,11.285-29.646,11.285-40.931,0l-5.613-5.613l40.93-40.93l5.613,5.613C394.807,353.864,394.807,372.226,383.523,383.51z
			 M363.768,322.825l-40.93,40.93l-43.89-43.89l40.93-40.93L363.768,322.825z"/>
		<path id="XMLID_132_" d="M220.58,364.086c-1.86-1.86-4.44-2.93-7.07-2.93c-2.64,0-5.21,1.07-7.07,2.93
			c-1.86,1.86-2.93,4.44-2.93,7.08c0,2.63,1.07,5.2,2.93,7.07c1.86,1.86,4.43,2.93,7.07,2.93c2.63,0,5.21-1.07,7.07-2.93
			c1.86-1.87,2.93-4.44,2.93-7.07C223.51,368.527,222.44,365.957,220.58,364.086z"/>
		<path id="XMLID_133_" d="M107.479,69.871c2.104,0,4.226-0.662,6.032-2.03l0.772-0.583c4.416-3.317,5.306-9.586,1.988-14.001
			c-3.316-4.416-9.586-5.306-14.001-1.988l-0.838,0.632c-4.402,3.335-5.266,9.608-1.931,14.01
			C101.468,68.505,104.455,69.871,107.479,69.871z"/>
		<path id="XMLID_134_" d="M20,256.266l0-0.279l0.001-0.711c0.011-5.523-4.457-10.009-9.98-10.02c-0.007,0-0.013,0-0.021,0
			c-5.513,0-9.988,4.464-10,9.98L0,256.04l0,0.227c0,5.523,4.477,10,10,10S20,261.789,20,256.266z"/>
		<path id="XMLID_135_" d="M24.023,299.614l-0.176-0.951c-0.994-5.433-6.206-9.03-11.636-8.038
			c-5.433,0.994-9.032,6.203-8.038,11.636l0.191,1.036c0.9,4.806,5.099,8.161,9.818,8.161c0.61,0,1.23-0.057,1.853-0.173
			C21.463,310.268,25.04,305.043,24.023,299.614z"/>
		<path id="XMLID_136_" d="M35.957,341.476l-0.348-0.9c-1.978-5.157-7.763-7.734-12.918-5.756
			c-5.157,1.978-7.733,7.761-5.756,12.918l0.381,0.985c1.539,3.957,5.318,6.379,9.323,6.379c1.205,0,2.431-0.22,3.622-0.683
			C35.408,352.418,37.958,346.623,35.957,341.476z"/>
		<path id="XMLID_137_" d="M12.278,220.905c0.613,0.113,1.223,0.167,1.824,0.167c4.73,0,8.935-3.371,9.823-8.189l0.178-0.951
			c1.024-5.427-2.544-10.657-7.972-11.681c-5.425-1.025-10.657,2.544-11.682,7.971l-0.193,1.035
			C3.255,214.689,6.846,219.904,12.278,220.905z"/>
		<path id="XMLID_138_" d="M22.837,176.73c1.183,0.456,2.398,0.672,3.594,0.672c4.015,0,7.803-2.436,9.333-6.406l0.351-0.903
			c2.01-5.144-0.531-10.944-5.675-12.954c-5.146-2.008-10.943,0.532-12.954,5.675l-0.384,0.988
			C15.116,168.955,17.684,174.743,22.837,176.73z"/>
		<path id="XMLID_139_" d="M146.007,45.893c1.507,0,3.037-0.342,4.476-1.063l0.854-0.425c4.95-2.451,6.975-8.45,4.524-13.399
			c-2.451-4.95-8.448-6.977-13.398-4.524l-0.948,0.472c-4.937,2.477-6.931,8.486-4.455,13.422
			C138.815,43.872,142.343,45.893,146.007,45.893z"/>
		<path id="XMLID_140_" d="M54.907,379.575c-2.9-4.7-9.06-6.159-13.762-3.259c-4.7,2.9-6.159,9.062-3.259,13.762l0.547,0.884
			c1.895,3.048,5.16,4.723,8.502,4.723c1.802,0,3.627-0.487,5.27-1.508c4.691-2.916,6.13-9.082,3.214-13.772L54.907,379.575z"/>
		<path id="XMLID_751_" d="M456.951,132.168c1.891,3.06,5.165,4.743,8.515,4.743c1.794,0,3.611-0.483,5.249-1.496
			c4.698-2.904,6.152-9.066,3.248-13.764l-0.551-0.888c-2.921-4.688-9.089-6.119-13.776-3.197
			c-4.687,2.921-6.118,9.089-3.197,13.776L456.951,132.168z"/>
		<path id="XMLID_752_" d="M475.949,170.256l0.347,0.895c1.53,3.972,5.318,6.409,9.334,6.409c1.195,0,2.41-0.216,3.592-0.671
			c5.154-1.985,7.723-7.772,5.738-12.926l-0.384-0.989c-2.011-5.145-7.812-7.684-12.955-5.672
			C476.477,159.312,473.938,165.112,475.949,170.256z"/>
		<path id="XMLID_753_" d="M188.282,29.426c0.907,0,1.83-0.125,2.747-0.386l0.938-0.266c5.316-1.495,8.415-7.017,6.919-12.333
			c-1.495-5.317-7.019-8.417-12.333-6.919l-1.007,0.285c-5.311,1.514-8.389,7.047-6.875,12.358
			C179.923,26.56,183.928,29.426,188.282,29.426z"/>
		<path id="XMLID_757_" d="M360.808,44.476l0.877,0.438c1.439,0.722,2.969,1.063,4.476,1.063c3.664,0,7.192-2.021,8.946-5.518
			c2.476-4.937,0.482-10.946-4.455-13.422l-0.936-0.467c-4.943-2.46-10.947-0.446-13.408,4.499
			C353.85,36.012,355.863,42.015,360.808,44.476z"/>
		<path id="XMLID_758_" d="M487.926,212.085l0.179,0.965c0.889,4.819,5.093,8.189,9.823,8.189c0.601,0,1.212-0.055,1.824-0.167
			c5.432-1.001,9.022-6.216,8.021-11.647l-0.19-1.021c-1.017-5.428-6.238-9.002-11.67-7.988
			C490.485,201.432,486.909,206.656,487.926,212.085z"/>
		<path id="XMLID_759_" d="M232.878,21.059c0.311,0,0.625-0.014,0.94-0.044l0.961-0.087c5.501-0.489,9.565-5.344,9.077-10.845
			c-0.488-5.501-5.353-9.554-10.845-9.077l-1.05,0.096c-5.499,0.513-9.541,5.387-9.028,10.885
			C223.417,17.17,227.774,21.059,232.878,21.059z"/>
		<path id="XMLID_831_" d="M277.373,20.941l0.978,0.09c0.315,0.029,0.629,0.043,0.939,0.043c5.104,0,9.462-3.889,9.945-9.073
			c0.512-5.499-3.53-10.372-9.029-10.885l-1.035-0.095c-5.513-0.504-10.362,3.561-10.858,9.061
			C267.816,15.583,271.873,20.445,277.373,20.941z"/>
		<path id="XMLID_832_" d="M320.193,28.819l0.928,0.264c0.92,0.264,1.848,0.389,2.76,0.389c4.349,0,8.351-2.859,9.608-7.248
			c1.521-5.309-1.549-10.847-6.858-12.368l-1.016-0.289c-5.315-1.496-10.839,1.599-12.336,6.915
			C311.781,21.799,314.877,27.322,320.193,28.819z"/>
		<path id="XMLID_843_" d="M397.867,67.37l0.771,0.583c1.809,1.375,3.935,2.039,6.043,2.039c3.018,0,6.001-1.361,7.969-3.95
			c3.342-4.397,2.486-10.67-1.911-14.012l-0.841-0.636c-4.412-3.323-10.681-2.439-14.004,1.972
			C392.573,57.777,393.456,64.047,397.867,67.37z"/>
		<path id="XMLID_870_" d="M470.479,376.966c-4.692-2.911-10.858-1.466-13.769,3.229l-0.512,0.821
			c-2.932,4.681-1.513,10.851,3.167,13.783c1.65,1.033,3.485,1.526,5.298,1.526c3.33,0,6.586-1.663,8.484-4.694l0.559-0.896
			C476.618,386.041,475.173,379.877,470.479,376.966z"/>
		<path id="XMLID_1258_" d="M430.445,414.94l-0.655,0.715c-3.737,4.066-3.471,10.392,0.595,14.129
			c1.921,1.766,4.346,2.638,6.765,2.638c2.701,0,5.393-1.087,7.365-3.233l0.709-0.774c3.721-4.082,3.429-10.406-0.652-14.127
			C440.491,410.566,434.167,410.858,430.445,414.94z"/>
		<path id="XMLID_1259_" d="M444.855,83.156c-3.728-4.074-10.053-4.354-14.128-0.625c-4.074,3.729-4.354,10.055-0.625,14.128
			l0.653,0.717c1.974,2.173,4.685,3.277,7.406,3.277c2.398,0,4.804-0.858,6.719-2.597c4.089-3.713,4.394-10.037,0.681-14.125
			L444.855,83.156z"/>
		<path id="XMLID_1260_" d="M398.276,444.295l-0.782,0.589c-4.416,3.317-5.306,9.586-1.988,14.001
			c1.965,2.616,4.965,3.994,8.002,3.994c2.09,0,4.199-0.653,5.999-2.006l0.829-0.625c4.406-3.33,5.277-9.602,1.947-14.007
			C408.954,441.836,402.683,440.964,398.276,444.295z"/>
		<path id="XMLID_1266_" d="M361.285,467.26l-0.86,0.428c-4.953,2.444-6.986,8.44-4.542,13.393c1.742,3.53,5.288,5.577,8.975,5.577
			c1.486,0,2.996-0.333,4.418-1.035l0.942-0.468c4.941-2.467,6.948-8.472,4.481-13.414
			C372.232,466.799,366.226,464.794,361.285,467.26z"/>
		<path id="XMLID_1267_" d="M512,255.402c-0.015-5.514-4.489-9.974-10-9.974c-0.009,0-0.018,0-0.027,0
			c-5.523,0.015-9.988,4.503-9.974,10.026l0,0.532l-0.002,0.967c-0.024,5.522,4.434,10.02,9.957,10.043c0.015,0,0.029,0,0.044,0
			c5.502,0,9.975-4.449,9.999-9.957l0.002-1.054L512,255.402z"/>
		<path id="XMLID_1268_" d="M489.075,335.51c-5.149-1.992-10.942,0.567-12.935,5.717l-0.35,0.897
			c-2.02,5.141,0.511,10.945,5.651,12.964c1.201,0.472,2.438,0.695,3.654,0.695c3.992,0,7.763-2.407,9.311-6.346l0.387-0.992
			C496.785,343.294,494.226,337.503,489.075,335.51z"/>
		<path id="XMLID_1359_" d="M499.686,291.346c-5.43-1.009-10.65,2.575-11.659,8.004l-0.179,0.951
			c-1.032,5.425,2.529,10.661,7.955,11.693c0.631,0.12,1.26,0.178,1.88,0.178c4.707,0,8.9-3.339,9.813-8.133l0.194-1.035
			C508.699,297.575,505.115,292.355,499.686,291.346z"/>
		<path id="XMLID_1600_" d="M52.476,117.405c-4.684-2.926-10.854-1.5-13.779,3.184l-0.562,0.904
			c-2.901,4.699-1.443,10.861,3.256,13.762c1.637,1.011,3.451,1.492,5.244,1.492c3.353,0,6.628-1.686,8.519-4.749l0.506-0.815
			C58.586,126.5,57.16,120.331,52.476,117.405z"/>
		<path id="XMLID_1601_" d="M113.919,444.443l-0.766-0.581c-4.393-3.349-10.667-2.505-14.016,1.886
			c-3.349,4.391-2.505,10.667,1.886,14.016l0.845,0.641c1.804,1.362,3.919,2.02,6.018,2.02c3.029,0,6.022-1.371,7.988-3.975
			C119.203,454.042,118.327,447.771,113.919,444.443z"/>
		<path id="XMLID_1602_" d="M150.942,467.374l-0.865-0.433c-4.934-2.483-10.945-0.497-13.428,4.438
			c-2.483,4.933-0.496,10.945,4.438,13.428l0.946,0.474c1.431,0.712,2.95,1.049,4.447,1.049c3.675,0,7.212-2.034,8.961-5.548
			C157.901,475.837,155.887,469.835,150.942,467.374z"/>
		<path id="XMLID_2088_" d="M67.283,83.005l-0.702,0.769c-3.716,4.085-3.418,10.41,0.667,14.126
			c1.917,1.743,4.325,2.603,6.727,2.603c2.718,0,5.427-1.102,7.4-3.271l0.66-0.723c3.729-4.073,3.45-10.399-0.624-14.128
			C77.338,78.652,71.013,78.931,67.283,83.005z"/>
		<path id="XMLID_2089_" d="M81.064,414.399c-3.708-4.093-10.032-4.404-14.125-0.697c-4.093,3.708-4.405,10.032-0.697,14.125
			l0.708,0.777c1.973,2.16,4.674,3.255,7.386,3.255c2.408,0,4.824-0.865,6.742-2.617c4.078-3.725,4.363-10.05,0.638-14.127
			L81.064,414.399z"/>
		<path id="XMLID_2092_" d="M277.919,490.983l-0.978,0.088c-5.501,0.489-9.565,5.344-9.077,10.845
			c0.462,5.201,4.826,9.116,9.949,9.116c0.296,0,0.596-0.013,0.896-0.04l1.035-0.094c5.5-0.504,9.549-5.372,9.045-10.871
			C288.286,494.528,283.42,490.475,277.919,490.983z"/>
		<path id="XMLID_2110_" d="M320.703,483.01l-0.928,0.262c-5.318,1.49-8.422,7.009-6.932,12.327
			c1.237,4.417,5.252,7.305,9.624,7.305c0.893,0,1.801-0.121,2.703-0.373l1.017-0.287c5.311-1.514,8.389-7.047,6.875-12.358
			C331.547,484.574,326.019,481.494,320.703,483.01z"/>
		<path id="XMLID_2111_" d="M234.349,491.007l-0.961-0.089c-5.5-0.516-10.378,3.514-10.899,9.012s3.514,10.378,9.012,10.899
			l1.05,0.097c0.306,0.028,0.609,0.041,0.911,0.041c5.117,0,9.479-3.907,9.948-9.102
			C243.906,496.365,239.849,491.503,234.349,491.007z"/>
		<path id="XMLID_2112_" d="M191.552,483.083l-0.923-0.264c-5.307-1.536-10.849,1.529-12.38,6.836
			c-1.531,5.306,1.529,10.849,6.836,12.38l1.019,0.291c0.911,0.258,1.827,0.381,2.729,0.381c4.36,0,8.37-2.875,9.616-7.278
			C199.954,490.114,196.866,484.587,191.552,483.083z"/>
	</g>
</g>
<g>
</g>
<g>
</g>
<g>
</g>
<g>
</g>
<g>
</g>
<g>
</g>
<g>
</g>
<g>
</g>
<g>
</g>
<g>
</g>
<g>
</g>
<g>
</g>
<g>
</g>
<g>
</g>
<g>
</g>
</svg>
