<?xml version="1.0" encoding="iso-8859-1"?>
<!-- Generator: Adobe Illustrator 19.0.0, SVG Export Plug-In . SVG Version: 6.00 Build 0)  -->
<svg version="1.1" id="Layer_1" xmlns="http://www.w3.org/2000/svg" xmlns:xlink="http://www.w3.org/1999/xlink" x="0px" y="0px"
	 viewBox="0 0 512 512" style="enable-background:new 0 0 512 512;" xml:space="preserve">
<g id="XMLID_2604_">
	<path id="XMLID_2620_" style="fill:#FFCB97;" d="M471.609,502l0.15-300.579C471.812,95.718,386.137,10,280.434,10h0
		C174.767,10,89.108,95.659,89.108,201.326v3.925L40.24,344.196h53.928v39.973c0,41.21,33.408,74.618,74.618,74.618h49.026V502
		H471.609z"/>
	<g id="XMLID_2610_">
		<g id="XMLID_2611_">
			<path id="XMLID_2618_" style="fill:#9BE3FF;" d="M302.347,399h-38.509c-5.864,0-10.618-4.754-10.618-10.618v-37.428h59.745
				v37.428C312.965,394.246,308.211,399,302.347,399z"/>
			<path id="XMLID_2617_" style="fill:#FFC66C;" d="M365.564,241.426c0-45.558-36.94-82.488-82.502-82.472
				c-45.504,0.016-82.442,36.968-82.442,82.472c0,24.425,10.62,46.368,27.493,61.467c13.455,12.041,22.387,28.32,24.85,46.208
				l0.255,1.853h59.745l0.163-1.184c2.51-18.221,11.582-34.806,25.231-47.135C355.065,287.544,365.564,265.712,365.564,241.426z"/>
			<circle id="XMLID_2613_" style="fill:#FFFFFF;" cx="283.092" cy="247.954" r="20"/>
		</g>
	</g>
	<g id="XMLID_728_">
		<path id="XMLID_729_" d="M422.828,59.003C384.798,20.954,334.228,0,280.433,0C169.422,0,79.108,90.314,79.108,201.325v2.218
			L30.807,340.878c-1.076,3.06-0.602,6.451,1.273,9.098c1.875,2.646,4.917,4.22,8.16,4.22h43.928v29.974
			c0,46.658,37.96,84.618,84.618,84.618h39.026V502c0,5.522,4.478,10,10,10s10-4.478,10-10v-43.213c0-5.522-4.478-10-10-10h-49.026
			c-35.631,0-64.618-28.987-64.618-64.618v-39.974c0-5.522-4.478-10-10-10H54.358l44.184-125.628
			c0.375-1.065,0.566-2.188,0.566-3.317v-3.925C99.108,101.342,180.45,20,280.433,20c48.451,0,93.998,18.872,128.249,53.141
			c34.252,34.269,53.102,79.824,53.077,128.275l-0.131,263.579c-0.003,5.522,4.473,10.002,9.995,10.005c0,0,0.003,0,0.005,0
			c5.521,0,9.997-4.474,10-9.995l0.131-263.579C481.787,147.631,460.857,97.051,422.828,59.003z"/>
		<path id="XMLID_1068_" d="M471.616,492h-0.007c-5.522,0-9.996,4.478-9.996,10s4.48,10,10.003,10s10-4.478,10-10
			S477.138,492,471.616,492z"/>
		<path id="XMLID_1080_" d="M283.093,148.954c-0.011,0-0.024,0-0.035,0c-50.97,0.019-92.438,41.502-92.438,92.473
			c0,26.269,11.235,51.388,30.825,68.919c11.831,10.587,19.507,24.836,21.612,40.119l0.161,1.171v36.746
			c0,11.369,9.25,20.618,20.619,20.618h38.508c11.369,0,20.619-9.249,20.619-20.618v-36.744l0.069-0.504
			c2.149-15.601,9.972-30.188,22.027-41.078c19.385-17.511,30.502-42.524,30.502-68.63c0-24.706-9.623-47.932-27.096-65.398
			C331.003,158.567,307.789,148.954,283.093,148.954z M302.965,388.382c0,0.341-0.277,0.618-0.619,0.618h-38.508
			c-0.342,0-0.619-0.277-0.619-0.618v-27.428h39.746V388.382z M283.092,257.954c-5.514,0-10-4.486-10-10s4.486-10,10-10
			s10,4.486,10,10S288.606,257.954,283.092,257.954z M331.656,295.214c-13.622,12.305-23.061,28.33-27.065,45.74h-11.498v-64.72
			c11.639-4.128,20-15.243,20-28.28c0-16.542-13.458-30-30-30s-30,13.458-30,30c0,13.036,8.361,24.152,20,28.28v64.72h-11.443
			c-3.878-17.372-13.26-33.336-26.866-45.513c-15.355-13.741-24.162-33.429-24.162-54.015c0-39.947,32.499-72.458,72.445-72.473
			c0.009,0,0.018,0,0.027,0c19.353,0,37.548,7.535,51.235,21.218c13.694,13.689,21.235,31.892,21.235,51.254
			C355.564,261.884,346.85,281.489,331.656,295.214z"/>
		<path id="XMLID_1109_" d="M373.849,101.895l-22.733,22.733c-3.905,3.905-3.905,10.237,0,14.143
			c1.953,1.952,4.512,2.929,7.071,2.929s5.118-0.977,7.071-2.929l22.733-22.733c3.905-3.905,3.905-10.237,0-14.143
			C384.086,97.99,377.755,97.99,373.849,101.895z"/>
		<path id="XMLID_1122_" d="M215.069,138.771c3.905-3.905,3.905-10.237,0-14.143l-22.733-22.733c-3.906-3.904-10.236-3.904-14.143,0
			c-3.905,3.905-3.905,10.237,0,14.143l22.733,22.733c1.953,1.952,4.512,2.929,7.071,2.929S213.116,140.723,215.069,138.771z"/>
		<path id="XMLID_1148_" d="M273.092,116.067c0,5.522,4.478,10,10,10s10-4.478,10-10V90c0-5.522-4.478-10-10-10s-10,4.478-10,10
			V116.067z"/>
		<path id="XMLID_1149_" d="M283.092,61.63c2.63,0,5.21-1.061,7.069-2.93c1.86-1.86,2.931-4.431,2.931-7.061
			c0-2.64-1.07-5.22-2.931-7.08c-1.859-1.859-4.439-2.92-7.069-2.92s-5.21,1.061-7.07,2.92c-1.86,1.87-2.93,4.44-2.93,7.08
			c0,2.62,1.069,5.2,2.93,7.061C277.882,60.569,280.462,61.63,283.092,61.63z"/>
	</g>
</g>
<g>
</g>
<g>
</g>
<g>
</g>
<g>
</g>
<g>
</g>
<g>
</g>
<g>
</g>
<g>
</g>
<g>
</g>
<g>
</g>
<g>
</g>
<g>
</g>
<g>
</g>
<g>
</g>
<g>
</g>
</svg>
