<?xml version="1.0" encoding="iso-8859-1"?>
<!-- Generator: Adobe Illustrator 19.0.0, SVG Export Plug-In . SVG Version: 6.00 Build 0)  -->
<svg version="1.1" id="Layer_1" xmlns="http://www.w3.org/2000/svg" xmlns:xlink="http://www.w3.org/1999/xlink" x="0px" y="0px"
	 viewBox="0 0 512.001 512.001" style="enable-background:new 0 0 512.001 512.001;" xml:space="preserve">
<g id="XMLID_974_">
	<g id="XMLID_2067_">
		<path id="XMLID_2681_" style="fill:#C9F3FF;" d="M74.167,502.001h427.834v-402H10v337.833
			C10,473.272,38.729,502.001,74.167,502.001z"/>
		<path id="XMLID_2680_" style="fill:#4DBAF6;" d="M62.627,50.001C86.581,50.001,106,69.419,106,93.373V423.59
			c0-23.954-19.418-43.372-43.373-43.372c-27.728,0-50.432,21.449-52.463,48.658H10V102.628C10,73.563,33.562,50.001,62.627,50.001z
			"/>
	</g>
	<g id="XMLID_2667_">
		<path id="XMLID_2710_" style="fill:#4DBAF6;" d="M382.474,364.912v-42.296h-21.509c-2.544-11.661-7.134-22.557-13.387-32.285
			l15.219-15.219l-29.908-29.908l-15.219,15.219c-9.728-6.253-20.624-10.844-32.285-13.387v-21.509h-42.296v21.482
			c-11.677,2.532-22.59,7.115-32.333,13.365l-15.171-15.171l-29.908,29.908l15.146,15.146c-6.277,9.747-10.886,20.668-13.436,32.359
			H146v42.296h21.36c2.538,11.707,7.139,22.645,13.414,32.407l-15.097,15.097l29.908,29.908l15.097-15.097
			c9.762,6.275,20.7,10.876,32.407,13.414v21.36h42.296v-21.387c11.691-2.55,22.611-7.159,32.359-13.436l15.146,15.146
			l29.908-29.908l-15.171-15.171c6.25-9.743,10.834-20.656,13.365-32.333H382.474z"/>
		<circle id="XMLID_2709_" style="fill:#FFFFFF;" cx="264.176" cy="343.825" r="56"/>
		<circle id="XMLID_2708_" style="fill:#4DBAF6;" cx="264.176" cy="343.825" r="24"/>
	</g>
	<g id="XMLID_1233_">
		<path id="XMLID_1229_" style="fill:#FFC66C;" d="M394,263.001v-221c0-17.673,14.327-32,32-32h0c17.673,0,32,14.327,32,32v221
			l-32,63L394,263.001z"/>
		<polygon id="XMLID_1228_" style="fill:#FEDA9B;" points="426,326.001 458,263.001 394,263.001 		"/>
		<path id="XMLID_1227_" style="fill:#FF5D5D;" d="M458,64.001v-22c0-17.673-14.327-32-32-32h0c-17.673,0-32,14.327-32,32v22H458z"
			/>
		<g id="XMLID_1713_">
			<path id="XMLID_46_" d="M509.073,92.929c-1.875-1.875-4.419-2.929-7.071-2.929H468v-48c0-23.159-18.841-42-42-42
				s-42,18.841-42,42v48H115.882c-1.747-27.863-24.959-50-53.255-50C28.095,40.001,0,68.095,0,102.629v326.247
				c0,0.906,0.131,1.779,0.357,2.614C0.125,433.677,0,435.896,0,438.143c0,40.726,33.132,73.857,73.857,73.857h428.144
				c5.523,0,10-4.478,10-10l0-402C512.001,97.348,510.948,94.805,509.073,92.929z M404,42.001c0-12.131,9.869-22,22-22
				s22,9.869,22,22v12h-44V42.001z M404,74.001h44v179h-44V74.001z M441.705,273.001L426,303.919l-15.704-30.918H441.705z
				 M20,102.629c0-23.505,19.123-42.628,42.627-42.628C81.029,60.001,96,74.971,96,93.373V387.28
				c-9.147-7.352-20.751-11.765-33.373-11.765c-16.455,0-31.439,6.389-42.627,16.804V102.629z M492.001,492.001H73.857
				C44.16,492.001,20,467.841,20,438.143c0-23.505,19.123-42.628,42.627-42.628c18.402,0,33.373,14.971,33.373,33.373
				c0,14.195-11.549,25.744-25.745,25.744c-10.729,0-19.458-8.729-19.458-19.458c0-5.522-4.477-10-10-10s-10,4.478-10,10
				c0,21.757,17.701,39.458,39.458,39.458c25.224,0,45.745-20.521,45.745-45.744V110.001h268v153c0,1.574,0.372,3.125,1.084,4.528
				l32,63c1.705,3.357,5.151,5.472,8.916,5.472s7.211-2.114,8.916-5.472l32-63c0.712-1.403,1.084-2.954,1.084-4.528v-153h24.001
				L492.001,492.001z"/>
			<path id="XMLID_1779_" d="M50,205.01c-2.63,0-5.21,1.06-7.07,2.92c-1.86,1.86-2.93,4.44-2.93,7.07c0,2.64,1.07,5.21,2.93,7.069
				c1.86,1.87,4.44,2.931,7.07,2.931c2.63,0,5.21-1.061,7.07-2.931c1.86-1.859,2.93-4.43,2.93-7.069c0-2.63-1.07-5.21-2.93-7.07
				S52.63,205.01,50,205.01z"/>
			<path id="XMLID_1783_" d="M50,184.378c5.523,0,10-4.478,10-10v-74.377c0-5.522-4.477-10-10-10s-10,4.478-10,10v74.377
				C40,179.9,44.477,184.378,50,184.378z"/>
			<path id="XMLID_1793_" d="M295.385,239.291v-13.764c0-5.522-4.477-10-10-10h-42.296c-5.523,0-10,4.478-10,10v13.727
				c-7.199,2.134-14.134,5-20.738,8.574l-9.695-9.695c-3.906-3.905-10.237-3.904-14.142,0l-29.908,29.907
				c-3.905,3.905-3.906,10.237,0,14.143l9.661,9.661c-3.594,6.615-6.479,13.562-8.625,20.772H146c-5.523,0-10,4.478-10,10v42.296
				c0,5.522,4.477,10,10,10h13.605c2.142,7.228,5.022,14.187,8.618,20.816l-9.617,9.616c-1.875,1.875-2.929,4.419-2.929,7.071
				s1.054,5.195,2.929,7.071l29.908,29.908c1.875,1.875,4.419,2.929,7.071,2.929s5.196-1.054,7.071-2.929l9.617-9.617
				c6.628,3.595,13.589,6.476,20.816,8.617v13.605c0,5.522,4.477,10,10,10h42.296c5.523,0,10-4.478,10-10v-13.642
				c7.211-2.146,14.158-5.03,20.773-8.624l9.66,9.66c1.875,1.875,4.419,2.929,7.071,2.929s5.196-1.054,7.071-2.929l29.908-29.908
				c3.905-3.905,3.905-10.237,0-14.143l-9.695-9.695c3.574-6.604,6.441-13.539,8.574-20.737h13.727c5.523,0,10-4.478,10-10v-42.296
				c0-5.522-4.477-10-10-10H368.71c-2.138-7.184-5.007-14.104-8.581-20.694l9.739-9.739c3.905-3.905,3.905-10.237,0-14.143
				l-29.908-29.907c-3.905-3.905-10.237-3.904-14.142,0l-9.739,9.738C309.488,244.297,302.568,241.427,295.385,239.291z
				 M324.741,267.494l8.148-8.148l15.766,15.766l-8.148,8.148c-3.326,3.326-3.884,8.521-1.341,12.479
				c5.727,8.91,9.774,18.67,12.029,29.009c1.002,4.594,5.069,7.869,9.771,7.869h11.509v22.296h-11.482
				c-4.707,0-8.776,3.281-9.773,7.881c-2.245,10.355-6.286,20.13-12.009,29.053c-2.538,3.956-1.978,9.146,1.346,12.471l8.1,8.1
				l-15.766,15.766l-8.074-8.074c-3.329-3.327-8.527-3.885-12.486-1.336c-8.929,5.75-18.712,9.813-29.075,12.072
				c-4.594,1.002-7.869,5.068-7.869,9.771v11.387h-22.296v-11.36c0-4.706-3.282-8.775-7.881-9.773
				c-10.38-2.25-20.177-6.306-29.119-12.053c-3.958-2.545-9.152-1.984-12.479,1.341l-8.026,8.026l-15.766-15.766l8.026-8.025
				c3.326-3.326,3.885-8.521,1.342-12.478c-5.748-8.944-9.804-18.741-12.054-29.12c-0.997-4.6-5.066-7.881-9.773-7.881H156v-22.296
				h11.387c4.702,0,8.769-3.275,9.771-7.869c2.26-10.363,6.322-20.146,12.073-29.075c2.548-3.957,1.992-9.156-1.336-12.485
				l-8.075-8.075l15.766-15.765l8.1,8.1c3.324,3.322,8.514,3.883,12.471,1.346c8.921-5.724,18.696-9.765,29.053-12.011
				c4.6-0.997,7.881-5.066,7.881-9.772v-11.481h22.296v11.509c0,4.702,3.275,8.769,7.869,9.771
				c10.339,2.255,20.099,6.302,29.009,12.028C316.22,271.38,321.415,270.82,324.741,267.494z"/>
			<path id="XMLID_1796_" d="M264.176,309.825c-18.748,0-34,15.252-34,34s15.252,34,34,34s34-15.252,34-34
				S282.923,309.825,264.176,309.825z M264.176,357.825c-7.72,0-14-6.28-14-14s6.28-14,14-14s14,6.28,14,14
				S271.896,357.825,264.176,357.825z"/>
			<path id="XMLID_1804_" d="M264.176,277.825c-36.393,0-66,29.607-66,66s29.607,66,66,66s66-29.607,66-66
				S300.568,277.825,264.176,277.825z M264.176,389.825c-25.364,0-46-20.636-46-46s20.636-46,46-46s46,20.636,46,46
				S289.54,389.825,264.176,389.825z"/>
		</g>
	</g>
</g>
<g>
</g>
<g>
</g>
<g>
</g>
<g>
</g>
<g>
</g>
<g>
</g>
<g>
</g>
<g>
</g>
<g>
</g>
<g>
</g>
<g>
</g>
<g>
</g>
<g>
</g>
<g>
</g>
<g>
</g>
</svg>
