<?xml version="1.0" encoding="iso-8859-1"?>
<!-- Generator: Adobe Illustrator 19.0.0, SVG Export Plug-In . SVG Version: 6.00 Build 0)  -->
<svg version="1.1" id="Layer_1" xmlns="http://www.w3.org/2000/svg" xmlns:xlink="http://www.w3.org/1999/xlink" x="0px" y="0px"
	 viewBox="0 0 512 512" style="enable-background:new 0 0 512 512;" xml:space="preserve">
<g id="XMLID_1630_">
	<path id="XMLID_2149_" style="fill:#9BE3FF;" d="M464.268,197.465H422v40h40v120h-40v40h42.268
		c20.839,0,37.732-16.893,37.732-37.732V235.197C502,214.358,485.107,197.465,464.268,197.465z"/>
	<rect id="XMLID_1807_" x="10" y="10" style="fill:#FFFFFF;" width="320" height="416"/>
	<path id="XMLID_1879_" style="fill:#9BE3FF;" d="M387.333,462H176.667C157.521,462,142,446.479,142,427.333V142h280v285.333
		C422,446.479,406.479,462,387.333,462z"/>
	<rect id="XMLID_1878_" x="176.667" y="462" style="fill:#9BE3FF;" width="210.667" height="40"/>
	<path id="XMLID_1953_" style="fill:#FF5D5D;" d="M374,142.333V217c0,13.255-10.745,24-24,24h0c-13.255,0-24-10.745-24-24v-13
		c0-13.255-10.745-24-24-24h0c-13.255,0-24,10.745-24,24v33.667c0,15.464-12.536,28-28,28h0c-15.464,0-28-12.536-28-28v-95.333H374z
		"/>
	<rect id="XMLID_2197_" x="58" y="50" style="fill:#B5EB7C;" width="48" height="48"/>
	<g id="XMLID_1353_">
		<path id="XMLID_1811_" d="M464.268,187.465H432V142c0-5.522-4.477-10-10-10h-82V10c0-5.522-4.477-10-10-10H10
			C4.477,0,0,4.478,0,10v416c0,5.522,4.477,10,10,10h122.851c3.405,17.242,16.761,30.94,33.815,34.857V502c0,5.522,4.477,10,10,10
			h210.667c5.523,0,10-4.478,10-10v-31.143C417.162,466.303,432,448.524,432,427.333v-19.868h32.268
			c26.32,0,47.732-21.413,47.732-47.732V235.197C512,208.878,490.587,187.465,464.268,187.465z M432,247.465h20v100h-20V247.465z
			 M302,170c-18.748,0-34,15.252-34,34v33.667c0,9.925-8.075,18-18,18s-18-8.075-18-18V152h132v65c0,7.72-6.28,14-14,14
			s-14-6.28-14-14v-13C336,185.252,320.748,170,302,170z M20,20h300v112H142c-5.523,0-10,4.478-10,10v274H20V20z M377.333,492
			H186.667v-20h190.667V492z M412,427.333C412,440.935,400.935,452,387.333,452H176.667C163.065,452,152,440.935,152,427.333V152h60
			v85.667c0,20.953,17.047,38,38,38s38-17.047,38-38V204c0-7.72,6.28-14,14-14s14,6.28,14,14v13c0,18.748,15.252,34,34,34
			s34-15.252,34-34v-65h28v45.465v40v120v40V427.333z M492,359.732c0,15.292-12.441,27.732-27.732,27.732H432v-20h30
			c5.523,0,10-4.478,10-10v-120c0-5.522-4.477-10-10-10h-30v-20h32.268c15.292,0,27.732,12.44,27.732,27.732V359.732z"/>
		<path id="XMLID_1818_" d="M199,60h86.333c5.523,0,10-4.478,10-10s-4.477-10-10-10H199c-5.523,0-10,4.478-10,10S193.477,60,199,60z
			"/>
		<path id="XMLID_1820_" d="M159.01,60c5.523,0,10-4.478,10-10s-4.477-10-10-10H159c-5.523,0-9.995,4.478-9.995,10
			S153.487,60,159.01,60z"/>
		<path id="XMLID_1821_" d="M159,108h126.333c5.523,0,10-4.478,10-10s-4.477-10-10-10H159c-5.523,0-10,4.478-10,10
			S153.477,108,159,108z"/>
		<path id="XMLID_1825_" d="M106,40H58c-5.523,0-10,4.478-10,10v48c0,5.522,4.477,10,10,10h48c5.523,0,10-4.478,10-10V50
			C116,44.478,111.523,40,106,40z M96,88H68V60h28V88z"/>
		<path id="XMLID_1827_" d="M198,286.535c-5.523,0-10,4.478-10,10V363.5c0,5.522,4.477,10,10,10s10-4.478,10-10v-66.965
			C208,291.013,203.523,286.535,198,286.535z"/>
		<path id="XMLID_1828_" d="M198,391.2c-2.63,0-5.21,1.06-7.07,2.93c-1.86,1.86-2.93,4.439-2.93,7.07c0,2.63,1.07,5.199,2.93,7.069
			c1.86,1.86,4.44,2.931,7.07,2.931c2.63,0,5.21-1.07,7.07-2.931c1.86-1.859,2.93-4.439,2.93-7.069c0-2.641-1.07-5.21-2.93-7.07
			C203.21,392.26,200.63,391.2,198,391.2z"/>
	</g>
</g>
<g>
</g>
<g>
</g>
<g>
</g>
<g>
</g>
<g>
</g>
<g>
</g>
<g>
</g>
<g>
</g>
<g>
</g>
<g>
</g>
<g>
</g>
<g>
</g>
<g>
</g>
<g>
</g>
<g>
</g>
</svg>
