<?xml version="1.0" encoding="iso-8859-1"?>
<!-- Generator: Adobe Illustrator 19.0.0, SVG Export Plug-In . SVG Version: 6.00 Build 0)  -->
<svg version="1.1" id="Layer_1" xmlns="http://www.w3.org/2000/svg" xmlns:xlink="http://www.w3.org/1999/xlink" x="0px" y="0px"
	 viewBox="0 0 512.03 512.03" style="enable-background:new 0 0 512.03 512.03;" xml:space="preserve">
<g id="XMLID_842_">
	<polygon id="XMLID_2011_" style="fill:#4DBAF6;" points="432.363,393.205 370.887,374.823 255.696,191.403 291.511,169.087 
		458.203,433.448 	"/>
	<polygon id="XMLID_2010_" style="fill:#4DBAF6;" points="147.696,361.681 255.696,191.403 219.882,169.087 147.78,283.435 	"/>
	<circle id="XMLID_2913_" style="fill:#C9F3FF;" cx="255.696" cy="135.681" r="48"/>
	<path id="XMLID_2912_" style="fill:#9BE3FF;" d="M229.696,92.014v-56c0-14.359,11.641-26,26-26h0c14.359,0,26,11.641,26,26v56
		H229.696z"/>
	<g id="XMLID_1883_">
		<path id="XMLID_1899_" style="fill:#FFC66C;" d="M91.78,400.181V219.403c0-15.464,12.536-28,28-28h0c15.464,0,28,12.536,28,28
			v180.777l-28,61.833L91.78,400.181z"/>
		<polygon id="XMLID_1897_" style="fill:#FEDA9B;" points="147.78,400.181 91.78,400.181 119.78,462.014 		"/>
		<path id="XMLID_1896_" style="fill:#FF5D5D;" d="M147.78,238.653v-19.25c0-15.464-12.536-28-28-28l0,0c-15.464,0-28,12.536-28,28
			v19.25H147.78z"/>
	</g>
	<rect id="XMLID_2781_" x="83.696" y="281.014" style="fill:#9BE3FF;" width="64" height="80.667"/>
	<g id="XMLID_1360_">
		<path id="XMLID_1363_" d="M79.366,86.664c5.523,0,10-4.478,10-10v-12.65c0-5.522-4.477-10-10-10s-10,4.478-10,10v12.65
			C69.366,82.187,73.844,86.664,79.366,86.664z"/>
		<path id="XMLID_1855_" d="M79.366,147.287c5.523,0,10-4.478,10-10v-12.65c0-5.522-4.477-10-10-10s-10,4.478-10,10v12.65
			C69.366,142.81,73.844,147.287,79.366,147.287z"/>
		<path id="XMLID_1859_" d="M103.353,110.651h12.65c5.523,0,10-4.478,10-10s-4.477-10-10-10h-12.65c-5.523,0-10,4.478-10,10
			S97.83,110.651,103.353,110.651z"/>
		<path id="XMLID_1860_" d="M42.73,110.651h12.65c5.523,0,10-4.478,10-10s-4.477-10-10-10H42.73c-5.523,0-10,4.478-10,10
			S37.207,110.651,42.73,110.651z"/>
		<path id="XMLID_1861_" d="M356.949,282.864c2.63,0,5.21-1.069,7.07-2.93s2.93-4.44,2.93-7.07s-1.07-5.21-2.93-7.069
			c-1.86-1.86-4.44-2.931-7.07-2.931s-5.21,1.07-7.07,2.931c-1.86,1.859-2.93,4.439-2.93,7.069c0,2.641,1.07,5.21,2.93,7.07
			C351.74,281.794,354.32,282.864,356.949,282.864z"/>
		<path id="XMLID_1862_" d="M255.699,145.684c2.63,0,5.21-1.07,7.07-2.93c1.86-1.86,2.93-4.44,2.93-7.07c0-2.64-1.07-5.21-2.93-7.07
			c-1.86-1.87-4.44-2.93-7.07-2.93c-2.64,0-5.21,1.06-7.08,2.93c-1.86,1.86-2.92,4.431-2.92,7.07c0,2.63,1.06,5.21,2.92,7.07
			C250.49,144.614,253.07,145.684,255.699,145.684z"/>
		<path id="XMLID_1865_" d="M509.101,392.963c-3.905-3.904-10.237-3.904-14.143,0c-10.333,10.333-21.177,19.85-32.435,28.586
			l-77.69-123.21c-2.947-4.672-9.122-6.069-13.792-3.125c-4.672,2.946-6.071,9.121-3.125,13.793l42.341,67.15l-32.902-9.837
			l-58.668-93.419c-0.459-1.172-1.133-2.233-1.973-3.141l-48.625-77.426c7.509-1.641,14.476-4.739,20.593-8.985l39.47,62.597
			c1.902,3.016,5.149,4.667,8.468,4.667c1.823,0,3.668-0.498,5.324-1.542c4.672-2.946,6.071-9.121,3.125-13.793l-41.863-66.391
			c6.6-9.415,10.489-20.862,10.489-33.207c0-18.387-8.611-34.791-22-45.425V36.014c0-19.851-16.149-36-36-36s-36,16.149-36,36
			v54.242c-13.389,10.634-22,27.038-22,45.425c0,12.345,3.889,23.792,10.489,33.207l-50.406,79.939v-29.424
			c0-20.953-17.047-38-38-38s-38,17.047-38,38v51.798c-4.605,0.895-8.083,4.946-8.083,9.812v30.333H64.03c-5.523,0-10,4.478-10,10
			s4.477,10,10,10h9.667v30.334c0,4.866,3.478,8.917,8.083,9.812v28.688c0,1.423,0.304,2.829,0.891,4.125l24.051,53.112
			c-22.464-11.147-44.03-24.955-64.243-41.486c-4.275-3.496-10.576-2.865-14.072,1.41c-3.497,4.275-2.865,10.575,1.41,14.072
			c63.951,52.303,143.673,80.602,226.141,80.602c5.664,0,11.346-0.134,17.032-0.402c89.072-4.206,172.925-41.321,236.112-104.508
			C513.006,403.2,513.006,396.868,509.101,392.963z M255.655,210.14l35.421,56.402h-71.195L255.655,210.14z M239.696,36.014
			c0-8.822,7.178-16,16-16s16,7.178,16,16v43.929c-5.086-1.462-10.45-2.262-16-2.262s-10.914,0.8-16,2.262V36.014z M255.696,97.681
			c20.953,0,38,17.047,38,38s-17.047,38-38,38s-38-17.047-38-38S234.743,97.681,255.696,97.681z M222.711,183.35
			c6.108,4.24,13.063,7.333,20.558,8.977L157.78,327.112v-40.786L222.711,183.35z M101.78,248.654h36v22.36h-36V248.654z
			 M93.696,351.681v-60.667h44v60.667H93.696z M137.78,371.681v18.5h-36v-18.5H137.78z M132.274,410.181l-12.494,27.591
			l-12.494-27.591H132.274z M119.78,201.404c9.925,0,18,8.075,18,18v9.25h-36v-9.25C101.78,209.479,109.854,201.404,119.78,201.404z
			 M128.312,467.2c0.208-0.342,0.409-0.69,0.577-1.062l28-61.833c0.587-1.296,0.891-2.702,0.891-4.125v-35.727l49.416-77.912h96.441
			l58.782,93.6c1.289,2.053,3.281,3.568,5.604,4.263l58.456,17.478l19.86,31.496C352.049,498.019,232.362,509.979,128.312,467.2z"/>
		<path id="XMLID_1885_" d="M17.072,392.934c-0.007-0.006-0.013-0.013-0.02-0.02c-0.001-0.001-0.002-0.002-0.003-0.003
			c-0.002-0.002-0.004-0.004-0.006-0.006s-0.004-0.004-0.006-0.006c-0.001-0.001-0.003-0.003-0.004-0.004
			c-0.002-0.002-0.005-0.005-0.007-0.007c-0.001-0.001-0.002-0.003-0.003-0.004c-0.003-0.003-0.005-0.005-0.008-0.008
			c-0.001-0.001-0.003-0.003-0.004-0.004c-0.002-0.003-0.005-0.005-0.007-0.008c-0.001-0.001-0.003-0.002-0.004-0.004
			c-0.002-0.002-0.005-0.004-0.007-0.007c-0.001-0.001-0.002-0.003-0.003-0.004c-0.003-0.002-0.005-0.005-0.008-0.008
			c-0.001-0.001-0.002-0.002-0.004-0.004c-0.002-0.002-0.005-0.005-0.007-0.007c-0.001-0.001-0.002-0.003-0.003-0.004
			c-0.003-0.002-0.005-0.005-0.008-0.008c-0.001-0.001-0.002-0.002-0.003-0.003c-0.003-0.003-0.005-0.006-0.008-0.008
			c-0.001-0.001-0.002-0.002-0.003-0.003c-0.003-0.003-0.005-0.006-0.008-0.009c-0.001-0.001-0.002-0.002-0.003-0.003
			c-0.003-0.002-0.005-0.005-0.008-0.008c-0.001-0.001-0.002-0.002-0.003-0.003c-0.003-0.003-0.006-0.006-0.009-0.008
			c-0.001-0.001-0.002-0.002-0.003-0.003c-0.003-0.003-0.006-0.006-0.009-0.009c-0.001-0.001-0.002-0.002-0.003-0.003
			c-0.003-0.003-0.006-0.005-0.009-0.008c-0.001-0.001-0.003-0.003-0.004-0.004c-0.002-0.003-0.005-0.005-0.007-0.007
			c-0.001-0.002-0.003-0.003-0.005-0.005c-0.002-0.002-0.004-0.004-0.007-0.007c-0.001-0.001-0.003-0.003-0.005-0.004
			c-0.002-0.003-0.004-0.005-0.007-0.007c-0.002-0.002-0.003-0.003-0.005-0.005c-0.002-0.002-0.004-0.004-0.007-0.006
			c-0.002-0.002-0.003-0.004-0.005-0.006c-0.002-0.001-0.004-0.003-0.006-0.005s-0.004-0.004-0.006-0.006s-0.004-0.004-0.006-0.005
			c-0.002-0.003-0.004-0.005-0.007-0.007c-0.001-0.001-0.003-0.003-0.005-0.005c-0.002-0.002-0.004-0.004-0.007-0.007
			c-0.002-0.001-0.003-0.002-0.004-0.004c-0.003-0.002-0.005-0.005-0.008-0.007c-0.001-0.001-0.002-0.003-0.003-0.004
			c-0.003-0.003-0.006-0.005-0.009-0.008c-0.001-0.001-0.002-0.002-0.003-0.003c-0.003-0.003-0.007-0.006-0.01-0.009
			c-0.001-0.001-0.001-0.001-0.002-0.002c-0.004-0.003-0.007-0.007-0.011-0.01l0-0.001c-3.924-3.591-10.02-3.488-13.818,0.311
			c-3.905,3.905-3.905,10.237,0,14.143l0.059,0.059c0.007,0.006,0.013,0.013,0.02,0.02c0.001,0.001,0.002,0.002,0.003,0.003
			c0.002,0.002,0.004,0.004,0.006,0.006s0.004,0.004,0.006,0.006c0.001,0.001,0.003,0.003,0.004,0.004
			c0.002,0.002,0.005,0.005,0.007,0.007c0.001,0.001,0.002,0.003,0.003,0.004c0.003,0.003,0.005,0.005,0.008,0.008
			c0.001,0.001,0.003,0.003,0.004,0.004c0.002,0.003,0.005,0.005,0.007,0.008c0.001,0.001,0.003,0.002,0.004,0.004
			c0.002,0.002,0.005,0.004,0.007,0.007c0.001,0.001,0.002,0.003,0.003,0.004c0.003,0.002,0.005,0.005,0.008,0.008
			c0.001,0.001,0.002,0.002,0.004,0.004c0.002,0.002,0.005,0.005,0.007,0.007c0.001,0.001,0.002,0.003,0.003,0.004
			c0.003,0.002,0.005,0.005,0.008,0.008c0.001,0.001,0.002,0.002,0.003,0.003c0.003,0.003,0.005,0.006,0.008,0.008
			c0.001,0.001,0.002,0.002,0.003,0.003c0.003,0.003,0.005,0.006,0.008,0.009c0.001,0.001,0.002,0.002,0.003,0.003
			c0.003,0.002,0.005,0.005,0.008,0.008c0.001,0.001,0.002,0.002,0.003,0.003c0.003,0.003,0.006,0.006,0.009,0.008
			c0.001,0.001,0.002,0.002,0.003,0.003c0.003,0.003,0.006,0.006,0.009,0.009c0.001,0.001,0.002,0.002,0.003,0.003
			c0.003,0.003,0.006,0.005,0.009,0.008c0.001,0.001,0.003,0.003,0.004,0.004c0.002,0.003,0.005,0.005,0.007,0.007
			c0.001,0.002,0.003,0.003,0.005,0.005c0.002,0.002,0.004,0.004,0.007,0.007c0.001,0.001,0.003,0.003,0.005,0.004
			c0.002,0.003,0.004,0.005,0.007,0.007c0.002,0.002,0.003,0.003,0.005,0.005c0.002,0.002,0.004,0.004,0.007,0.006
			c0.002,0.002,0.003,0.004,0.005,0.006c0.002,0.001,0.004,0.003,0.006,0.005s0.004,0.004,0.006,0.006s0.004,0.004,0.006,0.005
			c0.002,0.003,0.004,0.005,0.007,0.007c0.001,0.001,0.003,0.003,0.005,0.005c0.002,0.002,0.004,0.004,0.007,0.007
			c0.002,0.001,0.003,0.002,0.004,0.004c0.003,0.002,0.005,0.005,0.008,0.007c0.001,0.001,0.002,0.003,0.003,0.004
			c0.003,0.003,0.006,0.005,0.009,0.008c0.001,0.001,0.002,0.002,0.003,0.003c0.003,0.003,0.007,0.006,0.01,0.009
			c0.001,0.001,0.001,0.001,0.002,0.002c0.004,0.003,0.007,0.007,0.011,0.01l0,0.001c1.907,1.745,4.327,2.618,6.747,2.618
			c2.559,0,5.119-0.977,7.071-2.929c3.905-3.905,3.905-10.237,0-14.143L17.072,392.934z"/>
	</g>
</g>
<g>
</g>
<g>
</g>
<g>
</g>
<g>
</g>
<g>
</g>
<g>
</g>
<g>
</g>
<g>
</g>
<g>
</g>
<g>
</g>
<g>
</g>
<g>
</g>
<g>
</g>
<g>
</g>
<g>
</g>
</svg>
