<?xml version="1.0" encoding="iso-8859-1"?>
<!-- Generator: Adobe Illustrator 19.0.0, SVG Export Plug-In . SVG Version: 6.00 Build 0)  -->
<svg version="1.1" id="Layer_1" xmlns="http://www.w3.org/2000/svg" xmlns:xlink="http://www.w3.org/1999/xlink" x="0px" y="0px"
	 viewBox="0 0 512 512" style="enable-background:new 0 0 512 512;" xml:space="preserve">
<g id="XMLID_2145_">
	<g id="XMLID_2200_">
		<path id="XMLID_2206_" style="fill:#9BE3FF;" d="M10,447.901v14c0,22.091,17.909,40,40,40h412c22.091,0,40-17.909,40-40v-14H10z"
			/>
		<path id="XMLID_2205_" style="fill:#C9F3FF;" d="M71,143.913h-4c-22.091,0-40,17.909-40,40v262.421
			c0,0.872,0.707,1.579,1.579,1.579h454.842c0.872,0,1.579-0.707,1.579-1.579V183.913c0-22.091-17.909-40-40-40h-5.833H71z"/>
	</g>
	<g id="XMLID_2273_">
		<polygon id="XMLID_2290_" style="fill:#FFFFFF;" points="142.829,447.901 96,447.901 96,10.099 416,10.099 416,447.901 		"/>
		<rect id="XMLID_2289_" x="96" y="10.099" style="fill:#7D91FF;" width="320" height="64.8"/>
		<g id="XMLID_3173_">
			<path id="XMLID_40_" style="fill:#231F20;" d="M103.157,74.899h308.94"/>
		</g>
	</g>
	<g id="XMLID_2172_">
		<path id="XMLID_2178_" style="fill:#FFC66C;" d="M249,319.901h221c17.673,0,32,14.327,32,32v0c0,17.673-14.327,32-32,32H249
			l-74.328-32L249,319.901z"/>
		<polygon id="XMLID_2177_" style="fill:#FEDA9B;" points="174.672,351.901 249,383.901 249,319.901 		"/>
		<path id="XMLID_2176_" style="fill:#FF5D5D;" d="M448,383.901h22c17.673,0,32-14.327,32-32v0c0-17.673-14.327-32-32-32h-22
			V383.901z"/>
	</g>
	<rect id="XMLID_813_" x="144" y="122.899" style="fill:#C9F3FF;" width="224.333" height="104"/>
	<polygon id="XMLID_1199_" style="fill:#62CD4D;" points="235.834,226.899 368.333,226.899 368.333,218.736 306.166,156.568 	"/>
	<polygon id="XMLID_1195_" style="fill:#B5EB7C;" points="219.166,151.733 144,226.899 294.331,226.899 	"/>
	<g id="XMLID_1384_">
		<path id="XMLID_1891_" d="M502,437.901h-7v-52.274c10.308-7.661,17-19.926,17-33.726s-6.692-26.065-17-33.726V183.913
			c0-27.57-22.43-50-50-50h-19V10.099c0-5.522-4.478-10-10-10H96c-5.522,0-10,4.478-10,10v123.814H67c-27.57,0-50,22.43-50,50
			v253.988h-7c-5.522,0-10,4.478-10,10v14c0,27.57,22.43,50,50,50h412c27.57,0,50-22.43,50-50v-14
			C512,442.379,507.522,437.901,502,437.901z M475,437.901h-49v-44h44c1.693,0,3.359-0.112,5-0.308V437.901z M470,329.901
			c12.131,0,22,9.869,22,22s-9.869,22-22,22h-12v-44H470z M445,153.913c16.542,0,30,13.458,30,30v126.296
			c-1.641-0.196-3.307-0.308-5-0.308h-44V153.913H445z M406,20.099v44.8H106v-44.8H406z M37,183.913c0-16.542,13.458-30,30-30h19
			v17.762c0,5.522,4.478,10,10,10s10-4.478,10-10V84.898h300v225.003H249c-1.359,0-2.705,0.277-3.954,0.815l-74.328,32
			c-3.669,1.579-6.046,5.19-6.046,9.185s2.377,7.605,6.046,9.185l74.328,32c1.249,0.538,2.595,0.815,3.954,0.815h53.084
			c5.522,0,10-4.478,10-10s-4.478-10-10-10H259v-44h179v44h-58.5c-5.522,0-10,4.478-10,10s4.478,10,10,10H406v44H106V254.234
			c0-5.522-4.478-10-10-10s-10,4.478-10,10v183.667H37V183.913z M199.961,351.901L239,335.094v33.614L199.961,351.901z M492,461.901
			c0,16.542-13.458,30-30,30H50c-16.542,0-30-13.458-30-30v-4h8.348c0.078,0.001,0.153,0.012,0.231,0.012h454.842
			c0.078,0,0.154-0.01,0.231-0.012H492V461.901z"/>
		<path id="XMLID_1907_" d="M274,464.901h-36.083c-5.522,0-10,4.478-10,10s4.478,10,10,10H274c5.522,0,10-4.478,10-10
			S279.522,464.901,274,464.901z"/>
		<path id="XMLID_1908_" d="M265,52.499h103.333c5.522,0,10-4.478,10-10s-4.478-10-10-10H265c-5.522,0-10,4.478-10,10
			S259.478,52.499,265,52.499z"/>
		<path id="XMLID_1909_" d="M167.729,52.5c2.63,0,5.2-1.07,7.07-2.931c1.86-1.859,2.93-4.439,2.93-7.069s-1.069-5.21-2.93-7.07
			c-1.86-1.87-4.44-2.93-7.07-2.93s-5.21,1.06-7.069,2.93c-1.86,1.86-2.931,4.44-2.931,7.07s1.07,5.21,2.931,7.069
			C162.52,51.43,165.1,52.5,167.729,52.5z"/>
		<path id="XMLID_1910_" d="M131.12,52.5c2.63,0,5.21-1.07,7.069-2.931c1.86-1.859,2.931-4.439,2.931-7.069s-1.07-5.21-2.931-7.07
			c-1.859-1.87-4.439-2.93-7.069-2.93s-5.21,1.06-7.07,2.93c-1.86,1.86-2.93,4.44-2.93,7.07s1.069,5.21,2.93,7.069
			C125.91,51.43,128.49,52.5,131.12,52.5z"/>
		<path id="XMLID_1911_" d="M204.33,52.5c2.63,0,5.21-1.07,7.069-2.931c1.87-1.859,2.931-4.439,2.931-7.069s-1.061-5.21-2.931-7.07
			c-1.859-1.87-4.43-2.93-7.069-2.93c-2.63,0-5.21,1.06-7.07,2.93c-1.86,1.86-2.93,4.44-2.93,7.07s1.069,5.21,2.93,7.069
			C199.12,51.43,201.7,52.5,204.33,52.5z"/>
		<path id="XMLID_1912_" d="M96,223.569c2.63,0,5.21-1.069,7.069-2.93c1.86-1.859,2.931-4.439,2.931-7.07
			c0-2.63-1.07-5.21-2.931-7.069c-1.859-1.87-4.439-2.931-7.069-2.931s-5.21,1.061-7.07,2.931c-1.86,1.859-2.93,4.43-2.93,7.069
			c0,2.631,1.069,5.211,2.93,7.07C90.79,222.5,93.37,223.569,96,223.569z"/>
		<path id="XMLID_1913_" d="M338.34,393.899c2.63,0,5.2-1.069,7.07-2.93c1.859-1.86,2.93-4.439,2.93-7.07
			c0-2.63-1.07-5.21-2.93-7.069c-1.86-1.86-4.44-2.931-7.07-2.931c-2.64,0-5.22,1.07-7.07,2.931c-1.87,1.859-2.93,4.439-2.93,7.069
			c0,2.631,1.06,5.21,2.93,7.07C333.13,392.83,335.7,393.899,338.34,393.899z"/>
		<path id="XMLID_1920_" d="M144,236.898h224.333c5.522,0,10-4.478,10-10v-104c0-5.522-4.478-10-10-10H144c-5.522,0-10,4.478-10,10
			v104C134,232.421,138.478,236.898,144,236.898z M297.738,216.163l-18.596-18.596L306,170.71l46.188,46.188h-53.786
			C298.195,216.646,297.975,216.399,297.738,216.163z M257.925,204.635c0.001,0.001,0.002,0.003,0.004,0.004
			s0.003,0.002,0.004,0.004l12.256,12.256H168.143l51.023-51.023L257.925,204.635z M358.333,132.898v61.859l-45.262-45.262
			c-3.906-3.904-10.236-3.904-14.143,0L265,183.425l-38.763-38.763c-3.905-3.903-10.235-3.904-14.143,0L154,202.756v-69.858H358.333
			z"/>
		<path id="XMLID_1925_" d="M144,284.901h44.333c5.522,0,10-4.478,10-10s-4.478-10-10-10H144c-5.522,0-10,4.478-10,10
			S138.478,284.901,144,284.901z"/>
		<path id="XMLID_1926_" d="M278.167,264.901h-44.334c-5.522,0-10,4.478-10,10s4.478,10,10,10h44.334c5.522,0,10-4.478,10-10
			S283.689,264.901,278.167,264.901z"/>
		<path id="XMLID_1928_" d="M368,264.901h-44.333c-5.522,0-10,4.478-10,10s4.478,10,10,10H368c5.522,0,10-4.478,10-10
			S373.522,264.901,368,264.901z"/>
	</g>
</g>
<g>
</g>
<g>
</g>
<g>
</g>
<g>
</g>
<g>
</g>
<g>
</g>
<g>
</g>
<g>
</g>
<g>
</g>
<g>
</g>
<g>
</g>
<g>
</g>
<g>
</g>
<g>
</g>
<g>
</g>
</svg>
