<?xml version="1.0" encoding="iso-8859-1"?>
<!-- Generator: Adobe Illustrator 19.0.0, SVG Export Plug-In . SVG Version: 6.00 Build 0)  -->
<svg version="1.1" id="Layer_1" xmlns="http://www.w3.org/2000/svg" xmlns:xlink="http://www.w3.org/1999/xlink" x="0px" y="0px"
	 viewBox="0 0 512 512" style="enable-background:new 0 0 512 512;" xml:space="preserve">
<g id="XMLID_1701_">
	<path id="XMLID_2540_" style="fill:#C9F3FF;" d="M282.407,239.961c11.604,10.385,21.097,22.745,28.001,36.414h119.89
		c6.995-13.795,16.568-26.286,28.239-36.828c26.69-24.11,43.464-58.988,43.464-97.788C502,68.974,442.984,9.974,370.194,10
		c-72.699,0.026-131.711,59.061-131.71,131.759C238.484,180.782,255.45,215.838,282.407,239.961z"/>
	<g id="XMLID_2531_">
		<polygon id="XMLID_2537_" style="fill:#FF5D5D;" points="309.55,84.52 280.274,129.174 455.164,129.174 426.001,84.52 		"/>
		<polygon id="XMLID_2535_" style="fill:#FF5D5D;" points="280.269,129.174 367.717,227.793 455.164,129.174 		"/>
		<polygon id="XMLID_2534_" style="fill:#FE8F8D;" points="392.174,144.908 396.859,129.174 338.575,129.174 367.717,227.041 
			385.607,166.959 		"/>
	</g>
	<rect id="XMLID_2515_" x="10" y="293.525" style="fill:#4DBAF6;" width="142.641" height="200.136"/>
	<path id="XMLID_2308_" style="fill:#FFCB97;" d="M152.641,306.034l59.489-43.368c16.109-11.743,38.274-10.45,52.908,3.087l0,0
		c7.71,7.133,17.827,11.095,28.331,11.095H427.48c15.544,0,28.144,12.6,28.144,28.144v0c0,15.544-12.601,28.144-28.144,28.144
		h-72.966h-16.678h105.28c15.544,0,28.144,12.601,28.144,28.144v0c0,15.544-12.601,28.144-28.144,28.144h-67.754h-37.525h105.28
		c15.544,0,28.144,12.601,28.144,28.144v0c0,15.544-12.601,28.144-28.144,28.144h-105.28h37.525h52.119
		c15.544,0,28.144,12.6,28.144,28.144v0c0,15.544-12.601,28.144-28.144,28.144h-188.77c-18.877,0-36.982-7.499-50.33-20.847h0
		h-35.738V306.034z"/>
	<g id="XMLID_1415_">
		<path id="XMLID_1834_" d="M367.717,237.793c2.86,0,5.584-1.225,7.482-3.365l87.447-98.619c-0.004-0.006-0.007-0.012-0.011-0.018
			c0.5-0.565,0.954-1.177,1.322-1.857c1.748-3.228,1.586-7.154-0.422-10.228l-29.163-44.653c-1.846-2.828-4.995-4.532-8.372-4.532
			H309.55c-3.371,0-6.515,1.698-8.363,4.517L271.91,123.69c-2.014,3.073-2.182,7.003-0.436,10.235
			c0.366,0.678,0.819,1.289,1.316,1.853c-0.001,0.01-0.002,0.02-0.004,0.03l87.447,98.619
			C362.133,236.568,364.856,237.793,367.717,237.793z M382.59,142.055L382.59,142.055l-14.873,49.946l-15.73-52.827h31.461
			L382.59,142.055z M389.846,187.764l11.912-40.002l2.557-8.588h28.617L389.846,187.764z M314.951,94.521h105.637l16.102,24.653
			h-39.831h-58.284h-39.787L314.951,94.521z M331.118,139.174l14.469,48.59l-43.085-48.59H331.118z"/>
		<path id="XMLID_1887_" d="M337.83,492c-2.63,0-5.21,1.069-7.07,2.93s-2.92,4.44-2.92,7.07s1.06,5.21,2.92,7.069
			c1.86,1.86,4.44,2.931,7.07,2.931c2.64,0,5.21-1.07,7.069-2.931c1.87-1.859,2.931-4.439,2.931-7.069s-1.061-5.21-2.931-7.07
			C343.04,493.069,340.47,492,337.83,492z"/>
		<path id="XMLID_1892_" d="M481.259,361.279c0-15.4-9.18-28.689-22.35-34.706c4.231-6.142,6.715-13.576,6.715-21.582
			c0-14.779-8.454-27.612-20.775-33.942c5.634-8.84,12.455-16.914,20.391-24.081C494.956,220.124,512,181.777,512,141.759
			c0-37.874-14.752-73.479-41.537-100.256C443.688,14.737,408.101,0,370.242,0c-0.016,0-0.036,0-0.053,0
			c-78.138,0.028-141.707,63.622-141.706,141.76c0,40.27,17.224,78.779,47.255,105.653c6.556,5.866,12.336,12.37,17.304,19.427
			c-7.891-0.08-15.414-3.063-21.214-8.428c-18.092-16.735-45.676-18.345-65.59-3.827l-45.461,33.142
			c-1.813-2.54-4.778-4.201-8.137-4.201H10c-5.522,0-10,4.478-10,10s4.478,10,10,10h84.641v118.142c0,5.522,4.478,10,10,10
			s10-4.478,10-10V303.525h28v180.136H10c-5.522,0-10,4.478-10,10s4.478,10,10,10h142.641c5.522,0,10-4.478,10-10v-2.509h21.75
			C199.321,504.628,218.448,512,238.709,512H296c5.522,0,10-4.478,10-10s-4.478-10-10-10h-57.291
			c-16.341,0-31.704-6.363-43.259-17.919c-1.876-1.875-4.419-2.929-7.071-2.929h-25.738V311.119l55.379-40.372
			c12.213-8.902,29.132-7.918,40.227,2.347c9.589,8.869,22.062,13.754,35.122,13.754h134.111c10.005,0,18.145,8.139,18.145,18.144
			s-8.14,18.145-18.145,18.145h-72.966h-16.679c-5.522,0-10,4.478-10,10s4.478,10,10,10h16.679h72.966h15.636
			c10.004,0,18.144,8.14,18.144,18.144c0,10.005-8.14,18.145-18.144,18.145h-67.754h-37.526c-5.522,0-10,4.478-10,10s4.478,10,10,10
			h37.526h67.754c10.004,0,18.144,8.139,18.144,18.144s-8.14,18.145-18.144,18.145h-15.636h-52.118h-37.526c-5.522,0-10,4.478-10,10
			s4.478,10,10,10h37.526h52.118c10.005,0,18.145,8.14,18.145,18.145c0,10.004-8.14,18.144-18.145,18.144H379
			c-5.522,0-10,4.478-10,10s4.478,10,10,10h48.479c21.033,0,38.145-17.111,38.145-38.145c0-8.005-2.484-15.439-6.715-21.581
			c13.17-6.018,22.35-19.306,22.35-34.707c0-11.132-4.795-21.164-12.427-28.144C476.463,382.444,481.259,372.412,481.259,361.279z
			 M248.483,141.76C248.482,74.646,303.083,20.024,370.197,20c0.016,0,0.029,0,0.045,0c32.515,0,63.085,12.659,86.081,35.647
			C479.33,78.646,492,109.229,492,141.759c0,34.371-14.641,67.31-40.167,90.367c-11.061,9.991-20.298,21.491-27.518,34.249H316.397
			c-7.15-12.65-16.321-24.021-27.321-33.866C263.278,209.424,248.483,176.348,248.483,141.76z"/>
		<path id="XMLID_1893_" d="M111.71,462.8c1.859-1.86,2.93-4.44,2.93-7.07s-1.07-5.21-2.93-7.069c-1.86-1.86-4.44-2.931-7.07-2.931
			s-5.21,1.07-7.07,2.931c-1.859,1.859-2.93,4.439-2.93,7.069s1.07,5.21,2.93,7.07c1.86,1.87,4.44,2.93,7.07,2.93
			S109.85,464.67,111.71,462.8z"/>
	</g>
</g>
<g>
</g>
<g>
</g>
<g>
</g>
<g>
</g>
<g>
</g>
<g>
</g>
<g>
</g>
<g>
</g>
<g>
</g>
<g>
</g>
<g>
</g>
<g>
</g>
<g>
</g>
<g>
</g>
<g>
</g>
</svg>
