<?xml version="1.0" encoding="iso-8859-1"?>
<!-- Generator: Adobe Illustrator 19.0.0, SVG Export Plug-In . SVG Version: 6.00 Build 0)  -->
<svg version="1.1" id="Layer_1" xmlns="http://www.w3.org/2000/svg" xmlns:xlink="http://www.w3.org/1999/xlink" x="0px" y="0px"
	 viewBox="0 0 512 512" style="enable-background:new 0 0 512 512;" xml:space="preserve">
<g id="XMLID_1355_">
	<g id="XMLID_2312_">
		<path id="XMLID_2335_" style="fill:#FFB954;" d="M37,458V54c0-24.301,19.699-44,44-44h0c24.301,0,44,19.699,44,44v404H37z"/>
		<path id="XMLID_3019_" style="fill:#FFFFFF;" d="M125,458h330c11.046,0,20-8.954,20-20V282V74c0-11.046-8.954-20-20-20H125
			v401.212"/>
		<path id="XMLID_2333_" style="fill:#FEDA9B;" d="M125,455.212"/>
		<path id="XMLID_2331_" style="fill:#FEDA9B;" d="M420.451,465.09V482c0,11.046-8.954,20-20,20H81c-24.301,0-44-19.699-44-44v0
			c0-24.301,19.699-44,44-44h0c24.301,0,44,19.699,44,44"/>
	</g>
	<g id="XMLID_2374_">
		<rect id="XMLID_2380_" x="268" y="102" style="fill:#4DBAF6;" width="64" height="64"/>
		<g id="XMLID_989_">
			<circle id="XMLID_2383_" style="fill:#B5EB7C;" cx="404" cy="243" r="28"/>
			<circle id="XMLID_2382_" style="fill:#FFB954;" cx="300" cy="243" r="28"/>
			<circle id="XMLID_2381_" style="fill:#B5EB7C;" cx="195.874" cy="243" r="28"/>
		</g>
		
			<rect id="XMLID_1085_" x="171.125" y="334.585" transform="matrix(0.7071 -0.7071 0.7071 0.7071 -196.7168 243.7503)" style="fill:#FEDA9B;" width="49.498" height="49.498"/>
		<polygon id="XMLID_1083_" style="fill:#9BE3FF;" points="369.862,383.461 404,324.333 438.138,383.461 		"/>
		<g id="XMLID_1838_">
			<path id="XMLID_1839_" d="M125,374c-2.63,0-5.21,1.069-7.07,2.93S115,381.37,115,384s1.069,5.21,2.93,7.069
				c1.86,1.86,4.43,2.931,7.07,2.931c2.63,0,5.21-1.07,7.069-2.931C133.93,389.21,135,386.63,135,384s-1.07-5.21-2.931-7.07
				C130.21,375.069,127.63,374,125,374z"/>
			<path id="XMLID_1957_" d="M455,44H134.057C129.352,18.988,107.358,0,81,0C51.225,0,27,24.225,27,54v404c0,29.775,24.225,54,54,54
				h319.451c16.542,0,30-13.458,30-30v-14H455c16.542,0,30-13.458,30-30V74C485,57.458,471.542,44,455,44z M410.451,482
				c0,5.514-4.486,10-10,10H81c-18.748,0-34-15.252-34-34s15.252-34,34-34s34,15.252,34,34c0,5.522,4.478,10,10,10h285.451V482z
				 M465,438c0,5.514-4.486,10-10,10H134.072c-4.704-25.014-26.713-44-53.072-44c-12.877,0-24.71,4.537-34,12.088V54
				c0-18.748,15.252-34,34-34s34,15.252,34,34v289.667c0,5.522,4.478,10,10,10s10-4.478,10-10V64h320c5.514,0,10,4.486,10,10V438z"
				/>
			<path id="XMLID_1961_" d="M414,321.654v-41.999c16.116-4.402,28-19.163,28-36.655c0-20.953-17.047-38-38-38
				c-17.492,0-32.253,11.884-36.655,28h-30.689c-3.531-12.927-13.728-23.124-26.655-26.655V176h22c5.522,0,10-4.478,10-10v-64
				c0-5.522-4.478-10-10-10h-64c-5.522,0-10,4.478-10,10v64c0,5.522,4.478,10,10,10h22v30.345
				c-12.927,3.531-23.124,13.728-26.655,26.655h-30.815c-4.402-16.116-19.163-28-36.655-28c-20.953,0-38,17.047-38,38
				c0,17.492,11.884,32.253,28,36.655v40.535l-32.071,32.071c-3.905,3.905-3.905,10.237,0,14.143l35,35
				c1.953,1.952,4.512,2.929,7.071,2.929s5.118-0.977,7.071-2.929l32.071-32.071h56.65c5.522,0,10-4.478,10-10s-4.478-10-10-10
				h-56.65l-29.143-29.143v-40.535c12.927-3.531,23.124-13.728,26.655-26.655h30.815c4.402,16.116,19.163,28,36.655,28
				s32.253-11.884,36.655-28h30.689c3.531,12.927,13.728,23.124,26.655,26.655v41.999l-32.798,56.807c-1.786,3.094-1.786,6.906,0,10
				s5.088,5,8.66,5h68.275c3.572,0,6.874-1.906,8.66-5s1.786-6.906,0-10L414,321.654z M278,112h44v44h-44V112z M195.874,380.19
				l-20.857-20.857l20.857-20.857l20.857,20.857L195.874,380.19z M195.874,261c-9.925,0-18-8.075-18-18s8.075-18,18-18
				s18,8.075,18,18S205.799,261,195.874,261z M300,261c-9.925,0-18-8.075-18-18s8.075-18,18-18s18,8.075,18,18S309.925,261,300,261z
				 M386,243c0-9.925,8.075-18,18-18s18,8.075,18,18s-8.075,18-18,18S386,252.925,386,243z M387.183,373.461L404,344.333
				l16.817,29.128H387.183z"/>
			<path id="XMLID_1969_" d="M332.67,349.33c-2.64,0-5.21,1.069-7.07,2.93c-1.87,1.86-2.93,4.44-2.93,7.07
				c0,2.64,1.06,5.21,2.93,7.069c1.86,1.87,4.44,2.931,7.07,2.931s5.21-1.061,7.07-2.931c1.859-1.859,2.93-4.439,2.93-7.069
				s-1.07-5.21-2.93-7.07C337.88,350.399,335.3,349.33,332.67,349.33z"/>
		</g>
	</g>
</g>
<g>
</g>
<g>
</g>
<g>
</g>
<g>
</g>
<g>
</g>
<g>
</g>
<g>
</g>
<g>
</g>
<g>
</g>
<g>
</g>
<g>
</g>
<g>
</g>
<g>
</g>
<g>
</g>
<g>
</g>
</svg>
