<?xml version="1.0" encoding="iso-8859-1"?>
<!-- Generator: Adobe Illustrator 19.0.0, SVG Export Plug-In . SVG Version: 6.00 Build 0)  -->
<svg version="1.1" id="Layer_1" xmlns="http://www.w3.org/2000/svg" xmlns:xlink="http://www.w3.org/1999/xlink" x="0px" y="0px"
	 viewBox="0 0 512 512" style="enable-background:new 0 0 512 512;" xml:space="preserve">
<g id="XMLID_1721_">
	<path id="XMLID_1679_" style="fill:#FFC66C;" d="M336.601,334H181.802c-8.064,0-14.601,6.537-14.601,14.601v138.799
		c0,8.064,6.537,14.601,14.601,14.601h154.799c8.064,0,14.601-6.537,14.601-14.601V348.601C351.201,340.537,344.664,334,336.601,334
		z"/>
	<path id="XMLID_1678_" style="fill:#FFC66C;" d="M336.601,334H181.802c-8.064,0-14.601,6.537-14.601,14.601v138.799
		c0,8.064,6.537,14.601,14.601,14.601h154.799c8.064,0,14.601-6.537,14.601-14.601V348.601C351.201,340.537,344.664,334,336.601,334
		z"/>
	<path id="XMLID_1425_" style="fill:#B5EB7C;" d="M120.463,189.703c25.625,0,49.177,8.864,67.768,23.687
		c18.591-14.823,42.143-23.687,67.768-23.687s49.177,8.864,67.768,23.687c18.591-14.823,42.143-23.687,67.768-23.687
		c25.946,0,49.766,9.088,68.463,24.246C459.972,101.306,368.65,10,256,10C143.351,10,52.028,101.306,52,213.949
		C70.698,198.791,94.517,189.703,120.463,189.703z"/>
	<path id="XMLID_1682_" style="fill:#E0FCA9;" d="M188.292,213.344c18.582-14.794,42.11-23.641,67.708-23.641
		s49.126,8.846,67.708,23.641C323.59,100.979,293.323,10,256,10l0,0C218.677,10,188.41,100.979,188.292,213.344z"/>
	<circle id="XMLID_2405_" style="fill:#FFFFFF;" cx="259.201" cy="418" r="44"/>
	<g id="XMLID_943_">
		<path id="XMLID_1850_" d="M407.304,62.661C366.887,22.254,313.152,0,256,0S145.113,22.254,104.696,62.661
			C64.28,103.068,42.014,156.796,42,213.946c0,2.621,1.041,5.068,2.79,6.897c-0.001,0.01-0.003,0.019-0.004,0.029l114.071,118.873
			c-1.065,2.75-1.655,5.734-1.655,8.854v138.799c0,13.564,11.036,24.601,24.601,24.601h154.799
			c13.564,0,24.601-11.036,24.601-24.601V348.601c0-3.137-0.597-6.136-1.672-8.898l48.723-53.762
			c3.708-4.092,3.397-10.416-0.695-14.125c-4.091-3.707-10.417-3.399-14.125,0.695l-48.114,53.09
			c-2.711-1.031-5.648-1.601-8.717-1.601h-37.052l32.739-104.537c17.186-12.927,37.603-19.76,59.25-19.76
			c22.577,0,44.655,7.818,62.165,22.014c1.816,1.473,4.048,2.232,6.3,2.232c1.461,0,2.932-0.32,4.302-0.974
			c3.48-1.659,5.697-5.173,5.696-9.029C469.986,156.796,447.72,103.068,407.304,62.661z M294.388,72.9
			c10.93,32.927,17.551,75.524,19.013,121.562c-17.452-9.69-36.972-14.759-57.401-14.759s-39.949,5.068-57.401,14.759
			c1.462-46.037,8.083-88.635,19.013-121.562C228.442,40.271,243.152,20,256,20S283.558,40.271,294.388,72.9z M173.023,325.625
			L67.184,215.33c15.819-10.123,34.368-15.627,53.279-15.627c21.629,0,42.031,6.822,59.208,19.729L212.42,324h-30.618
			C178.71,324,175.752,324.579,173.023,325.625z M218.981,23.548c-7.589,10.786-14.422,25.19-20.352,43.052
			c-11.599,34.947-18.586,79.927-20.048,128.268c-17.633-9.954-37.408-15.164-58.119-15.164c-20.163,0-39.996,5.188-57.496,14.851
			C71.522,109.021,135.876,39.673,218.981,23.548z M341.201,348.601v138.799c0,2.537-2.063,4.601-4.601,4.601H181.802
			c-2.537,0-4.601-2.063-4.601-4.601V348.601c0-2.537,2.063-4.601,4.601-4.601h44.152c0.024,0,0.049,0.003,0.073,0.003
			c0.026,0,0.052-0.003,0.078-0.003h59.758c0.026,0,0.052,0.003,0.078,0.003c0.024,0,0.049-0.003,0.073-0.003h50.587
			C339.138,344,341.201,346.063,341.201,348.601z M233.377,324l-33.456-106.826c16.505-11.44,35.749-17.471,56.078-17.471
			c20.319,0,39.553,6.024,56.052,17.453L278.59,324H233.377z M391.537,179.703c-20.71,0-40.485,5.21-58.119,15.164
			c-1.462-48.341-8.449-93.321-20.048-128.268c-5.929-17.862-12.763-32.266-20.352-43.052
			c83.105,16.125,147.459,85.473,156.015,171.006C431.533,184.891,411.7,179.703,391.537,179.703z"/>
		<path id="XMLID_1939_" d="M259.201,364c-29.775,0-54,24.225-54,54s24.225,54,54,54s54-24.225,54-54S288.977,364,259.201,364z
			 M259.201,452c-18.748,0-34-15.252-34-34s15.252-34,34-34s34,15.252,34,34S277.949,452,259.201,452z"/>
		<path id="XMLID_1940_" d="M264.206,402.707l-9.373,9.373l-0.637-0.638c-3.906-3.904-10.236-3.904-14.143,0
			c-3.905,3.905-3.905,10.237,0,14.143l7.708,7.708c1.953,1.952,4.512,2.929,7.071,2.929c2.559,0,5.118-0.977,7.071-2.929
			l16.444-16.443c3.905-3.905,3.905-10.236,0-14.143C274.443,398.804,268.113,398.803,264.206,402.707z"/>
		<path id="XMLID_1941_" d="M430.569,236.43c-2.63,0-5.21,1.061-7.069,2.92c-1.86,1.86-2.931,4.44-2.931,7.08
			c0,2.63,1.07,5.21,2.931,7.07c1.859,1.859,4.439,2.92,7.069,2.92c2.631,0,5.21-1.061,7.07-2.92c1.86-1.87,2.93-4.44,2.93-7.07
			c0-2.64-1.069-5.21-2.93-7.08C435.779,237.49,433.2,236.43,430.569,236.43z"/>
	</g>
</g>
<g>
</g>
<g>
</g>
<g>
</g>
<g>
</g>
<g>
</g>
<g>
</g>
<g>
</g>
<g>
</g>
<g>
</g>
<g>
</g>
<g>
</g>
<g>
</g>
<g>
</g>
<g>
</g>
<g>
</g>
</svg>
