<?xml version="1.0" encoding="iso-8859-1"?>
<!-- Generator: Adobe Illustrator 19.0.0, SVG Export Plug-In . SVG Version: 6.00 Build 0)  -->
<svg version="1.1" id="Layer_1" xmlns="http://www.w3.org/2000/svg" xmlns:xlink="http://www.w3.org/1999/xlink" x="0px" y="0px"
	 viewBox="0 0 512 512" style="enable-background:new 0 0 512 512;" xml:space="preserve">
<g id="XMLID_1128_">
	<g id="XMLID_996_">
		<circle id="XMLID_955_" style="fill:#FFC66C;" cx="393.967" cy="393.613" r="29.34"/>
		<circle id="XMLID_954_" style="fill:#FFC66C;" cx="310.868" cy="457.161" r="24"/>
		<path id="XMLID_953_" style="fill:#FFC66C;" d="M491.385,204.327C498.137,192.449,502,178.714,502,164.074
			c0-40.876-30.059-74.729-69.278-80.666c-13.829-42.599-53.837-73.4-101.046-73.4c-35.53,0-66.98,17.447-86.265,44.237
			C229.748,27.764,200.906,10,167.909,10c-44.161,0-80.889,31.813-88.524,73.771c-22.952,1.487-41.111,20.563-41.111,43.89
			c0,5.566,1.044,10.886,2.93,15.788C22.181,157.133,10,178.122,10,201.668c0,41.253,37.366,74.695,83.458,74.695
			c1.53,0,3.049-0.042,4.558-0.115c8.663,31.36,37.381,54.396,71.496,54.396c22.959,0,43.478-10.433,57.086-26.812
			c18.563,21.154,45.795,34.512,76.151,34.512c22.638,0,43.541-7.43,60.406-19.98c23.443,15.458,54.683,16.887,80.084,1.075
			c22.599-14.068,35-38.308,34.981-63.103C491.793,253.543,502,241.529,502,227.131C502,217.98,497.874,209.796,491.385,204.327z"/>
	</g>
	<g id="XMLID_74_">
		<path id="XMLID_115_" d="M393.967,354.273c-21.692,0-39.34,17.648-39.34,39.34s17.648,39.34,39.34,39.34s39.34-17.648,39.34-39.34
			S415.659,354.273,393.967,354.273z M393.967,412.953c-10.664,0-19.34-8.676-19.34-19.34s8.676-19.34,19.34-19.34
			s19.34,8.676,19.34,19.34S404.631,412.953,393.967,412.953z"/>
		<path id="XMLID_124_" d="M310.868,423.162c-18.748,0-34,15.252-34,34s15.252,34,34,34s34-15.252,34-34
			S329.616,423.162,310.868,423.162z M310.868,471.162c-7.72,0-14-6.28-14-14s6.28-14,14-14s14,6.28,14,14
			S318.588,471.162,310.868,471.162z"/>
		<path id="XMLID_125_" d="M256,492c-2.63,0-5.21,1.07-7.07,2.93c-1.86,1.86-2.93,4.44-2.93,7.07c0,2.63,1.07,5.21,2.93,7.07
			c1.86,1.86,4.44,2.93,7.07,2.93c2.63,0,5.21-1.07,7.07-2.93S266,504.63,266,502c0-2.63-1.07-5.21-2.93-7.07
			C261.21,493.07,258.63,492,256,492z"/>
		<path id="XMLID_126_" d="M83.334,162.063c4.566,0,8.523,3.407,9.205,7.925c0.824,5.462,5.922,9.221,11.379,8.397
			c5.461-0.824,9.221-5.918,8.397-11.379c-2.145-14.22-14.604-24.942-28.981-24.942C67.159,142.063,54,155.223,54,171.397v23.201
			c0,16.174,13.159,29.333,29.334,29.333c14.377,0,26.836-10.723,28.981-24.942c0.824-5.461-2.936-10.556-8.397-11.379
			c-5.459-0.82-10.556,2.936-11.379,8.397c-0.681,4.518-4.639,7.925-9.205,7.925c-5.146,0-9.333-4.187-9.333-9.333v-23.201
			C74,166.25,78.187,162.063,83.334,162.063z"/>
		<path id="XMLID_127_" d="M284.113,162.063c4.566,0,8.523,3.407,9.205,7.925c0.824,5.462,5.921,9.221,11.379,8.397
			c5.461-0.824,9.221-5.918,8.397-11.379c-2.145-14.22-14.604-24.942-28.981-24.942c-16.174,0-29.333,13.159-29.333,29.333v23.201
			c0,16.174,13.159,29.333,29.334,29.333c14.377,0,26.836-10.723,28.981-24.942c0.824-5.461-2.936-10.556-8.397-11.379
			c-5.459-0.82-10.556,2.936-11.379,8.397c-0.681,4.518-4.639,7.925-9.205,7.925c-5.146,0-9.333-4.187-9.333-9.333v-23.201
			C274.779,166.25,278.966,162.063,284.113,162.063z"/>
		<path id="XMLID_142_" d="M150.94,141.931c-16.108,0-29.213,13.105-29.213,29.213v23.573c0,16.108,13.105,29.213,29.213,29.213
			s29.213-13.105,29.213-29.213v-23.573C180.154,155.036,167.049,141.931,150.94,141.931z M160.154,194.718
			c0,5.08-4.133,9.213-9.213,9.213s-9.213-4.133-9.213-9.213v-23.573c0-5.08,4.133-9.213,9.213-9.213s9.213,4.133,9.213,9.213
			V194.718z"/>
		<path id="XMLID_143_" d="M235.959,142.063c-5.523,0-10,4.477-10,10v24.389l-16.874-29.37c-2.256-3.928-6.873-5.848-11.249-4.681
			c-4.377,1.168-7.422,5.132-7.422,9.662v61.868c0,5.523,4.477,10,10,10s10-4.477,10-10v-24.389l16.874,29.37
			c1.815,3.159,5.155,5.02,8.67,5.02c0.855,0,1.722-0.11,2.579-0.339c4.377-1.168,7.422-5.132,7.422-9.662v-61.868
			C245.959,146.541,241.482,142.063,235.959,142.063z"/>
		<path id="XMLID_144_" d="M354.762,162.063c5.523,0,10-4.477,10-10s-4.477-10-10-10h-21.135c-5.523,0-10,4.477-10,10v61.868
			c0,5.523,4.477,10,10,10h21.135c5.523,0,10-4.477,10-10s-4.477-10-10-10h-11.135v-11h7.964c5.523,0,10-4.477,10-10
			s-4.477-10-10-10h-7.964v-10.868H354.762z"/>
		<path id="XMLID_147_" d="M396.348,142.063h-12.727c-5.523,0-10,4.477-10,10v61.868c0,5.523,4.477,10,10,10s10-4.477,10-10v-21
			h2.727c14.024,0,25.434-11.41,25.434-25.434C421.781,153.473,410.372,142.063,396.348,142.063z M396.348,172.931h-2.727v-10.868
			h2.727c2.996,0,5.434,2.438,5.434,5.434C401.781,170.494,399.344,172.931,396.348,172.931z"/>
		<path id="XMLID_148_" d="M461.653,142.063h-27.307c-5.523,0-10,4.477-10,10s4.477,10,10,10H438v51.868c0,5.523,4.477,10,10,10
			s10-4.477,10-10v-51.868h3.653c5.523,0,10-4.477,10-10S467.176,142.063,461.653,142.063z"/>
		<path id="XMLID_151_" d="M512,164.074c0-22.048-7.947-43.352-22.378-59.987c-12.937-14.914-30.299-25.225-49.395-29.448
			c-17.149-44.881-60.038-74.63-108.552-74.63c-32.634,0-63.735,13.861-85.612,37.637C227.239,14.144,198.394,0,167.909,0
			c-45.89,0-85.491,31.061-96.793,74.834c-24.558,5.172-42.842,27.056-42.842,52.827c0,4.107,0.461,8.164,1.375,12.125
			C10.719,155.773,0,177.968,0,201.668c0,45.897,40.493,83.384,90.805,84.661c12.275,32.337,43.601,54.314,78.708,54.314
			c21.385,0,41.684-8.044,57.158-22.378c20.533,19.229,47.706,30.078,76.079,30.078c21.844,0,42.729-6.227,60.815-18.073
			c26.464,14.477,59.103,13.752,84.959-2.343c22.774-14.177,37.136-37.807,39.386-64.214C502.24,257.528,512,243.21,512,227.131
			c0-8.998-3.023-17.608-8.477-24.556C509.086,190.565,512,177.396,512,164.074z M484.94,211.973
			c4.487,3.782,7.06,9.307,7.06,15.158c0,9.364-6.642,17.526-15.793,19.408c-4.652,0.957-7.989,5.053-7.986,9.802
			c0.017,22.385-11.298,42.798-30.266,54.606c-21.21,13.203-48.41,12.837-69.294-0.934c-3.513-2.315-8.1-2.187-11.475,0.326
			c-15.826,11.778-34.649,18.003-54.436,18.003c-26.27,0-51.287-11.338-68.635-31.107c-1.9-2.166-4.64-3.404-7.516-3.404
			c-0.045,0-0.091,0-0.136,0.001c-2.925,0.04-5.687,1.358-7.557,3.609c-12.25,14.745-30.254,23.202-49.394,23.202
			c-28.767,0-54.203-19.351-61.857-47.058c-1.245-4.508-5.453-7.551-10.121-7.326c-1.44,0.069-2.774,0.103-4.077,0.103
			C52.953,266.362,20,237.34,20,201.668c0-19.477,9.857-37.738,27.044-50.102c3.69-2.655,5.125-7.465,3.493-11.708
			c-1.501-3.904-2.263-8.008-2.263-12.197c0-17.862,13.949-32.757,31.757-33.911c4.58-0.296,8.37-3.673,9.192-8.189
			C96.136,47.572,129.228,20,167.909,20c28.145,0,54.544,15.073,68.895,39.337c1.719,2.905,4.787,4.748,8.159,4.899
			c3.367,0.153,6.593-1.408,8.565-4.148c18.064-25.096,47.279-40.079,78.148-40.079c41.84,0,78.625,26.719,91.535,66.487
			c1.169,3.601,4.271,6.233,8.015,6.8C465.873,98.541,492,128.968,492,164.074c0,12.388-3.219,24.599-9.309,35.312
			C480.31,203.575,481.255,208.867,484.94,211.973z"/>
		<path id="XMLID_152_" d="M299.365,73.096c1.805,0,3.63-0.488,5.271-1.509c4.697-2.892,6.16-9.038,3.276-13.74
			c-2.884-4.703-9.038-6.179-13.745-3.301c-0.059,0.036-0.144,0.089-0.202,0.126c-4.652,2.977-6.009,9.162-3.032,13.813
			C292.842,71.467,296.069,73.096,299.365,73.096z"/>
		<path id="XMLID_153_" d="M390.87,106.997c1.023,0,2.064-0.159,3.089-0.492c5.253-1.705,8.129-7.346,6.424-12.599
			c-9.688-29.845-37.3-49.897-68.708-49.897c-5.523,0-10,4.477-10,10s4.477,10,10,10c22.714,0,42.681,14.497,49.685,36.072
			C382.733,104.309,386.653,106.997,390.87,106.997z"/>
	</g>
</g>
<g>
</g>
<g>
</g>
<g>
</g>
<g>
</g>
<g>
</g>
<g>
</g>
<g>
</g>
<g>
</g>
<g>
</g>
<g>
</g>
<g>
</g>
<g>
</g>
<g>
</g>
<g>
</g>
<g>
</g>
</svg>
