<?xml version="1.0" encoding="iso-8859-1"?>
<!-- Generator: Adobe Illustrator 19.0.0, SVG Export Plug-In . SVG Version: 6.00 Build 0)  -->
<svg version="1.1" id="Layer_1" xmlns="http://www.w3.org/2000/svg" xmlns:xlink="http://www.w3.org/1999/xlink" x="0px" y="0px"
	 viewBox="0 0 512.001 512.001" style="enable-background:new 0 0 512.001 512.001;" xml:space="preserve">
<g id="XMLID_2003_">
	<path id="XMLID_2125_" style="fill:#FFFFFF;" d="M175.961,70.001H88c-11.046,0-20,8.954-20,20v392c0,11.046,8.954,20,20,20h336
		c11.046,0,20-8.954,20-20v-392c0-11.046-8.954-20-20-20h-89.822H175.961z"/>
	<path id="XMLID_1915_" style="fill:#9BE3FF;" d="M337.118,42.001H288.57C288.258,24.275,273.801,10,256,10
		s-32.257,14.275-32.57,32.001h-48.547l0,0v56h162.234V42.001z"/>
	<g id="XMLID_854_">
		<rect id="XMLID_1572_" x="142.114" y="200.115" style="fill:#FFC66C;" width="227.772" height="227.772"/>
		<rect id="XMLID_853_" x="347.773" y="405.773" style="fill:#4DBAF6;" width="44.228" height="44.228"/>
		<rect id="XMLID_852_" x="120" y="405.773" style="fill:#4DBAF6;" width="44.228" height="44.228"/>
		<rect id="XMLID_851_" x="347.773" y="178.001" style="fill:#4DBAF6;" width="44.228" height="44.228"/>
		<rect id="XMLID_850_" x="120" y="178.001" style="fill:#4DBAF6;" width="44.228" height="44.228"/>
	</g>
	<g id="XMLID_107_">
		<path id="XMLID_171_" d="M424,60.001h-76.883v-18c0-5.523-4.478-10-10-10H297.23C292.475,13.663,275.683,0,256,0
			s-36.475,13.663-41.229,32.001h-39.888c-5.522,0-10,4.477-10,10v18H88c-16.542,0-30,13.458-30,30v392c0,16.542,13.458,30,30,30
			h336c16.542,0,30-13.458,30-30V357.045c0-5.523-4.478-10-10-10s-10,4.477-10,10v124.956c0,5.514-4.486,10-10,10H88
			c-5.514,0-10-4.486-10-10v-392c0-5.514,4.486-10,10-10h76.883v18c0,5.523,4.478,10,10,10h162.234c5.522,0,10-4.477,10-10v-18H424
			c5.514,0,10,4.486,10,10v174.971c0,5.523,4.478,10,10,10s10-4.477,10-10V90.001C454,73.459,440.542,60.001,424,60.001z
			 M327.118,88.001H184.883v-36h38.548c5.454,0,9.902-4.371,9.998-9.824C233.645,29.949,243.77,20,256,20
			s22.355,9.949,22.571,22.177c0.096,5.453,4.544,9.824,9.998,9.824h38.548V88.001z"/>
		<path id="XMLID_174_" d="M392,232.229c5.522,0,10-4.477,10-10v-44.228c0-5.523-4.478-10-10-10h-44.228c-5.522,0-10,4.477-10,10
			v12.114h-95.439c-5.522,0-10,4.477-10,10s4.478,10,10,10h95.439v12.114c0,5.523,4.478,10,10,10h12.113v163.545h-12.113
			c-5.522,0-10,4.477-10,10v12.114H174.228v-12.114c0-5.523-4.478-10-10-10h-12.113V232.229h12.113c5.522,0,10-4.477,10-10v-44.228
			c0-5.523-4.478-10-10-10H120c-5.522,0-10,4.477-10,10v44.228c0,5.523,4.478,10,10,10h12.114v163.545H120c-5.522,0-10,4.477-10,10
			v44.228c0,5.523,4.478,10,10,10h44.228c5.522,0,10-4.477,10-10v-12.114h163.545v12.114c0,5.523,4.478,10,10,10H392
			c5.522,0,10-4.477,10-10v-44.228c0-5.523-4.478-10-10-10h-12.114V232.229H392z M130,188.001h24.228v24.228H130V188.001z
			 M154.228,440.001H130v-24.228h24.228V440.001z M382,440.001h-24.228v-24.228H382V440.001z M357.773,188.001H382v24.228h-24.228
			V188.001z"/>
		<path id="XMLID_178_" d="M214.21,207.19c1.859-1.86,2.93-4.44,2.93-7.07c0-2.64-1.07-5.21-2.93-7.08
			c-1.86-1.86-4.44-2.92-7.07-2.92s-5.21,1.06-7.07,2.92c-1.859,1.87-2.93,4.44-2.93,7.08c0,2.63,1.07,5.2,2.93,7.07
			c1.86,1.86,4.44,2.92,7.07,2.92S212.35,209.05,214.21,207.19z"/>
		<path id="XMLID_181_" d="M184.286,366.432c0,5.523,4.478,10,10,10h25.709c5.522,0,10-4.477,10-10c0-4.866-3.478-8.917-8.082-9.812
			l5.409-13.331h57.358l5.409,13.331c-4.604,0.895-8.082,4.945-8.082,9.812c0,5.523,4.478,10,10,10h25.709c5.522,0,10-4.477,10-10
			s-4.478-10-10-10h-6.12l-46.328-114.19c-1.53-3.772-5.195-6.241-9.267-6.241s-7.736,2.468-9.267,6.241l-46.328,114.19h-6.12
			C188.763,356.432,184.286,360.909,184.286,366.432z M256,272.6l20.565,50.689h-41.13L256,272.6z"/>
		<path id="XMLID_182_" d="M444,304c-2.63,0-5.21,1.07-7.07,2.93c-1.86,1.86-2.93,4.44-2.93,7.07c0,2.63,1.069,5.21,2.93,7.07
			s4.44,2.93,7.07,2.93s5.21-1.07,7.069-2.93c1.86-1.86,2.931-4.44,2.931-7.07c0-2.63-1.07-5.21-2.931-7.07
			C449.21,305.07,446.63,304,444,304z"/>
	</g>
</g>
<g>
</g>
<g>
</g>
<g>
</g>
<g>
</g>
<g>
</g>
<g>
</g>
<g>
</g>
<g>
</g>
<g>
</g>
<g>
</g>
<g>
</g>
<g>
</g>
<g>
</g>
<g>
</g>
<g>
</g>
</svg>
