<?xml version="1.0" encoding="iso-8859-1"?>
<!-- Generator: Adobe Illustrator 19.0.0, SVG Export Plug-In . SVG Version: 6.00 Build 0)  -->
<svg version="1.1" id="Layer_1" xmlns="http://www.w3.org/2000/svg" xmlns:xlink="http://www.w3.org/1999/xlink" x="0px" y="0px"
	 viewBox="0 0 512 512" style="enable-background:new 0 0 512 512;" xml:space="preserve">
<g id="XMLID_2170_">
	<g id="XMLID_1046_">
		<path id="XMLID_1007_" style="fill:#9BE3FF;" d="M10,420.999v14c0,22.091,17.909,40,40,40h412c22.091,0,40-17.909,40-40v-14H10z"
			/>
		<path id="XMLID_1006_" style="fill:#FFFFFF;" d="M71,117.011h-4c-22.091,0-40,17.909-40,40v262.421
			c0,0.872,0.707,1.579,1.579,1.579h454.842c0.872,0,1.579-0.707,1.579-1.579V157.011c0-22.091-17.909-40-40-40h-5.833H71z"/>
	</g>
	<g id="XMLID_2132_">
		<circle id="XMLID_981_" style="fill:#FFC66C;" cx="256" cy="230.283" r="73.784"/>
		<rect id="XMLID_980_" x="120.729" y="229.057" style="fill:#9BE3FF;" width="135.271" height="135.271"/>
	</g>
	<g id="XMLID_2168_">
		<path id="XMLID_2167_" style="fill:#FFC66C;" d="M384,290V69c0-17.673,14.327-32,32-32h0c17.673,0,32,14.327,32,32v221l-32,74.328
			L384,290z"/>
		<polygon id="XMLID_2166_" style="fill:#7D91FF;" points="416,364.328 448,290 384,290 		"/>
		<path id="XMLID_2165_" style="fill:#FF5D5D;" d="M448,91V69c0-17.673-14.327-32-32-32h0c-17.673,0-32,14.327-32,32v22H448z"/>
	</g>
	<g id="XMLID_191_">
		<path id="XMLID_212_" d="M502,410.999h-7V157.011c0-22.627-15.565-42.471-37-48.273V69c0-23.159-18.841-42-42-42s-42,18.841-42,42
			v38.011H182.216c-5.522,0-10,4.477-10,10s4.478,10,10,10H374V290c0,1.36,0.277,2.706,0.815,3.954l25.992,60.374h-82.475
			c-5.522,0-10,4.477-10,10s4.478,10,10,10H448c5.522,0,10-4.477,10-10s-4.478-10-10-10h-16.808l25.992-60.374
			C457.723,292.706,458,291.36,458,290V129.99c10.101,4.911,17,15.347,17,27.021v253.988H37V157.011c0-16.542,13.458-30,30-30h37
			c5.522,0,10-4.477,10-10s-4.478-10-10-10H67c-27.57,0-50,22.43-50,50v253.988h-7c-5.522,0-10,4.477-10,10v14
			c0,27.57,22.43,50,50,50h293c5.522,0,10-4.477,10-10s-4.478-10-10-10H50c-16.542,0-30-13.458-30-30v-4h6.768
			c0.078,0.002,0.154,0.012,0.232,0.012h458c0.078,0,0.154-0.01,0.232-0.012H492v4c0,16.542-13.458,30-30,30h-35.667
			c-5.522,0-10,4.477-10,10s4.478,10,10,10H462c27.57,0,50-22.43,50-50v-14C512,415.476,507.522,410.999,502,410.999z M394,280V101
			h44v179H394z M432.808,300L416,339.04L399.192,300H432.808z M416,47c12.131,0,22,9.869,22,22v12h-44V69
			C394,56.869,403.869,47,416,47z"/>
		<path id="XMLID_215_" d="M384,465c-2.63,0-5.21,1.07-7.07,2.93c-1.86,1.86-2.93,4.44-2.93,7.07c0,2.63,1.069,5.21,2.93,7.07
			S381.37,485,384,485s5.21-1.07,7.069-2.93c1.86-1.86,2.931-4.44,2.931-7.07c0-2.63-1.07-5.21-2.931-7.07
			C389.21,466.07,386.63,465,384,465z"/>
		<path id="XMLID_216_" d="M237.917,437.999c-5.522,0-10,4.477-10,10s4.478,10,10,10H274c5.522,0,10-4.477,10-10s-4.478-10-10-10
			H237.917z"/>
		<path id="XMLID_217_" d="M143.67,127.01c2.63,0,5.21-1.07,7.07-2.93c1.859-1.86,2.93-4.44,2.93-7.07s-1.07-5.21-2.93-7.07
			c-1.86-1.86-4.44-2.93-7.07-2.93c-2.64,0-5.21,1.07-7.07,2.93c-1.87,1.86-2.93,4.44-2.93,7.07s1.06,5.21,2.93,7.07
			C138.46,125.94,141.03,127.01,143.67,127.01z"/>
		<path id="XMLID_220_" d="M110.729,229.057v135.271c0,5.523,4.478,10,10,10H256c5.522,0,10-4.477,10-10V313.45
			c41.499-4.961,73.784-40.354,73.784-83.167c0-46.199-37.585-83.784-83.784-83.784c-42.391,0-77.505,31.651-83.01,72.558h-52.261
			C115.206,219.057,110.729,223.534,110.729,229.057z M246,293.278c-27.583-4.362-49.329-26.468-53.166-54.22H246V293.278z
			 M256,166.499c35.171,0,63.784,28.613,63.784,63.784c0,31.769-23.348,58.181-53.784,62.994v-64.22c0-5.523-4.478-10-10-10h-62.775
			C198.547,189.224,224.661,166.499,256,166.499z M130.729,239.057h41.949c4.056,38.794,34.696,69.775,73.323,74.393v40.878H130.729
			V239.057z"/>
	</g>
</g>
<g>
</g>
<g>
</g>
<g>
</g>
<g>
</g>
<g>
</g>
<g>
</g>
<g>
</g>
<g>
</g>
<g>
</g>
<g>
</g>
<g>
</g>
<g>
</g>
<g>
</g>
<g>
</g>
<g>
</g>
</svg>
