<?xml version="1.0" encoding="iso-8859-1"?>
<!-- Generator: Adobe Illustrator 19.0.0, SVG Export Plug-In . SVG Version: 6.00 Build 0)  -->
<svg version="1.1" id="Layer_1" xmlns="http://www.w3.org/2000/svg" xmlns:xlink="http://www.w3.org/1999/xlink" x="0px" y="0px"
	 viewBox="0 0 511.802 511.802" style="enable-background:new 0 0 511.802 511.802;" xml:space="preserve">
<g id="XMLID_1331_">
	<g id="XMLID_1106_">
		<rect id="XMLID_1918_" x="215.937" y="417.602" style="fill:#7D91FF;" width="80" height="44.002"/>
		<path id="XMLID_1917_" style="fill:#C9F3FF;" d="M434.901,85.602c22.091,0,40,17.909,40,40v252c0,22.091-17.909,40-40,40h-358
			c-22.091,0-40-17.909-40-40v-252c0-22.091,17.909-40,40-40H434.901z"/>
		<path id="XMLID_1916_" style="fill:#9BE3FF;" d="M434.901,417.602h-358c-22.091,0-40-17.909-40-40v-28h438v28
			C474.901,399.694,456.992,417.602,434.901,417.602z"/>
		<path id="XMLID_1462_" style="fill:#9BE3FF;" d="M304.962,461.802h-98.049c-22.091,0-40,17.909-40,40v0h178.049v0
			C344.962,479.711,327.053,461.802,304.962,461.802z"/>
	</g>
	<g id="XMLID_1270_">
		<polygon id="XMLID_1902_" style="fill:#FFFFFF;" points="142.73,349.602 95.901,349.602 95.901,10 415.901,10 415.901,349.602 		
			"/>
		<rect id="XMLID_1898_" x="95.901" y="10" style="fill:#7D91FF;" width="320" height="64.8"/>
		<g id="XMLID_235_">
			<path id="XMLID_34_" style="fill:#231F20;" d="M103.058,74.8h308.94"/>
		</g>
	</g>
	<g id="XMLID_206_">
		<path id="XMLID_207_" d="M248.871,376.531c-1.87,1.86-2.93,4.44-2.93,7.07c0,2.63,1.06,5.21,2.93,7.07
			c1.86,1.86,4.43,2.93,7.07,2.93c2.63,0,5.21-1.07,7.069-2.93c1.86-1.86,2.931-4.44,2.931-7.07c0-2.63-1.07-5.21-2.931-7.07
			c-1.859-1.86-4.439-2.93-7.069-2.93C253.3,373.601,250.731,374.671,248.871,376.531z"/>
		<path id="XMLID_237_" d="M370.901,407.601c-2.63,0-5.21,1.07-7.07,2.93s-2.93,4.44-2.93,7.07c0,2.63,1.069,5.21,2.93,7.07
			c1.86,1.86,4.44,2.93,7.07,2.93s5.21-1.07,7.069-2.93c1.86-1.86,2.931-4.44,2.931-7.07c0-2.63-1.07-5.21-2.931-7.07
			C376.111,408.671,373.531,407.601,370.901,407.601z"/>
		<path id="XMLID_246_" d="M434.901,75.602h-9V10c0-5.523-4.478-10-10-10h-320c-5.522,0-10,4.477-10,10v65.602h-9
			c-27.57,0-50,22.43-50,50v252c0,27.57,22.43,50,50,50h129.036v24.224c-27.12,0.524-49.024,22.732-49.024,49.975
			c0,5.523,4.478,10,10,10h178.049c5.522,0,10-4.477,10-10c0-27.243-21.904-49.452-49.024-49.975v-24.224h27.968
			c5.522,0,10-4.477,10-10s-4.478-10-10-10h-37.968h-80H76.901c-16.542,0-30-13.458-30-30v-18h49h320h49v18
			c0,16.542-13.458,30-30,30h-23c-5.522,0-10,4.477-10,10s4.478,10,10,10h23c27.57,0,50-22.43,50-50v-252
			C484.901,98.032,462.471,75.602,434.901,75.602z M333.248,491.802H178.626c4.127-11.641,15.249-20,28.286-20h98.049
			C317.999,471.802,329.121,480.161,333.248,491.802z M285.937,427.602v24.002h-60v-24.002H285.937z M405.901,20v44.8h-300V20
			H405.901z M105.901,339.602v-130.8c0-5.523-4.478-10-10-10s-10,4.477-10,10v130.8h-39v-214c0-16.542,13.458-30,30-30h9v35.2
			c0,5.523,4.478,10,10,10s10-4.477,10-10V84.8h300v254.802H105.901z M425.901,339.602v-244h9c16.542,0,30,13.458,30,30v214H425.901
			z"/>
		<path id="XMLID_846_" d="M264.901,52.4h103.333c5.522,0,10-4.477,10-10s-4.478-10-10-10H264.901c-5.522,0-10,4.477-10,10
			S259.378,52.4,264.901,52.4z"/>
		<path id="XMLID_847_" d="M167.63,52.401c2.63,0,5.21-1.07,7.07-2.93s2.93-4.44,2.93-7.07c0-2.63-1.069-5.21-2.93-7.07
			c-1.86-1.86-4.44-2.93-7.07-2.93c-2.64,0-5.21,1.07-7.069,2.93c-1.86,1.86-2.931,4.43-2.931,7.07c0,2.63,1.07,5.21,2.931,7.07
			C162.42,51.331,165,52.401,167.63,52.401z"/>
		<path id="XMLID_848_" d="M131.021,52.401c2.63,0,5.21-1.07,7.069-2.93c1.87-1.86,2.931-4.44,2.931-7.07
			c0-2.63-1.061-5.21-2.931-7.07c-1.859-1.86-4.439-2.93-7.069-2.93s-5.21,1.07-7.07,2.93c-1.86,1.86-2.93,4.44-2.93,7.07
			c0,2.63,1.069,5.21,2.93,7.07S128.391,52.401,131.021,52.401z"/>
		<path id="XMLID_849_" d="M204.231,52.401c2.64,0,5.21-1.07,7.069-2.93c1.87-1.86,2.931-4.44,2.931-7.07
			c0-2.63-1.061-5.21-2.931-7.07c-1.859-1.86-4.439-2.93-7.069-2.93s-5.21,1.07-7.07,2.93c-1.86,1.86-2.93,4.44-2.93,7.07
			c0,2.63,1.069,5.21,2.93,7.07S201.601,52.401,204.231,52.401z"/>
		<path id="XMLID_868_" d="M95.901,159.801c-2.63,0-5.21,1.07-7.07,2.93c-1.86,1.86-2.93,4.44-2.93,7.07s1.069,5.21,2.93,7.07
			c1.86,1.86,4.44,2.93,7.07,2.93s5.21-1.07,7.069-2.93c1.86-1.86,2.931-4.44,2.931-7.07s-1.07-5.21-2.931-7.07
			C101.111,160.871,98.531,159.801,95.901,159.801z"/>
		<path id="XMLID_869_" d="M201.783,163.188c-3.906-3.905-10.236-3.905-14.143,0l-44.055,44.055c-3.905,3.905-3.905,10.237,0,14.143
			l44.055,44.055c1.953,1.953,4.512,2.929,7.071,2.929s5.118-0.976,7.071-2.929c3.905-3.905,3.905-10.237,0-14.143l-36.983-36.983
			l36.983-36.983C205.688,173.426,205.688,167.094,201.783,163.188z"/>
		<path id="XMLID_871_" d="M324.162,163.188c-3.906-3.905-10.236-3.905-14.143,0c-3.905,3.905-3.905,10.237,0,14.143l36.983,36.983
			l-36.983,36.983c-3.905,3.905-3.905,10.237,0,14.143c1.953,1.953,4.512,2.929,7.071,2.929s5.118-0.976,7.071-2.929l44.055-44.055
			c3.905-3.905,3.905-10.237,0-14.143L324.162,163.188z"/>
		<path id="XMLID_880_" d="M279.303,162.167c-5.053-2.243-10.957,0.032-13.199,5.078l-38.684,87.064
			c-2.242,5.047,0.031,10.957,5.078,13.199c1.32,0.586,2.698,0.864,4.055,0.864c3.832,0,7.488-2.215,9.145-5.942l38.684-87.064
			C286.624,170.318,284.35,164.409,279.303,162.167z"/>
	</g>
</g>
<g>
</g>
<g>
</g>
<g>
</g>
<g>
</g>
<g>
</g>
<g>
</g>
<g>
</g>
<g>
</g>
<g>
</g>
<g>
</g>
<g>
</g>
<g>
</g>
<g>
</g>
<g>
</g>
<g>
</g>
</svg>
