<svg id="Layer_1" enable-background="new 0 0 512.002 512.002" height="512" viewBox="0 0 512.002 512.002" width="512" xmlns="http://www.w3.org/2000/svg"><g><path d="m286.231 197.307 176.398-123.795-44.473-44.473-227.925 72.268z" fill="#9af9ff"/><path d="m462.633 73.515-176.4 123.79-25.98-25.98 139.38-97.81-29.31-29.31 47.83-15.17z" fill="#86effd"/><path d="m410.699 374.379 85.284-45.147-33.354-33.355-89.28 9.923z" fill="#9af9ff"/><path d="m412.593 412.615c-16.02 16.02-130.93-41.98-211.24-122.3-44.48-44.47-75.41-75.4-100.07-100.06-72.27-72.27-100.06-144.54-77.83-166.78 22.24-22.23 94.51 5.56 166.78 77.83 24.66 24.66 55.59 55.59 100.06 100.07 80.32 80.31 138.32 195.22 122.3 211.24z" fill="#9af9ff"/><path d="m412.593 412.615c-6.06 6.06-26.25 1.53-53.38-10.78-1.86-34.17-54.91-130.46-124.92-200.46-44.47-44.48-75.4-75.41-100.06-100.07-39.67-39.67-79.34-65.94-110.73-77.88 22.29-22.14 94.51 5.66 166.73 77.88 24.66 24.66 55.59 55.59 100.06 100.07 80.32 80.31 138.32 195.22 122.3 211.24z" fill="#86effd"/><path d="m197.285 286.253-123.795 176.398-44.473-44.473 72.268-227.925z" fill="#9af9ff"/><path d="m197.283 286.255-123.79 176.4-31.73-31.73 101.52-144.67-55-55 13-41z" fill="#86effd"/><path d="m374.357 410.721-45.147 85.284-33.355-33.354 9.923-89.28z" fill="#9af9ff"/><path d="m507.297 317.917-33.355-33.354c-3.437-3.437-8.249-5.124-13.081-4.588l-80.014 8.893c-20.654-31.871-44.937-62.91-69.984-89.301l160.956-112.959c8.14-5.713 9.142-17.391 2.123-24.411l-44.473-44.472c-4.224-4.225-10.451-5.744-16.149-3.938l-218.758 69.362c-33.131-31.856-68.37-56.848-100.013-70.83-62.526-27.629-81.276-.153-82.406-.153-16.215 16.216-16.161 45.482.154 82.405 13.982 31.644 38.974 66.882 70.83 100.013l-69.362 218.758c-1.806 5.696-.287 11.924 3.938 16.149l44.472 44.473c7.04 7.04 18.715 5.993 24.411-2.123l112.959-160.957c26.391 25.047 57.43 49.33 89.301 69.984l-8.893 80.014c-.537 4.831 1.151 9.644 4.588 13.081l33.354 33.355c7.593 7.593 20.414 5.696 25.455-3.828l39.962-75.489c6.263 1.767 13.349 3.281 20.193 3.281 15.237 0 19.776-7.352 20.406-7.352 10.393-10.394 7.81-27.364 4.077-40.602l75.482-39.958c9.506-5.03 11.433-17.847 3.827-25.453zm-93.577-270.687 24.126 24.126-149.805 105.133-67.885-67.885zm-378.949-12.437c3.876-3.877 19.55-5.265 46.844 6.796 30.352 13.411 64.907 38.637 97.302 71.032 10.376 10.376 89.428 89.428 100.064 100.064 59.994 59.993 112.879 147.877 119.826 186.145-36.306-6.592-123.551-57.232-186.145-119.826-10.731-10.731-89.646-89.646-100.064-100.064-32.395-32.395-57.621-66.951-71.032-97.302-12.059-27.294-10.671-42.968-6.795-46.845zm36.564 403.075-24.126-24.126 61.374-193.564 67.885 67.885zm253.869 31.504-12.598-12.598 6.402-57.601c10.971 6.2 22.54 12.229 34.115 17.461zm91.408-116.227c-5.169-11.437-11.161-22.965-17.461-34.115l57.601-6.402 12.598 12.598z"/></g></svg>