<svg id="Layer_1" enable-background="new 0 0 512.02 512.02" height="512" viewBox="0 0 512.02 512.02" width="512" xmlns="http://www.w3.org/2000/svg"><g><path d="m61.42 198.408-23.86-23.86c-13.79-13.79-21.54-32.5-21.54-52 0-40.617 32.919-73.54 73.54-73.54 18.853 0 37.767 7.307 52 21.54l17.43 17.43z" fill="#f3d4b7"/><path d="m158.99 87.978-97.57 110.43c-18.192-18.192-24.333-24.311-24.94-24.97l47.541-53.806c19.419-21.978 10.718-57.148-17.991-66.774 26.063-8.817 55.511-2.329 75.53 17.69z" fill="#e1c3a7"/><path d="m353.05 87.978c17.005-17.005 24.652-26.481 41.29-33.37 27.342-11.32 58.979-5.237 80.14 15.94 28.894 28.872 28.542 75.458 0 104l-23.86 23.86z" fill="#f3d4b7"/><path d="m496.02 122.548c0 19.5-7.75 38.21-21.54 52l-23.86 23.86-18.76-21.24 2.62-2.62c39.856-39.856 21.644-107.633-31.95-122.77 46.683-13.193 93.49 21.832 93.49 70.77z" fill="#e1c3a7"/><circle cx="256.02" cy="272.008" fill="#f79caf" r="208"/><circle cx="256.02" cy="272.008" fill="#e2e0e0" r="152"/><path d="m280.02 422.118c-92.501 14.786-176-56.8-176-150.11 0-93.301 83.489-164.897 176-150.11-72.55 11.5-128 74.33-128 150.11s55.45 138.61 128 150.11z" fill="#cecccc"/><path d="m464.02 272.008c0 122.882-105.813 218.747-228 207.05 105.5-10.06 188-98.92 188-207.05s-82.5-196.99-188-207.05c121.989-11.677 228 84.003 228 207.05z" fill="#e3889b"/><path d="m256.02 104.008c-92.636 0-168 75.364-168 168s75.364 168 168 168 168-75.364 168-168-75.364-168-168-168zm0 304c-74.991 0-136-61.009-136-136s61.009-136 136-136 136 61.009 136 136-61.009 136-136 136z"/><path d="m512.02 122.548c0-49.478-40.028-89.54-89.54-89.54-23.33 0-46.218 9.131-63.314 26.226l-9.277 9.277c-24.321-11.235-50.613-18.026-77.869-19.937v-16.566h8c8.836 0 16-7.164 16-16s-7.164-16-16-16h-48c-8.836 0-16 7.164-16 16s7.164 16 16 16h8v16.567c-27.256 1.911-53.547 8.701-77.869 19.937-11.782-11.782-20.057-21.121-38.33-28.686-32.573-13.486-71.202-6.983-97.57 19.405-34.998 34.971-35.002 91.634-.004 126.631l16.703 16.703c-26.35 81.136-5.327 174.449 63.715 236.378l-24.955 49.91c-3.952 7.903-.748 17.514 7.156 21.466 7.912 3.956 17.519.738 21.466-7.156l22.123-44.246c74.502 49.475 172.587 49.503 247.132 0l22.123 44.246c3.953 7.906 13.564 11.106 21.466 7.156 7.904-3.952 11.107-13.563 7.156-21.466l-24.955-49.91c68.962-61.858 90.095-155.148 63.715-236.378l16.703-16.703c16.911-16.912 26.225-39.398 26.225-63.314zm-463.146 40.686c-21.947-21.946-22.972-58.418.004-81.376 16.936-16.949 41.752-21.14 62.702-12.466 10.192 4.22 15.693 9.497 21.497 15.301-31.45 20.734-58.665 50.079-76.881 85.864zm207.146 300.774c-105.869 0-192-86.131-192-192s86.131-192 192-192 192 86.131 192 192-86.131 192-192 192zm207.146-300.774-7.322 7.322c-17.201-33.791-43.562-63.898-76.881-85.864l2.831-2.831c10.984-10.983 25.696-16.854 40.687-16.854 31.794 0 57.54 25.72 57.54 57.54-.001 15.147-6.144 29.977-16.855 40.687z"/><path d="m256.02 168.008c-8.836 0-16 7.164-16 16v72h-48c-8.836 0-16 7.164-16 16s7.164 16 16 16h64c8.836 0 16-7.164 16-16v-88c0-8.836-7.164-16-16-16z"/></g></svg>