<?xml version="1.0" encoding="iso-8859-1"?>
<!-- Generator: Adobe Illustrator 19.0.0, SVG Export Plug-In . SVG Version: 6.00 Build 0)  -->
<svg version="1.1" id="Capa_1" xmlns="http://www.w3.org/2000/svg" xmlns:xlink="http://www.w3.org/1999/xlink" x="0px" y="0px"
	 viewBox="0 0 497.371 497.371" style="enable-background:new 0 0 497.371 497.371;" xml:space="preserve">
<path d="M248.686,14.629v234.057h234.057C482.743,119.954,377.417,14.629,248.686,14.629z"/>
<path style="fill:#FFCA19;" d="M248.686,14.629c-128.731,0-234.057,105.326-234.057,234.057s105.326,234.057,234.057,234.057
	c59.977,0,114.103-23.406,156.526-59.977l-156.526-174.08V14.629z"/>
<path style="fill:#DDA527;" d="M405.211,422.766c-40.96,36.571-96.549,59.977-156.526,59.977
	c-96.549,0-179.931-58.514-216.503-143.36c39.497,35.109,92.16,57.051,150.674,57.051c57.051,0,108.251-20.48,149.211-55.589
	L405.211,422.766z"/>
<path style="fill:#F15E75;" d="M482.743,248.686H248.686l156.526,174.08C452.023,380.343,482.743,317.44,482.743,248.686z"/>
<path style="fill:#EF3956;" d="M482.743,248.686c0,68.754-30.72,131.657-77.531,174.08l-73.143-81.92
	c29.257-24.869,51.2-57.051,64.366-92.16H482.743z"/>
<path style="fill:#FFFFFF;" d="M248.686,14.629v234.057h234.057C482.743,119.954,377.417,14.629,248.686,14.629z"/>
<path style="fill:#C0D0D6;" d="M396.434,248.686c8.777-24.869,14.629-51.2,14.629-78.994c0-42.423-11.703-80.457-30.72-114.103
	c61.44,42.423,102.4,114.103,102.4,194.56h-86.309V248.686z"/>
<path d="M482.743,263.314H248.686c-8.777,0-14.629-5.851-14.629-14.629V14.629C234.057,5.851,239.909,0,248.686,0
	c137.509,0,248.686,111.177,248.686,248.686C497.371,257.463,491.52,263.314,482.743,263.314z M263.314,234.057h204.8
	c-7.314-109.714-95.086-197.486-204.8-204.8V234.057z"/>
<path d="M248.686,497.371C111.177,497.371,0,386.194,0,248.686S111.177,0,248.686,0c8.777,0,14.629,5.851,14.629,14.629v228.206
	l152.137,169.691c5.851,5.851,4.389,14.629-1.463,20.48C368.64,473.966,310.126,497.371,248.686,497.371z M234.057,29.257
	c-114.103,7.314-204.8,102.4-204.8,219.429c0,121.417,98.011,219.429,219.429,219.429c49.737,0,96.549-16.091,134.583-46.811
	L236.983,258.926c-2.926-2.926-4.389-5.851-4.389-10.24V29.257H234.057z"/>
<path d="M405.211,437.394C405.211,437.394,403.749,437.394,405.211,437.394c-4.389,0-8.777-1.463-10.24-4.389l-156.526-174.08
	c-4.389-4.389-4.389-10.24-2.926-16.091c2.926-5.851,7.314-8.777,13.166-8.777h234.057c8.777,0,14.629,5.851,14.629,14.629
	c0,70.217-30.72,137.509-83.383,184.32C412.526,435.931,408.137,437.394,405.211,437.394z M280.869,263.314l124.343,138.971
	c36.571-38.034,58.514-86.309,61.44-138.971H280.869z"/>
<g>
</g>
<g>
</g>
<g>
</g>
<g>
</g>
<g>
</g>
<g>
</g>
<g>
</g>
<g>
</g>
<g>
</g>
<g>
</g>
<g>
</g>
<g>
</g>
<g>
</g>
<g>
</g>
<g>
</g>
</svg>
