<?xml version="1.0" encoding="iso-8859-1"?>
<!-- Generator: Adobe Illustrator 19.0.0, SVG Export Plug-In . SVG Version: 6.00 Build 0)  -->
<svg version="1.1" id="Capa_1" xmlns="http://www.w3.org/2000/svg" xmlns:xlink="http://www.w3.org/1999/xlink" x="0px" y="0px"
	 viewBox="0 0 497.371 497.371" style="enable-background:new 0 0 497.371 497.371;" xml:space="preserve">
<polygon style="fill:#FFCA19;" points="96.549,257.463 58.514,188.709 20.48,257.463 20.48,482.743 96.549,482.743 "/>
<rect x="20.48" y="422.766" style="fill:#D69D28;" width="74.606" height="59.977"/>
<path d="M96.549,497.371H20.48c-8.777,0-14.629-5.851-14.629-14.629v-225.28c0-2.926,0-4.389,1.463-7.314l35.109-68.754
	c2.926-4.389,7.314-7.314,13.166-7.314l0,0c5.851,0,10.24,2.926,13.166,7.314l39.497,68.754c1.463,2.926,1.463,4.389,1.463,7.314
	v225.28C111.177,491.52,103.863,497.371,96.549,497.371z M35.109,468.114h45.349V260.389l-24.869-42.423l-21.943,40.96v209.189
	H35.109z"/>
<polygon style="fill:#FFFFFF;" points="222.354,198.949 185.783,130.194 147.749,198.949 147.749,482.743 222.354,482.743 "/>
<rect x="147.749" y="422.766" style="fill:#C0D0D6;" width="74.606" height="59.977"/>
<path d="M222.354,497.371h-74.606c-8.777,0-14.629-5.851-14.629-14.629V198.949c0-2.926,0-4.389,1.463-7.314l35.109-67.291
	c2.926-4.389,7.314-7.314,13.166-7.314c5.851,0,10.24,2.926,13.166,7.314l39.497,68.754c1.463,2.926,1.463,4.389,1.463,7.314
	v283.794C236.983,491.52,231.131,497.371,222.354,497.371z M162.377,468.114h45.349V203.337l-24.869-42.423l-21.943,40.96v266.24
	H162.377z"/>
<polygon style="fill:#77C587;" points="349.623,285.257 311.589,216.503 275.017,285.257 275.017,482.743 349.623,482.743 "/>
<rect x="275.017" y="422.766" style="fill:#08A650;" width="74.606" height="59.977"/>
<path d="M349.623,497.371h-74.606c-8.777,0-14.629-5.851-14.629-14.629V285.257c0-2.926,0-4.389,1.463-7.314l35.109-68.754
	c2.926-4.389,7.314-7.314,13.166-7.314c5.851,0,10.24,2.926,13.166,7.314l39.497,68.754c1.463,2.926,1.463,4.389,1.463,7.314
	v197.486C364.251,491.52,356.937,497.371,349.623,497.371z M289.646,468.114h45.349V289.646l-24.869-42.423l-21.943,40.96v179.931
	H289.646z"/>
<polygon style="fill:#F15E75;" points="476.891,83.383 438.857,14.629 400.823,83.383 400.823,482.743 476.891,482.743 "/>
<rect x="400.823" y="422.766" style="fill:#EF3956;" width="74.606" height="59.977"/>
<path d="M476.891,497.371h-74.606c-8.777,0-14.629-5.851-14.629-14.629V83.383c0-2.926,0-4.389,1.463-7.314l35.109-68.754
	C427.154,2.926,431.543,0,437.394,0c5.851,0,10.24,2.926,13.166,7.314l39.497,68.754c0,1.463,1.463,4.389,1.463,7.314v399.36
	C491.52,491.52,484.206,497.371,476.891,497.371z M415.451,468.114H460.8V87.771l-24.869-42.423l-21.943,40.96v381.806H415.451z"/>
<path d="M400.823,497.371H96.549c-8.777,0-14.629-5.851-14.629-14.629s5.851-14.629,14.629-14.629h305.737
	c8.777,0,14.629,5.851,14.629,14.629S409.6,497.371,400.823,497.371z"/>
<g>
</g>
<g>
</g>
<g>
</g>
<g>
</g>
<g>
</g>
<g>
</g>
<g>
</g>
<g>
</g>
<g>
</g>
<g>
</g>
<g>
</g>
<g>
</g>
<g>
</g>
<g>
</g>
<g>
</g>
</svg>
