<?xml version="1.0" encoding="iso-8859-1"?>
<!-- Generator: Adobe Illustrator 19.0.0, SVG Export Plug-In . SVG Version: 6.00 Build 0)  -->
<svg version="1.1" id="Capa_1" xmlns="http://www.w3.org/2000/svg" xmlns:xlink="http://www.w3.org/1999/xlink" x="0px" y="0px"
	 viewBox="0 0 497.371 497.371" style="enable-background:new 0 0 497.371 497.371;" xml:space="preserve">
<path style="fill:#FFFFFF;" d="M317.44,471.771H33.646c-10.24,0-19.017-8.777-19.017-19.017V59.246
	c0-10.24,8.777-19.017,19.017-19.017h282.331c10.24,0,19.017,8.777,19.017,19.017v392.046
	C336.457,462.994,327.68,471.771,317.44,471.771z"/>
<g style="opacity:0.1;">
	<path style="fill:#030303;" d="M336.457,82.651V59.246c0-10.24-8.777-20.48-20.48-20.48H35.109c-10.24,0-20.48,8.777-20.48,20.48
		v23.406H336.457z"/>
</g>
<g>
	<path style="fill:#010101;" d="M315.977,486.4H35.109C16.091,486.4,0,470.309,0,451.291V59.246
		c0-19.017,16.091-35.109,35.109-35.109H317.44c19.017,0,35.109,16.091,35.109,35.109v392.046
		C351.086,470.309,336.457,486.4,315.977,486.4z M35.109,54.857c-2.926,0-4.389,1.463-4.389,4.389v392.046
		c0,2.926,1.463,4.389,4.389,4.389H317.44c2.926,0,4.389-1.463,4.389-4.389V59.246c0-2.926-1.463-4.389-4.389-4.389
		C317.44,54.857,35.109,54.857,35.109,54.857z"/>
	<path style="fill:#010101;" d="M276.48,135.314H76.069c-8.777,0-14.629-7.314-14.629-14.629c0-7.314,7.314-14.629,14.629-14.629
		H276.48c8.777,0,14.629,7.314,14.629,14.629C291.109,128,283.794,135.314,276.48,135.314z"/>
	<path style="fill:#010101;" d="M276.48,226.011H76.069c-8.777,0-14.629-7.314-14.629-14.629c0-8.777,7.314-14.629,14.629-14.629
		H276.48c8.777,0,14.629,7.314,14.629,14.629S283.794,226.011,276.48,226.011z"/>
	<path style="fill:#010101;" d="M276.48,315.246H76.069c-8.777,0-14.629-7.314-14.629-14.629c0-7.314,7.314-14.629,14.629-14.629
		H276.48c8.777,0,14.629,7.314,14.629,14.629C291.109,307.931,283.794,315.246,276.48,315.246z"/>
	<path style="fill:#010101;" d="M276.48,405.943H76.069c-8.777,0-14.629-7.314-14.629-14.629c0-7.314,7.314-14.629,14.629-14.629
		H276.48c8.777,0,14.629,7.314,14.629,14.629C291.109,398.629,283.794,405.943,276.48,405.943z"/>
</g>
<path style="fill:#F15E75;" d="M381.806,378.149v76.069c0,8.777,7.314,16.091,16.091,16.091h67.291
	c8.777,0,16.091-7.314,16.091-16.091v-76.069L381.806,378.149L381.806,378.149z"/>
<polygon style="fill:#F6E272;" points="482.743,378.149 381.806,378.149 381.806,132.389 433.006,24.137 482.743,132.389 "/>
<polygon style="fill:#E09C49;" points="383.269,130.926 381.806,132.389 381.806,378.149 482.743,378.149 482.743,132.389 
	482.743,130.926 "/>
<g style="opacity:0.1;">
	<path style="fill:#030303;" d="M433.006,378.149h-51.2v76.069c0,8.777,7.314,16.091,16.091,16.091h35.109V378.149z"/>
	<rect id="SVGCleanerId_0" x="381.806" y="135.314" style="fill:#030303;" width="51.2" height="242.834"/>
	<g>
		<rect id="SVGCleanerId_0_1_" x="381.806" y="135.314" style="fill:#030303;" width="51.2" height="242.834"/>
	</g>
</g>
<g>
	<path style="fill:#010101;" d="M482.743,394.24h-99.474c-8.777,0-14.629-7.314-14.629-14.629V132.389c0-2.926,0-4.389,1.463-5.851
		L419.84,19.749c2.926-5.851,7.314-8.777,13.166-8.777c5.851,0,11.703,2.926,13.166,8.777l49.737,106.789
		c1.463,1.463,1.463,4.389,1.463,5.851v247.223C497.371,386.926,490.057,394.24,482.743,394.24z M397.897,363.52h70.217V135.314
		l-35.109-74.606l-35.109,74.606V363.52z"/>
	<path style="fill:#010101;" d="M466.651,486.4H399.36c-17.554,0-30.72-14.629-30.72-30.72v-76.069
		c0-8.777,7.314-14.629,14.629-14.629h99.474c8.777,0,14.629,7.314,14.629,14.629v76.069
		C497.371,471.771,482.743,486.4,466.651,486.4z M397.897,394.24v61.44l68.754,1.463c0,0,1.463,0,1.463-1.463v-61.44H397.897z"/>
	<path style="fill:#010101;" d="M482.743,147.017h-99.474c-8.777,0-14.629-7.314-14.629-14.629c0-8.777,7.314-14.629,14.629-14.629
		h99.474c8.777,0,14.629,7.314,14.629,14.629S490.057,147.017,482.743,147.017z"/>
</g>
<g>
</g>
<g>
</g>
<g>
</g>
<g>
</g>
<g>
</g>
<g>
</g>
<g>
</g>
<g>
</g>
<g>
</g>
<g>
</g>
<g>
</g>
<g>
</g>
<g>
</g>
<g>
</g>
<g>
</g>
</svg>
