<?xml version="1.0" encoding="iso-8859-1"?>
<!-- Generator: Adobe Illustrator 19.0.0, SVG Export Plug-In . SVG Version: 6.00 Build 0)  -->
<svg version="1.1" id="Capa_1" xmlns="http://www.w3.org/2000/svg" xmlns:xlink="http://www.w3.org/1999/xlink" x="0px" y="0px"
	 viewBox="0 0 497.371 497.371" style="enable-background:new 0 0 497.371 497.371;" xml:space="preserve">
<path style="fill:#FFFFFF;" d="M459.337,482.743H38.034c-13.166,0-23.406-10.24-23.406-23.406V38.034
	c0-13.166,10.24-23.406,23.406-23.406h421.303c13.166,0,23.406,10.24,23.406,23.406v421.303
	C482.743,472.503,472.503,482.743,459.337,482.743z"/>
<path style="fill:#E09C49;" d="M482.743,125.806V38.034c0-13.166-10.24-23.406-23.406-23.406H38.034
	c-13.166,0-23.406,10.24-23.406,23.406v87.771H482.743z"/>
<path d="M459.337,497.371H38.034C17.554,497.371,0,479.817,0,459.337V38.034C0,17.554,17.554,0,38.034,0h421.303
	c20.48,0,38.034,17.554,38.034,38.034v421.303C497.371,479.817,479.817,497.371,459.337,497.371z M38.034,29.257
	c-4.389,0-8.777,4.389-8.777,8.777v421.303c0,4.389,4.389,8.777,8.777,8.777h421.303c4.389,0,8.777-4.389,8.777-8.777V38.034
	c0-4.389-4.389-8.777-8.777-8.777H38.034z"/>
<path d="M482.743,140.434H14.629C5.851,140.434,0,134.583,0,125.806s5.851-14.629,14.629-14.629h468.114
	c8.777,0,14.629,5.851,14.629,14.629S491.52,140.434,482.743,140.434z"/>
<g>
	<path style="fill:#FFFFFF;" d="M64.366,80.457c-5.851-5.851-5.851-14.629,0-20.48s14.629-5.851,20.48,0s5.851,14.629,0,20.48
		C80.457,86.309,70.217,86.309,64.366,80.457z"/>
	<path style="fill:#FFFFFF;" d="M114.103,80.457c-5.851-5.851-5.851-14.629,0-20.48s16.091-5.851,20.48,0
		c5.851,5.851,5.851,14.629,0,20.48C128.731,86.309,119.954,86.309,114.103,80.457z"/>
	<path style="fill:#FFFFFF;" d="M163.84,80.457c-5.851-5.851-5.851-14.629,0-20.48s16.091-5.851,20.48,0
		c5.851,5.851,5.851,14.629,0,20.48C178.469,86.309,169.691,86.309,163.84,80.457z"/>
	<path style="fill:#FFFFFF;" d="M422.766,84.846H250.149c-8.777,0-14.629-5.851-14.629-14.629s5.851-14.629,14.629-14.629h171.154
		c8.777,0,14.629,5.851,14.629,14.629S430.08,84.846,422.766,84.846z"/>
</g>
<path d="M96.549,434.469c-4.389-4.389-5.851-10.24-2.926-14.629l43.886-133.12c0-1.463,1.463-4.389,2.926-5.851L289.646,133.12
	c5.851-5.851,14.629-5.851,20.48,0l89.234,89.234c5.851,5.851,5.851,14.629,0,20.48L251.611,390.583
	c-1.463,1.463-2.926,2.926-5.851,2.926l-133.12,43.886C106.789,440.32,100.937,438.857,96.549,434.469z M165.303,298.423
	l-33.646,102.4l102.4-33.646L368.64,232.594l-68.754-68.754L165.303,298.423z"/>
<path d="M96.549,434.469c-4.389-4.389-5.851-10.24-2.926-14.629l17.554-54.126c2.926-7.314,10.24-11.703,19.017-8.777
	c7.314,2.926,11.703,10.24,8.777,19.017l-8.777,26.331l26.331-8.777c7.314-2.926,16.091,1.463,19.017,8.777
	c2.926,7.314-1.463,16.091-8.777,19.017l-54.126,17.554C106.789,440.32,100.937,438.857,96.549,434.469z"/>
<rect x="166.393" y="197.578" transform="matrix(0.7071 -0.7071 0.7071 0.7071 -105.0314 267.392)" style="fill:#77C587;" width="207.724" height="125.805"/>
<polygon style="fill:#08A650;" points="323.291,171.154 299.886,143.36 153.6,289.646 177.006,317.44 "/>
<path style="fill:#F6E272;" d="M387.657,232.594l40.96-40.96c8.777-8.777,8.777-23.406,0-32.183L371.566,102.4
	c-8.777-8.777-23.406-8.777-32.183,0l-39.497,40.96L387.657,232.594z"/>
<path d="M241.371,393.509L241.371,393.509c-4.389,0-7.314-1.463-10.24-4.389l-87.771-89.234c-5.851-5.851-5.851-14.629,0-20.48
	L289.646,133.12c5.851-5.851,14.629-5.851,20.48,0l89.234,89.234c5.851,5.851,5.851,14.629,0,20.48L253.074,389.12
	C248.686,392.046,245.76,393.509,241.371,393.509z M174.08,289.646l67.291,68.754l125.806-125.806l-67.291-68.754L174.08,289.646z"
	/>
<path d="M239.909,394.971c-4.389,0-7.314-1.463-10.24-4.389l-89.234-89.234c-5.851-5.851-5.851-14.629,0-20.48
	c5.851-5.851,14.629-5.851,20.48,0l89.234,89.234c5.851,5.851,5.851,14.629,0,20.48
	C248.686,393.509,244.297,394.971,239.909,394.971z"/>
<path d="M387.657,247.223c-4.389,0-7.314-1.463-10.24-4.389L289.646,153.6c-5.851-5.851-5.851-14.629,0-20.48l39.497-40.96
	c14.629-14.629,38.034-14.629,52.663,0l57.051,57.051c7.314,7.314,10.24,16.091,10.24,26.331c0,10.24-4.389,19.017-10.24,26.331
	l-40.96,40.96C396.434,245.76,392.046,247.223,387.657,247.223z M320.366,143.36l67.291,68.754l29.257-29.257
	c1.463-1.463,2.926-2.926,2.926-5.851c0-1.463-1.463-4.389-2.926-5.851l-57.051-57.051c-2.926-2.926-8.777-2.926-11.703,0
	L320.366,143.36z"/>
<path d="M196.023,349.623c-4.389,0-7.314-1.463-10.24-4.389c-5.851-5.851-5.851-14.629,0-20.48l147.749-147.749
	c5.851-5.851,14.629-5.851,20.48,0s5.851,14.629,0,20.48L206.263,345.234C203.337,348.16,200.411,349.623,196.023,349.623z"/>
<path d="M402.286,438.857H108.251c-8.777,0-14.629-5.851-14.629-14.629s5.851-14.629,14.629-14.629h294.034
	c8.777,0,14.629,5.851,14.629,14.629S411.063,438.857,402.286,438.857z"/>
<g>
</g>
<g>
</g>
<g>
</g>
<g>
</g>
<g>
</g>
<g>
</g>
<g>
</g>
<g>
</g>
<g>
</g>
<g>
</g>
<g>
</g>
<g>
</g>
<g>
</g>
<g>
</g>
<g>
</g>
</svg>
