<?xml version="1.0" encoding="iso-8859-1"?>
<!-- Generator: Adobe Illustrator 19.0.0, SVG Export Plug-In . SVG Version: 6.00 Build 0)  -->
<svg version="1.1" id="Capa_1" xmlns="http://www.w3.org/2000/svg" xmlns:xlink="http://www.w3.org/1999/xlink" x="0px" y="0px"
	 viewBox="0 0 497.371 497.371" style="enable-background:new 0 0 497.371 497.371;" xml:space="preserve">
<g>
	<path style="fill:#C0D0D6;" d="M52.663,42.423c0,16.091-7.314,24.869-19.017,24.869c-11.703,0-17.554-8.777-19.017-23.406
		c0-16.091,7.314-24.869,19.017-24.869S52.663,27.794,52.663,42.423z M21.943,43.886c0,11.703,4.389,19.017,11.703,19.017
		s11.703-7.314,11.703-19.017s-2.926-19.017-11.703-19.017C27.794,23.406,21.943,30.72,21.943,43.886z"/>
	<path style="fill:#C0D0D6;" d="M58.514,54.126c0-5.851,4.389-10.24,10.24-13.166l0,0c-5.851-1.463-8.777-5.851-8.777-8.777
		c0-7.314,7.314-11.703,16.091-11.703c10.24,0,16.091,5.851,16.091,11.703c0,4.389-2.926,8.777-8.777,10.24l0,0
		c7.314,1.463,11.703,5.851,11.703,11.703c0,8.777-8.777,13.166-19.017,13.166C64.366,67.291,58.514,61.44,58.514,54.126z
		 M87.771,54.126c0-5.851-4.389-8.777-11.703-10.24c-7.314,1.463-10.24,5.851-10.24,10.24s4.389,8.777,10.24,8.777
		C83.383,62.903,87.771,58.514,87.771,54.126z M67.291,30.72c0,4.389,4.389,7.314,10.24,8.777c4.389-1.463,8.777-4.389,8.777-8.777
		s-2.926-7.314-8.777-7.314C70.217,23.406,67.291,27.794,67.291,30.72z"/>
	<path style="fill:#C0D0D6;" d="M137.509,20.48v4.389l-24.869,40.96h-7.314l23.406-40.96l0,0H102.4V20.48H137.509z"/>
	<path style="fill:#C0D0D6;" d="M179.931,42.423c0,16.091-7.314,24.869-19.017,24.869c-10.24,0-17.554-8.777-17.554-23.406
		c0-16.091,7.314-24.869,19.017-24.869C174.08,19.017,179.931,27.794,179.931,42.423z M150.674,43.886
		c0,11.703,4.389,19.017,11.703,19.017s11.703-7.314,11.703-19.017s-2.926-19.017-11.703-19.017
		C155.063,23.406,150.674,30.72,150.674,43.886z"/>
	<path style="fill:#C0D0D6;" d="M223.817,42.423c0,16.091-7.314,24.869-19.017,24.869c-10.24,0-17.554-8.777-17.554-23.406
		c0-16.091,7.314-24.869,19.017-24.869C216.503,19.017,223.817,27.794,223.817,42.423z M194.56,43.886
		c0,11.703,4.389,19.017,11.703,19.017s11.703-7.314,11.703-19.017s-2.926-19.017-11.703-19.017
		C198.949,23.406,194.56,30.72,194.56,43.886z"/>
	<path style="fill:#C0D0D6;" d="M264.777,20.48v4.389l-23.406,40.96h-7.314l23.406-40.96l0,0h-26.331V20.48H264.777z"/>
	<path style="fill:#C0D0D6;" d="M295.497,65.829V54.126h-24.869v-4.389l24.869-29.257h7.314v29.257h7.314v4.389h-7.314v11.703
		H295.497z M295.497,48.274V33.646c0-2.926,0-4.389,0-7.314l0,0c-1.463,2.926-2.926,4.389-4.389,7.314l-13.166,16.091l0,0h17.554
		V48.274z"/>
	<path style="fill:#C0D0D6;" d="M354.011,42.423c0,16.091-7.314,24.869-19.017,24.869c-10.24,0-17.554-8.777-17.554-23.406
		c0-16.091,7.314-24.869,19.017-24.869C346.697,19.017,354.011,27.794,354.011,42.423z M324.754,43.886
		c0,11.703,4.389,19.017,11.703,19.017c7.314,0,11.703-7.314,11.703-19.017s-2.926-19.017-11.703-19.017
		C329.143,23.406,324.754,30.72,324.754,43.886z"/>
	<path style="fill:#C0D0D6;" d="M359.863,54.126c0-5.851,4.389-10.24,10.24-13.166l0,0c-5.851-2.926-8.777-5.851-8.777-10.24
		c0-7.314,7.314-11.703,16.091-11.703c10.24,0,16.091,5.851,16.091,11.703c0,4.389-2.926,8.777-8.777,10.24l0,0
		c7.314,2.926,10.24,5.851,10.24,11.703c0,8.777-8.777,13.166-19.017,13.166C367.177,67.291,359.863,61.44,359.863,54.126z
		 M389.12,54.126c0-5.851-4.389-8.777-11.703-10.24c-5.851,1.463-10.24,5.851-10.24,10.24s4.389,8.777,10.24,8.777
		C384.731,62.903,389.12,58.514,389.12,54.126z M368.64,30.72c0,4.389,4.389,7.314,10.24,8.777c4.389-1.463,8.777-4.389,8.777-8.777
		s-2.926-7.314-8.777-7.314C371.566,23.406,368.64,27.794,368.64,30.72z"/>
	<path style="fill:#C0D0D6;" d="M438.857,20.48v4.389l-23.406,40.96h-7.314l23.406-40.96l0,0h-26.331V20.48H438.857z"/>
	<path style="fill:#C0D0D6;" d="M482.743,42.423c0,16.091-7.314,24.869-19.017,24.869c-10.24,0-17.554-8.777-17.554-23.406
		c0-16.091,7.314-24.869,19.017-24.869C475.429,19.017,482.743,27.794,482.743,42.423z M452.023,43.886
		c0,11.703,4.389,19.017,11.703,19.017c7.314,0,11.703-7.314,11.703-19.017s-2.926-19.017-11.703-19.017
		C457.874,23.406,452.023,30.72,452.023,43.886z"/>
	<path style="fill:#C0D0D6;" d="M52.663,111.177c0,16.091-7.314,24.869-19.017,24.869s-17.554-8.777-19.017-24.869
		c0-16.091,7.314-24.869,19.017-24.869C45.349,87.771,52.663,96.549,52.663,111.177z M21.943,111.177
		c0,13.166,4.389,19.017,11.703,19.017s11.703-7.314,11.703-19.017S42.423,92.16,33.646,92.16
		C27.794,92.16,21.943,99.474,21.943,111.177z"/>
	<path style="fill:#C0D0D6;" d="M58.514,122.88c0-5.851,4.389-10.24,10.24-13.166l0,0c-5.851-1.463-8.777-5.851-8.777-10.24
		c0-7.314,7.314-11.703,16.091-11.703c10.24,0,16.091,5.851,16.091,11.703c0,4.389-2.926,8.777-8.777,10.24l0,0
		c7.314,2.926,11.703,7.314,11.703,13.166c0,8.777-8.777,13.166-19.017,13.166C64.366,136.046,58.514,130.194,58.514,122.88z
		 M87.771,122.88c0-5.851-4.389-8.777-11.703-10.24c-7.314,1.463-10.24,5.851-10.24,10.24c0,4.389,4.389,8.777,10.24,8.777
		C83.383,131.657,87.771,127.269,87.771,122.88z M67.291,99.474c0,4.389,4.389,7.314,10.24,8.777
		c4.389-1.463,8.777-4.389,8.777-8.777c0-4.389-2.926-7.314-8.777-7.314C70.217,92.16,67.291,95.086,67.291,99.474z"/>
	<path style="fill:#C0D0D6;" d="M137.509,87.771v4.389l-24.869,42.423h-7.314l23.406-40.96l0,0H102.4v-5.851H137.509z"/>
	<path style="fill:#C0D0D6;" d="M179.931,111.177c0,16.091-7.314,24.869-19.017,24.869c-10.24,0-17.554-8.777-17.554-23.406
		c0-16.091,7.314-24.869,19.017-24.869C174.08,87.771,179.931,96.549,179.931,111.177z M150.674,111.177
		c0,11.703,4.389,19.017,11.703,19.017s11.703-7.314,11.703-19.017s-2.926-19.017-11.703-19.017
		C155.063,92.16,150.674,99.474,150.674,111.177z"/>
	<path style="fill:#C0D0D6;" d="M223.817,111.177c0,16.091-7.314,24.869-19.017,24.869c-10.24,0-17.554-8.777-17.554-23.406
		c0-16.091,7.314-24.869,19.017-24.869C216.503,87.771,223.817,96.549,223.817,111.177z M194.56,111.177
		c0,11.703,4.389,19.017,11.703,19.017s11.703-7.314,11.703-19.017S215.04,92.16,206.263,92.16
		C198.949,92.16,194.56,99.474,194.56,111.177z"/>
	<path style="fill:#C0D0D6;" d="M264.777,87.771v4.389l-23.406,42.423h-7.314l23.406-40.96l0,0h-26.331v-5.851H264.777z"/>
	<path style="fill:#C0D0D6;" d="M295.497,134.583V122.88h-24.869v-4.389l24.869-29.257h7.314v29.257h7.314v4.389h-7.314v13.166
		h-7.314V134.583z M295.497,117.029V102.4c0-2.926,0-4.389,0-7.314l0,0c-1.463,2.926-2.926,4.389-4.389,7.314l-13.166,16.091l0,0
		h17.554V117.029z"/>
	<path style="fill:#C0D0D6;" d="M354.011,111.177c0,16.091-7.314,24.869-19.017,24.869c-10.24,0-17.554-8.777-17.554-23.406
		c0-16.091,7.314-24.869,19.017-24.869C346.697,87.771,354.011,96.549,354.011,111.177z M324.754,111.177
		c0,11.703,4.389,19.017,11.703,19.017c7.314,0,11.703-7.314,11.703-19.017s-2.926-19.017-11.703-19.017
		C329.143,92.16,324.754,99.474,324.754,111.177z"/>
	<path style="fill:#C0D0D6;" d="M359.863,122.88c0-5.851,4.389-10.24,10.24-13.166l0,0c-5.851-2.926-8.777-5.851-8.777-10.24
		c0-7.314,7.314-11.703,16.091-11.703c10.24,0,16.091,5.851,16.091,11.703c0,4.389-2.926,8.777-8.777,10.24l0,0
		c7.314,2.926,10.24,5.851,10.24,11.703c0,8.777-8.777,13.166-19.017,13.166C367.177,136.046,359.863,130.194,359.863,122.88z
		 M389.12,122.88c0-5.851-4.389-8.777-11.703-10.24c-5.851,1.463-10.24,5.851-10.24,10.24s4.389,8.777,10.24,8.777
		C384.731,131.657,389.12,127.269,389.12,122.88z M368.64,99.474c0,4.389,4.389,7.314,10.24,8.777
		c4.389-1.463,8.777-4.389,8.777-8.777c0-4.389-2.926-7.314-8.777-7.314C371.566,92.16,368.64,95.086,368.64,99.474z"/>
	<path style="fill:#C0D0D6;" d="M438.857,87.771v4.389l-23.406,42.423h-7.314l23.406-40.96l0,0h-26.331v-5.851H438.857z"/>
	<path style="fill:#C0D0D6;" d="M482.743,111.177c0,16.091-7.314,24.869-19.017,24.869c-10.24,0-17.554-8.777-17.554-23.406
		c0-16.091,7.314-24.869,19.017-24.869C475.429,87.771,482.743,96.549,482.743,111.177z M452.023,111.177
		c0,11.703,4.389,19.017,11.703,19.017c7.314,0,11.703-7.314,11.703-19.017s-2.926-19.017-11.703-19.017
		C457.874,92.16,452.023,99.474,452.023,111.177z"/>
	<path style="fill:#C0D0D6;" d="M52.663,179.931c0,16.091-7.314,24.869-19.017,24.869c-10.24,0-17.554-8.777-17.554-23.406
		c0-16.091,7.314-24.869,19.017-24.869C45.349,156.526,52.663,165.303,52.663,179.931z M21.943,179.931
		c0,11.703,4.389,19.017,11.703,19.017s11.703-7.314,11.703-19.017c0-11.703-2.926-19.017-11.703-19.017
		C27.794,160.914,21.943,168.229,21.943,179.931z"/>
	<path style="fill:#C0D0D6;" d="M58.514,191.634c0-5.851,4.389-10.24,10.24-13.166l0,0c-5.851-2.926-8.777-5.851-8.777-10.24
		c0-7.314,7.314-11.703,16.091-11.703c10.24,0,16.091,5.851,16.091,11.703c0,4.389-2.926,8.777-8.777,10.24l0,0
		c7.314,2.926,11.703,5.851,11.703,11.703c0,8.777-8.777,13.166-19.017,13.166C64.366,204.8,58.514,198.949,58.514,191.634z
		 M87.771,191.634c0-5.851-4.389-8.777-11.703-10.24c-7.314,1.463-10.24,4.389-10.24,8.777c0,4.389,4.389,8.777,10.24,8.777
		C83.383,198.949,87.771,196.023,87.771,191.634z M67.291,168.229c0,4.389,4.389,7.314,10.24,8.777
		c4.389-1.463,8.777-4.389,8.777-8.777c0-4.389-2.926-7.314-8.777-7.314C70.217,160.914,67.291,163.84,67.291,168.229z"/>
	<path style="fill:#C0D0D6;" d="M137.509,156.526v4.389l-23.406,42.423h-8.777l23.406-40.96l0,0H102.4v-5.851H137.509z"/>
	<path style="fill:#C0D0D6;" d="M179.931,179.931c0,16.091-7.314,24.869-19.017,24.869c-10.24,0-17.554-8.777-17.554-23.406
		c0-16.091,7.314-24.869,19.017-24.869C174.08,156.526,179.931,165.303,179.931,179.931z M150.674,179.931
		c0,11.703,4.389,19.017,11.703,19.017s11.703-7.314,11.703-19.017c0-11.703-2.926-19.017-11.703-19.017
		C155.063,160.914,150.674,168.229,150.674,179.931z"/>
	<path style="fill:#C0D0D6;" d="M223.817,179.931c0,16.091-7.314,24.869-19.017,24.869c-10.24,0-17.554-8.777-17.554-23.406
		c0-16.091,7.314-24.869,19.017-24.869C216.503,156.526,223.817,165.303,223.817,179.931z M194.56,179.931
		c0,11.703,4.389,19.017,11.703,19.017s11.703-7.314,11.703-19.017c0-11.703-2.926-19.017-11.703-19.017
		C198.949,160.914,194.56,168.229,194.56,179.931z"/>
	<path style="fill:#C0D0D6;" d="M264.777,156.526v4.389l-23.406,42.423h-7.314l23.406-40.96l0,0h-26.331v-5.851H264.777z"/>
	<path style="fill:#C0D0D6;" d="M295.497,203.337v-13.166h-24.869v-4.389l24.869-29.257h7.314v29.257h7.314v4.389h-7.314v13.166
		H295.497z M295.497,185.783v-16.091c0-2.926,0-4.389,0-7.314l0,0c-1.463,2.926-2.926,4.389-4.389,7.314l-13.166,16.091l0,0H295.497
		z"/>
	<path style="fill:#C0D0D6;" d="M354.011,179.931c0,16.091-7.314,24.869-19.017,24.869c-10.24,0-17.554-8.777-17.554-23.406
		c0-16.091,7.314-24.869,19.017-24.869C346.697,156.526,354.011,165.303,354.011,179.931z M324.754,179.931
		c0,11.703,4.389,19.017,11.703,19.017c7.314,0,11.703-7.314,11.703-19.017c0-11.703-2.926-19.017-11.703-19.017
		C329.143,160.914,324.754,168.229,324.754,179.931z"/>
	<path style="fill:#C0D0D6;" d="M359.863,191.634c0-5.851,4.389-10.24,10.24-13.166l0,0c-5.851-2.926-8.777-5.851-8.777-10.24
		c0-7.314,7.314-11.703,16.091-11.703c10.24,0,16.091,5.851,16.091,11.703c0,4.389-2.926,8.777-8.777,10.24l0,0
		c7.314,2.926,10.24,5.851,10.24,11.703c0,8.777-8.777,13.166-19.017,13.166C367.177,204.8,359.863,198.949,359.863,191.634z
		 M389.12,191.634c0-5.851-4.389-8.777-11.703-10.24c-5.851,1.463-10.24,5.851-10.24,10.24s4.389,8.777,10.24,8.777
		C384.731,198.949,389.12,196.023,389.12,191.634z M368.64,168.229c0,4.389,4.389,7.314,10.24,8.777
		c4.389-1.463,8.777-4.389,8.777-8.777c0-4.389-2.926-7.314-8.777-7.314C371.566,160.914,368.64,163.84,368.64,168.229z"/>
	<path style="fill:#C0D0D6;" d="M438.857,156.526v4.389l-23.406,42.423h-7.314l23.406-40.96l0,0h-26.331v-5.851H438.857z"/>
	<path style="fill:#C0D0D6;" d="M482.743,179.931c0,16.091-7.314,24.869-19.017,24.869c-10.24,0-17.554-8.777-17.554-23.406
		c0-16.091,7.314-24.869,19.017-24.869C475.429,156.526,482.743,165.303,482.743,179.931z M452.023,179.931
		c0,11.703,4.389,19.017,11.703,19.017c7.314,0,11.703-7.314,11.703-19.017c0-11.703-2.926-19.017-11.703-19.017
		C457.874,160.914,452.023,168.229,452.023,179.931z"/>
	<path style="fill:#C0D0D6;" d="M52.663,248.686c0,16.091-7.314,24.869-19.017,24.869c-10.24,0-17.554-8.777-17.554-23.406
		c0-16.091,7.314-24.869,19.017-24.869C45.349,225.28,52.663,234.057,52.663,248.686z M21.943,248.686
		c0,11.703,4.389,19.017,11.703,19.017s11.703-7.314,11.703-19.017c0-11.703-2.926-19.017-11.703-19.017
		C27.794,229.669,21.943,236.983,21.943,248.686z"/>
	<path style="fill:#C0D0D6;" d="M58.514,260.389c0-5.851,4.389-10.24,10.24-13.166l0,0c-5.851-2.926-8.777-5.851-8.777-10.24
		c0-7.314,7.314-11.703,16.091-11.703c10.24,0,16.091,5.851,16.091,11.703c0,4.389-2.926,8.777-8.777,10.24l0,0
		c7.314,2.926,11.703,5.851,11.703,11.703c0,8.777-8.777,13.166-19.017,13.166C64.366,272.091,58.514,266.24,58.514,260.389z
		 M87.771,260.389c0-5.851-4.389-8.777-11.703-10.24c-7.314,1.463-10.24,4.389-10.24,8.777s4.389,8.777,10.24,8.777
		C83.383,267.703,87.771,264.777,87.771,260.389z M67.291,236.983c0,4.389,4.389,7.314,10.24,8.777
		c4.389-1.463,8.777-4.389,8.777-8.777c0-4.389-2.926-7.314-8.777-7.314C70.217,229.669,67.291,232.594,67.291,236.983z"/>
	<path style="fill:#C0D0D6;" d="M137.509,225.28v4.389l-23.406,42.423h-8.777l23.406-40.96l0,0H102.4v-5.851H137.509z"/>
	<path style="fill:#C0D0D6;" d="M179.931,248.686c0,16.091-7.314,24.869-19.017,24.869c-10.24,0-17.554-8.777-17.554-23.406
		c0-16.091,7.314-24.869,19.017-24.869C174.08,225.28,179.931,234.057,179.931,248.686z M150.674,248.686
		c0,11.703,4.389,19.017,11.703,19.017s11.703-7.314,11.703-19.017c0-11.703-2.926-19.017-11.703-19.017
		C155.063,229.669,150.674,236.983,150.674,248.686z"/>
	<path style="fill:#C0D0D6;" d="M223.817,248.686c0,16.091-7.314,24.869-19.017,24.869c-10.24,0-17.554-8.777-17.554-23.406
		c0-16.091,7.314-24.869,19.017-24.869C216.503,225.28,223.817,234.057,223.817,248.686z M194.56,248.686
		c0,11.703,4.389,19.017,11.703,19.017s11.703-7.314,11.703-19.017c0-11.703-2.926-19.017-11.703-19.017
		C198.949,229.669,194.56,236.983,194.56,248.686z"/>
	<path style="fill:#C0D0D6;" d="M264.777,225.28v4.389l-23.406,42.423h-7.314l23.406-40.96l0,0h-26.331v-5.851L264.777,225.28
		L264.777,225.28z"/>
	<path style="fill:#C0D0D6;" d="M295.497,272.091v-13.166h-24.869v-4.389l24.869-29.257h7.314v29.257h7.314v4.389h-7.314v13.166
		H295.497z M295.497,254.537v-16.091c0-2.926,0-4.389,0-7.314l0,0c-1.463,2.926-2.926,4.389-4.389,7.314l-13.166,16.091l0,0H295.497
		z"/>
	<path style="fill:#C0D0D6;" d="M354.011,248.686c0,16.091-7.314,24.869-19.017,24.869c-10.24,0-17.554-8.777-17.554-23.406
		c0-16.091,7.314-24.869,19.017-24.869C346.697,225.28,354.011,234.057,354.011,248.686z M324.754,248.686
		c0,11.703,4.389,19.017,11.703,19.017c7.314,0,11.703-7.314,11.703-19.017c0-11.703-2.926-19.017-11.703-19.017
		C329.143,229.669,324.754,236.983,324.754,248.686z"/>
	<path style="fill:#C0D0D6;" d="M359.863,260.389c0-5.851,4.389-10.24,10.24-13.166l0,0c-5.851-2.926-8.777-5.851-8.777-10.24
		c0-7.314,7.314-11.703,16.091-11.703c10.24,0,16.091,5.851,16.091,11.703c0,4.389-2.926,8.777-8.777,10.24l0,0
		c7.314,2.926,10.24,5.851,10.24,11.703c0,8.777-8.777,13.166-19.017,13.166C367.177,272.091,359.863,266.24,359.863,260.389z
		 M389.12,260.389c0-5.851-4.389-8.777-11.703-10.24c-5.851,1.463-10.24,5.851-10.24,10.24s4.389,8.777,10.24,8.777
		C384.731,267.703,389.12,264.777,389.12,260.389z M368.64,236.983c0,4.389,4.389,7.314,10.24,8.777
		c4.389-1.463,8.777-4.389,8.777-8.777c0-4.389-2.926-7.314-8.777-7.314C371.566,229.669,368.64,232.594,368.64,236.983z"/>
	<path style="fill:#C0D0D6;" d="M438.857,225.28v4.389l-23.406,42.423h-7.314l23.406-40.96l0,0h-26.331v-5.851H438.857z"/>
	<path style="fill:#C0D0D6;" d="M482.743,248.686c0,16.091-7.314,24.869-19.017,24.869c-10.24,0-17.554-8.777-17.554-23.406
		c0-16.091,7.314-24.869,19.017-24.869C475.429,225.28,482.743,234.057,482.743,248.686z M452.023,248.686
		c0,11.703,4.389,19.017,11.703,19.017c7.314,0,11.703-7.314,11.703-19.017c0-11.703-2.926-19.017-11.703-19.017
		C457.874,229.669,452.023,236.983,452.023,248.686z"/>
	<path style="fill:#C0D0D6;" d="M52.663,315.977c0,16.091-7.314,24.869-19.017,24.869c-10.24,0-17.554-8.777-17.554-23.406
		c0-16.091,7.314-24.869,19.017-24.869C45.349,292.571,52.663,301.349,52.663,315.977z M21.943,317.44
		c0,11.703,4.389,19.017,11.703,19.017s11.703-7.314,11.703-19.017s-2.926-19.017-11.703-19.017
		C27.794,298.423,21.943,304.274,21.943,317.44z"/>
	<path style="fill:#C0D0D6;" d="M58.514,329.143c0-5.851,4.389-10.24,10.24-13.166l0,0c-5.851-2.926-8.777-5.851-8.777-10.24
		c0-7.314,7.314-11.703,16.091-11.703c10.24,0,16.091,5.851,16.091,11.703c0,4.389-2.926,8.777-8.777,10.24l0,0
		c7.314,1.463,11.703,5.851,11.703,11.703c0,8.777-8.777,13.166-19.017,13.166C64.366,340.846,58.514,334.994,58.514,329.143z
		 M87.771,327.68c0-5.851-4.389-8.777-11.703-10.24c-7.314,2.926-10.24,5.851-10.24,10.24s4.389,8.777,10.24,8.777
		C83.383,336.457,87.771,333.531,87.771,327.68z M67.291,305.737c0,4.389,4.389,7.314,10.24,8.777
		c4.389-1.463,8.777-4.389,8.777-8.777s-2.926-7.314-8.777-7.314C70.217,296.96,67.291,301.349,67.291,305.737z"/>
	<path style="fill:#C0D0D6;" d="M137.509,294.034v4.389l-23.406,42.423h-8.777l23.406-40.96l0,0H102.4v-5.851H137.509z"/>
	<path style="fill:#C0D0D6;" d="M179.931,315.977c0,16.091-7.314,24.869-19.017,24.869c-10.24,0-17.554-8.777-17.554-23.406
		c0-16.091,7.314-24.869,19.017-24.869C174.08,292.571,179.931,301.349,179.931,315.977z M150.674,317.44
		c0,11.703,4.389,19.017,11.703,19.017s11.703-7.314,11.703-19.017s-2.926-19.017-11.703-19.017
		C155.063,298.423,150.674,304.274,150.674,317.44z"/>
	<path style="fill:#C0D0D6;" d="M223.817,315.977c0,16.091-7.314,24.869-19.017,24.869c-10.24,0-17.554-8.777-17.554-23.406
		c0-16.091,7.314-24.869,19.017-24.869C216.503,292.571,223.817,301.349,223.817,315.977z M194.56,317.44
		c0,11.703,4.389,19.017,11.703,19.017s11.703-7.314,11.703-19.017s-2.926-19.017-11.703-19.017
		C198.949,298.423,194.56,304.274,194.56,317.44z"/>
	<path style="fill:#C0D0D6;" d="M264.777,294.034v4.389l-23.406,42.423h-7.314l23.406-40.96l0,0h-26.331v-5.851H264.777z"/>
	<path style="fill:#C0D0D6;" d="M295.497,340.846V327.68h-24.869v-4.389l24.869-29.257h7.314v29.257h7.314v4.389h-7.314v13.166
		H295.497z M295.497,323.291V307.2c0-2.926,0-4.389,0-7.314l0,0c-1.463,2.926-2.926,4.389-4.389,7.314l-13.166,16.091l0,0H295.497z"
		/>
	<path style="fill:#C0D0D6;" d="M354.011,315.977c0,16.091-7.314,24.869-19.017,24.869c-10.24,0-17.554-8.777-17.554-23.406
		c0-16.091,7.314-24.869,19.017-24.869C346.697,292.571,354.011,301.349,354.011,315.977z M324.754,317.44
		c0,11.703,4.389,19.017,11.703,19.017c7.314,0,11.703-7.314,11.703-19.017s-2.926-19.017-11.703-19.017
		C329.143,298.423,324.754,304.274,324.754,317.44z"/>
	<path style="fill:#C0D0D6;" d="M359.863,329.143c0-5.851,4.389-10.24,10.24-13.166l0,0c-5.851-2.926-8.777-5.851-8.777-10.24
		c0-7.314,7.314-11.703,16.091-11.703c10.24,0,16.091,5.851,16.091,11.703c0,4.389-2.926,8.777-8.777,10.24l0,0
		c7.314,2.926,10.24,5.851,10.24,11.703c0,8.777-8.777,13.166-19.017,13.166C367.177,340.846,359.863,334.994,359.863,329.143z
		 M389.12,327.68c0-5.851-4.389-8.777-11.703-10.24c-5.851,1.463-10.24,5.851-10.24,10.24c0,4.389,4.389,8.777,10.24,8.777
		C384.731,336.457,389.12,333.531,389.12,327.68z M368.64,305.737c0,4.389,4.389,7.314,10.24,8.777
		c4.389-1.463,8.777-4.389,8.777-8.777s-2.926-7.314-8.777-7.314C371.566,296.96,368.64,301.349,368.64,305.737z"/>
	<path style="fill:#C0D0D6;" d="M438.857,294.034v4.389l-23.406,42.423h-7.314l23.406-40.96l0,0h-26.331v-5.851H438.857z"/>
	<path style="fill:#C0D0D6;" d="M482.743,315.977c0,16.091-7.314,24.869-19.017,24.869c-10.24,0-17.554-8.777-17.554-23.406
		c0-16.091,7.314-24.869,19.017-24.869C475.429,292.571,482.743,301.349,482.743,315.977z M452.023,317.44
		c0,11.703,4.389,19.017,11.703,19.017c7.314,0,11.703-7.314,11.703-19.017s-2.926-19.017-11.703-19.017
		C457.874,298.423,452.023,304.274,452.023,317.44z"/>
	<path style="fill:#C0D0D6;" d="M52.663,384.731c0,16.091-7.314,24.869-19.017,24.869c-10.24,0-17.554-8.777-17.554-23.406
		c0-16.091,7.314-24.869,19.017-24.869C45.349,361.326,52.663,370.103,52.663,384.731z M21.943,386.194
		c0,11.703,4.389,19.017,11.703,19.017s11.703-7.314,11.703-19.017s-2.926-19.017-11.703-19.017
		C27.794,367.177,21.943,373.029,21.943,386.194z"/>
	<path style="fill:#C0D0D6;" d="M58.514,396.434c0-5.851,4.389-10.24,10.24-13.166l0,0c-5.851-2.926-8.777-5.851-8.777-10.24
		c0-7.314,7.314-11.703,16.091-11.703c10.24,0,16.091,5.851,16.091,11.703c0,4.389-2.926,8.777-8.777,10.24l0,0
		c7.314,2.926,11.703,7.314,11.703,13.166c0,8.777-8.777,13.166-19.017,13.166C64.366,409.6,58.514,403.749,58.514,396.434z
		 M87.771,396.434c0-5.851-4.389-8.777-11.703-10.24c-7.314,1.463-10.24,5.851-10.24,10.24c0,4.389,4.389,8.777,10.24,8.777
		C83.383,405.211,87.771,402.286,87.771,396.434z M67.291,373.029c0,4.389,4.389,7.314,10.24,8.777
		c4.389-1.463,8.777-4.389,8.777-8.777c0-4.389-2.926-7.314-8.777-7.314C70.217,365.714,67.291,370.103,67.291,373.029z"/>
	<path style="fill:#C0D0D6;" d="M137.509,362.789v4.389L114.103,409.6h-8.777l23.406-40.96l0,0H102.4v-5.851H137.509z"/>
	<path style="fill:#C0D0D6;" d="M179.931,384.731c0,16.091-7.314,24.869-19.017,24.869c-10.24,0-17.554-8.777-17.554-23.406
		c0-16.091,7.314-24.869,19.017-24.869C174.08,361.326,179.931,370.103,179.931,384.731z M150.674,386.194
		c0,11.703,4.389,19.017,11.703,19.017s11.703-7.314,11.703-19.017s-2.926-19.017-11.703-19.017
		C155.063,367.177,150.674,373.029,150.674,386.194z"/>
	<path style="fill:#C0D0D6;" d="M223.817,384.731c0,16.091-7.314,24.869-19.017,24.869c-10.24,0-17.554-8.777-17.554-23.406
		c0-16.091,7.314-24.869,19.017-24.869C216.503,361.326,223.817,370.103,223.817,384.731z M194.56,386.194
		c0,11.703,4.389,19.017,11.703,19.017s11.703-7.314,11.703-19.017s-2.926-19.017-11.703-19.017
		C198.949,367.177,194.56,373.029,194.56,386.194z"/>
	<path style="fill:#C0D0D6;" d="M264.777,362.789v4.389L241.371,409.6h-7.314l23.406-40.96l0,0h-26.331v-5.851L264.777,362.789
		L264.777,362.789z"/>
	<path style="fill:#C0D0D6;" d="M295.497,409.6v-13.166h-24.869v-4.389l24.869-29.257h7.314v29.257h7.314v4.389h-7.314V409.6
		H295.497z M295.497,392.046v-16.091c0-2.926,0-4.389,0-7.314l0,0c-1.463,2.926-2.926,4.389-4.389,7.314l-13.166,16.091l0,0H295.497
		z"/>
	<path style="fill:#C0D0D6;" d="M354.011,384.731c0,16.091-7.314,24.869-19.017,24.869c-10.24,0-17.554-8.777-17.554-23.406
		c0-16.091,7.314-24.869,19.017-24.869C346.697,361.326,354.011,370.103,354.011,384.731z M324.754,386.194
		c0,11.703,4.389,19.017,11.703,19.017c7.314,0,11.703-7.314,11.703-19.017s-2.926-19.017-11.703-19.017
		C329.143,367.177,324.754,373.029,324.754,386.194z"/>
	<path style="fill:#C0D0D6;" d="M359.863,396.434c0-5.851,4.389-10.24,10.24-13.166l0,0c-5.851-2.926-8.777-5.851-8.777-10.24
		c0-7.314,7.314-11.703,16.091-11.703c10.24,0,16.091,5.851,16.091,11.703c0,4.389-2.926,8.777-8.777,10.24l0,0
		c7.314,2.926,10.24,5.851,10.24,11.703c0,8.777-8.777,13.166-19.017,13.166C367.177,409.6,359.863,403.749,359.863,396.434z
		 M389.12,396.434c0-5.851-4.389-8.777-11.703-10.24c-5.851,1.463-10.24,5.851-10.24,10.24c0,4.389,4.389,8.777,10.24,8.777
		C384.731,405.211,389.12,402.286,389.12,396.434z M368.64,373.029c0,4.389,4.389,7.314,10.24,8.777
		c4.389-1.463,8.777-4.389,8.777-8.777c0-4.389-2.926-7.314-8.777-7.314C371.566,365.714,368.64,370.103,368.64,373.029z"/>
	<path style="fill:#C0D0D6;" d="M438.857,362.789v4.389L415.451,409.6h-7.314l23.406-40.96l0,0h-26.331v-5.851H438.857z"/>
	<path style="fill:#C0D0D6;" d="M482.743,384.731c0,16.091-7.314,24.869-19.017,24.869c-10.24,0-17.554-8.777-17.554-23.406
		c0-16.091,7.314-24.869,19.017-24.869C475.429,361.326,482.743,370.103,482.743,384.731z M452.023,386.194
		c0,11.703,4.389,19.017,11.703,19.017c7.314,0,11.703-7.314,11.703-19.017s-2.926-19.017-11.703-19.017
		C457.874,367.177,452.023,373.029,452.023,386.194z"/>
	<path style="fill:#C0D0D6;" d="M52.663,453.486c0,16.091-7.314,24.869-19.017,24.869c-10.24,0-17.554-8.777-17.554-23.406
		c0-16.091,7.314-24.869,19.017-24.869C45.349,430.08,52.663,438.857,52.663,453.486z M21.943,454.949
		c0,11.703,4.389,19.017,11.703,19.017s11.703-7.314,11.703-19.017s-2.926-19.017-11.703-19.017
		C27.794,434.469,21.943,441.783,21.943,454.949z"/>
	<path style="fill:#C0D0D6;" d="M58.514,465.189c0-5.851,4.389-10.24,10.24-13.166l0,0c-5.851-2.926-8.777-5.851-8.777-10.24
		c0-7.314,7.314-11.703,16.091-11.703c10.24,0,16.091,5.851,16.091,11.703c0,4.389-2.926,8.777-8.777,10.24l0,0
		c7.314,2.926,11.703,7.314,11.703,13.166c0,8.777-8.777,13.166-19.017,13.166C64.366,478.354,58.514,472.503,58.514,465.189z
		 M87.771,465.189c0-5.851-4.389-8.777-11.703-10.24c-7.314,1.463-10.24,5.851-10.24,10.24c0,4.389,4.389,8.777,10.24,8.777
		C83.383,473.966,87.771,469.577,87.771,465.189z M67.291,441.783c0,4.389,4.389,7.314,10.24,8.777
		c4.389-1.463,8.777-4.389,8.777-8.777c0-4.389-2.926-7.314-8.777-7.314C70.217,434.469,67.291,438.857,67.291,441.783z"/>
	<path style="fill:#C0D0D6;" d="M137.509,431.543v4.389l-23.406,42.423h-8.777l23.406-40.96l0,0H102.4v-5.851H137.509z"/>
	<path style="fill:#C0D0D6;" d="M179.931,453.486c0,16.091-7.314,24.869-19.017,24.869c-10.24,0-17.554-8.777-17.554-23.406
		c0-16.091,7.314-24.869,19.017-24.869C174.08,430.08,179.931,438.857,179.931,453.486z M150.674,454.949
		c0,11.703,4.389,19.017,11.703,19.017s11.703-7.314,11.703-19.017s-2.926-19.017-11.703-19.017
		C155.063,434.469,150.674,441.783,150.674,454.949z"/>
	<path style="fill:#C0D0D6;" d="M223.817,453.486c0,16.091-7.314,24.869-19.017,24.869c-10.24,0-17.554-8.777-17.554-23.406
		c0-16.091,7.314-24.869,19.017-24.869C216.503,430.08,223.817,438.857,223.817,453.486z M194.56,454.949
		c0,11.703,4.389,19.017,11.703,19.017s11.703-7.314,11.703-19.017s-2.926-19.017-11.703-19.017
		C198.949,434.469,194.56,441.783,194.56,454.949z"/>
	<path style="fill:#C0D0D6;" d="M264.777,431.543v4.389l-23.406,40.96h-7.314l23.406-40.96l0,0h-26.331v-4.389H264.777z"/>
	<path style="fill:#C0D0D6;" d="M295.497,476.891v-13.166h-24.869V460.8l24.869-29.257h7.314V460.8h7.314v4.389h-7.314v13.166
		h-7.314V476.891z M295.497,459.337v-16.091c0-2.926,0-4.389,0-7.314l0,0c-1.463,2.926-2.926,4.389-4.389,7.314l-13.166,16.091l0,0
		H295.497z"/>
	<path style="fill:#C0D0D6;" d="M354.011,453.486c0,16.091-7.314,24.869-19.017,24.869c-10.24,0-17.554-8.777-17.554-23.406
		c0-16.091,7.314-24.869,19.017-24.869C346.697,430.08,354.011,438.857,354.011,453.486z M324.754,454.949
		c0,11.703,4.389,19.017,11.703,19.017c7.314,0,11.703-7.314,11.703-19.017s-2.926-19.017-11.703-19.017
		C329.143,434.469,324.754,441.783,324.754,454.949z"/>
	<path style="fill:#C0D0D6;" d="M359.863,465.189c0-5.851,4.389-10.24,10.24-13.166l0,0c-5.851-2.926-8.777-5.851-8.777-10.24
		c0-7.314,7.314-11.703,16.091-11.703c10.24,0,16.091,5.851,16.091,11.703c0,4.389-2.926,8.777-8.777,10.24l0,0
		c7.314,2.926,10.24,5.851,10.24,11.703c0,8.777-8.777,13.166-19.017,13.166C367.177,478.354,359.863,472.503,359.863,465.189z
		 M389.12,465.189c0-5.851-4.389-8.777-11.703-10.24c-5.851,1.463-10.24,5.851-10.24,10.24c0,4.389,4.389,8.777,10.24,8.777
		C384.731,473.966,389.12,469.577,389.12,465.189z M368.64,441.783c0,4.389,4.389,7.314,10.24,8.777
		c4.389-1.463,8.777-4.389,8.777-8.777c0-4.389-2.926-7.314-8.777-7.314C371.566,434.469,368.64,438.857,368.64,441.783z"/>
	<path style="fill:#C0D0D6;" d="M438.857,431.543v4.389l-23.406,42.423h-7.314l23.406-40.96l0,0h-26.331v-5.851H438.857z"/>
	<path style="fill:#C0D0D6;" d="M482.743,453.486c0,16.091-7.314,24.869-19.017,24.869c-10.24,0-17.554-8.777-17.554-23.406
		c0-16.091,7.314-24.869,19.017-24.869C475.429,430.08,482.743,438.857,482.743,453.486z M452.023,454.949
		c0,11.703,4.389,19.017,11.703,19.017c7.314,0,11.703-7.314,11.703-19.017s-2.926-19.017-11.703-19.017
		C457.874,434.469,452.023,441.783,452.023,454.949z"/>
</g>
<g style="opacity:0.7;">
	<ellipse style="fill:#FFFFFF;" cx="248.686" cy="248.686" rx="166.766" ry="234.057"/>
</g>
<path d="M248.686,497.371c-99.474,0-181.394-111.177-181.394-248.686S147.749,0,248.686,0S430.08,111.177,430.08,248.686
	S348.16,497.371,248.686,497.371z M248.686,29.257c-83.383,0-152.137,98.011-152.137,219.429s67.291,219.429,152.137,219.429
	s152.137-98.011,152.137-219.429S332.069,29.257,248.686,29.257z"/>
<path d="M251.611,155.063c-8.777,0-14.629-5.851-14.629-14.629c0-27.794,21.943-49.737,49.737-49.737
	c8.777,0,14.629,5.851,14.629,14.629s-5.851,14.629-14.629,14.629c-11.703,0-20.48,8.777-20.48,20.48
	C266.24,149.211,260.389,155.063,251.611,155.063z"/>
<path d="M244.297,155.063c-8.777,0-14.629-5.851-14.629-14.629c0-11.703-8.777-20.48-20.48-20.48
	c-8.777,0-14.629-5.851-14.629-14.629s5.851-14.629,14.629-14.629c27.794,0,49.737,21.943,49.737,49.737
	C258.926,149.211,253.074,155.063,244.297,155.063z"/>
<circle style="fill:#F6E272;" cx="248.686" cy="174.08" r="42.423"/>
<path d="M248.686,231.131c-32.183,0-57.051-26.331-57.051-57.051c0-32.183,26.331-57.051,57.051-57.051s57.051,26.331,57.051,57.051
	S279.406,231.131,248.686,231.131z M248.686,144.823c-16.091,0-27.794,13.166-27.794,27.794s13.166,27.794,27.794,27.794
	c14.629,0,27.794-13.166,27.794-27.794S263.314,144.823,248.686,144.823z"/>
<path d="M248.686,276.48c-1.463,0-4.389,0-5.851-1.463l-98.011-39.497c-5.851-2.926-8.777-7.314-8.777-13.166v-46.811
	c0-8.777,5.851-14.629,14.629-14.629s14.629,5.851,14.629,14.629v36.571l83.383,33.646l83.383-33.646v-36.571
	c0-8.777,5.851-14.629,14.629-14.629c8.777,0,14.629,5.851,14.629,14.629v46.811c0,5.851-4.389,11.703-8.777,13.166l-98.011,39.497
	C251.611,276.48,250.149,276.48,248.686,276.48z"/>
<path d="M332.069,394.971c-8.777,0-14.629-5.851-14.629-14.629v-29.257l-68.754-27.794l-68.754,27.794v29.257
	c0,8.777-5.851,14.629-14.629,14.629s-14.629-5.851-14.629-14.629v-39.497c0-5.851,4.389-11.703,8.777-13.166l83.383-33.646
	c2.926-1.463,7.314-1.463,10.24,0l83.383,33.646c5.851,2.926,8.777,7.314,8.777,13.166v39.497
	C346.697,389.12,339.383,394.971,332.069,394.971z"/>
<path d="M368.64,336.457c-7.314,0-13.166-4.389-14.629-11.703l-10.24-40.96l-96.549-17.554l-96.549,17.554l-10.24,40.96
	c-1.463,7.314-10.24,13.166-17.554,10.24c-7.314-1.463-13.166-10.24-10.24-17.554l11.703-49.737
	c1.463-5.851,5.851-10.24,11.703-11.703l108.251-20.48c1.463,0,2.926,0,5.851,0L358.4,256c5.851,1.463,10.24,5.851,11.703,11.703
	l11.703,49.737c1.463,7.314-2.926,16.091-10.24,17.554C370.103,336.457,370.103,336.457,368.64,336.457z"/>
<ellipse style="fill:#F58570;" cx="248.686" cy="260.389" rx="62.903" ry="89.234"/>
<path style="fill:#F1594C;" d="M296.96,204.8c-8.777-5.851-17.554-8.777-27.794-8.777c-35.109,0-62.903,39.497-62.903,89.234
	c0,21.943,5.851,40.96,14.629,57.051c-21.943-14.629-36.571-45.349-36.571-80.457c0-49.737,27.794-89.234,62.903-89.234
	C267.703,171.154,285.257,184.32,296.96,204.8z"/>
<path d="M248.686,365.714c-42.423,0-77.531-46.811-77.531-103.863s35.109-103.863,77.531-103.863s77.531,46.811,77.531,103.863
	S291.109,365.714,248.686,365.714z M248.686,185.783c-26.331,0-48.274,33.646-48.274,74.606s21.943,74.606,48.274,74.606
	c26.331,0,48.274-33.646,48.274-74.606S275.017,185.783,248.686,185.783z"/>
<g>
</g>
<g>
</g>
<g>
</g>
<g>
</g>
<g>
</g>
<g>
</g>
<g>
</g>
<g>
</g>
<g>
</g>
<g>
</g>
<g>
</g>
<g>
</g>
<g>
</g>
<g>
</g>
<g>
</g>
</svg>
