<?xml version="1.0" encoding="iso-8859-1"?>
<!-- Generator: Adobe Illustrator 19.0.0, SVG Export Plug-In . SVG Version: 6.00 Build 0)  -->
<svg version="1.1" id="Capa_1" xmlns="http://www.w3.org/2000/svg" xmlns:xlink="http://www.w3.org/1999/xlink" x="0px" y="0px"
	 viewBox="0 0 512.001 512.001" style="enable-background:new 0 0 512.001 512.001;" xml:space="preserve">
<polygon style="fill:#6D4C41;" points="386.88,240 365.12,400 146.88,400 125.12,240 "/>
<path d="M365.12,416H146.88c-8.063,0.073-14.92-5.866-16-13.856l-21.728-160c-1.184-8.757,4.954-16.816,13.711-18
	c0.748-0.101,1.502-0.149,2.257-0.144h261.76c8.836-0.08,16.064,7.019,16.144,15.855c0.007,0.765-0.041,1.53-0.144,2.289
	l-21.728,160C380.071,410.147,373.195,416.089,365.12,416z M160.832,384h190.336l17.376-128H143.456L160.832,384z"/>
<path style="fill:#455A64;" d="M352,16H160c-17.673,0-32,14.327-32,32v48c0,8.837,7.163,16,16,16h224c8.837,0,16-7.163,16-16V48
	C384,30.327,369.673,16,352,16z"/>
<path style="fill:#607D8B;" d="M80,80h352c8.837,0,16,7.163,16,16v32c0,8.837-7.163,16-16,16H80c-8.837,0-16-7.163-16-16V96
	C64,87.163,71.164,80,80,80z"/>
<circle style="fill:#FAFAFA;" cx="256" cy="320" r="32"/>
<path d="M368,96c-8.837,0-16-7.163-16-16V32H160v48c0,8.837-7.163,16-16,16s-16-7.163-16-16V32c0-17.673,14.327-32,32-32h192
	c17.673,0,32,14.327,32,32v48C384,88.837,376.837,96,368,96z"/>
<path d="M416,160H96c-17.673,0-32-14.327-32-32V96c0-17.673,14.327-32,32-32h320c17.673,0,32,14.327,32,32v32
	C448,145.673,433.673,160,416,160z M96,128h320V96H96V128z"/>
<polygon style="fill:#FAFAFA;" points="146.88,400 365.12,400 352,496 160,496 "/>
<path d="M352,512H160c-8.052,0.075-14.905-5.846-16-13.824l-13.12-96c-1.202-8.754,4.92-16.826,13.675-18.028
	c0.771-0.106,1.548-0.155,2.325-0.148h218.24c8.836-0.082,16.066,7.014,16.148,15.851c0.007,0.778-0.042,1.555-0.148,2.325
	l-13.12,96C366.906,506.154,360.052,512.075,352,512z M173.984,480h164.032l8.768-64H165.216L173.984,480z"/>
<polygon style="fill:#FAFAFA;" points="400,144 386.88,240 125.12,240 112,144 "/>
<path d="M386.88,256H125.12c-8.052,0.075-14.905-5.846-16-13.824l-13.12-96c-1.202-8.754,4.92-16.826,13.675-18.028
	c0.771-0.106,1.548-0.155,2.325-0.148h288c8.836-0.082,16.066,7.014,16.148,15.851c0.007,0.778-0.042,1.555-0.148,2.325l-13.152,96
	C401.755,250.142,394.92,256.059,386.88,256z M139.104,224h233.792l8.768-64H130.336L139.104,224z"/>
<path d="M256,368c-26.51,0-48-21.49-48-48s21.49-48,48-48s48,21.49,48,48S282.51,368,256,368z M256,304c-8.837,0-16,7.163-16,16
	s7.163,16,16,16s16-7.163,16-16S264.837,304,256,304z"/>
<g>
</g>
<g>
</g>
<g>
</g>
<g>
</g>
<g>
</g>
<g>
</g>
<g>
</g>
<g>
</g>
<g>
</g>
<g>
</g>
<g>
</g>
<g>
</g>
<g>
</g>
<g>
</g>
<g>
</g>
</svg>
