<svg height="490pt" viewBox="0 -10 490.66667 490" width="490pt" xmlns="http://www.w3.org/2000/svg"><path d="m480 149.667969h-469.332031c-5.890625 0-10.667969 4.777343-10.667969 10.664062v234.667969c0 41.171875 33.492188 74.667969 74.667969 74.667969h341.332031c41.171875 0 74.667969-33.496094 74.667969-74.667969v-234.667969c0-5.886719-4.78125-10.664062-10.667969-10.664062zm0 0" fill="#eceff1"/><path d="m416 43h-21.332031c-5.890625 0-10.667969 4.777344-10.667969 10.667969v21.332031c0 5.867188-4.800781 10.667969-10.667969 10.667969-5.867187 0-10.664062-4.800781-10.664062-10.667969v-21.332031c0-5.890625-4.78125-10.667969-10.667969-10.667969h-213.332031c-5.890625 0-10.667969 4.777344-10.667969 10.667969v21.332031c0 5.867188-4.800781 10.667969-10.667969 10.667969-5.867187 0-10.664062-4.800781-10.664062-10.667969v-21.332031c0-5.890625-4.78125-10.667969-10.667969-10.667969h-21.332031c-41.175781 0-74.667969 33.492188-74.667969 74.667969v42.664062c0 5.890625 4.777344 10.667969 10.667969 10.667969h469.332031c5.886719 0 10.667969-4.777344 10.667969-10.667969v-42.664062c0-41.175781-33.496094-74.667969-74.667969-74.667969zm0 0" fill="#2196f3"/><path d="m117.332031.332031c-17.640625 0-32 14.359375-32 32v42.667969c0 17.644531 14.359375 32 32 32 17.644531 0 32-14.355469 32-32v-42.667969c0-17.640625-14.355469-32-32-32zm0 0" fill="#455a64"/><path d="m373.332031.332031c-17.640625 0-32 14.359375-32 32v42.667969c0 17.644531 14.359375 32 32 32 17.644531 0 32-14.355469 32-32v-42.667969c0-17.640625-14.355469-32-32-32zm0 0" fill="#455a64"/><path d="m117.332031 107c-17.640625 0-32-14.355469-32-32v-42.667969c0-17.640625 14.359375-32 32-32 17.644531 0 32 14.359375 32 32v42.667969c0 17.644531-14.355469 32-32 32zm0-85.332031c-5.867187 0-10.664062 4.777343-10.664062 10.664062v42.667969c0 5.886719 4.796875 10.667969 10.664062 10.667969 5.867188 0 10.667969-4.78125 10.667969-10.667969v-42.667969c0-5.886719-4.800781-10.664062-10.667969-10.664062zm0 0"/><path d="m373.332031 107c-17.640625 0-32-14.355469-32-32v-42.667969c0-17.640625 14.359375-32 32-32 17.644531 0 32 14.359375 32 32v42.667969c0 17.644531-14.355469 32-32 32zm0-85.332031c-5.867187 0-10.664062 4.777343-10.664062 10.664062v42.667969c0 5.886719 4.796875 10.667969 10.664062 10.667969 5.867188 0 10.667969-4.78125 10.667969-10.667969v-42.667969c0-5.886719-4.800781-10.664062-10.667969-10.664062zm0 0"/><path d="m480 171h-469.332031c-5.890625 0-10.667969-4.777344-10.667969-10.667969v-42.664062c0-41.175781 33.492188-74.667969 74.667969-74.667969h21.332031c5.886719 0 10.667969 4.777344 10.667969 10.667969v21.332031c0 5.886719 4.796875 10.667969 10.664062 10.667969 5.867188 0 10.667969-4.78125 10.667969-10.667969v-21.332031c0-5.890625 4.777344-10.667969 10.667969-10.667969h213.332031c5.886719 0 10.667969 4.777344 10.667969 10.667969v21.332031c0 5.886719 4.796875 10.667969 10.664062 10.667969 5.867188 0 10.667969-4.78125 10.667969-10.667969v-21.332031c0-5.890625 4.777344-10.667969 10.667969-10.667969h21.332031c41.171875 0 74.667969 33.492188 74.667969 74.667969v42.664062c0 5.890625-4.78125 10.667969-10.667969 10.667969zm-458.667969-21.332031h448v-32c0-29.398438-23.914062-53.335938-53.332031-53.335938h-10.667969v10.667969c0 17.644531-14.355469 32-32 32-17.640625 0-32-14.355469-32-32v-10.667969h-192v10.667969c0 17.644531-14.355469 32-32 32-17.640625 0-32-14.355469-32-32v-10.667969h-10.664062c-29.421875 0-53.335938 23.9375-53.335938 53.335938zm0 0"/><path d="m416 469.667969h-341.332031c-41.175781 0-74.667969-33.496094-74.667969-74.667969v-234.667969c0-5.886719 4.777344-10.664062 10.667969-10.664062h469.332031c5.886719 0 10.667969 4.777343 10.667969 10.664062v234.667969c0 41.171875-33.496094 74.667969-74.667969 74.667969zm-394.667969-298.667969v224c0 29.398438 23.914063 53.332031 53.335938 53.332031h341.332031c29.417969 0 53.332031-23.933593 53.332031-53.332031v-224zm0 0"/><path d="m266.667969 427h-42.667969c-5.886719 0-10.667969-4.777344-10.667969-10.667969 0-5.886719 4.78125-10.664062 10.667969-10.664062h10.667969v-48.917969l-3.117188 3.113281c-4.160156 4.160157-10.921875 4.160157-15.082031 0-4.160156-4.160156-4.160156-10.921875 0-15.082031l21.332031-21.332031c3.074219-3.050781 7.660157-3.992188 11.628907-2.304688 3.988281 1.640625 6.589843 5.546875 6.589843 9.855469v74.667969h10.648438c5.886719 0 10.664062 4.777343 10.664062 10.664062 0 5.890625-4.777343 10.667969-10.664062 10.667969zm0 0"/><path d="m160 299c-17.644531 0-32-14.355469-32-32 0-5.886719 4.777344-10.667969 10.667969-10.667969 5.886719 0 10.664062 4.78125 10.664062 10.667969s4.800781 10.667969 10.667969 10.667969 10.667969-4.78125 10.667969-10.667969-4.800781-10.667969-10.667969-10.667969c-17.644531 0-32-14.355469-32-32 0-17.640625 14.355469-32 32-32s32 14.359375 32 32c0 5.890625-4.777344 10.667969-10.667969 10.667969-5.886719 0-10.664062-4.777344-10.664062-10.667969 0-5.886719-4.800781-10.664062-10.667969-10.664062s-10.667969 4.777343-10.667969 10.664062c0 5.890625 4.800781 10.667969 10.667969 10.667969 17.644531 0 32 14.355469 32 32s-14.355469 32-32 32zm0 0"/><path d="m266.667969 299h-42.667969c-5.886719 0-10.667969-4.777344-10.667969-10.667969v-85.332031c0-5.886719 4.78125-10.667969 10.667969-10.667969h42.667969c5.886719 0 10.664062 4.78125 10.664062 10.667969s-4.777343 10.667969-10.664062 10.667969h-32v64h32c5.886719 0 10.664062 4.777343 10.664062 10.664062 0 5.890625-4.777343 10.667969-10.664062 10.667969zm0 0"/><path d="m256 256.332031h-32c-5.886719 0-10.667969-4.777343-10.667969-10.664062 0-5.890625 4.78125-10.667969 10.667969-10.667969h32c5.886719 0 10.667969 4.777344 10.667969 10.667969 0 5.886719-4.78125 10.664062-10.667969 10.664062zm0 0"/><path d="m309.332031 299c-5.886719 0-10.664062-4.777344-10.664062-10.667969v-85.332031c0-5.886719 4.777343-10.667969 10.664062-10.667969h21.335938c17.640625 0 32 14.359375 32 32 0 17.644531-14.359375 32-32 32h-10.667969v32c0 5.890625-4.777344 10.667969-10.667969 10.667969zm10.667969-64h10.667969c5.867187 0 10.664062-4.777344 10.664062-10.667969 0-5.886719-4.796875-10.664062-10.664062-10.664062h-10.667969zm0 0"/></svg>