<svg height="512" viewBox="0 0 512 512" width="512" xmlns="http://www.w3.org/2000/svg" xmlns:xlink="http://www.w3.org/1999/xlink"><linearGradient id="New_Gradient_Swatch_4" gradientUnits="userSpaceOnUse" x1="121.373" x2="386.655" y1="374.627" y2="109.345"><stop offset=".011" stop-color="#cacad5"/><stop offset="1" stop-color="#ededf1"/></linearGradient><linearGradient id="New_Gradient_Swatch_3" gradientUnits="userSpaceOnUse" x1="368" x2="448" y1="288" y2="288"><stop offset=".011" stop-color="#606082"/><stop offset="1" stop-color="#83839e"/></linearGradient><linearGradient id="New_Gradient_Swatch_3-2" x1="80" x2="160" xlink:href="#New_Gradient_Swatch_3"/><linearGradient id="New_Gradient_Swatch_3-3" x1="100.531" x2="231.934" xlink:href="#New_Gradient_Swatch_3" y1="212.531" y2="81.128"/><linearGradient id="New_Gradient_Swatch_3-4" x1="187.255" x2="328.941" xlink:href="#New_Gradient_Swatch_3" y1="272.039" y2="130.353"/><g id="_13-car" data-name="13-car"><g id="linear_color" data-name="linear color"><path d="m48 288h424a24 24 0 0 0 24-24v-35.368a24 24 0 0 0 -20.4-23.732l-91.6-13.9-87.14-71.709a32 32 0 0 0 -20.334-7.291h-117.146a32 32 0 0 0 -24.988 12.01l-54.392 67.99h-40a24 24 0 0 0 -24 24v40a32 32 0 0 0 32 32z" fill="url(#New_Gradient_Swatch_4)"/><circle cx="408" cy="288" fill="url(#New_Gradient_Swatch_3)" r="40"/><circle cx="120" cy="288" fill="url(#New_Gradient_Swatch_3-2)" r="40"/><circle cx="120" cy="288" r="12"/><circle cx="408" cy="288" r="12"/><path d="m159.38 112a32 32 0 0 0 -24.988 12.01l-54.392 67.99h96v-80z" fill="url(#New_Gradient_Swatch_3-3)"/><path d="m384 191-87.14-71.709a32 32 0 0 0 -20.334-7.291h-52.526v80h166.588z" fill="url(#New_Gradient_Swatch_3-4)"/><path d="m477.4 193.036-88.329-13.4-84.592-69.616a44.128 44.128 0 0 0 -27.949-10.02h-117.15a43.778 43.778 0 0 0 -34.36 16.514l-50.788 63.486h-34.232a36.04 36.04 0 0 0 -36 36v40a44.049 44.049 0 0 0 44 44h21.413a51.988 51.988 0 0 0 101.174 0h186.826a51.988 51.988 0 0 0 101.174 0h13.413a36.04 36.04 0 0 0 36-36v-35.37a35.794 35.794 0 0 0 -30.6-35.594zm-188.165-64.48 62.513 51.444h-115.748v-56h40.53a20.068 20.068 0 0 1 12.705 4.556zm-145.473 2.944a19.9 19.9 0 0 1 15.618-7.5h4.62v56h-59.033zm-23.762 184.5a28 28 0 1 1 28-28 28.032 28.032 0 0 1 -28 28zm288 0a28 28 0 1 1 28-28 28.032 28.032 0 0 1 -28 28zm76-52a12.013 12.013 0 0 1 -12 12h-13.413a51.988 51.988 0 0 0 -101.174 0h-186.826a51.988 51.988 0 0 0 -101.174 0h-21.413a20.023 20.023 0 0 1 -20-20v-40a12.013 12.013 0 0 1 12-12h136a12 12 0 0 0 12-12v-68h24v68a12 12 0 0 0 12 12h165.684l84.116 12.764a12.081 12.081 0 0 1 10.2 11.866z"/><path d="m240 212h-16a12 12 0 0 0 0 24h16a12 12 0 0 0 0-24z"/><circle cx="120" cy="288" r="12"/><circle cx="408" cy="288" r="12"/></g></g></svg>