<?xml version="1.0" encoding="iso-8859-1"?>
<!-- Generator: Adobe Illustrator 19.0.0, SVG Export Plug-In . SVG Version: 6.00 Build 0)  -->
<svg version="1.1" id="Capa_1" xmlns="http://www.w3.org/2000/svg" xmlns:xlink="http://www.w3.org/1999/xlink" x="0px" y="0px"
	 viewBox="0 0 497.371 497.371" style="enable-background:new 0 0 497.371 497.371;" xml:space="preserve">
<path style="fill:#FFFFFF;" d="M482.743,185.783c0-36.571-36.571-65.829-83.383-65.829c-7.314,0-14.629,1.463-20.48,2.926
	c-16.091-42.423-64.366-73.143-121.417-73.143c-45.349,0-86.309,19.017-108.251,48.274c-11.703-2.926-23.406-4.389-35.109-4.389
	c-55.589,0-99.474,35.109-99.474,78.994c0,13.166,4.389,24.869,10.24,35.109c-5.851,8.777-10.24,20.48-10.24,30.72
	c0,36.571,36.571,65.829,83.383,65.829c7.314,0,14.629-1.463,20.48-2.926c16.091,42.423,64.366,71.68,121.417,71.68
	c90.697,93.623,156.526,68.754,156.526,68.754c-77.531-84.846-46.811-117.029-46.811-117.029c10.24,2.926,21.943,4.389,33.646,4.389
	c55.589,0,99.474-35.109,99.474-78.994c0-13.166-4.389-24.869-10.24-35.109C478.354,207.726,482.743,197.486,482.743,185.783z"/>
<path style="fill:#C0D0D6;" d="M482.743,185.783c-14.629-13.166-38.034-21.943-62.903-21.943c-7.314,0-14.629,1.463-20.48,2.926
	c-16.091-42.423-64.366-73.143-121.417-73.143c-45.349,0-86.309,19.017-108.251,48.274c-10.24-2.926-21.943-4.389-33.646-4.389
	c-55.589,0-99.474,35.109-99.474,78.994c0,13.166,4.389,24.869,10.24,35.109c-5.851,8.777-10.24,20.48-10.24,30.72l0,0
	C21.943,270.629,14.629,256,14.629,239.909c0-11.703,4.389-21.943,10.24-30.72c-5.851-10.24-10.24-21.943-10.24-35.109
	c0-43.886,45.349-78.994,99.474-78.994c11.703,0,23.406,1.463,33.646,4.389C169.691,70.217,210.651,51.2,256,51.2
	c57.051,0,106.789,30.72,121.417,73.143c5.851-1.463,13.166-2.926,20.48-2.926C444.709,119.954,482.743,149.211,482.743,185.783z"/>
<path d="M374.491,462.263c-32.183,0-80.457-13.166-140.434-71.68c-55.589-1.463-103.863-29.257-124.343-70.217
	c-4.389,0-7.314,0-11.703,0C43.886,320.366,0,283.794,0,239.909c0-10.24,2.926-21.943,8.777-32.183
	C2.926,196.023,0,185.783,0,172.617c0-51.2,51.2-93.623,114.103-93.623c10.24,0,19.017,1.463,29.257,2.926
	c26.331-29.257,68.754-46.811,114.103-46.811c58.514,0,108.251,27.794,130.194,70.217c4.389,0,7.314,0,11.703,0
	c54.126,0,98.011,36.571,98.011,80.457c0,10.24-2.926,21.943-8.777,32.183c5.851,11.703,8.777,21.943,8.777,35.109
	c0,51.2-51.2,93.623-114.103,93.623c-8.777,0-16.091-1.463-24.869-2.926c-1.463,11.703,2.926,39.497,49.737,90.697
	c2.926,2.926,4.389,8.777,2.926,13.166c-1.463,4.389-4.389,8.777-8.777,10.24C400.823,459.337,390.583,462.263,374.491,462.263z
	 M118.491,288.183c5.851,0,11.703,4.389,13.166,10.24c13.166,36.571,58.514,62.903,108.251,62.903c4.389,0,7.314,1.463,10.24,4.389
	c51.2,52.663,92.16,64.366,115.566,67.291c-59.977-76.069-32.183-111.177-27.794-115.566c4.389-4.389,8.777-5.851,14.629-4.389
	c10.24,2.926,20.48,4.389,29.257,4.389c46.811,0,84.846-29.257,84.846-64.366c0-8.777-2.926-19.017-8.777-27.794
	c-2.926-4.389-2.926-11.703,0-16.091c5.851-7.314,7.314-14.629,7.314-23.406c0-27.794-30.72-51.2-68.754-51.2
	c-5.851,0-11.703,0-17.554,1.463c-7.314,1.463-14.629-2.926-16.091-8.777c-13.166-36.571-58.514-62.903-108.251-62.903
	c-39.497,0-76.069,16.091-96.549,42.423c-4.389,4.389-10.24,7.314-16.091,4.389c-7.314-1.463-17.554-2.926-27.794-2.926
	c-46.811,0-84.846,29.257-84.846,64.366c0,8.777,2.926,19.017,8.777,27.794c2.926,4.389,2.926,11.703,0,16.091
	c-5.851,7.314-7.314,14.629-7.314,23.406c0,27.794,30.72,51.2,68.754,51.2c5.851,0,11.703,0,17.554-1.463
	C117.029,288.183,117.029,288.183,118.491,288.183z"/>
<path d="M310.126,206.263H175.543c-8.777,0-14.629-5.851-14.629-14.629s5.851-14.629,14.629-14.629h134.583
	c8.777,0,14.629,5.851,14.629,14.629S317.44,206.263,310.126,206.263z"/>
<path d="M310.126,283.794H175.543c-8.777,0-14.629-5.851-14.629-14.629c0-8.777,5.851-14.629,14.629-14.629h134.583
	c8.777,0,14.629,5.851,14.629,14.629C324.754,277.943,317.44,283.794,310.126,283.794z"/>
<g>
</g>
<g>
</g>
<g>
</g>
<g>
</g>
<g>
</g>
<g>
</g>
<g>
</g>
<g>
</g>
<g>
</g>
<g>
</g>
<g>
</g>
<g>
</g>
<g>
</g>
<g>
</g>
<g>
</g>
</svg>
