<?xml version="1.0" encoding="iso-8859-1"?>
<!-- Generator: Adobe Illustrator 19.0.0, SVG Export Plug-In . SVG Version: 6.00 Build 0)  -->
<svg version="1.1" id="Capa_1" xmlns="http://www.w3.org/2000/svg" xmlns:xlink="http://www.w3.org/1999/xlink" x="0px" y="0px"
	 viewBox="0 0 497.371 497.371" style="enable-background:new 0 0 497.371 497.371;" xml:space="preserve">
<circle style="fill:#F15E75;" cx="248.686" cy="248.686" r="234.057"/>
<path style="fill:#EF3956;" d="M454.949,137.509c-33.646-20.48-74.606-30.72-117.029-30.72
	c-128.731,0-234.057,105.326-234.057,234.057c0,40.96,10.24,78.994,27.794,111.177C61.44,411.063,14.629,336.457,14.629,248.686
	c0-128.731,105.326-234.057,234.057-234.057C337.92,14.629,415.451,64.366,454.949,137.509z"/>
<g>
	<path style="fill:#010101;" d="M248.686,497.371C111.177,497.371,0,386.194,0,248.686S111.177,0,248.686,0
		s248.686,111.177,248.686,248.686S386.194,497.371,248.686,497.371z M248.686,29.257c-121.417,0-219.429,98.011-219.429,219.429
		s98.011,219.429,219.429,219.429s219.429-98.011,219.429-219.429S370.103,29.257,248.686,29.257z"/>
	<path style="fill:#010101;" d="M282.331,299.886l-43.886-39.497c-2.926-2.926-4.389-7.314-4.389-10.24V111.177
		c0-8.777,5.851-14.629,14.629-14.629s14.629,5.851,14.629,14.629v131.657l39.497,35.109c5.851,5.851,5.851,14.629,1.463,20.48
		C296.96,304.274,288.183,304.274,282.331,299.886z"/>
	<path style="fill:#010101;" d="M238.446,73.143c-5.851-5.851-5.851-14.629,0-20.48s14.629-5.851,20.48,0
		c5.851,5.851,5.851,14.629,0,20.48C253.074,78.994,244.297,78.994,238.446,73.143z"/>
	<path style="fill:#010101;" d="M238.446,444.709c-5.851-5.851-5.851-14.629,0-20.48c5.851-5.851,14.629-5.851,20.48,0
		c5.851,5.851,5.851,14.629,0,20.48C253.074,450.56,244.297,450.56,238.446,444.709z"/>
	<path style="fill:#010101;" d="M370.103,127.269c-5.851-5.851-5.851-14.629,0-20.48c5.851-5.851,14.629-5.851,20.48,0
		c5.851,5.851,5.851,14.629,0,20.48C384.731,133.12,375.954,133.12,370.103,127.269z"/>
	<path style="fill:#010101;" d="M106.789,390.583c-5.851-5.851-5.851-14.629,0-20.48c5.851-5.851,16.091-5.851,20.48,0
		c5.851,5.851,5.851,14.629,0,20.48C122.88,396.434,112.64,396.434,106.789,390.583z"/>
	<path style="fill:#010101;" d="M424.229,258.926c-5.851-5.851-5.851-14.629,0-20.48c5.851-5.851,14.629-5.851,20.48,0
		c5.851,5.851,5.851,14.629,0,20.48C438.857,264.777,430.08,264.777,424.229,258.926z"/>
	<path style="fill:#010101;" d="M52.663,258.926c-5.851-5.851-5.851-14.629,0-20.48c5.851-5.851,14.629-5.851,20.48,0
		c5.851,5.851,5.851,14.629,0,20.48C67.291,264.777,58.514,264.777,52.663,258.926z"/>
	<path style="fill:#010101;" d="M370.103,390.583c-5.851-5.851-5.851-14.629,0-20.48c5.851-5.851,14.629-5.851,20.48,0
		c5.851,5.851,5.851,14.629,0,20.48C384.731,396.434,375.954,396.434,370.103,390.583z"/>
	<path style="fill:#010101;" d="M106.789,127.269c-5.851-5.851-5.851-14.629,0-20.48c5.851-5.851,16.091-5.851,20.48,0
		c5.851,5.851,5.851,14.629,0,20.48C122.88,133.12,112.64,133.12,106.789,127.269z"/>
</g>
<g>
</g>
<g>
</g>
<g>
</g>
<g>
</g>
<g>
</g>
<g>
</g>
<g>
</g>
<g>
</g>
<g>
</g>
<g>
</g>
<g>
</g>
<g>
</g>
<g>
</g>
<g>
</g>
<g>
</g>
</svg>
