<?xml version="1.0" encoding="iso-8859-1"?>
<!-- Generator: Adobe Illustrator 19.0.0, SVG Export Plug-In . SVG Version: 6.00 Build 0)  -->
<svg version="1.1" id="Capa_1" xmlns="http://www.w3.org/2000/svg" xmlns:xlink="http://www.w3.org/1999/xlink" x="0px" y="0px"
	 viewBox="0 0 495.94 495.94" style="enable-background:new 0 0 495.94 495.94;" xml:space="preserve">
<path style="fill:#FFFFFF;" d="M482.743,225.296c0,52.663-42.423,96.549-96.549,96.549H111.177
	c-52.663,0-96.549-42.423-96.549-96.549c0-48.274,35.109-87.771,80.457-95.086v-1.463c0-57.051,46.811-103.863,103.863-103.863
	c40.96,0,76.069,23.406,93.623,58.514c5.851-1.463,11.703-1.463,19.017-1.463c32.183,0,61.44,19.017,76.069,46.811
	C440.32,128.747,482.743,172.633,482.743,225.296z"/>
<g style="opacity:0.1;">
	<path style="fill:#030303;" d="M381.806,121.433c-5.851,0-10.24-1.463-16.091-1.463c-115.566,0-209.189,87.771-217.966,200.411
		h-36.571c-52.663,0-96.549-42.423-96.549-96.549c0-48.274,35.109-87.771,80.457-95.086l0,0
		c0-57.051,46.811-103.863,103.863-103.863c40.96,0,76.069,23.406,93.623,58.514c5.851-1.463,11.703-1.463,19.017-1.463
		C340.846,81.936,367.177,96.564,381.806,121.433z"/>
</g>
<path d="M386.194,335.01H111.177C49.737,335.01,0,285.273,0,223.833c0-49.737,33.646-93.623,80.457-106.789
	C86.309,55.604,137.509,8.793,198.949,8.793c42.423,0,78.994,21.943,100.937,57.051c2.926,0,7.314,0,10.24,0
	c35.109,0,67.291,17.554,84.846,48.274c57.051,4.389,100.937,52.663,100.937,109.714C497.371,286.736,447.634,335.01,386.194,335.01
	z M198.949,39.513c-49.737,0-89.234,40.96-89.234,89.234c0,7.314-5.851,14.629-11.703,16.091
	c-39.497,5.851-68.754,40.96-68.754,80.457c0,45.349,36.571,81.92,81.92,81.92h276.48c45.349,0,81.92-36.571,81.92-81.92
	s-36.571-81.92-80.457-81.92c-5.851,0-10.24-2.926-13.166-8.777c-11.703-24.869-36.571-39.497-62.903-39.497
	c-5.851,0-10.24,0-14.629,1.463c-7.314,1.463-13.166-1.463-16.091-7.314C263.314,58.53,232.594,39.513,198.949,39.513z"/>
<path style="fill:#F15E75;" d="M171.154,314.53l68.754-90.697c4.389-5.851,13.166-5.851,17.554,0l68.754,90.697
	c5.851,7.314,0,17.554-8.777,17.554h-35.109l26.331,122.88c1.463,8.777-4.389,17.554-14.629,17.554h-92.16
	c-8.777,0-16.091-8.777-14.629-17.554l26.331-122.88h-35.109C169.691,332.084,165.303,321.844,171.154,314.53z"/>
<g style="opacity:0.1;">
	<path style="fill:#030303;" d="M196.023,421.319l-7.314,33.646c-1.463,8.777,4.389,17.554,14.629,17.554h92.16
		c8.777,0,16.091-8.777,14.629-17.554l-7.314-33.646H196.023z"/>
</g>
<path d="M295.497,487.147h-92.16c-8.777,0-17.554-4.389-23.406-10.24c-5.851-7.314-7.314-16.091-5.851-24.869l21.943-105.326
	h-17.554c-10.24,0-19.017-5.851-23.406-14.629c-4.389-8.777-2.926-19.017,2.926-26.331l70.217-90.697
	c10.24-13.166,30.72-13.166,40.96,0l70.217,90.697c5.851,7.314,7.314,17.554,2.926,26.331c-4.389,8.777-13.166,14.629-23.406,14.629
	h-19.017l21.943,105.326c1.463,8.777,0,17.554-5.851,24.869C311.589,482.759,304.274,487.147,295.497,487.147z M295.497,457.89
	v14.629V457.89l-26.331-122.88c-1.463-4.389,0-8.777,2.926-11.703c2.926-2.926,7.314-5.851,11.703-5.851h27.794l-61.44-80.457
	l-61.44,80.457h27.794c4.389,0,8.777,1.463,11.703,5.851c2.926,2.926,4.389,7.314,2.926,11.703L204.8,457.89H295.497z"/>
<g>
</g>
<g>
</g>
<g>
</g>
<g>
</g>
<g>
</g>
<g>
</g>
<g>
</g>
<g>
</g>
<g>
</g>
<g>
</g>
<g>
</g>
<g>
</g>
<g>
</g>
<g>
</g>
<g>
</g>
</svg>
