<svg id="regular" enable-background="new 0 0 24 24" height="512" viewBox="0 0 24 24" width="512" xmlns="http://www.w3.org/2000/svg"><path d="m20.75 12.594-1.61 1.671c-.51.446-1.22.586-1.862.367l-1.787-.612-4.811-5.489 5.164-1.812 5.094 1.719z" fill="#ffb74d"/><path d="m15.83 11.75c-.01-.01-.01-.01-.01-.01l-5.37-5.37c-.76-.75-1.89-.99-2.88-.58l-4.61 1.91c-.28.11-.46.39-.46.69v6.02c0 .41.34.75.75.75h.5c1.08 0 2.11.4 2.9 1.12l2.2 1.99c.4.39.92.58 1.44.58.54 0 1.08-.2 1.49-.61.19-.19.33-.41.43-.65.06-.13.1-.26.13-.39.56.03 1.13-.18 1.56-.6.24-.24.41-.53.5-.85v-.01c.05-.14.08-.27.1-.42.48-.04.94-.26 1.33-.65.79-.8.79-2.12 0-2.92z" fill="#ffcc80"/><path d="m3.25 16h-2.5c-.414 0-.75-.336-.75-.75v-8.5c0-.414.336-.75.75-.75h2.5c.414 0 .75.336.75.75v8.5c0 .414-.336.75-.75.75z" fill="#607d8b"/><path d="m11.013 10.72c-.524 0-1.042-.204-1.431-.593-.459-.46-.671-1.116-.567-1.757s.512-1.196 1.093-1.487l3.305-1.655c.689-.344 1.491-.372 2.202-.077l2.289.936c.013.005.025.01.038.016l3.093 1.265c.384.157.567.595.411.978-.157.383-.593.567-.978.411l-2.798-1.144-5.745 2.89c-.29.146-.602.217-.912.217z" fill="#ffb74d"/><path d="m23.25 16h-2.5c-.414 0-.75-.336-.75-.75v-8.5c0-.414.336-.75.75-.75h2.5c.414 0 .75.336.75.75v8.5c0 .414-.336.75-.75.75z" fill="#607d8b"/><path d="m14.293 15.322c-.53 0-1.054-.202-1.454-.602l-.98-.98c-.293-.293-.293-.768 0-1.061s.768-.293 1.061 0l.98.98c.226.225.594.225.819 0 .259-.264.259-.637.035-.866l-2.854-2.853c-.293-.293-.293-.768 0-1.061s.768-.293 1.061 0l2.86 2.859c.797.813.797 2.128.005 2.936-.434.434-.987.648-1.533.648z"/><path d="m3.25 9.141c-.294 0-.574-.174-.693-.463-.159-.383.023-.822.406-.98l4.608-1.91c.994-.403 2.124-.173 2.881.585l.546.547c.293.293.293.768 0 1.061s-.768.293-1.061 0l-.546-.547c-.331-.332-.823-.433-1.252-.258l-4.602 1.907c-.094.039-.191.058-.287.058z"/><path d="m11.013 10.721c-.524 0-1.042-.205-1.432-.595-.465-.466-.672-1.105-.566-1.756.105-.65.503-1.192 1.092-1.487l3.306-1.655c.69-.343 1.492-.372 2.202-.076l5.419 2.217c.383.157.567.595.41.979-.157.383-.592.567-.979.41l-5.424-2.219c-.313-.131-.661-.117-.958.031l-3.305 1.655c-.153.076-.256.217-.284.386-.027.168.026.334.147.455.161.161.405.199.608.098l2.938-1.479c.37-.188.82-.036 1.007.332.186.37.038.821-.333 1.008l-2.937 1.479c-.289.145-.601.217-.911.217z"/><path d="m12.428 17.207c-.555 0-1.077-.217-1.47-.609l-1.22-1.22c-.293-.293-.293-.768 0-1.061s.768-.293 1.061 0l1.22 1.22c.219.219.6.219.818 0 .11-.109.17-.255.17-.409s-.06-.3-.17-.409l-.979-.979c-.293-.293-.293-.768 0-1.061s.768-.293 1.061 0l.98.979c.393.394.609.915.609 1.47 0 .556-.216 1.077-.609 1.47-.393.392-.915.609-1.471.609.001 0 .001 0 0 0z"/><path d="m10.293 18.854c-.523 0-1.044-.194-1.444-.584l-2.195-1.991c-.797-.723-1.829-1.121-2.903-1.121h-.5c-.414 0-.75-.336-.75-.75s.336-.75.75-.75h.5c1.448 0 2.837.536 3.911 1.51l2.214 2.01c.245.238.61.235.832.013.123-.123.183-.269.183-.423s-.06-.3-.169-.409l-.98-.98c-.293-.293-.293-.768 0-1.061s.768-.293 1.061 0l.98.98c.393.393.609.914.609 1.47s-.216 1.077-.609 1.47c-.414.411-.953.616-1.49.616z"/><path d="m17.879 15.481c-.284 0-.569-.047-.844-.141l-1.787-.611c-.392-.135-.601-.561-.467-.953s.559-.601.952-.467l1.787.611c.387.135.818.048 1.125-.221l1.563-1.627c.287-.298.763-.307 1.061-.02s.307.762.02 1.061l-1.61 1.671c-.522.461-1.16.697-1.8.697z"/><path d="m23.25 16h-2.5c-.414 0-.75-.336-.75-.75v-8.5c0-.414.336-.75.75-.75h2.5c.414 0 .75.336.75.75v8.5c0 .414-.336.75-.75.75zm-1.75-1.5h1v-7h-1z"/><path d="m3.25 16h-2.5c-.414 0-.75-.336-.75-.75v-8.5c0-.414.336-.75.75-.75h2.5c.414 0 .75.336.75.75v8.5c0 .414-.336.75-.75.75zm-1.75-1.5h1v-7h-1z"/></svg>