<svg id="regular" enable-background="new 0 0 24 24" height="512" viewBox="0 0 24 24" width="512" xmlns="http://www.w3.org/2000/svg"><path d="m9.75 11c-.092 0-.184-.017-.271-.051-.29-.112-.479-.39-.479-.699v-2.25h-1.25c-.965 0-1.75-.785-1.75-1.75v-4.5c0-.965.785-1.75 1.75-1.75h8.5c.965 0 1.75.785 1.75 1.75v4.5c0 .965-.785 1.75-1.75 1.75h-3.42l-2.527 2.757c-.145.158-.347.243-.553.243z" fill="#2196f3"/><path d="m4.277 24h-3.527c-.414 0-.75-.336-.75-.75v-15.415c0-.361.257-.671.612-.737.347-.065.711-.098 1.082-.098 1.716 0 3.312.687 4.493 1.935 1.039 1.099 1.974 2.419 1.831 4.617l1.801 2.747c.118.178.181.386.181.601 0 .606-.493 1.1-1.1 1.1h-.9v2.293c0 .499-.217.971-.596 1.295s-.878.465-1.371.392l-1.006-.261v1.531c0 .414-.336.75-.75.75zm4.294-6.87h.01z" fill="#ffcc80"/><path d="m23.25 24h-3.527c-.414 0-.75-.336-.75-.75v-1.529l-.931.243c-.566.092-1.069-.051-1.447-.376-.378-.324-.595-.796-.595-1.295v-2.293h-.9c-.606 0-1.1-.493-1.1-1.1 0-.217.063-.426.183-.605l1.799-2.744c-.143-2.198.792-3.519 1.831-4.617 1.181-1.247 2.777-1.934 4.493-1.934.373 0 .737.033 1.083.098.354.067.611.376.611.737v15.415c0 .414-.336.75-.75.75zm-7.813-6.882-.004.005c.002-.002.003-.004.004-.005z" fill="#ffcc80"/><path d="m9.75 11c-.092 0-.184-.017-.271-.051-.29-.112-.479-.389-.479-.699v-2.25h-1.25c-.965 0-1.75-.785-1.75-1.75v-4.5c0-.965.785-1.75 1.75-1.75h8.5c.965 0 1.75.785 1.75 1.75v4.5c0 .965-.785 1.75-1.75 1.75h-3.42l-2.527 2.757c-.145.158-.347.243-.553.243zm-2-9.5c-.138 0-.25.112-.25.25v4.5c0 .138.112.25.25.25h2c.414 0 .75.336.75.75v1.072l1.447-1.579c.142-.155.343-.243.553-.243h3.75c.138 0 .25-.112.25-.25v-4.5c0-.138-.112-.25-.25-.25z"/><path d="m4.277 24h-3.527c-.414 0-.75-.336-.75-.75s.336-.75.75-.75h2.777v-1.75c0-.232.107-.451.292-.594s.423-.19.647-.132l1.87.489c-.017-.007.045-.024.091-.063s.073-.096.073-.157v-3.043c0-.414.336-.75.75-.75h.908l-1.535-2.342c-.095-.144-.137-.315-.119-.487.171-1.676-.387-2.628-1.406-3.705-.896-.945-2.104-1.466-3.404-1.466-.28 0-.551.024-.806.072-.407.075-.8-.191-.876-.599s.191-.8.599-.876c.346-.064.71-.097 1.083-.097 1.716 0 3.311.687 4.494 1.935 1.039 1.099 1.974 2.419 1.831 4.617l1.802 2.749c.116.172.179.382.179.599 0 .606-.493 1.1-1.1 1.1h-.9v2.293c0 .497-.217.969-.595 1.295-.378.325-.874.47-1.37.393l-1.008-.261v1.53c0 .414-.336.75-.75.75zm4.288-6.878.006.009z"/><path d="m23.25 24h-3.527c-.414 0-.75-.336-.75-.75v-1.528l-.931.243c-.574.088-1.069-.053-1.446-.376-.379-.327-.596-.799-.596-1.296v-2.293h-.9c-.606 0-1.1-.493-1.1-1.1 0-.218.063-.428.185-.607l1.797-2.741c-.143-2.198.792-3.519 1.831-4.617 1.182-1.248 2.777-1.935 4.493-1.935.373 0 .737.033 1.083.098.407.076.675.469.599.876-.076.406-.469.673-.876.599-.256-.049-.526-.073-.806-.073-1.3 0-2.508.521-3.403 1.466-1.02 1.077-1.577 2.029-1.406 3.705.018.172-.024.344-.119.487l-1.535 2.342h.907c.414 0 .75.336.75.75v3.043c0 .061.026.118.073.158.045.038.107.054.167.047l1.793-.474c.224-.059.463-.011.647.132s.292.361.292.594v1.75h2.777c.414 0 .75.336.75.75s-.335.75-.749.75zm-7.812-6.884-.005.007c.003-.002.004-.005.005-.007z"/></svg>