<svg enable-background="new 0 0 24 24" height="512" viewBox="0 0 24 24" width="512" xmlns="http://www.w3.org/2000/svg"><g id="Color"><g><path d="m23.191 12.23c0-5.27-3.114-11.163-7.278-11.162-1.954 0-3.819 1.322-5.249 3.723-1.271 2.132-2.029 4.914-2.029 7.44 0 2.503.735 4.582 2.125 6.011.021.022.042.044.064.065 1.295 1.295 3.053 1.979 5.089 1.979 4.421-.001 7.278-3.163 7.278-8.056z" fill="#ffd54f"/></g><g><path d="m15.403 10.052c-3.727-3.726-10.096-5.691-13.04-2.746-1.382 1.382-1.765 3.635-1.079 6.344.609 2.406 2.04 4.91 3.826 6.696 1.77 1.77 3.76 2.72 5.753 2.747.03.001.061.001.091.001 1.832 0 3.558-.759 4.998-2.199 3.126-3.127 2.911-7.382-.549-10.843z" fill="#90caf9"/></g></g><g id="_x31_.5"><g><path d="m16.538 21.37c-.39 0-.719-.302-.747-.697-.029-.413.282-.772.695-.801 3.766-.265 6.014-3.039 6.014-7.42 0-4.938-2.938-10.901-6.587-10.901-2.038 0-4.118 1.988-5.43 5.189-.157.382-.593.566-.979.408-.382-.157-.566-.595-.409-.979 1.57-3.832 4.119-6.12 6.818-6.12 4.629.001 8.087 6.548 8.087 12.402 0 5.179-2.839 8.595-7.408 8.917-.018.001-.036.002-.054.002z"/></g><g><path d="m11.11 24.05c-.034 0-.067 0-.102-.001-2.215-.03-4.425-1.086-6.392-3.053-1.985-1.985-3.574-4.766-4.251-7.439-.762-3.01-.336-5.514 1.199-7.049 3.273-3.274 10.349-1.089 14.489 3.052 3.845 3.844 4.084 8.573.61 12.047-1.6 1.6-3.518 2.443-5.553 2.443zm-5.223-17.604c-1.384 0-2.521.381-3.262 1.123-1.13 1.13-1.424 3.179-.806 5.62.613 2.423 2.055 4.945 3.857 6.747 1.685 1.685 3.536 2.589 5.353 2.614 1.659-.016 3.239-.67 4.573-2.004 2.873-2.873 2.639-6.676-.61-9.926-1.802-1.802-4.324-3.244-6.747-3.857-.839-.213-1.633-.317-2.358-.317zm-3.792.592h.01z"/></g></g></svg>