<?xml version="1.0" encoding="UTF-8" standalone="no"?>
<svg
   xmlns:dc="http://purl.org/dc/elements/1.1/"
   xmlns:cc="http://creativecommons.org/ns#"
   xmlns:rdf="http://www.w3.org/1999/02/22-rdf-syntax-ns#"
   xmlns:svg="http://www.w3.org/2000/svg"
   xmlns="http://www.w3.org/2000/svg"
   xmlns:sodipodi="http://sodipodi.sourceforge.net/DTD/sodipodi-0.dtd"
   xmlns:inkscape="http://www.inkscape.org/namespaces/inkscape"
   version="1.1"
   id="Capa_1"
   x="0px"
   y="0px"
   viewBox="0 0 497.371 497.371"
   style="enable-background:new 0 0 497.371 497.371;"
   xml:space="preserve"
   sodipodi:docname="file.svg"
   inkscape:version="1.0.1 (3bc2e813f5, 2020-09-07)"><metadata
   id="metadata55"><rdf:RDF><cc:Work
       rdf:about=""><dc:format>image/svg+xml</dc:format><dc:type
         rdf:resource="http://purl.org/dc/dcmitype/StillImage" /></cc:Work></rdf:RDF></metadata><defs
   id="defs53" /><sodipodi:namedview
   pagecolor="#ffffff"
   bordercolor="#666666"
   borderopacity="1"
   objecttolerance="10"
   gridtolerance="10"
   guidetolerance="10"
   inkscape:pageopacity="0"
   inkscape:pageshadow="2"
   inkscape:window-width="1920"
   inkscape:window-height="1027"
   id="namedview51"
   showgrid="false"
   inkscape:zoom="1.7290916"
   inkscape:cx="248.6855"
   inkscape:cy="248.6855"
   inkscape:window-x="-8"
   inkscape:window-y="-8"
   inkscape:window-maximized="1"
   inkscape:current-layer="Capa_1" />
<path
   style="fill:#F58570;"
   d="M163.84,14.629v78.994c0,17.554-14.629,32.183-32.183,32.183H51.2"
   id="path2" />
<g
   id="g18">
	<path
   style="fill:#030303;"
   d="M402.286,497.371h-307.2c-32.183,0-58.514-26.331-58.514-58.514V127.269   c0-4.389,1.463-7.314,4.389-10.24L153.6,4.389C156.526,1.463,159.451,0,163.84,0h238.446C434.469,0,460.8,26.331,460.8,58.514   v380.343C460.8,471.04,434.469,497.371,402.286,497.371z M65.829,133.12v305.737c0,16.091,13.166,29.257,29.257,29.257h307.2   c16.091,0,29.257-13.166,29.257-29.257V58.514c0-16.091-13.166-29.257-29.257-29.257H169.691L65.829,133.12z"
   id="path4" />
	<path
   style="fill:#030303;"
   d="M131.657,141.897H51.2c-8.777,0-14.629-5.851-14.629-14.629S42.423,112.64,51.2,112.64h78.994   c10.24,0,17.554-8.777,17.554-17.554V14.629C147.749,5.851,153.6,0,162.377,0s14.629,5.851,14.629,14.629v78.994   C178.469,119.954,156.526,141.897,131.657,141.897z"
   id="path6" />
	<path
   style="fill:#030303;"
   d="M368.64,118.491H238.446c-8.777,0-14.629-5.851-14.629-14.629s5.851-14.629,14.629-14.629H368.64   c8.777,0,14.629,5.851,14.629,14.629C383.269,112.64,375.954,118.491,368.64,118.491z"
   id="path8" />
	<path
   style="fill:#030303;"
   d="M368.64,435.931H128.731c-8.777,0-14.629-5.851-14.629-14.629c0-8.777,5.851-14.629,14.629-14.629   h238.446c8.777,0,14.629,5.851,14.629,14.629C381.806,430.08,375.954,435.931,368.64,435.931z"
   id="path10" />
	<path
   style="fill:#030303;"
   d="M368.64,359.863H128.731c-8.777,0-14.629-5.851-14.629-14.629c0-8.777,5.851-14.629,14.629-14.629   h238.446c8.777,0,14.629,5.851,14.629,14.629C381.806,354.011,375.954,359.863,368.64,359.863z"
   id="path12" />
	<path
   style="fill:#030303;"
   d="M368.64,285.257H128.731c-8.777,0-14.629-5.851-14.629-14.629S119.954,256,128.731,256h238.446   c8.777,0,14.629,5.851,14.629,14.629S375.954,285.257,368.64,285.257z"
   id="path14" />
	<path
   style="fill:#030303;"
   d="M368.64,209.189H128.731c-8.777,0-14.629-5.851-14.629-14.629c0-8.777,5.851-14.629,14.629-14.629   h238.446c8.777,0,14.629,5.851,14.629,14.629C381.806,203.337,375.954,209.189,368.64,209.189z"
   id="path16" />
</g>
<g
   id="g20">
</g>
<g
   id="g22">
</g>
<g
   id="g24">
</g>
<g
   id="g26">
</g>
<g
   id="g28">
</g>
<g
   id="g30">
</g>
<g
   id="g32">
</g>
<g
   id="g34">
</g>
<g
   id="g36">
</g>
<g
   id="g38">
</g>
<g
   id="g40">
</g>
<g
   id="g42">
</g>
<g
   id="g44">
</g>
<g
   id="g46">
</g>
<g
   id="g48">
</g>
<path
   style="fill:#ffffff;fill-rule:evenodd;stroke:#ffffff;stroke-width:0.578338;stroke-linecap:round;stroke-linejoin:round"
   d="M 89.359157,467.19607 C 79.933538,465.39865 70.780055,457.16109 67.460025,447.48824 L 66.219744,443.8747 66.067655,293.10096 65.915566,142.32722 102.50297,142.13126 c 36.12832,-0.1935 36.64163,-0.21247 40.90912,-1.51155 18.09012,-5.50686 31.18603,-20.66916 33.53993,-38.83216 0.30918,-2.385642 0.57018,-19.627355 0.58,-38.314913 l 0.0179,-33.97738 h 113.61503 c 80.71144,0 114.50258,0.185091 116.67976,0.639112 10.1845,2.123845 19.51707,10.772975 22.22575,20.59813 1.04565,3.792836 1.08084,10.256562 1.08084,198.531341 V 443.8747 l -1.34626,3.7592 c -1.82227,5.08841 -4.16818,8.61211 -8.24855,12.38981 -3.94318,3.65069 -9.15652,6.32619 -14.0787,7.22524 -4.45688,0.81406 -313.842103,0.76262 -318.118593,-0.0529 z M 373.08654,435.39266 c 5.3631,-1.84001 8.82073,-7.19019 8.87459,-13.73208 0.0194,-2.35701 -0.36639,-4.84183 -1.01113,-6.51258 -1.27357,-3.30026 -5.24048,-7.10252 -8.29495,-7.95066 -1.5522,-0.431 -39.55741,-0.61613 -125.12623,-0.60954 -122.45608,0.009 -122.90623,0.0137 -125.49942,1.18935 -5.78591,2.62308 -7.79753,6.12582 -7.80342,13.58771 -0.004,4.83174 0.13419,5.47292 1.73086,8.04107 0.95426,1.53486 2.4007,3.28463 3.21431,3.88837 3.84769,2.85517 -2.48444,2.7203 128.9943,2.74745 92.20219,0.019 123.44688,-0.14331 124.92109,-0.64909 z m 1.45939,-76.65292 c 4.97747,-2.66258 7.32647,-6.97633 7.35283,-13.50282 0.0211,-5.2289 -1.45936,-8.84636 -4.72948,-11.55624 -4.45992,-3.69585 4.14212,-3.47763 -130.53415,-3.31151 l -122.58155,0.15121 -2.34395,1.25486 c -5.1785,2.77238 -7.77697,7.24433 -7.77697,13.38411 0,4.30011 0.97052,7.20138 3.33176,9.95996 2.19372,2.56286 4.18497,3.7738 7.49329,4.55688 1.25821,0.29783 54.2755,0.47992 124.7953,0.42863 l 122.60773,-0.0892 z m 0,-74.60565 c 4.97747,-2.66258 7.32647,-6.97633 7.35283,-13.50282 0.0211,-5.2289 -1.45936,-8.84636 -4.72948,-11.55624 -4.45992,-3.69585 4.14212,-3.47763 -130.53415,-3.31151 l -122.58155,0.15121 -2.34395,1.25486 c -5.1785,2.77238 -7.77697,7.24433 -7.77697,13.38411 0,4.30011 0.97052,7.20138 3.33176,9.95996 2.19372,2.56286 4.18497,3.7738 7.49329,4.55688 1.25821,0.29782 54.2755,0.47992 124.7953,0.42863 l 122.60773,-0.0892 z m 1.12138,-76.81905 c 4.09345,-2.53082 6.29944,-6.97089 6.27598,-12.63187 -0.0259,-6.24603 -2.58175,-10.89781 -7.45717,-13.57237 -1.60847,-0.88239 -11.54015,-0.9714 -125.22228,-1.12241 -90.69147,-0.12046 -124.11153,0.0101 -125.87172,0.49171 -3.07534,0.84147 -6.25627,3.47435 -7.88167,6.52372 -1.04749,1.96517 -1.28108,3.34859 -1.28447,7.60704 -0.004,4.64268 0.16793,5.49777 1.58851,7.91436 1.73733,2.95542 4.05899,4.8742 7.30512,6.03746 1.69099,0.60597 25.75896,0.72601 125.90046,0.62791 l 123.80981,-0.12127 z m -0.61066,-90.11553 c 5.81183,-2.70643 8.73829,-7.97351 8.2468,-14.84272 -0.37017,-5.173665 -2.42818,-8.744442 -6.48575,-11.253205 l -2.83087,-1.750306 -69.60688,-0.153711 -69.60688,-0.153716 -2.87975,1.238835 c -3.11947,1.341965 -6.01928,4.229053 -7.28121,7.249275 -1.1794,2.822698 -1.01091,10.373558 0.29566,13.250118 1.23113,2.71046 5.2948,6.41661 7.85043,7.15976 0.9703,0.28215 32.59538,0.53205 70.58028,0.55772 l 68.82226,0.0465 z"
   id="path886" /></svg>
