<?xml version="1.0" encoding="iso-8859-1"?>
<!-- Generator: Adobe Illustrator 19.0.0, SVG Export Plug-In . SVG Version: 6.00 Build 0)  -->
<svg version="1.1" id="Capa_1" xmlns="http://www.w3.org/2000/svg" xmlns:xlink="http://www.w3.org/1999/xlink" x="0px" y="0px"
	 viewBox="0 0 497.431 497.431" style="enable-background:new 0 0 497.431 497.431;" xml:space="preserve">
<path style="fill:#FFFFFF;" d="M316.007,14.688H83.413c-20.48,0-38.034,17.554-38.034,38.034v393.509
	c0,20.48,17.554,38.034,38.034,38.034h330.606c20.48,0,38.034-17.554,38.034-38.034V150.734L316.007,14.688z"/>
<path style="fill:#030303;" d="M414.018,497.431H83.413c-29.257,0-52.663-23.406-52.663-52.663V52.722
	c0-29.257,23.406-52.663,52.663-52.663h232.594c4.389,0,7.314,1.463,10.24,4.389l136.046,136.046
	c2.926,2.926,4.389,5.851,4.389,10.24v295.497C465.218,474.025,441.813,497.431,414.018,497.431z M83.413,29.316
	c-13.166,0-23.406,10.24-23.406,23.406v393.509c0,13.166,10.24,23.406,23.406,23.406h330.606c13.166,0,23.406-10.24,23.406-23.406
	V156.585L310.155,29.316H83.413z"/>
<path style="fill:#F15E75;" d="M346.727,150.734H450.59L314.544,14.688v103.863C316.007,136.105,330.635,150.734,346.727,150.734z"
	/>
<path style="fill:#030303;" d="M450.59,165.362H346.727c-24.869,0-46.811-20.48-46.811-46.811V14.688
	c0-5.851,2.926-11.703,8.777-13.166c5.851-2.926,11.703-1.463,16.091,2.926L460.83,140.494c4.389,4.389,5.851,10.24,2.926,16.091
	C462.292,160.974,457.904,165.362,450.59,165.362z M330.635,49.796v68.754c0,8.777,7.314,17.554,17.554,17.554h68.754
	L330.635,49.796z"/>
<rect x="108.281" y="147.808" style="fill:#C0D0D6;" width="108.251" height="178.469"/>
<polygon style="fill:#F6E272;" points="162.407,434.528 108.281,326.276 216.533,326.276 "/>
<path style="fill:#FFCA19;" d="M197.515,62.962h-70.217c-10.24,0-19.017,8.777-19.017,19.017v67.291h108.251V81.979
	C216.533,70.276,207.755,62.962,197.515,62.962z"/>
<g>
	<path style="fill:#030303;" d="M216.533,340.905H108.281c-8.777,0-14.629-5.851-14.629-14.629V147.808
		c0-8.777,5.851-14.629,14.629-14.629h108.251c8.777,0,14.629,5.851,14.629,14.629v178.469
		C231.161,335.054,223.847,340.905,216.533,340.905z M122.91,311.648h78.994V162.436H122.91V311.648z"/>
	<path style="fill:#030303;" d="M162.407,449.156c-5.851,0-10.24-2.926-13.166-8.777L95.115,333.591
		c-2.926-4.389-1.463-10.24,0-14.629c1.463-4.389,7.314-7.314,13.166-7.314h108.251c4.389,0,10.24,2.926,13.166,7.314
		c2.926,4.389,2.926,10.24,0,14.629l-54.126,108.251C172.647,446.231,166.795,449.156,162.407,449.156z M131.687,340.905
		l30.72,61.44l30.72-61.44H131.687z"/>
	<path style="fill:#030303;" d="M216.533,162.436H108.281c-8.777,0-14.629-5.851-14.629-14.629V81.979
		c0-19.017,14.629-33.646,33.646-33.646h70.217c19.017,0,33.646,14.629,33.646,33.646v67.291
		C231.161,156.585,223.847,162.436,216.533,162.436z M122.91,133.179h78.994v-51.2c0-2.926-1.463-4.389-4.389-4.389h-70.217
		c-2.926,0-4.389,1.463-4.389,4.389V133.179z"/>
</g>
<g>
	<path style="fill:#030303;" d="M162.407,340.905c-8.777,0-14.629-5.851-14.629-14.629V155.122c0-8.777,5.851-14.629,14.629-14.629
		s14.629,5.851,14.629,14.629v172.617C177.035,335.054,169.721,340.905,162.407,340.905z"/>
	<path style="fill:#030303;" d="M389.15,231.191H266.27c-8.777,0-14.629-5.851-14.629-14.629s5.851-14.629,14.629-14.629h122.88
		c8.777,0,14.629,5.851,14.629,14.629S397.927,231.191,389.15,231.191z"/>
	<path style="fill:#030303;" d="M389.15,304.334H266.27c-8.777,0-14.629-5.851-14.629-14.629c0-8.777,5.851-14.629,14.629-14.629
		h122.88c8.777,0,14.629,5.851,14.629,14.629C403.778,298.482,397.927,304.334,389.15,304.334z"/>
	<path style="fill:#030303;" d="M389.15,377.476H266.27c-8.777,0-14.629-5.851-14.629-14.629c0-8.777,5.851-14.629,14.629-14.629
		h122.88c8.777,0,14.629,5.851,14.629,14.629C403.778,371.625,397.927,377.476,389.15,377.476z"/>
</g>
<g>
</g>
<g>
</g>
<g>
</g>
<g>
</g>
<g>
</g>
<g>
</g>
<g>
</g>
<g>
</g>
<g>
</g>
<g>
</g>
<g>
</g>
<g>
</g>
<g>
</g>
<g>
</g>
<g>
</g>
</svg>
