<?xml version="1.0" encoding="iso-8859-1"?>
<!-- Generator: Adobe Illustrator 19.0.0, SVG Export Plug-In . SVG Version: 6.00 Build 0)  -->
<svg version="1.1" id="Capa_1" xmlns="http://www.w3.org/2000/svg" xmlns:xlink="http://www.w3.org/1999/xlink" x="0px" y="0px"
	 viewBox="0 0 497.371 497.371" style="enable-background:new 0 0 497.371 497.371;" xml:space="preserve">
<path style="fill:#FFCA19;" d="M435.931,143.36H329.143c-11.703,0-21.943-4.389-30.72-13.166l-21.943-23.406
	c-7.314-7.314-19.017-11.703-30.72-11.703H61.44c-23.406,0-40.96,19.017-40.96,42.423v276.48c0,38.034,30.72,68.754,68.754,68.754
	l0,0c38.034,0,68.754-30.72,68.754-68.754V228.206h320.366v-42.423C476.891,162.377,459.337,143.36,435.931,143.36z"/>
<path style="fill:#030303;" d="M87.771,497.371c-45.349,0-83.383-38.034-83.383-83.383v-276.48
	C5.851,105.326,30.72,80.457,61.44,80.457h184.32c16.091,0,30.72,5.851,40.96,17.554l21.943,23.406
	c5.851,4.389,13.166,7.314,20.48,7.314h106.789c30.72,0,57.051,24.869,57.051,57.051v42.423c0,8.777-5.851,14.629-14.629,14.629
	h-307.2v171.154C171.154,459.337,134.583,497.371,87.771,497.371z M61.44,109.714c-14.629,0-27.794,11.703-27.794,27.794v276.48
	c0,29.257,24.869,54.126,54.126,54.126s54.126-24.869,54.126-54.126V228.206c0-8.777,5.851-14.629,14.629-14.629h305.737v-27.794
	c0-14.629-11.703-27.794-27.794-27.794H329.143c-16.091,0-30.72-5.851-40.96-17.554l-21.943-23.406
	c-4.389-4.389-11.703-7.314-20.48-7.314H61.44z"/>
<path style="fill:#FFFFFF;" d="M375.954,14.629H149.211c-17.554,0-32.183,14.629-32.183,32.183v258.926H409.6V46.811
	C409.6,29.257,394.971,14.629,375.954,14.629z"/>
<g style="opacity:0.1;">
	<path style="fill:#030303;" d="M397.897,21.943c-62.903,14.629-130.194,45.349-193.097,92.16
		c-33.646,24.869-62.903,54.126-87.771,83.383V46.811c0-17.554,14.629-32.183,32.183-32.183h226.743
		C384.731,14.629,392.046,17.554,397.897,21.943z"/>
</g>
<path style="fill:#030303;" d="M424.229,320.366H102.4V46.811C102.4,20.48,124.343,0,149.211,0h226.743
	c26.331,0,46.811,21.943,46.811,46.811v273.554H424.229z M131.657,291.109h263.314V46.811c0-10.24-8.777-17.554-17.554-17.554
	H149.211c-10.24,0-17.554,8.777-17.554,17.554V291.109z"/>
<path style="fill:#D69D28;" d="M452.023,212.114H127.269c-23.406,0-40.96,19.017-40.96,40.96v229.669H409.6
	c38.034,0,68.754-30.72,68.754-68.754V238.446C476.891,223.817,465.189,212.114,452.023,212.114z"/>
<g style="opacity:0.1;">
	<path style="fill:#030303;" d="M475.429,228.206c-83.383-2.926-185.783,30.72-276.48,100.937
		c-45.349,35.109-83.383,74.606-112.64,115.566V254.537c0-23.406,19.017-40.96,40.96-40.96h324.754
		C462.263,212.114,471.04,219.429,475.429,228.206z"/>
</g>
<g>
	<path style="fill:#030303;" d="M348.16,98.011H178.469c-8.777,0-14.629-5.851-14.629-14.629s5.851-14.629,14.629-14.629H348.16
		c8.777,0,14.629,5.851,14.629,14.629S355.474,98.011,348.16,98.011z"/>
	<path style="fill:#030303;" d="M348.16,162.377H178.469c-8.777,0-14.629-5.851-14.629-14.629s5.851-14.629,14.629-14.629H348.16
		c8.777,0,14.629,5.851,14.629,14.629S355.474,162.377,348.16,162.377z"/>
	<path style="fill:#030303;" d="M409.6,497.371H84.846c-8.777,0-14.629-5.851-14.629-14.629V253.074
		c0-30.72,24.869-55.589,55.589-55.589H450.56c21.943,0,40.96,19.017,40.96,40.96v175.543
		C491.52,460.8,454.949,497.371,409.6,497.371z M99.474,468.114h308.663c29.257,0,54.126-23.406,54.126-54.126V238.446
		c0-5.851-5.851-11.703-11.703-11.703H127.269c-14.629,0-26.331,11.703-26.331,26.331v215.04H99.474z"/>
</g>
<g>
</g>
<g>
</g>
<g>
</g>
<g>
</g>
<g>
</g>
<g>
</g>
<g>
</g>
<g>
</g>
<g>
</g>
<g>
</g>
<g>
</g>
<g>
</g>
<g>
</g>
<g>
</g>
<g>
</g>
</svg>
