<?xml version="1.0" encoding="UTF-8" standalone="no"?>
<svg
   xmlns:dc="http://purl.org/dc/elements/1.1/"
   xmlns:cc="http://creativecommons.org/ns#"
   xmlns:rdf="http://www.w3.org/1999/02/22-rdf-syntax-ns#"
   xmlns:svg="http://www.w3.org/2000/svg"
   xmlns="http://www.w3.org/2000/svg"
   xmlns:sodipodi="http://sodipodi.sourceforge.net/DTD/sodipodi-0.dtd"
   xmlns:inkscape="http://www.inkscape.org/namespaces/inkscape"
   height="512pt"
   viewBox="0 0 512 512"
   width="512pt"
   version="1.1"
   id="svg6"
   sodipodi:docname="forbidden.svg"
   inkscape:version="1.0.1 (3bc2e813f5, 2020-09-07)">
  <metadata
     id="metadata12">
    <rdf:RDF>
      <cc:Work
         rdf:about="">
        <dc:format>image/svg+xml</dc:format>
        <dc:type
           rdf:resource="http://purl.org/dc/dcmitype/StillImage" />
      </cc:Work>
    </rdf:RDF>
  </metadata>
  <defs
     id="defs10" />
  <sodipodi:namedview
     pagecolor="#ffffff"
     bordercolor="#666666"
     borderopacity="1"
     objecttolerance="10"
     gridtolerance="10"
     guidetolerance="10"
     inkscape:pageopacity="0"
     inkscape:pageshadow="2"
     inkscape:window-width="1920"
     inkscape:window-height="1027"
     id="namedview8"
     showgrid="false"
     inkscape:zoom="1.2597656"
     inkscape:cx="516.35296"
     inkscape:cy="326.66423"
     inkscape:window-x="-8"
     inkscape:window-y="-8"
     inkscape:window-maximized="1"
     inkscape:current-layer="svg6" />
  <path
     style="fill:#ff2a2a;fill-rule:evenodd;stroke-width:7.5;stroke-linecap:round;stroke-linejoin:round"
     id="path839"
     sodipodi:type="arc"
     sodipodi:cx="257.19067"
     sodipodi:cy="254.80931"
     sodipodi:rx="244.68837"
     sodipodi:ry="244.09302"
     sodipodi:start="0.14645983"
     sodipodi:end="6.2659837"
     sodipodi:arc-type="arc"
     d="M 499.25939,290.43146 A 244.68837,244.09302 0 0 1 231.41309,497.54404 244.68837,244.09302 0 0 1 13.013148,239.04478 244.68837,244.09302 0 0 1 262.99261,10.784922 244.68837,244.09302 0 0 1 501.84284,250.61073"
     sodipodi:open="true" />
  <path
     d="m437.019531 74.980469c-48.351562-48.351563-112.640625-74.980469-181.019531-74.980469s-132.667969 26.628906-181.019531 74.980469c-48.351563 48.351562-74.980469 112.640625-74.980469 181.019531s26.628906 132.667969 74.980469 181.019531c48.351562 48.351563 112.640625 74.980469 181.019531 74.980469s132.667969-26.628906 181.019531-74.980469c48.351563-48.351562 74.980469-112.640625 74.980469-181.019531s-26.628906-132.667969-74.980469-181.019531zm-181.019531 407.019531c-124.617188 0-226-101.382812-226-226s101.382812-226 226-226 226 101.382812 226 226-101.382812 226-226 226zm0 0"
     id="path2" />
  <rect
     style="fill:#ffffff;fill-rule:evenodd;stroke-width:7.5;stroke-linecap:round;stroke-linejoin:round"
     id="rect841"
     width="323.86975"
     height="92.874413"
     x="91.683723"
     y="209.56281" />
  <path
     d="m416.667969 200.832031h-321.335938c-8.285156 0-15 6.71875-15 15v80.332031c0 8.285157 6.714844 15 15 15h321.335938c8.28125 0 15-6.714843 15-15v-80.332031c0-8.28125-6.71875-15-15-15zm-15 80.332031h-291.335938v-50.332031h291.335938zm0 0"
     id="path4" />
</svg>
