<?xml version="1.0" encoding="UTF-8" standalone="no"?>
<svg
   xmlns:dc="http://purl.org/dc/elements/1.1/"
   xmlns:cc="http://creativecommons.org/ns#"
   xmlns:rdf="http://www.w3.org/1999/02/22-rdf-syntax-ns#"
   xmlns:svg="http://www.w3.org/2000/svg"
   xmlns="http://www.w3.org/2000/svg"
   xmlns:sodipodi="http://sodipodi.sourceforge.net/DTD/sodipodi-0.dtd"
   xmlns:inkscape="http://www.inkscape.org/namespaces/inkscape"
   id="Capa_1"
   enable-background="new 0 0 512 512"
   height="512"
   viewBox="0 0 512 512"
   width="512"
   version="1.1"
   sodipodi:docname="games.svg"
   inkscape:version="1.0.1 (3bc2e813f5, 2020-09-07)">
  <metadata
     id="metadata19">
    <rdf:RDF>
      <cc:Work
         rdf:about="">
        <dc:format>image/svg+xml</dc:format>
        <dc:type
           rdf:resource="http://purl.org/dc/dcmitype/StillImage" />
      </cc:Work>
    </rdf:RDF>
  </metadata>
  <defs
     id="defs17" />
  <sodipodi:namedview
     pagecolor="#ffffff"
     bordercolor="#666666"
     borderopacity="1"
     objecttolerance="10"
     gridtolerance="10"
     guidetolerance="10"
     inkscape:pageopacity="0"
     inkscape:pageshadow="2"
     inkscape:window-width="1920"
     inkscape:window-height="1027"
     id="namedview15"
     showgrid="false"
     inkscape:zoom="1.6796875"
     inkscape:cx="290.38601"
     inkscape:cy="256"
     inkscape:window-x="-8"
     inkscape:window-y="-8"
     inkscape:window-maximized="1"
     inkscape:current-layer="Capa_1" />
  <g
     id="g890"
     transform="matrix(1.0232262,0,0,1.0914657,-312.35076,169.42574)">
    <path
       style="fill:#cccccc;fill-opacity:1;fill-rule:evenodd;stroke-width:6.83658;stroke-linecap:round;stroke-linejoin:round"
       d="m 442.82116,159.52533 c -26.00837,-3.08425 -48.40506,-20.90901 -57.23836,-45.55411 -3.30746,-9.22784 -4.25319,-22.271273 -2.32387,-32.050788 5.00465,-25.368253 22.04341,-44.117018 47.74914,-52.541221 6.23049,-2.041839 7.32622,-2.186726 18.47552,-2.442984 13.62559,-0.313173 18.41572,0.394419 27.9363,4.126715 11.52897,4.519626 22.61398,12.67539 30.00307,22.074658 3.90685,4.969703 10.28297,17.327851 11.82375,22.916684 1.76519,6.402864 2.15929,23.541411 0.7019,30.523746 -2.42427,11.61465 -8.75919,23.23712 -17.44628,32.00818 -9.74347,9.83766 -21.20145,16.41204 -34.07231,19.55008 -5.89809,1.43801 -19.13942,2.15622 -25.60886,1.38904 z"
       id="path856" />
    <g
       id="g880">
      <path
         style="fill:#cccccc;fill-opacity:1;fill-rule:evenodd;stroke-width:9.00653;stroke-linecap:round;stroke-linejoin:round"
         d="m 522.41408,160.05765 c -4.65047,-2.18378 -9.90113,-7.69442 -11.37895,-11.94241 -0.57704,-1.65872 -0.89466,-5.91871 -0.70581,-9.46663 0.29055,-5.45823 0.77187,-7.02911 3.12827,-10.20977 1.5317,-2.06746 4.57761,-4.95431 6.7687,-6.41521 3.69858,-2.46601 4.56261,-2.65619 12.0678,-2.65619 7.38432,0 8.47574,0.22979 12.61051,2.65489 6.67294,3.91377 10.01113,9.50409 10.43547,17.47571 0.37384,7.02295 -0.7828,10.57109 -4.9886,15.30331 -6.00139,6.75257 -19.38759,9.27112 -27.93739,5.2563 z"
         id="path858" />
      <g
         id="g872"
         transform="translate(5.3581395,6.5488372)">
        <path
           style="fill:#cccccc;fill-opacity:1;fill-rule:evenodd;stroke-width:8.62424;stroke-linecap:round;stroke-linejoin:round"
           d="m 564.29312,153.48252 c -5.54322,-0.9387 -8.70046,-2.53556 -13.07394,-6.61247 -7.95835,-7.4187 -7.93781,-18.45416 0.0483,-25.93454 4.91376,-4.60262 10.41102,-6.7476 17.293,-6.7476 8.83408,0 15.55401,3.44904 20.33477,10.43695 3.35268,4.90055 3.56765,13.14279 0.47411,18.17861 -4.87749,7.93982 -15.2264,12.34705 -25.0762,10.67905 z"
           id="path860" />
        <g
           id="g866"
           transform="translate(-4.7627907,-5.3581395)">
          <path
             style="fill:#cccccc;fill-opacity:1;fill-rule:evenodd;stroke-width:5.95349;stroke-linecap:round;stroke-linejoin:round"
             d="m 352.51339,272.91949 c -13.26621,-3.56773 -23.28548,-16.39865 -23.28548,-29.81996 0,-4.11397 36.68299,-188.293123 38.69744,-194.293393 7.336,-21.85104 25.83579,-38.23655 48.81884,-43.2394605 4.83933,-1.05342 10.86192,-1.10156 137.82326,-1.10156 142.67562,0 135.02876,-0.16187 145.42598,3.07838 19.24116,5.9964305 35.38346,21.9391105 41.79192,41.2751105 2.07936,6.27396 38.71698,190.224523 38.71698,194.390623 0,13.48052 -10.09874,26.23838 -23.54102,29.73965 -9.63663,2.51002 -20.65903,-0.27773 -28.17368,-7.12562 -6.13329,-5.58909 -6.76811,-7.03142 -18.27593,-41.5235 -5.81776,-17.43742 -11.22478,-32.68763 -12.01559,-33.88936 -1.57103,-2.38736 -4.66882,-4.66217 -7.83146,-5.75093 -2.90806,-1.00111 -268.6727,-1.00544 -271.59906,-0.004 -3.14444,1.07562 -5.97359,3.2177 -7.75707,5.87324 -1.02136,1.52076 -5.55027,14.18762 -12.12682,33.91734 -11.46087,34.3827 -12.06565,35.74978 -18.35167,41.48276 -7.4646,6.80788 -18.69139,9.57966 -28.31664,6.99111 z M 539.60062,152.19181 c 12.83671,-7.52281 8.35256,-27.02217 -6.48808,-28.21344 -9.20348,-0.73876 -16.34954,5.84051 -16.33086,15.03559 0.0127,6.24067 3.04353,11.09644 8.61367,13.80012 4.09835,1.98929 10.20548,1.72176 14.20527,-0.62227 z m 42.19559,1.29579 c 3.36042,-1.0068 7.87884,-5.27243 9.17219,-8.65901 2.35568,-6.16827 0.83167,-12.71008 -3.96588,-17.02348 -7.599,-6.83216 -19.16112,-4.5989 -23.96299,4.62851 -1.77014,3.40154 -1.74948,9.7982 0.0427,13.2445 3.60186,6.92601 11.14968,10.07578 18.71392,7.80948 z m -118.1279,-1.89679 c 13.67874,-3.50433 26.36115,-12.11971 34.41918,-23.38153 3.49058,-4.8784 7.56058,-13.62844 9.23572,-19.85579 1.15865,-4.30726 1.36126,-6.52256 1.36126,-14.883723 0,-11.72683 -1.03393,-16.51663 -5.59028,-25.89767 -3.44689,-7.0968 -7.2462,-12.24933 -13.09324,-17.75678 -7.08291,-6.67153 -15.85792,-11.53388 -25.62885,-14.20128 -4.38901,-1.19818 -6.40338,-1.37869 -15.1814,-1.36043 -7.87425,0.0164 -10.97995,0.2593 -13.9907,1.09438 -18.07582,5.01358 -31.49895,15.81851 -39.2929,31.62876 -8.18557,16.60467 -8.41382,35.254943 -0.63464,51.855293 9.04731,19.30644 28.03528,32.64698 48.52144,34.09012 6.6222,0.46649 15.06413,-0.099 19.87441,-1.33135 z m 212.43259,-0.35684 c 9.94609,-2.72867 19.00089,-8.02456 26.44074,-15.46442 15.30894,-15.30894 21.13191,-37.414153 15.40349,-58.474853 -2.69141,-9.89506 -10.40673,-22.16418 -18.03697,-28.68289 -12.15328,-10.38288 -25.87056,-15.11709 -42.04769,-14.51182 -9.58632,0.35867 -14.92416,1.62697 -23.05243,5.47737 -12.76639,6.04749 -22.66715,16.05837 -28.75164,29.07142 -3.99858,8.55186 -5.00863,13.5419 -5.0241,24.82099 -0.0115,8.417813 0.18261,10.547273 1.35698,14.883723 1.68733,6.23064 5.76497,14.98029 9.25347,19.85579 5.6137,7.84564 15.55538,16.07325 23.85927,19.74563 12.20697,5.3985 28.17304,6.68804 40.59888,3.27906 z"
             id="path844" />
          <path
             style="fill:#cccccc;fill-opacity:1;fill-rule:evenodd;stroke-width:6.70686;stroke-linecap:round;stroke-linejoin:round"
             d="m 647.5107,158.90531 c -16.51865,-1.81964 -30.54148,-8.23357 -42.73114,-19.5449 -6.55132,-6.07926 -9.82539,-10.62092 -14.08319,-19.53561 -3.8515,-8.06402 -4.85679,-12.84989 -4.84198,-23.051396 0.0201,-13.908485 2.40912,-22.055336 9.74706,-33.239952 4.38379,-6.681841 15.5511,-16.863149 22.96059,-20.933305 7.07243,-3.885006 15.75425,-7.005408 23.22494,-8.347458 9.04092,-1.624132 25.82223,-1.017016 34.29294,1.240654 20.07805,5.351335 35.31276,17.321828 44.59438,35.039496 8.67565,16.560958 8.20325,36.831051 -1.25173,53.710171 -9.46597,16.89877 -28.04465,30.06979 -47.62145,33.76039 -6.38412,1.20353 -17.7285,1.62475 -24.29042,0.90191 z"
             id="path862" />
        </g>
      </g>
    </g>
  </g>
  <path
     style="fill:#aa87de;fill-rule:evenodd;stroke-width:8.52045;stroke-linecap:round;stroke-linejoin:round"
     d="m 356.66672,311.77776 c -10.08184,-1.16429 -17.9803,-5.29157 -25.2783,-13.20894 -13.01163,-14.11593 -14.72732,-33.3904 -4.36785,-49.06944 1.82765,-2.76612 4.62501,-6.24547 6.21635,-7.73187 4.18468,-3.9087 12.18983,-8.4561 17.06833,-9.69581 2.32225,-0.59011 4.22225,-1.28722 4.22225,-1.5491 0,-0.95418 16.78686,0.6442 20.31443,1.93427 12.48379,4.56546 22.2115,14.7019 26.02575,27.11929 2.55569,8.3201 2.01635,20.20821 -1.23375,27.19447 -8.12889,17.47344 -24.69828,27.11689 -42.96721,25.00713 z"
     id="path850" />
  <path
     style="fill:#aa87de;fill-rule:evenodd;stroke-width:7.83898;stroke-linecap:round;stroke-linejoin:round"
     d="m 141.37076,306.62701 c -9.93047,-2.60415 -20.18026,-10.22484 -24.80383,-18.44157 -4.26151,-7.57329 -5.76543,-18.083 -3.77025,-26.34724 4.47024,-18.51615 24.83568,-31.58951 44.33831,-28.46249 16.6801,2.67446 30.15937,15.69247 32.74717,31.62656 4.17287,25.69381 -22.38015,48.47737 -48.5114,41.62474 z"
     id="path848" />
  <g
     id="g12">
    <path
       d="m510.788 408.232-36.072-180.369c-8.855-44.281-48.057-76.42-93.211-76.42h-110.506v-15c0-8.271 6.728-15 15-15h59.386c25.123 0 45.562-20.439 45.562-45.562s-20.44-45.561-45.562-45.561h-209.334c-8.284 0-15 6.716-15 15s6.716 15 15 15h209.334c8.581 0 15.562 6.981 15.562 15.562s-6.981 15.562-15.562 15.562h-59.386c-24.813 0-44.999 20.186-44.999 44.999v15h-110.507c-45.155 0-84.357 32.14-93.211 76.42l-36.068 180.348c-7.608 38.045 21.506 73.469 60.228 73.469 26.465 0 49.878-16.867 58.259-41.971l16.059-48.101h240.566l15.99 48.055c8.363 25.131 31.777 42.017 58.261 42.017 38.786 0 67.802-35.49 60.211-73.448zm-60.21 43.449c-13.546 0-25.52-8.636-29.797-21.49l-19.405-58.317c-2.039-6.13-7.773-10.264-14.232-10.264h-262.189c-6.454 0-12.184 4.128-14.227 10.25l-19.481 58.35c-4.288 12.842-16.265 21.471-29.804 21.471-19.846 0-34.696-18.16-30.811-37.587l36.068-180.348c6.059-30.307 32.889-52.304 63.794-52.304h251.012c30.904 0 57.733 21.997 63.794 52.304l36.072 180.369c3.888 19.45-10.995 37.566-30.794 37.566z"
       id="path2"
       style="stroke:#000000;stroke-opacity:1" />
    <path
       d="m150.501 211.441c-32.808 0-59.499 26.691-59.499 59.499s26.691 59.499 59.499 59.499 59.499-26.691 59.499-59.499-26.691-59.499-59.499-59.499zm0 88.999c-16.266 0-29.499-13.233-29.499-29.499s13.233-29.499 29.499-29.499 29.499 13.233 29.499 29.499-13.233 29.499-29.499 29.499z"
       id="path4" />
    <path
       d="m361.497 211.441c-32.808 0-59.499 26.691-59.499 59.499s26.691 59.499 59.499 59.499 59.499-26.691 59.499-59.499-26.691-59.499-59.499-59.499zm0 88.999c-16.266 0-29.499-13.233-29.499-29.499s13.233-29.499 29.499-29.499 29.499 13.233 29.499 29.499-13.233 29.499-29.499 29.499z"
       id="path6" />
    <circle
       cx="232.999"
       cy="316.439"
       r="15"
       id="circle8" />
    <circle
       cx="277.998"
       cy="316.439"
       r="15"
       id="circle10" />
  </g>
</svg>
