<?xml version="1.0" encoding="iso-8859-1"?>
<!-- Generator: Adobe Illustrator 19.0.0, SVG Export Plug-In . SVG Version: 6.00 Build 0)  -->
<svg version="1.1" id="Capa_1" xmlns="http://www.w3.org/2000/svg" xmlns:xlink="http://www.w3.org/1999/xlink" x="0px" y="0px"
	 viewBox="0 0 495.177 495.177" style="enable-background:new 0 0 495.177 495.177;" xml:space="preserve">
<polygon style="fill:#FFCA19;" points="402.651,191.749 338.286,165.418 338.286,46.926 402.651,17.669 "/>
<g>
	<polygon style="fill:#77C587;" points="437.76,477.006 57.417,477.006 57.417,213.692 247.589,48.389 437.76,213.692 	"/>
	<polygon style="fill:#77C587;" points="437.76,477.006 57.417,477.006 57.417,213.692 247.589,48.389 437.76,213.692 	"/>
	<polygon style="fill:#77C587;" points="437.76,477.006 57.417,477.006 57.417,213.692 247.589,48.389 437.76,213.692 	"/>
</g>
<path style="fill:#FFCA19;" d="M377.783,477.006H273.92V355.589c0-29.257,23.406-51.2,51.2-51.2l0,0c29.257,0,51.2,23.406,51.2,51.2
	v121.417H377.783z"/>
<g style="opacity:0.1;">
	<polygon style="fill:#030303;" points="437.76,213.692 437.76,314.629 247.589,128.846 57.417,314.629 57.417,213.692 
		247.589,48.389 	"/>
</g>
<g>
	<path style="fill:#030303;" d="M402.651,206.378c-1.463,0-2.926,0-5.851-1.463l-64.366-26.331
		c-5.851-2.926-8.777-7.314-8.777-13.166V46.926c0-5.851,2.926-10.24,8.777-13.166L396.8,4.503
		c4.389-1.463,10.24-1.463,13.166,1.463c4.389,2.926,7.314,7.314,7.314,11.703v174.08c0,4.389-2.926,8.777-5.851,11.703
		C408.503,204.915,405.577,206.378,402.651,206.378z M351.451,156.64l36.571,14.629V39.612l-36.571,16.091V156.64z"/>
	<path style="fill:#030303;" d="M437.76,491.635H57.417c-7.314,0-14.629-5.851-14.629-14.629V238.56
		c0-4.389,1.463-7.314,4.389-10.24L237.349,38.149c5.851-5.851,14.629-5.851,20.48,0L448,228.32
		c2.926,2.926,4.389,5.851,4.389,10.24v238.446C452.389,485.783,445.074,491.635,437.76,491.635z M72.046,462.378h351.086V244.412
		L247.589,68.869L72.046,244.412V462.378z"/>
</g>
<path style="fill:#F15E75;" d="M434.834,272.206L247.589,84.96L60.343,272.206c-11.703,11.703-27.794,11.703-39.497,0
	c-10.24-10.24-10.24-27.794,0-38.034L228.571,26.446c10.24-10.24,27.794-10.24,38.034,0l207.726,207.726
	c10.24,10.24,10.24,27.794,0,38.034C462.629,283.909,446.537,283.909,434.834,272.206z"/>
<path style="fill:#030303;" d="M424.594,282.446L247.589,105.44L70.583,282.446c-16.091,16.091-43.886,16.091-58.514,0
	c-16.091-16.091-16.091-42.423,0-58.514L218.331,16.206c16.091-16.091,43.886-16.091,58.514,0l206.263,206.263
	c16.091,16.091,16.091,42.423,0,58.514C467.017,298.538,440.686,298.538,424.594,282.446z M247.589,70.332
	c4.389,0,7.314,1.463,10.24,4.389l187.246,187.246c4.389,4.389,13.166,4.389,17.554,0c4.389-4.389,4.389-13.166,0-17.554
	L256.366,36.686c-4.389-4.389-13.166-4.389-17.554,0L31.086,244.412c-4.389,4.389-4.389,13.166,0,17.554s13.166,4.389,17.554,0
	L237.349,74.72C240.274,71.795,243.2,70.332,247.589,70.332z"/>
<rect x="115.931" y="304.389" style="fill:#FFFFFF;" width="103.863" height="103.863"/>
<g>
	<path style="fill:#030303;" d="M464.091,491.635H31.086c-7.314,0-14.629-5.851-14.629-14.629c0-7.314,5.851-14.629,14.629-14.629
		h433.006c7.314,0,14.629,5.851,14.629,14.629C478.72,485.783,471.406,491.635,464.091,491.635z"/>
	<path style="fill:#030303;" d="M219.794,421.418H115.931c-7.314,0-14.629-5.851-14.629-14.629V302.926
		c0-7.314,5.851-14.629,14.629-14.629h103.863c7.314,0,14.629,5.851,14.629,14.629v103.863
		C234.423,415.566,227.109,421.418,219.794,421.418z M130.56,393.623h74.606v-74.606H130.56V393.623z"/>
	<path style="fill:#030303;" d="M377.783,491.635H273.92c-7.314,0-14.629-5.851-14.629-14.629V355.589
		c0-36.571,29.257-65.829,65.829-65.829s65.829,29.257,65.829,65.829v121.417C392.411,485.783,385.097,491.635,377.783,491.635z
		 M288.549,462.378h74.606V355.589c0-20.48-16.091-36.571-36.571-36.571c-20.48,0-36.571,16.091-36.571,36.571v106.789H288.549z"/>
</g>
<g>
</g>
<g>
</g>
<g>
</g>
<g>
</g>
<g>
</g>
<g>
</g>
<g>
</g>
<g>
</g>
<g>
</g>
<g>
</g>
<g>
</g>
<g>
</g>
<g>
</g>
<g>
</g>
<g>
</g>
</svg>
