<?xml version="1.0" encoding="iso-8859-1"?>
<!-- Generator: Adobe Illustrator 19.0.0, SVG Export Plug-In . SVG Version: 6.00 Build 0)  -->
<svg version="1.1" id="Capa_1" xmlns="http://www.w3.org/2000/svg" xmlns:xlink="http://www.w3.org/1999/xlink" x="0px" y="0px"
	 viewBox="0 0 498.834 498.834" style="enable-background:new 0 0 498.834 498.834;" xml:space="preserve">
<path style="fill:#F6E272;" d="M188.759,370.103h122.88c4.389-39.497,21.943-76.069,48.274-105.326
	c24.869-26.331,39.497-61.44,39.497-100.937c-1.463-81.92-68.754-149.211-152.137-147.749
	c-77.531,1.463-143.36,65.829-144.823,144.823c-1.463,38.034,13.166,73.143,36.571,100.937
	C165.353,292.571,182.907,330.606,188.759,370.103z"/>
<path style="fill:#FFCA19;" d="M158.039,239.909c-1.463,38.034,13.166,73.143,35.109,100.937
	c8.777,8.777,16.091,19.017,21.943,29.257h-27.794c-5.851-40.96-24.869-77.531-51.2-109.714
	c-23.406-26.331-36.571-61.44-35.109-100.937c2.926-77.531,68.754-141.897,146.286-143.36
	c68.754-1.463,127.269,43.886,144.823,106.789c-24.869-17.554-55.589-27.794-87.771-27.794
	C226.793,96.549,160.964,162.377,158.039,239.909z"/>
<path d="M311.639,384.731h-122.88c-7.314,0-13.166-5.851-14.629-13.166c-4.389-36.571-21.943-71.68-48.274-102.4
	s-40.96-70.217-39.497-109.714C87.821,73.143,160.964,1.463,247.273,0h2.926c89.234,0,162.377,73.143,162.377,162.377
	c0,40.96-14.629,80.457-42.423,109.714c-24.869,26.331-39.497,59.977-43.886,98.011
	C324.804,380.343,318.953,384.731,311.639,384.731z M201.924,355.474h98.011c7.314-38.034,24.869-73.143,49.737-100.937
	c23.406-24.869,35.109-57.051,35.109-90.697c0-73.143-59.977-133.12-133.12-133.12h-1.463
	c-70.217,1.463-130.194,59.977-131.657,130.194c-1.463,33.646,10.24,65.829,32.183,90.697
	C175.593,282.331,193.147,318.903,201.924,355.474z"/>
<polygon style="fill:#FFCA19;" points="283.844,370.103 216.553,370.103 216.553,238.446 250.199,147.749 283.844,238.446 "/>
<path style="fill:#A5C3D1;" d="M304.324,438.857l1.463-5.851h-112.64l1.463,5.851c8.777,26.331,29.257,45.349,54.126,45.349l0,0
	C275.067,484.206,297.01,466.651,304.324,438.857z"/>
<path d="M283.844,384.731h-67.291c-8.777,0-14.629-5.851-14.629-14.629V238.446c0-1.463,0-2.926,1.463-4.389l33.646-90.697
	c1.463-5.851,7.314-10.24,13.166-10.24s11.703,4.389,13.166,10.24l33.646,90.697c0,1.463,1.463,2.926,1.463,4.389v131.657
	C298.473,378.88,291.159,384.731,283.844,384.731z M231.181,355.474h38.034V239.909l-19.017-51.2l-19.017,51.2L231.181,355.474
	L231.181,355.474z"/>
<path style="fill:#A5C3D1;" d="M337.97,370.103H162.427c-17.554,0-30.72,14.629-30.72,30.72c0,17.554,14.629,30.72,30.72,30.72
	h177.006c17.554,0,30.72-14.629,30.72-30.72S355.524,370.103,337.97,370.103z"/>
<path d="M337.97,447.634H162.427c-24.869,0-45.349-20.48-45.349-45.349c0-24.869,20.48-45.349,45.349-45.349h177.006
	c24.869,0,45.349,20.48,45.349,45.349C384.781,427.154,364.301,447.634,337.97,447.634z M162.427,384.731
	c-8.777,0-16.091,7.314-16.091,16.091c0,8.777,7.314,16.091,16.091,16.091h177.006c8.777,0,16.091-7.314,16.091-16.091
	c0-8.777-7.314-16.091-16.091-16.091H162.427z"/>
<path d="M250.199,498.834c-30.72,0-58.514-21.943-68.754-55.589l-1.463-5.851c-1.463-4.389,0-8.777,2.926-13.166
	s7.314-5.851,11.703-5.851h112.64c4.389,0,8.777,1.463,11.703,5.851c2.926,4.389,2.926,8.777,2.926,13.166l-1.463,5.851
	C308.713,476.891,280.919,498.834,250.199,498.834z M215.09,447.634c7.314,13.166,20.48,21.943,35.109,21.943
	s26.331-8.777,35.109-21.943H215.09z"/>
<g>
</g>
<g>
</g>
<g>
</g>
<g>
</g>
<g>
</g>
<g>
</g>
<g>
</g>
<g>
</g>
<g>
</g>
<g>
</g>
<g>
</g>
<g>
</g>
<g>
</g>
<g>
</g>
<g>
</g>
</svg>
