<?xml version="1.0" encoding="UTF-8" standalone="no"?>
<svg
   xmlns:dc="http://purl.org/dc/elements/1.1/"
   xmlns:cc="http://creativecommons.org/ns#"
   xmlns:rdf="http://www.w3.org/1999/02/22-rdf-syntax-ns#"
   xmlns:svg="http://www.w3.org/2000/svg"
   xmlns="http://www.w3.org/2000/svg"
   xmlns:sodipodi="http://sodipodi.sourceforge.net/DTD/sodipodi-0.dtd"
   xmlns:inkscape="http://www.inkscape.org/namespaces/inkscape"
   version="1.1"
   id="Capa_1"
   x="0px"
   y="0px"
   width="598.159px"
   height="598.159px"
   viewBox="0 0 598.159 598.159"
   style="enable-background:new 0 0 598.159 598.159;"
   xml:space="preserve"
   sodipodi:docname="leaf.svg"
   inkscape:version="1.0.1 (3bc2e813f5, 2020-09-07)"><metadata
   id="metadata45"><rdf:RDF><cc:Work
       rdf:about=""><dc:format>image/svg+xml</dc:format><dc:type
         rdf:resource="http://purl.org/dc/dcmitype/StillImage" /></cc:Work></rdf:RDF></metadata><defs
   id="defs43" /><sodipodi:namedview
   pagecolor="#ffffff"
   bordercolor="#666666"
   borderopacity="1"
   objecttolerance="10"
   gridtolerance="10"
   guidetolerance="10"
   inkscape:pageopacity="0"
   inkscape:pageshadow="2"
   inkscape:window-width="1920"
   inkscape:window-height="1027"
   id="namedview41"
   showgrid="false"
   inkscape:zoom="1.4377448"
   inkscape:cx="337.8424"
   inkscape:cy="299.0795"
   inkscape:window-x="-8"
   inkscape:window-y="-8"
   inkscape:window-maximized="1"
   inkscape:current-layer="Capa_1" />
<path
   style="fill:#abc837;fill-rule:evenodd;stroke-width:7.21337;stroke-linecap:round;stroke-linejoin:round"
   d="M 51.597803,572.80934 C 45.784749,571.14163 40.570078,569.18065 39.088726,568.10531 33.58932,564.11317 31.689934,555.82139 34.923248,549.92094 38.060984,544.19487 69.634,502.30871 90.149807,476.65492 124.9789,433.1032 146.86539,409.24498 175.164,383.98192 225.5462,339.00416 276.55619,306.1601 332.98613,282.36423 c 9.98581,-4.21089 30.71827,-11.79081 39.30642,-14.37067 7.50984,-2.25592 11.59207,-4.51897 14.81071,-8.2105 4.23385,-4.85588 5.63715,-8.82355 5.49656,-15.54061 -0.1477,-7.05651 -1.99713,-11.34415 -6.97892,-16.17966 -7.14152,-6.93182 -15.07617,-7.95411 -28.61805,-3.68715 -92.05788,29.00678 -180.58625,87.13005 -258.300095,169.58684 -5.616075,5.95882 -10.436977,10.58903 -10.713121,10.28934 -1.141891,-1.23919 -7.58487,-16.68763 -9.449597,-22.65744 -5.721855,-18.3182 -7.954335,-34.6214 -7.925522,-57.878 0.03396,-27.41692 4.002192,-49.44092 13.566776,-75.29682 12.123772,-32.7742 29.930699,-60.93219 54.838439,-86.71574 28.19103,-29.18228 56.17337,-46.91421 95.39939,-60.45294 36.75326,-12.685262 75.95308,-19.384328 146.72338,-25.074325 56.34089,-4.529858 97.8179,-12.728675 142.35101,-28.138704 6.61473,-2.28893 13.26912,-4.187205 14.78749,-4.218392 3.67397,-0.07546 8.56984,2.242044 11.22838,5.315041 3.82538,4.421738 4.10228,7.087051 2.31712,22.302908 -9.84597,83.921992 -22.97503,152.670152 -40.82237,213.759082 -8.56935,29.33177 -14.47226,45.51018 -24.24005,66.43598 -31.688,67.88583 -82.71908,119.50959 -142.83756,144.49635 -42.89496,17.82821 -90.98081,22.07122 -135.04453,11.91605 -17.35444,-3.9996 -29.58115,-8.69484 -44.66997,-17.15392 -12.79071,-7.17073 -14.52591,-7.79799 -20.03954,-7.24399 -3.2989,0.33145 -5.38122,1.0041 -7.39466,2.38863 -7.46079,5.13039 -33.71373,40.88203 -52.351962,71.29366 -7.969277,13.00332 -9.550493,14.98464 -13.480867,16.8921 -4.241612,2.0585 -8.276667,1.76402 -19.347188,-1.41201 z"
   id="path906-6-4" /><path
   style="fill:#abc837;fill-rule:evenodd;stroke-width:7.4706;stroke-linecap:round;stroke-linejoin:round"
   d="m 52.105581,561.56634 c -5.954783,-1.85918 -11.286566,-4.01067 -12.790008,-5.16103 -5.581408,-4.27065 -7.360001,-12.9374 -3.900571,-19.00671 3.357168,-5.88994 36.798856,-48.79061 58.495187,-75.04058 36.833231,-44.56382 59.903401,-68.9165 89.612011,-94.59368 52.89256,-45.71504 106.17036,-78.79363 164.83862,-102.34333 10.3819,-4.16733 31.91164,-11.60992 40.81798,-14.1103 7.78807,-2.18643 12.0439,-4.45351 15.44057,-8.22514 4.46801,-4.96124 5.9998,-9.05892 5.9998,-16.04988 0,-7.34423 -1.81348,-11.84429 -6.84326,-16.98126 -7.21031,-7.36396 -15.36547,-8.59703 -29.41335,-4.44736 -95.49774,28.20946 -187.98613,86.78502 -269.85426,170.90649 -5.916293,6.07913 -10.984446,10.79305 -11.262569,10.47538 -1.150064,-1.31357 -7.456779,-17.52268 -9.249733,-23.77309 -5.501643,-19.17919 -7.450702,-36.18755 -6.919356,-60.38142 0.626397,-28.52185 5.190995,-51.34922 15.605688,-78.04346 13.20134,-33.83684 32.16,-62.74987 58.3853,-89.04098 29.68229,-29.75674 58.90252,-47.605832 99.6197,-60.852361 38.15041,-12.411486 78.69306,-18.543086 151.74951,-22.950327 58.16092,-3.508643 101.08272,-11.151817 147.30958,-26.23171 6.86632,-2.239893 13.76507,-4.07253 15.33053,-4.07253 3.78791,0 8.78346,2.515581 11.45698,5.769311 3.84694,4.681797 4.07481,7.460512 1.90687,23.251841 -11.95718,87.095976 -26.97051,158.336026 -46.68114,221.507156 -9.46401,30.33154 -15.89635,47.03625 -26.41411,68.59722 -34.121,69.94639 -87.82563,122.56157 -150.32087,147.27137 -44.5908,17.6306 -94.23813,21.01722 -139.42981,9.51097 -17.7987,-4.53173 -30.29789,-9.67758 -45.6655,-18.80021 -13.02705,-7.73322 -14.80176,-8.42285 -20.49589,-7.96432 -3.4069,0.27432 -5.56738,0.9296 -7.67224,2.32694 -7.79952,5.17787 -35.62617,41.81031 -55.490153,73.0501 -8.493381,13.35742 -10.165672,15.38486 -14.25734,17.28526 -4.415679,2.05088 -8.567732,1.6583 -19.908166,-1.88236 z"
   id="path906-6" /><g
   id="g8">
	<g
   id="g6">
		<path
   d="M539.556,2.786c-6.631,0-13.186,1.132-19.479,3.365c-21.651,7.68-66.878,21.083-126.517,24.561    c-30.248,1.764-59.896,3.711-90.073,8.12c-35.743,5.222-66.482,13.188-93.973,24.354C146.475,88.792,97.096,136.6,66.715,201.443    c-13.95,29.776-22.789,62.334-25.56,94.156c-3.034,34.838,0.913,68.237,11.729,99.272l11.207,36.734    c-16.499,20-33.621,41.768-51.832,65.865c-11.493,15.211-14.804,35.102-8.854,53.213c5.948,18.104,20.403,32.152,38.669,37.582    l15.804,4.695c5.386,1.602,10.959,2.412,16.567,2.412c9.752,0,19.428-2.482,27.98-7.176c8.717-4.785,16.104-11.777,21.364-20.221    c6.491-10.424,20.846-32.82,36.21-52.566c1.844,1.016,3.395,1.83,4.456,2.322c13.873,6.426,28.651,11.477,43.922,15.01    c17.73,4.104,36.264,6.184,55.087,6.184c12.539,0,25.305-0.928,37.943-2.76c27.77-4.027,55.207-12.486,81.55-25.145    c25.405-12.209,49.02-27.938,70.186-46.752c3.767-3.348,7.488-6.867,11.064-10.465c17.523-17.631,32.534-37.904,45.889-61.977    c10.683-19.256,20.052-40.385,29.483-66.492c13.431-37.177,24.671-76.668,34.361-120.732    c8.031-36.514,14.986-76.283,21.263-121.579c0.805-5.81,1.411-10.287,1.965-14.518c2.173-16.602-2.901-33.328-13.923-45.887    C572.181,10.015,556.257,2.786,539.556,2.786z M554.688,62.948c-0.62,4.737-1.267,9.469-1.922,14.198    c-10.938,78.941-26.349,158.53-53.48,233.634c-37.82,104.686-128.766,191.369-246.206,185.016    c-24.303-1.312-48.499-6.688-70.624-16.938c-1.662-0.77-12.404-7.033-20.771-12.059c-2.448-1.469-5.17-2.184-7.871-2.184    c-4.174,0-8.298,1.707-11.278,4.963c-21.926,23.961-44.584,58.842-55.114,75.748c-2.845,4.568-7.801,7.207-12.981,7.207    c-1.449,0-2.918-0.207-4.361-0.635l-15.805-4.697c-10.241-3.045-14.282-15.379-7.841-23.902    c36.263-47.986,69.557-88.602,104.492-125.664c7.016-6.955,14.694-14.248,23.013-21.723c28.33-25.457,58.238-47.787,88.895-66.371    c38.086-23.089,77.424-40.415,116.92-51.496c11.39-3.196,18.033-15.02,14.838-26.41c-3.197-11.39-15.021-18.034-26.41-14.838    c-43.234,12.13-86.15,31.007-127.556,56.108c-32.937,19.966-65.008,43.9-95.32,71.141c-18,16.174-33.198,31.541-45.415,44.775    c-0.022,0.023-6.835-15.932-7.177-16.973c-33.48-102.291,27.968-220.264,123.059-264.66    c55.948-26.122,119.567-30.17,180.278-33.711c63.209-3.685,111.617-17.473,138.346-26.954c1.731-0.614,3.467-0.899,5.157-0.899    C548.386,45.626,555.935,53.43,554.688,62.948z"
   id="path2" />
		<path
   d="M74.443,595.874c-5.658,0-11.28-0.818-16.709-2.433l-15.804-4.695c-18.423-5.477-33.003-19.646-39.002-37.905    c-6-18.266-2.661-38.329,8.931-53.671c18.329-24.252,35.234-45.738,51.674-65.675l-11.128-36.478    c-10.833-31.084-14.788-64.554-11.749-99.461c2.776-31.878,11.63-64.495,25.605-94.325    c30.435-64.959,79.905-112.855,143.063-138.51c27.527-11.181,58.303-19.158,94.088-24.385c30.192-4.411,59.855-6.36,90.116-8.124    c59.577-3.474,104.753-16.862,126.379-24.533c6.349-2.252,12.958-3.394,19.646-3.394c16.846,0,32.906,7.292,44.063,20.005    c11.116,12.667,16.234,29.536,14.043,46.281c-0.554,4.231-1.161,8.71-1.966,14.521c-6.278,45.309-13.235,85.09-21.27,121.618    c-9.694,44.081-20.939,83.593-34.379,120.795c-9.44,26.132-18.82,47.283-29.517,66.564    c-13.378,24.114-28.415,44.423-45.972,62.087c-3.579,3.601-7.31,7.129-11.087,10.486c-21.197,18.842-44.85,34.598-70.301,46.829    c-26.386,12.679-53.872,21.153-81.695,25.188c-12.656,1.834-25.446,2.765-38.015,2.765c-18.863,0-37.435-2.085-55.2-6.196    c-15.302-3.541-30.113-8.603-44.019-15.043c-0.949-0.44-2.332-1.157-4.113-2.133c-15.031,19.36-28.941,40.982-35.919,52.188    c-5.305,8.516-12.756,15.568-21.547,20.395C94.036,593.371,84.278,595.874,74.443,595.874z M539.556,3.286    c-6.574,0-13.071,1.123-19.312,3.336c-21.676,7.689-66.954,21.108-126.654,24.589c-30.238,1.763-59.878,3.71-90.03,8.115    c-35.705,5.216-66.405,13.172-93.857,24.323c-62.92,25.558-112.208,73.28-142.534,138.007    c-13.926,29.725-22.749,62.225-25.515,93.988c-3.027,34.766,0.91,68.096,11.703,99.064l11.291,37.01l-0.171,0.207    c-16.485,19.983-33.435,41.522-51.819,65.849c-11.394,15.08-14.676,34.802-8.778,52.755c5.896,17.947,20.228,31.876,38.337,37.259    l15.804,4.695c5.336,1.587,10.862,2.392,16.424,2.392c9.667,0,19.259-2.46,27.739-7.114c8.642-4.743,15.965-11.676,21.18-20.047    c7.028-11.286,21.082-33.128,36.24-52.608l0.262-0.337l0.374,0.206c1.943,1.069,3.432,1.846,4.425,2.306    c13.844,6.413,28.589,11.451,43.824,14.977c17.691,4.095,36.188,6.171,54.974,6.171c12.521,0,25.262-0.927,37.872-2.755    c27.722-4.021,55.11-12.465,81.404-25.101c25.367-12.19,48.942-27.894,70.07-46.675c3.762-3.343,7.477-6.856,11.042-10.443    c17.49-17.598,32.474-37.835,45.806-61.866c10.671-19.234,20.028-40.34,29.451-66.42c13.424-37.16,24.658-76.632,34.343-120.67    c8.028-36.501,14.981-76.258,21.256-121.541c0.805-5.808,1.411-10.284,1.964-14.514c2.154-16.46-2.876-33.042-13.803-45.492    C571.899,10.453,556.113,3.286,539.556,3.286z M74.443,553.034c-1.521,0-3.036-0.221-4.503-0.655l-15.805-4.697    c-5.037-1.498-8.866-5.221-10.506-10.213c-1.642-4.998-0.764-10.272,2.409-14.471c38.518-50.97,71.732-90.913,104.527-125.705    c7.485-7.421,15.234-14.735,23.043-21.752c28.352-25.478,58.286-47.826,88.97-66.427c38.124-23.112,77.503-40.456,117.045-51.549    c11.106-3.116,17.606-14.687,14.491-25.793c-2.524-8.994-10.803-15.275-20.132-15.275c-1.905,0-3.81,0.264-5.662,0.783    c-43.19,12.118-86.065,30.977-127.432,56.055c-32.917,19.955-64.962,43.871-95.245,71.085    c-15.867,14.257-31.136,29.311-45.382,44.742l-0.147,0.16l-0.218,0.001c-0.374-0.018-0.366-0.001-3.935-8.4    c-1.302-3.064-3.516-8.297-3.719-8.916c-15.936-48.688-11.198-103.526,13.34-154.414c23.534-48.805,63.621-89.21,109.982-110.855    c56.863-26.549,122.527-30.378,180.46-33.757c61.619-3.592,109.169-16.625,138.208-26.926c1.737-0.616,3.528-0.928,5.324-0.928    c4.516,0,8.84,1.977,11.865,5.424c3.027,3.45,4.364,7.876,3.764,12.463c-0.621,4.738-1.268,9.472-1.923,14.202    c-13.131,94.767-30.133,169.038-53.506,233.735c-18.677,51.698-50.303,98.144-89.053,130.78    c-42.638,35.912-92.957,54.894-145.519,54.894c-4.012,0-8.093-0.11-12.131-0.329c-25.649-1.385-49.472-7.099-70.807-16.982    c-1.721-0.797-12.604-7.15-20.818-12.084c-2.303-1.382-4.937-2.112-7.614-2.112c-4.141,0-8.117,1.75-10.909,4.801    c-21.595,23.599-43.765,57.542-55.058,75.675C84.946,550.251,79.935,553.034,74.443,553.034z M373.98,215.497    c9.775,0,18.449,6.581,21.095,16.004c3.265,11.637-3.547,23.761-15.185,27.026c-39.454,11.069-78.75,28.377-116.796,51.442    c-30.631,18.567-60.514,40.88-88.82,66.315c-7.796,7.005-15.533,14.309-22.995,21.706c-32.758,34.753-65.95,74.67-104.445,125.61    c-2.972,3.933-3.794,8.873-2.256,13.555c1.536,4.677,5.123,8.164,9.841,9.566l15.805,4.697c1.375,0.407,2.794,0.614,4.219,0.614    c5.144,0,9.838-2.606,12.557-6.972c11.311-18.161,33.52-52.162,55.169-75.821c2.98-3.257,7.226-5.125,11.646-5.125    c2.859,0,5.669,0.779,8.128,2.255c8.025,4.82,19.058,11.263,20.723,12.033c21.219,9.831,44.919,15.514,70.44,16.893    c4.02,0.217,8.083,0.327,12.077,0.327c52.323,0,102.42-18.9,144.874-54.658c38.617-32.525,70.139-78.82,88.757-130.355    c23.349-64.63,40.334-138.837,53.456-233.533c0.655-4.727,1.301-9.458,1.921-14.194c0.562-4.297-0.688-8.443-3.523-11.673    c-2.835-3.23-6.886-5.083-11.113-5.083c-1.682,0-3.36,0.293-4.99,0.871c-29.101,10.322-76.748,23.382-138.483,26.981    c-57.845,3.374-123.406,7.197-180.096,33.665c-46.156,21.55-86.069,61.783-109.504,110.384    C82.056,268.68,77.336,323.253,93.191,371.695c0.276,0.841,5.515,13.166,6.849,16.231c14.12-15.26,29.235-30.146,44.934-44.251    c30.329-27.256,62.424-51.209,95.395-71.196c41.444-25.124,84.402-44.02,127.681-56.162    C369.988,215.772,371.984,215.497,373.98,215.497z"
   id="path4" />
	</g>
</g>
<g
   id="g10">
</g>
<g
   id="g12">
</g>
<g
   id="g14">
</g>
<g
   id="g16">
</g>
<g
   id="g18">
</g>
<g
   id="g20">
</g>
<g
   id="g22">
</g>
<g
   id="g24">
</g>
<g
   id="g26">
</g>
<g
   id="g28">
</g>
<g
   id="g30">
</g>
<g
   id="g32">
</g>
<g
   id="g34">
</g>
<g
   id="g36">
</g>
<g
   id="g38">
</g>
</svg>
