<?xml version="1.0" encoding="UTF-8" standalone="no"?>
<svg
   xmlns:dc="http://purl.org/dc/elements/1.1/"
   xmlns:cc="http://creativecommons.org/ns#"
   xmlns:rdf="http://www.w3.org/1999/02/22-rdf-syntax-ns#"
   xmlns:svg="http://www.w3.org/2000/svg"
   xmlns="http://www.w3.org/2000/svg"
   xmlns:sodipodi="http://sodipodi.sourceforge.net/DTD/sodipodi-0.dtd"
   xmlns:inkscape="http://www.inkscape.org/namespaces/inkscape"
   viewBox="0 -28 512.001 512"
   version="1.1"
   id="svg4"
   sodipodi:docname="love.svg"
   inkscape:version="1.0.1 (3bc2e813f5, 2020-09-07)">
  <metadata
     id="metadata10">
    <rdf:RDF>
      <cc:Work
         rdf:about="">
        <dc:format>image/svg+xml</dc:format>
        <dc:type
           rdf:resource="http://purl.org/dc/dcmitype/StillImage" />
      </cc:Work>
    </rdf:RDF>
  </metadata>
  <defs
     id="defs8" />
  <sodipodi:namedview
     pagecolor="#ffffff"
     bordercolor="#666666"
     borderopacity="1"
     objecttolerance="10"
     gridtolerance="10"
     guidetolerance="10"
     inkscape:pageopacity="0"
     inkscape:pageshadow="2"
     inkscape:window-width="1920"
     inkscape:window-height="1027"
     id="namedview6"
     showgrid="false"
     inkscape:zoom="1.6796875"
     inkscape:cx="256.00049"
     inkscape:cy="256"
     inkscape:window-x="-8"
     inkscape:window-y="-8"
     inkscape:window-maximized="1"
     inkscape:current-layer="svg4" />
  <path
     style="fill:#ff5555;fill-rule:evenodd;stroke-width:6.39153;stroke-linecap:round;stroke-linejoin:round"
     d="M 253.14023,434.50544 C 251.41226,432.85108 234.30543,417.5955 215.12502,400.60409 153.97353,346.43166 144.36539,337.81342 125.89923,320.57097 109.60476,305.35632 85.378397,280.67735 75.130167,268.85344 33.998849,221.39808 17.19529,181.95226 18.631537,136.22472 c 0.406658,-12.94724 1.634234,-22.07141 4.570946,-33.97436 9.761399,-39.564393 34.690781,-70.988054 68.292919,-86.083698 6.986891,-3.138837 17.969158,-6.4803175 26.549438,-8.0779765 8.69941,-1.619842 29.07938,-1.689329 37.0727,-0.126405 17.27939,3.3786235 31.71019,9.8930285 45.59127,20.5809625 13.25002,10.202036 23.07241,21.259526 34.31801,38.633252 3.65577,5.64792 7.54584,10.978418 8.64462,11.845558 5.33063,4.206874 12.2495,5.728709 18.07652,3.976007 6.4952,-1.953691 8.91937,-4.271609 16.19365,-15.483854 7.90666,-12.186971 15.22631,-21.459459 22.57169,-28.593661 23.47086,-22.796077 49.66292,-33.4062395 79.50183,-32.2054615 14.61125,0.587987 26.83205,3.231794 39.48805,8.5427215 13.68016,5.740701 25.23267,13.618838 36.18942,24.679064 10.85963,10.962199 18.21239,21.529603 24.9267,35.824766 8.80429,18.744807 13.1597,37.565075 13.91724,60.138015 1.53921,45.86476 -15.23439,85.35611 -56.47092,132.95379 -4.33704,5.00609 -14.91962,16.27392 -23.5168,25.03965 -22.8402,23.28796 -40.97505,39.98046 -101.71529,93.62545 -15.55167,13.73504 -34.57765,30.61437 -42.27993,37.50961 -7.70228,6.89525 -14.06433,12.5252 -14.13788,12.51099 -0.0735,-0.0142 -1.54753,-1.37936 -3.27549,-3.0337 z"
     id="path835" />
  <path
     d="m256 455.515625c-7.289062 0-14.316406-2.640625-19.792969-7.4375-20.683593-18.085937-40.625-35.082031-58.21875-50.074219l-.089843-.078125c-51.582032-43.957031-96.125-81.917969-127.117188-119.3125-34.644531-41.804687-50.78125-81.441406-50.78125-124.742187 0-42.070313 14.425781-80.882813 40.617188-109.292969 26.503906-28.746094 62.871093-44.578125 102.414062-44.578125 29.554688 0 56.621094 9.34375 80.445312 27.769531 12.023438 9.300781 22.921876 20.683594 32.523438 33.960938 9.605469-13.277344 20.5-24.660157 32.527344-33.960938 23.824218-18.425781 50.890625-27.769531 80.445312-27.769531 39.539063 0 75.910156 15.832031 102.414063 44.578125 26.191406 28.410156 40.613281 67.222656 40.613281 109.292969 0 43.300781-16.132812 82.9375-50.777344 124.738281-30.992187 37.398437-75.53125 75.355469-127.105468 119.308594-17.625 15.015625-37.597657 32.039062-58.328126 50.167969-5.472656 4.789062-12.503906 7.429687-19.789062 7.429687zm-112.96875-425.523437c-31.066406 0-59.605469 12.398437-80.367188 34.914062-21.070312 22.855469-32.675781 54.449219-32.675781 88.964844 0 36.417968 13.535157 68.988281 43.882813 105.605468 29.332031 35.394532 72.960937 72.574219 123.476562 115.625l.09375.078126c17.660156 15.050781 37.679688 32.113281 58.515625 50.332031 20.960938-18.253907 41.011719-35.34375 58.707031-50.417969 50.511719-43.050781 94.136719-80.222656 123.46875-115.617188 30.34375-36.617187 43.878907-69.1875 43.878907-105.605468 0-34.515625-11.605469-66.109375-32.675781-88.964844-20.757813-22.515625-49.300782-34.914062-80.363282-34.914062-22.757812 0-43.652344 7.234374-62.101562 21.5-16.441406 12.71875-27.894532 28.796874-34.609375 40.046874-3.453125 5.785157-9.53125 9.238282-16.261719 9.238282s-12.808594-3.453125-16.261719-9.238282c-6.710937-11.25-18.164062-27.328124-34.609375-40.046874-18.449218-14.265626-39.34375-21.5-62.097656-21.5zm0 0"
     id="path2" />
</svg>
