<?xml version="1.0" encoding="UTF-8" standalone="no"?>
<svg
   xmlns:dc="http://purl.org/dc/elements/1.1/"
   xmlns:cc="http://creativecommons.org/ns#"
   xmlns:rdf="http://www.w3.org/1999/02/22-rdf-syntax-ns#"
   xmlns:svg="http://www.w3.org/2000/svg"
   xmlns="http://www.w3.org/2000/svg"
   xmlns:sodipodi="http://sodipodi.sourceforge.net/DTD/sodipodi-0.dtd"
   xmlns:inkscape="http://www.inkscape.org/namespaces/inkscape"
   id="Layer_1"
   enable-background="new 0 0 512 512"
   height="512"
   viewBox="0 0 512 512"
   width="512"
   version="1.1"
   sodipodi:docname="memo.svg"
   inkscape:version="1.0.1 (3bc2e813f5, 2020-09-07)">
  <metadata
     id="metadata19">
    <rdf:RDF>
      <cc:Work
         rdf:about="">
        <dc:format>image/svg+xml</dc:format>
        <dc:type
           rdf:resource="http://purl.org/dc/dcmitype/StillImage" />
      </cc:Work>
    </rdf:RDF>
  </metadata>
  <defs
     id="defs17" />
  <sodipodi:namedview
     pagecolor="#ffffff"
     bordercolor="#666666"
     borderopacity="1"
     objecttolerance="10"
     gridtolerance="10"
     guidetolerance="10"
     inkscape:pageopacity="0"
     inkscape:pageshadow="2"
     inkscape:window-width="1920"
     inkscape:window-height="1027"
     id="namedview15"
     showgrid="false"
     inkscape:zoom="1.6796875"
     inkscape:cx="207.13567"
     inkscape:cy="256"
     inkscape:window-x="-8"
     inkscape:window-y="-8"
     inkscape:window-maximized="1"
     inkscape:current-layer="Layer_1" />
  <path
     style="fill:#ff5555;fill-rule:evenodd;stroke-width:7.50576;stroke-linecap:round;stroke-linejoin:round"
     d="m 244.60882,112.61642 c -14.14269,-2.72416 -28.36156,-12.735387 -34.7741,-24.483771 -7.44146,-13.633493 -7.43889,-26.905326 0.008,-40.516059 4.28434,-7.830667 13.34777,-16.18327 21.84696,-20.133556 20.61308,-9.580617 43.60112,-6.381281 60.15418,8.371898 16.08818,14.338849 19.74494,34.017787 9.71265,52.268906 -4.6478,8.455406 -13.44892,16.348612 -22.87691,20.516932 -10.98767,4.85787 -22.51014,6.20241 -34.07065,3.97565 z"
     id="path846" />
  <path
     style="fill:#ffdd55;fill-rule:evenodd;stroke-width:10.1278;stroke-linecap:round;stroke-linejoin:round"
     d="M 390.26285,447.15786 V 413.0406 h 31.99416 c 17.59679,0 31.99415,0.11992 31.99415,0.2665 0,0.14665 -14.39736,15.49933 -31.99415,34.11725 l -31.99416,33.85076 z"
     id="path848" />
  <g
     id="g870"
     transform="matrix(1.0537407,0,0,1.1072688,-728.11145,33.069208)">
    <g
       id="g862"
       transform="translate(-12.502326,1.1906977)">
      <path
         style="fill:#ffd42a;fill-opacity:1;fill-rule:evenodd;stroke-width:5.95349;stroke-linecap:round;stroke-linejoin:round"
         d="m 766.75681,420.64698 c -7.66922,-2.11562 -14.33535,-7.72478 -17.94108,-15.09636 l -1.95061,-3.98783 -0.157,-177.41395 C 746.5516,47.270707 746.55478,46.722807 747.7612,42.735767 c 1.60437,-5.302209 5.70401,-10.716198 10.59937,-13.997511 7.32855,-4.912269 3.0592,-4.598296 65.08667,-4.786546 l 55.14957,-0.167376 0.41872,2.247367 c 0.57368,3.078986 4.09207,12.074499 6.06406,15.504006 8.5329,14.83969 20.37244,25.23535 35.62738,31.28247 15.58681,6.17868 35.02184,6.17841 50.60466,-7.1e-4 14.82446,-5.87839 26.84079,-16.21012 34.78847,-29.91138 2.5841,-4.454777 6.3032,-13.534345 6.912,-16.874409 l 0.4097,-2.247368 55.1496,0.167376 c 62.0274,0.188274 57.7581,-0.125699 65.0866,4.78657 4.8342,3.240316 8.964,8.66469 10.5799,13.896411 1.2064,3.90573 1.2133,4.73142 1.2133,145.855953 v 141.92799 h -39.9075 c -43.179,0 -41.6317,-0.10898 -46.0242,3.24136 -1.0933,0.83395 -2.7679,2.92394 -3.7211,4.64443 l -1.7333,3.12816 -0.1688,40.03721 -0.1687,40.03721 -142.11963,-0.0532 c -112.66736,-0.0422 -142.68568,-0.20943 -144.85116,-0.8068 z M 995.85684,316.40949 c 3.50416,-1.46414 5.72726,-3.48653 7.59066,-6.90534 1.4316,-2.62653 1.7387,-3.88785 1.7205,-7.06694 -0.012,-2.12837 -0.4349,-4.82693 -0.9392,-5.99679 -1.2828,-2.97535 -4.38338,-6.34042 -7.26081,-7.88014 l -2.43776,-1.30446 H 901.06046 807.5907 l -2.3814,1.28736 c -6.78299,3.66683 -9.92682,10.94962 -7.82589,18.12893 1.21761,4.16083 4.01227,7.47528 7.7837,9.23143 l 3.01893,1.40576 92.74471,0.006 c 81.93476,0.005 92.99895,-0.10041 94.92609,-0.90562 z m 90.80206,-60.31299 c 4.9466,-2.43605 8.783,-8.45927 8.783,-13.78952 0,-5.45 -3.74,-11.30513 -8.8193,-13.80707 l -2.79,-1.37433 -136.03725,-0.15761 c -96.43379,-0.11172 -136.95076,0.0313 -139.17524,0.49131 -8.08872,1.67267 -13.33593,9.91857 -11.50833,18.08516 1.25676,5.6158 5.30525,9.96666 10.60601,11.39814 2.29665,0.62022 29.36441,0.74784 139.48221,0.65768 l 136.6326,-0.11189 z m -31.9577,-59.31661 c 6.4051,-1.91091 10.3723,-7.50348 10.359,-14.60314 -0.012,-6.27293 -3.1469,-11.29239 -8.6005,-13.76978 -2.2942,-1.04217 -7.5505,-1.0881 -125.33412,-1.09505 l -122.93954,-0.007 -3.01893,1.40576 c -3.77143,1.75615 -6.56609,5.0706 -7.7837,9.23144 -2.40902,8.23212 2.19476,16.63102 10.50111,19.1577 0.82072,0.24966 56.02964,0.47694 122.68649,0.50509 105.05259,0.0444 121.58529,-0.0655 124.13019,-0.82475 z m 30.0844,-59.94408 c 3.6391,-1.24037 6.7673,-3.84035 8.591,-7.14025 1.4784,-2.67512 1.7595,-3.84991 1.7595,-7.35137 0,-3.50525 -0.2807,-4.67546 -1.7667,-7.36462 -1.9409,-3.51221 -4.4713,-5.74434 -7.8984,-6.96736 -3.3199,-1.18474 -275.60353,-1.18474 -278.92337,0 -6.92758,2.47221 -11.35024,10.88519 -9.4417,17.9604 1.30926,4.85355 5.24266,9.15702 9.88942,10.81984 2.64816,0.94764 275.01245,0.99015 277.79025,0.0433 z"
         id="path844" />
      <path
         style="fill:#ffd42a;fill-opacity:1;fill-rule:evenodd;stroke-width:8.64919;stroke-linecap:round;stroke-linejoin:round"
         d="m 803.56962,333.0793 c -6.36776,-6.11943 -9.61354,-15.27611 -9.62858,-27.16307 -0.0121,-9.62654 2.55399,-17.86929 7.41591,-23.8207 l 3.50845,-4.29466 101.98699,-0.0353 101.98701,-0.0353 3.1617,3.61568 c 1.7389,1.98862 4.094,6.01541 5.2336,8.9484 1.8077,4.65276 2.102,6.4691 2.3078,14.24478 0.1945,7.34761 -0.011,9.81763 -1.1654,14.07086 -1.7604,6.48103 -5.6791,12.87124 -8.8496,14.43136 -1.6028,0.78871 -36.70067,1.42405 -102.89942,1.86266 l -100.46689,0.66566 z"
         id="path850" />
      <path
         style="fill:#ffd42a;fill-opacity:1;fill-rule:evenodd;stroke-width:8.19825;stroke-linecap:round;stroke-linejoin:round"
         d="m 788.30772,267.42266 c -0.36082,-0.19112 -1.79682,-0.64651 -3.19111,-1.01199 -3.38102,-0.88627 -8.49021,-8.32965 -10.02481,-14.60475 -1.45895,-5.96579 -1.45293,-13.03179 0.0162,-19.03923 1.41048,-5.76754 6.4092,-13.1183 10.09283,-14.84179 1.97827,-0.9256 38.84702,-1.21792 153.60655,-1.21792 147.60542,0 151.05902,0.0442 153.47222,1.9668 5.512,4.39133 9.9381,14.93836 9.923,23.64565 -0.015,8.68735 -4.4434,19.2049 -9.9577,23.65027 -2.3782,1.91719 -5.8832,1.96033 -152.85759,1.88131 -82.73295,-0.0446 -150.71877,-0.23726 -151.07959,-0.42835 z"
         id="path852" />
      <path
         style="fill:#ffd42a;fill-opacity:1;fill-rule:evenodd;stroke-width:7.47817;stroke-linecap:round;stroke-linejoin:round"
         d="m 793.65867,202.00808 c -7.34028,-4.67337 -10.82857,-15.85543 -8.11872,-26.02525 1.17271,-4.40104 4.89247,-9.49975 8.75491,-12.00041 l 3.16254,-2.04754 60.7231,0.11131 c 33.3977,0.0612 95.10934,0.34651 137.13697,0.63396 69.49503,0.47532 76.59373,0.64975 78.39873,1.92642 6.6691,4.71679 9.882,16.04956 7.3315,25.86004 -1.1842,4.55526 -4.4212,9.42765 -7.8584,11.82901 -1.997,1.39504 -10.0321,1.49335 -139.08917,1.70171 l -136.96968,0.22115 z"
         id="path854" />
    </g>
    <path
       style="fill:#ffd42a;fill-opacity:1;fill-rule:evenodd;stroke-width:7.47489;stroke-linecap:round;stroke-linejoin:round"
       d="m 857.73917,141.02586 -67.40893,-0.42894 -3.14418,-2.43438 c -5.23341,-4.05195 -8.81204,-13.34336 -7.96024,-20.66767 0.59078,-5.07988 3.53804,-11.60126 6.65174,-14.71819 2.46029,-2.46288 3.27494,-2.7624 8.79245,-3.232873 10.98609,-0.93676 177.38664,-1.46154 239.24419,-0.75452 66.9765,0.76554 62.2108,0.31087 66.5218,6.346453 3.3703,4.71844 4.3922,8.18622 4.4136,14.97762 0.016,5.31494 -0.2346,6.65222 -1.9304,10.26507 -2.8155,5.99874 -6.632,9.55451 -10.8641,10.12223 -5.0681,0.67983 -156.62911,1.01954 -234.31593,0.5252 z"
       id="path856" />
  </g>
  <g
     id="g12">
    <path
       d="m428.5 53.74h-105.195c-6.884-30.714-34.448-53.74-67.305-53.74s-60.421 23.026-67.305 53.74h-105.195c-31.706 0-57.5 25.717-57.5 57.328v343.604c0 31.611 25.794 57.328 57.5 57.328h295.763c3.968 0 7.774-1.572 10.585-4.372l91.738-91.366c2.826-2.814 4.415-6.639 4.415-10.628v-294.566c-.001-31.611-25.795-57.328-57.501-57.328zm-172.5-23.74c21.482 0 38.959 17.379 38.959 38.74 0 21.362-17.477 38.741-38.959 38.741s-38.959-17.379-38.959-38.741c0-21.361 17.477-38.74 38.959-38.74zm-200 424.673v-343.605c0-15.068 12.336-27.328 27.5-27.328h105.195c6.884 30.715 34.448 53.741 67.305 53.741s60.421-23.026 67.305-53.741h105.195c15.163 0 27.5 12.26 27.5 27.328v279.565h-76.738c-8.284 0-15 6.716-15 15v76.367h-280.762c-15.164 0-27.5-12.259-27.5-27.327zm378.682-34.039-40.42 40.257v-40.257z"
       id="path2" />
    <path
       d="m121.959 197.439h268.081c8.284 0 15-6.716 15-15s-6.716-15-15-15h-268.081c-8.284 0-15 6.716-15 15s6.716 15 15 15z"
       id="path4" />
    <path
       d="m121.959 257.439h238.081c8.284 0 15-6.716 15-15s-6.716-15-15-15h-238.081c-8.284 0-15 6.716-15 15s6.716 15 15 15z"
       id="path6" />
    <path
       d="m121.959 317.439h268.081c8.284 0 15-6.716 15-15s-6.716-15-15-15h-268.081c-8.284 0-15 6.716-15 15s6.716 15 15 15z"
       id="path8" />
    <path
       d="m300.041 347.439h-178.082c-8.284 0-15 6.716-15 15s6.716 15 15 15h178.081c8.284 0 15-6.716 15-15s-6.715-15-14.999-15z"
       id="path10" />
  </g>
</svg>
