<?xml version="1.0" encoding="UTF-8" standalone="no"?>
<svg
   xmlns:dc="http://purl.org/dc/elements/1.1/"
   xmlns:cc="http://creativecommons.org/ns#"
   xmlns:rdf="http://www.w3.org/1999/02/22-rdf-syntax-ns#"
   xmlns:svg="http://www.w3.org/2000/svg"
   xmlns="http://www.w3.org/2000/svg"
   xmlns:sodipodi="http://sodipodi.sourceforge.net/DTD/sodipodi-0.dtd"
   xmlns:inkscape="http://www.inkscape.org/namespaces/inkscape"
   version="1.1"
   id="Capa_1"
   x="0px"
   y="0px"
   viewBox="0 0 512 512"
   style="enable-background:new 0 0 512 512;"
   xml:space="preserve"
   sodipodi:docname="moon.svg"
   inkscape:version="1.0.1 (3bc2e813f5, 2020-09-07)"><metadata
   id="metadata43"><rdf:RDF><cc:Work
       rdf:about=""><dc:format>image/svg+xml</dc:format><dc:type
         rdf:resource="http://purl.org/dc/dcmitype/StillImage" /></cc:Work></rdf:RDF></metadata><defs
   id="defs41" /><sodipodi:namedview
   pagecolor="#ffffff"
   bordercolor="#666666"
   borderopacity="1"
   objecttolerance="10"
   gridtolerance="10"
   guidetolerance="10"
   inkscape:pageopacity="0"
   inkscape:pageshadow="2"
   inkscape:window-width="1920"
   inkscape:window-height="1027"
   id="namedview39"
   showgrid="false"
   inkscape:zoom="1.6796875"
   inkscape:cx="256"
   inkscape:cy="256"
   inkscape:window-x="-8"
   inkscape:window-y="-8"
   inkscape:window-maximized="1"
   inkscape:current-layer="Capa_1" />
<path
   style="fill:#ffc107;fill-opacity:1"
   d="M480,272c0.003,68.734-31.626,133.645-85.76,176h-67.52l-59.52-59.2  c-5.883-6.186-15.666-6.431-21.851-0.549c-0.188,0.178-0.37,0.361-0.549,0.549L185.28,448h-67.52  C20.469,371.729,3.43,231.029,79.701,133.739C122.162,79.576,187.178,47.957,256,48c7.04,0,13.44,0.32,20.48,0.96  c4.44,0.548,8.474,2.853,11.2,6.4c2.693,3.56,3.74,8.1,2.88,12.48C288.9,77.136,288.044,86.557,288,96  c0.123,79.478,64.522,143.877,144,144c9.443-0.044,18.864-0.9,28.16-2.56c4.38-0.86,8.92,0.187,12.48,2.88  c3.547,2.726,5.852,6.76,6.4,11.2C479.68,258.56,480,264.96,480,272z"
   id="path2" />
<path
   d="M431.328,400c-8.837-0.02-15.984-7.199-15.964-16.035c0.007-3.025,0.871-5.987,2.492-8.541  C437.516,344.509,447.971,308.637,448,272v-0.672c-5.28,0.448-10.592,0.672-16,0.672c-97.158-0.106-175.894-78.842-176-176  c0-5.408,0.224-10.72,0.672-16H256C149.961,79.949,63.959,165.869,63.908,271.908c-0.018,36.686,10.475,72.608,30.236,103.516  c4.593,7.549,2.197,17.392-5.352,21.985c-7.345,4.469-16.909,2.335-21.656-4.833C0.544,288.316,31.079,149.814,135.339,83.221  C171.373,60.205,213.242,47.984,256,48c6.944,0,13.536,0.352,20.48,1.024c8.792,0.89,15.197,8.739,14.307,17.53  c-0.046,0.453-0.111,0.903-0.195,1.35C288.847,77.167,287.979,86.574,288,96c0.088,79.492,64.508,143.912,144,144  c9.426,0.021,18.833-0.847,28.096-2.592c4.405-0.829,8.955,0.227,12.544,2.912c3.61,2.67,5.933,6.734,6.4,11.2  c0.672,6.944,1.024,13.536,1.024,20.48c-0.035,42.721-12.245,84.547-35.2,120.576C441.923,397.208,436.814,400.01,431.328,400z"
   id="path4" />
<path
   d="M496,464H320c-4.246,0.008-8.322-1.673-11.328-4.672L256,406.624l-52.672,52.704c-3.006,2.999-7.082,4.68-11.328,4.672H16  c-8.837,0-16-7.163-16-16s7.163-16,16-16h169.376l59.296-59.328c6.24-6.256,16.371-6.269,22.627-0.029  c0.01,0.01,0.019,0.019,0.029,0.029L326.624,432H496c8.837,0,16,7.163,16,16S504.837,464,496,464z"
   id="path6" />
<g
   id="g8">
</g>
<g
   id="g10">
</g>
<g
   id="g12">
</g>
<g
   id="g14">
</g>
<g
   id="g16">
</g>
<g
   id="g18">
</g>
<g
   id="g20">
</g>
<g
   id="g22">
</g>
<g
   id="g24">
</g>
<g
   id="g26">
</g>
<g
   id="g28">
</g>
<g
   id="g30">
</g>
<g
   id="g32">
</g>
<g
   id="g34">
</g>
<g
   id="g36">
</g>
</svg>
