<?xml version="1.0" encoding="iso-8859-1"?>
<!-- Generator: Adobe Illustrator 19.0.0, SVG Export Plug-In . SVG Version: 6.00 Build 0)  -->
<svg version="1.1" id="Capa_1" xmlns="http://www.w3.org/2000/svg" xmlns:xlink="http://www.w3.org/1999/xlink" x="0px" y="0px"
	 viewBox="0 0 497.371 497.371" style="enable-background:new 0 0 497.371 497.371;" xml:space="preserve">
<circle style="fill:#C0D0D6;" cx="248.686" cy="248.686" r="188.709"/>
<path style="fill:#030303;" d="M248.686,452.023c-112.64,0-203.337-90.697-203.337-203.337S136.046,45.349,248.686,45.349
	s203.337,90.697,203.337,203.337S361.326,452.023,248.686,452.023z M248.686,74.606c-96.549,0-174.08,77.531-174.08,174.08
	s77.531,174.08,174.08,174.08s174.08-77.531,174.08-174.08S345.234,74.606,248.686,74.606z"/>
<ellipse style="fill:#C0D0D6;" cx="248.686" cy="248.686" rx="90.697" ry="188.709"/>
<path style="fill:#030303;" d="M248.686,452.023c-59.977,0-105.326-89.234-105.326-203.337S190.171,45.349,248.686,45.349
	s105.326,89.234,105.326,203.337S308.663,452.023,248.686,452.023z M248.686,74.606c-36.571,0-76.069,71.68-76.069,174.08
	s40.96,174.08,76.069,174.08s76.069-71.68,76.069-174.08S285.257,74.606,248.686,74.606z"/>
<rect x="234.057" y="59.977" style="fill:#030303;" width="29.257" height="377.417"/>
<rect x="59.977" y="234.057" width="377.417" height="29.257"/>
<path style="fill:#FFCA19;" d="M405.211,326.217H92.16c-42.423,0-77.531-35.109-77.531-77.531l0,0
	c0-42.423,35.109-77.531,77.531-77.531h313.051c42.423,0,77.531,35.109,77.531,77.531l0,0
	C482.743,291.109,447.634,326.217,405.211,326.217z"/>
<path d="M405.211,340.846H92.16c-51.2,0-92.16-40.96-92.16-92.16s40.96-92.16,92.16-92.16h313.051c51.2,0,92.16,40.96,92.16,92.16
	S456.411,340.846,405.211,340.846z M92.16,185.783c-35.109,0-62.903,27.794-62.903,62.903s27.794,62.903,62.903,62.903h313.051
	c35.109,0,62.903-27.794,62.903-62.903s-27.794-62.903-62.903-62.903H92.16z"/>
<path style="fill:#030303;" d="M405.211,340.846H92.16c-51.2,0-92.16-40.96-92.16-92.16s40.96-92.16,92.16-92.16h313.051
	c51.2,0,92.16,40.96,92.16,92.16S456.411,340.846,405.211,340.846z M92.16,185.783c-35.109,0-62.903,27.794-62.903,62.903
	s27.794,62.903,62.903,62.903h313.051c35.109,0,62.903-27.794,62.903-62.903s-27.794-62.903-62.903-62.903H92.16z"/>
<g>
	<path style="fill:#010101;" d="M114.103,283.794H98.011L74.606,215.04h14.629l17.554,52.663l17.554-52.663h14.629l17.554,52.663
		l17.554-52.663h14.629l-23.406,68.754h-16.091l-16.091-46.811L114.103,283.794z"/>
	<path style="fill:#010101;" d="M232.594,283.794h-16.091l-23.406-68.754h14.629l17.554,52.663l17.554-52.663h14.629l17.554,52.663
		l17.554-52.663H307.2l-23.406,68.754h-16.091l-16.091-46.811L232.594,283.794z"/>
	<path style="fill:#010101;" d="M351.086,283.794h-16.091l-23.406-68.754h14.629l17.554,52.663l17.554-52.663h14.629l17.554,52.663
		l17.554-52.663h14.629l-23.406,68.754h-16.091l-16.091-46.811L351.086,283.794z"/>
</g>
<g>
</g>
<g>
</g>
<g>
</g>
<g>
</g>
<g>
</g>
<g>
</g>
<g>
</g>
<g>
</g>
<g>
</g>
<g>
</g>
<g>
</g>
<g>
</g>
<g>
</g>
<g>
</g>
<g>
</g>
</svg>
