<?xml version="1.0" encoding="UTF-8" standalone="no"?>
<svg
   xmlns:dc="http://purl.org/dc/elements/1.1/"
   xmlns:cc="http://creativecommons.org/ns#"
   xmlns:rdf="http://www.w3.org/1999/02/22-rdf-syntax-ns#"
   xmlns:svg="http://www.w3.org/2000/svg"
   xmlns="http://www.w3.org/2000/svg"
   xmlns:sodipodi="http://sodipodi.sourceforge.net/DTD/sodipodi-0.dtd"
   xmlns:inkscape="http://www.inkscape.org/namespaces/inkscape"
   version="1.1"
   id="Capa_1"
   x="0px"
   y="0px"
   viewBox="0 0 511.982 511.982"
   style="enable-background:new 0 0 511.982 511.982;"
   xml:space="preserve"
   sodipodi:docname="new window.svg"
   inkscape:version="1.0.1 (3bc2e813f5, 2020-09-07)"><metadata
   id="metadata43"><rdf:RDF><cc:Work
       rdf:about=""><dc:format>image/svg+xml</dc:format><dc:type
         rdf:resource="http://purl.org/dc/dcmitype/StillImage" /></cc:Work></rdf:RDF></metadata><defs
   id="defs41" /><sodipodi:namedview
   pagecolor="#ffffff"
   bordercolor="#666666"
   borderopacity="1"
   objecttolerance="10"
   gridtolerance="10"
   guidetolerance="10"
   inkscape:pageopacity="0"
   inkscape:pageshadow="2"
   inkscape:window-width="1920"
   inkscape:window-height="1027"
   id="namedview39"
   showgrid="false"
   inkscape:zoom="1.6797466"
   inkscape:cx="255.991"
   inkscape:cy="255.991"
   inkscape:window-x="-8"
   inkscape:window-y="-8"
   inkscape:window-maximized="1"
   inkscape:current-layer="Capa_1" />
<rect
   style="fill:#ffffff;fill-rule:evenodd;stroke-width:10;stroke-linecap:round;stroke-linejoin:round"
   id="rect868"
   width="388.15378"
   height="389.93979"
   x="11.906558"
   y="89.894516" /><path
   d="M400,495.983H16c-8.837,0-16-7.163-16-16v-384c0-8.837,7.163-16,16-16h160c8.837,0,16,7.163,16,16s-7.163,16-16,16H32v352  h352v-144c0-8.837,7.163-16,16-16s16,7.163,16,16v160C416,488.819,408.837,495.983,400,495.983z"
   id="path2" />
<path
   style="fill:#2196F3;"
   d="M342.4,95.983H368v-64l128,112l-128,112v-64h-37.6c-66.2,0-127.73,34.103-162.816,90.24L144,319.983  l8.448-59.168C165.961,166.277,246.901,96.04,342.4,95.983z"
   id="path4" />
<path
   d="M144,335.983c-1.866-0.004-3.716-0.329-5.472-0.96c-7.105-2.587-11.429-9.794-10.368-17.28l8.448-59.168  C151.647,156.369,239.095,80.479,342.4,79.983h9.6v-48c0.009-8.837,7.18-15.993,16.016-15.984c3.866,0.004,7.6,1.408,10.512,3.952  l128,112c6.645,5.825,7.31,15.934,1.485,22.579c-0.462,0.527-0.958,1.023-1.485,1.485l-128,112  c-6.654,5.814-16.762,5.134-22.576-1.52c-2.544-2.911-3.948-6.645-3.952-10.512v-48h-21.568  c-60.739-0.184-117.235,31.122-149.28,82.72l-23.584,37.76C154.644,333.141,149.517,335.983,144,335.983z M342.4,111.983  c-82.754,0.433-154.162,58.152-171.936,138.976c39.422-47.682,98.132-75.194,160-74.976H368c8.837,0,16,7.163,16,16v28.8  l87.712-76.8L384,67.183v28.8c0,8.837-7.163,16-16,16H342.4z"
   id="path6" />
<g
   id="g8">
</g>
<g
   id="g10">
</g>
<g
   id="g12">
</g>
<g
   id="g14">
</g>
<g
   id="g16">
</g>
<g
   id="g18">
</g>
<g
   id="g20">
</g>
<g
   id="g22">
</g>
<g
   id="g24">
</g>
<g
   id="g26">
</g>
<g
   id="g28">
</g>
<g
   id="g30">
</g>
<g
   id="g32">
</g>
<g
   id="g34">
</g>
<g
   id="g36">
</g>
</svg>
