<?xml version="1.0" encoding="UTF-8" standalone="no"?>
<svg
   xmlns:dc="http://purl.org/dc/elements/1.1/"
   xmlns:cc="http://creativecommons.org/ns#"
   xmlns:rdf="http://www.w3.org/1999/02/22-rdf-syntax-ns#"
   xmlns:svg="http://www.w3.org/2000/svg"
   xmlns="http://www.w3.org/2000/svg"
   xmlns:sodipodi="http://sodipodi.sourceforge.net/DTD/sodipodi-0.dtd"
   xmlns:inkscape="http://www.inkscape.org/namespaces/inkscape"
   version="1.1"
   id="Capa_1"
   x="0px"
   y="0px"
   viewBox="0 0 497.371 497.371"
   style="enable-background:new 0 0 497.371 497.371;"
   xml:space="preserve"
   sodipodi:docname="news.svg"
   inkscape:version="1.0.1 (3bc2e813f5, 2020-09-07)"><metadata
   id="metadata67"><rdf:RDF><cc:Work
       rdf:about=""><dc:format>image/svg+xml</dc:format><dc:type
         rdf:resource="http://purl.org/dc/dcmitype/StillImage" /></cc:Work></rdf:RDF></metadata><defs
   id="defs65" /><sodipodi:namedview
   pagecolor="#ffffff"
   bordercolor="#666666"
   borderopacity="1"
   objecttolerance="10"
   gridtolerance="10"
   guidetolerance="10"
   inkscape:pageopacity="0"
   inkscape:pageshadow="2"
   inkscape:window-width="1920"
   inkscape:window-height="1027"
   id="namedview63"
   showgrid="false"
   inkscape:zoom="1.7290916"
   inkscape:cx="248.6855"
   inkscape:cy="248.6855"
   inkscape:window-x="-8"
   inkscape:window-y="-8"
   inkscape:window-maximized="1"
   inkscape:current-layer="Capa_1" />
<rect
   x="16.091"
   y="14.629"
   style="fill:#F15E75;"
   width="365.714"
   height="134.583"
   id="rect2" />
<rect
   x="16.091"
   y="14.629"
   style="fill:#EF3956;"
   width="365.714"
   height="35.109"
   id="rect4" />
<path
   d="M431.543,497.371H65.829c-35.109,0-64.366-29.257-64.366-64.366V14.629C1.463,5.851,7.314,0,16.091,0h365.714  c8.777,0,14.629,5.851,14.629,14.629v310.126c0,8.777-5.851,14.629-14.629,14.629c-8.777,0-14.629-5.851-14.629-14.629V29.257H30.72  v403.749c0,19.017,16.091,35.109,35.109,35.109h365.714c8.777,0,14.629,5.851,14.629,14.629S438.857,497.371,431.543,497.371z"
   id="path6" />
<path
   id="SVGCleanerId_0"
   style="fill:#A5C3D1;"
   d="M468.114,133.12h-73.143c-7.314,0-13.166,5.851-13.166,13.166v286.72  c0,27.794,21.943,49.737,49.737,49.737s49.737-21.943,49.737-49.737v-286.72C481.28,138.971,475.429,133.12,468.114,133.12z" />
<g
   id="g10">
	<path
   id="SVGCleanerId_0_1_"
   style="fill:#A5C3D1;"
   d="M468.114,133.12h-73.143c-7.314,0-13.166,5.851-13.166,13.166v286.72   c0,27.794,21.943,49.737,49.737,49.737s49.737-21.943,49.737-49.737v-286.72C481.28,138.971,475.429,133.12,468.114,133.12z" />
</g>
<path
   style="fill:#849DA9;"
   d="M481.28,179.931v-33.646c0-7.314-5.851-13.166-13.166-13.166h-73.143  c-7.314,0-13.166,5.851-13.166,13.166v33.646H481.28z"
   id="path12" />
<path
   d="M431.543,497.371c-35.109,0-64.366-29.257-64.366-64.366v-286.72c0-14.629,11.703-27.794,27.794-27.794h73.143  c14.629,0,27.794,11.703,27.794,27.794v286.72C495.909,468.114,466.651,497.371,431.543,497.371z M396.434,147.749v285.257  c0,19.017,16.091,35.109,35.109,35.109s35.109-16.091,35.109-35.109V147.749H396.434z"
   id="path14" />
<path
   d="M307.2,411.063H92.16c-8.777,0-14.629-5.851-14.629-14.629s5.851-14.629,14.629-14.629H307.2  c8.777,0,14.629,5.851,14.629,14.629S314.514,411.063,307.2,411.063z"
   id="path16" />
<path
   d="M307.2,332.069H92.16c-8.777,0-14.629-5.851-14.629-14.629c0-8.777,5.851-14.629,14.629-14.629H307.2  c8.777,0,14.629,5.851,14.629,14.629C321.829,326.217,314.514,332.069,307.2,332.069z"
   id="path18" />
<path
   d="M307.2,251.611H92.16c-8.777,0-14.629-5.851-14.629-14.629c0-8.777,5.851-14.629,14.629-14.629H307.2  c8.777,0,14.629,5.851,14.629,14.629C321.829,245.76,314.514,251.611,307.2,251.611z"
   id="path20" />
<path
   d="M381.806,172.617H16.091c-8.777,0-14.629-5.851-14.629-14.629s5.851-14.629,14.629-14.629h365.714  c8.777,0,14.629,5.851,14.629,14.629S389.12,172.617,381.806,172.617z"
   id="path22" />
<g
   id="g30">
	<path
   style="fill:#FFFFFF;"
   d="M124.343,43.886h13.166v76.069H122.88L80.457,64.366v55.589H67.291V43.886h13.166l43.886,57.051   V43.886z"
   id="path24" />
	<path
   style="fill:#FFFFFF;"
   d="M212.114,43.886v11.703h-40.96v20.48h36.571v11.703h-36.571v20.48h40.96v11.703h-54.126V43.886   H212.114z"
   id="path26" />
	<path
   style="fill:#FFFFFF;"
   d="M253.074,98.011l17.554-54.126h11.703l17.554,54.126l19.017-54.126h13.166l-26.331,76.069h-13.166   L276.48,67.291h-1.463l-16.091,52.663H245.76l-26.331-76.069h13.166L253.074,98.011z"
   id="path28" />
</g>
<g
   id="g32">
</g>
<g
   id="g34">
</g>
<g
   id="g36">
</g>
<g
   id="g38">
</g>
<g
   id="g40">
</g>
<g
   id="g42">
</g>
<g
   id="g44">
</g>
<g
   id="g46">
</g>
<g
   id="g48">
</g>
<g
   id="g50">
</g>
<g
   id="g52">
</g>
<g
   id="g54">
</g>
<g
   id="g56">
</g>
<g
   id="g58">
</g>
<g
   id="g60">
</g>
<path
   style="fill:#ffffff;fill-rule:evenodd;stroke:#ffffff;stroke-width:0.578338;stroke-linecap:round;stroke-linejoin:round"
   d="M 58.049369,466.73136 C 46.495984,463.70234 37.054006,455.20059 32.894895,444.08177 L 31.519441,440.40467 31.368796,306.66392 31.21815,172.92317 h 167.71114 167.71114 l 0.17582,134.02992 c 0.17582,134.02687 0.17585,134.03004 1.39621,139.23497 1.52704,6.51291 3.63054,12.0941 6.5936,17.49473 l 2.30046,4.19296 -157.46757,-0.0319 C 67.774222,467.81319 62.02471,467.7736 58.049369,466.73136 Z M 311.85436,410.59387 c 3.22332,-0.89519 6.85086,-3.96146 8.51352,-7.19623 1.19997,-2.3346 1.47682,-3.69122 1.47421,-7.22389 -0.005,-6.98783 -2.95503,-11.55397 -8.81527,-13.64528 -3.05641,-1.09072 -222.837061,-1.20545 -226.498134,-0.11823 -3.130062,0.92953 -7.394902,5.19437 -8.324428,8.32443 -0.888182,2.99084 -0.91055,8.37245 -0.04678,11.25545 0.956792,3.19349 3.745204,6.26642 7.106452,7.83157 l 2.932673,1.36559 110.751797,0.002 c 74.52716,0.002 111.45638,-0.19325 112.90596,-0.59584 z m 1.06876,-79.27822 c 2.94461,-1.33923 6.18235,-4.34711 7.64499,-7.10223 1.77878,-3.35064 1.78864,-10.62864 0.0189,-13.93488 -1.44649,-2.70233 -3.70971,-4.92789 -6.54926,-6.44029 -1.95127,-1.03928 -6.00323,-1.0845 -112.48681,-1.25556 -79.49258,-0.12769 -111.301929,0.003 -113.456199,0.46568 -6.751999,1.45055 -10.607138,6.70563 -10.584684,14.42836 0.02303,7.92329 3.626635,12.73602 10.812347,14.44025 1.25821,0.29841 48.993326,0.4805 112.361026,0.42862 100.34179,-0.0822 110.35785,-0.17406 112.23971,-1.02995 z m 1.09405,-81.1843 c 10.8076,-5.93342 10.81916,-20.93061 0.0206,-26.68213 -1.95165,-1.03948 -6.00342,-1.084 -113.06515,-1.24242 -83.83181,-0.12405 -111.650044,0.003 -113.526595,0.51666 -6.387456,1.74995 -9.933034,6.83823 -9.943003,14.26927 -0.0065,4.86841 0.963629,7.65251 3.638276,10.44085 2.328423,2.42741 4.485177,3.56279 7.86672,4.14131 1.462253,0.25017 51.976452,0.41809 112.253762,0.37316 l 109.59513,-0.0817 z"
   id="path892" /></svg>
