<?xml version="1.0" encoding="iso-8859-1"?>
<!-- Generator: Adobe Illustrator 19.0.0, SVG Export Plug-In . SVG Version: 6.00 Build 0)  -->
<svg version="1.1" id="Capa_1" xmlns="http://www.w3.org/2000/svg" xmlns:xlink="http://www.w3.org/1999/xlink" x="0px" y="0px"
	 viewBox="0 0 497.371 497.371" style="enable-background:new 0 0 497.371 497.371;" xml:space="preserve">
<g>
	<path style="fill:#FFFFFF;" d="M68.754,16.823h356.937c30.72,0,57.051,24.869,57.051,57.051v373.029
		c0,20.48-16.091,36.571-36.571,36.571H157.989c-20.48,0-36.571-16.091-36.571-36.571V230.4"/>
	<path style="fill:#FFFFFF;" d="M446.171,489.326H157.989c-24.869,0-43.886-19.017-43.886-43.886V230.4h14.629v215.04
		c0,16.091,13.166,29.257,29.257,29.257h288.183c16.091,0,29.257-13.166,29.257-29.257V73.874c0-27.794-21.943-49.737-49.737-49.737
		H68.754V9.509h356.937c35.109,0,64.366,27.794,64.366,64.366v373.029C490.057,470.309,471.04,489.326,446.171,489.326z"/>
</g>
<path style="fill:#A5C3D1;" d="M68.754,16.823c-29.257,0-54.126,23.406-54.126,54.126v160.914h106.789V70.949
	C121.417,40.229,98.011,16.823,68.754,16.823z"/>
<g style="opacity:0.1;">
	<path style="fill:#030303;" d="M112.64,38.766L112.64,38.766c-30.72,0-54.126,24.869-54.126,54.126v138.971H14.629V70.949
		c0-29.257,23.406-54.126,54.126-54.126C86.309,16.823,102.4,25.6,112.64,38.766z"/>
</g>
<g>
	<path style="fill:#030303;" d="M446.171,496.64H157.989c-27.794,0-51.2-23.406-51.2-51.2V230.4c0-8.777,5.851-14.629,14.629-14.629
		s14.629,5.851,14.629,14.629v215.04c0,11.703,10.24,21.943,21.943,21.943h288.183c11.703,0,21.943-10.24,21.943-21.943V73.874
		c0-23.406-19.017-42.423-42.423-42.423H68.754c-8.777,0-14.629-5.851-14.629-14.629S59.977,2.194,68.754,2.194h356.937
		c39.497,0,71.68,32.183,71.68,71.68v373.029C497.371,474.697,473.966,496.64,446.171,496.64z"/>
	<path style="fill:#030303;" d="M121.417,245.029H14.629C5.851,245.029,0,239.177,0,230.4V69.486C0,31.451,30.72,0.731,68.754,0.731
		s68.754,30.72,68.754,68.754V230.4C136.046,239.177,130.194,245.029,121.417,245.029z M29.257,215.771h77.531V69.486
		c0-21.943-17.554-39.497-39.497-39.497S29.257,49.006,29.257,69.486V215.771z"/>
</g>
<path style="fill:#FFCA19;" d="M402.286,167.497l33.646-58.514c4.389-7.314,1.463-16.091-5.851-19.017l-52.663-29.257
	c-7.314-4.389-16.091-1.463-19.017,5.851l-33.646,58.514L402.286,167.497z"/>
<polygon style="fill:#E09C49;" points="324.754,123.611 402.286,167.497 292.571,357.669 207.726,419.109 216.503,313.783 "/>
<polygon style="fill:#77C587;" points="292.571,357.669 292.571,357.669 402.286,167.497 324.754,123.611 216.503,313.783 
	216.503,315.246 "/>
<g style="opacity:0.1;">
	<path style="fill:#030303;" d="M362.789,144.091l39.497,21.943l33.646-58.514c4.389-7.314,1.463-16.091-5.851-19.017
		l-26.331-14.629L362.789,144.091z"/>
	
		<rect id="SVGCleanerId_0" x="219.692" y="227.354" transform="matrix(0.494 -0.8695 0.8695 0.494 -51.4459 411.6593)" style="fill:#030303;" width="216.51" height="45.35"/>
	<g>
		
			<rect id="SVGCleanerId_0_1_" x="219.692" y="227.354" transform="matrix(0.494 -0.8695 0.8695 0.494 -51.4459 411.6593)" style="fill:#030303;" width="216.51" height="45.35"/>
	</g>
</g>
<g>
	<path style="fill:#010101;" d="M200.411,430.811c-4.389-2.926-7.314-8.777-7.314-13.166l8.777-105.326
		c0-1.463,1.463-4.389,1.463-5.851l108.251-191.634c1.463-2.926,4.389-5.851,8.777-7.314c4.389-1.463,7.314,0,11.703,1.463
		l77.531,43.886c7.314,4.389,8.777,13.166,5.851,20.48L307.2,364.983c-1.463,1.463-2.926,2.926-4.389,4.389l-86.309,61.44
		C210.651,433.737,204.8,433.737,200.411,430.811z M229.669,318.171l-4.389,70.217l57.051-40.96l99.474-175.543l-51.2-29.257
		L229.669,318.171z"/>
	<path style="fill:#010101;" d="M394.971,179.2l-77.531-43.886c-7.314-4.389-8.777-13.166-5.851-20.48l33.646-58.514
		c7.314-13.166,26.331-19.017,39.497-10.24l52.663,29.257c7.314,4.389,11.703,10.24,13.166,17.554s1.463,14.629-2.926,21.943
		l-33.646,58.514c-1.463,2.926-4.389,5.851-8.777,7.314C402.286,182.126,397.897,182.126,394.971,179.2z M343.771,117.76
		l51.2,29.257l26.331-46.811L368.64,70.949L343.771,117.76z"/>
	<path style="fill:#010101;" d="M285.257,370.834l-77.531-43.886c-7.314-4.389-8.777-13.166-5.851-20.48
		c4.389-7.314,13.166-8.777,20.48-5.851l77.531,43.886c7.314,4.389,8.777,13.166,5.851,20.48
		C301.349,372.297,292.571,375.223,285.257,370.834z"/>
</g>
<g>
	<path style="fill:#030303;" d="M384.731,433.737H207.726c-8.777,0-14.629-5.851-14.629-14.629c0-8.777,5.851-14.629,14.629-14.629
		h177.006c8.777,0,14.629,5.851,14.629,14.629C399.36,427.886,393.509,433.737,384.731,433.737z"/>
	<path style="fill:#030303;" d="M275.017,94.354h-68.754c-8.777,0-14.629-5.851-14.629-14.629s5.851-14.629,14.629-14.629h68.754
		c8.777,0,14.629,5.851,14.629,14.629S283.794,94.354,275.017,94.354z"/>
	<path style="fill:#030303;" d="M248.686,167.497h-40.96c-8.777,0-14.629-5.851-14.629-14.629s5.851-14.629,14.629-14.629h40.96
		c8.777,0,14.629,5.851,14.629,14.629S257.463,167.497,248.686,167.497z"/>
</g>
<g>
</g>
<g>
</g>
<g>
</g>
<g>
</g>
<g>
</g>
<g>
</g>
<g>
</g>
<g>
</g>
<g>
</g>
<g>
</g>
<g>
</g>
<g>
</g>
<g>
</g>
<g>
</g>
<g>
</g>
</svg>
