<?xml version="1.0" encoding="UTF-8" standalone="no"?>
<svg
   xmlns:dc="http://purl.org/dc/elements/1.1/"
   xmlns:cc="http://creativecommons.org/ns#"
   xmlns:rdf="http://www.w3.org/1999/02/22-rdf-syntax-ns#"
   xmlns:svg="http://www.w3.org/2000/svg"
   xmlns="http://www.w3.org/2000/svg"
   xmlns:sodipodi="http://sodipodi.sourceforge.net/DTD/sodipodi-0.dtd"
   xmlns:inkscape="http://www.inkscape.org/namespaces/inkscape"
   id="Capa_1"
   enable-background="new 0 0 512 512"
   height="512"
   viewBox="0 0 512 512"
   width="512"
   version="1.1"
   sodipodi:docname="pin2.svg"
   inkscape:version="1.0.1 (3bc2e813f5, 2020-09-07)">
  <metadata
     id="metadata11">
    <rdf:RDF>
      <cc:Work
         rdf:about="">
        <dc:format>image/svg+xml</dc:format>
        <dc:type
           rdf:resource="http://purl.org/dc/dcmitype/StillImage" />
      </cc:Work>
    </rdf:RDF>
  </metadata>
  <defs
     id="defs9" />
  <sodipodi:namedview
     pagecolor="#ffffff"
     bordercolor="#666666"
     borderopacity="1"
     objecttolerance="10"
     gridtolerance="10"
     guidetolerance="10"
     inkscape:pageopacity="0"
     inkscape:pageshadow="2"
     inkscape:window-width="1920"
     inkscape:window-height="1027"
     id="namedview7"
     showgrid="false"
     inkscape:zoom="1.6796875"
     inkscape:cx="256"
     inkscape:cy="256"
     inkscape:window-x="-8"
     inkscape:window-y="-8"
     inkscape:window-maximized="1"
     inkscape:current-layer="Capa_1" />
  <path
     style="fill:#cccccc;fill-opacity:1;fill-rule:evenodd;stroke:none;stroke-width:7.31773;stroke-linecap:round;stroke-linejoin:round"
     d="m 11.433649,495.02769 c 1.008541,-3.98239 8.089537,-20.27599 12.590692,-28.9716 7.983772,-15.42354 18.055574,-30.15182 29.636261,-43.33795 2.919319,-3.32404 39.66867,-39.86576 81.665218,-81.20383 l 76.35734,-75.16013 16.7759,16.53588 16.77589,16.53588 -78.90035,77.57503 c -51.92152,51.04934 -81.51553,79.61376 -86.548478,83.53741 -15.626339,12.18218 -31.849134,21.75397 -50.131851,29.57885 -6.343906,2.71514 -11.700288,5.11134 -11.903067,5.32484 -0.202781,0.21356 -0.866429,0.43143 -1.474774,0.48419 -0.608344,0.0529 -2.066623,0.34517 -3.240619,0.64976 -2.063571,0.53542 -2.116835,0.48395 -1.602162,-1.54833 z"
     id="path868" />
  <path
     style="fill:#ff2a2a;fill-opacity:1;fill-rule:evenodd;stroke:none;stroke-width:7.12492;stroke-linecap:round;stroke-linejoin:round"
     d="m 399.92184,108.57341 -79.89573,-78.961448 3.20947,-3.243455 c 7.63286,-7.713717 19.42904,-10.657348 29.99618,-7.485307 4.61539,1.38544 5.74739,2.150006 13.14148,8.875744 8.25155,7.505702 91.49891,89.890016 111.83738,110.677926 10.94434,11.1862 11.25157,11.58381 12.77142,16.52894 3.16568,10.30009 0.5985,21.07208 -6.91331,29.00867 -1.85341,1.95822 -3.56814,3.5604 -3.8105,3.5604 -0.24237,0 -36.39373,-35.53264 -80.33639,-78.96147 z"
     id="path864" />
  <path
     style="fill:#ff2a2a;fill-opacity:1;fill-rule:evenodd;stroke:none;stroke-width:7.32781;stroke-linecap:round;stroke-linejoin:round"
     d="m 329.41091,181.22005 -38.69119,-38.725 29.90294,-29.41496 29.90294,-29.41496 38.45574,38.45051 38.45576,38.4505 -29.6675,29.68946 -29.6675,29.68944 z"
     id="path862" />
  <path
     style="fill:#ff2a2a;fill-opacity:1;fill-rule:evenodd;stroke:none;stroke-width:6.72174;stroke-linecap:round;stroke-linejoin:round"
     d="m 229.76362,280.26442 -100.16972,-98.17927 6.45166,-6.00526 c 19.54644,-18.194 40.30006,-28.99166 65.22675,-33.9361 6.74999,-1.33891 9.75518,-1.54167 22.71963,-1.53284 17.08413,0.0116 23.65303,0.97353 38.48451,5.6354 l 8.37495,2.63242 46.67982,45.75811 46.67981,45.75812 2.06901,5.98765 c 4.81472,13.93377 6.77931,25.50155 6.77931,39.91769 0,28.81806 -9.96638,55.51465 -29.05901,77.8395 -5.27787,6.17135 -13.07099,14.30384 -13.70696,14.30384 -0.19802,0 -45.43642,-44.18067 -100.52976,-98.17926 z"
     id="path860" />
  <g
     id="g4">
    <path
       d="m495.891 115.104-98.995-98.995c-10.388-10.388-24.201-16.109-38.891-16.109-14.691 0-28.503 5.721-38.891 16.109l-14.142 14.142c-5.858 5.857-5.858 15.355 0 21.213l24.749 24.749-53.054 53.054c-23.052-8.447-47.78-10.591-72.136-6.175-27.83 5.047-53.111 18.285-73.111 38.285l-17.366 17.367c-5.858 5.858-5.857 15.355 0 21.213l63.64 63.64-119.537 119.536c-30.422 30.421-50.453 68.894-57.929 111.261-.851 4.82.704 9.752 4.165 13.213 2.837 2.837 6.664 4.393 10.606 4.393.867 0 1.739-.075 2.607-.229 42.366-7.476 80.84-27.507 111.261-57.929l119.536-119.536 63.64 63.64c2.929 2.93 6.768 4.394 10.606 4.394s7.678-1.465 10.606-4.394l17.367-17.366c20-20 33.238-45.281 38.285-73.111 4.417-24.354 2.273-49.083-6.175-72.136l53.054-53.053 24.749 24.749c2.929 2.929 6.768 4.394 10.606 4.394s7.678-1.465 10.606-4.394l14.142-14.142c10.39-10.389 16.111-24.2 16.111-38.892 0-14.69-5.721-28.503-16.109-38.891zm-388.237 317.526c-20.418 20.417-45.07 35.368-72.244 43.96 8.592-27.174 23.543-51.826 43.96-72.244l119.536-119.536 28.284 28.284zm221.756-73.263-6.761 6.76-176.776-176.776 6.76-6.761c31.118-31.117 78.615-40.232 118.973-23.07l80.875 80.875c17.159 40.357 8.047 87.854-23.071 118.972zm35.666-148.804-63.64-63.64 49.498-49.499 63.641 63.641zm109.602-38.89-3.535 3.535-134.351-134.351 3.535-3.535c9.748-9.748 25.607-9.748 35.355 0l98.995 98.995c9.748 9.748 9.748 25.608.001 35.356z"
       id="path2" />
  </g>
  <path
     style="fill:none;fill-rule:nonzero;stroke:none;stroke-width:5.95349;stroke-linecap:round;stroke-linejoin:round"
     d="m 234.56669,277.09169 -87.8132,-87.85716 5.65581,-5.3739 c 21.66071,-20.58103 45.46195,-30.96853 73.02855,-31.87163 14.72863,-0.48251 25.27673,1.00913 38.72365,5.47605 l 6.49785,2.15851 40.85429,40.8952 40.85429,40.89519 2.14036,6.20979 c 3.67117,10.65108 5.13601,19.0651 5.50053,31.59486 0.35356,12.15281 -0.38463,19.27002 -3.10641,29.95006 -2.69512,10.57542 -8.41636,23.59994 -14.269,32.4837 -4.30302,6.53158 -18.64994,23.29648 -19.93646,23.29648 -0.17439,0 -39.83301,-39.53572 -88.13026,-87.85715 z"
     id="path840" />
</svg>
