<?xml version="1.0" encoding="UTF-8" standalone="no"?>
<svg
   xmlns:dc="http://purl.org/dc/elements/1.1/"
   xmlns:cc="http://creativecommons.org/ns#"
   xmlns:rdf="http://www.w3.org/1999/02/22-rdf-syntax-ns#"
   xmlns:svg="http://www.w3.org/2000/svg"
   xmlns="http://www.w3.org/2000/svg"
   xmlns:sodipodi="http://sodipodi.sourceforge.net/DTD/sodipodi-0.dtd"
   xmlns:inkscape="http://www.inkscape.org/namespaces/inkscape"
   id="Layer_1"
   enable-background="new 0 0 512.84 512.84"
   height="512"
   viewBox="0 0 512.84 512.84"
   width="512"
   version="1.1"
   sodipodi:docname="mail box.svg"
   inkscape:version="1.0.1 (3bc2e813f5, 2020-09-07)">
  <metadata
     id="metadata13">
    <rdf:RDF>
      <cc:Work
         rdf:about="">
        <dc:format>image/svg+xml</dc:format>
        <dc:type
           rdf:resource="http://purl.org/dc/dcmitype/StillImage" />
      </cc:Work>
    </rdf:RDF>
  </metadata>
  <defs
     id="defs11" />
  <sodipodi:namedview
     pagecolor="#ffffff"
     bordercolor="#666666"
     borderopacity="1"
     objecttolerance="10"
     gridtolerance="10"
     guidetolerance="10"
     inkscape:pageopacity="0"
     inkscape:pageshadow="2"
     inkscape:window-width="1920"
     inkscape:window-height="1027"
     id="namedview9"
     showgrid="false"
     inkscape:zoom="1.6796875"
     inkscape:cx="191.45082"
     inkscape:cy="256"
     inkscape:window-x="-8"
     inkscape:window-y="-8"
     inkscape:window-maximized="1"
     inkscape:current-layer="Layer_1" />
  <g
     id="g868"
     transform="translate(182.47563,189.63153)">
    <path
       style="fill:#ff2a2a;fill-rule:evenodd;stroke-width:6.51706;stroke-linecap:round;stroke-linejoin:round"
       d="m -159.04756,142.52334 0.20685,-92.42893 1.46647,-6.56688 c 5.22876,-23.41469 15.37577,-41.8138405 31.8102,-57.68011 21.91223,-21.15472 52.454713,-32.15884 81.736253,-29.44867 9.38917,0.86903 19.52083,3.01891 26.89926,5.7079 39.35454,14.34232 66.86306,49.99648 71.10612,92.16165 0.44412,4.41335 0.68436,37.32037 0.68436,93.7423 v 86.94167 H -52.196237 -159.25441 Z M 9.4319933,199.91026 c 3.4478197,-1.53068 8.0760497,-6.68105 9.0892397,-10.11465 1.14284,-3.87305 1.03508,-79.68175 -0.11792,-82.95686 -1.29815,-3.68739 -3.97996,-6.78276 -7.68,-8.86433 L 7.3250233,96.06262 -50.822077,95.88144 c -64.543843,-0.20108 -62.345503,-0.33468 -67.446733,4.09881 -1.47098,1.27843 -3.35494,3.7273 -4.18658,5.44194 l -1.51207,3.11752 -0.2016,37.10289 c -0.11088,20.40661 -0.0211,38.62246 0.19951,40.47967 0.83972,7.06918 6.45018,13.24617 13.28975,14.63172 1.58475,0.32104 28.63862,0.53759 60.119713,0.48126 54.2784503,-0.0972 57.3807403,-0.16567 59.9920803,-1.32499 z"
       id="path838" />
    <path
       style="fill:#ff2a2a;fill-rule:evenodd;stroke-width:6.8126;stroke-linecap:round;stroke-linejoin:round"
       d="m -119.88786,205.11515 c -5.68326,-1.33742 -9.92332,-4.69014 -13.05423,-10.32229 l -1.52932,-2.75109 V 146.87323 101.7047 l 2.04705,-2.842591 c 2.81754,-3.912529 7.59295,-7.821107 10.2894,-8.421666 1.2359,-0.275264 33.125493,-0.623177 70.86575,-0.773139 l 68.618643,-0.272658 4.457784,3.061269 c 2.81687,1.934416 5.166266,4.221163 6.382501,6.212282 l 1.924724,3.151013 v 45.86476 45.86475 l -2.731092,3.81679 c -4.208786,5.88189 -6.142614,7.00147 -13.354794,7.73166 -7.1712006,0.72606 -130.836966,0.74264 -133.916416,0.0179 z"
       id="path864" />
  </g>
  <path
     style="fill:#ffffff;fill-rule:evenodd;stroke-width:7.59777;stroke-linecap:round;stroke-linejoin:round"
     d="m 82.889253,333.64415 v -22.95853 h 42.637267 42.63729 v 22.95853 22.95855 H 125.52652 82.889253 Z"
     id="path850" />
  <path
     style="fill:#ffcc00;fill-rule:evenodd;stroke-width:7.4527;stroke-linecap:round;stroke-linejoin:round"
     d="M 373.89613,51.880325 V 25.045674 h 55.69868 c 30.63428,0 55.69869,0.223512 55.69869,0.496692 0,0.27318 -2.16493,4.735899 -4.81097,9.917152 -4.57774,8.963771 -4.82226,9.703269 -5.04404,15.254082 -0.21934,5.48986 -0.0649,6.200298 2.62024,12.056148 1.56933,3.42239 3.99674,8.410136 5.39427,11.083877 l 2.54096,4.86135 h -56.04892 -56.04891 z"
     id="path842" />
  <g
     id="g888"
     transform="matrix(1.0231752,0,0,1.0728881,398.63264,133.11501)">
    <path
       style="fill:#ff2a2a;fill-rule:evenodd;stroke-width:6.41543;stroke-linecap:round;stroke-linejoin:round"
       d="m -151.18553,191.21988 c -0.22634,-89.51588 -0.23554,-90.057 -1.65174,-97.293787 -5.85313,-29.90929 -18.90662,-53.96057 -40.61243,-74.82921 l -7.07555,-6.80265 h 73.54455 73.544533 l -0.16662,48.75856 -0.16661,48.758557 -3.59276,1.42066 c -10.88759,4.30522 -21.00421,14.00922 -26.26429,25.1931 -3.46078,7.35826 -4.53555,12.41258 -4.48632,21.0979 0.053,9.34811 1.47048,15.00109 5.83522,23.27056 2.5001,4.73673 4.19279,6.9132 8.97002,11.53372 10.79712,10.44296 21.61217,14.84896 36.44855,14.84896 14.66352,0 25.64793,-4.41523 36.15473044,-14.53255 C 7.9330735,184.32656 12.578263,175.35785 14.265893,163.74008 17.449423,141.82449 3.6505534,118.7774 -17.509567,110.66814 l -2.76422,-1.05933 V 60.946003 12.283183 l 3.73982,0.3654 c 17.9153304,1.75047 32.07271,5.73868 46.25861,13.0313 34.40261,17.68554 57.75141,50.46803 62.83893,88.227927 0.83198,6.17496 0.98272,19.56737 0.98272,87.31117 v 80.01745 H -28.705827 -150.95791 Z"
       id="path840" />
    <path
       style="fill:#ff2a2a;fill-rule:evenodd;stroke-width:16.8532;stroke-linecap:round;stroke-linejoin:round"
       d="m -46.096433,116.74535 -28.567703,-1.99579 V 63.223749 11.697907 l 28.567703,0.403969 c 15.712224,0.222186 29.05533,0.464324 29.651409,0.538071 0.595732,0.07371 0.595732,23.976688 0,53.117636 l -1.083737,52.983537 z"
       id="path878" />
    <path
       style="fill:#ff2a2a;fill-rule:evenodd;stroke-width:8.04565;stroke-linecap:round;stroke-linejoin:round"
       d="m -49.008702,225.80318 c -19.583083,-3.32735 -39.247275,-18.6031 -48.059995,-37.33446 -5.505743,-11.70241 -6.655873,-17.10688 -6.655873,-31.27599 0,-11.51468 0.17356,-13.0419 2.25255,-19.82054 3.954413,-12.89351 12.115463,-25.52764 21.820785,-33.78078 l 4.987099,-4.240877 28.275371,2.082947 c 15.551452,1.14564 29.564759,2.23769 31.140681,2.4268 l 2.865314,0.34386 0.533061,-5.319477 c 0.29318,-2.925719 0.703717,-5.319504 0.912288,-5.319504 0.208581,0 2.751645,1.332286 5.651248,2.960634 16.123456,9.054497 28.602514,26.810777 33.067066,47.050657 1.505917,6.82702 1.503971,21.22031 -0.0039,28.1716 -2.81523,12.97903 -8.71626,24.15271 -17.8275071,33.75666 -13.4780929,14.20692 -26.2553349,20.1201 -44.7960769,20.73115 -5.350699,0.17636 -11.723695,-0.0183 -14.162215,-0.43268 z"
       id="path882" />
  </g>
  <path
     style="fill:#000000;fill-rule:evenodd;stroke-width:7.5027;stroke-linecap:round;stroke-linejoin:round"
     d="m 356.0198,314.32937 c -1.86671,-0.56361 -5.1198,-2.31913 -7.2291,-3.90116 -10.38196,-7.78676 -10.35524,-20.94609 0.0584,-28.75661 8.68256,-6.51216 20.57481,-6.51216 29.25737,0 5.23939,3.9297 7.71011,8.55198 7.69724,14.4002 -0.0291,13.23875 -15.33368,22.62044 -29.7839,18.25757 z"
     id="path856" />
  <path
     style="fill:#ffffff;fill-rule:evenodd;stroke-width:5.95349;stroke-linecap:round;stroke-linejoin:round"
     d="m 250.57455,480.81183 c -9.37905,-2.71738 -16.37043,-9.64834 -18.66097,-18.4997 -0.61903,-2.39213 -0.91823,-6.32045 -0.91823,-12.05582 v -8.50747 h 25.96757 25.96758 l -0.27407,9.67442 c -0.23092,8.15113 -0.48268,10.21253 -1.59893,13.09199 -2.66901,6.88498 -8.58461,12.78674 -15.38876,15.35278 -4.23601,1.59752 -11.31099,2.0399 -15.09419,0.9438 z"
     id="path848"
     transform="scale(1.0016406)" />
  <path
     style="fill:#b3b3b3;fill-rule:evenodd;stroke-width:7.78207;stroke-linecap:round;stroke-linejoin:round"
     d="m 250.05264,492.18373 c -11.70942,-3.64461 -20.62079,-13.23333 -23.48989,-25.27532 -0.77642,-3.25873 -1.15169,-8.61017 -1.15169,-16.4233 v -11.58949 h 32.56975 32.56977 l -0.34375,13.17919 c -0.28963,11.10406 -0.6054,13.91224 -2.00546,17.83485 -3.34759,9.37921 -10.76722,17.41901 -19.30131,20.91466 -5.26994,2.15863 -14.20841,2.80334 -18.84742,1.35941 z"
     id="path852" />
  <g
     id="g6">
    <path
       d="m179.847 286.085h-101.717c-8.284 0-15 6.716-15 15v65.01c0 8.284 6.716 15 15 15h101.717c8.284 0 15-6.716 15-15v-65.01c0-8.284-6.716-15-15-15zm-15 65.01h-71.717v-35.01h71.717z"
       id="path4" />
    <path
       d="m377.888 128.456v-26.615h119.762c5.308 0 10.221-2.806 12.918-7.376 2.698-4.571 2.779-10.229.213-14.875l-15.86-28.723 15.835-28.438c2.587-4.646 2.521-10.313-.174-14.897s-7.614-7.399-12.932-7.399h-134.762c-8.284 0-15 6.716-15 15v113.262h-219.044c-.016 0-.032.002-.049.002-71.035.104-128.795 57.926-128.795 128.985v170.013c0 8.284 6.716 15 15 15h185.994v14.092c0 31.001 25.221 56.222 56.221 56.222 31.001 0 56.222-25.221 56.222-56.222v-14.092h184.403c8.284 0 15-6.716 15-15v-158.829c0-75.937-60.175-137.959-134.952-140.11zm0-98.324h94.241l-7.466 13.408c-2.517 4.521-2.526 10.019-.025 14.548l7.594 13.753h-94.344zm-15 248.111c9.364 0 16.982 7.618 16.982 16.982s-7.618 16.982-16.982 16.982-16.982-7.618-16.982-16.982 7.618-16.982 16.982-16.982zm-332.888-20.861c0-54.582 44.406-98.988 98.989-98.988s98.989 44.406 98.989 98.988v155.013h-197.978zm253.437 199.105c0 14.459-11.763 26.222-26.222 26.222-14.458 0-26.221-11.763-26.221-26.222v-14.092h52.443zm199.403-44.092h-224.862v-155.013c0-39.725-18.056-75.308-46.386-98.988h136.297v92.319c-18.57 6.275-31.982 23.851-31.982 44.513 0 25.906 21.076 46.982 46.982 46.982s46.982-21.076 46.982-46.982c0-20.661-13.412-38.237-31.982-44.513v-92.237c58.231 2.144 104.952 50.7 104.952 110.089v143.83z"
       id="path2" />
  </g>
</svg>
