<svg height="512pt" viewBox="0 -21 512.00518 512" width="512pt" xmlns="http://www.w3.org/2000/svg"><path d="m448.003906 417.355469c-.425781 2.988281-2.132812 5.761719-4.691406 7.679687l-64 42.667969c-1.707031 1.066406-3.839844 1.707031-5.972656 1.707031h-362.667969c-2.988281 0-5.546875-1.28125-7.679687-2.988281l254.933593-254.933594 187.09375 197.332031c2.132813 2.136719 3.199219 5.335938 2.984375 8.535157zm0 0" fill="#ffa000"/><path d="m257.925781 211.488281-254.933593 254.933594c-1.707032-2.132813-2.98828175-4.691406-2.98828175-7.679687v-384c0-2.132813.64062475-4.265626 1.70703175-5.972657l42.667968-64c1.917969-2.5625 4.90625-4.480469 8.105469-4.6953122 3.199219-.4257808 6.402344 1.0664062 8.535156 3.4140622zm0 0" fill="#ffb300"/><path d="m437.339844.0742188h-384c-5.890625 0-10.667969 4.7812502-10.667969 10.6679692v405.332031c0 5.890625 4.777344 10.667969 10.667969 10.667969h384c5.886718 0 10.664062-4.777344 10.664062-10.667969v-405.332031c0-5.886719-4.777344-10.6679692-10.664062-10.6679692zm0 0" fill="#ffc107"/><path d="m507.226562 364.511719c-62.355468-41.320313-60.886718-179.796875-59.582031-301.992188.167969-17.582031.359375-34.925781.359375-51.777343 0-5.886719-4.777344-10.6679692-10.664062-10.6679692h-384c-5.890625 0-10.667969 4.7812502-10.667969 10.6679692 0 145.195312 10.238281 318.632812 90.113281 371.5625 1.75 1.152343 3.796875 1.769531 5.886719 1.769531h362.667969c4.714844 0 8.851562-3.09375 10.21875-7.59375 1.34375-4.5-.40625-9.363281-4.332032-11.96875zm0 0" fill="#ffd54f"/><path d="m437.339844 426.742188h-384c-5.890625 0-10.667969-4.777344-10.667969-10.667969v-405.332031c0-5.886719 4.777344-10.6679692 10.667969-10.6679692h384c5.886718 0 10.664062 4.7812502 10.664062 10.6679692 0 5.886718-4.777344 10.667968-10.664062 10.667968h-373.335938v384h362.667969v-32c0-5.890625 4.777344-10.667968 10.667969-10.667968 5.886718 0 10.664062 4.777343 10.664062 10.667968v42.664063c0 5.890625-4.777344 10.667969-10.664062 10.667969zm0 0"/><path d="m373.339844 469.410156h-362.667969c-5.886719 0-10.66796875-4.78125-10.66796875-10.667968v-384c0-2.113282.62109375-4.160157 1.79296875-5.910157l42.667969-64c3.261718-4.9062498 9.855468-6.230469 14.78125-2.964843 4.910156 3.265624 6.230468 9.898437 2.96875 14.785156l-40.875 61.3125v370.109375h348.777344l61.3125-40.875c4.886718-3.261719 11.519531-1.960938 14.785156 2.964843 3.261718 4.886719 1.941406 11.523438-2.96875 14.785157l-64 42.667969c-1.746094 1.171874-3.796875 1.792968-5.90625 1.792968zm0 0"/><path d="m10.671875 469.410156c-2.730469 0-5.460937-1.046875-7.550781-3.117187-4.160156-4.160157-4.160156-10.921875 0-15.082031l42.664062-42.667969c4.160156-4.160157 10.925782-4.160157 15.085938 0 4.160156 4.160156 4.160156 10.925781 0 15.085937l-42.667969 42.664063c-2.070313 2.070312-4.800781 3.117187-7.53125 3.117187zm0 0"/><path d="m501.339844 384.074219h-362.667969c-2.089844 0-4.136719-.617188-5.886719-1.769531-79.875-52.929688-90.113281-226.367188-90.113281-371.5625 0-5.886719 4.777344-10.6679692 10.667969-10.6679692 5.886718 0 10.664062 4.7812502 10.664062 10.6679692 0 138.15625 8.941406 302.421874 77.996094 352h331.710938c-49.941407-59.457032-48.660157-181.761719-47.402344-300.4375.171875-17.515626.363281-34.792969.363281-51.5625 0-5.886719 4.777344-10.6679692 10.667969-10.6679692 5.886718 0 10.664062 4.7812502 10.664062 10.6679692 0 16.832031-.191406 34.195312-.359375 51.777343-1.304687 122.195313-2.753906 260.691407 59.582031 301.992188 3.925782 2.605469 5.675782 7.46875 4.308594 11.988281-1.34375 4.480469-5.480468 7.574219-10.195312 7.574219zm0 0"/></svg>