<?xml version="1.0" encoding="iso-8859-1"?>
<!-- Generator: Adobe Illustrator 19.0.0, SVG Export Plug-In . SVG Version: 6.00 Build 0)  -->
<svg version="1.1" id="Capa_1" xmlns="http://www.w3.org/2000/svg" xmlns:xlink="http://www.w3.org/1999/xlink" x="0px" y="0px"
	 viewBox="0 0 497.371 497.371" style="enable-background:new 0 0 497.371 497.371;" xml:space="preserve">
<rect x="16.091" y="14.629" style="fill:#FFCA19;" width="465.189" height="98.011"/>
<rect x="42.423" y="112.64" style="fill:#FFFFFF;" width="412.526" height="266.24"/>
<g style="opacity:0.1;">
	<rect x="42.423" y="112.64" style="fill:#030303;" width="412.526" height="46.811"/>
</g>
<g>
	<path style="fill:#030303;" d="M481.28,127.269H16.091c-8.777,0-14.629-5.851-14.629-14.629V14.629C1.463,5.851,7.314,0,16.091,0
		H481.28c8.777,0,14.629,5.851,14.629,14.629v98.011C495.909,119.954,488.594,127.269,481.28,127.269z M30.72,98.011h435.931V29.257
		H30.72V98.011z"/>
	<path style="fill:#030303;" d="M454.949,393.509H42.423c-8.777,0-14.629-5.851-14.629-14.629V112.64
		c0-8.777,5.851-14.629,14.629-14.629h412.526c8.777,0,14.629,5.851,14.629,14.629v266.24
		C469.577,386.194,462.263,393.509,454.949,393.509z M57.051,364.251H440.32V127.269H57.051V364.251z"/>
	<path style="fill:#030303;" d="M248.686,433.006c-8.777,0-14.629-5.851-14.629-14.629V378.88c0-8.777,5.851-14.629,14.629-14.629
		c8.777,0,14.629,5.851,14.629,14.629v39.497C263.314,425.691,257.463,433.006,248.686,433.006z"/>
	<path style="fill:#030303;" d="M248.686,497.371c-26.331,0-46.811-20.48-46.811-46.811s20.48-46.811,46.811-46.811
		s46.811,20.48,46.811,46.811C295.497,476.891,275.017,497.371,248.686,497.371z M248.686,433.006
		c-10.24,0-17.554,7.314-17.554,17.554c0,10.24,7.314,17.554,17.554,17.554c10.24,0,17.554-7.314,17.554-17.554
		C266.24,440.32,258.926,433.006,248.686,433.006z"/>
	<path style="fill:#030303;" d="M155.063,333.531c-8.777,0-14.629-5.851-14.629-14.629v-58.514c0-8.777,5.851-14.629,14.629-14.629
		s14.629,5.851,14.629,14.629v58.514C169.691,326.217,163.84,333.531,155.063,333.531z"/>
	<path style="fill:#030303;" d="M217.966,333.531c-8.777,0-14.629-5.851-14.629-14.629v-102.4c0-8.777,5.851-14.629,14.629-14.629
		s14.629,5.851,14.629,14.629v102.4C232.594,326.217,225.28,333.531,217.966,333.531z"/>
	<path style="fill:#030303;" d="M279.406,333.531c-8.777,0-14.629-5.851-14.629-14.629V172.617c0-8.777,5.851-14.629,14.629-14.629
		c8.777,0,14.629,5.851,14.629,14.629v146.286C294.034,326.217,288.183,333.531,279.406,333.531z"/>
	<path style="fill:#030303;" d="M342.309,333.531c-8.777,0-14.629-5.851-14.629-14.629V201.874c0-8.777,5.851-14.629,14.629-14.629
		c8.777,0,14.629,5.851,14.629,14.629v117.029C356.937,326.217,349.623,333.531,342.309,333.531z"/>
</g>
<g>
</g>
<g>
</g>
<g>
</g>
<g>
</g>
<g>
</g>
<g>
</g>
<g>
</g>
<g>
</g>
<g>
</g>
<g>
</g>
<g>
</g>
<g>
</g>
<g>
</g>
<g>
</g>
<g>
</g>
</svg>
