<?xml version="1.0" encoding="iso-8859-1"?>
<!-- Generator: Adobe Illustrator 19.0.0, SVG Export Plug-In . SVG Version: 6.00 Build 0)  -->
<svg version="1.1" id="Capa_1" xmlns="http://www.w3.org/2000/svg" xmlns:xlink="http://www.w3.org/1999/xlink" x="0px" y="0px"
	 viewBox="0 0 498.103 498.103" style="enable-background:new 0 0 498.103 498.103;" xml:space="preserve">
<path style="fill:#849DA9;" d="M162.918,363.52l-78.994,40.96c-5.851,2.926-13.166,2.926-17.554-1.463
	c-32.183-23.406-32.183-83.383-32.183-96.549c0-1.463,0-2.926,1.463-4.389c13.166-40.96,83.383-65.829,102.4-71.68
	C136.586,275.749,145.364,322.56,162.918,363.52z"/>
<path style="fill:#FFCA19;" d="M316.518,401.554c71.68-117.029,57.051-272.091-43.886-373.029l-5.851-5.851
	c-10.24-10.24-24.869-10.24-35.109,0l-5.851,5.851c-100.937,100.937-115.566,256-43.886,373.029H316.518z"/>
<g style="opacity:0.1;">
	<path style="fill:#030303;" d="M281.409,37.303c-19.017,7.314-162.377,174.08-61.44,364.251h-38.034
		c-71.68-117.029-57.051-272.091,43.886-374.491l5.851-4.389c10.24-10.24,24.869-10.24,35.109,0l5.851,5.851
		C275.558,31.451,278.484,34.377,281.409,37.303z"/>
</g>
<circle style="fill:#FFFFFF;" cx="249.226" cy="161.646" r="40.96"/>
<g style="opacity:0.1;">
	<path style="fill:#030303;" d="M287.261,145.554c-4.389-1.463-8.777-2.926-13.166-2.926c-23.406,0-40.96,19.017-40.96,40.96
		c0,5.851,1.463,10.24,2.926,16.091c-16.091-5.851-27.794-20.48-27.794-39.497c0-23.406,19.017-40.96,40.96-40.96
		C266.781,120.686,281.409,130.926,287.261,145.554z"/>
</g>
<path style="fill:#849DA9;" d="M432.084,404.48c-4.389,2.926-11.703,4.389-17.554,1.463l-78.994-40.96
	c19.017-42.423,26.331-87.771,24.869-133.12c20.48,5.851,89.234,30.72,102.4,71.68c0,1.463,1.463,2.926,1.463,4.389
	C464.267,321.097,464.267,382.537,432.084,404.48z"/>
<g style="opacity:0.1;">
	<path style="fill:#030303;" d="M370.644,382.537l45.349,24.869c-1.463,0-1.463,0-1.463-1.463l-78.994-40.96
		c19.017-42.423,26.331-87.771,24.869-133.12c11.703,2.926,39.497,13.166,64.366,29.257c-11.703-5.851-23.406-8.777-29.257-10.24
		C396.975,294.766,388.198,340.114,370.644,382.537z"/>
</g>
<g style="opacity:0.1;">
	<path style="fill:#030303;" d="M127.809,382.537l-45.349,24.869c1.463,0,1.463,0,1.463-1.463l78.994-40.96
		c-19.017-42.423-26.331-87.771-24.869-133.12c-11.703,2.926-39.497,13.166-64.366,29.257c11.703-5.851,23.406-8.777,29.257-10.24
		C101.478,294.766,110.255,340.114,127.809,382.537z"/>
</g>
<polygon style="fill:#F1594C;" points="313.592,483.474 184.861,483.474 219.969,401.554 279.947,401.554 "/>
<path d="M316.518,416.183h-133.12c-4.389,0-10.24-2.926-13.166-7.314c-77.531-125.806-58.514-286.72,46.811-392.046l5.851-5.851
	c14.629-14.629,39.497-14.629,55.589,0l5.851,5.851c103.863,103.863,122.88,264.777,46.811,392.046
	C325.295,413.257,320.906,416.183,316.518,416.183z M190.712,386.926h117.029c65.829-112.64,46.811-256-45.349-348.16l-5.851-5.851
	c-2.926-2.926-10.24-2.926-13.166,0l-5.851,5.851C143.901,130.926,124.884,272.823,190.712,386.926z"/>
<path d="M249.226,217.234c-30.72,0-55.589-24.869-55.589-55.589s24.869-55.589,55.589-55.589s55.589,24.869,55.589,55.589
	S279.947,217.234,249.226,217.234z M249.226,135.314c-14.629,0-26.331,11.703-26.331,26.331s11.703,26.331,26.331,26.331
	c14.629,0,26.331-11.703,26.331-26.331S263.855,135.314,249.226,135.314z"/>
<path d="M423.306,422.034c-5.851,0-10.24-1.463-14.629-4.389l-78.994-40.96c-7.314-2.926-10.24-11.703-7.314-19.017
	c17.554-39.497,24.869-83.383,23.406-125.806c0-4.389,1.463-8.777,5.851-11.703c4.389-2.926,8.777-4.389,13.166-2.926
	c29.257,8.777,98.011,35.109,112.64,81.92c1.463,2.926,1.463,5.851,1.463,7.314c0,20.48-1.463,83.383-38.034,109.714
	C435.009,420.571,429.158,422.034,423.306,422.034z M354.552,357.669l68.754,36.571c0,0,0,0,1.463,0
	c20.48-14.629,26.331-54.126,26.331-84.846c-7.314-23.406-40.96-43.886-74.606-57.051
	C373.569,287.451,367.718,324.023,354.552,357.669z"/>
<path d="M75.146,422.034c-5.851,0-13.166-1.463-17.554-5.851c-38.034-26.331-39.497-90.697-38.034-109.714
	c0-2.926,0-5.851,1.463-8.777c16.091-48.274,90.697-74.606,112.64-81.92c4.389-1.463,8.777,0,13.166,2.926
	c4.389,2.926,5.851,7.314,5.851,11.703c-1.463,42.423,7.314,86.309,23.406,125.806c2.926,7.314,0,14.629-7.314,19.017l-78.994,40.96
	C86.849,420.571,80.998,422.034,75.146,422.034z M123.421,252.343c-32.183,13.166-67.291,32.183-74.606,55.589
	c-1.463,30.72,5.851,70.217,26.331,84.846h1.463h1.463l67.291-35.109C132.198,324.023,124.884,287.451,123.421,252.343z"/>
<path d="M315.055,498.103L315.055,498.103H184.861c-4.389,0-8.777-2.926-11.703-5.851c-2.926-4.389-2.926-8.777-1.463-13.166
	l35.109-81.92c2.926-5.851,7.314-8.777,13.166-8.777h59.977c5.851,0,11.703,2.926,13.166,8.777l33.646,80.457
	c1.463,2.926,2.926,5.851,2.926,8.777C329.684,492.251,322.369,498.103,315.055,498.103z M206.804,468.846h84.846l-21.943-52.663
	h-40.96L206.804,468.846z"/>
<g>
</g>
<g>
</g>
<g>
</g>
<g>
</g>
<g>
</g>
<g>
</g>
<g>
</g>
<g>
</g>
<g>
</g>
<g>
</g>
<g>
</g>
<g>
</g>
<g>
</g>
<g>
</g>
<g>
</g>
</svg>
