<?xml version="1.0" encoding="UTF-8" standalone="no"?>
<svg
   xmlns:dc="http://purl.org/dc/elements/1.1/"
   xmlns:cc="http://creativecommons.org/ns#"
   xmlns:rdf="http://www.w3.org/1999/02/22-rdf-syntax-ns#"
   xmlns:svg="http://www.w3.org/2000/svg"
   xmlns="http://www.w3.org/2000/svg"
   xmlns:sodipodi="http://sodipodi.sourceforge.net/DTD/sodipodi-0.dtd"
   xmlns:inkscape="http://www.inkscape.org/namespaces/inkscape"
   version="1.1"
   id="Capa_1"
   x="0px"
   y="0px"
   viewBox="0 0 496.988 496.988"
   style="enable-background:new 0 0 496.988 496.988;"
   xml:space="preserve"
   sodipodi:docname="search.svg"
   inkscape:version="1.0.1 (3bc2e813f5, 2020-09-07)"><metadata
   id="metadata57"><rdf:RDF><cc:Work
       rdf:about=""><dc:format>image/svg+xml</dc:format><dc:type
         rdf:resource="http://purl.org/dc/dcmitype/StillImage" /></cc:Work></rdf:RDF></metadata><defs
   id="defs55" /><sodipodi:namedview
   pagecolor="#ffffff"
   bordercolor="#666666"
   borderopacity="1"
   objecttolerance="10"
   gridtolerance="10"
   guidetolerance="10"
   inkscape:pageopacity="0"
   inkscape:pageshadow="2"
   inkscape:window-width="1920"
   inkscape:window-height="1027"
   id="namedview53"
   showgrid="false"
   inkscape:zoom="1.7304241"
   inkscape:cx="248.494"
   inkscape:cy="248.494"
   inkscape:window-x="-8"
   inkscape:window-y="-8"
   inkscape:window-maximized="1"
   inkscape:current-layer="Capa_1" />
<path
   style="fill:#A5C3D1;"
   d="M202.469,13.2c-102.4,0-185.8,81.9-187.2,184.3c-1.5,102.4,81.9,185.8,184.3,187.2  s185.7-81.9,187.2-184.3C386.769,98,304.869,14.6,202.469,13.2z M199.569,317.5c-65.8,0-118.5-54.1-117-120  c0-65.8,54.1-118.5,118.5-117s118.5,54.1,117,120C318.069,264.8,265.369,317.5,199.569,317.5z"
   id="path2" />
<path
   style="fill:#849DA9;"
   d="M202.469,13.2c-102.4,0-185.8,81.9-187.2,184.3c0,46.8,17.6,90.7,46.8,124.3c0-1.5,0-2.9,0-5.9  c0-35.1,8.8-67.3,23.4-96.5c-1.5-7.3-1.5-14.6-1.5-21.9c0-65.8,54.1-118.5,118.5-117c20.5,0,41,5.9,58.5,16.1  c7.3-1.5,16.1-1.5,24.9-1.5c27.8,0,52.7,5.9,76.1,14.6C331.169,52.7,271.169,14.6,202.469,13.2z"
   id="path4" />
<path
   d="M200.969,399.4h-1.5c-111.1,0-198.9-90.7-198.9-200.4c1.5-109.8,90.7-199,200.4-199h1.5c109.7,1.5,198.9,90.7,197.5,201.9  C399.969,311.6,310.669,399.4,200.969,399.4z M202.469,29.3c-95.1,0-171.2,76.1-172.6,169.7c-1.5,93.6,74.6,171.2,169.7,172.6h1.5  c93.6,0,169.7-76.1,169.7-169.7C372.169,106.8,296.069,30.7,202.469,29.3z"
   id="path6" />
<g
   style="opacity:0.4;"
   id="g10">
	<path
   style="fill:#C0D0D6;"
   d="M266.869,101c-80.5,11.7-147.8,67.2-175.6,141.8c-5.9-14.6-8.8-29.3-8.8-45.3   c0-65.8,54.1-118.5,118.5-117C225.869,80.5,247.769,87.8,266.869,101z"
   id="path8" />
</g>
<path
   style="fill:#E09C49;"
   d="M468.669,469.6L468.669,469.6c-19,17.6-48.3,17.6-65.8,0l-64.4-65.8l65.8-65.8l64.4,65.8  C487.669,421.3,487.669,452,468.669,469.6z"
   id="path12" />
<path
   style="fill:#9B6327;"
   d="M369.269,373l-30.7,29.3l64.4,65.8c17.6,17.6,45.3,19,64.4,2.9L369.269,373z"
   id="path14" />
<path
   d="M392.669,478.4l-64.4-65.9c-5.9-5.9-5.9-14.6,0-20.5l65.8-65.8c2.9-2.9,5.9-4.4,10.2-4.4c4.4,0,7.3,1.5,10.2,4.4l64.4,65.8  c23.4,23.4,23.4,62.9,0,86.3C455.569,503.2,417.469,503.2,392.669,478.4z M360.469,403.8l54.1,55.6c11.7,11.7,32.2,11.7,45.3,0  c13.2-11.7,13.2-32.2,0-45.3l-54.1-55.6L360.469,403.8z"
   id="path16" />
<path
   d="M200.969,332.1C200.969,332.1,199.569,332.1,200.969,332.1c-74.6,0-133.1-61.4-133.1-134.6s60-131.7,133.1-131.7  c74.6,0,133.1,61.4,133.1,134.6C332.669,273.6,274.169,332.1,200.969,332.1z M200.969,95.1c-57.1,0-103.9,46.8-103.9,102.4  c0,57.1,45.3,103.9,102.4,103.9h1.5c57.1,0,102.4-46.8,103.9-102.4C304.869,143.4,258.069,95.1,200.969,95.1z"
   id="path18" />
<path
   d="M361.869,381.8l-39.5-39.5c-5.9-5.9-5.9-14.6,0-20.5s14.6-5.9,20.5,0l39.5,39.5c5.9,5.9,5.9,14.6,0,20.5  C376.569,387.7,367.769,387.7,361.869,381.8z"
   id="path20" />
<g
   id="g22">
</g>
<g
   id="g24">
</g>
<g
   id="g26">
</g>
<g
   id="g28">
</g>
<g
   id="g30">
</g>
<g
   id="g32">
</g>
<g
   id="g34">
</g>
<g
   id="g36">
</g>
<g
   id="g38">
</g>
<g
   id="g40">
</g>
<g
   id="g42">
</g>
<g
   id="g44">
</g>
<g
   id="g46">
</g>
<g
   id="g48">
</g>
<g
   id="g50">
</g>
<path
   style="fill:#ffffff;fill-rule:evenodd;stroke:#ffffff;stroke-width:0.577893;stroke-linecap:round;stroke-linejoin:round"
   d="m 188.01078,300.44995 c -40.59741,-4.73174 -74.80206,-33.84598 -86.39756,-73.53969 l -1.32505,-4.53589 2.29971,-4.40654 c 6.12259,-11.73171 15.16796,-25.46837 24.2085,-36.76399 5.6001,-6.99699 19.92503,-21.74961 27.50106,-28.32214 22.68519,-19.68038 50.238,-35.0262 78.82308,-43.90132 12.18053,-3.78182 11.38495,-3.75386 17.11229,-0.60144 24.86068,13.68369 44.23977,38.74491 51.17524,66.18032 5.89788,23.33089 3.26233,45.41411 -8.16863,68.44476 -5.65787,11.39924 -10.41065,17.96093 -19.89587,27.46821 -9.29186,9.31347 -15.82835,14.08441 -26.87217,19.6138 -11.86225,5.93915 -21.81444,8.92196 -34.67358,10.39213 -6.00341,0.68636 -17.77593,0.6724 -23.78702,-0.0282 z"
   id="path882" /></svg>
