<?xml version="1.0" encoding="iso-8859-1"?>
<!-- Generator: Adobe Illustrator 19.0.0, SVG Export Plug-In . SVG Version: 6.00 Build 0)  -->
<svg version="1.1" id="Capa_1" xmlns="http://www.w3.org/2000/svg" xmlns:xlink="http://www.w3.org/1999/xlink" x="0px" y="0px"
	 viewBox="0 0 497.371 497.371" style="enable-background:new 0 0 497.371 497.371;" xml:space="preserve">
<path style="fill:#A5C3D1;" d="M431.543,289.646c-4.389,21.943-13.166,42.423-24.869,59.977l29.257,42.423l-45.349,45.349
	l-42.423-29.257c-17.554,11.703-38.034,20.48-59.977,24.869l-8.777,51.2h-62.903l-8.777-52.663
	c-21.943-4.389-42.423-13.166-59.977-24.869l-42.423,29.257l-45.349-45.349l29.257-42.423
	c-11.703-17.554-20.48-38.034-24.869-59.977l-51.2-8.777V215.04l51.2-8.777c4.389-21.943,13.166-42.423,24.869-59.977
	l-29.257-42.423l45.349-45.349l42.423,29.257c17.554-11.703,38.034-20.48,59.977-24.869l8.777-51.2h62.903l10.24,54.126
	c21.943,4.389,42.423,13.166,59.977,24.869l42.423-29.257l45.349,45.349l-29.257,42.423c11.703,17.554,20.48,38.034,24.869,59.977
	l51.2,8.777v64.366L431.543,289.646z"/>
<g style="opacity:0.1;">
	<path style="fill:#030303;" d="M437.394,105.326l-26.331,38.034c-19.017-4.389-38.034-7.314-57.051-7.314
		C212.114,137.509,99.474,250.149,99.474,390.583c0,14.629,1.463,30.72,4.389,45.349l-43.886-42.423l29.257-42.423
		c-11.703-17.554-20.48-38.034-24.869-59.977l-51.2-8.777v-64.366l51.2-8.777c4.389-21.943,13.166-42.423,24.869-59.977
		l-29.257-42.423l45.349-45.349l42.423,29.257c17.554-11.703,38.034-20.48,59.977-24.869l8.777-51.2h62.903l10.24,51.2
		c21.943,4.389,42.423,13.166,59.977,24.869l42.423-29.257L437.394,105.326z"/>
</g>
<path style="fill:#030303;" d="M280.869,497.371h-62.903c-7.314,0-13.166-4.389-14.629-11.703l-7.314-40.96
	c-16.091-4.389-32.183-11.703-46.811-19.017l-33.646,23.406c-5.851,4.389-13.166,2.926-19.017-1.463l-46.811-45.349
	c-4.389-4.389-5.851-13.166-1.463-19.017L71.68,348.16c-8.777-14.629-14.629-30.72-19.017-46.811l-40.96-7.314
	C4.389,292.571,0,286.72,0,279.406V215.04c0-7.314,4.389-13.166,11.703-14.629l40.96-7.314
	c4.389-16.091,11.703-32.183,19.017-46.811l-23.406-32.183c-2.926-5.851-2.926-13.166,1.463-19.017l45.349-45.349
	c4.389-4.389,13.166-5.851,19.017-1.463l33.646,23.406c14.629-8.777,30.72-14.629,46.811-19.017l7.314-40.96
	C203.337,4.389,209.189,0,216.503,0h62.903c7.314,0,13.166,4.389,14.629,11.703l7.314,40.96
	c16.091,4.389,32.183,11.703,46.811,19.017l33.646-23.406c5.851-4.389,13.166-2.926,19.017,1.463l46.811,45.349
	c4.389,4.389,5.851,13.166,1.463,19.017l-23.406,35.109c8.777,14.629,14.629,30.72,19.017,46.811l40.96,7.314
	c7.314,1.463,11.703,7.314,11.703,14.629v64.366c0,7.314-4.389,13.166-11.703,14.629l-40.96,7.314
	c-4.389,16.091-11.703,32.183-19.017,46.811l23.406,35.109c4.389,5.851,2.926,13.166-1.463,19.017l-45.349,42.423
	c-4.389,4.389-13.166,5.851-19.017,1.463l-33.646-23.406c-14.629,8.777-30.72,14.629-46.811,19.017l-7.314,40.96
	C294.034,492.983,288.183,497.371,280.869,497.371z M229.669,468.114h39.497l7.314-38.034c1.463-5.851,5.851-10.24,11.703-11.703
	c20.48-4.389,38.034-11.703,55.589-23.406c4.389-2.926,11.703-2.926,16.091,0l32.183,21.943l27.794-27.794l-24.869-30.72
	c-2.926-4.389-2.926-11.703,0-16.091c10.24-17.554,19.017-35.109,23.406-55.589c1.463-5.851,5.851-10.24,11.703-11.703l38.034-7.314
	v-39.497l-38.034-7.314c-5.851-1.463-10.24-5.851-11.703-11.703c-4.389-19.017-11.703-38.034-23.406-55.589
	c-2.926-4.389-2.926-11.703,0-16.091l21.943-32.183L389.12,77.531L358.4,102.4c-4.389,2.926-11.703,2.926-16.091,0
	C324.754,92.16,307.2,83.383,286.72,78.994c-5.851-1.463-10.24-5.851-11.703-11.703l-7.314-38.034h-39.497l-7.314,38.034
	c-1.463,5.851-5.851,10.24-11.703,11.703c-20.48,4.389-38.034,11.703-55.589,23.406c-4.389,2.926-11.703,2.926-16.091,0
	l-30.72-23.406l-27.794,27.794l23.406,32.183c2.926,4.389,2.926,11.703,0,16.091c-10.24,17.554-19.017,35.109-23.406,55.589
	c-1.463,5.851-5.851,10.24-11.703,11.703l-38.034,7.314v39.497l38.034,7.314c5.851,1.463,10.24,5.851,11.703,11.703
	c4.389,19.017,11.703,38.034,23.406,55.589c2.926,4.389,2.926,11.703,0,16.091l-21.943,32.183l27.794,27.794l32.183-21.943
	c4.389-2.926,11.703-2.926,16.091,0c17.554,10.24,35.109,19.017,55.589,23.406c5.851,1.463,10.24,5.851,11.703,11.703
	L229.669,468.114z"/>
<circle style="fill:#FFFFFF;" cx="248.686" cy="248.686" r="76.069"/>
<g style="opacity:0.1;">
	<path style="fill:#030303;" d="M317.44,215.04c-8.777-4.389-19.017-5.851-29.257-5.851c-42.423,0-76.069,33.646-76.069,76.069
		c0,11.703,2.926,23.406,8.777,33.646c-27.794-11.703-46.811-39.497-46.811-70.217c0-42.423,33.646-76.069,76.069-76.069
		C277.943,172.617,304.274,190.171,317.44,215.04z"/>
</g>
<path style="fill:#030303;" d="M248.686,339.383c-49.737,0-90.697-40.96-90.697-90.697s40.96-90.697,90.697-90.697
	s90.697,40.96,90.697,90.697S298.423,339.383,248.686,339.383z M248.686,187.246c-33.646,0-61.44,27.794-61.44,61.44
	s27.794,61.44,61.44,61.44s61.44-27.794,61.44-61.44S282.331,187.246,248.686,187.246z"/>
<g>
</g>
<g>
</g>
<g>
</g>
<g>
</g>
<g>
</g>
<g>
</g>
<g>
</g>
<g>
</g>
<g>
</g>
<g>
</g>
<g>
</g>
<g>
</g>
<g>
</g>
<g>
</g>
<g>
</g>
</svg>
