<?xml version="1.0" encoding="iso-8859-1"?>
<!-- Generator: Adobe Illustrator 19.0.0, SVG Export Plug-In . SVG Version: 6.00 Build 0)  -->
<svg version="1.1" id="Capa_1" xmlns="http://www.w3.org/2000/svg" xmlns:xlink="http://www.w3.org/1999/xlink" x="0px" y="0px"
	 viewBox="0 0 497.371 497.371" style="enable-background:new 0 0 497.371 497.371;" xml:space="preserve">
<circle style="fill:#FFFFFF;" cx="249.417" cy="245.029" r="171.154"/>
<path style="fill:#030303;" d="M249.417,430.811c-102.4,0-185.783-83.383-185.783-185.783S147.017,59.246,249.417,59.246
	S435.2,142.629,435.2,245.029S351.817,430.811,249.417,430.811z M249.417,88.503c-86.309,0-156.526,70.217-156.526,156.526
	s70.217,156.526,156.526,156.526s156.526-70.217,156.526-156.526S335.726,88.503,249.417,88.503z"/>
<path style="fill:#C0D0D6;" d="M359.131,245.029v55.589c0,11.703-8.777,20.48-20.48,20.48h-43.886v89.234
	c-14.629,4.389-29.257,5.851-45.349,5.851s-30.72-1.463-45.349-5.851v-89.234h-43.886c-11.703,0-20.48-8.777-20.48-20.48v-55.589
	c0-11.703,8.777-20.48,20.48-20.48h178.469C348.891,224.549,359.131,233.326,359.131,245.029z"/>
<g style="opacity:0.1;">
	<path style="fill:#030303;" d="M357.669,240.64c-11.703-2.926-23.406-4.389-35.109-4.389c-57.051,0-103.863,35.109-122.88,84.846
		h-39.497c-11.703,0-20.48-8.777-20.48-20.48v-55.589c0-11.703,8.777-20.48,20.48-20.48h178.469
		C347.429,224.549,356.206,231.863,357.669,240.64z"/>
</g>
<ellipse style="fill:#F6E272;" cx="253.806" cy="155.794" rx="48.274" ry="46.811"/>
<circle style="fill:#F15E75;" cx="51.931" cy="50.469" r="36.571"/>
<circle style="fill:#FFCA19;" cx="446.903" cy="50.469" r="36.571"/>
<circle style="fill:#08A650;" cx="446.903" cy="445.44" r="36.571"/>
<circle style="fill:#FFFFFF;" cx="51.931" cy="445.44" r="36.571"/>
<path style="fill:#010101;" d="M253.806,217.234c-35.109,0-62.903-27.794-62.903-61.44s27.794-61.44,62.903-61.44
	s62.903,27.794,62.903,61.44C315.246,189.44,287.451,217.234,253.806,217.234z M253.806,122.149
	c-19.017,0-33.646,14.629-33.646,32.183s14.629,32.183,33.646,32.183s33.646-14.629,33.646-32.183S271.36,122.149,253.806,122.149z"
	/>
<path id="SVGCleanerId_0" style="fill:#010101;" d="M249.417,430.811c-16.091,0-32.183-1.463-48.274-5.851
	c-5.851-1.463-10.24-7.314-10.24-14.629v-74.606h-29.257c-19.017,0-35.109-16.091-35.109-35.109v-55.589
	c0-19.017,16.091-35.109,35.109-35.109h178.469c19.017,0,35.109,16.091,35.109,35.109v55.589c0,19.017-16.091,35.109-35.109,35.109
	h-29.257v74.606c0,7.314-4.389,11.703-10.24,14.629C281.6,427.886,265.509,430.811,249.417,430.811z M218.697,398.629
	c19.017,4.389,40.96,4.389,59.977,0v-77.531c0-8.777,5.851-14.629,14.629-14.629h43.886c2.926,0,5.851-2.926,5.851-5.851v-55.589
	c0-2.926-2.926-5.851-5.851-5.851H160.183c-2.926,0-5.851,2.926-5.851,5.851v55.589c0,2.926,2.926,5.851,5.851,5.851h43.886
	c8.777,0,14.629,5.851,14.629,14.629V398.629z"/>
<path style="fill:#030303;" d="M15.36,87.04c-20.48-20.48-20.48-52.663,0-71.68c19.017-19.017,52.663-19.017,73.143,0
	c20.48,20.48,20.48,52.663,0,71.68S35.84,106.057,15.36,87.04z M35.84,34.377c-7.314,8.777-7.314,23.406,0,30.72
	c8.777,8.777,23.406,8.777,30.72,0c8.777-8.777,8.777-21.943,0-30.72C59.246,25.6,44.617,25.6,35.84,34.377z"/>
<rect id="SVGCleanerId_1" x="67.855" y="85.505" transform="matrix(-0.707 -0.7072 0.7072 -0.707 102.447 242.711)" style="fill:#030303;" width="67.291" height="29.257"/>
<path style="fill:#030303;" d="M410.331,87.04c-20.48-20.48-20.48-52.663,0-71.68c19.017-19.017,52.663-19.017,71.68,0
	c20.48,20.48,20.48,52.663,0,71.68C462.994,106.057,430.811,106.057,410.331,87.04z M430.811,34.377
	c-8.777,8.777-8.777,21.943,0,30.72c8.777,8.777,23.406,8.777,30.72,0c8.777-8.777,8.777-21.943,0-30.72
	C454.217,25.6,439.589,25.6,430.811,34.377z"/>
<rect id="SVGCleanerId_2" x="382.353" y="66.509" transform="matrix(-0.7071 -0.7071 0.7071 -0.7071 606.8702 451.6829)" style="fill:#030303;" width="29.257" height="67.291"/>
<path style="fill:#030303;" d="M410.331,482.011c-20.48-20.48-20.48-52.663,0-71.68c19.017-19.017,52.663-19.017,71.68,0
	c20.48,20.48,20.48,52.663,0,71.68C462.994,501.029,430.811,501.029,410.331,482.011z M430.811,429.349
	c-8.777,8.777-8.777,21.943,0,30.72c8.777,8.777,23.406,8.777,30.72,0c8.777-8.777,8.777-21.943,0-30.72
	C454.217,420.571,439.589,420.571,430.811,429.349z"/>
<rect id="SVGCleanerId_3" x="363.316" y="381.015" transform="matrix(-0.7071 -0.7071 0.7071 -0.7071 397.8927 956.0989)" style="fill:#030303;" width="67.291" height="29.257"/>
<path style="fill:#030303;" d="M15.36,482.011c-20.48-20.48-20.48-52.663,0-71.68c19.017-19.017,52.663-19.017,73.143,0
	c20.48,20.48,20.48,52.663,0,71.68C68.023,501.029,35.84,501.029,15.36,482.011z M35.84,429.349c-8.777,8.777-8.777,21.943,0,30.72
	c8.777,8.777,23.406,8.777,30.72,0c8.777-8.777,8.777-21.943,0-30.72C59.246,420.571,44.617,420.571,35.84,429.349z"/>
<rect id="SVGCleanerId_4" x="86.844" y="361.977" transform="matrix(-0.7071 -0.7071 0.7071 -0.7071 -106.5233 747.1214)" style="fill:#030303;" width="29.257" height="67.291"/>
<g>
	<path id="SVGCleanerId_0_1_" style="fill:#010101;" d="M249.417,430.811c-16.091,0-32.183-1.463-48.274-5.851
		c-5.851-1.463-10.24-7.314-10.24-14.629v-74.606h-29.257c-19.017,0-35.109-16.091-35.109-35.109v-55.589
		c0-19.017,16.091-35.109,35.109-35.109h178.469c19.017,0,35.109,16.091,35.109,35.109v55.589c0,19.017-16.091,35.109-35.109,35.109
		h-29.257v74.606c0,7.314-4.389,11.703-10.24,14.629C281.6,427.886,265.509,430.811,249.417,430.811z M218.697,398.629
		c19.017,4.389,40.96,4.389,59.977,0v-77.531c0-8.777,5.851-14.629,14.629-14.629h43.886c2.926,0,5.851-2.926,5.851-5.851v-55.589
		c0-2.926-2.926-5.851-5.851-5.851H160.183c-2.926,0-5.851,2.926-5.851,5.851v55.589c0,2.926,2.926,5.851,5.851,5.851h43.886
		c8.777,0,14.629,5.851,14.629,14.629V398.629z"/>
</g>
<g>
	
		<rect id="SVGCleanerId_1_1_" x="67.855" y="85.505" transform="matrix(-0.707 -0.7072 0.7072 -0.707 102.447 242.711)" style="fill:#030303;" width="67.291" height="29.257"/>
</g>
<g>
	
		<rect id="SVGCleanerId_2_1_" x="382.353" y="66.509" transform="matrix(-0.7071 -0.7071 0.7071 -0.7071 606.8702 451.6829)" style="fill:#030303;" width="29.257" height="67.291"/>
</g>
<g>
	
		<rect id="SVGCleanerId_3_1_" x="363.316" y="381.015" transform="matrix(-0.7071 -0.7071 0.7071 -0.7071 397.8927 956.0989)" style="fill:#030303;" width="67.291" height="29.257"/>
</g>
<g>
	
		<rect id="SVGCleanerId_4_1_" x="86.844" y="361.977" transform="matrix(-0.7071 -0.7071 0.7071 -0.7071 -106.5233 747.1214)" style="fill:#030303;" width="29.257" height="67.291"/>
</g>
<g>
</g>
<g>
</g>
<g>
</g>
<g>
</g>
<g>
</g>
<g>
</g>
<g>
</g>
<g>
</g>
<g>
</g>
<g>
</g>
<g>
</g>
<g>
</g>
<g>
</g>
<g>
</g>
<g>
</g>
</svg>
