<?xml version="1.0" encoding="UTF-8" standalone="no"?>
<svg
   xmlns:dc="http://purl.org/dc/elements/1.1/"
   xmlns:cc="http://creativecommons.org/ns#"
   xmlns:rdf="http://www.w3.org/1999/02/22-rdf-syntax-ns#"
   xmlns:svg="http://www.w3.org/2000/svg"
   xmlns="http://www.w3.org/2000/svg"
   xmlns:sodipodi="http://sodipodi.sourceforge.net/DTD/sodipodi-0.dtd"
   xmlns:inkscape="http://www.inkscape.org/namespaces/inkscape"
   version="1.1"
   id="Capa_1"
   x="0px"
   y="0px"
   viewBox="0 0 368 368"
   style="enable-background:new 0 0 368 368;"
   xml:space="preserve"
   sodipodi:docname="stop2.svg"
   inkscape:version="1.0.1 (3bc2e813f5, 2020-09-07)"><metadata
   id="metadata55"><rdf:RDF><cc:Work
       rdf:about=""><dc:format>image/svg+xml</dc:format><dc:type
         rdf:resource="http://purl.org/dc/dcmitype/StillImage" /></cc:Work></rdf:RDF></metadata><defs
   id="defs53" /><sodipodi:namedview
   pagecolor="#ffffff"
   bordercolor="#666666"
   borderopacity="1"
   objecttolerance="10"
   gridtolerance="10"
   guidetolerance="10"
   inkscape:pageopacity="0"
   inkscape:pageshadow="2"
   inkscape:window-width="1920"
   inkscape:window-height="1027"
   id="namedview51"
   showgrid="false"
   inkscape:zoom="2.3369565"
   inkscape:cx="184"
   inkscape:cy="184"
   inkscape:window-x="-8"
   inkscape:window-y="-8"
   inkscape:window-maximized="1"
   inkscape:current-layer="Capa_1" />
<path
   style="fill:#ff2a2a;fill-rule:evenodd;stroke-width:10;stroke-linecap:round;stroke-linejoin:round"
   id="path880"
   sodipodi:type="arc"
   sodipodi:cx="183.35814"
   sodipodi:cy="183.5721"
   sodipodi:rx="174.8"
   sodipodi:ry="179.72093"
   sodipodi:start="0"
   sodipodi:end="6.1542404"
   sodipodi:open="true"
   sodipodi:arc-type="arc"
   d="M 358.15814,183.5721 A 174.8,179.72093 0 0 1 188.99206,363.19966 174.8,179.72093 0 0 1 8.9213055,195.15112 174.8,179.72093 0 0 1 166.4798,4.6909372 174.8,179.72093 0 0 1 356.70697,160.46216" />
<path
   style="fill:#ffffff;fill-rule:evenodd;stroke-width:4.7803;stroke-linecap:round;stroke-linejoin:round"
   d="m 169.74244,296.08019 c -9.77544,-0.69878 -20.65703,-2.89246 -29.87541,-6.02277 -2.87733,-0.97705 -5.49373,-1.91838 -5.81423,-2.09182 -0.36479,-0.19741 27.48915,-28.67526 74.47425,-76.14241 l 75.05697,-75.82708 1.47341,4.26278 c 2.5064,7.25134 3.90448,12.61276 5.12745,19.66297 5.56911,32.10489 -2.06816,63.78918 -21.80811,90.47389 -4.37996,5.9209 -15.92047,17.58 -21.78115,22.00497 -22.5547,17.02943 -50.29855,25.57767 -76.85318,23.67947 z"
   id="path884" /><g
   id="g12">
	<g
   id="g10">
		<path
   d="M289.6,126.912c-0.192-0.36-0.512-0.592-0.752-0.912c-0.232-0.304-0.344-0.664-0.624-0.944    c-0.104-0.104-0.248-0.136-0.352-0.232c-0.192-0.168-0.368-0.344-0.568-0.496c-0.256-0.192-0.56-0.28-0.832-0.44    c0,0-0.008,0-0.008-0.008c-0.416-0.24-0.8-0.496-1.248-0.656c-0.336-0.12-0.68-0.176-1.032-0.248    c-0.16-0.032-0.288-0.152-0.456-0.176c-0.168-0.024-0.32,0.056-0.488,0.04c-0.352-0.032-0.68-0.072-1.032-0.056    c-0.488,0.024-0.96,0.168-1.448,0.28c-0.296,0.072-0.584,0.064-0.872,0.168c-0.24,0.088-0.464,0.2-0.696,0.312    c-0.136,0.064-0.288,0.056-0.424,0.128c-0.36,0.192-0.584,0.512-0.904,0.752c-0.312,0.232-0.672,0.352-0.952,0.632l-151.84,151.84    c-0.28,0.28-0.4,0.64-0.632,0.944c-0.24,0.32-0.56,0.544-0.752,0.904c-0.072,0.136-0.064,0.288-0.128,0.424    c-0.104,0.224-0.216,0.432-0.304,0.664c-0.112,0.312-0.112,0.624-0.184,0.944c-0.104,0.472-0.248,0.92-0.264,1.392    c-0.016,0.352,0.024,0.688,0.056,1.04c0.016,0.168-0.064,0.328-0.04,0.496c0.024,0.168,0.152,0.296,0.184,0.464    c0.072,0.344,0.128,0.672,0.24,1c0.16,0.448,0.416,0.848,0.656,1.264c0.16,0.288,0.256,0.592,0.448,0.848    c0.144,0.2,0.312,0.368,0.48,0.552c0.104,0.112,0.136,0.256,0.24,0.368c0.288,0.288,0.648,0.408,0.968,0.64    c0.312,0.232,0.536,0.552,0.888,0.744C144.36,299.024,164.096,304,184,304c66.168,0,120-53.832,120-120    C304,164.104,299.024,144.36,289.6,126.912z M184,288c-3.928,0-7.832-0.288-11.72-0.728c-1.216-0.136-2.424-0.352-3.64-0.536    c-2.712-0.4-5.4-0.896-8.064-1.512c-1.32-0.304-2.632-0.624-3.944-0.976c-2.72-0.736-5.4-1.608-8.048-2.568    c-1.056-0.376-2.128-0.704-3.168-1.12c-0.32-0.128-0.624-0.304-0.944-0.44L280.12,144.472c0.136,0.328,0.32,0.64,0.448,0.968    c0.4,1.008,0.72,2.056,1.088,3.072c0.968,2.68,1.848,5.392,2.6,8.144c0.352,1.288,0.664,2.584,0.968,3.888    c0.616,2.68,1.12,5.392,1.52,8.112c0.176,1.2,0.392,2.392,0.528,3.6C287.712,176.16,288,180.072,288,184    C288,241.344,241.344,288,184,288z"
   id="path8" />
	</g>
</g>
<path
   style="fill:#ffffff;fill-rule:evenodd;stroke-width:4.65755;stroke-linecap:round;stroke-linejoin:round"
   d="m 85.666387,233.1887 c 0,-0.14234 -0.837068,-2.80965 -1.860151,-5.92734 -12.056967,-36.74179 -6.043274,-75.39574 16.627374,-106.87507 4.17529,-5.79759 15.27029,-17.29305 20.95249,-21.708721 11.90267,-9.249621 26.2427,-16.495472 39.6501,-20.034724 21.29997,-5.622711 43.85506,-4.455782 65.17525,3.371965 2.20138,0.808241 4.0025,1.493929 4.0025,1.523752 0,0.02982 -32.5232,33.771528 -72.27378,74.981588 -39.75057,41.21001 -72.273783,74.81087 -72.273783,74.66855 z"
   id="path882" /><g
   id="g18">
	<g
   id="g16">
		<path
   d="M245.152,84.784c-0.016-0.168,0.064-0.328,0.04-0.496c-0.024-0.168-0.144-0.296-0.184-0.456    c-0.072-0.344-0.128-0.68-0.24-1.016c-0.16-0.448-0.424-0.84-0.664-1.264c-0.16-0.28-0.248-0.584-0.44-0.84    c-0.152-0.2-0.32-0.376-0.488-0.56c-0.096-0.112-0.136-0.256-0.24-0.36c-0.28-0.28-0.64-0.4-0.952-0.632    c-0.32-0.24-0.544-0.56-0.904-0.752C223.64,68.976,203.896,64,184,64c-66.168,0-120,53.832-120,120    c0,19.904,4.984,39.648,14.4,57.088c0.376,0.688,0.84,1.296,1.368,1.832c0.008,0.008,0.008,0.016,0.016,0.024    c0.024,0.024,0.064,0.032,0.088,0.064c0.232,0.224,0.504,0.4,0.76,0.592c0.144,0.112,0.264,0.224,0.416,0.32    c0.344,0.224,0.696,0.4,1.064,0.576c0.224,0.104,0.432,0.192,0.656,0.272c0.408,0.144,0.816,0.248,1.248,0.328    c0.096,0.016,0.168,0.088,0.264,0.104c0.384,0.056,0.776,0.088,1.16,0.088c0,0,0,0,0.008,0c0.896,0,1.784-0.208,2.664-0.52    c0.12-0.04,0.248-0.032,0.368-0.08c0.088-0.032,0.152-0.112,0.24-0.152c0.176-0.08,0.36-0.112,0.536-0.208    c0.352-0.192,0.576-0.504,0.888-0.744c0.312-0.232,0.68-0.36,0.96-0.64L242.936,91.096c0.28-0.28,0.4-0.64,0.632-0.952    c0.24-0.312,0.56-0.544,0.752-0.896c0.072-0.136,0.064-0.288,0.128-0.424c0.104-0.224,0.216-0.432,0.304-0.664    c0.112-0.304,0.112-0.624,0.184-0.944c0.112-0.472,0.248-0.928,0.272-1.4C245.224,85.464,245.184,85.136,245.152,84.784z     M87.88,223.528c-0.136-0.328-0.32-0.64-0.448-0.968c-0.4-1-0.712-2.024-1.072-3.032c-0.976-2.696-1.864-5.432-2.616-8.2    c-0.344-1.272-0.656-2.544-0.952-3.832c-0.624-2.704-1.128-5.432-1.536-8.184c-0.176-1.184-0.392-2.36-0.52-3.552    C80.288,191.856,80,187.936,80,184c0-57.344,46.656-104,104-104c3.928,0,7.84,0.288,11.728,0.728c1.208,0.136,2.4,0.352,3.6,0.528    c2.728,0.408,5.432,0.904,8.112,1.52c1.304,0.304,2.6,0.616,3.888,0.968c2.752,0.744,5.464,1.624,8.144,2.6    c1.024,0.368,2.064,0.688,3.072,1.088c0.328,0.128,0.64,0.312,0.968,0.448L87.88,223.528z"
   id="path14" />
	</g>
</g>
<g
   id="g20">
</g>
<g
   id="g22">
</g>
<g
   id="g24">
</g>
<g
   id="g26">
</g>
<g
   id="g28">
</g>
<g
   id="g30">
</g>
<g
   id="g32">
</g>
<g
   id="g34">
</g>
<g
   id="g36">
</g>
<g
   id="g38">
</g>
<g
   id="g40">
</g>
<g
   id="g42">
</g>
<g
   id="g44">
</g>
<g
   id="g46">
</g>
<g
   id="g48">
</g>
<g
   id="g6">
	<g
   id="g4">
		<path
   d="M184,0C82.544,0,0,82.536,0,184s82.544,184,184,184c101.464,0,184-82.536,184-184S285.464,0,184,0z M184,352    c-92.64,0-168-75.368-168-168S91.36,16,184,16c92.632,0,168,75.368,168,168S276.632,352,184,352z"
   id="path2" />
	</g>
</g></svg>
