<?xml version="1.0" encoding="iso-8859-1"?>
<!-- Generator: Adobe Illustrator 19.0.0, SVG Export Plug-In . SVG Version: 6.00 Build 0)  -->
<svg version="1.1" id="Capa_1" xmlns="http://www.w3.org/2000/svg" xmlns:xlink="http://www.w3.org/1999/xlink" x="0px" y="0px"
	 viewBox="0 0 497.371 497.371" style="enable-background:new 0 0 497.371 497.371;" xml:space="preserve">
<circle style="fill:#A5C3D1;" cx="244.297" cy="254.537" r="228.206"/>
<path style="fill:#849DA9;" d="M427.154,115.566c-17.554-2.926-35.109-5.851-54.126-5.851c-157.989,0-286.72,128.731-286.72,286.72
	c0,8.777,0,16.091,1.463,24.869C42.423,378.88,14.629,320.366,14.629,254.537c0-125.806,102.4-228.206,228.206-228.206
	C318.903,24.869,386.194,61.44,427.154,115.566z"/>
<path style="fill:#F15E75;" d="M244.297,396.434c-78.994,0-143.36-64.366-143.36-143.36s64.366-143.36,143.36-143.36
	s143.36,64.366,143.36,143.36S323.291,396.434,244.297,396.434z"/>
<path style="fill:#EF3956;" d="M298.423,121.417c-87.771,23.406-157.989,87.771-190.171,171.154
	c-2.926-11.703-5.851-24.869-5.851-38.034c0-78.994,64.366-143.36,143.36-143.36C263.314,111.177,280.869,114.103,298.423,121.417z"
	/>
<path style="fill:#FFFFFF;" d="M244.297,311.589c-32.183,0-57.051-26.331-57.051-57.051s26.331-57.051,57.051-57.051
	s57.051,26.331,57.051,57.051S276.48,311.589,244.297,311.589z"/>
<g>
	<path style="fill:#030303;" d="M244.297,497.371c-133.12,0-242.834-109.714-242.834-242.834S111.177,10.24,244.297,10.24
		s242.834,109.714,242.834,242.834S378.88,497.371,244.297,497.371z M244.297,39.497c-117.029,0-213.577,96.549-213.577,215.04
		s96.549,213.577,213.577,213.577s213.577-96.549,213.577-213.577S362.789,39.497,244.297,39.497z"/>
	<path style="fill:#030303;" d="M244.297,411.063c-86.309,0-157.989-70.217-157.989-157.989
		c0-86.309,70.217-157.989,157.989-157.989s157.989,71.68,157.989,159.451C402.286,340.846,332.069,411.063,244.297,411.063z
		 M244.297,125.806c-70.217,0-128.731,57.051-128.731,128.731s57.051,128.731,128.731,128.731s128.731-57.051,128.731-128.731
		S315.977,125.806,244.297,125.806z"/>
	<path style="fill:#030303;" d="M244.297,326.217c-39.497,0-71.68-32.183-71.68-71.68s32.183-71.68,71.68-71.68
		s71.68,32.183,71.68,71.68S283.794,326.217,244.297,326.217z M244.297,210.651c-23.406,0-42.423,19.017-42.423,42.423
		s19.017,42.423,42.423,42.423s42.423-19.017,42.423-42.423S267.703,210.651,244.297,210.651z"/>
	<path style="fill:#030303;" d="M481.28,87.771h-58.514c-8.777,0-14.629-5.851-14.629-14.629V14.629
		C408.137,5.851,413.989,0,422.766,0c8.777,0,14.629,5.851,14.629,14.629v43.886h43.886c8.777,0,14.629,5.851,14.629,14.629
		S490.057,87.771,481.28,87.771z"/>
	<path style="fill:#030303;" d="M232.594,263.314c-5.851-5.851-5.851-14.629,0-20.48L413.989,61.44
		c5.851-5.851,14.629-5.851,20.48,0c5.851,5.851,5.851,14.629,0,20.48L254.537,263.314
		C248.686,269.166,238.446,269.166,232.594,263.314z"/>
</g>
<g>
</g>
<g>
</g>
<g>
</g>
<g>
</g>
<g>
</g>
<g>
</g>
<g>
</g>
<g>
</g>
<g>
</g>
<g>
</g>
<g>
</g>
<g>
</g>
<g>
</g>
<g>
</g>
<g>
</g>
</svg>
