<svg id="Layer_1" enable-background="new 0 0 512.019 512.019" height="512" viewBox="0 0 512.019 512.019" width="512" xmlns="http://www.w3.org/2000/svg"><g><path d="m496.007 496.003c-132.55 0-240-107.45-240-240 0 132.55-107.45 240-240 240l240-411.43z" fill="#f3d4b7"/><path d="m255.007 84.573v171.43c0 132.55-107.45 240-240 240l3.05-5.23c108.52-23.02 189.95-119.38 189.95-234.77v-90.86z" fill="#e1c3a7"/><path d="m496.007 496.003c-132.55 0-240-107.45-240-240v-171.43z" fill="#f3d4b7"/><path d="m496.007 496.003c-20.9 0-41.17-2.67-60.49-7.69l-179.51-307.74v-96z" fill="#e1c3a7"/><path d="m496.007 496.003h-480c132.55 0 240-107.45 240-240 0 132.55 107.45 240 240 240z" fill="#a18b76"/><path d="m511.21 491.031c-.818-2.501 15.59 26.005-236.679-406.457l35.297-60.509c4.452-7.633 1.874-17.43-5.759-21.882-7.631-4.452-17.429-1.875-21.882 5.758l-26.18 44.879-26.18-44.879c-4.452-7.633-14.249-10.211-21.882-5.758-7.633 4.452-10.211 14.25-5.758 21.882l35.297 60.509c-252.284 432.487-235.864 403.961-236.68 406.459-3.119 9.534 3.25 19.699 13.38 20.859 1.416.159 481.855.165 483.261.039 10.174-.913 16.974-11.078 13.765-20.9zm-44.148-12.895c-109.89-14.241-195.054-108.426-195.054-222.133v-112.246zm-227.055-334.379v112.246c0 113.707-85.164 207.892-195.054 222.133zm-99.858 336.246c52.452-29.17 94.387-76.861 115.858-134.578 21.437 57.624 63.318 105.36 115.858 134.578z"/></g></svg>