<?xml version="1.0" encoding="iso-8859-1"?>
<!-- Generator: Adobe Illustrator 19.0.0, SVG Export Plug-In . SVG Version: 6.00 Build 0)  -->
<svg version="1.1" id="Capa_1" xmlns="http://www.w3.org/2000/svg" xmlns:xlink="http://www.w3.org/1999/xlink" x="0px" y="0px"
	 viewBox="0 0 497.371 497.371" style="enable-background:new 0 0 497.371 497.371;" xml:space="preserve">
<path style="fill:#FFCA19;" d="M482.743,279.406v-61.44l-42.423-8.777c-4.389-24.869-14.629-48.274-27.794-68.754l23.406-35.109
	L392.046,61.44L358.4,84.846c-20.48-14.629-45.349-24.869-70.217-29.257l-7.314-39.497h-61.44l-7.314,39.497
	c-26.331,5.851-49.737,16.091-70.217,29.257L105.326,61.44L61.44,105.326l23.406,35.109c-13.166,20.48-23.406,43.886-27.794,68.754
	l-42.423,8.777v61.44l43.886,8.777c5.851,23.406,14.629,46.811,27.794,65.829L61.44,392.046l43.886,43.886L143.36,409.6
	c19.017,13.166,40.96,21.943,64.366,26.331l8.777,45.349h61.44l8.777-45.349c23.406-4.389,45.349-14.629,64.366-26.331
	l38.034,26.331l43.886-43.886l-24.869-38.034c13.166-20.48,23.406-42.423,27.794-65.829L482.743,279.406z"/>
<g style="opacity:0.1;">
	<path style="fill:#030303;" d="M412.526,140.434c1.463,2.926,2.926,4.389,4.389,7.314c-26.331-10.24-55.589-14.629-84.846-14.629
		c-125.806,0-229.669,90.697-253.074,209.189c-8.777-16.091-16.091-35.109-20.48-54.126l-43.886-8.777v-61.44l42.423-8.777
		c4.389-24.869,14.629-48.274,27.794-68.754L61.44,105.326l43.886-43.886l33.646,23.406c20.48-14.629,43.886-24.869,70.217-29.257
		l7.314-39.497h61.44l7.314,39.497c26.331,4.389,49.737,16.091,70.217,29.257L389.12,61.44l43.886,43.886L412.526,140.434z"/>
</g>
<circle style="fill:#FFFFFF;" cx="248.686" cy="245.76" r="103.863"/>
<g style="opacity:0.1;">
	<path style="fill:#030303;" d="M349.623,216.503c-17.554-13.166-39.497-21.943-64.366-21.943
		c-58.514,0-103.863,46.811-103.863,105.326c0,10.24,1.463,19.017,4.389,29.257c-24.869-19.017-40.96-48.274-40.96-81.92
		c0-58.514,46.811-103.863,103.863-103.863C296.96,141.897,336.457,172.617,349.623,216.503z"/>
</g>
<g>
	<path style="fill:#010101;" d="M279.406,497.371h-61.44c-7.314,0-13.166-4.389-14.629-11.703l-7.314-36.571
		c-17.554-4.389-35.109-11.703-51.2-21.943l-30.72,20.48c-7.314,4.389-14.629,4.389-19.017-1.463L51.2,402.286
		c-4.389-4.389-5.851-13.166-1.463-19.017l20.48-29.257c-10.24-16.091-17.554-35.109-23.406-52.663l-35.109-7.314
		C4.389,292.571,0,286.72,0,279.406v-61.44c0-7.314,4.389-13.166,11.703-14.629l33.646-5.851
		c4.389-19.017,11.703-38.034,21.943-55.589L49.737,112.64c-4.389-5.851-4.389-13.166,1.463-17.554L95.086,51.2
		c4.389-4.389,13.166-5.851,19.017-1.463l24.869,17.554c17.554-11.703,36.571-19.017,57.051-24.869l5.851-30.72
		C203.337,4.389,209.189,0,216.503,0h61.44c7.314,0,13.166,4.389,14.629,11.703l7.314,30.72
		c20.48,5.851,39.497,13.166,57.051,24.869l26.331-17.554c7.314-4.389,14.629-4.389,19.017,1.463l43.886,43.886
		c4.389,4.389,5.851,13.166,1.463,19.017l-17.554,27.794c10.24,17.554,17.554,36.571,21.943,55.589l33.646,7.314
		c7.314,1.463,11.703,7.314,11.703,14.629v61.44c0,7.314-4.389,13.166-11.703,14.629l-35.109,7.314
		c-4.389,19.017-13.166,36.571-23.406,52.663l20.48,29.257c4.389,5.851,2.926,13.166-1.463,19.017l-43.886,43.886
		c-4.389,4.389-13.166,5.851-19.017,1.463l-30.72-20.48c-16.091,10.24-33.646,16.091-51.2,21.943l-7.314,36.571
		C292.571,492.983,286.72,497.371,279.406,497.371z M229.669,468.114h38.034l7.314-33.646c1.463-5.851,5.851-10.24,11.703-11.703
		c20.48-4.389,40.96-13.166,59.977-24.869c4.389-2.926,11.703-2.926,16.091,0l29.257,19.017l26.331-26.331l-19.017-27.794
		c-2.926-4.389-2.926-11.703,0-16.091c11.703-19.017,20.48-39.497,26.331-61.44c1.463-5.851,5.851-10.24,11.703-11.703l32.183-5.851
		v-38.034l-30.72-5.851c-5.851-1.463-10.24-5.851-11.703-11.703c-4.389-23.406-13.166-43.886-24.869-64.366
		c-2.926-4.389-2.926-11.703,0-16.091l14.629-24.869l-26.331-26.331l-24.869,16.091c-4.389,2.926-11.703,2.926-16.091,0
		c-19.017-13.166-40.96-21.943-64.366-27.794c-5.851-1.463-10.24-5.851-11.703-11.703l-5.851-27.794h-38.034l-5.851,27.794
		c-1.463,5.851-5.851,10.24-11.703,11.703c-23.406,4.389-45.349,14.629-64.366,27.794c-4.389,2.926-11.703,2.926-16.091,0
		l-24.869-16.091l-26.331,26.331l16.091,24.869c2.926,4.389,2.926,11.703,0,16.091c-11.703,20.48-20.48,40.96-24.869,64.366
		c-1.463,5.851-5.851,10.24-11.703,11.703l-30.72,5.851v38.034l32.183,5.851c5.851,1.463,10.24,5.851,11.703,11.703
		c4.389,21.943,13.166,42.423,26.331,61.44c2.926,4.389,2.926,11.703,0,16.091l-19.017,27.794l26.331,26.331l29.257-19.017
		c4.389-2.926,11.703-2.926,16.091,0c19.017,11.703,39.497,20.48,59.977,24.869c5.851,1.463,10.24,5.851,11.703,11.703
		L229.669,468.114z"/>
	<path style="fill:#010101;" d="M248.686,365.714c-65.829,0-118.491-54.126-118.491-118.491s54.126-118.491,118.491-118.491
		s118.491,54.126,118.491,118.491S314.514,365.714,248.686,365.714z M248.686,156.526c-49.737,0-89.234,40.96-89.234,89.234
		c0,49.737,40.96,89.234,89.234,89.234s89.234-40.96,89.234-89.234C337.92,196.023,298.423,156.526,248.686,156.526z"/>
	<path style="fill:#010101;" d="M212.114,285.257c-5.851-5.851-5.851-14.629,0-20.48l21.943-21.943V194.56
		c0-8.777,5.851-14.629,14.629-14.629s14.629,5.851,14.629,14.629v54.126c0,4.389-1.463,7.314-4.389,10.24l-26.331,26.331
		C226.743,291.109,216.503,291.109,212.114,285.257z"/>
</g>
<g>
</g>
<g>
</g>
<g>
</g>
<g>
</g>
<g>
</g>
<g>
</g>
<g>
</g>
<g>
</g>
<g>
</g>
<g>
</g>
<g>
</g>
<g>
</g>
<g>
</g>
<g>
</g>
<g>
</g>
</svg>
