<?xml version="1.0" encoding="iso-8859-1"?>
<!-- Generator: Adobe Illustrator 19.0.0, SVG Export Plug-In . SVG Version: 6.00 Build 0)  -->
<svg version="1.1" id="Capa_1" xmlns="http://www.w3.org/2000/svg" xmlns:xlink="http://www.w3.org/1999/xlink" x="0px" y="0px"
	 viewBox="0 0 497.745 497.745" style="enable-background:new 0 0 497.745 497.745;" xml:space="preserve">
<path style="fill:#F58570;" d="M480.735,190.545l-16.091-92.16c-1.463-11.703-11.703-20.48-23.406-20.48H55.044
	c-11.703,0-21.943,8.777-23.406,20.48l-16.091,92.16c-2.926,14.629,8.777,27.794,23.406,27.794h416.914
	C471.958,218.339,482.198,205.174,480.735,190.545z"/>
<path style="fill:#F1594C;" d="M467.57,114.477L467.57,114.477l-4.389-16.091c-2.926-10.24-17.554-19.017-35.109-19.017H55.044
	c-11.703,0-21.943,8.777-23.406,20.48l-2.926,14.629H467.57z"/>
<rect x="34.564" y="218.339" style="fill:#849DA9;" width="431.543" height="264.777"/>
<rect x="34.564" y="218.339" style="fill:#A5C3D1;" width="431.543" height="264.777"/>
<rect x="34.564" y="218.339" style="fill:#849DA9;" width="431.543" height="32.183"/>
<path d="M455.867,232.968H40.415c-11.703,0-21.943-4.389-29.257-13.166s-10.24-20.48-8.777-30.72l16.091-92.16
	c1.463-19.017,17.554-32.183,36.571-32.183h386.194c19.017,0,35.109,13.166,38.034,32.183l16.091,92.16
	c1.463,11.703-1.463,21.943-8.777,30.72C479.273,228.579,467.57,232.968,455.867,232.968z M55.044,93.997
	c-4.389,0-8.777,2.926-8.777,7.314l-16.091,92.16c0,4.389,1.463,5.851,1.463,7.314c1.463,1.463,2.926,2.926,7.314,2.926h416.914
	c4.389,0,5.851-1.463,7.314-2.926s2.926-4.389,1.463-7.314l-16.091-92.16c-1.463-4.389-4.389-7.314-8.777-7.314
	C439.775,93.997,55.044,93.997,55.044,93.997z"/>
<path d="M466.107,497.745H34.564c-8.777,0-14.629-5.851-14.629-14.629V218.339c0-8.777,5.851-14.629,14.629-14.629h431.543
	c8.777,0,14.629,5.851,14.629,14.629v264.777C480.735,491.894,473.421,497.745,466.107,497.745z M49.193,468.488h402.286v-235.52
	H49.193V468.488z"/>
<g>
	<path style="fill:#FFFFFF;" d="M330.061,259.299c-13.166,0-23.406-10.24-23.406-23.406v-32.183
		c0-13.166,10.24-23.406,23.406-23.406s23.406,10.24,23.406,23.406v32.183C353.467,249.059,341.764,259.299,330.061,259.299z"/>
	<path style="fill:#FFFFFF;" d="M161.833,259.299c-13.166,0-23.406-10.24-23.406-23.406v-32.183
		c0-13.166,10.24-23.406,23.406-23.406c13.166,0,23.406,10.24,23.406,23.406v32.183
		C185.238,249.059,174.998,259.299,161.833,259.299z"/>
</g>
<path d="M330.061,93.997h-163.84c-8.777,0-14.629-5.851-14.629-14.629V31.094c0-19.017,17.554-33.646,36.571-30.72
	c45.349,8.777,84.846,8.777,118.491,1.463c19.017-4.389,36.571,10.24,36.571,29.257v46.811
	C344.69,86.682,337.375,93.997,330.061,93.997z M180.85,64.739h133.12V32.557c0-1.463,0-1.463-1.463-1.463
	c-38.034,8.777-81.92,8.777-130.194-1.463c0,0-1.463,0-1.463,1.463V64.739z"/>
<path d="M330.061,273.928c-20.48,0-38.034-17.554-38.034-38.034v-32.183c0-20.48,17.554-38.034,38.034-38.034
	c20.48,0,38.034,17.554,38.034,38.034v32.183C368.095,256.374,350.541,273.928,330.061,273.928z M330.061,193.471
	c-4.389,0-8.777,4.389-8.777,8.777v32.183c0,4.389,4.389,8.777,8.777,8.777c4.389,0,8.777-4.389,8.777-8.777v-32.183
	C338.838,197.859,334.45,193.471,330.061,193.471z"/>
<path d="M166.221,273.928c-20.48,0-38.034-17.554-38.034-38.034v-32.183c0-20.48,17.554-38.034,38.034-38.034
	s38.034,17.554,38.034,38.034v32.183C205.718,256.374,188.164,273.928,166.221,273.928z M166.221,193.471
	c-4.389,0-8.777,4.389-8.777,8.777v32.183c0,4.389,4.389,8.777,8.777,8.777c4.389,0,8.777-4.389,8.777-8.777v-32.183
	C176.461,197.859,172.073,193.471,166.221,193.471z"/>
<path style="fill:#FFCA19;" d="M277.398,408.511l-149.211,10.24c-21.943,1.463-42.423-14.629-42.423-38.034l0,0
	c0-21.943,17.554-40.96,40.96-40.96l149.211,1.463c11.703-24.869,35.109-40.96,64.366-42.423
	c30.72-1.463,57.051,16.091,68.754,42.423l-58.514,2.926l1.463,58.514l57.051-1.463c-10.24,26.331-35.109,45.349-65.829,45.349
	C315.433,448.008,289.101,431.917,277.398,408.511z"/>
<path d="M268.621,423.139l-140.434,10.24c-30.72,2.926-57.051-20.48-58.514-52.663c-1.463-33.646,29.257-57.051,55.589-55.589
	l140.434,1.463c14.629-24.869,42.423-40.96,71.68-42.423c38.034,0,68.754,20.48,81.92,51.2c1.463,4.389,1.463,10.24-1.463,14.629
	c-2.926,4.389-7.314,7.314-11.703,7.314l-39.497,1.463l1.463,29.257l42.423-1.463c4.389,0,10.24,2.926,11.703,5.851
	c1.463,2.926,2.926,8.777,1.463,13.166c-13.166,32.183-43.886,54.126-78.994,55.589
	C311.044,461.174,284.713,446.545,268.621,423.139z M277.398,393.882c5.851,0,10.24,2.926,13.166,7.314
	c10.24,19.017,29.257,30.72,52.663,30.72c14.629,0,27.794-5.851,38.034-16.091l-27.794,1.463l0,0
	c-7.314,0-14.629-5.851-14.629-14.629l-1.463-58.514c0-8.777,5.851-14.629,14.629-14.629l27.794-1.463
	c-10.24-8.777-24.869-14.629-39.497-14.629c-21.943,0-42.423,13.166-51.2,33.646c-2.926,5.851-7.314,8.777-13.166,8.777l0,0H125.261
	l0,0c-16.091,0-26.331,11.703-24.869,24.869c0,13.166,13.166,24.869,26.331,23.406L277.398,393.882
	C275.935,393.882,277.398,393.882,277.398,393.882z"/>
<g>
</g>
<g>
</g>
<g>
</g>
<g>
</g>
<g>
</g>
<g>
</g>
<g>
</g>
<g>
</g>
<g>
</g>
<g>
</g>
<g>
</g>
<g>
</g>
<g>
</g>
<g>
</g>
<g>
</g>
</svg>
