<svg id="Layer_1" enable-background="new 0 0 512 512" height="512" viewBox="0 0 512 512" width="512" xmlns="http://www.w3.org/2000/svg"><g><path d="m400 416v-56c-57.438 0-104 46.558-104 104v48h-80v-112c0-57.439-46.558-104-104-104v56l-96-96 96-96v56c38.6 0 74.42 11.89 104 32.2v-136.2h-56l96-96 96 96h-56v200.2c29.58-20.31 65.4-32.2 104-32.2v-56l96 96z" fill="#f79caf"/><g fill="#e3889b"><path d="m256 349.2v-213.2c0-22.091 17.909-40 40-40 .1 0 0-5.181 0 232.45-14.25 5.28-27.67 12.28-40 20.75z"/><path d="m312 112-76-76 20-20 96 96z"/><path d="m360 360v7.97c-37.56 15.66-64 52.74-64 96.03v48h-40v-48c0-57.438 46.558-104 104-104z"/><path d="m496 320-96 96v-40l56-56-56-56v-40z"/></g><path d="m507.313 308.687-96-96c-10.042-10.045-27.313-2.93-27.313 11.313v40.63c-25.164 1.991-49.504 8.698-72 19.75v-156.38h40c14.214 0 21.379-17.249 11.313-27.313l-96-96c-6.248-6.249-16.379-6.249-22.627 0l-96 96c-10.045 10.044-2.928 27.313 11.314 27.313h40v92.38c-22.496-11.052-46.836-17.759-72-19.75v-40.63c0-14.215-17.249-21.379-27.314-11.314l-96 96c-6.248 6.249-6.248 16.379 0 22.628l96 96c10.046 10.045 27.314 2.927 27.314-11.314v-38.558c39.905 7.288 72 42.388 72 86.558v96c0 8.836 7.164 16 16 16s16-7.164 16-16v-96c0-66.322-53.668-120-120-120-8.836 0-16 7.164-16 16v17.373l-57.373-57.373 57.373-57.372v17.372c0 8.836 7.164 16 16 16 32.935 0 65.842 9.462 94.985 29.416 10.505 7.183 24.985-.344 25.013-13.167 0-2.706.002 9.284.002-136.249 0-8.836-7.164-16-16-16h-17.373l57.373-57.372 57.373 57.372h-17.373c-8.837 0-16 7.164-16 16 0 .887-.001 199.776.002 200.247.025 12.829 14.483 20.368 25.014 13.168 27.015-18.683 60.067-29.415 94.984-29.415 8.837 0 16-7.164 16-16v-17.373l57.373 57.373-57.373 57.373v-17.373c0-8.836-7.163-16-16-16-66.322 0-120 53.667-120 120v32c0 8.836 7.163 16 16 16s16-7.164 16-16v-32c0-44.182 32.104-79.272 72-86.558v38.558c0 14.205 17.244 21.387 27.313 11.313l96-96c6.25-6.247 6.25-16.378 0-22.626z"/></g></svg>