<?xml version="1.0" encoding="iso-8859-1"?>
<!-- Generator: Adobe Illustrator 19.0.0, SVG Export Plug-In . SVG Version: 6.00 Build 0)  -->
<svg version="1.1" id="Capa_1" xmlns="http://www.w3.org/2000/svg" xmlns:xlink="http://www.w3.org/1999/xlink" x="0px" y="0px"
	 viewBox="0 0 497.841 497.841" style="enable-background:new 0 0 497.841 497.841;" xml:space="preserve">
<path style="fill:#849DA9;" d="M345.063,483.241h-184.3c-26.3,0-48.3-20.5-51.2-46.8l-21.9-251.7h332.1l-23.4,251.6
	C394.863,462.741,372.863,483.241,345.063,483.241z"/>
<g style="opacity:0.1;">
	<polygon style="fill:#030303;" points="415.363,225.741 419.763,184.741 87.663,184.741 90.563,225.741 	"/>
</g>
<path style="fill:#FFCA19;" d="M413.863,124.841l-326.2,60l-10.3-52.7c-1.5-13.2,7.3-24.9,20.5-27.8l279.4-51.2
	c13.2-1.5,24.9,7.3,27.8,20.5L413.863,124.841z"/>
<path d="M345.063,497.841h-184.3c-33.6,0-62.9-26.3-65.8-60l-21.9-251.6c0-4.4,1.5-8.8,4.4-11.7s7.3-4.4,10.2-4.4h332.1
	c4.4,0,7.3,1.5,10.2,4.4c2.9,2.9,4.4,7.3,4.4,11.7l-23.4,251.6C408.063,471.541,380.263,497.841,345.063,497.841z M103.763,199.441
	l21.9,235.5c1.5,19,17.6,33.6,36.6,33.6h184.3c19,0,35.1-14.6,36.6-33.6l21.9-235.5L103.763,199.441L103.763,199.441z"/>
<path d="M87.663,199.441c-7.3,0-13.2-4.4-14.6-11.7l-8.8-52.7c-4.4-20.5,10.2-41,30.7-45.3l279.4-51.2c21.9-4.4,41,10.2,45.3,30.7
	l8.8,51.2c0,4.4,0,7.3-2.9,10.2c-1.5,5.9-4.4,7.3-8.8,8.8l-326.2,58.5C89.063,199.441,87.663,199.441,87.663,199.441z
	 M380.263,67.741h-1.5l-277.9,51.2c-5.9,0-8.8,5.9-8.8,10.2l7.3,38l298.4-54l-7.3-38C388.963,70.641,386.063,67.741,380.263,67.741z
	"/>
<path d="M175.463,104.341c-2.9,0-5.9-1.5-8.8-2.9c-2.9-2.9-5.9-5.9-5.9-8.8l-7.3-38c-1.5-8.8,0-17.6,5.9-24.9
	c4.4-7.3,11.7-11.7,20.5-13.2l89.2-16.1c17.6-2.9,35.1,8.8,38,26.3l7.3,38c0,4.4,0,7.3-2.9,10.2c-2.9,2.9-5.9,5.9-8.8,5.9
	l-124.3,21.9C176.863,104.341,175.463,104.341,175.463,104.341z M274.863,29.741l-89.2,16.1c-1.5,0-2.9,1.5-2.9,2.9l4.4,23.4
	l95.1-17.6l-4.4-23.4C277.863,31.141,276.363,29.741,274.863,29.741z"/>
<g>
	<path style="fill:#FFFFFF;" d="M178.363,382.241l-11.7-92.1c-1.5-7.3,4.4-14.6,13.2-16.1c7.3-1.5,16.1,4.4,16.1,13.2l11.7,92.2
		c1.5,7.3-4.4,14.6-13.2,16.1C187.163,395.441,179.763,389.541,178.363,382.241z"/>
	<path style="fill:#FFFFFF;" d="M252.963,393.941c-8.8,0-14.6-5.9-14.6-14.6v-92.2c0-8.8,5.9-14.6,14.6-14.6
		c8.8,0,14.6,5.9,14.6,14.6v92.2C267.563,388.141,261.763,393.941,252.963,393.941z"/>
	<path style="fill:#FFFFFF;" d="M311.463,393.941c-7.3-1.5-13.2-8.8-13.2-16.1l11.7-92.2c1.5-7.3,6.2-13.8,16.1-13.2
		c10.3,1.2,13.2,8.8,13.2,16.1l-10.2,93.6C327.563,389.541,320.263,395.441,311.463,393.941z"/>
</g>
<g>
</g>
<g>
</g>
<g>
</g>
<g>
</g>
<g>
</g>
<g>
</g>
<g>
</g>
<g>
</g>
<g>
</g>
<g>
</g>
<g>
</g>
<g>
</g>
<g>
</g>
<g>
</g>
<g>
</g>
</svg>
