<?xml version="1.0" encoding="iso-8859-1"?>
<!-- Generator: Adobe Illustrator 19.0.0, SVG Export Plug-In . SVG Version: 6.00 Build 0)  -->
<svg version="1.1" id="Capa_1" xmlns="http://www.w3.org/2000/svg" xmlns:xlink="http://www.w3.org/1999/xlink" x="0px" y="0px"
	 viewBox="0 0 500.297 500.297" style="enable-background:new 0 0 500.297 500.297;" xml:space="preserve">
<path style="fill:#C0D0D6;" d="M105.326,439.589l-42.423-42.423l26.331-39.497c-11.703-19.017-21.943-40.96-26.331-64.366
	l-46.811-10.24v-59.977l46.811-10.24c4.389-23.406,14.629-45.349,26.331-64.366l-26.331-39.497l42.423-42.423l39.497,26.331
	c19.017-13.166,40.96-21.943,64.366-26.331l10.24-46.811h59.977l10.24,46.811c23.406,4.389,45.349,14.629,64.366,26.331
	l39.497-26.331l42.423,42.423L409.6,148.48c11.703,19.017,21.943,40.96,26.331,64.366l46.811,10.24v59.977l-46.811,10.24
	c-4.389,23.406-14.629,45.349-26.331,64.366l26.331,39.497l-42.423,42.423"/>
<polygon style="fill:#FFFFFF;" points="296.96,362.057 279.406,354.743 216.503,354.743 203.337,379.611 206.263,433.737 
	235.52,483.474 264.777,483.474 298.423,424.96 "/>
<path style="fill:#010101;" d="M394.971,454.217c-4.389,0-7.314-1.463-10.24-4.389c-5.851-5.851-5.851-14.629,0-20.48l33.646-33.646
	l-19.017-30.72c-2.926-4.389-2.926-11.703,0-16.091c11.703-19.017,20.48-38.034,24.869-58.514
	c1.463-5.851,5.851-10.24,11.703-11.703l35.109-7.314v-36.571l-35.109-7.314c-5.851-1.463-10.24-5.851-11.703-11.703
	c-4.389-20.48-13.166-40.96-24.869-58.514c-2.926-4.389-2.926-11.703,0-16.091l19.017-30.72l-26.331-26.331l-30.72,19.017
	c-4.389,2.926-11.703,2.926-16.091,0C327.68,91.429,307.2,82.651,286.72,78.263c-5.851-1.463-10.24-5.851-11.703-11.703
	l-7.314-35.109h-36.571l-7.314,36.571c-1.463,5.851-5.851,10.24-11.703,11.703c-20.48,4.389-40.96,13.166-58.514,24.869
	c-4.389,2.926-11.703,2.926-16.091,0l-29.257-20.48L81.92,110.446l19.017,30.72c2.926,4.389,2.926,11.703,0,16.091
	c-11.703,19.017-20.48,38.034-24.869,58.514c-1.463,5.851-5.851,10.24-11.703,11.703l-35.109,7.314v36.571l35.109,7.314
	c5.851,1.463,10.24,5.851,11.703,11.703c4.389,20.48,13.166,40.96,24.869,58.514c2.926,4.389,2.926,11.703,0,16.091L81.92,394.24
	l33.646,33.646c5.851,5.851,5.851,14.629,0,20.48s-14.629,5.851-20.48,0l-42.423-40.96c-4.389-4.389-5.851-13.166-1.463-19.017
	l20.48-32.183c-8.777-16.091-16.091-33.646-21.943-51.2l-38.034-7.314C4.389,296.229,0,290.377,0,283.063v-59.977
	c0-7.314,4.389-13.166,11.703-14.629L51.2,199.68c4.389-17.554,11.703-35.109,21.943-51.2L51.2,116.297
	c-4.389-5.851-2.926-13.166,1.463-17.554L95.086,56.32c5.851-5.851,13.166-7.314,19.017-2.926l32.183,20.48
	c16.091-8.777,33.646-16.091,51.2-21.943l7.314-38.034c1.463-7.314,7.314-11.703,14.629-11.703h59.977
	c7.314,0,13.166,4.389,14.629,11.703l8.777,39.497c17.554,4.389,35.109,11.703,51.2,21.943l32.183-21.943
	c5.851-4.389,13.166-2.926,19.017,1.463l42.423,43.886c4.389,4.389,5.851,13.166,1.463,19.017l-20.48,32.183
	c8.777,16.091,16.091,33.646,21.943,51.2l38.034,7.314c7.314,1.463,11.703,7.314,11.703,14.629v59.977
	c0,7.314-4.389,13.166-11.703,14.629l-38.034,7.314c-4.389,17.554-11.703,35.109-21.943,51.2l20.48,32.183
	c4.389,5.851,2.926,13.166-1.463,19.017l-42.423,42.423C402.286,452.754,397.897,454.217,394.971,454.217z"/>
<g>
	<path style="fill:#F15E75;" d="M235.52,483.474l-33.646-58.514c-1.463-2.926-1.463-7.314-1.463-11.703l4.389-49.737l-39.497,19.017
		c-2.926,1.463-4.389,1.463-7.314,2.926h-1.463c-10.24,4.389-33.646,16.091-39.497,39.497c0,0-5.851,20.48-10.24,42.423
		c-1.463,5.851-1.463,10.24-2.926,16.091H235.52z"/>
	<path style="fill:#F15E75;" d="M298.423,424.96l-33.646,58.514h131.657c-1.463-5.851-1.463-11.703-2.926-17.554
		c-4.389-21.943-8.777-40.96-8.777-40.96c-5.851-23.406-30.72-35.109-40.96-39.497c0,0,0,0-1.463,0
		c-2.926-1.463-5.851-2.926-8.777-4.389l-38.034-17.554l4.389,49.737C299.886,417.646,299.886,420.571,298.423,424.96z"/>
</g>
<path style="fill:#F6E272;" d="M342.309,226.011h-8.777c11.703-64.366-39.497-83.383-39.497-83.383
	c-74.606-38.034-112.64,14.629-112.64,14.629c-21.943,30.72-14.629,67.291-14.629,68.754h-8.777c-4.389,0-7.314,2.926-5.851,7.314
	l8.777,42.423c0,2.926,4.389,5.851,8.777,5.851h4.389c2.926,16.091,5.851,27.794,5.851,27.794
	c43.886,80.457,99.474,45.349,99.474,45.349c27.794-16.091,40.96-46.811,46.811-73.143h7.314c4.389,0,7.314-2.926,8.777-5.851
	l8.777-42.423C349.623,228.937,346.697,226.011,342.309,226.011z"/>
<g>
	<path style="fill:#010101;" d="M250.149,378.149c-23.406,0-55.589-10.24-83.383-61.44c0-1.463-1.463-1.463-1.463-2.926
		c0,0-1.463-7.314-4.389-17.554c-7.314-2.926-13.166-8.777-14.629-17.554l-8.777-42.423c-1.463-5.851,0-13.166,4.389-17.554
		c2.926-2.926,5.851-5.851,8.777-5.851c0-16.091,2.926-40.96,19.017-64.366c1.463-1.463,24.869-35.109,73.143-35.109
		c19.017,0,38.034,4.389,57.051,14.629c19.017,7.314,51.2,33.646,49.737,83.383c2.926,1.463,7.314,2.926,8.777,5.851
		c4.389,4.389,5.851,11.703,4.389,17.554l-8.777,42.423c-1.463,8.777-8.777,16.091-17.554,17.554
		c-10.24,33.646-27.794,58.514-51.2,71.68C285.257,367.909,270.629,378.149,250.149,378.149z M193.097,303.543
		c16.091,29.257,36.571,43.886,57.051,43.886c11.703,0,21.943-5.851,21.943-5.851c24.869-13.166,35.109-42.423,39.497-64.366
		c1.463-7.314,7.314-11.703,14.629-11.703h1.463l5.851-27.794c-4.389,0-8.777-1.463-10.24-5.851
		c-2.926-2.926-4.389-7.314-2.926-11.703c10.24-51.2-27.794-67.291-29.257-67.291h-1.463c-16.091-7.314-30.72-11.703-45.349-11.703
		c-32.183,0-49.737,21.943-49.737,21.943c-17.554,24.869-11.703,57.051-11.703,57.051c1.463,4.389,0,8.777-2.926,11.703
		c-2.926,2.926-5.851,4.389-10.24,5.851l5.851,27.794c7.314,0,13.166,4.389,14.629,11.703
		C190.171,290.377,191.634,300.617,193.097,303.543z"/>
	<path style="fill:#010101;" d="M235.52,498.103H103.863c-4.389,0-8.777-1.463-11.703-4.389s-4.389-7.314-2.926-11.703
		c1.463-5.851,1.463-11.703,2.926-17.554c4.389-23.406,10.24-42.423,10.24-43.886c7.314-29.257,36.571-43.886,48.274-49.737h1.463
		c2.926-1.463,4.389-1.463,5.851-2.926l40.96-19.017c4.389-2.926,10.24-1.463,14.629,1.463c4.389,2.926,7.314,7.314,5.851,13.166
		l-4.389,49.737c0,1.463,0,2.926,0,4.389l32.183,57.051c2.926,4.389,2.926,10.24,0,14.629
		C244.297,495.177,239.909,498.103,235.52,498.103z M119.954,468.846h89.234l-20.48-36.571c0,0,0-1.463-1.463-1.463
		c-1.463-5.851-2.926-11.703-2.926-17.554l1.463-24.869l-16.091,5.851c-2.926,1.463-5.851,2.926-8.777,2.926
		c-8.777,4.389-27.794,13.166-32.183,29.257C128.731,427.886,124.343,446.903,119.954,468.846z"/>
	<path style="fill:#010101;" d="M397.897,498.103H266.24c-5.851,0-10.24-2.926-13.166-7.314c-2.926-4.389-2.926-10.24,0-14.629
		l32.183-57.051c0-1.463,0-2.926,0-4.389l-4.389-49.737c0-5.851,1.463-10.24,5.851-13.166c4.389-2.926,10.24-2.926,14.629-1.463
		l38.034,17.554c2.926,1.463,5.851,2.926,8.777,2.926h1.463c13.166,4.389,42.423,19.017,49.737,49.737
		c0,0,5.851,19.017,10.24,42.423c1.463,5.851,1.463,11.703,2.926,17.554c0,4.389,0,8.777-2.926,11.703
		C405.211,496.64,402.286,498.103,397.897,498.103z M291.109,468.846h89.234c-4.389-21.943-8.777-39.497-8.777-39.497
		c-4.389-17.554-24.869-27.794-32.183-29.257c0,0,0,0-1.463,0c-2.926-1.463-7.314-2.926-10.24-4.389l-16.091-7.314l1.463,24.869
		c0,5.851,0,11.703-2.926,17.554c0,0,0,1.463-1.463,1.463L291.109,468.846z"/>
</g>
<g style="opacity:0.1;">
	<path style="fill:#030303;" d="M437.394,108.983l-23.406,36.571c-16.091-2.926-30.72-4.389-48.274-4.389
		c-153.6,0-279.406,122.88-282.331,276.48l-20.48-20.48l26.331-39.497c-11.703-19.017-21.943-40.96-26.331-64.366l-46.811-10.24
		v-59.977l46.811-10.24c4.389-23.406,14.629-45.349,26.331-64.366l-26.331-39.497l42.423-42.423l39.497,26.331
		c19.017-13.166,40.96-21.943,64.366-26.331l10.24-46.811h59.977l10.24,46.811c23.406,4.389,45.349,14.629,64.366,26.331
		l39.497-26.331L437.394,108.983z"/>
</g>
<g>
</g>
<g>
</g>
<g>
</g>
<g>
</g>
<g>
</g>
<g>
</g>
<g>
</g>
<g>
</g>
<g>
</g>
<g>
</g>
<g>
</g>
<g>
</g>
<g>
</g>
<g>
</g>
<g>
</g>
</svg>
