<?xml version="1.0" encoding="iso-8859-1"?>
<!-- Generator: Adobe Illustrator 19.0.0, SVG Export Plug-In . SVG Version: 6.00 Build 0)  -->
<svg version="1.1" id="Capa_1" xmlns="http://www.w3.org/2000/svg" xmlns:xlink="http://www.w3.org/1999/xlink" x="0px" y="0px"
	 viewBox="0 0 497.006 497.006" style="enable-background:new 0 0 497.006 497.006;" xml:space="preserve">
<path style="fill:#FFFFFF;" d="M330.971,68.389c64.366,64.366,71.68,163.84,21.943,235.52c-5.851,8.777-13.166,19.017-21.943,26.331
	c-8.777,8.777-17.554,16.091-26.331,21.943c-71.68,49.737-171.154,42.423-235.52-21.943c-73.143-73.143-73.143-190.171,0-263.314
	C140.8-3.291,259.291-3.291,330.971,68.389z"/>
<g style="opacity:0.1;">
	<path style="fill:#030303;" d="M133.486,104.96c-73.143,73.143-71.68,190.171,0,263.314c2.926,2.926,5.851,5.851,10.24,8.777
		c-27.794-8.777-52.663-23.406-74.606-45.349c-71.68-71.68-73.143-190.171,0-263.314c68.754-68.754,178.469-71.68,251.611-8.777
		C257.829,39.131,184.686,53.76,133.486,104.96z"/>
</g>
<polygon style="fill:#F15E75;" points="481.646,482.377 481.646,412.16 412.891,343.406 344.137,412.16 412.891,482.377 "/>
<path style="fill:#030303;" d="M481.646,497.006h-67.291c-4.389,0-7.314-1.463-10.24-4.389L333.897,422.4
	c-2.926-2.926-4.389-5.851-4.389-10.24c0-4.389,1.463-7.314,4.389-10.24l68.754-68.754c5.851-5.851,14.629-5.851,20.48,0
	l68.754,68.754c2.926,2.926,4.389,5.851,4.389,10.24v70.217C496.274,491.154,488.96,497.006,481.646,497.006z M420.206,467.749
	h46.811v-49.737l-54.126-54.126l-48.274,48.274L420.206,467.749z"/>
<path style="fill:#F58570;" d="M401.189,355.109l-45.349,45.349l-48.274-48.274c8.777-5.851,17.554-13.166,24.869-20.48
	c7.314-7.314,14.629-16.091,20.48-24.869L401.189,355.109z"/>
<g>
	<path style="fill:#030303;" d="M320.731,435.566c-5.851-5.851-5.851-14.629,0-20.48l93.623-93.623
		c5.851-5.851,14.629-5.851,20.48,0c5.851,5.851,5.851,14.629,0,20.48l-93.623,93.623
		C335.36,441.417,326.583,441.417,320.731,435.566z"/>
	<path style="fill:#030303;" d="M355.84,415.086c-4.389,0-7.314-1.463-10.24-4.389l-48.274-48.274
		c-2.926-2.926-4.389-7.314-4.389-11.703s2.926-8.777,5.851-10.24c7.314-5.851,14.629-11.703,23.406-19.017
		c7.314-7.314,13.166-14.629,19.017-21.943c2.926-2.926,5.851-5.851,10.24-5.851c4.389,0,8.777,1.463,11.703,4.389l48.274,48.274
		c5.851,5.851,5.851,14.629,0,20.48L366.08,412.16C363.154,413.623,358.766,415.086,355.84,415.086z M328.046,353.646l26.331,26.331
		l24.869-24.869l-26.331-26.331c-4.389,4.389-7.314,8.777-11.703,13.166C336.823,346.331,332.434,349.257,328.046,353.646z"/>
	<path style="fill:#030303;" d="M58.88,341.943c-77.531-77.531-77.531-204.8,0-283.794c77.531-77.531,204.8-77.531,283.794,0
		c67.291,67.291,77.531,175.543,23.406,254.537c-7.314,10.24-14.629,20.48-23.406,29.257c-8.777,8.777-19.017,17.554-29.257,23.406
		C234.423,419.474,127.634,410.697,58.88,341.943z M79.36,78.629C12.069,145.92,12.069,254.171,79.36,320
		c59.977,59.977,150.674,65.829,217.966,20.48c8.777-5.851,17.554-13.166,24.869-20.48c7.314-7.314,14.629-16.091,20.48-24.869
		c46.811-67.291,38.034-159.451-20.48-217.966C253.44,12.8,145.189,11.337,79.36,78.629z"/>
</g>
<path style="fill:#A5C3D1;" d="M300.251,286.354c-1.463-54.126-45.349-98.011-100.937-98.011S99.84,232.229,98.377,286.354H300.251z
	"/>
<g style="opacity:0.1;">
	<path style="fill:#030303;" d="M288.549,242.469c-16.091-11.703-36.571-19.017-58.514-19.017
		c-42.423,0-77.531,26.331-93.623,62.903H99.84c1.463-54.126,45.349-98.011,100.937-98.011
		C238.811,186.88,272.457,208.823,288.549,242.469z"/>
</g>
<circle style="fill:#F6E272;" cx="199.314" cy="132.754" r="54.126"/>
<path style="fill:#FFCA19;" d="M247.589,107.886c-7.314-4.389-17.554-7.314-26.331-7.314c-29.257,0-54.126,24.869-54.126,54.126
	c0,8.777,2.926,17.554,5.851,24.869c-16.091-8.777-27.794-26.331-27.794-46.811c0-29.257,24.869-54.126,54.126-54.126
	C219.794,78.629,238.811,90.331,247.589,107.886z"/>
<path d="M199.314,201.509c-38.034,0-68.754-30.72-68.754-68.754S161.28,64,199.314,64s68.754,30.72,68.754,68.754
	S237.349,201.509,199.314,201.509z M199.314,93.257c-21.943,0-39.497,17.554-39.497,39.497c0,21.943,17.554,39.497,39.497,39.497
	s39.497-17.554,39.497-39.497C238.811,110.811,221.257,93.257,199.314,93.257z"/>
<path d="M300.251,300.983H99.84c-4.389,0-7.314-1.463-10.24-4.389c-2.926-2.926-4.389-7.314-4.389-10.24
	c1.463-62.903,52.663-112.64,115.566-112.64s114.103,51.2,115.566,112.64c0,4.389-1.463,7.314-4.389,10.24
	C307.566,298.057,304.64,300.983,300.251,300.983z M115.931,271.726H284.16c-7.314-39.497-42.423-68.754-83.383-68.754
	S123.246,232.229,115.931,271.726z"/>
<g>
</g>
<g>
</g>
<g>
</g>
<g>
</g>
<g>
</g>
<g>
</g>
<g>
</g>
<g>
</g>
<g>
</g>
<g>
</g>
<g>
</g>
<g>
</g>
<g>
</g>
<g>
</g>
<g>
</g>
</svg>
