<?xml version="1.0" encoding="iso-8859-1"?>
<!-- Generator: Adobe Illustrator 19.0.0, SVG Export Plug-In . SVG Version: 6.00 Build 0)  -->
<svg version="1.1" id="Capa_1" xmlns="http://www.w3.org/2000/svg" xmlns:xlink="http://www.w3.org/1999/xlink" x="0px" y="0px"
	 viewBox="0 0 497.371 497.371" style="enable-background:new 0 0 497.371 497.371;" xml:space="preserve">
<path style="fill:#FFFFFF;" d="M459.337,482.743H38.034c-13.166,0-23.406-10.24-23.406-23.406V38.034
	c0-13.166,10.24-23.406,23.406-23.406h421.303c13.166,0,23.406,10.24,23.406,23.406v421.303
	C482.743,472.503,472.503,482.743,459.337,482.743z"/>
<path style="fill:#EF3956;" d="M482.743,125.806V38.034c0-13.166-10.24-23.406-23.406-23.406H38.034
	c-13.166,0-23.406,10.24-23.406,23.406v87.771H482.743z"/>
<path d="M459.337,497.371H38.034C17.554,497.371,0,479.817,0,459.337V38.034C0,17.554,17.554,0,38.034,0h421.303
	c20.48,0,38.034,17.554,38.034,38.034v421.303C497.371,479.817,479.817,497.371,459.337,497.371z M38.034,29.257
	c-4.389,0-8.777,4.389-8.777,8.777v421.303c0,4.389,4.389,8.777,8.777,8.777h421.303c4.389,0,8.777-4.389,8.777-8.777V38.034
	c0-4.389-4.389-8.777-8.777-8.777H38.034z"/>
<rect x="304.274" y="193.097" style="fill:#FFCA19;" width="105.326" height="81.92"/>
<rect x="194.56" y="193.097" style="fill:#F15E75;" width="105.326" height="81.92"/>
<rect x="87.771" y="193.097" style="fill:#A5C3D1;" width="106.789" height="81.92"/>
<g style="opacity:0.1;">
	<rect x="304.274" y="193.097" style="fill:#030303;" width="105.326" height="29.257"/>
</g>
<g style="opacity:0.1;">
	<rect x="194.56" y="193.097" style="fill:#030303;" width="105.326" height="29.257"/>
</g>
<g style="opacity:0.1;">
	<rect x="87.771" y="193.097" style="fill:#030303;" width="106.789" height="29.257"/>
</g>
<rect x="14.629" y="111.177" width="468.114" height="29.257"/>
<g>
	<path style="fill:#FFFFFF;" d="M64.366,80.457c-5.851-5.851-5.851-14.629,0-20.48s16.091-5.851,20.48,0
		c5.851,5.851,5.851,14.629,0,20.48C78.994,86.309,70.217,86.309,64.366,80.457z"/>
	<path style="fill:#FFFFFF;" d="M114.103,80.457c-5.851-5.851-5.851-14.629,0-20.48s14.629-5.851,20.48,0s5.851,14.629,0,20.48
		C128.731,86.309,119.954,86.309,114.103,80.457z"/>
	<path style="fill:#FFFFFF;" d="M163.84,80.457c-5.851-5.851-5.851-14.629,0-20.48s14.629-5.851,20.48,0s5.851,14.629,0,20.48
		C178.469,86.309,169.691,86.309,163.84,80.457z"/>
	<path style="fill:#FFFFFF;" d="M422.766,84.846H250.149c-8.777,0-14.629-5.851-14.629-14.629s5.851-14.629,14.629-14.629h171.154
		c8.777,0,14.629,5.851,14.629,14.629S430.08,84.846,422.766,84.846z"/>
</g>
<path d="M409.6,289.646H87.771c-8.777,0-14.629-5.851-14.629-14.629v-81.92c0-8.777,5.851-14.629,14.629-14.629H409.6
	c8.777,0,14.629,5.851,14.629,14.629v81.92C424.229,282.331,418.377,289.646,409.6,289.646z M102.4,260.389h292.571v-52.663H102.4
	V260.389z"/>
<path d="M409.6,425.691H87.771c-8.777,0-14.629-5.851-14.629-14.629s5.851-14.629,14.629-14.629H409.6
	c8.777,0,14.629,5.851,14.629,14.629S418.377,425.691,409.6,425.691z"/>
<path d="M409.6,358.4H87.771c-8.777,0-14.629-5.851-14.629-14.629c0-8.777,5.851-14.629,14.629-14.629H409.6
	c8.777,0,14.629,5.851,14.629,14.629C424.229,352.549,418.377,358.4,409.6,358.4z"/>
<path d="M194.56,283.794c-8.777,0-14.629-5.851-14.629-14.629v-70.217c0-8.777,5.851-14.629,14.629-14.629
	c8.777,0,14.629,5.851,14.629,14.629v70.217C209.189,277.943,203.337,283.794,194.56,283.794z"/>
<path d="M302.811,283.794c-8.777,0-14.629-5.851-14.629-14.629v-70.217c0-8.777,5.851-14.629,14.629-14.629
	c8.777,0,14.629,5.851,14.629,14.629v70.217C317.44,277.943,310.126,283.794,302.811,283.794z"/>
<g>
</g>
<g>
</g>
<g>
</g>
<g>
</g>
<g>
</g>
<g>
</g>
<g>
</g>
<g>
</g>
<g>
</g>
<g>
</g>
<g>
</g>
<g>
</g>
<g>
</g>
<g>
</g>
<g>
</g>
</svg>
