<?xml version="1.0" encoding="iso-8859-1"?>
<!-- Generator: Adobe Illustrator 19.0.0, SVG Export Plug-In . SVG Version: 6.00 Build 0)  -->
<svg version="1.1" id="Capa_1" xmlns="http://www.w3.org/2000/svg" xmlns:xlink="http://www.w3.org/1999/xlink" x="0px" y="0px"
	 viewBox="0 0 496.55 496.55" style="enable-background:new 0 0 496.55 496.55;" xml:space="preserve">
<path style="fill:#A5C3D1;" d="M218.286,348.481l131.657-130.194c35.109,10.24,74.606,1.463,102.4-26.331
	s36.571-67.291,26.331-102.4l-62.903,62.903l-71.68-71.68l62.903-62.903c-35.109-10.24-74.606-1.463-102.4,26.331
	s-36.571,67.291-26.331,102.4L146.606,276.801c-35.109-10.24-74.606-1.463-102.4,26.331s-36.571,67.291-26.331,102.4l64.366-62.903
	l71.68,70.217l-62.903,62.903c35.109,10.24,74.606,1.463,102.4-26.331C219.749,423.086,228.526,383.589,218.286,348.481z"/>
<g style="opacity:0.1;">
	<path style="fill:#030303;" d="M117.349,379.201l263.314-263.314l-36.571-35.109l62.903-62.903
		c-35.109-10.24-74.606-1.463-102.4,26.331s-36.571,67.291-26.331,102.4L146.606,276.801c-35.109-10.24-74.606-1.463-102.4,26.331
		s-36.571,67.291-26.331,102.4l64.366-62.903L117.349,379.201z"/>
</g>
<path style="fill:#010101;" d="M86.629,491.841c-4.389-1.463-8.777-5.851-10.24-10.24c-1.463-4.389,0-10.24,4.389-14.629
	l52.663-52.663l-51.2-49.737l-52.663,52.663c-2.926,4.389-8.777,5.851-14.629,4.389c-4.389-1.463-8.777-4.389-10.24-10.24
	c-11.703-40.96-1.463-86.309,29.257-117.029c29.257-29.257,68.754-40.96,108.251-32.183l119.954-118.491
	c-8.777-39.497,2.926-80.457,32.183-108.251c30.72-32.183,76.069-42.423,117.029-30.72c4.389,1.463,8.777,5.851,10.24,10.24
	s0,10.24-4.389,14.629l-52.663,52.663l49.737,49.737l52.663-52.663c2.926-4.389,8.777-5.851,14.629-4.389
	c4.389,1.463,8.777,4.389,10.24,10.24c11.703,40.96,1.463,86.309-29.257,117.029c-29.257,29.257-70.217,40.96-108.251,32.183
	L234.378,352.869c8.777,39.497-2.926,80.457-32.183,108.251C171.475,493.304,126.126,503.544,86.629,491.841z M82.241,328.001
	c4.389,0,7.314,1.463,10.24,4.389l71.68,70.217c2.926,2.926,4.389,5.851,4.389,10.24s-1.463,7.314-4.389,10.24l-42.423,42.423
	c23.406,0,43.886-10.24,61.44-26.331c23.406-23.406,32.183-57.051,21.943-87.771c-1.463-5.851,0-10.24,4.389-14.629l131.657-130.194
	c4.389-4.389,8.777-5.851,14.629-4.389c30.72,8.777,65.829,0,87.771-23.406c16.091-16.091,24.869-38.034,26.331-61.44
	l-42.423,42.423c-2.926,2.926-5.851,4.389-10.24,4.389l0,0c-4.389,0-7.314-1.463-10.24-4.389l-71.68-70.217
	c-4.389-1.463-5.851-4.389-5.851-8.777s1.463-7.314,4.389-10.24l42.423-42.423c-23.406,0-43.886,10.24-61.44,26.331
	c-23.406,23.406-32.183,57.051-21.943,87.771c1.463,5.851,0,10.24-4.389,14.629L156.846,287.041
	c-4.389,4.389-8.777,5.851-14.629,4.389c-30.72-8.777-65.829,0-87.771,23.406c-16.091,16.091-24.869,38.034-26.331,61.44
	l42.423-42.423C74.926,330.926,77.852,329.464,82.241,328.001z"/>
<polygon style="fill:#849DA9;" points="307.521,332.389 387.978,287.041 468.435,332.389 468.435,426.012 387.978,472.824 
	307.521,426.012 "/>
<g style="opacity:0.1;">
	<polygon style="fill:#030303;" points="468.435,332.389 468.435,336.778 436.252,317.761 355.795,364.572 355.795,453.806 
		307.521,426.012 307.521,332.389 387.978,287.041 	"/>
</g>
<path style="fill:#010101;" d="M387.978,487.452c-2.926,0-4.389,0-7.314-1.463l-80.457-46.811
	c-4.389-2.926-7.314-7.314-7.314-13.166v-92.16c0-5.851,2.926-10.24,7.314-13.166l80.457-46.811c4.389-2.926,10.24-2.926,14.629,0
	l80.457,46.811c4.389,2.926,7.314,7.314,7.314,13.166v92.16c0,5.851-2.926,10.24-7.314,13.166l-80.457,46.811
	C392.366,485.989,389.441,487.452,387.978,487.452z M322.149,417.235l65.829,38.034l65.829-38.034v-76.069l-65.829-38.034
	l-65.829,38.034V417.235z"/>
<path style="fill:#FFFFFF;" d="M377.738,389.441c-5.851-5.851-5.851-14.629,0-20.48c5.851-5.851,14.629-5.851,20.48,0
	c5.851,5.851,5.851,14.629,0,20.48C392.366,395.292,383.589,395.292,377.738,389.441z"/>
<g>
</g>
<g>
</g>
<g>
</g>
<g>
</g>
<g>
</g>
<g>
</g>
<g>
</g>
<g>
</g>
<g>
</g>
<g>
</g>
<g>
</g>
<g>
</g>
<g>
</g>
<g>
</g>
<g>
</g>
</svg>
