<?xml version="1.0" encoding="iso-8859-1"?>
<!-- Generator: Adobe Illustrator 24.0.0, SVG Export Plug-In . SVG Version: 6.00 Build 0)  -->
<svg version="1.1" id="Capa_1" xmlns="http://www.w3.org/2000/svg" xmlns:xlink="http://www.w3.org/1999/xlink" x="0px" y="0px"
	 viewBox="0 0 511.978 511.978" style="enable-background:new 0 0 511.978 511.978;" xml:space="preserve">
<g>
	<g>
		<path style="fill:#9D6B6B;" d="M423.985,247.306l-23.668,50.14L91.86,247.42C78.668,192.759,46.514,69.34,152.301,22.674
			c81.409-35.917,164.898,3.108,164.898,3.108S500.706-9.875,423.985,247.306z"/>
		<path style="fill:#785252;" d="M180.765,213.613l-69.108,83.833L91.86,247.42C78.668,192.759,46.514,69.34,152.301,22.674
			c81.409-35.917,164.898,3.108,164.898,3.108C163.705,25.782,154.37,158.536,180.765,213.613z"/>
		<path style="fill:#E7ECF1;" d="M380.855,504.478H131.128l6.092-29.67c5.011-24.43,24.045-42.997,47.665-47.997
			c4.148-0.884,8.441-1.341,12.828-1.341H314.27c4.377,0,8.67,0.457,12.818,1.341c23.619,5,42.664,23.567,47.675,47.997
			L380.855,504.478z"/>
		<path style="fill:#C6D0DA;" d="M221.369,425.47c-2.599,0-5.146,0.457-7.61,1.341c-14.034,5-25.335,23.567-28.318,47.997
			l-3.618,29.67h-50.7l6.092-29.67c5.011-24.43,24.045-42.997,47.665-47.997c4.148-0.884,8.441-1.341,12.828-1.341H221.369z"/>
		<path style="fill:#F1D0A5;" d="M290.537,367.773v57.697c0,19.076-15.469,34.545-34.545,34.545
			c-19.087,0-34.556-15.469-34.556-34.545v-57.697H290.537z"/>
		<path style="fill:#F1B986;" d="M267.274,458.131c-3.535,1.216-7.329,1.882-11.279,1.882c-19.087,0-34.556-15.469-34.556-34.545
			v-57.697h22.559v57.697C243.998,440.604,253.728,453.464,267.274,458.131z"/>
		<path style="fill:#F1B986;" d="M111.659,319.73L111.659,319.73c-24.91,0-45.103-20.193-45.103-45.103v0
			c0-3.428,0.382-6.767,1.107-9.977c5.851-25.913,43.996-21.663,43.996,4.902h288.659c0-26.566,38.145-30.816,43.996-4.902
			c0.725,3.209,1.107,6.548,1.107,9.977v0c0,24.91-20.193,45.103-45.103,45.103l0,0"/>
		<rect x="221.436" y="367.773" style="fill:#F1B986;" width="69.101" height="53.154"/>
		<path style="fill:#F1D0A5;" d="M400.314,223.874v73.571c0,58.092-47.093,105.195-105.195,105.195h-78.27
			c-58.092,0-105.195-47.103-105.195-105.195v-71.502c22.164-3.025,45.741-7.048,69.111-12.329
			c56.657-12.787,112.16-33.007,143.69-64.537C324.455,149.076,344.457,215.578,400.314,223.874z"/>
		<path style="fill:#454045;" d="M301.143,330.908c0,7.72-3.66,14.81-9.79,20.42c-8.27,7.57-21.04,12.43-35.37,12.43
			c-14.33,0-27.1-4.86-35.37-12.43c-6.13-5.61-9.79-12.7-9.79-20.42c0-18.14,20.22-15.4,45.16-15.4S301.143,312.768,301.143,330.908
			z"/>
		<ellipse style="fill:#DA4A54;" cx="255.983" cy="351.328" rx="35.37" ry="12.43"/>
		<path style="fill:#F1B986;" d="M285.96,402.64h-69.111c-58.092,0-105.195-47.103-105.195-105.195v-71.502
			c22.164-3.025,45.741-7.048,69.111-12.329v83.832C180.765,355.536,227.858,402.64,285.96,402.64z"/>
		<g>
			<ellipse style="fill:#E29375;" cx="341.006" cy="304.921" rx="23.626" ry="14.366"/>
			<ellipse style="fill:#E29375;" cx="170.971" cy="304.921" rx="23.626" ry="14.366"/>
		</g>
		<g>
			<path style="fill:#D82E3D;" d="M260.662,448.056h-9.341c-7.614,0-13.786,6.172-13.786,13.785v9.341
				c0,7.614,6.172,13.786,13.786,13.786h9.341c7.614,0,13.786-6.172,13.786-13.786v-9.341
				C274.448,454.228,268.276,448.056,260.662,448.056z"/>
			<path style="fill:#DA4A54;" d="M237.536,470.184c0,0-13.32,20.935-28.617,17.277s-6.473-21.449-6.473-21.449
				s-8.824-17.791,6.473-21.449s28.617,17.277,28.617,17.277"/>
			<path style="fill:#DA4A54;" d="M274.448,470.184c0,0,13.32,20.935,28.617,17.277c15.297-3.658,6.473-21.449,6.473-21.449
				s8.824-17.791-6.473-21.449c-15.297-3.658-28.617,17.277-28.617,17.277"/>
		</g>
		<g>
			<polyline style="fill:#454045;" points="399.478,414.291 399.478,504.478 360.238,504.478 360.238,414.291 			"/>
			<circle style="fill:#E7ECF1;" cx="379.859" cy="373.911" r="44.893"/>
			<path style="fill:#C6D0DA;" d="M395.326,416.071c-4.82,1.77-10.03,2.73-15.47,2.73c-24.79,0-44.89-20.1-44.89-44.89
				s20.1-44.89,44.89-44.89c5.44,0,10.65,0.96,15.47,2.73c-17.17,6.3-29.43,22.8-29.43,42.16
				C365.896,393.271,378.156,409.771,395.326,416.071z"/>
			<path style="fill:#F1D0A5;" d="M408.93,418.804h-10.239c-9.824,0-17.788,7.964-17.788,17.788v30.267
				c0,9.824,7.964,17.788,17.788,17.788h10.239c9.824,0,17.788-7.964,17.788-17.788v-30.267
				C426.718,426.768,418.754,418.804,408.93,418.804z"/>
			<path style="fill:#F1B986;" d="M412.453,484.302c-1.14,0.23-2.31,0.35-3.52,0.35h-10.24c-9.83,0-17.79-7.97-17.79-17.79v-30.27
				c0-9.82,7.96-17.79,17.79-17.79h10.24c1.21,0,2.38,0.12,3.52,0.35c-8.14,1.64-14.26,8.83-14.26,17.44v30.27
				C398.193,475.472,404.313,482.662,412.453,484.302z"/>
			<path style="fill:#F1B986;" d="M350.582,464.03h9.656v-31.924h-9.656c-8.372,0-15.159,6.787-15.159,15.159v1.606
				C335.422,457.243,342.209,464.03,350.582,464.03z"/>
		</g>
	</g>
	<g>
		<path d="M452.921,274.627c0-3.921-0.435-7.834-1.291-11.628c-2.585-11.449-9.913-18.264-18.2-21.309
			C459.234,151.018,455.33,86.31,421.78,49.3c-35.459-39.116-91.227-33.175-103.61-31.286c-6.284-2.682-25.385-10.196-51.639-14.65
			c-53.161-9.018-93.109,1.79-117.26,12.445c-47.344,20.887-73.943,58.924-79.06,113.053c-3.898,41.242,5.284,82.633,12.264,111.674
			c-9.817,2.183-19.14,9.229-22.129,22.462c-0.856,3.794-1.291,7.707-1.291,11.629c0,27.817,21.707,50.645,49.069,52.471
			c12.805,46.901,55.212,81.712,105.812,83.002v7.867h-16.228c-4.842,0-9.682,0.506-14.383,1.502
			c-26.935,5.702-47.917,26.832-53.454,53.83l-6.09,29.67c-0.453,2.208,0.11,4.501,1.535,6.248s3.559,2.76,5.812,2.76h268.354
			c4.142,0,7.5-3.358,7.5-7.5v-12.33h1.947c13.944,0,25.288-11.344,25.288-25.288v-30.267c0-11.636-7.902-21.455-18.62-24.389
			c6.087-5.675,10.871-12.826,13.732-21.037c1.363-3.911-0.702-8.187-4.614-9.55c-3.912-1.363-8.187,0.702-9.55,4.614
			c-5.229,15-19.417,25.078-35.308,25.078c-20.617,0-37.39-16.777-37.39-37.4c0-20.617,16.773-37.39,37.39-37.39
			c15.893,0,30.082,10.074,35.308,25.068c1.363,3.911,5.638,5.978,9.55,4.614c3.912-1.363,5.977-5.639,4.614-9.55
			c-4.522-12.976-13.837-23.317-25.541-29.333c0.02-0.073,0.04-0.145,0.06-0.217C431.213,325.275,452.921,302.445,452.921,274.627z
			 M437.921,274.628c0,18.478-13.4,33.874-30.991,37.009c0.588-4.683,0.888-9.418,0.888-14.189v-10.941
			c2.46-2.711,7.896-7.58,13.587-5.285c3.843,1.551,8.212-0.308,9.761-4.149c1.55-3.841-0.308-8.212-4.149-9.761
			c-6.199-2.502-12.831-2.228-19.129,0.68c0.716-8.643,7.338-12.477,13.062-13.115c6.06-0.672,13.898,1.911,16.047,11.426
			C437.611,269.014,437.921,271.816,437.921,274.628z M74.056,274.627c0-2.812,0.311-5.613,0.923-8.325
			c2.148-9.515,9.99-12.096,16.047-11.426c5.723,0.638,12.345,4.472,13.062,13.115c-6.297-2.907-12.928-3.181-19.129-0.68
			c-3.841,1.549-5.699,5.92-4.149,9.761c1.549,3.841,5.918,5.7,9.761,4.149c5.688-2.293,11.126,2.575,13.587,5.286v10.941
			c0,4.805,0.304,9.541,0.891,14.189C87.458,308.503,74.056,293.106,74.056,274.627z M352.743,418.728v5.878h-2.161
			c-1.861,0-3.669,0.23-5.401,0.656c-5.237-2.619-10.781-4.569-16.536-5.791c-4.704-0.997-9.541-1.503-14.376-1.503h-16.231v-7.869
			c13.12-0.329,25.843-2.885,37.946-7.608C340.284,409.073,346.014,414.64,352.743,418.728z M342.922,447.265
			c0-4.223,3.436-7.659,7.659-7.659h2.156v16.924h-2.156c-4.223,0-7.659-3.436-7.659-7.659V447.265z M302.801,469.311
			c1.221,2.527,2.39,7.125,1.412,9.186c-0.129,0.273-0.523,1.104-2.894,1.67c-7.245,1.737-15.655-7.293-19.372-12.326v-3.654
			c3.499-4.698,12.04-14.086,19.372-12.329c2.37,0.566,2.764,1.397,2.894,1.67c0.978,2.061-0.191,6.659-1.395,9.152
			C301.789,464.755,301.795,467.226,302.801,469.311z M283.037,425.468c0,7.676-3.285,14.9-8.828,19.968
			c-3.683-3.047-8.405-4.881-13.547-4.881h-9.341c-5.145,0-9.868,1.836-13.552,4.885c-5.54-5.064-8.825-12.279-8.831-19.949
			c0-0.008,0.001-0.015,0.001-0.023c0-0.013-0.002-0.026-0.002-0.039v-15.291h54.1V425.468z M266.948,461.841v9.341
			c0,3.466-2.82,6.285-6.286,6.285h-9.341c-3.466,0-6.286-2.819-6.286-6.285v-9.341c0-3.466,2.82-6.286,6.286-6.286h9.341
			C264.128,455.555,266.948,458.375,266.948,461.841z M209.182,462.715c-1.221-2.527-2.39-7.125-1.412-9.186
			c0.129-0.273,0.524-1.104,2.893-1.67c7.243-1.733,15.664,7.305,19.373,12.325v3.657c-3.718,5.032-12.13,14.058-19.373,12.326
			c-2.37-0.566-2.764-1.397-2.893-1.67c-0.978-2.061,0.191-6.658,1.395-9.151C210.194,467.271,210.189,464.8,209.182,462.715z
			 M144.566,476.315c4.338-21.151,20.771-37.704,41.869-42.17c3.683-0.781,7.476-1.177,11.274-1.177h16.925
			c0.238,1.307,0.526,2.6,0.884,3.87c-2.671-0.342-5.46-0.259-8.344,0.431c-7.776,1.86-11.359,6.416-12.995,9.911
			c-3.172,6.776-1.364,14.49,0.168,18.833c-1.533,4.343-3.34,12.057-0.168,18.833c1.636,3.495,5.218,8.051,12.995,9.91
			c1.831,0.438,3.624,0.637,5.374,0.637c9.016,0,16.843-5.302,22.423-10.604c3.908,4.688,9.785,7.679,16.351,7.679h9.341
			c6.565,0,12.443-2.991,16.351-7.678c5.579,5.303,13.406,10.604,22.423,10.604c1.748,0,3.544-0.2,5.373-0.637
			c7.777-1.859,11.359-6.416,12.995-9.91c3.172-6.776,1.364-14.49-0.168-18.833c1.533-4.343,3.34-12.057,0.168-18.833
			c-1.636-3.495-5.218-8.051-12.995-9.911c-2.888-0.69-5.679-0.772-8.353-0.429c0.358-1.271,0.647-2.565,0.885-3.872h16.928
			c3.792,0,7.582,0.396,11.263,1.176c1.898,0.403,3.766,0.911,5.601,1.512c-2.036,3.398-3.21,7.369-3.21,11.609v1.605
			c0,12.494,10.165,22.659,22.659,22.659h2.161v25.448H140.325L144.566,476.315z M380.849,496.978h-13.106v-72.1
			c2.578,0.613,5.229,1.033,7.938,1.248c-1.458,3.192-2.277,6.734-2.277,10.466v30.267c0,11.621,7.882,21.43,18.58,24.378v5.74
			H380.849z M419.218,436.592v30.267c0,5.673-4.615,10.288-10.288,10.288h-10.238c-5.673,0-10.288-4.615-10.288-10.288v-30.267
			c0-5.673,4.615-10.288,10.288-10.288h10.238C414.603,426.304,419.218,430.92,419.218,436.592z M327.469,373.908
			c0,5.193,0.77,10.207,2.183,14.946c-10.998,4.168-22.582,6.284-34.533,6.284h-78.27c-53.866,0-97.69-43.824-97.69-97.69v-64.98
			c11.439-1.647,22.68-3.48,33.502-5.463c4.074-0.747,6.772-4.654,6.025-8.729c-0.746-4.074-4.657-6.774-8.729-6.025
			c-12.638,2.316-25.866,4.424-39.316,6.267c-3.714,0.509-6.482,3.682-6.482,7.431v17.656c-1.97-1.076-4.033-1.923-6.126-2.544
			c-6.822-28.189-16.736-70.064-12.888-110.786c2.109-22.319,8.248-41.687,18.244-57.568c11.716-18.612,29.19-33.137,51.937-43.173
			c40.188-17.73,81.046-16.016,108.246-11.456c29.802,4.996,50.253,14.408,50.451,14.5c1.43,0.668,3.045,0.866,4.596,0.57
			c0.583-0.111,58.646-10.724,92.119,26.305c13.576,15.018,21.598,36.123,23.841,62.729c2.669,31.65-2.834,71.316-16.309,117.922
			c-3.544,0.518-7.13,1.687-10.45,3.501v-19.737c0-3.717-2.722-6.873-6.399-7.419c-50.391-7.478-69.593-68.92-69.779-69.531
			c-0.76-2.527-2.792-4.469-5.351-5.113c-2.56-0.646-5.269,0.104-7.134,1.969c-26.516,26.515-73.698,47.566-140.236,62.567
			c-4.041,0.911-6.578,4.925-5.667,8.966c0.911,4.041,4.925,6.577,8.966,5.667c62.979-14.199,109.705-33.981,139.143-58.881
			c2.893,6.765,7.417,15.965,13.874,25.482c15.43,22.743,35.233,37.324,57.584,42.499v67.375c0,8.51-1.099,16.883-3.241,24.986
			c-3.166-0.598-6.415-0.916-9.719-0.916C350.971,321.518,327.469,345.02,327.469,373.908z"/>
		<ellipse cx="183.348" cy="259.197" rx="13.354" ry="22.173"/>
		<path d="M328.619,237.024c-7.363,0-13.354,9.947-13.354,22.173c0,12.226,5.991,22.173,13.354,22.173s13.354-9.947,13.354-22.173
			C341.973,246.971,335.983,237.024,328.619,237.024z"/>
		<path d="M241.985,294.867h27.997c4.142,0,7.5-3.358,7.5-7.5s-3.358-7.5-7.5-7.5h-27.997c-4.142,0-7.5,3.358-7.5,7.5
			S237.843,294.867,241.985,294.867z"/>
		<path d="M264.611,307.931c-5.583,0.075-11.674,0.075-17.257,0c-16.183-0.219-30.158-0.406-38.18,7.509
			c-3.882,3.831-5.851,9.035-5.851,15.467c0,9.521,4.342,18.738,12.226,25.953c0.016,0.014,0.032,0.027,0.048,0.042
			c0.03,0.027,0.061,0.052,0.091,0.078c9.994,9.074,24.665,14.277,40.295,14.277c15.614,0,30.271-5.194,40.264-14.25
			c0.033-0.028,0.065-0.055,0.097-0.084c0.024-0.021,0.049-0.041,0.073-0.063c7.884-7.216,12.227-16.433,12.227-25.953
			c0-6.433-1.969-11.636-5.851-15.467C294.769,307.525,280.793,307.712,264.611,307.931z M219.709,326.118
			c2.815-2.777,11.005-3.254,20.119-3.254c2.404,0,4.873,0.033,7.324,0.066c5.714,0.077,11.947,0.077,17.661,0
			c11.746-0.157,23.886-0.321,27.443,3.188c0.343,0.338,1.386,1.368,1.386,4.79c0,4.015-1.422,7.433-3.277,10.194
			c-9.465-6.227-21.605-9.704-34.383-9.704c-12.778,0-24.918,3.477-34.383,9.704c-1.855-2.761-3.277-6.179-3.277-10.194
			C218.323,327.486,219.366,326.456,219.709,326.118z M233.84,351.328c6.366-3.182,14.035-4.93,22.143-4.93
			c8.108,0,15.777,1.748,22.143,4.93c-6.366,3.182-14.035,4.93-22.143,4.93C247.875,356.258,240.206,354.51,233.84,351.328z"/>
	</g>
</g>
<g>
</g>
<g>
</g>
<g>
</g>
<g>
</g>
<g>
</g>
<g>
</g>
<g>
</g>
<g>
</g>
<g>
</g>
<g>
</g>
<g>
</g>
<g>
</g>
<g>
</g>
<g>
</g>
<g>
</g>
</svg>
