<?xml version="1.0" encoding="iso-8859-1"?>
<!-- Generator: Adobe Illustrator 24.0.0, SVG Export Plug-In . SVG Version: 6.00 Build 0)  -->
<svg version="1.1" id="Capa_1" xmlns="http://www.w3.org/2000/svg" xmlns:xlink="http://www.w3.org/1999/xlink" x="0px" y="0px"
	 viewBox="0 0 511.955 511.955" style="enable-background:new 0 0 511.955 511.955;" xml:space="preserve">
<g>
	<g>
		<path style="fill:#E7ECF1;" d="M450.642,109.69c-129.776-10.229-259.553-10.229-389.329,0
			c-19.376,1.527-34.856,16.678-36.951,36.001c-11.391,105.042-11.391,210.083,0,315.125c2.095,19.323,17.576,34.474,36.951,36.001
			c129.776,10.229,259.553,10.229,389.329,0c19.376-1.527,34.856-16.678,36.951-36.001c11.391-105.042,11.391-210.083,0-315.125
			C485.498,126.368,470.018,111.217,450.642,109.69z"/>
		<path style="fill:#C6D0DA;" d="M69.767,497.458c-2.824-0.203-5.638-0.417-8.453-0.64c-19.374-1.524-34.857-16.682-36.949-36.005
			c-11.389-105.037-11.389-210.085,0-315.122c2.093-19.323,17.576-34.471,36.949-36.005c2.814-0.224,5.628-0.437,8.453-0.64
			c-9.814,6.776-16.6,17.637-17.962,30.194c-11.856,109.345-11.856,218.68,0,328.025C53.166,479.821,59.953,490.681,69.767,497.458z
			"/>
		<path style="fill:#C6D0DA;" d="M386.647,296.953c-40.729,36.005-88.071,66.716-130.67,79.436
			c-56.364-16.824-120.998-65.131-167.67-115.542c-39.692-42.872-66.381-87.279-63.943-115.156
			c2.093-19.323,17.576-34.471,36.95-36.005c129.775-10.22,259.551-10.22,389.326,0c19.374,1.534,34.857,16.682,36.949,36.005
			C490.729,181.573,445.612,244.815,386.647,296.953z"/>
		<path style="fill:#F4DD45;" d="M447.979,143.384c-19.008,51.813-39.459,103.005-61.332,153.568
			c-40.729,36.005-88.071,66.716-130.669,79.436c-56.364-16.824-120.998-65.131-167.67-115.542
			c31.423-77.709,66.147-153.985,104.184-228.809c9.773-19.232,31.89-28.842,52.575-22.706
			c64.542,19.14,125.803,45.839,183.762,80.086C447.4,100.39,455.415,123.137,447.979,143.384z"/>
		<path style="fill:#EAB14D;" d="M396.989,257.768c3.393-2.997,6.736-6.035,10.027-9.103c-6.644,16.164-13.441,32.256-20.37,48.287
			c-40.729,36.005-88.071,66.716-130.669,79.436c-56.364-16.824-120.998-65.131-167.67-115.542
			c4.714-11.663,9.499-23.285,14.375-34.887c46.306,48.836,108.878,94.898,163.637,111.245
			C308.918,324.485,356.26,293.773,396.989,257.768z"/>
		<path style="fill:#DA4A54;" d="M235.748,107.819l22.084-1.049c6.322-0.3,12.092-3.692,15.429-9.071l11.656-18.787
			c8.403-13.544,28.69-11.574,34.329,3.335l7.822,20.679c2.239,5.92,7.248,10.359,13.395,11.871l21.469,5.28
			c15.478,3.806,19.873,23.709,7.437,33.679l-17.25,13.829c-4.938,3.959-7.612,10.095-7.151,16.408l1.613,22.05
			c1.163,15.897-16.408,26.227-29.733,17.48l-18.483-12.132c-5.291-3.473-11.953-4.12-17.814-1.731l-20.472,8.348
			c-14.76,6.018-30.013-7.5-25.812-22.876l5.827-21.327c1.668-6.106,0.225-12.641-3.859-17.477l-14.266-16.891
			C211.684,127.26,219.827,108.575,235.748,107.819z"/>
	</g>
	<g>
		<path d="M495.047,144.883c-2.471-22.813-20.75-40.698-43.524-42.644c-4.369-7.769-10.764-14.484-18.878-19.278
			C374.423,48.559,312.03,21.367,247.199,2.141c-23.871-7.078-49.578,3.852-61.123,25.992c-1.916,3.673-0.491,8.203,3.182,10.118
			c3.674,1.915,8.203,0.49,10.118-3.182c8.234-15.789,26.552-23.59,43.559-18.547c63.654,18.877,124.915,45.575,182.08,79.353
			c15.438,9.121,22.136,28.014,15.924,44.926c-18.65,50.836-39.008,101.839-60.514,151.632
			c-42.531,37.366-86.574,64.302-124.446,76.114c-49.073-15.317-109.391-56.84-158.91-109.326
			c27.056-66.582,56.879-132.854,88.694-197.053c1.839-3.711,0.321-8.211-3.39-10.05c-3.712-1.839-8.211-0.322-10.05,3.39
			c-6.759,13.64-13.424,27.377-19.997,41.186c-30.581,1.281-61.371,3.13-91.601,5.515c-22.906,1.814-41.332,19.761-43.813,42.672
			c-11.404,105.087-11.404,211.654,0,316.739c2.483,22.925,20.911,40.873,43.817,42.674c64.758,5.107,129.994,7.661,195.219,7.661
			c60.158,0,120.306-2.173,180.053-6.52c4.131-0.3,7.236-3.893,6.936-8.024c-0.3-4.131-3.886-7.238-8.024-6.936
			c-123.774,9.004-249.27,8.623-373.006-1.135c-15.673-1.233-28.29-13.496-30.062-29.187c0-0.001,0-0.002,0-0.003
			c-2.339-26.715,27.073-74.947,74.93-122.875c2.927-2.931,2.923-7.68-0.008-10.606c-2.931-2.927-7.68-2.923-10.606,0.008
			c-26.478,26.517-53.64,59.951-68.338,90.419c-5.935-75.637-5.945-151.832-0.022-227.471
			c10.913,22.759,29.622,48.897,55.008,76.317c41.183,44.481,107.739,98.743,171.028,117.633c0.7,0.209,1.422,0.313,2.145,0.313
			c0.723,0,1.446-0.104,2.146-0.313c40.762-12.171,88.169-40.939,133.492-81.004c37.609-33.254,74.646-75.858,92.536-112.976
			c5.926,75.646,5.921,151.849-0.014,227.495c-14.699-30.466-41.859-63.898-68.336-90.413c-2.927-2.932-7.676-2.935-10.606-0.008
			c-2.931,2.927-2.935,7.675-0.008,10.606c47.837,47.908,77.243,96.117,74.932,122.84c-1.253,11.242-8.016,20.928-18.115,25.927
			c-3.712,1.837-5.232,6.336-3.395,10.049c1.308,2.643,3.965,4.174,6.728,4.174c1.117,0,2.252-0.25,3.321-0.78
			c14.749-7.3,24.614-21.456,26.388-37.864C506.45,356.535,506.45,249.968,495.047,144.883z M31.833,146.408
			c1.745-15.71,14.377-28.003,30.071-29.245c27.454-2.166,55.377-3.892,83.181-5.145c-20.841,44.441-40.664,89.598-59.215,134.929
			C50.437,206.653,29.925,168.732,31.833,146.408z M407.627,266.743c16.681-39.911,32.577-80.393,47.392-120.773
			c3.313-9.019,3.996-18.441,2.386-27.36c12.149,3.876,21.257,14.639,22.718,27.805
			C482.377,172.846,452.995,220.637,407.627,266.743z"/>
		<path d="M356.81,173.437l17.25-13.829c7.997-6.411,11.592-16.611,9.382-26.62s-9.766-17.747-19.719-20.194l-21.469-5.28
			c-3.75-0.922-6.805-3.629-8.171-7.241l-7.822-20.679c-3.626-9.587-12.216-16.158-22.418-17.149
			c-10.204-0.991-19.896,3.804-25.299,12.513l-11.655,18.787c-2.036,3.282-5.555,5.35-9.412,5.534l-22.084,1.049
			c-10.238,0.486-19.142,6.625-23.236,16.021c-4.095,9.396-2.531,20.097,4.083,27.928l14.266,16.891
			c2.492,2.95,3.372,6.936,2.354,10.661l-5.827,21.327c-2.701,9.887,0.386,20.252,8.057,27.05c7.67,6.798,18.332,8.617,27.823,4.747
			l20.472-8.348c3.577-1.458,7.638-1.064,10.867,1.056l18.483,12.132c4.475,2.938,9.562,4.414,14.66,4.414
			c4.663,0,9.335-1.235,13.556-3.717c8.836-5.195,13.86-14.771,13.113-24.994l-1.613-22.05
			C352.166,179.594,353.797,175.852,356.81,173.437z M347.428,161.734c-6.866,5.503-10.582,14.029-9.94,22.806l1.613,22.05
			c0.333,4.554-1.818,8.655-5.755,10.969c-3.935,2.314-8.565,2.2-12.382-0.306l-18.483-12.132
			c-4.421-2.902-9.528-4.385-14.669-4.385c-3.413,0-6.841,0.654-10.093,1.979l-20.472,8.348c-4.229,1.724-8.793,0.945-12.21-2.083
			c-3.417-3.028-4.739-7.466-3.536-11.871l5.827-21.327c2.319-8.489,0.314-17.57-5.364-24.293l-14.266-16.891
			c-2.946-3.489-3.616-8.07-1.792-12.256s5.637-6.814,10.198-7.031l22.084-1.049c8.79-0.417,16.807-5.131,21.446-12.609
			l11.655-18.787c2.407-3.88,6.555-5.932,11.103-5.491c4.545,0.441,8.223,3.255,9.838,7.526l7.822,20.679
			c3.113,8.231,10.074,14.399,18.619,16.5l21.469,5.28c4.434,1.091,7.669,4.404,8.654,8.862s-0.555,8.826-4.118,11.682
			L347.428,161.734z"/>
		<path d="M144.818,217.581c-1.655,3.797,0.082,8.217,3.879,9.872l183.762,80.086c0.976,0.425,1.992,0.626,2.993,0.626
			c2.893,0,5.65-1.684,6.879-4.505c1.655-3.797-0.082-8.217-3.879-9.872L154.69,213.702
			C150.892,212.048,146.473,213.784,144.818,217.581z"/>
		<path d="M137.427,245.524c-3.798-1.655-8.217,0.082-9.872,3.879c-1.655,3.797,0.082,8.217,3.879,9.872l105.01,45.765
			c0.976,0.425,1.992,0.626,2.993,0.626c2.893,0,5.65-1.684,6.879-4.505c1.655-3.797-0.082-8.217-3.879-9.872L137.427,245.524z"/>
	</g>
</g>
<g>
</g>
<g>
</g>
<g>
</g>
<g>
</g>
<g>
</g>
<g>
</g>
<g>
</g>
<g>
</g>
<g>
</g>
<g>
</g>
<g>
</g>
<g>
</g>
<g>
</g>
<g>
</g>
<g>
</g>
</svg>
