<?xml version="1.0" encoding="iso-8859-1"?>
<!-- Generator: Adobe Illustrator 24.0.0, SVG Export Plug-In . SVG Version: 6.00 Build 0)  -->
<svg version="1.1" id="Capa_1" xmlns="http://www.w3.org/2000/svg" xmlns:xlink="http://www.w3.org/1999/xlink" x="0px" y="0px"
	 viewBox="0 0 511.971 511.971" style="enable-background:new 0 0 511.971 511.971;" xml:space="preserve">
<g>
	<g>
		<path style="fill:#E7ECF1;" d="M432.653,59.181l-72.791,6.851c-10.274,0.967-17.819,10.08-16.852,20.354l6.851,72.791
			c0.967,10.274,10.08,17.819,20.354,16.852l72.791-6.851c10.274-0.967,17.819-10.08,16.852-20.354l-6.851-72.791
			C452.04,65.759,442.927,58.214,432.653,59.181z"/>
		<path style="fill:#9D6B6B;" d="M320.98,503.245c-96.5-31.639-188.232-73.682-275.195-126.13
			c-10.068-6.072-14.515-18.382-10.537-29.446c40.802-113.48,90.867-222.714,150.196-327.702
			c5.784-10.236,18.013-14.903,29.185-11.24c96.5,31.639,188.232,73.682,275.195,126.13c10.068,6.072,14.515,18.382,10.537,29.446
			c-40.802,113.48-90.867,222.714-150.196,327.702C344.381,502.241,332.152,506.908,320.98,503.245z"/>
		<path style="fill:#785252;" d="M58.541,368.017c-1.977,5.49-1.96,11.266-0.291,16.511c-4.162-2.447-8.325-4.917-12.463-7.418
			c-10.075-6.071-14.518-18.378-10.536-29.444c40.794-113.479,90.862-222.719,150.195-327.701
			c5.783-10.24,18.006-14.909,29.182-11.239c4.596,1.501,9.184,3.043,13.755,4.598c-5.063,2.16-9.454,5.927-12.322,11.008
			C153.84,134.441,101.333,249.003,58.541,368.017z"/>
		<g>
			<g>
				<path style="fill:#E7ECF1;" d="M178.469,54.723l-23.11-10.592c-8.412-3.855-12.106-13.8-8.25-22.212v0
					c3.855-8.412,13.8-12.106,22.212-8.25l23.11,10.592c8.412,3.855,12.106,13.8,8.25,22.212v0
					C196.826,54.884,186.881,58.578,178.469,54.723z"/>
				<path style="fill:#C6D0DA;" d="M170.413,51.033l-15.052-6.899c-8.41-3.855-12.106-13.805-8.251-22.215
					c1.929-4.209,5.379-7.234,9.399-8.727c4.019-1.493,8.615-1.45,12.817,0.475l15.052,6.899c-4.201-1.926-8.789-1.964-12.809-0.471
					c-4.019,1.493-7.47,4.517-9.399,8.727C158.314,37.231,162.002,47.178,170.413,51.033z"/>
			</g>
			<g>
				<path style="fill:#E7ECF1;" d="M43.062,350.158l-23.11-10.592c-8.412-3.855-12.106-13.8-8.25-22.212l0,0
					c3.855-8.412,13.8-12.106,22.212-8.25l23.11,10.592c8.412,3.855,12.106,13.8,8.25,22.212l0,0
					C61.419,350.32,51.474,354.014,43.062,350.158z"/>
				<path style="fill:#C6D0DA;" d="M35.005,346.468l-15.052-6.899c-8.41-3.855-12.106-13.805-8.251-22.215
					c1.929-4.209,5.379-7.234,9.399-8.727c4.019-1.493,8.615-1.45,12.817,0.475l15.052,6.899c-4.201-1.926-8.789-1.964-12.809-0.471
					c-4.019,1.493-7.47,4.517-9.399,8.727C22.907,332.667,26.595,342.613,35.005,346.468z"/>
			</g>
			<g>
				<path style="fill:#E7ECF1;" d="M70.143,291.071l-23.11-10.592c-8.412-3.855-12.106-13.8-8.25-22.212l0,0
					c3.855-8.412,13.8-12.106,22.212-8.25l23.11,10.592c8.412,3.855,12.106,13.8,8.25,22.212l0,0
					C88.5,291.233,78.555,294.927,70.143,291.071z"/>
				<path style="fill:#C6D0DA;" d="M62.087,287.381l-15.052-6.899c-8.41-3.855-12.106-13.805-8.251-22.215
					c1.929-4.209,5.379-7.234,9.399-8.727c4.019-1.493,8.615-1.45,12.817,0.475l15.052,6.899c-4.201-1.926-8.789-1.964-12.809-0.471
					c-4.019,1.493-7.47,4.517-9.399,8.727C49.988,273.58,53.676,283.526,62.087,287.381z"/>
			</g>
			<g>
				<path style="fill:#E7ECF1;" d="M97.225,231.984l-23.11-10.592c-8.412-3.855-12.106-13.8-8.25-22.212l0,0
					c3.855-8.412,13.8-12.106,22.212-8.25l23.11,10.592c8.412,3.855,12.106,13.8,8.25,22.212l0,0
					C115.582,232.146,105.637,235.84,97.225,231.984z"/>
				<path style="fill:#C6D0DA;" d="M89.168,228.294l-15.052-6.899c-8.41-3.855-12.106-13.805-8.251-22.215
					c1.929-4.209,5.379-7.234,9.399-8.727c4.019-1.493,8.615-1.45,12.817,0.475l15.052,6.899c-4.201-1.926-8.789-1.964-12.809-0.471
					c-4.019,1.493-7.47,4.517-9.399,8.727C77.07,214.492,80.758,224.439,89.168,228.294z"/>
			</g>
			<g>
				<path style="fill:#E7ECF1;" d="M124.306,172.897l-23.11-10.592c-8.412-3.855-12.106-13.8-8.25-22.212l0,0
					c3.855-8.412,13.8-12.106,22.212-8.25l23.11,10.592c8.412,3.855,12.106,13.8,8.25,22.212l0,0
					C142.663,173.059,132.718,176.752,124.306,172.897z"/>
				<path style="fill:#C6D0DA;" d="M116.25,169.207l-15.052-6.899c-8.41-3.855-12.106-13.805-8.251-22.215
					c1.929-4.209,5.379-7.234,9.399-8.727c4.019-1.493,8.615-1.45,12.817,0.475l15.052,6.899c-4.201-1.926-8.789-1.964-12.809-0.471
					c-4.019,1.493-7.47,4.517-9.399,8.727C104.151,155.405,107.839,165.352,116.25,169.207z"/>
			</g>
			<g>
				<path style="fill:#E7ECF1;" d="M151.388,113.81l-23.11-10.592c-8.412-3.855-12.106-13.8-8.25-22.212l0,0
					c3.855-8.412,13.8-12.106,22.212-8.25l23.11,10.592c8.412,3.855,12.106,13.8,8.25,22.212l0,0
					C169.745,113.972,159.8,117.665,151.388,113.81z"/>
				<path style="fill:#C6D0DA;" d="M143.331,110.12l-15.052-6.899c-8.41-3.855-12.106-13.805-8.251-22.215
					c1.929-4.209,5.379-7.234,9.399-8.727c4.019-1.493,8.615-1.45,12.817,0.475l15.052,6.899c-4.201-1.926-8.789-1.964-12.809-0.471
					s-7.47,4.517-9.399,8.727C131.233,96.318,134.921,106.265,143.331,110.12z"/>
			</g>
		</g>
		<polygon style="fill:#F4DD45;" points="267.632,107.011 250.298,69.95 210.908,81.012 243.73,9.401 300.454,35.399 		"/>
	</g>
	<g>
		<path d="M482.453,212.329c-3.86-1.507-8.208,0.397-9.716,4.255c-36.403,93.145-79.837,184.568-129.094,271.729
			c-4,7.071-12.55,10.352-20.325,7.804c-76.079-24.937-150.172-56.848-220.22-94.846c-3.643-1.974-8.194-0.625-10.168,3.017
			c-1.975,3.641-0.625,8.194,3.016,10.168c70.839,38.427,145.767,70.697,222.702,95.915c3.301,1.082,6.676,1.6,10.011,1.6
			c11.36,0,22.242-6.017,28.043-16.277c49.605-87.777,93.347-179.847,130.007-273.65
			C488.215,218.186,486.31,213.836,482.453,212.329z"/>
		<path d="M493.704,128.431c-9.875-5.954-19.841-11.77-29.875-17.474l-3.353-35.63c-0.658-6.964-3.987-13.255-9.375-17.715
			c-5.388-4.46-12.183-6.553-19.153-5.897l-70.514,6.634c-17.696-8.159-35.54-15.911-53.492-23.256
			c-0.114-2.728-1.712-5.296-4.364-6.511L246.855,2.583c-1.809-0.829-3.872-0.905-5.736-0.213c-1.865,0.693-3.378,2.098-4.207,3.906
			l-0.806,1.758c-6.343-2.183-12.755-4.339-19.14-6.436c-12.611-4.13-26.307-0.041-34.629,9.785l-9.89-4.533
			c-12.158-5.571-26.583-0.215-32.155,11.944c-5.572,12.158-0.215,26.583,11.943,32.155l6.022,2.76
			c-2.611,4.843-5.211,9.711-7.783,14.57l-5.108-2.341c-12.158-5.571-26.583-0.215-32.155,11.944
			c-5.572,12.158-0.215,26.583,11.943,32.155l3.094,1.418c-2.459,4.907-4.906,9.845-7.326,14.779l-2.637-1.209
			c-5.889-2.699-12.477-2.944-18.551-0.688c-6.073,2.256-10.905,6.742-13.604,12.632c-5.572,12.158-0.215,26.583,11.943,32.155
			l1.961,0.899c-2.308,4.984-4.603,9.991-6.87,14.989l-1.961-0.899c-12.16-5.573-26.584-0.214-32.155,11.943
			c-5.572,12.158-0.215,26.583,11.943,32.155l2.651,1.215c-2.162,5.064-4.298,10.126-6.413,15.198l-3.108-1.425
			c-5.889-2.7-12.477-2.943-18.551-0.688c-6.073,2.256-10.905,6.742-13.604,12.631c-5.572,12.158-0.215,26.583,11.943,32.155
			l5.108,2.341c-2.002,5.122-3.993,10.269-5.956,15.407l-6.022-2.76c-12.159-5.573-26.583-0.214-32.155,11.943
			c-5.572,12.158-0.215,26.583,11.943,32.155l9.887,4.531c-2.016,12.705,3.829,25.764,15.203,32.62
			c9.16,5.526,18.498,11.007,27.756,16.292c1.173,0.669,2.451,0.988,3.711,0.988c2.604,0,5.137-1.359,6.521-3.783
			c2.053-3.597,0.802-8.178-2.795-10.232c-9.154-5.225-18.387-10.645-27.447-16.11c-4.783-2.883-7.737-7.808-8.252-13.102
			c2.815,1.074,5.723,1.592,8.595,1.592c9.196,0,18.01-5.255,22.086-14.148c2.7-5.89,2.944-12.478,0.688-18.551
			c-2.256-6.074-6.742-10.905-12.631-13.604l-3.422-1.568c1.96-5.137,3.946-10.287,5.947-15.411l4.344,1.991
			c3.222,1.477,6.652,2.219,10.093,2.219c2.85,0,5.707-0.509,8.458-1.531c6.074-2.256,10.905-6.742,13.604-12.631
			c2.7-5.89,2.944-12.478,0.688-18.551c-2.255-6.073-6.741-10.905-12.631-13.604l-6.357-2.914c2.113-5.072,4.247-10.135,6.409-15.2
			l6.817,3.125c3.265,1.497,6.693,2.205,10.07,2.205c9.197,0,18.01-5.255,22.085-14.147c5.572-12.158,0.215-26.583-11.943-32.155
			l-7.513-3.443c2.267-4.997,4.562-10.005,6.87-14.989l7.512,3.443c3.222,1.477,6.652,2.219,10.094,2.219
			c2.849,0,5.707-0.509,8.458-1.531c6.073-2.256,10.905-6.742,13.604-12.631c5.572-12.158,0.214-26.583-11.943-32.155l-6.832-3.131
			c2.421-4.934,4.871-9.871,7.331-14.777l6.37,2.92c3.265,1.496,6.693,2.205,10.07,2.204c9.197,0,18.01-5.255,22.085-14.148
			c5.572-12.158,0.215-26.583-11.943-32.155l-4.344-1.991c2.575-4.86,5.179-9.726,7.792-14.566l3.422,1.568v0
			c3.222,1.477,6.652,2.219,10.094,2.219c2.85,0,5.707-0.509,8.458-1.531c6.073-2.256,10.905-6.742,13.604-12.632
			c5.351-11.676,0.618-25.438-10.534-31.447c4.334-3.055,10.008-4.04,15.327-2.299c5.846,1.919,11.714,3.892,17.533,5.887
			L204.09,77.887c-1.218,2.656-0.781,5.778,1.118,7.999c1.898,2.221,4.914,3.137,7.728,2.347l33.264-9.342l14.638,31.297
			c1.234,2.638,3.883,4.323,6.794,4.323c0.01,0,0.02,0,0.029,0c2.922-0.011,5.571-1.719,6.789-4.375l27.997-61.085
			c63.071,25.818,124.778,56.816,183.505,92.222c7.003,4.232,10.094,12.853,7.352,20.493c-3.151,8.765-6.48,17.824-9.895,26.923
			c-1.455,3.878,0.51,8.202,4.388,9.657c0.868,0.326,1.758,0.48,2.634,0.48c3.036,0,5.894-1.857,7.023-4.867
			c3.438-9.164,6.791-18.288,9.966-27.121C512.568,152.497,506.802,136.346,493.704,128.431z M58.719,331.705
			c0.861,2.317,0.768,4.831-0.262,7.078c-2.127,4.639-7.629,6.684-12.27,4.558l-7.374-3.38c-0.006-0.003-0.012-0.005-0.018-0.008
			l-15.718-7.204c-4.639-2.126-6.684-7.63-4.558-12.27c1.556-3.394,4.918-5.398,8.428-5.398c1.288,0,2.596,0.27,3.842,0.841
			l23.11,10.592C56.147,327.544,57.858,329.387,58.719,331.705z M85.538,279.696c-1.03,2.248-2.874,3.959-5.191,4.82
			s-4.831,0.768-7.078-0.262l-23.11-10.592c-4.639-2.126-6.684-7.63-4.558-12.27c1.556-3.394,4.918-5.398,8.427-5.398
			c1.289,0,2.597,0.27,3.842,0.841l23.11,10.592C85.62,269.553,87.664,275.057,85.538,279.696z M112.619,220.609
			c-2.126,4.639-7.628,6.684-12.27,4.557L77.24,214.574c-4.639-2.126-6.684-7.63-4.558-12.27c2.127-4.639,7.631-6.683,12.27-4.557
			l23.11,10.592C112.701,210.466,114.745,215.97,112.619,220.609z M139.701,161.521c-2.127,4.64-7.631,6.683-12.27,4.558
			l-23.109-10.592c-4.639-2.126-6.684-7.63-4.558-12.27c2.127-4.64,7.632-6.683,12.27-4.557l23.109,10.592
			C139.782,151.378,141.827,156.882,139.701,161.521z M166.782,102.435c-2.126,4.639-7.631,6.684-12.27,4.557L131.403,96.4
			c-4.639-2.126-6.683-7.63-4.557-12.27c1.556-3.393,4.917-5.398,8.427-5.398c1.288,0,2.597,0.27,3.842,0.841l23.109,10.592
			C166.864,92.291,168.908,97.795,166.782,102.435z M193.864,43.348c-1.03,2.247-2.874,3.959-5.191,4.82
			c-2.317,0.86-4.831,0.768-7.079-0.262v0l-23.11-10.592c-4.639-2.126-6.683-7.63-4.557-12.27c1.556-3.394,4.918-5.398,8.427-5.398
			c1.288,0,2.597,0.27,3.842,0.841l23.109,10.592C193.945,33.204,195.99,38.708,193.864,43.348z M433.355,66.649
			c2.969-0.281,5.879,0.613,8.182,2.519c2.302,1.906,3.725,4.594,4.006,7.567l2.382,25.308
			c-19.738-10.873-39.748-21.256-59.978-31.122L433.355,66.649z M267.563,89.161l-10.471-22.388
			c-1.259-2.69-3.942-4.323-6.793-4.323c-0.672,0-1.354,0.091-2.029,0.28l-23.795,6.683l22.948-50.068l43.088,19.749L267.563,89.161
			z"/>
		<path d="M383.005,175.391c-3.778-1.691-8.217,0.006-9.906,3.789l-16.216,36.302l-9.283-52.626
			c-0.57-3.232-3.176-5.719-6.432-6.136c-3.256-0.416-6.404,1.331-7.772,4.314l-26.258,57.289c-1.726,3.766-0.072,8.217,3.693,9.943
			c3.764,1.727,8.217,0.073,9.943-3.693l16.233-35.417l8.848,50.157c0.683,3.839,3.475,6.62,7.112,7.083
			c0.349,0.044,0.695,0.066,1.039,0.066c3.317,0,6.338-2.037,7.903-5.456l24.884-55.708
			C388.484,181.515,386.788,177.08,383.005,175.391z"/>
		<path d="M233.334,113.488c0.428-4.03-1.919-7.85-5.708-9.288c-3.789-1.439-8.079-0.138-10.482,3.23L181.438,158.7
			c-2.368,3.399-1.531,8.073,1.868,10.44s8.073,1.53,10.44-1.868l21.05-30.225l-5.427,37.728c-0.013,0.092-0.024,0.184-0.034,0.276
			c-0.407,3.838,1.682,7.485,5.198,9.075c3.517,1.592,7.635,0.75,10.248-2.09c0.061-0.067,0.121-0.134,0.18-0.203l24.686-28.869
			l-8.835,35.962c-0.988,4.022,1.471,8.084,5.494,9.073c0.602,0.148,1.203,0.219,1.795,0.219c3.372,0,6.437-2.291,7.277-5.712
			l14.961-60.898c0.918-3.946-0.942-8.023-4.524-9.915c-3.582-1.892-7.998-1.131-10.739,1.85c-0.061,0.066-0.121,0.134-0.18,0.203
			l-27.69,32.381l6.094-42.364C233.313,113.673,233.324,113.581,233.334,113.488z"/>
		<path d="M321.569,147.866l-23.963-10.983c-1.808-0.829-3.87-0.905-5.736-0.213c-1.864,0.693-3.378,2.098-4.207,3.906
			L274.63,169.01c0,0,0,0.001,0,0.001s0,0.001,0,0.001l-13.033,28.435c-1.726,3.766-0.072,8.217,3.693,9.943l23.963,10.983
			c1.013,0.464,2.074,0.684,3.12,0.684c2.842,0,5.562-1.625,6.823-4.377c1.726-3.766,0.072-8.217-3.693-9.943l-17.145-7.858
			l6.783-14.8l15.378,7.049c1.013,0.464,2.074,0.684,3.12,0.684c2.842,0,5.562-1.625,6.823-4.377
			c1.726-3.766,0.072-8.217-3.693-9.943l-15.378-7.049l6.783-14.8l17.145,7.858c3.768,1.728,8.219,0.072,9.943-3.693
			C326.988,154.043,325.335,149.592,321.569,147.866z"/>
		<path d="M406.391,194.358c1.726-3.766,0.072-8.217-3.693-9.943c-3.767-1.728-8.218-0.072-9.943,3.693l-18.102,39.495
			c-3.966,8.652-3.082,17.219,2.7,26.189c3.001,4.658,7.16,8.233,12.362,10.626c4.155,1.912,8.457,2.877,12.807,2.877
			c0.359,0,0.72-0.006,1.08-0.02c14.819-0.546,21.551-8.559,24.588-15.186l18.083-39.453c1.726-3.766,0.072-8.217-3.693-9.943
			c-3.767-1.727-8.218-0.072-9.943,3.693l-18.083,39.453c-1.307,2.852-3.796,6.162-11.503,6.445c-2.387,0.09-4.69-0.402-7.066-1.495
			c-2.603-1.197-4.572-2.873-6.022-5.124c-3.438-5.333-3.154-8.58-1.672-11.814L406.391,194.358z"/>
		<path d="M187.538,286.296c-0.001-0.002-0.002-0.004-0.002-0.006l-15.905-42.822c-1.443-3.883-5.76-5.863-9.642-4.419
			c-3.883,1.442-5.862,5.759-4.419,9.642l23.207,62.479c2.882,7.76,8.614,13.933,16.139,17.382c4.117,1.887,8.5,2.835,12.897,2.835
			c3.641,0,7.292-0.65,10.806-1.956l3.375-1.254l14.216,38.273c-2.468,2.08-4.484,4.677-5.869,7.698
			c-2.468,5.384-2.691,11.407-0.629,16.959l18.907,50.903c3.316,8.926,11.803,14.455,20.81,14.454c2.56,0,5.162-0.447,7.697-1.389
			c5.553-2.063,9.97-6.164,12.438-11.548s2.69-11.408,0.628-16.959l-18.906-50.903c-3.341-8.993-11.935-14.536-21.018-14.45
			l-14.212-38.262l3.37-1.252c7.76-2.882,13.933-8.614,17.382-16.139c3.449-7.525,3.762-15.943,0.879-23.703l-23.206-62.479
			c-1.443-3.883-5.76-5.863-9.642-4.419c-3.883,1.442-5.862,5.759-4.419,9.642l15.904,42.819c0.001,0.003,0.002,0.006,0.003,0.009
			c1.487,4.004,1.327,8.347-0.453,12.23c-0.769,1.679-1.815,3.171-3.062,4.46l-20.929-56.346c-1.443-3.883-5.76-5.863-9.642-4.419
			c-3.883,1.442-5.862,5.759-4.419,9.642l21.476,57.818l-5.59,2.076l-21.475-57.818c-1.442-3.883-5.76-5.863-9.642-4.419
			c-3.883,1.442-5.862,5.759-4.419,9.642l20.929,56.347c-1.786-0.162-3.552-0.61-5.231-1.379
			C191.982,293.486,189.025,290.301,187.538,286.296z M259.223,380.89l18.906,50.903c0.667,1.796,0.595,3.745-0.203,5.486
			c-0.799,1.742-2.228,3.069-4.024,3.736c-3.711,1.379-7.845-0.52-9.224-4.227l-18.906-50.902c-1.377-3.708,0.519-7.845,4.227-9.223
			h0c0.82-0.305,1.662-0.45,2.49-0.45C255.404,376.213,258.15,378.002,259.223,380.89z M246.601,293.492
			c-0.105,1.988-0.576,3.958-1.431,5.822c-1.779,3.883-4.965,6.84-8.969,8.328l-20.807,7.729c-4.004,1.487-8.348,1.326-12.23-0.454
			c-1.869-0.856-3.516-2.045-4.895-3.487c1.407,0.197,2.824,0.307,4.242,0.307c3.641,0,7.292-0.65,10.807-1.956l0.574-0.213
			c0.001,0,0.003-0.001,0.004-0.001c0.001,0,0.002-0.001,0.003-0.001l20.226-7.512C239.007,300.239,243.259,297.297,246.601,293.492
			z"/>
	</g>
</g>
<g>
</g>
<g>
</g>
<g>
</g>
<g>
</g>
<g>
</g>
<g>
</g>
<g>
</g>
<g>
</g>
<g>
</g>
<g>
</g>
<g>
</g>
<g>
</g>
<g>
</g>
<g>
</g>
<g>
</g>
</svg>
