<?xml version="1.0" encoding="iso-8859-1"?>
<!-- Generator: Adobe Illustrator 24.0.0, SVG Export Plug-In . SVG Version: 6.00 Build 0)  -->
<svg version="1.1" id="Capa_1" xmlns="http://www.w3.org/2000/svg" xmlns:xlink="http://www.w3.org/1999/xlink" x="0px" y="0px"
	 viewBox="0 0 511.97 511.97" style="enable-background:new 0 0 511.97 511.97;" xml:space="preserve">
<g>
	<g>
		<g>
			<path style="fill:#454045;" d="M242.98,417.115h19.146c6.972,0,12.624-5.652,12.624-12.624v-31.77h-44.394v31.77
				C230.356,411.463,236.008,417.115,242.98,417.115z"/>
			<path style="fill:#454045;" d="M65.25,417.115h19.146c6.972,0,12.624-5.652,12.624-12.624v-31.77H52.625v31.77
				C52.625,411.463,58.277,417.115,65.25,417.115z"/>
		</g>
		<path style="fill:#544F57;" d="M299.39,357.49c-1.1,16.02-13.4,28.99-29.35,30.91c-33.93,4.08-67.85,6.2-101.78,6.38
			c-36.98,0.19-73.95-1.94-110.93-6.38c-15.94-1.92-28.25-14.89-29.34-30.91c-7.11-104.24-7.11-208.48,0-312.72
			c1.09-16.02,13.4-28.99,29.34-30.91c70.91-8.52,141.81-8.52,212.71,0c15.95,1.92,28.25,14.89,29.35,30.91
			c0.8,11.7,1.5,23.4,2.12,35.1C306.41,172.41,305.7,264.95,299.39,357.49z"/>
		<path style="fill:#454045;" d="M299.39,357.49c-1.1,16.02-13.4,28.99-29.35,30.91c-33.93,4.08-67.85,6.2-101.78,6.38
			c-4.9-92.54-4.19-185.08,2.12-277.62c1.1-16.02,13.4-28.99,29.35-30.91c33.93-4.08,67.85-6.2,101.78-6.38
			C306.41,172.41,305.7,264.95,299.39,357.49z"/>
		<path style="fill:#E7ECF1;" d="M252.47,281.93c0,32.19-17.13,60.38-42.77,75.95c-12.51,7.59-27.04,12.18-42.59,12.78
			c-1.14,0.04-2.28,0.06-3.43,0.06c-49.04,0-88.79-39.75-88.79-88.79c0-49.03,39.75-88.78,88.79-88.78c0.93,0,1.86,0.01,2.78,0.04
			c15.79,0.49,30.55,5.1,43.24,12.8C235.34,221.56,252.47,249.75,252.47,281.93z"/>
		<path style="fill:#C6D0DA;" d="M252.475,281.933c0,32.19-17.13,60.38-42.77,75.95c-25.64-15.58-42.76-43.76-42.76-75.95
			c0-32.18,17.12-60.36,42.76-75.94C235.345,221.563,252.475,249.753,252.475,281.933z"/>
		<path style="fill:#C6D0DA;" d="M252.47,281.93c0,32.19-17.13,60.38-42.77,75.95c-12.51,7.59-27.04,12.18-42.59,12.78
			c-2.51-59.16-2.73-118.32-0.65-177.47c15.79,0.49,30.55,5.1,43.24,12.8C235.34,221.56,252.47,249.75,252.47,281.93z"/>
		<path style="fill:#E7ECF1;" d="M238.6,109.15c0,20.65-10.31,38.88-26.07,49.84c-9.81,6.82-21.73,10.82-34.58,10.82
			c-3.58,0-7.1-0.31-10.51-0.91c-28.5-4.97-50.15-29.83-50.15-59.75c0-33.5,27.15-60.66,60.66-60.66c12.85,0,24.77,4,34.58,10.82
			c8.58,5.97,15.55,14.09,20.11,23.6C236.46,90.85,238.6,99.75,238.6,109.15z"/>
		<ellipse style="fill:#C6D0DA;" cx="212.534" cy="109.153" rx="26.07" ry="49.84"/>
		<path style="fill:#C6D0DA;" d="M177.95,169.81c-3.58,0-7.1-0.31-10.51-0.91c0.78-17.24,1.76-34.49,2.94-51.74
			c1.1-16.02,13.4-28.99,29.35-30.91c10.97-1.32,21.94-2.43,32.91-3.34c3.82,7.94,5.96,16.84,5.96,26.24
			c0,20.65-10.31,38.88-26.07,49.84C202.72,165.81,190.8,169.81,177.95,169.81z"/>
		<circle style="fill:#544F57;" cx="177.95" cy="109.151" r="18.353"/>
		<circle style="fill:#E7ECF1;" cx="81.883" cy="167.222" r="21.948"/>
		<g>
			<circle style="fill:#454045;" cx="64.985" cy="48.493" r="13.468"/>
			<circle style="fill:#454045;" cx="262.391" cy="48.493" r="13.468"/>
		</g>
		<g>
			<circle style="fill:#454045;" cx="64.985" cy="352.269" r="13.468"/>
			<circle style="fill:#454045;" cx="262.391" cy="352.269" r="13.468"/>
		</g>
		<circle style="fill:#544F57;" cx="163.688" cy="281.937" r="26.495"/>
		<g>
			<g>
				<path style="fill:#454045;" d="M427.581,504.47h19.146c6.972,0,12.624-5.652,12.624-12.624v-31.77h-44.394v31.77
					C414.957,498.818,420.609,504.47,427.581,504.47z"/>
				<path style="fill:#454045;" d="M249.85,504.47h19.146c6.972,0,12.624-5.652,12.624-12.624v-31.77h-44.394v31.77
					C237.226,498.818,242.878,504.47,249.85,504.47z"/>
			</g>
			<path style="fill:#544F57;" d="M241.934,475.753c70.903,8.52,141.807,8.52,212.71,0c15.946-1.916,28.251-14.885,29.344-30.909
				c7.113-104.24,7.113-208.479,0-312.719c-1.093-16.023-13.398-28.992-29.344-30.909c-70.903-8.52-141.807-8.52-212.71,0
				c-15.946,1.916-28.251,14.885-29.344,30.909c-7.113,104.24-7.113,208.48,0,312.719
				C213.683,460.867,225.988,473.836,241.934,475.753z"/>
			<path style="fill:#E7ECF1;" d="M437.075,369.288c0,32.19-17.13,60.38-42.77,75.95c-13.43,8.15-29.18,12.84-46.02,12.84
				c-49.04,0-88.79-39.75-88.79-88.79c0-49.03,39.75-88.78,88.79-88.78c16.84,0,32.59,4.69,46.02,12.84
				C419.945,308.918,437.075,337.108,437.075,369.288z"/>
			<path style="fill:#C6D0DA;" d="M437.075,369.288c0,32.19-17.13,60.38-42.77,75.95c-25.64-15.58-42.76-43.76-42.76-75.95
				c0-32.18,17.12-60.36,42.76-75.94C419.945,308.918,437.075,337.108,437.075,369.288z"/>
			<path style="fill:#E7ECF1;" d="M423.205,196.508c0,20.65-10.31,38.88-26.07,49.84c-9.81,6.82-21.73,10.82-34.58,10.82
				c-33.51,0-60.66-27.16-60.66-60.66s27.15-60.66,60.66-60.66c12.85,0,24.77,4,34.58,10.82
				C412.895,157.628,423.205,175.858,423.205,196.508z"/>
			<ellipse style="fill:#C6D0DA;" cx="397.135" cy="196.508" rx="26.07" ry="49.84"/>
			<circle style="fill:#E7ECF1;" cx="266.484" cy="254.577" r="21.948"/>
			<g>
				<circle style="fill:#454045;" cx="249.585" cy="135.848" r="13.468"/>
				<circle style="fill:#454045;" cx="446.992" cy="135.848" r="13.468"/>
			</g>
			<g>
				<circle style="fill:#454045;" cx="249.585" cy="439.624" r="13.468"/>
				<circle style="fill:#454045;" cx="446.992" cy="439.624" r="13.468"/>
			</g>
			<circle style="fill:#544F57;" cx="362.55" cy="196.508" r="18.353"/>
			<circle style="fill:#544F57;" cx="348.285" cy="369.293" r="26.495"/>
		</g>
	</g>
	<g>
		<path d="M177.95,83.298c-14.255,0-25.853,11.597-25.853,25.853s11.598,25.853,25.853,25.853s25.853-11.598,25.853-25.853
			S192.204,83.298,177.95,83.298z M177.95,120.004c-5.984,0-10.853-4.869-10.853-10.853s4.868-10.853,10.853-10.853
			s10.853,4.868,10.853,10.853S183.934,120.004,177.95,120.004z"/>
		<path d="M52.435,167.222c0,16.237,13.21,29.448,29.448,29.448c16.237,0,29.447-13.21,29.447-29.448s-13.21-29.448-29.447-29.448
			C65.645,137.774,52.435,150.985,52.435,167.222z M81.883,152.774c7.966,0,14.447,6.481,14.447,14.448s-6.481,14.448-14.447,14.448
			c-7.967,0-14.448-6.481-14.448-14.448S73.916,152.774,81.883,152.774z"/>
		<path d="M64.985,27.525c-11.562,0-20.968,9.406-20.968,20.968s9.406,20.968,20.968,20.968s20.968-9.406,20.968-20.968
			S76.546,27.525,64.985,27.525z M64.985,54.461c-3.291,0-5.968-2.677-5.968-5.968c0-3.291,2.677-5.968,5.968-5.968
			s5.968,2.677,5.968,5.968C70.953,51.784,68.276,54.461,64.985,54.461z"/>
		<path d="M283.359,48.493c0-11.562-9.406-20.968-20.968-20.968c-11.562,0-20.968,9.406-20.968,20.968s9.406,20.968,20.968,20.968
			C273.953,69.461,283.359,60.055,283.359,48.493z M256.423,48.493c0-3.291,2.677-5.968,5.968-5.968s5.968,2.677,5.968,5.968
			c0,3.291-2.677,5.968-5.968,5.968S256.423,51.784,256.423,48.493z"/>
		<path d="M64.985,373.237c11.562,0,20.968-9.406,20.968-20.968c0-11.562-9.406-20.968-20.968-20.968s-20.968,9.406-20.968,20.968
			C44.017,363.831,53.423,373.237,64.985,373.237z M64.985,346.301c3.291,0,5.968,2.677,5.968,5.968
			c0,3.291-2.677,5.968-5.968,5.968s-5.968-2.677-5.968-5.968C59.017,348.978,61.694,346.301,64.985,346.301z"/>
		<path d="M163.688,247.941c-18.745,0-33.995,15.25-33.995,33.996s15.25,33.995,33.995,33.995s33.995-15.25,33.995-33.995
			S182.433,247.941,163.688,247.941z M163.688,300.932c-10.474,0-18.995-8.521-18.995-18.995s8.521-18.996,18.995-18.996
			s18.995,8.521,18.995,18.996S174.162,300.932,163.688,300.932z"/>
		<path d="M491.47,131.614c-1.336-19.588-16.447-35.504-35.932-37.845c-48.447-5.822-97.358-7.67-146.101-5.566
			c-0.707-14.41-1.562-29.142-2.567-43.944c-1.333-19.583-16.442-35.5-35.929-37.847c-71.171-8.551-143.34-8.551-214.501,0
			c-19.479,2.345-34.592,18.26-35.936,37.843c-0.713,10.384-1.348,20.72-1.887,30.72c-0.223,4.136,2.949,7.67,7.086,7.893
			c4.124,0.219,7.669-2.949,7.893-7.086c0.535-9.927,1.165-20.188,1.873-30.5c0.852-12.408,10.425-22.492,22.762-23.977
			c69.973-8.409,140.937-8.409,210.919,0c12.34,1.486,21.91,11.569,22.755,23.972c0.999,14.717,1.848,29.364,2.551,43.689
			c-16.769,1.004-33.508,2.496-50.196,4.44c-7.164-30.361-34.422-52.417-66.315-52.417c-37.578,0-68.15,30.576-68.15,68.16
			s30.572,68.16,68.15,68.16c8.537,0,16.906-1.591,24.739-4.644c-0.348,6.934-0.661,13.872-0.946,20.814
			c-11.959-5.141-24.912-7.83-38.054-7.83c-53.095,0-96.29,43.195-96.29,96.29c0,53.094,43.195,96.29,96.29,96.29
			c12.956,0,25.74-2.616,37.562-7.62c0.187,5.283,0.382,10.566,0.605,15.844c-47.719,2.061-95.995,0.22-143.618-5.5
			c-12.339-1.486-21.912-11.57-22.764-23.975c-5.69-83.361-6.804-167.963-3.31-251.456c0.174-4.139-3.041-7.634-7.18-7.807
			c-0.106-0.004-0.213-0.007-0.319-0.007c-3.997,0-7.318,3.155-7.487,7.186c-3.518,84.04-2.396,169.196,3.331,253.107
			c1.069,15.578,10.857,28.827,24.62,34.778v11.708c0,11.094,9.025,20.12,20.12,20.12h19.149c11.095,0,20.12-9.026,20.12-20.12
			v-4.199c19.808,1.308,39.657,1.987,59.468,1.987c12.88,0,25.743-0.294,38.568-0.849c0.717,14.665,1.559,29.311,2.557,43.926
			c1.064,15.583,10.851,28.835,24.618,34.783v11.711c0,11.094,9.03,20.12,20.13,20.12h19.141c11.1,0,20.13-9.026,20.13-20.12v-4.206
			c19.694,1.297,39.428,1.97,59.163,1.97c19.737,0,39.472-0.673,59.167-1.97v4.207c0,11.094,9.03,20.12,20.13,20.12h19.14
			c11.1,0,20.13-9.026,20.13-20.12v-11.712c13.766-5.949,23.552-19.2,24.615-34.782C498.574,341.263,498.574,235.705,491.47,131.614
			z M89.515,404.49c0,2.823-2.297,5.12-5.12,5.12H65.245c-2.823,0-5.12-2.297-5.12-5.12v-8.229
			c9.774,1.133,19.574,2.101,29.39,2.914V404.49z M177.946,162.309c-29.308,0-53.15-23.847-53.15-53.16s23.843-53.16,53.15-53.16
			c24.874,0,46.132,17.195,51.72,40.866c-13.736,5.961-23.497,19.197-24.559,34.759c-0.548,8.024-1.038,16.059-1.501,24.099
			C195.781,160.037,186.985,162.309,177.946,162.309z M163.685,363.229c-44.823,0-81.29-36.466-81.29-81.29
			c0-44.824,36.467-81.29,81.29-81.29c13.075,0,25.923,3.15,37.431,9.125c-1.636,48.116-1.752,96.386-0.384,144.528
			C189.325,360.148,176.609,363.229,163.685,363.229z M274.125,491.849c0,2.823-2.301,5.12-5.13,5.12h-19.141
			c-2.829,0-5.13-2.297-5.13-5.12v-8.236c9.784,1.135,19.585,2.103,29.4,2.914V491.849z M446.725,496.97h-19.14
			c-2.829,0-5.13-2.297-5.13-5.12v-5.322c9.815-0.812,19.616-1.78,29.399-2.914v8.236
			C451.855,494.673,449.554,496.97,446.725,496.97z M476.505,444.334c-0.847,12.407-10.417,22.489-22.756,23.973
			c-69.977,8.409-140.94,8.409-210.921,0c-12.339-1.483-21.91-11.565-22.757-23.973c-7.057-103.414-7.057-208.284,0-311.698
			c0.847-12.408,10.418-22.49,22.757-23.973c69.979-8.409,140.942-8.41,210.921,0c12.339,1.483,21.909,11.565,22.756,23.973
			C483.562,236.049,483.562,340.919,476.505,444.334z"/>
		<path d="M435.214,327.845c-1.785-3.737-6.266-5.32-10.001-3.532c-3.737,1.786-5.318,6.264-3.532,10.001
			c5.239,10.962,7.896,22.73,7.896,34.976c0,44.824-36.467,81.29-81.29,81.29s-81.29-36.466-81.29-81.29s36.467-81.29,81.29-81.29
			c21.746,0,42.182,8.479,57.541,23.877c2.925,2.932,7.673,2.939,10.606,0.013c2.933-2.925,2.938-7.674,0.013-10.606
			c-18.193-18.239-42.4-28.283-68.16-28.283c-53.095,0-96.29,43.195-96.29,96.29s43.195,96.29,96.29,96.29s96.29-43.195,96.29-96.29
			C444.578,354.787,441.427,340.844,435.214,327.845z"/>
		<path d="M314.293,369.292c0,18.745,15.25,33.995,33.995,33.995s33.996-15.25,33.996-33.995s-15.251-33.996-33.996-33.996
			S314.293,350.547,314.293,369.292z M367.285,369.292c0,10.474-8.521,18.995-18.996,18.995c-10.474,0-18.995-8.521-18.995-18.995
			s8.521-18.996,18.995-18.996C358.763,350.296,367.285,358.818,367.285,369.292z"/>
		<path d="M362.55,264.664c37.583,0,68.158-30.576,68.158-68.158s-30.575-68.158-68.158-68.158s-68.158,30.576-68.158,68.158
			S324.967,264.664,362.55,264.664z M362.55,143.348c29.312,0,53.158,23.847,53.158,53.158s-23.847,53.158-53.158,53.158
			s-53.158-23.847-53.158-53.158S333.239,143.348,362.55,143.348z"/>
		<path d="M362.55,222.359c14.255,0,25.853-11.597,25.853-25.853s-11.598-25.853-25.853-25.853s-25.853,11.598-25.853,25.853
			S348.295,222.359,362.55,222.359z M362.55,185.653c5.984,0,10.853,4.869,10.853,10.853c0,5.984-4.868,10.853-10.853,10.853
			s-10.853-4.869-10.853-10.853C351.698,190.522,356.566,185.653,362.55,185.653z"/>
		<path d="M237.036,254.577c0,16.237,13.21,29.448,29.448,29.448c16.237,0,29.447-13.21,29.447-29.448s-13.21-29.448-29.447-29.448
			C250.245,225.129,237.036,238.34,237.036,254.577z M280.931,254.577c0,7.966-6.481,14.448-14.447,14.448
			c-7.967,0-14.448-6.481-14.448-14.448s6.481-14.448,14.448-14.448C274.45,240.129,280.931,246.611,280.931,254.577z"/>
		<path d="M249.585,156.816c11.562,0,20.968-9.406,20.968-20.968s-9.406-20.968-20.968-20.968c-11.562,0-20.968,9.406-20.968,20.968
			S238.024,156.816,249.585,156.816z M249.585,129.88c3.291,0,5.968,2.677,5.968,5.968c0,3.291-2.677,5.968-5.968,5.968
			s-5.968-2.677-5.968-5.968C243.618,132.557,246.294,129.88,249.585,129.88z"/>
		<path d="M446.992,114.88c-11.562,0-20.968,9.406-20.968,20.968s9.406,20.968,20.968,20.968c11.563,0,20.969-9.406,20.969-20.968
			S458.554,114.88,446.992,114.88z M446.992,141.816c-3.291,0-5.968-2.677-5.968-5.968c0-3.291,2.677-5.968,5.968-5.968
			s5.969,2.677,5.969,5.968C452.96,139.139,450.283,141.816,446.992,141.816z"/>
		<path d="M249.585,418.656c-11.562,0-20.968,9.406-20.968,20.968c0,11.562,9.406,20.968,20.968,20.968
			c11.562,0,20.968-9.406,20.968-20.968C270.553,428.062,261.147,418.656,249.585,418.656z M249.585,445.592
			c-3.291,0-5.968-2.677-5.968-5.968c0-3.291,2.677-5.968,5.968-5.968s5.968,2.677,5.968,5.968
			C255.553,442.915,252.876,445.592,249.585,445.592z"/>
		<path d="M446.992,418.656c-11.562,0-20.968,9.406-20.968,20.968c0,11.562,9.406,20.968,20.968,20.968
			c11.563,0,20.969-9.406,20.969-20.968C467.96,428.062,458.554,418.656,446.992,418.656z M446.992,445.592
			c-3.291,0-5.968-2.677-5.968-5.968c0-3.291,2.677-5.968,5.968-5.968s5.969,2.677,5.969,5.968
			C452.96,442.915,450.283,445.592,446.992,445.592z"/>
	</g>
</g>
<g>
</g>
<g>
</g>
<g>
</g>
<g>
</g>
<g>
</g>
<g>
</g>
<g>
</g>
<g>
</g>
<g>
</g>
<g>
</g>
<g>
</g>
<g>
</g>
<g>
</g>
<g>
</g>
<g>
</g>
</svg>
