<?xml version="1.0" encoding="iso-8859-1"?>
<!-- Generator: Adobe Illustrator 24.0.0, SVG Export Plug-In . SVG Version: 6.00 Build 0)  -->
<svg version="1.1" id="Capa_1" xmlns="http://www.w3.org/2000/svg" xmlns:xlink="http://www.w3.org/1999/xlink" x="0px" y="0px"
	 viewBox="0 0 511.917 511.917" style="enable-background:new 0 0 511.917 511.917;" xml:space="preserve">
<g>
	<g>
		<path style="fill:#E7ECF1;" d="M274.575,73.54C142.97,63.222,13.069,123.316,11.952,137.98
			c-7.109,93.32-5.784,186.639,3.976,279.959c2.335,22.326,20.244,39.874,42.623,41.628c131.605,10.319,263.21,10.319,394.815,0
			c22.379-1.755,40.288-19.302,42.623-41.628c9.757-93.292,11.084-186.583,3.982-279.875
			C498.852,123.372,296.954,75.295,274.575,73.54z"/>
		<path style="fill:#DA4A54;" d="M499.951,137.981c-162.66-12.6-325.33-12.6-487.99,0c1.1-14.66,2.43-29.33,3.96-43.99
			c2.34-22.33,20.25-39.88,42.63-41.63c131.6-10.32,263.21-10.32,394.81,0c22.38,1.75,40.29,19.3,42.62,41.63
			C497.511,108.651,498.841,123.321,499.951,137.981z"/>
		<path style="fill:#C6D0DA;" d="M393.728,463.532c1.29-19.58,2.97-39.16,5.02-58.74c2.34-22.33,20.25-39.87,42.63-41.63
			c19.88-1.56,39.75-2.88,59.63-3.97C491.05,410.307,393.728,463.532,393.728,463.532z"/>
		<g>
			<g>
				<path style="fill:#90D8F9;" d="M175.245,232.639h-15.041c-11.198,0-20.275-9.077-20.275-20.275v-15.041
					c0-11.198,9.077-20.275,20.275-20.275h15.041c11.198,0,20.275,9.077,20.275,20.275v15.041
					C195.52,223.562,186.442,232.639,175.245,232.639z"/>
				<path style="fill:#90D8F9;" d="M263.479,232.639h-15.041c-11.198,0-20.275-9.077-20.275-20.275v-15.041
					c0-11.198,9.077-20.275,20.275-20.275h15.041c11.198,0,20.275,9.077,20.275,20.275v15.041
					C283.754,223.562,274.676,232.639,263.479,232.639z"/>
				<path style="fill:#DA4A54;" d="M351.712,232.639h-15.041c-11.198,0-20.275-9.077-20.275-20.275v-15.041
					c0-11.198,9.077-20.275,20.275-20.275h15.041c11.198,0,20.275,9.077,20.275,20.275v15.041
					C371.987,223.562,362.91,232.639,351.712,232.639z"/>
				<path style="fill:#DA4A54;" d="M439.946,232.639h-15.041c-11.198,0-20.275-9.077-20.275-20.275v-15.041
					c0-11.198,9.077-20.275,20.275-20.275h15.041c11.198,0,20.275,9.077,20.275,20.275v15.041
					C460.221,223.562,451.144,232.639,439.946,232.639z"/>
			</g>
		</g>
		<g>
			<g>
				<path style="fill:#90D8F9;" d="M87.011,321.828H71.97c-11.198,0-20.275-9.077-20.275-20.275v-15.041
					c0-11.198,9.077-20.275,20.275-20.275h15.041c11.198,0,20.275,9.077,20.275,20.275v15.041
					C107.286,312.75,98.209,321.828,87.011,321.828z"/>
				<path style="fill:#90D8F9;" d="M175.245,321.828h-15.041c-11.198,0-20.275-9.077-20.275-20.275v-15.041
					c0-11.198,9.077-20.275,20.275-20.275h15.041c11.198,0,20.275,9.077,20.275,20.275v15.041
					C195.52,312.75,186.442,321.828,175.245,321.828z"/>
				<path style="fill:#90D8F9;" d="M263.479,321.828h-15.041c-11.198,0-20.275-9.077-20.275-20.275v-15.041
					c0-11.198,9.077-20.275,20.275-20.275h15.041c11.198,0,20.275,9.077,20.275,20.275v15.041
					C283.754,312.75,274.676,321.828,263.479,321.828z"/>
				<path style="fill:#DA4A54;" d="M351.712,321.828h-15.041c-11.198,0-20.275-9.077-20.275-20.275v-15.041
					c0-11.198,9.077-20.275,20.275-20.275h15.041c11.198,0,20.275,9.077,20.275,20.275v15.041
					C371.987,312.75,362.91,321.828,351.712,321.828z"/>
				<path style="fill:#DA4A54;" d="M439.946,321.828h-15.041c-11.198,0-20.275-9.077-20.275-20.275v-15.041
					c0-11.198,9.077-20.275,20.275-20.275h15.041c11.198,0,20.275,9.077,20.275,20.275v15.041
					C460.221,312.75,451.144,321.828,439.946,321.828z"/>
			</g>
		</g>
		<g>
			<g>
				<path style="fill:#90D8F9;" d="M87.011,411.016H71.97c-11.198,0-20.275-9.077-20.275-20.275V375.7
					c0-11.198,9.077-20.275,20.275-20.275h15.041c11.198,0,20.275,9.077,20.275,20.275v15.041
					C107.286,401.938,98.209,411.016,87.011,411.016z"/>
				<path style="fill:#90D8F9;" d="M175.245,411.016h-15.041c-11.198,0-20.275-9.077-20.275-20.275V375.7
					c0-11.198,9.077-20.275,20.275-20.275h15.041c11.198,0,20.275,9.077,20.275,20.275v15.041
					C195.52,401.938,186.442,411.016,175.245,411.016z"/>
				<path style="fill:#90D8F9;" d="M263.479,411.016h-15.041c-11.198,0-20.275-9.077-20.275-20.275V375.7
					c0-11.198,9.077-20.275,20.275-20.275h15.041c11.198,0,20.275,9.077,20.275,20.275v15.041
					C283.754,401.938,274.676,411.016,263.479,411.016z"/>
				<path style="fill:#DA4A54;" d="M351.712,411.016h-15.041c-11.198,0-20.275-9.077-20.275-20.275V375.7
					c0-11.198,9.077-20.275,20.275-20.275h15.041c11.198,0,20.275,9.077,20.275,20.275v15.041
					C371.987,401.938,362.91,411.016,351.712,411.016z"/>
			</g>
		</g>
		<g>
			<circle style="fill:#544F57;" cx="86.154" cy="91.926" r="19.952"/>
			<circle style="fill:#544F57;" cx="425.762" cy="93.335" r="19.952"/>
		</g>
	</g>
	<g>
		<path d="M503.448,93.215c-2.711-25.973-23.526-46.298-49.495-48.329c-21.8-1.707-43.652-3.137-64.952-4.253
			c-4.123-0.217-7.665,2.96-7.883,7.097c-0.216,4.136,2.962,7.666,7.098,7.882c21.172,1.109,42.896,2.531,64.567,4.227
			c18.754,1.467,33.786,16.157,35.746,34.933c1.22,11.673,2.3,23.366,3.254,35.071c-156.537-11.676-315.112-11.676-471.649,0
			c0.954-11.706,2.033-23.399,3.254-35.073c1.959-18.774,16.991-33.465,35.746-34.931c99.36-7.786,200.031-9.678,299.208-5.623
			c4.153,0.178,7.632-3.049,7.801-7.187s-3.049-7.631-7.188-7.8c-99.771-4.08-201.041-2.176-300.992,5.656
			C31.994,46.917,11.179,67.242,8.469,93.213c-11.292,107.991-11.292,217.509,0,325.509c2.71,25.967,23.526,46.288,49.486,48.318
			c2.557,0.203,5.111,0.396,7.667,0.588l0.312,0.023c0.191,0.015,0.383,0.022,0.572,0.022c3.886,0,7.174-2.998,7.471-6.936
			c0.313-4.13-2.783-7.731-6.914-8.043l-0.311-0.023c-2.538-0.192-5.074-0.383-7.619-0.585
			c-18.753-1.466-33.786-16.153-35.746-34.923c-9.437-90.264-10.91-181.597-4.42-272.189c157.299-11.849,316.684-11.849,473.983,0
			c4.934,68.875,5.257,138.177,0.985,207.114c-17.78,1.022-35.622,2.222-53.145,3.597c-25.963,2.042-46.781,22.365-49.501,48.326
			c-1.834,17.519-3.356,35.093-4.573,52.372c-96.582,5.007-193.82,4.471-289.923-1.625c-4.136-0.265-7.697,2.877-7.96,7.01
			c-0.262,4.134,2.877,7.698,7.011,7.96c53.06,3.366,106.443,5.048,159.893,5.048c66.185,0,132.459-2.581,198.217-7.735
			c25.968-2.03,46.784-22.352,49.494-48.317C514.74,310.722,514.74,201.204,503.448,93.215z M406.207,405.574
			c1.967-18.768,17.006-33.46,35.758-34.935c16.063-1.261,32.4-2.383,48.709-3.346c-7.161,17.005-24.716,36.555-51.463,57.176
			c-13.945,10.751-27.633,19.631-36.996,25.373C403.323,435.192,404.659,420.357,406.207,405.574z M452.782,452.086
			c-9.789,0.767-19.593,1.456-29.403,2.108c20.613-13.615,48.833-34.677,67.218-58.262c-0.642,7.083-1.329,14.161-2.068,21.232
			C486.57,435.933,471.536,450.62,452.782,452.086z"/>
		<path d="M160.204,240.139h15.04c15.315,0,27.775-12.46,27.775-27.775v-15.041c0-15.315-12.46-27.775-27.775-27.775h-15.04
			c-15.315,0-27.775,12.46-27.775,27.775v15.041C132.429,227.68,144.889,240.139,160.204,240.139z M147.429,197.324
			c0-7.044,5.731-12.775,12.775-12.775h15.04c7.044,0,12.775,5.731,12.775,12.775v15.041c0,7.044-5.731,12.775-12.775,12.775h-15.04
			c-7.044,0-12.775-5.731-12.775-12.775V197.324z"/>
		<path d="M248.438,240.139h15.041c15.314,0,27.774-12.46,27.774-27.775v-15.041c0-15.315-12.46-27.775-27.774-27.775h-15.041
			c-15.314,0-27.774,12.46-27.774,27.775v15.041C220.663,227.68,233.123,240.139,248.438,240.139z M235.663,197.324
			c0-7.044,5.73-12.775,12.774-12.775h15.041c7.044,0,12.774,5.731,12.774,12.775v15.041c0,7.044-5.73,12.775-12.774,12.775h-15.041
			c-7.044,0-12.774-5.731-12.774-12.775V197.324z"/>
		<path d="M336.672,240.139h15.04c15.315,0,27.775-12.46,27.775-27.775v-15.041c0-15.315-12.46-27.775-27.775-27.775h-15.04
			c-15.315,0-27.775,12.46-27.775,27.775v15.041C308.897,227.68,321.357,240.139,336.672,240.139z M323.897,197.324
			c0-7.044,5.731-12.775,12.775-12.775h15.04c7.044,0,12.775,5.731,12.775,12.775v15.041c0,7.044-5.731,12.775-12.775,12.775h-15.04
			c-7.044,0-12.775-5.731-12.775-12.775V197.324z"/>
		<path d="M424.906,240.139h15.041c15.314,0,27.774-12.46,27.774-27.775v-15.041c0-15.315-12.46-27.775-27.774-27.775h-15.041
			c-15.315,0-27.775,12.46-27.775,27.775v15.041C397.13,227.68,409.59,240.139,424.906,240.139z M412.13,197.324
			c0-7.044,5.731-12.775,12.775-12.775h15.041c7.044,0,12.774,5.731,12.774,12.775v15.041c0,7.044-5.73,12.775-12.774,12.775
			h-15.041c-7.044,0-12.775-5.731-12.775-12.775V197.324z"/>
		<path d="M71.97,329.327h15.041c15.315,0,27.775-12.46,27.775-27.775v-15.041c0-15.315-12.46-27.775-27.775-27.775H71.97
			c-15.314,0-27.774,12.46-27.774,27.775v15.041C44.196,316.867,56.656,329.327,71.97,329.327z M59.196,286.512
			c0-7.044,5.73-12.775,12.774-12.775h15.041c7.044,0,12.775,5.731,12.775,12.775v15.041c0,7.044-5.731,12.775-12.775,12.775H71.97
			c-7.044,0-12.774-5.731-12.774-12.775V286.512z"/>
		<path d="M132.429,301.553c0,15.315,12.46,27.775,27.775,27.775h15.04c15.315,0,27.775-12.46,27.775-27.775v-15.041
			c0-15.315-12.46-27.775-27.775-27.775h-15.04c-15.315,0-27.775,12.46-27.775,27.775V301.553z M147.429,286.512
			c0-7.044,5.731-12.775,12.775-12.775h15.04c7.044,0,12.775,5.731,12.775,12.775v15.041c0,7.044-5.731,12.775-12.775,12.775h-15.04
			c-7.044,0-12.775-5.731-12.775-12.775V286.512z"/>
		<path d="M220.663,301.553c0,15.315,12.46,27.775,27.774,27.775h15.041c15.314,0,27.774-12.46,27.774-27.775v-15.041
			c0-15.315-12.46-27.775-27.774-27.775h-15.041c-15.314,0-27.774,12.46-27.774,27.775V301.553z M235.663,286.512
			c0-7.044,5.73-12.775,12.774-12.775h15.041c7.044,0,12.774,5.731,12.774,12.775v15.041c0,7.044-5.73,12.775-12.774,12.775h-15.041
			c-7.044,0-12.774-5.731-12.774-12.775V286.512z"/>
		<path d="M308.897,301.553c0,15.315,12.46,27.775,27.775,27.775h15.04c15.315,0,27.775-12.46,27.775-27.775v-15.041
			c0-15.315-12.46-27.775-27.775-27.775h-15.04c-15.315,0-27.775,12.46-27.775,27.775V301.553z M323.897,286.512
			c0-7.044,5.731-12.775,12.775-12.775h15.04c7.044,0,12.775,5.731,12.775,12.775v15.041c0,7.044-5.731,12.775-12.775,12.775h-15.04
			c-7.044,0-12.775-5.731-12.775-12.775V286.512z"/>
		<path d="M397.13,301.553c0,15.315,12.46,27.775,27.775,27.775h15.041c15.314,0,27.774-12.46,27.774-27.775v-15.041
			c0-15.315-12.46-27.775-27.774-27.775h-15.041c-15.315,0-27.775,12.46-27.775,27.775V301.553z M412.13,286.512
			c0-7.044,5.731-12.775,12.775-12.775h15.041c7.044,0,12.774,5.731,12.774,12.775v15.041c0,7.044-5.73,12.775-12.774,12.775
			h-15.041c-7.044,0-12.775-5.731-12.775-12.775V286.512z"/>
		<path d="M44.196,390.741c0,15.315,12.46,27.775,27.774,27.775h15.041c15.315,0,27.775-12.46,27.775-27.775V375.7
			c0-15.315-12.46-27.775-27.775-27.775H71.97c-15.314,0-27.774,12.46-27.774,27.775V390.741z M59.196,375.7
			c0-7.044,5.73-12.775,12.774-12.775h15.041c7.044,0,12.775,5.731,12.775,12.775v15.041c0,7.044-5.731,12.775-12.775,12.775H71.97
			c-7.044,0-12.774-5.731-12.774-12.775V375.7z"/>
		<path d="M132.429,390.741c0,15.315,12.46,27.775,27.775,27.775h15.04c15.315,0,27.775-12.46,27.775-27.775V375.7
			c0-15.315-12.46-27.775-27.775-27.775h-15.04c-15.315,0-27.775,12.46-27.775,27.775V390.741z M147.429,375.7
			c0-7.044,5.731-12.775,12.775-12.775h15.04c7.044,0,12.775,5.731,12.775,12.775v15.041c0,7.044-5.731,12.775-12.775,12.775h-15.04
			c-7.044,0-12.775-5.731-12.775-12.775V375.7z"/>
		<path d="M220.663,390.741c0,15.315,12.46,27.775,27.774,27.775h15.041c15.314,0,27.774-12.46,27.774-27.775V375.7
			c0-15.315-12.46-27.775-27.774-27.775h-15.041c-15.314,0-27.774,12.46-27.774,27.775V390.741z M235.663,375.7
			c0-7.044,5.73-12.775,12.774-12.775h15.041c7.044,0,12.774,5.731,12.774,12.775v15.041c0,7.044-5.73,12.775-12.774,12.775h-15.041
			c-7.044,0-12.774-5.731-12.774-12.775V375.7z"/>
		<path d="M308.897,390.741c0,15.315,12.46,27.775,27.775,27.775h15.04c15.315,0,27.775-12.46,27.775-27.775V375.7
			c0-15.315-12.46-27.775-27.775-27.775h-15.04c-15.315,0-27.775,12.46-27.775,27.775V390.741z M323.897,375.7
			c0-7.044,5.731-12.775,12.775-12.775h15.04c7.044,0,12.775,5.731,12.775,12.775v15.041c0,7.044-5.731,12.775-12.775,12.775h-15.04
			c-7.044,0-12.775-5.731-12.775-12.775V375.7z"/>
		<path d="M58.702,91.926c0,15.137,12.315,27.452,27.452,27.452s27.452-12.315,27.452-27.452c0-15.137-12.315-27.453-27.452-27.453
			S58.702,76.788,58.702,91.926z M98.607,91.926c0,6.866-5.586,12.452-12.452,12.452s-12.452-5.586-12.452-12.452
			c0-6.866,5.586-12.453,12.452-12.453S98.607,85.059,98.607,91.926z"/>
		<path d="M453.214,93.335c0-15.137-12.315-27.452-27.452-27.452S398.31,78.198,398.31,93.335s12.315,27.452,27.452,27.452
			S453.214,108.472,453.214,93.335z M413.31,93.335c0-6.866,5.586-12.452,12.452-12.452s12.452,5.586,12.452,12.452
			s-5.586,12.452-12.452,12.452S413.31,100.201,413.31,93.335z"/>
	</g>
</g>
<g>
</g>
<g>
</g>
<g>
</g>
<g>
</g>
<g>
</g>
<g>
</g>
<g>
</g>
<g>
</g>
<g>
</g>
<g>
</g>
<g>
</g>
<g>
</g>
<g>
</g>
<g>
</g>
<g>
</g>
</svg>
