<?xml version="1.0" encoding="iso-8859-1"?>
<!-- Generator: Adobe Illustrator 24.0.0, SVG Export Plug-In . SVG Version: 6.00 Build 0)  -->
<svg version="1.1" id="Capa_1" xmlns="http://www.w3.org/2000/svg" xmlns:xlink="http://www.w3.org/1999/xlink" x="0px" y="0px"
	 viewBox="0 0 512 512" style="enable-background:new 0 0 512 512;" xml:space="preserve">
<g>
	<g>
		<circle style="fill:#DA4A54;" cx="279.546" cy="151.039" r="113.064"/>
		<path style="fill:#C63D4F;" d="M307.922,260.509c-9.07,2.34-18.58,3.59-28.38,3.59c-62.44,0-113.06-50.62-113.06-113.06
			c0-62.45,50.62-113.07,113.06-113.07c9.8,0,19.31,1.25,28.38,3.59c-48.71,12.59-84.69,56.83-84.69,109.48
			C223.232,203.679,259.212,247.919,307.922,260.509z"/>
		<circle style="fill:#F4DD45;" cx="165.94" cy="258.369" r="128.174"/>
		<path style="fill:#EAB14D;" d="M199.806,382.019c-10.78,2.95-22.14,4.52-33.86,4.52c-70.79,0-128.18-57.38-128.18-128.17
			s57.39-128.18,128.18-128.18c11.72,0,23.08,1.57,33.86,4.52c-54.35,14.86-94.31,64.59-94.31,123.66
			C105.496,317.439,145.456,367.169,199.806,382.019z"/>
		<circle style="fill:#9BD069;" cx="361.17" cy="258.369" r="113.064"/>
		<path style="fill:#80BC93;" d="M389.666,367.809c-9.1,2.36-18.65,3.62-28.49,3.62c-62.45,0-113.07-50.62-113.07-113.06
			c0-62.45,50.62-113.07,113.07-113.07c9.84,0,19.39,1.26,28.49,3.62c-48.65,12.63-84.57,56.84-84.57,109.45
			C305.096,310.969,341.016,355.179,389.666,367.809z"/>
		<g>
			<path style="fill:#90D8F9;" d="M124.871,226.062c-3.273,7.61-12.095,11.127-19.705,7.855l-18.33-7.882
				c-7.61-3.273-11.127-12.095-7.855-19.705s12.095-11.127,19.705-7.855l18.33,7.882
				C124.627,209.629,128.144,218.451,124.871,226.062z"/>
		</g>
		<path style="fill:#E7ECF1;" d="M474.23,318.903l-7.83,30.94l-21.91,86.53c-9.45,37.33-43.05,63.48-81.56,63.48H149.07
			c-38.51,0-72.11-26.15-81.56-63.48l-29.74-117.47l80.31-11.14L256,288.633L474.23,318.903z"/>
		<path style="fill:#C6D0DA;" d="M474.23,318.903L256,288.633l-0.03,0.004l0.03-0.008l-218.23,30.27l29.74,117.47
			c9.46,37.33,43.05,63.48,81.57,63.48h51.99c-19.78,0-37.04-26.15-41.9-63.48l-6.802-52.291
			c-2.361-18.148,11.77-34.236,30.071-34.236H466.4L474.23,318.903z"/>
		<g>
			<path style="fill:#DA4A54;" d="M119.402,170.741c-7.14,4.2-16.334,1.816-20.534-5.324l-10.116-17.198
				c-4.2-7.14-1.816-16.334,5.324-20.534s16.334-1.816,20.534,5.324l10.116,17.198C128.926,157.347,126.542,166.54,119.402,170.741z
				"/>
		</g>
		<g>
			<path style="fill:#9BD069;" d="M203.522,130.279c-0.343,8.277-7.331,14.709-15.608,14.367l-19.936-0.825
				c-8.277-0.343-14.709-7.331-14.367-15.608c0.343-8.277,7.331-14.709,15.608-14.367l19.936,0.825
				C197.433,115.014,203.865,122.002,203.522,130.279z"/>
		</g>
		<g>
			<path style="fill:#DA4A54;" d="M162.201,216.078c-7.022-4.395-9.152-13.65-4.758-20.673l10.585-16.913
				c4.395-7.022,13.65-9.152,20.673-4.758c7.022,4.395,9.152,13.65,4.758,20.673l-10.585,16.913
				C178.479,218.343,169.223,220.473,162.201,216.078z"/>
		</g>
		<g>
			<path style="fill:#90D8F9;" d="M238.259,184.809c-8.284-0.038-14.969-6.785-14.931-15.069l0.092-19.952
				c0.038-8.284,6.785-14.969,15.069-14.931s14.969,6.785,14.931,15.069l-0.092,19.952
				C253.29,178.162,246.543,184.847,238.259,184.809z"/>
		</g>
		<path style="fill:#F4DD45;" d="M337.097,22.808c-37.061-14.226-78.147-14.213-115.2,0.038
			c-12.018,4.622-17.123,18.848-10.743,30.032c0.069,0.122,0.139,0.244,0.208,0.365c5.154,9.038,16.13,12.989,25.842,9.259
			c12.204-4.687,25.002-7.273,37.862-7.759c14.231-0.538,27.122,8.244,32.103,21.586c3.047,8.16,5.375,16.58,6.951,25.165
			c1.305,7.109,7.891,11.998,15.085,11.306l0.281-0.027c8.183-0.788,13.905-8.425,12.414-16.51
			c-2.058-11.164-5.191-22.092-9.332-32.64c6.184-0.925,11.833-4.545,15.122-10.311l0.248-0.434
			C354.34,41.654,349.16,27.438,337.097,22.808z"/>
		<path style="fill:#EAB14D;" d="M243.076,51.886c0.07,0.12,0.14,0.24,0.21,0.36c1.47,2.58,3.41,4.75,5.67,6.44
			c-3.97,1.06-7.9,2.33-11.76,3.82c-9.71,3.73-20.69-0.22-25.84-9.26c-0.07-0.12-0.14-0.24-0.21-0.36
			c-6.38-11.19-1.27-25.41,10.75-30.04c22.02-8.47,45.48-11.91,68.66-10.32c-12.49,1.64-24.82,4.75-36.74,9.33
			C241.796,26.476,236.696,40.696,243.076,51.886z"/>
		<path style="fill:#E7ECF1;" d="M474.234,318.901H37.766c-16.715,0-30.266-13.551-30.266-30.266v0
			c0-16.715,13.551-30.266,30.266-30.266h436.468c16.715,0,30.266,13.551,30.266,30.266v0
			C504.5,305.351,490.949,318.901,474.234,318.901z"/>
		<path style="fill:#C6D0DA;" d="M163.47,318.905H37.77c-16.72,0-30.27-13.55-30.27-30.27c0-8.36,3.39-15.92,8.87-21.4
			c5.47-5.47,13.04-8.86,21.4-8.86h125.7c-8.36,0-15.93,3.39-21.4,8.86c-5.48,5.48-8.87,13.04-8.87,21.4
			C133.2,305.355,146.75,318.905,163.47,318.905z"/>
		<path style="fill:#DDFBEA;" d="M430.677,167.841l28.258-9.711c8.487-2.916,8.487-14.919,0-17.836l-28.258-9.711
			c-2.749-0.945-4.909-3.104-5.853-5.853l-9.711-28.258c-2.916-8.487-14.919-8.487-17.836,0l-9.711,28.258
			c-0.945,2.749-3.104,4.909-5.853,5.853l-28.258,9.711c-8.487,2.916-8.487,14.919,0,17.836l28.258,9.711
			c2.749,0.945,4.909,3.104,5.853,5.853l9.711,28.258c2.916,8.487,14.919,8.487,17.836,0l9.711-28.258
			C425.768,170.945,427.928,168.786,430.677,167.841z"/>
	</g>
	<g>
		<path d="M71.861,220.585c2.225,5.583,6.491,9.965,12.012,12.339l18.33,7.882c2.855,1.228,5.868,1.842,8.884,1.842
			c2.817,0,5.639-0.537,8.335-1.611c5.583-2.225,9.965-6.491,12.339-12.012c2.374-5.521,2.456-11.637,0.23-17.219
			c-2.226-5.583-6.492-9.965-12.013-12.339l-18.33-7.882c-5.521-2.374-11.636-2.456-17.219-0.23
			c-5.583,2.225-9.965,6.491-12.339,12.012C69.717,208.887,69.635,215.003,71.861,220.585z M85.872,209.292
			c1.22-2.837,3.992-4.537,6.9-4.537c0.987,0,1.99,0.196,2.952,0.61l18.33,7.882c1.84,0.792,3.262,2.252,4.004,4.113
			c0.742,1.861,0.714,3.899-0.077,5.74c-0.791,1.84-2.252,3.263-4.113,4.004c-1.861,0.741-3.9,0.714-5.74-0.077l-18.33-7.882
			c-1.84-0.791-3.263-2.252-4.004-4.113C85.053,213.17,85.08,211.132,85.872,209.292z"/>
		<path d="M158.222,222.435c3.703,2.317,7.824,3.422,11.9,3.422c7.501,0,14.844-3.744,19.109-10.558l10.585-16.914
			c6.582-10.517,3.38-24.427-7.136-31.009c-10.518-6.583-24.427-3.38-31.009,7.136l-10.585,16.914
			c-3.188,5.095-4.201,11.125-2.854,16.982C149.58,214.266,153.127,219.247,158.222,222.435z M163.8,199.384l10.585-16.913
			c1.422-2.272,3.87-3.52,6.37-3.52c1.358,0,2.732,0.368,3.966,1.14c1.698,1.063,2.881,2.724,3.331,4.676s0.111,3.963-0.951,5.661
			l-10.585,16.914c-1.063,1.698-2.724,2.881-4.676,3.33c-1.952,0.45-3.962,0.111-5.661-0.951l0,0
			c-1.698-1.063-2.88-2.723-3.33-4.675C162.4,203.092,162.738,201.082,163.8,199.384z"/>
		<path d="M512,288.635c0-18.324-13.121-33.637-30.46-37.05c-1.694-30.876-14.917-59.365-37.199-80.509l17.032-5.853
			c6.942-2.386,11.428-8.67,11.428-16.011s-4.486-13.625-11.428-16.011l-28.258-9.71c-0.567-0.195-1.003-0.631-1.198-1.198
			l-9.711-28.258c-2.386-6.942-8.67-11.428-16.01-11.428c-7.341,0-13.625,4.486-16.011,11.428l-1.777,5.171
			c-7.877-16.521-19.491-31.12-33.955-42.606l0.004-0.006c4.115-7.22,4.872-15.846,2.078-23.667
			c-2.813-7.874-8.917-14.113-16.746-17.118C311.873,5.09,281.526,2.016,252.029,6.922c-4.086,0.68-6.848,4.543-6.168,8.629
			c0.68,4.086,4.55,6.849,8.629,6.168c26.863-4.467,54.499-1.668,79.922,8.094c3.742,1.437,6.657,4.411,7.996,8.161
			c1.341,3.752,0.991,7.727-0.953,11.138l-0.281,0.484c-2.044,3.584-5.583,5.992-9.709,6.606c-2.26,0.336-4.244,1.685-5.388,3.663
			c-1.144,1.978-1.325,4.369-0.49,6.496c3.966,10.106,6.973,20.625,8.936,31.258c0.338,1.834-0.091,3.66-1.208,5.141
			c-1.105,1.465-2.72,2.369-4.619,2.553l-0.204,0.022c-3.338,0.32-6.406-1.961-6.998-5.202c-1.661-9.02-4.118-17.911-7.3-26.425
			c-6.151-16.477-21.98-27.092-39.412-26.461c-13.808,0.526-27.356,3.302-40.273,8.253c-6.19,2.376-13.34-0.19-16.667-6.028
			l-0.178-0.306c-1.95-3.42-2.31-7.508-0.986-11.216c1.329-3.725,4.213-6.676,7.915-8.099c0.752-0.29,1.504-0.569,2.256-0.848
			c3.883-1.441,5.863-5.757,4.422-9.641c-1.441-3.883-5.756-5.863-9.641-4.422c-0.809,0.3-1.616,0.601-2.422,0.911
			c-7.785,2.992-13.856,9.209-16.657,17.057c-2.786,7.806-2.038,16.41,2.089,23.693c-16.399,13.048-29.316,30.357-37.085,49.762
			c-10.245,0.466-18.819,7.849-20.945,17.719c-8.509,1.21-16.875,3.231-25,6.038l-0.537-0.913
			c-6.29-10.694-20.108-14.275-30.802-7.986c-10.589,6.229-14.199,19.836-8.161,30.484c-30.802,24.25-49.689,60.766-51.657,99.881
			C13.118,255.001,0,270.312,0,288.635c0,18.798,13.808,34.429,31.813,37.293l28.427,112.283
			c10.305,40.708,46.834,69.14,88.831,69.14h213.86c35.869,0,68.617-21.086,83.429-53.721c1.712-3.771,0.042-8.217-3.73-9.929
			c-3.771-1.71-8.217-0.042-9.929,3.73c-12.386,27.288-39.772,44.92-69.77,44.92H149.07c-35.122,0-65.671-23.777-74.29-57.821
			L47.406,326.401h417.188l-23.695,93.578c-1.017,4.015,1.414,8.095,5.43,9.111c0.618,0.156,1.237,0.231,1.846,0.231
			c3.352,0,6.405-2.263,7.265-5.661l24.747-97.733C498.192,323.064,512,307.434,512,288.635z M466.46,250.869H255.874
			c3.345-47.414,38.146-86.854,84.652-96.044c1.653,4.811,5.409,8.651,10.492,10.398l28.257,9.71
			c0.567,0.195,1.004,0.632,1.199,1.198l9.711,28.258c2.386,6.942,8.67,11.428,16.011,11.428c7.34,0,13.625-4.486,16.01-11.428
			l8.686-25.276C451.881,197.53,464.527,223.041,466.46,250.869z M406.195,97.607c0.914,0,1.528,0.438,1.825,1.303l9.71,28.257
			c1.708,4.971,5.538,8.801,10.509,10.51l28.258,9.71c0.864,0.297,1.303,0.911,1.303,1.825s-0.438,1.528-1.303,1.825l-28.258,9.71
			c0,0,0,0,0,0c-4.971,1.708-8.801,5.539-10.508,10.509l-9.711,28.258c-0.297,0.864-0.911,1.303-1.824,1.303
			c-0.914,0-1.528-0.438-1.825-1.303l-9.711-28.258c-1.708-4.97-5.539-8.801-10.509-10.509l-28.258-9.71
			c-0.864-0.297-1.303-0.911-1.303-1.825s0.438-1.528,1.303-1.825l28.257-9.71c4.971-1.708,8.801-5.538,10.51-10.509l9.711-28.258
			C404.667,98.046,405.281,97.607,406.195,97.607z M215.107,67.447c7.278,4.331,16.327,5.304,24.778,2.057
			c11.374-4.359,23.308-6.805,35.464-7.268c10.935-0.408,20.909,6.311,24.795,16.721c2.877,7.696,5.097,15.734,6.598,23.883
			c1.856,10.155,10.926,17.518,21.199,17.518c0.682,0,1.37-0.032,2.061-0.099l0.209-0.022c5.972-0.577,11.469-3.655,15.081-8.444
			c3.624-4.805,5.076-10.961,3.983-16.893c-1.659-8.984-4-17.89-6.983-26.567c0.57-0.284,1.125-0.592,1.673-0.913
			c17.668,13.63,30.604,32.52,36.856,53.864l-0.348,1.011c-0.195,0.566-0.631,1.003-1.198,1.198l-28.258,9.711
			c-3.409,1.171-6.22,3.287-8.204,6.002c-27.343,4.171-51.437,17.42-69.356,36.443c-3.854-5.008-8.061-9.757-12.591-14.193
			l0.053-11.494c0.057-12.407-9.99-22.546-22.396-22.604c-0.036,0-0.071,0-0.106,0c-5.97,0-11.59,2.312-15.833,6.517
			c-0.27,0.267-0.509,0.556-0.763,0.834c-3.537-1.601-7.146-3.05-10.806-4.34c0.188-5.924-1.905-11.58-5.925-15.946
			c-4.07-4.422-9.619-6.994-15.623-7.242l-5.823-0.241C190.766,91.531,201.636,77.861,215.107,67.447z M245.919,149.891
			l-0.092,19.953c-0.009,2.003-0.798,3.883-2.221,5.293c-1.423,1.41-3.317,2.154-5.313,2.172c-4.136-0.019-7.485-3.399-7.466-7.534
			l0.092-19.953c0.009-2.003,0.798-3.883,2.221-5.293c1.415-1.402,3.288-2.172,5.278-2.172c0.012,0,0.023,0,0.035,0
			C242.59,142.376,245.938,145.756,245.919,149.891z M168.596,121.334c0.104,0,0.209,0.002,0.313,0.006l19.936,0.826
			c2.001,0.083,3.851,0.94,5.208,2.414c1.357,1.474,2.059,3.388,1.976,5.389c-0.171,4.132-3.667,7.35-7.804,7.184l-19.935-0.825
			c-4.132-0.171-7.354-3.672-7.184-7.804C161.272,124.496,164.602,121.334,168.596,121.334z M97.878,134.149
			c1.168-0.687,2.469-1.039,3.79-1.039c0.632,0,1.268,0.081,1.896,0.244c1.939,0.502,3.566,1.73,4.582,3.457l10.116,17.198
			c1.016,1.727,1.298,3.746,0.795,5.685c-0.502,1.939-1.73,3.566-3.457,4.582l0,0c-1.727,1.015-3.746,1.297-5.685,0.795
			c-1.939-0.503-3.566-1.73-4.582-3.458l-10.116-17.198C93.119,140.851,94.313,136.246,97.878,134.149z M89.786,164.77l2.617,4.449
			c4.188,7.12,11.712,11.087,19.431,11.087c3.874,0,7.797-1,11.37-3.102c5.18-3.047,8.864-7.929,10.372-13.747
			c1.508-5.818,0.661-11.875-2.386-17.055l-1.809-3.076c6.247-1.983,12.646-3.433,19.136-4.368
			c3.564,7.038,10.725,12.006,19.152,12.355l19.935,0.825c0.316,0.013,0.63,0.02,0.943,0.02c6.755,0,12.874-3.017,17.019-7.813
			c3.533,1.23,7.014,2.626,10.42,4.18c-0.024,0.408-0.064,0.814-0.065,1.226l-0.092,19.953c-0.027,6.01,2.287,11.671,6.517,15.94
			c4.23,4.269,9.87,6.635,15.879,6.663c0.036,0,0.071,0,0.106,0c5.97,0,11.59-2.312,15.834-6.517
			c1.596-1.582,2.925-3.361,3.967-5.282c1.919,2.271,3.742,4.617,5.484,7.019c-13.122,18.07-21.318,39.868-22.767,63.34H45.507
			C47.607,217.312,63.71,186.027,89.786,164.77z M474.234,311.401H37.766C25.213,311.401,15,301.188,15,288.635
			s10.213-22.766,22.766-22.766h436.468c12.553,0,22.766,10.213,22.766,22.766S486.787,311.401,474.234,311.401z"/>
	</g>
</g>
<g>
</g>
<g>
</g>
<g>
</g>
<g>
</g>
<g>
</g>
<g>
</g>
<g>
</g>
<g>
</g>
<g>
</g>
<g>
</g>
<g>
</g>
<g>
</g>
<g>
</g>
<g>
</g>
<g>
</g>
</svg>
