<?xml version="1.0" encoding="iso-8859-1"?>
<!-- Generator: Adobe Illustrator 24.0.0, SVG Export Plug-In . SVG Version: 6.00 Build 0)  -->
<svg version="1.1" id="Capa_1" xmlns="http://www.w3.org/2000/svg" xmlns:xlink="http://www.w3.org/1999/xlink" x="0px" y="0px"
	 viewBox="0 0 512 512" style="enable-background:new 0 0 512 512;" xml:space="preserve">
<g>
	<g>
		<path style="fill:#F1CB86;" d="M396.254,285.78c-8.59,0.93-18.23,0.63-28.89-1.16h-114.55l22.7-277.12
			c29.24,0,49.21,7.3,57.1,25.17c3.71,8.39,4.75,19.12,2.84,32.51c-5.98,41.9-1.48,101.04,49.88,107.74
			C467.404,183.62,468.884,278.02,396.254,285.78z"/>
		<path style="fill:#ECBE6B;" d="M396.254,285.78c-8.59,0.93-18.23,0.63-28.89-1.16h-114.55l22.7-277.12
			c29.24,0,49.21,7.3,57.1,25.17c-26.26,11.56-42.73,95.86-16.29,122.29C342.764,181.4,440.274,220.07,396.254,285.78z"/>
		<g>
			<path style="fill:#9BD069;" d="M367.762,305.208c0.138,43.351-4.207,84.027-9.438,117.194
				c-2.86,18.091-5.978,33.941-8.792,46.765c-4.53,20.628-22.787,35.334-43.905,35.334H168.792
				c-21.118,0-39.375-14.706-43.905-35.334c-2.814-12.824-5.932-28.673-8.792-46.765c-5.231-33.166-9.576-73.842-9.438-117.194
				c0.028-12.159,0.406-24.531,1.227-37.004c1.504-23.009,12.187-44.458,29.716-59.432c2.777-2.371,5.646-5.046,8.552-8.054
				c15.185-15.721,31.229-40.602,38.019-78.612c1.024-5.711,1.919-11.255,2.722-16.643c2.611-17.723,4.078-33.674,4.788-47.651
				c0.341-6.587,0.507-12.731,0.563-18.405l44.966-15.951l44.966,15.951c0.055,5.674,0.221,11.818,0.563,18.405
				c0.71,13.977,2.177,29.928,4.788,47.651c0.803,5.388,1.698,10.932,2.722,16.643c6.79,38.01,22.833,62.891,38.01,78.612
				c2.906,3.008,5.784,5.683,8.552,8.054c17.538,14.973,28.212,36.423,29.725,59.432
				C367.356,280.677,367.734,293.048,367.762,305.208z"/>
			<path style="fill:#80BC93;" d="M282.738,57.812c-0.341-6.587-0.507-12.731-0.563-18.405L237.21,23.456l-0.018,0.007l0.009-0.007
				L192.518,39.31l-0.274,0.097c0,0,0,0.001,0,0.001c-0.157,17.741-1.504,39.983-5.351,66.055
				c-0.803,5.388-1.697,10.932-2.722,16.643c-6.79,38.01-22.833,62.891-38.019,78.612c-2.906,3.008-5.775,5.683-8.552,8.054
				c-17.529,14.973-28.212,36.423-29.716,59.432c-0.821,12.473-1.199,24.845-1.227,37.004c-0.138,43.351,4.207,84.027,9.438,117.194
				c2.86,18.091,5.978,33.941,8.792,46.765c4.53,20.628,22.787,35.334,43.905,35.334h33.978c-10.628,0-19.817-14.706-22.095-35.334
				c-1.421-12.824-2.989-28.673-4.428-46.765c-2.639-33.166-4.825-73.842-4.751-117.194c0.009-12.159,0.203-24.531,0.618-37.004
				c0.756-23.009,6.135-44.458,14.955-59.432c1.402-2.371,2.841-5.046,4.308-8.054c7.639-15.721,15.721-40.602,19.134-78.612
				c0.517-5.711,0.969-11.255,1.365-16.643c0.743-9.994,1.301-19.423,1.711-28.252c0.504-10.862,9.476-19.399,20.35-19.399H282.738z
				"/>
			<path style="fill:#F4DD45;" d="M367.762,305.208c0.138,43.351-4.207,84.027-9.438,117.194
				c-35.159,6.67-76.665,10.526-121.114,10.526s-85.955-3.856-121.114-10.526c-5.231-33.166-9.576-73.842-9.438-117.194
				c37.069-7.842,82.053-12.427,130.552-12.427S330.702,297.375,367.762,305.208z"/>
			<path style="fill:#F4DD45;" d="M328.257,200.718c-22.105,16.689-54.699,27.234-91.048,27.234
				c-36.358,0-68.953-10.545-91.057-27.234c15.185-15.721,31.229-40.602,38.019-78.612c1.024-5.711,1.919-11.255,2.722-16.643
				c15.315-0.95,32.354-1.015,50.317-1.015s35.002,0.065,50.317,1.015c0.803,5.388,1.698,10.932,2.722,16.643
				C297.038,160.116,313.081,184.997,328.257,200.718z"/>
			<path style="fill:#EAB14D;" d="M176.911,430.483c-21.717-1.799-42.161-4.539-60.815-8.081
				c-5.231-33.166-9.576-73.842-9.438-117.194c19.623-4.152,41.469-7.39,64.884-9.521c-0.028,3.192-0.046,6.366-0.046,9.521
				c-0.074,43.351,2.113,84.027,4.751,117.194C176.468,425.15,176.689,427.844,176.911,430.483z"/>
			<path style="fill:#EAB14D;" d="M211.94,104.586c-0.018,0.286-0.046,0.581-0.065,0.877c-0.397,5.388-0.849,10.932-1.365,16.643
				c-3.413,38.01-11.495,62.891-19.134,78.612c-1.467,3.008-2.906,5.683-4.308,8.054c-1.873,3.183-3.598,6.661-5.157,10.388
				c-13.654-4.622-25.776-10.905-35.759-18.442c15.185-15.721,31.229-40.602,38.019-78.612c1.024-5.711,1.919-11.255,2.722-16.643
				C194.818,104.974,203.204,104.716,211.94,104.586z"/>
			<path style="fill:#9BD069;" d="M275.511,7.5h-76.609c-8.811,0-15.954,7.143-15.954,15.954v0c0,8.811,7.143,15.954,15.954,15.954
				h76.609c8.811,0,15.954-7.143,15.954-15.954v0C291.464,14.643,284.322,7.5,275.511,7.5z"/>
			<path style="fill:#80BC93;" d="M229.851,39.414h-30.943c-8.811,0-15.96-7.141-15.96-15.951v-0.009
				c0-8.81,7.15-15.951,15.96-15.951h30.943c-8.82,0-15.96,7.141-15.96,15.951v0.009C213.891,32.273,221.031,39.414,229.851,39.414z
				"/>
			<ellipse style="fill:#EAB14D;" cx="237.206" cy="212.017" rx="65.262" ry="42.779"/>
		</g>
		<circle style="fill:#F4D8A5;" cx="431.729" cy="358.978" r="28.432"/>
		<circle style="fill:#F4D8A5;" cx="461.669" cy="297.09" r="15.463"/>
		<circle style="fill:#F4D8A5;" cx="392.51" cy="130.024" r="15.463"/>
		<path style="fill:#DDFBEA;" d="M118.455,251.456l28.258-9.711c8.487-2.916,8.487-14.919,0-17.836l-28.258-9.711
			c-2.749-0.945-4.909-3.104-5.853-5.853l-9.711-28.258c-2.916-8.487-14.919-8.487-17.836,0l-9.711,28.258
			c-0.945,2.749-3.104,4.909-5.853,5.853l-28.258,9.711c-8.487,2.916-8.487,14.919,0,17.836l28.258,9.711
			c2.749,0.945,4.909,3.104,5.853,5.853l9.711,28.258c2.916,8.487,14.919,8.487,17.836,0l9.711-28.258
			C113.547,254.56,115.706,252.401,118.455,251.456z"/>
	</g>
	<g>
		<path d="M252.488,196.734c-2.929-2.929-7.678-2.929-10.606,0l-4.676,4.676l-4.676-4.676c-2.928-2.93-7.677-2.929-10.606,0
			s-2.929,7.678,0,10.606l4.676,4.676l-4.676,4.676c-2.929,2.929-2.929,7.678,0,10.606c1.464,1.464,3.384,2.197,5.303,2.197
			s3.839-0.732,5.303-2.197l4.676-4.676l4.676,4.676c1.464,1.465,3.384,2.197,5.303,2.197c1.919,0,3.839-0.732,5.303-2.197
			c2.929-2.929,2.929-7.678,0-10.606l-4.676-4.676l4.676-4.676C255.417,204.412,255.417,199.663,252.488,196.734z"/>
		<path d="M221.924,340.618c1.464,1.464,3.384,2.197,5.303,2.197s3.839-0.732,5.303-2.197l4.676-4.676l4.676,4.676
			c1.464,1.465,3.384,2.197,5.303,2.197c1.919,0,3.839-0.732,5.303-2.197c2.929-2.929,2.929-7.678,0-10.606l-4.676-4.676
			l4.676-4.676c2.929-2.929,2.929-7.678,0-10.606c-2.929-2.929-7.678-2.929-10.606,0l-4.676,4.676l-4.676-4.676
			c-2.928-2.929-7.677-2.929-10.606,0c-2.929,2.929-2.929,7.678,0,10.606l4.676,4.676l-4.676,4.676
			C218.995,332.94,218.995,337.689,221.924,340.618z"/>
		<path d="M308.998,353.423H165.421c-4.142,0-7.5,3.358-7.5,7.5s3.358,7.5,7.5,7.5h143.578c4.143,0,7.5-3.358,7.5-7.5
			S313.141,353.423,308.998,353.423z"/>
		<path d="M288.137,384.102H186.282c-4.142,0-7.5,3.358-7.5,7.5s3.358,7.5,7.5,7.5h101.854c4.143,0,7.5-3.358,7.5-7.5
			S292.28,384.102,288.137,384.102z"/>
		<path d="M420.174,287.334c13.884-6.014,24.467-15.969,30.606-28.79c11.637-24.3,5.02-53.463-16.467-72.569
			c-3.096-2.753-7.836-2.475-10.588,0.621c-2.753,3.095-2.475,7.836,0.621,10.588c16.438,14.618,21.625,36.674,12.905,54.882
			c-9.555,19.951-32.743,29.459-62.664,26.005c-0.164-3.485-0.35-6.947-0.575-10.362c-1.636-24.93-13.422-48.491-32.328-64.637
			c-2.817-2.412-5.518-4.954-8.03-7.562c-18.461-19.118-30.58-44.257-36.024-74.732c-0.902-5.003-1.784-10.378-2.691-16.411
			c-3.165-21.484-4.907-42.41-5.219-62.272c5.613-4.289,9.243-11.048,9.243-18.641c0-2.258-0.327-4.441-0.926-6.509
			c10.626,2.143,18.353,6.069,23.369,11.852c6.743,7.773,8.911,19.328,6.628,35.322c-3.281,22.956-5.663,65.58,15.263,93.131
			c9.929,13.073,23.748,20.848,41.069,23.106c5.878,0.769,11.461,2.021,16.594,3.723c0.783,0.26,1.578,0.383,2.36,0.383
			c3.145,0,6.074-1.994,7.118-5.142c1.303-3.932-0.827-8.176-4.76-9.479c-6.033-2-12.549-3.466-19.37-4.358
			c-13.387-1.746-23.549-7.407-31.066-17.305c-18.285-24.075-14.734-65.32-12.358-81.938c2.894-20.27-0.521-36.174-10.146-47.271
			C321.668,6.205,302.948,0,275.512,0c0,0-0.001,0-0.001,0h-76.61c-12.933,0-23.454,10.521-23.454,23.454
			c0,7.594,3.63,14.352,9.243,18.641c-0.313,19.918-2.055,40.844-5.218,62.264c-0.819,5.517-1.723,11.046-2.685,16.433
			c-5.443,30.469-17.565,55.608-36.029,74.716c-2.562,2.65-5.265,5.195-8.021,7.553c-2.178,1.855-4.285,3.853-6.316,5.945l-5.53-1.9
			c-0.566-0.194-1.002-0.631-1.197-1.197l-9.71-28.258c-2.386-6.942-8.67-11.428-16.011-11.428s-13.625,4.486-16.011,11.428
			l-9.711,28.259c-0.194,0.566-0.63,1.002-1.197,1.197l-28.258,9.711c-6.942,2.386-11.428,8.67-11.428,16.011
			s4.486,13.625,11.428,16.011l28.258,9.71c0.566,0.195,1.003,0.631,1.198,1.198l9.711,28.258
			c2.385,6.942,8.67,11.428,16.011,11.428c1.83,0,3.593-0.279,5.248-0.805c-0.028,2.183-0.065,4.361-0.071,6.56
			c-0.113,37.723,3.094,77.551,9.532,118.384c1.701,10.756,3.643,21.647,5.772,32.369c0.709,3.57,3.842,6.041,7.349,6.041
			c0.484,0,0.976-0.047,1.468-0.145c4.063-0.807,6.703-4.754,5.896-8.817c-1.407-7.083-2.721-14.24-3.945-21.38
			c34.217,5.754,72.671,8.789,111.988,8.789c39.313,0,77.765-3.034,111.979-8.788c-2.082,12.156-4.417,24.2-6.984,35.92
			C338.457,484.619,323.072,497,305.62,497H168.79c-13.109,0-25.039-6.672-31.911-17.849c-2.169-3.527-6.788-4.631-10.317-2.46
			c-3.528,2.169-4.63,6.789-2.46,10.317C133.724,502.657,150.43,512,168.79,512h136.83c24.44,0,45.988-17.336,51.236-41.226
			c3.361-15.351,6.347-31.232,8.872-47.207c6.446-40.889,9.653-80.718,9.531-118.376c-0.01-4.018-0.072-8.012-0.159-11.991
			c3.925,0.391,7.762,0.609,11.484,0.609C398.973,293.81,410.218,291.647,420.174,287.334z M274.802,46.91
			c0.429,16.308,1.792,33.268,4.052,50.613c-12.808-0.517-26.577-0.575-41.645-0.575c-15.07,0-28.842,0.059-41.651,0.575
			c2.259-17.302,3.622-34.266,4.05-50.614H274.802z M198.901,15h76.61c4.661,0,8.453,3.792,8.453,8.454s-3.792,8.454-8.453,8.454
			h-76.61c-4.661,0-8.454-3.792-8.454-8.454S194.24,15,198.901,15z M191.553,123.429c0.635-3.553,1.232-7.171,1.81-10.802
			c13.304-0.619,27.833-0.678,43.846-0.678c16.007,0,30.53,0.059,43.83,0.677c0.609,3.825,1.214,7.401,1.828,10.803
			c5.383,30.133,16.859,55.63,34.112,75.96c-2.532,1.606-5.166,3.141-7.914,4.586c-2.457-10.904-9.908-20.815-21.6-28.479
			c-13.534-8.871-31.383-13.757-50.259-13.757s-36.725,4.886-50.259,13.757c-11.691,7.663-19.142,17.573-21.6,28.476
			c-2.747-1.445-5.38-2.979-7.911-4.585C174.693,179.059,186.17,153.564,191.553,123.429z M294.968,212.017
			c0,19.123-26.452,35.279-57.762,35.279c-31.311,0-57.762-16.156-57.762-35.279s26.452-35.278,57.762-35.278
			C268.516,176.738,294.968,192.894,294.968,212.017z M142.476,214.469c1.512-1.294,3.006-2.636,4.473-4.013
			c5.709,3.819,11.918,7.27,18.573,10.294c2.613,10.631,9.981,20.287,21.425,27.788c13.534,8.872,31.383,13.757,50.259,13.757
			s36.725-4.886,50.259-13.757c11.442-7.5,18.809-17.155,21.423-27.784c6.656-3.025,12.866-6.476,18.575-10.294
			c1.456,1.365,2.949,2.707,4.475,4.013c15.854,13.54,25.734,33.302,27.107,54.218c0.584,8.889,0.959,18.054,1.122,27.351
			c-36.891-7.046-79.162-10.761-122.958-10.761c-43.828,0-86.101,3.716-122.962,10.761c0.137-7.808,0.421-15.476,0.848-22.91
			l4.599-13.385c0.195-0.566,0.632-1.003,1.198-1.198l28.258-9.71c6.942-2.385,11.428-8.67,11.428-16.011
			s-4.486-13.625-11.428-16.011l-6.719-2.309C142.447,214.495,142.461,214.481,142.476,214.469z M93.973,284.433
			c-0.914,0-1.528-0.438-1.825-1.303l-9.71-28.257c-1.708-4.971-5.538-8.801-10.509-10.51l-28.258-9.71
			c-0.864-0.297-1.303-0.911-1.303-1.825s0.438-1.528,1.303-1.825l28.257-9.71c4.971-1.708,8.802-5.539,10.509-10.509l9.711-28.258
			c0.297-0.864,0.911-1.303,1.825-1.303s1.528,0.438,1.825,1.303l9.71,28.258c1.708,4.971,5.539,8.801,10.509,10.508l28.258,9.711
			c0.865,0.297,1.303,0.911,1.303,1.825s-0.438,1.528-1.303,1.825l-28.258,9.71c-4.97,1.708-8.801,5.539-10.509,10.509l-9.71,28.258
			C95.501,283.995,94.887,284.433,93.973,284.433z M122.696,415.981c-5.441-36.01-8.308-71.156-8.53-104.646
			c36.607-7.235,78.985-11.055,123.044-11.055c44.024,0,86.399,3.819,123.036,11.054c-0.216,33.442-3.083,68.59-8.531,104.647
			c-34.622,6.181-74.071,9.445-114.505,9.445C196.772,425.428,157.321,422.162,122.696,415.981z"/>
		<path d="M431.729,323.046c-19.813,0-35.933,16.119-35.933,35.932s16.119,35.932,35.933,35.932s35.933-16.119,35.933-35.932
			S451.542,323.046,431.729,323.046z M431.729,379.91c-11.542,0-20.933-9.39-20.933-20.932s9.391-20.932,20.933-20.932
			s20.933,9.39,20.933,20.932S443.271,379.91,431.729,379.91z"/>
		<path d="M461.669,274.126c-12.662,0-22.963,10.301-22.963,22.963c0,12.662,10.301,22.963,22.963,22.963
			s22.963-10.301,22.963-22.963C484.632,284.428,474.331,274.126,461.669,274.126z M461.669,305.053
			c-4.391,0-7.963-3.572-7.963-7.963c0-4.391,3.572-7.963,7.963-7.963s7.963,3.572,7.963,7.963
			C469.632,301.48,466.06,305.053,461.669,305.053z"/>
		<path d="M392.51,152.987c12.662,0,22.963-10.301,22.963-22.963c0-12.662-10.301-22.963-22.963-22.963
			s-22.964,10.301-22.964,22.963C369.546,142.686,379.848,152.987,392.51,152.987z M392.51,122.061c4.391,0,7.963,3.572,7.963,7.963
			c0,4.391-3.572,7.963-7.963,7.963c-4.392,0-7.964-3.572-7.964-7.963C384.546,125.633,388.118,122.061,392.51,122.061z"/>
	</g>
</g>
<g>
</g>
<g>
</g>
<g>
</g>
<g>
</g>
<g>
</g>
<g>
</g>
<g>
</g>
<g>
</g>
<g>
</g>
<g>
</g>
<g>
</g>
<g>
</g>
<g>
</g>
<g>
</g>
<g>
</g>
</svg>
