<?xml version="1.0" encoding="iso-8859-1"?>
<!-- Generator: Adobe Illustrator 24.0.0, SVG Export Plug-In . SVG Version: 6.00 Build 0)  -->
<svg version="1.1" id="Capa_1" xmlns="http://www.w3.org/2000/svg" xmlns:xlink="http://www.w3.org/1999/xlink" x="0px" y="0px"
	 viewBox="0 0 512 512" style="enable-background:new 0 0 512 512;" xml:space="preserve">
<g>
	<g>
		<polygon style="fill:#9BD069;" points="377.568,7.5 300.083,7.5 272.266,44.338 300.083,81.176 338.826,96.895 377.568,81.176 
			405.386,44.338 		"/>
		<path style="fill:#F4DD45;" d="M338.819,104.653c-91.47,0-165.62,74.16-165.62,165.63c0,91.47,74.15,165.62,165.62,165.62
			c91.47,0,165.63-74.15,165.63-165.62C504.449,178.813,430.289,104.653,338.819,104.653z M338.819,392.753
			c-67.64,0-122.47-54.83-122.47-122.47s54.83-122.48,122.47-122.48s122.48,54.84,122.48,122.48S406.459,392.753,338.819,392.753z"
			/>
		<g>
			<path style="fill:#EAB14D;" d="M349.156,392.312c3.409,0.285,6.855,0.438,10.338,0.438c67.64,0,122.48-54.83,122.48-122.47
				s-54.84-122.48-122.48-122.48c-3.482,0-6.929,0.153-10.338,0.438c62.802,5.25,112.143,57.884,112.143,122.042
				S411.958,387.062,349.156,392.312z"/>
			<path style="fill:#EAB14D;" d="M193.874,270.28c0-87.997,68.629-159.961,155.282-165.299c-3.42-0.211-6.865-0.331-10.337-0.331
				c-91.47,0-165.62,74.16-165.62,165.63c0,91.47,74.15,165.62,165.62,165.62c3.473,0,6.917-0.12,10.337-0.331
				C262.504,430.231,193.874,358.277,193.874,270.28z"/>
		</g>
		<path style="fill:#F4DD45;" d="M377.568,81.176h-77.485c-8.682,0-15.72,7.038-15.72,15.72v0c0,8.682,7.038,15.72,15.72,15.72
			h77.485c8.682,0,15.72-7.038,15.72-15.72v0C393.288,88.214,386.25,81.176,377.568,81.176z"/>
		<path style="fill:#EAB14D;" d="M323.544,108.005c2.85,2.84,6.78,4.6,11.12,4.6h-34.58c-4.34,0-8.27-1.76-11.12-4.6
			c-2.84-2.84-4.6-6.77-4.6-11.11c0-8.69,7.04-15.72,15.72-15.72h34.58c-8.68,0-15.72,7.03-15.72,15.72
			C318.944,101.235,320.704,105.165,323.544,108.005z"/>
		<path style="fill:#F4DD45;" d="M173.17,173.25c-91.47,0-165.62,74.16-165.62,165.63c0,91.47,74.15,165.62,165.62,165.62
			c91.47,0,165.63-74.15,165.63-165.62C338.8,247.41,264.64,173.25,173.17,173.25z M173.17,461.35
			c-67.64,0-122.47-54.83-122.47-122.47S105.53,216.4,173.17,216.4s122.48,54.84,122.48,122.48S240.81,461.35,173.17,461.35z"/>
		<g>
			<path style="fill:#EAB14D;" d="M183.508,460.909c3.409,0.285,6.855,0.438,10.338,0.438c67.64,0,122.48-54.83,122.48-122.47
				s-54.84-122.48-122.48-122.48c-3.482,0-6.929,0.153-10.338,0.438c62.802,5.25,112.143,57.884,112.143,122.042
				S246.309,455.659,183.508,460.909z"/>
			<path style="fill:#EAB14D;" d="M28.225,338.877c0-87.997,68.629-159.961,155.282-165.299c-3.42-0.211-6.865-0.331-10.337-0.331
				c-91.47,0-165.62,74.16-165.62,165.63c0,91.47,74.15,165.62,165.62,165.62c3.473,0,6.917-0.12,10.337-0.331
				C96.855,498.828,28.225,426.874,28.225,338.877z"/>
		</g>
		<path style="fill:#FBF4AF;" d="M206.947,340.251l28.258-9.711c8.487-2.916,8.487-14.919,0-17.836l-28.258-9.711
			c-2.749-0.945-4.909-3.104-5.853-5.853l-9.711-28.258c-2.916-8.487-14.919-8.487-17.836,0l-9.711,28.258
			c-0.945,2.749-3.104,4.909-5.853,5.853l-28.258,9.711c-8.487,2.916-8.487,14.919,0,17.836l28.258,9.711
			c2.749,0.945,4.909,3.104,5.853,5.853l9.711,28.258c2.916,8.487,14.919,8.487,17.836,0l9.711-28.258
			C202.038,343.355,204.198,341.195,206.947,340.251z"/>
	</g>
	<g>
		<path d="M464.765,151.502c-2.843-3.013-7.589-3.15-10.603-0.307c-3.013,2.843-3.15,7.589-0.308,10.602
			c27.791,29.448,43.096,67.975,43.096,108.482c0,87.193-70.933,158.13-158.12,158.13c-5.682,0-11.365-0.309-16.994-0.91
			c5.173-8.645,9.611-17.777,13.233-27.308c1.258,0.036,2.516,0.068,3.761,0.068c71.666,0,129.97-58.309,129.97-129.98
			c0-71.666-58.304-129.97-129.97-129.97c-35.862,0-69.983,14.788-94.505,40.748c-9.142-4.138-18.708-7.498-28.608-10.009
			c19.897-24.648,46.854-42.91,77.124-52.098c2.281,0.751,4.714,1.163,7.243,1.163h77.485c2.53,0,4.964-0.412,7.245-1.164
			c17.123,5.195,33.141,13.223,47.641,23.898c1.339,0.986,2.896,1.461,4.44,1.461c2.303,0,4.575-1.057,6.046-3.054
			c2.455-3.336,1.742-8.031-1.594-10.486c-13.312-9.8-27.795-17.564-43.182-23.173c1.672-3.205,2.624-6.843,2.624-10.702
			c0-8.262-4.341-15.526-10.859-19.642l21.443-28.396c2.02-2.674,2.02-6.365,0-9.039L383.554,2.98C382.136,1.104,379.92,0,377.568,0
			h-77.485c-2.352,0-4.567,1.104-5.985,2.98L266.28,39.818c-2.02,2.674-2.02,6.365,0,9.039l21.443,28.396
			c-6.518,4.116-10.859,11.38-10.859,19.642c0,3.861,0.953,7.503,2.627,10.709c-31.883,11.645-59.897,32.616-80.152,60.124
			c-8.536-1.3-17.273-1.975-26.166-1.975c-95.46,0-173.123,77.663-173.123,173.123S77.713,512,173.173,512
			c57.111,0,107.843-27.803,139.395-70.579c8.646,1.316,17.458,1.989,26.263,1.989c95.459,0,173.12-77.666,173.12-173.13
			C511.95,225.929,495.192,183.746,464.765,151.502z M300.083,105.115c-4.532,0-8.22-3.687-8.22-8.219s3.688-8.22,8.22-8.22h77.485
			c4.532,0,8.22,3.688,8.22,8.22s-3.688,8.219-8.22,8.219H300.083z M305.173,51.838l6.98,21.838h-8.336l-16.49-21.838H305.173z
			 M390.324,51.838l-16.49,21.838h-8.336l6.981-21.838H390.324z M349.75,73.676h-21.849l-6.98-21.838h35.81L349.75,73.676z
			 M390.324,36.838h-17.845L365.498,15h8.336L390.324,36.838z M349.75,15l6.981,21.838h-35.81L327.901,15H349.75z M303.817,15h8.336
			l-6.98,21.838h-17.846L303.817,15z M338.83,155.31c63.395,0,114.97,51.575,114.97,114.97c0,63.016-50.953,114.344-113.819,114.965
			c4.109-14.764,6.315-30.313,6.315-46.368c0-64.527-35.49-120.913-87.971-150.687C279.747,167.19,308.592,155.31,338.83,155.31z
			 M173.173,497C85.983,497,15.05,426.066,15.05,338.877s70.934-158.123,158.123-158.123s158.123,70.934,158.123,158.123
			S260.362,497,173.173,497z"/>
		<path d="M173.17,208.9c-71.666,0-129.97,58.309-129.97,129.98c0,48.481,26.687,92.604,69.645,115.151
			c3.668,1.924,8.201,0.511,10.126-3.156c1.925-3.667,0.513-8.201-3.155-10.126C81.81,420.802,58.2,381.768,58.2,338.88
			c0-63.005,50.936-114.327,113.787-114.965c-4.026,14.489-6.129,29.471-6.271,44.68l-8.972,26.106
			c-0.194,0.568-0.632,1.005-1.198,1.2l-28.258,9.71c-6.942,2.385-11.428,8.67-11.428,16.011s4.485,13.625,11.428,16.011
			l28.258,9.71c0.566,0.195,1.004,0.632,1.198,1.198l9.711,28.258c2.385,6.942,8.67,11.428,16.011,11.428
			c7.34,0,13.625-4.486,16.01-11.428l1.21-3.521c14.444,19.507,32.767,35.734,53.894,47.695
			c-20.749,20.324-49.139,32.876-80.409,32.876c-9.12,0-18.209-1.074-27.016-3.192c-4.034-0.974-8.077,1.512-9.046,5.538
			c-0.969,4.027,1.511,8.078,5.538,9.046c9.954,2.394,20.224,3.608,30.523,3.608c71.672,0,129.98-58.304,129.98-129.97
			C303.15,267.208,244.842,208.9,173.17,208.9z M288.15,338.88c0,11.184-1.612,21.997-4.604,32.226
			c-16.034-8.839-29.943-21.565-40.186-36.758c3.586-3.125,5.71-7.675,5.71-12.726c0-7.341-4.485-13.625-11.428-16.011l-9.223-3.169
			c-3.025-10.404-4.57-21.203-4.57-32.162c0-11.005,1.541-21.802,4.577-32.205C263.994,257.649,288.15,295.495,288.15,338.88z
			 M211.539,296.641l-2.154-0.74c-0.566-0.195-1.003-0.631-1.198-1.198l-9.711-28.258c-2.385-6.942-8.67-11.428-16.01-11.428
			c-0.349,0-0.693,0.02-1.038,0.04c0.982-10.293,2.959-20.421,5.924-30.281c9.521,1.177,18.685,3.522,27.344,6.888
			c-3.877,12.446-5.847,25.402-5.847,38.617C208.85,279.19,209.761,288.01,211.539,296.641z M182.466,373.228
			c-0.914,0-1.528-0.438-1.825-1.303l-9.711-28.26c-1.709-4.97-5.539-8.799-10.509-10.507l-28.258-9.71
			c-0.864-0.297-1.303-0.911-1.303-1.825s0.438-1.528,1.303-1.825l28.258-9.71c4.97-1.708,8.8-5.538,10.509-10.509l9.711-28.259
			c0.297-0.864,0.911-1.302,1.825-1.302c0.913,0,1.527,0.438,1.824,1.303l9.711,28.257c1.707,4.971,5.537,8.801,10.509,10.51
			l28.258,9.71c0.864,0.297,1.303,0.911,1.303,1.825s-0.438,1.528-1.303,1.825l-28.258,9.71c-4.972,1.708-8.802,5.539-10.509,10.509
			l-9.711,28.259C183.993,372.789,183.379,373.228,182.466,373.228z M205.739,355.664l2.448-7.124
			c0.195-0.566,0.632-1.002,1.198-1.197l20.041-6.887c12.111,18.806,29.153,34.426,48.915,44.866
			c-3.849,8.681-8.739,16.801-14.516,24.197C240.22,396.791,220.286,378.301,205.739,355.664z"/>
	</g>
</g>
<g>
</g>
<g>
</g>
<g>
</g>
<g>
</g>
<g>
</g>
<g>
</g>
<g>
</g>
<g>
</g>
<g>
</g>
<g>
</g>
<g>
</g>
<g>
</g>
<g>
</g>
<g>
</g>
<g>
</g>
</svg>
