<?xml version="1.0" encoding="iso-8859-1"?>
<!-- Generator: Adobe Illustrator 24.0.0, SVG Export Plug-In . SVG Version: 6.00 Build 0)  -->
<svg version="1.1" id="Capa_1" xmlns="http://www.w3.org/2000/svg" xmlns:xlink="http://www.w3.org/1999/xlink" x="0px" y="0px"
	 viewBox="0 0 511.998 511.998" style="enable-background:new 0 0 511.998 511.998;" xml:space="preserve">
<g>
	<g>
		<path style="fill:#544F57;" d="M429.521,359.895h-10.974v-62.101v-50.251v-83.959c0-65.681-53.245-118.927-118.927-118.927
			h-87.243c-65.681,0-118.927,53.245-118.927,118.927v83.959v50.251v62.101H82.478c-20.669,0-37.425,16.756-37.425,37.425l0,0
			c0,20.669,16.756,37.425,37.425,37.425h117.21h112.624h117.21c20.669,0,37.425-16.756,37.425-37.425l0,0
			C466.947,376.651,450.191,359.895,429.521,359.895z"/>
		<path style="fill:#454045;" d="M181.858,297.796L288.094,434.75H82.482c-10.336,0-19.688-4.189-26.469-10.959
			c-6.77-6.78-10.959-16.132-10.959-26.469c0-20.663,16.755-37.428,37.428-37.428h10.969v-196.31
			c0-65.674,53.249-118.923,118.933-118.923h87.241c0.191,0,0.392,0,0.583,0.01c-65.413,0.301-118.351,53.43-118.351,118.913
			V297.796z"/>
		<path style="fill:#F1D0A5;" d="M376.653,504.498H135.351l5.886-28.669c4.842-23.606,23.234-41.546,46.056-46.378
			c4.008-0.854,8.157-1.296,12.396-1.296h112.625c4.229,0,8.378,0.442,12.385,1.296c22.822,4.832,41.225,22.772,46.067,46.378
			L376.653,504.498z"/>
		<path style="fill:#F1B986;" d="M222.548,428.156c-2.511,0-4.972,0.442-7.353,1.296c-13.561,4.832-24.48,22.772-27.363,46.378
			l-3.496,28.669h-48.99l5.886-28.669c4.842-23.606,23.234-41.546,46.056-46.378c4.008-0.854,8.157-1.296,12.396-1.296H222.548z"/>
		<path style="fill:#F1D0A5;" d="M289.382,372.406v55.75c0,18.433-14.947,33.38-33.38,33.38c-18.443,0-33.39-14.947-33.39-33.38
			v-55.75H289.382z"/>
		<path style="fill:#F1B986;" d="M266.904,459.715c-3.415,1.175-7.082,1.818-10.899,1.818c-18.443,0-33.39-14.947-33.39-33.38
			v-55.75h21.798v55.75C244.413,442.78,253.815,455.205,266.904,459.715z"/>
		<path style="fill:#F1B986;" d="M116.539,325.984L116.539,325.984c-24.069,0-43.581-19.512-43.581-43.581v0
			c0-3.313,0.37-6.539,1.07-9.64c5.654-25.039,42.512-20.932,42.512,4.737h278.92c0-25.669,36.858-29.776,42.512-4.737
			c0.7,3.101,1.07,6.327,1.07,9.64v0c0,24.069-19.512,43.581-43.581,43.581l0,0"/>
		<rect x="222.613" y="372.406" style="fill:#F1B986;" width="66.769" height="51.36"/>
		<path style="fill:#F1D0A5;" d="M395.453,227.848v76.603c0,56.132-45.504,101.646-101.646,101.646h-75.629
			c-56.132,0-101.646-45.504-101.646-101.646v-75.73c17.308-0.502,41.124-3.455,66.779-8.669
			c52.576-10.688,112.926-30.889,141.002-58.964C324.314,161.088,352.088,217.843,395.453,227.848z"/>
		<path style="fill:#F1B986;" d="M284.957,406.097h-66.779c-56.132,0-101.646-45.504-101.646-101.646v-75.73
			c17.308-0.502,41.124-3.455,66.779-8.669v84.398C183.311,360.583,228.815,406.097,284.957,406.097z"/>
		<g>
			<ellipse style="fill:#E29375;" cx="338.149" cy="311.675" rx="22.829" ry="13.881"/>
			<ellipse style="fill:#E29375;" cx="173.85" cy="311.675" rx="22.829" ry="13.881"/>
		</g>
		<g>
			<path style="fill:#DA4A54;" d="M390.452,154.829c-25.542-6.28-48.891-18.317-68.489-34.811
				c-5.049-4.25-9.853-8.791-14.367-13.615c-13.05-13.885-23.807-30.041-31.633-47.932L416.651,7.498L390.452,154.829z"/>
			<path style="fill:#C63D4F;" d="M416.651,7.498l-109.055,98.905c-13.05-13.885-23.807-30.041-31.633-47.932L416.651,7.498z"/>
			<path style="fill:#E7ECF1;" d="M399.583,103.484c-27.083-1.813-49.247-10.686-66.035-20.614
				c-24.755-14.625-37.845-31.55-37.845-31.55l30.22-10.947c0.479,0.351,15.47,11.024,40.639,12.553
				c12.156,0.751,26.707-0.643,43.147-6.369L399.583,103.484z"/>
			<path style="fill:#C6D0DA;" d="M366.562,52.926L333.548,82.87c-24.755-14.625-37.845-31.55-37.845-31.55l30.22-10.947
				C326.402,40.724,341.393,51.398,366.562,52.926z"/>
		</g>
		<path style="fill:#E6E6E6;" d="M210.624,330.145c0,18.222,20.311,32.994,45.367,32.994s45.367-14.772,45.367-32.994
			s-20.311-15.466-45.367-15.466S210.624,311.923,210.624,330.145z"/>
		<rect x="181.846" y="479.546" style="fill:#DA4A54;" width="148.313" height="24.952"/>
	</g>
	<g>
		<path d="M242.419,296.1h27.161c4.142,0,7.5-3.358,7.5-7.5s-3.358-7.5-7.5-7.5h-27.161c-4.142,0-7.5,3.358-7.5,7.5
			S238.277,296.1,242.419,296.1z"/>
		<path d="M461.29,365.56c-8.49-8.49-19.773-13.166-31.772-13.166h-3.469v-29.107c12.433-9.326,20.493-24.181,20.493-40.884
			c0-3.808-0.422-7.607-1.254-11.292c-2.407-10.658-9.717-18.412-19.239-21.351v-86.181c0-22.991-6.219-45.383-17.981-64.969
			l15.972-89.797c0.469-2.638-0.505-5.326-2.555-7.052c-2.051-1.725-4.865-2.226-7.384-1.313L311.282,37.698
			c-3.835-0.352-7.744-0.542-11.658-0.542h-87.251c-69.71,0-126.423,56.713-126.423,126.423v86.182
			c-9.523,2.939-16.831,10.691-19.238,21.35c-0.832,3.685-1.254,7.484-1.254,11.292c0,16.703,8.059,31.557,20.492,40.884v29.104
			h-3.469c-24.773,0-44.928,20.155-44.928,44.928c0,11.992,4.671,23.275,13.16,31.776c8.494,8.481,19.776,13.152,31.768,13.152
			h67.967c-8.147,8.771-14.031,19.747-16.561,32.071L128,502.99c-0.453,2.208,0.11,4.502,1.535,6.249
			c1.424,1.747,3.558,2.76,5.812,2.76h241.306c2.254,0,4.388-1.013,5.812-2.76c1.424-1.746,1.988-4.041,1.535-6.249l-5.887-28.673
			c-2.53-12.322-8.413-23.297-16.557-32.067h52.896c4.142,0,7.5-3.358,7.5-7.5s-3.358-7.5-7.5-7.5h-73.253
			c-8.82-4.232-18.637-6.596-28.885-6.596h-15.428v-7.103c48.833-1.358,89.744-34.949,102.182-80.209
			c4.149-0.291,8.163-1.073,11.983-2.3v28.851c0,4.142,3.358,7.5,7.5,7.5h10.969c7.992,0,15.508,3.115,21.165,8.772
			c5.651,5.651,8.763,13.164,8.763,21.156c0,11.979-7.113,22.774-18.122,27.503c-3.806,1.635-5.566,6.045-3.931,9.851
			c1.22,2.841,3.987,4.542,6.895,4.542c0.988,0,1.992-0.196,2.957-0.611c16.524-7.098,27.202-23.303,27.202-41.285
			C474.445,385.324,469.773,374.044,461.29,365.56z M393.405,95.384c-42.716-4.929-71.826-28.398-84.54-40.856l16.153-5.852
			c6.914,4.026,23.587,11.975,47.477,11.975c8.382,0,17.657-0.988,27.703-3.461L393.405,95.384z M293.372,60.141
			c10.574,11.688,43.918,43.616,97.401,50.041l-6.27,35.252c-21.076-6.316-40.893-16.995-57.718-31.156
			c-16.824-14.16-30.729-31.863-40.551-51.552L293.372,60.141z M403.109,40.825c-25.399,7.846-45.349,4.731-57.9,0.536
			l61.786-22.384L403.109,40.825z M81.344,274.415c2.039-9.031,9.474-11.488,15.231-10.845c5.333,0.595,11.487,4.115,12.353,12.008
			c-6.028-2.667-12.355-2.87-18.282-0.479c-3.841,1.55-5.699,5.92-4.149,9.761c1.55,3.842,5.919,5.699,9.761,4.149
			c5.3-2.14,10.405,2.372,12.775,4.964v10.478c0,4.537,0.283,9.009,0.824,13.402c-16.712-3.144-29.399-17.839-29.399-35.451
			C80.458,279.705,80.756,277.017,81.344,274.415z M61.319,418.487c-5.653-5.661-8.767-13.179-8.767-21.169
			c0-16.502,13.426-29.928,29.928-29.928H93.45c4.142,0,7.5-3.358,7.5-7.5v-28.847c3.816,1.226,7.827,2.008,11.972,2.299
			c12.438,45.263,53.355,78.857,102.194,80.21v7.102h-15.428c-10.245,0-20.059,2.362-28.877,6.592h-88.33
			C74.491,427.245,66.973,424.132,61.319,418.487z M148.581,477.334c3.891-18.952,17.966-33.821,35.759-39.347
			c-10.311,20.363-10.018,40.672-9.995,41.728h0.001v17.284h-29.803L148.581,477.334z M189.346,496.998v-9.952h133.313v9.952
			H189.346z M367.456,496.998h-29.797v-17.406c0.03-1.873,0.081-21.703-9.996-41.605c17.791,5.526,31.865,20.396,35.756,39.346
			L367.456,496.998z M308.666,435.654c9.441,12.721,12.52,27.673,13.516,36.392H189.82c0.996-8.719,4.075-23.671,13.516-36.392
			h19.28c4.142,0,7.5-3.358,7.5-7.5v-14.557h51.769v14.557c0,4.142,3.358,7.5,7.5,7.5H308.666z M387.954,304.451
			c0,51.912-42.234,94.146-94.146,94.146h-75.629c-51.912,0-94.146-42.234-94.146-94.146v-68.559
			c13.319-0.791,28.967-2.719,45.762-5.649c4.081-0.712,6.812-4.597,6.099-8.677c-0.712-4.081-4.597-6.81-8.677-6.099
			c-18.993,3.314-37.07,5.359-50.9,5.758c0,0,0,0,0,0c-0.001,0-0.001,0-0.002,0c-1.541,0.044-3.154,0.067-4.795,0.067
			c-4.142,0-7.5,3.358-7.5,7.5c0,3.269,2.096,6.042,5.014,7.069v16.063c-2.468-1.297-5.176-2.264-8.083-2.841v-85.503
			c0-61.439,49.984-111.423,111.423-111.423h59.553c-1.255,0.803-2.256,1.964-2.854,3.355c-0.818,1.905-0.81,4.064,0.021,5.964
			c10.801,24.695,27.411,46.923,48.033,64.279s45.359,29.927,71.536,36.354c0.59,0.145,1.19,0.216,1.788,0.216
			c1.44,0,2.863-0.415,4.091-1.214c1.738-1.131,2.93-2.931,3.293-4.972l5.791-32.56c4.878,12.681,7.422,26.216,7.422,40v85.504
			c-2.911,0.578-5.623,1.548-8.094,2.847v-16.064c2.557-0.899,4.539-3.151,4.947-6.02c0.582-4.101-2.271-7.897-6.372-8.479
			c-1.502-0.213-2.963-0.488-4.342-0.815c-0.009-0.002-0.018-0.003-0.027-0.005c-0.007-0.002-0.013-0.005-0.02-0.007
			c-39.316-9.071-65.828-62.218-66.089-62.748c-1.064-2.176-3.114-3.703-5.503-4.101c-2.389-0.399-4.823,0.382-6.536,2.095
			c-20.967,20.968-65.677,40.561-122.665,53.757c-4.035,0.934-6.549,4.963-5.615,8.999c0.935,4.035,4.962,6.549,8.999,5.615
			c69.751-16.151,105.29-37.035,122.558-51.169c9.471,16.091,32.671,49.883,65.665,60.559V304.451z M402.954,304.451v-10.475
			c2.347-2.578,7.455-7.119,12.788-4.968c3.841,1.55,8.212-0.308,9.761-4.149s-0.309-8.212-4.15-9.761
			c-5.924-2.39-12.253-2.189-18.281,0.479c0.865-7.892,7.019-11.413,12.352-12.008c5.749-0.643,13.191,1.814,15.23,10.845
			c0.588,2.602,0.886,5.29,0.886,7.988c0,17.616-12.693,32.314-29.411,35.453C402.671,313.462,402.954,308.989,402.954,304.451z"/>
		<path d="M264.669,307.102c-5.615,0.076-11.741,0.076-17.356,0c-16.246-0.22-30.273-0.408-38.321,7.531
			c-3.893,3.841-5.867,9.06-5.867,15.512c0,22.328,23.716,40.494,52.867,40.494s52.867-18.166,52.867-40.494
			c0-6.452-1.974-11.671-5.867-15.512C294.943,306.694,280.917,306.882,264.669,307.102z M255.991,355.639
			c-20.526,0-37.867-11.675-37.867-25.494c0-3.451,1.019-4.456,1.402-4.834c2.834-2.797,11.064-3.277,20.223-3.277
			c2.416,0,4.898,0.033,7.361,0.067c5.746,0.078,12.016,0.078,17.762,0c11.801-0.159,24.001-0.324,27.584,3.21
			c0.383,0.378,1.402,1.383,1.402,4.834C293.857,343.964,276.517,355.639,255.991,355.639z"/>
		<path d="M212.461,273.363c1.208,2.865,3.988,4.588,6.914,4.588c0.971,0,1.959-0.19,2.91-0.591
			c3.817-1.609,5.606-6.008,3.997-9.825c-5.672-13.452-18.766-22.145-33.359-22.145c-14.593,0-27.688,8.692-33.359,22.145
			c-1.609,3.817,0.18,8.215,3.997,9.825c3.817,1.609,8.216-0.18,9.825-3.997c3.323-7.88,10.992-12.972,19.538-12.972
			C201.469,260.391,209.138,265.483,212.461,273.363z"/>
		<path d="M319.062,245.391c-14.593,0-27.688,8.692-33.359,22.145c-1.609,3.817,0.18,8.215,3.997,9.825
			c0.951,0.401,1.938,0.591,2.91,0.591c2.926,0,5.706-1.723,6.914-4.588c3.323-7.88,10.992-12.972,19.538-12.972
			s16.215,5.092,19.537,12.972c1.609,3.817,6.008,5.607,9.825,3.997c3.817-1.609,5.606-6.008,3.998-9.824
			C346.75,254.083,333.655,245.391,319.062,245.391z"/>
	</g>
</g>
<g>
</g>
<g>
</g>
<g>
</g>
<g>
</g>
<g>
</g>
<g>
</g>
<g>
</g>
<g>
</g>
<g>
</g>
<g>
</g>
<g>
</g>
<g>
</g>
<g>
</g>
<g>
</g>
<g>
</g>
</svg>
