<?xml version="1.0" encoding="iso-8859-1"?>
<!-- Generator: Adobe Illustrator 24.0.0, SVG Export Plug-In . SVG Version: 6.00 Build 0)  -->
<svg version="1.1" id="Capa_1" xmlns="http://www.w3.org/2000/svg" xmlns:xlink="http://www.w3.org/1999/xlink" x="0px" y="0px"
	 viewBox="0 0 511.983 511.983" style="enable-background:new 0 0 511.983 511.983;" xml:space="preserve">
<g>
	<g>
		<path style="fill:#9BD069;" d="M312.787,484.493c0,0-23.38,19.99-60.91,19.99c-10.42,0-19.75-1.54-27.79-3.77
			c-20.92-5.79-33.12-16.22-33.12-16.22l25.12-62.56l35.79-15.965l35.79,15.965L312.787,484.493z"/>
		<g>
			<circle style="fill:#DA4A54;" cx="128.399" cy="127.207" r="85.164"/>
			<path style="fill:#C63D4F;" d="M198.857,175.077c-6.777,9.978-15.785,18.675-26.821,25.265
				c-40.393,24.108-92.67,10.891-116.77-29.492C31.159,130.456,44.358,78.177,84.751,54.07c2.316-1.384,4.678-2.653,7.076-3.78
				c-18.008,26.536-20.19,62.166-2.663,91.515C111.879,179.871,159.639,193.784,198.857,175.077z"/>
			<path style="fill:#F4DD45;" d="M149.783,79.238c3.033,44.299-42.427,67.133-42.427,67.133l-0.033,0.02
				c-15.702-0.905-28.943-4.629-39.233-8.824C68.089,137.567,82.076,83.688,149.783,79.238z"/>
		</g>
		<g>
			<circle style="fill:#DA4A54;" cx="383.596" cy="127.207" r="85.164"/>
			<path style="fill:#C63D4F;" d="M360.556,209.213c-11.613-3.261-22.718-9.044-32.469-17.418
				c-35.679-30.656-39.732-84.426-9.083-120.093c30.656-35.679,84.421-39.75,120.1-9.094c2.047,1.757,4,3.595,5.83,5.511
				c-30.878-8.658-65.36,0.578-87.631,26.512C328.411,128.251,330.371,177.957,360.556,209.213z"/>
			<path style="fill:#F4DD45;" d="M435.871,132.266c-41.048,16.932-77.126-18.934-77.126-18.934l-0.029-0.025
				c-4.125-15.178-4.794-28.917-4.081-40.006C354.635,73.301,410.168,69.469,435.871,132.266z"/>
		</g>
		<g>
			<circle style="fill:#DA4A54;" cx="251.877" cy="92.669" r="85.164"/>
			<path style="fill:#C63D4F;" d="M274.232,174.864c-11.639,3.167-24.137,3.91-36.806,1.733
				c-46.359-7.976-77.456-52.028-69.48-98.374c7.976-46.359,52.015-77.469,98.374-69.493c2.659,0.456,5.278,1.03,7.833,1.733
				c-30.941,8.432-55.782,34.069-61.569,67.759C205.065,121.911,232.279,163.551,274.232,174.864z"/>
			<path style="fill:#F4DD45;" d="M299.327,70.157c-26.522,35.612-75.899,23.371-75.899,23.371l-0.038-0.007
				c-11.335-10.904-18.966-22.348-24.05-32.229C199.339,61.293,245.018,29.481,299.327,70.157z"/>
		</g>
		<path style="fill:#9BD069;" d="M453.087,195.803c0,0-17.29,134.35-171.59,194.2h-59.24c-154.3-59.85-171.59-194.2-171.59-194.2
			s50.09-17.02,116.51-26.69c26.36-3.84,55.3-6.52,84.7-6.52C355.347,162.593,453.087,195.803,453.087,195.803z"/>
		<path style="fill:#80BC93;" d="M222.257,390.003c-154.3-59.85-171.59-194.2-171.59-194.2s50.09-17.02,116.51-26.69h0.03
			c-7.41,67.8,26.58,163.83,70.99,220.89H222.257z"/>
		<path style="fill:#80BC93;" d="M247.197,421.933l-23.11,78.78c-20.92-5.79-33.12-16.22-33.12-16.22l25.12-62.56H247.197z"/>
		<path style="fill:#DA4A54;" d="M216.086,421.93h71.583c8.816,0,15.962-7.146,15.962-15.962v0c0-8.816-7.146-15.962-15.962-15.962
			h-71.583c-8.816,0-15.962,7.146-15.962,15.962v0C200.124,414.784,207.27,421.93,216.086,421.93z"/>
	</g>
	<path d="M443.989,56.925c-31.25-26.852-76.253-29.607-110.301-7.802c-1.819-3.401-3.86-6.712-6.121-9.914
		c-14.28-20.218-35.577-33.663-59.968-37.857c-38.922-6.7-76.447,12.048-95.485,44.161c-12.617-6.747-26.656-10.514-41.059-10.94
		c-17.604-0.525-34.945,3.994-50.141,13.06c-43.877,26.18-58.271,83.181-32.09,127.061c2.373,3.979,5.033,7.756,7.949,11.314
		c-5.359,1.63-8.358,2.636-8.526,2.693c-3.379,1.148-5.481,4.519-5.025,8.059c0.108,0.844,2.798,20.989,14.81,49.221
		c11.026,25.917,32.395,63.919,71.574,97.786c3.134,2.708,7.869,2.365,10.578-0.77c2.709-3.134,2.364-7.87-0.77-10.579
		c-36.81-31.818-56.945-67.474-67.355-91.783c-7.543-17.615-11.22-31.996-12.842-39.692c22.89-7.073,106.28-30.852,192.663-30.852
		c30.614,0,60.848,2.988,88.149,7.159c-0.974,12.831-4.193,42.205-14.481,75.888c-12.454,40.775-38.1,96.079-89.586,129.366h-12.249
		c-22.232-8.729-42.824-19.565-61.204-32.246c-3.408-2.352-8.079-1.495-10.432,1.914s-1.496,8.08,1.914,10.433
		c14.227,9.816,29.704,18.562,46.168,26.153c-4.63,4.288-7.536,10.414-7.536,17.208c0,9.299,5.438,17.351,13.3,21.145
		l-21.912,54.588c-1.199,2.986-0.359,6.404,2.087,8.495c1.04,0.89,25.943,21.787,65.779,21.787s64.738-20.897,65.779-21.787
		c2.445-2.091,3.285-5.509,2.086-8.495l-21.912-54.588c7.862-3.794,13.3-11.846,13.3-21.145c0-6.787-2.9-12.907-7.522-17.195
		c28.106-12.96,53.208-29.318,74.819-48.791c21.22-19.12,39.13-41.253,53.232-65.785c24.079-41.884,28.685-76.005,28.869-77.437
		c0.456-3.54-1.646-6.911-5.025-8.059c-0.078-0.026-0.767-0.258-2.016-0.661c0.132-0.152,0.27-0.298,0.401-0.45
		c1.841-2.151,3.613-4.411,5.268-6.717c2.414-3.366,1.643-8.052-1.724-10.466c-3.367-2.414-8.051-1.642-10.466,1.724
		c-1.404,1.959-2.909,3.877-4.464,5.693c-1.604,1.867-3.311,3.657-5.084,5.367c-8.338-2.384-19.267-5.33-32.185-8.412
		c-13.282-12.868-23.549-26.571-30.75-41.01c10.245,5.567,23.589,10.536,38.625,10.536c0.882,0,1.773-0.017,2.667-0.052
		c16.305-0.641,31.522-7.13,45.412-19.272c0.238,7.475-0.592,15.034-2.579,22.437c-1.074,4,1.298,8.114,5.298,9.188
		c0.652,0.175,1.306,0.258,1.95,0.258c3.31,0,6.34-2.208,7.238-5.557C482.288,117.069,470.863,80.022,443.989,56.925z
		 M321.609,126.776c-29.361-2.962-54.183-10.93-74.221-23.794c12.342-0.51,27.333-3.381,40.856-12.216
		c13.672-8.933,23.401-22.332,29.079-39.909c10.468,16.347,14.409,35.729,11.093,54.984
		C327.153,113.173,324.827,120.207,321.609,126.776z M227.059,86.624c-3.077-3.083-5.992-6.329-8.727-9.751
		c-3.454-4.322-6.362-8.612-8.816-12.723c12.393-5.979,42.772-15.82,78.692,7.394c-2.473,2.474-5.158,4.688-8.079,6.606
		C259.845,91.462,234.077,87.925,227.059,86.624z M265.055,16.135c15.485,2.663,29.476,9.781,40.556,20.439
		c-1.827,8.751-4.619,16.419-8.344,22.983c-27.6-18.15-52.743-19.134-69.469-16.5c-10.766,1.696-19.387,5.037-25.082,7.778
		c-2.55-5.95-4.029-10.85-4.821-13.94C215.109,20.279,239.725,11.772,265.055,16.135z M166.304,128.327
		c-11.643,4.788-23.177,7.988-34.559,9.596c9.027-8.416,18.519-20.34,23.031-35.823c4.575-15.7,3.236-32.228-3.914-49.292
		c5.03,1.535,9.946,3.602,14.677,6.188c-2.221,5.698-3.906,11.699-4.984,17.955C157.497,94.718,159.695,112.456,166.304,128.327z
		 M105.582,138.788c-7.727-0.6-15.364-1.964-22.895-4.108c-1.732-0.493-3.399-1.017-5.014-1.559
		c5.518-12.601,22.18-39.85,64.569-45.595c-0.269,3.488-0.866,6.916-1.837,10.273C133.651,121.154,111.704,135.245,105.582,138.788z
		 M88.6,60.514c13.655-8.146,28.956-11.782,44.058-10.947c4.331,7.862,7.217,15.528,8.664,22.962
		c-32.768,4.176-52.502,19.789-63.488,32.672c-7.075,8.296-11.448,16.447-13.988,22.234c-5.808-2.861-10.118-5.628-12.731-7.462
		C53.374,96.158,66.53,73.683,88.6,60.514z M61.708,167.011c-5.496-9.212-8.858-19.113-10.234-29.125
		c6.542,3.67,15.412,7.817,26.331,10.999c9.822,2.862,22.206,5.159,36.659,5.159c16.986,0,36.836-3.193,58.727-12.347
		c3.904,6.26,8.581,12.071,13.954,17.301c-47.616,5.468-89.403,15.512-114.395,22.396C68.539,177.062,64.829,172.246,61.708,167.011
		z M208.243,156.924c-25.22-17.11-38.104-47.227-32.905-77.428c1.819-10.566,5.707-20.268,11.174-28.764
		c3.409,9.308,9.366,21.889,19.552,34.813c16.869,21.403,48.841,47.611,106.685,55.29c-4.875,6.164-10.689,11.601-17.293,16.083
		c-14.258-1.153-28.872-1.826-43.575-1.826C237.156,155.093,222.521,155.768,208.243,156.924z M287.668,397.506
		c4.666,0,8.462,3.796,8.462,8.462s-3.796,8.462-8.462,8.462h-71.583c-4.666,0-8.462-3.796-8.462-8.462s3.796-8.462,8.462-8.462
		H287.668z M251.877,496.983c-25.317,0-43.836-9.948-51.764-15.13l21.042-52.423h61.441l21.042,52.421
		C295.699,487.042,277.184,496.983,251.877,496.983z M418.31,267.321c-13.336,23.051-30.248,43.852-50.265,61.824
		c-24.729,22.203-54.333,40.146-87.994,53.361h-18.675c35.295-28.917,62.224-71.64,78.518-124.985
		c10.438-34.174,13.886-63.673,15.007-77.839c42.798,7.452,76.446,17.185,89.683,21.277
		C441.696,214.898,433.862,240.441,418.31,267.321z M316.572,158.991c13.863-13.539,23.292-31.236,26.627-50.606
		c2.652-15.404,1.411-30.877-3.457-45.281c3.005-2.061,6.117-3.89,9.318-5.479c-1.526,8-2.713,18.784-1.926,31.425
		c1.292,20.749,8.336,50.077,32.618,80.089C360.829,165.272,339.37,161.608,316.572,158.991z M415.292,129.262
		c-24.254,0.999-44.615-15.346-49.92-20.022c-1.667-6.668-2.743-13.467-3.219-20.389c-0.186-2.708-0.263-5.316-0.262-7.823
		c13.665,1.331,44.918,8.649,63.722,46.718C422.222,128.596,418.782,129.117,415.292,129.262z M439.549,122.112
		c-14.358-29.75-35.426-43.509-51.128-49.841c-10.112-4.077-19.229-5.637-25.524-6.21c0.875-6.46,2.139-11.445,3.048-14.495
		c23.497-5.449,49.001,0.179,68.268,16.735c11.915,10.24,20.203,23.752,24.23,38.457
		C452.402,113.291,446.091,118.408,439.549,122.112z"/>
</g>
<g>
</g>
<g>
</g>
<g>
</g>
<g>
</g>
<g>
</g>
<g>
</g>
<g>
</g>
<g>
</g>
<g>
</g>
<g>
</g>
<g>
</g>
<g>
</g>
<g>
</g>
<g>
</g>
<g>
</g>
</svg>
