<?xml version="1.0" encoding="iso-8859-1"?>
<!-- Generator: Adobe Illustrator 24.0.0, SVG Export Plug-In . SVG Version: 6.00 Build 0)  -->
<svg version="1.1" id="Capa_1" xmlns="http://www.w3.org/2000/svg" xmlns:xlink="http://www.w3.org/1999/xlink" x="0px" y="0px"
	 viewBox="0 0 512 512" style="enable-background:new 0 0 512 512;" xml:space="preserve">
<g>
	<g>
		<path style="fill:#F4DD45;" d="M269.986,86.582c-13.967-45.89-3.99-72.826,12.969-72.826s19.453,39.406,38.907,58.859
			s51.876-62.849,84.298-45.391s-32.422,67.339-19.453,93.277s72.826-12.969,80.806,12.969
			c7.981,25.938-50.878,33.919-50.878,33.919c-31.924,6.995-39.904,46.9-39.904,46.9l-93.775-18.955"/>
		<path style="fill:#544F57;" d="M418.588,473.664c0,0-44.849,24.58-162.588,24.58c-32.23,0-59.009-1.84-80.889-4.52
			c-58.049-7.1-81.699-20.06-81.699-20.06c16.65-55.969,18.28-115.648,15.04-164.298c-3.92-59.189-15.04-102.059-15.04-102.059
			h325.176c0,0-11.12,42.869-15.04,102.059C400.308,358.016,401.938,417.695,418.588,473.664z"/>
		<path style="fill:#454045;" d="M175.111,493.724c-58.049-7.1-81.699-20.06-81.699-20.06c16.65-55.969,18.28-115.648,15.04-164.298
			c-3.92-59.189-15.04-102.059-15.04-102.059h57.189c1.84,1.86,3.4,3.85,4.66,5.98C183.001,260.437,197.021,405.265,175.111,493.724
			z"/>
		<path style="fill:#90D8F9;" d="M418.588,207.308c0,0,0,0.01-0.01,0.02c-0.2,0.8-6.37,24.88-11.07,61.479
			c-1.58,12.25-2.99,25.9-3.96,40.56c-73.929-12.68-149.298-15.75-223.927-9.2c-23.82,2.08-47.569,5.15-71.169,9.2
			c-3.92-59.189-15.04-102.059-15.04-102.059H418.588z"/>
		<path style="fill:#6BBEF6;" d="M418.578,207.328c-0.2,0.8-6.37,24.88-11.07,61.479c-5.56-0.73-164.288-21.26-247.257,15.98
			c-67.629,30.35-15.46-45.87,8.03-77.479h249.897L418.578,207.328z"/>
		<path style="fill:#6BBEF6;" d="M179.621,300.166c-23.82,2.08-47.569,5.15-71.169,9.2c-3.92-59.189-15.04-102.059-15.04-102.059
			h57.189c1.84,1.86,3.4,3.85,4.66,5.98C165.731,231.087,174.251,262.807,179.621,300.166z"/>
		<path style="fill:#544F57;" d="M503.687,234.347c-2.99,11.61-13.44,19.33-24.9,19.33c-2.12,0-4.27-0.26-6.42-0.82
			c-108.719-27.91-222.217-34.389-333.156-19.41c-33.5,4.51-66.759,10.98-99.579,19.41c-13.76,3.54-27.78-4.75-31.32-18.51
			c-3.53-13.77,4.76-27.79,18.52-31.32c36.459-9.36,73.429-16.44,110.659-21.24c115.849-14.97,234.207-7.89,347.676,21.24
			C498.927,206.558,507.217,220.577,503.687,234.347z"/>
		<path style="fill:#454045;" d="M139.212,233.447c-33.5,4.51-66.759,10.98-99.579,19.41c-13.76,3.54-27.78-4.75-31.32-18.51
			c-3.53-13.77,4.76-27.79,18.52-31.32c36.459-9.36,73.429-16.44,110.659-21.24C104.992,186.748,106.002,226.697,139.212,233.447z"
			/>
		<g>
			<path style="fill:#9D6B6B;" d="M280.303,149.681L24.33,51.827c-4.71-1.801-7.069-7.079-5.268-11.789l4.166-10.898
				c1.801-4.71,7.079-7.069,11.789-5.268l255.973,97.854c4.71,1.801,7.069,7.079,5.268,11.789l-4.166,10.898
				C290.291,149.123,285.013,151.482,280.303,149.681z"/>
			<path style="fill:#785252;" d="M296.254,133.522l-4.163,10.891c-1.803,4.717-7.071,7.071-11.788,5.268L24.332,51.828
				c-4.708-1.8-7.071-7.071-5.268-11.788l4.163-10.891c0.111-0.289,0.236-0.563,0.372-0.832c-1.213,4.461,1.148,9.207,5.557,10.892
				l255.97,97.853c4.418,1.689,9.333-0.275,11.406-4.408C296.453,132.945,296.365,133.233,296.254,133.522z"/>
		</g>
	</g>
	<g>
		<path d="M507.359,211.032c-4.517-7.639-11.74-13.061-20.335-15.268c-151.134-38.805-310.908-38.805-462.048,0
			c-8.596,2.207-15.818,7.63-20.336,15.268c-4.517,7.639-5.79,16.58-3.583,25.175c2.207,8.596,7.629,15.819,15.268,20.337
			c5.19,3.07,10.979,4.641,16.854,4.641c2.773,0,5.566-0.351,8.323-1.059c17.372-4.46,34.867-8.365,52.454-11.721
			c5.934,36.502,11.32,89.184,6.526,145.119c-0.354,4.127,2.705,7.76,6.832,8.113c0.218,0.019,0.435,0.028,0.649,0.028
			c3.852,0,7.129-2.951,7.464-6.86c2.372-27.678,2.317-54.548,0.947-79.153c92.688-15.168,186.568-15.168,279.265,0.002
			c-2.581,46.279-0.581,101.338,13.942,153.823c-14.955,6.024-61.868,21.264-153.582,21.264c-91.741,0-138.657-15.25-153.584-21.263
			c3.883-14.05,7.046-28.949,9.421-44.384c0.63-4.094-2.178-7.923-6.272-8.553c-4.095-0.633-7.923,2.178-8.553,6.272
			c-2.631,17.101-6.26,33.489-10.786,48.711c-1.007,3.387,0.486,7.016,3.584,8.715c1.9,1.041,47.893,25.502,166.189,25.502
			S420.29,481.281,422.19,480.24c3.099-1.698,4.592-5.329,3.584-8.715c-24.384-81.975-15.994-172.226-7.729-223.119
			c17.587,3.356,35.082,7.26,52.453,11.72c2.713,0.697,5.499,1.05,8.282,1.05c15.163,0,28.389-10.267,32.163-24.968
			C513.15,227.612,511.877,218.671,507.359,211.032z M396.654,300.619c-93.378-15.127-187.925-15.128-281.294-0.002
			c-1.631-20.584-4.087-39.212-6.643-54.892c97.337-16.819,197.23-16.819,294.566,0
			C400.805,260.956,398.314,279.659,396.654,300.619z M496.414,232.478c-2.07,8.065-9.322,13.698-17.634,13.698
			c-1.524,0-3.055-0.195-4.551-0.579c-142.766-36.657-293.69-36.657-436.459,0c-4.712,1.211-9.618,0.514-13.809-1.964
			c-4.19-2.478-7.164-6.44-8.375-11.156c-1.21-4.715-0.513-9.62,1.965-13.81c2.478-4.19,6.44-7.165,11.155-8.376
			c74.35-19.089,150.823-28.633,227.295-28.633c76.473,0,152.946,9.545,227.292,28.634c4.715,1.211,8.677,4.185,11.155,8.375
			C496.927,222.858,497.625,227.762,496.414,232.478z"/>
		<path d="M21.657,58.836l255.968,97.852l0,0c1.947,0.744,3.949,1.097,5.919,1.097c6.697,0,13.023-4.075,15.553-10.693l4.166-10.898
			c3.275-8.565-1.029-18.197-9.595-21.472L37.7,16.871c-8.564-3.275-18.197,1.029-21.472,9.596l-4.166,10.898
			c-1.586,4.149-1.462,8.668,0.351,12.723S17.508,57.25,21.657,58.836z M26.073,42.72l4.165-10.898
			c0.321-0.84,1.266-1.261,2.105-0.941l255.968,97.852c0.521,0.199,0.781,0.577,0.906,0.858c0.126,0.282,0.234,0.726,0.035,1.248
			l-4.166,10.898c-0.321,0.839-1.263,1.263-2.105,0.941L27.013,44.825c-0.521-0.199-0.78-0.576-0.906-0.857
			C25.981,43.687,25.873,43.242,26.073,42.72z"/>
		<path d="M393.415,117.151c-2.285-4.57-0.486-12.064,5.659-23.586c1.949-3.655,0.567-8.198-3.088-10.147
			c-3.655-1.949-8.198-0.567-10.147,3.088c-5.891,11.046-11.88,25.273-5.84,37.353c9.06,18.121,32.189,13.854,50.774,10.426
			c8.401-1.55,16.339-3.018,22.264-2.637c6.188,0.393,6.863,2.584,7.309,4.032c0.748,2.43,0.501,4.351-0.822,6.423
			c-6.044,9.465-30.134,15.978-43.896,17.859c-4.104,0.557-6.98,4.335-6.424,8.44c0.51,3.763,3.728,6.493,7.423,6.493
			c0.335,0,0.675-0.022,1.017-0.069c4.344-0.589,42.781-6.285,54.515-24.639c3.685-5.765,4.558-12.306,2.522-18.92
			c-5.927-19.242-28.497-15.079-46.63-11.733C410.123,122.841,397.143,124.606,393.415,117.151z"/>
		<path d="M269.988,94.087c0.723,0,1.459-0.105,2.186-0.327c3.963-1.206,6.197-5.396,4.991-9.359
			c-9.641-31.672-6.832-51.385-0.989-59.272c1.93-2.605,4.149-3.872,6.784-3.872c4.314,0,9.211,11.782,13.146,21.249
			c4.988,12.002,10.642,25.605,20.45,35.413c3.505,3.506,7.789,5.306,12.375,5.19c11.122-0.267,21.224-11.389,32.922-24.268
			c16.227-17.865,29.529-31.053,40.746-25.011c3.615,1.947,4.534,3.865,4.91,5.138c1.63,5.509-2.986,14.917-6.6,21.514
			c-1.99,3.633-0.659,8.191,2.974,10.181c3.634,1.991,8.191,0.659,10.181-2.974c5.647-10.307,10.993-22.286,7.828-32.978
			c-1.758-5.941-5.855-10.68-12.18-14.087c-22.434-12.085-42.688,10.215-58.963,28.131c-7.377,8.122-17.48,19.245-22.179,19.358
			c-0.205,0.009-0.592,0.015-1.409-0.801c-7.705-7.705-12.752-19.849-17.206-30.563c-6.517-15.681-12.673-30.492-26.997-30.492
			c-7.396,0-14.086,3.531-18.836,9.942c-10.54,14.227-11.017,40.677-1.309,72.57C263.8,92.004,266.773,94.087,269.988,94.087z"/>
	</g>
</g>
<g>
</g>
<g>
</g>
<g>
</g>
<g>
</g>
<g>
</g>
<g>
</g>
<g>
</g>
<g>
</g>
<g>
</g>
<g>
</g>
<g>
</g>
<g>
</g>
<g>
</g>
<g>
</g>
<g>
</g>
</svg>
