<?xml version="1.0" encoding="iso-8859-1"?>
<!-- Generator: Adobe Illustrator 24.0.0, SVG Export Plug-In . SVG Version: 6.00 Build 0)  -->
<svg version="1.1" id="Capa_1" xmlns="http://www.w3.org/2000/svg" xmlns:xlink="http://www.w3.org/1999/xlink" x="0px" y="0px"
	 viewBox="0 0 511.991 511.991" style="enable-background:new 0 0 511.991 511.991;" xml:space="preserve">
<g>
	<g>
		<rect x="442.345" y="244.489" style="fill:#90D8F9;" width="31.897" height="259.794"/>
		<rect x="442.345" y="244.489" style="fill:#6BBEF6;" width="15.948" height="259.794"/>
		<path style="fill:#DA4A54;" d="M503.285,147.646c-30.294-30.284-195.742-33.881-247.298,35.35
			c-27.796-37.318-88.694-53.484-143.667-55.702c-47-1.899-89.673,6.394-103.621,20.352c0,0-25.438,213.877,157.605,214.926
			c14.787,0.09,28.396-8.203,35.04-21.412c10.061-19.983,30.754-33.691,54.643-33.691c23.89,0,44.582,13.718,54.643,33.701
			c6.644,13.209,20.253,21.492,35.04,21.402C528.713,361.533,503.285,147.646,503.285,147.646z M124.31,275.556
			c-24.859-11.31-40.815-34.161-44.482-59.319c21.372-13.758,49.078-16.725,73.947-5.415c24.859,11.32,40.825,34.171,44.482,59.329
			C176.875,283.909,149.169,286.867,124.31,275.556z M387.664,275.556c-24.859,11.31-52.565,8.353-73.947-5.405
			c3.667-25.158,19.623-48.009,44.482-59.329c24.879-11.31,52.585-8.343,73.957,5.415
			C428.489,241.396,412.533,264.246,387.664,275.556z"/>
		<path style="fill:#C63D4F;" d="M166.304,362.572C-16.739,361.523,8.699,147.646,8.699,147.646
			c13.948-13.958,56.621-22.251,103.621-20.352l0.02,0.01C64.961,128.932,27.143,277.465,166.304,362.572z"/>
		<g>
			<g>
				<path style="fill:#F4DD45;" d="M289.153,237.932c-6.275-2.857-9.052-10.261-6.205-16.536l0,0
					c2.857-6.285,10.261-9.063,16.536-6.205l0,0c6.285,2.848,9.062,10.251,6.215,16.526l0,0c-2.098,4.606-6.634,7.334-11.391,7.334
					l0,0C292.59,239.051,290.832,238.691,289.153,237.932z M313.632,197.197c-4.257-5.426-3.307-13.279,2.128-17.535l0,0
					c5.426-4.257,13.279-3.297,17.535,2.128l0,0c4.246,5.435,3.297,13.288-2.138,17.535l0,0c-2.288,1.799-4.996,2.658-7.694,2.658
					l0,0C319.757,201.983,316.09,200.344,313.632,197.197z M409.91,184.308v-0.01c-6.614-1.958-10.381-8.912-8.413-15.527l0,0
					c1.958-6.614,8.912-10.381,15.527-8.413l0,0c6.614,1.969,10.381,8.923,8.413,15.537l0,0c-1.608,5.425-6.584,8.932-11.97,8.932
					l0,0C412.287,184.827,411.089,184.658,409.91,184.308z M354.107,172.298c-1.299-6.774,3.147-13.319,9.922-14.608l0,0
					c6.774-1.299,13.319,3.147,14.617,9.922l0,0c1.289,6.774-3.157,13.319-9.922,14.607l0,0c-0.799,0.15-1.589,0.23-2.358,0.23l0,0
					C360.482,182.449,355.247,178.283,354.107,172.298z"/>
			</g>
			<g>
				<path style="fill:#F4DD45;" d="M217.669,239.051L217.669,239.051c-4.756,0-9.292-2.728-11.391-7.334l0,0
					c-2.847-6.274-0.07-13.678,6.215-16.526l0,0c6.274-2.857,13.678-0.08,16.536,6.205l0,0c2.848,6.274,0.07,13.678-6.205,16.536
					C221.146,238.691,219.387,239.051,217.669,239.051z M188.514,201.983L188.514,201.983c-2.698,0-5.406-0.859-7.694-2.658l0,0
					c-5.435-4.246-6.384-12.099-2.138-17.535l0,0c4.256-5.426,12.109-6.385,17.535-2.128l0,0c5.435,4.256,6.385,12.109,2.128,17.535
					C195.887,200.344,192.221,201.983,188.514,201.983z M98.511,184.827L98.511,184.827c-5.386,0-10.361-3.507-11.97-8.932l0,0
					c-1.969-6.614,1.798-13.568,8.413-15.537l0,0c6.614-1.968,13.568,1.799,15.527,8.413l0,0c1.969,6.614-1.798,13.568-8.413,15.527
					v0.01C100.889,184.658,99.69,184.827,98.511,184.827z M145.611,182.449L145.611,182.449c-0.769,0-1.559-0.08-2.358-0.23l0,0
					c-6.764-1.288-11.211-7.833-9.922-14.607l0,0c1.299-6.774,7.843-11.22,14.617-9.922l0,0c6.774,1.289,11.22,7.833,9.922,14.608
					C156.731,178.283,151.496,182.449,145.611,182.449z"/>
			</g>
		</g>
		
			<ellipse transform="matrix(0.7879 -0.6158 0.6158 0.7879 -27.3176 148.571)" style="fill:#6BBEF6;" cx="202.017" cy="113.942" rx="30.982" ry="87.644"/>
		
			<ellipse transform="matrix(0.6158 -0.7879 0.7879 0.6158 29.3405 287.9777)" style="fill:#6BBEF6;" cx="309.96" cy="113.903" rx="87.644" ry="30.982"/>
		<ellipse style="fill:#90D8F9;" cx="255.989" cy="95.352" rx="30.982" ry="87.644"/>
	</g>
	<g>
		<path d="M510.727,146.768c-0.199-1.672-0.954-3.227-2.144-4.418c-22.304-22.304-96.92-29.177-159.91-16.519
			c17-26.167,25.211-55.293,22.724-81.682c-0.193-2.053-1.224-3.936-2.849-5.205c-1.625-1.27-3.701-1.816-5.739-1.506
			c-24.443,3.696-49.094,17.103-69.605,37.491c-3.596-28.682-14.733-54.348-31.765-72.363c-1.416-1.498-3.388-2.347-5.449-2.347
			c-2.062,0-4.033,0.849-5.449,2.347c-17.041,18.023-28.181,43.703-31.771,72.401c-20.51-20.387-45.156-33.793-69.593-37.489
			c-2.039-0.31-4.115,0.236-5.74,1.506c-1.625,1.27-2.655,3.153-2.849,5.206c-2.486,26.374,5.714,55.484,22.692,81.643
			c-26.786-5.382-56.552-7.443-84.457-5.666c-4.134,0.264-7.271,3.828-7.008,7.962c0.263,4.134,3.827,7.266,7.962,7.008
			c32.803-2.092,68.243,1.359,97.668,9.451c21.896,25.089,49.703,41.64,77.421,45.828l0.001-0.009
			c0.371,0.056,0.743,0.094,1.114,0.094c0.656,0,1.304-0.095,1.931-0.263c27.44-4.38,54.9-20.821,76.564-45.628
			c29.979-8.257,66.034-11.676,99.353-9.361c33.904,2.354,53.945,9.559,62.271,16.064c0.645,7.488,2.012,29.357-0.987,56.073
			c-6.135,54.643-25.536,86.623-40.729,103.828c-25.466,28.837-62.057,43.594-108.759,43.859c-0.063,0-0.125,0-0.188,0
			c-11.802,0-22.819-6.764-28.107-17.275c-11.748-23.332-35.252-37.826-61.339-37.826c-26.091,0-49.595,14.491-61.341,37.819
			c-5.317,10.57-16.42,17.401-28.296,17.282c-46.673-0.268-83.249-15.009-108.712-43.815c-27.473-31.08-37.31-73.436-40.724-103.495
			c-3.045-26.813-1.669-48.927-1.024-56.458c6.524-5.115,19.063-9.669,35.067-12.674c4.071-0.765,6.751-4.684,5.987-8.755
			c-0.765-4.071-4.685-6.755-8.755-5.987c-14.792,2.778-34.569,8.237-44.786,18.467c-1.188,1.19-1.942,2.744-2.141,4.414
			c-0.132,1.11-3.189,27.593,0.705,62.286c5.2,46.328,20.548,85.084,44.385,112.08c28.414,32.178,68.759,48.643,119.911,48.937
			c0.093,0,0.183,0,0.276,0c17.419-0.001,33.691-10.002,41.506-25.538c9.181-18.235,27.552-29.563,47.942-29.563
			c20.387,0,38.758,11.332,47.941,29.57c7.814,15.534,24.084,25.532,41.505,25.531c0.092,0,0.185,0,0.276,0
			c34.846-0.198,64.671-7.907,89.131-22.969v88.114c0,4.142,3.358,7.5,7.5,7.5s7.5-3.358,7.5-7.5v-98.831
			c5.61-4.615,10.878-9.689,15.783-15.243c0.374-0.423,0.739-0.858,1.109-1.287v176.92h-16.892v-31.585c0-4.142-3.358-7.5-7.5-7.5
			s-7.5,3.358-7.5,7.5v39.085c0,4.142,3.358,7.5,7.5,7.5h31.891c4.142,0,7.5-3.358,7.5-7.5V299.005
			c14.704-24.504,24.369-55.08,28.284-89.948C513.915,174.362,510.859,147.878,510.727,146.768z M255.989,19.266
			c14.812,19.244,23.481,47.006,23.481,76.092s-8.668,56.848-23.481,76.092c-14.813-19.244-23.481-47.006-23.481-76.092
			S241.176,38.51,255.989,19.266z M183.517,128.405c-17.912-22.922-28.176-50.141-28.352-74.429
			c22.378,5.673,44.624,20.527,62.348,41.795c0.068,27.616,6.929,53.545,19.272,74.114C217.338,162,198.364,147.398,183.517,128.405
			z M275.227,169.83c12.329-20.571,19.178-46.496,19.238-74.104c17.725-21.267,39.972-36.119,62.354-41.79
			c-0.175,24.291-10.443,51.507-28.362,74.43C313.627,147.346,294.667,161.942,275.227,169.83z"/>
		<path d="M287.299,207.845c-4.998,1.875-8.968,5.586-11.181,10.453c-4.55,10.025-0.098,21.896,9.925,26.46
			c0.006,0.002,0.011,0.005,0.017,0.007c2.619,1.185,5.393,1.786,8.246,1.786c7.82,0,14.97-4.602,18.22-11.734
			c2.205-4.86,2.386-10.288,0.508-15.285c-1.879-4.999-5.593-8.966-10.444-11.165C297.731,206.155,292.3,205.969,287.299,207.845z
			 M298.872,228.609c-0.814,1.788-2.606,2.943-4.565,2.943c-0.704,0-1.396-0.151-2.058-0.45c-2.498-1.144-3.607-4.105-2.475-6.601
			c0.553-1.216,1.545-2.144,2.793-2.613c1.246-0.467,2.597-0.421,3.819,0.135c1.212,0.549,2.138,1.538,2.606,2.785
			C299.462,226.054,299.417,227.408,298.872,228.609z"/>
		<path d="M407.317,191.35c0.148,0.055,0.299,0.105,0.452,0.15c1.855,0.551,3.77,0.83,5.691,0.83
			c8.785,0,16.663-5.881,19.157-14.292c1.523-5.119,0.962-10.525-1.581-15.221c-2.542-4.695-6.761-8.12-11.88-9.643
			c-5.122-1.525-10.53-0.962-15.226,1.585c-4.694,2.545-8.114,6.766-9.627,11.876c-1.524,5.123-0.961,10.53,1.585,15.227
			C398.357,186.415,402.403,189.77,407.317,191.35z M408.682,170.904c0.377-1.274,1.228-2.325,2.397-2.959
			c1.172-0.635,2.521-0.773,3.799-0.395c1.28,0.381,2.334,1.236,2.969,2.409c0.635,1.172,0.774,2.521,0.392,3.807
			c-0.735,2.476-3.392,4.053-5.965,3.419c-0.08-0.027-0.161-0.052-0.242-0.076c-1.274-0.377-2.325-1.228-2.959-2.397
			C408.439,173.541,408.299,172.192,408.682,170.904z"/>
		<path d="M325.869,169.653c-5.304-0.644-10.539,0.815-14.735,4.107c-4.206,3.294-6.877,8.028-7.52,13.331
			c-0.643,5.302,0.819,10.536,4.115,14.737c3.806,4.866,9.539,7.656,15.732,7.656c4.519,0,8.782-1.474,12.31-4.247
			c4.209-3.288,6.882-8.021,7.527-13.326c0.644-5.297-0.811-10.53-4.105-14.747C335.899,172.965,331.167,170.298,325.869,169.653z
			 M328.409,190.101c-0.161,1.321-0.825,2.499-1.89,3.33c-1.108,0.871-2.274,1.054-3.058,1.054c-1.548,0-2.976-0.693-3.92-1.902
			c-0.003-0.004-0.007-0.009-0.01-0.013c-0.822-1.047-1.186-2.352-1.026-3.674c0.16-1.323,0.827-2.504,1.882-3.33
			c0.883-0.693,1.951-1.06,3.059-1.06c0.203,0,0.408,0.012,0.612,0.037c1.325,0.161,2.509,0.829,3.324,1.868
			C328.205,187.464,328.57,188.775,328.409,190.101z"/>
		<path d="M366.363,189.952c1.218,0,2.477-0.121,3.761-0.362c10.819-2.061,17.946-12.547,15.884-23.386
			c-2.076-10.828-12.568-17.95-23.384-15.877c-5.246,0.998-9.789,3.981-12.79,8.4c-3.002,4.419-4.101,9.741-3.095,14.987
			C348.535,183.123,356.786,189.952,366.363,189.952z M362.241,167.155c0.748-1.101,1.879-1.845,3.196-2.095
			c0.316-0.06,0.63-0.089,0.94-0.089c2.345,0,4.442,1.666,4.898,4.047c0.514,2.705-1.261,5.324-3.941,5.835
			c-0.355,0.067-0.682,0.101-0.971,0.101c-2.387,0-4.444-1.705-4.891-4.053c0-0.003-0.001-0.006-0.002-0.01
			C361.219,169.583,361.493,168.256,362.241,167.155z"/>
		<path d="M200.849,173.765c-4.201-3.296-9.435-4.757-14.74-4.112c-5.298,0.644-10.03,3.311-13.333,7.523
			c-6.79,8.691-5.251,21.279,3.412,28.047c3.546,2.788,7.809,4.262,12.329,4.262c6.198,0,11.935-2.795,15.732-7.656
			c3.296-4.202,4.758-9.435,4.115-14.737C207.72,181.788,205.049,177.054,200.849,173.765z M192.437,192.583
			c-0.944,1.209-2.373,1.902-3.921,1.902c-0.784,0-1.951-0.183-3.077-1.068c-1.046-0.817-1.71-1.995-1.871-3.316
			c-0.162-1.326,0.203-2.637,1.017-3.679c0.824-1.05,2.008-1.717,3.333-1.879c0.205-0.025,0.409-0.037,0.612-0.037
			c1.108,0,2.176,0.367,3.065,1.064c1.05,0.822,1.716,2.003,1.877,3.326C193.633,190.218,193.269,191.523,192.437,192.583z"/>
		<path d="M198.943,219.532c-1.877,4.997-1.697,10.425,0.513,15.294c3.244,7.122,10.394,11.725,18.215,11.725
			c2.853,0,5.627-0.601,8.263-1.793c10.023-4.564,14.476-16.434,9.923-26.464c-2.211-4.863-6.181-8.573-11.179-10.448
			c-5.002-1.877-10.432-1.691-15.279,0.516C204.535,210.566,200.822,214.533,198.943,219.532z M212.984,224.808
			c0.468-1.247,1.394-2.235,2.62-2.79c0.657-0.299,1.355-0.449,2.056-0.449c0.589,0,1.181,0.106,1.75,0.32
			c1.248,0.468,2.241,1.396,2.791,2.608c1.137,2.504,0.022,5.469-2.466,6.603c-0.664,0.3-1.358,0.452-2.064,0.452
			c-1.959,0-3.751-1.155-4.561-2.933C212.56,227.408,212.515,226.054,212.984,224.808z"/>
		<path d="M145.615,189.952c9.58,0,17.835-6.833,19.625-16.239c1.005-5.246-0.094-10.568-3.096-14.987
			c-3.001-4.418-7.544-7.402-12.78-8.398c-10.827-2.08-21.318,5.047-23.396,15.885c-2.06,10.828,5.065,21.314,15.902,23.378
			C143.137,189.831,144.397,189.952,145.615,189.952z M140.701,169.028c0.458-2.389,2.554-4.056,4.904-4.056
			c0.312,0,0.628,0.029,0.945,0.09c1.307,0.249,2.438,0.992,3.186,2.093c0.748,1.102,1.022,2.428,0.77,3.744
			c-0.447,2.349-2.504,4.053-4.892,4.053c-0.29,0-0.616-0.034-0.955-0.098C141.964,174.341,140.189,171.723,140.701,169.028z"/>
		<path d="M98.517,192.33c1.921,0,3.836-0.279,5.692-0.83c0.152-0.045,0.303-0.095,0.451-0.15c4.914-1.58,8.961-4.935,11.43-9.488
			c2.547-4.697,3.109-10.105,1.588-15.217c-1.516-5.12-4.936-9.341-9.63-11.886c-4.698-2.547-10.105-3.11-15.227-1.585
			c-5.118,1.523-9.338,4.948-11.88,9.643c-2.543,4.696-3.104,10.102-1.583,15.213C81.854,186.45,89.732,192.33,98.517,192.33z
			 M94.13,169.959c0.635-1.173,1.69-2.028,2.969-2.409c0.472-0.14,0.953-0.21,1.431-0.21c0.819,0,1.629,0.204,2.368,0.604
			c1.168,0.634,2.019,1.685,2.4,2.969c0.381,1.278,0.241,2.627-0.395,3.798c-0.633,1.168-1.684,2.019-2.958,2.397
			c-0.081,0.024-0.162,0.049-0.242,0.076c-2.568,0.631-5.23-0.94-5.967-3.427C93.356,172.481,93.495,171.131,94.13,169.959z"/>
		<path d="M306.293,269.063c-0.423,2.908,0.891,5.796,3.362,7.386c14.001,9.013,29.939,13.587,45.966,13.586
			c11.922,0,23.897-2.533,35.148-7.654c26.374-12.004,44.618-36.326,48.802-65.061c0.423-2.908-0.891-5.796-3.362-7.386
			c-24.416-15.718-54.738-17.936-81.114-5.932C328.72,216.006,310.477,240.327,306.293,269.063z M361.309,217.654
			c20.206-9.197,43.234-8.248,62.539,2.365c-4.676,21.528-19.086,39.515-39.293,48.712c-20.207,9.196-43.234,8.248-62.539-2.365
			C326.692,244.837,341.101,226.85,361.309,217.654z"/>
		<path d="M72.407,217.321c4.184,28.735,22.428,53.057,48.802,65.061c11.252,5.121,23.223,7.654,35.148,7.654
			c16.025,0,31.967-4.574,45.966-13.586c2.471-1.591,3.785-4.478,3.362-7.386c-4.184-28.736-22.428-53.057-48.802-65.061
			c-26.375-12.004-56.698-9.786-81.114,5.932C73.298,211.525,71.983,214.413,72.407,217.321z M150.669,217.654
			c20.207,9.196,34.617,27.184,39.293,48.711c-19.304,10.614-42.332,11.561-62.539,2.365c-20.207-9.197-34.617-27.184-39.293-48.712
			C107.435,209.405,130.461,208.457,150.669,217.654z"/>
	</g>
</g>
<g>
</g>
<g>
</g>
<g>
</g>
<g>
</g>
<g>
</g>
<g>
</g>
<g>
</g>
<g>
</g>
<g>
</g>
<g>
</g>
<g>
</g>
<g>
</g>
<g>
</g>
<g>
</g>
<g>
</g>
</svg>
