<?xml version="1.0" encoding="iso-8859-1"?>
<!-- Generator: Adobe Illustrator 24.0.0, SVG Export Plug-In . SVG Version: 6.00 Build 0)  -->
<svg version="1.1" id="Capa_1" xmlns="http://www.w3.org/2000/svg" xmlns:xlink="http://www.w3.org/1999/xlink" x="0px" y="0px"
	 viewBox="0 0 511.999 511.999" style="enable-background:new 0 0 511.999 511.999;" xml:space="preserve">
<g>
	<g>
		<path style="fill:#544F57;" d="M364.575,156.328c-17.575,0-35.303-0.518-53.167-1.557c-49.892-2.902-100.878-9.848-151.543-20.646
			C73.485,115.715,18.576,92.749,16.28,91.78C9.085,88.743,5.713,80.448,8.75,73.252c3.037-7.194,11.329-10.565,18.523-7.532l0,0
			c0.543,0.228,55.245,23.062,139.189,40.891c77.189,16.394,195.658,31.8,321.708,12.094c7.715-1.209,14.951,4.071,16.158,11.788
			c1.206,7.717-4.071,14.951-11.788,16.157C451.328,153.091,408.461,156.328,364.575,156.328z"/>
		<path style="fill:#544F57;" d="M117.668,399.275c-32.58,0-65.24-2.187-97.774-6.562c-7.74-1.041-13.172-8.16-12.131-15.901
			c1.041-7.741,8.158-13.173,15.901-12.131c62.31,8.38,125.137,8.413,186.732,0.099c49.338-6.66,98.018-18.661,144.689-35.67
			c63.73-23.227,110.868-51.618,126.89-63.385c6.293-4.622,15.141-3.273,19.767,3.013c4.627,6.287,3.289,15.13-2.994,19.761
			c-1.993,1.47-49.791,36.352-132.91,66.795c-48.667,17.825-99.442,30.413-150.918,37.416
			C182.748,397.086,150.248,399.275,117.668,399.275z"/>
		<polygon style="fill:#90D8F9;" points="459.244,242.588 408.976,211.024 358.708,242.588 358.708,118.671 459.244,118.671 		"/>
		<polygon style="fill:#F4DD45;" points="322.556,461.021 267.83,438.037 223.353,477.343 203.236,355.07 302.438,338.748 		"/>
		<polygon style="fill:#F4DD45;" points="104.717,204.18 64.161,160.84 7.505,178.539 39.11,58.72 136.321,84.361 		"/>
		<polygon style="fill:#DA4A54;" points="240.385,238.961 325.179,116.796 188.954,99.429 		"/>
		<polygon style="fill:#90D8F9;" points="107.696,489.1 176.36,357.193 39.032,357.193 		"/>
		<polygon style="fill:#DA4A54;" points="446.562,423.473 454.337,274.968 329.376,331.921 		"/>
		<path style="fill:#E7ECF1;" d="M441.124,100.613l28.25-9.708c8.485-2.916,8.485-14.915,0-17.831l-28.25-9.708
			c-2.748-0.944-4.907-3.104-5.852-5.852l-9.708-28.25c-2.916-8.485-14.915-8.485-17.831,0l-9.708,28.251
			c-0.944,2.748-3.104,4.907-5.852,5.852l-28.25,9.708c-8.485,2.916-8.485,14.915,0,17.831l28.25,9.708
			c2.748,0.944,4.907,3.104,5.852,5.852l9.708,28.251c2.916,8.485,14.915,8.485,17.831,0l9.708-28.251
			C436.217,103.717,438.376,101.558,441.124,100.613z"/>
		<path style="fill:#E7ECF1;" d="M104.361,337.318l28.25-9.708c8.485-2.916,8.485-14.915,0-17.831l-28.25-9.708
			c-2.748-0.944-4.907-3.104-5.852-5.852l-9.708-28.25c-2.916-8.485-14.915-8.485-17.831,0l-9.708,28.251
			c-0.944,2.748-3.104,4.907-5.852,5.852l-28.25,9.708c-8.485,2.916-8.485,14.915,0,17.831l28.25,9.708
			c2.748,0.944,4.907,3.103,5.852,5.852l9.708,28.251c2.916,8.485,14.915,8.485,17.831,0l9.708-28.25
			C99.453,340.422,101.612,338.263,104.361,337.318z"/>
	</g>
	<g>
		<path d="M493.61,255.725c-5.711-0.87-11.425,0.537-16.078,3.962c-4.246,3.123-10.154,7.002-16.937,11.143
			c-0.53-0.802-1.215-1.507-2.035-2.064c-2.165-1.475-4.946-1.712-7.331-0.625l-124.967,56.955c-2.385,1.087-4.029,3.34-4.338,5.943
			c-0.053,0.452-0.051,0.9-0.023,1.346c-4.129,1.288-8.275,2.55-12.432,3.761c-1.219-3.305-4.644-5.392-8.249-4.798l-99.202,16.321
			c-1.962,0.323-3.717,1.412-4.876,3.028c-1.16,1.616-1.63,3.627-1.307,5.59l0.444,2.697c-4.356,0.503-8.741,0.956-13.137,1.377
			c1.057-2.264,0.932-4.91-0.371-7.059c-1.359-2.241-3.791-3.609-6.412-3.609h-72.162l1.404-4.086
			c0.195-0.566,0.631-1.002,1.197-1.197c0,0,0,0,0,0l28.25-9.708c6.941-2.385,11.426-8.668,11.426-16.008
			s-4.485-13.623-11.426-16.008l-28.251-9.708c-0.566-0.194-1.002-0.63-1.196-1.196l-9.708-28.25
			c-2.385-6.941-8.669-11.426-16.009-11.426c-7.339,0-13.623,4.485-16.008,11.426l-9.708,28.25c-0.194,0.566-0.63,1.002-1.196,1.196
			l-28.25,9.708c-6.941,2.385-11.426,8.668-11.426,16.008s4.485,13.623,11.426,16.008l28.25,9.708
			c0.566,0.194,1.002,0.63,1.196,1.196l1.405,4.087H39.036c-2.621,0-5.052,1.368-6.412,3.609c-0.892,1.469-1.227,3.173-1.018,4.828
			c-2.319-0.288-4.641-0.572-6.948-0.882c-5.728-0.77-11.413,0.736-16.007,4.242c-4.596,3.506-7.551,8.591-8.321,14.321
			c-1.587,11.831,6.74,22.748,18.564,24.336c12.02,1.611,24.135,2.92,36.093,3.934l46.057,88.479
			c1.292,2.481,3.856,4.037,6.653,4.037s5.361-1.556,6.653-4.037l45.287-87c14.6-0.838,29.242-2.116,43.676-3.823l12.64,76.822
			c0.443,2.693,2.314,4.933,4.885,5.848c0.82,0.292,1.67,0.435,2.514,0.435c1.801,0,3.575-0.649,4.967-1.88l40.948-36.188
			l50.384,21.161c2.518,1.057,5.408,0.664,7.551-1.028c2.143-1.69,3.197-4.412,2.754-7.105l-13.277-80.696
			c14.566-4.131,29.086-8.746,43.306-13.751l23.655,18.481c3.264,2.549,7.976,1.972,10.527-1.292
			c2.55-3.264,1.972-7.978-1.293-10.528l-49.146-38.398l102.475-46.704l-6.379,121.777l-23.316-18.22
			c-3.263-2.549-7.977-1.973-10.528,1.292c-2.55,3.264-1.972,7.978,1.292,10.528l34.671,27.093c1.344,1.049,2.974,1.59,4.619,1.59
			c1.055,0,2.115-0.222,3.109-0.675c2.545-1.16,4.233-3.639,4.379-6.433l5.365-102.436c25.99-14.147,40.93-24.804,43.793-26.896
			c9.584-7.082,11.636-20.648,4.572-30.243C504.355,259.638,499.322,256.595,493.61,255.725z M29.597,320.518
			c-0.863-0.297-1.301-0.91-1.301-1.823s0.438-1.526,1.301-1.823l28.25-9.708c4.97-1.708,8.799-5.537,10.507-10.507l9.708-28.251
			c0.297-0.863,0.91-1.301,1.822-1.301c0.913,0,1.526,0.438,1.823,1.301l9.708,28.251c1.708,4.97,5.538,8.799,10.507,10.506
			l28.25,9.708c0.863,0.297,1.301,0.91,1.301,1.823s-0.438,1.526-1.301,1.823l-28.25,9.708l0,0
			c-4.969,1.708-8.799,5.537-10.508,10.507l-9.708,28.25c-0.297,0.863-0.91,1.301-1.823,1.301c-0.913,0-1.525-0.438-1.822-1.301
			l-9.708-28.25c-1.708-4.97-5.537-8.799-10.507-10.507L29.597,320.518z M20.89,385.281c-3.626-0.487-6.18-3.84-5.692-7.474
			c0.236-1.756,1.142-3.315,2.552-4.391s3.154-1.537,4.912-1.302c5.562,0.747,11.17,1.416,16.744,2.033l7.35,14.119
			C38.147,387.423,29.494,386.435,20.89,385.281z M107.698,472.855L51.396,364.694h9.332l3.149,9.163
			c2.385,6.941,8.668,11.426,16.008,11.427c0,0,0,0,0,0c7.339,0,13.623-4.485,16.008-11.426l3.149-9.164H164L107.698,472.855z
			 M167.727,390.022l7.222-13.875c7.952-0.65,15.904-1.432,23.767-2.348l2.159,13.12
			C189.909,388.205,178.822,389.244,167.727,390.022z M270.735,431.122c-2.653-1.114-5.713-0.612-7.871,1.295l-34.312,30.323
			l-16.698-101.487l84.401-13.886l16.698,101.487L270.735,431.122z M345.9,354.351c-10.458,3.522-21.052,6.815-31.673,9.854
			l-2.171-13.198c7.119-2.056,14.222-4.235,21.239-6.506L345.9,354.351z M494.326,282.447c-1.473,1.076-13.267,9.577-33.986,21.313
			l0.828-15.801c13.626-7.967,21.594-13.499,25.254-16.19c1.428-1.05,3.174-1.481,4.929-1.215c1.753,0.267,3.298,1.201,4.35,2.63
			C497.868,276.13,497.239,280.296,494.326,282.447z"/>
		<path d="M2.317,183.962c1.973,1.887,4.815,2.552,7.42,1.738l52.168-16.3l37.331,39.908c1.437,1.536,3.428,2.376,5.477,2.376
			c0.611,0,1.227-0.075,1.834-0.228c2.646-0.667,4.722-2.72,5.417-5.36l6.019-22.823c1.056-4.005-1.334-8.108-5.34-9.165
			c-4-1.055-8.107,1.335-9.164,5.339l-2.559,9.704l-31.279-33.439c-1.967-2.103-4.964-2.894-7.714-2.035l-43.715,13.659
			L44.45,67.888l82.71,21.809l-16.032,60.779c-1.057,4.005,1.334,8.108,5.339,9.165c4.009,1.057,8.109-1.334,9.165-5.339
			l5.044-19.123c9.251,2.232,18.513,4.342,27.623,6.281c13.631,2.908,27.417,5.545,41.061,7.885l33.988,92.209
			c0.967,2.625,3.314,4.492,6.089,4.846c0.317,0.041,0.635,0.06,0.95,0.06c2.437,0,4.748-1.189,6.16-3.224l56.551-81.475
			c2.626,0.176,5.259,0.344,7.881,0.494c13.51,0.783,26.998,1.259,40.231,1.455v78.874c0,2.729,1.482,5.243,3.871,6.563
			c2.388,1.321,5.305,1.24,7.617-0.212l46.278-29.057l46.278,29.057c1.217,0.764,2.602,1.148,3.988,1.148
			c1.248,0,2.498-0.311,3.629-0.937c2.389-1.32,3.871-3.834,3.871-6.563v-84.803c9.021-1.086,18.061-2.329,26.962-3.722
			c11.776-1.846,19.868-12.934,18.035-24.727c-0.895-5.71-3.96-10.732-8.631-14.139c-4.671-3.408-10.388-4.791-16.096-3.896
			c-7.154,1.121-14.407,2.143-21.643,3.053c-1.358-1.924-3.593-3.184-6.127-3.184h-17.656l0.779-2.267
			c0.194-0.566,0.631-1.002,1.196-1.196l28.25-9.708c6.941-2.385,11.427-8.668,11.427-16.008s-4.484-13.623-11.426-16.009
			l-28.251-9.708c-0.565-0.194-1.002-0.63-1.196-1.196l-9.708-28.25c-2.386-6.941-8.669-11.426-16.008-11.426
			c-7.34,0-13.623,4.485-16.009,11.426l-9.708,28.25c-0.194,0.566-0.631,1.002-1.196,1.196l-28.251,9.708
			c-6.941,2.386-11.426,8.669-11.426,16.009s4.485,13.623,11.426,16.008l28.251,9.708c0.565,0.194,1.002,0.63,1.196,1.197
			l0.779,2.266h-33.002c-4.143,0-7.5,3.358-7.5,7.5v1.679c-6.373-0.101-12.779-0.275-19.19-0.514
			c0.852-1.919,0.883-4.128,0.012-6.087c-1.065-2.395-3.304-4.06-5.904-4.391L189.902,91.989c-2.6-0.333-5.184,0.718-6.816,2.77
			c-1.632,2.051-2.076,4.805-1.169,7.264l0.039,0.104c-4.692-0.924-9.349-1.875-13.932-2.851
			c-8.865-1.888-17.678-3.889-26.304-5.965l1.857-7.042c0.507-1.924,0.23-3.97-0.771-5.688s-2.645-2.97-4.568-3.477L41.024,51.472
			c-4.004-1.056-8.107,1.334-9.164,5.339l-0.639,2.423c-0.316-0.128-0.632-0.256-0.942-0.384l-0.097-0.039
			c-5.323-2.248-11.203-2.286-16.557-0.11C8.269,60.88,4.084,65.014,1.846,70.334c-2.251,5.332-2.29,11.219-0.109,16.578
			c2.178,5.353,6.311,9.536,11.654,11.785c1.02,0.427,3.269,1.354,6.708,2.694l-19.85,75.239
			C-0.448,179.268,0.345,182.076,2.317,183.962z M489.337,126.118c1.746-0.271,3.499,0.15,4.932,1.196
			c1.436,1.046,2.377,2.589,2.65,4.333c0.563,3.621-1.921,7.028-5.536,7.595c-8.135,1.273-16.392,2.425-24.641,3.438v-13.384
			C474.295,128.351,481.868,127.289,489.337,126.118z M366.361,83.813c-0.863-0.297-1.301-0.91-1.301-1.823
			c0-0.913,0.438-1.526,1.301-1.823l28.251-9.708c4.97-1.708,8.799-5.537,10.507-10.507l9.708-28.25
			c0.297-0.863,0.91-1.301,1.823-1.301c0.912,0,1.525,0.438,1.822,1.301l9.708,28.25c1.708,4.97,5.537,8.799,10.507,10.507
			l28.251,9.708c0.863,0.297,1.301,0.91,1.301,1.823s-0.438,1.526-1.302,1.823l-28.25,9.708c-4.97,1.708-8.8,5.538-10.507,10.507
			l-9.708,28.25c-0.297,0.863-0.91,1.301-1.822,1.301c-0.913,0-1.526-0.438-1.823-1.301l-9.708-28.25
			c-1.707-4.97-5.537-8.8-10.507-10.508L366.361,83.813z M366.209,126.169h30.657l3.775,10.984
			c2.386,6.941,8.669,11.426,16.009,11.426c7.339,0,13.622-4.485,16.008-11.426l3.775-10.984h15.31v102.852l-38.778-24.348
			c-2.439-1.531-5.537-1.531-7.977,0l-38.778,24.348V126.169z M351.209,148.71c-12.535-0.188-25.304-0.639-38.106-1.364
			l8.971-12.924c9.714,0.464,19.464,0.776,29.135,0.927V148.71z M311.97,122.673l-69.531,100.175l-42.173-114.416L311.97,122.673z
			 M164.9,113.948c7.563,1.61,15.321,3.154,23.113,4.614l5.346,14.505c-10.643-1.92-21.337-4.016-31.935-6.277
			c-8.88-1.89-17.905-3.944-26.922-6.116l3.391-12.855C146.749,109.952,155.798,112.01,164.9,113.948z M19.192,84.864
			c-1.63-0.686-2.895-1.967-3.562-3.606c-0.669-1.645-0.657-3.452,0.038-5.097c0.687-1.631,1.968-2.897,3.608-3.564
			c1.641-0.667,3.443-0.656,5.074,0.034c0.071,0.03,0.05,0.022,0.121,0.05l0.108,0.044c0.913,0.375,1.853,0.753,2.786,1.124
			l-3.414,12.939C21.436,85.796,19.826,85.129,19.192,84.864z"/>
	</g>
</g>
<g>
</g>
<g>
</g>
<g>
</g>
<g>
</g>
<g>
</g>
<g>
</g>
<g>
</g>
<g>
</g>
<g>
</g>
<g>
</g>
<g>
</g>
<g>
</g>
<g>
</g>
<g>
</g>
<g>
</g>
</svg>
