<?xml version="1.0" encoding="iso-8859-1"?>
<!-- Generator: Adobe Illustrator 24.0.0, SVG Export Plug-In . SVG Version: 6.00 Build 0)  -->
<svg version="1.1" id="Capa_1" xmlns="http://www.w3.org/2000/svg" xmlns:xlink="http://www.w3.org/1999/xlink" x="0px" y="0px"
	 viewBox="0 0 511.919 511.919" style="enable-background:new 0 0 511.919 511.919;" xml:space="preserve">
<g>
	<g>
		<path style="fill:#E7ECF1;" d="M137.258,504.5H96.356V78.139c0-8.868,7.189-16.057,16.057-16.057h8.788
			c8.868,0,16.057,7.189,16.057,16.057V504.5z"/>
		<path style="fill:#C6D0DA;" d="M125.286,62.609c-6.89,1.8-11.97,8.07-11.97,15.53v426.36h-16.96V78.139
			c0-8.87,7.19-16.06,16.06-16.06h8.79C122.616,62.079,123.986,62.259,125.286,62.609z"/>
		<circle style="fill:#E7ECF1;" cx="341.48" cy="135.471" r="127.969"/>
		<path style="fill:#C6D0DA;" d="M272.913,243.553c-7.771-4.943-15.132-10.804-21.92-17.593
			c-49.978-49.978-49.971-131.006,0-180.977c49.978-49.978,130.999-49.978,180.977,0c6.788,6.788,12.65,14.149,17.593,21.92
			c-49.49-31.473-115.866-25.612-159.064,17.586C247.308,127.68,241.439,194.063,272.913,243.553z"/>
		<path style="fill:#544F57;" d="M118.724,392.791l-34.563-34.563c-16.027-16.027-17.377-41.565-3.128-59.192l132.653-164.103
			l128.333,128.333L177.916,395.919C160.289,410.168,134.751,408.818,118.724,392.791z"/>
		<path style="fill:#454045;" d="M94.164,368.226l-9.998-9.998c-16.03-16.03-17.381-41.564-3.133-59.192L213.686,134.93l37.13,37.13
			L109.063,327.066C93.838,343.718,87.411,361.473,94.164,368.226z"/>
		<path style="fill:#544F57;" d="M442.75,216.478L260.474,34.201c-5.596-5.596-14.668-5.596-20.264,0l0,0
			c-5.596,5.596-5.596,14.668,0,20.264l182.276,182.276c5.596,5.596,14.668,5.596,20.264,0l0,0
			C448.346,231.146,448.346,222.073,442.75,216.478z"/>
		<path style="fill:#454045;" d="M312.92,86.651c-5.59-5.59-14.67-5.59-20.26,0c-2.8,2.8-4.2,6.47-4.2,10.13
			c0,3.67,1.4,7.34,4.2,10.14l-52.45-52.45c-2.8-2.8-4.2-6.47-4.2-10.13c0-3.67,1.4-7.34,4.2-10.14c5.59-5.59,14.66-5.59,20.26,0
			L312.92,86.651z"/>
		<g>
			<path style="fill:#E7ECF1;" d="M273.684,344.861l-13.132,13.132c-5.334,5.334-13.983,5.334-19.318,0l-35.553-35.553
				c-5.334-5.334-5.334-13.983,0-19.318l13.132-13.132c5.334-5.334,13.983-5.334,19.318,0l35.553,35.553
				C279.018,330.877,279.018,339.526,273.684,344.861z"/>
			<path style="fill:#E7ECF1;" d="M190.019,257.51l-13.132,13.132c-5.334,5.334-13.983,5.334-19.318,0l-35.553-35.553
				c-5.334-5.334-5.334-13.983,0-19.318l13.132-13.132c5.334-5.334,13.983-5.334,19.318,0l35.553,35.553
				C195.353,243.527,195.353,252.176,190.019,257.51z"/>
		</g>
		<path style="fill:#C6D0DA;" d="M173.986,222.161c-5.33-5.33-13.98-5.33-19.32,0l-13.13,13.14c-5.33,5.33-5.33,13.98,0,19.31
			l-19.52-19.52c-5.34-5.34-5.34-13.98,0-19.32l13.13-13.13c5.33-5.34,13.98-5.34,19.32,0L173.986,222.161z"/>
		<path style="fill:#C6D0DA;" d="M273.682,344.863l-13.13,13.13c-5.34,5.33-13.99,5.33-19.32,0l-19.39-19.4
			c5.35,5.21,13.9,5.16,19.18-0.13l13.13-13.13c5.34-5.33,5.34-13.98,0-19.32l19.53,19.53
			C279.012,330.873,279.012,339.523,273.682,344.863z"/>
		<path style="fill:#544F57;" d="M58.503,197.595h-2.563c-6.423,0-11.629-5.207-11.629-11.629V135.4
			c0-6.423,5.207-11.629,11.629-11.629h2.563c6.423,0,11.629,5.207,11.629,11.629v50.566
			C70.133,192.388,64.926,197.595,58.503,197.595z"/>
		<path style="fill:#454045;" d="M70.133,162.025v23.94c0,6.42-5.2,11.63-11.63,11.63h-2.56c-6.42,0-11.63-5.21-11.63-11.63v-23.94
			c0,6.42,5.21,11.62,11.63,11.62h2.56C64.933,173.645,70.133,168.445,70.133,162.025z"/>
	</g>
	<path d="M476.86,133.697c-0.056-4.14-3.46-7.476-7.598-7.396c-4.14,0.056-7.452,3.458-7.395,7.599
		c0.338,24.998-7.158,49.519-21.232,69.929L273.124,36.318c47.445-32.842,112.038-27.412,153.479,14.03
		c15.405,15.405,26.339,34.641,31.62,55.629c0.856,3.402,3.911,5.67,7.265,5.67c0.606,0,1.221-0.074,1.835-0.228
		c4.015-1.01,6.452-5.085,5.442-9.101c-5.942-23.616-18.238-45.253-35.558-62.573c-47.396-47.396-121.724-52.897-175.314-13.84
		c-8.421-5.257-19.665-4.248-26.98,3.064c-7.312,7.313-8.321,18.558-3.065,26.978c-16.102,22.16-25.177,49.027-25.796,76.548
		l-50.024,61.882c-3.425-2.136-7.326-3.216-11.232-3.207V78.196c0-12.987-10.565-23.553-23.552-23.553h-8.787
		c-12.982,0-23.543,10.566-23.543,23.553v23.642c0,4.141,3.356,7.498,7.498,7.498c4.141,0,7.498-3.357,7.498-7.498V78.196
		c0-4.719,3.835-8.557,8.548-8.557h8.787c4.718,0,8.557,3.839,8.557,8.557v119.242l-13.043,13.044
		c-3.996,3.995-6.196,9.308-6.196,14.958c0,5.65,2.2,10.962,6.195,14.957l1.152,1.152l-14,17.319V131.829
		c0-4.141-3.356-7.498-7.498-7.498c-4.141,0-7.498,3.357-7.498,7.498v21.383H77.689v-17.775c0-10.545-8.578-19.123-19.123-19.123
		h-2.563c-10.545,0-19.123,8.578-19.123,19.123v50.55c0,10.545,8.578,19.123,19.123,19.123h2.563
		c10.545,0,19.123-8.579,19.123-19.123v-17.78h11.224v109.21l-13.657,16.894c-16.289,20.142-15.191,48.921,2.296,67.761
		c-8.728,4.831-18.678,11.176-26.632,18.995c-13.068,12.847-18.105,26.918-14.97,41.822c2.29,10.89,9.68,20.676,20.274,26.85
		c7.685,4.48,16.53,6.764,25.598,6.764c2.354,0,4.723-0.164,7.091-0.473v48.389c0,4.141,3.356,7.498,7.498,7.498
		c4.141,0,7.498-3.357,7.498-7.498V388.494l9.555,9.555c4.833,4.833,10.396,8.514,16.338,11.051v95.322
		c0,4.141,3.356,7.498,7.498,7.498c4.141,0,7.498-3.357,7.498-7.498v-45.993c40.025,5.895,56.543,19.535,56.543,45.993
		c0,4.141,3.356,7.498,7.498,7.498s7.498-3.357,7.498-7.498c0-20.787-8.524-36.579-25.335-46.938
		c-11.104-6.842-25.91-11.396-46.203-14.194v-30.308c1.759,0.181,3.526,0.278,5.294,0.278c11.475,0,22.993-3.816,32.559-11.553
		l50.727-41.005l2.561,2.561c3.995,3.995,9.308,6.196,14.957,6.196c5.651,0,10.963-2.2,14.958-6.196l13.128-13.128l-0.001,0
		c3.996-3.995,6.196-9.308,6.196-14.958c0-4.701-1.543-9.156-4.355-12.825l63.659-51.452c27.51-0.62,54.368-9.692,76.527-25.79
		c3.524,2.202,7.536,3.321,11.556,3.321c5.589,0,11.177-2.127,15.432-6.381c7.314-7.315,8.322-18.564,3.06-26.986
		C468.126,191.578,477.254,162.924,476.86,133.697z M58.566,190.116h-2.563c-2.276,0-4.128-1.852-4.128-4.128v-50.55
		c0-2.276,1.852-4.128,4.128-4.128h2.563c2.276,0,4.128,1.851,4.128,4.128v25.234c0,0.013-0.002,0.025-0.002,0.039
		s0.002,0.026,0.002,0.039v25.239C62.694,188.264,60.842,190.116,58.566,190.116z M345.188,255.858L221.094,131.764
		c0.726-23.109,8.142-45.637,21.186-64.566l167.478,167.478C390.825,247.721,368.295,255.136,345.188,255.858z M127.361,221.086
		l13.128-13.128c1.2-1.2,2.776-1.801,4.353-1.801c1.578,0,3.154,0.6,4.354,1.801l35.542,35.542c2.401,2.401,2.401,6.308,0,8.709
		l-13.127,13.127c-2.402,2.402-6.31,2.401-8.709,0l-35.542-35.542c-1.163-1.163-1.803-2.709-1.803-4.354
		C125.557,223.795,126.197,222.249,127.361,221.086z M88.913,440.86c-8.871,1.603-17.802,0.202-25.139-4.074
		c-6.937-4.043-11.731-10.233-13.15-16.981c-3.415-16.232,8.678-31.122,37.96-46.634l0.329,0.329V440.86z M268.377,339.531
		C268.377,339.531,268.376,339.531,268.377,339.531l-13.129,13.128c-1.163,1.163-2.709,1.804-4.354,1.804
		c-1.644,0-3.19-0.64-4.353-1.804l-35.542-35.542c-2.401-2.401-2.401-6.308,0-8.709l13.127-13.127
		c1.201-1.201,2.778-1.801,4.355-1.801c1.577,0,3.154,0.6,4.354,1.8l35.542,35.542c1.163,1.163,1.803,2.709,1.803,4.354
		C270.18,336.822,269.539,338.368,268.377,339.531z M270.319,311.558l-26.881-26.881c-8.247-8.246-21.666-8.247-29.915,0
		l-13.128,13.128c-8.246,8.247-8.246,21.667,0,29.915l22.319,22.319l-49.492,40.007c-14.674,11.867-35.805,10.749-49.154-2.601
		l-34.551-34.549c-13.349-13.349-14.467-34.481-2.599-49.156l41.654-51.528l23.728,23.728c4.124,4.123,9.54,6.185,14.957,6.185
		c5.417,0,10.833-2.062,14.958-6.186l13.128-13.128c8.246-8.247,8.246-21.667,0-29.915l-28.296-28.295l47.24-58.438l116.512,116.512
		L270.319,311.558z M437.39,231.446c-2.663,2.662-6.995,2.66-9.654,0L245.517,49.227c-2.662-2.662-2.662-6.993-0.001-9.654
		c1.332-1.331,3.08-1.996,4.829-1.996c1.748,0,3.496,0.665,4.827,1.996L437.39,221.792
		C440.052,224.453,440.052,228.784,437.39,231.446z"/>
</g>
<g>
</g>
<g>
</g>
<g>
</g>
<g>
</g>
<g>
</g>
<g>
</g>
<g>
</g>
<g>
</g>
<g>
</g>
<g>
</g>
<g>
</g>
<g>
</g>
<g>
</g>
<g>
</g>
<g>
</g>
</svg>
