<?xml version="1.0" encoding="iso-8859-1"?>
<!-- Generator: Adobe Illustrator 24.0.0, SVG Export Plug-In . SVG Version: 6.00 Build 0)  -->
<svg version="1.1" id="Capa_1" xmlns="http://www.w3.org/2000/svg" xmlns:xlink="http://www.w3.org/1999/xlink" x="0px" y="0px"
	 viewBox="0 0 511.959 511.959" style="enable-background:new 0 0 511.959 511.959;" xml:space="preserve">
<g>
	<g>
		<path style="fill:#C6D0DA;" d="M95.939,153.884c6.063,50.564,34.674,95.673,77.834,122.701l48.984,30.681l75.138,47.059
			l37.556-9.231l-4.284-43.902l-53.132-33.273l-75.138-47.059L95.939,153.884z"/>
		<path style="fill:#F4DD45;" d="M297.895,354.326l73.481,46.025c40.708,25.485,94.368,13.145,119.85-27.547
			c25.485-40.708,13.158-94.349-27.54-119.841c-40.705-25.501-94.356-13.168-119.857,27.537
			C342.747,282.23,297.895,354.326,297.895,354.326z M371.612,297.892c15.881-25.367,49.328-33.051,74.676-17.157
			c25.36,15.872,33.054,49.312,17.166,74.669c-15.881,25.367-49.319,33.045-74.679,17.173
			C363.408,356.696,355.731,323.259,371.612,297.892z"/>
		<path style="fill:#DA4A54;" d="M427.613,162.056c-59.99,7.629-118.52,22.846-174.241,45.132
			c-14.557-59.38-60.05-79.467-60.05-79.467c20.756,50.962,19.877,92.535,19.717,97.064
			c-39.834,18.877-77.977,41.483-113.881,67.609c-4.837-6.646,2.576-18.21-2.26-24.856c-5.106-7.017-22.461-9.114-27.567-16.13
			c-4.971-6.831,2.307-18.581-2.663-25.412c-7.456-10.247-27.161-15.574-34.618-25.821c-4.272-5.87,3.706-16.659-0.566-22.529
			c-3.91-5.373-20.07-5.827-23.98-11.201C125.483,80.59,263.231,25.929,407.977,7.532c1.007,7.922-9.216,13.143-8.209,21.065
			c1.116,8.781,13.462,20.262,14.578,29.043c1.474,11.602-8.282,20.503-6.808,32.105c0.983,7.734,13.195,18.169,14.178,25.904
			c1.008,7.934-9.214,13.168-8.205,21.103C414.467,144.286,426.655,154.521,427.613,162.056z"/>
		<path style="fill:#E7ECF1;" d="M296.601,90.234c24.382,44.71,27.23,98.051,7.742,145.099l-22.116,53.401l-33.925,81.91
			l-36.242,6.11l-21.676-30.102l23.992-57.918l33.925-81.91L296.601,90.234z"/>
		<path style="fill:#F4DD45;" d="M168.069,337.136c-44.38-18.375-95.241,2.689-113.616,47.069
			c-18.375,44.368,2.689,95.218,47.057,113.604c44.357,18.375,95.229-2.689,113.616-47.057l33.176-80.107
			C248.302,370.645,169.954,337.917,168.069,337.136z M184.847,438.214c-11.457,27.637-43.15,40.772-70.799,29.315
			c-27.648-11.445-40.772-43.15-29.315-70.787c11.434-27.648,43.139-40.783,70.787-29.326
			C183.169,378.873,196.303,410.566,184.847,438.214z"/>
	</g>
	<g>
		<path d="M469.809,359.393c8.748-13.967,11.532-30.502,7.841-46.561c-3.691-16.057-13.416-29.715-27.379-38.458
			c-13.96-8.748-30.494-11.534-46.552-7.843c-16.06,3.69-29.721,13.414-38.469,27.382c-8.744,13.965-11.527,30.499-7.837,46.557
			c3.689,16.06,13.412,29.719,27.376,38.462h0.001c9.938,6.223,21.178,9.426,32.622,9.426c4.635,0,9.306-0.526,13.935-1.589
			C447.407,383.079,461.067,373.356,469.809,359.393z M392.749,366.219L392.749,366.219c-10.567-6.616-17.925-16.954-20.718-29.107
			c-2.792-12.154-0.686-24.668,5.932-35.237c6.62-10.571,16.961-17.932,29.115-20.724c12.151-2.793,24.664-0.685,35.23,5.937
			c10.569,6.617,17.929,16.954,20.722,29.106c2.794,12.153,0.687,24.667-5.936,35.239c-6.615,10.568-16.953,17.925-29.106,20.718
			C415.833,374.943,403.319,372.837,392.749,366.219z"/>
		<path d="M467.666,246.606c-44.131-27.643-102.538-14.228-130.205,29.922c-0.294,0.471-3.844,6.176-8.847,14.219l-31.05-19.445
			l13.708-33.098c6.331-15.282,10.414-31.126,12.285-47.111c34.276-9.822,69.572-17.086,105.001-21.595
			c1.973-0.251,3.766-1.276,4.983-2.849c1.218-1.573,1.761-3.565,1.509-5.539c-0.727-5.71-4.66-11.026-8.464-16.167
			c-2.154-2.911-5.41-7.311-5.642-9.129c-0.139-1.1,1.428-3.338,2.81-5.313c2.646-3.781,6.269-8.959,5.398-15.8
			c-0.732-5.772-4.661-11.181-8.461-16.412c-2.178-2.998-5.469-7.527-5.717-9.482c-0.489-3.867,1.09-7.779,2.919-12.309
			c2.283-5.653,4.87-12.06,3.889-19.802c-0.781-6.136-4.697-12.031-8.483-17.732c-2.564-3.861-5.756-8.666-6.094-11.314
			c-0.138-1.081,1.426-3.311,2.806-5.279c2.647-3.777,6.274-8.95,5.402-15.788c-0.524-4.108-4.293-7.014-8.385-6.492
			c-58.584,7.444-116.619,20.905-172.493,40.01C178.796,59.16,124.792,83.976,74.024,113.86c-3.569,2.101-4.76,6.698-2.659,10.268
			c2.103,3.57,6.701,4.759,10.269,2.659c49.896-29.371,102.974-53.761,157.756-72.492c50.711-17.339,103.233-29.949,156.32-37.539
			c-2.122,3.386-4.044,7.611-3.383,12.791c0.781,6.128,4.693,12.019,8.478,17.716c2.566,3.865,5.761,8.674,6.099,11.324
			c0.489,3.859-1.09,7.769-2.917,12.295c-2.284,5.655-4.872,12.065-3.892,19.81c0.731,5.773,4.661,11.183,8.462,16.414
			c2.177,2.997,5.468,7.527,5.716,9.485c0.14,1.098-1.426,3.336-2.808,5.311c-2.644,3.777-6.264,8.95-5.4,15.797
			c0.727,5.71,4.66,11.026,8.464,16.167c0.491,0.663,1.039,1.403,1.595,2.173c-30.831,4.391-61.498,10.818-91.441,19.149
			c0.767-30.467-6.442-60.942-21.494-88.544c-1.385-2.537-4.116-4.059-6.984-3.898c-2.884,0.154-5.424,1.95-6.529,4.619
			l-38.114,92.012c-19.698-42.392-53.594-57.801-55.21-58.515c-2.799-1.234-6.063-0.648-8.255,1.482
			c-2.193,2.13-2.873,5.377-1.721,8.208c17.018,41.78,19.072,76.968,19.206,89.486c-34.71,16.73-68.204,36.339-99.782,58.409
			c0.589-4.865,0.724-10.428-2.838-15.322c-3.815-5.241-10.536-7.968-17.035-10.605c-3.899-1.583-9.24-3.75-10.526-5.518
			c-0.744-1.023-0.289-4.694,0.044-7.374c0.676-5.453,1.518-12.238-2.714-18.042c-4.671-6.426-12.288-10.793-19.653-15.017
			c-5.889-3.376-11.975-6.865-14.816-10.605c-0.151-1.025,0.457-3.76,0.827-5.425c1.093-4.913,2.589-11.641-1.546-17.312
			c-3.325-4.567-9.313-6.45-15.222-8.172c11.105-7.831,22.491-15.462,33.973-22.769c3.494-2.224,4.523-6.86,2.3-10.354
			c-2.225-3.496-6.862-4.524-10.354-2.3c-15.358,9.775-30.549,20.12-45.149,30.749c-1.608,1.17-2.686,2.932-2.995,4.897
			c-0.309,1.965,0.175,3.972,1.346,5.581c3.464,4.757,9.816,6.603,15.96,8.387c2.459,0.714,6.445,1.873,7.892,2.799
			c0.067,1.136-0.496,3.666-0.846,5.239c-1.091,4.908-2.586,11.629,1.542,17.313c4.669,6.41,12.274,10.77,19.629,14.986
			c5.996,3.438,12.197,6.993,14.986,10.832c0.743,1.018,0.288,4.688-0.045,7.367c-0.675,5.447-1.516,12.226,2.71,18.042
			c3.81,5.236,10.525,7.96,17.02,10.596c3.905,1.584,9.252,3.754,10.547,5.532c0.632,0.868,0.091,4.683-0.231,6.962
			c-0.765,5.396-1.717,12.113,2.492,17.895c1.468,2.016,3.753,3.086,6.069,3.086c1.53,0,3.075-0.467,4.407-1.436
			c14.794-10.765,30.054-20.964,45.691-30.568c6.466,5.494,13.348,10.549,20.535,15.052l30.857,19.329l-14.246,34.391
			c-8.743-3.651-14.944-6.241-15.466-6.458c-48.128-19.925-103.491,3.011-123.415,51.129
			c-19.923,48.108,3.007,103.466,51.117,123.403c11.781,4.88,23.996,7.19,36.021,7.19c37.08,0,72.338-21.973,87.395-58.308
			l33.176-80.106c0.002-0.004,0.003-0.009,0.005-0.013l12.182-29.414l99.982,62.618c11.717,7.334,24.565,11.93,38.188,13.661
			c0.321,0.041,0.64,0.061,0.955,0.061c3.721,0,6.949-2.768,7.431-6.556c0.521-4.109-2.386-7.863-6.495-8.386
			c-11.452-1.455-22.259-5.322-32.119-11.494l-67.149-42.053c10.975-17.641,41.094-66.055,41.969-67.458
			c23.267-37.128,72.397-48.416,109.523-25.162c37.125,23.254,48.416,72.377,25.172,109.502
			c-11.373,18.155-29.15,30.718-50.057,35.375c-4.043,0.901-6.59,4.908-5.689,8.951s4.902,6.59,8.951,5.69
			c24.854-5.536,45.986-20.471,59.507-42.055C525.222,332.646,511.799,274.25,467.666,246.606z M243.298,199.318L230.8,229.489
			l-10.226-6.405c0.097-8.46-0.531-38.492-12.498-76.512C219.92,156.575,234.791,173.452,243.298,199.318z M177.758,270.233
			c-5.131-3.216-10.095-6.738-14.841-10.518c15.498-9.044,31.338-17.501,47.453-25.323l14.609,9.151l-18.506,44.676L177.758,270.233
			z M297.124,108.569c16.643,39.48,16.899,83.798,0.289,123.895l-53.162,128.362c-9.796-4.092-28.119-11.745-44.006-18.381
			L297.124,108.569z M208.197,447.88c-16.773,40.476-63.348,59.763-103.815,43c-40.47-16.771-59.759-63.338-42.999-103.807
			c12.657-30.57,42.315-49.056,73.516-49.056c10.111,0,20.389,1.943,30.296,6.045c0.608,0.252,73.309,30.641,73.309,30.641
			L208.197,447.88z M295.498,343.976l-22.259-13.943l18.504-44.678l28.947,18.128C311.583,318.12,301.08,335.003,295.498,343.976z"
			/>
		<path d="M158.396,360.484c-15.228-6.307-31.997-6.305-47.219,0C95.953,366.79,84.1,378.647,77.8,393.866
			c-6.307,15.222-6.309,31.988-0.005,47.21c6.305,15.224,18.162,27.081,33.387,33.386c7.696,3.189,15.672,4.698,23.526,4.698
			c24.213,0,47.238-14.351,57.07-38.08C204.797,409.661,189.821,373.506,158.396,360.484z M177.921,435.339
			c-9.856,23.785-37.225,35.117-60.998,25.266c-11.523-4.773-20.498-13.747-25.27-25.268c-4.771-11.52-4.77-24.208,0.005-35.731
			c4.768-11.519,13.738-20.491,25.259-25.263c5.762-2.387,11.813-3.58,17.868-3.58c6.053,0,12.108,1.193,17.869,3.58
			C176.439,384.197,187.774,411.56,177.921,435.339z"/>
		<circle cx="247.303" cy="284.712" r="7.5"/>
	</g>
</g>
<g>
</g>
<g>
</g>
<g>
</g>
<g>
</g>
<g>
</g>
<g>
</g>
<g>
</g>
<g>
</g>
<g>
</g>
<g>
</g>
<g>
</g>
<g>
</g>
<g>
</g>
<g>
</g>
<g>
</g>
</svg>
