<?xml version="1.0" encoding="iso-8859-1"?>
<!-- Generator: Adobe Illustrator 24.0.0, SVG Export Plug-In . SVG Version: 6.00 Build 0)  -->
<svg version="1.1" id="Capa_1" xmlns="http://www.w3.org/2000/svg" xmlns:xlink="http://www.w3.org/1999/xlink" x="0px" y="0px"
	 viewBox="0 0 511.997 511.997" style="enable-background:new 0 0 511.997 511.997;" xml:space="preserve">
<g>
	<g>
		<g>
			<path style="fill:#9BD069;" d="M298.123,168.214c20.338,25.254,36.807,51.041,49.249,72.856
				c6.783,11.903,12.368,22.617,16.717,31.421c6.994,14.165,3.202,31.285-9.132,41.152l-79.918,63.94
				c-12.334,9.868-29.868,9.81-42.153-0.121c-7.636-6.175-16.863-13.975-26.987-23.204c-18.553-16.926-40.097-38.652-60.274-64.036
				c-5.666-7.115-11.226-14.517-16.574-22.185c-9.873-14.141-13.656-31.66-10.416-48.596c0.514-2.682,0.94-5.586,1.231-8.7
				c1.523-16.277-0.733-38.306-14.529-63.678c-2.07-3.814-4.139-7.47-6.187-10.992c-6.756-11.571-13.353-21.572-19.469-30.067
				c-2.879-4.007-5.653-7.673-8.272-11.012l18.808-30.328l33.716-11.695c2.684,3.288,5.652,6.799,8.929,10.486
				c6.946,7.831,15.256,16.462,25.062,25.593c2.986,2.772,6.1,5.592,9.366,8.449c21.727,19.027,42.723,26.062,58.933,28.152
				c3.103,0.399,6.034,0.616,8.758,0.708c17.24,0.55,33.497,8.09,45.132,20.821C286.423,154.076,292.425,161.125,298.123,168.214z"
				/>
			<path style="fill:#80BC93;" d="M132.864,63.453c-3.277-3.688-6.245-7.199-8.929-10.486L90.219,64.662l-0.008,0.012l0.002-0.008
				L71.526,94.805l-0.115,0.185c0,0,0,0,0.001,0.001c8.198,10.435,17.805,24.055,27.741,41.079
				c2.049,3.522,4.117,7.178,6.187,10.992c13.795,25.372,16.052,47.401,14.529,63.678c-0.292,3.114-0.718,6.018-1.231,8.7
				c-3.241,16.936,0.542,34.455,10.416,48.596c5.349,7.669,10.909,15.071,16.574,22.185c20.176,25.384,41.721,47.11,60.274,64.036
				c10.124,9.23,19.351,17.03,26.987,23.204c12.285,9.931,29.82,9.989,42.153,0.121l19.845-15.877
				c-6.207,4.966-18.445,0.671-29.415-10.312c-6.822-6.826-15.144-15.35-24.438-25.243c-17.039-18.138-37.323-40.873-57.537-66.226
				c-5.676-7.106-11.344-14.422-16.93-21.901c-10.31-13.792-17.191-28.832-19.037-41.699c-0.289-2.04-0.699-4.275-1.247-6.717
				c-2.884-12.751-9.791-31.059-25.558-54.854c-2.367-3.577-4.694-7.026-6.979-10.358c-4.236-6.184-8.316-11.952-12.202-17.3
				c-4.781-6.58-3.53-15.758,2.821-20.839L132.864,63.453z"/>
			<path style="fill:#F4DD45;" d="M298.123,168.214c20.338,25.254,36.807,51.041,49.249,72.856
				c-17.418,20.325-39.857,41.972-65.818,62.742c-25.96,20.77-52.004,37.913-75.655,50.446
				c-18.553-16.926-40.097-38.652-60.274-64.036c17.986-21.901,42.116-45.599,70.441-68.262S272.819,180.956,298.123,168.214z"/>
			<path style="fill:#F4DD45;" d="M226.226,125.647c-5.112,20.076-19.221,41.465-40.45,58.45
				c-21.235,16.989-45.199,26.061-65.907,26.643c1.523-16.277-0.733-38.306-14.529-63.678c-2.07-3.814-4.139-7.47-6.187-10.992
				c8.5-7.711,18.422-15.711,28.913-24.105c10.491-8.393,20.473-16.318,29.861-22.919c2.986,2.772,6.1,5.592,9.366,8.449
				C189.02,116.521,210.016,123.556,226.226,125.647z"/>
			<path style="fill:#EAB14D;" d="M113.371,123.853c0.123,0.176,0.245,0.361,0.372,0.542c2.286,3.332,4.613,6.782,6.979,10.358
				c15.767,23.794,22.674,42.103,25.558,54.854c0.549,2.442,0.958,4.677,1.247,6.717c0.393,2.734,1.011,5.572,1.842,8.477
				c-10.134,3.681-20.15,5.676-29.502,5.938c1.523-16.277-0.733-38.306-14.529-63.678c-2.07-3.814-4.139-7.47-6.187-10.992
				C103.552,132.081,108.329,128.011,113.371,123.853z"/>
			<path style="fill:#9BD069;" d="M105.133,37.446L60.39,73.244c-5.146,4.117-5.98,11.626-1.863,16.772l0,0
				c4.117,5.146,11.626,5.98,16.772,1.863l44.743-35.798c5.146-4.117,5.98-11.626,1.863-16.772l0,0
				C117.788,34.163,110.279,33.329,105.133,37.446z"/>
			<path style="fill:#80BC93;" d="M93.379,77.421L75.307,91.88c-5.146,4.117-12.658,3.287-16.775-1.858l-0.004-0.005
				c-4.117-5.146-3.278-12.657,1.868-16.774l18.072-14.459c-5.151,4.121-5.985,11.628-1.868,16.774l0.004,0.005
				C80.72,80.708,88.227,81.542,93.379,77.421z"/>
			<path style="fill:#9D6B6B;" d="M66.917,13.358L45.275,30.673c-11.525,9.221-13.393,26.039-4.172,37.564l0,0
				c5.506,6.882,15.548,7.997,22.43,2.491l38.457-30.768c6.882-5.506,7.997-15.548,2.491-22.43l0,0
				C95.26,6.005,78.442,4.137,66.917,13.358z"/>
			<path style="fill:#785252;" d="M73.129,57.061c4.065,0.452,8.29-0.646,11.729-3.397L63.536,70.723
				c-3.446,2.757-7.671,3.854-11.736,3.403c-4.06-0.445-7.946-2.449-10.698-5.888c-9.22-11.524-7.351-28.35,4.173-37.57
				l21.329-17.064c-11.531,9.225-13.393,26.046-4.173,37.57C65.183,54.612,69.069,56.616,73.129,57.061z"/>
		</g>
		<g>
			<path style="fill:#E7ECF1;" d="M335.648,188.286l-22.571-22.571c-11.093-11.093-29.079-11.093-40.173,0l-22.571,22.571
				c-11.093,11.093-11.093,29.079,0,40.173l22.571,22.571c11.093,11.093,29.079,11.093,40.173,0l22.571-22.571
				C346.741,217.365,346.741,199.379,335.648,188.286z"/>
			<path style="fill:#C6D0DA;" d="M333.713,230.401l-20.629,20.629c-11.099,11.099-29.081,11.099-40.18,0l-22.572-22.572
				c-11.087-11.087-11.087-29.081,0-40.168l20.64-20.64c-11.099,11.099-11.099,29.082,0,40.18l22.572,22.572
				C304.631,241.488,322.626,241.488,333.713,230.401z"/>
		</g>
		<g>
			<path style="fill:#E7ECF1;" d="M266.874,220.986l-22.571-22.571c-11.093-11.093-29.079-11.093-40.173,0l-22.571,22.571
				c-11.093,11.093-11.093,29.079,0,40.173l22.571,22.571c11.093,11.093,29.079,11.093,40.173,0l22.571-22.571
				C277.968,250.065,277.968,232.079,266.874,220.986z"/>
			<path style="fill:#C6D0DA;" d="M264.939,263.1l-20.629,20.629c-11.099,11.099-29.081,11.099-40.18,0l-22.572-22.572
				c-11.087-11.087-11.087-29.081,0-40.168l20.64-20.64c-11.099,11.099-11.099,29.081,0,40.18l22.572,22.572
				C235.858,274.187,253.853,274.187,264.939,263.1z"/>
		</g>
		<g>
			<path style="fill:#E7ECF1;" d="M387.215,220.986l-22.571-22.571c-11.093-11.093-29.079-11.093-40.173,0l-22.571,22.571
				c-11.093,11.093-11.093,29.079,0,40.173l22.571,22.571c11.093,11.093,29.079,11.093,40.173,0l22.571-22.571
				C398.308,250.065,398.308,232.079,387.215,220.986z"/>
			<path style="fill:#C6D0DA;" d="M385.28,263.1l-20.629,20.629c-11.099,11.099-29.081,11.099-40.18,0l-22.572-22.572
				c-11.087-11.087-11.087-29.081,0-40.168l20.64-20.64c-11.099,11.099-11.099,29.081,0,40.18l22.572,22.572
				C356.199,274.187,374.193,274.187,385.28,263.1z"/>
		</g>
		<path style="fill:#90D8F9;" d="M396.875,464.13c29.767-83.685,15.495-215.765,15.495-215.765H101.764
			c0,0-14.273,132.081,15.494,215.765c8.647,24.311,31.896,40.367,57.699,40.367h164.219
			C364.978,504.497,388.227,488.441,396.875,464.13z"/>
		<path style="fill:#6BBEF6;" d="M221.328,504.492h-46.371c-25.804,0-49.05-16.052-57.698-40.362
			c-29.767-83.693-15.501-215.775-15.501-215.775h87.717c0,0-6.21,132.082,6.752,215.775
			C199.988,488.44,210.101,504.492,221.328,504.492z"/>
		<path style="fill:#6BBEF6;" d="M468.741,375.619L468.741,375.619c-10.684,10.684-28.006,10.684-38.69,0l-55.675-55.675
			c-10.684-10.684-10.684-28.006,0-38.69l0,0c10.684-10.684,28.006-10.684,38.69,0l55.675,55.675
			C479.424,347.613,479.424,364.935,468.741,375.619z"/>
		<path style="fill:#E7ECF1;" d="M161.975,332.542c0,0.636,0.012,1.269,0.036,1.899c0.838,22.293,34.509,22.293,35.347,0
			c0.024-0.63,0.036-1.263,0.036-1.899c0-15.262-6.884-28.911-17.709-38.03C168.859,303.632,161.975,317.28,161.975,332.542z"/>
		<path style="fill:#E7ECF1;" d="M312.776,411.279c0,0.636,0.012,1.269,0.036,1.899c0.838,22.293,34.509,22.293,35.348,0
			c0.024-0.63,0.036-1.263,0.036-1.899c0-15.262-6.884-28.911-17.709-38.03C319.66,382.368,312.776,396.017,312.776,411.279z"/>
		<path style="fill:#C6D0DA;" d="M347.746,416.569c-3.933,18.842-34.142,17.708-34.934-3.391c-0.02-0.632-0.03-1.264-0.03-1.906
			c0-13.916,5.719-26.487,14.939-35.506c-3.993,7.154-6.27,15.39-6.27,24.169c0,0.632,0.01,1.264,0.04,1.896
			C322.052,416.82,337.452,421.726,347.746,416.569z"/>
		<path style="fill:#C6D0DA;" d="M196.945,337.832c-3.933,18.842-34.142,17.708-34.934-3.391c-0.02-0.632-0.03-1.264-0.03-1.906
			c0-13.916,5.719-26.487,14.939-35.506c-3.993,7.153-6.27,15.39-6.27,24.169c0,0.632,0.01,1.264,0.04,1.896
			C171.251,338.083,186.651,342.989,196.945,337.832z"/>
	</g>
	<g>
		<path d="M474.041,331.625l-51.85-51.849c-0.999-19.443-2.31-31.684-2.368-32.219c-0.412-3.808-3.627-6.693-7.456-6.693h-9.349
			c-0.066-9.328-3.759-18.445-10.5-25.187l-22.573-22.562c-7.958-7.958-18.752-11.386-29.158-10.297l-22.412-22.412
			c-7.096-7.09-16.449-10.579-25.771-10.48c-2.328-2.673-4.657-5.287-6.952-7.802c-12.955-14.174-31.337-22.653-50.423-23.264
			c-2.635-0.087-5.351-0.305-8.044-0.644c-8.669-1.123-17.314-3.586-25.692-7.319c-3.783-1.685-8.217,0.016-9.903,3.799
			c-1.686,3.784,0.015,8.217,3.798,9.903c6.896,3.072,13.966,5.389,21.117,6.953c-6.258,16.747-18.822,33.412-35.416,46.689
			c-16.593,13.275-35.605,21.877-53.314,24.31c0.16-19.563-5.148-39.391-15.845-59.065c-1.057-1.95-2.132-3.891-3.238-5.85
			c7.167-6.244,15.204-12.73,24.058-19.813c8.852-7.083,16.944-13.501,24.607-19.122c1.648,1.489,3.314,2.973,4.99,4.444
			c1.995,1.747,3.972,3.388,5.877,4.879c1.372,1.074,3,1.594,4.617,1.594c2.228,0,4.433-0.988,5.912-2.878
			c2.553-3.262,1.978-7.975-1.284-10.528c-1.688-1.322-3.452-2.786-5.236-4.348c-3.123-2.738-6.218-5.532-9.196-8.299
			c-8.783-8.172-17.046-16.611-24.564-25.085c-2.322-2.612-4.597-5.289-6.827-7.975c0.102-0.526,0.196-1.055,0.256-1.594
			c0.573-5.159-0.897-10.232-4.14-14.285c-3.084-3.855-7.428-6.327-12.284-7.055c0.026-5.343-1.755-10.494-5.14-14.724
			C104.628,5.71,96.479,1.222,87.393,0.213c-9.086-1.007-18.021,1.58-25.159,7.291L40.592,24.819
			c-14.736,11.79-17.133,33.37-5.343,48.106c3.384,4.23,8.02,7.093,13.237,8.24c-0.357,4.899,1.101,9.681,4.186,13.538
			c3.714,4.642,9.138,7.121,14.661,7.27c2.197,2.852,4.264,5.626,6.268,8.42c6.55,9.084,12.966,18.996,19.071,29.464
			c2.157,3.694,4.144,7.22,6.078,10.786c10.876,20.004,15.468,39.987,13.648,59.399c-0.254,2.73-0.632,5.417-1.122,7.984
			c-1.435,7.498-1.631,15.25-0.618,22.837h-8.892c-3.83,0-7.045,2.886-7.456,6.694c-0.59,5.463-14.116,134.754,15.881,219.092
			c9.649,27.124,35.676,45.348,64.763,45.348H339.17c23.038,0,44.402-11.308,57.148-30.251c2.312-3.436,1.401-8.097-2.036-10.41
			c-3.436-2.311-8.097-1.401-10.41,2.036c-9.954,14.793-26.666,23.625-44.703,23.625H174.955c-22.757,0-43.104-14.216-50.631-35.375
			c-25.075-70.502-18.067-178.037-15.719-205.759h296.933c0.27,3.138,0.601,7.306,0.938,12.305
			c-12.514-4.902-27.31-2.313-37.406,7.782c-13.591,13.591-13.591,35.705,0,49.296l38.028,38.028
			c-1.96,32.736-6.289,61.143-12.892,84.451c-1.129,3.985,1.186,8.131,5.171,9.26c0.684,0.194,1.372,0.286,2.048,0.286
			c3.27,0,6.277-2.156,7.212-5.457c5.988-21.136,10.176-46.146,12.503-74.498l3.605,3.605c6.795,6.795,15.721,10.193,24.648,10.193
			c8.926,0,17.852-3.397,24.648-10.193C487.632,367.329,487.632,345.216,474.041,331.625z M46.962,63.554
			c-6.622-8.277-5.276-20.4,3.001-27.022l21.642-17.315c3.442-2.754,7.628-4.216,11.973-4.216c0.716,0,1.437,0.04,2.16,0.12
			c5.103,0.567,9.681,3.087,12.889,7.097c1.411,1.764,2.051,3.972,1.802,6.218c-0.249,2.245-1.358,4.259-3.121,5.67L58.845,64.879
			c-1.763,1.408-3.969,2.047-6.213,1.798C50.387,66.427,48.373,65.318,46.962,63.554z M63.441,82.074
			c0.13-1.177,0.711-2.232,1.636-2.972l44.743-35.797c0.793-0.635,1.759-0.972,2.761-0.972c0.165,0,0.331,0.009,0.498,0.027
			c1.177,0.131,2.232,0.712,2.972,1.637c0.74,0.924,1.075,2.082,0.944,3.259c-0.13,1.177-0.711,2.232-1.636,2.972L70.616,86.024
			c-0.924,0.74-2.082,1.073-3.259,0.944c-1.177-0.13-2.232-0.711-2.972-1.636C63.646,84.408,63.31,83.251,63.441,82.074z
			 M85.779,101.635c-1.285-1.791-2.596-3.575-3.946-5.375l41.054-32.847c1.442,1.691,2.9,3.372,4.37,5.026
			c5.917,6.669,12.275,13.314,18.97,19.831c-7.2,5.364-14.715,11.334-22.847,17.84c-8.134,6.508-15.609,12.531-22.424,18.38
			C96.035,116.466,90.948,108.803,85.779,101.635z M359.341,203.722l22.572,22.562c3.903,3.903,6.047,9.176,6.107,14.579H301.09
			c0.059-5.398,2.204-10.671,6.111-14.577l22.574-22.565c3.95-3.95,9.2-6.125,14.782-6.125
			C350.141,197.595,355.39,199.771,359.341,203.722z M325.093,188.335c-2.098,1.354-4.087,2.942-5.923,4.778l-22.574,22.565
			c-6.746,6.746-10.439,15.862-10.503,25.185h-3.406c-0.069-9.325-3.764-18.442-10.509-25.187l-19.048-19.04
			c0.736-1.082,1.563-2.107,2.505-3.049l22.571-22.571c8.152-8.145,21.417-8.145,29.567-0.002L325.093,188.335z M238.999,203.722
			l22.572,22.562c3.906,3.906,6.053,9.179,6.116,14.579h-86.935c0.06-5.403,2.204-10.676,6.107-14.577l22.574-22.565
			c3.95-3.95,9.2-6.125,14.782-6.125C229.799,197.595,235.048,199.771,238.999,203.722z M126.009,220.843
			c0.191-1,0.344-2.031,0.506-3.056c21.33-2.183,44.283-12.102,63.947-27.834c19.66-15.729,34.399-35.945,41.208-56.276
			c1.027,0.066,2.058,0.141,3.071,0.175c15.076,0.482,29.598,7.186,39.837,18.388c0.544,0.596,1.092,1.205,1.64,1.812
			c-3.101,1.634-6.011,3.752-8.617,6.355l-22.573,22.573c-1.275,1.275-2.438,2.632-3.494,4.059
			c-5.245-2.898-11.161-4.445-17.318-4.445c-9.589,0-18.605,3.736-25.387,10.517l-22.574,22.565
			c-6.741,6.741-10.433,15.858-10.499,25.186H125.84C124.712,234.243,124.751,227.42,126.009,220.843z M468.738,375.617
			l-5.303-5.303c-7.742,7.742-20.339,7.742-28.083,0l-55.675-55.675c-7.743-7.743-7.743-20.341,0-28.083
			c3.872-3.872,8.956-5.807,14.041-5.807c5.084,0,10.171,1.936,14.041,5.807l55.675,55.675c7.742,7.742,7.742,20.34,0,28.083
			L468.738,375.617z"/>
		<path d="M174.854,288.776c-12.95,10.909-20.377,26.861-20.377,43.766c0,0.731,0.014,1.459,0.041,2.181
			c0.591,15.715,13.108,23.938,25.168,23.938c0.001,0,0,0,0,0c12.059,0,24.577-8.224,25.168-23.941
			c0.027-0.722,0.041-1.449,0.041-2.178c0-16.905-7.427-32.857-20.377-43.766C181.726,286.424,177.646,286.424,174.854,288.776z
			 M189.895,332.542c0,0.542-0.01,1.083-0.03,1.617c-0.165,4.383-2.93,9.502-10.18,9.502c-7.249,0-10.014-5.119-10.179-9.505
			c-0.021-0.536-0.03-1.074-0.03-1.614c0-10.187,3.659-19.908,10.209-27.515C186.236,312.634,189.895,322.354,189.895,332.542z"/>
		<path d="M325.653,367.512c-12.95,10.909-20.377,26.861-20.377,43.766c0,0.729,0.014,1.456,0.041,2.181
			c0.591,15.716,13.109,23.938,25.169,23.938s24.577-8.223,25.168-23.935c0.027-0.724,0.041-1.453,0.041-2.184
			c0-16.905-7.427-32.857-20.377-43.766C332.525,365.16,328.445,365.16,325.653,367.512z M340.694,411.277
			c0,0.541-0.01,1.079-0.03,1.617c-0.165,4.383-2.93,9.502-10.179,9.502c-7.25,0-10.015-5.119-10.18-9.499
			c-0.02-0.538-0.03-1.078-0.03-1.62c0-10.187,3.659-19.908,10.209-27.515C337.035,391.369,340.694,401.09,340.694,411.277z"/>
		<path d="M315.842,93.939c-5.307,4.677-12.574,11.081-12.574,23.31c0,4.142,3.358,7.5,7.5,7.5c4.142,0,7.5-3.358,7.5-7.5
			c0-5.223,2.432-7.598,7.492-12.056c5.307-4.677,12.574-11.081,12.574-23.31s-7.267-18.633-12.574-23.31
			c-5.06-4.458-7.492-6.833-7.492-12.056c0-5.221,2.432-7.596,7.491-12.054c5.307-4.676,12.575-11.079,12.575-23.307
			c0-4.142-3.358-7.5-7.5-7.5c-4.142,0-7.5,3.358-7.5,7.5c0,5.221-2.432,7.596-7.491,12.053
			c-5.307,4.676-12.575,11.08-12.575,23.308c0,12.229,7.268,18.633,12.574,23.31c5.06,4.458,7.492,6.833,7.492,12.056
			C323.334,87.106,320.902,89.481,315.842,93.939z"/>
		<path d="M365.85,130.044c-5.307,4.677-12.574,11.081-12.574,23.31c0,4.142,3.358,7.5,7.5,7.5s7.5-3.358,7.5-7.5
			c0-5.223,2.432-7.598,7.492-12.056c5.306-4.677,12.574-11.081,12.574-23.31c0-12.229-7.267-18.633-12.574-23.31
			c-5.06-4.458-7.492-6.833-7.492-12.056c0-5.221,2.432-7.596,7.491-12.054c5.307-4.676,12.574-11.079,12.574-23.307
			c0-4.142-3.358-7.5-7.5-7.5c-4.142,0-7.5,3.358-7.5,7.5c0,5.221-2.432,7.596-7.491,12.054
			c-5.307,4.676-12.574,11.08-12.574,23.308c0,12.229,7.267,18.633,12.574,23.31c5.06,4.458,7.492,6.833,7.492,12.056
			S370.909,125.586,365.85,130.044z"/>
	</g>
</g>
<g>
</g>
<g>
</g>
<g>
</g>
<g>
</g>
<g>
</g>
<g>
</g>
<g>
</g>
<g>
</g>
<g>
</g>
<g>
</g>
<g>
</g>
<g>
</g>
<g>
</g>
<g>
</g>
<g>
</g>
</svg>
