<?xml version="1.0" encoding="iso-8859-1"?>
<!-- Generator: Adobe Illustrator 24.0.0, SVG Export Plug-In . SVG Version: 6.00 Build 0)  -->
<svg version="1.1" id="Capa_1" xmlns="http://www.w3.org/2000/svg" xmlns:xlink="http://www.w3.org/1999/xlink" x="0px" y="0px"
	 viewBox="0 0 511.957 511.957" style="enable-background:new 0 0 511.957 511.957;" xml:space="preserve">
<g>
	<g>
		<path style="fill:#90D8F9;" d="M402.061,144.416l-37.97-37.97c-10.221-10.221-26.793-10.221-37.014,0l-31.01,31.01l74.983,74.983
			l31.01-31.01C412.282,171.209,412.282,154.637,402.061,144.416z"/>
		<path style="fill:#6BBEF6;" d="M388.144,130.498c-10.218-10.218-26.796-10.218-37.014,0l-31.015,31.015l-24.052-24.052
			l31.015-31.015c10.218-10.218,26.796-10.218,37.014,0L388.144,130.498z"/>
		<path style="fill:#E7ECF1;" d="M127.715,500.548c-11.905,1.964-24.016-1.964-32.547-10.494l-76.722-76.722
			c-8.523-8.523-12.451-20.634-10.487-32.539c15.061-91.286,75.864-161.577,121.486-202.816c4.779-4.325,9.388-8.325,13.77-11.997
			l32.752-29.675l13.359-12.111c0,0,38.893-37.503,99.051-21.194l117.125,117.125c16.316,60.165-21.187,99.058-21.187,99.058
			l-12.111,13.359l-29.667,32.745c-3.673,4.382-7.679,8.998-12.005,13.777C289.285,424.691,219.002,485.501,127.715,500.548z"/>
		<path style="fill:#C6D0DA;" d="M37.551,432.442l-19.11-19.11c-8.523-8.523-12.451-20.634-10.487-32.539
			C24.589,279.948,97.056,204.73,143.21,165.979l46.111-41.786c0,0,38.893-37.503,99.058-21.187l29.171,29.171
			c-41.119,2.73-79.664,40.58-79.664,40.58l-45.033,42.863c-44.31,40.594-117.465,115.125-155.067,195.002
			C33.346,420.054,33.275,428.166,37.551,432.442z"/>
		<path style="fill:#C6D0DA;" d="M330.532,379.062L129.446,177.976c4.779-4.325,9.388-8.325,13.77-11.997l32.752-29.675
			L372.204,332.54l-29.667,32.745C338.863,369.667,334.857,374.283,330.532,379.062z"/>
		<path style="fill:#F4DD45;" d="M384.31,319.182L189.321,124.193c-8.759-8.759-22.961-8.759-31.72,0l-12.373,12.373
			c-8.759,8.759-8.759,22.961,0,31.72l194.989,194.989c8.759,8.759,22.961,8.759,31.72,0l12.373-12.373
			C393.069,342.143,393.069,327.942,384.31,319.182z"/>
		<path style="fill:#EAB14D;" d="M194.792,217.855l-49.564-49.564c-8.764-8.764-8.757-22.967,0-31.724l12.373-12.373
			c8.757-8.757,22.96-8.764,31.724,0l49.564,49.564c-8.757-8.757-22.96-8.75-31.717,0.007l-12.373,12.373
			C186.042,194.895,186.034,209.098,194.792,217.855z"/>
		<path style="fill:#E7ECF1;" d="M446.509,39.512l-84.92-26.795c-20.17-6.364-41.681,4.827-48.045,24.998l-14.315,45.369
			l157.963,49.843l14.315-45.369C477.871,67.387,466.679,45.877,446.509,39.512z"/>
		<path style="fill:#C6D0DA;" d="M408.957,27.653c-20.168-6.364-41.681,4.829-48.048,25.007l-14.315,45.367l-47.366-14.946
			l14.315-45.367c6.367-20.178,27.87-31.374,48.048-25.007L408.957,27.653z"/>
		<path style="fill:#DA4A54;" d="M427.324,162.043c0,0,59.459,2.9,74.238,50.16c14.779,47.26-31.259,56.469-42.871,19.336
			S427.324,162.043,427.324,162.043z"/>
		<path style="fill:#C63D4F;" d="M458.691,231.539c-11.612-37.133-31.367-69.493-31.367-69.493s32.682,21.869,37.977,38.806
			c9.135,29.211,31.566,37.757,36.931,13.63C514.847,259.757,470.113,268.07,458.691,231.539z"/>
	</g>
	<g>
		<path d="M417.207,162.936c0-8.997-3.505-17.454-9.867-23.809l-20.511-20.516l68.082,21.479c0.737,0.232,1.497,0.348,2.256,0.348
			c1.194,0,2.382-0.285,3.461-0.847c1.764-0.918,3.092-2.5,3.69-4.396l14.307-45.358c5.584-17.686,0.034-36.829-14.14-48.771
			c-3.169-2.668-7.899-2.264-10.567,0.903c-2.669,3.168-2.264,7.898,0.903,10.567c9.527,8.026,13.256,20.895,9.501,32.786
			l-12.052,38.208L308.63,78.213l12.061-38.211c2.472-7.845,7.851-14.256,15.146-18.052c7.296-3.796,15.634-4.523,23.482-2.046
			l70.566,22.268c3.949,1.244,8.161-0.946,9.408-4.895c1.246-3.949-0.945-8.161-4.895-9.408L363.832,5.601
			C352.166,1.92,339.764,3,328.915,8.645c-10.851,5.646-18.851,15.181-22.527,26.845L292.069,80.85
			c-0.599,1.897-0.419,3.954,0.499,5.718c0.918,1.764,2.499,3.092,4.396,3.69l27.324,8.621c-0.871,0.711-1.714,1.472-2.526,2.284
			l-12.315,12.322l-15.769-15.769c-0.926-0.926-2.077-1.593-3.341-1.935c-51.59-13.984-88.301,8.841-101.196,18.8
			c-11.528-7.087-26.852-5.65-36.83,4.328L139.94,131.28c-8.914,8.914-11.009,22.095-6.304,33.025
			c-30.234,26.035-70.388,66.868-99.274,119.609c-1.989,3.632-0.658,8.19,2.975,10.179c1.143,0.626,2.378,0.923,3.595,0.923
			c2.651,0,5.221-1.409,6.584-3.898c27.579-50.355,65.976-89.574,95.145-114.795l189.519,189.519
			c-17.672,20.418-44.44,47.883-78.139,72.02c-41.185,29.498-84.093,48.086-127.535,55.247c-9.478,1.566-19.2-1.572-26.012-8.391
			l-76.712-76.712c-6.818-6.818-9.955-16.542-8.391-26.013c3.561-21.587,10.02-43.287,19.196-64.497
			c1.645-3.801-0.104-8.216-3.905-9.86c-3.803-1.645-8.216,0.104-9.86,3.905c-9.663,22.334-16.468,45.217-20.229,68.011
			c-2.349,14.229,2.355,28.831,12.584,39.06l76.709,76.709c8.487,8.496,19.994,13.182,31.805,13.182
			c2.414,0,4.841-0.196,7.257-0.595c45.729-7.539,90.755-27.003,133.826-57.852c35.301-25.283,63.201-54.039,81.427-75.186
			c3.775,1.625,7.817,2.446,11.861,2.446c7.663,0,15.327-2.917,21.16-8.751l12.372-12.372c9.978-9.978,11.415-25.302,4.328-36.83
			c9.959-12.896,32.783-49.607,18.8-101.196c-0.342-1.264-1.01-2.415-1.935-3.341l-15.764-15.764l12.313-12.312
			C413.702,180.39,417.207,171.933,417.207,162.936z M378.99,345.587l-12.372,12.372c-5.82,5.821-15.29,5.82-21.111,0
			L150.545,162.996c-5.82-5.82-5.82-15.29,0-21.111l12.372-12.371c2.91-2.91,6.732-4.365,10.555-4.365
			c3.823,0,7.645,1.455,10.555,4.365L378.99,324.476C384.81,330.296,384.81,339.767,378.99,345.587z M394.343,288.705
			c-3.516,8.405-7.585,14.922-10.671,19.243L200.556,124.833c4.321-3.086,10.838-7.155,19.243-10.671
			c20.555-8.599,42.314-10.079,64.711-4.404l114.237,114.237C404.422,246.39,402.942,268.15,394.343,288.705z M396.734,176.141
			l-12.315,12.315l-64.366-64.366l12.317-12.323c4.443-4.443,10.589-6.158,16.361-5.176l4.818,1.52
			c1.891,0.891,3.669,2.095,5.23,3.655l37.958,37.968c3.529,3.525,5.472,8.214,5.472,13.202
			C402.209,167.924,400.266,172.613,396.734,176.141z"/>
		<path d="M248.81,60.567c1.464,1.464,3.383,2.196,5.302,2.196c1.919,0,3.838-0.732,5.302-2.196c2.929-2.928,2.929-7.677,0-10.605
			L236.8,27.348c-2.928-2.928-7.677-2.928-10.605,0c-2.929,2.928-2.929,7.677,0,10.605L248.81,60.567z"/>
		<path d="M213.389,76.564l22.615,8.68c0.884,0.339,1.792,0.5,2.686,0.5c3.015,0,5.858-1.831,7.002-4.814
			c1.484-3.867-0.447-8.204-4.314-9.688l-22.615-8.68c-3.866-1.484-8.204,0.448-9.688,4.314
			C207.591,70.742,209.523,75.08,213.389,76.564z"/>
		<path d="M270.089,42.531c1.145,2.982,3.988,4.814,7.002,4.814c0.893,0,1.802-0.161,2.686-0.5c3.867-1.484,5.798-5.821,4.314-9.688
			l-8.68-22.615c-1.484-3.867-5.823-5.798-9.688-4.314c-3.867,1.484-5.798,5.821-4.314,9.688L270.089,42.531z"/>
		<path d="M508.685,209.971c-6.74-21.554-23.009-37.989-47.046-47.529c-17.664-7.01-33.316-7.845-33.974-7.877
			c-2.787-0.132-5.395,1.274-6.812,3.661c-1.418,2.387-1.4,5.364,0.045,7.735c0.193,0.316,19.426,32.061,30.608,67.819
			c4.528,14.479,14.449,24.742,26.539,27.452c2.047,0.459,4.095,0.684,6.113,0.684c7.358,0,14.323-2.985,19.398-8.497
			C508.774,247.751,516.378,234.571,508.685,209.971z M492.523,243.26c-2.836,3.08-6.917,4.297-11.197,3.337
			c-6.799-1.524-12.596-7.989-15.506-17.294c-7.248-23.176-17.458-44.314-24.414-57.432c17.075,3.997,44.234,14.655,52.964,42.575
			C498.347,227.163,497.673,237.665,492.523,243.26z"/>
	</g>
</g>
<g>
</g>
<g>
</g>
<g>
</g>
<g>
</g>
<g>
</g>
<g>
</g>
<g>
</g>
<g>
</g>
<g>
</g>
<g>
</g>
<g>
</g>
<g>
</g>
<g>
</g>
<g>
</g>
<g>
</g>
</svg>
