<?xml version="1.0" encoding="iso-8859-1"?>
<!-- Generator: Adobe Illustrator 24.0.0, SVG Export Plug-In . SVG Version: 6.00 Build 0)  -->
<svg version="1.1" id="Capa_1" xmlns="http://www.w3.org/2000/svg" xmlns:xlink="http://www.w3.org/1999/xlink" x="0px" y="0px"
	 viewBox="0 0 512 512" style="enable-background:new 0 0 512 512;" xml:space="preserve">
<g>
	<g>
		<path style="fill:#DA4A54;" d="M198.095,275.512c-8.284,0-15-6.716-15-15c0-20.974,12.25-31.77,21.195-39.652
			c8.171-7.201,11.03-10.329,11.03-17.146c0-6.816-2.859-9.944-11.03-17.145c-8.945-7.882-21.195-18.678-21.195-39.652
			c0-20.973,12.25-31.768,21.196-39.649c8.17-7.199,11.029-10.326,11.029-17.14c0-8.284,6.716-15,15-15s15,6.716,15,15
			c0,20.972-12.25,31.767-21.195,39.649c-8.17,7.199-11.029,10.326-11.029,17.141c0,6.817,2.859,9.945,11.03,17.146
			c8.945,7.882,21.195,18.678,21.195,39.652c0,20.974-12.25,31.77-21.195,39.652c-8.171,7.201-11.03,10.329-11.03,17.146
			C213.095,268.796,206.379,275.512,198.095,275.512z"/>
		<path style="fill:#C63D4F;" d="M235.815,76.166c-5.57,2.18-9.52,7.61-9.52,13.96c0,6.81-2.86,9.94-11.03,17.14
			c-8.94,7.88-21.19,18.68-21.19,39.65s12.25,31.77,21.19,39.65c8.17,7.2,11.03,10.33,11.03,17.15c0,6.81-2.86,9.94-11.03,17.14
			c-8.94,7.89-21.19,18.68-21.19,39.66c0,6.34,3.94,11.77,9.51,13.96c-1.7,0.67-3.55,1.04-5.49,1.04c-8.28,0-15-6.72-15-15
			c0-20.98,12.25-31.77,21.2-39.66c8.17-7.2,11.03-10.33,11.03-17.14c0-6.82-2.86-9.95-11.03-17.15
			c-8.95-7.88-21.2-18.68-21.2-39.65s12.25-31.77,21.2-39.65c8.17-7.2,11.03-10.33,11.03-17.14c0-8.28,6.71-15,15-15
			C232.265,75.127,234.115,75.496,235.815,76.166z"/>
		<path style="fill:#9BD069;" d="M94.284,100.265L72.643,78.623c-6.751-6.751-6.751-17.696,0-24.447l21.641-21.641
			c6.751-6.751,17.696-6.751,24.447,0l21.641,21.641c6.751,6.751,6.751,17.696,0,24.447l-21.641,21.641
			C111.98,107.015,101.035,107.015,94.284,100.265z"/>
		<path style="fill:#9BD069;" d="M147.515,386.398l4.258,8.627c2.207,4.473,6.474,7.573,11.41,8.29l9.52,1.383
			c12.43,1.806,17.393,17.081,8.399,25.848l-6.889,6.715c-3.572,3.481-5.201,8.497-4.358,13.413l1.626,9.482
			c2.123,12.379-10.87,21.82-21.988,15.975l-8.515-4.477c-4.415-2.321-9.689-2.321-14.104,0l-8.515,4.477
			c-11.117,5.845-24.111-3.596-21.988-15.975l1.626-9.482c0.843-4.916-0.787-9.932-4.358-13.413l-6.889-6.715
			c-8.994-8.767-4.031-24.042,8.399-25.848l9.52-1.383c4.936-0.717,9.203-3.817,11.41-8.29l4.258-8.627
			C125.896,375.135,141.957,375.135,147.515,386.398z"/>
		<path style="fill:#80BC93;" d="M142.981,380.926c-1.83,1.35-3.4,3.17-4.53,5.47l-4.26,8.62c-2.21,4.48-6.48,7.58-11.41,8.29
			l-9.52,1.39c-12.43,1.8-17.39,17.08-8.4,25.85l6.89,6.71c3.57,3.48,5.2,8.5,4.36,13.41l-1.63,9.49
			c-1.06,6.19,1.66,11.65,6.05,14.83l-2.17,1.14c-11.11,5.85-24.11-3.6-21.98-15.97l1.62-9.49c0.84-4.91-0.78-9.93-4.36-13.41
			l-6.89-6.71c-8.99-8.77-4.03-24.05,8.4-25.85l9.52-1.39c4.94-0.71,9.21-3.81,11.41-8.29l4.26-8.62
			C124.771,377.426,135.841,375.596,142.981,380.926z"/>
		<circle style="fill:#90D8F9;" cx="29.78" cy="209.805" r="22.28"/>
		<circle style="fill:#F4DD45;" cx="233.515" cy="352.72" r="22.28"/>
		<circle style="fill:#9BD069;" cx="482.22" cy="38.268" r="22.28"/>
		<circle style="fill:#DA4A54;" cx="413.775" cy="254.699" r="22.28"/>
		<path style="fill:#F4DD45;" d="M103.26,303.883c0.091,13.745,0.181,27.49,0.272,41.234c-32.354,0.213-62.714-15.607-81.076-42.246
			c11.317-7.8,22.634-15.601,33.951-23.402C67.018,294.864,84.563,304.006,103.26,303.883z"/>
		<path style="fill:#F4DD45;" d="M475.151,350.034c9.783,9.655,19.566,19.31,29.349,28.965
			c-22.727,23.028-55.382,33.31-87.202,27.457c2.487-13.518,4.973-27.036,7.46-40.555
			C443.147,369.284,462.017,363.342,475.151,350.034z"/>
		<g>
			<path style="fill:#90D8F9;" d="M320.122,496.013c-8.284,0-15-6.716-15-15c0-20.974,12.25-31.77,21.195-39.652
				c8.171-7.201,11.03-10.329,11.03-17.146c0-6.816-2.859-9.944-11.03-17.145c-8.945-7.882-21.195-18.678-21.195-39.652
				c0-20.973,12.25-31.768,21.196-39.649c8.17-7.199,11.029-10.326,11.029-17.14c0-8.284,6.716-15,15-15s15,6.716,15,15
				c0,20.972-12.25,31.767-21.195,39.649c-8.17,7.199-11.029,10.326-11.029,17.141c0,6.817,2.859,9.945,11.03,17.146
				c8.945,7.882,21.195,18.678,21.195,39.652c0,20.974-12.25,31.77-21.195,39.652c-8.171,7.201-11.03,10.329-11.03,17.146
				C335.122,489.297,328.406,496.013,320.122,496.013z"/>
			<path style="fill:#6BBEF6;" d="M357.842,296.663c-5.57,2.18-9.52,7.61-9.52,13.96c0,6.81-2.86,9.94-11.03,17.14
				c-8.94,7.88-21.19,18.68-21.19,39.65s12.25,31.77,21.19,39.65c8.17,7.2,11.03,10.33,11.03,17.15c0,6.81-2.86,9.94-11.03,17.14
				c-8.94,7.89-21.19,18.68-21.19,39.66c0,6.34,3.94,11.77,9.51,13.96c-1.7,0.67-3.55,1.04-5.49,1.04c-8.28,0-15-6.72-15-15
				c0-20.98,12.25-31.77,21.2-39.66c8.17-7.2,11.03-10.33,11.03-17.14c0-6.82-2.86-9.95-11.03-17.15
				c-8.95-7.88-21.2-18.68-21.2-39.65s12.25-31.77,21.2-39.65c8.17-7.2,11.03-10.33,11.03-17.14c0-8.28,6.71-15,15-15
				C354.292,295.623,356.142,295.993,357.842,296.663z"/>
		</g>
		<g>
			<path style="fill:#F4DD45;" d="M402.502,79.295l4.258,8.627c2.207,4.473,6.474,7.573,11.41,8.29l9.52,1.383
				c12.43,1.806,17.393,17.081,8.399,25.848l-6.889,6.715c-3.572,3.481-5.201,8.497-4.358,13.413l1.626,9.482
				c2.123,12.379-10.87,21.82-21.988,15.975l-8.515-4.477c-4.415-2.321-9.689-2.321-14.104,0l-8.515,4.477
				c-11.117,5.845-24.111-3.596-21.988-15.975l1.626-9.482c0.843-4.916-0.787-9.932-4.358-13.413l-6.889-6.715
				c-8.994-8.767-4.031-24.042,8.399-25.848l9.52-1.383c4.936-0.717,9.203-3.817,11.41-8.29l4.258-8.627
				C380.882,68.032,396.943,68.032,402.502,79.295z"/>
			<path style="fill:#EAB14D;" d="M397.967,73.823c-1.83,1.35-3.4,3.17-4.53,5.47l-4.26,8.62c-2.21,4.48-6.48,7.58-11.41,8.29
				l-9.52,1.39c-12.43,1.8-17.39,17.08-8.4,25.85l6.89,6.71c3.57,3.48,5.2,8.5,4.36,13.41l-1.63,9.49
				c-1.06,6.19,1.66,11.65,6.05,14.83l-2.17,1.14c-11.11,5.85-24.11-3.6-21.98-15.97l1.62-9.49c0.84-4.91-0.78-9.93-4.36-13.41
				l-6.89-6.71c-8.99-8.77-4.03-24.05,8.4-25.85l9.52-1.39c4.94-0.71,9.21-3.81,11.41-8.29l4.26-8.62
				C379.757,70.323,390.827,68.493,397.967,73.823z"/>
		</g>
	</g>
	<g>
		<path d="M198.1,283.01c-12.407,0-22.5-10.093-22.5-22.5c0-24.358,14.281-36.946,23.73-45.276
			c8.153-7.184,8.489-8.319,8.489-11.523c0-3.196-0.336-4.329-8.489-11.513c-6.923-6.108-16.366-14.439-20.983-28.047
			c-1.331-3.922,0.77-8.181,4.693-9.512c3.923-1.33,8.182,0.771,9.512,4.693c3.333,9.822,10.42,16.076,16.674,21.593
			c8.437,7.435,13.593,12.502,13.593,22.787c0,10.295-5.157,15.362-13.571,22.777c-8.741,7.705-18.648,16.438-18.648,34.023
			c0,4.136,3.364,7.5,7.5,7.5s7.5-3.364,7.5-7.5c0-10.293,5.153-15.357,13.562-22.767c8.751-7.715,18.658-16.449,18.658-34.033
			c0-17.595-9.911-26.322-18.656-34.021c-8.411-7.412-13.564-12.476-13.564-22.769c0-10.308,5.155-15.368,13.565-22.77
			c8.748-7.712,18.655-16.445,18.655-34.02c0-4.136-3.364-7.5-7.5-7.5s-7.5,3.364-7.5,7.5c0,10.285-5.157,15.352-13.571,22.767
			c-6.29,5.549-13.368,11.793-16.696,21.611c-1.331,3.924-5.59,6.024-9.511,4.695c-3.923-1.33-6.025-5.588-4.695-9.511
			c4.612-13.605,14.045-21.927,20.933-28.003c8.204-7.23,8.54-8.363,8.54-11.559c0-12.407,10.093-22.5,22.5-22.5
			s22.5,10.093,22.5,22.5c0,24.348-14.279,36.936-23.729,45.266c-8.155,7.178-8.491,8.313-8.491,11.524
			c0,3.203,0.336,4.337,8.479,11.514c9.452,8.322,23.741,20.903,23.741,45.276c0,24.357-14.279,36.945-23.728,45.275
			c-8.156,7.188-8.492,8.322-8.492,11.525C220.6,272.917,210.507,283.01,198.1,283.01z"/>
		<g>
			<path d="M320.122,503.513c-12.406,0-22.5-10.093-22.5-22.5c0-24.362,14.284-36.95,23.736-45.279
				c8.151-7.184,8.488-8.317,8.488-11.519c0-3.201-0.337-4.334-8.488-11.518c-9.452-8.329-23.736-20.916-23.736-45.279
				c0-24.361,14.285-36.948,23.738-45.277c8.149-7.182,8.486-8.314,8.486-11.513c0-12.407,10.094-22.5,22.5-22.5
				s22.5,10.093,22.5,22.5c0,24.361-14.284,36.947-23.737,45.276c-8.15,7.183-8.487,8.315-8.487,11.513
				c0,3.201,0.337,4.334,8.489,11.519c9.451,8.33,23.735,20.917,23.735,45.279c0,24.36-14.283,36.948-23.734,45.278
				c-8.153,7.185-8.49,8.319-8.49,11.52C342.622,493.419,332.528,503.513,320.122,503.513z M352.347,303.128
				c-4.136,0-7.5,3.364-7.5,7.5c0,10.288-5.156,15.354-13.57,22.767c-8.744,7.705-18.654,16.437-18.654,34.022
				c0,17.588,9.91,26.321,18.653,34.025c8.414,7.415,13.571,12.481,13.571,22.772s-5.157,15.357-13.57,22.772
				c-8.744,7.705-18.654,16.438-18.654,34.025c0,4.136,3.364,7.5,7.5,7.5s7.5-3.364,7.5-7.5c0-10.29,5.157-15.357,13.571-22.772
				c8.744-7.706,18.653-16.439,18.653-34.025c0-17.587-9.91-26.32-18.653-34.025c-8.414-7.416-13.571-12.482-13.571-22.772
				c0-10.287,5.157-15.354,13.571-22.768c8.743-7.704,18.653-16.436,18.653-34.022C359.847,306.492,356.482,303.128,352.347,303.128
				z"/>
		</g>
		<path d="M106.507,112.816c-6.347,0-12.694-2.416-17.526-7.248L67.34,83.927c-4.682-4.682-7.26-10.906-7.26-17.527
			s2.579-12.845,7.26-17.527l21.641-21.641c4.681-4.682,10.906-7.26,17.526-7.26s12.845,2.579,17.527,7.26l21.641,21.641
			c4.682,4.681,7.26,10.906,7.26,17.526s-2.579,12.845-7.26,17.527l-21.641,21.641C119.202,110.4,112.854,112.816,106.507,112.816z
			 M106.507,34.972c-2.614,0-5.071,1.018-6.919,2.867L77.946,59.48c-1.849,1.849-2.867,4.306-2.867,6.92
			c0,2.614,1.018,5.072,2.867,6.92l21.641,21.641c3.815,3.815,10.024,3.815,13.84,0l21.641-21.641
			c1.849-1.849,2.867-4.306,2.867-6.92c0-2.614-1.018-5.071-2.867-6.919l-21.641-21.642
			C111.579,35.99,109.121,34.972,106.507,34.972z"/>
		<g>
			<path d="M366.272,178.293c-4.677,0-9.322-1.466-13.294-4.351c-7.027-5.106-10.48-13.596-9.012-22.157l1.625-9.482
				c0.427-2.484-0.396-5.016-2.2-6.774l-6.89-6.715c-6.22-6.063-8.416-14.961-5.732-23.223c2.685-8.261,9.691-14.169,18.288-15.418
				l9.521-1.383c2.493-0.362,4.647-1.928,5.763-4.188l4.258-8.626c3.845-7.789,11.628-12.628,20.314-12.628
				s16.471,4.839,20.314,12.628l4.258,8.627c1.115,2.26,3.27,3.825,5.763,4.188l9.52,1.383c8.597,1.249,15.604,7.157,18.288,15.418
				c2.684,8.261,0.487,17.16-5.732,23.223l-6.889,6.715c-1.805,1.759-2.627,4.292-2.201,6.775l1.626,9.481
				c1.469,8.562-1.984,17.052-9.012,22.158c-7.027,5.106-16.168,5.766-23.858,1.725l-8.515-4.478c-2.231-1.172-4.894-1.171-7.123,0
				l-8.516,4.478C373.492,177.424,369.873,178.293,366.272,178.293z M388.913,155.31c3.62,0,7.24,0.868,10.541,2.603l8.516,4.478
				c2.639,1.387,5.652,1.168,8.061-0.583c2.411-1.751,3.549-4.55,3.045-7.486l-1.626-9.481c-1.261-7.351,1.175-14.847,6.515-20.052
				l6.889-6.715c2.134-2.08,2.857-5.013,1.938-7.846c-0.921-2.833-3.23-4.781-6.179-5.209l-9.52-1.383
				c-7.381-1.072-13.758-5.705-17.058-12.393l-4.258-8.626l0,0c-1.318-2.672-3.884-4.267-6.863-4.267s-5.545,1.595-6.863,4.267
				l-4.258,8.627c-3.302,6.688-9.678,11.32-17.057,12.393l-9.521,1.383c-2.948,0.429-5.258,2.376-6.179,5.209
				c-0.92,2.833-0.196,5.767,1.938,7.846l6.889,6.715c5.341,5.206,7.776,12.702,6.515,20.053l-1.625,9.48
				c-0.504,2.937,0.634,5.735,3.045,7.486c2.41,1.751,5.424,1.969,8.06,0.583l8.516-4.477
				C381.671,156.177,385.292,155.31,388.913,155.31z"/>
		</g>
		<path d="M156.566,485.396c-3.601,0-7.219-0.868-10.563-2.626l-8.515-4.478c-2.229-1.172-4.892-1.172-7.124,0l-8.515,4.477
			c-7.689,4.042-16.83,3.382-23.858-1.724c-7.027-5.105-10.48-13.596-9.012-22.157l1.626-9.482c0.426-2.483-0.397-5.016-2.201-6.774
			l-6.889-6.715c-6.22-6.063-8.417-14.961-5.732-23.223c2.684-8.261,9.691-14.169,18.288-15.418l9.52-1.383
			c2.494-0.362,4.648-1.928,5.763-4.188l4.257-8.626c3.844-7.79,11.629-12.628,20.315-12.628c0,0,0,0,0,0
			c8.686,0,16.47,4.839,20.314,12.628l4.258,8.627c1.115,2.26,3.27,3.825,5.763,4.188l9.52,1.383
			c8.596,1.249,15.603,7.157,18.288,15.418c2.684,8.261,0.487,17.16-5.733,23.223l-6.889,6.715
			c-1.804,1.759-2.627,4.292-2.201,6.774l1.626,9.482c1.468,8.562-1.985,17.052-9.013,22.157
			C165.89,483.93,161.243,485.396,156.566,485.396z M133.926,462.413c3.621,0,7.241,0.868,10.542,2.603l8.516,4.478
			c2.637,1.386,5.65,1.168,8.06-0.583c2.411-1.751,3.549-4.55,3.045-7.486l-1.626-9.481c-1.261-7.35,1.175-14.846,6.516-20.052
			l6.888-6.715c2.134-2.08,2.858-5.013,1.937-7.846c-0.92-2.833-3.23-4.781-6.179-5.209l-9.52-1.383
			c-7.38-1.072-13.756-5.705-17.057-12.393l-4.258-8.627l0,0c-1.318-2.672-3.884-4.267-6.863-4.267
			c-2.979,0-5.545,1.595-6.864,4.267l-4.257,8.626c-3.301,6.688-9.677,11.321-17.057,12.393l-9.52,1.383
			c-2.949,0.429-5.258,2.376-6.179,5.209c-0.92,2.833-0.197,5.767,1.937,7.846l6.889,6.715c5.34,5.205,7.776,12.701,6.516,20.051
			l-1.626,9.482c-0.503,2.936,0.635,5.735,3.045,7.486c2.41,1.751,5.423,1.969,8.061,0.583l8.515-4.477
			C126.685,463.28,130.306,462.413,133.926,462.413z"/>
		<path d="M29.78,239.585c-16.421,0-29.78-13.359-29.78-29.78s13.359-29.78,29.78-29.78s29.78,13.359,29.78,29.78
			S46.201,239.585,29.78,239.585z M29.78,195.024c-8.15,0-14.78,6.63-14.78,14.78s6.63,14.78,14.78,14.78s14.78-6.63,14.78-14.78
			S37.93,195.024,29.78,195.024z"/>
		<path d="M233.516,382.501c-16.421,0-29.78-13.359-29.78-29.78s13.359-29.78,29.78-29.78s29.78,13.359,29.78,29.78
			S249.937,382.501,233.516,382.501z M233.516,337.94c-8.15,0-14.78,6.63-14.78,14.78s6.63,14.78,14.78,14.78
			s14.78-6.63,14.78-14.78S241.666,337.94,233.516,337.94z"/>
		<path d="M482.22,68.048c-16.421,0-29.78-13.359-29.78-29.78s13.359-29.78,29.78-29.78S512,21.847,512,38.268
			S498.641,68.048,482.22,68.048z M482.22,23.487c-8.149,0-14.78,6.63-14.78,14.78s6.631,14.78,14.78,14.78S497,46.418,497,38.268
			S490.369,23.487,482.22,23.487z"/>
		<path d="M413.775,284.479c-16.421,0-29.78-13.359-29.78-29.78s13.359-29.78,29.78-29.78s29.78,13.359,29.78,29.78
			S430.196,284.479,413.775,284.479z M413.775,239.919c-8.149,0-14.78,6.63-14.78,14.78s6.631,14.78,14.78,14.78
			s14.78-6.63,14.78-14.78S421.925,239.919,413.775,239.919z"/>
		<path d="M102.884,352.619c-34.611,0-66.944-16.969-86.604-45.492c-1.129-1.638-1.561-3.657-1.201-5.613
			c0.36-1.956,1.482-3.689,3.12-4.818l33.952-23.401c3.411-2.35,8.081-1.491,10.432,1.919c9.211,13.363,24.432,21.297,40.628,21.17
			c0.017,0,0.034,0,0.05,0c4.119,0,7.472,3.325,7.499,7.451l0.272,41.234c0.027,4.142-3.309,7.522-7.451,7.549
			C103.349,352.619,103.116,352.619,102.884,352.619z M33.143,304.613c15.6,19.04,38.295,30.864,62.838,32.743l-0.174-26.363
			c-15.839-1.758-30.441-9.367-40.957-21.341L33.143,304.613z"/>
		<path d="M434.954,415.575c-6.354,0-12.706-0.58-19.01-1.738c-4.073-0.749-6.769-4.657-6.021-8.73
			c2.48-13.521,4.971-27.043,7.461-40.565c0.75-4.073,4.662-6.77,8.731-6.018c15.969,2.933,32.301-2.21,43.696-13.761
			c1.397-1.417,3.301-2.22,5.29-2.233c0.017,0,0.033,0,0.049,0c1.973,0,3.866,0.777,5.271,2.164
			c5.005,4.943,10.012,9.884,15.019,14.825c4.778,4.714,9.556,9.428,14.331,14.145c1.415,1.398,2.217,3.301,2.229,5.29
			c0.012,1.989-0.767,3.902-2.165,5.317c-7.896,7.993-16.953,14.632-26.917,19.734c-3.685,1.887-8.205,0.43-10.094-3.257
			c-1.888-3.687-0.43-8.206,3.258-10.094c6.316-3.235,12.209-7.191,17.59-11.806c-2.922-2.884-5.845-5.768-8.768-8.652
			c-3.333-3.289-6.666-6.577-9.998-9.866c-12.438,9.956-28.146,14.899-44.049,13.871c-1.592,8.645-3.183,17.289-4.771,25.934
			c7.962,0.791,15.978,0.515,23.911-0.829c4.073-0.69,7.955,2.058,8.646,6.142s-2.059,7.956-6.143,8.647
			C446.678,415.082,440.815,415.575,434.954,415.575z"/>
		<path d="M309.357,250.703c-7.371,0-14.741-1.779-21.461-5.336c-3.66-1.938-5.057-6.477-3.118-10.138
			c1.938-3.66,6.474-5.059,10.138-3.119c9.043,4.788,19.84,4.788,28.883,0c3.663-1.94,8.2-0.542,10.138,3.119
			c1.938,3.661,0.542,8.2-3.118,10.138C324.099,248.924,316.729,250.703,309.357,250.703z"/>
		<path d="M394.162,480.101c-0.866,0-1.733-0.024-2.604-0.074c-4.136-0.234-7.298-3.776-7.064-7.912
			c0.235-4.135,3.764-7.296,7.912-7.064c10.204,0.571,20.028-3.928,26.248-12.052c2.518-3.289,7.223-3.915,10.515-1.396
			c3.288,2.518,3.913,7.225,1.396,10.514C421.852,473.499,408.393,480.101,394.162,480.101z"/>
		<path d="M335.777,48.081c-0.866,0-1.734-0.024-2.605-0.074c-4.136-0.234-7.299-3.776-7.064-7.912
			c0.234-4.136,3.771-7.306,7.912-7.064c10.214,0.576,20.026-3.926,26.247-12.051c2.518-3.289,7.225-3.915,10.515-1.396
			c3.288,2.518,3.913,7.226,1.396,10.514C363.464,41.479,350.008,48.081,335.777,48.081z"/>
		<path d="M54.323,494.721c-0.21,0-0.422-0.009-0.635-0.027c-15.152-1.271-28.655-9.938-36.12-23.184
			c-2.034-3.608-0.757-8.182,2.852-10.216c3.609-2.033,8.182-0.757,10.216,2.852c5.024,8.914,14.11,14.746,24.307,15.601
			c4.127,0.346,7.193,3.973,6.847,8.101C61.46,491.761,58.182,494.721,54.323,494.721z"/>
		<path d="M110.796,187.39c-0.934,0-1.882-0.175-2.801-0.546c-14.103-5.684-24.448-17.948-27.674-32.807
			c-0.879-4.048,1.69-8.042,5.738-8.92c4.049-0.881,8.042,1.69,8.92,5.738c2.171,9.999,9.133,18.252,18.624,22.077
			c3.842,1.549,5.701,5.918,4.152,9.76C116.577,185.615,113.765,187.39,110.796,187.39z"/>
	</g>
</g>
<g>
</g>
<g>
</g>
<g>
</g>
<g>
</g>
<g>
</g>
<g>
</g>
<g>
</g>
<g>
</g>
<g>
</g>
<g>
</g>
<g>
</g>
<g>
</g>
<g>
</g>
<g>
</g>
<g>
</g>
</svg>
