<?xml version="1.0" encoding="iso-8859-1"?>
<!-- Generator: Adobe Illustrator 24.0.0, SVG Export Plug-In . SVG Version: 6.00 Build 0)  -->
<svg version="1.1" id="Capa_1" xmlns="http://www.w3.org/2000/svg" xmlns:xlink="http://www.w3.org/1999/xlink" x="0px" y="0px"
	 viewBox="0 0 512 512" style="enable-background:new 0 0 512 512;" xml:space="preserve">
<g>
	<g>
		<path style="fill:#E7ECF1;" d="M416.483,488.167c-107.412-3.687-213.138-19.01-317.177-45.969
			c-14.785-3.831-24.749-17.62-23.82-32.864c7.754-127.205,25.971-252.893,54.649-377.066c3.437-14.881,16.906-25.273,32.17-24.749
			c107.412,3.687,213.138,19.01,317.177,45.97c14.784,3.831,24.749,17.62,23.82,32.864
			c-7.754,127.205-25.971,252.893-54.649,377.066C445.216,478.299,431.747,488.691,416.483,488.167z"/>
		<path style="fill:#DA4A54;" d="M408.74,381.848c-91.819-4.778-182.428-17.91-271.826-39.397
			c-10.657-2.561-17.934-12.366-17.46-23.317c3.759-86.791,16.156-172.329,37.192-256.616c2.654-10.635,12.415-17.97,23.361-17.401
			c91.819,4.778,182.428,17.91,271.826,39.397c10.657,2.561,17.934,12.366,17.46,23.317
			c-3.759,86.791-16.156,172.329-37.192,256.616C429.447,375.082,419.686,382.417,408.74,381.848z"/>
		<path style="fill:#E7ECF1;" d="M404.106,466.057c-104.649,24.486-210.708,37.3-318.178,38.44
			c-15.272,0.162-28.491-10.546-31.575-25.505C28.625,354.176,13.392,228.091,8.655,100.738
			c-0.568-15.262,9.721-28.811,24.592-32.29c104.649-24.486,210.708-37.3,318.178-38.44c15.272-0.162,28.491,10.546,31.575,25.505
			c25.728,124.817,40.961,250.902,45.698,378.255C429.266,449.029,418.977,462.578,404.106,466.057z"/>
		<path style="fill:#6BBEF6;" d="M368.871,365.448c-89.882,19.362-180.776,30.343-272.683,32.944
			c-10.957,0.31-20.541-7.255-22.942-17.949c-19.033-84.761-29.399-170.57-31.101-257.425c-0.215-10.959,7.292-20.588,18.007-22.897
			c89.882-19.362,180.776-30.343,272.683-32.944c10.957-0.31,20.541,7.255,22.942,17.949c19.033,84.761,29.4,170.57,31.101,257.425
			C387.093,353.51,379.586,363.14,368.871,365.448z"/>
		<g>
			<path style="fill:#DA4A54;" d="M288.034,287.753c-7.806,0.943-14.899-4.621-15.842-12.427
				c-2.388-19.764,7.926-31.33,15.457-39.777c6.88-7.715,9.217-10.988,8.441-17.412c-0.776-6.423-3.826-9.045-12.345-14.9
				c-9.326-6.409-22.098-15.187-24.486-34.951c-2.388-19.762,7.927-31.329,15.459-39.774c6.879-7.714,9.217-10.986,8.441-17.406
				c-0.943-7.806,4.621-14.899,12.427-15.842c7.806-0.943,14.899,4.621,15.842,12.427c2.388,19.762-7.927,31.328-15.458,39.773
				c-6.879,7.714-9.217,10.986-8.441,17.407c0.776,6.423,3.826,9.045,12.345,14.9c9.326,6.409,22.098,15.187,24.486,34.95
				c2.388,19.764-7.926,31.331-15.457,39.777c-6.88,7.715-9.217,10.988-8.441,17.412C301.403,279.717,295.84,286.81,288.034,287.753
				z"/>
			<path style="fill:#C63D4F;" d="M300.882,95.614c-5,2.688-8.104,8.255-7.381,14.238c0.775,6.417-1.563,9.692-8.442,17.406
				c-7.527,8.443-17.841,20.014-15.453,39.774c2.387,19.76,15.16,28.542,24.481,34.949c8.518,5.854,11.569,8.478,12.346,14.904
				c0.775,6.417-1.563,9.692-8.442,17.407c-7.526,8.452-17.841,20.014-15.452,39.783c0.722,5.974,5.053,10.642,10.55,12.072
				c-1.526,0.825-3.227,1.384-5.055,1.605c-7.802,0.943-14.899-4.625-15.842-12.427c-2.388-19.769,7.926-31.331,15.461-39.784
				c6.879-7.715,9.217-10.99,8.442-17.407c-0.776-6.426-3.828-9.05-12.346-14.904c-9.33-6.406-22.103-15.189-24.49-34.948
				s7.926-31.331,15.463-39.775c6.879-7.715,9.217-10.99,8.442-17.406c-0.943-7.802,4.615-14.898,12.427-15.842
				C297.419,95.038,299.204,95.176,300.882,95.614z"/>
		</g>
		<g>
			<path style="fill:#F4DD45;" d="M130.59,135.835l4.994,7.644c2.589,3.963,6.963,6.399,11.695,6.512l9.128,0.22
				c11.918,0.287,18.333,14.115,10.856,23.4l-5.727,7.112c-2.969,3.687-3.934,8.599-2.58,13.135l2.612,8.749
				c3.41,11.423-7.759,21.798-18.9,17.556l-8.533-3.249c-4.424-1.684-9.394-1.084-13.29,1.606l-7.514,5.188
				c-9.81,6.773-23.129-0.643-22.537-12.55l0.453-9.12c0.235-4.728-1.872-9.269-5.634-12.143l-7.256-5.543
				c-9.473-7.237-6.535-22.195,4.971-25.312l8.813-2.387c4.569-1.238,8.237-4.645,9.808-9.11l3.03-8.614
				C108.936,127.683,124.07,125.855,130.59,135.835z"/>
			<path style="fill:#EAB14D;" d="M125.694,131.195c-1.571,1.481-2.843,3.374-3.646,5.67l-3.033,8.607
				c-1.572,4.473-5.243,7.88-9.808,9.111l-8.812,2.393c-11.508,3.111-14.442,18.074-4.973,25.314l7.256,5.538
				c3.76,2.873,5.867,7.417,5.635,12.14l-0.455,9.128c-0.294,5.953,2.89,10.789,7.389,13.285l-1.915,1.321
				c-9.803,6.777-23.128-0.648-22.529-12.546l0.446-9.127c0.232-4.722-1.865-9.268-5.635-12.14l-7.256-5.538
				c-9.47-7.24-6.535-22.203,4.972-25.314l8.812-2.393c4.574-1.231,8.245-4.639,9.808-9.111l3.033-8.607
				C108.137,129.97,118.359,126.986,125.694,131.195z"/>
		</g>
		<circle style="fill:#E7ECF1;" cx="210.086" cy="275.285" r="21.147"/>
		<path style="fill:#9BD069;" d="M168.367,330.844c1.65,12.941,3.3,25.882,4.95,38.823c-30.463,3.884-60.872-7.567-81.206-30.578
			c9.776-8.639,19.552-17.277,29.328-25.916C133.19,326.471,150.763,333.088,168.367,330.844z"/>
	</g>
	<g>
		<path d="M481.363,46.23C377.263,19.254,270.002,3.708,162.557,0.023c-18.821-0.641-35.496,12.208-39.729,30.563
			c-0.978,4.241-1.931,8.482-2.887,12.723C90.29,48.351,60.8,54.298,31.538,61.145C13.235,65.427,0.46,82.196,1.16,101.017
			c4.73,127.168,20.156,254.847,45.848,379.49c3.773,18.31,19.959,31.494,38.581,31.492c0.139,0,0.28-0.001,0.42-0.002
			c80.252-0.852,160.55-8.314,239.653-22.229c29.872,2.869,60.335,4.855,90.566,5.898c0.446,0.015,0.889,0.022,1.332,0.022
			c18.244,0,34.271-12.675,38.402-30.58c28.633-123.994,47.081-251.273,54.833-378.306C511.933,68.004,499.555,50.94,481.363,46.23z
			 M137.445,33.955c2.623-11.375,12.945-19.335,24.598-18.941c41.542,1.425,83.056,4.649,124.367,9.631
			c-50.381,2.768-100.648,8.128-150.493,16.043C136.428,38.444,136.928,36.199,137.445,33.955z M85.848,496.998
			C85.762,496.999,85.676,497,85.59,497c-11.528,0-21.552-8.172-23.891-19.521C36.174,353.647,20.849,226.8,16.15,100.459
			c-0.435-11.666,7.475-22.057,18.806-24.708c103.627-24.247,210.129-37.114,316.549-38.244c0.086-0.001,0.172-0.001,0.259-0.001
			c11.527,0,21.551,8.172,23.891,19.521c25.524,123.832,40.85,250.679,45.549,377.02c0.434,11.666-7.476,22.058-18.807,24.709
			C298.769,483.001,192.267,495.869,85.848,496.998z M495.822,85.892c-7.701,126.203-26.029,252.654-54.476,375.843
			c-2.623,11.367-12.938,19.332-24.607,18.94c-11.977-0.413-23.991-0.982-35.991-1.69c8.372-1.805,16.729-3.674,25.066-5.625
			c18.302-4.283,31.078-21.051,30.379-39.872c-0.686-18.451-1.605-36.912-2.74-55.373c2.795-3.447,4.827-7.477,5.924-11.85
			c15.989-64.078,27.14-129.74,33.142-195.161c0.378-4.125-2.659-7.775-6.783-8.154c-4.139-0.383-7.776,2.659-8.154,6.784
			c-5.172,56.379-14.217,112.939-26.923,168.483c-6.845-86.694-18.613-173.213-35.158-258.437
			c18.206,3.659,36.511,7.676,54.572,12.02c7.11,1.714,12.041,8.325,11.725,15.711c-0.482,11.021-1.098,22.008-1.829,32.655
			c-0.284,4.132,2.836,7.712,6.969,7.996c0.175,0.012,0.349,0.018,0.521,0.018c3.907,0,7.203-3.029,7.475-6.987
			c0.739-10.77,1.362-21.881,1.851-33.033c0.623-14.539-9.132-27.552-23.199-30.943c-20.267-4.874-40.836-9.347-61.232-13.357
			c-0.663-3.289-1.329-6.578-2.006-9.863c-1.07-5.191-3.141-9.97-5.982-14.154c31.307,5.951,62.414,12.919,93.239,20.907
			C488.865,63.667,496.528,74.242,495.822,85.892z"/>
		<path d="M251.814,169.187c2.795,23.129,17.772,33.422,27.684,40.232c8.362,5.748,8.799,6.739,9.146,9.619
			c0.349,2.88,0.161,3.946-6.593,11.521c-8.004,8.976-20.1,22.541-17.306,45.667c0.696,5.765,3.596,10.913,8.164,14.497
			c3.866,3.032,8.535,4.637,13.373,4.637c0.879,0,1.764-0.053,2.65-0.16c11.898-1.438,20.41-12.288,18.974-24.188
			c-0.349-2.88-0.161-3.946,6.593-11.52c8.004-8.976,20.1-22.541,17.306-45.667c-2.795-23.128-17.772-33.421-27.684-40.232
			c-8.363-5.747-8.799-6.738-9.147-9.619c-0.348-2.878-0.16-3.943,6.594-11.515c8.004-8.976,20.101-22.54,17.307-45.665
			c-1.438-11.899-12.292-20.41-24.188-18.973c-5.765,0.696-10.913,3.596-14.496,8.165c-3.584,4.568-5.174,10.259-4.478,16.022
			c0.348,2.878,0.16,3.943-6.593,11.516C261.117,132.497,249.02,146.062,251.814,169.187z M280.316,133.505
			c7.155-8.023,11.479-13.441,10.29-23.298c-0.217-1.786,0.276-3.55,1.387-4.965c1.111-1.416,2.707-2.315,4.493-2.531
			c0.273-0.033,0.544-0.049,0.813-0.049c3.357,0,6.271,2.515,6.684,5.929c1.981,16.399-6.302,25.688-13.609,33.882
			c-7.156,8.024-11.481,13.442-10.29,23.298c1.19,9.859,6.682,14.092,15.543,20.182c9.05,6.219,19.306,13.267,21.287,29.669
			c1.981,16.401-6.301,25.69-13.608,33.886c-7.156,8.024-11.481,13.443-10.29,23.302c0.445,3.688-2.192,7.051-5.88,7.498
			c-1.785,0.217-3.551-0.277-4.967-1.388s-2.314-2.706-2.529-4.493c-1.981-16.401,6.301-25.69,13.608-33.886
			c7.156-8.025,11.481-13.444,10.29-23.303c-1.192-9.858-6.683-14.091-15.543-20.181c-9.05-6.218-19.306-13.266-21.287-29.669
			C264.725,150.988,273.007,141.7,280.316,133.505z"/>
		<path d="M94.513,230.991c3.348,1.864,7.011,2.789,10.66,2.789c4.343,0,8.667-1.309,12.419-3.898l7.516-5.188
			c1.864-1.287,4.24-1.575,6.359-0.768l8.532,3.249c7.842,2.985,16.533,1.293,22.681-4.418c6.147-5.71,8.476-14.252,6.075-22.292
			l-2.612-8.749c-0.647-2.171-0.186-4.522,1.235-6.287l5.727-7.111c5.263-6.535,6.338-15.323,2.807-22.935
			c-3.531-7.612-10.936-12.465-19.324-12.667l-9.128-0.22c-2.266-0.055-4.358-1.22-5.598-3.117l-4.994-7.644l0.001,0
			c-4.589-7.024-12.605-10.76-20.944-9.757c-8.33,1.006-15.234,6.548-18.02,14.464l-3.029,8.613
			c-0.752,2.138-2.507,3.768-4.694,4.36l-8.813,2.387c-8.099,2.194-14.135,8.671-15.752,16.904
			c-1.617,8.234,1.521,16.513,8.188,21.607l7.255,5.542c1.801,1.376,2.809,3.548,2.696,5.812l-0.453,9.12
			C82.887,219.167,87.182,226.909,94.513,230.991z M82.912,178.394c-2.13-1.627-3.092-4.167-2.576-6.797
			c0.517-2.629,2.369-4.617,4.955-5.317l8.813-2.387c6.953-1.884,12.531-7.065,14.923-13.861l3.029-8.613
			c0.889-2.527,3.008-4.229,5.668-4.55c0.295-0.036,0.588-0.053,0.877-0.053c2.316,0,4.408,1.128,5.71,3.122c0,0,0,0,0.001,0
			l4.993,7.644c3.939,6.031,10.591,9.735,17.794,9.909l9.128,0.22c2.679,0.064,4.951,1.554,6.079,3.984
			c1.127,2.431,0.797,5.127-0.884,7.214l-5.727,7.112c-4.518,5.61-5.984,13.081-3.925,19.984l2.612,8.75
			c0.767,2.567,0.052,5.188-1.911,7.012c-1.962,1.822-4.63,2.343-7.135,1.389l-8.532-3.249c-6.733-2.563-14.292-1.65-20.219,2.442
			l-7.515,5.188c-2.206,1.523-4.921,1.653-7.26,0.349c-2.341-1.303-3.659-3.679-3.525-6.355l0.453-9.121
			c0.356-7.195-2.848-14.101-8.572-18.474L82.912,178.394z"/>
		<path d="M187.547,257.604c-4.723,6.021-6.818,13.521-5.9,21.117c0.918,7.597,4.739,14.381,10.76,19.104
			c5.095,3.996,11.248,6.111,17.623,6.111c1.158,0,2.324-0.07,3.493-0.211c15.682-1.894,26.898-16.193,25.005-31.876v0
			c-1.896-15.682-16.202-26.897-31.877-25.003C199.053,247.763,192.269,251.584,187.547,257.604z M199.348,266.862
			c2.25-2.868,5.481-4.688,9.101-5.125c0.554-0.067,1.103-0.099,1.646-0.099c6.801,0,12.703,5.094,13.539,12.01
			c0.902,7.471-4.44,14.283-11.911,15.186c-3.622,0.437-7.192-0.562-10.06-2.811c-2.868-2.25-4.688-5.482-5.125-9.101
			C196.101,273.302,197.099,269.73,199.348,266.862z"/>
		<path d="M161.549,377.916c4.221,0,8.468-0.267,12.716-0.808c1.974-0.252,3.766-1.277,4.983-2.85
			c1.217-1.573,1.76-3.565,1.508-5.539l-4.95-38.823c-0.251-1.973-1.276-3.766-2.85-4.983c-1.572-1.218-3.563-1.76-5.538-1.509
			c-15.158,1.929-30.244-3.749-40.36-15.198c-2.744-3.105-7.483-3.396-10.586-0.654l-29.328,25.916
			c-1.491,1.317-2.397,3.173-2.52,5.158c-0.123,1.985,0.548,3.938,1.865,5.429C105.656,365.744,133.025,377.916,161.549,377.916z
			 M121.13,323.455c11.224,9.932,25.679,15.414,40.687,15.321l3.07,24.074c-22.946,0.889-45.282-7.511-61.944-23.325L121.13,323.455
			z"/>
		<path d="M310.266,322.739c-4.088,0.672-6.855,4.53-6.184,8.617c0.604,3.676,3.784,6.284,7.392,6.284
			c0.404,0,0.813-0.033,1.226-0.101c14.365-2.362,26.597-11.659,32.717-24.867c1.742-3.758,0.106-8.217-3.651-9.958
			c-3.757-1.742-8.217-0.106-9.958,3.651C327.777,315.063,319.724,321.184,310.266,322.739z"/>
		<path d="M127.147,265.799c-9.179,2.759-19.102,0.8-26.543-5.242c-3.217-2.61-7.94-2.12-10.55,1.096
			c-2.611,3.215-2.121,7.939,1.095,10.55c7.931,6.438,17.716,9.825,27.665,9.825c4.23,0,8.491-0.613,12.651-1.863
			c3.967-1.192,6.216-5.375,5.023-9.342C135.297,266.856,131.115,264.607,127.147,265.799z"/>
		<path d="M198.921,123.723c0.144,0,0.287-0.004,0.432-0.012c14.535-0.825,27.683-8.772,35.17-21.257
			c2.13-3.552,0.977-8.159-2.575-10.289c-3.551-2.129-8.159-0.979-10.29,2.575c-4.929,8.22-13.585,13.452-23.154,13.996
			c-4.136,0.235-7.298,3.777-7.063,7.913C191.666,120.639,194.973,123.723,198.921,123.723z"/>
		<path d="M196.077,218.605c3.309,0.77,6.653,1.147,9.974,1.147c10.91,0,21.555-4.071,29.759-11.639
			c3.045-2.809,3.236-7.553,0.428-10.598c-2.808-3.044-7.553-3.236-10.598-0.427c-7.046,6.5-16.824,9.083-26.16,6.908
			c-4.037-0.939-8.066,1.569-9.006,5.604C189.534,213.634,192.043,217.666,196.077,218.605z"/>
		<path d="M332.628,59.683c-91.942,2.601-184.148,13.739-274.059,33.105c-14.152,3.053-24.21,15.83-23.918,30.378
			c1.702,86.981,12.227,174.093,31.28,258.915c3.124,13.923,15.498,23.818,29.611,23.818c0.284,0,0.57-0.004,0.855-0.012
			c6.345-0.176,12.566-0.393,18.49-0.644c4.138-0.176,7.351-3.673,7.175-7.811s-3.68-7.354-7.812-7.175
			c-5.851,0.248-11.997,0.462-18.273,0.636c-7.317,0.214-13.792-4.88-15.411-12.097c-18.834-83.843-29.236-169.948-30.919-255.927
			c-0.148-7.392,4.934-13.875,12.081-15.417c89.011-19.173,180.297-30.2,271.322-32.775c7.332-0.222,13.792,4.879,15.411,12.096
			c18.834,83.891,29.236,169.996,30.918,255.92c0.143,7.397-4.943,13.885-12.091,15.425
			c-73.411,15.817-148.588,26.127-223.442,30.646c-4.135,0.25-7.284,3.804-7.034,7.938c0.249,4.134,3.755,7.282,7.938,7.035
			c75.61-4.563,151.546-14.978,225.698-30.955c14.144-3.048,24.207-15.823,23.929-30.379
			c-1.702-86.932-12.227-174.044-31.28-258.915C359.911,69.285,347.082,59.3,332.628,59.683z"/>
	</g>
</g>
<g>
</g>
<g>
</g>
<g>
</g>
<g>
</g>
<g>
</g>
<g>
</g>
<g>
</g>
<g>
</g>
<g>
</g>
<g>
</g>
<g>
</g>
<g>
</g>
<g>
</g>
<g>
</g>
<g>
</g>
</svg>
