<?xml version="1.0" encoding="iso-8859-1"?>
<!-- Generator: Adobe Illustrator 24.0.0, SVG Export Plug-In . SVG Version: 6.00 Build 0)  -->
<svg version="1.1" id="Capa_1" xmlns="http://www.w3.org/2000/svg" xmlns:xlink="http://www.w3.org/1999/xlink" x="0px" y="0px"
	 viewBox="0 0 511.998 511.998" style="enable-background:new 0 0 511.998 511.998;" xml:space="preserve">
<g>
	<path style="fill:#544F57;" d="M329.723,496.297H73.698l6.246-30.418c5.137-25.046,24.652-44.081,48.867-49.208
		c4.253-0.906,8.654-1.375,13.152-1.375h119.497c4.487,0,8.889,0.469,13.141,1.375c24.215,5.126,43.74,24.161,48.877,49.208
		L329.723,496.297z"/>
	<path style="fill:#454045;" d="M166.215,415.297c-2.664,0-5.276,0.469-7.802,1.375c-14.388,5.126-25.973,24.161-29.032,49.208
		l-3.709,30.418H73.693l6.246-30.418c5.137-25.046,24.652-44.081,48.867-49.208c4.253-0.906,8.654-1.375,13.152-1.375H166.215z"/>
	<polygon style="fill:#F1D0A5;" points="237.132,374.146 237.132,415.297 201.705,496.297 190.397,470.43 166.289,415.297 
		166.289,374.146 	"/>
	<polygon style="fill:#F1B986;" points="190.397,374.146 190.397,470.43 166.289,415.297 166.289,374.146 	"/>
	<path style="fill:#F1B986;" d="M53.738,306.891L53.738,306.891c-25.538,0-46.24-20.703-46.24-46.24v0
		c0-3.515,0.392-6.938,1.135-10.228c5.999-26.567,45.105-22.209,45.105,5.026h295.938c0-27.236,39.107-31.593,45.105-5.026
		c0.743,3.29,1.135,6.713,1.135,10.228v0c0,25.538-20.703,46.24-46.24,46.24l0,0"/>
	<rect x="166.283" y="356.145" style="fill:#F1B986;" width="70.843" height="54.494"/>
	<path style="fill:#F1D0A5;" d="M241.829,391.889h-80.243c-59.563,0-107.848-48.285-107.848-107.848V121.28h295.938v162.762
		C349.677,343.604,301.391,391.889,241.829,391.889z"/>
	<path style="fill:#F1B986;" d="M232.429,391.889h-70.843c-59.556,0-107.848-48.291-107.848-107.848V121.273h70.843v162.768
		C124.581,343.598,172.862,391.889,232.429,391.889z"/>
	<g>
		<ellipse style="fill:#E29375;" cx="288.869" cy="291.708" rx="24.222" ry="14.728"/>
		<ellipse style="fill:#E29375;" cx="114.546" cy="291.708" rx="24.222" ry="14.728"/>
	</g>
	<path style="fill:#C6D0DA;" d="M125.005,465.868l6.246,30.428H73.698l6.246-30.418c3.069-14.964,11.265-27.775,22.531-36.759
		C113.74,438.104,121.936,450.915,125.005,465.868z"/>
	<path style="fill:#E7ECF1;" d="M329.723,496.297h-57.563l6.246-30.428c3.069-14.953,11.265-27.764,22.531-36.749
		c11.276,8.985,19.472,21.795,22.542,36.759L329.723,496.297z"/>
	<path style="fill:#544F57;" d="M349.669,108.59v108.618h-5.528c-17.149,0-31.05-13.902-31.05-31.05v-62.835l-30.71,14.119
		c-51.207,23.543-110.144,23.543-161.352,0l-30.71-14.119v62.835c0,17.149-13.902,31.05-31.05,31.05h-5.538V108.59
		c0-51.302,41.589-92.891,92.891-92.891h110.156C308.081,15.699,349.669,57.288,349.669,108.59z"/>
	<path style="fill:#454045;" d="M146.625,15.696h72.058c-51.297,0-92.884,41.587-92.884,92.894v30.972
		c-1.599-0.693-3.187-1.396-4.775-2.121L90.319,123.32v62.839c0,17.149-13.898,31.047-31.047,31.047h-5.542V108.59
		C53.731,57.283,95.318,15.696,146.625,15.696z"/>
	<path style="fill:#F4DD45;" d="M419.21,418.064c-5.719,16.328-18.122,34.082-35.735,49.201
		c-21.706,18.632-46.155,28.832-65.451,29.032l-33.411-38.923c3.121-19.043,16.908-41.664,38.614-60.296
		c17.614-15.119,37.027-24.69,54.04-27.86"/>
	<path style="fill:#EAB14D;" d="M295.213,469.723l-10.6-12.349c3.121-19.043,16.908-41.665,38.614-60.297
		c17.614-15.119,37.027-24.69,54.04-27.861l13.308,15.503c-13.431,7.343-30.616,19.51-48.23,34.629
		C320.638,437.981,303.464,456.656,295.213,469.723z"/>
	<path style="fill:#F4DD45;" d="M446.843,373.757l-21.582-25.143c-5.621-6.548-15.486-7.3-22.034-1.679l-27.066,23.233
		l41.937,48.856l27.066-23.233C451.712,390.17,452.464,380.305,446.843,373.757z"/>
	<path style="fill:#EAB14D;" d="M438.393,363.915c-5.623-6.55-15.482-7.302-22.033-1.679l-27.068,23.234l-13.134-15.301
		l27.068-23.234c6.551-5.623,16.41-4.872,22.033,1.679L438.393,363.915z"/>
	<path style="fill:#F1D0A5;" d="M414.313,444.546l-4.298-4.298c-7.771-7.771-20.37-7.771-28.141,0l-10.265,10.265
		c-7.771,7.771-7.771,20.37,0,28.141l4.298,4.298c7.771,7.771,20.37,7.771,28.141,0l10.265-10.266
		C422.084,464.916,422.084,452.317,414.313,444.546z"/>
	<path style="fill:#F1B986;" d="M417.674,449.018c-7.56-4.18-17.27-3.06-23.68,3.35l-10.27,10.26c-6.41,6.41-7.53,16.12-3.36,23.68
		c-1.6-0.89-3.1-2-4.46-3.36l-4.3-4.3c-7.77-7.77-7.77-20.37,0-28.14l10.27-10.26c7.77-7.77,20.37-7.77,28.14,0l4.29,4.29
		C415.664,445.898,416.794,447.408,417.674,449.018z"/>
	<g>
		<path d="M125.67,223.512c-7.698,0-13.96,10.401-13.96,23.186s6.262,23.186,13.96,23.186c7.697,0,13.959-10.401,13.959-23.186
			S133.368,223.512,125.67,223.512z"/>
		<path d="M277.64,269.883c7.698,0,13.96-10.401,13.96-23.186s-6.262-23.186-13.96-23.186c-7.697,0-13.959,10.401-13.959,23.186
			S269.943,269.883,277.64,269.883z"/>
		<path d="M187.233,274.496h28.845c4.009,0,7.26-3.25,7.26-7.26c0-4.009-3.25-7.26-7.26-7.26h-28.845c-4.009,0-7.26,3.25-7.26,7.26
			C179.973,271.246,183.223,274.496,187.233,274.496z"/>
		<path d="M201.655,324.835c15.457,0,29.326-9.207,35.334-23.456c1.558-3.695-0.174-7.952-3.869-9.51
			c-3.694-1.558-7.953,0.175-9.509,3.869c-3.734,8.856-12.352,14.578-21.956,14.578s-18.222-5.722-21.956-14.578
			c-1.557-3.694-5.814-5.427-9.509-3.869c-3.695,1.558-5.427,5.815-3.869,9.51C172.329,315.628,186.198,324.835,201.655,324.835z"/>
		<path d="M452.535,369.142l-21.603-25.167c-3.984-4.642-9.538-7.454-15.637-7.919c-6.09-0.464-12.013,1.473-16.655,5.458
			l-24.552,21.075c-14.089,2.961-28.931,9.661-43.063,19.472c-3.294,2.286-4.111,6.81-1.824,10.103
			c1.41,2.032,3.671,3.121,5.97,3.121c1.428,0,2.871-0.421,4.133-1.297c11.205-7.778,22.78-13.324,33.811-16.249l37.281,43.432
			c-1.187,2.71-2.559,5.432-4.102,8.154c-9.813-3.965-21.488-1.976-29.432,5.967l-10.275,10.275
			c-7.985,7.985-9.95,19.742-5.9,29.587c-13.476,8.136-27.402,13.089-39.38,13.976l-28.865-33.617
			c3.152-13.75,12.209-29.21,25.245-42.948c2.76-2.908,2.639-7.503-0.269-10.263c-2.907-2.76-7.503-2.639-10.263,0.269
			c-4.392,4.628-8.351,9.404-11.87,14.252c-10.345-5.659-21.903-8.63-33.826-8.63H244.37v-8.946
			c52.023-1.138,95.651-36.929,108.68-85.158c27.999-1.704,50.26-25.013,50.26-53.434c0-3.993-0.442-7.976-1.315-11.837
			c-4.076-18.057-19.82-24.732-32.712-23.296c-4.15,0.463-8.399,1.815-12.257,4.046l-0.009-121.122
			c0-21.778-6.871-42.491-19.871-59.897c-2.398-3.212-6.949-3.872-10.16-1.473c-3.213,2.399-3.872,6.948-1.473,10.161
			c11.111,14.878,16.984,32.586,16.984,51.209V209.85c-12.333-0.886-22.095-11.204-22.095-23.759v-62.9
			c0-2.474-1.26-4.777-3.342-6.112c-2.084-1.335-4.703-1.517-6.949-0.483l-30.741,14.134c-49.388,22.716-106.042,22.716-155.439,0
			l-30.739-14.133c-2.249-1.034-4.867-0.851-6.95,0.483c-2.083,1.335-3.342,3.639-3.342,6.112v62.9
			c0,12.555-9.763,22.872-22.096,23.758l-0.01-101.403c0-47.266,38.454-85.719,85.72-85.719h110.266
			c17.706,0,34.693,5.349,49.123,15.47c3.284,2.302,7.81,1.507,10.112-1.775c2.302-3.283,1.508-7.81-1.775-10.112
			c-16.885-11.842-36.754-18.102-57.46-18.102H146.513c-55.272,0-100.239,44.967-100.239,100.239v108.724
			c0,0.07,0.009,0.137,0.01,0.206v12.191c-3.858-2.231-8.107-3.583-12.257-4.046c-12.899-1.439-28.636,5.238-32.713,23.295
			C0.442,252.679,0,256.662,0,260.655c0,28.421,22.261,51.73,50.26,53.434c13.029,48.229,56.657,84.02,108.68,85.158v8.946h-17.094
			c-33.38,0-62.478,23.728-69.189,56.42l-6.251,30.457c-0.439,2.137,0.107,4.358,1.485,6.048c1.379,1.69,3.445,2.671,5.626,2.671
			h256.27c2.018,0,3.843-0.825,5.158-2.154c11.204-2.644,22.956-7.686,34.464-14.811l1.478,1.478
			c5.299,5.299,12.257,7.947,19.218,7.947c6.959,0,13.92-2.65,19.217-7.947l10.277-10.276c10.596-10.597,10.596-27.838,0-38.435
			l-0.001,0l-1.563-1.563c3.032-5.154,5.534-10.348,7.484-15.518l24.555-21.078C459.654,393.21,460.759,378.724,452.535,369.142
			C452.535,369.142,452.535,369.142,452.535,369.142z M302.29,489.271H281.08l4.091-19.936L302.29,489.271z M287.431,429.085
			c-1.545,2.786-2.92,5.577-4.146,8.362c-5.891,8.128-9.926,17.256-11.965,27.167l-5.061,24.658h-53.505l29.103-66.559h19.6
			C270.587,422.712,279.446,424.903,287.431,429.085z M173.459,413.929v-14.65h56.392v14.651l-28.194,64.479L173.459,413.929z
			 M370.892,239.952c6.394-0.711,14.674,2.018,16.942,12.064c0.635,2.814,0.958,5.72,0.958,8.639
			c0,19.384-14.208,35.506-32.755,38.515c0.65-4.944,0.99-9.983,0.99-15.102v-11.391c2.535-2.827,8.364-8.152,14.545-5.661
			c3.717,1.501,7.948-0.299,9.448-4.016c1.5-3.718-0.298-7.948-4.016-9.448c-7.394-2.984-14.247-1.864-19.932,0.93
			C357.531,244.882,364.703,240.642,370.892,239.952z M14.519,260.655c0-2.918,0.322-5.825,0.958-8.639
			c2.268-10.045,10.542-12.777,16.942-12.064c6.189,0.69,13.362,4.929,13.822,14.53c-5.685-2.793-12.537-3.913-19.933-0.93
			c-3.718,1.5-5.516,5.73-4.016,9.448c1.5,3.718,5.729,5.516,9.448,4.016c6.174-2.49,12.009,2.838,14.545,5.664v11.388
			c0,5.118,0.34,10.158,0.99,15.102C28.727,296.161,14.519,280.039,14.519,260.655z M60.804,284.068v-59.682
			c20.343-0.906,36.615-17.734,36.615-38.296v-51.572l20.446,9.401c26.63,12.246,55.206,18.368,83.79,18.367
			c28.578-0.001,57.164-6.124,83.781-18.367l20.448-9.401v51.572c0,20.565,16.277,37.395,36.624,38.296v59.681
			c0,55.522-45.171,100.692-100.693,100.692h-80.32C105.974,384.76,60.804,339.59,60.804,284.068z M161.454,422.712l29.108,66.559
			h-53.505l-5.061-24.658c-2.663-12.974-8.951-24.914-18-34.441c8.279-4.759,17.82-7.46,27.851-7.46H161.454z M86.88,467.533
			c2.28-11.107,7.821-20.904,15.482-28.489c7.784,7.744,13.189,17.661,15.412,28.489l4.462,21.738H82.418L86.88,467.533z
			 M409.332,467.762l-10.277,10.276c-2.391,2.391-5.569,3.708-8.951,3.708s-6.56-1.317-8.951-3.707l-4.301-4.302
			c-4.936-4.936-4.936-12.966,0-17.902l10.275-10.275c2.391-2.391,5.569-3.708,8.951-3.708s6.56,1.317,8.952,3.708l4.302,4.302
			l-0.001,0C414.267,454.796,414.267,462.826,409.332,467.762z M440.617,390.417l-21.583,18.527l-32.52-37.886l21.582-18.526
			c1.7-1.459,3.871-2.166,6.096-1.998c2.233,0.17,4.265,1.199,5.723,2.898l21.603,25.167
			C444.528,382.105,444.123,387.407,440.617,390.417z"/>
		<path d="M494.475,304.582c-2.836-2.835-7.432-2.835-10.267,0l-22.576,22.577c-2.835,2.835-2.835,7.432,0,10.266
			c1.418,1.418,3.276,2.126,5.134,2.126s3.716-0.709,5.134-2.126l22.576-22.577C497.31,312.013,497.31,307.417,494.475,304.582z"/>
		<path d="M455.092,287.542c-3.745-1.438-7.943,0.434-9.379,4.176l-8.665,22.577c-1.437,3.743,0.433,7.942,4.176,9.379
			c0.855,0.328,1.736,0.484,2.599,0.484c2.919,0,5.672-1.773,6.779-4.66l8.665-22.577
			C460.705,293.178,458.835,288.979,455.092,287.542z"/>
		<path d="M511.514,343.964c-1.436-3.742-5.634-5.615-9.379-4.176l-22.576,8.665c-3.743,1.437-5.613,5.636-4.176,9.379
			c1.108,2.888,3.86,4.66,6.779,4.66c0.864,0,1.744-0.156,2.599-0.484l22.576-8.665
			C511.081,351.906,512.951,347.707,511.514,343.964z"/>
	</g>
</g>
<g>
</g>
<g>
</g>
<g>
</g>
<g>
</g>
<g>
</g>
<g>
</g>
<g>
</g>
<g>
</g>
<g>
</g>
<g>
</g>
<g>
</g>
<g>
</g>
<g>
</g>
<g>
</g>
<g>
</g>
</svg>
