<?xml version="1.0" encoding="iso-8859-1"?>
<!-- Generator: Adobe Illustrator 24.0.0, SVG Export Plug-In . SVG Version: 6.00 Build 0)  -->
<svg version="1.1" id="Capa_1" xmlns="http://www.w3.org/2000/svg" xmlns:xlink="http://www.w3.org/1999/xlink" x="0px" y="0px"
	 viewBox="0 0 511.99 511.99" style="enable-background:new 0 0 511.99 511.99;" xml:space="preserve">
<g>
	<g>
		<path style="fill:#E7ECF1;" d="M255.674,504.5c0,0-121.489-150.25-115.109-323.13c6.38-172.89,103.76-122.71,103.76-122.71h21.84
			c0,0,97.38-50.18,103.76,122.71C376.305,354.25,255.674,504.5,255.674,504.5z"/>
		<path style="fill:#C6D0DA;" d="M255.674,504.5c55.95-224.78,23.331-388.57,7.931-445.84h2.56c0,0,97.38-50.18,103.76,122.71
			C376.305,354.25,255.674,504.5,255.674,504.5z"/>
		<path style="fill:#544F57;" d="M255.674,504.5C89.124,437.9,53.345,274.48,53.345,274.48c21.94-21.95,50.54-30.6,50.54-30.6
			c-42.56-42.56-62.51-118.38-62.51-118.38c34.62-34.63,86.34-45.26,86.34-45.26l1.62,0.48l55.82,16.46
			C185.155,97.18,142.324,237.04,255.674,504.5z"/>
		<path style="fill:#454045;" d="M255.674,504.5C89.124,437.9,53.345,274.48,53.345,274.48c21.94-21.95,50.54-30.6,50.54-30.6
			c-42.56-42.56-62.51-118.38-62.51-118.38c34.62-34.63,86.34-45.26,86.34-45.26l1.62,0.48
			C118.095,153.96,98.214,382.63,255.674,504.5z"/>
		<path style="fill:#544F57;" d="M326.835,97.18c0,0,42.185,139.861-71.161,407.32c166.553-66.604,202.974-230.022,202.974-230.022
			c-21.948-21.948-50.546-30.594-50.546-30.594c42.565-42.565,62.518-118.385,62.518-118.385
			c-34.626-34.625-86.346-45.256-86.346-45.256"/>
		<g>
			<circle style="fill:#544F57;" cx="255.914" cy="144.257" r="22.28"/>
			<circle style="fill:#544F57;" cx="255.914" cy="221.809" r="22.28"/>
			<circle style="fill:#544F57;" cx="255.914" cy="299.361" r="22.28"/>
			<circle style="fill:#544F57;" cx="255.914" cy="376.912" r="22.28"/>
		</g>
		<g>
			<path style="fill:#D82E3D;" d="M266.593,16.464h-21.357c-17.407,0-31.519,14.111-31.519,31.519V69.34
				c0,17.407,14.111,31.519,31.519,31.519h21.357c17.407,0,31.519-14.111,31.519-31.519V47.983
				C298.111,30.576,284,16.464,266.593,16.464z"/>
			<path style="fill:#DA4A54;" d="M213.717,67.059c0,0-30.455,47.865-65.429,39.502s-14.799-49.04-14.799-49.04
				s-20.175-40.677,14.799-49.04s65.429,39.502,65.429,39.502"/>
			<path style="fill:#DA4A54;" d="M298.111,67.059c0,0,30.455,47.865,65.429,39.502s14.799-49.04,14.799-49.04
				s20.175-40.677-14.799-49.04s-65.429,39.502-65.429,39.502"/>
		</g>
	</g>
	<g>
		<path d="M255.914,174.041c16.42,0,29.779-13.359,29.779-29.779s-13.359-29.779-29.779-29.779s-29.779,13.359-29.779,29.779
			S239.494,174.041,255.914,174.041z M255.914,129.482c8.149,0,14.78,6.63,14.78,14.78c0,8.15-6.631,14.78-14.78,14.78
			s-14.78-6.63-14.78-14.78C241.134,136.112,247.765,129.482,255.914,129.482z"/>
		<path d="M255.914,251.59c16.42,0,29.779-13.359,29.779-29.779s-13.359-29.779-29.779-29.779s-29.779,13.359-29.779,29.779
			S239.494,251.59,255.914,251.59z M255.914,207.031c8.149,0,14.78,6.63,14.78,14.78c0,8.15-6.631,14.78-14.78,14.78
			s-14.78-6.63-14.78-14.78C241.134,213.661,247.765,207.031,255.914,207.031z"/>
		<path d="M255.914,329.138c16.42,0,29.779-13.359,29.779-29.779c0-16.42-13.359-29.779-29.779-29.779s-29.779,13.359-29.779,29.779
			C226.135,315.779,239.494,329.138,255.914,329.138z M255.914,284.579c8.149,0,14.78,6.63,14.78,14.78
			c0,8.15-6.631,14.78-14.78,14.78s-14.78-6.63-14.78-14.78C241.134,291.21,247.765,284.579,255.914,284.579z"/>
		<path d="M255.914,406.687c16.42,0,29.779-13.359,29.779-29.779c0-16.42-13.359-29.779-29.779-29.779s-29.779,13.359-29.779,29.779
			C226.135,393.328,239.494,406.687,255.914,406.687z M255.914,362.128c8.149,0,14.78,6.63,14.78,14.78
			c0,8.149-6.631,14.779-14.78,14.779s-14.78-6.63-14.78-14.779C241.134,368.758,247.765,362.128,255.914,362.128z"/>
		<path d="M475.91,120.202c-7.813-7.813-17.041-15.051-27.43-21.514c-3.515-2.186-8.14-1.111-10.33,2.406
			c-2.188,3.517-1.11,8.142,2.406,10.33c8.044,5.004,15.291,10.492,21.6,16.352c-4.84,16.224-24.361,75.803-59.36,110.802
			c-1.861,1.862-2.606,4.566-1.969,7.12c0.638,2.555,2.573,4.59,5.092,5.359c0.256,0.078,24.586,7.654,44.401,25.838
			c-4.26,16.051-16.139,49.363-37.41,84.199c-17.013,27.865-37.403,52.79-60.6,74.083c-24.495,22.484-52.216,40.963-82.602,55.088
			c53.181-130.6,68.338-228.934,71.536-289.322c2.255-42.583-0.867-72.402-3.688-89.334c5.564,2.149,11.467,3.449,17.611,3.449
			c3.306,0,6.683-0.375,10.113-1.196c14.042-3.358,20.376-11.297,23.217-17.366c1.042-2.226,1.785-4.523,2.288-6.842
			c5.861,1.671,14.453,4.432,24.175,8.557c0.956,0.406,1.949,0.598,2.927,0.598c2.919,0,5.695-1.716,6.907-4.573
			c1.618-3.813-0.162-8.216-3.974-9.833c-12.722-5.398-23.546-8.604-29.673-10.21c-0.965-6.973-3.115-13.066-4.612-16.694
			c1.011-2.494,2.35-6.196,3.393-10.504c2.688-11.098,2.207-20.664-1.43-28.432c-2.841-6.069-9.174-14.008-23.217-17.366
			c-27.135-6.488-50.868,14.864-63.614,29.72c-6.344-12.979-19.681-21.942-35.074-21.942h-21.357
			c-15.393,0-28.729,8.962-35.073,21.94c-12.743-14.856-36.475-36.209-63.614-29.718c-14.042,3.358-20.376,11.297-23.217,17.366
			c-6.725,14.366-1.055,31.687,1.964,38.998c-1.011,2.494-2.35,6.196-3.393,10.504c-0.51,2.107-0.905,4.158-1.187,6.152
			c-14.646,3.822-55.17,16.514-84.635,45.987c-1.886,1.886-2.628,4.632-1.949,7.211c0.784,2.98,18.561,69.314,56.698,113.412
			c-10.922,4.711-28.149,13.713-42.781,28.351c-1.807,1.808-2.568,4.41-2.021,6.906c0.376,1.718,9.556,42.639,39.617,92.31
			c17.646,29.157,38.868,55.257,63.075,77.576c30.284,27.921,65.333,49.954,104.172,65.485c0.903,0.361,1.848,0.536,2.783,0.536
			c0,0,0.001,0,0.002,0s0.001,0,0.002,0c0.936,0,1.88-0.175,2.783-0.536c38.836-15.53,73.917-37.561,104.267-65.479
			c24.258-22.316,45.553-48.413,63.291-77.566c30.22-49.665,39.558-90.581,39.941-92.299c0.559-2.504-0.202-5.119-2.016-6.933
			c-14.632-14.638-31.858-23.64-42.781-28.351c38.137-44.098,55.914-110.432,56.698-113.412
			C478.538,124.834,477.796,122.088,475.91,120.202z M322.759,30.648c13.957-12.718,27.087-17.722,39.033-14.864
			c6.687,1.599,10.975,4.578,13.107,9.108c4.457,9.467-0.864,24.374-3.283,29.304c-1.036,2.089-1.034,4.557-0.007,6.651
			c2.426,4.945,7.747,19.851,3.29,29.318c-2.132,4.529-6.42,7.509-13.107,9.108c-25.916,6.194-50.597-26.51-56.182-34.506V50.281
			C308.064,46.754,314.24,38.411,322.759,30.648z M221.218,47.991c0-13.243,10.774-24.018,24.018-24.018h21.357
			c13.244,0,24.018,10.774,24.018,24.018v21.356c0,13.244-10.774,24.018-24.018,24.018h-21.357
			c-13.244,0-24.018-10.774-24.018-24.018V47.991z M140.219,54.21c-2.426-4.945-7.747-19.851-3.29-29.318
			c2.132-4.529,6.42-7.509,13.107-9.108c25.916-6.197,50.606,26.524,56.182,34.506v14.485c-2.455,3.528-8.631,11.871-17.15,19.633
			c-13.957,12.718-27.088,17.721-39.033,14.864c-6.687-1.599-10.975-4.578-13.107-9.108c-4.457-9.467,0.864-24.374,3.283-29.304
			C141.249,58.772,141.247,56.304,140.219,54.21z M159.147,435.183c-23.143-21.29-43.457-46.212-60.379-74.073
			c-21.163-34.845-32.92-68.166-37.112-84.204c19.818-18.195,44.157-25.772,44.405-25.848c2.524-0.763,4.462-2.796,5.103-5.353
			c0.642-2.557-0.106-5.264-1.971-7.128c-34.999-34.999-54.521-94.579-59.36-110.803c24.301-22.573,56.389-33.8,71.228-38.068
			c0.522,2.392,1.273,4.66,2.269,6.789c2.841,6.069,9.174,14.008,23.217,17.366c3.432,0.821,6.804,1.196,10.113,1.196
			c6.174,0,12.103-1.314,17.691-3.481c-4.465,26.055-9.721,82.571,5.144,168.955c0.629,3.652,3.799,6.229,7.383,6.229
			c0.422,0,0.851-0.036,1.28-0.109c4.082-0.703,6.822-4.581,6.12-8.663c-10.486-60.936-10.454-106.265-8.581-133.561
			c1.58-23.026,4.698-37.429,6.018-42.735c7.064-5.302,13.098-11.4,17.763-16.755c6.029,13.775,19.784,23.428,35.757,23.428h21.357
			c15.973,0,29.728-9.653,35.757-23.428c4.713,5.412,10.827,11.581,17.988,16.922c3.567,14.04,8.616,49.373,5.867,99.398
			c-3.247,59.098-18.268,155.443-70.525,283.672c-25.18-61.769-43.946-121.498-55.804-177.767c-0.854-4.053-4.835-6.646-8.885-5.792
			c-4.053,0.854-6.646,4.832-5.792,8.885c12.023,57.046,30.989,117.521,56.441,180.007
			C211.267,476.139,183.583,457.662,159.147,435.183z"/>
		<path d="M354.679,82.32c4.142,0,7.5-3.358,7.5-7.5c0-4.142-3.357-7.5-7.5-7.5c-13.283,0-22.096-5.893-22.096-9.792
			s8.813-9.792,22.096-9.792c4.142,0,7.5-3.358,7.5-7.5s-3.357-7.5-7.5-7.5c-20.801,0-37.095,10.89-37.095,24.791
			S333.878,82.32,354.679,82.32z"/>
		<path d="M157.149,67.32c-4.142,0-7.5,3.358-7.5,7.5c0,4.142,3.357,7.5,7.5,7.5c20.801,0,37.095-10.89,37.095-24.791
			s-16.294-24.791-37.095-24.791c-4.142,0-7.5,3.358-7.5,7.5s3.357,7.5,7.5,7.5c13.283,0,22.096,5.893,22.096,9.792
			S170.432,67.32,157.149,67.32z"/>
	</g>
</g>
<g>
</g>
<g>
</g>
<g>
</g>
<g>
</g>
<g>
</g>
<g>
</g>
<g>
</g>
<g>
</g>
<g>
</g>
<g>
</g>
<g>
</g>
<g>
</g>
<g>
</g>
<g>
</g>
<g>
</g>
</svg>
