<?xml version="1.0" encoding="iso-8859-1"?>
<!-- Generator: Adobe Illustrator 24.0.0, SVG Export Plug-In . SVG Version: 6.00 Build 0)  -->
<svg version="1.1" id="Capa_1" xmlns="http://www.w3.org/2000/svg" xmlns:xlink="http://www.w3.org/1999/xlink" x="0px" y="0px"
	 viewBox="0 0 512 512" style="enable-background:new 0 0 512 512;" xml:space="preserve">
<g>
	<g>
		<path style="fill:#E7ECF1;" d="M478.14,406.821v23.28c0,2.87-0.34,5.66-0.99,8.34c-3.75,15.55-17.76,27.11-34.47,27.11H69.32
			c-19.58,0-35.46-15.87-35.46-35.45v-23.28H478.14z"/>
		<path style="fill:#C6D0DA;" d="M478.14,406.821v23.28c0,2.87-0.34,5.66-0.99,8.34H68.2v-31.62H478.14z"/>
		<path style="fill:#C6D0DA;" d="M186.367,465.551H69.317c-19.58,0-35.46-15.87-35.46-35.45v-23.28h117.06v23.28
			C150.917,449.681,166.787,465.551,186.367,465.551z"/>
		<path style="fill:#E7ECF1;" d="M487.208,387.233H24.792c-9.55,0-17.292,7.742-17.292,17.292v0c0,9.55,7.742,17.292,17.292,17.292
			h462.416c9.55,0,17.292-7.742,17.292-17.292v0C504.5,394.975,496.758,387.233,487.208,387.233z"/>
		<path style="fill:#C6D0DA;" d="M133.61,416.755c3.13,3.12,7.45,5.06,12.23,5.06H24.79c-4.77,0-9.1-1.94-12.23-5.06
			c-3.12-3.13-5.06-7.46-5.06-12.23c0-9.55,7.74-17.29,17.29-17.29h121.05c-9.55,0-17.3,7.74-17.3,17.29
			C128.54,409.295,130.48,413.625,133.61,416.755z"/>
		<path style="fill:#DA4A54;" d="M204.21,289.601c-2.35,8.59-9.28,15.87-19.21,17.82c-47.02,9.18-91.67-9.49-115.59-40.83
			c8.46-8.68,6.04-6.2,14.5-14.89c9.62,7.22,20.4,12.14,31.6,14.74c18.16,4.22,37.41,2.37,54.61-5.56
			c3.33-1.54,6.85-2.28,10.34-2.28c7.42,0,14.67,3.36,19.45,9.52C204.99,274.671,206.14,282.571,204.21,289.601z"/>
		<path style="fill:#C63D4F;" d="M204.21,289.601c-2.35,8.59-9.28,15.87-19.21,17.82c-47.02,9.18-91.67-9.49-115.59-40.83
			c8.46-8.68,6.04-6.2,14.5-14.89c9.62,7.22,20.4,12.14,31.6,14.74c14,14.96,40.48,30.28,88.69,23.16H204.21z"/>
		<path style="fill:#F4DD45;" d="M197.849,339.347H86.91c-8.3,0-15.029,6.729-15.029,15.029v17.827
			c0,8.3,6.729,15.029,15.029,15.029h110.939c8.3,0,15.029-6.729,15.029-15.029v-17.827
			C212.879,346.076,206.15,339.347,197.849,339.347z"/>
		<path style="fill:#EAB14D;" d="M129.831,387.226h-42.92c-8.3,0-15.03-6.73-15.03-15.03v-17.82c0-8.31,6.73-15.03,15.03-15.03
			h42.92c-8.3,0-15.03,6.72-15.03,15.03v17.82C114.801,380.496,121.531,387.226,129.831,387.226z"/>
		<path style="fill:#DA4A54;" d="M83.91,251.701l-7.89,8.1l-6.61,6.79l-41.89-19.18c3.36-16.71,11.15-28.2,19.02-35.91
			c10.72-10.53,21.6-14,21.6-14L83.91,251.701z"/>
		<path style="fill:#C63D4F;" d="M76.02,259.801l-6.61,6.79l-41.89-19.18c3.36-16.71,11.15-28.2,19.02-35.91
			C49.73,226.481,57.44,247.531,76.02,259.801z"/>
		<path style="fill:#9D6B6B;" d="M430.967,339.347H296.738c-9.032,0-16.353,7.322-16.353,16.353v15.179
			c0,9.032,7.322,16.353,16.353,16.353h134.229c9.032,0,16.353-7.322,16.353-16.353v-15.179
			C447.32,346.669,439.998,339.347,430.967,339.347z"/>
		<path style="fill:#785252;" d="M352.784,387.23h-56.04c-9.03,0-16.36-7.32-16.36-16.35V355.7c0-9.03,7.33-16.35,16.36-16.35h56.04
			c-9.03,0-16.35,7.32-16.35,16.35v15.18C336.434,379.91,343.754,387.23,352.784,387.23z"/>
		<g>
			<ellipse style="fill:#9BD069;" cx="142.38" cy="211.984" rx="35.582" ry="25.938"/>
			<path style="fill:#80BC93;" d="M172.87,225.362c-6.23,7.52-17.55,12.56-30.49,12.56c-19.65,0-35.58-11.62-35.58-25.94
				c0-12.44,12-22.83,28.03-25.35c-3.23,3.9-5.09,8.48-5.09,13.38c0,14.32,15.93,25.94,35.59,25.94
				C167.92,225.952,170.44,225.752,172.87,225.362z"/>
		</g>
		<g>
			<ellipse style="fill:#90D8F9;" cx="363.852" cy="166.467" rx="35.582" ry="25.938"/>
			<path style="fill:#6BBEF6;" d="M394.342,179.846c-6.23,7.52-17.55,12.56-30.49,12.56c-19.65,0-35.58-11.62-35.58-25.94
				c0-12.44,12-22.83,28.03-25.35c-3.23,3.9-5.09,8.48-5.09,13.38c0,14.32,15.93,25.94,35.59,25.94
				C389.392,180.436,391.912,180.236,394.342,179.846z"/>
		</g>
		<path style="fill:#F4DD45;" d="M437.806,284.13l-73.954-73.954l-73.954,73.954C330.742,324.974,396.962,324.974,437.806,284.13z"
			/>
		<path style="fill:#EAB14D;" d="M437.806,284.13c-40.85,40.84-107.07,40.84-147.91,0l17.07-17.07c34.49,22.4,79.28,22.4,113.77,0
			L437.806,284.13z"/>
		<rect x="287.7" y="58.421" style="fill:#DA4A54;" width="76.15" height="51.876"/>
	</g>
	<path d="M487.208,379.733h-34.099c1.099-2.739,1.71-5.725,1.71-8.853v-15.179c0-13.153-10.7-23.854-23.853-23.854H371.35v-9.895
		c26.153-1.74,51.815-12.576,71.763-32.519c1.407-1.406,2.197-3.314,2.197-5.303s-0.79-3.897-2.197-5.304l-39.17-39.17
		c-2.929-2.929-7.678-2.929-10.606,0c-2.929,2.929-2.929,7.678,0,10.606l15.211,15.211c-27.977,14.539-61.41,14.54-89.389,0.002
		l44.691-44.69l8.287,8.287c2.929,2.929,7.678,2.929,10.606,0c2.929-2.929,2.929-7.678,0-10.606l-11.393-11.393v-7.686
		c20.192-2.763,35.584-16.469,35.584-32.921s-15.392-30.157-35.584-32.92v-23.249V58.421V46.45c0-4.142-3.358-7.5-7.5-7.5
		s-7.5,3.358-7.5,7.5v4.472H287.7c-4.142,0-7.5,3.358-7.5,7.5v51.876c0,4.142,3.358,7.5,7.5,7.5h68.65v15.75
		c-20.19,2.764-35.58,16.469-35.58,32.92s15.39,30.156,35.58,32.92v7.687l-71.753,71.753c-1.407,1.406-2.197,3.314-2.197,5.303
		s0.79,3.897,2.197,5.303c19.947,19.947,45.598,30.784,71.753,32.52v9.893h-59.612c-13.153,0-23.854,10.701-23.854,23.854v15.179
		c0,3.128,0.611,6.114,1.71,8.853H219.08c0.838-2.356,1.298-4.889,1.298-7.529v-17.827c0-12.423-10.106-22.529-22.529-22.529H149.88
		v-15.042c3.627,0.302,7.283,0.457,10.958,0.456c8.473,0,17.052-0.813,25.597-2.483c11.119-2.173,20.126-9.782,24.094-20.353
		c3.935-10.486,2.181-22.037-4.692-30.898c-9.21-11.875-25.187-15.766-38.856-9.459c-5.538,2.555-11.277,4.408-17.1,5.581v-14.745
		c20.191-2.764,35.582-16.469,35.582-32.921s-15.391-30.156-35.582-32.92v-7.982c0-4.142-3.358-7.5-7.5-7.5s-7.5,3.358-7.5,7.5
		v7.982c-20.191,2.764-35.582,16.469-35.582,32.92s15.391,30.157,35.582,32.921v16.256c-15.678,0.039-31.244-4.709-44.489-14.02
		l-15.046-51.738c-0.565-1.943-1.891-3.575-3.677-4.526c-1.787-0.951-3.882-1.14-5.808-0.523
		c-1.506,0.482-36.982,12.289-45.697,55.578c-0.687,3.413,1.065,6.85,4.231,8.299l40.254,18.427
		c17.242,21.779,42.365,36.392,70.232,42.013v17.177H86.911c-12.423,0-22.529,10.106-22.529,22.529v17.827
		c0,2.64,0.46,5.173,1.298,7.529H24.792C11.122,379.733,0,390.854,0,404.525c0,13.67,11.122,24.792,24.792,24.792h1.568v0.783
		c0,23.683,19.272,42.95,42.96,42.95h21.79c4.142,0,7.5-3.358,7.5-7.5s-3.358-7.5-7.5-7.5H69.32c-15.417,0-27.96-12.538-27.96-27.95
		v-0.78h429.28v0.78c0,15.412-12.543,27.95-27.96,27.95H121.11c-4.142,0-7.5,3.358-7.5,7.5s3.358,7.5,7.5,7.5h321.57
		c23.688,0,42.96-19.267,42.96-42.95v-0.783h1.568c13.67,0,24.792-11.122,24.792-24.792
		C512,390.854,500.878,379.733,487.208,379.733z M295.2,102.798V65.921h61.15v36.876H295.2z M335.771,166.467
		c0-9.995,12.86-18.438,28.082-18.438c15.222,0,28.082,8.443,28.082,18.438s-12.86,18.438-28.082,18.438
		C348.63,184.906,335.771,176.462,335.771,166.467z M308.111,276.525c17.236,9.9,36.481,14.866,55.74,14.866
		c19.255,0,38.509-4.969,55.744-14.868l7.404,7.405c-36.222,31.053-90.076,31.053-126.291,0L308.111,276.525z M114.298,211.984
		c0-9.995,12.86-18.438,28.082-18.438s28.082,8.443,28.082,18.438s-12.86,18.438-28.082,18.438S114.298,221.979,114.298,211.984z
		 M63.377,207.964l12.109,41.637l-7.757,7.969l-31.461-14.402C42.1,223.042,55.19,212.673,63.377,207.964z M79.461,267.022
		l5.384-5.531c26.365,16.997,59.656,19.468,88.418,6.198c7.292-3.365,15.812-1.294,20.72,5.032
		c3.712,4.787,4.624,10.776,2.501,16.434c-2.125,5.66-6.957,9.735-12.927,10.902c-21.107,4.125-42.687,2.435-62.403-4.887
		C104.61,289.026,90.318,279.358,79.461,267.022z M287.884,370.88v-15.179c0-4.882,3.972-8.854,8.854-8.854h134.229
		c4.881,0,8.853,3.972,8.853,8.854v15.179c0,4.881-3.972,8.853-8.853,8.853H296.738C291.856,379.733,287.884,375.761,287.884,370.88
		z M79.381,372.204v-17.827c0-4.152,3.377-7.529,7.529-7.529h55.392c0.026,0,0.051,0.004,0.077,0.004s0.051-0.004,0.077-0.004
		h55.392c4.152,0,7.529,3.377,7.529,7.529v17.827c0,4.152-3.377,7.529-7.529,7.529H86.911
		C82.759,379.733,79.381,376.355,79.381,372.204z M487.208,414.317H24.792c-5.399,0-9.792-4.393-9.792-9.792
		s4.393-9.792,9.792-9.792h462.416c5.399,0,9.792,4.393,9.792,9.792S492.607,414.317,487.208,414.317z"/>
</g>
<g>
</g>
<g>
</g>
<g>
</g>
<g>
</g>
<g>
</g>
<g>
</g>
<g>
</g>
<g>
</g>
<g>
</g>
<g>
</g>
<g>
</g>
<g>
</g>
<g>
</g>
<g>
</g>
<g>
</g>
</svg>
