<?xml version="1.0" encoding="iso-8859-1"?>
<!-- Generator: Adobe Illustrator 24.0.0, SVG Export Plug-In . SVG Version: 6.00 Build 0)  -->
<svg version="1.1" id="Capa_1" xmlns="http://www.w3.org/2000/svg" xmlns:xlink="http://www.w3.org/1999/xlink" x="0px" y="0px"
	 viewBox="0 0 512 512" style="enable-background:new 0 0 512 512;" xml:space="preserve">
<g>
	<g>
		<path style="fill:#E7ECF1;" d="M7.5,252.234c0,137.243,111.257,248.5,248.5,248.5s248.5-111.257,248.5-248.5H7.5z"/>
		<path style="fill:#C6D0DA;" d="M256,500.734c-137.24,0-248.5-111.26-248.5-248.5h133.89C141.39,389.474,192.7,500.734,256,500.734
			z"/>
		<g>
			<path style="fill:#DA4A54;" d="M195.09,127.747c0,0-2.892-59.294-50.021-74.032s-56.312,31.172-19.282,42.752
				S195.09,127.747,195.09,127.747z"/>
			<path style="fill:#C63D4F;" d="M125.787,96.467c37.03,11.58,69.3,31.28,69.3,31.28s-21.808-32.592-38.698-37.872
				c-29.13-9.11-37.652-31.478-13.592-36.828C97.647,40.467,89.357,85.077,125.787,96.467z"/>
		</g>
		<g>
			<path style="fill:#DA4A54;" d="M238.178,137.08c0,0,36.477-46.836,10.36-88.745S185.52,35.243,206.04,68.17
				S238.178,137.08,238.178,137.08z"/>
			<path style="fill:#C63D4F;" d="M206.04,68.17c20.52,32.928,32.136,68.907,32.136,68.907s4.722-38.93-4.638-53.947
				c-16.142-25.903-8.015-48.418,13.714-36.783C221.228,7.366,185.851,35.778,206.04,68.17z"/>
		</g>
		<path style="fill:#DA4A54;" d="M466.47,298.284c-21.09,96.85-107.31,169.36-210.47,169.36c-22.42,0-44.04-3.43-64.37-9.78
			c-74.05-23.16-130.91-85.21-146.66-162.23c32.42-11.62,66.45-0.69,99.06,9.88c12.17,3.95,24.15,7.84,35.77,10.49
			c46.63,10.64,101.73-46.56,142.71-27.93C360.81,305.474,399.41,326.724,466.47,298.284z"/>
		<path style="fill:#C63D4F;" d="M191.63,457.864c-74.05-23.16-130.91-85.21-146.66-162.23c32.42-11.62,66.45-0.69,99.06,9.88
			C150.39,368.594,167.79,422.714,191.63,457.864z"/>
		<g>
			<path style="fill:#86A0AF;" d="M266.715,232.108L368.939,37.14c12.365-23.584,41.611-32.703,65.195-20.337
				s32.708,41.601,20.342,65.185l-18.449,35.188c-4.091,7.802-13.716,10.806-21.518,6.715c-7.792-4.086-10.806-13.716-6.715-21.518
				l18.449-35.188c4.204-8.018,1.097-17.95-6.912-22.149c-8.018-4.204-17.955-1.111-22.159,6.907l-88.547,168.881"/>
			<g>
				<path style="fill:#738B95;" d="M381.331,43.637c11.262-21.479,36.524-30.952,58.76-23.132c-1.869-1.356-3.853-2.599-5.958-3.703
					c-23.584-12.365-52.829-3.247-65.195,20.337L266.715,232.108l18.396-4.953L381.331,43.637z"/>
				<path style="fill:#738B95;" d="M420.185,108.87l18.45-35.188c4.204-8.018,1.097-17.95-6.912-22.149
					c-2.219-1.164-4.585-1.749-6.936-1.845c3.697,4.908,4.496,11.698,1.456,17.497l-18.45,35.188
					c-4.091,7.802-1.077,17.432,6.715,21.518c2.227,1.168,4.603,1.739,6.956,1.804C417.982,120.942,417.263,114.444,420.185,108.87z
					"/>
			</g>
			<path style="fill:#86A0AF;" d="M308.63,220.825l-157.144-82.393l-6.612,12.61c-22.752,43.394-6.019,97.016,37.376,119.768l0,0
				c43.394,22.752,97.016,6.019,119.768-37.376L308.63,220.825z"/>
			<path style="fill:#738B95;" d="M205.971,279.229c-8.078-1.62-16.061-4.402-23.722-8.418
				c-43.394-22.752-60.128-76.375-37.376-119.769l6.612-12.611l44.147,23.147l-6.612,12.611
				C170.285,209.922,178.323,252.579,205.971,279.229z"/>
		</g>
		<circle style="fill:#E4989D;" cx="346.519" cy="394.566" r="18.207"/>
		<circle style="fill:#E4989D;" cx="192.635" cy="395.916" r="18.207"/>
		<circle style="fill:#E4989D;" cx="276.935" cy="342.939" r="14.466"/>
	</g>
	<g>
		<path d="M123.548,103.625c35.661,11.152,67.32,30.333,67.635,30.525c1.199,0.731,2.552,1.097,3.906,1.097
			c1.324,0,2.649-0.35,3.83-1.051c2.387-1.418,3.797-4.04,3.662-6.813c-0.032-0.656-0.864-16.27-7.857-33.891
			c-9.517-23.98-25.913-40.21-47.417-46.935c-24.546-7.676-37.698-0.087-43.353,5.12c-7.011,6.455-9.927,15.974-7.799,25.463
			C98.859,89.206,109.1,99.107,123.548,103.625z M114.114,62.712c3.171-2.92,7.925-4.396,13.77-4.396
			c4.428,0,9.483,0.848,14.947,2.557c27.814,8.698,38.444,35.737,42.438,52.765c-13.086-6.938-34.152-17.109-57.243-24.33
			c-9.272-2.899-15.715-8.675-17.233-15.449C109.836,69.598,111.047,65.535,114.114,62.712z"/>
		<path d="M231.042,139.386c0.855,2.643,3.1,4.597,5.835,5.079c0.435,0.077,0.871,0.114,1.303,0.114
			c2.288,0,4.481-1.048,5.916-2.891c0.404-0.518,9.956-12.897,16.146-30.816c8.424-24.386,6.578-47.382-5.338-66.503
			c-15.853-25.437-36.129-28.61-49.188-20.471c-12.606,7.855-19.007,27.432-6.04,48.239
			C219.437,103.848,230.928,139.035,231.042,139.386z M213.648,36.628c1.722-1.073,3.753-1.661,5.996-1.661
			c6.514,0,14.813,4.954,22.529,17.335c15.414,24.733,5.839,52.163-2.239,67.676c-5.396-13.794-14.732-35.242-27.528-55.775
			C204.591,51.665,207.214,40.638,213.648,36.628z"/>
		<path d="M247.224,293.479c-22.515,9.716-45.798,19.76-65.755,15.208c-11.164-2.547-22.599-6.253-34.706-10.176
			c-34.096-11.047-69.353-22.47-104.322-9.943c-3.513,1.258-5.566,4.908-4.818,8.563c10.139,49.572,37.336,94.71,76.581,127.1
			c39.775,32.828,90.133,50.907,141.796,50.907c30.827,0,60.678-6.176,88.723-18.355c27.089-11.765,51.256-28.561,71.83-49.922
			c2.873-2.983,2.784-7.731-0.199-10.604c-2.984-2.874-7.731-2.784-10.605,0.199c-39.553,41.066-92.734,63.683-149.748,63.683
			c-48.188,0-95.154-16.86-132.249-47.476c-34.854-28.766-59.519-68.301-69.963-111.914c28.393-7.397,58.838,2.469,88.351,12.031
			c11.887,3.852,24.178,7.834,35.993,10.53c24.738,5.643,50.308-5.389,75.036-16.06c24.646-10.635,47.927-20.68,66.24-12.354
			c2.129,0.967,4.258,1.946,6.393,2.927c33.631,15.461,71.43,32.838,129.842,12.66c-6.647,22.895-17.15,44.309-31.32,63.818
			c-2.435,3.351-1.69,8.042,1.661,10.476c3.351,2.433,8.041,1.69,10.476-1.661c18.209-25.071,30.772-53.078,37.34-83.242
			c0.597-2.739-0.384-5.582-2.542-7.37s-5.133-2.224-7.715-1.13c-27.061,11.477-51.573,15.458-74.934,12.167
			c-20.848-2.936-38.994-11.278-56.543-19.346c-2.154-0.991-4.304-1.979-6.451-2.954
			C301.248,270.165,273.784,282.017,247.224,293.479z"/>
		<path d="M504.5,244.734H304.076c1.635-2.517,3.173-5.118,4.586-7.813l95.153-181.497c1.102-2.102,2.962-3.65,5.236-4.358
			c2.279-0.709,4.69-0.493,6.797,0.611c4.35,2.281,6.032,7.675,3.752,12.024L401.151,98.89c-2.908,5.547-3.482,11.894-1.615,17.871
			c1.865,5.975,5.946,10.866,11.49,13.772c5.546,2.908,11.893,3.484,17.867,1.62s10.867-5.947,13.775-11.494l18.45-35.188
			c6.91-13.18,8.27-28.28,3.826-42.516c-4.442-14.237-14.148-25.883-27.329-32.793c-13.18-6.911-28.279-8.271-42.52-3.831
			c-14.24,4.442-25.889,14.146-32.8,27.327l-85.065,162.24l-122.259-64.109c-3.668-1.924-8.199-0.511-10.124,3.156l-6.621,12.612
			c-4.514,8.603-7.685,17.771-9.425,27.25c-0.748,4.074,1.948,7.983,6.022,8.731c4.076,0.75,7.983-1.949,8.731-6.022
			c1.468-7.992,4.144-15.727,7.954-22.988l3.135-5.973l143.86,75.436l-3.128,5.967c-2.806,5.35-6.156,10.288-9.951,14.778H161.383
			c-9.461-11.153-15.79-24.81-18.176-39.859c-0.648-4.091-4.493-6.884-8.582-6.233c-4.091,0.649-6.882,4.491-6.233,8.582
			c2.143,13.516,7.168,26.277,14.497,37.51H7.5c-4.142,0-7.5,3.358-7.5,7.5c0,68.38,26.629,132.667,74.98,181.02
			c48.352,48.352,112.64,74.98,181.02,74.98s132.668-26.628,181.02-74.98S512,320.614,512,252.234
			C512,248.092,508.643,244.734,504.5,244.734z M290.517,202.862l85.065-162.24c5.05-9.631,13.566-16.724,23.98-19.972
			c10.413-3.247,21.454-2.256,31.089,2.795c9.632,5.05,16.726,13.565,19.976,23.977c3.249,10.412,2.258,21.451-2.793,31.083
			l-18.45,35.188c-1.048,1.999-2.809,3.469-4.958,4.14c-2.15,0.671-4.436,0.463-6.435-0.585c-1.996-1.046-3.466-2.808-4.138-4.958
			c-0.672-2.152-0.465-4.437,0.583-6.434l18.449-35.188c6.121-11.675,1.603-26.153-10.072-32.274
			c-5.651-2.963-12.124-3.548-18.224-1.648c-6.104,1.902-11.097,6.063-14.06,11.715l-85.065,162.241L290.517,202.862z
			 M268.662,259.734c-13.136,8.803-28.805,13.735-45.292,13.735c-13.008,0-26.023-3.217-37.637-9.302
			c-2.587-1.357-5.074-2.841-7.466-4.433H268.662z M426.413,422.647C380.895,468.165,320.374,493.234,256,493.234
			c-64.374,0-124.894-25.068-170.413-70.587C41.841,378.9,16.983,321.296,15.114,259.734h139.835
			c6.915,7.04,14.925,13.054,23.82,17.718c13.755,7.208,29.178,11.017,44.601,11.017c26.303,0,50.854-10.593,68.67-28.735h204.846
			C495.017,321.296,470.159,378.9,426.413,422.647z"/>
		<path d="M320.813,394.566c0,14.175,11.531,25.707,25.706,25.707s25.707-11.532,25.707-25.707s-11.532-25.707-25.707-25.707
			S320.813,380.391,320.813,394.566z M357.226,394.566c0,5.904-4.803,10.707-10.707,10.707c-5.903,0-10.706-4.803-10.706-10.707
			s4.803-10.707,10.706-10.707C352.423,383.859,357.226,388.662,357.226,394.566z"/>
		<path d="M166.929,395.916c0,14.175,11.532,25.707,25.707,25.707s25.707-11.532,25.707-25.707s-11.532-25.707-25.707-25.707
			S166.929,381.742,166.929,395.916z M203.342,395.916c0,5.904-4.803,10.707-10.707,10.707s-10.707-4.803-10.707-10.707
			s4.803-10.707,10.707-10.707S203.342,390.013,203.342,395.916z"/>
		<path d="M254.969,342.939c0,12.112,9.854,21.965,21.966,21.965s21.966-9.854,21.966-21.965s-9.854-21.966-21.966-21.966
			S254.969,330.827,254.969,342.939z M283.9,342.939c0,3.841-3.125,6.965-6.966,6.965s-6.966-3.125-6.966-6.965
			s3.125-6.966,6.966-6.966S283.9,339.098,283.9,342.939z"/>
	</g>
</g>
<g>
</g>
<g>
</g>
<g>
</g>
<g>
</g>
<g>
</g>
<g>
</g>
<g>
</g>
<g>
</g>
<g>
</g>
<g>
</g>
<g>
</g>
<g>
</g>
<g>
</g>
<g>
</g>
<g>
</g>
</svg>
