<?xml version="1.0" encoding="iso-8859-1"?>
<!-- Generator: Adobe Illustrator 24.0.0, SVG Export Plug-In . SVG Version: 6.00 Build 0)  -->
<svg version="1.1" id="Capa_1" xmlns="http://www.w3.org/2000/svg" xmlns:xlink="http://www.w3.org/1999/xlink" x="0px" y="0px"
	 viewBox="0 0 512 512" style="enable-background:new 0 0 512 512;" xml:space="preserve">
<g>
	<g>
		<path style="fill:#F4DD45;" d="M463.956,464.03c-103.43,41.87-216.489,51.25-324.229,28.13c-19.04-4.08-37.92-9.18-56.55-15.29
			h-0.03c-11.81-3.87-23.52-8.15-35.1-12.84c-34.38-13.91-48.38-55.14-29.84-87.25L219.117,28.792
			c7.02-12.15,18.54-19.1,30.71-20.85c16.26-2.34,33.68,4.61,43.06,20.85l150.009,259.849h0.01l50.88,88.14
			c2.75,4.76,4.78,9.72,6.13,14.76v0.01C507.736,420.52,493.226,452.18,463.956,464.03z"/>
		<path style="fill:#EAB14D;" d="M249.827,7.942l-110.1,484.218c-19.04-4.08-37.92-9.18-56.55-15.29h-0.03
			c-11.81-3.87-23.52-8.15-35.1-12.84c-34.38-13.91-48.38-55.14-29.84-87.25L219.117,28.792
			C226.137,16.642,237.657,9.692,249.827,7.942z"/>
		<path style="fill:#DA4A54;" d="M499.916,391.54v0.01c-125.979,89.16-273.459,96.609-358.138,91.599
			c-26.6-1.58-47.01-4.39-58.6-6.28h-0.03c-11.81-3.87-23.52-8.15-35.1-12.84c-34.38-13.91-48.38-55.14-29.84-87.25
			c0,0,61.34,13.06,145.949,7.92c82.54-5.02,187.239-27.36,278.739-96.059h0.01l50.88,88.14
			C496.536,381.541,498.566,386.5,499.916,391.54z"/>
		<path style="fill:#DA4A54;" d="M391.477,199.561c-67.11,37.16-137.569,53.91-198.959,60.42c-41.49,4.4-78.84,4.13-108.22,2.33
			l68.74-119.07h0.01c21.08-0.92,43.8-2.94,67.51-6.59c37.24-5.7,76.94-15.41,116.62-31.15L391.477,199.561z"/>
		<path style="fill:#C63D4F;" d="M164.158,384.7l-22.38,98.45c-26.6-1.58-47.01-4.39-58.6-6.28h-0.03
			c-11.81-3.87-23.52-8.15-35.1-12.84c-34.38-13.91-48.38-55.14-29.84-87.25C18.208,376.781,79.548,389.84,164.158,384.7z"/>
		<path style="fill:#C63D4F;" d="M220.557,136.651l-28.04,123.33c-41.49,4.4-78.84,4.13-108.22,2.33l68.74-119.07h0.01
			C174.128,142.322,196.848,140.302,220.557,136.651z"/>
	</g>
	<g>
		<path d="M77.425,107.186c1.465,1.464,3.385,2.197,5.304,2.197s3.839-0.732,5.304-2.197c2.929-2.929,2.929-7.678,0-10.606
			L57.43,65.977c-2.93-2.929-7.678-2.929-10.607,0c-2.929,2.929-2.929,7.678,0,10.606L77.425,107.186z"/>
		<path d="M28.571,128.231l30.602,11.746c0.884,0.339,1.792,0.5,2.686,0.5c3.016,0,5.859-1.832,7.004-4.814
			c1.484-3.867-0.447-8.205-4.314-9.689l-30.602-11.746c-3.865-1.484-8.205,0.448-9.689,4.314
			C22.772,122.409,24.704,126.747,28.571,128.231z"/>
		<path d="M106.819,83.702c1.146,2.983,3.988,4.814,7.004,4.814c0.893,0,1.802-0.161,2.686-0.5c3.867-1.484,5.799-5.822,4.314-9.689
			l-11.746-30.602c-1.484-3.866-5.819-5.8-9.689-4.314c-3.867,1.484-5.799,5.822-4.314,9.689L106.819,83.702z"/>
		<path d="M429.264,109.382c1.919,0,3.839-0.732,5.304-2.197l30.603-30.602c2.929-2.929,2.929-7.678,0-10.606
			c-2.929-2.929-7.677-2.929-10.607,0L423.96,96.579c-2.929,2.929-2.929,7.678,0,10.606
			C425.425,108.65,427.344,109.382,429.264,109.382z"/>
		<path d="M443.13,135.663c1.146,2.983,3.988,4.814,7.004,4.814c0.893,0,1.802-0.161,2.686-0.5l30.603-11.746
			c3.867-1.484,5.799-5.822,4.314-9.689c-1.484-3.867-5.819-5.801-9.689-4.314l-30.603,11.746
			C443.577,127.458,441.645,131.796,443.13,135.663z"/>
		<path d="M395.483,88.017c0.884,0.339,1.792,0.5,2.686,0.5c3.016,0,5.859-1.832,7.004-4.814L416.919,53.1
			c1.484-3.867-0.447-8.205-4.314-9.689c-3.865-1.483-8.205,0.448-9.689,4.314l-11.746,30.602
			C389.684,82.194,391.616,86.532,395.483,88.017z"/>
		<path d="M500.285,373.03L299.376,25.051C290.323,9.365,274.108,0,256,0s-34.323,9.365-43.375,25.049l-33.061,57.25
			c-2.071,3.587-0.843,8.174,2.744,10.245c3.587,2.073,8.174,0.843,10.246-2.744l33.062-57.252C231.957,21.56,243.316,15,256,15
			c12.684,0,24.043,6.56,30.385,17.55l39.895,69.098c-49.029,18.437-102.682,29.635-159.81,33.343l11.156-19.321
			c2.071-3.587,0.842-8.174-2.745-10.245c-3.589-2.072-8.175-0.842-10.245,2.745L11.715,373.03
			c-9.959,17.249-11.953,37.947-5.472,56.788c6.449,18.744,20.661,33.748,38.992,41.164C112.477,498.2,183.391,512,256.005,512
			s143.527-13.8,210.769-41.018c18.328-7.417,32.537-22.42,38.984-41.164C512.238,410.977,510.244,390.278,500.285,373.03z
			 M333.887,114.825l47.227,81.798c-47.557,25.282-101.077,42.757-159.241,51.932c-40.557,6.397-82.531,8.699-124.948,6.888
			l60.57-104.908C220.725,147.39,280.011,135.388,333.887,114.825z M20.428,424.938c-4.497-13.07-3.766-27.278,1.889-39.737
			c13.056,2.34,47.676,7.657,95.06,8.158c2.236,0.024,4.51,0.036,6.837,0.036c54.918,0,134.611-6.968,214.492-38.396
			c3.854-1.517,5.75-5.871,4.233-9.726c-1.517-3.854-5.87-5.75-9.726-4.233c-80.868,31.817-161.714,37.856-215.281,37.324
			c-40.844-0.407-72.495-4.592-87.888-7.082l58.45-101.236c12.141,0.659,24.251,1.008,36.314,1.008
			c33.688,0,66.985-2.568,99.402-7.682c60.002-9.466,115.261-27.555,164.407-53.754l44.437,76.965
			c-22.521,16.366-46.956,30.751-72.73,42.803c-3.752,1.754-5.372,6.218-3.617,9.971c1.274,2.725,3.977,4.325,6.799,4.325
			c1.063,0,2.145-0.228,3.172-0.708c26.153-12.229,50.976-26.791,73.915-43.335l46.703,80.891c1.493,2.585,2.752,5.272,3.784,8.026
			c-68.43,47.187-150.541,75.818-244.173,85.096c-76.369,7.567-138.464-0.287-162.071-4.111
			c-11.422-3.772-22.751-7.921-33.973-12.463C36.557,451.289,25.463,439.575,20.428,424.938z M491.573,424.939
			c-5.035,14.637-16.125,26.351-30.428,32.139C395.701,483.568,326.682,497,256.005,497c-25.377,0-50.538-1.741-75.399-5.188
			c0.49,0.001,0.97,0.007,1.463,0.007c20.314,0,42.651-0.896,66.317-3.241c93.843-9.299,176.536-37.605,246.02-84.15
			C494.789,411.307,493.867,418.271,491.573,424.939z"/>
	</g>
</g>
<g>
</g>
<g>
</g>
<g>
</g>
<g>
</g>
<g>
</g>
<g>
</g>
<g>
</g>
<g>
</g>
<g>
</g>
<g>
</g>
<g>
</g>
<g>
</g>
<g>
</g>
<g>
</g>
<g>
</g>
</svg>
