<?xml version="1.0" encoding="iso-8859-1"?>
<!-- Generator: Adobe Illustrator 24.0.0, SVG Export Plug-In . SVG Version: 6.00 Build 0)  -->
<svg version="1.1" id="Capa_1" xmlns="http://www.w3.org/2000/svg" xmlns:xlink="http://www.w3.org/1999/xlink" x="0px" y="0px"
	 viewBox="0 0 512 512" style="enable-background:new 0 0 512 512;" xml:space="preserve">
<g>
	<g>
		<g>
			<g>
				<path style="fill:#544F57;" d="M75.024,460.455L75.024,460.455c-5.697-5.697-5.697-14.933,0-20.63l117.994-117.994l20.63,20.63
					L95.654,460.455C89.957,466.151,80.721,466.151,75.024,460.455z"/>
				<path style="fill:#454045;" d="M81.2,464.118c-2.263-0.656-4.392-1.882-6.176-3.666c-5.696-5.696-5.696-14.931,0-20.627
					l117.999-117.999l9.841,9.841L84.865,449.666C80.953,453.578,79.733,459.169,81.2,464.118z"/>
				<path style="fill:#E7ECF1;" d="M166.761,368.717L166.761,368.717c-13.206-13.206-13.206-34.618,0-47.824L339.304,148.35
					c13.206-13.206,34.618-13.206,47.824,0l0,0c13.206,13.206,13.206,34.618,0,47.824L214.585,368.717
					C201.379,381.924,179.967,381.924,166.761,368.717z"/>
				<path style="fill:#C6D0DA;" d="M178.041,376.191c-4.11-1.657-7.952-4.145-11.28-7.473c-13.204-13.204-13.211-34.614,0-47.826
					L339.304,148.35c13.204-13.204,34.621-13.204,47.825,0c3.327,3.327,5.809,7.177,7.466,11.287
					c-12.189-4.9-26.662-2.411-36.539,7.466L185.513,339.645C175.63,349.529,173.148,363.995,178.041,376.191z"/>
			</g>
			<g>
				<path style="fill:#544F57;" d="M436.978,460.455L436.978,460.455c-5.697,5.697-14.933,5.697-20.63,0L298.354,342.461
					l20.63-20.63l117.994,117.994C442.674,445.521,442.674,454.758,436.978,460.455z"/>
				<path style="fill:#454045;" d="M440.641,454.279c-0.656,2.263-1.882,4.392-3.666,6.176c-5.696,5.696-14.931,5.696-20.627,0
					L298.349,342.456l9.841-9.841l117.999,117.999C430.101,454.526,435.692,455.745,440.641,454.279z"/>
				<path style="fill:#F4DD45;" d="M345.24,368.717L345.24,368.717c-13.206,13.206-34.618,13.206-47.824,0L124.873,196.175
					c-13.206-13.206-13.206-34.618,0-47.824l0,0c13.206-13.206,34.618-13.206,47.824,0L345.24,320.893
					C358.446,334.099,358.446,355.511,345.24,368.717z"/>
				<path style="fill:#EAB14D;" d="M352.714,357.438c-1.657,4.11-4.145,7.952-7.473,11.28c-13.204,13.204-34.614,13.211-47.826,0
					L124.873,196.175c-13.204-13.204-13.204-34.621,0-47.825c3.327-3.327,7.177-5.809,11.287-7.466
					c-4.9,12.189-2.411,26.662,7.466,36.539l172.542,172.542C326.052,359.849,340.518,362.33,352.714,357.438z"/>
			</g>
		</g>
	</g>
	<g>
		<path d="M430.222,422.474c-2.929-2.93-7.678-2.929-10.606,0c-2.929,2.929-2.929,7.678,0,10.606l12.058,12.058
			c1.339,1.336,2.076,3.113,2.076,5.002c0,1.892-0.739,3.673-2.08,5.015c-2.76,2.76-7.258,2.759-10.021,0l-76.56-76.561
			c1.914-1.347,3.745-2.865,5.456-4.576c1.709-1.708,3.225-3.537,4.571-5.448l43.415,43.423c1.464,1.465,3.384,2.197,5.304,2.197
			c1.919,0,3.838-0.732,5.303-2.196c2.929-2.929,2.93-7.677,0.001-10.606l-47.519-47.528c2.979-13.352-0.705-27.904-11.074-38.272
			l-36.11-36.11l78.003-78.003c7.801-7.801,12.097-18.174,12.097-29.211c0-11.031-4.294-21.407-12.099-29.223
			c-16.114-16.104-42.326-16.103-58.43,0.002l-78.003,78.002l-67.428-67.428c-2.929-2.929-7.678-2.929-10.606,0
			c-2.929,2.929-2.929,7.678,0,10.606l161.97,161.97c10.261,10.261,10.261,26.958,0,37.219c-10.261,10.261-26.958,10.261-37.219,0
			L130.18,190.875c-4.972-4.973-7.711-11.583-7.711-18.613c0-7.03,2.738-13.637,7.711-18.606c4.974-4.974,11.582-7.713,18.604-7.713
			c2.995,0,5.953,0.505,8.793,1.501c3.908,1.369,8.188-0.686,9.56-4.595s-0.686-8.188-4.595-9.56
			c-4.44-1.558-9.069-2.347-13.758-2.347c-11.03,0-21.404,4.3-29.209,12.105c-7.807,7.801-12.106,18.176-12.106,29.214
			c0,11.037,4.299,21.414,12.104,29.219l77.997,77.997l-36.114,36.113c-10.363,10.364-14.046,24.912-11.07,38.264l-80.667,80.667
			c-4.171,4.171-6.469,9.718-6.469,15.617s2.297,11.446,6.469,15.617c4.306,4.306,9.961,6.458,15.617,6.458
			c5.656,0,11.312-2.153,15.617-6.458l80.666-80.666c2.978,0.664,6.015,1.007,9.053,1.007c10.58,0,21.161-4.025,29.217-12.074
			l36.113-36.113l36.11,36.11c8.055,8.055,18.635,12.082,29.216,12.082c3.036,0,6.071-0.343,9.048-1.006l80.672,80.672
			c4.308,4.3,9.962,6.45,15.616,6.449c5.655,0,11.311-2.152,15.614-6.454c4.174-4.175,6.473-9.723,6.473-15.621
			c0-5.901-2.301-11.447-6.474-15.613L430.222,422.474z M344.611,153.65c10.257-10.257,26.953-10.257,37.215-0.004
			c4.97,4.978,7.707,11.589,7.707,18.618c0,7.03-2.736,13.637-7.703,18.604l-78.003,78.003l-37.219-37.219L344.611,153.65z
			 M90.346,455.15c-2.763,2.762-7.258,2.763-10.021,0c-1.338-1.338-2.076-3.118-2.076-5.011s0.737-3.672,2.076-5.01l76.559-76.56
			c1.347,1.914,2.864,3.745,4.573,5.456c1.708,1.707,3.535,3.222,5.447,4.566L90.346,455.15z M209.284,363.414
			c-10.263,10.254-26.96,10.254-37.219,0.004c-10.258-10.266-10.259-26.963-0.002-37.221l36.114-36.113l37.219,37.219
			L209.284,363.414z"/>
		<path d="M70.698,173.611c0-4.142-3.358-7.5-7.5-7.5H7.5c-4.142,0-7.5,3.358-7.5,7.5s3.358,7.5,7.5,7.5h55.698
			C67.34,181.111,70.698,177.753,70.698,173.611z"/>
		<path d="M81.774,214.946c-2.071-3.588-6.658-4.816-10.245-2.745l-30.567,17.648c-3.587,2.071-4.816,6.658-2.745,10.245
			c1.389,2.406,3.91,3.751,6.502,3.751c1.272,0,2.562-0.324,3.743-1.006l30.567-17.648C82.616,223.12,83.845,218.533,81.774,214.946
			z"/>
		<path d="M73.939,296.187c-2.071,3.587-0.842,8.174,2.745,10.245c1.181,0.682,2.471,1.006,3.743,1.006
			c2.592,0,5.113-1.346,6.502-3.751l27.849-48.236c2.071-3.587,0.842-8.174-2.745-10.245c-3.588-2.072-8.175-0.842-10.245,2.745
			L73.939,296.187z"/>
		<path d="M194.703,102.017c1.181,0.682,2.471,1.006,3.743,1.006c2.592,0,5.113-1.345,6.502-3.751l27.85-48.236
			c2.071-3.587,0.842-8.174-2.745-10.245c-3.587-2.072-8.174-0.843-10.245,2.745l-27.85,48.236
			C189.886,95.359,191.115,99.946,194.703,102.017z"/>
		<path d="M160.868,290.549v-26.769c0-4.142-3.358-7.5-7.5-7.5s-7.5,3.358-7.5,7.5v26.769c0,4.142,3.358,7.5,7.5,7.5
			S160.868,294.691,160.868,290.549z"/>
		<path d="M153.368,90.942c4.142,0,7.5-3.358,7.5-7.5V54.921c0-4.142-3.358-7.5-7.5-7.5s-7.5,3.358-7.5,7.5v28.521
			C145.868,87.584,149.226,90.942,153.368,90.942z"/>
		<path d="M101.788,99.272c1.389,2.406,3.91,3.751,6.502,3.751c1.272,0,2.562-0.324,3.743-1.006
			c3.587-2.071,4.816-6.658,2.745-10.245L86.929,43.536c-2.072-3.587-6.659-4.816-10.245-2.745
			c-3.587,2.071-4.816,6.658-2.745,10.245L101.788,99.272z"/>
		<path d="M42.282,118.136l29.247,16.886c1.181,0.682,2.471,1.006,3.743,1.006c2.592,0,5.113-1.346,6.502-3.751
			c2.071-3.587,0.842-8.174-2.745-10.245l-29.247-16.886c-3.587-2.072-8.174-0.842-10.245,2.745
			C37.465,111.478,38.694,116.065,42.282,118.136z"/>
		<path d="M504.5,166.111h-55.698c-4.142,0-7.5,3.358-7.5,7.5s3.358,7.5,7.5,7.5H504.5c4.142,0,7.5-3.358,7.5-7.5
			S508.642,166.111,504.5,166.111z"/>
		<path d="M430.226,132.276c1.389,2.406,3.91,3.751,6.502,3.751c1.272,0,2.562-0.324,3.743-1.006l27.737-16.014
			c3.587-2.071,4.816-6.658,2.745-10.245c-2.071-3.587-6.659-4.816-10.245-2.745l-27.737,16.014
			C429.384,124.102,428.155,128.689,430.226,132.276z"/>
		<path d="M399.967,102.017c1.181,0.682,2.471,1.006,3.743,1.006c2.592,0,5.113-1.346,6.502-3.751l27.849-48.236
			c2.071-3.587,0.842-8.174-2.745-10.245c-3.588-2.072-8.174-0.842-10.245,2.745l-27.849,48.236
			C395.15,95.359,396.379,99.946,399.967,102.017z"/>
		<path d="M351.132,263.781v26.769c0,4.142,3.358,7.5,7.5,7.5s7.5-3.358,7.5-7.5v-26.769c0-4.142-3.358-7.5-7.5-7.5
			S351.132,259.638,351.132,263.781z"/>
		<path d="M358.632,90.942c4.142,0,7.5-3.358,7.5-7.5v-32.5c0-4.142-3.358-7.5-7.5-7.5s-7.5,3.358-7.5,7.5v32.5
			C351.132,87.584,354.49,90.942,358.632,90.942z"/>
		<path d="M399.967,245.205c-3.587,2.071-4.816,6.658-2.745,10.245l27.849,48.236c1.389,2.406,3.91,3.751,6.502,3.751
			c1.272,0,2.562-0.324,3.743-1.006c3.587-2.071,4.816-6.658,2.745-10.245l-27.849-48.236
			C408.141,244.363,403.553,243.134,399.967,245.205z"/>
		<path d="M307.052,99.272c1.389,2.406,3.91,3.751,6.502,3.751c1.272,0,2.562-0.324,3.743-1.006
			c3.587-2.071,4.816-6.658,2.745-10.245l-27.85-48.236c-2.071-3.587-6.658-4.816-10.245-2.745
			c-3.587,2.071-4.816,6.658-2.745,10.245L307.052,99.272z"/>
		<path d="M471.02,229.838l-30.549-17.637c-3.588-2.071-8.174-0.842-10.245,2.745c-2.071,3.587-0.842,8.174,2.745,10.245
			l30.549,17.637c1.181,0.682,2.471,1.006,3.743,1.006c2.592,0,5.113-1.346,6.502-3.751
			C475.836,236.496,474.607,231.909,471.02,229.838z"/>
	</g>
</g>
<g>
</g>
<g>
</g>
<g>
</g>
<g>
</g>
<g>
</g>
<g>
</g>
<g>
</g>
<g>
</g>
<g>
</g>
<g>
</g>
<g>
</g>
<g>
</g>
<g>
</g>
<g>
</g>
<g>
</g>
</svg>
