<?xml version="1.0" encoding="iso-8859-1"?>
<!-- Generator: Adobe Illustrator 24.0.0, SVG Export Plug-In . SVG Version: 6.00 Build 0)  -->
<svg version="1.1" id="Capa_1" xmlns="http://www.w3.org/2000/svg" xmlns:xlink="http://www.w3.org/1999/xlink" x="0px" y="0px"
	 viewBox="0 0 511.977 511.977" style="enable-background:new 0 0 511.977 511.977;" xml:space="preserve">
<g>
	<g>
		<path style="fill:#90D8F9;" d="M315.329,447.23l-29.837-5.199l73.521-421.993c0.721-4.139,3.129-7.792,6.649-10.087
			c3.52-2.295,7.834-3.024,11.912-2.013l113.807,28.2l-7.285,29.397l-98.036-24.292L315.329,447.23z"/>
		<path style="fill:#6BBEF6;" d="M377.569,7.944l4.169,1.03c-0.606,0.283-1.191,0.616-1.757,0.979
			c-3.523,2.292-5.926,5.946-6.653,10.085l-73.515,421.989l15.931,2.776l-0.424,2.423l-29.832-5.199l73.525-421.989
			c0.717-4.139,3.119-7.794,6.643-10.085C369.18,7.661,373.49,6.924,377.569,7.944z"/>
		<path style="fill:#DA4A54;" d="M232.065,72.799L56.878,247.985C8.5,199.608,8.5,121.169,56.878,72.791
			C105.256,24.414,183.687,24.421,232.065,72.799z"/>
		<path style="fill:#F4DD45;" d="M212.441,92.422L76.501,228.362C38.96,190.82,38.967,129.964,76.509,92.422
			C114.043,54.888,174.899,54.881,212.441,92.422z"/>
		<path style="fill:#E7ECF1;" d="M446.792,430.444c-2.312,37.616-32.083,67.7-69.658,70.537c-62.107,4.684-124.204,4.684-186.311,0
			c-37.575-2.837-67.347-32.921-69.658-70.537c-5.24-85.014-4.896-170.017,1.06-255.03c0.485-7.077,1.02-14.164,1.605-21.241
			c0.151-1.958,0.313-3.917,0.474-5.876h319.349c1.181,14.104,2.211,28.197,3.089,42.3
			C451.709,270.542,451.719,350.498,446.792,430.444z"/>
		<path style="fill:#EAB14D;" d="M250.571,218.853C405.166,176.712,423.512,230.1,423.512,230.1l-26.736,96.023l-128.243-55.057"/>
		<path style="fill:#C6D0DA;" d="M446.742,190.597H164.464v-42.3h279.189C444.834,162.4,445.863,176.494,446.742,190.597z"/>
		<polygon style="fill:#90D8F9;" points="363.202,172.465 315.329,447.232 285.487,442.033 285.487,442.023 332.451,172.465 		"/>
		<polygon style="fill:#6BBEF6;" points="299.813,442.023 315.743,444.8 315.319,447.222 285.487,442.023 332.451,172.465 
			346.777,172.465 		"/>
		<path style="fill:#C6D0DA;" d="M219.433,502.808c-9.54-0.495-19.07-1.111-28.61-1.827c-37.575-2.837-67.347-32.921-69.658-70.537
			c-5.795-94.049-4.755-188.098,3.14-282.147h70.476c-4.089,95.523-4.553,191.046-1.413,286.569
			C194.386,465.707,204.845,491.683,219.433,502.808z"/>
		<path style="fill:#F4DD45;" d="M421.604,428.889c-1.534,24.875-21.463,45.046-46.368,46.924
			c-30.276,2.282-60.986,3.443-91.263,3.443c-27.379,0-55.131-0.949-82.581-2.827c-2.897-0.192-5.785-0.394-8.672-0.616
			c-24.905-1.878-44.834-22.048-46.368-46.924c-3.957-64.237-4.664-129.06-2.11-193.711c11.014-11.014,27.995-20.716,48.377-24.168
			c19.757-3.362,42.714-0.838,66.509,12.054c18.182,9.843,38.938,18.545,60.401,23.593c9.904,2.332,19.959,3.887,29.983,4.401
			c25.975,1.363,51.719-4.179,73.999-20.958C426.298,296.437,425.672,362.976,421.604,428.889z"/>
		<path style="fill:#EAB14D;" d="M201.393,476.429c-2.897-0.192-5.785-0.394-8.672-0.616c-24.905-1.878-44.834-22.048-46.368-46.924
			c-3.957-64.237-4.664-129.06-2.11-193.711c11.014-11.014,27.995-20.716,48.377-24.168c-1.959,74.615-1.706,149.241,0.747,223.856
			C193.882,450.372,196.779,464.657,201.393,476.429z"/>
		<path style="fill:#EAB14D;" d="M349.513,251.058l-34.183,196.174l-29.842-5.199l34.042-195.377
			C329.433,248.989,339.488,250.543,349.513,251.058z"/>
		<path style="fill:#E7ECF1;" d="M440.085,124.125H127.871c-13.349,0-24.171,10.822-24.171,24.171v0
			c0,13.35,10.822,24.171,24.171,24.171h312.214c13.349,0,24.171-10.822,24.171-24.171v0
			C464.256,134.947,453.435,124.125,440.085,124.125z"/>
		<path style="fill:#C6D0DA;" d="M190.136,165.388c4.371,4.371,10.418,7.077,17.091,7.077h-79.36c-6.673,0-12.71-2.706-17.091-7.077
			c-4.371-4.382-7.077-10.419-7.077-17.092c0-13.346,10.822-24.168,24.168-24.168h79.36c-13.346,0-24.168,10.822-24.168,24.168
			C183.06,154.969,185.765,161.006,190.136,165.388z"/>
		<circle style="fill:#FBF4AF;" cx="208.818" cy="376.859" r="25.439"/>
		<circle style="fill:#FBF4AF;" cx="254.21" cy="307.524" r="15.962"/>
		<circle style="fill:#FBF4AF;" cx="373.666" cy="396.317" r="15.962"/>
	</g>
	<g>
		<path d="M497.807,32.265c-1.027-1.704-2.688-2.93-4.62-3.408L379.38,0.66c-6.082-1.504-12.575-0.41-17.816,3.011
			c-5.235,3.42-8.857,8.912-9.939,15.077l-17.048,97.876h-135.73l38.517-38.517c2.929-2.928,2.929-7.676,0.001-10.605
			c-24.81-24.82-57.799-38.49-92.89-38.492c-0.002,0-0.003,0-0.005,0c-35.087,0-68.077,13.666-92.892,38.48
			c-24.815,24.815-38.482,57.809-38.482,92.903c0,35.095,13.667,68.088,38.482,92.903c1.407,1.407,3.314,2.197,5.304,2.197
			s3.897-0.791,5.303-2.197l50.834-50.842c-4.228,75.951-4.012,152.651,0.666,228.449c1.228,19.998,9.664,38.865,23.753,53.124
			c14.077,14.247,32.834,22.924,52.819,24.436c31.095,2.343,62.408,3.514,93.723,3.514s62.63-1.171,93.726-3.515
			c19.983-1.511,38.741-10.188,52.817-24.435c14.09-14.26,22.525-33.126,23.753-53.122c5.201-84.263,4.878-169.637-0.927-253.862
			c10.858-5.027,18.411-16.02,18.411-28.751c0-8.458-3.294-16.411-9.277-22.393c-5.982-5.982-13.935-9.277-22.393-9.277h-14.72
			c-4.142,0-7.5,3.358-7.5,7.5s3.358,7.5,7.5,7.5h14.72c4.452,0,8.637,1.734,11.787,4.883c3.149,3.149,4.883,7.335,4.883,11.787
			c0,9.192-7.478,16.67-16.67,16.67h-312.22c-4.451,0-8.637-1.734-11.787-4.883c-3.149-3.149-4.883-7.335-4.883-11.787
			c0-9.192,7.478-16.67,16.67-16.67h267.5c4.142,0,7.5-3.358,7.5-7.5s-3.358-7.5-7.5-7.5h-14.827l11.524-66.163l90.225,22.354
			c4.022,0.998,8.087-1.454,9.083-5.475l7.289-29.398C499.142,36.011,498.834,33.969,497.807,32.265z M57.045,237.22
			c-18.723-21.249-28.952-48.252-28.952-76.826c0-31.087,12.106-60.314,34.088-82.297s51.207-34.088,82.29-34.087
			c28.572,0.001,55.569,10.231,76.814,28.96l-9.039,9.039c-40.659-35.21-102.422-33.51-141.038,5.107
			c-19.576,19.575-30.357,45.598-30.36,73.275c-0.003,25.165,8.909,48.96,25.239,67.786L57.045,237.22z M439.303,429.985
			c-2.067,33.666-29.035,60.974-62.728,63.521c-61.442,4.63-123.75,4.629-185.191,0c-33.694-2.547-60.662-29.855-62.729-63.523
			c-5.122-82.986-4.843-167.056,0.792-250.018h194.085l-2.982,17.118c-20.741,2.397-44.06,7.052-69.448,13.864
			c-19.882-8.28-40.65-10.777-60.732-7.167c-19.628,3.528-38.375,13.038-51.434,26.091c-1.335,1.334-2.118,3.123-2.192,5.009
			c-1.738,44.059-1.964,88.75-0.672,132.835c0.122,4.141,3.596,7.423,7.716,7.277c4.14-0.121,7.398-3.576,7.277-7.716
			c-1.252-42.731-1.067-86.04,0.55-128.772c17.631-16.04,57.149-34.195,103.942-8.843c14.034,7.599,33.439,16.596,55.387,22.555
			l-32.846,188.532c-0.711,4.081,2.021,7.965,6.102,8.676l29.842,5.199c0.436,0.076,0.869,0.113,1.296,0.113
			c3.577,0,6.745-2.569,7.38-6.214l33.061-189.758c22.62,0.198,42.961-4.845,60.748-15.071
			c2.162,61.613,1.356,123.693-2.404,184.739c-1.31,21.15-18.269,38.306-39.447,39.904c-30.124,2.269-60.642,3.419-90.707,3.419
			c-30.052,0-60.563-1.15-90.686-3.418c-21.18-1.599-38.139-18.754-39.449-39.904c-0.645-10.438-1.208-21.023-1.673-31.461
			c-0.185-4.138-3.693-7.336-7.827-7.159c-4.138,0.185-7.343,3.688-7.159,7.827c0.469,10.523,1.037,21.195,1.687,31.719
			c1.771,28.588,24.681,51.775,53.293,53.936c30.497,2.296,61.387,3.461,91.813,3.461c30.439,0,61.336-1.165,91.834-3.461
			c28.611-2.16,51.521-25.347,53.292-53.938c4.062-65.948,4.704-133.092,1.907-199.566c-0.031-0.735-0.175-1.447-0.407-2.122
			l0.01-0.004c-0.305-0.888-3.299-8.904-14.243-16.695c-11.971-8.523-28.633-13.636-49.598-15.249l2.745-15.755h69.002
			C444.146,262.927,444.425,346.997,439.303,429.985z M354.283,179.964l-10.993,63.092c-0.529-0.052-1.048-0.084-1.579-0.142
			c-4.577-0.499-9.103-1.205-13.559-2.072l10.606-60.878H354.283z M364.176,210.569c30.358,2.085,43.665,11.687,49.038,17.54
			c-15.773,10.16-34.128,15.414-54.82,15.646L364.176,210.569z M340.707,257.883l-31.479,180.674l-15.064-2.625l31.414-180.312
			c4.762,0.92,9.606,1.672,14.509,2.206C340.295,257.849,340.499,257.862,340.707,257.883z M313.53,237.377
			c-15.703-4.378-30.031-10.416-41.742-16.205c16.481-3.926,31.892-6.818,46.072-8.649L313.53,237.377z M96.199,148.294
			c0,8.458,3.294,16.412,9.277,22.394c2.69,2.689,5.78,4.83,9.134,6.378c-0.064,0.923-0.125,1.846-0.187,2.769l-37.683,37.688
			c-13.513-15.967-20.893-35.978-20.891-57.131c0.002-23.671,9.224-45.928,25.967-62.67c32.764-32.763,84.999-34.435,119.778-5.059
			l-23.961,23.961h-49.764C110.406,116.624,96.199,130.831,96.199,148.294z M478.619,56.452l-90.758-22.486
			c-2.017-0.5-4.156-0.139-5.9,0.997c-1.743,1.136-2.936,2.946-3.292,4.996l-13.354,76.666h-15.514L366.4,21.331
			c0.366-2.084,1.593-3.944,3.364-5.101c1.764-1.15,3.955-1.52,6.011-1.011l106.524,26.393L478.619,56.452z"/>
		<path d="M208.818,409.799c18.163,0,32.939-14.776,32.939-32.939s-14.776-32.939-32.939-32.939s-32.939,14.776-32.939,32.939
			S190.655,409.799,208.818,409.799z M208.818,358.92c9.892,0,17.939,8.047,17.939,17.939s-8.047,17.939-17.939,17.939
			c-9.892,0-17.939-8.047-17.939-17.939S198.926,358.92,208.818,358.92z"/>
		<path d="M254.21,330.986c12.937,0,23.462-10.525,23.462-23.462s-10.525-23.462-23.462-23.462s-23.462,10.525-23.462,23.462
			S241.273,330.986,254.21,330.986z M254.21,299.062c4.666,0,8.462,3.796,8.462,8.462s-3.796,8.462-8.462,8.462
			s-8.462-3.796-8.462-8.462S249.544,299.062,254.21,299.062z"/>
		<path d="M373.665,419.779c12.937,0,23.462-10.525,23.462-23.462s-10.525-23.462-23.462-23.462s-23.462,10.525-23.462,23.462
			S360.728,419.779,373.665,419.779z M373.665,387.855c4.666,0,8.462,3.796,8.462,8.462s-3.796,8.462-8.462,8.462
			s-8.462-3.796-8.462-8.462S368.999,387.855,373.665,387.855z"/>
	</g>
</g>
<g>
</g>
<g>
</g>
<g>
</g>
<g>
</g>
<g>
</g>
<g>
</g>
<g>
</g>
<g>
</g>
<g>
</g>
<g>
</g>
<g>
</g>
<g>
</g>
<g>
</g>
<g>
</g>
<g>
</g>
</svg>
