<?xml version="1.0" encoding="iso-8859-1"?>
<!-- Generator: Adobe Illustrator 24.0.0, SVG Export Plug-In . SVG Version: 6.00 Build 0)  -->
<svg version="1.1" id="Capa_1" xmlns="http://www.w3.org/2000/svg" xmlns:xlink="http://www.w3.org/1999/xlink" x="0px" y="0px"
	 viewBox="0 0 511.956 511.956" style="enable-background:new 0 0 511.956 511.956;" xml:space="preserve">
<g>
	<g>
		<path style="fill:#C6D0DA;" d="M426.305,355.376H85.645c-0.77-27.74-1.2-55.66-1.28-83.58c-0.16-50.05,0.79-100.07,2.84-148.87
			h337.54c1.32,31.49,2.19,63.48,2.59,95.66C427.905,264.106,427.565,309.996,426.305,355.376z"/>
		<path style="fill:#E7ECF1;" d="M427.335,218.586l-78.97,136.79h-128.29l134.21-232.45h70.46
			C426.065,154.416,426.935,186.406,427.335,218.586z"/>
		<path style="fill:#E7ECF1;" d="M242.535,122.926l-134.2,232.45h-22.69c-0.77-27.74-1.2-55.66-1.28-83.58l85.95-148.87H242.535z"/>
		<path style="fill:#6BBEF6;" d="M312.345,339.136c2.54-28.85,3.52-57.7,2.93-86.55c-0.66-31.94-26.79-57.66-58.74-57.7
			c-0.37,0-0.75,0-1.12,0c-31.95,0.04-58.08,25.76-58.74,57.7c-0.59,28.85,0.39,57.7,2.93,86.55"/>
		<path style="fill:#DA4A54;" d="M424.745,122.926H87.205c1.06-25.3,2.42-50.27,4.07-74.74c1.12-16.49,13.8-29.82,30.19-31.96
			c89.67-11.69,179.35-11.69,269.02,0c16.39,2.14,29.07,15.47,30.19,31.96C422.325,72.656,423.685,97.626,424.745,122.926z"/>
		<path style="fill:#C63D4F;" d="M145.429,13.388c-12.92,5.69-22.07,18.11-23.07,32.77c-1.69,25.17-3.12,50.81-4.25,76.77h-30.9
			c1.06-25.3,2.42-50.27,4.07-74.74c1.12-16.49,13.8-29.82,30.19-31.96C129.459,15.188,137.439,14.238,145.429,13.388z"/>
		<path style="fill:#DA4A54;" d="M426.305,355.376c-0.37,13.46-0.82,26.88-1.36,40.23c-1.47,36.99-3.57,73.43-6.29,108.85H93.295
			c-3.7-48.2-6.25-98.31-7.65-149.08H426.305z"/>
		<path style="fill:#C63D4F;" d="M424.945,395.606H156.462c-15.92,0-28.579,13.358-27.725,29.255l4.278,79.595h-39.72
			c-3.7-48.2-6.25-98.31-7.65-149.08h340.66C425.935,368.836,425.485,382.256,424.945,395.606z"/>
		<path style="fill:#F4DD45;" d="M430.277,339.138H76.12c-10.744,0-19.454,8.71-19.454,19.454v0c0,10.744,8.71,19.454,19.454,19.454
			h354.156c10.744,0,19.454-8.71,19.454-19.454v0C449.73,347.848,441.021,339.138,430.277,339.138z"/>
		<path style="fill:#EAB14D;" d="M448.241,366.076c-2.93,7.03-9.87,11.97-17.96,11.97H76.12c-5.37,0-10.23-2.18-13.75-5.7
			s-5.7-8.38-5.7-13.75c0-10.75,8.71-19.46,19.45-19.46h16.62c-0.96,2.3-1.49,4.83-1.49,7.48c0,5.38,2.18,10.24,5.7,13.76
			s8.39,5.7,13.76,5.7H448.241z"/>
		<path style="fill:#F4DD45;" d="M425.401,165.206c-112.951,3.361-225.901,3.361-338.852,0
			c-17.158-0.511-31.818-12.267-34.953-28.392c-4.458-22.932-4.458-45.863,0-68.795c3.135-16.124,17.794-27.881,34.953-28.392
			c112.949-3.361,225.897-3.362,338.846,0c17.406,0.518,31.954,12.645,35.078,29.011c4.338,22.725,4.298,45.45-0.119,68.175
			C457.219,152.939,442.559,164.695,425.401,165.206z"/>
		<path style="fill:#EAB14D;" d="M99.476,165.57c-4.31-0.11-8.62-0.23-12.93-0.36c-17.16-0.51-31.82-12.27-34.95-28.39
			c-4.46-22.93-4.46-45.86,0-68.8c3.13-16.12,17.79-27.88,34.95-28.39c4.31-0.13,8.62-0.25,12.93-0.36
			c-10.87,5-19.05,14.65-21.36,26.53c-4.74,24.41-4.74,48.83,0,73.25C80.426,150.92,88.606,160.57,99.476,165.57z"/>
	</g>
	<g>
		<path d="M264.1,58.025c-4.143,0-7.5,3.358-7.5,7.5v73.784c0,4.142,3.357,7.5,7.5,7.5s7.5-3.358,7.5-7.5v-23.162l29.603,28.559
			c1.455,1.404,3.332,2.103,5.206,2.103c1.965,0,3.927-0.767,5.398-2.292c2.876-2.981,2.791-7.729-0.19-10.605L277.4,100.9
			l31.465-28.922c3.05-2.803,3.25-7.547,0.446-10.597c-2.802-3.049-7.548-3.249-10.597-0.446L271.6,85.858V65.525
			C271.6,61.383,268.243,58.025,264.1,58.025z"/>
		<path d="M151.164,65.525v73.784c0,4.142,3.357,7.5,7.5,7.5s7.5-3.358,7.5-7.5V65.525c0-4.142-3.357-7.5-7.5-7.5
			S151.164,61.383,151.164,65.525z"/>
		<path d="M360.411,73.699c4.143,0,7.5-3.358,7.5-7.5s-3.357-7.5-7.5-7.5h-30.806c-4.143,0-7.5,3.358-7.5,7.5v73.11
			c0,4.142,3.357,7.5,7.5,7.5h30.806c4.143,0,7.5-3.358,7.5-7.5s-3.357-7.5-7.5-7.5h-23.306v-21.555h21.034
			c4.143,0,7.5-3.358,7.5-7.5s-3.357-7.5-7.5-7.5h-21.034V73.699H360.411z"/>
		<path d="M219.553,73.025c5.892,0,11.572,1.734,16.428,5.015c3.435,2.32,8.096,1.416,10.414-2.016
			c2.318-3.432,1.416-8.094-2.016-10.413c-7.346-4.963-15.931-7.586-24.826-7.586c-24.478,0-44.392,19.914-44.392,44.392
			c0,24.478,19.914,44.392,44.392,44.392c9.734,0,18.461-3.19,25.236-9.225c1.33-1.185,2.593-2.487,3.753-3.872
			c2.661-3.174,2.245-7.905-0.929-10.566c-3.175-2.661-7.904-2.245-10.565,0.929c-0.695,0.829-1.447,1.605-2.235,2.307
			c-4.042,3.6-9.177,5.426-15.26,5.426c-16.207,0-29.392-13.185-29.392-29.392C190.162,86.21,203.346,73.025,219.553,73.025z"/>
		<path d="M401.187,146.809c4.143,0,7.5-3.358,7.5-7.5V73.025h12.956c4.143,0,7.5-3.358,7.5-7.5s-3.357-7.5-7.5-7.5h-40.747
			c-4.143,0-7.5,3.358-7.5,7.5s3.357,7.5,7.5,7.5h12.791v66.284C393.687,143.451,397.044,146.809,401.187,146.809z"/>
		<path d="M110.598,146.809c4.143,0,7.5-3.358,7.5-7.5V73.025h12.956c4.143,0,7.5-3.358,7.5-7.5s-3.357-7.5-7.5-7.5H90.306
			c-4.143,0-7.5,3.358-7.5,7.5s3.357,7.5,7.5,7.5h12.792v66.284C103.098,143.451,106.456,146.809,110.598,146.809z"/>
		<path d="M467.84,67.227c-3.772-19.719-21.529-34.479-42.224-35.098c-0.553-0.016-1.107-0.03-1.659-0.046
			c-6.167-12.514-18.419-21.451-32.504-23.294C301.559-2.93,210.398-2.93,120.501,8.79c-14.088,1.843-26.342,10.778-32.51,23.293
			c-0.556,0.016-1.113,0.03-1.669,0.046c-20.619,0.613-38.32,15.103-42.09,34.456c-4.623,23.781-4.623,47.892,0.001,71.665
			c3.252,16.7,16.886,29.772,33.813,33.435c-1.409,52.809-1.566,106.535-0.47,159.952h-1.451c-14.866,0-26.96,12.094-26.96,26.96
			c0,7.194,2.804,13.961,7.896,19.054c5.093,5.092,11.862,7.896,19.063,7.896h2.994c1.512,41.024,3.757,81.192,6.699,119.485
			c0.3,3.908,3.559,6.925,7.478,6.925h325.359c3.919,0,7.178-3.018,7.478-6.925c2.945-38.332,5.191-78.542,6.703-119.61
			c13.669-1.294,24.399-12.829,24.399-26.825c0-7.202-2.805-13.972-7.896-19.063c-4.114-4.114-9.324-6.733-14.971-7.588
			c1.103-53.52,0.948-107.354-0.464-160.266c10.52-2.272,20.016-8.183,26.36-16.674c2.479-3.318,1.8-8.018-1.519-10.498
			c-3.32-2.479-8.019-1.798-10.497,1.519c-5.262,7.042-13.885,11.41-23.065,11.683c-112.273,3.34-226.131,3.34-338.414,0
			c-13.674-0.407-25.371-9.796-27.811-22.326c-4.254-21.871-4.254-44.055-0.001-65.934c2.44-12.53,14.138-21.92,27.812-22.327
			c112.272-3.34,226.129-3.34,338.403,0c13.726,0.41,25.475,10.05,27.938,22.922c3.241,16.958,3.932,34.156,2.052,51.115
			c-0.457,4.117,2.511,7.824,6.628,8.28c4.113,0.458,7.824-2.511,8.28-6.628C472.113,104.361,471.364,85.66,467.84,67.227z
			 M442.234,358.596c0,6.589-5.365,11.95-11.96,11.95H156.794c-4.143,0-7.5,3.358-7.5,7.5s3.357,7.5,7.5,7.5h261.027
			c-1.414,38.167-3.463,75.582-6.123,111.41H100.25c-2.66-35.829-4.709-73.243-6.123-111.41h32.668c4.143,0,7.5-3.358,7.5-7.5
			s-3.357-7.5-7.5-7.5h-50.67c-3.194,0-6.198-1.244-8.457-3.502c-2.259-2.259-3.503-5.259-3.503-8.447
			c0-6.595,5.365-11.96,11.96-11.96h354.149c3.194,0,6.197,1.244,8.457,3.503C440.99,352.399,442.234,355.402,442.234,358.596z
			 M204.173,252.741c0.572-27.731,23.563-50.32,51.241-50.354h1.11c27.688,0.035,50.679,22.624,51.252,50.353
			c0.535,26.146-0.266,52.65-2.347,78.897h-98.91C204.439,305.382,203.639,278.878,204.173,252.741z M255.978,175.214
			c54.437,0,108.868-0.78,162.95-2.325c1.386,52.417,1.534,105.735,0.442,158.747h-98.891c2.051-26.354,2.832-52.956,2.295-79.205
			c-0.359-17.423-7.419-33.761-19.877-46.006c-12.469-12.255-28.93-19.017-46.361-19.039h-1.13
			c-17.421,0.022-33.883,6.783-46.351,19.039c-12.459,12.245-19.518,28.584-19.877,46.008c-0.537,26.24,0.243,52.842,2.294,79.204
			H92.579c-1.093-53.012-0.945-106.33,0.442-158.747C147.108,174.434,201.542,175.214,255.978,175.214z M106.552,31.566
			c4.21-4.234,9.78-7.103,15.892-7.903c88.606-11.551,178.464-11.552,267.066,0c6.111,0.8,11.678,3.67,15.887,7.903
			C306.142,28.971,205.806,28.971,106.552,31.566z"/>
	</g>
</g>
<g>
</g>
<g>
</g>
<g>
</g>
<g>
</g>
<g>
</g>
<g>
</g>
<g>
</g>
<g>
</g>
<g>
</g>
<g>
</g>
<g>
</g>
<g>
</g>
<g>
</g>
<g>
</g>
<g>
</g>
</svg>
