<?xml version="1.0" encoding="iso-8859-1"?>
<!-- Generator: Adobe Illustrator 24.0.0, SVG Export Plug-In . SVG Version: 6.00 Build 0)  -->
<svg version="1.1" id="Capa_1" xmlns="http://www.w3.org/2000/svg" xmlns:xlink="http://www.w3.org/1999/xlink" x="0px" y="0px"
	 viewBox="0 0 511.958 511.958" style="enable-background:new 0 0 511.958 511.958;" xml:space="preserve">
<g>
	<g>
		<path style="fill:#F4DD45;" d="M300.245,390.767c-0.2,6.605-4.673,12.369-11.048,14.1c-13.489,3.673-26.989,5.104-40.478,4.303
			c-8.616-0.51-17.222-1.941-25.838-4.273c-0.04-0.01-0.08-0.02-0.11-0.03c-6.385-1.731-10.858-7.495-11.058-14.11
			c-2.111-67.637-2.612-135.284-1.491-202.921c0.34-20.945,0.831-41.889,1.491-62.834c0.2-6.605,4.673-12.379,11.048-14.1
			c0.04-0.01,0.08-0.02,0.12-0.03c8.616-2.342,17.212-3.763,25.828-4.273c13.499-0.811,26.989,0.63,40.488,4.293
			c6.375,1.731,10.848,7.495,11.048,14.1c0.66,20.944,1.151,41.899,1.491,62.844C302.857,255.473,302.356,323.12,300.245,390.767z"
			/>
		<path style="fill:#EAB14D;" d="M243.506,401.444c0.08,2.692,0.82,5.254,2.061,7.495c-7.565-0.64-15.121-1.991-22.686-4.043
			c-0.04-0.01-0.08-0.02-0.11-0.03c-6.385-1.731-10.858-7.495-11.058-14.11c-2.112-67.637-2.612-135.284-1.491-202.921
			c0.34-20.945,0.83-41.889,1.491-62.834c0.2-6.605,4.673-12.379,11.048-14.1c0.04-0.01,0.08-0.02,0.12-0.03
			c7.565-2.061,15.121-3.402,22.686-4.043c-1.241,2.242-1.981,4.793-2.061,7.485c-0.71,22.626-1.241,45.251-1.611,67.887
			C240.684,255.283,241.224,328.374,243.506,401.444z"/>
		<path style="fill:#9D6B6B;" d="M435.548,393.499c-1.241,29.821-4.123,59.651-8.636,89.472c-113.589,9.076-227.177,9.076-340.756,0
			c-4.523-29.821-7.405-59.651-8.646-89.472c-0.971-22.886-0.971-45.762,0-68.648c0.35-8.356,0.821-16.722,1.431-25.077
			c1.551-21.465,3.963-42.93,7.215-64.395c113.579-9.076,227.167-9.076,340.756,0c3.232,21.345,5.624,42.69,7.175,64.044
			c0.62,8.476,1.111,16.952,1.461,25.428C436.519,347.737,436.519,370.613,435.548,393.499z"/>
		<path style="fill:#785252;" d="M161.078,322.62c-0.52,24.377-0.52,48.734,0,73.111c0.641,30.691,2.092,61.402,4.363,92.094
			c-26.428-1.121-52.857-2.742-79.285-4.853c-4.523-29.821-7.405-59.651-8.646-89.472c-0.971-22.886-0.971-45.762,0-68.648
			c0.35-8.356,0.821-16.722,1.431-25.077c1.551-21.465,3.963-42.93,7.215-64.395c26.428-2.112,52.856-3.733,79.285-4.853
			c-1.611,21.795-2.822,43.59-3.603,65.385C161.509,304.807,161.259,313.724,161.078,322.62z"/>
		<path style="fill:#F4DD45;" d="M435.548,393.499c-91.493,1.651-182.987,2.031-274.49,1.151c-27.849-0.26-55.699-0.65-83.548-1.151
			c-0.971-22.886-0.971-45.762,0-68.648c27.849-0.5,55.699-0.891,83.548-1.151c91.493-0.881,182.997-0.5,274.49,1.151
			C436.519,347.737,436.519,370.613,435.548,393.499z"/>
		<path style="fill:#EAB14D;" d="M161.058,394.65c-27.849-0.26-55.699-0.65-83.548-1.151c-0.971-22.886-0.971-45.762,0-68.648
			c27.849-0.5,55.699-0.891,83.548-1.151C160.568,347.357,160.568,370.993,161.058,394.65z"/>
		<path style="fill:#785252;" d="M434.088,299.424c-13.9,4.803-31.852,0.25-46.112-14.01c0,0-37.166,38.136-83.128,4.883
			c0,0-26.368,15.651-48.864,15.651s-48.864-15.651-48.864-15.651c-20.264,14.66-38.817,15.441-53.227,11.738
			c-18.283-4.693-29.911-16.621-29.911-16.621c-13.89,13.89-31.292,18.573-45.041,14.36c1.551-21.465,3.963-42.93,7.215-64.395
			c113.579-9.076,227.167-9.076,340.756,0C430.145,256.724,432.536,278.069,434.088,299.424z"/>
		<path style="fill:#9BD069;" d="M387.976,265c0,0-37.166,38.136-83.128,4.883c0,0-26.368,15.651-48.864,15.651
			s-48.864-15.651-48.864-15.651c-20.264,14.66-38.817,15.441-53.227,11.738C135.611,276.928,123.983,265,123.983,265
			c-29.34,29.34-74.332,17.602-67.487-32.282c6.845-49.875,89.002-64.545,199.488-64.545c110.477,0,192.633,14.67,199.478,64.545
			C462.307,282.602,417.316,294.34,387.976,265z"/>
		<path style="fill:#80BC93;" d="M153.893,281.621C135.611,276.928,123.983,265,123.983,265
			c-29.34,29.34-74.332,17.602-67.487-32.282c6.845-49.875,89.002-64.545,199.488-64.545
			C187.557,168.173,118.269,225.873,153.893,281.621z"/>
		<path style="fill:#DA4A54;" d="M227.039,56.372c0,0.791,0.015,1.578,0.044,2.361c1.359,36.469,56.437,36.469,57.797,0
			c0.029-0.783,0.044-1.571,0.044-2.361c0-17.683-7.369-33.637-19.198-44.978c-5.415-5.191-14.073-5.191-19.488,0
			C234.408,22.735,227.039,38.689,227.039,56.372z"/>
		<path style="fill:#E7ECF1;" d="M475.608,461.669H36.35v9.044c0,18.658,15.125,33.783,33.783,33.783h371.692
			c18.658,0,33.783-15.125,33.783-33.783V461.669z"/>
		<path style="fill:#C6D0DA;" d="M192.928,504.496H70.133c-18.663,0-33.783-15.12-33.783-33.783v-9.046h122.795v9.046
			C159.145,489.375,174.266,504.496,192.928,504.496z"/>
	</g>
	<g>
		<path d="M475.575,454.138h-37.312c6.482-56.34,7.18-113.324,2.085-169.611c0.243-0.114,0.487-0.223,0.728-0.342
			c16.989-8.432,25.135-28.05,21.787-52.479c-3.65-26.591-25.945-45.825-66.267-57.166c-22.869-6.432-51.873-10.582-87.869-12.535
			c-0.284-12.581-0.617-25.074-0.996-37.217c-0.299-9.858-7.115-18.538-16.577-21.107c-9.187-2.492-18.447-3.998-27.675-4.536
			v-6.272c14.783-2.901,28.164-14.392,28.889-33.826c0.032-0.876,0.049-1.757,0.049-2.641c0-19.195-7.637-37.088-21.504-50.384
			c-8.373-8.028-21.492-8.027-29.864,0c-13.867,13.296-21.504,31.189-21.504,50.384c0,0.884,0.017,1.765,0.049,2.64
			c0.725,19.435,14.106,30.926,28.889,33.827v6.259c-0.072,0.004-0.144,0.004-0.216,0.008c-9.063,0.537-18.238,2.051-27.272,4.501
			l-0.047,0.012c-0.045,0.011-0.091,0.023-0.136,0.035c-9.466,2.556-16.287,11.237-16.586,21.103
			c-0.388,12.384-0.718,24.862-0.99,37.208c-26.496,1.435-49.13,4.063-68.441,7.925c-4.061,0.812-6.695,4.763-5.883,8.824
			c0.812,4.061,4.763,6.697,8.824,5.882c30.076-6.015,68.757-8.939,118.253-8.939c123.846,0,186.655,18.99,192.017,58.053
			c2.467,18.006-2.488,31.495-13.595,37.008c-12.035,5.974-28.571,1.531-41.149-11.05c-1.412-1.413-3.297-2.181-5.334-2.188
			c-1.997,0.006-3.918,0.817-5.321,2.238c-1.345,1.36-33.378,32.989-73.365,4.059c-2.421-1.751-5.65-1.899-8.222-0.374
			c-0.246,0.146-24.839,14.599-45.03,14.599c-20.12,0-44.797-14.455-45.04-14.599c-2.572-1.526-5.8-1.378-8.222,0.374
			c-15.301,11.07-31.099,14.621-46.957,10.549c-15.869-4.074-26.302-14.501-26.388-14.588c-1.4-1.437-3.317-2.253-5.322-2.266
			c-2.013-0.034-3.934,0.778-5.353,2.196c-12.584,12.584-29.126,17.024-41.159,11.049c-11.104-5.514-16.055-19.001-13.585-37.005
			c2.526-18.42,17.519-32.087,45.836-41.779c3.918-1.341,6.008-5.605,4.666-9.523c-1.341-3.919-5.605-6.008-9.523-4.666
			c-33.728,11.545-52.514,29.69-55.839,53.93c-3.351,24.425,4.788,44.042,21.774,52.476c0.592,0.294,1.192,0.567,1.796,0.829
			c-5.046,56.116-4.335,112.937,2.123,169.127H36.383c-4.142,0-7.499,3.357-7.499,7.499v9.045c0,22.76,18.517,41.277,41.276,41.277
			h315.757c4.142,0,7.499-3.357,7.499-7.499s-3.357-7.499-7.499-7.499H70.161c-14.49,0-26.279-11.789-26.279-26.279v-1.546h424.195
			v1.546c0,14.49-11.789,26.279-26.279,26.279h-25.864c-4.142,0-7.499,3.357-7.499,7.499s3.357,7.499,7.499,7.499h25.864
			c22.76,0,41.276-18.517,41.276-41.277v-9.045C483.074,457.496,479.717,454.138,475.575,454.138z M234.581,58.485
			c-0.026-0.69-0.039-1.384-0.039-2.081c0-15.069,5.997-29.118,16.886-39.558c1.255-1.203,2.904-1.805,4.553-1.805
			s3.297,0.602,4.553,1.805c10.889,10.44,16.886,24.489,16.886,39.558c0,0.697-0.013,1.39-0.039,2.082
			c-0.39,10.479-6.51,16.593-13.901,18.971v-9.723c0-4.141-3.357-7.499-7.499-7.499s-7.499,3.357-7.499,7.499v9.723
			C241.091,75.079,234.971,68.964,234.581,58.485z M218.251,161.329c0.268-11.974,0.59-24.068,0.965-36.077
			c0.101-3.304,2.338-6.203,5.45-7.07l0.04-0.01c0.049-0.012,0.099-0.025,0.147-0.039c8.064-2.192,16.241-3.545,24.306-4.023
			c12.587-0.756,25.393,0.605,38.067,4.044c3.147,0.855,5.415,3.769,5.517,7.095c0.368,11.781,0.692,23.887,0.97,36.083
			c-11.87-0.426-24.433-0.639-37.724-0.639C242.665,160.692,230.105,160.905,218.251,161.329z M84.795,332.226
			c114.004-1.972,229.468-1.972,343.475,0c0.591,17.937,0.59,35.906-0.005,53.865c-113.999,1.972-229.459,1.972-343.467,0
			C84.205,368.13,84.204,350.161,84.795,332.226z M124.117,274.996c5.637,4.38,15.348,10.661,27.923,13.889
			c18.692,4.799,37.788,1.268,55.507-10.203c8.768,4.613,29.519,14.351,48.442,14.351c18.915,0,39.661-9.736,48.429-14.349
			c24.806,16.102,47.105,13.524,61.743,8.289c9.553-3.417,17.018-8.35,21.688-11.978c11.539,9.387,25.142,14.037,37.778,13.246
			c0.844,9.641,1.516,19.301,2.014,28.975c-113.591-1.955-228.623-1.955-342.214,0c0.497-9.656,1.168-19.297,2.009-28.918
			C99.757,288.76,112.91,284.11,124.117,274.996z M85.431,401.1c56.795,0.977,113.944,1.481,171.101,1.481
			c57.16,0,114.308-0.504,171.101-1.481c-0.912,17.717-2.405,35.41-4.471,53.038H89.897C87.833,436.509,86.343,418.816,85.431,401.1
			z"/>
		<path d="M319.395,44.072c0,4.141,3.357,7.499,7.499,7.499h29.944c4.142,0,7.499-3.357,7.499-7.499s-3.357-7.499-7.499-7.499
			h-29.944C322.752,36.573,319.395,39.93,319.395,44.072z"/>
		<path d="M321.894,26.15c1.019,0,2.055-0.209,3.046-0.65l20.719-9.226c3.784-1.685,5.484-6.117,3.8-9.901
			c-1.684-3.784-6.118-5.485-9.901-3.8l-20.719,9.226c-3.784,1.685-5.484,6.117-3.8,9.901
			C316.283,24.492,319.024,26.15,321.894,26.15z"/>
		<path d="M318.84,76.344l20.719,9.226c0.991,0.441,2.027,0.65,3.046,0.65c2.871,0,5.611-1.658,6.854-4.45
			c1.684-3.783-0.017-8.216-3.8-9.901l-20.719-9.226c-3.783-1.684-8.216,0.017-9.901,3.8
			C313.356,70.227,315.056,74.66,318.84,76.344z"/>
		<path d="M155.121,51.571h29.944c4.142,0,7.499-3.357,7.499-7.499s-3.357-7.499-7.499-7.499h-29.944
			c-4.142,0-7.499,3.357-7.499,7.499S150.979,51.571,155.121,51.571z"/>
		<path d="M166.298,16.274l20.719,9.226c0.991,0.441,2.027,0.65,3.046,0.65c2.871,0,5.611-1.658,6.854-4.45
			c1.684-3.783-0.017-8.216-3.8-9.901l-20.719-9.226c-3.782-1.685-8.216,0.017-9.901,3.8
			C160.814,10.157,162.515,14.59,166.298,16.274z"/>
		<path d="M187.018,62.644l-20.719,9.226c-3.784,1.685-5.484,6.117-3.8,9.901c1.243,2.792,3.984,4.45,6.854,4.45
			c1.019,0,2.055-0.209,3.046-0.65l20.719-9.226c3.784-1.685,5.484-6.117,3.8-9.901C195.234,62.66,190.799,60.959,187.018,62.644z"
			/>
	</g>
</g>
<g>
</g>
<g>
</g>
<g>
</g>
<g>
</g>
<g>
</g>
<g>
</g>
<g>
</g>
<g>
</g>
<g>
</g>
<g>
</g>
<g>
</g>
<g>
</g>
<g>
</g>
<g>
</g>
<g>
</g>
</svg>
