<?xml version="1.0" encoding="iso-8859-1"?>
<!-- Generator: Adobe Illustrator 24.0.0, SVG Export Plug-In . SVG Version: 6.00 Build 0)  -->
<svg version="1.1" id="Capa_1" xmlns="http://www.w3.org/2000/svg" xmlns:xlink="http://www.w3.org/1999/xlink" x="0px" y="0px"
	 viewBox="0 0 512 512" style="enable-background:new 0 0 512 512;" xml:space="preserve">
<g>
	<g>
		<path style="fill:#544F57;" d="M197.641,47.048c35.622,22.606,81.094,22.606,116.716,0l29.433,94.877L241.034,177.84
			l-79.311-79.311L197.641,47.048z"/>
		<path style="fill:#DA4A54;" d="M403.65,353.09c0,57.2-49.22,151.41-49.22,151.41H157.57c0,0-49.22-94.21-49.22-151.41
			c0-57.2,57.2-90.45,57.2-90.45v-39.91c-4.5-1.68-8.72-3.56-12.66-5.58c-32.2-16.44-47.78-53.72-37.77-88.46
			C132.52,68.3,165.55,7.5,165.55,7.5l37.24,10.39l-3.21,15.4c-1.53,7.33-2.26,14.67-2.26,21.93c0,2.58,0.09,5.16,0.28,7.71
			c2.66,36.83,24.25,70.59,58.4,87.97c43.19-21.98,66.3-70.17,56.41-117.61l-3.21-15.4L346.45,7.5c0,0,33.02,60.8,50.43,121.19
			c10.01,34.74-5.58,72.02-37.77,88.46c-3.95,2.02-8.16,3.9-12.66,5.58v39.91C346.45,262.64,403.65,295.89,403.65,353.09z"/>
		<path style="fill:#C63D4F;" d="M219.09,223.73l-6.99,36.91c0,0-83.8,81.69-3.99,243.86h-50.54c0,0-49.22-94.21-49.22-151.41
			c0-57.2,57.2-90.45,57.2-90.45v-39.91c-4.5-1.68-8.72-3.56-12.66-5.58c-32.2-16.44-47.78-53.72-37.77-88.46
			C132.52,68.3,165.55,7.5,165.55,7.5l37.24,10.39l-3.21,15.4c-1.53,7.33-2.26,14.67-2.26,21.93c0,2.58,0.09,5.16,0.28,7.71
			C172.2,105.01,163.22,184.82,219.09,223.73z"/>
		<polyline style="fill:#544F57;" points="165.547,222.733 346.45,222.733 346.45,262.637 165.547,262.637 		"/>
		<polyline style="fill:#454045;" points="165.547,222.733 238.041,222.733 238.041,262.637 165.547,262.637 		"/>
		<path style="fill:#F4DD45;" d="M232.102,277.269h-24.036c-12.463,0-22.566-10.103-22.566-22.566v-24.036
			c0-12.463,10.103-22.566,22.566-22.566h24.036c12.463,0,22.566,10.103,22.566,22.566v24.036
			C254.668,267.166,244.565,277.269,232.102,277.269z"/>
	</g>
	<path d="M353.95,258.505v-30.686c2.905-1.224,5.774-2.559,8.574-3.991c12.439-6.359,23.103-15.862,30.839-27.482
		c2.295-3.448,1.361-8.104-2.087-10.399c-3.449-2.295-8.104-1.361-10.399,2.087c-6.315,9.487-15.022,17.246-25.182,22.438
		c-3.458,1.769-7.038,3.359-10.654,4.758h-87.151c-5.261-8.756-14.85-14.629-25.788-14.629h-24.037
		c-10.938,0-20.527,5.873-25.788,14.629h-15.319c-3.643-1.408-7.222-2.999-10.658-4.76c-28.761-14.685-43.049-48.205-33.973-79.704
		c14.049-48.763,38.777-98.449,47.04-114.414l24.648,6.877l-1.777,8.529c-1.604,7.686-2.418,15.58-2.418,23.463
		c0,43.429,24.055,82.652,62.777,102.364c2.138,1.087,4.666,1.088,6.804,0c46.088-23.455,70.905-75.195,60.35-125.824l-1.777-8.531
		l24.657-6.878c8.261,15.966,32.983,65.652,47.041,114.415c3.067,10.648,3.536,22.001,1.354,32.833
		c-0.817,4.061,1.812,8.015,5.872,8.833c4.067,0.819,8.016-1.812,8.833-5.872c2.654-13.182,2.085-26.995-1.646-39.948
		C386.65,66.134,354.405,6.434,353.041,3.921c-1.669-3.072-5.242-4.583-8.605-3.645l-37.25,10.39
		c-3.804,1.061-6.133,4.889-5.327,8.754l3.21,15.4c0.572,2.745,1.021,5.494,1.357,8.24c-31.102,17.807-69.756,17.805-100.857-0.002
		c0.339-2.767,0.786-5.518,1.354-8.238l3.21-15.4c0.806-3.865-1.523-7.693-5.326-8.754l-37.24-10.39
		c-3.363-0.94-6.937,0.571-8.605,3.644c-1.365,2.512-33.621,62.213-51.047,122.693c-11.061,38.387,6.421,79.272,41.555,97.211
		c2.787,1.428,5.659,2.765,8.582,3.996v30.684c-13.353,8.847-57.2,41.909-57.2,94.585c0,19.7,5.484,45.399,16.3,76.382
		c1.08,3.093,3.98,5.03,7.081,5.03c0.819,0,1.654-0.135,2.472-0.421c3.911-1.365,5.975-5.642,4.609-9.553
		c-10.26-29.391-15.462-53.426-15.462-71.438c0-46.903,42.919-77.163,51.851-82.95h14.577c5.261,8.756,14.851,14.629,25.788,14.629
		h24.037c10.937,0,20.527-5.873,25.788-14.629h86.409c8.949,5.799,51.851,36.057,51.851,82.95c0,48.15-37.124,125.482-46.327,143.91
		H162.171c-3.699-7.389-11.902-24.257-20.331-44.815c-1.57-3.832-5.952-5.667-9.784-4.094c-3.833,1.571-5.666,5.952-4.095,9.785
		c11.618,28.336,22.506,49.225,22.964,50.1c1.293,2.474,3.854,4.024,6.645,4.024h196.859c2.793,0,5.354-1.552,6.647-4.027
		c2.045-3.914,50.073-96.513,50.073-154.883C411.15,300.414,367.303,267.352,353.95,258.505z M307.045,59.697
		c-1.569,34.012-20.534,65.663-51.046,82.705c-30.37-16.932-49.546-48.03-51.069-82.715c16.056,7.815,33.561,11.729,51.068,11.729
		C273.498,71.416,290.995,67.506,307.045,59.697z M173.05,255.141v-24.91h4.961c-0.002,0.146-0.011,0.291-0.011,0.437v24.036
		c0,0.146,0.009,0.291,0.011,0.437H173.05z M232.103,269.77h-24.037c-8.307,0-15.065-6.759-15.065-15.066v-4.518h16.442
		c4.143,0,7.5-3.358,7.5-7.5c0-4.142-3.357-7.5-7.5-7.5H193v-4.518c0-8.308,6.759-15.066,15.065-15.066h24.037
		c8.307,0,15.065,6.759,15.065,15.066v24.036C247.168,263.011,240.409,269.77,232.103,269.77z M262.157,230.231h76.793v24.91
		h-76.793c0.002-0.146,0.011-0.291,0.011-0.437v-24.036C262.168,230.521,262.159,230.377,262.157,230.231z"/>
</g>
<g>
</g>
<g>
</g>
<g>
</g>
<g>
</g>
<g>
</g>
<g>
</g>
<g>
</g>
<g>
</g>
<g>
</g>
<g>
</g>
<g>
</g>
<g>
</g>
<g>
</g>
<g>
</g>
<g>
</g>
</svg>
