<?xml version="1.0" encoding="iso-8859-1"?>
<!-- Generator: Adobe Illustrator 24.0.0, SVG Export Plug-In . SVG Version: 6.00 Build 0)  -->
<svg version="1.1" id="Capa_1" xmlns="http://www.w3.org/2000/svg" xmlns:xlink="http://www.w3.org/1999/xlink" x="0px" y="0px"
	 viewBox="0 0 511.923 511.923" style="enable-background:new 0 0 511.923 511.923;" xml:space="preserve">
<g>
	<g>
		<path style="fill:#9BD069;" d="M460.844,410.658c-136.589,8.47-273.177,8.47-409.765,0c-18.085-1.121-32.915-14.804-35.349-32.76
			c-11.021-81.29-11.021-162.581,0-243.871c2.434-17.955,17.264-31.638,35.349-32.76c136.588-8.47,273.177-8.47,409.765,0
			c18.085,1.121,32.914,14.804,35.349,32.76c11.021,81.29,11.021,162.581,0,243.871
			C493.759,395.853,478.929,409.536,460.844,410.658z"/>
		<path style="fill:#80BC93;" d="M67.419,411.634c-5.44-0.31-10.89-0.63-16.34-0.97c-18.09-1.12-32.92-14.81-35.35-32.76
			c-11.02-81.289-11.02-162.578,0-243.877c2.43-17.95,17.26-31.63,35.35-32.76c5.46-0.34,10.92-0.66,16.37-0.97
			c-11.41,5.62-19.74,16.6-21.53,29.84c-11.37,83.889-11.37,167.779,0,251.667C47.71,395.024,56.02,406.004,67.419,411.634z"/>
		<path style="fill:#E7ECF1;" d="M444.84,411.61c-125.919,7.2-251.837,7.2-377.756,0c-4.56-59.929-3.31-119.868,3.74-179.808
			c1.85-15.73,14.59-27.909,30.39-29.019c4.02-0.28,8.05-0.56,12.07-0.81c15.96-1.04,31.92-1.9,47.88-2.59
			c10.43-0.45,20.85-0.83,31.28-1.13c15.96-0.46,31.92-0.75,47.88-0.86c36.81-0.26,73.619,0.4,110.429,1.99
			c15.96,0.69,31.93,1.55,47.89,2.59c4.02,0.25,8.05,0.53,12.07,0.81c15.8,1.11,28.54,13.289,30.39,29.019
			C448.15,291.742,449.4,351.681,444.84,411.61z"/>
		<path style="fill:#544F57;" d="M161.163,199.382v102.299c0,7.75-6.28,14.03-14.03,14.03h-19.82c-7.75,0-14.03-6.28-14.03-14.03
			v-99.709C129.243,200.932,145.203,200.072,161.163,199.382z"/>
		<path style="fill:#544F57;" d="M240.322,197.392v104.289c0,7.75-6.28,14.04-14.03,14.04h-19.82c-7.75,0-14.03-6.29-14.03-14.04
			V198.252C208.402,197.792,224.362,197.502,240.322,197.392z"/>
		<path style="fill:#544F57;" d="M398.64,201.972v99.709c0,7.75-6.28,14.04-14.04,14.04h-19.81c-7.75,0-14.04-6.29-14.04-14.04
			V199.382C366.71,200.072,382.68,200.932,398.64,201.972z"/>
		<g>
			<circle style="fill:#F4DD45;" cx="89.629" cy="145.46" r="21.947"/>
			<circle style="fill:#F4DD45;" cx="158.665" cy="145.46" r="21.947"/>
			<circle style="fill:#F4DD45;" cx="227.701" cy="145.46" r="21.947"/>
			<circle style="fill:#F4DD45;" cx="422.294" cy="145.46" r="21.947"/>
		</g>
	</g>
	<g>
		<path d="M503.621,133.015c-2.034-14.988-11.368-27.934-24.969-34.629c-3.717-1.832-8.212-0.3-10.042,3.416
			c-1.829,3.716-0.3,8.212,3.417,10.042c9.114,4.487,15.369,13.156,16.73,23.189c10.888,80.244,10.888,161.618,0,241.864
			c-1.94,14.33-13.875,25.382-28.382,26.279c-2.484,0.154-4.973,0.285-7.458,0.433c3.828-57.334,2.37-115.381-4.369-172.681
			c-2.268-19.283-17.96-34.266-37.318-35.626c-4.038-0.281-8.086-0.562-12.103-0.812c-15.787-1.029-31.954-1.903-48.054-2.6
			c-36.701-1.584-73.983-2.254-110.804-1.997c-15.785,0.109-31.949,0.399-48.044,0.863c-10.171,0.293-20.731,0.674-31.387,1.134
			c-16.08,0.695-32.245,1.57-48.021,2.598c-4.039,0.251-8.087,0.532-12.13,0.813c-19.352,1.36-35.044,16.343-37.312,35.622
			c-0.719,6.087-1.394,12.374-2.006,18.686c-0.4,4.123,2.618,7.789,6.741,8.189c4.124,0.4,7.789-2.618,8.189-6.741
			c0.603-6.208,1.266-12.39,1.974-18.378c1.427-12.132,11.296-21.559,23.461-22.414c1.346-0.094,2.701-0.179,4.049-0.271v91.688
			c0,11.872,9.658,21.53,21.53,21.53h2.41v83.868c-18.569-0.707-37.115-1.574-55.63-2.594c-2.829-41.125-2.906-82.743-0.215-123.812
			c0.271-4.133-2.86-7.704-6.994-7.974c-4.134-0.281-7.703,2.86-7.974,6.994c-2.693,41.102-2.662,82.744,0.085,123.916
			c-2.482-0.148-4.967-0.279-7.448-0.433c-14.505-0.897-26.441-11.95-28.381-26.282c-10.888-80.244-10.888-161.618,0-241.864
			c1.94-14.33,13.875-25.382,28.382-26.279c130.71-8.105,263.234-8.404,393.891-0.888c4.151,0.24,7.68-2.922,7.918-7.057
			c0.238-4.135-2.922-7.68-7.057-7.918c-131.251-7.549-264.377-7.249-395.68,0.892c-21.625,1.338-39.422,17.841-42.318,39.237
			c-11.07,81.582-11.07,164.313,0,245.892c2.896,21.398,20.694,37.901,42.317,39.239c68.127,4.225,136.735,6.337,205.342,6.337
			c68.607,0,137.214-2.112,205.341-6.337c21.625-1.338,39.422-17.841,42.318-39.237
			C514.691,297.328,514.691,214.597,503.621,133.015z M433.651,232.679c6.706,57.014,8.095,114.778,4.169,171.806
			c-18.512,1.02-37.054,1.887-55.619,2.594v-83.857h2.4c11.877,0,21.54-9.663,21.54-21.54v-91.688
			c1.348,0.093,2.698,0.178,4.044,0.271C422.355,211.12,432.224,220.546,433.651,232.679z M364.791,308.221
			c-3.606,0-6.54-2.934-6.54-6.54v-94.446c11.015,0.515,22.015,1.112,32.89,1.785v92.661c0,3.606-2.934,6.54-6.54,6.54H364.791z
			 M364.791,323.221h2.41v84.378c-21.367,0.716-42.756,1.235-64.159,1.538V205.356c13.439,0.289,26.856,0.7,40.209,1.232v95.092
			C343.251,313.559,352.913,323.221,364.791,323.221z M206.472,308.221c-3.601,0-6.53-2.934-6.53-6.54V205.56
			c11.013-0.281,22.012-0.48,32.88-0.594v96.715c0,3.606-2.93,6.54-6.53,6.54H206.472z M120.783,301.681V209.02
			c10.872-0.672,21.871-1.27,32.88-1.785v94.446c0,3.601-2.93,6.53-6.53,6.53h-19.82
			C123.712,308.211,120.783,305.282,120.783,301.681z M144.723,323.211h2.41c11.872,0,21.53-9.658,21.53-21.53v-95.103
			c5.484-0.219,10.925-0.417,16.279-0.592v95.694c0,11.877,9.658,21.54,21.53,21.54h2.41v85.916
			c-21.403-0.303-42.793-0.821-64.159-1.538V323.211z M223.882,409.31v-86.089h2.41c11.872,0,21.53-9.663,21.53-21.54v-96.818
			c13.373-0.049,26.793,0.025,40.219,0.222V409.31C266.657,409.517,245.266,409.517,223.882,409.31z"/>
		<path d="M60.182,145.46c0,16.237,13.21,29.447,29.447,29.447s29.448-13.21,29.448-29.447s-13.21-29.448-29.448-29.448
			S60.182,129.223,60.182,145.46z M104.077,145.46c0,7.966-6.481,14.447-14.448,14.447s-14.447-6.481-14.447-14.447
			s6.481-14.448,14.447-14.448S104.077,137.494,104.077,145.46z"/>
		<path d="M129.217,145.46c0,16.237,13.21,29.447,29.448,29.447s29.447-13.21,29.447-29.447s-13.21-29.448-29.447-29.448
			S129.217,129.223,129.217,145.46z M173.112,145.46c0,7.966-6.481,14.447-14.447,14.447s-14.448-6.481-14.448-14.447
			s6.481-14.448,14.448-14.448S173.112,137.494,173.112,145.46z"/>
		<path d="M198.254,145.46c0,16.237,13.21,29.447,29.447,29.447s29.448-13.21,29.448-29.447s-13.21-29.448-29.448-29.448
			S198.254,129.223,198.254,145.46z M242.149,145.46c0,7.966-6.481,14.447-14.448,14.447s-14.447-6.481-14.447-14.447
			s6.481-14.448,14.447-14.448S242.149,137.494,242.149,145.46z"/>
		<path d="M422.294,116.013c-16.237,0-29.448,13.21-29.448,29.448s13.21,29.447,29.448,29.447s29.447-13.21,29.447-29.447
			S438.531,116.013,422.294,116.013z M422.294,159.908c-7.966,0-14.448-6.481-14.448-14.447s6.481-14.448,14.448-14.448
			s14.447,6.481,14.447,14.448S430.26,159.908,422.294,159.908z"/>
	</g>
</g>
<g>
</g>
<g>
</g>
<g>
</g>
<g>
</g>
<g>
</g>
<g>
</g>
<g>
</g>
<g>
</g>
<g>
</g>
<g>
</g>
<g>
</g>
<g>
</g>
<g>
</g>
<g>
</g>
<g>
</g>
</svg>
