<?xml version="1.0" encoding="iso-8859-1"?>
<!-- Generator: Adobe Illustrator 24.0.0, SVG Export Plug-In . SVG Version: 6.00 Build 0)  -->
<svg version="1.1" id="Capa_1" xmlns="http://www.w3.org/2000/svg" xmlns:xlink="http://www.w3.org/1999/xlink" x="0px" y="0px"
	 viewBox="0 0 511.953 511.953" style="enable-background:new 0 0 511.953 511.953;" xml:space="preserve">
<g>
	<g>
		<path style="fill:#E7ECF1;" d="M424.329,195.671c-0.964-53.676-3.198-106.957-6.703-159.156
			c-1.086-16.18-14.426-28.738-30.641-28.95C283.496,6.216,176.381,27.117,73.633,54.283"/>
		<path style="fill:#F4DD45;" d="M440.476,467.327c-1.188,14.729-12.686,26.551-27.374,28.229
			c-78.996,8.996-157.991,11.206-236.987,6.63c-34.161-1.97-68.321-5.222-102.482-9.736c-13.374-146.056-13.374-292.111,0-438.166
			c18.879-2.492,37.757-4.607,56.646-6.328c94.267-8.589,188.545-7.516,282.822,3.221c14.688,1.678,26.186,13.499,27.374,28.229
			C450.963,208.71,450.963,338.024,440.476,467.327z"/>
		<path style="fill:#EAB14D;" d="M176.115,502.186c-34.161-1.97-68.321-5.222-102.482-9.736
			c-13.374-146.056-13.374-292.111,0-438.166c18.879-2.492,37.757-4.607,56.646-6.328l0.01,0.011
			C84.725,181.158,61.52,460.468,176.073,502.176C176.083,502.176,176.104,502.186,176.115,502.186z"/>
		<g>
			<circle style="fill:#E7ECF1;" cx="253.891" cy="267.127" r="135.887"/>
			<path style="fill:#C6D0DA;" d="M281.614,400.184c-8.955,1.855-18.222,2.836-27.729,2.836
				c-75.045,0-135.881-60.837-135.881-135.892c0-75.044,60.836-135.881,135.881-135.881c9.507,0,18.774,0.98,27.729,2.835
				c-61.764,12.791-108.173,67.498-108.173,133.046C173.441,332.686,219.85,387.393,281.614,400.184z"/>
			<g>
				<path style="fill:#544F57;" d="M191.854,287.043c0,24.918,27.775,45.118,62.037,45.118s62.037-20.2,62.037-45.118
					c0-24.918-27.775-21.149-62.037-21.149S191.854,262.126,191.854,287.043z"/>
				<path style="fill:#DD636E;" d="M299.544,317.577c-11.334,8.967-27.588,14.585-45.652,14.585
					c-18.053,0-34.307-5.607-45.641-14.585c11.334-8.967,27.588-14.585,45.652-14.585
					C271.956,302.992,288.21,308.61,299.544,317.577z"/>
			</g>
		</g>
	</g>
	<g>
		<path d="M447.959,78.807c-1.14-14.041-9.871-26.001-22.135-31.72c-0.234-3.696-0.467-7.394-0.715-11.078
			c-1.333-19.887-18.033-35.676-38.023-35.946c-89.526-1.16-189.758,13.761-315.37,46.97l0.005,0.019
			c-3.012,0.795-5.268,3.378-5.558,6.546c-13.354,145.829-13.354,293.71,0,439.539c0.319,3.489,3.013,6.292,6.486,6.751
			c60.856,8.042,122.162,12.064,183.435,12.064c52.754,0,105.484-2.983,157.863-8.951c18.226-2.071,32.529-16.821,34.012-35.074
			C458.421,338.827,458.421,207.908,447.959,78.807z M433.008,466.715c-0.903,11.126-9.632,20.119-20.756,21.383
			c-110.02,12.534-221.583,11.755-331.691-2.308c-12.551-140.994-12.551-283.851,0-424.845
			c85.156-10.873,171.391-13.838,256.414-8.81c4.109,0.234,7.685-2.909,7.93-7.044c0.244-4.135-2.91-7.685-7.045-7.93
			c-52.077-3.079-104.601-3.168-157.059-0.335c77.308-15.557,144.344-22.576,206.086-21.765
			c12.431,0.167,22.429,9.604,23.256,21.953c0.142,2.111,0.272,4.232,0.41,6.347c-14.205-1.581-28.469-2.958-42.458-4.077
			c-4.132-0.327-7.744,2.749-8.075,6.878c-0.33,4.129,2.749,7.744,6.878,8.074c14.938,1.195,30.198,2.676,45.357,4.401
			c11.123,1.264,19.852,10.256,20.754,21.382C443.405,208.316,443.405,338.42,433.008,466.715z"/>
		<path d="M253.89,123.743c-79.065,0-143.39,64.32-143.39,143.38c0,34.109,12.174,67.146,34.279,93.024
			c2.69,3.149,7.425,3.523,10.574,0.832c3.15-2.69,3.522-7.424,0.832-10.574c-19.787-23.165-30.685-52.742-30.685-83.282
			c0-70.789,57.596-128.38,128.39-128.38s128.39,57.591,128.39,128.38c0,70.794-57.596,128.39-128.39,128.39
			c-28.049,0-54.693-8.882-77.05-25.687c-3.312-2.489-8.013-1.822-10.501,1.489c-2.489,3.311-1.822,8.013,1.489,10.501
			c24.976,18.773,54.736,28.697,86.063,28.697c79.066,0,143.39-64.325,143.39-143.39C397.28,188.063,332.956,123.743,253.89,123.743
			z"/>
		<path d="M265.797,258.289c-7.717,0.105-16.094,0.105-23.811,0c-22.486-0.305-40.245-0.543-50.429,9.504
			c-4.779,4.715-7.203,11.192-7.203,19.25c0,14.514,7.55,27.999,21.259,37.969c12.989,9.446,30.135,14.649,48.278,14.649
			s35.289-5.203,48.278-14.649c13.709-9.97,21.259-23.455,21.259-37.969c0-8.058-2.424-14.535-7.203-19.25
			C306.042,257.747,288.285,257.985,265.797,258.289z M222.188,317.623c9.198-4.587,20.262-7.127,31.707-7.127
			c11.443,0,22.506,2.54,31.703,7.125c-8.942,4.424-19.886,7.04-31.706,7.04C242.073,324.661,231.13,322.047,222.188,317.623z
			 M308.429,287.044c0,7.775-3.438,15.006-9.319,21.01c-12.542-8.132-28.352-12.557-45.215-12.557
			c-16.865,0-32.676,4.426-45.219,12.56c-5.883-6.003-9.322-13.236-9.322-21.012c0-5.263,1.563-7.413,2.738-8.572
			c4.583-4.522,16.094-5.277,29.479-5.277c3.315,0,6.745,0.046,10.213,0.093c3.908,0.053,7.949,0.107,12.107,0.107
			s8.199-0.055,12.107-0.107c17.474-0.234,33.974-0.458,39.692,5.184C306.866,279.63,308.429,281.781,308.429,287.044z"/>
		<path d="M193.258,201.724c-16.059,0-30.468,9.565-36.709,24.369c-1.609,3.816,0.18,8.215,3.997,9.824
			c3.818,1.612,8.215-0.181,9.824-3.997c3.892-9.231,12.876-15.196,22.888-15.196s18.996,5.965,22.888,15.196
			c1.208,2.866,3.988,4.588,6.914,4.588c0.971,0,1.959-0.19,2.91-0.591c3.817-1.609,5.606-6.008,3.997-9.824
			C223.726,211.29,209.317,201.724,193.258,201.724z"/>
		<path d="M291.638,231.921c3.892-9.231,12.876-15.196,22.888-15.196s18.996,5.965,22.888,15.196
			c1.208,2.866,3.988,4.588,6.914,4.588c0.972,0,1.96-0.19,2.911-0.591c3.816-1.609,5.606-6.008,3.997-9.824
			c-6.241-14.804-20.651-24.369-36.71-24.369s-30.469,9.565-36.71,24.369c-1.609,3.816,0.181,8.215,3.997,9.824
			C285.631,237.527,290.028,235.737,291.638,231.921z"/>
		<path d="M369.213,142.783c1.465,1.464,3.385,2.197,5.304,2.197s3.839-0.732,5.304-2.197l23.512-23.512
			c2.929-2.929,2.929-7.678,0-10.606c-2.93-2.929-7.678-2.929-10.607,0l-23.512,23.512
			C366.284,135.105,366.284,139.854,369.213,142.783z"/>
		<path d="M347.939,128.448c0.884,0.339,1.792,0.5,2.686,0.5c3.016,0,5.859-1.832,7.004-4.814l9.024-23.512
			c1.484-3.867-0.447-8.205-4.314-9.689c-3.867-1.483-8.205,0.448-9.689,4.314l-9.024,23.512
			C342.141,122.626,344.072,126.964,347.939,128.448z"/>
		<path d="M411.375,145.342l-23.513,9.024c-3.867,1.484-5.799,5.822-4.314,9.689c1.146,2.983,3.988,4.814,7.004,4.814
			c0.893,0,1.802-0.161,2.686-0.5l23.513-9.024c3.867-1.484,5.799-5.822,4.314-9.689C419.58,145.79,415.245,143.857,411.375,145.342
			z"/>
		<path d="M127.963,142.783c1.464,1.464,3.384,2.197,5.303,2.197s3.839-0.732,5.303-2.197c2.929-2.929,2.929-7.678,0-10.606
			l-23.512-23.512c-2.929-2.929-7.678-2.929-10.606,0c-2.929,2.929-2.929,7.678,0,10.606L127.963,142.783z"/>
		<path d="M150.154,124.134c1.145,2.983,3.988,4.814,7.003,4.814c0.894,0,1.802-0.161,2.686-0.5
			c3.867-1.484,5.799-5.822,4.314-9.689l-9.024-23.512c-1.485-3.867-5.824-5.8-9.689-4.314c-3.867,1.484-5.799,5.822-4.314,9.689
			L150.154,124.134z"/>
		<path d="M117.232,168.871c3.015,0,5.858-1.832,7.003-4.814c1.484-3.867-0.447-8.205-4.314-9.689l-23.512-9.024
			c-3.869-1.486-8.205,0.447-9.689,4.314s0.447,8.205,4.314,9.689l23.512,9.024C115.43,168.71,116.338,168.871,117.232,168.871z"/>
		<path d="M360.487,423.247H147.296c-4.142,0-7.5,3.358-7.5,7.5s3.358,7.5,7.5,7.5h213.191c4.143,0,7.5-3.358,7.5-7.5
			S364.63,423.247,360.487,423.247z"/>
		<path d="M333.838,455.485H173.945c-4.142,0-7.5,3.358-7.5,7.5s3.358,7.5,7.5,7.5h159.893c4.143,0,7.5-3.358,7.5-7.5
			S337.98,455.485,333.838,455.485z"/>
	</g>
</g>
<g>
</g>
<g>
</g>
<g>
</g>
<g>
</g>
<g>
</g>
<g>
</g>
<g>
</g>
<g>
</g>
<g>
</g>
<g>
</g>
<g>
</g>
<g>
</g>
<g>
</g>
<g>
</g>
<g>
</g>
</svg>
