<?xml version="1.0" encoding="iso-8859-1"?>
<!-- Generator: Adobe Illustrator 24.0.0, SVG Export Plug-In . SVG Version: 6.00 Build 0)  -->
<svg version="1.1" id="Capa_1" xmlns="http://www.w3.org/2000/svg" xmlns:xlink="http://www.w3.org/1999/xlink" x="0px" y="0px"
	 viewBox="0 0 511.954 511.954" style="enable-background:new 0 0 511.954 511.954;" xml:space="preserve">
<g>
	<g>
		<path style="fill:#EAB14D;" d="M70.274,429.567h322.904c49.3,0-172.764-226.844-172.764-226.844"/>
		<path style="fill:#F4DD45;" d="M503.548,354.903v122.839c0,14.696-11.913,26.609-26.609,26.609h0
			c-14.696,0-26.609-11.913-26.609-26.609v-33.885c0-11.347-9.198-20.545-20.545-20.545h0c-11.347,0-20.545,9.198-20.545,20.545
			v18.166c0,11.347-9.198,20.545-20.545,20.545h0c-11.347,0-20.545-9.198-20.545-20.545v-61.338"/>
		<path style="fill:#EAB14D;" d="M472.499,496.558c3.182,3.182,7.167,5.56,11.625,6.806c-2.286,0.649-4.695,0.988-7.187,0.988
			c-7.342,0-13.994-2.976-18.812-7.795c-4.819-4.809-7.795-11.461-7.795-18.812v-33.887c0-8.814-5.55-16.331-13.355-19.245
			c2.234-0.844,4.654-1.298,7.187-1.298c11.347,0,20.542,9.195,20.542,20.543v33.887
			C464.704,485.097,467.68,491.749,472.499,496.558z"/>
		<path style="fill:#EAB14D;" d="M382.525,400.683v61.339c0,5.673,2.306,10.812,6.024,14.529c2.059,2.059,4.561,3.686,7.342,4.716
			c-2.235,0.844-4.665,1.297-7.198,1.297c-5.673,0-10.812-2.296-14.529-6.013c-3.717-3.717-6.013-8.855-6.013-14.529v-61.339
			H382.525z"/>
		<path style="fill:#F4DD45;" d="M464.872,398.479c-4.932,1.431-10.235,2.203-15.867,2.203H70.274L83.258,207.44L220.413,38.499
			l64.17,64.17l155.463,155.463l48.086,48.087C519.013,337.098,503.166,387.399,464.872,398.479z"/>
		<path style="fill:#DA4A54;" d="M440.046,258.131c-19.894,19.894-47.376,32.198-77.731,32.198
			c-60.711,0-109.93-49.219-109.93-109.93c0-30.355,12.305-57.838,32.198-77.732L440.046,258.131z"/>
		<path style="fill:#9BD069;" d="M294.54,398.571c0,0.7-0.01,1.411-0.031,2.111H134.506c-0.02-0.7-0.031-1.41-0.031-2.111
			c0-44.205,35.833-80.038,80.028-80.038C258.707,318.533,294.54,354.366,294.54,398.571z"/>
		<path style="fill:#90D8F9;" d="M464.892,397.078c0,0.464-0.01,0.937-0.021,1.401c-4.932,1.431-10.235,2.203-15.867,2.203H372.56
			c-0.082-1.184-0.134-2.389-0.134-3.604c0-25.536,20.697-46.233,46.233-46.233C444.196,350.845,464.892,371.542,464.892,397.078z"
			/>
		<path style="fill:#E28424;" d="M225.391,77.425C149.119,165.338,100.109,277.534,91.52,400.866
			c-1.532,21.992-19.913,39.004-41.959,39.004h-0.013c-24.327,0-43.676-20.577-41.989-44.846
			C17.447,252.785,74.01,123.403,162.011,22.058c15.986-18.41,44.254-19.359,61.494-2.119l0,0
			C239.178,35.613,239.917,60.682,225.391,77.425z"/>
		<path style="fill:#D56617;" d="M219.912,16.737c-8.608,1.812-16.732,6.343-22.972,13.53
			C108.942,131.619,52.371,260.999,42.486,403.241c-0.999,14.374,5.375,27.451,15.795,35.72c-2.821,0.597-5.735,0.906-8.721,0.906
			h-0.01c-24.331,0-43.679-20.583-41.991-44.843c9.885-142.242,66.456-271.622,154.454-372.975
			C176.922,4.864,202.551,2.897,219.912,16.737z"/>
		<circle style="fill:#9BD069;" cx="346.236" cy="338.924" r="18.49"/>
		<circle style="fill:#9BD069;" cx="197.716" cy="202.724" r="18.49"/>
	</g>
	<g>
		<path d="M493.392,300.907L243.272,50.788c0.008-0.371,0.025-0.741,0.025-1.113c0-13.229-5.144-25.657-14.484-34.996
			c-9.696-9.696-23.1-14.984-36.824-14.497c-13.676,0.482-26.659,6.68-35.616,17c-9.03,10.392-17.815,21.193-26.114,32.102
			c-2.506,3.296-1.868,8,1.428,10.508c3.297,2.508,8.001,1.868,10.509-1.428c8.102-10.651,16.68-21.198,25.5-31.349
			c6.334-7.297,15.149-11.504,24.822-11.845c9.696-0.352,18.827,3.249,25.69,10.114c6.508,6.507,10.091,15.169,10.091,24.391
			c0,8.374-3.042,16.498-8.563,22.87c-39.088,45.048-70.566,95.657-93.556,150.421c-23.677,56.398-37.846,116.067-42.114,177.351
			c-1.25,17.952-16.388,32.014-34.482,32.014c-9.71,0-18.705-3.909-25.329-11.007c-6.579-7.049-9.836-16.215-9.172-25.805
			c7.834-112.646,45.973-221.234,110.291-314.028c2.359-3.404,1.512-8.075-1.891-10.435c-3.403-2.359-8.076-1.511-10.435,1.891
			C47.194,167.959,8.145,279.142,0.122,394.481c-0.954,13.786,3.723,26.953,13.169,37.076c9.354,10.023,22.583,15.772,36.313,15.772
			c11.296,0,21.79-3.837,30.186-10.298h194.65c4.142,0,7.499-3.357,7.499-7.499c0-4.141-3.357-7.499-7.499-7.499H92.804
			c2.413-4.273,4.212-8.936,5.264-13.881h262.563v13.881h-56.234c-4.142,0-7.499,3.357-7.499,7.499c0,4.141,3.357,7.499,7.499,7.499
			h56.234v24.952c0,15.461,12.579,28.04,28.04,28.04s28.04-12.579,28.04-28.04v-18.162c0-7.192,5.85-13.042,13.042-13.042
			s13.042,5.851,13.042,13.042V477.7c0,18.805,15.299,34.103,34.103,34.103c18.804,0,34.102-15.298,34.102-34.103V355.761
			C514.509,335.904,508.275,315.786,493.392,300.907z M329.91,166.803c2.24,0,4.246-0.989,5.62-2.548l42.928,42.928
			c-1.554,1.373-2.542,3.375-2.547,5.61c0,4.139,3.36,7.499,7.499,7.509c2.24,0,4.246-0.989,5.62-2.548l16.342,16.342
			c-12.183,9.808-27.219,15.147-43.077,15.147c-37.952,0-68.828-30.876-68.828-68.828c0-15.858,5.338-30.894,15.146-43.077
			l16.346,16.346c-1.554,1.372-2.542,3.374-2.547,5.61C322.411,163.433,325.771,166.792,329.91,166.803z M278.469,180.415
			c0,46.221,37.604,83.825,83.825,83.825c19.868,0,38.676-6.88,53.731-19.489l13.19,13.19
			c-18.593,16.099-42.081,24.885-66.921,24.885c-56.469,0-102.41-45.941-102.41-102.41c0-24.84,8.785-48.328,24.885-66.921
			l13.19,13.19C285.349,141.739,278.469,160.546,278.469,180.415z M140.009,228.772c22.375-53.296,53.01-102.551,91.06-146.402
			c3.641-4.203,6.516-8.945,8.568-14.008l34.507,34.508c-18.916,21.444-29.258,48.698-29.258,77.545
			c0,64.739,52.669,117.407,117.407,117.407c28.846,0,56.1-10.341,77.545-29.258l42.948,42.948
			c11.301,11.297,16.05,26.56,13.425,41.638c-0.05,0.208-0.089,0.42-0.12,0.635c-0.621,3.306-1.591,6.602-2.933,9.841
			c-4.426,10.687-12.088,18.995-21.645,24.04c-4.454-25.162-26.465-44.338-52.885-44.338c-28.312,0-51.562,22.018-53.566,49.827
			h-63.201c-2.793-45.759-40.9-82.133-87.35-82.133c-46.444,0-84.547,36.374-87.34,82.133H99.682
			C104.489,336.395,118.028,281.131,140.009,228.772z M457.077,392.492c-2.637,0.433-5.345,0.663-8.11,0.663h-68.869
			c1.96-19.531,18.492-34.83,38.53-34.83C438.439,358.325,454.812,373.281,457.077,392.492z M166.501,381.002
			c-4.039-0.89-8.039,1.66-8.929,5.709c-0.527,2.37,0.142,4.721,1.595,6.445h-16.949c2.768-37.481,34.123-67.136,72.292-67.136
			c38.175,0,69.533,29.655,72.302,67.136H170.604c0.763-0.9,1.335-1.983,1.606-3.216
			C173.109,385.891,170.55,381.892,166.501,381.002z M476.897,496.806c-10.534,0-19.105-8.571-19.105-19.106v-33.879
			c0-15.461-12.579-28.04-28.04-28.04s-28.04,12.579-28.04,28.04v18.162c0,7.191-5.85,13.042-13.042,13.042
			c-7.192,0-13.042-5.851-13.042-13.042v-53.83h73.34c18.658,0,35.417-7.716,47.035-20.977V477.7
			C496.002,488.235,487.432,496.806,476.897,496.806z"/>
		<path d="M205.763,356.747c0.43,0,0.86-0.04,1.29-0.12c4.079-0.7,6.819-4.589,6.109-8.668c-0.71-4.079-4.59-6.809-8.668-6.099
			c-4.079,0.7-6.819,4.579-6.109,8.668C199.015,354.167,202.184,356.747,205.763,356.747z"/>
		<path d="M257.484,379.662c1.369,0,2.759-0.38,4.009-1.17c3.49-2.21,4.539-6.849,2.319-10.348
			c-2.219-3.499-6.848-4.539-10.348-2.32c-3.499,2.22-4.539,6.849-2.32,10.348C252.564,378.422,255.004,379.662,257.484,379.662z"/>
		<path d="M179.398,370.074c1.87,0,3.73-0.69,5.189-2.079c2.989-2.86,3.099-7.609,0.229-10.598c-2.859-2.999-7.608-3.1-10.598-0.24
			c-2.99,2.86-3.1,7.609-0.24,10.598C175.449,369.304,177.429,370.074,179.398,370.074z"/>
		<path d="M232.068,359.696c0.99,0.44,2.02,0.65,3.039,0.65c2.87,0,5.609-1.67,6.859-4.459c1.679-3.789-0.03-8.218-3.82-9.898
			c-3.779-1.68-8.218,0.03-9.898,3.809C226.58,353.587,228.279,358.016,232.068,359.696z"/>
		<path d="M356.615,231.38c4.139,0,7.499-3.359,7.499-7.499c0.01-4.139-3.349-7.499-7.489-7.499
			c-4.139-0.01-7.499,3.349-7.508,7.488C349.116,228.011,352.476,231.37,356.615,231.38z"/>
		<path d="M324.591,218.082c1.46,1.47,3.38,2.2,5.31,2.2c1.91,0,3.829-0.73,5.299-2.19c2.919-2.93,2.929-7.679,0-10.608
			c-2.929-2.93-7.668-2.93-10.608,0C321.661,210.404,321.661,215.153,324.591,218.082z"/>
		<circle cx="318.832" cy="186.049" r="7.499"/>
		<path d="M346.218,364.894c14.329,0,25.986-11.657,25.986-25.985s-11.657-25.985-25.986-25.985
			c-14.328,0-25.985,11.657-25.985,25.985S331.89,364.894,346.218,364.894z M346.218,327.921c6.059,0,10.989,4.929,10.989,10.988
			s-4.93,10.988-10.989,10.988c-6.058,0-10.988-4.929-10.988-10.988S340.16,327.921,346.218,327.921z"/>
		<path d="M197.727,228.719c14.328,0,25.985-11.657,25.985-25.985s-11.657-25.985-25.985-25.985s-25.985,11.657-25.985,25.985
			S183.399,228.719,197.727,228.719z M197.727,191.746c6.058,0,10.988,4.929,10.988,10.988s-4.93,10.988-10.988,10.988
			s-10.988-4.929-10.988-10.988S191.668,191.746,197.727,191.746z"/>
		<path d="M137.787,298.876c6.884,3.645,14.437,5.468,21.989,5.468c7.553,0,15.106-1.823,21.99-5.468
			c3.659-1.938,5.056-6.476,3.118-10.136c-1.937-3.66-6.472-5.058-10.136-3.119c-9.372,4.964-20.568,4.965-29.943,0
			c-3.661-1.937-8.198-0.541-10.136,3.119C132.731,292.4,134.128,296.938,137.787,298.876z"/>
		<path d="M409.41,318.912c10.592-0.154,20.578,4.92,26.677,13.6c1.459,2.078,3.782,3.189,6.142,3.189
			c1.489,0,2.993-0.442,4.304-1.363c3.388-2.38,4.206-7.057,1.825-10.446c-8.955-12.749-23.571-20.219-39.18-19.975
			c-4.141,0.064-7.446,3.473-7.381,7.614C401.861,315.67,405.291,318.933,409.41,318.912z"/>
		<path d="M217.338,248.702c0.064,4.14,3.469,7.396,7.614,7.381c10.57-0.159,20.579,4.919,26.677,13.6
			c1.46,2.078,3.782,3.189,6.142,3.189c1.489,0,2.993-0.442,4.304-1.363c3.388-2.381,4.206-7.058,1.825-10.446
			c-8.954-12.748-23.552-20.233-39.18-19.975C220.579,241.152,217.274,244.561,217.338,248.702z"/>
		<path d="M220.002,152.679c0.236,0,0.475-0.011,0.714-0.034c4.123-0.39,7.15-4.048,6.76-8.171
			c-0.998-10.561,3.286-20.902,11.46-27.664c3.191-2.64,3.637-7.367,0.997-10.558c-2.638-3.191-7.365-3.638-10.558-0.998
			c-12.004,9.931-18.295,25.12-16.83,40.63C212.912,149.769,216.178,152.679,220.002,152.679z"/>
	</g>
</g>
<g>
</g>
<g>
</g>
<g>
</g>
<g>
</g>
<g>
</g>
<g>
</g>
<g>
</g>
<g>
</g>
<g>
</g>
<g>
</g>
<g>
</g>
<g>
</g>
<g>
</g>
<g>
</g>
<g>
</g>
</svg>
