<?xml version="1.0" encoding="iso-8859-1"?>
<!-- Generator: Adobe Illustrator 24.0.0, SVG Export Plug-In . SVG Version: 6.00 Build 0)  -->
<svg version="1.1" id="Capa_1" xmlns="http://www.w3.org/2000/svg" xmlns:xlink="http://www.w3.org/1999/xlink" x="0px" y="0px"
	 viewBox="0 0 511.987 511.987" style="enable-background:new 0 0 511.987 511.987;" xml:space="preserve">
<g>
	<g>
		<path style="fill:#544F57;" d="M415.607,132.545v201.901c0,58.066-71.46,105.128-159.605,105.128
			c-20.114,0-39.359-2.457-57.083-6.926c-59.964-15.119-102.533-53.381-102.533-98.202V130.374l102.533,0.697L415.607,132.545z"/>
		<path style="fill:#454045;" d="M198.919,131.071v301.577c-59.964-15.119-102.533-53.381-102.533-98.202V130.374L198.919,131.071z"
			/>
		<path style="fill:#454045;" d="M504.449,190.674L504.449,190.674v-29.696l-51.846-15.004H59.394L7.5,160.978v29.696h0.049
			c-0.543,11.347,4.965,22.95,16.547,29.077l198.299,104.897c21.023,11.121,46.187,11.121,67.21,0l198.299-104.897
			C499.485,213.624,504.992,202.021,504.449,190.674z"/>
		<path style="fill:#544F57;" d="M222.394,30.053L24.095,134.95c-22.127,11.705-22.127,43.4,0,55.104l198.299,104.897
			c21.023,11.121,46.187,11.121,67.21,0l198.299-104.897c22.127-11.705,22.127-43.4,0-55.104L289.604,30.053
			C268.581,18.932,243.417,18.932,222.394,30.053z"/>
		<ellipse style="fill:#F4DD45;" cx="255.999" cy="162.502" rx="41.73" ry="20.67"/>
		<circle style="fill:#F4DD45;" cx="361.444" cy="400.442" r="21.47"/>
		<path style="fill:#F4DD45;" d="M339.974,468.814c0,11.858,9.612,21.47,21.47,21.47c11.858,0,21.47-9.612,21.47-21.47
			c0-11.858-9.612-46.902-21.47-46.902C349.587,421.912,339.974,456.956,339.974,468.814z"/>
	</g>
	<path d="M511.949,160.994v-0.017l0,0c-0.519-13.943-8.099-26.074-20.538-32.653l-198.296-104.9
		c-23.242-12.295-50.992-12.295-74.232,0L66.87,103.838c-3.661,1.937-5.06,6.475-3.123,10.136c1.938,3.66,6.473,5.062,10.137,3.123
		l152.013-80.413c18.85-9.972,41.355-9.972,60.205,0l198.296,104.9c7.891,4.173,12.602,11.993,12.602,20.917
		c0,8.925-4.711,16.745-12.602,20.918l-121.843,64.456l-72.318-64.775c9.333-5.063,14.992-12.301,14.992-20.599
		c0-16.06-21.164-28.17-49.23-28.17s-49.23,12.11-49.23,28.17s21.164,28.17,49.23,28.17c6.479,0,12.584-0.653,18.152-1.843
		l74.27,66.523l-62.319,32.967c-18.85,9.972-41.355,9.972-60.205,0l-198.296-104.9c-7.891-4.173-12.602-11.993-12.602-20.918
		c0-8.924,4.711-16.744,12.601-20.917l19.936-10.543c3.662-1.937,5.061-6.475,3.124-10.136c-1.936-3.661-6.475-5.062-10.136-3.124
		l-19.937,10.543c-12.455,6.588-20.038,18.742-20.539,32.707L0,160.977v29.696c0,0.198,0.008,0.395,0.023,0.59
		c-0.36,14.789,7.455,28.182,20.565,35.117l68.29,36.125v71.943c0,30.687,17.801,59.311,50.125,80.601
		c31.358,20.654,72.908,32.029,116.995,32.029c30.84,0,60.435-5.55,86.403-16.115c-1.09,2.217-2.143,4.635-3.152,7.293
		c-3.926,10.351-6.775,23.203-6.775,30.558c0,15.974,12.996,28.97,28.97,28.97s28.97-12.996,28.97-28.97
		c0-7.355-2.85-20.207-6.775-30.558c-2.041-5.379-4.255-9.834-6.626-13.402c7.747-4.958,12.989-13.494,13.372-23.262
		c16.328-14.846,27.014-32.291,30.961-50.651c0.871-4.05-1.706-8.039-5.756-8.909c-4.048-0.871-8.038,1.706-8.908,5.756
		c-2.821,13.12-9.93,25.823-20.747,37.208c-3.844-6.074-9.88-10.626-16.99-12.534v-81.3l39.165-20.717v49.003
		c0,4.142,3.357,7.5,7.5,7.5s7.5-3.358,7.5-7.5V262.51l68.3-36.129c13.334-7.054,21.191-20.788,20.54-35.876
		C511.949,190.504,511.968,161.496,511.949,160.994z M255.999,175.672c-22.148,0-34.23-8.7-34.23-13.17
		c0-4.47,12.082-13.17,34.23-13.17s34.23,8.7,34.23,13.17c0,2.636-4.205,6.742-12.195,9.668l-17.031-15.255
		c-3.086-2.765-7.827-2.502-10.591,0.583c-2.764,3.085-2.502,7.827,0.583,10.59l8.384,7.509
		C258.278,175.643,257.155,175.672,255.999,175.672z M15.038,193.114c1.726,1.313,3.568,2.517,5.549,3.565l198.296,104.9
		c11.62,6.148,24.368,9.222,37.116,9.222s25.496-3.074,37.116-9.222l60.829-32.179v12.729l-67.848,35.89
		c-18.846,9.969-41.35,9.969-60.195,0L27.603,213.122C20.026,209.113,15.35,201.572,15.038,193.114z M361.444,482.784
		c-7.703,0-13.97-6.267-13.97-13.97c0-4.337,1.796-14.009,5.124-23.392c3.843-10.835,7.447-14.936,8.846-15.87
		c1.398,0.935,5.003,5.035,8.846,15.87c3.328,9.383,5.124,19.055,5.124,23.392C375.414,476.517,369.147,482.784,361.444,482.784z
		 M375.414,400.442c0,7.703-6.267,13.97-13.97,13.97s-13.97-6.267-13.97-13.97s6.267-13.97,13.97-13.97
		S375.414,392.739,375.414,400.442z M353.944,372.462c-12.349,3.313-21.47,14.6-21.47,27.98c0,6.048,1.865,11.667,5.047,16.316
		c-24.356,10.044-52.3,15.319-81.523,15.319c-41.188,0-79.808-10.497-108.745-29.556c-27.971-18.423-43.375-42.599-43.375-68.074
		v-64.009l115.009,60.838c11.619,6.146,24.365,9.22,37.111,9.22s25.492-3.073,37.111-9.22l60.834-32.18V372.462z M484.396,213.122
		l-72.233,38.21c-0.069,0.036-0.138,0.071-0.205,0.108l-43.013,22.753v-12.729l122.467-64.786c1.981-1.048,3.823-2.251,5.549-3.565
		C496.648,201.573,491.972,209.114,484.396,213.122z"/>
</g>
<g>
</g>
<g>
</g>
<g>
</g>
<g>
</g>
<g>
</g>
<g>
</g>
<g>
</g>
<g>
</g>
<g>
</g>
<g>
</g>
<g>
</g>
<g>
</g>
<g>
</g>
<g>
</g>
<g>
</g>
</svg>
