<?xml version="1.0" encoding="iso-8859-1"?>
<!-- Generator: Adobe Illustrator 24.0.0, SVG Export Plug-In . SVG Version: 6.00 Build 0)  -->
<svg version="1.1" id="Capa_1" xmlns="http://www.w3.org/2000/svg" xmlns:xlink="http://www.w3.org/1999/xlink" x="0px" y="0px"
	 viewBox="0 0 512 512" style="enable-background:new 0 0 512 512;" xml:space="preserve">
<g>
	<g>
		<path style="fill:#F4DD45;" d="M410.467,460.07c0,24.54-69.16,44.43-154.47,44.43c-36.74,0-70.49-3.69-97.01-9.85
			c-35.05-8.15-57.46-20.61-57.46-34.58c0-22.45,57.94-41.02,133.18-44c6.96-0.28,14.07-0.42,21.29-0.42
			C341.307,415.65,410.467,435.54,410.467,460.07z"/>
		<path style="fill:#EAB14D;" d="M255.997,460.07l-97.01,34.58c-35.05-8.15-57.46-20.61-57.46-34.58c0-22.45,57.94-41.02,133.18-44
			L255.997,460.07z"/>
		<path style="fill:#DA4A54;" d="M432.101,177.276c-5.579-226.368-346.622-226.368-352.201,0c-0.062,2.528-0.094,5.063-0.094,7.606
			c0,122.049,72.191,227.222,176.194,275.192c104.003-47.97,176.194-153.143,176.194-275.192
			C432.194,182.339,432.163,179.803,432.101,177.276z"/>
		<path style="fill:#C63D4F;" d="M255.996,460.072c-104-47.97-176.19-153.14-176.19-275.19c0-2.54,0.03-5.08,0.09-7.6
			c2.77-112.46,88.34-169.05,174.44-169.77c-70.87,0.88-141.21,57.47-143.49,169.77c-0.05,2.52-0.08,5.06-0.08,7.6
			C110.766,306.931,170.276,412.102,255.996,460.072z"/>
		<circle style="fill:#E7ECF1;" cx="256" cy="182.179" r="127.299"/>
		<path style="fill:#C6D0DA;" d="M271.641,308.529c-5.12,0.63-10.34,0.95-15.64,0.95c-70.31,0-127.3-57-127.3-127.3
			c0-70.31,56.99-127.3,127.3-127.3c5.3,0,10.52,0.32,15.64,0.95c-62.93,7.71-111.67,61.33-111.67,126.35
			C159.971,247.189,208.711,300.819,271.641,308.529z"/>
		<g>
			<path style="fill:#F4DD45;" d="M276.403,119.825l6.393,12.953c3.314,6.715,9.721,11.37,17.131,12.447l14.294,2.077
				c18.662,2.712,26.114,25.646,12.61,38.809l-10.343,10.082c-5.363,5.227-7.81,12.758-6.544,20.139l2.442,14.236
				c3.188,18.587-16.321,32.761-33.013,23.985l-12.785-6.721c-6.628-3.485-14.547-3.485-21.176,0l-12.785,6.721
				c-16.692,8.776-36.201-5.399-33.013-23.985l2.442-14.236c1.266-7.381-1.181-14.912-6.544-20.139l-10.343-10.082
				c-13.504-13.163-6.052-36.098,12.61-38.809l14.294-2.077c7.411-1.077,13.817-5.731,17.131-12.447l6.393-12.953
				C243.943,102.914,268.057,102.914,276.403,119.825z"/>
			<path style="fill:#EAB14D;" d="M269.595,111.609c-2.748,2.027-5.105,4.76-6.802,8.213l-6.396,12.942
				c-3.318,6.726-9.729,11.381-17.132,12.447l-14.294,2.087c-18.663,2.703-26.11,25.645-12.612,38.812l10.345,10.075
				c5.36,5.225,7.807,12.762,6.546,20.135l-2.447,14.249c-1.592,9.294,2.492,17.492,9.084,22.266l-3.258,1.712
				c-16.681,8.784-36.2-5.405-33.002-23.978l2.433-14.249c1.261-7.372-1.171-14.91-6.546-20.135l-10.345-10.075
				c-13.498-13.168-6.051-36.11,12.612-38.812l14.294-2.087c7.417-1.066,13.828-5.721,17.132-12.447l6.396-12.942
				C242.254,106.354,258.874,103.607,269.595,111.609z"/>
		</g>
	</g>
	<g>
		<path d="M388.452,428.95c-13.174-5.801-30.462-10.625-50.592-14.168c19.56-17.757,36.891-38.025,51.518-60.424
			c32.917-50.408,50.316-109.012,50.316-169.477c0-2.593-0.032-5.214-0.096-7.791v0.001c-1.348-54.692-21.82-100.624-59.203-132.83
			C347.265,15.719,303.086,0,256,0s-91.265,15.719-124.395,44.262C94.222,76.468,73.75,122.399,72.402,177.09
			c-0.064,2.577-0.096,5.198-0.096,7.791c0,60.465,17.399,119.069,50.316,169.477c14.627,22.398,31.958,42.667,51.518,60.423
			c-10.137,1.784-19.59,3.893-28.211,6.319c-3.987,1.122-6.31,5.264-5.188,9.251c0.931,3.308,3.94,5.47,7.216,5.47
			c0.672,0,1.356-0.091,2.036-0.282c11.549-3.25,24.731-5.915,39.19-7.947c19.471,15.537,40.822,28.75,63.677,39.292
			c0.997,0.459,2.069,0.689,3.141,0.689s2.145-0.23,3.141-0.689c22.855-10.542,44.207-23.755,63.678-39.292
			c58.299,8.193,80.151,24.171,80.151,32.478c0,5.885-10.428,15.757-39.817,24.21C334.633,492.482,296.579,497,256,497
			s-78.633-4.518-107.153-12.72c-29.389-8.453-39.817-18.325-39.817-24.21c0-4.275,5.271-9.539,14.461-14.443
			c3.654-1.95,5.036-6.493,3.086-10.147c-1.95-3.655-6.495-5.038-10.147-3.086c-14.863,7.931-22.399,17.243-22.399,27.677
			c0,15.735,17.521,29.091,50.671,38.625C174.531,507.275,214.058,512,256,512s81.469-4.725,111.299-13.305
			c33.149-9.534,50.671-22.891,50.671-38.625C417.97,448.045,408.039,437.575,388.452,428.95z M256,451.792
			c-49.205-23.396-90.927-59.86-120.818-105.636c-31.321-47.962-47.876-103.73-47.876-161.275c0-2.47,0.031-4.966,0.091-7.421
			c1.241-50.34,19.913-92.47,53.998-121.834C171.805,29.428,212.505,15,256,15s84.195,14.428,114.605,40.626
			c34.085,29.365,52.757,71.495,53.998,121.834c0,0,0,0,0,0.001c0.061,2.454,0.091,4.95,0.091,7.42
			c0,57.544-16.555,113.313-47.876,161.275C346.927,391.932,305.205,428.396,256,451.792z"/>
		<path d="M390.8,182.18c0-30.015-9.646-58.416-27.896-82.134c-2.525-3.283-7.235-3.897-10.518-1.37
			c-3.283,2.526-3.896,7.235-1.37,10.518c16.213,21.072,24.784,46.31,24.784,72.986c0,66.058-53.742,119.8-119.8,119.8
			s-119.8-53.742-119.8-119.8c0-66.058,53.742-119.8,119.8-119.8c27.744,0,53.779,9.202,75.292,26.61
			c3.218,2.606,7.941,2.108,10.548-1.112c2.606-3.22,2.108-7.942-1.112-10.548C316.861,58.017,286.771,47.38,256,47.38
			c-74.329,0-134.8,60.471-134.8,134.8s60.471,134.8,134.8,134.8S390.8,256.509,390.8,182.18z"/>
		<path d="M332.066,191.481c8.307-8.097,11.24-19.98,7.656-31.012c-3.584-11.032-12.942-18.922-24.422-20.59l-14.294-2.077
			c-4.969-0.722-9.262-3.841-11.484-8.344l-6.393-12.953C277.995,106.104,267.6,99.642,256,99.642s-21.995,6.462-27.129,16.864
			l-6.393,12.953c-2.222,4.502-6.515,7.621-11.484,8.343l-14.294,2.077c-11.479,1.668-20.837,9.558-24.422,20.59
			c-3.584,11.032-0.651,22.915,7.656,31.012l10.343,10.082c3.596,3.505,5.236,8.552,4.387,13.5l-2.442,14.237
			c-1.96,11.433,2.651,22.771,12.036,29.589c9.385,6.818,21.592,7.7,31.859,2.303l12.785-6.722c4.444-2.337,9.751-2.337,14.195,0
			l12.785,6.722c4.466,2.348,9.298,3.507,14.106,3.507c6.246,0,12.451-1.958,17.753-5.81c9.385-6.818,13.997-18.156,12.036-29.59
			l-2.442-14.236c-0.849-4.949,0.791-9.996,4.386-13.5L332.066,191.481z M311.252,190.822c-7.131,6.952-10.384,16.962-8.7,26.778
			l2.442,14.236c1.003,5.852-1.265,11.429-6.068,14.919c-4.802,3.489-10.807,3.924-16.063,1.161l-12.785-6.722
			c-4.408-2.317-9.243-3.476-14.078-3.476c-4.835,0-9.67,1.159-14.078,3.476l-12.785,6.722c-5.254,2.764-11.259,2.33-16.063-1.161
			c-4.803-3.49-7.072-9.067-6.068-14.918l2.442-14.236c1.684-9.816-1.569-19.826-8.701-26.778l-10.343-10.082
			c-4.251-4.144-5.694-9.99-3.859-15.636c1.834-5.646,6.438-9.527,12.313-10.381l14.293-2.077
			c9.856-1.432,18.372-7.618,22.779-16.549l6.393-12.953c2.627-5.324,7.741-8.503,13.678-8.503s11.05,3.179,13.678,8.503
			l6.393,12.952c4.407,8.931,12.922,15.118,22.778,16.549l14.294,2.077c5.875,0.854,10.479,4.735,12.313,10.381
			c1.835,5.646,0.392,11.492-3.859,15.636L311.252,190.822z"/>
	</g>
</g>
<g>
</g>
<g>
</g>
<g>
</g>
<g>
</g>
<g>
</g>
<g>
</g>
<g>
</g>
<g>
</g>
<g>
</g>
<g>
</g>
<g>
</g>
<g>
</g>
<g>
</g>
<g>
</g>
<g>
</g>
</svg>
