<?xml version="1.0" encoding="iso-8859-1"?>
<!-- Generator: Adobe Illustrator 24.0.0, SVG Export Plug-In . SVG Version: 6.00 Build 0)  -->
<svg version="1.1" id="Capa_1" xmlns="http://www.w3.org/2000/svg" xmlns:xlink="http://www.w3.org/1999/xlink" x="0px" y="0px"
	 viewBox="0 0 512 512" style="enable-background:new 0 0 512 512;" xml:space="preserve">
<g>
	<g>
		<path style="fill:#DA4A54;" d="M311.137,179.626c-6.235,0-12.161-3.667-14.743-9.771c-6.88-16.265-22.735-26.775-40.394-26.775
			c-16.785,0-32.316,9.79-39.567,24.941c-3.814,7.971-13.368,11.342-21.339,7.525c-7.971-3.815-11.34-13.369-7.525-21.339
			c12.539-26.198,39.399-43.126,68.432-43.126c30.543,0,57.967,18.178,69.866,46.31c3.442,8.139-0.365,17.526-8.503,20.969
			C315.328,179.219,313.216,179.626,311.137,179.626z"/>
		<g>
			<circle style="fill:#DA4A54;" cx="113.415" cy="181.239" r="105.915"/>
			<path style="fill:#C6D0DA;" d="M187.38,181.239c0,32.84-21.4,60.67-51.01,70.32c-7.23,2.37-14.94,3.64-22.96,3.64
				c-18.62,0-35.63-6.88-48.63-18.24c-15.52-13.56-25.33-33.49-25.33-55.72c0-40.85,33.12-73.96,73.96-73.96
				c0.97,0,1.94,0.02,2.91,0.06c26.81,1.03,49.96,16.34,62.07,38.53C184.12,156.378,187.38,168.429,187.38,181.239z"/>
			<circle style="fill:#DA4A54;" cx="398.585" cy="181.239" r="105.915"/>
			<path style="fill:#C6D0DA;" d="M472.55,181.239c0,40.85-33.12,73.96-73.96,73.96c-8.1,0-15.9-1.3-23.2-3.72
				c-29.49-9.72-50.77-37.49-50.77-70.24c0-40.85,33.12-73.96,73.97-73.96c11.21,0,21.84,2.5,31.36,6.97
				C455.12,126.038,472.55,151.599,472.55,181.239z"/>
			<path style="fill:#E7ECF1;" d="M472.55,181.239c0,40.85-33.12,73.96-73.96,73.96c-8.1,0-15.9-1.3-23.2-3.72l54.56-137.23
				C455.12,126.038,472.55,151.599,472.55,181.239z"/>
			<path style="fill:#E7ECF1;" d="M178.39,145.869l-42.02,105.69c-7.23,2.37-14.94,3.64-22.96,3.64c-18.62,0-35.63-6.88-48.63-18.24
				l51.54-129.62C143.13,108.369,166.28,123.679,178.39,145.869z"/>
		</g>
		<path style="fill:#9D6B6B;" d="M106.63,436.679v-34.37c0-31.06,25.18-56.23,56.24-56.23h51.23h83.8h51.23
			c31.06,0,56.24,25.17,56.24,56.23v34.37"/>
		<path style="fill:#785252;" d="M230.71,346.078c-31.06,0-56.24,25.17-56.24,56.23v34.37h-67.84v-34.37
			c0-31.06,25.18-56.23,56.24-56.23H230.71z"/>
		<path style="fill:#F1D0A5;" d="M333.15,310.898c-0.04,19.56-16.41,35.18-35.97,35.18h-3.46c-7.41,0-14.56,3.27-19.05,9.17
			c-4.28,5.63-11.05,9.27-18.67,9.27s-14.39-3.64-18.67-9.27c-4.49-5.9-11.64-9.17-19.05-9.17h-3.46c-6.57,0-12.77-1.76-18.12-4.84
			c-10.59-6.09-17.82-17.35-17.85-30.34c-0.03-17.46,12.63-31.96,29.26-34.8v-53.73c0-13.22,5.36-25.19,14.03-33.85
			c8.66-8.67,20.64-14.03,33.86-14.03c26.45,0,47.89,21.44,47.89,47.88v53.73C320.52,278.938,333.18,293.438,333.15,310.898z"/>
		<path style="fill:#F1B986;" d="M230.878,271.757c0.583,9.14-3.941,17.793-11.688,22.68c-12.972,8.183-29.963,23.807-22.491,46.792
			v0.01c-10.59-6.09-17.82-17.35-17.85-30.34c-0.03-17.46,12.63-31.96,29.26-34.8v-53.73c0-13.22,5.36-25.19,14.03-33.85
			c8.66-8.67,20.64-14.03,33.86-14.03C227.985,174.489,228.89,240.566,230.878,271.757z"/>
	</g>
	<g>
		<path d="M398.59,294.651c62.534,0,113.41-50.875,113.41-113.41c0-62.54-50.876-113.42-113.41-113.42
			c-39.47,0-74.29,20.271-94.612,50.944c-13.966-9.834-30.697-15.187-47.978-15.187c-17.161,0-33.877,5.38-47.927,15.264
			c-20.315-30.716-55.16-51.021-94.663-51.021c-21.469,0-42.371,6.034-60.445,17.449c-3.502,2.212-4.548,6.844-2.336,10.346
			c2.212,3.502,6.843,4.549,10.346,2.336c15.673-9.899,33.805-15.131,52.435-15.131c54.269,0,98.42,44.151,98.42,98.42
			c0,2.73-0.116,5.46-0.337,8.144c-7.064,9.483-10.883,20.938-10.883,32.986v4.505c-17.077,32.593-50.323,52.774-87.2,52.774
			c-54.264,0-98.41-44.146-98.41-98.41c0-24.443,9.025-47.886,25.413-66.01c2.778-3.072,2.54-7.815-0.533-10.593
			c-3.073-2.78-7.816-2.54-10.593,0.533C10.401,126.058,0,153.074,0,181.242c0,62.534,50.875,113.41,113.41,113.41
			c34.341,0,65.947-15.191,87.2-40.835v16.434c-17.312,5.707-29.292,21.911-29.26,40.667c0.022,10.548,3.962,20.208,10.45,27.662
			h-18.93c-35.146,0-63.74,28.589-63.74,63.73v34.37c0,4.142,3.358,7.5,7.5,7.5s7.5-3.358,7.5-7.5v-34.37
			c0-26.87,21.865-48.73,48.74-48.73l55.41,0.003c5.236,0,10.125,2.32,13.08,6.209c5.904,7.766,14.885,12.221,24.641,12.221
			c9.755,0,18.735-4.454,24.642-12.223c2.953-3.887,7.842-6.207,13.078-6.207l55.41-0.003c26.875,0,48.74,21.86,48.74,48.73v34.37
			c0,4.142,3.357,7.5,7.5,7.5s7.5-3.358,7.5-7.5v-34.37c0-35.141-28.594-63.73-63.74-63.73h-18.939
			c2.561-2.934,4.746-6.228,6.45-9.831c1.771-3.745,0.17-8.216-3.574-9.986c-3.747-1.77-8.215-0.17-9.986,3.574
			c-4.667,9.869-14.833,16.246-25.9,16.246h-3.46c-9.896,0-19.25,4.536-25.021,12.131c-3.043,4.003-7.672,6.299-12.699,6.299
			c-5.028,0-9.656-2.296-12.698-6.297c-5.772-7.597-15.126-12.133-25.022-12.133h-3.46c-15.667,0-28.438-12.424-28.47-27.693
			c-0.023-13.588,9.661-25.114,23.027-27.405c3.601-0.617,6.233-3.739,6.233-7.392v-53.72c0-10.793,4.202-20.934,11.837-28.56
			c7.62-7.629,17.76-11.83,28.553-11.83c22.271,0,40.39,18.119,40.39,40.39v53.72c0,3.652,2.631,6.773,6.23,7.392
			c9.048,1.555,16.725,7.481,20.534,15.854c1.714,3.769,6.156,5.435,9.933,3.721c3.77-1.715,5.436-6.163,3.72-9.933
			c-4.972-10.928-14.224-19.152-25.417-22.867v-16.444C332.643,279.46,364.248,294.651,398.59,294.651z M398.59,82.821
			c54.264,0,98.41,44.151,98.41,98.42c0,54.263-44.146,98.41-98.41,98.41c-36.876,0-70.123-20.181-87.2-52.773v-4.506
			c0-12.32-4.047-23.71-10.876-32.92c-0.225-2.708-0.343-5.459-0.343-8.209C300.17,126.973,344.321,82.821,398.59,82.821z
			 M256,118.579c14.655,0,28.828,4.682,40.502,13.272c-2.585,5.321-4.761,10.876-6.498,16.62
			c-9.253-8.167-21.325-12.892-34.004-12.892c-12.654,0-24.727,4.734-33.998,12.912c-1.729-5.72-3.892-11.253-6.462-16.556
			C227.307,123.291,241.467,118.579,256,118.579z M256,166.981c-10.538,0-20.615,2.935-29.32,8.391
			c-0.151-2.958-0.419-5.887-0.794-8.782c6.732-9.934,18.053-16.012,30.115-16.012c12.103,0,23.425,6.077,30.115,16.008
			c-0.377,2.908-0.646,5.85-0.797,8.822C276.808,170.077,266.761,166.981,256,166.981z"/>
		<path d="M398.585,262.703c44.919,0,81.463-36.544,81.463-81.463s-36.544-81.463-81.463-81.463s-81.463,36.544-81.463,81.463
			S353.666,262.703,398.585,262.703z M398.585,114.776c36.647,0,66.463,29.815,66.463,66.463s-29.815,66.463-66.463,66.463
			s-66.463-29.815-66.463-66.463S361.938,114.776,398.585,114.776z"/>
		<path d="M113.415,262.703c44.919,0,81.463-36.544,81.463-81.463s-36.544-81.463-81.463-81.463s-81.463,36.544-81.463,81.463
			S68.496,262.703,113.415,262.703z M113.415,114.776c36.648,0,66.463,29.815,66.463,66.463s-29.815,66.463-66.463,66.463
			s-66.463-29.815-66.463-66.463S76.767,114.776,113.415,114.776z"/>
		<path d="M132.295,387.941c-4.142,0-7.5,3.358-7.5,7.5v41.235c0,4.142,3.358,7.5,7.5,7.5s7.5-3.358,7.5-7.5v-41.235
			C139.795,391.299,136.437,387.941,132.295,387.941z"/>
		<path d="M159.785,387.941c-4.142,0-7.5,3.358-7.5,7.5v41.235c0,4.142,3.358,7.5,7.5,7.5s7.5-3.358,7.5-7.5v-41.235
			C167.285,391.299,163.927,387.941,159.785,387.941z"/>
		<path d="M187.275,387.941c-4.142,0-7.5,3.358-7.5,7.5v41.235c0,4.142,3.358,7.5,7.5,7.5s7.5-3.358,7.5-7.5v-41.235
			C194.775,391.299,191.417,387.941,187.275,387.941z"/>
		<path d="M214.765,387.941c-4.142,0-7.5,3.358-7.5,7.5v41.235c0,4.142,3.358,7.5,7.5,7.5s7.5-3.358,7.5-7.5v-41.235
			C222.265,391.299,218.907,387.941,214.765,387.941z"/>
		<path d="M242.255,387.941c-4.142,0-7.5,3.358-7.5,7.5v41.235c0,4.142,3.358,7.5,7.5,7.5s7.5-3.358,7.5-7.5v-41.235
			C249.755,391.299,246.397,387.941,242.255,387.941z"/>
		<path d="M269.745,387.941c-4.143,0-7.5,3.358-7.5,7.5v41.235c0,4.142,3.357,7.5,7.5,7.5s7.5-3.358,7.5-7.5v-41.235
			C277.245,391.299,273.888,387.941,269.745,387.941z"/>
		<path d="M297.235,387.941c-4.143,0-7.5,3.358-7.5,7.5v41.235c0,4.142,3.357,7.5,7.5,7.5s7.5-3.358,7.5-7.5v-41.235
			C304.735,391.299,301.378,387.941,297.235,387.941z"/>
		<path d="M324.726,387.941c-4.143,0-7.5,3.358-7.5,7.5v41.235c0,4.142,3.357,7.5,7.5,7.5s7.5-3.358,7.5-7.5v-41.235
			C332.226,391.299,328.868,387.941,324.726,387.941z"/>
		<path d="M352.215,387.941c-4.143,0-7.5,3.358-7.5,7.5v41.235c0,4.142,3.357,7.5,7.5,7.5s7.5-3.358,7.5-7.5v-41.235
			C359.715,391.299,356.357,387.941,352.215,387.941z"/>
		<path d="M379.705,387.941c-4.143,0-7.5,3.358-7.5,7.5v41.235c0,4.142,3.357,7.5,7.5,7.5s7.5-3.358,7.5-7.5v-41.235
			C387.205,391.299,383.848,387.941,379.705,387.941z"/>
	</g>
</g>
<g>
</g>
<g>
</g>
<g>
</g>
<g>
</g>
<g>
</g>
<g>
</g>
<g>
</g>
<g>
</g>
<g>
</g>
<g>
</g>
<g>
</g>
<g>
</g>
<g>
</g>
<g>
</g>
<g>
</g>
</svg>
