<?xml version="1.0" encoding="iso-8859-1"?>
<!-- Generator: Adobe Illustrator 24.0.0, SVG Export Plug-In . SVG Version: 6.00 Build 0)  -->
<svg version="1.1" id="Capa_1" xmlns="http://www.w3.org/2000/svg" xmlns:xlink="http://www.w3.org/1999/xlink" x="0px" y="0px"
	 viewBox="0 0 511.937 511.937" style="enable-background:new 0 0 511.937 511.937;" xml:space="preserve">
<g>
	<g>
		<path style="fill:#90D8F9;" d="M412.547,470.843c-104.382,10.857-208.774,10.857-313.157,0
			c-10.167-87.341-11.328-174.691-3.492-262.032c1.771-19.804,17.592-35.444,37.416-37.055c29.641-2.412,59.281-3.953,88.932-4.614
			c4.793-0.11,9.587-0.2,14.38-0.25c40.368-0.53,80.746,0.571,121.114,3.312c6.965,0.46,13.92,0.981,20.885,1.551
			c19.824,1.611,35.645,17.252,37.416,37.055C423.875,296.151,422.714,383.502,412.547,470.843z"/>
		<path style="fill:#6BBEF6;" d="M170.356,497.058c23.536,5.884,62.083-18.071,85.619-18.071c-52.196,0-104.392-2.712-156.578-8.145
			c-10.167-87.341-11.338-174.691-3.502-262.032c1.781-19.804,17.602-35.444,37.416-37.055c17.562-1.431,35.124-2.552,52.686-3.363
			c-6.349,5.234-17.222,16.669-17.222,44.289C168.775,307.543,165.763,402.263,170.356,497.058z"/>
		<path style="fill:#E7ECF1;" d="M423.2,413.675H88.738c-25.079,0-45.41,20.331-45.41,45.41v0c0,25.079,20.331,45.41,45.41,45.41
			H423.2c25.079,0,45.41-20.331,45.41-45.41v0C468.61,434.006,448.279,413.675,423.2,413.675z"/>
		<path style="fill:#C6D0DA;" d="M456.583,489.856c-8.286,8.996-20.174,14.64-33.383,14.64H88.738
			c-12.539,0-23.896-5.084-32.112-13.299c-8.216-8.216-13.299-19.574-13.299-32.112c0-25.077,20.324-45.411,45.411-45.411h50.465
			c-7.465,8.095-12.018,18.903-12.018,30.771c0,12.538,5.084,23.886,13.299,32.112c8.216,8.216,19.574,13.299,32.112,13.299H456.583
			z"/>
		<path style="fill:#DA4A54;" d="M210.454,86.04c0,1.271,0.024,2.536,0.071,3.795c2.185,58.608,90.699,58.608,92.883,0
			c0.047-1.259,0.071-2.524,0.071-3.795c0-28.417-11.842-54.057-30.853-72.283c-8.702-8.343-22.617-8.343-31.318,0
			C222.297,31.984,210.454,57.623,210.454,86.04z"/>
		<path style="fill:#F4DD45;" d="M231.36,107.503c0,0.7,0.013,1.396,0.039,2.089c1.203,32.265,49.931,32.265,51.134,0
			c0.026-0.693,0.039-1.39,0.039-2.089c0-15.644-6.52-29.759-16.985-39.793c-4.79-4.593-12.451-4.593-17.241,0
			C237.88,77.744,231.36,91.859,231.36,107.503z"/>
		<path style="fill:#E7ECF1;" d="M357.739,170.204v80.326c0,14.7-11.928,26.628-26.628,26.628c-7.355,0-14.01-2.982-18.833-7.805
			c-4.813-4.813-7.795-11.468-7.795-18.823v-33.914c0-11.358-9.206-20.554-20.564-20.554c-5.674,0-10.817,2.302-14.53,6.014
			c-3.723,3.722-6.024,8.856-6.024,14.54v18.183c0,11.348-9.206,20.554-20.564,20.554c-5.674,0-10.808-2.301-14.53-6.024
			c-3.723-3.713-6.024-8.856-6.024-14.53v-67.657C267.407,166.121,312.578,167.142,357.739,170.204z"/>
		<path style="fill:#C6D0DA;" d="M326.664,269.355c3.184,3.184,7.172,5.564,11.633,6.811c-2.287,0.649-4.699,0.989-7.192,0.989
			c-7.347,0-14.003-2.978-18.826-7.8c-4.822-4.812-7.8-11.469-7.8-18.826v-33.911c0-8.82-5.554-16.342-13.364-19.258
			c2.236-0.845,4.657-1.299,7.192-1.299c11.355,0,20.557,9.202,20.557,20.557v33.911
			C318.864,257.886,321.842,264.543,326.664,269.355z"/>
		<path style="fill:#C6D0DA;" d="M250.005,254.052c-2.242,0.851-4.673,1.301-7.205,1.301c-5.674,0-10.818-2.301-14.54-6.014
			c-3.723-3.723-6.014-8.866-6.014-14.54v-67.657c4.793-0.11,9.587-0.2,14.38-0.25v67.907c0,5.674,2.312,10.817,6.034,14.54
			C244.711,251.39,247.223,253.022,250.005,254.052z"/>
	</g>
	<g>
		<path d="M460.558,421.631c-9.346-9.346-21.574-14.762-34.678-15.421c3.957-60.763,3.577-122.291-1.155-183.019
			c-0.322-4.128-3.923-7.21-8.059-6.893c-4.128,0.322-7.214,3.93-6.893,8.058c4.702,60.321,5.055,121.439,1.082,181.784H101.082
			c-4.299-65.258-3.531-131.375,2.322-196.645c1.45-16.202,14.296-28.92,30.548-30.241c26.836-2.187,53.799-3.633,80.803-4.37
			v59.921c0,7.501,2.921,14.546,8.219,19.829c5.3,5.3,12.342,8.219,19.828,8.219c15.471,0,28.057-12.582,28.057-28.047v-18.178
			c0-3.487,1.359-6.767,3.826-9.234c2.462-2.461,5.738-3.817,9.225-3.817c7.202,0,13.061,5.855,13.061,13.051v33.905
			c0,9.113,3.548,17.679,9.989,24.12c6.449,6.448,15.019,9.999,24.131,9.999c18.814,0,34.12-15.306,34.12-34.12v-72.252
			c4.26,0.31,8.519,0.629,12.773,0.975c11.62,0.943,22.056,8.016,27.234,18.458c1.84,3.71,6.34,5.225,10.048,3.386
			c3.71-1.84,5.226-6.339,3.386-10.049c-7.503-15.128-22.62-25.375-39.452-26.741c-38.074-3.103-76.398-4.742-114.738-4.956v-18.498
			c10.777-1.349,20.755-5.598,28.658-12.299c11.035-9.358,17.179-22.636,17.767-38.399c0.051-1.363,0.076-2.733,0.076-4.073
			c0-29.593-11.774-57.18-33.155-77.678c-11.687-11.206-29.998-11.207-41.689,0c-21.38,20.498-33.155,48.085-33.155,77.678
			c0,1.34,0.025,2.71,0.076,4.073c0.588,15.763,6.732,29.041,17.767,38.398c7.903,6.701,17.881,10.95,28.658,12.299v18.488
			c-39.006,0.166-77.998,1.809-116.732,4.966c-23.549,1.914-42.166,20.356-44.267,43.85c-5.895,65.734-6.694,132.319-2.41,198.052
			c-27.907,1.423-50.173,24.574-50.173,52.829c0,14.12,5.501,27.403,15.492,37.406c5.652,5.652,12.622,10.013,20.155,12.611
			c3.917,1.353,8.184-0.729,9.533-4.643c1.35-3.915-0.728-8.183-4.643-9.533c-5.394-1.861-10.388-4.987-14.437-9.036
			c-7.16-7.169-11.104-16.688-11.104-26.805c0-20.899,17.003-37.902,37.903-37.902h5.264c0.003,0,0.007,0,0.01,0
			c0.005,0,0.009,0,0.014,0h323.793c0.005,0,0.009,0,0.014,0c0.003,0,0.007,0,0.01,0h5.274c10.12,0,19.635,3.942,26.792,11.099
			c7.158,7.158,11.101,16.677,11.101,26.802c0,20.9-16.999,37.902-37.893,37.902H103.79c-4.142,0-7.498,3.357-7.498,7.498
			s3.357,7.498,7.498,7.498h319.372c29.164,0,52.889-23.73,52.889-52.898C476.051,444.907,470.55,431.622,460.558,421.631z
			 M350.216,250.531c0,10.545-8.579,19.124-19.124,19.124c-5.107,0-9.911-1.991-13.526-5.607c-3.609-3.609-5.597-8.41-5.597-13.517
			v-33.905c0-15.465-12.587-28.047-28.057-28.047c-7.492,0-14.534,2.915-19.829,8.209c-5.299,5.3-8.219,12.346-8.219,19.838v18.178
			c0,7.196-5.859,13.051-13.061,13.051c-3.481,0-6.756-1.359-9.231-3.834c-2.463-2.456-3.819-5.73-3.819-9.217v-60.256
			c40.187-0.698,80.432,0.204,120.464,2.715V250.531z M275.034,109.349c-0.309,8.277-4.866,13.313-10.57,15.567v-20.629
			c0-4.141-3.357-7.498-7.498-7.498c-4.142,0-7.498,3.357-7.498,7.498v20.7c-6.938-2.715-10.33-9.192-10.57-15.634
			c-0.022-0.602-0.033-1.207-0.033-1.814c0-13.093,5.211-25.3,14.672-34.371c0.945-0.907,2.187-1.36,3.429-1.36
			s2.485,0.453,3.43,1.36c9.462,9.071,14.672,21.277,14.672,34.37C275.068,108.147,275.056,108.752,275.034,109.349z
			 M218.029,89.597c-0.044-1.178-0.066-2.361-0.066-3.515c0-25.467,10.134-49.209,28.537-66.853c2.886-2.767,6.676-4.15,10.466-4.15
			c3.79,0,7.581,1.383,10.466,4.149c18.403,17.644,28.537,41.386,28.537,66.853c0,1.154-0.022,2.337-0.066,3.515
			c-0.258,6.913-2.181,13.849-5.873,19.803c0.018-0.618,0.035-1.237,0.035-1.86c0-17.219-6.851-33.27-19.29-45.196
			c-7.744-7.423-19.873-7.422-27.615,0c-12.439,11.926-19.29,27.977-19.29,45.196c0,0.622,0.016,1.241,0.034,1.86
			C220.211,103.446,218.287,96.511,218.029,89.597z"/>
		<path d="M367.436,72.236c0,4.141,3.357,7.498,7.498,7.498h33.081c4.142,0,7.498-3.357,7.498-7.498s-3.357-7.498-7.498-7.498
			h-33.081C370.792,64.738,367.436,68.095,367.436,72.236z"/>
		<path d="M369.412,51.652c1.019,0,2.055-0.209,3.046-0.65l22.888-10.191c3.783-1.685,5.484-6.117,3.8-9.9
			c-1.684-3.783-6.118-5.484-9.9-3.8l-22.888,10.191c-3.783,1.685-5.484,6.117-3.8,9.9
			C363.801,49.994,366.541,51.652,369.412,51.652z"/>
		<path d="M366.358,107.17l22.888,10.192c0.991,0.441,2.027,0.65,3.046,0.65c2.87,0,5.611-1.658,6.854-4.45
			c1.684-3.783-0.017-8.215-3.8-9.9L372.458,93.47c-3.781-1.684-8.216,0.017-9.9,3.8
			C360.874,101.053,362.575,105.486,366.358,107.17z"/>
		<path d="M105.918,79.735h33.081c4.142,0,7.498-3.357,7.498-7.498s-3.357-7.498-7.498-7.498h-33.081
			c-4.142,0-7.498,3.357-7.498,7.498S101.776,79.735,105.918,79.735z"/>
		<path d="M118.586,40.811l22.888,10.191c0.991,0.441,2.027,0.65,3.046,0.65c2.87,0,5.611-1.658,6.854-4.45
			c1.684-3.783-0.017-8.215-3.8-9.9l-22.888-10.191c-3.782-1.685-8.216,0.017-9.9,3.8S114.803,39.126,118.586,40.811z"/>
		<path d="M141.474,93.47l-22.888,10.192c-3.783,1.685-5.484,6.117-3.8,9.9c1.244,2.792,3.983,4.45,6.854,4.45
			c1.019,0,2.055-0.209,3.046-0.65l22.888-10.192c3.783-1.685,5.484-6.117,3.8-9.9C149.689,93.487,145.255,91.787,141.474,93.47z"/>
	</g>
</g>
<g>
</g>
<g>
</g>
<g>
</g>
<g>
</g>
<g>
</g>
<g>
</g>
<g>
</g>
<g>
</g>
<g>
</g>
<g>
</g>
<g>
</g>
<g>
</g>
<g>
</g>
<g>
</g>
<g>
</g>
</svg>
