<?xml version="1.0" encoding="iso-8859-1"?>
<!-- Generator: Adobe Illustrator 24.0.0, SVG Export Plug-In . SVG Version: 6.00 Build 0)  -->
<svg version="1.1" id="Capa_1" xmlns="http://www.w3.org/2000/svg" xmlns:xlink="http://www.w3.org/1999/xlink" x="0px" y="0px"
	 viewBox="0 0 512 512" style="enable-background:new 0 0 512 512;" xml:space="preserve">
<g>
	<g>
		<path style="fill:#F4DD45;" d="M448.714,187.09c-11.418-11.418-11.418-29.931,0-41.35c0.407-0.407,0.825-0.795,1.25-1.173
			c-6.477-7.349-13.062-14.592-19.758-21.722c-11.475,9.054-28.164,8.293-38.754-2.297s-11.351-27.279-2.297-38.755
			c-7.13-6.696-14.372-13.281-21.721-19.758c-0.378,0.424-0.766,0.843-1.173,1.25c-11.418,11.418-29.931,11.418-41.35,0
			c-10.513-10.513-11.338-27.035-2.493-38.502c-7.552-5.863-15.203-11.627-22.961-17.284C194.619,97.3,97.3,194.618,7.5,299.456
			c5.967,8.183,12.055,16.245,18.252,24.199c10.798-4.965,23.999-3.002,32.894,5.894c10.245,10.245,11.291,26.196,3.153,37.615
			c6.544,7.43,13.196,14.751,19.964,21.957c0.645-0.796,1.335-1.568,2.075-2.309c11.418-11.418,29.931-11.418,41.35,0
			c11.418,11.418,11.418,29.931,0,41.35c-0.741,0.741-1.512,1.431-2.308,2.075c7.206,6.767,14.527,13.42,21.957,19.964
			c11.419-8.138,27.37-7.091,37.615,3.153c8.896,8.896,10.859,22.096,5.894,32.895c7.954,6.196,16.016,12.285,24.199,18.252
			C317.381,414.699,414.7,317.381,504.5,212.544c-5.657-7.758-11.421-15.409-17.284-22.961
			C475.749,198.428,459.227,197.603,448.714,187.09z"/>
		<path style="fill:#FBF4AF;" d="M267.973,87.438C203.581,143.402,143.404,203.58,87.44,267.972
			c-7.84,9.02-8.209,22.375-0.838,31.781c36.801,46.961,78.683,88.843,125.644,125.644c9.407,7.372,22.761,7.002,31.781-0.838
			c64.392-55.964,124.57-116.142,180.533-180.533c7.84-9.02,8.209-22.375,0.838-31.782
			c-36.801-46.961-78.683-88.843-125.644-125.644C290.348,79.229,276.994,79.599,267.973,87.438z"/>
	</g>
	<g>
		<path d="M510.557,208.117c-5.766-7.895-11.624-15.679-17.412-23.135c-2.536-3.267-7.235-3.864-10.507-1.339
			c-8.608,6.644-20.917,5.845-28.622-1.853c-8.47-8.478-8.47-22.271-0.002-30.746c0.316-0.316,0.642-0.607,0.981-0.915
			c3.039-2.753,3.304-7.436,0.595-10.514c-6.398-7.269-13.098-14.635-19.911-21.896c-2.661-2.837-7.054-3.168-10.112-0.757
			c-8.639,6.811-21.026,6.073-28.813-1.714c-7.788-7.788-8.524-20.174-1.714-28.813c2.41-3.057,2.081-7.45-0.758-10.113
			c-7.29-6.839-14.657-13.538-21.897-19.91c-3.08-2.71-7.765-2.444-10.517,0.598c-0.297,0.328-0.592,0.658-0.909,0.976
			c-8.479,8.469-22.271,8.47-30.743,0.005c-7.702-7.71-8.501-20.018-1.857-28.628c2.525-3.274,1.925-7.976-1.344-10.509
			c-7.624-5.91-15.407-11.767-23.131-17.409c-2.811-2.051-6.662-1.902-9.304,0.362c-12.978,11.12-26.018,22.51-38.758,33.853
			c-3.094,2.754-3.369,7.495-0.614,10.589c2.753,3.093,7.493,3.37,10.589,0.614c11.192-9.964,22.617-19.966,34.026-29.787
			c4.237,3.135,8.479,6.325,12.689,9.543c-6.664,13.794-4.107,30.764,7.097,41.978c13.033,13.022,33.501,14.195,47.875,3.519
			c3.982,3.56,7.99,7.206,11.987,10.908c-7.215,13.951-4.806,31.351,6.675,42.831c11.481,11.482,28.881,13.89,42.832,6.675
			c3.693,3.989,7.339,7.996,10.907,11.987c-10.676,14.373-9.503,34.843,3.523,47.88c11.21,11.199,28.181,13.757,41.975,7.091
			c3.181,4.158,6.37,8.401,9.543,12.691c-86.799,100.875-181.873,195.95-282.749,282.749c-4.926-3.645-9.928-7.419-14.947-11.281
			c3.378-12.529-0.11-26.231-9.477-35.598c-11.275-11.276-28.143-13.874-42.026-7.079c-4.037-3.597-8.096-7.278-12.14-11.011
			c4.973-6.406,7.667-14.232,7.667-22.472c0-9.813-3.821-19.039-10.762-25.979c-13.207-13.207-34.051-14.235-48.448-3.091
			c-3.733-4.046-7.415-8.105-11.014-12.144c6.791-13.886,4.193-30.752-7.078-42.025c-9.364-9.364-23.067-12.853-35.6-9.483
			c-3.848-4.997-7.621-9.995-11.28-14.941C87.582,217.871,163.75,139.529,243.549,66.886c3.063-2.789,3.286-7.532,0.497-10.595
			c-2.787-3.064-7.531-3.286-10.595-0.497C151.732,130.185,73.795,210.525,1.804,294.581c-2.262,2.642-2.412,6.491-0.362,9.3
			c5.854,8.021,12.041,16.222,18.391,24.376c2.139,2.746,5.886,3.66,9.048,2.208c8.232-3.781,18.063-2.016,24.467,4.388
			c7.534,7.535,8.521,19.291,2.346,27.954c-2.022,2.837-1.824,6.694,0.478,9.309c6.462,7.34,13.23,14.787,20.118,22.134
			c1.481,1.579,3.544,2.44,5.737,2.365c2.164-0.076,4.189-1.084,5.555-2.765c0.509-0.626,1.02-1.194,1.563-1.737
			c8.477-8.476,22.271-8.475,30.743,0c4.107,4.107,6.368,9.566,6.368,15.372c0,5.806-2.261,11.266-6.366,15.37
			c-0.536,0.537-1.122,1.063-1.74,1.566c-1.68,1.366-2.688,3.391-2.764,5.555s0.786,4.255,2.365,5.735
			c7.347,6.888,14.794,13.657,22.135,20.118c2.615,2.303,6.475,2.5,9.311,0.476c8.661-6.178,20.415-5.188,27.951,2.348
			c6.405,6.405,8.165,16.236,4.38,24.461c-1.456,3.166-0.541,6.917,2.209,9.056c8.213,6.386,16.416,12.573,24.383,18.388
			c1.321,0.964,2.873,1.442,4.421,1.442c1.743,0,3.481-0.606,4.88-1.804c104.643-89.631,203.146-188.135,292.777-292.777
			C512.459,214.777,512.608,210.926,510.557,208.117z"/>
		<path d="M287.537,395.71c50.038-46.019,98.043-95.396,142.683-146.76c10.198-11.732,10.654-29.115,1.084-41.336
			c-37.007-47.223-79.712-89.925-126.926-126.917c-12.212-9.572-29.592-9.12-41.328,1.082
			C198.697,137.707,137.709,198.696,81.78,263.05c-10.201,11.735-10.656,29.116-1.084,41.326
			c37.021,47.241,79.726,89.945,126.926,126.926c5.869,4.601,12.931,6.886,19.987,6.885c7.626,0,15.245-2.669,21.342-7.967
			c5.439-4.729,10.912-9.543,16.266-14.308c3.094-2.754,3.37-7.495,0.616-10.588c-2.755-3.094-7.495-3.371-10.589-0.616
			c-5.31,4.726-10.738,9.501-16.134,14.192c-6.319,5.49-15.668,5.745-22.234,0.597c-46.252-36.237-88.098-78.082-124.374-124.374
			c-5.146-6.563-4.894-15.914,0.6-22.232C148.573,209.061,209.062,148.572,272.89,93.1c6.319-5.491,15.669-5.744,22.234-0.597
			c46.267,36.249,88.111,78.09,124.372,124.36c5.146,6.572,4.896,15.927-0.598,22.246c-44.274,50.944-91.888,99.918-141.516,145.56
			c-3.049,2.804-3.247,7.549-0.443,10.598C279.742,398.315,284.487,398.515,287.537,395.71z"/>
		<path d="M223.234,207.587c-2.929,2.929-2.929,7.678,0,10.606l72.313,72.313c1.465,1.464,3.385,2.197,5.304,2.197
			s3.839-0.732,5.304-2.197c2.929-2.929,2.929-7.678,0-10.606l-72.313-72.313C230.912,204.658,226.164,204.658,223.234,207.587z"/>
		<path d="M144.853,300.054l96.001,46.527c1.344,0.639,2.78,0.95,4.206,0.95c2.571,0,5.105-1.009,6.989-2.919
			c2.93-2.97,3.659-7.479,1.793-11.268l-47.463-94.684c-1.855-3.704-6.361-5.199-10.066-3.344
			c-3.702,1.856-5.199,6.363-3.344,10.065l40.605,81.004l-82.179-39.829c-3.734-1.809-8.215-0.249-10.021,3.478
			C139.568,293.761,141.126,298.247,144.853,300.054z"/>
		<path d="M327.114,155.128L327.114,155.128c-14.177-14.177-37.424-13.997-51.82,0.4l-20.135,20.135
			c-1.409,1.409-2.199,3.322-2.196,5.315c0.003,1.994,0.8,3.903,2.214,5.309c0,0,72.295,72.296,72.295,72.296
			c1.465,1.464,3.385,2.197,5.304,2.197s3.839-0.732,5.304-2.197c2.929-2.929,2.929-7.678,0-10.606l-26.137-26.136
			c4.678-4.73,11.377-11.497,14.772-14.892C341.111,192.551,341.291,169.305,327.114,155.128z M316.108,196.341
			c-3.376,3.375-9.981,10.047-14.663,14.781c-4.857-4.804-25.323-25.165-30.359-30.172l14.815-14.815
			c8.403-8.403,22.419-8.585,30.605-0.4C324.694,173.921,324.512,187.937,316.108,196.341z"/>
		<path d="M278.12,109.36L109.36,278.119c-2.929,2.929-2.929,7.678,0,10.606c1.465,1.464,3.384,2.197,5.304,2.197
			c1.919,0,3.839-0.732,5.304-2.197l168.76-168.759c2.929-2.929,2.929-7.678,0-10.606C285.798,106.431,281.05,106.431,278.12,109.36
			z"/>
		<path d="M230.318,406.577c1.919,0,3.839-0.732,5.304-2.197l168.76-168.76c2.929-2.929,2.929-7.678,0-10.606
			c-2.93-2.929-7.678-2.929-10.607,0l-168.76,168.76c-2.929,2.929-2.929,7.678,0,10.606
			C226.479,405.845,228.399,406.577,230.318,406.577z"/>
	</g>
</g>
<g>
</g>
<g>
</g>
<g>
</g>
<g>
</g>
<g>
</g>
<g>
</g>
<g>
</g>
<g>
</g>
<g>
</g>
<g>
</g>
<g>
</g>
<g>
</g>
<g>
</g>
<g>
</g>
<g>
</g>
</svg>
