<?xml version="1.0" encoding="iso-8859-1"?>
<!-- Generator: Adobe Illustrator 24.0.0, SVG Export Plug-In . SVG Version: 6.00 Build 0)  -->
<svg version="1.1" id="Capa_1" xmlns="http://www.w3.org/2000/svg" xmlns:xlink="http://www.w3.org/1999/xlink" x="0px" y="0px"
	 viewBox="0 0 512 512" style="enable-background:new 0 0 512 512;" xml:space="preserve">
<g>
	<g>
		<path style="fill:#E7ECF1;" d="M383.16,253.22l-74.13,53.85c-16.26,11.82-25.89,30.71-25.89,50.81v104.71l-27.16,20.96
			l-27.16-20.96V357.88c0-20.1-9.62-38.99-25.89-50.81l-74.13-53.85c-38.93-28.29-54.14-79.11-37.15-124.13l34.47-91.38l51.01-6.28
			l59.19-7.29l149.52,13.57l7.93,21.02l26.55,70.36C437.3,174.11,422.09,224.93,383.16,253.22z"/>
		<polygon style="fill:#C6D0DA;" points="393.77,58.73 177.13,58.73 177.13,31.43 236.32,24.14 385.84,37.71 		"/>
		<path style="fill:#C6D0DA;" d="M245.59,357.88v104.71h-16.77V357.88c0-20.1-9.62-38.99-25.89-50.81l-74.13-53.85
			c-38.93-28.29-54.14-79.11-37.15-124.13l34.47-91.38h80.2l-13.18,91.38c-6.5,45.02-0.68,95.84,14.21,124.13l28.34,53.85
			C241.91,318.89,245.59,337.78,245.59,357.88z"/>
		<path style="fill:#C63D4F;" d="M222.847,109.646c30.256,15.289,124.698-42.452,169.833,28.834l-42.292,42.292H208.391
			L222.847,109.646z"/>
		<path style="fill:#DA4A54;" d="M365.23,230.19l-62.86,45.67c-13.57,9.86-29.61,15.07-46.39,15.07c-11.32,0-22.32-2.38-32.45-6.96
			c-4.87-2.2-9.54-4.91-13.94-8.11l-62.85-45.67c-28.68-20.83-39.97-58.55-27.46-91.71l1.75-4.63c7.5-19.9,25.57-34.09,46.74-36.12
			c10.44-1,20.16,0.05,29.54,2.43c52.95,13.43,95.04,69.31,195.37,38.32C405.19,171.64,393.9,209.36,365.23,230.19z"/>
		<path style="fill:#C63D4F;" d="M223.53,283.97c-4.87-2.2-9.54-4.91-13.94-8.11l-62.85-45.67c-28.68-20.83-39.97-58.55-27.46-91.71
			l1.75-4.63c7.5-19.9,25.57-34.09,46.74-36.12c10.44-1,20.16,0.05,29.54,2.43l-4.17,28.93c-6.5,45.02-0.68,95.84,14.21,124.13
			L223.53,283.97z"/>
		<path style="fill:#E7ECF1;" d="M380.841,38.543H131.122c-8.572,0-15.521-6.949-15.521-15.521v0
			c0-8.572,6.949-15.521,15.521-15.521h249.719c8.572,0,15.521,6.949,15.521,15.521v0C396.362,31.593,389.413,38.543,380.841,38.543
			z"/>
		<path style="fill:#C6D0DA;" d="M204.281,38.541h-73.16c-8.57,0-15.52-6.95-15.52-15.52c0-4.28,1.74-8.16,4.55-10.97
			c2.81-2.81,6.69-4.55,10.97-4.55h73.16c-4.29,0-8.17,1.74-10.98,4.55c-2.8,2.81-4.54,6.69-4.54,10.97
			C188.761,31.591,195.701,38.541,204.281,38.541z"/>
		<path style="fill:#E7ECF1;" d="M381.121,504.5H130.842v0c0-23.145,18.763-41.907,41.907-41.907h166.464
			C362.358,462.592,381.121,481.355,381.121,504.5L381.121,504.5z"/>
		<path style="fill:#C6D0DA;" d="M239.252,462.59c-11.57,0-22.05,4.69-29.63,12.28c-7.58,7.58-12.27,18.06-12.27,29.63h-66.51
			c0-11.57,4.69-22.05,12.27-29.63c7.59-7.59,18.07-12.28,29.64-12.28H239.252z"/>
		<circle style="fill:#C63D4F;" cx="291.134" cy="227.327" r="13.967"/>
		<circle style="fill:#C63D4F;" cx="227.785" cy="180.937" r="17.458"/>
		<path style="fill:#E6E6E6;" d="M173.51,274.629l28.258-9.711c8.487-2.916,8.487-14.919,0-17.836l-28.258-9.711
			c-2.749-0.945-4.909-3.104-5.853-5.853l-9.711-28.258c-2.916-8.487-14.919-8.487-17.836,0l-9.711,28.258
			c-0.945,2.749-3.104,4.909-5.853,5.853l-28.258,9.711c-8.487,2.916-8.487,14.919,0,17.836l28.258,9.711
			c2.749,0.945,4.909,3.104,5.853,5.853l9.711,28.258c2.916,8.487,14.919,8.487,17.836,0l9.711-28.258
			C168.602,277.733,170.761,275.573,173.51,274.629z"/>
	</g>
	<g>
		<path d="M378.754,247.152l-74.133,53.852c-18.146,13.191-28.979,34.453-28.979,56.876v19.05c0,4.142,3.358,7.5,7.5,7.5
			s7.5-3.358,7.5-7.5v-19.05c0-17.639,8.523-34.365,22.797-44.742l74.132-53.851c41.532-30.181,57.885-84.809,39.768-132.845
			l-32.218-85.384c5.32-4.221,8.741-10.735,8.741-18.037C403.862,10.327,393.535,0,380.841,0H131.123
			c-12.694,0-23.021,10.327-23.021,23.021c0,7.302,3.421,13.816,8.741,18.036l-32.209,85.385
			c-14.12,37.422-7.35,79.746,16.988,110.877l-7.769,2.67c-6.942,2.385-11.428,8.67-11.428,16.011s4.486,13.625,11.428,16.011
			l28.257,9.71c0.567,0.195,1.004,0.632,1.199,1.198l9.711,28.258c2.386,6.942,8.67,11.428,16.011,11.428
			s13.625-4.486,16.011-11.428l6.148-17.891l27.336,19.852c14.275,10.371,22.798,27.097,22.798,44.742v97.213H172.75
			c-27.244,0-49.408,22.164-49.408,49.407c0,4.142,3.358,7.5,7.5,7.5h250.279c4.142,0,7.5-3.358,7.5-7.5
			c0-27.243-22.164-49.407-49.407-49.407h-48.572V406.93c0-4.142-3.358-7.5-7.5-7.5s-7.5,3.358-7.5,7.5v48.16h-39.32v-97.21
			c0-22.431-10.834-43.694-28.982-56.878l-28.104-20.41l16.368-5.625l9.579,6.961c14.859,10.796,32.425,16.502,50.799,16.502
			s35.94-5.706,50.798-16.502l62.86-45.67c31.399-22.813,43.76-64.109,30.059-100.425c-0.183-0.486-0.415-0.941-0.682-1.365l0,0
			c-32.568-51.439-88.395-41.323-129.157-33.936c-18.301,3.316-35.588,6.448-43.594,2.436
			c-18.459-8.636-37.206-14.813-59.209-12.703c-3.787,0.363-7.532,1.073-11.13,2.109c-3.98,1.146-6.278,5.302-5.131,9.283
			s5.301,6.278,9.283,5.131c2.712-0.781,5.542-1.316,8.411-1.591c25.405-2.438,46.33,8.402,70.561,20.955
			c26.858,13.913,56.221,29.127,96.863,29.126c15.491,0,32.629-2.213,51.882-7.549c7.625,28.291-2.908,58.912-26.97,76.395
			l-62.86,45.67c-12.279,8.922-26.796,13.637-41.981,13.637s-29.703-4.716-41.981-13.637l-2.957-2.149
			c2.901-3.051,4.591-7.147,4.591-11.644c0-7.341-4.486-13.625-11.428-16.011l-28.258-9.711c-0.566-0.195-1.003-0.631-1.198-1.198
			l-9.71-28.258c-2.385-6.942-8.67-11.428-16.01-11.428c0,0,0,0,0,0c-7.34,0-13.625,4.486-16.011,11.428l-0.899,2.617
			c-11.352-18.593-13.694-41.447-5.821-62.308l1.751-4.634c2.294-6.08,5.69-11.543,10.093-16.237
			c2.834-3.021,2.683-7.767-0.338-10.601c-3.022-2.834-7.767-2.683-10.602,0.339c-5.757,6.137-10.194,13.271-13.186,21.199
			l-1.751,4.634c-10.943,28.996-5.589,61.165,13.862,85.043l-2.82,8.205c-0.195,0.567-0.631,1.003-1.198,1.198l-5.337,1.834
			c-23.844-27.342-30.996-66.208-18.104-100.376l32.327-85.698c0.043,0,0.085,0.003,0.128,0.003h249.719
			c0.043,0,0.085-0.003,0.127-0.003l32.336,85.698C429.044,173.47,414.837,220.931,378.754,247.152z M372.798,497H139.165
			c3.432-15.378,17.188-26.907,33.584-26.907h166.464C355.611,470.093,369.366,481.622,372.798,497z M256.192,118.096
			c5.21-0.793,10.671-1.776,16.343-2.804c19.623-3.556,41.865-7.586,62.351-5.069c19.078,2.344,34.018,10.233,45.425,23.982
			C324.258,148.793,288.814,134.599,256.192,118.096z M126.983,244.464c4.971-1.708,8.801-5.538,10.509-10.509l4.166-12.123
			c0.019-0.052,0.036-0.104,0.054-0.157l5.491-15.978c0.297-0.865,0.911-1.303,1.825-1.303c0.914,0,1.527,0.438,1.825,1.303
			l9.711,28.258c1.708,4.97,5.539,8.801,10.509,10.508l28.258,9.711c0.864,0.297,1.303,0.911,1.303,1.825s-0.438,1.528-1.303,1.825
			l-28.258,9.711c-4.97,1.708-8.801,5.538-10.509,10.509l-9.71,28.258c-0.297,0.865-0.911,1.303-1.825,1.303
			s-1.528-0.438-1.825-1.303l-9.711-28.258c-1.708-4.97-5.539-8.8-10.509-10.509l-28.258-9.71c-0.864-0.297-1.303-0.911-1.303-1.825
			s0.438-1.528,1.303-1.825L126.983,244.464z M131.123,15h249.719c4.423,0,8.021,3.598,8.021,8.021s-3.598,8.021-8.021,8.021
			H131.123c-4.423,0-8.021-3.598-8.021-8.021S126.7,15,131.123,15z"/>
		<path d="M312.601,227.327c0-11.837-9.63-21.467-21.467-21.467s-21.467,9.63-21.467,21.467c0,11.837,9.63,21.467,21.467,21.467
			S312.601,239.164,312.601,227.327z M284.667,227.327c0-3.566,2.901-6.467,6.467-6.467s6.467,2.901,6.467,6.467
			c0,3.566-2.901,6.467-6.467,6.467S284.667,230.893,284.667,227.327z"/>
		<path d="M227.785,205.896c13.762,0,24.958-11.196,24.958-24.958s-11.196-24.958-24.958-24.958
			c-13.762,0-24.958,11.196-24.958,24.958S214.023,205.896,227.785,205.896z M227.785,170.979c5.491,0,9.958,4.467,9.958,9.958
			s-4.467,9.958-9.958,9.958c-5.491,0-9.958-4.467-9.958-9.958S222.294,170.979,227.785,170.979z"/>
	</g>
</g>
<g>
</g>
<g>
</g>
<g>
</g>
<g>
</g>
<g>
</g>
<g>
</g>
<g>
</g>
<g>
</g>
<g>
</g>
<g>
</g>
<g>
</g>
<g>
</g>
<g>
</g>
<g>
</g>
<g>
</g>
</svg>
