<?xml version="1.0" encoding="iso-8859-1"?>
<!-- Generator: Adobe Illustrator 24.0.0, SVG Export Plug-In . SVG Version: 6.00 Build 0)  -->
<svg version="1.1" id="Capa_1" xmlns="http://www.w3.org/2000/svg" xmlns:xlink="http://www.w3.org/1999/xlink" x="0px" y="0px"
	 viewBox="0 0 512 512" style="enable-background:new 0 0 512 512;" xml:space="preserve">
<g>
	<g>
		<path style="fill:#E7ECF1;" d="M22.851,303.071c0.601,31.305,13.21,60.647,35.525,82.636
			c13.157,12.967,28.825,22.526,45.897,28.203c11.87,3.957,24.404,6.035,37.245,6.088c1.013,0,2.036,0.011,3.06,0.011
			c33.215,0,66.851-2.195,100.045-6.521c8.852-1.15,15.732-8.293,16.565-17.188c7.227-77.835,7.227-156.767,0-234.602
			c-0.834-8.895-7.713-16.038-16.565-17.188c-49.379-6.436-99.275-8.082-148.906-4.938c-17.072,1.076-34.101,2.722-51.077,4.938
			c-8.863,1.15-15.742,8.293-16.565,17.188C23.717,208.607,21.965,256.171,22.851,303.071z M64.813,180.594
			c9.58-1.045,19.171-1.899,28.783-2.564c43.586-3.028,87.394-2.174,130.843,2.564c5.244,65.374,5.244,131.434,0,196.808
			c-27.549,3.007-55.319,4.474-82.762,4.358c-17.662-0.074-34.491-5.793-48.366-16.28c-2.828-2.142-5.539-4.474-8.103-7.006
			c-15.151-14.94-23.719-34.871-24.13-56.131C60.318,261.974,61.563,221.089,64.813,180.594z"/>
		<path style="fill:#C6D0DA;" d="M93.311,365.48c0.063,1.54,0.127,3.081,0.2,4.621c0.707,15.605,4.484,30.408,10.762,43.808
			c11.87,3.957,24.404,6.035,37.245,6.088c1.013,0,2.036,0.011,3.06,0.011c33.215,0,66.851-2.195,100.045-6.521
			c8.852-1.15,15.732-8.293,16.565-17.188c7.227-77.835,7.227-156.767,0-234.602c-0.834-8.895-7.713-16.038-16.565-17.188
			c-49.379-6.436-99.275-8.082-148.906-4.938c-0.823,12.819-1.53,25.639-2.121,38.458c43.586-3.028,87.394-2.174,130.843,2.564
			c5.244,65.374,5.244,131.434,0,196.808c-27.549,3.007-55.319,4.474-82.762,4.358C124.015,381.686,107.186,375.968,93.311,365.48z"
			/>
		<path style="fill:#E7ECF1;" d="M126.41,370.101c0.96,21.26,7.639,41.043,18.538,57.798c19.467,29.912,52.396,50.212,90.327,52.101
			c42.225,2.11,84.44,2.11,126.665,0c37.931-1.889,70.871-22.189,90.338-52.101c10.899-16.755,17.578-36.538,18.538-57.798
			c4.368-96.943,2.047-193.896-6.953-290.849c-110.163-14.36-220.337-14.36-330.511,0
			C124.352,176.205,122.031,273.158,126.41,370.101z"/>
		<path style="fill:#C6D0DA;" d="M270.709,480.005c9.296,1.055,18.601,1.583,27.897,1.583c-21.113,0-42.215-0.528-63.327-1.583
			c-59.181-2.954-106.206-50.698-108.876-109.899c-4.368-96.943-2.057-193.896,6.953-290.849c30.798-4.009,61.597-6.9,92.395-8.673
			c-3.904,96.457-4.906,203.202-2.986,299.522C223.937,429.307,244.648,477.051,270.709,480.005z"/>
		<path style="fill:#F4DD45;" d="M439.184,321.398c-0.928,20.817-9.506,40.421-24.12,55.213
			c-14.613,14.771-34.038,23.465-54.707,24.5c-20.49,1.023-41.265,1.54-61.755,1.54c-20.479,0-41.265-0.517-61.745-1.54
			c-3.988-0.2-7.924-0.686-11.796-1.445c-16.185-3.165-31.125-11.131-42.911-23.054c-14.613-14.793-23.191-34.396-24.13-55.213
			c-3.123-69.183-2.743-139.073,1.097-208.636h278.979C441.938,182.325,442.307,252.225,439.184,321.398z"/>
		<path style="fill:#EAB14D;" d="M225.062,399.665c-16.185-3.165-31.125-11.131-42.911-23.054
			c-14.613-14.793-23.191-34.396-24.13-55.213c-3.123-69.183-2.743-139.073,1.097-208.636h65.131
			c-2.638,84.756-3.134,174.872-1.488,257.339C222.962,380.357,223.753,390.275,225.062,399.665z"/>
		<path style="fill:#C6D0DA;" d="M452.267,427.9c-19.467,29.912-52.396,50.212-90.327,52.101c-42.225,2.11-84.44,2.11-126.665,0
			c-37.931-1.889-70.871-22.189-90.338-52.101H452.267z"/>
		<path style="fill:#E7ECF1;" d="M459.653,504.5H137.559c-15.115,0-27.367-12.253-27.367-27.367v0
			c0-15.115,12.253-27.367,27.367-27.367h322.094c15.115,0,27.367,12.253,27.367,27.367v0
			C487.021,492.247,474.768,504.5,459.653,504.5z"/>
		<path style="fill:#C6D0DA;" d="M483.928,489.76c-1.287,2.49-2.954,4.759-4.927,6.721c-4.949,4.959-11.786,8.019-19.351,8.019
			H137.559c-15.12,0-27.369-12.25-27.369-27.369c0-7.555,3.06-14.392,8.019-19.351c4.948-4.959,11.796-8.019,19.351-8.019h49.758
			c-1.973,3.777-3.091,8.082-3.091,12.64c0,15.109,12.25,27.359,27.359,27.359H483.928z"/>
		<path style="fill:#F6F1F1;" d="M143.713,7.5H453.5c19.814,0,35.876,16.062,35.876,35.876v0c0,19.814-16.062,35.876-35.876,35.876
			h-21.276c-17.414,0-31.53,14.117-31.53,31.53v117.06c0,17.052-13.824,30.876-30.876,30.876h0
			c-17.052,0-30.876-13.824-30.876-30.876V110.783c0-17.414-14.117-31.53-31.53-31.53H143.713
			c-19.814,0-35.876-16.062-35.876-35.876v0C107.837,23.562,123.899,7.5,143.713,7.5z"/>
		<path style="fill:#DAD0CB;" d="M237.741,79.25H143.71c-19.815,0-35.873-16.059-35.873-35.873c0-9.907,4.009-18.876,10.509-25.365
			c6.489-6.499,15.457-10.509,25.365-10.509h94.031c-9.907,0-18.876,4.009-25.365,10.509c-6.499,6.489-10.509,15.457-10.509,25.365
			C201.867,63.191,217.926,79.25,237.741,79.25z"/>
		<circle style="fill:#FBF4AF;" cx="273.709" cy="321.524" r="24.21"/>
		<circle style="fill:#FBF4AF;" cx="217.794" cy="203.282" r="19.473"/>
		<circle style="fill:#FBF4AF;" cx="387.389" cy="305.735" r="15.789"/>
	</g>
	<g>
		<path d="M459.653,442.265h-8.547c16.457-20.289,25.988-45.234,27.188-71.826c4.31-95.38,2.083-192.14-6.592-287.674
			c4.577-2.119,8.793-5.045,12.459-8.717c8.197-8.184,12.711-19.075,12.711-30.667c0-23.92-19.456-43.38-43.37-43.38h-253.58
			c-4.142,0-7.5,3.358-7.5,7.5s3.358,7.5,7.5,7.5h253.58c15.644,0,28.37,12.731,28.37,28.38c0,7.581-2.951,14.702-8.318,20.061
			c-5.35,5.358-12.471,8.309-20.052,8.309h-21.28c-21.521,0-39.03,17.509-39.03,39.03v117.06c0,12.892-10.484,23.38-23.37,23.38
			c-6.243,0-12.118-2.432-16.532-6.839c-4.416-4.424-6.848-10.298-6.848-16.541V110.78c0-21.521-17.509-39.03-39.03-39.03h-163.7
			c-15.649,0-28.38-12.727-28.38-28.37c0-7.579,2.952-14.706,8.309-20.063c5.372-5.364,12.5-8.317,20.071-8.317h26.21
			c4.142,0,7.5-3.358,7.5-7.5s-3.358-7.5-7.5-7.5h-26.21c-11.573,0-22.465,4.511-30.673,12.707
			c-8.194,8.194-12.707,19.087-12.707,30.673c0,17.419,10.33,32.463,25.183,39.355c-1.455,16.017-2.733,32.068-3.824,48.143
			c-26.01,0.76-52.22,2.83-78.016,6.194c-12.427,1.612-21.913,11.454-23.068,23.932c-4.378,47.135-6.146,94.981-5.253,142.211
			c0.639,33.278,14.049,64.471,37.758,87.832c22.293,21.983,51.482,34.762,82.607,36.28c3.071,5.209,6.54,10.2,10.385,14.938h-8.543
			c-19.226,0-34.868,15.641-34.868,34.867S118.333,512,137.559,512h322.094c19.226,0,34.867-15.641,34.867-34.867
			S478.879,442.265,459.653,442.265z M118.91,370.438c0.002,0.039,0.005,0.079,0.007,0.118
			c-10.618-3.502-20.318-9.416-28.442-17.423c-13.748-13.556-21.524-31.645-21.898-50.932c-0.717-38.11,0.37-76.698,3.23-114.798
			c15.559-1.56,31.29-2.623,46.938-3.181C116.085,246.392,116.126,308.699,118.91,370.438z M63.641,380.364
			c-20.904-20.598-32.727-48.099-33.291-77.435c-0.882-46.672,0.865-93.956,5.192-140.54c0.504-5.444,4.641-9.738,10.067-10.442
			c24.843-3.24,50.073-5.259,75.122-6.038c-0.471,7.756-0.915,15.516-1.302,23.28c-18.488,0.629-37.1,1.952-55.429,3.949
			c-3.579,0.39-6.375,3.268-6.664,6.856c-3.259,40.603-4.523,81.814-3.758,122.493c0.45,23.227,9.812,45.006,26.364,61.328
			c11.415,11.25,25.423,19.074,40.77,22.85c1.528,8.602,3.944,16.953,7.21,24.939C103.715,408.566,81.241,397.719,63.641,380.364z
			 M133.894,369.762c-4.233-93.904-2.089-189.132,6.337-283.164c1.15,0.092,2.308,0.152,3.481,0.152h163.7
			c11.35,0,20.881,7.913,23.383,18.51H159.122c-3.981,0-7.269,3.111-7.489,7.087c-3.852,69.769-4.223,140.218-1.104,209.392
			c1.023,22.659,10.359,44.019,26.288,60.144c15.92,16.105,37.112,25.594,59.671,26.718c20.643,1.028,41.541,1.549,62.113,1.549
			c20.576,0,41.48-0.521,62.133-1.549c11.096-0.553,21.875-3.118,32.038-7.625c3.786-1.679,5.495-6.11,3.815-9.896
			c-1.679-3.787-6.111-5.495-9.896-3.816c-8.471,3.757-17.455,5.895-26.703,6.355c-20.405,1.016-41.059,1.531-61.387,1.531
			c-20.325,0-40.972-0.515-61.367-1.531c-18.804-0.937-36.472-8.85-49.748-22.28c-13.314-13.478-21.118-31.334-21.974-50.277
			c-2.991-66.331-2.749-133.853,0.717-200.802h165.21v107.58c0,10.245,3.989,19.883,11.241,27.148
			c7.256,7.243,16.894,11.232,27.139,11.232c21.157,0,38.37-17.217,38.37-38.38V120.26h22.801
			c3.464,66.929,3.7,134.449,0.697,200.805c-0.847,18.949-8.646,36.803-21.988,50.299c-0.251,0.251-0.502,0.502-0.754,0.745
			c-2.977,2.88-3.056,7.628-0.175,10.605c1.471,1.521,3.43,2.285,5.391,2.285c1.877,0,3.758-0.701,5.214-2.11
			c0.308-0.298,0.615-0.604,0.923-0.912c0.011-0.011,0.084-0.084,0.096-0.096c15.933-16.118,25.266-37.479,26.278-60.144
			c3.131-69.195,2.767-139.645-1.083-209.392c-0.22-3.976-3.507-7.087-7.489-7.087h-29.263c2.502-10.597,12.032-18.51,23.383-18.51
			h21.28c1.169,0,2.328-0.058,3.481-0.149c8.427,94.055,10.568,189.282,6.327,283.161c-1.249,27.664-12.759,53.296-32.486,72.503
			H166.389C146.656,423.062,135.143,397.43,133.894,369.762z M459.653,497H137.559c-10.955,0-19.868-8.913-19.868-19.867
			s8.913-19.867,19.868-19.867h322.094c10.955,0,19.867,8.913,19.867,19.867S470.608,497,459.653,497z"/>
		<path d="M273.709,289.814c-17.485,0-31.71,14.225-31.71,31.709c0,17.485,14.225,31.71,31.71,31.71s31.709-14.225,31.709-31.71
			C305.419,304.039,291.194,289.814,273.709,289.814z M273.709,338.233c-9.214,0-16.71-7.496-16.71-16.71
			c0-9.214,7.496-16.709,16.71-16.709s16.709,7.496,16.709,16.709C290.419,330.738,282.923,338.233,273.709,338.233z"/>
		<path d="M217.794,176.309c-14.873,0-26.973,12.1-26.973,26.973c0,14.873,12.1,26.973,26.973,26.973
			c14.873,0,26.973-12.1,26.973-26.973C244.767,188.409,232.667,176.309,217.794,176.309z M217.794,215.255
			c-6.602,0-11.973-5.371-11.973-11.973c0-6.602,5.371-11.973,11.973-11.973c6.602,0,11.973,5.371,11.973,11.973
			C229.767,209.884,224.396,215.255,217.794,215.255z"/>
		<path d="M387.39,282.446c-12.842,0-23.289,10.447-23.289,23.289s10.447,23.289,23.289,23.289
			c12.841,0,23.289-10.447,23.289-23.289S400.231,282.446,387.39,282.446z M387.39,314.024c-4.571,0-8.289-3.718-8.289-8.289
			s3.718-8.289,8.289-8.289c4.57,0,8.289,3.718,8.289,8.289S391.96,314.024,387.39,314.024z"/>
	</g>
</g>
<g>
</g>
<g>
</g>
<g>
</g>
<g>
</g>
<g>
</g>
<g>
</g>
<g>
</g>
<g>
</g>
<g>
</g>
<g>
</g>
<g>
</g>
<g>
</g>
<g>
</g>
<g>
</g>
<g>
</g>
</svg>
