<?xml version="1.0" encoding="iso-8859-1"?>
<!-- Generator: Adobe Illustrator 24.0.0, SVG Export Plug-In . SVG Version: 6.00 Build 0)  -->
<svg version="1.1" id="Capa_1" xmlns="http://www.w3.org/2000/svg" xmlns:xlink="http://www.w3.org/1999/xlink" x="0px" y="0px"
	 viewBox="0 0 511.965 511.965" style="enable-background:new 0 0 511.965 511.965;" xml:space="preserve">
<g>
	<g>
		<g>
			<path style="fill:#90D8F9;" d="M224.59,128.903l-84.515,1.137l-83.275,1.116C37.476,91.983,88.491,79.603,88.491,79.603
				s-32.529-41.695,0-65.978c21.658-16.171,49.837,1.023,79.938,35.774C186.781,70.572,205.846,98.265,224.59,128.903z"/>
			<path style="fill:#90D8F9;" d="M455.166,131.156l-70.896-0.951l-96.895-1.302c24.738-40.413,50.023-75.722,73.48-97.68l0.01-0.01
				c23.498-21.989,45.166-30.607,62.609-17.587c32.529,24.283,0,65.978,0,65.978S474.489,91.983,455.166,131.156z"/>
		</g>
		<path style="fill:#6BBEF6;" d="M384.269,130.205l-96.895-1.302c24.738-40.413,50.023-75.722,73.48-97.68
			C343.743,48.356,341.531,102.089,384.269,130.205z"/>
		<path style="fill:#6BBEF6;" d="M140.075,130.04l-83.275,1.116C37.476,91.983,88.491,79.603,88.491,79.603s-32.529-41.695,0-65.978
			c21.658-16.171,49.837,1.023,79.938,35.774C155.109,35.109,100.519,63.391,140.075,130.04z"/>
		<path style="fill:#F4DD45;" d="M455.033,476.673c-1.362,11.217-10.421,19.951-21.685,20.839
			c-39.302,3.097-78.61,5.167-117.918,6.198c-39.628,1.054-79.256,1.054-118.894,0c-39.3-1.031-78.608-3.101-117.917-6.198
			c-11.265-0.888-20.323-9.621-21.686-20.839c-8.723-71.819-10.575-143.645-5.547-215.463c1.798-25.771,4.484-51.532,8.049-77.303
			c45.704-3.989,91.408-6.582,137.101-7.791c39.638-1.054,79.266-1.054,118.894,0c45.704,1.209,91.408,3.803,137.101,7.791
			c3.565,25.771,6.252,51.532,8.05,77.303C465.608,333.028,463.756,404.854,455.033,476.673z"/>
		<path style="fill:#EAB14D;" d="M90.527,255.527c-4.288,81.105-2.397,162.201,5.652,243.296
			c-5.847-0.415-11.697-0.853-17.547-1.313c-11.271-0.887-20.337-9.618-21.7-20.841c-8.723-71.817-10.574-143.642-5.547-215.458
			c1.798-25.771,4.485-51.532,8.05-77.303c12.255-1.064,24.5-2.036,36.755-2.904C93.709,205.844,91.829,230.686,90.527,255.527z"/>
		<path style="fill:#EAB14D;" d="M460.58,261.21c-48.38,1.147-96.771,1.881-145.151,2.201c-39.628,0.279-79.266,0.279-118.894,0
			c-48.38-0.32-96.771-1.054-145.151-2.201c1.798-25.771,4.484-51.532,8.049-77.303c45.704-3.989,91.408-6.582,137.101-7.791
			c39.638-1.054,79.266-1.054,118.894,0c45.704,1.209,91.408,3.803,137.101,7.791C456.096,209.678,458.782,235.439,460.58,261.21z"
			/>
		<path style="fill:#F4DD45;" d="M479.289,211.674c-3.27,10.523-12.9,17.799-23.917,18.052c-46.648,1.07-93.295,1.762-139.943,2.076
			c-39.628,0.279-79.266,0.279-118.894,0c-46.648-0.313-93.295-1.005-139.943-2.076c-11.016-0.253-20.647-7.529-23.917-18.052
			c-6.475-20.834-6.475-41.665,0-62.498c3.27-10.523,12.9-17.799,23.917-18.052c46.648-1.07,93.295-1.762,139.943-2.076
			c39.628-0.279,79.266-0.279,118.894,0c46.648,0.314,93.295,1.006,139.943,2.076c11.016,0.253,20.647,7.529,23.917,18.052
			C485.764,170.009,485.764,190.84,479.289,211.674z"/>
		<path style="fill:#EAB14D;" d="M100.058,230.615c-14.487-0.258-28.985-0.558-43.472-0.889
			c-11.015-0.248-20.646-7.523-23.911-18.052c-6.479-20.832-6.479-41.664,0-62.495c3.265-10.53,12.896-17.804,23.911-18.052
			c14.487-0.331,28.974-0.63,43.462-0.889c-6.066,3.441-10.788,9.104-12.948,16.068c-7.078,22.754-7.078,45.487,0,68.241
			C89.26,221.511,93.993,227.184,100.058,230.615z"/>
		<path style="fill:#90D8F9;" d="M315.429,129.048V503.71c-39.628,1.054-79.256,1.054-118.894,0V129.048
			C236.163,128.769,275.802,128.769,315.429,129.048z"/>
		<path style="fill:#6BBEF6;" d="M315.429,231.801v43.338c-39.628,0.279-79.266,0.279-118.894,0v-43.338
			C236.163,232.081,275.802,232.081,315.429,231.801z"/>
		<path style="fill:#90D8F9;" d="M268.098,60.363h-24.231c-26.14,0-47.331,21.191-47.331,47.331v21.361H315.43v-21.361
			C315.43,81.554,294.239,60.363,268.098,60.363z"/>
		<path style="fill:#6BBEF6;" d="M274.996,60.865c-22.878,3.327-40.434,23.033-40.434,46.83v21.359h-38.026v-21.359
			c0-26.143,21.183-47.336,47.326-47.336h24.231C270.44,60.358,272.744,60.534,274.996,60.865z"/>
	</g>
	<g>
		<path d="M486.451,146.95c-3.213-10.337-11.143-18.216-21.006-21.564c2.586-9.043,2.06-17.54-1.59-25.352
			c-6.066-12.984-19.516-20.538-28.831-24.398c5.297-9.175,12.103-24.491,10.016-40.036c-1.507-11.227-7.254-20.639-17.081-27.975
			c-20.664-15.427-43.926-4.39-59.802,7.586c-3.307,2.495-3.965,7.198-1.471,10.504c2.495,3.306,7.196,3.966,10.504,1.471
			c25.814-19.472,37.843-10.493,41.795-7.542c6.55,4.89,10.207,10.745,11.182,17.902c2.421,17.796-12.466,37.258-12.608,37.442
			c-1.563,2.004-1.998,4.665-1.168,7.067c0.831,2.402,2.829,4.222,5.296,4.832c0.059,0.014,5.882,1.474,12.446,4.831
			c5.575,2.852,12.903,7.717,16.149,14.702c2.338,5.03,2.345,10.654,0.011,17.091c-42.278-0.944-85.053-1.584-127.364-1.905v-13.911
			c0-5.58-0.843-10.966-2.4-16.043c12.337-17.72,24.071-32.618,34.911-44.313c2.815-3.038,2.636-7.783-0.402-10.599
			c-3.038-2.817-7.783-2.635-10.6,0.402c-9.883,10.662-20.428,23.805-31.429,39.156c-9.925-14.155-26.35-23.434-44.912-23.434
			h-24.231c-18.56,0-34.984,9.278-44.91,23.43c-33.645-46.965-61.753-71.771-85.743-75.726C102.471-1.203,92.642,1.171,84.004,7.62
			c-9.826,7.334-15.573,16.745-17.082,27.971c-2.089,15.55,4.718,30.874,10.016,40.052c-9.315,3.857-22.76,11.408-28.827,24.389
			c-3.651,7.812-4.177,16.31-1.59,25.354c-9.864,3.348-17.795,11.227-21.007,21.564c-6.903,22.213-6.903,44.738,0,66.95
			c3.154,10.151,10.856,17.935,20.472,21.383c-7.422,80.419-6.266,161.877,3.493,242.235c1.792,14.756,13.802,26.31,28.557,27.472
			c59.047,4.651,118.489,6.977,177.951,6.976c59.446-0.001,118.913-2.326,177.942-6.976c14.755-1.162,26.765-12.716,28.558-27.472
			c9.759-80.357,10.914-161.816,3.493-242.235c9.615-3.448,17.317-11.232,20.472-21.383
			C493.355,191.687,493.355,169.162,486.451,146.95z M243.868,67.864h24.231c21.963,0,39.831,17.868,39.831,39.831v13.814
			c-34.519-0.212-69.377-0.212-103.894,0v-13.814C204.036,85.732,221.905,67.864,243.868,67.864z M61.683,106.419
			C67.052,94.871,84.142,88.41,90.26,86.899c2.47-0.599,4.465-2.415,5.305-4.814c0.84-2.399,0.404-5.066-1.152-7.076
			c-0.151-0.195-15.041-19.667-12.617-37.469c0.975-7.156,4.632-13.01,11.182-17.899c5.32-3.971,11.143-5.369,17.798-4.271
			c25.48,4.2,57.523,43.088,80.662,76.278c-1.558,5.078-2.401,10.466-2.401,16.048v13.911c-42.312,0.322-85.086,0.961-127.363,1.905
			C59.339,117.073,59.345,111.449,61.683,106.419z M39.838,209.448c-5.985-19.258-5.985-38.788,0-58.047
			c2.32-7.465,9.122-12.6,16.927-12.779c43.866-1.007,88.319-1.681,132.269-2.016v87.637c-43.944-0.334-88.398-1.009-132.269-2.016
			C48.96,222.048,42.158,216.913,39.838,209.448z M204.034,496.345v-64.793c0-4.142-3.358-7.5-7.5-7.5s-7.5,3.358-7.5,7.5v64.421
			c-36.7-1.086-73.34-3.064-109.82-5.937c-7.667-0.604-13.91-6.629-14.844-14.327c-9.604-79.081-10.765-159.242-3.507-238.388
			c42.544,0.954,85.594,1.599,128.172,1.923v161.308c0,4.142,3.358,7.5,7.5,7.5s7.5-3.358,7.5-7.5V231.886
			c0-0.011,0.002-0.022,0.002-0.034c0-0.015-0.002-0.03-0.002-0.045v-95.299c34.518-0.212,69.377-0.212,103.896,0v359.837
			C273.311,497.14,238.653,497.139,204.034,496.345z M447.596,475.708c-0.936,7.698-7.179,13.723-14.845,14.327
			c-36.48,2.874-73.121,4.851-109.822,5.937V239.244c42.578-0.323,85.629-0.968,128.175-1.923
			C458.36,316.467,457.201,396.627,447.596,475.708z M472.127,209.448c-2.32,7.465-9.122,12.601-16.927,12.78
			c-43.872,1.007-88.326,1.681-132.271,2.016v-87.637c43.95,0.335,88.403,1.009,132.271,2.016
			c7.805,0.179,14.606,5.315,16.927,12.779C478.113,170.66,478.113,190.19,472.127,209.448z"/>
		<path d="M119.565,78.172c4.142,0,7.5-3.358,7.5-7.5c0-2.387,0.556-3.856,1.079-4.026c3.605-1.176,16.878,4.382,34.838,29.057
			c1.468,2.017,3.753,3.087,6.07,3.087c1.53,0,3.075-0.467,4.407-1.437c3.349-2.438,4.088-7.128,1.65-10.478
			c-19.181-26.351-37.987-38.925-51.608-34.493c-7.162,2.331-11.438,9.168-11.438,18.29
			C112.065,74.814,115.423,78.172,119.565,78.172z"/>
		<path d="M342.21,97.353c1.333,0.97,2.877,1.437,4.408,1.437c2.316,0,4.602-1.07,6.069-3.087
			c17.958-24.672,31.224-30.237,34.839-29.057c0.523,0.17,1.079,1.639,1.079,4.026c0,4.142,3.357,7.5,7.5,7.5s7.5-3.358,7.5-7.5
			c0-9.122-4.275-15.959-11.438-18.29c-13.622-4.432-32.427,8.143-51.607,34.493C338.123,90.224,338.862,94.915,342.21,97.353z"/>
	</g>
</g>
<g>
</g>
<g>
</g>
<g>
</g>
<g>
</g>
<g>
</g>
<g>
</g>
<g>
</g>
<g>
</g>
<g>
</g>
<g>
</g>
<g>
</g>
<g>
</g>
<g>
</g>
<g>
</g>
<g>
</g>
</svg>
