<?xml version="1.0" encoding="iso-8859-1"?>
<!-- Generator: Adobe Illustrator 24.0.0, SVG Export Plug-In . SVG Version: 6.00 Build 0)  -->
<svg version="1.1" id="Capa_1" xmlns="http://www.w3.org/2000/svg" xmlns:xlink="http://www.w3.org/1999/xlink" x="0px" y="0px"
	 viewBox="0 0 511.999 511.999" style="enable-background:new 0 0 511.999 511.999;" xml:space="preserve">
<g>
	<g>
		<path style="fill:#544F57;" d="M381.49,504.5H130.514l6.122-29.818c5.036-24.552,24.166-43.212,47.903-48.237
			c4.169-0.888,8.484-1.348,12.893-1.348h117.14c4.398,0,8.713,0.46,12.882,1.348c23.737,5.025,42.878,23.685,47.913,48.237
			L381.49,504.5z"/>
		<path style="fill:#454045;" d="M221.207,425.097c-2.612,0-5.172,0.46-7.648,1.348c-14.104,5.025-25.461,23.685-28.46,48.237
			l-3.636,29.818H130.51l6.122-29.818c5.036-24.552,24.166-43.212,47.903-48.237c4.169-0.888,8.484-1.348,12.893-1.348H221.207z"/>
		<path style="fill:#F1D0A5;" d="M290.72,367.112v57.985c0,19.172-15.546,34.718-34.718,34.718
			c-19.182,0-34.728-15.546-34.728-34.718v-57.985H290.72z"/>
		<path style="fill:#F1B986;" d="M267.341,457.922c-3.552,1.222-7.366,1.891-11.336,1.891c-19.182,0-34.728-15.546-34.728-34.718
			V367.11h22.672v57.985C243.948,440.307,253.727,453.23,267.341,457.922z"/>
		<path style="fill:#F1B986;" d="M110.948,318.829L110.948,318.829c-25.034,0-45.328-20.294-45.328-45.328v0
			c0-3.445,0.384-6.801,1.113-10.026c5.88-26.043,44.216-21.771,44.216,4.927H401.05c0-26.698,38.335-30.97,44.216-4.927
			c0.728,3.225,1.113,6.581,1.113,10.026v0c0,25.034-20.294,45.328-45.328,45.328l0,0"/>
		<rect x="221.274" y="367.112" style="fill:#F1B986;" width="69.446" height="53.419"/>
		<path style="fill:#F1D0A5;" d="M295.329,402.151h-78.66c-58.388,0-105.721-47.333-105.721-105.721V147.326L254.141,45.022
			L401.05,147.326V296.43C401.05,354.818,353.717,402.151,295.329,402.151z"/>
		<path style="fill:#F1B986;" d="M286.115,402.15h-69.446c-58.382,0-105.721-47.339-105.721-105.721V147.32l69.446-78.325V296.43
			C180.394,354.812,227.723,402.15,286.115,402.15z"/>
		<g>
			<path style="fill:#544F57;" d="M229.619,258.517c0.407,27.885-22.431,50.483-50.316,50.379c-4.252-0.01-8.494-0.084-12.746-0.23
				c-3.051-0.094-6.112-0.219-9.163-0.376c-13.258-0.7-23.769-11.378-24.5-24.636c-1.149-20.854-0.491-41.707,1.985-62.561
				c19.025-1.933,38.051-2.675,57.076-2.204c11.722,0.272,23.445,1.013,35.167,2.204
				C228.605,233.568,229.431,246.042,229.619,258.517z"/>
			<path style="fill:#544F57;" d="M379.105,283.654c-0.731,13.258-11.242,23.936-24.5,24.636
				c-7.303,0.376-14.606,0.585-21.909,0.606c-8.797,0.031-17.103-2.194-24.322-6.133c-15.661-8.557-26.276-25.158-25.994-44.246
				c0.188-12.475,1.013-24.949,2.497-37.424c20.404-2.069,40.809-2.769,61.213-2.09v0.01c10.343,0.334,20.687,1.024,31.03,2.079
				C379.596,241.947,380.254,262.801,379.105,283.654z"/>
		</g>
		<path style="fill:#756E78;" d="M379.105,283.654c-0.731,13.258-11.242,23.936-24.5,24.636c-7.303,0.376-14.606,0.585-21.909,0.606
			c-8.797,0.031-17.103-2.194-24.322-6.133l0.01-0.01c27.133-20.77,37.706-52.866,37.706-83.739
			c10.343,0.334,20.687,1.024,31.03,2.079C379.596,241.947,380.254,262.801,379.105,283.654z"/>
		<path style="fill:#756E78;" d="M229.619,258.517c0.407,27.885-22.431,50.483-50.316,50.379c-4.252-0.01-8.494-0.084-12.746-0.23
			c17.448-28.261,23.382-67.304,25.398-89.777c11.722,0.272,23.445,1.013,35.167,2.204
			C228.605,233.568,229.431,246.042,229.619,258.517z"/>
		<path style="fill:#544F57;" d="M110.946,189.9L110.946,189.9c0-43.518,43.86-73.346,84.332-57.351l4.331,1.712
			c36.23,14.318,76.55,14.318,112.78,0l4.331-1.712c40.472-15.995,84.332,13.832,84.332,57.351v0v-74.83
			c0-59.41-48.161-107.571-107.571-107.571h-74.965c-59.41,0-107.571,48.161-107.571,107.571V189.9z"/>
		<path style="fill:#454045;" d="M287.742,7.5c-59.406,0-107.57,48.164-107.57,107.57v13.592
			c-35.554-4.513-69.227,23.11-69.227,61.234V115.07c0-59.406,48.164-107.57,107.57-107.57H287.742z"/>
	</g>
	<g>
		<path d="M453.879,273.5c0-3.938-0.437-7.867-1.298-11.678c-4.046-17.918-19.665-24.543-32.461-23.116
			c-3.907,0.436-7.903,1.665-11.572,3.681v-52.468c0-0.007,0.001-0.013,0.001-0.019v-74.83c0-4.188-0.227-8.376-0.675-12.45
			c-0.452-4.118-4.167-7.088-8.274-6.635c-4.117,0.453-7.088,4.157-6.636,8.275c0.388,3.531,0.585,7.168,0.585,10.811v31.806
			c-4.29-5.399-9.419-10.193-15.276-14.176c-18.954-12.889-42.998-15.551-64.309-7.126l-4.332,1.711
			c-34.587,13.671-72.681,13.67-107.268-0.001l-4.327-1.709c-21.317-8.428-45.358-5.764-64.312,7.125
			c-5.857,3.983-10.986,8.777-15.276,14.176V115.07C118.449,59.891,163.341,15,218.52,15h74.959
			c40.863,0,77.244,24.444,92.687,62.274c1.564,3.834,5.942,5.675,9.777,4.11c3.835-1.565,5.675-5.943,4.109-9.778
			C382.297,28.107,340.464,0,293.479,0H218.52c-63.45,0-115.07,51.62-115.07,115.07v42.592c0,0.026-0.004,0.051-0.004,0.077v84.645
			c-3.668-2.013-7.662-3.242-11.567-3.678c-12.8-1.425-28.416,5.198-32.461,23.116c-0.861,3.812-1.298,7.741-1.298,11.679
			c0,27.944,21.813,50.877,49.305,52.698c12.86,47.145,55.49,82.138,106.353,83.418v7.979h-16.348
			c-16.919,0-33.234,6.155-45.939,17.331c-3.11,2.736-3.414,7.475-0.679,10.585c1.483,1.685,3.554,2.546,5.635,2.546
			c1.759,0,3.526-0.615,4.95-1.869c9.967-8.766,22.763-13.594,36.033-13.594h17.028c3.551,19.714,20.822,34.722,41.542,34.722
			s37.991-15.008,41.542-34.722h17.028c25.786,0,48.265,18.333,53.448,43.593l4.272,20.81H139.708l4.272-20.811
			c0.506-2.464,1.173-4.876,1.982-7.169c1.379-3.906-0.669-8.19-4.575-9.569c-3.905-1.379-8.189,0.669-9.569,4.575
			c-1.037,2.938-1.889,6.016-2.531,9.149l-6.122,29.818c-0.453,2.208,0.11,4.502,1.534,6.248c1.425,1.747,3.559,2.76,5.813,2.76
			h250.975c2.254,0,4.388-1.013,5.813-2.76c1.424-1.746,1.987-4.041,1.534-6.248l-6.122-29.817
			c-6.608-32.204-35.266-55.577-68.142-55.577h-16.348v-7.979c37.233-0.939,70.052-19.946,90.014-48.557
			c7.262-1.578,14.473-4.317,20.769-8.852c10.496-7.561,16.786-18.71,18.76-33.159C443.375,309.858,453.879,292.888,453.879,273.5z
			 M421.782,253.614c6.106-0.679,14.003,1.925,16.168,11.513c0.616,2.729,0.929,5.547,0.929,8.374
			c0,18.608-13.509,34.109-31.232,37.241c0.594-4.687,0.901-9.463,0.901-14.308v-11.005c2.472-2.729,7.958-7.655,13.71-5.335
			c3.84,1.55,8.211-0.309,9.761-4.149c1.55-3.841-0.308-8.212-4.149-9.761c-6.239-2.517-12.914-2.234-19.25,0.709
			C409.314,258.139,416.002,254.258,421.782,253.614z M142.159,145.104c15.064-10.244,33.421-12.278,50.365-5.578l4.328,1.709
			c38.142,15.075,80.151,15.076,118.291,0.001l4.333-1.711c16.943-6.698,35.299-4.664,50.362,5.58
			c15.059,10.239,23.698,26.553,23.709,44.763v31.231l-8.427,4.282c-0.18-1.723-0.353-3.447-0.557-5.166
			c-0.414-3.488-3.192-6.221-6.687-6.577c-31.108-3.17-62.652-3.17-93.763,0c-3.493,0.356-6.272,3.089-6.687,6.577
			c-0.511,4.302-0.941,8.625-1.302,12.955h-40.255c-0.361-4.33-0.791-8.653-1.302-12.955c-0.414-3.488-3.193-6.221-6.687-6.577
			c-31.109-3.17-62.653-3.17-93.763,0c-3.494,0.356-6.272,3.089-6.687,6.577c-0.206,1.736-0.38,3.476-0.562,5.216l-8.426-4.282
			v-31.171c0-0.026,0.004-0.051,0.004-0.077C118.449,171.677,127.091,155.35,142.159,145.104z M371.618,283.246
			c-0.524,9.515-8.006,17.06-17.402,17.55c-7.15,0.373-14.399,0.576-21.544,0.602c-0.056,0-0.111,0-0.167,0
			c-11.553,0-22.374-4.51-30.484-12.711c-7.997-8.086-12.31-18.761-12.143-30.062c0.149-10.162,0.749-20.441,1.784-30.639
			c26.132-2.303,52.536-2.304,78.668,0C372.195,246.361,372.628,264.92,371.618,283.246z M222.12,258.626
			c0.167,11.3-4.146,21.975-12.143,30.061c-8.111,8.201-18.931,12.711-30.484,12.711c-0.056,0-0.112,0-0.167,0
			c-7.145-0.027-14.394-0.229-21.544-0.602c-9.396-0.49-16.878-8.035-17.402-17.55c-1.01-18.326-0.576-36.885,1.288-55.259
			c26.132-2.304,52.536-2.303,78.668,0C221.371,238.185,221.971,248.464,222.12,258.626z M73.119,273.5
			c0-2.827,0.313-5.645,0.929-8.375c2.164-9.586,10.06-12.193,16.168-11.512c5.78,0.645,12.468,4.525,13.163,13.277
			c-6.336-2.942-13.012-3.225-19.25-0.708c-3.842,1.55-5.699,5.92-4.149,9.761c1.55,3.841,5.919,5.699,9.761,4.149
			c5.747-2.317,11.23,2.598,13.705,5.328v11.012c0,4.846,0.307,9.621,0.901,14.308C86.625,307.607,73.119,292.107,73.119,273.5z
			 M255.999,452.318c-14.989,0-27.186-12.177-27.221-27.158c0-0.022,0.003-0.042,0.003-0.064c0-0.033-0.004-0.064-0.005-0.097
			v-15.345h54.445v15.345c0,0.033-0.005,0.064-0.005,0.097c0,0.022,0.003,0.042,0.003,0.064
			C283.185,440.141,270.988,452.318,255.999,452.318z M295.327,394.654h-78.661c-54.159,0-98.221-44.062-98.221-98.221v-58.46
			l7.097,3.607c-0.855,14.179-0.916,28.4-0.139,42.491c0.947,17.184,14.531,30.813,31.598,31.704
			c7.392,0.385,14.884,0.595,22.269,0.623c0.075,0,0.15,0,0.226,0c15.59,0,30.196-6.09,41.147-17.163
			c10.852-10.972,16.703-25.472,16.476-40.83c-0.05-3.402-0.152-6.816-0.299-10.236h38.359c-0.146,3.42-0.249,6.834-0.299,10.236
			c-0.228,15.358,5.624,29.859,16.476,40.831c10.952,11.073,25.557,17.163,41.147,17.163c0.074,0,0.15,0,0.226,0
			c7.385-0.028,14.877-0.237,22.269-0.623c17.066-0.89,30.65-14.52,31.598-31.704c0.778-14.108,0.716-28.347-0.142-42.542
			l7.095-3.606v58.51c0,18.65-5.226,36.103-14.289,50.971c-15.498,1.847-30.553-1.754-30.888-1.836
			c-4.012-1.002-8.085,1.44-9.09,5.456c-1.006,4.018,1.437,8.091,5.454,9.097c0.792,0.198,10.381,2.532,22.833,2.785
			C349.606,382.411,323.871,394.654,295.327,394.654z M400.271,340.013c-0.203,0.146-0.416,0.276-0.622,0.418
			c1.946-4.597,3.589-9.351,4.921-14.232c2.17-0.144,4.305-0.418,6.397-0.817C408.823,331.553,405.284,336.392,400.271,340.013z"/>
		<path d="M246.544,287.446h18.91c4.143,0,7.5-3.358,7.5-7.5s-3.357-7.5-7.5-7.5h-18.91c-4.143,0-7.5,3.358-7.5,7.5
			S242.402,287.446,246.544,287.446z"/>
		<path d="M281.24,308.129h-50.482c-4.143,0-7.5,3.358-7.5,7.5s3.357,7.5,7.5,7.5h50.482c4.143,0,7.5-3.358,7.5-7.5
			S285.383,308.129,281.24,308.129z"/>
		<path d="M171.855,203.617l52.114,5.211c0.254,0.025,0.505,0.038,0.755,0.038c3.807,0,7.067-2.886,7.454-6.754
			c0.412-4.122-2.595-7.797-6.717-8.209l-52.114-5.211c-4.125-0.413-7.797,2.595-8.209,6.717
			C164.726,199.529,167.733,203.205,171.855,203.617z"/>
		<path d="M287.275,208.866c0.249,0,0.502-0.012,0.755-0.038l52.114-5.211c4.122-0.412,7.129-4.088,6.717-8.209
			c-0.412-4.121-4.084-7.126-8.209-6.717l-52.114,5.211c-4.122,0.412-7.129,4.088-6.717,8.209
			C280.207,205.98,283.468,208.866,287.275,208.866z"/>
	</g>
</g>
<g>
</g>
<g>
</g>
<g>
</g>
<g>
</g>
<g>
</g>
<g>
</g>
<g>
</g>
<g>
</g>
<g>
</g>
<g>
</g>
<g>
</g>
<g>
</g>
<g>
</g>
<g>
</g>
<g>
</g>
</svg>
