<?xml version="1.0"?>
<svg xmlns="http://www.w3.org/2000/svg" xmlns:xlink="http://www.w3.org/1999/xlink" xmlns:svgjs="http://svgjs.com/svgjs" version="1.1" width="512" height="512" x="0" y="0" viewBox="0 0 512 512" style="enable-background:new 0 0 512 512" xml:space="preserve"><g><g xmlns="http://www.w3.org/2000/svg"><g><path d="m488.022 216.848c0-17.493 0-64.416 0-83.017 0-4.143-3.358-7.5-7.5-7.5s-7.5 3.357-7.5 7.5v18.356c-6.314-4.775-14.171-7.613-22.679-7.613h-248.317c-8.769 0-16.835-5.134-20.547-13.079-6.167-13.2-19.567-21.729-34.137-21.729h-85.685c-8.509 0-16.365 2.838-22.679 7.613v-66.895c0-12.506 10.174-22.68 22.679-22.68h85.685c8.77 0 16.835 5.134 20.547 13.079 6.166 13.2 19.566 21.729 34.137 21.729h248.317c12.505 0 22.679 10.174 22.679 22.68v13.476c0 4.143 3.358 7.5 7.5 7.5s7.5-3.357 7.5-7.5v-13.475c0-20.776-16.903-37.68-37.679-37.68h-248.317c-8.77 0-16.835-5.134-20.547-13.079-6.168-13.2-19.567-21.729-34.137-21.729h-85.685c-20.776 0-37.679 16.903-37.679 37.68v166.364c-13.751 3.398-23.978 15.835-23.978 30.621v82.41c0 4.143 3.358 7.5 7.5 7.5s7.5-3.357 7.5-7.5v-82.41c0-9.114 7.409-16.531 16.52-16.545.026 0 .054-.001.082-.001h55.694c7.637 0 14.245 5.18 16.068 12.596 3.476 14.141 16.073 24.017 30.634 24.017h244.003c14.561 0 27.158-9.876 30.634-24.017 1.823-7.416 8.431-12.596 16.068-12.596h55.693c.028 0 .057.001.083.001 9.112.014 16.52 7.43 16.52 16.545v220.18c0 9.123-7.422 16.546-16.546 16.546h-448.907c-9.124 0-16.546-7.423-16.546-16.546v-102.708c0-4.143-3.358-7.5-7.5-7.5s-7.5 3.357-7.5 7.5v102.708c0 17.394 14.151 31.546 31.546 31.546h448.908c17.394 0 31.546-14.151 31.546-31.546v-220.18c0-14.786-10.227-27.223-23.978-30.622zm-15-.924h-48.319c-14.56 0-27.158 9.875-30.634 24.016-1.823 7.417-8.431 12.597-16.068 12.597h-244.002c-7.637 0-14.245-5.18-16.068-12.598-3.476-14.14-16.074-24.015-30.634-24.015h-48.319v-68.48c0-12.505 10.174-22.679 22.679-22.679h85.685c8.77 0 16.835 5.134 20.547 13.079 6.167 13.2 19.567 21.729 34.137 21.729h248.317c12.505 0 22.679 10.174 22.679 22.679z" fill="#ffffff" data-original="#000000" style=""/><path d="m464.121 385.042c9.031 0 16.378-7.347 16.378-16.378v-42.508c0-9.031-7.347-16.378-16.378-16.378h-102.604c-9.031 0-16.378 7.347-16.378 16.378v42.508c0 9.031 7.347 16.378 16.378 16.378zm-103.982-16.377v-42.508c0-.76.618-1.378 1.378-1.378h102.604c.76 0 1.378.618 1.378 1.378v42.508c0 .76-.618 1.378-1.378 1.378h-102.604c-.76 0-1.378-.619-1.378-1.378z" fill="#ffffff" data-original="#000000" style=""/><path d="m363 85.501c-4.142 0-7.5 3.357-7.5 7.5s3.358 7.5 7.5 7.5h62.523c4.142 0 7.5-3.357 7.5-7.5s-3.358-7.5-7.5-7.5z" fill="#ffffff" data-original="#000000" style=""/><path d="m425.522 179.667h-62.522c-4.142 0-7.5 3.357-7.5 7.5s3.358 7.5 7.5 7.5h62.523c4.142 0 7.5-3.357 7.5-7.5s-3.359-7.5-7.501-7.5z" fill="#ffffff" data-original="#000000" style=""/></g></g></g></svg>
