<?xml version="1.0"?>
<svg xmlns="http://www.w3.org/2000/svg" xmlns:xlink="http://www.w3.org/1999/xlink" xmlns:svgjs="http://svgjs.com/svgjs" version="1.1" width="512" height="512" x="0" y="0" viewBox="0 0 511.076 511.076" style="enable-background:new 0 0 512 512" xml:space="preserve" class=""><g><g xmlns="http://www.w3.org/2000/svg"><path d="m483.848 387.726-30.085-24.181c-3.227-2.595-7.949-2.081-10.544 1.147-2.595 3.229-2.081 7.95 1.147 10.544l30.085 24.181c1.385 1.114 3.045 1.655 4.693 1.655 2.194 0 4.369-.958 5.851-2.802 2.595-3.228 2.081-7.949-1.147-10.544z" fill="#ffffff" data-original="#000000" style="" class=""/><path d="m428.823 343.5-21.784-17.509-18.662-33.947c-3.896-7.086-9.424-13.329-15.986-18.054l-4.436-3.194 7.662-9.533c9.883-12.296 7.92-30.339-4.376-40.223-6.508-5.23-14.627-7.141-22.293-5.958-.494-7.741-4.105-15.259-10.614-20.49s-14.627-7.142-22.293-5.959c-.494-7.741-4.106-15.259-10.614-20.49s-14.626-7.142-22.292-5.96c-.494-7.741-4.106-15.258-10.614-20.489-11.619-9.339-28.365-8.094-38.514 2.445l-11.824-9.504c-5.676-4.562-12.788-6.639-20.029-5.853-7.24.788-13.739 4.348-18.301 10.023-4.867 6.055-6.711 13.573-5.748 20.725-.238.02-.476.034-.714.061-7.24.788-13.739 4.347-18.301 10.024-4.87 6.059-6.714 13.582-5.746 20.738-7.196.594-14.146 4.012-19.017 10.071-3.734 4.646-5.802 10.255-5.998 16.109l-9.14 8.74c-.037.035-.072.07-.108.105-17.806 17.725-28.639 41.284-30.506 66.338l-2.723 36.558-59.771 74.365c-2.595 3.229-2.082 7.95 1.147 10.544 1.385 1.114 3.045 1.655 4.694 1.655 2.194 0 4.369-.958 5.851-2.802l61.231-76.182c.951-1.184 1.521-2.627 1.634-4.142l2.896-38.883c1.597-21.436 10.857-41.594 26.077-56.77l3.395-3.246c1.505 2.213 3.347 4.215 5.492 5.939l11.73 9.428-13.61 16.933c-2.595 3.229-2.082 7.95 1.147 10.544 1.385 1.114 3.045 1.655 4.694 1.655 2.194 0 4.369-.958 5.851-2.802l95.682-119.044c4.701-5.849 13.282-6.783 19.134-2.082 5.841 4.695 6.779 13.263 2.095 19.114l-.91 1.075c-2.675 3.163-2.279 7.895.884 10.57 3.161 2.675 7.895 2.278 10.569-.883l.034-.04c.182-.184 1.1-1.304 1.1-1.304 4.701-5.85 13.282-6.784 19.134-2.082 5.848 4.701 6.783 13.283 2.084 19.131l-.002.002c-.002.002-.003.004-.005.006 0 0-.942 1.211-1.102 1.469-2.474 3.319-1.791 8.015 1.526 10.492 3.32 2.479 8.02 1.796 10.497-1.523l.851-1.14c4.717-5.766 13.239-6.665 19.059-1.989 5.848 4.701 6.782 13.282 2.079 19.135-.001.001-.002.003-.003.004 0 0-.968 1.253-1.137 1.531l-.075.102c-2.458 3.334-1.747 8.029 1.586 10.487 3.335 2.458 8.03 1.748 10.488-1.586l.923-1.252c4.722-5.751 13.233-6.644 19.047-1.974 5.849 4.701 6.782 13.284 2.081 19.134l-8.16 10.153-35.275-25.398c-6.252-4.5-13.641-6.838-21.328-6.834l-41.219.155c-14.8.056-26.947 12.142-27.076 26.942-.112 12.838 8.545 23.825 21.054 26.718l39.813 9.207.075 3.282c.286 12.387 3.249 24.362 8.525 35.208-.436.344-.844.736-1.206 1.188l-19.188 23.873c-2.595 3.229-2.081 7.95 1.147 10.544 1.385 1.113 3.045 1.655 4.693 1.655 2.194 0 4.369-.958 5.851-2.802l16.88-21.001c4.272 5.75 9.295 10.999 15.006 15.588l5.59 4.493c1.385 1.114 3.045 1.655 4.693 1.655 2.194 0 4.369-.959 5.851-2.802 2.595-3.229 2.081-7.949-1.147-10.544l-5.59-4.493c-16.115-12.953-25.631-32.236-26.107-52.906l-.209-9.104c-.079-3.426-2.47-6.363-5.809-7.135l-45.486-10.519c-5.606-1.296-9.485-6.22-9.436-11.973.058-6.632 5.501-12.048 12.134-12.073l41.219-.155h.082c4.486 0 8.781 1.385 12.426 4.008l51.899 37.368c4.765 3.43 8.777 7.963 11.606 13.107l19.378 35.249c.473.859 1.109 1.618 1.874 2.232l22.942 18.44c3.229 2.597 7.95 2.081 10.544-1.147 2.59-3.226 2.077-7.947-1.152-10.542zm-233.279-195.296c2.052-2.553 4.976-4.154 8.232-4.509.452-.049.902-.073 1.35-.073 2.781 0 5.46.939 7.659 2.706l11.729 9.428-15.366 19.117-11.729-9.427c-5.27-4.237-6.111-11.972-1.875-17.242zm-24.763 30.808c2.052-2.553 4.976-4.154 8.232-4.508.452-.049.902-.074 1.35-.074 2.781 0 5.46.939 7.659 2.707l11.729 9.428-15.365 19.117-11.729-9.428c-5.27-4.236-6.112-11.971-1.876-17.242zm-27.395 39.819c-.354-3.256.581-6.456 2.633-9.009 2.42-3.011 5.98-4.576 9.571-4.576 2.696 0 5.41.883 7.67 2.7l11.73 9.428-15.366 19.117-11.729-9.427c-2.554-2.053-4.155-4.977-4.509-8.233z" fill="#ffffff" data-original="#000000" style="" class=""/><path d="m392.574 495.707-60.726-48.808c-1.257-1.011-2.807-1.589-4.419-1.649l-2.834-.105c-15.401-.574-30.053-5.774-42.371-15.038l-26.389-19.847c.191-.232.392-.454.581-.689l15.17-18.874c2.595-3.229 2.081-7.95-1.147-10.544-3.228-2.595-7.948-2.08-10.544 1.147l-15.17 18.874c-10.233 12.732-24.777 21.001-40.949 23.283-3.525.497-6.694 2.298-8.923 5.072l-56.543 70.349c-2.595 3.229-2.082 7.95 1.147 10.544 1.385 1.114 3.045 1.655 4.694 1.655 2.194 0 4.369-.958 5.851-2.802l56.283-70.025c14.446-2.115 27.811-8.117 38.86-17.262l28.066 21.108c14.776 11.113 32.353 17.351 50.828 18.039l.352.013 58.789 47.251c1.385 1.114 3.045 1.655 4.693 1.655 2.194 0 4.369-.958 5.851-2.802 2.592-3.229 2.079-7.95-1.15-10.545z" fill="#ffffff" data-original="#000000" style="" class=""/><path d="m240.672 59.229c2.206 4.583 6.735 7.43 11.821 7.43s9.616-2.847 11.821-7.43l17.934-37.262c1.625-3.375 1.729-7.296.287-10.757-1.436-3.445-4.277-6.117-7.796-7.332-14.967-5.165-29.973-5.172-44.605-.019-3.491 1.229-6.306 3.902-7.724 7.333-1.426 3.451-1.316 7.36.303 10.723zm27.132-41.837-15.311 31.811-15.338-31.87c10.161-3.159 20.229-3.139 30.649.059z" fill="#ffffff" data-original="#000000" style="" class=""/><path d="m342.397 99.207c2.42 2.016 5.373 3.057 8.371 3.057 1.844 0 3.704-.394 5.467-1.197l37.632-17.146c3.409-1.553 5.999-4.498 7.106-8.079 1.103-3.565.63-7.438-1.295-10.623 0 0 0-.001-.001-.001-8.19-13.548-19.716-23.16-34.254-28.568-3.469-1.291-7.343-1.041-10.629.688-3.306 1.739-5.723 4.812-6.633 8.432l-10.09 40.161c-1.238 4.934.42 10.021 4.326 13.276zm19.793-47.713c9.83 4.078 17.551 10.537 23.509 19.666l-32.126 14.638z" fill="#ffffff" data-original="#000000" style="" class=""/><path d="m111.118 83.922 37.632 17.146c1.763.803 3.623 1.197 5.467 1.197 2.998 0 5.952-1.041 8.371-3.057 3.907-3.256 5.564-8.343 4.325-13.275l-10.09-40.161c-.91-3.62-3.327-6.694-6.633-8.432-3.286-1.729-7.161-1.979-10.627-.688-14.539 5.408-26.064 15.02-34.255 28.568-1.925 3.186-2.398 7.057-1.296 10.622 1.107 3.581 3.697 6.526 7.106 8.08zm31.677-32.428 8.618 34.303-32.126-14.638c5.958-9.128 13.68-15.586 23.508-19.665z" fill="#ffffff" data-original="#000000" style="" class=""/></g></g></svg>
