<?xml version="1.0"?>
<svg xmlns="http://www.w3.org/2000/svg" xmlns:xlink="http://www.w3.org/1999/xlink" xmlns:svgjs="http://svgjs.com/svgjs" version="1.1" width="512" height="512" x="0" y="0" viewBox="0 0 512.898 512.898" style="enable-background:new 0 0 512 512" xml:space="preserve" class=""><g><g xmlns="http://www.w3.org/2000/svg"><path d="m184.816 433.503c-7.358 0-13.345 5.987-13.345 13.345v24.318c0 7.359 5.987 13.346 13.345 13.346h143.267c7.358 0 13.345-5.987 13.345-13.346v-24.318c0-7.358-5.987-13.345-13.345-13.345zm141.612 36.009h-139.958v-21.009h139.957v21.009z" fill="#ffffff" data-original="#000000" style="" class=""/><path d="m355.42 455.421v7.173c0 4.142 3.358 7.5 7.5 7.5s7.5-3.358 7.5-7.5v-7.173c0-4.142-3.358-7.5-7.5-7.5s-7.5 3.358-7.5 7.5z" fill="#ffffff" data-original="#000000" style="" class=""/><path d="m142.478 455.421v7.173c0 4.142 3.358 7.5 7.5 7.5s7.5-3.358 7.5-7.5v-7.173c0-4.142-3.358-7.5-7.5-7.5s-7.5 3.358-7.5 7.5z" fill="#ffffff" data-original="#000000" style="" class=""/><path d="m459.856 50.845c-5.654-5.919-13.592-9.313-21.777-9.313h-38.931l.442-5.349c.485-5.875-1.527-11.731-5.52-16.067s-9.664-6.823-15.558-6.823h-130.628c-4.142 0-7.5 3.358-7.5 7.5s3.358 7.5 7.5 7.5h130.628c1.739 0 3.346.705 4.524 1.984s1.748 2.938 1.605 4.672l-12.672 153.511c-2.4 29.074-15.541 55.97-37.001 75.731s-49.345 30.645-78.519 30.645-57.058-10.883-78.519-30.645-34.601-46.657-37.001-75.731l-12.671-153.511c-.143-1.733.427-3.393 1.605-4.672s2.785-1.984 4.524-1.984h9.996c4.142 0 7.5-3.358 7.5-7.5s-3.358-7.5-7.5-7.5h-9.996c-5.895 0-11.565 2.487-15.558 6.823s-6.005 10.192-5.52 16.067l.442 5.349h-38.932c-8.185 0-16.123 3.395-21.777 9.313-5.654 5.919-8.682 14.003-8.308 22.181l4.248 92.803c2.493 54.462 47.152 97.124 101.671 97.124h5.41c3.614 4.311 7.516 8.415 11.706 12.273 18.247 16.803 40.608 27.92 64.604 32.39v43.655l-10.031 15.604h-21.338c-11.476 0-20.813 9.336-20.813 20.813v17.43h-39.43c-15.178 0-27.526 12.348-27.526 27.526v65.254h-4.059c-4.142 0-7.5 3.358-7.5 7.5s3.358 7.5 7.5 7.5h294.545c4.142 0 7.5-3.358 7.5-7.5s-3.358-7.5-7.5-7.5h-4.059v-19.323c0-4.142-3.358-7.5-7.5-7.5s-7.5 3.358-7.5 7.5v19.323h-256.426v-65.254c0-6.907 5.619-12.526 12.526-12.526h231.374c6.907 0 12.526 5.619 12.526 12.526v13.969c0 4.142 3.358 7.5 7.5 7.5s7.5-3.358 7.5-7.5v-13.969c0-15.178-12.348-27.526-27.526-27.526h-38.43v-17.43c0-11.477-9.337-20.813-20.813-20.813h-21.338l-10.031-15.604v-43.849c23.617-4.59 45.611-15.627 63.604-32.196 4.19-3.858 8.091-7.962 11.706-12.273h5.41c54.519 0 99.179-42.662 101.671-97.124l1.351-29.521c.189-4.138-3.012-7.646-7.149-7.835-4.142-.19-7.646 3.012-7.835 7.149l-1.351 29.521c-2.04 44.561-37.194 79.836-81.109 82.612 3.218-5.202 6.064-10.618 8.518-16.212 32.14-6.372 56.088-33.918 57.606-67.087l3.895-85.083c.094-2.046-.654-4.042-2.069-5.523s-3.375-2.319-5.423-2.319h-33.678l1.238-15h40.169c4.108 0 8.092 1.704 10.93 4.675s4.358 7.029 4.17 11.134l-1.434 31.321c-.189 4.138 3.011 7.646 7.149 7.835.117.005.233.008.349.008 3.984 0 7.302-3.136 7.486-7.157l1.434-31.32c.376-8.178-2.652-16.263-8.306-22.182zm-333.876 138.85c.691 8.369 2.174 16.577 4.396 24.533-20.715-7.882-35.388-27.463-36.441-50.457l-3.535-77.239h27.065zm-62.013-24.551-4.248-92.804c-.188-4.104 1.332-8.163 4.17-11.133 2.838-2.971 6.822-4.675 10.93-4.675h40.169l1.238 15h-33.677c-2.049 0-4.008.838-5.423 2.319s-2.163 3.477-2.069 5.523l3.895 85.083c1.518 33.169 25.466 60.714 57.606 67.087 2.454 5.595 5.3 11.011 8.518 16.212-43.915-2.776-79.07-38.051-81.109-82.612zm254.739 222.543v17.43h-123.514v-17.43c0-3.205 2.608-5.813 5.813-5.813h111.889c3.204 0 5.812 2.608 5.812 5.813zm-50.991-30.158 6.008 9.345h-33.547l6.008-9.345c.777-1.21 1.191-2.618 1.191-4.056v-43.95c3.01.207 6.036.313 9.075.313 3.376 0 6.736-.136 10.075-.392v44.028c-.001 1.439.413 2.847 1.19 4.057zm154.783-270.997-3.536 77.24c-1.052 22.994-15.725 42.575-36.441 50.457 2.222-7.957 3.705-16.164 4.396-24.533l8.516-103.163h27.065z" fill="#ffffff" data-original="#000000" style="" class=""/><path d="m256.449 240.035c15.71 0 31.236-4.057 44.9-11.732 3.611-2.029 4.894-6.601 2.866-10.212-2.029-3.612-6.601-4.894-10.212-2.866-11.425 6.418-24.411 9.811-37.554 9.811-42.361 0-76.825-34.463-76.825-76.825 0-42.361 34.463-76.824 76.825-76.824s76.825 34.463 76.825 76.824c0 17.727-5.88 34.387-17.003 48.179-2.601 3.225-2.095 7.946 1.129 10.546 3.224 2.599 7.946 2.094 10.546-1.129 13.108-16.254 20.328-36.708 20.328-57.596 0-50.632-41.192-91.824-91.825-91.824s-91.825 41.192-91.825 91.824c0 50.631 41.193 91.824 91.825 91.824z" fill="#ffffff" data-original="#000000" style="" class=""/><path d="m317.205 130.658c-1.345-4.14-4.857-7.101-9.165-7.727l-28.268-4.108-12.642-25.615c-1.927-3.904-5.828-6.329-10.181-6.329-4.354 0-8.254 2.425-10.181 6.329l-12.642 25.615-28.267 4.107c-4.309.626-7.821 3.587-9.166 7.727-1.345 4.141-.245 8.6 2.873 11.638l20.455 19.939-4.829 28.153c-.736 4.291.995 8.545 4.516 11.104 3.521 2.558 8.102 2.89 11.957.865l25.284-13.292 25.284 13.292c1.676.881 3.489 1.316 5.293 1.316 2.344 0 4.673-.735 6.663-2.181 3.521-2.559 5.252-6.814 4.516-11.104l-4.829-28.153 20.455-19.938c3.118-3.038 4.219-7.498 2.874-11.638zm-35.171 22.174c-2.677 2.609-3.897 6.366-3.266 10.05l3.904 22.76-20.44-10.746c-3.309-1.74-7.259-1.74-10.567 0l-20.44 10.747 3.904-22.761c.632-3.684-.589-7.44-3.266-10.049l-16.536-16.119 22.854-3.321c3.699-.538 6.895-2.86 8.547-6.21l10.22-20.709 10.22 20.708c1.653 3.351 4.849 5.673 8.549 6.211l22.853 3.321z" fill="#ffffff" data-original="#000000" style="" class=""/><path d="m171.664 39.662c7.148 2.847 11.959 7.731 14.707 14.932 1.395 3.656 4.812 6.166 8.704 6.394.193.012.385.017.577.017 3.67 0 7.079-2.051 8.799-5.34 3.629-6.941 9.194-12.248 17.016-16.226 3.324-1.692 5.408-5.053 5.438-8.772s-2-7.113-5.296-8.858c-7.749-4.1-13.372-9.526-17.189-16.588-1.836-3.396-5.516-5.434-9.365-5.204-3.877.236-7.166 2.627-8.583 6.238-2.69 6.853-7.652 11.8-15.168 15.126-3.657 1.618-5.972 5.246-5.896 9.241.073 4.007 2.529 7.555 6.256 9.04zm24.493-19.768c3.129 3.998 6.834 7.545 11.091 10.622-4.276 3.007-7.972 6.489-11.066 10.423-2.752-4.211-6.199-7.755-10.322-10.613 4.125-2.915 7.564-6.398 10.297-10.432z" fill="#ffffff" data-original="#000000" style="" class=""/></g></g></svg>
