<?xml version="1.0"?>
<svg xmlns="http://www.w3.org/2000/svg" xmlns:xlink="http://www.w3.org/1999/xlink" xmlns:svgjs="http://svgjs.com/svgjs" version="1.1" width="512" height="512" x="0" y="0" viewBox="0 0 512 512" style="enable-background:new 0 0 512 512" xml:space="preserve"><g><g xmlns="http://www.w3.org/2000/svg"><g><path d="m210.881 375.217c3.214 2.594 7.941 2.102 10.546-1.13l75.979-94.209c2.73-3.387 3.262-7.928 1.385-11.852-1.876-3.925-5.744-6.362-10.094-6.362h-57.425l70.977-88.007c2.601-3.224 2.095-7.945-1.13-10.546-3.225-2.603-7.947-2.096-10.546 1.13l-75.979 94.209c-2.73 3.387-3.262 7.928-1.385 11.852 1.876 3.925 5.744 6.362 10.094 6.362h57.425l-70.977 88.007c-2.601 3.224-2.095 7.945 1.13 10.546z" fill="#ffffff" data-original="#000000" style=""/><path d="m374.971 50.479h-49.59v-29.148c0-11.762-9.569-21.331-21.331-21.331h-96.1c-11.762 0-21.331 9.569-21.331 21.331v29.148h-49.59c-22.735 0-41.232 18.497-41.232 41.232v379.056c0 22.735 18.497 41.232 41.232 41.232h237.941c22.735 0 41.232-18.497 41.232-41.232v-379.055c.001-22.735-18.496-41.233-41.231-41.233zm-173.352-29.148c0-3.491 2.84-6.331 6.331-6.331h96.1c3.491 0 6.331 2.84 6.331 6.331v29.148h-108.762zm199.584 449.437c0 14.465-11.768 26.232-26.232 26.232h-237.942c-14.465 0-26.232-11.768-26.232-26.232v-379.056c0-14.465 11.768-26.232 26.232-26.232h237.941c14.465 0 26.232 11.768 26.232 26.232v379.056z" fill="#ffffff" data-original="#000000" style=""/><path d="m354.455 94.664h-196.911c-9.684 0-17.562 7.879-17.562 17.563v270.799c0 4.143 3.357 7.5 7.5 7.5s7.5-3.357 7.5-7.5v-270.798c0-1.413 1.149-2.563 2.562-2.563h196.911c1.413 0 2.563 1.15 2.563 2.563v39.178c0 4.143 3.357 7.5 7.5 7.5s7.5-3.357 7.5-7.5v-39.178c.001-9.685-7.878-17.564-17.563-17.564z" fill="#ffffff" data-original="#000000" style=""/><path d="m364.519 179.126c-4.143 0-7.5 3.357-7.5 7.5v263.626c0 1.413-1.15 2.563-2.563 2.563h-196.912c-1.413 0-2.562-1.15-2.562-2.563v-32.143c0-4.143-3.357-7.5-7.5-7.5s-7.5 3.357-7.5 7.5v32.143c0 9.685 7.879 17.563 17.562 17.563h196.911c9.685 0 17.563-7.879 17.563-17.563v-263.626c.001-4.143-3.357-7.5-7.499-7.5z" fill="#ffffff" data-original="#000000" style=""/></g></g></g></svg>
