<?xml version="1.0"?>
<svg xmlns="http://www.w3.org/2000/svg" xmlns:xlink="http://www.w3.org/1999/xlink" xmlns:svgjs="http://svgjs.com/svgjs" version="1.1" width="512" height="512" x="0" y="0" viewBox="0 0 512 512" style="enable-background:new 0 0 512 512" xml:space="preserve"><g><g xmlns="http://www.w3.org/2000/svg"><g><path d="m374.971 50.479h-49.59v-29.148c0-11.762-9.569-21.331-21.332-21.331h-96.099c-11.762 0-21.332 9.569-21.332 21.331v29.148h-49.59c-22.736 0-41.233 18.497-41.233 41.233v379.055c0 22.736 18.497 41.233 41.233 41.233h237.941c22.736 0 41.233-18.497 41.233-41.233v-379.055c.002-22.735-18.495-41.233-41.231-41.233zm-173.352-29.148c0-3.491 2.84-6.331 6.332-6.331h96.099c3.491 0 6.332 2.84 6.332 6.331v29.148h-108.763zm199.585 449.436c0 14.465-11.768 26.233-26.233 26.233h-237.942c-14.465 0-26.233-11.768-26.233-26.233v-379.055c0-14.465 11.768-26.233 26.233-26.233h237.941c14.465 0 26.233 11.768 26.233 26.233v379.055z" fill="#ffffff" data-original="#000000" style=""/><path d="m354.456 94.664h-196.912c-9.684 0-17.563 7.879-17.563 17.563v338.025c0 9.684 7.879 17.563 17.563 17.563h196.911c9.684 0 17.563-7.879 17.563-17.563v-263.763c0-4.142-3.358-7.5-7.5-7.5s-7.5 3.358-7.5 7.5v100.168h-202.037v-174.43c0-1.413 1.15-2.563 2.563-2.563h196.911c1.413 0 2.563 1.15 2.563 2.563v39.179c0 4.142 3.358 7.5 7.5 7.5s7.5-3.358 7.5-7.5v-39.179c.001-9.684-7.878-17.563-17.562-17.563zm0 358.151h-196.912c-1.413 0-2.563-1.15-2.563-2.563v-37.823h29.741c4.142 0 7.5-3.358 7.5-7.5s-3.358-7.5-7.5-7.5h-29.741v-40.386h202.037v40.386h-137.212c-4.142 0-7.5 3.358-7.5 7.5s3.358 7.5 7.5 7.5h137.213v37.823c0 1.413-1.15 2.563-2.563 2.563zm2.563-151.158v40.386h-202.038v-40.386z" fill="#ffffff" data-original="#000000" style=""/></g></g></g></svg>
