<?xml version="1.0"?>
<svg xmlns="http://www.w3.org/2000/svg" xmlns:xlink="http://www.w3.org/1999/xlink" xmlns:svgjs="http://svgjs.com/svgjs" version="1.1" width="512" height="512" x="0" y="0" viewBox="0 0 512 512" style="enable-background:new 0 0 512 512" xml:space="preserve" class=""><g><g xmlns="http://www.w3.org/2000/svg"><path d="m459.425 391.158h-2.453l-9.801-6.642c-28.261-19.152-45.711-50.96-46.678-85.086l-3.106-109.699c-.844-29.765-10.799-57.986-28.79-81.613-2.51-3.296-7.216-3.933-10.511-1.423-3.295 2.509-3.933 7.215-1.423 10.51 16.078 21.116 24.976 46.341 25.729 72.951l3.106 109.699c1.011 35.687 17.829 69.142 45.454 91.304h-349.905c27.625-22.161 44.442-55.617 45.454-91.304l3.106-109.699c.938-33.087 14.524-64.014 38.259-87.086 23.734-23.072 55.034-35.778 88.134-35.778 28.073 0 54.66 9.01 76.887 26.056 3.289 2.522 7.996 1.9 10.516-1.387 2.521-3.287 1.899-7.995-1.387-10.515-12.301-9.433-25.795-16.663-40.092-21.566 1.06-3.932 1.633-8.061 1.633-12.323 0-26.224-21.334-47.557-47.557-47.557s-47.557 21.333-47.557 47.556c0 4.271.574 8.408 1.638 12.346-19.521 6.685-37.483 17.646-52.672 32.411-26.55 25.808-41.748 60.405-42.797 97.417l-3.106 109.699c-.967 34.126-18.417 65.935-46.678 85.086l-9.801 6.642h-2.453c-18.017 0-32.675 14.658-32.675 32.675s14.658 32.675 32.675 32.675h49.799c4.143 0 7.5-3.358 7.5-7.5s-3.357-7.5-7.5-7.5h-49.798c-9.746 0-17.675-7.929-17.675-17.675s7.929-17.675 17.675-17.675h406.85c9.746 0 17.675 7.929 17.675 17.675s-7.929 17.675-17.675 17.675h-321.739c-4.143 0-7.5 3.358-7.5 7.5s3.357 7.5 7.5 7.5h46.967c8.201 32.315 37.377 55.493 71.347 55.493 34.006 0 63.154-23.211 71.347-55.493h132.078c18.017 0 32.675-14.658 32.675-32.675s-14.659-32.674-32.675-32.674zm-235.982-343.602c0-17.952 14.605-32.556 32.557-32.556s32.557 14.604 32.557 32.556c0 2.843-.373 5.598-1.061 8.228-10.219-2.313-20.76-3.492-31.496-3.492-10.718 0-21.265 1.198-31.489 3.517-.692-2.637-1.068-5.401-1.068-8.253zm32.557 449.444c-25.88 0-48.073-16.578-55.75-40.493h111.5c-7.677 23.915-29.87 40.493-55.75 40.493z" fill="#ffffff" data-original="#000000" style=""/></g></g></svg>
