<?xml version="1.0"?>
<svg xmlns="http://www.w3.org/2000/svg" xmlns:xlink="http://www.w3.org/1999/xlink" xmlns:svgjs="http://svgjs.com/svgjs" version="1.1" width="512" height="512" x="0" y="0" viewBox="0 0 512 512" style="enable-background:new 0 0 512 512" xml:space="preserve"><g><g xmlns="http://www.w3.org/2000/svg"><path d="m480.373 97.584h-4.737v-15.56c0-15.327-12.469-27.796-27.796-27.796h-57.314c-.864-7.353-7.124-13.08-14.706-13.08h-46.855c-7.582 0-13.842 5.727-14.706 13.08h-4.628c-23.02 0-43.096 12.824-53.475 31.7-10.378-18.876-30.455-31.7-53.475-31.7h-138.522c-15.326 0-27.795 12.469-27.795 27.796v15.56h-4.737c-17.439 0-31.627 14.187-31.627 31.627v310.015c0 17.438 14.188 31.626 31.627 31.626h448.746c17.439 0 31.627-14.188 31.627-31.626v-310.015c0-17.44-14.188-31.627-31.627-31.627zm-170.742-28.355h4.518v98.565c0 11.342 13.701 17.1 21.803 9.15l16.442-16.136 16.44 16.135c8.063 7.918 21.803 2.249 21.803-9.149v-45.179c0-4.143-3.357-7.5-7.5-7.5s-7.5 3.357-7.5 7.5v39.988l-14.263-13.998c-4.954-4.859-13.012-4.857-17.962.001l-14.264 13.998v-106.456h46.488v30.726c0 4.143 3.357 7.5 7.5 7.5s7.5-3.357 7.5-7.5v-17.645h57.203c7.056 0 12.796 5.74 12.796 12.796v324.844c0 7.056-5.74 12.796-12.796 12.796h-184.174v-304.453c0-.116-.008-.23-.009-.346.188-25.196 20.736-45.637 45.975-45.637zm187.369 369.997c0 9.168-7.459 16.626-16.627 16.626h-448.746c-9.168 0-16.627-7.458-16.627-16.626v-310.015c0-9.168 7.459-16.627 16.627-16.627h4.737v227.989c0 4.143 3.357 7.5 7.5 7.5s7.5-3.357 7.5-7.5v-258.549c0-7.056 5.74-12.796 12.795-12.796h138.522c25.239 0 45.787 20.441 45.975 45.637-.001.116-.009.23-.009.346 0 .118.012.232.018.348v304.104h-184.506c-7.055 0-12.795-5.74-12.795-12.796v-31.232c0-4.143-3.357-7.5-7.5-7.5s-7.5 3.357-7.5 7.5v31.232c0 15.327 12.469 27.796 27.795 27.796h191.988.018 191.675c15.327 0 27.796-12.469 27.796-27.796v-294.283h4.737c9.168 0 16.627 7.459 16.627 16.627z" fill="#ffffff" data-original="#000000" style=""/></g></g></svg>
