<?xml version="1.0"?>
<svg xmlns="http://www.w3.org/2000/svg" xmlns:xlink="http://www.w3.org/1999/xlink" xmlns:svgjs="http://svgjs.com/svgjs" version="1.1" width="512" height="512" x="0" y="0" viewBox="0 0 512 512" style="enable-background:new 0 0 512 512" xml:space="preserve" class=""><g><g xmlns="http://www.w3.org/2000/svg"><g><path d="m309.502 248.521h-107.004c-12.035 0-21.827 9.792-21.827 21.827v30.547c0 12.036 9.792 21.827 21.827 21.827h107.004c12.035 0 21.827-9.792 21.827-21.827v-30.547c0-12.035-9.792-21.827-21.827-21.827zm6.827 52.374c0 3.765-3.062 6.827-6.827 6.827h-107.004c-3.764 0-6.827-3.062-6.827-6.827v-30.547c0-3.764 3.062-6.827 6.827-6.827h107.004c3.765 0 6.827 3.062 6.827 6.827z" fill="#ffffff" data-original="#000000" style="" class=""/><path d="m512 161.467c0-35.637-28.993-64.629-64.63-64.629h-94.006v-39.111c0-24.846-20.214-45.06-45.06-45.06h-104.609c-24.846 0-45.06 20.214-45.06 45.06v39.111h-94.005c-35.637-.001-64.63 28.992-64.63 64.629v273.236c0 35.637 28.993 64.63 64.63 64.63h382.74c35.637 0 64.63-28.993 64.63-64.63 0-15.012 0-263.147 0-273.236zm-338.364-103.74c0-16.575 13.485-30.06 30.06-30.06h104.609c16.575 0 30.06 13.485 30.06 30.06v39.111h-164.729zm323.364 376.976c0 27.366-22.264 49.63-49.63 49.63h-382.74c-27.366 0-49.63-22.264-49.63-49.63v-178.995c4.415 5.251 9.695 9.818 15.698 13.436 17.78 9.131 33.188 25.412 63.318 25.412h59.092c4.142 0 7.5-3.358 7.5-7.5s-3.358-7.5-7.5-7.5h-59.091c-24.831 0-37.424-13.764-55.576-23.259-14.459-8.714-23.441-24.613-23.441-41.495v-53.335c0-27.366 22.264-49.63 49.63-49.63h382.74c27.366 0 49.63 22.264 49.63 49.629v53.335c0 16.881-8.981 32.781-23.44 41.494-18.492 9.672-30.653 23.259-55.576 23.259h-59.092c-4.143 0-7.5 3.358-7.5 7.5s3.357 7.5 7.5 7.5h59.092c30.085 0 45.847-16.439 63.318-25.412 6.004-3.618 11.283-8.185 15.698-13.436z" fill="#ffffff" data-original="#000000" style="" class=""/></g></g></g></svg>
