<?xml version="1.0"?>
<svg xmlns="http://www.w3.org/2000/svg" xmlns:xlink="http://www.w3.org/1999/xlink" xmlns:svgjs="http://svgjs.com/svgjs" version="1.1" width="512" height="512" x="0" y="0" viewBox="0 0 512 512" style="enable-background:new 0 0 512 512" xml:space="preserve"><g><g xmlns="http://www.w3.org/2000/svg"><g><g><g><circle cx="70" cy="56.874" r="7.559" fill="#ffffff" data-original="#000000" style=""/><circle cx="111.535" cy="56.874" r="7.559" fill="#ffffff" data-original="#000000" style=""/><circle cx="153.069" cy="56.874" r="7.559" fill="#ffffff" data-original="#000000" style=""/></g></g></g><g><path d="m469.5 49.373h-120.988c-4.143 0-7.5 3.357-7.5 7.5s3.357 7.5 7.5 7.5h120.988c4.143 0 7.5-3.357 7.5-7.5s-3.357-7.5-7.5-7.5z" fill="#ffffff" data-original="#000000" style=""/><path d="m470.707 5.942h-429.414c-22.77 0-41.293 18.525-41.293 41.294v417.527c0 22.77 18.523 41.294 41.293 41.294h429.414c22.77 0 41.293-18.524 41.293-41.294v-417.527c0-22.769-18.523-41.294-41.293-41.294zm26.293 458.822c0 14.498-11.795 26.294-26.293 26.294h-429.414c-14.498 0-26.293-11.796-26.293-26.294v-417.528c0-14.498 11.795-26.294 26.293-26.294h429.414c14.498 0 26.293 11.796 26.293 26.294z" fill="#ffffff" data-original="#000000" style=""/><path d="m455.662 89.333h-325.307c-4.143 0-7.5 3.357-7.5 7.5s3.357 7.5 7.5 7.5h325.307c3.495 0 6.338 2.844 6.338 6.339v339.047c0 3.495-2.843 6.339-6.338 6.339h-399.323c-3.495 0-6.339-2.844-6.339-6.339v-339.047c0-3.495 2.844-6.339 6.339-6.339h38.954c4.143 0 7.5-3.357 7.5-7.5s-3.357-7.5-7.5-7.5h-38.954c-11.767 0-21.339 9.572-21.339 21.339v339.047c0 11.767 9.572 21.339 21.339 21.339h399.323c11.766 0 21.338-9.572 21.338-21.339v-339.047c0-11.767-9.572-21.339-21.338-21.339z" fill="#ffffff" data-original="#000000" style=""/><path d="m292.328 231.912-67.463-24.896c-6.652-2.455-14.098-1.494-19.913 2.572l-125.678 87.925c-3.395 2.375-4.221 7.051-1.847 10.444 2.383 3.406 7.06 4.214 10.445 1.847l125.678-87.924c1.789-1.25 4.078-1.544 6.122-.791l67.464 24.896c6.658 2.457 14.1 1.494 19.913-2.572l96.816-67.734-2.311 20.367c-.467 4.116 2.491 7.831 6.606 8.298.287.032.572.049.855.049 3.763 0 7.008-2.827 7.442-6.655l4.186-36.892c.461-4.1-2.49-7.775-6.518-8.287l-36.839-4.627c-4.102-.518-7.859 2.396-8.376 6.507-.517 4.109 2.396 7.86 6.507 8.376l17.521 2.2-94.49 66.106c-1.785 1.249-4.074 1.545-6.12.791z" fill="#ffffff" data-original="#000000" style=""/><path d="m147.639 349.66h-27.356c-7.729 0-14.018 6.288-14.018 14.018v31.155h-22.692c-4.143 0-7.5 3.357-7.5 7.5s3.357 7.5 7.5 7.5h344.854c4.143 0 7.5-3.357 7.5-7.5s-3.357-7.5-7.5-7.5h-22.691v-76.122c0-4.143-3.357-7.5-7.5-7.5s-7.5 3.357-7.5 7.5v76.122h-25.393v-139.013h25.393v27.827c0 4.143 3.357 7.5 7.5 7.5s7.5-3.357 7.5-7.5v-28.81c0-7.729-6.288-14.018-14.018-14.018h-27.356c-7.729 0-14.019 6.288-14.019 14.018v139.995h-25.967v-66.03c0-7.729-6.288-14.019-14.018-14.019h-27.356c-7.729 0-14.019 6.289-14.019 14.019v66.03h-25.967v-100.217c0-7.729-6.289-14.018-14.019-14.018h-27.356c-7.729 0-14.018 6.288-14.018 14.018v100.218h-25.967v-31.155c.001-7.73-6.288-14.018-14.017-14.018zm-26.374 15h25.393v30.173h-25.393zm162.718-34.876h25.393v65.049h-25.393zm-81.359-34.186h25.393v99.235h-25.393z" fill="#ffffff" data-original="#000000" style=""/></g></g></g></svg>
