<?xml version="1.0"?>
<svg xmlns="http://www.w3.org/2000/svg" xmlns:xlink="http://www.w3.org/1999/xlink" xmlns:svgjs="http://svgjs.com/svgjs" version="1.1" width="512" height="512" x="0" y="0" viewBox="0 0 513.174 513.174" style="enable-background:new 0 0 512 512" xml:space="preserve" class=""><g><g xmlns="http://www.w3.org/2000/svg"><path d="m497.959 65.075v-9.055c0-9.791-7.965-17.756-17.755-17.756h-173.944v-8.444c0-16.443-13.377-29.82-29.82-29.82h-39.705c-16.443 0-29.82 13.377-29.82 29.82v8.444h-173.945c-9.791 0-17.755 7.965-17.755 17.756v9.056c0 7.108 4.208 13.237 10.255 16.071v270.795c-6.047 2.834-10.255 8.963-10.255 16.071v9.056c0 9.791 7.965 17.755 17.755 17.755h62.674c4.142 0 7.5-3.358 7.5-7.5s-3.358-7.5-7.5-7.5h-62.674c-1.52 0-2.755-1.236-2.755-2.755v-9.056c0-1.52 1.236-2.756 2.755-2.756h447.233c1.52 0 2.755 1.236 2.755 2.756v9.056c0 1.52-1.236 2.755-2.755 2.755h-352.57c-4.142 0-7.5 3.358-7.5 7.5s3.358 7.5 7.5 7.5h45.389v14.359c0 7.165 3.885 13.424 9.648 16.829l-29.918 76.942c-1.501 3.861.412 8.207 4.272 9.708.894.347 1.812.512 2.716.512 3.003 0 5.838-1.816 6.992-4.784l30.973-79.655h117.761l30.973 79.655c1.154 2.967 3.989 4.784 6.992 4.784.904 0 1.823-.165 2.716-.512 3.86-1.501 5.773-5.848 4.272-9.708l-30.109-77.434c5.317-3.498 8.839-9.511 8.839-16.337v-14.359h141.053c9.791 0 17.755-7.965 17.755-17.755v-9.056c0-7.108-4.208-13.237-10.255-16.071v-270.796c6.049-2.834 10.257-8.963 10.257-16.071zm-173.808 344.108c0 2.51-2.042 4.553-4.553 4.553h-127.022c-2.51 0-4.553-2.042-4.553-4.553v-14.359h136.128zm-102.236-379.363c0-8.172 6.648-14.82 14.82-14.82h39.705c8.172 0 14.82 6.648 14.82 14.82v8.444h-69.345zm-191.7 26.2c0-1.52 1.236-2.756 2.755-2.756h447.233c1.52 0 2.755 1.236 2.755 2.756v9.056c0 1.52-1.236 2.756-2.755 2.756h-51.848c-4.142 0-7.5 3.358-7.5 7.5s3.358 7.5 7.5 7.5h44.348v267.426h-432.233v-267.427h355.896c4.142 0 7.5-3.358 7.5-7.5s-3.358-7.5-7.5-7.5h-363.396c-1.52 0-2.755-1.236-2.755-2.756z" fill="#ffffff" data-original="#000000" style="" class=""/><path d="m237.259 440.209h-20.134c-4.454 0-8.375 2.682-9.991 6.834l-21.74 55.911c-1.501 3.861.412 8.208 4.272 9.708.894.347 1.812.512 2.716.512 3.003 0 5.838-1.816 6.992-4.784l20.679-53.182h12.926v50.463c0 4.142 3.358 7.5 7.5 7.5s7.5-3.358 7.5-7.5v-54.744c-.001-5.909-4.809-10.718-10.72-10.718z" fill="#ffffff" data-original="#000000" style="" class=""/><path d="m306.041 447.042c-1.615-4.151-5.537-6.833-9.991-6.833h-20.134c-5.911 0-10.72 4.809-10.72 10.719v54.744c0 4.142 3.358 7.5 7.5 7.5s7.5-3.358 7.5-7.5v-50.463h12.926l20.679 53.182c1.154 2.967 3.989 4.784 6.992 4.784.904 0 1.823-.165 2.716-.512 3.86-1.501 5.773-5.848 4.272-9.708z" fill="#ffffff" data-original="#000000" style="" class=""/><path d="m324.964 172.445h-15.414v-11.523c0-24.687-20.084-44.771-44.771-44.771h-92.949c-24.687 0-44.771 20.084-44.771 44.771v93.209c0 5.171 2.862 9.843 7.469 12.191 1.974 1.006 4.104 1.503 6.224 1.503 2.829 0 5.638-.884 8.029-2.621l12.593-9.141h25.871v11.523c0 24.688 20.084 44.772 44.771 44.772h103.405l12.592 9.141c2.392 1.737 5.201 2.621 8.03 2.62 2.12 0 4.25-.497 6.224-1.502 4.607-2.349 7.469-7.02 7.469-12.191v-93.209c0-24.687-20.084-44.772-44.772-44.772zm29.772 135.4-12.475-9.055c-1.281-.93-2.823-1.431-4.406-1.431h-105.84c-16.416 0-29.771-13.355-29.771-29.772v-11.523h22.251c4.142 0 7.5-3.358 7.5-7.5s-3.358-7.5-7.5-7.5h-65.557c-1.583 0-3.125.501-4.406 1.431l-12.475 9.055v-90.628c0-16.416 13.355-29.771 29.771-29.771h92.949c16.416 0 29.771 13.355 29.771 29.771v50.37c0 16.417-13.355 29.772-29.771 29.772h-8.294c-4.142 0-7.5 3.358-7.5 7.5s3.358 7.5 7.5 7.5h8.294c24.687 0 44.771-20.084 44.771-44.772v-23.847h15.414c16.417 0 29.772 13.355 29.772 29.771v90.629z" fill="#ffffff" data-original="#000000" style="" class=""/></g></g></svg>
