<?xml version="1.0"?>
<svg xmlns="http://www.w3.org/2000/svg" xmlns:xlink="http://www.w3.org/1999/xlink" xmlns:svgjs="http://svgjs.com/svgjs" version="1.1" width="512" height="512" x="0" y="0" viewBox="0 0 512 512" style="enable-background:new 0 0 512 512" xml:space="preserve"><g><g xmlns="http://www.w3.org/2000/svg"><g><path d="m452.454 0h-392.908c-32.834 0-59.546 26.712-59.546 59.546v392.908c0 32.834 26.712 59.546 59.546 59.546h392.908c32.834 0 59.546-26.712 59.546-59.546v-392.908c0-32.834-26.712-59.546-59.546-59.546zm44.546 452.454c0 24.563-19.983 44.546-44.546 44.546h-392.908c-24.563 0-44.546-19.983-44.546-44.546v-392.908c0-24.563 19.983-44.546 44.546-44.546h392.908c24.563 0 44.546 19.983 44.546 44.546z" fill="#ffffff" data-original="#000000" style=""/><path d="m289.047 224.398h-3.535v-137.397c0-16.272-13.239-29.511-29.512-29.511s-29.511 13.238-29.511 29.511v137.397h-3.24c-17.425 0-31.601 14.177-31.601 31.602s14.176 31.602 31.601 31.602h3.24v137.397c0 16.272 13.239 29.511 29.512 29.511s29.511-13.238 29.511-29.511v-137.397h3.535c17.425 0 31.602-14.177 31.602-31.602s-14.177-31.602-31.602-31.602zm-47.558-137.397c0-8.001 6.51-14.511 14.512-14.511 8.001 0 14.511 6.51 14.511 14.511v137.397h-29.023zm29.023 337.998c0 8.001-6.51 14.511-14.512 14.511-8.001 0-14.511-6.51-14.511-14.511v-137.397h29.023zm18.535-152.397h-65.798c-9.154 0-16.601-7.447-16.601-16.602s7.447-16.602 16.601-16.602h65.798c9.154 0 16.602 7.447 16.602 16.602s-7.448 16.602-16.602 16.602z" fill="#ffffff" data-original="#000000" style=""/><path d="m153.807 113.348h-3.388v-26.347c0-16.272-13.239-29.511-29.512-29.511-16.272 0-29.511 13.238-29.511 29.511v26.347h-3.387c-17.425 0-31.601 14.176-31.601 31.601s14.176 31.602 31.601 31.602h3.387v174.476c0 4.143 3.358 7.5 7.5 7.5s7.5-3.357 7.5-7.5v-174.477h29.023v248.449c0 8.001-6.51 14.511-14.512 14.511-8.001 0-14.511-6.51-14.511-14.511v-38.911c0-4.143-3.358-7.5-7.5-7.5s-7.5 3.357-7.5 7.5v38.911c0 16.272 13.239 29.511 29.512 29.511 16.272 0 29.511-13.238 29.511-29.511v-248.449h3.388c17.425 0 31.601-14.177 31.601-31.602s-14.177-31.6-31.601-31.6zm-47.411-26.347c0-8.001 6.51-14.511 14.512-14.511 8.001 0 14.511 6.51 14.511 14.511v26.347h-29.023zm47.411 74.549c-9.259 0-56.422 0-65.798 0-9.154 0-16.601-7.447-16.601-16.602 0-9.153 7.447-16.601 16.601-16.601h65.798c9.154 0 16.601 7.447 16.601 16.601 0 9.155-7.448 16.602-16.601 16.602z" fill="#ffffff" data-original="#000000" style=""/><path d="m423.991 335.45h-3.388v-174.476c0-4.143-3.357-7.5-7.5-7.5s-7.5 3.357-7.5 7.5v174.476h-29.022v-248.449c0-8.001 6.51-14.511 14.511-14.511 8.002 0 14.512 6.51 14.512 14.511v38.91c0 4.143 3.357 7.5 7.5 7.5s7.5-3.357 7.5-7.5v-38.91c0-16.272-13.239-29.511-29.512-29.511s-29.511 13.238-29.511 29.511v248.449h-3.388c-17.425 0-31.601 14.177-31.601 31.602s14.176 31.601 31.601 31.601h3.388v26.347c0 16.272 13.238 29.511 29.511 29.511s29.512-13.238 29.512-29.511v-26.347h3.388c17.425 0 31.602-14.176 31.602-31.601s-14.178-31.602-31.603-31.602zm-18.387 89.549c0 8.001-6.51 14.511-14.512 14.511-8.001 0-14.511-6.51-14.511-14.511v-26.347h29.022v26.347zm18.387-41.347h-65.798c-9.153 0-16.601-7.447-16.601-16.601s7.447-16.602 16.601-16.602h65.798c9.154 0 16.602 7.447 16.602 16.602 0 9.154-7.447 16.601-16.602 16.601z" fill="#ffffff" data-original="#000000" style=""/></g></g></g></svg>
