<?xml version="1.0"?>
<svg xmlns="http://www.w3.org/2000/svg" xmlns:xlink="http://www.w3.org/1999/xlink" xmlns:svgjs="http://svgjs.com/svgjs" version="1.1" width="512" height="512" x="0" y="0" viewBox="0 0 512 512" style="enable-background:new 0 0 512 512" xml:space="preserve"><g><g xmlns="http://www.w3.org/2000/svg"><g><path d="m151.337 256c0 63.025 51.261 114.634 114.634 114.634 63.272 0 114.634-51.512 114.634-114.634 0-63.209-51.424-114.634-114.634-114.634s-114.634 51.425-114.634 114.634zm114.634 99.634c-28.826 0-54.827-12.31-73.036-31.943 4.771-24.765 21.619-45.225 45.003-54.707 7.788 5.942 17.504 9.48 28.033 9.48s20.245-3.539 28.033-9.48c23.384 9.483 40.232 29.942 45.003 54.707-18.209 19.633-44.21 31.943-73.036 31.943zm-31.316-123.487c0-17.268 14.048-31.315 31.316-31.315s31.316 14.048 31.316 31.315-14.048 31.316-31.316 31.316-31.316-14.048-31.316-31.316zm130.95 23.853c0 19.333-5.541 37.393-15.109 52.688-7.712-22.481-24.073-40.948-45.704-51.326 4.733-7.262 7.495-15.919 7.495-25.214 0-25.538-20.777-46.315-46.316-46.315s-46.316 20.777-46.316 46.315c0 9.295 2.762 17.952 7.495 25.214-21.63 10.378-37.992 28.845-45.703 51.327-9.568-15.295-15.109-33.355-15.109-52.688 0-54.938 44.695-99.634 99.634-99.634s99.633 44.695 99.633 99.633z" fill="#ffffff" data-original="#000000" style=""/><path d="m474.534 128.008v-65.053c0-15.7-12.773-28.474-28.473-28.474h-10.911c-3.038-19.505-19.948-34.481-40.293-34.481h-316.611c-22.486 0-40.78 18.294-40.78 40.779v430.441c0 22.486 18.294 40.78 40.78 40.78h316.612c22.486 0 40.78-18.294 40.78-40.779v-25.609c0-4.143-3.358-7.5-7.5-7.5s-7.5 3.357-7.5 7.5v25.609c0 14.215-11.565 25.779-25.78 25.779h-274.699v-383.978c0-4.143-3.358-7.5-7.5-7.5s-7.5 3.357-7.5 7.5v383.978h-26.913c-14.215 0-25.779-11.564-25.779-25.779v-430.442c-.001-14.215 11.564-25.779 25.779-25.779h26.913v62.939c0 4.143 3.358 7.5 7.5 7.5s7.5-3.357 7.5-7.5v-62.939h274.699c14.215 0 25.78 11.564 25.78 25.779v369.839c0 4.143 3.358 7.5 7.5 7.5s7.5-3.357 7.5-7.5v-40.14h10.423c15.7 0 28.473-12.772 28.473-28.473v-65.053c0-8.292-3.565-15.765-9.239-20.973 5.675-5.208 9.239-12.681 9.239-20.973v-65.053c0-8.292-3.565-15.765-9.239-20.973 5.674-5.208 9.239-12.681 9.239-20.972zm-15 213.998c0 7.429-6.044 13.473-13.473 13.473h-10.423v-91.999h10.423c7.429 0 13.473 6.044 13.473 13.474zm0-106.999c0 7.429-6.044 13.473-13.473 13.473h-10.423v-92h10.423c7.429 0 13.473 6.044 13.473 13.474zm0-106.999c0 7.429-6.044 13.473-13.473 13.473h-10.423v-92h10.423c7.429 0 13.473 6.044 13.473 13.474z" fill="#ffffff" data-original="#000000" style=""/></g></g></g></svg>
