<?xml version="1.0"?>
<svg xmlns="http://www.w3.org/2000/svg" xmlns:xlink="http://www.w3.org/1999/xlink" xmlns:svgjs="http://svgjs.com/svgjs" version="1.1" width="512" height="512" x="0" y="0" viewBox="0 0 508.432 508.432" style="enable-background:new 0 0 512 512" xml:space="preserve"><g><g xmlns="http://www.w3.org/2000/svg"><path d="m127.52 377.181c-25.017 22.123-39.365 53.963-39.365 87.357v36.394c0 4.143 3.358 7.5 7.5 7.5s7.5-3.357 7.5-7.5v-36.394c0-29.099 12.502-56.844 34.301-76.121 3.103-2.744 3.394-7.483.65-10.587-2.744-3.102-7.484-3.394-10.586-.649z" fill="#ffffff" data-original="#000000" style=""/><path d="m360.823 363.46-70.526-40.585v-11.884c8.766-3.939 16.908-9.329 24.093-16.043 3.026-2.828 3.188-7.574.359-10.601-2.829-3.026-7.575-3.188-10.601-.358-13.603 12.711-31.336 19.712-49.933 19.712-40.345 0-73.168-32.823-73.168-73.168v-73.918l19.485-5.406c7.702-2.135 15.873-2.248 23.628-.324l18.649 4.626c12.735 3.159 25.887 2.21 38.036-2.746 7.246-2.956 15.184-4.034 22.958-3.13l23.579 2.754v78.144c0 10.367-2.144 20.411-6.371 29.854-1.693 3.78 0 8.217 3.78 9.909.996.446 2.036.657 3.061.657 2.866 0 5.603-1.652 6.85-4.438 5.097-11.382 7.681-23.488 7.681-35.982v-6.335h4.344c14.683 0 26.628-11.945 26.628-26.628 0-8.382-3.897-15.868-9.97-20.752l7.469-27.989c8.238-4.926 14.772-12.673 17.982-22.23 6.155-18.33-1.058-38.191-17.542-48.301l-15.333-9.402-.288-.962c-9.001-30.056-37.164-49.986-68.513-48.454-1.838.097-3.704-.283-5.374-1.078l-22.765-10.843c-21.872-10.418-46.781-10.053-68.339 1.005-21.545 11.05-36.372 31.05-40.682 54.875l-18.234 16.649c-16.64 15.192-19.837 39.953-7.602 58.874 3.846 5.948 8.862 10.757 14.589 14.272l6.293 23.583c-6.073 4.885-9.97 12.37-9.97 20.752 0 14.683 11.945 26.628 26.628 26.628h4.344v6.335c0 35.377 20.947 65.949 51.086 79.979v12.363l-60.226 34.657c-3.59 2.066-4.826 6.651-2.76 10.242 1.388 2.411 3.912 3.76 6.507 3.76 1.269 0 2.555-.322 3.734-1l53.172-30.597c2.699 17.527 17.884 30.991 36.154 30.991s33.455-13.464 36.154-30.991l63.471 36.525c31.418 18.079 50.935 51.828 50.935 88.077v36.394c0 4.143 3.358 7.5 7.5 7.5s7.5-3.357 7.5-7.5v-36.394c.002-41.599-22.396-80.33-58.452-101.078zm-14.095-154.262h-4.344v-23.256h4.344c6.412 0 11.628 5.216 11.628 11.628s-5.216 11.628-11.628 11.628zm2.665-38.122c-.877-.088-1.765-.134-2.665-.134h-4.344v-16.801l2.56.299c2.991.35 5.962.362 8.871.065zm-207.513-79.91 20.108-18.359c1.215-1.11 2.032-2.588 2.324-4.208l.443-2.457c3.464-19.204 15.41-35.325 32.773-44.23 8.959-4.595 18.634-6.897 28.324-6.897 9.089 0 18.192 2.027 26.719 6.089l22.766 10.843c3.9 1.857 8.246 2.73 12.553 2.518 24.435-1.19 46.396 14.345 53.414 37.775l1.109 3.705c.529 1.768 1.691 3.277 3.265 4.242l17.776 10.9c10.49 6.434 15.081 19.073 11.164 30.738-3.928 11.699-15.67 19.152-27.933 17.718l-41.138-4.806c-10.282-1.203-20.781.229-30.365 4.14-9.184 3.746-19.128 4.466-28.758 2.076l-18.649-4.626c-10.258-2.544-21.064-2.396-31.25.43l-25.506 7.077c-13.104 3.631-26.872-1.596-34.256-13.016-8.243-12.744-6.09-29.42 5.117-39.652zm14.062 68.305c2.203.326 4.434.511 6.687.511 1.136 0 2.277-.052 3.419-.137v11.097h-4.344c-.899 0-1.788.046-2.665.134zm5.762 49.727c-6.412 0-11.628-5.216-11.628-11.628s5.216-11.628 11.628-11.628h4.344v23.256zm92.012 146.729c-11.9 0-21.582-9.682-21.582-21.581v-18.446c7.059 1.827 14.459 2.8 22.082 2.8 7.178 0 14.247-.875 21.082-2.555v18.2c0 11.901-9.682 21.582-21.582 21.582z" fill="#ffffff" data-original="#000000" style=""/><path d="m487.577 271.48-31.868-31.689c-3.797-3.774-9.974-3.775-13.772 0l-31.869 31.691c-2.814 2.799-3.654 6.979-2.14 10.648s5.058 6.04 9.027 6.04h9.701c-.909 15.556-6.22 30.333-15.497 43.001l-3.352 4.577c-2.789 3.809-2.628 9.003.39 12.632 2.004 2.41 4.916 3.707 7.892 3.706 1.506 0 3.028-.332 4.457-1.02l12.268-5.906c22.039-10.612 36.64-32.718 37.944-56.99h9.935c3.969 0 7.512-2.371 9.026-6.04 1.515-3.669.675-7.849-2.14-10.648-.001-.001-.002-.001-.002-.002zm-24.225 1.69c-4.142 0-7.5 3.357-7.5 7.5v3.955c0 18.585-10.093 35.895-26.021 45.15 7.858-14.158 11.965-29.994 11.965-46.422v-2.684c0-4.143-3.358-7.5-7.5-7.5h-4.653l19.18-19.073 19.181 19.073h-4.652z" fill="#ffffff" data-original="#000000" style=""/><path d="m448.134 226.957c32.421 0 58.797-26.376 58.797-58.797s-26.376-58.797-58.797-58.797-58.797 26.376-58.797 58.797 26.376 58.797 58.797 58.797zm0-102.594c24.15 0 43.797 19.647 43.797 43.797s-19.647 43.797-43.797 43.797-43.797-19.647-43.797-43.797 19.647-43.797 43.797-43.797z" fill="#ffffff" data-original="#000000" style=""/><path d="m100.236 348.38c3.018-3.629 3.178-8.823.389-12.633l-3.352-4.576c-9.277-12.668-14.588-27.445-15.497-43.001h9.701c3.969 0 7.513-2.371 9.027-6.04 1.515-3.669.675-7.85-2.141-10.65l-31.868-31.689c-3.797-3.774-9.974-3.775-13.772 0l-31.868 31.689c0 .001 0 .001-.001.002-2.814 2.8-3.654 6.979-2.14 10.648s5.057 6.04 9.026 6.04h9.935c1.304 24.272 15.905 46.378 37.944 56.99l12.267 5.906c1.429.688 2.951 1.02 4.457 1.02 2.976 0 5.889-1.295 7.893-3.706zm-21.635-18.604c-15.928-9.256-26.021-26.565-26.021-45.15v-3.955c0-4.143-3.358-7.5-7.5-7.5h-4.651l19.181-19.073 19.18 19.073h-4.653c-4.142 0-7.5 3.357-7.5 7.5v2.684c-.001 16.427 4.105 32.262 11.964 46.421z" fill="#ffffff" data-original="#000000" style=""/><path d="m60.299 226.957c32.42 0 58.796-26.376 58.796-58.797s-26.376-58.797-58.796-58.797c-8.271 0-16.289 1.698-23.832 5.048-3.786 1.681-5.492 6.112-3.811 9.898 1.681 3.785 6.115 5.493 9.898 3.811 5.615-2.493 11.585-3.757 17.745-3.757 24.149 0 43.796 19.647 43.796 43.797s-19.647 43.797-43.796 43.797c-24.15 0-43.797-19.647-43.797-43.797 0-7.461 1.917-14.835 5.545-21.325 2.021-3.616.728-8.186-2.888-10.206-3.617-2.022-8.185-.729-10.206 2.888-4.875 8.722-7.451 18.627-7.451 28.644 0 32.42 26.376 58.796 58.797 58.796z" fill="#ffffff" data-original="#000000" style=""/><path d="m52.949 194.482c1.919 0 3.839-.732 5.303-2.196l29.259-29.259c2.929-2.93 2.929-7.678 0-10.607-2.929-2.928-7.678-2.928-10.606 0l-23.956 23.956-3.237-3.237c-2.929-2.928-7.678-2.928-10.606 0-2.929 2.93-2.929 7.678 0 10.607l8.54 8.54c1.464 1.464 3.384 2.196 5.303 2.196z" fill="#ffffff" data-original="#000000" style=""/><path d="m427.375 190.07c1.448 1.359 3.292 2.032 5.132 2.032 1.999 0 3.993-.794 5.469-2.366l9.621-10.247 9.621 10.247c1.477 1.572 3.471 2.366 5.469 2.366 1.84 0 3.685-.673 5.132-2.032 3.02-2.836 3.169-7.582.334-10.602l-10.269-10.937 10.269-10.937c2.835-3.02 2.686-7.766-.334-10.602-3.019-2.835-7.765-2.687-10.602.334l-9.621 10.247-9.621-10.247c-2.836-3.02-7.581-3.17-10.602-.334-3.02 2.836-3.169 7.582-.334 10.602l10.269 10.937-10.269 10.937c-2.833 3.02-2.683 7.766.336 10.602z" fill="#ffffff" data-original="#000000" style=""/></g></g></svg>
