<?xml version="1.0"?>
<svg xmlns="http://www.w3.org/2000/svg" xmlns:xlink="http://www.w3.org/1999/xlink" xmlns:svgjs="http://svgjs.com/svgjs" version="1.1" width="512" height="512" x="0" y="0" viewBox="0 0 512 512" style="enable-background:new 0 0 512 512" xml:space="preserve"><g><g xmlns="http://www.w3.org/2000/svg"><path d="m506.678 132.429-24.574-34.599c-2.399-3.378-7.082-4.171-10.457-1.772-3.377 2.398-4.17 7.08-1.772 10.457l24.574 34.599c.123.173.231.352.345.529h-140.081l69.909-98.799c.08.106.172.201.25.31l24.646 34.699c2.398 3.377 7.081 4.169 10.457 1.772 3.377-2.399 4.17-7.08 1.772-10.457l-24.646-34.699c-5.434-7.651-14.298-12.113-23.46-12.113h-315.629c-9.254 0-18.106 4.539-23.497 12.164l-69.233 97.932c-7.131 10.088-7.034 23.574.242 33.558l227.23 311.806c11.49 15.767 35.016 15.774 46.51 0l227.208-311.778c7.294-10.007 7.377-23.514.206-33.609zm-96.546-95.074-69.913 98.804-69.913-98.804zm-84.407 104.289h-139.826l69.913-98.804zm-84.408-104.289-69.912 98.804-69.912-98.804zm-223.786 103.755 69.233-97.931c.078-.11.171-.207.252-.314l69.895 98.779h-139.727c.115-.179.223-.36.347-.534zm238.461 324.079-39.203-161.185c-.979-4.024-5.035-6.494-9.06-5.515s-6.494 5.035-5.515 9.06l37.561 154.434-222.128-304.807c-.127-.174-.239-.354-.357-.533h148.22l28.415 116.83c.834 3.429 3.902 5.729 7.282 5.729.586 0 1.183-.069 1.778-.214 4.025-.979 6.494-5.035 5.515-9.06l-27.553-113.285h149.739zm238.359-307.985-222.17 304.864 73.94-305.425h148.606c-.124.188-.243.378-.376.561z" fill="#ffffff" data-original="#000000" style=""/></g></g></svg>
