<?xml version="1.0"?>
<svg xmlns="http://www.w3.org/2000/svg" xmlns:xlink="http://www.w3.org/1999/xlink" xmlns:svgjs="http://svgjs.com/svgjs" version="1.1" width="512" height="512" x="0" y="0" viewBox="0 0 512.519 512.519" style="enable-background:new 0 0 512 512" xml:space="preserve" class=""><g><g xmlns="http://www.w3.org/2000/svg"><path d="m325.427 112.761h-42.667c-4.143 0-7.5 3.358-7.5 7.5v35.932c0 4.142 3.357 7.5 7.5 7.5s7.5-3.358 7.5-7.5v-28.432h37.021c5.292 0 10.081-2.925 12.498-7.633s2.001-10.304-1.084-14.604l-71.522-99.667c-2.633-3.668-6.899-5.857-11.413-5.857s-8.78 2.189-11.413 5.857l-71.522 99.666c-3.085 4.3-3.501 9.896-1.084 14.604s7.206 7.633 12.498 7.633h37.021v138.362c-25.218-35.543-56.724-66.847-92.412-91.637l19.9-31.29c2.841-4.465 2.943-10.076.268-14.642-2.677-4.567-7.628-7.223-12.906-6.923l-122.48 6.863c-4.507.252-8.645 2.677-11.067 6.485-2.423 3.809-2.865 8.584-1.184 12.775l15.271 38.026c1.544 3.845 5.914 5.708 9.755 4.165 3.844-1.543 5.708-5.911 4.165-9.754l-14.777-36.795 119.304-6.685-22.808 35.862c-2.191 3.444-1.225 8.008 2.174 10.27 42.78 28.459 79.665 66.585 106.798 110.343v92.78c-6.166-19.512-14.181-38.451-23.979-56.485-24.692-45.454-60.473-84.716-103.473-113.542-1.678-1.126-3.742-1.525-5.716-1.111-1.978.416-3.704 1.61-4.788 3.315l-22.983 36.137-17.382-43.284c-1.544-3.845-5.911-5.707-9.755-4.165-3.844 1.544-5.708 5.911-4.165 9.755l18.073 45.005c1.973 4.911 6.472 8.265 11.741 8.753 5.262.483 10.308-1.983 13.148-6.449l19.804-31.136c38.177 27.023 69.997 62.801 92.315 103.882 24.309 44.748 37.158 95.316 37.158 146.239v22.138c0 4.142 3.357 7.5 7.5 7.5s7.5-3.358 7.5-7.5v-384.756c0-4.142-3.357-7.5-7.5-7.5h-42.667l69.667-97.08z" fill="#ffffff" data-original="#000000" style=""/><path d="m509.958 134.98c-2.423-3.809-6.561-6.233-11.067-6.485l-122.481-6.863c-5.278-.301-10.23 2.357-12.905 6.923-2.676 4.566-2.573 10.177.268 14.642l19.595 30.811c-35.982 24.872-67.725 56.341-93.106 92.116v-77.968c0-4.142-3.357-7.5-7.5-7.5s-7.5 3.358-7.5 7.5v316.863c0 4.142 3.357 7.5 7.5 7.5s7.5-3.358 7.5-7.5v-22.138c0-50.923 12.85-101.492 37.159-146.24 1.198-2.207 2.491-4.507 3.951-7.032 2.073-3.586.847-8.174-2.739-10.247-3.583-2.073-8.172-.848-10.247 2.738-1.527 2.642-2.884 5.056-4.146 7.381-9.798 18.034-17.813 36.973-23.979 56.485v-92.78c27.281-43.998 64.406-82.281 107.487-110.799 3.409-2.257 4.383-6.829 2.188-10.279l-22.512-35.397 119.304 6.685-44.529 110.884-23.279-36.602c-1.082-1.702-2.805-2.896-4.777-3.313-1.972-.418-4.031-.022-5.71 1.097-31.949 21.293-59.616 47.932-82.23 79.177-2.429 3.355-1.678 8.044 1.678 10.473 1.329.962 2.867 1.425 4.392 1.425 2.323 0 4.615-1.077 6.081-3.103 20.058-27.71 44.278-51.62 72.074-71.16l20.111 31.622c2.841 4.467 7.88 6.931 13.148 6.449 5.27-.488 9.769-3.842 11.741-8.753l45.715-113.838c1.68-4.19 1.238-8.965-1.185-12.774z" fill="#ffffff" data-original="#000000" style=""/></g></g></svg>
