<?xml version="1.0"?>
<svg xmlns="http://www.w3.org/2000/svg" xmlns:xlink="http://www.w3.org/1999/xlink" xmlns:svgjs="http://svgjs.com/svgjs" version="1.1" width="512" height="512" x="0" y="0" viewBox="0 0 512 512" style="enable-background:new 0 0 512 512" xml:space="preserve"><g><g xmlns="http://www.w3.org/2000/svg"><g><path d="m320.982 388.421c-18.958 13.845-41.428 21.162-64.982 21.162-60.821 0-110.304-49.482-110.304-110.304 0-23.555 7.317-46.024 21.162-64.982 2.443-3.345 1.712-8.037-1.634-10.479-3.343-2.441-8.036-1.713-10.479 1.634-15.733 21.543-24.049 47.072-24.049 73.828 0 69.093 56.211 125.304 125.304 125.304 26.756 0 52.285-8.315 73.828-24.049 3.346-2.442 4.077-7.135 1.634-10.479-2.443-3.349-7.136-4.077-10.48-1.635z" fill="#ffffff" data-original="#000000" style=""/><path d="m256 173.975c-27.197 0-53.068 8.568-74.816 24.778-3.321 2.476-4.006 7.175-1.531 10.496 2.476 3.32 7.174 4.006 10.496 1.531 19.138-14.266 41.909-21.806 65.852-21.806 60.821 0 110.304 49.482 110.304 110.305 0 24.068-7.611 46.935-22.011 66.127-2.486 3.313-1.815 8.015 1.498 10.5 3.3 2.476 8.004 1.828 10.5-1.498 16.363-21.81 25.013-47.789 25.013-75.129-.001-69.092-56.212-125.304-125.305-125.304z" fill="#ffffff" data-original="#000000" style=""/><path d="m477.032 39.812h-442.064c-19.281 0-34.968 15.686-34.968 34.967v362.441c0 19.281 15.687 34.968 34.968 34.968h442.064c19.281 0 34.968-15.687 34.968-34.968 0-19.464 0-345.77 0-362.441 0-19.281-15.687-34.967-34.968-34.967zm19.968 397.409c0 11.011-8.957 19.968-19.968 19.968h-442.064c-11.011 0-19.968-8.957-19.968-19.968v-268.705c0-14.282 11.619-25.901 25.901-25.901h283.837c15.815 0 30.361-9.259 37.057-23.589 4.24-9.074 13.451-14.938 23.467-14.938h85.837c14.282 0 25.901 11.619 25.901 25.901zm0-338.861c-7.059-5.791-16.08-9.272-25.901-9.272h-85.837c-15.815 0-30.361 9.259-37.057 23.588-4.24 9.075-13.451 14.938-23.467 14.938h-283.837c-9.821 0-18.843 3.482-25.901 9.272v-62.107c0-11.01 8.957-19.968 19.968-19.968h442.064c11.011 0 19.968 8.958 19.968 19.968z" fill="#ffffff" data-original="#000000" style=""/><path d="m318.954 292.808h-28.559v-46.068c0-8.196-6.669-14.865-14.865-14.865h-39.102c-8.217 0-14.868 6.652-14.864 14.871l.019 46.062h-28.537c-13.704 0-20.102 16.998-9.806 26.036l62.954 55.259c5.59 4.906 14.021 4.906 19.611 0l62.954-55.259c10.302-9.042 3.894-26.036-9.805-26.036zm-62.954 69.943-62.591-54.943h28.31c3.972 0 7.705-1.547 10.513-4.356 2.809-2.809 4.354-6.543 4.352-10.515l-.019-46.062h38.831v46.067c0 8.196 6.668 14.865 14.864 14.865l28.332.003z" fill="#ffffff" data-original="#000000" style=""/></g></g></g></svg>
