<?xml version="1.0"?>
<svg xmlns="http://www.w3.org/2000/svg" xmlns:xlink="http://www.w3.org/1999/xlink" xmlns:svgjs="http://svgjs.com/svgjs" version="1.1" width="512" height="512" x="0" y="0" viewBox="0 0 512 512" style="enable-background:new 0 0 512 512" xml:space="preserve"><g><g xmlns="http://www.w3.org/2000/svg"><g><path d="m405.898 294.605c-4.143 0-7.5 3.358-7.5 7.5v2.891c0 45.271-15.375 83.783-44.462 111.375-3.005 2.851-3.13 7.598-.279 10.603 2.846 3 7.592 3.135 10.604.28 32.146-30.495 49.138-72.771 49.138-122.258v-2.891c-.001-4.142-3.358-7.5-7.501-7.5z" fill="#ffffff" data-original="#000000" style=""/><path d="m365.165 85.61c-2.979-2.878-7.728-2.793-10.604.186-2.877 2.98-2.794 7.728.187 10.605 28.396 27.466 43.651 63.925 43.651 102.515v68.129c0 4.142 3.357 7.5 7.5 7.5s7.5-3.358 7.5-7.5v-68.129c-.001-42.942-17.14-83.337-48.234-113.306z" fill="#ffffff" data-original="#000000" style=""/><path d="m175.33 81.956c23.592-16.476 51.199-25.271 79.82-25.436l.859-.002c25.531 0 50.513 6.802 72.242 19.672 3.564 2.112 8.165.934 10.275-2.631 2.11-3.564.933-8.164-2.631-10.275-24.043-14.239-51.667-21.766-79.887-21.766l-.927.002c-31.696.182-62.244 9.912-88.341 28.138-3.396 2.372-4.227 7.047-1.854 10.443 2.362 3.38 7.034 4.236 10.444 1.855z" fill="#ffffff" data-original="#000000" style=""/><path d="m135.523 388.934c-14.342-22.706-21.922-48.934-21.922-75.85v-112.726c0-35.064 12.741-68.893 35.877-95.254 2.732-3.113 2.424-7.852-.689-10.584s-7.852-2.423-10.584.69c-25.539 29.099-39.604 66.441-39.604 105.148v112.726c0 29.755 8.382 58.754 24.24 83.861 1.403 2.221 2.882 4.437 4.396 6.586 2.38 3.382 7.059 4.203 10.45 1.816 3.387-2.384 4.2-7.063 1.815-10.45-1.369-1.947-2.708-3.953-3.979-5.963z" fill="#ffffff" data-original="#000000" style=""/><path d="m245.366 334.345c-8.106-4.09-13.143-12.237-13.143-21.261v-113.326c0-13.328 10.456-24.369 23.322-24.613 13.138-.273 24.218 10.35 24.218 23.771v92.311c0 4.142 3.357 7.5 7.5 7.5s7.5-3.358 7.5-7.5c0-.101.013-92.147.013-92.311 0-21.777-17.984-39.236-39.529-38.768-20.966.397-38.023 18.167-38.023 39.61v113.326c0 14.719 8.194 27.997 21.387 34.653 17.741 8.949 28.762 26.725 28.762 46.389 0 38.518-40.537 63.585-74.917 46.378-11.09-5.552-21.427-12.537-30.724-20.762-3.104-2.744-7.841-2.453-10.587.647-2.745 3.103-2.455 7.842.647 10.587 10.272 9.088 21.694 16.806 33.949 22.941 44.377 22.209 96.631-10.146 96.631-59.792 0-25.359-14.18-48.266-37.006-59.78z" fill="#ffffff" data-original="#000000" style=""/><path d="m143.845 262.348c-4.143 0-7.5 3.358-7.5 7.5v43.236c0 45.582 25.401 86.613 66.29 107.083 3.725 1.864 8.219.334 10.064-3.349 1.854-3.704.354-8.21-3.35-10.064-35.778-17.911-58.005-53.803-58.005-93.669v-43.236c.001-4.143-3.357-7.501-7.499-7.501z" fill="#ffffff" data-original="#000000" style=""/><path d="m301.359 146.397c-3.026 2.828-3.188 7.573-.36 10.6 10.653 11.404 16.521 26.292 16.521 41.918v116.579c0 4.142 3.357 7.5 7.5 7.5s7.5-3.358 7.5-7.5v-116.578c0-19.442-7.302-37.966-20.56-52.158-2.825-3.025-7.57-3.189-10.601-.361z" fill="#ffffff" data-original="#000000" style=""/><path d="m274.603 140.257c3.954 1.249 8.164-.94 9.412-4.889 1.25-3.949-.939-8.164-4.889-9.413-7.907-2.5-16.161-3.697-24.596-3.544-41.383.785-75.05 35.483-75.05 77.347v113.326c0 4.142 3.357 7.5 7.5 7.5s7.5-3.358 7.5-7.5v-113.326c0-33.749 27.066-61.719 60.325-62.35 6.78-.126 13.441.839 19.798 2.849z" fill="#ffffff" data-original="#000000" style=""/><path d="m193.257 342.917c-3.526 2.173-4.622 6.794-2.449 10.32 7.409 12.019 18.061 21.769 30.803 28.198 3.673 1.855 8.197.404 10.074-3.317 1.865-3.698.38-8.208-3.318-10.074-10.265-5.179-18.837-13.021-24.789-22.677-2.176-3.528-6.797-4.622-10.321-2.45z" fill="#ffffff" data-original="#000000" style=""/><path d="m266.368 302.481c-3.62-2.016-8.186-.714-10.201 2.906-2.014 3.619-.713 8.187 2.906 10.201 28.557 15.894 46.296 45.988 46.296 78.538 0 8.86-1.271 17.602-3.776 25.982-2.745 9.181-6.928 17.805-12.433 25.634-2.383 3.388-1.567 8.066 1.82 10.449 3.389 2.383 8.067 1.567 10.449-1.82 6.437-9.152 11.326-19.234 14.534-29.965 2.923-9.775 4.405-19.962 4.405-30.279.001-37.991-20.691-73.107-54-91.646z" fill="#ffffff" data-original="#000000" style=""/><path d="m352.925 380.032c14.87-23.6 22.73-50.508 22.73-77.817v-7.218-96.081c-.024-.105 2.312-47.38-35.336-84.811-22.599-22.469-52.543-34.844-84.315-34.844l-.703.002c-65.593.377-118.956 54.7-118.956 121.095v34.431c0 4.142 3.357 7.5 7.5 7.5s7.5-3.358 7.5-7.5v-34.431c0-58.171 46.673-105.766 104.065-106.095l.594-.001c27.782 0 53.97 10.825 73.739 30.48 19.934 19.82 30.912 46.163 30.912 74.174v96.081 7.218c0 24.475-7.062 48.619-20.422 69.82-2.208 3.504-1.157 8.136 2.348 10.344 3.481 2.195 8.122 1.179 10.344-2.347z" fill="#ffffff" data-original="#000000" style=""/><path d="m248.5 215.92v37.497c0 4.142 3.357 7.5 7.5 7.5s7.5-3.358 7.5-7.5v-37.497c0-4.142-3.357-7.5-7.5-7.5s-7.5 3.358-7.5 7.5z" fill="#ffffff" data-original="#000000" style=""/><path d="m256 0c-109.683 0-198.916 89.233-198.916 198.916v114.168c0 109.683 89.233 198.916 198.917 198.916 68.683 0 130.876-34.992 167.117-90.984 20.803-32.141 31.798-69.462 31.798-107.932v-114.168c0-109.683-89.233-198.916-198.916-198.916zm183.916 313.084c0 35.57-10.163 70.074-29.39 99.781-32.828 50.716-89.756 84.135-154.525 84.135-101.412 0-183.917-82.504-183.917-183.916v-114.168c0-101.412 82.504-183.916 183.916-183.916s183.916 82.504 183.916 183.916z" fill="#ffffff" data-original="#000000" style=""/></g></g></g></svg>
