<?xml version="1.0"?>
<svg xmlns="http://www.w3.org/2000/svg" xmlns:xlink="http://www.w3.org/1999/xlink" xmlns:svgjs="http://svgjs.com/svgjs" version="1.1" width="512" height="512" x="0" y="0" viewBox="0 0 512 512" style="enable-background:new 0 0 512 512" xml:space="preserve" class=""><g><g xmlns="http://www.w3.org/2000/svg"><g><path d="m333.751 65.865 12.026-12.026c2.929-2.929 2.929-7.678 0-10.607s-7.678-2.929-10.607 0l-12.026 12.026c-2.929 2.929-2.929 7.678 0 10.607s7.678 2.928 10.607 0z" fill="#ffffff" data-original="#000000" style="" class=""/><path d="m364.499 96.612 12.026-12.026c2.929-2.929 2.929-7.678 0-10.607s-7.678-2.929-10.607 0l-12.026 12.026c-2.929 2.929-2.929 7.678 0 10.607 2.929 2.93 7.678 2.929 10.607 0z" fill="#ffffff" data-original="#000000" style="" class=""/><path d="m395.247 127.36 12.026-12.026c2.929-2.929 2.929-7.678 0-10.607s-7.678-2.929-10.607 0l-12.026 12.026c-2.929 2.929-2.929 7.678 0 10.607s7.678 2.929 10.607 0z" fill="#ffffff" data-original="#000000" style="" class=""/><path d="m425.994 158.108 12.026-12.026c2.929-2.929 2.929-7.678 0-10.607s-7.678-2.929-10.607 0l-12.026 12.026c-2.929 2.929-2.929 7.678 0 10.607 2.93 2.929 7.678 2.929 10.607 0z" fill="#ffffff" data-original="#000000" style="" class=""/><path d="m456.742 188.856 12.026-12.026c2.929-2.929 2.929-7.678 0-10.607s-7.678-2.929-10.607 0l-12.026 12.026c-2.929 2.929-2.929 7.678 0 10.607 2.93 2.929 7.678 2.929 10.607 0z" fill="#ffffff" data-original="#000000" style="" class=""/><path d="m500.514 150.827-139.341-139.341c-15.315-15.316-40.235-15.315-55.551 0l-33.805 33.805c-.002.002-.004.003-.005.005l-35.175 35.175c-15.508 15.507-25.587 36.027-28.382 57.78-5.508 29.927-1.265 46.823-16.739 62.297l-176.106 176.106c-20.545 20.544-20.548 53.8 0 74.347l45.588 45.589c20.544 20.545 53.8 20.548 74.347 0l40.428-40.428c2.929-2.929 2.929-7.678 0-10.607s-7.678-2.929-10.607 0l-25.585 25.585-98.721-98.722 161.263-161.263c20.338-20.338 15.596-43.42 21.011-70.992 2.375-18.479 10.937-35.911 24.111-49.085l29.871-29.872 12.91 12.91c2.929 2.929 7.678 2.929 10.607 0s2.929-7.678 0-10.607l-12.91-12.91 28.507-28.506c9.466-9.466 24.87-9.466 34.337 0l139.34 139.341c9.466 9.467 9.466 24.87 0 34.337l-28.507 28.506-135.9-135.9c-2.929-2.929-7.678-2.929-10.607 0s-2.929 7.678 0 10.607l135.9 135.9-29.871 29.872c-13.174 13.173-30.605 21.736-49.084 24.111-27.564 5.413-50.654.673-70.993 21.011l-110.81 110.811c-2.929 2.929-2.929 7.678 0 10.607s7.678 2.929 10.607 0l110.81-110.811c15.46-15.46 32.517-11.258 62.298-16.739 21.752-2.795 42.272-12.875 57.779-28.382l35.175-35.175 33.81-33.81c15.315-15.317 15.315-40.237 0-55.552zm-371.539 330.92-4.236 4.236c-14.683 14.683-38.449 14.685-53.134 0l-45.588-45.589c-14.683-14.683-14.685-38.449 0-53.134l4.236-4.236z" fill="#ffffff" data-original="#000000" style="" class=""/><path d="m220.148 342.145 44.737-44.736c13.866-13.866 13.866-36.427 0-50.293-13.865-13.865-36.427-13.865-50.293 0l-44.736 44.737c-13.898 13.897-13.9 36.393 0 50.292 13.896 13.898 36.393 13.899 50.292 0zm5.05-84.423c8.016-8.015 21.061-8.018 29.079 0 8.035 8.035 8.037 21.042 0 29.079-8.017 8.017-21.062 8.017-29.079 0-8.016-8.017-8.016-21.062 0-29.079zm-44.736 44.737 24.239-24.24c1.186 7.031 4.476 13.774 9.89 19.189 5.415 5.415 12.157 8.705 19.189 9.89l-24.24 24.239c-8.036 8.036-21.042 8.037-29.079 0-8.034-8.034-8.036-21.041.001-29.078z" fill="#ffffff" data-original="#000000" style="" class=""/></g></g></g></svg>
