<?xml version="1.0"?>
<svg xmlns="http://www.w3.org/2000/svg" xmlns:xlink="http://www.w3.org/1999/xlink" xmlns:svgjs="http://svgjs.com/svgjs" version="1.1" width="512" height="512" x="0" y="0" viewBox="0 0 515.342 515.342" style="enable-background:new 0 0 512 512" xml:space="preserve" class=""><g><g xmlns="http://www.w3.org/2000/svg"><path d="m507.842 166.99h-36.238c-3.214 0-5.829-2.615-5.829-5.829v-130.896c0-3.214 2.615-5.829 5.829-5.829h36.238c4.143 0 7.5-3.358 7.5-7.5s-3.357-7.5-7.5-7.5h-36.238c-8.839 0-16.39 5.544-19.41 13.329h-23.336l-8.386-6.125c-13.93-10.175-30.41-15.553-47.66-15.553h-132.507c-15.36 0-27.857 12.497-27.857 27.858 0 6.294 2.101 12.105 5.634 16.775-8.156 4.865-13.634 13.773-13.634 23.941 0 6.294 2.101 12.106 5.635 16.776-8.157 4.865-13.635 13.773-13.635 23.941 0 4.672 1.161 9.075 3.202 12.946h-72.12c-15.36 0-27.857 12.497-27.857 27.858s12.497 27.858 27.857 27.858h102.163c4.143 0 7.5-3.358 7.5-7.5s-3.357-7.5-7.5-7.5h-102.163c-7.09 0-12.857-5.768-12.857-12.858s5.768-12.858 12.857-12.858h116.543c4.143 0 7.5-3.358 7.5-7.5 0-.015-.002-.029-.002-.044s.002-.029.002-.044c0-4.142-3.357-7.5-7.5-7.5h-19.769c-7.09 0-12.857-5.768-12.857-12.858s5.768-12.858 12.857-12.858h20.904c4.143 0 7.5-3.358 7.5-7.5s-3.357-7.5-7.5-7.5h-12.904c-7.09 0-12.857-5.768-12.857-12.858s5.768-12.858 12.857-12.858h13.257c4.143 0 7.5-3.358 7.5-7.5s-3.357-7.5-7.5-7.5h-5.257c-7.09 0-12.857-5.768-12.857-12.858s5.768-12.858 12.857-12.858h132.507c14.048 0 27.469 4.38 38.812 12.666l10.362 7.568c1.284.938 2.834 1.443 4.424 1.443h24.364v115.896h-32.912c-6.045 0-11.998 2.047-16.766 5.765l-28.338 22.099c-6.672 5.204-10.498 13.04-10.498 21.499v33.271c0 9.616-7.823 17.439-17.438 17.439s-17.438-7.823-17.438-17.439v-50.136c0-12.196-9.923-22.119-22.119-22.119h-43.539c-4.143 0-7.5 3.358-7.5 7.5s3.357 7.5 7.5 7.5h43.539c3.926 0 7.119 3.193 7.119 7.119v50.136c0 17.887 14.552 32.439 32.438 32.439s32.438-14.552 32.438-32.439v-33.271c0-3.805 1.722-7.33 4.723-9.67l28.338-22.099c2.144-1.672 4.822-2.593 7.541-2.593h34.332c3.019 7.785 10.571 13.329 19.41 13.329h36.238c4.143 0 7.5-3.358 7.5-7.5s-3.357-7.501-7.499-7.501z" fill="#ffffff" data-original="#000000" style="" class=""/><path d="m310.895 445.681c0-6.294-2.101-12.106-5.635-16.776 8.157-4.865 13.635-13.773 13.635-23.941 0-4.672-1.161-9.075-3.202-12.946h72.119c15.36 0 27.857-12.497 27.857-27.858s-12.497-27.858-27.857-27.858h-177.735c-3.925 0-7.118-3.193-7.118-7.119v-50.136c0-17.887-14.553-32.439-32.439-32.439s-32.439 14.552-32.439 32.439v33.271c0 3.805-1.721 7.33-4.722 9.67l-28.338 22.099c-2.144 1.672-4.822 2.593-7.541 2.593h-34.332c-3.019-7.785-10.571-13.329-19.41-13.329h-36.238c-4.143 0-7.5 3.358-7.5 7.5s3.357 7.5 7.5 7.5h36.238c3.214 0 5.829 2.615 5.829 5.829v55.16c0 4.142 3.357 7.5 7.5 7.5s7.5-3.358 7.5-7.5v-47.66h32.912c6.045 0 11.998-2.047 16.766-5.765l28.338-22.099c6.671-5.203 10.497-13.039 10.497-21.499v-33.271c0-9.616 7.823-17.439 17.439-17.439s17.439 7.823 17.439 17.439v50.136c0 12.196 9.922 22.119 22.118 22.119h177.734c7.09 0 12.857 5.768 12.857 12.858s-5.768 12.858-12.857 12.858h-116.541c-4.143 0-7.5 3.358-7.5 7.5 0 .015.002.029.002.044s-.002.029-.002.044c0 4.142 3.357 7.5 7.5 7.5h19.769c7.09 0 12.857 5.768 12.857 12.858s-5.768 12.858-12.857 12.858h-20.904c-4.143 0-7.5 3.358-7.5 7.5s3.357 7.5 7.5 7.5h12.904c7.09 0 12.857 5.768 12.857 12.858s-5.768 12.858-12.857 12.858h-13.258c-4.143 0-7.5 3.358-7.5 7.5s3.357 7.5 7.5 7.5h5.257c7.09 0 12.857 5.768 12.857 12.858s-5.768 12.858-12.857 12.858h-132.507c-14.048 0-27.469-4.38-38.812-12.666l-10.362-7.568c-1.284-.938-2.834-1.443-4.424-1.443h-24.365v-36.273c0-4.142-3.357-7.5-7.5-7.5s-7.5 3.358-7.5 7.5v43.773c0 3.214-2.615 5.829-5.829 5.829h-36.238c-4.143 0-7.5 3.358-7.5 7.5s3.357 7.5 7.5 7.5h36.238c8.839 0 16.39-5.544 19.41-13.329h23.336l8.386 6.125c13.93 10.175 30.41 15.553 47.66 15.553h132.507c15.36 0 27.857-12.497 27.857-27.858 0-6.294-2.101-12.105-5.634-16.775 8.157-4.864 13.635-13.773 13.635-23.94z" fill="#ffffff" data-original="#000000" style="" class=""/><path d="m477.168 312.174c-4.004-1.068-8.112 1.311-9.18 5.313-9.444 35.397-27.943 68.139-53.499 94.685-25.5 26.49-57.436 46.206-92.354 57.018-3.956 1.225-6.171 5.426-4.945 9.383.996 3.218 3.961 5.284 7.162 5.284.734 0 1.481-.109 2.221-.337 37.331-11.559 71.47-32.633 98.723-60.944 27.313-28.373 47.088-63.375 57.185-101.222 1.068-4.002-1.311-8.112-5.313-9.18z" fill="#ffffff" data-original="#000000" style="" class=""/><path d="m473.734 197.23c-4.009 1.041-6.415 5.135-5.375 9.144 4.629 17.83 6.976 36.287 6.976 54.858 0 8.405-.495 16.938-1.473 25.362-.478 4.115 2.472 7.837 6.586 8.314.294.034.585.05.874.05 3.755 0 6.997-2.815 7.44-6.636 1.043-8.996 1.572-18.11 1.572-27.09 0-19.843-2.509-39.568-7.456-58.627-1.04-4.008-5.131-6.416-9.144-5.375z" fill="#ffffff" data-original="#000000" style="" class=""/><path d="m37.998 318.354c.545 0 1.099-.06 1.653-.185 4.041-.909 6.58-4.922 5.671-8.963-3.527-15.677-5.315-31.818-5.315-47.974 0-46.738 14.592-91.281 42.197-128.812 27.061-36.79 64.176-63.749 107.333-77.961 3.935-1.295 6.073-5.535 4.778-9.47-1.297-3.934-5.536-6.073-9.47-4.777-46.135 15.193-85.806 44.005-114.724 83.32-29.514 40.126-45.114 87.742-45.114 137.7 0 17.261 1.911 34.51 5.681 51.266.785 3.487 3.879 5.856 7.31 5.856z" fill="#ffffff" data-original="#000000" style="" class=""/><path d="m93.062 177.826c-3.768-1.723-8.217-.065-9.939 3.701-11.48 25.099-17.301 51.916-17.301 79.706 0 22.494 3.863 44.535 11.483 65.509 1.106 3.048 3.984 4.941 7.05 4.941.85 0 1.715-.146 2.56-.453 3.894-1.415 5.903-5.717 4.488-9.61-7.021-19.328-10.581-39.646-10.581-60.388 0-25.622 5.363-50.34 15.941-73.467 1.723-3.766.067-8.217-3.701-9.939z" fill="#ffffff" data-original="#000000" style="" class=""/><path d="m424.527 340.069c.956.405 1.948.597 2.926.597 2.919 0 5.695-1.716 6.907-4.573 10.059-23.714 15.159-48.901 15.159-74.861 0-25.218-4.832-49.753-14.362-72.925-1.576-3.83-5.961-5.659-9.789-4.083-3.831 1.575-5.659 5.958-4.084 9.789 8.782 21.353 13.235 43.968 13.235 67.219 0 23.937-4.699 47.152-13.968 69.003-1.617 3.814.163 8.217 3.976 9.834z" fill="#ffffff" data-original="#000000" style="" class=""/><path d="m172.771 89.161c-3.298 1.63-6.561 3.359-9.696 5.14-3.603 2.045-4.865 6.623-2.82 10.225 1.381 2.433 3.918 3.799 6.529 3.799 1.255 0 2.526-.315 3.695-.979 2.889-1.64 5.896-3.233 8.938-4.737 3.713-1.835 5.235-6.333 3.4-10.047-1.835-3.713-6.333-5.236-10.046-3.401z" fill="#ffffff" data-original="#000000" style="" class=""/><path d="m355.929 408.287c-7.446 4.986-15.353 9.444-23.501 13.25-3.753 1.753-5.373 6.217-3.62 9.97 1.273 2.726 3.978 4.327 6.8 4.327 1.062 0 2.144-.228 3.17-.707 8.839-4.129 17.417-8.966 25.497-14.376 3.441-2.305 4.363-6.963 2.06-10.405-2.307-3.443-6.966-4.364-10.406-2.059z" fill="#ffffff" data-original="#000000" style="" class=""/><path d="m257.171 206.402c-4.143 0-7.5 3.358-7.5 7.5v6.09c-15.722 3.043-28.136 15.457-31.179 31.179h-6.09c-4.143 0-7.5 3.358-7.5 7.5s3.357 7.5 7.5 7.5h6.09c3.043 15.722 15.457 28.136 31.179 31.179v6.09c0 4.142 3.357 7.5 7.5 7.5s7.5-3.358 7.5-7.5v-6.09c15.722-3.043 28.136-15.457 31.179-31.179h6.09c4.143 0 7.5-3.358 7.5-7.5s-3.357-7.5-7.5-7.5h-6.09c-3.043-15.722-15.457-28.136-31.179-31.179v-6.09c0-4.142-3.358-7.5-7.5-7.5zm24.403 52.269c0 13.457-10.947 24.404-24.403 24.404s-24.403-10.947-24.403-24.404 10.947-24.404 24.403-24.404 24.403 10.947 24.403 24.404z" fill="#ffffff" data-original="#000000" style="" class=""/><path d="m249.671 257.499v2.172c0 4.142 3.357 7.5 7.5 7.5s7.5-3.358 7.5-7.5v-2.172c0-4.142-3.357-7.5-7.5-7.5s-7.5 3.357-7.5 7.5z" fill="#ffffff" data-original="#000000" style="" class=""/></g></g></svg>
