<?xml version="1.0"?>
<svg xmlns="http://www.w3.org/2000/svg" xmlns:xlink="http://www.w3.org/1999/xlink" xmlns:svgjs="http://svgjs.com/svgjs" version="1.1" width="512" height="512" x="0" y="0" viewBox="0 0 512 512" style="enable-background:new 0 0 512 512" xml:space="preserve" class=""><g><g xmlns="http://www.w3.org/2000/svg"><g><path d="m293.658 267.947h19.452c4.143 0 7.5-3.358 7.5-7.5s-3.357-7.5-7.5-7.5h-19.452c-1.656 0-3.003-1.347-3.003-3.002v-49.521c0-1.655 1.347-3.002 3.003-3.002h145.646c1.655 0 3.002 1.347 3.002 3.002v49.521c0 1.656-1.347 3.002-3.002 3.002h-91.131c-4.143 0-7.5 3.358-7.5 7.5s3.357 7.5 7.5 7.5h91.131c9.927 0 18.002-8.076 18.002-18.002v-49.521c0-9.926-8.075-18.002-18.002-18.002h-145.646c-9.927 0-18.003 8.076-18.003 18.002v49.521c0 9.926 8.076 18.002 18.003 18.002z" fill="#ffffff" data-original="#000000" style="" class=""/><path d="m471.098 72.843h-274.836c-10.016 0-19.228-5.863-23.467-14.938-6.695-14.329-21.241-23.588-37.057-23.588h-94.836c-22.553 0-40.902 18.349-40.902 40.902v82.11 287.134c0 18.317 14.902 33.22 33.22 33.22h445.56c18.317 0 33.22-14.902 33.22-33.22v-287.134-43.584c0-22.554-18.349-40.902-40.902-40.902zm25.902 56.728c-5.236-3.448-11.495-5.462-18.22-5.462h-382.101c-4.143 0-7.5 3.358-7.5 7.5s3.357 7.5 7.5 7.5h382.101c10.047 0 18.22 8.173 18.22 18.22v287.134c0 10.046-8.173 18.22-18.22 18.22h-445.56c-10.047 0-18.22-8.173-18.22-18.22v-287.134c0-10.047 8.173-18.22 18.22-18.22h28.396c4.143 0 7.5-3.358 7.5-7.5s-3.357-7.5-7.5-7.5h-28.396c-6.724 0-12.984 2.014-18.22 5.462v-54.352c0-14.282 11.62-25.902 25.902-25.902h94.836c10.016 0 19.227 5.863 23.467 14.938 6.695 14.33 21.24 23.588 37.057 23.588h274.836c14.282 0 25.902 11.62 25.902 25.902z" fill="#ffffff" data-original="#000000" style="" class=""/></g></g></g></svg>
