<?xml version="1.0"?>
<svg xmlns="http://www.w3.org/2000/svg" xmlns:xlink="http://www.w3.org/1999/xlink" xmlns:svgjs="http://svgjs.com/svgjs" version="1.1" width="512" height="512" x="0" y="0" viewBox="0 0 511.866 511.866" style="enable-background:new 0 0 512 512" xml:space="preserve"><g><g xmlns="http://www.w3.org/2000/svg"><path d="m475.668 180.034h-31.355v-3.676c0-8.62-7.013-15.633-15.633-15.633h-61.496c-4.143 0-7.5 3.357-7.5 7.5s3.357 7.5 7.5 7.5h61.496c.349 0 .633.284.633.633v134.823c0 4.143 3.357 7.5 7.5 7.5s7.5-3.357 7.5-7.5v-116.147h31.355c1.134 0 2.056.922 2.056 2.056v267.75c0 17.659-14.366 32.026-32.025 32.026h-379.532c-17.659 0-32.025-14.367-32.025-32.026v-267.75c0-1.134.922-2.056 2.056-2.056h32.379v262.66c0 10.727 8.727 19.453 19.452 19.453h336.831c10.727 0 19.453-8.727 19.453-19.453v-114.55c0-4.143-3.357-7.5-7.5-7.5s-7.5 3.357-7.5 7.5v70.142h-124.344c-16.188 0-30.787 6.91-41.024 17.925v-92.21h15.017c22.233 0 40.321-18.088 40.321-40.32v-36.63c0-9.725-7.912-17.637-17.637-17.637h-39.213v-8.58h10.394c15.822 0 28.695-12.873 28.695-28.695v-7.358c0-6.695-5.447-12.143-12.144-12.143h-13.25c-4.956 0-9.623 1.264-13.695 3.485v-26.102l38.027 19.992c2.066 1.086 4.303 1.623 6.527 1.623 2.89 0 5.761-.906 8.215-2.689 4.342-3.154 6.475-8.4 5.566-13.689l-8.599-50.138 36.427-35.509c3.844-3.746 5.201-9.244 3.543-14.349s-5.988-8.755-11.3-9.526l-50.342-7.314-22.511-45.618c-2.375-4.814-7.186-7.804-12.553-7.804s-10.178 2.99-12.552 7.803l-22.514 45.618-9.422 1.368c-4.099.595-6.939 4.4-6.344 8.5s4.415 6.95 8.5 6.344l9.945-1.444c4.561-.663 8.5-3.526 10.538-7.657l21.848-44.268 21.848 44.267c2.038 4.132 5.978 6.995 10.539 7.658l48.853 7.099-35.349 34.458c-3.3 3.216-4.806 7.847-4.026 12.39l8.345 48.655-43.695-22.972c-4.078-2.145-8.949-2.145-13.027 0l-43.695 22.972 8.346-48.656c.778-4.542-.728-9.173-4.026-12.388l-35.35-34.459 7.186-1.044c4.099-.595 6.939-4.4 6.344-8.5s-4.405-6.942-8.5-6.344l-9.197 1.336c-5.312.771-9.642 4.422-11.3 9.526s-.301 10.603 3.542 14.348l36.428 35.51-8.599 50.137c-.908 5.29 1.225 10.536 5.566 13.69 4.342 3.155 9.99 3.562 14.742 1.066l37.027-19.466v25.577c-4.073-2.222-8.739-3.485-13.695-3.485h-13.25c-6.696 0-12.144 5.447-12.144 12.143v7.358c0 15.822 12.873 28.695 28.695 28.695h10.394v8.58h-39.214c-9.725 0-17.637 7.912-17.637 17.637v36.63c0 22.232 18.088 40.32 40.321 40.32h18.04v92.21c-10.237-11.016-24.836-17.925-41.024-17.925h-50.588c-4.143 0-7.5 3.357-7.5 7.5s3.357 7.5 7.5 7.5h50.588c20.177 0 36.986 14.646 40.385 33.861h-160.276c-2.455 0-4.452-1.998-4.452-4.453v-29.408h41.794c4.143 0 7.5-3.357 7.5-7.5s-3.357-7.5-7.5-7.5h-41.794v-236.929c0-.349.283-.633.632-.633h61.497c4.143 0 7.5-3.357 7.5-7.5s-3.357-7.5-7.5-7.5h-61.498c-8.619 0-15.632 7.013-15.632 15.633v3.676h-32.378c-9.404 0-17.056 7.651-17.056 17.056v267.75c0 25.931 21.096 47.026 47.025 47.026h379.531c25.93 0 47.025-21.096 47.025-47.026v-267.75c.001-9.404-7.65-17.056-17.055-17.056zm-170.699 248.252h124.344v29.408c0 2.455-1.998 4.453-4.453 4.453h-160.276c3.399-19.215 20.208-33.861 40.385-33.861zm-42.536-211.953c0-7.552 6.144-13.695 13.695-13.695h10.394v4.501c0 7.552-6.144 13.695-13.695 13.695h-10.394zm-25.393 4.501c-7.552 0-13.695-6.144-13.695-13.695v-4.501h10.394c7.552 0 13.695 6.144 13.695 13.695v4.501zm-6.135 103.167c-13.962 0-25.321-11.358-25.321-25.32v-36.63c0-1.454 1.183-2.637 2.637-2.637h93.426c1.454 0 2.637 1.183 2.637 2.637v36.63c0 13.962-11.359 25.32-25.321 25.32z" fill="#ffffff" data-original="#000000" style=""/><path d="m384.694 47.138c1.999 0 3.992-.794 5.469-2.365l16.851-17.938c2.836-3.019 2.688-7.765-.332-10.602-3.018-2.835-7.765-2.686-10.602.332l-16.851 17.938c-2.836 3.019-2.688 7.765.332 10.602 1.447 1.359 3.292 2.033 5.133 2.033z" fill="#ffffff" data-original="#000000" style=""/><path d="m385.621 93.317c0 4.143 3.357 7.5 7.5 7.5h17.666c4.143 0 7.5-3.357 7.5-7.5s-3.357-7.5-7.5-7.5h-17.666c-4.143 0-7.5 3.358-7.5 7.5z" fill="#ffffff" data-original="#000000" style=""/><path d="m120.704 44.772c1.477 1.571 3.47 2.365 5.469 2.365 1.841 0 3.686-.674 5.133-2.033 3.02-2.837 3.168-7.583.332-10.602l-16.851-17.938c-2.837-3.018-7.582-3.168-10.602-.332-3.02 2.837-3.168 7.583-.332 10.602z" fill="#ffffff" data-original="#000000" style=""/><path d="m100.08 100.817h17.666c4.143 0 7.5-3.357 7.5-7.5s-3.357-7.5-7.5-7.5h-17.666c-4.143 0-7.5 3.357-7.5 7.5s3.357 7.5 7.5 7.5z" fill="#ffffff" data-original="#000000" style=""/><path d="m407.403 249.237h-58.828c-4.143 0-7.5 3.357-7.5 7.5s3.357 7.5 7.5 7.5h58.828c4.143 0 7.5-3.357 7.5-7.5s-3.358-7.5-7.5-7.5z" fill="#ffffff" data-original="#000000" style=""/><path d="m407.403 287.266h-58.828c-4.143 0-7.5 3.357-7.5 7.5s3.357 7.5 7.5 7.5h58.828c4.143 0 7.5-3.357 7.5-7.5s-3.358-7.5-7.5-7.5z" fill="#ffffff" data-original="#000000" style=""/><path d="m407.403 325.294h-71.729c-4.143 0-7.5 3.357-7.5 7.5s3.357 7.5 7.5 7.5h71.729c4.143 0 7.5-3.357 7.5-7.5s-3.358-7.5-7.5-7.5z" fill="#ffffff" data-original="#000000" style=""/><path d="m407.403 363.321h-103.723c-4.143 0-7.5 3.357-7.5 7.5s3.357 7.5 7.5 7.5h103.723c4.143 0 7.5-3.357 7.5-7.5s-3.358-7.5-7.5-7.5z" fill="#ffffff" data-original="#000000" style=""/><path d="m164.315 249.237h-58.828c-4.143 0-7.5 3.357-7.5 7.5s3.357 7.5 7.5 7.5h58.828c4.143 0 7.5-3.357 7.5-7.5s-3.357-7.5-7.5-7.5z" fill="#ffffff" data-original="#000000" style=""/><path d="m105.487 302.266h58.828c4.143 0 7.5-3.357 7.5-7.5s-3.357-7.5-7.5-7.5h-58.828c-4.143 0-7.5 3.357-7.5 7.5s3.357 7.5 7.5 7.5z" fill="#ffffff" data-original="#000000" style=""/><path d="m177.215 325.294h-71.729c-4.143 0-7.5 3.357-7.5 7.5s3.357 7.5 7.5 7.5h71.729c4.143 0 7.5-3.357 7.5-7.5s-3.357-7.5-7.5-7.5z" fill="#ffffff" data-original="#000000" style=""/><path d="m97.987 370.821c0 4.143 3.357 7.5 7.5 7.5h103.723c4.143 0 7.5-3.357 7.5-7.5s-3.357-7.5-7.5-7.5h-103.723c-4.143 0-7.5 3.358-7.5 7.5z" fill="#ffffff" data-original="#000000" style=""/></g></g></svg>
