<?xml version="1.0"?>
<svg xmlns="http://www.w3.org/2000/svg" xmlns:xlink="http://www.w3.org/1999/xlink" xmlns:svgjs="http://svgjs.com/svgjs" version="1.1" width="512" height="512" x="0" y="0" viewBox="0 0 512 512" style="enable-background:new 0 0 512 512" xml:space="preserve"><g><g xmlns="http://www.w3.org/2000/svg"><g><path d="m499.885 191.888-226.898-167.073c-10.162-7.482-23.813-7.482-33.975 0l-145.858 107.402c-3.335 2.456-4.048 7.15-1.592 10.486 2.455 3.334 7.15 4.049 10.486 1.592l145.859-107.402c4.841-3.563 11.346-3.565 16.187 0l226.897 167.073c8.005 5.895 8.006 17.836 0 23.732-5.225 3.847-12.248 3.847-17.473 0l-208.594-153.596c-5.338-3.93-12.51-3.929-17.85.001l-208.592 153.595c-5.225 3.848-12.249 3.847-17.473 0-8.005-5.895-8.006-17.836 0-23.732l52.339-38.539c3.335-2.456 4.048-7.15 1.592-10.486-2.456-3.335-7.151-4.05-10.486-1.592l-52.339 38.539c-16.153 11.894-16.154 35.993 0 47.888 10.547 7.766 24.716 7.764 35.261 0l9.621-7.082v235.67c0 13.473 10.96 24.433 24.433 24.433h349.139c13.473 0 24.434-10.96 24.434-24.433v-235.673l9.621 7.084c10.541 7.763 24.714 7.767 35.261 0 16.153-11.893 16.154-35.992 0-47.887zm-59.881 276.475c0 5.202-4.232 9.434-9.434 9.434h-349.14c-5.202 0-9.434-4.232-9.434-9.434v-246.711l184.035-135.471 183.972 135.466v246.716z" fill="#ffffff" data-original="#000000" style=""/><path d="m149.505 268.348v120.811c0 16.15 13.138 29.288 29.288 29.288h154.415c16.15 0 29.288-13.138 29.288-29.288v-4.691c0-4.142-3.357-7.5-7.5-7.5s-7.5 3.357-7.5 7.5v4.691c0 7.879-6.41 14.288-14.288 14.288h-69.708v-64.875h83.996v10.833c0 4.142 3.357 7.5 7.5 7.5s7.5-3.357 7.5-7.5v-81.058c0-16.15-13.138-29.288-29.288-29.288h-154.416c-16.149.002-29.287 13.14-29.287 29.289zm113.995-14.288h69.708c7.879 0 14.288 6.41 14.288 14.288v55.225h-83.996zm-15 149.388h-69.708c-7.879 0-14.288-6.41-14.288-14.288v-50.587h83.996zm0-79.875h-83.996v-55.225c0-7.879 6.41-14.288 14.288-14.288h69.708z" fill="#ffffff" data-original="#000000" style=""/></g></g></g></svg>
