<?xml version="1.0"?>
<svg xmlns="http://www.w3.org/2000/svg" xmlns:xlink="http://www.w3.org/1999/xlink" xmlns:svgjs="http://svgjs.com/svgjs" version="1.1" width="512" height="512" x="0" y="0" viewBox="0 0 512 512" style="enable-background:new 0 0 512 512" xml:space="preserve"><g><g xmlns="http://www.w3.org/2000/svg"><g><g><g><circle cx="70" cy="56.874" r="7.559" fill="#ffffff" data-original="#000000" style=""/><circle cx="111.535" cy="56.874" r="7.559" fill="#ffffff" data-original="#000000" style=""/><circle cx="153.069" cy="56.874" r="7.559" fill="#ffffff" data-original="#000000" style=""/><g><circle cx="70" cy="56.874" r="7.559" fill="#ffffff" data-original="#000000" style=""/><circle cx="111.535" cy="56.874" r="7.559" fill="#ffffff" data-original="#000000" style=""/><circle cx="153.069" cy="56.874" r="7.559" fill="#ffffff" data-original="#000000" style=""/></g></g></g></g><g><path d="m469.5 49.373h-120.988c-4.143 0-7.5 3.357-7.5 7.5s3.357 7.5 7.5 7.5h120.988c4.143 0 7.5-3.357 7.5-7.5s-3.357-7.5-7.5-7.5z" fill="#ffffff" data-original="#000000" style=""/><path d="m381.418 263.64c.54 4.107 4.304 6.986 8.412 6.461 4.107-.539 6.999-4.306 6.461-8.412-9.343-71.199-70.171-122.994-140.291-122.994-51.085 0-97.928 27.53-122.931 71.417-.104.165-.201.336-.293.511-24.271 43.021-24.269 96.132.005 139.153.089.169.182.334.283.493 25.694 45.109 73.236 71.426 122.937 71.426 70.668 0 130.981-52.261 140.283-122.936.541-4.106-2.35-7.874-6.457-8.414-4.094-.546-7.874 2.35-8.414 6.457-1.855 14.093-5.979 27.512-12.175 39.914-7.892-3.151-22.485-8.453-41.491-13.059 2.265-13.644 3.487-28.235 3.487-43.462s-1.221-29.819-3.487-43.462c19.006-4.606 33.599-9.908 41.491-13.059 6.203 12.417 10.329 25.854 12.18 39.966zm-166.004-103.235c-12.394 14.682-22.236 36.02-28.216 61.55-16.304-3.991-29.153-8.48-36.803-11.425 15.268-23.13 38.001-41.02 65.019-50.125zm-72.605 63.297c7.898 3.162 22.455 8.459 41.441 13.057-2.263 13.636-3.482 28.218-3.482 43.436 0 15.228 1.221 29.819 3.487 43.462-18.966 4.596-33.538 9.886-41.441 13.04-17.665-35.456-17.666-77.538-.005-112.995zm7.593 126.169c7.663-2.94 20.521-7.421 36.802-11.41 5.98 25.52 15.82 46.848 28.21 61.525-27.006-9.101-49.748-26.996-65.012-50.115zm98.098 55.798c-20.209-5.546-37.651-33.11-46.512-70.464 14.028-2.742 29.807-4.833 46.512-5.329zm0-90.801c-17.874.491-34.634 2.678-49.478 5.565-2.105-12.702-3.254-26.248-3.254-40.238 0-13.981 1.148-27.52 3.25-40.216 14.827 2.877 31.582 5.055 49.482 5.543zm0-84.353c-16.731-.493-32.506-2.575-46.517-5.308 8.859-37.365 26.304-64.938 46.517-70.486zm15-75.794c20.209 5.546 37.651 33.11 46.512 70.464-14.028 2.742-29.807 4.833-46.512 5.329zm0 90.801c17.874-.491 34.634-2.678 49.478-5.565 2.105 12.702 3.254 26.248 3.254 40.238s-1.149 27.536-3.254 40.238c-14.844-2.887-31.605-5.074-49.478-5.565zm0 160.147v-75.793c16.705.496 32.484 2.587 46.512 5.329-8.861 37.355-26.303 64.918-46.512 70.464zm98.124-55.788c-15.11 22.792-37.642 40.873-65.039 50.105 12.391-14.677 22.23-36.006 28.21-61.525 16.301 3.993 29.169 8.48 36.829 11.42zm-36.828-127.952c-5.98-25.519-15.819-46.847-28.21-61.524 27.34 9.214 49.9 27.274 65.037 50.105-7.66 2.94-20.527 7.427-36.827 11.419z" fill="#ffffff" data-original="#000000" style=""/><path d="m470.707 5.942h-429.414c-22.769 0-41.293 18.525-41.293 41.294v417.527c0 22.77 18.524 41.294 41.293 41.294h429.414c22.77 0 41.293-18.524 41.293-41.294v-417.527c0-22.769-18.523-41.294-41.293-41.294zm26.293 458.822c0 14.498-11.795 26.294-26.293 26.294h-429.414c-14.498 0-26.293-11.796-26.293-26.294v-417.528c0-14.498 11.795-26.294 26.293-26.294h429.414c14.498 0 26.293 11.796 26.293 26.294z" fill="#ffffff" data-original="#000000" style=""/><path d="m455.662 89.333h-325.307c-4.142 0-7.5 3.357-7.5 7.5s3.358 7.5 7.5 7.5h325.307c3.495 0 6.338 2.844 6.338 6.339v339.047c0 3.495-2.843 6.339-6.338 6.339h-399.324c-3.495 0-6.338-2.844-6.338-6.339v-339.047c0-3.495 2.843-6.339 6.338-6.339h38.955c4.142 0 7.5-3.357 7.5-7.5s-3.358-7.5-7.5-7.5h-38.955c-11.766 0-21.338 9.572-21.338 21.339v339.047c0 11.767 9.572 21.339 21.338 21.339h399.324c11.766 0 21.338-9.572 21.338-21.339v-339.047c0-11.767-9.572-21.339-21.338-21.339z" fill="#ffffff" data-original="#000000" style=""/></g></g></g></svg>
