<?xml version="1.0"?>
<svg xmlns="http://www.w3.org/2000/svg" xmlns:xlink="http://www.w3.org/1999/xlink" xmlns:svgjs="http://svgjs.com/svgjs" version="1.1" width="512" height="512" x="0" y="0" viewBox="0 0 512.446 512.446" style="enable-background:new 0 0 512 512" xml:space="preserve" class=""><g><g xmlns="http://www.w3.org/2000/svg"><path d="m460.814 63.216c-33.349-33.349-77.688-51.715-124.851-51.715-47.161 0-91.501 18.366-124.85 51.715-33.349 33.348-51.715 77.688-51.715 124.85 0 26.245 5.695 51.613 16.487 74.702l-18.665 18.665c-10.123 10.125-10.123 26.598 0 36.721l2.001 2.001-30.133 30.132-24.857-24.856c-6.354-6.353-16.691-6.352-23.047 0l-21.781 21.781c-4.953 4.953-4.953 13.013 0 17.966l8.114 8.114c.3.299.3.786 0 1.084l-13.8 13.8c-.299.299-.785.299-1.084 0l-8.114-8.114c-2.399-2.399-5.59-3.721-8.983-3.721s-6.584 1.322-8.983 3.721l-21.78 21.783c-3.078 3.078-4.773 7.17-4.773 11.523 0 4.354 1.696 8.446 4.773 11.523l24.856 24.857-2.106 2.106c-9.121 9.122-9.121 23.963 0 33.084l9.153 9.153c4.419 4.418 10.294 6.852 16.543 6.852 6.248 0 12.123-2.434 16.542-6.852l131.699-131.698 2.293 2.293c4.904 4.904 11.425 7.605 18.361 7.605s13.456-2.701 18.36-7.605l17.921-17.92c23.849 11.682 50.231 17.864 77.567 17.864 47.163 0 91.502-18.366 124.851-51.715 68.843-68.842 68.843-180.856.001-249.699zm-401.66 420.27c-3.271 3.271-8.599 3.273-11.87 0l-9.153-9.153c-1.586-1.585-2.459-3.693-2.459-5.936 0-2.242.873-4.35 2.459-5.936l23.273-23.273 21.024 21.024zm22.376-64.423 21.024 21.024-9.518 9.518-21.024-21.024zm31.63 10.417-21.024-21.024 5.918-5.918c2.929-2.929 2.929-7.678 0-10.606-2.929-2.929-7.677-2.929-10.607 0l-47.211 47.21-24.856-24.857c-.313-.313-.38-.671-.38-.917 0-.245.066-.603.381-.917l20.157-20.158 6.49 6.491c2.979 2.978 6.938 4.618 11.149 4.618s8.171-1.64 11.149-4.618l13.8-13.8c6.147-6.147 6.147-16.15 0-22.297l-6.491-6.491 20.157-20.157c.505-.505 1.329-.506 1.834 0l24.856 24.856-8.401 8.401c-2.929 2.929-2.929 7.678 0 10.606 1.465 1.465 3.384 2.197 5.304 2.197 1.919 0 3.839-.732 5.304-2.197l49.14-49.14 21.024 21.024zm116.708-75.4c-2.07 2.071-4.824 3.212-7.753 3.212-2.93 0-5.684-1.141-7.754-3.212l-46.532-46.532c-4.275-4.275-4.275-11.232 0-15.508l15.351-15.351c7.611 13.071 16.955 25.247 27.934 36.227 10.23 10.23 21.499 19.044 33.562 26.357zm220.339-51.771c-30.515 30.516-71.087 47.321-114.243 47.321-43.155 0-83.728-16.806-114.242-47.321-30.517-30.516-47.322-71.088-47.322-114.243s16.806-83.728 47.322-114.243c30.515-30.516 71.087-47.321 114.242-47.321 43.156 0 83.729 16.806 114.243 47.321 62.994 62.994 62.994 165.492 0 228.486z" fill="#ffffff" data-original="#000000" style="" class=""/><path d="m470.425 163.375c-4.998-27.352-18.068-52.239-37.8-71.97-25.819-25.819-60.147-40.039-96.661-40.039-36.513 0-70.842 14.219-96.661 40.039-53.298 53.299-53.298 140.022 0 193.321 25.819 25.819 60.148 40.039 96.661 40.039 36.514 0 70.842-14.219 96.66-40.038 4.031-4.03 7.85-8.355 11.349-12.854 2.542-3.27 1.953-7.981-1.316-10.524-3.271-2.543-7.982-1.955-10.525 1.316-3.117 4.009-6.52 7.863-10.113 11.455-4.238 4.238-8.735 8.122-13.453 11.643-5.71-8.823-14.079-15.818-23.898-19.758l-25.124-10.08v-6.342c4.975-2.745 9.418-6.332 13.15-10.564 1.814.212 3.619.319 5.408.319 13.859 0 26.761-6.292 35.467-17.58 10.178-13.196 12.295-30.201 5.664-45.489l-11.28-26.011c-.849-1.957-1.433-4.018-1.735-6.126-2.432-16.896-10.875-32.356-23.775-43.534-12.901-11.178-29.407-17.333-46.477-17.333-11.197 0-22.383 2.701-32.347 7.81-3.687 1.89-5.142 6.41-3.252 10.096 1.89 3.685 6.411 5.141 10.096 3.251 7.969-4.086 16.549-6.158 25.503-6.158 27.648 0 51.467 20.637 55.404 48.003.493 3.428 1.442 6.778 2.821 9.958l11.28 26.011c4.426 10.204 3.013 21.553-3.78 30.36-5.025 6.516-12.145 10.531-19.963 11.498 2.069-5.417 3.214-11.287 3.214-17.422v-47.821c0-7.055-5.524-12.727-12.577-12.913l-29.401-.775c-9.52-.25-18.83-3.699-26.218-9.709l-1.938-1.576c-2.286-1.859-5.159-2.708-8.087-2.397-2.929.313-5.556 1.751-7.397 4.052-7.954 9.938-12.334 22.42-12.334 35.147v35.991c0 6.134 1.144 12.004 3.213 17.42-7.813-.969-14.936-4.98-19.961-11.494-6.793-8.807-8.207-20.157-3.782-30.361l11.281-26.011c1.378-3.178 2.327-6.528 2.82-9.957 1.19-8.274 4.133-15.994 8.744-22.944 2.291-3.451 1.349-8.106-2.103-10.396-3.449-2.29-8.105-1.349-10.396 2.103-5.851 8.817-9.583 18.607-11.094 29.101-.304 2.111-.887 4.172-1.734 6.125l-11.281 26.011c-6.63 15.289-4.512 32.295 5.666 45.49 8.707 11.288 21.606 17.58 35.465 17.579 1.789 0 3.594-.107 5.408-.319 3.381 3.835 7.348 7.138 11.765 9.766v7.139l-25.123 10.08c-9.692 3.888-17.79 10.508-23.467 19.032-4.37-3.329-8.549-6.967-12.5-10.917-47.45-47.45-47.45-124.657 0-172.108 22.986-22.986 53.547-35.645 86.054-35.645s63.068 12.659 86.054 35.645c17.567 17.567 29.204 39.719 33.651 64.06 4.347 23.791 1.608 48.059-7.92 70.182-1.638 3.804.117 8.217 3.922 9.855 3.804 1.639 8.216-.116 9.855-3.921 10.702-24.848 13.779-52.1 8.898-78.811zm-168.437 7.307c0-7.982 2.35-15.833 6.678-22.497 9.709 7.413 21.678 11.651 33.901 11.974l27.373.722v45.792c0 18.734-15.242 33.976-33.977 33.976s-33.976-15.241-33.976-33.976v-35.991zm33.976 84.966c2.928 0 5.791-.273 8.579-.768v6.116c0 5.113-4.159 9.272-9.271 9.272s-9.272-4.158-9.272-9.271v-6.37c3.218.668 6.55 1.021 9.964 1.021zm-44.502 24.278 21.787-8.742c3.858 8.307 12.276 14.084 22.022 14.084s18.164-5.777 22.022-14.084l21.788 8.741c6.969 2.796 12.9 7.773 16.938 14.048-18.105 10.304-38.658 15.791-60.055 15.791-21.801 0-42.722-5.702-61.074-16.386 4.01-6.023 9.725-10.705 16.572-13.452z" fill="#ffffff" data-original="#000000" style="" class=""/></g></g></svg>
