<?xml version="1.0"?>
<svg xmlns="http://www.w3.org/2000/svg" xmlns:xlink="http://www.w3.org/1999/xlink" xmlns:svgjs="http://svgjs.com/svgjs" version="1.1" width="512" height="512" x="0" y="0" viewBox="0 0 511.277 511.277" style="enable-background:new 0 0 512 512" xml:space="preserve"><g><g xmlns="http://www.w3.org/2000/svg"><path d="m470.375 186.654h-30.471v-3.422c0-8.518-6.93-15.447-15.448-15.447h-60.097c-4.142 0-7.5 3.357-7.5 7.5s3.358 7.5 7.5 7.5h60.097c.247 0 .448.2.448.447v91.447c0 4.143 3.358 7.5 7.5 7.5s7.5-3.357 7.5-7.5v-73.025h30.471c1.014 0 1.839.825 1.839 1.839v261.658c0 17.163-13.963 31.126-31.126 31.126h-370.898c-17.163 0-31.126-13.963-31.126-31.126v-261.658c0-1.014.825-1.839 1.839-1.839h31.471v256.513c0 10.576 8.604 19.181 19.181 19.181h329.167c10.577 0 19.181-8.604 19.181-19.181v-151.499c0-4.143-3.358-7.5-7.5-7.5s-7.5 3.357-7.5 7.5v107.931h-121.344c-15.716 0-29.9 6.646-39.92 17.262v-97.015c0-4.143-3.358-7.5-7.5-7.5s-7.5 3.357-7.5 7.5v97.016c-10.02-10.616-24.205-17.262-39.92-17.262h-34.08c-4.142 0-7.5 3.357-7.5 7.5s3.358 7.5 7.5 7.5h34.08c19.563 0 35.873 14.149 39.263 32.748h-156.427c-2.306 0-4.181-1.875-4.181-4.181v-28.567h55.275c4.142 0 7.5-3.357 7.5-7.5s-3.358-7.5-7.5-7.5h-55.275v-231.368c0-.247.201-.447.448-.447h60.097c4.142 0 7.5-3.357 7.5-7.5s-3.358-7.5-7.5-7.5h-60.097c-8.518 0-15.448 6.93-15.448 15.447v3.422h-31.471c-9.285 0-16.839 7.554-16.839 16.839v261.658c0 25.434 20.692 46.126 46.126 46.126h370.896c25.434 0 46.126-20.692 46.126-46.126v-261.658c.001-9.285-7.552-16.839-16.837-16.839zm-166.816 242.945h121.344v28.568c0 2.306-1.875 4.181-4.181 4.181h-156.425c3.389-18.6 19.699-32.749 39.262-32.749z" fill="#ffffff" data-original="#000000" style=""/><path d="m156.143 105.231c4.117.382 7.782-2.639 8.171-6.763 2.145-22.744 12.647-43.802 29.575-59.294 17.033-15.588 39.14-24.174 62.25-24.174 50.863 0 92.243 41.38 92.243 92.242 0 19.139-5.809 37.493-16.798 53.081-.062.088-.122.178-.181.268l-47.994 74.718c-.777 1.21-1.19 2.616-1.19 4.054v9.716c0 1.972-1.604 3.576-3.576 3.576h-.49l4.778-81.075h8.544c12.226 0 22.172-9.946 22.172-22.171v-.91c0-12.225-9.946-22.171-22.172-22.171-11.721 0-21.443 9.166-22.133 20.867l-.553 9.385h-26.301l-.553-9.385c-.689-11.701-10.412-20.867-22.133-20.867-12.226 0-22.172 9.946-22.172 22.171v.91c0 12.225 9.946 22.171 22.172 22.171h8.544l4.775 81.023c-1.727-.252-3.062-1.728-3.062-3.524v-9.716c0-1.438-.413-2.844-1.189-4.054l-47.995-74.718c-.058-.09-.118-.18-.18-.268-6.901-9.79-11.761-20.669-14.442-32.336-.929-4.037-4.959-6.556-8.99-5.629-4.037.929-6.557 4.953-5.629 8.99 3.108 13.519 8.729 26.129 16.707 37.482l46.72 72.732v7.515c0 7.573 4.561 14.092 11.076 16.981v12.683c0 13.346 10.857 24.203 24.203 24.203h11.604c13.345 0 24.203-10.857 24.203-24.203v-12.683c6.514-2.889 11.076-9.407 11.076-16.981v-7.515l46.719-72.732c12.72-18.101 19.443-39.395 19.443-61.589-.004-59.133-48.113-107.241-107.246-107.241-26.868 0-52.572 9.983-72.377 28.109-19.677 18.01-31.887 42.496-34.381 68.951-.39 4.125 2.638 7.783 6.762 8.171zm128.173 42.846c.223-3.785 3.368-6.75 7.159-6.75 3.955 0 7.172 3.217 7.172 7.171v.91c0 3.954-3.217 7.171-7.172 7.171h-7.66zm-64.514 8.502c-3.955 0-7.172-3.217-7.172-7.171v-.91c0-3.954 3.217-7.171 7.172-7.171 3.792 0 6.936 2.965 7.159 6.75l.501 8.502zm48.103 15-4.777 81.075h-14.978l-4.777-81.075zm3.238 107.163c0 5.074-4.128 9.203-9.203 9.203h-11.604c-5.074 0-9.203-4.129-9.203-9.203v-11.088h30.009v11.088z" fill="#ffffff" data-original="#000000" style=""/><path d="m387.513 56.951c1.757 0 3.521-.614 4.945-1.864l16.364-14.368c3.113-2.732 3.42-7.472.688-10.584s-7.471-3.42-10.584-.688l-16.364 14.368c-3.113 2.732-3.42 7.472-.688 10.584 1.483 1.689 3.556 2.552 5.639 2.552z" fill="#ffffff" data-original="#000000" style=""/><path d="m382.562 102.184 16.364 14.369c1.424 1.251 3.188 1.864 4.946 1.864 2.083 0 4.156-.863 5.639-2.552 2.733-3.112 2.425-7.851-.687-10.584l-16.364-14.369c-3.113-2.734-7.851-2.425-10.584.688-2.734 3.112-2.427 7.85.686 10.584z" fill="#ffffff" data-original="#000000" style=""/><path d="m103.455 40.719 16.364 14.368c1.424 1.251 3.188 1.864 4.945 1.864 2.083 0 4.156-.863 5.639-2.552 2.733-3.112 2.425-7.852-.688-10.584l-16.364-14.368c-3.112-2.734-7.852-2.425-10.584.688-2.733 3.112-2.425 7.851.688 10.584z" fill="#ffffff" data-original="#000000" style=""/><path d="m108.406 118.417c1.757 0 3.521-.614 4.946-1.864l16.364-14.369c3.112-2.733 3.42-7.472.687-10.584-2.732-3.112-7.471-3.42-10.584-.688l-16.364 14.369c-3.112 2.733-3.42 7.472-.687 10.584 1.482 1.689 3.554 2.552 5.638 2.552z" fill="#ffffff" data-original="#000000" style=""/><path d="m189.782 260.154c0-4.143-3.358-7.5-7.5-7.5h-73.879c-4.142 0-7.5 3.357-7.5 7.5s3.358 7.5 7.5 7.5h73.879c4.142 0 7.5-3.357 7.5-7.5z" fill="#ffffff" data-original="#000000" style=""/><path d="m205.13 290.805h-83.179c-4.142 0-7.5 3.357-7.5 7.5s3.358 7.5 7.5 7.5h83.179c4.142 0 7.5-3.357 7.5-7.5s-3.358-7.5-7.5-7.5z" fill="#ffffff" data-original="#000000" style=""/><path d="m205.13 327.346h-83.179c-4.142 0-7.5 3.357-7.5 7.5s3.358 7.5 7.5 7.5h83.179c4.142 0 7.5-3.357 7.5-7.5s-3.358-7.5-7.5-7.5z" fill="#ffffff" data-original="#000000" style=""/><path d="m205.13 363.887h-83.179c-4.142 0-7.5 3.357-7.5 7.5s3.358 7.5 7.5 7.5h83.179c4.142 0 7.5-3.357 7.5-7.5s-3.358-7.5-7.5-7.5z" fill="#ffffff" data-original="#000000" style=""/><path d="m411.375 260.154c0-4.143-3.358-7.5-7.5-7.5h-73.879c-4.142 0-7.5 3.357-7.5 7.5s3.358 7.5 7.5 7.5h73.879c4.142 0 7.5-3.357 7.5-7.5z" fill="#ffffff" data-original="#000000" style=""/><path d="m390.326 290.805h-83.179c-4.142 0-7.5 3.357-7.5 7.5s3.358 7.5 7.5 7.5h83.179c4.142 0 7.5-3.357 7.5-7.5s-3.358-7.5-7.5-7.5z" fill="#ffffff" data-original="#000000" style=""/><path d="m390.326 327.346h-83.179c-4.142 0-7.5 3.357-7.5 7.5s3.358 7.5 7.5 7.5h83.179c4.142 0 7.5-3.357 7.5-7.5s-3.358-7.5-7.5-7.5z" fill="#ffffff" data-original="#000000" style=""/><path d="m390.326 363.887h-83.179c-4.142 0-7.5 3.357-7.5 7.5s3.358 7.5 7.5 7.5h83.179c4.142 0 7.5-3.357 7.5-7.5s-3.358-7.5-7.5-7.5z" fill="#ffffff" data-original="#000000" style=""/></g></g></svg>
