<?xml version="1.0"?>
<svg xmlns="http://www.w3.org/2000/svg" xmlns:xlink="http://www.w3.org/1999/xlink" xmlns:svgjs="http://svgjs.com/svgjs" version="1.1" width="512" height="512" x="0" y="0" viewBox="0 0 512 512" style="enable-background:new 0 0 512 512" xml:space="preserve" class=""><g><g xmlns="http://www.w3.org/2000/svg"><path d="m391.564 60.752c-2.758-3.09-7.497-3.36-10.59-.603-3.091 2.757-3.36 7.499-.604 10.589 55.159 61.823 55.969 153.956 4.342 216.672-19.983 24.274-33.603 53.561-39.389 84.696-1.289 6.937-7.381 11.756-14.213 11.756h-48.648l5.45-95.478h30.217c18.951 0 34.369-15.418 34.369-34.37s-15.418-34.37-34.37-34.37c-23.169 0-42.351 18.119-43.672 41.25l-.713 12.49h-35.474l-.713-12.491c-1.321-23.13-20.503-41.249-43.671-41.249-18.952 0-34.37 15.418-34.371 34.37-.001 18.994 15.371 34.37 34.369 34.37h30.218l5.45 95.478h-48.646c-6.851 0-12.929-4.839-14.214-11.759-5.782-31.139-19.394-60.417-39.368-84.667-53.093-64.466-51.027-160.291 9.856-222.382 30.433-31.036 70.946-48.788 114.077-49.987 37.869-1.064 73.886 10.292 104.132 32.807 3.324 2.473 8.021 1.786 10.495-1.538 2.473-3.323 1.784-8.021-1.538-10.495-32.975-24.546-72.229-36.918-113.506-35.767-47.035 1.307-91.203 20.654-124.37 54.479-66.333 67.648-68.619 172.125-10.724 242.42 18.362 22.294 30.879 49.221 36.198 77.869 1.627 8.758 7.054 16.003 14.391 20.173v56.162c0 13.859 9.644 25.501 22.571 28.588v.3c0 17.61 14.327 31.937 31.937 31.937h70.329c17.609 0 31.936-14.327 31.936-31.937v-.3c12.928-3.086 22.571-14.728 22.571-28.588v-56.16c7.338-4.169 12.766-11.412 14.393-20.17 5.322-28.645 17.848-55.584 36.222-77.904 56.3-68.392 55.375-168.823-4.729-236.191zm-102.131 200.996c.867-15.199 13.472-27.104 28.696-27.104 10.68 0 19.369 8.689 19.369 19.37s-8.689 19.37-19.369 19.37h-29.361zm-95.55 11.636c-10.705 0-19.369-8.663-19.369-19.37 0-10.681 8.69-19.371 19.371-19.371 15.223 0 27.828 11.906 28.696 27.104l.664 11.636h-29.362zm79.005 15-5.451 95.478h-22.862l-5.45-95.478zm18.283 208.616h-70.329c-9.168 0-16.639-7.326-16.911-16.429h104.151c-.272 9.103-7.744 16.429-16.911 16.429zm39.508-72.933h-95.589c-4.142 0-7.5 3.358-7.5 7.5s3.358 7.5 7.5 7.5h95.589v12.109c0 7.938-6.458 14.396-14.395 14.396h-120.554c-7.938 0-14.396-6.458-14.396-14.396v-12.109h18.697c4.142 0 7.5-3.358 7.5-7.5s-3.358-7.5-7.5-7.5h-18.697v-25.204h149.345z" fill="#ffffff" data-original="#000000" style="" class=""/></g></g></svg>
