<?xml version="1.0"?>
<svg xmlns="http://www.w3.org/2000/svg" xmlns:xlink="http://www.w3.org/1999/xlink" xmlns:svgjs="http://svgjs.com/svgjs" version="1.1" width="512" height="512" x="0" y="0" viewBox="0 0 512 512" style="enable-background:new 0 0 512 512" xml:space="preserve" class=""><g><g xmlns="http://www.w3.org/2000/svg"><g><path d="m242.314 435.35c4.029 3.141 8.857 4.711 13.686 4.711s9.656-1.57 13.686-4.711c80.387-62.672 157.995-160.902 157.995-263.669 0-94.665-77.016-171.681-171.681-171.681s-171.681 77.016-171.681 171.681c0 102.686 77.582 200.977 157.995 263.669zm13.686-420.35c86.394 0 156.681 70.287 156.681 156.681 0 97.355-75.273 191.854-152.218 251.839-2.627 2.048-6.299 2.049-8.926 0-76.945-59.985-152.218-154.443-152.218-251.839 0-86.394 70.287-156.681 156.681-156.681z" fill="#ffffff" data-original="#000000" style="" class=""/><path d="m354.865 455.571h-197.73c-15.558 0-28.215 12.657-28.215 28.214s12.657 28.215 28.215 28.215h197.73c15.558 0 28.215-12.657 28.215-28.215s-12.657-28.214-28.215-28.214zm0 41.429h-197.73c-7.287 0-13.215-5.928-13.215-13.215s5.928-13.214 13.215-13.214h197.73c7.287 0 13.215 5.928 13.215 13.214s-5.928 13.215-13.215 13.215z" fill="#ffffff" data-original="#000000" style="" class=""/><path d="m148.257 161.552c4.09.668 7.943-2.106 8.611-6.193 7.807-47.811 49.352-84.129 99.132-84.129 49.818 0 91.33 36.35 99.132 84.129.669 4.094 4.53 6.861 8.611 6.193 4.088-.667 6.86-4.522 6.193-8.61-8.979-54.986-56.723-96.712-113.936-96.712-57.294 0-104.967 41.798-113.937 96.71-.667 4.089 2.106 7.944 6.194 8.612z" fill="#ffffff" data-original="#000000" style="" class=""/><path d="m256 287.131c57.295 0 104.969-41.799 113.937-96.712.667-4.088-2.105-7.943-6.193-8.61-4.105-.667-7.943 2.105-8.611 6.193-7.808 47.814-49.353 84.129-99.132 84.129-49.818 0-91.33-36.35-99.132-84.129-.668-4.088-4.522-6.861-8.611-6.193-4.088.667-6.86 4.522-6.193 8.61 8.978 54.987 56.722 96.712 113.935 96.712z" fill="#ffffff" data-original="#000000" style="" class=""/></g></g></g></svg>
