<?xml version="1.0"?>
<svg xmlns="http://www.w3.org/2000/svg" xmlns:xlink="http://www.w3.org/1999/xlink" xmlns:svgjs="http://svgjs.com/svgjs" version="1.1" width="512" height="512" x="0" y="0" viewBox="0 0 512 512" style="enable-background:new 0 0 512 512" xml:space="preserve" class=""><g><g xmlns="http://www.w3.org/2000/svg"><g><path d="m121.694 398.793c-68.946-60.936-120.192-138.673-121.675-230.651-1.293-80.194 62.86-143.382 142.33-139.399 48.256 2.421 91.579 30.486 113.651 73.446 22.072-42.96 65.395-71.025 113.651-73.446 33.386-1.673 65.855 8.732 91.453 29.307 3.229 2.595 3.743 7.315 1.147 10.544s-7.315 3.741-10.544 1.147c-22.73-18.268-51.602-27.497-81.305-26.018-43.632 2.189-82.732 27.966-102.041 67.271-2.332 4.746-7.068 7.693-12.362 7.693 0 0 0 0-.001 0-5.293 0-10.03-2.948-12.361-7.693-19.309-39.305-58.409-65.081-102.041-67.271-70.961-3.539-127.73 52.842-126.58 124.177 1.414 87.703 51.078 161.734 116.61 219.655 3.104 2.742 3.396 7.482.653 10.586-2.746 3.107-7.486 3.393-10.585.652z" fill="#ffffff" data-original="#000000" style="" class=""/></g><g><path d="m239.273 479.353c-17.503-9.099-52.479-28.709-90.058-57.809-3.275-2.536-3.874-7.246-1.338-10.521 2.536-3.273 7.247-3.875 10.522-1.338 36.651 28.38 70.737 47.492 87.794 56.359 6.141 3.193 13.474 3.193 19.615 0 115.621-60.109 229.06-167.01 231.175-298.145.437-27.109-7.437-52.803-22.771-74.304-2.405-3.372-1.621-8.056 1.751-10.461 3.373-2.404 8.056-1.622 10.461 1.752 17.208 24.129 26.044 52.918 25.556 83.255-2.21 137.132-118.49 248.434-239.253 311.212-10.473 5.445-22.978 5.445-33.454 0z" fill="#ffffff" data-original="#000000" style="" class=""/></g></g></g></svg>
