<?xml version="1.0"?>
<svg xmlns="http://www.w3.org/2000/svg" xmlns:xlink="http://www.w3.org/1999/xlink" xmlns:svgjs="http://svgjs.com/svgjs" version="1.1" width="512" height="512" x="0" y="0" viewBox="0 0 506.183 506.183" style="enable-background:new 0 0 512 512" xml:space="preserve" class=""><g><path xmlns="http://www.w3.org/2000/svg" d="m446.327 106.733v-78.353c0-10.838-8.817-19.655-19.655-19.655h-13.255c-8.949 0-16.506 6.018-18.873 14.215l-90.502 35.077c-3.862 1.497-5.78 5.841-4.283 9.704 1.151 2.971 3.988 4.792 6.995 4.792.901 0 1.817-.164 2.708-.509l84.3-32.673v309.127l-195.055-75.6c-.864-.335-1.783-.507-2.71-.507h-11.904c-.003 0-.006 0-.01 0s-.006 0-.01 0h-10.428v-156.913h22.352c.927 0 1.846-.172 2.71-.507l80.922-31.365c3.862-1.497 5.78-5.841 4.283-9.704-1.497-3.862-5.841-5.78-9.703-4.283l-79.616 30.858h-33.878v-15.739c0-11.761-9.569-21.33-21.33-21.33h-32.099c-11.761 0-21.33 9.569-21.33 21.33v16.041c-48.038 3.834-85.956 44.148-85.956 93.155 0 39.394 24.501 73.171 59.064 86.899v31.344c0 9.701 6.211 17.976 14.864 21.066v145.933c0 10.102 8.219 18.321 18.321 18.321h30.325c10.102 0 18.321-8.219 18.321-18.321v-25.574c1.044.063 2.082.098 3.112.098 9.548 0 18.504-2.723 26.738-8.147 6.308-4.156 8.794-12.29 5.912-19.34l-20.771-50.801 15.311-13.955c1.559-1.421 2.448-3.433 2.448-5.543v-21.814c10.219-2.06 17.938-11.106 17.938-21.922v-24.786h3.011l199.951 77.497c2.367 8.197 9.924 14.215 18.873 14.215h13.255c10.838 0 19.655-8.817 19.655-19.655v-78.353c33.621-3.744 59.855-32.324 59.855-66.928v-40.466c0-34.605-26.235-63.185-59.856-66.929zm-287.682 165.618h-17.75v-156.913h17.75zm-51.358-193.983h32.099c3.49 0 6.33 2.84 6.33 6.33v15.739h-44.759v-15.739c0-3.49 2.839-6.33 6.33-6.33zm-92.287 115.526c0-43.261 35.196-78.457 78.457-78.457h32.438v156.914h-32.438c-43.261 0-78.457-35.195-78.457-78.457zm113.342 186.287c-1.559 1.421-2.448 3.433-2.448 5.543v13.849c0 4.142 3.358 7.5 7.5 7.5s7.5-3.358 7.5-7.5v-10.537l3.186-2.904 18.692 45.716c.172.421.049.921-.28 1.138-6.637 4.372-13.749 6.198-21.598 5.534v-6.985c0-4.142-3.358-7.5-7.5-7.5s-7.5 3.358-7.5 7.5v47.601c0 1.831-1.49 3.321-3.321 3.321h-30.324c-1.832 0-3.321-1.49-3.321-3.321v-144.635h69.717v18.06zm48.24-68.044c0 4.061-3.303 7.364-7.364 7.364h-87.79c-4.061 0-7.364-3.303-7.364-7.364v-26.815c6.259 1.326 12.745 2.029 19.393 2.029h83.125zm314.601-98.009c0 26.322-19.528 48.16-44.855 51.81v-31.955c0-4.142-3.357-7.5-7.5-7.5s-7.5 3.358-7.5 7.5v125.425c0 2.567-2.088 4.655-4.655 4.655h-13.255c-2.567 0-4.655-2.088-4.655-4.655v-331.028c0-2.567 2.088-4.655 4.655-4.655h13.255c2.567 0 4.655 2.088 4.655 4.655v173.64c0 4.142 3.357 7.5 7.5 7.5s7.5-3.358 7.5-7.5v-80.169c25.328 3.65 44.855 25.488 44.855 51.811z" fill="#ffffff" data-original="#000000" style=""/></g></svg>
