<?xml version="1.0"?>
<svg xmlns="http://www.w3.org/2000/svg" xmlns:xlink="http://www.w3.org/1999/xlink" xmlns:svgjs="http://svgjs.com/svgjs" version="1.1" width="512" height="512" x="0" y="0" viewBox="0 0 512 512" style="enable-background:new 0 0 512 512" xml:space="preserve" class=""><g><g xmlns="http://www.w3.org/2000/svg"><g><path d="m467.174 6.456h-422.348c-24.717 0-44.826 20.108-44.826 44.825v312.815c0 24.717 20.109 44.825 44.826 44.825h163.99l-15.812 38.273h-40.841c-23.915 0-43.37 19.456-43.37 43.37 0 8.259 6.719 14.979 14.979 14.979h264.458c8.259 0 14.979-6.72 14.979-14.979 0-23.914-19.456-43.37-43.37-43.37h-40.841l-15.812-38.273h163.99c24.717 0 44.826-20.108 44.826-44.825v-312.815c-.002-24.717-20.111-44.825-44.828-44.825zm-107.337 455.739c15.644 0 28.37 12.727 28.398 28.349l-264.443.021c0-15.644 12.727-28.37 28.37-28.37zm-150.604-15 15.812-38.273h61.911l15.812 38.273zm287.767-83.098c0 16.445-13.38 29.825-29.826 29.825-20.293 0-414.886 0-422.349 0-16.445 0-29.825-13.38-29.825-29.825v-312.816c0-16.445 13.38-29.825 29.826-29.825h422.349c16.446 0 29.826 13.38 29.826 29.825v312.816z" fill="#ffffff" data-original="#000000" style=""/><path d="m446.854 47.455h-381.708c-13.314 0-24.146 10.832-24.146 24.147v21.848c0 4.143 3.358 7.5 7.5 7.5s7.5-3.357 7.5-7.5v-21.848c0-5.043 4.103-9.146 9.146-9.146h381.708c5.043 0 9.146 4.104 9.146 9.146v211.828c0 4.143 3.358 7.5 7.5 7.5s7.5-3.357 7.5-7.5v-211.828c0-13.315-10.832-24.147-24.146-24.147z" fill="#ffffff" data-original="#000000" style=""/><path d="m463.5 310.992c-4.142 0-7.5 3.357-7.5 7.5v25.284c0 5.043-4.103 9.146-9.146 9.146h-381.708c-5.043 0-9.146-4.104-9.146-9.146v-215.263c0-4.143-3.358-7.5-7.5-7.5s-7.5 3.357-7.5 7.5v215.263c0 13.314 10.832 24.146 24.146 24.146h381.708c13.314 0 24.146-10.832 24.146-24.146v-25.284c0-4.142-3.358-7.5-7.5-7.5z" fill="#ffffff" data-original="#000000" style=""/></g></g></g></svg>
