<?xml version="1.0"?>
<svg xmlns="http://www.w3.org/2000/svg" xmlns:xlink="http://www.w3.org/1999/xlink" xmlns:svgjs="http://svgjs.com/svgjs" version="1.1" width="512" height="512" x="0" y="0" viewBox="0 0 512 512" style="enable-background:new 0 0 512 512" xml:space="preserve" class=""><g><g xmlns="http://www.w3.org/2000/svg"><path d="m128.771 186.743c.727-1.299 1.637-2.499 2.704-3.567 2.601-2.601 5.906-4.212 9.558-4.659 2.196-.269 4.16-1.494 5.369-3.347 4.318-6.621 11.6-10.573 19.481-10.573 7.88 0 15.163 3.953 19.481 10.574 1.209 1.852 3.173 3.077 5.369 3.346 3.651.447 6.956 2.058 9.558 4.66 1.066 1.066 1.975 2.266 2.704 3.566 2.64 4.718 7.625 7.649 13.009 7.649h28.857c4.141 0 7.498-3.357 7.498-7.498s-3.357-7.498-7.498-7.498l-28.78.023c-1.401-2.504-3.146-4.807-5.187-6.847-4.168-4.168-9.279-7.012-14.932-8.336-7.228-9.221-18.242-14.636-30.079-14.636-11.838 0-22.852 5.414-30.079 14.636-5.653 1.324-10.764 4.168-14.932 8.336-2.041 2.041-3.786 4.345-5.11 6.824-4.141 0-7.498 3.357-7.498 7.498s3.357 7.498 7.498 7.498c5.384 0 10.368-2.931 13.009-7.649z" fill="#ffffff" data-original="#000000" style=""/><path d="m394.565 96.744h-317.346c-11.367 0-20.614 9.247-20.614 20.614v54.638c0 4.141 3.357 7.498 7.498 7.498s7.498-3.357 7.498-7.498v-54.638c0-3.098 2.521-5.618 5.619-5.618h317.346c3.098 0 5.617 2.52 5.617 5.618v204.196c-16.253-2.226-32.825-3.364-49.392-3.364-18.196 0-36.096 1.32-53.508 3.896-58.344-32.412-136.617-50.248-220.818-50.248-1.564 0-3.175.009-4.864.027v-64.816c0-4.141-3.357-7.498-7.498-7.498s-7.498 3.357-7.498 7.498v227.81c0 11.367 9.248 20.614 20.614 20.614h317.346c11.366 0 20.613-9.247 20.613-20.614v-317.501c0-11.367-9.248-20.614-20.613-20.614zm-286.8 343.733h-30.546c-3.098 0-5.619-2.52-5.619-5.618v-147.998c1.695-.018 3.305-.028 4.864-.028 72.618 0 142.896 14.334 196.64 39.712-26.846 5.961-52.216 15.048-75.303 27.093-42.29 22.065-73.309 52.017-90.036 86.839zm292.417-5.618c0 3.098-2.52 5.618-5.617 5.618h-269.92c15.958-28.878 43.972-54.699 80.093-73.544 27.616-14.408 58.721-24.38 91.794-29.572.379-.031.754-.087 1.123-.174 17.254-2.648 35.036-4.001 53.135-4.001 16.581 0 33.164 1.181 49.392 3.502z" fill="#ffffff" data-original="#000000" style=""/><path d="m338.985 227.28c23.177 0 42.032-18.856 42.032-42.033s-18.856-42.032-42.032-42.032c-23.177 0-42.032 18.856-42.032 42.032 0 23.177 18.855 42.033 42.032 42.033zm0-69.069c14.909 0 27.037 12.129 27.037 27.037 0 14.909-12.128 27.037-27.037 27.037s-27.037-12.129-27.037-27.037c0-14.909 12.128-27.037 27.037-27.037z" fill="#ffffff" data-original="#000000" style=""/><path d="m467.393 0h-382.569c-23.166 0-42.248 17.784-44.332 40.415-22.631 2.084-40.415 21.166-40.415 44.332v382.723c0 24.554 19.976 44.53 44.53 44.53h382.569c23.166 0 42.248-17.784 44.332-40.415 22.631-2.084 40.415-21.166 40.415-44.332v-382.723c0-24.554-19.976-44.53-44.53-44.53zm29.534 427.253c0 14.82-10.974 27.122-25.222 29.216v-44.85c0-4.141-3.356-7.498-7.498-7.498s-7.498 3.357-7.498 7.498v55.85c0 16.286-13.249 29.535-29.534 29.535h-382.568c-16.285 0-29.534-13.249-29.534-29.535v-382.722c0-16.285 13.249-29.534 29.534-29.534h382.569c16.285 0 29.534 13.249 29.534 29.534v291.883c0 4.141 3.356 7.498 7.498 7.498s7.498-3.357 7.498-7.498v-291.883c0-24.554-19.975-44.53-44.53-44.53h-371.568c2.094-14.248 14.396-25.222 29.216-25.222h382.569c16.285 0 29.534 13.249 29.534 29.534z" fill="#ffffff" data-original="#000000" style=""/></g></g></svg>
