<?xml version="1.0"?>
<svg xmlns="http://www.w3.org/2000/svg" xmlns:xlink="http://www.w3.org/1999/xlink" xmlns:svgjs="http://svgjs.com/svgjs" version="1.1" width="512" height="512" x="0" y="0" viewBox="0 0 512 512" style="enable-background:new 0 0 512 512" xml:space="preserve" class=""><g><g xmlns="http://www.w3.org/2000/svg"><path d="m486.029 15.744h-460.058c-14.321 0-25.971 11.65-25.971 25.97s11.65 25.971 25.971 25.971h8.376v38.25c0 4.142 3.357 7.5 7.5 7.5s7.5-3.358 7.5-7.5v-38.25h413.306v248.929c0 9.265-7.537 16.802-16.801 16.802h-379.704c-9.265 0-16.802-7.537-16.802-16.802v-175.161c0-4.142-3.357-7.5-7.5-7.5s-7.5 3.358-7.5 7.5v175.161c0 17.536 14.267 31.802 31.802 31.802h84.928l-49.852 108.751c-6.352 13.857-.281 30.215 13.579 36.568 13.915 6.377 30.24.224 36.568-13.58l26.883-58.646h155.49l26.883 58.646c6.348 13.847 22.763 19.908 36.567 13.58 13.858-6.351 19.934-22.708 13.58-36.568l-4.663-10.172c-1.726-3.764-6.173-5.418-9.942-3.692-3.766 1.726-5.419 6.178-3.692 9.943l4.663 10.172c2.898 6.322.128 13.784-6.195 16.682-6.31 2.892-13.791.112-16.683-6.195l-57.524-125.489h27.685l33.34 72.732c1.262 2.752 3.979 4.376 6.822 4.376 1.045 0 2.107-.22 3.12-.684 3.766-1.726 5.419-6.178 3.692-9.943l-30.475-66.481h84.928c17.535 0 31.801-14.266 31.801-31.802v-248.929h8.377c14.32 0 25.971-11.65 25.971-25.971s-11.649-25.97-25.97-25.97zm-348.292 458.16c-2.9 6.323-10.359 9.092-16.683 6.195-6.322-2.897-9.094-10.359-6.195-16.682l52.717-115.002h27.684zm189.132-67.394h-141.738l26.63-58.094h88.477zm159.16-353.825h-460.058c-6.049 0-10.971-4.921-10.971-10.971s4.922-10.971 10.971-10.971h460.059c6.049 0 10.971 4.921 10.971 10.971s-4.923 10.971-10.972 10.971z" fill="#ffffff" data-original="#000000" style=""/></g></g></svg>
