<?xml version="1.0"?>
<svg xmlns="http://www.w3.org/2000/svg" xmlns:xlink="http://www.w3.org/1999/xlink" xmlns:svgjs="http://svgjs.com/svgjs" version="1.1" width="512" height="512" x="0" y="0" viewBox="0 0 512 512" style="enable-background:new 0 0 512 512" xml:space="preserve" class=""><g><g xmlns="http://www.w3.org/2000/svg"><g><path d="m256 471.833c119.34 0 215.833-96.77 215.833-215.833 0-57.651-22.45-111.852-63.216-152.617s-94.966-63.216-152.617-63.216-111.852 22.45-152.617 63.216-63.216 94.966-63.216 152.617c0 118.863 96.293 215.833 215.833 215.833zm0-15c-54.424 0-103.852-21.771-140.059-57.049 11.544-32.848 39.476-57.068 73.902-63.693l15.037-2.895c27.246 32.275 77.184 32.576 104.99.529l12.287 2.365c34.426 6.625 62.358 30.845 73.902 63.693-36.207 35.279-85.635 57.05-140.059 57.05zm18.136-302.936c-11.192 3.597-25.1 3.589-36.271 0-23.204-7.455-41.132 7.527-41.051 26.683l.026 22.89-11.679-4.066c-1.686-.587-2.817-2.18-2.817-3.963v-27.909c0-27.431 22.316-49.748 49.748-49.748h57.655c6.888 0 12.491 5.604 12.491 12.492 0 7.858 6.394 14.252 14.252 14.252h.674c6.889 0 12.492 5.604 12.492 12.491v38.423c0 1.783-1.132 3.376-2.816 3.962l-11.676 4.066.022-22.867c.081-19.115-17.714-34.203-41.05-26.706zm-81.279 64.07c9.279 3.229 19-3.679 18.983-13.511l-.027-23.916c-.041-9.76 8.557-16.509 21.463-12.361 14.127 4.538 31.177 4.585 45.447 0 12.701-4.08 21.504 2.483 21.463 12.385l-.023 23.893c-.012 9.827 9.702 16.743 18.984 13.511l11.565-4.028v14.029c0 4.449-3.62 8.069-8.069 8.069h-1.127c-4.029 0-7.338 3.184-7.494 7.209-.575 14.824-6.747 27.817-17.847 37.576-23.754 20.878-56.113 20.863-79.863.341-11.007-9.512-17.456-23-18.161-37.979-.188-4.001-3.487-7.147-7.492-7.147h-1.303c-4.449 0-8.069-3.62-8.069-8.069v-14.03zm101.059 110.625c-21.148 19.159-53.693 18.586-74.033-1.293 5.848-4.68 9.469-11.83 9.469-19.761v-1.077c17.327 6.773 36.025 6.768 53.298.052v1.025c-.001 8.66 4.415 16.454 11.266 21.054zm-37.916-273.425c110.739 0 200.833 90.094 200.833 200.833 0 50.363-18.638 96.451-49.374 131.741-14.666-34.263-45.281-59.224-82.468-66.381-2.191-.422-2.112-.407-18.937-3.645-4.87-.937-8.405-5.217-8.405-10.178v-8.922c2.892-1.957 5.703-4.132 8.43-6.529 12.625-11.1 20.288-25.448 22.395-41.797 9.907-2.589 17.239-11.616 17.239-22.323v-21.261c0-2.455-.531-4.875-1.525-7.095.302-1.351.469-2.746.469-4.171v-38.423c0-15.138-12.298-27.457-27.428-27.491-.397-14.815-12.572-26.744-27.481-26.744h-57.655c-35.702 0-64.748 29.046-64.748 64.748v27.909c0 1.425.167 2.82.469 4.171-.995 2.219-1.525 4.64-1.525 7.095v21.261c0 10.791 7.448 19.876 17.474 22.383 2.271 16.536 10.207 31.328 22.744 42.162 2.544 2.199 5.163 4.198 7.847 6.018v9.007c0 4.849-3.311 8.996-8.05 10.086-1.185.272-5.859 1.137-19.293 3.736-37.187 7.157-67.802 32.117-82.468 66.381-30.738-35.287-49.376-81.375-49.376-131.738 0-110.739 90.094-200.833 200.833-200.833z" fill="#ffffff" data-original="#000000" style=""/><path d="m413.215 438.664c-43.666 37.619-99.499 58.336-157.215 58.336-133.194 0-241-107.787-241-241 0-57.716 20.717-113.549 58.336-157.215 2.703-3.139 2.351-7.874-.787-10.578-3.138-2.701-7.873-2.351-10.578.787-39.962 46.388-61.971 105.698-61.971 167.006 0 141.488 114.502 256 256 256 61.308 0 120.618-22.009 167.006-61.971 3.138-2.704 3.49-7.439.787-10.578-2.703-3.138-7.439-3.489-10.578-.787z" fill="#ffffff" data-original="#000000" style=""/><path d="m437.02 74.98c-48.352-48.351-112.64-74.98-181.02-74.98-62.077 0-121.952 22.499-168.597 63.354-3.116 2.729-3.43 7.467-.7 10.583 2.729 3.117 7.468 3.431 10.583.7 43.908-38.457 100.274-59.637 158.714-59.637 64.374 0 124.895 25.068 170.413 70.587s70.587 106.039 70.587 170.413c0 58.44-21.18 114.806-59.637 158.714-2.729 3.116-2.416 7.854.7 10.583 3.121 2.736 7.861 2.409 10.583-.7 40.855-46.645 63.354-106.52 63.354-168.597 0-68.38-26.629-132.668-74.98-181.02z" fill="#ffffff" data-original="#000000" style=""/></g></g></g></svg>
