<?xml version="1.0"?>
<svg xmlns="http://www.w3.org/2000/svg" xmlns:xlink="http://www.w3.org/1999/xlink" xmlns:svgjs="http://svgjs.com/svgjs" version="1.1" width="512" height="512" x="0" y="0" viewBox="0 0 507.548 507.548" style="enable-background:new 0 0 512 512" xml:space="preserve"><g><g xmlns="http://www.w3.org/2000/svg"><path d="m257.113 202.985c-4.111-.341-7.748 2.736-8.085 6.866l-1.675 20.538c-2.906-1.173-6.075-1.825-9.396-1.825h-3.527v-19.62c0-8.844-7.195-16.04-16.039-16.04h-30.867c-23.084 0-45.926-7.682-64.319-21.631l-3.535-2.681c-2.688-2.038-6.006-2.886-9.34-2.392-3.336.496-6.263 2.273-8.241 5.005-9.309 12.857-14.229 28.042-14.229 43.916v13.443h-3.527c-3.186 0-6.233.601-9.041 1.685l-6.265-44.67c-.866-6.177-.619-12.399.735-18.493.898-4.043-1.65-8.05-5.694-8.948-4.043-.901-8.05 1.651-8.948 5.694-1.745 7.852-2.063 15.869-.948 23.83l7.681 54.761c-1.722 3.406-2.699 7.251-2.699 11.321 0 13.885 11.296 25.181 25.181 25.181h3.752c1.745 23.542 14.649 44.014 33.44 56.142v18.973l-51.756 24.461c-37.081 17.523-61.04 55.346-61.04 96.357v25.19c0 4.142 3.357 7.5 7.5 7.5s7.5-3.358 7.5-7.5v-25.19c0-35.239 20.587-67.738 52.447-82.796l46.999-22.213c4.741 15.476 19.16 26.762 36.168 26.762s31.427-11.287 36.168-26.762l47.002 22.214.754.374c1.057.513 2.173.756 3.272.756 2.782 0 5.454-1.554 6.752-4.224 1.81-3.726.258-8.213-3.468-10.023l-.26-.129c-.214-.108-.429-.215-.644-.316l-51.756-24.461v-16.792c20.729-11.753 35.185-33.305 37.039-58.322h3.752c13.885 0 25.181-11.296 25.181-25.181 0-3.359-.666-6.563-1.865-9.496l2.706-33.179c.337-4.129-2.737-7.749-6.865-8.085zm-182.962 50.759c0-5.614 4.567-10.181 10.181-10.181h3.527v20.362h-3.527c-5.614 0-10.181-4.567-10.181-10.181zm108.015 105.047c0 12.583-10.237 22.821-22.821 22.821s-22.821-10.238-22.821-22.821v-16.308c7.7 2.755 15.986 4.267 24.621 4.267 7.305 0 14.358-1.089 21.021-3.088zm37.264-85.327c0 32.139-26.146 58.286-58.285 58.286s-58.286-26.147-58.286-58.286v-58.343c0-11.814 3.408-23.152 9.884-32.957l1.398 1.061c20.985 15.915 47.046 24.679 73.383 24.679h30.867c.573 0 1.039.466 1.039 1.04zm18.527-9.539h-3.527v-20.362h3.527c5.613 0 10.181 4.567 10.181 10.181s-4.567 10.181-10.181 10.181z" fill="#ffffff" data-original="#000000" style=""/><path d="m77.506 144.757c1.978 0 3.953-.778 5.426-2.322 7.359-7.71 16.776-12.908 27.231-15.031.484-.099.958-.245 1.414-.437l24.372-10.247c34.121-14.347 72.759-4.566 96.138 24.345 2.605 3.221 7.329 3.72 10.548 1.115 3.221-2.604 3.721-7.327 1.116-10.548-12.86-15.902-30.765-27.632-50.414-33.031-20.97-5.761-42.824-4.277-63.202 4.292l-23.706 9.967c-13.175 2.83-25.037 9.464-34.347 19.218-2.86 2.996-2.75 7.744.246 10.604 1.454 1.387 3.317 2.075 5.178 2.075z" fill="#ffffff" data-original="#000000" style=""/><path d="m267.346 398.838c-2.898 2.958-2.851 7.707.108 10.606 17.479 17.127 27.505 40.97 27.505 65.414v25.19c0 4.142 3.357 7.5 7.5 7.5s7.5-3.358 7.5-7.5v-25.19c0-28.45-11.666-56.198-32.007-76.128-2.959-2.898-7.706-2.852-10.606.108z" fill="#ffffff" data-original="#000000" style=""/><path d="m72.627 460.631c-4.143 0-7.5 3.358-7.5 7.5v31.917c0 4.142 3.357 7.5 7.5 7.5s7.5-3.358 7.5-7.5v-31.917c0-4.142-3.357-7.5-7.5-7.5z" fill="#ffffff" data-original="#000000" style=""/><path d="m246.063 460.631c-4.143 0-7.5 3.358-7.5 7.5v31.917c0 4.142 3.357 7.5 7.5 7.5s7.5-3.358 7.5-7.5v-31.917c0-4.142-3.358-7.5-7.5-7.5z" fill="#ffffff" data-original="#000000" style=""/><path d="m392.455 157.413c-3.56 2.118-4.728 6.721-2.609 10.281 1.403 2.357 3.896 3.665 6.452 3.665 1.305 0 2.627-.34 3.829-1.056 22.496-13.389 36.471-37.943 36.471-64.08 0-2.153-.104-4.349-.315-6.712-.369-4.125-4.015-7.162-8.14-6.8-4.126.371-7.17 4.015-6.8 8.141.172 1.913.255 3.67.255 5.372 0 20.876-11.167 40.49-29.143 51.189z" fill="#ffffff" data-original="#000000" style=""/><path d="m362.064 46.689c9.801 0 19.52 2.437 28.107 7.046 3.649 1.959 8.195.589 10.155-3.061 1.959-3.649.589-8.196-3.062-10.155-10.761-5.777-22.934-8.831-35.201-8.831-41.099 0-74.534 33.436-74.534 74.534s33.436 74.534 74.534 74.534c1.244 0 2.519-.032 3.789-.096 4.137-.207 7.322-3.729 7.115-7.866s-3.705-7.331-7.865-7.116c-1.021.051-2.044.077-3.039.077-32.827 0-59.534-26.707-59.534-59.534s26.708-59.532 59.535-59.532z" fill="#ffffff" data-original="#000000" style=""/><path d="m493.259 44.261-20.359-11.38-2.514-23.186c-.411-3.796-2.72-7.031-6.175-8.655-3.458-1.623-7.42-1.334-10.604.772l-33.835 22.389c-3.399 2.25-5.238 6.165-4.8 10.22l2.812 25.936-26.136 17.294c-7.489-7.753-17.98-12.588-29.585-12.588-22.695 0-41.159 18.464-41.159 41.159s18.464 41.158 41.159 41.158c22.694 0 41.158-18.463 41.158-41.158 0-5.701-1.167-11.135-3.272-16.076l26.112-17.279 22.773 12.729c1.657.926 3.479 1.386 5.297 1.386 2.087 0 4.169-.606 5.987-1.809l33.833-22.388c3.185-2.106 5-5.642 4.857-9.457-.141-3.814-2.216-7.204-5.549-9.067zm-105.037 61.962c0 14.424-11.734 26.158-26.158 26.158s-26.159-11.734-26.159-26.158 11.735-26.159 26.159-26.159c6.366 0 12.207 2.289 16.748 6.083l-20.886 13.821c-3.454 2.286-4.401 6.939-2.116 10.394 1.443 2.181 3.829 3.362 6.262 3.362 1.421 0 2.858-.403 4.132-1.246l20.896-13.828c.727 2.399 1.122 4.94 1.122 7.573zm41.936-70.906 26.05-17.237 1.705 15.726-26.05 17.237zm23.791 35.954-13.809-7.718 10.174-6.732 15.877-10.506 13.808 7.718z" fill="#ffffff" data-original="#000000" style=""/><path d="m459.655 101.543c-4.169-.13-7.593 3.143-7.711 7.284-.66 23.203-10.238 45.03-26.97 61.462-16.741 16.442-38.759 25.624-61.997 25.854-23.149.229-45.169-8.303-62.093-24.024-1.522-1.414-3.565-2.131-5.633-1.986l-36.705 2.59 18.691-27.52c1.378-2.028 1.677-4.602.802-6.892-4.22-11.038-6.192-22.684-5.865-34.615 1.328-48.359 41.578-87.397 89.908-87.397.264 0 .537.001.801.003 11.004.099 21.744 2.167 31.924 6.149 3.857 1.509 8.209-.394 9.717-4.252 1.509-3.857-.395-8.208-4.252-9.717-11.886-4.65-24.42-7.065-37.255-7.18-.312-.003-.623-.004-.935-.004-56.385 0-103.353 45.558-104.902 101.985-.345 12.574 1.505 24.884 5.502 36.652l-19.712 29.023c-2.661 3.918-2.847 8.903-.483 13.008 2.362 4.105 6.771 6.449 11.491 6.115l39.152-2.763c19.139 16.701 43.453 25.828 68.937 25.828.352 0 .706-.002 1.059-.005 27.138-.269 52.836-10.977 72.359-30.151 19.512-19.163 30.682-44.64 31.453-71.737.118-4.141-3.144-7.592-7.283-7.71z" fill="#ffffff" data-original="#000000" style=""/></g></g></svg>
