<?xml version="1.0"?>
<svg xmlns="http://www.w3.org/2000/svg" xmlns:xlink="http://www.w3.org/1999/xlink" xmlns:svgjs="http://svgjs.com/svgjs" version="1.1" width="512" height="512" x="0" y="0" viewBox="0 0 511.453 511.453" style="enable-background:new 0 0 512 512" xml:space="preserve"><g><g xmlns="http://www.w3.org/2000/svg"><path d="m405.333 426.396v-36.303c0-4.143-3.358-7.5-7.5-7.5s-7.5 3.357-7.5 7.5v36.303c0 4.143 3.358 7.5 7.5 7.5s7.5-3.358 7.5-7.5z" fill="#ffffff" data-original="#000000" style=""/><path d="m413.284 327.87c-9.024-4.775-15.576-11.102-20.029-19.341-1.9-3.513-5.704-5.623-9.688-5.383-4.007.244-7.407 2.714-8.872 6.445-3.172 8.083-9.01 13.913-17.845 17.823-3.782 1.674-6.175 5.424-6.098 9.555.078 4.144 2.619 7.812 6.473 9.348 8.438 3.361 14.116 9.126 17.358 17.624 1.443 3.782 4.976 6.379 9.001 6.615.2.012.399.018.598.018 3.794 0 7.32-2.121 9.101-5.524 4.241-8.112 10.734-14.31 19.851-18.946 3.44-1.75 5.596-5.228 5.626-9.075.032-3.848-2.068-7.358-5.476-9.159zm-28.579 22.717c-3.454-5.683-7.985-10.337-13.561-13.927 5.592-3.702 10.122-8.289 13.55-13.723 3.976 5.346 8.838 10.005 14.549 13.94-5.753 3.851-10.613 8.433-14.538 13.71z" fill="#ffffff" data-original="#000000" style=""/><path d="m124.107 277.057c.197.012.393.017.588.017 3.738 0 7.212-2.089 8.965-5.44 3.967-7.588 10.044-13.387 18.58-17.728 3.388-1.723 5.512-5.147 5.542-8.938.031-3.789-2.036-7.248-5.397-9.026-8.452-4.472-14.587-10.395-18.757-18.107-1.871-3.46-5.605-5.538-9.542-5.302-3.948.24-7.298 2.673-8.742 6.351v.001c-2.956 7.532-8.401 12.967-16.645 16.615-3.727 1.648-6.084 5.345-6.008 9.415.077 4.082 2.58 7.697 6.377 9.209 7.859 3.13 13.148 8.5 16.169 16.418 1.424 3.725 4.905 6.283 8.87 6.515zm1.097-44.686c3.6 4.735 7.941 8.894 12.992 12.445-5.083 3.473-9.418 7.56-12.975 12.228-3.144-5.014-7.186-9.168-12.101-12.434 4.925-3.352 8.962-7.442 12.084-12.239z" fill="#ffffff" data-original="#000000" style=""/><path d="m319.589 424.283-31.169-4.529-13.94-28.245c-.839-1.7-2.045-3.125-3.493-4.207v-59.37l23.326 7.099c1.479.45 2.99.668 4.487.668 4.801-.001 9.458-2.238 12.428-6.208l15.642-20.915 11.061 7.607c1.298.893 2.778 1.321 4.243 1.321 2.386 0 4.732-1.137 6.187-3.251 2.347-3.413 1.483-8.082-1.93-10.43l-12.375-8.511c.429-4.664-1.342-9.445-5.146-12.674l-15.496-13.148c-1.582-1.343-3.392-2.302-5.302-2.878v-19.209c1.399-.994 2.776-2.021 4.109-3.111 3.208-2.621 3.683-7.347 1.061-10.554-2.62-3.207-7.345-3.681-10.553-1.062-11.036 9.02-24.972 13.986-39.242 13.986-34.224 0-62.067-27.844-62.067-62.067v-50.199c0-19.843 16.144-35.986 35.988-35.986h47.474c1.715 0 3.378-.588 4.713-1.666l9.239-7.463 8.62 7.41c11.503 9.888 18.101 24.258 18.101 39.428v48.477c0 8.815-1.827 17.355-5.431 25.381-1.696 3.779-.008 8.218 3.771 9.914 3.778 1.697 8.217.01 9.914-3.77 2.896-6.451 4.853-13.17 5.885-20.072h1.994c15.985 0 28.991-13.006 28.991-28.991 0-6.996-2.491-13.42-6.632-18.434l6.284-44.674c4.411-31.356-17.481-60.656-48.801-65.312l-1.594-.237c-10.046-16.879-25.86-29.053-44.896-34.451l-2.288-.648c-26.343-7.47-55.128-2.083-76.999 14.41-3.307 2.494-3.966 7.197-1.472 10.504 2.493 3.308 7.195 3.966 10.504 1.473 18.143-13.683 42.022-18.151 63.876-11.955l2.288.648c16.236 4.604 29.564 15.333 37.529 30.212 5.879 10.983 8.245 23.145 7.006 35.222l-7.788-6.695c-4.961-4.263-12.256-4.375-17.347-.264l-8.116 6.556h-44.823c-28.115 0-50.988 22.872-50.988 50.986v3.671h-1.132c-2.645 0-5.205.363-7.641 1.029-10.562-28.701-7.714-61.164 7.868-87.603 2.103-3.568.915-8.166-2.653-10.269-3.569-2.104-8.167-.915-10.27 2.653-18.322 31.087-21.282 69.441-8.044 102.953-5.099 5.228-8.25 12.365-8.25 20.227 0 15.985 13.005 28.99 28.991 28.99h1.987c3.16 21.114 14.923 39.439 31.587 51.32v19.242c-1.91.577-3.72 1.535-5.302 2.878l-15.497 13.149c-3.804 3.229-5.575 8.01-5.146 12.674l-38.716 26.626c-20.389 14.021-32.561 37.166-32.561 61.912v42.546c0 4.143 3.358 7.5 7.5 7.5s7.5-3.357 7.5-7.5v-42.547c0-19.806 9.742-38.33 26.061-49.553l37.402-25.722 15.643 20.915c2.97 3.971 7.626 6.208 12.427 6.208 1.497 0 3.008-.218 4.486-.668l23.328-7.099v60.208c-1.005.945-1.855 2.078-2.493 3.37l-13.94 28.245-31.17 4.529c-4.44.646-8.06 3.697-9.446 7.965-1.386 4.267-.251 8.862 2.961 11.993l22.555 21.985-5.325 31.043c-.759 4.422 1.025 8.808 4.654 11.444s8.351 2.98 12.323.892l27.879-14.657 27.879 14.657c1.728.908 3.596 1.356 5.456 1.356 2.416 0 4.816-.758 6.867-2.248 3.629-2.637 5.413-7.022 4.654-11.443l-5.325-31.044 22.555-21.985c3.213-3.131 4.348-7.727 2.962-11.993-1.387-4.268-5.007-7.32-9.447-7.965zm22.097-243.235h-1.132v-27.981h1.132c7.714 0 13.991 6.276 13.991 13.991 0 7.714-6.277 13.99-13.991 13.99zm13.79-79.189-5.273 37.486c-2.694-.83-5.554-1.278-8.516-1.278h-1.132v-1.948c0-14.03-4.4-27.517-12.354-38.73 3.722-13.907 3.459-28.276-.661-41.819 18.673 6.741 30.801 25.918 27.936 46.289zm-184.179 65.198c0-7.714 6.276-13.99 13.991-13.99h1.132v27.981h-1.132c-7.714 0-13.991-6.276-13.991-13.991zm147.772 126.903-19.853 26.545c-.123.165-.339.232-.535.175l-27.695-8.429v-15.155l32.815-16.09zm-55.582-32.297c10.217 0 20.293-2.062 29.625-5.946v13.825l-29.625 14.525-29.625-14.525v-13.809c9.126 3.814 19.132 5.93 29.625 5.93zm-35.197 59.017c-.195.062-.41-.011-.533-.175l-19.853-26.545 15.268-12.954 32.815 16.09v15.155zm63.518 136.014c-2.758 2.688-4.017 6.56-3.367 10.358l4.488 26.165-23.497-12.354c-1.705-.896-3.575-1.344-5.445-1.344s-3.74.447-5.445 1.344l-23.497 12.354 4.488-26.167c.65-3.797-.609-7.669-3.366-10.355l-19.01-18.529 26.273-3.817c3.811-.555 7.103-2.947 8.808-6.401l11.749-23.806 11.749 23.807c1.705 3.453 4.997 5.846 8.81 6.4l26.271 3.817z" fill="#ffffff" data-original="#000000" style=""/><path d="m404.889 455.378-16.21-2.356-7.249-14.688v-.001c-1.682-3.406-5.087-5.522-8.887-5.522-3.799.001-7.203 2.117-8.884 5.523l-7.25 14.688-16.21 2.356c-3.76.546-6.825 3.13-7.999 6.743s-.213 7.506 2.507 10.157l11.73 11.435-2.769 16.143c-.644 3.746.867 7.46 3.942 9.693 1.737 1.262 3.769 1.903 5.815 1.903 1.575 0 3.158-.38 4.62-1.149l14.499-7.622 14.497 7.621c3.363 1.769 7.361 1.479 10.436-.752 3.074-2.233 4.585-5.947 3.943-9.692l-2.769-16.145 11.729-11.434c2.721-2.652 3.682-6.544 2.508-10.157-1.174-3.614-4.24-6.198-7.999-6.744zm-18.626 19.462c-2.334 2.276-3.399 5.554-2.849 8.771l1.478 8.615-7.735-4.066c-1.445-.76-3.029-1.14-4.614-1.14-1.583 0-3.167.38-4.61 1.139l-7.737 4.067 1.478-8.614c.552-3.215-.513-6.494-2.85-8.772l-6.259-6.101 8.643-1.257c3.23-.466 6.021-2.492 7.468-5.421l3.869-7.839 3.869 7.841c1.445 2.927 4.237 4.953 7.46 5.418l8.65 1.258z" fill="#ffffff" data-original="#000000" style=""/><path d="m186.775 455.378-16.21-2.356-7.25-14.688c-1.681-3.407-5.085-5.523-8.884-5.524h-.001c-3.799 0-7.204 2.116-8.885 5.522v.001l-7.249 14.688-16.209 2.356c-3.76.546-6.826 3.13-8 6.744-1.174 3.613-.213 7.505 2.508 10.157l11.729 11.434-2.769 16.145c-.642 3.745.869 7.459 3.943 9.692 1.737 1.261 3.769 1.902 5.814 1.902 1.575 0 3.158-.381 4.62-1.149l14.499-7.622 14.497 7.621c3.363 1.769 7.362 1.48 10.437-.753s4.585-5.947 3.942-9.691l-2.769-16.145 11.729-11.434c2.721-2.652 3.682-6.545 2.508-10.158-1.175-3.612-4.24-6.196-8-6.742zm-18.626 19.462c-2.336 2.277-3.401 5.557-2.849 8.771l1.478 8.615-7.735-4.066c-2.889-1.52-6.337-1.519-9.224-.001l-7.737 4.067 1.478-8.618c.55-3.214-.516-6.491-2.851-8.769l-6.259-6.101 8.644-1.257c3.23-.466 6.021-2.492 7.468-5.421l3.868-7.839 3.87 7.841c1.445 2.927 4.237 4.953 7.46 5.418l8.65 1.258z" fill="#ffffff" data-original="#000000" style=""/><path d="m186.358 420.769v-36.724c0-4.143-3.358-7.5-7.5-7.5s-7.5 3.357-7.5 7.5v36.724c0 4.143 3.358 7.5 7.5 7.5s7.5-3.357 7.5-7.5z" fill="#ffffff" data-original="#000000" style=""/><path d="m340.615 384.045v36.724c0 4.143 3.358 7.5 7.5 7.5s7.5-3.357 7.5-7.5v-36.724c0-4.143-3.358-7.5-7.5-7.5s-7.5 3.358-7.5 7.5z" fill="#ffffff" data-original="#000000" style=""/></g></g></svg>
