<?xml version="1.0"?>
<svg xmlns="http://www.w3.org/2000/svg" xmlns:xlink="http://www.w3.org/1999/xlink" xmlns:svgjs="http://svgjs.com/svgjs" version="1.1" width="512" height="512" x="0" y="0" viewBox="0 0 512 512" style="enable-background:new 0 0 512 512" xml:space="preserve"><g><g xmlns="http://www.w3.org/2000/svg"><g><path d="m456.362 55.635c-74.181-74.18-194.882-74.178-269.062 0-69.023 69.024-73.393 176.682-16.241 250.606l-19.994 19.994c-7.181-3.314-15.932-2.312-22.184 3.177l-118.861 104.378c-12.781 11.222-13.421 30.957-1.395 42.985l26.597 26.597c12.071 12.069 31.785 11.361 42.985-1.394l104.377-118.862c5.489-6.251 6.492-15.002 3.178-22.184l19.994-19.994c73.914 57.145 181.572 52.792 250.606-16.241 74.179-74.181 74.179-194.881 0-269.062zm-389.429 436.443c-5.5 6.263-15.163 6.623-21.102.684l-26.597-26.597c-5.895-5.893-5.628-15.56.685-21.102l91.335-80.204 35.884 35.884zm104.377-118.863-14.252 16.23-34.507-34.507 16.23-14.252c2.186-1.92 5.509-1.813 7.566.245l24.718 24.718c2.057 2.057 2.166 5.38.245 7.566zm4.745-23.795-13.478-13.478 18.149-18.149c4.271 4.711 8.763 9.203 13.478 13.478zm269.698-35.333c-64.619 64.621-166.898 68.199-235.644 11.112-.084-.073-.168-.146-.254-.214-8.248-6.876-15.744-14.327-22.841-22.841-.069-.088-.144-.173-.218-.258-57.008-68.655-53.601-170.929 11.114-235.642 68.319-68.321 179.502-68.341 247.844 0 68.329 68.331 68.329 179.514-.001 247.843z" fill="#ffffff" data-original="#000000" style=""/><path d="m404.594 296.537c-53.474 41.718-130.019 36.953-178.054-11.081-48.035-48.035-52.8-124.581-11.082-178.054 2.548-3.266 1.966-7.98-1.3-10.528-3.264-2.548-7.98-1.967-10.528 1.3-46.369 59.435-41.081 144.508 12.301 197.891 53.268 53.266 138.332 58.768 197.891 12.3 3.266-2.548 3.848-7.262 1.3-10.528-2.548-3.267-7.263-3.849-10.528-1.3z" fill="#ffffff" data-original="#000000" style=""/><path d="m427.731 84.266c-53.385-53.383-138.46-58.67-197.892-12.3-3.266 2.548-3.848 7.262-1.3 10.528 2.547 3.265 7.261 3.848 10.528 1.3 53.474-41.718 130.02-36.954 178.055 11.081 48.022 48.021 52.796 124.557 11.104 178.026-2.548 3.266-1.964 7.98 1.303 10.527 3.265 2.548 7.98 1.964 10.527-1.302 46.341-59.431 41.042-144.492-12.325-197.86z" fill="#ffffff" data-original="#000000" style=""/></g></g></g></svg>
