<?xml version="1.0"?>
<svg xmlns="http://www.w3.org/2000/svg" xmlns:xlink="http://www.w3.org/1999/xlink" xmlns:svgjs="http://svgjs.com/svgjs" version="1.1" width="512" height="512" x="0" y="0" viewBox="0 0 512 512" style="enable-background:new 0 0 512 512" xml:space="preserve"><g><g xmlns="http://www.w3.org/2000/svg"><path d="m418.081 185.037v-149.709c0-19.479-15.849-35.328-35.329-35.328s-35.328 15.849-35.328 35.328v5.347l-159.484 109.848h-59.505c-4.142 0-7.5 3.357-7.5 7.5s3.358 7.5 7.5 7.5h54.338v180.953h-97.179c-15.869 0-28.779-12.91-28.779-28.778v-123.396c0-15.868 12.91-28.778 28.779-28.778h7.781c4.142 0 7.5-3.357 7.5-7.5s-3.358-7.5-7.5-7.5h-7.781c-24.14 0-43.779 19.639-43.779 43.778v123.396c0 24.14 19.639 43.778 43.779 43.778h102.346l159.484 109.849v5.347c0 19.479 15.848 35.328 35.328 35.328s35.329-15.849 35.329-35.328v-149.709c30.949-9.741 52.104-38.432 52.104-70.963 0-32.579-21.198-61.235-52.104-70.963zm-15 291.635c0 11.209-9.119 20.328-20.329 20.328-11.209 0-20.328-9.119-20.328-20.328 0-20.856 0-36.395 0-58.588 0-4.143-3.358-7.5-7.5-7.5s-7.5 3.357-7.5 7.5v35.027l-149.651-103.076v-188.07l149.651-103.076v324.135c0 4.143 3.358 7.5 7.5 7.5s7.5-3.357 7.5-7.5c0-18.812 0-321.795 0-347.696 0-11.209 9.119-20.328 20.328-20.328s20.329 9.119 20.329 20.328zm15-165.64v-110.064c21.486 8.733 37.104 29.736 37.104 55.032 0 25.27-15.597 46.29-37.104 55.032z" fill="#ffffff" data-original="#000000" style=""/></g></g></svg>
