<?xml version="1.0"?>
<svg xmlns="http://www.w3.org/2000/svg" xmlns:xlink="http://www.w3.org/1999/xlink" xmlns:svgjs="http://svgjs.com/svgjs" version="1.1" width="512" height="512" x="0" y="0" viewBox="0 0 510.883 510.883" style="enable-background:new 0 0 512 512" xml:space="preserve" class=""><g><g xmlns="http://www.w3.org/2000/svg"><path d="m443.415 34.524h-85.522c-4.142 0-7.5 3.358-7.5 7.5s3.358 7.5 7.5 7.5h85.522c4.195 0 7.609 3.414 7.609 7.609v431.141c0 4.195-3.414 7.609-7.609 7.609h-375.947c-4.195 0-7.609-3.414-7.609-7.609v-64.865c0-4.142-3.358-7.5-7.5-7.5s-7.5 3.358-7.5 7.5v64.865c0 12.467 10.143 22.609 22.609 22.609h375.946c12.466 0 22.609-10.142 22.609-22.609v-431.141c0-12.466-10.142-22.609-22.608-22.609z" fill="#ffffff" data-original="#000000" style=""/><path d="m52.359 398.92c4.142 0 7.5-3.358 7.5-7.5v-334.287c0-4.196 3.413-7.609 7.609-7.609h84.522c4.142 0 7.5-3.358 7.5-7.5s-3.358-7.5-7.5-7.5h-84.522c-12.467 0-22.609 10.142-22.609 22.609v334.287c0 4.142 3.358 7.5 7.5 7.5z" fill="#ffffff" data-original="#000000" style=""/><path d="m195.732 85.07h58.71c4.142 0 7.5-3.358 7.5-7.5s-3.358-7.5-7.5-7.5h-58.71c-3.456 0-6.267-2.812-6.267-6.267v-20.852c0-3.456 2.812-6.267 6.267-6.267h.213c4.142 0 7.5-3.358 7.5-7.5v-10.014c0-2.3 1.871-4.17 4.17-4.17h94.652c2.299 0 4.17 1.871 4.17 4.17v10.014c0 4.142 3.358 7.5 7.5 7.5h.213c3.456 0 6.267 2.812 6.267 6.267v20.852c0 3.456-2.812 6.267-6.267 6.267h-27.719c-4.142 0-7.5 3.358-7.5 7.5s3.358 7.5 7.5 7.5h27.719c11.727 0 21.267-9.541 21.267-21.267v-20.852c0-9.168-5.832-17-13.98-19.981v-3.8c0-10.571-8.6-19.17-19.17-19.17h-94.652c-10.57 0-19.17 8.6-19.17 19.17v3.8c-8.148 2.981-13.98 10.813-13.98 19.981v20.852c0 11.727 9.541 21.267 21.267 21.267z" fill="#ffffff" data-original="#000000" style=""/><path d="m293.408 50.043c0-4.142-3.358-7.5-7.5-7.5h-59.509c-4.142 0-7.5 3.358-7.5 7.5s3.358 7.5 7.5 7.5h59.509c4.142 0 7.5-3.358 7.5-7.5z" fill="#ffffff" data-original="#000000" style=""/><path d="m119.259 171.051c0 14.867 12.095 26.962 26.962 26.962s26.962-12.095 26.962-26.962-12.095-26.962-26.962-26.962-26.962 12.095-26.962 26.962zm38.925 0c0 6.596-5.366 11.962-11.962 11.962s-11.962-5.366-11.962-11.962 5.366-11.962 11.962-11.962 11.962 5.366 11.962 11.962z" fill="#ffffff" data-original="#000000" style=""/><path d="m353.883 144.089c-14.867 0-26.962 12.095-26.962 26.962s12.095 26.962 26.962 26.962 26.962-12.095 26.962-26.962-12.095-26.962-26.962-26.962zm0 38.925c-6.596 0-11.962-5.366-11.962-11.962s5.366-11.962 11.962-11.962 11.962 5.366 11.962 11.962-5.366 11.962-11.962 11.962z" fill="#ffffff" data-original="#000000" style=""/><path d="m360.996 416.698c0 13.722 11.164 24.886 24.886 24.886s24.886-11.164 24.886-24.886c0-13.723-11.164-24.887-24.886-24.887s-24.886 11.164-24.886 24.887zm24.886-9.887c5.451 0 9.886 4.435 9.886 9.887 0 5.451-4.435 9.886-9.886 9.886s-9.886-4.435-9.886-9.886c0-5.452 4.435-9.887 9.886-9.887z" fill="#ffffff" data-original="#000000" style=""/><path d="m361.285 235.895c-4.081-4.082-10.723-4.082-14.804 0l-20.018 20.018c-2.929 2.929-2.929 7.678 0 10.606 2.929 2.929 7.678 2.929 10.606 0l9.313-9.313v50.336c0 30.689-24.967 55.656-55.656 55.656h-43.426c-4.142 0-7.5 3.358-7.5 7.5s3.358 7.5 7.5 7.5h43.426c38.96 0 70.656-31.696 70.656-70.656v-50.336l9.313 9.313c1.464 1.464 3.384 2.197 5.303 2.197s3.839-.732 5.303-2.197c2.929-2.929 2.929-7.678 0-10.606z" fill="#ffffff" data-original="#000000" style=""/><path d="m229.998 263.285c1.926 0 3.852-.738 5.318-2.211 2.921-2.937 2.908-7.686-.029-10.606l-30.916-30.747 13.171-.036c4.142-.011 7.491-3.378 7.479-7.521-.011-4.135-3.367-7.479-7.5-7.479h-.021l-28.309.078c-2.796.007-5.422 1.104-7.394 3.086-1.972 1.983-3.053 4.614-3.046 7.411l.078 28.309c.011 4.135 3.367 7.479 7.5 7.479h.021c4.142-.011 7.491-3.378 7.479-7.521l-.036-13.171 30.917 30.748c1.462 1.454 3.375 2.181 5.288 2.181z" fill="#ffffff" data-original="#000000" style=""/><path d="m248.807 316.326c1.466 1.474 3.392 2.211 5.318 2.211 1.913 0 3.826-.727 5.289-2.182l10.263-10.207 10.263 10.207c1.463 1.455 3.376 2.182 5.289 2.182 1.926 0 3.852-.738 5.318-2.211 2.921-2.937 2.908-7.686-.029-10.606l-10.205-10.149 10.205-10.149c2.937-2.921 2.95-7.669.029-10.606-2.921-2.938-7.67-2.95-10.606-.029l-10.263 10.207-10.263-10.207c-2.937-2.92-7.685-2.907-10.606.029-2.921 2.937-2.908 7.686.029 10.606l10.205 10.149-10.205 10.149c-2.939 2.92-2.952 7.669-.031 10.606z" fill="#ffffff" data-original="#000000" style=""/><path d="m194.368 370.993c-2.921-2.938-7.67-2.949-10.606-.029l-10.263 10.207-10.263-10.207c-2.937-2.92-7.685-2.907-10.606.029-2.921 2.937-2.908 7.686.029 10.606l10.205 10.149-10.205 10.149c-2.937 2.921-2.95 7.669-.029 10.606 1.466 1.474 3.392 2.211 5.318 2.211 1.913 0 3.826-.727 5.289-2.182l10.263-10.207 10.263 10.207c1.463 1.455 3.376 2.182 5.289 2.182 1.926 0 3.852-.738 5.318-2.211 2.921-2.937 2.908-7.686-.029-10.606l-10.205-10.149 10.205-10.149c2.935-2.92 2.948-7.669.027-10.606z" fill="#ffffff" data-original="#000000" style=""/></g></g></svg>
