<?xml version="1.0"?>
<svg xmlns="http://www.w3.org/2000/svg" xmlns:xlink="http://www.w3.org/1999/xlink" xmlns:svgjs="http://svgjs.com/svgjs" version="1.1" width="512" height="512" x="0" y="0" viewBox="0 0 503.228 503.228" style="enable-background:new 0 0 512 512" xml:space="preserve" class=""><g><g xmlns="http://www.w3.org/2000/svg"><path d="m85.528 270.596c.834.297 1.685.438 2.521.438 3.08 0 5.969-1.913 7.063-4.981l50.525-141.555c.159-.447.276-.908.349-1.377l6.345-41.125c2.22-14.388 10.708-26.843 23.288-34.171l45.045-26.24c18.195-10.599 40.889-8.204 56.471 5.957l35.6 32.356c6.923 6.292 10.651 15.259 10.229 24.604-.421 9.345-4.941 17.941-12.402 23.584l-35.712 27.013c-6.452 4.88-15.407 4.397-21.296-1.152l-16.021-15.097c-7.012-6.607-7.355-17.701-.769-24.729l2.964-3.161c2.032-2.167 2.593-5.33 1.431-8.064-1.163-2.734-3.83-4.524-6.801-4.565l-45.304-.614c-4.172-.068-7.545 3.256-7.601 7.398-.057 4.142 3.256 7.545 7.397 7.601l30.876.418c-5.062 11.687-2.898 25.702 6.244 35.333-8.993 3.567-18.979 4.219-28.489 1.707l-1.95-.515c-4.007-1.058-8.109 1.332-9.166 5.336-1.059 4.005 1.331 8.109 5.336 9.167l1.95.515c3.456.913 6.959 1.504 10.47 1.795l2.021 56.125c1.642 45.604-1.821 91.462-10.293 136.299-.77 4.07 1.906 7.993 5.977 8.762.471.089.939.132 1.401.132 3.533 0 6.681-2.509 7.36-6.109 2.239-11.848 4.129-23.767 5.684-35.732 35.893-17.267 76.829-21.762 115.73-12.625 4.03.95 8.069-1.554 9.017-5.586.946-4.033-1.555-8.069-5.587-9.016-39.191-9.204-80.287-5.658-117.15 9.881 2.927-28.743 3.89-57.693 2.851-86.545l-2.024-56.208c6.437-1.073 12.698-3.183 18.529-6.288l5.627 5.303c11.231 10.584 28.32 11.51 40.632 2.198l35.712-27.013c11.031-8.344 17.715-21.054 18.338-34.871.624-13.817-4.89-27.078-15.125-36.38l-35.601-32.356c-20.449-18.585-50.23-21.729-74.109-7.817l-45.045 26.24c-16.509 9.618-27.648 25.963-30.562 44.845l-6.236 40.42-50.282 140.88c-1.393 3.901.641 8.192 4.542 9.585z" fill="#ffffff" data-original="#000000" style=""/><path d="m438.397 488.161h-.588c-14.551 0-28.492-4.745-39.938-13.463.465-.263.932-.521 1.395-.787 3.591-2.066 4.826-6.651 2.761-10.241-2.065-3.589-6.65-4.826-10.241-2.76-31.687 18.232-66.865 27.315-102.012 27.314-37.643-.001-75.247-10.424-108.442-31.188l-95.315-59.62c-17.901-11.197-25.742-33.756-18.644-53.641l16.598-46.502c1.393-3.901-.642-8.192-4.542-9.584-3.905-1.393-8.193.641-9.585 4.542l-16.598 46.502c-4.605 12.901-4.665 27.132-.168 40.071 4.497 12.938 13.37 24.065 24.983 31.329l95.315 59.62c35.635 22.289 75.988 33.476 116.396 33.475 31.963-.001 63.959-7.004 93.672-21.047 14.932 13.529 34.169 20.98 54.364 20.98h.588c4.143 0 7.5-3.358 7.5-7.5s-3.357-7.5-7.499-7.5z" fill="#ffffff" data-original="#000000" style=""/><path d="m452.812 258.266c-1.708-3.773-6.147-5.448-9.926-3.741-21.802 9.867-39.905 25.885-52.353 46.32l-.18.296c-7.443-4.504-15.211-8.512-23.226-11.966-3.807-1.643-8.217.116-9.856 3.918-1.64 3.804.115 8.217 3.919 9.856 11.619 5.009 22.681 11.267 32.877 18.602l16.316 11.738c1.325.954 2.856 1.412 4.374 1.412 2.331 0 4.629-1.084 6.094-3.121 2.419-3.362 1.654-8.049-1.708-10.468l-16.264-11.7.465-.763c10.872-17.849 26.685-31.839 45.728-40.458 3.773-1.708 5.448-6.151 3.74-9.925z" fill="#ffffff" data-original="#000000" style=""/><path d="m165.944 404.379c-3.068-2.783-7.811-2.554-10.595.514-2.783 3.068-2.553 7.811.515 10.594 20.14 18.274 44.317 30.749 71.863 37.078.565.13 1.13.192 1.687.192 3.417 0 6.505-2.351 7.303-5.822.928-4.037-1.593-8.061-5.63-8.989-25.013-5.747-46.93-17.041-65.143-33.567z" fill="#ffffff" data-original="#000000" style=""/><path d="m257.039 328.647-4.56 2.492c-3.635 1.987-4.971 6.543-2.984 10.178 1.362 2.493 3.934 3.904 6.588 3.904 1.216 0 2.448-.296 3.59-.92l4.56-2.492c19.45-10.629 42.552-12.379 63.382-4.799 3.893 1.416 8.196-.591 9.612-4.483 1.416-3.893-.591-8.196-4.483-9.613-24.877-9.054-52.471-6.965-75.705 5.733z" fill="#ffffff" data-original="#000000" style=""/><path d="m336.036 169.815c1.867 4.108 5.831 6.661 10.345 6.661h13.362v42.742c0 4.142 3.357 7.5 7.5 7.5s7.5-3.358 7.5-7.5v-46.378c0-6.266-5.098-11.363-11.363-11.363h-8.998l32.763-37.536 32.762 37.536h-8.998c-6.266 0-11.363 5.098-11.363 11.363v46.378c0 4.142 3.357 7.5 7.5 7.5s7.5-3.358 7.5-7.5v-42.742h13.362c4.514 0 8.478-2.552 10.345-6.661 1.868-4.109 1.185-8.774-1.783-12.175l-40.763-46.702c-2.158-2.473-5.278-3.891-8.56-3.892-.001 0-.001 0-.002 0-3.282 0-6.402 1.417-8.562 3.891l-40.765 46.703c-2.966 3.401-3.65 8.066-1.782 12.175z" fill="#ffffff" data-original="#000000" style=""/><path d="m297.988 218.313v38.828c0 4.142 3.357 7.5 7.5 7.5s7.5-3.358 7.5-7.5v-32.421h13.425c3.36 0 6.432-1.977 7.822-5.036 1.392-3.06.862-6.674-1.349-9.208l-36.737-42.09c-1.632-1.87-3.992-2.943-6.475-2.943-2.481 0-4.842 1.073-6.474 2.943l-36.738 42.091c-2.21 2.533-2.739 6.146-1.348 9.207 1.391 3.059 4.462 5.036 7.822 5.036h13.425v32.421c0 4.142 3.357 7.5 7.5 7.5s7.5-3.358 7.5-7.5v-38.828c0-4.738-3.854-8.593-8.593-8.593h-5.736l22.642-25.94 22.643 25.94h-5.736c-4.738-.001-8.593 3.854-8.593 8.593z" fill="#ffffff" data-original="#000000" style=""/></g></g></svg>
