<?xml version="1.0"?>
<svg xmlns="http://www.w3.org/2000/svg" xmlns:xlink="http://www.w3.org/1999/xlink" xmlns:svgjs="http://svgjs.com/svgjs" version="1.1" width="512" height="512" x="0" y="0" viewBox="0 0 512.858 512.858" style="enable-background:new 0 0 512 512" xml:space="preserve" class=""><g><g xmlns="http://www.w3.org/2000/svg"><path d="m66.878 285.58c0 7.716 3.006 14.971 8.462 20.428l42.908 42.908c1.465 1.464 3.385 2.196 5.304 2.196s3.839-.732 5.304-2.196c2.929-2.93 2.929-7.678 0-10.607l-42.908-42.909c-5.416-5.415-5.416-14.227 0-19.642 5.414-5.416 14.228-5.416 19.642 0l46.385 46.386c2.929 2.927 7.677 2.929 10.607 0 2.929-2.93 2.929-7.678 0-10.607l-46.386-46.386c-11.264-11.264-29.592-11.262-40.855 0-5.457 5.457-8.463 12.712-8.463 20.429z" fill="#ffffff" data-original="#000000" style=""/><path d="m215.255 440.22v-25.943c5.776-25.139-1.905-51.972-20.167-70.234l-9.889-9.889c-2.93-2.928-7.678-2.928-10.607 0-2.929 2.93-2.929 7.678 0 10.607l9.889 9.889c14.805 14.804 20.93 36.638 15.986 56.982-.141.579-.212 1.174-.212 1.771v22.465h-100.611v-33.01c0-2.045-.835-4-2.311-5.415l-41.927-40.181c-12.881-12.344-20.269-29.655-20.269-47.497v-140.217c0-8.751 7.119-15.87 15.87-15.87s15.871 7.119 15.871 15.87v70.388c0 4.143 3.357 7.5 7.5 7.5s7.5-3.357 7.5-7.5v-70.388c0-17.021-13.849-30.87-30.871-30.87-17.021 0-30.87 13.849-30.87 30.87v140.218c0 21.909 9.072 43.169 24.89 58.327l39.616 37.966v33.918c-7.419 4.703-12.358 12.982-12.358 22.397v42.984c0 4.143 3.357 7.5 7.5 7.5s7.5-3.357 7.5-7.5v-42.984c0-6.345 5.161-11.506 11.506-11.506h101.937c6.345 0 11.506 5.161 11.506 11.506v42.984c0 4.143 3.357 7.5 7.5 7.5s7.5-3.357 7.5-7.5v-42.984c0-9.254-4.771-17.411-11.979-22.154z" fill="#ffffff" data-original="#000000" style=""/><path d="m461.85 138.678c-17.022 0-30.871 13.849-30.871 30.87v70.388c0 4.143 3.357 7.5 7.5 7.5s7.5-3.357 7.5-7.5v-70.388c0-8.751 7.12-15.87 15.871-15.87s15.87 7.119 15.87 15.87v140.218c0 17.842-7.388 35.153-20.269 47.497l-41.927 40.181c-1.476 1.415-2.311 3.37-2.311 5.415v33.01h-100.611v-22.465c0-.597-.071-1.19-.212-1.771-4.942-20.345 1.184-42.18 15.987-56.982l78.891-78.892c5.418-5.415 14.229-5.416 19.643 0 2.624 2.623 4.068 6.111 4.068 9.821s-1.444 7.197-4.068 9.82l-42.908 42.908c-2.929 2.93-2.929 7.678 0 10.607 2.93 2.928 7.678 2.928 10.607 0l42.907-42.908c5.457-5.456 8.462-12.711 8.462-20.428s-3.005-14.972-8.461-20.429c-11.265-11.264-29.592-11.262-40.856 0l-78.892 78.892c-18.261 18.262-25.943 45.096-20.168 70.233v25.944c-7.207 4.743-11.978 12.899-11.978 22.153v42.984c0 4.143 3.357 7.5 7.5 7.5s7.5-3.357 7.5-7.5v-42.984c0-6.345 5.161-11.506 11.506-11.506h101.937c6.345 0 11.506 5.161 11.506 11.506v42.984c0 4.143 3.357 7.5 7.5 7.5s7.5-3.357 7.5-7.5v-42.984c0-9.416-4.939-17.694-12.358-22.397v-33.918l39.616-37.966c15.817-15.158 24.89-36.418 24.89-58.327v-140.216c-.001-17.022-13.849-30.87-30.871-30.87z" fill="#ffffff" data-original="#000000" style=""/><path d="m168.389 175.287h35.854c8.644 6.179 18.423 10.863 28.958 13.682v54.322h-27.247c-7.683 0-13.933 6.25-13.933 13.933v28.529c0 6.98 5.68 12.66 12.66 12.66h102.496c6.98 0 12.66-5.68 12.66-12.66v-28.529c0-7.683-6.25-13.933-13.933-13.933h-26.247v-54.322c10.535-2.819 20.314-7.503 28.958-13.682h35.854c37.66 0 68.3-30.639 68.3-68.3v-64.752c0-16.764-13.639-30.402-30.402-30.402h-36.463c-1.668-6.781-7.784-11.833-15.072-11.833h-148.805c-7.289 0-13.404 5.052-15.072 11.833h-36.463c-16.764 0-30.402 13.639-30.402 30.402v64.752c-.001 37.661 30.639 68.3 68.299 68.3zm136.448 108.126h-97.816v-25.122h97.816zm-40.179-40.122h-16.457v-51.655c2.711.247 5.454.38 8.229.38s5.518-.133 8.229-.38v51.655zm133.111-201.056v64.752c0 29.39-23.91 53.3-53.3 53.3h-19.538c3.934-4.623 7.411-9.645 10.356-15h9.182c21.118 0 38.3-17.182 38.3-38.3v-57.654c0-4.143-3.357-7.5-7.5-7.5h-28.9v-15h35.998c8.493 0 15.402 6.909 15.402 15.402zm-216.279-26.698c0-.296.241-.537.537-.537h148.805c.296 0 .537.241.537.537v52.626c0 4.143 3.357 7.5 7.5 7.5s7.5-3.357 7.5-7.5v-11.33h21.4v50.154c0 12.848-10.452 23.3-23.3 23.3h-2.637c2.94-8.877 4.537-18.36 4.537-28.211v-1.829c0-4.143-3.357-7.5-7.5-7.5s-7.5 3.357-7.5 7.5v1.829c0 41.322-33.618 74.94-74.939 74.94s-74.939-33.618-74.939-74.94v-86.539zm-66.401 26.698c0-8.493 6.909-15.402 15.402-15.402h35.998v15h-28.9c-4.143 0-7.5 3.357-7.5 7.5v31.695c0 4.143 3.357 7.5 7.5 7.5s7.5-3.357 7.5-7.5v-24.195h21.4v45.243c0 9.851 1.597 19.334 4.537 28.211h-2.637c-11.06 0-20.667-7.866-22.843-18.704-.815-4.061-4.77-6.688-8.83-5.877-4.061.815-6.692 4.769-5.877 8.83 3.578 17.818 19.37 30.751 37.55 30.751h9.182c2.946 5.355 6.422 10.377 10.356 15h-19.538c-29.39 0-53.3-23.91-53.3-53.3v-64.752z" fill="#ffffff" data-original="#000000" style=""/><path d="m224.8 99.462-3.819 22.271c-.691 4.023.931 8.015 4.233 10.414 1.866 1.356 4.05 2.045 6.248 2.045 1.692 0 3.394-.408 4.965-1.234l20.002-10.516 20.002 10.516c3.615 1.899 7.91 1.589 11.213-.811s4.925-6.391 4.233-10.412l-3.819-22.272 16.183-15.774c2.923-2.85 3.955-7.031 2.693-10.913-1.261-3.882-4.554-6.658-8.594-7.245l-22.364-3.25-10-20.265s0-.001-.001-.001c-1.807-3.66-5.465-5.934-9.546-5.934s-7.739 2.273-9.547 5.935l-10 20.265-22.365 3.25c-4.039.587-7.332 3.363-8.593 7.245-1.262 3.882-.229 8.063 2.693 10.914zm16.5-22.667c3.468-.503 6.465-2.679 8.02-5.824l7.109-14.406 7.111 14.41c1.553 3.142 4.55 5.317 8.015 5.819l15.897 2.311-11.504 11.214c-2.509 2.445-3.653 5.967-3.062 9.423l2.715 15.833-14.22-7.476c-1.551-.815-3.252-1.223-4.953-1.223s-3.402.407-4.954 1.223l-14.219 7.476 2.716-15.836c.591-3.453-.554-6.975-3.062-9.421l-11.504-11.213z" fill="#ffffff" data-original="#000000" style=""/></g></g></svg>
