<?xml version="1.0"?>
<svg xmlns="http://www.w3.org/2000/svg" xmlns:xlink="http://www.w3.org/1999/xlink" xmlns:svgjs="http://svgjs.com/svgjs" version="1.1" width="512" height="512" x="0" y="0" viewBox="0 0 511.499 511.499" style="enable-background:new 0 0 512 512" xml:space="preserve"><g><g xmlns="http://www.w3.org/2000/svg"><path d="m466.546 409.732h-3.646v-44.447c0-13.045-10.612-23.657-23.656-23.657h-8.072v-41.674c0-14.416-11.729-26.145-26.145-26.145h-23.812v-50.73c0-12.803-10.415-23.218-23.218-23.218h-183.182c-12.802 0-23.218 10.415-23.218 23.218v50.73h-23.812c-14.416 0-26.145 11.729-26.145 26.145v41.674h-7.07c-13.044 0-23.657 10.612-23.657 23.657v44.447h-3.646c-14.688 0-26.636 11.948-26.636 26.636v67.631c0 4.143 3.358 7.5 7.5 7.5h437.552c4.143 0 7.5-3.357 7.5-7.5v-67.631c-.001-14.687-11.95-26.636-26.637-26.636zm-349.905-109.778c0-6.146 5-11.145 11.145-11.145h175.551c4.143 0 7.5-3.357 7.5-7.5s-3.357-7.5-7.5-7.5h-136.74v-50.73c0-4.531 3.687-8.218 8.218-8.218h183.182c4.531 0 8.218 3.687 8.218 8.218v50.73h-30.915c-4.143 0-7.5 3.357-7.5 7.5s3.357 7.5 7.5 7.5h69.727c6.146 0 11.145 4.999 11.145 11.145v41.674h-299.531zm361.541 196.545h-422.552v-60.131c0-6.416 5.22-11.636 11.636-11.636h88.56c4.142 0 7.5-3.357 7.5-7.5s-3.358-7.5-7.5-7.5h-69.914v-44.447c0-4.773 3.884-8.657 8.657-8.657h344.673c4.773 0 8.656 3.884 8.656 8.657v44.447h-260.11c-4.142 0-7.5 3.357-7.5 7.5s3.358 7.5 7.5 7.5h278.757c6.416 0 11.637 5.22 11.637 11.636z" fill="#ffffff" data-original="#000000" style=""/><path d="m210.169 120.119-8.599 50.138c-.907 5.29 1.226 10.535 5.568 13.69 4.342 3.153 9.99 3.563 14.741 1.065l45.027-23.672 45.027 23.672c2.066 1.086 4.303 1.623 6.527 1.623 2.89 0 5.761-.906 8.215-2.689 4.342-3.154 6.475-8.4 5.566-13.689l-8.599-50.138 36.428-35.509c3.844-3.746 5.201-9.244 3.543-14.349s-5.988-8.755-11.3-9.526l-11.467-1.666c-4.093-.604-7.905 2.244-8.5 6.344-.596 4.099 2.244 7.904 6.344 8.5l9.455 1.374-35.349 34.458c-3.3 3.216-4.806 7.847-4.026 12.39l8.345 48.655-43.695-22.972c-4.078-2.145-8.95-2.146-13.027 0l-43.696 22.972 8.345-48.656c.779-4.543-.727-9.175-4.026-12.388l-35.35-34.459 48.853-7.099c4.56-.663 8.5-3.525 10.539-7.657l21.848-44.268 21.848 44.267c2.038 4.132 5.978 6.995 10.538 7.658l7.646 1.111c4.101.603 7.905-2.245 8.501-6.343.596-4.1-2.244-7.905-6.343-8.501l-7.125-1.035-22.512-45.616c-2.375-4.814-7.186-7.804-12.553-7.804-5.368 0-10.177 2.99-12.552 7.803l-22.514 45.617-50.342 7.315c-5.311.771-9.641 4.422-11.299 9.526s-.301 10.603 3.542 14.348z" fill="#ffffff" data-original="#000000" style=""/><path d="m266.906 125.755c4.143 0 7.5-3.357 7.5-7.5v-41.567c0-4.143-3.357-7.5-7.5-7.5h-8.885c-4.142 0-7.5 3.357-7.5 7.5s3.358 7.5 7.5 7.5h1.385v34.067c0 4.142 3.358 7.5 7.5 7.5z" fill="#ffffff" data-original="#000000" style=""/><path d="m395.759 56.254c1.919 0 3.839-.732 5.304-2.196l12.45-12.45c2.929-2.93 2.929-7.678 0-10.607-2.93-2.928-7.678-2.928-10.607 0l-12.45 12.45c-2.929 2.93-2.929 7.678 0 10.607 1.465 1.463 3.385 2.196 5.303 2.196z" fill="#ffffff" data-original="#000000" style=""/><path d="m402.906 169.222c1.465 1.464 3.385 2.196 5.304 2.196s3.839-.732 5.304-2.196c2.929-2.93 2.929-7.678 0-10.607l-12.45-12.45c-2.93-2.928-7.678-2.928-10.607 0-2.929 2.93-2.929 7.678 0 10.607z" fill="#ffffff" data-original="#000000" style=""/><path d="m388.259 100.111c0 4.143 3.357 7.5 7.5 7.5h22.307c4.143 0 7.5-3.357 7.5-7.5s-3.357-7.5-7.5-7.5h-22.307c-4.142 0-7.5 3.358-7.5 7.5z" fill="#ffffff" data-original="#000000" style=""/><path d="m132.75 54.058c1.464 1.464 3.384 2.196 5.303 2.196s3.839-.732 5.303-2.196c2.929-2.93 2.929-7.678 0-10.607l-12.45-12.451c-2.929-2.928-7.678-2.928-10.606 0-2.929 2.93-2.929 7.678 0 10.607z" fill="#ffffff" data-original="#000000" style=""/><path d="m132.75 146.164-12.45 12.45c-2.929 2.93-2.929 7.678 0 10.607 1.464 1.464 3.384 2.196 5.303 2.196s3.839-.732 5.303-2.196l12.45-12.45c2.929-2.93 2.929-7.678 0-10.607-2.929-2.928-7.678-2.928-10.606 0z" fill="#ffffff" data-original="#000000" style=""/><path d="m115.746 107.611h22.307c4.142 0 7.5-3.357 7.5-7.5s-3.358-7.5-7.5-7.5h-22.307c-4.142 0-7.5 3.357-7.5 7.5s3.358 7.5 7.5 7.5z" fill="#ffffff" data-original="#000000" style=""/><path d="m496.047 218.032-33.6-38.495c-1.776-2.035-4.346-3.202-7.048-3.202-2.701 0-5.271 1.167-7.048 3.203l-33.598 38.493c-2.407 2.757-2.984 6.691-1.47 10.023 1.514 3.331 4.856 5.484 8.517 5.484h10.877v30.929c0 4.143 3.357 7.5 7.5 7.5s7.5-3.357 7.5-7.5v-36.574c0-5.158-4.196-9.354-9.354-9.354h-4.103l21.18-24.266 21.179 24.266h-4.103c-5.158 0-9.354 4.196-9.354 9.354v36.574c0 4.143 3.357 7.5 7.5 7.5s7.5-3.357 7.5-7.5v-30.929h10.877c3.66 0 7.003-2.153 8.517-5.484s.937-7.266-1.469-10.022z" fill="#ffffff" data-original="#000000" style=""/><path d="m48.378 304.785v-36.574c0-5.158-4.197-9.355-9.355-9.355h-4.103l21.179-24.265 21.179 24.265h-4.102c-5.158 0-9.355 4.197-9.355 9.355v36.574c0 4.143 3.358 7.5 7.5 7.5s7.5-3.357 7.5-7.5v-30.93h10.877c3.659 0 7.002-2.152 8.517-5.483 1.514-3.332.938-7.266-1.469-10.023l-33.6-38.495c-1.777-2.035-4.345-3.202-7.047-3.202s-5.27 1.167-7.048 3.203l-33.6 38.494c-2.406 2.758-2.982 6.691-1.468 10.023 1.515 3.331 4.857 5.483 8.517 5.483h10.877v30.93c0 4.143 3.358 7.5 7.5 7.5s7.501-3.357 7.501-7.5z" fill="#ffffff" data-original="#000000" style=""/></g></g></svg>
