<?xml version="1.0"?>
<svg xmlns="http://www.w3.org/2000/svg" xmlns:xlink="http://www.w3.org/1999/xlink" xmlns:svgjs="http://svgjs.com/svgjs" version="1.1" width="512" height="512" x="0" y="0" viewBox="0 0 512 512" style="enable-background:new 0 0 512 512" xml:space="preserve" class=""><g><g xmlns="http://www.w3.org/2000/svg"><path d="m471.227 281.889c13.858-7.699 23.394-22.697 22.914-40.188-.654-23.841-20.947-43.237-45.235-43.237h-42.27c-4.107 0-7.688 3.165-7.811 7.27-.127 4.247 3.278 7.73 7.496 7.73h42.584c16.241 0 29.807 12.851 30.241 28.649.454 16.563-12.603 30.316-30.173 30.316-5.131 0-106.958 0-102.449 0-4.107 0-7.688 3.165-7.811 7.27-.127 4.247 3.278 7.73 7.496 7.73 2.047 0 98.31 0 96.993 0 16.042 0 29.62 12.554 30.096 28.589.495 16.662-12.916 30.376-29.469 30.376-20.33 0-99.825 0-97.306 0-4.107 0-7.688 3.165-7.811 7.27-.127 4.247 3.278 7.73 7.496 7.73h80.753c16.042 0 29.62 12.554 30.096 28.589.495 16.662-12.916 30.376-29.469 30.376h-70.746c-4.107 0-7.688 3.165-7.811 7.27-.127 4.247 3.278 7.73 7.496 7.73 26.141.202 52.335-.619 58.325 1.029.008.002.016.005.025.007 12.795 3.478 21.731 15.175 21.731 28.446 0 13.113-8.723 24.689-21.272 28.317-15.675 2.035-14.238.796-152.633 1.166-18.117 0-36.305-4.189-52.596-12.116-18.324-8.915-38.781-13.627-59.158-13.627h-11.859v-240.535c17.278-7.638 31.821-20.624 41.296-37.035 18.973-36.161 45.727-67.778 58.59-128.656 3.912-12.785 2.199-30.695 18.873-41.696 14.809-9.771 34.038-6.38 44.758 6.313 6.976 8.26 9.614 18.883 7.437 29.188-7.513 28.671-9.508 66.613-37.476 115.378-10.674 18.615 2.546 41.925 24.862 41.925h73.219c4.107 0 7.688-3.165 7.811-7.27.127-4.247-3.278-7.73-7.496-7.73h-73.737c-10.51 0-16.594-10.835-11.646-19.463 29.38-51.23 31.653-91.285 39.132-119.705 2.713-12.839.264-25.966-6.896-36.961-14.812-22.751-45.215-29.178-67.972-14.361-23.507 15.305-21.725 39.703-25.542 51.281-12.236 57.909-37.876 88.087-56.904 124.257-7.031 12.178-17.413 22.097-29.775 28.611-4.043-12.752-15.988-22.02-30.06-22.02h-58.195c-17.412 0-31.528 14.116-31.528 31.528v164.897c0 4.106 3.164 7.687 7.269 7.811 4.247.128 7.731-3.277 7.731-7.496v-165.212c0-9.128 7.4-16.528 16.528-16.528h58.196c9.128 0 16.528 7.4 16.528 16.528v258.843c0 9.128-7.4 16.528-16.528 16.528h-58.196c-9.128 0-16.528-7.4-16.528-16.528v-57.96c0-4.106-3.164-7.687-7.269-7.811-4.247-.128-7.731 3.277-7.731 7.496v58.275c0 17.412 14.116 31.528 31.528 31.528h58.196c16.336 0 29.807-12.489 31.373-28.42h12.109c18.423 0 36.506 4.437 53.113 12.411 18.166 8.723 38.394 13.332 58.546 13.332 136.747-.424 137.336 1.013 155.135-1.366 15.138-2.024 33.77-19.803 33.77-43.117 0-11.851-4.726-22.87-12.587-30.979 19.004-5.06 33.049-22.41 33.049-42.986 0-12.533-5.21-23.873-13.578-31.965 17.345-6.073 29.818-22.606 29.818-41.999 0-14.203-6.691-26.874-17.086-35.023z" fill="#ffffff" data-original="#000000" style="" class=""/></g></g></svg>
