<?xml version="1.0"?>
<svg xmlns="http://www.w3.org/2000/svg" xmlns:xlink="http://www.w3.org/1999/xlink" xmlns:svgjs="http://svgjs.com/svgjs" version="1.1" width="512" height="512" x="0" y="0" viewBox="0 0 511.455 511.455" style="enable-background:new 0 0 512 512" xml:space="preserve" class=""><g><g xmlns="http://www.w3.org/2000/svg"><path d="m334.392 280.988c-3.238-2.581-7.958-2.048-10.54 1.191l-18.983 23.818c-1.059 1.328-1.635 2.976-1.635 4.674v154.682c0 4.142 3.358 7.5 7.5 7.5s7.5-3.358 7.5-7.5v-152.059l17.348-21.767c2.583-3.239 2.049-7.957-1.19-10.539z" fill="#ffffff" data-original="#000000" style="" class=""/><path d="m490.915 57.323h-11.994c-1.94 0-3.812.289-5.592.794-.54-10.848-9.509-19.515-20.489-19.515h-20.453c-11.326 0-20.541 9.214-20.541 20.541v71.817h-63.62v-25.548c0-17.553-14.28-31.833-31.833-31.833-8.313 0-15.889 3.207-21.565 8.444-5.612-9.086-15.659-15.156-27.1-15.156-11.768 0-22.057 6.423-27.565 15.943-5.622-4.988-13.011-8.026-21.1-8.026-10.64 0-20.07 5.252-25.853 13.294-5.788-5.954-13.873-9.663-22.812-9.663-17.553 0-31.833 14.28-31.833 31.833v19.733c0 .328.015.653.025.979h-38.982v-21.22c0-4.142-3.358-7.5-7.5-7.5s-7.5 3.358-7.5 7.5v152.806c0 3.055-2.485 5.541-5.541 5.541h-20.452c-3.055 0-5.541-2.485-5.541-5.541v-203.403c0-3.055 2.485-5.541 5.541-5.541h20.453c3.055 0 5.541 2.485 5.541 5.541v18.634c0 4.142 3.358 7.5 7.5 7.5s7.5-3.358 7.5-7.5v-18.634c0-11.326-9.214-20.541-20.541-20.541h-20.453c-10.98 0-19.949 8.667-20.489 19.515-1.781-.505-3.652-.794-5.592-.794h-11.993c-11.327 0-20.541 9.215-20.541 20.541v165.96c0 11.326 9.214 20.541 20.541 20.541h11.994c1.94 0 3.812-.289 5.592-.794.54 10.848 9.509 19.515 20.489 19.515h20.453c11.326 0 20.541-9.214 20.541-20.541v-71.818h41.526v45.973c0 17.795 5.874 35.44 16.539 49.685l5.226 6.979v171.988c0 4.142 3.358 7.5 7.5 7.5s7.5-3.358 7.5-7.5v-174.484c0-1.621-.525-3.198-1.496-4.495l-6.722-8.978c-8.736-11.667-13.546-26.12-13.546-40.695v-45.973h98.574c3.75 3.275 8.213 5.749 13.125 7.157-15.584 13.305-24.924 33.086-24.924 53.844v6.063c0 4.142 3.358 7.5 7.5 7.5s7.5-3.358 7.5-7.5v-6.063c0-19.28 10.226-37.494 26.686-47.534l8.131-4.958c.009-.005.016-.012.025-.017h6.641c4.142 0 7.5-3.358 7.5-7.5s-3.358-7.5-7.5-7.5h-22.095c-10.69 0-19.388-8.697-19.388-19.388s8.698-19.388 19.388-19.388h53.363c15.014 0 27.229 12.215 27.229 27.229v20.331c0 22.316-5.684 44.451-16.438 64.011-1.996 3.63-.671 8.19 2.959 10.186 1.146.63 2.385.929 3.606.929 2.647 0 5.214-1.405 6.579-3.888 11.967-21.768 18.293-46.401 18.293-71.237v-2.276h38.958v71.818c0 11.326 9.214 20.541 20.541 20.541h20.453c10.98 0 19.949-8.667 20.489-19.515 1.781.505 3.652.794 5.592.794h11.994c11.326 0 20.541-9.214 20.541-20.541v-165.961c-.004-11.326-9.218-20.541-20.544-20.541zm-458.381 192.042h-11.993c-3.055 0-5.541-2.485-5.541-5.541v-165.96c0-3.055 2.485-5.541 5.541-5.541h11.994c3.055 0 5.541 2.485 5.541 5.541v165.96c-.001 3.055-2.487 5.541-5.542 5.541zm169.697-142.748c0-9.281 7.551-16.833 16.833-16.833s16.833 7.551 16.833 16.833v27.464c0 9.281-7.551 16.833-16.833 16.833s-16.833-7.551-16.833-16.833zm-48.665 3.632c0-9.281 7.551-16.833 16.833-16.833s16.833 7.551 16.833 16.833v19.733c0 9.282-7.551 16.833-16.833 16.833s-16.833-7.551-16.833-16.833zm-53.958 35.711h43.276c5.521 9.471 15.783 15.854 27.514 15.854 8.84 0 16.848-3.625 22.621-9.463 5.765 8.193 15.286 13.562 26.044 13.562 10.868 0 20.477-5.478 26.223-13.814.028-.007.056-.014.084-.022-1.582 3.947-2.462 8.248-2.462 12.754 0 3.808.631 7.469 1.779 10.896h-145.079zm151.288-3.135v-44.125c0-9.281 7.551-16.833 16.833-16.833s16.833 7.551 16.833 16.833v31.744h-7.265c-10.597 0-20.087 4.82-26.401 12.381zm48.666-12.381v-25.032c0-9.281 7.551-16.833 16.833-16.833s16.833 7.551 16.833 16.833v25.032zm73.327 45.283v-3.055c0-10.126-3.586-19.429-9.55-26.712h48.508v29.767zm123.566 68.097c0 3.055-2.485 5.541-5.541 5.541h-11.994c-3.055 0-5.541-2.485-5.541-5.541v-36.29c0-4.142-3.358-7.5-7.5-7.5s-7.5 3.358-7.5 7.5v55.011c0 3.055-2.485 5.541-5.541 5.541h-20.453c-3.055 0-5.541-2.485-5.541-5.541v-203.402c0-3.055 2.485-5.541 5.541-5.541h20.453c3.055 0 5.541 2.485 5.541 5.541v116.429c0 4.142 3.358 7.5 7.5 7.5s7.5-3.358 7.5-7.5v-97.708c0-3.055 2.485-5.541 5.541-5.541h11.994c3.055 0 5.541 2.485 5.541 5.541z" fill="#ffffff" data-original="#000000" style="" class=""/></g></g></svg>
