<?xml version="1.0"?>
<svg xmlns="http://www.w3.org/2000/svg" xmlns:xlink="http://www.w3.org/1999/xlink" xmlns:svgjs="http://svgjs.com/svgjs" version="1.1" width="512" height="512" x="0" y="0" viewBox="0 0 512 512" style="enable-background:new 0 0 512 512" xml:space="preserve" class=""><g><g xmlns="http://www.w3.org/2000/svg"><g><path d="m458.089 445.605h-306.32c-4.143 0-7.5 3.358-7.5 7.5s3.357 7.5 7.5 7.5h306.32c4.143 0 7.5-3.358 7.5-7.5s-3.358-7.5-7.5-7.5z" fill="#ffffff" data-original="#000000" style=""/><path d="m81.357 445.605h-27.446c-4.143 0-7.5 3.358-7.5 7.5s3.357 7.5 7.5 7.5h27.446c4.143 0 7.5-3.358 7.5-7.5s-3.357-7.5-7.5-7.5z" fill="#ffffff" data-original="#000000" style=""/><path d="m116.438 428.765c-4.143 0-7.5 3.358-7.5 7.5v33.682c0 4.142 3.357 7.5 7.5 7.5s7.5-3.358 7.5-7.5v-33.682c0-4.142-3.357-7.5-7.5-7.5z" fill="#ffffff" data-original="#000000" style=""/><path d="m464.124 0h-416.248c-26.353 0-47.792 21.439-47.792 47.792v416.416c0 26.353 21.439 47.792 47.792 47.792h416.248c26.353 0 47.792-21.439 47.792-47.792v-416.416c0-26.353-21.439-47.792-47.792-47.792zm32.792 464.208c0 18.082-14.71 32.792-32.792 32.792h-416.248c-18.082 0-32.792-14.71-32.792-32.792v-416.416c0-18.082 14.71-32.792 32.792-32.792h416.248c18.082 0 32.792 14.71 32.792 32.792z" fill="#ffffff" data-original="#000000" style=""/><path d="m77.265 401.71h357.471c12.323 0 22.35-10.026 22.35-22.35v-300.743c0-12.324-10.026-22.35-22.35-22.35h-357.471c-12.323 0-22.35 10.026-22.35 22.35v300.743c0 12.324 10.026 22.35 22.35 22.35zm-7.35-323.093c0-4.053 3.297-7.35 7.35-7.35h357.471c4.053 0 7.35 3.297 7.35 7.35v300.743c0 4.053-3.297 7.35-7.35 7.35h-357.471c-4.053 0-7.35-3.297-7.35-7.35z" fill="#ffffff" data-original="#000000" style=""/><path d="m349.545 229.119c0 51.581-41.964 93.545-93.545 93.545-19.851 0-38.81-6.135-54.827-17.743-3.354-2.429-8.044-1.683-10.475 1.672-2.431 3.354-1.682 8.043 1.672 10.474 18.595 13.475 40.598 20.597 63.63 20.597 59.852 0 108.545-48.693 108.545-108.545 0-22.99-7.099-44.96-20.529-63.536-2.428-3.357-7.117-4.109-10.473-1.683-3.356 2.427-4.11 7.115-1.684 10.472 11.571 16.001 17.686 34.932 17.686 54.747z" fill="#ffffff" data-original="#000000" style=""/><path d="m176.165 291.517c3.441-2.305 4.362-6.964 2.058-10.405-10.315-15.398-15.768-33.377-15.768-51.993 0-51.581 41.964-93.544 93.545-93.544 18.747 0 36.831 5.523 52.297 15.972 3.433 2.319 8.095 1.416 10.413-2.016s1.416-8.095-2.017-10.414c-17.954-12.13-38.942-18.542-60.693-18.542-59.852 0-108.545 48.693-108.545 108.544 0 21.599 6.33 42.465 18.305 60.342 2.312 3.449 6.973 4.357 10.405 2.056z" fill="#ffffff" data-original="#000000" style=""/><path d="m236.915 168.208c-11.342-6.547-25.526 1.624-25.526 14.737v92.347c0 13.096 14.171 21.293 25.526 14.737l79.975-46.173c11.343-6.549 11.356-22.92 0-29.475zm72.475 62.658-79.975 46.173c-1.361.782-3.026-.188-3.026-1.747v-92.347c0-1.535 1.648-2.543 3.026-1.747l79.975 46.173c1.352.781 1.358 2.71 0 3.495z" fill="#ffffff" data-original="#000000" style=""/></g></g></g></svg>
