<?xml version="1.0"?>
<svg xmlns="http://www.w3.org/2000/svg" xmlns:xlink="http://www.w3.org/1999/xlink" xmlns:svgjs="http://svgjs.com/svgjs" version="1.1" width="512" height="512" x="0" y="0" viewBox="0 0 512 512" style="enable-background:new 0 0 512 512" xml:space="preserve" class=""><g><g xmlns="http://www.w3.org/2000/svg"><g><path d="m511.356 363.879-27.924-180.421c-.633-4.088-4.467-6.882-8.549-6.257-4.089.633-6.89 4.461-6.257 8.55l27.924 180.42c3.642 23.537-14.582 44.763-38.368 44.763-23.496 0-45.219-11.728-58.109-31.372l-30.447-46.402c-8.16-12.438-21.913-19.863-36.789-19.863h-5.875v-9.623c0-13.712-11.155-24.866-24.866-24.866h-92.193c-13.711 0-24.866 11.155-24.866 24.866v9.623h-5.875c-14.876 0-28.629 7.425-36.789 19.863l-30.447 46.402c-12.89 19.644-34.613 31.372-58.109 31.372-23.819 0-42.005-21.258-38.368-44.762l4.967-32.091c.633-4.089-2.168-7.917-6.257-8.55-4.09-.624-7.916 2.169-8.549 6.257l-4.966 32.092c-5.048 32.619 20.209 62.036 53.174 62.036 28.561 0 54.966-14.257 70.635-38.136l30.447-46.402c5.382-8.202 14.452-13.099 24.263-13.099h153.676c9.81 0 18.881 4.897 24.263 13.099l30.447 46.402c15.669 23.879 42.074 38.136 70.635 38.136 33.007-.001 58.214-29.461 53.172-62.037zm-199.375-50.583h-111.961v-9.623c0-5.45 4.434-9.884 9.884-9.884h92.193c5.45 0 9.884 4.434 9.884 9.884z" fill="#ffffff" data-original="#000000" style=""/><path d="m17.228 305.711c.388.06.774.089 1.155.089 3.631 0 6.821-2.646 7.394-6.346l24.628-159.131c3.49-22.55 22.584-38.982 45.402-39.071l46.592-.183c9.895-.016 19.569 3.371 27.235 9.638.437.246 14.373 13.727 37.816 13.575 12.706-.071 84.397-.071 97.101 0 22.832 0 37.458-13.373 37.818-13.576 7.664-6.266 17.351-9.67 27.243-9.637l46.583.183c22.818.09 41.912 16.522 45.402 39.07l1.671 10.802c.632 4.088 4.457 6.885 8.549 6.257 4.089-.633 6.89-4.461 6.257-8.549l-1.671-10.802c-4.624-29.874-29.92-51.643-60.15-51.762l-46.572-.183c-.099 0-.197-.001-.297-.001-13.269 0-26.221 4.619-36.497 13.02-.117.066-11.773 10.393-28.252 10.194-12.727-.07-84.542-.07-97.269 0-16.922.203-28.127-10.124-28.25-10.193-10.278-8.402-23.229-13.021-36.489-13.021-.099 0-.198.001-.296.001l-46.582.183c-30.23.119-55.526 21.887-60.15 51.762l-24.629 159.132c-.633 4.089 2.169 7.916 6.258 8.549z" fill="#ffffff" data-original="#000000" style=""/><path d="m367.186 189.84c15.533 0 28.17-12.638 28.17-28.17s-12.637-28.169-28.17-28.169-28.17 12.637-28.17 28.169 12.637 28.17 28.17 28.17zm0-41.357c7.272 0 13.188 5.916 13.188 13.187 0 7.272-5.916 13.188-13.188 13.188-7.271 0-13.187-5.916-13.187-13.188-.001-7.271 5.915-13.187 13.187-13.187z" fill="#ffffff" data-original="#000000" style=""/><path d="m367.186 285.1c15.533 0 28.17-12.638 28.17-28.17 0-15.533-12.637-28.17-28.17-28.17s-28.17 12.638-28.17 28.17 12.637 28.17 28.17 28.17zm0-41.358c7.272 0 13.188 5.916 13.188 13.188s-5.916 13.188-13.188 13.188c-7.271 0-13.187-5.916-13.187-13.188s5.915-13.188 13.187-13.188z" fill="#ffffff" data-original="#000000" style=""/><path d="m442.985 209.3c0-15.533-12.637-28.17-28.17-28.17s-28.17 12.638-28.17 28.17 12.637 28.17 28.17 28.17 28.17-12.638 28.17-28.17zm-41.357 0c0-7.272 5.916-13.188 13.188-13.188 7.271 0 13.187 5.916 13.187 13.188s-5.916 13.188-13.187 13.188c-7.272-.001-13.188-5.916-13.188-13.188z" fill="#ffffff" data-original="#000000" style=""/><path d="m291.386 209.3c0 15.533 12.637 28.17 28.17 28.17s28.17-12.638 28.17-28.17-12.637-28.17-28.17-28.17-28.17 12.637-28.17 28.17zm41.358 0c0 7.272-5.916 13.188-13.188 13.188s-13.188-5.916-13.188-13.188 5.916-13.188 13.188-13.188 13.188 5.916 13.188 13.188z" fill="#ffffff" data-original="#000000" style=""/><path d="m138.001 278.285c14.346 0 26.017-11.671 26.017-26.016v-16.952h16.951c14.346 0 26.017-11.671 26.017-26.017s-11.671-26.017-26.017-26.017h-16.951v-16.951c0-14.346-11.671-26.017-26.017-26.017s-26.017 11.671-26.017 26.017v16.951h-16.952c-14.346 0-26.017 11.671-26.017 26.017s11.671 26.017 26.017 26.017h16.952v16.952c0 14.346 11.671 26.016 26.017 26.016zm-42.969-57.95c-6.084 0-11.034-4.95-11.034-11.035s4.95-11.035 11.034-11.035h24.443c4.137 0 7.491-3.354 7.491-7.491v-24.442c0-6.085 4.95-11.035 11.034-11.035 6.085 0 11.035 4.95 11.035 11.035v24.442c0 4.138 3.354 7.491 7.491 7.491h24.443c6.084 0 11.034 4.95 11.034 11.035s-4.95 11.035-11.034 11.035h-24.443c-4.137 0-7.491 3.354-7.491 7.491v24.443c0 6.084-4.95 11.034-11.035 11.034-6.084 0-11.034-4.95-11.034-11.034v-24.443c0-4.138-3.354-7.491-7.491-7.491z" fill="#ffffff" data-original="#000000" style=""/></g></g></g></svg>
