<?xml version="1.0"?>
<svg xmlns="http://www.w3.org/2000/svg" xmlns:xlink="http://www.w3.org/1999/xlink" xmlns:svgjs="http://svgjs.com/svgjs" version="1.1" width="512" height="512" x="0" y="0" viewBox="0 0 512 512" style="enable-background:new 0 0 512 512" xml:space="preserve" class=""><g><g xmlns="http://www.w3.org/2000/svg"><g><path d="m200.579 98.159c17.167 0 33.752 5.021 47.961 14.519 3.442 2.301 8.101 1.375 10.403-2.067 2.302-3.444 1.376-8.101-2.067-10.403-16.685-11.153-36.152-17.048-56.297-17.048-55.923 0-101.42 45.497-101.42 101.421 0 20.206 5.927 39.721 17.141 56.437 2.308 3.44 6.966 4.358 10.407 2.05 3.44-2.308 4.358-6.967 2.05-10.407-9.55-14.235-14.598-30.861-14.598-48.08 0-47.654 38.768-86.422 86.42-86.422z" fill="#ffffff" data-original="#000000" style="" class=""/><path d="m273.606 125.042c-3.406 2.356-4.257 7.028-1.901 10.435 10.006 14.463 15.295 31.443 15.295 49.103 0 47.653-38.768 86.421-86.421 86.421-17.659 0-34.638-5.289-49.103-15.294-3.406-2.357-8.079-1.504-10.435 1.901-2.356 3.406-1.505 8.078 1.901 10.435 16.983 11.749 36.914 17.958 57.636 17.958 55.925 0 101.422-45.497 101.422-101.421 0-20.724-6.21-40.654-17.959-57.637-2.356-3.406-7.029-4.258-10.435-1.901z" fill="#ffffff" data-original="#000000" style="" class=""/><path d="m169.026 131.435c-4.902 2.831-7.829 7.9-7.829 13.561v79.167c0 5.661 2.927 10.73 7.829 13.561 4.913 2.837 10.766 2.826 15.66 0l68.561-39.583c4.903-2.831 7.83-7.9 7.83-13.562s-2.927-10.731-7.83-13.562l-68.562-39.584c-4.901-2.829-10.755-2.829-15.659.002zm76.722 52.574c.106.062.329.19.329.571s-.223.509-.33.571l-68.561 39.583c-.444.261-.989-.058-.989-.571v-79.167c0-.124 0-.381.33-.571.129-.075.241-.1.337-.1.149 0 .257.062.322.1l68.562 39.584c-.001 0-.001 0 0 0z" fill="#ffffff" data-original="#000000" style="" class=""/><path d="m478.76 75.239-77.601 44.803v-52.882c0-18.734-15.242-33.976-33.976-33.976h-333.207c-18.734 0-33.976 15.242-33.976 33.976v234.84c0 18.734 15.242 33.976 33.976 33.976h67.207l-41.013 89.436c-8.664 18.893-.342 41.312 18.551 49.976 18.887 8.66 41.31.345 49.976-18.551l55.424-120.86h32.798l55.424 120.86c8.679 18.925 31.114 27.2 49.976 18.551 18.893-8.664 27.214-31.083 18.551-49.976l-41.013-89.436h67.327c18.734 0 33.976-15.242 33.976-33.976v-52.882l77.601 44.803c14.769 8.527 33.24-2.117 33.24-19.191v-180.3c-.001-17.053-18.453-27.727-33.241-19.191zm-363.698 375.344c-5.216 11.375-18.716 16.385-30.088 11.169-11.375-5.216-16.385-18.714-11.169-30.088l43.88-95.688h49.933zm212.172-18.919c5.216 11.375.206 24.872-11.169 30.088-11.375 5.215-24.873.206-30.088-11.169l-52.556-114.607h49.933zm58.925-129.664c0 10.463-8.513 18.976-18.976 18.976h-333.207c-10.463 0-18.976-8.513-18.976-18.976v-234.84c0-10.463 8.513-18.976 18.976-18.976h333.207c10.463 0 18.976 8.513 18.976 18.976zm110.841-27.27c0 5.519-5.967 8.958-10.74 6.201l-85.101-49.133v-94.436l85.101-49.133c4.77-2.755 10.74.68 10.74 6.201z" fill="#ffffff" data-original="#000000" style="" class=""/></g></g></g></svg>
