<?xml version="1.0"?>
<svg xmlns="http://www.w3.org/2000/svg" xmlns:xlink="http://www.w3.org/1999/xlink" xmlns:svgjs="http://svgjs.com/svgjs" version="1.1" width="512" height="512" x="0" y="0" viewBox="0 0 512 512" style="enable-background:new 0 0 512 512" xml:space="preserve" class=""><g><g xmlns="http://www.w3.org/2000/svg"><g><path d="m439.113 48.64c-38.275-2.559-110.933-11.737-167.506-44.46-9.627-5.573-21.588-5.572-31.216-.001-56.571 32.724-129.229 41.903-167.506 44.461-16.353 1.094-29.163 14.779-29.163 31.158v131.212c0 57.145 15.109 113.506 43.694 162.988 28.584 49.482 69.859 90.727 119.363 119.276l18.049 10.409c19.227 11.089 43.113 11.09 62.345 0l18.049-10.409c49.502-28.549 90.778-69.794 119.362-119.277 28.585-49.483 43.694-105.843 43.694-162.989v-131.211c0-16.378-12.811-30.063-29.165-31.157zm14.163 162.368c0 54.515-14.413 108.281-41.682 155.485s-66.644 86.551-113.868 113.785l-18.049 10.409c-14.604 8.423-32.75 8.423-47.355 0l-18.049-10.409c-47.224-27.234-86.599-66.581-113.868-113.785-27.269-47.205-41.682-100.971-41.682-155.484v-131.212c0-8.509 6.66-15.621 15.162-16.19 39.579-2.645 114.815-12.197 174.018-46.443 4.995-2.89 11.197-2.889 16.192 0 59.205 34.246 134.44 43.798 174.018 46.444 8.503.568 15.163 7.68 15.163 16.19z" fill="#ffffff" data-original="#000000" style="" class=""/><path d="m416.746 83.351c-41.346-4.307-101.461-15.069-153.046-41.886-4.821-2.508-10.578-2.509-15.399 0-51.587 26.817-111.702 37.579-153.047 41.886-8.564.892-15.023 8.066-15.023 16.689v31.482c0 4.143 3.358 7.501 7.501 7.501s7.501-3.358 7.501-7.501v-31.482c0-.914.677-1.675 1.575-1.768 42.639-4.442 104.735-15.594 158.414-43.497.487-.254 1.07-.254 1.558 0 53.677 27.903 115.773 39.056 158.413 43.497.898.093 1.574.854 1.574 1.768v115.215c0 46.822-12.38 93.001-35.8 133.545-23.423 40.545-57.242 74.34-97.801 97.73l-25.398 14.648c-1.076.62-2.464.618-3.534.001l-25.399-14.649c-40.561-23.391-74.379-57.186-97.8-97.73-23.421-40.543-35.801-86.722-35.801-133.544v-48.673c0-4.143-3.358-7.501-7.501-7.501s-7.501 3.358-7.501 7.501v48.673c0 49.453 13.075 98.226 37.812 141.049 24.737 42.822 60.456 78.515 103.295 103.221l25.402 14.65c5.713 3.293 12.771 3.313 18.519-.001l25.4-14.649c42.838-24.705 78.558-60.398 103.296-103.222 24.736-42.822 37.811-91.596 37.811-141.049v-115.215c.001-8.623-6.458-15.797-15.021-16.689z" fill="#ffffff" data-original="#000000" style="" class=""/><path d="m364.269 230.594c.617 4.096 4.442 6.919 8.535 6.298 4.096-.617 6.916-4.439 6.298-8.535-3.985-26.436-16.111-50.429-35.067-69.384-48.475-48.472-127.465-48.603-176.07 0-39.731 39.731-47.634 100.991-20.363 149.288.074.136.149.271.23.401 5.379 9.444 12.085 18.332 20.133 26.38 48.546 48.544 127.541 48.526 176.07 0 18.958-18.959 31.084-42.953 35.068-69.39.617-4.096-2.202-7.917-6.299-8.534-4.092-.624-7.918 2.203-8.534 6.299-1.681 11.155-5.029 21.81-9.883 31.726-6.965-2.744-19.079-7.077-34.666-10.904 3.786-23.342 4.001-49.793 0-74.464 15.587-3.827 27.702-8.16 34.666-10.904 4.852 9.916 8.2 20.568 9.882 31.723zm-157.287-17.59c12.509 2.385 26.548 4.192 41.518 4.657v58.695c-14.948.468-28.992 2.282-41.514 4.675-3.498-22.049-3.503-45.952-.004-68.027zm41.517-74.216v63.864c-13.833-.467-26.893-2.177-38.579-4.415 5.218-21.522 17.701-52.405 38.579-59.449zm0 152.578v63.863c-20.885-7.046-33.362-37.944-38.574-59.43 11.699-2.247 24.763-3.963 38.574-4.433zm15.001 63.863v-63.863c13.811.47 26.875 2.187 38.575 4.433-5.224 21.534-17.71 52.39-38.575 59.43zm0-216.441c20.87 7.041 33.356 37.907 38.578 59.443-11.69 2.241-24.751 3.953-38.578 4.421zm-84.928 30.793c11.481-11.481 24.899-19.869 39.211-25.176-9.793 12.612-17.61 30.038-22.547 50.602-13.007-3.23-23.41-6.799-30.002-9.295 3.885-5.726 8.337-11.129 13.338-16.131zm-20.978 29.294c6.958 2.751 19.069 7.093 34.682 10.924-3.813 23.526-3.966 49.963.004 74.441-15.598 3.83-27.719 8.166-34.681 10.91-7.256-14.8-11.097-31.174-11.097-48.142-.001-16.964 3.838-33.335 11.092-48.133zm7.647 109.439c6.603-2.492 17.011-6.054 30.001-9.282 4.938 20.554 12.752 37.971 22.542 50.579-14.312-5.306-27.73-13.695-39.211-25.176-4.999-4.998-9.449-10.398-13.332-16.121zm181.511-.003c-3.886 5.728-8.33 11.128-13.326 16.124-11.48 11.481-24.899 19.869-39.21 25.176 9.789-12.608 17.604-30.025 22.542-50.579 12.985 3.227 23.391 6.787 29.994 9.279zm-41.737-27.28c-12.522-2.393-26.566-4.207-41.514-4.675v-58.696c14.948-.468 28.992-2.282 41.515-4.675 3.497 22.06 3.499 45.971-.001 68.046zm11.747-86.03c-4.938-20.561-12.754-37.984-22.546-50.595 14.312 5.306 27.73 13.695 39.211 25.176 4.998 4.997 9.443 10.399 13.33 16.13-6.597 2.495-16.998 6.061-29.995 9.289z" fill="#ffffff" data-original="#000000" style="" class=""/></g></g></g></svg>
