<?xml version="1.0"?>
<svg xmlns="http://www.w3.org/2000/svg" xmlns:xlink="http://www.w3.org/1999/xlink" xmlns:svgjs="http://svgjs.com/svgjs" version="1.1" width="512" height="512" x="0" y="0" viewBox="0 0 512 512" style="enable-background:new 0 0 512 512" xml:space="preserve"><g><g xmlns="http://www.w3.org/2000/svg"><g><path d="m305.13 414.15h39.59c4.142 0 7.5-3.357 7.5-7.5s-3.358-7.5-7.5-7.5h-39.59c-4.142 0-7.5 3.357-7.5 7.5s3.358 7.5 7.5 7.5z" fill="#ffffff" data-original="#000000" style=""/><path d="m225.95 414.15h39.59c4.142 0 7.5-3.357 7.5-7.5s-3.358-7.5-7.5-7.5h-39.59c-4.142 0-7.5 3.357-7.5 7.5s3.358 7.5 7.5 7.5z" fill="#ffffff" data-original="#000000" style=""/><path d="m146.77 414.15h39.59c4.142 0 7.5-3.357 7.5-7.5s-3.358-7.5-7.5-7.5h-39.59c-4.142 0-7.5 3.357-7.5 7.5s3.358 7.5 7.5 7.5z" fill="#ffffff" data-original="#000000" style=""/><path d="m376.81 406.65c0 4.143 3.358 7.5 7.5 7.5h39.59c4.142 0 7.5-3.357 7.5-7.5s-3.358-7.5-7.5-7.5h-39.59c-4.143 0-7.5 3.358-7.5 7.5z" fill="#ffffff" data-original="#000000" style=""/><path d="m107.18 399.15h-39.59c-4.142 0-7.5 3.357-7.5 7.5s3.358 7.5 7.5 7.5h39.59c4.142 0 7.5-3.357 7.5-7.5s-3.358-7.5-7.5-7.5z" fill="#ffffff" data-original="#000000" style=""/><path d="m146.77 112.851h39.59c4.142 0 7.5-3.357 7.5-7.5s-3.358-7.5-7.5-7.5h-39.59c-4.142 0-7.5 3.357-7.5 7.5s3.358 7.5 7.5 7.5z" fill="#ffffff" data-original="#000000" style=""/><path d="m107.18 97.851h-39.59c-4.142 0-7.5 3.357-7.5 7.5s3.358 7.5 7.5 7.5h39.59c4.142 0 7.5-3.357 7.5-7.5s-3.358-7.5-7.5-7.5z" fill="#ffffff" data-original="#000000" style=""/><path d="m225.95 112.851h39.59c4.142 0 7.5-3.357 7.5-7.5s-3.358-7.5-7.5-7.5h-39.59c-4.142 0-7.5 3.357-7.5 7.5s3.358 7.5 7.5 7.5z" fill="#ffffff" data-original="#000000" style=""/><path d="m305.13 112.851h39.59c4.142 0 7.5-3.357 7.5-7.5s-3.358-7.5-7.5-7.5h-39.59c-4.142 0-7.5 3.357-7.5 7.5s3.358 7.5 7.5 7.5z" fill="#ffffff" data-original="#000000" style=""/><path d="m423.9 112.851c4.142 0 7.5-3.357 7.5-7.5s-3.358-7.5-7.5-7.5h-39.59c-4.142 0-7.5 3.357-7.5 7.5s3.358 7.5 7.5 7.5z" fill="#ffffff" data-original="#000000" style=""/><path d="m491.49 190.794v-95.971c0-32.943-26.802-59.745-59.745-59.745h-333.12c-4.142 0-7.5 3.357-7.5 7.5s3.358 7.5 7.5 7.5h333.12c24.672 0 44.745 20.072 44.745 44.745v3.027h-13c-4.142 0-7.5 3.357-7.5 7.5s3.358 7.5 7.5 7.5h13v76.912h-101.222c-36.523 0-66.237 29.714-66.237 66.237s29.714 66.237 66.237 66.237h6.295c4.142 0 7.5-3.357 7.5-7.5s-3.358-7.5-7.5-7.5h-6.295c-28.252 0-51.237-22.985-51.237-51.237s22.985-51.237 51.237-51.237h108.707c7.183 0 13.026 5.844 13.026 13.026v76.422c0 7.179-5.838 13.02-13.016 13.026-.003 0-.007 0-.01 0-.007 0-.013.001-.019.001h-67.33c-4.142 0-7.5 3.357-7.5 7.5s3.358 7.5 7.5 7.5h59.854c.032 91.789.009 4.404.013 76.913h-13.003c-4.142 0-7.5 3.357-7.5 7.5s3.358 7.5 7.5 7.5h13v3.026c0 24.673-20.073 44.745-44.745 44.745h-391.885c-13.708 0-24.86-11.152-24.86-24.861v-22.91h13c4.142 0 7.5-3.357 7.5-7.5s-3.358-7.5-7.5-7.5h-13v-286.3h13c4.142 0 7.5-3.357 7.5-7.5s-3.358-7.5-7.5-7.5h-13v-22.911c0-13.709 11.152-24.861 24.86-24.861h23.39c4.142 0 7.5-3.357 7.5-7.5s-3.358-7.5-7.5-7.5h-23.39c-21.979 0-39.86 17.882-39.86 39.861v362.121c0 21.979 17.881 39.861 39.86 39.861h391.884c32.943 0 59.745-26.802 59.745-59.745-.01-78.043.016-12.354-.012-95.968 11.82-3.29 20.522-14.143 20.522-26.998v-76.422c.001-12.85-8.695-23.7-20.509-26.994z" fill="#ffffff" data-original="#000000" style=""/><path d="m375.477 224.883c-17.158 0-31.117 13.959-31.117 31.117s13.959 31.117 31.117 31.117 31.117-13.959 31.117-31.117-13.959-31.117-31.117-31.117zm0 47.234c-8.887 0-16.117-7.23-16.117-16.117s7.23-16.117 16.117-16.117 16.117 7.23 16.117 16.117-7.23 16.117-16.117 16.117z" fill="#ffffff" data-original="#000000" style=""/></g></g></g></svg>
