<?xml version="1.0"?>
<svg xmlns="http://www.w3.org/2000/svg" xmlns:xlink="http://www.w3.org/1999/xlink" xmlns:svgjs="http://svgjs.com/svgjs" version="1.1" width="512" height="512" x="0" y="0" viewBox="0 0 511.183 511.183" style="enable-background:new 0 0 512 512" xml:space="preserve"><g><g xmlns="http://www.w3.org/2000/svg"><path d="m444.302 496.183h-8.564v-117.116c0-4.143-3.358-7.5-7.5-7.5s-7.5 3.357-7.5 7.5v117.115h-101.542v-193.94h101.542v44.836c0 4.143 3.358 7.5 7.5 7.5s7.5-3.357 7.5-7.5v-45.719c0-7.784-6.333-14.117-14.117-14.117h-102.425v-42.77c0-7.784-6.333-14.117-14.117-14.117h-2.632v-23.017c0-8.583-6.983-15.566-15.567-15.566h-8.275v-48.692c8.11-3.713 15.227-9.212 20.844-16.038 1.031.061 2.061.099 3.089.099 12.515-.001 24.703-4.475 34.31-12.768 11.569-9.987 18.204-24.479 18.204-39.763v-37.627c0-8.156-6.635-14.791-14.792-14.791h-20.79l.77-8.158c.339-3.588-.857-7.175-3.283-9.84-2.425-2.666-5.883-4.194-9.486-4.194h-107.092c-3.604 0-7.061 1.528-9.486 4.194-2.426 2.665-3.622 6.252-3.283 9.839l.77 8.159h-20.79c-8.156 0-14.791 6.635-14.791 14.791v37.628c0 15.283 6.635 29.775 18.204 39.763 9.608 8.294 21.794 12.768 34.31 12.768 1.027 0 2.058-.039 3.089-.099 5.617 6.826 12.734 12.324 20.844 16.038v48.692h-9.275c-8.583 0-15.567 6.983-15.567 15.566v23.017h-2.632c-7.784 0-14.117 6.333-14.117 14.117v42.77h-102.426c-7.784 0-14.117 6.333-14.117 14.117v194.823h-4.232c-4.142 0-7.5 3.357-7.5 7.5s3.358 7.5 7.5 7.5h377.422c4.142 0 7.5-3.357 7.5-7.5s-3.358-7.5-7.5-7.5zm-263.497-393.163c-8.266-7.135-13.006-17.489-13.006-28.408v-37.42h21.997l5.462 57.854c.552 5.845 1.935 11.411 4.015 16.594-6.761-1.105-13.165-4.043-18.468-8.62zm29.386-9.384-7.423-78.636h102.314l-3.22 34.104c-.389 4.124 2.638 7.782 6.762 8.172 4.12.392 7.783-2.638 8.172-6.762l1.258-13.321h21.997v37.419c0 10.919-4.74 21.272-13.006 28.408-5.303 4.578-11.707 7.517-18.468 8.622 2.08-5.184 3.463-10.75 4.015-16.595l1.172-12.419c.389-4.124-2.638-7.782-6.762-8.172-4.125-.387-7.783 2.638-8.172 6.762l-1.172 12.419c-2.142 22.689-20.943 39.799-43.733 39.799s-41.592-17.111-43.734-39.8zm34.055 54.001c3.152.515 6.382.797 9.679.797s6.528-.282 9.679-.797v44.135h-19.358zm-24.843 59.702c0-.312.254-.566.567-.566h66.909c.312 0 .567.254.567.566v23.017h-68.043zm-133.291 94.903h101.542v123.312c0 4.143 3.358 7.5 7.5 7.5s7.5-3.357 7.5-7.5v-180.199h101.542v250.827h-101.542v-38.64c0-4.143-3.358-7.5-7.5-7.5s-7.5 3.357-7.5 7.5v38.64h-101.542z" fill="#ffffff" data-original="#000000" style=""/><path d="m122.404 72.915h-9.675c-4.142 0-7.5 3.357-7.5 7.5s3.358 7.5 7.5 7.5h9.675c4.142 0 7.5-3.357 7.5-7.5s-3.358-7.5-7.5-7.5z" fill="#ffffff" data-original="#000000" style=""/><path d="m103.909 39.007 21.964 8.739c.91.362 1.848.533 2.771.533 2.981 0 5.802-1.79 6.971-4.729 1.531-3.849-.347-8.21-4.196-9.741l-21.964-8.739c-3.848-1.532-8.209.348-9.741 4.196s.347 8.21 4.195 9.741z" fill="#ffffff" data-original="#000000" style=""/><path d="m106.685 136.293c.922 0 1.861-.172 2.77-.533l21.964-8.739c3.849-1.531 5.728-5.893 4.196-9.741-1.531-3.849-5.892-5.727-9.742-4.196l-21.964 8.739c-3.849 1.531-5.727 5.893-4.196 9.741 1.17 2.939 3.99 4.729 6.972 4.729z" fill="#ffffff" data-original="#000000" style=""/><path d="m385.445 72.915c-4.142 0-7.5 3.357-7.5 7.5s3.358 7.5 7.5 7.5h9.675c4.142 0 7.5-3.357 7.5-7.5s-3.358-7.5-7.5-7.5z" fill="#ffffff" data-original="#000000" style=""/><path d="m379.206 48.279c.922 0 1.861-.172 2.771-.533l21.964-8.739c3.849-1.531 5.727-5.893 4.196-9.741s-5.893-5.726-9.741-4.196l-21.964 8.739c-3.849 1.531-5.728 5.893-4.196 9.741 1.168 2.939 3.988 4.729 6.97 4.729z" fill="#ffffff" data-original="#000000" style=""/><path d="m376.431 127.021 21.964 8.739c.91.362 1.847.533 2.77.533 2.981 0 5.802-1.79 6.971-4.729 1.531-3.849-.347-8.21-4.196-9.741l-21.964-8.739c-3.849-1.532-8.21.347-9.742 4.196-1.531 3.848.348 8.209 4.197 9.741z" fill="#ffffff" data-original="#000000" style=""/><path d="m263.66 101.378v-62.486c0-4.143-3.358-7.5-7.5-7.5h-13.355c-4.142 0-7.5 3.357-7.5 7.5s3.358 7.5 7.5 7.5h5.855v54.986c0 4.143 3.358 7.5 7.5 7.5s7.5-3.357 7.5-7.5z" fill="#ffffff" data-original="#000000" style=""/></g></g></svg>
