<?xml version="1.0" encoding="UTF-8" standalone="no"?>
<svg
   xmlns:dc="http://purl.org/dc/elements/1.1/"
   xmlns:cc="http://creativecommons.org/ns#"
   xmlns:rdf="http://www.w3.org/1999/02/22-rdf-syntax-ns#"
   xmlns:svg="http://www.w3.org/2000/svg"
   xmlns="http://www.w3.org/2000/svg"
   xmlns:sodipodi="http://sodipodi.sourceforge.net/DTD/sodipodi-0.dtd"
   xmlns:inkscape="http://www.inkscape.org/namespaces/inkscape"
   viewBox="0 0 48 48"
   version="1.1"
   id="svg7697"
   sodipodi:docname="dollarbag_futo.svg"
   inkscape:version="1.0.1 (3bc2e813f5, 2020-09-07)">
  <metadata
     id="metadata7701">
    <rdf:RDF>
      <cc:Work
         rdf:about="">
        <dc:format>image/svg+xml</dc:format>
        <dc:type
           rdf:resource="http://purl.org/dc/dcmitype/StillImage" />
        <dc:title>dollarbag_24</dc:title>
      </cc:Work>
    </rdf:RDF>
  </metadata>
  <sodipodi:namedview
     pagecolor="#ffffff"
     bordercolor="#666666"
     borderopacity="1"
     objecttolerance="10"
     gridtolerance="10"
     guidetolerance="10"
     inkscape:pageopacity="0"
     inkscape:pageshadow="2"
     inkscape:window-width="1920"
     inkscape:window-height="1027"
     id="namedview7699"
     showgrid="false"
     units="px"
     inkscape:zoom="12.668996"
     inkscape:cx="31.883544"
     inkscape:cy="30.301484"
     inkscape:window-x="-8"
     inkscape:window-y="-8"
     inkscape:window-maximized="1"
     inkscape:current-layer="layer9" />
  <defs
     id="defs7673">
    <style
       id="style7671">.a,.b{fill:none;}.b{stroke:#000;stroke-linecap:round;stroke-linejoin:round;stroke-width:4px;}</style>
  </defs>
  <title
     id="title7675">dollarbag_24</title>
  <rect
     class="a"
     width="48"
     height="48"
     id="rect7677" />
  <line
     class="b"
     x1="28.03"
     y1="23"
     x2="29.03"
     y2="22"
     id="line7679" />
  <line
     class="b"
     x1="19.03"
     y1="22"
     x2="24.03"
     y2="27"
     id="line7681" />
  <line
     class="b"
     x1="24.03"
     y1="37"
     x2="24.03"
     y2="27"
     id="line7683" />
  <line
     class="b"
     x1="19.03"
     y1="28"
     x2="24.03"
     y2="28"
     id="line7685" />
  <line
     class="b"
     x1="29.03"
     y1="28"
     x2="29.03"
     y2="28"
     id="line7687" />
  <line
     class="b"
     x1="19.03"
     y1="33"
     x2="24.03"
     y2="33"
     id="line7689" />
  <line
     class="b"
     x1="29.03"
     y1="33"
     x2="29.03"
     y2="33"
     id="line7691" />
  <path
     class="b"
     d="M40.06,43a18.86,18.86,0,0,0-8-27.18A2,2,0,0,1,31.23,13l3-5a2,2,0,0,0-1.72-3H15.56a2,2,0,0,0-1.71,3l3,5A2,2,0,0,1,16,15.82a18.91,18.91,0,0,0-8.71,26.1A2,2,0,0,0,9.05,43H33"
     id="path7693" />
  <line
     class="b"
     x1="18.03"
     y1="15"
     x2="30.03"
     y2="15"
     id="line7695" />
  <g
     inkscape:groupmode="layer"
     id="layer9"
     inkscape:label="Layer 1"
     style="display:inline">
    <g
       id="g10230"
       transform="matrix(3.7795276,0,0,3.7795276,-376.48531,-468.05749)">
      <g
         id="g10118"
         transform="matrix(0.26458333,0,0,0.26458333,99.611738,123.84021)">
        <rect
           class="a"
           width="48"
           height="48"
           id="rect10081"
           x="0"
           y="0" />
        <line
           class="b"
           x1="28.030001"
           y1="23"
           x2="29.030001"
           y2="22"
           id="line10083"
           style="stroke:#ffffff;stroke-opacity:1" />
        <line
           class="b"
           x1="19.030001"
           y1="22"
           x2="24.030001"
           y2="27"
           id="line10085"
           style="stroke:#ffffff;stroke-opacity:1" />
        <line
           class="b"
           x1="24.030001"
           y1="37"
           x2="24.030001"
           y2="27"
           id="line10087"
           style="stroke:#ffffff;stroke-opacity:1" />
        <line
           class="b"
           x1="19.030001"
           y1="28"
           x2="24.030001"
           y2="28"
           id="line10089"
           style="stroke:#ffffff;stroke-opacity:1" />
        <line
           class="b"
           x1="29.030001"
           y1="28"
           x2="29.030001"
           y2="28"
           id="line10091" />
        <line
           class="b"
           x1="19.030001"
           y1="33"
           x2="24.030001"
           y2="33"
           id="line10093"
           style="stroke:#ffffff;stroke-opacity:1" />
        <line
           class="b"
           x1="29.030001"
           y1="33"
           x2="29.030001"
           y2="33"
           id="line10095" />
        <path
           class="b"
           d="M 40.06,43 A 18.86,18.86 0 0 0 32.06,15.82 2,2 0 0 1 31.23,13 l 3,-5 A 2,2 0 0 0 32.51,5 H 15.56 a 2,2 0 0 0 -1.71,3 l 3,5 A 2,2 0 0 1 16,15.82 18.91,18.91 0 0 0 7.29,41.92 2,2 0 0 0 9.05,43 H 33"
           id="path10097"
           style="stroke:#ffffff;stroke-opacity:1" />
        <line
           class="b"
           x1="18.030001"
           y1="15"
           x2="30.030001"
           y2="15"
           id="line10099"
           style="stroke:#ffffff;stroke-opacity:1" />
      </g>
      <ellipse
         style="fill:#ffffff;fill-opacity:1;fill-rule:nonzero;stroke:none;stroke-width:19.1046;stroke-linecap:round;stroke-linejoin:round;stroke-miterlimit:10"
         id="path10200"
         cx="107.29305"
         cy="131.24814"
         rx="0.52931899"
         ry="0.53036296" />
      <ellipse
         style="fill:#ffffff;fill-opacity:1;fill-rule:nonzero;stroke:none;stroke-width:19.1046;stroke-linecap:round;stroke-linejoin:round;stroke-miterlimit:10"
         id="path10200-2"
         cx="107.29202"
         cy="132.57195"
         rx="0.52931899"
         ry="0.53036296" />
    </g>
  </g>
</svg>
