<?xml version="1.0" encoding="UTF-8" standalone="no"?>
<svg
   xmlns:dc="http://purl.org/dc/elements/1.1/"
   xmlns:cc="http://creativecommons.org/ns#"
   xmlns:rdf="http://www.w3.org/1999/02/22-rdf-syntax-ns#"
   xmlns:svg="http://www.w3.org/2000/svg"
   xmlns="http://www.w3.org/2000/svg"
   xmlns:sodipodi="http://sodipodi.sourceforge.net/DTD/sodipodi-0.dtd"
   xmlns:inkscape="http://www.inkscape.org/namespaces/inkscape"
   viewBox="0 0 48 48"
   version="1.1"
   id="svg9353"
   sodipodi:docname="setting_futo.svg"
   inkscape:version="1.0.1 (3bc2e813f5, 2020-09-07)">
  <metadata
     id="metadata9357">
    <rdf:RDF>
      <cc:Work
         rdf:about="">
        <dc:format>image/svg+xml</dc:format>
        <dc:type
           rdf:resource="http://purl.org/dc/dcmitype/StillImage" />
      </cc:Work>
    </rdf:RDF>
  </metadata>
  <sodipodi:namedview
     pagecolor="#ffffff"
     bordercolor="#666666"
     borderopacity="1"
     objecttolerance="10"
     gridtolerance="10"
     guidetolerance="10"
     inkscape:pageopacity="0"
     inkscape:pageshadow="2"
     inkscape:window-width="1920"
     inkscape:window-height="1027"
     id="namedview9355"
     showgrid="false"
     inkscape:zoom="17.916667"
     inkscape:cx="24"
     inkscape:cy="24"
     inkscape:window-x="-8"
     inkscape:window-y="-8"
     inkscape:window-maximized="1"
     inkscape:current-layer="svg9353" />
  <defs
     id="defs9340">
    <style
       id="style9338">.cls-1,.cls-2{fill:none;}.cls-2{stroke:#000;stroke-linecap:round;stroke-linejoin:round;stroke-width:4px;}</style>
  </defs>
  <title
     id="title9342">gear_24</title>
  <g
     id="レイヤー_2"
     data-name="レイヤー 2">
    <g
       id="Rect_最後透明に_"
       data-name="Rect（最後透明に）">
      <rect
         class="cls-1"
         width="48"
         height="48"
         id="rect9344" />
    </g>
    <g
       id="icon">
      <path
         class="cls-2"
         d="M14.67,36a9.66,9.66,0,0,1,.94,5,17.36,17.36,0,0,0,2.47,1c3.85-4.19,8.16-4.19,12,0a17.36,17.36,0,0,0,2.47-1c-.23-5.68,2.81-8.73,8.49-8.49a18.39,18.39,0,0,0,1-2.47c-4.19-3.85-4.19-8.17,0-12a18.39,18.39,0,0,0-1-2.47c-5.68.24-8.72-2.81-8.49-8.49a17.36,17.36,0,0,0-2.47-1c-3.85,4.19-8.16,4.19-12,0a17.36,17.36,0,0,0-2.47,1c.23,5.68-2.82,8.73-8.5,8.49a21.42,21.42,0,0,0-1,2.47c4.19,3.85,4.19,8.17,0,12a21.42,21.42,0,0,0,1,2.47,12,12,0,0,1,2.36.11"
         id="path9347"
         style="stroke:#ffffff;stroke-opacity:1" />
      <path
         class="cls-2"
         d="M18.15,24.91a6,6,0,1,1,6.84,5,5.94,5.94,0,0,1-3-.32"
         id="path9349"
         style="stroke:#ffffff;stroke-opacity:1" />
    </g>
  </g>
</svg>
