<?xml version="1.0" encoding="UTF-8" standalone="no"?>
<svg
   xmlns:dc="http://purl.org/dc/elements/1.1/"
   xmlns:cc="http://creativecommons.org/ns#"
   xmlns:rdf="http://www.w3.org/1999/02/22-rdf-syntax-ns#"
   xmlns:svg="http://www.w3.org/2000/svg"
   xmlns="http://www.w3.org/2000/svg"
   xmlns:sodipodi="http://sodipodi.sourceforge.net/DTD/sodipodi-0.dtd"
   xmlns:inkscape="http://www.inkscape.org/namespaces/inkscape"
   viewBox="0 0 48 48"
   version="1.1"
   id="svg10557"
   sodipodi:docname="star_futo.svg"
   inkscape:version="1.0.1 (3bc2e813f5, 2020-09-07)">
  <metadata
     id="metadata10561">
    <rdf:RDF>
      <cc:Work
         rdf:about="">
        <dc:format>image/svg+xml</dc:format>
        <dc:type
           rdf:resource="http://purl.org/dc/dcmitype/StillImage" />
      </cc:Work>
    </rdf:RDF>
  </metadata>
  <sodipodi:namedview
     pagecolor="#ffffff"
     bordercolor="#666666"
     borderopacity="1"
     objecttolerance="10"
     gridtolerance="10"
     guidetolerance="10"
     inkscape:pageopacity="0"
     inkscape:pageshadow="2"
     inkscape:window-width="1920"
     inkscape:window-height="1027"
     id="namedview10559"
     showgrid="false"
     inkscape:zoom="17.916667"
     inkscape:cx="24"
     inkscape:cy="24"
     inkscape:window-x="-8"
     inkscape:window-y="-8"
     inkscape:window-maximized="1"
     inkscape:current-layer="svg10557" />
  <defs
     id="defs10546">
    <style
       id="style10544">.cls-1,.cls-2{fill:none;}.cls-2{stroke:#000;stroke-linecap:round;stroke-linejoin:round;stroke-width:4px;}</style>
  </defs>
  <title
     id="title10548">star_24</title>
  <g
     id="レイヤー_2"
     data-name="レイヤー 2">
    <g
       id="Rect_最後透明に_"
       data-name="Rect（最後透明に）">
      <rect
         class="cls-1"
         width="48"
         height="48"
         id="rect10550" />
    </g>
    <g
       id="icon">
      <path
         class="cls-2"
         d="M11.12,24.53,5.26,20.27a.51.51,0,0,1,.29-.92H18.91a.5.5,0,0,0,.48-.35L23.52,6.3a.5.5,0,0,1,1,0L28.61,19a.5.5,0,0,0,.48.35H42.45a.51.51,0,0,1,.29.92l-10.8,7.85a.51.51,0,0,0-.19.56l4.13,12.71a.5.5,0,0,1-.78.56L24.3,34.1a.51.51,0,0,0-.6,0L12.9,42a.5.5,0,0,1-.78-.56l4.13-12.71"
         id="path10553"
         style="stroke:#ffffff;stroke-opacity:1" />
    </g>
  </g>
</svg>
